<?xml version="1.0" encoding="utf-8" standalone="no"?>
<!DOCTYPE svg PUBLIC "-//W3C//DTD SVG 1.1//EN"
  "http://www.w3.org/Graphics/SVG/1.1/DTD/svg11.dtd">
<!-- Created with matplotlib (https://matplotlib.org/) -->
<svg height="288pt" version="1.1" viewBox="0 0 432 288" width="432pt" xmlns="http://www.w3.org/2000/svg" xmlns:xlink="http://www.w3.org/1999/xlink">
 <defs>
  <style type="text/css">
*{stroke-linecap:butt;stroke-linejoin:round;}
  </style>
 </defs>
 <g id="figure_1">
  <g id="patch_1">
   <path d="M 0 288 
L 432 288 
L 432 0 
L 0 0 
z
" style="fill:#ffffff;"/>
  </g>
  <g id="axes_1">
   <g id="patch_2">
    <path d="M 43.55 220.230771 
L 315.36 220.230771 
L 315.36 12.9 
L 43.55 12.9 
z
" style="fill:#ffffff;"/>
   </g>
   <g id="matplotlib.axis_1">
    <g id="xtick_1">
     <g id="line2d_1">
      <defs>
       <path d="M 0 0 
L 0 3.5 
" id="m9897faa945" style="stroke:#000000;stroke-width:0.8;"/>
      </defs>
      <g>
       <use style="stroke:#000000;stroke-width:0.8;" x="50.482111" xlink:href="#m9897faa945" y="220.230771"/>
      </g>
     </g>
     <g id="text_1">
      <!-- 2020-11-29 -->
      <defs>
       <path d="M 19.1875 8.296875 
L 53.609375 8.296875 
L 53.609375 0 
L 7.328125 0 
L 7.328125 8.296875 
Q 12.9375 14.109375 22.625 23.890625 
Q 32.328125 33.6875 34.8125 36.53125 
Q 39.546875 41.84375 41.421875 45.53125 
Q 43.3125 49.21875 43.3125 52.78125 
Q 43.3125 58.59375 39.234375 62.25 
Q 35.15625 65.921875 28.609375 65.921875 
Q 23.96875 65.921875 18.8125 64.3125 
Q 13.671875 62.703125 7.8125 59.421875 
L 7.8125 69.390625 
Q 13.765625 71.78125 18.9375 73 
Q 24.125 74.21875 28.421875 74.21875 
Q 39.75 74.21875 46.484375 68.546875 
Q 53.21875 62.890625 53.21875 53.421875 
Q 53.21875 48.921875 51.53125 44.890625 
Q 49.859375 40.875 45.40625 35.40625 
Q 44.1875 33.984375 37.640625 27.21875 
Q 31.109375 20.453125 19.1875 8.296875 
z
" id="DejaVuSans-50"/>
       <path d="M 31.78125 66.40625 
Q 24.171875 66.40625 20.328125 58.90625 
Q 16.5 51.421875 16.5 36.375 
Q 16.5 21.390625 20.328125 13.890625 
Q 24.171875 6.390625 31.78125 6.390625 
Q 39.453125 6.390625 43.28125 13.890625 
Q 47.125 21.390625 47.125 36.375 
Q 47.125 51.421875 43.28125 58.90625 
Q 39.453125 66.40625 31.78125 66.40625 
z
M 31.78125 74.21875 
Q 44.046875 74.21875 50.515625 64.515625 
Q 56.984375 54.828125 56.984375 36.375 
Q 56.984375 17.96875 50.515625 8.265625 
Q 44.046875 -1.421875 31.78125 -1.421875 
Q 19.53125 -1.421875 13.0625 8.265625 
Q 6.59375 17.96875 6.59375 36.375 
Q 6.59375 54.828125 13.0625 64.515625 
Q 19.53125 74.21875 31.78125 74.21875 
z
" id="DejaVuSans-48"/>
       <path d="M 4.890625 31.390625 
L 31.203125 31.390625 
L 31.203125 23.390625 
L 4.890625 23.390625 
z
" id="DejaVuSans-45"/>
       <path d="M 12.40625 8.296875 
L 28.515625 8.296875 
L 28.515625 63.921875 
L 10.984375 60.40625 
L 10.984375 69.390625 
L 28.421875 72.90625 
L 38.28125 72.90625 
L 38.28125 8.296875 
L 54.390625 8.296875 
L 54.390625 0 
L 12.40625 0 
z
" id="DejaVuSans-49"/>
       <path d="M 10.984375 1.515625 
L 10.984375 10.5 
Q 14.703125 8.734375 18.5 7.8125 
Q 22.3125 6.890625 25.984375 6.890625 
Q 35.75 6.890625 40.890625 13.453125 
Q 46.046875 20.015625 46.78125 33.40625 
Q 43.953125 29.203125 39.59375 26.953125 
Q 35.25 24.703125 29.984375 24.703125 
Q 19.046875 24.703125 12.671875 31.3125 
Q 6.296875 37.9375 6.296875 49.421875 
Q 6.296875 60.640625 12.9375 67.421875 
Q 19.578125 74.21875 30.609375 74.21875 
Q 43.265625 74.21875 49.921875 64.515625 
Q 56.59375 54.828125 56.59375 36.375 
Q 56.59375 19.140625 48.40625 8.859375 
Q 40.234375 -1.421875 26.421875 -1.421875 
Q 22.703125 -1.421875 18.890625 -0.6875 
Q 15.09375 0.046875 10.984375 1.515625 
z
M 30.609375 32.421875 
Q 37.25 32.421875 41.125 36.953125 
Q 45.015625 41.5 45.015625 49.421875 
Q 45.015625 57.28125 41.125 61.84375 
Q 37.25 66.40625 30.609375 66.40625 
Q 23.96875 66.40625 20.09375 61.84375 
Q 16.21875 57.28125 16.21875 49.421875 
Q 16.21875 41.5 20.09375 36.953125 
Q 23.96875 32.421875 30.609375 32.421875 
z
" id="DejaVuSans-57"/>
      </defs>
      <g transform="translate(26.696994 262.869024)rotate(-30)scale(0.1 -0.1)">
       <use xlink:href="#DejaVuSans-50"/>
       <use x="63.623047" xlink:href="#DejaVuSans-48"/>
       <use x="127.246094" xlink:href="#DejaVuSans-50"/>
       <use x="190.869141" xlink:href="#DejaVuSans-48"/>
       <use x="254.492188" xlink:href="#DejaVuSans-45"/>
       <use x="290.576172" xlink:href="#DejaVuSans-49"/>
       <use x="354.199219" xlink:href="#DejaVuSans-49"/>
       <use x="417.822266" xlink:href="#DejaVuSans-45"/>
       <use x="453.90625" xlink:href="#DejaVuSans-50"/>
       <use x="517.529297" xlink:href="#DejaVuSans-57"/>
      </g>
     </g>
    </g>
    <g id="xtick_2">
     <g id="line2d_2">
      <g>
       <use style="stroke:#000000;stroke-width:0.8;" x="57.971195" xlink:href="#m9897faa945" y="220.230771"/>
      </g>
     </g>
     <g id="text_2">
      <!-- 2020-12-01 -->
      <g transform="translate(34.186079 262.869024)rotate(-30)scale(0.1 -0.1)">
       <use xlink:href="#DejaVuSans-50"/>
       <use x="63.623047" xlink:href="#DejaVuSans-48"/>
       <use x="127.246094" xlink:href="#DejaVuSans-50"/>
       <use x="190.869141" xlink:href="#DejaVuSans-48"/>
       <use x="254.492188" xlink:href="#DejaVuSans-45"/>
       <use x="290.576172" xlink:href="#DejaVuSans-49"/>
       <use x="354.199219" xlink:href="#DejaVuSans-50"/>
       <use x="417.822266" xlink:href="#DejaVuSans-45"/>
       <use x="453.90625" xlink:href="#DejaVuSans-48"/>
       <use x="517.529297" xlink:href="#DejaVuSans-49"/>
      </g>
     </g>
    </g>
    <g id="xtick_3">
     <g id="line2d_3">
      <g>
       <use style="stroke:#000000;stroke-width:0.8;" x="110.394788" xlink:href="#m9897faa945" y="220.230771"/>
      </g>
     </g>
     <g id="text_3">
      <!-- 2020-12-15 -->
      <defs>
       <path d="M 10.796875 72.90625 
L 49.515625 72.90625 
L 49.515625 64.59375 
L 19.828125 64.59375 
L 19.828125 46.734375 
Q 21.96875 47.46875 24.109375 47.828125 
Q 26.265625 48.1875 28.421875 48.1875 
Q 40.625 48.1875 47.75 41.5 
Q 54.890625 34.8125 54.890625 23.390625 
Q 54.890625 11.625 47.5625 5.09375 
Q 40.234375 -1.421875 26.90625 -1.421875 
Q 22.3125 -1.421875 17.546875 -0.640625 
Q 12.796875 0.140625 7.71875 1.703125 
L 7.71875 11.625 
Q 12.109375 9.234375 16.796875 8.0625 
Q 21.484375 6.890625 26.703125 6.890625 
Q 35.15625 6.890625 40.078125 11.328125 
Q 45.015625 15.765625 45.015625 23.390625 
Q 45.015625 31 40.078125 35.4375 
Q 35.15625 39.890625 26.703125 39.890625 
Q 22.75 39.890625 18.8125 39.015625 
Q 14.890625 38.140625 10.796875 36.28125 
z
" id="DejaVuSans-53"/>
      </defs>
      <g transform="translate(86.609672 262.869024)rotate(-30)scale(0.1 -0.1)">
       <use xlink:href="#DejaVuSans-50"/>
       <use x="63.623047" xlink:href="#DejaVuSans-48"/>
       <use x="127.246094" xlink:href="#DejaVuSans-50"/>
       <use x="190.869141" xlink:href="#DejaVuSans-48"/>
       <use x="254.492188" xlink:href="#DejaVuSans-45"/>
       <use x="290.576172" xlink:href="#DejaVuSans-49"/>
       <use x="354.199219" xlink:href="#DejaVuSans-50"/>
       <use x="417.822266" xlink:href="#DejaVuSans-45"/>
       <use x="453.90625" xlink:href="#DejaVuSans-49"/>
       <use x="517.529297" xlink:href="#DejaVuSans-53"/>
      </g>
     </g>
    </g>
    <g id="xtick_4">
     <g id="line2d_4">
      <g>
       <use style="stroke:#000000;stroke-width:0.8;" x="162.818381" xlink:href="#m9897faa945" y="220.230771"/>
      </g>
     </g>
     <g id="text_4">
      <!-- 2020-12-29 -->
      <g transform="translate(139.033265 262.869024)rotate(-30)scale(0.1 -0.1)">
       <use xlink:href="#DejaVuSans-50"/>
       <use x="63.623047" xlink:href="#DejaVuSans-48"/>
       <use x="127.246094" xlink:href="#DejaVuSans-50"/>
       <use x="190.869141" xlink:href="#DejaVuSans-48"/>
       <use x="254.492188" xlink:href="#DejaVuSans-45"/>
       <use x="290.576172" xlink:href="#DejaVuSans-49"/>
       <use x="354.199219" xlink:href="#DejaVuSans-50"/>
       <use x="417.822266" xlink:href="#DejaVuSans-45"/>
       <use x="453.90625" xlink:href="#DejaVuSans-50"/>
       <use x="517.529297" xlink:href="#DejaVuSans-57"/>
      </g>
     </g>
    </g>
    <g id="xtick_5">
     <g id="line2d_5">
      <g>
       <use style="stroke:#000000;stroke-width:0.8;" x="174.052008" xlink:href="#m9897faa945" y="220.230771"/>
      </g>
     </g>
     <g id="text_5">
      <!-- 2021-01-01 -->
      <g transform="translate(150.266892 262.869024)rotate(-30)scale(0.1 -0.1)">
       <use xlink:href="#DejaVuSans-50"/>
       <use x="63.623047" xlink:href="#DejaVuSans-48"/>
       <use x="127.246094" xlink:href="#DejaVuSans-50"/>
       <use x="190.869141" xlink:href="#DejaVuSans-49"/>
       <use x="254.492188" xlink:href="#DejaVuSans-45"/>
       <use x="290.576172" xlink:href="#DejaVuSans-48"/>
       <use x="354.199219" xlink:href="#DejaVuSans-49"/>
       <use x="417.822266" xlink:href="#DejaVuSans-45"/>
       <use x="453.90625" xlink:href="#DejaVuSans-48"/>
       <use x="517.529297" xlink:href="#DejaVuSans-49"/>
      </g>
     </g>
    </g>
    <g id="xtick_6">
     <g id="line2d_6">
      <g>
       <use style="stroke:#000000;stroke-width:0.8;" x="226.475601" xlink:href="#m9897faa945" y="220.230771"/>
      </g>
     </g>
     <g id="text_6">
      <!-- 2021-01-15 -->
      <g transform="translate(202.690484 262.869024)rotate(-30)scale(0.1 -0.1)">
       <use xlink:href="#DejaVuSans-50"/>
       <use x="63.623047" xlink:href="#DejaVuSans-48"/>
       <use x="127.246094" xlink:href="#DejaVuSans-50"/>
       <use x="190.869141" xlink:href="#DejaVuSans-49"/>
       <use x="254.492188" xlink:href="#DejaVuSans-45"/>
       <use x="290.576172" xlink:href="#DejaVuSans-48"/>
       <use x="354.199219" xlink:href="#DejaVuSans-49"/>
       <use x="417.822266" xlink:href="#DejaVuSans-45"/>
       <use x="453.90625" xlink:href="#DejaVuSans-49"/>
       <use x="517.529297" xlink:href="#DejaVuSans-53"/>
      </g>
     </g>
    </g>
    <g id="xtick_7">
     <g id="line2d_7">
      <g>
       <use style="stroke:#000000;stroke-width:0.8;" x="278.899193" xlink:href="#m9897faa945" y="220.230771"/>
      </g>
     </g>
     <g id="text_7">
      <!-- 2021-01-29 -->
      <g transform="translate(255.114077 262.869024)rotate(-30)scale(0.1 -0.1)">
       <use xlink:href="#DejaVuSans-50"/>
       <use x="63.623047" xlink:href="#DejaVuSans-48"/>
       <use x="127.246094" xlink:href="#DejaVuSans-50"/>
       <use x="190.869141" xlink:href="#DejaVuSans-49"/>
       <use x="254.492188" xlink:href="#DejaVuSans-45"/>
       <use x="290.576172" xlink:href="#DejaVuSans-48"/>
       <use x="354.199219" xlink:href="#DejaVuSans-49"/>
       <use x="417.822266" xlink:href="#DejaVuSans-45"/>
       <use x="453.90625" xlink:href="#DejaVuSans-50"/>
       <use x="517.529297" xlink:href="#DejaVuSans-57"/>
      </g>
     </g>
    </g>
    <g id="xtick_8">
     <g id="line2d_8">
      <g>
       <use style="stroke:#000000;stroke-width:0.8;" x="290.13282" xlink:href="#m9897faa945" y="220.230771"/>
      </g>
     </g>
     <g id="text_8">
      <!-- 2021-02-01 -->
      <g transform="translate(266.347704 262.869024)rotate(-30)scale(0.1 -0.1)">
       <use xlink:href="#DejaVuSans-50"/>
       <use x="63.623047" xlink:href="#DejaVuSans-48"/>
       <use x="127.246094" xlink:href="#DejaVuSans-50"/>
       <use x="190.869141" xlink:href="#DejaVuSans-49"/>
       <use x="254.492188" xlink:href="#DejaVuSans-45"/>
       <use x="290.576172" xlink:href="#DejaVuSans-48"/>
       <use x="354.199219" xlink:href="#DejaVuSans-50"/>
       <use x="417.822266" xlink:href="#DejaVuSans-45"/>
       <use x="453.90625" xlink:href="#DejaVuSans-48"/>
       <use x="517.529297" xlink:href="#DejaVuSans-49"/>
      </g>
     </g>
    </g>
    <g id="text_9">
     <!-- Date -->
     <defs>
      <path d="M 19.671875 64.796875 
L 19.671875 8.109375 
L 31.59375 8.109375 
Q 46.6875 8.109375 53.6875 14.9375 
Q 60.6875 21.78125 60.6875 36.53125 
Q 60.6875 51.171875 53.6875 57.984375 
Q 46.6875 64.796875 31.59375 64.796875 
z
M 9.8125 72.90625 
L 30.078125 72.90625 
Q 51.265625 72.90625 61.171875 64.09375 
Q 71.09375 55.28125 71.09375 36.53125 
Q 71.09375 17.671875 61.125 8.828125 
Q 51.171875 0 30.078125 0 
L 9.8125 0 
z
" id="DejaVuSans-68"/>
      <path d="M 34.28125 27.484375 
Q 23.390625 27.484375 19.1875 25 
Q 14.984375 22.515625 14.984375 16.5 
Q 14.984375 11.71875 18.140625 8.90625 
Q 21.296875 6.109375 26.703125 6.109375 
Q 34.1875 6.109375 38.703125 11.40625 
Q 43.21875 16.703125 43.21875 25.484375 
L 43.21875 27.484375 
z
M 52.203125 31.203125 
L 52.203125 0 
L 43.21875 0 
L 43.21875 8.296875 
Q 40.140625 3.328125 35.546875 0.953125 
Q 30.953125 -1.421875 24.3125 -1.421875 
Q 15.921875 -1.421875 10.953125 3.296875 
Q 6 8.015625 6 15.921875 
Q 6 25.140625 12.171875 29.828125 
Q 18.359375 34.515625 30.609375 34.515625 
L 43.21875 34.515625 
L 43.21875 35.40625 
Q 43.21875 41.609375 39.140625 45 
Q 35.0625 48.390625 27.6875 48.390625 
Q 23 48.390625 18.546875 47.265625 
Q 14.109375 46.140625 10.015625 43.890625 
L 10.015625 52.203125 
Q 14.9375 54.109375 19.578125 55.046875 
Q 24.21875 56 28.609375 56 
Q 40.484375 56 46.34375 49.84375 
Q 52.203125 43.703125 52.203125 31.203125 
z
" id="DejaVuSans-97"/>
      <path d="M 18.3125 70.21875 
L 18.3125 54.6875 
L 36.8125 54.6875 
L 36.8125 47.703125 
L 18.3125 47.703125 
L 18.3125 18.015625 
Q 18.3125 11.328125 20.140625 9.421875 
Q 21.96875 7.515625 27.59375 7.515625 
L 36.8125 7.515625 
L 36.8125 0 
L 27.59375 0 
Q 17.1875 0 13.234375 3.875 
Q 9.28125 7.765625 9.28125 18.015625 
L 9.28125 47.703125 
L 2.6875 47.703125 
L 2.6875 54.6875 
L 9.28125 54.6875 
L 9.28125 70.21875 
z
" id="DejaVuSans-116"/>
      <path d="M 56.203125 29.59375 
L 56.203125 25.203125 
L 14.890625 25.203125 
Q 15.484375 15.921875 20.484375 11.0625 
Q 25.484375 6.203125 34.421875 6.203125 
Q 39.59375 6.203125 44.453125 7.46875 
Q 49.3125 8.734375 54.109375 11.28125 
L 54.109375 2.78125 
Q 49.265625 0.734375 44.1875 -0.34375 
Q 39.109375 -1.421875 33.890625 -1.421875 
Q 20.796875 -1.421875 13.15625 6.1875 
Q 5.515625 13.8125 5.515625 26.8125 
Q 5.515625 40.234375 12.765625 48.109375 
Q 20.015625 56 32.328125 56 
Q 43.359375 56 49.78125 48.890625 
Q 56.203125 41.796875 56.203125 29.59375 
z
M 47.21875 32.234375 
Q 47.125 39.59375 43.09375 43.984375 
Q 39.0625 48.390625 32.421875 48.390625 
Q 24.90625 48.390625 20.390625 44.140625 
Q 15.875 39.890625 15.1875 32.171875 
z
" id="DejaVuSans-101"/>
     </defs>
     <g transform="translate(167.504219 276.268523)scale(0.1 -0.1)">
      <use xlink:href="#DejaVuSans-68"/>
      <use x="77.001953" xlink:href="#DejaVuSans-97"/>
      <use x="138.28125" xlink:href="#DejaVuSans-116"/>
      <use x="177.490234" xlink:href="#DejaVuSans-101"/>
     </g>
    </g>
   </g>
   <g id="matplotlib.axis_2">
    <g id="ytick_1">
     <g id="line2d_9">
      <defs>
       <path d="M 0 0 
L -3.5 0 
" id="me3067d508c" style="stroke:#000000;stroke-width:0.8;"/>
      </defs>
      <g>
       <use style="stroke:#000000;stroke-width:0.8;" x="43.55" xlink:href="#me3067d508c" y="210.806645"/>
      </g>
     </g>
     <g id="text_10">
      <!-- 0 -->
      <g transform="translate(30.1875 214.605864)scale(0.1 -0.1)">
       <use xlink:href="#DejaVuSans-48"/>
      </g>
     </g>
    </g>
    <g id="ytick_2">
     <g id="line2d_10">
      <g>
       <use style="stroke:#000000;stroke-width:0.8;" x="43.55" xlink:href="#me3067d508c" y="187.24633"/>
      </g>
     </g>
     <g id="text_11">
      <!-- 5 -->
      <g transform="translate(30.1875 191.045549)scale(0.1 -0.1)">
       <use xlink:href="#DejaVuSans-53"/>
      </g>
     </g>
    </g>
    <g id="ytick_3">
     <g id="line2d_11">
      <g>
       <use style="stroke:#000000;stroke-width:0.8;" x="43.55" xlink:href="#me3067d508c" y="163.686016"/>
      </g>
     </g>
     <g id="text_12">
      <!-- 10 -->
      <g transform="translate(23.825 167.485234)scale(0.1 -0.1)">
       <use xlink:href="#DejaVuSans-49"/>
       <use x="63.623047" xlink:href="#DejaVuSans-48"/>
      </g>
     </g>
    </g>
    <g id="ytick_4">
     <g id="line2d_12">
      <g>
       <use style="stroke:#000000;stroke-width:0.8;" x="43.55" xlink:href="#me3067d508c" y="140.125701"/>
      </g>
     </g>
     <g id="text_13">
      <!-- 15 -->
      <g transform="translate(23.825 143.924919)scale(0.1 -0.1)">
       <use xlink:href="#DejaVuSans-49"/>
       <use x="63.623047" xlink:href="#DejaVuSans-53"/>
      </g>
     </g>
    </g>
    <g id="ytick_5">
     <g id="line2d_13">
      <g>
       <use style="stroke:#000000;stroke-width:0.8;" x="43.55" xlink:href="#me3067d508c" y="116.565386"/>
      </g>
     </g>
     <g id="text_14">
      <!-- 20 -->
      <g transform="translate(23.825 120.364604)scale(0.1 -0.1)">
       <use xlink:href="#DejaVuSans-50"/>
       <use x="63.623047" xlink:href="#DejaVuSans-48"/>
      </g>
     </g>
    </g>
    <g id="ytick_6">
     <g id="line2d_14">
      <g>
       <use style="stroke:#000000;stroke-width:0.8;" x="43.55" xlink:href="#me3067d508c" y="93.005071"/>
      </g>
     </g>
     <g id="text_15">
      <!-- 25 -->
      <g transform="translate(23.825 96.80429)scale(0.1 -0.1)">
       <use xlink:href="#DejaVuSans-50"/>
       <use x="63.623047" xlink:href="#DejaVuSans-53"/>
      </g>
     </g>
    </g>
    <g id="ytick_7">
     <g id="line2d_15">
      <g>
       <use style="stroke:#000000;stroke-width:0.8;" x="43.55" xlink:href="#me3067d508c" y="69.444756"/>
      </g>
     </g>
     <g id="text_16">
      <!-- 30 -->
      <defs>
       <path d="M 40.578125 39.3125 
Q 47.65625 37.796875 51.625 33 
Q 55.609375 28.21875 55.609375 21.1875 
Q 55.609375 10.40625 48.1875 4.484375 
Q 40.765625 -1.421875 27.09375 -1.421875 
Q 22.515625 -1.421875 17.65625 -0.515625 
Q 12.796875 0.390625 7.625 2.203125 
L 7.625 11.71875 
Q 11.71875 9.328125 16.59375 8.109375 
Q 21.484375 6.890625 26.8125 6.890625 
Q 36.078125 6.890625 40.9375 10.546875 
Q 45.796875 14.203125 45.796875 21.1875 
Q 45.796875 27.640625 41.28125 31.265625 
Q 36.765625 34.90625 28.71875 34.90625 
L 20.21875 34.90625 
L 20.21875 43.015625 
L 29.109375 43.015625 
Q 36.375 43.015625 40.234375 45.921875 
Q 44.09375 48.828125 44.09375 54.296875 
Q 44.09375 59.90625 40.109375 62.90625 
Q 36.140625 65.921875 28.71875 65.921875 
Q 24.65625 65.921875 20.015625 65.03125 
Q 15.375 64.15625 9.8125 62.3125 
L 9.8125 71.09375 
Q 15.4375 72.65625 20.34375 73.4375 
Q 25.25 74.21875 29.59375 74.21875 
Q 40.828125 74.21875 47.359375 69.109375 
Q 53.90625 64.015625 53.90625 55.328125 
Q 53.90625 49.265625 50.4375 45.09375 
Q 46.96875 40.921875 40.578125 39.3125 
z
" id="DejaVuSans-51"/>
      </defs>
      <g transform="translate(23.825 73.243975)scale(0.1 -0.1)">
       <use xlink:href="#DejaVuSans-51"/>
       <use x="63.623047" xlink:href="#DejaVuSans-48"/>
      </g>
     </g>
    </g>
    <g id="ytick_8">
     <g id="line2d_16">
      <g>
       <use style="stroke:#000000;stroke-width:0.8;" x="43.55" xlink:href="#me3067d508c" y="45.884441"/>
      </g>
     </g>
     <g id="text_17">
      <!-- 35 -->
      <g transform="translate(23.825 49.68366)scale(0.1 -0.1)">
       <use xlink:href="#DejaVuSans-51"/>
       <use x="63.623047" xlink:href="#DejaVuSans-53"/>
      </g>
     </g>
    </g>
    <g id="ytick_9">
     <g id="line2d_17">
      <g>
       <use style="stroke:#000000;stroke-width:0.8;" x="43.55" xlink:href="#me3067d508c" y="22.324126"/>
      </g>
     </g>
     <g id="text_18">
      <!-- 40 -->
      <defs>
       <path d="M 37.796875 64.3125 
L 12.890625 25.390625 
L 37.796875 25.390625 
z
M 35.203125 72.90625 
L 47.609375 72.90625 
L 47.609375 25.390625 
L 58.015625 25.390625 
L 58.015625 17.1875 
L 47.609375 17.1875 
L 47.609375 0 
L 37.796875 0 
L 37.796875 17.1875 
L 4.890625 17.1875 
L 4.890625 26.703125 
z
" id="DejaVuSans-52"/>
      </defs>
      <g transform="translate(23.825 26.123345)scale(0.1 -0.1)">
       <use xlink:href="#DejaVuSans-52"/>
       <use x="63.623047" xlink:href="#DejaVuSans-48"/>
      </g>
     </g>
    </g>
    <g id="text_19">
     <!-- Students Registered -->
     <defs>
      <path d="M 53.515625 70.515625 
L 53.515625 60.890625 
Q 47.90625 63.578125 42.921875 64.890625 
Q 37.9375 66.21875 33.296875 66.21875 
Q 25.25 66.21875 20.875 63.09375 
Q 16.5 59.96875 16.5 54.203125 
Q 16.5 49.359375 19.40625 46.890625 
Q 22.3125 44.4375 30.421875 42.921875 
L 36.375 41.703125 
Q 47.40625 39.59375 52.65625 34.296875 
Q 57.90625 29 57.90625 20.125 
Q 57.90625 9.515625 50.796875 4.046875 
Q 43.703125 -1.421875 29.984375 -1.421875 
Q 24.8125 -1.421875 18.96875 -0.25 
Q 13.140625 0.921875 6.890625 3.21875 
L 6.890625 13.375 
Q 12.890625 10.015625 18.65625 8.296875 
Q 24.421875 6.59375 29.984375 6.59375 
Q 38.421875 6.59375 43.015625 9.90625 
Q 47.609375 13.234375 47.609375 19.390625 
Q 47.609375 24.75 44.3125 27.78125 
Q 41.015625 30.8125 33.5 32.328125 
L 27.484375 33.5 
Q 16.453125 35.6875 11.515625 40.375 
Q 6.59375 45.0625 6.59375 53.421875 
Q 6.59375 63.09375 13.40625 68.65625 
Q 20.21875 74.21875 32.171875 74.21875 
Q 37.3125 74.21875 42.625 73.28125 
Q 47.953125 72.359375 53.515625 70.515625 
z
" id="DejaVuSans-83"/>
      <path d="M 8.5 21.578125 
L 8.5 54.6875 
L 17.484375 54.6875 
L 17.484375 21.921875 
Q 17.484375 14.15625 20.5 10.265625 
Q 23.53125 6.390625 29.59375 6.390625 
Q 36.859375 6.390625 41.078125 11.03125 
Q 45.3125 15.671875 45.3125 23.6875 
L 45.3125 54.6875 
L 54.296875 54.6875 
L 54.296875 0 
L 45.3125 0 
L 45.3125 8.40625 
Q 42.046875 3.421875 37.71875 1 
Q 33.40625 -1.421875 27.6875 -1.421875 
Q 18.265625 -1.421875 13.375 4.4375 
Q 8.5 10.296875 8.5 21.578125 
z
M 31.109375 56 
z
" id="DejaVuSans-117"/>
      <path d="M 45.40625 46.390625 
L 45.40625 75.984375 
L 54.390625 75.984375 
L 54.390625 0 
L 45.40625 0 
L 45.40625 8.203125 
Q 42.578125 3.328125 38.25 0.953125 
Q 33.9375 -1.421875 27.875 -1.421875 
Q 17.96875 -1.421875 11.734375 6.484375 
Q 5.515625 14.40625 5.515625 27.296875 
Q 5.515625 40.1875 11.734375 48.09375 
Q 17.96875 56 27.875 56 
Q 33.9375 56 38.25 53.625 
Q 42.578125 51.265625 45.40625 46.390625 
z
M 14.796875 27.296875 
Q 14.796875 17.390625 18.875 11.75 
Q 22.953125 6.109375 30.078125 6.109375 
Q 37.203125 6.109375 41.296875 11.75 
Q 45.40625 17.390625 45.40625 27.296875 
Q 45.40625 37.203125 41.296875 42.84375 
Q 37.203125 48.484375 30.078125 48.484375 
Q 22.953125 48.484375 18.875 42.84375 
Q 14.796875 37.203125 14.796875 27.296875 
z
" id="DejaVuSans-100"/>
      <path d="M 54.890625 33.015625 
L 54.890625 0 
L 45.90625 0 
L 45.90625 32.71875 
Q 45.90625 40.484375 42.875 44.328125 
Q 39.84375 48.1875 33.796875 48.1875 
Q 26.515625 48.1875 22.3125 43.546875 
Q 18.109375 38.921875 18.109375 30.90625 
L 18.109375 0 
L 9.078125 0 
L 9.078125 54.6875 
L 18.109375 54.6875 
L 18.109375 46.1875 
Q 21.34375 51.125 25.703125 53.5625 
Q 30.078125 56 35.796875 56 
Q 45.21875 56 50.046875 50.171875 
Q 54.890625 44.34375 54.890625 33.015625 
z
" id="DejaVuSans-110"/>
      <path d="M 44.28125 53.078125 
L 44.28125 44.578125 
Q 40.484375 46.53125 36.375 47.5 
Q 32.28125 48.484375 27.875 48.484375 
Q 21.1875 48.484375 17.84375 46.4375 
Q 14.5 44.390625 14.5 40.28125 
Q 14.5 37.15625 16.890625 35.375 
Q 19.28125 33.59375 26.515625 31.984375 
L 29.59375 31.296875 
Q 39.15625 29.25 43.1875 25.515625 
Q 47.21875 21.78125 47.21875 15.09375 
Q 47.21875 7.46875 41.1875 3.015625 
Q 35.15625 -1.421875 24.609375 -1.421875 
Q 20.21875 -1.421875 15.453125 -0.5625 
Q 10.6875 0.296875 5.421875 2 
L 5.421875 11.28125 
Q 10.40625 8.6875 15.234375 7.390625 
Q 20.0625 6.109375 24.8125 6.109375 
Q 31.15625 6.109375 34.5625 8.28125 
Q 37.984375 10.453125 37.984375 14.40625 
Q 37.984375 18.0625 35.515625 20.015625 
Q 33.0625 21.96875 24.703125 23.78125 
L 21.578125 24.515625 
Q 13.234375 26.265625 9.515625 29.90625 
Q 5.8125 33.546875 5.8125 39.890625 
Q 5.8125 47.609375 11.28125 51.796875 
Q 16.75 56 26.8125 56 
Q 31.78125 56 36.171875 55.265625 
Q 40.578125 54.546875 44.28125 53.078125 
z
" id="DejaVuSans-115"/>
      <path id="DejaVuSans-32"/>
      <path d="M 44.390625 34.1875 
Q 47.5625 33.109375 50.5625 29.59375 
Q 53.5625 26.078125 56.59375 19.921875 
L 66.609375 0 
L 56 0 
L 46.6875 18.703125 
Q 43.0625 26.03125 39.671875 28.421875 
Q 36.28125 30.8125 30.421875 30.8125 
L 19.671875 30.8125 
L 19.671875 0 
L 9.8125 0 
L 9.8125 72.90625 
L 32.078125 72.90625 
Q 44.578125 72.90625 50.734375 67.671875 
Q 56.890625 62.453125 56.890625 51.90625 
Q 56.890625 45.015625 53.6875 40.46875 
Q 50.484375 35.9375 44.390625 34.1875 
z
M 19.671875 64.796875 
L 19.671875 38.921875 
L 32.078125 38.921875 
Q 39.203125 38.921875 42.84375 42.21875 
Q 46.484375 45.515625 46.484375 51.90625 
Q 46.484375 58.296875 42.84375 61.546875 
Q 39.203125 64.796875 32.078125 64.796875 
z
" id="DejaVuSans-82"/>
      <path d="M 45.40625 27.984375 
Q 45.40625 37.75 41.375 43.109375 
Q 37.359375 48.484375 30.078125 48.484375 
Q 22.859375 48.484375 18.828125 43.109375 
Q 14.796875 37.75 14.796875 27.984375 
Q 14.796875 18.265625 18.828125 12.890625 
Q 22.859375 7.515625 30.078125 7.515625 
Q 37.359375 7.515625 41.375 12.890625 
Q 45.40625 18.265625 45.40625 27.984375 
z
M 54.390625 6.78125 
Q 54.390625 -7.171875 48.1875 -13.984375 
Q 42 -20.796875 29.203125 -20.796875 
Q 24.46875 -20.796875 20.265625 -20.09375 
Q 16.0625 -19.390625 12.109375 -17.921875 
L 12.109375 -9.1875 
Q 16.0625 -11.328125 19.921875 -12.34375 
Q 23.78125 -13.375 27.78125 -13.375 
Q 36.625 -13.375 41.015625 -8.765625 
Q 45.40625 -4.15625 45.40625 5.171875 
L 45.40625 9.625 
Q 42.625 4.78125 38.28125 2.390625 
Q 33.9375 0 27.875 0 
Q 17.828125 0 11.671875 7.65625 
Q 5.515625 15.328125 5.515625 27.984375 
Q 5.515625 40.671875 11.671875 48.328125 
Q 17.828125 56 27.875 56 
Q 33.9375 56 38.28125 53.609375 
Q 42.625 51.21875 45.40625 46.390625 
L 45.40625 54.6875 
L 54.390625 54.6875 
z
" id="DejaVuSans-103"/>
      <path d="M 9.421875 54.6875 
L 18.40625 54.6875 
L 18.40625 0 
L 9.421875 0 
z
M 9.421875 75.984375 
L 18.40625 75.984375 
L 18.40625 64.59375 
L 9.421875 64.59375 
z
" id="DejaVuSans-105"/>
      <path d="M 41.109375 46.296875 
Q 39.59375 47.171875 37.8125 47.578125 
Q 36.03125 48 33.890625 48 
Q 26.265625 48 22.1875 43.046875 
Q 18.109375 38.09375 18.109375 28.8125 
L 18.109375 0 
L 9.078125 0 
L 9.078125 54.6875 
L 18.109375 54.6875 
L 18.109375 46.1875 
Q 20.953125 51.171875 25.484375 53.578125 
Q 30.03125 56 36.53125 56 
Q 37.453125 56 38.578125 55.875 
Q 39.703125 55.765625 41.0625 55.515625 
z
" id="DejaVuSans-114"/>
     </defs>
     <g transform="translate(17.745313 167.498979)rotate(-90)scale(0.1 -0.1)">
      <use xlink:href="#DejaVuSans-83"/>
      <use x="63.476562" xlink:href="#DejaVuSans-116"/>
      <use x="102.685547" xlink:href="#DejaVuSans-117"/>
      <use x="166.064453" xlink:href="#DejaVuSans-100"/>
      <use x="229.541016" xlink:href="#DejaVuSans-101"/>
      <use x="291.064453" xlink:href="#DejaVuSans-110"/>
      <use x="354.443359" xlink:href="#DejaVuSans-116"/>
      <use x="393.652344" xlink:href="#DejaVuSans-115"/>
      <use x="445.751953" xlink:href="#DejaVuSans-32"/>
      <use x="477.539062" xlink:href="#DejaVuSans-82"/>
      <use x="546.958984" xlink:href="#DejaVuSans-101"/>
      <use x="608.482422" xlink:href="#DejaVuSans-103"/>
      <use x="671.958984" xlink:href="#DejaVuSans-105"/>
      <use x="699.742188" xlink:href="#DejaVuSans-115"/>
      <use x="751.841797" xlink:href="#DejaVuSans-116"/>
      <use x="791.050781" xlink:href="#DejaVuSans-101"/>
      <use x="852.574219" xlink:href="#DejaVuSans-114"/>
      <use x="893.65625" xlink:href="#DejaVuSans-101"/>
      <use x="955.179688" xlink:href="#DejaVuSans-100"/>
     </g>
    </g>
   </g>
   <g id="line2d_18">
    <path clip-path="url(#p1f5cd8a7a2)" d="M 55.905 210.806645 
L 56.069389 210.806645 
L 56.069389 201.382519 
L 56.179859 201.382519 
L 56.801338 201.382519 
L 56.801338 196.670456 
L 56.87672 196.670456 
L 60.389841 196.670456 
L 60.389841 191.958393 
L 60.46785 191.958393 
L 63.354296 191.958393 
L 63.354296 177.822204 
L 63.432306 177.822204 
L 63.510303 177.822204 
L 63.510303 173.110142 
L 63.588327 173.110142 
L 63.666325 173.110142 
L 63.666325 154.26189 
L 63.744345 154.26189 
L 63.822346 154.26189 
L 63.822346 149.549827 
L 63.900356 149.549827 
L 63.978371 149.549827 
L 63.978371 140.125701 
L 64.056371 140.125701 
L 64.134417 140.125701 
L 64.134417 125.989512 
L 64.212424 125.989512 
L 66.942807 125.989512 
L 66.942807 121.277449 
L 67.020816 121.277449 
L 67.098812 121.277449 
L 67.098812 116.565386 
L 67.176821 116.565386 
L 67.566891 116.565386 
L 67.566891 111.853323 
L 67.644909 111.853323 
L 67.87894 111.853323 
L 67.87894 97.717134 
L 67.95694 97.717134 
L 68.034958 97.717134 
L 68.034958 93.005071 
L 68.112988 93.005071 
L 71.155404 93.005071 
L 71.155404 88.293008 
L 71.233432 88.293008 
L 71.311422 88.293008 
L 71.311422 83.580945 
L 71.389456 83.580945 
L 71.623489 83.580945 
L 71.623489 78.868882 
L 71.701492 78.868882 
L 72.091547 78.868882 
L 72.091547 74.156819 
L 72.169551 74.156819 
L 74.743954 74.156819 
L 74.743954 69.444756 
L 74.821936 69.444756 
L 82.077014 69.444756 
L 82.077014 45.884441 
L 82.154987 45.884441 
L 82.233022 45.884441 
L 82.233022 36.460315 
L 82.311009 36.460315 
L 82.389054 36.460315 
L 82.389054 31.748252 
L 82.467048 31.748252 
L 134.968647 31.748252 
L 134.968647 36.460315 
L 135.046673 36.460315 
L 135.124664 36.460315 
L 135.124664 31.748252 
L 135.202677 31.748252 
L 143.549883 31.748252 
L 143.549883 36.460315 
L 143.627922 36.460315 
L 143.705917 36.460315 
L 143.705917 31.748252 
L 143.783924 31.748252 
L 220.781101 31.748252 
L 220.781101 22.324126 
L 220.859083 22.324126 
L 303.005 22.324126 
L 303.005 22.324126 
" style="fill:none;stroke:#1b9e77;stroke-linecap:square;stroke-width:1.5;"/>
   </g>
   <g id="line2d_19">
    <path clip-path="url(#p1f5cd8a7a2)" d="M 55.905 182.534267 
L 56.069389 182.534267 
L 56.069389 177.822204 
L 56.179859 177.822204 
L 56.87672 177.822204 
L 56.87672 173.110142 
L 59.37311 173.110142 
L 59.37311 168.398079 
L 59.60975 168.398079 
L 59.60975 163.686016 
L 59.68777 163.686016 
L 59.765764 163.686016 
L 59.765764 158.973953 
L 59.843789 158.973953 
L 60.233852 158.973953 
L 60.233852 144.837764 
L 60.31188 144.837764 
L 60.389841 144.837764 
L 60.389841 140.125701 
L 60.46785 140.125701 
L 63.510303 140.125701 
L 63.510303 130.701575 
L 63.588327 130.701575 
L 63.666325 130.701575 
L 63.666325 125.989512 
L 63.744345 125.989512 
L 63.822346 125.989512 
L 63.822346 130.701575 
L 63.900356 130.701575 
L 64.134417 130.701575 
L 64.134417 125.989512 
L 64.212424 125.989512 
L 64.290408 125.989512 
L 64.290408 116.565386 
L 64.368414 116.565386 
L 65.07054 116.565386 
L 65.07054 107.14126 
L 65.14856 107.14126 
L 66.786788 107.14126 
L 66.786788 102.429197 
L 66.864791 102.429197 
L 66.942807 102.429197 
L 66.942807 83.580945 
L 67.020816 83.580945 
L 67.098812 83.580945 
L 67.098812 74.156819 
L 67.176821 74.156819 
L 67.410874 74.156819 
L 67.410874 69.444756 
L 67.488887 69.444756 
L 67.566891 69.444756 
L 67.566891 64.732693 
L 67.644909 64.732693 
L 67.722918 64.732693 
L 67.722918 60.02063 
L 67.800939 60.02063 
L 67.87894 60.02063 
L 67.87894 45.884441 
L 67.95694 45.884441 
L 68.034958 45.884441 
L 68.034958 41.172378 
L 68.112988 41.172378 
L 68.19099 41.172378 
L 68.19099 36.460315 
L 68.268987 36.460315 
L 70.843353 36.460315 
L 70.843353 27.036189 
L 70.921377 27.036189 
L 70.999409 27.036189 
L 70.999409 22.324126 
L 71.077413 22.324126 
L 89.410042 22.324126 
L 89.410042 27.036189 
L 89.488085 27.036189 
L 89.566061 27.036189 
L 89.566061 22.324126 
L 89.644104 22.324126 
L 244.184471 22.324126 
L 244.184471 27.036189 
L 244.262488 27.036189 
L 244.340518 27.036189 
L 244.340518 22.324126 
L 244.41852 22.324126 
L 303.005 22.324126 
L 303.005 22.324126 
" style="fill:none;stroke:#d95f02;stroke-linecap:square;stroke-width:1.5;"/>
   </g>
   <g id="line2d_20">
    <path clip-path="url(#p1f5cd8a7a2)" d="M 55.905 201.382519 
L 60.077838 201.382519 
L 60.077838 196.670456 
L 60.155825 196.670456 
L 63.198279 196.670456 
L 63.198279 191.958393 
L 63.276261 191.958393 
L 63.354296 191.958393 
L 63.354296 187.24633 
L 63.432306 187.24633 
L 63.510303 187.24633 
L 63.510303 177.822204 
L 63.588327 177.822204 
L 63.666325 177.822204 
L 63.666325 173.110142 
L 63.744345 173.110142 
L 63.822346 173.110142 
L 63.822346 168.398079 
L 63.900356 168.398079 
L 63.978371 168.398079 
L 63.978371 163.686016 
L 64.056371 163.686016 
L 64.290408 163.686016 
L 64.290408 158.973953 
L 64.368414 158.973953 
L 66.942807 158.973953 
L 66.942807 149.549827 
L 67.020816 149.549827 
L 67.098812 149.549827 
L 67.098812 144.837764 
L 67.176821 144.837764 
L 67.722918 144.837764 
L 67.722918 140.125701 
L 67.800939 140.125701 
L 67.87894 140.125701 
L 67.87894 130.701575 
L 67.95694 130.701575 
L 82.077014 130.701575 
L 82.077014 125.989512 
L 82.154987 125.989512 
L 82.233022 125.989512 
L 82.233022 121.277449 
L 82.311009 121.277449 
L 82.389054 121.277449 
L 82.389054 116.565386 
L 82.467048 116.565386 
L 82.545059 116.565386 
L 82.545059 111.853323 
L 82.623063 111.853323 
L 82.701098 111.853323 
L 82.701098 102.429197 
L 82.779091 102.429197 
L 82.857123 102.429197 
L 82.857123 97.717134 
L 82.935114 97.717134 
L 85.665509 97.717134 
L 85.704517 83.580945 
L 85.743519 83.580945 
L 85.977562 83.580945 
L 85.977562 74.156819 
L 86.05557 74.156819 
L 86.445634 74.156819 
L 86.445634 69.444756 
L 86.523647 69.444756 
L 86.601658 69.444756 
L 86.601658 60.02063 
L 86.679674 60.02063 
L 86.757679 60.02063 
L 86.757679 36.460315 
L 86.835687 36.460315 
L 86.913678 36.460315 
L 86.913678 22.324126 
L 86.99176 22.324126 
L 89.254015 22.324126 
L 89.254015 27.036189 
L 89.332156 27.036189 
L 89.566061 27.036189 
L 89.566061 22.324126 
L 89.644104 22.324126 
L 127.32353 22.324126 
L 127.32353 27.036189 
L 127.401568 27.036189 
L 127.479586 27.036189 
L 127.479586 22.324126 
L 127.557565 22.324126 
L 134.344588 22.324126 
L 134.344588 27.036189 
L 134.42257 27.036189 
L 134.656591 27.036189 
L 134.656591 22.324126 
L 134.734641 22.324126 
L 134.968647 22.324126 
L 134.968647 27.036189 
L 135.046673 27.036189 
L 135.592771 27.036189 
L 135.592771 22.324126 
L 135.670762 22.324126 
L 303.005 22.324126 
L 303.005 22.324126 
" style="fill:none;stroke:#7570b3;stroke-linecap:square;stroke-width:1.5;"/>
   </g>
   <g id="line2d_21">
    <path clip-path="url(#p1f5cd8a7a2)" d="M 55.905 201.382519 
L 60.389841 201.382519 
L 60.389841 196.670456 
L 60.46785 196.670456 
L 63.354296 196.670456 
L 63.354296 191.958393 
L 63.432306 191.958393 
L 63.978371 191.958393 
L 63.978371 187.24633 
L 64.056371 187.24633 
L 67.254827 187.24633 
L 67.254827 177.822204 
L 67.332857 177.822204 
L 67.566891 177.822204 
L 67.566891 173.110142 
L 67.644909 173.110142 
L 67.87894 173.110142 
L 67.87894 168.398079 
L 67.95694 168.398079 
L 68.034958 168.398079 
L 68.034958 163.686016 
L 68.112988 163.686016 
L 71.623489 163.686016 
L 71.623489 158.973953 
L 71.701492 158.973953 
L 75.212006 158.973953 
L 75.212006 154.26189 
L 75.290028 154.26189 
L 82.077014 154.26189 
L 82.077014 144.837764 
L 82.154987 144.837764 
L 82.389054 144.837764 
L 82.389054 140.125701 
L 82.467048 140.125701 
L 83.169165 140.125701 
L 83.169165 135.413638 
L 83.247164 135.413638 
L 85.665509 135.413638 
L 85.665509 130.701575 
L 85.743519 130.701575 
L 86.445634 130.701575 
L 86.445634 125.989512 
L 86.523647 125.989512 
L 86.601658 125.989512 
L 86.601658 121.277449 
L 86.679674 121.277449 
L 86.757679 121.277449 
L 86.796679 107.14126 
L 86.835687 107.14126 
L 89.410042 107.14126 
L 89.410042 102.429197 
L 89.488085 102.429197 
L 89.566061 102.429197 
L 89.566061 93.005071 
L 89.644104 93.005071 
L 89.722082 93.005071 
L 89.722082 88.293008 
L 89.800101 88.293008 
L 89.87812 88.293008 
L 89.917124 74.156819 
L 89.956133 74.156819 
L 90.190159 74.156819 
L 90.190159 60.02063 
L 90.268186 60.02063 
L 90.346202 60.02063 
L 90.346202 50.596504 
L 90.424223 50.596504 
L 90.502202 50.596504 
L 90.502202 31.748252 
L 90.58024 31.748252 
L 90.658245 31.748252 
L 90.658245 27.036189 
L 90.736273 27.036189 
L 91.438365 27.036189 
L 91.438365 22.324126 
L 91.51638 22.324126 
L 134.344588 22.324126 
L 134.344588 27.036189 
L 134.42257 27.036189 
L 134.500609 27.036189 
L 134.500609 22.324126 
L 134.578617 22.324126 
L 134.812637 22.324126 
L 134.812637 27.036189 
L 134.890667 27.036189 
L 135.280687 27.036189 
L 135.280687 31.748252 
L 135.358729 31.748252 
L 135.592771 31.748252 
L 135.592771 36.460315 
L 135.670762 36.460315 
L 139.805351 36.460315 
L 139.805351 41.172378 
L 139.88336 41.172378 
L 149.010701 41.172378 
L 149.010701 36.460315 
L 149.088715 36.460315 
L 166.329187 36.460315 
L 166.329187 41.172378 
L 166.40722 41.172378 
L 172.414084 41.172378 
L 172.414084 36.460315 
L 172.49209 36.460315 
L 191.448864 36.460315 
L 191.448864 31.748252 
L 191.526871 31.748252 
L 193.945185 31.748252 
L 193.945185 27.036189 
L 194.0232 27.036189 
L 198.313838 27.036189 
L 198.313838 22.324126 
L 220.781101 22.324126 
L 220.781101 31.748252 
L 220.859083 31.748252 
L 221.249131 31.748252 
L 221.249131 36.460315 
L 221.327179 36.460315 
L 248.397085 36.460315 
L 248.397085 41.172378 
L 248.475125 41.172378 
L 254.013906 41.172378 
L 254.013906 36.460315 
L 254.091907 36.460315 
L 257.758457 36.460315 
L 257.758457 31.748252 
L 257.836445 31.748252 
L 258.850577 31.748252 
L 258.850577 27.036189 
L 258.928628 27.036189 
L 269.460152 27.036189 
L 269.460152 22.324126 
L 269.538169 22.324126 
L 289.743058 22.324126 
L 289.743058 27.036189 
L 289.821129 27.036189 
L 303.005 27.036189 
L 303.005 27.036189 
" style="fill:none;stroke:#e7298a;stroke-linecap:square;stroke-width:1.5;"/>
   </g>
   <g id="line2d_22">
    <path clip-path="url(#p1f5cd8a7a2)" d="M 88.473937 196.670456 
L 89.254015 196.670456 
L 89.254015 182.534267 
L 89.332156 182.534267 
L 89.410042 182.534267 
L 89.410042 177.822204 
L 89.488085 177.822204 
L 89.566061 177.822204 
L 89.566061 158.973953 
L 89.644104 158.973953 
L 89.87812 158.973953 
L 89.87812 144.837764 
L 89.956133 144.837764 
L 90.190159 144.837764 
L 90.190159 116.565386 
L 90.268186 116.565386 
L 90.502202 116.565386 
L 90.502202 107.14126 
L 90.58024 107.14126 
L 90.658245 107.14126 
L 90.658245 102.429197 
L 90.736273 102.429197 
L 90.814254 102.429197 
L 90.814254 97.717134 
L 90.892292 97.717134 
L 91.126325 97.717134 
L 91.126325 93.005071 
L 91.2043 93.005071 
L 93.310607 93.005071 
L 93.310607 74.156819 
L 93.388645 74.156819 
L 93.622663 74.156819 
L 93.622663 69.444756 
L 93.700662 69.444756 
L 93.934732 69.444756 
L 93.934732 60.02063 
L 94.012727 60.02063 
L 94.090755 60.02063 
L 94.090755 55.308567 
L 94.168746 55.308567 
L 94.402805 55.308567 
L 94.402805 50.596504 
L 94.480789 50.596504 
L 97.679266 50.596504 
L 97.679266 45.884441 
L 97.757261 45.884441 
L 97.835261 45.884441 
L 97.835261 41.172378 
L 97.913308 41.172378 
L 97.991292 41.172378 
L 97.991292 36.460315 
L 98.069322 36.460315 
L 98.459381 36.460315 
L 98.459381 31.748252 
L 98.537395 31.748252 
L 108.444804 31.748252 
L 108.444804 22.324126 
L 108.522834 22.324126 
L 127.635586 22.324126 
L 127.635586 27.036189 
L 127.713607 27.036189 
L 128.571721 27.036189 
L 128.571721 22.324126 
L 128.649736 22.324126 
L 142.145706 22.324126 
L 142.145706 27.036189 
L 142.22372 27.036189 
L 143.39388 27.036189 
L 143.39388 22.324126 
L 143.471901 22.324126 
L 244.340518 22.324126 
L 244.340518 27.036189 
L 244.41852 27.036189 
L 248.709141 27.036189 
L 248.709141 22.324126 
L 248.787143 22.324126 
L 280.537746 22.324126 
L 280.537746 27.036189 
L 280.61577 27.036189 
L 280.693778 27.036189 
L 280.693778 22.324126 
L 280.771781 22.324126 
L 281.161818 22.324126 
L 281.161818 27.036189 
L 281.239848 27.036189 
L 281.629887 27.036189 
L 281.629887 22.324126 
L 281.707897 22.324126 
L 289.274996 22.324126 
L 289.274996 27.036189 
L 289.353044 27.036189 
L 289.743058 27.036189 
L 289.743058 22.324126 
L 289.821129 22.324126 
L 301.132742 22.324126 
L 301.132742 27.036189 
L 301.210741 27.036189 
L 303.005 27.036189 
L 303.005 27.036189 
" style="fill:none;stroke:#66a61e;stroke-linecap:square;stroke-width:1.5;"/>
   </g>
   <g id="line2d_23">
    <path clip-path="url(#p1f5cd8a7a2)" d="M 55.905 191.958393 
L 63.354296 191.958393 
L 63.354296 187.24633 
L 63.432306 187.24633 
L 64.134417 187.24633 
L 64.134417 182.534267 
L 64.212424 182.534267 
L 64.446451 182.534267 
L 64.446451 177.822204 
L 64.524472 177.822204 
L 67.410874 177.822204 
L 67.410874 173.110142 
L 67.488887 173.110142 
L 67.722918 173.110142 
L 67.722918 168.398079 
L 67.800939 168.398079 
L 70.843353 168.398079 
L 70.843353 163.686016 
L 70.921377 163.686016 
L 81.92097 163.686016 
L 81.92097 154.26189 
L 81.998965 154.26189 
L 82.077014 154.26189 
L 82.077014 144.837764 
L 82.154987 144.837764 
L 82.545059 144.837764 
L 82.545059 140.125701 
L 82.623063 140.125701 
L 83.169165 140.125701 
L 83.169165 135.413638 
L 83.247164 135.413638 
L 85.977562 135.413638 
L 85.977562 130.701575 
L 86.05557 130.701575 
L 86.28958 130.701575 
L 86.28958 121.277449 
L 86.367632 121.277449 
L 86.601658 121.277449 
L 86.601658 116.565386 
L 86.679674 116.565386 
L 87.537795 116.565386 
L 87.537795 111.853323 
L 87.615797 111.853323 
L 89.254015 111.853323 
L 89.254015 107.14126 
L 89.332156 107.14126 
L 89.566061 107.14126 
L 89.566061 102.429197 
L 89.644104 102.429197 
L 89.722082 102.429197 
L 89.722082 93.005071 
L 89.800101 93.005071 
L 90.034152 93.005071 
L 90.034152 88.293008 
L 90.112182 88.293008 
L 90.190159 88.293008 
L 90.22918 74.156819 
L 90.268186 74.156819 
L 90.346202 74.156819 
L 90.346202 64.732693 
L 90.424223 64.732693 
L 90.970268 64.732693 
L 90.970268 69.444756 
L 91.048314 69.444756 
L 93.310607 69.444756 
L 93.310607 60.02063 
L 93.388645 60.02063 
L 93.466668 60.02063 
L 93.466668 55.308567 
L 93.544678 55.308567 
L 93.778691 55.308567 
L 93.778691 50.596504 
L 93.856704 50.596504 
L 93.934732 50.596504 
L 93.934732 41.172378 
L 94.012727 41.172378 
L 94.090755 41.172378 
L 94.090755 36.460315 
L 94.168746 36.460315 
L 94.402805 36.460315 
L 94.402805 31.748252 
L 94.480789 31.748252 
L 222.497335 31.748252 
L 222.497335 36.460315 
L 222.575328 36.460315 
L 226.085835 36.460315 
L 226.085835 31.748252 
L 226.163868 31.748252 
L 303.005 31.748252 
L 303.005 31.748252 
" style="fill:none;stroke:#e6ab02;stroke-linecap:square;stroke-width:1.5;"/>
   </g>
   <g id="line2d_24">
    <path clip-path="url(#p1f5cd8a7a2)" d="M 55.905 196.670456 
L 60.077838 196.670456 
L 60.077838 191.958393 
L 60.155825 191.958393 
L 63.198279 191.958393 
L 63.198279 187.24633 
L 63.276261 187.24633 
L 63.354296 187.24633 
L 63.354296 182.534267 
L 63.432306 182.534267 
L 63.666325 182.534267 
L 63.666325 177.822204 
L 63.744345 177.822204 
L 63.822346 177.822204 
L 63.822346 173.110142 
L 63.900356 173.110142 
L 63.978371 173.110142 
L 63.978371 163.686016 
L 64.056371 163.686016 
L 64.134417 163.686016 
L 64.134417 158.973953 
L 64.212424 158.973953 
L 64.290408 158.973953 
L 64.290408 154.26189 
L 64.368414 154.26189 
L 66.786788 154.26189 
L 66.786788 149.549827 
L 66.864791 149.549827 
L 66.942807 149.549827 
L 66.942807 140.125701 
L 67.020816 140.125701 
L 67.254827 140.125701 
L 67.254827 135.413638 
L 67.332857 135.413638 
L 67.410874 135.413638 
L 67.410874 125.989512 
L 67.488887 125.989512 
L 67.722918 125.989512 
L 67.722918 121.277449 
L 67.800939 121.277449 
L 68.034958 121.277449 
L 68.034958 116.565386 
L 68.112988 116.565386 
L 68.19099 116.565386 
L 68.19099 111.853323 
L 68.268987 111.853323 
L 70.999409 111.853323 
L 70.999409 107.14126 
L 71.077413 107.14126 
L 71.623489 107.14126 
L 71.623489 102.429197 
L 71.701492 102.429197 
L 75.680051 102.429197 
L 75.680051 97.717134 
L 75.758078 97.717134 
L 81.92097 97.717134 
L 81.92097 93.005071 
L 81.998965 93.005071 
L 82.389054 93.005071 
L 82.389054 78.868882 
L 82.467048 78.868882 
L 82.545059 78.868882 
L 82.545059 69.444756 
L 82.623063 69.444756 
L 82.701098 69.444756 
L 82.701098 60.02063 
L 82.779091 60.02063 
L 83.169165 60.02063 
L 83.169165 55.308567 
L 83.247164 55.308567 
L 85.353471 55.308567 
L 85.353471 50.596504 
L 85.431478 50.596504 
L 85.821529 50.596504 
L 85.821529 45.884441 
L 85.899564 45.884441 
L 85.977562 45.884441 
L 85.977562 41.172378 
L 86.05557 41.172378 
L 86.133574 41.172378 
L 86.133574 36.460315 
L 86.211581 36.460315 
L 86.601658 36.460315 
L 86.601658 31.748252 
L 86.679674 31.748252 
L 303.005 31.748252 
L 303.005 31.748252 
" style="fill:none;stroke:#a6761d;stroke-linecap:square;stroke-width:1.5;"/>
   </g>
   <g id="line2d_25">
    <path clip-path="url(#p1f5cd8a7a2)" d="M 55.905 196.670456 
L 59.37311 196.670456 
L 59.37311 191.958393 
L 63.978371 191.958393 
L 63.978371 187.24633 
L 64.056371 187.24633 
L 67.098812 187.24633 
L 67.098812 182.534267 
L 67.176821 182.534267 
L 67.410874 182.534267 
L 67.410874 177.822204 
L 67.488887 177.822204 
L 67.87894 177.822204 
L 67.87894 173.110142 
L 67.95694 173.110142 
L 68.034958 173.110142 
L 68.034958 168.398079 
L 68.112988 168.398079 
L 68.971101 168.398079 
L 68.971101 163.686016 
L 69.049127 163.686016 
L 82.389054 163.686016 
L 82.389054 154.26189 
L 82.467048 154.26189 
L 85.977562 154.26189 
L 85.977562 149.549827 
L 86.05557 149.549827 
L 86.757679 149.549827 
L 86.757679 144.837764 
L 86.835687 144.837764 
L 87.225759 144.837764 
L 87.225759 140.125701 
L 87.303761 140.125701 
L 89.566061 140.125701 
L 89.566061 135.413638 
L 89.644104 135.413638 
L 89.722082 135.413638 
L 89.722082 125.989512 
L 89.800101 125.989512 
L 90.190159 125.989512 
L 90.190159 116.565386 
L 90.268186 116.565386 
L 93.622663 116.565386 
L 93.622663 111.853323 
L 93.700662 111.853323 
L 94.090755 111.853323 
L 94.090755 107.14126 
L 94.168746 107.14126 
L 94.558791 107.14126 
L 94.558791 102.429197 
L 94.63682 102.429197 
L 98.459381 102.429197 
L 98.459381 97.717134 
L 98.537395 97.717134 
L 109.224934 97.717134 
L 109.224934 93.005071 
L 109.302956 93.005071 
L 112.813443 93.005071 
L 112.813443 88.293008 
L 112.891472 88.293008 
L 116.870057 88.293008 
L 116.870057 93.005071 
L 116.948058 93.005071 
L 134.812637 93.005071 
L 134.812637 88.293008 
L 134.890667 88.293008 
L 134.968647 88.293008 
L 134.968647 93.005071 
L 135.046673 93.005071 
L 138.869228 93.005071 
L 138.869228 88.293008 
L 138.947257 88.293008 
L 166.329187 88.293008 
L 166.329187 83.580945 
L 166.40722 83.580945 
L 191.292809 83.580945 
L 191.292809 78.868882 
L 191.370819 78.868882 
L 199.249978 78.868882 
L 199.249978 83.580945 
L 199.327982 83.580945 
L 248.709141 83.580945 
L 248.709141 88.293008 
L 248.787143 88.293008 
L 250.581424 88.293008 
L 250.581424 93.005071 
L 250.659433 93.005071 
L 263.687322 93.005071 
L 263.687322 88.293008 
L 263.765317 88.293008 
L 265.871635 88.293008 
L 265.871635 83.580945 
L 265.949651 83.580945 
L 268.992057 83.580945 
L 268.992057 78.868882 
L 269.070101 78.868882 
L 273.360685 78.868882 
L 273.360685 83.580945 
L 273.438712 83.580945 
L 289.274996 83.580945 
L 289.274996 78.868882 
L 289.353044 78.868882 
L 303.005 78.868882 
L 303.005 78.868882 
" style="fill:none;stroke:#666666;stroke-linecap:square;stroke-width:1.5;"/>
   </g>
   <g id="line2d_26">
    <path clip-path="url(#p1f5cd8a7a2)" d="M 55.905 201.382519 
L 63.510303 201.382519 
L 63.510303 196.670456 
L 63.588327 196.670456 
L 63.978371 196.670456 
L 63.978371 191.958393 
L 64.056371 191.958393 
L 67.410874 191.958393 
L 67.410874 187.24633 
L 67.488887 187.24633 
L 67.722918 187.24633 
L 67.722918 191.958393 
L 67.800939 191.958393 
L 67.87894 191.958393 
L 67.87894 182.534267 
L 67.95694 182.534267 
L 82.077014 182.534267 
L 82.077014 177.822204 
L 82.154987 177.822204 
L 82.389054 177.822204 
L 82.389054 173.110142 
L 82.467048 173.110142 
L 82.701098 173.110142 
L 82.701098 168.398079 
L 82.779091 168.398079 
L 82.857123 168.398079 
L 82.857123 163.686016 
L 82.935114 163.686016 
L 83.637211 163.686016 
L 83.637211 158.973953 
L 83.715253 158.973953 
L 86.133574 158.973953 
L 86.133574 154.26189 
L 86.211581 154.26189 
L 86.601658 154.26189 
L 86.601658 149.549827 
L 86.679674 149.549827 
L 86.757679 149.549827 
L 86.757679 144.837764 
L 86.835687 144.837764 
L 89.410042 144.837764 
L 89.410042 135.413638 
L 89.488085 135.413638 
L 89.566061 135.413638 
L 89.566061 130.701575 
L 89.644104 130.701575 
L 89.722082 130.701575 
L 89.76109 116.565386 
L 89.800101 116.565386 
L 90.346202 116.565386 
L 90.346202 111.853323 
L 90.424223 111.853323 
L 90.502202 111.853323 
L 90.502202 107.14126 
L 90.58024 107.14126 
L 90.658245 107.14126 
L 90.658245 111.853323 
L 90.736273 111.853323 
L 90.814254 111.853323 
L 90.814254 107.14126 
L 90.892292 107.14126 
L 90.970268 107.14126 
L 90.970268 102.429197 
L 91.048314 102.429197 
L 92.842564 102.429197 
L 92.842564 107.14126 
L 92.920553 107.14126 
L 93.310607 107.14126 
L 93.310607 93.005071 
L 93.388645 93.005071 
L 93.622663 93.005071 
L 93.622663 88.293008 
L 93.700662 88.293008 
L 93.934732 88.293008 
L 93.934732 69.444756 
L 94.012727 69.444756 
L 94.090755 69.444756 
L 94.090755 64.732693 
L 94.168746 64.732693 
L 97.523222 64.732693 
L 97.523222 60.02063 
L 97.601228 60.02063 
L 110.161084 60.02063 
L 110.161084 55.308567 
L 110.239095 55.308567 
L 112.657439 55.308567 
L 112.657439 50.596504 
L 112.735428 50.596504 
L 112.813443 50.596504 
L 112.813443 55.308567 
L 112.891472 55.308567 
L 113.12549 55.308567 
L 113.12549 50.596504 
L 113.203519 50.596504 
L 116.870057 50.596504 
L 116.870057 45.884441 
L 116.948058 45.884441 
L 123.266946 45.884441 
L 123.266946 50.596504 
L 123.344964 50.596504 
L 127.635586 50.596504 
L 127.635586 45.884441 
L 127.713607 45.884441 
L 134.344588 45.884441 
L 134.344588 50.596504 
L 134.42257 50.596504 
L 134.656591 50.596504 
L 134.656591 55.308567 
L 134.734641 55.308567 
L 135.124664 55.308567 
L 135.124664 60.02063 
L 135.202677 60.02063 
L 139.493304 60.02063 
L 139.493304 64.732693 
L 139.571347 64.732693 
L 146.202266 64.732693 
L 146.202266 69.444756 
L 146.280299 69.444756 
L 161.804561 69.444756 
L 161.804561 74.156819 
L 161.882556 74.156819 
L 232.638804 74.156819 
L 232.638804 69.444756 
L 232.716847 69.444756 
L 236.851429 69.444756 
L 236.851429 74.156819 
L 236.929461 74.156819 
L 277.105252 74.156819 
L 277.105252 69.444756 
L 277.18325 69.444756 
L 280.693778 69.444756 
L 280.693778 74.156819 
L 280.771781 74.156819 
L 280.849788 74.156819 
L 280.849788 78.868882 
L 280.927801 78.868882 
L 283.814221 78.868882 
L 283.814221 83.580945 
L 283.892246 83.580945 
L 303.005 83.580945 
L 303.005 83.580945 
" style="fill:none;stroke:#1b9e77;stroke-dasharray:4.5,1.5;stroke-dashoffset:0;stroke-width:1.5;"/>
   </g>
   <g id="line2d_27">
    <path clip-path="url(#p1f5cd8a7a2)" d="M 55.905 210.806645 
L 60.545861 210.806645 
L 60.545861 206.094582 
L 60.623876 206.094582 
L 61.169982 206.094582 
L 61.169982 201.382519 
L 61.247985 201.382519 
L 70.999409 201.382519 
L 70.999409 196.670456 
L 71.077413 196.670456 
L 81.92097 196.670456 
L 81.92097 191.958393 
L 81.998965 191.958393 
L 83.013123 191.958393 
L 83.013123 182.534267 
L 83.091127 182.534267 
L 85.977562 182.534267 
L 85.977562 177.822204 
L 86.05557 177.822204 
L 86.133574 177.822204 
L 86.133574 173.110142 
L 86.211581 173.110142 
L 86.601658 173.110142 
L 86.601658 163.686016 
L 86.679674 163.686016 
L 86.757679 163.686016 
L 86.757679 158.973953 
L 86.835687 158.973953 
L 87.693789 158.973953 
L 87.693789 154.26189 
L 87.77184 154.26189 
L 89.566061 154.26189 
L 89.566061 158.973953 
L 89.644104 158.973953 
L 89.87812 158.973953 
L 89.87812 154.26189 
L 89.956133 154.26189 
L 90.034152 154.26189 
L 90.034152 149.549827 
L 90.112182 149.549827 
L 90.346202 149.549827 
L 90.346202 144.837764 
L 90.424223 144.837764 
L 90.502202 144.837764 
L 90.502202 149.549827 
L 90.58024 149.549827 
L 90.658245 149.549827 
L 90.658245 144.837764 
L 90.736273 144.837764 
L 93.310607 144.837764 
L 93.310607 140.125701 
L 93.388645 140.125701 
L 98.303357 140.125701 
L 98.303357 135.413638 
L 98.381358 135.413638 
L 108.756861 135.413638 
L 108.756861 130.701575 
L 108.834885 130.701575 
L 123.578999 130.701575 
L 123.578999 125.989512 
L 123.657045 125.989512 
L 142.145706 125.989512 
L 142.145706 121.277449 
L 142.22372 121.277449 
L 161.804561 121.277449 
L 161.804561 116.565386 
L 161.882556 116.565386 
L 198.313838 116.565386 
L 198.313838 111.853323 
L 213.291996 111.853323 
L 213.291996 107.14126 
L 213.370025 107.14126 
L 244.184471 107.14126 
L 244.184471 102.429197 
L 244.262488 102.429197 
L 248.553105 102.429197 
L 248.553105 97.717134 
L 248.63112 97.717134 
L 254.325931 97.717134 
L 254.325931 93.005071 
L 254.403963 93.005071 
L 278.041397 93.005071 
L 278.041397 88.293008 
L 278.119409 88.293008 
L 280.693778 88.293008 
L 280.693778 83.580945 
L 280.771781 83.580945 
L 281.629887 83.580945 
L 281.629887 88.293008 
L 281.707897 88.293008 
L 303.005 88.293008 
L 303.005 88.293008 
" style="fill:none;stroke:#d95f02;stroke-dasharray:4.5,1.5;stroke-dashoffset:0;stroke-width:1.5;"/>
   </g>
   <g id="line2d_28">
    <path clip-path="url(#p1f5cd8a7a2)" d="M 55.905 206.094582 
L 63.198279 206.094582 
L 63.198279 201.382519 
L 63.276261 201.382519 
L 63.354296 201.382519 
L 63.354296 196.670456 
L 63.432306 196.670456 
L 63.978371 196.670456 
L 63.978371 187.24633 
L 64.056371 187.24633 
L 66.942807 187.24633 
L 66.942807 182.534267 
L 67.020816 182.534267 
L 67.722918 182.534267 
L 67.722918 177.822204 
L 67.800939 177.822204 
L 67.87894 177.822204 
L 67.87894 173.110142 
L 67.95694 173.110142 
L 68.034958 173.110142 
L 68.034958 168.398079 
L 68.112988 168.398079 
L 82.233022 168.398079 
L 82.233022 163.686016 
L 82.311009 163.686016 
L 82.389054 163.686016 
L 82.389054 158.973953 
L 82.467048 158.973953 
L 82.545059 158.973953 
L 82.545059 149.549827 
L 82.623063 149.549827 
L 86.445634 149.549827 
L 86.445634 144.837764 
L 86.523647 144.837764 
L 86.601658 144.837764 
L 86.601658 140.125701 
L 86.679674 140.125701 
L 89.254015 140.125701 
L 89.254015 144.837764 
L 89.332156 144.837764 
L 89.722082 144.837764 
L 89.722082 135.413638 
L 89.800101 135.413638 
L 89.87812 135.413638 
L 89.87812 140.125701 
L 89.956133 140.125701 
L 90.034152 140.125701 
L 90.034152 135.413638 
L 90.112182 135.413638 
L 90.346202 135.413638 
L 90.346202 125.989512 
L 90.424223 125.989512 
L 90.502202 125.989512 
L 90.502202 121.277449 
L 90.58024 121.277449 
L 97.835261 121.277449 
L 97.835261 116.565386 
L 97.913308 116.565386 
L 98.303357 116.565386 
L 98.303357 111.853323 
L 98.381358 111.853323 
L 105.792419 111.853323 
L 105.792419 107.14126 
L 105.870432 107.14126 
L 119.990477 107.14126 
L 119.990477 102.429197 
L 120.0685 102.429197 
L 120.614567 102.429197 
L 120.614567 97.717134 
L 120.692615 97.717134 
L 123.735043 97.717134 
L 123.735043 93.005071 
L 123.813059 93.005071 
L 136.060836 93.005071 
L 136.060836 88.293008 
L 136.13882 88.293008 
L 229.050263 88.293008 
L 229.050263 93.005071 
L 229.12831 93.005071 
L 232.638804 93.005071 
L 232.638804 97.717134 
L 232.716847 97.717134 
L 265.715604 97.717134 
L 265.715604 93.005071 
L 265.793593 93.005071 
L 266.339673 93.005071 
L 266.339673 88.293008 
L 266.417694 88.293008 
L 303.005 88.293008 
L 303.005 88.293008 
" style="fill:none;stroke:#7570b3;stroke-dasharray:4.5,1.5;stroke-dashoffset:0;stroke-width:1.5;"/>
   </g>
   <g id="line2d_29">
    <path clip-path="url(#p1f5cd8a7a2)" d="M 55.905 210.806645 
L 59.921936 210.806645 
L 59.921936 206.094582 
L 59.999813 206.094582 
L 60.233852 206.094582 
L 60.233852 201.382519 
L 60.31188 201.382519 
L 63.822346 201.382519 
L 63.822346 196.670456 
L 63.900356 196.670456 
L 67.87894 196.670456 
L 67.87894 191.958393 
L 67.95694 191.958393 
L 70.375307 191.958393 
L 70.375307 187.24633 
L 70.453342 187.24633 
L 71.155404 187.24633 
L 71.155404 182.534267 
L 71.233432 182.534267 
L 71.467463 182.534267 
L 71.467463 177.822204 
L 71.54546 177.822204 
L 81.92097 177.822204 
L 81.92097 168.398079 
L 81.998965 168.398079 
L 82.233022 168.398079 
L 82.233022 163.686016 
L 82.311009 163.686016 
L 82.389054 163.686016 
L 82.389054 158.973953 
L 82.467048 158.973953 
L 82.545059 158.973953 
L 82.545059 154.26189 
L 82.623063 154.26189 
L 82.701098 154.26189 
L 82.701098 144.837764 
L 82.779091 144.837764 
L 82.857123 144.837764 
L 82.857123 140.125701 
L 82.935114 140.125701 
L 83.169165 140.125701 
L 83.169165 135.413638 
L 83.247164 135.413638 
L 83.481224 135.413638 
L 83.481224 130.701575 
L 83.559222 130.701575 
L 83.949249 130.701575 
L 83.949249 125.989512 
L 84.027298 125.989512 
L 85.665509 125.989512 
L 85.665509 121.277449 
L 85.743519 121.277449 
L 85.821529 121.277449 
L 85.821529 116.565386 
L 85.899564 116.565386 
L 85.977562 116.565386 
L 85.977562 102.429197 
L 86.05557 102.429197 
L 86.133574 102.429197 
L 86.133574 97.717134 
L 86.211581 97.717134 
L 86.28958 97.717134 
L 86.28958 93.005071 
L 86.367632 93.005071 
L 87.693789 93.005071 
L 87.693789 97.717134 
L 87.77184 97.717134 
L 89.722082 97.717134 
L 89.722082 93.005071 
L 89.800101 93.005071 
L 89.87812 93.005071 
L 89.87812 97.717134 
L 89.956133 97.717134 
L 90.034152 97.717134 
L 90.034152 93.005071 
L 90.112182 93.005071 
L 94.402805 93.005071 
L 94.402805 97.717134 
L 94.480789 97.717134 
L 94.558791 97.717134 
L 94.558791 93.005071 
L 94.63682 93.005071 
L 243.87245 93.005071 
L 243.87245 97.717134 
L 243.95043 97.717134 
L 255.88617 97.717134 
L 255.88617 93.005071 
L 255.964167 93.005071 
L 296.608053 93.005071 
L 296.608053 97.717134 
L 296.686104 97.717134 
L 301.132742 97.717134 
L 301.132742 93.005071 
L 301.210741 93.005071 
L 303.005 93.005071 
L 303.005 93.005071 
" style="fill:none;stroke:#e7298a;stroke-dasharray:4.5,1.5;stroke-dashoffset:0;stroke-width:1.5;"/>
   </g>
   <g id="line2d_30">
    <path clip-path="url(#p1f5cd8a7a2)" d="M 125.958344 210.806645 
L 127.32353 210.806645 
L 127.32353 206.094582 
L 127.401568 206.094582 
L 132.004241 206.094582 
L 132.004241 201.382519 
L 132.08223 201.382519 
L 134.344588 201.382519 
L 134.344588 182.534267 
L 134.42257 182.534267 
L 134.656591 182.534267 
L 134.656591 173.110142 
L 134.734641 173.110142 
L 134.968647 173.110142 
L 134.968647 158.973953 
L 135.046673 158.973953 
L 135.280687 158.973953 
L 135.280687 154.26189 
L 135.358729 154.26189 
L 138.401172 154.26189 
L 138.401172 149.549827 
L 138.479182 149.549827 
L 139.181276 149.549827 
L 139.181276 144.837764 
L 139.259282 144.837764 
L 139.493304 144.837764 
L 139.493304 140.125701 
L 139.571347 140.125701 
L 139.805351 140.125701 
L 139.805351 135.413638 
L 139.88336 135.413638 
L 139.961379 135.413638 
L 139.961379 130.701575 
L 140.039374 130.701575 
L 142.145706 130.701575 
L 142.145706 125.989512 
L 142.22372 125.989512 
L 143.549883 125.989512 
L 143.549883 121.277449 
L 143.627922 121.277449 
L 146.202266 121.277449 
L 146.202266 116.565386 
L 146.280299 116.565386 
L 193.945185 116.565386 
L 193.945185 121.277449 
L 194.0232 121.277449 
L 194.725289 121.277449 
L 194.725289 116.565386 
L 194.80333 116.565386 
L 220.937116 116.565386 
L 220.937116 111.853323 
L 221.015138 111.853323 
L 221.249131 111.853323 
L 221.249131 107.14126 
L 221.327179 107.14126 
L 222.497335 107.14126 
L 222.497335 102.429197 
L 222.575328 102.429197 
L 243.716396 102.429197 
L 243.716396 97.717134 
L 243.794414 97.717134 
L 303.005 97.717134 
L 303.005 97.717134 
" style="fill:none;stroke:#66a61e;stroke-dasharray:4.5,1.5;stroke-dashoffset:0;stroke-width:1.5;"/>
   </g>
   <g id="line2d_31">
    <path clip-path="url(#p1f5cd8a7a2)" d="M 55.905 206.094582 
L 63.510303 206.094582 
L 63.510303 201.382519 
L 63.588327 201.382519 
L 67.722918 201.382519 
L 67.722918 191.958393 
L 67.800939 191.958393 
L 81.92097 191.958393 
L 81.92097 187.24633 
L 81.998965 187.24633 
L 82.233022 187.24633 
L 82.233022 182.534267 
L 82.311009 182.534267 
L 82.701098 182.534267 
L 82.701098 177.822204 
L 82.779091 177.822204 
L 85.665509 177.822204 
L 85.665509 173.110142 
L 85.743519 173.110142 
L 85.821529 173.110142 
L 85.821529 163.686016 
L 85.899564 163.686016 
L 85.977562 163.686016 
L 85.977562 158.973953 
L 86.05557 158.973953 
L 86.28958 158.973953 
L 86.28958 154.26189 
L 86.367632 154.26189 
L 86.445634 154.26189 
L 86.445634 144.837764 
L 86.523647 144.837764 
L 86.601658 144.837764 
L 86.601658 135.413638 
L 86.679674 135.413638 
L 87.225759 135.413638 
L 87.225759 130.701575 
L 87.303761 130.701575 
L 87.537795 130.701575 
L 87.537795 125.989512 
L 87.615797 125.989512 
L 87.693789 125.989512 
L 87.693789 130.701575 
L 87.77184 130.701575 
L 89.098008 130.701575 
L 89.098008 135.413638 
L 89.176039 135.413638 
L 89.254015 135.413638 
L 89.254015 140.125701 
L 89.332156 140.125701 
L 89.410042 140.125701 
L 89.410042 135.413638 
L 89.488085 135.413638 
L 89.566061 135.413638 
L 89.566061 140.125701 
L 89.644104 140.125701 
L 89.722082 140.125701 
L 89.722082 135.413638 
L 89.800101 135.413638 
L 89.87812 135.413638 
L 89.87812 130.701575 
L 89.956133 130.701575 
L 90.190159 130.701575 
L 90.190159 135.413638 
L 90.268186 135.413638 
L 93.778691 135.413638 
L 93.778691 130.701575 
L 93.856704 130.701575 
L 94.090755 130.701575 
L 94.090755 125.989512 
L 94.168746 125.989512 
L 97.679266 125.989512 
L 97.679266 121.277449 
L 97.757261 121.277449 
L 98.771411 121.277449 
L 98.771411 116.565386 
L 98.849409 116.565386 
L 108.756861 116.565386 
L 108.756861 111.853323 
L 108.834885 111.853323 
L 108.912882 111.853323 
L 108.912882 107.14126 
L 108.990898 107.14126 
L 109.536956 107.14126 
L 109.536956 102.429197 
L 109.614994 102.429197 
L 116.870057 102.429197 
L 116.870057 97.717134 
L 116.948058 97.717134 
L 117.338084 97.717134 
L 117.338084 93.005071 
L 117.416126 93.005071 
L 125.13924 93.005071 
L 125.13924 88.293008 
L 125.21723 88.293008 
L 128.571721 88.293008 
L 128.571721 93.005071 
L 128.649736 93.005071 
L 134.656591 93.005071 
L 134.656591 97.717134 
L 134.734641 97.717134 
L 161.492509 97.717134 
L 161.492509 93.005071 
L 161.570532 93.005071 
L 187.860343 93.005071 
L 187.860343 88.293008 
L 187.938338 88.293008 
L 190.824762 88.293008 
L 190.824762 83.580945 
L 190.902749 83.580945 
L 201.590305 83.580945 
L 201.590305 78.868882 
L 201.668327 78.868882 
L 224.369633 78.868882 
L 224.369633 83.580945 
L 224.447642 83.580945 
L 224.525616 83.580945 
L 224.525616 78.868882 
L 224.603626 78.868882 
L 255.88617 78.868882 
L 255.88617 83.580945 
L 255.964167 83.580945 
L 263.063214 83.580945 
L 263.063214 88.293008 
L 263.14121 88.293008 
L 274.765044 88.293008 
L 274.765044 93.005071 
L 274.84293 93.005071 
L 297.232169 93.005071 
L 297.232169 97.717134 
L 297.310186 97.717134 
L 303.005 97.717134 
L 303.005 97.717134 
" style="fill:none;stroke:#e6ab02;stroke-dasharray:4.5,1.5;stroke-dashoffset:0;stroke-width:1.5;"/>
   </g>
   <g id="line2d_32">
    <path clip-path="url(#p1f5cd8a7a2)" d="M 55.905 206.094582 
L 63.666325 206.094582 
L 63.666325 196.670456 
L 63.744345 196.670456 
L 67.098812 196.670456 
L 67.098812 187.24633 
L 67.176821 187.24633 
L 67.254827 187.24633 
L 67.254827 182.534267 
L 67.332857 182.534267 
L 67.87894 182.534267 
L 67.87894 177.822204 
L 67.95694 177.822204 
L 68.034958 177.822204 
L 68.034958 173.110142 
L 68.112988 173.110142 
L 82.545059 173.110142 
L 82.545059 168.398079 
L 82.623063 168.398079 
L 82.701098 168.398079 
L 82.701098 163.686016 
L 82.779091 163.686016 
L 82.857123 163.686016 
L 82.857123 158.973953 
L 82.935114 158.973953 
L 83.325157 158.973953 
L 83.325157 154.26189 
L 83.403204 154.26189 
L 83.481224 154.26189 
L 83.481224 158.973953 
L 83.559222 158.973953 
L 85.665509 158.973953 
L 85.665509 140.125701 
L 85.743519 140.125701 
L 85.977562 140.125701 
L 85.977562 130.701575 
L 86.05557 130.701575 
L 86.133574 130.701575 
L 86.133574 125.989512 
L 86.211581 125.989512 
L 86.28958 125.989512 
L 86.28958 116.565386 
L 86.367632 116.565386 
L 303.005 116.565386 
L 303.005 116.565386 
" style="fill:none;stroke:#a6761d;stroke-dasharray:4.5,1.5;stroke-dashoffset:0;stroke-width:1.5;"/>
   </g>
   <g id="line2d_33">
    <path clip-path="url(#p1f5cd8a7a2)" d="M 55.905 210.806645 
L 63.978371 210.806645 
L 63.978371 206.094582 
L 64.056371 206.094582 
L 64.134417 206.094582 
L 64.134417 201.382519 
L 64.212424 201.382519 
L 67.254827 201.382519 
L 67.254827 196.670456 
L 67.332857 196.670456 
L 68.034958 196.670456 
L 68.034958 191.958393 
L 68.112988 191.958393 
L 68.347004 191.958393 
L 68.347004 187.24633 
L 68.425032 187.24633 
L 68.659065 187.24633 
L 68.659065 182.534267 
L 68.737083 182.534267 
L 70.999409 182.534267 
L 70.999409 187.24633 
L 71.077413 187.24633 
L 82.077014 187.24633 
L 82.077014 182.534267 
L 82.154987 182.534267 
L 83.013123 182.534267 
L 83.013123 173.110142 
L 83.091127 173.110142 
L 85.821529 173.110142 
L 85.821529 168.398079 
L 85.899564 168.398079 
L 86.445634 168.398079 
L 86.445634 149.549827 
L 86.523647 149.549827 
L 86.601658 149.549827 
L 86.601658 144.837764 
L 86.679674 144.837764 
L 86.757679 144.837764 
L 86.757679 140.125701 
L 86.835687 140.125701 
L 134.656591 140.125701 
L 134.656591 144.837764 
L 134.734641 144.837764 
L 134.812637 144.837764 
L 134.812637 140.125701 
L 134.890667 140.125701 
L 229.050263 140.125701 
L 229.050263 135.413638 
L 229.12831 135.413638 
L 236.851429 135.413638 
L 236.851429 130.701575 
L 236.929461 130.701575 
L 248.397085 130.701575 
L 248.397085 125.989512 
L 248.475125 125.989512 
L 250.581424 125.989512 
L 250.581424 121.277449 
L 250.659433 121.277449 
L 251.205508 121.277449 
L 251.205508 116.565386 
L 251.283506 116.565386 
L 277.105252 116.565386 
L 277.105252 121.277449 
L 277.18325 121.277449 
L 280.849788 121.277449 
L 280.849788 116.565386 
L 280.927801 116.565386 
L 303.005 116.565386 
L 303.005 116.565386 
" style="fill:none;stroke:#666666;stroke-dasharray:4.5,1.5;stroke-dashoffset:0;stroke-width:1.5;"/>
   </g>
   <g id="line2d_34"/>
   <g id="line2d_35"/>
   <g id="line2d_36"/>
   <g id="line2d_37"/>
   <g id="line2d_38"/>
   <g id="line2d_39"/>
   <g id="line2d_40"/>
   <g id="line2d_41"/>
   <g id="line2d_42"/>
   <g id="line2d_43"/>
   <g id="line2d_44"/>
   <g id="line2d_45"/>
   <g id="line2d_46"/>
   <g id="line2d_47"/>
   <g id="line2d_48"/>
   <g id="line2d_49"/>
   <g id="line2d_50"/>
   <g id="patch_3">
    <path d="M 43.55 220.230771 
L 43.55 12.9 
" style="fill:none;stroke:#000000;stroke-linecap:square;stroke-linejoin:miter;stroke-width:0.8;"/>
   </g>
   <g id="patch_4">
    <path d="M 315.36 220.230771 
L 315.36 12.9 
" style="fill:none;stroke:#000000;stroke-linecap:square;stroke-linejoin:miter;stroke-width:0.8;"/>
   </g>
   <g id="patch_5">
    <path d="M 43.55 220.230771 
L 315.36 220.230771 
" style="fill:none;stroke:#000000;stroke-linecap:square;stroke-linejoin:miter;stroke-width:0.8;"/>
   </g>
   <g id="patch_6">
    <path d="M 43.55 12.9 
L 315.36 12.9 
" style="fill:none;stroke:#000000;stroke-linecap:square;stroke-linejoin:miter;stroke-width:0.8;"/>
   </g>
  </g>
  <g id="legend_1">
   <g id="patch_7">
    <path d="M 331.8625 262.528125 
L 420 262.528125 
Q 422 262.528125 422 260.528125 
L 422 12 
Q 422 10 420 10 
L 331.8625 10 
Q 329.8625 10 329.8625 12 
L 329.8625 260.528125 
Q 329.8625 262.528125 331.8625 262.528125 
z
" style="fill:#ffffff;opacity:0.8;stroke:#cccccc;stroke-linejoin:miter;"/>
   </g>
   <g id="text_20">
    <!-- 494/610 Reg. -->
    <defs>
     <path d="M 25.390625 72.90625 
L 33.6875 72.90625 
L 8.296875 -9.28125 
L 0 -9.28125 
z
" id="DejaVuSans-47"/>
     <path d="M 33.015625 40.375 
Q 26.375 40.375 22.484375 35.828125 
Q 18.609375 31.296875 18.609375 23.390625 
Q 18.609375 15.53125 22.484375 10.953125 
Q 26.375 6.390625 33.015625 6.390625 
Q 39.65625 6.390625 43.53125 10.953125 
Q 47.40625 15.53125 47.40625 23.390625 
Q 47.40625 31.296875 43.53125 35.828125 
Q 39.65625 40.375 33.015625 40.375 
z
M 52.59375 71.296875 
L 52.59375 62.3125 
Q 48.875 64.0625 45.09375 64.984375 
Q 41.3125 65.921875 37.59375 65.921875 
Q 27.828125 65.921875 22.671875 59.328125 
Q 17.53125 52.734375 16.796875 39.40625 
Q 19.671875 43.65625 24.015625 45.921875 
Q 28.375 48.1875 33.59375 48.1875 
Q 44.578125 48.1875 50.953125 41.515625 
Q 57.328125 34.859375 57.328125 23.390625 
Q 57.328125 12.15625 50.6875 5.359375 
Q 44.046875 -1.421875 33.015625 -1.421875 
Q 20.359375 -1.421875 13.671875 8.265625 
Q 6.984375 17.96875 6.984375 36.375 
Q 6.984375 53.65625 15.1875 63.9375 
Q 23.390625 74.21875 37.203125 74.21875 
Q 40.921875 74.21875 44.703125 73.484375 
Q 48.484375 72.75 52.59375 71.296875 
z
" id="DejaVuSans-54"/>
     <path d="M 10.6875 12.40625 
L 21 12.40625 
L 21 0 
L 10.6875 0 
z
" id="DejaVuSans-46"/>
    </defs>
    <g transform="translate(342.259375 21.598437)scale(0.1 -0.1)">
     <use xlink:href="#DejaVuSans-52"/>
     <use x="63.623047" xlink:href="#DejaVuSans-57"/>
     <use x="127.246094" xlink:href="#DejaVuSans-52"/>
     <use x="190.869141" xlink:href="#DejaVuSans-47"/>
     <use x="224.560547" xlink:href="#DejaVuSans-54"/>
     <use x="288.183594" xlink:href="#DejaVuSans-49"/>
     <use x="351.806641" xlink:href="#DejaVuSans-48"/>
     <use x="415.429688" xlink:href="#DejaVuSans-32"/>
     <use x="447.216797" xlink:href="#DejaVuSans-82"/>
     <use x="516.636719" xlink:href="#DejaVuSans-101"/>
     <use x="578.160156" xlink:href="#DejaVuSans-103"/>
     <use x="641.636719" xlink:href="#DejaVuSans-46"/>
    </g>
   </g>
   <g id="line2d_51">
    <path d="M 333.8625 32.776562 
L 353.8625 32.776562 
" style="fill:none;stroke:#1b9e77;stroke-linecap:square;stroke-width:1.5;"/>
   </g>
   <g id="line2d_52"/>
   <g id="text_21">
    <!-- AS (40) -->
    <defs>
     <path d="M 34.1875 63.1875 
L 20.796875 26.90625 
L 47.609375 26.90625 
z
M 28.609375 72.90625 
L 39.796875 72.90625 
L 67.578125 0 
L 57.328125 0 
L 50.6875 18.703125 
L 17.828125 18.703125 
L 11.1875 0 
L 0.78125 0 
z
" id="DejaVuSans-65"/>
     <path d="M 31 75.875 
Q 24.46875 64.65625 21.28125 53.65625 
Q 18.109375 42.671875 18.109375 31.390625 
Q 18.109375 20.125 21.3125 9.0625 
Q 24.515625 -2 31 -13.1875 
L 23.1875 -13.1875 
Q 15.875 -1.703125 12.234375 9.375 
Q 8.59375 20.453125 8.59375 31.390625 
Q 8.59375 42.28125 12.203125 53.3125 
Q 15.828125 64.359375 23.1875 75.875 
z
" id="DejaVuSans-40"/>
     <path d="M 8.015625 75.875 
L 15.828125 75.875 
Q 23.140625 64.359375 26.78125 53.3125 
Q 30.421875 42.28125 30.421875 31.390625 
Q 30.421875 20.453125 26.78125 9.375 
Q 23.140625 -1.703125 15.828125 -13.1875 
L 8.015625 -13.1875 
Q 14.5 -2 17.703125 9.0625 
Q 20.90625 20.125 20.90625 31.390625 
Q 20.90625 42.671875 17.703125 53.65625 
Q 14.5 64.65625 8.015625 75.875 
z
" id="DejaVuSans-41"/>
    </defs>
    <g transform="translate(361.8625 36.276562)scale(0.1 -0.1)">
     <use xlink:href="#DejaVuSans-65"/>
     <use x="68.408203" xlink:href="#DejaVuSans-83"/>
     <use x="131.884766" xlink:href="#DejaVuSans-32"/>
     <use x="163.671875" xlink:href="#DejaVuSans-40"/>
     <use x="202.685547" xlink:href="#DejaVuSans-52"/>
     <use x="266.308594" xlink:href="#DejaVuSans-48"/>
     <use x="329.931641" xlink:href="#DejaVuSans-41"/>
    </g>
   </g>
   <g id="line2d_53">
    <path d="M 333.8625 47.454688 
L 353.8625 47.454688 
" style="fill:none;stroke:#d95f02;stroke-linecap:square;stroke-width:1.5;"/>
   </g>
   <g id="line2d_54"/>
   <g id="text_22">
    <!-- COML (40) -->
    <defs>
     <path d="M 64.40625 67.28125 
L 64.40625 56.890625 
Q 59.421875 61.53125 53.78125 63.8125 
Q 48.140625 66.109375 41.796875 66.109375 
Q 29.296875 66.109375 22.65625 58.46875 
Q 16.015625 50.828125 16.015625 36.375 
Q 16.015625 21.96875 22.65625 14.328125 
Q 29.296875 6.6875 41.796875 6.6875 
Q 48.140625 6.6875 53.78125 8.984375 
Q 59.421875 11.28125 64.40625 15.921875 
L 64.40625 5.609375 
Q 59.234375 2.09375 53.4375 0.328125 
Q 47.65625 -1.421875 41.21875 -1.421875 
Q 24.65625 -1.421875 15.125 8.703125 
Q 5.609375 18.84375 5.609375 36.375 
Q 5.609375 53.953125 15.125 64.078125 
Q 24.65625 74.21875 41.21875 74.21875 
Q 47.75 74.21875 53.53125 72.484375 
Q 59.328125 70.75 64.40625 67.28125 
z
" id="DejaVuSans-67"/>
     <path d="M 39.40625 66.21875 
Q 28.65625 66.21875 22.328125 58.203125 
Q 16.015625 50.203125 16.015625 36.375 
Q 16.015625 22.609375 22.328125 14.59375 
Q 28.65625 6.59375 39.40625 6.59375 
Q 50.140625 6.59375 56.421875 14.59375 
Q 62.703125 22.609375 62.703125 36.375 
Q 62.703125 50.203125 56.421875 58.203125 
Q 50.140625 66.21875 39.40625 66.21875 
z
M 39.40625 74.21875 
Q 54.734375 74.21875 63.90625 63.9375 
Q 73.09375 53.65625 73.09375 36.375 
Q 73.09375 19.140625 63.90625 8.859375 
Q 54.734375 -1.421875 39.40625 -1.421875 
Q 24.03125 -1.421875 14.8125 8.828125 
Q 5.609375 19.09375 5.609375 36.375 
Q 5.609375 53.65625 14.8125 63.9375 
Q 24.03125 74.21875 39.40625 74.21875 
z
" id="DejaVuSans-79"/>
     <path d="M 9.8125 72.90625 
L 24.515625 72.90625 
L 43.109375 23.296875 
L 61.8125 72.90625 
L 76.515625 72.90625 
L 76.515625 0 
L 66.890625 0 
L 66.890625 64.015625 
L 48.09375 14.015625 
L 38.1875 14.015625 
L 19.390625 64.015625 
L 19.390625 0 
L 9.8125 0 
z
" id="DejaVuSans-77"/>
     <path d="M 9.8125 72.90625 
L 19.671875 72.90625 
L 19.671875 8.296875 
L 55.171875 8.296875 
L 55.171875 0 
L 9.8125 0 
z
" id="DejaVuSans-76"/>
    </defs>
    <g transform="translate(361.8625 50.954688)scale(0.1 -0.1)">
     <use xlink:href="#DejaVuSans-67"/>
     <use x="69.824219" xlink:href="#DejaVuSans-79"/>
     <use x="148.535156" xlink:href="#DejaVuSans-77"/>
     <use x="234.814453" xlink:href="#DejaVuSans-76"/>
     <use x="290.527344" xlink:href="#DejaVuSans-32"/>
     <use x="322.314453" xlink:href="#DejaVuSans-40"/>
     <use x="361.328125" xlink:href="#DejaVuSans-52"/>
     <use x="424.951172" xlink:href="#DejaVuSans-48"/>
     <use x="488.574219" xlink:href="#DejaVuSans-41"/>
    </g>
   </g>
   <g id="line2d_55">
    <path d="M 333.8625 62.132812 
L 353.8625 62.132812 
" style="fill:none;stroke:#7570b3;stroke-linecap:square;stroke-width:1.5;"/>
   </g>
   <g id="line2d_56"/>
   <g id="text_23">
    <!-- GDD (40) -->
    <defs>
     <path d="M 59.515625 10.40625 
L 59.515625 29.984375 
L 43.40625 29.984375 
L 43.40625 38.09375 
L 69.28125 38.09375 
L 69.28125 6.78125 
Q 63.578125 2.734375 56.6875 0.65625 
Q 49.8125 -1.421875 42 -1.421875 
Q 24.90625 -1.421875 15.25 8.5625 
Q 5.609375 18.5625 5.609375 36.375 
Q 5.609375 54.25 15.25 64.234375 
Q 24.90625 74.21875 42 74.21875 
Q 49.125 74.21875 55.546875 72.453125 
Q 61.96875 70.703125 67.390625 67.28125 
L 67.390625 56.78125 
Q 61.921875 61.421875 55.765625 63.765625 
Q 49.609375 66.109375 42.828125 66.109375 
Q 29.4375 66.109375 22.71875 58.640625 
Q 16.015625 51.171875 16.015625 36.375 
Q 16.015625 21.625 22.71875 14.15625 
Q 29.4375 6.6875 42.828125 6.6875 
Q 48.046875 6.6875 52.140625 7.59375 
Q 56.25 8.5 59.515625 10.40625 
z
" id="DejaVuSans-71"/>
    </defs>
    <g transform="translate(361.8625 65.632812)scale(0.1 -0.1)">
     <use xlink:href="#DejaVuSans-71"/>
     <use x="77.490234" xlink:href="#DejaVuSans-68"/>
     <use x="154.492188" xlink:href="#DejaVuSans-68"/>
     <use x="231.494141" xlink:href="#DejaVuSans-32"/>
     <use x="263.28125" xlink:href="#DejaVuSans-40"/>
     <use x="302.294922" xlink:href="#DejaVuSans-52"/>
     <use x="365.917969" xlink:href="#DejaVuSans-48"/>
     <use x="429.541016" xlink:href="#DejaVuSans-41"/>
    </g>
   </g>
   <g id="line2d_57">
    <path d="M 333.8625 76.810937 
L 353.8625 76.810937 
" style="fill:none;stroke:#e7298a;stroke-linecap:square;stroke-width:1.5;"/>
   </g>
   <g id="line2d_58"/>
   <g id="text_24">
    <!-- SA (39) -->
    <g transform="translate(361.8625 80.310937)scale(0.1 -0.1)">
     <use xlink:href="#DejaVuSans-83"/>
     <use x="63.492188" xlink:href="#DejaVuSans-65"/>
     <use x="131.900391" xlink:href="#DejaVuSans-32"/>
     <use x="163.6875" xlink:href="#DejaVuSans-40"/>
     <use x="202.701172" xlink:href="#DejaVuSans-51"/>
     <use x="266.324219" xlink:href="#DejaVuSans-57"/>
     <use x="329.947266" xlink:href="#DejaVuSans-41"/>
    </g>
   </g>
   <g id="line2d_59">
    <path d="M 333.8625 91.489062 
L 353.8625 91.489062 
" style="fill:none;stroke:#66a61e;stroke-linecap:square;stroke-width:1.5;"/>
   </g>
   <g id="line2d_60"/>
   <g id="text_25">
    <!-- AUS (39) -->
    <defs>
     <path d="M 8.6875 72.90625 
L 18.609375 72.90625 
L 18.609375 28.609375 
Q 18.609375 16.890625 22.84375 11.734375 
Q 27.09375 6.59375 36.625 6.59375 
Q 46.09375 6.59375 50.34375 11.734375 
Q 54.59375 16.890625 54.59375 28.609375 
L 54.59375 72.90625 
L 64.5 72.90625 
L 64.5 27.390625 
Q 64.5 13.140625 57.4375 5.859375 
Q 50.390625 -1.421875 36.625 -1.421875 
Q 22.796875 -1.421875 15.734375 5.859375 
Q 8.6875 13.140625 8.6875 27.390625 
z
" id="DejaVuSans-85"/>
    </defs>
    <g transform="translate(361.8625 94.989062)scale(0.1 -0.1)">
     <use xlink:href="#DejaVuSans-65"/>
     <use x="68.408203" xlink:href="#DejaVuSans-85"/>
     <use x="141.601562" xlink:href="#DejaVuSans-83"/>
     <use x="205.078125" xlink:href="#DejaVuSans-32"/>
     <use x="236.865234" xlink:href="#DejaVuSans-40"/>
     <use x="275.878906" xlink:href="#DejaVuSans-51"/>
     <use x="339.501953" xlink:href="#DejaVuSans-57"/>
     <use x="403.125" xlink:href="#DejaVuSans-41"/>
    </g>
   </g>
   <g id="line2d_61">
    <path d="M 333.8625 106.167188 
L 353.8625 106.167188 
" style="fill:none;stroke:#e6ab02;stroke-linecap:square;stroke-width:1.5;"/>
   </g>
   <g id="line2d_62"/>
   <g id="text_26">
    <!-- MD (38) -->
    <defs>
     <path d="M 31.78125 34.625 
Q 24.75 34.625 20.71875 30.859375 
Q 16.703125 27.09375 16.703125 20.515625 
Q 16.703125 13.921875 20.71875 10.15625 
Q 24.75 6.390625 31.78125 6.390625 
Q 38.8125 6.390625 42.859375 10.171875 
Q 46.921875 13.96875 46.921875 20.515625 
Q 46.921875 27.09375 42.890625 30.859375 
Q 38.875 34.625 31.78125 34.625 
z
M 21.921875 38.8125 
Q 15.578125 40.375 12.03125 44.71875 
Q 8.5 49.078125 8.5 55.328125 
Q 8.5 64.0625 14.71875 69.140625 
Q 20.953125 74.21875 31.78125 74.21875 
Q 42.671875 74.21875 48.875 69.140625 
Q 55.078125 64.0625 55.078125 55.328125 
Q 55.078125 49.078125 51.53125 44.71875 
Q 48 40.375 41.703125 38.8125 
Q 48.828125 37.15625 52.796875 32.3125 
Q 56.78125 27.484375 56.78125 20.515625 
Q 56.78125 9.90625 50.3125 4.234375 
Q 43.84375 -1.421875 31.78125 -1.421875 
Q 19.734375 -1.421875 13.25 4.234375 
Q 6.78125 9.90625 6.78125 20.515625 
Q 6.78125 27.484375 10.78125 32.3125 
Q 14.796875 37.15625 21.921875 38.8125 
z
M 18.3125 54.390625 
Q 18.3125 48.734375 21.84375 45.5625 
Q 25.390625 42.390625 31.78125 42.390625 
Q 38.140625 42.390625 41.71875 45.5625 
Q 45.3125 48.734375 45.3125 54.390625 
Q 45.3125 60.0625 41.71875 63.234375 
Q 38.140625 66.40625 31.78125 66.40625 
Q 25.390625 66.40625 21.84375 63.234375 
Q 18.3125 60.0625 18.3125 54.390625 
z
" id="DejaVuSans-56"/>
    </defs>
    <g transform="translate(361.8625 109.667188)scale(0.1 -0.1)">
     <use xlink:href="#DejaVuSans-77"/>
     <use x="86.279297" xlink:href="#DejaVuSans-68"/>
     <use x="163.28125" xlink:href="#DejaVuSans-32"/>
     <use x="195.068359" xlink:href="#DejaVuSans-40"/>
     <use x="234.082031" xlink:href="#DejaVuSans-51"/>
     <use x="297.705078" xlink:href="#DejaVuSans-56"/>
     <use x="361.328125" xlink:href="#DejaVuSans-41"/>
    </g>
   </g>
   <g id="line2d_63">
    <path d="M 333.8625 120.845312 
L 353.8625 120.845312 
" style="fill:none;stroke:#a6761d;stroke-linecap:square;stroke-width:1.5;"/>
   </g>
   <g id="line2d_64"/>
   <g id="text_27">
    <!-- HPI (38) -->
    <defs>
     <path d="M 9.8125 72.90625 
L 19.671875 72.90625 
L 19.671875 43.015625 
L 55.515625 43.015625 
L 55.515625 72.90625 
L 65.375 72.90625 
L 65.375 0 
L 55.515625 0 
L 55.515625 34.71875 
L 19.671875 34.71875 
L 19.671875 0 
L 9.8125 0 
z
" id="DejaVuSans-72"/>
     <path d="M 19.671875 64.796875 
L 19.671875 37.40625 
L 32.078125 37.40625 
Q 38.96875 37.40625 42.71875 40.96875 
Q 46.484375 44.53125 46.484375 51.125 
Q 46.484375 57.671875 42.71875 61.234375 
Q 38.96875 64.796875 32.078125 64.796875 
z
M 9.8125 72.90625 
L 32.078125 72.90625 
Q 44.34375 72.90625 50.609375 67.359375 
Q 56.890625 61.8125 56.890625 51.125 
Q 56.890625 40.328125 50.609375 34.8125 
Q 44.34375 29.296875 32.078125 29.296875 
L 19.671875 29.296875 
L 19.671875 0 
L 9.8125 0 
z
" id="DejaVuSans-80"/>
     <path d="M 9.8125 72.90625 
L 19.671875 72.90625 
L 19.671875 0 
L 9.8125 0 
z
" id="DejaVuSans-73"/>
    </defs>
    <g transform="translate(361.8625 124.345312)scale(0.1 -0.1)">
     <use xlink:href="#DejaVuSans-72"/>
     <use x="75.195312" xlink:href="#DejaVuSans-80"/>
     <use x="135.498047" xlink:href="#DejaVuSans-73"/>
     <use x="164.990234" xlink:href="#DejaVuSans-32"/>
     <use x="196.777344" xlink:href="#DejaVuSans-40"/>
     <use x="235.791016" xlink:href="#DejaVuSans-51"/>
     <use x="299.414062" xlink:href="#DejaVuSans-56"/>
     <use x="363.037109" xlink:href="#DejaVuSans-41"/>
    </g>
   </g>
   <g id="line2d_65">
    <path d="M 333.8625 135.523438 
L 353.8625 135.523438 
" style="fill:none;stroke:#666666;stroke-linecap:square;stroke-width:1.5;"/>
   </g>
   <g id="line2d_66"/>
   <g id="text_28">
    <!-- TBI (28) -->
    <defs>
     <path d="M -0.296875 72.90625 
L 61.375 72.90625 
L 61.375 64.59375 
L 35.5 64.59375 
L 35.5 0 
L 25.59375 0 
L 25.59375 64.59375 
L -0.296875 64.59375 
z
" id="DejaVuSans-84"/>
     <path d="M 19.671875 34.8125 
L 19.671875 8.109375 
L 35.5 8.109375 
Q 43.453125 8.109375 47.28125 11.40625 
Q 51.125 14.703125 51.125 21.484375 
Q 51.125 28.328125 47.28125 31.5625 
Q 43.453125 34.8125 35.5 34.8125 
z
M 19.671875 64.796875 
L 19.671875 42.828125 
L 34.28125 42.828125 
Q 41.5 42.828125 45.03125 45.53125 
Q 48.578125 48.25 48.578125 53.8125 
Q 48.578125 59.328125 45.03125 62.0625 
Q 41.5 64.796875 34.28125 64.796875 
z
M 9.8125 72.90625 
L 35.015625 72.90625 
Q 46.296875 72.90625 52.390625 68.21875 
Q 58.5 63.53125 58.5 54.890625 
Q 58.5 48.1875 55.375 44.234375 
Q 52.25 40.28125 46.1875 39.3125 
Q 53.46875 37.75 57.5 32.78125 
Q 61.53125 27.828125 61.53125 20.40625 
Q 61.53125 10.640625 54.890625 5.3125 
Q 48.25 0 35.984375 0 
L 9.8125 0 
z
" id="DejaVuSans-66"/>
    </defs>
    <g transform="translate(361.8625 139.023438)scale(0.1 -0.1)">
     <use xlink:href="#DejaVuSans-84"/>
     <use x="61.083984" xlink:href="#DejaVuSans-66"/>
     <use x="129.6875" xlink:href="#DejaVuSans-73"/>
     <use x="159.179688" xlink:href="#DejaVuSans-32"/>
     <use x="190.966797" xlink:href="#DejaVuSans-40"/>
     <use x="229.980469" xlink:href="#DejaVuSans-50"/>
     <use x="293.603516" xlink:href="#DejaVuSans-56"/>
     <use x="357.226562" xlink:href="#DejaVuSans-41"/>
    </g>
   </g>
   <g id="line2d_67">
    <path d="M 333.8625 150.201562 
L 353.8625 150.201562 
" style="fill:none;stroke:#1b9e77;stroke-dasharray:4.5,1.5;stroke-dashoffset:0;stroke-width:1.5;"/>
   </g>
   <g id="line2d_68"/>
   <g id="text_29">
    <!-- FIT (27) -->
    <defs>
     <path d="M 9.8125 72.90625 
L 51.703125 72.90625 
L 51.703125 64.59375 
L 19.671875 64.59375 
L 19.671875 43.109375 
L 48.578125 43.109375 
L 48.578125 34.8125 
L 19.671875 34.8125 
L 19.671875 0 
L 9.8125 0 
z
" id="DejaVuSans-70"/>
     <path d="M 8.203125 72.90625 
L 55.078125 72.90625 
L 55.078125 68.703125 
L 28.609375 0 
L 18.3125 0 
L 43.21875 64.59375 
L 8.203125 64.59375 
z
" id="DejaVuSans-55"/>
    </defs>
    <g transform="translate(361.8625 153.701562)scale(0.1 -0.1)">
     <use xlink:href="#DejaVuSans-70"/>
     <use x="57.519531" xlink:href="#DejaVuSans-73"/>
     <use x="87.011719" xlink:href="#DejaVuSans-84"/>
     <use x="148.095703" xlink:href="#DejaVuSans-32"/>
     <use x="179.882812" xlink:href="#DejaVuSans-40"/>
     <use x="218.896484" xlink:href="#DejaVuSans-50"/>
     <use x="282.519531" xlink:href="#DejaVuSans-55"/>
     <use x="346.142578" xlink:href="#DejaVuSans-41"/>
    </g>
   </g>
   <g id="line2d_69">
    <path d="M 333.8625 164.879687 
L 353.8625 164.879687 
" style="fill:none;stroke:#d95f02;stroke-dasharray:4.5,1.5;stroke-dashoffset:0;stroke-width:1.5;"/>
   </g>
   <g id="line2d_70"/>
   <g id="text_30">
    <!-- CB (26) -->
    <g transform="translate(361.8625 168.379687)scale(0.1 -0.1)">
     <use xlink:href="#DejaVuSans-67"/>
     <use x="69.824219" xlink:href="#DejaVuSans-66"/>
     <use x="138.427734" xlink:href="#DejaVuSans-32"/>
     <use x="170.214844" xlink:href="#DejaVuSans-40"/>
     <use x="209.228516" xlink:href="#DejaVuSans-50"/>
     <use x="272.851562" xlink:href="#DejaVuSans-54"/>
     <use x="336.474609" xlink:href="#DejaVuSans-41"/>
    </g>
   </g>
   <g id="line2d_71">
    <path d="M 333.8625 179.557812 
L 353.8625 179.557812 
" style="fill:none;stroke:#7570b3;stroke-dasharray:4.5,1.5;stroke-dashoffset:0;stroke-width:1.5;"/>
   </g>
   <g id="line2d_72"/>
   <g id="text_31">
    <!-- BP (26) -->
    <g transform="translate(361.8625 183.057812)scale(0.1 -0.1)">
     <use xlink:href="#DejaVuSans-66"/>
     <use x="68.603516" xlink:href="#DejaVuSans-80"/>
     <use x="128.90625" xlink:href="#DejaVuSans-32"/>
     <use x="160.693359" xlink:href="#DejaVuSans-40"/>
     <use x="199.707031" xlink:href="#DejaVuSans-50"/>
     <use x="263.330078" xlink:href="#DejaVuSans-54"/>
     <use x="326.953125" xlink:href="#DejaVuSans-41"/>
    </g>
   </g>
   <g id="line2d_73">
    <path d="M 333.8625 194.235937 
L 353.8625 194.235937 
" style="fill:none;stroke:#e7298a;stroke-dasharray:4.5,1.5;stroke-dashoffset:0;stroke-width:1.5;"/>
   </g>
   <g id="line2d_74"/>
   <g id="text_32">
    <!-- CC (25) -->
    <g transform="translate(361.8625 197.735937)scale(0.1 -0.1)">
     <use xlink:href="#DejaVuSans-67"/>
     <use x="69.824219" xlink:href="#DejaVuSans-67"/>
     <use x="139.648438" xlink:href="#DejaVuSans-32"/>
     <use x="171.435547" xlink:href="#DejaVuSans-40"/>
     <use x="210.449219" xlink:href="#DejaVuSans-50"/>
     <use x="274.072266" xlink:href="#DejaVuSans-53"/>
     <use x="337.695312" xlink:href="#DejaVuSans-41"/>
    </g>
   </g>
   <g id="line2d_75">
    <path d="M 333.8625 208.914062 
L 353.8625 208.914062 
" style="fill:none;stroke:#66a61e;stroke-dasharray:4.5,1.5;stroke-dashoffset:0;stroke-width:1.5;"/>
   </g>
   <g id="line2d_76"/>
   <g id="text_33">
    <!-- RJPH (24) -->
    <defs>
     <path d="M 9.8125 72.90625 
L 19.671875 72.90625 
L 19.671875 5.078125 
Q 19.671875 -8.109375 14.671875 -14.0625 
Q 9.671875 -20.015625 -1.421875 -20.015625 
L -5.171875 -20.015625 
L -5.171875 -11.71875 
L -2.09375 -11.71875 
Q 4.4375 -11.71875 7.125 -8.046875 
Q 9.8125 -4.390625 9.8125 5.078125 
z
" id="DejaVuSans-74"/>
    </defs>
    <g transform="translate(361.8625 212.414062)scale(0.1 -0.1)">
     <use xlink:href="#DejaVuSans-82"/>
     <use x="69.482422" xlink:href="#DejaVuSans-74"/>
     <use x="98.974609" xlink:href="#DejaVuSans-80"/>
     <use x="159.277344" xlink:href="#DejaVuSans-72"/>
     <use x="234.472656" xlink:href="#DejaVuSans-32"/>
     <use x="266.259766" xlink:href="#DejaVuSans-40"/>
     <use x="305.273438" xlink:href="#DejaVuSans-50"/>
     <use x="368.896484" xlink:href="#DejaVuSans-52"/>
     <use x="432.519531" xlink:href="#DejaVuSans-41"/>
    </g>
   </g>
   <g id="line2d_77">
    <path d="M 333.8625 223.592187 
L 353.8625 223.592187 
" style="fill:none;stroke:#e6ab02;stroke-dasharray:4.5,1.5;stroke-dashoffset:0;stroke-width:1.5;"/>
   </g>
   <g id="line2d_78"/>
   <g id="text_34">
    <!-- SPD (24) -->
    <g transform="translate(361.8625 227.092187)scale(0.1 -0.1)">
     <use xlink:href="#DejaVuSans-83"/>
     <use x="63.476562" xlink:href="#DejaVuSans-80"/>
     <use x="123.779297" xlink:href="#DejaVuSans-68"/>
     <use x="200.78125" xlink:href="#DejaVuSans-32"/>
     <use x="232.568359" xlink:href="#DejaVuSans-40"/>
     <use x="271.582031" xlink:href="#DejaVuSans-50"/>
     <use x="335.205078" xlink:href="#DejaVuSans-52"/>
     <use x="398.828125" xlink:href="#DejaVuSans-41"/>
    </g>
   </g>
   <g id="line2d_79">
    <path d="M 333.8625 238.270312 
L 353.8625 238.270312 
" style="fill:none;stroke:#a6761d;stroke-dasharray:4.5,1.5;stroke-dashoffset:0;stroke-width:1.5;"/>
   </g>
   <g id="line2d_80"/>
   <g id="text_35">
    <!-- AHR-H (20) -->
    <g transform="translate(361.8625 241.770312)scale(0.1 -0.1)">
     <use xlink:href="#DejaVuSans-65"/>
     <use x="68.408203" xlink:href="#DejaVuSans-72"/>
     <use x="143.603516" xlink:href="#DejaVuSans-82"/>
     <use x="213.023438" xlink:href="#DejaVuSans-45"/>
     <use x="249.107422" xlink:href="#DejaVuSans-72"/>
     <use x="324.302734" xlink:href="#DejaVuSans-32"/>
     <use x="356.089844" xlink:href="#DejaVuSans-40"/>
     <use x="395.103516" xlink:href="#DejaVuSans-50"/>
     <use x="458.726562" xlink:href="#DejaVuSans-48"/>
     <use x="522.349609" xlink:href="#DejaVuSans-41"/>
    </g>
   </g>
   <g id="line2d_81">
    <path d="M 333.8625 252.948437 
L 353.8625 252.948437 
" style="fill:none;stroke:#666666;stroke-dasharray:4.5,1.5;stroke-dashoffset:0;stroke-width:1.5;"/>
   </g>
   <g id="line2d_82"/>
   <g id="text_36">
    <!-- AHR-A (20) -->
    <g transform="translate(361.8625 256.448437)scale(0.1 -0.1)">
     <use xlink:href="#DejaVuSans-65"/>
     <use x="68.408203" xlink:href="#DejaVuSans-72"/>
     <use x="143.603516" xlink:href="#DejaVuSans-82"/>
     <use x="213.023438" xlink:href="#DejaVuSans-45"/>
     <use x="249.076172" xlink:href="#DejaVuSans-65"/>
     <use x="317.484375" xlink:href="#DejaVuSans-32"/>
     <use x="349.271484" xlink:href="#DejaVuSans-40"/>
     <use x="388.285156" xlink:href="#DejaVuSans-50"/>
     <use x="451.908203" xlink:href="#DejaVuSans-48"/>
     <use x="515.53125" xlink:href="#DejaVuSans-41"/>
    </g>
   </g>
  </g>
 </g>
 <defs>
  <clipPath id="p1f5cd8a7a2">
   <rect height="207.330771" width="271.81" x="43.55" y="12.9"/>
  </clipPath>
 </defs>
</svg>
