<?xml version="1.0" encoding="utf-8" standalone="no"?>
<!DOCTYPE svg PUBLIC "-//W3C//DTD SVG 1.1//EN"
  "http://www.w3.org/Graphics/SVG/1.1/DTD/svg11.dtd">
<!-- Created with matplotlib (https://matplotlib.org/) -->
<svg height="288pt" version="1.1" viewBox="0 0 432 288" width="432pt" xmlns="http://www.w3.org/2000/svg" xmlns:xlink="http://www.w3.org/1999/xlink">
 <defs>
  <style type="text/css">
*{stroke-linecap:butt;stroke-linejoin:round;}
  </style>
 </defs>
 <g id="figure_1">
  <g id="patch_1">
   <path d="M 0 288 
L 432 288 
L 432 0 
L 0 0 
z
" style="fill:#ffffff;"/>
  </g>
  <g id="axes_1">
   <g id="patch_2">
    <path d="M 43.55 220.230771 
L 315.36 220.230771 
L 315.36 12.9 
L 43.55 12.9 
z
" style="fill:#ffffff;"/>
   </g>
   <g id="matplotlib.axis_1">
    <g id="xtick_1">
     <g id="line2d_1">
      <defs>
       <path d="M 0 0 
L 0 3.5 
" id="mb999b39f62" style="stroke:#000000;stroke-width:0.8;"/>
      </defs>
      <g>
       <use style="stroke:#000000;stroke-width:0.8;" x="47.817887" xlink:href="#mb999b39f62" y="220.230771"/>
      </g>
     </g>
     <g id="text_1">
      <!-- 2020-11-29 -->
      <defs>
       <path d="M 19.1875 8.296875 
L 53.609375 8.296875 
L 53.609375 0 
L 7.328125 0 
L 7.328125 8.296875 
Q 12.9375 14.109375 22.625 23.890625 
Q 32.328125 33.6875 34.8125 36.53125 
Q 39.546875 41.84375 41.421875 45.53125 
Q 43.3125 49.21875 43.3125 52.78125 
Q 43.3125 58.59375 39.234375 62.25 
Q 35.15625 65.921875 28.609375 65.921875 
Q 23.96875 65.921875 18.8125 64.3125 
Q 13.671875 62.703125 7.8125 59.421875 
L 7.8125 69.390625 
Q 13.765625 71.78125 18.9375 73 
Q 24.125 74.21875 28.421875 74.21875 
Q 39.75 74.21875 46.484375 68.546875 
Q 53.21875 62.890625 53.21875 53.421875 
Q 53.21875 48.921875 51.53125 44.890625 
Q 49.859375 40.875 45.40625 35.40625 
Q 44.1875 33.984375 37.640625 27.21875 
Q 31.109375 20.453125 19.1875 8.296875 
z
" id="DejaVuSans-50"/>
       <path d="M 31.78125 66.40625 
Q 24.171875 66.40625 20.328125 58.90625 
Q 16.5 51.421875 16.5 36.375 
Q 16.5 21.390625 20.328125 13.890625 
Q 24.171875 6.390625 31.78125 6.390625 
Q 39.453125 6.390625 43.28125 13.890625 
Q 47.125 21.390625 47.125 36.375 
Q 47.125 51.421875 43.28125 58.90625 
Q 39.453125 66.40625 31.78125 66.40625 
z
M 31.78125 74.21875 
Q 44.046875 74.21875 50.515625 64.515625 
Q 56.984375 54.828125 56.984375 36.375 
Q 56.984375 17.96875 50.515625 8.265625 
Q 44.046875 -1.421875 31.78125 -1.421875 
Q 19.53125 -1.421875 13.0625 8.265625 
Q 6.59375 17.96875 6.59375 36.375 
Q 6.59375 54.828125 13.0625 64.515625 
Q 19.53125 74.21875 31.78125 74.21875 
z
" id="DejaVuSans-48"/>
       <path d="M 4.890625 31.390625 
L 31.203125 31.390625 
L 31.203125 23.390625 
L 4.890625 23.390625 
z
" id="DejaVuSans-45"/>
       <path d="M 12.40625 8.296875 
L 28.515625 8.296875 
L 28.515625 63.921875 
L 10.984375 60.40625 
L 10.984375 69.390625 
L 28.421875 72.90625 
L 38.28125 72.90625 
L 38.28125 8.296875 
L 54.390625 8.296875 
L 54.390625 0 
L 12.40625 0 
z
" id="DejaVuSans-49"/>
       <path d="M 10.984375 1.515625 
L 10.984375 10.5 
Q 14.703125 8.734375 18.5 7.8125 
Q 22.3125 6.890625 25.984375 6.890625 
Q 35.75 6.890625 40.890625 13.453125 
Q 46.046875 20.015625 46.78125 33.40625 
Q 43.953125 29.203125 39.59375 26.953125 
Q 35.25 24.703125 29.984375 24.703125 
Q 19.046875 24.703125 12.671875 31.3125 
Q 6.296875 37.9375 6.296875 49.421875 
Q 6.296875 60.640625 12.9375 67.421875 
Q 19.578125 74.21875 30.609375 74.21875 
Q 43.265625 74.21875 49.921875 64.515625 
Q 56.59375 54.828125 56.59375 36.375 
Q 56.59375 19.140625 48.40625 8.859375 
Q 40.234375 -1.421875 26.421875 -1.421875 
Q 22.703125 -1.421875 18.890625 -0.6875 
Q 15.09375 0.046875 10.984375 1.515625 
z
M 30.609375 32.421875 
Q 37.25 32.421875 41.125 36.953125 
Q 45.015625 41.5 45.015625 49.421875 
Q 45.015625 57.28125 41.125 61.84375 
Q 37.25 66.40625 30.609375 66.40625 
Q 23.96875 66.40625 20.09375 61.84375 
Q 16.21875 57.28125 16.21875 49.421875 
Q 16.21875 41.5 20.09375 36.953125 
Q 23.96875 32.421875 30.609375 32.421875 
z
" id="DejaVuSans-57"/>
      </defs>
      <g transform="translate(24.032771 262.869024)rotate(-30)scale(0.1 -0.1)">
       <use xlink:href="#DejaVuSans-50"/>
       <use x="63.623047" xlink:href="#DejaVuSans-48"/>
       <use x="127.246094" xlink:href="#DejaVuSans-50"/>
       <use x="190.869141" xlink:href="#DejaVuSans-48"/>
       <use x="254.492188" xlink:href="#DejaVuSans-45"/>
       <use x="290.576172" xlink:href="#DejaVuSans-49"/>
       <use x="354.199219" xlink:href="#DejaVuSans-49"/>
       <use x="417.822266" xlink:href="#DejaVuSans-45"/>
       <use x="453.90625" xlink:href="#DejaVuSans-50"/>
       <use x="517.529297" xlink:href="#DejaVuSans-57"/>
      </g>
     </g>
    </g>
    <g id="xtick_2">
     <g id="line2d_2">
      <g>
       <use style="stroke:#000000;stroke-width:0.8;" x="58.986301" xlink:href="#mb999b39f62" y="220.230771"/>
      </g>
     </g>
     <g id="text_2">
      <!-- 2020-12-01 -->
      <g transform="translate(35.201185 262.869024)rotate(-30)scale(0.1 -0.1)">
       <use xlink:href="#DejaVuSans-50"/>
       <use x="63.623047" xlink:href="#DejaVuSans-48"/>
       <use x="127.246094" xlink:href="#DejaVuSans-50"/>
       <use x="190.869141" xlink:href="#DejaVuSans-48"/>
       <use x="254.492188" xlink:href="#DejaVuSans-45"/>
       <use x="290.576172" xlink:href="#DejaVuSans-49"/>
       <use x="354.199219" xlink:href="#DejaVuSans-50"/>
       <use x="417.822266" xlink:href="#DejaVuSans-45"/>
       <use x="453.90625" xlink:href="#DejaVuSans-48"/>
       <use x="517.529297" xlink:href="#DejaVuSans-49"/>
      </g>
     </g>
    </g>
    <g id="xtick_3">
     <g id="line2d_3">
      <g>
       <use style="stroke:#000000;stroke-width:0.8;" x="98.075752" xlink:href="#mb999b39f62" y="220.230771"/>
      </g>
     </g>
     <g id="text_3">
      <!-- 2020-12-08 -->
      <defs>
       <path d="M 31.78125 34.625 
Q 24.75 34.625 20.71875 30.859375 
Q 16.703125 27.09375 16.703125 20.515625 
Q 16.703125 13.921875 20.71875 10.15625 
Q 24.75 6.390625 31.78125 6.390625 
Q 38.8125 6.390625 42.859375 10.171875 
Q 46.921875 13.96875 46.921875 20.515625 
Q 46.921875 27.09375 42.890625 30.859375 
Q 38.875 34.625 31.78125 34.625 
z
M 21.921875 38.8125 
Q 15.578125 40.375 12.03125 44.71875 
Q 8.5 49.078125 8.5 55.328125 
Q 8.5 64.0625 14.71875 69.140625 
Q 20.953125 74.21875 31.78125 74.21875 
Q 42.671875 74.21875 48.875 69.140625 
Q 55.078125 64.0625 55.078125 55.328125 
Q 55.078125 49.078125 51.53125 44.71875 
Q 48 40.375 41.703125 38.8125 
Q 48.828125 37.15625 52.796875 32.3125 
Q 56.78125 27.484375 56.78125 20.515625 
Q 56.78125 9.90625 50.3125 4.234375 
Q 43.84375 -1.421875 31.78125 -1.421875 
Q 19.734375 -1.421875 13.25 4.234375 
Q 6.78125 9.90625 6.78125 20.515625 
Q 6.78125 27.484375 10.78125 32.3125 
Q 14.796875 37.15625 21.921875 38.8125 
z
M 18.3125 54.390625 
Q 18.3125 48.734375 21.84375 45.5625 
Q 25.390625 42.390625 31.78125 42.390625 
Q 38.140625 42.390625 41.71875 45.5625 
Q 45.3125 48.734375 45.3125 54.390625 
Q 45.3125 60.0625 41.71875 63.234375 
Q 38.140625 66.40625 31.78125 66.40625 
Q 25.390625 66.40625 21.84375 63.234375 
Q 18.3125 60.0625 18.3125 54.390625 
z
" id="DejaVuSans-56"/>
      </defs>
      <g transform="translate(74.290636 262.869024)rotate(-30)scale(0.1 -0.1)">
       <use xlink:href="#DejaVuSans-50"/>
       <use x="63.623047" xlink:href="#DejaVuSans-48"/>
       <use x="127.246094" xlink:href="#DejaVuSans-50"/>
       <use x="190.869141" xlink:href="#DejaVuSans-48"/>
       <use x="254.492188" xlink:href="#DejaVuSans-45"/>
       <use x="290.576172" xlink:href="#DejaVuSans-49"/>
       <use x="354.199219" xlink:href="#DejaVuSans-50"/>
       <use x="417.822266" xlink:href="#DejaVuSans-45"/>
       <use x="453.90625" xlink:href="#DejaVuSans-48"/>
       <use x="517.529297" xlink:href="#DejaVuSans-56"/>
      </g>
     </g>
    </g>
    <g id="xtick_4">
     <g id="line2d_4">
      <g>
       <use style="stroke:#000000;stroke-width:0.8;" x="137.165203" xlink:href="#mb999b39f62" y="220.230771"/>
      </g>
     </g>
     <g id="text_4">
      <!-- 2020-12-15 -->
      <defs>
       <path d="M 10.796875 72.90625 
L 49.515625 72.90625 
L 49.515625 64.59375 
L 19.828125 64.59375 
L 19.828125 46.734375 
Q 21.96875 47.46875 24.109375 47.828125 
Q 26.265625 48.1875 28.421875 48.1875 
Q 40.625 48.1875 47.75 41.5 
Q 54.890625 34.8125 54.890625 23.390625 
Q 54.890625 11.625 47.5625 5.09375 
Q 40.234375 -1.421875 26.90625 -1.421875 
Q 22.3125 -1.421875 17.546875 -0.640625 
Q 12.796875 0.140625 7.71875 1.703125 
L 7.71875 11.625 
Q 12.109375 9.234375 16.796875 8.0625 
Q 21.484375 6.890625 26.703125 6.890625 
Q 35.15625 6.890625 40.078125 11.328125 
Q 45.015625 15.765625 45.015625 23.390625 
Q 45.015625 31 40.078125 35.4375 
Q 35.15625 39.890625 26.703125 39.890625 
Q 22.75 39.890625 18.8125 39.015625 
Q 14.890625 38.140625 10.796875 36.28125 
z
" id="DejaVuSans-53"/>
      </defs>
      <g transform="translate(113.380087 262.869024)rotate(-30)scale(0.1 -0.1)">
       <use xlink:href="#DejaVuSans-50"/>
       <use x="63.623047" xlink:href="#DejaVuSans-48"/>
       <use x="127.246094" xlink:href="#DejaVuSans-50"/>
       <use x="190.869141" xlink:href="#DejaVuSans-48"/>
       <use x="254.492188" xlink:href="#DejaVuSans-45"/>
       <use x="290.576172" xlink:href="#DejaVuSans-49"/>
       <use x="354.199219" xlink:href="#DejaVuSans-50"/>
       <use x="417.822266" xlink:href="#DejaVuSans-45"/>
       <use x="453.90625" xlink:href="#DejaVuSans-49"/>
       <use x="517.529297" xlink:href="#DejaVuSans-53"/>
      </g>
     </g>
    </g>
    <g id="xtick_5">
     <g id="line2d_5">
      <g>
       <use style="stroke:#000000;stroke-width:0.8;" x="176.254654" xlink:href="#mb999b39f62" y="220.230771"/>
      </g>
     </g>
     <g id="text_5">
      <!-- 2020-12-22 -->
      <g transform="translate(152.469537 262.869024)rotate(-30)scale(0.1 -0.1)">
       <use xlink:href="#DejaVuSans-50"/>
       <use x="63.623047" xlink:href="#DejaVuSans-48"/>
       <use x="127.246094" xlink:href="#DejaVuSans-50"/>
       <use x="190.869141" xlink:href="#DejaVuSans-48"/>
       <use x="254.492188" xlink:href="#DejaVuSans-45"/>
       <use x="290.576172" xlink:href="#DejaVuSans-49"/>
       <use x="354.199219" xlink:href="#DejaVuSans-50"/>
       <use x="417.822266" xlink:href="#DejaVuSans-45"/>
       <use x="453.90625" xlink:href="#DejaVuSans-50"/>
       <use x="517.529297" xlink:href="#DejaVuSans-50"/>
      </g>
     </g>
    </g>
    <g id="xtick_6">
     <g id="line2d_6">
      <g>
       <use style="stroke:#000000;stroke-width:0.8;" x="215.344104" xlink:href="#mb999b39f62" y="220.230771"/>
      </g>
     </g>
     <g id="text_6">
      <!-- 2020-12-29 -->
      <g transform="translate(191.558988 262.869024)rotate(-30)scale(0.1 -0.1)">
       <use xlink:href="#DejaVuSans-50"/>
       <use x="63.623047" xlink:href="#DejaVuSans-48"/>
       <use x="127.246094" xlink:href="#DejaVuSans-50"/>
       <use x="190.869141" xlink:href="#DejaVuSans-48"/>
       <use x="254.492188" xlink:href="#DejaVuSans-45"/>
       <use x="290.576172" xlink:href="#DejaVuSans-49"/>
       <use x="354.199219" xlink:href="#DejaVuSans-50"/>
       <use x="417.822266" xlink:href="#DejaVuSans-45"/>
       <use x="453.90625" xlink:href="#DejaVuSans-50"/>
       <use x="517.529297" xlink:href="#DejaVuSans-57"/>
      </g>
     </g>
    </g>
    <g id="xtick_7">
     <g id="line2d_7">
      <g>
       <use style="stroke:#000000;stroke-width:0.8;" x="232.096726" xlink:href="#mb999b39f62" y="220.230771"/>
      </g>
     </g>
     <g id="text_7">
      <!-- 2021-01-01 -->
      <g transform="translate(208.31161 262.869024)rotate(-30)scale(0.1 -0.1)">
       <use xlink:href="#DejaVuSans-50"/>
       <use x="63.623047" xlink:href="#DejaVuSans-48"/>
       <use x="127.246094" xlink:href="#DejaVuSans-50"/>
       <use x="190.869141" xlink:href="#DejaVuSans-49"/>
       <use x="254.492188" xlink:href="#DejaVuSans-45"/>
       <use x="290.576172" xlink:href="#DejaVuSans-48"/>
       <use x="354.199219" xlink:href="#DejaVuSans-49"/>
       <use x="417.822266" xlink:href="#DejaVuSans-45"/>
       <use x="453.90625" xlink:href="#DejaVuSans-48"/>
       <use x="517.529297" xlink:href="#DejaVuSans-49"/>
      </g>
     </g>
    </g>
    <g id="xtick_8">
     <g id="line2d_8">
      <g>
       <use style="stroke:#000000;stroke-width:0.8;" x="271.186177" xlink:href="#mb999b39f62" y="220.230771"/>
      </g>
     </g>
     <g id="text_8">
      <!-- 2021-01-08 -->
      <g transform="translate(247.40106 262.869024)rotate(-30)scale(0.1 -0.1)">
       <use xlink:href="#DejaVuSans-50"/>
       <use x="63.623047" xlink:href="#DejaVuSans-48"/>
       <use x="127.246094" xlink:href="#DejaVuSans-50"/>
       <use x="190.869141" xlink:href="#DejaVuSans-49"/>
       <use x="254.492188" xlink:href="#DejaVuSans-45"/>
       <use x="290.576172" xlink:href="#DejaVuSans-48"/>
       <use x="354.199219" xlink:href="#DejaVuSans-49"/>
       <use x="417.822266" xlink:href="#DejaVuSans-45"/>
       <use x="453.90625" xlink:href="#DejaVuSans-48"/>
       <use x="517.529297" xlink:href="#DejaVuSans-56"/>
      </g>
     </g>
    </g>
    <g id="xtick_9">
     <g id="line2d_9">
      <g>
       <use style="stroke:#000000;stroke-width:0.8;" x="310.275627" xlink:href="#mb999b39f62" y="220.230771"/>
      </g>
     </g>
     <g id="text_9">
      <!-- 2021-01-15 -->
      <g transform="translate(286.490511 262.869024)rotate(-30)scale(0.1 -0.1)">
       <use xlink:href="#DejaVuSans-50"/>
       <use x="63.623047" xlink:href="#DejaVuSans-48"/>
       <use x="127.246094" xlink:href="#DejaVuSans-50"/>
       <use x="190.869141" xlink:href="#DejaVuSans-49"/>
       <use x="254.492188" xlink:href="#DejaVuSans-45"/>
       <use x="290.576172" xlink:href="#DejaVuSans-48"/>
       <use x="354.199219" xlink:href="#DejaVuSans-49"/>
       <use x="417.822266" xlink:href="#DejaVuSans-45"/>
       <use x="453.90625" xlink:href="#DejaVuSans-49"/>
       <use x="517.529297" xlink:href="#DejaVuSans-53"/>
      </g>
     </g>
    </g>
    <g id="text_10">
     <!-- Date -->
     <defs>
      <path d="M 19.671875 64.796875 
L 19.671875 8.109375 
L 31.59375 8.109375 
Q 46.6875 8.109375 53.6875 14.9375 
Q 60.6875 21.78125 60.6875 36.53125 
Q 60.6875 51.171875 53.6875 57.984375 
Q 46.6875 64.796875 31.59375 64.796875 
z
M 9.8125 72.90625 
L 30.078125 72.90625 
Q 51.265625 72.90625 61.171875 64.09375 
Q 71.09375 55.28125 71.09375 36.53125 
Q 71.09375 17.671875 61.125 8.828125 
Q 51.171875 0 30.078125 0 
L 9.8125 0 
z
" id="DejaVuSans-68"/>
      <path d="M 34.28125 27.484375 
Q 23.390625 27.484375 19.1875 25 
Q 14.984375 22.515625 14.984375 16.5 
Q 14.984375 11.71875 18.140625 8.90625 
Q 21.296875 6.109375 26.703125 6.109375 
Q 34.1875 6.109375 38.703125 11.40625 
Q 43.21875 16.703125 43.21875 25.484375 
L 43.21875 27.484375 
z
M 52.203125 31.203125 
L 52.203125 0 
L 43.21875 0 
L 43.21875 8.296875 
Q 40.140625 3.328125 35.546875 0.953125 
Q 30.953125 -1.421875 24.3125 -1.421875 
Q 15.921875 -1.421875 10.953125 3.296875 
Q 6 8.015625 6 15.921875 
Q 6 25.140625 12.171875 29.828125 
Q 18.359375 34.515625 30.609375 34.515625 
L 43.21875 34.515625 
L 43.21875 35.40625 
Q 43.21875 41.609375 39.140625 45 
Q 35.0625 48.390625 27.6875 48.390625 
Q 23 48.390625 18.546875 47.265625 
Q 14.109375 46.140625 10.015625 43.890625 
L 10.015625 52.203125 
Q 14.9375 54.109375 19.578125 55.046875 
Q 24.21875 56 28.609375 56 
Q 40.484375 56 46.34375 49.84375 
Q 52.203125 43.703125 52.203125 31.203125 
z
" id="DejaVuSans-97"/>
      <path d="M 18.3125 70.21875 
L 18.3125 54.6875 
L 36.8125 54.6875 
L 36.8125 47.703125 
L 18.3125 47.703125 
L 18.3125 18.015625 
Q 18.3125 11.328125 20.140625 9.421875 
Q 21.96875 7.515625 27.59375 7.515625 
L 36.8125 7.515625 
L 36.8125 0 
L 27.59375 0 
Q 17.1875 0 13.234375 3.875 
Q 9.28125 7.765625 9.28125 18.015625 
L 9.28125 47.703125 
L 2.6875 47.703125 
L 2.6875 54.6875 
L 9.28125 54.6875 
L 9.28125 70.21875 
z
" id="DejaVuSans-116"/>
      <path d="M 56.203125 29.59375 
L 56.203125 25.203125 
L 14.890625 25.203125 
Q 15.484375 15.921875 20.484375 11.0625 
Q 25.484375 6.203125 34.421875 6.203125 
Q 39.59375 6.203125 44.453125 7.46875 
Q 49.3125 8.734375 54.109375 11.28125 
L 54.109375 2.78125 
Q 49.265625 0.734375 44.1875 -0.34375 
Q 39.109375 -1.421875 33.890625 -1.421875 
Q 20.796875 -1.421875 13.15625 6.1875 
Q 5.515625 13.8125 5.515625 26.8125 
Q 5.515625 40.234375 12.765625 48.109375 
Q 20.015625 56 32.328125 56 
Q 43.359375 56 49.78125 48.890625 
Q 56.203125 41.796875 56.203125 29.59375 
z
M 47.21875 32.234375 
Q 47.125 39.59375 43.09375 43.984375 
Q 39.0625 48.390625 32.421875 48.390625 
Q 24.90625 48.390625 20.390625 44.140625 
Q 15.875 39.890625 15.1875 32.171875 
z
" id="DejaVuSans-101"/>
     </defs>
     <g transform="translate(167.504219 276.268523)scale(0.1 -0.1)">
      <use xlink:href="#DejaVuSans-68"/>
      <use x="77.001953" xlink:href="#DejaVuSans-97"/>
      <use x="138.28125" xlink:href="#DejaVuSans-116"/>
      <use x="177.490234" xlink:href="#DejaVuSans-101"/>
     </g>
    </g>
   </g>
   <g id="matplotlib.axis_2">
    <g id="ytick_1">
     <g id="line2d_10">
      <defs>
       <path d="M 0 0 
L -3.5 0 
" id="m38704c3dbc" style="stroke:#000000;stroke-width:0.8;"/>
      </defs>
      <g>
       <use style="stroke:#000000;stroke-width:0.8;" x="43.55" xlink:href="#m38704c3dbc" y="210.806645"/>
      </g>
     </g>
     <g id="text_11">
      <!-- 0 -->
      <g transform="translate(30.1875 214.605864)scale(0.1 -0.1)">
       <use xlink:href="#DejaVuSans-48"/>
      </g>
     </g>
    </g>
    <g id="ytick_2">
     <g id="line2d_11">
      <g>
       <use style="stroke:#000000;stroke-width:0.8;" x="43.55" xlink:href="#m38704c3dbc" y="187.24633"/>
      </g>
     </g>
     <g id="text_12">
      <!-- 5 -->
      <g transform="translate(30.1875 191.045549)scale(0.1 -0.1)">
       <use xlink:href="#DejaVuSans-53"/>
      </g>
     </g>
    </g>
    <g id="ytick_3">
     <g id="line2d_12">
      <g>
       <use style="stroke:#000000;stroke-width:0.8;" x="43.55" xlink:href="#m38704c3dbc" y="163.686016"/>
      </g>
     </g>
     <g id="text_13">
      <!-- 10 -->
      <g transform="translate(23.825 167.485234)scale(0.1 -0.1)">
       <use xlink:href="#DejaVuSans-49"/>
       <use x="63.623047" xlink:href="#DejaVuSans-48"/>
      </g>
     </g>
    </g>
    <g id="ytick_4">
     <g id="line2d_13">
      <g>
       <use style="stroke:#000000;stroke-width:0.8;" x="43.55" xlink:href="#m38704c3dbc" y="140.125701"/>
      </g>
     </g>
     <g id="text_14">
      <!-- 15 -->
      <g transform="translate(23.825 143.924919)scale(0.1 -0.1)">
       <use xlink:href="#DejaVuSans-49"/>
       <use x="63.623047" xlink:href="#DejaVuSans-53"/>
      </g>
     </g>
    </g>
    <g id="ytick_5">
     <g id="line2d_14">
      <g>
       <use style="stroke:#000000;stroke-width:0.8;" x="43.55" xlink:href="#m38704c3dbc" y="116.565386"/>
      </g>
     </g>
     <g id="text_15">
      <!-- 20 -->
      <g transform="translate(23.825 120.364604)scale(0.1 -0.1)">
       <use xlink:href="#DejaVuSans-50"/>
       <use x="63.623047" xlink:href="#DejaVuSans-48"/>
      </g>
     </g>
    </g>
    <g id="ytick_6">
     <g id="line2d_15">
      <g>
       <use style="stroke:#000000;stroke-width:0.8;" x="43.55" xlink:href="#m38704c3dbc" y="93.005071"/>
      </g>
     </g>
     <g id="text_16">
      <!-- 25 -->
      <g transform="translate(23.825 96.80429)scale(0.1 -0.1)">
       <use xlink:href="#DejaVuSans-50"/>
       <use x="63.623047" xlink:href="#DejaVuSans-53"/>
      </g>
     </g>
    </g>
    <g id="ytick_7">
     <g id="line2d_16">
      <g>
       <use style="stroke:#000000;stroke-width:0.8;" x="43.55" xlink:href="#m38704c3dbc" y="69.444756"/>
      </g>
     </g>
     <g id="text_17">
      <!-- 30 -->
      <defs>
       <path d="M 40.578125 39.3125 
Q 47.65625 37.796875 51.625 33 
Q 55.609375 28.21875 55.609375 21.1875 
Q 55.609375 10.40625 48.1875 4.484375 
Q 40.765625 -1.421875 27.09375 -1.421875 
Q 22.515625 -1.421875 17.65625 -0.515625 
Q 12.796875 0.390625 7.625 2.203125 
L 7.625 11.71875 
Q 11.71875 9.328125 16.59375 8.109375 
Q 21.484375 6.890625 26.8125 6.890625 
Q 36.078125 6.890625 40.9375 10.546875 
Q 45.796875 14.203125 45.796875 21.1875 
Q 45.796875 27.640625 41.28125 31.265625 
Q 36.765625 34.90625 28.71875 34.90625 
L 20.21875 34.90625 
L 20.21875 43.015625 
L 29.109375 43.015625 
Q 36.375 43.015625 40.234375 45.921875 
Q 44.09375 48.828125 44.09375 54.296875 
Q 44.09375 59.90625 40.109375 62.90625 
Q 36.140625 65.921875 28.71875 65.921875 
Q 24.65625 65.921875 20.015625 65.03125 
Q 15.375 64.15625 9.8125 62.3125 
L 9.8125 71.09375 
Q 15.4375 72.65625 20.34375 73.4375 
Q 25.25 74.21875 29.59375 74.21875 
Q 40.828125 74.21875 47.359375 69.109375 
Q 53.90625 64.015625 53.90625 55.328125 
Q 53.90625 49.265625 50.4375 45.09375 
Q 46.96875 40.921875 40.578125 39.3125 
z
" id="DejaVuSans-51"/>
      </defs>
      <g transform="translate(23.825 73.243975)scale(0.1 -0.1)">
       <use xlink:href="#DejaVuSans-51"/>
       <use x="63.623047" xlink:href="#DejaVuSans-48"/>
      </g>
     </g>
    </g>
    <g id="ytick_8">
     <g id="line2d_17">
      <g>
       <use style="stroke:#000000;stroke-width:0.8;" x="43.55" xlink:href="#m38704c3dbc" y="45.884441"/>
      </g>
     </g>
     <g id="text_18">
      <!-- 35 -->
      <g transform="translate(23.825 49.68366)scale(0.1 -0.1)">
       <use xlink:href="#DejaVuSans-51"/>
       <use x="63.623047" xlink:href="#DejaVuSans-53"/>
      </g>
     </g>
    </g>
    <g id="ytick_9">
     <g id="line2d_18">
      <g>
       <use style="stroke:#000000;stroke-width:0.8;" x="43.55" xlink:href="#m38704c3dbc" y="22.324126"/>
      </g>
     </g>
     <g id="text_19">
      <!-- 40 -->
      <defs>
       <path d="M 37.796875 64.3125 
L 12.890625 25.390625 
L 37.796875 25.390625 
z
M 35.203125 72.90625 
L 47.609375 72.90625 
L 47.609375 25.390625 
L 58.015625 25.390625 
L 58.015625 17.1875 
L 47.609375 17.1875 
L 47.609375 0 
L 37.796875 0 
L 37.796875 17.1875 
L 4.890625 17.1875 
L 4.890625 26.703125 
z
" id="DejaVuSans-52"/>
      </defs>
      <g transform="translate(23.825 26.123345)scale(0.1 -0.1)">
       <use xlink:href="#DejaVuSans-52"/>
       <use x="63.623047" xlink:href="#DejaVuSans-48"/>
      </g>
     </g>
    </g>
    <g id="text_20">
     <!-- Students Registered -->
     <defs>
      <path d="M 53.515625 70.515625 
L 53.515625 60.890625 
Q 47.90625 63.578125 42.921875 64.890625 
Q 37.9375 66.21875 33.296875 66.21875 
Q 25.25 66.21875 20.875 63.09375 
Q 16.5 59.96875 16.5 54.203125 
Q 16.5 49.359375 19.40625 46.890625 
Q 22.3125 44.4375 30.421875 42.921875 
L 36.375 41.703125 
Q 47.40625 39.59375 52.65625 34.296875 
Q 57.90625 29 57.90625 20.125 
Q 57.90625 9.515625 50.796875 4.046875 
Q 43.703125 -1.421875 29.984375 -1.421875 
Q 24.8125 -1.421875 18.96875 -0.25 
Q 13.140625 0.921875 6.890625 3.21875 
L 6.890625 13.375 
Q 12.890625 10.015625 18.65625 8.296875 
Q 24.421875 6.59375 29.984375 6.59375 
Q 38.421875 6.59375 43.015625 9.90625 
Q 47.609375 13.234375 47.609375 19.390625 
Q 47.609375 24.75 44.3125 27.78125 
Q 41.015625 30.8125 33.5 32.328125 
L 27.484375 33.5 
Q 16.453125 35.6875 11.515625 40.375 
Q 6.59375 45.0625 6.59375 53.421875 
Q 6.59375 63.09375 13.40625 68.65625 
Q 20.21875 74.21875 32.171875 74.21875 
Q 37.3125 74.21875 42.625 73.28125 
Q 47.953125 72.359375 53.515625 70.515625 
z
" id="DejaVuSans-83"/>
      <path d="M 8.5 21.578125 
L 8.5 54.6875 
L 17.484375 54.6875 
L 17.484375 21.921875 
Q 17.484375 14.15625 20.5 10.265625 
Q 23.53125 6.390625 29.59375 6.390625 
Q 36.859375 6.390625 41.078125 11.03125 
Q 45.3125 15.671875 45.3125 23.6875 
L 45.3125 54.6875 
L 54.296875 54.6875 
L 54.296875 0 
L 45.3125 0 
L 45.3125 8.40625 
Q 42.046875 3.421875 37.71875 1 
Q 33.40625 -1.421875 27.6875 -1.421875 
Q 18.265625 -1.421875 13.375 4.4375 
Q 8.5 10.296875 8.5 21.578125 
z
M 31.109375 56 
z
" id="DejaVuSans-117"/>
      <path d="M 45.40625 46.390625 
L 45.40625 75.984375 
L 54.390625 75.984375 
L 54.390625 0 
L 45.40625 0 
L 45.40625 8.203125 
Q 42.578125 3.328125 38.25 0.953125 
Q 33.9375 -1.421875 27.875 -1.421875 
Q 17.96875 -1.421875 11.734375 6.484375 
Q 5.515625 14.40625 5.515625 27.296875 
Q 5.515625 40.1875 11.734375 48.09375 
Q 17.96875 56 27.875 56 
Q 33.9375 56 38.25 53.625 
Q 42.578125 51.265625 45.40625 46.390625 
z
M 14.796875 27.296875 
Q 14.796875 17.390625 18.875 11.75 
Q 22.953125 6.109375 30.078125 6.109375 
Q 37.203125 6.109375 41.296875 11.75 
Q 45.40625 17.390625 45.40625 27.296875 
Q 45.40625 37.203125 41.296875 42.84375 
Q 37.203125 48.484375 30.078125 48.484375 
Q 22.953125 48.484375 18.875 42.84375 
Q 14.796875 37.203125 14.796875 27.296875 
z
" id="DejaVuSans-100"/>
      <path d="M 54.890625 33.015625 
L 54.890625 0 
L 45.90625 0 
L 45.90625 32.71875 
Q 45.90625 40.484375 42.875 44.328125 
Q 39.84375 48.1875 33.796875 48.1875 
Q 26.515625 48.1875 22.3125 43.546875 
Q 18.109375 38.921875 18.109375 30.90625 
L 18.109375 0 
L 9.078125 0 
L 9.078125 54.6875 
L 18.109375 54.6875 
L 18.109375 46.1875 
Q 21.34375 51.125 25.703125 53.5625 
Q 30.078125 56 35.796875 56 
Q 45.21875 56 50.046875 50.171875 
Q 54.890625 44.34375 54.890625 33.015625 
z
" id="DejaVuSans-110"/>
      <path d="M 44.28125 53.078125 
L 44.28125 44.578125 
Q 40.484375 46.53125 36.375 47.5 
Q 32.28125 48.484375 27.875 48.484375 
Q 21.1875 48.484375 17.84375 46.4375 
Q 14.5 44.390625 14.5 40.28125 
Q 14.5 37.15625 16.890625 35.375 
Q 19.28125 33.59375 26.515625 31.984375 
L 29.59375 31.296875 
Q 39.15625 29.25 43.1875 25.515625 
Q 47.21875 21.78125 47.21875 15.09375 
Q 47.21875 7.46875 41.1875 3.015625 
Q 35.15625 -1.421875 24.609375 -1.421875 
Q 20.21875 -1.421875 15.453125 -0.5625 
Q 10.6875 0.296875 5.421875 2 
L 5.421875 11.28125 
Q 10.40625 8.6875 15.234375 7.390625 
Q 20.0625 6.109375 24.8125 6.109375 
Q 31.15625 6.109375 34.5625 8.28125 
Q 37.984375 10.453125 37.984375 14.40625 
Q 37.984375 18.0625 35.515625 20.015625 
Q 33.0625 21.96875 24.703125 23.78125 
L 21.578125 24.515625 
Q 13.234375 26.265625 9.515625 29.90625 
Q 5.8125 33.546875 5.8125 39.890625 
Q 5.8125 47.609375 11.28125 51.796875 
Q 16.75 56 26.8125 56 
Q 31.78125 56 36.171875 55.265625 
Q 40.578125 54.546875 44.28125 53.078125 
z
" id="DejaVuSans-115"/>
      <path id="DejaVuSans-32"/>
      <path d="M 44.390625 34.1875 
Q 47.5625 33.109375 50.5625 29.59375 
Q 53.5625 26.078125 56.59375 19.921875 
L 66.609375 0 
L 56 0 
L 46.6875 18.703125 
Q 43.0625 26.03125 39.671875 28.421875 
Q 36.28125 30.8125 30.421875 30.8125 
L 19.671875 30.8125 
L 19.671875 0 
L 9.8125 0 
L 9.8125 72.90625 
L 32.078125 72.90625 
Q 44.578125 72.90625 50.734375 67.671875 
Q 56.890625 62.453125 56.890625 51.90625 
Q 56.890625 45.015625 53.6875 40.46875 
Q 50.484375 35.9375 44.390625 34.1875 
z
M 19.671875 64.796875 
L 19.671875 38.921875 
L 32.078125 38.921875 
Q 39.203125 38.921875 42.84375 42.21875 
Q 46.484375 45.515625 46.484375 51.90625 
Q 46.484375 58.296875 42.84375 61.546875 
Q 39.203125 64.796875 32.078125 64.796875 
z
" id="DejaVuSans-82"/>
      <path d="M 45.40625 27.984375 
Q 45.40625 37.75 41.375 43.109375 
Q 37.359375 48.484375 30.078125 48.484375 
Q 22.859375 48.484375 18.828125 43.109375 
Q 14.796875 37.75 14.796875 27.984375 
Q 14.796875 18.265625 18.828125 12.890625 
Q 22.859375 7.515625 30.078125 7.515625 
Q 37.359375 7.515625 41.375 12.890625 
Q 45.40625 18.265625 45.40625 27.984375 
z
M 54.390625 6.78125 
Q 54.390625 -7.171875 48.1875 -13.984375 
Q 42 -20.796875 29.203125 -20.796875 
Q 24.46875 -20.796875 20.265625 -20.09375 
Q 16.0625 -19.390625 12.109375 -17.921875 
L 12.109375 -9.1875 
Q 16.0625 -11.328125 19.921875 -12.34375 
Q 23.78125 -13.375 27.78125 -13.375 
Q 36.625 -13.375 41.015625 -8.765625 
Q 45.40625 -4.15625 45.40625 5.171875 
L 45.40625 9.625 
Q 42.625 4.78125 38.28125 2.390625 
Q 33.9375 0 27.875 0 
Q 17.828125 0 11.671875 7.65625 
Q 5.515625 15.328125 5.515625 27.984375 
Q 5.515625 40.671875 11.671875 48.328125 
Q 17.828125 56 27.875 56 
Q 33.9375 56 38.28125 53.609375 
Q 42.625 51.21875 45.40625 46.390625 
L 45.40625 54.6875 
L 54.390625 54.6875 
z
" id="DejaVuSans-103"/>
      <path d="M 9.421875 54.6875 
L 18.40625 54.6875 
L 18.40625 0 
L 9.421875 0 
z
M 9.421875 75.984375 
L 18.40625 75.984375 
L 18.40625 64.59375 
L 9.421875 64.59375 
z
" id="DejaVuSans-105"/>
      <path d="M 41.109375 46.296875 
Q 39.59375 47.171875 37.8125 47.578125 
Q 36.03125 48 33.890625 48 
Q 26.265625 48 22.1875 43.046875 
Q 18.109375 38.09375 18.109375 28.8125 
L 18.109375 0 
L 9.078125 0 
L 9.078125 54.6875 
L 18.109375 54.6875 
L 18.109375 46.1875 
Q 20.953125 51.171875 25.484375 53.578125 
Q 30.03125 56 36.53125 56 
Q 37.453125 56 38.578125 55.875 
Q 39.703125 55.765625 41.0625 55.515625 
z
" id="DejaVuSans-114"/>
     </defs>
     <g transform="translate(17.745313 167.498979)rotate(-90)scale(0.1 -0.1)">
      <use xlink:href="#DejaVuSans-83"/>
      <use x="63.476562" xlink:href="#DejaVuSans-116"/>
      <use x="102.685547" xlink:href="#DejaVuSans-117"/>
      <use x="166.064453" xlink:href="#DejaVuSans-100"/>
      <use x="229.541016" xlink:href="#DejaVuSans-101"/>
      <use x="291.064453" xlink:href="#DejaVuSans-110"/>
      <use x="354.443359" xlink:href="#DejaVuSans-116"/>
      <use x="393.652344" xlink:href="#DejaVuSans-115"/>
      <use x="445.751953" xlink:href="#DejaVuSans-32"/>
      <use x="477.539062" xlink:href="#DejaVuSans-82"/>
      <use x="546.958984" xlink:href="#DejaVuSans-101"/>
      <use x="608.482422" xlink:href="#DejaVuSans-103"/>
      <use x="671.958984" xlink:href="#DejaVuSans-105"/>
      <use x="699.742188" xlink:href="#DejaVuSans-115"/>
      <use x="751.841797" xlink:href="#DejaVuSans-116"/>
      <use x="791.050781" xlink:href="#DejaVuSans-101"/>
      <use x="852.574219" xlink:href="#DejaVuSans-114"/>
      <use x="893.65625" xlink:href="#DejaVuSans-101"/>
      <use x="955.179688" xlink:href="#DejaVuSans-100"/>
     </g>
    </g>
   </g>
   <g id="line2d_19">
    <path clip-path="url(#peeb8e76f8f)" d="M 55.905 210.806645 
L 56.150152 210.806645 
L 56.150152 201.382519 
L 56.260606 201.382519 
L 57.241702 201.382519 
L 57.241702 196.670456 
L 57.350244 196.670456 
L 62.59321 196.670456 
L 62.59321 191.958393 
L 62.65142 191.958393 
L 67.014077 191.958393 
L 67.014077 177.822204 
L 67.072248 177.822204 
L 67.24673 177.822204 
L 67.24673 173.110142 
L 67.304933 173.110142 
L 67.479404 173.110142 
L 67.479404 154.26189 
L 67.537549 154.26189 
L 67.712078 154.26189 
L 67.712078 149.549827 
L 67.770264 149.549827 
L 67.944756 149.549827 
L 67.944756 140.125701 
L 68.002913 140.125701 
L 68.177466 140.125701 
L 68.177466 125.989512 
L 68.235619 125.989512 
L 72.365597 125.989512 
L 72.365597 121.277449 
L 72.423757 121.277449 
L 72.598245 121.277449 
L 72.598245 116.565386 
L 72.656413 116.565386 
L 73.296289 116.565386 
L 73.296289 111.853323 
L 73.35448 111.853323 
L 73.761645 111.853323 
L 73.761645 97.717134 
L 73.819845 97.717134 
L 73.994314 97.717134 
L 73.994314 93.005071 
L 74.052505 93.005071 
L 78.647811 93.005071 
L 78.647811 88.293008 
L 78.705989 88.293008 
L 78.880478 88.293008 
L 78.880478 83.580945 
L 78.93867 83.580945 
L 79.345862 83.580945 
L 79.345862 78.868882 
L 79.403997 78.868882 
L 80.043874 78.868882 
L 80.043874 74.156819 
L 80.102074 74.156819 
L 83.999387 74.156819 
L 83.999387 69.444756 
L 84.057528 69.444756 
L 94.935124 69.444756 
L 94.935124 45.884441 
L 94.993235 45.884441 
L 95.167777 45.884441 
L 95.167777 36.460315 
L 95.225915 36.460315 
L 95.400466 36.460315 
L 95.400466 31.748252 
L 95.458616 31.748252 
L 173.81201 31.748252 
L 173.81201 36.460315 
L 173.870187 36.460315 
L 174.044677 36.460315 
L 174.044677 31.748252 
L 174.102846 31.748252 
L 186.609142 31.748252 
L 186.609142 36.460315 
L 186.667351 36.460315 
L 186.841834 36.460315 
L 186.841834 31.748252 
L 186.900022 31.748252 
L 301.783464 31.748252 
L 301.783464 22.324126 
L 301.841598 22.324126 
L 303.005 22.324126 
L 303.005 22.324126 
" style="fill:none;stroke:#1b9e77;stroke-linecap:square;stroke-width:1.5;"/>
   </g>
   <g id="line2d_20">
    <path clip-path="url(#peeb8e76f8f)" d="M 104.474805 196.670456 
L 105.63813 196.670456 
L 105.63813 182.534267 
L 105.696308 182.534267 
L 105.870811 182.534267 
L 105.870811 177.822204 
L 105.928997 177.822204 
L 106.103481 177.822204 
L 106.103481 158.973953 
L 106.161651 158.973953 
L 106.568854 158.973953 
L 106.568854 144.837764 
L 106.627019 144.837764 
L 107.034195 144.837764 
L 107.034195 116.565386 
L 107.092386 116.565386 
L 107.499542 116.565386 
L 107.499542 107.14126 
L 107.557711 107.14126 
L 107.732248 107.14126 
L 107.732248 102.429197 
L 107.790415 102.429197 
L 107.964903 102.429197 
L 107.964903 97.717134 
L 108.023085 97.717134 
L 108.430292 97.717134 
L 108.430292 93.005071 
L 108.488461 93.005071 
L 111.687695 93.005071 
L 111.687695 74.156819 
L 111.74588 74.156819 
L 112.153061 74.156819 
L 112.153061 69.444756 
L 112.211259 69.444756 
L 112.618447 69.444756 
L 112.618447 60.02063 
L 112.676567 60.02063 
L 112.851123 60.02063 
L 112.851123 55.308567 
L 112.909241 55.308567 
L 113.31648 55.308567 
L 113.31648 50.596504 
L 113.374595 50.596504 
L 118.202642 50.596504 
L 118.202642 45.884441 
L 118.26077 45.884441 
L 118.435277 45.884441 
L 118.435277 41.172378 
L 118.493476 41.172378 
L 118.667965 41.172378 
L 118.667965 36.460315 
L 118.726152 36.460315 
L 119.366022 36.460315 
L 119.366022 31.748252 
L 119.424137 31.748252 
L 134.257206 31.748252 
L 134.257206 22.324126 
L 134.315416 22.324126 
L 162.876273 22.324126 
L 162.876273 27.036189 
L 162.934445 27.036189 
L 164.272324 27.036189 
L 164.272324 22.324126 
L 164.330529 22.324126 
L 184.515102 22.324126 
L 184.515102 27.036189 
L 184.573244 27.036189 
L 186.376495 27.036189 
L 186.376495 22.324126 
L 186.434639 22.324126 
L 303.005 22.324126 
L 303.005 22.324126 
" style="fill:none;stroke:#d95f02;stroke-linecap:square;stroke-width:1.5;"/>
   </g>
   <g id="line2d_21">
    <path clip-path="url(#peeb8e76f8f)" d="M 55.905 182.534267 
L 56.150152 182.534267 
L 56.150152 177.822204 
L 56.260606 177.822204 
L 57.354119 177.822204 
L 57.354119 173.110142 
L 61.076967 173.110142 
L 61.076967 168.398079 
L 61.429865 168.398079 
L 61.429865 163.686016 
L 61.487996 163.686016 
L 61.662527 163.686016 
L 61.662527 158.973953 
L 61.720724 158.973953 
L 62.360584 158.973953 
L 62.360584 144.837764 
L 62.418728 144.837764 
L 62.59321 144.837764 
L 62.59321 140.125701 
L 62.65142 140.125701 
L 67.24673 140.125701 
L 67.24673 130.701575 
L 67.304933 130.701575 
L 67.479404 130.701575 
L 67.479404 125.989512 
L 67.537549 125.989512 
L 67.712078 125.989512 
L 67.712078 130.701575 
L 67.770264 130.701575 
L 68.177466 130.701575 
L 68.177466 125.989512 
L 68.235619 125.989512 
L 68.410094 125.989512 
L 68.410094 116.565386 
L 68.468327 116.565386 
L 69.573499 116.565386 
L 69.573499 107.14126 
L 69.631648 107.14126 
L 72.132926 107.14126 
L 72.132926 102.429197 
L 72.191079 102.429197 
L 72.365597 102.429197 
L 72.365597 83.580945 
L 72.423757 83.580945 
L 72.598245 83.580945 
L 72.598245 74.156819 
L 72.656413 74.156819 
L 73.063621 74.156819 
L 73.063621 69.444756 
L 73.121795 69.444756 
L 73.296289 69.444756 
L 73.296289 64.732693 
L 73.35448 64.732693 
L 73.528971 64.732693 
L 73.528971 60.02063 
L 73.587146 60.02063 
L 73.761645 60.02063 
L 73.761645 45.884441 
L 73.819845 45.884441 
L 73.994314 45.884441 
L 73.994314 41.172378 
L 74.052505 41.172378 
L 74.227002 41.172378 
L 74.227002 36.460315 
L 74.285181 36.460315 
L 78.182451 36.460315 
L 78.182451 27.036189 
L 78.240621 27.036189 
L 78.415177 27.036189 
L 78.415177 22.324126 
L 78.473309 22.324126 
L 105.870811 22.324126 
L 105.870811 27.036189 
L 105.928997 27.036189 
L 106.103481 27.036189 
L 106.103481 22.324126 
L 106.161651 22.324126 
L 303.005 22.324126 
L 303.005 22.324126 
" style="fill:none;stroke:#7570b3;stroke-linecap:square;stroke-width:1.5;"/>
   </g>
   <g id="line2d_22">
    <path clip-path="url(#peeb8e76f8f)" d="M 55.905 201.382519 
L 62.127921 201.382519 
L 62.127921 196.670456 
L 62.186046 196.670456 
L 66.781412 196.670456 
L 66.781412 191.958393 
L 66.839585 191.958393 
L 67.014077 191.958393 
L 67.014077 187.24633 
L 67.072248 187.24633 
L 67.24673 187.24633 
L 67.24673 177.822204 
L 67.304933 177.822204 
L 67.479404 177.822204 
L 67.479404 173.110142 
L 67.537549 173.110142 
L 67.712078 173.110142 
L 67.712078 168.398079 
L 67.770264 168.398079 
L 67.944756 168.398079 
L 67.944756 163.686016 
L 68.002913 163.686016 
L 68.410094 163.686016 
L 68.410094 158.973953 
L 68.468327 158.973953 
L 72.365597 158.973953 
L 72.365597 149.549827 
L 72.423757 149.549827 
L 72.598245 149.549827 
L 72.598245 144.837764 
L 72.656413 144.837764 
L 73.528971 144.837764 
L 73.528971 140.125701 
L 73.587146 140.125701 
L 73.761645 140.125701 
L 73.761645 130.701575 
L 73.819845 130.701575 
L 94.935124 130.701575 
L 94.935124 125.989512 
L 94.993235 125.989512 
L 95.167777 125.989512 
L 95.167777 121.277449 
L 95.225915 121.277449 
L 95.400466 121.277449 
L 95.400466 116.565386 
L 95.458616 116.565386 
L 95.633116 116.565386 
L 95.633116 111.853323 
L 95.691281 111.853323 
L 95.865816 111.853323 
L 95.865816 102.429197 
L 95.92397 102.429197 
L 96.098494 102.429197 
L 96.098494 97.717134 
L 96.156654 97.717134 
L 100.286619 97.717134 
L 100.344792 83.580945 
L 100.344792 83.580945 
L 100.751981 83.580945 
L 100.751981 74.156819 
L 100.810142 74.156819 
L 101.450013 74.156819 
L 101.450013 69.444756 
L 101.508172 69.444756 
L 101.68269 69.444756 
L 101.68269 60.02063 
L 101.740862 60.02063 
L 101.915363 60.02063 
L 101.915363 36.460315 
L 101.973524 36.460315 
L 102.148003 36.460315 
L 102.148003 22.324126 
L 102.206227 22.324126 
L 105.63813 22.324126 
L 105.63813 27.036189 
L 105.696308 27.036189 
L 106.103481 27.036189 
L 106.103481 22.324126 
L 106.161651 22.324126 
L 162.410906 22.324126 
L 162.410906 27.036189 
L 162.469116 27.036189 
L 162.64363 27.036189 
L 162.64363 22.324126 
L 162.701808 22.324126 
L 172.881356 22.324126 
L 172.881356 27.036189 
L 172.939466 27.036189 
L 173.346643 27.036189 
L 173.346643 22.324126 
L 173.404812 22.324126 
L 173.81201 22.324126 
L 173.81201 27.036189 
L 173.870187 27.036189 
L 174.742761 27.036189 
L 174.742761 22.324126 
L 174.800895 22.324126 
L 303.005 22.324126 
L 303.005 22.324126 
" style="fill:none;stroke:#e7298a;stroke-linecap:square;stroke-width:1.5;"/>
   </g>
   <g id="line2d_23">
    <path clip-path="url(#peeb8e76f8f)" d="M 55.905 191.958393 
L 67.014077 191.958393 
L 67.014077 187.24633 
L 67.072248 187.24633 
L 68.177466 187.24633 
L 68.177466 182.534267 
L 68.235619 182.534267 
L 68.642801 182.534267 
L 68.642801 177.822204 
L 68.700947 177.822204 
L 73.063621 177.822204 
L 73.063621 173.110142 
L 73.121795 173.110142 
L 73.528971 173.110142 
L 73.528971 168.398079 
L 73.587146 168.398079 
L 78.182451 168.398079 
L 78.182451 163.686016 
L 78.240621 163.686016 
L 94.702416 163.686016 
L 94.702416 154.26189 
L 94.760618 154.26189 
L 94.935124 154.26189 
L 94.935124 144.837764 
L 94.993235 144.837764 
L 95.633116 144.837764 
L 95.633116 140.125701 
L 95.691281 140.125701 
L 96.56384 140.125701 
L 96.56384 135.413638 
L 96.621995 135.413638 
L 100.751981 135.413638 
L 100.751981 130.701575 
L 100.810142 130.701575 
L 101.217291 130.701575 
L 101.217291 121.277449 
L 101.275512 121.277449 
L 101.68269 121.277449 
L 101.68269 116.565386 
L 101.740862 116.565386 
L 103.078744 116.565386 
L 103.078744 111.853323 
L 103.136902 111.853323 
L 105.63813 111.853323 
L 105.63813 107.14126 
L 105.696308 107.14126 
L 106.103481 107.14126 
L 106.103481 102.429197 
L 106.161651 102.429197 
L 106.336154 102.429197 
L 106.336154 93.005071 
L 106.394328 93.005071 
L 106.801542 93.005071 
L 106.801542 88.293008 
L 106.859713 88.293008 
L 107.034195 88.293008 
L 107.092386 74.156819 
L 107.092386 74.156819 
L 107.2669 74.156819 
L 107.2669 64.732693 
L 107.325077 64.732693 
L 108.197565 64.732693 
L 108.197565 69.444756 
L 108.255725 69.444756 
L 111.687695 69.444756 
L 111.687695 60.02063 
L 111.74588 60.02063 
L 111.920427 60.02063 
L 111.920427 55.308567 
L 111.978537 55.308567 
L 112.385745 55.308567 
L 112.385745 50.596504 
L 112.443923 50.596504 
L 112.618447 50.596504 
L 112.618447 41.172378 
L 112.676567 41.172378 
L 112.851123 41.172378 
L 112.851123 36.460315 
L 112.909241 36.460315 
L 113.31648 36.460315 
L 113.31648 31.748252 
L 113.374595 31.748252 
L 303.005 31.748252 
L 303.005 31.748252 
" style="fill:none;stroke:#66a61e;stroke-linecap:square;stroke-width:1.5;"/>
   </g>
   <g id="line2d_24">
    <path clip-path="url(#peeb8e76f8f)" d="M 55.905 196.670456 
L 62.127921 196.670456 
L 62.127921 191.958393 
L 62.186046 191.958393 
L 66.781412 191.958393 
L 66.781412 187.24633 
L 66.839585 187.24633 
L 67.014077 187.24633 
L 67.014077 182.534267 
L 67.072248 182.534267 
L 67.479404 182.534267 
L 67.479404 177.822204 
L 67.537549 177.822204 
L 67.712078 177.822204 
L 67.712078 173.110142 
L 67.770264 173.110142 
L 67.944756 173.110142 
L 67.944756 163.686016 
L 68.002913 163.686016 
L 68.177466 163.686016 
L 68.177466 158.973953 
L 68.235619 158.973953 
L 68.410094 158.973953 
L 68.410094 154.26189 
L 68.468327 154.26189 
L 72.132926 154.26189 
L 72.132926 149.549827 
L 72.191079 149.549827 
L 72.365597 149.549827 
L 72.365597 140.125701 
L 72.423757 140.125701 
L 72.830909 140.125701 
L 72.830909 135.413638 
L 72.889083 135.413638 
L 73.063621 135.413638 
L 73.063621 125.989512 
L 73.121795 125.989512 
L 73.528971 125.989512 
L 73.528971 121.277449 
L 73.587146 121.277449 
L 73.994314 121.277449 
L 73.994314 116.565386 
L 74.052505 116.565386 
L 74.227002 116.565386 
L 74.227002 111.853323 
L 74.285181 111.853323 
L 78.415177 111.853323 
L 78.415177 107.14126 
L 78.473309 107.14126 
L 79.345862 107.14126 
L 79.345862 102.429197 
L 79.403997 102.429197 
L 85.395382 102.429197 
L 85.395382 97.717134 
L 85.453557 97.717134 
L 94.702416 97.717134 
L 94.702416 93.005071 
L 94.760618 93.005071 
L 95.400466 93.005071 
L 95.400466 78.868882 
L 95.458616 78.868882 
L 95.633116 78.868882 
L 95.633116 69.444756 
L 95.691281 69.444756 
L 95.865816 69.444756 
L 95.865816 60.02063 
L 95.92397 60.02063 
L 96.56384 60.02063 
L 96.56384 55.308567 
L 96.621995 55.308567 
L 99.821279 55.308567 
L 99.821279 50.596504 
L 99.879445 50.596504 
L 100.51929 50.596504 
L 100.51929 45.884441 
L 100.577447 45.884441 
L 100.751981 45.884441 
L 100.751981 41.172378 
L 100.810142 41.172378 
L 100.984641 41.172378 
L 100.984641 36.460315 
L 101.042816 36.460315 
L 101.68269 36.460315 
L 101.68269 31.748252 
L 101.740862 31.748252 
L 303.005 31.748252 
L 303.005 31.748252 
" style="fill:none;stroke:#e6ab02;stroke-linecap:square;stroke-width:1.5;"/>
   </g>
   <g id="line2d_25">
    <path clip-path="url(#peeb8e76f8f)" d="M 55.905 201.382519 
L 62.59321 201.382519 
L 62.59321 196.670456 
L 62.65142 196.670456 
L 67.014077 196.670456 
L 67.014077 191.958393 
L 67.072248 191.958393 
L 67.944756 191.958393 
L 67.944756 187.24633 
L 68.002913 187.24633 
L 72.830909 187.24633 
L 72.830909 177.822204 
L 72.889083 177.822204 
L 73.296289 177.822204 
L 73.296289 173.110142 
L 73.35448 173.110142 
L 73.761645 173.110142 
L 73.761645 168.398079 
L 73.819845 168.398079 
L 73.994314 168.398079 
L 73.994314 163.686016 
L 74.052505 163.686016 
L 79.345862 163.686016 
L 79.345862 158.973953 
L 79.403997 158.973953 
L 84.69739 158.973953 
L 84.69739 154.26189 
L 84.755532 154.26189 
L 94.935124 154.26189 
L 94.935124 144.837764 
L 94.993235 144.837764 
L 95.400466 144.837764 
L 95.400466 140.125701 
L 95.458616 140.125701 
L 96.56384 140.125701 
L 96.56384 135.413638 
L 96.621995 135.413638 
L 100.286619 135.413638 
L 100.286619 130.701575 
L 100.344792 130.701575 
L 101.450013 130.701575 
L 101.450013 125.989512 
L 101.508172 125.989512 
L 101.68269 125.989512 
L 101.68269 121.277449 
L 101.740862 121.277449 
L 101.915363 121.277449 
L 101.973524 107.14126 
L 101.973524 107.14126 
L 105.870811 107.14126 
L 105.870811 102.429197 
L 105.928997 102.429197 
L 106.103481 102.429197 
L 106.103481 93.005071 
L 106.161651 93.005071 
L 106.336154 93.005071 
L 106.336154 88.293008 
L 106.394328 88.293008 
L 106.568854 88.293008 
L 106.627019 74.156819 
L 106.627019 74.156819 
L 107.034195 74.156819 
L 107.034195 60.02063 
L 107.092386 60.02063 
L 107.2669 60.02063 
L 107.2669 50.596504 
L 107.325077 50.596504 
L 107.499542 50.596504 
L 107.499542 31.748252 
L 107.557711 31.748252 
L 107.732248 31.748252 
L 107.732248 27.036189 
L 107.790415 27.036189 
L 108.895634 27.036189 
L 108.895634 22.324126 
L 108.953803 22.324126 
L 172.881356 22.324126 
L 172.881356 27.036189 
L 172.939466 27.036189 
L 173.114029 27.036189 
L 173.114029 22.324126 
L 173.172195 22.324126 
L 173.579354 22.324126 
L 173.579354 27.036189 
L 173.637546 27.036189 
L 174.277353 27.036189 
L 174.277353 31.748252 
L 174.33557 31.748252 
L 174.742761 31.748252 
L 174.742761 36.460315 
L 174.800895 36.460315 
L 181.024949 36.460315 
L 181.024949 41.172378 
L 181.083147 41.172378 
L 194.752817 41.172378 
L 194.752817 36.460315 
L 194.810993 36.460315 
L 220.579742 36.460315 
L 220.579742 41.172378 
L 220.637959 41.172378 
L 229.654103 41.172378 
L 229.654103 36.460315 
L 229.712243 36.460315 
L 258.040524 36.460315 
L 258.040524 31.748252 
L 258.098643 31.748252 
L 261.763268 31.748252 
L 261.763268 27.036189 
L 261.821466 27.036189 
L 268.278206 27.036189 
L 268.278206 22.324126 
L 301.783464 22.324126 
L 301.783464 31.748252 
L 301.841598 31.748252 
L 302.481433 31.748252 
L 302.481433 36.460315 
L 302.539666 36.460315 
L 303.005 36.460315 
L 303.005 36.460315 
" style="fill:none;stroke:#a6761d;stroke-linecap:square;stroke-width:1.5;"/>
   </g>
   <g id="line2d_26">
    <path clip-path="url(#peeb8e76f8f)" d="M 55.905 201.382519 
L 67.24673 201.382519 
L 67.24673 196.670456 
L 67.304933 196.670456 
L 67.944756 196.670456 
L 67.944756 191.958393 
L 68.002913 191.958393 
L 73.063621 191.958393 
L 73.063621 187.24633 
L 73.121795 187.24633 
L 73.528971 187.24633 
L 73.528971 191.958393 
L 73.587146 191.958393 
L 73.761645 191.958393 
L 73.761645 182.534267 
L 73.819845 182.534267 
L 94.935124 182.534267 
L 94.935124 177.822204 
L 94.993235 177.822204 
L 95.400466 177.822204 
L 95.400466 173.110142 
L 95.458616 173.110142 
L 95.865816 173.110142 
L 95.865816 168.398079 
L 95.92397 168.398079 
L 96.098494 168.398079 
L 96.098494 163.686016 
L 96.156654 163.686016 
L 97.261833 163.686016 
L 97.261833 158.973953 
L 97.319987 158.973953 
L 100.984641 158.973953 
L 100.984641 154.26189 
L 101.042816 154.26189 
L 101.68269 154.26189 
L 101.68269 149.549827 
L 101.740862 149.549827 
L 101.915363 149.549827 
L 101.915363 144.837764 
L 101.973524 144.837764 
L 105.870811 144.837764 
L 105.870811 135.413638 
L 105.928997 135.413638 
L 106.103481 135.413638 
L 106.103481 130.701575 
L 106.161651 130.701575 
L 106.336154 130.701575 
L 106.394328 116.565386 
L 106.394328 116.565386 
L 107.2669 116.565386 
L 107.2669 111.853323 
L 107.325077 111.853323 
L 107.499542 111.853323 
L 107.499542 107.14126 
L 107.557711 107.14126 
L 107.732248 107.14126 
L 107.732248 111.853323 
L 107.790415 111.853323 
L 107.964903 111.853323 
L 107.964903 107.14126 
L 108.023085 107.14126 
L 108.197565 107.14126 
L 108.197565 102.429197 
L 108.255725 102.429197 
L 110.989705 102.429197 
L 110.989705 107.14126 
L 111.04783 107.14126 
L 111.687695 107.14126 
L 111.687695 93.005071 
L 111.74588 93.005071 
L 112.153061 93.005071 
L 112.153061 88.293008 
L 112.211259 88.293008 
L 112.618447 88.293008 
L 112.618447 69.444756 
L 112.676567 69.444756 
L 112.851123 69.444756 
L 112.851123 64.732693 
L 112.909241 64.732693 
L 117.969936 64.732693 
L 117.969936 60.02063 
L 118.028128 60.02063 
L 136.816682 60.02063 
L 136.816682 55.308567 
L 136.874815 55.308567 
L 140.539476 55.308567 
L 140.539476 50.596504 
L 140.597633 50.596504 
L 140.772124 50.596504 
L 140.772124 55.308567 
L 140.830282 55.308567 
L 141.237477 55.308567 
L 141.237477 50.596504 
L 141.295627 50.596504 
L 146.821722 50.596504 
L 146.821722 45.884441 
L 146.879952 45.884441 
L 156.361352 45.884441 
L 156.361352 50.596504 
L 156.419528 50.596504 
L 162.876273 50.596504 
L 162.876273 45.884441 
L 162.934445 45.884441 
L 172.881356 45.884441 
L 172.881356 50.596504 
L 172.939466 50.596504 
L 173.346643 50.596504 
L 173.346643 55.308567 
L 173.404812 55.308567 
L 174.044677 55.308567 
L 174.044677 60.02063 
L 174.102846 60.02063 
L 180.559596 60.02063 
L 180.559596 64.732693 
L 180.617749 64.732693 
L 190.564619 64.732693 
L 190.564619 69.444756 
L 190.622838 69.444756 
L 213.832203 69.444756 
L 213.832203 74.156819 
L 213.890359 74.156819 
L 303.005 74.156819 
L 303.005 74.156819 
" style="fill:none;stroke:#666666;stroke-linecap:square;stroke-width:1.5;"/>
   </g>
   <g id="line2d_27">
    <path clip-path="url(#peeb8e76f8f)" d="M 55.905 206.094582 
L 67.24673 206.094582 
L 67.24673 201.382519 
L 67.304933 201.382519 
L 73.528971 201.382519 
L 73.528971 191.958393 
L 73.587146 191.958393 
L 94.702416 191.958393 
L 94.702416 187.24633 
L 94.760618 187.24633 
L 95.167777 187.24633 
L 95.167777 182.534267 
L 95.225915 182.534267 
L 95.865816 182.534267 
L 95.865816 177.822204 
L 95.92397 177.822204 
L 100.286619 177.822204 
L 100.286619 173.110142 
L 100.344792 173.110142 
L 100.51929 173.110142 
L 100.51929 163.686016 
L 100.577447 163.686016 
L 100.751981 163.686016 
L 100.751981 158.973953 
L 100.810142 158.973953 
L 101.217291 158.973953 
L 101.217291 154.26189 
L 101.275512 154.26189 
L 101.450013 154.26189 
L 101.450013 144.837764 
L 101.508172 144.837764 
L 101.68269 144.837764 
L 101.68269 135.413638 
L 101.740862 135.413638 
L 102.613408 135.413638 
L 102.613408 130.701575 
L 102.671572 130.701575 
L 103.078744 130.701575 
L 103.078744 125.989512 
L 103.136902 125.989512 
L 103.311377 125.989512 
L 103.311377 130.701575 
L 103.369606 130.701575 
L 105.405479 130.701575 
L 105.405479 135.413638 
L 105.463666 135.413638 
L 105.63813 135.413638 
L 105.63813 140.125701 
L 105.696308 140.125701 
L 105.870811 140.125701 
L 105.870811 135.413638 
L 105.928997 135.413638 
L 106.103481 135.413638 
L 106.103481 140.125701 
L 106.161651 140.125701 
L 106.336154 140.125701 
L 106.336154 135.413638 
L 106.394328 135.413638 
L 106.568854 135.413638 
L 106.568854 130.701575 
L 106.627019 130.701575 
L 107.034195 130.701575 
L 107.034195 135.413638 
L 107.092386 135.413638 
L 112.385745 135.413638 
L 112.385745 130.701575 
L 112.443923 130.701575 
L 112.851123 130.701575 
L 112.851123 125.989512 
L 112.909241 125.989512 
L 118.202642 125.989512 
L 118.202642 121.277449 
L 118.26077 121.277449 
L 119.83135 121.277449 
L 119.83135 116.565386 
L 119.889544 116.565386 
L 134.722575 116.565386 
L 134.722575 111.853323 
L 134.780711 111.853323 
L 134.955247 111.853323 
L 134.955247 107.14126 
L 135.013387 107.14126 
L 135.885925 107.14126 
L 135.885925 102.429197 
L 135.944164 102.429197 
L 146.821722 102.429197 
L 146.821722 97.717134 
L 146.879952 97.717134 
L 147.519687 97.717134 
L 147.519687 93.005071 
L 147.577912 93.005071 
L 159.153491 93.005071 
L 159.153491 88.293008 
L 159.211622 88.293008 
L 164.272324 88.293008 
L 164.272324 93.005071 
L 164.330529 93.005071 
L 173.346643 93.005071 
L 173.346643 97.717134 
L 173.404812 97.717134 
L 213.366841 97.717134 
L 213.366841 93.005071 
L 213.424991 93.005071 
L 252.688991 93.005071 
L 252.688991 88.293008 
L 252.747144 88.293008 
L 257.109806 88.293008 
L 257.109806 83.580945 
L 257.167937 83.580945 
L 273.164377 83.580945 
L 273.164377 78.868882 
L 273.222519 78.868882 
L 303.005 78.868882 
L 303.005 78.868882 
" style="fill:none;stroke:#1b9e77;stroke-dasharray:4.5,1.5;stroke-dashoffset:0;stroke-width:1.5;"/>
   </g>
   <g id="line2d_28">
    <path clip-path="url(#peeb8e76f8f)" d="M 55.905 196.670456 
L 61.076967 196.670456 
L 61.076967 191.958393 
L 67.944756 191.958393 
L 67.944756 187.24633 
L 68.002913 187.24633 
L 72.598245 187.24633 
L 72.598245 182.534267 
L 72.656413 182.534267 
L 73.063621 182.534267 
L 73.063621 177.822204 
L 73.121795 177.822204 
L 73.761645 177.822204 
L 73.761645 173.110142 
L 73.819845 173.110142 
L 73.994314 173.110142 
L 73.994314 168.398079 
L 74.052505 168.398079 
L 75.390376 168.398079 
L 75.390376 163.686016 
L 75.44855 163.686016 
L 95.400466 163.686016 
L 95.400466 154.26189 
L 95.458616 154.26189 
L 100.751981 154.26189 
L 100.751981 149.549827 
L 100.810142 149.549827 
L 101.915363 149.549827 
L 101.915363 144.837764 
L 101.973524 144.837764 
L 102.613408 144.837764 
L 102.613408 140.125701 
L 102.671572 140.125701 
L 106.103481 140.125701 
L 106.103481 135.413638 
L 106.161651 135.413638 
L 106.336154 135.413638 
L 106.336154 125.989512 
L 106.394328 125.989512 
L 107.034195 125.989512 
L 107.034195 116.565386 
L 107.092386 116.565386 
L 112.153061 116.565386 
L 112.153061 111.853323 
L 112.211259 111.853323 
L 112.851123 111.853323 
L 112.851123 107.14126 
L 112.909241 107.14126 
L 113.549102 107.14126 
L 113.549102 102.429197 
L 113.607279 102.429197 
L 119.366022 102.429197 
L 119.366022 97.717134 
L 119.424137 97.717134 
L 135.420608 97.717134 
L 135.420608 93.005071 
L 135.478753 93.005071 
L 140.772124 93.005071 
L 140.772124 88.293008 
L 140.830282 88.293008 
L 146.821722 88.293008 
L 146.821722 93.005071 
L 146.879952 93.005071 
L 173.579354 93.005071 
L 173.579354 88.293008 
L 173.637546 88.293008 
L 173.81201 88.293008 
L 173.81201 93.005071 
L 173.870187 93.005071 
L 179.628916 93.005071 
L 179.628916 88.293008 
L 179.687091 88.293008 
L 220.579742 88.293008 
L 220.579742 83.580945 
L 220.637959 83.580945 
L 257.807801 83.580945 
L 257.807801 78.868882 
L 257.866028 78.868882 
L 269.674266 78.868882 
L 269.674266 83.580945 
L 269.732401 83.580945 
L 303.005 83.580945 
L 303.005 83.580945 
" style="fill:none;stroke:#d95f02;stroke-dasharray:4.5,1.5;stroke-dashoffset:0;stroke-width:1.5;"/>
   </g>
   <g id="line2d_29">
    <path clip-path="url(#peeb8e76f8f)" d="M 55.905 206.094582 
L 66.781412 206.094582 
L 66.781412 201.382519 
L 66.839585 201.382519 
L 67.014077 201.382519 
L 67.014077 196.670456 
L 67.072248 196.670456 
L 67.944756 196.670456 
L 67.944756 187.24633 
L 68.002913 187.24633 
L 72.365597 187.24633 
L 72.365597 182.534267 
L 72.423757 182.534267 
L 73.528971 182.534267 
L 73.528971 177.822204 
L 73.587146 177.822204 
L 73.761645 177.822204 
L 73.761645 173.110142 
L 73.819845 173.110142 
L 73.994314 173.110142 
L 73.994314 168.398079 
L 74.052505 168.398079 
L 95.167777 168.398079 
L 95.167777 163.686016 
L 95.225915 163.686016 
L 95.400466 163.686016 
L 95.400466 158.973953 
L 95.458616 158.973953 
L 95.633116 158.973953 
L 95.633116 149.549827 
L 95.691281 149.549827 
L 101.450013 149.549827 
L 101.450013 144.837764 
L 101.508172 144.837764 
L 101.68269 144.837764 
L 101.68269 140.125701 
L 101.740862 140.125701 
L 105.63813 140.125701 
L 105.63813 144.837764 
L 105.696308 144.837764 
L 106.336154 144.837764 
L 106.336154 135.413638 
L 106.394328 135.413638 
L 106.568854 135.413638 
L 106.568854 140.125701 
L 106.627019 140.125701 
L 106.801542 140.125701 
L 106.801542 135.413638 
L 106.859713 135.413638 
L 107.2669 135.413638 
L 107.2669 125.989512 
L 107.325077 125.989512 
L 107.499542 125.989512 
L 107.499542 121.277449 
L 107.557711 121.277449 
L 118.435277 121.277449 
L 118.435277 116.565386 
L 118.493476 116.565386 
L 119.133344 116.565386 
L 119.133344 111.853323 
L 119.191524 111.853323 
L 130.301725 111.853323 
L 130.301725 107.14126 
L 130.359921 107.14126 
L 151.47518 107.14126 
L 151.47518 102.429197 
L 151.53337 102.429197 
L 152.40588 102.429197 
L 152.40588 97.717134 
L 152.464067 97.717134 
L 157.059423 97.717134 
L 157.059423 93.005071 
L 157.117564 93.005071 
L 175.440784 93.005071 
L 175.440784 88.293008 
L 175.498938 88.293008 
L 303.005 88.293008 
L 303.005 88.293008 
" style="fill:none;stroke:#7570b3;stroke-dasharray:4.5,1.5;stroke-dashoffset:0;stroke-width:1.5;"/>
   </g>
   <g id="line2d_30">
    <path clip-path="url(#peeb8e76f8f)" d="M 55.905 210.806645 
L 61.895426 210.806645 
L 61.895426 206.094582 
L 61.953381 206.094582 
L 62.360584 206.094582 
L 62.360584 201.382519 
L 62.418728 201.382519 
L 67.712078 201.382519 
L 67.712078 196.670456 
L 67.770264 196.670456 
L 73.761645 196.670456 
L 73.761645 191.958393 
L 73.819845 191.958393 
L 77.484458 191.958393 
L 77.484458 187.24633 
L 77.542679 187.24633 
L 78.647811 187.24633 
L 78.647811 182.534267 
L 78.705989 182.534267 
L 79.113182 182.534267 
L 79.113182 177.822204 
L 79.171364 177.822204 
L 94.702416 177.822204 
L 94.702416 168.398079 
L 94.760618 168.398079 
L 95.167777 168.398079 
L 95.167777 163.686016 
L 95.225915 163.686016 
L 95.400466 163.686016 
L 95.400466 158.973953 
L 95.458616 158.973953 
L 95.633116 158.973953 
L 95.633116 154.26189 
L 95.691281 154.26189 
L 95.865816 154.26189 
L 95.865816 144.837764 
L 95.92397 144.837764 
L 96.098494 144.837764 
L 96.098494 140.125701 
L 96.156654 140.125701 
L 96.56384 140.125701 
L 96.56384 135.413638 
L 96.621995 135.413638 
L 97.02921 135.413638 
L 97.02921 130.701575 
L 97.087308 130.701575 
L 97.727173 130.701575 
L 97.727173 125.989512 
L 97.785343 125.989512 
L 100.286619 125.989512 
L 100.286619 121.277449 
L 100.344792 121.277449 
L 100.51929 121.277449 
L 100.51929 116.565386 
L 100.577447 116.565386 
L 100.751981 116.565386 
L 100.751981 102.429197 
L 100.810142 102.429197 
L 100.984641 102.429197 
L 100.984641 97.717134 
L 101.042816 97.717134 
L 101.217291 97.717134 
L 101.217291 93.005071 
L 101.275512 93.005071 
L 103.311377 93.005071 
L 103.311377 97.717134 
L 103.369606 97.717134 
L 106.336154 97.717134 
L 106.336154 93.005071 
L 106.394328 93.005071 
L 106.568854 93.005071 
L 106.568854 97.717134 
L 106.627019 97.717134 
L 106.801542 97.717134 
L 106.801542 93.005071 
L 106.859713 93.005071 
L 113.31648 93.005071 
L 113.31648 97.717134 
L 113.374595 97.717134 
L 113.549102 97.717134 
L 113.549102 93.005071 
L 113.607279 93.005071 
L 303.005 93.005071 
L 303.005 93.005071 
" style="fill:none;stroke:#e7298a;stroke-dasharray:4.5,1.5;stroke-dashoffset:0;stroke-width:1.5;"/>
   </g>
   <g id="line2d_31">
    <path clip-path="url(#peeb8e76f8f)" d="M 160.375014 210.806645 
L 162.410906 210.806645 
L 162.410906 206.094582 
L 162.469116 206.094582 
L 169.391214 206.094582 
L 169.391214 201.382519 
L 169.449365 201.382519 
L 172.881356 201.382519 
L 172.881356 182.534267 
L 172.939466 182.534267 
L 173.346643 182.534267 
L 173.346643 173.110142 
L 173.404812 173.110142 
L 173.81201 173.110142 
L 173.81201 158.973953 
L 173.870187 158.973953 
L 174.277353 158.973953 
L 174.277353 154.26189 
L 174.33557 154.26189 
L 178.930908 154.26189 
L 178.930908 149.549827 
L 178.989041 149.549827 
L 180.094271 149.549827 
L 180.094271 144.837764 
L 180.152403 144.837764 
L 180.559596 144.837764 
L 180.559596 140.125701 
L 180.617749 140.125701 
L 181.024949 140.125701 
L 181.024949 135.413638 
L 181.083147 135.413638 
L 181.257633 135.413638 
L 181.257633 130.701575 
L 181.315764 130.701575 
L 184.515102 130.701575 
L 184.515102 125.989512 
L 184.573244 125.989512 
L 186.609142 125.989512 
L 186.609142 121.277449 
L 186.667351 121.277449 
L 190.564619 121.277449 
L 190.564619 116.565386 
L 190.622838 116.565386 
L 261.763268 116.565386 
L 261.763268 121.277449 
L 261.821466 121.277449 
L 262.926632 121.277449 
L 262.926632 116.565386 
L 262.984822 116.565386 
L 302.016128 116.565386 
L 302.016128 111.853323 
L 302.074268 111.853323 
L 302.481433 111.853323 
L 302.481433 107.14126 
L 302.539666 107.14126 
L 303.005 107.14126 
L 303.005 107.14126 
" style="fill:none;stroke:#66a61e;stroke-dasharray:4.5,1.5;stroke-dashoffset:0;stroke-width:1.5;"/>
   </g>
   <g id="line2d_32">
    <path clip-path="url(#peeb8e76f8f)" d="M 55.905 210.806645 
L 62.82588 210.806645 
L 62.82588 206.094582 
L 62.884075 206.094582 
L 63.756627 206.094582 
L 63.756627 201.382519 
L 63.814762 201.382519 
L 78.415177 201.382519 
L 78.415177 196.670456 
L 78.473309 196.670456 
L 94.702416 196.670456 
L 94.702416 191.958393 
L 94.760618 191.958393 
L 96.331135 191.958393 
L 96.331135 182.534267 
L 96.389292 182.534267 
L 100.751981 182.534267 
L 100.751981 177.822204 
L 100.810142 177.822204 
L 100.984641 177.822204 
L 100.984641 173.110142 
L 101.042816 173.110142 
L 101.68269 173.110142 
L 101.68269 163.686016 
L 101.740862 163.686016 
L 101.915363 163.686016 
L 101.915363 158.973953 
L 101.973524 158.973953 
L 103.311377 158.973953 
L 103.311377 154.26189 
L 103.369606 154.26189 
L 106.103481 154.26189 
L 106.103481 158.973953 
L 106.161651 158.973953 
L 106.568854 158.973953 
L 106.568854 154.26189 
L 106.627019 154.26189 
L 106.801542 154.26189 
L 106.801542 149.549827 
L 106.859713 149.549827 
L 107.2669 149.549827 
L 107.2669 144.837764 
L 107.325077 144.837764 
L 107.499542 144.837764 
L 107.499542 149.549827 
L 107.557711 149.549827 
L 107.732248 149.549827 
L 107.732248 144.837764 
L 107.790415 144.837764 
L 111.687695 144.837764 
L 111.687695 140.125701 
L 111.74588 140.125701 
L 119.133344 140.125701 
L 119.133344 135.413638 
L 119.191524 135.413638 
L 134.722575 135.413638 
L 134.722575 130.701575 
L 134.780711 130.701575 
L 156.826715 130.701575 
L 156.826715 125.989512 
L 156.884925 125.989512 
L 184.515102 125.989512 
L 184.515102 121.277449 
L 184.573244 121.277449 
L 213.832203 121.277449 
L 213.832203 116.565386 
L 213.890359 116.565386 
L 268.278206 116.565386 
L 268.278206 111.853323 
L 290.615019 111.853323 
L 290.615019 107.14126 
L 290.673214 107.14126 
L 303.005 107.14126 
L 303.005 107.14126 
" style="fill:none;stroke:#e6ab02;stroke-dasharray:4.5,1.5;stroke-dashoffset:0;stroke-width:1.5;"/>
   </g>
   <g id="line2d_33">
    <path clip-path="url(#peeb8e76f8f)" d="M 55.905 206.094582 
L 67.479404 206.094582 
L 67.479404 196.670456 
L 67.537549 196.670456 
L 72.598245 196.670456 
L 72.598245 187.24633 
L 72.656413 187.24633 
L 72.830909 187.24633 
L 72.830909 182.534267 
L 72.889083 182.534267 
L 73.761645 182.534267 
L 73.761645 177.822204 
L 73.819845 177.822204 
L 73.994314 177.822204 
L 73.994314 173.110142 
L 74.052505 173.110142 
L 95.633116 173.110142 
L 95.633116 168.398079 
L 95.691281 168.398079 
L 95.865816 168.398079 
L 95.865816 163.686016 
L 95.92397 163.686016 
L 96.098494 163.686016 
L 96.098494 158.973953 
L 96.156654 158.973953 
L 96.796469 158.973953 
L 96.796469 154.26189 
L 96.85469 154.26189 
L 97.02921 154.26189 
L 97.02921 158.973953 
L 97.087308 158.973953 
L 100.286619 158.973953 
L 100.286619 140.125701 
L 100.344792 140.125701 
L 100.751981 140.125701 
L 100.751981 130.701575 
L 100.810142 130.701575 
L 100.984641 130.701575 
L 100.984641 125.989512 
L 101.042816 125.989512 
L 101.217291 125.989512 
L 101.217291 116.565386 
L 101.275512 116.565386 
L 303.005 116.565386 
L 303.005 116.565386 
" style="fill:none;stroke:#a6761d;stroke-dasharray:4.5,1.5;stroke-dashoffset:0;stroke-width:1.5;"/>
   </g>
   <g id="line2d_34">
    <path clip-path="url(#peeb8e76f8f)" d="M 55.905 210.806645 
L 67.944756 210.806645 
L 67.944756 206.094582 
L 68.002913 206.094582 
L 68.177466 206.094582 
L 68.177466 201.382519 
L 68.235619 201.382519 
L 72.830909 201.382519 
L 72.830909 196.670456 
L 72.889083 196.670456 
L 73.994314 196.670456 
L 73.994314 191.958393 
L 74.052505 191.958393 
L 74.459665 191.958393 
L 74.459665 187.24633 
L 74.517846 187.24633 
L 74.925039 187.24633 
L 74.925039 182.534267 
L 74.983211 182.534267 
L 78.415177 182.534267 
L 78.415177 187.24633 
L 78.473309 187.24633 
L 94.935124 187.24633 
L 94.935124 182.534267 
L 94.993235 182.534267 
L 96.331135 182.534267 
L 96.331135 173.110142 
L 96.389292 173.110142 
L 100.51929 173.110142 
L 100.51929 168.398079 
L 100.577447 168.398079 
L 101.450013 168.398079 
L 101.450013 149.549827 
L 101.508172 149.549827 
L 101.68269 149.549827 
L 101.68269 144.837764 
L 101.740862 144.837764 
L 101.915363 144.837764 
L 101.915363 140.125701 
L 101.973524 140.125701 
L 173.346643 140.125701 
L 173.346643 144.837764 
L 173.404812 144.837764 
L 173.579354 144.837764 
L 173.579354 140.125701 
L 173.637546 140.125701 
L 303.005 140.125701 
L 303.005 140.125701 
" style="fill:none;stroke:#666666;stroke-dasharray:4.5,1.5;stroke-dashoffset:0;stroke-width:1.5;"/>
   </g>
   <g id="line2d_35"/>
   <g id="line2d_36"/>
   <g id="line2d_37"/>
   <g id="line2d_38"/>
   <g id="line2d_39"/>
   <g id="line2d_40"/>
   <g id="line2d_41"/>
   <g id="line2d_42"/>
   <g id="line2d_43"/>
   <g id="line2d_44"/>
   <g id="line2d_45"/>
   <g id="line2d_46"/>
   <g id="line2d_47"/>
   <g id="line2d_48"/>
   <g id="line2d_49"/>
   <g id="line2d_50"/>
   <g id="line2d_51"/>
   <g id="patch_3">
    <path d="M 43.55 220.230771 
L 43.55 12.9 
" style="fill:none;stroke:#000000;stroke-linecap:square;stroke-linejoin:miter;stroke-width:0.8;"/>
   </g>
   <g id="patch_4">
    <path d="M 315.36 220.230771 
L 315.36 12.9 
" style="fill:none;stroke:#000000;stroke-linecap:square;stroke-linejoin:miter;stroke-width:0.8;"/>
   </g>
   <g id="patch_5">
    <path d="M 43.55 220.230771 
L 315.36 220.230771 
" style="fill:none;stroke:#000000;stroke-linecap:square;stroke-linejoin:miter;stroke-width:0.8;"/>
   </g>
   <g id="patch_6">
    <path d="M 43.55 12.9 
L 315.36 12.9 
" style="fill:none;stroke:#000000;stroke-linecap:square;stroke-linejoin:miter;stroke-width:0.8;"/>
   </g>
  </g>
  <g id="legend_1">
   <g id="patch_7">
    <path d="M 331.8625 262.528125 
L 420 262.528125 
Q 422 262.528125 422 260.528125 
L 422 12 
Q 422 10 420 10 
L 331.8625 10 
Q 329.8625 10 329.8625 12 
L 329.8625 260.528125 
Q 329.8625 262.528125 331.8625 262.528125 
z
" style="fill:#ffffff;opacity:0.8;stroke:#cccccc;stroke-linejoin:miter;"/>
   </g>
   <g id="text_21">
    <!-- 487/610 Reg. -->
    <defs>
     <path d="M 8.203125 72.90625 
L 55.078125 72.90625 
L 55.078125 68.703125 
L 28.609375 0 
L 18.3125 0 
L 43.21875 64.59375 
L 8.203125 64.59375 
z
" id="DejaVuSans-55"/>
     <path d="M 25.390625 72.90625 
L 33.6875 72.90625 
L 8.296875 -9.28125 
L 0 -9.28125 
z
" id="DejaVuSans-47"/>
     <path d="M 33.015625 40.375 
Q 26.375 40.375 22.484375 35.828125 
Q 18.609375 31.296875 18.609375 23.390625 
Q 18.609375 15.53125 22.484375 10.953125 
Q 26.375 6.390625 33.015625 6.390625 
Q 39.65625 6.390625 43.53125 10.953125 
Q 47.40625 15.53125 47.40625 23.390625 
Q 47.40625 31.296875 43.53125 35.828125 
Q 39.65625 40.375 33.015625 40.375 
z
M 52.59375 71.296875 
L 52.59375 62.3125 
Q 48.875 64.0625 45.09375 64.984375 
Q 41.3125 65.921875 37.59375 65.921875 
Q 27.828125 65.921875 22.671875 59.328125 
Q 17.53125 52.734375 16.796875 39.40625 
Q 19.671875 43.65625 24.015625 45.921875 
Q 28.375 48.1875 33.59375 48.1875 
Q 44.578125 48.1875 50.953125 41.515625 
Q 57.328125 34.859375 57.328125 23.390625 
Q 57.328125 12.15625 50.6875 5.359375 
Q 44.046875 -1.421875 33.015625 -1.421875 
Q 20.359375 -1.421875 13.671875 8.265625 
Q 6.984375 17.96875 6.984375 36.375 
Q 6.984375 53.65625 15.1875 63.9375 
Q 23.390625 74.21875 37.203125 74.21875 
Q 40.921875 74.21875 44.703125 73.484375 
Q 48.484375 72.75 52.59375 71.296875 
z
" id="DejaVuSans-54"/>
     <path d="M 10.6875 12.40625 
L 21 12.40625 
L 21 0 
L 10.6875 0 
z
" id="DejaVuSans-46"/>
    </defs>
    <g transform="translate(342.259375 21.598437)scale(0.1 -0.1)">
     <use xlink:href="#DejaVuSans-52"/>
     <use x="63.623047" xlink:href="#DejaVuSans-56"/>
     <use x="127.246094" xlink:href="#DejaVuSans-55"/>
     <use x="190.869141" xlink:href="#DejaVuSans-47"/>
     <use x="224.560547" xlink:href="#DejaVuSans-54"/>
     <use x="288.183594" xlink:href="#DejaVuSans-49"/>
     <use x="351.806641" xlink:href="#DejaVuSans-48"/>
     <use x="415.429688" xlink:href="#DejaVuSans-32"/>
     <use x="447.216797" xlink:href="#DejaVuSans-82"/>
     <use x="516.636719" xlink:href="#DejaVuSans-101"/>
     <use x="578.160156" xlink:href="#DejaVuSans-103"/>
     <use x="641.636719" xlink:href="#DejaVuSans-46"/>
    </g>
   </g>
   <g id="line2d_52">
    <path d="M 333.8625 32.776562 
L 353.8625 32.776562 
" style="fill:none;stroke:#1b9e77;stroke-linecap:square;stroke-width:1.5;"/>
   </g>
   <g id="line2d_53"/>
   <g id="text_22">
    <!-- AS (40) -->
    <defs>
     <path d="M 34.1875 63.1875 
L 20.796875 26.90625 
L 47.609375 26.90625 
z
M 28.609375 72.90625 
L 39.796875 72.90625 
L 67.578125 0 
L 57.328125 0 
L 50.6875 18.703125 
L 17.828125 18.703125 
L 11.1875 0 
L 0.78125 0 
z
" id="DejaVuSans-65"/>
     <path d="M 31 75.875 
Q 24.46875 64.65625 21.28125 53.65625 
Q 18.109375 42.671875 18.109375 31.390625 
Q 18.109375 20.125 21.3125 9.0625 
Q 24.515625 -2 31 -13.1875 
L 23.1875 -13.1875 
Q 15.875 -1.703125 12.234375 9.375 
Q 8.59375 20.453125 8.59375 31.390625 
Q 8.59375 42.28125 12.203125 53.3125 
Q 15.828125 64.359375 23.1875 75.875 
z
" id="DejaVuSans-40"/>
     <path d="M 8.015625 75.875 
L 15.828125 75.875 
Q 23.140625 64.359375 26.78125 53.3125 
Q 30.421875 42.28125 30.421875 31.390625 
Q 30.421875 20.453125 26.78125 9.375 
Q 23.140625 -1.703125 15.828125 -13.1875 
L 8.015625 -13.1875 
Q 14.5 -2 17.703125 9.0625 
Q 20.90625 20.125 20.90625 31.390625 
Q 20.90625 42.671875 17.703125 53.65625 
Q 14.5 64.65625 8.015625 75.875 
z
" id="DejaVuSans-41"/>
    </defs>
    <g transform="translate(361.8625 36.276562)scale(0.1 -0.1)">
     <use xlink:href="#DejaVuSans-65"/>
     <use x="68.408203" xlink:href="#DejaVuSans-83"/>
     <use x="131.884766" xlink:href="#DejaVuSans-32"/>
     <use x="163.671875" xlink:href="#DejaVuSans-40"/>
     <use x="202.685547" xlink:href="#DejaVuSans-52"/>
     <use x="266.308594" xlink:href="#DejaVuSans-48"/>
     <use x="329.931641" xlink:href="#DejaVuSans-41"/>
    </g>
   </g>
   <g id="line2d_54">
    <path d="M 333.8625 47.454688 
L 353.8625 47.454688 
" style="fill:none;stroke:#d95f02;stroke-linecap:square;stroke-width:1.5;"/>
   </g>
   <g id="line2d_55"/>
   <g id="text_23">
    <!-- AUS (40) -->
    <defs>
     <path d="M 8.6875 72.90625 
L 18.609375 72.90625 
L 18.609375 28.609375 
Q 18.609375 16.890625 22.84375 11.734375 
Q 27.09375 6.59375 36.625 6.59375 
Q 46.09375 6.59375 50.34375 11.734375 
Q 54.59375 16.890625 54.59375 28.609375 
L 54.59375 72.90625 
L 64.5 72.90625 
L 64.5 27.390625 
Q 64.5 13.140625 57.4375 5.859375 
Q 50.390625 -1.421875 36.625 -1.421875 
Q 22.796875 -1.421875 15.734375 5.859375 
Q 8.6875 13.140625 8.6875 27.390625 
z
" id="DejaVuSans-85"/>
    </defs>
    <g transform="translate(361.8625 50.954688)scale(0.1 -0.1)">
     <use xlink:href="#DejaVuSans-65"/>
     <use x="68.408203" xlink:href="#DejaVuSans-85"/>
     <use x="141.601562" xlink:href="#DejaVuSans-83"/>
     <use x="205.078125" xlink:href="#DejaVuSans-32"/>
     <use x="236.865234" xlink:href="#DejaVuSans-40"/>
     <use x="275.878906" xlink:href="#DejaVuSans-52"/>
     <use x="339.501953" xlink:href="#DejaVuSans-48"/>
     <use x="403.125" xlink:href="#DejaVuSans-41"/>
    </g>
   </g>
   <g id="line2d_56">
    <path d="M 333.8625 62.132812 
L 353.8625 62.132812 
" style="fill:none;stroke:#7570b3;stroke-linecap:square;stroke-width:1.5;"/>
   </g>
   <g id="line2d_57"/>
   <g id="text_24">
    <!-- COML (40) -->
    <defs>
     <path d="M 64.40625 67.28125 
L 64.40625 56.890625 
Q 59.421875 61.53125 53.78125 63.8125 
Q 48.140625 66.109375 41.796875 66.109375 
Q 29.296875 66.109375 22.65625 58.46875 
Q 16.015625 50.828125 16.015625 36.375 
Q 16.015625 21.96875 22.65625 14.328125 
Q 29.296875 6.6875 41.796875 6.6875 
Q 48.140625 6.6875 53.78125 8.984375 
Q 59.421875 11.28125 64.40625 15.921875 
L 64.40625 5.609375 
Q 59.234375 2.09375 53.4375 0.328125 
Q 47.65625 -1.421875 41.21875 -1.421875 
Q 24.65625 -1.421875 15.125 8.703125 
Q 5.609375 18.84375 5.609375 36.375 
Q 5.609375 53.953125 15.125 64.078125 
Q 24.65625 74.21875 41.21875 74.21875 
Q 47.75 74.21875 53.53125 72.484375 
Q 59.328125 70.75 64.40625 67.28125 
z
" id="DejaVuSans-67"/>
     <path d="M 39.40625 66.21875 
Q 28.65625 66.21875 22.328125 58.203125 
Q 16.015625 50.203125 16.015625 36.375 
Q 16.015625 22.609375 22.328125 14.59375 
Q 28.65625 6.59375 39.40625 6.59375 
Q 50.140625 6.59375 56.421875 14.59375 
Q 62.703125 22.609375 62.703125 36.375 
Q 62.703125 50.203125 56.421875 58.203125 
Q 50.140625 66.21875 39.40625 66.21875 
z
M 39.40625 74.21875 
Q 54.734375 74.21875 63.90625 63.9375 
Q 73.09375 53.65625 73.09375 36.375 
Q 73.09375 19.140625 63.90625 8.859375 
Q 54.734375 -1.421875 39.40625 -1.421875 
Q 24.03125 -1.421875 14.8125 8.828125 
Q 5.609375 19.09375 5.609375 36.375 
Q 5.609375 53.65625 14.8125 63.9375 
Q 24.03125 74.21875 39.40625 74.21875 
z
" id="DejaVuSans-79"/>
     <path d="M 9.8125 72.90625 
L 24.515625 72.90625 
L 43.109375 23.296875 
L 61.8125 72.90625 
L 76.515625 72.90625 
L 76.515625 0 
L 66.890625 0 
L 66.890625 64.015625 
L 48.09375 14.015625 
L 38.1875 14.015625 
L 19.390625 64.015625 
L 19.390625 0 
L 9.8125 0 
z
" id="DejaVuSans-77"/>
     <path d="M 9.8125 72.90625 
L 19.671875 72.90625 
L 19.671875 8.296875 
L 55.171875 8.296875 
L 55.171875 0 
L 9.8125 0 
z
" id="DejaVuSans-76"/>
    </defs>
    <g transform="translate(361.8625 65.632812)scale(0.1 -0.1)">
     <use xlink:href="#DejaVuSans-67"/>
     <use x="69.824219" xlink:href="#DejaVuSans-79"/>
     <use x="148.535156" xlink:href="#DejaVuSans-77"/>
     <use x="234.814453" xlink:href="#DejaVuSans-76"/>
     <use x="290.527344" xlink:href="#DejaVuSans-32"/>
     <use x="322.314453" xlink:href="#DejaVuSans-40"/>
     <use x="361.328125" xlink:href="#DejaVuSans-52"/>
     <use x="424.951172" xlink:href="#DejaVuSans-48"/>
     <use x="488.574219" xlink:href="#DejaVuSans-41"/>
    </g>
   </g>
   <g id="line2d_58">
    <path d="M 333.8625 76.810937 
L 353.8625 76.810937 
" style="fill:none;stroke:#e7298a;stroke-linecap:square;stroke-width:1.5;"/>
   </g>
   <g id="line2d_59"/>
   <g id="text_25">
    <!-- GDD (40) -->
    <defs>
     <path d="M 59.515625 10.40625 
L 59.515625 29.984375 
L 43.40625 29.984375 
L 43.40625 38.09375 
L 69.28125 38.09375 
L 69.28125 6.78125 
Q 63.578125 2.734375 56.6875 0.65625 
Q 49.8125 -1.421875 42 -1.421875 
Q 24.90625 -1.421875 15.25 8.5625 
Q 5.609375 18.5625 5.609375 36.375 
Q 5.609375 54.25 15.25 64.234375 
Q 24.90625 74.21875 42 74.21875 
Q 49.125 74.21875 55.546875 72.453125 
Q 61.96875 70.703125 67.390625 67.28125 
L 67.390625 56.78125 
Q 61.921875 61.421875 55.765625 63.765625 
Q 49.609375 66.109375 42.828125 66.109375 
Q 29.4375 66.109375 22.71875 58.640625 
Q 16.015625 51.171875 16.015625 36.375 
Q 16.015625 21.625 22.71875 14.15625 
Q 29.4375 6.6875 42.828125 6.6875 
Q 48.046875 6.6875 52.140625 7.59375 
Q 56.25 8.5 59.515625 10.40625 
z
" id="DejaVuSans-71"/>
    </defs>
    <g transform="translate(361.8625 80.310937)scale(0.1 -0.1)">
     <use xlink:href="#DejaVuSans-71"/>
     <use x="77.490234" xlink:href="#DejaVuSans-68"/>
     <use x="154.492188" xlink:href="#DejaVuSans-68"/>
     <use x="231.494141" xlink:href="#DejaVuSans-32"/>
     <use x="263.28125" xlink:href="#DejaVuSans-40"/>
     <use x="302.294922" xlink:href="#DejaVuSans-52"/>
     <use x="365.917969" xlink:href="#DejaVuSans-48"/>
     <use x="429.541016" xlink:href="#DejaVuSans-41"/>
    </g>
   </g>
   <g id="line2d_60">
    <path d="M 333.8625 91.489062 
L 353.8625 91.489062 
" style="fill:none;stroke:#66a61e;stroke-linecap:square;stroke-width:1.5;"/>
   </g>
   <g id="line2d_61"/>
   <g id="text_26">
    <!-- MD (38) -->
    <g transform="translate(361.8625 94.989062)scale(0.1 -0.1)">
     <use xlink:href="#DejaVuSans-77"/>
     <use x="86.279297" xlink:href="#DejaVuSans-68"/>
     <use x="163.28125" xlink:href="#DejaVuSans-32"/>
     <use x="195.068359" xlink:href="#DejaVuSans-40"/>
     <use x="234.082031" xlink:href="#DejaVuSans-51"/>
     <use x="297.705078" xlink:href="#DejaVuSans-56"/>
     <use x="361.328125" xlink:href="#DejaVuSans-41"/>
    </g>
   </g>
   <g id="line2d_62">
    <path d="M 333.8625 106.167188 
L 353.8625 106.167188 
" style="fill:none;stroke:#e6ab02;stroke-linecap:square;stroke-width:1.5;"/>
   </g>
   <g id="line2d_63"/>
   <g id="text_27">
    <!-- HPI (38) -->
    <defs>
     <path d="M 9.8125 72.90625 
L 19.671875 72.90625 
L 19.671875 43.015625 
L 55.515625 43.015625 
L 55.515625 72.90625 
L 65.375 72.90625 
L 65.375 0 
L 55.515625 0 
L 55.515625 34.71875 
L 19.671875 34.71875 
L 19.671875 0 
L 9.8125 0 
z
" id="DejaVuSans-72"/>
     <path d="M 19.671875 64.796875 
L 19.671875 37.40625 
L 32.078125 37.40625 
Q 38.96875 37.40625 42.71875 40.96875 
Q 46.484375 44.53125 46.484375 51.125 
Q 46.484375 57.671875 42.71875 61.234375 
Q 38.96875 64.796875 32.078125 64.796875 
z
M 9.8125 72.90625 
L 32.078125 72.90625 
Q 44.34375 72.90625 50.609375 67.359375 
Q 56.890625 61.8125 56.890625 51.125 
Q 56.890625 40.328125 50.609375 34.8125 
Q 44.34375 29.296875 32.078125 29.296875 
L 19.671875 29.296875 
L 19.671875 0 
L 9.8125 0 
z
" id="DejaVuSans-80"/>
     <path d="M 9.8125 72.90625 
L 19.671875 72.90625 
L 19.671875 0 
L 9.8125 0 
z
" id="DejaVuSans-73"/>
    </defs>
    <g transform="translate(361.8625 109.667188)scale(0.1 -0.1)">
     <use xlink:href="#DejaVuSans-72"/>
     <use x="75.195312" xlink:href="#DejaVuSans-80"/>
     <use x="135.498047" xlink:href="#DejaVuSans-73"/>
     <use x="164.990234" xlink:href="#DejaVuSans-32"/>
     <use x="196.777344" xlink:href="#DejaVuSans-40"/>
     <use x="235.791016" xlink:href="#DejaVuSans-51"/>
     <use x="299.414062" xlink:href="#DejaVuSans-56"/>
     <use x="363.037109" xlink:href="#DejaVuSans-41"/>
    </g>
   </g>
   <g id="line2d_64">
    <path d="M 333.8625 120.845312 
L 353.8625 120.845312 
" style="fill:none;stroke:#a6761d;stroke-linecap:square;stroke-width:1.5;"/>
   </g>
   <g id="line2d_65"/>
   <g id="text_28">
    <!-- SA (37) -->
    <g transform="translate(361.8625 124.345312)scale(0.1 -0.1)">
     <use xlink:href="#DejaVuSans-83"/>
     <use x="63.492188" xlink:href="#DejaVuSans-65"/>
     <use x="131.900391" xlink:href="#DejaVuSans-32"/>
     <use x="163.6875" xlink:href="#DejaVuSans-40"/>
     <use x="202.701172" xlink:href="#DejaVuSans-51"/>
     <use x="266.324219" xlink:href="#DejaVuSans-55"/>
     <use x="329.947266" xlink:href="#DejaVuSans-41"/>
    </g>
   </g>
   <g id="line2d_66">
    <path d="M 333.8625 135.523438 
L 353.8625 135.523438 
" style="fill:none;stroke:#666666;stroke-linecap:square;stroke-width:1.5;"/>
   </g>
   <g id="line2d_67"/>
   <g id="text_29">
    <!-- FIT (29) -->
    <defs>
     <path d="M 9.8125 72.90625 
L 51.703125 72.90625 
L 51.703125 64.59375 
L 19.671875 64.59375 
L 19.671875 43.109375 
L 48.578125 43.109375 
L 48.578125 34.8125 
L 19.671875 34.8125 
L 19.671875 0 
L 9.8125 0 
z
" id="DejaVuSans-70"/>
     <path d="M -0.296875 72.90625 
L 61.375 72.90625 
L 61.375 64.59375 
L 35.5 64.59375 
L 35.5 0 
L 25.59375 0 
L 25.59375 64.59375 
L -0.296875 64.59375 
z
" id="DejaVuSans-84"/>
    </defs>
    <g transform="translate(361.8625 139.023438)scale(0.1 -0.1)">
     <use xlink:href="#DejaVuSans-70"/>
     <use x="57.519531" xlink:href="#DejaVuSans-73"/>
     <use x="87.011719" xlink:href="#DejaVuSans-84"/>
     <use x="148.095703" xlink:href="#DejaVuSans-32"/>
     <use x="179.882812" xlink:href="#DejaVuSans-40"/>
     <use x="218.896484" xlink:href="#DejaVuSans-50"/>
     <use x="282.519531" xlink:href="#DejaVuSans-57"/>
     <use x="346.142578" xlink:href="#DejaVuSans-41"/>
    </g>
   </g>
   <g id="line2d_68">
    <path d="M 333.8625 150.201562 
L 353.8625 150.201562 
" style="fill:none;stroke:#1b9e77;stroke-dasharray:4.5,1.5;stroke-dashoffset:0;stroke-width:1.5;"/>
   </g>
   <g id="line2d_69"/>
   <g id="text_30">
    <!-- SPD (28) -->
    <g transform="translate(361.8625 153.701562)scale(0.1 -0.1)">
     <use xlink:href="#DejaVuSans-83"/>
     <use x="63.476562" xlink:href="#DejaVuSans-80"/>
     <use x="123.779297" xlink:href="#DejaVuSans-68"/>
     <use x="200.78125" xlink:href="#DejaVuSans-32"/>
     <use x="232.568359" xlink:href="#DejaVuSans-40"/>
     <use x="271.582031" xlink:href="#DejaVuSans-50"/>
     <use x="335.205078" xlink:href="#DejaVuSans-56"/>
     <use x="398.828125" xlink:href="#DejaVuSans-41"/>
    </g>
   </g>
   <g id="line2d_70">
    <path d="M 333.8625 164.879687 
L 353.8625 164.879687 
" style="fill:none;stroke:#d95f02;stroke-dasharray:4.5,1.5;stroke-dashoffset:0;stroke-width:1.5;"/>
   </g>
   <g id="line2d_71"/>
   <g id="text_31">
    <!-- TBI (27) -->
    <defs>
     <path d="M 19.671875 34.8125 
L 19.671875 8.109375 
L 35.5 8.109375 
Q 43.453125 8.109375 47.28125 11.40625 
Q 51.125 14.703125 51.125 21.484375 
Q 51.125 28.328125 47.28125 31.5625 
Q 43.453125 34.8125 35.5 34.8125 
z
M 19.671875 64.796875 
L 19.671875 42.828125 
L 34.28125 42.828125 
Q 41.5 42.828125 45.03125 45.53125 
Q 48.578125 48.25 48.578125 53.8125 
Q 48.578125 59.328125 45.03125 62.0625 
Q 41.5 64.796875 34.28125 64.796875 
z
M 9.8125 72.90625 
L 35.015625 72.90625 
Q 46.296875 72.90625 52.390625 68.21875 
Q 58.5 63.53125 58.5 54.890625 
Q 58.5 48.1875 55.375 44.234375 
Q 52.25 40.28125 46.1875 39.3125 
Q 53.46875 37.75 57.5 32.78125 
Q 61.53125 27.828125 61.53125 20.40625 
Q 61.53125 10.640625 54.890625 5.3125 
Q 48.25 0 35.984375 0 
L 9.8125 0 
z
" id="DejaVuSans-66"/>
    </defs>
    <g transform="translate(361.8625 168.379687)scale(0.1 -0.1)">
     <use xlink:href="#DejaVuSans-84"/>
     <use x="61.083984" xlink:href="#DejaVuSans-66"/>
     <use x="129.6875" xlink:href="#DejaVuSans-73"/>
     <use x="159.179688" xlink:href="#DejaVuSans-32"/>
     <use x="190.966797" xlink:href="#DejaVuSans-40"/>
     <use x="229.980469" xlink:href="#DejaVuSans-50"/>
     <use x="293.603516" xlink:href="#DejaVuSans-55"/>
     <use x="357.226562" xlink:href="#DejaVuSans-41"/>
    </g>
   </g>
   <g id="line2d_72">
    <path d="M 333.8625 179.557812 
L 353.8625 179.557812 
" style="fill:none;stroke:#7570b3;stroke-dasharray:4.5,1.5;stroke-dashoffset:0;stroke-width:1.5;"/>
   </g>
   <g id="line2d_73"/>
   <g id="text_32">
    <!-- BP (26) -->
    <g transform="translate(361.8625 183.057812)scale(0.1 -0.1)">
     <use xlink:href="#DejaVuSans-66"/>
     <use x="68.603516" xlink:href="#DejaVuSans-80"/>
     <use x="128.90625" xlink:href="#DejaVuSans-32"/>
     <use x="160.693359" xlink:href="#DejaVuSans-40"/>
     <use x="199.707031" xlink:href="#DejaVuSans-50"/>
     <use x="263.330078" xlink:href="#DejaVuSans-54"/>
     <use x="326.953125" xlink:href="#DejaVuSans-41"/>
    </g>
   </g>
   <g id="line2d_74">
    <path d="M 333.8625 194.235937 
L 353.8625 194.235937 
" style="fill:none;stroke:#e7298a;stroke-dasharray:4.5,1.5;stroke-dashoffset:0;stroke-width:1.5;"/>
   </g>
   <g id="line2d_75"/>
   <g id="text_33">
    <!-- CC (25) -->
    <g transform="translate(361.8625 197.735937)scale(0.1 -0.1)">
     <use xlink:href="#DejaVuSans-67"/>
     <use x="69.824219" xlink:href="#DejaVuSans-67"/>
     <use x="139.648438" xlink:href="#DejaVuSans-32"/>
     <use x="171.435547" xlink:href="#DejaVuSans-40"/>
     <use x="210.449219" xlink:href="#DejaVuSans-50"/>
     <use x="274.072266" xlink:href="#DejaVuSans-53"/>
     <use x="337.695312" xlink:href="#DejaVuSans-41"/>
    </g>
   </g>
   <g id="line2d_76">
    <path d="M 333.8625 208.914062 
L 353.8625 208.914062 
" style="fill:none;stroke:#66a61e;stroke-dasharray:4.5,1.5;stroke-dashoffset:0;stroke-width:1.5;"/>
   </g>
   <g id="line2d_77"/>
   <g id="text_34">
    <!-- RJPH (22) -->
    <defs>
     <path d="M 9.8125 72.90625 
L 19.671875 72.90625 
L 19.671875 5.078125 
Q 19.671875 -8.109375 14.671875 -14.0625 
Q 9.671875 -20.015625 -1.421875 -20.015625 
L -5.171875 -20.015625 
L -5.171875 -11.71875 
L -2.09375 -11.71875 
Q 4.4375 -11.71875 7.125 -8.046875 
Q 9.8125 -4.390625 9.8125 5.078125 
z
" id="DejaVuSans-74"/>
    </defs>
    <g transform="translate(361.8625 212.414062)scale(0.1 -0.1)">
     <use xlink:href="#DejaVuSans-82"/>
     <use x="69.482422" xlink:href="#DejaVuSans-74"/>
     <use x="98.974609" xlink:href="#DejaVuSans-80"/>
     <use x="159.277344" xlink:href="#DejaVuSans-72"/>
     <use x="234.472656" xlink:href="#DejaVuSans-32"/>
     <use x="266.259766" xlink:href="#DejaVuSans-40"/>
     <use x="305.273438" xlink:href="#DejaVuSans-50"/>
     <use x="368.896484" xlink:href="#DejaVuSans-50"/>
     <use x="432.519531" xlink:href="#DejaVuSans-41"/>
    </g>
   </g>
   <g id="line2d_78">
    <path d="M 333.8625 223.592187 
L 353.8625 223.592187 
" style="fill:none;stroke:#e6ab02;stroke-dasharray:4.5,1.5;stroke-dashoffset:0;stroke-width:1.5;"/>
   </g>
   <g id="line2d_79"/>
   <g id="text_35">
    <!-- CB (22) -->
    <g transform="translate(361.8625 227.092187)scale(0.1 -0.1)">
     <use xlink:href="#DejaVuSans-67"/>
     <use x="69.824219" xlink:href="#DejaVuSans-66"/>
     <use x="138.427734" xlink:href="#DejaVuSans-32"/>
     <use x="170.214844" xlink:href="#DejaVuSans-40"/>
     <use x="209.228516" xlink:href="#DejaVuSans-50"/>
     <use x="272.851562" xlink:href="#DejaVuSans-50"/>
     <use x="336.474609" xlink:href="#DejaVuSans-41"/>
    </g>
   </g>
   <g id="line2d_80">
    <path d="M 333.8625 238.270312 
L 353.8625 238.270312 
" style="fill:none;stroke:#a6761d;stroke-dasharray:4.5,1.5;stroke-dashoffset:0;stroke-width:1.5;"/>
   </g>
   <g id="line2d_81"/>
   <g id="text_36">
    <!-- AHR-H (20) -->
    <g transform="translate(361.8625 241.770312)scale(0.1 -0.1)">
     <use xlink:href="#DejaVuSans-65"/>
     <use x="68.408203" xlink:href="#DejaVuSans-72"/>
     <use x="143.603516" xlink:href="#DejaVuSans-82"/>
     <use x="213.023438" xlink:href="#DejaVuSans-45"/>
     <use x="249.107422" xlink:href="#DejaVuSans-72"/>
     <use x="324.302734" xlink:href="#DejaVuSans-32"/>
     <use x="356.089844" xlink:href="#DejaVuSans-40"/>
     <use x="395.103516" xlink:href="#DejaVuSans-50"/>
     <use x="458.726562" xlink:href="#DejaVuSans-48"/>
     <use x="522.349609" xlink:href="#DejaVuSans-41"/>
    </g>
   </g>
   <g id="line2d_82">
    <path d="M 333.8625 252.948437 
L 353.8625 252.948437 
" style="fill:none;stroke:#666666;stroke-dasharray:4.5,1.5;stroke-dashoffset:0;stroke-width:1.5;"/>
   </g>
   <g id="line2d_83"/>
   <g id="text_37">
    <!-- AHR-A (15) -->
    <g transform="translate(361.8625 256.448437)scale(0.1 -0.1)">
     <use xlink:href="#DejaVuSans-65"/>
     <use x="68.408203" xlink:href="#DejaVuSans-72"/>
     <use x="143.603516" xlink:href="#DejaVuSans-82"/>
     <use x="213.023438" xlink:href="#DejaVuSans-45"/>
     <use x="249.076172" xlink:href="#DejaVuSans-65"/>
     <use x="317.484375" xlink:href="#DejaVuSans-32"/>
     <use x="349.271484" xlink:href="#DejaVuSans-40"/>
     <use x="388.285156" xlink:href="#DejaVuSans-49"/>
     <use x="451.908203" xlink:href="#DejaVuSans-53"/>
     <use x="515.53125" xlink:href="#DejaVuSans-41"/>
    </g>
   </g>
  </g>
 </g>
 <defs>
  <clipPath id="peeb8e76f8f">
   <rect height="207.330771" width="271.81" x="43.55" y="12.9"/>
  </clipPath>
 </defs>
</svg>
