<?xml version="1.0" encoding="utf-8" standalone="no"?>
<!DOCTYPE svg PUBLIC "-//W3C//DTD SVG 1.1//EN"
  "http://www.w3.org/Graphics/SVG/1.1/DTD/svg11.dtd">
<!-- Created with matplotlib (https://matplotlib.org/) -->
<svg height="288pt" version="1.1" viewBox="0 0 432 288" width="432pt" xmlns="http://www.w3.org/2000/svg" xmlns:xlink="http://www.w3.org/1999/xlink">
 <defs>
  <style type="text/css">
*{stroke-linecap:butt;stroke-linejoin:round;}
  </style>
 </defs>
 <g id="figure_1">
  <g id="patch_1">
   <path d="M 0 288 
L 432 288 
L 432 0 
L 0 0 
z
" style="fill:#ffffff;"/>
  </g>
  <g id="axes_1">
   <g id="patch_2">
    <path d="M 43.55 220.230771 
L 315.36 220.230771 
L 315.36 12.9 
L 43.55 12.9 
z
" style="fill:#ffffff;"/>
   </g>
   <g id="matplotlib.axis_1">
    <g id="xtick_1">
     <g id="line2d_1">
      <defs>
       <path d="M 0 0 
L 0 3.5 
" id="mda94b59aed" style="stroke:#000000;stroke-width:0.8;"/>
      </defs>
      <g>
       <use style="stroke:#000000;stroke-width:0.8;" x="50.729646" xlink:href="#mda94b59aed" y="220.230771"/>
      </g>
     </g>
     <g id="text_1">
      <!-- 2020-11-29 -->
      <defs>
       <path d="M 19.1875 8.296875 
L 53.609375 8.296875 
L 53.609375 0 
L 7.328125 0 
L 7.328125 8.296875 
Q 12.9375 14.109375 22.625 23.890625 
Q 32.328125 33.6875 34.8125 36.53125 
Q 39.546875 41.84375 41.421875 45.53125 
Q 43.3125 49.21875 43.3125 52.78125 
Q 43.3125 58.59375 39.234375 62.25 
Q 35.15625 65.921875 28.609375 65.921875 
Q 23.96875 65.921875 18.8125 64.3125 
Q 13.671875 62.703125 7.8125 59.421875 
L 7.8125 69.390625 
Q 13.765625 71.78125 18.9375 73 
Q 24.125 74.21875 28.421875 74.21875 
Q 39.75 74.21875 46.484375 68.546875 
Q 53.21875 62.890625 53.21875 53.421875 
Q 53.21875 48.921875 51.53125 44.890625 
Q 49.859375 40.875 45.40625 35.40625 
Q 44.1875 33.984375 37.640625 27.21875 
Q 31.109375 20.453125 19.1875 8.296875 
z
" id="DejaVuSans-50"/>
       <path d="M 31.78125 66.40625 
Q 24.171875 66.40625 20.328125 58.90625 
Q 16.5 51.421875 16.5 36.375 
Q 16.5 21.390625 20.328125 13.890625 
Q 24.171875 6.390625 31.78125 6.390625 
Q 39.453125 6.390625 43.28125 13.890625 
Q 47.125 21.390625 47.125 36.375 
Q 47.125 51.421875 43.28125 58.90625 
Q 39.453125 66.40625 31.78125 66.40625 
z
M 31.78125 74.21875 
Q 44.046875 74.21875 50.515625 64.515625 
Q 56.984375 54.828125 56.984375 36.375 
Q 56.984375 17.96875 50.515625 8.265625 
Q 44.046875 -1.421875 31.78125 -1.421875 
Q 19.53125 -1.421875 13.0625 8.265625 
Q 6.59375 17.96875 6.59375 36.375 
Q 6.59375 54.828125 13.0625 64.515625 
Q 19.53125 74.21875 31.78125 74.21875 
z
" id="DejaVuSans-48"/>
       <path d="M 4.890625 31.390625 
L 31.203125 31.390625 
L 31.203125 23.390625 
L 4.890625 23.390625 
z
" id="DejaVuSans-45"/>
       <path d="M 12.40625 8.296875 
L 28.515625 8.296875 
L 28.515625 63.921875 
L 10.984375 60.40625 
L 10.984375 69.390625 
L 28.421875 72.90625 
L 38.28125 72.90625 
L 38.28125 8.296875 
L 54.390625 8.296875 
L 54.390625 0 
L 12.40625 0 
z
" id="DejaVuSans-49"/>
       <path d="M 10.984375 1.515625 
L 10.984375 10.5 
Q 14.703125 8.734375 18.5 7.8125 
Q 22.3125 6.890625 25.984375 6.890625 
Q 35.75 6.890625 40.890625 13.453125 
Q 46.046875 20.015625 46.78125 33.40625 
Q 43.953125 29.203125 39.59375 26.953125 
Q 35.25 24.703125 29.984375 24.703125 
Q 19.046875 24.703125 12.671875 31.3125 
Q 6.296875 37.9375 6.296875 49.421875 
Q 6.296875 60.640625 12.9375 67.421875 
Q 19.578125 74.21875 30.609375 74.21875 
Q 43.265625 74.21875 49.921875 64.515625 
Q 56.59375 54.828125 56.59375 36.375 
Q 56.59375 19.140625 48.40625 8.859375 
Q 40.234375 -1.421875 26.421875 -1.421875 
Q 22.703125 -1.421875 18.890625 -0.6875 
Q 15.09375 0.046875 10.984375 1.515625 
z
M 30.609375 32.421875 
Q 37.25 32.421875 41.125 36.953125 
Q 45.015625 41.5 45.015625 49.421875 
Q 45.015625 57.28125 41.125 61.84375 
Q 37.25 66.40625 30.609375 66.40625 
Q 23.96875 66.40625 20.09375 61.84375 
Q 16.21875 57.28125 16.21875 49.421875 
Q 16.21875 41.5 20.09375 36.953125 
Q 23.96875 32.421875 30.609375 32.421875 
z
" id="DejaVuSans-57"/>
      </defs>
      <g transform="translate(26.94453 262.869024)rotate(-30)scale(0.1 -0.1)">
       <use xlink:href="#DejaVuSans-50"/>
       <use x="63.623047" xlink:href="#DejaVuSans-48"/>
       <use x="127.246094" xlink:href="#DejaVuSans-50"/>
       <use x="190.869141" xlink:href="#DejaVuSans-48"/>
       <use x="254.492188" xlink:href="#DejaVuSans-45"/>
       <use x="290.576172" xlink:href="#DejaVuSans-49"/>
       <use x="354.199219" xlink:href="#DejaVuSans-49"/>
       <use x="417.822266" xlink:href="#DejaVuSans-45"/>
       <use x="453.90625" xlink:href="#DejaVuSans-50"/>
       <use x="517.529297" xlink:href="#DejaVuSans-57"/>
      </g>
     </g>
    </g>
    <g id="xtick_2">
     <g id="line2d_2">
      <g>
       <use style="stroke:#000000;stroke-width:0.8;" x="57.876881" xlink:href="#mda94b59aed" y="220.230771"/>
      </g>
     </g>
     <g id="text_2">
      <!-- 2020-12-01 -->
      <g transform="translate(34.091765 262.869024)rotate(-30)scale(0.1 -0.1)">
       <use xlink:href="#DejaVuSans-50"/>
       <use x="63.623047" xlink:href="#DejaVuSans-48"/>
       <use x="127.246094" xlink:href="#DejaVuSans-50"/>
       <use x="190.869141" xlink:href="#DejaVuSans-48"/>
       <use x="254.492188" xlink:href="#DejaVuSans-45"/>
       <use x="290.576172" xlink:href="#DejaVuSans-49"/>
       <use x="354.199219" xlink:href="#DejaVuSans-50"/>
       <use x="417.822266" xlink:href="#DejaVuSans-45"/>
       <use x="453.90625" xlink:href="#DejaVuSans-48"/>
       <use x="517.529297" xlink:href="#DejaVuSans-49"/>
      </g>
     </g>
    </g>
    <g id="xtick_3">
     <g id="line2d_3">
      <g>
       <use style="stroke:#000000;stroke-width:0.8;" x="107.907526" xlink:href="#mda94b59aed" y="220.230771"/>
      </g>
     </g>
     <g id="text_3">
      <!-- 2020-12-15 -->
      <defs>
       <path d="M 10.796875 72.90625 
L 49.515625 72.90625 
L 49.515625 64.59375 
L 19.828125 64.59375 
L 19.828125 46.734375 
Q 21.96875 47.46875 24.109375 47.828125 
Q 26.265625 48.1875 28.421875 48.1875 
Q 40.625 48.1875 47.75 41.5 
Q 54.890625 34.8125 54.890625 23.390625 
Q 54.890625 11.625 47.5625 5.09375 
Q 40.234375 -1.421875 26.90625 -1.421875 
Q 22.3125 -1.421875 17.546875 -0.640625 
Q 12.796875 0.140625 7.71875 1.703125 
L 7.71875 11.625 
Q 12.109375 9.234375 16.796875 8.0625 
Q 21.484375 6.890625 26.703125 6.890625 
Q 35.15625 6.890625 40.078125 11.328125 
Q 45.015625 15.765625 45.015625 23.390625 
Q 45.015625 31 40.078125 35.4375 
Q 35.15625 39.890625 26.703125 39.890625 
Q 22.75 39.890625 18.8125 39.015625 
Q 14.890625 38.140625 10.796875 36.28125 
z
" id="DejaVuSans-53"/>
      </defs>
      <g transform="translate(84.122409 262.869024)rotate(-30)scale(0.1 -0.1)">
       <use xlink:href="#DejaVuSans-50"/>
       <use x="63.623047" xlink:href="#DejaVuSans-48"/>
       <use x="127.246094" xlink:href="#DejaVuSans-50"/>
       <use x="190.869141" xlink:href="#DejaVuSans-48"/>
       <use x="254.492188" xlink:href="#DejaVuSans-45"/>
       <use x="290.576172" xlink:href="#DejaVuSans-49"/>
       <use x="354.199219" xlink:href="#DejaVuSans-50"/>
       <use x="417.822266" xlink:href="#DejaVuSans-45"/>
       <use x="453.90625" xlink:href="#DejaVuSans-49"/>
       <use x="517.529297" xlink:href="#DejaVuSans-53"/>
      </g>
     </g>
    </g>
    <g id="xtick_4">
     <g id="line2d_4">
      <g>
       <use style="stroke:#000000;stroke-width:0.8;" x="157.938171" xlink:href="#mda94b59aed" y="220.230771"/>
      </g>
     </g>
     <g id="text_4">
      <!-- 2020-12-29 -->
      <g transform="translate(134.153054 262.869024)rotate(-30)scale(0.1 -0.1)">
       <use xlink:href="#DejaVuSans-50"/>
       <use x="63.623047" xlink:href="#DejaVuSans-48"/>
       <use x="127.246094" xlink:href="#DejaVuSans-50"/>
       <use x="190.869141" xlink:href="#DejaVuSans-48"/>
       <use x="254.492188" xlink:href="#DejaVuSans-45"/>
       <use x="290.576172" xlink:href="#DejaVuSans-49"/>
       <use x="354.199219" xlink:href="#DejaVuSans-50"/>
       <use x="417.822266" xlink:href="#DejaVuSans-45"/>
       <use x="453.90625" xlink:href="#DejaVuSans-50"/>
       <use x="517.529297" xlink:href="#DejaVuSans-57"/>
      </g>
     </g>
    </g>
    <g id="xtick_5">
     <g id="line2d_5">
      <g>
       <use style="stroke:#000000;stroke-width:0.8;" x="168.659023" xlink:href="#mda94b59aed" y="220.230771"/>
      </g>
     </g>
     <g id="text_5">
      <!-- 2021-01-01 -->
      <g transform="translate(144.873907 262.869024)rotate(-30)scale(0.1 -0.1)">
       <use xlink:href="#DejaVuSans-50"/>
       <use x="63.623047" xlink:href="#DejaVuSans-48"/>
       <use x="127.246094" xlink:href="#DejaVuSans-50"/>
       <use x="190.869141" xlink:href="#DejaVuSans-49"/>
       <use x="254.492188" xlink:href="#DejaVuSans-45"/>
       <use x="290.576172" xlink:href="#DejaVuSans-48"/>
       <use x="354.199219" xlink:href="#DejaVuSans-49"/>
       <use x="417.822266" xlink:href="#DejaVuSans-45"/>
       <use x="453.90625" xlink:href="#DejaVuSans-48"/>
       <use x="517.529297" xlink:href="#DejaVuSans-49"/>
      </g>
     </g>
    </g>
    <g id="xtick_6">
     <g id="line2d_6">
      <g>
       <use style="stroke:#000000;stroke-width:0.8;" x="218.689668" xlink:href="#mda94b59aed" y="220.230771"/>
      </g>
     </g>
     <g id="text_6">
      <!-- 2021-01-15 -->
      <g transform="translate(194.904551 262.869024)rotate(-30)scale(0.1 -0.1)">
       <use xlink:href="#DejaVuSans-50"/>
       <use x="63.623047" xlink:href="#DejaVuSans-48"/>
       <use x="127.246094" xlink:href="#DejaVuSans-50"/>
       <use x="190.869141" xlink:href="#DejaVuSans-49"/>
       <use x="254.492188" xlink:href="#DejaVuSans-45"/>
       <use x="290.576172" xlink:href="#DejaVuSans-48"/>
       <use x="354.199219" xlink:href="#DejaVuSans-49"/>
       <use x="417.822266" xlink:href="#DejaVuSans-45"/>
       <use x="453.90625" xlink:href="#DejaVuSans-49"/>
       <use x="517.529297" xlink:href="#DejaVuSans-53"/>
      </g>
     </g>
    </g>
    <g id="xtick_7">
     <g id="line2d_7">
      <g>
       <use style="stroke:#000000;stroke-width:0.8;" x="268.720312" xlink:href="#mda94b59aed" y="220.230771"/>
      </g>
     </g>
     <g id="text_7">
      <!-- 2021-01-29 -->
      <g transform="translate(244.935196 262.869024)rotate(-30)scale(0.1 -0.1)">
       <use xlink:href="#DejaVuSans-50"/>
       <use x="63.623047" xlink:href="#DejaVuSans-48"/>
       <use x="127.246094" xlink:href="#DejaVuSans-50"/>
       <use x="190.869141" xlink:href="#DejaVuSans-49"/>
       <use x="254.492188" xlink:href="#DejaVuSans-45"/>
       <use x="290.576172" xlink:href="#DejaVuSans-48"/>
       <use x="354.199219" xlink:href="#DejaVuSans-49"/>
       <use x="417.822266" xlink:href="#DejaVuSans-45"/>
       <use x="453.90625" xlink:href="#DejaVuSans-50"/>
       <use x="517.529297" xlink:href="#DejaVuSans-57"/>
      </g>
     </g>
    </g>
    <g id="xtick_8">
     <g id="line2d_8">
      <g>
       <use style="stroke:#000000;stroke-width:0.8;" x="279.441165" xlink:href="#mda94b59aed" y="220.230771"/>
      </g>
     </g>
     <g id="text_8">
      <!-- 2021-02-01 -->
      <g transform="translate(255.656048 262.869024)rotate(-30)scale(0.1 -0.1)">
       <use xlink:href="#DejaVuSans-50"/>
       <use x="63.623047" xlink:href="#DejaVuSans-48"/>
       <use x="127.246094" xlink:href="#DejaVuSans-50"/>
       <use x="190.869141" xlink:href="#DejaVuSans-49"/>
       <use x="254.492188" xlink:href="#DejaVuSans-45"/>
       <use x="290.576172" xlink:href="#DejaVuSans-48"/>
       <use x="354.199219" xlink:href="#DejaVuSans-50"/>
       <use x="417.822266" xlink:href="#DejaVuSans-45"/>
       <use x="453.90625" xlink:href="#DejaVuSans-48"/>
       <use x="517.529297" xlink:href="#DejaVuSans-49"/>
      </g>
     </g>
    </g>
    <g id="text_9">
     <!-- Date -->
     <defs>
      <path d="M 19.671875 64.796875 
L 19.671875 8.109375 
L 31.59375 8.109375 
Q 46.6875 8.109375 53.6875 14.9375 
Q 60.6875 21.78125 60.6875 36.53125 
Q 60.6875 51.171875 53.6875 57.984375 
Q 46.6875 64.796875 31.59375 64.796875 
z
M 9.8125 72.90625 
L 30.078125 72.90625 
Q 51.265625 72.90625 61.171875 64.09375 
Q 71.09375 55.28125 71.09375 36.53125 
Q 71.09375 17.671875 61.125 8.828125 
Q 51.171875 0 30.078125 0 
L 9.8125 0 
z
" id="DejaVuSans-68"/>
      <path d="M 34.28125 27.484375 
Q 23.390625 27.484375 19.1875 25 
Q 14.984375 22.515625 14.984375 16.5 
Q 14.984375 11.71875 18.140625 8.90625 
Q 21.296875 6.109375 26.703125 6.109375 
Q 34.1875 6.109375 38.703125 11.40625 
Q 43.21875 16.703125 43.21875 25.484375 
L 43.21875 27.484375 
z
M 52.203125 31.203125 
L 52.203125 0 
L 43.21875 0 
L 43.21875 8.296875 
Q 40.140625 3.328125 35.546875 0.953125 
Q 30.953125 -1.421875 24.3125 -1.421875 
Q 15.921875 -1.421875 10.953125 3.296875 
Q 6 8.015625 6 15.921875 
Q 6 25.140625 12.171875 29.828125 
Q 18.359375 34.515625 30.609375 34.515625 
L 43.21875 34.515625 
L 43.21875 35.40625 
Q 43.21875 41.609375 39.140625 45 
Q 35.0625 48.390625 27.6875 48.390625 
Q 23 48.390625 18.546875 47.265625 
Q 14.109375 46.140625 10.015625 43.890625 
L 10.015625 52.203125 
Q 14.9375 54.109375 19.578125 55.046875 
Q 24.21875 56 28.609375 56 
Q 40.484375 56 46.34375 49.84375 
Q 52.203125 43.703125 52.203125 31.203125 
z
" id="DejaVuSans-97"/>
      <path d="M 18.3125 70.21875 
L 18.3125 54.6875 
L 36.8125 54.6875 
L 36.8125 47.703125 
L 18.3125 47.703125 
L 18.3125 18.015625 
Q 18.3125 11.328125 20.140625 9.421875 
Q 21.96875 7.515625 27.59375 7.515625 
L 36.8125 7.515625 
L 36.8125 0 
L 27.59375 0 
Q 17.1875 0 13.234375 3.875 
Q 9.28125 7.765625 9.28125 18.015625 
L 9.28125 47.703125 
L 2.6875 47.703125 
L 2.6875 54.6875 
L 9.28125 54.6875 
L 9.28125 70.21875 
z
" id="DejaVuSans-116"/>
      <path d="M 56.203125 29.59375 
L 56.203125 25.203125 
L 14.890625 25.203125 
Q 15.484375 15.921875 20.484375 11.0625 
Q 25.484375 6.203125 34.421875 6.203125 
Q 39.59375 6.203125 44.453125 7.46875 
Q 49.3125 8.734375 54.109375 11.28125 
L 54.109375 2.78125 
Q 49.265625 0.734375 44.1875 -0.34375 
Q 39.109375 -1.421875 33.890625 -1.421875 
Q 20.796875 -1.421875 13.15625 6.1875 
Q 5.515625 13.8125 5.515625 26.8125 
Q 5.515625 40.234375 12.765625 48.109375 
Q 20.015625 56 32.328125 56 
Q 43.359375 56 49.78125 48.890625 
Q 56.203125 41.796875 56.203125 29.59375 
z
M 47.21875 32.234375 
Q 47.125 39.59375 43.09375 43.984375 
Q 39.0625 48.390625 32.421875 48.390625 
Q 24.90625 48.390625 20.390625 44.140625 
Q 15.875 39.890625 15.1875 32.171875 
z
" id="DejaVuSans-101"/>
     </defs>
     <g transform="translate(167.504219 276.268523)scale(0.1 -0.1)">
      <use xlink:href="#DejaVuSans-68"/>
      <use x="77.001953" xlink:href="#DejaVuSans-97"/>
      <use x="138.28125" xlink:href="#DejaVuSans-116"/>
      <use x="177.490234" xlink:href="#DejaVuSans-101"/>
     </g>
    </g>
   </g>
   <g id="matplotlib.axis_2">
    <g id="ytick_1">
     <g id="line2d_9">
      <defs>
       <path d="M 0 0 
L -3.5 0 
" id="mae46b659ad" style="stroke:#000000;stroke-width:0.8;"/>
      </defs>
      <g>
       <use style="stroke:#000000;stroke-width:0.8;" x="43.55" xlink:href="#mae46b659ad" y="210.806645"/>
      </g>
     </g>
     <g id="text_10">
      <!-- 0 -->
      <g transform="translate(30.1875 214.605864)scale(0.1 -0.1)">
       <use xlink:href="#DejaVuSans-48"/>
      </g>
     </g>
    </g>
    <g id="ytick_2">
     <g id="line2d_10">
      <g>
       <use style="stroke:#000000;stroke-width:0.8;" x="43.55" xlink:href="#mae46b659ad" y="187.24633"/>
      </g>
     </g>
     <g id="text_11">
      <!-- 5 -->
      <g transform="translate(30.1875 191.045549)scale(0.1 -0.1)">
       <use xlink:href="#DejaVuSans-53"/>
      </g>
     </g>
    </g>
    <g id="ytick_3">
     <g id="line2d_11">
      <g>
       <use style="stroke:#000000;stroke-width:0.8;" x="43.55" xlink:href="#mae46b659ad" y="163.686016"/>
      </g>
     </g>
     <g id="text_12">
      <!-- 10 -->
      <g transform="translate(23.825 167.485234)scale(0.1 -0.1)">
       <use xlink:href="#DejaVuSans-49"/>
       <use x="63.623047" xlink:href="#DejaVuSans-48"/>
      </g>
     </g>
    </g>
    <g id="ytick_4">
     <g id="line2d_12">
      <g>
       <use style="stroke:#000000;stroke-width:0.8;" x="43.55" xlink:href="#mae46b659ad" y="140.125701"/>
      </g>
     </g>
     <g id="text_13">
      <!-- 15 -->
      <g transform="translate(23.825 143.924919)scale(0.1 -0.1)">
       <use xlink:href="#DejaVuSans-49"/>
       <use x="63.623047" xlink:href="#DejaVuSans-53"/>
      </g>
     </g>
    </g>
    <g id="ytick_5">
     <g id="line2d_13">
      <g>
       <use style="stroke:#000000;stroke-width:0.8;" x="43.55" xlink:href="#mae46b659ad" y="116.565386"/>
      </g>
     </g>
     <g id="text_14">
      <!-- 20 -->
      <g transform="translate(23.825 120.364604)scale(0.1 -0.1)">
       <use xlink:href="#DejaVuSans-50"/>
       <use x="63.623047" xlink:href="#DejaVuSans-48"/>
      </g>
     </g>
    </g>
    <g id="ytick_6">
     <g id="line2d_14">
      <g>
       <use style="stroke:#000000;stroke-width:0.8;" x="43.55" xlink:href="#mae46b659ad" y="93.005071"/>
      </g>
     </g>
     <g id="text_15">
      <!-- 25 -->
      <g transform="translate(23.825 96.80429)scale(0.1 -0.1)">
       <use xlink:href="#DejaVuSans-50"/>
       <use x="63.623047" xlink:href="#DejaVuSans-53"/>
      </g>
     </g>
    </g>
    <g id="ytick_7">
     <g id="line2d_15">
      <g>
       <use style="stroke:#000000;stroke-width:0.8;" x="43.55" xlink:href="#mae46b659ad" y="69.444756"/>
      </g>
     </g>
     <g id="text_16">
      <!-- 30 -->
      <defs>
       <path d="M 40.578125 39.3125 
Q 47.65625 37.796875 51.625 33 
Q 55.609375 28.21875 55.609375 21.1875 
Q 55.609375 10.40625 48.1875 4.484375 
Q 40.765625 -1.421875 27.09375 -1.421875 
Q 22.515625 -1.421875 17.65625 -0.515625 
Q 12.796875 0.390625 7.625 2.203125 
L 7.625 11.71875 
Q 11.71875 9.328125 16.59375 8.109375 
Q 21.484375 6.890625 26.8125 6.890625 
Q 36.078125 6.890625 40.9375 10.546875 
Q 45.796875 14.203125 45.796875 21.1875 
Q 45.796875 27.640625 41.28125 31.265625 
Q 36.765625 34.90625 28.71875 34.90625 
L 20.21875 34.90625 
L 20.21875 43.015625 
L 29.109375 43.015625 
Q 36.375 43.015625 40.234375 45.921875 
Q 44.09375 48.828125 44.09375 54.296875 
Q 44.09375 59.90625 40.109375 62.90625 
Q 36.140625 65.921875 28.71875 65.921875 
Q 24.65625 65.921875 20.015625 65.03125 
Q 15.375 64.15625 9.8125 62.3125 
L 9.8125 71.09375 
Q 15.4375 72.65625 20.34375 73.4375 
Q 25.25 74.21875 29.59375 74.21875 
Q 40.828125 74.21875 47.359375 69.109375 
Q 53.90625 64.015625 53.90625 55.328125 
Q 53.90625 49.265625 50.4375 45.09375 
Q 46.96875 40.921875 40.578125 39.3125 
z
" id="DejaVuSans-51"/>
      </defs>
      <g transform="translate(23.825 73.243975)scale(0.1 -0.1)">
       <use xlink:href="#DejaVuSans-51"/>
       <use x="63.623047" xlink:href="#DejaVuSans-48"/>
      </g>
     </g>
    </g>
    <g id="ytick_8">
     <g id="line2d_16">
      <g>
       <use style="stroke:#000000;stroke-width:0.8;" x="43.55" xlink:href="#mae46b659ad" y="45.884441"/>
      </g>
     </g>
     <g id="text_17">
      <!-- 35 -->
      <g transform="translate(23.825 49.68366)scale(0.1 -0.1)">
       <use xlink:href="#DejaVuSans-51"/>
       <use x="63.623047" xlink:href="#DejaVuSans-53"/>
      </g>
     </g>
    </g>
    <g id="ytick_9">
     <g id="line2d_17">
      <g>
       <use style="stroke:#000000;stroke-width:0.8;" x="43.55" xlink:href="#mae46b659ad" y="22.324126"/>
      </g>
     </g>
     <g id="text_18">
      <!-- 40 -->
      <defs>
       <path d="M 37.796875 64.3125 
L 12.890625 25.390625 
L 37.796875 25.390625 
z
M 35.203125 72.90625 
L 47.609375 72.90625 
L 47.609375 25.390625 
L 58.015625 25.390625 
L 58.015625 17.1875 
L 47.609375 17.1875 
L 47.609375 0 
L 37.796875 0 
L 37.796875 17.1875 
L 4.890625 17.1875 
L 4.890625 26.703125 
z
" id="DejaVuSans-52"/>
      </defs>
      <g transform="translate(23.825 26.123345)scale(0.1 -0.1)">
       <use xlink:href="#DejaVuSans-52"/>
       <use x="63.623047" xlink:href="#DejaVuSans-48"/>
      </g>
     </g>
    </g>
    <g id="text_19">
     <!-- Students Registered -->
     <defs>
      <path d="M 53.515625 70.515625 
L 53.515625 60.890625 
Q 47.90625 63.578125 42.921875 64.890625 
Q 37.9375 66.21875 33.296875 66.21875 
Q 25.25 66.21875 20.875 63.09375 
Q 16.5 59.96875 16.5 54.203125 
Q 16.5 49.359375 19.40625 46.890625 
Q 22.3125 44.4375 30.421875 42.921875 
L 36.375 41.703125 
Q 47.40625 39.59375 52.65625 34.296875 
Q 57.90625 29 57.90625 20.125 
Q 57.90625 9.515625 50.796875 4.046875 
Q 43.703125 -1.421875 29.984375 -1.421875 
Q 24.8125 -1.421875 18.96875 -0.25 
Q 13.140625 0.921875 6.890625 3.21875 
L 6.890625 13.375 
Q 12.890625 10.015625 18.65625 8.296875 
Q 24.421875 6.59375 29.984375 6.59375 
Q 38.421875 6.59375 43.015625 9.90625 
Q 47.609375 13.234375 47.609375 19.390625 
Q 47.609375 24.75 44.3125 27.78125 
Q 41.015625 30.8125 33.5 32.328125 
L 27.484375 33.5 
Q 16.453125 35.6875 11.515625 40.375 
Q 6.59375 45.0625 6.59375 53.421875 
Q 6.59375 63.09375 13.40625 68.65625 
Q 20.21875 74.21875 32.171875 74.21875 
Q 37.3125 74.21875 42.625 73.28125 
Q 47.953125 72.359375 53.515625 70.515625 
z
" id="DejaVuSans-83"/>
      <path d="M 8.5 21.578125 
L 8.5 54.6875 
L 17.484375 54.6875 
L 17.484375 21.921875 
Q 17.484375 14.15625 20.5 10.265625 
Q 23.53125 6.390625 29.59375 6.390625 
Q 36.859375 6.390625 41.078125 11.03125 
Q 45.3125 15.671875 45.3125 23.6875 
L 45.3125 54.6875 
L 54.296875 54.6875 
L 54.296875 0 
L 45.3125 0 
L 45.3125 8.40625 
Q 42.046875 3.421875 37.71875 1 
Q 33.40625 -1.421875 27.6875 -1.421875 
Q 18.265625 -1.421875 13.375 4.4375 
Q 8.5 10.296875 8.5 21.578125 
z
M 31.109375 56 
z
" id="DejaVuSans-117"/>
      <path d="M 45.40625 46.390625 
L 45.40625 75.984375 
L 54.390625 75.984375 
L 54.390625 0 
L 45.40625 0 
L 45.40625 8.203125 
Q 42.578125 3.328125 38.25 0.953125 
Q 33.9375 -1.421875 27.875 -1.421875 
Q 17.96875 -1.421875 11.734375 6.484375 
Q 5.515625 14.40625 5.515625 27.296875 
Q 5.515625 40.1875 11.734375 48.09375 
Q 17.96875 56 27.875 56 
Q 33.9375 56 38.25 53.625 
Q 42.578125 51.265625 45.40625 46.390625 
z
M 14.796875 27.296875 
Q 14.796875 17.390625 18.875 11.75 
Q 22.953125 6.109375 30.078125 6.109375 
Q 37.203125 6.109375 41.296875 11.75 
Q 45.40625 17.390625 45.40625 27.296875 
Q 45.40625 37.203125 41.296875 42.84375 
Q 37.203125 48.484375 30.078125 48.484375 
Q 22.953125 48.484375 18.875 42.84375 
Q 14.796875 37.203125 14.796875 27.296875 
z
" id="DejaVuSans-100"/>
      <path d="M 54.890625 33.015625 
L 54.890625 0 
L 45.90625 0 
L 45.90625 32.71875 
Q 45.90625 40.484375 42.875 44.328125 
Q 39.84375 48.1875 33.796875 48.1875 
Q 26.515625 48.1875 22.3125 43.546875 
Q 18.109375 38.921875 18.109375 30.90625 
L 18.109375 0 
L 9.078125 0 
L 9.078125 54.6875 
L 18.109375 54.6875 
L 18.109375 46.1875 
Q 21.34375 51.125 25.703125 53.5625 
Q 30.078125 56 35.796875 56 
Q 45.21875 56 50.046875 50.171875 
Q 54.890625 44.34375 54.890625 33.015625 
z
" id="DejaVuSans-110"/>
      <path d="M 44.28125 53.078125 
L 44.28125 44.578125 
Q 40.484375 46.53125 36.375 47.5 
Q 32.28125 48.484375 27.875 48.484375 
Q 21.1875 48.484375 17.84375 46.4375 
Q 14.5 44.390625 14.5 40.28125 
Q 14.5 37.15625 16.890625 35.375 
Q 19.28125 33.59375 26.515625 31.984375 
L 29.59375 31.296875 
Q 39.15625 29.25 43.1875 25.515625 
Q 47.21875 21.78125 47.21875 15.09375 
Q 47.21875 7.46875 41.1875 3.015625 
Q 35.15625 -1.421875 24.609375 -1.421875 
Q 20.21875 -1.421875 15.453125 -0.5625 
Q 10.6875 0.296875 5.421875 2 
L 5.421875 11.28125 
Q 10.40625 8.6875 15.234375 7.390625 
Q 20.0625 6.109375 24.8125 6.109375 
Q 31.15625 6.109375 34.5625 8.28125 
Q 37.984375 10.453125 37.984375 14.40625 
Q 37.984375 18.0625 35.515625 20.015625 
Q 33.0625 21.96875 24.703125 23.78125 
L 21.578125 24.515625 
Q 13.234375 26.265625 9.515625 29.90625 
Q 5.8125 33.546875 5.8125 39.890625 
Q 5.8125 47.609375 11.28125 51.796875 
Q 16.75 56 26.8125 56 
Q 31.78125 56 36.171875 55.265625 
Q 40.578125 54.546875 44.28125 53.078125 
z
" id="DejaVuSans-115"/>
      <path id="DejaVuSans-32"/>
      <path d="M 44.390625 34.1875 
Q 47.5625 33.109375 50.5625 29.59375 
Q 53.5625 26.078125 56.59375 19.921875 
L 66.609375 0 
L 56 0 
L 46.6875 18.703125 
Q 43.0625 26.03125 39.671875 28.421875 
Q 36.28125 30.8125 30.421875 30.8125 
L 19.671875 30.8125 
L 19.671875 0 
L 9.8125 0 
L 9.8125 72.90625 
L 32.078125 72.90625 
Q 44.578125 72.90625 50.734375 67.671875 
Q 56.890625 62.453125 56.890625 51.90625 
Q 56.890625 45.015625 53.6875 40.46875 
Q 50.484375 35.9375 44.390625 34.1875 
z
M 19.671875 64.796875 
L 19.671875 38.921875 
L 32.078125 38.921875 
Q 39.203125 38.921875 42.84375 42.21875 
Q 46.484375 45.515625 46.484375 51.90625 
Q 46.484375 58.296875 42.84375 61.546875 
Q 39.203125 64.796875 32.078125 64.796875 
z
" id="DejaVuSans-82"/>
      <path d="M 45.40625 27.984375 
Q 45.40625 37.75 41.375 43.109375 
Q 37.359375 48.484375 30.078125 48.484375 
Q 22.859375 48.484375 18.828125 43.109375 
Q 14.796875 37.75 14.796875 27.984375 
Q 14.796875 18.265625 18.828125 12.890625 
Q 22.859375 7.515625 30.078125 7.515625 
Q 37.359375 7.515625 41.375 12.890625 
Q 45.40625 18.265625 45.40625 27.984375 
z
M 54.390625 6.78125 
Q 54.390625 -7.171875 48.1875 -13.984375 
Q 42 -20.796875 29.203125 -20.796875 
Q 24.46875 -20.796875 20.265625 -20.09375 
Q 16.0625 -19.390625 12.109375 -17.921875 
L 12.109375 -9.1875 
Q 16.0625 -11.328125 19.921875 -12.34375 
Q 23.78125 -13.375 27.78125 -13.375 
Q 36.625 -13.375 41.015625 -8.765625 
Q 45.40625 -4.15625 45.40625 5.171875 
L 45.40625 9.625 
Q 42.625 4.78125 38.28125 2.390625 
Q 33.9375 0 27.875 0 
Q 17.828125 0 11.671875 7.65625 
Q 5.515625 15.328125 5.515625 27.984375 
Q 5.515625 40.671875 11.671875 48.328125 
Q 17.828125 56 27.875 56 
Q 33.9375 56 38.28125 53.609375 
Q 42.625 51.21875 45.40625 46.390625 
L 45.40625 54.6875 
L 54.390625 54.6875 
z
" id="DejaVuSans-103"/>
      <path d="M 9.421875 54.6875 
L 18.40625 54.6875 
L 18.40625 0 
L 9.421875 0 
z
M 9.421875 75.984375 
L 18.40625 75.984375 
L 18.40625 64.59375 
L 9.421875 64.59375 
z
" id="DejaVuSans-105"/>
      <path d="M 41.109375 46.296875 
Q 39.59375 47.171875 37.8125 47.578125 
Q 36.03125 48 33.890625 48 
Q 26.265625 48 22.1875 43.046875 
Q 18.109375 38.09375 18.109375 28.8125 
L 18.109375 0 
L 9.078125 0 
L 9.078125 54.6875 
L 18.109375 54.6875 
L 18.109375 46.1875 
Q 20.953125 51.171875 25.484375 53.578125 
Q 30.03125 56 36.53125 56 
Q 37.453125 56 38.578125 55.875 
Q 39.703125 55.765625 41.0625 55.515625 
z
" id="DejaVuSans-114"/>
     </defs>
     <g transform="translate(17.745313 167.498979)rotate(-90)scale(0.1 -0.1)">
      <use xlink:href="#DejaVuSans-83"/>
      <use x="63.476562" xlink:href="#DejaVuSans-116"/>
      <use x="102.685547" xlink:href="#DejaVuSans-117"/>
      <use x="166.064453" xlink:href="#DejaVuSans-100"/>
      <use x="229.541016" xlink:href="#DejaVuSans-101"/>
      <use x="291.064453" xlink:href="#DejaVuSans-110"/>
      <use x="354.443359" xlink:href="#DejaVuSans-116"/>
      <use x="393.652344" xlink:href="#DejaVuSans-115"/>
      <use x="445.751953" xlink:href="#DejaVuSans-32"/>
      <use x="477.539062" xlink:href="#DejaVuSans-82"/>
      <use x="546.958984" xlink:href="#DejaVuSans-101"/>
      <use x="608.482422" xlink:href="#DejaVuSans-103"/>
      <use x="671.958984" xlink:href="#DejaVuSans-105"/>
      <use x="699.742188" xlink:href="#DejaVuSans-115"/>
      <use x="751.841797" xlink:href="#DejaVuSans-116"/>
      <use x="791.050781" xlink:href="#DejaVuSans-101"/>
      <use x="852.574219" xlink:href="#DejaVuSans-114"/>
      <use x="893.65625" xlink:href="#DejaVuSans-101"/>
      <use x="955.179688" xlink:href="#DejaVuSans-100"/>
     </g>
    </g>
   </g>
   <g id="line2d_18">
    <path clip-path="url(#p60c1813643)" d="M 55.905 201.382519 
L 60.185125 201.382519 
L 60.185125 196.670456 
L 60.259573 196.670456 
L 63.014262 196.670456 
L 63.014262 191.958393 
L 63.088711 191.958393 
L 63.60985 191.958393 
L 63.60985 187.24633 
L 63.684291 187.24633 
L 66.736748 187.24633 
L 66.736748 177.822204 
L 66.811216 177.822204 
L 67.034568 177.822204 
L 67.034568 173.110142 
L 67.109025 173.110142 
L 67.332373 173.110142 
L 67.332373 168.398079 
L 67.406812 168.398079 
L 67.481269 168.398079 
L 67.481269 163.686016 
L 67.555737 163.686016 
L 70.905996 163.686016 
L 70.905996 158.973953 
L 70.980439 158.973953 
L 74.330711 158.973953 
L 74.330711 154.26189 
L 74.405171 154.26189 
L 80.882356 154.26189 
L 80.882356 144.837764 
L 80.95677 144.837764 
L 81.180152 144.837764 
L 81.180152 140.125701 
L 81.254586 140.125701 
L 81.924654 140.125701 
L 81.924654 135.413638 
L 81.999093 135.413638 
L 84.307049 135.413638 
L 84.307049 130.701575 
L 84.381499 130.701575 
L 85.051564 130.701575 
L 85.051564 125.989512 
L 85.126016 125.989512 
L 85.200466 125.989512 
L 85.200466 121.277449 
L 85.274921 121.277449 
L 85.349365 121.277449 
L 85.386585 107.14126 
L 85.423813 107.14126 
L 87.880657 107.14126 
L 87.880657 102.429197 
L 87.955138 102.429197 
L 88.029554 102.429197 
L 88.029554 93.005071 
L 88.104035 93.005071 
L 88.178454 93.005071 
L 88.178454 88.293008 
L 88.252912 88.293008 
L 88.32737 88.293008 
L 88.364593 74.156819 
L 88.401821 74.156819 
L 88.625165 74.156819 
L 88.625165 60.02063 
L 88.69963 60.02063 
L 88.774085 60.02063 
L 88.774085 50.596504 
L 88.848545 50.596504 
L 88.922964 50.596504 
L 88.922964 31.748252 
L 88.99744 31.748252 
L 89.071885 31.748252 
L 89.071885 27.036189 
L 89.146351 27.036189 
L 89.816395 27.036189 
L 89.816395 22.324126 
L 89.890848 22.324126 
L 130.764104 22.324126 
L 130.764104 27.036189 
L 130.838526 27.036189 
L 130.913003 27.036189 
L 130.913003 22.324126 
L 130.98745 22.324126 
L 131.210788 22.324126 
L 131.210788 27.036189 
L 131.285256 27.036189 
L 131.657473 27.036189 
L 131.657473 31.748252 
L 131.731953 31.748252 
L 131.955311 31.748252 
L 131.955311 36.460315 
L 132.029742 36.460315 
L 135.975602 36.460315 
L 135.975602 41.172378 
L 136.050051 41.172378 
L 144.760761 41.172378 
L 144.760761 36.460315 
L 144.835214 36.460315 
L 161.288721 36.460315 
L 161.288721 41.172378 
L 161.363192 41.172378 
L 167.095864 41.172378 
L 167.095864 36.460315 
L 167.17031 36.460315 
L 185.261775 36.460315 
L 185.261775 31.748252 
L 185.336221 31.748252 
L 187.644148 31.748252 
L 187.644148 27.036189 
L 187.718602 27.036189 
L 191.813388 27.036189 
L 191.813388 22.324126 
L 213.255102 22.324126 
L 213.255102 31.748252 
L 213.329524 31.748252 
L 213.701767 31.748252 
L 213.701767 36.460315 
L 213.776253 36.460315 
L 239.610516 36.460315 
L 239.610516 41.172378 
L 239.684993 41.172378 
L 244.970948 41.172378 
L 244.970948 36.460315 
L 245.045389 36.460315 
L 248.544574 36.460315 
L 248.544574 31.748252 
L 248.619003 31.748252 
L 249.586843 31.748252 
L 249.586843 27.036189 
L 249.661332 27.036189 
L 259.71213 27.036189 
L 259.71213 22.324126 
L 259.786585 22.324126 
L 279.069194 22.324126 
L 279.069194 27.036189 
L 279.143701 27.036189 
L 295.894978 27.036189 
L 295.894978 22.324126 
L 295.969437 22.324126 
L 303.005 22.324126 
L 303.005 22.324126 
" style="fill:none;stroke:#1b9e77;stroke-linecap:square;stroke-width:1.5;"/>
   </g>
   <g id="line2d_19">
    <path clip-path="url(#p60c1813643)" d="M 55.905 210.806645 
L 56.061885 210.806645 
L 56.061885 201.382519 
L 56.172237 201.382519 
L 56.760423 201.382519 
L 56.760423 196.670456 
L 56.832365 196.670456 
L 60.185125 196.670456 
L 60.185125 191.958393 
L 60.259573 191.958393 
L 63.014262 191.958393 
L 63.014262 177.822204 
L 63.088711 177.822204 
L 63.163148 177.822204 
L 63.163148 173.110142 
L 63.23761 173.110142 
L 63.312048 173.110142 
L 63.312048 154.26189 
L 63.386507 154.26189 
L 63.460948 154.26189 
L 63.460948 149.549827 
L 63.535397 149.549827 
L 63.60985 149.549827 
L 63.60985 140.125701 
L 63.684291 140.125701 
L 63.758773 140.125701 
L 63.758773 125.989512 
L 63.83322 125.989512 
L 66.438971 125.989512 
L 66.438971 121.277449 
L 66.513419 121.277449 
L 66.587855 121.277449 
L 66.587855 116.565386 
L 66.662303 116.565386 
L 67.034568 116.565386 
L 67.034568 111.853323 
L 67.109025 111.853323 
L 67.332373 111.853323 
L 67.332373 97.717134 
L 67.406812 97.717134 
L 67.481269 97.717134 
L 67.481269 93.005071 
L 67.555737 93.005071 
L 70.459278 93.005071 
L 70.459278 88.293008 
L 70.533745 88.293008 
L 70.608174 88.293008 
L 70.608174 83.580945 
L 70.682646 83.580945 
L 70.905996 83.580945 
L 70.905996 78.868882 
L 70.980439 78.868882 
L 71.35269 78.868882 
L 71.35269 74.156819 
L 71.427133 74.156819 
L 73.884023 74.156819 
L 73.884023 69.444756 
L 73.958446 69.444756 
L 80.882356 69.444756 
L 80.882356 45.884441 
L 80.95677 45.884441 
L 81.031242 45.884441 
L 81.031242 36.460315 
L 81.10567 36.460315 
L 81.180152 36.460315 
L 81.180152 31.748252 
L 81.254586 31.748252 
L 131.359677 31.748252 
L 131.359677 36.460315 
L 131.434141 36.460315 
L 131.508572 36.460315 
L 131.508572 31.748252 
L 131.583024 31.748252 
L 139.549211 31.748252 
L 139.549211 36.460315 
L 139.623686 36.460315 
L 139.698122 36.460315 
L 139.698122 31.748252 
L 139.772568 31.748252 
L 213.255102 31.748252 
L 213.255102 22.324126 
L 213.329524 22.324126 
L 303.005 22.324126 
L 303.005 22.324126 
" style="fill:none;stroke:#d95f02;stroke-linecap:square;stroke-width:1.5;"/>
   </g>
   <g id="line2d_20">
    <path clip-path="url(#p60c1813643)" d="M 86.987282 196.670456 
L 87.731753 196.670456 
L 87.731753 182.534267 
L 87.806327 182.534267 
L 87.880657 182.534267 
L 87.880657 177.822204 
L 87.955138 177.822204 
L 88.029554 177.822204 
L 88.029554 158.973953 
L 88.104035 158.973953 
L 88.32737 158.973953 
L 88.32737 144.837764 
L 88.401821 144.837764 
L 88.625165 144.837764 
L 88.625165 116.565386 
L 88.69963 116.565386 
L 88.922964 116.565386 
L 88.922964 107.14126 
L 88.99744 107.14126 
L 89.071885 107.14126 
L 89.071885 102.429197 
L 89.146351 102.429197 
L 89.220773 102.429197 
L 89.220773 97.717134 
L 89.295249 97.717134 
L 89.518599 97.717134 
L 89.518599 93.005071 
L 89.593014 93.005071 
L 91.603176 93.005071 
L 91.603176 74.156819 
L 91.677652 74.156819 
L 91.900988 74.156819 
L 91.900988 69.444756 
L 91.975426 69.444756 
L 92.198812 69.444756 
L 92.198812 60.02063 
L 92.273247 60.02063 
L 92.347713 60.02063 
L 92.347713 55.308567 
L 92.422144 55.308567 
L 92.645519 55.308567 
L 92.645519 50.596504 
L 92.719943 50.596504 
L 95.772421 50.596504 
L 95.772421 45.884441 
L 95.846856 45.884441 
L 95.921296 45.884441 
L 95.921296 41.172378 
L 95.99578 41.172378 
L 96.070205 41.172378 
L 96.070205 36.460315 
L 96.144673 36.460315 
L 96.516927 36.460315 
L 96.516927 31.748252 
L 96.59138 31.748252 
L 106.046551 31.748252 
L 106.046551 22.324126 
L 106.12102 22.324126 
L 124.361344 22.324126 
L 124.361344 27.036189 
L 124.435803 27.036189 
L 125.254748 27.036189 
L 125.254748 22.324126 
L 125.329201 22.324126 
L 138.209128 22.324126 
L 138.209128 27.036189 
L 138.283582 27.036189 
L 139.400328 27.036189 
L 139.400328 22.324126 
L 139.474787 22.324126 
L 235.739116 22.324126 
L 235.739116 27.036189 
L 235.813558 27.036189 
L 239.908327 27.036189 
L 239.908327 22.324126 
L 239.982769 22.324126 
L 270.284071 22.324126 
L 270.284071 27.036189 
L 270.358534 27.036189 
L 270.432981 27.036189 
L 270.432981 22.324126 
L 270.507423 22.324126 
L 270.879657 22.324126 
L 270.879657 27.036189 
L 270.954124 27.036189 
L 271.32636 27.036189 
L 271.32636 22.324126 
L 271.400809 22.324126 
L 278.622497 22.324126 
L 278.622497 27.036189 
L 278.696982 27.036189 
L 279.069194 27.036189 
L 279.069194 22.324126 
L 279.143701 22.324126 
L 289.938979 22.324126 
L 289.938979 27.036189 
L 290.013418 27.036189 
L 293.363694 27.036189 
L 293.363694 22.324126 
L 293.438118 22.324126 
L 303.005 22.324126 
L 303.005 22.324126 
" style="fill:none;stroke:#7570b3;stroke-linecap:square;stroke-width:1.5;"/>
   </g>
   <g id="line2d_21">
    <path clip-path="url(#p60c1813643)" d="M 55.905 182.534267 
L 56.061885 182.534267 
L 56.061885 177.822204 
L 56.172237 177.822204 
L 56.832365 177.822204 
L 56.832365 173.110142 
L 59.214804 173.110142 
L 59.214804 168.398079 
L 59.440642 168.398079 
L 59.440642 163.686016 
L 59.5151 163.686016 
L 59.589534 163.686016 
L 59.589534 158.973953 
L 59.663997 158.973953 
L 60.036256 158.973953 
L 60.036256 144.837764 
L 60.110722 144.837764 
L 60.185125 144.837764 
L 60.185125 140.125701 
L 60.259573 140.125701 
L 63.163148 140.125701 
L 63.163148 130.701575 
L 63.23761 130.701575 
L 63.312048 130.701575 
L 63.312048 125.989512 
L 63.386507 125.989512 
L 63.460948 125.989512 
L 63.460948 130.701575 
L 63.535397 130.701575 
L 63.758773 130.701575 
L 63.758773 125.989512 
L 63.83322 125.989512 
L 63.907644 125.989512 
L 63.907644 116.565386 
L 63.98209 116.565386 
L 64.652166 116.565386 
L 64.652166 107.14126 
L 64.726625 107.14126 
L 66.290073 107.14126 
L 66.290073 102.429197 
L 66.364516 102.429197 
L 66.438971 102.429197 
L 66.438971 83.580945 
L 66.513419 83.580945 
L 66.587855 83.580945 
L 66.587855 74.156819 
L 66.662303 74.156819 
L 66.885672 74.156819 
L 66.885672 69.444756 
L 66.960124 69.444756 
L 67.034568 69.444756 
L 67.034568 64.732693 
L 67.109025 64.732693 
L 67.183473 64.732693 
L 67.183473 60.02063 
L 67.257932 60.02063 
L 67.332373 60.02063 
L 67.332373 45.884441 
L 67.406812 45.884441 
L 67.481269 45.884441 
L 67.481269 41.172378 
L 67.555737 41.172378 
L 67.630179 41.172378 
L 67.630179 36.460315 
L 67.704616 36.460315 
L 70.161471 36.460315 
L 70.161471 27.036189 
L 70.235933 27.036189 
L 70.310404 27.036189 
L 70.310404 22.324126 
L 70.384847 22.324126 
L 87.880657 22.324126 
L 87.880657 27.036189 
L 87.955138 27.036189 
L 88.029554 27.036189 
L 88.029554 22.324126 
L 88.104035 22.324126 
L 235.590191 22.324126 
L 235.590191 27.036189 
L 235.664648 27.036189 
L 235.739116 27.036189 
L 235.739116 22.324126 
L 235.813558 22.324126 
L 295.894978 22.324126 
L 295.894978 27.036189 
L 295.969437 27.036189 
L 296.04391 27.036189 
L 296.04391 22.324126 
L 296.118358 22.324126 
L 303.005 22.324126 
L 303.005 22.324126 
" style="fill:none;stroke:#e7298a;stroke-linecap:square;stroke-width:1.5;"/>
   </g>
   <g id="line2d_22">
    <path clip-path="url(#p60c1813643)" d="M 55.905 201.382519 
L 59.887363 201.382519 
L 59.887363 196.670456 
L 59.961791 196.670456 
L 62.865367 196.670456 
L 62.865367 191.958393 
L 62.93979 191.958393 
L 63.014262 191.958393 
L 63.014262 187.24633 
L 63.088711 187.24633 
L 63.163148 187.24633 
L 63.163148 177.822204 
L 63.23761 177.822204 
L 63.312048 177.822204 
L 63.312048 173.110142 
L 63.386507 173.110142 
L 63.460948 173.110142 
L 63.460948 168.398079 
L 63.535397 168.398079 
L 63.60985 168.398079 
L 63.60985 163.686016 
L 63.684291 163.686016 
L 63.907644 163.686016 
L 63.907644 158.973953 
L 63.98209 158.973953 
L 66.438971 158.973953 
L 66.438971 149.549827 
L 66.513419 149.549827 
L 66.587855 149.549827 
L 66.587855 144.837764 
L 66.662303 144.837764 
L 67.183473 144.837764 
L 67.183473 140.125701 
L 67.257932 140.125701 
L 67.332373 140.125701 
L 67.332373 130.701575 
L 67.406812 130.701575 
L 80.882356 130.701575 
L 80.882356 125.989512 
L 80.95677 125.989512 
L 81.031242 125.989512 
L 81.031242 121.277449 
L 81.10567 121.277449 
L 81.180152 121.277449 
L 81.180152 116.565386 
L 81.254586 116.565386 
L 81.329037 116.565386 
L 81.329037 111.853323 
L 81.40348 111.853323 
L 81.477953 111.853323 
L 81.477953 102.429197 
L 81.552386 102.429197 
L 81.626856 102.429197 
L 81.626856 97.717134 
L 81.701287 97.717134 
L 84.307049 97.717134 
L 84.344277 83.580945 
L 84.381499 83.580945 
L 84.604858 83.580945 
L 84.604858 74.156819 
L 84.679305 74.156819 
L 85.051564 74.156819 
L 85.051564 69.444756 
L 85.126016 69.444756 
L 85.200466 69.444756 
L 85.200466 60.02063 
L 85.274921 60.02063 
L 85.349365 60.02063 
L 85.349365 36.460315 
L 85.423813 36.460315 
L 85.498243 36.460315 
L 85.498243 22.324126 
L 85.572762 22.324126 
L 87.731753 22.324126 
L 87.731753 27.036189 
L 87.806327 27.036189 
L 88.029554 27.036189 
L 88.029554 22.324126 
L 88.104035 22.324126 
L 124.063532 22.324126 
L 124.063532 27.036189 
L 124.138008 27.036189 
L 124.212464 27.036189 
L 124.212464 22.324126 
L 124.286884 22.324126 
L 130.764104 22.324126 
L 130.764104 27.036189 
L 130.838526 27.036189 
L 131.061865 27.036189 
L 131.061865 22.324126 
L 131.136352 22.324126 
L 131.359677 22.324126 
L 131.359677 27.036189 
L 131.434141 27.036189 
L 131.955311 27.036189 
L 131.955311 22.324126 
L 132.029742 22.324126 
L 303.005 22.324126 
L 303.005 22.324126 
" style="fill:none;stroke:#66a61e;stroke-linecap:square;stroke-width:1.5;"/>
   </g>
   <g id="line2d_23">
    <path clip-path="url(#p60c1813643)" d="M 55.905 191.958393 
L 63.014262 191.958393 
L 63.014262 187.24633 
L 63.088711 187.24633 
L 63.758773 187.24633 
L 63.758773 182.534267 
L 63.83322 182.534267 
L 64.056565 182.534267 
L 64.056565 177.822204 
L 64.131024 177.822204 
L 66.885672 177.822204 
L 66.885672 173.110142 
L 66.960124 173.110142 
L 67.183473 173.110142 
L 67.183473 168.398079 
L 67.257932 168.398079 
L 70.161471 168.398079 
L 70.161471 163.686016 
L 70.235933 163.686016 
L 80.733434 163.686016 
L 80.733434 154.26189 
L 80.80787 154.26189 
L 80.882356 154.26189 
L 80.882356 144.837764 
L 80.95677 144.837764 
L 81.329037 144.837764 
L 81.329037 140.125701 
L 81.40348 140.125701 
L 81.924654 140.125701 
L 81.924654 135.413638 
L 81.999093 135.413638 
L 84.604858 135.413638 
L 84.604858 130.701575 
L 84.679305 130.701575 
L 84.902634 130.701575 
L 84.902634 121.277449 
L 84.977123 121.277449 
L 85.200466 121.277449 
L 85.200466 116.565386 
L 85.274921 116.565386 
L 86.093872 116.565386 
L 86.093872 111.853323 
L 86.168313 111.853323 
L 87.731753 111.853323 
L 87.731753 107.14126 
L 87.806327 107.14126 
L 88.029554 107.14126 
L 88.029554 102.429197 
L 88.104035 102.429197 
L 88.178454 102.429197 
L 88.178454 93.005071 
L 88.252912 93.005071 
L 88.476279 93.005071 
L 88.476279 88.293008 
L 88.550747 88.293008 
L 88.625165 88.293008 
L 88.662405 74.156819 
L 88.69963 74.156819 
L 88.774085 74.156819 
L 88.774085 64.732693 
L 88.848545 64.732693 
L 89.369665 64.732693 
L 89.369665 69.444756 
L 89.444148 69.444756 
L 91.603176 69.444756 
L 91.603176 60.02063 
L 91.677652 60.02063 
L 91.752113 60.02063 
L 91.752113 55.308567 
L 91.826563 55.308567 
L 92.049894 55.308567 
L 92.049894 50.596504 
L 92.124346 50.596504 
L 92.198812 50.596504 
L 92.198812 41.172378 
L 92.273247 41.172378 
L 92.347713 41.172378 
L 92.347713 36.460315 
L 92.422144 36.460315 
L 92.645519 36.460315 
L 92.645519 31.748252 
L 92.719943 31.748252 
L 214.892995 31.748252 
L 214.892995 36.460315 
L 214.967428 36.460315 
L 218.317694 36.460315 
L 218.317694 31.748252 
L 218.392164 31.748252 
L 303.005 31.748252 
L 303.005 31.748252 
" style="fill:none;stroke:#e6ab02;stroke-linecap:square;stroke-width:1.5;"/>
   </g>
   <g id="line2d_24">
    <path clip-path="url(#p60c1813643)" d="M 55.905 196.670456 
L 59.887363 196.670456 
L 59.887363 191.958393 
L 59.961791 191.958393 
L 62.865367 191.958393 
L 62.865367 187.24633 
L 62.93979 187.24633 
L 63.014262 187.24633 
L 63.014262 182.534267 
L 63.088711 182.534267 
L 63.312048 182.534267 
L 63.312048 177.822204 
L 63.386507 177.822204 
L 63.460948 177.822204 
L 63.460948 173.110142 
L 63.535397 173.110142 
L 63.60985 173.110142 
L 63.60985 163.686016 
L 63.684291 163.686016 
L 63.758773 163.686016 
L 63.758773 158.973953 
L 63.83322 158.973953 
L 63.907644 158.973953 
L 63.907644 154.26189 
L 63.98209 154.26189 
L 66.290073 154.26189 
L 66.290073 149.549827 
L 66.364516 149.549827 
L 66.438971 149.549827 
L 66.438971 140.125701 
L 66.513419 140.125701 
L 66.736748 140.125701 
L 66.736748 135.413638 
L 66.811216 135.413638 
L 66.885672 135.413638 
L 66.885672 125.989512 
L 66.960124 125.989512 
L 67.183473 125.989512 
L 67.183473 121.277449 
L 67.257932 121.277449 
L 67.481269 121.277449 
L 67.481269 116.565386 
L 67.555737 116.565386 
L 67.630179 116.565386 
L 67.630179 111.853323 
L 67.704616 111.853323 
L 70.310404 111.853323 
L 70.310404 107.14126 
L 70.384847 107.14126 
L 70.905996 107.14126 
L 70.905996 102.429197 
L 70.980439 102.429197 
L 74.777391 102.429197 
L 74.777391 97.717134 
L 74.851857 97.717134 
L 80.733434 97.717134 
L 80.733434 93.005071 
L 80.80787 93.005071 
L 81.180152 93.005071 
L 81.180152 78.868882 
L 81.254586 78.868882 
L 81.329037 78.868882 
L 81.329037 69.444756 
L 81.40348 69.444756 
L 81.477953 69.444756 
L 81.477953 60.02063 
L 81.552386 60.02063 
L 81.924654 60.02063 
L 81.924654 55.308567 
L 81.999093 55.308567 
L 84.009254 55.308567 
L 84.009254 50.596504 
L 84.0837 50.596504 
L 84.455947 50.596504 
L 84.455947 45.884441 
L 84.53042 45.884441 
L 84.604858 45.884441 
L 84.604858 41.172378 
L 84.679305 41.172378 
L 84.753749 41.172378 
L 84.753749 36.460315 
L 84.828195 36.460315 
L 85.200466 36.460315 
L 85.200466 31.748252 
L 85.274921 31.748252 
L 303.005 31.748252 
L 303.005 31.748252 
" style="fill:none;stroke:#a6761d;stroke-linecap:square;stroke-width:1.5;"/>
   </g>
   <g id="line2d_25">
    <path clip-path="url(#p60c1813643)" d="M 55.905 196.670456 
L 59.214804 196.670456 
L 59.214804 191.958393 
L 63.60985 191.958393 
L 63.60985 187.24633 
L 63.684291 187.24633 
L 66.587855 187.24633 
L 66.587855 182.534267 
L 66.662303 182.534267 
L 66.885672 182.534267 
L 66.885672 177.822204 
L 66.960124 177.822204 
L 67.332373 177.822204 
L 67.332373 173.110142 
L 67.406812 173.110142 
L 67.481269 173.110142 
L 67.481269 168.398079 
L 67.555737 168.398079 
L 68.37468 168.398079 
L 68.37468 163.686016 
L 68.449145 163.686016 
L 81.180152 163.686016 
L 81.180152 154.26189 
L 81.254586 154.26189 
L 84.604858 154.26189 
L 84.604858 149.549827 
L 84.679305 149.549827 
L 85.349365 149.549827 
L 85.349365 144.837764 
L 85.423813 144.837764 
L 85.79608 144.837764 
L 85.79608 140.125701 
L 85.870521 140.125701 
L 88.029554 140.125701 
L 88.029554 135.413638 
L 88.104035 135.413638 
L 88.178454 135.413638 
L 88.178454 125.989512 
L 88.252912 125.989512 
L 88.625165 125.989512 
L 88.625165 116.565386 
L 88.69963 116.565386 
L 91.900988 116.565386 
L 91.900988 111.853323 
L 91.975426 111.853323 
L 92.347713 111.853323 
L 92.347713 107.14126 
L 92.422144 107.14126 
L 92.794385 107.14126 
L 92.794385 102.429197 
L 92.868852 102.429197 
L 96.516927 102.429197 
L 96.516927 97.717134 
L 96.59138 97.717134 
L 106.791071 97.717134 
L 106.791071 93.005071 
L 106.865531 93.005071 
L 110.215777 93.005071 
L 110.215777 88.293008 
L 110.290245 88.293008 
L 114.087222 88.293008 
L 114.087222 93.005071 
L 114.161662 93.005071 
L 131.210788 93.005071 
L 131.210788 88.293008 
L 131.285256 88.293008 
L 131.359677 88.293008 
L 131.359677 93.005071 
L 131.434141 93.005071 
L 135.08221 93.005071 
L 135.08221 88.293008 
L 135.156678 88.293008 
L 161.288721 88.293008 
L 161.288721 83.580945 
L 161.363192 83.580945 
L 185.112844 83.580945 
L 185.112844 78.868882 
L 185.187293 78.868882 
L 192.706797 78.868882 
L 192.706797 83.580945 
L 192.78124 83.580945 
L 239.908327 83.580945 
L 239.908327 88.293008 
L 239.982769 88.293008 
L 241.695147 88.293008 
L 241.695147 93.005071 
L 241.769595 93.005071 
L 254.202808 93.005071 
L 254.202808 88.293008 
L 254.277243 88.293008 
L 256.287415 88.293008 
L 256.287415 83.580945 
L 256.36187 83.580945 
L 259.265401 83.580945 
L 259.265401 78.868882 
L 259.339883 78.868882 
L 263.434617 78.868882 
L 263.434617 83.580945 
L 263.509082 83.580945 
L 278.622497 83.580945 
L 278.622497 78.868882 
L 278.696982 78.868882 
L 303.005 78.868882 
L 303.005 78.868882 
" style="fill:none;stroke:#666666;stroke-linecap:square;stroke-width:1.5;"/>
   </g>
   <g id="line2d_26">
    <path clip-path="url(#p60c1813643)" d="M 55.905 201.382519 
L 63.163148 201.382519 
L 63.163148 196.670456 
L 63.23761 196.670456 
L 63.60985 196.670456 
L 63.60985 191.958393 
L 63.684291 191.958393 
L 66.885672 191.958393 
L 66.885672 187.24633 
L 66.960124 187.24633 
L 67.183473 187.24633 
L 67.183473 191.958393 
L 67.257932 191.958393 
L 67.332373 191.958393 
L 67.332373 182.534267 
L 67.406812 182.534267 
L 80.882356 182.534267 
L 80.882356 177.822204 
L 80.95677 177.822204 
L 81.180152 177.822204 
L 81.180152 173.110142 
L 81.254586 173.110142 
L 81.477953 173.110142 
L 81.477953 168.398079 
L 81.552386 168.398079 
L 81.626856 168.398079 
L 81.626856 163.686016 
L 81.701287 163.686016 
L 82.371335 163.686016 
L 82.371335 158.973953 
L 82.445815 158.973953 
L 84.753749 158.973953 
L 84.753749 154.26189 
L 84.828195 154.26189 
L 85.200466 154.26189 
L 85.200466 149.549827 
L 85.274921 149.549827 
L 85.349365 149.549827 
L 85.349365 144.837764 
L 85.423813 144.837764 
L 87.880657 144.837764 
L 87.880657 135.413638 
L 87.955138 135.413638 
L 88.029554 135.413638 
L 88.029554 130.701575 
L 88.104035 130.701575 
L 88.178454 130.701575 
L 88.215682 116.565386 
L 88.252912 116.565386 
L 88.774085 116.565386 
L 88.774085 111.853323 
L 88.848545 111.853323 
L 88.922964 111.853323 
L 88.922964 107.14126 
L 88.99744 107.14126 
L 89.071885 107.14126 
L 89.071885 111.853323 
L 89.146351 111.853323 
L 89.220773 111.853323 
L 89.220773 107.14126 
L 89.295249 107.14126 
L 89.369665 107.14126 
L 89.369665 102.429197 
L 89.444148 102.429197 
L 91.156497 102.429197 
L 91.156497 107.14126 
L 91.230926 107.14126 
L 91.603176 107.14126 
L 91.603176 93.005071 
L 91.677652 93.005071 
L 91.900988 93.005071 
L 91.900988 88.293008 
L 91.975426 88.293008 
L 92.198812 88.293008 
L 92.198812 69.444756 
L 92.273247 69.444756 
L 92.347713 69.444756 
L 92.347713 64.732693 
L 92.422144 64.732693 
L 95.623501 64.732693 
L 95.623501 60.02063 
L 95.697946 60.02063 
L 107.684489 60.02063 
L 107.684489 55.308567 
L 107.758939 55.308567 
L 110.066894 55.308567 
L 110.066894 50.596504 
L 110.141324 50.596504 
L 110.215777 50.596504 
L 110.215777 55.308567 
L 110.290245 55.308567 
L 110.51358 55.308567 
L 110.51358 50.596504 
L 110.588048 50.596504 
L 114.087222 50.596504 
L 114.087222 45.884441 
L 114.161662 45.884441 
L 120.192116 45.884441 
L 120.192116 50.596504 
L 120.266573 50.596504 
L 124.361344 50.596504 
L 124.361344 45.884441 
L 124.435803 45.884441 
L 130.764104 45.884441 
L 130.764104 50.596504 
L 130.838526 50.596504 
L 131.061865 50.596504 
L 131.061865 55.308567 
L 131.136352 55.308567 
L 131.508572 55.308567 
L 131.508572 60.02063 
L 131.583024 60.02063 
L 135.677799 60.02063 
L 135.677799 64.732693 
L 135.75228 64.732693 
L 142.080521 64.732693 
L 142.080521 69.444756 
L 142.154993 69.444756 
L 156.970628 69.444756 
L 156.970628 74.156819 
L 157.045063 74.156819 
L 224.571543 74.156819 
L 224.571543 69.444756 
L 224.646024 69.444756 
L 228.591877 69.444756 
L 228.591877 74.156819 
L 228.666347 74.156819 
L 267.008258 74.156819 
L 267.008258 69.444756 
L 267.082696 69.444756 
L 270.432981 69.444756 
L 270.432981 74.156819 
L 270.507423 74.156819 
L 270.581869 74.156819 
L 270.581869 78.868882 
L 270.656321 78.868882 
L 273.410987 78.868882 
L 273.410987 83.580945 
L 273.48545 83.580945 
L 303.005 83.580945 
L 303.005 83.580945 
" style="fill:none;stroke:#1b9e77;stroke-dasharray:4.5,1.5;stroke-dashoffset:0;stroke-width:1.5;"/>
   </g>
   <g id="line2d_27">
    <path clip-path="url(#p60c1813643)" d="M 55.905 210.806645 
L 60.334022 210.806645 
L 60.334022 206.094582 
L 60.408477 206.094582 
L 60.929655 206.094582 
L 60.929655 201.382519 
L 61.004097 201.382519 
L 70.310404 201.382519 
L 70.310404 196.670456 
L 70.384847 196.670456 
L 80.733434 196.670456 
L 80.733434 191.958393 
L 80.80787 191.958393 
L 81.775734 191.958393 
L 81.775734 182.534267 
L 81.850178 182.534267 
L 84.604858 182.534267 
L 84.604858 177.822204 
L 84.679305 177.822204 
L 84.753749 177.822204 
L 84.753749 173.110142 
L 84.828195 173.110142 
L 85.200466 173.110142 
L 85.200466 163.686016 
L 85.274921 163.686016 
L 85.349365 163.686016 
L 85.349365 158.973953 
L 85.423813 158.973953 
L 86.242745 158.973953 
L 86.242745 154.26189 
L 86.317234 154.26189 
L 88.029554 154.26189 
L 88.029554 158.973953 
L 88.104035 158.973953 
L 88.32737 158.973953 
L 88.32737 154.26189 
L 88.401821 154.26189 
L 88.476279 154.26189 
L 88.476279 149.549827 
L 88.550747 149.549827 
L 88.774085 149.549827 
L 88.774085 144.837764 
L 88.848545 144.837764 
L 88.922964 144.837764 
L 88.922964 149.549827 
L 88.99744 149.549827 
L 89.071885 149.549827 
L 89.071885 144.837764 
L 89.146351 144.837764 
L 91.603176 144.837764 
L 91.603176 140.125701 
L 91.677652 140.125701 
L 96.368025 140.125701 
L 96.368025 135.413638 
L 96.442465 135.413638 
L 106.344364 135.413638 
L 106.344364 130.701575 
L 106.418827 130.701575 
L 120.489925 130.701575 
L 120.489925 125.989512 
L 120.564409 125.989512 
L 138.209128 125.989512 
L 138.209128 121.277449 
L 138.283582 121.277449 
L 156.970628 121.277449 
L 156.970628 116.565386 
L 157.045063 116.565386 
L 191.813388 116.565386 
L 191.813388 111.853323 
L 206.107847 111.853323 
L 206.107847 107.14126 
L 206.182314 107.14126 
L 235.590191 107.14126 
L 235.590191 102.429197 
L 235.664648 102.429197 
L 239.759414 102.429197 
L 239.759414 97.717134 
L 239.833867 97.717134 
L 245.26873 97.717134 
L 245.26873 93.005071 
L 245.343201 93.005071 
L 267.901671 93.005071 
L 267.901671 88.293008 
L 267.976123 88.293008 
L 270.432981 88.293008 
L 270.432981 83.580945 
L 270.507423 83.580945 
L 271.32636 83.580945 
L 271.32636 88.293008 
L 271.400809 88.293008 
L 303.005 88.293008 
L 303.005 88.293008 
" style="fill:none;stroke:#d95f02;stroke-dasharray:4.5,1.5;stroke-dashoffset:0;stroke-width:1.5;"/>
   </g>
   <g id="line2d_28">
    <path clip-path="url(#p60c1813643)" d="M 55.905 206.094582 
L 62.865367 206.094582 
L 62.865367 201.382519 
L 62.93979 201.382519 
L 63.014262 201.382519 
L 63.014262 196.670456 
L 63.088711 196.670456 
L 63.60985 196.670456 
L 63.60985 187.24633 
L 63.684291 187.24633 
L 66.438971 187.24633 
L 66.438971 182.534267 
L 66.513419 182.534267 
L 67.183473 182.534267 
L 67.183473 177.822204 
L 67.257932 177.822204 
L 67.332373 177.822204 
L 67.332373 173.110142 
L 67.406812 173.110142 
L 67.481269 173.110142 
L 67.481269 168.398079 
L 67.555737 168.398079 
L 81.031242 168.398079 
L 81.031242 163.686016 
L 81.10567 163.686016 
L 81.180152 163.686016 
L 81.180152 158.973953 
L 81.254586 158.973953 
L 81.329037 158.973953 
L 81.329037 149.549827 
L 81.40348 149.549827 
L 85.051564 149.549827 
L 85.051564 144.837764 
L 85.126016 144.837764 
L 85.200466 144.837764 
L 85.200466 140.125701 
L 85.274921 140.125701 
L 87.731753 140.125701 
L 87.731753 144.837764 
L 87.806327 144.837764 
L 88.178454 144.837764 
L 88.178454 135.413638 
L 88.252912 135.413638 
L 88.32737 135.413638 
L 88.32737 140.125701 
L 88.401821 140.125701 
L 88.476279 140.125701 
L 88.476279 135.413638 
L 88.550747 135.413638 
L 88.774085 135.413638 
L 88.774085 125.989512 
L 88.848545 125.989512 
L 88.922964 125.989512 
L 88.922964 121.277449 
L 88.99744 121.277449 
L 95.921296 121.277449 
L 95.921296 116.565386 
L 95.99578 116.565386 
L 96.368025 116.565386 
L 96.368025 111.853323 
L 96.442465 111.853323 
L 103.515238 111.853323 
L 103.515238 107.14126 
L 103.58969 107.14126 
L 117.065206 107.14126 
L 117.065206 102.429197 
L 117.139668 102.429197 
L 117.660808 102.429197 
L 117.660808 97.717134 
L 117.735294 97.717134 
L 120.638846 97.717134 
L 120.638846 93.005071 
L 120.713301 93.005071 
L 132.402011 93.005071 
L 132.402011 88.293008 
L 132.476435 88.293008 
L 221.146806 88.293008 
L 221.146806 93.005071 
L 221.221291 93.005071 
L 224.571543 93.005071 
L 224.571543 97.717134 
L 224.646024 97.717134 
L 256.138506 97.717134 
L 256.138506 93.005071 
L 256.212935 93.005071 
L 256.734089 93.005071 
L 256.734089 88.293008 
L 256.808548 88.293008 
L 303.005 88.293008 
L 303.005 88.293008 
" style="fill:none;stroke:#7570b3;stroke-dasharray:4.5,1.5;stroke-dashoffset:0;stroke-width:1.5;"/>
   </g>
   <g id="line2d_29">
    <path clip-path="url(#p60c1813643)" d="M 122.760661 210.806645 
L 124.063532 210.806645 
L 124.063532 206.094582 
L 124.138008 206.094582 
L 128.530585 206.094582 
L 128.530585 201.382519 
L 128.605014 201.382519 
L 130.764104 201.382519 
L 130.764104 182.534267 
L 130.838526 182.534267 
L 131.061865 182.534267 
L 131.061865 173.110142 
L 131.136352 173.110142 
L 131.359677 173.110142 
L 131.359677 158.973953 
L 131.434141 158.973953 
L 131.657473 158.973953 
L 131.657473 154.26189 
L 131.731953 154.26189 
L 134.635519 154.26189 
L 134.635519 149.549827 
L 134.709968 149.549827 
L 135.380014 149.549827 
L 135.380014 144.837764 
L 135.454459 144.837764 
L 135.677799 144.837764 
L 135.677799 140.125701 
L 135.75228 140.125701 
L 135.975602 140.125701 
L 135.975602 135.413638 
L 136.050051 135.413638 
L 136.124508 135.413638 
L 136.124508 130.701575 
L 136.198943 130.701575 
L 138.209128 130.701575 
L 138.209128 125.989512 
L 138.283582 125.989512 
L 139.549211 125.989512 
L 139.549211 121.277449 
L 139.623686 121.277449 
L 142.080521 121.277449 
L 142.080521 116.565386 
L 142.154993 116.565386 
L 187.644148 116.565386 
L 187.644148 121.277449 
L 187.718602 121.277449 
L 188.388643 121.277449 
L 188.388643 116.565386 
L 188.463122 116.565386 
L 213.403995 116.565386 
L 213.403995 111.853323 
L 213.478456 111.853323 
L 213.701767 111.853323 
L 213.701767 107.14126 
L 213.776253 107.14126 
L 214.892995 107.14126 
L 214.892995 102.429197 
L 214.967428 102.429197 
L 235.143483 102.429197 
L 235.143483 97.717134 
L 235.21794 97.717134 
L 303.005 97.717134 
L 303.005 97.717134 
" style="fill:none;stroke:#e7298a;stroke-dasharray:4.5,1.5;stroke-dashoffset:0;stroke-width:1.5;"/>
   </g>
   <g id="line2d_30">
    <path clip-path="url(#p60c1813643)" d="M 55.905 206.094582 
L 63.163148 206.094582 
L 63.163148 201.382519 
L 63.23761 201.382519 
L 67.183473 201.382519 
L 67.183473 191.958393 
L 67.257932 191.958393 
L 80.733434 191.958393 
L 80.733434 187.24633 
L 80.80787 187.24633 
L 81.031242 187.24633 
L 81.031242 182.534267 
L 81.10567 182.534267 
L 81.477953 182.534267 
L 81.477953 177.822204 
L 81.552386 177.822204 
L 84.307049 177.822204 
L 84.307049 173.110142 
L 84.381499 173.110142 
L 84.455947 173.110142 
L 84.455947 163.686016 
L 84.53042 163.686016 
L 84.604858 163.686016 
L 84.604858 158.973953 
L 84.679305 158.973953 
L 84.902634 158.973953 
L 84.902634 154.26189 
L 84.977123 154.26189 
L 85.051564 154.26189 
L 85.051564 144.837764 
L 85.126016 144.837764 
L 85.200466 144.837764 
L 85.200466 135.413638 
L 85.274921 135.413638 
L 85.79608 135.413638 
L 85.79608 130.701575 
L 85.870521 130.701575 
L 86.093872 130.701575 
L 86.093872 125.989512 
L 86.168313 125.989512 
L 86.242745 125.989512 
L 86.242745 130.701575 
L 86.317234 130.701575 
L 87.582867 130.701575 
L 87.582867 135.413638 
L 87.657336 135.413638 
L 87.731753 135.413638 
L 87.731753 140.125701 
L 87.806327 140.125701 
L 87.880657 140.125701 
L 87.880657 135.413638 
L 87.955138 135.413638 
L 88.029554 135.413638 
L 88.029554 140.125701 
L 88.104035 140.125701 
L 88.178454 140.125701 
L 88.178454 135.413638 
L 88.252912 135.413638 
L 88.32737 135.413638 
L 88.32737 130.701575 
L 88.401821 130.701575 
L 88.625165 130.701575 
L 88.625165 135.413638 
L 88.69963 135.413638 
L 92.049894 135.413638 
L 92.049894 130.701575 
L 92.124346 130.701575 
L 92.347713 130.701575 
L 92.347713 125.989512 
L 92.422144 125.989512 
L 95.772421 125.989512 
L 95.772421 121.277449 
L 95.846856 121.277449 
L 96.814714 121.277449 
L 96.814714 116.565386 
L 96.889151 116.565386 
L 106.344364 116.565386 
L 106.344364 111.853323 
L 106.418827 111.853323 
L 106.493263 111.853323 
L 106.493263 107.14126 
L 106.567719 107.14126 
L 107.088851 107.14126 
L 107.088851 102.429197 
L 107.163326 102.429197 
L 114.087222 102.429197 
L 114.087222 97.717134 
L 114.161662 97.717134 
L 114.533885 97.717134 
L 114.533885 93.005071 
L 114.608365 93.005071 
L 121.978946 93.005071 
L 121.978946 88.293008 
L 122.053377 88.293008 
L 125.254748 88.293008 
L 125.254748 93.005071 
L 125.329201 93.005071 
L 131.061865 93.005071 
L 131.061865 97.717134 
L 131.136352 97.717134 
L 156.67282 97.717134 
L 156.67282 93.005071 
L 156.747281 93.005071 
L 181.837058 93.005071 
L 181.837058 88.293008 
L 181.911492 88.293008 
L 184.666161 88.293008 
L 184.666161 83.580945 
L 184.740589 83.580945 
L 194.940296 83.580945 
L 194.940296 78.868882 
L 195.014757 78.868882 
L 216.679829 78.868882 
L 216.679829 83.580945 
L 216.754278 83.580945 
L 216.828693 83.580945 
L 216.828693 78.868882 
L 216.903142 78.868882 
L 246.757751 78.868882 
L 246.757751 83.580945 
L 246.832187 83.580945 
L 253.607189 83.580945 
L 253.607189 88.293008 
L 253.681624 88.293008 
L 264.774872 88.293008 
L 264.774872 93.005071 
L 264.849203 93.005071 
L 286.216454 93.005071 
L 286.216454 97.717134 
L 286.29091 97.717134 
L 303.005 97.717134 
L 303.005 97.717134 
" style="fill:none;stroke:#66a61e;stroke-dasharray:4.5,1.5;stroke-dashoffset:0;stroke-width:1.5;"/>
   </g>
   <g id="line2d_31">
    <path clip-path="url(#p60c1813643)" d="M 55.905 210.806645 
L 59.738577 210.806645 
L 59.738577 206.094582 
L 59.812899 206.094582 
L 60.036256 206.094582 
L 60.036256 201.382519 
L 60.110722 201.382519 
L 63.460948 201.382519 
L 63.460948 196.670456 
L 63.535397 196.670456 
L 67.332373 196.670456 
L 67.332373 191.958393 
L 67.406812 191.958393 
L 69.71479 191.958393 
L 69.71479 187.24633 
L 69.789263 187.24633 
L 70.459278 187.24633 
L 70.459278 182.534267 
L 70.533745 182.534267 
L 70.757093 182.534267 
L 70.757093 177.822204 
L 70.83153 177.822204 
L 80.733434 177.822204 
L 80.733434 168.398079 
L 80.80787 168.398079 
L 81.031242 168.398079 
L 81.031242 163.686016 
L 81.10567 163.686016 
L 81.180152 163.686016 
L 81.180152 158.973953 
L 81.254586 158.973953 
L 81.329037 158.973953 
L 81.329037 154.26189 
L 81.40348 154.26189 
L 81.477953 154.26189 
L 81.477953 144.837764 
L 81.552386 144.837764 
L 81.626856 144.837764 
L 81.626856 140.125701 
L 81.701287 140.125701 
L 81.924654 140.125701 
L 81.924654 135.413638 
L 81.999093 135.413638 
L 82.222468 135.413638 
L 82.222468 130.701575 
L 82.296906 130.701575 
L 82.66913 130.701575 
L 82.66913 125.989512 
L 82.743616 125.989512 
L 84.307049 125.989512 
L 84.307049 121.277449 
L 84.381499 121.277449 
L 84.455947 121.277449 
L 84.455947 116.565386 
L 84.53042 116.565386 
L 84.604858 116.565386 
L 84.604858 102.429197 
L 84.679305 102.429197 
L 84.753749 102.429197 
L 84.753749 97.717134 
L 84.828195 97.717134 
L 84.902634 97.717134 
L 84.902634 93.005071 
L 84.977123 93.005071 
L 86.242745 93.005071 
L 86.242745 97.717134 
L 86.317234 97.717134 
L 88.178454 97.717134 
L 88.178454 93.005071 
L 88.252912 93.005071 
L 88.32737 93.005071 
L 88.32737 97.717134 
L 88.401821 97.717134 
L 88.476279 97.717134 
L 88.476279 93.005071 
L 88.550747 93.005071 
L 92.645519 93.005071 
L 92.645519 97.717134 
L 92.719943 97.717134 
L 92.794385 97.717134 
L 92.794385 93.005071 
L 92.868852 93.005071 
L 235.292414 93.005071 
L 235.292414 97.717134 
L 235.366834 97.717134 
L 246.757751 97.717134 
L 246.757751 93.005071 
L 246.832187 93.005071 
L 285.620827 93.005071 
L 285.620827 97.717134 
L 285.695315 97.717134 
L 289.938979 97.717134 
L 289.938979 93.005071 
L 290.013418 93.005071 
L 296.04391 93.005071 
L 296.04391 97.717134 
L 296.118358 97.717134 
L 303.005 97.717134 
L 303.005 97.717134 
" style="fill:none;stroke:#e6ab02;stroke-dasharray:4.5,1.5;stroke-dashoffset:0;stroke-width:1.5;"/>
   </g>
   <g id="line2d_32">
    <path clip-path="url(#p60c1813643)" d="M 55.905 206.094582 
L 63.312048 206.094582 
L 63.312048 196.670456 
L 63.386507 196.670456 
L 66.587855 196.670456 
L 66.587855 187.24633 
L 66.662303 187.24633 
L 66.736748 187.24633 
L 66.736748 182.534267 
L 66.811216 182.534267 
L 67.332373 182.534267 
L 67.332373 177.822204 
L 67.406812 177.822204 
L 67.481269 177.822204 
L 67.481269 173.110142 
L 67.555737 173.110142 
L 81.329037 173.110142 
L 81.329037 168.398079 
L 81.40348 168.398079 
L 81.477953 168.398079 
L 81.477953 163.686016 
L 81.552386 163.686016 
L 81.626856 163.686016 
L 81.626856 158.973953 
L 81.701287 158.973953 
L 82.073525 158.973953 
L 82.073525 154.26189 
L 82.14801 154.26189 
L 82.222468 154.26189 
L 82.222468 158.973953 
L 82.296906 158.973953 
L 84.307049 158.973953 
L 84.307049 140.125701 
L 84.381499 140.125701 
L 84.604858 140.125701 
L 84.604858 130.701575 
L 84.679305 130.701575 
L 84.753749 130.701575 
L 84.753749 125.989512 
L 84.828195 125.989512 
L 84.902634 125.989512 
L 84.902634 116.565386 
L 84.977123 116.565386 
L 303.005 116.565386 
L 303.005 116.565386 
" style="fill:none;stroke:#a6761d;stroke-dasharray:4.5,1.5;stroke-dashoffset:0;stroke-width:1.5;"/>
   </g>
   <g id="line2d_33">
    <path clip-path="url(#p60c1813643)" d="M 55.905 210.806645 
L 63.60985 210.806645 
L 63.60985 206.094582 
L 63.684291 206.094582 
L 63.758773 206.094582 
L 63.758773 201.382519 
L 63.83322 201.382519 
L 66.736748 201.382519 
L 66.736748 196.670456 
L 66.811216 196.670456 
L 67.481269 196.670456 
L 67.481269 191.958393 
L 67.555737 191.958393 
L 67.779071 191.958393 
L 67.779071 187.24633 
L 67.853538 187.24633 
L 68.076888 187.24633 
L 68.076888 182.534267 
L 68.151344 182.534267 
L 70.310404 182.534267 
L 70.310404 187.24633 
L 70.384847 187.24633 
L 80.882356 187.24633 
L 80.882356 182.534267 
L 80.95677 182.534267 
L 81.775734 182.534267 
L 81.775734 173.110142 
L 81.850178 173.110142 
L 84.455947 173.110142 
L 84.455947 168.398079 
L 84.53042 168.398079 
L 85.051564 168.398079 
L 85.051564 149.549827 
L 85.126016 149.549827 
L 85.200466 149.549827 
L 85.200466 144.837764 
L 85.274921 144.837764 
L 85.349365 144.837764 
L 85.349365 140.125701 
L 85.423813 140.125701 
L 131.061865 140.125701 
L 131.061865 144.837764 
L 131.136352 144.837764 
L 131.210788 144.837764 
L 131.210788 140.125701 
L 131.285256 140.125701 
L 221.146806 140.125701 
L 221.146806 135.413638 
L 221.221291 135.413638 
L 228.591877 135.413638 
L 228.591877 130.701575 
L 228.666347 130.701575 
L 239.610516 130.701575 
L 239.610516 125.989512 
L 239.684993 125.989512 
L 241.695147 125.989512 
L 241.695147 121.277449 
L 241.769595 121.277449 
L 242.290744 121.277449 
L 242.290744 116.565386 
L 242.365182 116.565386 
L 267.008258 116.565386 
L 267.008258 121.277449 
L 267.082696 121.277449 
L 270.581869 121.277449 
L 270.581869 116.565386 
L 270.656321 116.565386 
L 303.005 116.565386 
L 303.005 116.565386 
" style="fill:none;stroke:#666666;stroke-dasharray:4.5,1.5;stroke-dashoffset:0;stroke-width:1.5;"/>
   </g>
   <g id="line2d_34"/>
   <g id="line2d_35"/>
   <g id="line2d_36"/>
   <g id="line2d_37"/>
   <g id="line2d_38"/>
   <g id="line2d_39"/>
   <g id="line2d_40"/>
   <g id="line2d_41"/>
   <g id="line2d_42"/>
   <g id="line2d_43"/>
   <g id="line2d_44"/>
   <g id="line2d_45"/>
   <g id="line2d_46"/>
   <g id="line2d_47"/>
   <g id="line2d_48"/>
   <g id="line2d_49"/>
   <g id="line2d_50"/>
   <g id="patch_3">
    <path d="M 43.55 220.230771 
L 43.55 12.9 
" style="fill:none;stroke:#000000;stroke-linecap:square;stroke-linejoin:miter;stroke-width:0.8;"/>
   </g>
   <g id="patch_4">
    <path d="M 315.36 220.230771 
L 315.36 12.9 
" style="fill:none;stroke:#000000;stroke-linecap:square;stroke-linejoin:miter;stroke-width:0.8;"/>
   </g>
   <g id="patch_5">
    <path d="M 43.55 220.230771 
L 315.36 220.230771 
" style="fill:none;stroke:#000000;stroke-linecap:square;stroke-linejoin:miter;stroke-width:0.8;"/>
   </g>
   <g id="patch_6">
    <path d="M 43.55 12.9 
L 315.36 12.9 
" style="fill:none;stroke:#000000;stroke-linecap:square;stroke-linejoin:miter;stroke-width:0.8;"/>
   </g>
  </g>
  <g id="legend_1">
   <g id="patch_7">
    <path d="M 331.8625 262.528125 
L 420 262.528125 
Q 422 262.528125 422 260.528125 
L 422 12 
Q 422 10 420 10 
L 331.8625 10 
Q 329.8625 10 329.8625 12 
L 329.8625 260.528125 
Q 329.8625 262.528125 331.8625 262.528125 
z
" style="fill:#ffffff;opacity:0.8;stroke:#cccccc;stroke-linejoin:miter;"/>
   </g>
   <g id="text_20">
    <!-- 495/610 Reg. -->
    <defs>
     <path d="M 25.390625 72.90625 
L 33.6875 72.90625 
L 8.296875 -9.28125 
L 0 -9.28125 
z
" id="DejaVuSans-47"/>
     <path d="M 33.015625 40.375 
Q 26.375 40.375 22.484375 35.828125 
Q 18.609375 31.296875 18.609375 23.390625 
Q 18.609375 15.53125 22.484375 10.953125 
Q 26.375 6.390625 33.015625 6.390625 
Q 39.65625 6.390625 43.53125 10.953125 
Q 47.40625 15.53125 47.40625 23.390625 
Q 47.40625 31.296875 43.53125 35.828125 
Q 39.65625 40.375 33.015625 40.375 
z
M 52.59375 71.296875 
L 52.59375 62.3125 
Q 48.875 64.0625 45.09375 64.984375 
Q 41.3125 65.921875 37.59375 65.921875 
Q 27.828125 65.921875 22.671875 59.328125 
Q 17.53125 52.734375 16.796875 39.40625 
Q 19.671875 43.65625 24.015625 45.921875 
Q 28.375 48.1875 33.59375 48.1875 
Q 44.578125 48.1875 50.953125 41.515625 
Q 57.328125 34.859375 57.328125 23.390625 
Q 57.328125 12.15625 50.6875 5.359375 
Q 44.046875 -1.421875 33.015625 -1.421875 
Q 20.359375 -1.421875 13.671875 8.265625 
Q 6.984375 17.96875 6.984375 36.375 
Q 6.984375 53.65625 15.1875 63.9375 
Q 23.390625 74.21875 37.203125 74.21875 
Q 40.921875 74.21875 44.703125 73.484375 
Q 48.484375 72.75 52.59375 71.296875 
z
" id="DejaVuSans-54"/>
     <path d="M 10.6875 12.40625 
L 21 12.40625 
L 21 0 
L 10.6875 0 
z
" id="DejaVuSans-46"/>
    </defs>
    <g transform="translate(342.259375 21.598437)scale(0.1 -0.1)">
     <use xlink:href="#DejaVuSans-52"/>
     <use x="63.623047" xlink:href="#DejaVuSans-57"/>
     <use x="127.246094" xlink:href="#DejaVuSans-53"/>
     <use x="190.869141" xlink:href="#DejaVuSans-47"/>
     <use x="224.560547" xlink:href="#DejaVuSans-54"/>
     <use x="288.183594" xlink:href="#DejaVuSans-49"/>
     <use x="351.806641" xlink:href="#DejaVuSans-48"/>
     <use x="415.429688" xlink:href="#DejaVuSans-32"/>
     <use x="447.216797" xlink:href="#DejaVuSans-82"/>
     <use x="516.636719" xlink:href="#DejaVuSans-101"/>
     <use x="578.160156" xlink:href="#DejaVuSans-103"/>
     <use x="641.636719" xlink:href="#DejaVuSans-46"/>
    </g>
   </g>
   <g id="line2d_51">
    <path d="M 333.8625 32.776562 
L 353.8625 32.776562 
" style="fill:none;stroke:#1b9e77;stroke-linecap:square;stroke-width:1.5;"/>
   </g>
   <g id="line2d_52"/>
   <g id="text_21">
    <!-- SA (40) -->
    <defs>
     <path d="M 34.1875 63.1875 
L 20.796875 26.90625 
L 47.609375 26.90625 
z
M 28.609375 72.90625 
L 39.796875 72.90625 
L 67.578125 0 
L 57.328125 0 
L 50.6875 18.703125 
L 17.828125 18.703125 
L 11.1875 0 
L 0.78125 0 
z
" id="DejaVuSans-65"/>
     <path d="M 31 75.875 
Q 24.46875 64.65625 21.28125 53.65625 
Q 18.109375 42.671875 18.109375 31.390625 
Q 18.109375 20.125 21.3125 9.0625 
Q 24.515625 -2 31 -13.1875 
L 23.1875 -13.1875 
Q 15.875 -1.703125 12.234375 9.375 
Q 8.59375 20.453125 8.59375 31.390625 
Q 8.59375 42.28125 12.203125 53.3125 
Q 15.828125 64.359375 23.1875 75.875 
z
" id="DejaVuSans-40"/>
     <path d="M 8.015625 75.875 
L 15.828125 75.875 
Q 23.140625 64.359375 26.78125 53.3125 
Q 30.421875 42.28125 30.421875 31.390625 
Q 30.421875 20.453125 26.78125 9.375 
Q 23.140625 -1.703125 15.828125 -13.1875 
L 8.015625 -13.1875 
Q 14.5 -2 17.703125 9.0625 
Q 20.90625 20.125 20.90625 31.390625 
Q 20.90625 42.671875 17.703125 53.65625 
Q 14.5 64.65625 8.015625 75.875 
z
" id="DejaVuSans-41"/>
    </defs>
    <g transform="translate(361.8625 36.276562)scale(0.1 -0.1)">
     <use xlink:href="#DejaVuSans-83"/>
     <use x="63.492188" xlink:href="#DejaVuSans-65"/>
     <use x="131.900391" xlink:href="#DejaVuSans-32"/>
     <use x="163.6875" xlink:href="#DejaVuSans-40"/>
     <use x="202.701172" xlink:href="#DejaVuSans-52"/>
     <use x="266.324219" xlink:href="#DejaVuSans-48"/>
     <use x="329.947266" xlink:href="#DejaVuSans-41"/>
    </g>
   </g>
   <g id="line2d_53">
    <path d="M 333.8625 47.454688 
L 353.8625 47.454688 
" style="fill:none;stroke:#d95f02;stroke-linecap:square;stroke-width:1.5;"/>
   </g>
   <g id="line2d_54"/>
   <g id="text_22">
    <!-- AS (40) -->
    <g transform="translate(361.8625 50.954688)scale(0.1 -0.1)">
     <use xlink:href="#DejaVuSans-65"/>
     <use x="68.408203" xlink:href="#DejaVuSans-83"/>
     <use x="131.884766" xlink:href="#DejaVuSans-32"/>
     <use x="163.671875" xlink:href="#DejaVuSans-40"/>
     <use x="202.685547" xlink:href="#DejaVuSans-52"/>
     <use x="266.308594" xlink:href="#DejaVuSans-48"/>
     <use x="329.931641" xlink:href="#DejaVuSans-41"/>
    </g>
   </g>
   <g id="line2d_55">
    <path d="M 333.8625 62.132812 
L 353.8625 62.132812 
" style="fill:none;stroke:#7570b3;stroke-linecap:square;stroke-width:1.5;"/>
   </g>
   <g id="line2d_56"/>
   <g id="text_23">
    <!-- AUS (40) -->
    <defs>
     <path d="M 8.6875 72.90625 
L 18.609375 72.90625 
L 18.609375 28.609375 
Q 18.609375 16.890625 22.84375 11.734375 
Q 27.09375 6.59375 36.625 6.59375 
Q 46.09375 6.59375 50.34375 11.734375 
Q 54.59375 16.890625 54.59375 28.609375 
L 54.59375 72.90625 
L 64.5 72.90625 
L 64.5 27.390625 
Q 64.5 13.140625 57.4375 5.859375 
Q 50.390625 -1.421875 36.625 -1.421875 
Q 22.796875 -1.421875 15.734375 5.859375 
Q 8.6875 13.140625 8.6875 27.390625 
z
" id="DejaVuSans-85"/>
    </defs>
    <g transform="translate(361.8625 65.632812)scale(0.1 -0.1)">
     <use xlink:href="#DejaVuSans-65"/>
     <use x="68.408203" xlink:href="#DejaVuSans-85"/>
     <use x="141.601562" xlink:href="#DejaVuSans-83"/>
     <use x="205.078125" xlink:href="#DejaVuSans-32"/>
     <use x="236.865234" xlink:href="#DejaVuSans-40"/>
     <use x="275.878906" xlink:href="#DejaVuSans-52"/>
     <use x="339.501953" xlink:href="#DejaVuSans-48"/>
     <use x="403.125" xlink:href="#DejaVuSans-41"/>
    </g>
   </g>
   <g id="line2d_57">
    <path d="M 333.8625 76.810937 
L 353.8625 76.810937 
" style="fill:none;stroke:#e7298a;stroke-linecap:square;stroke-width:1.5;"/>
   </g>
   <g id="line2d_58"/>
   <g id="text_24">
    <!-- COML (40) -->
    <defs>
     <path d="M 64.40625 67.28125 
L 64.40625 56.890625 
Q 59.421875 61.53125 53.78125 63.8125 
Q 48.140625 66.109375 41.796875 66.109375 
Q 29.296875 66.109375 22.65625 58.46875 
Q 16.015625 50.828125 16.015625 36.375 
Q 16.015625 21.96875 22.65625 14.328125 
Q 29.296875 6.6875 41.796875 6.6875 
Q 48.140625 6.6875 53.78125 8.984375 
Q 59.421875 11.28125 64.40625 15.921875 
L 64.40625 5.609375 
Q 59.234375 2.09375 53.4375 0.328125 
Q 47.65625 -1.421875 41.21875 -1.421875 
Q 24.65625 -1.421875 15.125 8.703125 
Q 5.609375 18.84375 5.609375 36.375 
Q 5.609375 53.953125 15.125 64.078125 
Q 24.65625 74.21875 41.21875 74.21875 
Q 47.75 74.21875 53.53125 72.484375 
Q 59.328125 70.75 64.40625 67.28125 
z
" id="DejaVuSans-67"/>
     <path d="M 39.40625 66.21875 
Q 28.65625 66.21875 22.328125 58.203125 
Q 16.015625 50.203125 16.015625 36.375 
Q 16.015625 22.609375 22.328125 14.59375 
Q 28.65625 6.59375 39.40625 6.59375 
Q 50.140625 6.59375 56.421875 14.59375 
Q 62.703125 22.609375 62.703125 36.375 
Q 62.703125 50.203125 56.421875 58.203125 
Q 50.140625 66.21875 39.40625 66.21875 
z
M 39.40625 74.21875 
Q 54.734375 74.21875 63.90625 63.9375 
Q 73.09375 53.65625 73.09375 36.375 
Q 73.09375 19.140625 63.90625 8.859375 
Q 54.734375 -1.421875 39.40625 -1.421875 
Q 24.03125 -1.421875 14.8125 8.828125 
Q 5.609375 19.09375 5.609375 36.375 
Q 5.609375 53.65625 14.8125 63.9375 
Q 24.03125 74.21875 39.40625 74.21875 
z
" id="DejaVuSans-79"/>
     <path d="M 9.8125 72.90625 
L 24.515625 72.90625 
L 43.109375 23.296875 
L 61.8125 72.90625 
L 76.515625 72.90625 
L 76.515625 0 
L 66.890625 0 
L 66.890625 64.015625 
L 48.09375 14.015625 
L 38.1875 14.015625 
L 19.390625 64.015625 
L 19.390625 0 
L 9.8125 0 
z
" id="DejaVuSans-77"/>
     <path d="M 9.8125 72.90625 
L 19.671875 72.90625 
L 19.671875 8.296875 
L 55.171875 8.296875 
L 55.171875 0 
L 9.8125 0 
z
" id="DejaVuSans-76"/>
    </defs>
    <g transform="translate(361.8625 80.310937)scale(0.1 -0.1)">
     <use xlink:href="#DejaVuSans-67"/>
     <use x="69.824219" xlink:href="#DejaVuSans-79"/>
     <use x="148.535156" xlink:href="#DejaVuSans-77"/>
     <use x="234.814453" xlink:href="#DejaVuSans-76"/>
     <use x="290.527344" xlink:href="#DejaVuSans-32"/>
     <use x="322.314453" xlink:href="#DejaVuSans-40"/>
     <use x="361.328125" xlink:href="#DejaVuSans-52"/>
     <use x="424.951172" xlink:href="#DejaVuSans-48"/>
     <use x="488.574219" xlink:href="#DejaVuSans-41"/>
    </g>
   </g>
   <g id="line2d_59">
    <path d="M 333.8625 91.489062 
L 353.8625 91.489062 
" style="fill:none;stroke:#66a61e;stroke-linecap:square;stroke-width:1.5;"/>
   </g>
   <g id="line2d_60"/>
   <g id="text_25">
    <!-- GDD (40) -->
    <defs>
     <path d="M 59.515625 10.40625 
L 59.515625 29.984375 
L 43.40625 29.984375 
L 43.40625 38.09375 
L 69.28125 38.09375 
L 69.28125 6.78125 
Q 63.578125 2.734375 56.6875 0.65625 
Q 49.8125 -1.421875 42 -1.421875 
Q 24.90625 -1.421875 15.25 8.5625 
Q 5.609375 18.5625 5.609375 36.375 
Q 5.609375 54.25 15.25 64.234375 
Q 24.90625 74.21875 42 74.21875 
Q 49.125 74.21875 55.546875 72.453125 
Q 61.96875 70.703125 67.390625 67.28125 
L 67.390625 56.78125 
Q 61.921875 61.421875 55.765625 63.765625 
Q 49.609375 66.109375 42.828125 66.109375 
Q 29.4375 66.109375 22.71875 58.640625 
Q 16.015625 51.171875 16.015625 36.375 
Q 16.015625 21.625 22.71875 14.15625 
Q 29.4375 6.6875 42.828125 6.6875 
Q 48.046875 6.6875 52.140625 7.59375 
Q 56.25 8.5 59.515625 10.40625 
z
" id="DejaVuSans-71"/>
    </defs>
    <g transform="translate(361.8625 94.989062)scale(0.1 -0.1)">
     <use xlink:href="#DejaVuSans-71"/>
     <use x="77.490234" xlink:href="#DejaVuSans-68"/>
     <use x="154.492188" xlink:href="#DejaVuSans-68"/>
     <use x="231.494141" xlink:href="#DejaVuSans-32"/>
     <use x="263.28125" xlink:href="#DejaVuSans-40"/>
     <use x="302.294922" xlink:href="#DejaVuSans-52"/>
     <use x="365.917969" xlink:href="#DejaVuSans-48"/>
     <use x="429.541016" xlink:href="#DejaVuSans-41"/>
    </g>
   </g>
   <g id="line2d_61">
    <path d="M 333.8625 106.167188 
L 353.8625 106.167188 
" style="fill:none;stroke:#e6ab02;stroke-linecap:square;stroke-width:1.5;"/>
   </g>
   <g id="line2d_62"/>
   <g id="text_26">
    <!-- MD (38) -->
    <defs>
     <path d="M 31.78125 34.625 
Q 24.75 34.625 20.71875 30.859375 
Q 16.703125 27.09375 16.703125 20.515625 
Q 16.703125 13.921875 20.71875 10.15625 
Q 24.75 6.390625 31.78125 6.390625 
Q 38.8125 6.390625 42.859375 10.171875 
Q 46.921875 13.96875 46.921875 20.515625 
Q 46.921875 27.09375 42.890625 30.859375 
Q 38.875 34.625 31.78125 34.625 
z
M 21.921875 38.8125 
Q 15.578125 40.375 12.03125 44.71875 
Q 8.5 49.078125 8.5 55.328125 
Q 8.5 64.0625 14.71875 69.140625 
Q 20.953125 74.21875 31.78125 74.21875 
Q 42.671875 74.21875 48.875 69.140625 
Q 55.078125 64.0625 55.078125 55.328125 
Q 55.078125 49.078125 51.53125 44.71875 
Q 48 40.375 41.703125 38.8125 
Q 48.828125 37.15625 52.796875 32.3125 
Q 56.78125 27.484375 56.78125 20.515625 
Q 56.78125 9.90625 50.3125 4.234375 
Q 43.84375 -1.421875 31.78125 -1.421875 
Q 19.734375 -1.421875 13.25 4.234375 
Q 6.78125 9.90625 6.78125 20.515625 
Q 6.78125 27.484375 10.78125 32.3125 
Q 14.796875 37.15625 21.921875 38.8125 
z
M 18.3125 54.390625 
Q 18.3125 48.734375 21.84375 45.5625 
Q 25.390625 42.390625 31.78125 42.390625 
Q 38.140625 42.390625 41.71875 45.5625 
Q 45.3125 48.734375 45.3125 54.390625 
Q 45.3125 60.0625 41.71875 63.234375 
Q 38.140625 66.40625 31.78125 66.40625 
Q 25.390625 66.40625 21.84375 63.234375 
Q 18.3125 60.0625 18.3125 54.390625 
z
" id="DejaVuSans-56"/>
    </defs>
    <g transform="translate(361.8625 109.667188)scale(0.1 -0.1)">
     <use xlink:href="#DejaVuSans-77"/>
     <use x="86.279297" xlink:href="#DejaVuSans-68"/>
     <use x="163.28125" xlink:href="#DejaVuSans-32"/>
     <use x="195.068359" xlink:href="#DejaVuSans-40"/>
     <use x="234.082031" xlink:href="#DejaVuSans-51"/>
     <use x="297.705078" xlink:href="#DejaVuSans-56"/>
     <use x="361.328125" xlink:href="#DejaVuSans-41"/>
    </g>
   </g>
   <g id="line2d_63">
    <path d="M 333.8625 120.845312 
L 353.8625 120.845312 
" style="fill:none;stroke:#a6761d;stroke-linecap:square;stroke-width:1.5;"/>
   </g>
   <g id="line2d_64"/>
   <g id="text_27">
    <!-- HPI (38) -->
    <defs>
     <path d="M 9.8125 72.90625 
L 19.671875 72.90625 
L 19.671875 43.015625 
L 55.515625 43.015625 
L 55.515625 72.90625 
L 65.375 72.90625 
L 65.375 0 
L 55.515625 0 
L 55.515625 34.71875 
L 19.671875 34.71875 
L 19.671875 0 
L 9.8125 0 
z
" id="DejaVuSans-72"/>
     <path d="M 19.671875 64.796875 
L 19.671875 37.40625 
L 32.078125 37.40625 
Q 38.96875 37.40625 42.71875 40.96875 
Q 46.484375 44.53125 46.484375 51.125 
Q 46.484375 57.671875 42.71875 61.234375 
Q 38.96875 64.796875 32.078125 64.796875 
z
M 9.8125 72.90625 
L 32.078125 72.90625 
Q 44.34375 72.90625 50.609375 67.359375 
Q 56.890625 61.8125 56.890625 51.125 
Q 56.890625 40.328125 50.609375 34.8125 
Q 44.34375 29.296875 32.078125 29.296875 
L 19.671875 29.296875 
L 19.671875 0 
L 9.8125 0 
z
" id="DejaVuSans-80"/>
     <path d="M 9.8125 72.90625 
L 19.671875 72.90625 
L 19.671875 0 
L 9.8125 0 
z
" id="DejaVuSans-73"/>
    </defs>
    <g transform="translate(361.8625 124.345312)scale(0.1 -0.1)">
     <use xlink:href="#DejaVuSans-72"/>
     <use x="75.195312" xlink:href="#DejaVuSans-80"/>
     <use x="135.498047" xlink:href="#DejaVuSans-73"/>
     <use x="164.990234" xlink:href="#DejaVuSans-32"/>
     <use x="196.777344" xlink:href="#DejaVuSans-40"/>
     <use x="235.791016" xlink:href="#DejaVuSans-51"/>
     <use x="299.414062" xlink:href="#DejaVuSans-56"/>
     <use x="363.037109" xlink:href="#DejaVuSans-41"/>
    </g>
   </g>
   <g id="line2d_65">
    <path d="M 333.8625 135.523438 
L 353.8625 135.523438 
" style="fill:none;stroke:#666666;stroke-linecap:square;stroke-width:1.5;"/>
   </g>
   <g id="line2d_66"/>
   <g id="text_28">
    <!-- TBI (28) -->
    <defs>
     <path d="M -0.296875 72.90625 
L 61.375 72.90625 
L 61.375 64.59375 
L 35.5 64.59375 
L 35.5 0 
L 25.59375 0 
L 25.59375 64.59375 
L -0.296875 64.59375 
z
" id="DejaVuSans-84"/>
     <path d="M 19.671875 34.8125 
L 19.671875 8.109375 
L 35.5 8.109375 
Q 43.453125 8.109375 47.28125 11.40625 
Q 51.125 14.703125 51.125 21.484375 
Q 51.125 28.328125 47.28125 31.5625 
Q 43.453125 34.8125 35.5 34.8125 
z
M 19.671875 64.796875 
L 19.671875 42.828125 
L 34.28125 42.828125 
Q 41.5 42.828125 45.03125 45.53125 
Q 48.578125 48.25 48.578125 53.8125 
Q 48.578125 59.328125 45.03125 62.0625 
Q 41.5 64.796875 34.28125 64.796875 
z
M 9.8125 72.90625 
L 35.015625 72.90625 
Q 46.296875 72.90625 52.390625 68.21875 
Q 58.5 63.53125 58.5 54.890625 
Q 58.5 48.1875 55.375 44.234375 
Q 52.25 40.28125 46.1875 39.3125 
Q 53.46875 37.75 57.5 32.78125 
Q 61.53125 27.828125 61.53125 20.40625 
Q 61.53125 10.640625 54.890625 5.3125 
Q 48.25 0 35.984375 0 
L 9.8125 0 
z
" id="DejaVuSans-66"/>
    </defs>
    <g transform="translate(361.8625 139.023438)scale(0.1 -0.1)">
     <use xlink:href="#DejaVuSans-84"/>
     <use x="61.083984" xlink:href="#DejaVuSans-66"/>
     <use x="129.6875" xlink:href="#DejaVuSans-73"/>
     <use x="159.179688" xlink:href="#DejaVuSans-32"/>
     <use x="190.966797" xlink:href="#DejaVuSans-40"/>
     <use x="229.980469" xlink:href="#DejaVuSans-50"/>
     <use x="293.603516" xlink:href="#DejaVuSans-56"/>
     <use x="357.226562" xlink:href="#DejaVuSans-41"/>
    </g>
   </g>
   <g id="line2d_67">
    <path d="M 333.8625 150.201562 
L 353.8625 150.201562 
" style="fill:none;stroke:#1b9e77;stroke-dasharray:4.5,1.5;stroke-dashoffset:0;stroke-width:1.5;"/>
   </g>
   <g id="line2d_68"/>
   <g id="text_29">
    <!-- FIT (27) -->
    <defs>
     <path d="M 9.8125 72.90625 
L 51.703125 72.90625 
L 51.703125 64.59375 
L 19.671875 64.59375 
L 19.671875 43.109375 
L 48.578125 43.109375 
L 48.578125 34.8125 
L 19.671875 34.8125 
L 19.671875 0 
L 9.8125 0 
z
" id="DejaVuSans-70"/>
     <path d="M 8.203125 72.90625 
L 55.078125 72.90625 
L 55.078125 68.703125 
L 28.609375 0 
L 18.3125 0 
L 43.21875 64.59375 
L 8.203125 64.59375 
z
" id="DejaVuSans-55"/>
    </defs>
    <g transform="translate(361.8625 153.701562)scale(0.1 -0.1)">
     <use xlink:href="#DejaVuSans-70"/>
     <use x="57.519531" xlink:href="#DejaVuSans-73"/>
     <use x="87.011719" xlink:href="#DejaVuSans-84"/>
     <use x="148.095703" xlink:href="#DejaVuSans-32"/>
     <use x="179.882812" xlink:href="#DejaVuSans-40"/>
     <use x="218.896484" xlink:href="#DejaVuSans-50"/>
     <use x="282.519531" xlink:href="#DejaVuSans-55"/>
     <use x="346.142578" xlink:href="#DejaVuSans-41"/>
    </g>
   </g>
   <g id="line2d_69">
    <path d="M 333.8625 164.879687 
L 353.8625 164.879687 
" style="fill:none;stroke:#d95f02;stroke-dasharray:4.5,1.5;stroke-dashoffset:0;stroke-width:1.5;"/>
   </g>
   <g id="line2d_70"/>
   <g id="text_30">
    <!-- CB (26) -->
    <g transform="translate(361.8625 168.379687)scale(0.1 -0.1)">
     <use xlink:href="#DejaVuSans-67"/>
     <use x="69.824219" xlink:href="#DejaVuSans-66"/>
     <use x="138.427734" xlink:href="#DejaVuSans-32"/>
     <use x="170.214844" xlink:href="#DejaVuSans-40"/>
     <use x="209.228516" xlink:href="#DejaVuSans-50"/>
     <use x="272.851562" xlink:href="#DejaVuSans-54"/>
     <use x="336.474609" xlink:href="#DejaVuSans-41"/>
    </g>
   </g>
   <g id="line2d_71">
    <path d="M 333.8625 179.557812 
L 353.8625 179.557812 
" style="fill:none;stroke:#7570b3;stroke-dasharray:4.5,1.5;stroke-dashoffset:0;stroke-width:1.5;"/>
   </g>
   <g id="line2d_72"/>
   <g id="text_31">
    <!-- BP (26) -->
    <g transform="translate(361.8625 183.057812)scale(0.1 -0.1)">
     <use xlink:href="#DejaVuSans-66"/>
     <use x="68.603516" xlink:href="#DejaVuSans-80"/>
     <use x="128.90625" xlink:href="#DejaVuSans-32"/>
     <use x="160.693359" xlink:href="#DejaVuSans-40"/>
     <use x="199.707031" xlink:href="#DejaVuSans-50"/>
     <use x="263.330078" xlink:href="#DejaVuSans-54"/>
     <use x="326.953125" xlink:href="#DejaVuSans-41"/>
    </g>
   </g>
   <g id="line2d_73">
    <path d="M 333.8625 194.235937 
L 353.8625 194.235937 
" style="fill:none;stroke:#e7298a;stroke-dasharray:4.5,1.5;stroke-dashoffset:0;stroke-width:1.5;"/>
   </g>
   <g id="line2d_74"/>
   <g id="text_32">
    <!-- RJPH (24) -->
    <defs>
     <path d="M 9.8125 72.90625 
L 19.671875 72.90625 
L 19.671875 5.078125 
Q 19.671875 -8.109375 14.671875 -14.0625 
Q 9.671875 -20.015625 -1.421875 -20.015625 
L -5.171875 -20.015625 
L -5.171875 -11.71875 
L -2.09375 -11.71875 
Q 4.4375 -11.71875 7.125 -8.046875 
Q 9.8125 -4.390625 9.8125 5.078125 
z
" id="DejaVuSans-74"/>
    </defs>
    <g transform="translate(361.8625 197.735937)scale(0.1 -0.1)">
     <use xlink:href="#DejaVuSans-82"/>
     <use x="69.482422" xlink:href="#DejaVuSans-74"/>
     <use x="98.974609" xlink:href="#DejaVuSans-80"/>
     <use x="159.277344" xlink:href="#DejaVuSans-72"/>
     <use x="234.472656" xlink:href="#DejaVuSans-32"/>
     <use x="266.259766" xlink:href="#DejaVuSans-40"/>
     <use x="305.273438" xlink:href="#DejaVuSans-50"/>
     <use x="368.896484" xlink:href="#DejaVuSans-52"/>
     <use x="432.519531" xlink:href="#DejaVuSans-41"/>
    </g>
   </g>
   <g id="line2d_75">
    <path d="M 333.8625 208.914062 
L 353.8625 208.914062 
" style="fill:none;stroke:#66a61e;stroke-dasharray:4.5,1.5;stroke-dashoffset:0;stroke-width:1.5;"/>
   </g>
   <g id="line2d_76"/>
   <g id="text_33">
    <!-- SPD (24) -->
    <g transform="translate(361.8625 212.414062)scale(0.1 -0.1)">
     <use xlink:href="#DejaVuSans-83"/>
     <use x="63.476562" xlink:href="#DejaVuSans-80"/>
     <use x="123.779297" xlink:href="#DejaVuSans-68"/>
     <use x="200.78125" xlink:href="#DejaVuSans-32"/>
     <use x="232.568359" xlink:href="#DejaVuSans-40"/>
     <use x="271.582031" xlink:href="#DejaVuSans-50"/>
     <use x="335.205078" xlink:href="#DejaVuSans-52"/>
     <use x="398.828125" xlink:href="#DejaVuSans-41"/>
    </g>
   </g>
   <g id="line2d_77">
    <path d="M 333.8625 223.592187 
L 353.8625 223.592187 
" style="fill:none;stroke:#e6ab02;stroke-dasharray:4.5,1.5;stroke-dashoffset:0;stroke-width:1.5;"/>
   </g>
   <g id="line2d_78"/>
   <g id="text_34">
    <!-- CC (24) -->
    <g transform="translate(361.8625 227.092187)scale(0.1 -0.1)">
     <use xlink:href="#DejaVuSans-67"/>
     <use x="69.824219" xlink:href="#DejaVuSans-67"/>
     <use x="139.648438" xlink:href="#DejaVuSans-32"/>
     <use x="171.435547" xlink:href="#DejaVuSans-40"/>
     <use x="210.449219" xlink:href="#DejaVuSans-50"/>
     <use x="274.072266" xlink:href="#DejaVuSans-52"/>
     <use x="337.695312" xlink:href="#DejaVuSans-41"/>
    </g>
   </g>
   <g id="line2d_79">
    <path d="M 333.8625 238.270312 
L 353.8625 238.270312 
" style="fill:none;stroke:#a6761d;stroke-dasharray:4.5,1.5;stroke-dashoffset:0;stroke-width:1.5;"/>
   </g>
   <g id="line2d_80"/>
   <g id="text_35">
    <!-- AHR-H (20) -->
    <g transform="translate(361.8625 241.770312)scale(0.1 -0.1)">
     <use xlink:href="#DejaVuSans-65"/>
     <use x="68.408203" xlink:href="#DejaVuSans-72"/>
     <use x="143.603516" xlink:href="#DejaVuSans-82"/>
     <use x="213.023438" xlink:href="#DejaVuSans-45"/>
     <use x="249.107422" xlink:href="#DejaVuSans-72"/>
     <use x="324.302734" xlink:href="#DejaVuSans-32"/>
     <use x="356.089844" xlink:href="#DejaVuSans-40"/>
     <use x="395.103516" xlink:href="#DejaVuSans-50"/>
     <use x="458.726562" xlink:href="#DejaVuSans-48"/>
     <use x="522.349609" xlink:href="#DejaVuSans-41"/>
    </g>
   </g>
   <g id="line2d_81">
    <path d="M 333.8625 252.948437 
L 353.8625 252.948437 
" style="fill:none;stroke:#666666;stroke-dasharray:4.5,1.5;stroke-dashoffset:0;stroke-width:1.5;"/>
   </g>
   <g id="line2d_82"/>
   <g id="text_36">
    <!-- AHR-A (20) -->
    <g transform="translate(361.8625 256.448437)scale(0.1 -0.1)">
     <use xlink:href="#DejaVuSans-65"/>
     <use x="68.408203" xlink:href="#DejaVuSans-72"/>
     <use x="143.603516" xlink:href="#DejaVuSans-82"/>
     <use x="213.023438" xlink:href="#DejaVuSans-45"/>
     <use x="249.076172" xlink:href="#DejaVuSans-65"/>
     <use x="317.484375" xlink:href="#DejaVuSans-32"/>
     <use x="349.271484" xlink:href="#DejaVuSans-40"/>
     <use x="388.285156" xlink:href="#DejaVuSans-50"/>
     <use x="451.908203" xlink:href="#DejaVuSans-48"/>
     <use x="515.53125" xlink:href="#DejaVuSans-41"/>
    </g>
   </g>
  </g>
 </g>
 <defs>
  <clipPath id="p60c1813643">
   <rect height="207.330771" width="271.81" x="43.55" y="12.9"/>
  </clipPath>
 </defs>
</svg>
