<?xml version="1.0" encoding="utf-8" standalone="no"?>
<!DOCTYPE svg PUBLIC "-//W3C//DTD SVG 1.1//EN"
  "http://www.w3.org/Graphics/SVG/1.1/DTD/svg11.dtd">
<!-- Created with matplotlib (https://matplotlib.org/) -->
<svg height="288pt" version="1.1" viewBox="0 0 432 288" width="432pt" xmlns="http://www.w3.org/2000/svg" xmlns:xlink="http://www.w3.org/1999/xlink">
 <defs>
  <style type="text/css">
*{stroke-linecap:butt;stroke-linejoin:round;}
  </style>
 </defs>
 <g id="figure_1">
  <g id="patch_1">
   <path d="M 0 288 
L 432 288 
L 432 0 
L 0 0 
z
" style="fill:#ffffff;"/>
  </g>
  <g id="axes_1">
   <g id="patch_2">
    <path d="M 43.55 220.230771 
L 315.36 220.230771 
L 315.36 12.9 
L 43.55 12.9 
z
" style="fill:#ffffff;"/>
   </g>
   <g id="matplotlib.axis_1">
    <g id="xtick_1">
     <g id="line2d_1">
      <defs>
       <path d="M 0 0 
L 0 3.5 
" id="me05c7b30e5" style="stroke:#000000;stroke-width:0.8;"/>
      </defs>
      <g>
       <use style="stroke:#000000;stroke-width:0.8;" x="49.292098" xlink:href="#me05c7b30e5" y="220.230771"/>
      </g>
     </g>
     <g id="text_1">
      <!-- 2020-11-29 -->
      <defs>
       <path d="M 19.1875 8.296875 
L 53.609375 8.296875 
L 53.609375 0 
L 7.328125 0 
L 7.328125 8.296875 
Q 12.9375 14.109375 22.625 23.890625 
Q 32.328125 33.6875 34.8125 36.53125 
Q 39.546875 41.84375 41.421875 45.53125 
Q 43.3125 49.21875 43.3125 52.78125 
Q 43.3125 58.59375 39.234375 62.25 
Q 35.15625 65.921875 28.609375 65.921875 
Q 23.96875 65.921875 18.8125 64.3125 
Q 13.671875 62.703125 7.8125 59.421875 
L 7.8125 69.390625 
Q 13.765625 71.78125 18.9375 73 
Q 24.125 74.21875 28.421875 74.21875 
Q 39.75 74.21875 46.484375 68.546875 
Q 53.21875 62.890625 53.21875 53.421875 
Q 53.21875 48.921875 51.53125 44.890625 
Q 49.859375 40.875 45.40625 35.40625 
Q 44.1875 33.984375 37.640625 27.21875 
Q 31.109375 20.453125 19.1875 8.296875 
z
" id="DejaVuSans-50"/>
       <path d="M 31.78125 66.40625 
Q 24.171875 66.40625 20.328125 58.90625 
Q 16.5 51.421875 16.5 36.375 
Q 16.5 21.390625 20.328125 13.890625 
Q 24.171875 6.390625 31.78125 6.390625 
Q 39.453125 6.390625 43.28125 13.890625 
Q 47.125 21.390625 47.125 36.375 
Q 47.125 51.421875 43.28125 58.90625 
Q 39.453125 66.40625 31.78125 66.40625 
z
M 31.78125 74.21875 
Q 44.046875 74.21875 50.515625 64.515625 
Q 56.984375 54.828125 56.984375 36.375 
Q 56.984375 17.96875 50.515625 8.265625 
Q 44.046875 -1.421875 31.78125 -1.421875 
Q 19.53125 -1.421875 13.0625 8.265625 
Q 6.59375 17.96875 6.59375 36.375 
Q 6.59375 54.828125 13.0625 64.515625 
Q 19.53125 74.21875 31.78125 74.21875 
z
" id="DejaVuSans-48"/>
       <path d="M 4.890625 31.390625 
L 31.203125 31.390625 
L 31.203125 23.390625 
L 4.890625 23.390625 
z
" id="DejaVuSans-45"/>
       <path d="M 12.40625 8.296875 
L 28.515625 8.296875 
L 28.515625 63.921875 
L 10.984375 60.40625 
L 10.984375 69.390625 
L 28.421875 72.90625 
L 38.28125 72.90625 
L 38.28125 8.296875 
L 54.390625 8.296875 
L 54.390625 0 
L 12.40625 0 
z
" id="DejaVuSans-49"/>
       <path d="M 10.984375 1.515625 
L 10.984375 10.5 
Q 14.703125 8.734375 18.5 7.8125 
Q 22.3125 6.890625 25.984375 6.890625 
Q 35.75 6.890625 40.890625 13.453125 
Q 46.046875 20.015625 46.78125 33.40625 
Q 43.953125 29.203125 39.59375 26.953125 
Q 35.25 24.703125 29.984375 24.703125 
Q 19.046875 24.703125 12.671875 31.3125 
Q 6.296875 37.9375 6.296875 49.421875 
Q 6.296875 60.640625 12.9375 67.421875 
Q 19.578125 74.21875 30.609375 74.21875 
Q 43.265625 74.21875 49.921875 64.515625 
Q 56.59375 54.828125 56.59375 36.375 
Q 56.59375 19.140625 48.40625 8.859375 
Q 40.234375 -1.421875 26.421875 -1.421875 
Q 22.703125 -1.421875 18.890625 -0.6875 
Q 15.09375 0.046875 10.984375 1.515625 
z
M 30.609375 32.421875 
Q 37.25 32.421875 41.125 36.953125 
Q 45.015625 41.5 45.015625 49.421875 
Q 45.015625 57.28125 41.125 61.84375 
Q 37.25 66.40625 30.609375 66.40625 
Q 23.96875 66.40625 20.09375 61.84375 
Q 16.21875 57.28125 16.21875 49.421875 
Q 16.21875 41.5 20.09375 36.953125 
Q 23.96875 32.421875 30.609375 32.421875 
z
" id="DejaVuSans-57"/>
      </defs>
      <g transform="translate(25.506982 262.869024)rotate(-30)scale(0.1 -0.1)">
       <use xlink:href="#DejaVuSans-50"/>
       <use x="63.623047" xlink:href="#DejaVuSans-48"/>
       <use x="127.246094" xlink:href="#DejaVuSans-50"/>
       <use x="190.869141" xlink:href="#DejaVuSans-48"/>
       <use x="254.492188" xlink:href="#DejaVuSans-45"/>
       <use x="290.576172" xlink:href="#DejaVuSans-49"/>
       <use x="354.199219" xlink:href="#DejaVuSans-49"/>
       <use x="417.822266" xlink:href="#DejaVuSans-45"/>
       <use x="453.90625" xlink:href="#DejaVuSans-50"/>
       <use x="517.529297" xlink:href="#DejaVuSans-57"/>
      </g>
     </g>
    </g>
    <g id="xtick_2">
     <g id="line2d_2">
      <g>
       <use style="stroke:#000000;stroke-width:0.8;" x="58.424607" xlink:href="#me05c7b30e5" y="220.230771"/>
      </g>
     </g>
     <g id="text_2">
      <!-- 2020-12-01 -->
      <g transform="translate(34.63949 262.869024)rotate(-30)scale(0.1 -0.1)">
       <use xlink:href="#DejaVuSans-50"/>
       <use x="63.623047" xlink:href="#DejaVuSans-48"/>
       <use x="127.246094" xlink:href="#DejaVuSans-50"/>
       <use x="190.869141" xlink:href="#DejaVuSans-48"/>
       <use x="254.492188" xlink:href="#DejaVuSans-45"/>
       <use x="290.576172" xlink:href="#DejaVuSans-49"/>
       <use x="354.199219" xlink:href="#DejaVuSans-50"/>
       <use x="417.822266" xlink:href="#DejaVuSans-45"/>
       <use x="453.90625" xlink:href="#DejaVuSans-48"/>
       <use x="517.529297" xlink:href="#DejaVuSans-49"/>
      </g>
     </g>
    </g>
    <g id="xtick_3">
     <g id="line2d_3">
      <g>
       <use style="stroke:#000000;stroke-width:0.8;" x="90.388387" xlink:href="#me05c7b30e5" y="220.230771"/>
      </g>
     </g>
     <g id="text_3">
      <!-- 2020-12-08 -->
      <defs>
       <path d="M 31.78125 34.625 
Q 24.75 34.625 20.71875 30.859375 
Q 16.703125 27.09375 16.703125 20.515625 
Q 16.703125 13.921875 20.71875 10.15625 
Q 24.75 6.390625 31.78125 6.390625 
Q 38.8125 6.390625 42.859375 10.171875 
Q 46.921875 13.96875 46.921875 20.515625 
Q 46.921875 27.09375 42.890625 30.859375 
Q 38.875 34.625 31.78125 34.625 
z
M 21.921875 38.8125 
Q 15.578125 40.375 12.03125 44.71875 
Q 8.5 49.078125 8.5 55.328125 
Q 8.5 64.0625 14.71875 69.140625 
Q 20.953125 74.21875 31.78125 74.21875 
Q 42.671875 74.21875 48.875 69.140625 
Q 55.078125 64.0625 55.078125 55.328125 
Q 55.078125 49.078125 51.53125 44.71875 
Q 48 40.375 41.703125 38.8125 
Q 48.828125 37.15625 52.796875 32.3125 
Q 56.78125 27.484375 56.78125 20.515625 
Q 56.78125 9.90625 50.3125 4.234375 
Q 43.84375 -1.421875 31.78125 -1.421875 
Q 19.734375 -1.421875 13.25 4.234375 
Q 6.78125 9.90625 6.78125 20.515625 
Q 6.78125 27.484375 10.78125 32.3125 
Q 14.796875 37.15625 21.921875 38.8125 
z
M 18.3125 54.390625 
Q 18.3125 48.734375 21.84375 45.5625 
Q 25.390625 42.390625 31.78125 42.390625 
Q 38.140625 42.390625 41.71875 45.5625 
Q 45.3125 48.734375 45.3125 54.390625 
Q 45.3125 60.0625 41.71875 63.234375 
Q 38.140625 66.40625 31.78125 66.40625 
Q 25.390625 66.40625 21.84375 63.234375 
Q 18.3125 60.0625 18.3125 54.390625 
z
" id="DejaVuSans-56"/>
      </defs>
      <g transform="translate(66.603271 262.869024)rotate(-30)scale(0.1 -0.1)">
       <use xlink:href="#DejaVuSans-50"/>
       <use x="63.623047" xlink:href="#DejaVuSans-48"/>
       <use x="127.246094" xlink:href="#DejaVuSans-50"/>
       <use x="190.869141" xlink:href="#DejaVuSans-48"/>
       <use x="254.492188" xlink:href="#DejaVuSans-45"/>
       <use x="290.576172" xlink:href="#DejaVuSans-49"/>
       <use x="354.199219" xlink:href="#DejaVuSans-50"/>
       <use x="417.822266" xlink:href="#DejaVuSans-45"/>
       <use x="453.90625" xlink:href="#DejaVuSans-48"/>
       <use x="517.529297" xlink:href="#DejaVuSans-56"/>
      </g>
     </g>
    </g>
    <g id="xtick_4">
     <g id="line2d_4">
      <g>
       <use style="stroke:#000000;stroke-width:0.8;" x="122.352168" xlink:href="#me05c7b30e5" y="220.230771"/>
      </g>
     </g>
     <g id="text_4">
      <!-- 2020-12-15 -->
      <defs>
       <path d="M 10.796875 72.90625 
L 49.515625 72.90625 
L 49.515625 64.59375 
L 19.828125 64.59375 
L 19.828125 46.734375 
Q 21.96875 47.46875 24.109375 47.828125 
Q 26.265625 48.1875 28.421875 48.1875 
Q 40.625 48.1875 47.75 41.5 
Q 54.890625 34.8125 54.890625 23.390625 
Q 54.890625 11.625 47.5625 5.09375 
Q 40.234375 -1.421875 26.90625 -1.421875 
Q 22.3125 -1.421875 17.546875 -0.640625 
Q 12.796875 0.140625 7.71875 1.703125 
L 7.71875 11.625 
Q 12.109375 9.234375 16.796875 8.0625 
Q 21.484375 6.890625 26.703125 6.890625 
Q 35.15625 6.890625 40.078125 11.328125 
Q 45.015625 15.765625 45.015625 23.390625 
Q 45.015625 31 40.078125 35.4375 
Q 35.15625 39.890625 26.703125 39.890625 
Q 22.75 39.890625 18.8125 39.015625 
Q 14.890625 38.140625 10.796875 36.28125 
z
" id="DejaVuSans-53"/>
      </defs>
      <g transform="translate(98.567052 262.869024)rotate(-30)scale(0.1 -0.1)">
       <use xlink:href="#DejaVuSans-50"/>
       <use x="63.623047" xlink:href="#DejaVuSans-48"/>
       <use x="127.246094" xlink:href="#DejaVuSans-50"/>
       <use x="190.869141" xlink:href="#DejaVuSans-48"/>
       <use x="254.492188" xlink:href="#DejaVuSans-45"/>
       <use x="290.576172" xlink:href="#DejaVuSans-49"/>
       <use x="354.199219" xlink:href="#DejaVuSans-50"/>
       <use x="417.822266" xlink:href="#DejaVuSans-45"/>
       <use x="453.90625" xlink:href="#DejaVuSans-49"/>
       <use x="517.529297" xlink:href="#DejaVuSans-53"/>
      </g>
     </g>
    </g>
    <g id="xtick_5">
     <g id="line2d_5">
      <g>
       <use style="stroke:#000000;stroke-width:0.8;" x="154.315949" xlink:href="#me05c7b30e5" y="220.230771"/>
      </g>
     </g>
     <g id="text_5">
      <!-- 2020-12-22 -->
      <g transform="translate(130.530832 262.869024)rotate(-30)scale(0.1 -0.1)">
       <use xlink:href="#DejaVuSans-50"/>
       <use x="63.623047" xlink:href="#DejaVuSans-48"/>
       <use x="127.246094" xlink:href="#DejaVuSans-50"/>
       <use x="190.869141" xlink:href="#DejaVuSans-48"/>
       <use x="254.492188" xlink:href="#DejaVuSans-45"/>
       <use x="290.576172" xlink:href="#DejaVuSans-49"/>
       <use x="354.199219" xlink:href="#DejaVuSans-50"/>
       <use x="417.822266" xlink:href="#DejaVuSans-45"/>
       <use x="453.90625" xlink:href="#DejaVuSans-50"/>
       <use x="517.529297" xlink:href="#DejaVuSans-50"/>
      </g>
     </g>
    </g>
    <g id="xtick_6">
     <g id="line2d_6">
      <g>
       <use style="stroke:#000000;stroke-width:0.8;" x="186.279729" xlink:href="#me05c7b30e5" y="220.230771"/>
      </g>
     </g>
     <g id="text_6">
      <!-- 2020-12-29 -->
      <g transform="translate(162.494613 262.869024)rotate(-30)scale(0.1 -0.1)">
       <use xlink:href="#DejaVuSans-50"/>
       <use x="63.623047" xlink:href="#DejaVuSans-48"/>
       <use x="127.246094" xlink:href="#DejaVuSans-50"/>
       <use x="190.869141" xlink:href="#DejaVuSans-48"/>
       <use x="254.492188" xlink:href="#DejaVuSans-45"/>
       <use x="290.576172" xlink:href="#DejaVuSans-49"/>
       <use x="354.199219" xlink:href="#DejaVuSans-50"/>
       <use x="417.822266" xlink:href="#DejaVuSans-45"/>
       <use x="453.90625" xlink:href="#DejaVuSans-50"/>
       <use x="517.529297" xlink:href="#DejaVuSans-57"/>
      </g>
     </g>
    </g>
    <g id="xtick_7">
     <g id="line2d_7">
      <g>
       <use style="stroke:#000000;stroke-width:0.8;" x="199.978493" xlink:href="#me05c7b30e5" y="220.230771"/>
      </g>
     </g>
     <g id="text_7">
      <!-- 2021-01-01 -->
      <g transform="translate(176.193376 262.869024)rotate(-30)scale(0.1 -0.1)">
       <use xlink:href="#DejaVuSans-50"/>
       <use x="63.623047" xlink:href="#DejaVuSans-48"/>
       <use x="127.246094" xlink:href="#DejaVuSans-50"/>
       <use x="190.869141" xlink:href="#DejaVuSans-49"/>
       <use x="254.492188" xlink:href="#DejaVuSans-45"/>
       <use x="290.576172" xlink:href="#DejaVuSans-48"/>
       <use x="354.199219" xlink:href="#DejaVuSans-49"/>
       <use x="417.822266" xlink:href="#DejaVuSans-45"/>
       <use x="453.90625" xlink:href="#DejaVuSans-48"/>
       <use x="517.529297" xlink:href="#DejaVuSans-49"/>
      </g>
     </g>
    </g>
    <g id="xtick_8">
     <g id="line2d_8">
      <g>
       <use style="stroke:#000000;stroke-width:0.8;" x="231.942273" xlink:href="#me05c7b30e5" y="220.230771"/>
      </g>
     </g>
     <g id="text_8">
      <!-- 2021-01-08 -->
      <g transform="translate(208.157157 262.869024)rotate(-30)scale(0.1 -0.1)">
       <use xlink:href="#DejaVuSans-50"/>
       <use x="63.623047" xlink:href="#DejaVuSans-48"/>
       <use x="127.246094" xlink:href="#DejaVuSans-50"/>
       <use x="190.869141" xlink:href="#DejaVuSans-49"/>
       <use x="254.492188" xlink:href="#DejaVuSans-45"/>
       <use x="290.576172" xlink:href="#DejaVuSans-48"/>
       <use x="354.199219" xlink:href="#DejaVuSans-49"/>
       <use x="417.822266" xlink:href="#DejaVuSans-45"/>
       <use x="453.90625" xlink:href="#DejaVuSans-48"/>
       <use x="517.529297" xlink:href="#DejaVuSans-56"/>
      </g>
     </g>
    </g>
    <g id="xtick_9">
     <g id="line2d_9">
      <g>
       <use style="stroke:#000000;stroke-width:0.8;" x="263.906054" xlink:href="#me05c7b30e5" y="220.230771"/>
      </g>
     </g>
     <g id="text_9">
      <!-- 2021-01-15 -->
      <g transform="translate(240.120938 262.869024)rotate(-30)scale(0.1 -0.1)">
       <use xlink:href="#DejaVuSans-50"/>
       <use x="63.623047" xlink:href="#DejaVuSans-48"/>
       <use x="127.246094" xlink:href="#DejaVuSans-50"/>
       <use x="190.869141" xlink:href="#DejaVuSans-49"/>
       <use x="254.492188" xlink:href="#DejaVuSans-45"/>
       <use x="290.576172" xlink:href="#DejaVuSans-48"/>
       <use x="354.199219" xlink:href="#DejaVuSans-49"/>
       <use x="417.822266" xlink:href="#DejaVuSans-45"/>
       <use x="453.90625" xlink:href="#DejaVuSans-49"/>
       <use x="517.529297" xlink:href="#DejaVuSans-53"/>
      </g>
     </g>
    </g>
    <g id="xtick_10">
     <g id="line2d_10">
      <g>
       <use style="stroke:#000000;stroke-width:0.8;" x="295.869835" xlink:href="#me05c7b30e5" y="220.230771"/>
      </g>
     </g>
     <g id="text_10">
      <!-- 2021-01-22 -->
      <g transform="translate(272.084718 262.869024)rotate(-30)scale(0.1 -0.1)">
       <use xlink:href="#DejaVuSans-50"/>
       <use x="63.623047" xlink:href="#DejaVuSans-48"/>
       <use x="127.246094" xlink:href="#DejaVuSans-50"/>
       <use x="190.869141" xlink:href="#DejaVuSans-49"/>
       <use x="254.492188" xlink:href="#DejaVuSans-45"/>
       <use x="290.576172" xlink:href="#DejaVuSans-48"/>
       <use x="354.199219" xlink:href="#DejaVuSans-49"/>
       <use x="417.822266" xlink:href="#DejaVuSans-45"/>
       <use x="453.90625" xlink:href="#DejaVuSans-50"/>
       <use x="517.529297" xlink:href="#DejaVuSans-50"/>
      </g>
     </g>
    </g>
    <g id="text_11">
     <!-- Date -->
     <defs>
      <path d="M 19.671875 64.796875 
L 19.671875 8.109375 
L 31.59375 8.109375 
Q 46.6875 8.109375 53.6875 14.9375 
Q 60.6875 21.78125 60.6875 36.53125 
Q 60.6875 51.171875 53.6875 57.984375 
Q 46.6875 64.796875 31.59375 64.796875 
z
M 9.8125 72.90625 
L 30.078125 72.90625 
Q 51.265625 72.90625 61.171875 64.09375 
Q 71.09375 55.28125 71.09375 36.53125 
Q 71.09375 17.671875 61.125 8.828125 
Q 51.171875 0 30.078125 0 
L 9.8125 0 
z
" id="DejaVuSans-68"/>
      <path d="M 34.28125 27.484375 
Q 23.390625 27.484375 19.1875 25 
Q 14.984375 22.515625 14.984375 16.5 
Q 14.984375 11.71875 18.140625 8.90625 
Q 21.296875 6.109375 26.703125 6.109375 
Q 34.1875 6.109375 38.703125 11.40625 
Q 43.21875 16.703125 43.21875 25.484375 
L 43.21875 27.484375 
z
M 52.203125 31.203125 
L 52.203125 0 
L 43.21875 0 
L 43.21875 8.296875 
Q 40.140625 3.328125 35.546875 0.953125 
Q 30.953125 -1.421875 24.3125 -1.421875 
Q 15.921875 -1.421875 10.953125 3.296875 
Q 6 8.015625 6 15.921875 
Q 6 25.140625 12.171875 29.828125 
Q 18.359375 34.515625 30.609375 34.515625 
L 43.21875 34.515625 
L 43.21875 35.40625 
Q 43.21875 41.609375 39.140625 45 
Q 35.0625 48.390625 27.6875 48.390625 
Q 23 48.390625 18.546875 47.265625 
Q 14.109375 46.140625 10.015625 43.890625 
L 10.015625 52.203125 
Q 14.9375 54.109375 19.578125 55.046875 
Q 24.21875 56 28.609375 56 
Q 40.484375 56 46.34375 49.84375 
Q 52.203125 43.703125 52.203125 31.203125 
z
" id="DejaVuSans-97"/>
      <path d="M 18.3125 70.21875 
L 18.3125 54.6875 
L 36.8125 54.6875 
L 36.8125 47.703125 
L 18.3125 47.703125 
L 18.3125 18.015625 
Q 18.3125 11.328125 20.140625 9.421875 
Q 21.96875 7.515625 27.59375 7.515625 
L 36.8125 7.515625 
L 36.8125 0 
L 27.59375 0 
Q 17.1875 0 13.234375 3.875 
Q 9.28125 7.765625 9.28125 18.015625 
L 9.28125 47.703125 
L 2.6875 47.703125 
L 2.6875 54.6875 
L 9.28125 54.6875 
L 9.28125 70.21875 
z
" id="DejaVuSans-116"/>
      <path d="M 56.203125 29.59375 
L 56.203125 25.203125 
L 14.890625 25.203125 
Q 15.484375 15.921875 20.484375 11.0625 
Q 25.484375 6.203125 34.421875 6.203125 
Q 39.59375 6.203125 44.453125 7.46875 
Q 49.3125 8.734375 54.109375 11.28125 
L 54.109375 2.78125 
Q 49.265625 0.734375 44.1875 -0.34375 
Q 39.109375 -1.421875 33.890625 -1.421875 
Q 20.796875 -1.421875 13.15625 6.1875 
Q 5.515625 13.8125 5.515625 26.8125 
Q 5.515625 40.234375 12.765625 48.109375 
Q 20.015625 56 32.328125 56 
Q 43.359375 56 49.78125 48.890625 
Q 56.203125 41.796875 56.203125 29.59375 
z
M 47.21875 32.234375 
Q 47.125 39.59375 43.09375 43.984375 
Q 39.0625 48.390625 32.421875 48.390625 
Q 24.90625 48.390625 20.390625 44.140625 
Q 15.875 39.890625 15.1875 32.171875 
z
" id="DejaVuSans-101"/>
     </defs>
     <g transform="translate(167.504219 276.268523)scale(0.1 -0.1)">
      <use xlink:href="#DejaVuSans-68"/>
      <use x="77.001953" xlink:href="#DejaVuSans-97"/>
      <use x="138.28125" xlink:href="#DejaVuSans-116"/>
      <use x="177.490234" xlink:href="#DejaVuSans-101"/>
     </g>
    </g>
   </g>
   <g id="matplotlib.axis_2">
    <g id="ytick_1">
     <g id="line2d_11">
      <defs>
       <path d="M 0 0 
L -3.5 0 
" id="m88cc658cef" style="stroke:#000000;stroke-width:0.8;"/>
      </defs>
      <g>
       <use style="stroke:#000000;stroke-width:0.8;" x="43.55" xlink:href="#m88cc658cef" y="210.806645"/>
      </g>
     </g>
     <g id="text_12">
      <!-- 0 -->
      <g transform="translate(30.1875 214.605864)scale(0.1 -0.1)">
       <use xlink:href="#DejaVuSans-48"/>
      </g>
     </g>
    </g>
    <g id="ytick_2">
     <g id="line2d_12">
      <g>
       <use style="stroke:#000000;stroke-width:0.8;" x="43.55" xlink:href="#m88cc658cef" y="187.24633"/>
      </g>
     </g>
     <g id="text_13">
      <!-- 5 -->
      <g transform="translate(30.1875 191.045549)scale(0.1 -0.1)">
       <use xlink:href="#DejaVuSans-53"/>
      </g>
     </g>
    </g>
    <g id="ytick_3">
     <g id="line2d_13">
      <g>
       <use style="stroke:#000000;stroke-width:0.8;" x="43.55" xlink:href="#m88cc658cef" y="163.686016"/>
      </g>
     </g>
     <g id="text_14">
      <!-- 10 -->
      <g transform="translate(23.825 167.485234)scale(0.1 -0.1)">
       <use xlink:href="#DejaVuSans-49"/>
       <use x="63.623047" xlink:href="#DejaVuSans-48"/>
      </g>
     </g>
    </g>
    <g id="ytick_4">
     <g id="line2d_14">
      <g>
       <use style="stroke:#000000;stroke-width:0.8;" x="43.55" xlink:href="#m88cc658cef" y="140.125701"/>
      </g>
     </g>
     <g id="text_15">
      <!-- 15 -->
      <g transform="translate(23.825 143.924919)scale(0.1 -0.1)">
       <use xlink:href="#DejaVuSans-49"/>
       <use x="63.623047" xlink:href="#DejaVuSans-53"/>
      </g>
     </g>
    </g>
    <g id="ytick_5">
     <g id="line2d_15">
      <g>
       <use style="stroke:#000000;stroke-width:0.8;" x="43.55" xlink:href="#m88cc658cef" y="116.565386"/>
      </g>
     </g>
     <g id="text_16">
      <!-- 20 -->
      <g transform="translate(23.825 120.364604)scale(0.1 -0.1)">
       <use xlink:href="#DejaVuSans-50"/>
       <use x="63.623047" xlink:href="#DejaVuSans-48"/>
      </g>
     </g>
    </g>
    <g id="ytick_6">
     <g id="line2d_16">
      <g>
       <use style="stroke:#000000;stroke-width:0.8;" x="43.55" xlink:href="#m88cc658cef" y="93.005071"/>
      </g>
     </g>
     <g id="text_17">
      <!-- 25 -->
      <g transform="translate(23.825 96.80429)scale(0.1 -0.1)">
       <use xlink:href="#DejaVuSans-50"/>
       <use x="63.623047" xlink:href="#DejaVuSans-53"/>
      </g>
     </g>
    </g>
    <g id="ytick_7">
     <g id="line2d_17">
      <g>
       <use style="stroke:#000000;stroke-width:0.8;" x="43.55" xlink:href="#m88cc658cef" y="69.444756"/>
      </g>
     </g>
     <g id="text_18">
      <!-- 30 -->
      <defs>
       <path d="M 40.578125 39.3125 
Q 47.65625 37.796875 51.625 33 
Q 55.609375 28.21875 55.609375 21.1875 
Q 55.609375 10.40625 48.1875 4.484375 
Q 40.765625 -1.421875 27.09375 -1.421875 
Q 22.515625 -1.421875 17.65625 -0.515625 
Q 12.796875 0.390625 7.625 2.203125 
L 7.625 11.71875 
Q 11.71875 9.328125 16.59375 8.109375 
Q 21.484375 6.890625 26.8125 6.890625 
Q 36.078125 6.890625 40.9375 10.546875 
Q 45.796875 14.203125 45.796875 21.1875 
Q 45.796875 27.640625 41.28125 31.265625 
Q 36.765625 34.90625 28.71875 34.90625 
L 20.21875 34.90625 
L 20.21875 43.015625 
L 29.109375 43.015625 
Q 36.375 43.015625 40.234375 45.921875 
Q 44.09375 48.828125 44.09375 54.296875 
Q 44.09375 59.90625 40.109375 62.90625 
Q 36.140625 65.921875 28.71875 65.921875 
Q 24.65625 65.921875 20.015625 65.03125 
Q 15.375 64.15625 9.8125 62.3125 
L 9.8125 71.09375 
Q 15.4375 72.65625 20.34375 73.4375 
Q 25.25 74.21875 29.59375 74.21875 
Q 40.828125 74.21875 47.359375 69.109375 
Q 53.90625 64.015625 53.90625 55.328125 
Q 53.90625 49.265625 50.4375 45.09375 
Q 46.96875 40.921875 40.578125 39.3125 
z
" id="DejaVuSans-51"/>
      </defs>
      <g transform="translate(23.825 73.243975)scale(0.1 -0.1)">
       <use xlink:href="#DejaVuSans-51"/>
       <use x="63.623047" xlink:href="#DejaVuSans-48"/>
      </g>
     </g>
    </g>
    <g id="ytick_8">
     <g id="line2d_18">
      <g>
       <use style="stroke:#000000;stroke-width:0.8;" x="43.55" xlink:href="#m88cc658cef" y="45.884441"/>
      </g>
     </g>
     <g id="text_19">
      <!-- 35 -->
      <g transform="translate(23.825 49.68366)scale(0.1 -0.1)">
       <use xlink:href="#DejaVuSans-51"/>
       <use x="63.623047" xlink:href="#DejaVuSans-53"/>
      </g>
     </g>
    </g>
    <g id="ytick_9">
     <g id="line2d_19">
      <g>
       <use style="stroke:#000000;stroke-width:0.8;" x="43.55" xlink:href="#m88cc658cef" y="22.324126"/>
      </g>
     </g>
     <g id="text_20">
      <!-- 40 -->
      <defs>
       <path d="M 37.796875 64.3125 
L 12.890625 25.390625 
L 37.796875 25.390625 
z
M 35.203125 72.90625 
L 47.609375 72.90625 
L 47.609375 25.390625 
L 58.015625 25.390625 
L 58.015625 17.1875 
L 47.609375 17.1875 
L 47.609375 0 
L 37.796875 0 
L 37.796875 17.1875 
L 4.890625 17.1875 
L 4.890625 26.703125 
z
" id="DejaVuSans-52"/>
      </defs>
      <g transform="translate(23.825 26.123345)scale(0.1 -0.1)">
       <use xlink:href="#DejaVuSans-52"/>
       <use x="63.623047" xlink:href="#DejaVuSans-48"/>
      </g>
     </g>
    </g>
    <g id="text_21">
     <!-- Students Registered -->
     <defs>
      <path d="M 53.515625 70.515625 
L 53.515625 60.890625 
Q 47.90625 63.578125 42.921875 64.890625 
Q 37.9375 66.21875 33.296875 66.21875 
Q 25.25 66.21875 20.875 63.09375 
Q 16.5 59.96875 16.5 54.203125 
Q 16.5 49.359375 19.40625 46.890625 
Q 22.3125 44.4375 30.421875 42.921875 
L 36.375 41.703125 
Q 47.40625 39.59375 52.65625 34.296875 
Q 57.90625 29 57.90625 20.125 
Q 57.90625 9.515625 50.796875 4.046875 
Q 43.703125 -1.421875 29.984375 -1.421875 
Q 24.8125 -1.421875 18.96875 -0.25 
Q 13.140625 0.921875 6.890625 3.21875 
L 6.890625 13.375 
Q 12.890625 10.015625 18.65625 8.296875 
Q 24.421875 6.59375 29.984375 6.59375 
Q 38.421875 6.59375 43.015625 9.90625 
Q 47.609375 13.234375 47.609375 19.390625 
Q 47.609375 24.75 44.3125 27.78125 
Q 41.015625 30.8125 33.5 32.328125 
L 27.484375 33.5 
Q 16.453125 35.6875 11.515625 40.375 
Q 6.59375 45.0625 6.59375 53.421875 
Q 6.59375 63.09375 13.40625 68.65625 
Q 20.21875 74.21875 32.171875 74.21875 
Q 37.3125 74.21875 42.625 73.28125 
Q 47.953125 72.359375 53.515625 70.515625 
z
" id="DejaVuSans-83"/>
      <path d="M 8.5 21.578125 
L 8.5 54.6875 
L 17.484375 54.6875 
L 17.484375 21.921875 
Q 17.484375 14.15625 20.5 10.265625 
Q 23.53125 6.390625 29.59375 6.390625 
Q 36.859375 6.390625 41.078125 11.03125 
Q 45.3125 15.671875 45.3125 23.6875 
L 45.3125 54.6875 
L 54.296875 54.6875 
L 54.296875 0 
L 45.3125 0 
L 45.3125 8.40625 
Q 42.046875 3.421875 37.71875 1 
Q 33.40625 -1.421875 27.6875 -1.421875 
Q 18.265625 -1.421875 13.375 4.4375 
Q 8.5 10.296875 8.5 21.578125 
z
M 31.109375 56 
z
" id="DejaVuSans-117"/>
      <path d="M 45.40625 46.390625 
L 45.40625 75.984375 
L 54.390625 75.984375 
L 54.390625 0 
L 45.40625 0 
L 45.40625 8.203125 
Q 42.578125 3.328125 38.25 0.953125 
Q 33.9375 -1.421875 27.875 -1.421875 
Q 17.96875 -1.421875 11.734375 6.484375 
Q 5.515625 14.40625 5.515625 27.296875 
Q 5.515625 40.1875 11.734375 48.09375 
Q 17.96875 56 27.875 56 
Q 33.9375 56 38.25 53.625 
Q 42.578125 51.265625 45.40625 46.390625 
z
M 14.796875 27.296875 
Q 14.796875 17.390625 18.875 11.75 
Q 22.953125 6.109375 30.078125 6.109375 
Q 37.203125 6.109375 41.296875 11.75 
Q 45.40625 17.390625 45.40625 27.296875 
Q 45.40625 37.203125 41.296875 42.84375 
Q 37.203125 48.484375 30.078125 48.484375 
Q 22.953125 48.484375 18.875 42.84375 
Q 14.796875 37.203125 14.796875 27.296875 
z
" id="DejaVuSans-100"/>
      <path d="M 54.890625 33.015625 
L 54.890625 0 
L 45.90625 0 
L 45.90625 32.71875 
Q 45.90625 40.484375 42.875 44.328125 
Q 39.84375 48.1875 33.796875 48.1875 
Q 26.515625 48.1875 22.3125 43.546875 
Q 18.109375 38.921875 18.109375 30.90625 
L 18.109375 0 
L 9.078125 0 
L 9.078125 54.6875 
L 18.109375 54.6875 
L 18.109375 46.1875 
Q 21.34375 51.125 25.703125 53.5625 
Q 30.078125 56 35.796875 56 
Q 45.21875 56 50.046875 50.171875 
Q 54.890625 44.34375 54.890625 33.015625 
z
" id="DejaVuSans-110"/>
      <path d="M 44.28125 53.078125 
L 44.28125 44.578125 
Q 40.484375 46.53125 36.375 47.5 
Q 32.28125 48.484375 27.875 48.484375 
Q 21.1875 48.484375 17.84375 46.4375 
Q 14.5 44.390625 14.5 40.28125 
Q 14.5 37.15625 16.890625 35.375 
Q 19.28125 33.59375 26.515625 31.984375 
L 29.59375 31.296875 
Q 39.15625 29.25 43.1875 25.515625 
Q 47.21875 21.78125 47.21875 15.09375 
Q 47.21875 7.46875 41.1875 3.015625 
Q 35.15625 -1.421875 24.609375 -1.421875 
Q 20.21875 -1.421875 15.453125 -0.5625 
Q 10.6875 0.296875 5.421875 2 
L 5.421875 11.28125 
Q 10.40625 8.6875 15.234375 7.390625 
Q 20.0625 6.109375 24.8125 6.109375 
Q 31.15625 6.109375 34.5625 8.28125 
Q 37.984375 10.453125 37.984375 14.40625 
Q 37.984375 18.0625 35.515625 20.015625 
Q 33.0625 21.96875 24.703125 23.78125 
L 21.578125 24.515625 
Q 13.234375 26.265625 9.515625 29.90625 
Q 5.8125 33.546875 5.8125 39.890625 
Q 5.8125 47.609375 11.28125 51.796875 
Q 16.75 56 26.8125 56 
Q 31.78125 56 36.171875 55.265625 
Q 40.578125 54.546875 44.28125 53.078125 
z
" id="DejaVuSans-115"/>
      <path id="DejaVuSans-32"/>
      <path d="M 44.390625 34.1875 
Q 47.5625 33.109375 50.5625 29.59375 
Q 53.5625 26.078125 56.59375 19.921875 
L 66.609375 0 
L 56 0 
L 46.6875 18.703125 
Q 43.0625 26.03125 39.671875 28.421875 
Q 36.28125 30.8125 30.421875 30.8125 
L 19.671875 30.8125 
L 19.671875 0 
L 9.8125 0 
L 9.8125 72.90625 
L 32.078125 72.90625 
Q 44.578125 72.90625 50.734375 67.671875 
Q 56.890625 62.453125 56.890625 51.90625 
Q 56.890625 45.015625 53.6875 40.46875 
Q 50.484375 35.9375 44.390625 34.1875 
z
M 19.671875 64.796875 
L 19.671875 38.921875 
L 32.078125 38.921875 
Q 39.203125 38.921875 42.84375 42.21875 
Q 46.484375 45.515625 46.484375 51.90625 
Q 46.484375 58.296875 42.84375 61.546875 
Q 39.203125 64.796875 32.078125 64.796875 
z
" id="DejaVuSans-82"/>
      <path d="M 45.40625 27.984375 
Q 45.40625 37.75 41.375 43.109375 
Q 37.359375 48.484375 30.078125 48.484375 
Q 22.859375 48.484375 18.828125 43.109375 
Q 14.796875 37.75 14.796875 27.984375 
Q 14.796875 18.265625 18.828125 12.890625 
Q 22.859375 7.515625 30.078125 7.515625 
Q 37.359375 7.515625 41.375 12.890625 
Q 45.40625 18.265625 45.40625 27.984375 
z
M 54.390625 6.78125 
Q 54.390625 -7.171875 48.1875 -13.984375 
Q 42 -20.796875 29.203125 -20.796875 
Q 24.46875 -20.796875 20.265625 -20.09375 
Q 16.0625 -19.390625 12.109375 -17.921875 
L 12.109375 -9.1875 
Q 16.0625 -11.328125 19.921875 -12.34375 
Q 23.78125 -13.375 27.78125 -13.375 
Q 36.625 -13.375 41.015625 -8.765625 
Q 45.40625 -4.15625 45.40625 5.171875 
L 45.40625 9.625 
Q 42.625 4.78125 38.28125 2.390625 
Q 33.9375 0 27.875 0 
Q 17.828125 0 11.671875 7.65625 
Q 5.515625 15.328125 5.515625 27.984375 
Q 5.515625 40.671875 11.671875 48.328125 
Q 17.828125 56 27.875 56 
Q 33.9375 56 38.28125 53.609375 
Q 42.625 51.21875 45.40625 46.390625 
L 45.40625 54.6875 
L 54.390625 54.6875 
z
" id="DejaVuSans-103"/>
      <path d="M 9.421875 54.6875 
L 18.40625 54.6875 
L 18.40625 0 
L 9.421875 0 
z
M 9.421875 75.984375 
L 18.40625 75.984375 
L 18.40625 64.59375 
L 9.421875 64.59375 
z
" id="DejaVuSans-105"/>
      <path d="M 41.109375 46.296875 
Q 39.59375 47.171875 37.8125 47.578125 
Q 36.03125 48 33.890625 48 
Q 26.265625 48 22.1875 43.046875 
Q 18.109375 38.09375 18.109375 28.8125 
L 18.109375 0 
L 9.078125 0 
L 9.078125 54.6875 
L 18.109375 54.6875 
L 18.109375 46.1875 
Q 20.953125 51.171875 25.484375 53.578125 
Q 30.03125 56 36.53125 56 
Q 37.453125 56 38.578125 55.875 
Q 39.703125 55.765625 41.0625 55.515625 
z
" id="DejaVuSans-114"/>
     </defs>
     <g transform="translate(17.745313 167.498979)rotate(-90)scale(0.1 -0.1)">
      <use xlink:href="#DejaVuSans-83"/>
      <use x="63.476562" xlink:href="#DejaVuSans-116"/>
      <use x="102.685547" xlink:href="#DejaVuSans-117"/>
      <use x="166.064453" xlink:href="#DejaVuSans-100"/>
      <use x="229.541016" xlink:href="#DejaVuSans-101"/>
      <use x="291.064453" xlink:href="#DejaVuSans-110"/>
      <use x="354.443359" xlink:href="#DejaVuSans-116"/>
      <use x="393.652344" xlink:href="#DejaVuSans-115"/>
      <use x="445.751953" xlink:href="#DejaVuSans-32"/>
      <use x="477.539062" xlink:href="#DejaVuSans-82"/>
      <use x="546.958984" xlink:href="#DejaVuSans-101"/>
      <use x="608.482422" xlink:href="#DejaVuSans-103"/>
      <use x="671.958984" xlink:href="#DejaVuSans-105"/>
      <use x="699.742188" xlink:href="#DejaVuSans-115"/>
      <use x="751.841797" xlink:href="#DejaVuSans-116"/>
      <use x="791.050781" xlink:href="#DejaVuSans-101"/>
      <use x="852.574219" xlink:href="#DejaVuSans-114"/>
      <use x="893.65625" xlink:href="#DejaVuSans-101"/>
      <use x="955.179688" xlink:href="#DejaVuSans-100"/>
     </g>
    </g>
   </g>
   <g id="line2d_20">
    <path clip-path="url(#p9e07adb27e)" d="M 55.905 210.806645 
L 56.105463 210.806645 
L 56.105463 201.382519 
L 56.214783 201.382519 
L 56.998033 201.382519 
L 56.998033 196.670456 
L 57.089957 196.670456 
L 61.374007 196.670456 
L 61.374007 191.958393 
L 61.469134 191.958393 
L 64.988988 191.958393 
L 64.988988 177.822204 
L 65.084117 177.822204 
L 65.17923 177.822204 
L 65.17923 173.110142 
L 65.274376 173.110142 
L 65.36949 173.110142 
L 65.36949 154.26189 
L 65.464631 154.26189 
L 65.559749 154.26189 
L 65.559749 149.549827 
L 65.654878 149.549827 
L 65.750012 149.549827 
L 65.750012 140.125701 
L 65.845129 140.125701 
L 65.940301 140.125701 
L 65.940301 125.989512 
L 66.035427 125.989512 
L 69.364972 125.989512 
L 69.364972 121.277449 
L 69.460099 121.277449 
L 69.555211 121.277449 
L 69.555211 116.565386 
L 69.650339 116.565386 
L 70.126007 116.565386 
L 70.126007 111.853323 
L 70.221145 111.853323 
L 70.506532 111.853323 
L 70.506532 97.717134 
L 70.601649 97.717134 
L 70.696788 97.717134 
L 70.696788 93.005071 
L 70.79194 93.005071 
L 74.501992 93.005071 
L 74.501992 88.293008 
L 74.597143 88.293008 
L 74.692247 88.293008 
L 74.692247 83.580945 
L 74.787405 83.580945 
L 75.072795 83.580945 
L 75.072795 78.868882 
L 75.167915 78.868882 
L 75.643565 78.868882 
L 75.643565 74.156819 
L 75.738686 74.156819 
L 78.878022 74.156819 
L 78.878022 69.444756 
L 78.973118 69.444756 
L 87.820269 69.444756 
L 87.820269 45.884441 
L 87.915352 45.884441 
L 88.010511 45.884441 
L 88.010511 36.460315 
L 88.105612 36.460315 
L 88.200783 36.460315 
L 88.200783 31.748252 
L 88.295893 31.748252 
L 152.318578 31.748252 
L 152.318578 36.460315 
L 152.413726 36.460315 
L 152.508832 36.460315 
L 152.508832 31.748252 
L 152.603964 31.748252 
L 162.782903 31.748252 
L 162.782903 36.460315 
L 162.878066 36.460315 
L 162.973177 36.460315 
L 162.973177 31.748252 
L 163.068302 31.748252 
L 256.961939 31.748252 
L 256.961939 22.324126 
L 257.057033 22.324126 
L 303.005 22.324126 
L 303.005 22.324126 
" style="fill:none;stroke:#1b9e77;stroke-linecap:square;stroke-width:1.5;"/>
   </g>
   <g id="line2d_21">
    <path clip-path="url(#p9e07adb27e)" d="M 95.620948 196.670456 
L 96.572209 196.670456 
L 96.572209 182.534267 
L 96.667497 182.534267 
L 96.762475 182.534267 
L 96.762475 177.822204 
L 96.857643 177.822204 
L 96.952731 177.822204 
L 96.952731 158.973953 
L 97.0479 158.973953 
L 97.33327 158.973953 
L 97.33327 144.837764 
L 97.428401 144.837764 
L 97.713783 144.837764 
L 97.713783 116.565386 
L 97.808932 116.565386 
L 98.094301 116.565386 
L 98.094301 107.14126 
L 98.189464 107.14126 
L 98.284587 107.14126 
L 98.284587 102.429197 
L 98.379737 102.429197 
L 98.474831 102.429197 
L 98.474831 97.717134 
L 98.569994 97.717134 
L 98.855384 97.717134 
L 98.855384 93.005071 
L 98.950469 93.005071 
L 101.51899 93.005071 
L 101.51899 74.156819 
L 101.614153 74.156819 
L 101.899524 74.156819 
L 101.899524 69.444756 
L 101.994639 69.444756 
L 102.280075 69.444756 
L 102.280075 60.02063 
L 102.375185 60.02063 
L 102.470335 60.02063 
L 102.470335 55.308567 
L 102.565441 55.308567 
L 102.850862 55.308567 
L 102.850862 50.596504 
L 102.94596 50.596504 
L 106.846318 50.596504 
L 106.846318 45.884441 
L 106.94143 45.884441 
L 107.036546 45.884441 
L 107.036546 41.172378 
L 107.13172 41.172378 
L 107.226817 41.172378 
L 107.226817 36.460315 
L 107.32197 36.460315 
L 107.797625 36.460315 
L 107.797625 31.748252 
L 107.892758 31.748252 
L 119.974274 31.748252 
L 119.974274 22.324126 
L 120.069428 22.324126 
L 143.376332 22.324126 
L 143.376332 27.036189 
L 143.471474 27.036189 
L 144.517895 27.036189 
L 144.517895 22.324126 
L 144.613029 22.324126 
L 161.070589 22.324126 
L 161.070589 27.036189 
L 161.165723 27.036189 
L 162.592666 27.036189 
L 162.592666 22.324126 
L 162.687808 22.324126 
L 285.691295 22.324126 
L 285.691295 27.036189 
L 285.786414 27.036189 
L 291.01858 27.036189 
L 291.01858 22.324126 
L 291.113699 22.324126 
L 303.005 22.324126 
L 303.005 22.324126 
" style="fill:none;stroke:#d95f02;stroke-linecap:square;stroke-width:1.5;"/>
   </g>
   <g id="line2d_22">
    <path clip-path="url(#p9e07adb27e)" d="M 55.905 182.534267 
L 56.105463 182.534267 
L 56.105463 177.822204 
L 56.214783 177.822204 
L 57.089957 177.822204 
L 57.089957 173.110142 
L 60.134162 173.110142 
L 60.134162 168.398079 
L 60.42273 168.398079 
L 60.42273 163.686016 
L 60.517871 163.686016 
L 60.61298 163.686016 
L 60.61298 158.973953 
L 60.708127 158.973953 
L 61.183787 158.973953 
L 61.183787 144.837764 
L 61.278937 144.837764 
L 61.374007 144.837764 
L 61.374007 140.125701 
L 61.469134 140.125701 
L 65.17923 140.125701 
L 65.17923 130.701575 
L 65.274376 130.701575 
L 65.36949 130.701575 
L 65.36949 125.989512 
L 65.464631 125.989512 
L 65.559749 125.989512 
L 65.559749 130.701575 
L 65.654878 130.701575 
L 65.940301 130.701575 
L 65.940301 125.989512 
L 66.035427 125.989512 
L 66.130523 125.989512 
L 66.130523 116.565386 
L 66.225648 116.565386 
L 67.08185 116.565386 
L 67.08185 107.14126 
L 67.176991 107.14126 
L 69.174715 107.14126 
L 69.174715 102.429197 
L 69.269836 102.429197 
L 69.364972 102.429197 
L 69.364972 83.580945 
L 69.460099 83.580945 
L 69.555211 83.580945 
L 69.555211 74.156819 
L 69.650339 74.156819 
L 69.935752 74.156819 
L 69.935752 69.444756 
L 70.030885 69.444756 
L 70.126007 69.444756 
L 70.126007 64.732693 
L 70.221145 64.732693 
L 70.316273 64.732693 
L 70.316273 60.02063 
L 70.411414 60.02063 
L 70.506532 60.02063 
L 70.506532 45.884441 
L 70.601649 45.884441 
L 70.696788 45.884441 
L 70.696788 41.172378 
L 70.79194 41.172378 
L 70.887059 41.172378 
L 70.887059 36.460315 
L 70.982173 36.460315 
L 74.121464 36.460315 
L 74.121464 27.036189 
L 74.216609 27.036189 
L 74.311766 27.036189 
L 74.311766 22.324126 
L 74.406886 22.324126 
L 96.762475 22.324126 
L 96.762475 27.036189 
L 96.857643 27.036189 
L 96.952731 27.036189 
L 96.952731 22.324126 
L 97.0479 22.324126 
L 285.501004 22.324126 
L 285.501004 27.036189 
L 285.596142 27.036189 
L 285.691295 27.036189 
L 285.691295 22.324126 
L 285.786414 22.324126 
L 303.005 22.324126 
L 303.005 22.324126 
" style="fill:none;stroke:#7570b3;stroke-linecap:square;stroke-width:1.5;"/>
   </g>
   <g id="line2d_23">
    <path clip-path="url(#p9e07adb27e)" d="M 55.905 201.382519 
L 60.993536 201.382519 
L 60.993536 196.670456 
L 61.088638 196.670456 
L 64.798735 196.670456 
L 64.798735 191.958393 
L 64.89383 191.958393 
L 64.988988 191.958393 
L 64.988988 187.24633 
L 65.084117 187.24633 
L 65.17923 187.24633 
L 65.17923 177.822204 
L 65.274376 177.822204 
L 65.36949 177.822204 
L 65.36949 173.110142 
L 65.464631 173.110142 
L 65.559749 173.110142 
L 65.559749 168.398079 
L 65.654878 168.398079 
L 65.750012 168.398079 
L 65.750012 163.686016 
L 65.845129 163.686016 
L 66.130523 163.686016 
L 66.130523 158.973953 
L 66.225648 158.973953 
L 69.364972 158.973953 
L 69.364972 149.549827 
L 69.460099 149.549827 
L 69.555211 149.549827 
L 69.555211 144.837764 
L 69.650339 144.837764 
L 70.316273 144.837764 
L 70.316273 140.125701 
L 70.411414 140.125701 
L 70.506532 140.125701 
L 70.506532 130.701575 
L 70.601649 130.701575 
L 87.820269 130.701575 
L 87.820269 125.989512 
L 87.915352 125.989512 
L 88.010511 125.989512 
L 88.010511 121.277449 
L 88.105612 121.277449 
L 88.200783 121.277449 
L 88.200783 116.565386 
L 88.295893 116.565386 
L 88.391023 116.565386 
L 88.391023 111.853323 
L 88.486144 111.853323 
L 88.581303 111.853323 
L 88.581303 102.429197 
L 88.676412 102.429197 
L 88.771567 102.429197 
L 88.771567 97.717134 
L 88.866672 97.717134 
L 92.196232 97.717134 
L 92.243801 83.580945 
L 92.291361 83.580945 
L 92.576763 83.580945 
L 92.576763 74.156819 
L 92.671889 74.156819 
L 93.147549 74.156819 
L 93.147549 69.444756 
L 93.242682 69.444756 
L 93.337811 69.444756 
L 93.337811 60.02063 
L 93.432947 60.02063 
L 93.52807 60.02063 
L 93.52807 36.460315 
L 93.623197 36.460315 
L 93.718302 36.460315 
L 93.718302 22.324126 
L 93.813519 22.324126 
L 96.572209 22.324126 
L 96.572209 27.036189 
L 96.667497 27.036189 
L 96.952731 27.036189 
L 96.952731 22.324126 
L 97.0479 22.324126 
L 142.995797 22.324126 
L 142.995797 27.036189 
L 143.09096 27.036189 
L 143.186097 27.036189 
L 143.186097 22.324126 
L 143.281189 22.324126 
L 151.557574 22.324126 
L 151.557574 27.036189 
L 151.652668 27.036189 
L 151.938044 27.036189 
L 151.938044 22.324126 
L 152.033221 22.324126 
L 152.318578 22.324126 
L 152.318578 27.036189 
L 152.413726 27.036189 
L 153.079661 27.036189 
L 153.079661 22.324126 
L 153.174766 22.324126 
L 303.005 22.324126 
L 303.005 22.324126 
" style="fill:none;stroke:#e7298a;stroke-linecap:square;stroke-width:1.5;"/>
   </g>
   <g id="line2d_24">
    <path clip-path="url(#p9e07adb27e)" d="M 55.905 201.382519 
L 61.374007 201.382519 
L 61.374007 196.670456 
L 61.469134 196.670456 
L 64.988988 196.670456 
L 64.988988 191.958393 
L 65.084117 191.958393 
L 65.750012 191.958393 
L 65.750012 187.24633 
L 65.845129 187.24633 
L 69.745462 187.24633 
L 69.745462 177.822204 
L 69.840615 177.822204 
L 70.126007 177.822204 
L 70.126007 173.110142 
L 70.221145 173.110142 
L 70.506532 173.110142 
L 70.506532 168.398079 
L 70.601649 168.398079 
L 70.696788 168.398079 
L 70.696788 163.686016 
L 70.79194 163.686016 
L 75.072795 163.686016 
L 75.072795 158.973953 
L 75.167915 158.973953 
L 79.448785 158.973953 
L 79.448785 154.26189 
L 79.543929 154.26189 
L 87.820269 154.26189 
L 87.820269 144.837764 
L 87.915352 144.837764 
L 88.200783 144.837764 
L 88.200783 140.125701 
L 88.295893 140.125701 
L 89.152083 140.125701 
L 89.152083 135.413638 
L 89.247199 135.413638 
L 92.196232 135.413638 
L 92.196232 130.701575 
L 92.291361 130.701575 
L 93.147549 130.701575 
L 93.147549 125.989512 
L 93.242682 125.989512 
L 93.337811 125.989512 
L 93.337811 121.277449 
L 93.432947 121.277449 
L 93.52807 121.277449 
L 93.575629 107.14126 
L 93.623197 107.14126 
L 96.762475 107.14126 
L 96.762475 102.429197 
L 96.857643 102.429197 
L 96.952731 102.429197 
L 96.952731 93.005071 
L 97.0479 93.005071 
L 97.14299 93.005071 
L 97.14299 88.293008 
L 97.23813 88.293008 
L 97.33327 88.293008 
L 97.380832 74.156819 
L 97.428401 74.156819 
L 97.713783 74.156819 
L 97.713783 60.02063 
L 97.808932 60.02063 
L 97.904068 60.02063 
L 97.904068 50.596504 
L 97.999211 50.596504 
L 98.094301 50.596504 
L 98.094301 31.748252 
L 98.189464 31.748252 
L 98.284587 31.748252 
L 98.284587 27.036189 
L 98.379737 27.036189 
L 99.235898 27.036189 
L 99.235898 22.324126 
L 99.331033 22.324126 
L 151.557574 22.324126 
L 151.557574 27.036189 
L 151.652668 27.036189 
L 151.747833 27.036189 
L 151.747833 22.324126 
L 151.842958 22.324126 
L 152.128333 22.324126 
L 152.128333 27.036189 
L 152.223486 27.036189 
L 152.699093 27.036189 
L 152.699093 31.748252 
L 152.794261 31.748252 
L 153.079661 31.748252 
L 153.079661 36.460315 
L 153.174766 36.460315 
L 158.216661 36.460315 
L 158.216661 41.172378 
L 158.311788 41.172378 
L 169.442056 41.172378 
L 169.442056 36.460315 
L 169.53719 36.460315 
L 190.560956 36.460315 
L 190.560956 41.172378 
L 190.656113 41.172378 
L 197.981138 41.172378 
L 197.981138 36.460315 
L 198.076263 36.460315 
L 221.19296 36.460315 
L 221.19296 31.748252 
L 221.288084 31.748252 
L 224.23708 31.748252 
L 224.23708 27.036189 
L 224.332215 27.036189 
L 229.564401 27.036189 
L 229.564401 22.324126 
L 256.961939 22.324126 
L 256.961939 31.748252 
L 257.057033 31.748252 
L 257.532674 31.748252 
L 257.532674 36.460315 
L 257.62785 36.460315 
L 290.638046 36.460315 
L 290.638046 41.172378 
L 290.733211 41.172378 
L 297.487436 41.172378 
L 297.487436 36.460315 
L 297.582554 36.460315 
L 302.053701 36.460315 
L 302.053701 31.748252 
L 302.148804 31.748252 
L 303.005 31.748252 
L 303.005 31.748252 
" style="fill:none;stroke:#66a61e;stroke-linecap:square;stroke-width:1.5;"/>
   </g>
   <g id="line2d_25">
    <path clip-path="url(#p9e07adb27e)" d="M 55.905 191.958393 
L 64.988988 191.958393 
L 64.988988 187.24633 
L 65.084117 187.24633 
L 65.940301 187.24633 
L 65.940301 182.534267 
L 66.035427 182.534267 
L 66.32081 182.534267 
L 66.32081 177.822204 
L 66.415952 177.822204 
L 69.935752 177.822204 
L 69.935752 173.110142 
L 70.030885 173.110142 
L 70.316273 173.110142 
L 70.316273 168.398079 
L 70.411414 168.398079 
L 74.121464 168.398079 
L 74.121464 163.686016 
L 74.216609 163.686016 
L 87.629981 163.686016 
L 87.629981 154.26189 
L 87.725092 154.26189 
L 87.820269 154.26189 
L 87.820269 144.837764 
L 87.915352 144.837764 
L 88.391023 144.837764 
L 88.391023 140.125701 
L 88.486144 140.125701 
L 89.152083 140.125701 
L 89.152083 135.413638 
L 89.247199 135.413638 
L 92.576763 135.413638 
L 92.576763 130.701575 
L 92.671889 130.701575 
L 92.957251 130.701575 
L 92.957251 121.277449 
L 93.052431 121.277449 
L 93.337811 121.277449 
L 93.337811 116.565386 
L 93.432947 116.565386 
L 94.479377 116.565386 
L 94.479377 111.853323 
L 94.574496 111.853323 
L 96.572209 111.853323 
L 96.572209 107.14126 
L 96.667497 107.14126 
L 96.952731 107.14126 
L 96.952731 102.429197 
L 97.0479 102.429197 
L 97.14299 102.429197 
L 97.14299 93.005071 
L 97.23813 93.005071 
L 97.523541 93.005071 
L 97.523541 88.293008 
L 97.618694 88.293008 
L 97.713783 88.293008 
L 97.761367 74.156819 
L 97.808932 74.156819 
L 97.904068 74.156819 
L 97.904068 64.732693 
L 97.999211 64.732693 
L 98.665081 64.732693 
L 98.665081 69.444756 
L 98.760253 69.444756 
L 101.51899 69.444756 
L 101.51899 60.02063 
L 101.614153 60.02063 
L 101.709297 60.02063 
L 101.709297 55.308567 
L 101.804426 55.308567 
L 102.089792 55.308567 
L 102.089792 50.596504 
L 102.184925 50.596504 
L 102.280075 50.596504 
L 102.280075 41.172378 
L 102.375185 41.172378 
L 102.470335 41.172378 
L 102.470335 36.460315 
L 102.565441 36.460315 
L 102.850862 36.460315 
L 102.850862 31.748252 
L 102.94596 31.748252 
L 259.054787 31.748252 
L 259.054787 36.460315 
L 259.149895 36.460315 
L 263.430757 36.460315 
L 263.430757 31.748252 
L 263.525913 31.748252 
L 303.005 31.748252 
L 303.005 31.748252 
" style="fill:none;stroke:#e6ab02;stroke-linecap:square;stroke-width:1.5;"/>
   </g>
   <g id="line2d_26">
    <path clip-path="url(#p9e07adb27e)" d="M 55.905 196.670456 
L 60.993536 196.670456 
L 60.993536 191.958393 
L 61.088638 191.958393 
L 64.798735 191.958393 
L 64.798735 187.24633 
L 64.89383 187.24633 
L 64.988988 187.24633 
L 64.988988 182.534267 
L 65.084117 182.534267 
L 65.36949 182.534267 
L 65.36949 177.822204 
L 65.464631 177.822204 
L 65.559749 177.822204 
L 65.559749 173.110142 
L 65.654878 173.110142 
L 65.750012 173.110142 
L 65.750012 163.686016 
L 65.845129 163.686016 
L 65.940301 163.686016 
L 65.940301 158.973953 
L 66.035427 158.973953 
L 66.130523 158.973953 
L 66.130523 154.26189 
L 66.225648 154.26189 
L 69.174715 154.26189 
L 69.174715 149.549827 
L 69.269836 149.549827 
L 69.364972 149.549827 
L 69.364972 140.125701 
L 69.460099 140.125701 
L 69.745462 140.125701 
L 69.745462 135.413638 
L 69.840615 135.413638 
L 69.935752 135.413638 
L 69.935752 125.989512 
L 70.030885 125.989512 
L 70.316273 125.989512 
L 70.316273 121.277449 
L 70.411414 121.277449 
L 70.696788 121.277449 
L 70.696788 116.565386 
L 70.79194 116.565386 
L 70.887059 116.565386 
L 70.887059 111.853323 
L 70.982173 111.853323 
L 74.311766 111.853323 
L 74.311766 107.14126 
L 74.406886 107.14126 
L 75.072795 107.14126 
L 75.072795 102.429197 
L 75.167915 102.429197 
L 80.019539 102.429197 
L 80.019539 97.717134 
L 80.114689 97.717134 
L 87.629981 97.717134 
L 87.629981 93.005071 
L 87.725092 93.005071 
L 88.200783 93.005071 
L 88.200783 78.868882 
L 88.295893 78.868882 
L 88.391023 78.868882 
L 88.391023 69.444756 
L 88.486144 69.444756 
L 88.581303 69.444756 
L 88.581303 60.02063 
L 88.676412 60.02063 
L 89.152083 60.02063 
L 89.152083 55.308567 
L 89.247199 55.308567 
L 91.81572 55.308567 
L 91.81572 50.596504 
L 91.910844 50.596504 
L 92.386489 50.596504 
L 92.386489 45.884441 
L 92.481648 45.884441 
L 92.576763 45.884441 
L 92.576763 41.172378 
L 92.671889 41.172378 
L 92.767011 41.172378 
L 92.767011 36.460315 
L 92.862135 36.460315 
L 93.337811 36.460315 
L 93.337811 31.748252 
L 93.432947 31.748252 
L 303.005 31.748252 
L 303.005 31.748252 
" style="fill:none;stroke:#a6761d;stroke-linecap:square;stroke-width:1.5;"/>
   </g>
   <g id="line2d_27">
    <path clip-path="url(#p9e07adb27e)" d="M 55.905 201.382519 
L 65.17923 201.382519 
L 65.17923 196.670456 
L 65.274376 196.670456 
L 65.750012 196.670456 
L 65.750012 191.958393 
L 65.845129 191.958393 
L 69.935752 191.958393 
L 69.935752 187.24633 
L 70.030885 187.24633 
L 70.316273 187.24633 
L 70.316273 191.958393 
L 70.411414 191.958393 
L 70.506532 191.958393 
L 70.506532 182.534267 
L 70.601649 182.534267 
L 87.820269 182.534267 
L 87.820269 177.822204 
L 87.915352 177.822204 
L 88.200783 177.822204 
L 88.200783 173.110142 
L 88.295893 173.110142 
L 88.581303 173.110142 
L 88.581303 168.398079 
L 88.676412 168.398079 
L 88.771567 168.398079 
L 88.771567 163.686016 
L 88.866672 163.686016 
L 89.722839 163.686016 
L 89.722839 158.973953 
L 89.818007 158.973953 
L 92.767011 158.973953 
L 92.767011 154.26189 
L 92.862135 154.26189 
L 93.337811 154.26189 
L 93.337811 149.549827 
L 93.432947 149.549827 
L 93.52807 149.549827 
L 93.52807 144.837764 
L 93.623197 144.837764 
L 96.762475 144.837764 
L 96.762475 135.413638 
L 96.857643 135.413638 
L 96.952731 135.413638 
L 96.952731 130.701575 
L 97.0479 130.701575 
L 97.14299 130.701575 
L 97.190558 116.565386 
L 97.23813 116.565386 
L 97.904068 116.565386 
L 97.904068 111.853323 
L 97.999211 111.853323 
L 98.094301 111.853323 
L 98.094301 107.14126 
L 98.189464 107.14126 
L 98.284587 107.14126 
L 98.284587 111.853323 
L 98.379737 111.853323 
L 98.474831 111.853323 
L 98.474831 107.14126 
L 98.569994 107.14126 
L 98.665081 107.14126 
L 98.665081 102.429197 
L 98.760253 102.429197 
L 100.948238 102.429197 
L 100.948238 107.14126 
L 101.043341 107.14126 
L 101.51899 107.14126 
L 101.51899 93.005071 
L 101.614153 93.005071 
L 101.899524 93.005071 
L 101.899524 88.293008 
L 101.994639 88.293008 
L 102.280075 88.293008 
L 102.280075 69.444756 
L 102.375185 69.444756 
L 102.470335 69.444756 
L 102.470335 64.732693 
L 102.565441 64.732693 
L 106.656033 64.732693 
L 106.656033 60.02063 
L 106.751156 60.02063 
L 122.067179 60.02063 
L 122.067179 55.308567 
L 122.162309 55.308567 
L 125.11134 55.308567 
L 125.11134 50.596504 
L 125.206444 50.596504 
L 125.301578 50.596504 
L 125.301578 55.308567 
L 125.39673 55.308567 
L 125.682102 55.308567 
L 125.682102 50.596504 
L 125.777254 50.596504 
L 130.248387 50.596504 
L 130.248387 45.884441 
L 130.343504 45.884441 
L 138.049025 45.884441 
L 138.049025 50.596504 
L 138.144164 50.596504 
L 143.376332 50.596504 
L 143.376332 45.884441 
L 143.471474 45.884441 
L 151.557574 45.884441 
L 151.557574 50.596504 
L 151.652668 50.596504 
L 151.938044 50.596504 
L 151.938044 55.308567 
L 152.033221 55.308567 
L 152.508832 55.308567 
L 152.508832 60.02063 
L 152.603964 60.02063 
L 157.836138 60.02063 
L 157.836138 64.732693 
L 157.931307 64.732693 
L 166.017331 64.732693 
L 166.017331 69.444756 
L 166.112489 69.444756 
L 185.043435 69.444756 
L 185.043435 74.156819 
L 185.138545 74.156819 
L 271.421726 74.156819 
L 271.421726 69.444756 
L 271.516896 69.444756 
L 276.558781 69.444756 
L 276.558781 74.156819 
L 276.653936 74.156819 
L 303.005 74.156819 
L 303.005 74.156819 
" style="fill:none;stroke:#666666;stroke-linecap:square;stroke-width:1.5;"/>
   </g>
   <g id="line2d_28">
    <path clip-path="url(#p9e07adb27e)" d="M 55.905 206.094582 
L 65.17923 206.094582 
L 65.17923 201.382519 
L 65.274376 201.382519 
L 70.316273 201.382519 
L 70.316273 191.958393 
L 70.411414 191.958393 
L 87.629981 191.958393 
L 87.629981 187.24633 
L 87.725092 187.24633 
L 88.010511 187.24633 
L 88.010511 182.534267 
L 88.105612 182.534267 
L 88.581303 182.534267 
L 88.581303 177.822204 
L 88.676412 177.822204 
L 92.196232 177.822204 
L 92.196232 173.110142 
L 92.291361 173.110142 
L 92.386489 173.110142 
L 92.386489 163.686016 
L 92.481648 163.686016 
L 92.576763 163.686016 
L 92.576763 158.973953 
L 92.671889 158.973953 
L 92.957251 158.973953 
L 92.957251 154.26189 
L 93.052431 154.26189 
L 93.147549 154.26189 
L 93.147549 144.837764 
L 93.242682 144.837764 
L 93.337811 144.837764 
L 93.337811 135.413638 
L 93.432947 135.413638 
L 94.098868 135.413638 
L 94.098868 130.701575 
L 94.193987 130.701575 
L 94.479377 130.701575 
L 94.479377 125.989512 
L 94.574496 125.989512 
L 94.669603 125.989512 
L 94.669603 130.701575 
L 94.764782 130.701575 
L 96.381968 130.701575 
L 96.381968 135.413638 
L 96.477122 135.413638 
L 96.572209 135.413638 
L 96.572209 140.125701 
L 96.667497 140.125701 
L 96.762475 140.125701 
L 96.762475 135.413638 
L 96.857643 135.413638 
L 96.952731 135.413638 
L 96.952731 140.125701 
L 97.0479 140.125701 
L 97.14299 140.125701 
L 97.14299 135.413638 
L 97.23813 135.413638 
L 97.33327 135.413638 
L 97.33327 130.701575 
L 97.428401 130.701575 
L 97.713783 130.701575 
L 97.713783 135.413638 
L 97.808932 135.413638 
L 102.089792 135.413638 
L 102.089792 130.701575 
L 102.184925 130.701575 
L 102.470335 130.701575 
L 102.470335 125.989512 
L 102.565441 125.989512 
L 106.846318 125.989512 
L 106.846318 121.277449 
L 106.94143 121.277449 
L 108.178127 121.277449 
L 108.178127 116.565386 
L 108.273241 116.565386 
L 120.35481 116.565386 
L 120.35481 111.853323 
L 120.449956 111.853323 
L 120.545068 111.853323 
L 120.545068 107.14126 
L 120.640205 107.14126 
L 121.306091 107.14126 
L 121.306091 102.429197 
L 121.401253 102.429197 
L 130.248387 102.429197 
L 130.248387 97.717134 
L 130.343504 97.717134 
L 130.819119 97.717134 
L 130.819119 93.005071 
L 130.914287 93.005071 
L 140.33218 93.005071 
L 140.33218 88.293008 
L 140.427285 88.293008 
L 144.517895 88.293008 
L 144.517895 93.005071 
L 144.613029 93.005071 
L 151.938044 93.005071 
L 151.938044 97.717134 
L 152.033221 97.717134 
L 184.662904 97.717134 
L 184.662904 93.005071 
L 184.758049 93.005071 
L 216.816965 93.005071 
L 216.816965 88.293008 
L 216.912074 88.293008 
L 220.431903 88.293008 
L 220.431903 83.580945 
L 220.527004 83.580945 
L 233.559864 83.580945 
L 233.559864 78.868882 
L 233.655008 78.868882 
L 261.337947 78.868882 
L 261.337947 83.580945 
L 261.433074 83.580945 
L 261.52816 83.580945 
L 261.52816 78.868882 
L 261.623289 78.868882 
L 299.770555 78.868882 
L 299.770555 83.580945 
L 299.865667 83.580945 
L 303.005 83.580945 
L 303.005 83.580945 
" style="fill:none;stroke:#1b9e77;stroke-dasharray:4.5,1.5;stroke-dashoffset:0;stroke-width:1.5;"/>
   </g>
   <g id="line2d_29">
    <path clip-path="url(#p9e07adb27e)" d="M 55.905 196.670456 
L 60.134162 196.670456 
L 60.134162 191.958393 
L 65.750012 191.958393 
L 65.750012 187.24633 
L 65.845129 187.24633 
L 69.555211 187.24633 
L 69.555211 182.534267 
L 69.650339 182.534267 
L 69.935752 182.534267 
L 69.935752 177.822204 
L 70.030885 177.822204 
L 70.506532 177.822204 
L 70.506532 173.110142 
L 70.601649 173.110142 
L 70.696788 173.110142 
L 70.696788 168.398079 
L 70.79194 168.398079 
L 71.83836 168.398079 
L 71.83836 163.686016 
L 71.933508 163.686016 
L 88.200783 163.686016 
L 88.200783 154.26189 
L 88.295893 154.26189 
L 92.576763 154.26189 
L 92.576763 149.549827 
L 92.671889 149.549827 
L 93.52807 149.549827 
L 93.52807 144.837764 
L 93.623197 144.837764 
L 94.098868 144.837764 
L 94.098868 140.125701 
L 94.193987 140.125701 
L 96.952731 140.125701 
L 96.952731 135.413638 
L 97.0479 135.413638 
L 97.14299 135.413638 
L 97.14299 125.989512 
L 97.23813 125.989512 
L 97.713783 125.989512 
L 97.713783 116.565386 
L 97.808932 116.565386 
L 101.899524 116.565386 
L 101.899524 111.853323 
L 101.994639 111.853323 
L 102.470335 111.853323 
L 102.470335 107.14126 
L 102.565441 107.14126 
L 103.041079 107.14126 
L 103.041079 102.429197 
L 103.136231 102.429197 
L 107.797625 102.429197 
L 107.797625 97.717134 
L 107.892758 97.717134 
L 120.925598 97.717134 
L 120.925598 93.005071 
L 121.020741 93.005071 
L 125.301578 93.005071 
L 125.301578 88.293008 
L 125.39673 88.293008 
L 130.248387 88.293008 
L 130.248387 93.005071 
L 130.343504 93.005071 
L 152.128333 93.005071 
L 152.128333 88.293008 
L 152.223486 88.293008 
L 152.318578 88.293008 
L 152.318578 93.005071 
L 152.413726 93.005071 
L 157.075112 93.005071 
L 157.075112 88.293008 
L 157.170265 88.293008 
L 190.560956 88.293008 
L 190.560956 83.580945 
L 190.656113 83.580945 
L 221.00266 83.580945 
L 221.00266 78.868882 
L 221.097789 78.868882 
L 230.705971 78.868882 
L 230.705971 83.580945 
L 230.801091 83.580945 
L 291.01858 83.580945 
L 291.01858 88.293008 
L 291.113699 88.293008 
L 293.301721 88.293008 
L 293.301721 93.005071 
L 293.396849 93.005071 
L 303.005 93.005071 
L 303.005 93.005071 
" style="fill:none;stroke:#d95f02;stroke-dasharray:4.5,1.5;stroke-dashoffset:0;stroke-width:1.5;"/>
   </g>
   <g id="line2d_30">
    <path clip-path="url(#p9e07adb27e)" d="M 55.905 210.806645 
L 61.564263 210.806645 
L 61.564263 206.094582 
L 61.659399 206.094582 
L 62.325343 206.094582 
L 62.325343 201.382519 
L 62.420464 201.382519 
L 74.311766 201.382519 
L 74.311766 196.670456 
L 74.406886 196.670456 
L 87.629981 196.670456 
L 87.629981 191.958393 
L 87.725092 191.958393 
L 88.961799 191.958393 
L 88.961799 182.534267 
L 89.056921 182.534267 
L 92.576763 182.534267 
L 92.576763 177.822204 
L 92.671889 177.822204 
L 92.767011 177.822204 
L 92.767011 173.110142 
L 92.862135 173.110142 
L 93.337811 173.110142 
L 93.337811 163.686016 
L 93.432947 163.686016 
L 93.52807 163.686016 
L 93.52807 158.973953 
L 93.623197 158.973953 
L 94.669603 158.973953 
L 94.669603 154.26189 
L 94.764782 154.26189 
L 96.952731 154.26189 
L 96.952731 158.973953 
L 97.0479 158.973953 
L 97.33327 158.973953 
L 97.33327 154.26189 
L 97.428401 154.26189 
L 97.523541 154.26189 
L 97.523541 149.549827 
L 97.618694 149.549827 
L 97.904068 149.549827 
L 97.904068 144.837764 
L 97.999211 144.837764 
L 98.094301 144.837764 
L 98.094301 149.549827 
L 98.189464 149.549827 
L 98.284587 149.549827 
L 98.284587 144.837764 
L 98.379737 144.837764 
L 101.51899 144.837764 
L 101.51899 140.125701 
L 101.614153 140.125701 
L 107.607362 140.125701 
L 107.607362 135.413638 
L 107.702479 135.413638 
L 120.35481 135.413638 
L 120.35481 130.701575 
L 120.449956 130.701575 
L 138.429556 130.701575 
L 138.429556 125.989512 
L 138.524729 125.989512 
L 161.070589 125.989512 
L 161.070589 121.277449 
L 161.165723 121.277449 
L 185.043435 121.277449 
L 185.043435 116.565386 
L 185.138545 116.565386 
L 229.564401 116.565386 
L 229.564401 111.853323 
L 247.829405 111.853323 
L 247.829405 107.14126 
L 247.924557 107.14126 
L 285.501004 107.14126 
L 285.501004 102.429197 
L 285.596142 102.429197 
L 290.828303 102.429197 
L 290.828303 97.717134 
L 290.923438 97.717134 
L 297.867932 97.717134 
L 297.867932 93.005071 
L 297.963088 93.005071 
L 303.005 93.005071 
L 303.005 93.005071 
" style="fill:none;stroke:#7570b3;stroke-dasharray:4.5,1.5;stroke-dashoffset:0;stroke-width:1.5;"/>
   </g>
   <g id="line2d_31">
    <path clip-path="url(#p9e07adb27e)" d="M 55.905 210.806645 
L 60.803423 210.806645 
L 60.803423 206.094582 
L 60.898389 206.094582 
L 61.183787 206.094582 
L 61.183787 201.382519 
L 61.278937 201.382519 
L 65.559749 201.382519 
L 65.559749 196.670456 
L 65.654878 196.670456 
L 70.506532 196.670456 
L 70.506532 191.958393 
L 70.601649 191.958393 
L 73.550709 191.958393 
L 73.550709 187.24633 
L 73.645868 187.24633 
L 74.501992 187.24633 
L 74.501992 182.534267 
L 74.597143 182.534267 
L 74.88253 182.534267 
L 74.88253 177.822204 
L 74.977643 177.822204 
L 87.629981 177.822204 
L 87.629981 168.398079 
L 87.725092 168.398079 
L 88.010511 168.398079 
L 88.010511 163.686016 
L 88.105612 163.686016 
L 88.200783 163.686016 
L 88.200783 158.973953 
L 88.295893 158.973953 
L 88.391023 158.973953 
L 88.391023 154.26189 
L 88.486144 154.26189 
L 88.581303 154.26189 
L 88.581303 144.837764 
L 88.676412 144.837764 
L 88.771567 144.837764 
L 88.771567 140.125701 
L 88.866672 140.125701 
L 89.152083 140.125701 
L 89.152083 135.413638 
L 89.247199 135.413638 
L 89.532621 135.413638 
L 89.532621 130.701575 
L 89.627735 130.701575 
L 90.103352 130.701575 
L 90.103352 125.989512 
L 90.198527 125.989512 
L 92.196232 125.989512 
L 92.196232 121.277449 
L 92.291361 121.277449 
L 92.386489 121.277449 
L 92.386489 116.565386 
L 92.481648 116.565386 
L 92.576763 116.565386 
L 92.576763 102.429197 
L 92.671889 102.429197 
L 92.767011 102.429197 
L 92.767011 97.717134 
L 92.862135 97.717134 
L 92.957251 97.717134 
L 92.957251 93.005071 
L 93.052431 93.005071 
L 94.669603 93.005071 
L 94.669603 97.717134 
L 94.764782 97.717134 
L 97.14299 97.717134 
L 97.14299 93.005071 
L 97.23813 93.005071 
L 97.33327 93.005071 
L 97.33327 97.717134 
L 97.428401 97.717134 
L 97.523541 97.717134 
L 97.523541 93.005071 
L 97.618694 93.005071 
L 102.850862 93.005071 
L 102.850862 97.717134 
L 102.94596 97.717134 
L 103.041079 97.717134 
L 103.041079 93.005071 
L 103.136231 93.005071 
L 285.120513 93.005071 
L 285.120513 97.717134 
L 285.215605 97.717134 
L 299.770555 97.717134 
L 299.770555 93.005071 
L 299.865667 93.005071 
L 303.005 93.005071 
L 303.005 93.005071 
" style="fill:none;stroke:#e7298a;stroke-dasharray:4.5,1.5;stroke-dashoffset:0;stroke-width:1.5;"/>
   </g>
   <g id="line2d_32">
    <path clip-path="url(#p9e07adb27e)" d="M 141.33103 210.806645 
L 142.995797 210.806645 
L 142.995797 206.094582 
L 143.09096 206.094582 
L 148.703655 206.094582 
L 148.703655 201.382519 
L 148.798758 201.382519 
L 151.557574 201.382519 
L 151.557574 182.534267 
L 151.652668 182.534267 
L 151.938044 182.534267 
L 151.938044 173.110142 
L 152.033221 173.110142 
L 152.318578 173.110142 
L 152.318578 158.973953 
L 152.413726 158.973953 
L 152.699093 158.973953 
L 152.699093 154.26189 
L 152.794261 154.26189 
L 156.504345 154.26189 
L 156.504345 149.549827 
L 156.599474 149.549827 
L 157.455637 149.549827 
L 157.455637 144.837764 
L 157.550761 144.837764 
L 157.836138 144.837764 
L 157.836138 140.125701 
L 157.931307 140.125701 
L 158.216661 140.125701 
L 158.216661 135.413638 
L 158.311788 135.413638 
L 158.406928 135.413638 
L 158.406928 130.701575 
L 158.502038 130.701575 
L 161.070589 130.701575 
L 161.070589 125.989512 
L 161.165723 125.989512 
L 162.782903 125.989512 
L 162.782903 121.277449 
L 162.878066 121.277449 
L 166.017331 121.277449 
L 166.017331 116.565386 
L 166.112489 116.565386 
L 224.23708 116.565386 
L 224.23708 121.277449 
L 224.332215 121.277449 
L 225.188372 121.277449 
L 225.188372 116.565386 
L 225.283538 116.565386 
L 257.15219 116.565386 
L 257.15219 111.853323 
L 257.247334 111.853323 
L 257.532674 111.853323 
L 257.532674 107.14126 
L 257.62785 107.14126 
L 259.054787 107.14126 
L 259.054787 102.429197 
L 259.149895 102.429197 
L 284.930214 102.429197 
L 284.930214 97.717134 
L 285.025353 97.717134 
L 303.005 97.717134 
L 303.005 97.717134 
" style="fill:none;stroke:#66a61e;stroke-dasharray:4.5,1.5;stroke-dashoffset:0;stroke-width:1.5;"/>
   </g>
   <g id="line2d_33">
    <path clip-path="url(#p9e07adb27e)" d="M 55.905 206.094582 
L 64.798735 206.094582 
L 64.798735 201.382519 
L 64.89383 201.382519 
L 64.988988 201.382519 
L 64.988988 196.670456 
L 65.084117 196.670456 
L 65.750012 196.670456 
L 65.750012 187.24633 
L 65.845129 187.24633 
L 69.364972 187.24633 
L 69.364972 182.534267 
L 69.460099 182.534267 
L 70.316273 182.534267 
L 70.316273 177.822204 
L 70.411414 177.822204 
L 70.506532 177.822204 
L 70.506532 173.110142 
L 70.601649 173.110142 
L 70.696788 173.110142 
L 70.696788 168.398079 
L 70.79194 168.398079 
L 88.010511 168.398079 
L 88.010511 163.686016 
L 88.105612 163.686016 
L 88.200783 163.686016 
L 88.200783 158.973953 
L 88.295893 158.973953 
L 88.391023 158.973953 
L 88.391023 149.549827 
L 88.486144 149.549827 
L 93.147549 149.549827 
L 93.147549 144.837764 
L 93.242682 144.837764 
L 93.337811 144.837764 
L 93.337811 140.125701 
L 93.432947 140.125701 
L 96.572209 140.125701 
L 96.572209 144.837764 
L 96.667497 144.837764 
L 97.14299 144.837764 
L 97.14299 135.413638 
L 97.23813 135.413638 
L 97.33327 135.413638 
L 97.33327 140.125701 
L 97.428401 140.125701 
L 97.523541 140.125701 
L 97.523541 135.413638 
L 97.618694 135.413638 
L 97.904068 135.413638 
L 97.904068 125.989512 
L 97.999211 125.989512 
L 98.094301 125.989512 
L 98.094301 121.277449 
L 98.189464 121.277449 
L 107.036546 121.277449 
L 107.036546 116.565386 
L 107.13172 116.565386 
L 107.607362 116.565386 
L 107.607362 111.853323 
L 107.702479 111.853323 
L 116.739843 111.853323 
L 116.739843 107.14126 
L 116.834975 107.14126 
L 134.05356 107.14126 
L 134.05356 102.429197 
L 134.148705 102.429197 
L 134.814601 102.429197 
L 134.814601 97.717134 
L 134.909777 97.717134 
L 138.619843 97.717134 
L 138.619843 93.005071 
L 138.714979 93.005071 
L 153.65044 93.005071 
L 153.65044 88.293008 
L 153.745536 88.293008 
L 267.045706 88.293008 
L 267.045706 93.005071 
L 267.140881 93.005071 
L 271.421726 93.005071 
L 271.421726 97.717134 
L 271.516896 97.717134 
L 303.005 97.717134 
L 303.005 97.717134 
" style="fill:none;stroke:#e6ab02;stroke-dasharray:4.5,1.5;stroke-dashoffset:0;stroke-width:1.5;"/>
   </g>
   <g id="line2d_34">
    <path clip-path="url(#p9e07adb27e)" d="M 55.905 206.094582 
L 65.36949 206.094582 
L 65.36949 196.670456 
L 65.464631 196.670456 
L 69.555211 196.670456 
L 69.555211 187.24633 
L 69.650339 187.24633 
L 69.745462 187.24633 
L 69.745462 182.534267 
L 69.840615 182.534267 
L 70.506532 182.534267 
L 70.506532 177.822204 
L 70.601649 177.822204 
L 70.696788 177.822204 
L 70.696788 173.110142 
L 70.79194 173.110142 
L 88.391023 173.110142 
L 88.391023 168.398079 
L 88.486144 168.398079 
L 88.581303 168.398079 
L 88.581303 163.686016 
L 88.676412 163.686016 
L 88.771567 163.686016 
L 88.771567 158.973953 
L 88.866672 158.973953 
L 89.342307 158.973953 
L 89.342307 154.26189 
L 89.437481 154.26189 
L 89.532621 154.26189 
L 89.532621 158.973953 
L 89.627735 158.973953 
L 92.196232 158.973953 
L 92.196232 140.125701 
L 92.291361 140.125701 
L 92.576763 140.125701 
L 92.576763 130.701575 
L 92.671889 130.701575 
L 92.767011 130.701575 
L 92.767011 125.989512 
L 92.862135 125.989512 
L 92.957251 125.989512 
L 92.957251 116.565386 
L 93.052431 116.565386 
L 303.005 116.565386 
L 303.005 116.565386 
" style="fill:none;stroke:#a6761d;stroke-dasharray:4.5,1.5;stroke-dashoffset:0;stroke-width:1.5;"/>
   </g>
   <g id="line2d_35">
    <path clip-path="url(#p9e07adb27e)" d="M 55.905 210.806645 
L 65.750012 210.806645 
L 65.750012 206.094582 
L 65.845129 206.094582 
L 65.940301 206.094582 
L 65.940301 201.382519 
L 66.035427 201.382519 
L 69.745462 201.382519 
L 69.745462 196.670456 
L 69.840615 196.670456 
L 70.696788 196.670456 
L 70.696788 191.958393 
L 70.79194 191.958393 
L 71.077309 191.958393 
L 71.077309 187.24633 
L 71.172461 187.24633 
L 71.45785 187.24633 
L 71.45785 182.534267 
L 71.552988 182.534267 
L 74.311766 182.534267 
L 74.311766 187.24633 
L 74.406886 187.24633 
L 87.820269 187.24633 
L 87.820269 182.534267 
L 87.915352 182.534267 
L 88.961799 182.534267 
L 88.961799 173.110142 
L 89.056921 173.110142 
L 92.386489 173.110142 
L 92.386489 168.398079 
L 92.481648 168.398079 
L 93.147549 168.398079 
L 93.147549 149.549827 
L 93.242682 149.549827 
L 93.337811 149.549827 
L 93.337811 144.837764 
L 93.432947 144.837764 
L 93.52807 144.837764 
L 93.52807 140.125701 
L 93.623197 140.125701 
L 151.938044 140.125701 
L 151.938044 144.837764 
L 152.033221 144.837764 
L 152.128333 144.837764 
L 152.128333 140.125701 
L 152.223486 140.125701 
L 267.045706 140.125701 
L 267.045706 135.413638 
L 267.140881 135.413638 
L 276.558781 135.413638 
L 276.558781 130.701575 
L 276.653936 130.701575 
L 290.638046 130.701575 
L 290.638046 125.989512 
L 290.733211 125.989512 
L 293.301721 125.989512 
L 293.301721 121.277449 
L 293.396849 121.277449 
L 294.062756 121.277449 
L 294.062756 116.565386 
L 294.15787 116.565386 
L 303.005 116.565386 
L 303.005 116.565386 
" style="fill:none;stroke:#666666;stroke-dasharray:4.5,1.5;stroke-dashoffset:0;stroke-width:1.5;"/>
   </g>
   <g id="line2d_36"/>
   <g id="line2d_37"/>
   <g id="line2d_38"/>
   <g id="line2d_39"/>
   <g id="line2d_40"/>
   <g id="line2d_41"/>
   <g id="line2d_42"/>
   <g id="line2d_43"/>
   <g id="line2d_44"/>
   <g id="line2d_45"/>
   <g id="line2d_46"/>
   <g id="line2d_47"/>
   <g id="line2d_48"/>
   <g id="line2d_49"/>
   <g id="line2d_50"/>
   <g id="line2d_51"/>
   <g id="line2d_52"/>
   <g id="patch_3">
    <path d="M 43.55 220.230771 
L 43.55 12.9 
" style="fill:none;stroke:#000000;stroke-linecap:square;stroke-linejoin:miter;stroke-width:0.8;"/>
   </g>
   <g id="patch_4">
    <path d="M 315.36 220.230771 
L 315.36 12.9 
" style="fill:none;stroke:#000000;stroke-linecap:square;stroke-linejoin:miter;stroke-width:0.8;"/>
   </g>
   <g id="patch_5">
    <path d="M 43.55 220.230771 
L 315.36 220.230771 
" style="fill:none;stroke:#000000;stroke-linecap:square;stroke-linejoin:miter;stroke-width:0.8;"/>
   </g>
   <g id="patch_6">
    <path d="M 43.55 12.9 
L 315.36 12.9 
" style="fill:none;stroke:#000000;stroke-linecap:square;stroke-linejoin:miter;stroke-width:0.8;"/>
   </g>
  </g>
  <g id="legend_1">
   <g id="patch_7">
    <path d="M 331.8625 262.528125 
L 420 262.528125 
Q 422 262.528125 422 260.528125 
L 422 12 
Q 422 10 420 10 
L 331.8625 10 
Q 329.8625 10 329.8625 12 
L 329.8625 260.528125 
Q 329.8625 262.528125 331.8625 262.528125 
z
" style="fill:#ffffff;opacity:0.8;stroke:#cccccc;stroke-linejoin:miter;"/>
   </g>
   <g id="text_22">
    <!-- 493/610 Reg. -->
    <defs>
     <path d="M 25.390625 72.90625 
L 33.6875 72.90625 
L 8.296875 -9.28125 
L 0 -9.28125 
z
" id="DejaVuSans-47"/>
     <path d="M 33.015625 40.375 
Q 26.375 40.375 22.484375 35.828125 
Q 18.609375 31.296875 18.609375 23.390625 
Q 18.609375 15.53125 22.484375 10.953125 
Q 26.375 6.390625 33.015625 6.390625 
Q 39.65625 6.390625 43.53125 10.953125 
Q 47.40625 15.53125 47.40625 23.390625 
Q 47.40625 31.296875 43.53125 35.828125 
Q 39.65625 40.375 33.015625 40.375 
z
M 52.59375 71.296875 
L 52.59375 62.3125 
Q 48.875 64.0625 45.09375 64.984375 
Q 41.3125 65.921875 37.59375 65.921875 
Q 27.828125 65.921875 22.671875 59.328125 
Q 17.53125 52.734375 16.796875 39.40625 
Q 19.671875 43.65625 24.015625 45.921875 
Q 28.375 48.1875 33.59375 48.1875 
Q 44.578125 48.1875 50.953125 41.515625 
Q 57.328125 34.859375 57.328125 23.390625 
Q 57.328125 12.15625 50.6875 5.359375 
Q 44.046875 -1.421875 33.015625 -1.421875 
Q 20.359375 -1.421875 13.671875 8.265625 
Q 6.984375 17.96875 6.984375 36.375 
Q 6.984375 53.65625 15.1875 63.9375 
Q 23.390625 74.21875 37.203125 74.21875 
Q 40.921875 74.21875 44.703125 73.484375 
Q 48.484375 72.75 52.59375 71.296875 
z
" id="DejaVuSans-54"/>
     <path d="M 10.6875 12.40625 
L 21 12.40625 
L 21 0 
L 10.6875 0 
z
" id="DejaVuSans-46"/>
    </defs>
    <g transform="translate(342.259375 21.598437)scale(0.1 -0.1)">
     <use xlink:href="#DejaVuSans-52"/>
     <use x="63.623047" xlink:href="#DejaVuSans-57"/>
     <use x="127.246094" xlink:href="#DejaVuSans-51"/>
     <use x="190.869141" xlink:href="#DejaVuSans-47"/>
     <use x="224.560547" xlink:href="#DejaVuSans-54"/>
     <use x="288.183594" xlink:href="#DejaVuSans-49"/>
     <use x="351.806641" xlink:href="#DejaVuSans-48"/>
     <use x="415.429688" xlink:href="#DejaVuSans-32"/>
     <use x="447.216797" xlink:href="#DejaVuSans-82"/>
     <use x="516.636719" xlink:href="#DejaVuSans-101"/>
     <use x="578.160156" xlink:href="#DejaVuSans-103"/>
     <use x="641.636719" xlink:href="#DejaVuSans-46"/>
    </g>
   </g>
   <g id="line2d_53">
    <path d="M 333.8625 32.776562 
L 353.8625 32.776562 
" style="fill:none;stroke:#1b9e77;stroke-linecap:square;stroke-width:1.5;"/>
   </g>
   <g id="line2d_54"/>
   <g id="text_23">
    <!-- AS (40) -->
    <defs>
     <path d="M 34.1875 63.1875 
L 20.796875 26.90625 
L 47.609375 26.90625 
z
M 28.609375 72.90625 
L 39.796875 72.90625 
L 67.578125 0 
L 57.328125 0 
L 50.6875 18.703125 
L 17.828125 18.703125 
L 11.1875 0 
L 0.78125 0 
z
" id="DejaVuSans-65"/>
     <path d="M 31 75.875 
Q 24.46875 64.65625 21.28125 53.65625 
Q 18.109375 42.671875 18.109375 31.390625 
Q 18.109375 20.125 21.3125 9.0625 
Q 24.515625 -2 31 -13.1875 
L 23.1875 -13.1875 
Q 15.875 -1.703125 12.234375 9.375 
Q 8.59375 20.453125 8.59375 31.390625 
Q 8.59375 42.28125 12.203125 53.3125 
Q 15.828125 64.359375 23.1875 75.875 
z
" id="DejaVuSans-40"/>
     <path d="M 8.015625 75.875 
L 15.828125 75.875 
Q 23.140625 64.359375 26.78125 53.3125 
Q 30.421875 42.28125 30.421875 31.390625 
Q 30.421875 20.453125 26.78125 9.375 
Q 23.140625 -1.703125 15.828125 -13.1875 
L 8.015625 -13.1875 
Q 14.5 -2 17.703125 9.0625 
Q 20.90625 20.125 20.90625 31.390625 
Q 20.90625 42.671875 17.703125 53.65625 
Q 14.5 64.65625 8.015625 75.875 
z
" id="DejaVuSans-41"/>
    </defs>
    <g transform="translate(361.8625 36.276562)scale(0.1 -0.1)">
     <use xlink:href="#DejaVuSans-65"/>
     <use x="68.408203" xlink:href="#DejaVuSans-83"/>
     <use x="131.884766" xlink:href="#DejaVuSans-32"/>
     <use x="163.671875" xlink:href="#DejaVuSans-40"/>
     <use x="202.685547" xlink:href="#DejaVuSans-52"/>
     <use x="266.308594" xlink:href="#DejaVuSans-48"/>
     <use x="329.931641" xlink:href="#DejaVuSans-41"/>
    </g>
   </g>
   <g id="line2d_55">
    <path d="M 333.8625 47.454688 
L 353.8625 47.454688 
" style="fill:none;stroke:#d95f02;stroke-linecap:square;stroke-width:1.5;"/>
   </g>
   <g id="line2d_56"/>
   <g id="text_24">
    <!-- AUS (40) -->
    <defs>
     <path d="M 8.6875 72.90625 
L 18.609375 72.90625 
L 18.609375 28.609375 
Q 18.609375 16.890625 22.84375 11.734375 
Q 27.09375 6.59375 36.625 6.59375 
Q 46.09375 6.59375 50.34375 11.734375 
Q 54.59375 16.890625 54.59375 28.609375 
L 54.59375 72.90625 
L 64.5 72.90625 
L 64.5 27.390625 
Q 64.5 13.140625 57.4375 5.859375 
Q 50.390625 -1.421875 36.625 -1.421875 
Q 22.796875 -1.421875 15.734375 5.859375 
Q 8.6875 13.140625 8.6875 27.390625 
z
" id="DejaVuSans-85"/>
    </defs>
    <g transform="translate(361.8625 50.954688)scale(0.1 -0.1)">
     <use xlink:href="#DejaVuSans-65"/>
     <use x="68.408203" xlink:href="#DejaVuSans-85"/>
     <use x="141.601562" xlink:href="#DejaVuSans-83"/>
     <use x="205.078125" xlink:href="#DejaVuSans-32"/>
     <use x="236.865234" xlink:href="#DejaVuSans-40"/>
     <use x="275.878906" xlink:href="#DejaVuSans-52"/>
     <use x="339.501953" xlink:href="#DejaVuSans-48"/>
     <use x="403.125" xlink:href="#DejaVuSans-41"/>
    </g>
   </g>
   <g id="line2d_57">
    <path d="M 333.8625 62.132812 
L 353.8625 62.132812 
" style="fill:none;stroke:#7570b3;stroke-linecap:square;stroke-width:1.5;"/>
   </g>
   <g id="line2d_58"/>
   <g id="text_25">
    <!-- COML (40) -->
    <defs>
     <path d="M 64.40625 67.28125 
L 64.40625 56.890625 
Q 59.421875 61.53125 53.78125 63.8125 
Q 48.140625 66.109375 41.796875 66.109375 
Q 29.296875 66.109375 22.65625 58.46875 
Q 16.015625 50.828125 16.015625 36.375 
Q 16.015625 21.96875 22.65625 14.328125 
Q 29.296875 6.6875 41.796875 6.6875 
Q 48.140625 6.6875 53.78125 8.984375 
Q 59.421875 11.28125 64.40625 15.921875 
L 64.40625 5.609375 
Q 59.234375 2.09375 53.4375 0.328125 
Q 47.65625 -1.421875 41.21875 -1.421875 
Q 24.65625 -1.421875 15.125 8.703125 
Q 5.609375 18.84375 5.609375 36.375 
Q 5.609375 53.953125 15.125 64.078125 
Q 24.65625 74.21875 41.21875 74.21875 
Q 47.75 74.21875 53.53125 72.484375 
Q 59.328125 70.75 64.40625 67.28125 
z
" id="DejaVuSans-67"/>
     <path d="M 39.40625 66.21875 
Q 28.65625 66.21875 22.328125 58.203125 
Q 16.015625 50.203125 16.015625 36.375 
Q 16.015625 22.609375 22.328125 14.59375 
Q 28.65625 6.59375 39.40625 6.59375 
Q 50.140625 6.59375 56.421875 14.59375 
Q 62.703125 22.609375 62.703125 36.375 
Q 62.703125 50.203125 56.421875 58.203125 
Q 50.140625 66.21875 39.40625 66.21875 
z
M 39.40625 74.21875 
Q 54.734375 74.21875 63.90625 63.9375 
Q 73.09375 53.65625 73.09375 36.375 
Q 73.09375 19.140625 63.90625 8.859375 
Q 54.734375 -1.421875 39.40625 -1.421875 
Q 24.03125 -1.421875 14.8125 8.828125 
Q 5.609375 19.09375 5.609375 36.375 
Q 5.609375 53.65625 14.8125 63.9375 
Q 24.03125 74.21875 39.40625 74.21875 
z
" id="DejaVuSans-79"/>
     <path d="M 9.8125 72.90625 
L 24.515625 72.90625 
L 43.109375 23.296875 
L 61.8125 72.90625 
L 76.515625 72.90625 
L 76.515625 0 
L 66.890625 0 
L 66.890625 64.015625 
L 48.09375 14.015625 
L 38.1875 14.015625 
L 19.390625 64.015625 
L 19.390625 0 
L 9.8125 0 
z
" id="DejaVuSans-77"/>
     <path d="M 9.8125 72.90625 
L 19.671875 72.90625 
L 19.671875 8.296875 
L 55.171875 8.296875 
L 55.171875 0 
L 9.8125 0 
z
" id="DejaVuSans-76"/>
    </defs>
    <g transform="translate(361.8625 65.632812)scale(0.1 -0.1)">
     <use xlink:href="#DejaVuSans-67"/>
     <use x="69.824219" xlink:href="#DejaVuSans-79"/>
     <use x="148.535156" xlink:href="#DejaVuSans-77"/>
     <use x="234.814453" xlink:href="#DejaVuSans-76"/>
     <use x="290.527344" xlink:href="#DejaVuSans-32"/>
     <use x="322.314453" xlink:href="#DejaVuSans-40"/>
     <use x="361.328125" xlink:href="#DejaVuSans-52"/>
     <use x="424.951172" xlink:href="#DejaVuSans-48"/>
     <use x="488.574219" xlink:href="#DejaVuSans-41"/>
    </g>
   </g>
   <g id="line2d_59">
    <path d="M 333.8625 76.810937 
L 353.8625 76.810937 
" style="fill:none;stroke:#e7298a;stroke-linecap:square;stroke-width:1.5;"/>
   </g>
   <g id="line2d_60"/>
   <g id="text_26">
    <!-- GDD (40) -->
    <defs>
     <path d="M 59.515625 10.40625 
L 59.515625 29.984375 
L 43.40625 29.984375 
L 43.40625 38.09375 
L 69.28125 38.09375 
L 69.28125 6.78125 
Q 63.578125 2.734375 56.6875 0.65625 
Q 49.8125 -1.421875 42 -1.421875 
Q 24.90625 -1.421875 15.25 8.5625 
Q 5.609375 18.5625 5.609375 36.375 
Q 5.609375 54.25 15.25 64.234375 
Q 24.90625 74.21875 42 74.21875 
Q 49.125 74.21875 55.546875 72.453125 
Q 61.96875 70.703125 67.390625 67.28125 
L 67.390625 56.78125 
Q 61.921875 61.421875 55.765625 63.765625 
Q 49.609375 66.109375 42.828125 66.109375 
Q 29.4375 66.109375 22.71875 58.640625 
Q 16.015625 51.171875 16.015625 36.375 
Q 16.015625 21.625 22.71875 14.15625 
Q 29.4375 6.6875 42.828125 6.6875 
Q 48.046875 6.6875 52.140625 7.59375 
Q 56.25 8.5 59.515625 10.40625 
z
" id="DejaVuSans-71"/>
    </defs>
    <g transform="translate(361.8625 80.310937)scale(0.1 -0.1)">
     <use xlink:href="#DejaVuSans-71"/>
     <use x="77.490234" xlink:href="#DejaVuSans-68"/>
     <use x="154.492188" xlink:href="#DejaVuSans-68"/>
     <use x="231.494141" xlink:href="#DejaVuSans-32"/>
     <use x="263.28125" xlink:href="#DejaVuSans-40"/>
     <use x="302.294922" xlink:href="#DejaVuSans-52"/>
     <use x="365.917969" xlink:href="#DejaVuSans-48"/>
     <use x="429.541016" xlink:href="#DejaVuSans-41"/>
    </g>
   </g>
   <g id="line2d_61">
    <path d="M 333.8625 91.489062 
L 353.8625 91.489062 
" style="fill:none;stroke:#66a61e;stroke-linecap:square;stroke-width:1.5;"/>
   </g>
   <g id="line2d_62"/>
   <g id="text_27">
    <!-- SA (38) -->
    <g transform="translate(361.8625 94.989062)scale(0.1 -0.1)">
     <use xlink:href="#DejaVuSans-83"/>
     <use x="63.492188" xlink:href="#DejaVuSans-65"/>
     <use x="131.900391" xlink:href="#DejaVuSans-32"/>
     <use x="163.6875" xlink:href="#DejaVuSans-40"/>
     <use x="202.701172" xlink:href="#DejaVuSans-51"/>
     <use x="266.324219" xlink:href="#DejaVuSans-56"/>
     <use x="329.947266" xlink:href="#DejaVuSans-41"/>
    </g>
   </g>
   <g id="line2d_63">
    <path d="M 333.8625 106.167188 
L 353.8625 106.167188 
" style="fill:none;stroke:#e6ab02;stroke-linecap:square;stroke-width:1.5;"/>
   </g>
   <g id="line2d_64"/>
   <g id="text_28">
    <!-- MD (38) -->
    <g transform="translate(361.8625 109.667188)scale(0.1 -0.1)">
     <use xlink:href="#DejaVuSans-77"/>
     <use x="86.279297" xlink:href="#DejaVuSans-68"/>
     <use x="163.28125" xlink:href="#DejaVuSans-32"/>
     <use x="195.068359" xlink:href="#DejaVuSans-40"/>
     <use x="234.082031" xlink:href="#DejaVuSans-51"/>
     <use x="297.705078" xlink:href="#DejaVuSans-56"/>
     <use x="361.328125" xlink:href="#DejaVuSans-41"/>
    </g>
   </g>
   <g id="line2d_65">
    <path d="M 333.8625 120.845312 
L 353.8625 120.845312 
" style="fill:none;stroke:#a6761d;stroke-linecap:square;stroke-width:1.5;"/>
   </g>
   <g id="line2d_66"/>
   <g id="text_29">
    <!-- HPI (38) -->
    <defs>
     <path d="M 9.8125 72.90625 
L 19.671875 72.90625 
L 19.671875 43.015625 
L 55.515625 43.015625 
L 55.515625 72.90625 
L 65.375 72.90625 
L 65.375 0 
L 55.515625 0 
L 55.515625 34.71875 
L 19.671875 34.71875 
L 19.671875 0 
L 9.8125 0 
z
" id="DejaVuSans-72"/>
     <path d="M 19.671875 64.796875 
L 19.671875 37.40625 
L 32.078125 37.40625 
Q 38.96875 37.40625 42.71875 40.96875 
Q 46.484375 44.53125 46.484375 51.125 
Q 46.484375 57.671875 42.71875 61.234375 
Q 38.96875 64.796875 32.078125 64.796875 
z
M 9.8125 72.90625 
L 32.078125 72.90625 
Q 44.34375 72.90625 50.609375 67.359375 
Q 56.890625 61.8125 56.890625 51.125 
Q 56.890625 40.328125 50.609375 34.8125 
Q 44.34375 29.296875 32.078125 29.296875 
L 19.671875 29.296875 
L 19.671875 0 
L 9.8125 0 
z
" id="DejaVuSans-80"/>
     <path d="M 9.8125 72.90625 
L 19.671875 72.90625 
L 19.671875 0 
L 9.8125 0 
z
" id="DejaVuSans-73"/>
    </defs>
    <g transform="translate(361.8625 124.345312)scale(0.1 -0.1)">
     <use xlink:href="#DejaVuSans-72"/>
     <use x="75.195312" xlink:href="#DejaVuSans-80"/>
     <use x="135.498047" xlink:href="#DejaVuSans-73"/>
     <use x="164.990234" xlink:href="#DejaVuSans-32"/>
     <use x="196.777344" xlink:href="#DejaVuSans-40"/>
     <use x="235.791016" xlink:href="#DejaVuSans-51"/>
     <use x="299.414062" xlink:href="#DejaVuSans-56"/>
     <use x="363.037109" xlink:href="#DejaVuSans-41"/>
    </g>
   </g>
   <g id="line2d_67">
    <path d="M 333.8625 135.523438 
L 353.8625 135.523438 
" style="fill:none;stroke:#666666;stroke-linecap:square;stroke-width:1.5;"/>
   </g>
   <g id="line2d_68"/>
   <g id="text_30">
    <!-- FIT (29) -->
    <defs>
     <path d="M 9.8125 72.90625 
L 51.703125 72.90625 
L 51.703125 64.59375 
L 19.671875 64.59375 
L 19.671875 43.109375 
L 48.578125 43.109375 
L 48.578125 34.8125 
L 19.671875 34.8125 
L 19.671875 0 
L 9.8125 0 
z
" id="DejaVuSans-70"/>
     <path d="M -0.296875 72.90625 
L 61.375 72.90625 
L 61.375 64.59375 
L 35.5 64.59375 
L 35.5 0 
L 25.59375 0 
L 25.59375 64.59375 
L -0.296875 64.59375 
z
" id="DejaVuSans-84"/>
    </defs>
    <g transform="translate(361.8625 139.023438)scale(0.1 -0.1)">
     <use xlink:href="#DejaVuSans-70"/>
     <use x="57.519531" xlink:href="#DejaVuSans-73"/>
     <use x="87.011719" xlink:href="#DejaVuSans-84"/>
     <use x="148.095703" xlink:href="#DejaVuSans-32"/>
     <use x="179.882812" xlink:href="#DejaVuSans-40"/>
     <use x="218.896484" xlink:href="#DejaVuSans-50"/>
     <use x="282.519531" xlink:href="#DejaVuSans-57"/>
     <use x="346.142578" xlink:href="#DejaVuSans-41"/>
    </g>
   </g>
   <g id="line2d_69">
    <path d="M 333.8625 150.201562 
L 353.8625 150.201562 
" style="fill:none;stroke:#1b9e77;stroke-dasharray:4.5,1.5;stroke-dashoffset:0;stroke-width:1.5;"/>
   </g>
   <g id="line2d_70"/>
   <g id="text_31">
    <!-- SPD (27) -->
    <defs>
     <path d="M 8.203125 72.90625 
L 55.078125 72.90625 
L 55.078125 68.703125 
L 28.609375 0 
L 18.3125 0 
L 43.21875 64.59375 
L 8.203125 64.59375 
z
" id="DejaVuSans-55"/>
    </defs>
    <g transform="translate(361.8625 153.701562)scale(0.1 -0.1)">
     <use xlink:href="#DejaVuSans-83"/>
     <use x="63.476562" xlink:href="#DejaVuSans-80"/>
     <use x="123.779297" xlink:href="#DejaVuSans-68"/>
     <use x="200.78125" xlink:href="#DejaVuSans-32"/>
     <use x="232.568359" xlink:href="#DejaVuSans-40"/>
     <use x="271.582031" xlink:href="#DejaVuSans-50"/>
     <use x="335.205078" xlink:href="#DejaVuSans-55"/>
     <use x="398.828125" xlink:href="#DejaVuSans-41"/>
    </g>
   </g>
   <g id="line2d_71">
    <path d="M 333.8625 164.879687 
L 353.8625 164.879687 
" style="fill:none;stroke:#d95f02;stroke-dasharray:4.5,1.5;stroke-dashoffset:0;stroke-width:1.5;"/>
   </g>
   <g id="line2d_72"/>
   <g id="text_32">
    <!-- TBI (25) -->
    <defs>
     <path d="M 19.671875 34.8125 
L 19.671875 8.109375 
L 35.5 8.109375 
Q 43.453125 8.109375 47.28125 11.40625 
Q 51.125 14.703125 51.125 21.484375 
Q 51.125 28.328125 47.28125 31.5625 
Q 43.453125 34.8125 35.5 34.8125 
z
M 19.671875 64.796875 
L 19.671875 42.828125 
L 34.28125 42.828125 
Q 41.5 42.828125 45.03125 45.53125 
Q 48.578125 48.25 48.578125 53.8125 
Q 48.578125 59.328125 45.03125 62.0625 
Q 41.5 64.796875 34.28125 64.796875 
z
M 9.8125 72.90625 
L 35.015625 72.90625 
Q 46.296875 72.90625 52.390625 68.21875 
Q 58.5 63.53125 58.5 54.890625 
Q 58.5 48.1875 55.375 44.234375 
Q 52.25 40.28125 46.1875 39.3125 
Q 53.46875 37.75 57.5 32.78125 
Q 61.53125 27.828125 61.53125 20.40625 
Q 61.53125 10.640625 54.890625 5.3125 
Q 48.25 0 35.984375 0 
L 9.8125 0 
z
" id="DejaVuSans-66"/>
    </defs>
    <g transform="translate(361.8625 168.379687)scale(0.1 -0.1)">
     <use xlink:href="#DejaVuSans-84"/>
     <use x="61.083984" xlink:href="#DejaVuSans-66"/>
     <use x="129.6875" xlink:href="#DejaVuSans-73"/>
     <use x="159.179688" xlink:href="#DejaVuSans-32"/>
     <use x="190.966797" xlink:href="#DejaVuSans-40"/>
     <use x="229.980469" xlink:href="#DejaVuSans-50"/>
     <use x="293.603516" xlink:href="#DejaVuSans-53"/>
     <use x="357.226562" xlink:href="#DejaVuSans-41"/>
    </g>
   </g>
   <g id="line2d_73">
    <path d="M 333.8625 179.557812 
L 353.8625 179.557812 
" style="fill:none;stroke:#7570b3;stroke-dasharray:4.5,1.5;stroke-dashoffset:0;stroke-width:1.5;"/>
   </g>
   <g id="line2d_74"/>
   <g id="text_33">
    <!-- CB (25) -->
    <g transform="translate(361.8625 183.057812)scale(0.1 -0.1)">
     <use xlink:href="#DejaVuSans-67"/>
     <use x="69.824219" xlink:href="#DejaVuSans-66"/>
     <use x="138.427734" xlink:href="#DejaVuSans-32"/>
     <use x="170.214844" xlink:href="#DejaVuSans-40"/>
     <use x="209.228516" xlink:href="#DejaVuSans-50"/>
     <use x="272.851562" xlink:href="#DejaVuSans-53"/>
     <use x="336.474609" xlink:href="#DejaVuSans-41"/>
    </g>
   </g>
   <g id="line2d_75">
    <path d="M 333.8625 194.235937 
L 353.8625 194.235937 
" style="fill:none;stroke:#e7298a;stroke-dasharray:4.5,1.5;stroke-dashoffset:0;stroke-width:1.5;"/>
   </g>
   <g id="line2d_76"/>
   <g id="text_34">
    <!-- CC (25) -->
    <g transform="translate(361.8625 197.735937)scale(0.1 -0.1)">
     <use xlink:href="#DejaVuSans-67"/>
     <use x="69.824219" xlink:href="#DejaVuSans-67"/>
     <use x="139.648438" xlink:href="#DejaVuSans-32"/>
     <use x="171.435547" xlink:href="#DejaVuSans-40"/>
     <use x="210.449219" xlink:href="#DejaVuSans-50"/>
     <use x="274.072266" xlink:href="#DejaVuSans-53"/>
     <use x="337.695312" xlink:href="#DejaVuSans-41"/>
    </g>
   </g>
   <g id="line2d_77">
    <path d="M 333.8625 208.914062 
L 353.8625 208.914062 
" style="fill:none;stroke:#66a61e;stroke-dasharray:4.5,1.5;stroke-dashoffset:0;stroke-width:1.5;"/>
   </g>
   <g id="line2d_78"/>
   <g id="text_35">
    <!-- RJPH (24) -->
    <defs>
     <path d="M 9.8125 72.90625 
L 19.671875 72.90625 
L 19.671875 5.078125 
Q 19.671875 -8.109375 14.671875 -14.0625 
Q 9.671875 -20.015625 -1.421875 -20.015625 
L -5.171875 -20.015625 
L -5.171875 -11.71875 
L -2.09375 -11.71875 
Q 4.4375 -11.71875 7.125 -8.046875 
Q 9.8125 -4.390625 9.8125 5.078125 
z
" id="DejaVuSans-74"/>
    </defs>
    <g transform="translate(361.8625 212.414062)scale(0.1 -0.1)">
     <use xlink:href="#DejaVuSans-82"/>
     <use x="69.482422" xlink:href="#DejaVuSans-74"/>
     <use x="98.974609" xlink:href="#DejaVuSans-80"/>
     <use x="159.277344" xlink:href="#DejaVuSans-72"/>
     <use x="234.472656" xlink:href="#DejaVuSans-32"/>
     <use x="266.259766" xlink:href="#DejaVuSans-40"/>
     <use x="305.273438" xlink:href="#DejaVuSans-50"/>
     <use x="368.896484" xlink:href="#DejaVuSans-52"/>
     <use x="432.519531" xlink:href="#DejaVuSans-41"/>
    </g>
   </g>
   <g id="line2d_79">
    <path d="M 333.8625 223.592187 
L 353.8625 223.592187 
" style="fill:none;stroke:#e6ab02;stroke-dasharray:4.5,1.5;stroke-dashoffset:0;stroke-width:1.5;"/>
   </g>
   <g id="line2d_80"/>
   <g id="text_36">
    <!-- BP (24) -->
    <g transform="translate(361.8625 227.092187)scale(0.1 -0.1)">
     <use xlink:href="#DejaVuSans-66"/>
     <use x="68.603516" xlink:href="#DejaVuSans-80"/>
     <use x="128.90625" xlink:href="#DejaVuSans-32"/>
     <use x="160.693359" xlink:href="#DejaVuSans-40"/>
     <use x="199.707031" xlink:href="#DejaVuSans-50"/>
     <use x="263.330078" xlink:href="#DejaVuSans-52"/>
     <use x="326.953125" xlink:href="#DejaVuSans-41"/>
    </g>
   </g>
   <g id="line2d_81">
    <path d="M 333.8625 238.270312 
L 353.8625 238.270312 
" style="fill:none;stroke:#a6761d;stroke-dasharray:4.5,1.5;stroke-dashoffset:0;stroke-width:1.5;"/>
   </g>
   <g id="line2d_82"/>
   <g id="text_37">
    <!-- AHR-H (20) -->
    <g transform="translate(361.8625 241.770312)scale(0.1 -0.1)">
     <use xlink:href="#DejaVuSans-65"/>
     <use x="68.408203" xlink:href="#DejaVuSans-72"/>
     <use x="143.603516" xlink:href="#DejaVuSans-82"/>
     <use x="213.023438" xlink:href="#DejaVuSans-45"/>
     <use x="249.107422" xlink:href="#DejaVuSans-72"/>
     <use x="324.302734" xlink:href="#DejaVuSans-32"/>
     <use x="356.089844" xlink:href="#DejaVuSans-40"/>
     <use x="395.103516" xlink:href="#DejaVuSans-50"/>
     <use x="458.726562" xlink:href="#DejaVuSans-48"/>
     <use x="522.349609" xlink:href="#DejaVuSans-41"/>
    </g>
   </g>
   <g id="line2d_83">
    <path d="M 333.8625 252.948437 
L 353.8625 252.948437 
" style="fill:none;stroke:#666666;stroke-dasharray:4.5,1.5;stroke-dashoffset:0;stroke-width:1.5;"/>
   </g>
   <g id="line2d_84"/>
   <g id="text_38">
    <!-- AHR-A (20) -->
    <g transform="translate(361.8625 256.448437)scale(0.1 -0.1)">
     <use xlink:href="#DejaVuSans-65"/>
     <use x="68.408203" xlink:href="#DejaVuSans-72"/>
     <use x="143.603516" xlink:href="#DejaVuSans-82"/>
     <use x="213.023438" xlink:href="#DejaVuSans-45"/>
     <use x="249.076172" xlink:href="#DejaVuSans-65"/>
     <use x="317.484375" xlink:href="#DejaVuSans-32"/>
     <use x="349.271484" xlink:href="#DejaVuSans-40"/>
     <use x="388.285156" xlink:href="#DejaVuSans-50"/>
     <use x="451.908203" xlink:href="#DejaVuSans-48"/>
     <use x="515.53125" xlink:href="#DejaVuSans-41"/>
    </g>
   </g>
  </g>
 </g>
 <defs>
  <clipPath id="p9e07adb27e">
   <rect height="207.330771" width="271.81" x="43.55" y="12.9"/>
  </clipPath>
 </defs>
</svg>
