<?xml version="1.0" encoding="utf-8" standalone="no"?>
<!DOCTYPE svg PUBLIC "-//W3C//DTD SVG 1.1//EN"
  "http://www.w3.org/Graphics/SVG/1.1/DTD/svg11.dtd">
<!-- Created with matplotlib (https://matplotlib.org/) -->
<svg height="288pt" version="1.1" viewBox="0 0 432 288" width="432pt" xmlns="http://www.w3.org/2000/svg" xmlns:xlink="http://www.w3.org/1999/xlink">
 <defs>
  <style type="text/css">
*{stroke-linecap:butt;stroke-linejoin:round;}
  </style>
 </defs>
 <g id="figure_1">
  <g id="patch_1">
   <path d="M 0 288 
L 432 288 
L 432 0 
L 0 0 
z
" style="fill:#ffffff;"/>
  </g>
  <g id="axes_1">
   <g id="patch_2">
    <path d="M 43.55 220.230771 
L 315.36 220.230771 
L 315.36 12.9 
L 43.55 12.9 
z
" style="fill:#ffffff;"/>
   </g>
   <g id="matplotlib.axis_1">
    <g id="xtick_1">
     <g id="line2d_1">
      <defs>
       <path d="M 0 0 
L 0 3.5 
" id="mbf1756d6c1" style="stroke:#000000;stroke-width:0.8;"/>
      </defs>
      <g>
       <use style="stroke:#000000;stroke-width:0.8;" x="49.47768" xlink:href="#mbf1756d6c1" y="220.230771"/>
      </g>
     </g>
     <g id="text_1">
      <!-- 2020-11-29 -->
      <defs>
       <path d="M 19.1875 8.296875 
L 53.609375 8.296875 
L 53.609375 0 
L 7.328125 0 
L 7.328125 8.296875 
Q 12.9375 14.109375 22.625 23.890625 
Q 32.328125 33.6875 34.8125 36.53125 
Q 39.546875 41.84375 41.421875 45.53125 
Q 43.3125 49.21875 43.3125 52.78125 
Q 43.3125 58.59375 39.234375 62.25 
Q 35.15625 65.921875 28.609375 65.921875 
Q 23.96875 65.921875 18.8125 64.3125 
Q 13.671875 62.703125 7.8125 59.421875 
L 7.8125 69.390625 
Q 13.765625 71.78125 18.9375 73 
Q 24.125 74.21875 28.421875 74.21875 
Q 39.75 74.21875 46.484375 68.546875 
Q 53.21875 62.890625 53.21875 53.421875 
Q 53.21875 48.921875 51.53125 44.890625 
Q 49.859375 40.875 45.40625 35.40625 
Q 44.1875 33.984375 37.640625 27.21875 
Q 31.109375 20.453125 19.1875 8.296875 
z
" id="DejaVuSans-50"/>
       <path d="M 31.78125 66.40625 
Q 24.171875 66.40625 20.328125 58.90625 
Q 16.5 51.421875 16.5 36.375 
Q 16.5 21.390625 20.328125 13.890625 
Q 24.171875 6.390625 31.78125 6.390625 
Q 39.453125 6.390625 43.28125 13.890625 
Q 47.125 21.390625 47.125 36.375 
Q 47.125 51.421875 43.28125 58.90625 
Q 39.453125 66.40625 31.78125 66.40625 
z
M 31.78125 74.21875 
Q 44.046875 74.21875 50.515625 64.515625 
Q 56.984375 54.828125 56.984375 36.375 
Q 56.984375 17.96875 50.515625 8.265625 
Q 44.046875 -1.421875 31.78125 -1.421875 
Q 19.53125 -1.421875 13.0625 8.265625 
Q 6.59375 17.96875 6.59375 36.375 
Q 6.59375 54.828125 13.0625 64.515625 
Q 19.53125 74.21875 31.78125 74.21875 
z
" id="DejaVuSans-48"/>
       <path d="M 4.890625 31.390625 
L 31.203125 31.390625 
L 31.203125 23.390625 
L 4.890625 23.390625 
z
" id="DejaVuSans-45"/>
       <path d="M 12.40625 8.296875 
L 28.515625 8.296875 
L 28.515625 63.921875 
L 10.984375 60.40625 
L 10.984375 69.390625 
L 28.421875 72.90625 
L 38.28125 72.90625 
L 38.28125 8.296875 
L 54.390625 8.296875 
L 54.390625 0 
L 12.40625 0 
z
" id="DejaVuSans-49"/>
       <path d="M 10.984375 1.515625 
L 10.984375 10.5 
Q 14.703125 8.734375 18.5 7.8125 
Q 22.3125 6.890625 25.984375 6.890625 
Q 35.75 6.890625 40.890625 13.453125 
Q 46.046875 20.015625 46.78125 33.40625 
Q 43.953125 29.203125 39.59375 26.953125 
Q 35.25 24.703125 29.984375 24.703125 
Q 19.046875 24.703125 12.671875 31.3125 
Q 6.296875 37.9375 6.296875 49.421875 
Q 6.296875 60.640625 12.9375 67.421875 
Q 19.578125 74.21875 30.609375 74.21875 
Q 43.265625 74.21875 49.921875 64.515625 
Q 56.59375 54.828125 56.59375 36.375 
Q 56.59375 19.140625 48.40625 8.859375 
Q 40.234375 -1.421875 26.421875 -1.421875 
Q 22.703125 -1.421875 18.890625 -0.6875 
Q 15.09375 0.046875 10.984375 1.515625 
z
M 30.609375 32.421875 
Q 37.25 32.421875 41.125 36.953125 
Q 45.015625 41.5 45.015625 49.421875 
Q 45.015625 57.28125 41.125 61.84375 
Q 37.25 66.40625 30.609375 66.40625 
Q 23.96875 66.40625 20.09375 61.84375 
Q 16.21875 57.28125 16.21875 49.421875 
Q 16.21875 41.5 20.09375 36.953125 
Q 23.96875 32.421875 30.609375 32.421875 
z
" id="DejaVuSans-57"/>
      </defs>
      <g transform="translate(25.692564 262.869024)rotate(-30)scale(0.1 -0.1)">
       <use xlink:href="#DejaVuSans-50"/>
       <use x="63.623047" xlink:href="#DejaVuSans-48"/>
       <use x="127.246094" xlink:href="#DejaVuSans-50"/>
       <use x="190.869141" xlink:href="#DejaVuSans-48"/>
       <use x="254.492188" xlink:href="#DejaVuSans-45"/>
       <use x="290.576172" xlink:href="#DejaVuSans-49"/>
       <use x="354.199219" xlink:href="#DejaVuSans-49"/>
       <use x="417.822266" xlink:href="#DejaVuSans-45"/>
       <use x="453.90625" xlink:href="#DejaVuSans-50"/>
       <use x="517.529297" xlink:href="#DejaVuSans-57"/>
      </g>
     </g>
    </g>
    <g id="xtick_2">
     <g id="line2d_2">
      <g>
       <use style="stroke:#000000;stroke-width:0.8;" x="58.353897" xlink:href="#mbf1756d6c1" y="220.230771"/>
      </g>
     </g>
     <g id="text_2">
      <!-- 2020-12-01 -->
      <g transform="translate(34.568781 262.869024)rotate(-30)scale(0.1 -0.1)">
       <use xlink:href="#DejaVuSans-50"/>
       <use x="63.623047" xlink:href="#DejaVuSans-48"/>
       <use x="127.246094" xlink:href="#DejaVuSans-50"/>
       <use x="190.869141" xlink:href="#DejaVuSans-48"/>
       <use x="254.492188" xlink:href="#DejaVuSans-45"/>
       <use x="290.576172" xlink:href="#DejaVuSans-49"/>
       <use x="354.199219" xlink:href="#DejaVuSans-50"/>
       <use x="417.822266" xlink:href="#DejaVuSans-45"/>
       <use x="453.90625" xlink:href="#DejaVuSans-48"/>
       <use x="517.529297" xlink:href="#DejaVuSans-49"/>
      </g>
     </g>
    </g>
    <g id="xtick_3">
     <g id="line2d_3">
      <g>
       <use style="stroke:#000000;stroke-width:0.8;" x="89.420657" xlink:href="#mbf1756d6c1" y="220.230771"/>
      </g>
     </g>
     <g id="text_3">
      <!-- 2020-12-08 -->
      <defs>
       <path d="M 31.78125 34.625 
Q 24.75 34.625 20.71875 30.859375 
Q 16.703125 27.09375 16.703125 20.515625 
Q 16.703125 13.921875 20.71875 10.15625 
Q 24.75 6.390625 31.78125 6.390625 
Q 38.8125 6.390625 42.859375 10.171875 
Q 46.921875 13.96875 46.921875 20.515625 
Q 46.921875 27.09375 42.890625 30.859375 
Q 38.875 34.625 31.78125 34.625 
z
M 21.921875 38.8125 
Q 15.578125 40.375 12.03125 44.71875 
Q 8.5 49.078125 8.5 55.328125 
Q 8.5 64.0625 14.71875 69.140625 
Q 20.953125 74.21875 31.78125 74.21875 
Q 42.671875 74.21875 48.875 69.140625 
Q 55.078125 64.0625 55.078125 55.328125 
Q 55.078125 49.078125 51.53125 44.71875 
Q 48 40.375 41.703125 38.8125 
Q 48.828125 37.15625 52.796875 32.3125 
Q 56.78125 27.484375 56.78125 20.515625 
Q 56.78125 9.90625 50.3125 4.234375 
Q 43.84375 -1.421875 31.78125 -1.421875 
Q 19.734375 -1.421875 13.25 4.234375 
Q 6.78125 9.90625 6.78125 20.515625 
Q 6.78125 27.484375 10.78125 32.3125 
Q 14.796875 37.15625 21.921875 38.8125 
z
M 18.3125 54.390625 
Q 18.3125 48.734375 21.84375 45.5625 
Q 25.390625 42.390625 31.78125 42.390625 
Q 38.140625 42.390625 41.71875 45.5625 
Q 45.3125 48.734375 45.3125 54.390625 
Q 45.3125 60.0625 41.71875 63.234375 
Q 38.140625 66.40625 31.78125 66.40625 
Q 25.390625 66.40625 21.84375 63.234375 
Q 18.3125 60.0625 18.3125 54.390625 
z
" id="DejaVuSans-56"/>
      </defs>
      <g transform="translate(65.635541 262.869024)rotate(-30)scale(0.1 -0.1)">
       <use xlink:href="#DejaVuSans-50"/>
       <use x="63.623047" xlink:href="#DejaVuSans-48"/>
       <use x="127.246094" xlink:href="#DejaVuSans-50"/>
       <use x="190.869141" xlink:href="#DejaVuSans-48"/>
       <use x="254.492188" xlink:href="#DejaVuSans-45"/>
       <use x="290.576172" xlink:href="#DejaVuSans-49"/>
       <use x="354.199219" xlink:href="#DejaVuSans-50"/>
       <use x="417.822266" xlink:href="#DejaVuSans-45"/>
       <use x="453.90625" xlink:href="#DejaVuSans-48"/>
       <use x="517.529297" xlink:href="#DejaVuSans-56"/>
      </g>
     </g>
    </g>
    <g id="xtick_4">
     <g id="line2d_4">
      <g>
       <use style="stroke:#000000;stroke-width:0.8;" x="120.487416" xlink:href="#mbf1756d6c1" y="220.230771"/>
      </g>
     </g>
     <g id="text_4">
      <!-- 2020-12-15 -->
      <defs>
       <path d="M 10.796875 72.90625 
L 49.515625 72.90625 
L 49.515625 64.59375 
L 19.828125 64.59375 
L 19.828125 46.734375 
Q 21.96875 47.46875 24.109375 47.828125 
Q 26.265625 48.1875 28.421875 48.1875 
Q 40.625 48.1875 47.75 41.5 
Q 54.890625 34.8125 54.890625 23.390625 
Q 54.890625 11.625 47.5625 5.09375 
Q 40.234375 -1.421875 26.90625 -1.421875 
Q 22.3125 -1.421875 17.546875 -0.640625 
Q 12.796875 0.140625 7.71875 1.703125 
L 7.71875 11.625 
Q 12.109375 9.234375 16.796875 8.0625 
Q 21.484375 6.890625 26.703125 6.890625 
Q 35.15625 6.890625 40.078125 11.328125 
Q 45.015625 15.765625 45.015625 23.390625 
Q 45.015625 31 40.078125 35.4375 
Q 35.15625 39.890625 26.703125 39.890625 
Q 22.75 39.890625 18.8125 39.015625 
Q 14.890625 38.140625 10.796875 36.28125 
z
" id="DejaVuSans-53"/>
      </defs>
      <g transform="translate(96.7023 262.869024)rotate(-30)scale(0.1 -0.1)">
       <use xlink:href="#DejaVuSans-50"/>
       <use x="63.623047" xlink:href="#DejaVuSans-48"/>
       <use x="127.246094" xlink:href="#DejaVuSans-50"/>
       <use x="190.869141" xlink:href="#DejaVuSans-48"/>
       <use x="254.492188" xlink:href="#DejaVuSans-45"/>
       <use x="290.576172" xlink:href="#DejaVuSans-49"/>
       <use x="354.199219" xlink:href="#DejaVuSans-50"/>
       <use x="417.822266" xlink:href="#DejaVuSans-45"/>
       <use x="453.90625" xlink:href="#DejaVuSans-49"/>
       <use x="517.529297" xlink:href="#DejaVuSans-53"/>
      </g>
     </g>
    </g>
    <g id="xtick_5">
     <g id="line2d_5">
      <g>
       <use style="stroke:#000000;stroke-width:0.8;" x="151.554176" xlink:href="#mbf1756d6c1" y="220.230771"/>
      </g>
     </g>
     <g id="text_5">
      <!-- 2020-12-22 -->
      <g transform="translate(127.76906 262.869024)rotate(-30)scale(0.1 -0.1)">
       <use xlink:href="#DejaVuSans-50"/>
       <use x="63.623047" xlink:href="#DejaVuSans-48"/>
       <use x="127.246094" xlink:href="#DejaVuSans-50"/>
       <use x="190.869141" xlink:href="#DejaVuSans-48"/>
       <use x="254.492188" xlink:href="#DejaVuSans-45"/>
       <use x="290.576172" xlink:href="#DejaVuSans-49"/>
       <use x="354.199219" xlink:href="#DejaVuSans-50"/>
       <use x="417.822266" xlink:href="#DejaVuSans-45"/>
       <use x="453.90625" xlink:href="#DejaVuSans-50"/>
       <use x="517.529297" xlink:href="#DejaVuSans-50"/>
      </g>
     </g>
    </g>
    <g id="xtick_6">
     <g id="line2d_6">
      <g>
       <use style="stroke:#000000;stroke-width:0.8;" x="182.620935" xlink:href="#mbf1756d6c1" y="220.230771"/>
      </g>
     </g>
     <g id="text_6">
      <!-- 2020-12-29 -->
      <g transform="translate(158.835819 262.869024)rotate(-30)scale(0.1 -0.1)">
       <use xlink:href="#DejaVuSans-50"/>
       <use x="63.623047" xlink:href="#DejaVuSans-48"/>
       <use x="127.246094" xlink:href="#DejaVuSans-50"/>
       <use x="190.869141" xlink:href="#DejaVuSans-48"/>
       <use x="254.492188" xlink:href="#DejaVuSans-45"/>
       <use x="290.576172" xlink:href="#DejaVuSans-49"/>
       <use x="354.199219" xlink:href="#DejaVuSans-50"/>
       <use x="417.822266" xlink:href="#DejaVuSans-45"/>
       <use x="453.90625" xlink:href="#DejaVuSans-50"/>
       <use x="517.529297" xlink:href="#DejaVuSans-57"/>
      </g>
     </g>
    </g>
    <g id="xtick_7">
     <g id="line2d_7">
      <g>
       <use style="stroke:#000000;stroke-width:0.8;" x="195.935261" xlink:href="#mbf1756d6c1" y="220.230771"/>
      </g>
     </g>
     <g id="text_7">
      <!-- 2021-01-01 -->
      <g transform="translate(172.150145 262.869024)rotate(-30)scale(0.1 -0.1)">
       <use xlink:href="#DejaVuSans-50"/>
       <use x="63.623047" xlink:href="#DejaVuSans-48"/>
       <use x="127.246094" xlink:href="#DejaVuSans-50"/>
       <use x="190.869141" xlink:href="#DejaVuSans-49"/>
       <use x="254.492188" xlink:href="#DejaVuSans-45"/>
       <use x="290.576172" xlink:href="#DejaVuSans-48"/>
       <use x="354.199219" xlink:href="#DejaVuSans-49"/>
       <use x="417.822266" xlink:href="#DejaVuSans-45"/>
       <use x="453.90625" xlink:href="#DejaVuSans-48"/>
       <use x="517.529297" xlink:href="#DejaVuSans-49"/>
      </g>
     </g>
    </g>
    <g id="xtick_8">
     <g id="line2d_8">
      <g>
       <use style="stroke:#000000;stroke-width:0.8;" x="227.00202" xlink:href="#mbf1756d6c1" y="220.230771"/>
      </g>
     </g>
     <g id="text_8">
      <!-- 2021-01-08 -->
      <g transform="translate(203.216904 262.869024)rotate(-30)scale(0.1 -0.1)">
       <use xlink:href="#DejaVuSans-50"/>
       <use x="63.623047" xlink:href="#DejaVuSans-48"/>
       <use x="127.246094" xlink:href="#DejaVuSans-50"/>
       <use x="190.869141" xlink:href="#DejaVuSans-49"/>
       <use x="254.492188" xlink:href="#DejaVuSans-45"/>
       <use x="290.576172" xlink:href="#DejaVuSans-48"/>
       <use x="354.199219" xlink:href="#DejaVuSans-49"/>
       <use x="417.822266" xlink:href="#DejaVuSans-45"/>
       <use x="453.90625" xlink:href="#DejaVuSans-48"/>
       <use x="517.529297" xlink:href="#DejaVuSans-56"/>
      </g>
     </g>
    </g>
    <g id="xtick_9">
     <g id="line2d_9">
      <g>
       <use style="stroke:#000000;stroke-width:0.8;" x="258.06878" xlink:href="#mbf1756d6c1" y="220.230771"/>
      </g>
     </g>
     <g id="text_9">
      <!-- 2021-01-15 -->
      <g transform="translate(234.283664 262.869024)rotate(-30)scale(0.1 -0.1)">
       <use xlink:href="#DejaVuSans-50"/>
       <use x="63.623047" xlink:href="#DejaVuSans-48"/>
       <use x="127.246094" xlink:href="#DejaVuSans-50"/>
       <use x="190.869141" xlink:href="#DejaVuSans-49"/>
       <use x="254.492188" xlink:href="#DejaVuSans-45"/>
       <use x="290.576172" xlink:href="#DejaVuSans-48"/>
       <use x="354.199219" xlink:href="#DejaVuSans-49"/>
       <use x="417.822266" xlink:href="#DejaVuSans-45"/>
       <use x="453.90625" xlink:href="#DejaVuSans-49"/>
       <use x="517.529297" xlink:href="#DejaVuSans-53"/>
      </g>
     </g>
    </g>
    <g id="xtick_10">
     <g id="line2d_10">
      <g>
       <use style="stroke:#000000;stroke-width:0.8;" x="289.135539" xlink:href="#mbf1756d6c1" y="220.230771"/>
      </g>
     </g>
     <g id="text_10">
      <!-- 2021-01-22 -->
      <g transform="translate(265.350423 262.869024)rotate(-30)scale(0.1 -0.1)">
       <use xlink:href="#DejaVuSans-50"/>
       <use x="63.623047" xlink:href="#DejaVuSans-48"/>
       <use x="127.246094" xlink:href="#DejaVuSans-50"/>
       <use x="190.869141" xlink:href="#DejaVuSans-49"/>
       <use x="254.492188" xlink:href="#DejaVuSans-45"/>
       <use x="290.576172" xlink:href="#DejaVuSans-48"/>
       <use x="354.199219" xlink:href="#DejaVuSans-49"/>
       <use x="417.822266" xlink:href="#DejaVuSans-45"/>
       <use x="453.90625" xlink:href="#DejaVuSans-50"/>
       <use x="517.529297" xlink:href="#DejaVuSans-50"/>
      </g>
     </g>
    </g>
    <g id="text_11">
     <!-- Date -->
     <defs>
      <path d="M 19.671875 64.796875 
L 19.671875 8.109375 
L 31.59375 8.109375 
Q 46.6875 8.109375 53.6875 14.9375 
Q 60.6875 21.78125 60.6875 36.53125 
Q 60.6875 51.171875 53.6875 57.984375 
Q 46.6875 64.796875 31.59375 64.796875 
z
M 9.8125 72.90625 
L 30.078125 72.90625 
Q 51.265625 72.90625 61.171875 64.09375 
Q 71.09375 55.28125 71.09375 36.53125 
Q 71.09375 17.671875 61.125 8.828125 
Q 51.171875 0 30.078125 0 
L 9.8125 0 
z
" id="DejaVuSans-68"/>
      <path d="M 34.28125 27.484375 
Q 23.390625 27.484375 19.1875 25 
Q 14.984375 22.515625 14.984375 16.5 
Q 14.984375 11.71875 18.140625 8.90625 
Q 21.296875 6.109375 26.703125 6.109375 
Q 34.1875 6.109375 38.703125 11.40625 
Q 43.21875 16.703125 43.21875 25.484375 
L 43.21875 27.484375 
z
M 52.203125 31.203125 
L 52.203125 0 
L 43.21875 0 
L 43.21875 8.296875 
Q 40.140625 3.328125 35.546875 0.953125 
Q 30.953125 -1.421875 24.3125 -1.421875 
Q 15.921875 -1.421875 10.953125 3.296875 
Q 6 8.015625 6 15.921875 
Q 6 25.140625 12.171875 29.828125 
Q 18.359375 34.515625 30.609375 34.515625 
L 43.21875 34.515625 
L 43.21875 35.40625 
Q 43.21875 41.609375 39.140625 45 
Q 35.0625 48.390625 27.6875 48.390625 
Q 23 48.390625 18.546875 47.265625 
Q 14.109375 46.140625 10.015625 43.890625 
L 10.015625 52.203125 
Q 14.9375 54.109375 19.578125 55.046875 
Q 24.21875 56 28.609375 56 
Q 40.484375 56 46.34375 49.84375 
Q 52.203125 43.703125 52.203125 31.203125 
z
" id="DejaVuSans-97"/>
      <path d="M 18.3125 70.21875 
L 18.3125 54.6875 
L 36.8125 54.6875 
L 36.8125 47.703125 
L 18.3125 47.703125 
L 18.3125 18.015625 
Q 18.3125 11.328125 20.140625 9.421875 
Q 21.96875 7.515625 27.59375 7.515625 
L 36.8125 7.515625 
L 36.8125 0 
L 27.59375 0 
Q 17.1875 0 13.234375 3.875 
Q 9.28125 7.765625 9.28125 18.015625 
L 9.28125 47.703125 
L 2.6875 47.703125 
L 2.6875 54.6875 
L 9.28125 54.6875 
L 9.28125 70.21875 
z
" id="DejaVuSans-116"/>
      <path d="M 56.203125 29.59375 
L 56.203125 25.203125 
L 14.890625 25.203125 
Q 15.484375 15.921875 20.484375 11.0625 
Q 25.484375 6.203125 34.421875 6.203125 
Q 39.59375 6.203125 44.453125 7.46875 
Q 49.3125 8.734375 54.109375 11.28125 
L 54.109375 2.78125 
Q 49.265625 0.734375 44.1875 -0.34375 
Q 39.109375 -1.421875 33.890625 -1.421875 
Q 20.796875 -1.421875 13.15625 6.1875 
Q 5.515625 13.8125 5.515625 26.8125 
Q 5.515625 40.234375 12.765625 48.109375 
Q 20.015625 56 32.328125 56 
Q 43.359375 56 49.78125 48.890625 
Q 56.203125 41.796875 56.203125 29.59375 
z
M 47.21875 32.234375 
Q 47.125 39.59375 43.09375 43.984375 
Q 39.0625 48.390625 32.421875 48.390625 
Q 24.90625 48.390625 20.390625 44.140625 
Q 15.875 39.890625 15.1875 32.171875 
z
" id="DejaVuSans-101"/>
     </defs>
     <g transform="translate(167.504219 276.268523)scale(0.1 -0.1)">
      <use xlink:href="#DejaVuSans-68"/>
      <use x="77.001953" xlink:href="#DejaVuSans-97"/>
      <use x="138.28125" xlink:href="#DejaVuSans-116"/>
      <use x="177.490234" xlink:href="#DejaVuSans-101"/>
     </g>
    </g>
   </g>
   <g id="matplotlib.axis_2">
    <g id="ytick_1">
     <g id="line2d_11">
      <defs>
       <path d="M 0 0 
L -3.5 0 
" id="m609a51d213" style="stroke:#000000;stroke-width:0.8;"/>
      </defs>
      <g>
       <use style="stroke:#000000;stroke-width:0.8;" x="43.55" xlink:href="#m609a51d213" y="210.806645"/>
      </g>
     </g>
     <g id="text_12">
      <!-- 0 -->
      <g transform="translate(30.1875 214.605864)scale(0.1 -0.1)">
       <use xlink:href="#DejaVuSans-48"/>
      </g>
     </g>
    </g>
    <g id="ytick_2">
     <g id="line2d_12">
      <g>
       <use style="stroke:#000000;stroke-width:0.8;" x="43.55" xlink:href="#m609a51d213" y="187.24633"/>
      </g>
     </g>
     <g id="text_13">
      <!-- 5 -->
      <g transform="translate(30.1875 191.045549)scale(0.1 -0.1)">
       <use xlink:href="#DejaVuSans-53"/>
      </g>
     </g>
    </g>
    <g id="ytick_3">
     <g id="line2d_13">
      <g>
       <use style="stroke:#000000;stroke-width:0.8;" x="43.55" xlink:href="#m609a51d213" y="163.686016"/>
      </g>
     </g>
     <g id="text_14">
      <!-- 10 -->
      <g transform="translate(23.825 167.485234)scale(0.1 -0.1)">
       <use xlink:href="#DejaVuSans-49"/>
       <use x="63.623047" xlink:href="#DejaVuSans-48"/>
      </g>
     </g>
    </g>
    <g id="ytick_4">
     <g id="line2d_14">
      <g>
       <use style="stroke:#000000;stroke-width:0.8;" x="43.55" xlink:href="#m609a51d213" y="140.125701"/>
      </g>
     </g>
     <g id="text_15">
      <!-- 15 -->
      <g transform="translate(23.825 143.924919)scale(0.1 -0.1)">
       <use xlink:href="#DejaVuSans-49"/>
       <use x="63.623047" xlink:href="#DejaVuSans-53"/>
      </g>
     </g>
    </g>
    <g id="ytick_5">
     <g id="line2d_15">
      <g>
       <use style="stroke:#000000;stroke-width:0.8;" x="43.55" xlink:href="#m609a51d213" y="116.565386"/>
      </g>
     </g>
     <g id="text_16">
      <!-- 20 -->
      <g transform="translate(23.825 120.364604)scale(0.1 -0.1)">
       <use xlink:href="#DejaVuSans-50"/>
       <use x="63.623047" xlink:href="#DejaVuSans-48"/>
      </g>
     </g>
    </g>
    <g id="ytick_6">
     <g id="line2d_16">
      <g>
       <use style="stroke:#000000;stroke-width:0.8;" x="43.55" xlink:href="#m609a51d213" y="93.005071"/>
      </g>
     </g>
     <g id="text_17">
      <!-- 25 -->
      <g transform="translate(23.825 96.80429)scale(0.1 -0.1)">
       <use xlink:href="#DejaVuSans-50"/>
       <use x="63.623047" xlink:href="#DejaVuSans-53"/>
      </g>
     </g>
    </g>
    <g id="ytick_7">
     <g id="line2d_17">
      <g>
       <use style="stroke:#000000;stroke-width:0.8;" x="43.55" xlink:href="#m609a51d213" y="69.444756"/>
      </g>
     </g>
     <g id="text_18">
      <!-- 30 -->
      <defs>
       <path d="M 40.578125 39.3125 
Q 47.65625 37.796875 51.625 33 
Q 55.609375 28.21875 55.609375 21.1875 
Q 55.609375 10.40625 48.1875 4.484375 
Q 40.765625 -1.421875 27.09375 -1.421875 
Q 22.515625 -1.421875 17.65625 -0.515625 
Q 12.796875 0.390625 7.625 2.203125 
L 7.625 11.71875 
Q 11.71875 9.328125 16.59375 8.109375 
Q 21.484375 6.890625 26.8125 6.890625 
Q 36.078125 6.890625 40.9375 10.546875 
Q 45.796875 14.203125 45.796875 21.1875 
Q 45.796875 27.640625 41.28125 31.265625 
Q 36.765625 34.90625 28.71875 34.90625 
L 20.21875 34.90625 
L 20.21875 43.015625 
L 29.109375 43.015625 
Q 36.375 43.015625 40.234375 45.921875 
Q 44.09375 48.828125 44.09375 54.296875 
Q 44.09375 59.90625 40.109375 62.90625 
Q 36.140625 65.921875 28.71875 65.921875 
Q 24.65625 65.921875 20.015625 65.03125 
Q 15.375 64.15625 9.8125 62.3125 
L 9.8125 71.09375 
Q 15.4375 72.65625 20.34375 73.4375 
Q 25.25 74.21875 29.59375 74.21875 
Q 40.828125 74.21875 47.359375 69.109375 
Q 53.90625 64.015625 53.90625 55.328125 
Q 53.90625 49.265625 50.4375 45.09375 
Q 46.96875 40.921875 40.578125 39.3125 
z
" id="DejaVuSans-51"/>
      </defs>
      <g transform="translate(23.825 73.243975)scale(0.1 -0.1)">
       <use xlink:href="#DejaVuSans-51"/>
       <use x="63.623047" xlink:href="#DejaVuSans-48"/>
      </g>
     </g>
    </g>
    <g id="ytick_8">
     <g id="line2d_18">
      <g>
       <use style="stroke:#000000;stroke-width:0.8;" x="43.55" xlink:href="#m609a51d213" y="45.884441"/>
      </g>
     </g>
     <g id="text_19">
      <!-- 35 -->
      <g transform="translate(23.825 49.68366)scale(0.1 -0.1)">
       <use xlink:href="#DejaVuSans-51"/>
       <use x="63.623047" xlink:href="#DejaVuSans-53"/>
      </g>
     </g>
    </g>
    <g id="ytick_9">
     <g id="line2d_19">
      <g>
       <use style="stroke:#000000;stroke-width:0.8;" x="43.55" xlink:href="#m609a51d213" y="22.324126"/>
      </g>
     </g>
     <g id="text_20">
      <!-- 40 -->
      <defs>
       <path d="M 37.796875 64.3125 
L 12.890625 25.390625 
L 37.796875 25.390625 
z
M 35.203125 72.90625 
L 47.609375 72.90625 
L 47.609375 25.390625 
L 58.015625 25.390625 
L 58.015625 17.1875 
L 47.609375 17.1875 
L 47.609375 0 
L 37.796875 0 
L 37.796875 17.1875 
L 4.890625 17.1875 
L 4.890625 26.703125 
z
" id="DejaVuSans-52"/>
      </defs>
      <g transform="translate(23.825 26.123345)scale(0.1 -0.1)">
       <use xlink:href="#DejaVuSans-52"/>
       <use x="63.623047" xlink:href="#DejaVuSans-48"/>
      </g>
     </g>
    </g>
    <g id="text_21">
     <!-- Students Registered -->
     <defs>
      <path d="M 53.515625 70.515625 
L 53.515625 60.890625 
Q 47.90625 63.578125 42.921875 64.890625 
Q 37.9375 66.21875 33.296875 66.21875 
Q 25.25 66.21875 20.875 63.09375 
Q 16.5 59.96875 16.5 54.203125 
Q 16.5 49.359375 19.40625 46.890625 
Q 22.3125 44.4375 30.421875 42.921875 
L 36.375 41.703125 
Q 47.40625 39.59375 52.65625 34.296875 
Q 57.90625 29 57.90625 20.125 
Q 57.90625 9.515625 50.796875 4.046875 
Q 43.703125 -1.421875 29.984375 -1.421875 
Q 24.8125 -1.421875 18.96875 -0.25 
Q 13.140625 0.921875 6.890625 3.21875 
L 6.890625 13.375 
Q 12.890625 10.015625 18.65625 8.296875 
Q 24.421875 6.59375 29.984375 6.59375 
Q 38.421875 6.59375 43.015625 9.90625 
Q 47.609375 13.234375 47.609375 19.390625 
Q 47.609375 24.75 44.3125 27.78125 
Q 41.015625 30.8125 33.5 32.328125 
L 27.484375 33.5 
Q 16.453125 35.6875 11.515625 40.375 
Q 6.59375 45.0625 6.59375 53.421875 
Q 6.59375 63.09375 13.40625 68.65625 
Q 20.21875 74.21875 32.171875 74.21875 
Q 37.3125 74.21875 42.625 73.28125 
Q 47.953125 72.359375 53.515625 70.515625 
z
" id="DejaVuSans-83"/>
      <path d="M 8.5 21.578125 
L 8.5 54.6875 
L 17.484375 54.6875 
L 17.484375 21.921875 
Q 17.484375 14.15625 20.5 10.265625 
Q 23.53125 6.390625 29.59375 6.390625 
Q 36.859375 6.390625 41.078125 11.03125 
Q 45.3125 15.671875 45.3125 23.6875 
L 45.3125 54.6875 
L 54.296875 54.6875 
L 54.296875 0 
L 45.3125 0 
L 45.3125 8.40625 
Q 42.046875 3.421875 37.71875 1 
Q 33.40625 -1.421875 27.6875 -1.421875 
Q 18.265625 -1.421875 13.375 4.4375 
Q 8.5 10.296875 8.5 21.578125 
z
M 31.109375 56 
z
" id="DejaVuSans-117"/>
      <path d="M 45.40625 46.390625 
L 45.40625 75.984375 
L 54.390625 75.984375 
L 54.390625 0 
L 45.40625 0 
L 45.40625 8.203125 
Q 42.578125 3.328125 38.25 0.953125 
Q 33.9375 -1.421875 27.875 -1.421875 
Q 17.96875 -1.421875 11.734375 6.484375 
Q 5.515625 14.40625 5.515625 27.296875 
Q 5.515625 40.1875 11.734375 48.09375 
Q 17.96875 56 27.875 56 
Q 33.9375 56 38.25 53.625 
Q 42.578125 51.265625 45.40625 46.390625 
z
M 14.796875 27.296875 
Q 14.796875 17.390625 18.875 11.75 
Q 22.953125 6.109375 30.078125 6.109375 
Q 37.203125 6.109375 41.296875 11.75 
Q 45.40625 17.390625 45.40625 27.296875 
Q 45.40625 37.203125 41.296875 42.84375 
Q 37.203125 48.484375 30.078125 48.484375 
Q 22.953125 48.484375 18.875 42.84375 
Q 14.796875 37.203125 14.796875 27.296875 
z
" id="DejaVuSans-100"/>
      <path d="M 54.890625 33.015625 
L 54.890625 0 
L 45.90625 0 
L 45.90625 32.71875 
Q 45.90625 40.484375 42.875 44.328125 
Q 39.84375 48.1875 33.796875 48.1875 
Q 26.515625 48.1875 22.3125 43.546875 
Q 18.109375 38.921875 18.109375 30.90625 
L 18.109375 0 
L 9.078125 0 
L 9.078125 54.6875 
L 18.109375 54.6875 
L 18.109375 46.1875 
Q 21.34375 51.125 25.703125 53.5625 
Q 30.078125 56 35.796875 56 
Q 45.21875 56 50.046875 50.171875 
Q 54.890625 44.34375 54.890625 33.015625 
z
" id="DejaVuSans-110"/>
      <path d="M 44.28125 53.078125 
L 44.28125 44.578125 
Q 40.484375 46.53125 36.375 47.5 
Q 32.28125 48.484375 27.875 48.484375 
Q 21.1875 48.484375 17.84375 46.4375 
Q 14.5 44.390625 14.5 40.28125 
Q 14.5 37.15625 16.890625 35.375 
Q 19.28125 33.59375 26.515625 31.984375 
L 29.59375 31.296875 
Q 39.15625 29.25 43.1875 25.515625 
Q 47.21875 21.78125 47.21875 15.09375 
Q 47.21875 7.46875 41.1875 3.015625 
Q 35.15625 -1.421875 24.609375 -1.421875 
Q 20.21875 -1.421875 15.453125 -0.5625 
Q 10.6875 0.296875 5.421875 2 
L 5.421875 11.28125 
Q 10.40625 8.6875 15.234375 7.390625 
Q 20.0625 6.109375 24.8125 6.109375 
Q 31.15625 6.109375 34.5625 8.28125 
Q 37.984375 10.453125 37.984375 14.40625 
Q 37.984375 18.0625 35.515625 20.015625 
Q 33.0625 21.96875 24.703125 23.78125 
L 21.578125 24.515625 
Q 13.234375 26.265625 9.515625 29.90625 
Q 5.8125 33.546875 5.8125 39.890625 
Q 5.8125 47.609375 11.28125 51.796875 
Q 16.75 56 26.8125 56 
Q 31.78125 56 36.171875 55.265625 
Q 40.578125 54.546875 44.28125 53.078125 
z
" id="DejaVuSans-115"/>
      <path id="DejaVuSans-32"/>
      <path d="M 44.390625 34.1875 
Q 47.5625 33.109375 50.5625 29.59375 
Q 53.5625 26.078125 56.59375 19.921875 
L 66.609375 0 
L 56 0 
L 46.6875 18.703125 
Q 43.0625 26.03125 39.671875 28.421875 
Q 36.28125 30.8125 30.421875 30.8125 
L 19.671875 30.8125 
L 19.671875 0 
L 9.8125 0 
L 9.8125 72.90625 
L 32.078125 72.90625 
Q 44.578125 72.90625 50.734375 67.671875 
Q 56.890625 62.453125 56.890625 51.90625 
Q 56.890625 45.015625 53.6875 40.46875 
Q 50.484375 35.9375 44.390625 34.1875 
z
M 19.671875 64.796875 
L 19.671875 38.921875 
L 32.078125 38.921875 
Q 39.203125 38.921875 42.84375 42.21875 
Q 46.484375 45.515625 46.484375 51.90625 
Q 46.484375 58.296875 42.84375 61.546875 
Q 39.203125 64.796875 32.078125 64.796875 
z
" id="DejaVuSans-82"/>
      <path d="M 45.40625 27.984375 
Q 45.40625 37.75 41.375 43.109375 
Q 37.359375 48.484375 30.078125 48.484375 
Q 22.859375 48.484375 18.828125 43.109375 
Q 14.796875 37.75 14.796875 27.984375 
Q 14.796875 18.265625 18.828125 12.890625 
Q 22.859375 7.515625 30.078125 7.515625 
Q 37.359375 7.515625 41.375 12.890625 
Q 45.40625 18.265625 45.40625 27.984375 
z
M 54.390625 6.78125 
Q 54.390625 -7.171875 48.1875 -13.984375 
Q 42 -20.796875 29.203125 -20.796875 
Q 24.46875 -20.796875 20.265625 -20.09375 
Q 16.0625 -19.390625 12.109375 -17.921875 
L 12.109375 -9.1875 
Q 16.0625 -11.328125 19.921875 -12.34375 
Q 23.78125 -13.375 27.78125 -13.375 
Q 36.625 -13.375 41.015625 -8.765625 
Q 45.40625 -4.15625 45.40625 5.171875 
L 45.40625 9.625 
Q 42.625 4.78125 38.28125 2.390625 
Q 33.9375 0 27.875 0 
Q 17.828125 0 11.671875 7.65625 
Q 5.515625 15.328125 5.515625 27.984375 
Q 5.515625 40.671875 11.671875 48.328125 
Q 17.828125 56 27.875 56 
Q 33.9375 56 38.28125 53.609375 
Q 42.625 51.21875 45.40625 46.390625 
L 45.40625 54.6875 
L 54.390625 54.6875 
z
" id="DejaVuSans-103"/>
      <path d="M 9.421875 54.6875 
L 18.40625 54.6875 
L 18.40625 0 
L 9.421875 0 
z
M 9.421875 75.984375 
L 18.40625 75.984375 
L 18.40625 64.59375 
L 9.421875 64.59375 
z
" id="DejaVuSans-105"/>
      <path d="M 41.109375 46.296875 
Q 39.59375 47.171875 37.8125 47.578125 
Q 36.03125 48 33.890625 48 
Q 26.265625 48 22.1875 43.046875 
Q 18.109375 38.09375 18.109375 28.8125 
L 18.109375 0 
L 9.078125 0 
L 9.078125 54.6875 
L 18.109375 54.6875 
L 18.109375 46.1875 
Q 20.953125 51.171875 25.484375 53.578125 
Q 30.03125 56 36.53125 56 
Q 37.453125 56 38.578125 55.875 
Q 39.703125 55.765625 41.0625 55.515625 
z
" id="DejaVuSans-114"/>
     </defs>
     <g transform="translate(17.745313 167.498979)rotate(-90)scale(0.1 -0.1)">
      <use xlink:href="#DejaVuSans-83"/>
      <use x="63.476562" xlink:href="#DejaVuSans-116"/>
      <use x="102.685547" xlink:href="#DejaVuSans-117"/>
      <use x="166.064453" xlink:href="#DejaVuSans-100"/>
      <use x="229.541016" xlink:href="#DejaVuSans-101"/>
      <use x="291.064453" xlink:href="#DejaVuSans-110"/>
      <use x="354.443359" xlink:href="#DejaVuSans-116"/>
      <use x="393.652344" xlink:href="#DejaVuSans-115"/>
      <use x="445.751953" xlink:href="#DejaVuSans-32"/>
      <use x="477.539062" xlink:href="#DejaVuSans-82"/>
      <use x="546.958984" xlink:href="#DejaVuSans-101"/>
      <use x="608.482422" xlink:href="#DejaVuSans-103"/>
      <use x="671.958984" xlink:href="#DejaVuSans-105"/>
      <use x="699.742188" xlink:href="#DejaVuSans-115"/>
      <use x="751.841797" xlink:href="#DejaVuSans-116"/>
      <use x="791.050781" xlink:href="#DejaVuSans-101"/>
      <use x="852.574219" xlink:href="#DejaVuSans-114"/>
      <use x="893.65625" xlink:href="#DejaVuSans-101"/>
      <use x="955.179688" xlink:href="#DejaVuSans-100"/>
     </g>
    </g>
   </g>
   <g id="line2d_20">
    <path clip-path="url(#p8a5c003569)" d="M 55.905 210.806645 
L 56.099837 210.806645 
L 56.099837 201.382519 
L 56.209176 201.382519 
L 56.967358 201.382519 
L 56.967358 196.670456 
L 57.056703 196.670456 
L 61.220526 196.670456 
L 61.220526 191.958393 
L 61.312984 191.958393 
L 64.734058 191.958393 
L 64.734058 177.822204 
L 64.826517 177.822204 
L 64.918961 177.822204 
L 64.918961 173.110142 
L 65.011437 173.110142 
L 65.103882 173.110142 
L 65.103882 154.26189 
L 65.196353 154.26189 
L 65.288801 154.26189 
L 65.288801 149.549827 
L 65.38126 149.549827 
L 65.473725 149.549827 
L 65.473725 140.125701 
L 65.566173 140.125701 
L 65.658674 140.125701 
L 65.658674 125.989512 
L 65.75113 125.989512 
L 68.987236 125.989512 
L 68.987236 121.277449 
L 69.079693 121.277449 
L 69.172136 121.277449 
L 69.172136 116.565386 
L 69.264594 116.565386 
L 69.726913 116.565386 
L 69.726913 111.853323 
L 69.819381 111.853323 
L 70.09676 111.853323 
L 70.09676 97.717134 
L 70.189207 97.717134 
L 70.281676 97.717134 
L 70.281676 93.005071 
L 70.374158 93.005071 
L 73.980092 93.005071 
L 73.980092 88.293008 
L 74.072573 88.293008 
L 74.165008 88.293008 
L 74.165008 83.580945 
L 74.257495 83.580945 
L 74.534876 83.580945 
L 74.534876 78.868882 
L 74.627327 78.868882 
L 75.089629 78.868882 
L 75.089629 74.156819 
L 75.18208 74.156819 
L 78.233315 74.156819 
L 78.233315 69.444756 
L 78.325742 69.444756 
L 86.924609 69.444756 
L 86.924609 45.884441 
L 87.017024 45.884441 
L 87.109512 45.884441 
L 87.109512 36.460315 
L 87.201944 36.460315 
L 87.294445 36.460315 
L 87.294445 31.748252 
L 87.386885 31.748252 
L 149.612859 31.748252 
L 149.612859 36.460315 
L 149.705337 36.460315 
L 149.797774 36.460315 
L 149.797774 31.748252 
L 149.890235 31.748252 
L 159.783516 31.748252 
L 159.783516 36.460315 
L 159.876009 36.460315 
L 159.968451 36.460315 
L 159.968451 31.748252 
L 160.060906 31.748252 
L 251.319542 31.748252 
L 251.319542 22.324126 
L 251.411968 22.324126 
L 303.005 22.324126 
L 303.005 22.324126 
" style="fill:none;stroke:#1b9e77;stroke-linecap:square;stroke-width:1.5;"/>
   </g>
   <g id="line2d_21">
    <path clip-path="url(#p8a5c003569)" d="M 94.506373 196.670456 
L 95.430938 196.670456 
L 95.430938 182.534267 
L 95.523552 182.534267 
L 95.615864 182.534267 
L 95.615864 177.822204 
L 95.708362 177.822204 
L 95.80078 177.822204 
L 95.80078 158.973953 
L 95.893279 158.973953 
L 96.17064 158.973953 
L 96.17064 144.837764 
L 96.263102 144.837764 
L 96.540475 144.837764 
L 96.540475 116.565386 
L 96.632954 116.565386 
L 96.910314 116.565386 
L 96.910314 107.14126 
L 97.002806 107.14126 
L 97.09526 107.14126 
L 97.09526 102.429197 
L 97.18774 102.429197 
L 97.280165 102.429197 
L 97.280165 97.717134 
L 97.372658 97.717134 
L 97.650038 97.717134 
L 97.650038 93.005071 
L 97.742455 93.005071 
L 100.238894 93.005071 
L 100.238894 74.156819 
L 100.331386 74.156819 
L 100.608749 74.156819 
L 100.608749 69.444756 
L 100.701195 69.444756 
L 100.97862 69.444756 
L 100.97862 60.02063 
L 101.071061 60.02063 
L 101.163541 60.02063 
L 101.163541 55.308567 
L 101.255978 55.308567 
L 101.533389 55.308567 
L 101.533389 50.596504 
L 101.625818 50.596504 
L 105.416718 50.596504 
L 105.416718 45.884441 
L 105.50916 45.884441 
L 105.601607 45.884441 
L 105.601607 41.172378 
L 105.69411 41.172378 
L 105.786538 41.172378 
L 105.786538 36.460315 
L 105.879021 36.460315 
L 106.341327 36.460315 
L 106.341327 31.748252 
L 106.43379 31.748252 
L 118.176255 31.748252 
L 118.176255 22.324126 
L 118.268738 22.324126 
L 140.921565 22.324126 
L 140.921565 27.036189 
L 141.014037 27.036189 
L 142.031091 27.036189 
L 142.031091 22.324126 
L 142.123555 22.324126 
L 158.119256 22.324126 
L 158.119256 27.036189 
L 158.21172 27.036189 
L 159.598618 27.036189 
L 159.598618 22.324126 
L 159.69109 22.324126 
L 279.242648 22.324126 
L 279.242648 27.036189 
L 279.335097 27.036189 
L 284.420429 27.036189 
L 284.420429 22.324126 
L 284.512879 22.324126 
L 303.005 22.324126 
L 303.005 22.324126 
" style="fill:none;stroke:#d95f02;stroke-linecap:square;stroke-width:1.5;"/>
   </g>
   <g id="line2d_22">
    <path clip-path="url(#p8a5c003569)" d="M 55.905 182.534267 
L 56.099837 182.534267 
L 56.099837 177.822204 
L 56.209176 177.822204 
L 57.056703 177.822204 
L 57.056703 173.110142 
L 60.015476 173.110142 
L 60.015476 168.398079 
L 60.295946 168.398079 
L 60.295946 163.686016 
L 60.388417 163.686016 
L 60.480856 163.686016 
L 60.480856 158.973953 
L 60.573333 158.973953 
L 61.035645 158.973953 
L 61.035645 144.837764 
L 61.128125 144.837764 
L 61.220526 144.837764 
L 61.220526 140.125701 
L 61.312984 140.125701 
L 64.918961 140.125701 
L 64.918961 130.701575 
L 65.011437 130.701575 
L 65.103882 130.701575 
L 65.103882 125.989512 
L 65.196353 125.989512 
L 65.288801 125.989512 
L 65.288801 130.701575 
L 65.38126 130.701575 
L 65.658674 130.701575 
L 65.658674 125.989512 
L 65.75113 125.989512 
L 65.843557 125.989512 
L 65.843557 116.565386 
L 65.936013 116.565386 
L 66.768186 116.565386 
L 66.768186 107.14126 
L 66.860657 107.14126 
L 68.802318 107.14126 
L 68.802318 102.429197 
L 68.894769 102.429197 
L 68.987236 102.429197 
L 68.987236 83.580945 
L 69.079693 83.580945 
L 69.172136 83.580945 
L 69.172136 74.156819 
L 69.264594 74.156819 
L 69.541998 74.156819 
L 69.541998 69.444756 
L 69.634461 69.444756 
L 69.726913 69.444756 
L 69.726913 64.732693 
L 69.819381 64.732693 
L 69.91184 64.732693 
L 69.91184 60.02063 
L 70.004311 60.02063 
L 70.09676 60.02063 
L 70.09676 45.884441 
L 70.189207 45.884441 
L 70.281676 45.884441 
L 70.281676 41.172378 
L 70.374158 41.172378 
L 70.466608 41.172378 
L 70.466608 36.460315 
L 70.559052 36.460315 
L 73.610243 36.460315 
L 73.610243 27.036189 
L 73.702718 27.036189 
L 73.795204 27.036189 
L 73.795204 22.324126 
L 73.887655 22.324126 
L 95.615864 22.324126 
L 95.615864 27.036189 
L 95.708362 27.036189 
L 95.80078 27.036189 
L 95.80078 22.324126 
L 95.893279 22.324126 
L 279.057696 22.324126 
L 279.057696 27.036189 
L 279.150164 27.036189 
L 279.242648 27.036189 
L 279.242648 22.324126 
L 279.335097 22.324126 
L 303.005 22.324126 
L 303.005 22.324126 
" style="fill:none;stroke:#7570b3;stroke-linecap:square;stroke-width:1.5;"/>
   </g>
   <g id="line2d_23">
    <path clip-path="url(#p8a5c003569)" d="M 55.905 201.382519 
L 60.850733 201.382519 
L 60.850733 196.670456 
L 60.943166 196.670456 
L 64.549145 196.670456 
L 64.549145 191.958393 
L 64.641571 191.958393 
L 64.734058 191.958393 
L 64.734058 187.24633 
L 64.826517 187.24633 
L 64.918961 187.24633 
L 64.918961 177.822204 
L 65.011437 177.822204 
L 65.103882 177.822204 
L 65.103882 173.110142 
L 65.196353 173.110142 
L 65.288801 173.110142 
L 65.288801 168.398079 
L 65.38126 168.398079 
L 65.473725 168.398079 
L 65.473725 163.686016 
L 65.566173 163.686016 
L 65.843557 163.686016 
L 65.843557 158.973953 
L 65.936013 158.973953 
L 68.987236 158.973953 
L 68.987236 149.549827 
L 69.079693 149.549827 
L 69.172136 149.549827 
L 69.172136 144.837764 
L 69.264594 144.837764 
L 69.91184 144.837764 
L 69.91184 140.125701 
L 70.004311 140.125701 
L 70.09676 140.125701 
L 70.09676 130.701575 
L 70.189207 130.701575 
L 86.924609 130.701575 
L 86.924609 125.989512 
L 87.017024 125.989512 
L 87.109512 125.989512 
L 87.109512 121.277449 
L 87.201944 121.277449 
L 87.294445 121.277449 
L 87.294445 116.565386 
L 87.386885 116.565386 
L 87.479346 116.565386 
L 87.479346 111.853323 
L 87.571797 111.853323 
L 87.664286 111.853323 
L 87.664286 102.429197 
L 87.756725 102.429197 
L 87.84921 102.429197 
L 87.84921 97.717134 
L 87.941646 97.717134 
L 91.177767 97.717134 
L 91.224 83.580945 
L 91.270226 83.580945 
L 91.547618 83.580945 
L 91.547618 74.156819 
L 91.640075 74.156819 
L 92.102387 74.156819 
L 92.102387 69.444756 
L 92.19485 69.444756 
L 92.287309 69.444756 
L 92.287309 60.02063 
L 92.379775 60.02063 
L 92.472228 60.02063 
L 92.472228 36.460315 
L 92.564686 36.460315 
L 92.657122 36.460315 
L 92.657122 22.324126 
L 92.749667 22.324126 
L 95.430938 22.324126 
L 95.430938 27.036189 
L 95.523552 27.036189 
L 95.80078 27.036189 
L 95.80078 22.324126 
L 95.893279 22.324126 
L 140.551709 22.324126 
L 140.551709 27.036189 
L 140.644202 27.036189 
L 140.736669 27.036189 
L 140.736669 22.324126 
L 140.829092 22.324126 
L 148.873211 22.324126 
L 148.873211 27.036189 
L 148.965637 27.036189 
L 149.243003 27.036189 
L 149.243003 22.324126 
L 149.33551 22.324126 
L 149.612859 22.324126 
L 149.612859 27.036189 
L 149.705337 27.036189 
L 150.352583 27.036189 
L 150.352583 22.324126 
L 150.445019 22.324126 
L 303.005 22.324126 
L 303.005 22.324126 
" style="fill:none;stroke:#e7298a;stroke-linecap:square;stroke-width:1.5;"/>
   </g>
   <g id="line2d_24">
    <path clip-path="url(#p8a5c003569)" d="M 55.905 201.382519 
L 61.220526 201.382519 
L 61.220526 196.670456 
L 61.312984 196.670456 
L 64.734058 196.670456 
L 64.734058 191.958393 
L 64.826517 191.958393 
L 65.473725 191.958393 
L 65.473725 187.24633 
L 65.566173 187.24633 
L 69.357048 187.24633 
L 69.357048 177.822204 
L 69.449531 177.822204 
L 69.726913 177.822204 
L 69.726913 173.110142 
L 69.819381 173.110142 
L 70.09676 173.110142 
L 70.09676 168.398079 
L 70.189207 168.398079 
L 70.281676 168.398079 
L 70.281676 163.686016 
L 70.374158 163.686016 
L 74.534876 163.686016 
L 74.534876 158.973953 
L 74.627327 158.973953 
L 78.78806 158.973953 
L 78.78806 154.26189 
L 78.880533 154.26189 
L 86.924609 154.26189 
L 86.924609 144.837764 
L 87.017024 144.837764 
L 87.294445 144.837764 
L 87.294445 140.125701 
L 87.386885 140.125701 
L 88.219048 140.125701 
L 88.219048 135.413638 
L 88.311494 135.413638 
L 91.177767 135.413638 
L 91.177767 130.701575 
L 91.270226 130.701575 
L 92.102387 130.701575 
L 92.102387 125.989512 
L 92.19485 125.989512 
L 92.287309 125.989512 
L 92.287309 121.277449 
L 92.379775 121.277449 
L 92.472228 121.277449 
L 92.518452 107.14126 
L 92.564686 107.14126 
L 95.615864 107.14126 
L 95.615864 102.429197 
L 95.708362 102.429197 
L 95.80078 102.429197 
L 95.80078 93.005071 
L 95.893279 93.005071 
L 95.9857 93.005071 
L 95.9857 88.293008 
L 96.07817 88.293008 
L 96.17064 88.293008 
L 96.216868 74.156819 
L 96.263102 74.156819 
L 96.540475 74.156819 
L 96.540475 60.02063 
L 96.632954 60.02063 
L 96.72542 60.02063 
L 96.72542 50.596504 
L 96.817893 50.596504 
L 96.910314 50.596504 
L 96.910314 31.748252 
L 97.002806 31.748252 
L 97.09526 31.748252 
L 97.09526 27.036189 
L 97.18774 27.036189 
L 98.019874 27.036189 
L 98.019874 22.324126 
L 98.112339 22.324126 
L 148.873211 22.324126 
L 148.873211 27.036189 
L 148.965637 27.036189 
L 149.058131 27.036189 
L 149.058131 22.324126 
L 149.150586 22.324126 
L 149.427953 22.324126 
L 149.427953 27.036189 
L 149.520435 27.036189 
L 149.982695 27.036189 
L 149.982695 31.748252 
L 150.075192 31.748252 
L 150.352583 31.748252 
L 150.352583 36.460315 
L 150.445019 36.460315 
L 155.34542 36.460315 
L 155.34542 41.172378 
L 155.437877 41.172378 
L 166.255789 41.172378 
L 166.255789 36.460315 
L 166.348253 36.460315 
L 186.782015 36.460315 
L 186.782015 41.172378 
L 186.874502 41.172378 
L 193.99396 41.172378 
L 193.99396 36.460315 
L 194.086414 36.460315 
L 216.554372 36.460315 
L 216.554372 31.748252 
L 216.646827 31.748252 
L 219.513063 31.748252 
L 219.513063 27.036189 
L 219.605528 27.036189 
L 224.69088 27.036189 
L 224.69088 22.324126 
L 251.319542 22.324126 
L 251.319542 31.748252 
L 251.411968 31.748252 
L 251.87426 31.748252 
L 251.87426 36.460315 
L 251.966765 36.460315 
L 284.050574 36.460315 
L 284.050574 41.172378 
L 284.143068 41.172378 
L 290.707745 41.172378 
L 290.707745 36.460315 
L 290.800193 36.460315 
L 295.145864 36.460315 
L 295.145864 31.748252 
L 295.238297 31.748252 
L 296.440267 31.748252 
L 296.440267 27.036189 
L 296.532775 27.036189 
L 303.005 27.036189 
L 303.005 27.036189 
" style="fill:none;stroke:#66a61e;stroke-linecap:square;stroke-width:1.5;"/>
   </g>
   <g id="line2d_25">
    <path clip-path="url(#p8a5c003569)" d="M 55.905 191.958393 
L 64.734058 191.958393 
L 64.734058 187.24633 
L 64.826517 187.24633 
L 65.658674 187.24633 
L 65.658674 182.534267 
L 65.75113 182.534267 
L 66.028504 182.534267 
L 66.028504 177.822204 
L 66.120976 177.822204 
L 69.541998 177.822204 
L 69.541998 173.110142 
L 69.634461 173.110142 
L 69.91184 173.110142 
L 69.91184 168.398079 
L 70.004311 168.398079 
L 73.610243 168.398079 
L 73.610243 163.686016 
L 73.702718 163.686016 
L 86.739662 163.686016 
L 86.739662 154.26189 
L 86.832103 154.26189 
L 86.924609 154.26189 
L 86.924609 144.837764 
L 87.017024 144.837764 
L 87.479346 144.837764 
L 87.479346 140.125701 
L 87.571797 140.125701 
L 88.219048 140.125701 
L 88.219048 135.413638 
L 88.311494 135.413638 
L 91.547618 135.413638 
L 91.547618 130.701575 
L 91.640075 130.701575 
L 91.917429 130.701575 
L 91.917429 121.277449 
L 92.009937 121.277449 
L 92.287309 121.277449 
L 92.287309 116.565386 
L 92.379775 116.565386 
L 93.396838 116.565386 
L 93.396838 111.853323 
L 93.489288 111.853323 
L 95.430938 111.853323 
L 95.430938 107.14126 
L 95.523552 107.14126 
L 95.80078 107.14126 
L 95.80078 102.429197 
L 95.893279 102.429197 
L 95.9857 102.429197 
L 95.9857 93.005071 
L 96.07817 93.005071 
L 96.355572 93.005071 
L 96.355572 88.293008 
L 96.448055 88.293008 
L 96.540475 88.293008 
L 96.586723 74.156819 
L 96.632954 74.156819 
L 96.72542 74.156819 
L 96.72542 64.732693 
L 96.817893 64.732693 
L 97.465076 64.732693 
L 97.465076 69.444756 
L 97.557578 69.444756 
L 100.238894 69.444756 
L 100.238894 60.02063 
L 100.331386 60.02063 
L 100.42386 60.02063 
L 100.42386 55.308567 
L 100.51632 55.308567 
L 100.793677 55.308567 
L 100.793677 50.596504 
L 100.88614 50.596504 
L 100.97862 50.596504 
L 100.97862 41.172378 
L 101.071061 41.172378 
L 101.163541 41.172378 
L 101.163541 36.460315 
L 101.255978 36.460315 
L 101.533389 36.460315 
L 101.533389 31.748252 
L 101.625818 31.748252 
L 253.353657 31.748252 
L 253.353657 36.460315 
L 253.446097 36.460315 
L 257.606822 36.460315 
L 257.606822 31.748252 
L 257.699308 31.748252 
L 303.005 31.748252 
L 303.005 31.748252 
" style="fill:none;stroke:#e6ab02;stroke-linecap:square;stroke-width:1.5;"/>
   </g>
   <g id="line2d_26">
    <path clip-path="url(#p8a5c003569)" d="M 55.905 196.670456 
L 60.850733 196.670456 
L 60.850733 191.958393 
L 60.943166 191.958393 
L 64.549145 191.958393 
L 64.549145 187.24633 
L 64.641571 187.24633 
L 64.734058 187.24633 
L 64.734058 182.534267 
L 64.826517 182.534267 
L 65.103882 182.534267 
L 65.103882 177.822204 
L 65.196353 177.822204 
L 65.288801 177.822204 
L 65.288801 173.110142 
L 65.38126 173.110142 
L 65.473725 173.110142 
L 65.473725 163.686016 
L 65.566173 163.686016 
L 65.658674 163.686016 
L 65.658674 158.973953 
L 65.75113 158.973953 
L 65.843557 158.973953 
L 65.843557 154.26189 
L 65.936013 154.26189 
L 68.802318 154.26189 
L 68.802318 149.549827 
L 68.894769 149.549827 
L 68.987236 149.549827 
L 68.987236 140.125701 
L 69.079693 140.125701 
L 69.357048 140.125701 
L 69.357048 135.413638 
L 69.449531 135.413638 
L 69.541998 135.413638 
L 69.541998 125.989512 
L 69.634461 125.989512 
L 69.91184 125.989512 
L 69.91184 121.277449 
L 70.004311 121.277449 
L 70.281676 121.277449 
L 70.281676 116.565386 
L 70.374158 116.565386 
L 70.466608 116.565386 
L 70.466608 111.853323 
L 70.559052 111.853323 
L 73.795204 111.853323 
L 73.795204 107.14126 
L 73.887655 107.14126 
L 74.534876 107.14126 
L 74.534876 102.429197 
L 74.627327 102.429197 
L 79.342797 102.429197 
L 79.342797 97.717134 
L 79.435276 97.717134 
L 86.739662 97.717134 
L 86.739662 93.005071 
L 86.832103 93.005071 
L 87.294445 93.005071 
L 87.294445 78.868882 
L 87.386885 78.868882 
L 87.479346 78.868882 
L 87.479346 69.444756 
L 87.571797 69.444756 
L 87.664286 69.444756 
L 87.664286 60.02063 
L 87.756725 60.02063 
L 88.219048 60.02063 
L 88.219048 55.308567 
L 88.311494 55.308567 
L 90.807933 55.308567 
L 90.807933 50.596504 
L 90.900388 50.596504 
L 91.362684 50.596504 
L 91.362684 45.884441 
L 91.455173 45.884441 
L 91.547618 45.884441 
L 91.547618 41.172378 
L 91.640075 41.172378 
L 91.732527 41.172378 
L 91.732527 36.460315 
L 91.824982 36.460315 
L 92.287309 36.460315 
L 92.287309 31.748252 
L 92.379775 31.748252 
L 303.005 31.748252 
L 303.005 31.748252 
" style="fill:none;stroke:#a6761d;stroke-linecap:square;stroke-width:1.5;"/>
   </g>
   <g id="line2d_27">
    <path clip-path="url(#p8a5c003569)" d="M 55.905 201.382519 
L 64.918961 201.382519 
L 64.918961 196.670456 
L 65.011437 196.670456 
L 65.473725 196.670456 
L 65.473725 191.958393 
L 65.566173 191.958393 
L 69.541998 191.958393 
L 69.541998 187.24633 
L 69.634461 187.24633 
L 69.91184 187.24633 
L 69.91184 191.958393 
L 70.004311 191.958393 
L 70.09676 191.958393 
L 70.09676 182.534267 
L 70.189207 182.534267 
L 86.924609 182.534267 
L 86.924609 177.822204 
L 87.017024 177.822204 
L 87.294445 177.822204 
L 87.294445 173.110142 
L 87.386885 173.110142 
L 87.664286 173.110142 
L 87.664286 168.398079 
L 87.756725 168.398079 
L 87.84921 168.398079 
L 87.84921 163.686016 
L 87.941646 163.686016 
L 88.773786 163.686016 
L 88.773786 158.973953 
L 88.866283 158.973953 
L 91.732527 158.973953 
L 91.732527 154.26189 
L 91.824982 154.26189 
L 92.287309 154.26189 
L 92.287309 149.549827 
L 92.379775 149.549827 
L 92.472228 149.549827 
L 92.472228 144.837764 
L 92.564686 144.837764 
L 95.615864 144.837764 
L 95.615864 135.413638 
L 95.708362 135.413638 
L 95.80078 135.413638 
L 95.80078 130.701575 
L 95.893279 130.701575 
L 95.9857 130.701575 
L 96.031934 116.565386 
L 96.07817 116.565386 
L 96.72542 116.565386 
L 96.72542 111.853323 
L 96.817893 111.853323 
L 96.910314 111.853323 
L 96.910314 107.14126 
L 97.002806 107.14126 
L 97.09526 107.14126 
L 97.09526 111.853323 
L 97.18774 111.853323 
L 97.280165 111.853323 
L 97.280165 107.14126 
L 97.372658 107.14126 
L 97.465076 107.14126 
L 97.465076 102.429197 
L 97.557578 102.429197 
L 99.684159 102.429197 
L 99.684159 107.14126 
L 99.776593 107.14126 
L 100.238894 107.14126 
L 100.238894 93.005071 
L 100.331386 93.005071 
L 100.608749 93.005071 
L 100.608749 88.293008 
L 100.701195 88.293008 
L 100.97862 88.293008 
L 100.97862 69.444756 
L 101.071061 69.444756 
L 101.163541 69.444756 
L 101.163541 64.732693 
L 101.255978 64.732693 
L 105.231772 64.732693 
L 105.231772 60.02063 
L 105.324226 60.02063 
L 120.210425 60.02063 
L 120.210425 55.308567 
L 120.302885 55.308567 
L 123.169156 55.308567 
L 123.169156 50.596504 
L 123.261591 50.596504 
L 123.354055 50.596504 
L 123.354055 55.308567 
L 123.446537 55.308567 
L 123.7239 55.308567 
L 123.7239 50.596504 
L 123.816382 50.596504 
L 128.162038 50.596504 
L 128.162038 45.884441 
L 128.254486 45.884441 
L 135.743762 45.884441 
L 135.743762 50.596504 
L 135.836231 50.596504 
L 140.921565 50.596504 
L 140.921565 45.884441 
L 141.014037 45.884441 
L 148.873211 45.884441 
L 148.873211 50.596504 
L 148.965637 50.596504 
L 149.243003 50.596504 
L 149.243003 55.308567 
L 149.33551 55.308567 
L 149.797774 55.308567 
L 149.797774 60.02063 
L 149.890235 60.02063 
L 154.975575 60.02063 
L 154.975575 64.732693 
L 155.068073 64.732693 
L 162.927174 64.732693 
L 162.927174 69.444756 
L 163.019662 69.444756 
L 181.419336 69.444756 
L 181.419336 74.156819 
L 181.511776 74.156819 
L 265.373535 74.156819 
L 265.373535 69.444756 
L 265.466034 69.444756 
L 270.366425 69.444756 
L 270.366425 74.156819 
L 270.45891 74.156819 
L 303.005 74.156819 
L 303.005 74.156819 
" style="fill:none;stroke:#666666;stroke-linecap:square;stroke-width:1.5;"/>
   </g>
   <g id="line2d_28">
    <path clip-path="url(#p8a5c003569)" d="M 55.905 196.670456 
L 60.015476 196.670456 
L 60.015476 191.958393 
L 65.473725 191.958393 
L 65.473725 187.24633 
L 65.566173 187.24633 
L 69.172136 187.24633 
L 69.172136 182.534267 
L 69.264594 182.534267 
L 69.541998 182.534267 
L 69.541998 177.822204 
L 69.634461 177.822204 
L 70.09676 177.822204 
L 70.09676 173.110142 
L 70.189207 173.110142 
L 70.281676 173.110142 
L 70.281676 168.398079 
L 70.374158 168.398079 
L 71.391211 168.398079 
L 71.391211 163.686016 
L 71.483689 163.686016 
L 87.294445 163.686016 
L 87.294445 154.26189 
L 87.386885 154.26189 
L 91.547618 154.26189 
L 91.547618 149.549827 
L 91.640075 149.549827 
L 92.472228 149.549827 
L 92.472228 144.837764 
L 92.564686 144.837764 
L 93.027008 144.837764 
L 93.027008 140.125701 
L 93.119457 140.125701 
L 95.80078 140.125701 
L 95.80078 135.413638 
L 95.893279 135.413638 
L 95.9857 135.413638 
L 95.9857 125.989512 
L 96.07817 125.989512 
L 96.540475 125.989512 
L 96.540475 116.565386 
L 96.632954 116.565386 
L 100.608749 116.565386 
L 100.608749 111.853323 
L 100.701195 111.853323 
L 101.163541 111.853323 
L 101.163541 107.14126 
L 101.255978 107.14126 
L 101.718267 107.14126 
L 101.718267 102.429197 
L 101.810749 102.429197 
L 106.341327 102.429197 
L 106.341327 97.717134 
L 106.43379 97.717134 
L 119.100881 97.717134 
L 119.100881 93.005071 
L 119.193354 93.005071 
L 123.354055 93.005071 
L 123.354055 88.293008 
L 123.446537 88.293008 
L 128.162038 88.293008 
L 128.162038 93.005071 
L 128.254486 93.005071 
L 149.427953 93.005071 
L 149.427953 88.293008 
L 149.520435 88.293008 
L 149.612859 88.293008 
L 149.612859 93.005071 
L 149.705337 93.005071 
L 154.235907 93.005071 
L 154.235907 88.293008 
L 154.328389 88.293008 
L 186.782015 88.293008 
L 186.782015 83.580945 
L 186.874502 83.580945 
L 216.369413 83.580945 
L 216.369413 78.868882 
L 216.461872 78.868882 
L 225.800413 78.868882 
L 225.800413 83.580945 
L 225.892864 83.580945 
L 284.420429 83.580945 
L 284.420429 88.293008 
L 284.512879 88.293008 
L 286.639497 88.293008 
L 286.639497 93.005071 
L 286.731955 93.005071 
L 302.172876 93.005071 
L 302.172876 88.293008 
L 302.265318 88.293008 
L 303.005 88.293008 
L 303.005 88.293008 
" style="fill:none;stroke:#1b9e77;stroke-dasharray:4.5,1.5;stroke-dashoffset:0;stroke-width:1.5;"/>
   </g>
   <g id="line2d_29">
    <path clip-path="url(#p8a5c003569)" d="M 55.905 206.094582 
L 64.918961 206.094582 
L 64.918961 201.382519 
L 65.011437 201.382519 
L 69.91184 201.382519 
L 69.91184 191.958393 
L 70.004311 191.958393 
L 86.739662 191.958393 
L 86.739662 187.24633 
L 86.832103 187.24633 
L 87.109512 187.24633 
L 87.109512 182.534267 
L 87.201944 182.534267 
L 87.664286 182.534267 
L 87.664286 177.822204 
L 87.756725 177.822204 
L 91.177767 177.822204 
L 91.177767 173.110142 
L 91.270226 173.110142 
L 91.362684 173.110142 
L 91.362684 163.686016 
L 91.455173 163.686016 
L 91.547618 163.686016 
L 91.547618 158.973953 
L 91.640075 158.973953 
L 91.917429 158.973953 
L 91.917429 154.26189 
L 92.009937 154.26189 
L 92.102387 154.26189 
L 92.102387 144.837764 
L 92.19485 144.837764 
L 92.287309 144.837764 
L 92.287309 135.413638 
L 92.379775 135.413638 
L 93.027008 135.413638 
L 93.027008 130.701575 
L 93.119457 130.701575 
L 93.396838 130.701575 
L 93.396838 125.989512 
L 93.489288 125.989512 
L 93.581725 125.989512 
L 93.581725 130.701575 
L 93.674234 130.701575 
L 95.246035 130.701575 
L 95.246035 135.413638 
L 95.338519 135.413638 
L 95.430938 135.413638 
L 95.430938 140.125701 
L 95.523552 140.125701 
L 95.615864 140.125701 
L 95.615864 135.413638 
L 95.708362 135.413638 
L 95.80078 135.413638 
L 95.80078 140.125701 
L 95.893279 140.125701 
L 95.9857 140.125701 
L 95.9857 135.413638 
L 96.07817 135.413638 
L 96.17064 135.413638 
L 96.17064 130.701575 
L 96.263102 130.701575 
L 96.540475 130.701575 
L 96.540475 135.413638 
L 96.632954 135.413638 
L 100.793677 135.413638 
L 100.793677 130.701575 
L 100.88614 130.701575 
L 101.163541 130.701575 
L 101.163541 125.989512 
L 101.255978 125.989512 
L 105.416718 125.989512 
L 105.416718 121.277449 
L 105.50916 121.277449 
L 106.711151 121.277449 
L 106.711151 116.565386 
L 106.803595 116.565386 
L 118.546112 116.565386 
L 118.546112 111.853323 
L 118.638588 111.853323 
L 118.73103 111.853323 
L 118.73103 107.14126 
L 118.823497 107.14126 
L 119.470696 107.14126 
L 119.470696 102.429197 
L 119.563188 102.429197 
L 128.162038 102.429197 
L 128.162038 97.717134 
L 128.254486 97.717134 
L 128.716753 97.717134 
L 128.716753 93.005071 
L 128.809251 93.005071 
L 137.962843 93.005071 
L 137.962843 88.293008 
L 138.055279 88.293008 
L 142.031091 88.293008 
L 142.031091 93.005071 
L 142.123555 93.005071 
L 149.243003 93.005071 
L 149.243003 97.717134 
L 149.33551 97.717134 
L 181.049484 97.717134 
L 181.049484 93.005071 
L 181.141959 93.005071 
L 212.301184 93.005071 
L 212.301184 88.293008 
L 212.393624 88.293008 
L 215.814674 88.293008 
L 215.814674 83.580945 
L 215.907106 83.580945 
L 228.574216 83.580945 
L 228.574216 78.868882 
L 228.66669 78.868882 
L 255.572743 78.868882 
L 255.572743 83.580945 
L 255.665201 83.580945 
L 255.757618 83.580945 
L 255.757618 78.868882 
L 255.850078 78.868882 
L 292.926791 78.868882 
L 292.926791 83.580945 
L 293.019234 83.580945 
L 301.433171 83.580945 
L 301.433171 88.293008 
L 301.525613 88.293008 
L 303.005 88.293008 
L 303.005 88.293008 
" style="fill:none;stroke:#d95f02;stroke-dasharray:4.5,1.5;stroke-dashoffset:0;stroke-width:1.5;"/>
   </g>
   <g id="line2d_30">
    <path clip-path="url(#p8a5c003569)" d="M 55.905 210.806645 
L 61.405444 210.806645 
L 61.405444 206.094582 
L 61.497909 206.094582 
L 62.145165 206.094582 
L 62.145165 201.382519 
L 62.237616 201.382519 
L 73.795204 201.382519 
L 73.795204 196.670456 
L 73.887655 196.670456 
L 86.739662 196.670456 
L 86.739662 191.958393 
L 86.832103 191.958393 
L 88.034104 191.958393 
L 88.034104 182.534267 
L 88.126556 182.534267 
L 91.547618 182.534267 
L 91.547618 177.822204 
L 91.640075 177.822204 
L 91.732527 177.822204 
L 91.732527 173.110142 
L 91.824982 173.110142 
L 92.287309 173.110142 
L 92.287309 163.686016 
L 92.379775 163.686016 
L 92.472228 163.686016 
L 92.472228 158.973953 
L 92.564686 158.973953 
L 93.581725 158.973953 
L 93.581725 154.26189 
L 93.674234 154.26189 
L 95.80078 154.26189 
L 95.80078 158.973953 
L 95.893279 158.973953 
L 96.17064 158.973953 
L 96.17064 154.26189 
L 96.263102 154.26189 
L 96.355572 154.26189 
L 96.355572 149.549827 
L 96.448055 149.549827 
L 96.72542 149.549827 
L 96.72542 144.837764 
L 96.817893 144.837764 
L 96.910314 144.837764 
L 96.910314 149.549827 
L 97.002806 149.549827 
L 97.09526 149.549827 
L 97.09526 144.837764 
L 97.18774 144.837764 
L 100.238894 144.837764 
L 100.238894 140.125701 
L 100.331386 140.125701 
L 106.156404 140.125701 
L 106.156404 135.413638 
L 106.248852 135.413638 
L 118.546112 135.413638 
L 118.546112 130.701575 
L 118.638588 130.701575 
L 136.113614 130.701575 
L 136.113614 125.989512 
L 136.206116 125.989512 
L 158.119256 125.989512 
L 158.119256 121.277449 
L 158.21172 121.277449 
L 181.419336 121.277449 
L 181.419336 116.565386 
L 181.511776 116.565386 
L 224.69088 116.565386 
L 224.69088 111.853323 
L 242.443301 111.853323 
L 242.443301 107.14126 
L 242.535783 107.14126 
L 279.057696 107.14126 
L 279.057696 102.429197 
L 279.150164 102.429197 
L 284.235492 102.429197 
L 284.235492 97.717134 
L 284.327957 97.717134 
L 291.077563 97.717134 
L 291.077563 93.005071 
L 291.170048 93.005071 
L 303.005 93.005071 
L 303.005 93.005071 
" style="fill:none;stroke:#7570b3;stroke-dasharray:4.5,1.5;stroke-dashoffset:0;stroke-width:1.5;"/>
   </g>
   <g id="line2d_31">
    <path clip-path="url(#p8a5c003569)" d="M 55.905 210.806645 
L 60.665955 210.806645 
L 60.665955 206.094582 
L 60.758256 206.094582 
L 61.035645 206.094582 
L 61.035645 201.382519 
L 61.128125 201.382519 
L 65.288801 201.382519 
L 65.288801 196.670456 
L 65.38126 196.670456 
L 70.09676 196.670456 
L 70.09676 191.958393 
L 70.189207 191.958393 
L 73.055506 191.958393 
L 73.055506 187.24633 
L 73.147994 187.24633 
L 73.980092 187.24633 
L 73.980092 182.534267 
L 74.072573 182.534267 
L 74.349951 182.534267 
L 74.349951 177.822204 
L 74.442395 177.822204 
L 86.739662 177.822204 
L 86.739662 168.398079 
L 86.832103 168.398079 
L 87.109512 168.398079 
L 87.109512 163.686016 
L 87.201944 163.686016 
L 87.294445 163.686016 
L 87.294445 158.973953 
L 87.386885 158.973953 
L 87.479346 158.973953 
L 87.479346 154.26189 
L 87.571797 154.26189 
L 87.664286 154.26189 
L 87.664286 144.837764 
L 87.756725 144.837764 
L 87.84921 144.837764 
L 87.84921 140.125701 
L 87.941646 140.125701 
L 88.219048 140.125701 
L 88.219048 135.413638 
L 88.311494 135.413638 
L 88.588907 135.413638 
L 88.588907 130.701575 
L 88.681352 130.701575 
L 89.14362 130.701575 
L 89.14362 125.989512 
L 89.236125 125.989512 
L 91.177767 125.989512 
L 91.177767 121.277449 
L 91.270226 121.277449 
L 91.362684 121.277449 
L 91.362684 116.565386 
L 91.455173 116.565386 
L 91.547618 116.565386 
L 91.547618 102.429197 
L 91.640075 102.429197 
L 91.732527 102.429197 
L 91.732527 97.717134 
L 91.824982 97.717134 
L 91.917429 97.717134 
L 91.917429 93.005071 
L 92.009937 93.005071 
L 93.581725 93.005071 
L 93.581725 97.717134 
L 93.674234 97.717134 
L 95.9857 97.717134 
L 95.9857 93.005071 
L 96.07817 93.005071 
L 96.17064 93.005071 
L 96.17064 97.717134 
L 96.263102 97.717134 
L 96.355572 97.717134 
L 96.355572 93.005071 
L 96.448055 93.005071 
L 101.533389 93.005071 
L 101.533389 97.717134 
L 101.625818 97.717134 
L 101.718267 97.717134 
L 101.718267 93.005071 
L 101.810749 93.005071 
L 278.687883 93.005071 
L 278.687883 97.717134 
L 278.780306 97.717134 
L 292.926791 97.717134 
L 292.926791 93.005071 
L 293.019234 93.005071 
L 303.005 93.005071 
L 303.005 93.005071 
" style="fill:none;stroke:#e7298a;stroke-dasharray:4.5,1.5;stroke-dashoffset:0;stroke-width:1.5;"/>
   </g>
   <g id="line2d_32">
    <path clip-path="url(#p8a5c003569)" d="M 138.933662 210.806645 
L 140.551709 210.806645 
L 140.551709 206.094582 
L 140.644202 206.094582 
L 146.099384 206.094582 
L 146.099384 201.382519 
L 146.191818 201.382519 
L 148.873211 201.382519 
L 148.873211 182.534267 
L 148.965637 182.534267 
L 149.243003 182.534267 
L 149.243003 173.110142 
L 149.33551 173.110142 
L 149.612859 173.110142 
L 149.612859 158.973953 
L 149.705337 158.973953 
L 149.982695 158.973953 
L 149.982695 154.26189 
L 150.075192 154.26189 
L 153.681158 154.26189 
L 153.681158 149.549827 
L 153.773617 149.549827 
L 154.605753 149.549827 
L 154.605753 144.837764 
L 154.698207 144.837764 
L 154.975575 144.837764 
L 154.975575 140.125701 
L 155.068073 140.125701 
L 155.34542 140.125701 
L 155.34542 135.413638 
L 155.437877 135.413638 
L 155.530347 135.413638 
L 155.530347 130.701575 
L 155.622789 130.701575 
L 158.119256 130.701575 
L 158.119256 125.989512 
L 158.21172 125.989512 
L 159.783516 125.989512 
L 159.783516 121.277449 
L 159.876009 121.277449 
L 162.927174 121.277449 
L 162.927174 116.565386 
L 163.019662 116.565386 
L 219.513063 116.565386 
L 219.513063 121.277449 
L 219.605528 121.277449 
L 220.437658 121.277449 
L 220.437658 116.565386 
L 220.530154 116.565386 
L 251.504454 116.565386 
L 251.504454 111.853323 
L 251.596928 111.853323 
L 251.87426 111.853323 
L 251.87426 107.14126 
L 251.966765 107.14126 
L 253.353657 107.14126 
L 253.353657 102.429197 
L 253.446097 102.429197 
L 278.502925 102.429197 
L 278.502925 97.717134 
L 278.595394 97.717134 
L 303.005 97.717134 
L 303.005 97.717134 
" style="fill:none;stroke:#66a61e;stroke-dasharray:4.5,1.5;stroke-dashoffset:0;stroke-width:1.5;"/>
   </g>
   <g id="line2d_33">
    <path clip-path="url(#p8a5c003569)" d="M 55.905 206.094582 
L 64.549145 206.094582 
L 64.549145 201.382519 
L 64.641571 201.382519 
L 64.734058 201.382519 
L 64.734058 196.670456 
L 64.826517 196.670456 
L 65.473725 196.670456 
L 65.473725 187.24633 
L 65.566173 187.24633 
L 68.987236 187.24633 
L 68.987236 182.534267 
L 69.079693 182.534267 
L 69.91184 182.534267 
L 69.91184 177.822204 
L 70.004311 177.822204 
L 70.09676 177.822204 
L 70.09676 173.110142 
L 70.189207 173.110142 
L 70.281676 173.110142 
L 70.281676 168.398079 
L 70.374158 168.398079 
L 87.109512 168.398079 
L 87.109512 163.686016 
L 87.201944 163.686016 
L 87.294445 163.686016 
L 87.294445 158.973953 
L 87.386885 158.973953 
L 87.479346 158.973953 
L 87.479346 149.549827 
L 87.571797 149.549827 
L 92.102387 149.549827 
L 92.102387 144.837764 
L 92.19485 144.837764 
L 92.287309 144.837764 
L 92.287309 140.125701 
L 92.379775 140.125701 
L 95.430938 140.125701 
L 95.430938 144.837764 
L 95.523552 144.837764 
L 95.9857 144.837764 
L 95.9857 135.413638 
L 96.07817 135.413638 
L 96.17064 135.413638 
L 96.17064 140.125701 
L 96.263102 140.125701 
L 96.355572 140.125701 
L 96.355572 135.413638 
L 96.448055 135.413638 
L 96.72542 135.413638 
L 96.72542 125.989512 
L 96.817893 125.989512 
L 96.910314 125.989512 
L 96.910314 121.277449 
L 97.002806 121.277449 
L 105.601607 121.277449 
L 105.601607 116.565386 
L 105.69411 116.565386 
L 106.156404 116.565386 
L 106.156404 111.853323 
L 106.248852 111.853323 
L 115.032594 111.853323 
L 115.032594 107.14126 
L 115.125056 107.14126 
L 131.860424 107.14126 
L 131.860424 102.429197 
L 131.952899 102.429197 
L 132.600108 102.429197 
L 132.600108 97.717134 
L 132.692613 97.717134 
L 136.298561 97.717134 
L 136.298561 93.005071 
L 136.391027 93.005071 
L 150.907344 93.005071 
L 150.907344 88.293008 
L 150.999771 88.293008 
L 261.120322 88.293008 
L 261.120322 93.005071 
L 261.212826 93.005071 
L 265.373535 93.005071 
L 265.373535 97.717134 
L 265.466034 97.717134 
L 303.005 97.717134 
L 303.005 97.717134 
" style="fill:none;stroke:#e6ab02;stroke-dasharray:4.5,1.5;stroke-dashoffset:0;stroke-width:1.5;"/>
   </g>
   <g id="line2d_34">
    <path clip-path="url(#p8a5c003569)" d="M 55.905 206.094582 
L 65.103882 206.094582 
L 65.103882 196.670456 
L 65.196353 196.670456 
L 69.172136 196.670456 
L 69.172136 187.24633 
L 69.264594 187.24633 
L 69.357048 187.24633 
L 69.357048 182.534267 
L 69.449531 182.534267 
L 70.09676 182.534267 
L 70.09676 177.822204 
L 70.189207 177.822204 
L 70.281676 177.822204 
L 70.281676 173.110142 
L 70.374158 173.110142 
L 87.479346 173.110142 
L 87.479346 168.398079 
L 87.571797 168.398079 
L 87.664286 168.398079 
L 87.664286 163.686016 
L 87.756725 163.686016 
L 87.84921 163.686016 
L 87.84921 158.973953 
L 87.941646 158.973953 
L 88.403933 158.973953 
L 88.403933 154.26189 
L 88.496436 154.26189 
L 88.588907 154.26189 
L 88.588907 158.973953 
L 88.681352 158.973953 
L 91.177767 158.973953 
L 91.177767 140.125701 
L 91.270226 140.125701 
L 91.547618 140.125701 
L 91.547618 130.701575 
L 91.640075 130.701575 
L 91.732527 130.701575 
L 91.732527 125.989512 
L 91.824982 125.989512 
L 91.917429 125.989512 
L 91.917429 116.565386 
L 92.009937 116.565386 
L 303.005 116.565386 
L 303.005 116.565386 
" style="fill:none;stroke:#a6761d;stroke-dasharray:4.5,1.5;stroke-dashoffset:0;stroke-width:1.5;"/>
   </g>
   <g id="line2d_35">
    <path clip-path="url(#p8a5c003569)" d="M 55.905 210.806645 
L 65.473725 210.806645 
L 65.473725 206.094582 
L 65.566173 206.094582 
L 65.658674 206.094582 
L 65.658674 201.382519 
L 65.75113 201.382519 
L 69.357048 201.382519 
L 69.357048 196.670456 
L 69.449531 196.670456 
L 70.281676 196.670456 
L 70.281676 191.958393 
L 70.374158 191.958393 
L 70.651518 191.958393 
L 70.651518 187.24633 
L 70.744 187.24633 
L 71.02138 187.24633 
L 71.02138 182.534267 
L 71.113848 182.534267 
L 73.795204 182.534267 
L 73.795204 187.24633 
L 73.887655 187.24633 
L 86.924609 187.24633 
L 86.924609 182.534267 
L 87.017024 182.534267 
L 88.034104 182.534267 
L 88.034104 173.110142 
L 88.126556 173.110142 
L 91.362684 173.110142 
L 91.362684 168.398079 
L 91.455173 168.398079 
L 92.102387 168.398079 
L 92.102387 149.549827 
L 92.19485 149.549827 
L 92.287309 149.549827 
L 92.287309 144.837764 
L 92.379775 144.837764 
L 92.472228 144.837764 
L 92.472228 140.125701 
L 92.564686 140.125701 
L 149.243003 140.125701 
L 149.243003 144.837764 
L 149.33551 144.837764 
L 149.427953 144.837764 
L 149.427953 140.125701 
L 149.520435 140.125701 
L 261.120322 140.125701 
L 261.120322 135.413638 
L 261.212826 135.413638 
L 270.366425 135.413638 
L 270.366425 130.701575 
L 270.45891 130.701575 
L 284.050574 130.701575 
L 284.050574 125.989512 
L 284.143068 125.989512 
L 286.639497 125.989512 
L 286.639497 121.277449 
L 286.731955 121.277449 
L 287.379174 121.277449 
L 287.379174 116.565386 
L 287.471619 116.565386 
L 303.005 116.565386 
L 303.005 116.565386 
" style="fill:none;stroke:#666666;stroke-dasharray:4.5,1.5;stroke-dashoffset:0;stroke-width:1.5;"/>
   </g>
   <g id="line2d_36"/>
   <g id="line2d_37"/>
   <g id="line2d_38"/>
   <g id="line2d_39"/>
   <g id="line2d_40"/>
   <g id="line2d_41"/>
   <g id="line2d_42"/>
   <g id="line2d_43"/>
   <g id="line2d_44"/>
   <g id="line2d_45"/>
   <g id="line2d_46"/>
   <g id="line2d_47"/>
   <g id="line2d_48"/>
   <g id="line2d_49"/>
   <g id="line2d_50"/>
   <g id="line2d_51"/>
   <g id="line2d_52"/>
   <g id="patch_3">
    <path d="M 43.55 220.230771 
L 43.55 12.9 
" style="fill:none;stroke:#000000;stroke-linecap:square;stroke-linejoin:miter;stroke-width:0.8;"/>
   </g>
   <g id="patch_4">
    <path d="M 315.36 220.230771 
L 315.36 12.9 
" style="fill:none;stroke:#000000;stroke-linecap:square;stroke-linejoin:miter;stroke-width:0.8;"/>
   </g>
   <g id="patch_5">
    <path d="M 43.55 220.230771 
L 315.36 220.230771 
" style="fill:none;stroke:#000000;stroke-linecap:square;stroke-linejoin:miter;stroke-width:0.8;"/>
   </g>
   <g id="patch_6">
    <path d="M 43.55 12.9 
L 315.36 12.9 
" style="fill:none;stroke:#000000;stroke-linecap:square;stroke-linejoin:miter;stroke-width:0.8;"/>
   </g>
  </g>
  <g id="legend_1">
   <g id="patch_7">
    <path d="M 331.8625 262.528125 
L 420 262.528125 
Q 422 262.528125 422 260.528125 
L 422 12 
Q 422 10 420 10 
L 331.8625 10 
Q 329.8625 10 329.8625 12 
L 329.8625 260.528125 
Q 329.8625 262.528125 331.8625 262.528125 
z
" style="fill:#ffffff;opacity:0.8;stroke:#cccccc;stroke-linejoin:miter;"/>
   </g>
   <g id="text_22">
    <!-- 494/610 Reg. -->
    <defs>
     <path d="M 25.390625 72.90625 
L 33.6875 72.90625 
L 8.296875 -9.28125 
L 0 -9.28125 
z
" id="DejaVuSans-47"/>
     <path d="M 33.015625 40.375 
Q 26.375 40.375 22.484375 35.828125 
Q 18.609375 31.296875 18.609375 23.390625 
Q 18.609375 15.53125 22.484375 10.953125 
Q 26.375 6.390625 33.015625 6.390625 
Q 39.65625 6.390625 43.53125 10.953125 
Q 47.40625 15.53125 47.40625 23.390625 
Q 47.40625 31.296875 43.53125 35.828125 
Q 39.65625 40.375 33.015625 40.375 
z
M 52.59375 71.296875 
L 52.59375 62.3125 
Q 48.875 64.0625 45.09375 64.984375 
Q 41.3125 65.921875 37.59375 65.921875 
Q 27.828125 65.921875 22.671875 59.328125 
Q 17.53125 52.734375 16.796875 39.40625 
Q 19.671875 43.65625 24.015625 45.921875 
Q 28.375 48.1875 33.59375 48.1875 
Q 44.578125 48.1875 50.953125 41.515625 
Q 57.328125 34.859375 57.328125 23.390625 
Q 57.328125 12.15625 50.6875 5.359375 
Q 44.046875 -1.421875 33.015625 -1.421875 
Q 20.359375 -1.421875 13.671875 8.265625 
Q 6.984375 17.96875 6.984375 36.375 
Q 6.984375 53.65625 15.1875 63.9375 
Q 23.390625 74.21875 37.203125 74.21875 
Q 40.921875 74.21875 44.703125 73.484375 
Q 48.484375 72.75 52.59375 71.296875 
z
" id="DejaVuSans-54"/>
     <path d="M 10.6875 12.40625 
L 21 12.40625 
L 21 0 
L 10.6875 0 
z
" id="DejaVuSans-46"/>
    </defs>
    <g transform="translate(342.259375 21.598437)scale(0.1 -0.1)">
     <use xlink:href="#DejaVuSans-52"/>
     <use x="63.623047" xlink:href="#DejaVuSans-57"/>
     <use x="127.246094" xlink:href="#DejaVuSans-52"/>
     <use x="190.869141" xlink:href="#DejaVuSans-47"/>
     <use x="224.560547" xlink:href="#DejaVuSans-54"/>
     <use x="288.183594" xlink:href="#DejaVuSans-49"/>
     <use x="351.806641" xlink:href="#DejaVuSans-48"/>
     <use x="415.429688" xlink:href="#DejaVuSans-32"/>
     <use x="447.216797" xlink:href="#DejaVuSans-82"/>
     <use x="516.636719" xlink:href="#DejaVuSans-101"/>
     <use x="578.160156" xlink:href="#DejaVuSans-103"/>
     <use x="641.636719" xlink:href="#DejaVuSans-46"/>
    </g>
   </g>
   <g id="line2d_53">
    <path d="M 333.8625 32.776562 
L 353.8625 32.776562 
" style="fill:none;stroke:#1b9e77;stroke-linecap:square;stroke-width:1.5;"/>
   </g>
   <g id="line2d_54"/>
   <g id="text_23">
    <!-- AS (40) -->
    <defs>
     <path d="M 34.1875 63.1875 
L 20.796875 26.90625 
L 47.609375 26.90625 
z
M 28.609375 72.90625 
L 39.796875 72.90625 
L 67.578125 0 
L 57.328125 0 
L 50.6875 18.703125 
L 17.828125 18.703125 
L 11.1875 0 
L 0.78125 0 
z
" id="DejaVuSans-65"/>
     <path d="M 31 75.875 
Q 24.46875 64.65625 21.28125 53.65625 
Q 18.109375 42.671875 18.109375 31.390625 
Q 18.109375 20.125 21.3125 9.0625 
Q 24.515625 -2 31 -13.1875 
L 23.1875 -13.1875 
Q 15.875 -1.703125 12.234375 9.375 
Q 8.59375 20.453125 8.59375 31.390625 
Q 8.59375 42.28125 12.203125 53.3125 
Q 15.828125 64.359375 23.1875 75.875 
z
" id="DejaVuSans-40"/>
     <path d="M 8.015625 75.875 
L 15.828125 75.875 
Q 23.140625 64.359375 26.78125 53.3125 
Q 30.421875 42.28125 30.421875 31.390625 
Q 30.421875 20.453125 26.78125 9.375 
Q 23.140625 -1.703125 15.828125 -13.1875 
L 8.015625 -13.1875 
Q 14.5 -2 17.703125 9.0625 
Q 20.90625 20.125 20.90625 31.390625 
Q 20.90625 42.671875 17.703125 53.65625 
Q 14.5 64.65625 8.015625 75.875 
z
" id="DejaVuSans-41"/>
    </defs>
    <g transform="translate(361.8625 36.276562)scale(0.1 -0.1)">
     <use xlink:href="#DejaVuSans-65"/>
     <use x="68.408203" xlink:href="#DejaVuSans-83"/>
     <use x="131.884766" xlink:href="#DejaVuSans-32"/>
     <use x="163.671875" xlink:href="#DejaVuSans-40"/>
     <use x="202.685547" xlink:href="#DejaVuSans-52"/>
     <use x="266.308594" xlink:href="#DejaVuSans-48"/>
     <use x="329.931641" xlink:href="#DejaVuSans-41"/>
    </g>
   </g>
   <g id="line2d_55">
    <path d="M 333.8625 47.454688 
L 353.8625 47.454688 
" style="fill:none;stroke:#d95f02;stroke-linecap:square;stroke-width:1.5;"/>
   </g>
   <g id="line2d_56"/>
   <g id="text_24">
    <!-- AUS (40) -->
    <defs>
     <path d="M 8.6875 72.90625 
L 18.609375 72.90625 
L 18.609375 28.609375 
Q 18.609375 16.890625 22.84375 11.734375 
Q 27.09375 6.59375 36.625 6.59375 
Q 46.09375 6.59375 50.34375 11.734375 
Q 54.59375 16.890625 54.59375 28.609375 
L 54.59375 72.90625 
L 64.5 72.90625 
L 64.5 27.390625 
Q 64.5 13.140625 57.4375 5.859375 
Q 50.390625 -1.421875 36.625 -1.421875 
Q 22.796875 -1.421875 15.734375 5.859375 
Q 8.6875 13.140625 8.6875 27.390625 
z
" id="DejaVuSans-85"/>
    </defs>
    <g transform="translate(361.8625 50.954688)scale(0.1 -0.1)">
     <use xlink:href="#DejaVuSans-65"/>
     <use x="68.408203" xlink:href="#DejaVuSans-85"/>
     <use x="141.601562" xlink:href="#DejaVuSans-83"/>
     <use x="205.078125" xlink:href="#DejaVuSans-32"/>
     <use x="236.865234" xlink:href="#DejaVuSans-40"/>
     <use x="275.878906" xlink:href="#DejaVuSans-52"/>
     <use x="339.501953" xlink:href="#DejaVuSans-48"/>
     <use x="403.125" xlink:href="#DejaVuSans-41"/>
    </g>
   </g>
   <g id="line2d_57">
    <path d="M 333.8625 62.132812 
L 353.8625 62.132812 
" style="fill:none;stroke:#7570b3;stroke-linecap:square;stroke-width:1.5;"/>
   </g>
   <g id="line2d_58"/>
   <g id="text_25">
    <!-- COML (40) -->
    <defs>
     <path d="M 64.40625 67.28125 
L 64.40625 56.890625 
Q 59.421875 61.53125 53.78125 63.8125 
Q 48.140625 66.109375 41.796875 66.109375 
Q 29.296875 66.109375 22.65625 58.46875 
Q 16.015625 50.828125 16.015625 36.375 
Q 16.015625 21.96875 22.65625 14.328125 
Q 29.296875 6.6875 41.796875 6.6875 
Q 48.140625 6.6875 53.78125 8.984375 
Q 59.421875 11.28125 64.40625 15.921875 
L 64.40625 5.609375 
Q 59.234375 2.09375 53.4375 0.328125 
Q 47.65625 -1.421875 41.21875 -1.421875 
Q 24.65625 -1.421875 15.125 8.703125 
Q 5.609375 18.84375 5.609375 36.375 
Q 5.609375 53.953125 15.125 64.078125 
Q 24.65625 74.21875 41.21875 74.21875 
Q 47.75 74.21875 53.53125 72.484375 
Q 59.328125 70.75 64.40625 67.28125 
z
" id="DejaVuSans-67"/>
     <path d="M 39.40625 66.21875 
Q 28.65625 66.21875 22.328125 58.203125 
Q 16.015625 50.203125 16.015625 36.375 
Q 16.015625 22.609375 22.328125 14.59375 
Q 28.65625 6.59375 39.40625 6.59375 
Q 50.140625 6.59375 56.421875 14.59375 
Q 62.703125 22.609375 62.703125 36.375 
Q 62.703125 50.203125 56.421875 58.203125 
Q 50.140625 66.21875 39.40625 66.21875 
z
M 39.40625 74.21875 
Q 54.734375 74.21875 63.90625 63.9375 
Q 73.09375 53.65625 73.09375 36.375 
Q 73.09375 19.140625 63.90625 8.859375 
Q 54.734375 -1.421875 39.40625 -1.421875 
Q 24.03125 -1.421875 14.8125 8.828125 
Q 5.609375 19.09375 5.609375 36.375 
Q 5.609375 53.65625 14.8125 63.9375 
Q 24.03125 74.21875 39.40625 74.21875 
z
" id="DejaVuSans-79"/>
     <path d="M 9.8125 72.90625 
L 24.515625 72.90625 
L 43.109375 23.296875 
L 61.8125 72.90625 
L 76.515625 72.90625 
L 76.515625 0 
L 66.890625 0 
L 66.890625 64.015625 
L 48.09375 14.015625 
L 38.1875 14.015625 
L 19.390625 64.015625 
L 19.390625 0 
L 9.8125 0 
z
" id="DejaVuSans-77"/>
     <path d="M 9.8125 72.90625 
L 19.671875 72.90625 
L 19.671875 8.296875 
L 55.171875 8.296875 
L 55.171875 0 
L 9.8125 0 
z
" id="DejaVuSans-76"/>
    </defs>
    <g transform="translate(361.8625 65.632812)scale(0.1 -0.1)">
     <use xlink:href="#DejaVuSans-67"/>
     <use x="69.824219" xlink:href="#DejaVuSans-79"/>
     <use x="148.535156" xlink:href="#DejaVuSans-77"/>
     <use x="234.814453" xlink:href="#DejaVuSans-76"/>
     <use x="290.527344" xlink:href="#DejaVuSans-32"/>
     <use x="322.314453" xlink:href="#DejaVuSans-40"/>
     <use x="361.328125" xlink:href="#DejaVuSans-52"/>
     <use x="424.951172" xlink:href="#DejaVuSans-48"/>
     <use x="488.574219" xlink:href="#DejaVuSans-41"/>
    </g>
   </g>
   <g id="line2d_59">
    <path d="M 333.8625 76.810937 
L 353.8625 76.810937 
" style="fill:none;stroke:#e7298a;stroke-linecap:square;stroke-width:1.5;"/>
   </g>
   <g id="line2d_60"/>
   <g id="text_26">
    <!-- GDD (40) -->
    <defs>
     <path d="M 59.515625 10.40625 
L 59.515625 29.984375 
L 43.40625 29.984375 
L 43.40625 38.09375 
L 69.28125 38.09375 
L 69.28125 6.78125 
Q 63.578125 2.734375 56.6875 0.65625 
Q 49.8125 -1.421875 42 -1.421875 
Q 24.90625 -1.421875 15.25 8.5625 
Q 5.609375 18.5625 5.609375 36.375 
Q 5.609375 54.25 15.25 64.234375 
Q 24.90625 74.21875 42 74.21875 
Q 49.125 74.21875 55.546875 72.453125 
Q 61.96875 70.703125 67.390625 67.28125 
L 67.390625 56.78125 
Q 61.921875 61.421875 55.765625 63.765625 
Q 49.609375 66.109375 42.828125 66.109375 
Q 29.4375 66.109375 22.71875 58.640625 
Q 16.015625 51.171875 16.015625 36.375 
Q 16.015625 21.625 22.71875 14.15625 
Q 29.4375 6.6875 42.828125 6.6875 
Q 48.046875 6.6875 52.140625 7.59375 
Q 56.25 8.5 59.515625 10.40625 
z
" id="DejaVuSans-71"/>
    </defs>
    <g transform="translate(361.8625 80.310937)scale(0.1 -0.1)">
     <use xlink:href="#DejaVuSans-71"/>
     <use x="77.490234" xlink:href="#DejaVuSans-68"/>
     <use x="154.492188" xlink:href="#DejaVuSans-68"/>
     <use x="231.494141" xlink:href="#DejaVuSans-32"/>
     <use x="263.28125" xlink:href="#DejaVuSans-40"/>
     <use x="302.294922" xlink:href="#DejaVuSans-52"/>
     <use x="365.917969" xlink:href="#DejaVuSans-48"/>
     <use x="429.541016" xlink:href="#DejaVuSans-41"/>
    </g>
   </g>
   <g id="line2d_61">
    <path d="M 333.8625 91.489062 
L 353.8625 91.489062 
" style="fill:none;stroke:#66a61e;stroke-linecap:square;stroke-width:1.5;"/>
   </g>
   <g id="line2d_62"/>
   <g id="text_27">
    <!-- SA (39) -->
    <g transform="translate(361.8625 94.989062)scale(0.1 -0.1)">
     <use xlink:href="#DejaVuSans-83"/>
     <use x="63.492188" xlink:href="#DejaVuSans-65"/>
     <use x="131.900391" xlink:href="#DejaVuSans-32"/>
     <use x="163.6875" xlink:href="#DejaVuSans-40"/>
     <use x="202.701172" xlink:href="#DejaVuSans-51"/>
     <use x="266.324219" xlink:href="#DejaVuSans-57"/>
     <use x="329.947266" xlink:href="#DejaVuSans-41"/>
    </g>
   </g>
   <g id="line2d_63">
    <path d="M 333.8625 106.167188 
L 353.8625 106.167188 
" style="fill:none;stroke:#e6ab02;stroke-linecap:square;stroke-width:1.5;"/>
   </g>
   <g id="line2d_64"/>
   <g id="text_28">
    <!-- MD (38) -->
    <g transform="translate(361.8625 109.667188)scale(0.1 -0.1)">
     <use xlink:href="#DejaVuSans-77"/>
     <use x="86.279297" xlink:href="#DejaVuSans-68"/>
     <use x="163.28125" xlink:href="#DejaVuSans-32"/>
     <use x="195.068359" xlink:href="#DejaVuSans-40"/>
     <use x="234.082031" xlink:href="#DejaVuSans-51"/>
     <use x="297.705078" xlink:href="#DejaVuSans-56"/>
     <use x="361.328125" xlink:href="#DejaVuSans-41"/>
    </g>
   </g>
   <g id="line2d_65">
    <path d="M 333.8625 120.845312 
L 353.8625 120.845312 
" style="fill:none;stroke:#a6761d;stroke-linecap:square;stroke-width:1.5;"/>
   </g>
   <g id="line2d_66"/>
   <g id="text_29">
    <!-- HPI (38) -->
    <defs>
     <path d="M 9.8125 72.90625 
L 19.671875 72.90625 
L 19.671875 43.015625 
L 55.515625 43.015625 
L 55.515625 72.90625 
L 65.375 72.90625 
L 65.375 0 
L 55.515625 0 
L 55.515625 34.71875 
L 19.671875 34.71875 
L 19.671875 0 
L 9.8125 0 
z
" id="DejaVuSans-72"/>
     <path d="M 19.671875 64.796875 
L 19.671875 37.40625 
L 32.078125 37.40625 
Q 38.96875 37.40625 42.71875 40.96875 
Q 46.484375 44.53125 46.484375 51.125 
Q 46.484375 57.671875 42.71875 61.234375 
Q 38.96875 64.796875 32.078125 64.796875 
z
M 9.8125 72.90625 
L 32.078125 72.90625 
Q 44.34375 72.90625 50.609375 67.359375 
Q 56.890625 61.8125 56.890625 51.125 
Q 56.890625 40.328125 50.609375 34.8125 
Q 44.34375 29.296875 32.078125 29.296875 
L 19.671875 29.296875 
L 19.671875 0 
L 9.8125 0 
z
" id="DejaVuSans-80"/>
     <path d="M 9.8125 72.90625 
L 19.671875 72.90625 
L 19.671875 0 
L 9.8125 0 
z
" id="DejaVuSans-73"/>
    </defs>
    <g transform="translate(361.8625 124.345312)scale(0.1 -0.1)">
     <use xlink:href="#DejaVuSans-72"/>
     <use x="75.195312" xlink:href="#DejaVuSans-80"/>
     <use x="135.498047" xlink:href="#DejaVuSans-73"/>
     <use x="164.990234" xlink:href="#DejaVuSans-32"/>
     <use x="196.777344" xlink:href="#DejaVuSans-40"/>
     <use x="235.791016" xlink:href="#DejaVuSans-51"/>
     <use x="299.414062" xlink:href="#DejaVuSans-56"/>
     <use x="363.037109" xlink:href="#DejaVuSans-41"/>
    </g>
   </g>
   <g id="line2d_67">
    <path d="M 333.8625 135.523438 
L 353.8625 135.523438 
" style="fill:none;stroke:#666666;stroke-linecap:square;stroke-width:1.5;"/>
   </g>
   <g id="line2d_68"/>
   <g id="text_30">
    <!-- FIT (29) -->
    <defs>
     <path d="M 9.8125 72.90625 
L 51.703125 72.90625 
L 51.703125 64.59375 
L 19.671875 64.59375 
L 19.671875 43.109375 
L 48.578125 43.109375 
L 48.578125 34.8125 
L 19.671875 34.8125 
L 19.671875 0 
L 9.8125 0 
z
" id="DejaVuSans-70"/>
     <path d="M -0.296875 72.90625 
L 61.375 72.90625 
L 61.375 64.59375 
L 35.5 64.59375 
L 35.5 0 
L 25.59375 0 
L 25.59375 64.59375 
L -0.296875 64.59375 
z
" id="DejaVuSans-84"/>
    </defs>
    <g transform="translate(361.8625 139.023438)scale(0.1 -0.1)">
     <use xlink:href="#DejaVuSans-70"/>
     <use x="57.519531" xlink:href="#DejaVuSans-73"/>
     <use x="87.011719" xlink:href="#DejaVuSans-84"/>
     <use x="148.095703" xlink:href="#DejaVuSans-32"/>
     <use x="179.882812" xlink:href="#DejaVuSans-40"/>
     <use x="218.896484" xlink:href="#DejaVuSans-50"/>
     <use x="282.519531" xlink:href="#DejaVuSans-57"/>
     <use x="346.142578" xlink:href="#DejaVuSans-41"/>
    </g>
   </g>
   <g id="line2d_69">
    <path d="M 333.8625 150.201562 
L 353.8625 150.201562 
" style="fill:none;stroke:#1b9e77;stroke-dasharray:4.5,1.5;stroke-dashoffset:0;stroke-width:1.5;"/>
   </g>
   <g id="line2d_70"/>
   <g id="text_31">
    <!-- TBI (26) -->
    <defs>
     <path d="M 19.671875 34.8125 
L 19.671875 8.109375 
L 35.5 8.109375 
Q 43.453125 8.109375 47.28125 11.40625 
Q 51.125 14.703125 51.125 21.484375 
Q 51.125 28.328125 47.28125 31.5625 
Q 43.453125 34.8125 35.5 34.8125 
z
M 19.671875 64.796875 
L 19.671875 42.828125 
L 34.28125 42.828125 
Q 41.5 42.828125 45.03125 45.53125 
Q 48.578125 48.25 48.578125 53.8125 
Q 48.578125 59.328125 45.03125 62.0625 
Q 41.5 64.796875 34.28125 64.796875 
z
M 9.8125 72.90625 
L 35.015625 72.90625 
Q 46.296875 72.90625 52.390625 68.21875 
Q 58.5 63.53125 58.5 54.890625 
Q 58.5 48.1875 55.375 44.234375 
Q 52.25 40.28125 46.1875 39.3125 
Q 53.46875 37.75 57.5 32.78125 
Q 61.53125 27.828125 61.53125 20.40625 
Q 61.53125 10.640625 54.890625 5.3125 
Q 48.25 0 35.984375 0 
L 9.8125 0 
z
" id="DejaVuSans-66"/>
    </defs>
    <g transform="translate(361.8625 153.701562)scale(0.1 -0.1)">
     <use xlink:href="#DejaVuSans-84"/>
     <use x="61.083984" xlink:href="#DejaVuSans-66"/>
     <use x="129.6875" xlink:href="#DejaVuSans-73"/>
     <use x="159.179688" xlink:href="#DejaVuSans-32"/>
     <use x="190.966797" xlink:href="#DejaVuSans-40"/>
     <use x="229.980469" xlink:href="#DejaVuSans-50"/>
     <use x="293.603516" xlink:href="#DejaVuSans-54"/>
     <use x="357.226562" xlink:href="#DejaVuSans-41"/>
    </g>
   </g>
   <g id="line2d_71">
    <path d="M 333.8625 164.879687 
L 353.8625 164.879687 
" style="fill:none;stroke:#d95f02;stroke-dasharray:4.5,1.5;stroke-dashoffset:0;stroke-width:1.5;"/>
   </g>
   <g id="line2d_72"/>
   <g id="text_32">
    <!-- SPD (26) -->
    <g transform="translate(361.8625 168.379687)scale(0.1 -0.1)">
     <use xlink:href="#DejaVuSans-83"/>
     <use x="63.476562" xlink:href="#DejaVuSans-80"/>
     <use x="123.779297" xlink:href="#DejaVuSans-68"/>
     <use x="200.78125" xlink:href="#DejaVuSans-32"/>
     <use x="232.568359" xlink:href="#DejaVuSans-40"/>
     <use x="271.582031" xlink:href="#DejaVuSans-50"/>
     <use x="335.205078" xlink:href="#DejaVuSans-54"/>
     <use x="398.828125" xlink:href="#DejaVuSans-41"/>
    </g>
   </g>
   <g id="line2d_73">
    <path d="M 333.8625 179.557812 
L 353.8625 179.557812 
" style="fill:none;stroke:#7570b3;stroke-dasharray:4.5,1.5;stroke-dashoffset:0;stroke-width:1.5;"/>
   </g>
   <g id="line2d_74"/>
   <g id="text_33">
    <!-- CB (25) -->
    <g transform="translate(361.8625 183.057812)scale(0.1 -0.1)">
     <use xlink:href="#DejaVuSans-67"/>
     <use x="69.824219" xlink:href="#DejaVuSans-66"/>
     <use x="138.427734" xlink:href="#DejaVuSans-32"/>
     <use x="170.214844" xlink:href="#DejaVuSans-40"/>
     <use x="209.228516" xlink:href="#DejaVuSans-50"/>
     <use x="272.851562" xlink:href="#DejaVuSans-53"/>
     <use x="336.474609" xlink:href="#DejaVuSans-41"/>
    </g>
   </g>
   <g id="line2d_75">
    <path d="M 333.8625 194.235937 
L 353.8625 194.235937 
" style="fill:none;stroke:#e7298a;stroke-dasharray:4.5,1.5;stroke-dashoffset:0;stroke-width:1.5;"/>
   </g>
   <g id="line2d_76"/>
   <g id="text_34">
    <!-- CC (25) -->
    <g transform="translate(361.8625 197.735937)scale(0.1 -0.1)">
     <use xlink:href="#DejaVuSans-67"/>
     <use x="69.824219" xlink:href="#DejaVuSans-67"/>
     <use x="139.648438" xlink:href="#DejaVuSans-32"/>
     <use x="171.435547" xlink:href="#DejaVuSans-40"/>
     <use x="210.449219" xlink:href="#DejaVuSans-50"/>
     <use x="274.072266" xlink:href="#DejaVuSans-53"/>
     <use x="337.695312" xlink:href="#DejaVuSans-41"/>
    </g>
   </g>
   <g id="line2d_77">
    <path d="M 333.8625 208.914062 
L 353.8625 208.914062 
" style="fill:none;stroke:#66a61e;stroke-dasharray:4.5,1.5;stroke-dashoffset:0;stroke-width:1.5;"/>
   </g>
   <g id="line2d_78"/>
   <g id="text_35">
    <!-- RJPH (24) -->
    <defs>
     <path d="M 9.8125 72.90625 
L 19.671875 72.90625 
L 19.671875 5.078125 
Q 19.671875 -8.109375 14.671875 -14.0625 
Q 9.671875 -20.015625 -1.421875 -20.015625 
L -5.171875 -20.015625 
L -5.171875 -11.71875 
L -2.09375 -11.71875 
Q 4.4375 -11.71875 7.125 -8.046875 
Q 9.8125 -4.390625 9.8125 5.078125 
z
" id="DejaVuSans-74"/>
    </defs>
    <g transform="translate(361.8625 212.414062)scale(0.1 -0.1)">
     <use xlink:href="#DejaVuSans-82"/>
     <use x="69.482422" xlink:href="#DejaVuSans-74"/>
     <use x="98.974609" xlink:href="#DejaVuSans-80"/>
     <use x="159.277344" xlink:href="#DejaVuSans-72"/>
     <use x="234.472656" xlink:href="#DejaVuSans-32"/>
     <use x="266.259766" xlink:href="#DejaVuSans-40"/>
     <use x="305.273438" xlink:href="#DejaVuSans-50"/>
     <use x="368.896484" xlink:href="#DejaVuSans-52"/>
     <use x="432.519531" xlink:href="#DejaVuSans-41"/>
    </g>
   </g>
   <g id="line2d_79">
    <path d="M 333.8625 223.592187 
L 353.8625 223.592187 
" style="fill:none;stroke:#e6ab02;stroke-dasharray:4.5,1.5;stroke-dashoffset:0;stroke-width:1.5;"/>
   </g>
   <g id="line2d_80"/>
   <g id="text_36">
    <!-- BP (24) -->
    <g transform="translate(361.8625 227.092187)scale(0.1 -0.1)">
     <use xlink:href="#DejaVuSans-66"/>
     <use x="68.603516" xlink:href="#DejaVuSans-80"/>
     <use x="128.90625" xlink:href="#DejaVuSans-32"/>
     <use x="160.693359" xlink:href="#DejaVuSans-40"/>
     <use x="199.707031" xlink:href="#DejaVuSans-50"/>
     <use x="263.330078" xlink:href="#DejaVuSans-52"/>
     <use x="326.953125" xlink:href="#DejaVuSans-41"/>
    </g>
   </g>
   <g id="line2d_81">
    <path d="M 333.8625 238.270312 
L 353.8625 238.270312 
" style="fill:none;stroke:#a6761d;stroke-dasharray:4.5,1.5;stroke-dashoffset:0;stroke-width:1.5;"/>
   </g>
   <g id="line2d_82"/>
   <g id="text_37">
    <!-- AHR-H (20) -->
    <g transform="translate(361.8625 241.770312)scale(0.1 -0.1)">
     <use xlink:href="#DejaVuSans-65"/>
     <use x="68.408203" xlink:href="#DejaVuSans-72"/>
     <use x="143.603516" xlink:href="#DejaVuSans-82"/>
     <use x="213.023438" xlink:href="#DejaVuSans-45"/>
     <use x="249.107422" xlink:href="#DejaVuSans-72"/>
     <use x="324.302734" xlink:href="#DejaVuSans-32"/>
     <use x="356.089844" xlink:href="#DejaVuSans-40"/>
     <use x="395.103516" xlink:href="#DejaVuSans-50"/>
     <use x="458.726562" xlink:href="#DejaVuSans-48"/>
     <use x="522.349609" xlink:href="#DejaVuSans-41"/>
    </g>
   </g>
   <g id="line2d_83">
    <path d="M 333.8625 252.948437 
L 353.8625 252.948437 
" style="fill:none;stroke:#666666;stroke-dasharray:4.5,1.5;stroke-dashoffset:0;stroke-width:1.5;"/>
   </g>
   <g id="line2d_84"/>
   <g id="text_38">
    <!-- AHR-A (20) -->
    <g transform="translate(361.8625 256.448437)scale(0.1 -0.1)">
     <use xlink:href="#DejaVuSans-65"/>
     <use x="68.408203" xlink:href="#DejaVuSans-72"/>
     <use x="143.603516" xlink:href="#DejaVuSans-82"/>
     <use x="213.023438" xlink:href="#DejaVuSans-45"/>
     <use x="249.076172" xlink:href="#DejaVuSans-65"/>
     <use x="317.484375" xlink:href="#DejaVuSans-32"/>
     <use x="349.271484" xlink:href="#DejaVuSans-40"/>
     <use x="388.285156" xlink:href="#DejaVuSans-50"/>
     <use x="451.908203" xlink:href="#DejaVuSans-48"/>
     <use x="515.53125" xlink:href="#DejaVuSans-41"/>
    </g>
   </g>
  </g>
 </g>
 <defs>
  <clipPath id="p8a5c003569">
   <rect height="207.330771" width="271.81" x="43.55" y="12.9"/>
  </clipPath>
 </defs>
</svg>
