<?xml version="1.0" encoding="utf-8" standalone="no"?>
<!DOCTYPE svg PUBLIC "-//W3C//DTD SVG 1.1//EN"
  "http://www.w3.org/Graphics/SVG/1.1/DTD/svg11.dtd">
<!-- Created with matplotlib (https://matplotlib.org/) -->
<svg height="288pt" version="1.1" viewBox="0 0 432 288" width="432pt" xmlns="http://www.w3.org/2000/svg" xmlns:xlink="http://www.w3.org/1999/xlink">
 <defs>
  <style type="text/css">
*{stroke-linecap:butt;stroke-linejoin:round;}
  </style>
 </defs>
 <g id="figure_1">
  <g id="patch_1">
   <path d="M 0 288 
L 432 288 
L 432 0 
L 0 0 
z
" style="fill:#ffffff;"/>
  </g>
  <g id="axes_1">
   <g id="patch_2">
    <path d="M 43.55 220.230771 
L 315.36 220.230771 
L 315.36 12.9 
L 43.55 12.9 
z
" style="fill:#ffffff;"/>
   </g>
   <g id="matplotlib.axis_1">
    <g id="xtick_1">
     <g id="line2d_1">
      <defs>
       <path d="M 0 0 
L 0 3.5 
" id="mae0b3feaef" style="stroke:#000000;stroke-width:0.8;"/>
      </defs>
      <g>
       <use style="stroke:#000000;stroke-width:0.8;" x="48.608049" xlink:href="#mae0b3feaef" y="220.230771"/>
      </g>
     </g>
     <g id="text_1">
      <!-- 2020-11-29 -->
      <defs>
       <path d="M 19.1875 8.296875 
L 53.609375 8.296875 
L 53.609375 0 
L 7.328125 0 
L 7.328125 8.296875 
Q 12.9375 14.109375 22.625 23.890625 
Q 32.328125 33.6875 34.8125 36.53125 
Q 39.546875 41.84375 41.421875 45.53125 
Q 43.3125 49.21875 43.3125 52.78125 
Q 43.3125 58.59375 39.234375 62.25 
Q 35.15625 65.921875 28.609375 65.921875 
Q 23.96875 65.921875 18.8125 64.3125 
Q 13.671875 62.703125 7.8125 59.421875 
L 7.8125 69.390625 
Q 13.765625 71.78125 18.9375 73 
Q 24.125 74.21875 28.421875 74.21875 
Q 39.75 74.21875 46.484375 68.546875 
Q 53.21875 62.890625 53.21875 53.421875 
Q 53.21875 48.921875 51.53125 44.890625 
Q 49.859375 40.875 45.40625 35.40625 
Q 44.1875 33.984375 37.640625 27.21875 
Q 31.109375 20.453125 19.1875 8.296875 
z
" id="DejaVuSans-50"/>
       <path d="M 31.78125 66.40625 
Q 24.171875 66.40625 20.328125 58.90625 
Q 16.5 51.421875 16.5 36.375 
Q 16.5 21.390625 20.328125 13.890625 
Q 24.171875 6.390625 31.78125 6.390625 
Q 39.453125 6.390625 43.28125 13.890625 
Q 47.125 21.390625 47.125 36.375 
Q 47.125 51.421875 43.28125 58.90625 
Q 39.453125 66.40625 31.78125 66.40625 
z
M 31.78125 74.21875 
Q 44.046875 74.21875 50.515625 64.515625 
Q 56.984375 54.828125 56.984375 36.375 
Q 56.984375 17.96875 50.515625 8.265625 
Q 44.046875 -1.421875 31.78125 -1.421875 
Q 19.53125 -1.421875 13.0625 8.265625 
Q 6.59375 17.96875 6.59375 36.375 
Q 6.59375 54.828125 13.0625 64.515625 
Q 19.53125 74.21875 31.78125 74.21875 
z
" id="DejaVuSans-48"/>
       <path d="M 4.890625 31.390625 
L 31.203125 31.390625 
L 31.203125 23.390625 
L 4.890625 23.390625 
z
" id="DejaVuSans-45"/>
       <path d="M 12.40625 8.296875 
L 28.515625 8.296875 
L 28.515625 63.921875 
L 10.984375 60.40625 
L 10.984375 69.390625 
L 28.421875 72.90625 
L 38.28125 72.90625 
L 38.28125 8.296875 
L 54.390625 8.296875 
L 54.390625 0 
L 12.40625 0 
z
" id="DejaVuSans-49"/>
       <path d="M 10.984375 1.515625 
L 10.984375 10.5 
Q 14.703125 8.734375 18.5 7.8125 
Q 22.3125 6.890625 25.984375 6.890625 
Q 35.75 6.890625 40.890625 13.453125 
Q 46.046875 20.015625 46.78125 33.40625 
Q 43.953125 29.203125 39.59375 26.953125 
Q 35.25 24.703125 29.984375 24.703125 
Q 19.046875 24.703125 12.671875 31.3125 
Q 6.296875 37.9375 6.296875 49.421875 
Q 6.296875 60.640625 12.9375 67.421875 
Q 19.578125 74.21875 30.609375 74.21875 
Q 43.265625 74.21875 49.921875 64.515625 
Q 56.59375 54.828125 56.59375 36.375 
Q 56.59375 19.140625 48.40625 8.859375 
Q 40.234375 -1.421875 26.421875 -1.421875 
Q 22.703125 -1.421875 18.890625 -0.6875 
Q 15.09375 0.046875 10.984375 1.515625 
z
M 30.609375 32.421875 
Q 37.25 32.421875 41.125 36.953125 
Q 45.015625 41.5 45.015625 49.421875 
Q 45.015625 57.28125 41.125 61.84375 
Q 37.25 66.40625 30.609375 66.40625 
Q 23.96875 66.40625 20.09375 61.84375 
Q 16.21875 57.28125 16.21875 49.421875 
Q 16.21875 41.5 20.09375 36.953125 
Q 23.96875 32.421875 30.609375 32.421875 
z
" id="DejaVuSans-57"/>
      </defs>
      <g transform="translate(24.822933 262.869024)rotate(-30)scale(0.1 -0.1)">
       <use xlink:href="#DejaVuSans-50"/>
       <use x="63.623047" xlink:href="#DejaVuSans-48"/>
       <use x="127.246094" xlink:href="#DejaVuSans-50"/>
       <use x="190.869141" xlink:href="#DejaVuSans-48"/>
       <use x="254.492188" xlink:href="#DejaVuSans-45"/>
       <use x="290.576172" xlink:href="#DejaVuSans-49"/>
       <use x="354.199219" xlink:href="#DejaVuSans-49"/>
       <use x="417.822266" xlink:href="#DejaVuSans-45"/>
       <use x="453.90625" xlink:href="#DejaVuSans-50"/>
       <use x="517.529297" xlink:href="#DejaVuSans-57"/>
      </g>
     </g>
    </g>
    <g id="xtick_2">
     <g id="line2d_2">
      <g>
       <use style="stroke:#000000;stroke-width:0.8;" x="58.685239" xlink:href="#mae0b3feaef" y="220.230771"/>
      </g>
     </g>
     <g id="text_2">
      <!-- 2020-12-01 -->
      <g transform="translate(34.900123 262.869024)rotate(-30)scale(0.1 -0.1)">
       <use xlink:href="#DejaVuSans-50"/>
       <use x="63.623047" xlink:href="#DejaVuSans-48"/>
       <use x="127.246094" xlink:href="#DejaVuSans-50"/>
       <use x="190.869141" xlink:href="#DejaVuSans-48"/>
       <use x="254.492188" xlink:href="#DejaVuSans-45"/>
       <use x="290.576172" xlink:href="#DejaVuSans-49"/>
       <use x="354.199219" xlink:href="#DejaVuSans-50"/>
       <use x="417.822266" xlink:href="#DejaVuSans-45"/>
       <use x="453.90625" xlink:href="#DejaVuSans-48"/>
       <use x="517.529297" xlink:href="#DejaVuSans-49"/>
      </g>
     </g>
    </g>
    <g id="xtick_3">
     <g id="line2d_3">
      <g>
       <use style="stroke:#000000;stroke-width:0.8;" x="93.955403" xlink:href="#mae0b3feaef" y="220.230771"/>
      </g>
     </g>
     <g id="text_3">
      <!-- 2020-12-08 -->
      <defs>
       <path d="M 31.78125 34.625 
Q 24.75 34.625 20.71875 30.859375 
Q 16.703125 27.09375 16.703125 20.515625 
Q 16.703125 13.921875 20.71875 10.15625 
Q 24.75 6.390625 31.78125 6.390625 
Q 38.8125 6.390625 42.859375 10.171875 
Q 46.921875 13.96875 46.921875 20.515625 
Q 46.921875 27.09375 42.890625 30.859375 
Q 38.875 34.625 31.78125 34.625 
z
M 21.921875 38.8125 
Q 15.578125 40.375 12.03125 44.71875 
Q 8.5 49.078125 8.5 55.328125 
Q 8.5 64.0625 14.71875 69.140625 
Q 20.953125 74.21875 31.78125 74.21875 
Q 42.671875 74.21875 48.875 69.140625 
Q 55.078125 64.0625 55.078125 55.328125 
Q 55.078125 49.078125 51.53125 44.71875 
Q 48 40.375 41.703125 38.8125 
Q 48.828125 37.15625 52.796875 32.3125 
Q 56.78125 27.484375 56.78125 20.515625 
Q 56.78125 9.90625 50.3125 4.234375 
Q 43.84375 -1.421875 31.78125 -1.421875 
Q 19.734375 -1.421875 13.25 4.234375 
Q 6.78125 9.90625 6.78125 20.515625 
Q 6.78125 27.484375 10.78125 32.3125 
Q 14.796875 37.15625 21.921875 38.8125 
z
M 18.3125 54.390625 
Q 18.3125 48.734375 21.84375 45.5625 
Q 25.390625 42.390625 31.78125 42.390625 
Q 38.140625 42.390625 41.71875 45.5625 
Q 45.3125 48.734375 45.3125 54.390625 
Q 45.3125 60.0625 41.71875 63.234375 
Q 38.140625 66.40625 31.78125 66.40625 
Q 25.390625 66.40625 21.84375 63.234375 
Q 18.3125 60.0625 18.3125 54.390625 
z
" id="DejaVuSans-56"/>
      </defs>
      <g transform="translate(70.170287 262.869024)rotate(-30)scale(0.1 -0.1)">
       <use xlink:href="#DejaVuSans-50"/>
       <use x="63.623047" xlink:href="#DejaVuSans-48"/>
       <use x="127.246094" xlink:href="#DejaVuSans-50"/>
       <use x="190.869141" xlink:href="#DejaVuSans-48"/>
       <use x="254.492188" xlink:href="#DejaVuSans-45"/>
       <use x="290.576172" xlink:href="#DejaVuSans-49"/>
       <use x="354.199219" xlink:href="#DejaVuSans-50"/>
       <use x="417.822266" xlink:href="#DejaVuSans-45"/>
       <use x="453.90625" xlink:href="#DejaVuSans-48"/>
       <use x="517.529297" xlink:href="#DejaVuSans-56"/>
      </g>
     </g>
    </g>
    <g id="xtick_4">
     <g id="line2d_4">
      <g>
       <use style="stroke:#000000;stroke-width:0.8;" x="129.225567" xlink:href="#mae0b3feaef" y="220.230771"/>
      </g>
     </g>
     <g id="text_4">
      <!-- 2020-12-15 -->
      <defs>
       <path d="M 10.796875 72.90625 
L 49.515625 72.90625 
L 49.515625 64.59375 
L 19.828125 64.59375 
L 19.828125 46.734375 
Q 21.96875 47.46875 24.109375 47.828125 
Q 26.265625 48.1875 28.421875 48.1875 
Q 40.625 48.1875 47.75 41.5 
Q 54.890625 34.8125 54.890625 23.390625 
Q 54.890625 11.625 47.5625 5.09375 
Q 40.234375 -1.421875 26.90625 -1.421875 
Q 22.3125 -1.421875 17.546875 -0.640625 
Q 12.796875 0.140625 7.71875 1.703125 
L 7.71875 11.625 
Q 12.109375 9.234375 16.796875 8.0625 
Q 21.484375 6.890625 26.703125 6.890625 
Q 35.15625 6.890625 40.078125 11.328125 
Q 45.015625 15.765625 45.015625 23.390625 
Q 45.015625 31 40.078125 35.4375 
Q 35.15625 39.890625 26.703125 39.890625 
Q 22.75 39.890625 18.8125 39.015625 
Q 14.890625 38.140625 10.796875 36.28125 
z
" id="DejaVuSans-53"/>
      </defs>
      <g transform="translate(105.440451 262.869024)rotate(-30)scale(0.1 -0.1)">
       <use xlink:href="#DejaVuSans-50"/>
       <use x="63.623047" xlink:href="#DejaVuSans-48"/>
       <use x="127.246094" xlink:href="#DejaVuSans-50"/>
       <use x="190.869141" xlink:href="#DejaVuSans-48"/>
       <use x="254.492188" xlink:href="#DejaVuSans-45"/>
       <use x="290.576172" xlink:href="#DejaVuSans-49"/>
       <use x="354.199219" xlink:href="#DejaVuSans-50"/>
       <use x="417.822266" xlink:href="#DejaVuSans-45"/>
       <use x="453.90625" xlink:href="#DejaVuSans-49"/>
       <use x="517.529297" xlink:href="#DejaVuSans-53"/>
      </g>
     </g>
    </g>
    <g id="xtick_5">
     <g id="line2d_5">
      <g>
       <use style="stroke:#000000;stroke-width:0.8;" x="164.495732" xlink:href="#mae0b3feaef" y="220.230771"/>
      </g>
     </g>
     <g id="text_5">
      <!-- 2020-12-22 -->
      <g transform="translate(140.710615 262.869024)rotate(-30)scale(0.1 -0.1)">
       <use xlink:href="#DejaVuSans-50"/>
       <use x="63.623047" xlink:href="#DejaVuSans-48"/>
       <use x="127.246094" xlink:href="#DejaVuSans-50"/>
       <use x="190.869141" xlink:href="#DejaVuSans-48"/>
       <use x="254.492188" xlink:href="#DejaVuSans-45"/>
       <use x="290.576172" xlink:href="#DejaVuSans-49"/>
       <use x="354.199219" xlink:href="#DejaVuSans-50"/>
       <use x="417.822266" xlink:href="#DejaVuSans-45"/>
       <use x="453.90625" xlink:href="#DejaVuSans-50"/>
       <use x="517.529297" xlink:href="#DejaVuSans-50"/>
      </g>
     </g>
    </g>
    <g id="xtick_6">
     <g id="line2d_6">
      <g>
       <use style="stroke:#000000;stroke-width:0.8;" x="199.765896" xlink:href="#mae0b3feaef" y="220.230771"/>
      </g>
     </g>
     <g id="text_6">
      <!-- 2020-12-29 -->
      <g transform="translate(175.98078 262.869024)rotate(-30)scale(0.1 -0.1)">
       <use xlink:href="#DejaVuSans-50"/>
       <use x="63.623047" xlink:href="#DejaVuSans-48"/>
       <use x="127.246094" xlink:href="#DejaVuSans-50"/>
       <use x="190.869141" xlink:href="#DejaVuSans-48"/>
       <use x="254.492188" xlink:href="#DejaVuSans-45"/>
       <use x="290.576172" xlink:href="#DejaVuSans-49"/>
       <use x="354.199219" xlink:href="#DejaVuSans-50"/>
       <use x="417.822266" xlink:href="#DejaVuSans-45"/>
       <use x="453.90625" xlink:href="#DejaVuSans-50"/>
       <use x="517.529297" xlink:href="#DejaVuSans-57"/>
      </g>
     </g>
    </g>
    <g id="xtick_7">
     <g id="line2d_7">
      <g>
       <use style="stroke:#000000;stroke-width:0.8;" x="214.881681" xlink:href="#mae0b3feaef" y="220.230771"/>
      </g>
     </g>
     <g id="text_7">
      <!-- 2021-01-01 -->
      <g transform="translate(191.096564 262.869024)rotate(-30)scale(0.1 -0.1)">
       <use xlink:href="#DejaVuSans-50"/>
       <use x="63.623047" xlink:href="#DejaVuSans-48"/>
       <use x="127.246094" xlink:href="#DejaVuSans-50"/>
       <use x="190.869141" xlink:href="#DejaVuSans-49"/>
       <use x="254.492188" xlink:href="#DejaVuSans-45"/>
       <use x="290.576172" xlink:href="#DejaVuSans-48"/>
       <use x="354.199219" xlink:href="#DejaVuSans-49"/>
       <use x="417.822266" xlink:href="#DejaVuSans-45"/>
       <use x="453.90625" xlink:href="#DejaVuSans-48"/>
       <use x="517.529297" xlink:href="#DejaVuSans-49"/>
      </g>
     </g>
    </g>
    <g id="xtick_8">
     <g id="line2d_8">
      <g>
       <use style="stroke:#000000;stroke-width:0.8;" x="250.151845" xlink:href="#mae0b3feaef" y="220.230771"/>
      </g>
     </g>
     <g id="text_8">
      <!-- 2021-01-08 -->
      <g transform="translate(226.366729 262.869024)rotate(-30)scale(0.1 -0.1)">
       <use xlink:href="#DejaVuSans-50"/>
       <use x="63.623047" xlink:href="#DejaVuSans-48"/>
       <use x="127.246094" xlink:href="#DejaVuSans-50"/>
       <use x="190.869141" xlink:href="#DejaVuSans-49"/>
       <use x="254.492188" xlink:href="#DejaVuSans-45"/>
       <use x="290.576172" xlink:href="#DejaVuSans-48"/>
       <use x="354.199219" xlink:href="#DejaVuSans-49"/>
       <use x="417.822266" xlink:href="#DejaVuSans-45"/>
       <use x="453.90625" xlink:href="#DejaVuSans-48"/>
       <use x="517.529297" xlink:href="#DejaVuSans-56"/>
      </g>
     </g>
    </g>
    <g id="xtick_9">
     <g id="line2d_9">
      <g>
       <use style="stroke:#000000;stroke-width:0.8;" x="285.422009" xlink:href="#mae0b3feaef" y="220.230771"/>
      </g>
     </g>
     <g id="text_9">
      <!-- 2021-01-15 -->
      <g transform="translate(261.636893 262.869024)rotate(-30)scale(0.1 -0.1)">
       <use xlink:href="#DejaVuSans-50"/>
       <use x="63.623047" xlink:href="#DejaVuSans-48"/>
       <use x="127.246094" xlink:href="#DejaVuSans-50"/>
       <use x="190.869141" xlink:href="#DejaVuSans-49"/>
       <use x="254.492188" xlink:href="#DejaVuSans-45"/>
       <use x="290.576172" xlink:href="#DejaVuSans-48"/>
       <use x="354.199219" xlink:href="#DejaVuSans-49"/>
       <use x="417.822266" xlink:href="#DejaVuSans-45"/>
       <use x="453.90625" xlink:href="#DejaVuSans-49"/>
       <use x="517.529297" xlink:href="#DejaVuSans-53"/>
      </g>
     </g>
    </g>
    <g id="text_10">
     <!-- Date -->
     <defs>
      <path d="M 19.671875 64.796875 
L 19.671875 8.109375 
L 31.59375 8.109375 
Q 46.6875 8.109375 53.6875 14.9375 
Q 60.6875 21.78125 60.6875 36.53125 
Q 60.6875 51.171875 53.6875 57.984375 
Q 46.6875 64.796875 31.59375 64.796875 
z
M 9.8125 72.90625 
L 30.078125 72.90625 
Q 51.265625 72.90625 61.171875 64.09375 
Q 71.09375 55.28125 71.09375 36.53125 
Q 71.09375 17.671875 61.125 8.828125 
Q 51.171875 0 30.078125 0 
L 9.8125 0 
z
" id="DejaVuSans-68"/>
      <path d="M 34.28125 27.484375 
Q 23.390625 27.484375 19.1875 25 
Q 14.984375 22.515625 14.984375 16.5 
Q 14.984375 11.71875 18.140625 8.90625 
Q 21.296875 6.109375 26.703125 6.109375 
Q 34.1875 6.109375 38.703125 11.40625 
Q 43.21875 16.703125 43.21875 25.484375 
L 43.21875 27.484375 
z
M 52.203125 31.203125 
L 52.203125 0 
L 43.21875 0 
L 43.21875 8.296875 
Q 40.140625 3.328125 35.546875 0.953125 
Q 30.953125 -1.421875 24.3125 -1.421875 
Q 15.921875 -1.421875 10.953125 3.296875 
Q 6 8.015625 6 15.921875 
Q 6 25.140625 12.171875 29.828125 
Q 18.359375 34.515625 30.609375 34.515625 
L 43.21875 34.515625 
L 43.21875 35.40625 
Q 43.21875 41.609375 39.140625 45 
Q 35.0625 48.390625 27.6875 48.390625 
Q 23 48.390625 18.546875 47.265625 
Q 14.109375 46.140625 10.015625 43.890625 
L 10.015625 52.203125 
Q 14.9375 54.109375 19.578125 55.046875 
Q 24.21875 56 28.609375 56 
Q 40.484375 56 46.34375 49.84375 
Q 52.203125 43.703125 52.203125 31.203125 
z
" id="DejaVuSans-97"/>
      <path d="M 18.3125 70.21875 
L 18.3125 54.6875 
L 36.8125 54.6875 
L 36.8125 47.703125 
L 18.3125 47.703125 
L 18.3125 18.015625 
Q 18.3125 11.328125 20.140625 9.421875 
Q 21.96875 7.515625 27.59375 7.515625 
L 36.8125 7.515625 
L 36.8125 0 
L 27.59375 0 
Q 17.1875 0 13.234375 3.875 
Q 9.28125 7.765625 9.28125 18.015625 
L 9.28125 47.703125 
L 2.6875 47.703125 
L 2.6875 54.6875 
L 9.28125 54.6875 
L 9.28125 70.21875 
z
" id="DejaVuSans-116"/>
      <path d="M 56.203125 29.59375 
L 56.203125 25.203125 
L 14.890625 25.203125 
Q 15.484375 15.921875 20.484375 11.0625 
Q 25.484375 6.203125 34.421875 6.203125 
Q 39.59375 6.203125 44.453125 7.46875 
Q 49.3125 8.734375 54.109375 11.28125 
L 54.109375 2.78125 
Q 49.265625 0.734375 44.1875 -0.34375 
Q 39.109375 -1.421875 33.890625 -1.421875 
Q 20.796875 -1.421875 13.15625 6.1875 
Q 5.515625 13.8125 5.515625 26.8125 
Q 5.515625 40.234375 12.765625 48.109375 
Q 20.015625 56 32.328125 56 
Q 43.359375 56 49.78125 48.890625 
Q 56.203125 41.796875 56.203125 29.59375 
z
M 47.21875 32.234375 
Q 47.125 39.59375 43.09375 43.984375 
Q 39.0625 48.390625 32.421875 48.390625 
Q 24.90625 48.390625 20.390625 44.140625 
Q 15.875 39.890625 15.1875 32.171875 
z
" id="DejaVuSans-101"/>
     </defs>
     <g transform="translate(167.504219 276.268523)scale(0.1 -0.1)">
      <use xlink:href="#DejaVuSans-68"/>
      <use x="77.001953" xlink:href="#DejaVuSans-97"/>
      <use x="138.28125" xlink:href="#DejaVuSans-116"/>
      <use x="177.490234" xlink:href="#DejaVuSans-101"/>
     </g>
    </g>
   </g>
   <g id="matplotlib.axis_2">
    <g id="ytick_1">
     <g id="line2d_10">
      <defs>
       <path d="M 0 0 
L -3.5 0 
" id="m416b4cbf73" style="stroke:#000000;stroke-width:0.8;"/>
      </defs>
      <g>
       <use style="stroke:#000000;stroke-width:0.8;" x="43.55" xlink:href="#m416b4cbf73" y="210.806645"/>
      </g>
     </g>
     <g id="text_11">
      <!-- 0 -->
      <g transform="translate(30.1875 214.605864)scale(0.1 -0.1)">
       <use xlink:href="#DejaVuSans-48"/>
      </g>
     </g>
    </g>
    <g id="ytick_2">
     <g id="line2d_11">
      <g>
       <use style="stroke:#000000;stroke-width:0.8;" x="43.55" xlink:href="#m416b4cbf73" y="187.24633"/>
      </g>
     </g>
     <g id="text_12">
      <!-- 5 -->
      <g transform="translate(30.1875 191.045549)scale(0.1 -0.1)">
       <use xlink:href="#DejaVuSans-53"/>
      </g>
     </g>
    </g>
    <g id="ytick_3">
     <g id="line2d_12">
      <g>
       <use style="stroke:#000000;stroke-width:0.8;" x="43.55" xlink:href="#m416b4cbf73" y="163.686016"/>
      </g>
     </g>
     <g id="text_13">
      <!-- 10 -->
      <g transform="translate(23.825 167.485234)scale(0.1 -0.1)">
       <use xlink:href="#DejaVuSans-49"/>
       <use x="63.623047" xlink:href="#DejaVuSans-48"/>
      </g>
     </g>
    </g>
    <g id="ytick_4">
     <g id="line2d_13">
      <g>
       <use style="stroke:#000000;stroke-width:0.8;" x="43.55" xlink:href="#m416b4cbf73" y="140.125701"/>
      </g>
     </g>
     <g id="text_14">
      <!-- 15 -->
      <g transform="translate(23.825 143.924919)scale(0.1 -0.1)">
       <use xlink:href="#DejaVuSans-49"/>
       <use x="63.623047" xlink:href="#DejaVuSans-53"/>
      </g>
     </g>
    </g>
    <g id="ytick_5">
     <g id="line2d_14">
      <g>
       <use style="stroke:#000000;stroke-width:0.8;" x="43.55" xlink:href="#m416b4cbf73" y="116.565386"/>
      </g>
     </g>
     <g id="text_15">
      <!-- 20 -->
      <g transform="translate(23.825 120.364604)scale(0.1 -0.1)">
       <use xlink:href="#DejaVuSans-50"/>
       <use x="63.623047" xlink:href="#DejaVuSans-48"/>
      </g>
     </g>
    </g>
    <g id="ytick_6">
     <g id="line2d_15">
      <g>
       <use style="stroke:#000000;stroke-width:0.8;" x="43.55" xlink:href="#m416b4cbf73" y="93.005071"/>
      </g>
     </g>
     <g id="text_16">
      <!-- 25 -->
      <g transform="translate(23.825 96.80429)scale(0.1 -0.1)">
       <use xlink:href="#DejaVuSans-50"/>
       <use x="63.623047" xlink:href="#DejaVuSans-53"/>
      </g>
     </g>
    </g>
    <g id="ytick_7">
     <g id="line2d_16">
      <g>
       <use style="stroke:#000000;stroke-width:0.8;" x="43.55" xlink:href="#m416b4cbf73" y="69.444756"/>
      </g>
     </g>
     <g id="text_17">
      <!-- 30 -->
      <defs>
       <path d="M 40.578125 39.3125 
Q 47.65625 37.796875 51.625 33 
Q 55.609375 28.21875 55.609375 21.1875 
Q 55.609375 10.40625 48.1875 4.484375 
Q 40.765625 -1.421875 27.09375 -1.421875 
Q 22.515625 -1.421875 17.65625 -0.515625 
Q 12.796875 0.390625 7.625 2.203125 
L 7.625 11.71875 
Q 11.71875 9.328125 16.59375 8.109375 
Q 21.484375 6.890625 26.8125 6.890625 
Q 36.078125 6.890625 40.9375 10.546875 
Q 45.796875 14.203125 45.796875 21.1875 
Q 45.796875 27.640625 41.28125 31.265625 
Q 36.765625 34.90625 28.71875 34.90625 
L 20.21875 34.90625 
L 20.21875 43.015625 
L 29.109375 43.015625 
Q 36.375 43.015625 40.234375 45.921875 
Q 44.09375 48.828125 44.09375 54.296875 
Q 44.09375 59.90625 40.109375 62.90625 
Q 36.140625 65.921875 28.71875 65.921875 
Q 24.65625 65.921875 20.015625 65.03125 
Q 15.375 64.15625 9.8125 62.3125 
L 9.8125 71.09375 
Q 15.4375 72.65625 20.34375 73.4375 
Q 25.25 74.21875 29.59375 74.21875 
Q 40.828125 74.21875 47.359375 69.109375 
Q 53.90625 64.015625 53.90625 55.328125 
Q 53.90625 49.265625 50.4375 45.09375 
Q 46.96875 40.921875 40.578125 39.3125 
z
" id="DejaVuSans-51"/>
      </defs>
      <g transform="translate(23.825 73.243975)scale(0.1 -0.1)">
       <use xlink:href="#DejaVuSans-51"/>
       <use x="63.623047" xlink:href="#DejaVuSans-48"/>
      </g>
     </g>
    </g>
    <g id="ytick_8">
     <g id="line2d_17">
      <g>
       <use style="stroke:#000000;stroke-width:0.8;" x="43.55" xlink:href="#m416b4cbf73" y="45.884441"/>
      </g>
     </g>
     <g id="text_18">
      <!-- 35 -->
      <g transform="translate(23.825 49.68366)scale(0.1 -0.1)">
       <use xlink:href="#DejaVuSans-51"/>
       <use x="63.623047" xlink:href="#DejaVuSans-53"/>
      </g>
     </g>
    </g>
    <g id="ytick_9">
     <g id="line2d_18">
      <g>
       <use style="stroke:#000000;stroke-width:0.8;" x="43.55" xlink:href="#m416b4cbf73" y="22.324126"/>
      </g>
     </g>
     <g id="text_19">
      <!-- 40 -->
      <defs>
       <path d="M 37.796875 64.3125 
L 12.890625 25.390625 
L 37.796875 25.390625 
z
M 35.203125 72.90625 
L 47.609375 72.90625 
L 47.609375 25.390625 
L 58.015625 25.390625 
L 58.015625 17.1875 
L 47.609375 17.1875 
L 47.609375 0 
L 37.796875 0 
L 37.796875 17.1875 
L 4.890625 17.1875 
L 4.890625 26.703125 
z
" id="DejaVuSans-52"/>
      </defs>
      <g transform="translate(23.825 26.123345)scale(0.1 -0.1)">
       <use xlink:href="#DejaVuSans-52"/>
       <use x="63.623047" xlink:href="#DejaVuSans-48"/>
      </g>
     </g>
    </g>
    <g id="text_20">
     <!-- Students Registered -->
     <defs>
      <path d="M 53.515625 70.515625 
L 53.515625 60.890625 
Q 47.90625 63.578125 42.921875 64.890625 
Q 37.9375 66.21875 33.296875 66.21875 
Q 25.25 66.21875 20.875 63.09375 
Q 16.5 59.96875 16.5 54.203125 
Q 16.5 49.359375 19.40625 46.890625 
Q 22.3125 44.4375 30.421875 42.921875 
L 36.375 41.703125 
Q 47.40625 39.59375 52.65625 34.296875 
Q 57.90625 29 57.90625 20.125 
Q 57.90625 9.515625 50.796875 4.046875 
Q 43.703125 -1.421875 29.984375 -1.421875 
Q 24.8125 -1.421875 18.96875 -0.25 
Q 13.140625 0.921875 6.890625 3.21875 
L 6.890625 13.375 
Q 12.890625 10.015625 18.65625 8.296875 
Q 24.421875 6.59375 29.984375 6.59375 
Q 38.421875 6.59375 43.015625 9.90625 
Q 47.609375 13.234375 47.609375 19.390625 
Q 47.609375 24.75 44.3125 27.78125 
Q 41.015625 30.8125 33.5 32.328125 
L 27.484375 33.5 
Q 16.453125 35.6875 11.515625 40.375 
Q 6.59375 45.0625 6.59375 53.421875 
Q 6.59375 63.09375 13.40625 68.65625 
Q 20.21875 74.21875 32.171875 74.21875 
Q 37.3125 74.21875 42.625 73.28125 
Q 47.953125 72.359375 53.515625 70.515625 
z
" id="DejaVuSans-83"/>
      <path d="M 8.5 21.578125 
L 8.5 54.6875 
L 17.484375 54.6875 
L 17.484375 21.921875 
Q 17.484375 14.15625 20.5 10.265625 
Q 23.53125 6.390625 29.59375 6.390625 
Q 36.859375 6.390625 41.078125 11.03125 
Q 45.3125 15.671875 45.3125 23.6875 
L 45.3125 54.6875 
L 54.296875 54.6875 
L 54.296875 0 
L 45.3125 0 
L 45.3125 8.40625 
Q 42.046875 3.421875 37.71875 1 
Q 33.40625 -1.421875 27.6875 -1.421875 
Q 18.265625 -1.421875 13.375 4.4375 
Q 8.5 10.296875 8.5 21.578125 
z
M 31.109375 56 
z
" id="DejaVuSans-117"/>
      <path d="M 45.40625 46.390625 
L 45.40625 75.984375 
L 54.390625 75.984375 
L 54.390625 0 
L 45.40625 0 
L 45.40625 8.203125 
Q 42.578125 3.328125 38.25 0.953125 
Q 33.9375 -1.421875 27.875 -1.421875 
Q 17.96875 -1.421875 11.734375 6.484375 
Q 5.515625 14.40625 5.515625 27.296875 
Q 5.515625 40.1875 11.734375 48.09375 
Q 17.96875 56 27.875 56 
Q 33.9375 56 38.25 53.625 
Q 42.578125 51.265625 45.40625 46.390625 
z
M 14.796875 27.296875 
Q 14.796875 17.390625 18.875 11.75 
Q 22.953125 6.109375 30.078125 6.109375 
Q 37.203125 6.109375 41.296875 11.75 
Q 45.40625 17.390625 45.40625 27.296875 
Q 45.40625 37.203125 41.296875 42.84375 
Q 37.203125 48.484375 30.078125 48.484375 
Q 22.953125 48.484375 18.875 42.84375 
Q 14.796875 37.203125 14.796875 27.296875 
z
" id="DejaVuSans-100"/>
      <path d="M 54.890625 33.015625 
L 54.890625 0 
L 45.90625 0 
L 45.90625 32.71875 
Q 45.90625 40.484375 42.875 44.328125 
Q 39.84375 48.1875 33.796875 48.1875 
Q 26.515625 48.1875 22.3125 43.546875 
Q 18.109375 38.921875 18.109375 30.90625 
L 18.109375 0 
L 9.078125 0 
L 9.078125 54.6875 
L 18.109375 54.6875 
L 18.109375 46.1875 
Q 21.34375 51.125 25.703125 53.5625 
Q 30.078125 56 35.796875 56 
Q 45.21875 56 50.046875 50.171875 
Q 54.890625 44.34375 54.890625 33.015625 
z
" id="DejaVuSans-110"/>
      <path d="M 44.28125 53.078125 
L 44.28125 44.578125 
Q 40.484375 46.53125 36.375 47.5 
Q 32.28125 48.484375 27.875 48.484375 
Q 21.1875 48.484375 17.84375 46.4375 
Q 14.5 44.390625 14.5 40.28125 
Q 14.5 37.15625 16.890625 35.375 
Q 19.28125 33.59375 26.515625 31.984375 
L 29.59375 31.296875 
Q 39.15625 29.25 43.1875 25.515625 
Q 47.21875 21.78125 47.21875 15.09375 
Q 47.21875 7.46875 41.1875 3.015625 
Q 35.15625 -1.421875 24.609375 -1.421875 
Q 20.21875 -1.421875 15.453125 -0.5625 
Q 10.6875 0.296875 5.421875 2 
L 5.421875 11.28125 
Q 10.40625 8.6875 15.234375 7.390625 
Q 20.0625 6.109375 24.8125 6.109375 
Q 31.15625 6.109375 34.5625 8.28125 
Q 37.984375 10.453125 37.984375 14.40625 
Q 37.984375 18.0625 35.515625 20.015625 
Q 33.0625 21.96875 24.703125 23.78125 
L 21.578125 24.515625 
Q 13.234375 26.265625 9.515625 29.90625 
Q 5.8125 33.546875 5.8125 39.890625 
Q 5.8125 47.609375 11.28125 51.796875 
Q 16.75 56 26.8125 56 
Q 31.78125 56 36.171875 55.265625 
Q 40.578125 54.546875 44.28125 53.078125 
z
" id="DejaVuSans-115"/>
      <path id="DejaVuSans-32"/>
      <path d="M 44.390625 34.1875 
Q 47.5625 33.109375 50.5625 29.59375 
Q 53.5625 26.078125 56.59375 19.921875 
L 66.609375 0 
L 56 0 
L 46.6875 18.703125 
Q 43.0625 26.03125 39.671875 28.421875 
Q 36.28125 30.8125 30.421875 30.8125 
L 19.671875 30.8125 
L 19.671875 0 
L 9.8125 0 
L 9.8125 72.90625 
L 32.078125 72.90625 
Q 44.578125 72.90625 50.734375 67.671875 
Q 56.890625 62.453125 56.890625 51.90625 
Q 56.890625 45.015625 53.6875 40.46875 
Q 50.484375 35.9375 44.390625 34.1875 
z
M 19.671875 64.796875 
L 19.671875 38.921875 
L 32.078125 38.921875 
Q 39.203125 38.921875 42.84375 42.21875 
Q 46.484375 45.515625 46.484375 51.90625 
Q 46.484375 58.296875 42.84375 61.546875 
Q 39.203125 64.796875 32.078125 64.796875 
z
" id="DejaVuSans-82"/>
      <path d="M 45.40625 27.984375 
Q 45.40625 37.75 41.375 43.109375 
Q 37.359375 48.484375 30.078125 48.484375 
Q 22.859375 48.484375 18.828125 43.109375 
Q 14.796875 37.75 14.796875 27.984375 
Q 14.796875 18.265625 18.828125 12.890625 
Q 22.859375 7.515625 30.078125 7.515625 
Q 37.359375 7.515625 41.375 12.890625 
Q 45.40625 18.265625 45.40625 27.984375 
z
M 54.390625 6.78125 
Q 54.390625 -7.171875 48.1875 -13.984375 
Q 42 -20.796875 29.203125 -20.796875 
Q 24.46875 -20.796875 20.265625 -20.09375 
Q 16.0625 -19.390625 12.109375 -17.921875 
L 12.109375 -9.1875 
Q 16.0625 -11.328125 19.921875 -12.34375 
Q 23.78125 -13.375 27.78125 -13.375 
Q 36.625 -13.375 41.015625 -8.765625 
Q 45.40625 -4.15625 45.40625 5.171875 
L 45.40625 9.625 
Q 42.625 4.78125 38.28125 2.390625 
Q 33.9375 0 27.875 0 
Q 17.828125 0 11.671875 7.65625 
Q 5.515625 15.328125 5.515625 27.984375 
Q 5.515625 40.671875 11.671875 48.328125 
Q 17.828125 56 27.875 56 
Q 33.9375 56 38.28125 53.609375 
Q 42.625 51.21875 45.40625 46.390625 
L 45.40625 54.6875 
L 54.390625 54.6875 
z
" id="DejaVuSans-103"/>
      <path d="M 9.421875 54.6875 
L 18.40625 54.6875 
L 18.40625 0 
L 9.421875 0 
z
M 9.421875 75.984375 
L 18.40625 75.984375 
L 18.40625 64.59375 
L 9.421875 64.59375 
z
" id="DejaVuSans-105"/>
      <path d="M 41.109375 46.296875 
Q 39.59375 47.171875 37.8125 47.578125 
Q 36.03125 48 33.890625 48 
Q 26.265625 48 22.1875 43.046875 
Q 18.109375 38.09375 18.109375 28.8125 
L 18.109375 0 
L 9.078125 0 
L 9.078125 54.6875 
L 18.109375 54.6875 
L 18.109375 46.1875 
Q 20.953125 51.171875 25.484375 53.578125 
Q 30.03125 56 36.53125 56 
Q 37.453125 56 38.578125 55.875 
Q 39.703125 55.765625 41.0625 55.515625 
z
" id="DejaVuSans-114"/>
     </defs>
     <g transform="translate(17.745313 167.498979)rotate(-90)scale(0.1 -0.1)">
      <use xlink:href="#DejaVuSans-83"/>
      <use x="63.476562" xlink:href="#DejaVuSans-116"/>
      <use x="102.685547" xlink:href="#DejaVuSans-117"/>
      <use x="166.064453" xlink:href="#DejaVuSans-100"/>
      <use x="229.541016" xlink:href="#DejaVuSans-101"/>
      <use x="291.064453" xlink:href="#DejaVuSans-110"/>
      <use x="354.443359" xlink:href="#DejaVuSans-116"/>
      <use x="393.652344" xlink:href="#DejaVuSans-115"/>
      <use x="445.751953" xlink:href="#DejaVuSans-32"/>
      <use x="477.539062" xlink:href="#DejaVuSans-82"/>
      <use x="546.958984" xlink:href="#DejaVuSans-101"/>
      <use x="608.482422" xlink:href="#DejaVuSans-103"/>
      <use x="671.958984" xlink:href="#DejaVuSans-105"/>
      <use x="699.742188" xlink:href="#DejaVuSans-115"/>
      <use x="751.841797" xlink:href="#DejaVuSans-116"/>
      <use x="791.050781" xlink:href="#DejaVuSans-101"/>
      <use x="852.574219" xlink:href="#DejaVuSans-114"/>
      <use x="893.65625" xlink:href="#DejaVuSans-101"/>
      <use x="955.179688" xlink:href="#DejaVuSans-100"/>
     </g>
    </g>
   </g>
   <g id="line2d_19">
    <path clip-path="url(#p661bceda3b)" d="M 55.905 210.806645 
L 56.126199 210.806645 
L 56.126199 201.382519 
L 56.23632 201.382519 
L 57.111098 201.382519 
L 57.111098 196.670456 
L 57.212531 196.670456 
L 61.939729 196.670456 
L 61.939729 191.958393 
L 62.044697 191.958393 
L 65.92865 191.958393 
L 65.92865 177.822204 
L 66.033619 177.822204 
L 66.138571 177.822204 
L 66.138571 173.110142 
L 66.243559 173.110142 
L 66.348512 173.110142 
L 66.348512 154.26189 
L 66.453494 154.26189 
L 66.558452 154.26189 
L 66.558452 149.549827 
L 66.66342 149.549827 
L 66.768396 149.549827 
L 66.768396 140.125701 
L 66.873352 140.125701 
L 66.978368 140.125701 
L 66.978368 125.989512 
L 67.083334 125.989512 
L 70.757292 125.989512 
L 70.757292 121.277449 
L 70.86226 121.277449 
L 70.96721 121.277449 
L 70.96721 116.565386 
L 71.072178 116.565386 
L 71.59705 116.565386 
L 71.59705 111.853323 
L 71.70203 111.853323 
L 72.016938 111.853323 
L 72.016938 97.717134 
L 72.121893 97.717134 
L 72.226874 97.717134 
L 72.226874 93.005071 
L 72.331868 93.005071 
L 76.425694 93.005071 
L 76.425694 88.293008 
L 76.530688 88.293008 
L 76.635629 88.293008 
L 76.635629 83.580945 
L 76.74063 83.580945 
L 77.055541 83.580945 
L 77.055541 78.868882 
L 77.160502 78.868882 
L 77.685353 78.868882 
L 77.685353 74.156819 
L 77.790313 74.156819 
L 81.254388 74.156819 
L 81.254388 69.444756 
L 81.35932 69.444756 
L 91.121634 69.444756 
L 91.121634 45.884441 
L 91.226553 45.884441 
L 91.331555 45.884441 
L 91.331555 36.460315 
L 91.436493 36.460315 
L 91.541509 36.460315 
L 91.541509 31.748252 
L 91.646457 31.748252 
L 162.29175 31.748252 
L 162.29175 36.460315 
L 162.39674 36.460315 
L 162.501684 36.460315 
L 162.501684 31.748252 
L 162.606656 31.748252 
L 173.838521 31.748252 
L 173.838521 36.460315 
L 173.943528 36.460315 
L 174.048478 36.460315 
L 174.048478 31.748252 
L 174.153442 31.748252 
L 277.759584 31.748252 
L 277.759584 22.324126 
L 277.864515 22.324126 
L 303.005 22.324126 
L 303.005 22.324126 
" style="fill:none;stroke:#1b9e77;stroke-linecap:square;stroke-width:1.5;"/>
   </g>
   <g id="line2d_20">
    <path clip-path="url(#p661bceda3b)" d="M 99.729228 196.670456 
L 100.778889 196.670456 
L 100.778889 182.534267 
L 100.884034 182.534267 
L 100.988836 182.534267 
L 100.988836 177.822204 
L 101.093849 177.822204 
L 101.198772 177.822204 
L 101.198772 158.973953 
L 101.303786 158.973953 
L 101.618675 158.973953 
L 101.618675 144.837764 
L 101.723647 144.837764 
L 102.038549 144.837764 
L 102.038549 116.565386 
L 102.143541 116.565386 
L 102.458429 116.565386 
L 102.458429 107.14126 
L 102.563435 107.14126 
L 102.668398 107.14126 
L 102.668398 102.429197 
L 102.773391 102.429197 
L 102.878321 102.429197 
L 102.878321 97.717134 
L 102.983328 97.717134 
L 103.298239 97.717134 
L 103.298239 93.005071 
L 103.40316 93.005071 
L 106.237373 93.005071 
L 106.237373 74.156819 
L 106.34238 74.156819 
L 106.65727 74.156819 
L 106.65727 69.444756 
L 106.762224 69.444756 
L 107.077185 69.444756 
L 107.077185 60.02063 
L 107.182134 60.02063 
L 107.287127 60.02063 
L 107.287127 55.308567 
L 107.392071 55.308567 
L 107.707016 55.308567 
L 107.707016 50.596504 
L 107.811951 50.596504 
L 112.115768 50.596504 
L 112.115768 45.884441 
L 112.220718 45.884441 
L 112.325674 45.884441 
L 112.325674 41.172378 
L 112.430692 41.172378 
L 112.535626 41.172378 
L 112.535626 36.460315 
L 112.640622 36.460315 
L 113.165479 36.460315 
L 113.165479 31.748252 
L 113.270453 31.748252 
L 126.6017 31.748252 
L 126.6017 22.324126 
L 126.706697 22.324126 
L 152.424504 22.324126 
L 152.424504 27.036189 
L 152.529487 27.036189 
L 153.684151 27.036189 
L 153.684151 22.324126 
L 153.789126 22.324126 
L 171.949082 22.324126 
L 171.949082 27.036189 
L 172.054057 27.036189 
L 173.628605 27.036189 
L 173.628605 22.324126 
L 173.733589 22.324126 
L 303.005 22.324126 
L 303.005 22.324126 
" style="fill:none;stroke:#d95f02;stroke-linecap:square;stroke-width:1.5;"/>
   </g>
   <g id="line2d_21">
    <path clip-path="url(#p661bceda3b)" d="M 55.905 182.534267 
L 56.126199 182.534267 
L 56.126199 177.822204 
L 56.23632 177.822204 
L 57.212531 177.822204 
L 57.212531 173.110142 
L 60.571633 173.110142 
L 60.571633 168.398079 
L 60.890051 168.398079 
L 60.890051 163.686016 
L 60.995034 163.686016 
L 61.09998 163.686016 
L 61.09998 158.973953 
L 61.20497 158.973953 
L 61.729833 158.973953 
L 61.729833 144.837764 
L 61.834825 144.837764 
L 61.939729 144.837764 
L 61.939729 140.125701 
L 62.044697 140.125701 
L 66.138571 140.125701 
L 66.138571 130.701575 
L 66.243559 130.701575 
L 66.348512 130.701575 
L 66.348512 125.989512 
L 66.453494 125.989512 
L 66.558452 125.989512 
L 66.558452 130.701575 
L 66.66342 130.701575 
L 66.978368 130.701575 
L 66.978368 125.989512 
L 67.083334 125.989512 
L 67.188267 125.989512 
L 67.188267 116.565386 
L 67.293232 116.565386 
L 68.238 116.565386 
L 68.238 107.14126 
L 68.342983 107.14126 
L 70.547355 107.14126 
L 70.547355 102.429197 
L 70.652315 102.429197 
L 70.757292 102.429197 
L 70.757292 83.580945 
L 70.86226 83.580945 
L 70.96721 83.580945 
L 70.96721 74.156819 
L 71.072178 74.156819 
L 71.387115 74.156819 
L 71.387115 69.444756 
L 71.492089 69.444756 
L 71.59705 69.444756 
L 71.59705 64.732693 
L 71.70203 64.732693 
L 71.806997 64.732693 
L 71.806997 60.02063 
L 71.91198 60.02063 
L 72.016938 60.02063 
L 72.016938 45.884441 
L 72.121893 45.884441 
L 72.226874 45.884441 
L 72.226874 41.172378 
L 72.331868 41.172378 
L 72.436827 41.172378 
L 72.436827 36.460315 
L 72.541779 36.460315 
L 76.005803 36.460315 
L 76.005803 27.036189 
L 76.110791 27.036189 
L 76.21579 27.036189 
L 76.21579 22.324126 
L 76.32075 22.324126 
L 100.988836 22.324126 
L 100.988836 27.036189 
L 101.093849 27.036189 
L 101.198772 27.036189 
L 101.198772 22.324126 
L 101.303786 22.324126 
L 303.005 22.324126 
L 303.005 22.324126 
" style="fill:none;stroke:#7570b3;stroke-linecap:square;stroke-width:1.5;"/>
   </g>
   <g id="line2d_22">
    <path clip-path="url(#p661bceda3b)" d="M 55.905 201.382519 
L 61.519902 201.382519 
L 61.519902 196.670456 
L 61.624841 196.670456 
L 65.718717 196.670456 
L 65.718717 191.958393 
L 65.823649 191.958393 
L 65.92865 191.958393 
L 65.92865 187.24633 
L 66.033619 187.24633 
L 66.138571 187.24633 
L 66.138571 177.822204 
L 66.243559 177.822204 
L 66.348512 177.822204 
L 66.348512 173.110142 
L 66.453494 173.110142 
L 66.558452 173.110142 
L 66.558452 168.398079 
L 66.66342 168.398079 
L 66.768396 168.398079 
L 66.768396 163.686016 
L 66.873352 163.686016 
L 67.188267 163.686016 
L 67.188267 158.973953 
L 67.293232 158.973953 
L 70.757292 158.973953 
L 70.757292 149.549827 
L 70.86226 149.549827 
L 70.96721 149.549827 
L 70.96721 144.837764 
L 71.072178 144.837764 
L 71.806997 144.837764 
L 71.806997 140.125701 
L 71.91198 140.125701 
L 72.016938 140.125701 
L 72.016938 130.701575 
L 72.121893 130.701575 
L 91.121634 130.701575 
L 91.121634 125.989512 
L 91.226553 125.989512 
L 91.331555 125.989512 
L 91.331555 121.277449 
L 91.436493 121.277449 
L 91.541509 121.277449 
L 91.541509 116.565386 
L 91.646457 116.565386 
L 91.751428 116.565386 
L 91.751428 111.853323 
L 91.856389 111.853323 
L 91.961392 111.853323 
L 91.961392 102.429197 
L 92.066338 102.429197 
L 92.171336 102.429197 
L 92.171336 97.717134 
L 92.276279 97.717134 
L 95.950254 97.717134 
L 96.002743 83.580945 
L 96.055223 83.580945 
L 96.370147 83.580945 
L 96.370147 74.156819 
L 96.475114 74.156819 
L 96.999977 74.156819 
L 96.999977 69.444756 
L 97.104951 69.444756 
L 97.20992 69.444756 
L 97.20992 60.02063 
L 97.314897 60.02063 
L 97.419859 60.02063 
L 97.419859 36.460315 
L 97.524826 36.460315 
L 97.629769 36.460315 
L 97.629769 22.324126 
L 97.734836 22.324126 
L 100.778889 22.324126 
L 100.778889 27.036189 
L 100.884034 27.036189 
L 101.198772 27.036189 
L 101.198772 22.324126 
L 101.303786 22.324126 
L 152.004606 22.324126 
L 152.004606 27.036189 
L 152.109613 27.036189 
L 152.214591 27.036189 
L 152.214591 22.324126 
L 152.319519 22.324126 
L 161.452027 22.324126 
L 161.452027 27.036189 
L 161.556958 27.036189 
L 161.871852 27.036189 
L 161.871852 22.324126 
L 161.976875 22.324126 
L 162.29175 22.324126 
L 162.29175 27.036189 
L 162.39674 27.036189 
L 163.13156 27.036189 
L 163.13156 22.324126 
L 163.236504 22.324126 
L 303.005 22.324126 
L 303.005 22.324126 
" style="fill:none;stroke:#e7298a;stroke-linecap:square;stroke-width:1.5;"/>
   </g>
   <g id="line2d_23">
    <path clip-path="url(#p661bceda3b)" d="M 55.905 191.958393 
L 65.92865 191.958393 
L 65.92865 187.24633 
L 66.033619 187.24633 
L 66.978368 187.24633 
L 66.978368 182.534267 
L 67.083334 182.534267 
L 67.398237 182.534267 
L 67.398237 177.822204 
L 67.503221 177.822204 
L 71.387115 177.822204 
L 71.387115 173.110142 
L 71.492089 173.110142 
L 71.806997 173.110142 
L 71.806997 168.398079 
L 71.91198 168.398079 
L 76.005803 168.398079 
L 76.005803 163.686016 
L 76.110791 163.686016 
L 90.911663 163.686016 
L 90.911663 154.26189 
L 91.016612 154.26189 
L 91.121634 154.26189 
L 91.121634 144.837764 
L 91.226553 144.837764 
L 91.751428 144.837764 
L 91.751428 140.125701 
L 91.856389 140.125701 
L 92.591214 140.125701 
L 92.591214 135.413638 
L 92.696168 135.413638 
L 96.370147 135.413638 
L 96.370147 130.701575 
L 96.475114 130.701575 
L 96.789994 130.701575 
L 96.789994 121.277449 
L 96.895019 121.277449 
L 97.20992 121.277449 
L 97.20992 116.565386 
L 97.314897 116.565386 
L 98.469571 116.565386 
L 98.469571 111.853323 
L 98.57453 111.853323 
L 100.778889 111.853323 
L 100.778889 107.14126 
L 100.884034 107.14126 
L 101.198772 107.14126 
L 101.198772 102.429197 
L 101.303786 102.429197 
L 101.408712 102.429197 
L 101.408712 93.005071 
L 101.513694 93.005071 
L 101.828628 93.005071 
L 101.828628 88.293008 
L 101.933624 88.293008 
L 102.038549 88.293008 
L 102.091055 74.156819 
L 102.143541 74.156819 
L 102.248518 74.156819 
L 102.248518 64.732693 
L 102.353502 64.732693 
L 103.08825 64.732693 
L 103.08825 69.444756 
L 103.193268 69.444756 
L 106.237373 69.444756 
L 106.237373 60.02063 
L 106.34238 60.02063 
L 106.447366 60.02063 
L 106.447366 55.308567 
L 106.552335 55.308567 
L 106.867219 55.308567 
L 106.867219 50.596504 
L 106.972193 50.596504 
L 107.077185 50.596504 
L 107.077185 41.172378 
L 107.182134 41.172378 
L 107.287127 41.172378 
L 107.287127 36.460315 
L 107.392071 36.460315 
L 107.707016 36.460315 
L 107.707016 31.748252 
L 107.811951 31.748252 
L 280.06892 31.748252 
L 280.06892 36.460315 
L 280.173866 36.460315 
L 284.897547 36.460315 
L 284.897547 31.748252 
L 285.002547 31.748252 
L 303.005 31.748252 
L 303.005 31.748252 
" style="fill:none;stroke:#66a61e;stroke-linecap:square;stroke-width:1.5;"/>
   </g>
   <g id="line2d_24">
    <path clip-path="url(#p661bceda3b)" d="M 55.905 196.670456 
L 61.519902 196.670456 
L 61.519902 191.958393 
L 61.624841 191.958393 
L 65.718717 191.958393 
L 65.718717 187.24633 
L 65.823649 187.24633 
L 65.92865 187.24633 
L 65.92865 182.534267 
L 66.033619 182.534267 
L 66.348512 182.534267 
L 66.348512 177.822204 
L 66.453494 177.822204 
L 66.558452 177.822204 
L 66.558452 173.110142 
L 66.66342 173.110142 
L 66.768396 173.110142 
L 66.768396 163.686016 
L 66.873352 163.686016 
L 66.978368 163.686016 
L 66.978368 158.973953 
L 67.083334 158.973953 
L 67.188267 158.973953 
L 67.188267 154.26189 
L 67.293232 154.26189 
L 70.547355 154.26189 
L 70.547355 149.549827 
L 70.652315 149.549827 
L 70.757292 149.549827 
L 70.757292 140.125701 
L 70.86226 140.125701 
L 71.177141 140.125701 
L 71.177141 135.413638 
L 71.282137 135.413638 
L 71.387115 135.413638 
L 71.387115 125.989512 
L 71.492089 125.989512 
L 71.806997 125.989512 
L 71.806997 121.277449 
L 71.91198 121.277449 
L 72.226874 121.277449 
L 72.226874 116.565386 
L 72.331868 116.565386 
L 72.436827 116.565386 
L 72.436827 111.853323 
L 72.541779 111.853323 
L 76.21579 111.853323 
L 76.21579 107.14126 
L 76.32075 107.14126 
L 77.055541 107.14126 
L 77.055541 102.429197 
L 77.160502 102.429197 
L 82.513985 102.429197 
L 82.513985 97.717134 
L 82.618978 97.717134 
L 90.911663 97.717134 
L 90.911663 93.005071 
L 91.016612 93.005071 
L 91.541509 93.005071 
L 91.541509 78.868882 
L 91.646457 78.868882 
L 91.751428 78.868882 
L 91.751428 69.444756 
L 91.856389 69.444756 
L 91.961392 69.444756 
L 91.961392 60.02063 
L 92.066338 60.02063 
L 92.591214 60.02063 
L 92.591214 55.308567 
L 92.696168 55.308567 
L 95.530381 55.308567 
L 95.530381 50.596504 
L 95.635345 50.596504 
L 96.160192 50.596504 
L 96.160192 45.884441 
L 96.265194 45.884441 
L 96.370147 45.884441 
L 96.370147 41.172378 
L 96.475114 41.172378 
L 96.580075 41.172378 
L 96.580075 36.460315 
L 96.685039 36.460315 
L 97.20992 36.460315 
L 97.20992 31.748252 
L 97.314897 31.748252 
L 303.005 31.748252 
L 303.005 31.748252 
" style="fill:none;stroke:#e6ab02;stroke-linecap:square;stroke-width:1.5;"/>
   </g>
   <g id="line2d_25">
    <path clip-path="url(#p661bceda3b)" d="M 55.905 201.382519 
L 61.939729 201.382519 
L 61.939729 196.670456 
L 62.044697 196.670456 
L 65.92865 196.670456 
L 65.92865 191.958393 
L 66.033619 191.958393 
L 66.768396 191.958393 
L 66.768396 187.24633 
L 66.873352 187.24633 
L 71.177141 187.24633 
L 71.177141 177.822204 
L 71.282137 177.822204 
L 71.59705 177.822204 
L 71.59705 173.110142 
L 71.70203 173.110142 
L 72.016938 173.110142 
L 72.016938 168.398079 
L 72.121893 168.398079 
L 72.226874 168.398079 
L 72.226874 163.686016 
L 72.331868 163.686016 
L 77.055541 163.686016 
L 77.055541 158.973953 
L 77.160502 158.973953 
L 81.884191 158.973953 
L 81.884191 154.26189 
L 81.989176 154.26189 
L 91.121634 154.26189 
L 91.121634 144.837764 
L 91.226553 144.837764 
L 91.541509 144.837764 
L 91.541509 140.125701 
L 91.646457 140.125701 
L 92.591214 140.125701 
L 92.591214 135.413638 
L 92.696168 135.413638 
L 95.950254 135.413638 
L 95.950254 130.701575 
L 96.055223 130.701575 
L 96.999977 130.701575 
L 96.999977 125.989512 
L 97.104951 125.989512 
L 97.20992 125.989512 
L 97.20992 121.277449 
L 97.314897 121.277449 
L 97.419859 121.277449 
L 97.472338 107.14126 
L 97.524826 107.14126 
L 100.988836 107.14126 
L 100.988836 102.429197 
L 101.093849 102.429197 
L 101.198772 102.429197 
L 101.198772 93.005071 
L 101.303786 93.005071 
L 101.408712 93.005071 
L 101.408712 88.293008 
L 101.513694 88.293008 
L 101.618675 88.293008 
L 101.671157 74.156819 
L 101.723647 74.156819 
L 102.038549 74.156819 
L 102.038549 60.02063 
L 102.143541 60.02063 
L 102.248518 60.02063 
L 102.248518 50.596504 
L 102.353502 50.596504 
L 102.458429 50.596504 
L 102.458429 31.748252 
L 102.563435 31.748252 
L 102.668398 31.748252 
L 102.668398 27.036189 
L 102.773391 27.036189 
L 103.718114 27.036189 
L 103.718114 22.324126 
L 103.82309 22.324126 
L 161.452027 22.324126 
L 161.452027 27.036189 
L 161.556958 27.036189 
L 161.661966 27.036189 
L 161.661966 22.324126 
L 161.766931 22.324126 
L 162.081826 22.324126 
L 162.081826 27.036189 
L 162.186821 27.036189 
L 162.711626 27.036189 
L 162.711626 31.748252 
L 162.816638 31.748252 
L 163.13156 31.748252 
L 163.13156 36.460315 
L 163.236504 36.460315 
L 168.79994 36.460315 
L 168.79994 41.172378 
L 168.904907 41.172378 
L 181.186508 41.172378 
L 181.186508 36.460315 
L 181.291482 36.460315 
L 204.489979 36.460315 
L 204.489979 41.172378 
L 204.59498 41.172378 
L 212.677717 41.172378 
L 212.677717 36.460315 
L 212.782681 36.460315 
L 238.290606 36.460315 
L 238.290606 31.748252 
L 238.39557 31.748252 
L 241.649614 31.748252 
L 241.649614 27.036189 
L 241.75459 27.036189 
L 247.528002 27.036189 
L 247.528002 22.324126 
L 277.759584 22.324126 
L 277.759584 31.748252 
L 277.864515 31.748252 
L 278.389357 31.748252 
L 278.389357 36.460315 
L 278.494378 36.460315 
L 303.005 36.460315 
L 303.005 36.460315 
" style="fill:none;stroke:#a6761d;stroke-linecap:square;stroke-width:1.5;"/>
   </g>
   <g id="line2d_26">
    <path clip-path="url(#p661bceda3b)" d="M 55.905 201.382519 
L 66.138571 201.382519 
L 66.138571 196.670456 
L 66.243559 196.670456 
L 66.768396 196.670456 
L 66.768396 191.958393 
L 66.873352 191.958393 
L 71.387115 191.958393 
L 71.387115 187.24633 
L 71.492089 187.24633 
L 71.806997 187.24633 
L 71.806997 191.958393 
L 71.91198 191.958393 
L 72.016938 191.958393 
L 72.016938 182.534267 
L 72.121893 182.534267 
L 91.121634 182.534267 
L 91.121634 177.822204 
L 91.226553 177.822204 
L 91.541509 177.822204 
L 91.541509 173.110142 
L 91.646457 173.110142 
L 91.961392 173.110142 
L 91.961392 168.398079 
L 92.066338 168.398079 
L 92.171336 168.398079 
L 92.171336 163.686016 
L 92.276279 163.686016 
L 93.221009 163.686016 
L 93.221009 158.973953 
L 93.326022 158.973953 
L 96.580075 158.973953 
L 96.580075 154.26189 
L 96.685039 154.26189 
L 97.20992 154.26189 
L 97.20992 149.549827 
L 97.314897 149.549827 
L 97.419859 149.549827 
L 97.419859 144.837764 
L 97.524826 144.837764 
L 100.988836 144.837764 
L 100.988836 135.413638 
L 101.093849 135.413638 
L 101.198772 135.413638 
L 101.198772 130.701575 
L 101.303786 130.701575 
L 101.408712 130.701575 
L 101.461201 116.565386 
L 101.513694 116.565386 
L 102.248518 116.565386 
L 102.248518 111.853323 
L 102.353502 111.853323 
L 102.458429 111.853323 
L 102.458429 107.14126 
L 102.563435 107.14126 
L 102.668398 107.14126 
L 102.668398 111.853323 
L 102.773391 111.853323 
L 102.878321 111.853323 
L 102.878321 107.14126 
L 102.983328 107.14126 
L 103.08825 107.14126 
L 103.08825 102.429197 
L 103.193268 102.429197 
L 105.607582 102.429197 
L 105.607582 107.14126 
L 105.712522 107.14126 
L 106.237373 107.14126 
L 106.237373 93.005071 
L 106.34238 93.005071 
L 106.65727 93.005071 
L 106.65727 88.293008 
L 106.762224 88.293008 
L 107.077185 88.293008 
L 107.077185 69.444756 
L 107.182134 69.444756 
L 107.287127 69.444756 
L 107.287127 64.732693 
L 107.392071 64.732693 
L 111.905799 64.732693 
L 111.905799 60.02063 
L 112.010762 60.02063 
L 128.911099 60.02063 
L 128.911099 55.308567 
L 129.016069 55.308567 
L 132.270153 55.308567 
L 132.270153 50.596504 
L 132.375095 50.596504 
L 132.480069 50.596504 
L 132.480069 55.308567 
L 132.585064 55.308567 
L 132.899954 55.308567 
L 132.899954 50.596504 
L 133.00495 50.596504 
L 137.938584 50.596504 
L 137.938584 45.884441 
L 138.04354 45.884441 
L 146.546132 45.884441 
L 146.546132 50.596504 
L 146.651112 50.596504 
L 152.424504 50.596504 
L 152.424504 45.884441 
L 152.529487 45.884441 
L 161.452027 45.884441 
L 161.452027 50.596504 
L 161.556958 50.596504 
L 161.871852 50.596504 
L 161.871852 55.308567 
L 161.976875 55.308567 
L 162.501684 55.308567 
L 162.501684 60.02063 
L 162.606656 60.02063 
L 168.380055 60.02063 
L 168.380055 64.732693 
L 168.485068 64.732693 
L 177.407523 64.732693 
L 177.407523 69.444756 
L 177.512524 69.444756 
L 198.401717 69.444756 
L 198.401717 74.156819 
L 198.506665 74.156819 
L 293.715115 74.156819 
L 293.715115 69.444756 
L 293.820129 69.444756 
L 299.383555 69.444756 
L 299.383555 74.156819 
L 299.488553 74.156819 
L 303.005 74.156819 
L 303.005 74.156819 
" style="fill:none;stroke:#666666;stroke-linecap:square;stroke-width:1.5;"/>
   </g>
   <g id="line2d_27">
    <path clip-path="url(#p661bceda3b)" d="M 55.905 206.094582 
L 66.138571 206.094582 
L 66.138571 201.382519 
L 66.243559 201.382519 
L 71.806997 201.382519 
L 71.806997 191.958393 
L 71.91198 191.958393 
L 90.911663 191.958393 
L 90.911663 187.24633 
L 91.016612 187.24633 
L 91.331555 187.24633 
L 91.331555 182.534267 
L 91.436493 182.534267 
L 91.961392 182.534267 
L 91.961392 177.822204 
L 92.066338 177.822204 
L 95.950254 177.822204 
L 95.950254 173.110142 
L 96.055223 173.110142 
L 96.160192 173.110142 
L 96.160192 163.686016 
L 96.265194 163.686016 
L 96.370147 163.686016 
L 96.370147 158.973953 
L 96.475114 158.973953 
L 96.789994 158.973953 
L 96.789994 154.26189 
L 96.895019 154.26189 
L 96.999977 154.26189 
L 96.999977 144.837764 
L 97.104951 144.837764 
L 97.20992 144.837764 
L 97.20992 135.413638 
L 97.314897 135.413638 
L 98.049701 135.413638 
L 98.049701 130.701575 
L 98.154659 130.701575 
L 98.469571 130.701575 
L 98.469571 125.989512 
L 98.57453 125.989512 
L 98.679474 125.989512 
L 98.679474 130.701575 
L 98.784499 130.701575 
L 100.568969 130.701575 
L 100.568969 135.413638 
L 100.673966 135.413638 
L 100.778889 135.413638 
L 100.778889 140.125701 
L 100.884034 140.125701 
L 100.988836 140.125701 
L 100.988836 135.413638 
L 101.093849 135.413638 
L 101.198772 135.413638 
L 101.198772 140.125701 
L 101.303786 140.125701 
L 101.408712 140.125701 
L 101.408712 135.413638 
L 101.513694 135.413638 
L 101.618675 135.413638 
L 101.618675 130.701575 
L 101.723647 130.701575 
L 102.038549 130.701575 
L 102.038549 135.413638 
L 102.143541 135.413638 
L 106.867219 135.413638 
L 106.867219 130.701575 
L 106.972193 130.701575 
L 107.287127 130.701575 
L 107.287127 125.989512 
L 107.392071 125.989512 
L 112.115768 125.989512 
L 112.115768 121.277449 
L 112.220718 121.277449 
L 113.585341 121.277449 
L 113.585341 116.565386 
L 113.690294 116.565386 
L 127.0216 116.565386 
L 127.0216 111.853323 
L 127.126588 111.853323 
L 127.231538 111.853323 
L 127.231538 107.14126 
L 127.336516 107.14126 
L 128.071283 107.14126 
L 128.071283 102.429197 
L 128.176288 102.429197 
L 137.938584 102.429197 
L 137.938584 97.717134 
L 138.04354 97.717134 
L 138.568353 97.717134 
L 138.568353 93.005071 
L 138.673365 93.005071 
L 149.06546 93.005071 
L 149.06546 88.293008 
L 149.170403 88.293008 
L 153.684151 88.293008 
L 153.684151 93.005071 
L 153.789126 93.005071 
L 161.871852 93.005071 
L 161.871852 97.717134 
L 161.976875 97.717134 
L 197.981824 97.717134 
L 197.981824 93.005071 
L 198.086811 93.005071 
L 233.461951 93.005071 
L 233.461951 88.293008 
L 233.566899 88.293008 
L 237.450824 88.293008 
L 237.450824 83.580945 
L 237.555762 83.580945 
L 251.936762 83.580945 
L 251.936762 78.868882 
L 252.041748 78.868882 
L 282.588253 78.868882 
L 282.588253 83.580945 
L 282.693221 83.580945 
L 282.798142 83.580945 
L 282.798142 78.868882 
L 282.903111 78.868882 
L 303.005 78.868882 
L 303.005 78.868882 
" style="fill:none;stroke:#1b9e77;stroke-dasharray:4.5,1.5;stroke-dashoffset:0;stroke-width:1.5;"/>
   </g>
   <g id="line2d_28">
    <path clip-path="url(#p661bceda3b)" d="M 55.905 196.670456 
L 60.571633 196.670456 
L 60.571633 191.958393 
L 66.768396 191.958393 
L 66.768396 187.24633 
L 66.873352 187.24633 
L 70.96721 187.24633 
L 70.96721 182.534267 
L 71.072178 182.534267 
L 71.387115 182.534267 
L 71.387115 177.822204 
L 71.492089 177.822204 
L 72.016938 177.822204 
L 72.016938 173.110142 
L 72.121893 173.110142 
L 72.226874 173.110142 
L 72.226874 168.398079 
L 72.331868 168.398079 
L 73.486531 168.398079 
L 73.486531 163.686016 
L 73.591522 163.686016 
L 91.541509 163.686016 
L 91.541509 154.26189 
L 91.646457 154.26189 
L 96.370147 154.26189 
L 96.370147 149.549827 
L 96.475114 149.549827 
L 97.419859 149.549827 
L 97.419859 144.837764 
L 97.524826 144.837764 
L 98.049701 144.837764 
L 98.049701 140.125701 
L 98.154659 140.125701 
L 101.198772 140.125701 
L 101.198772 135.413638 
L 101.303786 135.413638 
L 101.408712 135.413638 
L 101.408712 125.989512 
L 101.513694 125.989512 
L 102.038549 125.989512 
L 102.038549 116.565386 
L 102.143541 116.565386 
L 106.65727 116.565386 
L 106.65727 111.853323 
L 106.762224 111.853323 
L 107.287127 111.853323 
L 107.287127 107.14126 
L 107.392071 107.14126 
L 107.916909 107.14126 
L 107.916909 102.429197 
L 108.021903 102.429197 
L 113.165479 102.429197 
L 113.165479 97.717134 
L 113.270453 97.717134 
L 127.651431 97.717134 
L 127.651431 93.005071 
L 127.756415 93.005071 
L 132.480069 93.005071 
L 132.480069 88.293008 
L 132.585064 88.293008 
L 137.938584 88.293008 
L 137.938584 93.005071 
L 138.04354 93.005071 
L 162.081826 93.005071 
L 162.081826 88.293008 
L 162.186821 88.293008 
L 162.29175 88.293008 
L 162.29175 93.005071 
L 162.39674 93.005071 
L 167.540307 93.005071 
L 167.540307 88.293008 
L 167.645303 88.293008 
L 204.489979 88.293008 
L 204.489979 83.580945 
L 204.59498 83.580945 
L 238.080621 83.580945 
L 238.080621 78.868882 
L 238.18559 78.868882 
L 248.787658 78.868882 
L 248.787658 83.580945 
L 248.892617 83.580945 
L 303.005 83.580945 
L 303.005 83.580945 
" style="fill:none;stroke:#d95f02;stroke-dasharray:4.5,1.5;stroke-dashoffset:0;stroke-width:1.5;"/>
   </g>
   <g id="line2d_29">
    <path clip-path="url(#p661bceda3b)" d="M 55.905 210.806645 
L 61.310123 210.806645 
L 61.310123 206.094582 
L 61.414913 206.094582 
L 61.729833 206.094582 
L 61.729833 201.382519 
L 61.834825 201.382519 
L 66.558452 201.382519 
L 66.558452 196.670456 
L 66.66342 196.670456 
L 72.016938 196.670456 
L 72.016938 191.958393 
L 72.121893 191.958393 
L 75.376009 191.958393 
L 75.376009 187.24633 
L 75.481011 187.24633 
L 76.425694 187.24633 
L 76.425694 182.534267 
L 76.530688 182.534267 
L 76.845596 182.534267 
L 76.845596 177.822204 
L 76.950547 177.822204 
L 90.911663 177.822204 
L 90.911663 168.398079 
L 91.016612 168.398079 
L 91.331555 168.398079 
L 91.331555 163.686016 
L 91.436493 163.686016 
L 91.541509 163.686016 
L 91.541509 158.973953 
L 91.646457 158.973953 
L 91.751428 158.973953 
L 91.751428 154.26189 
L 91.856389 154.26189 
L 91.961392 154.26189 
L 91.961392 144.837764 
L 92.066338 144.837764 
L 92.171336 144.837764 
L 92.171336 140.125701 
L 92.276279 140.125701 
L 92.591214 140.125701 
L 92.591214 135.413638 
L 92.696168 135.413638 
L 93.011115 135.413638 
L 93.011115 130.701575 
L 93.116068 130.701575 
L 93.640883 130.701575 
L 93.640883 125.989512 
L 93.745903 125.989512 
L 95.950254 125.989512 
L 95.950254 121.277449 
L 96.055223 121.277449 
L 96.160192 121.277449 
L 96.160192 116.565386 
L 96.265194 116.565386 
L 96.370147 116.565386 
L 96.370147 102.429197 
L 96.475114 102.429197 
L 96.580075 102.429197 
L 96.580075 97.717134 
L 96.685039 97.717134 
L 96.789994 97.717134 
L 96.789994 93.005071 
L 96.895019 93.005071 
L 98.679474 93.005071 
L 98.679474 97.717134 
L 98.784499 97.717134 
L 101.408712 97.717134 
L 101.408712 93.005071 
L 101.513694 93.005071 
L 101.618675 93.005071 
L 101.618675 97.717134 
L 101.723647 97.717134 
L 101.828628 97.717134 
L 101.828628 93.005071 
L 101.933624 93.005071 
L 107.707016 93.005071 
L 107.707016 97.717134 
L 107.811951 97.717134 
L 107.916909 97.717134 
L 107.916909 93.005071 
L 108.021903 93.005071 
L 303.005 93.005071 
L 303.005 93.005071 
" style="fill:none;stroke:#7570b3;stroke-dasharray:4.5,1.5;stroke-dashoffset:0;stroke-width:1.5;"/>
   </g>
   <g id="line2d_30">
    <path clip-path="url(#p661bceda3b)" d="M 55.905 206.094582 
L 65.718717 206.094582 
L 65.718717 201.382519 
L 65.823649 201.382519 
L 65.92865 201.382519 
L 65.92865 196.670456 
L 66.033619 196.670456 
L 66.768396 196.670456 
L 66.768396 187.24633 
L 66.873352 187.24633 
L 70.757292 187.24633 
L 70.757292 182.534267 
L 70.86226 182.534267 
L 71.806997 182.534267 
L 71.806997 177.822204 
L 71.91198 177.822204 
L 72.016938 177.822204 
L 72.016938 173.110142 
L 72.121893 173.110142 
L 72.226874 173.110142 
L 72.226874 168.398079 
L 72.331868 168.398079 
L 91.331555 168.398079 
L 91.331555 163.686016 
L 91.436493 163.686016 
L 91.541509 163.686016 
L 91.541509 158.973953 
L 91.646457 158.973953 
L 91.751428 158.973953 
L 91.751428 149.549827 
L 91.856389 149.549827 
L 96.999977 149.549827 
L 96.999977 144.837764 
L 97.104951 144.837764 
L 97.20992 144.837764 
L 97.20992 140.125701 
L 97.314897 140.125701 
L 100.778889 140.125701 
L 100.778889 144.837764 
L 100.884034 144.837764 
L 101.408712 144.837764 
L 101.408712 135.413638 
L 101.513694 135.413638 
L 101.618675 135.413638 
L 101.618675 140.125701 
L 101.723647 140.125701 
L 101.828628 140.125701 
L 101.828628 135.413638 
L 101.933624 135.413638 
L 102.248518 135.413638 
L 102.248518 125.989512 
L 102.353502 125.989512 
L 102.458429 125.989512 
L 102.458429 121.277449 
L 102.563435 121.277449 
L 112.325674 121.277449 
L 112.325674 116.565386 
L 112.430692 116.565386 
L 112.955535 116.565386 
L 112.955535 111.853323 
L 113.060492 111.853323 
L 123.032695 111.853323 
L 123.032695 107.14126 
L 123.137667 107.14126 
L 142.13737 107.14126 
L 142.13737 102.429197 
L 142.242356 102.429197 
L 142.977134 102.429197 
L 142.977134 97.717134 
L 143.082155 97.717134 
L 147.175997 97.717134 
L 147.175997 93.005071 
L 147.280973 93.005071 
L 163.761382 93.005071 
L 163.761382 88.293008 
L 163.866315 88.293008 
L 288.886432 88.293008 
L 288.886432 93.005071 
L 288.991452 93.005071 
L 293.715115 93.005071 
L 293.715115 97.717134 
L 293.820129 97.717134 
L 303.005 97.717134 
L 303.005 97.717134 
" style="fill:none;stroke:#e7298a;stroke-dasharray:4.5,1.5;stroke-dashoffset:0;stroke-width:1.5;"/>
   </g>
   <g id="line2d_31">
    <path clip-path="url(#p661bceda3b)" d="M 150.167633 210.806645 
L 152.004606 210.806645 
L 152.004606 206.094582 
L 152.109613 206.094582 
L 158.302894 206.094582 
L 158.302894 201.382519 
L 158.407834 201.382519 
L 161.452027 201.382519 
L 161.452027 182.534267 
L 161.556958 182.534267 
L 161.871852 182.534267 
L 161.871852 173.110142 
L 161.976875 173.110142 
L 162.29175 173.110142 
L 162.29175 158.973953 
L 162.39674 158.973953 
L 162.711626 158.973953 
L 162.711626 154.26189 
L 162.816638 154.26189 
L 166.910499 154.26189 
L 166.910499 149.549827 
L 167.015468 149.549827 
L 167.960194 149.549827 
L 167.960194 144.837764 
L 168.065158 144.837764 
L 168.380055 144.837764 
L 168.380055 140.125701 
L 168.485068 140.125701 
L 168.79994 140.125701 
L 168.79994 135.413638 
L 168.904907 135.413638 
L 169.009888 135.413638 
L 169.009888 130.701575 
L 169.114837 130.701575 
L 171.949082 130.701575 
L 171.949082 125.989512 
L 172.054057 125.989512 
L 173.838521 125.989512 
L 173.838521 121.277449 
L 173.943528 121.277449 
L 177.407523 121.277449 
L 177.407523 116.565386 
L 177.512524 116.565386 
L 241.649614 116.565386 
L 241.649614 121.277449 
L 241.75459 121.277449 
L 242.69931 121.277449 
L 242.69931 116.565386 
L 242.80432 116.565386 
L 277.969515 116.565386 
L 277.969515 111.853323 
L 278.074501 111.853323 
L 278.389357 111.853323 
L 278.389357 107.14126 
L 278.494378 107.14126 
L 280.06892 107.14126 
L 280.06892 102.429197 
L 280.173866 102.429197 
L 303.005 102.429197 
L 303.005 102.429197 
" style="fill:none;stroke:#66a61e;stroke-dasharray:4.5,1.5;stroke-dashoffset:0;stroke-width:1.5;"/>
   </g>
   <g id="line2d_32">
    <path clip-path="url(#p661bceda3b)" d="M 55.905 210.806645 
L 62.149666 210.806645 
L 62.149666 206.094582 
L 62.254643 206.094582 
L 62.989474 206.094582 
L 62.989474 201.382519 
L 63.094433 201.382519 
L 76.21579 201.382519 
L 76.21579 196.670456 
L 76.32075 196.670456 
L 90.911663 196.670456 
L 90.911663 191.958393 
L 91.016612 191.958393 
L 92.381246 191.958393 
L 92.381246 182.534267 
L 92.486208 182.534267 
L 96.370147 182.534267 
L 96.370147 177.822204 
L 96.475114 177.822204 
L 96.580075 177.822204 
L 96.580075 173.110142 
L 96.685039 173.110142 
L 97.20992 173.110142 
L 97.20992 163.686016 
L 97.314897 163.686016 
L 97.419859 163.686016 
L 97.419859 158.973953 
L 97.524826 158.973953 
L 98.679474 158.973953 
L 98.679474 154.26189 
L 98.784499 154.26189 
L 101.198772 154.26189 
L 101.198772 158.973953 
L 101.303786 158.973953 
L 101.618675 158.973953 
L 101.618675 154.26189 
L 101.723647 154.26189 
L 101.828628 154.26189 
L 101.828628 149.549827 
L 101.933624 149.549827 
L 102.248518 149.549827 
L 102.248518 144.837764 
L 102.353502 144.837764 
L 102.458429 144.837764 
L 102.458429 149.549827 
L 102.563435 149.549827 
L 102.668398 149.549827 
L 102.668398 144.837764 
L 102.773391 144.837764 
L 106.237373 144.837764 
L 106.237373 140.125701 
L 106.34238 140.125701 
L 112.955535 140.125701 
L 112.955535 135.413638 
L 113.060492 135.413638 
L 127.0216 135.413638 
L 127.0216 130.701575 
L 127.126588 130.701575 
L 146.966026 130.701575 
L 146.966026 125.989512 
L 147.071044 125.989512 
L 171.949082 125.989512 
L 171.949082 121.277449 
L 172.054057 121.277449 
L 198.401717 121.277449 
L 198.401717 116.565386 
L 198.506665 116.565386 
L 247.528002 116.565386 
L 247.528002 111.853323 
L 267.682366 111.853323 
L 267.682366 107.14126 
L 267.787361 107.14126 
L 303.005 107.14126 
L 303.005 107.14126 
" style="fill:none;stroke:#e6ab02;stroke-dasharray:4.5,1.5;stroke-dashoffset:0;stroke-width:1.5;"/>
   </g>
   <g id="line2d_33">
    <path clip-path="url(#p661bceda3b)" d="M 55.905 206.094582 
L 66.348512 206.094582 
L 66.348512 196.670456 
L 66.453494 196.670456 
L 70.96721 196.670456 
L 70.96721 187.24633 
L 71.072178 187.24633 
L 71.177141 187.24633 
L 71.177141 182.534267 
L 71.282137 182.534267 
L 72.016938 182.534267 
L 72.016938 177.822204 
L 72.121893 177.822204 
L 72.226874 177.822204 
L 72.226874 173.110142 
L 72.331868 173.110142 
L 91.751428 173.110142 
L 91.751428 168.398079 
L 91.856389 168.398079 
L 91.961392 168.398079 
L 91.961392 163.686016 
L 92.066338 163.686016 
L 92.171336 163.686016 
L 92.171336 158.973953 
L 92.276279 158.973953 
L 92.801114 158.973953 
L 92.801114 154.26189 
L 92.906133 154.26189 
L 93.011115 154.26189 
L 93.011115 158.973953 
L 93.116068 158.973953 
L 95.950254 158.973953 
L 95.950254 140.125701 
L 96.055223 140.125701 
L 96.370147 140.125701 
L 96.370147 130.701575 
L 96.475114 130.701575 
L 96.580075 130.701575 
L 96.580075 125.989512 
L 96.685039 125.989512 
L 96.789994 125.989512 
L 96.789994 116.565386 
L 96.895019 116.565386 
L 303.005 116.565386 
L 303.005 116.565386 
" style="fill:none;stroke:#a6761d;stroke-dasharray:4.5,1.5;stroke-dashoffset:0;stroke-width:1.5;"/>
   </g>
   <g id="line2d_34">
    <path clip-path="url(#p661bceda3b)" d="M 55.905 210.806645 
L 66.768396 210.806645 
L 66.768396 206.094582 
L 66.873352 206.094582 
L 66.978368 206.094582 
L 66.978368 201.382519 
L 67.083334 201.382519 
L 71.177141 201.382519 
L 71.177141 196.670456 
L 71.282137 196.670456 
L 72.226874 196.670456 
L 72.226874 191.958393 
L 72.331868 191.958393 
L 72.646757 191.958393 
L 72.646757 187.24633 
L 72.751751 187.24633 
L 73.066661 187.24633 
L 73.066661 182.534267 
L 73.171641 182.534267 
L 76.21579 182.534267 
L 76.21579 187.24633 
L 76.32075 187.24633 
L 91.121634 187.24633 
L 91.121634 182.534267 
L 91.226553 182.534267 
L 92.381246 182.534267 
L 92.381246 173.110142 
L 92.486208 173.110142 
L 96.160192 173.110142 
L 96.160192 168.398079 
L 96.265194 168.398079 
L 96.999977 168.398079 
L 96.999977 149.549827 
L 97.104951 149.549827 
L 97.20992 149.549827 
L 97.20992 144.837764 
L 97.314897 144.837764 
L 97.419859 144.837764 
L 97.419859 140.125701 
L 97.524826 140.125701 
L 161.871852 140.125701 
L 161.871852 144.837764 
L 161.976875 144.837764 
L 162.081826 144.837764 
L 162.081826 140.125701 
L 162.186821 140.125701 
L 288.886432 140.125701 
L 288.886432 135.413638 
L 288.991452 135.413638 
L 299.383555 135.413638 
L 299.383555 130.701575 
L 299.488553 130.701575 
L 303.005 130.701575 
L 303.005 130.701575 
" style="fill:none;stroke:#666666;stroke-dasharray:4.5,1.5;stroke-dashoffset:0;stroke-width:1.5;"/>
   </g>
   <g id="line2d_35"/>
   <g id="line2d_36"/>
   <g id="line2d_37"/>
   <g id="line2d_38"/>
   <g id="line2d_39"/>
   <g id="line2d_40"/>
   <g id="line2d_41"/>
   <g id="line2d_42"/>
   <g id="line2d_43"/>
   <g id="line2d_44"/>
   <g id="line2d_45"/>
   <g id="line2d_46"/>
   <g id="line2d_47"/>
   <g id="line2d_48"/>
   <g id="line2d_49"/>
   <g id="line2d_50"/>
   <g id="line2d_51"/>
   <g id="patch_3">
    <path d="M 43.55 220.230771 
L 43.55 12.9 
" style="fill:none;stroke:#000000;stroke-linecap:square;stroke-linejoin:miter;stroke-width:0.8;"/>
   </g>
   <g id="patch_4">
    <path d="M 315.36 220.230771 
L 315.36 12.9 
" style="fill:none;stroke:#000000;stroke-linecap:square;stroke-linejoin:miter;stroke-width:0.8;"/>
   </g>
   <g id="patch_5">
    <path d="M 43.55 220.230771 
L 315.36 220.230771 
" style="fill:none;stroke:#000000;stroke-linecap:square;stroke-linejoin:miter;stroke-width:0.8;"/>
   </g>
   <g id="patch_6">
    <path d="M 43.55 12.9 
L 315.36 12.9 
" style="fill:none;stroke:#000000;stroke-linecap:square;stroke-linejoin:miter;stroke-width:0.8;"/>
   </g>
  </g>
  <g id="legend_1">
   <g id="patch_7">
    <path d="M 331.8625 262.528125 
L 420 262.528125 
Q 422 262.528125 422 260.528125 
L 422 12 
Q 422 10 420 10 
L 331.8625 10 
Q 329.8625 10 329.8625 12 
L 329.8625 260.528125 
Q 329.8625 262.528125 331.8625 262.528125 
z
" style="fill:#ffffff;opacity:0.8;stroke:#cccccc;stroke-linejoin:miter;"/>
   </g>
   <g id="text_21">
    <!-- 488/610 Reg. -->
    <defs>
     <path d="M 25.390625 72.90625 
L 33.6875 72.90625 
L 8.296875 -9.28125 
L 0 -9.28125 
z
" id="DejaVuSans-47"/>
     <path d="M 33.015625 40.375 
Q 26.375 40.375 22.484375 35.828125 
Q 18.609375 31.296875 18.609375 23.390625 
Q 18.609375 15.53125 22.484375 10.953125 
Q 26.375 6.390625 33.015625 6.390625 
Q 39.65625 6.390625 43.53125 10.953125 
Q 47.40625 15.53125 47.40625 23.390625 
Q 47.40625 31.296875 43.53125 35.828125 
Q 39.65625 40.375 33.015625 40.375 
z
M 52.59375 71.296875 
L 52.59375 62.3125 
Q 48.875 64.0625 45.09375 64.984375 
Q 41.3125 65.921875 37.59375 65.921875 
Q 27.828125 65.921875 22.671875 59.328125 
Q 17.53125 52.734375 16.796875 39.40625 
Q 19.671875 43.65625 24.015625 45.921875 
Q 28.375 48.1875 33.59375 48.1875 
Q 44.578125 48.1875 50.953125 41.515625 
Q 57.328125 34.859375 57.328125 23.390625 
Q 57.328125 12.15625 50.6875 5.359375 
Q 44.046875 -1.421875 33.015625 -1.421875 
Q 20.359375 -1.421875 13.671875 8.265625 
Q 6.984375 17.96875 6.984375 36.375 
Q 6.984375 53.65625 15.1875 63.9375 
Q 23.390625 74.21875 37.203125 74.21875 
Q 40.921875 74.21875 44.703125 73.484375 
Q 48.484375 72.75 52.59375 71.296875 
z
" id="DejaVuSans-54"/>
     <path d="M 10.6875 12.40625 
L 21 12.40625 
L 21 0 
L 10.6875 0 
z
" id="DejaVuSans-46"/>
    </defs>
    <g transform="translate(342.259375 21.598437)scale(0.1 -0.1)">
     <use xlink:href="#DejaVuSans-52"/>
     <use x="63.623047" xlink:href="#DejaVuSans-56"/>
     <use x="127.246094" xlink:href="#DejaVuSans-56"/>
     <use x="190.869141" xlink:href="#DejaVuSans-47"/>
     <use x="224.560547" xlink:href="#DejaVuSans-54"/>
     <use x="288.183594" xlink:href="#DejaVuSans-49"/>
     <use x="351.806641" xlink:href="#DejaVuSans-48"/>
     <use x="415.429688" xlink:href="#DejaVuSans-32"/>
     <use x="447.216797" xlink:href="#DejaVuSans-82"/>
     <use x="516.636719" xlink:href="#DejaVuSans-101"/>
     <use x="578.160156" xlink:href="#DejaVuSans-103"/>
     <use x="641.636719" xlink:href="#DejaVuSans-46"/>
    </g>
   </g>
   <g id="line2d_52">
    <path d="M 333.8625 32.776562 
L 353.8625 32.776562 
" style="fill:none;stroke:#1b9e77;stroke-linecap:square;stroke-width:1.5;"/>
   </g>
   <g id="line2d_53"/>
   <g id="text_22">
    <!-- AS (40) -->
    <defs>
     <path d="M 34.1875 63.1875 
L 20.796875 26.90625 
L 47.609375 26.90625 
z
M 28.609375 72.90625 
L 39.796875 72.90625 
L 67.578125 0 
L 57.328125 0 
L 50.6875 18.703125 
L 17.828125 18.703125 
L 11.1875 0 
L 0.78125 0 
z
" id="DejaVuSans-65"/>
     <path d="M 31 75.875 
Q 24.46875 64.65625 21.28125 53.65625 
Q 18.109375 42.671875 18.109375 31.390625 
Q 18.109375 20.125 21.3125 9.0625 
Q 24.515625 -2 31 -13.1875 
L 23.1875 -13.1875 
Q 15.875 -1.703125 12.234375 9.375 
Q 8.59375 20.453125 8.59375 31.390625 
Q 8.59375 42.28125 12.203125 53.3125 
Q 15.828125 64.359375 23.1875 75.875 
z
" id="DejaVuSans-40"/>
     <path d="M 8.015625 75.875 
L 15.828125 75.875 
Q 23.140625 64.359375 26.78125 53.3125 
Q 30.421875 42.28125 30.421875 31.390625 
Q 30.421875 20.453125 26.78125 9.375 
Q 23.140625 -1.703125 15.828125 -13.1875 
L 8.015625 -13.1875 
Q 14.5 -2 17.703125 9.0625 
Q 20.90625 20.125 20.90625 31.390625 
Q 20.90625 42.671875 17.703125 53.65625 
Q 14.5 64.65625 8.015625 75.875 
z
" id="DejaVuSans-41"/>
    </defs>
    <g transform="translate(361.8625 36.276562)scale(0.1 -0.1)">
     <use xlink:href="#DejaVuSans-65"/>
     <use x="68.408203" xlink:href="#DejaVuSans-83"/>
     <use x="131.884766" xlink:href="#DejaVuSans-32"/>
     <use x="163.671875" xlink:href="#DejaVuSans-40"/>
     <use x="202.685547" xlink:href="#DejaVuSans-52"/>
     <use x="266.308594" xlink:href="#DejaVuSans-48"/>
     <use x="329.931641" xlink:href="#DejaVuSans-41"/>
    </g>
   </g>
   <g id="line2d_54">
    <path d="M 333.8625 47.454688 
L 353.8625 47.454688 
" style="fill:none;stroke:#d95f02;stroke-linecap:square;stroke-width:1.5;"/>
   </g>
   <g id="line2d_55"/>
   <g id="text_23">
    <!-- AUS (40) -->
    <defs>
     <path d="M 8.6875 72.90625 
L 18.609375 72.90625 
L 18.609375 28.609375 
Q 18.609375 16.890625 22.84375 11.734375 
Q 27.09375 6.59375 36.625 6.59375 
Q 46.09375 6.59375 50.34375 11.734375 
Q 54.59375 16.890625 54.59375 28.609375 
L 54.59375 72.90625 
L 64.5 72.90625 
L 64.5 27.390625 
Q 64.5 13.140625 57.4375 5.859375 
Q 50.390625 -1.421875 36.625 -1.421875 
Q 22.796875 -1.421875 15.734375 5.859375 
Q 8.6875 13.140625 8.6875 27.390625 
z
" id="DejaVuSans-85"/>
    </defs>
    <g transform="translate(361.8625 50.954688)scale(0.1 -0.1)">
     <use xlink:href="#DejaVuSans-65"/>
     <use x="68.408203" xlink:href="#DejaVuSans-85"/>
     <use x="141.601562" xlink:href="#DejaVuSans-83"/>
     <use x="205.078125" xlink:href="#DejaVuSans-32"/>
     <use x="236.865234" xlink:href="#DejaVuSans-40"/>
     <use x="275.878906" xlink:href="#DejaVuSans-52"/>
     <use x="339.501953" xlink:href="#DejaVuSans-48"/>
     <use x="403.125" xlink:href="#DejaVuSans-41"/>
    </g>
   </g>
   <g id="line2d_56">
    <path d="M 333.8625 62.132812 
L 353.8625 62.132812 
" style="fill:none;stroke:#7570b3;stroke-linecap:square;stroke-width:1.5;"/>
   </g>
   <g id="line2d_57"/>
   <g id="text_24">
    <!-- COML (40) -->
    <defs>
     <path d="M 64.40625 67.28125 
L 64.40625 56.890625 
Q 59.421875 61.53125 53.78125 63.8125 
Q 48.140625 66.109375 41.796875 66.109375 
Q 29.296875 66.109375 22.65625 58.46875 
Q 16.015625 50.828125 16.015625 36.375 
Q 16.015625 21.96875 22.65625 14.328125 
Q 29.296875 6.6875 41.796875 6.6875 
Q 48.140625 6.6875 53.78125 8.984375 
Q 59.421875 11.28125 64.40625 15.921875 
L 64.40625 5.609375 
Q 59.234375 2.09375 53.4375 0.328125 
Q 47.65625 -1.421875 41.21875 -1.421875 
Q 24.65625 -1.421875 15.125 8.703125 
Q 5.609375 18.84375 5.609375 36.375 
Q 5.609375 53.953125 15.125 64.078125 
Q 24.65625 74.21875 41.21875 74.21875 
Q 47.75 74.21875 53.53125 72.484375 
Q 59.328125 70.75 64.40625 67.28125 
z
" id="DejaVuSans-67"/>
     <path d="M 39.40625 66.21875 
Q 28.65625 66.21875 22.328125 58.203125 
Q 16.015625 50.203125 16.015625 36.375 
Q 16.015625 22.609375 22.328125 14.59375 
Q 28.65625 6.59375 39.40625 6.59375 
Q 50.140625 6.59375 56.421875 14.59375 
Q 62.703125 22.609375 62.703125 36.375 
Q 62.703125 50.203125 56.421875 58.203125 
Q 50.140625 66.21875 39.40625 66.21875 
z
M 39.40625 74.21875 
Q 54.734375 74.21875 63.90625 63.9375 
Q 73.09375 53.65625 73.09375 36.375 
Q 73.09375 19.140625 63.90625 8.859375 
Q 54.734375 -1.421875 39.40625 -1.421875 
Q 24.03125 -1.421875 14.8125 8.828125 
Q 5.609375 19.09375 5.609375 36.375 
Q 5.609375 53.65625 14.8125 63.9375 
Q 24.03125 74.21875 39.40625 74.21875 
z
" id="DejaVuSans-79"/>
     <path d="M 9.8125 72.90625 
L 24.515625 72.90625 
L 43.109375 23.296875 
L 61.8125 72.90625 
L 76.515625 72.90625 
L 76.515625 0 
L 66.890625 0 
L 66.890625 64.015625 
L 48.09375 14.015625 
L 38.1875 14.015625 
L 19.390625 64.015625 
L 19.390625 0 
L 9.8125 0 
z
" id="DejaVuSans-77"/>
     <path d="M 9.8125 72.90625 
L 19.671875 72.90625 
L 19.671875 8.296875 
L 55.171875 8.296875 
L 55.171875 0 
L 9.8125 0 
z
" id="DejaVuSans-76"/>
    </defs>
    <g transform="translate(361.8625 65.632812)scale(0.1 -0.1)">
     <use xlink:href="#DejaVuSans-67"/>
     <use x="69.824219" xlink:href="#DejaVuSans-79"/>
     <use x="148.535156" xlink:href="#DejaVuSans-77"/>
     <use x="234.814453" xlink:href="#DejaVuSans-76"/>
     <use x="290.527344" xlink:href="#DejaVuSans-32"/>
     <use x="322.314453" xlink:href="#DejaVuSans-40"/>
     <use x="361.328125" xlink:href="#DejaVuSans-52"/>
     <use x="424.951172" xlink:href="#DejaVuSans-48"/>
     <use x="488.574219" xlink:href="#DejaVuSans-41"/>
    </g>
   </g>
   <g id="line2d_58">
    <path d="M 333.8625 76.810937 
L 353.8625 76.810937 
" style="fill:none;stroke:#e7298a;stroke-linecap:square;stroke-width:1.5;"/>
   </g>
   <g id="line2d_59"/>
   <g id="text_25">
    <!-- GDD (40) -->
    <defs>
     <path d="M 59.515625 10.40625 
L 59.515625 29.984375 
L 43.40625 29.984375 
L 43.40625 38.09375 
L 69.28125 38.09375 
L 69.28125 6.78125 
Q 63.578125 2.734375 56.6875 0.65625 
Q 49.8125 -1.421875 42 -1.421875 
Q 24.90625 -1.421875 15.25 8.5625 
Q 5.609375 18.5625 5.609375 36.375 
Q 5.609375 54.25 15.25 64.234375 
Q 24.90625 74.21875 42 74.21875 
Q 49.125 74.21875 55.546875 72.453125 
Q 61.96875 70.703125 67.390625 67.28125 
L 67.390625 56.78125 
Q 61.921875 61.421875 55.765625 63.765625 
Q 49.609375 66.109375 42.828125 66.109375 
Q 29.4375 66.109375 22.71875 58.640625 
Q 16.015625 51.171875 16.015625 36.375 
Q 16.015625 21.625 22.71875 14.15625 
Q 29.4375 6.6875 42.828125 6.6875 
Q 48.046875 6.6875 52.140625 7.59375 
Q 56.25 8.5 59.515625 10.40625 
z
" id="DejaVuSans-71"/>
    </defs>
    <g transform="translate(361.8625 80.310937)scale(0.1 -0.1)">
     <use xlink:href="#DejaVuSans-71"/>
     <use x="77.490234" xlink:href="#DejaVuSans-68"/>
     <use x="154.492188" xlink:href="#DejaVuSans-68"/>
     <use x="231.494141" xlink:href="#DejaVuSans-32"/>
     <use x="263.28125" xlink:href="#DejaVuSans-40"/>
     <use x="302.294922" xlink:href="#DejaVuSans-52"/>
     <use x="365.917969" xlink:href="#DejaVuSans-48"/>
     <use x="429.541016" xlink:href="#DejaVuSans-41"/>
    </g>
   </g>
   <g id="line2d_60">
    <path d="M 333.8625 91.489062 
L 353.8625 91.489062 
" style="fill:none;stroke:#66a61e;stroke-linecap:square;stroke-width:1.5;"/>
   </g>
   <g id="line2d_61"/>
   <g id="text_26">
    <!-- MD (38) -->
    <g transform="translate(361.8625 94.989062)scale(0.1 -0.1)">
     <use xlink:href="#DejaVuSans-77"/>
     <use x="86.279297" xlink:href="#DejaVuSans-68"/>
     <use x="163.28125" xlink:href="#DejaVuSans-32"/>
     <use x="195.068359" xlink:href="#DejaVuSans-40"/>
     <use x="234.082031" xlink:href="#DejaVuSans-51"/>
     <use x="297.705078" xlink:href="#DejaVuSans-56"/>
     <use x="361.328125" xlink:href="#DejaVuSans-41"/>
    </g>
   </g>
   <g id="line2d_62">
    <path d="M 333.8625 106.167188 
L 353.8625 106.167188 
" style="fill:none;stroke:#e6ab02;stroke-linecap:square;stroke-width:1.5;"/>
   </g>
   <g id="line2d_63"/>
   <g id="text_27">
    <!-- HPI (38) -->
    <defs>
     <path d="M 9.8125 72.90625 
L 19.671875 72.90625 
L 19.671875 43.015625 
L 55.515625 43.015625 
L 55.515625 72.90625 
L 65.375 72.90625 
L 65.375 0 
L 55.515625 0 
L 55.515625 34.71875 
L 19.671875 34.71875 
L 19.671875 0 
L 9.8125 0 
z
" id="DejaVuSans-72"/>
     <path d="M 19.671875 64.796875 
L 19.671875 37.40625 
L 32.078125 37.40625 
Q 38.96875 37.40625 42.71875 40.96875 
Q 46.484375 44.53125 46.484375 51.125 
Q 46.484375 57.671875 42.71875 61.234375 
Q 38.96875 64.796875 32.078125 64.796875 
z
M 9.8125 72.90625 
L 32.078125 72.90625 
Q 44.34375 72.90625 50.609375 67.359375 
Q 56.890625 61.8125 56.890625 51.125 
Q 56.890625 40.328125 50.609375 34.8125 
Q 44.34375 29.296875 32.078125 29.296875 
L 19.671875 29.296875 
L 19.671875 0 
L 9.8125 0 
z
" id="DejaVuSans-80"/>
     <path d="M 9.8125 72.90625 
L 19.671875 72.90625 
L 19.671875 0 
L 9.8125 0 
z
" id="DejaVuSans-73"/>
    </defs>
    <g transform="translate(361.8625 109.667188)scale(0.1 -0.1)">
     <use xlink:href="#DejaVuSans-72"/>
     <use x="75.195312" xlink:href="#DejaVuSans-80"/>
     <use x="135.498047" xlink:href="#DejaVuSans-73"/>
     <use x="164.990234" xlink:href="#DejaVuSans-32"/>
     <use x="196.777344" xlink:href="#DejaVuSans-40"/>
     <use x="235.791016" xlink:href="#DejaVuSans-51"/>
     <use x="299.414062" xlink:href="#DejaVuSans-56"/>
     <use x="363.037109" xlink:href="#DejaVuSans-41"/>
    </g>
   </g>
   <g id="line2d_64">
    <path d="M 333.8625 120.845312 
L 353.8625 120.845312 
" style="fill:none;stroke:#a6761d;stroke-linecap:square;stroke-width:1.5;"/>
   </g>
   <g id="line2d_65"/>
   <g id="text_28">
    <!-- SA (37) -->
    <defs>
     <path d="M 8.203125 72.90625 
L 55.078125 72.90625 
L 55.078125 68.703125 
L 28.609375 0 
L 18.3125 0 
L 43.21875 64.59375 
L 8.203125 64.59375 
z
" id="DejaVuSans-55"/>
    </defs>
    <g transform="translate(361.8625 124.345312)scale(0.1 -0.1)">
     <use xlink:href="#DejaVuSans-83"/>
     <use x="63.492188" xlink:href="#DejaVuSans-65"/>
     <use x="131.900391" xlink:href="#DejaVuSans-32"/>
     <use x="163.6875" xlink:href="#DejaVuSans-40"/>
     <use x="202.701172" xlink:href="#DejaVuSans-51"/>
     <use x="266.324219" xlink:href="#DejaVuSans-55"/>
     <use x="329.947266" xlink:href="#DejaVuSans-41"/>
    </g>
   </g>
   <g id="line2d_66">
    <path d="M 333.8625 135.523438 
L 353.8625 135.523438 
" style="fill:none;stroke:#666666;stroke-linecap:square;stroke-width:1.5;"/>
   </g>
   <g id="line2d_67"/>
   <g id="text_29">
    <!-- FIT (29) -->
    <defs>
     <path d="M 9.8125 72.90625 
L 51.703125 72.90625 
L 51.703125 64.59375 
L 19.671875 64.59375 
L 19.671875 43.109375 
L 48.578125 43.109375 
L 48.578125 34.8125 
L 19.671875 34.8125 
L 19.671875 0 
L 9.8125 0 
z
" id="DejaVuSans-70"/>
     <path d="M -0.296875 72.90625 
L 61.375 72.90625 
L 61.375 64.59375 
L 35.5 64.59375 
L 35.5 0 
L 25.59375 0 
L 25.59375 64.59375 
L -0.296875 64.59375 
z
" id="DejaVuSans-84"/>
    </defs>
    <g transform="translate(361.8625 139.023438)scale(0.1 -0.1)">
     <use xlink:href="#DejaVuSans-70"/>
     <use x="57.519531" xlink:href="#DejaVuSans-73"/>
     <use x="87.011719" xlink:href="#DejaVuSans-84"/>
     <use x="148.095703" xlink:href="#DejaVuSans-32"/>
     <use x="179.882812" xlink:href="#DejaVuSans-40"/>
     <use x="218.896484" xlink:href="#DejaVuSans-50"/>
     <use x="282.519531" xlink:href="#DejaVuSans-57"/>
     <use x="346.142578" xlink:href="#DejaVuSans-41"/>
    </g>
   </g>
   <g id="line2d_68">
    <path d="M 333.8625 150.201562 
L 353.8625 150.201562 
" style="fill:none;stroke:#1b9e77;stroke-dasharray:4.5,1.5;stroke-dashoffset:0;stroke-width:1.5;"/>
   </g>
   <g id="line2d_69"/>
   <g id="text_30">
    <!-- SPD (28) -->
    <g transform="translate(361.8625 153.701562)scale(0.1 -0.1)">
     <use xlink:href="#DejaVuSans-83"/>
     <use x="63.476562" xlink:href="#DejaVuSans-80"/>
     <use x="123.779297" xlink:href="#DejaVuSans-68"/>
     <use x="200.78125" xlink:href="#DejaVuSans-32"/>
     <use x="232.568359" xlink:href="#DejaVuSans-40"/>
     <use x="271.582031" xlink:href="#DejaVuSans-50"/>
     <use x="335.205078" xlink:href="#DejaVuSans-56"/>
     <use x="398.828125" xlink:href="#DejaVuSans-41"/>
    </g>
   </g>
   <g id="line2d_70">
    <path d="M 333.8625 164.879687 
L 353.8625 164.879687 
" style="fill:none;stroke:#d95f02;stroke-dasharray:4.5,1.5;stroke-dashoffset:0;stroke-width:1.5;"/>
   </g>
   <g id="line2d_71"/>
   <g id="text_31">
    <!-- TBI (27) -->
    <defs>
     <path d="M 19.671875 34.8125 
L 19.671875 8.109375 
L 35.5 8.109375 
Q 43.453125 8.109375 47.28125 11.40625 
Q 51.125 14.703125 51.125 21.484375 
Q 51.125 28.328125 47.28125 31.5625 
Q 43.453125 34.8125 35.5 34.8125 
z
M 19.671875 64.796875 
L 19.671875 42.828125 
L 34.28125 42.828125 
Q 41.5 42.828125 45.03125 45.53125 
Q 48.578125 48.25 48.578125 53.8125 
Q 48.578125 59.328125 45.03125 62.0625 
Q 41.5 64.796875 34.28125 64.796875 
z
M 9.8125 72.90625 
L 35.015625 72.90625 
Q 46.296875 72.90625 52.390625 68.21875 
Q 58.5 63.53125 58.5 54.890625 
Q 58.5 48.1875 55.375 44.234375 
Q 52.25 40.28125 46.1875 39.3125 
Q 53.46875 37.75 57.5 32.78125 
Q 61.53125 27.828125 61.53125 20.40625 
Q 61.53125 10.640625 54.890625 5.3125 
Q 48.25 0 35.984375 0 
L 9.8125 0 
z
" id="DejaVuSans-66"/>
    </defs>
    <g transform="translate(361.8625 168.379687)scale(0.1 -0.1)">
     <use xlink:href="#DejaVuSans-84"/>
     <use x="61.083984" xlink:href="#DejaVuSans-66"/>
     <use x="129.6875" xlink:href="#DejaVuSans-73"/>
     <use x="159.179688" xlink:href="#DejaVuSans-32"/>
     <use x="190.966797" xlink:href="#DejaVuSans-40"/>
     <use x="229.980469" xlink:href="#DejaVuSans-50"/>
     <use x="293.603516" xlink:href="#DejaVuSans-55"/>
     <use x="357.226562" xlink:href="#DejaVuSans-41"/>
    </g>
   </g>
   <g id="line2d_72">
    <path d="M 333.8625 179.557812 
L 353.8625 179.557812 
" style="fill:none;stroke:#7570b3;stroke-dasharray:4.5,1.5;stroke-dashoffset:0;stroke-width:1.5;"/>
   </g>
   <g id="line2d_73"/>
   <g id="text_32">
    <!-- CC (25) -->
    <g transform="translate(361.8625 183.057812)scale(0.1 -0.1)">
     <use xlink:href="#DejaVuSans-67"/>
     <use x="69.824219" xlink:href="#DejaVuSans-67"/>
     <use x="139.648438" xlink:href="#DejaVuSans-32"/>
     <use x="171.435547" xlink:href="#DejaVuSans-40"/>
     <use x="210.449219" xlink:href="#DejaVuSans-50"/>
     <use x="274.072266" xlink:href="#DejaVuSans-53"/>
     <use x="337.695312" xlink:href="#DejaVuSans-41"/>
    </g>
   </g>
   <g id="line2d_74">
    <path d="M 333.8625 194.235937 
L 353.8625 194.235937 
" style="fill:none;stroke:#e7298a;stroke-dasharray:4.5,1.5;stroke-dashoffset:0;stroke-width:1.5;"/>
   </g>
   <g id="line2d_75"/>
   <g id="text_33">
    <!-- BP (24) -->
    <g transform="translate(361.8625 197.735937)scale(0.1 -0.1)">
     <use xlink:href="#DejaVuSans-66"/>
     <use x="68.603516" xlink:href="#DejaVuSans-80"/>
     <use x="128.90625" xlink:href="#DejaVuSans-32"/>
     <use x="160.693359" xlink:href="#DejaVuSans-40"/>
     <use x="199.707031" xlink:href="#DejaVuSans-50"/>
     <use x="263.330078" xlink:href="#DejaVuSans-52"/>
     <use x="326.953125" xlink:href="#DejaVuSans-41"/>
    </g>
   </g>
   <g id="line2d_76">
    <path d="M 333.8625 208.914062 
L 353.8625 208.914062 
" style="fill:none;stroke:#66a61e;stroke-dasharray:4.5,1.5;stroke-dashoffset:0;stroke-width:1.5;"/>
   </g>
   <g id="line2d_77"/>
   <g id="text_34">
    <!-- RJPH (23) -->
    <defs>
     <path d="M 9.8125 72.90625 
L 19.671875 72.90625 
L 19.671875 5.078125 
Q 19.671875 -8.109375 14.671875 -14.0625 
Q 9.671875 -20.015625 -1.421875 -20.015625 
L -5.171875 -20.015625 
L -5.171875 -11.71875 
L -2.09375 -11.71875 
Q 4.4375 -11.71875 7.125 -8.046875 
Q 9.8125 -4.390625 9.8125 5.078125 
z
" id="DejaVuSans-74"/>
    </defs>
    <g transform="translate(361.8625 212.414062)scale(0.1 -0.1)">
     <use xlink:href="#DejaVuSans-82"/>
     <use x="69.482422" xlink:href="#DejaVuSans-74"/>
     <use x="98.974609" xlink:href="#DejaVuSans-80"/>
     <use x="159.277344" xlink:href="#DejaVuSans-72"/>
     <use x="234.472656" xlink:href="#DejaVuSans-32"/>
     <use x="266.259766" xlink:href="#DejaVuSans-40"/>
     <use x="305.273438" xlink:href="#DejaVuSans-50"/>
     <use x="368.896484" xlink:href="#DejaVuSans-51"/>
     <use x="432.519531" xlink:href="#DejaVuSans-41"/>
    </g>
   </g>
   <g id="line2d_78">
    <path d="M 333.8625 223.592187 
L 353.8625 223.592187 
" style="fill:none;stroke:#e6ab02;stroke-dasharray:4.5,1.5;stroke-dashoffset:0;stroke-width:1.5;"/>
   </g>
   <g id="line2d_79"/>
   <g id="text_35">
    <!-- CB (22) -->
    <g transform="translate(361.8625 227.092187)scale(0.1 -0.1)">
     <use xlink:href="#DejaVuSans-67"/>
     <use x="69.824219" xlink:href="#DejaVuSans-66"/>
     <use x="138.427734" xlink:href="#DejaVuSans-32"/>
     <use x="170.214844" xlink:href="#DejaVuSans-40"/>
     <use x="209.228516" xlink:href="#DejaVuSans-50"/>
     <use x="272.851562" xlink:href="#DejaVuSans-50"/>
     <use x="336.474609" xlink:href="#DejaVuSans-41"/>
    </g>
   </g>
   <g id="line2d_80">
    <path d="M 333.8625 238.270312 
L 353.8625 238.270312 
" style="fill:none;stroke:#a6761d;stroke-dasharray:4.5,1.5;stroke-dashoffset:0;stroke-width:1.5;"/>
   </g>
   <g id="line2d_81"/>
   <g id="text_36">
    <!-- AHR-H (20) -->
    <g transform="translate(361.8625 241.770312)scale(0.1 -0.1)">
     <use xlink:href="#DejaVuSans-65"/>
     <use x="68.408203" xlink:href="#DejaVuSans-72"/>
     <use x="143.603516" xlink:href="#DejaVuSans-82"/>
     <use x="213.023438" xlink:href="#DejaVuSans-45"/>
     <use x="249.107422" xlink:href="#DejaVuSans-72"/>
     <use x="324.302734" xlink:href="#DejaVuSans-32"/>
     <use x="356.089844" xlink:href="#DejaVuSans-40"/>
     <use x="395.103516" xlink:href="#DejaVuSans-50"/>
     <use x="458.726562" xlink:href="#DejaVuSans-48"/>
     <use x="522.349609" xlink:href="#DejaVuSans-41"/>
    </g>
   </g>
   <g id="line2d_82">
    <path d="M 333.8625 252.948437 
L 353.8625 252.948437 
" style="fill:none;stroke:#666666;stroke-dasharray:4.5,1.5;stroke-dashoffset:0;stroke-width:1.5;"/>
   </g>
   <g id="line2d_83"/>
   <g id="text_37">
    <!-- AHR-A (17) -->
    <g transform="translate(361.8625 256.448437)scale(0.1 -0.1)">
     <use xlink:href="#DejaVuSans-65"/>
     <use x="68.408203" xlink:href="#DejaVuSans-72"/>
     <use x="143.603516" xlink:href="#DejaVuSans-82"/>
     <use x="213.023438" xlink:href="#DejaVuSans-45"/>
     <use x="249.076172" xlink:href="#DejaVuSans-65"/>
     <use x="317.484375" xlink:href="#DejaVuSans-32"/>
     <use x="349.271484" xlink:href="#DejaVuSans-40"/>
     <use x="388.285156" xlink:href="#DejaVuSans-49"/>
     <use x="451.908203" xlink:href="#DejaVuSans-55"/>
     <use x="515.53125" xlink:href="#DejaVuSans-41"/>
    </g>
   </g>
  </g>
 </g>
 <defs>
  <clipPath id="p661bceda3b">
   <rect height="207.330771" width="271.81" x="43.55" y="12.9"/>
  </clipPath>
 </defs>
</svg>
