<?xml version="1.0" encoding="utf-8" standalone="no"?>
<!DOCTYPE svg PUBLIC "-//W3C//DTD SVG 1.1//EN"
  "http://www.w3.org/Graphics/SVG/1.1/DTD/svg11.dtd">
<!-- Created with matplotlib (https://matplotlib.org/) -->
<svg height="288pt" version="1.1" viewBox="0 0 432 288" width="432pt" xmlns="http://www.w3.org/2000/svg" xmlns:xlink="http://www.w3.org/1999/xlink">
 <defs>
  <style type="text/css">
*{stroke-linecap:butt;stroke-linejoin:round;}
  </style>
 </defs>
 <g id="figure_1">
  <g id="patch_1">
   <path d="M 0 288 
L 432 288 
L 432 0 
L 0 0 
z
" style="fill:#ffffff;"/>
  </g>
  <g id="axes_1">
   <g id="patch_2">
    <path d="M 43.55 220.230771 
L 315.36 220.230771 
L 315.36 12.9 
L 43.55 12.9 
z
" style="fill:#ffffff;"/>
   </g>
   <g id="matplotlib.axis_1">
    <g id="xtick_1">
     <g id="line2d_1">
      <defs>
       <path d="M 0 0 
L 0 3.5 
" id="m576bd2db6e" style="stroke:#000000;stroke-width:0.8;"/>
      </defs>
      <g>
       <use style="stroke:#000000;stroke-width:0.8;" x="49.623409" xlink:href="#m576bd2db6e" y="220.230771"/>
      </g>
     </g>
     <g id="text_1">
      <!-- 2020-11-29 -->
      <defs>
       <path d="M 19.1875 8.296875 
L 53.609375 8.296875 
L 53.609375 0 
L 7.328125 0 
L 7.328125 8.296875 
Q 12.9375 14.109375 22.625 23.890625 
Q 32.328125 33.6875 34.8125 36.53125 
Q 39.546875 41.84375 41.421875 45.53125 
Q 43.3125 49.21875 43.3125 52.78125 
Q 43.3125 58.59375 39.234375 62.25 
Q 35.15625 65.921875 28.609375 65.921875 
Q 23.96875 65.921875 18.8125 64.3125 
Q 13.671875 62.703125 7.8125 59.421875 
L 7.8125 69.390625 
Q 13.765625 71.78125 18.9375 73 
Q 24.125 74.21875 28.421875 74.21875 
Q 39.75 74.21875 46.484375 68.546875 
Q 53.21875 62.890625 53.21875 53.421875 
Q 53.21875 48.921875 51.53125 44.890625 
Q 49.859375 40.875 45.40625 35.40625 
Q 44.1875 33.984375 37.640625 27.21875 
Q 31.109375 20.453125 19.1875 8.296875 
z
" id="DejaVuSans-50"/>
       <path d="M 31.78125 66.40625 
Q 24.171875 66.40625 20.328125 58.90625 
Q 16.5 51.421875 16.5 36.375 
Q 16.5 21.390625 20.328125 13.890625 
Q 24.171875 6.390625 31.78125 6.390625 
Q 39.453125 6.390625 43.28125 13.890625 
Q 47.125 21.390625 47.125 36.375 
Q 47.125 51.421875 43.28125 58.90625 
Q 39.453125 66.40625 31.78125 66.40625 
z
M 31.78125 74.21875 
Q 44.046875 74.21875 50.515625 64.515625 
Q 56.984375 54.828125 56.984375 36.375 
Q 56.984375 17.96875 50.515625 8.265625 
Q 44.046875 -1.421875 31.78125 -1.421875 
Q 19.53125 -1.421875 13.0625 8.265625 
Q 6.59375 17.96875 6.59375 36.375 
Q 6.59375 54.828125 13.0625 64.515625 
Q 19.53125 74.21875 31.78125 74.21875 
z
" id="DejaVuSans-48"/>
       <path d="M 4.890625 31.390625 
L 31.203125 31.390625 
L 31.203125 23.390625 
L 4.890625 23.390625 
z
" id="DejaVuSans-45"/>
       <path d="M 12.40625 8.296875 
L 28.515625 8.296875 
L 28.515625 63.921875 
L 10.984375 60.40625 
L 10.984375 69.390625 
L 28.421875 72.90625 
L 38.28125 72.90625 
L 38.28125 8.296875 
L 54.390625 8.296875 
L 54.390625 0 
L 12.40625 0 
z
" id="DejaVuSans-49"/>
       <path d="M 10.984375 1.515625 
L 10.984375 10.5 
Q 14.703125 8.734375 18.5 7.8125 
Q 22.3125 6.890625 25.984375 6.890625 
Q 35.75 6.890625 40.890625 13.453125 
Q 46.046875 20.015625 46.78125 33.40625 
Q 43.953125 29.203125 39.59375 26.953125 
Q 35.25 24.703125 29.984375 24.703125 
Q 19.046875 24.703125 12.671875 31.3125 
Q 6.296875 37.9375 6.296875 49.421875 
Q 6.296875 60.640625 12.9375 67.421875 
Q 19.578125 74.21875 30.609375 74.21875 
Q 43.265625 74.21875 49.921875 64.515625 
Q 56.59375 54.828125 56.59375 36.375 
Q 56.59375 19.140625 48.40625 8.859375 
Q 40.234375 -1.421875 26.421875 -1.421875 
Q 22.703125 -1.421875 18.890625 -0.6875 
Q 15.09375 0.046875 10.984375 1.515625 
z
M 30.609375 32.421875 
Q 37.25 32.421875 41.125 36.953125 
Q 45.015625 41.5 45.015625 49.421875 
Q 45.015625 57.28125 41.125 61.84375 
Q 37.25 66.40625 30.609375 66.40625 
Q 23.96875 66.40625 20.09375 61.84375 
Q 16.21875 57.28125 16.21875 49.421875 
Q 16.21875 41.5 20.09375 36.953125 
Q 23.96875 32.421875 30.609375 32.421875 
z
" id="DejaVuSans-57"/>
      </defs>
      <g transform="translate(25.838293 262.869024)rotate(-30)scale(0.1 -0.1)">
       <use xlink:href="#DejaVuSans-50"/>
       <use x="63.623047" xlink:href="#DejaVuSans-48"/>
       <use x="127.246094" xlink:href="#DejaVuSans-50"/>
       <use x="190.869141" xlink:href="#DejaVuSans-48"/>
       <use x="254.492188" xlink:href="#DejaVuSans-45"/>
       <use x="290.576172" xlink:href="#DejaVuSans-49"/>
       <use x="354.199219" xlink:href="#DejaVuSans-49"/>
       <use x="417.822266" xlink:href="#DejaVuSans-45"/>
       <use x="453.90625" xlink:href="#DejaVuSans-50"/>
       <use x="517.529297" xlink:href="#DejaVuSans-57"/>
      </g>
     </g>
    </g>
    <g id="xtick_2">
     <g id="line2d_2">
      <g>
       <use style="stroke:#000000;stroke-width:0.8;" x="58.298373" xlink:href="#m576bd2db6e" y="220.230771"/>
      </g>
     </g>
     <g id="text_2">
      <!-- 2020-12-01 -->
      <g transform="translate(34.513256 262.869024)rotate(-30)scale(0.1 -0.1)">
       <use xlink:href="#DejaVuSans-50"/>
       <use x="63.623047" xlink:href="#DejaVuSans-48"/>
       <use x="127.246094" xlink:href="#DejaVuSans-50"/>
       <use x="190.869141" xlink:href="#DejaVuSans-48"/>
       <use x="254.492188" xlink:href="#DejaVuSans-45"/>
       <use x="290.576172" xlink:href="#DejaVuSans-49"/>
       <use x="354.199219" xlink:href="#DejaVuSans-50"/>
       <use x="417.822266" xlink:href="#DejaVuSans-45"/>
       <use x="453.90625" xlink:href="#DejaVuSans-48"/>
       <use x="517.529297" xlink:href="#DejaVuSans-49"/>
      </g>
     </g>
    </g>
    <g id="xtick_3">
     <g id="line2d_3">
      <g>
       <use style="stroke:#000000;stroke-width:0.8;" x="88.660745" xlink:href="#m576bd2db6e" y="220.230771"/>
      </g>
     </g>
     <g id="text_3">
      <!-- 2020-12-08 -->
      <defs>
       <path d="M 31.78125 34.625 
Q 24.75 34.625 20.71875 30.859375 
Q 16.703125 27.09375 16.703125 20.515625 
Q 16.703125 13.921875 20.71875 10.15625 
Q 24.75 6.390625 31.78125 6.390625 
Q 38.8125 6.390625 42.859375 10.171875 
Q 46.921875 13.96875 46.921875 20.515625 
Q 46.921875 27.09375 42.890625 30.859375 
Q 38.875 34.625 31.78125 34.625 
z
M 21.921875 38.8125 
Q 15.578125 40.375 12.03125 44.71875 
Q 8.5 49.078125 8.5 55.328125 
Q 8.5 64.0625 14.71875 69.140625 
Q 20.953125 74.21875 31.78125 74.21875 
Q 42.671875 74.21875 48.875 69.140625 
Q 55.078125 64.0625 55.078125 55.328125 
Q 55.078125 49.078125 51.53125 44.71875 
Q 48 40.375 41.703125 38.8125 
Q 48.828125 37.15625 52.796875 32.3125 
Q 56.78125 27.484375 56.78125 20.515625 
Q 56.78125 9.90625 50.3125 4.234375 
Q 43.84375 -1.421875 31.78125 -1.421875 
Q 19.734375 -1.421875 13.25 4.234375 
Q 6.78125 9.90625 6.78125 20.515625 
Q 6.78125 27.484375 10.78125 32.3125 
Q 14.796875 37.15625 21.921875 38.8125 
z
M 18.3125 54.390625 
Q 18.3125 48.734375 21.84375 45.5625 
Q 25.390625 42.390625 31.78125 42.390625 
Q 38.140625 42.390625 41.71875 45.5625 
Q 45.3125 48.734375 45.3125 54.390625 
Q 45.3125 60.0625 41.71875 63.234375 
Q 38.140625 66.40625 31.78125 66.40625 
Q 25.390625 66.40625 21.84375 63.234375 
Q 18.3125 60.0625 18.3125 54.390625 
z
" id="DejaVuSans-56"/>
      </defs>
      <g transform="translate(64.875629 262.869024)rotate(-30)scale(0.1 -0.1)">
       <use xlink:href="#DejaVuSans-50"/>
       <use x="63.623047" xlink:href="#DejaVuSans-48"/>
       <use x="127.246094" xlink:href="#DejaVuSans-50"/>
       <use x="190.869141" xlink:href="#DejaVuSans-48"/>
       <use x="254.492188" xlink:href="#DejaVuSans-45"/>
       <use x="290.576172" xlink:href="#DejaVuSans-49"/>
       <use x="354.199219" xlink:href="#DejaVuSans-50"/>
       <use x="417.822266" xlink:href="#DejaVuSans-45"/>
       <use x="453.90625" xlink:href="#DejaVuSans-48"/>
       <use x="517.529297" xlink:href="#DejaVuSans-56"/>
      </g>
     </g>
    </g>
    <g id="xtick_4">
     <g id="line2d_4">
      <g>
       <use style="stroke:#000000;stroke-width:0.8;" x="119.023118" xlink:href="#m576bd2db6e" y="220.230771"/>
      </g>
     </g>
     <g id="text_4">
      <!-- 2020-12-15 -->
      <defs>
       <path d="M 10.796875 72.90625 
L 49.515625 72.90625 
L 49.515625 64.59375 
L 19.828125 64.59375 
L 19.828125 46.734375 
Q 21.96875 47.46875 24.109375 47.828125 
Q 26.265625 48.1875 28.421875 48.1875 
Q 40.625 48.1875 47.75 41.5 
Q 54.890625 34.8125 54.890625 23.390625 
Q 54.890625 11.625 47.5625 5.09375 
Q 40.234375 -1.421875 26.90625 -1.421875 
Q 22.3125 -1.421875 17.546875 -0.640625 
Q 12.796875 0.140625 7.71875 1.703125 
L 7.71875 11.625 
Q 12.109375 9.234375 16.796875 8.0625 
Q 21.484375 6.890625 26.703125 6.890625 
Q 35.15625 6.890625 40.078125 11.328125 
Q 45.015625 15.765625 45.015625 23.390625 
Q 45.015625 31 40.078125 35.4375 
Q 35.15625 39.890625 26.703125 39.890625 
Q 22.75 39.890625 18.8125 39.015625 
Q 14.890625 38.140625 10.796875 36.28125 
z
" id="DejaVuSans-53"/>
      </defs>
      <g transform="translate(95.238001 262.869024)rotate(-30)scale(0.1 -0.1)">
       <use xlink:href="#DejaVuSans-50"/>
       <use x="63.623047" xlink:href="#DejaVuSans-48"/>
       <use x="127.246094" xlink:href="#DejaVuSans-50"/>
       <use x="190.869141" xlink:href="#DejaVuSans-48"/>
       <use x="254.492188" xlink:href="#DejaVuSans-45"/>
       <use x="290.576172" xlink:href="#DejaVuSans-49"/>
       <use x="354.199219" xlink:href="#DejaVuSans-50"/>
       <use x="417.822266" xlink:href="#DejaVuSans-45"/>
       <use x="453.90625" xlink:href="#DejaVuSans-49"/>
       <use x="517.529297" xlink:href="#DejaVuSans-53"/>
      </g>
     </g>
    </g>
    <g id="xtick_5">
     <g id="line2d_5">
      <g>
       <use style="stroke:#000000;stroke-width:0.8;" x="149.38549" xlink:href="#m576bd2db6e" y="220.230771"/>
      </g>
     </g>
     <g id="text_5">
      <!-- 2020-12-22 -->
      <g transform="translate(125.600374 262.869024)rotate(-30)scale(0.1 -0.1)">
       <use xlink:href="#DejaVuSans-50"/>
       <use x="63.623047" xlink:href="#DejaVuSans-48"/>
       <use x="127.246094" xlink:href="#DejaVuSans-50"/>
       <use x="190.869141" xlink:href="#DejaVuSans-48"/>
       <use x="254.492188" xlink:href="#DejaVuSans-45"/>
       <use x="290.576172" xlink:href="#DejaVuSans-49"/>
       <use x="354.199219" xlink:href="#DejaVuSans-50"/>
       <use x="417.822266" xlink:href="#DejaVuSans-45"/>
       <use x="453.90625" xlink:href="#DejaVuSans-50"/>
       <use x="517.529297" xlink:href="#DejaVuSans-50"/>
      </g>
     </g>
    </g>
    <g id="xtick_6">
     <g id="line2d_6">
      <g>
       <use style="stroke:#000000;stroke-width:0.8;" x="179.747863" xlink:href="#m576bd2db6e" y="220.230771"/>
      </g>
     </g>
     <g id="text_6">
      <!-- 2020-12-29 -->
      <g transform="translate(155.962746 262.869024)rotate(-30)scale(0.1 -0.1)">
       <use xlink:href="#DejaVuSans-50"/>
       <use x="63.623047" xlink:href="#DejaVuSans-48"/>
       <use x="127.246094" xlink:href="#DejaVuSans-50"/>
       <use x="190.869141" xlink:href="#DejaVuSans-48"/>
       <use x="254.492188" xlink:href="#DejaVuSans-45"/>
       <use x="290.576172" xlink:href="#DejaVuSans-49"/>
       <use x="354.199219" xlink:href="#DejaVuSans-50"/>
       <use x="417.822266" xlink:href="#DejaVuSans-45"/>
       <use x="453.90625" xlink:href="#DejaVuSans-50"/>
       <use x="517.529297" xlink:href="#DejaVuSans-57"/>
      </g>
     </g>
    </g>
    <g id="xtick_7">
     <g id="line2d_7">
      <g>
       <use style="stroke:#000000;stroke-width:0.8;" x="192.760308" xlink:href="#m576bd2db6e" y="220.230771"/>
      </g>
     </g>
     <g id="text_7">
      <!-- 2021-01-01 -->
      <g transform="translate(168.975192 262.869024)rotate(-30)scale(0.1 -0.1)">
       <use xlink:href="#DejaVuSans-50"/>
       <use x="63.623047" xlink:href="#DejaVuSans-48"/>
       <use x="127.246094" xlink:href="#DejaVuSans-50"/>
       <use x="190.869141" xlink:href="#DejaVuSans-49"/>
       <use x="254.492188" xlink:href="#DejaVuSans-45"/>
       <use x="290.576172" xlink:href="#DejaVuSans-48"/>
       <use x="354.199219" xlink:href="#DejaVuSans-49"/>
       <use x="417.822266" xlink:href="#DejaVuSans-45"/>
       <use x="453.90625" xlink:href="#DejaVuSans-48"/>
       <use x="517.529297" xlink:href="#DejaVuSans-49"/>
      </g>
     </g>
    </g>
    <g id="xtick_8">
     <g id="line2d_8">
      <g>
       <use style="stroke:#000000;stroke-width:0.8;" x="223.122681" xlink:href="#m576bd2db6e" y="220.230771"/>
      </g>
     </g>
     <g id="text_8">
      <!-- 2021-01-08 -->
      <g transform="translate(199.337564 262.869024)rotate(-30)scale(0.1 -0.1)">
       <use xlink:href="#DejaVuSans-50"/>
       <use x="63.623047" xlink:href="#DejaVuSans-48"/>
       <use x="127.246094" xlink:href="#DejaVuSans-50"/>
       <use x="190.869141" xlink:href="#DejaVuSans-49"/>
       <use x="254.492188" xlink:href="#DejaVuSans-45"/>
       <use x="290.576172" xlink:href="#DejaVuSans-48"/>
       <use x="354.199219" xlink:href="#DejaVuSans-49"/>
       <use x="417.822266" xlink:href="#DejaVuSans-45"/>
       <use x="453.90625" xlink:href="#DejaVuSans-48"/>
       <use x="517.529297" xlink:href="#DejaVuSans-56"/>
      </g>
     </g>
    </g>
    <g id="xtick_9">
     <g id="line2d_9">
      <g>
       <use style="stroke:#000000;stroke-width:0.8;" x="253.485053" xlink:href="#m576bd2db6e" y="220.230771"/>
      </g>
     </g>
     <g id="text_9">
      <!-- 2021-01-15 -->
      <g transform="translate(229.699937 262.869024)rotate(-30)scale(0.1 -0.1)">
       <use xlink:href="#DejaVuSans-50"/>
       <use x="63.623047" xlink:href="#DejaVuSans-48"/>
       <use x="127.246094" xlink:href="#DejaVuSans-50"/>
       <use x="190.869141" xlink:href="#DejaVuSans-49"/>
       <use x="254.492188" xlink:href="#DejaVuSans-45"/>
       <use x="290.576172" xlink:href="#DejaVuSans-48"/>
       <use x="354.199219" xlink:href="#DejaVuSans-49"/>
       <use x="417.822266" xlink:href="#DejaVuSans-45"/>
       <use x="453.90625" xlink:href="#DejaVuSans-49"/>
       <use x="517.529297" xlink:href="#DejaVuSans-53"/>
      </g>
     </g>
    </g>
    <g id="xtick_10">
     <g id="line2d_10">
      <g>
       <use style="stroke:#000000;stroke-width:0.8;" x="283.847426" xlink:href="#m576bd2db6e" y="220.230771"/>
      </g>
     </g>
     <g id="text_10">
      <!-- 2021-01-22 -->
      <g transform="translate(260.062309 262.869024)rotate(-30)scale(0.1 -0.1)">
       <use xlink:href="#DejaVuSans-50"/>
       <use x="63.623047" xlink:href="#DejaVuSans-48"/>
       <use x="127.246094" xlink:href="#DejaVuSans-50"/>
       <use x="190.869141" xlink:href="#DejaVuSans-49"/>
       <use x="254.492188" xlink:href="#DejaVuSans-45"/>
       <use x="290.576172" xlink:href="#DejaVuSans-48"/>
       <use x="354.199219" xlink:href="#DejaVuSans-49"/>
       <use x="417.822266" xlink:href="#DejaVuSans-45"/>
       <use x="453.90625" xlink:href="#DejaVuSans-50"/>
       <use x="517.529297" xlink:href="#DejaVuSans-50"/>
      </g>
     </g>
    </g>
    <g id="xtick_11">
     <g id="line2d_11">
      <g>
       <use style="stroke:#000000;stroke-width:0.8;" x="314.209798" xlink:href="#m576bd2db6e" y="220.230771"/>
      </g>
     </g>
     <g id="text_11">
      <!-- 2021-01-29 -->
      <g transform="translate(290.424682 262.869024)rotate(-30)scale(0.1 -0.1)">
       <use xlink:href="#DejaVuSans-50"/>
       <use x="63.623047" xlink:href="#DejaVuSans-48"/>
       <use x="127.246094" xlink:href="#DejaVuSans-50"/>
       <use x="190.869141" xlink:href="#DejaVuSans-49"/>
       <use x="254.492188" xlink:href="#DejaVuSans-45"/>
       <use x="290.576172" xlink:href="#DejaVuSans-48"/>
       <use x="354.199219" xlink:href="#DejaVuSans-49"/>
       <use x="417.822266" xlink:href="#DejaVuSans-45"/>
       <use x="453.90625" xlink:href="#DejaVuSans-50"/>
       <use x="517.529297" xlink:href="#DejaVuSans-57"/>
      </g>
     </g>
    </g>
    <g id="text_12">
     <!-- Date -->
     <defs>
      <path d="M 19.671875 64.796875 
L 19.671875 8.109375 
L 31.59375 8.109375 
Q 46.6875 8.109375 53.6875 14.9375 
Q 60.6875 21.78125 60.6875 36.53125 
Q 60.6875 51.171875 53.6875 57.984375 
Q 46.6875 64.796875 31.59375 64.796875 
z
M 9.8125 72.90625 
L 30.078125 72.90625 
Q 51.265625 72.90625 61.171875 64.09375 
Q 71.09375 55.28125 71.09375 36.53125 
Q 71.09375 17.671875 61.125 8.828125 
Q 51.171875 0 30.078125 0 
L 9.8125 0 
z
" id="DejaVuSans-68"/>
      <path d="M 34.28125 27.484375 
Q 23.390625 27.484375 19.1875 25 
Q 14.984375 22.515625 14.984375 16.5 
Q 14.984375 11.71875 18.140625 8.90625 
Q 21.296875 6.109375 26.703125 6.109375 
Q 34.1875 6.109375 38.703125 11.40625 
Q 43.21875 16.703125 43.21875 25.484375 
L 43.21875 27.484375 
z
M 52.203125 31.203125 
L 52.203125 0 
L 43.21875 0 
L 43.21875 8.296875 
Q 40.140625 3.328125 35.546875 0.953125 
Q 30.953125 -1.421875 24.3125 -1.421875 
Q 15.921875 -1.421875 10.953125 3.296875 
Q 6 8.015625 6 15.921875 
Q 6 25.140625 12.171875 29.828125 
Q 18.359375 34.515625 30.609375 34.515625 
L 43.21875 34.515625 
L 43.21875 35.40625 
Q 43.21875 41.609375 39.140625 45 
Q 35.0625 48.390625 27.6875 48.390625 
Q 23 48.390625 18.546875 47.265625 
Q 14.109375 46.140625 10.015625 43.890625 
L 10.015625 52.203125 
Q 14.9375 54.109375 19.578125 55.046875 
Q 24.21875 56 28.609375 56 
Q 40.484375 56 46.34375 49.84375 
Q 52.203125 43.703125 52.203125 31.203125 
z
" id="DejaVuSans-97"/>
      <path d="M 18.3125 70.21875 
L 18.3125 54.6875 
L 36.8125 54.6875 
L 36.8125 47.703125 
L 18.3125 47.703125 
L 18.3125 18.015625 
Q 18.3125 11.328125 20.140625 9.421875 
Q 21.96875 7.515625 27.59375 7.515625 
L 36.8125 7.515625 
L 36.8125 0 
L 27.59375 0 
Q 17.1875 0 13.234375 3.875 
Q 9.28125 7.765625 9.28125 18.015625 
L 9.28125 47.703125 
L 2.6875 47.703125 
L 2.6875 54.6875 
L 9.28125 54.6875 
L 9.28125 70.21875 
z
" id="DejaVuSans-116"/>
      <path d="M 56.203125 29.59375 
L 56.203125 25.203125 
L 14.890625 25.203125 
Q 15.484375 15.921875 20.484375 11.0625 
Q 25.484375 6.203125 34.421875 6.203125 
Q 39.59375 6.203125 44.453125 7.46875 
Q 49.3125 8.734375 54.109375 11.28125 
L 54.109375 2.78125 
Q 49.265625 0.734375 44.1875 -0.34375 
Q 39.109375 -1.421875 33.890625 -1.421875 
Q 20.796875 -1.421875 13.15625 6.1875 
Q 5.515625 13.8125 5.515625 26.8125 
Q 5.515625 40.234375 12.765625 48.109375 
Q 20.015625 56 32.328125 56 
Q 43.359375 56 49.78125 48.890625 
Q 56.203125 41.796875 56.203125 29.59375 
z
M 47.21875 32.234375 
Q 47.125 39.59375 43.09375 43.984375 
Q 39.0625 48.390625 32.421875 48.390625 
Q 24.90625 48.390625 20.390625 44.140625 
Q 15.875 39.890625 15.1875 32.171875 
z
" id="DejaVuSans-101"/>
     </defs>
     <g transform="translate(167.504219 276.268523)scale(0.1 -0.1)">
      <use xlink:href="#DejaVuSans-68"/>
      <use x="77.001953" xlink:href="#DejaVuSans-97"/>
      <use x="138.28125" xlink:href="#DejaVuSans-116"/>
      <use x="177.490234" xlink:href="#DejaVuSans-101"/>
     </g>
    </g>
   </g>
   <g id="matplotlib.axis_2">
    <g id="ytick_1">
     <g id="line2d_12">
      <defs>
       <path d="M 0 0 
L -3.5 0 
" id="mc12545a000" style="stroke:#000000;stroke-width:0.8;"/>
      </defs>
      <g>
       <use style="stroke:#000000;stroke-width:0.8;" x="43.55" xlink:href="#mc12545a000" y="210.806645"/>
      </g>
     </g>
     <g id="text_13">
      <!-- 0 -->
      <g transform="translate(30.1875 214.605864)scale(0.1 -0.1)">
       <use xlink:href="#DejaVuSans-48"/>
      </g>
     </g>
    </g>
    <g id="ytick_2">
     <g id="line2d_13">
      <g>
       <use style="stroke:#000000;stroke-width:0.8;" x="43.55" xlink:href="#mc12545a000" y="187.24633"/>
      </g>
     </g>
     <g id="text_14">
      <!-- 5 -->
      <g transform="translate(30.1875 191.045549)scale(0.1 -0.1)">
       <use xlink:href="#DejaVuSans-53"/>
      </g>
     </g>
    </g>
    <g id="ytick_3">
     <g id="line2d_14">
      <g>
       <use style="stroke:#000000;stroke-width:0.8;" x="43.55" xlink:href="#mc12545a000" y="163.686016"/>
      </g>
     </g>
     <g id="text_15">
      <!-- 10 -->
      <g transform="translate(23.825 167.485234)scale(0.1 -0.1)">
       <use xlink:href="#DejaVuSans-49"/>
       <use x="63.623047" xlink:href="#DejaVuSans-48"/>
      </g>
     </g>
    </g>
    <g id="ytick_4">
     <g id="line2d_15">
      <g>
       <use style="stroke:#000000;stroke-width:0.8;" x="43.55" xlink:href="#mc12545a000" y="140.125701"/>
      </g>
     </g>
     <g id="text_16">
      <!-- 15 -->
      <g transform="translate(23.825 143.924919)scale(0.1 -0.1)">
       <use xlink:href="#DejaVuSans-49"/>
       <use x="63.623047" xlink:href="#DejaVuSans-53"/>
      </g>
     </g>
    </g>
    <g id="ytick_5">
     <g id="line2d_16">
      <g>
       <use style="stroke:#000000;stroke-width:0.8;" x="43.55" xlink:href="#mc12545a000" y="116.565386"/>
      </g>
     </g>
     <g id="text_17">
      <!-- 20 -->
      <g transform="translate(23.825 120.364604)scale(0.1 -0.1)">
       <use xlink:href="#DejaVuSans-50"/>
       <use x="63.623047" xlink:href="#DejaVuSans-48"/>
      </g>
     </g>
    </g>
    <g id="ytick_6">
     <g id="line2d_17">
      <g>
       <use style="stroke:#000000;stroke-width:0.8;" x="43.55" xlink:href="#mc12545a000" y="93.005071"/>
      </g>
     </g>
     <g id="text_18">
      <!-- 25 -->
      <g transform="translate(23.825 96.80429)scale(0.1 -0.1)">
       <use xlink:href="#DejaVuSans-50"/>
       <use x="63.623047" xlink:href="#DejaVuSans-53"/>
      </g>
     </g>
    </g>
    <g id="ytick_7">
     <g id="line2d_18">
      <g>
       <use style="stroke:#000000;stroke-width:0.8;" x="43.55" xlink:href="#mc12545a000" y="69.444756"/>
      </g>
     </g>
     <g id="text_19">
      <!-- 30 -->
      <defs>
       <path d="M 40.578125 39.3125 
Q 47.65625 37.796875 51.625 33 
Q 55.609375 28.21875 55.609375 21.1875 
Q 55.609375 10.40625 48.1875 4.484375 
Q 40.765625 -1.421875 27.09375 -1.421875 
Q 22.515625 -1.421875 17.65625 -0.515625 
Q 12.796875 0.390625 7.625 2.203125 
L 7.625 11.71875 
Q 11.71875 9.328125 16.59375 8.109375 
Q 21.484375 6.890625 26.8125 6.890625 
Q 36.078125 6.890625 40.9375 10.546875 
Q 45.796875 14.203125 45.796875 21.1875 
Q 45.796875 27.640625 41.28125 31.265625 
Q 36.765625 34.90625 28.71875 34.90625 
L 20.21875 34.90625 
L 20.21875 43.015625 
L 29.109375 43.015625 
Q 36.375 43.015625 40.234375 45.921875 
Q 44.09375 48.828125 44.09375 54.296875 
Q 44.09375 59.90625 40.109375 62.90625 
Q 36.140625 65.921875 28.71875 65.921875 
Q 24.65625 65.921875 20.015625 65.03125 
Q 15.375 64.15625 9.8125 62.3125 
L 9.8125 71.09375 
Q 15.4375 72.65625 20.34375 73.4375 
Q 25.25 74.21875 29.59375 74.21875 
Q 40.828125 74.21875 47.359375 69.109375 
Q 53.90625 64.015625 53.90625 55.328125 
Q 53.90625 49.265625 50.4375 45.09375 
Q 46.96875 40.921875 40.578125 39.3125 
z
" id="DejaVuSans-51"/>
      </defs>
      <g transform="translate(23.825 73.243975)scale(0.1 -0.1)">
       <use xlink:href="#DejaVuSans-51"/>
       <use x="63.623047" xlink:href="#DejaVuSans-48"/>
      </g>
     </g>
    </g>
    <g id="ytick_8">
     <g id="line2d_19">
      <g>
       <use style="stroke:#000000;stroke-width:0.8;" x="43.55" xlink:href="#mc12545a000" y="45.884441"/>
      </g>
     </g>
     <g id="text_20">
      <!-- 35 -->
      <g transform="translate(23.825 49.68366)scale(0.1 -0.1)">
       <use xlink:href="#DejaVuSans-51"/>
       <use x="63.623047" xlink:href="#DejaVuSans-53"/>
      </g>
     </g>
    </g>
    <g id="ytick_9">
     <g id="line2d_20">
      <g>
       <use style="stroke:#000000;stroke-width:0.8;" x="43.55" xlink:href="#mc12545a000" y="22.324126"/>
      </g>
     </g>
     <g id="text_21">
      <!-- 40 -->
      <defs>
       <path d="M 37.796875 64.3125 
L 12.890625 25.390625 
L 37.796875 25.390625 
z
M 35.203125 72.90625 
L 47.609375 72.90625 
L 47.609375 25.390625 
L 58.015625 25.390625 
L 58.015625 17.1875 
L 47.609375 17.1875 
L 47.609375 0 
L 37.796875 0 
L 37.796875 17.1875 
L 4.890625 17.1875 
L 4.890625 26.703125 
z
" id="DejaVuSans-52"/>
      </defs>
      <g transform="translate(23.825 26.123345)scale(0.1 -0.1)">
       <use xlink:href="#DejaVuSans-52"/>
       <use x="63.623047" xlink:href="#DejaVuSans-48"/>
      </g>
     </g>
    </g>
    <g id="text_22">
     <!-- Students Registered -->
     <defs>
      <path d="M 53.515625 70.515625 
L 53.515625 60.890625 
Q 47.90625 63.578125 42.921875 64.890625 
Q 37.9375 66.21875 33.296875 66.21875 
Q 25.25 66.21875 20.875 63.09375 
Q 16.5 59.96875 16.5 54.203125 
Q 16.5 49.359375 19.40625 46.890625 
Q 22.3125 44.4375 30.421875 42.921875 
L 36.375 41.703125 
Q 47.40625 39.59375 52.65625 34.296875 
Q 57.90625 29 57.90625 20.125 
Q 57.90625 9.515625 50.796875 4.046875 
Q 43.703125 -1.421875 29.984375 -1.421875 
Q 24.8125 -1.421875 18.96875 -0.25 
Q 13.140625 0.921875 6.890625 3.21875 
L 6.890625 13.375 
Q 12.890625 10.015625 18.65625 8.296875 
Q 24.421875 6.59375 29.984375 6.59375 
Q 38.421875 6.59375 43.015625 9.90625 
Q 47.609375 13.234375 47.609375 19.390625 
Q 47.609375 24.75 44.3125 27.78125 
Q 41.015625 30.8125 33.5 32.328125 
L 27.484375 33.5 
Q 16.453125 35.6875 11.515625 40.375 
Q 6.59375 45.0625 6.59375 53.421875 
Q 6.59375 63.09375 13.40625 68.65625 
Q 20.21875 74.21875 32.171875 74.21875 
Q 37.3125 74.21875 42.625 73.28125 
Q 47.953125 72.359375 53.515625 70.515625 
z
" id="DejaVuSans-83"/>
      <path d="M 8.5 21.578125 
L 8.5 54.6875 
L 17.484375 54.6875 
L 17.484375 21.921875 
Q 17.484375 14.15625 20.5 10.265625 
Q 23.53125 6.390625 29.59375 6.390625 
Q 36.859375 6.390625 41.078125 11.03125 
Q 45.3125 15.671875 45.3125 23.6875 
L 45.3125 54.6875 
L 54.296875 54.6875 
L 54.296875 0 
L 45.3125 0 
L 45.3125 8.40625 
Q 42.046875 3.421875 37.71875 1 
Q 33.40625 -1.421875 27.6875 -1.421875 
Q 18.265625 -1.421875 13.375 4.4375 
Q 8.5 10.296875 8.5 21.578125 
z
M 31.109375 56 
z
" id="DejaVuSans-117"/>
      <path d="M 45.40625 46.390625 
L 45.40625 75.984375 
L 54.390625 75.984375 
L 54.390625 0 
L 45.40625 0 
L 45.40625 8.203125 
Q 42.578125 3.328125 38.25 0.953125 
Q 33.9375 -1.421875 27.875 -1.421875 
Q 17.96875 -1.421875 11.734375 6.484375 
Q 5.515625 14.40625 5.515625 27.296875 
Q 5.515625 40.1875 11.734375 48.09375 
Q 17.96875 56 27.875 56 
Q 33.9375 56 38.25 53.625 
Q 42.578125 51.265625 45.40625 46.390625 
z
M 14.796875 27.296875 
Q 14.796875 17.390625 18.875 11.75 
Q 22.953125 6.109375 30.078125 6.109375 
Q 37.203125 6.109375 41.296875 11.75 
Q 45.40625 17.390625 45.40625 27.296875 
Q 45.40625 37.203125 41.296875 42.84375 
Q 37.203125 48.484375 30.078125 48.484375 
Q 22.953125 48.484375 18.875 42.84375 
Q 14.796875 37.203125 14.796875 27.296875 
z
" id="DejaVuSans-100"/>
      <path d="M 54.890625 33.015625 
L 54.890625 0 
L 45.90625 0 
L 45.90625 32.71875 
Q 45.90625 40.484375 42.875 44.328125 
Q 39.84375 48.1875 33.796875 48.1875 
Q 26.515625 48.1875 22.3125 43.546875 
Q 18.109375 38.921875 18.109375 30.90625 
L 18.109375 0 
L 9.078125 0 
L 9.078125 54.6875 
L 18.109375 54.6875 
L 18.109375 46.1875 
Q 21.34375 51.125 25.703125 53.5625 
Q 30.078125 56 35.796875 56 
Q 45.21875 56 50.046875 50.171875 
Q 54.890625 44.34375 54.890625 33.015625 
z
" id="DejaVuSans-110"/>
      <path d="M 44.28125 53.078125 
L 44.28125 44.578125 
Q 40.484375 46.53125 36.375 47.5 
Q 32.28125 48.484375 27.875 48.484375 
Q 21.1875 48.484375 17.84375 46.4375 
Q 14.5 44.390625 14.5 40.28125 
Q 14.5 37.15625 16.890625 35.375 
Q 19.28125 33.59375 26.515625 31.984375 
L 29.59375 31.296875 
Q 39.15625 29.25 43.1875 25.515625 
Q 47.21875 21.78125 47.21875 15.09375 
Q 47.21875 7.46875 41.1875 3.015625 
Q 35.15625 -1.421875 24.609375 -1.421875 
Q 20.21875 -1.421875 15.453125 -0.5625 
Q 10.6875 0.296875 5.421875 2 
L 5.421875 11.28125 
Q 10.40625 8.6875 15.234375 7.390625 
Q 20.0625 6.109375 24.8125 6.109375 
Q 31.15625 6.109375 34.5625 8.28125 
Q 37.984375 10.453125 37.984375 14.40625 
Q 37.984375 18.0625 35.515625 20.015625 
Q 33.0625 21.96875 24.703125 23.78125 
L 21.578125 24.515625 
Q 13.234375 26.265625 9.515625 29.90625 
Q 5.8125 33.546875 5.8125 39.890625 
Q 5.8125 47.609375 11.28125 51.796875 
Q 16.75 56 26.8125 56 
Q 31.78125 56 36.171875 55.265625 
Q 40.578125 54.546875 44.28125 53.078125 
z
" id="DejaVuSans-115"/>
      <path id="DejaVuSans-32"/>
      <path d="M 44.390625 34.1875 
Q 47.5625 33.109375 50.5625 29.59375 
Q 53.5625 26.078125 56.59375 19.921875 
L 66.609375 0 
L 56 0 
L 46.6875 18.703125 
Q 43.0625 26.03125 39.671875 28.421875 
Q 36.28125 30.8125 30.421875 30.8125 
L 19.671875 30.8125 
L 19.671875 0 
L 9.8125 0 
L 9.8125 72.90625 
L 32.078125 72.90625 
Q 44.578125 72.90625 50.734375 67.671875 
Q 56.890625 62.453125 56.890625 51.90625 
Q 56.890625 45.015625 53.6875 40.46875 
Q 50.484375 35.9375 44.390625 34.1875 
z
M 19.671875 64.796875 
L 19.671875 38.921875 
L 32.078125 38.921875 
Q 39.203125 38.921875 42.84375 42.21875 
Q 46.484375 45.515625 46.484375 51.90625 
Q 46.484375 58.296875 42.84375 61.546875 
Q 39.203125 64.796875 32.078125 64.796875 
z
" id="DejaVuSans-82"/>
      <path d="M 45.40625 27.984375 
Q 45.40625 37.75 41.375 43.109375 
Q 37.359375 48.484375 30.078125 48.484375 
Q 22.859375 48.484375 18.828125 43.109375 
Q 14.796875 37.75 14.796875 27.984375 
Q 14.796875 18.265625 18.828125 12.890625 
Q 22.859375 7.515625 30.078125 7.515625 
Q 37.359375 7.515625 41.375 12.890625 
Q 45.40625 18.265625 45.40625 27.984375 
z
M 54.390625 6.78125 
Q 54.390625 -7.171875 48.1875 -13.984375 
Q 42 -20.796875 29.203125 -20.796875 
Q 24.46875 -20.796875 20.265625 -20.09375 
Q 16.0625 -19.390625 12.109375 -17.921875 
L 12.109375 -9.1875 
Q 16.0625 -11.328125 19.921875 -12.34375 
Q 23.78125 -13.375 27.78125 -13.375 
Q 36.625 -13.375 41.015625 -8.765625 
Q 45.40625 -4.15625 45.40625 5.171875 
L 45.40625 9.625 
Q 42.625 4.78125 38.28125 2.390625 
Q 33.9375 0 27.875 0 
Q 17.828125 0 11.671875 7.65625 
Q 5.515625 15.328125 5.515625 27.984375 
Q 5.515625 40.671875 11.671875 48.328125 
Q 17.828125 56 27.875 56 
Q 33.9375 56 38.28125 53.609375 
Q 42.625 51.21875 45.40625 46.390625 
L 45.40625 54.6875 
L 54.390625 54.6875 
z
" id="DejaVuSans-103"/>
      <path d="M 9.421875 54.6875 
L 18.40625 54.6875 
L 18.40625 0 
L 9.421875 0 
z
M 9.421875 75.984375 
L 18.40625 75.984375 
L 18.40625 64.59375 
L 9.421875 64.59375 
z
" id="DejaVuSans-105"/>
      <path d="M 41.109375 46.296875 
Q 39.59375 47.171875 37.8125 47.578125 
Q 36.03125 48 33.890625 48 
Q 26.265625 48 22.1875 43.046875 
Q 18.109375 38.09375 18.109375 28.8125 
L 18.109375 0 
L 9.078125 0 
L 9.078125 54.6875 
L 18.109375 54.6875 
L 18.109375 46.1875 
Q 20.953125 51.171875 25.484375 53.578125 
Q 30.03125 56 36.53125 56 
Q 37.453125 56 38.578125 55.875 
Q 39.703125 55.765625 41.0625 55.515625 
z
" id="DejaVuSans-114"/>
     </defs>
     <g transform="translate(17.745313 167.498979)rotate(-90)scale(0.1 -0.1)">
      <use xlink:href="#DejaVuSans-83"/>
      <use x="63.476562" xlink:href="#DejaVuSans-116"/>
      <use x="102.685547" xlink:href="#DejaVuSans-117"/>
      <use x="166.064453" xlink:href="#DejaVuSans-100"/>
      <use x="229.541016" xlink:href="#DejaVuSans-101"/>
      <use x="291.064453" xlink:href="#DejaVuSans-110"/>
      <use x="354.443359" xlink:href="#DejaVuSans-116"/>
      <use x="393.652344" xlink:href="#DejaVuSans-115"/>
      <use x="445.751953" xlink:href="#DejaVuSans-32"/>
      <use x="477.539062" xlink:href="#DejaVuSans-82"/>
      <use x="546.958984" xlink:href="#DejaVuSans-101"/>
      <use x="608.482422" xlink:href="#DejaVuSans-103"/>
      <use x="671.958984" xlink:href="#DejaVuSans-105"/>
      <use x="699.742188" xlink:href="#DejaVuSans-115"/>
      <use x="751.841797" xlink:href="#DejaVuSans-116"/>
      <use x="791.050781" xlink:href="#DejaVuSans-101"/>
      <use x="852.574219" xlink:href="#DejaVuSans-114"/>
      <use x="893.65625" xlink:href="#DejaVuSans-101"/>
      <use x="955.179688" xlink:href="#DejaVuSans-100"/>
     </g>
    </g>
   </g>
   <g id="line2d_21">
    <path clip-path="url(#p4c4a7100e4)" d="M 55.905 210.806645 
L 56.095419 210.806645 
L 56.095419 201.382519 
L 56.205293 201.382519 
L 56.943271 201.382519 
L 56.943271 196.670456 
L 57.03059 196.670456 
L 61.100005 196.670456 
L 61.100005 191.958393 
L 61.190367 191.958393 
L 64.533874 191.958393 
L 64.533874 177.822204 
L 64.624237 177.822204 
L 64.714585 177.822204 
L 64.714585 173.110142 
L 64.804963 173.110142 
L 64.895312 173.110142 
L 64.895312 154.26189 
L 64.985687 154.26189 
L 65.076039 154.26189 
L 65.076039 149.549827 
L 65.166402 149.549827 
L 65.25677 149.549827 
L 65.25677 140.125701 
L 65.347122 140.125701 
L 65.437525 140.125701 
L 65.437525 125.989512 
L 65.527885 125.989512 
L 68.690618 125.989512 
L 68.690618 121.277449 
L 68.780979 121.277449 
L 68.871325 121.277449 
L 68.871325 116.565386 
L 68.961687 116.565386 
L 69.413524 116.565386 
L 69.413524 111.853323 
L 69.503896 111.853323 
L 69.774985 111.853323 
L 69.774985 97.717134 
L 69.865336 97.717134 
L 69.955709 97.717134 
L 69.955709 93.005071 
L 70.046094 93.005071 
L 73.57027 93.005071 
L 73.57027 88.293008 
L 73.660653 88.293008 
L 73.750992 88.293008 
L 73.750992 83.580945 
L 73.841383 83.580945 
L 74.112474 83.580945 
L 74.112474 78.868882 
L 74.20283 78.868882 
L 74.654649 78.868882 
L 74.654649 74.156819 
L 74.745004 74.156819 
L 77.727057 74.156819 
L 77.727057 69.444756 
L 77.817389 69.444756 
L 86.221291 69.444756 
L 86.221291 45.884441 
L 86.311611 45.884441 
L 86.402002 45.884441 
L 86.402002 36.460315 
L 86.492338 36.460315 
L 86.582741 36.460315 
L 86.582741 31.748252 
L 86.673086 31.748252 
L 147.488189 31.748252 
L 147.488189 36.460315 
L 147.57857 36.460315 
L 147.668912 36.460315 
L 147.668912 31.748252 
L 147.759277 31.748252 
L 157.428244 31.748252 
L 157.428244 36.460315 
L 157.518639 36.460315 
L 157.608986 36.460315 
L 157.608986 31.748252 
L 157.699345 31.748252 
L 246.888843 31.748252 
L 246.888843 22.324126 
L 246.979173 22.324126 
L 303.005 22.324126 
L 303.005 22.324126 
" style="fill:none;stroke:#1b9e77;stroke-linecap:square;stroke-width:1.5;"/>
   </g>
   <g id="line2d_22">
    <path clip-path="url(#p4c4a7100e4)" d="M 93.631151 196.670456 
L 94.534753 196.670456 
L 94.534753 182.534267 
L 94.625267 182.534267 
L 94.715486 182.534267 
L 94.715486 177.822204 
L 94.805887 177.822204 
L 94.89621 177.822204 
L 94.89621 158.973953 
L 94.986611 158.973953 
L 95.257684 158.973953 
L 95.257684 144.837764 
L 95.348049 144.837764 
L 95.619133 144.837764 
L 95.619133 116.565386 
L 95.709516 116.565386 
L 95.980587 116.565386 
L 95.980587 107.14126 
L 96.070982 107.14126 
L 96.16134 107.14126 
L 96.16134 102.429197 
L 96.251723 102.429197 
L 96.342052 102.429197 
L 96.342052 97.717134 
L 96.432448 97.717134 
L 96.703539 97.717134 
L 96.703539 93.005071 
L 96.793861 93.005071 
L 99.233697 93.005071 
L 99.233697 74.156819 
L 99.324092 74.156819 
L 99.595166 74.156819 
L 99.595166 69.444756 
L 99.685516 69.444756 
L 99.95665 69.444756 
L 99.95665 60.02063 
L 100.046996 60.02063 
L 100.137379 60.02063 
L 100.137379 55.308567 
L 100.22772 55.308567 
L 100.498841 55.308567 
L 100.498841 50.596504 
L 100.589174 50.596504 
L 104.294122 50.596504 
L 104.294122 45.884441 
L 104.384468 45.884441 
L 104.47482 45.884441 
L 104.47482 41.172378 
L 104.565225 41.172378 
L 104.655557 41.172378 
L 104.655557 36.460315 
L 104.745943 36.460315 
L 105.197767 36.460315 
L 105.197767 31.748252 
L 105.288134 31.748252 
L 116.764358 31.748252 
L 116.764358 22.324126 
L 116.854744 22.324126 
L 138.993956 22.324126 
L 138.993956 27.036189 
L 139.084331 27.036189 
L 140.078325 27.036189 
L 140.078325 22.324126 
L 140.168693 22.324126 
L 155.801718 22.324126 
L 155.801718 27.036189 
L 155.892086 27.036189 
L 157.247538 27.036189 
L 157.247538 22.324126 
L 157.337913 22.324126 
L 274.178839 22.324126 
L 274.178839 27.036189 
L 274.269192 27.036189 
L 279.239223 27.036189 
L 279.239223 22.324126 
L 279.329576 22.324126 
L 303.005 22.324126 
L 303.005 22.324126 
" style="fill:none;stroke:#d95f02;stroke-linecap:square;stroke-width:1.5;"/>
   </g>
   <g id="line2d_23">
    <path clip-path="url(#p4c4a7100e4)" d="M 55.905 182.534267 
L 56.095419 182.534267 
L 56.095419 177.822204 
L 56.205293 177.822204 
L 57.03059 177.822204 
L 57.03059 173.110142 
L 59.922278 173.110142 
L 59.922278 168.398079 
L 60.196389 168.398079 
L 60.196389 163.686016 
L 60.286763 163.686016 
L 60.377106 163.686016 
L 60.377106 158.973953 
L 60.467487 158.973953 
L 60.919316 158.973953 
L 60.919316 144.837764 
L 61.009699 144.837764 
L 61.100005 144.837764 
L 61.100005 140.125701 
L 61.190367 140.125701 
L 64.714585 140.125701 
L 64.714585 130.701575 
L 64.804963 130.701575 
L 64.895312 130.701575 
L 64.895312 125.989512 
L 64.985687 125.989512 
L 65.076039 125.989512 
L 65.076039 130.701575 
L 65.166402 130.701575 
L 65.437525 130.701575 
L 65.437525 125.989512 
L 65.527885 125.989512 
L 65.618217 125.989512 
L 65.618217 116.565386 
L 65.708576 116.565386 
L 66.521881 116.565386 
L 66.521881 107.14126 
L 66.612256 107.14126 
L 68.509893 107.14126 
L 68.509893 102.429197 
L 68.600248 102.429197 
L 68.690618 102.429197 
L 68.690618 83.580945 
L 68.780979 83.580945 
L 68.871325 83.580945 
L 68.871325 74.156819 
L 68.961687 74.156819 
L 69.232802 74.156819 
L 69.232802 69.444756 
L 69.323168 69.444756 
L 69.413524 69.444756 
L 69.413524 64.732693 
L 69.503896 64.732693 
L 69.594258 64.732693 
L 69.594258 60.02063 
L 69.684632 60.02063 
L 69.774985 60.02063 
L 69.774985 45.884441 
L 69.865336 45.884441 
L 69.955709 45.884441 
L 69.955709 41.172378 
L 70.046094 41.172378 
L 70.136447 41.172378 
L 70.136447 36.460315 
L 70.226796 36.460315 
L 73.208806 36.460315 
L 73.208806 27.036189 
L 73.299184 27.036189 
L 73.389574 27.036189 
L 73.389574 22.324126 
L 73.479928 22.324126 
L 94.715486 22.324126 
L 94.715486 27.036189 
L 94.805887 27.036189 
L 94.89621 27.036189 
L 94.89621 22.324126 
L 94.986611 22.324126 
L 273.998081 22.324126 
L 273.998081 27.036189 
L 274.088452 27.036189 
L 274.178839 27.036189 
L 274.178839 22.324126 
L 274.269192 22.324126 
L 303.005 22.324126 
L 303.005 22.324126 
" style="fill:none;stroke:#7570b3;stroke-linecap:square;stroke-width:1.5;"/>
   </g>
   <g id="line2d_24">
    <path clip-path="url(#p4c4a7100e4)" d="M 55.905 201.382519 
L 60.738597 201.382519 
L 60.738597 196.670456 
L 60.828934 196.670456 
L 64.353153 196.670456 
L 64.353153 191.958393 
L 64.443483 191.958393 
L 64.533874 191.958393 
L 64.533874 187.24633 
L 64.624237 187.24633 
L 64.714585 187.24633 
L 64.714585 177.822204 
L 64.804963 177.822204 
L 64.895312 177.822204 
L 64.895312 173.110142 
L 64.985687 173.110142 
L 65.076039 173.110142 
L 65.076039 168.398079 
L 65.166402 168.398079 
L 65.25677 168.398079 
L 65.25677 163.686016 
L 65.347122 163.686016 
L 65.618217 163.686016 
L 65.618217 158.973953 
L 65.708576 158.973953 
L 68.690618 158.973953 
L 68.690618 149.549827 
L 68.780979 149.549827 
L 68.871325 149.549827 
L 68.871325 144.837764 
L 68.961687 144.837764 
L 69.594258 144.837764 
L 69.594258 140.125701 
L 69.684632 140.125701 
L 69.774985 140.125701 
L 69.774985 130.701575 
L 69.865336 130.701575 
L 86.221291 130.701575 
L 86.221291 125.989512 
L 86.311611 125.989512 
L 86.402002 125.989512 
L 86.402002 121.277449 
L 86.492338 121.277449 
L 86.582741 121.277449 
L 86.582741 116.565386 
L 86.673086 116.565386 
L 86.76345 116.565386 
L 86.76345 111.853323 
L 86.853806 111.853323 
L 86.944197 111.853323 
L 86.944197 102.429197 
L 87.03454 102.429197 
L 87.124928 102.429197 
L 87.124928 97.717134 
L 87.215269 97.717134 
L 90.378016 97.717134 
L 90.423201 83.580945 
L 90.468379 83.580945 
L 90.739481 83.580945 
L 90.739481 74.156819 
L 90.829842 74.156819 
L 91.281671 74.156819 
L 91.281671 69.444756 
L 91.372038 69.444756 
L 91.462401 69.444756 
L 91.462401 60.02063 
L 91.552771 60.02063 
L 91.643127 60.02063 
L 91.643127 36.460315 
L 91.733488 36.460315 
L 91.823829 36.460315 
L 91.823829 22.324126 
L 91.914276 22.324126 
L 94.534753 22.324126 
L 94.534753 27.036189 
L 94.625267 27.036189 
L 94.89621 27.036189 
L 94.89621 22.324126 
L 94.986611 22.324126 
L 138.632486 22.324126 
L 138.632486 27.036189 
L 138.722882 27.036189 
L 138.813252 27.036189 
L 138.813252 22.324126 
L 138.90358 22.324126 
L 146.765312 22.324126 
L 146.765312 27.036189 
L 146.855642 27.036189 
L 147.12672 27.036189 
L 147.12672 22.324126 
L 147.217129 22.324126 
L 147.488189 22.324126 
L 147.488189 27.036189 
L 147.57857 27.036189 
L 148.211141 27.036189 
L 148.211141 22.324126 
L 148.301482 22.324126 
L 303.005 22.324126 
L 303.005 22.324126 
" style="fill:none;stroke:#e7298a;stroke-linecap:square;stroke-width:1.5;"/>
   </g>
   <g id="line2d_25">
    <path clip-path="url(#p4c4a7100e4)" d="M 55.905 201.382519 
L 61.100005 201.382519 
L 61.100005 196.670456 
L 61.190367 196.670456 
L 64.533874 196.670456 
L 64.533874 191.958393 
L 64.624237 191.958393 
L 65.25677 191.958393 
L 65.25677 187.24633 
L 65.347122 187.24633 
L 69.052045 187.24633 
L 69.052045 177.822204 
L 69.142431 177.822204 
L 69.413524 177.822204 
L 69.413524 173.110142 
L 69.503896 173.110142 
L 69.774985 173.110142 
L 69.774985 168.398079 
L 69.865336 168.398079 
L 69.955709 168.398079 
L 69.955709 163.686016 
L 70.046094 163.686016 
L 74.112474 163.686016 
L 74.112474 158.973953 
L 74.20283 158.973953 
L 78.269225 158.973953 
L 78.269225 154.26189 
L 78.359601 154.26189 
L 86.221291 154.26189 
L 86.221291 144.837764 
L 86.311611 144.837764 
L 86.582741 144.837764 
L 86.582741 140.125701 
L 86.673086 140.125701 
L 87.486381 140.125701 
L 87.486381 135.413638 
L 87.576731 135.413638 
L 90.378016 135.413638 
L 90.378016 130.701575 
L 90.468379 130.701575 
L 91.281671 130.701575 
L 91.281671 125.989512 
L 91.372038 125.989512 
L 91.462401 125.989512 
L 91.462401 121.277449 
L 91.552771 121.277449 
L 91.643127 121.277449 
L 91.688303 107.14126 
L 91.733488 107.14126 
L 94.715486 107.14126 
L 94.715486 102.429197 
L 94.805887 102.429197 
L 94.89621 102.429197 
L 94.89621 93.005071 
L 94.986611 93.005071 
L 95.076937 93.005071 
L 95.076937 88.293008 
L 95.167311 88.293008 
L 95.257684 88.293008 
L 95.302863 74.156819 
L 95.348049 74.156819 
L 95.619133 74.156819 
L 95.619133 60.02063 
L 95.709516 60.02063 
L 95.799885 60.02063 
L 95.799885 50.596504 
L 95.890261 50.596504 
L 95.980587 50.596504 
L 95.980587 31.748252 
L 96.070982 31.748252 
L 96.16134 31.748252 
L 96.16134 27.036189 
L 96.251723 27.036189 
L 97.064989 27.036189 
L 97.064989 22.324126 
L 97.155357 22.324126 
L 146.765312 22.324126 
L 146.765312 27.036189 
L 146.855642 27.036189 
L 146.946039 27.036189 
L 146.946039 22.324126 
L 147.036398 22.324126 
L 147.307476 22.324126 
L 147.307476 27.036189 
L 147.397861 27.036189 
L 147.84964 27.036189 
L 147.84964 31.748252 
L 147.94004 31.748252 
L 148.211141 31.748252 
L 148.211141 36.460315 
L 148.301482 36.460315 
L 153.090774 36.460315 
L 153.090774 41.172378 
L 153.181135 41.172378 
L 163.753769 41.172378 
L 163.753769 36.460315 
L 163.844136 36.460315 
L 183.814596 36.460315 
L 183.814596 41.172378 
L 183.904986 41.172378 
L 190.863023 41.172378 
L 190.863023 36.460315 
L 190.953381 36.460315 
L 212.911916 36.460315 
L 212.911916 31.748252 
L 213.002274 31.748252 
L 215.803523 31.748252 
L 215.803523 27.036189 
L 215.893892 27.036189 
L 220.863941 27.036189 
L 220.863941 22.324126 
L 246.888843 22.324126 
L 246.888843 31.748252 
L 246.979173 31.748252 
L 247.430984 31.748252 
L 247.430984 36.460315 
L 247.521391 36.460315 
L 278.877753 36.460315 
L 278.877753 41.172378 
L 278.96815 41.172378 
L 285.383984 41.172378 
L 285.383984 36.460315 
L 285.474336 36.460315 
L 289.721476 36.460315 
L 289.721476 31.748252 
L 289.811814 31.748252 
L 290.986531 31.748252 
L 290.986531 27.036189 
L 291.076941 27.036189 
L 303.005 27.036189 
L 303.005 27.036189 
" style="fill:none;stroke:#66a61e;stroke-linecap:square;stroke-width:1.5;"/>
   </g>
   <g id="line2d_26">
    <path clip-path="url(#p4c4a7100e4)" d="M 55.905 191.958393 
L 64.533874 191.958393 
L 64.533874 187.24633 
L 64.624237 187.24633 
L 65.437525 187.24633 
L 65.437525 182.534267 
L 65.527885 182.534267 
L 65.79897 182.534267 
L 65.79897 177.822204 
L 65.889345 177.822204 
L 69.232802 177.822204 
L 69.232802 173.110142 
L 69.323168 173.110142 
L 69.594258 173.110142 
L 69.594258 168.398079 
L 69.684632 168.398079 
L 73.208806 168.398079 
L 73.208806 163.686016 
L 73.299184 163.686016 
L 86.040537 163.686016 
L 86.040537 154.26189 
L 86.130883 154.26189 
L 86.221291 154.26189 
L 86.221291 144.837764 
L 86.311611 144.837764 
L 86.76345 144.837764 
L 86.76345 140.125701 
L 86.853806 140.125701 
L 87.486381 140.125701 
L 87.486381 135.413638 
L 87.576731 135.413638 
L 90.739481 135.413638 
L 90.739481 130.701575 
L 90.829842 130.701575 
L 91.100907 130.701575 
L 91.100907 121.277449 
L 91.191318 121.277449 
L 91.462401 121.277449 
L 91.462401 116.565386 
L 91.552771 116.565386 
L 92.546773 116.565386 
L 92.546773 111.853323 
L 92.637127 111.853323 
L 94.534753 111.853323 
L 94.534753 107.14126 
L 94.625267 107.14126 
L 94.89621 107.14126 
L 94.89621 102.429197 
L 94.986611 102.429197 
L 95.076937 102.429197 
L 95.076937 93.005071 
L 95.167311 93.005071 
L 95.438422 93.005071 
L 95.438422 88.293008 
L 95.528809 88.293008 
L 95.619133 88.293008 
L 95.664333 74.156819 
L 95.709516 74.156819 
L 95.799885 74.156819 
L 95.799885 64.732693 
L 95.890261 64.732693 
L 96.52277 64.732693 
L 96.52277 69.444756 
L 96.613175 69.444756 
L 99.233697 69.444756 
L 99.233697 60.02063 
L 99.324092 60.02063 
L 99.414469 60.02063 
L 99.414469 55.308567 
L 99.504833 55.308567 
L 99.775901 55.308567 
L 99.775901 50.596504 
L 99.866267 50.596504 
L 99.95665 50.596504 
L 99.95665 41.172378 
L 100.046996 41.172378 
L 100.137379 41.172378 
L 100.137379 36.460315 
L 100.22772 36.460315 
L 100.498841 36.460315 
L 100.498841 31.748252 
L 100.589174 31.748252 
L 248.876838 31.748252 
L 248.876838 36.460315 
L 248.967181 36.460315 
L 253.033569 36.460315 
L 253.033569 31.748252 
L 253.123958 31.748252 
L 303.005 31.748252 
L 303.005 31.748252 
" style="fill:none;stroke:#e6ab02;stroke-linecap:square;stroke-width:1.5;"/>
   </g>
   <g id="line2d_27">
    <path clip-path="url(#p4c4a7100e4)" d="M 55.905 196.670456 
L 60.738597 196.670456 
L 60.738597 191.958393 
L 60.828934 191.958393 
L 64.353153 191.958393 
L 64.353153 187.24633 
L 64.443483 187.24633 
L 64.533874 187.24633 
L 64.533874 182.534267 
L 64.624237 182.534267 
L 64.895312 182.534267 
L 64.895312 177.822204 
L 64.985687 177.822204 
L 65.076039 177.822204 
L 65.076039 173.110142 
L 65.166402 173.110142 
L 65.25677 173.110142 
L 65.25677 163.686016 
L 65.347122 163.686016 
L 65.437525 163.686016 
L 65.437525 158.973953 
L 65.527885 158.973953 
L 65.618217 158.973953 
L 65.618217 154.26189 
L 65.708576 154.26189 
L 68.509893 154.26189 
L 68.509893 149.549827 
L 68.600248 149.549827 
L 68.690618 149.549827 
L 68.690618 140.125701 
L 68.780979 140.125701 
L 69.052045 140.125701 
L 69.052045 135.413638 
L 69.142431 135.413638 
L 69.232802 135.413638 
L 69.232802 125.989512 
L 69.323168 125.989512 
L 69.594258 125.989512 
L 69.594258 121.277449 
L 69.684632 121.277449 
L 69.955709 121.277449 
L 69.955709 116.565386 
L 70.046094 116.565386 
L 70.136447 116.565386 
L 70.136447 111.853323 
L 70.226796 111.853323 
L 73.389574 111.853323 
L 73.389574 107.14126 
L 73.479928 107.14126 
L 74.112474 107.14126 
L 74.112474 102.429197 
L 74.20283 102.429197 
L 78.811384 102.429197 
L 78.811384 97.717134 
L 78.901767 97.717134 
L 86.040537 97.717134 
L 86.040537 93.005071 
L 86.130883 93.005071 
L 86.582741 93.005071 
L 86.582741 78.868882 
L 86.673086 78.868882 
L 86.76345 78.868882 
L 86.76345 69.444756 
L 86.853806 69.444756 
L 86.944197 69.444756 
L 86.944197 60.02063 
L 87.03454 60.02063 
L 87.486381 60.02063 
L 87.486381 55.308567 
L 87.576731 55.308567 
L 90.016567 55.308567 
L 90.016567 50.596504 
L 90.106926 50.596504 
L 90.55874 50.596504 
L 90.55874 45.884441 
L 90.649132 45.884441 
L 90.739481 45.884441 
L 90.739481 41.172378 
L 90.829842 41.172378 
L 90.920198 41.172378 
L 90.920198 36.460315 
L 91.010557 36.460315 
L 91.462401 36.460315 
L 91.462401 31.748252 
L 91.552771 31.748252 
L 303.005 31.748252 
L 303.005 31.748252 
" style="fill:none;stroke:#a6761d;stroke-linecap:square;stroke-width:1.5;"/>
   </g>
   <g id="line2d_28">
    <path clip-path="url(#p4c4a7100e4)" d="M 55.905 201.382519 
L 64.714585 201.382519 
L 64.714585 196.670456 
L 64.804963 196.670456 
L 65.25677 196.670456 
L 65.25677 191.958393 
L 65.347122 191.958393 
L 69.232802 191.958393 
L 69.232802 187.24633 
L 69.323168 187.24633 
L 69.594258 187.24633 
L 69.594258 191.958393 
L 69.684632 191.958393 
L 69.774985 191.958393 
L 69.774985 182.534267 
L 69.865336 182.534267 
L 86.221291 182.534267 
L 86.221291 177.822204 
L 86.311611 177.822204 
L 86.582741 177.822204 
L 86.582741 173.110142 
L 86.673086 173.110142 
L 86.944197 173.110142 
L 86.944197 168.398079 
L 87.03454 168.398079 
L 87.124928 168.398079 
L 87.124928 163.686016 
L 87.215269 163.686016 
L 88.028541 163.686016 
L 88.028541 158.973953 
L 88.118941 158.973953 
L 90.920198 158.973953 
L 90.920198 154.26189 
L 91.010557 154.26189 
L 91.462401 154.26189 
L 91.462401 149.549827 
L 91.552771 149.549827 
L 91.643127 149.549827 
L 91.643127 144.837764 
L 91.733488 144.837764 
L 94.715486 144.837764 
L 94.715486 135.413638 
L 94.805887 135.413638 
L 94.89621 135.413638 
L 94.89621 130.701575 
L 94.986611 130.701575 
L 95.076937 130.701575 
L 95.122122 116.565386 
L 95.167311 116.565386 
L 95.799885 116.565386 
L 95.799885 111.853323 
L 95.890261 111.853323 
L 95.980587 111.853323 
L 95.980587 107.14126 
L 96.070982 107.14126 
L 96.16134 107.14126 
L 96.16134 111.853323 
L 96.251723 111.853323 
L 96.342052 111.853323 
L 96.342052 107.14126 
L 96.432448 107.14126 
L 96.52277 107.14126 
L 96.52277 102.429197 
L 96.613175 102.429197 
L 98.69154 102.429197 
L 98.69154 107.14126 
L 98.781878 107.14126 
L 99.233697 107.14126 
L 99.233697 93.005071 
L 99.324092 93.005071 
L 99.595166 93.005071 
L 99.595166 88.293008 
L 99.685516 88.293008 
L 99.95665 88.293008 
L 99.95665 69.444756 
L 100.046996 69.444756 
L 100.137379 69.444756 
L 100.137379 64.732693 
L 100.22772 64.732693 
L 104.11337 64.732693 
L 104.11337 60.02063 
L 104.203728 60.02063 
L 118.752407 60.02063 
L 118.752407 55.308567 
L 118.842771 55.308567 
L 121.644054 55.308567 
L 121.644054 50.596504 
L 121.734393 50.596504 
L 121.82476 50.596504 
L 121.82476 55.308567 
L 121.915145 55.308567 
L 122.186219 55.308567 
L 122.186219 50.596504 
L 122.276604 50.596504 
L 126.52373 50.596504 
L 126.52373 45.884441 
L 126.614082 45.884441 
L 133.933551 45.884441 
L 133.933551 50.596504 
L 134.023924 50.596504 
L 138.993956 50.596504 
L 138.993956 45.884441 
L 139.084331 45.884441 
L 146.765312 45.884441 
L 146.765312 50.596504 
L 146.855642 50.596504 
L 147.12672 50.596504 
L 147.12672 55.308567 
L 147.217129 55.308567 
L 147.668912 55.308567 
L 147.668912 60.02063 
L 147.759277 60.02063 
L 152.729315 60.02063 
L 152.729315 64.732693 
L 152.819716 64.732693 
L 160.500625 64.732693 
L 160.500625 69.444756 
L 160.591015 69.444756 
L 178.573507 69.444756 
L 178.573507 74.156819 
L 178.663852 74.156819 
L 260.624185 74.156819 
L 260.624185 69.444756 
L 260.714586 69.444756 
L 265.50387 69.444756 
L 265.50387 74.156819 
L 265.594257 74.156819 
L 303.005 74.156819 
L 303.005 74.156819 
" style="fill:none;stroke:#666666;stroke-linecap:square;stroke-width:1.5;"/>
   </g>
   <g id="line2d_29">
    <path clip-path="url(#p4c4a7100e4)" d="M 55.905 196.670456 
L 59.922278 196.670456 
L 59.922278 191.958393 
L 65.25677 191.958393 
L 65.25677 187.24633 
L 65.347122 187.24633 
L 68.871325 187.24633 
L 68.871325 182.534267 
L 68.961687 182.534267 
L 69.232802 182.534267 
L 69.232802 177.822204 
L 69.323168 177.822204 
L 69.774985 177.822204 
L 69.774985 173.110142 
L 69.865336 173.110142 
L 69.955709 173.110142 
L 69.955709 168.398079 
L 70.046094 168.398079 
L 71.040087 168.398079 
L 71.040087 163.686016 
L 71.130469 163.686016 
L 86.582741 163.686016 
L 86.582741 154.26189 
L 86.673086 154.26189 
L 90.739481 154.26189 
L 90.739481 149.549827 
L 90.829842 149.549827 
L 91.643127 149.549827 
L 91.643127 144.837764 
L 91.733488 144.837764 
L 92.185328 144.837764 
L 92.185328 140.125701 
L 92.275681 140.125701 
L 94.89621 140.125701 
L 94.89621 135.413638 
L 94.986611 135.413638 
L 95.076937 135.413638 
L 95.076937 125.989512 
L 95.167311 125.989512 
L 95.619133 125.989512 
L 95.619133 116.565386 
L 95.709516 116.565386 
L 99.595166 116.565386 
L 99.595166 111.853323 
L 99.685516 111.853323 
L 100.137379 111.853323 
L 100.137379 107.14126 
L 100.22772 107.14126 
L 100.679528 107.14126 
L 100.679528 102.429197 
L 100.769912 102.429197 
L 105.197767 102.429197 
L 105.197767 97.717134 
L 105.288134 97.717134 
L 117.66802 97.717134 
L 117.66802 93.005071 
L 117.758396 93.005071 
L 121.82476 93.005071 
L 121.82476 88.293008 
L 121.915145 88.293008 
L 126.52373 88.293008 
L 126.52373 93.005071 
L 126.614082 93.005071 
L 147.307476 93.005071 
L 147.307476 88.293008 
L 147.397861 88.293008 
L 147.488189 88.293008 
L 147.488189 93.005071 
L 147.57857 93.005071 
L 152.006418 93.005071 
L 152.006418 88.293008 
L 152.096803 88.293008 
L 183.814596 88.293008 
L 183.814596 83.580945 
L 183.904986 83.580945 
L 212.73115 83.580945 
L 212.73115 78.868882 
L 212.821513 78.868882 
L 221.948318 78.868882 
L 221.948318 83.580945 
L 222.038673 83.580945 
L 279.239223 83.580945 
L 279.239223 88.293008 
L 279.329576 88.293008 
L 281.407976 88.293008 
L 281.407976 93.005071 
L 281.498338 93.005071 
L 296.589162 93.005071 
L 296.589162 88.293008 
L 296.679508 88.293008 
L 299.119357 88.293008 
L 299.119357 83.580945 
L 299.209726 83.580945 
L 302.73389 83.580945 
L 302.73389 78.868882 
L 302.824292 78.868882 
L 303.005 78.868882 
L 303.005 78.868882 
" style="fill:none;stroke:#1b9e77;stroke-dasharray:4.5,1.5;stroke-dashoffset:0;stroke-width:1.5;"/>
   </g>
   <g id="line2d_30">
    <path clip-path="url(#p4c4a7100e4)" d="M 55.905 206.094582 
L 64.353153 206.094582 
L 64.353153 201.382519 
L 64.443483 201.382519 
L 64.533874 201.382519 
L 64.533874 196.670456 
L 64.624237 196.670456 
L 65.25677 196.670456 
L 65.25677 187.24633 
L 65.347122 187.24633 
L 68.690618 187.24633 
L 68.690618 182.534267 
L 68.780979 182.534267 
L 69.594258 182.534267 
L 69.594258 177.822204 
L 69.684632 177.822204 
L 69.774985 177.822204 
L 69.774985 173.110142 
L 69.865336 173.110142 
L 69.955709 173.110142 
L 69.955709 168.398079 
L 70.046094 168.398079 
L 86.402002 168.398079 
L 86.402002 163.686016 
L 86.492338 163.686016 
L 86.582741 163.686016 
L 86.582741 158.973953 
L 86.673086 158.973953 
L 86.76345 158.973953 
L 86.76345 149.549827 
L 86.853806 149.549827 
L 91.281671 149.549827 
L 91.281671 144.837764 
L 91.372038 144.837764 
L 91.462401 144.837764 
L 91.462401 140.125701 
L 91.552771 140.125701 
L 94.534753 140.125701 
L 94.534753 144.837764 
L 94.625267 144.837764 
L 95.076937 144.837764 
L 95.076937 135.413638 
L 95.167311 135.413638 
L 95.257684 135.413638 
L 95.257684 140.125701 
L 95.348049 140.125701 
L 95.438422 140.125701 
L 95.438422 135.413638 
L 95.528809 135.413638 
L 95.799885 135.413638 
L 95.799885 125.989512 
L 95.890261 125.989512 
L 95.980587 125.989512 
L 95.980587 121.277449 
L 96.070982 121.277449 
L 104.47482 121.277449 
L 104.47482 116.565386 
L 104.565225 116.565386 
L 105.017037 116.565386 
L 105.017037 111.853323 
L 105.107389 111.853323 
L 113.691974 111.853323 
L 113.691974 107.14126 
L 113.78234 107.14126 
L 130.138261 107.14126 
L 130.138261 102.429197 
L 130.228639 102.429197 
L 130.861174 102.429197 
L 130.861174 97.717134 
L 130.951581 97.717134 
L 134.475771 97.717134 
L 134.475771 93.005071 
L 134.56614 93.005071 
L 148.753324 93.005071 
L 148.753324 88.293008 
L 148.843656 88.293008 
L 256.467407 88.293008 
L 256.467407 93.005071 
L 256.557813 93.005071 
L 260.624185 93.005071 
L 260.624185 97.717134 
L 260.714586 97.717134 
L 298.938618 97.717134 
L 298.938618 93.005071 
L 299.028957 93.005071 
L 299.661508 93.005071 
L 299.661508 88.293008 
L 299.751883 88.293008 
L 303.005 88.293008 
L 303.005 88.293008 
" style="fill:none;stroke:#d95f02;stroke-dasharray:4.5,1.5;stroke-dashoffset:0;stroke-width:1.5;"/>
   </g>
   <g id="line2d_31">
    <path clip-path="url(#p4c4a7100e4)" d="M 55.905 206.094582 
L 64.714585 206.094582 
L 64.714585 201.382519 
L 64.804963 201.382519 
L 69.594258 201.382519 
L 69.594258 191.958393 
L 69.684632 191.958393 
L 86.040537 191.958393 
L 86.040537 187.24633 
L 86.130883 187.24633 
L 86.402002 187.24633 
L 86.402002 182.534267 
L 86.492338 182.534267 
L 86.944197 182.534267 
L 86.944197 177.822204 
L 87.03454 177.822204 
L 90.378016 177.822204 
L 90.378016 173.110142 
L 90.468379 173.110142 
L 90.55874 173.110142 
L 90.55874 163.686016 
L 90.649132 163.686016 
L 90.739481 163.686016 
L 90.739481 158.973953 
L 90.829842 158.973953 
L 91.100907 158.973953 
L 91.100907 154.26189 
L 91.191318 154.26189 
L 91.281671 154.26189 
L 91.281671 144.837764 
L 91.372038 144.837764 
L 91.462401 144.837764 
L 91.462401 135.413638 
L 91.552771 135.413638 
L 92.185328 135.413638 
L 92.185328 130.701575 
L 92.275681 130.701575 
L 92.546773 130.701575 
L 92.546773 125.989512 
L 92.637127 125.989512 
L 92.727468 125.989512 
L 92.727468 130.701575 
L 92.81788 130.701575 
L 94.354043 130.701575 
L 94.354043 135.413638 
L 94.44443 135.413638 
L 94.534753 135.413638 
L 94.534753 140.125701 
L 94.625267 140.125701 
L 94.715486 140.125701 
L 94.715486 135.413638 
L 94.805887 135.413638 
L 94.89621 135.413638 
L 94.89621 140.125701 
L 94.986611 140.125701 
L 95.076937 140.125701 
L 95.076937 135.413638 
L 95.167311 135.413638 
L 95.257684 135.413638 
L 95.257684 130.701575 
L 95.348049 130.701575 
L 95.619133 130.701575 
L 95.619133 135.413638 
L 95.709516 135.413638 
L 99.775901 135.413638 
L 99.775901 130.701575 
L 99.866267 130.701575 
L 100.137379 130.701575 
L 100.137379 125.989512 
L 100.22772 125.989512 
L 104.294122 125.989512 
L 104.294122 121.277449 
L 104.384468 121.277449 
L 105.559206 121.277449 
L 105.559206 116.565386 
L 105.649555 116.565386 
L 117.125829 116.565386 
L 117.125829 111.853323 
L 117.216208 111.853323 
L 117.306555 111.853323 
L 117.306555 107.14126 
L 117.396925 107.14126 
L 118.02945 107.14126 
L 118.02945 102.429197 
L 118.119844 102.429197 
L 126.52373 102.429197 
L 126.52373 97.717134 
L 126.614082 97.717134 
L 127.065868 97.717134 
L 127.065868 93.005071 
L 127.156268 93.005071 
L 136.102319 93.005071 
L 136.102319 88.293008 
L 136.192658 88.293008 
L 140.078325 88.293008 
L 140.078325 93.005071 
L 140.168693 93.005071 
L 147.12672 93.005071 
L 147.12672 97.717134 
L 147.217129 97.717134 
L 178.212042 97.717134 
L 178.212042 93.005071 
L 178.30242 93.005071 
L 208.755161 93.005071 
L 208.755161 88.293008 
L 208.845505 88.293008 
L 212.188988 88.293008 
L 212.188988 83.580945 
L 212.279324 83.580945 
L 224.659229 83.580945 
L 224.659229 78.868882 
L 224.749607 78.868882 
L 251.04561 78.868882 
L 251.04561 83.580945 
L 251.135972 83.580945 
L 251.226293 83.580945 
L 251.226293 78.868882 
L 251.316656 78.868882 
L 287.552717 78.868882 
L 287.552717 83.580945 
L 287.643064 83.580945 
L 295.866229 83.580945 
L 295.866229 88.293008 
L 295.956575 88.293008 
L 303.005 88.293008 
L 303.005 88.293008 
" style="fill:none;stroke:#7570b3;stroke-dasharray:4.5,1.5;stroke-dashoffset:0;stroke-width:1.5;"/>
   </g>
   <g id="line2d_32">
    <path clip-path="url(#p4c4a7100e4)" d="M 55.905 210.806645 
L 61.28073 210.806645 
L 61.28073 206.094582 
L 61.371099 206.094582 
L 62.003679 206.094582 
L 62.003679 201.382519 
L 62.094034 201.382519 
L 73.389574 201.382519 
L 73.389574 196.670456 
L 73.479928 196.670456 
L 86.040537 196.670456 
L 86.040537 191.958393 
L 86.130883 191.958393 
L 87.30563 191.958393 
L 87.30563 182.534267 
L 87.395986 182.534267 
L 90.739481 182.534267 
L 90.739481 177.822204 
L 90.829842 177.822204 
L 90.920198 177.822204 
L 90.920198 173.110142 
L 91.010557 173.110142 
L 91.462401 173.110142 
L 91.462401 163.686016 
L 91.552771 163.686016 
L 91.643127 163.686016 
L 91.643127 158.973953 
L 91.733488 158.973953 
L 92.727468 158.973953 
L 92.727468 154.26189 
L 92.81788 154.26189 
L 94.89621 154.26189 
L 94.89621 158.973953 
L 94.986611 158.973953 
L 95.257684 158.973953 
L 95.257684 154.26189 
L 95.348049 154.26189 
L 95.438422 154.26189 
L 95.438422 149.549827 
L 95.528809 149.549827 
L 95.799885 149.549827 
L 95.799885 144.837764 
L 95.890261 144.837764 
L 95.980587 144.837764 
L 95.980587 149.549827 
L 96.070982 149.549827 
L 96.16134 149.549827 
L 96.16134 144.837764 
L 96.251723 144.837764 
L 99.233697 144.837764 
L 99.233697 140.125701 
L 99.324092 140.125701 
L 105.017037 140.125701 
L 105.017037 135.413638 
L 105.107389 135.413638 
L 117.125829 135.413638 
L 117.125829 130.701575 
L 117.216208 130.701575 
L 134.295017 130.701575 
L 134.295017 125.989512 
L 134.385422 125.989512 
L 155.801718 125.989512 
L 155.801718 121.277449 
L 155.892086 121.277449 
L 178.573507 121.277449 
L 178.573507 116.565386 
L 178.663852 116.565386 
L 220.863941 116.565386 
L 220.863941 111.853323 
L 238.213856 111.853323 
L 238.213856 107.14126 
L 238.304241 107.14126 
L 273.998081 107.14126 
L 273.998081 102.429197 
L 274.088452 102.429197 
L 279.058479 102.429197 
L 279.058479 97.717134 
L 279.148847 97.717134 
L 285.745417 97.717134 
L 285.745417 93.005071 
L 285.835805 93.005071 
L 303.005 93.005071 
L 303.005 93.005071 
" style="fill:none;stroke:#e7298a;stroke-dasharray:4.5,1.5;stroke-dashoffset:0;stroke-width:1.5;"/>
   </g>
   <g id="line2d_33">
    <path clip-path="url(#p4c4a7100e4)" d="M 55.905 210.806645 
L 60.558008 210.806645 
L 60.558008 206.094582 
L 60.648217 206.094582 
L 60.919316 206.094582 
L 60.919316 201.382519 
L 61.009699 201.382519 
L 65.076039 201.382519 
L 65.076039 196.670456 
L 65.166402 196.670456 
L 69.774985 196.670456 
L 69.774985 191.958393 
L 69.865336 191.958393 
L 72.666647 191.958393 
L 72.666647 187.24633 
L 72.757038 187.24633 
L 73.57027 187.24633 
L 73.57027 182.534267 
L 73.660653 182.534267 
L 73.931743 182.534267 
L 73.931743 177.822204 
L 74.02209 177.822204 
L 86.040537 177.822204 
L 86.040537 168.398079 
L 86.130883 168.398079 
L 86.402002 168.398079 
L 86.402002 163.686016 
L 86.492338 163.686016 
L 86.582741 163.686016 
L 86.582741 158.973953 
L 86.673086 158.973953 
L 86.76345 158.973953 
L 86.76345 154.26189 
L 86.853806 154.26189 
L 86.944197 154.26189 
L 86.944197 144.837764 
L 87.03454 144.837764 
L 87.124928 144.837764 
L 87.124928 140.125701 
L 87.215269 140.125701 
L 87.486381 140.125701 
L 87.486381 135.413638 
L 87.576731 135.413638 
L 87.847853 135.413638 
L 87.847853 130.701575 
L 87.938202 130.701575 
L 88.38999 130.701575 
L 88.38999 125.989512 
L 88.480397 125.989512 
L 90.378016 125.989512 
L 90.378016 121.277449 
L 90.468379 121.277449 
L 90.55874 121.277449 
L 90.55874 116.565386 
L 90.649132 116.565386 
L 90.739481 116.565386 
L 90.739481 102.429197 
L 90.829842 102.429197 
L 90.920198 102.429197 
L 90.920198 97.717134 
L 91.010557 97.717134 
L 91.100907 97.717134 
L 91.100907 93.005071 
L 91.191318 93.005071 
L 92.727468 93.005071 
L 92.727468 97.717134 
L 92.81788 97.717134 
L 95.076937 97.717134 
L 95.076937 93.005071 
L 95.167311 93.005071 
L 95.257684 93.005071 
L 95.257684 97.717134 
L 95.348049 97.717134 
L 95.438422 97.717134 
L 95.438422 93.005071 
L 95.528809 93.005071 
L 100.498841 93.005071 
L 100.498841 97.717134 
L 100.589174 97.717134 
L 100.679528 97.717134 
L 100.679528 93.005071 
L 100.769912 93.005071 
L 273.636653 93.005071 
L 273.636653 97.717134 
L 273.72698 97.717134 
L 287.552717 97.717134 
L 287.552717 93.005071 
L 287.643064 93.005071 
L 303.005 93.005071 
L 303.005 93.005071 
" style="fill:none;stroke:#66a61e;stroke-dasharray:4.5,1.5;stroke-dashoffset:0;stroke-width:1.5;"/>
   </g>
   <g id="line2d_34">
    <path clip-path="url(#p4c4a7100e4)" d="M 137.051125 210.806645 
L 138.632486 210.806645 
L 138.632486 206.094582 
L 138.722882 206.094582 
L 144.054376 206.094582 
L 144.054376 201.382519 
L 144.144714 201.382519 
L 146.765312 201.382519 
L 146.765312 182.534267 
L 146.855642 182.534267 
L 147.12672 182.534267 
L 147.12672 173.110142 
L 147.217129 173.110142 
L 147.488189 173.110142 
L 147.488189 158.973953 
L 147.57857 158.973953 
L 147.84964 158.973953 
L 147.84964 154.26189 
L 147.94004 154.26189 
L 151.464246 154.26189 
L 151.464246 149.549827 
L 151.554609 149.549827 
L 152.367878 149.549827 
L 152.367878 144.837764 
L 152.458236 144.837764 
L 152.729315 144.837764 
L 152.729315 140.125701 
L 152.819716 140.125701 
L 153.090774 140.125701 
L 153.090774 135.413638 
L 153.181135 135.413638 
L 153.271509 135.413638 
L 153.271509 130.701575 
L 153.361854 130.701575 
L 155.801718 130.701575 
L 155.801718 125.989512 
L 155.892086 125.989512 
L 157.428244 125.989512 
L 157.428244 121.277449 
L 157.518639 121.277449 
L 160.500625 121.277449 
L 160.500625 116.565386 
L 160.591015 116.565386 
L 215.803523 116.565386 
L 215.803523 121.277449 
L 215.893892 121.277449 
L 216.707155 121.277449 
L 216.707155 116.565386 
L 216.797553 116.565386 
L 247.069562 116.565386 
L 247.069562 111.853323 
L 247.15994 111.853323 
L 247.430984 111.853323 
L 247.430984 107.14126 
L 247.521391 107.14126 
L 248.876838 107.14126 
L 248.876838 102.429197 
L 248.967181 102.429197 
L 273.455888 102.429197 
L 273.455888 97.717134 
L 273.54626 97.717134 
L 303.005 97.717134 
L 303.005 97.717134 
" style="fill:none;stroke:#e6ab02;stroke-dasharray:4.5,1.5;stroke-dashoffset:0;stroke-width:1.5;"/>
   </g>
   <g id="line2d_35">
    <path clip-path="url(#p4c4a7100e4)" d="M 55.905 206.094582 
L 64.895312 206.094582 
L 64.895312 196.670456 
L 64.985687 196.670456 
L 68.871325 196.670456 
L 68.871325 187.24633 
L 68.961687 187.24633 
L 69.052045 187.24633 
L 69.052045 182.534267 
L 69.142431 182.534267 
L 69.774985 182.534267 
L 69.774985 177.822204 
L 69.865336 177.822204 
L 69.955709 177.822204 
L 69.955709 173.110142 
L 70.046094 173.110142 
L 86.76345 173.110142 
L 86.76345 168.398079 
L 86.853806 168.398079 
L 86.944197 168.398079 
L 86.944197 163.686016 
L 87.03454 163.686016 
L 87.124928 163.686016 
L 87.124928 158.973953 
L 87.215269 158.973953 
L 87.667074 158.973953 
L 87.667074 154.26189 
L 87.757479 154.26189 
L 87.847853 154.26189 
L 87.847853 158.973953 
L 87.938202 158.973953 
L 90.378016 158.973953 
L 90.378016 140.125701 
L 90.468379 140.125701 
L 90.739481 140.125701 
L 90.739481 130.701575 
L 90.829842 130.701575 
L 90.920198 130.701575 
L 90.920198 125.989512 
L 91.010557 125.989512 
L 91.100907 125.989512 
L 91.100907 116.565386 
L 91.191318 116.565386 
L 303.005 116.565386 
L 303.005 116.565386 
" style="fill:none;stroke:#a6761d;stroke-dasharray:4.5,1.5;stroke-dashoffset:0;stroke-width:1.5;"/>
   </g>
   <g id="line2d_36">
    <path clip-path="url(#p4c4a7100e4)" d="M 55.905 210.806645 
L 65.25677 210.806645 
L 65.25677 206.094582 
L 65.347122 206.094582 
L 65.437525 206.094582 
L 65.437525 201.382519 
L 65.527885 201.382519 
L 69.052045 201.382519 
L 69.052045 196.670456 
L 69.142431 196.670456 
L 69.955709 196.670456 
L 69.955709 191.958393 
L 70.046094 191.958393 
L 70.317166 191.958393 
L 70.317166 187.24633 
L 70.40755 187.24633 
L 70.678641 187.24633 
L 70.678641 182.534267 
L 70.769013 182.534267 
L 73.389574 182.534267 
L 73.389574 187.24633 
L 73.479928 187.24633 
L 86.221291 187.24633 
L 86.221291 182.534267 
L 86.311611 182.534267 
L 87.30563 182.534267 
L 87.30563 173.110142 
L 87.395986 173.110142 
L 90.55874 173.110142 
L 90.55874 168.398079 
L 90.649132 168.398079 
L 91.281671 168.398079 
L 91.281671 149.549827 
L 91.372038 149.549827 
L 91.462401 149.549827 
L 91.462401 144.837764 
L 91.552771 144.837764 
L 91.643127 144.837764 
L 91.643127 140.125701 
L 91.733488 140.125701 
L 147.12672 140.125701 
L 147.12672 144.837764 
L 147.217129 144.837764 
L 147.307476 144.837764 
L 147.307476 140.125701 
L 147.397861 140.125701 
L 256.467407 140.125701 
L 256.467407 135.413638 
L 256.557813 135.413638 
L 265.50387 135.413638 
L 265.50387 130.701575 
L 265.594257 130.701575 
L 278.877753 130.701575 
L 278.877753 125.989512 
L 278.96815 125.989512 
L 281.407976 125.989512 
L 281.407976 121.277449 
L 281.498338 121.277449 
L 282.130883 121.277449 
L 282.130883 116.565386 
L 282.221232 116.565386 
L 303.005 116.565386 
L 303.005 116.565386 
" style="fill:none;stroke:#666666;stroke-dasharray:4.5,1.5;stroke-dashoffset:0;stroke-width:1.5;"/>
   </g>
   <g id="line2d_37"/>
   <g id="line2d_38"/>
   <g id="line2d_39"/>
   <g id="line2d_40"/>
   <g id="line2d_41"/>
   <g id="line2d_42"/>
   <g id="line2d_43"/>
   <g id="line2d_44"/>
   <g id="line2d_45"/>
   <g id="line2d_46"/>
   <g id="line2d_47"/>
   <g id="line2d_48"/>
   <g id="line2d_49"/>
   <g id="line2d_50"/>
   <g id="line2d_51"/>
   <g id="line2d_52"/>
   <g id="line2d_53"/>
   <g id="patch_3">
    <path d="M 43.55 220.230771 
L 43.55 12.9 
" style="fill:none;stroke:#000000;stroke-linecap:square;stroke-linejoin:miter;stroke-width:0.8;"/>
   </g>
   <g id="patch_4">
    <path d="M 315.36 220.230771 
L 315.36 12.9 
" style="fill:none;stroke:#000000;stroke-linecap:square;stroke-linejoin:miter;stroke-width:0.8;"/>
   </g>
   <g id="patch_5">
    <path d="M 43.55 220.230771 
L 315.36 220.230771 
" style="fill:none;stroke:#000000;stroke-linecap:square;stroke-linejoin:miter;stroke-width:0.8;"/>
   </g>
   <g id="patch_6">
    <path d="M 43.55 12.9 
L 315.36 12.9 
" style="fill:none;stroke:#000000;stroke-linecap:square;stroke-linejoin:miter;stroke-width:0.8;"/>
   </g>
  </g>
  <g id="legend_1">
   <g id="patch_7">
    <path d="M 331.8625 262.528125 
L 420 262.528125 
Q 422 262.528125 422 260.528125 
L 422 12 
Q 422 10 420 10 
L 331.8625 10 
Q 329.8625 10 329.8625 12 
L 329.8625 260.528125 
Q 329.8625 262.528125 331.8625 262.528125 
z
" style="fill:#ffffff;opacity:0.8;stroke:#cccccc;stroke-linejoin:miter;"/>
   </g>
   <g id="text_23">
    <!-- 498/610 Reg. -->
    <defs>
     <path d="M 25.390625 72.90625 
L 33.6875 72.90625 
L 8.296875 -9.28125 
L 0 -9.28125 
z
" id="DejaVuSans-47"/>
     <path d="M 33.015625 40.375 
Q 26.375 40.375 22.484375 35.828125 
Q 18.609375 31.296875 18.609375 23.390625 
Q 18.609375 15.53125 22.484375 10.953125 
Q 26.375 6.390625 33.015625 6.390625 
Q 39.65625 6.390625 43.53125 10.953125 
Q 47.40625 15.53125 47.40625 23.390625 
Q 47.40625 31.296875 43.53125 35.828125 
Q 39.65625 40.375 33.015625 40.375 
z
M 52.59375 71.296875 
L 52.59375 62.3125 
Q 48.875 64.0625 45.09375 64.984375 
Q 41.3125 65.921875 37.59375 65.921875 
Q 27.828125 65.921875 22.671875 59.328125 
Q 17.53125 52.734375 16.796875 39.40625 
Q 19.671875 43.65625 24.015625 45.921875 
Q 28.375 48.1875 33.59375 48.1875 
Q 44.578125 48.1875 50.953125 41.515625 
Q 57.328125 34.859375 57.328125 23.390625 
Q 57.328125 12.15625 50.6875 5.359375 
Q 44.046875 -1.421875 33.015625 -1.421875 
Q 20.359375 -1.421875 13.671875 8.265625 
Q 6.984375 17.96875 6.984375 36.375 
Q 6.984375 53.65625 15.1875 63.9375 
Q 23.390625 74.21875 37.203125 74.21875 
Q 40.921875 74.21875 44.703125 73.484375 
Q 48.484375 72.75 52.59375 71.296875 
z
" id="DejaVuSans-54"/>
     <path d="M 10.6875 12.40625 
L 21 12.40625 
L 21 0 
L 10.6875 0 
z
" id="DejaVuSans-46"/>
    </defs>
    <g transform="translate(342.259375 21.598437)scale(0.1 -0.1)">
     <use xlink:href="#DejaVuSans-52"/>
     <use x="63.623047" xlink:href="#DejaVuSans-57"/>
     <use x="127.246094" xlink:href="#DejaVuSans-56"/>
     <use x="190.869141" xlink:href="#DejaVuSans-47"/>
     <use x="224.560547" xlink:href="#DejaVuSans-54"/>
     <use x="288.183594" xlink:href="#DejaVuSans-49"/>
     <use x="351.806641" xlink:href="#DejaVuSans-48"/>
     <use x="415.429688" xlink:href="#DejaVuSans-32"/>
     <use x="447.216797" xlink:href="#DejaVuSans-82"/>
     <use x="516.636719" xlink:href="#DejaVuSans-101"/>
     <use x="578.160156" xlink:href="#DejaVuSans-103"/>
     <use x="641.636719" xlink:href="#DejaVuSans-46"/>
    </g>
   </g>
   <g id="line2d_54">
    <path d="M 333.8625 32.776562 
L 353.8625 32.776562 
" style="fill:none;stroke:#1b9e77;stroke-linecap:square;stroke-width:1.5;"/>
   </g>
   <g id="line2d_55"/>
   <g id="text_24">
    <!-- AS (40) -->
    <defs>
     <path d="M 34.1875 63.1875 
L 20.796875 26.90625 
L 47.609375 26.90625 
z
M 28.609375 72.90625 
L 39.796875 72.90625 
L 67.578125 0 
L 57.328125 0 
L 50.6875 18.703125 
L 17.828125 18.703125 
L 11.1875 0 
L 0.78125 0 
z
" id="DejaVuSans-65"/>
     <path d="M 31 75.875 
Q 24.46875 64.65625 21.28125 53.65625 
Q 18.109375 42.671875 18.109375 31.390625 
Q 18.109375 20.125 21.3125 9.0625 
Q 24.515625 -2 31 -13.1875 
L 23.1875 -13.1875 
Q 15.875 -1.703125 12.234375 9.375 
Q 8.59375 20.453125 8.59375 31.390625 
Q 8.59375 42.28125 12.203125 53.3125 
Q 15.828125 64.359375 23.1875 75.875 
z
" id="DejaVuSans-40"/>
     <path d="M 8.015625 75.875 
L 15.828125 75.875 
Q 23.140625 64.359375 26.78125 53.3125 
Q 30.421875 42.28125 30.421875 31.390625 
Q 30.421875 20.453125 26.78125 9.375 
Q 23.140625 -1.703125 15.828125 -13.1875 
L 8.015625 -13.1875 
Q 14.5 -2 17.703125 9.0625 
Q 20.90625 20.125 20.90625 31.390625 
Q 20.90625 42.671875 17.703125 53.65625 
Q 14.5 64.65625 8.015625 75.875 
z
" id="DejaVuSans-41"/>
    </defs>
    <g transform="translate(361.8625 36.276562)scale(0.1 -0.1)">
     <use xlink:href="#DejaVuSans-65"/>
     <use x="68.408203" xlink:href="#DejaVuSans-83"/>
     <use x="131.884766" xlink:href="#DejaVuSans-32"/>
     <use x="163.671875" xlink:href="#DejaVuSans-40"/>
     <use x="202.685547" xlink:href="#DejaVuSans-52"/>
     <use x="266.308594" xlink:href="#DejaVuSans-48"/>
     <use x="329.931641" xlink:href="#DejaVuSans-41"/>
    </g>
   </g>
   <g id="line2d_56">
    <path d="M 333.8625 47.454688 
L 353.8625 47.454688 
" style="fill:none;stroke:#d95f02;stroke-linecap:square;stroke-width:1.5;"/>
   </g>
   <g id="line2d_57"/>
   <g id="text_25">
    <!-- AUS (40) -->
    <defs>
     <path d="M 8.6875 72.90625 
L 18.609375 72.90625 
L 18.609375 28.609375 
Q 18.609375 16.890625 22.84375 11.734375 
Q 27.09375 6.59375 36.625 6.59375 
Q 46.09375 6.59375 50.34375 11.734375 
Q 54.59375 16.890625 54.59375 28.609375 
L 54.59375 72.90625 
L 64.5 72.90625 
L 64.5 27.390625 
Q 64.5 13.140625 57.4375 5.859375 
Q 50.390625 -1.421875 36.625 -1.421875 
Q 22.796875 -1.421875 15.734375 5.859375 
Q 8.6875 13.140625 8.6875 27.390625 
z
" id="DejaVuSans-85"/>
    </defs>
    <g transform="translate(361.8625 50.954688)scale(0.1 -0.1)">
     <use xlink:href="#DejaVuSans-65"/>
     <use x="68.408203" xlink:href="#DejaVuSans-85"/>
     <use x="141.601562" xlink:href="#DejaVuSans-83"/>
     <use x="205.078125" xlink:href="#DejaVuSans-32"/>
     <use x="236.865234" xlink:href="#DejaVuSans-40"/>
     <use x="275.878906" xlink:href="#DejaVuSans-52"/>
     <use x="339.501953" xlink:href="#DejaVuSans-48"/>
     <use x="403.125" xlink:href="#DejaVuSans-41"/>
    </g>
   </g>
   <g id="line2d_58">
    <path d="M 333.8625 62.132812 
L 353.8625 62.132812 
" style="fill:none;stroke:#7570b3;stroke-linecap:square;stroke-width:1.5;"/>
   </g>
   <g id="line2d_59"/>
   <g id="text_26">
    <!-- COML (40) -->
    <defs>
     <path d="M 64.40625 67.28125 
L 64.40625 56.890625 
Q 59.421875 61.53125 53.78125 63.8125 
Q 48.140625 66.109375 41.796875 66.109375 
Q 29.296875 66.109375 22.65625 58.46875 
Q 16.015625 50.828125 16.015625 36.375 
Q 16.015625 21.96875 22.65625 14.328125 
Q 29.296875 6.6875 41.796875 6.6875 
Q 48.140625 6.6875 53.78125 8.984375 
Q 59.421875 11.28125 64.40625 15.921875 
L 64.40625 5.609375 
Q 59.234375 2.09375 53.4375 0.328125 
Q 47.65625 -1.421875 41.21875 -1.421875 
Q 24.65625 -1.421875 15.125 8.703125 
Q 5.609375 18.84375 5.609375 36.375 
Q 5.609375 53.953125 15.125 64.078125 
Q 24.65625 74.21875 41.21875 74.21875 
Q 47.75 74.21875 53.53125 72.484375 
Q 59.328125 70.75 64.40625 67.28125 
z
" id="DejaVuSans-67"/>
     <path d="M 39.40625 66.21875 
Q 28.65625 66.21875 22.328125 58.203125 
Q 16.015625 50.203125 16.015625 36.375 
Q 16.015625 22.609375 22.328125 14.59375 
Q 28.65625 6.59375 39.40625 6.59375 
Q 50.140625 6.59375 56.421875 14.59375 
Q 62.703125 22.609375 62.703125 36.375 
Q 62.703125 50.203125 56.421875 58.203125 
Q 50.140625 66.21875 39.40625 66.21875 
z
M 39.40625 74.21875 
Q 54.734375 74.21875 63.90625 63.9375 
Q 73.09375 53.65625 73.09375 36.375 
Q 73.09375 19.140625 63.90625 8.859375 
Q 54.734375 -1.421875 39.40625 -1.421875 
Q 24.03125 -1.421875 14.8125 8.828125 
Q 5.609375 19.09375 5.609375 36.375 
Q 5.609375 53.65625 14.8125 63.9375 
Q 24.03125 74.21875 39.40625 74.21875 
z
" id="DejaVuSans-79"/>
     <path d="M 9.8125 72.90625 
L 24.515625 72.90625 
L 43.109375 23.296875 
L 61.8125 72.90625 
L 76.515625 72.90625 
L 76.515625 0 
L 66.890625 0 
L 66.890625 64.015625 
L 48.09375 14.015625 
L 38.1875 14.015625 
L 19.390625 64.015625 
L 19.390625 0 
L 9.8125 0 
z
" id="DejaVuSans-77"/>
     <path d="M 9.8125 72.90625 
L 19.671875 72.90625 
L 19.671875 8.296875 
L 55.171875 8.296875 
L 55.171875 0 
L 9.8125 0 
z
" id="DejaVuSans-76"/>
    </defs>
    <g transform="translate(361.8625 65.632812)scale(0.1 -0.1)">
     <use xlink:href="#DejaVuSans-67"/>
     <use x="69.824219" xlink:href="#DejaVuSans-79"/>
     <use x="148.535156" xlink:href="#DejaVuSans-77"/>
     <use x="234.814453" xlink:href="#DejaVuSans-76"/>
     <use x="290.527344" xlink:href="#DejaVuSans-32"/>
     <use x="322.314453" xlink:href="#DejaVuSans-40"/>
     <use x="361.328125" xlink:href="#DejaVuSans-52"/>
     <use x="424.951172" xlink:href="#DejaVuSans-48"/>
     <use x="488.574219" xlink:href="#DejaVuSans-41"/>
    </g>
   </g>
   <g id="line2d_60">
    <path d="M 333.8625 76.810937 
L 353.8625 76.810937 
" style="fill:none;stroke:#e7298a;stroke-linecap:square;stroke-width:1.5;"/>
   </g>
   <g id="line2d_61"/>
   <g id="text_27">
    <!-- GDD (40) -->
    <defs>
     <path d="M 59.515625 10.40625 
L 59.515625 29.984375 
L 43.40625 29.984375 
L 43.40625 38.09375 
L 69.28125 38.09375 
L 69.28125 6.78125 
Q 63.578125 2.734375 56.6875 0.65625 
Q 49.8125 -1.421875 42 -1.421875 
Q 24.90625 -1.421875 15.25 8.5625 
Q 5.609375 18.5625 5.609375 36.375 
Q 5.609375 54.25 15.25 64.234375 
Q 24.90625 74.21875 42 74.21875 
Q 49.125 74.21875 55.546875 72.453125 
Q 61.96875 70.703125 67.390625 67.28125 
L 67.390625 56.78125 
Q 61.921875 61.421875 55.765625 63.765625 
Q 49.609375 66.109375 42.828125 66.109375 
Q 29.4375 66.109375 22.71875 58.640625 
Q 16.015625 51.171875 16.015625 36.375 
Q 16.015625 21.625 22.71875 14.15625 
Q 29.4375 6.6875 42.828125 6.6875 
Q 48.046875 6.6875 52.140625 7.59375 
Q 56.25 8.5 59.515625 10.40625 
z
" id="DejaVuSans-71"/>
    </defs>
    <g transform="translate(361.8625 80.310937)scale(0.1 -0.1)">
     <use xlink:href="#DejaVuSans-71"/>
     <use x="77.490234" xlink:href="#DejaVuSans-68"/>
     <use x="154.492188" xlink:href="#DejaVuSans-68"/>
     <use x="231.494141" xlink:href="#DejaVuSans-32"/>
     <use x="263.28125" xlink:href="#DejaVuSans-40"/>
     <use x="302.294922" xlink:href="#DejaVuSans-52"/>
     <use x="365.917969" xlink:href="#DejaVuSans-48"/>
     <use x="429.541016" xlink:href="#DejaVuSans-41"/>
    </g>
   </g>
   <g id="line2d_62">
    <path d="M 333.8625 91.489062 
L 353.8625 91.489062 
" style="fill:none;stroke:#66a61e;stroke-linecap:square;stroke-width:1.5;"/>
   </g>
   <g id="line2d_63"/>
   <g id="text_28">
    <!-- SA (39) -->
    <g transform="translate(361.8625 94.989062)scale(0.1 -0.1)">
     <use xlink:href="#DejaVuSans-83"/>
     <use x="63.492188" xlink:href="#DejaVuSans-65"/>
     <use x="131.900391" xlink:href="#DejaVuSans-32"/>
     <use x="163.6875" xlink:href="#DejaVuSans-40"/>
     <use x="202.701172" xlink:href="#DejaVuSans-51"/>
     <use x="266.324219" xlink:href="#DejaVuSans-57"/>
     <use x="329.947266" xlink:href="#DejaVuSans-41"/>
    </g>
   </g>
   <g id="line2d_64">
    <path d="M 333.8625 106.167188 
L 353.8625 106.167188 
" style="fill:none;stroke:#e6ab02;stroke-linecap:square;stroke-width:1.5;"/>
   </g>
   <g id="line2d_65"/>
   <g id="text_29">
    <!-- MD (38) -->
    <g transform="translate(361.8625 109.667188)scale(0.1 -0.1)">
     <use xlink:href="#DejaVuSans-77"/>
     <use x="86.279297" xlink:href="#DejaVuSans-68"/>
     <use x="163.28125" xlink:href="#DejaVuSans-32"/>
     <use x="195.068359" xlink:href="#DejaVuSans-40"/>
     <use x="234.082031" xlink:href="#DejaVuSans-51"/>
     <use x="297.705078" xlink:href="#DejaVuSans-56"/>
     <use x="361.328125" xlink:href="#DejaVuSans-41"/>
    </g>
   </g>
   <g id="line2d_66">
    <path d="M 333.8625 120.845312 
L 353.8625 120.845312 
" style="fill:none;stroke:#a6761d;stroke-linecap:square;stroke-width:1.5;"/>
   </g>
   <g id="line2d_67"/>
   <g id="text_30">
    <!-- HPI (38) -->
    <defs>
     <path d="M 9.8125 72.90625 
L 19.671875 72.90625 
L 19.671875 43.015625 
L 55.515625 43.015625 
L 55.515625 72.90625 
L 65.375 72.90625 
L 65.375 0 
L 55.515625 0 
L 55.515625 34.71875 
L 19.671875 34.71875 
L 19.671875 0 
L 9.8125 0 
z
" id="DejaVuSans-72"/>
     <path d="M 19.671875 64.796875 
L 19.671875 37.40625 
L 32.078125 37.40625 
Q 38.96875 37.40625 42.71875 40.96875 
Q 46.484375 44.53125 46.484375 51.125 
Q 46.484375 57.671875 42.71875 61.234375 
Q 38.96875 64.796875 32.078125 64.796875 
z
M 9.8125 72.90625 
L 32.078125 72.90625 
Q 44.34375 72.90625 50.609375 67.359375 
Q 56.890625 61.8125 56.890625 51.125 
Q 56.890625 40.328125 50.609375 34.8125 
Q 44.34375 29.296875 32.078125 29.296875 
L 19.671875 29.296875 
L 19.671875 0 
L 9.8125 0 
z
" id="DejaVuSans-80"/>
     <path d="M 9.8125 72.90625 
L 19.671875 72.90625 
L 19.671875 0 
L 9.8125 0 
z
" id="DejaVuSans-73"/>
    </defs>
    <g transform="translate(361.8625 124.345312)scale(0.1 -0.1)">
     <use xlink:href="#DejaVuSans-72"/>
     <use x="75.195312" xlink:href="#DejaVuSans-80"/>
     <use x="135.498047" xlink:href="#DejaVuSans-73"/>
     <use x="164.990234" xlink:href="#DejaVuSans-32"/>
     <use x="196.777344" xlink:href="#DejaVuSans-40"/>
     <use x="235.791016" xlink:href="#DejaVuSans-51"/>
     <use x="299.414062" xlink:href="#DejaVuSans-56"/>
     <use x="363.037109" xlink:href="#DejaVuSans-41"/>
    </g>
   </g>
   <g id="line2d_68">
    <path d="M 333.8625 135.523438 
L 353.8625 135.523438 
" style="fill:none;stroke:#666666;stroke-linecap:square;stroke-width:1.5;"/>
   </g>
   <g id="line2d_69"/>
   <g id="text_31">
    <!-- FIT (29) -->
    <defs>
     <path d="M 9.8125 72.90625 
L 51.703125 72.90625 
L 51.703125 64.59375 
L 19.671875 64.59375 
L 19.671875 43.109375 
L 48.578125 43.109375 
L 48.578125 34.8125 
L 19.671875 34.8125 
L 19.671875 0 
L 9.8125 0 
z
" id="DejaVuSans-70"/>
     <path d="M -0.296875 72.90625 
L 61.375 72.90625 
L 61.375 64.59375 
L 35.5 64.59375 
L 35.5 0 
L 25.59375 0 
L 25.59375 64.59375 
L -0.296875 64.59375 
z
" id="DejaVuSans-84"/>
    </defs>
    <g transform="translate(361.8625 139.023438)scale(0.1 -0.1)">
     <use xlink:href="#DejaVuSans-70"/>
     <use x="57.519531" xlink:href="#DejaVuSans-73"/>
     <use x="87.011719" xlink:href="#DejaVuSans-84"/>
     <use x="148.095703" xlink:href="#DejaVuSans-32"/>
     <use x="179.882812" xlink:href="#DejaVuSans-40"/>
     <use x="218.896484" xlink:href="#DejaVuSans-50"/>
     <use x="282.519531" xlink:href="#DejaVuSans-57"/>
     <use x="346.142578" xlink:href="#DejaVuSans-41"/>
    </g>
   </g>
   <g id="line2d_70">
    <path d="M 333.8625 150.201562 
L 353.8625 150.201562 
" style="fill:none;stroke:#1b9e77;stroke-dasharray:4.5,1.5;stroke-dashoffset:0;stroke-width:1.5;"/>
   </g>
   <g id="line2d_71"/>
   <g id="text_32">
    <!-- TBI (28) -->
    <defs>
     <path d="M 19.671875 34.8125 
L 19.671875 8.109375 
L 35.5 8.109375 
Q 43.453125 8.109375 47.28125 11.40625 
Q 51.125 14.703125 51.125 21.484375 
Q 51.125 28.328125 47.28125 31.5625 
Q 43.453125 34.8125 35.5 34.8125 
z
M 19.671875 64.796875 
L 19.671875 42.828125 
L 34.28125 42.828125 
Q 41.5 42.828125 45.03125 45.53125 
Q 48.578125 48.25 48.578125 53.8125 
Q 48.578125 59.328125 45.03125 62.0625 
Q 41.5 64.796875 34.28125 64.796875 
z
M 9.8125 72.90625 
L 35.015625 72.90625 
Q 46.296875 72.90625 52.390625 68.21875 
Q 58.5 63.53125 58.5 54.890625 
Q 58.5 48.1875 55.375 44.234375 
Q 52.25 40.28125 46.1875 39.3125 
Q 53.46875 37.75 57.5 32.78125 
Q 61.53125 27.828125 61.53125 20.40625 
Q 61.53125 10.640625 54.890625 5.3125 
Q 48.25 0 35.984375 0 
L 9.8125 0 
z
" id="DejaVuSans-66"/>
    </defs>
    <g transform="translate(361.8625 153.701562)scale(0.1 -0.1)">
     <use xlink:href="#DejaVuSans-84"/>
     <use x="61.083984" xlink:href="#DejaVuSans-66"/>
     <use x="129.6875" xlink:href="#DejaVuSans-73"/>
     <use x="159.179688" xlink:href="#DejaVuSans-32"/>
     <use x="190.966797" xlink:href="#DejaVuSans-40"/>
     <use x="229.980469" xlink:href="#DejaVuSans-50"/>
     <use x="293.603516" xlink:href="#DejaVuSans-56"/>
     <use x="357.226562" xlink:href="#DejaVuSans-41"/>
    </g>
   </g>
   <g id="line2d_72">
    <path d="M 333.8625 164.879687 
L 353.8625 164.879687 
" style="fill:none;stroke:#d95f02;stroke-dasharray:4.5,1.5;stroke-dashoffset:0;stroke-width:1.5;"/>
   </g>
   <g id="line2d_73"/>
   <g id="text_33">
    <!-- BP (26) -->
    <g transform="translate(361.8625 168.379687)scale(0.1 -0.1)">
     <use xlink:href="#DejaVuSans-66"/>
     <use x="68.603516" xlink:href="#DejaVuSans-80"/>
     <use x="128.90625" xlink:href="#DejaVuSans-32"/>
     <use x="160.693359" xlink:href="#DejaVuSans-40"/>
     <use x="199.707031" xlink:href="#DejaVuSans-50"/>
     <use x="263.330078" xlink:href="#DejaVuSans-54"/>
     <use x="326.953125" xlink:href="#DejaVuSans-41"/>
    </g>
   </g>
   <g id="line2d_74">
    <path d="M 333.8625 179.557812 
L 353.8625 179.557812 
" style="fill:none;stroke:#7570b3;stroke-dasharray:4.5,1.5;stroke-dashoffset:0;stroke-width:1.5;"/>
   </g>
   <g id="line2d_75"/>
   <g id="text_34">
    <!-- SPD (26) -->
    <g transform="translate(361.8625 183.057812)scale(0.1 -0.1)">
     <use xlink:href="#DejaVuSans-83"/>
     <use x="63.476562" xlink:href="#DejaVuSans-80"/>
     <use x="123.779297" xlink:href="#DejaVuSans-68"/>
     <use x="200.78125" xlink:href="#DejaVuSans-32"/>
     <use x="232.568359" xlink:href="#DejaVuSans-40"/>
     <use x="271.582031" xlink:href="#DejaVuSans-50"/>
     <use x="335.205078" xlink:href="#DejaVuSans-54"/>
     <use x="398.828125" xlink:href="#DejaVuSans-41"/>
    </g>
   </g>
   <g id="line2d_76">
    <path d="M 333.8625 194.235937 
L 353.8625 194.235937 
" style="fill:none;stroke:#e7298a;stroke-dasharray:4.5,1.5;stroke-dashoffset:0;stroke-width:1.5;"/>
   </g>
   <g id="line2d_77"/>
   <g id="text_35">
    <!-- CB (25) -->
    <g transform="translate(361.8625 197.735937)scale(0.1 -0.1)">
     <use xlink:href="#DejaVuSans-67"/>
     <use x="69.824219" xlink:href="#DejaVuSans-66"/>
     <use x="138.427734" xlink:href="#DejaVuSans-32"/>
     <use x="170.214844" xlink:href="#DejaVuSans-40"/>
     <use x="209.228516" xlink:href="#DejaVuSans-50"/>
     <use x="272.851562" xlink:href="#DejaVuSans-53"/>
     <use x="336.474609" xlink:href="#DejaVuSans-41"/>
    </g>
   </g>
   <g id="line2d_78">
    <path d="M 333.8625 208.914062 
L 353.8625 208.914062 
" style="fill:none;stroke:#66a61e;stroke-dasharray:4.5,1.5;stroke-dashoffset:0;stroke-width:1.5;"/>
   </g>
   <g id="line2d_79"/>
   <g id="text_36">
    <!-- CC (25) -->
    <g transform="translate(361.8625 212.414062)scale(0.1 -0.1)">
     <use xlink:href="#DejaVuSans-67"/>
     <use x="69.824219" xlink:href="#DejaVuSans-67"/>
     <use x="139.648438" xlink:href="#DejaVuSans-32"/>
     <use x="171.435547" xlink:href="#DejaVuSans-40"/>
     <use x="210.449219" xlink:href="#DejaVuSans-50"/>
     <use x="274.072266" xlink:href="#DejaVuSans-53"/>
     <use x="337.695312" xlink:href="#DejaVuSans-41"/>
    </g>
   </g>
   <g id="line2d_80">
    <path d="M 333.8625 223.592187 
L 353.8625 223.592187 
" style="fill:none;stroke:#e6ab02;stroke-dasharray:4.5,1.5;stroke-dashoffset:0;stroke-width:1.5;"/>
   </g>
   <g id="line2d_81"/>
   <g id="text_37">
    <!-- RJPH (24) -->
    <defs>
     <path d="M 9.8125 72.90625 
L 19.671875 72.90625 
L 19.671875 5.078125 
Q 19.671875 -8.109375 14.671875 -14.0625 
Q 9.671875 -20.015625 -1.421875 -20.015625 
L -5.171875 -20.015625 
L -5.171875 -11.71875 
L -2.09375 -11.71875 
Q 4.4375 -11.71875 7.125 -8.046875 
Q 9.8125 -4.390625 9.8125 5.078125 
z
" id="DejaVuSans-74"/>
    </defs>
    <g transform="translate(361.8625 227.092187)scale(0.1 -0.1)">
     <use xlink:href="#DejaVuSans-82"/>
     <use x="69.482422" xlink:href="#DejaVuSans-74"/>
     <use x="98.974609" xlink:href="#DejaVuSans-80"/>
     <use x="159.277344" xlink:href="#DejaVuSans-72"/>
     <use x="234.472656" xlink:href="#DejaVuSans-32"/>
     <use x="266.259766" xlink:href="#DejaVuSans-40"/>
     <use x="305.273438" xlink:href="#DejaVuSans-50"/>
     <use x="368.896484" xlink:href="#DejaVuSans-52"/>
     <use x="432.519531" xlink:href="#DejaVuSans-41"/>
    </g>
   </g>
   <g id="line2d_82">
    <path d="M 333.8625 238.270312 
L 353.8625 238.270312 
" style="fill:none;stroke:#a6761d;stroke-dasharray:4.5,1.5;stroke-dashoffset:0;stroke-width:1.5;"/>
   </g>
   <g id="line2d_83"/>
   <g id="text_38">
    <!-- AHR-H (20) -->
    <g transform="translate(361.8625 241.770312)scale(0.1 -0.1)">
     <use xlink:href="#DejaVuSans-65"/>
     <use x="68.408203" xlink:href="#DejaVuSans-72"/>
     <use x="143.603516" xlink:href="#DejaVuSans-82"/>
     <use x="213.023438" xlink:href="#DejaVuSans-45"/>
     <use x="249.107422" xlink:href="#DejaVuSans-72"/>
     <use x="324.302734" xlink:href="#DejaVuSans-32"/>
     <use x="356.089844" xlink:href="#DejaVuSans-40"/>
     <use x="395.103516" xlink:href="#DejaVuSans-50"/>
     <use x="458.726562" xlink:href="#DejaVuSans-48"/>
     <use x="522.349609" xlink:href="#DejaVuSans-41"/>
    </g>
   </g>
   <g id="line2d_84">
    <path d="M 333.8625 252.948437 
L 353.8625 252.948437 
" style="fill:none;stroke:#666666;stroke-dasharray:4.5,1.5;stroke-dashoffset:0;stroke-width:1.5;"/>
   </g>
   <g id="line2d_85"/>
   <g id="text_39">
    <!-- AHR-A (20) -->
    <g transform="translate(361.8625 256.448437)scale(0.1 -0.1)">
     <use xlink:href="#DejaVuSans-65"/>
     <use x="68.408203" xlink:href="#DejaVuSans-72"/>
     <use x="143.603516" xlink:href="#DejaVuSans-82"/>
     <use x="213.023438" xlink:href="#DejaVuSans-45"/>
     <use x="249.076172" xlink:href="#DejaVuSans-65"/>
     <use x="317.484375" xlink:href="#DejaVuSans-32"/>
     <use x="349.271484" xlink:href="#DejaVuSans-40"/>
     <use x="388.285156" xlink:href="#DejaVuSans-50"/>
     <use x="451.908203" xlink:href="#DejaVuSans-48"/>
     <use x="515.53125" xlink:href="#DejaVuSans-41"/>
    </g>
   </g>
  </g>
 </g>
 <defs>
  <clipPath id="p4c4a7100e4">
   <rect height="207.330771" width="271.81" x="43.55" y="12.9"/>
  </clipPath>
 </defs>
</svg>
