<?xml version="1.0" encoding="utf-8" standalone="no"?>
<!DOCTYPE svg PUBLIC "-//W3C//DTD SVG 1.1//EN"
  "http://www.w3.org/Graphics/SVG/1.1/DTD/svg11.dtd">
<!-- Created with matplotlib (https://matplotlib.org/) -->
<svg height="288pt" version="1.1" viewBox="0 0 432 288" width="432pt" xmlns="http://www.w3.org/2000/svg" xmlns:xlink="http://www.w3.org/1999/xlink">
 <defs>
  <style type="text/css">
*{stroke-linecap:butt;stroke-linejoin:round;}
  </style>
 </defs>
 <g id="figure_1">
  <g id="patch_1">
   <path d="M 0 288 
L 432 288 
L 432 0 
L 0 0 
z
" style="fill:#ffffff;"/>
  </g>
  <g id="axes_1">
   <g id="patch_2">
    <path d="M 43.55 220.230771 
L 315.36 220.230771 
L 315.36 12.9 
L 43.55 12.9 
z
" style="fill:#ffffff;"/>
   </g>
   <g id="matplotlib.axis_1">
    <g id="xtick_1">
     <g id="line2d_1">
      <defs>
       <path d="M 0 0 
L 0 3.5 
" id="m982b1e2504" style="stroke:#000000;stroke-width:0.8;"/>
      </defs>
      <g>
       <use style="stroke:#000000;stroke-width:0.8;" x="50.591156" xlink:href="#m982b1e2504" y="220.230771"/>
      </g>
     </g>
     <g id="text_1">
      <!-- 2020-11-29 -->
      <defs>
       <path d="M 19.1875 8.296875 
L 53.609375 8.296875 
L 53.609375 0 
L 7.328125 0 
L 7.328125 8.296875 
Q 12.9375 14.109375 22.625 23.890625 
Q 32.328125 33.6875 34.8125 36.53125 
Q 39.546875 41.84375 41.421875 45.53125 
Q 43.3125 49.21875 43.3125 52.78125 
Q 43.3125 58.59375 39.234375 62.25 
Q 35.15625 65.921875 28.609375 65.921875 
Q 23.96875 65.921875 18.8125 64.3125 
Q 13.671875 62.703125 7.8125 59.421875 
L 7.8125 69.390625 
Q 13.765625 71.78125 18.9375 73 
Q 24.125 74.21875 28.421875 74.21875 
Q 39.75 74.21875 46.484375 68.546875 
Q 53.21875 62.890625 53.21875 53.421875 
Q 53.21875 48.921875 51.53125 44.890625 
Q 49.859375 40.875 45.40625 35.40625 
Q 44.1875 33.984375 37.640625 27.21875 
Q 31.109375 20.453125 19.1875 8.296875 
z
" id="DejaVuSans-50"/>
       <path d="M 31.78125 66.40625 
Q 24.171875 66.40625 20.328125 58.90625 
Q 16.5 51.421875 16.5 36.375 
Q 16.5 21.390625 20.328125 13.890625 
Q 24.171875 6.390625 31.78125 6.390625 
Q 39.453125 6.390625 43.28125 13.890625 
Q 47.125 21.390625 47.125 36.375 
Q 47.125 51.421875 43.28125 58.90625 
Q 39.453125 66.40625 31.78125 66.40625 
z
M 31.78125 74.21875 
Q 44.046875 74.21875 50.515625 64.515625 
Q 56.984375 54.828125 56.984375 36.375 
Q 56.984375 17.96875 50.515625 8.265625 
Q 44.046875 -1.421875 31.78125 -1.421875 
Q 19.53125 -1.421875 13.0625 8.265625 
Q 6.59375 17.96875 6.59375 36.375 
Q 6.59375 54.828125 13.0625 64.515625 
Q 19.53125 74.21875 31.78125 74.21875 
z
" id="DejaVuSans-48"/>
       <path d="M 4.890625 31.390625 
L 31.203125 31.390625 
L 31.203125 23.390625 
L 4.890625 23.390625 
z
" id="DejaVuSans-45"/>
       <path d="M 12.40625 8.296875 
L 28.515625 8.296875 
L 28.515625 63.921875 
L 10.984375 60.40625 
L 10.984375 69.390625 
L 28.421875 72.90625 
L 38.28125 72.90625 
L 38.28125 8.296875 
L 54.390625 8.296875 
L 54.390625 0 
L 12.40625 0 
z
" id="DejaVuSans-49"/>
       <path d="M 10.984375 1.515625 
L 10.984375 10.5 
Q 14.703125 8.734375 18.5 7.8125 
Q 22.3125 6.890625 25.984375 6.890625 
Q 35.75 6.890625 40.890625 13.453125 
Q 46.046875 20.015625 46.78125 33.40625 
Q 43.953125 29.203125 39.59375 26.953125 
Q 35.25 24.703125 29.984375 24.703125 
Q 19.046875 24.703125 12.671875 31.3125 
Q 6.296875 37.9375 6.296875 49.421875 
Q 6.296875 60.640625 12.9375 67.421875 
Q 19.578125 74.21875 30.609375 74.21875 
Q 43.265625 74.21875 49.921875 64.515625 
Q 56.59375 54.828125 56.59375 36.375 
Q 56.59375 19.140625 48.40625 8.859375 
Q 40.234375 -1.421875 26.421875 -1.421875 
Q 22.703125 -1.421875 18.890625 -0.6875 
Q 15.09375 0.046875 10.984375 1.515625 
z
M 30.609375 32.421875 
Q 37.25 32.421875 41.125 36.953125 
Q 45.015625 41.5 45.015625 49.421875 
Q 45.015625 57.28125 41.125 61.84375 
Q 37.25 66.40625 30.609375 66.40625 
Q 23.96875 66.40625 20.09375 61.84375 
Q 16.21875 57.28125 16.21875 49.421875 
Q 16.21875 41.5 20.09375 36.953125 
Q 23.96875 32.421875 30.609375 32.421875 
z
" id="DejaVuSans-57"/>
      </defs>
      <g transform="translate(26.80604 262.869024)rotate(-30)scale(0.1 -0.1)">
       <use xlink:href="#DejaVuSans-50"/>
       <use x="63.623047" xlink:href="#DejaVuSans-48"/>
       <use x="127.246094" xlink:href="#DejaVuSans-50"/>
       <use x="190.869141" xlink:href="#DejaVuSans-48"/>
       <use x="254.492188" xlink:href="#DejaVuSans-45"/>
       <use x="290.576172" xlink:href="#DejaVuSans-49"/>
       <use x="354.199219" xlink:href="#DejaVuSans-49"/>
       <use x="417.822266" xlink:href="#DejaVuSans-45"/>
       <use x="453.90625" xlink:href="#DejaVuSans-50"/>
       <use x="517.529297" xlink:href="#DejaVuSans-57"/>
      </g>
     </g>
    </g>
    <g id="xtick_2">
     <g id="line2d_2">
      <g>
       <use style="stroke:#000000;stroke-width:0.8;" x="57.929648" xlink:href="#m982b1e2504" y="220.230771"/>
      </g>
     </g>
     <g id="text_2">
      <!-- 2020-12-01 -->
      <g transform="translate(34.144531 262.869024)rotate(-30)scale(0.1 -0.1)">
       <use xlink:href="#DejaVuSans-50"/>
       <use x="63.623047" xlink:href="#DejaVuSans-48"/>
       <use x="127.246094" xlink:href="#DejaVuSans-50"/>
       <use x="190.869141" xlink:href="#DejaVuSans-48"/>
       <use x="254.492188" xlink:href="#DejaVuSans-45"/>
       <use x="290.576172" xlink:href="#DejaVuSans-49"/>
       <use x="354.199219" xlink:href="#DejaVuSans-50"/>
       <use x="417.822266" xlink:href="#DejaVuSans-45"/>
       <use x="453.90625" xlink:href="#DejaVuSans-48"/>
       <use x="517.529297" xlink:href="#DejaVuSans-49"/>
      </g>
     </g>
    </g>
    <g id="xtick_3">
     <g id="line2d_3">
      <g>
       <use style="stroke:#000000;stroke-width:0.8;" x="109.29909" xlink:href="#m982b1e2504" y="220.230771"/>
      </g>
     </g>
     <g id="text_3">
      <!-- 2020-12-15 -->
      <defs>
       <path d="M 10.796875 72.90625 
L 49.515625 72.90625 
L 49.515625 64.59375 
L 19.828125 64.59375 
L 19.828125 46.734375 
Q 21.96875 47.46875 24.109375 47.828125 
Q 26.265625 48.1875 28.421875 48.1875 
Q 40.625 48.1875 47.75 41.5 
Q 54.890625 34.8125 54.890625 23.390625 
Q 54.890625 11.625 47.5625 5.09375 
Q 40.234375 -1.421875 26.90625 -1.421875 
Q 22.3125 -1.421875 17.546875 -0.640625 
Q 12.796875 0.140625 7.71875 1.703125 
L 7.71875 11.625 
Q 12.109375 9.234375 16.796875 8.0625 
Q 21.484375 6.890625 26.703125 6.890625 
Q 35.15625 6.890625 40.078125 11.328125 
Q 45.015625 15.765625 45.015625 23.390625 
Q 45.015625 31 40.078125 35.4375 
Q 35.15625 39.890625 26.703125 39.890625 
Q 22.75 39.890625 18.8125 39.015625 
Q 14.890625 38.140625 10.796875 36.28125 
z
" id="DejaVuSans-53"/>
      </defs>
      <g transform="translate(85.513973 262.869024)rotate(-30)scale(0.1 -0.1)">
       <use xlink:href="#DejaVuSans-50"/>
       <use x="63.623047" xlink:href="#DejaVuSans-48"/>
       <use x="127.246094" xlink:href="#DejaVuSans-50"/>
       <use x="190.869141" xlink:href="#DejaVuSans-48"/>
       <use x="254.492188" xlink:href="#DejaVuSans-45"/>
       <use x="290.576172" xlink:href="#DejaVuSans-49"/>
       <use x="354.199219" xlink:href="#DejaVuSans-50"/>
       <use x="417.822266" xlink:href="#DejaVuSans-45"/>
       <use x="453.90625" xlink:href="#DejaVuSans-49"/>
       <use x="517.529297" xlink:href="#DejaVuSans-53"/>
      </g>
     </g>
    </g>
    <g id="xtick_4">
     <g id="line2d_4">
      <g>
       <use style="stroke:#000000;stroke-width:0.8;" x="160.668532" xlink:href="#m982b1e2504" y="220.230771"/>
      </g>
     </g>
     <g id="text_4">
      <!-- 2020-12-29 -->
      <g transform="translate(136.883416 262.869024)rotate(-30)scale(0.1 -0.1)">
       <use xlink:href="#DejaVuSans-50"/>
       <use x="63.623047" xlink:href="#DejaVuSans-48"/>
       <use x="127.246094" xlink:href="#DejaVuSans-50"/>
       <use x="190.869141" xlink:href="#DejaVuSans-48"/>
       <use x="254.492188" xlink:href="#DejaVuSans-45"/>
       <use x="290.576172" xlink:href="#DejaVuSans-49"/>
       <use x="354.199219" xlink:href="#DejaVuSans-50"/>
       <use x="417.822266" xlink:href="#DejaVuSans-45"/>
       <use x="453.90625" xlink:href="#DejaVuSans-50"/>
       <use x="517.529297" xlink:href="#DejaVuSans-57"/>
      </g>
     </g>
    </g>
    <g id="xtick_5">
     <g id="line2d_5">
      <g>
       <use style="stroke:#000000;stroke-width:0.8;" x="171.676269" xlink:href="#m982b1e2504" y="220.230771"/>
      </g>
     </g>
     <g id="text_5">
      <!-- 2021-01-01 -->
      <g transform="translate(147.891153 262.869024)rotate(-30)scale(0.1 -0.1)">
       <use xlink:href="#DejaVuSans-50"/>
       <use x="63.623047" xlink:href="#DejaVuSans-48"/>
       <use x="127.246094" xlink:href="#DejaVuSans-50"/>
       <use x="190.869141" xlink:href="#DejaVuSans-49"/>
       <use x="254.492188" xlink:href="#DejaVuSans-45"/>
       <use x="290.576172" xlink:href="#DejaVuSans-48"/>
       <use x="354.199219" xlink:href="#DejaVuSans-49"/>
       <use x="417.822266" xlink:href="#DejaVuSans-45"/>
       <use x="453.90625" xlink:href="#DejaVuSans-48"/>
       <use x="517.529297" xlink:href="#DejaVuSans-49"/>
      </g>
     </g>
    </g>
    <g id="xtick_6">
     <g id="line2d_6">
      <g>
       <use style="stroke:#000000;stroke-width:0.8;" x="223.045711" xlink:href="#m982b1e2504" y="220.230771"/>
      </g>
     </g>
     <g id="text_6">
      <!-- 2021-01-15 -->
      <g transform="translate(199.260595 262.869024)rotate(-30)scale(0.1 -0.1)">
       <use xlink:href="#DejaVuSans-50"/>
       <use x="63.623047" xlink:href="#DejaVuSans-48"/>
       <use x="127.246094" xlink:href="#DejaVuSans-50"/>
       <use x="190.869141" xlink:href="#DejaVuSans-49"/>
       <use x="254.492188" xlink:href="#DejaVuSans-45"/>
       <use x="290.576172" xlink:href="#DejaVuSans-48"/>
       <use x="354.199219" xlink:href="#DejaVuSans-49"/>
       <use x="417.822266" xlink:href="#DejaVuSans-45"/>
       <use x="453.90625" xlink:href="#DejaVuSans-49"/>
       <use x="517.529297" xlink:href="#DejaVuSans-53"/>
      </g>
     </g>
    </g>
    <g id="xtick_7">
     <g id="line2d_7">
      <g>
       <use style="stroke:#000000;stroke-width:0.8;" x="274.415153" xlink:href="#m982b1e2504" y="220.230771"/>
      </g>
     </g>
     <g id="text_7">
      <!-- 2021-01-29 -->
      <g transform="translate(250.630037 262.869024)rotate(-30)scale(0.1 -0.1)">
       <use xlink:href="#DejaVuSans-50"/>
       <use x="63.623047" xlink:href="#DejaVuSans-48"/>
       <use x="127.246094" xlink:href="#DejaVuSans-50"/>
       <use x="190.869141" xlink:href="#DejaVuSans-49"/>
       <use x="254.492188" xlink:href="#DejaVuSans-45"/>
       <use x="290.576172" xlink:href="#DejaVuSans-48"/>
       <use x="354.199219" xlink:href="#DejaVuSans-49"/>
       <use x="417.822266" xlink:href="#DejaVuSans-45"/>
       <use x="453.90625" xlink:href="#DejaVuSans-50"/>
       <use x="517.529297" xlink:href="#DejaVuSans-57"/>
      </g>
     </g>
    </g>
    <g id="xtick_8">
     <g id="line2d_8">
      <g>
       <use style="stroke:#000000;stroke-width:0.8;" x="285.422891" xlink:href="#m982b1e2504" y="220.230771"/>
      </g>
     </g>
     <g id="text_8">
      <!-- 2021-02-01 -->
      <g transform="translate(261.637775 262.869024)rotate(-30)scale(0.1 -0.1)">
       <use xlink:href="#DejaVuSans-50"/>
       <use x="63.623047" xlink:href="#DejaVuSans-48"/>
       <use x="127.246094" xlink:href="#DejaVuSans-50"/>
       <use x="190.869141" xlink:href="#DejaVuSans-49"/>
       <use x="254.492188" xlink:href="#DejaVuSans-45"/>
       <use x="290.576172" xlink:href="#DejaVuSans-48"/>
       <use x="354.199219" xlink:href="#DejaVuSans-50"/>
       <use x="417.822266" xlink:href="#DejaVuSans-45"/>
       <use x="453.90625" xlink:href="#DejaVuSans-48"/>
       <use x="517.529297" xlink:href="#DejaVuSans-49"/>
      </g>
     </g>
    </g>
    <g id="text_9">
     <!-- Date -->
     <defs>
      <path d="M 19.671875 64.796875 
L 19.671875 8.109375 
L 31.59375 8.109375 
Q 46.6875 8.109375 53.6875 14.9375 
Q 60.6875 21.78125 60.6875 36.53125 
Q 60.6875 51.171875 53.6875 57.984375 
Q 46.6875 64.796875 31.59375 64.796875 
z
M 9.8125 72.90625 
L 30.078125 72.90625 
Q 51.265625 72.90625 61.171875 64.09375 
Q 71.09375 55.28125 71.09375 36.53125 
Q 71.09375 17.671875 61.125 8.828125 
Q 51.171875 0 30.078125 0 
L 9.8125 0 
z
" id="DejaVuSans-68"/>
      <path d="M 34.28125 27.484375 
Q 23.390625 27.484375 19.1875 25 
Q 14.984375 22.515625 14.984375 16.5 
Q 14.984375 11.71875 18.140625 8.90625 
Q 21.296875 6.109375 26.703125 6.109375 
Q 34.1875 6.109375 38.703125 11.40625 
Q 43.21875 16.703125 43.21875 25.484375 
L 43.21875 27.484375 
z
M 52.203125 31.203125 
L 52.203125 0 
L 43.21875 0 
L 43.21875 8.296875 
Q 40.140625 3.328125 35.546875 0.953125 
Q 30.953125 -1.421875 24.3125 -1.421875 
Q 15.921875 -1.421875 10.953125 3.296875 
Q 6 8.015625 6 15.921875 
Q 6 25.140625 12.171875 29.828125 
Q 18.359375 34.515625 30.609375 34.515625 
L 43.21875 34.515625 
L 43.21875 35.40625 
Q 43.21875 41.609375 39.140625 45 
Q 35.0625 48.390625 27.6875 48.390625 
Q 23 48.390625 18.546875 47.265625 
Q 14.109375 46.140625 10.015625 43.890625 
L 10.015625 52.203125 
Q 14.9375 54.109375 19.578125 55.046875 
Q 24.21875 56 28.609375 56 
Q 40.484375 56 46.34375 49.84375 
Q 52.203125 43.703125 52.203125 31.203125 
z
" id="DejaVuSans-97"/>
      <path d="M 18.3125 70.21875 
L 18.3125 54.6875 
L 36.8125 54.6875 
L 36.8125 47.703125 
L 18.3125 47.703125 
L 18.3125 18.015625 
Q 18.3125 11.328125 20.140625 9.421875 
Q 21.96875 7.515625 27.59375 7.515625 
L 36.8125 7.515625 
L 36.8125 0 
L 27.59375 0 
Q 17.1875 0 13.234375 3.875 
Q 9.28125 7.765625 9.28125 18.015625 
L 9.28125 47.703125 
L 2.6875 47.703125 
L 2.6875 54.6875 
L 9.28125 54.6875 
L 9.28125 70.21875 
z
" id="DejaVuSans-116"/>
      <path d="M 56.203125 29.59375 
L 56.203125 25.203125 
L 14.890625 25.203125 
Q 15.484375 15.921875 20.484375 11.0625 
Q 25.484375 6.203125 34.421875 6.203125 
Q 39.59375 6.203125 44.453125 7.46875 
Q 49.3125 8.734375 54.109375 11.28125 
L 54.109375 2.78125 
Q 49.265625 0.734375 44.1875 -0.34375 
Q 39.109375 -1.421875 33.890625 -1.421875 
Q 20.796875 -1.421875 13.15625 6.1875 
Q 5.515625 13.8125 5.515625 26.8125 
Q 5.515625 40.234375 12.765625 48.109375 
Q 20.015625 56 32.328125 56 
Q 43.359375 56 49.78125 48.890625 
Q 56.203125 41.796875 56.203125 29.59375 
z
M 47.21875 32.234375 
Q 47.125 39.59375 43.09375 43.984375 
Q 39.0625 48.390625 32.421875 48.390625 
Q 24.90625 48.390625 20.390625 44.140625 
Q 15.875 39.890625 15.1875 32.171875 
z
" id="DejaVuSans-101"/>
     </defs>
     <g transform="translate(167.504219 276.268523)scale(0.1 -0.1)">
      <use xlink:href="#DejaVuSans-68"/>
      <use x="77.001953" xlink:href="#DejaVuSans-97"/>
      <use x="138.28125" xlink:href="#DejaVuSans-116"/>
      <use x="177.490234" xlink:href="#DejaVuSans-101"/>
     </g>
    </g>
   </g>
   <g id="matplotlib.axis_2">
    <g id="ytick_1">
     <g id="line2d_9">
      <defs>
       <path d="M 0 0 
L -3.5 0 
" id="m5f43e1214f" style="stroke:#000000;stroke-width:0.8;"/>
      </defs>
      <g>
       <use style="stroke:#000000;stroke-width:0.8;" x="43.55" xlink:href="#m5f43e1214f" y="210.806645"/>
      </g>
     </g>
     <g id="text_10">
      <!-- 0 -->
      <g transform="translate(30.1875 214.605864)scale(0.1 -0.1)">
       <use xlink:href="#DejaVuSans-48"/>
      </g>
     </g>
    </g>
    <g id="ytick_2">
     <g id="line2d_10">
      <g>
       <use style="stroke:#000000;stroke-width:0.8;" x="43.55" xlink:href="#m5f43e1214f" y="187.24633"/>
      </g>
     </g>
     <g id="text_11">
      <!-- 5 -->
      <g transform="translate(30.1875 191.045549)scale(0.1 -0.1)">
       <use xlink:href="#DejaVuSans-53"/>
      </g>
     </g>
    </g>
    <g id="ytick_3">
     <g id="line2d_11">
      <g>
       <use style="stroke:#000000;stroke-width:0.8;" x="43.55" xlink:href="#m5f43e1214f" y="163.686016"/>
      </g>
     </g>
     <g id="text_12">
      <!-- 10 -->
      <g transform="translate(23.825 167.485234)scale(0.1 -0.1)">
       <use xlink:href="#DejaVuSans-49"/>
       <use x="63.623047" xlink:href="#DejaVuSans-48"/>
      </g>
     </g>
    </g>
    <g id="ytick_4">
     <g id="line2d_12">
      <g>
       <use style="stroke:#000000;stroke-width:0.8;" x="43.55" xlink:href="#m5f43e1214f" y="140.125701"/>
      </g>
     </g>
     <g id="text_13">
      <!-- 15 -->
      <g transform="translate(23.825 143.924919)scale(0.1 -0.1)">
       <use xlink:href="#DejaVuSans-49"/>
       <use x="63.623047" xlink:href="#DejaVuSans-53"/>
      </g>
     </g>
    </g>
    <g id="ytick_5">
     <g id="line2d_13">
      <g>
       <use style="stroke:#000000;stroke-width:0.8;" x="43.55" xlink:href="#m5f43e1214f" y="116.565386"/>
      </g>
     </g>
     <g id="text_14">
      <!-- 20 -->
      <g transform="translate(23.825 120.364604)scale(0.1 -0.1)">
       <use xlink:href="#DejaVuSans-50"/>
       <use x="63.623047" xlink:href="#DejaVuSans-48"/>
      </g>
     </g>
    </g>
    <g id="ytick_6">
     <g id="line2d_14">
      <g>
       <use style="stroke:#000000;stroke-width:0.8;" x="43.55" xlink:href="#m5f43e1214f" y="93.005071"/>
      </g>
     </g>
     <g id="text_15">
      <!-- 25 -->
      <g transform="translate(23.825 96.80429)scale(0.1 -0.1)">
       <use xlink:href="#DejaVuSans-50"/>
       <use x="63.623047" xlink:href="#DejaVuSans-53"/>
      </g>
     </g>
    </g>
    <g id="ytick_7">
     <g id="line2d_15">
      <g>
       <use style="stroke:#000000;stroke-width:0.8;" x="43.55" xlink:href="#m5f43e1214f" y="69.444756"/>
      </g>
     </g>
     <g id="text_16">
      <!-- 30 -->
      <defs>
       <path d="M 40.578125 39.3125 
Q 47.65625 37.796875 51.625 33 
Q 55.609375 28.21875 55.609375 21.1875 
Q 55.609375 10.40625 48.1875 4.484375 
Q 40.765625 -1.421875 27.09375 -1.421875 
Q 22.515625 -1.421875 17.65625 -0.515625 
Q 12.796875 0.390625 7.625 2.203125 
L 7.625 11.71875 
Q 11.71875 9.328125 16.59375 8.109375 
Q 21.484375 6.890625 26.8125 6.890625 
Q 36.078125 6.890625 40.9375 10.546875 
Q 45.796875 14.203125 45.796875 21.1875 
Q 45.796875 27.640625 41.28125 31.265625 
Q 36.765625 34.90625 28.71875 34.90625 
L 20.21875 34.90625 
L 20.21875 43.015625 
L 29.109375 43.015625 
Q 36.375 43.015625 40.234375 45.921875 
Q 44.09375 48.828125 44.09375 54.296875 
Q 44.09375 59.90625 40.109375 62.90625 
Q 36.140625 65.921875 28.71875 65.921875 
Q 24.65625 65.921875 20.015625 65.03125 
Q 15.375 64.15625 9.8125 62.3125 
L 9.8125 71.09375 
Q 15.4375 72.65625 20.34375 73.4375 
Q 25.25 74.21875 29.59375 74.21875 
Q 40.828125 74.21875 47.359375 69.109375 
Q 53.90625 64.015625 53.90625 55.328125 
Q 53.90625 49.265625 50.4375 45.09375 
Q 46.96875 40.921875 40.578125 39.3125 
z
" id="DejaVuSans-51"/>
      </defs>
      <g transform="translate(23.825 73.243975)scale(0.1 -0.1)">
       <use xlink:href="#DejaVuSans-51"/>
       <use x="63.623047" xlink:href="#DejaVuSans-48"/>
      </g>
     </g>
    </g>
    <g id="ytick_8">
     <g id="line2d_16">
      <g>
       <use style="stroke:#000000;stroke-width:0.8;" x="43.55" xlink:href="#m5f43e1214f" y="45.884441"/>
      </g>
     </g>
     <g id="text_17">
      <!-- 35 -->
      <g transform="translate(23.825 49.68366)scale(0.1 -0.1)">
       <use xlink:href="#DejaVuSans-51"/>
       <use x="63.623047" xlink:href="#DejaVuSans-53"/>
      </g>
     </g>
    </g>
    <g id="ytick_9">
     <g id="line2d_17">
      <g>
       <use style="stroke:#000000;stroke-width:0.8;" x="43.55" xlink:href="#m5f43e1214f" y="22.324126"/>
      </g>
     </g>
     <g id="text_18">
      <!-- 40 -->
      <defs>
       <path d="M 37.796875 64.3125 
L 12.890625 25.390625 
L 37.796875 25.390625 
z
M 35.203125 72.90625 
L 47.609375 72.90625 
L 47.609375 25.390625 
L 58.015625 25.390625 
L 58.015625 17.1875 
L 47.609375 17.1875 
L 47.609375 0 
L 37.796875 0 
L 37.796875 17.1875 
L 4.890625 17.1875 
L 4.890625 26.703125 
z
" id="DejaVuSans-52"/>
      </defs>
      <g transform="translate(23.825 26.123345)scale(0.1 -0.1)">
       <use xlink:href="#DejaVuSans-52"/>
       <use x="63.623047" xlink:href="#DejaVuSans-48"/>
      </g>
     </g>
    </g>
    <g id="text_19">
     <!-- Students Registered -->
     <defs>
      <path d="M 53.515625 70.515625 
L 53.515625 60.890625 
Q 47.90625 63.578125 42.921875 64.890625 
Q 37.9375 66.21875 33.296875 66.21875 
Q 25.25 66.21875 20.875 63.09375 
Q 16.5 59.96875 16.5 54.203125 
Q 16.5 49.359375 19.40625 46.890625 
Q 22.3125 44.4375 30.421875 42.921875 
L 36.375 41.703125 
Q 47.40625 39.59375 52.65625 34.296875 
Q 57.90625 29 57.90625 20.125 
Q 57.90625 9.515625 50.796875 4.046875 
Q 43.703125 -1.421875 29.984375 -1.421875 
Q 24.8125 -1.421875 18.96875 -0.25 
Q 13.140625 0.921875 6.890625 3.21875 
L 6.890625 13.375 
Q 12.890625 10.015625 18.65625 8.296875 
Q 24.421875 6.59375 29.984375 6.59375 
Q 38.421875 6.59375 43.015625 9.90625 
Q 47.609375 13.234375 47.609375 19.390625 
Q 47.609375 24.75 44.3125 27.78125 
Q 41.015625 30.8125 33.5 32.328125 
L 27.484375 33.5 
Q 16.453125 35.6875 11.515625 40.375 
Q 6.59375 45.0625 6.59375 53.421875 
Q 6.59375 63.09375 13.40625 68.65625 
Q 20.21875 74.21875 32.171875 74.21875 
Q 37.3125 74.21875 42.625 73.28125 
Q 47.953125 72.359375 53.515625 70.515625 
z
" id="DejaVuSans-83"/>
      <path d="M 8.5 21.578125 
L 8.5 54.6875 
L 17.484375 54.6875 
L 17.484375 21.921875 
Q 17.484375 14.15625 20.5 10.265625 
Q 23.53125 6.390625 29.59375 6.390625 
Q 36.859375 6.390625 41.078125 11.03125 
Q 45.3125 15.671875 45.3125 23.6875 
L 45.3125 54.6875 
L 54.296875 54.6875 
L 54.296875 0 
L 45.3125 0 
L 45.3125 8.40625 
Q 42.046875 3.421875 37.71875 1 
Q 33.40625 -1.421875 27.6875 -1.421875 
Q 18.265625 -1.421875 13.375 4.4375 
Q 8.5 10.296875 8.5 21.578125 
z
M 31.109375 56 
z
" id="DejaVuSans-117"/>
      <path d="M 45.40625 46.390625 
L 45.40625 75.984375 
L 54.390625 75.984375 
L 54.390625 0 
L 45.40625 0 
L 45.40625 8.203125 
Q 42.578125 3.328125 38.25 0.953125 
Q 33.9375 -1.421875 27.875 -1.421875 
Q 17.96875 -1.421875 11.734375 6.484375 
Q 5.515625 14.40625 5.515625 27.296875 
Q 5.515625 40.1875 11.734375 48.09375 
Q 17.96875 56 27.875 56 
Q 33.9375 56 38.25 53.625 
Q 42.578125 51.265625 45.40625 46.390625 
z
M 14.796875 27.296875 
Q 14.796875 17.390625 18.875 11.75 
Q 22.953125 6.109375 30.078125 6.109375 
Q 37.203125 6.109375 41.296875 11.75 
Q 45.40625 17.390625 45.40625 27.296875 
Q 45.40625 37.203125 41.296875 42.84375 
Q 37.203125 48.484375 30.078125 48.484375 
Q 22.953125 48.484375 18.875 42.84375 
Q 14.796875 37.203125 14.796875 27.296875 
z
" id="DejaVuSans-100"/>
      <path d="M 54.890625 33.015625 
L 54.890625 0 
L 45.90625 0 
L 45.90625 32.71875 
Q 45.90625 40.484375 42.875 44.328125 
Q 39.84375 48.1875 33.796875 48.1875 
Q 26.515625 48.1875 22.3125 43.546875 
Q 18.109375 38.921875 18.109375 30.90625 
L 18.109375 0 
L 9.078125 0 
L 9.078125 54.6875 
L 18.109375 54.6875 
L 18.109375 46.1875 
Q 21.34375 51.125 25.703125 53.5625 
Q 30.078125 56 35.796875 56 
Q 45.21875 56 50.046875 50.171875 
Q 54.890625 44.34375 54.890625 33.015625 
z
" id="DejaVuSans-110"/>
      <path d="M 44.28125 53.078125 
L 44.28125 44.578125 
Q 40.484375 46.53125 36.375 47.5 
Q 32.28125 48.484375 27.875 48.484375 
Q 21.1875 48.484375 17.84375 46.4375 
Q 14.5 44.390625 14.5 40.28125 
Q 14.5 37.15625 16.890625 35.375 
Q 19.28125 33.59375 26.515625 31.984375 
L 29.59375 31.296875 
Q 39.15625 29.25 43.1875 25.515625 
Q 47.21875 21.78125 47.21875 15.09375 
Q 47.21875 7.46875 41.1875 3.015625 
Q 35.15625 -1.421875 24.609375 -1.421875 
Q 20.21875 -1.421875 15.453125 -0.5625 
Q 10.6875 0.296875 5.421875 2 
L 5.421875 11.28125 
Q 10.40625 8.6875 15.234375 7.390625 
Q 20.0625 6.109375 24.8125 6.109375 
Q 31.15625 6.109375 34.5625 8.28125 
Q 37.984375 10.453125 37.984375 14.40625 
Q 37.984375 18.0625 35.515625 20.015625 
Q 33.0625 21.96875 24.703125 23.78125 
L 21.578125 24.515625 
Q 13.234375 26.265625 9.515625 29.90625 
Q 5.8125 33.546875 5.8125 39.890625 
Q 5.8125 47.609375 11.28125 51.796875 
Q 16.75 56 26.8125 56 
Q 31.78125 56 36.171875 55.265625 
Q 40.578125 54.546875 44.28125 53.078125 
z
" id="DejaVuSans-115"/>
      <path id="DejaVuSans-32"/>
      <path d="M 44.390625 34.1875 
Q 47.5625 33.109375 50.5625 29.59375 
Q 53.5625 26.078125 56.59375 19.921875 
L 66.609375 0 
L 56 0 
L 46.6875 18.703125 
Q 43.0625 26.03125 39.671875 28.421875 
Q 36.28125 30.8125 30.421875 30.8125 
L 19.671875 30.8125 
L 19.671875 0 
L 9.8125 0 
L 9.8125 72.90625 
L 32.078125 72.90625 
Q 44.578125 72.90625 50.734375 67.671875 
Q 56.890625 62.453125 56.890625 51.90625 
Q 56.890625 45.015625 53.6875 40.46875 
Q 50.484375 35.9375 44.390625 34.1875 
z
M 19.671875 64.796875 
L 19.671875 38.921875 
L 32.078125 38.921875 
Q 39.203125 38.921875 42.84375 42.21875 
Q 46.484375 45.515625 46.484375 51.90625 
Q 46.484375 58.296875 42.84375 61.546875 
Q 39.203125 64.796875 32.078125 64.796875 
z
" id="DejaVuSans-82"/>
      <path d="M 45.40625 27.984375 
Q 45.40625 37.75 41.375 43.109375 
Q 37.359375 48.484375 30.078125 48.484375 
Q 22.859375 48.484375 18.828125 43.109375 
Q 14.796875 37.75 14.796875 27.984375 
Q 14.796875 18.265625 18.828125 12.890625 
Q 22.859375 7.515625 30.078125 7.515625 
Q 37.359375 7.515625 41.375 12.890625 
Q 45.40625 18.265625 45.40625 27.984375 
z
M 54.390625 6.78125 
Q 54.390625 -7.171875 48.1875 -13.984375 
Q 42 -20.796875 29.203125 -20.796875 
Q 24.46875 -20.796875 20.265625 -20.09375 
Q 16.0625 -19.390625 12.109375 -17.921875 
L 12.109375 -9.1875 
Q 16.0625 -11.328125 19.921875 -12.34375 
Q 23.78125 -13.375 27.78125 -13.375 
Q 36.625 -13.375 41.015625 -8.765625 
Q 45.40625 -4.15625 45.40625 5.171875 
L 45.40625 9.625 
Q 42.625 4.78125 38.28125 2.390625 
Q 33.9375 0 27.875 0 
Q 17.828125 0 11.671875 7.65625 
Q 5.515625 15.328125 5.515625 27.984375 
Q 5.515625 40.671875 11.671875 48.328125 
Q 17.828125 56 27.875 56 
Q 33.9375 56 38.28125 53.609375 
Q 42.625 51.21875 45.40625 46.390625 
L 45.40625 54.6875 
L 54.390625 54.6875 
z
" id="DejaVuSans-103"/>
      <path d="M 9.421875 54.6875 
L 18.40625 54.6875 
L 18.40625 0 
L 9.421875 0 
z
M 9.421875 75.984375 
L 18.40625 75.984375 
L 18.40625 64.59375 
L 9.421875 64.59375 
z
" id="DejaVuSans-105"/>
      <path d="M 41.109375 46.296875 
Q 39.59375 47.171875 37.8125 47.578125 
Q 36.03125 48 33.890625 48 
Q 26.265625 48 22.1875 43.046875 
Q 18.109375 38.09375 18.109375 28.8125 
L 18.109375 0 
L 9.078125 0 
L 9.078125 54.6875 
L 18.109375 54.6875 
L 18.109375 46.1875 
Q 20.953125 51.171875 25.484375 53.578125 
Q 30.03125 56 36.53125 56 
Q 37.453125 56 38.578125 55.875 
Q 39.703125 55.765625 41.0625 55.515625 
z
" id="DejaVuSans-114"/>
     </defs>
     <g transform="translate(17.745313 167.498979)rotate(-90)scale(0.1 -0.1)">
      <use xlink:href="#DejaVuSans-83"/>
      <use x="63.476562" xlink:href="#DejaVuSans-116"/>
      <use x="102.685547" xlink:href="#DejaVuSans-117"/>
      <use x="166.064453" xlink:href="#DejaVuSans-100"/>
      <use x="229.541016" xlink:href="#DejaVuSans-101"/>
      <use x="291.064453" xlink:href="#DejaVuSans-110"/>
      <use x="354.443359" xlink:href="#DejaVuSans-116"/>
      <use x="393.652344" xlink:href="#DejaVuSans-115"/>
      <use x="445.751953" xlink:href="#DejaVuSans-32"/>
      <use x="477.539062" xlink:href="#DejaVuSans-82"/>
      <use x="546.958984" xlink:href="#DejaVuSans-101"/>
      <use x="608.482422" xlink:href="#DejaVuSans-103"/>
      <use x="671.958984" xlink:href="#DejaVuSans-105"/>
      <use x="699.742188" xlink:href="#DejaVuSans-115"/>
      <use x="751.841797" xlink:href="#DejaVuSans-116"/>
      <use x="791.050781" xlink:href="#DejaVuSans-101"/>
      <use x="852.574219" xlink:href="#DejaVuSans-114"/>
      <use x="893.65625" xlink:href="#DejaVuSans-101"/>
      <use x="955.179688" xlink:href="#DejaVuSans-100"/>
     </g>
    </g>
   </g>
   <g id="line2d_18">
    <path clip-path="url(#p8d94010aaa)" d="M 55.905 201.382519 
L 60.299659 201.382519 
L 60.299659 196.670456 
L 60.376099 196.670456 
L 63.204503 196.670456 
L 63.204503 191.958393 
L 63.280944 191.958393 
L 63.816029 191.958393 
L 63.816029 187.24633 
L 63.892461 187.24633 
L 67.026601 187.24633 
L 67.026601 177.822204 
L 67.103062 177.822204 
L 67.33239 177.822204 
L 67.33239 173.110142 
L 67.408839 173.110142 
L 67.638164 173.110142 
L 67.638164 168.398079 
L 67.714596 168.398079 
L 67.791045 168.398079 
L 67.791045 163.686016 
L 67.867505 163.686016 
L 71.307416 163.686016 
L 71.307416 158.973953 
L 71.383851 158.973953 
L 74.823775 158.973953 
L 74.823775 154.26189 
L 74.900227 154.26189 
L 81.550739 154.26189 
L 81.550739 144.837764 
L 81.627144 144.837764 
L 81.856504 144.837764 
L 81.856504 140.125701 
L 81.93293 140.125701 
L 82.620928 140.125701 
L 82.620928 135.413638 
L 82.697359 135.413638 
L 85.067075 135.413638 
L 85.067075 130.701575 
L 85.143517 130.701575 
L 85.831513 130.701575 
L 85.831513 125.989512 
L 85.907957 125.989512 
L 85.984399 125.989512 
L 85.984399 121.277449 
L 86.060846 121.277449 
L 86.137283 121.277449 
L 86.175499 107.14126 
L 86.213723 107.14126 
L 88.736311 107.14126 
L 88.736311 102.429197 
L 88.812785 102.429197 
L 88.889193 102.429197 
L 88.889193 93.005071 
L 88.965667 93.005071 
L 89.042077 93.005071 
L 89.042077 88.293008 
L 89.118528 88.293008 
L 89.194978 88.293008 
L 89.233197 74.156819 
L 89.271421 74.156819 
L 89.500742 74.156819 
L 89.500742 60.02063 
L 89.5772 60.02063 
L 89.653647 60.02063 
L 89.653647 50.596504 
L 89.7301 50.596504 
L 89.80651 50.596504 
L 89.80651 31.748252 
L 89.882979 31.748252 
L 89.959416 31.748252 
L 89.959416 27.036189 
L 90.035874 27.036189 
L 90.723848 27.036189 
L 90.723848 22.324126 
L 90.800294 22.324126 
L 132.7673 22.324126 
L 132.7673 27.036189 
L 132.843713 27.036189 
L 132.920183 27.036189 
L 132.920183 22.324126 
L 132.996622 22.324126 
L 133.225937 22.324126 
L 133.225937 27.036189 
L 133.302397 27.036189 
L 133.684575 27.036189 
L 133.684575 31.748252 
L 133.761048 31.748252 
L 133.990383 31.748252 
L 133.990383 36.460315 
L 134.066806 36.460315 
L 138.118255 36.460315 
L 138.118255 41.172378 
L 138.194696 41.172378 
L 147.138501 41.172378 
L 147.138501 36.460315 
L 147.214946 36.460315 
L 164.108741 36.460315 
L 164.108741 41.172378 
L 164.185206 41.172378 
L 170.071281 41.172378 
L 170.071281 36.460315 
L 170.147719 36.460315 
L 188.723304 36.460315 
L 188.723304 31.748252 
L 188.799742 31.748252 
L 191.169428 31.748252 
L 191.169428 27.036189 
L 191.245874 27.036189 
L 195.450234 27.036189 
L 195.450234 22.324126 
L 217.465719 22.324126 
L 217.465719 31.748252 
L 217.542132 31.748252 
L 217.924337 31.748252 
L 217.924337 36.460315 
L 218.000816 36.460315 
L 244.526392 36.460315 
L 244.526392 41.172378 
L 244.602862 41.172378 
L 250.030267 41.172378 
L 250.030267 36.460315 
L 250.1067 36.460315 
L 253.699522 36.460315 
L 253.699522 31.748252 
L 253.775942 31.748252 
L 254.769681 31.748252 
L 254.769681 27.036189 
L 254.846163 27.036189 
L 265.165916 27.036189 
L 265.165916 22.324126 
L 265.242364 22.324126 
L 285.040966 22.324126 
L 285.040966 27.036189 
L 285.117468 27.036189 
L 302.317001 27.036189 
L 302.317001 22.324126 
L 302.393453 22.324126 
L 303.005 22.324126 
L 303.005 22.324126 
" style="fill:none;stroke:#1b9e77;stroke-linecap:square;stroke-width:1.5;"/>
   </g>
   <g id="line2d_19">
    <path clip-path="url(#p8d94010aaa)" d="M 55.905 210.806645 
L 56.066083 210.806645 
L 56.066083 201.382519 
L 56.176882 201.382519 
L 56.783314 201.382519 
L 56.783314 196.670456 
L 56.85718 196.670456 
L 60.299659 196.670456 
L 60.299659 191.958393 
L 60.376099 191.958393 
L 63.204503 191.958393 
L 63.204503 177.822204 
L 63.280944 177.822204 
L 63.357373 177.822204 
L 63.357373 173.110142 
L 63.433828 173.110142 
L 63.510258 173.110142 
L 63.510258 154.26189 
L 63.586709 154.26189 
L 63.663142 154.26189 
L 63.663142 149.549827 
L 63.739583 149.549827 
L 63.816029 149.549827 
L 63.816029 140.125701 
L 63.892461 140.125701 
L 63.968937 140.125701 
L 63.968937 125.989512 
L 64.045376 125.989512 
L 66.720855 125.989512 
L 66.720855 121.277449 
L 66.797295 121.277449 
L 66.873723 121.277449 
L 66.873723 116.565386 
L 66.950164 116.565386 
L 67.33239 116.565386 
L 67.33239 111.853323 
L 67.408839 111.853323 
L 67.638164 111.853323 
L 67.638164 97.717134 
L 67.714596 97.717134 
L 67.791045 97.717134 
L 67.791045 93.005071 
L 67.867505 93.005071 
L 70.848744 93.005071 
L 70.848744 88.293008 
L 70.925203 88.293008 
L 71.001624 88.293008 
L 71.001624 83.580945 
L 71.078089 83.580945 
L 71.307416 83.580945 
L 71.307416 78.868882 
L 71.383851 78.868882 
L 71.766063 78.868882 
L 71.766063 74.156819 
L 71.842498 74.156819 
L 74.365134 74.156819 
L 74.365134 69.444756 
L 74.441548 69.444756 
L 81.550739 69.444756 
L 81.550739 45.884441 
L 81.627144 45.884441 
L 81.703609 45.884441 
L 81.703609 36.460315 
L 81.780028 36.460315 
L 81.856504 36.460315 
L 81.856504 31.748252 
L 81.93293 31.748252 
L 133.378809 31.748252 
L 133.378809 36.460315 
L 133.455266 36.460315 
L 133.53169 36.460315 
L 133.53169 31.748252 
L 133.608133 31.748252 
L 141.787492 31.748252 
L 141.787492 36.460315 
L 141.863961 36.460315 
L 141.940388 36.460315 
L 141.940388 31.748252 
L 142.016826 31.748252 
L 217.465719 31.748252 
L 217.465719 22.324126 
L 217.542132 22.324126 
L 303.005 22.324126 
L 303.005 22.324126 
" style="fill:none;stroke:#d95f02;stroke-linecap:square;stroke-width:1.5;"/>
   </g>
   <g id="line2d_20">
    <path clip-path="url(#p8d94010aaa)" d="M 87.81903 196.670456 
L 88.583422 196.670456 
L 88.583422 182.534267 
L 88.659992 182.534267 
L 88.736311 182.534267 
L 88.736311 177.822204 
L 88.812785 177.822204 
L 88.889193 177.822204 
L 88.889193 158.973953 
L 88.965667 158.973953 
L 89.194978 158.973953 
L 89.194978 144.837764 
L 89.271421 144.837764 
L 89.500742 144.837764 
L 89.500742 116.565386 
L 89.5772 116.565386 
L 89.80651 116.565386 
L 89.80651 107.14126 
L 89.882979 107.14126 
L 89.959416 107.14126 
L 89.959416 102.429197 
L 90.035874 102.429197 
L 90.112288 102.429197 
L 90.112288 97.717134 
L 90.188757 97.717134 
L 90.418083 97.717134 
L 90.418083 93.005071 
L 90.49449 93.005071 
L 92.558443 93.005071 
L 92.558443 74.156819 
L 92.634912 74.156819 
L 92.864224 74.156819 
L 92.864224 69.444756 
L 92.940654 69.444756 
L 93.170018 69.444756 
L 93.170018 60.02063 
L 93.246444 60.02063 
L 93.322903 60.02063 
L 93.322903 55.308567 
L 93.399326 55.308567 
L 93.628678 55.308567 
L 93.628678 50.596504 
L 93.705095 50.596504 
L 96.839255 50.596504 
L 96.839255 45.884441 
L 96.915682 45.884441 
L 96.992114 45.884441 
L 96.992114 41.172378 
L 97.068591 41.172378 
L 97.145007 41.172378 
L 97.145007 36.460315 
L 97.221468 36.460315 
L 97.603684 36.460315 
L 97.603684 31.748252 
L 97.680129 31.748252 
L 107.388316 31.748252 
L 107.388316 22.324126 
L 107.464778 22.324126 
L 126.193204 22.324126 
L 126.193204 27.036189 
L 126.269657 27.036189 
L 127.110515 27.036189 
L 127.110515 22.324126 
L 127.186961 22.324126 
L 140.411549 22.324126 
L 140.411549 27.036189 
L 140.487995 27.036189 
L 141.634625 27.036189 
L 141.634625 22.324126 
L 141.711077 22.324126 
L 240.551396 22.324126 
L 240.551396 27.036189 
L 240.627829 27.036189 
L 244.832173 27.036189 
L 244.832173 22.324126 
L 244.908606 22.324126 
L 276.020758 22.324126 
L 276.020758 27.036189 
L 276.097213 27.036189 
L 276.173652 27.036189 
L 276.173652 22.324126 
L 276.250086 22.324126 
L 276.632281 22.324126 
L 276.632281 27.036189 
L 276.708741 27.036189 
L 277.090938 27.036189 
L 277.090938 22.324126 
L 277.167379 22.324126 
L 284.582316 22.324126 
L 284.582316 27.036189 
L 284.658795 27.036189 
L 285.040966 27.036189 
L 285.040966 22.324126 
L 285.117468 22.324126 
L 296.201622 22.324126 
L 296.201622 27.036189 
L 296.278053 27.036189 
L 299.717981 27.036189 
L 299.717981 22.324126 
L 299.794397 22.324126 
L 303.005 22.324126 
L 303.005 22.324126 
" style="fill:none;stroke:#7570b3;stroke-linecap:square;stroke-width:1.5;"/>
   </g>
   <g id="line2d_21">
    <path clip-path="url(#p8d94010aaa)" d="M 55.905 182.534267 
L 56.066083 182.534267 
L 56.066083 177.822204 
L 56.176882 177.822204 
L 56.85718 177.822204 
L 56.85718 173.110142 
L 59.303373 173.110142 
L 59.303373 168.398079 
L 59.535254 168.398079 
L 59.535254 163.686016 
L 59.611705 163.686016 
L 59.68813 163.686016 
L 59.68813 158.973953 
L 59.764586 158.973953 
L 60.146806 158.973953 
L 60.146806 144.837764 
L 60.223265 144.837764 
L 60.299659 144.837764 
L 60.299659 140.125701 
L 60.376099 140.125701 
L 63.357373 140.125701 
L 63.357373 130.701575 
L 63.433828 130.701575 
L 63.510258 130.701575 
L 63.510258 125.989512 
L 63.586709 125.989512 
L 63.663142 125.989512 
L 63.663142 130.701575 
L 63.739583 130.701575 
L 63.968937 130.701575 
L 63.968937 125.989512 
L 64.045376 125.989512 
L 64.121791 125.989512 
L 64.121791 116.565386 
L 64.198229 116.565386 
L 64.886236 116.565386 
L 64.886236 107.14126 
L 64.962687 107.14126 
L 66.567973 107.14126 
L 66.567973 102.429197 
L 66.644408 102.429197 
L 66.720855 102.429197 
L 66.720855 83.580945 
L 66.797295 83.580945 
L 66.873723 83.580945 
L 66.873723 74.156819 
L 66.950164 74.156819 
L 67.17951 74.156819 
L 67.17951 69.444756 
L 67.255954 69.444756 
L 67.33239 69.444756 
L 67.33239 64.732693 
L 67.408839 64.732693 
L 67.48528 64.732693 
L 67.48528 60.02063 
L 67.561731 60.02063 
L 67.638164 60.02063 
L 67.638164 45.884441 
L 67.714596 45.884441 
L 67.791045 45.884441 
L 67.791045 41.172378 
L 67.867505 41.172378 
L 67.943939 41.172378 
L 67.943939 36.460315 
L 68.020368 36.460315 
L 70.542968 36.460315 
L 70.542968 27.036189 
L 70.619422 27.036189 
L 70.695886 27.036189 
L 70.695886 22.324126 
L 70.772321 22.324126 
L 88.736311 22.324126 
L 88.736311 27.036189 
L 88.812785 27.036189 
L 88.889193 27.036189 
L 88.889193 22.324126 
L 88.965667 22.324126 
L 240.398486 22.324126 
L 240.398486 27.036189 
L 240.474934 27.036189 
L 240.551396 27.036189 
L 240.551396 22.324126 
L 240.627829 22.324126 
L 302.317001 22.324126 
L 302.317001 27.036189 
L 302.393453 27.036189 
L 302.469918 27.036189 
L 302.469918 22.324126 
L 302.546359 22.324126 
L 303.005 22.324126 
L 303.005 22.324126 
" style="fill:none;stroke:#e7298a;stroke-linecap:square;stroke-width:1.5;"/>
   </g>
   <g id="line2d_22">
    <path clip-path="url(#p8d94010aaa)" d="M 55.905 201.382519 
L 59.993929 201.382519 
L 59.993929 196.670456 
L 60.070348 196.670456 
L 63.051624 196.670456 
L 63.051624 191.958393 
L 63.128038 191.958393 
L 63.204503 191.958393 
L 63.204503 187.24633 
L 63.280944 187.24633 
L 63.357373 187.24633 
L 63.357373 177.822204 
L 63.433828 177.822204 
L 63.510258 177.822204 
L 63.510258 173.110142 
L 63.586709 173.110142 
L 63.663142 173.110142 
L 63.663142 168.398079 
L 63.739583 168.398079 
L 63.816029 168.398079 
L 63.816029 163.686016 
L 63.892461 163.686016 
L 64.121791 163.686016 
L 64.121791 158.973953 
L 64.198229 158.973953 
L 66.720855 158.973953 
L 66.720855 149.549827 
L 66.797295 149.549827 
L 66.873723 149.549827 
L 66.873723 144.837764 
L 66.950164 144.837764 
L 67.48528 144.837764 
L 67.48528 140.125701 
L 67.561731 140.125701 
L 67.638164 140.125701 
L 67.638164 130.701575 
L 67.714596 130.701575 
L 81.550739 130.701575 
L 81.550739 125.989512 
L 81.627144 125.989512 
L 81.703609 125.989512 
L 81.703609 121.277449 
L 81.780028 121.277449 
L 81.856504 121.277449 
L 81.856504 116.565386 
L 81.93293 116.565386 
L 82.009372 116.565386 
L 82.009372 111.853323 
L 82.085808 111.853323 
L 82.162274 111.853323 
L 82.162274 102.429197 
L 82.238698 102.429197 
L 82.315161 102.429197 
L 82.315161 97.717134 
L 82.391584 97.717134 
L 85.067075 97.717134 
L 85.105299 83.580945 
L 85.143517 83.580945 
L 85.372853 83.580945 
L 85.372853 74.156819 
L 85.449293 74.156819 
L 85.831513 74.156819 
L 85.831513 69.444756 
L 85.907957 69.444756 
L 85.984399 69.444756 
L 85.984399 60.02063 
L 86.060846 60.02063 
L 86.137283 60.02063 
L 86.137283 36.460315 
L 86.213723 36.460315 
L 86.290145 36.460315 
L 86.290145 22.324126 
L 86.366658 22.324126 
L 88.583422 22.324126 
L 88.583422 27.036189 
L 88.659992 27.036189 
L 88.889193 27.036189 
L 88.889193 22.324126 
L 88.965667 22.324126 
L 125.887423 22.324126 
L 125.887423 27.036189 
L 125.963892 27.036189 
L 126.04034 27.036189 
L 126.04034 22.324126 
L 126.116752 22.324126 
L 132.7673 22.324126 
L 132.7673 27.036189 
L 132.843713 27.036189 
L 133.073028 27.036189 
L 133.073028 22.324126 
L 133.149509 22.324126 
L 133.378809 22.324126 
L 133.378809 27.036189 
L 133.455266 27.036189 
L 133.990383 27.036189 
L 133.990383 22.324126 
L 134.066806 22.324126 
L 303.005 22.324126 
L 303.005 22.324126 
" style="fill:none;stroke:#66a61e;stroke-linecap:square;stroke-width:1.5;"/>
   </g>
   <g id="line2d_23">
    <path clip-path="url(#p8d94010aaa)" d="M 55.905 191.958393 
L 63.204503 191.958393 
L 63.204503 187.24633 
L 63.280944 187.24633 
L 63.968937 187.24633 
L 63.968937 182.534267 
L 64.045376 182.534267 
L 64.274697 182.534267 
L 64.274697 177.822204 
L 64.351149 177.822204 
L 67.17951 177.822204 
L 67.17951 173.110142 
L 67.255954 173.110142 
L 67.48528 173.110142 
L 67.48528 168.398079 
L 67.561731 168.398079 
L 70.542968 168.398079 
L 70.542968 163.686016 
L 70.619422 163.686016 
L 81.397832 163.686016 
L 81.397832 154.26189 
L 81.474259 154.26189 
L 81.550739 154.26189 
L 81.550739 144.837764 
L 81.627144 144.837764 
L 82.009372 144.837764 
L 82.009372 140.125701 
L 82.085808 140.125701 
L 82.620928 140.125701 
L 82.620928 135.413638 
L 82.697359 135.413638 
L 85.372853 135.413638 
L 85.372853 130.701575 
L 85.449293 130.701575 
L 85.678597 130.701575 
L 85.678597 121.277449 
L 85.75508 121.277449 
L 85.984399 121.277449 
L 85.984399 116.565386 
L 86.060846 116.565386 
L 86.901712 116.565386 
L 86.901712 111.853323 
L 86.978146 111.853323 
L 88.583422 111.853323 
L 88.583422 107.14126 
L 88.659992 107.14126 
L 88.889193 107.14126 
L 88.889193 102.429197 
L 88.965667 102.429197 
L 89.042077 102.429197 
L 89.042077 93.005071 
L 89.118528 93.005071 
L 89.347872 93.005071 
L 89.347872 88.293008 
L 89.424333 88.293008 
L 89.500742 88.293008 
L 89.538978 74.156819 
L 89.5772 74.156819 
L 89.653647 74.156819 
L 89.653647 64.732693 
L 89.7301 64.732693 
L 90.265164 64.732693 
L 90.265164 69.444756 
L 90.341641 69.444756 
L 92.558443 69.444756 
L 92.558443 60.02063 
L 92.634912 60.02063 
L 92.711366 60.02063 
L 92.711366 55.308567 
L 92.787807 55.308567 
L 93.017115 55.308567 
L 93.017115 50.596504 
L 93.093559 50.596504 
L 93.170018 50.596504 
L 93.170018 41.172378 
L 93.246444 41.172378 
L 93.322903 41.172378 
L 93.322903 36.460315 
L 93.399326 36.460315 
L 93.628678 36.460315 
L 93.628678 31.748252 
L 93.705095 31.748252 
L 219.147442 31.748252 
L 219.147442 36.460315 
L 219.223867 36.460315 
L 222.663784 36.460315 
L 222.663784 31.748252 
L 222.740247 31.748252 
L 303.005 31.748252 
L 303.005 31.748252 
" style="fill:none;stroke:#e6ab02;stroke-linecap:square;stroke-width:1.5;"/>
   </g>
   <g id="line2d_24">
    <path clip-path="url(#p8d94010aaa)" d="M 55.905 196.670456 
L 59.993929 196.670456 
L 59.993929 191.958393 
L 60.070348 191.958393 
L 63.051624 191.958393 
L 63.051624 187.24633 
L 63.128038 187.24633 
L 63.204503 187.24633 
L 63.204503 182.534267 
L 63.280944 182.534267 
L 63.510258 182.534267 
L 63.510258 177.822204 
L 63.586709 177.822204 
L 63.663142 177.822204 
L 63.663142 173.110142 
L 63.739583 173.110142 
L 63.816029 173.110142 
L 63.816029 163.686016 
L 63.892461 163.686016 
L 63.968937 163.686016 
L 63.968937 158.973953 
L 64.045376 158.973953 
L 64.121791 158.973953 
L 64.121791 154.26189 
L 64.198229 154.26189 
L 66.567973 154.26189 
L 66.567973 149.549827 
L 66.644408 149.549827 
L 66.720855 149.549827 
L 66.720855 140.125701 
L 66.797295 140.125701 
L 67.026601 140.125701 
L 67.026601 135.413638 
L 67.103062 135.413638 
L 67.17951 135.413638 
L 67.17951 125.989512 
L 67.255954 125.989512 
L 67.48528 125.989512 
L 67.48528 121.277449 
L 67.561731 121.277449 
L 67.791045 121.277449 
L 67.791045 116.565386 
L 67.867505 116.565386 
L 67.943939 116.565386 
L 67.943939 111.853323 
L 68.020368 111.853323 
L 70.695886 111.853323 
L 70.695886 107.14126 
L 70.772321 107.14126 
L 71.307416 107.14126 
L 71.307416 102.429197 
L 71.383851 102.429197 
L 75.282408 102.429197 
L 75.282408 97.717134 
L 75.358866 97.717134 
L 81.397832 97.717134 
L 81.397832 93.005071 
L 81.474259 93.005071 
L 81.856504 93.005071 
L 81.856504 78.868882 
L 81.93293 78.868882 
L 82.009372 78.868882 
L 82.009372 69.444756 
L 82.085808 69.444756 
L 82.162274 69.444756 
L 82.162274 60.02063 
L 82.238698 60.02063 
L 82.620928 60.02063 
L 82.620928 55.308567 
L 82.697359 55.308567 
L 84.761312 55.308567 
L 84.761312 50.596504 
L 84.837749 50.596504 
L 85.219957 50.596504 
L 85.219957 45.884441 
L 85.296423 45.884441 
L 85.372853 45.884441 
L 85.372853 41.172378 
L 85.449293 41.172378 
L 85.525728 41.172378 
L 85.525728 36.460315 
L 85.602166 36.460315 
L 85.984399 36.460315 
L 85.984399 31.748252 
L 86.060846 31.748252 
L 303.005 31.748252 
L 303.005 31.748252 
" style="fill:none;stroke:#a6761d;stroke-linecap:square;stroke-width:1.5;"/>
   </g>
   <g id="line2d_25">
    <path clip-path="url(#p8d94010aaa)" d="M 55.905 196.670456 
L 59.303373 196.670456 
L 59.303373 191.958393 
L 63.816029 191.958393 
L 63.816029 187.24633 
L 63.892461 187.24633 
L 66.873723 187.24633 
L 66.873723 182.534267 
L 66.950164 182.534267 
L 67.17951 182.534267 
L 67.17951 177.822204 
L 67.255954 177.822204 
L 67.638164 177.822204 
L 67.638164 173.110142 
L 67.714596 173.110142 
L 67.791045 173.110142 
L 67.791045 168.398079 
L 67.867505 168.398079 
L 68.708363 168.398079 
L 68.708363 163.686016 
L 68.784821 163.686016 
L 81.856504 163.686016 
L 81.856504 154.26189 
L 81.93293 154.26189 
L 85.372853 154.26189 
L 85.372853 149.549827 
L 85.449293 149.549827 
L 86.137283 149.549827 
L 86.137283 144.837764 
L 86.213723 144.837764 
L 86.595951 144.837764 
L 86.595951 140.125701 
L 86.672385 140.125701 
L 88.889193 140.125701 
L 88.889193 135.413638 
L 88.965667 135.413638 
L 89.042077 135.413638 
L 89.042077 125.989512 
L 89.118528 125.989512 
L 89.500742 125.989512 
L 89.500742 116.565386 
L 89.5772 116.565386 
L 92.864224 116.565386 
L 92.864224 111.853323 
L 92.940654 111.853323 
L 93.322903 111.853323 
L 93.322903 107.14126 
L 93.399326 107.14126 
L 93.781528 107.14126 
L 93.781528 102.429197 
L 93.857988 102.429197 
L 97.603684 102.429197 
L 97.603684 97.717134 
L 97.680129 97.717134 
L 108.152759 97.717134 
L 108.152759 93.005071 
L 108.229212 93.005071 
L 111.669109 93.005071 
L 111.669109 88.293008 
L 111.745569 88.293008 
L 115.644152 88.293008 
L 115.644152 93.005071 
L 115.720584 93.005071 
L 133.225937 93.005071 
L 133.225937 88.293008 
L 133.302397 88.293008 
L 133.378809 88.293008 
L 133.378809 93.005071 
L 133.455266 93.005071 
L 137.200956 93.005071 
L 137.200956 88.293008 
L 137.277416 88.293008 
L 164.108741 88.293008 
L 164.108741 83.580945 
L 164.185206 83.580945 
L 188.570387 83.580945 
L 188.570387 78.868882 
L 188.646829 78.868882 
L 196.367551 78.868882 
L 196.367551 83.580945 
L 196.443986 83.580945 
L 244.832173 83.580945 
L 244.832173 88.293008 
L 244.908606 88.293008 
L 246.666807 88.293008 
L 246.666807 93.005071 
L 246.743247 93.005071 
L 259.509167 93.005071 
L 259.509167 88.293008 
L 259.585594 88.293008 
L 261.649558 88.293008 
L 261.649558 83.580945 
L 261.726005 83.580945 
L 264.707233 83.580945 
L 264.707233 78.868882 
L 264.783708 78.868882 
L 268.988015 78.868882 
L 268.988015 83.580945 
L 269.064473 83.580945 
L 284.582316 83.580945 
L 284.582316 78.868882 
L 284.658795 78.868882 
L 303.005 78.868882 
L 303.005 78.868882 
" style="fill:none;stroke:#666666;stroke-linecap:square;stroke-width:1.5;"/>
   </g>
   <g id="line2d_26">
    <path clip-path="url(#p8d94010aaa)" d="M 55.905 201.382519 
L 63.357373 201.382519 
L 63.357373 196.670456 
L 63.433828 196.670456 
L 63.816029 196.670456 
L 63.816029 191.958393 
L 63.892461 191.958393 
L 67.17951 191.958393 
L 67.17951 187.24633 
L 67.255954 187.24633 
L 67.48528 187.24633 
L 67.48528 191.958393 
L 67.561731 191.958393 
L 67.638164 191.958393 
L 67.638164 182.534267 
L 67.714596 182.534267 
L 81.550739 182.534267 
L 81.550739 177.822204 
L 81.627144 177.822204 
L 81.856504 177.822204 
L 81.856504 173.110142 
L 81.93293 173.110142 
L 82.162274 173.110142 
L 82.162274 168.398079 
L 82.238698 168.398079 
L 82.315161 168.398079 
L 82.315161 163.686016 
L 82.391584 163.686016 
L 83.079562 163.686016 
L 83.079562 158.973953 
L 83.156035 158.973953 
L 85.525728 158.973953 
L 85.525728 154.26189 
L 85.602166 154.26189 
L 85.984399 154.26189 
L 85.984399 149.549827 
L 86.060846 149.549827 
L 86.137283 149.549827 
L 86.137283 144.837764 
L 86.213723 144.837764 
L 88.736311 144.837764 
L 88.736311 135.413638 
L 88.812785 135.413638 
L 88.889193 135.413638 
L 88.889193 130.701575 
L 88.965667 130.701575 
L 89.042077 130.701575 
L 89.080301 116.565386 
L 89.118528 116.565386 
L 89.653647 116.565386 
L 89.653647 111.853323 
L 89.7301 111.853323 
L 89.80651 111.853323 
L 89.80651 107.14126 
L 89.882979 107.14126 
L 89.959416 107.14126 
L 89.959416 111.853323 
L 90.035874 111.853323 
L 90.112288 111.853323 
L 90.112288 107.14126 
L 90.188757 107.14126 
L 90.265164 107.14126 
L 90.265164 102.429197 
L 90.341641 102.429197 
L 92.099811 102.429197 
L 92.099811 107.14126 
L 92.176232 107.14126 
L 92.558443 107.14126 
L 92.558443 93.005071 
L 92.634912 93.005071 
L 92.864224 93.005071 
L 92.864224 88.293008 
L 92.940654 88.293008 
L 93.170018 88.293008 
L 93.170018 69.444756 
L 93.246444 69.444756 
L 93.322903 69.444756 
L 93.322903 64.732693 
L 93.399326 64.732693 
L 96.68635 64.732693 
L 96.68635 60.02063 
L 96.762787 60.02063 
L 109.070085 60.02063 
L 109.070085 55.308567 
L 109.146527 55.308567 
L 111.516242 55.308567 
L 111.516242 50.596504 
L 111.592664 50.596504 
L 111.669109 50.596504 
L 111.669109 55.308567 
L 111.745569 55.308567 
L 111.974881 55.308567 
L 111.974881 50.596504 
L 112.051342 50.596504 
L 115.644152 50.596504 
L 115.644152 45.884441 
L 115.720584 45.884441 
L 121.91241 45.884441 
L 121.91241 50.596504 
L 121.988859 50.596504 
L 126.193204 50.596504 
L 126.193204 45.884441 
L 126.269657 45.884441 
L 132.7673 45.884441 
L 132.7673 50.596504 
L 132.843713 50.596504 
L 133.073028 50.596504 
L 133.073028 55.308567 
L 133.149509 55.308567 
L 133.53169 55.308567 
L 133.53169 60.02063 
L 133.608133 60.02063 
L 137.812483 60.02063 
L 137.812483 64.732693 
L 137.888957 64.732693 
L 144.386539 64.732693 
L 144.386539 69.444756 
L 144.463003 69.444756 
L 159.675099 69.444756 
L 159.675099 74.156819 
L 159.751525 74.156819 
L 229.084983 74.156819 
L 229.084983 69.444756 
L 229.161457 69.444756 
L 233.2129 69.444756 
L 233.2129 74.156819 
L 233.289362 74.156819 
L 272.657285 74.156819 
L 272.657285 69.444756 
L 272.733715 69.444756 
L 276.173652 69.444756 
L 276.173652 74.156819 
L 276.250086 74.156819 
L 276.326525 74.156819 
L 276.326525 78.868882 
L 276.402969 78.868882 
L 279.231348 78.868882 
L 279.231348 83.580945 
L 279.307804 83.580945 
L 303.005 83.580945 
L 303.005 83.580945 
" style="fill:none;stroke:#1b9e77;stroke-dasharray:4.5,1.5;stroke-dashoffset:0;stroke-width:1.5;"/>
   </g>
   <g id="line2d_27">
    <path clip-path="url(#p8d94010aaa)" d="M 55.905 210.806645 
L 60.452541 210.806645 
L 60.452541 206.094582 
L 60.528988 206.094582 
L 61.064112 206.094582 
L 61.064112 201.382519 
L 61.140547 201.382519 
L 70.695886 201.382519 
L 70.695886 196.670456 
L 70.772321 196.670456 
L 81.397832 196.670456 
L 81.397832 191.958393 
L 81.474259 191.958393 
L 82.468024 191.958393 
L 82.468024 182.534267 
L 82.54446 182.534267 
L 85.372853 182.534267 
L 85.372853 177.822204 
L 85.449293 177.822204 
L 85.525728 177.822204 
L 85.525728 173.110142 
L 85.602166 173.110142 
L 85.984399 173.110142 
L 85.984399 163.686016 
L 86.060846 163.686016 
L 86.137283 163.686016 
L 86.137283 158.973953 
L 86.213723 158.973953 
L 87.054569 158.973953 
L 87.054569 154.26189 
L 87.131052 154.26189 
L 88.889193 154.26189 
L 88.889193 158.973953 
L 88.965667 158.973953 
L 89.194978 158.973953 
L 89.194978 154.26189 
L 89.271421 154.26189 
L 89.347872 154.26189 
L 89.347872 149.549827 
L 89.424333 149.549827 
L 89.653647 149.549827 
L 89.653647 144.837764 
L 89.7301 144.837764 
L 89.80651 144.837764 
L 89.80651 149.549827 
L 89.882979 149.549827 
L 89.959416 149.549827 
L 89.959416 144.837764 
L 90.035874 144.837764 
L 92.558443 144.837764 
L 92.558443 140.125701 
L 92.634912 140.125701 
L 97.450797 140.125701 
L 97.450797 135.413638 
L 97.527229 135.413638 
L 107.694099 135.413638 
L 107.694099 130.701575 
L 107.770554 130.701575 
L 122.218188 130.701575 
L 122.218188 125.989512 
L 122.294665 125.989512 
L 140.411549 125.989512 
L 140.411549 121.277449 
L 140.487995 121.277449 
L 159.675099 121.277449 
L 159.675099 116.565386 
L 159.751525 116.565386 
L 195.450234 116.565386 
L 195.450234 111.853323 
L 210.127207 111.853323 
L 210.127207 107.14126 
L 210.203667 107.14126 
L 240.398486 107.14126 
L 240.398486 102.429197 
L 240.474934 102.429197 
L 244.679275 102.429197 
L 244.679275 97.717134 
L 244.75572 97.717134 
L 250.336018 97.717134 
L 250.336018 93.005071 
L 250.412481 93.005071 
L 273.574605 93.005071 
L 273.574605 88.293008 
L 273.65105 88.293008 
L 276.173652 88.293008 
L 276.173652 83.580945 
L 276.250086 83.580945 
L 277.090938 83.580945 
L 277.090938 88.293008 
L 277.167379 88.293008 
L 303.005 88.293008 
L 303.005 88.293008 
" style="fill:none;stroke:#d95f02;stroke-dasharray:4.5,1.5;stroke-dashoffset:0;stroke-width:1.5;"/>
   </g>
   <g id="line2d_28">
    <path clip-path="url(#p8d94010aaa)" d="M 55.905 206.094582 
L 63.051624 206.094582 
L 63.051624 201.382519 
L 63.128038 201.382519 
L 63.204503 201.382519 
L 63.204503 196.670456 
L 63.280944 196.670456 
L 63.816029 196.670456 
L 63.816029 187.24633 
L 63.892461 187.24633 
L 66.720855 187.24633 
L 66.720855 182.534267 
L 66.797295 182.534267 
L 67.48528 182.534267 
L 67.48528 177.822204 
L 67.561731 177.822204 
L 67.638164 177.822204 
L 67.638164 173.110142 
L 67.714596 173.110142 
L 67.791045 173.110142 
L 67.791045 168.398079 
L 67.867505 168.398079 
L 81.703609 168.398079 
L 81.703609 163.686016 
L 81.780028 163.686016 
L 81.856504 163.686016 
L 81.856504 158.973953 
L 81.93293 158.973953 
L 82.009372 158.973953 
L 82.009372 149.549827 
L 82.085808 149.549827 
L 85.831513 149.549827 
L 85.831513 144.837764 
L 85.907957 144.837764 
L 85.984399 144.837764 
L 85.984399 140.125701 
L 86.060846 140.125701 
L 88.583422 140.125701 
L 88.583422 144.837764 
L 88.659992 144.837764 
L 89.042077 144.837764 
L 89.042077 135.413638 
L 89.118528 135.413638 
L 89.194978 135.413638 
L 89.194978 140.125701 
L 89.271421 140.125701 
L 89.347872 140.125701 
L 89.347872 135.413638 
L 89.424333 135.413638 
L 89.653647 135.413638 
L 89.653647 125.989512 
L 89.7301 125.989512 
L 89.80651 125.989512 
L 89.80651 121.277449 
L 89.882979 121.277449 
L 96.992114 121.277449 
L 96.992114 116.565386 
L 97.068591 116.565386 
L 97.450797 116.565386 
L 97.450797 111.853323 
L 97.527229 111.853323 
L 104.789266 111.853323 
L 104.789266 107.14126 
L 104.86571 107.14126 
L 118.701826 107.14126 
L 118.701826 102.429197 
L 118.77828 102.429197 
L 119.313366 102.429197 
L 119.313366 97.717134 
L 119.389845 97.717134 
L 122.371095 97.717134 
L 122.371095 93.005071 
L 122.447542 93.005071 
L 134.449037 93.005071 
L 134.449037 88.293008 
L 134.525452 88.293008 
L 225.568601 88.293008 
L 225.568601 93.005071 
L 225.64508 93.005071 
L 229.084983 93.005071 
L 229.084983 97.717134 
L 229.161457 97.717134 
L 261.496664 97.717134 
L 261.496664 93.005071 
L 261.573085 93.005071 
L 262.108184 93.005071 
L 262.108184 88.293008 
L 262.184636 88.293008 
L 303.005 88.293008 
L 303.005 88.293008 
" style="fill:none;stroke:#7570b3;stroke-dasharray:4.5,1.5;stroke-dashoffset:0;stroke-width:1.5;"/>
   </g>
   <g id="line2d_29">
    <path clip-path="url(#p8d94010aaa)" d="M 124.549688 210.806645 
L 125.887423 210.806645 
L 125.887423 206.094582 
L 125.963892 206.094582 
L 130.474013 206.094582 
L 130.474013 201.382519 
L 130.550433 201.382519 
L 132.7673 201.382519 
L 132.7673 182.534267 
L 132.843713 182.534267 
L 133.073028 182.534267 
L 133.073028 173.110142 
L 133.149509 173.110142 
L 133.378809 173.110142 
L 133.378809 158.973953 
L 133.455266 158.973953 
L 133.684575 158.973953 
L 133.684575 154.26189 
L 133.761048 154.26189 
L 136.742312 154.26189 
L 136.742312 149.549827 
L 136.818753 149.549827 
L 137.506729 149.549827 
L 137.506729 144.837764 
L 137.583167 144.837764 
L 137.812483 144.837764 
L 137.812483 140.125701 
L 137.888957 140.125701 
L 138.118255 140.125701 
L 138.118255 135.413638 
L 138.194696 135.413638 
L 138.271146 135.413638 
L 138.271146 130.701575 
L 138.347573 130.701575 
L 140.411549 130.701575 
L 140.411549 125.989512 
L 140.487995 125.989512 
L 141.787492 125.989512 
L 141.787492 121.277449 
L 141.863961 121.277449 
L 144.386539 121.277449 
L 144.386539 116.565386 
L 144.463003 116.565386 
L 191.169428 116.565386 
L 191.169428 121.277449 
L 191.245874 121.277449 
L 191.933845 121.277449 
L 191.933845 116.565386 
L 192.010317 116.565386 
L 217.618596 116.565386 
L 217.618596 111.853323 
L 217.69505 111.853323 
L 217.924337 111.853323 
L 217.924337 107.14126 
L 218.000816 107.14126 
L 219.147442 107.14126 
L 219.147442 102.429197 
L 219.223867 102.429197 
L 239.939824 102.429197 
L 239.939824 97.717134 
L 240.016273 97.717134 
L 303.005 97.717134 
L 303.005 97.717134 
" style="fill:none;stroke:#e7298a;stroke-dasharray:4.5,1.5;stroke-dashoffset:0;stroke-width:1.5;"/>
   </g>
   <g id="line2d_30">
    <path clip-path="url(#p8d94010aaa)" d="M 55.905 206.094582 
L 63.357373 206.094582 
L 63.357373 201.382519 
L 63.433828 201.382519 
L 67.48528 201.382519 
L 67.48528 191.958393 
L 67.561731 191.958393 
L 81.397832 191.958393 
L 81.397832 187.24633 
L 81.474259 187.24633 
L 81.703609 187.24633 
L 81.703609 182.534267 
L 81.780028 182.534267 
L 82.162274 182.534267 
L 82.162274 177.822204 
L 82.238698 177.822204 
L 85.067075 177.822204 
L 85.067075 173.110142 
L 85.143517 173.110142 
L 85.219957 173.110142 
L 85.219957 163.686016 
L 85.296423 163.686016 
L 85.372853 163.686016 
L 85.372853 158.973953 
L 85.449293 158.973953 
L 85.678597 158.973953 
L 85.678597 154.26189 
L 85.75508 154.26189 
L 85.831513 154.26189 
L 85.831513 144.837764 
L 85.907957 144.837764 
L 85.984399 144.837764 
L 85.984399 135.413638 
L 86.060846 135.413638 
L 86.595951 135.413638 
L 86.595951 130.701575 
L 86.672385 130.701575 
L 86.901712 130.701575 
L 86.901712 125.989512 
L 86.978146 125.989512 
L 87.054569 125.989512 
L 87.054569 130.701575 
L 87.131052 130.701575 
L 88.430552 130.701575 
L 88.430552 135.413638 
L 88.507014 135.413638 
L 88.583422 135.413638 
L 88.583422 140.125701 
L 88.659992 140.125701 
L 88.736311 140.125701 
L 88.736311 135.413638 
L 88.812785 135.413638 
L 88.889193 135.413638 
L 88.889193 140.125701 
L 88.965667 140.125701 
L 89.042077 140.125701 
L 89.042077 135.413638 
L 89.118528 135.413638 
L 89.194978 135.413638 
L 89.194978 130.701575 
L 89.271421 130.701575 
L 89.500742 130.701575 
L 89.500742 135.413638 
L 89.5772 135.413638 
L 93.017115 135.413638 
L 93.017115 130.701575 
L 93.093559 130.701575 
L 93.322903 130.701575 
L 93.322903 125.989512 
L 93.399326 125.989512 
L 96.839255 125.989512 
L 96.839255 121.277449 
L 96.915682 121.277449 
L 97.909439 121.277449 
L 97.909439 116.565386 
L 97.985868 116.565386 
L 107.694099 116.565386 
L 107.694099 111.853323 
L 107.770554 111.853323 
L 107.846982 111.853323 
L 107.846982 107.14126 
L 107.92343 107.14126 
L 108.458508 107.14126 
L 108.458508 102.429197 
L 108.534975 102.429197 
L 115.644152 102.429197 
L 115.644152 97.717134 
L 115.720584 97.717134 
L 116.102768 97.717134 
L 116.102768 93.005071 
L 116.179241 93.005071 
L 123.747055 93.005071 
L 123.747055 88.293008 
L 123.823477 88.293008 
L 127.110515 88.293008 
L 127.110515 93.005071 
L 127.186961 93.005071 
L 133.073028 93.005071 
L 133.073028 97.717134 
L 133.149509 97.717134 
L 159.369321 97.717134 
L 159.369321 93.005071 
L 159.445775 93.005071 
L 185.206942 93.005071 
L 185.206942 88.293008 
L 185.283368 88.293008 
L 188.111752 88.293008 
L 188.111752 83.580945 
L 188.18817 83.580945 
L 198.660817 83.580945 
L 198.660817 78.868882 
L 198.737271 78.868882 
L 220.982091 78.868882 
L 220.982091 83.580945 
L 221.058531 83.580945 
L 221.134938 83.580945 
L 221.134938 78.868882 
L 221.211379 78.868882 
L 251.864884 78.868882 
L 251.864884 83.580945 
L 251.941312 83.580945 
L 258.897609 83.580945 
L 258.897609 88.293008 
L 258.974037 88.293008 
L 270.364135 88.293008 
L 270.364135 93.005071 
L 270.440455 93.005071 
L 292.379484 93.005071 
L 292.379484 97.717134 
L 292.455932 97.717134 
L 303.005 97.717134 
L 303.005 97.717134 
" style="fill:none;stroke:#66a61e;stroke-dasharray:4.5,1.5;stroke-dashoffset:0;stroke-width:1.5;"/>
   </g>
   <g id="line2d_31">
    <path clip-path="url(#p8d94010aaa)" d="M 55.905 210.806645 
L 59.841162 210.806645 
L 59.841162 206.094582 
L 59.917473 206.094582 
L 60.146806 206.094582 
L 60.146806 201.382519 
L 60.223265 201.382519 
L 63.663142 201.382519 
L 63.663142 196.670456 
L 63.739583 196.670456 
L 67.638164 196.670456 
L 67.638164 191.958393 
L 67.714596 191.958393 
L 70.084334 191.958393 
L 70.084334 187.24633 
L 70.160799 187.24633 
L 70.848744 187.24633 
L 70.848744 182.534267 
L 70.925203 182.534267 
L 71.154528 182.534267 
L 71.154528 177.822204 
L 71.230957 177.822204 
L 81.397832 177.822204 
L 81.397832 168.398079 
L 81.474259 168.398079 
L 81.703609 168.398079 
L 81.703609 163.686016 
L 81.780028 163.686016 
L 81.856504 163.686016 
L 81.856504 158.973953 
L 81.93293 158.973953 
L 82.009372 158.973953 
L 82.009372 154.26189 
L 82.085808 154.26189 
L 82.162274 154.26189 
L 82.162274 144.837764 
L 82.238698 144.837764 
L 82.315161 144.837764 
L 82.315161 140.125701 
L 82.391584 140.125701 
L 82.620928 140.125701 
L 82.620928 135.413638 
L 82.697359 135.413638 
L 82.926712 135.413638 
L 82.926712 130.701575 
L 83.003142 130.701575 
L 83.385326 130.701575 
L 83.385326 125.989512 
L 83.461805 125.989512 
L 85.067075 125.989512 
L 85.067075 121.277449 
L 85.143517 121.277449 
L 85.219957 121.277449 
L 85.219957 116.565386 
L 85.296423 116.565386 
L 85.372853 116.565386 
L 85.372853 102.429197 
L 85.449293 102.429197 
L 85.525728 102.429197 
L 85.525728 97.717134 
L 85.602166 97.717134 
L 85.678597 97.717134 
L 85.678597 93.005071 
L 85.75508 93.005071 
L 87.054569 93.005071 
L 87.054569 97.717134 
L 87.131052 97.717134 
L 89.042077 97.717134 
L 89.042077 93.005071 
L 89.118528 93.005071 
L 89.194978 93.005071 
L 89.194978 97.717134 
L 89.271421 97.717134 
L 89.347872 97.717134 
L 89.347872 93.005071 
L 89.424333 93.005071 
L 93.628678 93.005071 
L 93.628678 97.717134 
L 93.705095 97.717134 
L 93.781528 97.717134 
L 93.781528 93.005071 
L 93.857988 93.005071 
L 240.092739 93.005071 
L 240.092739 97.717134 
L 240.169151 97.717134 
L 251.864884 97.717134 
L 251.864884 93.005071 
L 251.941312 93.005071 
L 291.767918 93.005071 
L 291.767918 97.717134 
L 291.844399 97.717134 
L 296.201622 97.717134 
L 296.201622 93.005071 
L 296.278053 93.005071 
L 302.469918 93.005071 
L 302.469918 97.717134 
L 302.546359 97.717134 
L 303.005 97.717134 
L 303.005 97.717134 
" style="fill:none;stroke:#e6ab02;stroke-dasharray:4.5,1.5;stroke-dashoffset:0;stroke-width:1.5;"/>
   </g>
   <g id="line2d_32">
    <path clip-path="url(#p8d94010aaa)" d="M 55.905 206.094582 
L 63.510258 206.094582 
L 63.510258 196.670456 
L 63.586709 196.670456 
L 66.873723 196.670456 
L 66.873723 187.24633 
L 66.950164 187.24633 
L 67.026601 187.24633 
L 67.026601 182.534267 
L 67.103062 182.534267 
L 67.638164 182.534267 
L 67.638164 177.822204 
L 67.714596 177.822204 
L 67.791045 177.822204 
L 67.791045 173.110142 
L 67.867505 173.110142 
L 82.009372 173.110142 
L 82.009372 168.398079 
L 82.085808 168.398079 
L 82.162274 168.398079 
L 82.162274 163.686016 
L 82.238698 163.686016 
L 82.315161 163.686016 
L 82.315161 158.973953 
L 82.391584 158.973953 
L 82.773783 158.973953 
L 82.773783 154.26189 
L 82.850261 154.26189 
L 82.926712 154.26189 
L 82.926712 158.973953 
L 83.003142 158.973953 
L 85.067075 158.973953 
L 85.067075 140.125701 
L 85.143517 140.125701 
L 85.372853 140.125701 
L 85.372853 130.701575 
L 85.449293 130.701575 
L 85.525728 130.701575 
L 85.525728 125.989512 
L 85.602166 125.989512 
L 85.678597 125.989512 
L 85.678597 116.565386 
L 85.75508 116.565386 
L 303.005 116.565386 
L 303.005 116.565386 
" style="fill:none;stroke:#a6761d;stroke-dasharray:4.5,1.5;stroke-dashoffset:0;stroke-width:1.5;"/>
   </g>
   <g id="line2d_33">
    <path clip-path="url(#p8d94010aaa)" d="M 55.905 210.806645 
L 63.816029 210.806645 
L 63.816029 206.094582 
L 63.892461 206.094582 
L 63.968937 206.094582 
L 63.968937 201.382519 
L 64.045376 201.382519 
L 67.026601 201.382519 
L 67.026601 196.670456 
L 67.103062 196.670456 
L 67.791045 196.670456 
L 67.791045 191.958393 
L 67.867505 191.958393 
L 68.096816 191.958393 
L 68.096816 187.24633 
L 68.173276 187.24633 
L 68.402602 187.24633 
L 68.402602 182.534267 
L 68.479051 182.534267 
L 70.695886 182.534267 
L 70.695886 187.24633 
L 70.772321 187.24633 
L 81.550739 187.24633 
L 81.550739 182.534267 
L 81.627144 182.534267 
L 82.468024 182.534267 
L 82.468024 173.110142 
L 82.54446 173.110142 
L 85.219957 173.110142 
L 85.219957 168.398079 
L 85.296423 168.398079 
L 85.831513 168.398079 
L 85.831513 149.549827 
L 85.907957 149.549827 
L 85.984399 149.549827 
L 85.984399 144.837764 
L 86.060846 144.837764 
L 86.137283 144.837764 
L 86.137283 140.125701 
L 86.213723 140.125701 
L 133.073028 140.125701 
L 133.073028 144.837764 
L 133.149509 144.837764 
L 133.225937 144.837764 
L 133.225937 140.125701 
L 133.302397 140.125701 
L 225.568601 140.125701 
L 225.568601 135.413638 
L 225.64508 135.413638 
L 233.2129 135.413638 
L 233.2129 130.701575 
L 233.289362 130.701575 
L 244.526392 130.701575 
L 244.526392 125.989512 
L 244.602862 125.989512 
L 246.666807 125.989512 
L 246.666807 121.277449 
L 246.743247 121.277449 
L 247.278342 121.277449 
L 247.278342 116.565386 
L 247.354771 116.565386 
L 272.657285 116.565386 
L 272.657285 121.277449 
L 272.733715 121.277449 
L 276.326525 121.277449 
L 276.326525 116.565386 
L 276.402969 116.565386 
L 303.005 116.565386 
L 303.005 116.565386 
" style="fill:none;stroke:#666666;stroke-dasharray:4.5,1.5;stroke-dashoffset:0;stroke-width:1.5;"/>
   </g>
   <g id="line2d_34"/>
   <g id="line2d_35"/>
   <g id="line2d_36"/>
   <g id="line2d_37"/>
   <g id="line2d_38"/>
   <g id="line2d_39"/>
   <g id="line2d_40"/>
   <g id="line2d_41"/>
   <g id="line2d_42"/>
   <g id="line2d_43"/>
   <g id="line2d_44"/>
   <g id="line2d_45"/>
   <g id="line2d_46"/>
   <g id="line2d_47"/>
   <g id="line2d_48"/>
   <g id="line2d_49"/>
   <g id="line2d_50"/>
   <g id="patch_3">
    <path d="M 43.55 220.230771 
L 43.55 12.9 
" style="fill:none;stroke:#000000;stroke-linecap:square;stroke-linejoin:miter;stroke-width:0.8;"/>
   </g>
   <g id="patch_4">
    <path d="M 315.36 220.230771 
L 315.36 12.9 
" style="fill:none;stroke:#000000;stroke-linecap:square;stroke-linejoin:miter;stroke-width:0.8;"/>
   </g>
   <g id="patch_5">
    <path d="M 43.55 220.230771 
L 315.36 220.230771 
" style="fill:none;stroke:#000000;stroke-linecap:square;stroke-linejoin:miter;stroke-width:0.8;"/>
   </g>
   <g id="patch_6">
    <path d="M 43.55 12.9 
L 315.36 12.9 
" style="fill:none;stroke:#000000;stroke-linecap:square;stroke-linejoin:miter;stroke-width:0.8;"/>
   </g>
  </g>
  <g id="legend_1">
   <g id="patch_7">
    <path d="M 331.8625 262.528125 
L 420 262.528125 
Q 422 262.528125 422 260.528125 
L 422 12 
Q 422 10 420 10 
L 331.8625 10 
Q 329.8625 10 329.8625 12 
L 329.8625 260.528125 
Q 329.8625 262.528125 331.8625 262.528125 
z
" style="fill:#ffffff;opacity:0.8;stroke:#cccccc;stroke-linejoin:miter;"/>
   </g>
   <g id="text_20">
    <!-- 495/610 Reg. -->
    <defs>
     <path d="M 25.390625 72.90625 
L 33.6875 72.90625 
L 8.296875 -9.28125 
L 0 -9.28125 
z
" id="DejaVuSans-47"/>
     <path d="M 33.015625 40.375 
Q 26.375 40.375 22.484375 35.828125 
Q 18.609375 31.296875 18.609375 23.390625 
Q 18.609375 15.53125 22.484375 10.953125 
Q 26.375 6.390625 33.015625 6.390625 
Q 39.65625 6.390625 43.53125 10.953125 
Q 47.40625 15.53125 47.40625 23.390625 
Q 47.40625 31.296875 43.53125 35.828125 
Q 39.65625 40.375 33.015625 40.375 
z
M 52.59375 71.296875 
L 52.59375 62.3125 
Q 48.875 64.0625 45.09375 64.984375 
Q 41.3125 65.921875 37.59375 65.921875 
Q 27.828125 65.921875 22.671875 59.328125 
Q 17.53125 52.734375 16.796875 39.40625 
Q 19.671875 43.65625 24.015625 45.921875 
Q 28.375 48.1875 33.59375 48.1875 
Q 44.578125 48.1875 50.953125 41.515625 
Q 57.328125 34.859375 57.328125 23.390625 
Q 57.328125 12.15625 50.6875 5.359375 
Q 44.046875 -1.421875 33.015625 -1.421875 
Q 20.359375 -1.421875 13.671875 8.265625 
Q 6.984375 17.96875 6.984375 36.375 
Q 6.984375 53.65625 15.1875 63.9375 
Q 23.390625 74.21875 37.203125 74.21875 
Q 40.921875 74.21875 44.703125 73.484375 
Q 48.484375 72.75 52.59375 71.296875 
z
" id="DejaVuSans-54"/>
     <path d="M 10.6875 12.40625 
L 21 12.40625 
L 21 0 
L 10.6875 0 
z
" id="DejaVuSans-46"/>
    </defs>
    <g transform="translate(342.259375 21.598437)scale(0.1 -0.1)">
     <use xlink:href="#DejaVuSans-52"/>
     <use x="63.623047" xlink:href="#DejaVuSans-57"/>
     <use x="127.246094" xlink:href="#DejaVuSans-53"/>
     <use x="190.869141" xlink:href="#DejaVuSans-47"/>
     <use x="224.560547" xlink:href="#DejaVuSans-54"/>
     <use x="288.183594" xlink:href="#DejaVuSans-49"/>
     <use x="351.806641" xlink:href="#DejaVuSans-48"/>
     <use x="415.429688" xlink:href="#DejaVuSans-32"/>
     <use x="447.216797" xlink:href="#DejaVuSans-82"/>
     <use x="516.636719" xlink:href="#DejaVuSans-101"/>
     <use x="578.160156" xlink:href="#DejaVuSans-103"/>
     <use x="641.636719" xlink:href="#DejaVuSans-46"/>
    </g>
   </g>
   <g id="line2d_51">
    <path d="M 333.8625 32.776562 
L 353.8625 32.776562 
" style="fill:none;stroke:#1b9e77;stroke-linecap:square;stroke-width:1.5;"/>
   </g>
   <g id="line2d_52"/>
   <g id="text_21">
    <!-- SA (40) -->
    <defs>
     <path d="M 34.1875 63.1875 
L 20.796875 26.90625 
L 47.609375 26.90625 
z
M 28.609375 72.90625 
L 39.796875 72.90625 
L 67.578125 0 
L 57.328125 0 
L 50.6875 18.703125 
L 17.828125 18.703125 
L 11.1875 0 
L 0.78125 0 
z
" id="DejaVuSans-65"/>
     <path d="M 31 75.875 
Q 24.46875 64.65625 21.28125 53.65625 
Q 18.109375 42.671875 18.109375 31.390625 
Q 18.109375 20.125 21.3125 9.0625 
Q 24.515625 -2 31 -13.1875 
L 23.1875 -13.1875 
Q 15.875 -1.703125 12.234375 9.375 
Q 8.59375 20.453125 8.59375 31.390625 
Q 8.59375 42.28125 12.203125 53.3125 
Q 15.828125 64.359375 23.1875 75.875 
z
" id="DejaVuSans-40"/>
     <path d="M 8.015625 75.875 
L 15.828125 75.875 
Q 23.140625 64.359375 26.78125 53.3125 
Q 30.421875 42.28125 30.421875 31.390625 
Q 30.421875 20.453125 26.78125 9.375 
Q 23.140625 -1.703125 15.828125 -13.1875 
L 8.015625 -13.1875 
Q 14.5 -2 17.703125 9.0625 
Q 20.90625 20.125 20.90625 31.390625 
Q 20.90625 42.671875 17.703125 53.65625 
Q 14.5 64.65625 8.015625 75.875 
z
" id="DejaVuSans-41"/>
    </defs>
    <g transform="translate(361.8625 36.276562)scale(0.1 -0.1)">
     <use xlink:href="#DejaVuSans-83"/>
     <use x="63.492188" xlink:href="#DejaVuSans-65"/>
     <use x="131.900391" xlink:href="#DejaVuSans-32"/>
     <use x="163.6875" xlink:href="#DejaVuSans-40"/>
     <use x="202.701172" xlink:href="#DejaVuSans-52"/>
     <use x="266.324219" xlink:href="#DejaVuSans-48"/>
     <use x="329.947266" xlink:href="#DejaVuSans-41"/>
    </g>
   </g>
   <g id="line2d_53">
    <path d="M 333.8625 47.454688 
L 353.8625 47.454688 
" style="fill:none;stroke:#d95f02;stroke-linecap:square;stroke-width:1.5;"/>
   </g>
   <g id="line2d_54"/>
   <g id="text_22">
    <!-- AS (40) -->
    <g transform="translate(361.8625 50.954688)scale(0.1 -0.1)">
     <use xlink:href="#DejaVuSans-65"/>
     <use x="68.408203" xlink:href="#DejaVuSans-83"/>
     <use x="131.884766" xlink:href="#DejaVuSans-32"/>
     <use x="163.671875" xlink:href="#DejaVuSans-40"/>
     <use x="202.685547" xlink:href="#DejaVuSans-52"/>
     <use x="266.308594" xlink:href="#DejaVuSans-48"/>
     <use x="329.931641" xlink:href="#DejaVuSans-41"/>
    </g>
   </g>
   <g id="line2d_55">
    <path d="M 333.8625 62.132812 
L 353.8625 62.132812 
" style="fill:none;stroke:#7570b3;stroke-linecap:square;stroke-width:1.5;"/>
   </g>
   <g id="line2d_56"/>
   <g id="text_23">
    <!-- AUS (40) -->
    <defs>
     <path d="M 8.6875 72.90625 
L 18.609375 72.90625 
L 18.609375 28.609375 
Q 18.609375 16.890625 22.84375 11.734375 
Q 27.09375 6.59375 36.625 6.59375 
Q 46.09375 6.59375 50.34375 11.734375 
Q 54.59375 16.890625 54.59375 28.609375 
L 54.59375 72.90625 
L 64.5 72.90625 
L 64.5 27.390625 
Q 64.5 13.140625 57.4375 5.859375 
Q 50.390625 -1.421875 36.625 -1.421875 
Q 22.796875 -1.421875 15.734375 5.859375 
Q 8.6875 13.140625 8.6875 27.390625 
z
" id="DejaVuSans-85"/>
    </defs>
    <g transform="translate(361.8625 65.632812)scale(0.1 -0.1)">
     <use xlink:href="#DejaVuSans-65"/>
     <use x="68.408203" xlink:href="#DejaVuSans-85"/>
     <use x="141.601562" xlink:href="#DejaVuSans-83"/>
     <use x="205.078125" xlink:href="#DejaVuSans-32"/>
     <use x="236.865234" xlink:href="#DejaVuSans-40"/>
     <use x="275.878906" xlink:href="#DejaVuSans-52"/>
     <use x="339.501953" xlink:href="#DejaVuSans-48"/>
     <use x="403.125" xlink:href="#DejaVuSans-41"/>
    </g>
   </g>
   <g id="line2d_57">
    <path d="M 333.8625 76.810937 
L 353.8625 76.810937 
" style="fill:none;stroke:#e7298a;stroke-linecap:square;stroke-width:1.5;"/>
   </g>
   <g id="line2d_58"/>
   <g id="text_24">
    <!-- COML (40) -->
    <defs>
     <path d="M 64.40625 67.28125 
L 64.40625 56.890625 
Q 59.421875 61.53125 53.78125 63.8125 
Q 48.140625 66.109375 41.796875 66.109375 
Q 29.296875 66.109375 22.65625 58.46875 
Q 16.015625 50.828125 16.015625 36.375 
Q 16.015625 21.96875 22.65625 14.328125 
Q 29.296875 6.6875 41.796875 6.6875 
Q 48.140625 6.6875 53.78125 8.984375 
Q 59.421875 11.28125 64.40625 15.921875 
L 64.40625 5.609375 
Q 59.234375 2.09375 53.4375 0.328125 
Q 47.65625 -1.421875 41.21875 -1.421875 
Q 24.65625 -1.421875 15.125 8.703125 
Q 5.609375 18.84375 5.609375 36.375 
Q 5.609375 53.953125 15.125 64.078125 
Q 24.65625 74.21875 41.21875 74.21875 
Q 47.75 74.21875 53.53125 72.484375 
Q 59.328125 70.75 64.40625 67.28125 
z
" id="DejaVuSans-67"/>
     <path d="M 39.40625 66.21875 
Q 28.65625 66.21875 22.328125 58.203125 
Q 16.015625 50.203125 16.015625 36.375 
Q 16.015625 22.609375 22.328125 14.59375 
Q 28.65625 6.59375 39.40625 6.59375 
Q 50.140625 6.59375 56.421875 14.59375 
Q 62.703125 22.609375 62.703125 36.375 
Q 62.703125 50.203125 56.421875 58.203125 
Q 50.140625 66.21875 39.40625 66.21875 
z
M 39.40625 74.21875 
Q 54.734375 74.21875 63.90625 63.9375 
Q 73.09375 53.65625 73.09375 36.375 
Q 73.09375 19.140625 63.90625 8.859375 
Q 54.734375 -1.421875 39.40625 -1.421875 
Q 24.03125 -1.421875 14.8125 8.828125 
Q 5.609375 19.09375 5.609375 36.375 
Q 5.609375 53.65625 14.8125 63.9375 
Q 24.03125 74.21875 39.40625 74.21875 
z
" id="DejaVuSans-79"/>
     <path d="M 9.8125 72.90625 
L 24.515625 72.90625 
L 43.109375 23.296875 
L 61.8125 72.90625 
L 76.515625 72.90625 
L 76.515625 0 
L 66.890625 0 
L 66.890625 64.015625 
L 48.09375 14.015625 
L 38.1875 14.015625 
L 19.390625 64.015625 
L 19.390625 0 
L 9.8125 0 
z
" id="DejaVuSans-77"/>
     <path d="M 9.8125 72.90625 
L 19.671875 72.90625 
L 19.671875 8.296875 
L 55.171875 8.296875 
L 55.171875 0 
L 9.8125 0 
z
" id="DejaVuSans-76"/>
    </defs>
    <g transform="translate(361.8625 80.310937)scale(0.1 -0.1)">
     <use xlink:href="#DejaVuSans-67"/>
     <use x="69.824219" xlink:href="#DejaVuSans-79"/>
     <use x="148.535156" xlink:href="#DejaVuSans-77"/>
     <use x="234.814453" xlink:href="#DejaVuSans-76"/>
     <use x="290.527344" xlink:href="#DejaVuSans-32"/>
     <use x="322.314453" xlink:href="#DejaVuSans-40"/>
     <use x="361.328125" xlink:href="#DejaVuSans-52"/>
     <use x="424.951172" xlink:href="#DejaVuSans-48"/>
     <use x="488.574219" xlink:href="#DejaVuSans-41"/>
    </g>
   </g>
   <g id="line2d_59">
    <path d="M 333.8625 91.489062 
L 353.8625 91.489062 
" style="fill:none;stroke:#66a61e;stroke-linecap:square;stroke-width:1.5;"/>
   </g>
   <g id="line2d_60"/>
   <g id="text_25">
    <!-- GDD (40) -->
    <defs>
     <path d="M 59.515625 10.40625 
L 59.515625 29.984375 
L 43.40625 29.984375 
L 43.40625 38.09375 
L 69.28125 38.09375 
L 69.28125 6.78125 
Q 63.578125 2.734375 56.6875 0.65625 
Q 49.8125 -1.421875 42 -1.421875 
Q 24.90625 -1.421875 15.25 8.5625 
Q 5.609375 18.5625 5.609375 36.375 
Q 5.609375 54.25 15.25 64.234375 
Q 24.90625 74.21875 42 74.21875 
Q 49.125 74.21875 55.546875 72.453125 
Q 61.96875 70.703125 67.390625 67.28125 
L 67.390625 56.78125 
Q 61.921875 61.421875 55.765625 63.765625 
Q 49.609375 66.109375 42.828125 66.109375 
Q 29.4375 66.109375 22.71875 58.640625 
Q 16.015625 51.171875 16.015625 36.375 
Q 16.015625 21.625 22.71875 14.15625 
Q 29.4375 6.6875 42.828125 6.6875 
Q 48.046875 6.6875 52.140625 7.59375 
Q 56.25 8.5 59.515625 10.40625 
z
" id="DejaVuSans-71"/>
    </defs>
    <g transform="translate(361.8625 94.989062)scale(0.1 -0.1)">
     <use xlink:href="#DejaVuSans-71"/>
     <use x="77.490234" xlink:href="#DejaVuSans-68"/>
     <use x="154.492188" xlink:href="#DejaVuSans-68"/>
     <use x="231.494141" xlink:href="#DejaVuSans-32"/>
     <use x="263.28125" xlink:href="#DejaVuSans-40"/>
     <use x="302.294922" xlink:href="#DejaVuSans-52"/>
     <use x="365.917969" xlink:href="#DejaVuSans-48"/>
     <use x="429.541016" xlink:href="#DejaVuSans-41"/>
    </g>
   </g>
   <g id="line2d_61">
    <path d="M 333.8625 106.167188 
L 353.8625 106.167188 
" style="fill:none;stroke:#e6ab02;stroke-linecap:square;stroke-width:1.5;"/>
   </g>
   <g id="line2d_62"/>
   <g id="text_26">
    <!-- MD (38) -->
    <defs>
     <path d="M 31.78125 34.625 
Q 24.75 34.625 20.71875 30.859375 
Q 16.703125 27.09375 16.703125 20.515625 
Q 16.703125 13.921875 20.71875 10.15625 
Q 24.75 6.390625 31.78125 6.390625 
Q 38.8125 6.390625 42.859375 10.171875 
Q 46.921875 13.96875 46.921875 20.515625 
Q 46.921875 27.09375 42.890625 30.859375 
Q 38.875 34.625 31.78125 34.625 
z
M 21.921875 38.8125 
Q 15.578125 40.375 12.03125 44.71875 
Q 8.5 49.078125 8.5 55.328125 
Q 8.5 64.0625 14.71875 69.140625 
Q 20.953125 74.21875 31.78125 74.21875 
Q 42.671875 74.21875 48.875 69.140625 
Q 55.078125 64.0625 55.078125 55.328125 
Q 55.078125 49.078125 51.53125 44.71875 
Q 48 40.375 41.703125 38.8125 
Q 48.828125 37.15625 52.796875 32.3125 
Q 56.78125 27.484375 56.78125 20.515625 
Q 56.78125 9.90625 50.3125 4.234375 
Q 43.84375 -1.421875 31.78125 -1.421875 
Q 19.734375 -1.421875 13.25 4.234375 
Q 6.78125 9.90625 6.78125 20.515625 
Q 6.78125 27.484375 10.78125 32.3125 
Q 14.796875 37.15625 21.921875 38.8125 
z
M 18.3125 54.390625 
Q 18.3125 48.734375 21.84375 45.5625 
Q 25.390625 42.390625 31.78125 42.390625 
Q 38.140625 42.390625 41.71875 45.5625 
Q 45.3125 48.734375 45.3125 54.390625 
Q 45.3125 60.0625 41.71875 63.234375 
Q 38.140625 66.40625 31.78125 66.40625 
Q 25.390625 66.40625 21.84375 63.234375 
Q 18.3125 60.0625 18.3125 54.390625 
z
" id="DejaVuSans-56"/>
    </defs>
    <g transform="translate(361.8625 109.667188)scale(0.1 -0.1)">
     <use xlink:href="#DejaVuSans-77"/>
     <use x="86.279297" xlink:href="#DejaVuSans-68"/>
     <use x="163.28125" xlink:href="#DejaVuSans-32"/>
     <use x="195.068359" xlink:href="#DejaVuSans-40"/>
     <use x="234.082031" xlink:href="#DejaVuSans-51"/>
     <use x="297.705078" xlink:href="#DejaVuSans-56"/>
     <use x="361.328125" xlink:href="#DejaVuSans-41"/>
    </g>
   </g>
   <g id="line2d_63">
    <path d="M 333.8625 120.845312 
L 353.8625 120.845312 
" style="fill:none;stroke:#a6761d;stroke-linecap:square;stroke-width:1.5;"/>
   </g>
   <g id="line2d_64"/>
   <g id="text_27">
    <!-- HPI (38) -->
    <defs>
     <path d="M 9.8125 72.90625 
L 19.671875 72.90625 
L 19.671875 43.015625 
L 55.515625 43.015625 
L 55.515625 72.90625 
L 65.375 72.90625 
L 65.375 0 
L 55.515625 0 
L 55.515625 34.71875 
L 19.671875 34.71875 
L 19.671875 0 
L 9.8125 0 
z
" id="DejaVuSans-72"/>
     <path d="M 19.671875 64.796875 
L 19.671875 37.40625 
L 32.078125 37.40625 
Q 38.96875 37.40625 42.71875 40.96875 
Q 46.484375 44.53125 46.484375 51.125 
Q 46.484375 57.671875 42.71875 61.234375 
Q 38.96875 64.796875 32.078125 64.796875 
z
M 9.8125 72.90625 
L 32.078125 72.90625 
Q 44.34375 72.90625 50.609375 67.359375 
Q 56.890625 61.8125 56.890625 51.125 
Q 56.890625 40.328125 50.609375 34.8125 
Q 44.34375 29.296875 32.078125 29.296875 
L 19.671875 29.296875 
L 19.671875 0 
L 9.8125 0 
z
" id="DejaVuSans-80"/>
     <path d="M 9.8125 72.90625 
L 19.671875 72.90625 
L 19.671875 0 
L 9.8125 0 
z
" id="DejaVuSans-73"/>
    </defs>
    <g transform="translate(361.8625 124.345312)scale(0.1 -0.1)">
     <use xlink:href="#DejaVuSans-72"/>
     <use x="75.195312" xlink:href="#DejaVuSans-80"/>
     <use x="135.498047" xlink:href="#DejaVuSans-73"/>
     <use x="164.990234" xlink:href="#DejaVuSans-32"/>
     <use x="196.777344" xlink:href="#DejaVuSans-40"/>
     <use x="235.791016" xlink:href="#DejaVuSans-51"/>
     <use x="299.414062" xlink:href="#DejaVuSans-56"/>
     <use x="363.037109" xlink:href="#DejaVuSans-41"/>
    </g>
   </g>
   <g id="line2d_65">
    <path d="M 333.8625 135.523438 
L 353.8625 135.523438 
" style="fill:none;stroke:#666666;stroke-linecap:square;stroke-width:1.5;"/>
   </g>
   <g id="line2d_66"/>
   <g id="text_28">
    <!-- TBI (28) -->
    <defs>
     <path d="M -0.296875 72.90625 
L 61.375 72.90625 
L 61.375 64.59375 
L 35.5 64.59375 
L 35.5 0 
L 25.59375 0 
L 25.59375 64.59375 
L -0.296875 64.59375 
z
" id="DejaVuSans-84"/>
     <path d="M 19.671875 34.8125 
L 19.671875 8.109375 
L 35.5 8.109375 
Q 43.453125 8.109375 47.28125 11.40625 
Q 51.125 14.703125 51.125 21.484375 
Q 51.125 28.328125 47.28125 31.5625 
Q 43.453125 34.8125 35.5 34.8125 
z
M 19.671875 64.796875 
L 19.671875 42.828125 
L 34.28125 42.828125 
Q 41.5 42.828125 45.03125 45.53125 
Q 48.578125 48.25 48.578125 53.8125 
Q 48.578125 59.328125 45.03125 62.0625 
Q 41.5 64.796875 34.28125 64.796875 
z
M 9.8125 72.90625 
L 35.015625 72.90625 
Q 46.296875 72.90625 52.390625 68.21875 
Q 58.5 63.53125 58.5 54.890625 
Q 58.5 48.1875 55.375 44.234375 
Q 52.25 40.28125 46.1875 39.3125 
Q 53.46875 37.75 57.5 32.78125 
Q 61.53125 27.828125 61.53125 20.40625 
Q 61.53125 10.640625 54.890625 5.3125 
Q 48.25 0 35.984375 0 
L 9.8125 0 
z
" id="DejaVuSans-66"/>
    </defs>
    <g transform="translate(361.8625 139.023438)scale(0.1 -0.1)">
     <use xlink:href="#DejaVuSans-84"/>
     <use x="61.083984" xlink:href="#DejaVuSans-66"/>
     <use x="129.6875" xlink:href="#DejaVuSans-73"/>
     <use x="159.179688" xlink:href="#DejaVuSans-32"/>
     <use x="190.966797" xlink:href="#DejaVuSans-40"/>
     <use x="229.980469" xlink:href="#DejaVuSans-50"/>
     <use x="293.603516" xlink:href="#DejaVuSans-56"/>
     <use x="357.226562" xlink:href="#DejaVuSans-41"/>
    </g>
   </g>
   <g id="line2d_67">
    <path d="M 333.8625 150.201562 
L 353.8625 150.201562 
" style="fill:none;stroke:#1b9e77;stroke-dasharray:4.5,1.5;stroke-dashoffset:0;stroke-width:1.5;"/>
   </g>
   <g id="line2d_68"/>
   <g id="text_29">
    <!-- FIT (27) -->
    <defs>
     <path d="M 9.8125 72.90625 
L 51.703125 72.90625 
L 51.703125 64.59375 
L 19.671875 64.59375 
L 19.671875 43.109375 
L 48.578125 43.109375 
L 48.578125 34.8125 
L 19.671875 34.8125 
L 19.671875 0 
L 9.8125 0 
z
" id="DejaVuSans-70"/>
     <path d="M 8.203125 72.90625 
L 55.078125 72.90625 
L 55.078125 68.703125 
L 28.609375 0 
L 18.3125 0 
L 43.21875 64.59375 
L 8.203125 64.59375 
z
" id="DejaVuSans-55"/>
    </defs>
    <g transform="translate(361.8625 153.701562)scale(0.1 -0.1)">
     <use xlink:href="#DejaVuSans-70"/>
     <use x="57.519531" xlink:href="#DejaVuSans-73"/>
     <use x="87.011719" xlink:href="#DejaVuSans-84"/>
     <use x="148.095703" xlink:href="#DejaVuSans-32"/>
     <use x="179.882812" xlink:href="#DejaVuSans-40"/>
     <use x="218.896484" xlink:href="#DejaVuSans-50"/>
     <use x="282.519531" xlink:href="#DejaVuSans-55"/>
     <use x="346.142578" xlink:href="#DejaVuSans-41"/>
    </g>
   </g>
   <g id="line2d_69">
    <path d="M 333.8625 164.879687 
L 353.8625 164.879687 
" style="fill:none;stroke:#d95f02;stroke-dasharray:4.5,1.5;stroke-dashoffset:0;stroke-width:1.5;"/>
   </g>
   <g id="line2d_70"/>
   <g id="text_30">
    <!-- CB (26) -->
    <g transform="translate(361.8625 168.379687)scale(0.1 -0.1)">
     <use xlink:href="#DejaVuSans-67"/>
     <use x="69.824219" xlink:href="#DejaVuSans-66"/>
     <use x="138.427734" xlink:href="#DejaVuSans-32"/>
     <use x="170.214844" xlink:href="#DejaVuSans-40"/>
     <use x="209.228516" xlink:href="#DejaVuSans-50"/>
     <use x="272.851562" xlink:href="#DejaVuSans-54"/>
     <use x="336.474609" xlink:href="#DejaVuSans-41"/>
    </g>
   </g>
   <g id="line2d_71">
    <path d="M 333.8625 179.557812 
L 353.8625 179.557812 
" style="fill:none;stroke:#7570b3;stroke-dasharray:4.5,1.5;stroke-dashoffset:0;stroke-width:1.5;"/>
   </g>
   <g id="line2d_72"/>
   <g id="text_31">
    <!-- BP (26) -->
    <g transform="translate(361.8625 183.057812)scale(0.1 -0.1)">
     <use xlink:href="#DejaVuSans-66"/>
     <use x="68.603516" xlink:href="#DejaVuSans-80"/>
     <use x="128.90625" xlink:href="#DejaVuSans-32"/>
     <use x="160.693359" xlink:href="#DejaVuSans-40"/>
     <use x="199.707031" xlink:href="#DejaVuSans-50"/>
     <use x="263.330078" xlink:href="#DejaVuSans-54"/>
     <use x="326.953125" xlink:href="#DejaVuSans-41"/>
    </g>
   </g>
   <g id="line2d_73">
    <path d="M 333.8625 194.235937 
L 353.8625 194.235937 
" style="fill:none;stroke:#e7298a;stroke-dasharray:4.5,1.5;stroke-dashoffset:0;stroke-width:1.5;"/>
   </g>
   <g id="line2d_74"/>
   <g id="text_32">
    <!-- RJPH (24) -->
    <defs>
     <path d="M 9.8125 72.90625 
L 19.671875 72.90625 
L 19.671875 5.078125 
Q 19.671875 -8.109375 14.671875 -14.0625 
Q 9.671875 -20.015625 -1.421875 -20.015625 
L -5.171875 -20.015625 
L -5.171875 -11.71875 
L -2.09375 -11.71875 
Q 4.4375 -11.71875 7.125 -8.046875 
Q 9.8125 -4.390625 9.8125 5.078125 
z
" id="DejaVuSans-74"/>
    </defs>
    <g transform="translate(361.8625 197.735937)scale(0.1 -0.1)">
     <use xlink:href="#DejaVuSans-82"/>
     <use x="69.482422" xlink:href="#DejaVuSans-74"/>
     <use x="98.974609" xlink:href="#DejaVuSans-80"/>
     <use x="159.277344" xlink:href="#DejaVuSans-72"/>
     <use x="234.472656" xlink:href="#DejaVuSans-32"/>
     <use x="266.259766" xlink:href="#DejaVuSans-40"/>
     <use x="305.273438" xlink:href="#DejaVuSans-50"/>
     <use x="368.896484" xlink:href="#DejaVuSans-52"/>
     <use x="432.519531" xlink:href="#DejaVuSans-41"/>
    </g>
   </g>
   <g id="line2d_75">
    <path d="M 333.8625 208.914062 
L 353.8625 208.914062 
" style="fill:none;stroke:#66a61e;stroke-dasharray:4.5,1.5;stroke-dashoffset:0;stroke-width:1.5;"/>
   </g>
   <g id="line2d_76"/>
   <g id="text_33">
    <!-- SPD (24) -->
    <g transform="translate(361.8625 212.414062)scale(0.1 -0.1)">
     <use xlink:href="#DejaVuSans-83"/>
     <use x="63.476562" xlink:href="#DejaVuSans-80"/>
     <use x="123.779297" xlink:href="#DejaVuSans-68"/>
     <use x="200.78125" xlink:href="#DejaVuSans-32"/>
     <use x="232.568359" xlink:href="#DejaVuSans-40"/>
     <use x="271.582031" xlink:href="#DejaVuSans-50"/>
     <use x="335.205078" xlink:href="#DejaVuSans-52"/>
     <use x="398.828125" xlink:href="#DejaVuSans-41"/>
    </g>
   </g>
   <g id="line2d_77">
    <path d="M 333.8625 223.592187 
L 353.8625 223.592187 
" style="fill:none;stroke:#e6ab02;stroke-dasharray:4.5,1.5;stroke-dashoffset:0;stroke-width:1.5;"/>
   </g>
   <g id="line2d_78"/>
   <g id="text_34">
    <!-- CC (24) -->
    <g transform="translate(361.8625 227.092187)scale(0.1 -0.1)">
     <use xlink:href="#DejaVuSans-67"/>
     <use x="69.824219" xlink:href="#DejaVuSans-67"/>
     <use x="139.648438" xlink:href="#DejaVuSans-32"/>
     <use x="171.435547" xlink:href="#DejaVuSans-40"/>
     <use x="210.449219" xlink:href="#DejaVuSans-50"/>
     <use x="274.072266" xlink:href="#DejaVuSans-52"/>
     <use x="337.695312" xlink:href="#DejaVuSans-41"/>
    </g>
   </g>
   <g id="line2d_79">
    <path d="M 333.8625 238.270312 
L 353.8625 238.270312 
" style="fill:none;stroke:#a6761d;stroke-dasharray:4.5,1.5;stroke-dashoffset:0;stroke-width:1.5;"/>
   </g>
   <g id="line2d_80"/>
   <g id="text_35">
    <!-- AHR-H (20) -->
    <g transform="translate(361.8625 241.770312)scale(0.1 -0.1)">
     <use xlink:href="#DejaVuSans-65"/>
     <use x="68.408203" xlink:href="#DejaVuSans-72"/>
     <use x="143.603516" xlink:href="#DejaVuSans-82"/>
     <use x="213.023438" xlink:href="#DejaVuSans-45"/>
     <use x="249.107422" xlink:href="#DejaVuSans-72"/>
     <use x="324.302734" xlink:href="#DejaVuSans-32"/>
     <use x="356.089844" xlink:href="#DejaVuSans-40"/>
     <use x="395.103516" xlink:href="#DejaVuSans-50"/>
     <use x="458.726562" xlink:href="#DejaVuSans-48"/>
     <use x="522.349609" xlink:href="#DejaVuSans-41"/>
    </g>
   </g>
   <g id="line2d_81">
    <path d="M 333.8625 252.948437 
L 353.8625 252.948437 
" style="fill:none;stroke:#666666;stroke-dasharray:4.5,1.5;stroke-dashoffset:0;stroke-width:1.5;"/>
   </g>
   <g id="line2d_82"/>
   <g id="text_36">
    <!-- AHR-A (20) -->
    <g transform="translate(361.8625 256.448437)scale(0.1 -0.1)">
     <use xlink:href="#DejaVuSans-65"/>
     <use x="68.408203" xlink:href="#DejaVuSans-72"/>
     <use x="143.603516" xlink:href="#DejaVuSans-82"/>
     <use x="213.023438" xlink:href="#DejaVuSans-45"/>
     <use x="249.076172" xlink:href="#DejaVuSans-65"/>
     <use x="317.484375" xlink:href="#DejaVuSans-32"/>
     <use x="349.271484" xlink:href="#DejaVuSans-40"/>
     <use x="388.285156" xlink:href="#DejaVuSans-50"/>
     <use x="451.908203" xlink:href="#DejaVuSans-48"/>
     <use x="515.53125" xlink:href="#DejaVuSans-41"/>
    </g>
   </g>
  </g>
 </g>
 <defs>
  <clipPath id="p8d94010aaa">
   <rect height="207.330771" width="271.81" x="43.55" y="12.9"/>
  </clipPath>
 </defs>
</svg>
