<?xml version="1.0" encoding="utf-8" standalone="no"?>
<!DOCTYPE svg PUBLIC "-//W3C//DTD SVG 1.1//EN"
  "http://www.w3.org/Graphics/SVG/1.1/DTD/svg11.dtd">
<!-- Created with matplotlib (https://matplotlib.org/) -->
<svg height="288pt" version="1.1" viewBox="0 0 432 288" width="432pt" xmlns="http://www.w3.org/2000/svg" xmlns:xlink="http://www.w3.org/1999/xlink">
 <defs>
  <style type="text/css">
*{stroke-linecap:butt;stroke-linejoin:round;}
  </style>
 </defs>
 <g id="figure_1">
  <g id="patch_1">
   <path d="M 0 288 
L 432 288 
L 432 0 
L 0 0 
z
" style="fill:#ffffff;"/>
  </g>
  <g id="axes_1">
   <g id="patch_2">
    <path d="M 43.55 220.230771 
L 315.36 220.230771 
L 315.36 12.9 
L 43.55 12.9 
z
" style="fill:#ffffff;"/>
   </g>
   <g id="matplotlib.axis_1">
    <g id="xtick_1">
     <g id="line2d_1">
      <defs>
       <path d="M 0 0 
L 0 3.5 
" id="m04f900b55e" style="stroke:#000000;stroke-width:0.8;"/>
      </defs>
      <g>
       <use style="stroke:#000000;stroke-width:0.8;" x="46.697259" xlink:href="#m04f900b55e" y="220.230771"/>
      </g>
     </g>
     <g id="text_1">
      <!-- 2020-11-29 -->
      <defs>
       <path d="M 19.1875 8.296875 
L 53.609375 8.296875 
L 53.609375 0 
L 7.328125 0 
L 7.328125 8.296875 
Q 12.9375 14.109375 22.625 23.890625 
Q 32.328125 33.6875 34.8125 36.53125 
Q 39.546875 41.84375 41.421875 45.53125 
Q 43.3125 49.21875 43.3125 52.78125 
Q 43.3125 58.59375 39.234375 62.25 
Q 35.15625 65.921875 28.609375 65.921875 
Q 23.96875 65.921875 18.8125 64.3125 
Q 13.671875 62.703125 7.8125 59.421875 
L 7.8125 69.390625 
Q 13.765625 71.78125 18.9375 73 
Q 24.125 74.21875 28.421875 74.21875 
Q 39.75 74.21875 46.484375 68.546875 
Q 53.21875 62.890625 53.21875 53.421875 
Q 53.21875 48.921875 51.53125 44.890625 
Q 49.859375 40.875 45.40625 35.40625 
Q 44.1875 33.984375 37.640625 27.21875 
Q 31.109375 20.453125 19.1875 8.296875 
z
" id="DejaVuSans-50"/>
       <path d="M 31.78125 66.40625 
Q 24.171875 66.40625 20.328125 58.90625 
Q 16.5 51.421875 16.5 36.375 
Q 16.5 21.390625 20.328125 13.890625 
Q 24.171875 6.390625 31.78125 6.390625 
Q 39.453125 6.390625 43.28125 13.890625 
Q 47.125 21.390625 47.125 36.375 
Q 47.125 51.421875 43.28125 58.90625 
Q 39.453125 66.40625 31.78125 66.40625 
z
M 31.78125 74.21875 
Q 44.046875 74.21875 50.515625 64.515625 
Q 56.984375 54.828125 56.984375 36.375 
Q 56.984375 17.96875 50.515625 8.265625 
Q 44.046875 -1.421875 31.78125 -1.421875 
Q 19.53125 -1.421875 13.0625 8.265625 
Q 6.59375 17.96875 6.59375 36.375 
Q 6.59375 54.828125 13.0625 64.515625 
Q 19.53125 74.21875 31.78125 74.21875 
z
" id="DejaVuSans-48"/>
       <path d="M 4.890625 31.390625 
L 31.203125 31.390625 
L 31.203125 23.390625 
L 4.890625 23.390625 
z
" id="DejaVuSans-45"/>
       <path d="M 12.40625 8.296875 
L 28.515625 8.296875 
L 28.515625 63.921875 
L 10.984375 60.40625 
L 10.984375 69.390625 
L 28.421875 72.90625 
L 38.28125 72.90625 
L 38.28125 8.296875 
L 54.390625 8.296875 
L 54.390625 0 
L 12.40625 0 
z
" id="DejaVuSans-49"/>
       <path d="M 10.984375 1.515625 
L 10.984375 10.5 
Q 14.703125 8.734375 18.5 7.8125 
Q 22.3125 6.890625 25.984375 6.890625 
Q 35.75 6.890625 40.890625 13.453125 
Q 46.046875 20.015625 46.78125 33.40625 
Q 43.953125 29.203125 39.59375 26.953125 
Q 35.25 24.703125 29.984375 24.703125 
Q 19.046875 24.703125 12.671875 31.3125 
Q 6.296875 37.9375 6.296875 49.421875 
Q 6.296875 60.640625 12.9375 67.421875 
Q 19.578125 74.21875 30.609375 74.21875 
Q 43.265625 74.21875 49.921875 64.515625 
Q 56.59375 54.828125 56.59375 36.375 
Q 56.59375 19.140625 48.40625 8.859375 
Q 40.234375 -1.421875 26.421875 -1.421875 
Q 22.703125 -1.421875 18.890625 -0.6875 
Q 15.09375 0.046875 10.984375 1.515625 
z
M 30.609375 32.421875 
Q 37.25 32.421875 41.125 36.953125 
Q 45.015625 41.5 45.015625 49.421875 
Q 45.015625 57.28125 41.125 61.84375 
Q 37.25 66.40625 30.609375 66.40625 
Q 23.96875 66.40625 20.09375 61.84375 
Q 16.21875 57.28125 16.21875 49.421875 
Q 16.21875 41.5 20.09375 36.953125 
Q 23.96875 32.421875 30.609375 32.421875 
z
" id="DejaVuSans-57"/>
      </defs>
      <g transform="translate(22.912143 262.869024)rotate(-30)scale(0.1 -0.1)">
       <use xlink:href="#DejaVuSans-50"/>
       <use x="63.623047" xlink:href="#DejaVuSans-48"/>
       <use x="127.246094" xlink:href="#DejaVuSans-50"/>
       <use x="190.869141" xlink:href="#DejaVuSans-48"/>
       <use x="254.492188" xlink:href="#DejaVuSans-45"/>
       <use x="290.576172" xlink:href="#DejaVuSans-49"/>
       <use x="354.199219" xlink:href="#DejaVuSans-49"/>
       <use x="417.822266" xlink:href="#DejaVuSans-45"/>
       <use x="453.90625" xlink:href="#DejaVuSans-50"/>
       <use x="517.529297" xlink:href="#DejaVuSans-57"/>
      </g>
     </g>
    </g>
    <g id="xtick_2">
     <g id="line2d_2">
      <g>
       <use style="stroke:#000000;stroke-width:0.8;" x="59.413276" xlink:href="#m04f900b55e" y="220.230771"/>
      </g>
     </g>
     <g id="text_2">
      <!-- 2020-12-01 -->
      <g transform="translate(35.62816 262.869024)rotate(-30)scale(0.1 -0.1)">
       <use xlink:href="#DejaVuSans-50"/>
       <use x="63.623047" xlink:href="#DejaVuSans-48"/>
       <use x="127.246094" xlink:href="#DejaVuSans-50"/>
       <use x="190.869141" xlink:href="#DejaVuSans-48"/>
       <use x="254.492188" xlink:href="#DejaVuSans-45"/>
       <use x="290.576172" xlink:href="#DejaVuSans-49"/>
       <use x="354.199219" xlink:href="#DejaVuSans-50"/>
       <use x="417.822266" xlink:href="#DejaVuSans-45"/>
       <use x="453.90625" xlink:href="#DejaVuSans-48"/>
       <use x="517.529297" xlink:href="#DejaVuSans-49"/>
      </g>
     </g>
    </g>
    <g id="xtick_3">
     <g id="line2d_3">
      <g>
       <use style="stroke:#000000;stroke-width:0.8;" x="103.919334" xlink:href="#m04f900b55e" y="220.230771"/>
      </g>
     </g>
     <g id="text_3">
      <!-- 2020-12-08 -->
      <defs>
       <path d="M 31.78125 34.625 
Q 24.75 34.625 20.71875 30.859375 
Q 16.703125 27.09375 16.703125 20.515625 
Q 16.703125 13.921875 20.71875 10.15625 
Q 24.75 6.390625 31.78125 6.390625 
Q 38.8125 6.390625 42.859375 10.171875 
Q 46.921875 13.96875 46.921875 20.515625 
Q 46.921875 27.09375 42.890625 30.859375 
Q 38.875 34.625 31.78125 34.625 
z
M 21.921875 38.8125 
Q 15.578125 40.375 12.03125 44.71875 
Q 8.5 49.078125 8.5 55.328125 
Q 8.5 64.0625 14.71875 69.140625 
Q 20.953125 74.21875 31.78125 74.21875 
Q 42.671875 74.21875 48.875 69.140625 
Q 55.078125 64.0625 55.078125 55.328125 
Q 55.078125 49.078125 51.53125 44.71875 
Q 48 40.375 41.703125 38.8125 
Q 48.828125 37.15625 52.796875 32.3125 
Q 56.78125 27.484375 56.78125 20.515625 
Q 56.78125 9.90625 50.3125 4.234375 
Q 43.84375 -1.421875 31.78125 -1.421875 
Q 19.734375 -1.421875 13.25 4.234375 
Q 6.78125 9.90625 6.78125 20.515625 
Q 6.78125 27.484375 10.78125 32.3125 
Q 14.796875 37.15625 21.921875 38.8125 
z
M 18.3125 54.390625 
Q 18.3125 48.734375 21.84375 45.5625 
Q 25.390625 42.390625 31.78125 42.390625 
Q 38.140625 42.390625 41.71875 45.5625 
Q 45.3125 48.734375 45.3125 54.390625 
Q 45.3125 60.0625 41.71875 63.234375 
Q 38.140625 66.40625 31.78125 66.40625 
Q 25.390625 66.40625 21.84375 63.234375 
Q 18.3125 60.0625 18.3125 54.390625 
z
" id="DejaVuSans-56"/>
      </defs>
      <g transform="translate(80.134218 262.869024)rotate(-30)scale(0.1 -0.1)">
       <use xlink:href="#DejaVuSans-50"/>
       <use x="63.623047" xlink:href="#DejaVuSans-48"/>
       <use x="127.246094" xlink:href="#DejaVuSans-50"/>
       <use x="190.869141" xlink:href="#DejaVuSans-48"/>
       <use x="254.492188" xlink:href="#DejaVuSans-45"/>
       <use x="290.576172" xlink:href="#DejaVuSans-49"/>
       <use x="354.199219" xlink:href="#DejaVuSans-50"/>
       <use x="417.822266" xlink:href="#DejaVuSans-45"/>
       <use x="453.90625" xlink:href="#DejaVuSans-48"/>
       <use x="517.529297" xlink:href="#DejaVuSans-56"/>
      </g>
     </g>
    </g>
    <g id="xtick_4">
     <g id="line2d_4">
      <g>
       <use style="stroke:#000000;stroke-width:0.8;" x="148.425393" xlink:href="#m04f900b55e" y="220.230771"/>
      </g>
     </g>
     <g id="text_4">
      <!-- 2020-12-15 -->
      <defs>
       <path d="M 10.796875 72.90625 
L 49.515625 72.90625 
L 49.515625 64.59375 
L 19.828125 64.59375 
L 19.828125 46.734375 
Q 21.96875 47.46875 24.109375 47.828125 
Q 26.265625 48.1875 28.421875 48.1875 
Q 40.625 48.1875 47.75 41.5 
Q 54.890625 34.8125 54.890625 23.390625 
Q 54.890625 11.625 47.5625 5.09375 
Q 40.234375 -1.421875 26.90625 -1.421875 
Q 22.3125 -1.421875 17.546875 -0.640625 
Q 12.796875 0.140625 7.71875 1.703125 
L 7.71875 11.625 
Q 12.109375 9.234375 16.796875 8.0625 
Q 21.484375 6.890625 26.703125 6.890625 
Q 35.15625 6.890625 40.078125 11.328125 
Q 45.015625 15.765625 45.015625 23.390625 
Q 45.015625 31 40.078125 35.4375 
Q 35.15625 39.890625 26.703125 39.890625 
Q 22.75 39.890625 18.8125 39.015625 
Q 14.890625 38.140625 10.796875 36.28125 
z
" id="DejaVuSans-53"/>
      </defs>
      <g transform="translate(124.640276 262.869024)rotate(-30)scale(0.1 -0.1)">
       <use xlink:href="#DejaVuSans-50"/>
       <use x="63.623047" xlink:href="#DejaVuSans-48"/>
       <use x="127.246094" xlink:href="#DejaVuSans-50"/>
       <use x="190.869141" xlink:href="#DejaVuSans-48"/>
       <use x="254.492188" xlink:href="#DejaVuSans-45"/>
       <use x="290.576172" xlink:href="#DejaVuSans-49"/>
       <use x="354.199219" xlink:href="#DejaVuSans-50"/>
       <use x="417.822266" xlink:href="#DejaVuSans-45"/>
       <use x="453.90625" xlink:href="#DejaVuSans-49"/>
       <use x="517.529297" xlink:href="#DejaVuSans-53"/>
      </g>
     </g>
    </g>
    <g id="xtick_5">
     <g id="line2d_5">
      <g>
       <use style="stroke:#000000;stroke-width:0.8;" x="192.931451" xlink:href="#m04f900b55e" y="220.230771"/>
      </g>
     </g>
     <g id="text_5">
      <!-- 2020-12-22 -->
      <g transform="translate(169.146335 262.869024)rotate(-30)scale(0.1 -0.1)">
       <use xlink:href="#DejaVuSans-50"/>
       <use x="63.623047" xlink:href="#DejaVuSans-48"/>
       <use x="127.246094" xlink:href="#DejaVuSans-50"/>
       <use x="190.869141" xlink:href="#DejaVuSans-48"/>
       <use x="254.492188" xlink:href="#DejaVuSans-45"/>
       <use x="290.576172" xlink:href="#DejaVuSans-49"/>
       <use x="354.199219" xlink:href="#DejaVuSans-50"/>
       <use x="417.822266" xlink:href="#DejaVuSans-45"/>
       <use x="453.90625" xlink:href="#DejaVuSans-50"/>
       <use x="517.529297" xlink:href="#DejaVuSans-50"/>
      </g>
     </g>
    </g>
    <g id="xtick_6">
     <g id="line2d_6">
      <g>
       <use style="stroke:#000000;stroke-width:0.8;" x="237.437509" xlink:href="#m04f900b55e" y="220.230771"/>
      </g>
     </g>
     <g id="text_6">
      <!-- 2020-12-29 -->
      <g transform="translate(213.652393 262.869024)rotate(-30)scale(0.1 -0.1)">
       <use xlink:href="#DejaVuSans-50"/>
       <use x="63.623047" xlink:href="#DejaVuSans-48"/>
       <use x="127.246094" xlink:href="#DejaVuSans-50"/>
       <use x="190.869141" xlink:href="#DejaVuSans-48"/>
       <use x="254.492188" xlink:href="#DejaVuSans-45"/>
       <use x="290.576172" xlink:href="#DejaVuSans-49"/>
       <use x="354.199219" xlink:href="#DejaVuSans-50"/>
       <use x="417.822266" xlink:href="#DejaVuSans-45"/>
       <use x="453.90625" xlink:href="#DejaVuSans-50"/>
       <use x="517.529297" xlink:href="#DejaVuSans-57"/>
      </g>
     </g>
    </g>
    <g id="xtick_7">
     <g id="line2d_7">
      <g>
       <use style="stroke:#000000;stroke-width:0.8;" x="256.511534" xlink:href="#m04f900b55e" y="220.230771"/>
      </g>
     </g>
     <g id="text_7">
      <!-- 2021-01-01 -->
      <g transform="translate(232.726418 262.869024)rotate(-30)scale(0.1 -0.1)">
       <use xlink:href="#DejaVuSans-50"/>
       <use x="63.623047" xlink:href="#DejaVuSans-48"/>
       <use x="127.246094" xlink:href="#DejaVuSans-50"/>
       <use x="190.869141" xlink:href="#DejaVuSans-49"/>
       <use x="254.492188" xlink:href="#DejaVuSans-45"/>
       <use x="290.576172" xlink:href="#DejaVuSans-48"/>
       <use x="354.199219" xlink:href="#DejaVuSans-49"/>
       <use x="417.822266" xlink:href="#DejaVuSans-45"/>
       <use x="453.90625" xlink:href="#DejaVuSans-48"/>
       <use x="517.529297" xlink:href="#DejaVuSans-49"/>
      </g>
     </g>
    </g>
    <g id="xtick_8">
     <g id="line2d_8">
      <g>
       <use style="stroke:#000000;stroke-width:0.8;" x="301.017593" xlink:href="#m04f900b55e" y="220.230771"/>
      </g>
     </g>
     <g id="text_8">
      <!-- 2021-01-08 -->
      <g transform="translate(277.232476 262.869024)rotate(-30)scale(0.1 -0.1)">
       <use xlink:href="#DejaVuSans-50"/>
       <use x="63.623047" xlink:href="#DejaVuSans-48"/>
       <use x="127.246094" xlink:href="#DejaVuSans-50"/>
       <use x="190.869141" xlink:href="#DejaVuSans-49"/>
       <use x="254.492188" xlink:href="#DejaVuSans-45"/>
       <use x="290.576172" xlink:href="#DejaVuSans-48"/>
       <use x="354.199219" xlink:href="#DejaVuSans-49"/>
       <use x="417.822266" xlink:href="#DejaVuSans-45"/>
       <use x="453.90625" xlink:href="#DejaVuSans-48"/>
       <use x="517.529297" xlink:href="#DejaVuSans-56"/>
      </g>
     </g>
    </g>
    <g id="text_9">
     <!-- Date -->
     <defs>
      <path d="M 19.671875 64.796875 
L 19.671875 8.109375 
L 31.59375 8.109375 
Q 46.6875 8.109375 53.6875 14.9375 
Q 60.6875 21.78125 60.6875 36.53125 
Q 60.6875 51.171875 53.6875 57.984375 
Q 46.6875 64.796875 31.59375 64.796875 
z
M 9.8125 72.90625 
L 30.078125 72.90625 
Q 51.265625 72.90625 61.171875 64.09375 
Q 71.09375 55.28125 71.09375 36.53125 
Q 71.09375 17.671875 61.125 8.828125 
Q 51.171875 0 30.078125 0 
L 9.8125 0 
z
" id="DejaVuSans-68"/>
      <path d="M 34.28125 27.484375 
Q 23.390625 27.484375 19.1875 25 
Q 14.984375 22.515625 14.984375 16.5 
Q 14.984375 11.71875 18.140625 8.90625 
Q 21.296875 6.109375 26.703125 6.109375 
Q 34.1875 6.109375 38.703125 11.40625 
Q 43.21875 16.703125 43.21875 25.484375 
L 43.21875 27.484375 
z
M 52.203125 31.203125 
L 52.203125 0 
L 43.21875 0 
L 43.21875 8.296875 
Q 40.140625 3.328125 35.546875 0.953125 
Q 30.953125 -1.421875 24.3125 -1.421875 
Q 15.921875 -1.421875 10.953125 3.296875 
Q 6 8.015625 6 15.921875 
Q 6 25.140625 12.171875 29.828125 
Q 18.359375 34.515625 30.609375 34.515625 
L 43.21875 34.515625 
L 43.21875 35.40625 
Q 43.21875 41.609375 39.140625 45 
Q 35.0625 48.390625 27.6875 48.390625 
Q 23 48.390625 18.546875 47.265625 
Q 14.109375 46.140625 10.015625 43.890625 
L 10.015625 52.203125 
Q 14.9375 54.109375 19.578125 55.046875 
Q 24.21875 56 28.609375 56 
Q 40.484375 56 46.34375 49.84375 
Q 52.203125 43.703125 52.203125 31.203125 
z
" id="DejaVuSans-97"/>
      <path d="M 18.3125 70.21875 
L 18.3125 54.6875 
L 36.8125 54.6875 
L 36.8125 47.703125 
L 18.3125 47.703125 
L 18.3125 18.015625 
Q 18.3125 11.328125 20.140625 9.421875 
Q 21.96875 7.515625 27.59375 7.515625 
L 36.8125 7.515625 
L 36.8125 0 
L 27.59375 0 
Q 17.1875 0 13.234375 3.875 
Q 9.28125 7.765625 9.28125 18.015625 
L 9.28125 47.703125 
L 2.6875 47.703125 
L 2.6875 54.6875 
L 9.28125 54.6875 
L 9.28125 70.21875 
z
" id="DejaVuSans-116"/>
      <path d="M 56.203125 29.59375 
L 56.203125 25.203125 
L 14.890625 25.203125 
Q 15.484375 15.921875 20.484375 11.0625 
Q 25.484375 6.203125 34.421875 6.203125 
Q 39.59375 6.203125 44.453125 7.46875 
Q 49.3125 8.734375 54.109375 11.28125 
L 54.109375 2.78125 
Q 49.265625 0.734375 44.1875 -0.34375 
Q 39.109375 -1.421875 33.890625 -1.421875 
Q 20.796875 -1.421875 13.15625 6.1875 
Q 5.515625 13.8125 5.515625 26.8125 
Q 5.515625 40.234375 12.765625 48.109375 
Q 20.015625 56 32.328125 56 
Q 43.359375 56 49.78125 48.890625 
Q 56.203125 41.796875 56.203125 29.59375 
z
M 47.21875 32.234375 
Q 47.125 39.59375 43.09375 43.984375 
Q 39.0625 48.390625 32.421875 48.390625 
Q 24.90625 48.390625 20.390625 44.140625 
Q 15.875 39.890625 15.1875 32.171875 
z
" id="DejaVuSans-101"/>
     </defs>
     <g transform="translate(167.504219 276.268523)scale(0.1 -0.1)">
      <use xlink:href="#DejaVuSans-68"/>
      <use x="77.001953" xlink:href="#DejaVuSans-97"/>
      <use x="138.28125" xlink:href="#DejaVuSans-116"/>
      <use x="177.490234" xlink:href="#DejaVuSans-101"/>
     </g>
    </g>
   </g>
   <g id="matplotlib.axis_2">
    <g id="ytick_1">
     <g id="line2d_9">
      <defs>
       <path d="M 0 0 
L -3.5 0 
" id="ma6c142808a" style="stroke:#000000;stroke-width:0.8;"/>
      </defs>
      <g>
       <use style="stroke:#000000;stroke-width:0.8;" x="43.55" xlink:href="#ma6c142808a" y="210.806645"/>
      </g>
     </g>
     <g id="text_10">
      <!-- 0 -->
      <g transform="translate(30.1875 214.605864)scale(0.1 -0.1)">
       <use xlink:href="#DejaVuSans-48"/>
      </g>
     </g>
    </g>
    <g id="ytick_2">
     <g id="line2d_10">
      <g>
       <use style="stroke:#000000;stroke-width:0.8;" x="43.55" xlink:href="#ma6c142808a" y="187.24633"/>
      </g>
     </g>
     <g id="text_11">
      <!-- 5 -->
      <g transform="translate(30.1875 191.045549)scale(0.1 -0.1)">
       <use xlink:href="#DejaVuSans-53"/>
      </g>
     </g>
    </g>
    <g id="ytick_3">
     <g id="line2d_11">
      <g>
       <use style="stroke:#000000;stroke-width:0.8;" x="43.55" xlink:href="#ma6c142808a" y="163.686016"/>
      </g>
     </g>
     <g id="text_12">
      <!-- 10 -->
      <g transform="translate(23.825 167.485234)scale(0.1 -0.1)">
       <use xlink:href="#DejaVuSans-49"/>
       <use x="63.623047" xlink:href="#DejaVuSans-48"/>
      </g>
     </g>
    </g>
    <g id="ytick_4">
     <g id="line2d_12">
      <g>
       <use style="stroke:#000000;stroke-width:0.8;" x="43.55" xlink:href="#ma6c142808a" y="140.125701"/>
      </g>
     </g>
     <g id="text_13">
      <!-- 15 -->
      <g transform="translate(23.825 143.924919)scale(0.1 -0.1)">
       <use xlink:href="#DejaVuSans-49"/>
       <use x="63.623047" xlink:href="#DejaVuSans-53"/>
      </g>
     </g>
    </g>
    <g id="ytick_5">
     <g id="line2d_13">
      <g>
       <use style="stroke:#000000;stroke-width:0.8;" x="43.55" xlink:href="#ma6c142808a" y="116.565386"/>
      </g>
     </g>
     <g id="text_14">
      <!-- 20 -->
      <g transform="translate(23.825 120.364604)scale(0.1 -0.1)">
       <use xlink:href="#DejaVuSans-50"/>
       <use x="63.623047" xlink:href="#DejaVuSans-48"/>
      </g>
     </g>
    </g>
    <g id="ytick_6">
     <g id="line2d_14">
      <g>
       <use style="stroke:#000000;stroke-width:0.8;" x="43.55" xlink:href="#ma6c142808a" y="93.005071"/>
      </g>
     </g>
     <g id="text_15">
      <!-- 25 -->
      <g transform="translate(23.825 96.80429)scale(0.1 -0.1)">
       <use xlink:href="#DejaVuSans-50"/>
       <use x="63.623047" xlink:href="#DejaVuSans-53"/>
      </g>
     </g>
    </g>
    <g id="ytick_7">
     <g id="line2d_15">
      <g>
       <use style="stroke:#000000;stroke-width:0.8;" x="43.55" xlink:href="#ma6c142808a" y="69.444756"/>
      </g>
     </g>
     <g id="text_16">
      <!-- 30 -->
      <defs>
       <path d="M 40.578125 39.3125 
Q 47.65625 37.796875 51.625 33 
Q 55.609375 28.21875 55.609375 21.1875 
Q 55.609375 10.40625 48.1875 4.484375 
Q 40.765625 -1.421875 27.09375 -1.421875 
Q 22.515625 -1.421875 17.65625 -0.515625 
Q 12.796875 0.390625 7.625 2.203125 
L 7.625 11.71875 
Q 11.71875 9.328125 16.59375 8.109375 
Q 21.484375 6.890625 26.8125 6.890625 
Q 36.078125 6.890625 40.9375 10.546875 
Q 45.796875 14.203125 45.796875 21.1875 
Q 45.796875 27.640625 41.28125 31.265625 
Q 36.765625 34.90625 28.71875 34.90625 
L 20.21875 34.90625 
L 20.21875 43.015625 
L 29.109375 43.015625 
Q 36.375 43.015625 40.234375 45.921875 
Q 44.09375 48.828125 44.09375 54.296875 
Q 44.09375 59.90625 40.109375 62.90625 
Q 36.140625 65.921875 28.71875 65.921875 
Q 24.65625 65.921875 20.015625 65.03125 
Q 15.375 64.15625 9.8125 62.3125 
L 9.8125 71.09375 
Q 15.4375 72.65625 20.34375 73.4375 
Q 25.25 74.21875 29.59375 74.21875 
Q 40.828125 74.21875 47.359375 69.109375 
Q 53.90625 64.015625 53.90625 55.328125 
Q 53.90625 49.265625 50.4375 45.09375 
Q 46.96875 40.921875 40.578125 39.3125 
z
" id="DejaVuSans-51"/>
      </defs>
      <g transform="translate(23.825 73.243975)scale(0.1 -0.1)">
       <use xlink:href="#DejaVuSans-51"/>
       <use x="63.623047" xlink:href="#DejaVuSans-48"/>
      </g>
     </g>
    </g>
    <g id="ytick_8">
     <g id="line2d_16">
      <g>
       <use style="stroke:#000000;stroke-width:0.8;" x="43.55" xlink:href="#ma6c142808a" y="45.884441"/>
      </g>
     </g>
     <g id="text_17">
      <!-- 35 -->
      <g transform="translate(23.825 49.68366)scale(0.1 -0.1)">
       <use xlink:href="#DejaVuSans-51"/>
       <use x="63.623047" xlink:href="#DejaVuSans-53"/>
      </g>
     </g>
    </g>
    <g id="ytick_9">
     <g id="line2d_17">
      <g>
       <use style="stroke:#000000;stroke-width:0.8;" x="43.55" xlink:href="#ma6c142808a" y="22.324126"/>
      </g>
     </g>
     <g id="text_18">
      <!-- 40 -->
      <defs>
       <path d="M 37.796875 64.3125 
L 12.890625 25.390625 
L 37.796875 25.390625 
z
M 35.203125 72.90625 
L 47.609375 72.90625 
L 47.609375 25.390625 
L 58.015625 25.390625 
L 58.015625 17.1875 
L 47.609375 17.1875 
L 47.609375 0 
L 37.796875 0 
L 37.796875 17.1875 
L 4.890625 17.1875 
L 4.890625 26.703125 
z
" id="DejaVuSans-52"/>
      </defs>
      <g transform="translate(23.825 26.123345)scale(0.1 -0.1)">
       <use xlink:href="#DejaVuSans-52"/>
       <use x="63.623047" xlink:href="#DejaVuSans-48"/>
      </g>
     </g>
    </g>
    <g id="text_19">
     <!-- Students Registered -->
     <defs>
      <path d="M 53.515625 70.515625 
L 53.515625 60.890625 
Q 47.90625 63.578125 42.921875 64.890625 
Q 37.9375 66.21875 33.296875 66.21875 
Q 25.25 66.21875 20.875 63.09375 
Q 16.5 59.96875 16.5 54.203125 
Q 16.5 49.359375 19.40625 46.890625 
Q 22.3125 44.4375 30.421875 42.921875 
L 36.375 41.703125 
Q 47.40625 39.59375 52.65625 34.296875 
Q 57.90625 29 57.90625 20.125 
Q 57.90625 9.515625 50.796875 4.046875 
Q 43.703125 -1.421875 29.984375 -1.421875 
Q 24.8125 -1.421875 18.96875 -0.25 
Q 13.140625 0.921875 6.890625 3.21875 
L 6.890625 13.375 
Q 12.890625 10.015625 18.65625 8.296875 
Q 24.421875 6.59375 29.984375 6.59375 
Q 38.421875 6.59375 43.015625 9.90625 
Q 47.609375 13.234375 47.609375 19.390625 
Q 47.609375 24.75 44.3125 27.78125 
Q 41.015625 30.8125 33.5 32.328125 
L 27.484375 33.5 
Q 16.453125 35.6875 11.515625 40.375 
Q 6.59375 45.0625 6.59375 53.421875 
Q 6.59375 63.09375 13.40625 68.65625 
Q 20.21875 74.21875 32.171875 74.21875 
Q 37.3125 74.21875 42.625 73.28125 
Q 47.953125 72.359375 53.515625 70.515625 
z
" id="DejaVuSans-83"/>
      <path d="M 8.5 21.578125 
L 8.5 54.6875 
L 17.484375 54.6875 
L 17.484375 21.921875 
Q 17.484375 14.15625 20.5 10.265625 
Q 23.53125 6.390625 29.59375 6.390625 
Q 36.859375 6.390625 41.078125 11.03125 
Q 45.3125 15.671875 45.3125 23.6875 
L 45.3125 54.6875 
L 54.296875 54.6875 
L 54.296875 0 
L 45.3125 0 
L 45.3125 8.40625 
Q 42.046875 3.421875 37.71875 1 
Q 33.40625 -1.421875 27.6875 -1.421875 
Q 18.265625 -1.421875 13.375 4.4375 
Q 8.5 10.296875 8.5 21.578125 
z
M 31.109375 56 
z
" id="DejaVuSans-117"/>
      <path d="M 45.40625 46.390625 
L 45.40625 75.984375 
L 54.390625 75.984375 
L 54.390625 0 
L 45.40625 0 
L 45.40625 8.203125 
Q 42.578125 3.328125 38.25 0.953125 
Q 33.9375 -1.421875 27.875 -1.421875 
Q 17.96875 -1.421875 11.734375 6.484375 
Q 5.515625 14.40625 5.515625 27.296875 
Q 5.515625 40.1875 11.734375 48.09375 
Q 17.96875 56 27.875 56 
Q 33.9375 56 38.25 53.625 
Q 42.578125 51.265625 45.40625 46.390625 
z
M 14.796875 27.296875 
Q 14.796875 17.390625 18.875 11.75 
Q 22.953125 6.109375 30.078125 6.109375 
Q 37.203125 6.109375 41.296875 11.75 
Q 45.40625 17.390625 45.40625 27.296875 
Q 45.40625 37.203125 41.296875 42.84375 
Q 37.203125 48.484375 30.078125 48.484375 
Q 22.953125 48.484375 18.875 42.84375 
Q 14.796875 37.203125 14.796875 27.296875 
z
" id="DejaVuSans-100"/>
      <path d="M 54.890625 33.015625 
L 54.890625 0 
L 45.90625 0 
L 45.90625 32.71875 
Q 45.90625 40.484375 42.875 44.328125 
Q 39.84375 48.1875 33.796875 48.1875 
Q 26.515625 48.1875 22.3125 43.546875 
Q 18.109375 38.921875 18.109375 30.90625 
L 18.109375 0 
L 9.078125 0 
L 9.078125 54.6875 
L 18.109375 54.6875 
L 18.109375 46.1875 
Q 21.34375 51.125 25.703125 53.5625 
Q 30.078125 56 35.796875 56 
Q 45.21875 56 50.046875 50.171875 
Q 54.890625 44.34375 54.890625 33.015625 
z
" id="DejaVuSans-110"/>
      <path d="M 44.28125 53.078125 
L 44.28125 44.578125 
Q 40.484375 46.53125 36.375 47.5 
Q 32.28125 48.484375 27.875 48.484375 
Q 21.1875 48.484375 17.84375 46.4375 
Q 14.5 44.390625 14.5 40.28125 
Q 14.5 37.15625 16.890625 35.375 
Q 19.28125 33.59375 26.515625 31.984375 
L 29.59375 31.296875 
Q 39.15625 29.25 43.1875 25.515625 
Q 47.21875 21.78125 47.21875 15.09375 
Q 47.21875 7.46875 41.1875 3.015625 
Q 35.15625 -1.421875 24.609375 -1.421875 
Q 20.21875 -1.421875 15.453125 -0.5625 
Q 10.6875 0.296875 5.421875 2 
L 5.421875 11.28125 
Q 10.40625 8.6875 15.234375 7.390625 
Q 20.0625 6.109375 24.8125 6.109375 
Q 31.15625 6.109375 34.5625 8.28125 
Q 37.984375 10.453125 37.984375 14.40625 
Q 37.984375 18.0625 35.515625 20.015625 
Q 33.0625 21.96875 24.703125 23.78125 
L 21.578125 24.515625 
Q 13.234375 26.265625 9.515625 29.90625 
Q 5.8125 33.546875 5.8125 39.890625 
Q 5.8125 47.609375 11.28125 51.796875 
Q 16.75 56 26.8125 56 
Q 31.78125 56 36.171875 55.265625 
Q 40.578125 54.546875 44.28125 53.078125 
z
" id="DejaVuSans-115"/>
      <path id="DejaVuSans-32"/>
      <path d="M 44.390625 34.1875 
Q 47.5625 33.109375 50.5625 29.59375 
Q 53.5625 26.078125 56.59375 19.921875 
L 66.609375 0 
L 56 0 
L 46.6875 18.703125 
Q 43.0625 26.03125 39.671875 28.421875 
Q 36.28125 30.8125 30.421875 30.8125 
L 19.671875 30.8125 
L 19.671875 0 
L 9.8125 0 
L 9.8125 72.90625 
L 32.078125 72.90625 
Q 44.578125 72.90625 50.734375 67.671875 
Q 56.890625 62.453125 56.890625 51.90625 
Q 56.890625 45.015625 53.6875 40.46875 
Q 50.484375 35.9375 44.390625 34.1875 
z
M 19.671875 64.796875 
L 19.671875 38.921875 
L 32.078125 38.921875 
Q 39.203125 38.921875 42.84375 42.21875 
Q 46.484375 45.515625 46.484375 51.90625 
Q 46.484375 58.296875 42.84375 61.546875 
Q 39.203125 64.796875 32.078125 64.796875 
z
" id="DejaVuSans-82"/>
      <path d="M 45.40625 27.984375 
Q 45.40625 37.75 41.375 43.109375 
Q 37.359375 48.484375 30.078125 48.484375 
Q 22.859375 48.484375 18.828125 43.109375 
Q 14.796875 37.75 14.796875 27.984375 
Q 14.796875 18.265625 18.828125 12.890625 
Q 22.859375 7.515625 30.078125 7.515625 
Q 37.359375 7.515625 41.375 12.890625 
Q 45.40625 18.265625 45.40625 27.984375 
z
M 54.390625 6.78125 
Q 54.390625 -7.171875 48.1875 -13.984375 
Q 42 -20.796875 29.203125 -20.796875 
Q 24.46875 -20.796875 20.265625 -20.09375 
Q 16.0625 -19.390625 12.109375 -17.921875 
L 12.109375 -9.1875 
Q 16.0625 -11.328125 19.921875 -12.34375 
Q 23.78125 -13.375 27.78125 -13.375 
Q 36.625 -13.375 41.015625 -8.765625 
Q 45.40625 -4.15625 45.40625 5.171875 
L 45.40625 9.625 
Q 42.625 4.78125 38.28125 2.390625 
Q 33.9375 0 27.875 0 
Q 17.828125 0 11.671875 7.65625 
Q 5.515625 15.328125 5.515625 27.984375 
Q 5.515625 40.671875 11.671875 48.328125 
Q 17.828125 56 27.875 56 
Q 33.9375 56 38.28125 53.609375 
Q 42.625 51.21875 45.40625 46.390625 
L 45.40625 54.6875 
L 54.390625 54.6875 
z
" id="DejaVuSans-103"/>
      <path d="M 9.421875 54.6875 
L 18.40625 54.6875 
L 18.40625 0 
L 9.421875 0 
z
M 9.421875 75.984375 
L 18.40625 75.984375 
L 18.40625 64.59375 
L 9.421875 64.59375 
z
" id="DejaVuSans-105"/>
      <path d="M 41.109375 46.296875 
Q 39.59375 47.171875 37.8125 47.578125 
Q 36.03125 48 33.890625 48 
Q 26.265625 48 22.1875 43.046875 
Q 18.109375 38.09375 18.109375 28.8125 
L 18.109375 0 
L 9.078125 0 
L 9.078125 54.6875 
L 18.109375 54.6875 
L 18.109375 46.1875 
Q 20.953125 51.171875 25.484375 53.578125 
Q 30.03125 56 36.53125 56 
Q 37.453125 56 38.578125 55.875 
Q 39.703125 55.765625 41.0625 55.515625 
z
" id="DejaVuSans-114"/>
     </defs>
     <g transform="translate(17.745313 167.498979)rotate(-90)scale(0.1 -0.1)">
      <use xlink:href="#DejaVuSans-83"/>
      <use x="63.476562" xlink:href="#DejaVuSans-116"/>
      <use x="102.685547" xlink:href="#DejaVuSans-117"/>
      <use x="166.064453" xlink:href="#DejaVuSans-100"/>
      <use x="229.541016" xlink:href="#DejaVuSans-101"/>
      <use x="291.064453" xlink:href="#DejaVuSans-110"/>
      <use x="354.443359" xlink:href="#DejaVuSans-116"/>
      <use x="393.652344" xlink:href="#DejaVuSans-115"/>
      <use x="445.751953" xlink:href="#DejaVuSans-32"/>
      <use x="477.539062" xlink:href="#DejaVuSans-82"/>
      <use x="546.958984" xlink:href="#DejaVuSans-101"/>
      <use x="608.482422" xlink:href="#DejaVuSans-103"/>
      <use x="671.958984" xlink:href="#DejaVuSans-105"/>
      <use x="699.742188" xlink:href="#DejaVuSans-115"/>
      <use x="751.841797" xlink:href="#DejaVuSans-116"/>
      <use x="791.050781" xlink:href="#DejaVuSans-101"/>
      <use x="852.574219" xlink:href="#DejaVuSans-114"/>
      <use x="893.65625" xlink:href="#DejaVuSans-101"/>
      <use x="955.179688" xlink:href="#DejaVuSans-100"/>
     </g>
    </g>
   </g>
   <g id="line2d_18">
    <path clip-path="url(#p9dd3209615)" d="M 55.905 201.382519 
L 63.519992 201.382519 
L 63.519992 196.670456 
L 63.586268 196.670456 
L 68.553457 196.670456 
L 68.553457 191.958393 
L 68.619689 191.958393 
L 69.613099 191.958393 
L 69.613099 187.24633 
L 69.679315 187.24633 
L 75.176325 187.24633 
L 75.176325 177.822204 
L 75.242559 177.822204 
L 75.706192 177.822204 
L 75.706192 173.110142 
L 75.772446 173.110142 
L 76.236032 173.110142 
L 76.236032 168.398079 
L 76.302297 168.398079 
L 76.500942 168.398079 
L 76.500942 163.686016 
L 76.567197 163.686016 
L 82.594051 163.686016 
L 82.594051 158.973953 
L 82.660242 158.973953 
L 88.687139 158.973953 
L 88.687139 154.26189 
L 88.753338 154.26189 
L 100.343511 154.26189 
L 100.343511 144.837764 
L 100.409674 144.837764 
L 100.873335 144.837764 
L 100.873335 140.125701 
L 100.939543 140.125701 
L 102.197917 140.125701 
L 102.197917 135.413638 
L 102.264131 135.413638 
L 106.43656 135.413638 
L 106.43656 130.701575 
L 106.502794 130.701575 
L 107.761165 130.701575 
L 107.761165 125.989512 
L 107.827383 125.989512 
L 108.026084 125.989512 
L 108.026084 121.277449 
L 108.092317 121.277449 
L 108.290998 121.277449 
L 108.357218 107.14126 
L 108.357218 107.14126 
L 112.794552 107.14126 
L 112.794552 102.429197 
L 112.8608 102.429197 
L 113.059462 102.429197 
L 113.059462 93.005071 
L 113.125693 93.005071 
L 113.324377 93.005071 
L 113.324377 88.293008 
L 113.390611 88.293008 
L 113.589321 88.293008 
L 113.655546 74.156819 
L 113.655546 74.156819 
L 114.119144 74.156819 
L 114.119144 60.02063 
L 114.185399 60.02063 
L 114.384095 60.02063 
L 114.384095 50.596504 
L 114.450334 50.596504 
L 114.648974 50.596504 
L 114.648974 31.748252 
L 114.715204 31.748252 
L 114.913926 31.748252 
L 114.913926 27.036189 
L 114.980153 27.036189 
L 116.238522 27.036189 
L 116.238522 22.324126 
L 116.304752 22.324126 
L 189.090717 22.324126 
L 189.090717 27.036189 
L 189.15688 27.036189 
L 189.355632 27.036189 
L 189.355632 22.324126 
L 189.421857 22.324126 
L 189.885436 22.324126 
L 189.885436 27.036189 
L 189.951692 27.036189 
L 190.680157 27.036189 
L 190.680157 31.748252 
L 190.746441 31.748252 
L 191.210056 31.748252 
L 191.210056 36.460315 
L 191.276245 36.460315 
L 198.362765 36.460315 
L 198.362765 41.172378 
L 198.429027 41.172378 
L 213.992897 41.172378 
L 213.992897 36.460315 
L 214.059134 36.460315 
L 243.398647 36.460315 
L 243.398647 41.172378 
L 243.464931 41.172378 
L 253.730438 41.172378 
L 253.730438 36.460315 
L 253.796634 36.460315 
L 286.050353 36.460315 
L 286.050353 31.748252 
L 286.116525 31.748252 
L 290.288956 31.748252 
L 290.288956 27.036189 
L 290.355219 27.036189 
L 297.706666 27.036189 
L 297.706666 22.324126 
L 303.005 22.324126 
L 303.005 22.324126 
" style="fill:none;stroke:#1b9e77;stroke-linecap:square;stroke-width:1.5;"/>
   </g>
   <g id="line2d_19">
    <path clip-path="url(#p9dd3209615)" d="M 111.205101 196.670456 
L 112.529627 196.670456 
L 112.529627 182.534267 
L 112.595867 182.534267 
L 112.794552 182.534267 
L 112.794552 177.822204 
L 112.8608 177.822204 
L 113.059462 177.822204 
L 113.059462 158.973953 
L 113.125693 158.973953 
L 113.589321 158.973953 
L 113.589321 144.837764 
L 113.655546 144.837764 
L 114.119144 144.837764 
L 114.119144 116.565386 
L 114.185399 116.565386 
L 114.648974 116.565386 
L 114.648974 107.14126 
L 114.715204 107.14126 
L 114.913926 107.14126 
L 114.913926 102.429197 
L 114.980153 102.429197 
L 115.17882 102.429197 
L 115.17882 97.717134 
L 115.245065 97.717134 
L 115.708698 97.717134 
L 115.708698 93.005071 
L 115.774928 93.005071 
L 119.417478 93.005071 
L 119.417478 74.156819 
L 119.483726 74.156819 
L 119.94733 74.156819 
L 119.94733 69.444756 
L 120.013592 69.444756 
L 120.477204 69.444756 
L 120.477204 60.02063 
L 120.543377 60.02063 
L 120.742122 60.02063 
L 120.742122 55.308567 
L 120.808293 55.308567 
L 121.271963 55.308567 
L 121.271963 50.596504 
L 121.338131 50.596504 
L 126.835198 50.596504 
L 126.835198 45.884441 
L 126.901381 45.884441 
L 127.10007 45.884441 
L 127.10007 41.172378 
L 127.166333 41.172378 
L 127.365 41.172378 
L 127.365 36.460315 
L 127.431251 36.460315 
L 128.159788 36.460315 
L 128.159788 31.748252 
L 128.225955 31.748252 
L 145.114436 31.748252 
L 145.114436 22.324126 
L 145.180712 22.324126 
L 177.699234 22.324126 
L 177.699234 27.036189 
L 177.765467 27.036189 
L 179.288735 27.036189 
L 179.288735 22.324126 
L 179.355006 22.324126 
L 202.336546 22.324126 
L 202.336546 27.036189 
L 202.402745 27.036189 
L 204.455871 27.036189 
L 204.455871 22.324126 
L 204.522073 22.324126 
L 303.005 22.324126 
L 303.005 22.324126 
" style="fill:none;stroke:#d95f02;stroke-linecap:square;stroke-width:1.5;"/>
   </g>
   <g id="line2d_20">
    <path clip-path="url(#p9dd3209615)" d="M 55.905 182.534267 
L 56.184122 182.534267 
L 56.184122 177.822204 
L 56.292184 177.822204 
L 57.554922 177.822204 
L 57.554922 173.110142 
L 61.793644 173.110142 
L 61.793644 168.398079 
L 62.195443 168.398079 
L 62.195443 163.686016 
L 62.26163 163.686016 
L 62.460345 163.686016 
L 62.460345 158.973953 
L 62.526606 158.973953 
L 63.255132 158.973953 
L 63.255132 144.837764 
L 63.321332 144.837764 
L 63.519992 144.837764 
L 63.519992 140.125701 
L 63.586268 140.125701 
L 68.818348 140.125701 
L 68.818348 130.701575 
L 68.884616 130.701575 
L 69.083264 130.701575 
L 69.083264 125.989512 
L 69.149466 125.989512 
L 69.348179 125.989512 
L 69.348179 130.701575 
L 69.414428 130.701575 
L 69.878056 130.701575 
L 69.878056 125.989512 
L 69.944268 125.989512 
L 70.142919 125.989512 
L 70.142919 116.565386 
L 70.209222 116.565386 
L 71.467537 116.565386 
L 71.467537 107.14126 
L 71.533744 107.14126 
L 74.381623 107.14126 
L 74.381623 102.429197 
L 74.447834 102.429197 
L 74.646534 102.429197 
L 74.646534 83.580945 
L 74.712754 83.580945 
L 74.911421 83.580945 
L 74.911421 74.156819 
L 74.977649 74.156819 
L 75.441284 74.156819 
L 75.441284 69.444756 
L 75.507518 69.444756 
L 75.706192 69.444756 
L 75.706192 64.732693 
L 75.772446 64.732693 
L 75.971117 64.732693 
L 75.971117 60.02063 
L 76.037353 60.02063 
L 76.236032 60.02063 
L 76.236032 45.884441 
L 76.302297 45.884441 
L 76.500942 45.884441 
L 76.500942 41.172378 
L 76.567197 41.172378 
L 76.765874 41.172378 
L 76.765874 36.460315 
L 76.832114 36.460315 
L 81.269427 36.460315 
L 81.269427 27.036189 
L 81.335658 27.036189 
L 81.534402 27.036189 
L 81.534402 22.324126 
L 81.600589 22.324126 
L 112.794552 22.324126 
L 112.794552 27.036189 
L 112.8608 27.036189 
L 113.059462 27.036189 
L 113.059462 22.324126 
L 113.125693 22.324126 
L 303.005 22.324126 
L 303.005 22.324126 
" style="fill:none;stroke:#7570b3;stroke-linecap:square;stroke-width:1.5;"/>
   </g>
   <g id="line2d_21">
    <path clip-path="url(#p9dd3209615)" d="M 55.905 201.382519 
L 62.990229 201.382519 
L 62.990229 196.670456 
L 63.056408 196.670456 
L 68.288551 196.670456 
L 68.288551 191.958393 
L 68.354785 191.958393 
L 68.553457 191.958393 
L 68.553457 187.24633 
L 68.619689 187.24633 
L 68.818348 187.24633 
L 68.818348 177.822204 
L 68.884616 177.822204 
L 69.083264 177.822204 
L 69.083264 173.110142 
L 69.149466 173.110142 
L 69.348179 173.110142 
L 69.348179 168.398079 
L 69.414428 168.398079 
L 69.613099 168.398079 
L 69.613099 163.686016 
L 69.679315 163.686016 
L 70.142919 163.686016 
L 70.142919 158.973953 
L 70.209222 158.973953 
L 74.646534 158.973953 
L 74.646534 149.549827 
L 74.712754 149.549827 
L 74.911421 149.549827 
L 74.911421 144.837764 
L 74.977649 144.837764 
L 75.971117 144.837764 
L 75.971117 140.125701 
L 76.037353 140.125701 
L 76.236032 140.125701 
L 76.236032 130.701575 
L 76.302297 130.701575 
L 100.343511 130.701575 
L 100.343511 125.989512 
L 100.409674 125.989512 
L 100.608402 125.989512 
L 100.608402 121.277449 
L 100.674596 121.277449 
L 100.873335 121.277449 
L 100.873335 116.565386 
L 100.939543 116.565386 
L 101.138223 116.565386 
L 101.138223 111.853323 
L 101.204448 111.853323 
L 101.403168 111.853323 
L 101.403168 102.429197 
L 101.469381 102.429197 
L 101.668089 102.429197 
L 101.668089 97.717134 
L 101.734308 97.717134 
L 106.43656 97.717134 
L 106.502794 83.580945 
L 106.502794 83.580945 
L 106.966407 83.580945 
L 106.966407 74.156819 
L 107.032627 74.156819 
L 107.761165 74.156819 
L 107.761165 69.444756 
L 107.827383 69.444756 
L 108.026084 69.444756 
L 108.026084 60.02063 
L 108.092317 60.02063 
L 108.290998 60.02063 
L 108.290998 36.460315 
L 108.357218 36.460315 
L 108.555875 36.460315 
L 108.555875 22.324126 
L 108.622167 22.324126 
L 112.529627 22.324126 
L 112.529627 27.036189 
L 112.595867 27.036189 
L 113.059462 27.036189 
L 113.059462 22.324126 
L 113.125693 22.324126 
L 177.169381 22.324126 
L 177.169381 27.036189 
L 177.235658 27.036189 
L 177.434354 27.036189 
L 177.434354 22.324126 
L 177.500594 22.324126 
L 189.090717 22.324126 
L 189.090717 27.036189 
L 189.15688 27.036189 
L 189.620479 27.036189 
L 189.620479 22.324126 
L 189.686708 22.324126 
L 190.150331 22.324126 
L 190.150331 27.036189 
L 190.21657 27.036189 
L 191.210056 27.036189 
L 191.210056 22.324126 
L 191.276245 22.324126 
L 303.005 22.324126 
L 303.005 22.324126 
" style="fill:none;stroke:#e7298a;stroke-linecap:square;stroke-width:1.5;"/>
   </g>
   <g id="line2d_22">
    <path clip-path="url(#p9dd3209615)" d="M 55.905 210.806645 
L 56.184122 210.806645 
L 56.184122 201.382519 
L 56.292184 201.382519 
L 57.426928 201.382519 
L 57.426928 196.670456 
L 57.537332 196.670456 
L 63.519992 196.670456 
L 63.519992 191.958393 
L 63.586268 191.958393 
L 68.553457 191.958393 
L 68.553457 177.822204 
L 68.619689 177.822204 
L 68.818348 177.822204 
L 68.818348 173.110142 
L 68.884616 173.110142 
L 69.083264 173.110142 
L 69.083264 154.26189 
L 69.149466 154.26189 
L 69.348179 154.26189 
L 69.348179 149.549827 
L 69.414428 149.549827 
L 69.613099 149.549827 
L 69.613099 140.125701 
L 69.679315 140.125701 
L 69.878056 140.125701 
L 69.878056 125.989512 
L 69.944268 125.989512 
L 74.646534 125.989512 
L 74.646534 121.277449 
L 74.712754 121.277449 
L 74.911421 121.277449 
L 74.911421 116.565386 
L 74.977649 116.565386 
L 75.706192 116.565386 
L 75.706192 111.853323 
L 75.772446 111.853323 
L 76.236032 111.853323 
L 76.236032 97.717134 
L 76.302297 97.717134 
L 76.500942 97.717134 
L 76.500942 93.005071 
L 76.567197 93.005071 
L 81.799272 93.005071 
L 81.799272 88.293008 
L 81.865512 88.293008 
L 82.06418 88.293008 
L 82.06418 83.580945 
L 82.130436 83.580945 
L 82.594051 83.580945 
L 82.594051 78.868882 
L 82.660242 78.868882 
L 83.388787 78.868882 
L 83.388787 74.156819 
L 83.455052 74.156819 
L 87.892413 74.156819 
L 87.892413 69.444756 
L 87.958612 69.444756 
L 100.343511 69.444756 
L 100.343511 45.884441 
L 100.409674 45.884441 
L 100.608402 45.884441 
L 100.608402 36.460315 
L 100.674596 36.460315 
L 100.873335 36.460315 
L 100.873335 31.748252 
L 100.939543 31.748252 
L 190.150331 31.748252 
L 190.150331 36.460315 
L 190.21657 36.460315 
L 190.41524 36.460315 
L 190.41524 31.748252 
L 190.481468 31.748252 
L 204.720756 31.748252 
L 204.720756 36.460315 
L 204.787031 36.460315 
L 204.985692 36.460315 
L 204.985692 31.748252 
L 205.051944 31.748252 
L 303.005 31.748252 
L 303.005 31.748252 
" style="fill:none;stroke:#66a61e;stroke-linecap:square;stroke-width:1.5;"/>
   </g>
   <g id="line2d_23">
    <path clip-path="url(#p9dd3209615)" d="M 55.905 191.958393 
L 68.553457 191.958393 
L 68.553457 187.24633 
L 68.619689 187.24633 
L 69.878056 187.24633 
L 69.878056 182.534267 
L 69.944268 182.534267 
L 70.407872 182.534267 
L 70.407872 177.822204 
L 70.474076 177.822204 
L 75.441284 177.822204 
L 75.441284 173.110142 
L 75.507518 173.110142 
L 75.971117 173.110142 
L 75.971117 168.398079 
L 76.037353 168.398079 
L 81.269427 168.398079 
L 81.269427 163.686016 
L 81.335658 163.686016 
L 100.078556 163.686016 
L 100.078556 154.26189 
L 100.144823 154.26189 
L 100.343511 154.26189 
L 100.343511 144.837764 
L 100.409674 144.837764 
L 101.138223 144.837764 
L 101.138223 140.125701 
L 101.204448 140.125701 
L 102.197917 140.125701 
L 102.197917 135.413638 
L 102.264131 135.413638 
L 106.966407 135.413638 
L 106.966407 130.701575 
L 107.032627 130.701575 
L 107.496195 130.701575 
L 107.496195 121.277449 
L 107.562483 121.277449 
L 108.026084 121.277449 
L 108.026084 116.565386 
L 108.092317 116.565386 
L 109.615589 116.565386 
L 109.615589 111.853323 
L 109.681805 111.853323 
L 112.529627 111.853323 
L 112.529627 107.14126 
L 112.595867 107.14126 
L 113.059462 107.14126 
L 113.059462 102.429197 
L 113.125693 102.429197 
L 113.324377 102.429197 
L 113.324377 93.005071 
L 113.390611 93.005071 
L 113.854253 93.005071 
L 113.854253 88.293008 
L 113.920485 88.293008 
L 114.119144 88.293008 
L 114.185399 74.156819 
L 114.185399 74.156819 
L 114.384095 74.156819 
L 114.384095 64.732693 
L 114.450334 64.732693 
L 115.443722 64.732693 
L 115.443722 69.444756 
L 115.509942 69.444756 
L 119.417478 69.444756 
L 119.417478 60.02063 
L 119.483726 60.02063 
L 119.68246 60.02063 
L 119.68246 55.308567 
L 119.748622 55.308567 
L 120.212256 55.308567 
L 120.212256 50.596504 
L 120.278496 50.596504 
L 120.477204 50.596504 
L 120.477204 41.172378 
L 120.543377 41.172378 
L 120.742122 41.172378 
L 120.742122 36.460315 
L 120.808293 36.460315 
L 121.271963 36.460315 
L 121.271963 31.748252 
L 121.338131 31.748252 
L 303.005 31.748252 
L 303.005 31.748252 
" style="fill:none;stroke:#e6ab02;stroke-linecap:square;stroke-width:1.5;"/>
   </g>
   <g id="line2d_24">
    <path clip-path="url(#p9dd3209615)" d="M 55.905 196.670456 
L 62.990229 196.670456 
L 62.990229 191.958393 
L 63.056408 191.958393 
L 68.288551 191.958393 
L 68.288551 187.24633 
L 68.354785 187.24633 
L 68.553457 187.24633 
L 68.553457 182.534267 
L 68.619689 182.534267 
L 69.083264 182.534267 
L 69.083264 177.822204 
L 69.149466 177.822204 
L 69.348179 177.822204 
L 69.348179 173.110142 
L 69.414428 173.110142 
L 69.613099 173.110142 
L 69.613099 163.686016 
L 69.679315 163.686016 
L 69.878056 163.686016 
L 69.878056 158.973953 
L 69.944268 158.973953 
L 70.142919 158.973953 
L 70.142919 154.26189 
L 70.209222 154.26189 
L 74.381623 154.26189 
L 74.381623 149.549827 
L 74.447834 149.549827 
L 74.646534 149.549827 
L 74.646534 140.125701 
L 74.712754 140.125701 
L 75.176325 140.125701 
L 75.176325 135.413638 
L 75.242559 135.413638 
L 75.441284 135.413638 
L 75.441284 125.989512 
L 75.507518 125.989512 
L 75.971117 125.989512 
L 75.971117 121.277449 
L 76.037353 121.277449 
L 76.500942 121.277449 
L 76.500942 116.565386 
L 76.567197 116.565386 
L 76.765874 116.565386 
L 76.765874 111.853323 
L 76.832114 111.853323 
L 81.534402 111.853323 
L 81.534402 107.14126 
L 81.600589 107.14126 
L 82.594051 107.14126 
L 82.594051 102.429197 
L 82.660242 102.429197 
L 89.481851 102.429197 
L 89.481851 97.717134 
L 89.548087 97.717134 
L 100.078556 97.717134 
L 100.078556 93.005071 
L 100.144823 93.005071 
L 100.873335 93.005071 
L 100.873335 78.868882 
L 100.939543 78.868882 
L 101.138223 78.868882 
L 101.138223 69.444756 
L 101.204448 69.444756 
L 101.403168 69.444756 
L 101.403168 60.02063 
L 101.469381 60.02063 
L 102.197917 60.02063 
L 102.197917 55.308567 
L 102.264131 55.308567 
L 105.906738 55.308567 
L 105.906738 50.596504 
L 105.972964 50.596504 
L 106.701472 50.596504 
L 106.701472 45.884441 
L 106.767688 45.884441 
L 106.966407 45.884441 
L 106.966407 41.172378 
L 107.032627 41.172378 
L 107.231307 41.172378 
L 107.231307 36.460315 
L 107.297543 36.460315 
L 108.026084 36.460315 
L 108.026084 31.748252 
L 108.092317 31.748252 
L 303.005 31.748252 
L 303.005 31.748252 
" style="fill:none;stroke:#a6761d;stroke-linecap:square;stroke-width:1.5;"/>
   </g>
   <g id="line2d_25">
    <path clip-path="url(#p9dd3209615)" d="M 55.905 201.382519 
L 68.818348 201.382519 
L 68.818348 196.670456 
L 68.884616 196.670456 
L 69.613099 196.670456 
L 69.613099 191.958393 
L 69.679315 191.958393 
L 75.441284 191.958393 
L 75.441284 187.24633 
L 75.507518 187.24633 
L 75.971117 187.24633 
L 75.971117 191.958393 
L 76.037353 191.958393 
L 76.236032 191.958393 
L 76.236032 182.534267 
L 76.302297 182.534267 
L 100.343511 182.534267 
L 100.343511 177.822204 
L 100.409674 177.822204 
L 100.873335 177.822204 
L 100.873335 173.110142 
L 100.939543 173.110142 
L 101.403168 173.110142 
L 101.403168 168.398079 
L 101.469381 168.398079 
L 101.668089 168.398079 
L 101.668089 163.686016 
L 101.734308 163.686016 
L 102.992631 163.686016 
L 102.992631 158.973953 
L 103.058843 158.973953 
L 107.231307 158.973953 
L 107.231307 154.26189 
L 107.297543 154.26189 
L 108.026084 154.26189 
L 108.026084 149.549827 
L 108.092317 149.549827 
L 108.290998 149.549827 
L 108.290998 144.837764 
L 108.357218 144.837764 
L 112.794552 144.837764 
L 112.794552 135.413638 
L 112.8608 135.413638 
L 113.059462 135.413638 
L 113.059462 130.701575 
L 113.125693 130.701575 
L 113.324377 130.701575 
L 113.390611 116.565386 
L 113.390611 116.565386 
L 114.384095 116.565386 
L 114.384095 111.853323 
L 114.450334 111.853323 
L 114.648974 111.853323 
L 114.648974 107.14126 
L 114.715204 107.14126 
L 114.913926 107.14126 
L 114.913926 111.853323 
L 114.980153 111.853323 
L 115.17882 111.853323 
L 115.17882 107.14126 
L 115.245065 107.14126 
L 115.443722 107.14126 
L 115.443722 102.429197 
L 115.509942 102.429197 
L 118.622768 102.429197 
L 118.622768 107.14126 
L 118.688947 107.14126 
L 119.417478 107.14126 
L 119.417478 93.005071 
L 119.483726 93.005071 
L 119.94733 93.005071 
L 119.94733 88.293008 
L 120.013592 88.293008 
L 120.477204 88.293008 
L 120.477204 69.444756 
L 120.543377 69.444756 
L 120.742122 69.444756 
L 120.742122 64.732693 
L 120.808293 64.732693 
L 126.570246 64.732693 
L 126.570246 60.02063 
L 126.636502 60.02063 
L 148.028577 60.02063 
L 148.028577 55.308567 
L 148.094766 55.308567 
L 152.267238 55.308567 
L 152.267238 50.596504 
L 152.333453 50.596504 
L 152.532123 50.596504 
L 152.532123 55.308567 
L 152.59834 55.308567 
L 153.06196 55.308567 
L 153.06196 50.596504 
L 153.128168 50.596504 
L 159.420011 50.596504 
L 159.420011 45.884441 
L 159.48631 45.884441 
L 170.281544 45.884441 
L 170.281544 50.596504 
L 170.347782 50.596504 
L 177.699234 50.596504 
L 177.699234 45.884441 
L 177.765467 45.884441 
L 189.090717 45.884441 
L 189.090717 50.596504 
L 189.15688 50.596504 
L 189.620479 50.596504 
L 189.620479 55.308567 
L 189.686708 55.308567 
L 190.41524 55.308567 
L 190.41524 60.02063 
L 190.481468 60.02063 
L 197.832928 60.02063 
L 197.832928 64.732693 
L 197.899139 64.732693 
L 209.224342 64.732693 
L 209.224342 69.444756 
L 209.290628 69.444756 
L 235.716105 69.444756 
L 235.716105 74.156819 
L 235.782319 74.156819 
L 303.005 74.156819 
L 303.005 74.156819 
" style="fill:none;stroke:#666666;stroke-linecap:square;stroke-width:1.5;"/>
   </g>
   <g id="line2d_26">
    <path clip-path="url(#p9dd3209615)" d="M 55.905 196.670456 
L 61.793644 196.670456 
L 61.793644 191.958393 
L 69.613099 191.958393 
L 69.613099 187.24633 
L 69.679315 187.24633 
L 74.911421 187.24633 
L 74.911421 182.534267 
L 74.977649 182.534267 
L 75.441284 182.534267 
L 75.441284 177.822204 
L 75.507518 177.822204 
L 76.236032 177.822204 
L 76.236032 173.110142 
L 76.302297 173.110142 
L 76.500942 173.110142 
L 76.500942 168.398079 
L 76.567197 168.398079 
L 78.090455 168.398079 
L 78.090455 163.686016 
L 78.156691 163.686016 
L 100.873335 163.686016 
L 100.873335 154.26189 
L 100.939543 154.26189 
L 106.966407 154.26189 
L 106.966407 149.549827 
L 107.032627 149.549827 
L 108.290998 149.549827 
L 108.290998 144.837764 
L 108.357218 144.837764 
L 109.085771 144.837764 
L 109.085771 140.125701 
L 109.151994 140.125701 
L 113.059462 140.125701 
L 113.059462 135.413638 
L 113.125693 135.413638 
L 113.324377 135.413638 
L 113.324377 125.989512 
L 113.390611 125.989512 
L 114.119144 125.989512 
L 114.119144 116.565386 
L 114.185399 116.565386 
L 119.94733 116.565386 
L 119.94733 111.853323 
L 120.013592 111.853323 
L 120.742122 111.853323 
L 120.742122 107.14126 
L 120.808293 107.14126 
L 121.536819 107.14126 
L 121.536819 102.429197 
L 121.603058 102.429197 
L 128.159788 102.429197 
L 128.159788 97.717134 
L 128.225955 97.717134 
L 146.43905 97.717134 
L 146.43905 93.005071 
L 146.505252 93.005071 
L 152.532123 93.005071 
L 152.532123 88.293008 
L 152.59834 88.293008 
L 159.420011 88.293008 
L 159.420011 93.005071 
L 159.48631 93.005071 
L 189.885436 93.005071 
L 189.885436 88.293008 
L 189.951692 88.293008 
L 190.150331 88.293008 
L 190.150331 93.005071 
L 190.21657 93.005071 
L 196.773284 93.005071 
L 196.773284 88.293008 
L 196.83952 88.293008 
L 243.398647 88.293008 
L 243.398647 83.580945 
L 243.464931 83.580945 
L 285.785381 83.580945 
L 285.785381 78.868882 
L 285.851677 78.868882 
L 299.296177 78.868882 
L 299.296177 83.580945 
L 299.362368 83.580945 
L 303.005 83.580945 
L 303.005 83.580945 
" style="fill:none;stroke:#1b9e77;stroke-dasharray:4.5,1.5;stroke-dashoffset:0;stroke-width:1.5;"/>
   </g>
   <g id="line2d_27">
    <path clip-path="url(#p9dd3209615)" d="M 55.905 206.094582 
L 68.818348 206.094582 
L 68.818348 201.382519 
L 68.884616 201.382519 
L 75.971117 201.382519 
L 75.971117 191.958393 
L 76.037353 191.958393 
L 100.078556 191.958393 
L 100.078556 187.24633 
L 100.144823 187.24633 
L 100.608402 187.24633 
L 100.608402 182.534267 
L 100.674596 182.534267 
L 101.403168 182.534267 
L 101.403168 177.822204 
L 101.469381 177.822204 
L 106.43656 177.822204 
L 106.43656 173.110142 
L 106.502794 173.110142 
L 106.701472 173.110142 
L 106.701472 163.686016 
L 106.767688 163.686016 
L 106.966407 163.686016 
L 106.966407 158.973953 
L 107.032627 158.973953 
L 107.496195 158.973953 
L 107.496195 154.26189 
L 107.562483 154.26189 
L 107.761165 154.26189 
L 107.761165 144.837764 
L 107.827383 144.837764 
L 108.026084 144.837764 
L 108.026084 135.413638 
L 108.092317 135.413638 
L 109.085771 135.413638 
L 109.085771 130.701575 
L 109.151994 130.701575 
L 109.615589 130.701575 
L 109.615589 125.989512 
L 109.681805 125.989512 
L 109.880457 125.989512 
L 109.880457 130.701575 
L 109.946755 130.701575 
L 112.264738 130.701575 
L 112.264738 135.413638 
L 112.330989 135.413638 
L 112.529627 135.413638 
L 112.529627 140.125701 
L 112.595867 140.125701 
L 112.794552 140.125701 
L 112.794552 135.413638 
L 112.8608 135.413638 
L 113.059462 135.413638 
L 113.059462 140.125701 
L 113.125693 140.125701 
L 113.324377 140.125701 
L 113.324377 135.413638 
L 113.390611 135.413638 
L 113.589321 135.413638 
L 113.589321 130.701575 
L 113.655546 130.701575 
L 114.119144 130.701575 
L 114.119144 135.413638 
L 114.185399 135.413638 
L 120.212256 135.413638 
L 120.212256 130.701575 
L 120.278496 130.701575 
L 120.742122 130.701575 
L 120.742122 125.989512 
L 120.808293 125.989512 
L 126.835198 125.989512 
L 126.835198 121.277449 
L 126.901381 121.277449 
L 128.689595 121.277449 
L 128.689595 116.565386 
L 128.755854 116.565386 
L 145.644291 116.565386 
L 145.644291 111.853323 
L 145.710483 111.853323 
L 145.909204 111.853323 
L 145.909204 107.14126 
L 145.9754 107.14126 
L 146.968846 107.14126 
L 146.968846 102.429197 
L 147.035154 102.429197 
L 159.420011 102.429197 
L 159.420011 97.717134 
L 159.48631 97.717134 
L 160.214693 97.717134 
L 160.214693 93.005071 
L 160.280986 93.005071 
L 173.460588 93.005071 
L 173.460588 88.293008 
L 173.526774 88.293008 
L 179.288735 88.293008 
L 179.288735 93.005071 
L 179.355006 93.005071 
L 189.620479 93.005071 
L 189.620479 97.717134 
L 189.686708 97.717134 
L 235.186258 97.717134 
L 235.186258 93.005071 
L 235.252466 93.005071 
L 279.95726 93.005071 
L 279.95726 88.293008 
L 280.023471 88.293008 
L 284.990665 88.293008 
L 284.990665 83.580945 
L 285.056852 83.580945 
L 303.005 83.580945 
L 303.005 83.580945 
" style="fill:none;stroke:#d95f02;stroke-dasharray:4.5,1.5;stroke-dashoffset:0;stroke-width:1.5;"/>
   </g>
   <g id="line2d_28">
    <path clip-path="url(#p9dd3209615)" d="M 55.905 206.094582 
L 68.288551 206.094582 
L 68.288551 201.382519 
L 68.354785 201.382519 
L 68.553457 201.382519 
L 68.553457 196.670456 
L 68.619689 196.670456 
L 69.613099 196.670456 
L 69.613099 187.24633 
L 69.679315 187.24633 
L 74.646534 187.24633 
L 74.646534 182.534267 
L 74.712754 182.534267 
L 75.971117 182.534267 
L 75.971117 177.822204 
L 76.037353 177.822204 
L 76.236032 177.822204 
L 76.236032 173.110142 
L 76.302297 173.110142 
L 76.500942 173.110142 
L 76.500942 168.398079 
L 76.567197 168.398079 
L 100.608402 168.398079 
L 100.608402 163.686016 
L 100.674596 163.686016 
L 100.873335 163.686016 
L 100.873335 158.973953 
L 100.939543 158.973953 
L 101.138223 158.973953 
L 101.138223 149.549827 
L 101.204448 149.549827 
L 107.761165 149.549827 
L 107.761165 144.837764 
L 107.827383 144.837764 
L 108.026084 144.837764 
L 108.026084 140.125701 
L 108.092317 140.125701 
L 112.529627 140.125701 
L 112.529627 144.837764 
L 112.595867 144.837764 
L 113.324377 144.837764 
L 113.324377 135.413638 
L 113.390611 135.413638 
L 113.589321 135.413638 
L 113.589321 140.125701 
L 113.655546 140.125701 
L 113.854253 140.125701 
L 113.854253 135.413638 
L 113.920485 135.413638 
L 114.384095 135.413638 
L 114.384095 125.989512 
L 114.450334 125.989512 
L 114.648974 125.989512 
L 114.648974 121.277449 
L 114.715204 121.277449 
L 127.10007 121.277449 
L 127.10007 116.565386 
L 127.166333 116.565386 
L 127.894867 116.565386 
L 127.894867 111.853323 
L 127.961109 111.853323 
L 140.610846 111.853323 
L 140.610846 107.14126 
L 140.677106 107.14126 
L 164.718297 107.14126 
L 164.718297 102.429197 
L 164.78455 102.429197 
L 165.777964 102.429197 
L 165.777964 97.717134 
L 165.844214 97.717134 
L 171.076346 97.717134 
L 171.076346 93.005071 
L 171.142544 93.005071 
L 192.004803 93.005071 
L 192.004803 88.293008 
L 192.071017 88.293008 
L 303.005 88.293008 
L 303.005 88.293008 
" style="fill:none;stroke:#7570b3;stroke-dasharray:4.5,1.5;stroke-dashoffset:0;stroke-width:1.5;"/>
   </g>
   <g id="line2d_29">
    <path clip-path="url(#p9dd3209615)" d="M 55.905 210.806645 
L 62.725516 210.806645 
L 62.725516 206.094582 
L 62.791502 206.094582 
L 63.255132 206.094582 
L 63.255132 201.382519 
L 63.321332 201.382519 
L 69.348179 201.382519 
L 69.348179 196.670456 
L 69.414428 196.670456 
L 76.236032 196.670456 
L 76.236032 191.958393 
L 76.302297 191.958393 
L 80.474714 191.958393 
L 80.474714 187.24633 
L 80.541002 187.24633 
L 81.799272 187.24633 
L 81.799272 182.534267 
L 81.865512 182.534267 
L 82.329129 182.534267 
L 82.329129 177.822204 
L 82.395373 177.822204 
L 100.078556 177.822204 
L 100.078556 168.398079 
L 100.144823 168.398079 
L 100.608402 168.398079 
L 100.608402 163.686016 
L 100.674596 163.686016 
L 100.873335 163.686016 
L 100.873335 158.973953 
L 100.939543 158.973953 
L 101.138223 158.973953 
L 101.138223 154.26189 
L 101.204448 154.26189 
L 101.403168 154.26189 
L 101.403168 144.837764 
L 101.469381 144.837764 
L 101.668089 144.837764 
L 101.668089 140.125701 
L 101.734308 140.125701 
L 102.197917 140.125701 
L 102.197917 135.413638 
L 102.264131 135.413638 
L 102.727774 135.413638 
L 102.727774 130.701575 
L 102.793922 130.701575 
L 103.522453 130.701575 
L 103.522453 125.989512 
L 103.588684 125.989512 
L 106.43656 125.989512 
L 106.43656 121.277449 
L 106.502794 121.277449 
L 106.701472 121.277449 
L 106.701472 116.565386 
L 106.767688 116.565386 
L 106.966407 116.565386 
L 106.966407 102.429197 
L 107.032627 102.429197 
L 107.231307 102.429197 
L 107.231307 97.717134 
L 107.297543 97.717134 
L 107.496195 97.717134 
L 107.496195 93.005071 
L 107.562483 93.005071 
L 109.880457 93.005071 
L 109.880457 97.717134 
L 109.946755 97.717134 
L 113.324377 97.717134 
L 113.324377 93.005071 
L 113.390611 93.005071 
L 113.589321 93.005071 
L 113.589321 97.717134 
L 113.655546 97.717134 
L 113.854253 97.717134 
L 113.854253 93.005071 
L 113.920485 93.005071 
L 121.271963 93.005071 
L 121.271963 97.717134 
L 121.338131 97.717134 
L 121.536819 97.717134 
L 121.536819 93.005071 
L 121.603058 93.005071 
L 303.005 93.005071 
L 303.005 93.005071 
" style="fill:none;stroke:#e7298a;stroke-dasharray:4.5,1.5;stroke-dashoffset:0;stroke-width:1.5;"/>
   </g>
   <g id="line2d_30">
    <path clip-path="url(#p9dd3209615)" d="M 55.905 210.806645 
L 63.784903 210.806645 
L 63.784903 206.094582 
L 63.851162 206.094582 
L 64.844624 206.094582 
L 64.844624 201.382519 
L 64.910815 201.382519 
L 81.534402 201.382519 
L 81.534402 196.670456 
L 81.600589 196.670456 
L 100.078556 196.670456 
L 100.078556 191.958393 
L 100.144823 191.958393 
L 101.932966 191.958393 
L 101.932966 182.534267 
L 101.999182 182.534267 
L 106.966407 182.534267 
L 106.966407 177.822204 
L 107.032627 177.822204 
L 107.231307 177.822204 
L 107.231307 173.110142 
L 107.297543 173.110142 
L 108.026084 173.110142 
L 108.026084 163.686016 
L 108.092317 163.686016 
L 108.290998 163.686016 
L 108.290998 158.973953 
L 108.357218 158.973953 
L 109.880457 158.973953 
L 109.880457 154.26189 
L 109.946755 154.26189 
L 113.059462 154.26189 
L 113.059462 158.973953 
L 113.125693 158.973953 
L 113.589321 158.973953 
L 113.589321 154.26189 
L 113.655546 154.26189 
L 113.854253 154.26189 
L 113.854253 149.549827 
L 113.920485 149.549827 
L 114.384095 149.549827 
L 114.384095 144.837764 
L 114.450334 144.837764 
L 114.648974 144.837764 
L 114.648974 149.549827 
L 114.715204 149.549827 
L 114.913926 149.549827 
L 114.913926 144.837764 
L 114.980153 144.837764 
L 119.417478 144.837764 
L 119.417478 140.125701 
L 119.483726 140.125701 
L 127.894867 140.125701 
L 127.894867 135.413638 
L 127.961109 135.413638 
L 145.644291 135.413638 
L 145.644291 130.701575 
L 145.710483 130.701575 
L 170.811392 130.701575 
L 170.811392 125.989512 
L 170.877668 125.989512 
L 202.336546 125.989512 
L 202.336546 121.277449 
L 202.402745 121.277449 
L 235.716105 121.277449 
L 235.716105 116.565386 
L 235.782319 116.565386 
L 297.706666 116.565386 
L 297.706666 111.853323 
L 303.005 111.853323 
L 303.005 111.853323 
" style="fill:none;stroke:#66a61e;stroke-dasharray:4.5,1.5;stroke-dashoffset:0;stroke-width:1.5;"/>
   </g>
   <g id="line2d_31">
    <path clip-path="url(#p9dd3209615)" d="M 174.851376 210.806645 
L 177.169381 210.806645 
L 177.169381 206.094582 
L 177.235658 206.094582 
L 185.116948 206.094582 
L 185.116948 201.382519 
L 185.183156 201.382519 
L 189.090717 201.382519 
L 189.090717 182.534267 
L 189.15688 182.534267 
L 189.620479 182.534267 
L 189.620479 173.110142 
L 189.686708 173.110142 
L 190.150331 173.110142 
L 190.150331 158.973953 
L 190.21657 158.973953 
L 190.680157 158.973953 
L 190.680157 154.26189 
L 190.746441 154.26189 
L 195.978553 154.26189 
L 195.978553 149.549827 
L 196.044741 149.549827 
L 197.303122 149.549827 
L 197.303122 144.837764 
L 197.36931 144.837764 
L 197.832928 144.837764 
L 197.832928 140.125701 
L 197.899139 140.125701 
L 198.362765 140.125701 
L 198.362765 135.413638 
L 198.429027 135.413638 
L 198.627691 135.413638 
L 198.627691 130.701575 
L 198.693877 130.701575 
L 202.336546 130.701575 
L 202.336546 125.989512 
L 202.402745 125.989512 
L 204.720756 125.989512 
L 204.720756 121.277449 
L 204.787031 121.277449 
L 209.224342 121.277449 
L 209.224342 116.565386 
L 209.290628 116.565386 
L 290.288956 116.565386 
L 290.288956 121.277449 
L 290.355219 121.277449 
L 291.613526 121.277449 
L 291.613526 116.565386 
L 291.679779 116.565386 
L 303.005 116.565386 
L 303.005 116.565386 
" style="fill:none;stroke:#e6ab02;stroke-dasharray:4.5,1.5;stroke-dashoffset:0;stroke-width:1.5;"/>
   </g>
   <g id="line2d_32">
    <path clip-path="url(#p9dd3209615)" d="M 55.905 206.094582 
L 69.083264 206.094582 
L 69.083264 196.670456 
L 69.149466 196.670456 
L 74.911421 196.670456 
L 74.911421 187.24633 
L 74.977649 187.24633 
L 75.176325 187.24633 
L 75.176325 182.534267 
L 75.242559 182.534267 
L 76.236032 182.534267 
L 76.236032 177.822204 
L 76.302297 177.822204 
L 76.500942 177.822204 
L 76.500942 173.110142 
L 76.567197 173.110142 
L 101.138223 173.110142 
L 101.138223 168.398079 
L 101.204448 168.398079 
L 101.403168 168.398079 
L 101.403168 163.686016 
L 101.469381 163.686016 
L 101.668089 163.686016 
L 101.668089 158.973953 
L 101.734308 158.973953 
L 102.462782 158.973953 
L 102.462782 154.26189 
L 102.52907 154.26189 
L 102.727774 154.26189 
L 102.727774 158.973953 
L 102.793922 158.973953 
L 106.43656 158.973953 
L 106.43656 140.125701 
L 106.502794 140.125701 
L 106.966407 140.125701 
L 106.966407 130.701575 
L 107.032627 130.701575 
L 107.231307 130.701575 
L 107.231307 125.989512 
L 107.297543 125.989512 
L 107.496195 125.989512 
L 107.496195 116.565386 
L 107.562483 116.565386 
L 303.005 116.565386 
L 303.005 116.565386 
" style="fill:none;stroke:#a6761d;stroke-dasharray:4.5,1.5;stroke-dashoffset:0;stroke-width:1.5;"/>
   </g>
   <g id="line2d_33">
    <path clip-path="url(#p9dd3209615)" d="M 55.905 210.806645 
L 69.613099 210.806645 
L 69.613099 206.094582 
L 69.679315 206.094582 
L 69.878056 206.094582 
L 69.878056 201.382519 
L 69.944268 201.382519 
L 75.176325 201.382519 
L 75.176325 196.670456 
L 75.242559 196.670456 
L 76.500942 196.670456 
L 76.500942 191.958393 
L 76.567197 191.958393 
L 77.030776 191.958393 
L 77.030776 187.24633 
L 77.097019 187.24633 
L 77.560637 187.24633 
L 77.560637 182.534267 
L 77.626871 182.534267 
L 81.534402 182.534267 
L 81.534402 187.24633 
L 81.600589 187.24633 
L 100.343511 187.24633 
L 100.343511 182.534267 
L 100.409674 182.534267 
L 101.932966 182.534267 
L 101.932966 173.110142 
L 101.999182 173.110142 
L 106.701472 173.110142 
L 106.701472 168.398079 
L 106.767688 168.398079 
L 107.761165 168.398079 
L 107.761165 149.549827 
L 107.827383 149.549827 
L 108.026084 149.549827 
L 108.026084 144.837764 
L 108.092317 144.837764 
L 108.290998 144.837764 
L 108.290998 140.125701 
L 108.357218 140.125701 
L 189.620479 140.125701 
L 189.620479 144.837764 
L 189.686708 144.837764 
L 189.885436 144.837764 
L 189.885436 140.125701 
L 189.951692 140.125701 
L 303.005 140.125701 
L 303.005 140.125701 
" style="fill:none;stroke:#666666;stroke-dasharray:4.5,1.5;stroke-dashoffset:0;stroke-width:1.5;"/>
   </g>
   <g id="line2d_34"/>
   <g id="line2d_35"/>
   <g id="line2d_36"/>
   <g id="line2d_37"/>
   <g id="line2d_38"/>
   <g id="line2d_39"/>
   <g id="line2d_40"/>
   <g id="line2d_41"/>
   <g id="line2d_42"/>
   <g id="line2d_43"/>
   <g id="line2d_44"/>
   <g id="line2d_45"/>
   <g id="line2d_46"/>
   <g id="line2d_47"/>
   <g id="line2d_48"/>
   <g id="line2d_49"/>
   <g id="line2d_50"/>
   <g id="patch_3">
    <path d="M 43.55 220.230771 
L 43.55 12.9 
" style="fill:none;stroke:#000000;stroke-linecap:square;stroke-linejoin:miter;stroke-width:0.8;"/>
   </g>
   <g id="patch_4">
    <path d="M 315.36 220.230771 
L 315.36 12.9 
" style="fill:none;stroke:#000000;stroke-linecap:square;stroke-linejoin:miter;stroke-width:0.8;"/>
   </g>
   <g id="patch_5">
    <path d="M 43.55 220.230771 
L 315.36 220.230771 
" style="fill:none;stroke:#000000;stroke-linecap:square;stroke-linejoin:miter;stroke-width:0.8;"/>
   </g>
   <g id="patch_6">
    <path d="M 43.55 12.9 
L 315.36 12.9 
" style="fill:none;stroke:#000000;stroke-linecap:square;stroke-linejoin:miter;stroke-width:0.8;"/>
   </g>
  </g>
  <g id="legend_1">
   <g id="patch_7">
    <path d="M 331.8625 262.528125 
L 420 262.528125 
Q 422 262.528125 422 260.528125 
L 422 12 
Q 422 10 420 10 
L 331.8625 10 
Q 329.8625 10 329.8625 12 
L 329.8625 260.528125 
Q 329.8625 262.528125 331.8625 262.528125 
z
" style="fill:#ffffff;opacity:0.8;stroke:#cccccc;stroke-linejoin:miter;"/>
   </g>
   <g id="text_20">
    <!-- 484/610 Reg. -->
    <defs>
     <path d="M 25.390625 72.90625 
L 33.6875 72.90625 
L 8.296875 -9.28125 
L 0 -9.28125 
z
" id="DejaVuSans-47"/>
     <path d="M 33.015625 40.375 
Q 26.375 40.375 22.484375 35.828125 
Q 18.609375 31.296875 18.609375 23.390625 
Q 18.609375 15.53125 22.484375 10.953125 
Q 26.375 6.390625 33.015625 6.390625 
Q 39.65625 6.390625 43.53125 10.953125 
Q 47.40625 15.53125 47.40625 23.390625 
Q 47.40625 31.296875 43.53125 35.828125 
Q 39.65625 40.375 33.015625 40.375 
z
M 52.59375 71.296875 
L 52.59375 62.3125 
Q 48.875 64.0625 45.09375 64.984375 
Q 41.3125 65.921875 37.59375 65.921875 
Q 27.828125 65.921875 22.671875 59.328125 
Q 17.53125 52.734375 16.796875 39.40625 
Q 19.671875 43.65625 24.015625 45.921875 
Q 28.375 48.1875 33.59375 48.1875 
Q 44.578125 48.1875 50.953125 41.515625 
Q 57.328125 34.859375 57.328125 23.390625 
Q 57.328125 12.15625 50.6875 5.359375 
Q 44.046875 -1.421875 33.015625 -1.421875 
Q 20.359375 -1.421875 13.671875 8.265625 
Q 6.984375 17.96875 6.984375 36.375 
Q 6.984375 53.65625 15.1875 63.9375 
Q 23.390625 74.21875 37.203125 74.21875 
Q 40.921875 74.21875 44.703125 73.484375 
Q 48.484375 72.75 52.59375 71.296875 
z
" id="DejaVuSans-54"/>
     <path d="M 10.6875 12.40625 
L 21 12.40625 
L 21 0 
L 10.6875 0 
z
" id="DejaVuSans-46"/>
    </defs>
    <g transform="translate(342.259375 21.598437)scale(0.1 -0.1)">
     <use xlink:href="#DejaVuSans-52"/>
     <use x="63.623047" xlink:href="#DejaVuSans-56"/>
     <use x="127.246094" xlink:href="#DejaVuSans-52"/>
     <use x="190.869141" xlink:href="#DejaVuSans-47"/>
     <use x="224.560547" xlink:href="#DejaVuSans-54"/>
     <use x="288.183594" xlink:href="#DejaVuSans-49"/>
     <use x="351.806641" xlink:href="#DejaVuSans-48"/>
     <use x="415.429688" xlink:href="#DejaVuSans-32"/>
     <use x="447.216797" xlink:href="#DejaVuSans-82"/>
     <use x="516.636719" xlink:href="#DejaVuSans-101"/>
     <use x="578.160156" xlink:href="#DejaVuSans-103"/>
     <use x="641.636719" xlink:href="#DejaVuSans-46"/>
    </g>
   </g>
   <g id="line2d_51">
    <path d="M 333.8625 32.776562 
L 353.8625 32.776562 
" style="fill:none;stroke:#1b9e77;stroke-linecap:square;stroke-width:1.5;"/>
   </g>
   <g id="line2d_52"/>
   <g id="text_21">
    <!-- SA (40) -->
    <defs>
     <path d="M 34.1875 63.1875 
L 20.796875 26.90625 
L 47.609375 26.90625 
z
M 28.609375 72.90625 
L 39.796875 72.90625 
L 67.578125 0 
L 57.328125 0 
L 50.6875 18.703125 
L 17.828125 18.703125 
L 11.1875 0 
L 0.78125 0 
z
" id="DejaVuSans-65"/>
     <path d="M 31 75.875 
Q 24.46875 64.65625 21.28125 53.65625 
Q 18.109375 42.671875 18.109375 31.390625 
Q 18.109375 20.125 21.3125 9.0625 
Q 24.515625 -2 31 -13.1875 
L 23.1875 -13.1875 
Q 15.875 -1.703125 12.234375 9.375 
Q 8.59375 20.453125 8.59375 31.390625 
Q 8.59375 42.28125 12.203125 53.3125 
Q 15.828125 64.359375 23.1875 75.875 
z
" id="DejaVuSans-40"/>
     <path d="M 8.015625 75.875 
L 15.828125 75.875 
Q 23.140625 64.359375 26.78125 53.3125 
Q 30.421875 42.28125 30.421875 31.390625 
Q 30.421875 20.453125 26.78125 9.375 
Q 23.140625 -1.703125 15.828125 -13.1875 
L 8.015625 -13.1875 
Q 14.5 -2 17.703125 9.0625 
Q 20.90625 20.125 20.90625 31.390625 
Q 20.90625 42.671875 17.703125 53.65625 
Q 14.5 64.65625 8.015625 75.875 
z
" id="DejaVuSans-41"/>
    </defs>
    <g transform="translate(361.8625 36.276562)scale(0.1 -0.1)">
     <use xlink:href="#DejaVuSans-83"/>
     <use x="63.492188" xlink:href="#DejaVuSans-65"/>
     <use x="131.900391" xlink:href="#DejaVuSans-32"/>
     <use x="163.6875" xlink:href="#DejaVuSans-40"/>
     <use x="202.701172" xlink:href="#DejaVuSans-52"/>
     <use x="266.324219" xlink:href="#DejaVuSans-48"/>
     <use x="329.947266" xlink:href="#DejaVuSans-41"/>
    </g>
   </g>
   <g id="line2d_53">
    <path d="M 333.8625 47.454688 
L 353.8625 47.454688 
" style="fill:none;stroke:#d95f02;stroke-linecap:square;stroke-width:1.5;"/>
   </g>
   <g id="line2d_54"/>
   <g id="text_22">
    <!-- AUS (40) -->
    <defs>
     <path d="M 8.6875 72.90625 
L 18.609375 72.90625 
L 18.609375 28.609375 
Q 18.609375 16.890625 22.84375 11.734375 
Q 27.09375 6.59375 36.625 6.59375 
Q 46.09375 6.59375 50.34375 11.734375 
Q 54.59375 16.890625 54.59375 28.609375 
L 54.59375 72.90625 
L 64.5 72.90625 
L 64.5 27.390625 
Q 64.5 13.140625 57.4375 5.859375 
Q 50.390625 -1.421875 36.625 -1.421875 
Q 22.796875 -1.421875 15.734375 5.859375 
Q 8.6875 13.140625 8.6875 27.390625 
z
" id="DejaVuSans-85"/>
    </defs>
    <g transform="translate(361.8625 50.954688)scale(0.1 -0.1)">
     <use xlink:href="#DejaVuSans-65"/>
     <use x="68.408203" xlink:href="#DejaVuSans-85"/>
     <use x="141.601562" xlink:href="#DejaVuSans-83"/>
     <use x="205.078125" xlink:href="#DejaVuSans-32"/>
     <use x="236.865234" xlink:href="#DejaVuSans-40"/>
     <use x="275.878906" xlink:href="#DejaVuSans-52"/>
     <use x="339.501953" xlink:href="#DejaVuSans-48"/>
     <use x="403.125" xlink:href="#DejaVuSans-41"/>
    </g>
   </g>
   <g id="line2d_55">
    <path d="M 333.8625 62.132812 
L 353.8625 62.132812 
" style="fill:none;stroke:#7570b3;stroke-linecap:square;stroke-width:1.5;"/>
   </g>
   <g id="line2d_56"/>
   <g id="text_23">
    <!-- COML (40) -->
    <defs>
     <path d="M 64.40625 67.28125 
L 64.40625 56.890625 
Q 59.421875 61.53125 53.78125 63.8125 
Q 48.140625 66.109375 41.796875 66.109375 
Q 29.296875 66.109375 22.65625 58.46875 
Q 16.015625 50.828125 16.015625 36.375 
Q 16.015625 21.96875 22.65625 14.328125 
Q 29.296875 6.6875 41.796875 6.6875 
Q 48.140625 6.6875 53.78125 8.984375 
Q 59.421875 11.28125 64.40625 15.921875 
L 64.40625 5.609375 
Q 59.234375 2.09375 53.4375 0.328125 
Q 47.65625 -1.421875 41.21875 -1.421875 
Q 24.65625 -1.421875 15.125 8.703125 
Q 5.609375 18.84375 5.609375 36.375 
Q 5.609375 53.953125 15.125 64.078125 
Q 24.65625 74.21875 41.21875 74.21875 
Q 47.75 74.21875 53.53125 72.484375 
Q 59.328125 70.75 64.40625 67.28125 
z
" id="DejaVuSans-67"/>
     <path d="M 39.40625 66.21875 
Q 28.65625 66.21875 22.328125 58.203125 
Q 16.015625 50.203125 16.015625 36.375 
Q 16.015625 22.609375 22.328125 14.59375 
Q 28.65625 6.59375 39.40625 6.59375 
Q 50.140625 6.59375 56.421875 14.59375 
Q 62.703125 22.609375 62.703125 36.375 
Q 62.703125 50.203125 56.421875 58.203125 
Q 50.140625 66.21875 39.40625 66.21875 
z
M 39.40625 74.21875 
Q 54.734375 74.21875 63.90625 63.9375 
Q 73.09375 53.65625 73.09375 36.375 
Q 73.09375 19.140625 63.90625 8.859375 
Q 54.734375 -1.421875 39.40625 -1.421875 
Q 24.03125 -1.421875 14.8125 8.828125 
Q 5.609375 19.09375 5.609375 36.375 
Q 5.609375 53.65625 14.8125 63.9375 
Q 24.03125 74.21875 39.40625 74.21875 
z
" id="DejaVuSans-79"/>
     <path d="M 9.8125 72.90625 
L 24.515625 72.90625 
L 43.109375 23.296875 
L 61.8125 72.90625 
L 76.515625 72.90625 
L 76.515625 0 
L 66.890625 0 
L 66.890625 64.015625 
L 48.09375 14.015625 
L 38.1875 14.015625 
L 19.390625 64.015625 
L 19.390625 0 
L 9.8125 0 
z
" id="DejaVuSans-77"/>
     <path d="M 9.8125 72.90625 
L 19.671875 72.90625 
L 19.671875 8.296875 
L 55.171875 8.296875 
L 55.171875 0 
L 9.8125 0 
z
" id="DejaVuSans-76"/>
    </defs>
    <g transform="translate(361.8625 65.632812)scale(0.1 -0.1)">
     <use xlink:href="#DejaVuSans-67"/>
     <use x="69.824219" xlink:href="#DejaVuSans-79"/>
     <use x="148.535156" xlink:href="#DejaVuSans-77"/>
     <use x="234.814453" xlink:href="#DejaVuSans-76"/>
     <use x="290.527344" xlink:href="#DejaVuSans-32"/>
     <use x="322.314453" xlink:href="#DejaVuSans-40"/>
     <use x="361.328125" xlink:href="#DejaVuSans-52"/>
     <use x="424.951172" xlink:href="#DejaVuSans-48"/>
     <use x="488.574219" xlink:href="#DejaVuSans-41"/>
    </g>
   </g>
   <g id="line2d_57">
    <path d="M 333.8625 76.810937 
L 353.8625 76.810937 
" style="fill:none;stroke:#e7298a;stroke-linecap:square;stroke-width:1.5;"/>
   </g>
   <g id="line2d_58"/>
   <g id="text_24">
    <!-- GDD (40) -->
    <defs>
     <path d="M 59.515625 10.40625 
L 59.515625 29.984375 
L 43.40625 29.984375 
L 43.40625 38.09375 
L 69.28125 38.09375 
L 69.28125 6.78125 
Q 63.578125 2.734375 56.6875 0.65625 
Q 49.8125 -1.421875 42 -1.421875 
Q 24.90625 -1.421875 15.25 8.5625 
Q 5.609375 18.5625 5.609375 36.375 
Q 5.609375 54.25 15.25 64.234375 
Q 24.90625 74.21875 42 74.21875 
Q 49.125 74.21875 55.546875 72.453125 
Q 61.96875 70.703125 67.390625 67.28125 
L 67.390625 56.78125 
Q 61.921875 61.421875 55.765625 63.765625 
Q 49.609375 66.109375 42.828125 66.109375 
Q 29.4375 66.109375 22.71875 58.640625 
Q 16.015625 51.171875 16.015625 36.375 
Q 16.015625 21.625 22.71875 14.15625 
Q 29.4375 6.6875 42.828125 6.6875 
Q 48.046875 6.6875 52.140625 7.59375 
Q 56.25 8.5 59.515625 10.40625 
z
" id="DejaVuSans-71"/>
    </defs>
    <g transform="translate(361.8625 80.310937)scale(0.1 -0.1)">
     <use xlink:href="#DejaVuSans-71"/>
     <use x="77.490234" xlink:href="#DejaVuSans-68"/>
     <use x="154.492188" xlink:href="#DejaVuSans-68"/>
     <use x="231.494141" xlink:href="#DejaVuSans-32"/>
     <use x="263.28125" xlink:href="#DejaVuSans-40"/>
     <use x="302.294922" xlink:href="#DejaVuSans-52"/>
     <use x="365.917969" xlink:href="#DejaVuSans-48"/>
     <use x="429.541016" xlink:href="#DejaVuSans-41"/>
    </g>
   </g>
   <g id="line2d_59">
    <path d="M 333.8625 91.489062 
L 353.8625 91.489062 
" style="fill:none;stroke:#66a61e;stroke-linecap:square;stroke-width:1.5;"/>
   </g>
   <g id="line2d_60"/>
   <g id="text_25">
    <!-- AS (38) -->
    <g transform="translate(361.8625 94.989062)scale(0.1 -0.1)">
     <use xlink:href="#DejaVuSans-65"/>
     <use x="68.408203" xlink:href="#DejaVuSans-83"/>
     <use x="131.884766" xlink:href="#DejaVuSans-32"/>
     <use x="163.671875" xlink:href="#DejaVuSans-40"/>
     <use x="202.685547" xlink:href="#DejaVuSans-51"/>
     <use x="266.308594" xlink:href="#DejaVuSans-56"/>
     <use x="329.931641" xlink:href="#DejaVuSans-41"/>
    </g>
   </g>
   <g id="line2d_61">
    <path d="M 333.8625 106.167188 
L 353.8625 106.167188 
" style="fill:none;stroke:#e6ab02;stroke-linecap:square;stroke-width:1.5;"/>
   </g>
   <g id="line2d_62"/>
   <g id="text_26">
    <!-- MD (38) -->
    <g transform="translate(361.8625 109.667188)scale(0.1 -0.1)">
     <use xlink:href="#DejaVuSans-77"/>
     <use x="86.279297" xlink:href="#DejaVuSans-68"/>
     <use x="163.28125" xlink:href="#DejaVuSans-32"/>
     <use x="195.068359" xlink:href="#DejaVuSans-40"/>
     <use x="234.082031" xlink:href="#DejaVuSans-51"/>
     <use x="297.705078" xlink:href="#DejaVuSans-56"/>
     <use x="361.328125" xlink:href="#DejaVuSans-41"/>
    </g>
   </g>
   <g id="line2d_63">
    <path d="M 333.8625 120.845312 
L 353.8625 120.845312 
" style="fill:none;stroke:#a6761d;stroke-linecap:square;stroke-width:1.5;"/>
   </g>
   <g id="line2d_64"/>
   <g id="text_27">
    <!-- HPI (38) -->
    <defs>
     <path d="M 9.8125 72.90625 
L 19.671875 72.90625 
L 19.671875 43.015625 
L 55.515625 43.015625 
L 55.515625 72.90625 
L 65.375 72.90625 
L 65.375 0 
L 55.515625 0 
L 55.515625 34.71875 
L 19.671875 34.71875 
L 19.671875 0 
L 9.8125 0 
z
" id="DejaVuSans-72"/>
     <path d="M 19.671875 64.796875 
L 19.671875 37.40625 
L 32.078125 37.40625 
Q 38.96875 37.40625 42.71875 40.96875 
Q 46.484375 44.53125 46.484375 51.125 
Q 46.484375 57.671875 42.71875 61.234375 
Q 38.96875 64.796875 32.078125 64.796875 
z
M 9.8125 72.90625 
L 32.078125 72.90625 
Q 44.34375 72.90625 50.609375 67.359375 
Q 56.890625 61.8125 56.890625 51.125 
Q 56.890625 40.328125 50.609375 34.8125 
Q 44.34375 29.296875 32.078125 29.296875 
L 19.671875 29.296875 
L 19.671875 0 
L 9.8125 0 
z
" id="DejaVuSans-80"/>
     <path d="M 9.8125 72.90625 
L 19.671875 72.90625 
L 19.671875 0 
L 9.8125 0 
z
" id="DejaVuSans-73"/>
    </defs>
    <g transform="translate(361.8625 124.345312)scale(0.1 -0.1)">
     <use xlink:href="#DejaVuSans-72"/>
     <use x="75.195312" xlink:href="#DejaVuSans-80"/>
     <use x="135.498047" xlink:href="#DejaVuSans-73"/>
     <use x="164.990234" xlink:href="#DejaVuSans-32"/>
     <use x="196.777344" xlink:href="#DejaVuSans-40"/>
     <use x="235.791016" xlink:href="#DejaVuSans-51"/>
     <use x="299.414062" xlink:href="#DejaVuSans-56"/>
     <use x="363.037109" xlink:href="#DejaVuSans-41"/>
    </g>
   </g>
   <g id="line2d_65">
    <path d="M 333.8625 135.523438 
L 353.8625 135.523438 
" style="fill:none;stroke:#666666;stroke-linecap:square;stroke-width:1.5;"/>
   </g>
   <g id="line2d_66"/>
   <g id="text_28">
    <!-- FIT (29) -->
    <defs>
     <path d="M 9.8125 72.90625 
L 51.703125 72.90625 
L 51.703125 64.59375 
L 19.671875 64.59375 
L 19.671875 43.109375 
L 48.578125 43.109375 
L 48.578125 34.8125 
L 19.671875 34.8125 
L 19.671875 0 
L 9.8125 0 
z
" id="DejaVuSans-70"/>
     <path d="M -0.296875 72.90625 
L 61.375 72.90625 
L 61.375 64.59375 
L 35.5 64.59375 
L 35.5 0 
L 25.59375 0 
L 25.59375 64.59375 
L -0.296875 64.59375 
z
" id="DejaVuSans-84"/>
    </defs>
    <g transform="translate(361.8625 139.023438)scale(0.1 -0.1)">
     <use xlink:href="#DejaVuSans-70"/>
     <use x="57.519531" xlink:href="#DejaVuSans-73"/>
     <use x="87.011719" xlink:href="#DejaVuSans-84"/>
     <use x="148.095703" xlink:href="#DejaVuSans-32"/>
     <use x="179.882812" xlink:href="#DejaVuSans-40"/>
     <use x="218.896484" xlink:href="#DejaVuSans-50"/>
     <use x="282.519531" xlink:href="#DejaVuSans-57"/>
     <use x="346.142578" xlink:href="#DejaVuSans-41"/>
    </g>
   </g>
   <g id="line2d_67">
    <path d="M 333.8625 150.201562 
L 353.8625 150.201562 
" style="fill:none;stroke:#1b9e77;stroke-dasharray:4.5,1.5;stroke-dashoffset:0;stroke-width:1.5;"/>
   </g>
   <g id="line2d_68"/>
   <g id="text_29">
    <!-- TBI (27) -->
    <defs>
     <path d="M 19.671875 34.8125 
L 19.671875 8.109375 
L 35.5 8.109375 
Q 43.453125 8.109375 47.28125 11.40625 
Q 51.125 14.703125 51.125 21.484375 
Q 51.125 28.328125 47.28125 31.5625 
Q 43.453125 34.8125 35.5 34.8125 
z
M 19.671875 64.796875 
L 19.671875 42.828125 
L 34.28125 42.828125 
Q 41.5 42.828125 45.03125 45.53125 
Q 48.578125 48.25 48.578125 53.8125 
Q 48.578125 59.328125 45.03125 62.0625 
Q 41.5 64.796875 34.28125 64.796875 
z
M 9.8125 72.90625 
L 35.015625 72.90625 
Q 46.296875 72.90625 52.390625 68.21875 
Q 58.5 63.53125 58.5 54.890625 
Q 58.5 48.1875 55.375 44.234375 
Q 52.25 40.28125 46.1875 39.3125 
Q 53.46875 37.75 57.5 32.78125 
Q 61.53125 27.828125 61.53125 20.40625 
Q 61.53125 10.640625 54.890625 5.3125 
Q 48.25 0 35.984375 0 
L 9.8125 0 
z
" id="DejaVuSans-66"/>
     <path d="M 8.203125 72.90625 
L 55.078125 72.90625 
L 55.078125 68.703125 
L 28.609375 0 
L 18.3125 0 
L 43.21875 64.59375 
L 8.203125 64.59375 
z
" id="DejaVuSans-55"/>
    </defs>
    <g transform="translate(361.8625 153.701562)scale(0.1 -0.1)">
     <use xlink:href="#DejaVuSans-84"/>
     <use x="61.083984" xlink:href="#DejaVuSans-66"/>
     <use x="129.6875" xlink:href="#DejaVuSans-73"/>
     <use x="159.179688" xlink:href="#DejaVuSans-32"/>
     <use x="190.966797" xlink:href="#DejaVuSans-40"/>
     <use x="229.980469" xlink:href="#DejaVuSans-50"/>
     <use x="293.603516" xlink:href="#DejaVuSans-55"/>
     <use x="357.226562" xlink:href="#DejaVuSans-41"/>
    </g>
   </g>
   <g id="line2d_69">
    <path d="M 333.8625 164.879687 
L 353.8625 164.879687 
" style="fill:none;stroke:#d95f02;stroke-dasharray:4.5,1.5;stroke-dashoffset:0;stroke-width:1.5;"/>
   </g>
   <g id="line2d_70"/>
   <g id="text_30">
    <!-- SPD (27) -->
    <g transform="translate(361.8625 168.379687)scale(0.1 -0.1)">
     <use xlink:href="#DejaVuSans-83"/>
     <use x="63.476562" xlink:href="#DejaVuSans-80"/>
     <use x="123.779297" xlink:href="#DejaVuSans-68"/>
     <use x="200.78125" xlink:href="#DejaVuSans-32"/>
     <use x="232.568359" xlink:href="#DejaVuSans-40"/>
     <use x="271.582031" xlink:href="#DejaVuSans-50"/>
     <use x="335.205078" xlink:href="#DejaVuSans-55"/>
     <use x="398.828125" xlink:href="#DejaVuSans-41"/>
    </g>
   </g>
   <g id="line2d_71">
    <path d="M 333.8625 179.557812 
L 353.8625 179.557812 
" style="fill:none;stroke:#7570b3;stroke-dasharray:4.5,1.5;stroke-dashoffset:0;stroke-width:1.5;"/>
   </g>
   <g id="line2d_72"/>
   <g id="text_31">
    <!-- BP (26) -->
    <g transform="translate(361.8625 183.057812)scale(0.1 -0.1)">
     <use xlink:href="#DejaVuSans-66"/>
     <use x="68.603516" xlink:href="#DejaVuSans-80"/>
     <use x="128.90625" xlink:href="#DejaVuSans-32"/>
     <use x="160.693359" xlink:href="#DejaVuSans-40"/>
     <use x="199.707031" xlink:href="#DejaVuSans-50"/>
     <use x="263.330078" xlink:href="#DejaVuSans-54"/>
     <use x="326.953125" xlink:href="#DejaVuSans-41"/>
    </g>
   </g>
   <g id="line2d_73">
    <path d="M 333.8625 194.235937 
L 353.8625 194.235937 
" style="fill:none;stroke:#e7298a;stroke-dasharray:4.5,1.5;stroke-dashoffset:0;stroke-width:1.5;"/>
   </g>
   <g id="line2d_74"/>
   <g id="text_32">
    <!-- CC (25) -->
    <g transform="translate(361.8625 197.735937)scale(0.1 -0.1)">
     <use xlink:href="#DejaVuSans-67"/>
     <use x="69.824219" xlink:href="#DejaVuSans-67"/>
     <use x="139.648438" xlink:href="#DejaVuSans-32"/>
     <use x="171.435547" xlink:href="#DejaVuSans-40"/>
     <use x="210.449219" xlink:href="#DejaVuSans-50"/>
     <use x="274.072266" xlink:href="#DejaVuSans-53"/>
     <use x="337.695312" xlink:href="#DejaVuSans-41"/>
    </g>
   </g>
   <g id="line2d_75">
    <path d="M 333.8625 208.914062 
L 353.8625 208.914062 
" style="fill:none;stroke:#66a61e;stroke-dasharray:4.5,1.5;stroke-dashoffset:0;stroke-width:1.5;"/>
   </g>
   <g id="line2d_76"/>
   <g id="text_33">
    <!-- CB (21) -->
    <g transform="translate(361.8625 212.414062)scale(0.1 -0.1)">
     <use xlink:href="#DejaVuSans-67"/>
     <use x="69.824219" xlink:href="#DejaVuSans-66"/>
     <use x="138.427734" xlink:href="#DejaVuSans-32"/>
     <use x="170.214844" xlink:href="#DejaVuSans-40"/>
     <use x="209.228516" xlink:href="#DejaVuSans-50"/>
     <use x="272.851562" xlink:href="#DejaVuSans-49"/>
     <use x="336.474609" xlink:href="#DejaVuSans-41"/>
    </g>
   </g>
   <g id="line2d_77">
    <path d="M 333.8625 223.592187 
L 353.8625 223.592187 
" style="fill:none;stroke:#e6ab02;stroke-dasharray:4.5,1.5;stroke-dashoffset:0;stroke-width:1.5;"/>
   </g>
   <g id="line2d_78"/>
   <g id="text_34">
    <!-- RJPH (20) -->
    <defs>
     <path d="M 9.8125 72.90625 
L 19.671875 72.90625 
L 19.671875 5.078125 
Q 19.671875 -8.109375 14.671875 -14.0625 
Q 9.671875 -20.015625 -1.421875 -20.015625 
L -5.171875 -20.015625 
L -5.171875 -11.71875 
L -2.09375 -11.71875 
Q 4.4375 -11.71875 7.125 -8.046875 
Q 9.8125 -4.390625 9.8125 5.078125 
z
" id="DejaVuSans-74"/>
    </defs>
    <g transform="translate(361.8625 227.092187)scale(0.1 -0.1)">
     <use xlink:href="#DejaVuSans-82"/>
     <use x="69.482422" xlink:href="#DejaVuSans-74"/>
     <use x="98.974609" xlink:href="#DejaVuSans-80"/>
     <use x="159.277344" xlink:href="#DejaVuSans-72"/>
     <use x="234.472656" xlink:href="#DejaVuSans-32"/>
     <use x="266.259766" xlink:href="#DejaVuSans-40"/>
     <use x="305.273438" xlink:href="#DejaVuSans-50"/>
     <use x="368.896484" xlink:href="#DejaVuSans-48"/>
     <use x="432.519531" xlink:href="#DejaVuSans-41"/>
    </g>
   </g>
   <g id="line2d_79">
    <path d="M 333.8625 238.270312 
L 353.8625 238.270312 
" style="fill:none;stroke:#a6761d;stroke-dasharray:4.5,1.5;stroke-dashoffset:0;stroke-width:1.5;"/>
   </g>
   <g id="line2d_80"/>
   <g id="text_35">
    <!-- AHR-H (20) -->
    <g transform="translate(361.8625 241.770312)scale(0.1 -0.1)">
     <use xlink:href="#DejaVuSans-65"/>
     <use x="68.408203" xlink:href="#DejaVuSans-72"/>
     <use x="143.603516" xlink:href="#DejaVuSans-82"/>
     <use x="213.023438" xlink:href="#DejaVuSans-45"/>
     <use x="249.107422" xlink:href="#DejaVuSans-72"/>
     <use x="324.302734" xlink:href="#DejaVuSans-32"/>
     <use x="356.089844" xlink:href="#DejaVuSans-40"/>
     <use x="395.103516" xlink:href="#DejaVuSans-50"/>
     <use x="458.726562" xlink:href="#DejaVuSans-48"/>
     <use x="522.349609" xlink:href="#DejaVuSans-41"/>
    </g>
   </g>
   <g id="line2d_81">
    <path d="M 333.8625 252.948437 
L 353.8625 252.948437 
" style="fill:none;stroke:#666666;stroke-dasharray:4.5,1.5;stroke-dashoffset:0;stroke-width:1.5;"/>
   </g>
   <g id="line2d_82"/>
   <g id="text_36">
    <!-- AHR-A (15) -->
    <g transform="translate(361.8625 256.448437)scale(0.1 -0.1)">
     <use xlink:href="#DejaVuSans-65"/>
     <use x="68.408203" xlink:href="#DejaVuSans-72"/>
     <use x="143.603516" xlink:href="#DejaVuSans-82"/>
     <use x="213.023438" xlink:href="#DejaVuSans-45"/>
     <use x="249.076172" xlink:href="#DejaVuSans-65"/>
     <use x="317.484375" xlink:href="#DejaVuSans-32"/>
     <use x="349.271484" xlink:href="#DejaVuSans-40"/>
     <use x="388.285156" xlink:href="#DejaVuSans-49"/>
     <use x="451.908203" xlink:href="#DejaVuSans-53"/>
     <use x="515.53125" xlink:href="#DejaVuSans-41"/>
    </g>
   </g>
  </g>
 </g>
 <defs>
  <clipPath id="p9dd3209615">
   <rect height="207.330771" width="271.81" x="43.55" y="12.9"/>
  </clipPath>
 </defs>
</svg>
