<?xml version="1.0" encoding="utf-8" standalone="no"?>
<!DOCTYPE svg PUBLIC "-//W3C//DTD SVG 1.1//EN"
  "http://www.w3.org/Graphics/SVG/1.1/DTD/svg11.dtd">
<!-- Created with matplotlib (https://matplotlib.org/) -->
<svg height="288pt" version="1.1" viewBox="0 0 432 288" width="432pt" xmlns="http://www.w3.org/2000/svg" xmlns:xlink="http://www.w3.org/1999/xlink">
 <defs>
  <style type="text/css">
*{stroke-linecap:butt;stroke-linejoin:round;}
  </style>
 </defs>
 <g id="figure_1">
  <g id="patch_1">
   <path d="M 0 288 
L 432 288 
L 432 0 
L 0 0 
z
" style="fill:#ffffff;"/>
  </g>
  <g id="axes_1">
   <g id="patch_2">
    <path d="M 43.55 220.230771 
L 315.36 220.230771 
L 315.36 12.9 
L 43.55 12.9 
z
" style="fill:#ffffff;"/>
   </g>
   <g id="matplotlib.axis_1">
    <g id="xtick_1">
     <g id="line2d_1">
      <defs>
       <path d="M 0 0 
L 0 3.5 
" id="md2137e776a" style="stroke:#000000;stroke-width:0.8;"/>
      </defs>
      <g>
       <use style="stroke:#000000;stroke-width:0.8;" x="60.682155" xlink:href="#md2137e776a" y="220.230771"/>
      </g>
     </g>
     <g id="text_1">
      <!-- 2020-12-01 -->
      <defs>
       <path d="M 19.1875 8.296875 
L 53.609375 8.296875 
L 53.609375 0 
L 7.328125 0 
L 7.328125 8.296875 
Q 12.9375 14.109375 22.625 23.890625 
Q 32.328125 33.6875 34.8125 36.53125 
Q 39.546875 41.84375 41.421875 45.53125 
Q 43.3125 49.21875 43.3125 52.78125 
Q 43.3125 58.59375 39.234375 62.25 
Q 35.15625 65.921875 28.609375 65.921875 
Q 23.96875 65.921875 18.8125 64.3125 
Q 13.671875 62.703125 7.8125 59.421875 
L 7.8125 69.390625 
Q 13.765625 71.78125 18.9375 73 
Q 24.125 74.21875 28.421875 74.21875 
Q 39.75 74.21875 46.484375 68.546875 
Q 53.21875 62.890625 53.21875 53.421875 
Q 53.21875 48.921875 51.53125 44.890625 
Q 49.859375 40.875 45.40625 35.40625 
Q 44.1875 33.984375 37.640625 27.21875 
Q 31.109375 20.453125 19.1875 8.296875 
z
" id="DejaVuSans-50"/>
       <path d="M 31.78125 66.40625 
Q 24.171875 66.40625 20.328125 58.90625 
Q 16.5 51.421875 16.5 36.375 
Q 16.5 21.390625 20.328125 13.890625 
Q 24.171875 6.390625 31.78125 6.390625 
Q 39.453125 6.390625 43.28125 13.890625 
Q 47.125 21.390625 47.125 36.375 
Q 47.125 51.421875 43.28125 58.90625 
Q 39.453125 66.40625 31.78125 66.40625 
z
M 31.78125 74.21875 
Q 44.046875 74.21875 50.515625 64.515625 
Q 56.984375 54.828125 56.984375 36.375 
Q 56.984375 17.96875 50.515625 8.265625 
Q 44.046875 -1.421875 31.78125 -1.421875 
Q 19.53125 -1.421875 13.0625 8.265625 
Q 6.59375 17.96875 6.59375 36.375 
Q 6.59375 54.828125 13.0625 64.515625 
Q 19.53125 74.21875 31.78125 74.21875 
z
" id="DejaVuSans-48"/>
       <path d="M 4.890625 31.390625 
L 31.203125 31.390625 
L 31.203125 23.390625 
L 4.890625 23.390625 
z
" id="DejaVuSans-45"/>
       <path d="M 12.40625 8.296875 
L 28.515625 8.296875 
L 28.515625 63.921875 
L 10.984375 60.40625 
L 10.984375 69.390625 
L 28.421875 72.90625 
L 38.28125 72.90625 
L 38.28125 8.296875 
L 54.390625 8.296875 
L 54.390625 0 
L 12.40625 0 
z
" id="DejaVuSans-49"/>
      </defs>
      <g transform="translate(36.897039 262.869024)rotate(-30)scale(0.1 -0.1)">
       <use xlink:href="#DejaVuSans-50"/>
       <use x="63.623047" xlink:href="#DejaVuSans-48"/>
       <use x="127.246094" xlink:href="#DejaVuSans-50"/>
       <use x="190.869141" xlink:href="#DejaVuSans-48"/>
       <use x="254.492188" xlink:href="#DejaVuSans-45"/>
       <use x="290.576172" xlink:href="#DejaVuSans-49"/>
       <use x="354.199219" xlink:href="#DejaVuSans-50"/>
       <use x="417.822266" xlink:href="#DejaVuSans-45"/>
       <use x="453.90625" xlink:href="#DejaVuSans-48"/>
       <use x="517.529297" xlink:href="#DejaVuSans-49"/>
      </g>
     </g>
    </g>
    <g id="xtick_2">
     <g id="line2d_2">
      <g>
       <use style="stroke:#000000;stroke-width:0.8;" x="95.31249" xlink:href="#md2137e776a" y="220.230771"/>
      </g>
     </g>
     <g id="text_2">
      <!-- 2020-12-05 -->
      <defs>
       <path d="M 10.796875 72.90625 
L 49.515625 72.90625 
L 49.515625 64.59375 
L 19.828125 64.59375 
L 19.828125 46.734375 
Q 21.96875 47.46875 24.109375 47.828125 
Q 26.265625 48.1875 28.421875 48.1875 
Q 40.625 48.1875 47.75 41.5 
Q 54.890625 34.8125 54.890625 23.390625 
Q 54.890625 11.625 47.5625 5.09375 
Q 40.234375 -1.421875 26.90625 -1.421875 
Q 22.3125 -1.421875 17.546875 -0.640625 
Q 12.796875 0.140625 7.71875 1.703125 
L 7.71875 11.625 
Q 12.109375 9.234375 16.796875 8.0625 
Q 21.484375 6.890625 26.703125 6.890625 
Q 35.15625 6.890625 40.078125 11.328125 
Q 45.015625 15.765625 45.015625 23.390625 
Q 45.015625 31 40.078125 35.4375 
Q 35.15625 39.890625 26.703125 39.890625 
Q 22.75 39.890625 18.8125 39.015625 
Q 14.890625 38.140625 10.796875 36.28125 
z
" id="DejaVuSans-53"/>
      </defs>
      <g transform="translate(71.527374 262.869024)rotate(-30)scale(0.1 -0.1)">
       <use xlink:href="#DejaVuSans-50"/>
       <use x="63.623047" xlink:href="#DejaVuSans-48"/>
       <use x="127.246094" xlink:href="#DejaVuSans-50"/>
       <use x="190.869141" xlink:href="#DejaVuSans-48"/>
       <use x="254.492188" xlink:href="#DejaVuSans-45"/>
       <use x="290.576172" xlink:href="#DejaVuSans-49"/>
       <use x="354.199219" xlink:href="#DejaVuSans-50"/>
       <use x="417.822266" xlink:href="#DejaVuSans-45"/>
       <use x="453.90625" xlink:href="#DejaVuSans-48"/>
       <use x="517.529297" xlink:href="#DejaVuSans-53"/>
      </g>
     </g>
    </g>
    <g id="xtick_3">
     <g id="line2d_3">
      <g>
       <use style="stroke:#000000;stroke-width:0.8;" x="129.942825" xlink:href="#md2137e776a" y="220.230771"/>
      </g>
     </g>
     <g id="text_3">
      <!-- 2020-12-09 -->
      <defs>
       <path d="M 10.984375 1.515625 
L 10.984375 10.5 
Q 14.703125 8.734375 18.5 7.8125 
Q 22.3125 6.890625 25.984375 6.890625 
Q 35.75 6.890625 40.890625 13.453125 
Q 46.046875 20.015625 46.78125 33.40625 
Q 43.953125 29.203125 39.59375 26.953125 
Q 35.25 24.703125 29.984375 24.703125 
Q 19.046875 24.703125 12.671875 31.3125 
Q 6.296875 37.9375 6.296875 49.421875 
Q 6.296875 60.640625 12.9375 67.421875 
Q 19.578125 74.21875 30.609375 74.21875 
Q 43.265625 74.21875 49.921875 64.515625 
Q 56.59375 54.828125 56.59375 36.375 
Q 56.59375 19.140625 48.40625 8.859375 
Q 40.234375 -1.421875 26.421875 -1.421875 
Q 22.703125 -1.421875 18.890625 -0.6875 
Q 15.09375 0.046875 10.984375 1.515625 
z
M 30.609375 32.421875 
Q 37.25 32.421875 41.125 36.953125 
Q 45.015625 41.5 45.015625 49.421875 
Q 45.015625 57.28125 41.125 61.84375 
Q 37.25 66.40625 30.609375 66.40625 
Q 23.96875 66.40625 20.09375 61.84375 
Q 16.21875 57.28125 16.21875 49.421875 
Q 16.21875 41.5 20.09375 36.953125 
Q 23.96875 32.421875 30.609375 32.421875 
z
" id="DejaVuSans-57"/>
      </defs>
      <g transform="translate(106.157709 262.869024)rotate(-30)scale(0.1 -0.1)">
       <use xlink:href="#DejaVuSans-50"/>
       <use x="63.623047" xlink:href="#DejaVuSans-48"/>
       <use x="127.246094" xlink:href="#DejaVuSans-50"/>
       <use x="190.869141" xlink:href="#DejaVuSans-48"/>
       <use x="254.492188" xlink:href="#DejaVuSans-45"/>
       <use x="290.576172" xlink:href="#DejaVuSans-49"/>
       <use x="354.199219" xlink:href="#DejaVuSans-50"/>
       <use x="417.822266" xlink:href="#DejaVuSans-45"/>
       <use x="453.90625" xlink:href="#DejaVuSans-48"/>
       <use x="517.529297" xlink:href="#DejaVuSans-57"/>
      </g>
     </g>
    </g>
    <g id="xtick_4">
     <g id="line2d_4">
      <g>
       <use style="stroke:#000000;stroke-width:0.8;" x="164.57316" xlink:href="#md2137e776a" y="220.230771"/>
      </g>
     </g>
     <g id="text_4">
      <!-- 2020-12-13 -->
      <defs>
       <path d="M 40.578125 39.3125 
Q 47.65625 37.796875 51.625 33 
Q 55.609375 28.21875 55.609375 21.1875 
Q 55.609375 10.40625 48.1875 4.484375 
Q 40.765625 -1.421875 27.09375 -1.421875 
Q 22.515625 -1.421875 17.65625 -0.515625 
Q 12.796875 0.390625 7.625 2.203125 
L 7.625 11.71875 
Q 11.71875 9.328125 16.59375 8.109375 
Q 21.484375 6.890625 26.8125 6.890625 
Q 36.078125 6.890625 40.9375 10.546875 
Q 45.796875 14.203125 45.796875 21.1875 
Q 45.796875 27.640625 41.28125 31.265625 
Q 36.765625 34.90625 28.71875 34.90625 
L 20.21875 34.90625 
L 20.21875 43.015625 
L 29.109375 43.015625 
Q 36.375 43.015625 40.234375 45.921875 
Q 44.09375 48.828125 44.09375 54.296875 
Q 44.09375 59.90625 40.109375 62.90625 
Q 36.140625 65.921875 28.71875 65.921875 
Q 24.65625 65.921875 20.015625 65.03125 
Q 15.375 64.15625 9.8125 62.3125 
L 9.8125 71.09375 
Q 15.4375 72.65625 20.34375 73.4375 
Q 25.25 74.21875 29.59375 74.21875 
Q 40.828125 74.21875 47.359375 69.109375 
Q 53.90625 64.015625 53.90625 55.328125 
Q 53.90625 49.265625 50.4375 45.09375 
Q 46.96875 40.921875 40.578125 39.3125 
z
" id="DejaVuSans-51"/>
      </defs>
      <g transform="translate(140.788044 262.869024)rotate(-30)scale(0.1 -0.1)">
       <use xlink:href="#DejaVuSans-50"/>
       <use x="63.623047" xlink:href="#DejaVuSans-48"/>
       <use x="127.246094" xlink:href="#DejaVuSans-50"/>
       <use x="190.869141" xlink:href="#DejaVuSans-48"/>
       <use x="254.492188" xlink:href="#DejaVuSans-45"/>
       <use x="290.576172" xlink:href="#DejaVuSans-49"/>
       <use x="354.199219" xlink:href="#DejaVuSans-50"/>
       <use x="417.822266" xlink:href="#DejaVuSans-45"/>
       <use x="453.90625" xlink:href="#DejaVuSans-49"/>
       <use x="517.529297" xlink:href="#DejaVuSans-51"/>
      </g>
     </g>
    </g>
    <g id="xtick_5">
     <g id="line2d_5">
      <g>
       <use style="stroke:#000000;stroke-width:0.8;" x="199.203495" xlink:href="#md2137e776a" y="220.230771"/>
      </g>
     </g>
     <g id="text_5">
      <!-- 2020-12-17 -->
      <defs>
       <path d="M 8.203125 72.90625 
L 55.078125 72.90625 
L 55.078125 68.703125 
L 28.609375 0 
L 18.3125 0 
L 43.21875 64.59375 
L 8.203125 64.59375 
z
" id="DejaVuSans-55"/>
      </defs>
      <g transform="translate(175.418379 262.869024)rotate(-30)scale(0.1 -0.1)">
       <use xlink:href="#DejaVuSans-50"/>
       <use x="63.623047" xlink:href="#DejaVuSans-48"/>
       <use x="127.246094" xlink:href="#DejaVuSans-50"/>
       <use x="190.869141" xlink:href="#DejaVuSans-48"/>
       <use x="254.492188" xlink:href="#DejaVuSans-45"/>
       <use x="290.576172" xlink:href="#DejaVuSans-49"/>
       <use x="354.199219" xlink:href="#DejaVuSans-50"/>
       <use x="417.822266" xlink:href="#DejaVuSans-45"/>
       <use x="453.90625" xlink:href="#DejaVuSans-49"/>
       <use x="517.529297" xlink:href="#DejaVuSans-55"/>
      </g>
     </g>
    </g>
    <g id="xtick_6">
     <g id="line2d_6">
      <g>
       <use style="stroke:#000000;stroke-width:0.8;" x="233.83383" xlink:href="#md2137e776a" y="220.230771"/>
      </g>
     </g>
     <g id="text_6">
      <!-- 2020-12-21 -->
      <g transform="translate(210.048714 262.869024)rotate(-30)scale(0.1 -0.1)">
       <use xlink:href="#DejaVuSans-50"/>
       <use x="63.623047" xlink:href="#DejaVuSans-48"/>
       <use x="127.246094" xlink:href="#DejaVuSans-50"/>
       <use x="190.869141" xlink:href="#DejaVuSans-48"/>
       <use x="254.492188" xlink:href="#DejaVuSans-45"/>
       <use x="290.576172" xlink:href="#DejaVuSans-49"/>
       <use x="354.199219" xlink:href="#DejaVuSans-50"/>
       <use x="417.822266" xlink:href="#DejaVuSans-45"/>
       <use x="453.90625" xlink:href="#DejaVuSans-50"/>
       <use x="517.529297" xlink:href="#DejaVuSans-49"/>
      </g>
     </g>
    </g>
    <g id="xtick_7">
     <g id="line2d_7">
      <g>
       <use style="stroke:#000000;stroke-width:0.8;" x="268.464166" xlink:href="#md2137e776a" y="220.230771"/>
      </g>
     </g>
     <g id="text_7">
      <!-- 2020-12-25 -->
      <g transform="translate(244.679049 262.869024)rotate(-30)scale(0.1 -0.1)">
       <use xlink:href="#DejaVuSans-50"/>
       <use x="63.623047" xlink:href="#DejaVuSans-48"/>
       <use x="127.246094" xlink:href="#DejaVuSans-50"/>
       <use x="190.869141" xlink:href="#DejaVuSans-48"/>
       <use x="254.492188" xlink:href="#DejaVuSans-45"/>
       <use x="290.576172" xlink:href="#DejaVuSans-49"/>
       <use x="354.199219" xlink:href="#DejaVuSans-50"/>
       <use x="417.822266" xlink:href="#DejaVuSans-45"/>
       <use x="453.90625" xlink:href="#DejaVuSans-50"/>
       <use x="517.529297" xlink:href="#DejaVuSans-53"/>
      </g>
     </g>
    </g>
    <g id="xtick_8">
     <g id="line2d_8">
      <g>
       <use style="stroke:#000000;stroke-width:0.8;" x="303.094501" xlink:href="#md2137e776a" y="220.230771"/>
      </g>
     </g>
     <g id="text_8">
      <!-- 2020-12-29 -->
      <g transform="translate(279.309384 262.869024)rotate(-30)scale(0.1 -0.1)">
       <use xlink:href="#DejaVuSans-50"/>
       <use x="63.623047" xlink:href="#DejaVuSans-48"/>
       <use x="127.246094" xlink:href="#DejaVuSans-50"/>
       <use x="190.869141" xlink:href="#DejaVuSans-48"/>
       <use x="254.492188" xlink:href="#DejaVuSans-45"/>
       <use x="290.576172" xlink:href="#DejaVuSans-49"/>
       <use x="354.199219" xlink:href="#DejaVuSans-50"/>
       <use x="417.822266" xlink:href="#DejaVuSans-45"/>
       <use x="453.90625" xlink:href="#DejaVuSans-50"/>
       <use x="517.529297" xlink:href="#DejaVuSans-57"/>
      </g>
     </g>
    </g>
    <g id="text_9">
     <!-- Date -->
     <defs>
      <path d="M 19.671875 64.796875 
L 19.671875 8.109375 
L 31.59375 8.109375 
Q 46.6875 8.109375 53.6875 14.9375 
Q 60.6875 21.78125 60.6875 36.53125 
Q 60.6875 51.171875 53.6875 57.984375 
Q 46.6875 64.796875 31.59375 64.796875 
z
M 9.8125 72.90625 
L 30.078125 72.90625 
Q 51.265625 72.90625 61.171875 64.09375 
Q 71.09375 55.28125 71.09375 36.53125 
Q 71.09375 17.671875 61.125 8.828125 
Q 51.171875 0 30.078125 0 
L 9.8125 0 
z
" id="DejaVuSans-68"/>
      <path d="M 34.28125 27.484375 
Q 23.390625 27.484375 19.1875 25 
Q 14.984375 22.515625 14.984375 16.5 
Q 14.984375 11.71875 18.140625 8.90625 
Q 21.296875 6.109375 26.703125 6.109375 
Q 34.1875 6.109375 38.703125 11.40625 
Q 43.21875 16.703125 43.21875 25.484375 
L 43.21875 27.484375 
z
M 52.203125 31.203125 
L 52.203125 0 
L 43.21875 0 
L 43.21875 8.296875 
Q 40.140625 3.328125 35.546875 0.953125 
Q 30.953125 -1.421875 24.3125 -1.421875 
Q 15.921875 -1.421875 10.953125 3.296875 
Q 6 8.015625 6 15.921875 
Q 6 25.140625 12.171875 29.828125 
Q 18.359375 34.515625 30.609375 34.515625 
L 43.21875 34.515625 
L 43.21875 35.40625 
Q 43.21875 41.609375 39.140625 45 
Q 35.0625 48.390625 27.6875 48.390625 
Q 23 48.390625 18.546875 47.265625 
Q 14.109375 46.140625 10.015625 43.890625 
L 10.015625 52.203125 
Q 14.9375 54.109375 19.578125 55.046875 
Q 24.21875 56 28.609375 56 
Q 40.484375 56 46.34375 49.84375 
Q 52.203125 43.703125 52.203125 31.203125 
z
" id="DejaVuSans-97"/>
      <path d="M 18.3125 70.21875 
L 18.3125 54.6875 
L 36.8125 54.6875 
L 36.8125 47.703125 
L 18.3125 47.703125 
L 18.3125 18.015625 
Q 18.3125 11.328125 20.140625 9.421875 
Q 21.96875 7.515625 27.59375 7.515625 
L 36.8125 7.515625 
L 36.8125 0 
L 27.59375 0 
Q 17.1875 0 13.234375 3.875 
Q 9.28125 7.765625 9.28125 18.015625 
L 9.28125 47.703125 
L 2.6875 47.703125 
L 2.6875 54.6875 
L 9.28125 54.6875 
L 9.28125 70.21875 
z
" id="DejaVuSans-116"/>
      <path d="M 56.203125 29.59375 
L 56.203125 25.203125 
L 14.890625 25.203125 
Q 15.484375 15.921875 20.484375 11.0625 
Q 25.484375 6.203125 34.421875 6.203125 
Q 39.59375 6.203125 44.453125 7.46875 
Q 49.3125 8.734375 54.109375 11.28125 
L 54.109375 2.78125 
Q 49.265625 0.734375 44.1875 -0.34375 
Q 39.109375 -1.421875 33.890625 -1.421875 
Q 20.796875 -1.421875 13.15625 6.1875 
Q 5.515625 13.8125 5.515625 26.8125 
Q 5.515625 40.234375 12.765625 48.109375 
Q 20.015625 56 32.328125 56 
Q 43.359375 56 49.78125 48.890625 
Q 56.203125 41.796875 56.203125 29.59375 
z
M 47.21875 32.234375 
Q 47.125 39.59375 43.09375 43.984375 
Q 39.0625 48.390625 32.421875 48.390625 
Q 24.90625 48.390625 20.390625 44.140625 
Q 15.875 39.890625 15.1875 32.171875 
z
" id="DejaVuSans-101"/>
     </defs>
     <g transform="translate(167.504219 276.268523)scale(0.1 -0.1)">
      <use xlink:href="#DejaVuSans-68"/>
      <use x="77.001953" xlink:href="#DejaVuSans-97"/>
      <use x="138.28125" xlink:href="#DejaVuSans-116"/>
      <use x="177.490234" xlink:href="#DejaVuSans-101"/>
     </g>
    </g>
   </g>
   <g id="matplotlib.axis_2">
    <g id="ytick_1">
     <g id="line2d_9">
      <defs>
       <path d="M 0 0 
L -3.5 0 
" id="mc5d844210b" style="stroke:#000000;stroke-width:0.8;"/>
      </defs>
      <g>
       <use style="stroke:#000000;stroke-width:0.8;" x="43.55" xlink:href="#mc5d844210b" y="210.806645"/>
      </g>
     </g>
     <g id="text_10">
      <!-- 0 -->
      <g transform="translate(30.1875 214.605864)scale(0.1 -0.1)">
       <use xlink:href="#DejaVuSans-48"/>
      </g>
     </g>
    </g>
    <g id="ytick_2">
     <g id="line2d_10">
      <g>
       <use style="stroke:#000000;stroke-width:0.8;" x="43.55" xlink:href="#mc5d844210b" y="187.24633"/>
      </g>
     </g>
     <g id="text_11">
      <!-- 5 -->
      <g transform="translate(30.1875 191.045549)scale(0.1 -0.1)">
       <use xlink:href="#DejaVuSans-53"/>
      </g>
     </g>
    </g>
    <g id="ytick_3">
     <g id="line2d_11">
      <g>
       <use style="stroke:#000000;stroke-width:0.8;" x="43.55" xlink:href="#mc5d844210b" y="163.686016"/>
      </g>
     </g>
     <g id="text_12">
      <!-- 10 -->
      <g transform="translate(23.825 167.485234)scale(0.1 -0.1)">
       <use xlink:href="#DejaVuSans-49"/>
       <use x="63.623047" xlink:href="#DejaVuSans-48"/>
      </g>
     </g>
    </g>
    <g id="ytick_4">
     <g id="line2d_12">
      <g>
       <use style="stroke:#000000;stroke-width:0.8;" x="43.55" xlink:href="#mc5d844210b" y="140.125701"/>
      </g>
     </g>
     <g id="text_13">
      <!-- 15 -->
      <g transform="translate(23.825 143.924919)scale(0.1 -0.1)">
       <use xlink:href="#DejaVuSans-49"/>
       <use x="63.623047" xlink:href="#DejaVuSans-53"/>
      </g>
     </g>
    </g>
    <g id="ytick_5">
     <g id="line2d_13">
      <g>
       <use style="stroke:#000000;stroke-width:0.8;" x="43.55" xlink:href="#mc5d844210b" y="116.565386"/>
      </g>
     </g>
     <g id="text_14">
      <!-- 20 -->
      <g transform="translate(23.825 120.364604)scale(0.1 -0.1)">
       <use xlink:href="#DejaVuSans-50"/>
       <use x="63.623047" xlink:href="#DejaVuSans-48"/>
      </g>
     </g>
    </g>
    <g id="ytick_6">
     <g id="line2d_14">
      <g>
       <use style="stroke:#000000;stroke-width:0.8;" x="43.55" xlink:href="#mc5d844210b" y="93.005071"/>
      </g>
     </g>
     <g id="text_15">
      <!-- 25 -->
      <g transform="translate(23.825 96.80429)scale(0.1 -0.1)">
       <use xlink:href="#DejaVuSans-50"/>
       <use x="63.623047" xlink:href="#DejaVuSans-53"/>
      </g>
     </g>
    </g>
    <g id="ytick_7">
     <g id="line2d_15">
      <g>
       <use style="stroke:#000000;stroke-width:0.8;" x="43.55" xlink:href="#mc5d844210b" y="69.444756"/>
      </g>
     </g>
     <g id="text_16">
      <!-- 30 -->
      <g transform="translate(23.825 73.243975)scale(0.1 -0.1)">
       <use xlink:href="#DejaVuSans-51"/>
       <use x="63.623047" xlink:href="#DejaVuSans-48"/>
      </g>
     </g>
    </g>
    <g id="ytick_8">
     <g id="line2d_16">
      <g>
       <use style="stroke:#000000;stroke-width:0.8;" x="43.55" xlink:href="#mc5d844210b" y="45.884441"/>
      </g>
     </g>
     <g id="text_17">
      <!-- 35 -->
      <g transform="translate(23.825 49.68366)scale(0.1 -0.1)">
       <use xlink:href="#DejaVuSans-51"/>
       <use x="63.623047" xlink:href="#DejaVuSans-53"/>
      </g>
     </g>
    </g>
    <g id="ytick_9">
     <g id="line2d_17">
      <g>
       <use style="stroke:#000000;stroke-width:0.8;" x="43.55" xlink:href="#mc5d844210b" y="22.324126"/>
      </g>
     </g>
     <g id="text_18">
      <!-- 40 -->
      <defs>
       <path d="M 37.796875 64.3125 
L 12.890625 25.390625 
L 37.796875 25.390625 
z
M 35.203125 72.90625 
L 47.609375 72.90625 
L 47.609375 25.390625 
L 58.015625 25.390625 
L 58.015625 17.1875 
L 47.609375 17.1875 
L 47.609375 0 
L 37.796875 0 
L 37.796875 17.1875 
L 4.890625 17.1875 
L 4.890625 26.703125 
z
" id="DejaVuSans-52"/>
      </defs>
      <g transform="translate(23.825 26.123345)scale(0.1 -0.1)">
       <use xlink:href="#DejaVuSans-52"/>
       <use x="63.623047" xlink:href="#DejaVuSans-48"/>
      </g>
     </g>
    </g>
    <g id="text_19">
     <!-- Students Registered -->
     <defs>
      <path d="M 53.515625 70.515625 
L 53.515625 60.890625 
Q 47.90625 63.578125 42.921875 64.890625 
Q 37.9375 66.21875 33.296875 66.21875 
Q 25.25 66.21875 20.875 63.09375 
Q 16.5 59.96875 16.5 54.203125 
Q 16.5 49.359375 19.40625 46.890625 
Q 22.3125 44.4375 30.421875 42.921875 
L 36.375 41.703125 
Q 47.40625 39.59375 52.65625 34.296875 
Q 57.90625 29 57.90625 20.125 
Q 57.90625 9.515625 50.796875 4.046875 
Q 43.703125 -1.421875 29.984375 -1.421875 
Q 24.8125 -1.421875 18.96875 -0.25 
Q 13.140625 0.921875 6.890625 3.21875 
L 6.890625 13.375 
Q 12.890625 10.015625 18.65625 8.296875 
Q 24.421875 6.59375 29.984375 6.59375 
Q 38.421875 6.59375 43.015625 9.90625 
Q 47.609375 13.234375 47.609375 19.390625 
Q 47.609375 24.75 44.3125 27.78125 
Q 41.015625 30.8125 33.5 32.328125 
L 27.484375 33.5 
Q 16.453125 35.6875 11.515625 40.375 
Q 6.59375 45.0625 6.59375 53.421875 
Q 6.59375 63.09375 13.40625 68.65625 
Q 20.21875 74.21875 32.171875 74.21875 
Q 37.3125 74.21875 42.625 73.28125 
Q 47.953125 72.359375 53.515625 70.515625 
z
" id="DejaVuSans-83"/>
      <path d="M 8.5 21.578125 
L 8.5 54.6875 
L 17.484375 54.6875 
L 17.484375 21.921875 
Q 17.484375 14.15625 20.5 10.265625 
Q 23.53125 6.390625 29.59375 6.390625 
Q 36.859375 6.390625 41.078125 11.03125 
Q 45.3125 15.671875 45.3125 23.6875 
L 45.3125 54.6875 
L 54.296875 54.6875 
L 54.296875 0 
L 45.3125 0 
L 45.3125 8.40625 
Q 42.046875 3.421875 37.71875 1 
Q 33.40625 -1.421875 27.6875 -1.421875 
Q 18.265625 -1.421875 13.375 4.4375 
Q 8.5 10.296875 8.5 21.578125 
z
M 31.109375 56 
z
" id="DejaVuSans-117"/>
      <path d="M 45.40625 46.390625 
L 45.40625 75.984375 
L 54.390625 75.984375 
L 54.390625 0 
L 45.40625 0 
L 45.40625 8.203125 
Q 42.578125 3.328125 38.25 0.953125 
Q 33.9375 -1.421875 27.875 -1.421875 
Q 17.96875 -1.421875 11.734375 6.484375 
Q 5.515625 14.40625 5.515625 27.296875 
Q 5.515625 40.1875 11.734375 48.09375 
Q 17.96875 56 27.875 56 
Q 33.9375 56 38.25 53.625 
Q 42.578125 51.265625 45.40625 46.390625 
z
M 14.796875 27.296875 
Q 14.796875 17.390625 18.875 11.75 
Q 22.953125 6.109375 30.078125 6.109375 
Q 37.203125 6.109375 41.296875 11.75 
Q 45.40625 17.390625 45.40625 27.296875 
Q 45.40625 37.203125 41.296875 42.84375 
Q 37.203125 48.484375 30.078125 48.484375 
Q 22.953125 48.484375 18.875 42.84375 
Q 14.796875 37.203125 14.796875 27.296875 
z
" id="DejaVuSans-100"/>
      <path d="M 54.890625 33.015625 
L 54.890625 0 
L 45.90625 0 
L 45.90625 32.71875 
Q 45.90625 40.484375 42.875 44.328125 
Q 39.84375 48.1875 33.796875 48.1875 
Q 26.515625 48.1875 22.3125 43.546875 
Q 18.109375 38.921875 18.109375 30.90625 
L 18.109375 0 
L 9.078125 0 
L 9.078125 54.6875 
L 18.109375 54.6875 
L 18.109375 46.1875 
Q 21.34375 51.125 25.703125 53.5625 
Q 30.078125 56 35.796875 56 
Q 45.21875 56 50.046875 50.171875 
Q 54.890625 44.34375 54.890625 33.015625 
z
" id="DejaVuSans-110"/>
      <path d="M 44.28125 53.078125 
L 44.28125 44.578125 
Q 40.484375 46.53125 36.375 47.5 
Q 32.28125 48.484375 27.875 48.484375 
Q 21.1875 48.484375 17.84375 46.4375 
Q 14.5 44.390625 14.5 40.28125 
Q 14.5 37.15625 16.890625 35.375 
Q 19.28125 33.59375 26.515625 31.984375 
L 29.59375 31.296875 
Q 39.15625 29.25 43.1875 25.515625 
Q 47.21875 21.78125 47.21875 15.09375 
Q 47.21875 7.46875 41.1875 3.015625 
Q 35.15625 -1.421875 24.609375 -1.421875 
Q 20.21875 -1.421875 15.453125 -0.5625 
Q 10.6875 0.296875 5.421875 2 
L 5.421875 11.28125 
Q 10.40625 8.6875 15.234375 7.390625 
Q 20.0625 6.109375 24.8125 6.109375 
Q 31.15625 6.109375 34.5625 8.28125 
Q 37.984375 10.453125 37.984375 14.40625 
Q 37.984375 18.0625 35.515625 20.015625 
Q 33.0625 21.96875 24.703125 23.78125 
L 21.578125 24.515625 
Q 13.234375 26.265625 9.515625 29.90625 
Q 5.8125 33.546875 5.8125 39.890625 
Q 5.8125 47.609375 11.28125 51.796875 
Q 16.75 56 26.8125 56 
Q 31.78125 56 36.171875 55.265625 
Q 40.578125 54.546875 44.28125 53.078125 
z
" id="DejaVuSans-115"/>
      <path id="DejaVuSans-32"/>
      <path d="M 44.390625 34.1875 
Q 47.5625 33.109375 50.5625 29.59375 
Q 53.5625 26.078125 56.59375 19.921875 
L 66.609375 0 
L 56 0 
L 46.6875 18.703125 
Q 43.0625 26.03125 39.671875 28.421875 
Q 36.28125 30.8125 30.421875 30.8125 
L 19.671875 30.8125 
L 19.671875 0 
L 9.8125 0 
L 9.8125 72.90625 
L 32.078125 72.90625 
Q 44.578125 72.90625 50.734375 67.671875 
Q 56.890625 62.453125 56.890625 51.90625 
Q 56.890625 45.015625 53.6875 40.46875 
Q 50.484375 35.9375 44.390625 34.1875 
z
M 19.671875 64.796875 
L 19.671875 38.921875 
L 32.078125 38.921875 
Q 39.203125 38.921875 42.84375 42.21875 
Q 46.484375 45.515625 46.484375 51.90625 
Q 46.484375 58.296875 42.84375 61.546875 
Q 39.203125 64.796875 32.078125 64.796875 
z
" id="DejaVuSans-82"/>
      <path d="M 45.40625 27.984375 
Q 45.40625 37.75 41.375 43.109375 
Q 37.359375 48.484375 30.078125 48.484375 
Q 22.859375 48.484375 18.828125 43.109375 
Q 14.796875 37.75 14.796875 27.984375 
Q 14.796875 18.265625 18.828125 12.890625 
Q 22.859375 7.515625 30.078125 7.515625 
Q 37.359375 7.515625 41.375 12.890625 
Q 45.40625 18.265625 45.40625 27.984375 
z
M 54.390625 6.78125 
Q 54.390625 -7.171875 48.1875 -13.984375 
Q 42 -20.796875 29.203125 -20.796875 
Q 24.46875 -20.796875 20.265625 -20.09375 
Q 16.0625 -19.390625 12.109375 -17.921875 
L 12.109375 -9.1875 
Q 16.0625 -11.328125 19.921875 -12.34375 
Q 23.78125 -13.375 27.78125 -13.375 
Q 36.625 -13.375 41.015625 -8.765625 
Q 45.40625 -4.15625 45.40625 5.171875 
L 45.40625 9.625 
Q 42.625 4.78125 38.28125 2.390625 
Q 33.9375 0 27.875 0 
Q 17.828125 0 11.671875 7.65625 
Q 5.515625 15.328125 5.515625 27.984375 
Q 5.515625 40.671875 11.671875 48.328125 
Q 17.828125 56 27.875 56 
Q 33.9375 56 38.28125 53.609375 
Q 42.625 51.21875 45.40625 46.390625 
L 45.40625 54.6875 
L 54.390625 54.6875 
z
" id="DejaVuSans-103"/>
      <path d="M 9.421875 54.6875 
L 18.40625 54.6875 
L 18.40625 0 
L 9.421875 0 
z
M 9.421875 75.984375 
L 18.40625 75.984375 
L 18.40625 64.59375 
L 9.421875 64.59375 
z
" id="DejaVuSans-105"/>
      <path d="M 41.109375 46.296875 
Q 39.59375 47.171875 37.8125 47.578125 
Q 36.03125 48 33.890625 48 
Q 26.265625 48 22.1875 43.046875 
Q 18.109375 38.09375 18.109375 28.8125 
L 18.109375 0 
L 9.078125 0 
L 9.078125 54.6875 
L 18.109375 54.6875 
L 18.109375 46.1875 
Q 20.953125 51.171875 25.484375 53.578125 
Q 30.03125 56 36.53125 56 
Q 37.453125 56 38.578125 55.875 
Q 39.703125 55.765625 41.0625 55.515625 
z
" id="DejaVuSans-114"/>
     </defs>
     <g transform="translate(17.745313 167.498979)rotate(-90)scale(0.1 -0.1)">
      <use xlink:href="#DejaVuSans-83"/>
      <use x="63.476562" xlink:href="#DejaVuSans-116"/>
      <use x="102.685547" xlink:href="#DejaVuSans-117"/>
      <use x="166.064453" xlink:href="#DejaVuSans-100"/>
      <use x="229.541016" xlink:href="#DejaVuSans-101"/>
      <use x="291.064453" xlink:href="#DejaVuSans-110"/>
      <use x="354.443359" xlink:href="#DejaVuSans-116"/>
      <use x="393.652344" xlink:href="#DejaVuSans-115"/>
      <use x="445.751953" xlink:href="#DejaVuSans-32"/>
      <use x="477.539062" xlink:href="#DejaVuSans-82"/>
      <use x="546.958984" xlink:href="#DejaVuSans-101"/>
      <use x="608.482422" xlink:href="#DejaVuSans-103"/>
      <use x="671.958984" xlink:href="#DejaVuSans-105"/>
      <use x="699.742188" xlink:href="#DejaVuSans-115"/>
      <use x="751.841797" xlink:href="#DejaVuSans-116"/>
      <use x="791.050781" xlink:href="#DejaVuSans-101"/>
      <use x="852.574219" xlink:href="#DejaVuSans-114"/>
      <use x="893.65625" xlink:href="#DejaVuSans-101"/>
      <use x="955.179688" xlink:href="#DejaVuSans-100"/>
     </g>
    </g>
   </g>
   <g id="line2d_18">
    <path clip-path="url(#p4c50a73bc9)" d="M 131.206137 196.670456 
L 133.00972 196.670456 
L 133.00972 182.534267 
L 133.099918 182.534267 
L 133.370463 182.534267 
L 133.370463 177.822204 
L 133.460672 177.822204 
L 133.731187 177.822204 
L 133.731187 158.973953 
L 133.821372 158.973953 
L 134.452686 158.973953 
L 134.452686 144.837764 
L 134.542863 144.837764 
L 135.174136 144.837764 
L 135.174136 116.565386 
L 135.264354 116.565386 
L 135.895596 116.565386 
L 135.895596 107.14126 
L 135.98578 107.14126 
L 136.256377 107.14126 
L 136.256377 102.429197 
L 136.346557 102.429197 
L 136.617078 102.429197 
L 136.617078 97.717134 
L 136.707282 97.717134 
L 137.338603 97.717134 
L 137.338603 93.005071 
L 137.428787 93.005071 
L 142.38878 93.005071 
L 142.38878 74.156819 
L 142.478989 74.156819 
L 143.11027 74.156819 
L 143.11027 69.444756 
L 143.200498 69.444756 
L 143.83179 69.444756 
L 143.83179 60.02063 
L 143.921897 60.02063 
L 144.192524 60.02063 
L 144.192524 55.308567 
L 144.282628 55.308567 
L 144.914 55.308567 
L 144.914 50.596504 
L 145.004099 50.596504 
L 152.489354 50.596504 
L 152.489354 45.884441 
L 152.579475 45.884441 
L 152.850025 45.884441 
L 152.850025 41.172378 
L 152.940255 41.172378 
L 153.210777 41.172378 
L 153.210777 36.460315 
L 153.300989 36.460315 
L 154.293024 36.460315 
L 154.293024 31.748252 
L 154.383123 31.748252 
L 177.379859 31.748252 
L 177.379859 22.324126 
L 177.470105 22.324126 
L 221.749983 22.324126 
L 221.749983 27.036189 
L 221.840171 27.036189 
L 223.914378 27.036189 
L 223.914378 22.324126 
L 224.004618 22.324126 
L 255.298161 22.324126 
L 255.298161 27.036189 
L 255.388302 27.036189 
L 258.184007 27.036189 
L 258.184007 22.324126 
L 258.274152 22.324126 
L 303.005 22.324126 
L 303.005 22.324126 
" style="fill:none;stroke:#1b9e77;stroke-linecap:square;stroke-width:1.5;"/>
   </g>
   <g id="line2d_19">
    <path clip-path="url(#p4c50a73bc9)" d="M 55.905 182.534267 
L 56.285076 182.534267 
L 56.285076 177.822204 
L 56.396169 177.822204 
L 58.151669 177.822204 
L 58.151669 173.110142 
L 63.923458 173.110142 
L 63.923458 168.398079 
L 64.470582 168.398079 
L 64.470582 163.686016 
L 64.560707 163.686016 
L 64.831294 163.686016 
L 64.831294 158.973953 
L 64.92152 158.973953 
L 65.91354 158.973953 
L 65.91354 144.837764 
L 66.003684 144.837764 
L 66.274195 144.837764 
L 66.274195 140.125701 
L 66.364443 140.125701 
L 73.488871 140.125701 
L 73.488871 130.701575 
L 73.579106 130.701575 
L 73.849601 130.701575 
L 73.849601 125.989512 
L 73.939747 125.989512 
L 74.210331 125.989512 
L 74.210331 130.701575 
L 74.300541 130.701575 
L 74.931855 130.701575 
L 74.931855 125.989512 
L 75.022014 125.989512 
L 75.292515 125.989512 
L 75.292515 116.565386 
L 75.382798 116.565386 
L 77.096222 116.565386 
L 77.096222 107.14126 
L 77.186375 107.14126 
L 81.064279 107.14126 
L 81.064279 102.429197 
L 81.154438 102.429197 
L 81.425005 102.429197 
L 81.425005 83.580945 
L 81.515175 83.580945 
L 81.785696 83.580945 
L 81.785696 74.156819 
L 81.875878 74.156819 
L 82.5072 74.156819 
L 82.5072 69.444756 
L 82.597391 69.444756 
L 82.867922 69.444756 
L 82.867922 64.732693 
L 82.958139 64.732693 
L 83.228664 64.732693 
L 83.228664 60.02063 
L 83.318858 60.02063 
L 83.589395 60.02063 
L 83.589395 45.884441 
L 83.679627 45.884441 
L 83.950118 45.884441 
L 83.950118 41.172378 
L 84.040335 41.172378 
L 84.310871 41.172378 
L 84.310871 36.460315 
L 84.401069 36.460315 
L 90.443277 36.460315 
L 90.443277 27.036189 
L 90.533463 27.036189 
L 90.804088 27.036189 
L 90.804088 22.324126 
L 90.894214 22.324126 
L 133.370463 22.324126 
L 133.370463 27.036189 
L 133.460672 27.036189 
L 133.731187 27.036189 
L 133.731187 22.324126 
L 133.821372 22.324126 
L 303.005 22.324126 
L 303.005 22.324126 
" style="fill:none;stroke:#d95f02;stroke-linecap:square;stroke-width:1.5;"/>
   </g>
   <g id="line2d_20">
    <path clip-path="url(#p4c50a73bc9)" d="M 55.905 201.382519 
L 65.552826 201.382519 
L 65.552826 196.670456 
L 65.642941 196.670456 
L 72.767455 196.670456 
L 72.767455 191.958393 
L 72.857645 191.958393 
L 73.128173 191.958393 
L 73.128173 187.24633 
L 73.21836 187.24633 
L 73.488871 187.24633 
L 73.488871 177.822204 
L 73.579106 177.822204 
L 73.849601 177.822204 
L 73.849601 173.110142 
L 73.939747 173.110142 
L 74.210331 173.110142 
L 74.210331 168.398079 
L 74.300541 168.398079 
L 74.571068 168.398079 
L 74.571068 163.686016 
L 74.661233 163.686016 
L 75.292515 163.686016 
L 75.292515 158.973953 
L 75.382798 158.973953 
L 81.425005 158.973953 
L 81.425005 149.549827 
L 81.515175 149.549827 
L 81.785696 149.549827 
L 81.785696 144.837764 
L 81.875878 144.837764 
L 83.228664 144.837764 
L 83.228664 140.125701 
L 83.318858 140.125701 
L 83.589395 140.125701 
L 83.589395 130.701575 
L 83.679627 130.701575 
L 116.416108 130.701575 
L 116.416108 125.989512 
L 116.506201 125.989512 
L 116.776805 125.989512 
L 116.776805 121.277449 
L 116.866941 121.277449 
L 117.13756 121.277449 
L 117.13756 116.565386 
L 117.227714 116.565386 
L 117.498254 116.565386 
L 117.498254 111.853323 
L 117.588431 111.853323 
L 117.859024 111.853323 
L 117.859024 102.429197 
L 117.949185 102.429197 
L 118.219762 102.429197 
L 118.219762 97.717134 
L 118.309931 97.717134 
L 124.712902 97.717134 
L 124.803091 83.580945 
L 124.803091 83.580945 
L 125.434385 83.580945 
L 125.434385 74.156819 
L 125.524555 74.156819 
L 126.516592 74.156819 
L 126.516592 69.444756 
L 126.606761 69.444756 
L 126.877327 69.444756 
L 126.877327 60.02063 
L 126.967516 60.02063 
L 127.238056 60.02063 
L 127.238056 36.460315 
L 127.328227 36.460315 
L 127.598734 36.460315 
L 127.598734 22.324126 
L 127.689003 22.324126 
L 133.00972 22.324126 
L 133.00972 27.036189 
L 133.099918 27.036189 
L 133.731187 27.036189 
L 133.731187 22.324126 
L 133.821372 22.324126 
L 221.028492 22.324126 
L 221.028492 27.036189 
L 221.118739 27.036189 
L 221.3893 27.036189 
L 221.3893 22.324126 
L 221.479498 22.324126 
L 237.261557 22.324126 
L 237.261557 27.036189 
L 237.35165 27.036189 
L 237.982924 27.036189 
L 237.982924 22.324126 
L 238.073107 22.324126 
L 238.704414 22.324126 
L 238.704414 27.036189 
L 238.79461 27.036189 
L 240.147422 27.036189 
L 240.147422 22.324126 
L 240.237551 22.324126 
L 303.005 22.324126 
L 303.005 22.324126 
" style="fill:none;stroke:#7570b3;stroke-linecap:square;stroke-width:1.5;"/>
   </g>
   <g id="line2d_21">
    <path clip-path="url(#p4c50a73bc9)" d="M 55.905 210.806645 
L 56.285076 210.806645 
L 56.285076 201.382519 
L 56.396169 201.382519 
L 57.977382 201.382519 
L 57.977382 196.670456 
L 58.085581 196.670456 
L 66.274195 196.670456 
L 66.274195 191.958393 
L 66.364443 191.958393 
L 73.128173 191.958393 
L 73.128173 177.822204 
L 73.21836 177.822204 
L 73.488871 177.822204 
L 73.488871 173.110142 
L 73.579106 173.110142 
L 73.849601 173.110142 
L 73.849601 154.26189 
L 73.939747 154.26189 
L 74.210331 154.26189 
L 74.210331 149.549827 
L 74.300541 149.549827 
L 74.571068 149.549827 
L 74.571068 140.125701 
L 74.661233 140.125701 
L 74.931855 140.125701 
L 74.931855 125.989512 
L 75.022014 125.989512 
L 81.425005 125.989512 
L 81.425005 121.277449 
L 81.515175 121.277449 
L 81.785696 121.277449 
L 81.785696 116.565386 
L 81.875878 116.565386 
L 82.867922 116.565386 
L 82.867922 111.853323 
L 82.958139 111.853323 
L 83.589395 111.853323 
L 83.589395 97.717134 
L 83.679627 97.717134 
L 83.950118 97.717134 
L 83.950118 93.005071 
L 84.040335 93.005071 
L 91.164757 93.005071 
L 91.164757 88.293008 
L 91.254954 88.293008 
L 91.525478 88.293008 
L 91.525478 83.580945 
L 91.615697 83.580945 
L 92.246994 83.580945 
L 92.246994 78.868882 
L 92.337124 78.868882 
L 93.32917 78.868882 
L 93.32917 74.156819 
L 93.419402 74.156819 
L 99.461676 74.156819 
L 99.461676 69.444756 
L 99.551817 69.444756 
L 116.416108 69.444756 
L 116.416108 45.884441 
L 116.506201 45.884441 
L 116.776805 45.884441 
L 116.776805 36.460315 
L 116.866941 36.460315 
L 117.13756 36.460315 
L 117.13756 31.748252 
L 117.227714 31.748252 
L 238.704414 31.748252 
L 238.704414 36.460315 
L 238.79461 36.460315 
L 239.065135 36.460315 
L 239.065135 31.748252 
L 239.155318 31.748252 
L 258.544696 31.748252 
L 258.544696 36.460315 
L 258.634941 36.460315 
L 258.905454 36.460315 
L 258.905454 31.748252 
L 258.995667 31.748252 
L 303.005 31.748252 
L 303.005 31.748252 
" style="fill:none;stroke:#e7298a;stroke-linecap:square;stroke-width:1.5;"/>
   </g>
   <g id="line2d_22">
    <path clip-path="url(#p4c50a73bc9)" d="M 55.905 191.958393 
L 73.128173 191.958393 
L 73.128173 187.24633 
L 73.21836 187.24633 
L 74.931855 187.24633 
L 74.931855 182.534267 
L 75.022014 182.534267 
L 75.653296 182.534267 
L 75.653296 177.822204 
L 75.743444 177.822204 
L 82.5072 177.822204 
L 82.5072 173.110142 
L 82.597391 173.110142 
L 83.228664 173.110142 
L 83.228664 168.398079 
L 83.318858 168.398079 
L 90.443277 168.398079 
L 90.443277 163.686016 
L 90.533463 163.686016 
L 116.055324 163.686016 
L 116.055324 154.26189 
L 116.145559 154.26189 
L 116.416108 154.26189 
L 116.416108 144.837764 
L 116.506201 144.837764 
L 117.498254 144.837764 
L 117.498254 140.125701 
L 117.588431 140.125701 
L 118.941219 140.125701 
L 118.941219 135.413638 
L 119.031381 135.413638 
L 125.434385 135.413638 
L 125.434385 130.701575 
L 125.524555 130.701575 
L 126.155788 130.701575 
L 126.155788 121.277449 
L 126.246051 121.277449 
L 126.877327 121.277449 
L 126.877327 116.565386 
L 126.967516 116.565386 
L 129.041727 116.565386 
L 129.041727 111.853323 
L 129.131893 111.853323 
L 133.00972 111.853323 
L 133.00972 107.14126 
L 133.099918 107.14126 
L 133.731187 107.14126 
L 133.731187 102.429197 
L 133.821372 102.429197 
L 134.091916 102.429197 
L 134.091916 93.005071 
L 134.182106 93.005071 
L 134.813439 93.005071 
L 134.813439 88.293008 
L 134.903626 88.293008 
L 135.174136 88.293008 
L 135.264354 74.156819 
L 135.264354 74.156819 
L 135.534915 74.156819 
L 135.534915 64.732693 
L 135.625111 64.732693 
L 136.977789 64.732693 
L 136.977789 69.444756 
L 137.06796 69.444756 
L 142.38878 69.444756 
L 142.38878 60.02063 
L 142.478989 60.02063 
L 142.749601 60.02063 
L 142.749601 55.308567 
L 142.839694 55.308567 
L 143.471016 55.308567 
L 143.471016 50.596504 
L 143.561213 50.596504 
L 143.83179 50.596504 
L 143.83179 41.172378 
L 143.921897 41.172378 
L 144.192524 41.172378 
L 144.192524 36.460315 
L 144.282628 36.460315 
L 144.914 36.460315 
L 144.914 31.748252 
L 145.004099 31.748252 
L 303.005 31.748252 
L 303.005 31.748252 
" style="fill:none;stroke:#66a61e;stroke-linecap:square;stroke-width:1.5;"/>
   </g>
   <g id="line2d_23">
    <path clip-path="url(#p4c50a73bc9)" d="M 55.905 196.670456 
L 65.552826 196.670456 
L 65.552826 191.958393 
L 65.642941 191.958393 
L 72.767455 191.958393 
L 72.767455 187.24633 
L 72.857645 187.24633 
L 73.128173 187.24633 
L 73.128173 182.534267 
L 73.21836 182.534267 
L 73.849601 182.534267 
L 73.849601 177.822204 
L 73.939747 177.822204 
L 74.210331 177.822204 
L 74.210331 173.110142 
L 74.300541 173.110142 
L 74.571068 173.110142 
L 74.571068 163.686016 
L 74.661233 163.686016 
L 74.931855 163.686016 
L 74.931855 158.973953 
L 75.022014 158.973953 
L 75.292515 158.973953 
L 75.292515 154.26189 
L 75.382798 154.26189 
L 81.064279 154.26189 
L 81.064279 149.549827 
L 81.154438 149.549827 
L 81.425005 149.549827 
L 81.425005 140.125701 
L 81.515175 140.125701 
L 82.146411 140.125701 
L 82.146411 135.413638 
L 82.236601 135.413638 
L 82.5072 135.413638 
L 82.5072 125.989512 
L 82.597391 125.989512 
L 83.228664 125.989512 
L 83.228664 121.277449 
L 83.318858 121.277449 
L 83.950118 121.277449 
L 83.950118 116.565386 
L 84.040335 116.565386 
L 84.310871 116.565386 
L 84.310871 111.853323 
L 84.401069 111.853323 
L 90.804088 111.853323 
L 90.804088 107.14126 
L 90.894214 107.14126 
L 92.246994 107.14126 
L 92.246994 102.429197 
L 92.337124 102.429197 
L 101.625984 102.429197 
L 101.625984 97.717134 
L 101.716176 97.717134 
L 116.055324 97.717134 
L 116.055324 93.005071 
L 116.145559 93.005071 
L 117.13756 93.005071 
L 117.13756 78.868882 
L 117.227714 78.868882 
L 117.498254 78.868882 
L 117.498254 69.444756 
L 117.588431 69.444756 
L 117.859024 69.444756 
L 117.859024 60.02063 
L 117.949185 60.02063 
L 118.941219 60.02063 
L 118.941219 55.308567 
L 119.031381 55.308567 
L 123.991453 55.308567 
L 123.991453 50.596504 
L 124.081631 50.596504 
L 125.073627 50.596504 
L 125.073627 45.884441 
L 125.163793 45.884441 
L 125.434385 45.884441 
L 125.434385 41.172378 
L 125.524555 41.172378 
L 125.795094 41.172378 
L 125.795094 36.460315 
L 125.885287 36.460315 
L 126.877327 36.460315 
L 126.877327 31.748252 
L 126.967516 31.748252 
L 303.005 31.748252 
L 303.005 31.748252 
" style="fill:none;stroke:#e6ab02;stroke-linecap:square;stroke-width:1.5;"/>
   </g>
   <g id="line2d_24">
    <path clip-path="url(#p4c50a73bc9)" d="M 55.905 201.382519 
L 66.274195 201.382519 
L 66.274195 196.670456 
L 66.364443 196.670456 
L 73.128173 196.670456 
L 73.128173 191.958393 
L 73.21836 191.958393 
L 74.571068 191.958393 
L 74.571068 187.24633 
L 74.661233 187.24633 
L 82.146411 187.24633 
L 82.146411 177.822204 
L 82.236601 177.822204 
L 82.867922 177.822204 
L 82.867922 173.110142 
L 82.958139 173.110142 
L 83.589395 173.110142 
L 83.589395 168.398079 
L 83.679627 168.398079 
L 83.950118 168.398079 
L 83.950118 163.686016 
L 84.040335 163.686016 
L 92.246994 163.686016 
L 92.246994 158.973953 
L 92.337124 158.973953 
L 100.543839 158.973953 
L 100.543839 154.26189 
L 100.633981 154.26189 
L 116.416108 154.26189 
L 116.416108 144.837764 
L 116.506201 144.837764 
L 117.13756 144.837764 
L 117.13756 140.125701 
L 117.227714 140.125701 
L 118.941219 140.125701 
L 118.941219 135.413638 
L 119.031381 135.413638 
L 124.712902 135.413638 
L 124.712902 130.701575 
L 124.803091 130.701575 
L 126.516592 130.701575 
L 126.516592 125.989512 
L 126.606761 125.989512 
L 126.877327 125.989512 
L 126.877327 121.277449 
L 126.967516 121.277449 
L 127.238056 121.277449 
L 127.328227 107.14126 
L 127.328227 107.14126 
L 133.370463 107.14126 
L 133.370463 102.429197 
L 133.460672 102.429197 
L 133.731187 102.429197 
L 133.731187 93.005071 
L 133.821372 93.005071 
L 134.091916 93.005071 
L 134.091916 88.293008 
L 134.182106 88.293008 
L 134.452686 88.293008 
L 134.542863 74.156819 
L 134.542863 74.156819 
L 135.174136 74.156819 
L 135.174136 60.02063 
L 135.264354 60.02063 
L 135.534915 60.02063 
L 135.534915 50.596504 
L 135.625111 50.596504 
L 135.895596 50.596504 
L 135.895596 31.748252 
L 135.98578 31.748252 
L 136.256377 31.748252 
L 136.256377 27.036189 
L 136.346557 27.036189 
L 138.060055 27.036189 
L 138.060055 22.324126 
L 138.150238 22.324126 
L 237.261557 22.324126 
L 237.261557 27.036189 
L 237.35165 27.036189 
L 237.622286 27.036189 
L 237.622286 22.324126 
L 237.712464 22.324126 
L 238.343712 22.324126 
L 238.343712 27.036189 
L 238.433931 27.036189 
L 239.425868 27.036189 
L 239.425868 31.748252 
L 239.516126 31.748252 
L 240.147422 31.748252 
L 240.147422 36.460315 
L 240.237551 36.460315 
L 249.887135 36.460315 
L 249.887135 41.172378 
L 249.977362 41.172378 
L 271.1704 41.172378 
L 271.1704 36.460315 
L 271.260593 36.460315 
L 303.005 36.460315 
L 303.005 36.460315 
" style="fill:none;stroke:#a6761d;stroke-linecap:square;stroke-width:1.5;"/>
   </g>
   <g id="line2d_25">
    <path clip-path="url(#p4c50a73bc9)" d="M 55.905 201.382519 
L 73.488871 201.382519 
L 73.488871 196.670456 
L 73.579106 196.670456 
L 74.571068 196.670456 
L 74.571068 191.958393 
L 74.661233 191.958393 
L 82.5072 191.958393 
L 82.5072 187.24633 
L 82.597391 187.24633 
L 83.228664 187.24633 
L 83.228664 191.958393 
L 83.318858 191.958393 
L 83.589395 191.958393 
L 83.589395 182.534267 
L 83.679627 182.534267 
L 116.416108 182.534267 
L 116.416108 177.822204 
L 116.506201 177.822204 
L 117.13756 177.822204 
L 117.13756 173.110142 
L 117.227714 173.110142 
L 117.859024 173.110142 
L 117.859024 168.398079 
L 117.949185 168.398079 
L 118.219762 168.398079 
L 118.219762 163.686016 
L 118.309931 163.686016 
L 120.023366 163.686016 
L 120.023366 158.973953 
L 120.113526 158.973953 
L 125.795094 158.973953 
L 125.795094 154.26189 
L 125.885287 154.26189 
L 126.877327 154.26189 
L 126.877327 149.549827 
L 126.967516 149.549827 
L 127.238056 149.549827 
L 127.238056 144.837764 
L 127.328227 144.837764 
L 133.370463 144.837764 
L 133.370463 135.413638 
L 133.460672 135.413638 
L 133.731187 135.413638 
L 133.731187 130.701575 
L 133.821372 130.701575 
L 134.091916 130.701575 
L 134.182106 116.565386 
L 134.182106 116.565386 
L 135.534915 116.565386 
L 135.534915 111.853323 
L 135.625111 111.853323 
L 135.895596 111.853323 
L 135.895596 107.14126 
L 135.98578 107.14126 
L 136.256377 107.14126 
L 136.256377 111.853323 
L 136.346557 111.853323 
L 136.617078 111.853323 
L 136.617078 107.14126 
L 136.707282 107.14126 
L 136.977789 107.14126 
L 136.977789 102.429197 
L 137.06796 102.429197 
L 141.306639 102.429197 
L 141.306639 107.14126 
L 141.396753 107.14126 
L 142.38878 107.14126 
L 142.38878 93.005071 
L 142.478989 93.005071 
L 143.11027 93.005071 
L 143.11027 88.293008 
L 143.200498 88.293008 
L 143.83179 88.293008 
L 143.83179 69.444756 
L 143.921897 69.444756 
L 144.192524 69.444756 
L 144.192524 64.732693 
L 144.282628 64.732693 
L 152.128574 64.732693 
L 152.128574 60.02063 
L 152.218793 60.02063 
L 181.347991 60.02063 
L 181.347991 55.308567 
L 181.438119 55.308567 
L 187.119698 55.308567 
L 187.119698 50.596504 
L 187.209862 50.596504 
L 187.480387 50.596504 
L 187.480387 55.308567 
L 187.570554 55.308567 
L 188.201857 55.308567 
L 188.201857 50.596504 
L 188.292012 50.596504 
L 196.859499 50.596504 
L 196.859499 45.884441 
L 196.949777 45.884441 
L 211.64945 45.884441 
L 211.64945 50.596504 
L 211.739644 50.596504 
L 221.749983 50.596504 
L 221.749983 45.884441 
L 221.840171 45.884441 
L 237.261557 45.884441 
L 237.261557 50.596504 
L 237.35165 50.596504 
L 237.982924 50.596504 
L 237.982924 55.308567 
L 238.073107 55.308567 
L 239.065135 55.308567 
L 239.065135 60.02063 
L 239.155318 60.02063 
L 249.165666 60.02063 
L 249.165666 64.732693 
L 249.255824 64.732693 
L 264.677146 64.732693 
L 264.677146 69.444756 
L 264.767407 69.444756 
L 300.750495 69.444756 
L 300.750495 74.156819 
L 300.840658 74.156819 
L 303.005 74.156819 
L 303.005 74.156819 
" style="fill:none;stroke:#666666;stroke-linecap:square;stroke-width:1.5;"/>
   </g>
   <g id="line2d_26">
    <path clip-path="url(#p4c50a73bc9)" d="M 55.905 196.670456 
L 63.923458 196.670456 
L 63.923458 191.958393 
L 74.571068 191.958393 
L 74.571068 187.24633 
L 74.661233 187.24633 
L 81.785696 187.24633 
L 81.785696 182.534267 
L 81.875878 182.534267 
L 82.5072 182.534267 
L 82.5072 177.822204 
L 82.597391 177.822204 
L 83.589395 177.822204 
L 83.589395 173.110142 
L 83.679627 173.110142 
L 83.950118 173.110142 
L 83.950118 168.398079 
L 84.040335 168.398079 
L 86.114529 168.398079 
L 86.114529 163.686016 
L 86.204721 163.686016 
L 117.13756 163.686016 
L 117.13756 154.26189 
L 117.227714 154.26189 
L 125.434385 154.26189 
L 125.434385 149.549827 
L 125.524555 149.549827 
L 127.238056 149.549827 
L 127.238056 144.837764 
L 127.328227 144.837764 
L 128.320284 144.837764 
L 128.320284 140.125701 
L 128.410459 140.125701 
L 133.731187 140.125701 
L 133.731187 135.413638 
L 133.821372 135.413638 
L 134.091916 135.413638 
L 134.091916 125.989512 
L 134.182106 125.989512 
L 135.174136 125.989512 
L 135.174136 116.565386 
L 135.264354 116.565386 
L 143.11027 116.565386 
L 143.11027 111.853323 
L 143.200498 111.853323 
L 144.192524 111.853323 
L 144.192524 107.14126 
L 144.282628 107.14126 
L 145.274649 107.14126 
L 145.274649 102.429197 
L 145.364844 102.429197 
L 154.293024 102.429197 
L 154.293024 97.717134 
L 154.383123 97.717134 
L 179.183562 97.717134 
L 179.183562 93.005071 
L 179.273708 93.005071 
L 187.480387 93.005071 
L 187.480387 88.293008 
L 187.570554 88.293008 
L 196.859499 88.293008 
L 196.859499 93.005071 
L 196.949777 93.005071 
L 238.343712 93.005071 
L 238.343712 88.293008 
L 238.433931 88.293008 
L 238.704414 88.293008 
L 238.704414 93.005071 
L 238.79461 93.005071 
L 247.722767 93.005071 
L 247.722767 88.293008 
L 247.81296 88.293008 
L 303.005 88.293008 
L 303.005 88.293008 
" style="fill:none;stroke:#1b9e77;stroke-dasharray:4.5,1.5;stroke-dashoffset:0;stroke-width:1.5;"/>
   </g>
   <g id="line2d_27">
    <path clip-path="url(#p4c50a73bc9)" d="M 55.905 206.094582 
L 72.767455 206.094582 
L 72.767455 201.382519 
L 72.857645 201.382519 
L 73.128173 201.382519 
L 73.128173 196.670456 
L 73.21836 196.670456 
L 74.571068 196.670456 
L 74.571068 187.24633 
L 74.661233 187.24633 
L 81.425005 187.24633 
L 81.425005 182.534267 
L 81.515175 182.534267 
L 83.228664 182.534267 
L 83.228664 177.822204 
L 83.318858 177.822204 
L 83.589395 177.822204 
L 83.589395 173.110142 
L 83.679627 173.110142 
L 83.950118 173.110142 
L 83.950118 168.398079 
L 84.040335 168.398079 
L 116.776805 168.398079 
L 116.776805 163.686016 
L 116.866941 163.686016 
L 117.13756 163.686016 
L 117.13756 158.973953 
L 117.227714 158.973953 
L 117.498254 158.973953 
L 117.498254 149.549827 
L 117.588431 149.549827 
L 126.516592 149.549827 
L 126.516592 144.837764 
L 126.606761 144.837764 
L 126.877327 144.837764 
L 126.877327 140.125701 
L 126.967516 140.125701 
L 133.00972 140.125701 
L 133.00972 144.837764 
L 133.099918 144.837764 
L 134.091916 144.837764 
L 134.091916 135.413638 
L 134.182106 135.413638 
L 134.452686 135.413638 
L 134.452686 140.125701 
L 134.542863 140.125701 
L 134.813439 140.125701 
L 134.813439 135.413638 
L 134.903626 135.413638 
L 135.534915 135.413638 
L 135.534915 125.989512 
L 135.625111 125.989512 
L 135.895596 125.989512 
L 135.895596 121.277449 
L 135.98578 121.277449 
L 152.850025 121.277449 
L 152.850025 116.565386 
L 152.940255 116.565386 
L 153.932287 116.565386 
L 153.932287 111.853323 
L 154.022487 111.853323 
L 171.247402 111.853323 
L 171.247402 107.14126 
L 171.337627 107.14126 
L 204.074078 107.14126 
L 204.074078 102.429197 
L 204.164293 102.429197 
L 205.517007 102.429197 
L 205.517007 97.717134 
L 205.607218 97.717134 
L 212.731717 97.717134 
L 212.731717 93.005071 
L 212.821858 93.005071 
L 241.229615 93.005071 
L 241.229615 88.293008 
L 241.319777 88.293008 
L 303.005 88.293008 
L 303.005 88.293008 
" style="fill:none;stroke:#d95f02;stroke-dasharray:4.5,1.5;stroke-dashoffset:0;stroke-width:1.5;"/>
   </g>
   <g id="line2d_28">
    <path clip-path="url(#p4c50a73bc9)" d="M 55.905 206.094582 
L 73.488871 206.094582 
L 73.488871 201.382519 
L 73.579106 201.382519 
L 83.228664 201.382519 
L 83.228664 191.958393 
L 83.318858 191.958393 
L 116.055324 191.958393 
L 116.055324 187.24633 
L 116.145559 187.24633 
L 116.776805 187.24633 
L 116.776805 182.534267 
L 116.866941 182.534267 
L 117.859024 182.534267 
L 117.859024 177.822204 
L 117.949185 177.822204 
L 124.712902 177.822204 
L 124.712902 173.110142 
L 124.803091 173.110142 
L 125.073627 173.110142 
L 125.073627 163.686016 
L 125.163793 163.686016 
L 125.434385 163.686016 
L 125.434385 158.973953 
L 125.524555 158.973953 
L 126.155788 158.973953 
L 126.155788 154.26189 
L 126.246051 154.26189 
L 126.516592 154.26189 
L 126.516592 144.837764 
L 126.606761 144.837764 
L 126.877327 144.837764 
L 126.877327 135.413638 
L 126.967516 135.413638 
L 128.320284 135.413638 
L 128.320284 130.701575 
L 128.410459 130.701575 
L 129.041727 130.701575 
L 129.041727 125.989512 
L 129.131893 125.989512 
L 129.402393 125.989512 
L 129.402393 130.701575 
L 129.492671 130.701575 
L 132.649025 130.701575 
L 132.649025 135.413638 
L 132.739238 135.413638 
L 133.00972 135.413638 
L 133.00972 140.125701 
L 133.099918 140.125701 
L 133.370463 140.125701 
L 133.370463 135.413638 
L 133.460672 135.413638 
L 133.731187 135.413638 
L 133.731187 140.125701 
L 133.821372 140.125701 
L 134.091916 140.125701 
L 134.091916 135.413638 
L 134.182106 135.413638 
L 134.452686 135.413638 
L 134.452686 130.701575 
L 134.542863 130.701575 
L 135.174136 130.701575 
L 135.174136 135.413638 
L 135.264354 135.413638 
L 143.471016 135.413638 
L 143.471016 130.701575 
L 143.561213 130.701575 
L 144.192524 130.701575 
L 144.192524 125.989512 
L 144.282628 125.989512 
L 152.489354 125.989512 
L 152.489354 121.277449 
L 152.579475 121.277449 
L 155.014454 121.277449 
L 155.014454 116.565386 
L 155.104676 116.565386 
L 178.101352 116.565386 
L 178.101352 111.853323 
L 178.191485 111.853323 
L 178.46208 111.853323 
L 178.46208 107.14126 
L 178.552218 107.14126 
L 179.904975 107.14126 
L 179.904975 102.429197 
L 179.995266 102.429197 
L 196.859499 102.429197 
L 196.859499 97.717134 
L 196.949777 97.717134 
L 197.941602 97.717134 
L 197.941602 93.005071 
L 198.031873 93.005071 
L 215.978295 93.005071 
L 215.978295 88.293008 
L 216.068421 88.293008 
L 223.914378 88.293008 
L 223.914378 93.005071 
L 224.004618 93.005071 
L 237.982924 93.005071 
L 237.982924 97.717134 
L 238.073107 97.717134 
L 300.029012 97.717134 
L 300.029012 93.005071 
L 300.119167 93.005071 
L 303.005 93.005071 
L 303.005 93.005071 
" style="fill:none;stroke:#7570b3;stroke-dasharray:4.5,1.5;stroke-dashoffset:0;stroke-width:1.5;"/>
   </g>
   <g id="line2d_29">
    <path clip-path="url(#p4c50a73bc9)" d="M 55.905 210.806645 
L 65.192372 210.806645 
L 65.192372 206.094582 
L 65.282224 206.094582 
L 65.91354 206.094582 
L 65.91354 201.382519 
L 66.003684 201.382519 
L 74.210331 201.382519 
L 74.210331 196.670456 
L 74.300541 196.670456 
L 83.589395 196.670456 
L 83.589395 191.958393 
L 83.679627 191.958393 
L 89.361131 191.958393 
L 89.361131 187.24633 
L 89.451394 187.24633 
L 91.164757 187.24633 
L 91.164757 182.534267 
L 91.254954 182.534267 
L 91.886254 182.534267 
L 91.886254 177.822204 
L 91.976457 177.822204 
L 116.055324 177.822204 
L 116.055324 168.398079 
L 116.145559 168.398079 
L 116.776805 168.398079 
L 116.776805 163.686016 
L 116.866941 163.686016 
L 117.13756 163.686016 
L 117.13756 158.973953 
L 117.227714 158.973953 
L 117.498254 158.973953 
L 117.498254 154.26189 
L 117.588431 154.26189 
L 117.859024 154.26189 
L 117.859024 144.837764 
L 117.949185 144.837764 
L 118.219762 144.837764 
L 118.219762 140.125701 
L 118.309931 140.125701 
L 118.941219 140.125701 
L 118.941219 135.413638 
L 119.031381 135.413638 
L 119.662715 135.413638 
L 119.662715 130.701575 
L 119.752788 130.701575 
L 120.744816 130.701575 
L 120.744816 125.989512 
L 120.835001 125.989512 
L 124.712902 125.989512 
L 124.712902 121.277449 
L 124.803091 121.277449 
L 125.073627 121.277449 
L 125.073627 116.565386 
L 125.163793 116.565386 
L 125.434385 116.565386 
L 125.434385 102.429197 
L 125.524555 102.429197 
L 125.795094 102.429197 
L 125.795094 97.717134 
L 125.885287 97.717134 
L 126.155788 97.717134 
L 126.155788 93.005071 
L 126.246051 93.005071 
L 129.402393 93.005071 
L 129.402393 97.717134 
L 129.492671 97.717134 
L 134.091916 97.717134 
L 134.091916 93.005071 
L 134.182106 93.005071 
L 134.452686 93.005071 
L 134.452686 97.717134 
L 134.542863 97.717134 
L 134.813439 97.717134 
L 134.813439 93.005071 
L 134.903626 93.005071 
L 144.914 93.005071 
L 144.914 97.717134 
L 145.004099 97.717134 
L 145.274649 97.717134 
L 145.274649 93.005071 
L 145.364844 93.005071 
L 303.005 93.005071 
L 303.005 93.005071 
" style="fill:none;stroke:#e7298a;stroke-dasharray:4.5,1.5;stroke-dashoffset:0;stroke-width:1.5;"/>
   </g>
   <g id="line2d_30">
    <path clip-path="url(#p4c50a73bc9)" d="M 217.872107 210.806645 
L 221.028492 210.806645 
L 221.028492 206.094582 
L 221.118739 206.094582 
L 231.850548 206.094582 
L 231.850548 201.382519 
L 231.940703 201.382519 
L 237.261557 201.382519 
L 237.261557 182.534267 
L 237.35165 182.534267 
L 237.982924 182.534267 
L 237.982924 173.110142 
L 238.073107 173.110142 
L 238.704414 173.110142 
L 238.704414 158.973953 
L 238.79461 158.973953 
L 239.425868 158.973953 
L 239.425868 154.26189 
L 239.516126 154.26189 
L 246.640597 154.26189 
L 246.640597 149.549827 
L 246.730724 149.549827 
L 248.444239 149.549827 
L 248.444239 144.837764 
L 248.534365 144.837764 
L 249.165666 144.837764 
L 249.165666 140.125701 
L 249.255824 140.125701 
L 249.887135 140.125701 
L 249.887135 135.413638 
L 249.977362 135.413638 
L 250.24788 135.413638 
L 250.24788 130.701575 
L 250.338004 130.701575 
L 255.298161 130.701575 
L 255.298161 125.989512 
L 255.388302 125.989512 
L 258.544696 125.989512 
L 258.544696 121.277449 
L 258.634941 121.277449 
L 264.677146 121.277449 
L 264.677146 116.565386 
L 264.767407 116.565386 
L 303.005 116.565386 
L 303.005 116.565386 
" style="fill:none;stroke:#66a61e;stroke-dasharray:4.5,1.5;stroke-dashoffset:0;stroke-width:1.5;"/>
   </g>
   <g id="line2d_31">
    <path clip-path="url(#p4c50a73bc9)" d="M 55.905 206.094582 
L 73.849601 206.094582 
L 73.849601 196.670456 
L 73.939747 196.670456 
L 81.785696 196.670456 
L 81.785696 187.24633 
L 81.875878 187.24633 
L 82.146411 187.24633 
L 82.146411 182.534267 
L 82.236601 182.534267 
L 83.589395 182.534267 
L 83.589395 177.822204 
L 83.679627 177.822204 
L 83.950118 177.822204 
L 83.950118 173.110142 
L 84.040335 173.110142 
L 117.498254 173.110142 
L 117.498254 168.398079 
L 117.588431 168.398079 
L 117.859024 168.398079 
L 117.859024 163.686016 
L 117.949185 163.686016 
L 118.219762 163.686016 
L 118.219762 158.973953 
L 118.309931 158.973953 
L 119.30188 158.973953 
L 119.30188 154.26189 
L 119.392144 154.26189 
L 119.662715 154.26189 
L 119.662715 158.973953 
L 119.752788 158.973953 
L 124.712902 158.973953 
L 124.712902 140.125701 
L 124.803091 140.125701 
L 125.434385 140.125701 
L 125.434385 130.701575 
L 125.524555 130.701575 
L 125.795094 130.701575 
L 125.795094 125.989512 
L 125.885287 125.989512 
L 126.155788 125.989512 
L 126.155788 116.565386 
L 126.246051 116.565386 
L 303.005 116.565386 
L 303.005 116.565386 
" style="fill:none;stroke:#e6ab02;stroke-dasharray:4.5,1.5;stroke-dashoffset:0;stroke-width:1.5;"/>
   </g>
   <g id="line2d_32">
    <path clip-path="url(#p4c50a73bc9)" d="M 55.905 210.806645 
L 66.63492 210.806645 
L 66.63492 206.094582 
L 66.725143 206.094582 
L 68.077922 206.094582 
L 68.077922 201.382519 
L 68.168053 201.382519 
L 90.804088 201.382519 
L 90.804088 196.670456 
L 90.894214 196.670456 
L 116.055324 196.670456 
L 116.055324 191.958393 
L 116.145559 191.958393 
L 118.580441 191.958393 
L 118.580441 182.534267 
L 118.670606 182.534267 
L 125.434385 182.534267 
L 125.434385 177.822204 
L 125.524555 177.822204 
L 125.795094 177.822204 
L 125.795094 173.110142 
L 125.885287 173.110142 
L 126.877327 173.110142 
L 126.877327 163.686016 
L 126.967516 163.686016 
L 127.238056 163.686016 
L 127.238056 158.973953 
L 127.328227 158.973953 
L 129.402393 158.973953 
L 129.402393 154.26189 
L 129.492671 154.26189 
L 133.731187 154.26189 
L 133.731187 158.973953 
L 133.821372 158.973953 
L 134.452686 158.973953 
L 134.452686 154.26189 
L 134.542863 154.26189 
L 134.813439 154.26189 
L 134.813439 149.549827 
L 134.903626 149.549827 
L 135.534915 149.549827 
L 135.534915 144.837764 
L 135.625111 144.837764 
L 135.895596 144.837764 
L 135.895596 149.549827 
L 135.98578 149.549827 
L 136.256377 149.549827 
L 136.256377 144.837764 
L 136.346557 144.837764 
L 142.38878 144.837764 
L 142.38878 140.125701 
L 142.478989 140.125701 
L 153.932287 140.125701 
L 153.932287 135.413638 
L 154.022487 135.413638 
L 178.101352 135.413638 
L 178.101352 130.701575 
L 178.191485 130.701575 
L 212.370934 130.701575 
L 212.370934 125.989512 
L 212.46118 125.989512 
L 255.298161 125.989512 
L 255.298161 121.277449 
L 255.388302 121.277449 
L 300.750495 121.277449 
L 300.750495 116.565386 
L 300.840658 116.565386 
L 303.005 116.565386 
L 303.005 116.565386 
" style="fill:none;stroke:#a6761d;stroke-dasharray:4.5,1.5;stroke-dashoffset:0;stroke-width:1.5;"/>
   </g>
   <g id="line2d_33">
    <path clip-path="url(#p4c50a73bc9)" d="M 55.905 210.806645 
L 74.571068 210.806645 
L 74.571068 206.094582 
L 74.661233 206.094582 
L 74.931855 206.094582 
L 74.931855 201.382519 
L 75.022014 201.382519 
L 82.146411 201.382519 
L 82.146411 196.670456 
L 82.236601 196.670456 
L 83.950118 196.670456 
L 83.950118 191.958393 
L 84.040335 191.958393 
L 84.671583 191.958393 
L 84.671583 187.24633 
L 84.761785 187.24633 
L 85.393086 187.24633 
L 85.393086 182.534267 
L 85.483274 182.534267 
L 90.804088 182.534267 
L 90.804088 187.24633 
L 90.894214 187.24633 
L 116.416108 187.24633 
L 116.416108 182.534267 
L 116.506201 182.534267 
L 118.580441 182.534267 
L 118.580441 173.110142 
L 118.670606 173.110142 
L 125.073627 173.110142 
L 125.073627 168.398079 
L 125.163793 168.398079 
L 126.516592 168.398079 
L 126.516592 149.549827 
L 126.606761 149.549827 
L 126.877327 149.549827 
L 126.877327 144.837764 
L 126.967516 144.837764 
L 127.238056 144.837764 
L 127.238056 140.125701 
L 127.328227 140.125701 
L 237.982924 140.125701 
L 237.982924 144.837764 
L 238.073107 144.837764 
L 238.343712 144.837764 
L 238.343712 140.125701 
L 238.433931 140.125701 
L 303.005 140.125701 
L 303.005 140.125701 
" style="fill:none;stroke:#666666;stroke-dasharray:4.5,1.5;stroke-dashoffset:0;stroke-width:1.5;"/>
   </g>
   <g id="line2d_34"/>
   <g id="line2d_35"/>
   <g id="line2d_36"/>
   <g id="line2d_37"/>
   <g id="line2d_38"/>
   <g id="line2d_39"/>
   <g id="line2d_40"/>
   <g id="line2d_41"/>
   <g id="line2d_42"/>
   <g id="line2d_43"/>
   <g id="line2d_44"/>
   <g id="line2d_45"/>
   <g id="line2d_46"/>
   <g id="line2d_47"/>
   <g id="line2d_48"/>
   <g id="line2d_49"/>
   <g id="line2d_50"/>
   <g id="patch_3">
    <path d="M 43.55 220.230771 
L 43.55 12.9 
" style="fill:none;stroke:#000000;stroke-linecap:square;stroke-linejoin:miter;stroke-width:0.8;"/>
   </g>
   <g id="patch_4">
    <path d="M 315.36 220.230771 
L 315.36 12.9 
" style="fill:none;stroke:#000000;stroke-linecap:square;stroke-linejoin:miter;stroke-width:0.8;"/>
   </g>
   <g id="patch_5">
    <path d="M 43.55 220.230771 
L 315.36 220.230771 
" style="fill:none;stroke:#000000;stroke-linecap:square;stroke-linejoin:miter;stroke-width:0.8;"/>
   </g>
   <g id="patch_6">
    <path d="M 43.55 12.9 
L 315.36 12.9 
" style="fill:none;stroke:#000000;stroke-linecap:square;stroke-linejoin:miter;stroke-width:0.8;"/>
   </g>
  </g>
  <g id="legend_1">
   <g id="patch_7">
    <path d="M 331.8625 262.528125 
L 420 262.528125 
Q 422 262.528125 422 260.528125 
L 422 12 
Q 422 10 420 10 
L 331.8625 10 
Q 329.8625 10 329.8625 12 
L 329.8625 260.528125 
Q 329.8625 262.528125 331.8625 262.528125 
z
" style="fill:#ffffff;opacity:0.8;stroke:#cccccc;stroke-linejoin:miter;"/>
   </g>
   <g id="text_20">
    <!-- 477/610 Reg. -->
    <defs>
     <path d="M 25.390625 72.90625 
L 33.6875 72.90625 
L 8.296875 -9.28125 
L 0 -9.28125 
z
" id="DejaVuSans-47"/>
     <path d="M 33.015625 40.375 
Q 26.375 40.375 22.484375 35.828125 
Q 18.609375 31.296875 18.609375 23.390625 
Q 18.609375 15.53125 22.484375 10.953125 
Q 26.375 6.390625 33.015625 6.390625 
Q 39.65625 6.390625 43.53125 10.953125 
Q 47.40625 15.53125 47.40625 23.390625 
Q 47.40625 31.296875 43.53125 35.828125 
Q 39.65625 40.375 33.015625 40.375 
z
M 52.59375 71.296875 
L 52.59375 62.3125 
Q 48.875 64.0625 45.09375 64.984375 
Q 41.3125 65.921875 37.59375 65.921875 
Q 27.828125 65.921875 22.671875 59.328125 
Q 17.53125 52.734375 16.796875 39.40625 
Q 19.671875 43.65625 24.015625 45.921875 
Q 28.375 48.1875 33.59375 48.1875 
Q 44.578125 48.1875 50.953125 41.515625 
Q 57.328125 34.859375 57.328125 23.390625 
Q 57.328125 12.15625 50.6875 5.359375 
Q 44.046875 -1.421875 33.015625 -1.421875 
Q 20.359375 -1.421875 13.671875 8.265625 
Q 6.984375 17.96875 6.984375 36.375 
Q 6.984375 53.65625 15.1875 63.9375 
Q 23.390625 74.21875 37.203125 74.21875 
Q 40.921875 74.21875 44.703125 73.484375 
Q 48.484375 72.75 52.59375 71.296875 
z
" id="DejaVuSans-54"/>
     <path d="M 10.6875 12.40625 
L 21 12.40625 
L 21 0 
L 10.6875 0 
z
" id="DejaVuSans-46"/>
    </defs>
    <g transform="translate(342.259375 21.598437)scale(0.1 -0.1)">
     <use xlink:href="#DejaVuSans-52"/>
     <use x="63.623047" xlink:href="#DejaVuSans-55"/>
     <use x="127.246094" xlink:href="#DejaVuSans-55"/>
     <use x="190.869141" xlink:href="#DejaVuSans-47"/>
     <use x="224.560547" xlink:href="#DejaVuSans-54"/>
     <use x="288.183594" xlink:href="#DejaVuSans-49"/>
     <use x="351.806641" xlink:href="#DejaVuSans-48"/>
     <use x="415.429688" xlink:href="#DejaVuSans-32"/>
     <use x="447.216797" xlink:href="#DejaVuSans-82"/>
     <use x="516.636719" xlink:href="#DejaVuSans-101"/>
     <use x="578.160156" xlink:href="#DejaVuSans-103"/>
     <use x="641.636719" xlink:href="#DejaVuSans-46"/>
    </g>
   </g>
   <g id="line2d_51">
    <path d="M 333.8625 32.776562 
L 353.8625 32.776562 
" style="fill:none;stroke:#1b9e77;stroke-linecap:square;stroke-width:1.5;"/>
   </g>
   <g id="line2d_52"/>
   <g id="text_21">
    <!-- AUS (40) -->
    <defs>
     <path d="M 34.1875 63.1875 
L 20.796875 26.90625 
L 47.609375 26.90625 
z
M 28.609375 72.90625 
L 39.796875 72.90625 
L 67.578125 0 
L 57.328125 0 
L 50.6875 18.703125 
L 17.828125 18.703125 
L 11.1875 0 
L 0.78125 0 
z
" id="DejaVuSans-65"/>
     <path d="M 8.6875 72.90625 
L 18.609375 72.90625 
L 18.609375 28.609375 
Q 18.609375 16.890625 22.84375 11.734375 
Q 27.09375 6.59375 36.625 6.59375 
Q 46.09375 6.59375 50.34375 11.734375 
Q 54.59375 16.890625 54.59375 28.609375 
L 54.59375 72.90625 
L 64.5 72.90625 
L 64.5 27.390625 
Q 64.5 13.140625 57.4375 5.859375 
Q 50.390625 -1.421875 36.625 -1.421875 
Q 22.796875 -1.421875 15.734375 5.859375 
Q 8.6875 13.140625 8.6875 27.390625 
z
" id="DejaVuSans-85"/>
     <path d="M 31 75.875 
Q 24.46875 64.65625 21.28125 53.65625 
Q 18.109375 42.671875 18.109375 31.390625 
Q 18.109375 20.125 21.3125 9.0625 
Q 24.515625 -2 31 -13.1875 
L 23.1875 -13.1875 
Q 15.875 -1.703125 12.234375 9.375 
Q 8.59375 20.453125 8.59375 31.390625 
Q 8.59375 42.28125 12.203125 53.3125 
Q 15.828125 64.359375 23.1875 75.875 
z
" id="DejaVuSans-40"/>
     <path d="M 8.015625 75.875 
L 15.828125 75.875 
Q 23.140625 64.359375 26.78125 53.3125 
Q 30.421875 42.28125 30.421875 31.390625 
Q 30.421875 20.453125 26.78125 9.375 
Q 23.140625 -1.703125 15.828125 -13.1875 
L 8.015625 -13.1875 
Q 14.5 -2 17.703125 9.0625 
Q 20.90625 20.125 20.90625 31.390625 
Q 20.90625 42.671875 17.703125 53.65625 
Q 14.5 64.65625 8.015625 75.875 
z
" id="DejaVuSans-41"/>
    </defs>
    <g transform="translate(361.8625 36.276562)scale(0.1 -0.1)">
     <use xlink:href="#DejaVuSans-65"/>
     <use x="68.408203" xlink:href="#DejaVuSans-85"/>
     <use x="141.601562" xlink:href="#DejaVuSans-83"/>
     <use x="205.078125" xlink:href="#DejaVuSans-32"/>
     <use x="236.865234" xlink:href="#DejaVuSans-40"/>
     <use x="275.878906" xlink:href="#DejaVuSans-52"/>
     <use x="339.501953" xlink:href="#DejaVuSans-48"/>
     <use x="403.125" xlink:href="#DejaVuSans-41"/>
    </g>
   </g>
   <g id="line2d_53">
    <path d="M 333.8625 47.454688 
L 353.8625 47.454688 
" style="fill:none;stroke:#d95f02;stroke-linecap:square;stroke-width:1.5;"/>
   </g>
   <g id="line2d_54"/>
   <g id="text_22">
    <!-- COML (40) -->
    <defs>
     <path d="M 64.40625 67.28125 
L 64.40625 56.890625 
Q 59.421875 61.53125 53.78125 63.8125 
Q 48.140625 66.109375 41.796875 66.109375 
Q 29.296875 66.109375 22.65625 58.46875 
Q 16.015625 50.828125 16.015625 36.375 
Q 16.015625 21.96875 22.65625 14.328125 
Q 29.296875 6.6875 41.796875 6.6875 
Q 48.140625 6.6875 53.78125 8.984375 
Q 59.421875 11.28125 64.40625 15.921875 
L 64.40625 5.609375 
Q 59.234375 2.09375 53.4375 0.328125 
Q 47.65625 -1.421875 41.21875 -1.421875 
Q 24.65625 -1.421875 15.125 8.703125 
Q 5.609375 18.84375 5.609375 36.375 
Q 5.609375 53.953125 15.125 64.078125 
Q 24.65625 74.21875 41.21875 74.21875 
Q 47.75 74.21875 53.53125 72.484375 
Q 59.328125 70.75 64.40625 67.28125 
z
" id="DejaVuSans-67"/>
     <path d="M 39.40625 66.21875 
Q 28.65625 66.21875 22.328125 58.203125 
Q 16.015625 50.203125 16.015625 36.375 
Q 16.015625 22.609375 22.328125 14.59375 
Q 28.65625 6.59375 39.40625 6.59375 
Q 50.140625 6.59375 56.421875 14.59375 
Q 62.703125 22.609375 62.703125 36.375 
Q 62.703125 50.203125 56.421875 58.203125 
Q 50.140625 66.21875 39.40625 66.21875 
z
M 39.40625 74.21875 
Q 54.734375 74.21875 63.90625 63.9375 
Q 73.09375 53.65625 73.09375 36.375 
Q 73.09375 19.140625 63.90625 8.859375 
Q 54.734375 -1.421875 39.40625 -1.421875 
Q 24.03125 -1.421875 14.8125 8.828125 
Q 5.609375 19.09375 5.609375 36.375 
Q 5.609375 53.65625 14.8125 63.9375 
Q 24.03125 74.21875 39.40625 74.21875 
z
" id="DejaVuSans-79"/>
     <path d="M 9.8125 72.90625 
L 24.515625 72.90625 
L 43.109375 23.296875 
L 61.8125 72.90625 
L 76.515625 72.90625 
L 76.515625 0 
L 66.890625 0 
L 66.890625 64.015625 
L 48.09375 14.015625 
L 38.1875 14.015625 
L 19.390625 64.015625 
L 19.390625 0 
L 9.8125 0 
z
" id="DejaVuSans-77"/>
     <path d="M 9.8125 72.90625 
L 19.671875 72.90625 
L 19.671875 8.296875 
L 55.171875 8.296875 
L 55.171875 0 
L 9.8125 0 
z
" id="DejaVuSans-76"/>
    </defs>
    <g transform="translate(361.8625 50.954688)scale(0.1 -0.1)">
     <use xlink:href="#DejaVuSans-67"/>
     <use x="69.824219" xlink:href="#DejaVuSans-79"/>
     <use x="148.535156" xlink:href="#DejaVuSans-77"/>
     <use x="234.814453" xlink:href="#DejaVuSans-76"/>
     <use x="290.527344" xlink:href="#DejaVuSans-32"/>
     <use x="322.314453" xlink:href="#DejaVuSans-40"/>
     <use x="361.328125" xlink:href="#DejaVuSans-52"/>
     <use x="424.951172" xlink:href="#DejaVuSans-48"/>
     <use x="488.574219" xlink:href="#DejaVuSans-41"/>
    </g>
   </g>
   <g id="line2d_55">
    <path d="M 333.8625 62.132812 
L 353.8625 62.132812 
" style="fill:none;stroke:#7570b3;stroke-linecap:square;stroke-width:1.5;"/>
   </g>
   <g id="line2d_56"/>
   <g id="text_23">
    <!-- GDD (40) -->
    <defs>
     <path d="M 59.515625 10.40625 
L 59.515625 29.984375 
L 43.40625 29.984375 
L 43.40625 38.09375 
L 69.28125 38.09375 
L 69.28125 6.78125 
Q 63.578125 2.734375 56.6875 0.65625 
Q 49.8125 -1.421875 42 -1.421875 
Q 24.90625 -1.421875 15.25 8.5625 
Q 5.609375 18.5625 5.609375 36.375 
Q 5.609375 54.25 15.25 64.234375 
Q 24.90625 74.21875 42 74.21875 
Q 49.125 74.21875 55.546875 72.453125 
Q 61.96875 70.703125 67.390625 67.28125 
L 67.390625 56.78125 
Q 61.921875 61.421875 55.765625 63.765625 
Q 49.609375 66.109375 42.828125 66.109375 
Q 29.4375 66.109375 22.71875 58.640625 
Q 16.015625 51.171875 16.015625 36.375 
Q 16.015625 21.625 22.71875 14.15625 
Q 29.4375 6.6875 42.828125 6.6875 
Q 48.046875 6.6875 52.140625 7.59375 
Q 56.25 8.5 59.515625 10.40625 
z
" id="DejaVuSans-71"/>
    </defs>
    <g transform="translate(361.8625 65.632812)scale(0.1 -0.1)">
     <use xlink:href="#DejaVuSans-71"/>
     <use x="77.490234" xlink:href="#DejaVuSans-68"/>
     <use x="154.492188" xlink:href="#DejaVuSans-68"/>
     <use x="231.494141" xlink:href="#DejaVuSans-32"/>
     <use x="263.28125" xlink:href="#DejaVuSans-40"/>
     <use x="302.294922" xlink:href="#DejaVuSans-52"/>
     <use x="365.917969" xlink:href="#DejaVuSans-48"/>
     <use x="429.541016" xlink:href="#DejaVuSans-41"/>
    </g>
   </g>
   <g id="line2d_57">
    <path d="M 333.8625 76.810937 
L 353.8625 76.810937 
" style="fill:none;stroke:#e7298a;stroke-linecap:square;stroke-width:1.5;"/>
   </g>
   <g id="line2d_58"/>
   <g id="text_24">
    <!-- AS (38) -->
    <defs>
     <path d="M 31.78125 34.625 
Q 24.75 34.625 20.71875 30.859375 
Q 16.703125 27.09375 16.703125 20.515625 
Q 16.703125 13.921875 20.71875 10.15625 
Q 24.75 6.390625 31.78125 6.390625 
Q 38.8125 6.390625 42.859375 10.171875 
Q 46.921875 13.96875 46.921875 20.515625 
Q 46.921875 27.09375 42.890625 30.859375 
Q 38.875 34.625 31.78125 34.625 
z
M 21.921875 38.8125 
Q 15.578125 40.375 12.03125 44.71875 
Q 8.5 49.078125 8.5 55.328125 
Q 8.5 64.0625 14.71875 69.140625 
Q 20.953125 74.21875 31.78125 74.21875 
Q 42.671875 74.21875 48.875 69.140625 
Q 55.078125 64.0625 55.078125 55.328125 
Q 55.078125 49.078125 51.53125 44.71875 
Q 48 40.375 41.703125 38.8125 
Q 48.828125 37.15625 52.796875 32.3125 
Q 56.78125 27.484375 56.78125 20.515625 
Q 56.78125 9.90625 50.3125 4.234375 
Q 43.84375 -1.421875 31.78125 -1.421875 
Q 19.734375 -1.421875 13.25 4.234375 
Q 6.78125 9.90625 6.78125 20.515625 
Q 6.78125 27.484375 10.78125 32.3125 
Q 14.796875 37.15625 21.921875 38.8125 
z
M 18.3125 54.390625 
Q 18.3125 48.734375 21.84375 45.5625 
Q 25.390625 42.390625 31.78125 42.390625 
Q 38.140625 42.390625 41.71875 45.5625 
Q 45.3125 48.734375 45.3125 54.390625 
Q 45.3125 60.0625 41.71875 63.234375 
Q 38.140625 66.40625 31.78125 66.40625 
Q 25.390625 66.40625 21.84375 63.234375 
Q 18.3125 60.0625 18.3125 54.390625 
z
" id="DejaVuSans-56"/>
    </defs>
    <g transform="translate(361.8625 80.310937)scale(0.1 -0.1)">
     <use xlink:href="#DejaVuSans-65"/>
     <use x="68.408203" xlink:href="#DejaVuSans-83"/>
     <use x="131.884766" xlink:href="#DejaVuSans-32"/>
     <use x="163.671875" xlink:href="#DejaVuSans-40"/>
     <use x="202.685547" xlink:href="#DejaVuSans-51"/>
     <use x="266.308594" xlink:href="#DejaVuSans-56"/>
     <use x="329.931641" xlink:href="#DejaVuSans-41"/>
    </g>
   </g>
   <g id="line2d_59">
    <path d="M 333.8625 91.489062 
L 353.8625 91.489062 
" style="fill:none;stroke:#66a61e;stroke-linecap:square;stroke-width:1.5;"/>
   </g>
   <g id="line2d_60"/>
   <g id="text_25">
    <!-- MD (38) -->
    <g transform="translate(361.8625 94.989062)scale(0.1 -0.1)">
     <use xlink:href="#DejaVuSans-77"/>
     <use x="86.279297" xlink:href="#DejaVuSans-68"/>
     <use x="163.28125" xlink:href="#DejaVuSans-32"/>
     <use x="195.068359" xlink:href="#DejaVuSans-40"/>
     <use x="234.082031" xlink:href="#DejaVuSans-51"/>
     <use x="297.705078" xlink:href="#DejaVuSans-56"/>
     <use x="361.328125" xlink:href="#DejaVuSans-41"/>
    </g>
   </g>
   <g id="line2d_61">
    <path d="M 333.8625 106.167188 
L 353.8625 106.167188 
" style="fill:none;stroke:#e6ab02;stroke-linecap:square;stroke-width:1.5;"/>
   </g>
   <g id="line2d_62"/>
   <g id="text_26">
    <!-- HPI (38) -->
    <defs>
     <path d="M 9.8125 72.90625 
L 19.671875 72.90625 
L 19.671875 43.015625 
L 55.515625 43.015625 
L 55.515625 72.90625 
L 65.375 72.90625 
L 65.375 0 
L 55.515625 0 
L 55.515625 34.71875 
L 19.671875 34.71875 
L 19.671875 0 
L 9.8125 0 
z
" id="DejaVuSans-72"/>
     <path d="M 19.671875 64.796875 
L 19.671875 37.40625 
L 32.078125 37.40625 
Q 38.96875 37.40625 42.71875 40.96875 
Q 46.484375 44.53125 46.484375 51.125 
Q 46.484375 57.671875 42.71875 61.234375 
Q 38.96875 64.796875 32.078125 64.796875 
z
M 9.8125 72.90625 
L 32.078125 72.90625 
Q 44.34375 72.90625 50.609375 67.359375 
Q 56.890625 61.8125 56.890625 51.125 
Q 56.890625 40.328125 50.609375 34.8125 
Q 44.34375 29.296875 32.078125 29.296875 
L 19.671875 29.296875 
L 19.671875 0 
L 9.8125 0 
z
" id="DejaVuSans-80"/>
     <path d="M 9.8125 72.90625 
L 19.671875 72.90625 
L 19.671875 0 
L 9.8125 0 
z
" id="DejaVuSans-73"/>
    </defs>
    <g transform="translate(361.8625 109.667188)scale(0.1 -0.1)">
     <use xlink:href="#DejaVuSans-72"/>
     <use x="75.195312" xlink:href="#DejaVuSans-80"/>
     <use x="135.498047" xlink:href="#DejaVuSans-73"/>
     <use x="164.990234" xlink:href="#DejaVuSans-32"/>
     <use x="196.777344" xlink:href="#DejaVuSans-40"/>
     <use x="235.791016" xlink:href="#DejaVuSans-51"/>
     <use x="299.414062" xlink:href="#DejaVuSans-56"/>
     <use x="363.037109" xlink:href="#DejaVuSans-41"/>
    </g>
   </g>
   <g id="line2d_63">
    <path d="M 333.8625 120.845312 
L 353.8625 120.845312 
" style="fill:none;stroke:#a6761d;stroke-linecap:square;stroke-width:1.5;"/>
   </g>
   <g id="line2d_64"/>
   <g id="text_27">
    <!-- SA (37) -->
    <g transform="translate(361.8625 124.345312)scale(0.1 -0.1)">
     <use xlink:href="#DejaVuSans-83"/>
     <use x="63.492188" xlink:href="#DejaVuSans-65"/>
     <use x="131.900391" xlink:href="#DejaVuSans-32"/>
     <use x="163.6875" xlink:href="#DejaVuSans-40"/>
     <use x="202.701172" xlink:href="#DejaVuSans-51"/>
     <use x="266.324219" xlink:href="#DejaVuSans-55"/>
     <use x="329.947266" xlink:href="#DejaVuSans-41"/>
    </g>
   </g>
   <g id="line2d_65">
    <path d="M 333.8625 135.523438 
L 353.8625 135.523438 
" style="fill:none;stroke:#666666;stroke-linecap:square;stroke-width:1.5;"/>
   </g>
   <g id="line2d_66"/>
   <g id="text_28">
    <!-- FIT (29) -->
    <defs>
     <path d="M 9.8125 72.90625 
L 51.703125 72.90625 
L 51.703125 64.59375 
L 19.671875 64.59375 
L 19.671875 43.109375 
L 48.578125 43.109375 
L 48.578125 34.8125 
L 19.671875 34.8125 
L 19.671875 0 
L 9.8125 0 
z
" id="DejaVuSans-70"/>
     <path d="M -0.296875 72.90625 
L 61.375 72.90625 
L 61.375 64.59375 
L 35.5 64.59375 
L 35.5 0 
L 25.59375 0 
L 25.59375 64.59375 
L -0.296875 64.59375 
z
" id="DejaVuSans-84"/>
    </defs>
    <g transform="translate(361.8625 139.023438)scale(0.1 -0.1)">
     <use xlink:href="#DejaVuSans-70"/>
     <use x="57.519531" xlink:href="#DejaVuSans-73"/>
     <use x="87.011719" xlink:href="#DejaVuSans-84"/>
     <use x="148.095703" xlink:href="#DejaVuSans-32"/>
     <use x="179.882812" xlink:href="#DejaVuSans-40"/>
     <use x="218.896484" xlink:href="#DejaVuSans-50"/>
     <use x="282.519531" xlink:href="#DejaVuSans-57"/>
     <use x="346.142578" xlink:href="#DejaVuSans-41"/>
    </g>
   </g>
   <g id="line2d_67">
    <path d="M 333.8625 150.201562 
L 353.8625 150.201562 
" style="fill:none;stroke:#1b9e77;stroke-dasharray:4.5,1.5;stroke-dashoffset:0;stroke-width:1.5;"/>
   </g>
   <g id="line2d_68"/>
   <g id="text_29">
    <!-- TBI (26) -->
    <defs>
     <path d="M 19.671875 34.8125 
L 19.671875 8.109375 
L 35.5 8.109375 
Q 43.453125 8.109375 47.28125 11.40625 
Q 51.125 14.703125 51.125 21.484375 
Q 51.125 28.328125 47.28125 31.5625 
Q 43.453125 34.8125 35.5 34.8125 
z
M 19.671875 64.796875 
L 19.671875 42.828125 
L 34.28125 42.828125 
Q 41.5 42.828125 45.03125 45.53125 
Q 48.578125 48.25 48.578125 53.8125 
Q 48.578125 59.328125 45.03125 62.0625 
Q 41.5 64.796875 34.28125 64.796875 
z
M 9.8125 72.90625 
L 35.015625 72.90625 
Q 46.296875 72.90625 52.390625 68.21875 
Q 58.5 63.53125 58.5 54.890625 
Q 58.5 48.1875 55.375 44.234375 
Q 52.25 40.28125 46.1875 39.3125 
Q 53.46875 37.75 57.5 32.78125 
Q 61.53125 27.828125 61.53125 20.40625 
Q 61.53125 10.640625 54.890625 5.3125 
Q 48.25 0 35.984375 0 
L 9.8125 0 
z
" id="DejaVuSans-66"/>
    </defs>
    <g transform="translate(361.8625 153.701562)scale(0.1 -0.1)">
     <use xlink:href="#DejaVuSans-84"/>
     <use x="61.083984" xlink:href="#DejaVuSans-66"/>
     <use x="129.6875" xlink:href="#DejaVuSans-73"/>
     <use x="159.179688" xlink:href="#DejaVuSans-32"/>
     <use x="190.966797" xlink:href="#DejaVuSans-40"/>
     <use x="229.980469" xlink:href="#DejaVuSans-50"/>
     <use x="293.603516" xlink:href="#DejaVuSans-54"/>
     <use x="357.226562" xlink:href="#DejaVuSans-41"/>
    </g>
   </g>
   <g id="line2d_69">
    <path d="M 333.8625 164.879687 
L 353.8625 164.879687 
" style="fill:none;stroke:#d95f02;stroke-dasharray:4.5,1.5;stroke-dashoffset:0;stroke-width:1.5;"/>
   </g>
   <g id="line2d_70"/>
   <g id="text_30">
    <!-- BP (26) -->
    <g transform="translate(361.8625 168.379687)scale(0.1 -0.1)">
     <use xlink:href="#DejaVuSans-66"/>
     <use x="68.603516" xlink:href="#DejaVuSans-80"/>
     <use x="128.90625" xlink:href="#DejaVuSans-32"/>
     <use x="160.693359" xlink:href="#DejaVuSans-40"/>
     <use x="199.707031" xlink:href="#DejaVuSans-50"/>
     <use x="263.330078" xlink:href="#DejaVuSans-54"/>
     <use x="326.953125" xlink:href="#DejaVuSans-41"/>
    </g>
   </g>
   <g id="line2d_71">
    <path d="M 333.8625 179.557812 
L 353.8625 179.557812 
" style="fill:none;stroke:#7570b3;stroke-dasharray:4.5,1.5;stroke-dashoffset:0;stroke-width:1.5;"/>
   </g>
   <g id="line2d_72"/>
   <g id="text_31">
    <!-- SPD (25) -->
    <g transform="translate(361.8625 183.057812)scale(0.1 -0.1)">
     <use xlink:href="#DejaVuSans-83"/>
     <use x="63.476562" xlink:href="#DejaVuSans-80"/>
     <use x="123.779297" xlink:href="#DejaVuSans-68"/>
     <use x="200.78125" xlink:href="#DejaVuSans-32"/>
     <use x="232.568359" xlink:href="#DejaVuSans-40"/>
     <use x="271.582031" xlink:href="#DejaVuSans-50"/>
     <use x="335.205078" xlink:href="#DejaVuSans-53"/>
     <use x="398.828125" xlink:href="#DejaVuSans-41"/>
    </g>
   </g>
   <g id="line2d_73">
    <path d="M 333.8625 194.235937 
L 353.8625 194.235937 
" style="fill:none;stroke:#e7298a;stroke-dasharray:4.5,1.5;stroke-dashoffset:0;stroke-width:1.5;"/>
   </g>
   <g id="line2d_74"/>
   <g id="text_32">
    <!-- CC (25) -->
    <g transform="translate(361.8625 197.735937)scale(0.1 -0.1)">
     <use xlink:href="#DejaVuSans-67"/>
     <use x="69.824219" xlink:href="#DejaVuSans-67"/>
     <use x="139.648438" xlink:href="#DejaVuSans-32"/>
     <use x="171.435547" xlink:href="#DejaVuSans-40"/>
     <use x="210.449219" xlink:href="#DejaVuSans-50"/>
     <use x="274.072266" xlink:href="#DejaVuSans-53"/>
     <use x="337.695312" xlink:href="#DejaVuSans-41"/>
    </g>
   </g>
   <g id="line2d_75">
    <path d="M 333.8625 208.914062 
L 353.8625 208.914062 
" style="fill:none;stroke:#66a61e;stroke-dasharray:4.5,1.5;stroke-dashoffset:0;stroke-width:1.5;"/>
   </g>
   <g id="line2d_76"/>
   <g id="text_33">
    <!-- RJPH (20) -->
    <defs>
     <path d="M 9.8125 72.90625 
L 19.671875 72.90625 
L 19.671875 5.078125 
Q 19.671875 -8.109375 14.671875 -14.0625 
Q 9.671875 -20.015625 -1.421875 -20.015625 
L -5.171875 -20.015625 
L -5.171875 -11.71875 
L -2.09375 -11.71875 
Q 4.4375 -11.71875 7.125 -8.046875 
Q 9.8125 -4.390625 9.8125 5.078125 
z
" id="DejaVuSans-74"/>
    </defs>
    <g transform="translate(361.8625 212.414062)scale(0.1 -0.1)">
     <use xlink:href="#DejaVuSans-82"/>
     <use x="69.482422" xlink:href="#DejaVuSans-74"/>
     <use x="98.974609" xlink:href="#DejaVuSans-80"/>
     <use x="159.277344" xlink:href="#DejaVuSans-72"/>
     <use x="234.472656" xlink:href="#DejaVuSans-32"/>
     <use x="266.259766" xlink:href="#DejaVuSans-40"/>
     <use x="305.273438" xlink:href="#DejaVuSans-50"/>
     <use x="368.896484" xlink:href="#DejaVuSans-48"/>
     <use x="432.519531" xlink:href="#DejaVuSans-41"/>
    </g>
   </g>
   <g id="line2d_77">
    <path d="M 333.8625 223.592187 
L 353.8625 223.592187 
" style="fill:none;stroke:#e6ab02;stroke-dasharray:4.5,1.5;stroke-dashoffset:0;stroke-width:1.5;"/>
   </g>
   <g id="line2d_78"/>
   <g id="text_34">
    <!-- AHR-H (20) -->
    <g transform="translate(361.8625 227.092187)scale(0.1 -0.1)">
     <use xlink:href="#DejaVuSans-65"/>
     <use x="68.408203" xlink:href="#DejaVuSans-72"/>
     <use x="143.603516" xlink:href="#DejaVuSans-82"/>
     <use x="213.023438" xlink:href="#DejaVuSans-45"/>
     <use x="249.107422" xlink:href="#DejaVuSans-72"/>
     <use x="324.302734" xlink:href="#DejaVuSans-32"/>
     <use x="356.089844" xlink:href="#DejaVuSans-40"/>
     <use x="395.103516" xlink:href="#DejaVuSans-50"/>
     <use x="458.726562" xlink:href="#DejaVuSans-48"/>
     <use x="522.349609" xlink:href="#DejaVuSans-41"/>
    </g>
   </g>
   <g id="line2d_79">
    <path d="M 333.8625 238.270312 
L 353.8625 238.270312 
" style="fill:none;stroke:#a6761d;stroke-dasharray:4.5,1.5;stroke-dashoffset:0;stroke-width:1.5;"/>
   </g>
   <g id="line2d_80"/>
   <g id="text_35">
    <!-- CB (20) -->
    <g transform="translate(361.8625 241.770312)scale(0.1 -0.1)">
     <use xlink:href="#DejaVuSans-67"/>
     <use x="69.824219" xlink:href="#DejaVuSans-66"/>
     <use x="138.427734" xlink:href="#DejaVuSans-32"/>
     <use x="170.214844" xlink:href="#DejaVuSans-40"/>
     <use x="209.228516" xlink:href="#DejaVuSans-50"/>
     <use x="272.851562" xlink:href="#DejaVuSans-48"/>
     <use x="336.474609" xlink:href="#DejaVuSans-41"/>
    </g>
   </g>
   <g id="line2d_81">
    <path d="M 333.8625 252.948437 
L 353.8625 252.948437 
" style="fill:none;stroke:#666666;stroke-dasharray:4.5,1.5;stroke-dashoffset:0;stroke-width:1.5;"/>
   </g>
   <g id="line2d_82"/>
   <g id="text_36">
    <!-- AHR-A (15) -->
    <g transform="translate(361.8625 256.448437)scale(0.1 -0.1)">
     <use xlink:href="#DejaVuSans-65"/>
     <use x="68.408203" xlink:href="#DejaVuSans-72"/>
     <use x="143.603516" xlink:href="#DejaVuSans-82"/>
     <use x="213.023438" xlink:href="#DejaVuSans-45"/>
     <use x="249.076172" xlink:href="#DejaVuSans-65"/>
     <use x="317.484375" xlink:href="#DejaVuSans-32"/>
     <use x="349.271484" xlink:href="#DejaVuSans-40"/>
     <use x="388.285156" xlink:href="#DejaVuSans-49"/>
     <use x="451.908203" xlink:href="#DejaVuSans-53"/>
     <use x="515.53125" xlink:href="#DejaVuSans-41"/>
    </g>
   </g>
  </g>
 </g>
 <defs>
  <clipPath id="p4c50a73bc9">
   <rect height="207.330771" width="271.81" x="43.55" y="12.9"/>
  </clipPath>
 </defs>
</svg>
