<?xml version="1.0" encoding="utf-8" standalone="no"?>
<!DOCTYPE svg PUBLIC "-//W3C//DTD SVG 1.1//EN"
  "http://www.w3.org/Graphics/SVG/1.1/DTD/svg11.dtd">
<!-- Created with matplotlib (https://matplotlib.org/) -->
<svg height="288pt" version="1.1" viewBox="0 0 432 288" width="432pt" xmlns="http://www.w3.org/2000/svg" xmlns:xlink="http://www.w3.org/1999/xlink">
 <defs>
  <style type="text/css">
*{stroke-linecap:butt;stroke-linejoin:round;}
  </style>
 </defs>
 <g id="figure_1">
  <g id="patch_1">
   <path d="M 0 288 
L 432 288 
L 432 0 
L 0 0 
z
" style="fill:#ffffff;"/>
  </g>
  <g id="axes_1">
   <g id="patch_2">
    <path d="M 43.55 220.230771 
L 315.36 220.230771 
L 315.36 12.9 
L 43.55 12.9 
z
" style="fill:#ffffff;"/>
   </g>
   <g id="matplotlib.axis_1">
    <g id="xtick_1">
     <g id="line2d_1">
      <defs>
       <path d="M 0 0 
L 0 3.5 
" id="md720d7955a" style="stroke:#000000;stroke-width:0.8;"/>
      </defs>
      <g>
       <use style="stroke:#000000;stroke-width:0.8;" x="49.08737" xlink:href="#md720d7955a" y="220.230771"/>
      </g>
     </g>
     <g id="text_1">
      <!-- 2020-11-29 -->
      <defs>
       <path d="M 19.1875 8.296875 
L 53.609375 8.296875 
L 53.609375 0 
L 7.328125 0 
L 7.328125 8.296875 
Q 12.9375 14.109375 22.625 23.890625 
Q 32.328125 33.6875 34.8125 36.53125 
Q 39.546875 41.84375 41.421875 45.53125 
Q 43.3125 49.21875 43.3125 52.78125 
Q 43.3125 58.59375 39.234375 62.25 
Q 35.15625 65.921875 28.609375 65.921875 
Q 23.96875 65.921875 18.8125 64.3125 
Q 13.671875 62.703125 7.8125 59.421875 
L 7.8125 69.390625 
Q 13.765625 71.78125 18.9375 73 
Q 24.125 74.21875 28.421875 74.21875 
Q 39.75 74.21875 46.484375 68.546875 
Q 53.21875 62.890625 53.21875 53.421875 
Q 53.21875 48.921875 51.53125 44.890625 
Q 49.859375 40.875 45.40625 35.40625 
Q 44.1875 33.984375 37.640625 27.21875 
Q 31.109375 20.453125 19.1875 8.296875 
z
" id="DejaVuSans-50"/>
       <path d="M 31.78125 66.40625 
Q 24.171875 66.40625 20.328125 58.90625 
Q 16.5 51.421875 16.5 36.375 
Q 16.5 21.390625 20.328125 13.890625 
Q 24.171875 6.390625 31.78125 6.390625 
Q 39.453125 6.390625 43.28125 13.890625 
Q 47.125 21.390625 47.125 36.375 
Q 47.125 51.421875 43.28125 58.90625 
Q 39.453125 66.40625 31.78125 66.40625 
z
M 31.78125 74.21875 
Q 44.046875 74.21875 50.515625 64.515625 
Q 56.984375 54.828125 56.984375 36.375 
Q 56.984375 17.96875 50.515625 8.265625 
Q 44.046875 -1.421875 31.78125 -1.421875 
Q 19.53125 -1.421875 13.0625 8.265625 
Q 6.59375 17.96875 6.59375 36.375 
Q 6.59375 54.828125 13.0625 64.515625 
Q 19.53125 74.21875 31.78125 74.21875 
z
" id="DejaVuSans-48"/>
       <path d="M 4.890625 31.390625 
L 31.203125 31.390625 
L 31.203125 23.390625 
L 4.890625 23.390625 
z
" id="DejaVuSans-45"/>
       <path d="M 12.40625 8.296875 
L 28.515625 8.296875 
L 28.515625 63.921875 
L 10.984375 60.40625 
L 10.984375 69.390625 
L 28.421875 72.90625 
L 38.28125 72.90625 
L 38.28125 8.296875 
L 54.390625 8.296875 
L 54.390625 0 
L 12.40625 0 
z
" id="DejaVuSans-49"/>
       <path d="M 10.984375 1.515625 
L 10.984375 10.5 
Q 14.703125 8.734375 18.5 7.8125 
Q 22.3125 6.890625 25.984375 6.890625 
Q 35.75 6.890625 40.890625 13.453125 
Q 46.046875 20.015625 46.78125 33.40625 
Q 43.953125 29.203125 39.59375 26.953125 
Q 35.25 24.703125 29.984375 24.703125 
Q 19.046875 24.703125 12.671875 31.3125 
Q 6.296875 37.9375 6.296875 49.421875 
Q 6.296875 60.640625 12.9375 67.421875 
Q 19.578125 74.21875 30.609375 74.21875 
Q 43.265625 74.21875 49.921875 64.515625 
Q 56.59375 54.828125 56.59375 36.375 
Q 56.59375 19.140625 48.40625 8.859375 
Q 40.234375 -1.421875 26.421875 -1.421875 
Q 22.703125 -1.421875 18.890625 -0.6875 
Q 15.09375 0.046875 10.984375 1.515625 
z
M 30.609375 32.421875 
Q 37.25 32.421875 41.125 36.953125 
Q 45.015625 41.5 45.015625 49.421875 
Q 45.015625 57.28125 41.125 61.84375 
Q 37.25 66.40625 30.609375 66.40625 
Q 23.96875 66.40625 20.09375 61.84375 
Q 16.21875 57.28125 16.21875 49.421875 
Q 16.21875 41.5 20.09375 36.953125 
Q 23.96875 32.421875 30.609375 32.421875 
z
" id="DejaVuSans-57"/>
      </defs>
      <g transform="translate(25.302254 262.869024)rotate(-30)scale(0.1 -0.1)">
       <use xlink:href="#DejaVuSans-50"/>
       <use x="63.623047" xlink:href="#DejaVuSans-48"/>
       <use x="127.246094" xlink:href="#DejaVuSans-50"/>
       <use x="190.869141" xlink:href="#DejaVuSans-48"/>
       <use x="254.492188" xlink:href="#DejaVuSans-45"/>
       <use x="290.576172" xlink:href="#DejaVuSans-49"/>
       <use x="354.199219" xlink:href="#DejaVuSans-49"/>
       <use x="417.822266" xlink:href="#DejaVuSans-45"/>
       <use x="453.90625" xlink:href="#DejaVuSans-50"/>
       <use x="517.529297" xlink:href="#DejaVuSans-57"/>
      </g>
     </g>
    </g>
    <g id="xtick_2">
     <g id="line2d_2">
      <g>
       <use style="stroke:#000000;stroke-width:0.8;" x="58.502611" xlink:href="#md720d7955a" y="220.230771"/>
      </g>
     </g>
     <g id="text_2">
      <!-- 2020-12-01 -->
      <g transform="translate(34.717494 262.869024)rotate(-30)scale(0.1 -0.1)">
       <use xlink:href="#DejaVuSans-50"/>
       <use x="63.623047" xlink:href="#DejaVuSans-48"/>
       <use x="127.246094" xlink:href="#DejaVuSans-50"/>
       <use x="190.869141" xlink:href="#DejaVuSans-48"/>
       <use x="254.492188" xlink:href="#DejaVuSans-45"/>
       <use x="290.576172" xlink:href="#DejaVuSans-49"/>
       <use x="354.199219" xlink:href="#DejaVuSans-50"/>
       <use x="417.822266" xlink:href="#DejaVuSans-45"/>
       <use x="453.90625" xlink:href="#DejaVuSans-48"/>
       <use x="517.529297" xlink:href="#DejaVuSans-49"/>
      </g>
     </g>
    </g>
    <g id="xtick_3">
     <g id="line2d_3">
      <g>
       <use style="stroke:#000000;stroke-width:0.8;" x="91.455952" xlink:href="#md720d7955a" y="220.230771"/>
      </g>
     </g>
     <g id="text_3">
      <!-- 2020-12-08 -->
      <defs>
       <path d="M 31.78125 34.625 
Q 24.75 34.625 20.71875 30.859375 
Q 16.703125 27.09375 16.703125 20.515625 
Q 16.703125 13.921875 20.71875 10.15625 
Q 24.75 6.390625 31.78125 6.390625 
Q 38.8125 6.390625 42.859375 10.171875 
Q 46.921875 13.96875 46.921875 20.515625 
Q 46.921875 27.09375 42.890625 30.859375 
Q 38.875 34.625 31.78125 34.625 
z
M 21.921875 38.8125 
Q 15.578125 40.375 12.03125 44.71875 
Q 8.5 49.078125 8.5 55.328125 
Q 8.5 64.0625 14.71875 69.140625 
Q 20.953125 74.21875 31.78125 74.21875 
Q 42.671875 74.21875 48.875 69.140625 
Q 55.078125 64.0625 55.078125 55.328125 
Q 55.078125 49.078125 51.53125 44.71875 
Q 48 40.375 41.703125 38.8125 
Q 48.828125 37.15625 52.796875 32.3125 
Q 56.78125 27.484375 56.78125 20.515625 
Q 56.78125 9.90625 50.3125 4.234375 
Q 43.84375 -1.421875 31.78125 -1.421875 
Q 19.734375 -1.421875 13.25 4.234375 
Q 6.78125 9.90625 6.78125 20.515625 
Q 6.78125 27.484375 10.78125 32.3125 
Q 14.796875 37.15625 21.921875 38.8125 
z
M 18.3125 54.390625 
Q 18.3125 48.734375 21.84375 45.5625 
Q 25.390625 42.390625 31.78125 42.390625 
Q 38.140625 42.390625 41.71875 45.5625 
Q 45.3125 48.734375 45.3125 54.390625 
Q 45.3125 60.0625 41.71875 63.234375 
Q 38.140625 66.40625 31.78125 66.40625 
Q 25.390625 66.40625 21.84375 63.234375 
Q 18.3125 60.0625 18.3125 54.390625 
z
" id="DejaVuSans-56"/>
      </defs>
      <g transform="translate(67.670836 262.869024)rotate(-30)scale(0.1 -0.1)">
       <use xlink:href="#DejaVuSans-50"/>
       <use x="63.623047" xlink:href="#DejaVuSans-48"/>
       <use x="127.246094" xlink:href="#DejaVuSans-50"/>
       <use x="190.869141" xlink:href="#DejaVuSans-48"/>
       <use x="254.492188" xlink:href="#DejaVuSans-45"/>
       <use x="290.576172" xlink:href="#DejaVuSans-49"/>
       <use x="354.199219" xlink:href="#DejaVuSans-50"/>
       <use x="417.822266" xlink:href="#DejaVuSans-45"/>
       <use x="453.90625" xlink:href="#DejaVuSans-48"/>
       <use x="517.529297" xlink:href="#DejaVuSans-56"/>
      </g>
     </g>
    </g>
    <g id="xtick_4">
     <g id="line2d_4">
      <g>
       <use style="stroke:#000000;stroke-width:0.8;" x="124.409293" xlink:href="#md720d7955a" y="220.230771"/>
      </g>
     </g>
     <g id="text_4">
      <!-- 2020-12-15 -->
      <defs>
       <path d="M 10.796875 72.90625 
L 49.515625 72.90625 
L 49.515625 64.59375 
L 19.828125 64.59375 
L 19.828125 46.734375 
Q 21.96875 47.46875 24.109375 47.828125 
Q 26.265625 48.1875 28.421875 48.1875 
Q 40.625 48.1875 47.75 41.5 
Q 54.890625 34.8125 54.890625 23.390625 
Q 54.890625 11.625 47.5625 5.09375 
Q 40.234375 -1.421875 26.90625 -1.421875 
Q 22.3125 -1.421875 17.546875 -0.640625 
Q 12.796875 0.140625 7.71875 1.703125 
L 7.71875 11.625 
Q 12.109375 9.234375 16.796875 8.0625 
Q 21.484375 6.890625 26.703125 6.890625 
Q 35.15625 6.890625 40.078125 11.328125 
Q 45.015625 15.765625 45.015625 23.390625 
Q 45.015625 31 40.078125 35.4375 
Q 35.15625 39.890625 26.703125 39.890625 
Q 22.75 39.890625 18.8125 39.015625 
Q 14.890625 38.140625 10.796875 36.28125 
z
" id="DejaVuSans-53"/>
      </defs>
      <g transform="translate(100.624177 262.869024)rotate(-30)scale(0.1 -0.1)">
       <use xlink:href="#DejaVuSans-50"/>
       <use x="63.623047" xlink:href="#DejaVuSans-48"/>
       <use x="127.246094" xlink:href="#DejaVuSans-50"/>
       <use x="190.869141" xlink:href="#DejaVuSans-48"/>
       <use x="254.492188" xlink:href="#DejaVuSans-45"/>
       <use x="290.576172" xlink:href="#DejaVuSans-49"/>
       <use x="354.199219" xlink:href="#DejaVuSans-50"/>
       <use x="417.822266" xlink:href="#DejaVuSans-45"/>
       <use x="453.90625" xlink:href="#DejaVuSans-49"/>
       <use x="517.529297" xlink:href="#DejaVuSans-53"/>
      </g>
     </g>
    </g>
    <g id="xtick_5">
     <g id="line2d_5">
      <g>
       <use style="stroke:#000000;stroke-width:0.8;" x="157.362635" xlink:href="#md720d7955a" y="220.230771"/>
      </g>
     </g>
     <g id="text_5">
      <!-- 2020-12-22 -->
      <g transform="translate(133.577518 262.869024)rotate(-30)scale(0.1 -0.1)">
       <use xlink:href="#DejaVuSans-50"/>
       <use x="63.623047" xlink:href="#DejaVuSans-48"/>
       <use x="127.246094" xlink:href="#DejaVuSans-50"/>
       <use x="190.869141" xlink:href="#DejaVuSans-48"/>
       <use x="254.492188" xlink:href="#DejaVuSans-45"/>
       <use x="290.576172" xlink:href="#DejaVuSans-49"/>
       <use x="354.199219" xlink:href="#DejaVuSans-50"/>
       <use x="417.822266" xlink:href="#DejaVuSans-45"/>
       <use x="453.90625" xlink:href="#DejaVuSans-50"/>
       <use x="517.529297" xlink:href="#DejaVuSans-50"/>
      </g>
     </g>
    </g>
    <g id="xtick_6">
     <g id="line2d_6">
      <g>
       <use style="stroke:#000000;stroke-width:0.8;" x="190.315976" xlink:href="#md720d7955a" y="220.230771"/>
      </g>
     </g>
     <g id="text_6">
      <!-- 2020-12-29 -->
      <g transform="translate(166.53086 262.869024)rotate(-30)scale(0.1 -0.1)">
       <use xlink:href="#DejaVuSans-50"/>
       <use x="63.623047" xlink:href="#DejaVuSans-48"/>
       <use x="127.246094" xlink:href="#DejaVuSans-50"/>
       <use x="190.869141" xlink:href="#DejaVuSans-48"/>
       <use x="254.492188" xlink:href="#DejaVuSans-45"/>
       <use x="290.576172" xlink:href="#DejaVuSans-49"/>
       <use x="354.199219" xlink:href="#DejaVuSans-50"/>
       <use x="417.822266" xlink:href="#DejaVuSans-45"/>
       <use x="453.90625" xlink:href="#DejaVuSans-50"/>
       <use x="517.529297" xlink:href="#DejaVuSans-57"/>
      </g>
     </g>
    </g>
    <g id="xtick_7">
     <g id="line2d_7">
      <g>
       <use style="stroke:#000000;stroke-width:0.8;" x="204.438837" xlink:href="#md720d7955a" y="220.230771"/>
      </g>
     </g>
     <g id="text_7">
      <!-- 2021-01-01 -->
      <g transform="translate(180.65372 262.869024)rotate(-30)scale(0.1 -0.1)">
       <use xlink:href="#DejaVuSans-50"/>
       <use x="63.623047" xlink:href="#DejaVuSans-48"/>
       <use x="127.246094" xlink:href="#DejaVuSans-50"/>
       <use x="190.869141" xlink:href="#DejaVuSans-49"/>
       <use x="254.492188" xlink:href="#DejaVuSans-45"/>
       <use x="290.576172" xlink:href="#DejaVuSans-48"/>
       <use x="354.199219" xlink:href="#DejaVuSans-49"/>
       <use x="417.822266" xlink:href="#DejaVuSans-45"/>
       <use x="453.90625" xlink:href="#DejaVuSans-48"/>
       <use x="517.529297" xlink:href="#DejaVuSans-49"/>
      </g>
     </g>
    </g>
    <g id="xtick_8">
     <g id="line2d_8">
      <g>
       <use style="stroke:#000000;stroke-width:0.8;" x="237.392178" xlink:href="#md720d7955a" y="220.230771"/>
      </g>
     </g>
     <g id="text_8">
      <!-- 2021-01-08 -->
      <g transform="translate(213.607062 262.869024)rotate(-30)scale(0.1 -0.1)">
       <use xlink:href="#DejaVuSans-50"/>
       <use x="63.623047" xlink:href="#DejaVuSans-48"/>
       <use x="127.246094" xlink:href="#DejaVuSans-50"/>
       <use x="190.869141" xlink:href="#DejaVuSans-49"/>
       <use x="254.492188" xlink:href="#DejaVuSans-45"/>
       <use x="290.576172" xlink:href="#DejaVuSans-48"/>
       <use x="354.199219" xlink:href="#DejaVuSans-49"/>
       <use x="417.822266" xlink:href="#DejaVuSans-45"/>
       <use x="453.90625" xlink:href="#DejaVuSans-48"/>
       <use x="517.529297" xlink:href="#DejaVuSans-56"/>
      </g>
     </g>
    </g>
    <g id="xtick_9">
     <g id="line2d_9">
      <g>
       <use style="stroke:#000000;stroke-width:0.8;" x="270.345519" xlink:href="#md720d7955a" y="220.230771"/>
      </g>
     </g>
     <g id="text_9">
      <!-- 2021-01-15 -->
      <g transform="translate(246.560403 262.869024)rotate(-30)scale(0.1 -0.1)">
       <use xlink:href="#DejaVuSans-50"/>
       <use x="63.623047" xlink:href="#DejaVuSans-48"/>
       <use x="127.246094" xlink:href="#DejaVuSans-50"/>
       <use x="190.869141" xlink:href="#DejaVuSans-49"/>
       <use x="254.492188" xlink:href="#DejaVuSans-45"/>
       <use x="290.576172" xlink:href="#DejaVuSans-48"/>
       <use x="354.199219" xlink:href="#DejaVuSans-49"/>
       <use x="417.822266" xlink:href="#DejaVuSans-45"/>
       <use x="453.90625" xlink:href="#DejaVuSans-49"/>
       <use x="517.529297" xlink:href="#DejaVuSans-53"/>
      </g>
     </g>
    </g>
    <g id="xtick_10">
     <g id="line2d_10">
      <g>
       <use style="stroke:#000000;stroke-width:0.8;" x="303.298861" xlink:href="#md720d7955a" y="220.230771"/>
      </g>
     </g>
     <g id="text_10">
      <!-- 2021-01-22 -->
      <g transform="translate(279.513744 262.869024)rotate(-30)scale(0.1 -0.1)">
       <use xlink:href="#DejaVuSans-50"/>
       <use x="63.623047" xlink:href="#DejaVuSans-48"/>
       <use x="127.246094" xlink:href="#DejaVuSans-50"/>
       <use x="190.869141" xlink:href="#DejaVuSans-49"/>
       <use x="254.492188" xlink:href="#DejaVuSans-45"/>
       <use x="290.576172" xlink:href="#DejaVuSans-48"/>
       <use x="354.199219" xlink:href="#DejaVuSans-49"/>
       <use x="417.822266" xlink:href="#DejaVuSans-45"/>
       <use x="453.90625" xlink:href="#DejaVuSans-50"/>
       <use x="517.529297" xlink:href="#DejaVuSans-50"/>
      </g>
     </g>
    </g>
    <g id="text_11">
     <!-- Date -->
     <defs>
      <path d="M 19.671875 64.796875 
L 19.671875 8.109375 
L 31.59375 8.109375 
Q 46.6875 8.109375 53.6875 14.9375 
Q 60.6875 21.78125 60.6875 36.53125 
Q 60.6875 51.171875 53.6875 57.984375 
Q 46.6875 64.796875 31.59375 64.796875 
z
M 9.8125 72.90625 
L 30.078125 72.90625 
Q 51.265625 72.90625 61.171875 64.09375 
Q 71.09375 55.28125 71.09375 36.53125 
Q 71.09375 17.671875 61.125 8.828125 
Q 51.171875 0 30.078125 0 
L 9.8125 0 
z
" id="DejaVuSans-68"/>
      <path d="M 34.28125 27.484375 
Q 23.390625 27.484375 19.1875 25 
Q 14.984375 22.515625 14.984375 16.5 
Q 14.984375 11.71875 18.140625 8.90625 
Q 21.296875 6.109375 26.703125 6.109375 
Q 34.1875 6.109375 38.703125 11.40625 
Q 43.21875 16.703125 43.21875 25.484375 
L 43.21875 27.484375 
z
M 52.203125 31.203125 
L 52.203125 0 
L 43.21875 0 
L 43.21875 8.296875 
Q 40.140625 3.328125 35.546875 0.953125 
Q 30.953125 -1.421875 24.3125 -1.421875 
Q 15.921875 -1.421875 10.953125 3.296875 
Q 6 8.015625 6 15.921875 
Q 6 25.140625 12.171875 29.828125 
Q 18.359375 34.515625 30.609375 34.515625 
L 43.21875 34.515625 
L 43.21875 35.40625 
Q 43.21875 41.609375 39.140625 45 
Q 35.0625 48.390625 27.6875 48.390625 
Q 23 48.390625 18.546875 47.265625 
Q 14.109375 46.140625 10.015625 43.890625 
L 10.015625 52.203125 
Q 14.9375 54.109375 19.578125 55.046875 
Q 24.21875 56 28.609375 56 
Q 40.484375 56 46.34375 49.84375 
Q 52.203125 43.703125 52.203125 31.203125 
z
" id="DejaVuSans-97"/>
      <path d="M 18.3125 70.21875 
L 18.3125 54.6875 
L 36.8125 54.6875 
L 36.8125 47.703125 
L 18.3125 47.703125 
L 18.3125 18.015625 
Q 18.3125 11.328125 20.140625 9.421875 
Q 21.96875 7.515625 27.59375 7.515625 
L 36.8125 7.515625 
L 36.8125 0 
L 27.59375 0 
Q 17.1875 0 13.234375 3.875 
Q 9.28125 7.765625 9.28125 18.015625 
L 9.28125 47.703125 
L 2.6875 47.703125 
L 2.6875 54.6875 
L 9.28125 54.6875 
L 9.28125 70.21875 
z
" id="DejaVuSans-116"/>
      <path d="M 56.203125 29.59375 
L 56.203125 25.203125 
L 14.890625 25.203125 
Q 15.484375 15.921875 20.484375 11.0625 
Q 25.484375 6.203125 34.421875 6.203125 
Q 39.59375 6.203125 44.453125 7.46875 
Q 49.3125 8.734375 54.109375 11.28125 
L 54.109375 2.78125 
Q 49.265625 0.734375 44.1875 -0.34375 
Q 39.109375 -1.421875 33.890625 -1.421875 
Q 20.796875 -1.421875 13.15625 6.1875 
Q 5.515625 13.8125 5.515625 26.8125 
Q 5.515625 40.234375 12.765625 48.109375 
Q 20.015625 56 32.328125 56 
Q 43.359375 56 49.78125 48.890625 
Q 56.203125 41.796875 56.203125 29.59375 
z
M 47.21875 32.234375 
Q 47.125 39.59375 43.09375 43.984375 
Q 39.0625 48.390625 32.421875 48.390625 
Q 24.90625 48.390625 20.390625 44.140625 
Q 15.875 39.890625 15.1875 32.171875 
z
" id="DejaVuSans-101"/>
     </defs>
     <g transform="translate(167.504219 276.268523)scale(0.1 -0.1)">
      <use xlink:href="#DejaVuSans-68"/>
      <use x="77.001953" xlink:href="#DejaVuSans-97"/>
      <use x="138.28125" xlink:href="#DejaVuSans-116"/>
      <use x="177.490234" xlink:href="#DejaVuSans-101"/>
     </g>
    </g>
   </g>
   <g id="matplotlib.axis_2">
    <g id="ytick_1">
     <g id="line2d_11">
      <defs>
       <path d="M 0 0 
L -3.5 0 
" id="m256c7882fa" style="stroke:#000000;stroke-width:0.8;"/>
      </defs>
      <g>
       <use style="stroke:#000000;stroke-width:0.8;" x="43.55" xlink:href="#m256c7882fa" y="210.806645"/>
      </g>
     </g>
     <g id="text_12">
      <!-- 0 -->
      <g transform="translate(30.1875 214.605864)scale(0.1 -0.1)">
       <use xlink:href="#DejaVuSans-48"/>
      </g>
     </g>
    </g>
    <g id="ytick_2">
     <g id="line2d_12">
      <g>
       <use style="stroke:#000000;stroke-width:0.8;" x="43.55" xlink:href="#m256c7882fa" y="187.24633"/>
      </g>
     </g>
     <g id="text_13">
      <!-- 5 -->
      <g transform="translate(30.1875 191.045549)scale(0.1 -0.1)">
       <use xlink:href="#DejaVuSans-53"/>
      </g>
     </g>
    </g>
    <g id="ytick_3">
     <g id="line2d_13">
      <g>
       <use style="stroke:#000000;stroke-width:0.8;" x="43.55" xlink:href="#m256c7882fa" y="163.686016"/>
      </g>
     </g>
     <g id="text_14">
      <!-- 10 -->
      <g transform="translate(23.825 167.485234)scale(0.1 -0.1)">
       <use xlink:href="#DejaVuSans-49"/>
       <use x="63.623047" xlink:href="#DejaVuSans-48"/>
      </g>
     </g>
    </g>
    <g id="ytick_4">
     <g id="line2d_14">
      <g>
       <use style="stroke:#000000;stroke-width:0.8;" x="43.55" xlink:href="#m256c7882fa" y="140.125701"/>
      </g>
     </g>
     <g id="text_15">
      <!-- 15 -->
      <g transform="translate(23.825 143.924919)scale(0.1 -0.1)">
       <use xlink:href="#DejaVuSans-49"/>
       <use x="63.623047" xlink:href="#DejaVuSans-53"/>
      </g>
     </g>
    </g>
    <g id="ytick_5">
     <g id="line2d_15">
      <g>
       <use style="stroke:#000000;stroke-width:0.8;" x="43.55" xlink:href="#m256c7882fa" y="116.565386"/>
      </g>
     </g>
     <g id="text_16">
      <!-- 20 -->
      <g transform="translate(23.825 120.364604)scale(0.1 -0.1)">
       <use xlink:href="#DejaVuSans-50"/>
       <use x="63.623047" xlink:href="#DejaVuSans-48"/>
      </g>
     </g>
    </g>
    <g id="ytick_6">
     <g id="line2d_16">
      <g>
       <use style="stroke:#000000;stroke-width:0.8;" x="43.55" xlink:href="#m256c7882fa" y="93.005071"/>
      </g>
     </g>
     <g id="text_17">
      <!-- 25 -->
      <g transform="translate(23.825 96.80429)scale(0.1 -0.1)">
       <use xlink:href="#DejaVuSans-50"/>
       <use x="63.623047" xlink:href="#DejaVuSans-53"/>
      </g>
     </g>
    </g>
    <g id="ytick_7">
     <g id="line2d_17">
      <g>
       <use style="stroke:#000000;stroke-width:0.8;" x="43.55" xlink:href="#m256c7882fa" y="69.444756"/>
      </g>
     </g>
     <g id="text_18">
      <!-- 30 -->
      <defs>
       <path d="M 40.578125 39.3125 
Q 47.65625 37.796875 51.625 33 
Q 55.609375 28.21875 55.609375 21.1875 
Q 55.609375 10.40625 48.1875 4.484375 
Q 40.765625 -1.421875 27.09375 -1.421875 
Q 22.515625 -1.421875 17.65625 -0.515625 
Q 12.796875 0.390625 7.625 2.203125 
L 7.625 11.71875 
Q 11.71875 9.328125 16.59375 8.109375 
Q 21.484375 6.890625 26.8125 6.890625 
Q 36.078125 6.890625 40.9375 10.546875 
Q 45.796875 14.203125 45.796875 21.1875 
Q 45.796875 27.640625 41.28125 31.265625 
Q 36.765625 34.90625 28.71875 34.90625 
L 20.21875 34.90625 
L 20.21875 43.015625 
L 29.109375 43.015625 
Q 36.375 43.015625 40.234375 45.921875 
Q 44.09375 48.828125 44.09375 54.296875 
Q 44.09375 59.90625 40.109375 62.90625 
Q 36.140625 65.921875 28.71875 65.921875 
Q 24.65625 65.921875 20.015625 65.03125 
Q 15.375 64.15625 9.8125 62.3125 
L 9.8125 71.09375 
Q 15.4375 72.65625 20.34375 73.4375 
Q 25.25 74.21875 29.59375 74.21875 
Q 40.828125 74.21875 47.359375 69.109375 
Q 53.90625 64.015625 53.90625 55.328125 
Q 53.90625 49.265625 50.4375 45.09375 
Q 46.96875 40.921875 40.578125 39.3125 
z
" id="DejaVuSans-51"/>
      </defs>
      <g transform="translate(23.825 73.243975)scale(0.1 -0.1)">
       <use xlink:href="#DejaVuSans-51"/>
       <use x="63.623047" xlink:href="#DejaVuSans-48"/>
      </g>
     </g>
    </g>
    <g id="ytick_8">
     <g id="line2d_18">
      <g>
       <use style="stroke:#000000;stroke-width:0.8;" x="43.55" xlink:href="#m256c7882fa" y="45.884441"/>
      </g>
     </g>
     <g id="text_19">
      <!-- 35 -->
      <g transform="translate(23.825 49.68366)scale(0.1 -0.1)">
       <use xlink:href="#DejaVuSans-51"/>
       <use x="63.623047" xlink:href="#DejaVuSans-53"/>
      </g>
     </g>
    </g>
    <g id="ytick_9">
     <g id="line2d_19">
      <g>
       <use style="stroke:#000000;stroke-width:0.8;" x="43.55" xlink:href="#m256c7882fa" y="22.324126"/>
      </g>
     </g>
     <g id="text_20">
      <!-- 40 -->
      <defs>
       <path d="M 37.796875 64.3125 
L 12.890625 25.390625 
L 37.796875 25.390625 
z
M 35.203125 72.90625 
L 47.609375 72.90625 
L 47.609375 25.390625 
L 58.015625 25.390625 
L 58.015625 17.1875 
L 47.609375 17.1875 
L 47.609375 0 
L 37.796875 0 
L 37.796875 17.1875 
L 4.890625 17.1875 
L 4.890625 26.703125 
z
" id="DejaVuSans-52"/>
      </defs>
      <g transform="translate(23.825 26.123345)scale(0.1 -0.1)">
       <use xlink:href="#DejaVuSans-52"/>
       <use x="63.623047" xlink:href="#DejaVuSans-48"/>
      </g>
     </g>
    </g>
    <g id="text_21">
     <!-- Students Registered -->
     <defs>
      <path d="M 53.515625 70.515625 
L 53.515625 60.890625 
Q 47.90625 63.578125 42.921875 64.890625 
Q 37.9375 66.21875 33.296875 66.21875 
Q 25.25 66.21875 20.875 63.09375 
Q 16.5 59.96875 16.5 54.203125 
Q 16.5 49.359375 19.40625 46.890625 
Q 22.3125 44.4375 30.421875 42.921875 
L 36.375 41.703125 
Q 47.40625 39.59375 52.65625 34.296875 
Q 57.90625 29 57.90625 20.125 
Q 57.90625 9.515625 50.796875 4.046875 
Q 43.703125 -1.421875 29.984375 -1.421875 
Q 24.8125 -1.421875 18.96875 -0.25 
Q 13.140625 0.921875 6.890625 3.21875 
L 6.890625 13.375 
Q 12.890625 10.015625 18.65625 8.296875 
Q 24.421875 6.59375 29.984375 6.59375 
Q 38.421875 6.59375 43.015625 9.90625 
Q 47.609375 13.234375 47.609375 19.390625 
Q 47.609375 24.75 44.3125 27.78125 
Q 41.015625 30.8125 33.5 32.328125 
L 27.484375 33.5 
Q 16.453125 35.6875 11.515625 40.375 
Q 6.59375 45.0625 6.59375 53.421875 
Q 6.59375 63.09375 13.40625 68.65625 
Q 20.21875 74.21875 32.171875 74.21875 
Q 37.3125 74.21875 42.625 73.28125 
Q 47.953125 72.359375 53.515625 70.515625 
z
" id="DejaVuSans-83"/>
      <path d="M 8.5 21.578125 
L 8.5 54.6875 
L 17.484375 54.6875 
L 17.484375 21.921875 
Q 17.484375 14.15625 20.5 10.265625 
Q 23.53125 6.390625 29.59375 6.390625 
Q 36.859375 6.390625 41.078125 11.03125 
Q 45.3125 15.671875 45.3125 23.6875 
L 45.3125 54.6875 
L 54.296875 54.6875 
L 54.296875 0 
L 45.3125 0 
L 45.3125 8.40625 
Q 42.046875 3.421875 37.71875 1 
Q 33.40625 -1.421875 27.6875 -1.421875 
Q 18.265625 -1.421875 13.375 4.4375 
Q 8.5 10.296875 8.5 21.578125 
z
M 31.109375 56 
z
" id="DejaVuSans-117"/>
      <path d="M 45.40625 46.390625 
L 45.40625 75.984375 
L 54.390625 75.984375 
L 54.390625 0 
L 45.40625 0 
L 45.40625 8.203125 
Q 42.578125 3.328125 38.25 0.953125 
Q 33.9375 -1.421875 27.875 -1.421875 
Q 17.96875 -1.421875 11.734375 6.484375 
Q 5.515625 14.40625 5.515625 27.296875 
Q 5.515625 40.1875 11.734375 48.09375 
Q 17.96875 56 27.875 56 
Q 33.9375 56 38.25 53.625 
Q 42.578125 51.265625 45.40625 46.390625 
z
M 14.796875 27.296875 
Q 14.796875 17.390625 18.875 11.75 
Q 22.953125 6.109375 30.078125 6.109375 
Q 37.203125 6.109375 41.296875 11.75 
Q 45.40625 17.390625 45.40625 27.296875 
Q 45.40625 37.203125 41.296875 42.84375 
Q 37.203125 48.484375 30.078125 48.484375 
Q 22.953125 48.484375 18.875 42.84375 
Q 14.796875 37.203125 14.796875 27.296875 
z
" id="DejaVuSans-100"/>
      <path d="M 54.890625 33.015625 
L 54.890625 0 
L 45.90625 0 
L 45.90625 32.71875 
Q 45.90625 40.484375 42.875 44.328125 
Q 39.84375 48.1875 33.796875 48.1875 
Q 26.515625 48.1875 22.3125 43.546875 
Q 18.109375 38.921875 18.109375 30.90625 
L 18.109375 0 
L 9.078125 0 
L 9.078125 54.6875 
L 18.109375 54.6875 
L 18.109375 46.1875 
Q 21.34375 51.125 25.703125 53.5625 
Q 30.078125 56 35.796875 56 
Q 45.21875 56 50.046875 50.171875 
Q 54.890625 44.34375 54.890625 33.015625 
z
" id="DejaVuSans-110"/>
      <path d="M 44.28125 53.078125 
L 44.28125 44.578125 
Q 40.484375 46.53125 36.375 47.5 
Q 32.28125 48.484375 27.875 48.484375 
Q 21.1875 48.484375 17.84375 46.4375 
Q 14.5 44.390625 14.5 40.28125 
Q 14.5 37.15625 16.890625 35.375 
Q 19.28125 33.59375 26.515625 31.984375 
L 29.59375 31.296875 
Q 39.15625 29.25 43.1875 25.515625 
Q 47.21875 21.78125 47.21875 15.09375 
Q 47.21875 7.46875 41.1875 3.015625 
Q 35.15625 -1.421875 24.609375 -1.421875 
Q 20.21875 -1.421875 15.453125 -0.5625 
Q 10.6875 0.296875 5.421875 2 
L 5.421875 11.28125 
Q 10.40625 8.6875 15.234375 7.390625 
Q 20.0625 6.109375 24.8125 6.109375 
Q 31.15625 6.109375 34.5625 8.28125 
Q 37.984375 10.453125 37.984375 14.40625 
Q 37.984375 18.0625 35.515625 20.015625 
Q 33.0625 21.96875 24.703125 23.78125 
L 21.578125 24.515625 
Q 13.234375 26.265625 9.515625 29.90625 
Q 5.8125 33.546875 5.8125 39.890625 
Q 5.8125 47.609375 11.28125 51.796875 
Q 16.75 56 26.8125 56 
Q 31.78125 56 36.171875 55.265625 
Q 40.578125 54.546875 44.28125 53.078125 
z
" id="DejaVuSans-115"/>
      <path id="DejaVuSans-32"/>
      <path d="M 44.390625 34.1875 
Q 47.5625 33.109375 50.5625 29.59375 
Q 53.5625 26.078125 56.59375 19.921875 
L 66.609375 0 
L 56 0 
L 46.6875 18.703125 
Q 43.0625 26.03125 39.671875 28.421875 
Q 36.28125 30.8125 30.421875 30.8125 
L 19.671875 30.8125 
L 19.671875 0 
L 9.8125 0 
L 9.8125 72.90625 
L 32.078125 72.90625 
Q 44.578125 72.90625 50.734375 67.671875 
Q 56.890625 62.453125 56.890625 51.90625 
Q 56.890625 45.015625 53.6875 40.46875 
Q 50.484375 35.9375 44.390625 34.1875 
z
M 19.671875 64.796875 
L 19.671875 38.921875 
L 32.078125 38.921875 
Q 39.203125 38.921875 42.84375 42.21875 
Q 46.484375 45.515625 46.484375 51.90625 
Q 46.484375 58.296875 42.84375 61.546875 
Q 39.203125 64.796875 32.078125 64.796875 
z
" id="DejaVuSans-82"/>
      <path d="M 45.40625 27.984375 
Q 45.40625 37.75 41.375 43.109375 
Q 37.359375 48.484375 30.078125 48.484375 
Q 22.859375 48.484375 18.828125 43.109375 
Q 14.796875 37.75 14.796875 27.984375 
Q 14.796875 18.265625 18.828125 12.890625 
Q 22.859375 7.515625 30.078125 7.515625 
Q 37.359375 7.515625 41.375 12.890625 
Q 45.40625 18.265625 45.40625 27.984375 
z
M 54.390625 6.78125 
Q 54.390625 -7.171875 48.1875 -13.984375 
Q 42 -20.796875 29.203125 -20.796875 
Q 24.46875 -20.796875 20.265625 -20.09375 
Q 16.0625 -19.390625 12.109375 -17.921875 
L 12.109375 -9.1875 
Q 16.0625 -11.328125 19.921875 -12.34375 
Q 23.78125 -13.375 27.78125 -13.375 
Q 36.625 -13.375 41.015625 -8.765625 
Q 45.40625 -4.15625 45.40625 5.171875 
L 45.40625 9.625 
Q 42.625 4.78125 38.28125 2.390625 
Q 33.9375 0 27.875 0 
Q 17.828125 0 11.671875 7.65625 
Q 5.515625 15.328125 5.515625 27.984375 
Q 5.515625 40.671875 11.671875 48.328125 
Q 17.828125 56 27.875 56 
Q 33.9375 56 38.28125 53.609375 
Q 42.625 51.21875 45.40625 46.390625 
L 45.40625 54.6875 
L 54.390625 54.6875 
z
" id="DejaVuSans-103"/>
      <path d="M 9.421875 54.6875 
L 18.40625 54.6875 
L 18.40625 0 
L 9.421875 0 
z
M 9.421875 75.984375 
L 18.40625 75.984375 
L 18.40625 64.59375 
L 9.421875 64.59375 
z
" id="DejaVuSans-105"/>
      <path d="M 41.109375 46.296875 
Q 39.59375 47.171875 37.8125 47.578125 
Q 36.03125 48 33.890625 48 
Q 26.265625 48 22.1875 43.046875 
Q 18.109375 38.09375 18.109375 28.8125 
L 18.109375 0 
L 9.078125 0 
L 9.078125 54.6875 
L 18.109375 54.6875 
L 18.109375 46.1875 
Q 20.953125 51.171875 25.484375 53.578125 
Q 30.03125 56 36.53125 56 
Q 37.453125 56 38.578125 55.875 
Q 39.703125 55.765625 41.0625 55.515625 
z
" id="DejaVuSans-114"/>
     </defs>
     <g transform="translate(17.745313 167.498979)rotate(-90)scale(0.1 -0.1)">
      <use xlink:href="#DejaVuSans-83"/>
      <use x="63.476562" xlink:href="#DejaVuSans-116"/>
      <use x="102.685547" xlink:href="#DejaVuSans-117"/>
      <use x="166.064453" xlink:href="#DejaVuSans-100"/>
      <use x="229.541016" xlink:href="#DejaVuSans-101"/>
      <use x="291.064453" xlink:href="#DejaVuSans-110"/>
      <use x="354.443359" xlink:href="#DejaVuSans-116"/>
      <use x="393.652344" xlink:href="#DejaVuSans-115"/>
      <use x="445.751953" xlink:href="#DejaVuSans-32"/>
      <use x="477.539062" xlink:href="#DejaVuSans-82"/>
      <use x="546.958984" xlink:href="#DejaVuSans-101"/>
      <use x="608.482422" xlink:href="#DejaVuSans-103"/>
      <use x="671.958984" xlink:href="#DejaVuSans-105"/>
      <use x="699.742188" xlink:href="#DejaVuSans-115"/>
      <use x="751.841797" xlink:href="#DejaVuSans-116"/>
      <use x="791.050781" xlink:href="#DejaVuSans-101"/>
      <use x="852.574219" xlink:href="#DejaVuSans-114"/>
      <use x="893.65625" xlink:href="#DejaVuSans-101"/>
      <use x="955.179688" xlink:href="#DejaVuSans-100"/>
     </g>
    </g>
   </g>
   <g id="line2d_20">
    <path clip-path="url(#p8b36f72a8a)" d="M 55.905 210.806645 
L 56.111669 210.806645 
L 56.111669 201.382519 
L 56.2211 201.382519 
L 57.031872 201.382519 
L 57.031872 196.670456 
L 57.126642 196.670456 
L 61.543321 196.670456 
L 61.543321 191.958393 
L 61.641393 191.958393 
L 65.270218 191.958393 
L 65.270218 177.822204 
L 65.368291 177.822204 
L 65.466349 177.822204 
L 65.466349 173.110142 
L 65.56444 173.110142 
L 65.662499 173.110142 
L 65.662499 154.26189 
L 65.760586 154.26189 
L 65.858649 154.26189 
L 65.858649 149.549827 
L 65.956722 149.549827 
L 66.054802 149.549827 
L 66.054802 140.125701 
L 66.152864 140.125701 
L 66.250982 140.125701 
L 66.250982 125.989512 
L 66.349053 125.989512 
L 69.781677 125.989512 
L 69.781677 121.277449 
L 69.879749 121.277449 
L 69.977805 121.277449 
L 69.977805 116.565386 
L 70.075878 116.565386 
L 70.566273 116.565386 
L 70.566273 111.853323 
L 70.664356 111.853323 
L 70.958578 111.853323 
L 70.958578 97.717134 
L 71.05664 97.717134 
L 71.154724 97.717134 
L 71.154724 93.005071 
L 71.252822 93.005071 
L 75.077733 93.005071 
L 75.077733 88.293008 
L 75.17583 88.293008 
L 75.273878 88.293008 
L 75.273878 83.580945 
L 75.371982 83.580945 
L 75.666207 83.580945 
L 75.666207 78.868882 
L 75.764272 78.868882 
L 76.254648 78.868882 
L 76.254648 74.156819 
L 76.352713 74.156819 
L 79.58924 74.156819 
L 79.58924 69.444756 
L 79.687279 69.444756 
L 88.808328 69.444756 
L 88.808328 45.884441 
L 88.906355 45.884441 
L 89.004459 45.884441 
L 89.004459 36.460315 
L 89.102504 36.460315 
L 89.200622 36.460315 
L 89.200622 31.748252 
L 89.298676 31.748252 
L 155.303428 31.748252 
L 155.303428 36.460315 
L 155.401521 36.460315 
L 155.499572 36.460315 
L 155.499572 31.748252 
L 155.597649 31.748252 
L 166.091716 31.748252 
L 166.091716 36.460315 
L 166.189825 36.460315 
L 166.287881 36.460315 
L 166.287881 31.748252 
L 166.385951 31.748252 
L 263.186423 31.748252 
L 263.186423 22.324126 
L 263.284461 22.324126 
L 303.005 22.324126 
L 303.005 22.324126 
" style="fill:none;stroke:#1b9e77;stroke-linecap:square;stroke-width:1.5;"/>
   </g>
   <g id="line2d_21">
    <path clip-path="url(#p8b36f72a8a)" d="M 96.850507 196.670456 
L 97.831217 196.670456 
L 97.831217 182.534267 
L 97.929456 182.534267 
L 98.027373 182.534267 
L 98.027373 177.822204 
L 98.125489 177.822204 
L 98.22352 177.822204 
L 98.22352 158.973953 
L 98.321635 158.973953 
L 98.61584 158.973953 
L 98.61584 144.837764 
L 98.713916 144.837764 
L 99.008133 144.837764 
L 99.008133 116.565386 
L 99.106228 116.565386 
L 99.400432 116.565386 
L 99.400432 107.14126 
L 99.498541 107.14126 
L 99.596609 107.14126 
L 99.596609 102.429197 
L 99.694705 102.429197 
L 99.792743 102.429197 
L 99.792743 97.717134 
L 99.890852 97.717134 
L 100.185077 97.717134 
L 100.185077 93.005071 
L 100.283106 93.005071 
L 102.931145 93.005071 
L 102.931145 74.156819 
L 103.029254 74.156819 
L 103.32346 74.156819 
L 103.32346 69.444756 
L 103.42152 69.444756 
L 103.715792 69.444756 
L 103.715792 60.02063 
L 103.813847 60.02063 
L 103.911943 60.02063 
L 103.911943 55.308567 
L 104.009993 55.308567 
L 104.30425 55.308567 
L 104.30425 50.596504 
L 104.402292 50.596504 
L 108.423401 50.596504 
L 108.423401 45.884441 
L 108.521457 45.884441 
L 108.619518 45.884441 
L 108.619518 41.172378 
L 108.717638 41.172378 
L 108.815679 41.172378 
L 108.815679 36.460315 
L 108.913778 36.460315 
L 109.404159 36.460315 
L 109.404159 31.748252 
L 109.502237 31.748252 
L 121.957783 31.748252 
L 121.957783 22.324126 
L 122.055882 22.324126 
L 146.08434 22.324126 
L 146.08434 27.036189 
L 146.182428 27.036189 
L 147.261244 27.036189 
L 147.261244 22.324126 
L 147.359324 22.324126 
L 164.326391 22.324126 
L 164.326391 27.036189 
L 164.42447 27.036189 
L 165.895589 27.036189 
L 165.895589 22.324126 
L 165.993676 22.324126 
L 292.805206 22.324126 
L 292.805206 27.036189 
L 292.90327 27.036189 
L 298.297417 27.036189 
L 298.297417 22.324126 
L 298.395481 22.324126 
L 303.005 22.324126 
L 303.005 22.324126 
" style="fill:none;stroke:#d95f02;stroke-linecap:square;stroke-width:1.5;"/>
   </g>
   <g id="line2d_22">
    <path clip-path="url(#p8b36f72a8a)" d="M 55.905 182.534267 
L 56.111669 182.534267 
L 56.111669 177.822204 
L 56.2211 177.822204 
L 57.126642 177.822204 
L 57.126642 173.110142 
L 60.265091 173.110142 
L 60.265091 168.398079 
L 60.562594 168.398079 
L 60.562594 163.686016 
L 60.66068 163.686016 
L 60.758733 163.686016 
L 60.758733 158.973953 
L 60.856826 158.973953 
L 61.347212 158.973953 
L 61.347212 144.837764 
L 61.445308 144.837764 
L 61.543321 144.837764 
L 61.543321 140.125701 
L 61.641393 140.125701 
L 65.466349 140.125701 
L 65.466349 130.701575 
L 65.56444 130.701575 
L 65.662499 130.701575 
L 65.662499 125.989512 
L 65.760586 125.989512 
L 65.858649 125.989512 
L 65.858649 130.701575 
L 65.956722 130.701575 
L 66.250982 130.701575 
L 66.250982 125.989512 
L 66.349053 125.989512 
L 66.447093 125.989512 
L 66.447093 116.565386 
L 66.545163 116.565386 
L 67.427872 116.565386 
L 67.427872 107.14126 
L 67.525958 107.14126 
L 69.58553 107.14126 
L 69.58553 102.429197 
L 69.683595 102.429197 
L 69.781677 102.429197 
L 69.781677 83.580945 
L 69.879749 83.580945 
L 69.977805 83.580945 
L 69.977805 74.156819 
L 70.075878 74.156819 
L 70.370128 74.156819 
L 70.370128 69.444756 
L 70.468206 69.444756 
L 70.566273 69.444756 
L 70.566273 64.732693 
L 70.664356 64.732693 
L 70.762429 64.732693 
L 70.762429 60.02063 
L 70.860515 60.02063 
L 70.958578 60.02063 
L 70.958578 45.884441 
L 71.05664 45.884441 
L 71.154724 45.884441 
L 71.154724 41.172378 
L 71.252822 41.172378 
L 71.350886 41.172378 
L 71.350886 36.460315 
L 71.448944 36.460315 
L 74.685424 36.460315 
L 74.685424 27.036189 
L 74.783515 27.036189 
L 74.881617 27.036189 
L 74.881617 22.324126 
L 74.979682 22.324126 
L 98.027373 22.324126 
L 98.027373 27.036189 
L 98.125489 27.036189 
L 98.22352 27.036189 
L 98.22352 22.324126 
L 98.321635 22.324126 
L 292.609023 22.324126 
L 292.609023 27.036189 
L 292.707106 27.036189 
L 292.805206 27.036189 
L 292.805206 22.324126 
L 292.90327 22.324126 
L 303.005 22.324126 
L 303.005 22.324126 
" style="fill:none;stroke:#7570b3;stroke-linecap:square;stroke-width:1.5;"/>
   </g>
   <g id="line2d_23">
    <path clip-path="url(#p8b36f72a8a)" d="M 55.905 201.382519 
L 61.151071 201.382519 
L 61.151071 196.670456 
L 61.249117 196.670456 
L 65.074075 196.670456 
L 65.074075 191.958393 
L 65.172114 191.958393 
L 65.270218 191.958393 
L 65.270218 187.24633 
L 65.368291 187.24633 
L 65.466349 187.24633 
L 65.466349 177.822204 
L 65.56444 177.822204 
L 65.662499 177.822204 
L 65.662499 173.110142 
L 65.760586 173.110142 
L 65.858649 173.110142 
L 65.858649 168.398079 
L 65.956722 168.398079 
L 66.054802 168.398079 
L 66.054802 163.686016 
L 66.152864 163.686016 
L 66.447093 163.686016 
L 66.447093 158.973953 
L 66.545163 158.973953 
L 69.781677 158.973953 
L 69.781677 149.549827 
L 69.879749 149.549827 
L 69.977805 149.549827 
L 69.977805 144.837764 
L 70.075878 144.837764 
L 70.762429 144.837764 
L 70.762429 140.125701 
L 70.860515 140.125701 
L 70.958578 140.125701 
L 70.958578 130.701575 
L 71.05664 130.701575 
L 88.808328 130.701575 
L 88.808328 125.989512 
L 88.906355 125.989512 
L 89.004459 125.989512 
L 89.004459 121.277449 
L 89.102504 121.277449 
L 89.200622 121.277449 
L 89.200622 116.565386 
L 89.298676 116.565386 
L 89.396752 116.565386 
L 89.396752 111.853323 
L 89.494818 111.853323 
L 89.592923 111.853323 
L 89.592923 102.429197 
L 89.690975 102.429197 
L 89.789077 102.429197 
L 89.789077 97.717134 
L 89.887126 97.717134 
L 93.319766 97.717134 
L 93.368807 83.580945 
L 93.41784 83.580945 
L 93.712077 83.580945 
L 93.712077 74.156819 
L 93.810148 74.156819 
L 94.300534 74.156819 
L 94.300534 69.444756 
L 94.398612 69.444756 
L 94.496687 69.444756 
L 94.496687 60.02063 
L 94.594768 60.02063 
L 94.692836 60.02063 
L 94.692836 36.460315 
L 94.790907 36.460315 
L 94.888957 36.460315 
L 94.888957 22.324126 
L 94.987122 22.324126 
L 97.831217 22.324126 
L 97.831217 27.036189 
L 97.929456 27.036189 
L 98.22352 27.036189 
L 98.22352 22.324126 
L 98.321635 22.324126 
L 145.692025 22.324126 
L 145.692025 27.036189 
L 145.790134 27.036189 
L 145.888217 27.036189 
L 145.888217 22.324126 
L 145.986252 22.324126 
L 154.518864 22.324126 
L 154.518864 27.036189 
L 154.616902 27.036189 
L 154.911112 27.036189 
L 154.911112 22.324126 
L 155.009237 22.324126 
L 155.303428 22.324126 
L 155.303428 27.036189 
L 155.401521 27.036189 
L 156.088073 27.036189 
L 156.088073 22.324126 
L 156.186123 22.324126 
L 303.005 22.324126 
L 303.005 22.324126 
" style="fill:none;stroke:#e7298a;stroke-linecap:square;stroke-width:1.5;"/>
   </g>
   <g id="line2d_24">
    <path clip-path="url(#p8b36f72a8a)" d="M 55.905 191.958393 
L 65.270218 191.958393 
L 65.270218 187.24633 
L 65.368291 187.24633 
L 66.250982 187.24633 
L 66.250982 182.534267 
L 66.349053 182.534267 
L 66.643271 182.534267 
L 66.643271 177.822204 
L 66.741358 177.822204 
L 70.370128 177.822204 
L 70.370128 173.110142 
L 70.468206 173.110142 
L 70.762429 173.110142 
L 70.762429 168.398079 
L 70.860515 168.398079 
L 74.685424 168.398079 
L 74.685424 163.686016 
L 74.783515 163.686016 
L 88.612149 163.686016 
L 88.612149 154.26189 
L 88.710204 154.26189 
L 88.808328 154.26189 
L 88.808328 144.837764 
L 88.906355 144.837764 
L 89.396752 144.837764 
L 89.396752 140.125701 
L 89.494818 140.125701 
L 90.181374 140.125701 
L 90.181374 135.413638 
L 90.279434 135.413638 
L 93.712077 135.413638 
L 93.712077 130.701575 
L 93.810148 130.701575 
L 94.104345 130.701575 
L 94.104345 121.277449 
L 94.202471 121.277449 
L 94.496687 121.277449 
L 94.496687 116.565386 
L 94.594768 116.565386 
L 95.673594 116.565386 
L 95.673594 111.853323 
L 95.771658 111.853323 
L 97.831217 111.853323 
L 97.831217 107.14126 
L 97.929456 107.14126 
L 98.22352 107.14126 
L 98.22352 102.429197 
L 98.321635 102.429197 
L 98.419669 102.429197 
L 98.419669 93.005071 
L 98.517755 93.005071 
L 98.812001 93.005071 
L 98.812001 88.293008 
L 98.910101 88.293008 
L 99.008133 88.293008 
L 99.05719 74.156819 
L 99.106228 74.156819 
L 99.204309 74.156819 
L 99.204309 64.732693 
L 99.302398 64.732693 
L 99.988882 64.732693 
L 99.988882 69.444756 
L 100.087001 69.444756 
L 102.931145 69.444756 
L 102.931145 60.02063 
L 103.029254 60.02063 
L 103.127344 60.02063 
L 103.127344 55.308567 
L 103.225418 55.308567 
L 103.519618 55.308567 
L 103.519618 50.596504 
L 103.617696 50.596504 
L 103.715792 50.596504 
L 103.715792 41.172378 
L 103.813847 41.172378 
L 103.911943 41.172378 
L 103.911943 36.460315 
L 104.009993 36.460315 
L 104.30425 36.460315 
L 104.30425 31.748252 
L 104.402292 31.748252 
L 265.344063 31.748252 
L 265.344063 36.460315 
L 265.442116 36.460315 
L 269.855508 36.460315 
L 269.855508 31.748252 
L 269.95361 31.748252 
L 303.005 31.748252 
L 303.005 31.748252 
" style="fill:none;stroke:#66a61e;stroke-linecap:square;stroke-width:1.5;"/>
   </g>
   <g id="line2d_25">
    <path clip-path="url(#p8b36f72a8a)" d="M 55.905 196.670456 
L 61.151071 196.670456 
L 61.151071 191.958393 
L 61.249117 191.958393 
L 65.074075 191.958393 
L 65.074075 187.24633 
L 65.172114 187.24633 
L 65.270218 187.24633 
L 65.270218 182.534267 
L 65.368291 182.534267 
L 65.662499 182.534267 
L 65.662499 177.822204 
L 65.760586 177.822204 
L 65.858649 177.822204 
L 65.858649 173.110142 
L 65.956722 173.110142 
L 66.054802 173.110142 
L 66.054802 163.686016 
L 66.152864 163.686016 
L 66.250982 163.686016 
L 66.250982 158.973953 
L 66.349053 158.973953 
L 66.447093 158.973953 
L 66.447093 154.26189 
L 66.545163 154.26189 
L 69.58553 154.26189 
L 69.58553 149.549827 
L 69.683595 149.549827 
L 69.781677 149.549827 
L 69.781677 140.125701 
L 69.879749 140.125701 
L 70.173946 140.125701 
L 70.173946 135.413638 
L 70.272045 135.413638 
L 70.370128 135.413638 
L 70.370128 125.989512 
L 70.468206 125.989512 
L 70.762429 125.989512 
L 70.762429 121.277449 
L 70.860515 121.277449 
L 71.154724 121.277449 
L 71.154724 116.565386 
L 71.252822 116.565386 
L 71.350886 116.565386 
L 71.350886 111.853323 
L 71.448944 111.853323 
L 74.881617 111.853323 
L 74.881617 107.14126 
L 74.979682 107.14126 
L 75.666207 107.14126 
L 75.666207 102.429197 
L 75.764272 102.429197 
L 80.766097 102.429197 
L 80.766097 97.717134 
L 80.864192 97.717134 
L 88.612149 97.717134 
L 88.612149 93.005071 
L 88.710204 93.005071 
L 89.200622 93.005071 
L 89.200622 78.868882 
L 89.298676 78.868882 
L 89.396752 78.868882 
L 89.396752 69.444756 
L 89.494818 69.444756 
L 89.592923 69.444756 
L 89.592923 60.02063 
L 89.690975 60.02063 
L 90.181374 60.02063 
L 90.181374 55.308567 
L 90.279434 55.308567 
L 92.927473 55.308567 
L 92.927473 50.596504 
L 93.025542 50.596504 
L 93.515913 50.596504 
L 93.515913 45.884441 
L 93.614018 45.884441 
L 93.712077 45.884441 
L 93.712077 41.172378 
L 93.810148 41.172378 
L 93.908215 41.172378 
L 93.908215 36.460315 
L 94.006284 36.460315 
L 94.496687 36.460315 
L 94.496687 31.748252 
L 94.594768 31.748252 
L 303.005 31.748252 
L 303.005 31.748252 
" style="fill:none;stroke:#e6ab02;stroke-linecap:square;stroke-width:1.5;"/>
   </g>
   <g id="line2d_26">
    <path clip-path="url(#p8b36f72a8a)" d="M 55.905 201.382519 
L 61.543321 201.382519 
L 61.543321 196.670456 
L 61.641393 196.670456 
L 65.270218 196.670456 
L 65.270218 191.958393 
L 65.368291 191.958393 
L 66.054802 191.958393 
L 66.054802 187.24633 
L 66.152864 187.24633 
L 70.173946 187.24633 
L 70.173946 177.822204 
L 70.272045 177.822204 
L 70.566273 177.822204 
L 70.566273 173.110142 
L 70.664356 173.110142 
L 70.958578 173.110142 
L 70.958578 168.398079 
L 71.05664 168.398079 
L 71.154724 168.398079 
L 71.154724 163.686016 
L 71.252822 163.686016 
L 75.666207 163.686016 
L 75.666207 158.973953 
L 75.764272 158.973953 
L 80.177673 158.973953 
L 80.177673 154.26189 
L 80.275762 154.26189 
L 88.808328 154.26189 
L 88.808328 144.837764 
L 88.906355 144.837764 
L 89.200622 144.837764 
L 89.200622 140.125701 
L 89.298676 140.125701 
L 90.181374 140.125701 
L 90.181374 135.413638 
L 90.279434 135.413638 
L 93.319766 135.413638 
L 93.319766 130.701575 
L 93.41784 130.701575 
L 94.300534 130.701575 
L 94.300534 125.989512 
L 94.398612 125.989512 
L 94.496687 125.989512 
L 94.496687 121.277449 
L 94.594768 121.277449 
L 94.692836 121.277449 
L 94.741867 107.14126 
L 94.790907 107.14126 
L 98.027373 107.14126 
L 98.027373 102.429197 
L 98.125489 102.429197 
L 98.22352 102.429197 
L 98.22352 93.005071 
L 98.321635 93.005071 
L 98.419669 93.005071 
L 98.419669 88.293008 
L 98.517755 88.293008 
L 98.61584 88.293008 
L 98.664874 74.156819 
L 98.713916 74.156819 
L 99.008133 74.156819 
L 99.008133 60.02063 
L 99.106228 60.02063 
L 99.204309 60.02063 
L 99.204309 50.596504 
L 99.302398 50.596504 
L 99.400432 50.596504 
L 99.400432 31.748252 
L 99.498541 31.748252 
L 99.596609 31.748252 
L 99.596609 27.036189 
L 99.694705 27.036189 
L 100.577371 27.036189 
L 100.577371 22.324126 
L 100.675451 22.324126 
L 154.518864 22.324126 
L 154.518864 27.036189 
L 154.616902 27.036189 
L 154.715013 27.036189 
L 154.715013 22.324126 
L 154.813083 22.324126 
L 155.107293 22.324126 
L 155.107293 27.036189 
L 155.205391 27.036189 
L 155.695723 27.036189 
L 155.695723 31.748252 
L 155.793837 31.748252 
L 156.088073 31.748252 
L 156.088073 36.460315 
L 156.186123 36.460315 
L 161.384108 36.460315 
L 161.384108 41.172378 
L 161.482181 41.172378 
L 172.957029 41.172378 
L 172.957029 36.460315 
L 173.055107 36.460315 
L 194.729744 36.460315 
L 194.729744 41.172378 
L 194.827847 41.172378 
L 202.379647 41.172378 
L 202.379647 36.460315 
L 202.477716 36.460315 
L 226.310079 36.460315 
L 226.310079 31.748252 
L 226.408148 31.748252 
L 229.448441 31.748252 
L 229.448441 27.036189 
L 229.546521 27.036189 
L 234.940689 27.036189 
L 234.940689 22.324126 
L 263.186423 22.324126 
L 263.186423 31.748252 
L 263.284461 31.748252 
L 263.774827 31.748252 
L 263.774827 36.460315 
L 263.872949 36.460315 
L 297.905102 36.460315 
L 297.905102 41.172378 
L 298.003213 41.172378 
L 303.005 41.172378 
L 303.005 41.172378 
" style="fill:none;stroke:#a6761d;stroke-linecap:square;stroke-width:1.5;"/>
   </g>
   <g id="line2d_27">
    <path clip-path="url(#p8b36f72a8a)" d="M 55.905 201.382519 
L 65.466349 201.382519 
L 65.466349 196.670456 
L 65.56444 196.670456 
L 66.054802 196.670456 
L 66.054802 191.958393 
L 66.152864 191.958393 
L 70.370128 191.958393 
L 70.370128 187.24633 
L 70.468206 187.24633 
L 70.762429 187.24633 
L 70.762429 191.958393 
L 70.860515 191.958393 
L 70.958578 191.958393 
L 70.958578 182.534267 
L 71.05664 182.534267 
L 88.808328 182.534267 
L 88.808328 177.822204 
L 88.906355 177.822204 
L 89.200622 177.822204 
L 89.200622 173.110142 
L 89.298676 173.110142 
L 89.592923 173.110142 
L 89.592923 168.398079 
L 89.690975 168.398079 
L 89.789077 168.398079 
L 89.789077 163.686016 
L 89.887126 163.686016 
L 90.769799 163.686016 
L 90.769799 158.973953 
L 90.867913 158.973953 
L 93.908215 158.973953 
L 93.908215 154.26189 
L 94.006284 154.26189 
L 94.496687 154.26189 
L 94.496687 149.549827 
L 94.594768 149.549827 
L 94.692836 149.549827 
L 94.692836 144.837764 
L 94.790907 144.837764 
L 98.027373 144.837764 
L 98.027373 135.413638 
L 98.125489 135.413638 
L 98.22352 135.413638 
L 98.22352 130.701575 
L 98.321635 130.701575 
L 98.419669 130.701575 
L 98.46871 116.565386 
L 98.517755 116.565386 
L 99.204309 116.565386 
L 99.204309 111.853323 
L 99.302398 111.853323 
L 99.400432 111.853323 
L 99.400432 107.14126 
L 99.498541 107.14126 
L 99.596609 107.14126 
L 99.596609 111.853323 
L 99.694705 111.853323 
L 99.792743 111.853323 
L 99.792743 107.14126 
L 99.890852 107.14126 
L 99.988882 107.14126 
L 99.988882 102.429197 
L 100.087001 102.429197 
L 102.342723 102.429197 
L 102.342723 107.14126 
L 102.44077 107.14126 
L 102.931145 107.14126 
L 102.931145 93.005071 
L 103.029254 93.005071 
L 103.32346 93.005071 
L 103.32346 88.293008 
L 103.42152 88.293008 
L 103.715792 88.293008 
L 103.715792 69.444756 
L 103.813847 69.444756 
L 103.911943 69.444756 
L 103.911943 64.732693 
L 104.009993 64.732693 
L 108.227224 64.732693 
L 108.227224 60.02063 
L 108.325293 60.02063 
L 124.115482 60.02063 
L 124.115482 55.308567 
L 124.213557 55.308567 
L 127.253886 55.308567 
L 127.253886 50.596504 
L 127.351935 50.596504 
L 127.450014 50.596504 
L 127.450014 55.308567 
L 127.548112 55.308567 
L 127.842318 55.308567 
L 127.842318 50.596504 
L 127.940416 50.596504 
L 132.54997 50.596504 
L 132.54997 45.884441 
L 132.648032 45.884441 
L 140.592106 45.884441 
L 140.592106 50.596504 
L 140.690191 50.596504 
L 146.08434 50.596504 
L 146.08434 45.884441 
L 146.182428 45.884441 
L 154.518864 45.884441 
L 154.518864 50.596504 
L 154.616902 50.596504 
L 154.911112 50.596504 
L 154.911112 55.308567 
L 155.009237 55.308567 
L 155.499572 55.308567 
L 155.499572 60.02063 
L 155.597649 60.02063 
L 160.991805 60.02063 
L 160.991805 64.732693 
L 161.08992 64.732693 
L 169.426278 64.732693 
L 169.426278 69.444756 
L 169.524382 69.444756 
L 189.041407 69.444756 
L 189.041407 74.156819 
L 189.139462 74.156819 
L 278.093868 74.156819 
L 278.093868 69.444756 
L 278.191984 69.444756 
L 283.38996 69.444756 
L 283.38996 74.156819 
L 283.488061 74.156819 
L 303.005 74.156819 
L 303.005 74.156819 
" style="fill:none;stroke:#666666;stroke-linecap:square;stroke-width:1.5;"/>
   </g>
   <g id="line2d_28">
    <path clip-path="url(#p8b36f72a8a)" d="M 55.905 206.094582 
L 65.466349 206.094582 
L 65.466349 201.382519 
L 65.56444 201.382519 
L 70.762429 201.382519 
L 70.762429 191.958393 
L 70.860515 191.958393 
L 88.612149 191.958393 
L 88.612149 187.24633 
L 88.710204 187.24633 
L 89.004459 187.24633 
L 89.004459 182.534267 
L 89.102504 182.534267 
L 89.592923 182.534267 
L 89.592923 177.822204 
L 89.690975 177.822204 
L 93.319766 177.822204 
L 93.319766 173.110142 
L 93.41784 173.110142 
L 93.515913 173.110142 
L 93.515913 163.686016 
L 93.614018 163.686016 
L 93.712077 163.686016 
L 93.712077 158.973953 
L 93.810148 158.973953 
L 94.104345 158.973953 
L 94.104345 154.26189 
L 94.202471 154.26189 
L 94.300534 154.26189 
L 94.300534 144.837764 
L 94.398612 144.837764 
L 94.496687 144.837764 
L 94.496687 135.413638 
L 94.594768 135.413638 
L 95.281305 135.413638 
L 95.281305 130.701575 
L 95.379368 130.701575 
L 95.673594 130.701575 
L 95.673594 125.989512 
L 95.771658 125.989512 
L 95.869709 125.989512 
L 95.869709 130.701575 
L 95.967835 130.701575 
L 97.635087 130.701575 
L 97.635087 135.413638 
L 97.733186 135.413638 
L 97.831217 135.413638 
L 97.831217 140.125701 
L 97.929456 140.125701 
L 98.027373 140.125701 
L 98.027373 135.413638 
L 98.125489 135.413638 
L 98.22352 135.413638 
L 98.22352 140.125701 
L 98.321635 140.125701 
L 98.419669 140.125701 
L 98.419669 135.413638 
L 98.517755 135.413638 
L 98.61584 135.413638 
L 98.61584 130.701575 
L 98.713916 130.701575 
L 99.008133 130.701575 
L 99.008133 135.413638 
L 99.106228 135.413638 
L 103.519618 135.413638 
L 103.519618 130.701575 
L 103.617696 130.701575 
L 103.911943 130.701575 
L 103.911943 125.989512 
L 104.009993 125.989512 
L 108.423401 125.989512 
L 108.423401 121.277449 
L 108.521457 121.277449 
L 109.796441 121.277449 
L 109.796441 116.565386 
L 109.894499 116.565386 
L 122.3501 116.565386 
L 122.3501 111.853323 
L 122.448191 111.853323 
L 122.546248 111.853323 
L 122.546248 107.14126 
L 122.64433 107.14126 
L 123.330832 107.14126 
L 123.330832 102.429197 
L 123.428939 102.429197 
L 132.54997 102.429197 
L 132.54997 97.717134 
L 132.648032 97.717134 
L 133.138371 97.717134 
L 133.138371 93.005071 
L 133.236485 93.005071 
L 142.945946 93.005071 
L 142.945946 88.293008 
L 143.043994 88.293008 
L 147.261244 88.293008 
L 147.261244 93.005071 
L 147.359324 93.005071 
L 154.911112 93.005071 
L 154.911112 97.717134 
L 155.009237 97.717134 
L 188.649096 97.717134 
L 188.649096 93.005071 
L 188.747186 93.005071 
L 221.798608 93.005071 
L 221.798608 88.293008 
L 221.896662 88.293008 
L 225.525461 88.293008 
L 225.525461 83.580945 
L 225.623506 83.580945 
L 239.059848 83.580945 
L 239.059848 78.868882 
L 239.157937 78.868882 
L 267.697907 78.868882 
L 267.697907 83.580945 
L 267.795979 83.580945 
L 267.894008 83.580945 
L 267.894008 78.868882 
L 267.992082 78.868882 
L 303.005 78.868882 
L 303.005 78.868882 
" style="fill:none;stroke:#1b9e77;stroke-dasharray:4.5,1.5;stroke-dashoffset:0;stroke-width:1.5;"/>
   </g>
   <g id="line2d_29">
    <path clip-path="url(#p8b36f72a8a)" d="M 55.905 196.670456 
L 60.265091 196.670456 
L 60.265091 191.958393 
L 66.054802 191.958393 
L 66.054802 187.24633 
L 66.152864 187.24633 
L 69.977805 187.24633 
L 69.977805 182.534267 
L 70.075878 182.534267 
L 70.370128 182.534267 
L 70.370128 177.822204 
L 70.468206 177.822204 
L 70.958578 177.822204 
L 70.958578 173.110142 
L 71.05664 173.110142 
L 71.154724 173.110142 
L 71.154724 168.398079 
L 71.252822 168.398079 
L 72.331638 168.398079 
L 72.331638 163.686016 
L 72.429732 163.686016 
L 89.200622 163.686016 
L 89.200622 154.26189 
L 89.298676 154.26189 
L 93.712077 154.26189 
L 93.712077 149.549827 
L 93.810148 149.549827 
L 94.692836 149.549827 
L 94.692836 144.837764 
L 94.790907 144.837764 
L 95.281305 144.837764 
L 95.281305 140.125701 
L 95.379368 140.125701 
L 98.22352 140.125701 
L 98.22352 135.413638 
L 98.321635 135.413638 
L 98.419669 135.413638 
L 98.419669 125.989512 
L 98.517755 125.989512 
L 99.008133 125.989512 
L 99.008133 116.565386 
L 99.106228 116.565386 
L 103.32346 116.565386 
L 103.32346 111.853323 
L 103.42152 111.853323 
L 103.911943 111.853323 
L 103.911943 107.14126 
L 104.009993 107.14126 
L 104.500356 107.14126 
L 104.500356 102.429197 
L 104.598453 102.429197 
L 109.404159 102.429197 
L 109.404159 97.717134 
L 109.502237 97.717134 
L 122.938558 97.717134 
L 122.938558 93.005071 
L 123.036647 93.005071 
L 127.450014 93.005071 
L 127.450014 88.293008 
L 127.548112 88.293008 
L 132.54997 88.293008 
L 132.54997 93.005071 
L 132.648032 93.005071 
L 155.107293 93.005071 
L 155.107293 88.293008 
L 155.205391 88.293008 
L 155.303428 88.293008 
L 155.303428 93.005071 
L 155.401521 93.005071 
L 160.207219 93.005071 
L 160.207219 88.293008 
L 160.305317 88.293008 
L 194.729744 88.293008 
L 194.729744 83.580945 
L 194.827847 83.580945 
L 226.113887 83.580945 
L 226.113887 78.868882 
L 226.211961 78.868882 
L 236.117601 78.868882 
L 236.117601 83.580945 
L 236.215666 83.580945 
L 298.297417 83.580945 
L 298.297417 88.293008 
L 298.395481 88.293008 
L 300.651241 88.293008 
L 300.651241 93.005071 
L 300.749314 93.005071 
L 303.005 93.005071 
L 303.005 93.005071 
" style="fill:none;stroke:#d95f02;stroke-dasharray:4.5,1.5;stroke-dashoffset:0;stroke-width:1.5;"/>
   </g>
   <g id="line2d_30">
    <path clip-path="url(#p8b36f72a8a)" d="M 143.975719 210.806645 
L 145.692025 210.806645 
L 145.692025 206.094582 
L 145.790134 206.094582 
L 151.576591 206.094582 
L 151.576591 201.382519 
L 151.674638 201.382519 
L 154.518864 201.382519 
L 154.518864 182.534267 
L 154.616902 182.534267 
L 154.911112 182.534267 
L 154.911112 173.110142 
L 155.009237 173.110142 
L 155.303428 173.110142 
L 155.303428 158.973953 
L 155.401521 158.973953 
L 155.695723 158.973953 
L 155.695723 154.26189 
L 155.793837 154.26189 
L 159.618781 154.26189 
L 159.618781 149.549827 
L 159.716855 149.549827 
L 160.599524 149.549827 
L 160.599524 144.837764 
L 160.697593 144.837764 
L 160.991805 144.837764 
L 160.991805 140.125701 
L 161.08992 140.125701 
L 161.384108 140.125701 
L 161.384108 135.413638 
L 161.482181 135.413638 
L 161.580266 135.413638 
L 161.580266 130.701575 
L 161.678321 130.701575 
L 164.326391 130.701575 
L 164.326391 125.989512 
L 164.42447 125.989512 
L 166.091716 125.989512 
L 166.091716 121.277449 
L 166.189825 121.277449 
L 169.426278 121.277449 
L 169.426278 116.565386 
L 169.524382 116.565386 
L 229.448441 116.565386 
L 229.448441 121.277449 
L 229.546521 121.277449 
L 230.429184 121.277449 
L 230.429184 116.565386 
L 230.527297 116.565386 
L 263.382564 116.565386 
L 263.382564 111.853323 
L 263.480653 111.853323 
L 263.774827 111.853323 
L 263.774827 107.14126 
L 263.872949 107.14126 
L 265.344063 107.14126 
L 265.344063 102.429197 
L 265.442116 102.429197 
L 292.020563 102.429197 
L 292.020563 97.717134 
L 292.118646 97.717134 
L 303.005 97.717134 
L 303.005 97.717134 
" style="fill:none;stroke:#7570b3;stroke-dasharray:4.5,1.5;stroke-dashoffset:0;stroke-width:1.5;"/>
   </g>
   <g id="line2d_31">
    <path clip-path="url(#p8b36f72a8a)" d="M 55.905 210.806645 
L 61.739467 210.806645 
L 61.739467 206.094582 
L 61.837548 206.094582 
L 62.524109 206.094582 
L 62.524109 201.382519 
L 62.622175 201.382519 
L 74.881617 201.382519 
L 74.881617 196.670456 
L 74.979682 196.670456 
L 88.612149 196.670456 
L 88.612149 191.958393 
L 88.710204 191.958393 
L 89.985198 191.958393 
L 89.985198 182.534267 
L 90.083265 182.534267 
L 93.712077 182.534267 
L 93.712077 177.822204 
L 93.810148 177.822204 
L 93.908215 177.822204 
L 93.908215 173.110142 
L 94.006284 173.110142 
L 94.496687 173.110142 
L 94.496687 163.686016 
L 94.594768 163.686016 
L 94.692836 163.686016 
L 94.692836 158.973953 
L 94.790907 158.973953 
L 95.869709 158.973953 
L 95.869709 154.26189 
L 95.967835 154.26189 
L 98.22352 154.26189 
L 98.22352 158.973953 
L 98.321635 158.973953 
L 98.61584 158.973953 
L 98.61584 154.26189 
L 98.713916 154.26189 
L 98.812001 154.26189 
L 98.812001 149.549827 
L 98.910101 149.549827 
L 99.204309 149.549827 
L 99.204309 144.837764 
L 99.302398 144.837764 
L 99.400432 144.837764 
L 99.400432 149.549827 
L 99.498541 149.549827 
L 99.596609 149.549827 
L 99.596609 144.837764 
L 99.694705 144.837764 
L 102.931145 144.837764 
L 102.931145 140.125701 
L 103.029254 140.125701 
L 109.208006 140.125701 
L 109.208006 135.413638 
L 109.306068 135.413638 
L 122.3501 135.413638 
L 122.3501 130.701575 
L 122.448191 130.701575 
L 140.984418 130.701575 
L 140.984418 125.989512 
L 141.082538 125.989512 
L 164.326391 125.989512 
L 164.326391 121.277449 
L 164.42447 121.277449 
L 189.041407 121.277449 
L 189.041407 116.565386 
L 189.139462 116.565386 
L 234.940689 116.565386 
L 234.940689 111.853323 
L 253.771156 111.853323 
L 253.771156 107.14126 
L 253.869254 107.14126 
L 292.609023 107.14126 
L 292.609023 102.429197 
L 292.707106 102.429197 
L 298.10125 102.429197 
L 298.10125 97.717134 
L 298.199329 97.717134 
L 303.005 97.717134 
L 303.005 97.717134 
" style="fill:none;stroke:#e7298a;stroke-dasharray:4.5,1.5;stroke-dashoffset:0;stroke-width:1.5;"/>
   </g>
   <g id="line2d_32">
    <path clip-path="url(#p8b36f72a8a)" d="M 55.905 206.094582 
L 65.074075 206.094582 
L 65.074075 201.382519 
L 65.172114 201.382519 
L 65.270218 201.382519 
L 65.270218 196.670456 
L 65.368291 196.670456 
L 66.054802 196.670456 
L 66.054802 187.24633 
L 66.152864 187.24633 
L 69.781677 187.24633 
L 69.781677 182.534267 
L 69.879749 182.534267 
L 70.762429 182.534267 
L 70.762429 177.822204 
L 70.860515 177.822204 
L 70.958578 177.822204 
L 70.958578 173.110142 
L 71.05664 173.110142 
L 71.154724 173.110142 
L 71.154724 168.398079 
L 71.252822 168.398079 
L 89.004459 168.398079 
L 89.004459 163.686016 
L 89.102504 163.686016 
L 89.200622 163.686016 
L 89.200622 158.973953 
L 89.298676 158.973953 
L 89.396752 158.973953 
L 89.396752 149.549827 
L 89.494818 149.549827 
L 94.300534 149.549827 
L 94.300534 144.837764 
L 94.398612 144.837764 
L 94.496687 144.837764 
L 94.496687 140.125701 
L 94.594768 140.125701 
L 97.831217 140.125701 
L 97.831217 144.837764 
L 97.929456 144.837764 
L 98.419669 144.837764 
L 98.419669 135.413638 
L 98.517755 135.413638 
L 98.61584 135.413638 
L 98.61584 140.125701 
L 98.713916 140.125701 
L 98.812001 140.125701 
L 98.812001 135.413638 
L 98.910101 135.413638 
L 99.204309 135.413638 
L 99.204309 125.989512 
L 99.302398 125.989512 
L 99.400432 125.989512 
L 99.400432 121.277449 
L 99.498541 121.277449 
L 108.619518 121.277449 
L 108.619518 116.565386 
L 108.717638 116.565386 
L 109.208006 116.565386 
L 109.208006 111.853323 
L 109.306068 111.853323 
L 118.623218 111.853323 
L 118.623218 107.14126 
L 118.721295 107.14126 
L 136.472946 107.14126 
L 136.472946 102.429197 
L 136.571037 102.429197 
L 137.257549 102.429197 
L 137.257549 97.717134 
L 137.355671 97.717134 
L 141.180597 97.717134 
L 141.180597 93.005071 
L 141.278678 93.005071 
L 156.676523 93.005071 
L 156.676523 88.293008 
L 156.774563 88.293008 
L 273.582372 88.293008 
L 273.582372 93.005071 
L 273.680493 93.005071 
L 278.093868 93.005071 
L 278.093868 97.717134 
L 278.191984 97.717134 
L 303.005 97.717134 
L 303.005 97.717134 
" style="fill:none;stroke:#66a61e;stroke-dasharray:4.5,1.5;stroke-dashoffset:0;stroke-width:1.5;"/>
   </g>
   <g id="line2d_33">
    <path clip-path="url(#p8b36f72a8a)" d="M 55.905 210.806645 
L 60.955072 210.806645 
L 60.955072 206.094582 
L 61.052979 206.094582 
L 61.347212 206.094582 
L 61.347212 201.382519 
L 61.445308 201.382519 
L 65.858649 201.382519 
L 65.858649 196.670456 
L 65.956722 196.670456 
L 70.958578 196.670456 
L 70.958578 191.958393 
L 71.05664 191.958393 
L 74.096999 191.958393 
L 74.096999 187.24633 
L 74.195104 187.24633 
L 75.077733 187.24633 
L 75.077733 182.534267 
L 75.17583 182.534267 
L 75.470052 182.534267 
L 75.470052 177.822204 
L 75.56811 177.822204 
L 88.612149 177.822204 
L 88.612149 168.398079 
L 88.710204 168.398079 
L 89.004459 168.398079 
L 89.004459 163.686016 
L 89.102504 163.686016 
L 89.200622 163.686016 
L 89.200622 158.973953 
L 89.298676 158.973953 
L 89.396752 158.973953 
L 89.396752 154.26189 
L 89.494818 154.26189 
L 89.592923 154.26189 
L 89.592923 144.837764 
L 89.690975 144.837764 
L 89.789077 144.837764 
L 89.789077 140.125701 
L 89.887126 140.125701 
L 90.181374 140.125701 
L 90.181374 135.413638 
L 90.279434 135.413638 
L 90.573692 135.413638 
L 90.573692 130.701575 
L 90.671751 130.701575 
L 91.162092 130.701575 
L 91.162092 125.989512 
L 91.260214 125.989512 
L 93.319766 125.989512 
L 93.319766 121.277449 
L 93.41784 121.277449 
L 93.515913 121.277449 
L 93.515913 116.565386 
L 93.614018 116.565386 
L 93.712077 116.565386 
L 93.712077 102.429197 
L 93.810148 102.429197 
L 93.908215 102.429197 
L 93.908215 97.717134 
L 94.006284 97.717134 
L 94.104345 97.717134 
L 94.104345 93.005071 
L 94.202471 93.005071 
L 95.869709 93.005071 
L 95.869709 97.717134 
L 95.967835 97.717134 
L 98.419669 97.717134 
L 98.419669 93.005071 
L 98.517755 93.005071 
L 98.61584 93.005071 
L 98.61584 97.717134 
L 98.713916 97.717134 
L 98.812001 97.717134 
L 98.812001 93.005071 
L 98.910101 93.005071 
L 104.30425 93.005071 
L 104.30425 97.717134 
L 104.402292 97.717134 
L 104.500356 97.717134 
L 104.500356 93.005071 
L 104.598453 93.005071 
L 292.216753 93.005071 
L 292.216753 97.717134 
L 292.314788 97.717134 
L 303.005 97.717134 
L 303.005 97.717134 
" style="fill:none;stroke:#e6ab02;stroke-dasharray:4.5,1.5;stroke-dashoffset:0;stroke-width:1.5;"/>
   </g>
   <g id="line2d_34">
    <path clip-path="url(#p8b36f72a8a)" d="M 55.905 206.094582 
L 65.662499 206.094582 
L 65.662499 196.670456 
L 65.760586 196.670456 
L 69.977805 196.670456 
L 69.977805 187.24633 
L 70.075878 187.24633 
L 70.173946 187.24633 
L 70.173946 182.534267 
L 70.272045 182.534267 
L 70.958578 182.534267 
L 70.958578 177.822204 
L 71.05664 177.822204 
L 71.154724 177.822204 
L 71.154724 173.110142 
L 71.252822 173.110142 
L 89.396752 173.110142 
L 89.396752 168.398079 
L 89.494818 168.398079 
L 89.592923 168.398079 
L 89.592923 163.686016 
L 89.690975 163.686016 
L 89.789077 163.686016 
L 89.789077 158.973953 
L 89.887126 158.973953 
L 90.377486 158.973953 
L 90.377486 154.26189 
L 90.475606 154.26189 
L 90.573692 154.26189 
L 90.573692 158.973953 
L 90.671751 158.973953 
L 93.319766 158.973953 
L 93.319766 140.125701 
L 93.41784 140.125701 
L 93.712077 140.125701 
L 93.712077 130.701575 
L 93.810148 130.701575 
L 93.908215 130.701575 
L 93.908215 125.989512 
L 94.006284 125.989512 
L 94.104345 125.989512 
L 94.104345 116.565386 
L 94.202471 116.565386 
L 303.005 116.565386 
L 303.005 116.565386 
" style="fill:none;stroke:#a6761d;stroke-dasharray:4.5,1.5;stroke-dashoffset:0;stroke-width:1.5;"/>
   </g>
   <g id="line2d_35">
    <path clip-path="url(#p8b36f72a8a)" d="M 55.905 210.806645 
L 66.054802 210.806645 
L 66.054802 206.094582 
L 66.152864 206.094582 
L 66.250982 206.094582 
L 66.250982 201.382519 
L 66.349053 201.382519 
L 70.173946 201.382519 
L 70.173946 196.670456 
L 70.272045 196.670456 
L 71.154724 196.670456 
L 71.154724 191.958393 
L 71.252822 191.958393 
L 71.547026 191.958393 
L 71.547026 187.24633 
L 71.645123 187.24633 
L 71.939348 187.24633 
L 71.939348 182.534267 
L 72.037431 182.534267 
L 74.881617 182.534267 
L 74.881617 187.24633 
L 74.979682 187.24633 
L 88.808328 187.24633 
L 88.808328 182.534267 
L 88.906355 182.534267 
L 89.985198 182.534267 
L 89.985198 173.110142 
L 90.083265 173.110142 
L 93.515913 173.110142 
L 93.515913 168.398079 
L 93.614018 168.398079 
L 94.300534 168.398079 
L 94.300534 149.549827 
L 94.398612 149.549827 
L 94.496687 149.549827 
L 94.496687 144.837764 
L 94.594768 144.837764 
L 94.692836 144.837764 
L 94.692836 140.125701 
L 94.790907 140.125701 
L 154.911112 140.125701 
L 154.911112 144.837764 
L 155.009237 144.837764 
L 155.107293 144.837764 
L 155.107293 140.125701 
L 155.205391 140.125701 
L 273.582372 140.125701 
L 273.582372 135.413638 
L 273.680493 135.413638 
L 283.38996 135.413638 
L 283.38996 130.701575 
L 283.488061 130.701575 
L 297.905102 130.701575 
L 297.905102 125.989512 
L 298.003213 125.989512 
L 300.651241 125.989512 
L 300.651241 121.277449 
L 300.749314 121.277449 
L 301.435837 121.277449 
L 301.435837 116.565386 
L 301.533896 116.565386 
L 303.005 116.565386 
L 303.005 116.565386 
" style="fill:none;stroke:#666666;stroke-dasharray:4.5,1.5;stroke-dashoffset:0;stroke-width:1.5;"/>
   </g>
   <g id="line2d_36"/>
   <g id="line2d_37"/>
   <g id="line2d_38"/>
   <g id="line2d_39"/>
   <g id="line2d_40"/>
   <g id="line2d_41"/>
   <g id="line2d_42"/>
   <g id="line2d_43"/>
   <g id="line2d_44"/>
   <g id="line2d_45"/>
   <g id="line2d_46"/>
   <g id="line2d_47"/>
   <g id="line2d_48"/>
   <g id="line2d_49"/>
   <g id="line2d_50"/>
   <g id="line2d_51"/>
   <g id="line2d_52"/>
   <g id="patch_3">
    <path d="M 43.55 220.230771 
L 43.55 12.9 
" style="fill:none;stroke:#000000;stroke-linecap:square;stroke-linejoin:miter;stroke-width:0.8;"/>
   </g>
   <g id="patch_4">
    <path d="M 315.36 220.230771 
L 315.36 12.9 
" style="fill:none;stroke:#000000;stroke-linecap:square;stroke-linejoin:miter;stroke-width:0.8;"/>
   </g>
   <g id="patch_5">
    <path d="M 43.55 220.230771 
L 315.36 220.230771 
" style="fill:none;stroke:#000000;stroke-linecap:square;stroke-linejoin:miter;stroke-width:0.8;"/>
   </g>
   <g id="patch_6">
    <path d="M 43.55 12.9 
L 315.36 12.9 
" style="fill:none;stroke:#000000;stroke-linecap:square;stroke-linejoin:miter;stroke-width:0.8;"/>
   </g>
  </g>
  <g id="legend_1">
   <g id="patch_7">
    <path d="M 331.8625 262.528125 
L 420 262.528125 
Q 422 262.528125 422 260.528125 
L 422 12 
Q 422 10 420 10 
L 331.8625 10 
Q 329.8625 10 329.8625 12 
L 329.8625 260.528125 
Q 329.8625 262.528125 331.8625 262.528125 
z
" style="fill:#ffffff;opacity:0.8;stroke:#cccccc;stroke-linejoin:miter;"/>
   </g>
   <g id="text_22">
    <!-- 490/610 Reg. -->
    <defs>
     <path d="M 25.390625 72.90625 
L 33.6875 72.90625 
L 8.296875 -9.28125 
L 0 -9.28125 
z
" id="DejaVuSans-47"/>
     <path d="M 33.015625 40.375 
Q 26.375 40.375 22.484375 35.828125 
Q 18.609375 31.296875 18.609375 23.390625 
Q 18.609375 15.53125 22.484375 10.953125 
Q 26.375 6.390625 33.015625 6.390625 
Q 39.65625 6.390625 43.53125 10.953125 
Q 47.40625 15.53125 47.40625 23.390625 
Q 47.40625 31.296875 43.53125 35.828125 
Q 39.65625 40.375 33.015625 40.375 
z
M 52.59375 71.296875 
L 52.59375 62.3125 
Q 48.875 64.0625 45.09375 64.984375 
Q 41.3125 65.921875 37.59375 65.921875 
Q 27.828125 65.921875 22.671875 59.328125 
Q 17.53125 52.734375 16.796875 39.40625 
Q 19.671875 43.65625 24.015625 45.921875 
Q 28.375 48.1875 33.59375 48.1875 
Q 44.578125 48.1875 50.953125 41.515625 
Q 57.328125 34.859375 57.328125 23.390625 
Q 57.328125 12.15625 50.6875 5.359375 
Q 44.046875 -1.421875 33.015625 -1.421875 
Q 20.359375 -1.421875 13.671875 8.265625 
Q 6.984375 17.96875 6.984375 36.375 
Q 6.984375 53.65625 15.1875 63.9375 
Q 23.390625 74.21875 37.203125 74.21875 
Q 40.921875 74.21875 44.703125 73.484375 
Q 48.484375 72.75 52.59375 71.296875 
z
" id="DejaVuSans-54"/>
     <path d="M 10.6875 12.40625 
L 21 12.40625 
L 21 0 
L 10.6875 0 
z
" id="DejaVuSans-46"/>
    </defs>
    <g transform="translate(342.259375 21.598437)scale(0.1 -0.1)">
     <use xlink:href="#DejaVuSans-52"/>
     <use x="63.623047" xlink:href="#DejaVuSans-57"/>
     <use x="127.246094" xlink:href="#DejaVuSans-48"/>
     <use x="190.869141" xlink:href="#DejaVuSans-47"/>
     <use x="224.560547" xlink:href="#DejaVuSans-54"/>
     <use x="288.183594" xlink:href="#DejaVuSans-49"/>
     <use x="351.806641" xlink:href="#DejaVuSans-48"/>
     <use x="415.429688" xlink:href="#DejaVuSans-32"/>
     <use x="447.216797" xlink:href="#DejaVuSans-82"/>
     <use x="516.636719" xlink:href="#DejaVuSans-101"/>
     <use x="578.160156" xlink:href="#DejaVuSans-103"/>
     <use x="641.636719" xlink:href="#DejaVuSans-46"/>
    </g>
   </g>
   <g id="line2d_53">
    <path d="M 333.8625 32.776562 
L 353.8625 32.776562 
" style="fill:none;stroke:#1b9e77;stroke-linecap:square;stroke-width:1.5;"/>
   </g>
   <g id="line2d_54"/>
   <g id="text_23">
    <!-- AS (40) -->
    <defs>
     <path d="M 34.1875 63.1875 
L 20.796875 26.90625 
L 47.609375 26.90625 
z
M 28.609375 72.90625 
L 39.796875 72.90625 
L 67.578125 0 
L 57.328125 0 
L 50.6875 18.703125 
L 17.828125 18.703125 
L 11.1875 0 
L 0.78125 0 
z
" id="DejaVuSans-65"/>
     <path d="M 31 75.875 
Q 24.46875 64.65625 21.28125 53.65625 
Q 18.109375 42.671875 18.109375 31.390625 
Q 18.109375 20.125 21.3125 9.0625 
Q 24.515625 -2 31 -13.1875 
L 23.1875 -13.1875 
Q 15.875 -1.703125 12.234375 9.375 
Q 8.59375 20.453125 8.59375 31.390625 
Q 8.59375 42.28125 12.203125 53.3125 
Q 15.828125 64.359375 23.1875 75.875 
z
" id="DejaVuSans-40"/>
     <path d="M 8.015625 75.875 
L 15.828125 75.875 
Q 23.140625 64.359375 26.78125 53.3125 
Q 30.421875 42.28125 30.421875 31.390625 
Q 30.421875 20.453125 26.78125 9.375 
Q 23.140625 -1.703125 15.828125 -13.1875 
L 8.015625 -13.1875 
Q 14.5 -2 17.703125 9.0625 
Q 20.90625 20.125 20.90625 31.390625 
Q 20.90625 42.671875 17.703125 53.65625 
Q 14.5 64.65625 8.015625 75.875 
z
" id="DejaVuSans-41"/>
    </defs>
    <g transform="translate(361.8625 36.276562)scale(0.1 -0.1)">
     <use xlink:href="#DejaVuSans-65"/>
     <use x="68.408203" xlink:href="#DejaVuSans-83"/>
     <use x="131.884766" xlink:href="#DejaVuSans-32"/>
     <use x="163.671875" xlink:href="#DejaVuSans-40"/>
     <use x="202.685547" xlink:href="#DejaVuSans-52"/>
     <use x="266.308594" xlink:href="#DejaVuSans-48"/>
     <use x="329.931641" xlink:href="#DejaVuSans-41"/>
    </g>
   </g>
   <g id="line2d_55">
    <path d="M 333.8625 47.454688 
L 353.8625 47.454688 
" style="fill:none;stroke:#d95f02;stroke-linecap:square;stroke-width:1.5;"/>
   </g>
   <g id="line2d_56"/>
   <g id="text_24">
    <!-- AUS (40) -->
    <defs>
     <path d="M 8.6875 72.90625 
L 18.609375 72.90625 
L 18.609375 28.609375 
Q 18.609375 16.890625 22.84375 11.734375 
Q 27.09375 6.59375 36.625 6.59375 
Q 46.09375 6.59375 50.34375 11.734375 
Q 54.59375 16.890625 54.59375 28.609375 
L 54.59375 72.90625 
L 64.5 72.90625 
L 64.5 27.390625 
Q 64.5 13.140625 57.4375 5.859375 
Q 50.390625 -1.421875 36.625 -1.421875 
Q 22.796875 -1.421875 15.734375 5.859375 
Q 8.6875 13.140625 8.6875 27.390625 
z
" id="DejaVuSans-85"/>
    </defs>
    <g transform="translate(361.8625 50.954688)scale(0.1 -0.1)">
     <use xlink:href="#DejaVuSans-65"/>
     <use x="68.408203" xlink:href="#DejaVuSans-85"/>
     <use x="141.601562" xlink:href="#DejaVuSans-83"/>
     <use x="205.078125" xlink:href="#DejaVuSans-32"/>
     <use x="236.865234" xlink:href="#DejaVuSans-40"/>
     <use x="275.878906" xlink:href="#DejaVuSans-52"/>
     <use x="339.501953" xlink:href="#DejaVuSans-48"/>
     <use x="403.125" xlink:href="#DejaVuSans-41"/>
    </g>
   </g>
   <g id="line2d_57">
    <path d="M 333.8625 62.132812 
L 353.8625 62.132812 
" style="fill:none;stroke:#7570b3;stroke-linecap:square;stroke-width:1.5;"/>
   </g>
   <g id="line2d_58"/>
   <g id="text_25">
    <!-- COML (40) -->
    <defs>
     <path d="M 64.40625 67.28125 
L 64.40625 56.890625 
Q 59.421875 61.53125 53.78125 63.8125 
Q 48.140625 66.109375 41.796875 66.109375 
Q 29.296875 66.109375 22.65625 58.46875 
Q 16.015625 50.828125 16.015625 36.375 
Q 16.015625 21.96875 22.65625 14.328125 
Q 29.296875 6.6875 41.796875 6.6875 
Q 48.140625 6.6875 53.78125 8.984375 
Q 59.421875 11.28125 64.40625 15.921875 
L 64.40625 5.609375 
Q 59.234375 2.09375 53.4375 0.328125 
Q 47.65625 -1.421875 41.21875 -1.421875 
Q 24.65625 -1.421875 15.125 8.703125 
Q 5.609375 18.84375 5.609375 36.375 
Q 5.609375 53.953125 15.125 64.078125 
Q 24.65625 74.21875 41.21875 74.21875 
Q 47.75 74.21875 53.53125 72.484375 
Q 59.328125 70.75 64.40625 67.28125 
z
" id="DejaVuSans-67"/>
     <path d="M 39.40625 66.21875 
Q 28.65625 66.21875 22.328125 58.203125 
Q 16.015625 50.203125 16.015625 36.375 
Q 16.015625 22.609375 22.328125 14.59375 
Q 28.65625 6.59375 39.40625 6.59375 
Q 50.140625 6.59375 56.421875 14.59375 
Q 62.703125 22.609375 62.703125 36.375 
Q 62.703125 50.203125 56.421875 58.203125 
Q 50.140625 66.21875 39.40625 66.21875 
z
M 39.40625 74.21875 
Q 54.734375 74.21875 63.90625 63.9375 
Q 73.09375 53.65625 73.09375 36.375 
Q 73.09375 19.140625 63.90625 8.859375 
Q 54.734375 -1.421875 39.40625 -1.421875 
Q 24.03125 -1.421875 14.8125 8.828125 
Q 5.609375 19.09375 5.609375 36.375 
Q 5.609375 53.65625 14.8125 63.9375 
Q 24.03125 74.21875 39.40625 74.21875 
z
" id="DejaVuSans-79"/>
     <path d="M 9.8125 72.90625 
L 24.515625 72.90625 
L 43.109375 23.296875 
L 61.8125 72.90625 
L 76.515625 72.90625 
L 76.515625 0 
L 66.890625 0 
L 66.890625 64.015625 
L 48.09375 14.015625 
L 38.1875 14.015625 
L 19.390625 64.015625 
L 19.390625 0 
L 9.8125 0 
z
" id="DejaVuSans-77"/>
     <path d="M 9.8125 72.90625 
L 19.671875 72.90625 
L 19.671875 8.296875 
L 55.171875 8.296875 
L 55.171875 0 
L 9.8125 0 
z
" id="DejaVuSans-76"/>
    </defs>
    <g transform="translate(361.8625 65.632812)scale(0.1 -0.1)">
     <use xlink:href="#DejaVuSans-67"/>
     <use x="69.824219" xlink:href="#DejaVuSans-79"/>
     <use x="148.535156" xlink:href="#DejaVuSans-77"/>
     <use x="234.814453" xlink:href="#DejaVuSans-76"/>
     <use x="290.527344" xlink:href="#DejaVuSans-32"/>
     <use x="322.314453" xlink:href="#DejaVuSans-40"/>
     <use x="361.328125" xlink:href="#DejaVuSans-52"/>
     <use x="424.951172" xlink:href="#DejaVuSans-48"/>
     <use x="488.574219" xlink:href="#DejaVuSans-41"/>
    </g>
   </g>
   <g id="line2d_59">
    <path d="M 333.8625 76.810937 
L 353.8625 76.810937 
" style="fill:none;stroke:#e7298a;stroke-linecap:square;stroke-width:1.5;"/>
   </g>
   <g id="line2d_60"/>
   <g id="text_26">
    <!-- GDD (40) -->
    <defs>
     <path d="M 59.515625 10.40625 
L 59.515625 29.984375 
L 43.40625 29.984375 
L 43.40625 38.09375 
L 69.28125 38.09375 
L 69.28125 6.78125 
Q 63.578125 2.734375 56.6875 0.65625 
Q 49.8125 -1.421875 42 -1.421875 
Q 24.90625 -1.421875 15.25 8.5625 
Q 5.609375 18.5625 5.609375 36.375 
Q 5.609375 54.25 15.25 64.234375 
Q 24.90625 74.21875 42 74.21875 
Q 49.125 74.21875 55.546875 72.453125 
Q 61.96875 70.703125 67.390625 67.28125 
L 67.390625 56.78125 
Q 61.921875 61.421875 55.765625 63.765625 
Q 49.609375 66.109375 42.828125 66.109375 
Q 29.4375 66.109375 22.71875 58.640625 
Q 16.015625 51.171875 16.015625 36.375 
Q 16.015625 21.625 22.71875 14.15625 
Q 29.4375 6.6875 42.828125 6.6875 
Q 48.046875 6.6875 52.140625 7.59375 
Q 56.25 8.5 59.515625 10.40625 
z
" id="DejaVuSans-71"/>
    </defs>
    <g transform="translate(361.8625 80.310937)scale(0.1 -0.1)">
     <use xlink:href="#DejaVuSans-71"/>
     <use x="77.490234" xlink:href="#DejaVuSans-68"/>
     <use x="154.492188" xlink:href="#DejaVuSans-68"/>
     <use x="231.494141" xlink:href="#DejaVuSans-32"/>
     <use x="263.28125" xlink:href="#DejaVuSans-40"/>
     <use x="302.294922" xlink:href="#DejaVuSans-52"/>
     <use x="365.917969" xlink:href="#DejaVuSans-48"/>
     <use x="429.541016" xlink:href="#DejaVuSans-41"/>
    </g>
   </g>
   <g id="line2d_61">
    <path d="M 333.8625 91.489062 
L 353.8625 91.489062 
" style="fill:none;stroke:#66a61e;stroke-linecap:square;stroke-width:1.5;"/>
   </g>
   <g id="line2d_62"/>
   <g id="text_27">
    <!-- MD (38) -->
    <g transform="translate(361.8625 94.989062)scale(0.1 -0.1)">
     <use xlink:href="#DejaVuSans-77"/>
     <use x="86.279297" xlink:href="#DejaVuSans-68"/>
     <use x="163.28125" xlink:href="#DejaVuSans-32"/>
     <use x="195.068359" xlink:href="#DejaVuSans-40"/>
     <use x="234.082031" xlink:href="#DejaVuSans-51"/>
     <use x="297.705078" xlink:href="#DejaVuSans-56"/>
     <use x="361.328125" xlink:href="#DejaVuSans-41"/>
    </g>
   </g>
   <g id="line2d_63">
    <path d="M 333.8625 106.167188 
L 353.8625 106.167188 
" style="fill:none;stroke:#e6ab02;stroke-linecap:square;stroke-width:1.5;"/>
   </g>
   <g id="line2d_64"/>
   <g id="text_28">
    <!-- HPI (38) -->
    <defs>
     <path d="M 9.8125 72.90625 
L 19.671875 72.90625 
L 19.671875 43.015625 
L 55.515625 43.015625 
L 55.515625 72.90625 
L 65.375 72.90625 
L 65.375 0 
L 55.515625 0 
L 55.515625 34.71875 
L 19.671875 34.71875 
L 19.671875 0 
L 9.8125 0 
z
" id="DejaVuSans-72"/>
     <path d="M 19.671875 64.796875 
L 19.671875 37.40625 
L 32.078125 37.40625 
Q 38.96875 37.40625 42.71875 40.96875 
Q 46.484375 44.53125 46.484375 51.125 
Q 46.484375 57.671875 42.71875 61.234375 
Q 38.96875 64.796875 32.078125 64.796875 
z
M 9.8125 72.90625 
L 32.078125 72.90625 
Q 44.34375 72.90625 50.609375 67.359375 
Q 56.890625 61.8125 56.890625 51.125 
Q 56.890625 40.328125 50.609375 34.8125 
Q 44.34375 29.296875 32.078125 29.296875 
L 19.671875 29.296875 
L 19.671875 0 
L 9.8125 0 
z
" id="DejaVuSans-80"/>
     <path d="M 9.8125 72.90625 
L 19.671875 72.90625 
L 19.671875 0 
L 9.8125 0 
z
" id="DejaVuSans-73"/>
    </defs>
    <g transform="translate(361.8625 109.667188)scale(0.1 -0.1)">
     <use xlink:href="#DejaVuSans-72"/>
     <use x="75.195312" xlink:href="#DejaVuSans-80"/>
     <use x="135.498047" xlink:href="#DejaVuSans-73"/>
     <use x="164.990234" xlink:href="#DejaVuSans-32"/>
     <use x="196.777344" xlink:href="#DejaVuSans-40"/>
     <use x="235.791016" xlink:href="#DejaVuSans-51"/>
     <use x="299.414062" xlink:href="#DejaVuSans-56"/>
     <use x="363.037109" xlink:href="#DejaVuSans-41"/>
    </g>
   </g>
   <g id="line2d_65">
    <path d="M 333.8625 120.845312 
L 353.8625 120.845312 
" style="fill:none;stroke:#a6761d;stroke-linecap:square;stroke-width:1.5;"/>
   </g>
   <g id="line2d_66"/>
   <g id="text_29">
    <!-- SA (36) -->
    <g transform="translate(361.8625 124.345312)scale(0.1 -0.1)">
     <use xlink:href="#DejaVuSans-83"/>
     <use x="63.492188" xlink:href="#DejaVuSans-65"/>
     <use x="131.900391" xlink:href="#DejaVuSans-32"/>
     <use x="163.6875" xlink:href="#DejaVuSans-40"/>
     <use x="202.701172" xlink:href="#DejaVuSans-51"/>
     <use x="266.324219" xlink:href="#DejaVuSans-54"/>
     <use x="329.947266" xlink:href="#DejaVuSans-41"/>
    </g>
   </g>
   <g id="line2d_67">
    <path d="M 333.8625 135.523438 
L 353.8625 135.523438 
" style="fill:none;stroke:#666666;stroke-linecap:square;stroke-width:1.5;"/>
   </g>
   <g id="line2d_68"/>
   <g id="text_30">
    <!-- FIT (29) -->
    <defs>
     <path d="M 9.8125 72.90625 
L 51.703125 72.90625 
L 51.703125 64.59375 
L 19.671875 64.59375 
L 19.671875 43.109375 
L 48.578125 43.109375 
L 48.578125 34.8125 
L 19.671875 34.8125 
L 19.671875 0 
L 9.8125 0 
z
" id="DejaVuSans-70"/>
     <path d="M -0.296875 72.90625 
L 61.375 72.90625 
L 61.375 64.59375 
L 35.5 64.59375 
L 35.5 0 
L 25.59375 0 
L 25.59375 64.59375 
L -0.296875 64.59375 
z
" id="DejaVuSans-84"/>
    </defs>
    <g transform="translate(361.8625 139.023438)scale(0.1 -0.1)">
     <use xlink:href="#DejaVuSans-70"/>
     <use x="57.519531" xlink:href="#DejaVuSans-73"/>
     <use x="87.011719" xlink:href="#DejaVuSans-84"/>
     <use x="148.095703" xlink:href="#DejaVuSans-32"/>
     <use x="179.882812" xlink:href="#DejaVuSans-40"/>
     <use x="218.896484" xlink:href="#DejaVuSans-50"/>
     <use x="282.519531" xlink:href="#DejaVuSans-57"/>
     <use x="346.142578" xlink:href="#DejaVuSans-41"/>
    </g>
   </g>
   <g id="line2d_69">
    <path d="M 333.8625 150.201562 
L 353.8625 150.201562 
" style="fill:none;stroke:#1b9e77;stroke-dasharray:4.5,1.5;stroke-dashoffset:0;stroke-width:1.5;"/>
   </g>
   <g id="line2d_70"/>
   <g id="text_31">
    <!-- SPD (28) -->
    <g transform="translate(361.8625 153.701562)scale(0.1 -0.1)">
     <use xlink:href="#DejaVuSans-83"/>
     <use x="63.476562" xlink:href="#DejaVuSans-80"/>
     <use x="123.779297" xlink:href="#DejaVuSans-68"/>
     <use x="200.78125" xlink:href="#DejaVuSans-32"/>
     <use x="232.568359" xlink:href="#DejaVuSans-40"/>
     <use x="271.582031" xlink:href="#DejaVuSans-50"/>
     <use x="335.205078" xlink:href="#DejaVuSans-56"/>
     <use x="398.828125" xlink:href="#DejaVuSans-41"/>
    </g>
   </g>
   <g id="line2d_71">
    <path d="M 333.8625 164.879687 
L 353.8625 164.879687 
" style="fill:none;stroke:#d95f02;stroke-dasharray:4.5,1.5;stroke-dashoffset:0;stroke-width:1.5;"/>
   </g>
   <g id="line2d_72"/>
   <g id="text_32">
    <!-- TBI (25) -->
    <defs>
     <path d="M 19.671875 34.8125 
L 19.671875 8.109375 
L 35.5 8.109375 
Q 43.453125 8.109375 47.28125 11.40625 
Q 51.125 14.703125 51.125 21.484375 
Q 51.125 28.328125 47.28125 31.5625 
Q 43.453125 34.8125 35.5 34.8125 
z
M 19.671875 64.796875 
L 19.671875 42.828125 
L 34.28125 42.828125 
Q 41.5 42.828125 45.03125 45.53125 
Q 48.578125 48.25 48.578125 53.8125 
Q 48.578125 59.328125 45.03125 62.0625 
Q 41.5 64.796875 34.28125 64.796875 
z
M 9.8125 72.90625 
L 35.015625 72.90625 
Q 46.296875 72.90625 52.390625 68.21875 
Q 58.5 63.53125 58.5 54.890625 
Q 58.5 48.1875 55.375 44.234375 
Q 52.25 40.28125 46.1875 39.3125 
Q 53.46875 37.75 57.5 32.78125 
Q 61.53125 27.828125 61.53125 20.40625 
Q 61.53125 10.640625 54.890625 5.3125 
Q 48.25 0 35.984375 0 
L 9.8125 0 
z
" id="DejaVuSans-66"/>
    </defs>
    <g transform="translate(361.8625 168.379687)scale(0.1 -0.1)">
     <use xlink:href="#DejaVuSans-84"/>
     <use x="61.083984" xlink:href="#DejaVuSans-66"/>
     <use x="129.6875" xlink:href="#DejaVuSans-73"/>
     <use x="159.179688" xlink:href="#DejaVuSans-32"/>
     <use x="190.966797" xlink:href="#DejaVuSans-40"/>
     <use x="229.980469" xlink:href="#DejaVuSans-50"/>
     <use x="293.603516" xlink:href="#DejaVuSans-53"/>
     <use x="357.226562" xlink:href="#DejaVuSans-41"/>
    </g>
   </g>
   <g id="line2d_73">
    <path d="M 333.8625 179.557812 
L 353.8625 179.557812 
" style="fill:none;stroke:#7570b3;stroke-dasharray:4.5,1.5;stroke-dashoffset:0;stroke-width:1.5;"/>
   </g>
   <g id="line2d_74"/>
   <g id="text_33">
    <!-- RJPH (24) -->
    <defs>
     <path d="M 9.8125 72.90625 
L 19.671875 72.90625 
L 19.671875 5.078125 
Q 19.671875 -8.109375 14.671875 -14.0625 
Q 9.671875 -20.015625 -1.421875 -20.015625 
L -5.171875 -20.015625 
L -5.171875 -11.71875 
L -2.09375 -11.71875 
Q 4.4375 -11.71875 7.125 -8.046875 
Q 9.8125 -4.390625 9.8125 5.078125 
z
" id="DejaVuSans-74"/>
    </defs>
    <g transform="translate(361.8625 183.057812)scale(0.1 -0.1)">
     <use xlink:href="#DejaVuSans-82"/>
     <use x="69.482422" xlink:href="#DejaVuSans-74"/>
     <use x="98.974609" xlink:href="#DejaVuSans-80"/>
     <use x="159.277344" xlink:href="#DejaVuSans-72"/>
     <use x="234.472656" xlink:href="#DejaVuSans-32"/>
     <use x="266.259766" xlink:href="#DejaVuSans-40"/>
     <use x="305.273438" xlink:href="#DejaVuSans-50"/>
     <use x="368.896484" xlink:href="#DejaVuSans-52"/>
     <use x="432.519531" xlink:href="#DejaVuSans-41"/>
    </g>
   </g>
   <g id="line2d_75">
    <path d="M 333.8625 194.235937 
L 353.8625 194.235937 
" style="fill:none;stroke:#e7298a;stroke-dasharray:4.5,1.5;stroke-dashoffset:0;stroke-width:1.5;"/>
   </g>
   <g id="line2d_76"/>
   <g id="text_34">
    <!-- CB (24) -->
    <g transform="translate(361.8625 197.735937)scale(0.1 -0.1)">
     <use xlink:href="#DejaVuSans-67"/>
     <use x="69.824219" xlink:href="#DejaVuSans-66"/>
     <use x="138.427734" xlink:href="#DejaVuSans-32"/>
     <use x="170.214844" xlink:href="#DejaVuSans-40"/>
     <use x="209.228516" xlink:href="#DejaVuSans-50"/>
     <use x="272.851562" xlink:href="#DejaVuSans-52"/>
     <use x="336.474609" xlink:href="#DejaVuSans-41"/>
    </g>
   </g>
   <g id="line2d_77">
    <path d="M 333.8625 208.914062 
L 353.8625 208.914062 
" style="fill:none;stroke:#66a61e;stroke-dasharray:4.5,1.5;stroke-dashoffset:0;stroke-width:1.5;"/>
   </g>
   <g id="line2d_78"/>
   <g id="text_35">
    <!-- BP (24) -->
    <g transform="translate(361.8625 212.414062)scale(0.1 -0.1)">
     <use xlink:href="#DejaVuSans-66"/>
     <use x="68.603516" xlink:href="#DejaVuSans-80"/>
     <use x="128.90625" xlink:href="#DejaVuSans-32"/>
     <use x="160.693359" xlink:href="#DejaVuSans-40"/>
     <use x="199.707031" xlink:href="#DejaVuSans-50"/>
     <use x="263.330078" xlink:href="#DejaVuSans-52"/>
     <use x="326.953125" xlink:href="#DejaVuSans-41"/>
    </g>
   </g>
   <g id="line2d_79">
    <path d="M 333.8625 223.592187 
L 353.8625 223.592187 
" style="fill:none;stroke:#e6ab02;stroke-dasharray:4.5,1.5;stroke-dashoffset:0;stroke-width:1.5;"/>
   </g>
   <g id="line2d_80"/>
   <g id="text_36">
    <!-- CC (24) -->
    <g transform="translate(361.8625 227.092187)scale(0.1 -0.1)">
     <use xlink:href="#DejaVuSans-67"/>
     <use x="69.824219" xlink:href="#DejaVuSans-67"/>
     <use x="139.648438" xlink:href="#DejaVuSans-32"/>
     <use x="171.435547" xlink:href="#DejaVuSans-40"/>
     <use x="210.449219" xlink:href="#DejaVuSans-50"/>
     <use x="274.072266" xlink:href="#DejaVuSans-52"/>
     <use x="337.695312" xlink:href="#DejaVuSans-41"/>
    </g>
   </g>
   <g id="line2d_81">
    <path d="M 333.8625 238.270312 
L 353.8625 238.270312 
" style="fill:none;stroke:#a6761d;stroke-dasharray:4.5,1.5;stroke-dashoffset:0;stroke-width:1.5;"/>
   </g>
   <g id="line2d_82"/>
   <g id="text_37">
    <!-- AHR-H (20) -->
    <g transform="translate(361.8625 241.770312)scale(0.1 -0.1)">
     <use xlink:href="#DejaVuSans-65"/>
     <use x="68.408203" xlink:href="#DejaVuSans-72"/>
     <use x="143.603516" xlink:href="#DejaVuSans-82"/>
     <use x="213.023438" xlink:href="#DejaVuSans-45"/>
     <use x="249.107422" xlink:href="#DejaVuSans-72"/>
     <use x="324.302734" xlink:href="#DejaVuSans-32"/>
     <use x="356.089844" xlink:href="#DejaVuSans-40"/>
     <use x="395.103516" xlink:href="#DejaVuSans-50"/>
     <use x="458.726562" xlink:href="#DejaVuSans-48"/>
     <use x="522.349609" xlink:href="#DejaVuSans-41"/>
    </g>
   </g>
   <g id="line2d_83">
    <path d="M 333.8625 252.948437 
L 353.8625 252.948437 
" style="fill:none;stroke:#666666;stroke-dasharray:4.5,1.5;stroke-dashoffset:0;stroke-width:1.5;"/>
   </g>
   <g id="line2d_84"/>
   <g id="text_38">
    <!-- AHR-A (20) -->
    <g transform="translate(361.8625 256.448437)scale(0.1 -0.1)">
     <use xlink:href="#DejaVuSans-65"/>
     <use x="68.408203" xlink:href="#DejaVuSans-72"/>
     <use x="143.603516" xlink:href="#DejaVuSans-82"/>
     <use x="213.023438" xlink:href="#DejaVuSans-45"/>
     <use x="249.076172" xlink:href="#DejaVuSans-65"/>
     <use x="317.484375" xlink:href="#DejaVuSans-32"/>
     <use x="349.271484" xlink:href="#DejaVuSans-40"/>
     <use x="388.285156" xlink:href="#DejaVuSans-50"/>
     <use x="451.908203" xlink:href="#DejaVuSans-48"/>
     <use x="515.53125" xlink:href="#DejaVuSans-41"/>
    </g>
   </g>
  </g>
 </g>
 <defs>
  <clipPath id="p8b36f72a8a">
   <rect height="207.330771" width="271.81" x="43.55" y="12.9"/>
  </clipPath>
 </defs>
</svg>
