<?xml version="1.0" encoding="utf-8" standalone="no"?>
<!DOCTYPE svg PUBLIC "-//W3C//DTD SVG 1.1//EN"
  "http://www.w3.org/Graphics/SVG/1.1/DTD/svg11.dtd">
<!-- Created with matplotlib (https://matplotlib.org/) -->
<svg height="288pt" version="1.1" viewBox="0 0 432 288" width="432pt" xmlns="http://www.w3.org/2000/svg" xmlns:xlink="http://www.w3.org/1999/xlink">
 <defs>
  <style type="text/css">
*{stroke-linecap:butt;stroke-linejoin:round;}
  </style>
 </defs>
 <g id="figure_1">
  <g id="patch_1">
   <path d="M 0 288 
L 432 288 
L 432 0 
L 0 0 
z
" style="fill:#ffffff;"/>
  </g>
  <g id="axes_1">
   <g id="patch_2">
    <path d="M 43.55 220.230771 
L 315.36 220.230771 
L 315.36 12.9 
L 43.55 12.9 
z
" style="fill:#ffffff;"/>
   </g>
   <g id="matplotlib.axis_1">
    <g id="xtick_1">
     <g id="line2d_1">
      <defs>
       <path d="M 0 0 
L 0 3.5 
" id="maa8a2bef77" style="stroke:#000000;stroke-width:0.8;"/>
      </defs>
      <g>
       <use style="stroke:#000000;stroke-width:0.8;" x="49.655406" xlink:href="#maa8a2bef77" y="220.230771"/>
      </g>
     </g>
     <g id="text_1">
      <!-- 2020-11-29 -->
      <defs>
       <path d="M 19.1875 8.296875 
L 53.609375 8.296875 
L 53.609375 0 
L 7.328125 0 
L 7.328125 8.296875 
Q 12.9375 14.109375 22.625 23.890625 
Q 32.328125 33.6875 34.8125 36.53125 
Q 39.546875 41.84375 41.421875 45.53125 
Q 43.3125 49.21875 43.3125 52.78125 
Q 43.3125 58.59375 39.234375 62.25 
Q 35.15625 65.921875 28.609375 65.921875 
Q 23.96875 65.921875 18.8125 64.3125 
Q 13.671875 62.703125 7.8125 59.421875 
L 7.8125 69.390625 
Q 13.765625 71.78125 18.9375 73 
Q 24.125 74.21875 28.421875 74.21875 
Q 39.75 74.21875 46.484375 68.546875 
Q 53.21875 62.890625 53.21875 53.421875 
Q 53.21875 48.921875 51.53125 44.890625 
Q 49.859375 40.875 45.40625 35.40625 
Q 44.1875 33.984375 37.640625 27.21875 
Q 31.109375 20.453125 19.1875 8.296875 
z
" id="DejaVuSans-50"/>
       <path d="M 31.78125 66.40625 
Q 24.171875 66.40625 20.328125 58.90625 
Q 16.5 51.421875 16.5 36.375 
Q 16.5 21.390625 20.328125 13.890625 
Q 24.171875 6.390625 31.78125 6.390625 
Q 39.453125 6.390625 43.28125 13.890625 
Q 47.125 21.390625 47.125 36.375 
Q 47.125 51.421875 43.28125 58.90625 
Q 39.453125 66.40625 31.78125 66.40625 
z
M 31.78125 74.21875 
Q 44.046875 74.21875 50.515625 64.515625 
Q 56.984375 54.828125 56.984375 36.375 
Q 56.984375 17.96875 50.515625 8.265625 
Q 44.046875 -1.421875 31.78125 -1.421875 
Q 19.53125 -1.421875 13.0625 8.265625 
Q 6.59375 17.96875 6.59375 36.375 
Q 6.59375 54.828125 13.0625 64.515625 
Q 19.53125 74.21875 31.78125 74.21875 
z
" id="DejaVuSans-48"/>
       <path d="M 4.890625 31.390625 
L 31.203125 31.390625 
L 31.203125 23.390625 
L 4.890625 23.390625 
z
" id="DejaVuSans-45"/>
       <path d="M 12.40625 8.296875 
L 28.515625 8.296875 
L 28.515625 63.921875 
L 10.984375 60.40625 
L 10.984375 69.390625 
L 28.421875 72.90625 
L 38.28125 72.90625 
L 38.28125 8.296875 
L 54.390625 8.296875 
L 54.390625 0 
L 12.40625 0 
z
" id="DejaVuSans-49"/>
       <path d="M 10.984375 1.515625 
L 10.984375 10.5 
Q 14.703125 8.734375 18.5 7.8125 
Q 22.3125 6.890625 25.984375 6.890625 
Q 35.75 6.890625 40.890625 13.453125 
Q 46.046875 20.015625 46.78125 33.40625 
Q 43.953125 29.203125 39.59375 26.953125 
Q 35.25 24.703125 29.984375 24.703125 
Q 19.046875 24.703125 12.671875 31.3125 
Q 6.296875 37.9375 6.296875 49.421875 
Q 6.296875 60.640625 12.9375 67.421875 
Q 19.578125 74.21875 30.609375 74.21875 
Q 43.265625 74.21875 49.921875 64.515625 
Q 56.59375 54.828125 56.59375 36.375 
Q 56.59375 19.140625 48.40625 8.859375 
Q 40.234375 -1.421875 26.421875 -1.421875 
Q 22.703125 -1.421875 18.890625 -0.6875 
Q 15.09375 0.046875 10.984375 1.515625 
z
M 30.609375 32.421875 
Q 37.25 32.421875 41.125 36.953125 
Q 45.015625 41.5 45.015625 49.421875 
Q 45.015625 57.28125 41.125 61.84375 
Q 37.25 66.40625 30.609375 66.40625 
Q 23.96875 66.40625 20.09375 61.84375 
Q 16.21875 57.28125 16.21875 49.421875 
Q 16.21875 41.5 20.09375 36.953125 
Q 23.96875 32.421875 30.609375 32.421875 
z
" id="DejaVuSans-57"/>
      </defs>
      <g transform="translate(25.87029 262.869024)rotate(-30)scale(0.1 -0.1)">
       <use xlink:href="#DejaVuSans-50"/>
       <use x="63.623047" xlink:href="#DejaVuSans-48"/>
       <use x="127.246094" xlink:href="#DejaVuSans-50"/>
       <use x="190.869141" xlink:href="#DejaVuSans-48"/>
       <use x="254.492188" xlink:href="#DejaVuSans-45"/>
       <use x="290.576172" xlink:href="#DejaVuSans-49"/>
       <use x="354.199219" xlink:href="#DejaVuSans-49"/>
       <use x="417.822266" xlink:href="#DejaVuSans-45"/>
       <use x="453.90625" xlink:href="#DejaVuSans-50"/>
       <use x="517.529297" xlink:href="#DejaVuSans-57"/>
      </g>
     </g>
    </g>
    <g id="xtick_2">
     <g id="line2d_2">
      <g>
       <use style="stroke:#000000;stroke-width:0.8;" x="58.286181" xlink:href="#maa8a2bef77" y="220.230771"/>
      </g>
     </g>
     <g id="text_2">
      <!-- 2020-12-01 -->
      <g transform="translate(34.501065 262.869024)rotate(-30)scale(0.1 -0.1)">
       <use xlink:href="#DejaVuSans-50"/>
       <use x="63.623047" xlink:href="#DejaVuSans-48"/>
       <use x="127.246094" xlink:href="#DejaVuSans-50"/>
       <use x="190.869141" xlink:href="#DejaVuSans-48"/>
       <use x="254.492188" xlink:href="#DejaVuSans-45"/>
       <use x="290.576172" xlink:href="#DejaVuSans-49"/>
       <use x="354.199219" xlink:href="#DejaVuSans-50"/>
       <use x="417.822266" xlink:href="#DejaVuSans-45"/>
       <use x="453.90625" xlink:href="#DejaVuSans-48"/>
       <use x="517.529297" xlink:href="#DejaVuSans-49"/>
      </g>
     </g>
    </g>
    <g id="xtick_3">
     <g id="line2d_3">
      <g>
       <use style="stroke:#000000;stroke-width:0.8;" x="88.493895" xlink:href="#maa8a2bef77" y="220.230771"/>
      </g>
     </g>
     <g id="text_3">
      <!-- 2020-12-08 -->
      <defs>
       <path d="M 31.78125 34.625 
Q 24.75 34.625 20.71875 30.859375 
Q 16.703125 27.09375 16.703125 20.515625 
Q 16.703125 13.921875 20.71875 10.15625 
Q 24.75 6.390625 31.78125 6.390625 
Q 38.8125 6.390625 42.859375 10.171875 
Q 46.921875 13.96875 46.921875 20.515625 
Q 46.921875 27.09375 42.890625 30.859375 
Q 38.875 34.625 31.78125 34.625 
z
M 21.921875 38.8125 
Q 15.578125 40.375 12.03125 44.71875 
Q 8.5 49.078125 8.5 55.328125 
Q 8.5 64.0625 14.71875 69.140625 
Q 20.953125 74.21875 31.78125 74.21875 
Q 42.671875 74.21875 48.875 69.140625 
Q 55.078125 64.0625 55.078125 55.328125 
Q 55.078125 49.078125 51.53125 44.71875 
Q 48 40.375 41.703125 38.8125 
Q 48.828125 37.15625 52.796875 32.3125 
Q 56.78125 27.484375 56.78125 20.515625 
Q 56.78125 9.90625 50.3125 4.234375 
Q 43.84375 -1.421875 31.78125 -1.421875 
Q 19.734375 -1.421875 13.25 4.234375 
Q 6.78125 9.90625 6.78125 20.515625 
Q 6.78125 27.484375 10.78125 32.3125 
Q 14.796875 37.15625 21.921875 38.8125 
z
M 18.3125 54.390625 
Q 18.3125 48.734375 21.84375 45.5625 
Q 25.390625 42.390625 31.78125 42.390625 
Q 38.140625 42.390625 41.71875 45.5625 
Q 45.3125 48.734375 45.3125 54.390625 
Q 45.3125 60.0625 41.71875 63.234375 
Q 38.140625 66.40625 31.78125 66.40625 
Q 25.390625 66.40625 21.84375 63.234375 
Q 18.3125 60.0625 18.3125 54.390625 
z
" id="DejaVuSans-56"/>
      </defs>
      <g transform="translate(64.708779 262.869024)rotate(-30)scale(0.1 -0.1)">
       <use xlink:href="#DejaVuSans-50"/>
       <use x="63.623047" xlink:href="#DejaVuSans-48"/>
       <use x="127.246094" xlink:href="#DejaVuSans-50"/>
       <use x="190.869141" xlink:href="#DejaVuSans-48"/>
       <use x="254.492188" xlink:href="#DejaVuSans-45"/>
       <use x="290.576172" xlink:href="#DejaVuSans-49"/>
       <use x="354.199219" xlink:href="#DejaVuSans-50"/>
       <use x="417.822266" xlink:href="#DejaVuSans-45"/>
       <use x="453.90625" xlink:href="#DejaVuSans-48"/>
       <use x="517.529297" xlink:href="#DejaVuSans-56"/>
      </g>
     </g>
    </g>
    <g id="xtick_4">
     <g id="line2d_4">
      <g>
       <use style="stroke:#000000;stroke-width:0.8;" x="118.701608" xlink:href="#maa8a2bef77" y="220.230771"/>
      </g>
     </g>
     <g id="text_4">
      <!-- 2020-12-15 -->
      <defs>
       <path d="M 10.796875 72.90625 
L 49.515625 72.90625 
L 49.515625 64.59375 
L 19.828125 64.59375 
L 19.828125 46.734375 
Q 21.96875 47.46875 24.109375 47.828125 
Q 26.265625 48.1875 28.421875 48.1875 
Q 40.625 48.1875 47.75 41.5 
Q 54.890625 34.8125 54.890625 23.390625 
Q 54.890625 11.625 47.5625 5.09375 
Q 40.234375 -1.421875 26.90625 -1.421875 
Q 22.3125 -1.421875 17.546875 -0.640625 
Q 12.796875 0.140625 7.71875 1.703125 
L 7.71875 11.625 
Q 12.109375 9.234375 16.796875 8.0625 
Q 21.484375 6.890625 26.703125 6.890625 
Q 35.15625 6.890625 40.078125 11.328125 
Q 45.015625 15.765625 45.015625 23.390625 
Q 45.015625 31 40.078125 35.4375 
Q 35.15625 39.890625 26.703125 39.890625 
Q 22.75 39.890625 18.8125 39.015625 
Q 14.890625 38.140625 10.796875 36.28125 
z
" id="DejaVuSans-53"/>
      </defs>
      <g transform="translate(94.916492 262.869024)rotate(-30)scale(0.1 -0.1)">
       <use xlink:href="#DejaVuSans-50"/>
       <use x="63.623047" xlink:href="#DejaVuSans-48"/>
       <use x="127.246094" xlink:href="#DejaVuSans-50"/>
       <use x="190.869141" xlink:href="#DejaVuSans-48"/>
       <use x="254.492188" xlink:href="#DejaVuSans-45"/>
       <use x="290.576172" xlink:href="#DejaVuSans-49"/>
       <use x="354.199219" xlink:href="#DejaVuSans-50"/>
       <use x="417.822266" xlink:href="#DejaVuSans-45"/>
       <use x="453.90625" xlink:href="#DejaVuSans-49"/>
       <use x="517.529297" xlink:href="#DejaVuSans-53"/>
      </g>
     </g>
    </g>
    <g id="xtick_5">
     <g id="line2d_5">
      <g>
       <use style="stroke:#000000;stroke-width:0.8;" x="148.909322" xlink:href="#maa8a2bef77" y="220.230771"/>
      </g>
     </g>
     <g id="text_5">
      <!-- 2020-12-22 -->
      <g transform="translate(125.124206 262.869024)rotate(-30)scale(0.1 -0.1)">
       <use xlink:href="#DejaVuSans-50"/>
       <use x="63.623047" xlink:href="#DejaVuSans-48"/>
       <use x="127.246094" xlink:href="#DejaVuSans-50"/>
       <use x="190.869141" xlink:href="#DejaVuSans-48"/>
       <use x="254.492188" xlink:href="#DejaVuSans-45"/>
       <use x="290.576172" xlink:href="#DejaVuSans-49"/>
       <use x="354.199219" xlink:href="#DejaVuSans-50"/>
       <use x="417.822266" xlink:href="#DejaVuSans-45"/>
       <use x="453.90625" xlink:href="#DejaVuSans-50"/>
       <use x="517.529297" xlink:href="#DejaVuSans-50"/>
      </g>
     </g>
    </g>
    <g id="xtick_6">
     <g id="line2d_6">
      <g>
       <use style="stroke:#000000;stroke-width:0.8;" x="179.117036" xlink:href="#maa8a2bef77" y="220.230771"/>
      </g>
     </g>
     <g id="text_6">
      <!-- 2020-12-29 -->
      <g transform="translate(155.331919 262.869024)rotate(-30)scale(0.1 -0.1)">
       <use xlink:href="#DejaVuSans-50"/>
       <use x="63.623047" xlink:href="#DejaVuSans-48"/>
       <use x="127.246094" xlink:href="#DejaVuSans-50"/>
       <use x="190.869141" xlink:href="#DejaVuSans-48"/>
       <use x="254.492188" xlink:href="#DejaVuSans-45"/>
       <use x="290.576172" xlink:href="#DejaVuSans-49"/>
       <use x="354.199219" xlink:href="#DejaVuSans-50"/>
       <use x="417.822266" xlink:href="#DejaVuSans-45"/>
       <use x="453.90625" xlink:href="#DejaVuSans-50"/>
       <use x="517.529297" xlink:href="#DejaVuSans-57"/>
      </g>
     </g>
    </g>
    <g id="xtick_7">
     <g id="line2d_7">
      <g>
       <use style="stroke:#000000;stroke-width:0.8;" x="192.063199" xlink:href="#maa8a2bef77" y="220.230771"/>
      </g>
     </g>
     <g id="text_7">
      <!-- 2021-01-01 -->
      <g transform="translate(168.278082 262.869024)rotate(-30)scale(0.1 -0.1)">
       <use xlink:href="#DejaVuSans-50"/>
       <use x="63.623047" xlink:href="#DejaVuSans-48"/>
       <use x="127.246094" xlink:href="#DejaVuSans-50"/>
       <use x="190.869141" xlink:href="#DejaVuSans-49"/>
       <use x="254.492188" xlink:href="#DejaVuSans-45"/>
       <use x="290.576172" xlink:href="#DejaVuSans-48"/>
       <use x="354.199219" xlink:href="#DejaVuSans-49"/>
       <use x="417.822266" xlink:href="#DejaVuSans-45"/>
       <use x="453.90625" xlink:href="#DejaVuSans-48"/>
       <use x="517.529297" xlink:href="#DejaVuSans-49"/>
      </g>
     </g>
    </g>
    <g id="xtick_8">
     <g id="line2d_8">
      <g>
       <use style="stroke:#000000;stroke-width:0.8;" x="222.270912" xlink:href="#maa8a2bef77" y="220.230771"/>
      </g>
     </g>
     <g id="text_8">
      <!-- 2021-01-08 -->
      <g transform="translate(198.485796 262.869024)rotate(-30)scale(0.1 -0.1)">
       <use xlink:href="#DejaVuSans-50"/>
       <use x="63.623047" xlink:href="#DejaVuSans-48"/>
       <use x="127.246094" xlink:href="#DejaVuSans-50"/>
       <use x="190.869141" xlink:href="#DejaVuSans-49"/>
       <use x="254.492188" xlink:href="#DejaVuSans-45"/>
       <use x="290.576172" xlink:href="#DejaVuSans-48"/>
       <use x="354.199219" xlink:href="#DejaVuSans-49"/>
       <use x="417.822266" xlink:href="#DejaVuSans-45"/>
       <use x="453.90625" xlink:href="#DejaVuSans-48"/>
       <use x="517.529297" xlink:href="#DejaVuSans-56"/>
      </g>
     </g>
    </g>
    <g id="xtick_9">
     <g id="line2d_9">
      <g>
       <use style="stroke:#000000;stroke-width:0.8;" x="252.478626" xlink:href="#maa8a2bef77" y="220.230771"/>
      </g>
     </g>
     <g id="text_9">
      <!-- 2021-01-15 -->
      <g transform="translate(228.693509 262.869024)rotate(-30)scale(0.1 -0.1)">
       <use xlink:href="#DejaVuSans-50"/>
       <use x="63.623047" xlink:href="#DejaVuSans-48"/>
       <use x="127.246094" xlink:href="#DejaVuSans-50"/>
       <use x="190.869141" xlink:href="#DejaVuSans-49"/>
       <use x="254.492188" xlink:href="#DejaVuSans-45"/>
       <use x="290.576172" xlink:href="#DejaVuSans-48"/>
       <use x="354.199219" xlink:href="#DejaVuSans-49"/>
       <use x="417.822266" xlink:href="#DejaVuSans-45"/>
       <use x="453.90625" xlink:href="#DejaVuSans-49"/>
       <use x="517.529297" xlink:href="#DejaVuSans-53"/>
      </g>
     </g>
    </g>
    <g id="xtick_10">
     <g id="line2d_10">
      <g>
       <use style="stroke:#000000;stroke-width:0.8;" x="282.686339" xlink:href="#maa8a2bef77" y="220.230771"/>
      </g>
     </g>
     <g id="text_10">
      <!-- 2021-01-22 -->
      <g transform="translate(258.901223 262.869024)rotate(-30)scale(0.1 -0.1)">
       <use xlink:href="#DejaVuSans-50"/>
       <use x="63.623047" xlink:href="#DejaVuSans-48"/>
       <use x="127.246094" xlink:href="#DejaVuSans-50"/>
       <use x="190.869141" xlink:href="#DejaVuSans-49"/>
       <use x="254.492188" xlink:href="#DejaVuSans-45"/>
       <use x="290.576172" xlink:href="#DejaVuSans-48"/>
       <use x="354.199219" xlink:href="#DejaVuSans-49"/>
       <use x="417.822266" xlink:href="#DejaVuSans-45"/>
       <use x="453.90625" xlink:href="#DejaVuSans-50"/>
       <use x="517.529297" xlink:href="#DejaVuSans-50"/>
      </g>
     </g>
    </g>
    <g id="xtick_11">
     <g id="line2d_11">
      <g>
       <use style="stroke:#000000;stroke-width:0.8;" x="312.894053" xlink:href="#maa8a2bef77" y="220.230771"/>
      </g>
     </g>
     <g id="text_11">
      <!-- 2021-01-29 -->
      <g transform="translate(289.108936 262.869024)rotate(-30)scale(0.1 -0.1)">
       <use xlink:href="#DejaVuSans-50"/>
       <use x="63.623047" xlink:href="#DejaVuSans-48"/>
       <use x="127.246094" xlink:href="#DejaVuSans-50"/>
       <use x="190.869141" xlink:href="#DejaVuSans-49"/>
       <use x="254.492188" xlink:href="#DejaVuSans-45"/>
       <use x="290.576172" xlink:href="#DejaVuSans-48"/>
       <use x="354.199219" xlink:href="#DejaVuSans-49"/>
       <use x="417.822266" xlink:href="#DejaVuSans-45"/>
       <use x="453.90625" xlink:href="#DejaVuSans-50"/>
       <use x="517.529297" xlink:href="#DejaVuSans-57"/>
      </g>
     </g>
    </g>
    <g id="text_12">
     <!-- Date -->
     <defs>
      <path d="M 19.671875 64.796875 
L 19.671875 8.109375 
L 31.59375 8.109375 
Q 46.6875 8.109375 53.6875 14.9375 
Q 60.6875 21.78125 60.6875 36.53125 
Q 60.6875 51.171875 53.6875 57.984375 
Q 46.6875 64.796875 31.59375 64.796875 
z
M 9.8125 72.90625 
L 30.078125 72.90625 
Q 51.265625 72.90625 61.171875 64.09375 
Q 71.09375 55.28125 71.09375 36.53125 
Q 71.09375 17.671875 61.125 8.828125 
Q 51.171875 0 30.078125 0 
L 9.8125 0 
z
" id="DejaVuSans-68"/>
      <path d="M 34.28125 27.484375 
Q 23.390625 27.484375 19.1875 25 
Q 14.984375 22.515625 14.984375 16.5 
Q 14.984375 11.71875 18.140625 8.90625 
Q 21.296875 6.109375 26.703125 6.109375 
Q 34.1875 6.109375 38.703125 11.40625 
Q 43.21875 16.703125 43.21875 25.484375 
L 43.21875 27.484375 
z
M 52.203125 31.203125 
L 52.203125 0 
L 43.21875 0 
L 43.21875 8.296875 
Q 40.140625 3.328125 35.546875 0.953125 
Q 30.953125 -1.421875 24.3125 -1.421875 
Q 15.921875 -1.421875 10.953125 3.296875 
Q 6 8.015625 6 15.921875 
Q 6 25.140625 12.171875 29.828125 
Q 18.359375 34.515625 30.609375 34.515625 
L 43.21875 34.515625 
L 43.21875 35.40625 
Q 43.21875 41.609375 39.140625 45 
Q 35.0625 48.390625 27.6875 48.390625 
Q 23 48.390625 18.546875 47.265625 
Q 14.109375 46.140625 10.015625 43.890625 
L 10.015625 52.203125 
Q 14.9375 54.109375 19.578125 55.046875 
Q 24.21875 56 28.609375 56 
Q 40.484375 56 46.34375 49.84375 
Q 52.203125 43.703125 52.203125 31.203125 
z
" id="DejaVuSans-97"/>
      <path d="M 18.3125 70.21875 
L 18.3125 54.6875 
L 36.8125 54.6875 
L 36.8125 47.703125 
L 18.3125 47.703125 
L 18.3125 18.015625 
Q 18.3125 11.328125 20.140625 9.421875 
Q 21.96875 7.515625 27.59375 7.515625 
L 36.8125 7.515625 
L 36.8125 0 
L 27.59375 0 
Q 17.1875 0 13.234375 3.875 
Q 9.28125 7.765625 9.28125 18.015625 
L 9.28125 47.703125 
L 2.6875 47.703125 
L 2.6875 54.6875 
L 9.28125 54.6875 
L 9.28125 70.21875 
z
" id="DejaVuSans-116"/>
      <path d="M 56.203125 29.59375 
L 56.203125 25.203125 
L 14.890625 25.203125 
Q 15.484375 15.921875 20.484375 11.0625 
Q 25.484375 6.203125 34.421875 6.203125 
Q 39.59375 6.203125 44.453125 7.46875 
Q 49.3125 8.734375 54.109375 11.28125 
L 54.109375 2.78125 
Q 49.265625 0.734375 44.1875 -0.34375 
Q 39.109375 -1.421875 33.890625 -1.421875 
Q 20.796875 -1.421875 13.15625 6.1875 
Q 5.515625 13.8125 5.515625 26.8125 
Q 5.515625 40.234375 12.765625 48.109375 
Q 20.015625 56 32.328125 56 
Q 43.359375 56 49.78125 48.890625 
Q 56.203125 41.796875 56.203125 29.59375 
z
M 47.21875 32.234375 
Q 47.125 39.59375 43.09375 43.984375 
Q 39.0625 48.390625 32.421875 48.390625 
Q 24.90625 48.390625 20.390625 44.140625 
Q 15.875 39.890625 15.1875 32.171875 
z
" id="DejaVuSans-101"/>
     </defs>
     <g transform="translate(167.504219 276.268523)scale(0.1 -0.1)">
      <use xlink:href="#DejaVuSans-68"/>
      <use x="77.001953" xlink:href="#DejaVuSans-97"/>
      <use x="138.28125" xlink:href="#DejaVuSans-116"/>
      <use x="177.490234" xlink:href="#DejaVuSans-101"/>
     </g>
    </g>
   </g>
   <g id="matplotlib.axis_2">
    <g id="ytick_1">
     <g id="line2d_12">
      <defs>
       <path d="M 0 0 
L -3.5 0 
" id="m3bf526b120" style="stroke:#000000;stroke-width:0.8;"/>
      </defs>
      <g>
       <use style="stroke:#000000;stroke-width:0.8;" x="43.55" xlink:href="#m3bf526b120" y="210.806645"/>
      </g>
     </g>
     <g id="text_13">
      <!-- 0 -->
      <g transform="translate(30.1875 214.605864)scale(0.1 -0.1)">
       <use xlink:href="#DejaVuSans-48"/>
      </g>
     </g>
    </g>
    <g id="ytick_2">
     <g id="line2d_13">
      <g>
       <use style="stroke:#000000;stroke-width:0.8;" x="43.55" xlink:href="#m3bf526b120" y="187.24633"/>
      </g>
     </g>
     <g id="text_14">
      <!-- 5 -->
      <g transform="translate(30.1875 191.045549)scale(0.1 -0.1)">
       <use xlink:href="#DejaVuSans-53"/>
      </g>
     </g>
    </g>
    <g id="ytick_3">
     <g id="line2d_14">
      <g>
       <use style="stroke:#000000;stroke-width:0.8;" x="43.55" xlink:href="#m3bf526b120" y="163.686016"/>
      </g>
     </g>
     <g id="text_15">
      <!-- 10 -->
      <g transform="translate(23.825 167.485234)scale(0.1 -0.1)">
       <use xlink:href="#DejaVuSans-49"/>
       <use x="63.623047" xlink:href="#DejaVuSans-48"/>
      </g>
     </g>
    </g>
    <g id="ytick_4">
     <g id="line2d_15">
      <g>
       <use style="stroke:#000000;stroke-width:0.8;" x="43.55" xlink:href="#m3bf526b120" y="140.125701"/>
      </g>
     </g>
     <g id="text_16">
      <!-- 15 -->
      <g transform="translate(23.825 143.924919)scale(0.1 -0.1)">
       <use xlink:href="#DejaVuSans-49"/>
       <use x="63.623047" xlink:href="#DejaVuSans-53"/>
      </g>
     </g>
    </g>
    <g id="ytick_5">
     <g id="line2d_16">
      <g>
       <use style="stroke:#000000;stroke-width:0.8;" x="43.55" xlink:href="#m3bf526b120" y="116.565386"/>
      </g>
     </g>
     <g id="text_17">
      <!-- 20 -->
      <g transform="translate(23.825 120.364604)scale(0.1 -0.1)">
       <use xlink:href="#DejaVuSans-50"/>
       <use x="63.623047" xlink:href="#DejaVuSans-48"/>
      </g>
     </g>
    </g>
    <g id="ytick_6">
     <g id="line2d_17">
      <g>
       <use style="stroke:#000000;stroke-width:0.8;" x="43.55" xlink:href="#m3bf526b120" y="93.005071"/>
      </g>
     </g>
     <g id="text_18">
      <!-- 25 -->
      <g transform="translate(23.825 96.80429)scale(0.1 -0.1)">
       <use xlink:href="#DejaVuSans-50"/>
       <use x="63.623047" xlink:href="#DejaVuSans-53"/>
      </g>
     </g>
    </g>
    <g id="ytick_7">
     <g id="line2d_18">
      <g>
       <use style="stroke:#000000;stroke-width:0.8;" x="43.55" xlink:href="#m3bf526b120" y="69.444756"/>
      </g>
     </g>
     <g id="text_19">
      <!-- 30 -->
      <defs>
       <path d="M 40.578125 39.3125 
Q 47.65625 37.796875 51.625 33 
Q 55.609375 28.21875 55.609375 21.1875 
Q 55.609375 10.40625 48.1875 4.484375 
Q 40.765625 -1.421875 27.09375 -1.421875 
Q 22.515625 -1.421875 17.65625 -0.515625 
Q 12.796875 0.390625 7.625 2.203125 
L 7.625 11.71875 
Q 11.71875 9.328125 16.59375 8.109375 
Q 21.484375 6.890625 26.8125 6.890625 
Q 36.078125 6.890625 40.9375 10.546875 
Q 45.796875 14.203125 45.796875 21.1875 
Q 45.796875 27.640625 41.28125 31.265625 
Q 36.765625 34.90625 28.71875 34.90625 
L 20.21875 34.90625 
L 20.21875 43.015625 
L 29.109375 43.015625 
Q 36.375 43.015625 40.234375 45.921875 
Q 44.09375 48.828125 44.09375 54.296875 
Q 44.09375 59.90625 40.109375 62.90625 
Q 36.140625 65.921875 28.71875 65.921875 
Q 24.65625 65.921875 20.015625 65.03125 
Q 15.375 64.15625 9.8125 62.3125 
L 9.8125 71.09375 
Q 15.4375 72.65625 20.34375 73.4375 
Q 25.25 74.21875 29.59375 74.21875 
Q 40.828125 74.21875 47.359375 69.109375 
Q 53.90625 64.015625 53.90625 55.328125 
Q 53.90625 49.265625 50.4375 45.09375 
Q 46.96875 40.921875 40.578125 39.3125 
z
" id="DejaVuSans-51"/>
      </defs>
      <g transform="translate(23.825 73.243975)scale(0.1 -0.1)">
       <use xlink:href="#DejaVuSans-51"/>
       <use x="63.623047" xlink:href="#DejaVuSans-48"/>
      </g>
     </g>
    </g>
    <g id="ytick_8">
     <g id="line2d_19">
      <g>
       <use style="stroke:#000000;stroke-width:0.8;" x="43.55" xlink:href="#m3bf526b120" y="45.884441"/>
      </g>
     </g>
     <g id="text_20">
      <!-- 35 -->
      <g transform="translate(23.825 49.68366)scale(0.1 -0.1)">
       <use xlink:href="#DejaVuSans-51"/>
       <use x="63.623047" xlink:href="#DejaVuSans-53"/>
      </g>
     </g>
    </g>
    <g id="ytick_9">
     <g id="line2d_20">
      <g>
       <use style="stroke:#000000;stroke-width:0.8;" x="43.55" xlink:href="#m3bf526b120" y="22.324126"/>
      </g>
     </g>
     <g id="text_21">
      <!-- 40 -->
      <defs>
       <path d="M 37.796875 64.3125 
L 12.890625 25.390625 
L 37.796875 25.390625 
z
M 35.203125 72.90625 
L 47.609375 72.90625 
L 47.609375 25.390625 
L 58.015625 25.390625 
L 58.015625 17.1875 
L 47.609375 17.1875 
L 47.609375 0 
L 37.796875 0 
L 37.796875 17.1875 
L 4.890625 17.1875 
L 4.890625 26.703125 
z
" id="DejaVuSans-52"/>
      </defs>
      <g transform="translate(23.825 26.123345)scale(0.1 -0.1)">
       <use xlink:href="#DejaVuSans-52"/>
       <use x="63.623047" xlink:href="#DejaVuSans-48"/>
      </g>
     </g>
    </g>
    <g id="text_22">
     <!-- Students Registered -->
     <defs>
      <path d="M 53.515625 70.515625 
L 53.515625 60.890625 
Q 47.90625 63.578125 42.921875 64.890625 
Q 37.9375 66.21875 33.296875 66.21875 
Q 25.25 66.21875 20.875 63.09375 
Q 16.5 59.96875 16.5 54.203125 
Q 16.5 49.359375 19.40625 46.890625 
Q 22.3125 44.4375 30.421875 42.921875 
L 36.375 41.703125 
Q 47.40625 39.59375 52.65625 34.296875 
Q 57.90625 29 57.90625 20.125 
Q 57.90625 9.515625 50.796875 4.046875 
Q 43.703125 -1.421875 29.984375 -1.421875 
Q 24.8125 -1.421875 18.96875 -0.25 
Q 13.140625 0.921875 6.890625 3.21875 
L 6.890625 13.375 
Q 12.890625 10.015625 18.65625 8.296875 
Q 24.421875 6.59375 29.984375 6.59375 
Q 38.421875 6.59375 43.015625 9.90625 
Q 47.609375 13.234375 47.609375 19.390625 
Q 47.609375 24.75 44.3125 27.78125 
Q 41.015625 30.8125 33.5 32.328125 
L 27.484375 33.5 
Q 16.453125 35.6875 11.515625 40.375 
Q 6.59375 45.0625 6.59375 53.421875 
Q 6.59375 63.09375 13.40625 68.65625 
Q 20.21875 74.21875 32.171875 74.21875 
Q 37.3125 74.21875 42.625 73.28125 
Q 47.953125 72.359375 53.515625 70.515625 
z
" id="DejaVuSans-83"/>
      <path d="M 8.5 21.578125 
L 8.5 54.6875 
L 17.484375 54.6875 
L 17.484375 21.921875 
Q 17.484375 14.15625 20.5 10.265625 
Q 23.53125 6.390625 29.59375 6.390625 
Q 36.859375 6.390625 41.078125 11.03125 
Q 45.3125 15.671875 45.3125 23.6875 
L 45.3125 54.6875 
L 54.296875 54.6875 
L 54.296875 0 
L 45.3125 0 
L 45.3125 8.40625 
Q 42.046875 3.421875 37.71875 1 
Q 33.40625 -1.421875 27.6875 -1.421875 
Q 18.265625 -1.421875 13.375 4.4375 
Q 8.5 10.296875 8.5 21.578125 
z
M 31.109375 56 
z
" id="DejaVuSans-117"/>
      <path d="M 45.40625 46.390625 
L 45.40625 75.984375 
L 54.390625 75.984375 
L 54.390625 0 
L 45.40625 0 
L 45.40625 8.203125 
Q 42.578125 3.328125 38.25 0.953125 
Q 33.9375 -1.421875 27.875 -1.421875 
Q 17.96875 -1.421875 11.734375 6.484375 
Q 5.515625 14.40625 5.515625 27.296875 
Q 5.515625 40.1875 11.734375 48.09375 
Q 17.96875 56 27.875 56 
Q 33.9375 56 38.25 53.625 
Q 42.578125 51.265625 45.40625 46.390625 
z
M 14.796875 27.296875 
Q 14.796875 17.390625 18.875 11.75 
Q 22.953125 6.109375 30.078125 6.109375 
Q 37.203125 6.109375 41.296875 11.75 
Q 45.40625 17.390625 45.40625 27.296875 
Q 45.40625 37.203125 41.296875 42.84375 
Q 37.203125 48.484375 30.078125 48.484375 
Q 22.953125 48.484375 18.875 42.84375 
Q 14.796875 37.203125 14.796875 27.296875 
z
" id="DejaVuSans-100"/>
      <path d="M 54.890625 33.015625 
L 54.890625 0 
L 45.90625 0 
L 45.90625 32.71875 
Q 45.90625 40.484375 42.875 44.328125 
Q 39.84375 48.1875 33.796875 48.1875 
Q 26.515625 48.1875 22.3125 43.546875 
Q 18.109375 38.921875 18.109375 30.90625 
L 18.109375 0 
L 9.078125 0 
L 9.078125 54.6875 
L 18.109375 54.6875 
L 18.109375 46.1875 
Q 21.34375 51.125 25.703125 53.5625 
Q 30.078125 56 35.796875 56 
Q 45.21875 56 50.046875 50.171875 
Q 54.890625 44.34375 54.890625 33.015625 
z
" id="DejaVuSans-110"/>
      <path d="M 44.28125 53.078125 
L 44.28125 44.578125 
Q 40.484375 46.53125 36.375 47.5 
Q 32.28125 48.484375 27.875 48.484375 
Q 21.1875 48.484375 17.84375 46.4375 
Q 14.5 44.390625 14.5 40.28125 
Q 14.5 37.15625 16.890625 35.375 
Q 19.28125 33.59375 26.515625 31.984375 
L 29.59375 31.296875 
Q 39.15625 29.25 43.1875 25.515625 
Q 47.21875 21.78125 47.21875 15.09375 
Q 47.21875 7.46875 41.1875 3.015625 
Q 35.15625 -1.421875 24.609375 -1.421875 
Q 20.21875 -1.421875 15.453125 -0.5625 
Q 10.6875 0.296875 5.421875 2 
L 5.421875 11.28125 
Q 10.40625 8.6875 15.234375 7.390625 
Q 20.0625 6.109375 24.8125 6.109375 
Q 31.15625 6.109375 34.5625 8.28125 
Q 37.984375 10.453125 37.984375 14.40625 
Q 37.984375 18.0625 35.515625 20.015625 
Q 33.0625 21.96875 24.703125 23.78125 
L 21.578125 24.515625 
Q 13.234375 26.265625 9.515625 29.90625 
Q 5.8125 33.546875 5.8125 39.890625 
Q 5.8125 47.609375 11.28125 51.796875 
Q 16.75 56 26.8125 56 
Q 31.78125 56 36.171875 55.265625 
Q 40.578125 54.546875 44.28125 53.078125 
z
" id="DejaVuSans-115"/>
      <path id="DejaVuSans-32"/>
      <path d="M 44.390625 34.1875 
Q 47.5625 33.109375 50.5625 29.59375 
Q 53.5625 26.078125 56.59375 19.921875 
L 66.609375 0 
L 56 0 
L 46.6875 18.703125 
Q 43.0625 26.03125 39.671875 28.421875 
Q 36.28125 30.8125 30.421875 30.8125 
L 19.671875 30.8125 
L 19.671875 0 
L 9.8125 0 
L 9.8125 72.90625 
L 32.078125 72.90625 
Q 44.578125 72.90625 50.734375 67.671875 
Q 56.890625 62.453125 56.890625 51.90625 
Q 56.890625 45.015625 53.6875 40.46875 
Q 50.484375 35.9375 44.390625 34.1875 
z
M 19.671875 64.796875 
L 19.671875 38.921875 
L 32.078125 38.921875 
Q 39.203125 38.921875 42.84375 42.21875 
Q 46.484375 45.515625 46.484375 51.90625 
Q 46.484375 58.296875 42.84375 61.546875 
Q 39.203125 64.796875 32.078125 64.796875 
z
" id="DejaVuSans-82"/>
      <path d="M 45.40625 27.984375 
Q 45.40625 37.75 41.375 43.109375 
Q 37.359375 48.484375 30.078125 48.484375 
Q 22.859375 48.484375 18.828125 43.109375 
Q 14.796875 37.75 14.796875 27.984375 
Q 14.796875 18.265625 18.828125 12.890625 
Q 22.859375 7.515625 30.078125 7.515625 
Q 37.359375 7.515625 41.375 12.890625 
Q 45.40625 18.265625 45.40625 27.984375 
z
M 54.390625 6.78125 
Q 54.390625 -7.171875 48.1875 -13.984375 
Q 42 -20.796875 29.203125 -20.796875 
Q 24.46875 -20.796875 20.265625 -20.09375 
Q 16.0625 -19.390625 12.109375 -17.921875 
L 12.109375 -9.1875 
Q 16.0625 -11.328125 19.921875 -12.34375 
Q 23.78125 -13.375 27.78125 -13.375 
Q 36.625 -13.375 41.015625 -8.765625 
Q 45.40625 -4.15625 45.40625 5.171875 
L 45.40625 9.625 
Q 42.625 4.78125 38.28125 2.390625 
Q 33.9375 0 27.875 0 
Q 17.828125 0 11.671875 7.65625 
Q 5.515625 15.328125 5.515625 27.984375 
Q 5.515625 40.671875 11.671875 48.328125 
Q 17.828125 56 27.875 56 
Q 33.9375 56 38.28125 53.609375 
Q 42.625 51.21875 45.40625 46.390625 
L 45.40625 54.6875 
L 54.390625 54.6875 
z
" id="DejaVuSans-103"/>
      <path d="M 9.421875 54.6875 
L 18.40625 54.6875 
L 18.40625 0 
L 9.421875 0 
z
M 9.421875 75.984375 
L 18.40625 75.984375 
L 18.40625 64.59375 
L 9.421875 64.59375 
z
" id="DejaVuSans-105"/>
      <path d="M 41.109375 46.296875 
Q 39.59375 47.171875 37.8125 47.578125 
Q 36.03125 48 33.890625 48 
Q 26.265625 48 22.1875 43.046875 
Q 18.109375 38.09375 18.109375 28.8125 
L 18.109375 0 
L 9.078125 0 
L 9.078125 54.6875 
L 18.109375 54.6875 
L 18.109375 46.1875 
Q 20.953125 51.171875 25.484375 53.578125 
Q 30.03125 56 36.53125 56 
Q 37.453125 56 38.578125 55.875 
Q 39.703125 55.765625 41.0625 55.515625 
z
" id="DejaVuSans-114"/>
     </defs>
     <g transform="translate(17.745313 167.498979)rotate(-90)scale(0.1 -0.1)">
      <use xlink:href="#DejaVuSans-83"/>
      <use x="63.476562" xlink:href="#DejaVuSans-116"/>
      <use x="102.685547" xlink:href="#DejaVuSans-117"/>
      <use x="166.064453" xlink:href="#DejaVuSans-100"/>
      <use x="229.541016" xlink:href="#DejaVuSans-101"/>
      <use x="291.064453" xlink:href="#DejaVuSans-110"/>
      <use x="354.443359" xlink:href="#DejaVuSans-116"/>
      <use x="393.652344" xlink:href="#DejaVuSans-115"/>
      <use x="445.751953" xlink:href="#DejaVuSans-32"/>
      <use x="477.539062" xlink:href="#DejaVuSans-82"/>
      <use x="546.958984" xlink:href="#DejaVuSans-101"/>
      <use x="608.482422" xlink:href="#DejaVuSans-103"/>
      <use x="671.958984" xlink:href="#DejaVuSans-105"/>
      <use x="699.742188" xlink:href="#DejaVuSans-115"/>
      <use x="751.841797" xlink:href="#DejaVuSans-116"/>
      <use x="791.050781" xlink:href="#DejaVuSans-101"/>
      <use x="852.574219" xlink:href="#DejaVuSans-114"/>
      <use x="893.65625" xlink:href="#DejaVuSans-101"/>
      <use x="955.179688" xlink:href="#DejaVuSans-100"/>
     </g>
    </g>
   </g>
   <g id="line2d_21">
    <path clip-path="url(#pbca7997abf)" d="M 55.905 201.382519 
L 61.073543 201.382519 
L 61.073543 196.670456 
L 61.163444 196.670456 
L 64.489921 196.670456 
L 64.489921 191.958393 
L 64.579823 191.958393 
L 65.209134 191.958393 
L 65.209134 187.24633 
L 65.299026 187.24633 
L 68.985077 187.24633 
L 68.985077 177.822204 
L 69.075003 177.822204 
L 69.344715 177.822204 
L 69.344715 173.110142 
L 69.434626 173.110142 
L 69.704335 173.110142 
L 69.704335 168.398079 
L 69.794225 168.398079 
L 69.884138 168.398079 
L 69.884138 163.686016 
L 69.974062 163.686016 
L 74.01973 163.686016 
L 74.01973 158.973953 
L 74.109625 158.973953 
L 78.155307 158.973953 
L 78.155307 154.26189 
L 78.245223 154.26189 
L 86.066867 154.26189 
L 86.066867 144.837764 
L 86.156726 144.837764 
L 86.426476 144.837764 
L 86.426476 140.125701 
L 86.51636 140.125701 
L 87.325513 140.125701 
L 87.325513 135.413638 
L 87.415403 135.413638 
L 90.202418 135.413638 
L 90.202418 130.701575 
L 90.292321 130.701575 
L 91.101471 130.701575 
L 91.101471 125.989512 
L 91.191377 125.989512 
L 91.28128 125.989512 
L 91.28128 121.277449 
L 91.371189 121.277449 
L 91.461086 121.277449 
L 91.506031 107.14126 
L 91.550986 107.14126 
L 94.517794 107.14126 
L 94.517794 102.429197 
L 94.607735 102.429197 
L 94.697598 102.429197 
L 94.697598 93.005071 
L 94.787538 93.005071 
L 94.877404 93.005071 
L 94.877404 88.293008 
L 94.967318 88.293008 
L 95.05723 88.293008 
L 95.10218 74.156819 
L 95.147135 74.156819 
L 95.416839 74.156819 
L 95.416839 60.02063 
L 95.50676 60.02063 
L 95.596669 60.02063 
L 95.596669 50.596504 
L 95.686585 50.596504 
L 95.776451 50.596504 
L 95.776451 31.748252 
L 95.866386 31.748252 
L 95.956283 31.748252 
L 95.956283 27.036189 
L 96.046206 27.036189 
L 96.85533 27.036189 
L 96.85533 22.324126 
L 96.945238 22.324126 
L 146.302491 22.324126 
L 146.302491 27.036189 
L 146.39236 27.036189 
L 146.482297 27.036189 
L 146.482297 22.324126 
L 146.572196 22.324126 
L 146.841893 22.324126 
L 146.841893 27.036189 
L 146.931817 27.036189 
L 147.381295 27.036189 
L 147.381295 31.748252 
L 147.471235 31.748252 
L 147.740955 31.748252 
L 147.740955 36.460315 
L 147.830835 36.460315 
L 152.595732 36.460315 
L 152.595732 41.172378 
L 152.685633 41.172378 
L 163.204412 41.172378 
L 163.204412 36.460315 
L 163.294319 36.460315 
L 183.163054 36.460315 
L 183.163054 41.172378 
L 183.252984 41.172378 
L 190.175578 41.172378 
L 190.175578 36.460315 
L 190.265476 36.460315 
L 212.112158 36.460315 
L 212.112158 31.748252 
L 212.202057 31.748252 
L 214.989036 31.748252 
L 214.989036 27.036189 
L 215.078945 27.036189 
L 220.023678 27.036189 
L 220.023678 22.324126 
L 245.916015 22.324126 
L 245.916015 31.748252 
L 246.005885 31.748252 
L 246.455394 31.748252 
L 246.455394 36.460315 
L 246.545341 36.460315 
L 277.741981 36.460315 
L 277.741981 41.172378 
L 277.831918 41.172378 
L 284.21507 41.172378 
L 284.21507 36.460315 
L 284.304963 36.460315 
L 288.530468 36.460315 
L 288.530468 31.748252 
L 288.620346 31.748252 
L 289.78908 31.748252 
L 289.78908 27.036189 
L 289.879029 27.036189 
L 302.016056 27.036189 
L 302.016056 22.324126 
L 302.105966 22.324126 
L 303.005 22.324126 
L 303.005 22.324126 
" style="fill:none;stroke:#1b9e77;stroke-linecap:square;stroke-width:1.5;"/>
   </g>
   <g id="line2d_22">
    <path clip-path="url(#pbca7997abf)" d="M 55.905 210.806645 
L 56.094449 210.806645 
L 56.094449 201.382519 
L 56.203763 201.382519 
L 56.937982 201.382519 
L 56.937982 196.670456 
L 57.024856 196.670456 
L 61.073543 196.670456 
L 61.073543 191.958393 
L 61.163444 191.958393 
L 64.489921 191.958393 
L 64.489921 177.822204 
L 64.579823 177.822204 
L 64.669711 177.822204 
L 64.669711 173.110142 
L 64.759629 173.110142 
L 64.849518 173.110142 
L 64.849518 154.26189 
L 64.939432 154.26189 
L 65.029324 154.26189 
L 65.029324 149.549827 
L 65.119226 149.549827 
L 65.209134 149.549827 
L 65.209134 140.125701 
L 65.299026 140.125701 
L 65.388969 140.125701 
L 65.388969 125.989512 
L 65.478869 125.989512 
L 68.625491 125.989512 
L 68.625491 121.277449 
L 68.715391 121.277449 
L 68.805278 121.277449 
L 68.805278 116.565386 
L 68.89518 116.565386 
L 69.344715 116.565386 
L 69.344715 111.853323 
L 69.434626 111.853323 
L 69.704335 111.853323 
L 69.704335 97.717134 
L 69.794225 97.717134 
L 69.884138 97.717134 
L 69.884138 93.005071 
L 69.974062 93.005071 
L 73.480287 93.005071 
L 73.480287 88.293008 
L 73.57021 88.293008 
L 73.660089 88.293008 
L 73.660089 83.580945 
L 73.750019 83.580945 
L 74.01973 83.580945 
L 74.01973 78.868882 
L 74.109625 78.868882 
L 74.559143 78.868882 
L 74.559143 74.156819 
L 74.649037 74.156819 
L 77.615901 74.156819 
L 77.615901 69.444756 
L 77.705772 69.444756 
L 86.066867 69.444756 
L 86.066867 45.884441 
L 86.156726 45.884441 
L 86.246657 45.884441 
L 86.246657 36.460315 
L 86.336533 36.460315 
L 86.426476 36.460315 
L 86.426476 31.748252 
L 86.51636 31.748252 
L 147.021685 31.748252 
L 147.021685 36.460315 
L 147.111606 36.460315 
L 147.201487 36.460315 
L 147.201487 31.748252 
L 147.291392 31.748252 
L 156.911108 31.748252 
L 156.911108 36.460315 
L 157.001043 36.460315 
L 157.090929 36.460315 
L 157.090929 31.748252 
L 157.180828 31.748252 
L 245.916015 31.748252 
L 245.916015 22.324126 
L 246.005885 22.324126 
L 303.005 22.324126 
L 303.005 22.324126 
" style="fill:none;stroke:#d95f02;stroke-linecap:square;stroke-width:1.5;"/>
   </g>
   <g id="line2d_23">
    <path clip-path="url(#pbca7997abf)" d="M 93.438983 196.670456 
L 94.337982 196.670456 
L 94.337982 182.534267 
L 94.428035 182.534267 
L 94.517794 182.534267 
L 94.517794 177.822204 
L 94.607735 177.822204 
L 94.697598 177.822204 
L 94.697598 158.973953 
L 94.787538 158.973953 
L 95.05723 158.973953 
L 95.05723 144.837764 
L 95.147135 144.837764 
L 95.416839 144.837764 
L 95.416839 116.565386 
L 95.50676 116.565386 
L 95.776451 116.565386 
L 95.776451 107.14126 
L 95.866386 107.14126 
L 95.956283 107.14126 
L 95.956283 102.429197 
L 96.046206 102.429197 
L 96.136075 102.429197 
L 96.136075 97.717134 
L 96.22601 97.717134 
L 96.495721 97.717134 
L 96.495721 93.005071 
L 96.585582 93.005071 
L 99.01299 93.005071 
L 99.01299 74.156819 
L 99.102925 74.156819 
L 99.372618 74.156819 
L 99.372618 69.444756 
L 99.462508 69.444756 
L 99.732261 69.444756 
L 99.732261 60.02063 
L 99.822146 60.02063 
L 99.912069 60.02063 
L 99.912069 55.308567 
L 100.00195 55.308567 
L 100.27169 55.308567 
L 100.27169 50.596504 
L 100.361563 50.596504 
L 104.047639 50.596504 
L 104.047639 45.884441 
L 104.137525 45.884441 
L 104.227416 45.884441 
L 104.227416 41.172378 
L 104.317361 41.172378 
L 104.407233 41.172378 
L 104.407233 36.460315 
L 104.497159 36.460315 
L 104.946681 36.460315 
L 104.946681 31.748252 
L 105.036588 31.748252 
L 116.454354 31.748252 
L 116.454354 22.324126 
L 116.54428 22.324126 
L 138.57072 22.324126 
L 138.57072 27.036189 
L 138.660635 27.036189 
L 139.649566 27.036189 
L 139.649566 22.324126 
L 139.739473 22.324126 
L 155.292867 22.324126 
L 155.292867 27.036189 
L 155.382775 27.036189 
L 156.731322 27.036189 
L 156.731322 22.324126 
L 156.821237 22.324126 
L 273.067002 22.324126 
L 273.067002 27.036189 
L 273.156895 27.036189 
L 278.101609 27.036189 
L 278.101609 22.324126 
L 278.191503 22.324126 
L 303.005 22.324126 
L 303.005 22.324126 
" style="fill:none;stroke:#7570b3;stroke-linecap:square;stroke-width:1.5;"/>
   </g>
   <g id="line2d_24">
    <path clip-path="url(#pbca7997abf)" d="M 55.905 182.534267 
L 56.094449 182.534267 
L 56.094449 177.822204 
L 56.203763 177.822204 
L 57.024856 177.822204 
L 57.024856 173.110142 
L 59.901815 173.110142 
L 59.901815 168.398079 
L 60.174529 168.398079 
L 60.174529 163.686016 
L 60.264443 163.686016 
L 60.354327 163.686016 
L 60.354327 158.973953 
L 60.444246 158.973953 
L 60.893774 158.973953 
L 60.893774 144.837764 
L 60.983697 144.837764 
L 61.073543 144.837764 
L 61.073543 140.125701 
L 61.163444 140.125701 
L 64.669711 140.125701 
L 64.669711 130.701575 
L 64.759629 130.701575 
L 64.849518 130.701575 
L 64.849518 125.989512 
L 64.939432 125.989512 
L 65.029324 125.989512 
L 65.029324 130.701575 
L 65.119226 130.701575 
L 65.388969 130.701575 
L 65.388969 125.989512 
L 65.478869 125.989512 
L 65.56874 125.989512 
L 65.56874 116.565386 
L 65.658639 116.565386 
L 66.467802 116.565386 
L 66.467802 107.14126 
L 66.557716 107.14126 
L 68.445687 107.14126 
L 68.445687 102.429197 
L 68.535581 102.429197 
L 68.625491 102.429197 
L 68.625491 83.580945 
L 68.715391 83.580945 
L 68.805278 83.580945 
L 68.805278 74.156819 
L 68.89518 74.156819 
L 69.164913 74.156819 
L 69.164913 69.444756 
L 69.254819 69.444756 
L 69.344715 69.444756 
L 69.344715 64.732693 
L 69.434626 64.732693 
L 69.524528 64.732693 
L 69.524528 60.02063 
L 69.614442 60.02063 
L 69.704335 60.02063 
L 69.704335 45.884441 
L 69.794225 45.884441 
L 69.884138 45.884441 
L 69.884138 41.172378 
L 69.974062 41.172378 
L 70.063956 41.172378 
L 70.063956 36.460315 
L 70.153844 36.460315 
L 73.120664 36.460315 
L 73.120664 27.036189 
L 73.210582 27.036189 
L 73.300511 27.036189 
L 73.300511 22.324126 
L 73.390406 22.324126 
L 94.517794 22.324126 
L 94.517794 27.036189 
L 94.607735 27.036189 
L 94.697598 27.036189 
L 94.697598 22.324126 
L 94.787538 22.324126 
L 272.887165 22.324126 
L 272.887165 27.036189 
L 272.977075 27.036189 
L 273.067002 27.036189 
L 273.067002 22.324126 
L 273.156895 22.324126 
L 303.005 22.324126 
L 303.005 22.324126 
" style="fill:none;stroke:#e7298a;stroke-linecap:square;stroke-width:1.5;"/>
   </g>
   <g id="line2d_25">
    <path clip-path="url(#pbca7997abf)" d="M 55.905 201.382519 
L 60.713976 201.382519 
L 60.713976 196.670456 
L 60.803852 196.670456 
L 64.31012 196.670456 
L 64.31012 191.958393 
L 64.39999 191.958393 
L 64.489921 191.958393 
L 64.489921 187.24633 
L 64.579823 187.24633 
L 64.669711 187.24633 
L 64.669711 177.822204 
L 64.759629 177.822204 
L 64.849518 177.822204 
L 64.849518 173.110142 
L 64.939432 173.110142 
L 65.029324 173.110142 
L 65.029324 168.398079 
L 65.119226 168.398079 
L 65.209134 168.398079 
L 65.209134 163.686016 
L 65.299026 163.686016 
L 65.56874 163.686016 
L 65.56874 158.973953 
L 65.658639 158.973953 
L 68.625491 158.973953 
L 68.625491 149.549827 
L 68.715391 149.549827 
L 68.805278 149.549827 
L 68.805278 144.837764 
L 68.89518 144.837764 
L 69.524528 144.837764 
L 69.524528 140.125701 
L 69.614442 140.125701 
L 69.704335 140.125701 
L 69.704335 130.701575 
L 69.794225 130.701575 
L 86.066867 130.701575 
L 86.066867 125.989512 
L 86.156726 125.989512 
L 86.246657 125.989512 
L 86.246657 121.277449 
L 86.336533 121.277449 
L 86.426476 121.277449 
L 86.426476 116.565386 
L 86.51636 116.565386 
L 86.606264 116.565386 
L 86.606264 111.853323 
L 86.696159 111.853323 
L 86.786091 111.853323 
L 86.786091 102.429197 
L 86.875974 102.429197 
L 86.965901 102.429197 
L 86.965901 97.717134 
L 87.055781 97.717134 
L 90.202418 97.717134 
L 90.247373 83.580945 
L 90.292321 83.580945 
L 90.562042 83.580945 
L 90.562042 74.156819 
L 90.651943 74.156819 
L 91.101471 74.156819 
L 91.101471 69.444756 
L 91.191377 69.444756 
L 91.28128 69.444756 
L 91.28128 60.02063 
L 91.371189 60.02063 
L 91.461086 60.02063 
L 91.461086 36.460315 
L 91.550986 36.460315 
L 91.640866 36.460315 
L 91.640866 22.324126 
L 91.730853 22.324126 
L 94.337982 22.324126 
L 94.337982 27.036189 
L 94.428035 27.036189 
L 94.697598 27.036189 
L 94.697598 22.324126 
L 94.787538 22.324126 
L 138.211091 22.324126 
L 138.211091 27.036189 
L 138.301026 27.036189 
L 138.390937 27.036189 
L 138.390937 22.324126 
L 138.480804 22.324126 
L 146.302491 22.324126 
L 146.302491 27.036189 
L 146.39236 27.036189 
L 146.662057 27.036189 
L 146.662057 22.324126 
L 146.752006 22.324126 
L 147.021685 22.324126 
L 147.021685 27.036189 
L 147.111606 27.036189 
L 147.740955 27.036189 
L 147.740955 22.324126 
L 147.830835 22.324126 
L 303.005 22.324126 
L 303.005 22.324126 
" style="fill:none;stroke:#66a61e;stroke-linecap:square;stroke-width:1.5;"/>
   </g>
   <g id="line2d_26">
    <path clip-path="url(#pbca7997abf)" d="M 55.905 191.958393 
L 64.489921 191.958393 
L 64.489921 187.24633 
L 64.579823 187.24633 
L 65.388969 187.24633 
L 65.388969 182.534267 
L 65.478869 182.534267 
L 65.748572 182.534267 
L 65.748572 177.822204 
L 65.838487 177.822204 
L 69.164913 177.822204 
L 69.164913 173.110142 
L 69.254819 173.110142 
L 69.524528 173.110142 
L 69.524528 168.398079 
L 69.614442 168.398079 
L 73.120664 168.398079 
L 73.120664 163.686016 
L 73.210582 163.686016 
L 85.887034 163.686016 
L 85.887034 154.26189 
L 85.976919 154.26189 
L 86.066867 154.26189 
L 86.066867 144.837764 
L 86.156726 144.837764 
L 86.606264 144.837764 
L 86.606264 140.125701 
L 86.696159 140.125701 
L 87.325513 140.125701 
L 87.325513 135.413638 
L 87.415403 135.413638 
L 90.562042 135.413638 
L 90.562042 130.701575 
L 90.651943 130.701575 
L 90.921627 130.701575 
L 90.921627 121.277449 
L 91.011578 121.277449 
L 91.28128 121.277449 
L 91.28128 116.565386 
L 91.371189 116.565386 
L 92.360129 116.565386 
L 92.360129 111.853323 
L 92.450022 111.853323 
L 94.337982 111.853323 
L 94.337982 107.14126 
L 94.428035 107.14126 
L 94.697598 107.14126 
L 94.697598 102.429197 
L 94.787538 102.429197 
L 94.877404 102.429197 
L 94.877404 93.005071 
L 94.967318 93.005071 
L 95.237048 93.005071 
L 95.237048 88.293008 
L 95.326974 88.293008 
L 95.416839 88.293008 
L 95.461808 74.156819 
L 95.50676 74.156819 
L 95.596669 74.156819 
L 95.596669 64.732693 
L 95.686585 64.732693 
L 96.315873 64.732693 
L 96.315873 69.444756 
L 96.405817 69.444756 
L 99.01299 69.444756 
L 99.01299 60.02063 
L 99.102925 60.02063 
L 99.192842 60.02063 
L 99.192842 55.308567 
L 99.282745 55.308567 
L 99.552433 55.308567 
L 99.552433 50.596504 
L 99.642339 50.596504 
L 99.732261 50.596504 
L 99.732261 41.172378 
L 99.822146 41.172378 
L 99.912069 41.172378 
L 99.912069 36.460315 
L 100.00195 36.460315 
L 100.27169 36.460315 
L 100.27169 31.748252 
L 100.361563 31.748252 
L 247.893884 31.748252 
L 247.893884 36.460315 
L 247.983767 36.460315 
L 252.029442 36.460315 
L 252.029442 31.748252 
L 252.11937 31.748252 
L 303.005 31.748252 
L 303.005 31.748252 
" style="fill:none;stroke:#e6ab02;stroke-linecap:square;stroke-width:1.5;"/>
   </g>
   <g id="line2d_27">
    <path clip-path="url(#pbca7997abf)" d="M 55.905 196.670456 
L 60.713976 196.670456 
L 60.713976 191.958393 
L 60.803852 191.958393 
L 64.31012 191.958393 
L 64.31012 187.24633 
L 64.39999 187.24633 
L 64.489921 187.24633 
L 64.489921 182.534267 
L 64.579823 182.534267 
L 64.849518 182.534267 
L 64.849518 177.822204 
L 64.939432 177.822204 
L 65.029324 177.822204 
L 65.029324 173.110142 
L 65.119226 173.110142 
L 65.209134 173.110142 
L 65.209134 163.686016 
L 65.299026 163.686016 
L 65.388969 163.686016 
L 65.388969 158.973953 
L 65.478869 158.973953 
L 65.56874 158.973953 
L 65.56874 154.26189 
L 65.658639 154.26189 
L 68.445687 154.26189 
L 68.445687 149.549827 
L 68.535581 149.549827 
L 68.625491 149.549827 
L 68.625491 140.125701 
L 68.715391 140.125701 
L 68.985077 140.125701 
L 68.985077 135.413638 
L 69.075003 135.413638 
L 69.164913 135.413638 
L 69.164913 125.989512 
L 69.254819 125.989512 
L 69.524528 125.989512 
L 69.524528 121.277449 
L 69.614442 121.277449 
L 69.884138 121.277449 
L 69.884138 116.565386 
L 69.974062 116.565386 
L 70.063956 116.565386 
L 70.063956 111.853323 
L 70.153844 111.853323 
L 73.300511 111.853323 
L 73.300511 107.14126 
L 73.390406 107.14126 
L 74.01973 107.14126 
L 74.01973 102.429197 
L 74.109625 102.429197 
L 78.694704 102.429197 
L 78.694704 97.717134 
L 78.784626 97.717134 
L 85.887034 97.717134 
L 85.887034 93.005071 
L 85.976919 93.005071 
L 86.426476 93.005071 
L 86.426476 78.868882 
L 86.51636 78.868882 
L 86.606264 78.868882 
L 86.606264 69.444756 
L 86.696159 69.444756 
L 86.786091 69.444756 
L 86.786091 60.02063 
L 86.875974 60.02063 
L 87.325513 60.02063 
L 87.325513 55.308567 
L 87.415403 55.308567 
L 89.84281 55.308567 
L 89.84281 50.596504 
L 89.932709 50.596504 
L 90.382222 50.596504 
L 90.382222 45.884441 
L 90.472153 45.884441 
L 90.562042 45.884441 
L 90.562042 41.172378 
L 90.651943 41.172378 
L 90.741839 41.172378 
L 90.741839 36.460315 
L 90.831737 36.460315 
L 91.28128 36.460315 
L 91.28128 31.748252 
L 91.371189 31.748252 
L 303.005 31.748252 
L 303.005 31.748252 
" style="fill:none;stroke:#a6761d;stroke-linecap:square;stroke-width:1.5;"/>
   </g>
   <g id="line2d_28">
    <path clip-path="url(#pbca7997abf)" d="M 55.905 201.382519 
L 64.669711 201.382519 
L 64.669711 196.670456 
L 64.759629 196.670456 
L 65.209134 196.670456 
L 65.209134 191.958393 
L 65.299026 191.958393 
L 69.164913 191.958393 
L 69.164913 187.24633 
L 69.254819 187.24633 
L 69.524528 187.24633 
L 69.524528 191.958393 
L 69.614442 191.958393 
L 69.704335 191.958393 
L 69.704335 182.534267 
L 69.794225 182.534267 
L 86.066867 182.534267 
L 86.066867 177.822204 
L 86.156726 177.822204 
L 86.426476 177.822204 
L 86.426476 173.110142 
L 86.51636 173.110142 
L 86.786091 173.110142 
L 86.786091 168.398079 
L 86.875974 168.398079 
L 86.965901 168.398079 
L 86.965901 163.686016 
L 87.055781 163.686016 
L 87.864911 163.686016 
L 87.864911 158.973953 
L 87.954851 158.973953 
L 90.741839 158.973953 
L 90.741839 154.26189 
L 90.831737 154.26189 
L 91.28128 154.26189 
L 91.28128 149.549827 
L 91.371189 149.549827 
L 91.461086 149.549827 
L 91.461086 144.837764 
L 91.550986 144.837764 
L 94.517794 144.837764 
L 94.517794 135.413638 
L 94.607735 135.413638 
L 94.697598 135.413638 
L 94.697598 130.701575 
L 94.787538 130.701575 
L 94.877404 130.701575 
L 94.922359 116.565386 
L 94.967318 116.565386 
L 95.596669 116.565386 
L 95.596669 111.853323 
L 95.686585 111.853323 
L 95.776451 111.853323 
L 95.776451 107.14126 
L 95.866386 107.14126 
L 95.956283 107.14126 
L 95.956283 111.853323 
L 96.046206 111.853323 
L 96.136075 111.853323 
L 96.136075 107.14126 
L 96.22601 107.14126 
L 96.315873 107.14126 
L 96.315873 102.429197 
L 96.405817 102.429197 
L 98.473595 102.429197 
L 98.473595 107.14126 
L 98.563473 107.14126 
L 99.01299 107.14126 
L 99.01299 93.005071 
L 99.102925 93.005071 
L 99.372618 93.005071 
L 99.372618 88.293008 
L 99.462508 88.293008 
L 99.732261 88.293008 
L 99.732261 69.444756 
L 99.822146 69.444756 
L 99.912069 69.444756 
L 99.912069 64.732693 
L 100.00195 64.732693 
L 103.867807 64.732693 
L 103.867807 60.02063 
L 103.957705 60.02063 
L 118.432277 60.02063 
L 118.432277 55.308567 
L 118.52218 55.308567 
L 121.309194 55.308567 
L 121.309194 50.596504 
L 121.399073 50.596504 
L 121.48898 50.596504 
L 121.48898 55.308567 
L 121.578905 55.308567 
L 121.848598 55.308567 
L 121.848598 50.596504 
L 121.938523 50.596504 
L 126.164015 50.596504 
L 126.164015 45.884441 
L 126.253906 45.884441 
L 133.536091 45.884441 
L 133.536091 50.596504 
L 133.626004 50.596504 
L 138.57072 50.596504 
L 138.57072 45.884441 
L 138.660635 45.884441 
L 146.302491 45.884441 
L 146.302491 50.596504 
L 146.39236 50.596504 
L 146.662057 50.596504 
L 146.662057 55.308567 
L 146.752006 55.308567 
L 147.201487 55.308567 
L 147.201487 60.02063 
L 147.291392 60.02063 
L 152.236114 60.02063 
L 152.236114 64.732693 
L 152.326055 64.732693 
L 159.967839 64.732693 
L 159.967839 69.444756 
L 160.057769 69.444756 
L 177.948662 69.444756 
L 177.948662 74.156819 
L 178.038547 74.156819 
L 259.581392 74.156819 
L 259.581392 69.444756 
L 259.671333 69.444756 
L 264.436221 69.444756 
L 264.436221 74.156819 
L 264.526148 74.156819 
L 303.005 74.156819 
L 303.005 74.156819 
" style="fill:none;stroke:#666666;stroke-linecap:square;stroke-width:1.5;"/>
   </g>
   <g id="line2d_29">
    <path clip-path="url(#pbca7997abf)" d="M 55.905 196.670456 
L 59.901815 196.670456 
L 59.901815 191.958393 
L 65.209134 191.958393 
L 65.209134 187.24633 
L 65.299026 187.24633 
L 68.805278 187.24633 
L 68.805278 182.534267 
L 68.89518 182.534267 
L 69.164913 182.534267 
L 69.164913 177.822204 
L 69.254819 177.822204 
L 69.704335 177.822204 
L 69.704335 173.110142 
L 69.794225 173.110142 
L 69.884138 173.110142 
L 69.884138 168.398079 
L 69.974062 168.398079 
L 70.962992 168.398079 
L 70.962992 163.686016 
L 71.052914 163.686016 
L 86.426476 163.686016 
L 86.426476 154.26189 
L 86.51636 154.26189 
L 90.562042 154.26189 
L 90.562042 149.549827 
L 90.651943 149.549827 
L 91.461086 149.549827 
L 91.461086 144.837764 
L 91.550986 144.837764 
L 92.000524 144.837764 
L 92.000524 140.125701 
L 92.090417 140.125701 
L 94.697598 140.125701 
L 94.697598 135.413638 
L 94.787538 135.413638 
L 94.877404 135.413638 
L 94.877404 125.989512 
L 94.967318 125.989512 
L 95.416839 125.989512 
L 95.416839 116.565386 
L 95.50676 116.565386 
L 99.372618 116.565386 
L 99.372618 111.853323 
L 99.462508 111.853323 
L 99.912069 111.853323 
L 99.912069 107.14126 
L 100.00195 107.14126 
L 100.451456 107.14126 
L 100.451456 102.429197 
L 100.541381 102.429197 
L 104.946681 102.429197 
L 104.946681 97.717134 
L 105.036588 97.717134 
L 117.353413 97.717134 
L 117.353413 93.005071 
L 117.443329 93.005071 
L 121.48898 93.005071 
L 121.48898 88.293008 
L 121.578905 88.293008 
L 126.164015 88.293008 
L 126.164015 93.005071 
L 126.253906 93.005071 
L 146.841893 93.005071 
L 146.841893 88.293008 
L 146.931817 88.293008 
L 147.021685 88.293008 
L 147.021685 93.005071 
L 147.111606 93.005071 
L 151.516899 93.005071 
L 151.516899 88.293008 
L 151.606824 88.293008 
L 183.163054 88.293008 
L 183.163054 83.580945 
L 183.252984 83.580945 
L 211.932313 83.580945 
L 211.932313 78.868882 
L 212.022216 78.868882 
L 221.102531 78.868882 
L 221.102531 83.580945 
L 221.192426 83.580945 
L 278.101609 83.580945 
L 278.101609 88.293008 
L 278.191503 88.293008 
L 280.259316 88.293008 
L 280.259316 93.005071 
L 280.349217 93.005071 
L 295.363172 93.005071 
L 295.363172 88.293008 
L 295.453058 88.293008 
L 297.880479 88.293008 
L 297.880479 83.580945 
L 297.970388 83.580945 
L 301.4766 83.580945 
L 301.4766 78.868882 
L 301.566542 78.868882 
L 303.005 78.868882 
L 303.005 78.868882 
" style="fill:none;stroke:#1b9e77;stroke-dasharray:4.5,1.5;stroke-dashoffset:0;stroke-width:1.5;"/>
   </g>
   <g id="line2d_30">
    <path clip-path="url(#pbca7997abf)" d="M 55.905 206.094582 
L 64.31012 206.094582 
L 64.31012 201.382519 
L 64.39999 201.382519 
L 64.489921 201.382519 
L 64.489921 196.670456 
L 64.579823 196.670456 
L 65.209134 196.670456 
L 65.209134 187.24633 
L 65.299026 187.24633 
L 68.625491 187.24633 
L 68.625491 182.534267 
L 68.715391 182.534267 
L 69.524528 182.534267 
L 69.524528 177.822204 
L 69.614442 177.822204 
L 69.704335 177.822204 
L 69.704335 173.110142 
L 69.794225 173.110142 
L 69.884138 173.110142 
L 69.884138 168.398079 
L 69.974062 168.398079 
L 86.246657 168.398079 
L 86.246657 163.686016 
L 86.336533 163.686016 
L 86.426476 163.686016 
L 86.426476 158.973953 
L 86.51636 158.973953 
L 86.606264 158.973953 
L 86.606264 149.549827 
L 86.696159 149.549827 
L 91.101471 149.549827 
L 91.101471 144.837764 
L 91.191377 144.837764 
L 91.28128 144.837764 
L 91.28128 140.125701 
L 91.371189 140.125701 
L 94.337982 140.125701 
L 94.337982 144.837764 
L 94.428035 144.837764 
L 94.877404 144.837764 
L 94.877404 135.413638 
L 94.967318 135.413638 
L 95.05723 135.413638 
L 95.05723 140.125701 
L 95.147135 140.125701 
L 95.237048 140.125701 
L 95.237048 135.413638 
L 95.326974 135.413638 
L 95.596669 135.413638 
L 95.596669 125.989512 
L 95.686585 125.989512 
L 95.776451 125.989512 
L 95.776451 121.277449 
L 95.866386 121.277449 
L 104.227416 121.277449 
L 104.227416 116.565386 
L 104.317361 116.565386 
L 104.766871 116.565386 
L 104.766871 111.853323 
L 104.856763 111.853323 
L 113.397621 111.853323 
L 113.397621 107.14126 
L 113.487526 107.14126 
L 129.760134 107.14126 
L 129.760134 102.429197 
L 129.850052 102.429197 
L 130.479365 102.429197 
L 130.479365 97.717134 
L 130.569311 97.717134 
L 134.075549 97.717134 
L 134.075549 93.005071 
L 134.165458 93.005071 
L 148.280376 93.005071 
L 148.280376 88.293008 
L 148.370248 88.293008 
L 255.445788 88.293008 
L 255.445788 93.005071 
L 255.535734 93.005071 
L 259.581392 93.005071 
L 259.581392 97.717134 
L 259.671333 97.717134 
L 297.700661 97.717134 
L 297.700661 93.005071 
L 297.790539 93.005071 
L 298.419868 93.005071 
L 298.419868 88.293008 
L 298.509783 88.293008 
L 303.005 88.293008 
L 303.005 88.293008 
" style="fill:none;stroke:#d95f02;stroke-dasharray:4.5,1.5;stroke-dashoffset:0;stroke-width:1.5;"/>
   </g>
   <g id="line2d_31">
    <path clip-path="url(#pbca7997abf)" d="M 55.905 206.094582 
L 64.669711 206.094582 
L 64.669711 201.382519 
L 64.759629 201.382519 
L 69.524528 201.382519 
L 69.524528 191.958393 
L 69.614442 191.958393 
L 85.887034 191.958393 
L 85.887034 187.24633 
L 85.976919 187.24633 
L 86.246657 187.24633 
L 86.246657 182.534267 
L 86.336533 182.534267 
L 86.786091 182.534267 
L 86.786091 177.822204 
L 86.875974 177.822204 
L 90.202418 177.822204 
L 90.202418 173.110142 
L 90.292321 173.110142 
L 90.382222 173.110142 
L 90.382222 163.686016 
L 90.472153 163.686016 
L 90.562042 163.686016 
L 90.562042 158.973953 
L 90.651943 158.973953 
L 90.921627 158.973953 
L 90.921627 154.26189 
L 91.011578 154.26189 
L 91.101471 154.26189 
L 91.101471 144.837764 
L 91.191377 144.837764 
L 91.28128 144.837764 
L 91.28128 135.413638 
L 91.371189 135.413638 
L 92.000524 135.413638 
L 92.000524 130.701575 
L 92.090417 130.701575 
L 92.360129 130.701575 
L 92.360129 125.989512 
L 92.450022 125.989512 
L 92.539903 125.989512 
L 92.539903 130.701575 
L 92.629854 130.701575 
L 94.158192 130.701575 
L 94.158192 135.413638 
L 94.248119 135.413638 
L 94.337982 135.413638 
L 94.337982 140.125701 
L 94.428035 140.125701 
L 94.517794 140.125701 
L 94.517794 135.413638 
L 94.607735 135.413638 
L 94.697598 135.413638 
L 94.697598 140.125701 
L 94.787538 140.125701 
L 94.877404 140.125701 
L 94.877404 135.413638 
L 94.967318 135.413638 
L 95.05723 135.413638 
L 95.05723 130.701575 
L 95.147135 130.701575 
L 95.416839 130.701575 
L 95.416839 135.413638 
L 95.50676 135.413638 
L 99.552433 135.413638 
L 99.552433 130.701575 
L 99.642339 130.701575 
L 99.912069 130.701575 
L 99.912069 125.989512 
L 100.00195 125.989512 
L 104.047639 125.989512 
L 104.047639 121.277449 
L 104.137525 121.277449 
L 105.306279 121.277449 
L 105.306279 116.565386 
L 105.396167 116.565386 
L 116.813984 116.565386 
L 116.813984 111.853323 
L 116.903903 111.853323 
L 116.993789 111.853323 
L 116.993789 107.14126 
L 117.083699 107.14126 
L 117.713003 107.14126 
L 117.713003 102.429197 
L 117.802936 102.429197 
L 126.164015 102.429197 
L 126.164015 97.717134 
L 126.253906 97.717134 
L 126.703391 97.717134 
L 126.703391 93.005071 
L 126.793331 93.005071 
L 135.693812 93.005071 
L 135.693812 88.293008 
L 135.783691 88.293008 
L 139.649566 88.293008 
L 139.649566 93.005071 
L 139.739473 93.005071 
L 146.662057 93.005071 
L 146.662057 97.717134 
L 146.752006 97.717134 
L 177.589038 97.717134 
L 177.589038 93.005071 
L 177.678955 93.005071 
L 207.976577 93.005071 
L 207.976577 88.293008 
L 208.066461 88.293008 
L 211.392914 88.293008 
L 211.392914 83.580945 
L 211.48279 83.580945 
L 223.799634 83.580945 
L 223.799634 78.868882 
L 223.889551 78.868882 
L 250.051609 78.868882 
L 250.051609 83.580945 
L 250.14151 83.580945 
L 250.231371 83.580945 
L 250.231371 78.868882 
L 250.321274 78.868882 
L 286.372757 78.868882 
L 286.372757 83.580945 
L 286.462644 83.580945 
L 294.643922 83.580945 
L 294.643922 88.293008 
L 294.733807 88.293008 
L 303.005 88.293008 
L 303.005 88.293008 
" style="fill:none;stroke:#7570b3;stroke-dasharray:4.5,1.5;stroke-dashoffset:0;stroke-width:1.5;"/>
   </g>
   <g id="line2d_32">
    <path clip-path="url(#pbca7997abf)" d="M 55.905 210.806645 
L 61.253347 210.806645 
L 61.253347 206.094582 
L 61.343256 206.094582 
L 61.972614 206.094582 
L 61.972614 201.382519 
L 62.062509 201.382519 
L 73.300511 201.382519 
L 73.300511 196.670456 
L 73.390406 196.670456 
L 85.887034 196.670456 
L 85.887034 191.958393 
L 85.976919 191.958393 
L 87.145682 191.958393 
L 87.145682 182.534267 
L 87.235578 182.534267 
L 90.562042 182.534267 
L 90.562042 177.822204 
L 90.651943 177.822204 
L 90.741839 177.822204 
L 90.741839 173.110142 
L 90.831737 173.110142 
L 91.28128 173.110142 
L 91.28128 163.686016 
L 91.371189 163.686016 
L 91.461086 163.686016 
L 91.461086 158.973953 
L 91.550986 158.973953 
L 92.539903 158.973953 
L 92.539903 154.26189 
L 92.629854 154.26189 
L 94.697598 154.26189 
L 94.697598 158.973953 
L 94.787538 158.973953 
L 95.05723 158.973953 
L 95.05723 154.26189 
L 95.147135 154.26189 
L 95.237048 154.26189 
L 95.237048 149.549827 
L 95.326974 149.549827 
L 95.596669 149.549827 
L 95.596669 144.837764 
L 95.686585 144.837764 
L 95.776451 144.837764 
L 95.776451 149.549827 
L 95.866386 149.549827 
L 95.956283 149.549827 
L 95.956283 144.837764 
L 96.046206 144.837764 
L 99.01299 144.837764 
L 99.01299 140.125701 
L 99.102925 140.125701 
L 104.766871 140.125701 
L 104.766871 135.413638 
L 104.856763 135.413638 
L 116.813984 135.413638 
L 116.813984 130.701575 
L 116.903903 130.701575 
L 133.895717 130.701575 
L 133.895717 125.989512 
L 133.985661 125.989512 
L 155.292867 125.989512 
L 155.292867 121.277449 
L 155.382775 121.277449 
L 177.948662 121.277449 
L 177.948662 116.565386 
L 178.038547 116.565386 
L 220.023678 116.565386 
L 220.023678 111.853323 
L 237.285216 111.853323 
L 237.285216 107.14126 
L 237.375141 107.14126 
L 272.887165 107.14126 
L 272.887165 102.429197 
L 272.977075 102.429197 
L 277.921786 102.429197 
L 277.921786 97.717134 
L 278.011694 97.717134 
L 284.574663 97.717134 
L 284.574663 93.005071 
L 284.664591 93.005071 
L 303.005 93.005071 
L 303.005 93.005071 
" style="fill:none;stroke:#e7298a;stroke-dasharray:4.5,1.5;stroke-dashoffset:0;stroke-width:1.5;"/>
   </g>
   <g id="line2d_33">
    <path clip-path="url(#pbca7997abf)" d="M 55.905 210.806645 
L 60.534307 210.806645 
L 60.534307 206.094582 
L 60.624056 206.094582 
L 60.893774 206.094582 
L 60.893774 201.382519 
L 60.983697 201.382519 
L 65.029324 201.382519 
L 65.029324 196.670456 
L 65.119226 196.670456 
L 69.704335 196.670456 
L 69.704335 191.958393 
L 69.794225 191.958393 
L 72.581267 191.958393 
L 72.581267 187.24633 
L 72.671197 187.24633 
L 73.480287 187.24633 
L 73.480287 182.534267 
L 73.57021 182.534267 
L 73.839919 182.534267 
L 73.839919 177.822204 
L 73.929806 177.822204 
L 85.887034 177.822204 
L 85.887034 168.398079 
L 85.976919 168.398079 
L 86.246657 168.398079 
L 86.246657 163.686016 
L 86.336533 163.686016 
L 86.426476 163.686016 
L 86.426476 158.973953 
L 86.51636 158.973953 
L 86.606264 158.973953 
L 86.606264 154.26189 
L 86.696159 154.26189 
L 86.786091 154.26189 
L 86.786091 144.837764 
L 86.875974 144.837764 
L 86.965901 144.837764 
L 86.965901 140.125701 
L 87.055781 140.125701 
L 87.325513 140.125701 
L 87.325513 135.413638 
L 87.415403 135.413638 
L 87.685144 135.413638 
L 87.685144 130.701575 
L 87.775033 130.701575 
L 88.224519 130.701575 
L 88.224519 125.989512 
L 88.314465 125.989512 
L 90.202418 125.989512 
L 90.202418 121.277449 
L 90.292321 121.277449 
L 90.382222 121.277449 
L 90.382222 116.565386 
L 90.472153 116.565386 
L 90.562042 116.565386 
L 90.562042 102.429197 
L 90.651943 102.429197 
L 90.741839 102.429197 
L 90.741839 97.717134 
L 90.831737 97.717134 
L 90.921627 97.717134 
L 90.921627 93.005071 
L 91.011578 93.005071 
L 92.539903 93.005071 
L 92.539903 97.717134 
L 92.629854 97.717134 
L 94.877404 97.717134 
L 94.877404 93.005071 
L 94.967318 93.005071 
L 95.05723 93.005071 
L 95.05723 97.717134 
L 95.147135 97.717134 
L 95.237048 97.717134 
L 95.237048 93.005071 
L 95.326974 93.005071 
L 100.27169 93.005071 
L 100.27169 97.717134 
L 100.361563 97.717134 
L 100.451456 97.717134 
L 100.451456 93.005071 
L 100.541381 93.005071 
L 272.527577 93.005071 
L 272.527577 97.717134 
L 272.617445 97.717134 
L 286.372757 97.717134 
L 286.372757 93.005071 
L 286.462644 93.005071 
L 303.005 93.005071 
L 303.005 93.005071 
" style="fill:none;stroke:#66a61e;stroke-dasharray:4.5,1.5;stroke-dashoffset:0;stroke-width:1.5;"/>
   </g>
   <g id="line2d_34">
    <path clip-path="url(#pbca7997abf)" d="M 136.637786 210.806645 
L 138.211091 210.806645 
L 138.211091 206.094582 
L 138.301026 206.094582 
L 143.605364 206.094582 
L 143.605364 201.382519 
L 143.695242 201.382519 
L 146.302491 201.382519 
L 146.302491 182.534267 
L 146.39236 182.534267 
L 146.662057 182.534267 
L 146.662057 173.110142 
L 146.752006 173.110142 
L 147.021685 173.110142 
L 147.021685 158.973953 
L 147.111606 158.973953 
L 147.381295 158.973953 
L 147.381295 154.26189 
L 147.471235 154.26189 
L 150.977489 154.26189 
L 150.977489 149.549827 
L 151.067392 149.549827 
L 151.876518 149.549827 
L 151.876518 144.837764 
L 151.966416 144.837764 
L 152.236114 144.837764 
L 152.236114 140.125701 
L 152.326055 140.125701 
L 152.595732 140.125701 
L 152.595732 135.413638 
L 152.685633 135.413638 
L 152.775546 135.413638 
L 152.775546 130.701575 
L 152.865431 130.701575 
L 155.292867 130.701575 
L 155.292867 125.989512 
L 155.382775 125.989512 
L 156.911108 125.989512 
L 156.911108 121.277449 
L 157.001043 121.277449 
L 159.967839 121.277449 
L 159.967839 116.565386 
L 160.057769 116.565386 
L 214.989036 116.565386 
L 214.989036 121.277449 
L 215.078945 121.277449 
L 215.888065 121.277449 
L 215.888065 116.565386 
L 215.978003 116.565386 
L 246.095814 116.565386 
L 246.095814 111.853323 
L 246.185731 111.853323 
L 246.455394 111.853323 
L 246.455394 107.14126 
L 246.545341 107.14126 
L 247.893884 107.14126 
L 247.893884 102.429197 
L 247.983767 102.429197 
L 272.347734 102.429197 
L 272.347734 97.717134 
L 272.437645 97.717134 
L 303.005 97.717134 
L 303.005 97.717134 
" style="fill:none;stroke:#e6ab02;stroke-dasharray:4.5,1.5;stroke-dashoffset:0;stroke-width:1.5;"/>
   </g>
   <g id="line2d_35">
    <path clip-path="url(#pbca7997abf)" d="M 55.905 206.094582 
L 64.849518 206.094582 
L 64.849518 196.670456 
L 64.939432 196.670456 
L 68.805278 196.670456 
L 68.805278 187.24633 
L 68.89518 187.24633 
L 68.985077 187.24633 
L 68.985077 182.534267 
L 69.075003 182.534267 
L 69.704335 182.534267 
L 69.704335 177.822204 
L 69.794225 177.822204 
L 69.884138 177.822204 
L 69.884138 173.110142 
L 69.974062 173.110142 
L 86.606264 173.110142 
L 86.606264 168.398079 
L 86.696159 168.398079 
L 86.786091 168.398079 
L 86.786091 163.686016 
L 86.875974 163.686016 
L 86.965901 163.686016 
L 86.965901 158.973953 
L 87.055781 158.973953 
L 87.505285 158.973953 
L 87.505285 154.26189 
L 87.59523 154.26189 
L 87.685144 154.26189 
L 87.685144 158.973953 
L 87.775033 158.973953 
L 90.202418 158.973953 
L 90.202418 140.125701 
L 90.292321 140.125701 
L 90.562042 140.125701 
L 90.562042 130.701575 
L 90.651943 130.701575 
L 90.741839 130.701575 
L 90.741839 125.989512 
L 90.831737 125.989512 
L 90.921627 125.989512 
L 90.921627 116.565386 
L 91.011578 116.565386 
L 303.005 116.565386 
L 303.005 116.565386 
" style="fill:none;stroke:#a6761d;stroke-dasharray:4.5,1.5;stroke-dashoffset:0;stroke-width:1.5;"/>
   </g>
   <g id="line2d_36">
    <path clip-path="url(#pbca7997abf)" d="M 55.905 210.806645 
L 65.209134 210.806645 
L 65.209134 206.094582 
L 65.299026 206.094582 
L 65.388969 206.094582 
L 65.388969 201.382519 
L 65.478869 201.382519 
L 68.985077 201.382519 
L 68.985077 196.670456 
L 69.075003 196.670456 
L 69.884138 196.670456 
L 69.884138 191.958393 
L 69.974062 191.958393 
L 70.243753 191.958393 
L 70.243753 187.24633 
L 70.333677 187.24633 
L 70.603387 187.24633 
L 70.603387 182.534267 
L 70.693299 182.534267 
L 73.300511 182.534267 
L 73.300511 187.24633 
L 73.390406 187.24633 
L 86.066867 187.24633 
L 86.066867 182.534267 
L 86.156726 182.534267 
L 87.145682 182.534267 
L 87.145682 173.110142 
L 87.235578 173.110142 
L 90.382222 173.110142 
L 90.382222 168.398079 
L 90.472153 168.398079 
L 91.101471 168.398079 
L 91.101471 149.549827 
L 91.191377 149.549827 
L 91.28128 149.549827 
L 91.28128 144.837764 
L 91.371189 144.837764 
L 91.461086 144.837764 
L 91.461086 140.125701 
L 91.550986 140.125701 
L 146.662057 140.125701 
L 146.662057 144.837764 
L 146.752006 144.837764 
L 146.841893 144.837764 
L 146.841893 140.125701 
L 146.931817 140.125701 
L 255.445788 140.125701 
L 255.445788 135.413638 
L 255.535734 135.413638 
L 264.436221 135.413638 
L 264.436221 130.701575 
L 264.526148 130.701575 
L 277.741981 130.701575 
L 277.741981 125.989512 
L 277.831918 125.989512 
L 280.259316 125.989512 
L 280.259316 121.277449 
L 280.349217 121.277449 
L 280.97854 121.277449 
L 280.97854 116.565386 
L 281.068429 116.565386 
L 303.005 116.565386 
L 303.005 116.565386 
" style="fill:none;stroke:#666666;stroke-dasharray:4.5,1.5;stroke-dashoffset:0;stroke-width:1.5;"/>
   </g>
   <g id="line2d_37"/>
   <g id="line2d_38"/>
   <g id="line2d_39"/>
   <g id="line2d_40"/>
   <g id="line2d_41"/>
   <g id="line2d_42"/>
   <g id="line2d_43"/>
   <g id="line2d_44"/>
   <g id="line2d_45"/>
   <g id="line2d_46"/>
   <g id="line2d_47"/>
   <g id="line2d_48"/>
   <g id="line2d_49"/>
   <g id="line2d_50"/>
   <g id="line2d_51"/>
   <g id="line2d_52"/>
   <g id="line2d_53"/>
   <g id="patch_3">
    <path d="M 43.55 220.230771 
L 43.55 12.9 
" style="fill:none;stroke:#000000;stroke-linecap:square;stroke-linejoin:miter;stroke-width:0.8;"/>
   </g>
   <g id="patch_4">
    <path d="M 315.36 220.230771 
L 315.36 12.9 
" style="fill:none;stroke:#000000;stroke-linecap:square;stroke-linejoin:miter;stroke-width:0.8;"/>
   </g>
   <g id="patch_5">
    <path d="M 43.55 220.230771 
L 315.36 220.230771 
" style="fill:none;stroke:#000000;stroke-linecap:square;stroke-linejoin:miter;stroke-width:0.8;"/>
   </g>
   <g id="patch_6">
    <path d="M 43.55 12.9 
L 315.36 12.9 
" style="fill:none;stroke:#000000;stroke-linecap:square;stroke-linejoin:miter;stroke-width:0.8;"/>
   </g>
  </g>
  <g id="legend_1">
   <g id="patch_7">
    <path d="M 331.8625 262.528125 
L 420 262.528125 
Q 422 262.528125 422 260.528125 
L 422 12 
Q 422 10 420 10 
L 331.8625 10 
Q 329.8625 10 329.8625 12 
L 329.8625 260.528125 
Q 329.8625 262.528125 331.8625 262.528125 
z
" style="fill:#ffffff;opacity:0.8;stroke:#cccccc;stroke-linejoin:miter;"/>
   </g>
   <g id="text_23">
    <!-- 499/610 Reg. -->
    <defs>
     <path d="M 25.390625 72.90625 
L 33.6875 72.90625 
L 8.296875 -9.28125 
L 0 -9.28125 
z
" id="DejaVuSans-47"/>
     <path d="M 33.015625 40.375 
Q 26.375 40.375 22.484375 35.828125 
Q 18.609375 31.296875 18.609375 23.390625 
Q 18.609375 15.53125 22.484375 10.953125 
Q 26.375 6.390625 33.015625 6.390625 
Q 39.65625 6.390625 43.53125 10.953125 
Q 47.40625 15.53125 47.40625 23.390625 
Q 47.40625 31.296875 43.53125 35.828125 
Q 39.65625 40.375 33.015625 40.375 
z
M 52.59375 71.296875 
L 52.59375 62.3125 
Q 48.875 64.0625 45.09375 64.984375 
Q 41.3125 65.921875 37.59375 65.921875 
Q 27.828125 65.921875 22.671875 59.328125 
Q 17.53125 52.734375 16.796875 39.40625 
Q 19.671875 43.65625 24.015625 45.921875 
Q 28.375 48.1875 33.59375 48.1875 
Q 44.578125 48.1875 50.953125 41.515625 
Q 57.328125 34.859375 57.328125 23.390625 
Q 57.328125 12.15625 50.6875 5.359375 
Q 44.046875 -1.421875 33.015625 -1.421875 
Q 20.359375 -1.421875 13.671875 8.265625 
Q 6.984375 17.96875 6.984375 36.375 
Q 6.984375 53.65625 15.1875 63.9375 
Q 23.390625 74.21875 37.203125 74.21875 
Q 40.921875 74.21875 44.703125 73.484375 
Q 48.484375 72.75 52.59375 71.296875 
z
" id="DejaVuSans-54"/>
     <path d="M 10.6875 12.40625 
L 21 12.40625 
L 21 0 
L 10.6875 0 
z
" id="DejaVuSans-46"/>
    </defs>
    <g transform="translate(342.259375 21.598437)scale(0.1 -0.1)">
     <use xlink:href="#DejaVuSans-52"/>
     <use x="63.623047" xlink:href="#DejaVuSans-57"/>
     <use x="127.246094" xlink:href="#DejaVuSans-57"/>
     <use x="190.869141" xlink:href="#DejaVuSans-47"/>
     <use x="224.560547" xlink:href="#DejaVuSans-54"/>
     <use x="288.183594" xlink:href="#DejaVuSans-49"/>
     <use x="351.806641" xlink:href="#DejaVuSans-48"/>
     <use x="415.429688" xlink:href="#DejaVuSans-32"/>
     <use x="447.216797" xlink:href="#DejaVuSans-82"/>
     <use x="516.636719" xlink:href="#DejaVuSans-101"/>
     <use x="578.160156" xlink:href="#DejaVuSans-103"/>
     <use x="641.636719" xlink:href="#DejaVuSans-46"/>
    </g>
   </g>
   <g id="line2d_54">
    <path d="M 333.8625 32.776562 
L 353.8625 32.776562 
" style="fill:none;stroke:#1b9e77;stroke-linecap:square;stroke-width:1.5;"/>
   </g>
   <g id="line2d_55"/>
   <g id="text_24">
    <!-- SA (40) -->
    <defs>
     <path d="M 34.1875 63.1875 
L 20.796875 26.90625 
L 47.609375 26.90625 
z
M 28.609375 72.90625 
L 39.796875 72.90625 
L 67.578125 0 
L 57.328125 0 
L 50.6875 18.703125 
L 17.828125 18.703125 
L 11.1875 0 
L 0.78125 0 
z
" id="DejaVuSans-65"/>
     <path d="M 31 75.875 
Q 24.46875 64.65625 21.28125 53.65625 
Q 18.109375 42.671875 18.109375 31.390625 
Q 18.109375 20.125 21.3125 9.0625 
Q 24.515625 -2 31 -13.1875 
L 23.1875 -13.1875 
Q 15.875 -1.703125 12.234375 9.375 
Q 8.59375 20.453125 8.59375 31.390625 
Q 8.59375 42.28125 12.203125 53.3125 
Q 15.828125 64.359375 23.1875 75.875 
z
" id="DejaVuSans-40"/>
     <path d="M 8.015625 75.875 
L 15.828125 75.875 
Q 23.140625 64.359375 26.78125 53.3125 
Q 30.421875 42.28125 30.421875 31.390625 
Q 30.421875 20.453125 26.78125 9.375 
Q 23.140625 -1.703125 15.828125 -13.1875 
L 8.015625 -13.1875 
Q 14.5 -2 17.703125 9.0625 
Q 20.90625 20.125 20.90625 31.390625 
Q 20.90625 42.671875 17.703125 53.65625 
Q 14.5 64.65625 8.015625 75.875 
z
" id="DejaVuSans-41"/>
    </defs>
    <g transform="translate(361.8625 36.276562)scale(0.1 -0.1)">
     <use xlink:href="#DejaVuSans-83"/>
     <use x="63.492188" xlink:href="#DejaVuSans-65"/>
     <use x="131.900391" xlink:href="#DejaVuSans-32"/>
     <use x="163.6875" xlink:href="#DejaVuSans-40"/>
     <use x="202.701172" xlink:href="#DejaVuSans-52"/>
     <use x="266.324219" xlink:href="#DejaVuSans-48"/>
     <use x="329.947266" xlink:href="#DejaVuSans-41"/>
    </g>
   </g>
   <g id="line2d_56">
    <path d="M 333.8625 47.454688 
L 353.8625 47.454688 
" style="fill:none;stroke:#d95f02;stroke-linecap:square;stroke-width:1.5;"/>
   </g>
   <g id="line2d_57"/>
   <g id="text_25">
    <!-- AS (40) -->
    <g transform="translate(361.8625 50.954688)scale(0.1 -0.1)">
     <use xlink:href="#DejaVuSans-65"/>
     <use x="68.408203" xlink:href="#DejaVuSans-83"/>
     <use x="131.884766" xlink:href="#DejaVuSans-32"/>
     <use x="163.671875" xlink:href="#DejaVuSans-40"/>
     <use x="202.685547" xlink:href="#DejaVuSans-52"/>
     <use x="266.308594" xlink:href="#DejaVuSans-48"/>
     <use x="329.931641" xlink:href="#DejaVuSans-41"/>
    </g>
   </g>
   <g id="line2d_58">
    <path d="M 333.8625 62.132812 
L 353.8625 62.132812 
" style="fill:none;stroke:#7570b3;stroke-linecap:square;stroke-width:1.5;"/>
   </g>
   <g id="line2d_59"/>
   <g id="text_26">
    <!-- AUS (40) -->
    <defs>
     <path d="M 8.6875 72.90625 
L 18.609375 72.90625 
L 18.609375 28.609375 
Q 18.609375 16.890625 22.84375 11.734375 
Q 27.09375 6.59375 36.625 6.59375 
Q 46.09375 6.59375 50.34375 11.734375 
Q 54.59375 16.890625 54.59375 28.609375 
L 54.59375 72.90625 
L 64.5 72.90625 
L 64.5 27.390625 
Q 64.5 13.140625 57.4375 5.859375 
Q 50.390625 -1.421875 36.625 -1.421875 
Q 22.796875 -1.421875 15.734375 5.859375 
Q 8.6875 13.140625 8.6875 27.390625 
z
" id="DejaVuSans-85"/>
    </defs>
    <g transform="translate(361.8625 65.632812)scale(0.1 -0.1)">
     <use xlink:href="#DejaVuSans-65"/>
     <use x="68.408203" xlink:href="#DejaVuSans-85"/>
     <use x="141.601562" xlink:href="#DejaVuSans-83"/>
     <use x="205.078125" xlink:href="#DejaVuSans-32"/>
     <use x="236.865234" xlink:href="#DejaVuSans-40"/>
     <use x="275.878906" xlink:href="#DejaVuSans-52"/>
     <use x="339.501953" xlink:href="#DejaVuSans-48"/>
     <use x="403.125" xlink:href="#DejaVuSans-41"/>
    </g>
   </g>
   <g id="line2d_60">
    <path d="M 333.8625 76.810937 
L 353.8625 76.810937 
" style="fill:none;stroke:#e7298a;stroke-linecap:square;stroke-width:1.5;"/>
   </g>
   <g id="line2d_61"/>
   <g id="text_27">
    <!-- COML (40) -->
    <defs>
     <path d="M 64.40625 67.28125 
L 64.40625 56.890625 
Q 59.421875 61.53125 53.78125 63.8125 
Q 48.140625 66.109375 41.796875 66.109375 
Q 29.296875 66.109375 22.65625 58.46875 
Q 16.015625 50.828125 16.015625 36.375 
Q 16.015625 21.96875 22.65625 14.328125 
Q 29.296875 6.6875 41.796875 6.6875 
Q 48.140625 6.6875 53.78125 8.984375 
Q 59.421875 11.28125 64.40625 15.921875 
L 64.40625 5.609375 
Q 59.234375 2.09375 53.4375 0.328125 
Q 47.65625 -1.421875 41.21875 -1.421875 
Q 24.65625 -1.421875 15.125 8.703125 
Q 5.609375 18.84375 5.609375 36.375 
Q 5.609375 53.953125 15.125 64.078125 
Q 24.65625 74.21875 41.21875 74.21875 
Q 47.75 74.21875 53.53125 72.484375 
Q 59.328125 70.75 64.40625 67.28125 
z
" id="DejaVuSans-67"/>
     <path d="M 39.40625 66.21875 
Q 28.65625 66.21875 22.328125 58.203125 
Q 16.015625 50.203125 16.015625 36.375 
Q 16.015625 22.609375 22.328125 14.59375 
Q 28.65625 6.59375 39.40625 6.59375 
Q 50.140625 6.59375 56.421875 14.59375 
Q 62.703125 22.609375 62.703125 36.375 
Q 62.703125 50.203125 56.421875 58.203125 
Q 50.140625 66.21875 39.40625 66.21875 
z
M 39.40625 74.21875 
Q 54.734375 74.21875 63.90625 63.9375 
Q 73.09375 53.65625 73.09375 36.375 
Q 73.09375 19.140625 63.90625 8.859375 
Q 54.734375 -1.421875 39.40625 -1.421875 
Q 24.03125 -1.421875 14.8125 8.828125 
Q 5.609375 19.09375 5.609375 36.375 
Q 5.609375 53.65625 14.8125 63.9375 
Q 24.03125 74.21875 39.40625 74.21875 
z
" id="DejaVuSans-79"/>
     <path d="M 9.8125 72.90625 
L 24.515625 72.90625 
L 43.109375 23.296875 
L 61.8125 72.90625 
L 76.515625 72.90625 
L 76.515625 0 
L 66.890625 0 
L 66.890625 64.015625 
L 48.09375 14.015625 
L 38.1875 14.015625 
L 19.390625 64.015625 
L 19.390625 0 
L 9.8125 0 
z
" id="DejaVuSans-77"/>
     <path d="M 9.8125 72.90625 
L 19.671875 72.90625 
L 19.671875 8.296875 
L 55.171875 8.296875 
L 55.171875 0 
L 9.8125 0 
z
" id="DejaVuSans-76"/>
    </defs>
    <g transform="translate(361.8625 80.310937)scale(0.1 -0.1)">
     <use xlink:href="#DejaVuSans-67"/>
     <use x="69.824219" xlink:href="#DejaVuSans-79"/>
     <use x="148.535156" xlink:href="#DejaVuSans-77"/>
     <use x="234.814453" xlink:href="#DejaVuSans-76"/>
     <use x="290.527344" xlink:href="#DejaVuSans-32"/>
     <use x="322.314453" xlink:href="#DejaVuSans-40"/>
     <use x="361.328125" xlink:href="#DejaVuSans-52"/>
     <use x="424.951172" xlink:href="#DejaVuSans-48"/>
     <use x="488.574219" xlink:href="#DejaVuSans-41"/>
    </g>
   </g>
   <g id="line2d_62">
    <path d="M 333.8625 91.489062 
L 353.8625 91.489062 
" style="fill:none;stroke:#66a61e;stroke-linecap:square;stroke-width:1.5;"/>
   </g>
   <g id="line2d_63"/>
   <g id="text_28">
    <!-- GDD (40) -->
    <defs>
     <path d="M 59.515625 10.40625 
L 59.515625 29.984375 
L 43.40625 29.984375 
L 43.40625 38.09375 
L 69.28125 38.09375 
L 69.28125 6.78125 
Q 63.578125 2.734375 56.6875 0.65625 
Q 49.8125 -1.421875 42 -1.421875 
Q 24.90625 -1.421875 15.25 8.5625 
Q 5.609375 18.5625 5.609375 36.375 
Q 5.609375 54.25 15.25 64.234375 
Q 24.90625 74.21875 42 74.21875 
Q 49.125 74.21875 55.546875 72.453125 
Q 61.96875 70.703125 67.390625 67.28125 
L 67.390625 56.78125 
Q 61.921875 61.421875 55.765625 63.765625 
Q 49.609375 66.109375 42.828125 66.109375 
Q 29.4375 66.109375 22.71875 58.640625 
Q 16.015625 51.171875 16.015625 36.375 
Q 16.015625 21.625 22.71875 14.15625 
Q 29.4375 6.6875 42.828125 6.6875 
Q 48.046875 6.6875 52.140625 7.59375 
Q 56.25 8.5 59.515625 10.40625 
z
" id="DejaVuSans-71"/>
    </defs>
    <g transform="translate(361.8625 94.989062)scale(0.1 -0.1)">
     <use xlink:href="#DejaVuSans-71"/>
     <use x="77.490234" xlink:href="#DejaVuSans-68"/>
     <use x="154.492188" xlink:href="#DejaVuSans-68"/>
     <use x="231.494141" xlink:href="#DejaVuSans-32"/>
     <use x="263.28125" xlink:href="#DejaVuSans-40"/>
     <use x="302.294922" xlink:href="#DejaVuSans-52"/>
     <use x="365.917969" xlink:href="#DejaVuSans-48"/>
     <use x="429.541016" xlink:href="#DejaVuSans-41"/>
    </g>
   </g>
   <g id="line2d_64">
    <path d="M 333.8625 106.167188 
L 353.8625 106.167188 
" style="fill:none;stroke:#e6ab02;stroke-linecap:square;stroke-width:1.5;"/>
   </g>
   <g id="line2d_65"/>
   <g id="text_29">
    <!-- MD (38) -->
    <g transform="translate(361.8625 109.667188)scale(0.1 -0.1)">
     <use xlink:href="#DejaVuSans-77"/>
     <use x="86.279297" xlink:href="#DejaVuSans-68"/>
     <use x="163.28125" xlink:href="#DejaVuSans-32"/>
     <use x="195.068359" xlink:href="#DejaVuSans-40"/>
     <use x="234.082031" xlink:href="#DejaVuSans-51"/>
     <use x="297.705078" xlink:href="#DejaVuSans-56"/>
     <use x="361.328125" xlink:href="#DejaVuSans-41"/>
    </g>
   </g>
   <g id="line2d_66">
    <path d="M 333.8625 120.845312 
L 353.8625 120.845312 
" style="fill:none;stroke:#a6761d;stroke-linecap:square;stroke-width:1.5;"/>
   </g>
   <g id="line2d_67"/>
   <g id="text_30">
    <!-- HPI (38) -->
    <defs>
     <path d="M 9.8125 72.90625 
L 19.671875 72.90625 
L 19.671875 43.015625 
L 55.515625 43.015625 
L 55.515625 72.90625 
L 65.375 72.90625 
L 65.375 0 
L 55.515625 0 
L 55.515625 34.71875 
L 19.671875 34.71875 
L 19.671875 0 
L 9.8125 0 
z
" id="DejaVuSans-72"/>
     <path d="M 19.671875 64.796875 
L 19.671875 37.40625 
L 32.078125 37.40625 
Q 38.96875 37.40625 42.71875 40.96875 
Q 46.484375 44.53125 46.484375 51.125 
Q 46.484375 57.671875 42.71875 61.234375 
Q 38.96875 64.796875 32.078125 64.796875 
z
M 9.8125 72.90625 
L 32.078125 72.90625 
Q 44.34375 72.90625 50.609375 67.359375 
Q 56.890625 61.8125 56.890625 51.125 
Q 56.890625 40.328125 50.609375 34.8125 
Q 44.34375 29.296875 32.078125 29.296875 
L 19.671875 29.296875 
L 19.671875 0 
L 9.8125 0 
z
" id="DejaVuSans-80"/>
     <path d="M 9.8125 72.90625 
L 19.671875 72.90625 
L 19.671875 0 
L 9.8125 0 
z
" id="DejaVuSans-73"/>
    </defs>
    <g transform="translate(361.8625 124.345312)scale(0.1 -0.1)">
     <use xlink:href="#DejaVuSans-72"/>
     <use x="75.195312" xlink:href="#DejaVuSans-80"/>
     <use x="135.498047" xlink:href="#DejaVuSans-73"/>
     <use x="164.990234" xlink:href="#DejaVuSans-32"/>
     <use x="196.777344" xlink:href="#DejaVuSans-40"/>
     <use x="235.791016" xlink:href="#DejaVuSans-51"/>
     <use x="299.414062" xlink:href="#DejaVuSans-56"/>
     <use x="363.037109" xlink:href="#DejaVuSans-41"/>
    </g>
   </g>
   <g id="line2d_68">
    <path d="M 333.8625 135.523438 
L 353.8625 135.523438 
" style="fill:none;stroke:#666666;stroke-linecap:square;stroke-width:1.5;"/>
   </g>
   <g id="line2d_69"/>
   <g id="text_31">
    <!-- FIT (29) -->
    <defs>
     <path d="M 9.8125 72.90625 
L 51.703125 72.90625 
L 51.703125 64.59375 
L 19.671875 64.59375 
L 19.671875 43.109375 
L 48.578125 43.109375 
L 48.578125 34.8125 
L 19.671875 34.8125 
L 19.671875 0 
L 9.8125 0 
z
" id="DejaVuSans-70"/>
     <path d="M -0.296875 72.90625 
L 61.375 72.90625 
L 61.375 64.59375 
L 35.5 64.59375 
L 35.5 0 
L 25.59375 0 
L 25.59375 64.59375 
L -0.296875 64.59375 
z
" id="DejaVuSans-84"/>
    </defs>
    <g transform="translate(361.8625 139.023438)scale(0.1 -0.1)">
     <use xlink:href="#DejaVuSans-70"/>
     <use x="57.519531" xlink:href="#DejaVuSans-73"/>
     <use x="87.011719" xlink:href="#DejaVuSans-84"/>
     <use x="148.095703" xlink:href="#DejaVuSans-32"/>
     <use x="179.882812" xlink:href="#DejaVuSans-40"/>
     <use x="218.896484" xlink:href="#DejaVuSans-50"/>
     <use x="282.519531" xlink:href="#DejaVuSans-57"/>
     <use x="346.142578" xlink:href="#DejaVuSans-41"/>
    </g>
   </g>
   <g id="line2d_70">
    <path d="M 333.8625 150.201562 
L 353.8625 150.201562 
" style="fill:none;stroke:#1b9e77;stroke-dasharray:4.5,1.5;stroke-dashoffset:0;stroke-width:1.5;"/>
   </g>
   <g id="line2d_71"/>
   <g id="text_32">
    <!-- TBI (28) -->
    <defs>
     <path d="M 19.671875 34.8125 
L 19.671875 8.109375 
L 35.5 8.109375 
Q 43.453125 8.109375 47.28125 11.40625 
Q 51.125 14.703125 51.125 21.484375 
Q 51.125 28.328125 47.28125 31.5625 
Q 43.453125 34.8125 35.5 34.8125 
z
M 19.671875 64.796875 
L 19.671875 42.828125 
L 34.28125 42.828125 
Q 41.5 42.828125 45.03125 45.53125 
Q 48.578125 48.25 48.578125 53.8125 
Q 48.578125 59.328125 45.03125 62.0625 
Q 41.5 64.796875 34.28125 64.796875 
z
M 9.8125 72.90625 
L 35.015625 72.90625 
Q 46.296875 72.90625 52.390625 68.21875 
Q 58.5 63.53125 58.5 54.890625 
Q 58.5 48.1875 55.375 44.234375 
Q 52.25 40.28125 46.1875 39.3125 
Q 53.46875 37.75 57.5 32.78125 
Q 61.53125 27.828125 61.53125 20.40625 
Q 61.53125 10.640625 54.890625 5.3125 
Q 48.25 0 35.984375 0 
L 9.8125 0 
z
" id="DejaVuSans-66"/>
    </defs>
    <g transform="translate(361.8625 153.701562)scale(0.1 -0.1)">
     <use xlink:href="#DejaVuSans-84"/>
     <use x="61.083984" xlink:href="#DejaVuSans-66"/>
     <use x="129.6875" xlink:href="#DejaVuSans-73"/>
     <use x="159.179688" xlink:href="#DejaVuSans-32"/>
     <use x="190.966797" xlink:href="#DejaVuSans-40"/>
     <use x="229.980469" xlink:href="#DejaVuSans-50"/>
     <use x="293.603516" xlink:href="#DejaVuSans-56"/>
     <use x="357.226562" xlink:href="#DejaVuSans-41"/>
    </g>
   </g>
   <g id="line2d_72">
    <path d="M 333.8625 164.879687 
L 353.8625 164.879687 
" style="fill:none;stroke:#d95f02;stroke-dasharray:4.5,1.5;stroke-dashoffset:0;stroke-width:1.5;"/>
   </g>
   <g id="line2d_73"/>
   <g id="text_33">
    <!-- BP (26) -->
    <g transform="translate(361.8625 168.379687)scale(0.1 -0.1)">
     <use xlink:href="#DejaVuSans-66"/>
     <use x="68.603516" xlink:href="#DejaVuSans-80"/>
     <use x="128.90625" xlink:href="#DejaVuSans-32"/>
     <use x="160.693359" xlink:href="#DejaVuSans-40"/>
     <use x="199.707031" xlink:href="#DejaVuSans-50"/>
     <use x="263.330078" xlink:href="#DejaVuSans-54"/>
     <use x="326.953125" xlink:href="#DejaVuSans-41"/>
    </g>
   </g>
   <g id="line2d_74">
    <path d="M 333.8625 179.557812 
L 353.8625 179.557812 
" style="fill:none;stroke:#7570b3;stroke-dasharray:4.5,1.5;stroke-dashoffset:0;stroke-width:1.5;"/>
   </g>
   <g id="line2d_75"/>
   <g id="text_34">
    <!-- SPD (26) -->
    <g transform="translate(361.8625 183.057812)scale(0.1 -0.1)">
     <use xlink:href="#DejaVuSans-83"/>
     <use x="63.476562" xlink:href="#DejaVuSans-80"/>
     <use x="123.779297" xlink:href="#DejaVuSans-68"/>
     <use x="200.78125" xlink:href="#DejaVuSans-32"/>
     <use x="232.568359" xlink:href="#DejaVuSans-40"/>
     <use x="271.582031" xlink:href="#DejaVuSans-50"/>
     <use x="335.205078" xlink:href="#DejaVuSans-54"/>
     <use x="398.828125" xlink:href="#DejaVuSans-41"/>
    </g>
   </g>
   <g id="line2d_76">
    <path d="M 333.8625 194.235937 
L 353.8625 194.235937 
" style="fill:none;stroke:#e7298a;stroke-dasharray:4.5,1.5;stroke-dashoffset:0;stroke-width:1.5;"/>
   </g>
   <g id="line2d_77"/>
   <g id="text_35">
    <!-- CB (25) -->
    <g transform="translate(361.8625 197.735937)scale(0.1 -0.1)">
     <use xlink:href="#DejaVuSans-67"/>
     <use x="69.824219" xlink:href="#DejaVuSans-66"/>
     <use x="138.427734" xlink:href="#DejaVuSans-32"/>
     <use x="170.214844" xlink:href="#DejaVuSans-40"/>
     <use x="209.228516" xlink:href="#DejaVuSans-50"/>
     <use x="272.851562" xlink:href="#DejaVuSans-53"/>
     <use x="336.474609" xlink:href="#DejaVuSans-41"/>
    </g>
   </g>
   <g id="line2d_78">
    <path d="M 333.8625 208.914062 
L 353.8625 208.914062 
" style="fill:none;stroke:#66a61e;stroke-dasharray:4.5,1.5;stroke-dashoffset:0;stroke-width:1.5;"/>
   </g>
   <g id="line2d_79"/>
   <g id="text_36">
    <!-- CC (25) -->
    <g transform="translate(361.8625 212.414062)scale(0.1 -0.1)">
     <use xlink:href="#DejaVuSans-67"/>
     <use x="69.824219" xlink:href="#DejaVuSans-67"/>
     <use x="139.648438" xlink:href="#DejaVuSans-32"/>
     <use x="171.435547" xlink:href="#DejaVuSans-40"/>
     <use x="210.449219" xlink:href="#DejaVuSans-50"/>
     <use x="274.072266" xlink:href="#DejaVuSans-53"/>
     <use x="337.695312" xlink:href="#DejaVuSans-41"/>
    </g>
   </g>
   <g id="line2d_80">
    <path d="M 333.8625 223.592187 
L 353.8625 223.592187 
" style="fill:none;stroke:#e6ab02;stroke-dasharray:4.5,1.5;stroke-dashoffset:0;stroke-width:1.5;"/>
   </g>
   <g id="line2d_81"/>
   <g id="text_37">
    <!-- RJPH (24) -->
    <defs>
     <path d="M 9.8125 72.90625 
L 19.671875 72.90625 
L 19.671875 5.078125 
Q 19.671875 -8.109375 14.671875 -14.0625 
Q 9.671875 -20.015625 -1.421875 -20.015625 
L -5.171875 -20.015625 
L -5.171875 -11.71875 
L -2.09375 -11.71875 
Q 4.4375 -11.71875 7.125 -8.046875 
Q 9.8125 -4.390625 9.8125 5.078125 
z
" id="DejaVuSans-74"/>
    </defs>
    <g transform="translate(361.8625 227.092187)scale(0.1 -0.1)">
     <use xlink:href="#DejaVuSans-82"/>
     <use x="69.482422" xlink:href="#DejaVuSans-74"/>
     <use x="98.974609" xlink:href="#DejaVuSans-80"/>
     <use x="159.277344" xlink:href="#DejaVuSans-72"/>
     <use x="234.472656" xlink:href="#DejaVuSans-32"/>
     <use x="266.259766" xlink:href="#DejaVuSans-40"/>
     <use x="305.273438" xlink:href="#DejaVuSans-50"/>
     <use x="368.896484" xlink:href="#DejaVuSans-52"/>
     <use x="432.519531" xlink:href="#DejaVuSans-41"/>
    </g>
   </g>
   <g id="line2d_82">
    <path d="M 333.8625 238.270312 
L 353.8625 238.270312 
" style="fill:none;stroke:#a6761d;stroke-dasharray:4.5,1.5;stroke-dashoffset:0;stroke-width:1.5;"/>
   </g>
   <g id="line2d_83"/>
   <g id="text_38">
    <!-- AHR-H (20) -->
    <g transform="translate(361.8625 241.770312)scale(0.1 -0.1)">
     <use xlink:href="#DejaVuSans-65"/>
     <use x="68.408203" xlink:href="#DejaVuSans-72"/>
     <use x="143.603516" xlink:href="#DejaVuSans-82"/>
     <use x="213.023438" xlink:href="#DejaVuSans-45"/>
     <use x="249.107422" xlink:href="#DejaVuSans-72"/>
     <use x="324.302734" xlink:href="#DejaVuSans-32"/>
     <use x="356.089844" xlink:href="#DejaVuSans-40"/>
     <use x="395.103516" xlink:href="#DejaVuSans-50"/>
     <use x="458.726562" xlink:href="#DejaVuSans-48"/>
     <use x="522.349609" xlink:href="#DejaVuSans-41"/>
    </g>
   </g>
   <g id="line2d_84">
    <path d="M 333.8625 252.948437 
L 353.8625 252.948437 
" style="fill:none;stroke:#666666;stroke-dasharray:4.5,1.5;stroke-dashoffset:0;stroke-width:1.5;"/>
   </g>
   <g id="line2d_85"/>
   <g id="text_39">
    <!-- AHR-A (20) -->
    <g transform="translate(361.8625 256.448437)scale(0.1 -0.1)">
     <use xlink:href="#DejaVuSans-65"/>
     <use x="68.408203" xlink:href="#DejaVuSans-72"/>
     <use x="143.603516" xlink:href="#DejaVuSans-82"/>
     <use x="213.023438" xlink:href="#DejaVuSans-45"/>
     <use x="249.076172" xlink:href="#DejaVuSans-65"/>
     <use x="317.484375" xlink:href="#DejaVuSans-32"/>
     <use x="349.271484" xlink:href="#DejaVuSans-40"/>
     <use x="388.285156" xlink:href="#DejaVuSans-50"/>
     <use x="451.908203" xlink:href="#DejaVuSans-48"/>
     <use x="515.53125" xlink:href="#DejaVuSans-41"/>
    </g>
   </g>
  </g>
 </g>
 <defs>
  <clipPath id="pbca7997abf">
   <rect height="207.330771" width="271.81" x="43.55" y="12.9"/>
  </clipPath>
 </defs>
</svg>
