<?xml version="1.0" encoding="utf-8" standalone="no"?>
<!DOCTYPE svg PUBLIC "-//W3C//DTD SVG 1.1//EN"
  "http://www.w3.org/Graphics/SVG/1.1/DTD/svg11.dtd">
<!-- Created with matplotlib (https://matplotlib.org/) -->
<svg height="288pt" version="1.1" viewBox="0 0 432 288" width="432pt" xmlns="http://www.w3.org/2000/svg" xmlns:xlink="http://www.w3.org/1999/xlink">
 <defs>
  <style type="text/css">
*{stroke-linecap:butt;stroke-linejoin:round;}
  </style>
 </defs>
 <g id="figure_1">
  <g id="patch_1">
   <path d="M 0 288 
L 432 288 
L 432 0 
L 0 0 
z
" style="fill:#ffffff;"/>
  </g>
  <g id="axes_1">
   <g id="patch_2">
    <path d="M 43.55 220.230771 
L 315.36 220.230771 
L 315.36 12.9 
L 43.55 12.9 
z
" style="fill:#ffffff;"/>
   </g>
   <g id="matplotlib.axis_1">
    <g id="xtick_1">
     <g id="line2d_1">
      <defs>
       <path d="M 0 0 
L 0 3.5 
" id="m1c9fb83663" style="stroke:#000000;stroke-width:0.8;"/>
      </defs>
      <g>
       <use style="stroke:#000000;stroke-width:0.8;" x="50.852946" xlink:href="#m1c9fb83663" y="220.230771"/>
      </g>
     </g>
     <g id="text_1">
      <!-- 2020-11-29 -->
      <defs>
       <path d="M 19.1875 8.296875 
L 53.609375 8.296875 
L 53.609375 0 
L 7.328125 0 
L 7.328125 8.296875 
Q 12.9375 14.109375 22.625 23.890625 
Q 32.328125 33.6875 34.8125 36.53125 
Q 39.546875 41.84375 41.421875 45.53125 
Q 43.3125 49.21875 43.3125 52.78125 
Q 43.3125 58.59375 39.234375 62.25 
Q 35.15625 65.921875 28.609375 65.921875 
Q 23.96875 65.921875 18.8125 64.3125 
Q 13.671875 62.703125 7.8125 59.421875 
L 7.8125 69.390625 
Q 13.765625 71.78125 18.9375 73 
Q 24.125 74.21875 28.421875 74.21875 
Q 39.75 74.21875 46.484375 68.546875 
Q 53.21875 62.890625 53.21875 53.421875 
Q 53.21875 48.921875 51.53125 44.890625 
Q 49.859375 40.875 45.40625 35.40625 
Q 44.1875 33.984375 37.640625 27.21875 
Q 31.109375 20.453125 19.1875 8.296875 
z
" id="DejaVuSans-50"/>
       <path d="M 31.78125 66.40625 
Q 24.171875 66.40625 20.328125 58.90625 
Q 16.5 51.421875 16.5 36.375 
Q 16.5 21.390625 20.328125 13.890625 
Q 24.171875 6.390625 31.78125 6.390625 
Q 39.453125 6.390625 43.28125 13.890625 
Q 47.125 21.390625 47.125 36.375 
Q 47.125 51.421875 43.28125 58.90625 
Q 39.453125 66.40625 31.78125 66.40625 
z
M 31.78125 74.21875 
Q 44.046875 74.21875 50.515625 64.515625 
Q 56.984375 54.828125 56.984375 36.375 
Q 56.984375 17.96875 50.515625 8.265625 
Q 44.046875 -1.421875 31.78125 -1.421875 
Q 19.53125 -1.421875 13.0625 8.265625 
Q 6.59375 17.96875 6.59375 36.375 
Q 6.59375 54.828125 13.0625 64.515625 
Q 19.53125 74.21875 31.78125 74.21875 
z
" id="DejaVuSans-48"/>
       <path d="M 4.890625 31.390625 
L 31.203125 31.390625 
L 31.203125 23.390625 
L 4.890625 23.390625 
z
" id="DejaVuSans-45"/>
       <path d="M 12.40625 8.296875 
L 28.515625 8.296875 
L 28.515625 63.921875 
L 10.984375 60.40625 
L 10.984375 69.390625 
L 28.421875 72.90625 
L 38.28125 72.90625 
L 38.28125 8.296875 
L 54.390625 8.296875 
L 54.390625 0 
L 12.40625 0 
z
" id="DejaVuSans-49"/>
       <path d="M 10.984375 1.515625 
L 10.984375 10.5 
Q 14.703125 8.734375 18.5 7.8125 
Q 22.3125 6.890625 25.984375 6.890625 
Q 35.75 6.890625 40.890625 13.453125 
Q 46.046875 20.015625 46.78125 33.40625 
Q 43.953125 29.203125 39.59375 26.953125 
Q 35.25 24.703125 29.984375 24.703125 
Q 19.046875 24.703125 12.671875 31.3125 
Q 6.296875 37.9375 6.296875 49.421875 
Q 6.296875 60.640625 12.9375 67.421875 
Q 19.578125 74.21875 30.609375 74.21875 
Q 43.265625 74.21875 49.921875 64.515625 
Q 56.59375 54.828125 56.59375 36.375 
Q 56.59375 19.140625 48.40625 8.859375 
Q 40.234375 -1.421875 26.421875 -1.421875 
Q 22.703125 -1.421875 18.890625 -0.6875 
Q 15.09375 0.046875 10.984375 1.515625 
z
M 30.609375 32.421875 
Q 37.25 32.421875 41.125 36.953125 
Q 45.015625 41.5 45.015625 49.421875 
Q 45.015625 57.28125 41.125 61.84375 
Q 37.25 66.40625 30.609375 66.40625 
Q 23.96875 66.40625 20.09375 61.84375 
Q 16.21875 57.28125 16.21875 49.421875 
Q 16.21875 41.5 20.09375 36.953125 
Q 23.96875 32.421875 30.609375 32.421875 
z
" id="DejaVuSans-57"/>
      </defs>
      <g transform="translate(27.06783 262.869024)rotate(-30)scale(0.1 -0.1)">
       <use xlink:href="#DejaVuSans-50"/>
       <use x="63.623047" xlink:href="#DejaVuSans-48"/>
       <use x="127.246094" xlink:href="#DejaVuSans-50"/>
       <use x="190.869141" xlink:href="#DejaVuSans-48"/>
       <use x="254.492188" xlink:href="#DejaVuSans-45"/>
       <use x="290.576172" xlink:href="#DejaVuSans-49"/>
       <use x="354.199219" xlink:href="#DejaVuSans-49"/>
       <use x="417.822266" xlink:href="#DejaVuSans-45"/>
       <use x="453.90625" xlink:href="#DejaVuSans-50"/>
       <use x="517.529297" xlink:href="#DejaVuSans-57"/>
      </g>
     </g>
    </g>
    <g id="xtick_2">
     <g id="line2d_2">
      <g>
       <use style="stroke:#000000;stroke-width:0.8;" x="57.829902" xlink:href="#m1c9fb83663" y="220.230771"/>
      </g>
     </g>
     <g id="text_2">
      <!-- 2020-12-01 -->
      <g transform="translate(34.044786 262.869024)rotate(-30)scale(0.1 -0.1)">
       <use xlink:href="#DejaVuSans-50"/>
       <use x="63.623047" xlink:href="#DejaVuSans-48"/>
       <use x="127.246094" xlink:href="#DejaVuSans-50"/>
       <use x="190.869141" xlink:href="#DejaVuSans-48"/>
       <use x="254.492188" xlink:href="#DejaVuSans-45"/>
       <use x="290.576172" xlink:href="#DejaVuSans-49"/>
       <use x="354.199219" xlink:href="#DejaVuSans-50"/>
       <use x="417.822266" xlink:href="#DejaVuSans-45"/>
       <use x="453.90625" xlink:href="#DejaVuSans-48"/>
       <use x="517.529297" xlink:href="#DejaVuSans-49"/>
      </g>
     </g>
    </g>
    <g id="xtick_3">
     <g id="line2d_3">
      <g>
       <use style="stroke:#000000;stroke-width:0.8;" x="106.668591" xlink:href="#m1c9fb83663" y="220.230771"/>
      </g>
     </g>
     <g id="text_3">
      <!-- 2020-12-15 -->
      <defs>
       <path d="M 10.796875 72.90625 
L 49.515625 72.90625 
L 49.515625 64.59375 
L 19.828125 64.59375 
L 19.828125 46.734375 
Q 21.96875 47.46875 24.109375 47.828125 
Q 26.265625 48.1875 28.421875 48.1875 
Q 40.625 48.1875 47.75 41.5 
Q 54.890625 34.8125 54.890625 23.390625 
Q 54.890625 11.625 47.5625 5.09375 
Q 40.234375 -1.421875 26.90625 -1.421875 
Q 22.3125 -1.421875 17.546875 -0.640625 
Q 12.796875 0.140625 7.71875 1.703125 
L 7.71875 11.625 
Q 12.109375 9.234375 16.796875 8.0625 
Q 21.484375 6.890625 26.703125 6.890625 
Q 35.15625 6.890625 40.078125 11.328125 
Q 45.015625 15.765625 45.015625 23.390625 
Q 45.015625 31 40.078125 35.4375 
Q 35.15625 39.890625 26.703125 39.890625 
Q 22.75 39.890625 18.8125 39.015625 
Q 14.890625 38.140625 10.796875 36.28125 
z
" id="DejaVuSans-53"/>
      </defs>
      <g transform="translate(82.883475 262.869024)rotate(-30)scale(0.1 -0.1)">
       <use xlink:href="#DejaVuSans-50"/>
       <use x="63.623047" xlink:href="#DejaVuSans-48"/>
       <use x="127.246094" xlink:href="#DejaVuSans-50"/>
       <use x="190.869141" xlink:href="#DejaVuSans-48"/>
       <use x="254.492188" xlink:href="#DejaVuSans-45"/>
       <use x="290.576172" xlink:href="#DejaVuSans-49"/>
       <use x="354.199219" xlink:href="#DejaVuSans-50"/>
       <use x="417.822266" xlink:href="#DejaVuSans-45"/>
       <use x="453.90625" xlink:href="#DejaVuSans-49"/>
       <use x="517.529297" xlink:href="#DejaVuSans-53"/>
      </g>
     </g>
    </g>
    <g id="xtick_4">
     <g id="line2d_4">
      <g>
       <use style="stroke:#000000;stroke-width:0.8;" x="155.50728" xlink:href="#m1c9fb83663" y="220.230771"/>
      </g>
     </g>
     <g id="text_4">
      <!-- 2020-12-29 -->
      <g transform="translate(131.722164 262.869024)rotate(-30)scale(0.1 -0.1)">
       <use xlink:href="#DejaVuSans-50"/>
       <use x="63.623047" xlink:href="#DejaVuSans-48"/>
       <use x="127.246094" xlink:href="#DejaVuSans-50"/>
       <use x="190.869141" xlink:href="#DejaVuSans-48"/>
       <use x="254.492188" xlink:href="#DejaVuSans-45"/>
       <use x="290.576172" xlink:href="#DejaVuSans-49"/>
       <use x="354.199219" xlink:href="#DejaVuSans-50"/>
       <use x="417.822266" xlink:href="#DejaVuSans-45"/>
       <use x="453.90625" xlink:href="#DejaVuSans-50"/>
       <use x="517.529297" xlink:href="#DejaVuSans-57"/>
      </g>
     </g>
    </g>
    <g id="xtick_5">
     <g id="line2d_5">
      <g>
       <use style="stroke:#000000;stroke-width:0.8;" x="165.972714" xlink:href="#m1c9fb83663" y="220.230771"/>
      </g>
     </g>
     <g id="text_5">
      <!-- 2021-01-01 -->
      <g transform="translate(142.187597 262.869024)rotate(-30)scale(0.1 -0.1)">
       <use xlink:href="#DejaVuSans-50"/>
       <use x="63.623047" xlink:href="#DejaVuSans-48"/>
       <use x="127.246094" xlink:href="#DejaVuSans-50"/>
       <use x="190.869141" xlink:href="#DejaVuSans-49"/>
       <use x="254.492188" xlink:href="#DejaVuSans-45"/>
       <use x="290.576172" xlink:href="#DejaVuSans-48"/>
       <use x="354.199219" xlink:href="#DejaVuSans-49"/>
       <use x="417.822266" xlink:href="#DejaVuSans-45"/>
       <use x="453.90625" xlink:href="#DejaVuSans-48"/>
       <use x="517.529297" xlink:href="#DejaVuSans-49"/>
      </g>
     </g>
    </g>
    <g id="xtick_6">
     <g id="line2d_6">
      <g>
       <use style="stroke:#000000;stroke-width:0.8;" x="214.811403" xlink:href="#m1c9fb83663" y="220.230771"/>
      </g>
     </g>
     <g id="text_6">
      <!-- 2021-01-15 -->
      <g transform="translate(191.026287 262.869024)rotate(-30)scale(0.1 -0.1)">
       <use xlink:href="#DejaVuSans-50"/>
       <use x="63.623047" xlink:href="#DejaVuSans-48"/>
       <use x="127.246094" xlink:href="#DejaVuSans-50"/>
       <use x="190.869141" xlink:href="#DejaVuSans-49"/>
       <use x="254.492188" xlink:href="#DejaVuSans-45"/>
       <use x="290.576172" xlink:href="#DejaVuSans-48"/>
       <use x="354.199219" xlink:href="#DejaVuSans-49"/>
       <use x="417.822266" xlink:href="#DejaVuSans-45"/>
       <use x="453.90625" xlink:href="#DejaVuSans-49"/>
       <use x="517.529297" xlink:href="#DejaVuSans-53"/>
      </g>
     </g>
    </g>
    <g id="xtick_7">
     <g id="line2d_7">
      <g>
       <use style="stroke:#000000;stroke-width:0.8;" x="263.650092" xlink:href="#m1c9fb83663" y="220.230771"/>
      </g>
     </g>
     <g id="text_7">
      <!-- 2021-01-29 -->
      <g transform="translate(239.864976 262.869024)rotate(-30)scale(0.1 -0.1)">
       <use xlink:href="#DejaVuSans-50"/>
       <use x="63.623047" xlink:href="#DejaVuSans-48"/>
       <use x="127.246094" xlink:href="#DejaVuSans-50"/>
       <use x="190.869141" xlink:href="#DejaVuSans-49"/>
       <use x="254.492188" xlink:href="#DejaVuSans-45"/>
       <use x="290.576172" xlink:href="#DejaVuSans-48"/>
       <use x="354.199219" xlink:href="#DejaVuSans-49"/>
       <use x="417.822266" xlink:href="#DejaVuSans-45"/>
       <use x="453.90625" xlink:href="#DejaVuSans-50"/>
       <use x="517.529297" xlink:href="#DejaVuSans-57"/>
      </g>
     </g>
    </g>
    <g id="xtick_8">
     <g id="line2d_8">
      <g>
       <use style="stroke:#000000;stroke-width:0.8;" x="274.115525" xlink:href="#m1c9fb83663" y="220.230771"/>
      </g>
     </g>
     <g id="text_8">
      <!-- 2021-02-01 -->
      <g transform="translate(250.330409 262.869024)rotate(-30)scale(0.1 -0.1)">
       <use xlink:href="#DejaVuSans-50"/>
       <use x="63.623047" xlink:href="#DejaVuSans-48"/>
       <use x="127.246094" xlink:href="#DejaVuSans-50"/>
       <use x="190.869141" xlink:href="#DejaVuSans-49"/>
       <use x="254.492188" xlink:href="#DejaVuSans-45"/>
       <use x="290.576172" xlink:href="#DejaVuSans-48"/>
       <use x="354.199219" xlink:href="#DejaVuSans-50"/>
       <use x="417.822266" xlink:href="#DejaVuSans-45"/>
       <use x="453.90625" xlink:href="#DejaVuSans-48"/>
       <use x="517.529297" xlink:href="#DejaVuSans-49"/>
      </g>
     </g>
    </g>
    <g id="text_9">
     <!-- Date -->
     <defs>
      <path d="M 19.671875 64.796875 
L 19.671875 8.109375 
L 31.59375 8.109375 
Q 46.6875 8.109375 53.6875 14.9375 
Q 60.6875 21.78125 60.6875 36.53125 
Q 60.6875 51.171875 53.6875 57.984375 
Q 46.6875 64.796875 31.59375 64.796875 
z
M 9.8125 72.90625 
L 30.078125 72.90625 
Q 51.265625 72.90625 61.171875 64.09375 
Q 71.09375 55.28125 71.09375 36.53125 
Q 71.09375 17.671875 61.125 8.828125 
Q 51.171875 0 30.078125 0 
L 9.8125 0 
z
" id="DejaVuSans-68"/>
      <path d="M 34.28125 27.484375 
Q 23.390625 27.484375 19.1875 25 
Q 14.984375 22.515625 14.984375 16.5 
Q 14.984375 11.71875 18.140625 8.90625 
Q 21.296875 6.109375 26.703125 6.109375 
Q 34.1875 6.109375 38.703125 11.40625 
Q 43.21875 16.703125 43.21875 25.484375 
L 43.21875 27.484375 
z
M 52.203125 31.203125 
L 52.203125 0 
L 43.21875 0 
L 43.21875 8.296875 
Q 40.140625 3.328125 35.546875 0.953125 
Q 30.953125 -1.421875 24.3125 -1.421875 
Q 15.921875 -1.421875 10.953125 3.296875 
Q 6 8.015625 6 15.921875 
Q 6 25.140625 12.171875 29.828125 
Q 18.359375 34.515625 30.609375 34.515625 
L 43.21875 34.515625 
L 43.21875 35.40625 
Q 43.21875 41.609375 39.140625 45 
Q 35.0625 48.390625 27.6875 48.390625 
Q 23 48.390625 18.546875 47.265625 
Q 14.109375 46.140625 10.015625 43.890625 
L 10.015625 52.203125 
Q 14.9375 54.109375 19.578125 55.046875 
Q 24.21875 56 28.609375 56 
Q 40.484375 56 46.34375 49.84375 
Q 52.203125 43.703125 52.203125 31.203125 
z
" id="DejaVuSans-97"/>
      <path d="M 18.3125 70.21875 
L 18.3125 54.6875 
L 36.8125 54.6875 
L 36.8125 47.703125 
L 18.3125 47.703125 
L 18.3125 18.015625 
Q 18.3125 11.328125 20.140625 9.421875 
Q 21.96875 7.515625 27.59375 7.515625 
L 36.8125 7.515625 
L 36.8125 0 
L 27.59375 0 
Q 17.1875 0 13.234375 3.875 
Q 9.28125 7.765625 9.28125 18.015625 
L 9.28125 47.703125 
L 2.6875 47.703125 
L 2.6875 54.6875 
L 9.28125 54.6875 
L 9.28125 70.21875 
z
" id="DejaVuSans-116"/>
      <path d="M 56.203125 29.59375 
L 56.203125 25.203125 
L 14.890625 25.203125 
Q 15.484375 15.921875 20.484375 11.0625 
Q 25.484375 6.203125 34.421875 6.203125 
Q 39.59375 6.203125 44.453125 7.46875 
Q 49.3125 8.734375 54.109375 11.28125 
L 54.109375 2.78125 
Q 49.265625 0.734375 44.1875 -0.34375 
Q 39.109375 -1.421875 33.890625 -1.421875 
Q 20.796875 -1.421875 13.15625 6.1875 
Q 5.515625 13.8125 5.515625 26.8125 
Q 5.515625 40.234375 12.765625 48.109375 
Q 20.015625 56 32.328125 56 
Q 43.359375 56 49.78125 48.890625 
Q 56.203125 41.796875 56.203125 29.59375 
z
M 47.21875 32.234375 
Q 47.125 39.59375 43.09375 43.984375 
Q 39.0625 48.390625 32.421875 48.390625 
Q 24.90625 48.390625 20.390625 44.140625 
Q 15.875 39.890625 15.1875 32.171875 
z
" id="DejaVuSans-101"/>
     </defs>
     <g transform="translate(167.504219 276.268523)scale(0.1 -0.1)">
      <use xlink:href="#DejaVuSans-68"/>
      <use x="77.001953" xlink:href="#DejaVuSans-97"/>
      <use x="138.28125" xlink:href="#DejaVuSans-116"/>
      <use x="177.490234" xlink:href="#DejaVuSans-101"/>
     </g>
    </g>
   </g>
   <g id="matplotlib.axis_2">
    <g id="ytick_1">
     <g id="line2d_9">
      <defs>
       <path d="M 0 0 
L -3.5 0 
" id="mcd4a4f379e" style="stroke:#000000;stroke-width:0.8;"/>
      </defs>
      <g>
       <use style="stroke:#000000;stroke-width:0.8;" x="43.55" xlink:href="#mcd4a4f379e" y="210.806645"/>
      </g>
     </g>
     <g id="text_10">
      <!-- 0 -->
      <g transform="translate(30.1875 214.605864)scale(0.1 -0.1)">
       <use xlink:href="#DejaVuSans-48"/>
      </g>
     </g>
    </g>
    <g id="ytick_2">
     <g id="line2d_10">
      <g>
       <use style="stroke:#000000;stroke-width:0.8;" x="43.55" xlink:href="#mcd4a4f379e" y="187.24633"/>
      </g>
     </g>
     <g id="text_11">
      <!-- 5 -->
      <g transform="translate(30.1875 191.045549)scale(0.1 -0.1)">
       <use xlink:href="#DejaVuSans-53"/>
      </g>
     </g>
    </g>
    <g id="ytick_3">
     <g id="line2d_11">
      <g>
       <use style="stroke:#000000;stroke-width:0.8;" x="43.55" xlink:href="#mcd4a4f379e" y="163.686016"/>
      </g>
     </g>
     <g id="text_12">
      <!-- 10 -->
      <g transform="translate(23.825 167.485234)scale(0.1 -0.1)">
       <use xlink:href="#DejaVuSans-49"/>
       <use x="63.623047" xlink:href="#DejaVuSans-48"/>
      </g>
     </g>
    </g>
    <g id="ytick_4">
     <g id="line2d_12">
      <g>
       <use style="stroke:#000000;stroke-width:0.8;" x="43.55" xlink:href="#mcd4a4f379e" y="140.125701"/>
      </g>
     </g>
     <g id="text_13">
      <!-- 15 -->
      <g transform="translate(23.825 143.924919)scale(0.1 -0.1)">
       <use xlink:href="#DejaVuSans-49"/>
       <use x="63.623047" xlink:href="#DejaVuSans-53"/>
      </g>
     </g>
    </g>
    <g id="ytick_5">
     <g id="line2d_13">
      <g>
       <use style="stroke:#000000;stroke-width:0.8;" x="43.55" xlink:href="#mcd4a4f379e" y="116.565386"/>
      </g>
     </g>
     <g id="text_14">
      <!-- 20 -->
      <g transform="translate(23.825 120.364604)scale(0.1 -0.1)">
       <use xlink:href="#DejaVuSans-50"/>
       <use x="63.623047" xlink:href="#DejaVuSans-48"/>
      </g>
     </g>
    </g>
    <g id="ytick_6">
     <g id="line2d_14">
      <g>
       <use style="stroke:#000000;stroke-width:0.8;" x="43.55" xlink:href="#mcd4a4f379e" y="93.005071"/>
      </g>
     </g>
     <g id="text_15">
      <!-- 25 -->
      <g transform="translate(23.825 96.80429)scale(0.1 -0.1)">
       <use xlink:href="#DejaVuSans-50"/>
       <use x="63.623047" xlink:href="#DejaVuSans-53"/>
      </g>
     </g>
    </g>
    <g id="ytick_7">
     <g id="line2d_15">
      <g>
       <use style="stroke:#000000;stroke-width:0.8;" x="43.55" xlink:href="#mcd4a4f379e" y="69.444756"/>
      </g>
     </g>
     <g id="text_16">
      <!-- 30 -->
      <defs>
       <path d="M 40.578125 39.3125 
Q 47.65625 37.796875 51.625 33 
Q 55.609375 28.21875 55.609375 21.1875 
Q 55.609375 10.40625 48.1875 4.484375 
Q 40.765625 -1.421875 27.09375 -1.421875 
Q 22.515625 -1.421875 17.65625 -0.515625 
Q 12.796875 0.390625 7.625 2.203125 
L 7.625 11.71875 
Q 11.71875 9.328125 16.59375 8.109375 
Q 21.484375 6.890625 26.8125 6.890625 
Q 36.078125 6.890625 40.9375 10.546875 
Q 45.796875 14.203125 45.796875 21.1875 
Q 45.796875 27.640625 41.28125 31.265625 
Q 36.765625 34.90625 28.71875 34.90625 
L 20.21875 34.90625 
L 20.21875 43.015625 
L 29.109375 43.015625 
Q 36.375 43.015625 40.234375 45.921875 
Q 44.09375 48.828125 44.09375 54.296875 
Q 44.09375 59.90625 40.109375 62.90625 
Q 36.140625 65.921875 28.71875 65.921875 
Q 24.65625 65.921875 20.015625 65.03125 
Q 15.375 64.15625 9.8125 62.3125 
L 9.8125 71.09375 
Q 15.4375 72.65625 20.34375 73.4375 
Q 25.25 74.21875 29.59375 74.21875 
Q 40.828125 74.21875 47.359375 69.109375 
Q 53.90625 64.015625 53.90625 55.328125 
Q 53.90625 49.265625 50.4375 45.09375 
Q 46.96875 40.921875 40.578125 39.3125 
z
" id="DejaVuSans-51"/>
      </defs>
      <g transform="translate(23.825 73.243975)scale(0.1 -0.1)">
       <use xlink:href="#DejaVuSans-51"/>
       <use x="63.623047" xlink:href="#DejaVuSans-48"/>
      </g>
     </g>
    </g>
    <g id="ytick_8">
     <g id="line2d_16">
      <g>
       <use style="stroke:#000000;stroke-width:0.8;" x="43.55" xlink:href="#mcd4a4f379e" y="45.884441"/>
      </g>
     </g>
     <g id="text_17">
      <!-- 35 -->
      <g transform="translate(23.825 49.68366)scale(0.1 -0.1)">
       <use xlink:href="#DejaVuSans-51"/>
       <use x="63.623047" xlink:href="#DejaVuSans-53"/>
      </g>
     </g>
    </g>
    <g id="ytick_9">
     <g id="line2d_17">
      <g>
       <use style="stroke:#000000;stroke-width:0.8;" x="43.55" xlink:href="#mcd4a4f379e" y="22.324126"/>
      </g>
     </g>
     <g id="text_18">
      <!-- 40 -->
      <defs>
       <path d="M 37.796875 64.3125 
L 12.890625 25.390625 
L 37.796875 25.390625 
z
M 35.203125 72.90625 
L 47.609375 72.90625 
L 47.609375 25.390625 
L 58.015625 25.390625 
L 58.015625 17.1875 
L 47.609375 17.1875 
L 47.609375 0 
L 37.796875 0 
L 37.796875 17.1875 
L 4.890625 17.1875 
L 4.890625 26.703125 
z
" id="DejaVuSans-52"/>
      </defs>
      <g transform="translate(23.825 26.123345)scale(0.1 -0.1)">
       <use xlink:href="#DejaVuSans-52"/>
       <use x="63.623047" xlink:href="#DejaVuSans-48"/>
      </g>
     </g>
    </g>
    <g id="text_19">
     <!-- Students Registered -->
     <defs>
      <path d="M 53.515625 70.515625 
L 53.515625 60.890625 
Q 47.90625 63.578125 42.921875 64.890625 
Q 37.9375 66.21875 33.296875 66.21875 
Q 25.25 66.21875 20.875 63.09375 
Q 16.5 59.96875 16.5 54.203125 
Q 16.5 49.359375 19.40625 46.890625 
Q 22.3125 44.4375 30.421875 42.921875 
L 36.375 41.703125 
Q 47.40625 39.59375 52.65625 34.296875 
Q 57.90625 29 57.90625 20.125 
Q 57.90625 9.515625 50.796875 4.046875 
Q 43.703125 -1.421875 29.984375 -1.421875 
Q 24.8125 -1.421875 18.96875 -0.25 
Q 13.140625 0.921875 6.890625 3.21875 
L 6.890625 13.375 
Q 12.890625 10.015625 18.65625 8.296875 
Q 24.421875 6.59375 29.984375 6.59375 
Q 38.421875 6.59375 43.015625 9.90625 
Q 47.609375 13.234375 47.609375 19.390625 
Q 47.609375 24.75 44.3125 27.78125 
Q 41.015625 30.8125 33.5 32.328125 
L 27.484375 33.5 
Q 16.453125 35.6875 11.515625 40.375 
Q 6.59375 45.0625 6.59375 53.421875 
Q 6.59375 63.09375 13.40625 68.65625 
Q 20.21875 74.21875 32.171875 74.21875 
Q 37.3125 74.21875 42.625 73.28125 
Q 47.953125 72.359375 53.515625 70.515625 
z
" id="DejaVuSans-83"/>
      <path d="M 8.5 21.578125 
L 8.5 54.6875 
L 17.484375 54.6875 
L 17.484375 21.921875 
Q 17.484375 14.15625 20.5 10.265625 
Q 23.53125 6.390625 29.59375 6.390625 
Q 36.859375 6.390625 41.078125 11.03125 
Q 45.3125 15.671875 45.3125 23.6875 
L 45.3125 54.6875 
L 54.296875 54.6875 
L 54.296875 0 
L 45.3125 0 
L 45.3125 8.40625 
Q 42.046875 3.421875 37.71875 1 
Q 33.40625 -1.421875 27.6875 -1.421875 
Q 18.265625 -1.421875 13.375 4.4375 
Q 8.5 10.296875 8.5 21.578125 
z
M 31.109375 56 
z
" id="DejaVuSans-117"/>
      <path d="M 45.40625 46.390625 
L 45.40625 75.984375 
L 54.390625 75.984375 
L 54.390625 0 
L 45.40625 0 
L 45.40625 8.203125 
Q 42.578125 3.328125 38.25 0.953125 
Q 33.9375 -1.421875 27.875 -1.421875 
Q 17.96875 -1.421875 11.734375 6.484375 
Q 5.515625 14.40625 5.515625 27.296875 
Q 5.515625 40.1875 11.734375 48.09375 
Q 17.96875 56 27.875 56 
Q 33.9375 56 38.25 53.625 
Q 42.578125 51.265625 45.40625 46.390625 
z
M 14.796875 27.296875 
Q 14.796875 17.390625 18.875 11.75 
Q 22.953125 6.109375 30.078125 6.109375 
Q 37.203125 6.109375 41.296875 11.75 
Q 45.40625 17.390625 45.40625 27.296875 
Q 45.40625 37.203125 41.296875 42.84375 
Q 37.203125 48.484375 30.078125 48.484375 
Q 22.953125 48.484375 18.875 42.84375 
Q 14.796875 37.203125 14.796875 27.296875 
z
" id="DejaVuSans-100"/>
      <path d="M 54.890625 33.015625 
L 54.890625 0 
L 45.90625 0 
L 45.90625 32.71875 
Q 45.90625 40.484375 42.875 44.328125 
Q 39.84375 48.1875 33.796875 48.1875 
Q 26.515625 48.1875 22.3125 43.546875 
Q 18.109375 38.921875 18.109375 30.90625 
L 18.109375 0 
L 9.078125 0 
L 9.078125 54.6875 
L 18.109375 54.6875 
L 18.109375 46.1875 
Q 21.34375 51.125 25.703125 53.5625 
Q 30.078125 56 35.796875 56 
Q 45.21875 56 50.046875 50.171875 
Q 54.890625 44.34375 54.890625 33.015625 
z
" id="DejaVuSans-110"/>
      <path d="M 44.28125 53.078125 
L 44.28125 44.578125 
Q 40.484375 46.53125 36.375 47.5 
Q 32.28125 48.484375 27.875 48.484375 
Q 21.1875 48.484375 17.84375 46.4375 
Q 14.5 44.390625 14.5 40.28125 
Q 14.5 37.15625 16.890625 35.375 
Q 19.28125 33.59375 26.515625 31.984375 
L 29.59375 31.296875 
Q 39.15625 29.25 43.1875 25.515625 
Q 47.21875 21.78125 47.21875 15.09375 
Q 47.21875 7.46875 41.1875 3.015625 
Q 35.15625 -1.421875 24.609375 -1.421875 
Q 20.21875 -1.421875 15.453125 -0.5625 
Q 10.6875 0.296875 5.421875 2 
L 5.421875 11.28125 
Q 10.40625 8.6875 15.234375 7.390625 
Q 20.0625 6.109375 24.8125 6.109375 
Q 31.15625 6.109375 34.5625 8.28125 
Q 37.984375 10.453125 37.984375 14.40625 
Q 37.984375 18.0625 35.515625 20.015625 
Q 33.0625 21.96875 24.703125 23.78125 
L 21.578125 24.515625 
Q 13.234375 26.265625 9.515625 29.90625 
Q 5.8125 33.546875 5.8125 39.890625 
Q 5.8125 47.609375 11.28125 51.796875 
Q 16.75 56 26.8125 56 
Q 31.78125 56 36.171875 55.265625 
Q 40.578125 54.546875 44.28125 53.078125 
z
" id="DejaVuSans-115"/>
      <path id="DejaVuSans-32"/>
      <path d="M 44.390625 34.1875 
Q 47.5625 33.109375 50.5625 29.59375 
Q 53.5625 26.078125 56.59375 19.921875 
L 66.609375 0 
L 56 0 
L 46.6875 18.703125 
Q 43.0625 26.03125 39.671875 28.421875 
Q 36.28125 30.8125 30.421875 30.8125 
L 19.671875 30.8125 
L 19.671875 0 
L 9.8125 0 
L 9.8125 72.90625 
L 32.078125 72.90625 
Q 44.578125 72.90625 50.734375 67.671875 
Q 56.890625 62.453125 56.890625 51.90625 
Q 56.890625 45.015625 53.6875 40.46875 
Q 50.484375 35.9375 44.390625 34.1875 
z
M 19.671875 64.796875 
L 19.671875 38.921875 
L 32.078125 38.921875 
Q 39.203125 38.921875 42.84375 42.21875 
Q 46.484375 45.515625 46.484375 51.90625 
Q 46.484375 58.296875 42.84375 61.546875 
Q 39.203125 64.796875 32.078125 64.796875 
z
" id="DejaVuSans-82"/>
      <path d="M 45.40625 27.984375 
Q 45.40625 37.75 41.375 43.109375 
Q 37.359375 48.484375 30.078125 48.484375 
Q 22.859375 48.484375 18.828125 43.109375 
Q 14.796875 37.75 14.796875 27.984375 
Q 14.796875 18.265625 18.828125 12.890625 
Q 22.859375 7.515625 30.078125 7.515625 
Q 37.359375 7.515625 41.375 12.890625 
Q 45.40625 18.265625 45.40625 27.984375 
z
M 54.390625 6.78125 
Q 54.390625 -7.171875 48.1875 -13.984375 
Q 42 -20.796875 29.203125 -20.796875 
Q 24.46875 -20.796875 20.265625 -20.09375 
Q 16.0625 -19.390625 12.109375 -17.921875 
L 12.109375 -9.1875 
Q 16.0625 -11.328125 19.921875 -12.34375 
Q 23.78125 -13.375 27.78125 -13.375 
Q 36.625 -13.375 41.015625 -8.765625 
Q 45.40625 -4.15625 45.40625 5.171875 
L 45.40625 9.625 
Q 42.625 4.78125 38.28125 2.390625 
Q 33.9375 0 27.875 0 
Q 17.828125 0 11.671875 7.65625 
Q 5.515625 15.328125 5.515625 27.984375 
Q 5.515625 40.671875 11.671875 48.328125 
Q 17.828125 56 27.875 56 
Q 33.9375 56 38.28125 53.609375 
Q 42.625 51.21875 45.40625 46.390625 
L 45.40625 54.6875 
L 54.390625 54.6875 
z
" id="DejaVuSans-103"/>
      <path d="M 9.421875 54.6875 
L 18.40625 54.6875 
L 18.40625 0 
L 9.421875 0 
z
M 9.421875 75.984375 
L 18.40625 75.984375 
L 18.40625 64.59375 
L 9.421875 64.59375 
z
" id="DejaVuSans-105"/>
      <path d="M 41.109375 46.296875 
Q 39.59375 47.171875 37.8125 47.578125 
Q 36.03125 48 33.890625 48 
Q 26.265625 48 22.1875 43.046875 
Q 18.109375 38.09375 18.109375 28.8125 
L 18.109375 0 
L 9.078125 0 
L 9.078125 54.6875 
L 18.109375 54.6875 
L 18.109375 46.1875 
Q 20.953125 51.171875 25.484375 53.578125 
Q 30.03125 56 36.53125 56 
Q 37.453125 56 38.578125 55.875 
Q 39.703125 55.765625 41.0625 55.515625 
z
" id="DejaVuSans-114"/>
     </defs>
     <g transform="translate(17.745313 167.498979)rotate(-90)scale(0.1 -0.1)">
      <use xlink:href="#DejaVuSans-83"/>
      <use x="63.476562" xlink:href="#DejaVuSans-116"/>
      <use x="102.685547" xlink:href="#DejaVuSans-117"/>
      <use x="166.064453" xlink:href="#DejaVuSans-100"/>
      <use x="229.541016" xlink:href="#DejaVuSans-101"/>
      <use x="291.064453" xlink:href="#DejaVuSans-110"/>
      <use x="354.443359" xlink:href="#DejaVuSans-116"/>
      <use x="393.652344" xlink:href="#DejaVuSans-115"/>
      <use x="445.751953" xlink:href="#DejaVuSans-32"/>
      <use x="477.539062" xlink:href="#DejaVuSans-82"/>
      <use x="546.958984" xlink:href="#DejaVuSans-101"/>
      <use x="608.482422" xlink:href="#DejaVuSans-103"/>
      <use x="671.958984" xlink:href="#DejaVuSans-105"/>
      <use x="699.742188" xlink:href="#DejaVuSans-115"/>
      <use x="751.841797" xlink:href="#DejaVuSans-116"/>
      <use x="791.050781" xlink:href="#DejaVuSans-101"/>
      <use x="852.574219" xlink:href="#DejaVuSans-114"/>
      <use x="893.65625" xlink:href="#DejaVuSans-101"/>
      <use x="955.179688" xlink:href="#DejaVuSans-100"/>
     </g>
    </g>
   </g>
   <g id="line2d_18">
    <path clip-path="url(#p88bf764648)" d="M 55.905 201.382519 
L 60.083153 201.382519 
L 60.083153 196.670456 
L 60.192191 196.670456 
L 62.844888 196.670456 
L 62.844888 191.958393 
L 62.953893 191.958393 
L 63.426286 191.958393 
L 63.426286 187.24633 
L 63.535285 187.24633 
L 66.478687 187.24633 
L 66.478687 177.822204 
L 66.58772 177.822204 
L 66.769412 177.822204 
L 66.769412 173.110142 
L 66.878433 173.110142 
L 67.060121 173.110142 
L 67.060121 168.398079 
L 67.169124 168.398079 
L 67.205471 168.398079 
L 67.205471 163.686016 
L 67.314499 163.686016 
L 70.548605 163.686016 
L 70.548605 158.973953 
L 70.657625 158.973953 
L 73.891727 158.973953 
L 73.891727 154.26189 
L 74.000738 154.26189 
L 80.287283 154.26189 
L 80.287283 144.837764 
L 80.39629 144.837764 
L 80.577984 144.837764 
L 80.577984 140.125701 
L 80.686991 140.125701 
L 81.304748 140.125701 
L 81.304748 135.413638 
L 81.413744 135.413638 
L 83.630384 135.413638 
L 83.630384 130.701575 
L 83.739396 130.701575 
L 84.357161 130.701575 
L 84.357161 125.989512 
L 84.466173 125.989512 
L 84.502516 125.989512 
L 84.502516 121.277449 
L 84.611529 121.277449 
L 84.647867 121.277449 
L 84.684201 107.14126 
L 84.75688 107.14126 
L 87.118853 107.14126 
L 87.118853 102.429197 
L 87.227866 102.429197 
L 87.264203 102.429197 
L 87.264203 93.005071 
L 87.373216 93.005071 
L 87.409555 93.005071 
L 87.409555 88.293008 
L 87.518577 88.293008 
L 87.554923 88.293008 
L 87.591259 74.156819 
L 87.663937 74.156819 
L 87.845623 74.156819 
L 87.845623 60.02063 
L 87.954656 60.02063 
L 87.990995 60.02063 
L 87.990995 50.596504 
L 88.09998 50.596504 
L 88.136328 50.596504 
L 88.136328 31.748252 
L 88.245363 31.748252 
L 88.2817 31.748252 
L 88.2817 27.036189 
L 88.391296 27.036189 
L 89.008472 27.036189 
L 89.008472 22.324126 
L 89.117492 22.324126 
L 128.980623 22.324126 
L 128.980623 27.036189 
L 129.089619 27.036189 
L 129.125974 27.036189 
L 129.125974 22.324126 
L 129.234987 22.324126 
L 129.416665 22.324126 
L 129.416665 27.036189 
L 129.525703 27.036189 
L 129.852708 27.036189 
L 129.852708 31.748252 
L 129.961754 31.748252 
L 130.14345 31.748252 
L 130.14345 36.460315 
L 130.252465 36.460315 
L 134.06796 36.460315 
L 134.06796 41.172378 
L 134.176993 41.172378 
L 142.643816 41.172378 
L 142.643816 36.460315 
L 142.752836 36.460315 
L 158.778005 36.460315 
L 158.778005 41.172378 
L 158.887034 41.172378 
L 164.446797 41.172378 
L 164.446797 36.460315 
L 164.555789 36.460315 
L 182.179914 36.460315 
L 182.179914 31.748252 
L 182.288924 31.748252 
L 184.505528 31.748252 
L 184.505528 27.036189 
L 184.614559 27.036189 
L 188.575437 27.036189 
L 188.575437 22.324126 
L 209.506313 22.324126 
L 209.506313 31.748252 
L 209.615303 31.748252 
L 209.942337 31.748252 
L 209.942337 36.460315 
L 210.051355 36.460315 
L 235.233822 36.460315 
L 235.233822 41.172378 
L 235.34284 41.172378 
L 240.466545 41.172378 
L 240.466545 36.460315 
L 240.575565 36.460315 
L 243.955031 36.460315 
L 243.955031 31.748252 
L 244.064041 31.748252 
L 244.972469 31.748252 
L 244.972469 27.036189 
L 245.081512 27.036189 
L 254.856525 27.036189 
L 254.856525 22.324126 
L 254.966835 22.324126 
L 273.752416 22.324126 
L 273.752416 27.036189 
L 273.861451 27.036189 
L 290.177335 27.036189 
L 290.177335 22.324126 
L 290.286349 22.324126 
L 303.005 22.324126 
L 303.005 22.324126 
" style="fill:none;stroke:#1b9e77;stroke-linecap:square;stroke-width:1.5;"/>
   </g>
   <g id="line2d_19">
    <path clip-path="url(#p88bf764648)" d="M 55.905 210.806645 
L 56.058147 210.806645 
L 56.058147 201.382519 
L 56.168294 201.382519 
L 56.740043 201.382519 
L 56.740043 196.670456 
L 56.810271 196.670456 
L 60.083153 196.670456 
L 60.083153 191.958393 
L 60.192191 191.958393 
L 62.844888 191.958393 
L 62.844888 177.822204 
L 62.953893 177.822204 
L 62.990227 177.822204 
L 62.990227 173.110142 
L 63.099239 173.110142 
L 63.135579 173.110142 
L 63.135579 154.26189 
L 63.244761 154.26189 
L 63.280931 154.26189 
L 63.280931 149.549827 
L 63.389965 149.549827 
L 63.426286 149.549827 
L 63.426286 140.125701 
L 63.535285 140.125701 
L 63.571661 140.125701 
L 63.571661 125.989512 
L 63.680662 125.989512 
L 66.188004 125.989512 
L 66.188004 121.277449 
L 66.297 121.277449 
L 66.333341 121.277449 
L 66.333341 116.565386 
L 66.442353 116.565386 
L 66.769412 116.565386 
L 66.769412 111.853323 
L 66.878433 111.853323 
L 67.060121 111.853323 
L 67.060121 97.717134 
L 67.169124 97.717134 
L 67.205471 97.717134 
L 67.205471 93.005071 
L 67.314499 93.005071 
L 70.11253 93.005071 
L 70.11253 88.293008 
L 70.221573 88.293008 
L 70.257878 88.293008 
L 70.257878 83.580945 
L 70.366925 83.580945 
L 70.548605 83.580945 
L 70.548605 78.868882 
L 70.657625 78.868882 
L 70.984656 78.868882 
L 70.984656 74.156819 
L 71.093678 74.156819 
L 73.455682 74.156819 
L 73.455682 69.444756 
L 73.564695 69.444756 
L 80.287283 69.444756 
L 80.287283 45.884441 
L 80.39629 45.884441 
L 80.432622 45.884441 
L 80.432622 36.460315 
L 80.541653 36.460315 
L 80.577984 36.460315 
L 80.577984 31.748252 
L 80.686991 31.748252 
L 129.562006 31.748252 
L 129.562006 36.460315 
L 129.671024 36.460315 
L 129.707354 36.460315 
L 129.707354 31.748252 
L 129.816369 31.748252 
L 137.556428 31.748252 
L 137.556428 36.460315 
L 137.665456 36.460315 
L 137.701792 36.460315 
L 137.701792 31.748252 
L 137.810826 31.748252 
L 209.506313 31.748252 
L 209.506313 22.324126 
L 209.615303 22.324126 
L 303.005 22.324126 
L 303.005 22.324126 
" style="fill:none;stroke:#d95f02;stroke-linecap:square;stroke-width:1.5;"/>
   </g>
   <g id="line2d_20">
    <path clip-path="url(#p88bf764648)" d="M 86.246762 196.670456 
L 86.973496 196.670456 
L 86.973496 182.534267 
L 87.082511 182.534267 
L 87.118853 182.534267 
L 87.118853 177.822204 
L 87.227866 177.822204 
L 87.264203 177.822204 
L 87.264203 158.973953 
L 87.373216 158.973953 
L 87.554923 158.973953 
L 87.554923 144.837764 
L 87.663937 144.837764 
L 87.845623 144.837764 
L 87.845623 116.565386 
L 87.954656 116.565386 
L 88.136328 116.565386 
L 88.136328 107.14126 
L 88.245363 107.14126 
L 88.2817 107.14126 
L 88.2817 102.429197 
L 88.391296 102.429197 
L 88.427041 102.429197 
L 88.427041 97.717134 
L 88.536044 97.717134 
L 88.717771 97.717134 
L 88.717771 93.005071 
L 88.826761 93.005071 
L 90.752684 93.005071 
L 90.752684 74.156819 
L 90.861729 74.156819 
L 91.043401 74.156819 
L 91.043401 69.444756 
L 91.152416 69.444756 
L 91.33413 69.444756 
L 91.33413 60.02063 
L 91.443137 60.02063 
L 91.479483 60.02063 
L 91.479483 55.308567 
L 91.588489 55.308567 
L 91.770194 55.308567 
L 91.770194 50.596504 
L 91.8792 50.596504 
L 94.822599 50.596504 
L 94.822599 45.884441 
L 94.93161 45.884441 
L 94.967928 45.884441 
L 94.967928 41.172378 
L 95.076976 41.172378 
L 95.113288 41.172378 
L 95.113288 36.460315 
L 95.222297 36.460315 
L 95.549368 36.460315 
L 95.549368 31.748252 
L 95.658354 31.748252 
L 104.851953 31.748252 
L 104.851953 22.324126 
L 104.960964 22.324126 
L 122.730405 22.324126 
L 122.730405 27.036189 
L 122.83943 27.036189 
L 123.602524 27.036189 
L 123.602524 22.324126 
L 123.711529 22.324126 
L 136.248273 22.324126 
L 136.248273 27.036189 
L 136.35728 27.036189 
L 137.411093 27.036189 
L 137.411093 22.324126 
L 137.5201 22.324126 
L 231.454657 22.324126 
L 231.454657 27.036189 
L 231.56367 27.036189 
L 235.524539 27.036189 
L 235.524539 22.324126 
L 235.633554 22.324126 
L 265.176595 22.324126 
L 265.176595 27.036189 
L 265.285595 27.036189 
L 265.321957 27.036189 
L 265.321957 22.324126 
L 265.43094 22.324126 
L 265.757991 22.324126 
L 265.757991 27.036189 
L 265.867003 27.036189 
L 266.194052 27.036189 
L 266.194052 22.324126 
L 266.303082 22.324126 
L 273.316362 22.324126 
L 273.316362 27.036189 
L 273.425402 27.036189 
L 273.752416 27.036189 
L 273.752416 22.324126 
L 273.861451 22.324126 
L 284.363235 22.324126 
L 284.363235 27.036189 
L 284.472545 27.036189 
L 287.706358 27.036189 
L 287.706358 22.324126 
L 287.815366 22.324126 
L 303.005 22.324126 
L 303.005 22.324126 
" style="fill:none;stroke:#7570b3;stroke-linecap:square;stroke-width:1.5;"/>
   </g>
   <g id="line2d_21">
    <path clip-path="url(#p88bf764648)" d="M 55.905 182.534267 
L 56.058147 182.534267 
L 56.058147 177.822204 
L 56.168294 177.822204 
L 56.810271 177.822204 
L 56.810271 173.110142 
L 59.135949 173.110142 
L 59.135949 168.398079 
L 59.356407 168.398079 
L 59.356407 163.686016 
L 59.46542 163.686016 
L 59.501751 163.686016 
L 59.501751 158.973953 
L 59.610768 158.973953 
L 59.937831 158.973953 
L 59.937831 144.837764 
L 60.046833 144.837764 
L 60.083153 144.837764 
L 60.083153 140.125701 
L 60.192191 140.125701 
L 62.990227 140.125701 
L 62.990227 130.701575 
L 63.099239 130.701575 
L 63.135579 130.701575 
L 63.135579 125.989512 
L 63.244761 125.989512 
L 63.280931 125.989512 
L 63.280931 130.701575 
L 63.389965 130.701575 
L 63.571661 130.701575 
L 63.571661 125.989512 
L 63.680662 125.989512 
L 63.716985 125.989512 
L 63.716985 116.565386 
L 63.826026 116.565386 
L 64.443769 116.565386 
L 64.443769 107.14126 
L 64.552781 107.14126 
L 66.042654 107.14126 
L 66.042654 102.429197 
L 66.151671 102.429197 
L 66.188004 102.429197 
L 66.188004 83.580945 
L 66.297 83.580945 
L 66.333341 83.580945 
L 66.333341 74.156819 
L 66.442353 74.156819 
L 66.624063 74.156819 
L 66.624063 69.444756 
L 66.733079 69.444756 
L 66.769412 69.444756 
L 66.769412 64.732693 
L 66.878433 64.732693 
L 66.914769 64.732693 
L 66.914769 60.02063 
L 67.024464 60.02063 
L 67.060121 60.02063 
L 67.060121 45.884441 
L 67.169124 45.884441 
L 67.205471 45.884441 
L 67.205471 41.172378 
L 67.314499 41.172378 
L 67.350832 41.172378 
L 67.350832 36.460315 
L 67.459828 36.460315 
L 69.821817 36.460315 
L 69.821817 27.036189 
L 69.930851 27.036189 
L 69.967202 27.036189 
L 69.967202 22.324126 
L 70.076218 22.324126 
L 87.118853 22.324126 
L 87.118853 27.036189 
L 87.227866 27.036189 
L 87.264203 27.036189 
L 87.264203 22.324126 
L 87.373216 22.324126 
L 231.30928 22.324126 
L 231.30928 27.036189 
L 231.418277 27.036189 
L 231.454657 27.036189 
L 231.454657 22.324126 
L 231.56367 22.324126 
L 290.177335 22.324126 
L 290.177335 27.036189 
L 290.286349 27.036189 
L 290.322718 27.036189 
L 290.322718 22.324126 
L 290.431727 22.324126 
L 303.005 22.324126 
L 303.005 22.324126 
" style="fill:none;stroke:#e7298a;stroke-linecap:square;stroke-width:1.5;"/>
   </g>
   <g id="line2d_22">
    <path clip-path="url(#p88bf764648)" d="M 55.905 201.382519 
L 59.792485 201.382519 
L 59.792485 196.670456 
L 59.901778 196.670456 
L 62.69954 196.670456 
L 62.69954 191.958393 
L 62.808551 191.958393 
L 62.844888 191.958393 
L 62.844888 187.24633 
L 62.953893 187.24633 
L 62.990227 187.24633 
L 62.990227 177.822204 
L 63.099239 177.822204 
L 63.135579 177.822204 
L 63.135579 173.110142 
L 63.244761 173.110142 
L 63.280931 173.110142 
L 63.280931 168.398079 
L 63.389965 168.398079 
L 63.426286 168.398079 
L 63.426286 163.686016 
L 63.535285 163.686016 
L 63.716985 163.686016 
L 63.716985 158.973953 
L 63.826026 158.973953 
L 66.188004 158.973953 
L 66.188004 149.549827 
L 66.297 149.549827 
L 66.333341 149.549827 
L 66.333341 144.837764 
L 66.442353 144.837764 
L 66.914769 144.837764 
L 66.914769 140.125701 
L 67.024464 140.125701 
L 67.060121 140.125701 
L 67.060121 130.701575 
L 67.169124 130.701575 
L 80.287283 130.701575 
L 80.287283 125.989512 
L 80.39629 125.989512 
L 80.432622 125.989512 
L 80.432622 121.277449 
L 80.541653 121.277449 
L 80.577984 121.277449 
L 80.577984 116.565386 
L 80.686991 116.565386 
L 80.723322 116.565386 
L 80.723322 111.853323 
L 80.83232 111.853323 
L 80.86869 111.853323 
L 80.86869 102.429197 
L 80.977677 102.429197 
L 81.014045 102.429197 
L 81.014045 97.717134 
L 81.123044 97.717134 
L 83.630384 97.717134 
L 83.666725 83.580945 
L 83.739396 83.580945 
L 83.921098 83.580945 
L 83.921098 74.156819 
L 84.030105 74.156819 
L 84.357161 74.156819 
L 84.357161 69.444756 
L 84.466173 69.444756 
L 84.502516 69.444756 
L 84.502516 60.02063 
L 84.611529 60.02063 
L 84.647867 60.02063 
L 84.647867 36.460315 
L 84.75688 36.460315 
L 84.793199 36.460315 
L 84.793199 22.324126 
L 84.902236 22.324126 
L 86.973496 22.324126 
L 86.973496 27.036189 
L 87.082511 27.036189 
L 87.264203 27.036189 
L 87.264203 22.324126 
L 87.373216 22.324126 
L 122.439688 22.324126 
L 122.439688 27.036189 
L 122.548733 27.036189 
L 122.585072 27.036189 
L 122.585072 22.324126 
L 122.694065 22.324126 
L 128.980623 22.324126 
L 128.980623 27.036189 
L 129.089619 27.036189 
L 129.271289 27.036189 
L 129.271289 22.324126 
L 129.38035 22.324126 
L 129.562006 22.324126 
L 129.562006 27.036189 
L 129.671024 27.036189 
L 130.14345 27.036189 
L 130.14345 22.324126 
L 130.252465 22.324126 
L 303.005 22.324126 
L 303.005 22.324126 
" style="fill:none;stroke:#66a61e;stroke-linecap:square;stroke-width:1.5;"/>
   </g>
   <g id="line2d_23">
    <path clip-path="url(#p88bf764648)" d="M 55.905 191.958393 
L 62.844888 191.958393 
L 62.844888 187.24633 
L 62.953893 187.24633 
L 63.571661 187.24633 
L 63.571661 182.534267 
L 63.680662 182.534267 
L 63.862358 182.534267 
L 63.862358 177.822204 
L 63.971363 177.822204 
L 66.624063 177.822204 
L 66.624063 173.110142 
L 66.733079 173.110142 
L 66.914769 173.110142 
L 66.914769 168.398079 
L 67.024464 168.398079 
L 69.821817 168.398079 
L 69.821817 163.686016 
L 69.930851 163.686016 
L 80.141909 163.686016 
L 80.141909 154.26189 
L 80.250924 154.26189 
L 80.287283 154.26189 
L 80.287283 144.837764 
L 80.39629 144.837764 
L 80.723322 144.837764 
L 80.723322 140.125701 
L 80.83232 140.125701 
L 81.304748 140.125701 
L 81.304748 135.413638 
L 81.413744 135.413638 
L 83.921098 135.413638 
L 83.921098 130.701575 
L 84.030105 130.701575 
L 84.211779 130.701575 
L 84.211779 121.277449 
L 84.320828 121.277449 
L 84.502516 121.277449 
L 84.502516 116.565386 
L 84.611529 116.565386 
L 85.374637 116.565386 
L 85.374637 111.853323 
L 85.483634 111.853323 
L 86.973496 111.853323 
L 86.973496 107.14126 
L 87.082511 107.14126 
L 87.264203 107.14126 
L 87.264203 102.429197 
L 87.373216 102.429197 
L 87.409555 102.429197 
L 87.409555 93.005071 
L 87.518577 93.005071 
L 87.700284 93.005071 
L 87.700284 88.293008 
L 87.80931 88.293008 
L 87.845623 88.293008 
L 87.881976 74.156819 
L 87.954656 74.156819 
L 87.990995 74.156819 
L 87.990995 64.732693 
L 88.09998 64.732693 
L 88.572385 64.732693 
L 88.572385 69.444756 
L 88.681434 69.444756 
L 90.752684 69.444756 
L 90.752684 60.02063 
L 90.861729 60.02063 
L 90.898073 60.02063 
L 90.898073 55.308567 
L 91.007051 55.308567 
L 91.188759 55.308567 
L 91.188759 50.596504 
L 91.297783 50.596504 
L 91.33413 50.596504 
L 91.33413 41.172378 
L 91.443137 41.172378 
L 91.479483 41.172378 
L 91.479483 36.460315 
L 91.588489 36.460315 
L 91.770194 36.460315 
L 91.770194 31.748252 
L 91.8792 31.748252 
L 211.105184 31.748252 
L 211.105184 36.460315 
L 211.214208 36.460315 
L 214.448291 36.460315 
L 214.448291 31.748252 
L 214.557315 31.748252 
L 303.005 31.748252 
L 303.005 31.748252 
" style="fill:none;stroke:#e6ab02;stroke-linecap:square;stroke-width:1.5;"/>
   </g>
   <g id="line2d_24">
    <path clip-path="url(#p88bf764648)" d="M 55.905 196.670456 
L 59.792485 196.670456 
L 59.792485 191.958393 
L 59.901778 191.958393 
L 62.69954 191.958393 
L 62.69954 187.24633 
L 62.808551 187.24633 
L 62.844888 187.24633 
L 62.844888 182.534267 
L 62.953893 182.534267 
L 63.135579 182.534267 
L 63.135579 177.822204 
L 63.244761 177.822204 
L 63.280931 177.822204 
L 63.280931 173.110142 
L 63.389965 173.110142 
L 63.426286 173.110142 
L 63.426286 163.686016 
L 63.535285 163.686016 
L 63.571661 163.686016 
L 63.571661 158.973953 
L 63.680662 158.973953 
L 63.716985 158.973953 
L 63.716985 154.26189 
L 63.826026 154.26189 
L 66.042654 154.26189 
L 66.042654 149.549827 
L 66.151671 149.549827 
L 66.188004 149.549827 
L 66.188004 140.125701 
L 66.297 140.125701 
L 66.478687 140.125701 
L 66.478687 135.413638 
L 66.58772 135.413638 
L 66.624063 135.413638 
L 66.624063 125.989512 
L 66.733079 125.989512 
L 66.914769 125.989512 
L 66.914769 121.277449 
L 67.024464 121.277449 
L 67.205471 121.277449 
L 67.205471 116.565386 
L 67.314499 116.565386 
L 67.350832 116.565386 
L 67.350832 111.853323 
L 67.459828 111.853323 
L 69.967202 111.853323 
L 69.967202 107.14126 
L 70.076218 107.14126 
L 70.548605 107.14126 
L 70.548605 102.429197 
L 70.657625 102.429197 
L 74.327766 102.429197 
L 74.327766 97.717134 
L 74.43679 97.717134 
L 80.141909 97.717134 
L 80.141909 93.005071 
L 80.250924 93.005071 
L 80.577984 93.005071 
L 80.577984 78.868882 
L 80.686991 78.868882 
L 80.723322 78.868882 
L 80.723322 69.444756 
L 80.83232 69.444756 
L 80.86869 69.444756 
L 80.86869 60.02063 
L 80.977677 60.02063 
L 81.304748 60.02063 
L 81.304748 55.308567 
L 81.413744 55.308567 
L 83.339684 55.308567 
L 83.339684 50.596504 
L 83.448709 50.596504 
L 83.775735 50.596504 
L 83.775735 45.884441 
L 83.884766 45.884441 
L 83.921098 45.884441 
L 83.921098 41.172378 
L 84.030105 41.172378 
L 84.066442 41.172378 
L 84.066442 36.460315 
L 84.175446 36.460315 
L 84.502516 36.460315 
L 84.502516 31.748252 
L 84.611529 31.748252 
L 303.005 31.748252 
L 303.005 31.748252 
" style="fill:none;stroke:#a6761d;stroke-linecap:square;stroke-width:1.5;"/>
   </g>
   <g id="line2d_25">
    <path clip-path="url(#p88bf764648)" d="M 55.905 196.670456 
L 59.135949 196.670456 
L 59.135949 191.958393 
L 63.426286 191.958393 
L 63.426286 187.24633 
L 63.535285 187.24633 
L 66.333341 187.24633 
L 66.333341 182.534267 
L 66.442353 182.534267 
L 66.624063 182.534267 
L 66.624063 177.822204 
L 66.733079 177.822204 
L 67.060121 177.822204 
L 67.060121 173.110142 
L 67.169124 173.110142 
L 67.205471 173.110142 
L 67.205471 168.398079 
L 67.314499 168.398079 
L 68.077596 168.398079 
L 68.077596 163.686016 
L 68.186586 163.686016 
L 80.577984 163.686016 
L 80.577984 154.26189 
L 80.686991 154.26189 
L 83.921098 154.26189 
L 83.921098 149.549827 
L 84.030105 149.549827 
L 84.647867 149.549827 
L 84.647867 144.837764 
L 84.75688 144.837764 
L 85.083939 144.837764 
L 85.083939 140.125701 
L 85.19294 140.125701 
L 87.264203 140.125701 
L 87.264203 135.413638 
L 87.373216 135.413638 
L 87.409555 135.413638 
L 87.409555 125.989512 
L 87.518577 125.989512 
L 87.845623 125.989512 
L 87.845623 116.565386 
L 87.954656 116.565386 
L 91.043401 116.565386 
L 91.043401 111.853323 
L 91.152416 111.853323 
L 91.479483 111.853323 
L 91.479483 107.14126 
L 91.588489 107.14126 
L 91.915513 107.14126 
L 91.915513 102.429197 
L 92.024552 102.429197 
L 95.549368 102.429197 
L 95.549368 97.717134 
L 95.658354 97.717134 
L 105.578735 97.717134 
L 105.578735 93.005071 
L 105.687748 93.005071 
L 108.92185 93.005071 
L 108.92185 88.293008 
L 109.030866 88.293008 
L 112.701059 88.293008 
L 112.701059 93.005071 
L 112.810052 93.005071 
L 129.416665 93.005071 
L 129.416665 88.293008 
L 129.525703 88.293008 
L 129.562006 88.293008 
L 129.562006 93.005071 
L 129.671024 93.005071 
L 133.195852 93.005071 
L 133.195852 88.293008 
L 133.304857 88.293008 
L 158.778005 88.293008 
L 158.778005 83.580945 
L 158.887034 83.580945 
L 182.034531 83.580945 
L 182.034531 78.868882 
L 182.143549 78.868882 
L 189.447561 78.868882 
L 189.447561 83.580945 
L 189.556554 83.580945 
L 235.524539 83.580945 
L 235.524539 88.293008 
L 235.633554 88.293008 
L 237.268788 88.293008 
L 237.268788 93.005071 
L 237.377788 93.005071 
L 249.47846 93.005071 
L 249.47846 88.293008 
L 249.587453 88.293008 
L 251.513403 88.293008 
L 251.513403 83.580945 
L 251.622419 83.580945 
L 254.420439 83.580945 
L 254.420439 78.868882 
L 254.529466 78.868882 
L 258.490325 78.868882 
L 258.490325 83.580945 
L 258.599373 83.580945 
L 273.316362 83.580945 
L 273.316362 78.868882 
L 273.425402 78.868882 
L 303.005 78.868882 
L 303.005 78.868882 
" style="fill:none;stroke:#666666;stroke-linecap:square;stroke-width:1.5;"/>
   </g>
   <g id="line2d_26">
    <path clip-path="url(#p88bf764648)" d="M 55.905 201.382519 
L 62.990227 201.382519 
L 62.990227 196.670456 
L 63.099239 196.670456 
L 63.426286 196.670456 
L 63.426286 191.958393 
L 63.535285 191.958393 
L 66.624063 191.958393 
L 66.624063 187.24633 
L 66.733079 187.24633 
L 66.914769 187.24633 
L 66.914769 191.958393 
L 67.024464 191.958393 
L 67.060121 191.958393 
L 67.060121 182.534267 
L 67.169124 182.534267 
L 80.287283 182.534267 
L 80.287283 177.822204 
L 80.39629 177.822204 
L 80.577984 177.822204 
L 80.577984 173.110142 
L 80.686991 173.110142 
L 80.86869 173.110142 
L 80.86869 168.398079 
L 80.977677 168.398079 
L 81.014045 168.398079 
L 81.014045 163.686016 
L 81.123044 163.686016 
L 81.740788 163.686016 
L 81.740788 158.973953 
L 81.849824 158.973953 
L 84.066442 158.973953 
L 84.066442 154.26189 
L 84.175446 154.26189 
L 84.502516 154.26189 
L 84.502516 149.549827 
L 84.611529 149.549827 
L 84.647867 149.549827 
L 84.647867 144.837764 
L 84.75688 144.837764 
L 87.118853 144.837764 
L 87.118853 135.413638 
L 87.227866 135.413638 
L 87.264203 135.413638 
L 87.264203 130.701575 
L 87.373216 130.701575 
L 87.409555 130.701575 
L 87.445896 116.565386 
L 87.518577 116.565386 
L 87.990995 116.565386 
L 87.990995 111.853323 
L 88.09998 111.853323 
L 88.136328 111.853323 
L 88.136328 107.14126 
L 88.245363 107.14126 
L 88.2817 107.14126 
L 88.2817 111.853323 
L 88.391296 111.853323 
L 88.427041 111.853323 
L 88.427041 107.14126 
L 88.536044 107.14126 
L 88.572385 107.14126 
L 88.572385 102.429197 
L 88.681434 102.429197 
L 90.316648 102.429197 
L 90.316648 107.14126 
L 90.425661 107.14126 
L 90.752684 107.14126 
L 90.752684 93.005071 
L 90.861729 93.005071 
L 91.043401 93.005071 
L 91.043401 88.293008 
L 91.152416 88.293008 
L 91.33413 88.293008 
L 91.33413 69.444756 
L 91.443137 69.444756 
L 91.479483 69.444756 
L 91.479483 64.732693 
L 91.588489 64.732693 
L 94.677227 64.732693 
L 94.677227 60.02063 
L 94.786249 60.02063 
L 106.450868 60.02063 
L 106.450868 55.308567 
L 106.559863 55.308567 
L 108.776514 55.308567 
L 108.776514 50.596504 
L 108.885532 50.596504 
L 108.92185 50.596504 
L 108.92185 55.308567 
L 109.030866 55.308567 
L 109.212558 55.308567 
L 109.212558 50.596504 
L 109.321571 50.596504 
L 112.701059 50.596504 
L 112.701059 45.884441 
L 112.810052 45.884441 
L 118.660507 45.884441 
L 118.660507 50.596504 
L 118.769538 50.596504 
L 122.730405 50.596504 
L 122.730405 45.884441 
L 122.83943 45.884441 
L 128.980623 45.884441 
L 128.980623 50.596504 
L 129.089619 50.596504 
L 129.271289 50.596504 
L 129.271289 55.308567 
L 129.38035 55.308567 
L 129.707354 55.308567 
L 129.707354 60.02063 
L 129.816369 60.02063 
L 133.777252 60.02063 
L 133.777252 64.732693 
L 133.886279 64.732693 
L 140.027432 64.732693 
L 140.027432 69.444756 
L 140.136456 69.444756 
L 154.562789 69.444756 
L 154.562789 74.156819 
L 154.671807 74.156819 
L 220.553145 74.156819 
L 220.553145 69.444756 
L 220.662155 69.444756 
L 224.477697 69.444756 
L 224.477697 74.156819 
L 224.586721 74.156819 
L 261.978826 74.156819 
L 261.978826 69.444756 
L 262.087829 69.444756 
L 265.321957 69.444756 
L 265.321957 74.156819 
L 265.43094 74.156819 
L 265.467298 74.156819 
L 265.467298 78.868882 
L 265.576295 78.868882 
L 268.229013 78.868882 
L 268.229013 83.580945 
L 268.338029 83.580945 
L 303.005 83.580945 
L 303.005 83.580945 
" style="fill:none;stroke:#1b9e77;stroke-dasharray:4.5,1.5;stroke-dashoffset:0;stroke-width:1.5;"/>
   </g>
   <g id="line2d_27">
    <path clip-path="url(#p88bf764648)" d="M 55.905 210.806645 
L 60.228503 210.806645 
L 60.228503 206.094582 
L 60.337834 206.094582 
L 60.809945 206.094582 
L 60.809945 201.382519 
L 60.918935 201.382519 
L 69.967202 201.382519 
L 69.967202 196.670456 
L 70.076218 196.670456 
L 80.141909 196.670456 
L 80.141909 191.958393 
L 80.250924 191.958393 
L 81.159377 191.958393 
L 81.159377 182.534267 
L 81.26838 182.534267 
L 83.921098 182.534267 
L 83.921098 177.822204 
L 84.030105 177.822204 
L 84.066442 177.822204 
L 84.066442 173.110142 
L 84.175446 173.110142 
L 84.502516 173.110142 
L 84.502516 163.686016 
L 84.611529 163.686016 
L 84.647867 163.686016 
L 84.647867 158.973953 
L 84.75688 158.973953 
L 85.519963 158.973953 
L 85.519963 154.26189 
L 85.629012 154.26189 
L 87.264203 154.26189 
L 87.264203 158.973953 
L 87.373216 158.973953 
L 87.554923 158.973953 
L 87.554923 154.26189 
L 87.663937 154.26189 
L 87.700284 154.26189 
L 87.700284 149.549827 
L 87.80931 149.549827 
L 87.990995 149.549827 
L 87.990995 144.837764 
L 88.09998 144.837764 
L 88.136328 144.837764 
L 88.136328 149.549827 
L 88.245363 149.549827 
L 88.2817 149.549827 
L 88.2817 144.837764 
L 88.391296 144.837764 
L 90.752684 144.837764 
L 90.752684 140.125701 
L 90.861729 140.125701 
L 95.404013 140.125701 
L 95.404013 135.413638 
L 95.513028 135.413638 
L 105.142671 135.413638 
L 105.142671 130.701575 
L 105.251688 130.701575 
L 118.951221 130.701575 
L 118.951221 125.989512 
L 119.060267 125.989512 
L 136.248273 125.989512 
L 136.248273 121.277449 
L 136.35728 121.277449 
L 154.562789 121.277449 
L 154.562789 116.565386 
L 154.671807 116.565386 
L 188.575437 116.565386 
L 188.575437 111.853323 
L 202.529338 111.853323 
L 202.529338 107.14126 
L 202.638367 107.14126 
L 231.30928 107.14126 
L 231.30928 102.429197 
L 231.418277 102.429197 
L 235.379173 102.429197 
L 235.379173 97.717134 
L 235.488184 97.717134 
L 240.757233 97.717134 
L 240.757233 93.005071 
L 240.866278 93.005071 
L 262.850954 93.005071 
L 262.850954 88.293008 
L 262.959942 88.293008 
L 265.321957 88.293008 
L 265.321957 83.580945 
L 265.43094 83.580945 
L 266.194052 83.580945 
L 266.194052 88.293008 
L 266.303082 88.293008 
L 303.005 88.293008 
L 303.005 88.293008 
" style="fill:none;stroke:#d95f02;stroke-dasharray:4.5,1.5;stroke-dashoffset:0;stroke-width:1.5;"/>
   </g>
   <g id="line2d_28">
    <path clip-path="url(#p88bf764648)" d="M 55.905 206.094582 
L 62.69954 206.094582 
L 62.69954 201.382519 
L 62.808551 201.382519 
L 62.844888 201.382519 
L 62.844888 196.670456 
L 62.953893 196.670456 
L 63.426286 196.670456 
L 63.426286 187.24633 
L 63.535285 187.24633 
L 66.188004 187.24633 
L 66.188004 182.534267 
L 66.297 182.534267 
L 66.914769 182.534267 
L 66.914769 177.822204 
L 67.024464 177.822204 
L 67.060121 177.822204 
L 67.060121 173.110142 
L 67.169124 173.110142 
L 67.205471 173.110142 
L 67.205471 168.398079 
L 67.314499 168.398079 
L 80.432622 168.398079 
L 80.432622 163.686016 
L 80.541653 163.686016 
L 80.577984 163.686016 
L 80.577984 158.973953 
L 80.686991 158.973953 
L 80.723322 158.973953 
L 80.723322 149.549827 
L 80.83232 149.549827 
L 84.357161 149.549827 
L 84.357161 144.837764 
L 84.466173 144.837764 
L 84.502516 144.837764 
L 84.502516 140.125701 
L 84.611529 140.125701 
L 86.973496 140.125701 
L 86.973496 144.837764 
L 87.082511 144.837764 
L 87.409555 144.837764 
L 87.409555 135.413638 
L 87.518577 135.413638 
L 87.554923 135.413638 
L 87.554923 140.125701 
L 87.663937 140.125701 
L 87.700284 140.125701 
L 87.700284 135.413638 
L 87.80931 135.413638 
L 87.990995 135.413638 
L 87.990995 125.989512 
L 88.09998 125.989512 
L 88.136328 125.989512 
L 88.136328 121.277449 
L 88.245363 121.277449 
L 94.967928 121.277449 
L 94.967928 116.565386 
L 95.076976 116.565386 
L 95.404013 116.565386 
L 95.404013 111.853323 
L 95.513028 111.853323 
L 102.380948 111.853323 
L 102.380948 107.14126 
L 102.489989 107.14126 
L 115.608094 107.14126 
L 115.608094 102.429197 
L 115.717121 102.429197 
L 116.189507 102.429197 
L 116.189507 97.717134 
L 116.298511 97.717134 
L 119.096594 97.717134 
L 119.096594 93.005071 
L 119.20562 93.005071 
L 130.579508 93.005071 
L 130.579508 88.293008 
L 130.6885 88.293008 
L 217.210001 88.293008 
L 217.210001 93.005071 
L 217.319044 93.005071 
L 220.553145 93.005071 
L 220.553145 97.717134 
L 220.662155 97.717134 
L 251.368041 97.717134 
L 251.368041 93.005071 
L 251.477034 93.005071 
L 251.949435 93.005071 
L 251.949435 88.293008 
L 252.058451 88.293008 
L 303.005 88.293008 
L 303.005 88.293008 
" style="fill:none;stroke:#7570b3;stroke-dasharray:4.5,1.5;stroke-dashoffset:0;stroke-width:1.5;"/>
   </g>
   <g id="line2d_29">
    <path clip-path="url(#p88bf764648)" d="M 121.167858 210.806645 
L 122.439688 210.806645 
L 122.439688 206.094582 
L 122.548733 206.094582 
L 126.800316 206.094582 
L 126.800316 201.382519 
L 126.909312 201.382519 
L 128.980623 201.382519 
L 128.980623 182.534267 
L 129.089619 182.534267 
L 129.271289 182.534267 
L 129.271289 173.110142 
L 129.38035 173.110142 
L 129.562006 173.110142 
L 129.562006 158.973953 
L 129.671024 158.973953 
L 129.852708 158.973953 
L 129.852708 154.26189 
L 129.961754 154.26189 
L 132.759803 154.26189 
L 132.759803 149.549827 
L 132.868814 149.549827 
L 133.486561 149.549827 
L 133.486561 144.837764 
L 133.595546 144.837764 
L 133.777252 144.837764 
L 133.777252 140.125701 
L 133.886279 140.125701 
L 134.06796 140.125701 
L 134.06796 135.413638 
L 134.176993 135.413638 
L 134.213318 135.413638 
L 134.213318 130.701575 
L 134.322331 130.701575 
L 136.248273 130.701575 
L 136.248273 125.989512 
L 136.35728 125.989512 
L 137.556428 125.989512 
L 137.556428 121.277449 
L 137.665456 121.277449 
L 140.027432 121.277449 
L 140.027432 116.565386 
L 140.136456 116.565386 
L 184.505528 116.565386 
L 184.505528 121.277449 
L 184.614559 121.277449 
L 185.232286 121.277449 
L 185.232286 116.565386 
L 185.341305 116.565386 
L 209.651659 116.565386 
L 209.651659 111.853323 
L 209.760672 111.853323 
L 209.942337 111.853323 
L 209.942337 107.14126 
L 210.051355 107.14126 
L 211.105184 107.14126 
L 211.105184 102.429197 
L 211.214208 102.429197 
L 230.873214 102.429197 
L 230.873214 97.717134 
L 230.982249 97.717134 
L 303.005 97.717134 
L 303.005 97.717134 
" style="fill:none;stroke:#e7298a;stroke-dasharray:4.5,1.5;stroke-dashoffset:0;stroke-width:1.5;"/>
   </g>
   <g id="line2d_30">
    <path clip-path="url(#p88bf764648)" d="M 55.905 206.094582 
L 62.990227 206.094582 
L 62.990227 201.382519 
L 63.099239 201.382519 
L 66.914769 201.382519 
L 66.914769 191.958393 
L 67.024464 191.958393 
L 80.141909 191.958393 
L 80.141909 187.24633 
L 80.250924 187.24633 
L 80.432622 187.24633 
L 80.432622 182.534267 
L 80.541653 182.534267 
L 80.86869 182.534267 
L 80.86869 177.822204 
L 80.977677 177.822204 
L 83.630384 177.822204 
L 83.630384 173.110142 
L 83.739396 173.110142 
L 83.775735 173.110142 
L 83.775735 163.686016 
L 83.884766 163.686016 
L 83.921098 163.686016 
L 83.921098 158.973953 
L 84.030105 158.973953 
L 84.211779 158.973953 
L 84.211779 154.26189 
L 84.320828 154.26189 
L 84.357161 154.26189 
L 84.357161 144.837764 
L 84.466173 144.837764 
L 84.502516 144.837764 
L 84.502516 135.413638 
L 84.611529 135.413638 
L 85.083939 135.413638 
L 85.083939 130.701575 
L 85.19294 130.701575 
L 85.374637 130.701575 
L 85.374637 125.989512 
L 85.483634 125.989512 
L 85.519963 125.989512 
L 85.519963 130.701575 
L 85.629012 130.701575 
L 86.828158 130.701575 
L 86.828158 135.413638 
L 86.937194 135.413638 
L 86.973496 135.413638 
L 86.973496 140.125701 
L 87.082511 140.125701 
L 87.118853 140.125701 
L 87.118853 135.413638 
L 87.227866 135.413638 
L 87.264203 135.413638 
L 87.264203 140.125701 
L 87.373216 140.125701 
L 87.409555 140.125701 
L 87.409555 135.413638 
L 87.518577 135.413638 
L 87.554923 135.413638 
L 87.554923 130.701575 
L 87.663937 130.701575 
L 87.845623 130.701575 
L 87.845623 135.413638 
L 87.954656 135.413638 
L 91.188759 135.413638 
L 91.188759 130.701575 
L 91.297783 130.701575 
L 91.479483 130.701575 
L 91.479483 125.989512 
L 91.588489 125.989512 
L 94.822599 125.989512 
L 94.822599 121.277449 
L 94.93161 121.277449 
L 95.84006 121.277449 
L 95.84006 116.565386 
L 95.949075 116.565386 
L 105.142671 116.565386 
L 105.142671 111.853323 
L 105.251688 111.853323 
L 105.288022 111.853323 
L 105.288022 107.14126 
L 105.397024 107.14126 
L 105.869421 107.14126 
L 105.869421 102.429197 
L 105.978449 102.429197 
L 112.701059 102.429197 
L 112.701059 97.717134 
L 112.810052 97.717134 
L 113.137081 97.717134 
L 113.137081 93.005071 
L 113.246117 93.005071 
L 120.404767 93.005071 
L 120.404767 88.293008 
L 120.513762 88.293008 
L 123.602524 88.293008 
L 123.602524 93.005071 
L 123.711529 93.005071 
L 129.271289 93.005071 
L 129.271289 97.717134 
L 129.38035 97.717134 
L 154.272076 97.717134 
L 154.272076 93.005071 
L 154.381068 93.005071 
L 178.836788 93.005071 
L 178.836788 88.293008 
L 178.945769 88.293008 
L 181.59849 88.293008 
L 181.59849 83.580945 
L 181.707499 83.580945 
L 191.627848 83.580945 
L 191.627848 78.868882 
L 191.737478 78.868882 
L 212.849448 78.868882 
L 212.849448 83.580945 
L 212.958454 83.580945 
L 212.994765 83.580945 
L 212.994765 78.868882 
L 213.103804 78.868882 
L 242.210778 78.868882 
L 242.210778 83.580945 
L 242.319792 83.580945 
L 248.897031 83.580945 
L 248.897031 88.293008 
L 249.006051 88.293008 
L 259.79865 88.293008 
L 259.79865 93.005071 
L 259.907536 93.005071 
L 280.729397 93.005071 
L 280.729397 97.717134 
L 280.839161 97.717134 
L 303.005 97.717134 
L 303.005 97.717134 
" style="fill:none;stroke:#66a61e;stroke-dasharray:4.5,1.5;stroke-dashoffset:0;stroke-width:1.5;"/>
   </g>
   <g id="line2d_31">
    <path clip-path="url(#p88bf764648)" d="M 55.905 210.806645 
L 59.647244 210.806645 
L 59.647244 206.094582 
L 59.756117 206.094582 
L 59.937831 206.094582 
L 59.937831 201.382519 
L 60.046833 201.382519 
L 63.280931 201.382519 
L 63.280931 196.670456 
L 63.389965 196.670456 
L 67.060121 196.670456 
L 67.060121 191.958393 
L 67.169124 191.958393 
L 69.385779 191.958393 
L 69.385779 187.24633 
L 69.494793 187.24633 
L 70.11253 187.24633 
L 70.11253 182.534267 
L 70.221573 182.534267 
L 70.403249 182.534267 
L 70.403249 177.822204 
L 70.512267 177.822204 
L 80.141909 177.822204 
L 80.141909 168.398079 
L 80.250924 168.398079 
L 80.432622 168.398079 
L 80.432622 163.686016 
L 80.541653 163.686016 
L 80.577984 163.686016 
L 80.577984 158.973953 
L 80.686991 158.973953 
L 80.723322 158.973953 
L 80.723322 154.26189 
L 80.83232 154.26189 
L 80.86869 154.26189 
L 80.86869 144.837764 
L 80.977677 144.837764 
L 81.014045 144.837764 
L 81.014045 140.125701 
L 81.123044 140.125701 
L 81.304748 140.125701 
L 81.304748 135.413638 
L 81.413744 135.413638 
L 81.595468 135.413638 
L 81.595468 130.701575 
L 81.704457 130.701575 
L 82.031488 130.701575 
L 82.031488 125.989512 
L 82.140523 125.989512 
L 83.630384 125.989512 
L 83.630384 121.277449 
L 83.739396 121.277449 
L 83.775735 121.277449 
L 83.775735 116.565386 
L 83.884766 116.565386 
L 83.921098 116.565386 
L 83.921098 102.429197 
L 84.030105 102.429197 
L 84.066442 102.429197 
L 84.066442 97.717134 
L 84.175446 97.717134 
L 84.211779 97.717134 
L 84.211779 93.005071 
L 84.320828 93.005071 
L 85.519963 93.005071 
L 85.519963 97.717134 
L 85.629012 97.717134 
L 87.409555 97.717134 
L 87.409555 93.005071 
L 87.518577 93.005071 
L 87.554923 93.005071 
L 87.554923 97.717134 
L 87.663937 97.717134 
L 87.700284 97.717134 
L 87.700284 93.005071 
L 87.80931 93.005071 
L 91.770194 93.005071 
L 91.770194 97.717134 
L 91.8792 97.717134 
L 91.915513 97.717134 
L 91.915513 93.005071 
L 92.024552 93.005071 
L 231.018597 93.005071 
L 231.018597 97.717134 
L 231.12759 97.717134 
L 242.210778 97.717134 
L 242.210778 93.005071 
L 242.319792 93.005071 
L 280.14796 93.005071 
L 280.14796 97.717134 
L 280.256975 97.717134 
L 284.363235 97.717134 
L 284.363235 93.005071 
L 284.472545 93.005071 
L 290.322718 93.005071 
L 290.322718 97.717134 
L 290.431727 97.717134 
L 303.005 97.717134 
L 303.005 97.717134 
" style="fill:none;stroke:#e6ab02;stroke-dasharray:4.5,1.5;stroke-dashoffset:0;stroke-width:1.5;"/>
   </g>
   <g id="line2d_32">
    <path clip-path="url(#p88bf764648)" d="M 55.905 206.094582 
L 63.135579 206.094582 
L 63.135579 196.670456 
L 63.244761 196.670456 
L 66.333341 196.670456 
L 66.333341 187.24633 
L 66.442353 187.24633 
L 66.478687 187.24633 
L 66.478687 182.534267 
L 66.58772 182.534267 
L 67.060121 182.534267 
L 67.060121 177.822204 
L 67.169124 177.822204 
L 67.205471 177.822204 
L 67.205471 173.110142 
L 67.314499 173.110142 
L 80.723322 173.110142 
L 80.723322 168.398079 
L 80.83232 168.398079 
L 80.86869 168.398079 
L 80.86869 163.686016 
L 80.977677 163.686016 
L 81.014045 163.686016 
L 81.014045 158.973953 
L 81.123044 158.973953 
L 81.450073 158.973953 
L 81.450073 154.26189 
L 81.559112 154.26189 
L 81.595468 154.26189 
L 81.595468 158.973953 
L 81.704457 158.973953 
L 83.630384 158.973953 
L 83.630384 140.125701 
L 83.739396 140.125701 
L 83.921098 140.125701 
L 83.921098 130.701575 
L 84.030105 130.701575 
L 84.066442 130.701575 
L 84.066442 125.989512 
L 84.175446 125.989512 
L 84.211779 125.989512 
L 84.211779 116.565386 
L 84.320828 116.565386 
L 303.005 116.565386 
L 303.005 116.565386 
" style="fill:none;stroke:#a6761d;stroke-dasharray:4.5,1.5;stroke-dashoffset:0;stroke-width:1.5;"/>
   </g>
   <g id="line2d_33">
    <path clip-path="url(#p88bf764648)" d="M 55.905 210.806645 
L 63.426286 210.806645 
L 63.426286 206.094582 
L 63.535285 206.094582 
L 63.571661 206.094582 
L 63.571661 201.382519 
L 63.680662 201.382519 
L 66.478687 201.382519 
L 66.478687 196.670456 
L 66.58772 196.670456 
L 67.205471 196.670456 
L 67.205471 191.958393 
L 67.314499 191.958393 
L 67.496177 191.958393 
L 67.496177 187.24633 
L 67.605328 187.24633 
L 67.786899 187.24633 
L 67.786899 182.534267 
L 67.895916 182.534267 
L 69.967202 182.534267 
L 69.967202 187.24633 
L 70.076218 187.24633 
L 80.287283 187.24633 
L 80.287283 182.534267 
L 80.39629 182.534267 
L 81.159377 182.534267 
L 81.159377 173.110142 
L 81.26838 173.110142 
L 83.775735 173.110142 
L 83.775735 168.398079 
L 83.884766 168.398079 
L 84.357161 168.398079 
L 84.357161 149.549827 
L 84.466173 149.549827 
L 84.502516 149.549827 
L 84.502516 144.837764 
L 84.611529 144.837764 
L 84.647867 144.837764 
L 84.647867 140.125701 
L 84.75688 140.125701 
L 129.271289 140.125701 
L 129.271289 144.837764 
L 129.38035 144.837764 
L 129.416665 144.837764 
L 129.416665 140.125701 
L 129.525703 140.125701 
L 217.210001 140.125701 
L 217.210001 135.413638 
L 217.319044 135.413638 
L 224.477697 135.413638 
L 224.477697 130.701575 
L 224.586721 130.701575 
L 235.233822 130.701575 
L 235.233822 125.989512 
L 235.34284 125.989512 
L 237.268788 125.989512 
L 237.268788 121.277449 
L 237.377788 121.277449 
L 237.850195 121.277449 
L 237.850195 116.565386 
L 237.959179 116.565386 
L 261.978826 116.565386 
L 261.978826 121.277449 
L 262.087829 121.277449 
L 265.467298 121.277449 
L 265.467298 116.565386 
L 265.576295 116.565386 
L 303.005 116.565386 
L 303.005 116.565386 
" style="fill:none;stroke:#666666;stroke-dasharray:4.5,1.5;stroke-dashoffset:0;stroke-width:1.5;"/>
   </g>
   <g id="line2d_34"/>
   <g id="line2d_35"/>
   <g id="line2d_36"/>
   <g id="line2d_37"/>
   <g id="line2d_38"/>
   <g id="line2d_39"/>
   <g id="line2d_40"/>
   <g id="line2d_41"/>
   <g id="line2d_42"/>
   <g id="line2d_43"/>
   <g id="line2d_44"/>
   <g id="line2d_45"/>
   <g id="line2d_46"/>
   <g id="line2d_47"/>
   <g id="line2d_48"/>
   <g id="line2d_49"/>
   <g id="line2d_50"/>
   <g id="patch_3">
    <path d="M 43.55 220.230771 
L 43.55 12.9 
" style="fill:none;stroke:#000000;stroke-linecap:square;stroke-linejoin:miter;stroke-width:0.8;"/>
   </g>
   <g id="patch_4">
    <path d="M 315.36 220.230771 
L 315.36 12.9 
" style="fill:none;stroke:#000000;stroke-linecap:square;stroke-linejoin:miter;stroke-width:0.8;"/>
   </g>
   <g id="patch_5">
    <path d="M 43.55 220.230771 
L 315.36 220.230771 
" style="fill:none;stroke:#000000;stroke-linecap:square;stroke-linejoin:miter;stroke-width:0.8;"/>
   </g>
   <g id="patch_6">
    <path d="M 43.55 12.9 
L 315.36 12.9 
" style="fill:none;stroke:#000000;stroke-linecap:square;stroke-linejoin:miter;stroke-width:0.8;"/>
   </g>
  </g>
  <g id="legend_1">
   <g id="patch_7">
    <path d="M 331.8625 262.528125 
L 420 262.528125 
Q 422 262.528125 422 260.528125 
L 422 12 
Q 422 10 420 10 
L 331.8625 10 
Q 329.8625 10 329.8625 12 
L 329.8625 260.528125 
Q 329.8625 262.528125 331.8625 262.528125 
z
" style="fill:#ffffff;opacity:0.8;stroke:#cccccc;stroke-linejoin:miter;"/>
   </g>
   <g id="text_20">
    <!-- 495/610 Reg. -->
    <defs>
     <path d="M 25.390625 72.90625 
L 33.6875 72.90625 
L 8.296875 -9.28125 
L 0 -9.28125 
z
" id="DejaVuSans-47"/>
     <path d="M 33.015625 40.375 
Q 26.375 40.375 22.484375 35.828125 
Q 18.609375 31.296875 18.609375 23.390625 
Q 18.609375 15.53125 22.484375 10.953125 
Q 26.375 6.390625 33.015625 6.390625 
Q 39.65625 6.390625 43.53125 10.953125 
Q 47.40625 15.53125 47.40625 23.390625 
Q 47.40625 31.296875 43.53125 35.828125 
Q 39.65625 40.375 33.015625 40.375 
z
M 52.59375 71.296875 
L 52.59375 62.3125 
Q 48.875 64.0625 45.09375 64.984375 
Q 41.3125 65.921875 37.59375 65.921875 
Q 27.828125 65.921875 22.671875 59.328125 
Q 17.53125 52.734375 16.796875 39.40625 
Q 19.671875 43.65625 24.015625 45.921875 
Q 28.375 48.1875 33.59375 48.1875 
Q 44.578125 48.1875 50.953125 41.515625 
Q 57.328125 34.859375 57.328125 23.390625 
Q 57.328125 12.15625 50.6875 5.359375 
Q 44.046875 -1.421875 33.015625 -1.421875 
Q 20.359375 -1.421875 13.671875 8.265625 
Q 6.984375 17.96875 6.984375 36.375 
Q 6.984375 53.65625 15.1875 63.9375 
Q 23.390625 74.21875 37.203125 74.21875 
Q 40.921875 74.21875 44.703125 73.484375 
Q 48.484375 72.75 52.59375 71.296875 
z
" id="DejaVuSans-54"/>
     <path d="M 10.6875 12.40625 
L 21 12.40625 
L 21 0 
L 10.6875 0 
z
" id="DejaVuSans-46"/>
    </defs>
    <g transform="translate(342.259375 21.598437)scale(0.1 -0.1)">
     <use xlink:href="#DejaVuSans-52"/>
     <use x="63.623047" xlink:href="#DejaVuSans-57"/>
     <use x="127.246094" xlink:href="#DejaVuSans-53"/>
     <use x="190.869141" xlink:href="#DejaVuSans-47"/>
     <use x="224.560547" xlink:href="#DejaVuSans-54"/>
     <use x="288.183594" xlink:href="#DejaVuSans-49"/>
     <use x="351.806641" xlink:href="#DejaVuSans-48"/>
     <use x="415.429688" xlink:href="#DejaVuSans-32"/>
     <use x="447.216797" xlink:href="#DejaVuSans-82"/>
     <use x="516.636719" xlink:href="#DejaVuSans-101"/>
     <use x="578.160156" xlink:href="#DejaVuSans-103"/>
     <use x="641.636719" xlink:href="#DejaVuSans-46"/>
    </g>
   </g>
   <g id="line2d_51">
    <path d="M 333.8625 32.776562 
L 353.8625 32.776562 
" style="fill:none;stroke:#1b9e77;stroke-linecap:square;stroke-width:1.5;"/>
   </g>
   <g id="line2d_52"/>
   <g id="text_21">
    <!-- SA (40) -->
    <defs>
     <path d="M 34.1875 63.1875 
L 20.796875 26.90625 
L 47.609375 26.90625 
z
M 28.609375 72.90625 
L 39.796875 72.90625 
L 67.578125 0 
L 57.328125 0 
L 50.6875 18.703125 
L 17.828125 18.703125 
L 11.1875 0 
L 0.78125 0 
z
" id="DejaVuSans-65"/>
     <path d="M 31 75.875 
Q 24.46875 64.65625 21.28125 53.65625 
Q 18.109375 42.671875 18.109375 31.390625 
Q 18.109375 20.125 21.3125 9.0625 
Q 24.515625 -2 31 -13.1875 
L 23.1875 -13.1875 
Q 15.875 -1.703125 12.234375 9.375 
Q 8.59375 20.453125 8.59375 31.390625 
Q 8.59375 42.28125 12.203125 53.3125 
Q 15.828125 64.359375 23.1875 75.875 
z
" id="DejaVuSans-40"/>
     <path d="M 8.015625 75.875 
L 15.828125 75.875 
Q 23.140625 64.359375 26.78125 53.3125 
Q 30.421875 42.28125 30.421875 31.390625 
Q 30.421875 20.453125 26.78125 9.375 
Q 23.140625 -1.703125 15.828125 -13.1875 
L 8.015625 -13.1875 
Q 14.5 -2 17.703125 9.0625 
Q 20.90625 20.125 20.90625 31.390625 
Q 20.90625 42.671875 17.703125 53.65625 
Q 14.5 64.65625 8.015625 75.875 
z
" id="DejaVuSans-41"/>
    </defs>
    <g transform="translate(361.8625 36.276562)scale(0.1 -0.1)">
     <use xlink:href="#DejaVuSans-83"/>
     <use x="63.492188" xlink:href="#DejaVuSans-65"/>
     <use x="131.900391" xlink:href="#DejaVuSans-32"/>
     <use x="163.6875" xlink:href="#DejaVuSans-40"/>
     <use x="202.701172" xlink:href="#DejaVuSans-52"/>
     <use x="266.324219" xlink:href="#DejaVuSans-48"/>
     <use x="329.947266" xlink:href="#DejaVuSans-41"/>
    </g>
   </g>
   <g id="line2d_53">
    <path d="M 333.8625 47.454688 
L 353.8625 47.454688 
" style="fill:none;stroke:#d95f02;stroke-linecap:square;stroke-width:1.5;"/>
   </g>
   <g id="line2d_54"/>
   <g id="text_22">
    <!-- AS (40) -->
    <g transform="translate(361.8625 50.954688)scale(0.1 -0.1)">
     <use xlink:href="#DejaVuSans-65"/>
     <use x="68.408203" xlink:href="#DejaVuSans-83"/>
     <use x="131.884766" xlink:href="#DejaVuSans-32"/>
     <use x="163.671875" xlink:href="#DejaVuSans-40"/>
     <use x="202.685547" xlink:href="#DejaVuSans-52"/>
     <use x="266.308594" xlink:href="#DejaVuSans-48"/>
     <use x="329.931641" xlink:href="#DejaVuSans-41"/>
    </g>
   </g>
   <g id="line2d_55">
    <path d="M 333.8625 62.132812 
L 353.8625 62.132812 
" style="fill:none;stroke:#7570b3;stroke-linecap:square;stroke-width:1.5;"/>
   </g>
   <g id="line2d_56"/>
   <g id="text_23">
    <!-- AUS (40) -->
    <defs>
     <path d="M 8.6875 72.90625 
L 18.609375 72.90625 
L 18.609375 28.609375 
Q 18.609375 16.890625 22.84375 11.734375 
Q 27.09375 6.59375 36.625 6.59375 
Q 46.09375 6.59375 50.34375 11.734375 
Q 54.59375 16.890625 54.59375 28.609375 
L 54.59375 72.90625 
L 64.5 72.90625 
L 64.5 27.390625 
Q 64.5 13.140625 57.4375 5.859375 
Q 50.390625 -1.421875 36.625 -1.421875 
Q 22.796875 -1.421875 15.734375 5.859375 
Q 8.6875 13.140625 8.6875 27.390625 
z
" id="DejaVuSans-85"/>
    </defs>
    <g transform="translate(361.8625 65.632812)scale(0.1 -0.1)">
     <use xlink:href="#DejaVuSans-65"/>
     <use x="68.408203" xlink:href="#DejaVuSans-85"/>
     <use x="141.601562" xlink:href="#DejaVuSans-83"/>
     <use x="205.078125" xlink:href="#DejaVuSans-32"/>
     <use x="236.865234" xlink:href="#DejaVuSans-40"/>
     <use x="275.878906" xlink:href="#DejaVuSans-52"/>
     <use x="339.501953" xlink:href="#DejaVuSans-48"/>
     <use x="403.125" xlink:href="#DejaVuSans-41"/>
    </g>
   </g>
   <g id="line2d_57">
    <path d="M 333.8625 76.810937 
L 353.8625 76.810937 
" style="fill:none;stroke:#e7298a;stroke-linecap:square;stroke-width:1.5;"/>
   </g>
   <g id="line2d_58"/>
   <g id="text_24">
    <!-- COML (40) -->
    <defs>
     <path d="M 64.40625 67.28125 
L 64.40625 56.890625 
Q 59.421875 61.53125 53.78125 63.8125 
Q 48.140625 66.109375 41.796875 66.109375 
Q 29.296875 66.109375 22.65625 58.46875 
Q 16.015625 50.828125 16.015625 36.375 
Q 16.015625 21.96875 22.65625 14.328125 
Q 29.296875 6.6875 41.796875 6.6875 
Q 48.140625 6.6875 53.78125 8.984375 
Q 59.421875 11.28125 64.40625 15.921875 
L 64.40625 5.609375 
Q 59.234375 2.09375 53.4375 0.328125 
Q 47.65625 -1.421875 41.21875 -1.421875 
Q 24.65625 -1.421875 15.125 8.703125 
Q 5.609375 18.84375 5.609375 36.375 
Q 5.609375 53.953125 15.125 64.078125 
Q 24.65625 74.21875 41.21875 74.21875 
Q 47.75 74.21875 53.53125 72.484375 
Q 59.328125 70.75 64.40625 67.28125 
z
" id="DejaVuSans-67"/>
     <path d="M 39.40625 66.21875 
Q 28.65625 66.21875 22.328125 58.203125 
Q 16.015625 50.203125 16.015625 36.375 
Q 16.015625 22.609375 22.328125 14.59375 
Q 28.65625 6.59375 39.40625 6.59375 
Q 50.140625 6.59375 56.421875 14.59375 
Q 62.703125 22.609375 62.703125 36.375 
Q 62.703125 50.203125 56.421875 58.203125 
Q 50.140625 66.21875 39.40625 66.21875 
z
M 39.40625 74.21875 
Q 54.734375 74.21875 63.90625 63.9375 
Q 73.09375 53.65625 73.09375 36.375 
Q 73.09375 19.140625 63.90625 8.859375 
Q 54.734375 -1.421875 39.40625 -1.421875 
Q 24.03125 -1.421875 14.8125 8.828125 
Q 5.609375 19.09375 5.609375 36.375 
Q 5.609375 53.65625 14.8125 63.9375 
Q 24.03125 74.21875 39.40625 74.21875 
z
" id="DejaVuSans-79"/>
     <path d="M 9.8125 72.90625 
L 24.515625 72.90625 
L 43.109375 23.296875 
L 61.8125 72.90625 
L 76.515625 72.90625 
L 76.515625 0 
L 66.890625 0 
L 66.890625 64.015625 
L 48.09375 14.015625 
L 38.1875 14.015625 
L 19.390625 64.015625 
L 19.390625 0 
L 9.8125 0 
z
" id="DejaVuSans-77"/>
     <path d="M 9.8125 72.90625 
L 19.671875 72.90625 
L 19.671875 8.296875 
L 55.171875 8.296875 
L 55.171875 0 
L 9.8125 0 
z
" id="DejaVuSans-76"/>
    </defs>
    <g transform="translate(361.8625 80.310937)scale(0.1 -0.1)">
     <use xlink:href="#DejaVuSans-67"/>
     <use x="69.824219" xlink:href="#DejaVuSans-79"/>
     <use x="148.535156" xlink:href="#DejaVuSans-77"/>
     <use x="234.814453" xlink:href="#DejaVuSans-76"/>
     <use x="290.527344" xlink:href="#DejaVuSans-32"/>
     <use x="322.314453" xlink:href="#DejaVuSans-40"/>
     <use x="361.328125" xlink:href="#DejaVuSans-52"/>
     <use x="424.951172" xlink:href="#DejaVuSans-48"/>
     <use x="488.574219" xlink:href="#DejaVuSans-41"/>
    </g>
   </g>
   <g id="line2d_59">
    <path d="M 333.8625 91.489062 
L 353.8625 91.489062 
" style="fill:none;stroke:#66a61e;stroke-linecap:square;stroke-width:1.5;"/>
   </g>
   <g id="line2d_60"/>
   <g id="text_25">
    <!-- GDD (40) -->
    <defs>
     <path d="M 59.515625 10.40625 
L 59.515625 29.984375 
L 43.40625 29.984375 
L 43.40625 38.09375 
L 69.28125 38.09375 
L 69.28125 6.78125 
Q 63.578125 2.734375 56.6875 0.65625 
Q 49.8125 -1.421875 42 -1.421875 
Q 24.90625 -1.421875 15.25 8.5625 
Q 5.609375 18.5625 5.609375 36.375 
Q 5.609375 54.25 15.25 64.234375 
Q 24.90625 74.21875 42 74.21875 
Q 49.125 74.21875 55.546875 72.453125 
Q 61.96875 70.703125 67.390625 67.28125 
L 67.390625 56.78125 
Q 61.921875 61.421875 55.765625 63.765625 
Q 49.609375 66.109375 42.828125 66.109375 
Q 29.4375 66.109375 22.71875 58.640625 
Q 16.015625 51.171875 16.015625 36.375 
Q 16.015625 21.625 22.71875 14.15625 
Q 29.4375 6.6875 42.828125 6.6875 
Q 48.046875 6.6875 52.140625 7.59375 
Q 56.25 8.5 59.515625 10.40625 
z
" id="DejaVuSans-71"/>
    </defs>
    <g transform="translate(361.8625 94.989062)scale(0.1 -0.1)">
     <use xlink:href="#DejaVuSans-71"/>
     <use x="77.490234" xlink:href="#DejaVuSans-68"/>
     <use x="154.492188" xlink:href="#DejaVuSans-68"/>
     <use x="231.494141" xlink:href="#DejaVuSans-32"/>
     <use x="263.28125" xlink:href="#DejaVuSans-40"/>
     <use x="302.294922" xlink:href="#DejaVuSans-52"/>
     <use x="365.917969" xlink:href="#DejaVuSans-48"/>
     <use x="429.541016" xlink:href="#DejaVuSans-41"/>
    </g>
   </g>
   <g id="line2d_61">
    <path d="M 333.8625 106.167188 
L 353.8625 106.167188 
" style="fill:none;stroke:#e6ab02;stroke-linecap:square;stroke-width:1.5;"/>
   </g>
   <g id="line2d_62"/>
   <g id="text_26">
    <!-- MD (38) -->
    <defs>
     <path d="M 31.78125 34.625 
Q 24.75 34.625 20.71875 30.859375 
Q 16.703125 27.09375 16.703125 20.515625 
Q 16.703125 13.921875 20.71875 10.15625 
Q 24.75 6.390625 31.78125 6.390625 
Q 38.8125 6.390625 42.859375 10.171875 
Q 46.921875 13.96875 46.921875 20.515625 
Q 46.921875 27.09375 42.890625 30.859375 
Q 38.875 34.625 31.78125 34.625 
z
M 21.921875 38.8125 
Q 15.578125 40.375 12.03125 44.71875 
Q 8.5 49.078125 8.5 55.328125 
Q 8.5 64.0625 14.71875 69.140625 
Q 20.953125 74.21875 31.78125 74.21875 
Q 42.671875 74.21875 48.875 69.140625 
Q 55.078125 64.0625 55.078125 55.328125 
Q 55.078125 49.078125 51.53125 44.71875 
Q 48 40.375 41.703125 38.8125 
Q 48.828125 37.15625 52.796875 32.3125 
Q 56.78125 27.484375 56.78125 20.515625 
Q 56.78125 9.90625 50.3125 4.234375 
Q 43.84375 -1.421875 31.78125 -1.421875 
Q 19.734375 -1.421875 13.25 4.234375 
Q 6.78125 9.90625 6.78125 20.515625 
Q 6.78125 27.484375 10.78125 32.3125 
Q 14.796875 37.15625 21.921875 38.8125 
z
M 18.3125 54.390625 
Q 18.3125 48.734375 21.84375 45.5625 
Q 25.390625 42.390625 31.78125 42.390625 
Q 38.140625 42.390625 41.71875 45.5625 
Q 45.3125 48.734375 45.3125 54.390625 
Q 45.3125 60.0625 41.71875 63.234375 
Q 38.140625 66.40625 31.78125 66.40625 
Q 25.390625 66.40625 21.84375 63.234375 
Q 18.3125 60.0625 18.3125 54.390625 
z
" id="DejaVuSans-56"/>
    </defs>
    <g transform="translate(361.8625 109.667188)scale(0.1 -0.1)">
     <use xlink:href="#DejaVuSans-77"/>
     <use x="86.279297" xlink:href="#DejaVuSans-68"/>
     <use x="163.28125" xlink:href="#DejaVuSans-32"/>
     <use x="195.068359" xlink:href="#DejaVuSans-40"/>
     <use x="234.082031" xlink:href="#DejaVuSans-51"/>
     <use x="297.705078" xlink:href="#DejaVuSans-56"/>
     <use x="361.328125" xlink:href="#DejaVuSans-41"/>
    </g>
   </g>
   <g id="line2d_63">
    <path d="M 333.8625 120.845312 
L 353.8625 120.845312 
" style="fill:none;stroke:#a6761d;stroke-linecap:square;stroke-width:1.5;"/>
   </g>
   <g id="line2d_64"/>
   <g id="text_27">
    <!-- HPI (38) -->
    <defs>
     <path d="M 9.8125 72.90625 
L 19.671875 72.90625 
L 19.671875 43.015625 
L 55.515625 43.015625 
L 55.515625 72.90625 
L 65.375 72.90625 
L 65.375 0 
L 55.515625 0 
L 55.515625 34.71875 
L 19.671875 34.71875 
L 19.671875 0 
L 9.8125 0 
z
" id="DejaVuSans-72"/>
     <path d="M 19.671875 64.796875 
L 19.671875 37.40625 
L 32.078125 37.40625 
Q 38.96875 37.40625 42.71875 40.96875 
Q 46.484375 44.53125 46.484375 51.125 
Q 46.484375 57.671875 42.71875 61.234375 
Q 38.96875 64.796875 32.078125 64.796875 
z
M 9.8125 72.90625 
L 32.078125 72.90625 
Q 44.34375 72.90625 50.609375 67.359375 
Q 56.890625 61.8125 56.890625 51.125 
Q 56.890625 40.328125 50.609375 34.8125 
Q 44.34375 29.296875 32.078125 29.296875 
L 19.671875 29.296875 
L 19.671875 0 
L 9.8125 0 
z
" id="DejaVuSans-80"/>
     <path d="M 9.8125 72.90625 
L 19.671875 72.90625 
L 19.671875 0 
L 9.8125 0 
z
" id="DejaVuSans-73"/>
    </defs>
    <g transform="translate(361.8625 124.345312)scale(0.1 -0.1)">
     <use xlink:href="#DejaVuSans-72"/>
     <use x="75.195312" xlink:href="#DejaVuSans-80"/>
     <use x="135.498047" xlink:href="#DejaVuSans-73"/>
     <use x="164.990234" xlink:href="#DejaVuSans-32"/>
     <use x="196.777344" xlink:href="#DejaVuSans-40"/>
     <use x="235.791016" xlink:href="#DejaVuSans-51"/>
     <use x="299.414062" xlink:href="#DejaVuSans-56"/>
     <use x="363.037109" xlink:href="#DejaVuSans-41"/>
    </g>
   </g>
   <g id="line2d_65">
    <path d="M 333.8625 135.523438 
L 353.8625 135.523438 
" style="fill:none;stroke:#666666;stroke-linecap:square;stroke-width:1.5;"/>
   </g>
   <g id="line2d_66"/>
   <g id="text_28">
    <!-- TBI (28) -->
    <defs>
     <path d="M -0.296875 72.90625 
L 61.375 72.90625 
L 61.375 64.59375 
L 35.5 64.59375 
L 35.5 0 
L 25.59375 0 
L 25.59375 64.59375 
L -0.296875 64.59375 
z
" id="DejaVuSans-84"/>
     <path d="M 19.671875 34.8125 
L 19.671875 8.109375 
L 35.5 8.109375 
Q 43.453125 8.109375 47.28125 11.40625 
Q 51.125 14.703125 51.125 21.484375 
Q 51.125 28.328125 47.28125 31.5625 
Q 43.453125 34.8125 35.5 34.8125 
z
M 19.671875 64.796875 
L 19.671875 42.828125 
L 34.28125 42.828125 
Q 41.5 42.828125 45.03125 45.53125 
Q 48.578125 48.25 48.578125 53.8125 
Q 48.578125 59.328125 45.03125 62.0625 
Q 41.5 64.796875 34.28125 64.796875 
z
M 9.8125 72.90625 
L 35.015625 72.90625 
Q 46.296875 72.90625 52.390625 68.21875 
Q 58.5 63.53125 58.5 54.890625 
Q 58.5 48.1875 55.375 44.234375 
Q 52.25 40.28125 46.1875 39.3125 
Q 53.46875 37.75 57.5 32.78125 
Q 61.53125 27.828125 61.53125 20.40625 
Q 61.53125 10.640625 54.890625 5.3125 
Q 48.25 0 35.984375 0 
L 9.8125 0 
z
" id="DejaVuSans-66"/>
    </defs>
    <g transform="translate(361.8625 139.023438)scale(0.1 -0.1)">
     <use xlink:href="#DejaVuSans-84"/>
     <use x="61.083984" xlink:href="#DejaVuSans-66"/>
     <use x="129.6875" xlink:href="#DejaVuSans-73"/>
     <use x="159.179688" xlink:href="#DejaVuSans-32"/>
     <use x="190.966797" xlink:href="#DejaVuSans-40"/>
     <use x="229.980469" xlink:href="#DejaVuSans-50"/>
     <use x="293.603516" xlink:href="#DejaVuSans-56"/>
     <use x="357.226562" xlink:href="#DejaVuSans-41"/>
    </g>
   </g>
   <g id="line2d_67">
    <path d="M 333.8625 150.201562 
L 353.8625 150.201562 
" style="fill:none;stroke:#1b9e77;stroke-dasharray:4.5,1.5;stroke-dashoffset:0;stroke-width:1.5;"/>
   </g>
   <g id="line2d_68"/>
   <g id="text_29">
    <!-- FIT (27) -->
    <defs>
     <path d="M 9.8125 72.90625 
L 51.703125 72.90625 
L 51.703125 64.59375 
L 19.671875 64.59375 
L 19.671875 43.109375 
L 48.578125 43.109375 
L 48.578125 34.8125 
L 19.671875 34.8125 
L 19.671875 0 
L 9.8125 0 
z
" id="DejaVuSans-70"/>
     <path d="M 8.203125 72.90625 
L 55.078125 72.90625 
L 55.078125 68.703125 
L 28.609375 0 
L 18.3125 0 
L 43.21875 64.59375 
L 8.203125 64.59375 
z
" id="DejaVuSans-55"/>
    </defs>
    <g transform="translate(361.8625 153.701562)scale(0.1 -0.1)">
     <use xlink:href="#DejaVuSans-70"/>
     <use x="57.519531" xlink:href="#DejaVuSans-73"/>
     <use x="87.011719" xlink:href="#DejaVuSans-84"/>
     <use x="148.095703" xlink:href="#DejaVuSans-32"/>
     <use x="179.882812" xlink:href="#DejaVuSans-40"/>
     <use x="218.896484" xlink:href="#DejaVuSans-50"/>
     <use x="282.519531" xlink:href="#DejaVuSans-55"/>
     <use x="346.142578" xlink:href="#DejaVuSans-41"/>
    </g>
   </g>
   <g id="line2d_69">
    <path d="M 333.8625 164.879687 
L 353.8625 164.879687 
" style="fill:none;stroke:#d95f02;stroke-dasharray:4.5,1.5;stroke-dashoffset:0;stroke-width:1.5;"/>
   </g>
   <g id="line2d_70"/>
   <g id="text_30">
    <!-- CB (26) -->
    <g transform="translate(361.8625 168.379687)scale(0.1 -0.1)">
     <use xlink:href="#DejaVuSans-67"/>
     <use x="69.824219" xlink:href="#DejaVuSans-66"/>
     <use x="138.427734" xlink:href="#DejaVuSans-32"/>
     <use x="170.214844" xlink:href="#DejaVuSans-40"/>
     <use x="209.228516" xlink:href="#DejaVuSans-50"/>
     <use x="272.851562" xlink:href="#DejaVuSans-54"/>
     <use x="336.474609" xlink:href="#DejaVuSans-41"/>
    </g>
   </g>
   <g id="line2d_71">
    <path d="M 333.8625 179.557812 
L 353.8625 179.557812 
" style="fill:none;stroke:#7570b3;stroke-dasharray:4.5,1.5;stroke-dashoffset:0;stroke-width:1.5;"/>
   </g>
   <g id="line2d_72"/>
   <g id="text_31">
    <!-- BP (26) -->
    <g transform="translate(361.8625 183.057812)scale(0.1 -0.1)">
     <use xlink:href="#DejaVuSans-66"/>
     <use x="68.603516" xlink:href="#DejaVuSans-80"/>
     <use x="128.90625" xlink:href="#DejaVuSans-32"/>
     <use x="160.693359" xlink:href="#DejaVuSans-40"/>
     <use x="199.707031" xlink:href="#DejaVuSans-50"/>
     <use x="263.330078" xlink:href="#DejaVuSans-54"/>
     <use x="326.953125" xlink:href="#DejaVuSans-41"/>
    </g>
   </g>
   <g id="line2d_73">
    <path d="M 333.8625 194.235937 
L 353.8625 194.235937 
" style="fill:none;stroke:#e7298a;stroke-dasharray:4.5,1.5;stroke-dashoffset:0;stroke-width:1.5;"/>
   </g>
   <g id="line2d_74"/>
   <g id="text_32">
    <!-- RJPH (24) -->
    <defs>
     <path d="M 9.8125 72.90625 
L 19.671875 72.90625 
L 19.671875 5.078125 
Q 19.671875 -8.109375 14.671875 -14.0625 
Q 9.671875 -20.015625 -1.421875 -20.015625 
L -5.171875 -20.015625 
L -5.171875 -11.71875 
L -2.09375 -11.71875 
Q 4.4375 -11.71875 7.125 -8.046875 
Q 9.8125 -4.390625 9.8125 5.078125 
z
" id="DejaVuSans-74"/>
    </defs>
    <g transform="translate(361.8625 197.735937)scale(0.1 -0.1)">
     <use xlink:href="#DejaVuSans-82"/>
     <use x="69.482422" xlink:href="#DejaVuSans-74"/>
     <use x="98.974609" xlink:href="#DejaVuSans-80"/>
     <use x="159.277344" xlink:href="#DejaVuSans-72"/>
     <use x="234.472656" xlink:href="#DejaVuSans-32"/>
     <use x="266.259766" xlink:href="#DejaVuSans-40"/>
     <use x="305.273438" xlink:href="#DejaVuSans-50"/>
     <use x="368.896484" xlink:href="#DejaVuSans-52"/>
     <use x="432.519531" xlink:href="#DejaVuSans-41"/>
    </g>
   </g>
   <g id="line2d_75">
    <path d="M 333.8625 208.914062 
L 353.8625 208.914062 
" style="fill:none;stroke:#66a61e;stroke-dasharray:4.5,1.5;stroke-dashoffset:0;stroke-width:1.5;"/>
   </g>
   <g id="line2d_76"/>
   <g id="text_33">
    <!-- SPD (24) -->
    <g transform="translate(361.8625 212.414062)scale(0.1 -0.1)">
     <use xlink:href="#DejaVuSans-83"/>
     <use x="63.476562" xlink:href="#DejaVuSans-80"/>
     <use x="123.779297" xlink:href="#DejaVuSans-68"/>
     <use x="200.78125" xlink:href="#DejaVuSans-32"/>
     <use x="232.568359" xlink:href="#DejaVuSans-40"/>
     <use x="271.582031" xlink:href="#DejaVuSans-50"/>
     <use x="335.205078" xlink:href="#DejaVuSans-52"/>
     <use x="398.828125" xlink:href="#DejaVuSans-41"/>
    </g>
   </g>
   <g id="line2d_77">
    <path d="M 333.8625 223.592187 
L 353.8625 223.592187 
" style="fill:none;stroke:#e6ab02;stroke-dasharray:4.5,1.5;stroke-dashoffset:0;stroke-width:1.5;"/>
   </g>
   <g id="line2d_78"/>
   <g id="text_34">
    <!-- CC (24) -->
    <g transform="translate(361.8625 227.092187)scale(0.1 -0.1)">
     <use xlink:href="#DejaVuSans-67"/>
     <use x="69.824219" xlink:href="#DejaVuSans-67"/>
     <use x="139.648438" xlink:href="#DejaVuSans-32"/>
     <use x="171.435547" xlink:href="#DejaVuSans-40"/>
     <use x="210.449219" xlink:href="#DejaVuSans-50"/>
     <use x="274.072266" xlink:href="#DejaVuSans-52"/>
     <use x="337.695312" xlink:href="#DejaVuSans-41"/>
    </g>
   </g>
   <g id="line2d_79">
    <path d="M 333.8625 238.270312 
L 353.8625 238.270312 
" style="fill:none;stroke:#a6761d;stroke-dasharray:4.5,1.5;stroke-dashoffset:0;stroke-width:1.5;"/>
   </g>
   <g id="line2d_80"/>
   <g id="text_35">
    <!-- AHR-H (20) -->
    <g transform="translate(361.8625 241.770312)scale(0.1 -0.1)">
     <use xlink:href="#DejaVuSans-65"/>
     <use x="68.408203" xlink:href="#DejaVuSans-72"/>
     <use x="143.603516" xlink:href="#DejaVuSans-82"/>
     <use x="213.023438" xlink:href="#DejaVuSans-45"/>
     <use x="249.107422" xlink:href="#DejaVuSans-72"/>
     <use x="324.302734" xlink:href="#DejaVuSans-32"/>
     <use x="356.089844" xlink:href="#DejaVuSans-40"/>
     <use x="395.103516" xlink:href="#DejaVuSans-50"/>
     <use x="458.726562" xlink:href="#DejaVuSans-48"/>
     <use x="522.349609" xlink:href="#DejaVuSans-41"/>
    </g>
   </g>
   <g id="line2d_81">
    <path d="M 333.8625 252.948437 
L 353.8625 252.948437 
" style="fill:none;stroke:#666666;stroke-dasharray:4.5,1.5;stroke-dashoffset:0;stroke-width:1.5;"/>
   </g>
   <g id="line2d_82"/>
   <g id="text_36">
    <!-- AHR-A (20) -->
    <g transform="translate(361.8625 256.448437)scale(0.1 -0.1)">
     <use xlink:href="#DejaVuSans-65"/>
     <use x="68.408203" xlink:href="#DejaVuSans-72"/>
     <use x="143.603516" xlink:href="#DejaVuSans-82"/>
     <use x="213.023438" xlink:href="#DejaVuSans-45"/>
     <use x="249.076172" xlink:href="#DejaVuSans-65"/>
     <use x="317.484375" xlink:href="#DejaVuSans-32"/>
     <use x="349.271484" xlink:href="#DejaVuSans-40"/>
     <use x="388.285156" xlink:href="#DejaVuSans-50"/>
     <use x="451.908203" xlink:href="#DejaVuSans-48"/>
     <use x="515.53125" xlink:href="#DejaVuSans-41"/>
    </g>
   </g>
  </g>
 </g>
 <defs>
  <clipPath id="p88bf764648">
   <rect height="207.330771" width="271.81" x="43.55" y="12.9"/>
  </clipPath>
 </defs>
</svg>
