<?xml version="1.0" encoding="utf-8" standalone="no"?>
<!DOCTYPE svg PUBLIC "-//W3C//DTD SVG 1.1//EN"
  "http://www.w3.org/Graphics/SVG/1.1/DTD/svg11.dtd">
<!-- Created with matplotlib (https://matplotlib.org/) -->
<svg height="288pt" version="1.1" viewBox="0 0 432 288" width="432pt" xmlns="http://www.w3.org/2000/svg" xmlns:xlink="http://www.w3.org/1999/xlink">
 <defs>
  <style type="text/css">
*{stroke-linecap:butt;stroke-linejoin:round;}
  </style>
 </defs>
 <g id="figure_1">
  <g id="patch_1">
   <path d="M 0 288 
L 432 288 
L 432 0 
L 0 0 
z
" style="fill:#ffffff;"/>
  </g>
  <g id="axes_1">
   <g id="patch_2">
    <path d="M 43.55 220.230771 
L 315.36 220.230771 
L 315.36 12.9 
L 43.55 12.9 
z
" style="fill:#ffffff;"/>
   </g>
   <g id="matplotlib.axis_1">
    <g id="xtick_1">
     <g id="line2d_1">
      <defs>
       <path d="M 0 0 
L 0 3.5 
" id="m8a75486832" style="stroke:#000000;stroke-width:0.8;"/>
      </defs>
      <g>
       <use style="stroke:#000000;stroke-width:0.8;" x="49.346385" xlink:href="#m8a75486832" y="220.230771"/>
      </g>
     </g>
     <g id="text_1">
      <!-- 2020-11-29 -->
      <defs>
       <path d="M 19.1875 8.296875 
L 53.609375 8.296875 
L 53.609375 0 
L 7.328125 0 
L 7.328125 8.296875 
Q 12.9375 14.109375 22.625 23.890625 
Q 32.328125 33.6875 34.8125 36.53125 
Q 39.546875 41.84375 41.421875 45.53125 
Q 43.3125 49.21875 43.3125 52.78125 
Q 43.3125 58.59375 39.234375 62.25 
Q 35.15625 65.921875 28.609375 65.921875 
Q 23.96875 65.921875 18.8125 64.3125 
Q 13.671875 62.703125 7.8125 59.421875 
L 7.8125 69.390625 
Q 13.765625 71.78125 18.9375 73 
Q 24.125 74.21875 28.421875 74.21875 
Q 39.75 74.21875 46.484375 68.546875 
Q 53.21875 62.890625 53.21875 53.421875 
Q 53.21875 48.921875 51.53125 44.890625 
Q 49.859375 40.875 45.40625 35.40625 
Q 44.1875 33.984375 37.640625 27.21875 
Q 31.109375 20.453125 19.1875 8.296875 
z
" id="DejaVuSans-50"/>
       <path d="M 31.78125 66.40625 
Q 24.171875 66.40625 20.328125 58.90625 
Q 16.5 51.421875 16.5 36.375 
Q 16.5 21.390625 20.328125 13.890625 
Q 24.171875 6.390625 31.78125 6.390625 
Q 39.453125 6.390625 43.28125 13.890625 
Q 47.125 21.390625 47.125 36.375 
Q 47.125 51.421875 43.28125 58.90625 
Q 39.453125 66.40625 31.78125 66.40625 
z
M 31.78125 74.21875 
Q 44.046875 74.21875 50.515625 64.515625 
Q 56.984375 54.828125 56.984375 36.375 
Q 56.984375 17.96875 50.515625 8.265625 
Q 44.046875 -1.421875 31.78125 -1.421875 
Q 19.53125 -1.421875 13.0625 8.265625 
Q 6.59375 17.96875 6.59375 36.375 
Q 6.59375 54.828125 13.0625 64.515625 
Q 19.53125 74.21875 31.78125 74.21875 
z
" id="DejaVuSans-48"/>
       <path d="M 4.890625 31.390625 
L 31.203125 31.390625 
L 31.203125 23.390625 
L 4.890625 23.390625 
z
" id="DejaVuSans-45"/>
       <path d="M 12.40625 8.296875 
L 28.515625 8.296875 
L 28.515625 63.921875 
L 10.984375 60.40625 
L 10.984375 69.390625 
L 28.421875 72.90625 
L 38.28125 72.90625 
L 38.28125 8.296875 
L 54.390625 8.296875 
L 54.390625 0 
L 12.40625 0 
z
" id="DejaVuSans-49"/>
       <path d="M 10.984375 1.515625 
L 10.984375 10.5 
Q 14.703125 8.734375 18.5 7.8125 
Q 22.3125 6.890625 25.984375 6.890625 
Q 35.75 6.890625 40.890625 13.453125 
Q 46.046875 20.015625 46.78125 33.40625 
Q 43.953125 29.203125 39.59375 26.953125 
Q 35.25 24.703125 29.984375 24.703125 
Q 19.046875 24.703125 12.671875 31.3125 
Q 6.296875 37.9375 6.296875 49.421875 
Q 6.296875 60.640625 12.9375 67.421875 
Q 19.578125 74.21875 30.609375 74.21875 
Q 43.265625 74.21875 49.921875 64.515625 
Q 56.59375 54.828125 56.59375 36.375 
Q 56.59375 19.140625 48.40625 8.859375 
Q 40.234375 -1.421875 26.421875 -1.421875 
Q 22.703125 -1.421875 18.890625 -0.6875 
Q 15.09375 0.046875 10.984375 1.515625 
z
M 30.609375 32.421875 
Q 37.25 32.421875 41.125 36.953125 
Q 45.015625 41.5 45.015625 49.421875 
Q 45.015625 57.28125 41.125 61.84375 
Q 37.25 66.40625 30.609375 66.40625 
Q 23.96875 66.40625 20.09375 61.84375 
Q 16.21875 57.28125 16.21875 49.421875 
Q 16.21875 41.5 20.09375 36.953125 
Q 23.96875 32.421875 30.609375 32.421875 
z
" id="DejaVuSans-57"/>
      </defs>
      <g transform="translate(25.561268 262.869024)rotate(-30)scale(0.1 -0.1)">
       <use xlink:href="#DejaVuSans-50"/>
       <use x="63.623047" xlink:href="#DejaVuSans-48"/>
       <use x="127.246094" xlink:href="#DejaVuSans-50"/>
       <use x="190.869141" xlink:href="#DejaVuSans-48"/>
       <use x="254.492188" xlink:href="#DejaVuSans-45"/>
       <use x="290.576172" xlink:href="#DejaVuSans-49"/>
       <use x="354.199219" xlink:href="#DejaVuSans-49"/>
       <use x="417.822266" xlink:href="#DejaVuSans-45"/>
       <use x="453.90625" xlink:href="#DejaVuSans-50"/>
       <use x="517.529297" xlink:href="#DejaVuSans-57"/>
      </g>
     </g>
    </g>
    <g id="xtick_2">
     <g id="line2d_2">
      <g>
       <use style="stroke:#000000;stroke-width:0.8;" x="58.403923" xlink:href="#m8a75486832" y="220.230771"/>
      </g>
     </g>
     <g id="text_2">
      <!-- 2020-12-01 -->
      <g transform="translate(34.618806 262.869024)rotate(-30)scale(0.1 -0.1)">
       <use xlink:href="#DejaVuSans-50"/>
       <use x="63.623047" xlink:href="#DejaVuSans-48"/>
       <use x="127.246094" xlink:href="#DejaVuSans-50"/>
       <use x="190.869141" xlink:href="#DejaVuSans-48"/>
       <use x="254.492188" xlink:href="#DejaVuSans-45"/>
       <use x="290.576172" xlink:href="#DejaVuSans-49"/>
       <use x="354.199219" xlink:href="#DejaVuSans-50"/>
       <use x="417.822266" xlink:href="#DejaVuSans-45"/>
       <use x="453.90625" xlink:href="#DejaVuSans-48"/>
       <use x="517.529297" xlink:href="#DejaVuSans-49"/>
      </g>
     </g>
    </g>
    <g id="xtick_3">
     <g id="line2d_3">
      <g>
       <use style="stroke:#000000;stroke-width:0.8;" x="90.105306" xlink:href="#m8a75486832" y="220.230771"/>
      </g>
     </g>
     <g id="text_3">
      <!-- 2020-12-08 -->
      <defs>
       <path d="M 31.78125 34.625 
Q 24.75 34.625 20.71875 30.859375 
Q 16.703125 27.09375 16.703125 20.515625 
Q 16.703125 13.921875 20.71875 10.15625 
Q 24.75 6.390625 31.78125 6.390625 
Q 38.8125 6.390625 42.859375 10.171875 
Q 46.921875 13.96875 46.921875 20.515625 
Q 46.921875 27.09375 42.890625 30.859375 
Q 38.875 34.625 31.78125 34.625 
z
M 21.921875 38.8125 
Q 15.578125 40.375 12.03125 44.71875 
Q 8.5 49.078125 8.5 55.328125 
Q 8.5 64.0625 14.71875 69.140625 
Q 20.953125 74.21875 31.78125 74.21875 
Q 42.671875 74.21875 48.875 69.140625 
Q 55.078125 64.0625 55.078125 55.328125 
Q 55.078125 49.078125 51.53125 44.71875 
Q 48 40.375 41.703125 38.8125 
Q 48.828125 37.15625 52.796875 32.3125 
Q 56.78125 27.484375 56.78125 20.515625 
Q 56.78125 9.90625 50.3125 4.234375 
Q 43.84375 -1.421875 31.78125 -1.421875 
Q 19.734375 -1.421875 13.25 4.234375 
Q 6.78125 9.90625 6.78125 20.515625 
Q 6.78125 27.484375 10.78125 32.3125 
Q 14.796875 37.15625 21.921875 38.8125 
z
M 18.3125 54.390625 
Q 18.3125 48.734375 21.84375 45.5625 
Q 25.390625 42.390625 31.78125 42.390625 
Q 38.140625 42.390625 41.71875 45.5625 
Q 45.3125 48.734375 45.3125 54.390625 
Q 45.3125 60.0625 41.71875 63.234375 
Q 38.140625 66.40625 31.78125 66.40625 
Q 25.390625 66.40625 21.84375 63.234375 
Q 18.3125 60.0625 18.3125 54.390625 
z
" id="DejaVuSans-56"/>
      </defs>
      <g transform="translate(66.320189 262.869024)rotate(-30)scale(0.1 -0.1)">
       <use xlink:href="#DejaVuSans-50"/>
       <use x="63.623047" xlink:href="#DejaVuSans-48"/>
       <use x="127.246094" xlink:href="#DejaVuSans-50"/>
       <use x="190.869141" xlink:href="#DejaVuSans-48"/>
       <use x="254.492188" xlink:href="#DejaVuSans-45"/>
       <use x="290.576172" xlink:href="#DejaVuSans-49"/>
       <use x="354.199219" xlink:href="#DejaVuSans-50"/>
       <use x="417.822266" xlink:href="#DejaVuSans-45"/>
       <use x="453.90625" xlink:href="#DejaVuSans-48"/>
       <use x="517.529297" xlink:href="#DejaVuSans-56"/>
      </g>
     </g>
    </g>
    <g id="xtick_4">
     <g id="line2d_4">
      <g>
       <use style="stroke:#000000;stroke-width:0.8;" x="121.806689" xlink:href="#m8a75486832" y="220.230771"/>
      </g>
     </g>
     <g id="text_4">
      <!-- 2020-12-15 -->
      <defs>
       <path d="M 10.796875 72.90625 
L 49.515625 72.90625 
L 49.515625 64.59375 
L 19.828125 64.59375 
L 19.828125 46.734375 
Q 21.96875 47.46875 24.109375 47.828125 
Q 26.265625 48.1875 28.421875 48.1875 
Q 40.625 48.1875 47.75 41.5 
Q 54.890625 34.8125 54.890625 23.390625 
Q 54.890625 11.625 47.5625 5.09375 
Q 40.234375 -1.421875 26.90625 -1.421875 
Q 22.3125 -1.421875 17.546875 -0.640625 
Q 12.796875 0.140625 7.71875 1.703125 
L 7.71875 11.625 
Q 12.109375 9.234375 16.796875 8.0625 
Q 21.484375 6.890625 26.703125 6.890625 
Q 35.15625 6.890625 40.078125 11.328125 
Q 45.015625 15.765625 45.015625 23.390625 
Q 45.015625 31 40.078125 35.4375 
Q 35.15625 39.890625 26.703125 39.890625 
Q 22.75 39.890625 18.8125 39.015625 
Q 14.890625 38.140625 10.796875 36.28125 
z
" id="DejaVuSans-53"/>
      </defs>
      <g transform="translate(98.021573 262.869024)rotate(-30)scale(0.1 -0.1)">
       <use xlink:href="#DejaVuSans-50"/>
       <use x="63.623047" xlink:href="#DejaVuSans-48"/>
       <use x="127.246094" xlink:href="#DejaVuSans-50"/>
       <use x="190.869141" xlink:href="#DejaVuSans-48"/>
       <use x="254.492188" xlink:href="#DejaVuSans-45"/>
       <use x="290.576172" xlink:href="#DejaVuSans-49"/>
       <use x="354.199219" xlink:href="#DejaVuSans-50"/>
       <use x="417.822266" xlink:href="#DejaVuSans-45"/>
       <use x="453.90625" xlink:href="#DejaVuSans-49"/>
       <use x="517.529297" xlink:href="#DejaVuSans-53"/>
      </g>
     </g>
    </g>
    <g id="xtick_5">
     <g id="line2d_5">
      <g>
       <use style="stroke:#000000;stroke-width:0.8;" x="153.508072" xlink:href="#m8a75486832" y="220.230771"/>
      </g>
     </g>
     <g id="text_5">
      <!-- 2020-12-22 -->
      <g transform="translate(129.722956 262.869024)rotate(-30)scale(0.1 -0.1)">
       <use xlink:href="#DejaVuSans-50"/>
       <use x="63.623047" xlink:href="#DejaVuSans-48"/>
       <use x="127.246094" xlink:href="#DejaVuSans-50"/>
       <use x="190.869141" xlink:href="#DejaVuSans-48"/>
       <use x="254.492188" xlink:href="#DejaVuSans-45"/>
       <use x="290.576172" xlink:href="#DejaVuSans-49"/>
       <use x="354.199219" xlink:href="#DejaVuSans-50"/>
       <use x="417.822266" xlink:href="#DejaVuSans-45"/>
       <use x="453.90625" xlink:href="#DejaVuSans-50"/>
       <use x="517.529297" xlink:href="#DejaVuSans-50"/>
      </g>
     </g>
    </g>
    <g id="xtick_6">
     <g id="line2d_6">
      <g>
       <use style="stroke:#000000;stroke-width:0.8;" x="185.209455" xlink:href="#m8a75486832" y="220.230771"/>
      </g>
     </g>
     <g id="text_6">
      <!-- 2020-12-29 -->
      <g transform="translate(161.424339 262.869024)rotate(-30)scale(0.1 -0.1)">
       <use xlink:href="#DejaVuSans-50"/>
       <use x="63.623047" xlink:href="#DejaVuSans-48"/>
       <use x="127.246094" xlink:href="#DejaVuSans-50"/>
       <use x="190.869141" xlink:href="#DejaVuSans-48"/>
       <use x="254.492188" xlink:href="#DejaVuSans-45"/>
       <use x="290.576172" xlink:href="#DejaVuSans-49"/>
       <use x="354.199219" xlink:href="#DejaVuSans-50"/>
       <use x="417.822266" xlink:href="#DejaVuSans-45"/>
       <use x="453.90625" xlink:href="#DejaVuSans-50"/>
       <use x="517.529297" xlink:href="#DejaVuSans-57"/>
      </g>
     </g>
    </g>
    <g id="xtick_7">
     <g id="line2d_7">
      <g>
       <use style="stroke:#000000;stroke-width:0.8;" x="198.795762" xlink:href="#m8a75486832" y="220.230771"/>
      </g>
     </g>
     <g id="text_7">
      <!-- 2021-01-01 -->
      <g transform="translate(175.010646 262.869024)rotate(-30)scale(0.1 -0.1)">
       <use xlink:href="#DejaVuSans-50"/>
       <use x="63.623047" xlink:href="#DejaVuSans-48"/>
       <use x="127.246094" xlink:href="#DejaVuSans-50"/>
       <use x="190.869141" xlink:href="#DejaVuSans-49"/>
       <use x="254.492188" xlink:href="#DejaVuSans-45"/>
       <use x="290.576172" xlink:href="#DejaVuSans-48"/>
       <use x="354.199219" xlink:href="#DejaVuSans-49"/>
       <use x="417.822266" xlink:href="#DejaVuSans-45"/>
       <use x="453.90625" xlink:href="#DejaVuSans-48"/>
       <use x="517.529297" xlink:href="#DejaVuSans-49"/>
      </g>
     </g>
    </g>
    <g id="xtick_8">
     <g id="line2d_8">
      <g>
       <use style="stroke:#000000;stroke-width:0.8;" x="230.497145" xlink:href="#m8a75486832" y="220.230771"/>
      </g>
     </g>
     <g id="text_8">
      <!-- 2021-01-08 -->
      <g transform="translate(206.712029 262.869024)rotate(-30)scale(0.1 -0.1)">
       <use xlink:href="#DejaVuSans-50"/>
       <use x="63.623047" xlink:href="#DejaVuSans-48"/>
       <use x="127.246094" xlink:href="#DejaVuSans-50"/>
       <use x="190.869141" xlink:href="#DejaVuSans-49"/>
       <use x="254.492188" xlink:href="#DejaVuSans-45"/>
       <use x="290.576172" xlink:href="#DejaVuSans-48"/>
       <use x="354.199219" xlink:href="#DejaVuSans-49"/>
       <use x="417.822266" xlink:href="#DejaVuSans-45"/>
       <use x="453.90625" xlink:href="#DejaVuSans-48"/>
       <use x="517.529297" xlink:href="#DejaVuSans-56"/>
      </g>
     </g>
    </g>
    <g id="xtick_9">
     <g id="line2d_9">
      <g>
       <use style="stroke:#000000;stroke-width:0.8;" x="262.198528" xlink:href="#m8a75486832" y="220.230771"/>
      </g>
     </g>
     <g id="text_9">
      <!-- 2021-01-15 -->
      <g transform="translate(238.413412 262.869024)rotate(-30)scale(0.1 -0.1)">
       <use xlink:href="#DejaVuSans-50"/>
       <use x="63.623047" xlink:href="#DejaVuSans-48"/>
       <use x="127.246094" xlink:href="#DejaVuSans-50"/>
       <use x="190.869141" xlink:href="#DejaVuSans-49"/>
       <use x="254.492188" xlink:href="#DejaVuSans-45"/>
       <use x="290.576172" xlink:href="#DejaVuSans-48"/>
       <use x="354.199219" xlink:href="#DejaVuSans-49"/>
       <use x="417.822266" xlink:href="#DejaVuSans-45"/>
       <use x="453.90625" xlink:href="#DejaVuSans-49"/>
       <use x="517.529297" xlink:href="#DejaVuSans-53"/>
      </g>
     </g>
    </g>
    <g id="xtick_10">
     <g id="line2d_10">
      <g>
       <use style="stroke:#000000;stroke-width:0.8;" x="293.899911" xlink:href="#m8a75486832" y="220.230771"/>
      </g>
     </g>
     <g id="text_10">
      <!-- 2021-01-22 -->
      <g transform="translate(270.114795 262.869024)rotate(-30)scale(0.1 -0.1)">
       <use xlink:href="#DejaVuSans-50"/>
       <use x="63.623047" xlink:href="#DejaVuSans-48"/>
       <use x="127.246094" xlink:href="#DejaVuSans-50"/>
       <use x="190.869141" xlink:href="#DejaVuSans-49"/>
       <use x="254.492188" xlink:href="#DejaVuSans-45"/>
       <use x="290.576172" xlink:href="#DejaVuSans-48"/>
       <use x="354.199219" xlink:href="#DejaVuSans-49"/>
       <use x="417.822266" xlink:href="#DejaVuSans-45"/>
       <use x="453.90625" xlink:href="#DejaVuSans-50"/>
       <use x="517.529297" xlink:href="#DejaVuSans-50"/>
      </g>
     </g>
    </g>
    <g id="text_11">
     <!-- Date -->
     <defs>
      <path d="M 19.671875 64.796875 
L 19.671875 8.109375 
L 31.59375 8.109375 
Q 46.6875 8.109375 53.6875 14.9375 
Q 60.6875 21.78125 60.6875 36.53125 
Q 60.6875 51.171875 53.6875 57.984375 
Q 46.6875 64.796875 31.59375 64.796875 
z
M 9.8125 72.90625 
L 30.078125 72.90625 
Q 51.265625 72.90625 61.171875 64.09375 
Q 71.09375 55.28125 71.09375 36.53125 
Q 71.09375 17.671875 61.125 8.828125 
Q 51.171875 0 30.078125 0 
L 9.8125 0 
z
" id="DejaVuSans-68"/>
      <path d="M 34.28125 27.484375 
Q 23.390625 27.484375 19.1875 25 
Q 14.984375 22.515625 14.984375 16.5 
Q 14.984375 11.71875 18.140625 8.90625 
Q 21.296875 6.109375 26.703125 6.109375 
Q 34.1875 6.109375 38.703125 11.40625 
Q 43.21875 16.703125 43.21875 25.484375 
L 43.21875 27.484375 
z
M 52.203125 31.203125 
L 52.203125 0 
L 43.21875 0 
L 43.21875 8.296875 
Q 40.140625 3.328125 35.546875 0.953125 
Q 30.953125 -1.421875 24.3125 -1.421875 
Q 15.921875 -1.421875 10.953125 3.296875 
Q 6 8.015625 6 15.921875 
Q 6 25.140625 12.171875 29.828125 
Q 18.359375 34.515625 30.609375 34.515625 
L 43.21875 34.515625 
L 43.21875 35.40625 
Q 43.21875 41.609375 39.140625 45 
Q 35.0625 48.390625 27.6875 48.390625 
Q 23 48.390625 18.546875 47.265625 
Q 14.109375 46.140625 10.015625 43.890625 
L 10.015625 52.203125 
Q 14.9375 54.109375 19.578125 55.046875 
Q 24.21875 56 28.609375 56 
Q 40.484375 56 46.34375 49.84375 
Q 52.203125 43.703125 52.203125 31.203125 
z
" id="DejaVuSans-97"/>
      <path d="M 18.3125 70.21875 
L 18.3125 54.6875 
L 36.8125 54.6875 
L 36.8125 47.703125 
L 18.3125 47.703125 
L 18.3125 18.015625 
Q 18.3125 11.328125 20.140625 9.421875 
Q 21.96875 7.515625 27.59375 7.515625 
L 36.8125 7.515625 
L 36.8125 0 
L 27.59375 0 
Q 17.1875 0 13.234375 3.875 
Q 9.28125 7.765625 9.28125 18.015625 
L 9.28125 47.703125 
L 2.6875 47.703125 
L 2.6875 54.6875 
L 9.28125 54.6875 
L 9.28125 70.21875 
z
" id="DejaVuSans-116"/>
      <path d="M 56.203125 29.59375 
L 56.203125 25.203125 
L 14.890625 25.203125 
Q 15.484375 15.921875 20.484375 11.0625 
Q 25.484375 6.203125 34.421875 6.203125 
Q 39.59375 6.203125 44.453125 7.46875 
Q 49.3125 8.734375 54.109375 11.28125 
L 54.109375 2.78125 
Q 49.265625 0.734375 44.1875 -0.34375 
Q 39.109375 -1.421875 33.890625 -1.421875 
Q 20.796875 -1.421875 13.15625 6.1875 
Q 5.515625 13.8125 5.515625 26.8125 
Q 5.515625 40.234375 12.765625 48.109375 
Q 20.015625 56 32.328125 56 
Q 43.359375 56 49.78125 48.890625 
Q 56.203125 41.796875 56.203125 29.59375 
z
M 47.21875 32.234375 
Q 47.125 39.59375 43.09375 43.984375 
Q 39.0625 48.390625 32.421875 48.390625 
Q 24.90625 48.390625 20.390625 44.140625 
Q 15.875 39.890625 15.1875 32.171875 
z
" id="DejaVuSans-101"/>
     </defs>
     <g transform="translate(167.504219 276.268523)scale(0.1 -0.1)">
      <use xlink:href="#DejaVuSans-68"/>
      <use x="77.001953" xlink:href="#DejaVuSans-97"/>
      <use x="138.28125" xlink:href="#DejaVuSans-116"/>
      <use x="177.490234" xlink:href="#DejaVuSans-101"/>
     </g>
    </g>
   </g>
   <g id="matplotlib.axis_2">
    <g id="ytick_1">
     <g id="line2d_11">
      <defs>
       <path d="M 0 0 
L -3.5 0 
" id="m01fd3b24ac" style="stroke:#000000;stroke-width:0.8;"/>
      </defs>
      <g>
       <use style="stroke:#000000;stroke-width:0.8;" x="43.55" xlink:href="#m01fd3b24ac" y="210.806645"/>
      </g>
     </g>
     <g id="text_12">
      <!-- 0 -->
      <g transform="translate(30.1875 214.605864)scale(0.1 -0.1)">
       <use xlink:href="#DejaVuSans-48"/>
      </g>
     </g>
    </g>
    <g id="ytick_2">
     <g id="line2d_12">
      <g>
       <use style="stroke:#000000;stroke-width:0.8;" x="43.55" xlink:href="#m01fd3b24ac" y="187.24633"/>
      </g>
     </g>
     <g id="text_13">
      <!-- 5 -->
      <g transform="translate(30.1875 191.045549)scale(0.1 -0.1)">
       <use xlink:href="#DejaVuSans-53"/>
      </g>
     </g>
    </g>
    <g id="ytick_3">
     <g id="line2d_13">
      <g>
       <use style="stroke:#000000;stroke-width:0.8;" x="43.55" xlink:href="#m01fd3b24ac" y="163.686016"/>
      </g>
     </g>
     <g id="text_14">
      <!-- 10 -->
      <g transform="translate(23.825 167.485234)scale(0.1 -0.1)">
       <use xlink:href="#DejaVuSans-49"/>
       <use x="63.623047" xlink:href="#DejaVuSans-48"/>
      </g>
     </g>
    </g>
    <g id="ytick_4">
     <g id="line2d_14">
      <g>
       <use style="stroke:#000000;stroke-width:0.8;" x="43.55" xlink:href="#m01fd3b24ac" y="140.125701"/>
      </g>
     </g>
     <g id="text_15">
      <!-- 15 -->
      <g transform="translate(23.825 143.924919)scale(0.1 -0.1)">
       <use xlink:href="#DejaVuSans-49"/>
       <use x="63.623047" xlink:href="#DejaVuSans-53"/>
      </g>
     </g>
    </g>
    <g id="ytick_5">
     <g id="line2d_15">
      <g>
       <use style="stroke:#000000;stroke-width:0.8;" x="43.55" xlink:href="#m01fd3b24ac" y="116.565386"/>
      </g>
     </g>
     <g id="text_16">
      <!-- 20 -->
      <g transform="translate(23.825 120.364604)scale(0.1 -0.1)">
       <use xlink:href="#DejaVuSans-50"/>
       <use x="63.623047" xlink:href="#DejaVuSans-48"/>
      </g>
     </g>
    </g>
    <g id="ytick_6">
     <g id="line2d_16">
      <g>
       <use style="stroke:#000000;stroke-width:0.8;" x="43.55" xlink:href="#m01fd3b24ac" y="93.005071"/>
      </g>
     </g>
     <g id="text_17">
      <!-- 25 -->
      <g transform="translate(23.825 96.80429)scale(0.1 -0.1)">
       <use xlink:href="#DejaVuSans-50"/>
       <use x="63.623047" xlink:href="#DejaVuSans-53"/>
      </g>
     </g>
    </g>
    <g id="ytick_7">
     <g id="line2d_17">
      <g>
       <use style="stroke:#000000;stroke-width:0.8;" x="43.55" xlink:href="#m01fd3b24ac" y="69.444756"/>
      </g>
     </g>
     <g id="text_18">
      <!-- 30 -->
      <defs>
       <path d="M 40.578125 39.3125 
Q 47.65625 37.796875 51.625 33 
Q 55.609375 28.21875 55.609375 21.1875 
Q 55.609375 10.40625 48.1875 4.484375 
Q 40.765625 -1.421875 27.09375 -1.421875 
Q 22.515625 -1.421875 17.65625 -0.515625 
Q 12.796875 0.390625 7.625 2.203125 
L 7.625 11.71875 
Q 11.71875 9.328125 16.59375 8.109375 
Q 21.484375 6.890625 26.8125 6.890625 
Q 36.078125 6.890625 40.9375 10.546875 
Q 45.796875 14.203125 45.796875 21.1875 
Q 45.796875 27.640625 41.28125 31.265625 
Q 36.765625 34.90625 28.71875 34.90625 
L 20.21875 34.90625 
L 20.21875 43.015625 
L 29.109375 43.015625 
Q 36.375 43.015625 40.234375 45.921875 
Q 44.09375 48.828125 44.09375 54.296875 
Q 44.09375 59.90625 40.109375 62.90625 
Q 36.140625 65.921875 28.71875 65.921875 
Q 24.65625 65.921875 20.015625 65.03125 
Q 15.375 64.15625 9.8125 62.3125 
L 9.8125 71.09375 
Q 15.4375 72.65625 20.34375 73.4375 
Q 25.25 74.21875 29.59375 74.21875 
Q 40.828125 74.21875 47.359375 69.109375 
Q 53.90625 64.015625 53.90625 55.328125 
Q 53.90625 49.265625 50.4375 45.09375 
Q 46.96875 40.921875 40.578125 39.3125 
z
" id="DejaVuSans-51"/>
      </defs>
      <g transform="translate(23.825 73.243975)scale(0.1 -0.1)">
       <use xlink:href="#DejaVuSans-51"/>
       <use x="63.623047" xlink:href="#DejaVuSans-48"/>
      </g>
     </g>
    </g>
    <g id="ytick_8">
     <g id="line2d_18">
      <g>
       <use style="stroke:#000000;stroke-width:0.8;" x="43.55" xlink:href="#m01fd3b24ac" y="45.884441"/>
      </g>
     </g>
     <g id="text_19">
      <!-- 35 -->
      <g transform="translate(23.825 49.68366)scale(0.1 -0.1)">
       <use xlink:href="#DejaVuSans-51"/>
       <use x="63.623047" xlink:href="#DejaVuSans-53"/>
      </g>
     </g>
    </g>
    <g id="ytick_9">
     <g id="line2d_19">
      <g>
       <use style="stroke:#000000;stroke-width:0.8;" x="43.55" xlink:href="#m01fd3b24ac" y="22.324126"/>
      </g>
     </g>
     <g id="text_20">
      <!-- 40 -->
      <defs>
       <path d="M 37.796875 64.3125 
L 12.890625 25.390625 
L 37.796875 25.390625 
z
M 35.203125 72.90625 
L 47.609375 72.90625 
L 47.609375 25.390625 
L 58.015625 25.390625 
L 58.015625 17.1875 
L 47.609375 17.1875 
L 47.609375 0 
L 37.796875 0 
L 37.796875 17.1875 
L 4.890625 17.1875 
L 4.890625 26.703125 
z
" id="DejaVuSans-52"/>
      </defs>
      <g transform="translate(23.825 26.123345)scale(0.1 -0.1)">
       <use xlink:href="#DejaVuSans-52"/>
       <use x="63.623047" xlink:href="#DejaVuSans-48"/>
      </g>
     </g>
    </g>
    <g id="text_21">
     <!-- Students Registered -->
     <defs>
      <path d="M 53.515625 70.515625 
L 53.515625 60.890625 
Q 47.90625 63.578125 42.921875 64.890625 
Q 37.9375 66.21875 33.296875 66.21875 
Q 25.25 66.21875 20.875 63.09375 
Q 16.5 59.96875 16.5 54.203125 
Q 16.5 49.359375 19.40625 46.890625 
Q 22.3125 44.4375 30.421875 42.921875 
L 36.375 41.703125 
Q 47.40625 39.59375 52.65625 34.296875 
Q 57.90625 29 57.90625 20.125 
Q 57.90625 9.515625 50.796875 4.046875 
Q 43.703125 -1.421875 29.984375 -1.421875 
Q 24.8125 -1.421875 18.96875 -0.25 
Q 13.140625 0.921875 6.890625 3.21875 
L 6.890625 13.375 
Q 12.890625 10.015625 18.65625 8.296875 
Q 24.421875 6.59375 29.984375 6.59375 
Q 38.421875 6.59375 43.015625 9.90625 
Q 47.609375 13.234375 47.609375 19.390625 
Q 47.609375 24.75 44.3125 27.78125 
Q 41.015625 30.8125 33.5 32.328125 
L 27.484375 33.5 
Q 16.453125 35.6875 11.515625 40.375 
Q 6.59375 45.0625 6.59375 53.421875 
Q 6.59375 63.09375 13.40625 68.65625 
Q 20.21875 74.21875 32.171875 74.21875 
Q 37.3125 74.21875 42.625 73.28125 
Q 47.953125 72.359375 53.515625 70.515625 
z
" id="DejaVuSans-83"/>
      <path d="M 8.5 21.578125 
L 8.5 54.6875 
L 17.484375 54.6875 
L 17.484375 21.921875 
Q 17.484375 14.15625 20.5 10.265625 
Q 23.53125 6.390625 29.59375 6.390625 
Q 36.859375 6.390625 41.078125 11.03125 
Q 45.3125 15.671875 45.3125 23.6875 
L 45.3125 54.6875 
L 54.296875 54.6875 
L 54.296875 0 
L 45.3125 0 
L 45.3125 8.40625 
Q 42.046875 3.421875 37.71875 1 
Q 33.40625 -1.421875 27.6875 -1.421875 
Q 18.265625 -1.421875 13.375 4.4375 
Q 8.5 10.296875 8.5 21.578125 
z
M 31.109375 56 
z
" id="DejaVuSans-117"/>
      <path d="M 45.40625 46.390625 
L 45.40625 75.984375 
L 54.390625 75.984375 
L 54.390625 0 
L 45.40625 0 
L 45.40625 8.203125 
Q 42.578125 3.328125 38.25 0.953125 
Q 33.9375 -1.421875 27.875 -1.421875 
Q 17.96875 -1.421875 11.734375 6.484375 
Q 5.515625 14.40625 5.515625 27.296875 
Q 5.515625 40.1875 11.734375 48.09375 
Q 17.96875 56 27.875 56 
Q 33.9375 56 38.25 53.625 
Q 42.578125 51.265625 45.40625 46.390625 
z
M 14.796875 27.296875 
Q 14.796875 17.390625 18.875 11.75 
Q 22.953125 6.109375 30.078125 6.109375 
Q 37.203125 6.109375 41.296875 11.75 
Q 45.40625 17.390625 45.40625 27.296875 
Q 45.40625 37.203125 41.296875 42.84375 
Q 37.203125 48.484375 30.078125 48.484375 
Q 22.953125 48.484375 18.875 42.84375 
Q 14.796875 37.203125 14.796875 27.296875 
z
" id="DejaVuSans-100"/>
      <path d="M 54.890625 33.015625 
L 54.890625 0 
L 45.90625 0 
L 45.90625 32.71875 
Q 45.90625 40.484375 42.875 44.328125 
Q 39.84375 48.1875 33.796875 48.1875 
Q 26.515625 48.1875 22.3125 43.546875 
Q 18.109375 38.921875 18.109375 30.90625 
L 18.109375 0 
L 9.078125 0 
L 9.078125 54.6875 
L 18.109375 54.6875 
L 18.109375 46.1875 
Q 21.34375 51.125 25.703125 53.5625 
Q 30.078125 56 35.796875 56 
Q 45.21875 56 50.046875 50.171875 
Q 54.890625 44.34375 54.890625 33.015625 
z
" id="DejaVuSans-110"/>
      <path d="M 44.28125 53.078125 
L 44.28125 44.578125 
Q 40.484375 46.53125 36.375 47.5 
Q 32.28125 48.484375 27.875 48.484375 
Q 21.1875 48.484375 17.84375 46.4375 
Q 14.5 44.390625 14.5 40.28125 
Q 14.5 37.15625 16.890625 35.375 
Q 19.28125 33.59375 26.515625 31.984375 
L 29.59375 31.296875 
Q 39.15625 29.25 43.1875 25.515625 
Q 47.21875 21.78125 47.21875 15.09375 
Q 47.21875 7.46875 41.1875 3.015625 
Q 35.15625 -1.421875 24.609375 -1.421875 
Q 20.21875 -1.421875 15.453125 -0.5625 
Q 10.6875 0.296875 5.421875 2 
L 5.421875 11.28125 
Q 10.40625 8.6875 15.234375 7.390625 
Q 20.0625 6.109375 24.8125 6.109375 
Q 31.15625 6.109375 34.5625 8.28125 
Q 37.984375 10.453125 37.984375 14.40625 
Q 37.984375 18.0625 35.515625 20.015625 
Q 33.0625 21.96875 24.703125 23.78125 
L 21.578125 24.515625 
Q 13.234375 26.265625 9.515625 29.90625 
Q 5.8125 33.546875 5.8125 39.890625 
Q 5.8125 47.609375 11.28125 51.796875 
Q 16.75 56 26.8125 56 
Q 31.78125 56 36.171875 55.265625 
Q 40.578125 54.546875 44.28125 53.078125 
z
" id="DejaVuSans-115"/>
      <path id="DejaVuSans-32"/>
      <path d="M 44.390625 34.1875 
Q 47.5625 33.109375 50.5625 29.59375 
Q 53.5625 26.078125 56.59375 19.921875 
L 66.609375 0 
L 56 0 
L 46.6875 18.703125 
Q 43.0625 26.03125 39.671875 28.421875 
Q 36.28125 30.8125 30.421875 30.8125 
L 19.671875 30.8125 
L 19.671875 0 
L 9.8125 0 
L 9.8125 72.90625 
L 32.078125 72.90625 
Q 44.578125 72.90625 50.734375 67.671875 
Q 56.890625 62.453125 56.890625 51.90625 
Q 56.890625 45.015625 53.6875 40.46875 
Q 50.484375 35.9375 44.390625 34.1875 
z
M 19.671875 64.796875 
L 19.671875 38.921875 
L 32.078125 38.921875 
Q 39.203125 38.921875 42.84375 42.21875 
Q 46.484375 45.515625 46.484375 51.90625 
Q 46.484375 58.296875 42.84375 61.546875 
Q 39.203125 64.796875 32.078125 64.796875 
z
" id="DejaVuSans-82"/>
      <path d="M 45.40625 27.984375 
Q 45.40625 37.75 41.375 43.109375 
Q 37.359375 48.484375 30.078125 48.484375 
Q 22.859375 48.484375 18.828125 43.109375 
Q 14.796875 37.75 14.796875 27.984375 
Q 14.796875 18.265625 18.828125 12.890625 
Q 22.859375 7.515625 30.078125 7.515625 
Q 37.359375 7.515625 41.375 12.890625 
Q 45.40625 18.265625 45.40625 27.984375 
z
M 54.390625 6.78125 
Q 54.390625 -7.171875 48.1875 -13.984375 
Q 42 -20.796875 29.203125 -20.796875 
Q 24.46875 -20.796875 20.265625 -20.09375 
Q 16.0625 -19.390625 12.109375 -17.921875 
L 12.109375 -9.1875 
Q 16.0625 -11.328125 19.921875 -12.34375 
Q 23.78125 -13.375 27.78125 -13.375 
Q 36.625 -13.375 41.015625 -8.765625 
Q 45.40625 -4.15625 45.40625 5.171875 
L 45.40625 9.625 
Q 42.625 4.78125 38.28125 2.390625 
Q 33.9375 0 27.875 0 
Q 17.828125 0 11.671875 7.65625 
Q 5.515625 15.328125 5.515625 27.984375 
Q 5.515625 40.671875 11.671875 48.328125 
Q 17.828125 56 27.875 56 
Q 33.9375 56 38.28125 53.609375 
Q 42.625 51.21875 45.40625 46.390625 
L 45.40625 54.6875 
L 54.390625 54.6875 
z
" id="DejaVuSans-103"/>
      <path d="M 9.421875 54.6875 
L 18.40625 54.6875 
L 18.40625 0 
L 9.421875 0 
z
M 9.421875 75.984375 
L 18.40625 75.984375 
L 18.40625 64.59375 
L 9.421875 64.59375 
z
" id="DejaVuSans-105"/>
      <path d="M 41.109375 46.296875 
Q 39.59375 47.171875 37.8125 47.578125 
Q 36.03125 48 33.890625 48 
Q 26.265625 48 22.1875 43.046875 
Q 18.109375 38.09375 18.109375 28.8125 
L 18.109375 0 
L 9.078125 0 
L 9.078125 54.6875 
L 18.109375 54.6875 
L 18.109375 46.1875 
Q 20.953125 51.171875 25.484375 53.578125 
Q 30.03125 56 36.53125 56 
Q 37.453125 56 38.578125 55.875 
Q 39.703125 55.765625 41.0625 55.515625 
z
" id="DejaVuSans-114"/>
     </defs>
     <g transform="translate(17.745313 167.498979)rotate(-90)scale(0.1 -0.1)">
      <use xlink:href="#DejaVuSans-83"/>
      <use x="63.476562" xlink:href="#DejaVuSans-116"/>
      <use x="102.685547" xlink:href="#DejaVuSans-117"/>
      <use x="166.064453" xlink:href="#DejaVuSans-100"/>
      <use x="229.541016" xlink:href="#DejaVuSans-101"/>
      <use x="291.064453" xlink:href="#DejaVuSans-110"/>
      <use x="354.443359" xlink:href="#DejaVuSans-116"/>
      <use x="393.652344" xlink:href="#DejaVuSans-115"/>
      <use x="445.751953" xlink:href="#DejaVuSans-32"/>
      <use x="477.539062" xlink:href="#DejaVuSans-82"/>
      <use x="546.958984" xlink:href="#DejaVuSans-101"/>
      <use x="608.482422" xlink:href="#DejaVuSans-103"/>
      <use x="671.958984" xlink:href="#DejaVuSans-105"/>
      <use x="699.742188" xlink:href="#DejaVuSans-115"/>
      <use x="751.841797" xlink:href="#DejaVuSans-116"/>
      <use x="791.050781" xlink:href="#DejaVuSans-101"/>
      <use x="852.574219" xlink:href="#DejaVuSans-114"/>
      <use x="893.65625" xlink:href="#DejaVuSans-101"/>
      <use x="955.179688" xlink:href="#DejaVuSans-100"/>
     </g>
    </g>
   </g>
   <g id="line2d_20">
    <path clip-path="url(#p70dc545fc2)" d="M 55.905 210.806645 
L 56.103817 210.806645 
L 56.103817 201.382519 
L 56.21224 201.382519 
L 56.98906 201.382519 
L 56.98906 196.670456 
L 57.080229 196.670456 
L 61.32911 196.670456 
L 61.32911 191.958393 
L 61.423457 191.958393 
L 64.914416 191.958393 
L 64.914416 177.822204 
L 65.008764 177.822204 
L 65.103096 177.822204 
L 65.103096 173.110142 
L 65.19746 173.110142 
L 65.291794 173.110142 
L 65.291794 154.26189 
L 65.386154 154.26189 
L 65.480491 154.26189 
L 65.480491 149.549827 
L 65.574839 149.549827 
L 65.669192 149.549827 
L 65.669192 140.125701 
L 65.763529 140.125701 
L 65.857919 140.125701 
L 65.857919 125.989512 
L 65.952264 125.989512 
L 69.254476 125.989512 
L 69.254476 121.277449 
L 69.348822 121.277449 
L 69.443153 121.277449 
L 69.443153 116.565386 
L 69.5375 116.565386 
L 70.009264 116.565386 
L 70.009264 111.853323 
L 70.103621 111.853323 
L 70.386665 111.853323 
L 70.386665 97.717134 
L 70.481001 97.717134 
L 70.575359 97.717134 
L 70.575359 93.005071 
L 70.66973 93.005071 
L 74.349326 93.005071 
L 74.349326 88.293008 
L 74.443695 88.293008 
L 74.538018 88.293008 
L 74.538018 83.580945 
L 74.632395 83.580945 
L 74.915442 83.580945 
L 74.915442 78.868882 
L 75.009782 78.868882 
L 75.481527 78.868882 
L 75.481527 74.156819 
L 75.575867 74.156819 
L 78.689432 74.156819 
L 78.689432 69.444756 
L 78.783746 69.444756 
L 87.55827 69.444756 
L 87.55827 45.884441 
L 87.652572 45.884441 
L 87.74695 45.884441 
L 87.74695 36.460315 
L 87.84127 36.460315 
L 87.93566 36.460315 
L 87.93566 31.748252 
L 88.029989 31.748252 
L 151.527098 31.748252 
L 151.527098 36.460315 
L 151.621465 36.460315 
L 151.71579 36.460315 
L 151.71579 31.748252 
L 151.810141 31.748252 
L 161.905519 31.748252 
L 161.905519 36.460315 
L 161.999901 36.460315 
L 162.094231 36.460315 
L 162.094231 31.748252 
L 162.188575 31.748252 
L 255.311419 31.748252 
L 255.311419 22.324126 
L 255.405732 22.324126 
L 303.005 22.324126 
L 303.005 22.324126 
" style="fill:none;stroke:#1b9e77;stroke-linecap:square;stroke-width:1.5;"/>
   </g>
   <g id="line2d_21">
    <path clip-path="url(#p70dc545fc2)" d="M 95.294911 196.670456 
L 96.238363 196.670456 
L 96.238363 182.534267 
L 96.332869 182.534267 
L 96.427067 182.534267 
L 96.427067 177.822204 
L 96.521454 177.822204 
L 96.615761 177.822204 
L 96.615761 158.973953 
L 96.710149 158.973953 
L 96.993176 158.973953 
L 96.993176 144.837764 
L 97.087526 144.837764 
L 97.370566 144.837764 
L 97.370566 116.565386 
L 97.464934 116.565386 
L 97.74796 116.565386 
L 97.74796 107.14126 
L 97.842342 107.14126 
L 97.936684 107.14126 
L 97.936684 102.429197 
L 98.031053 102.429197 
L 98.125366 102.429197 
L 98.125366 97.717134 
L 98.219748 97.717134 
L 98.502795 97.717134 
L 98.502795 93.005071 
L 98.5971 93.005071 
L 101.144535 93.005071 
L 101.144535 74.156819 
L 101.238917 74.156819 
L 101.521945 74.156819 
L 101.521945 69.444756 
L 101.616279 69.444756 
L 101.899371 69.444756 
L 101.899371 60.02063 
L 101.993701 60.02063 
L 102.088071 60.02063 
L 102.088071 55.308567 
L 102.182396 55.308567 
L 102.465473 55.308567 
L 102.465473 50.596504 
L 102.559791 50.596504 
L 106.42813 50.596504 
L 106.42813 45.884441 
L 106.52246 45.884441 
L 106.616796 45.884441 
L 106.616796 41.172378 
L 106.711189 41.172378 
L 106.805505 41.172378 
L 106.805505 36.460315 
L 106.899877 36.460315 
L 107.371627 36.460315 
L 107.371627 31.748252 
L 107.465979 31.748252 
L 119.448315 31.748252 
L 119.448315 22.324126 
L 119.542688 22.324126 
L 142.658261 22.324126 
L 142.658261 27.036189 
L 142.752622 27.036189 
L 143.790452 27.036189 
L 143.790452 22.324126 
L 143.884805 22.324126 
L 160.207262 22.324126 
L 160.207262 27.036189 
L 160.301615 27.036189 
L 161.716843 27.036189 
L 161.716843 22.324126 
L 161.811204 22.324126 
L 283.80493 22.324126 
L 283.80493 27.036189 
L 283.899268 27.036189 
L 289.088482 27.036189 
L 289.088482 22.324126 
L 289.18282 22.324126 
L 303.005 22.324126 
L 303.005 22.324126 
" style="fill:none;stroke:#d95f02;stroke-linecap:square;stroke-width:1.5;"/>
   </g>
   <g id="line2d_22">
    <path clip-path="url(#p70dc545fc2)" d="M 55.905 182.534267 
L 56.103817 182.534267 
L 56.103817 177.822204 
L 56.21224 177.822204 
L 57.080229 177.822204 
L 57.080229 173.110142 
L 60.099443 173.110142 
L 60.099443 168.398079 
L 60.385643 168.398079 
L 60.385643 163.686016 
L 60.480003 163.686016 
L 60.574331 163.686016 
L 60.574331 158.973953 
L 60.668697 158.973953 
L 61.140452 158.973953 
L 61.140452 144.837764 
L 61.234821 144.837764 
L 61.32911 144.837764 
L 61.32911 140.125701 
L 61.423457 140.125701 
L 65.103096 140.125701 
L 65.103096 130.701575 
L 65.19746 130.701575 
L 65.291794 130.701575 
L 65.291794 125.989512 
L 65.386154 125.989512 
L 65.480491 125.989512 
L 65.480491 130.701575 
L 65.574839 130.701575 
L 65.857919 130.701575 
L 65.857919 125.989512 
L 65.952264 125.989512 
L 66.04658 125.989512 
L 66.04658 116.565386 
L 66.140923 116.565386 
L 66.990096 116.565386 
L 66.990096 107.14126 
L 67.084456 107.14126 
L 69.065781 107.14126 
L 69.065781 102.429197 
L 69.160121 102.429197 
L 69.254476 102.429197 
L 69.254476 83.580945 
L 69.348822 83.580945 
L 69.443153 83.580945 
L 69.443153 74.156819 
L 69.5375 74.156819 
L 69.820571 74.156819 
L 69.820571 69.444756 
L 69.914922 69.444756 
L 70.009264 69.444756 
L 70.009264 64.732693 
L 70.103621 64.732693 
L 70.197968 64.732693 
L 70.197968 60.02063 
L 70.292328 60.02063 
L 70.386665 60.02063 
L 70.386665 45.884441 
L 70.481001 45.884441 
L 70.575359 45.884441 
L 70.575359 41.172378 
L 70.66973 41.172378 
L 70.764068 41.172378 
L 70.764068 36.460315 
L 70.858401 36.460315 
L 73.971921 36.460315 
L 73.971921 27.036189 
L 74.066285 27.036189 
L 74.160661 27.036189 
L 74.160661 22.324126 
L 74.255 22.324126 
L 96.427067 22.324126 
L 96.427067 27.036189 
L 96.521454 27.036189 
L 96.615761 27.036189 
L 96.615761 22.324126 
L 96.710149 22.324126 
L 283.616201 22.324126 
L 283.616201 27.036189 
L 283.710557 27.036189 
L 283.80493 27.036189 
L 283.80493 22.324126 
L 283.899268 22.324126 
L 303.005 22.324126 
L 303.005 22.324126 
" style="fill:none;stroke:#7570b3;stroke-linecap:square;stroke-width:1.5;"/>
   </g>
   <g id="line2d_23">
    <path clip-path="url(#p70dc545fc2)" d="M 55.905 201.382519 
L 60.951763 201.382519 
L 60.951763 196.670456 
L 61.046084 196.670456 
L 64.725725 196.670456 
L 64.725725 191.958393 
L 64.820039 191.958393 
L 64.914416 191.958393 
L 64.914416 187.24633 
L 65.008764 187.24633 
L 65.103096 187.24633 
L 65.103096 177.822204 
L 65.19746 177.822204 
L 65.291794 177.822204 
L 65.291794 173.110142 
L 65.386154 173.110142 
L 65.480491 173.110142 
L 65.480491 168.398079 
L 65.574839 168.398079 
L 65.669192 168.398079 
L 65.669192 163.686016 
L 65.763529 163.686016 
L 66.04658 163.686016 
L 66.04658 158.973953 
L 66.140923 158.973953 
L 69.254476 158.973953 
L 69.254476 149.549827 
L 69.348822 149.549827 
L 69.443153 149.549827 
L 69.443153 144.837764 
L 69.5375 144.837764 
L 70.197968 144.837764 
L 70.197968 140.125701 
L 70.292328 140.125701 
L 70.386665 140.125701 
L 70.386665 130.701575 
L 70.481001 130.701575 
L 87.55827 130.701575 
L 87.55827 125.989512 
L 87.652572 125.989512 
L 87.74695 125.989512 
L 87.74695 121.277449 
L 87.84127 121.277449 
L 87.93566 121.277449 
L 87.93566 116.565386 
L 88.029989 116.565386 
L 88.124338 116.565386 
L 88.124338 111.853323 
L 88.218678 111.853323 
L 88.313057 111.853323 
L 88.313057 102.429197 
L 88.407384 102.429197 
L 88.501758 102.429197 
L 88.501758 97.717134 
L 88.596082 97.717134 
L 91.89831 97.717134 
L 91.945487 83.580945 
L 91.992658 83.580945 
L 92.275716 83.580945 
L 92.275716 74.156819 
L 92.370062 74.156819 
L 92.841817 74.156819 
L 92.841817 69.444756 
L 92.936169 69.444756 
L 93.030517 69.444756 
L 93.030517 60.02063 
L 93.124872 60.02063 
L 93.219214 60.02063 
L 93.219214 36.460315 
L 93.31356 36.460315 
L 93.407884 36.460315 
L 93.407884 22.324126 
L 93.50232 22.324126 
L 96.238363 22.324126 
L 96.238363 27.036189 
L 96.332869 27.036189 
L 96.615761 27.036189 
L 96.615761 22.324126 
L 96.710149 22.324126 
L 142.28085 22.324126 
L 142.28085 27.036189 
L 142.375232 27.036189 
L 142.469588 27.036189 
L 142.469588 22.324126 
L 142.563899 22.324126 
L 150.772341 22.324126 
L 150.772341 27.036189 
L 150.866655 27.036189 
L 151.149687 27.036189 
L 151.149687 22.324126 
L 151.244084 22.324126 
L 151.527098 22.324126 
L 151.527098 27.036189 
L 151.621465 27.036189 
L 152.281933 27.036189 
L 152.281933 22.324126 
L 152.376258 22.324126 
L 303.005 22.324126 
L 303.005 22.324126 
" style="fill:none;stroke:#e7298a;stroke-linecap:square;stroke-width:1.5;"/>
   </g>
   <g id="line2d_24">
    <path clip-path="url(#p70dc545fc2)" d="M 55.905 201.382519 
L 61.32911 201.382519 
L 61.32911 196.670456 
L 61.423457 196.670456 
L 64.914416 196.670456 
L 64.914416 191.958393 
L 65.008764 191.958393 
L 65.669192 191.958393 
L 65.669192 187.24633 
L 65.763529 187.24633 
L 69.631842 187.24633 
L 69.631842 177.822204 
L 69.726215 177.822204 
L 70.009264 177.822204 
L 70.009264 173.110142 
L 70.103621 173.110142 
L 70.386665 173.110142 
L 70.386665 168.398079 
L 70.481001 168.398079 
L 70.575359 168.398079 
L 70.575359 163.686016 
L 70.66973 163.686016 
L 74.915442 163.686016 
L 74.915442 158.973953 
L 75.009782 158.973953 
L 79.255509 158.973953 
L 79.255509 154.26189 
L 79.349871 154.26189 
L 87.55827 154.26189 
L 87.55827 144.837764 
L 87.652572 144.837764 
L 87.93566 144.837764 
L 87.93566 140.125701 
L 88.029989 140.125701 
L 88.879151 140.125701 
L 88.879151 135.413638 
L 88.973486 135.413638 
L 91.89831 135.413638 
L 91.89831 130.701575 
L 91.992658 130.701575 
L 92.841817 130.701575 
L 92.841817 125.989512 
L 92.936169 125.989512 
L 93.030517 125.989512 
L 93.030517 121.277449 
L 93.124872 121.277449 
L 93.219214 121.277449 
L 93.266382 107.14126 
L 93.31356 107.14126 
L 96.427067 107.14126 
L 96.427067 102.429197 
L 96.521454 102.429197 
L 96.615761 102.429197 
L 96.615761 93.005071 
L 96.710149 93.005071 
L 96.804458 93.005071 
L 96.804458 88.293008 
L 96.898817 88.293008 
L 96.993176 88.293008 
L 97.040348 74.156819 
L 97.087526 74.156819 
L 97.370566 74.156819 
L 97.370566 60.02063 
L 97.464934 60.02063 
L 97.559289 60.02063 
L 97.559289 50.596504 
L 97.653651 50.596504 
L 97.74796 50.596504 
L 97.74796 31.748252 
L 97.842342 31.748252 
L 97.936684 31.748252 
L 97.936684 27.036189 
L 98.031053 27.036189 
L 98.880185 27.036189 
L 98.880185 22.324126 
L 98.974539 22.324126 
L 150.772341 22.324126 
L 150.772341 27.036189 
L 150.866655 27.036189 
L 150.961038 27.036189 
L 150.961038 22.324126 
L 151.055383 22.324126 
L 151.338415 22.324126 
L 151.338415 27.036189 
L 151.432786 27.036189 
L 151.904489 27.036189 
L 151.904489 31.748252 
L 151.998876 31.748252 
L 152.281933 31.748252 
L 152.281933 36.460315 
L 152.376258 36.460315 
L 157.376762 36.460315 
L 157.376762 41.172378 
L 157.471109 41.172378 
L 168.510006 41.172378 
L 168.510006 36.460315 
L 168.604359 36.460315 
L 189.455536 36.460315 
L 189.455536 41.172378 
L 189.549912 41.172378 
L 196.814805 41.172378 
L 196.814805 36.460315 
L 196.909148 36.460315 
L 219.836075 36.460315 
L 219.836075 31.748252 
L 219.930419 31.748252 
L 222.855205 31.748252 
L 222.855205 27.036189 
L 222.949559 27.036189 
L 228.138793 27.036189 
L 228.138793 22.324126 
L 255.311419 22.324126 
L 255.311419 31.748252 
L 255.405732 31.748252 
L 255.877468 31.748252 
L 255.877468 36.460315 
L 255.971863 36.460315 
L 288.711071 36.460315 
L 288.711071 41.172378 
L 288.805455 41.172378 
L 295.504233 41.172378 
L 295.504233 36.460315 
L 295.59857 36.460315 
L 300.033013 36.460315 
L 300.033013 31.748252 
L 300.127335 31.748252 
L 301.353858 31.748252 
L 301.353858 27.036189 
L 301.448256 27.036189 
L 303.005 27.036189 
L 303.005 27.036189 
" style="fill:none;stroke:#66a61e;stroke-linecap:square;stroke-width:1.5;"/>
   </g>
   <g id="line2d_25">
    <path clip-path="url(#p70dc545fc2)" d="M 55.905 191.958393 
L 64.914416 191.958393 
L 64.914416 187.24633 
L 65.008764 187.24633 
L 65.857919 187.24633 
L 65.857919 182.534267 
L 65.952264 182.534267 
L 66.235304 182.534267 
L 66.235304 177.822204 
L 66.329665 177.822204 
L 69.820571 177.822204 
L 69.820571 173.110142 
L 69.914922 173.110142 
L 70.197968 173.110142 
L 70.197968 168.398079 
L 70.292328 168.398079 
L 73.971921 168.398079 
L 73.971921 163.686016 
L 74.066285 163.686016 
L 87.369544 163.686016 
L 87.369544 154.26189 
L 87.463874 154.26189 
L 87.55827 154.26189 
L 87.55827 144.837764 
L 87.652572 144.837764 
L 88.124338 144.837764 
L 88.124338 140.125701 
L 88.218678 140.125701 
L 88.879151 140.125701 
L 88.879151 135.413638 
L 88.973486 135.413638 
L 92.275716 135.413638 
L 92.275716 130.701575 
L 92.370062 130.701575 
L 92.653081 130.701575 
L 92.653081 121.277449 
L 92.747479 121.277449 
L 93.030517 121.277449 
L 93.030517 116.565386 
L 93.124872 116.565386 
L 94.162712 116.565386 
L 94.162712 111.853323 
L 94.25705 111.853323 
L 96.238363 111.853323 
L 96.238363 107.14126 
L 96.332869 107.14126 
L 96.615761 107.14126 
L 96.615761 102.429197 
L 96.710149 102.429197 
L 96.804458 102.429197 
L 96.804458 93.005071 
L 96.898817 93.005071 
L 97.181885 93.005071 
L 97.181885 88.293008 
L 97.276258 88.293008 
L 97.370566 88.293008 
L 97.417759 74.156819 
L 97.464934 74.156819 
L 97.559289 74.156819 
L 97.559289 64.732693 
L 97.653651 64.732693 
L 98.314054 64.732693 
L 98.314054 69.444756 
L 98.408445 69.444756 
L 101.144535 69.444756 
L 101.144535 60.02063 
L 101.238917 60.02063 
L 101.33328 60.02063 
L 101.33328 55.308567 
L 101.427628 55.308567 
L 101.710651 55.308567 
L 101.710651 50.596504 
L 101.805003 50.596504 
L 101.899371 50.596504 
L 101.899371 41.172378 
L 101.993701 41.172378 
L 102.088071 41.172378 
L 102.088071 36.460315 
L 102.182396 36.460315 
L 102.465473 36.460315 
L 102.465473 31.748252 
L 102.559791 31.748252 
L 257.387086 31.748252 
L 257.387086 36.460315 
L 257.481414 36.460315 
L 261.727133 36.460315 
L 261.727133 31.748252 
L 261.821508 31.748252 
L 303.005 31.748252 
L 303.005 31.748252 
" style="fill:none;stroke:#e6ab02;stroke-linecap:square;stroke-width:1.5;"/>
   </g>
   <g id="line2d_26">
    <path clip-path="url(#p70dc545fc2)" d="M 55.905 196.670456 
L 60.951763 196.670456 
L 60.951763 191.958393 
L 61.046084 191.958393 
L 64.725725 191.958393 
L 64.725725 187.24633 
L 64.820039 187.24633 
L 64.914416 187.24633 
L 64.914416 182.534267 
L 65.008764 182.534267 
L 65.291794 182.534267 
L 65.291794 177.822204 
L 65.386154 177.822204 
L 65.480491 177.822204 
L 65.480491 173.110142 
L 65.574839 173.110142 
L 65.669192 173.110142 
L 65.669192 163.686016 
L 65.763529 163.686016 
L 65.857919 163.686016 
L 65.857919 158.973953 
L 65.952264 158.973953 
L 66.04658 158.973953 
L 66.04658 154.26189 
L 66.140923 154.26189 
L 69.065781 154.26189 
L 69.065781 149.549827 
L 69.160121 149.549827 
L 69.254476 149.549827 
L 69.254476 140.125701 
L 69.348822 140.125701 
L 69.631842 140.125701 
L 69.631842 135.413638 
L 69.726215 135.413638 
L 69.820571 135.413638 
L 69.820571 125.989512 
L 69.914922 125.989512 
L 70.197968 125.989512 
L 70.197968 121.277449 
L 70.292328 121.277449 
L 70.575359 121.277449 
L 70.575359 116.565386 
L 70.66973 116.565386 
L 70.764068 116.565386 
L 70.764068 111.853323 
L 70.858401 111.853323 
L 74.160661 111.853323 
L 74.160661 107.14126 
L 74.255 107.14126 
L 74.915442 107.14126 
L 74.915442 102.429197 
L 75.009782 102.429197 
L 79.821578 102.429197 
L 79.821578 97.717134 
L 79.915947 97.717134 
L 87.369544 97.717134 
L 87.369544 93.005071 
L 87.463874 93.005071 
L 87.93566 93.005071 
L 87.93566 78.868882 
L 88.029989 78.868882 
L 88.124338 78.868882 
L 88.124338 69.444756 
L 88.218678 69.444756 
L 88.313057 69.444756 
L 88.313057 60.02063 
L 88.407384 60.02063 
L 88.879151 60.02063 
L 88.879151 55.308567 
L 88.973486 55.308567 
L 91.520921 55.308567 
L 91.520921 50.596504 
L 91.615264 50.596504 
L 92.087005 50.596504 
L 92.087005 45.884441 
L 92.181382 45.884441 
L 92.275716 45.884441 
L 92.275716 41.172378 
L 92.370062 41.172378 
L 92.464403 41.172378 
L 92.464403 36.460315 
L 92.558746 36.460315 
L 93.030517 36.460315 
L 93.030517 31.748252 
L 93.124872 31.748252 
L 303.005 31.748252 
L 303.005 31.748252 
" style="fill:none;stroke:#a6761d;stroke-linecap:square;stroke-width:1.5;"/>
   </g>
   <g id="line2d_27">
    <path clip-path="url(#p70dc545fc2)" d="M 55.905 201.382519 
L 65.103096 201.382519 
L 65.103096 196.670456 
L 65.19746 196.670456 
L 65.669192 196.670456 
L 65.669192 191.958393 
L 65.763529 191.958393 
L 69.820571 191.958393 
L 69.820571 187.24633 
L 69.914922 187.24633 
L 70.197968 187.24633 
L 70.197968 191.958393 
L 70.292328 191.958393 
L 70.386665 191.958393 
L 70.386665 182.534267 
L 70.481001 182.534267 
L 87.55827 182.534267 
L 87.55827 177.822204 
L 87.652572 177.822204 
L 87.93566 177.822204 
L 87.93566 173.110142 
L 88.029989 173.110142 
L 88.313057 173.110142 
L 88.313057 168.398079 
L 88.407384 168.398079 
L 88.501758 168.398079 
L 88.501758 163.686016 
L 88.596082 163.686016 
L 89.445221 163.686016 
L 89.445221 158.973953 
L 89.539608 158.973953 
L 92.464403 158.973953 
L 92.464403 154.26189 
L 92.558746 154.26189 
L 93.030517 154.26189 
L 93.030517 149.549827 
L 93.124872 149.549827 
L 93.219214 149.549827 
L 93.219214 144.837764 
L 93.31356 144.837764 
L 96.427067 144.837764 
L 96.427067 135.413638 
L 96.521454 135.413638 
L 96.615761 135.413638 
L 96.615761 130.701575 
L 96.710149 130.701575 
L 96.804458 130.701575 
L 96.851636 116.565386 
L 96.898817 116.565386 
L 97.559289 116.565386 
L 97.559289 111.853323 
L 97.653651 111.853323 
L 97.74796 111.853323 
L 97.74796 107.14126 
L 97.842342 107.14126 
L 97.936684 107.14126 
L 97.936684 111.853323 
L 98.031053 111.853323 
L 98.125366 111.853323 
L 98.125366 107.14126 
L 98.219748 107.14126 
L 98.314054 107.14126 
L 98.314054 102.429197 
L 98.408445 102.429197 
L 100.578469 102.429197 
L 100.578469 107.14126 
L 100.672791 107.14126 
L 101.144535 107.14126 
L 101.144535 93.005071 
L 101.238917 93.005071 
L 101.521945 93.005071 
L 101.521945 88.293008 
L 101.616279 88.293008 
L 101.899371 88.293008 
L 101.899371 69.444756 
L 101.993701 69.444756 
L 102.088071 69.444756 
L 102.088071 64.732693 
L 102.182396 64.732693 
L 106.239406 64.732693 
L 106.239406 60.02063 
L 106.333749 60.02063 
L 121.52404 60.02063 
L 121.52404 55.308567 
L 121.618388 55.308567 
L 124.543211 55.308567 
L 124.543211 50.596504 
L 124.637534 50.596504 
L 124.731887 50.596504 
L 124.731887 55.308567 
L 124.826258 55.308567 
L 125.109286 55.308567 
L 125.109286 50.596504 
L 125.203658 50.596504 
L 129.638086 50.596504 
L 129.638086 45.884441 
L 129.732422 45.884441 
L 137.374687 45.884441 
L 137.374687 50.596504 
L 137.469045 50.596504 
L 142.658261 50.596504 
L 142.658261 45.884441 
L 142.752622 45.884441 
L 150.772341 45.884441 
L 150.772341 50.596504 
L 150.866655 50.596504 
L 151.149687 50.596504 
L 151.149687 55.308567 
L 151.244084 55.308567 
L 151.71579 55.308567 
L 151.71579 60.02063 
L 151.810141 60.02063 
L 156.999363 60.02063 
L 156.999363 64.732693 
L 157.09375 64.732693 
L 165.113395 64.732693 
L 165.113395 69.444756 
L 165.207771 69.444756 
L 183.983309 69.444756 
L 183.983309 74.156819 
L 184.077638 74.156819 
L 269.652503 74.156819 
L 269.652503 69.444756 
L 269.746891 69.444756 
L 274.747387 69.444756 
L 274.747387 74.156819 
L 274.84176 74.156819 
L 303.005 74.156819 
L 303.005 74.156819 
" style="fill:none;stroke:#666666;stroke-linecap:square;stroke-width:1.5;"/>
   </g>
   <g id="line2d_28">
    <path clip-path="url(#p70dc545fc2)" d="M 55.905 206.094582 
L 65.103096 206.094582 
L 65.103096 201.382519 
L 65.19746 201.382519 
L 70.197968 201.382519 
L 70.197968 191.958393 
L 70.292328 191.958393 
L 87.369544 191.958393 
L 87.369544 187.24633 
L 87.463874 187.24633 
L 87.74695 187.24633 
L 87.74695 182.534267 
L 87.84127 182.534267 
L 88.313057 182.534267 
L 88.313057 177.822204 
L 88.407384 177.822204 
L 91.89831 177.822204 
L 91.89831 173.110142 
L 91.992658 173.110142 
L 92.087005 173.110142 
L 92.087005 163.686016 
L 92.181382 163.686016 
L 92.275716 163.686016 
L 92.275716 158.973953 
L 92.370062 158.973953 
L 92.653081 158.973953 
L 92.653081 154.26189 
L 92.747479 154.26189 
L 92.841817 154.26189 
L 92.841817 144.837764 
L 92.936169 144.837764 
L 93.030517 144.837764 
L 93.030517 135.413638 
L 93.124872 135.413638 
L 93.785326 135.413638 
L 93.785326 130.701575 
L 93.879664 130.701575 
L 94.162712 130.701575 
L 94.162712 125.989512 
L 94.25705 125.989512 
L 94.351376 125.989512 
L 94.351376 130.701575 
L 94.445774 130.701575 
L 96.049684 130.701575 
L 96.049684 135.413638 
L 96.144056 135.413638 
L 96.238363 135.413638 
L 96.238363 140.125701 
L 96.332869 140.125701 
L 96.427067 140.125701 
L 96.427067 135.413638 
L 96.521454 135.413638 
L 96.615761 135.413638 
L 96.615761 140.125701 
L 96.710149 140.125701 
L 96.804458 140.125701 
L 96.804458 135.413638 
L 96.898817 135.413638 
L 96.993176 135.413638 
L 96.993176 130.701575 
L 97.087526 130.701575 
L 97.370566 130.701575 
L 97.370566 135.413638 
L 97.464934 135.413638 
L 101.710651 135.413638 
L 101.710651 130.701575 
L 101.805003 130.701575 
L 102.088071 130.701575 
L 102.088071 125.989512 
L 102.182396 125.989512 
L 106.42813 125.989512 
L 106.42813 121.277449 
L 106.52246 121.277449 
L 107.749006 121.277449 
L 107.749006 116.565386 
L 107.843338 116.565386 
L 119.825728 116.565386 
L 119.825728 111.853323 
L 119.920093 111.853323 
L 120.014424 111.853323 
L 120.014424 107.14126 
L 120.10878 107.14126 
L 120.7692 107.14126 
L 120.7692 102.429197 
L 120.86358 102.429197 
L 129.638086 102.429197 
L 129.638086 97.717134 
L 129.732422 97.717134 
L 130.204132 97.717134 
L 130.204132 93.005071 
L 130.298519 93.005071 
L 139.639099 93.005071 
L 139.639099 88.293008 
L 139.733423 88.293008 
L 143.790452 88.293008 
L 143.790452 93.005071 
L 143.884805 93.005071 
L 151.149687 93.005071 
L 151.149687 97.717134 
L 151.244084 97.717134 
L 183.605903 97.717134 
L 183.605903 93.005071 
L 183.700266 93.005071 
L 215.496003 93.005071 
L 215.496003 88.293008 
L 215.590332 88.293008 
L 219.081266 88.293008 
L 219.081266 83.580945 
L 219.175586 83.580945 
L 232.101457 83.580945 
L 232.101457 78.868882 
L 232.19582 78.868882 
L 259.651503 78.868882 
L 259.651503 83.580945 
L 259.74585 83.580945 
L 259.840154 83.580945 
L 259.840154 78.868882 
L 259.934503 78.868882 
L 297.768609 78.868882 
L 297.768609 83.580945 
L 297.862941 83.580945 
L 303.005 83.580945 
L 303.005 83.580945 
" style="fill:none;stroke:#1b9e77;stroke-dasharray:4.5,1.5;stroke-dashoffset:0;stroke-width:1.5;"/>
   </g>
   <g id="line2d_29">
    <path clip-path="url(#p70dc545fc2)" d="M 55.905 196.670456 
L 60.099443 196.670456 
L 60.099443 191.958393 
L 65.669192 191.958393 
L 65.669192 187.24633 
L 65.763529 187.24633 
L 69.443153 187.24633 
L 69.443153 182.534267 
L 69.5375 182.534267 
L 69.820571 182.534267 
L 69.820571 177.822204 
L 69.914922 177.822204 
L 70.386665 177.822204 
L 70.386665 173.110142 
L 70.481001 173.110142 
L 70.575359 173.110142 
L 70.575359 168.398079 
L 70.66973 168.398079 
L 71.707559 168.398079 
L 71.707559 163.686016 
L 71.801927 163.686016 
L 87.93566 163.686016 
L 87.93566 154.26189 
L 88.029989 154.26189 
L 92.275716 154.26189 
L 92.275716 149.549827 
L 92.370062 149.549827 
L 93.219214 149.549827 
L 93.219214 144.837764 
L 93.31356 144.837764 
L 93.785326 144.837764 
L 93.785326 140.125701 
L 93.879664 140.125701 
L 96.615761 140.125701 
L 96.615761 135.413638 
L 96.710149 135.413638 
L 96.804458 135.413638 
L 96.804458 125.989512 
L 96.898817 125.989512 
L 97.370566 125.989512 
L 97.370566 116.565386 
L 97.464934 116.565386 
L 101.521945 116.565386 
L 101.521945 111.853323 
L 101.616279 111.853323 
L 102.088071 111.853323 
L 102.088071 107.14126 
L 102.182396 107.14126 
L 102.654128 107.14126 
L 102.654128 102.429197 
L 102.748499 102.429197 
L 107.371627 102.429197 
L 107.371627 97.717134 
L 107.465979 97.717134 
L 120.39183 97.717134 
L 120.39183 93.005071 
L 120.486192 93.005071 
L 124.731887 93.005071 
L 124.731887 88.293008 
L 124.826258 88.293008 
L 129.638086 88.293008 
L 129.638086 93.005071 
L 129.732422 93.005071 
L 151.338415 93.005071 
L 151.338415 88.293008 
L 151.432786 88.293008 
L 151.527098 88.293008 
L 151.527098 93.005071 
L 151.621465 93.005071 
L 156.244585 93.005071 
L 156.244585 88.293008 
L 156.338956 88.293008 
L 189.455536 88.293008 
L 189.455536 83.580945 
L 189.549912 83.580945 
L 219.647337 83.580945 
L 219.647337 78.868882 
L 219.741685 78.868882 
L 229.270992 78.868882 
L 229.270992 83.580945 
L 229.365331 83.580945 
L 289.088482 83.580945 
L 289.088482 88.293008 
L 289.18282 88.293008 
L 291.35288 88.293008 
L 291.35288 93.005071 
L 291.447227 93.005071 
L 303.005 93.005071 
L 303.005 93.005071 
" style="fill:none;stroke:#d95f02;stroke-dasharray:4.5,1.5;stroke-dashoffset:0;stroke-width:1.5;"/>
   </g>
   <g id="line2d_30">
    <path clip-path="url(#p70dc545fc2)" d="M 55.905 210.806645 
L 61.517805 210.806645 
L 61.517805 206.094582 
L 61.61216 206.094582 
L 62.272637 206.094582 
L 62.272637 201.382519 
L 62.366977 201.382519 
L 74.160661 201.382519 
L 74.160661 196.670456 
L 74.255 196.670456 
L 87.369544 196.670456 
L 87.369544 191.958393 
L 87.463874 191.958393 
L 88.690428 191.958393 
L 88.690428 182.534267 
L 88.78477 182.534267 
L 92.275716 182.534267 
L 92.275716 177.822204 
L 92.370062 177.822204 
L 92.464403 177.822204 
L 92.464403 173.110142 
L 92.558746 173.110142 
L 93.030517 173.110142 
L 93.030517 163.686016 
L 93.124872 163.686016 
L 93.219214 163.686016 
L 93.219214 158.973953 
L 93.31356 158.973953 
L 94.351376 158.973953 
L 94.351376 154.26189 
L 94.445774 154.26189 
L 96.615761 154.26189 
L 96.615761 158.973953 
L 96.710149 158.973953 
L 96.993176 158.973953 
L 96.993176 154.26189 
L 97.087526 154.26189 
L 97.181885 154.26189 
L 97.181885 149.549827 
L 97.276258 149.549827 
L 97.559289 149.549827 
L 97.559289 144.837764 
L 97.653651 144.837764 
L 97.74796 144.837764 
L 97.74796 149.549827 
L 97.842342 149.549827 
L 97.936684 149.549827 
L 97.936684 144.837764 
L 98.031053 144.837764 
L 101.144535 144.837764 
L 101.144535 140.125701 
L 101.238917 140.125701 
L 107.182926 140.125701 
L 107.182926 135.413638 
L 107.277263 135.413638 
L 119.825728 135.413638 
L 119.825728 130.701575 
L 119.920093 130.701575 
L 137.752094 130.701575 
L 137.752094 125.989512 
L 137.846486 125.989512 
L 160.207262 125.989512 
L 160.207262 121.277449 
L 160.301615 121.277449 
L 183.983309 121.277449 
L 183.983309 116.565386 
L 184.077638 116.565386 
L 228.138793 116.565386 
L 228.138793 111.853323 
L 246.253856 111.853323 
L 246.253856 107.14126 
L 246.348227 107.14126 
L 283.616201 107.14126 
L 283.616201 102.429197 
L 283.710557 102.429197 
L 288.899767 102.429197 
L 288.899767 97.717134 
L 288.99412 97.717134 
L 295.881606 97.717134 
L 295.881606 93.005071 
L 295.97598 93.005071 
L 303.005 93.005071 
L 303.005 93.005071 
" style="fill:none;stroke:#7570b3;stroke-dasharray:4.5,1.5;stroke-dashoffset:0;stroke-width:1.5;"/>
   </g>
   <g id="line2d_31">
    <path clip-path="url(#p70dc545fc2)" d="M 55.905 210.806645 
L 60.76321 210.806645 
L 60.76321 206.094582 
L 60.857397 206.094582 
L 61.140452 206.094582 
L 61.140452 201.382519 
L 61.234821 201.382519 
L 65.480491 201.382519 
L 65.480491 196.670456 
L 65.574839 196.670456 
L 70.386665 196.670456 
L 70.386665 191.958393 
L 70.481001 191.958393 
L 73.405852 191.958393 
L 73.405852 187.24633 
L 73.500229 187.24633 
L 74.349326 187.24633 
L 74.349326 182.534267 
L 74.443695 182.534267 
L 74.72674 182.534267 
L 74.72674 177.822204 
L 74.821072 177.822204 
L 87.369544 177.822204 
L 87.369544 168.398079 
L 87.463874 168.398079 
L 87.74695 168.398079 
L 87.74695 163.686016 
L 87.84127 163.686016 
L 87.93566 163.686016 
L 87.93566 158.973953 
L 88.029989 158.973953 
L 88.124338 158.973953 
L 88.124338 154.26189 
L 88.218678 154.26189 
L 88.313057 154.26189 
L 88.313057 144.837764 
L 88.407384 144.837764 
L 88.501758 144.837764 
L 88.501758 140.125701 
L 88.596082 140.125701 
L 88.879151 140.125701 
L 88.879151 135.413638 
L 88.973486 135.413638 
L 89.256565 135.413638 
L 89.256565 130.701575 
L 89.350898 130.701575 
L 89.82261 130.701575 
L 89.82261 125.989512 
L 89.917004 125.989512 
L 91.89831 125.989512 
L 91.89831 121.277449 
L 91.992658 121.277449 
L 92.087005 121.277449 
L 92.087005 116.565386 
L 92.181382 116.565386 
L 92.275716 116.565386 
L 92.275716 102.429197 
L 92.370062 102.429197 
L 92.464403 102.429197 
L 92.464403 97.717134 
L 92.558746 97.717134 
L 92.653081 97.717134 
L 92.653081 93.005071 
L 92.747479 93.005071 
L 94.351376 93.005071 
L 94.351376 97.717134 
L 94.445774 97.717134 
L 96.804458 97.717134 
L 96.804458 93.005071 
L 96.898817 93.005071 
L 96.993176 93.005071 
L 96.993176 97.717134 
L 97.087526 97.717134 
L 97.181885 97.717134 
L 97.181885 93.005071 
L 97.276258 93.005071 
L 102.465473 93.005071 
L 102.465473 97.717134 
L 102.559791 97.717134 
L 102.654128 97.717134 
L 102.654128 93.005071 
L 102.748499 93.005071 
L 283.238833 93.005071 
L 283.238833 97.717134 
L 283.333144 97.717134 
L 297.768609 97.717134 
L 297.768609 93.005071 
L 297.862941 93.005071 
L 303.005 93.005071 
L 303.005 93.005071 
" style="fill:none;stroke:#e7298a;stroke-dasharray:4.5,1.5;stroke-dashoffset:0;stroke-width:1.5;"/>
   </g>
   <g id="line2d_32">
    <path clip-path="url(#p70dc545fc2)" d="M 140.629749 210.806645 
L 142.28085 210.806645 
L 142.28085 206.094582 
L 142.375232 206.094582 
L 147.941851 206.094582 
L 147.941851 201.382519 
L 148.036173 201.382519 
L 150.772341 201.382519 
L 150.772341 182.534267 
L 150.866655 182.534267 
L 151.149687 182.534267 
L 151.149687 173.110142 
L 151.244084 173.110142 
L 151.527098 173.110142 
L 151.527098 158.973953 
L 151.621465 158.973953 
L 151.904489 158.973953 
L 151.904489 154.26189 
L 151.998876 154.26189 
L 155.678503 154.26189 
L 155.678503 149.549827 
L 155.772851 149.549827 
L 156.621986 149.549827 
L 156.621986 144.837764 
L 156.716329 144.837764 
L 156.999363 144.837764 
L 156.999363 140.125701 
L 157.09375 140.125701 
L 157.376762 140.125701 
L 157.376762 135.413638 
L 157.471109 135.413638 
L 157.565467 135.413638 
L 157.565467 130.701575 
L 157.659797 130.701575 
L 160.207262 130.701575 
L 160.207262 125.989512 
L 160.301615 125.989512 
L 161.905519 125.989512 
L 161.905519 121.277449 
L 161.999901 121.277449 
L 165.113395 121.277449 
L 165.113395 116.565386 
L 165.207771 116.565386 
L 222.855205 116.565386 
L 222.855205 121.277449 
L 222.949559 121.277449 
L 223.798688 121.277449 
L 223.798688 116.565386 
L 223.893073 116.565386 
L 255.500108 116.565386 
L 255.500108 111.853323 
L 255.594471 111.853323 
L 255.877468 111.853323 
L 255.877468 107.14126 
L 255.971863 107.14126 
L 257.387086 107.14126 
L 257.387086 102.429197 
L 257.481414 102.429197 
L 283.050097 102.429197 
L 283.050097 97.717134 
L 283.144454 97.717134 
L 303.005 97.717134 
L 303.005 97.717134 
" style="fill:none;stroke:#66a61e;stroke-dasharray:4.5,1.5;stroke-dashoffset:0;stroke-width:1.5;"/>
   </g>
   <g id="line2d_33">
    <path clip-path="url(#p70dc545fc2)" d="M 55.905 206.094582 
L 64.725725 206.094582 
L 64.725725 201.382519 
L 64.820039 201.382519 
L 64.914416 201.382519 
L 64.914416 196.670456 
L 65.008764 196.670456 
L 65.669192 196.670456 
L 65.669192 187.24633 
L 65.763529 187.24633 
L 69.254476 187.24633 
L 69.254476 182.534267 
L 69.348822 182.534267 
L 70.197968 182.534267 
L 70.197968 177.822204 
L 70.292328 177.822204 
L 70.386665 177.822204 
L 70.386665 173.110142 
L 70.481001 173.110142 
L 70.575359 173.110142 
L 70.575359 168.398079 
L 70.66973 168.398079 
L 87.74695 168.398079 
L 87.74695 163.686016 
L 87.84127 163.686016 
L 87.93566 163.686016 
L 87.93566 158.973953 
L 88.029989 158.973953 
L 88.124338 158.973953 
L 88.124338 149.549827 
L 88.218678 149.549827 
L 92.841817 149.549827 
L 92.841817 144.837764 
L 92.936169 144.837764 
L 93.030517 144.837764 
L 93.030517 140.125701 
L 93.124872 140.125701 
L 96.238363 140.125701 
L 96.238363 144.837764 
L 96.332869 144.837764 
L 96.804458 144.837764 
L 96.804458 135.413638 
L 96.898817 135.413638 
L 96.993176 135.413638 
L 96.993176 140.125701 
L 97.087526 140.125701 
L 97.181885 140.125701 
L 97.181885 135.413638 
L 97.276258 135.413638 
L 97.559289 135.413638 
L 97.559289 125.989512 
L 97.653651 125.989512 
L 97.74796 125.989512 
L 97.74796 121.277449 
L 97.842342 121.277449 
L 106.616796 121.277449 
L 106.616796 116.565386 
L 106.711189 116.565386 
L 107.182926 116.565386 
L 107.182926 111.853323 
L 107.277263 111.853323 
L 116.240437 111.853323 
L 116.240437 107.14126 
L 116.334788 107.14126 
L 133.412021 107.14126 
L 133.412021 102.429197 
L 133.506385 102.429197 
L 134.166815 102.429197 
L 134.166815 97.717134 
L 134.26121 97.717134 
L 137.940819 97.717134 
L 137.940819 93.005071 
L 138.035174 93.005071 
L 152.848027 93.005071 
L 152.848027 88.293008 
L 152.942342 88.293008 
L 265.312406 88.293008 
L 265.312406 93.005071 
L 265.4068 93.005071 
L 269.652503 93.005071 
L 269.652503 97.717134 
L 269.746891 97.717134 
L 303.005 97.717134 
L 303.005 97.717134 
" style="fill:none;stroke:#e6ab02;stroke-dasharray:4.5,1.5;stroke-dashoffset:0;stroke-width:1.5;"/>
   </g>
   <g id="line2d_34">
    <path clip-path="url(#p70dc545fc2)" d="M 55.905 206.094582 
L 65.291794 206.094582 
L 65.291794 196.670456 
L 65.386154 196.670456 
L 69.443153 196.670456 
L 69.443153 187.24633 
L 69.5375 187.24633 
L 69.631842 187.24633 
L 69.631842 182.534267 
L 69.726215 182.534267 
L 70.386665 182.534267 
L 70.386665 177.822204 
L 70.481001 177.822204 
L 70.575359 177.822204 
L 70.575359 173.110142 
L 70.66973 173.110142 
L 88.124338 173.110142 
L 88.124338 168.398079 
L 88.218678 168.398079 
L 88.313057 168.398079 
L 88.313057 163.686016 
L 88.407384 163.686016 
L 88.501758 163.686016 
L 88.501758 158.973953 
L 88.596082 158.973953 
L 89.067813 158.973953 
L 89.067813 154.26189 
L 89.162205 154.26189 
L 89.256565 154.26189 
L 89.256565 158.973953 
L 89.350898 158.973953 
L 91.89831 158.973953 
L 91.89831 140.125701 
L 91.992658 140.125701 
L 92.275716 140.125701 
L 92.275716 130.701575 
L 92.370062 130.701575 
L 92.464403 130.701575 
L 92.464403 125.989512 
L 92.558746 125.989512 
L 92.653081 125.989512 
L 92.653081 116.565386 
L 92.747479 116.565386 
L 303.005 116.565386 
L 303.005 116.565386 
" style="fill:none;stroke:#a6761d;stroke-dasharray:4.5,1.5;stroke-dashoffset:0;stroke-width:1.5;"/>
   </g>
   <g id="line2d_35">
    <path clip-path="url(#p70dc545fc2)" d="M 55.905 210.806645 
L 65.669192 210.806645 
L 65.669192 206.094582 
L 65.763529 206.094582 
L 65.857919 206.094582 
L 65.857919 201.382519 
L 65.952264 201.382519 
L 69.631842 201.382519 
L 69.631842 196.670456 
L 69.726215 196.670456 
L 70.575359 196.670456 
L 70.575359 191.958393 
L 70.66973 191.958393 
L 70.952756 191.958393 
L 70.952756 187.24633 
L 71.047127 187.24633 
L 71.330173 187.24633 
L 71.330173 182.534267 
L 71.42453 182.534267 
L 74.160661 182.534267 
L 74.160661 187.24633 
L 74.255 187.24633 
L 87.55827 187.24633 
L 87.55827 182.534267 
L 87.652572 182.534267 
L 88.690428 182.534267 
L 88.690428 173.110142 
L 88.78477 173.110142 
L 92.087005 173.110142 
L 92.087005 168.398079 
L 92.181382 168.398079 
L 92.841817 168.398079 
L 92.841817 149.549827 
L 92.936169 149.549827 
L 93.030517 149.549827 
L 93.030517 144.837764 
L 93.124872 144.837764 
L 93.219214 144.837764 
L 93.219214 140.125701 
L 93.31356 140.125701 
L 151.149687 140.125701 
L 151.149687 144.837764 
L 151.244084 144.837764 
L 151.338415 144.837764 
L 151.338415 140.125701 
L 151.432786 140.125701 
L 265.312406 140.125701 
L 265.312406 135.413638 
L 265.4068 135.413638 
L 274.747387 135.413638 
L 274.747387 130.701575 
L 274.84176 130.701575 
L 288.711071 130.701575 
L 288.711071 125.989512 
L 288.805455 125.989512 
L 291.35288 125.989512 
L 291.35288 121.277449 
L 291.447227 121.277449 
L 292.107667 121.277449 
L 292.107667 116.565386 
L 292.202001 116.565386 
L 303.005 116.565386 
L 303.005 116.565386 
" style="fill:none;stroke:#666666;stroke-dasharray:4.5,1.5;stroke-dashoffset:0;stroke-width:1.5;"/>
   </g>
   <g id="line2d_36"/>
   <g id="line2d_37"/>
   <g id="line2d_38"/>
   <g id="line2d_39"/>
   <g id="line2d_40"/>
   <g id="line2d_41"/>
   <g id="line2d_42"/>
   <g id="line2d_43"/>
   <g id="line2d_44"/>
   <g id="line2d_45"/>
   <g id="line2d_46"/>
   <g id="line2d_47"/>
   <g id="line2d_48"/>
   <g id="line2d_49"/>
   <g id="line2d_50"/>
   <g id="line2d_51"/>
   <g id="line2d_52"/>
   <g id="patch_3">
    <path d="M 43.55 220.230771 
L 43.55 12.9 
" style="fill:none;stroke:#000000;stroke-linecap:square;stroke-linejoin:miter;stroke-width:0.8;"/>
   </g>
   <g id="patch_4">
    <path d="M 315.36 220.230771 
L 315.36 12.9 
" style="fill:none;stroke:#000000;stroke-linecap:square;stroke-linejoin:miter;stroke-width:0.8;"/>
   </g>
   <g id="patch_5">
    <path d="M 43.55 220.230771 
L 315.36 220.230771 
" style="fill:none;stroke:#000000;stroke-linecap:square;stroke-linejoin:miter;stroke-width:0.8;"/>
   </g>
   <g id="patch_6">
    <path d="M 43.55 12.9 
L 315.36 12.9 
" style="fill:none;stroke:#000000;stroke-linecap:square;stroke-linejoin:miter;stroke-width:0.8;"/>
   </g>
  </g>
  <g id="legend_1">
   <g id="patch_7">
    <path d="M 331.8625 262.528125 
L 420 262.528125 
Q 422 262.528125 422 260.528125 
L 422 12 
Q 422 10 420 10 
L 331.8625 10 
Q 329.8625 10 329.8625 12 
L 329.8625 260.528125 
Q 329.8625 262.528125 331.8625 262.528125 
z
" style="fill:#ffffff;opacity:0.8;stroke:#cccccc;stroke-linejoin:miter;"/>
   </g>
   <g id="text_22">
    <!-- 494/610 Reg. -->
    <defs>
     <path d="M 25.390625 72.90625 
L 33.6875 72.90625 
L 8.296875 -9.28125 
L 0 -9.28125 
z
" id="DejaVuSans-47"/>
     <path d="M 33.015625 40.375 
Q 26.375 40.375 22.484375 35.828125 
Q 18.609375 31.296875 18.609375 23.390625 
Q 18.609375 15.53125 22.484375 10.953125 
Q 26.375 6.390625 33.015625 6.390625 
Q 39.65625 6.390625 43.53125 10.953125 
Q 47.40625 15.53125 47.40625 23.390625 
Q 47.40625 31.296875 43.53125 35.828125 
Q 39.65625 40.375 33.015625 40.375 
z
M 52.59375 71.296875 
L 52.59375 62.3125 
Q 48.875 64.0625 45.09375 64.984375 
Q 41.3125 65.921875 37.59375 65.921875 
Q 27.828125 65.921875 22.671875 59.328125 
Q 17.53125 52.734375 16.796875 39.40625 
Q 19.671875 43.65625 24.015625 45.921875 
Q 28.375 48.1875 33.59375 48.1875 
Q 44.578125 48.1875 50.953125 41.515625 
Q 57.328125 34.859375 57.328125 23.390625 
Q 57.328125 12.15625 50.6875 5.359375 
Q 44.046875 -1.421875 33.015625 -1.421875 
Q 20.359375 -1.421875 13.671875 8.265625 
Q 6.984375 17.96875 6.984375 36.375 
Q 6.984375 53.65625 15.1875 63.9375 
Q 23.390625 74.21875 37.203125 74.21875 
Q 40.921875 74.21875 44.703125 73.484375 
Q 48.484375 72.75 52.59375 71.296875 
z
" id="DejaVuSans-54"/>
     <path d="M 10.6875 12.40625 
L 21 12.40625 
L 21 0 
L 10.6875 0 
z
" id="DejaVuSans-46"/>
    </defs>
    <g transform="translate(342.259375 21.598437)scale(0.1 -0.1)">
     <use xlink:href="#DejaVuSans-52"/>
     <use x="63.623047" xlink:href="#DejaVuSans-57"/>
     <use x="127.246094" xlink:href="#DejaVuSans-52"/>
     <use x="190.869141" xlink:href="#DejaVuSans-47"/>
     <use x="224.560547" xlink:href="#DejaVuSans-54"/>
     <use x="288.183594" xlink:href="#DejaVuSans-49"/>
     <use x="351.806641" xlink:href="#DejaVuSans-48"/>
     <use x="415.429688" xlink:href="#DejaVuSans-32"/>
     <use x="447.216797" xlink:href="#DejaVuSans-82"/>
     <use x="516.636719" xlink:href="#DejaVuSans-101"/>
     <use x="578.160156" xlink:href="#DejaVuSans-103"/>
     <use x="641.636719" xlink:href="#DejaVuSans-46"/>
    </g>
   </g>
   <g id="line2d_53">
    <path d="M 333.8625 32.776562 
L 353.8625 32.776562 
" style="fill:none;stroke:#1b9e77;stroke-linecap:square;stroke-width:1.5;"/>
   </g>
   <g id="line2d_54"/>
   <g id="text_23">
    <!-- AS (40) -->
    <defs>
     <path d="M 34.1875 63.1875 
L 20.796875 26.90625 
L 47.609375 26.90625 
z
M 28.609375 72.90625 
L 39.796875 72.90625 
L 67.578125 0 
L 57.328125 0 
L 50.6875 18.703125 
L 17.828125 18.703125 
L 11.1875 0 
L 0.78125 0 
z
" id="DejaVuSans-65"/>
     <path d="M 31 75.875 
Q 24.46875 64.65625 21.28125 53.65625 
Q 18.109375 42.671875 18.109375 31.390625 
Q 18.109375 20.125 21.3125 9.0625 
Q 24.515625 -2 31 -13.1875 
L 23.1875 -13.1875 
Q 15.875 -1.703125 12.234375 9.375 
Q 8.59375 20.453125 8.59375 31.390625 
Q 8.59375 42.28125 12.203125 53.3125 
Q 15.828125 64.359375 23.1875 75.875 
z
" id="DejaVuSans-40"/>
     <path d="M 8.015625 75.875 
L 15.828125 75.875 
Q 23.140625 64.359375 26.78125 53.3125 
Q 30.421875 42.28125 30.421875 31.390625 
Q 30.421875 20.453125 26.78125 9.375 
Q 23.140625 -1.703125 15.828125 -13.1875 
L 8.015625 -13.1875 
Q 14.5 -2 17.703125 9.0625 
Q 20.90625 20.125 20.90625 31.390625 
Q 20.90625 42.671875 17.703125 53.65625 
Q 14.5 64.65625 8.015625 75.875 
z
" id="DejaVuSans-41"/>
    </defs>
    <g transform="translate(361.8625 36.276562)scale(0.1 -0.1)">
     <use xlink:href="#DejaVuSans-65"/>
     <use x="68.408203" xlink:href="#DejaVuSans-83"/>
     <use x="131.884766" xlink:href="#DejaVuSans-32"/>
     <use x="163.671875" xlink:href="#DejaVuSans-40"/>
     <use x="202.685547" xlink:href="#DejaVuSans-52"/>
     <use x="266.308594" xlink:href="#DejaVuSans-48"/>
     <use x="329.931641" xlink:href="#DejaVuSans-41"/>
    </g>
   </g>
   <g id="line2d_55">
    <path d="M 333.8625 47.454688 
L 353.8625 47.454688 
" style="fill:none;stroke:#d95f02;stroke-linecap:square;stroke-width:1.5;"/>
   </g>
   <g id="line2d_56"/>
   <g id="text_24">
    <!-- AUS (40) -->
    <defs>
     <path d="M 8.6875 72.90625 
L 18.609375 72.90625 
L 18.609375 28.609375 
Q 18.609375 16.890625 22.84375 11.734375 
Q 27.09375 6.59375 36.625 6.59375 
Q 46.09375 6.59375 50.34375 11.734375 
Q 54.59375 16.890625 54.59375 28.609375 
L 54.59375 72.90625 
L 64.5 72.90625 
L 64.5 27.390625 
Q 64.5 13.140625 57.4375 5.859375 
Q 50.390625 -1.421875 36.625 -1.421875 
Q 22.796875 -1.421875 15.734375 5.859375 
Q 8.6875 13.140625 8.6875 27.390625 
z
" id="DejaVuSans-85"/>
    </defs>
    <g transform="translate(361.8625 50.954688)scale(0.1 -0.1)">
     <use xlink:href="#DejaVuSans-65"/>
     <use x="68.408203" xlink:href="#DejaVuSans-85"/>
     <use x="141.601562" xlink:href="#DejaVuSans-83"/>
     <use x="205.078125" xlink:href="#DejaVuSans-32"/>
     <use x="236.865234" xlink:href="#DejaVuSans-40"/>
     <use x="275.878906" xlink:href="#DejaVuSans-52"/>
     <use x="339.501953" xlink:href="#DejaVuSans-48"/>
     <use x="403.125" xlink:href="#DejaVuSans-41"/>
    </g>
   </g>
   <g id="line2d_57">
    <path d="M 333.8625 62.132812 
L 353.8625 62.132812 
" style="fill:none;stroke:#7570b3;stroke-linecap:square;stroke-width:1.5;"/>
   </g>
   <g id="line2d_58"/>
   <g id="text_25">
    <!-- COML (40) -->
    <defs>
     <path d="M 64.40625 67.28125 
L 64.40625 56.890625 
Q 59.421875 61.53125 53.78125 63.8125 
Q 48.140625 66.109375 41.796875 66.109375 
Q 29.296875 66.109375 22.65625 58.46875 
Q 16.015625 50.828125 16.015625 36.375 
Q 16.015625 21.96875 22.65625 14.328125 
Q 29.296875 6.6875 41.796875 6.6875 
Q 48.140625 6.6875 53.78125 8.984375 
Q 59.421875 11.28125 64.40625 15.921875 
L 64.40625 5.609375 
Q 59.234375 2.09375 53.4375 0.328125 
Q 47.65625 -1.421875 41.21875 -1.421875 
Q 24.65625 -1.421875 15.125 8.703125 
Q 5.609375 18.84375 5.609375 36.375 
Q 5.609375 53.953125 15.125 64.078125 
Q 24.65625 74.21875 41.21875 74.21875 
Q 47.75 74.21875 53.53125 72.484375 
Q 59.328125 70.75 64.40625 67.28125 
z
" id="DejaVuSans-67"/>
     <path d="M 39.40625 66.21875 
Q 28.65625 66.21875 22.328125 58.203125 
Q 16.015625 50.203125 16.015625 36.375 
Q 16.015625 22.609375 22.328125 14.59375 
Q 28.65625 6.59375 39.40625 6.59375 
Q 50.140625 6.59375 56.421875 14.59375 
Q 62.703125 22.609375 62.703125 36.375 
Q 62.703125 50.203125 56.421875 58.203125 
Q 50.140625 66.21875 39.40625 66.21875 
z
M 39.40625 74.21875 
Q 54.734375 74.21875 63.90625 63.9375 
Q 73.09375 53.65625 73.09375 36.375 
Q 73.09375 19.140625 63.90625 8.859375 
Q 54.734375 -1.421875 39.40625 -1.421875 
Q 24.03125 -1.421875 14.8125 8.828125 
Q 5.609375 19.09375 5.609375 36.375 
Q 5.609375 53.65625 14.8125 63.9375 
Q 24.03125 74.21875 39.40625 74.21875 
z
" id="DejaVuSans-79"/>
     <path d="M 9.8125 72.90625 
L 24.515625 72.90625 
L 43.109375 23.296875 
L 61.8125 72.90625 
L 76.515625 72.90625 
L 76.515625 0 
L 66.890625 0 
L 66.890625 64.015625 
L 48.09375 14.015625 
L 38.1875 14.015625 
L 19.390625 64.015625 
L 19.390625 0 
L 9.8125 0 
z
" id="DejaVuSans-77"/>
     <path d="M 9.8125 72.90625 
L 19.671875 72.90625 
L 19.671875 8.296875 
L 55.171875 8.296875 
L 55.171875 0 
L 9.8125 0 
z
" id="DejaVuSans-76"/>
    </defs>
    <g transform="translate(361.8625 65.632812)scale(0.1 -0.1)">
     <use xlink:href="#DejaVuSans-67"/>
     <use x="69.824219" xlink:href="#DejaVuSans-79"/>
     <use x="148.535156" xlink:href="#DejaVuSans-77"/>
     <use x="234.814453" xlink:href="#DejaVuSans-76"/>
     <use x="290.527344" xlink:href="#DejaVuSans-32"/>
     <use x="322.314453" xlink:href="#DejaVuSans-40"/>
     <use x="361.328125" xlink:href="#DejaVuSans-52"/>
     <use x="424.951172" xlink:href="#DejaVuSans-48"/>
     <use x="488.574219" xlink:href="#DejaVuSans-41"/>
    </g>
   </g>
   <g id="line2d_59">
    <path d="M 333.8625 76.810937 
L 353.8625 76.810937 
" style="fill:none;stroke:#e7298a;stroke-linecap:square;stroke-width:1.5;"/>
   </g>
   <g id="line2d_60"/>
   <g id="text_26">
    <!-- GDD (40) -->
    <defs>
     <path d="M 59.515625 10.40625 
L 59.515625 29.984375 
L 43.40625 29.984375 
L 43.40625 38.09375 
L 69.28125 38.09375 
L 69.28125 6.78125 
Q 63.578125 2.734375 56.6875 0.65625 
Q 49.8125 -1.421875 42 -1.421875 
Q 24.90625 -1.421875 15.25 8.5625 
Q 5.609375 18.5625 5.609375 36.375 
Q 5.609375 54.25 15.25 64.234375 
Q 24.90625 74.21875 42 74.21875 
Q 49.125 74.21875 55.546875 72.453125 
Q 61.96875 70.703125 67.390625 67.28125 
L 67.390625 56.78125 
Q 61.921875 61.421875 55.765625 63.765625 
Q 49.609375 66.109375 42.828125 66.109375 
Q 29.4375 66.109375 22.71875 58.640625 
Q 16.015625 51.171875 16.015625 36.375 
Q 16.015625 21.625 22.71875 14.15625 
Q 29.4375 6.6875 42.828125 6.6875 
Q 48.046875 6.6875 52.140625 7.59375 
Q 56.25 8.5 59.515625 10.40625 
z
" id="DejaVuSans-71"/>
    </defs>
    <g transform="translate(361.8625 80.310937)scale(0.1 -0.1)">
     <use xlink:href="#DejaVuSans-71"/>
     <use x="77.490234" xlink:href="#DejaVuSans-68"/>
     <use x="154.492188" xlink:href="#DejaVuSans-68"/>
     <use x="231.494141" xlink:href="#DejaVuSans-32"/>
     <use x="263.28125" xlink:href="#DejaVuSans-40"/>
     <use x="302.294922" xlink:href="#DejaVuSans-52"/>
     <use x="365.917969" xlink:href="#DejaVuSans-48"/>
     <use x="429.541016" xlink:href="#DejaVuSans-41"/>
    </g>
   </g>
   <g id="line2d_61">
    <path d="M 333.8625 91.489062 
L 353.8625 91.489062 
" style="fill:none;stroke:#66a61e;stroke-linecap:square;stroke-width:1.5;"/>
   </g>
   <g id="line2d_62"/>
   <g id="text_27">
    <!-- SA (39) -->
    <g transform="translate(361.8625 94.989062)scale(0.1 -0.1)">
     <use xlink:href="#DejaVuSans-83"/>
     <use x="63.492188" xlink:href="#DejaVuSans-65"/>
     <use x="131.900391" xlink:href="#DejaVuSans-32"/>
     <use x="163.6875" xlink:href="#DejaVuSans-40"/>
     <use x="202.701172" xlink:href="#DejaVuSans-51"/>
     <use x="266.324219" xlink:href="#DejaVuSans-57"/>
     <use x="329.947266" xlink:href="#DejaVuSans-41"/>
    </g>
   </g>
   <g id="line2d_63">
    <path d="M 333.8625 106.167188 
L 353.8625 106.167188 
" style="fill:none;stroke:#e6ab02;stroke-linecap:square;stroke-width:1.5;"/>
   </g>
   <g id="line2d_64"/>
   <g id="text_28">
    <!-- MD (38) -->
    <g transform="translate(361.8625 109.667188)scale(0.1 -0.1)">
     <use xlink:href="#DejaVuSans-77"/>
     <use x="86.279297" xlink:href="#DejaVuSans-68"/>
     <use x="163.28125" xlink:href="#DejaVuSans-32"/>
     <use x="195.068359" xlink:href="#DejaVuSans-40"/>
     <use x="234.082031" xlink:href="#DejaVuSans-51"/>
     <use x="297.705078" xlink:href="#DejaVuSans-56"/>
     <use x="361.328125" xlink:href="#DejaVuSans-41"/>
    </g>
   </g>
   <g id="line2d_65">
    <path d="M 333.8625 120.845312 
L 353.8625 120.845312 
" style="fill:none;stroke:#a6761d;stroke-linecap:square;stroke-width:1.5;"/>
   </g>
   <g id="line2d_66"/>
   <g id="text_29">
    <!-- HPI (38) -->
    <defs>
     <path d="M 9.8125 72.90625 
L 19.671875 72.90625 
L 19.671875 43.015625 
L 55.515625 43.015625 
L 55.515625 72.90625 
L 65.375 72.90625 
L 65.375 0 
L 55.515625 0 
L 55.515625 34.71875 
L 19.671875 34.71875 
L 19.671875 0 
L 9.8125 0 
z
" id="DejaVuSans-72"/>
     <path d="M 19.671875 64.796875 
L 19.671875 37.40625 
L 32.078125 37.40625 
Q 38.96875 37.40625 42.71875 40.96875 
Q 46.484375 44.53125 46.484375 51.125 
Q 46.484375 57.671875 42.71875 61.234375 
Q 38.96875 64.796875 32.078125 64.796875 
z
M 9.8125 72.90625 
L 32.078125 72.90625 
Q 44.34375 72.90625 50.609375 67.359375 
Q 56.890625 61.8125 56.890625 51.125 
Q 56.890625 40.328125 50.609375 34.8125 
Q 44.34375 29.296875 32.078125 29.296875 
L 19.671875 29.296875 
L 19.671875 0 
L 9.8125 0 
z
" id="DejaVuSans-80"/>
     <path d="M 9.8125 72.90625 
L 19.671875 72.90625 
L 19.671875 0 
L 9.8125 0 
z
" id="DejaVuSans-73"/>
    </defs>
    <g transform="translate(361.8625 124.345312)scale(0.1 -0.1)">
     <use xlink:href="#DejaVuSans-72"/>
     <use x="75.195312" xlink:href="#DejaVuSans-80"/>
     <use x="135.498047" xlink:href="#DejaVuSans-73"/>
     <use x="164.990234" xlink:href="#DejaVuSans-32"/>
     <use x="196.777344" xlink:href="#DejaVuSans-40"/>
     <use x="235.791016" xlink:href="#DejaVuSans-51"/>
     <use x="299.414062" xlink:href="#DejaVuSans-56"/>
     <use x="363.037109" xlink:href="#DejaVuSans-41"/>
    </g>
   </g>
   <g id="line2d_67">
    <path d="M 333.8625 135.523438 
L 353.8625 135.523438 
" style="fill:none;stroke:#666666;stroke-linecap:square;stroke-width:1.5;"/>
   </g>
   <g id="line2d_68"/>
   <g id="text_30">
    <!-- FIT (29) -->
    <defs>
     <path d="M 9.8125 72.90625 
L 51.703125 72.90625 
L 51.703125 64.59375 
L 19.671875 64.59375 
L 19.671875 43.109375 
L 48.578125 43.109375 
L 48.578125 34.8125 
L 19.671875 34.8125 
L 19.671875 0 
L 9.8125 0 
z
" id="DejaVuSans-70"/>
     <path d="M -0.296875 72.90625 
L 61.375 72.90625 
L 61.375 64.59375 
L 35.5 64.59375 
L 35.5 0 
L 25.59375 0 
L 25.59375 64.59375 
L -0.296875 64.59375 
z
" id="DejaVuSans-84"/>
    </defs>
    <g transform="translate(361.8625 139.023438)scale(0.1 -0.1)">
     <use xlink:href="#DejaVuSans-70"/>
     <use x="57.519531" xlink:href="#DejaVuSans-73"/>
     <use x="87.011719" xlink:href="#DejaVuSans-84"/>
     <use x="148.095703" xlink:href="#DejaVuSans-32"/>
     <use x="179.882812" xlink:href="#DejaVuSans-40"/>
     <use x="218.896484" xlink:href="#DejaVuSans-50"/>
     <use x="282.519531" xlink:href="#DejaVuSans-57"/>
     <use x="346.142578" xlink:href="#DejaVuSans-41"/>
    </g>
   </g>
   <g id="line2d_69">
    <path d="M 333.8625 150.201562 
L 353.8625 150.201562 
" style="fill:none;stroke:#1b9e77;stroke-dasharray:4.5,1.5;stroke-dashoffset:0;stroke-width:1.5;"/>
   </g>
   <g id="line2d_70"/>
   <g id="text_31">
    <!-- SPD (27) -->
    <defs>
     <path d="M 8.203125 72.90625 
L 55.078125 72.90625 
L 55.078125 68.703125 
L 28.609375 0 
L 18.3125 0 
L 43.21875 64.59375 
L 8.203125 64.59375 
z
" id="DejaVuSans-55"/>
    </defs>
    <g transform="translate(361.8625 153.701562)scale(0.1 -0.1)">
     <use xlink:href="#DejaVuSans-83"/>
     <use x="63.476562" xlink:href="#DejaVuSans-80"/>
     <use x="123.779297" xlink:href="#DejaVuSans-68"/>
     <use x="200.78125" xlink:href="#DejaVuSans-32"/>
     <use x="232.568359" xlink:href="#DejaVuSans-40"/>
     <use x="271.582031" xlink:href="#DejaVuSans-50"/>
     <use x="335.205078" xlink:href="#DejaVuSans-55"/>
     <use x="398.828125" xlink:href="#DejaVuSans-41"/>
    </g>
   </g>
   <g id="line2d_71">
    <path d="M 333.8625 164.879687 
L 353.8625 164.879687 
" style="fill:none;stroke:#d95f02;stroke-dasharray:4.5,1.5;stroke-dashoffset:0;stroke-width:1.5;"/>
   </g>
   <g id="line2d_72"/>
   <g id="text_32">
    <!-- TBI (25) -->
    <defs>
     <path d="M 19.671875 34.8125 
L 19.671875 8.109375 
L 35.5 8.109375 
Q 43.453125 8.109375 47.28125 11.40625 
Q 51.125 14.703125 51.125 21.484375 
Q 51.125 28.328125 47.28125 31.5625 
Q 43.453125 34.8125 35.5 34.8125 
z
M 19.671875 64.796875 
L 19.671875 42.828125 
L 34.28125 42.828125 
Q 41.5 42.828125 45.03125 45.53125 
Q 48.578125 48.25 48.578125 53.8125 
Q 48.578125 59.328125 45.03125 62.0625 
Q 41.5 64.796875 34.28125 64.796875 
z
M 9.8125 72.90625 
L 35.015625 72.90625 
Q 46.296875 72.90625 52.390625 68.21875 
Q 58.5 63.53125 58.5 54.890625 
Q 58.5 48.1875 55.375 44.234375 
Q 52.25 40.28125 46.1875 39.3125 
Q 53.46875 37.75 57.5 32.78125 
Q 61.53125 27.828125 61.53125 20.40625 
Q 61.53125 10.640625 54.890625 5.3125 
Q 48.25 0 35.984375 0 
L 9.8125 0 
z
" id="DejaVuSans-66"/>
    </defs>
    <g transform="translate(361.8625 168.379687)scale(0.1 -0.1)">
     <use xlink:href="#DejaVuSans-84"/>
     <use x="61.083984" xlink:href="#DejaVuSans-66"/>
     <use x="129.6875" xlink:href="#DejaVuSans-73"/>
     <use x="159.179688" xlink:href="#DejaVuSans-32"/>
     <use x="190.966797" xlink:href="#DejaVuSans-40"/>
     <use x="229.980469" xlink:href="#DejaVuSans-50"/>
     <use x="293.603516" xlink:href="#DejaVuSans-53"/>
     <use x="357.226562" xlink:href="#DejaVuSans-41"/>
    </g>
   </g>
   <g id="line2d_73">
    <path d="M 333.8625 179.557812 
L 353.8625 179.557812 
" style="fill:none;stroke:#7570b3;stroke-dasharray:4.5,1.5;stroke-dashoffset:0;stroke-width:1.5;"/>
   </g>
   <g id="line2d_74"/>
   <g id="text_33">
    <!-- CB (25) -->
    <g transform="translate(361.8625 183.057812)scale(0.1 -0.1)">
     <use xlink:href="#DejaVuSans-67"/>
     <use x="69.824219" xlink:href="#DejaVuSans-66"/>
     <use x="138.427734" xlink:href="#DejaVuSans-32"/>
     <use x="170.214844" xlink:href="#DejaVuSans-40"/>
     <use x="209.228516" xlink:href="#DejaVuSans-50"/>
     <use x="272.851562" xlink:href="#DejaVuSans-53"/>
     <use x="336.474609" xlink:href="#DejaVuSans-41"/>
    </g>
   </g>
   <g id="line2d_75">
    <path d="M 333.8625 194.235937 
L 353.8625 194.235937 
" style="fill:none;stroke:#e7298a;stroke-dasharray:4.5,1.5;stroke-dashoffset:0;stroke-width:1.5;"/>
   </g>
   <g id="line2d_76"/>
   <g id="text_34">
    <!-- CC (25) -->
    <g transform="translate(361.8625 197.735937)scale(0.1 -0.1)">
     <use xlink:href="#DejaVuSans-67"/>
     <use x="69.824219" xlink:href="#DejaVuSans-67"/>
     <use x="139.648438" xlink:href="#DejaVuSans-32"/>
     <use x="171.435547" xlink:href="#DejaVuSans-40"/>
     <use x="210.449219" xlink:href="#DejaVuSans-50"/>
     <use x="274.072266" xlink:href="#DejaVuSans-53"/>
     <use x="337.695312" xlink:href="#DejaVuSans-41"/>
    </g>
   </g>
   <g id="line2d_77">
    <path d="M 333.8625 208.914062 
L 353.8625 208.914062 
" style="fill:none;stroke:#66a61e;stroke-dasharray:4.5,1.5;stroke-dashoffset:0;stroke-width:1.5;"/>
   </g>
   <g id="line2d_78"/>
   <g id="text_35">
    <!-- RJPH (24) -->
    <defs>
     <path d="M 9.8125 72.90625 
L 19.671875 72.90625 
L 19.671875 5.078125 
Q 19.671875 -8.109375 14.671875 -14.0625 
Q 9.671875 -20.015625 -1.421875 -20.015625 
L -5.171875 -20.015625 
L -5.171875 -11.71875 
L -2.09375 -11.71875 
Q 4.4375 -11.71875 7.125 -8.046875 
Q 9.8125 -4.390625 9.8125 5.078125 
z
" id="DejaVuSans-74"/>
    </defs>
    <g transform="translate(361.8625 212.414062)scale(0.1 -0.1)">
     <use xlink:href="#DejaVuSans-82"/>
     <use x="69.482422" xlink:href="#DejaVuSans-74"/>
     <use x="98.974609" xlink:href="#DejaVuSans-80"/>
     <use x="159.277344" xlink:href="#DejaVuSans-72"/>
     <use x="234.472656" xlink:href="#DejaVuSans-32"/>
     <use x="266.259766" xlink:href="#DejaVuSans-40"/>
     <use x="305.273438" xlink:href="#DejaVuSans-50"/>
     <use x="368.896484" xlink:href="#DejaVuSans-52"/>
     <use x="432.519531" xlink:href="#DejaVuSans-41"/>
    </g>
   </g>
   <g id="line2d_79">
    <path d="M 333.8625 223.592187 
L 353.8625 223.592187 
" style="fill:none;stroke:#e6ab02;stroke-dasharray:4.5,1.5;stroke-dashoffset:0;stroke-width:1.5;"/>
   </g>
   <g id="line2d_80"/>
   <g id="text_36">
    <!-- BP (24) -->
    <g transform="translate(361.8625 227.092187)scale(0.1 -0.1)">
     <use xlink:href="#DejaVuSans-66"/>
     <use x="68.603516" xlink:href="#DejaVuSans-80"/>
     <use x="128.90625" xlink:href="#DejaVuSans-32"/>
     <use x="160.693359" xlink:href="#DejaVuSans-40"/>
     <use x="199.707031" xlink:href="#DejaVuSans-50"/>
     <use x="263.330078" xlink:href="#DejaVuSans-52"/>
     <use x="326.953125" xlink:href="#DejaVuSans-41"/>
    </g>
   </g>
   <g id="line2d_81">
    <path d="M 333.8625 238.270312 
L 353.8625 238.270312 
" style="fill:none;stroke:#a6761d;stroke-dasharray:4.5,1.5;stroke-dashoffset:0;stroke-width:1.5;"/>
   </g>
   <g id="line2d_82"/>
   <g id="text_37">
    <!-- AHR-H (20) -->
    <g transform="translate(361.8625 241.770312)scale(0.1 -0.1)">
     <use xlink:href="#DejaVuSans-65"/>
     <use x="68.408203" xlink:href="#DejaVuSans-72"/>
     <use x="143.603516" xlink:href="#DejaVuSans-82"/>
     <use x="213.023438" xlink:href="#DejaVuSans-45"/>
     <use x="249.107422" xlink:href="#DejaVuSans-72"/>
     <use x="324.302734" xlink:href="#DejaVuSans-32"/>
     <use x="356.089844" xlink:href="#DejaVuSans-40"/>
     <use x="395.103516" xlink:href="#DejaVuSans-50"/>
     <use x="458.726562" xlink:href="#DejaVuSans-48"/>
     <use x="522.349609" xlink:href="#DejaVuSans-41"/>
    </g>
   </g>
   <g id="line2d_83">
    <path d="M 333.8625 252.948437 
L 353.8625 252.948437 
" style="fill:none;stroke:#666666;stroke-dasharray:4.5,1.5;stroke-dashoffset:0;stroke-width:1.5;"/>
   </g>
   <g id="line2d_84"/>
   <g id="text_38">
    <!-- AHR-A (20) -->
    <g transform="translate(361.8625 256.448437)scale(0.1 -0.1)">
     <use xlink:href="#DejaVuSans-65"/>
     <use x="68.408203" xlink:href="#DejaVuSans-72"/>
     <use x="143.603516" xlink:href="#DejaVuSans-82"/>
     <use x="213.023438" xlink:href="#DejaVuSans-45"/>
     <use x="249.076172" xlink:href="#DejaVuSans-65"/>
     <use x="317.484375" xlink:href="#DejaVuSans-32"/>
     <use x="349.271484" xlink:href="#DejaVuSans-40"/>
     <use x="388.285156" xlink:href="#DejaVuSans-50"/>
     <use x="451.908203" xlink:href="#DejaVuSans-48"/>
     <use x="515.53125" xlink:href="#DejaVuSans-41"/>
    </g>
   </g>
  </g>
 </g>
 <defs>
  <clipPath id="p70dc545fc2">
   <rect height="207.330771" width="271.81" x="43.55" y="12.9"/>
  </clipPath>
 </defs>
</svg>
