<?xml version="1.0" encoding="utf-8" standalone="no"?>
<!DOCTYPE svg PUBLIC "-//W3C//DTD SVG 1.1//EN"
  "http://www.w3.org/Graphics/SVG/1.1/DTD/svg11.dtd">
<!-- Created with matplotlib (https://matplotlib.org/) -->
<svg height="288pt" version="1.1" viewBox="0 0 432 288" width="432pt" xmlns="http://www.w3.org/2000/svg" xmlns:xlink="http://www.w3.org/1999/xlink">
 <defs>
  <style type="text/css">
*{stroke-linecap:butt;stroke-linejoin:round;}
  </style>
 </defs>
 <g id="figure_1">
  <g id="patch_1">
   <path d="M 0 288 
L 432 288 
L 432 0 
L 0 0 
z
" style="fill:#ffffff;"/>
  </g>
  <g id="axes_1">
   <g id="patch_2">
    <path d="M 43.55 220.230771 
L 315.36 220.230771 
L 315.36 12.9 
L 43.55 12.9 
z
" style="fill:#ffffff;"/>
   </g>
   <g id="matplotlib.axis_1">
    <g id="xtick_1">
     <g id="line2d_1">
      <defs>
       <path d="M 0 0 
L 0 3.5 
" id="m085a81fc37" style="stroke:#000000;stroke-width:0.8;"/>
      </defs>
      <g>
       <use style="stroke:#000000;stroke-width:0.8;" x="50.480399" xlink:href="#m085a81fc37" y="220.230771"/>
      </g>
     </g>
     <g id="text_1">
      <!-- 2020-11-29 -->
      <defs>
       <path d="M 19.1875 8.296875 
L 53.609375 8.296875 
L 53.609375 0 
L 7.328125 0 
L 7.328125 8.296875 
Q 12.9375 14.109375 22.625 23.890625 
Q 32.328125 33.6875 34.8125 36.53125 
Q 39.546875 41.84375 41.421875 45.53125 
Q 43.3125 49.21875 43.3125 52.78125 
Q 43.3125 58.59375 39.234375 62.25 
Q 35.15625 65.921875 28.609375 65.921875 
Q 23.96875 65.921875 18.8125 64.3125 
Q 13.671875 62.703125 7.8125 59.421875 
L 7.8125 69.390625 
Q 13.765625 71.78125 18.9375 73 
Q 24.125 74.21875 28.421875 74.21875 
Q 39.75 74.21875 46.484375 68.546875 
Q 53.21875 62.890625 53.21875 53.421875 
Q 53.21875 48.921875 51.53125 44.890625 
Q 49.859375 40.875 45.40625 35.40625 
Q 44.1875 33.984375 37.640625 27.21875 
Q 31.109375 20.453125 19.1875 8.296875 
z
" id="DejaVuSans-50"/>
       <path d="M 31.78125 66.40625 
Q 24.171875 66.40625 20.328125 58.90625 
Q 16.5 51.421875 16.5 36.375 
Q 16.5 21.390625 20.328125 13.890625 
Q 24.171875 6.390625 31.78125 6.390625 
Q 39.453125 6.390625 43.28125 13.890625 
Q 47.125 21.390625 47.125 36.375 
Q 47.125 51.421875 43.28125 58.90625 
Q 39.453125 66.40625 31.78125 66.40625 
z
M 31.78125 74.21875 
Q 44.046875 74.21875 50.515625 64.515625 
Q 56.984375 54.828125 56.984375 36.375 
Q 56.984375 17.96875 50.515625 8.265625 
Q 44.046875 -1.421875 31.78125 -1.421875 
Q 19.53125 -1.421875 13.0625 8.265625 
Q 6.59375 17.96875 6.59375 36.375 
Q 6.59375 54.828125 13.0625 64.515625 
Q 19.53125 74.21875 31.78125 74.21875 
z
" id="DejaVuSans-48"/>
       <path d="M 4.890625 31.390625 
L 31.203125 31.390625 
L 31.203125 23.390625 
L 4.890625 23.390625 
z
" id="DejaVuSans-45"/>
       <path d="M 12.40625 8.296875 
L 28.515625 8.296875 
L 28.515625 63.921875 
L 10.984375 60.40625 
L 10.984375 69.390625 
L 28.421875 72.90625 
L 38.28125 72.90625 
L 38.28125 8.296875 
L 54.390625 8.296875 
L 54.390625 0 
L 12.40625 0 
z
" id="DejaVuSans-49"/>
       <path d="M 10.984375 1.515625 
L 10.984375 10.5 
Q 14.703125 8.734375 18.5 7.8125 
Q 22.3125 6.890625 25.984375 6.890625 
Q 35.75 6.890625 40.890625 13.453125 
Q 46.046875 20.015625 46.78125 33.40625 
Q 43.953125 29.203125 39.59375 26.953125 
Q 35.25 24.703125 29.984375 24.703125 
Q 19.046875 24.703125 12.671875 31.3125 
Q 6.296875 37.9375 6.296875 49.421875 
Q 6.296875 60.640625 12.9375 67.421875 
Q 19.578125 74.21875 30.609375 74.21875 
Q 43.265625 74.21875 49.921875 64.515625 
Q 56.59375 54.828125 56.59375 36.375 
Q 56.59375 19.140625 48.40625 8.859375 
Q 40.234375 -1.421875 26.421875 -1.421875 
Q 22.703125 -1.421875 18.890625 -0.6875 
Q 15.09375 0.046875 10.984375 1.515625 
z
M 30.609375 32.421875 
Q 37.25 32.421875 41.125 36.953125 
Q 45.015625 41.5 45.015625 49.421875 
Q 45.015625 57.28125 41.125 61.84375 
Q 37.25 66.40625 30.609375 66.40625 
Q 23.96875 66.40625 20.09375 61.84375 
Q 16.21875 57.28125 16.21875 49.421875 
Q 16.21875 41.5 20.09375 36.953125 
Q 23.96875 32.421875 30.609375 32.421875 
z
" id="DejaVuSans-57"/>
      </defs>
      <g transform="translate(26.695282 262.869024)rotate(-30)scale(0.1 -0.1)">
       <use xlink:href="#DejaVuSans-50"/>
       <use x="63.623047" xlink:href="#DejaVuSans-48"/>
       <use x="127.246094" xlink:href="#DejaVuSans-50"/>
       <use x="190.869141" xlink:href="#DejaVuSans-48"/>
       <use x="254.492188" xlink:href="#DejaVuSans-45"/>
       <use x="290.576172" xlink:href="#DejaVuSans-49"/>
       <use x="354.199219" xlink:href="#DejaVuSans-49"/>
       <use x="417.822266" xlink:href="#DejaVuSans-45"/>
       <use x="453.90625" xlink:href="#DejaVuSans-50"/>
       <use x="517.529297" xlink:href="#DejaVuSans-57"/>
      </g>
     </g>
    </g>
    <g id="xtick_2">
     <g id="line2d_2">
      <g>
       <use style="stroke:#000000;stroke-width:0.8;" x="57.971848" xlink:href="#m085a81fc37" y="220.230771"/>
      </g>
     </g>
     <g id="text_2">
      <!-- 2020-12-01 -->
      <g transform="translate(34.186732 262.869024)rotate(-30)scale(0.1 -0.1)">
       <use xlink:href="#DejaVuSans-50"/>
       <use x="63.623047" xlink:href="#DejaVuSans-48"/>
       <use x="127.246094" xlink:href="#DejaVuSans-50"/>
       <use x="190.869141" xlink:href="#DejaVuSans-48"/>
       <use x="254.492188" xlink:href="#DejaVuSans-45"/>
       <use x="290.576172" xlink:href="#DejaVuSans-49"/>
       <use x="354.199219" xlink:href="#DejaVuSans-50"/>
       <use x="417.822266" xlink:href="#DejaVuSans-45"/>
       <use x="453.90625" xlink:href="#DejaVuSans-48"/>
       <use x="517.529297" xlink:href="#DejaVuSans-49"/>
      </g>
     </g>
    </g>
    <g id="xtick_3">
     <g id="line2d_3">
      <g>
       <use style="stroke:#000000;stroke-width:0.8;" x="110.411993" xlink:href="#m085a81fc37" y="220.230771"/>
      </g>
     </g>
     <g id="text_3">
      <!-- 2020-12-15 -->
      <defs>
       <path d="M 10.796875 72.90625 
L 49.515625 72.90625 
L 49.515625 64.59375 
L 19.828125 64.59375 
L 19.828125 46.734375 
Q 21.96875 47.46875 24.109375 47.828125 
Q 26.265625 48.1875 28.421875 48.1875 
Q 40.625 48.1875 47.75 41.5 
Q 54.890625 34.8125 54.890625 23.390625 
Q 54.890625 11.625 47.5625 5.09375 
Q 40.234375 -1.421875 26.90625 -1.421875 
Q 22.3125 -1.421875 17.546875 -0.640625 
Q 12.796875 0.140625 7.71875 1.703125 
L 7.71875 11.625 
Q 12.109375 9.234375 16.796875 8.0625 
Q 21.484375 6.890625 26.703125 6.890625 
Q 35.15625 6.890625 40.078125 11.328125 
Q 45.015625 15.765625 45.015625 23.390625 
Q 45.015625 31 40.078125 35.4375 
Q 35.15625 39.890625 26.703125 39.890625 
Q 22.75 39.890625 18.8125 39.015625 
Q 14.890625 38.140625 10.796875 36.28125 
z
" id="DejaVuSans-53"/>
      </defs>
      <g transform="translate(86.626877 262.869024)rotate(-30)scale(0.1 -0.1)">
       <use xlink:href="#DejaVuSans-50"/>
       <use x="63.623047" xlink:href="#DejaVuSans-48"/>
       <use x="127.246094" xlink:href="#DejaVuSans-50"/>
       <use x="190.869141" xlink:href="#DejaVuSans-48"/>
       <use x="254.492188" xlink:href="#DejaVuSans-45"/>
       <use x="290.576172" xlink:href="#DejaVuSans-49"/>
       <use x="354.199219" xlink:href="#DejaVuSans-50"/>
       <use x="417.822266" xlink:href="#DejaVuSans-45"/>
       <use x="453.90625" xlink:href="#DejaVuSans-49"/>
       <use x="517.529297" xlink:href="#DejaVuSans-53"/>
      </g>
     </g>
    </g>
    <g id="xtick_4">
     <g id="line2d_4">
      <g>
       <use style="stroke:#000000;stroke-width:0.8;" x="162.852139" xlink:href="#m085a81fc37" y="220.230771"/>
      </g>
     </g>
     <g id="text_4">
      <!-- 2020-12-29 -->
      <g transform="translate(139.067023 262.869024)rotate(-30)scale(0.1 -0.1)">
       <use xlink:href="#DejaVuSans-50"/>
       <use x="63.623047" xlink:href="#DejaVuSans-48"/>
       <use x="127.246094" xlink:href="#DejaVuSans-50"/>
       <use x="190.869141" xlink:href="#DejaVuSans-48"/>
       <use x="254.492188" xlink:href="#DejaVuSans-45"/>
       <use x="290.576172" xlink:href="#DejaVuSans-49"/>
       <use x="354.199219" xlink:href="#DejaVuSans-50"/>
       <use x="417.822266" xlink:href="#DejaVuSans-45"/>
       <use x="453.90625" xlink:href="#DejaVuSans-50"/>
       <use x="517.529297" xlink:href="#DejaVuSans-57"/>
      </g>
     </g>
    </g>
    <g id="xtick_5">
     <g id="line2d_5">
      <g>
       <use style="stroke:#000000;stroke-width:0.8;" x="174.089313" xlink:href="#m085a81fc37" y="220.230771"/>
      </g>
     </g>
     <g id="text_5">
      <!-- 2021-01-01 -->
      <g transform="translate(150.304197 262.869024)rotate(-30)scale(0.1 -0.1)">
       <use xlink:href="#DejaVuSans-50"/>
       <use x="63.623047" xlink:href="#DejaVuSans-48"/>
       <use x="127.246094" xlink:href="#DejaVuSans-50"/>
       <use x="190.869141" xlink:href="#DejaVuSans-49"/>
       <use x="254.492188" xlink:href="#DejaVuSans-45"/>
       <use x="290.576172" xlink:href="#DejaVuSans-48"/>
       <use x="354.199219" xlink:href="#DejaVuSans-49"/>
       <use x="417.822266" xlink:href="#DejaVuSans-45"/>
       <use x="453.90625" xlink:href="#DejaVuSans-48"/>
       <use x="517.529297" xlink:href="#DejaVuSans-49"/>
      </g>
     </g>
    </g>
    <g id="xtick_6">
     <g id="line2d_6">
      <g>
       <use style="stroke:#000000;stroke-width:0.8;" x="226.529459" xlink:href="#m085a81fc37" y="220.230771"/>
      </g>
     </g>
     <g id="text_6">
      <!-- 2021-01-15 -->
      <g transform="translate(202.744342 262.869024)rotate(-30)scale(0.1 -0.1)">
       <use xlink:href="#DejaVuSans-50"/>
       <use x="63.623047" xlink:href="#DejaVuSans-48"/>
       <use x="127.246094" xlink:href="#DejaVuSans-50"/>
       <use x="190.869141" xlink:href="#DejaVuSans-49"/>
       <use x="254.492188" xlink:href="#DejaVuSans-45"/>
       <use x="290.576172" xlink:href="#DejaVuSans-48"/>
       <use x="354.199219" xlink:href="#DejaVuSans-49"/>
       <use x="417.822266" xlink:href="#DejaVuSans-45"/>
       <use x="453.90625" xlink:href="#DejaVuSans-49"/>
       <use x="517.529297" xlink:href="#DejaVuSans-53"/>
      </g>
     </g>
    </g>
    <g id="xtick_7">
     <g id="line2d_7">
      <g>
       <use style="stroke:#000000;stroke-width:0.8;" x="278.969604" xlink:href="#m085a81fc37" y="220.230771"/>
      </g>
     </g>
     <g id="text_7">
      <!-- 2021-01-29 -->
      <g transform="translate(255.184488 262.869024)rotate(-30)scale(0.1 -0.1)">
       <use xlink:href="#DejaVuSans-50"/>
       <use x="63.623047" xlink:href="#DejaVuSans-48"/>
       <use x="127.246094" xlink:href="#DejaVuSans-50"/>
       <use x="190.869141" xlink:href="#DejaVuSans-49"/>
       <use x="254.492188" xlink:href="#DejaVuSans-45"/>
       <use x="290.576172" xlink:href="#DejaVuSans-48"/>
       <use x="354.199219" xlink:href="#DejaVuSans-49"/>
       <use x="417.822266" xlink:href="#DejaVuSans-45"/>
       <use x="453.90625" xlink:href="#DejaVuSans-50"/>
       <use x="517.529297" xlink:href="#DejaVuSans-57"/>
      </g>
     </g>
    </g>
    <g id="xtick_8">
     <g id="line2d_8">
      <g>
       <use style="stroke:#000000;stroke-width:0.8;" x="290.206778" xlink:href="#m085a81fc37" y="220.230771"/>
      </g>
     </g>
     <g id="text_8">
      <!-- 2021-02-01 -->
      <g transform="translate(266.421662 262.869024)rotate(-30)scale(0.1 -0.1)">
       <use xlink:href="#DejaVuSans-50"/>
       <use x="63.623047" xlink:href="#DejaVuSans-48"/>
       <use x="127.246094" xlink:href="#DejaVuSans-50"/>
       <use x="190.869141" xlink:href="#DejaVuSans-49"/>
       <use x="254.492188" xlink:href="#DejaVuSans-45"/>
       <use x="290.576172" xlink:href="#DejaVuSans-48"/>
       <use x="354.199219" xlink:href="#DejaVuSans-50"/>
       <use x="417.822266" xlink:href="#DejaVuSans-45"/>
       <use x="453.90625" xlink:href="#DejaVuSans-48"/>
       <use x="517.529297" xlink:href="#DejaVuSans-49"/>
      </g>
     </g>
    </g>
    <g id="text_9">
     <!-- Date -->
     <defs>
      <path d="M 19.671875 64.796875 
L 19.671875 8.109375 
L 31.59375 8.109375 
Q 46.6875 8.109375 53.6875 14.9375 
Q 60.6875 21.78125 60.6875 36.53125 
Q 60.6875 51.171875 53.6875 57.984375 
Q 46.6875 64.796875 31.59375 64.796875 
z
M 9.8125 72.90625 
L 30.078125 72.90625 
Q 51.265625 72.90625 61.171875 64.09375 
Q 71.09375 55.28125 71.09375 36.53125 
Q 71.09375 17.671875 61.125 8.828125 
Q 51.171875 0 30.078125 0 
L 9.8125 0 
z
" id="DejaVuSans-68"/>
      <path d="M 34.28125 27.484375 
Q 23.390625 27.484375 19.1875 25 
Q 14.984375 22.515625 14.984375 16.5 
Q 14.984375 11.71875 18.140625 8.90625 
Q 21.296875 6.109375 26.703125 6.109375 
Q 34.1875 6.109375 38.703125 11.40625 
Q 43.21875 16.703125 43.21875 25.484375 
L 43.21875 27.484375 
z
M 52.203125 31.203125 
L 52.203125 0 
L 43.21875 0 
L 43.21875 8.296875 
Q 40.140625 3.328125 35.546875 0.953125 
Q 30.953125 -1.421875 24.3125 -1.421875 
Q 15.921875 -1.421875 10.953125 3.296875 
Q 6 8.015625 6 15.921875 
Q 6 25.140625 12.171875 29.828125 
Q 18.359375 34.515625 30.609375 34.515625 
L 43.21875 34.515625 
L 43.21875 35.40625 
Q 43.21875 41.609375 39.140625 45 
Q 35.0625 48.390625 27.6875 48.390625 
Q 23 48.390625 18.546875 47.265625 
Q 14.109375 46.140625 10.015625 43.890625 
L 10.015625 52.203125 
Q 14.9375 54.109375 19.578125 55.046875 
Q 24.21875 56 28.609375 56 
Q 40.484375 56 46.34375 49.84375 
Q 52.203125 43.703125 52.203125 31.203125 
z
" id="DejaVuSans-97"/>
      <path d="M 18.3125 70.21875 
L 18.3125 54.6875 
L 36.8125 54.6875 
L 36.8125 47.703125 
L 18.3125 47.703125 
L 18.3125 18.015625 
Q 18.3125 11.328125 20.140625 9.421875 
Q 21.96875 7.515625 27.59375 7.515625 
L 36.8125 7.515625 
L 36.8125 0 
L 27.59375 0 
Q 17.1875 0 13.234375 3.875 
Q 9.28125 7.765625 9.28125 18.015625 
L 9.28125 47.703125 
L 2.6875 47.703125 
L 2.6875 54.6875 
L 9.28125 54.6875 
L 9.28125 70.21875 
z
" id="DejaVuSans-116"/>
      <path d="M 56.203125 29.59375 
L 56.203125 25.203125 
L 14.890625 25.203125 
Q 15.484375 15.921875 20.484375 11.0625 
Q 25.484375 6.203125 34.421875 6.203125 
Q 39.59375 6.203125 44.453125 7.46875 
Q 49.3125 8.734375 54.109375 11.28125 
L 54.109375 2.78125 
Q 49.265625 0.734375 44.1875 -0.34375 
Q 39.109375 -1.421875 33.890625 -1.421875 
Q 20.796875 -1.421875 13.15625 6.1875 
Q 5.515625 13.8125 5.515625 26.8125 
Q 5.515625 40.234375 12.765625 48.109375 
Q 20.015625 56 32.328125 56 
Q 43.359375 56 49.78125 48.890625 
Q 56.203125 41.796875 56.203125 29.59375 
z
M 47.21875 32.234375 
Q 47.125 39.59375 43.09375 43.984375 
Q 39.0625 48.390625 32.421875 48.390625 
Q 24.90625 48.390625 20.390625 44.140625 
Q 15.875 39.890625 15.1875 32.171875 
z
" id="DejaVuSans-101"/>
     </defs>
     <g transform="translate(167.504219 276.268523)scale(0.1 -0.1)">
      <use xlink:href="#DejaVuSans-68"/>
      <use x="77.001953" xlink:href="#DejaVuSans-97"/>
      <use x="138.28125" xlink:href="#DejaVuSans-116"/>
      <use x="177.490234" xlink:href="#DejaVuSans-101"/>
     </g>
    </g>
   </g>
   <g id="matplotlib.axis_2">
    <g id="ytick_1">
     <g id="line2d_9">
      <defs>
       <path d="M 0 0 
L -3.5 0 
" id="m3ffd8f0450" style="stroke:#000000;stroke-width:0.8;"/>
      </defs>
      <g>
       <use style="stroke:#000000;stroke-width:0.8;" x="43.55" xlink:href="#m3ffd8f0450" y="210.806645"/>
      </g>
     </g>
     <g id="text_10">
      <!-- 0 -->
      <g transform="translate(30.1875 214.605864)scale(0.1 -0.1)">
       <use xlink:href="#DejaVuSans-48"/>
      </g>
     </g>
    </g>
    <g id="ytick_2">
     <g id="line2d_10">
      <g>
       <use style="stroke:#000000;stroke-width:0.8;" x="43.55" xlink:href="#m3ffd8f0450" y="187.24633"/>
      </g>
     </g>
     <g id="text_11">
      <!-- 5 -->
      <g transform="translate(30.1875 191.045549)scale(0.1 -0.1)">
       <use xlink:href="#DejaVuSans-53"/>
      </g>
     </g>
    </g>
    <g id="ytick_3">
     <g id="line2d_11">
      <g>
       <use style="stroke:#000000;stroke-width:0.8;" x="43.55" xlink:href="#m3ffd8f0450" y="163.686016"/>
      </g>
     </g>
     <g id="text_12">
      <!-- 10 -->
      <g transform="translate(23.825 167.485234)scale(0.1 -0.1)">
       <use xlink:href="#DejaVuSans-49"/>
       <use x="63.623047" xlink:href="#DejaVuSans-48"/>
      </g>
     </g>
    </g>
    <g id="ytick_4">
     <g id="line2d_12">
      <g>
       <use style="stroke:#000000;stroke-width:0.8;" x="43.55" xlink:href="#m3ffd8f0450" y="140.125701"/>
      </g>
     </g>
     <g id="text_13">
      <!-- 15 -->
      <g transform="translate(23.825 143.924919)scale(0.1 -0.1)">
       <use xlink:href="#DejaVuSans-49"/>
       <use x="63.623047" xlink:href="#DejaVuSans-53"/>
      </g>
     </g>
    </g>
    <g id="ytick_5">
     <g id="line2d_13">
      <g>
       <use style="stroke:#000000;stroke-width:0.8;" x="43.55" xlink:href="#m3ffd8f0450" y="116.565386"/>
      </g>
     </g>
     <g id="text_14">
      <!-- 20 -->
      <g transform="translate(23.825 120.364604)scale(0.1 -0.1)">
       <use xlink:href="#DejaVuSans-50"/>
       <use x="63.623047" xlink:href="#DejaVuSans-48"/>
      </g>
     </g>
    </g>
    <g id="ytick_6">
     <g id="line2d_14">
      <g>
       <use style="stroke:#000000;stroke-width:0.8;" x="43.55" xlink:href="#m3ffd8f0450" y="93.005071"/>
      </g>
     </g>
     <g id="text_15">
      <!-- 25 -->
      <g transform="translate(23.825 96.80429)scale(0.1 -0.1)">
       <use xlink:href="#DejaVuSans-50"/>
       <use x="63.623047" xlink:href="#DejaVuSans-53"/>
      </g>
     </g>
    </g>
    <g id="ytick_7">
     <g id="line2d_15">
      <g>
       <use style="stroke:#000000;stroke-width:0.8;" x="43.55" xlink:href="#m3ffd8f0450" y="69.444756"/>
      </g>
     </g>
     <g id="text_16">
      <!-- 30 -->
      <defs>
       <path d="M 40.578125 39.3125 
Q 47.65625 37.796875 51.625 33 
Q 55.609375 28.21875 55.609375 21.1875 
Q 55.609375 10.40625 48.1875 4.484375 
Q 40.765625 -1.421875 27.09375 -1.421875 
Q 22.515625 -1.421875 17.65625 -0.515625 
Q 12.796875 0.390625 7.625 2.203125 
L 7.625 11.71875 
Q 11.71875 9.328125 16.59375 8.109375 
Q 21.484375 6.890625 26.8125 6.890625 
Q 36.078125 6.890625 40.9375 10.546875 
Q 45.796875 14.203125 45.796875 21.1875 
Q 45.796875 27.640625 41.28125 31.265625 
Q 36.765625 34.90625 28.71875 34.90625 
L 20.21875 34.90625 
L 20.21875 43.015625 
L 29.109375 43.015625 
Q 36.375 43.015625 40.234375 45.921875 
Q 44.09375 48.828125 44.09375 54.296875 
Q 44.09375 59.90625 40.109375 62.90625 
Q 36.140625 65.921875 28.71875 65.921875 
Q 24.65625 65.921875 20.015625 65.03125 
Q 15.375 64.15625 9.8125 62.3125 
L 9.8125 71.09375 
Q 15.4375 72.65625 20.34375 73.4375 
Q 25.25 74.21875 29.59375 74.21875 
Q 40.828125 74.21875 47.359375 69.109375 
Q 53.90625 64.015625 53.90625 55.328125 
Q 53.90625 49.265625 50.4375 45.09375 
Q 46.96875 40.921875 40.578125 39.3125 
z
" id="DejaVuSans-51"/>
      </defs>
      <g transform="translate(23.825 73.243975)scale(0.1 -0.1)">
       <use xlink:href="#DejaVuSans-51"/>
       <use x="63.623047" xlink:href="#DejaVuSans-48"/>
      </g>
     </g>
    </g>
    <g id="ytick_8">
     <g id="line2d_16">
      <g>
       <use style="stroke:#000000;stroke-width:0.8;" x="43.55" xlink:href="#m3ffd8f0450" y="45.884441"/>
      </g>
     </g>
     <g id="text_17">
      <!-- 35 -->
      <g transform="translate(23.825 49.68366)scale(0.1 -0.1)">
       <use xlink:href="#DejaVuSans-51"/>
       <use x="63.623047" xlink:href="#DejaVuSans-53"/>
      </g>
     </g>
    </g>
    <g id="ytick_9">
     <g id="line2d_17">
      <g>
       <use style="stroke:#000000;stroke-width:0.8;" x="43.55" xlink:href="#m3ffd8f0450" y="22.324126"/>
      </g>
     </g>
     <g id="text_18">
      <!-- 40 -->
      <defs>
       <path d="M 37.796875 64.3125 
L 12.890625 25.390625 
L 37.796875 25.390625 
z
M 35.203125 72.90625 
L 47.609375 72.90625 
L 47.609375 25.390625 
L 58.015625 25.390625 
L 58.015625 17.1875 
L 47.609375 17.1875 
L 47.609375 0 
L 37.796875 0 
L 37.796875 17.1875 
L 4.890625 17.1875 
L 4.890625 26.703125 
z
" id="DejaVuSans-52"/>
      </defs>
      <g transform="translate(23.825 26.123345)scale(0.1 -0.1)">
       <use xlink:href="#DejaVuSans-52"/>
       <use x="63.623047" xlink:href="#DejaVuSans-48"/>
      </g>
     </g>
    </g>
    <g id="text_19">
     <!-- Students Registered -->
     <defs>
      <path d="M 53.515625 70.515625 
L 53.515625 60.890625 
Q 47.90625 63.578125 42.921875 64.890625 
Q 37.9375 66.21875 33.296875 66.21875 
Q 25.25 66.21875 20.875 63.09375 
Q 16.5 59.96875 16.5 54.203125 
Q 16.5 49.359375 19.40625 46.890625 
Q 22.3125 44.4375 30.421875 42.921875 
L 36.375 41.703125 
Q 47.40625 39.59375 52.65625 34.296875 
Q 57.90625 29 57.90625 20.125 
Q 57.90625 9.515625 50.796875 4.046875 
Q 43.703125 -1.421875 29.984375 -1.421875 
Q 24.8125 -1.421875 18.96875 -0.25 
Q 13.140625 0.921875 6.890625 3.21875 
L 6.890625 13.375 
Q 12.890625 10.015625 18.65625 8.296875 
Q 24.421875 6.59375 29.984375 6.59375 
Q 38.421875 6.59375 43.015625 9.90625 
Q 47.609375 13.234375 47.609375 19.390625 
Q 47.609375 24.75 44.3125 27.78125 
Q 41.015625 30.8125 33.5 32.328125 
L 27.484375 33.5 
Q 16.453125 35.6875 11.515625 40.375 
Q 6.59375 45.0625 6.59375 53.421875 
Q 6.59375 63.09375 13.40625 68.65625 
Q 20.21875 74.21875 32.171875 74.21875 
Q 37.3125 74.21875 42.625 73.28125 
Q 47.953125 72.359375 53.515625 70.515625 
z
" id="DejaVuSans-83"/>
      <path d="M 8.5 21.578125 
L 8.5 54.6875 
L 17.484375 54.6875 
L 17.484375 21.921875 
Q 17.484375 14.15625 20.5 10.265625 
Q 23.53125 6.390625 29.59375 6.390625 
Q 36.859375 6.390625 41.078125 11.03125 
Q 45.3125 15.671875 45.3125 23.6875 
L 45.3125 54.6875 
L 54.296875 54.6875 
L 54.296875 0 
L 45.3125 0 
L 45.3125 8.40625 
Q 42.046875 3.421875 37.71875 1 
Q 33.40625 -1.421875 27.6875 -1.421875 
Q 18.265625 -1.421875 13.375 4.4375 
Q 8.5 10.296875 8.5 21.578125 
z
M 31.109375 56 
z
" id="DejaVuSans-117"/>
      <path d="M 45.40625 46.390625 
L 45.40625 75.984375 
L 54.390625 75.984375 
L 54.390625 0 
L 45.40625 0 
L 45.40625 8.203125 
Q 42.578125 3.328125 38.25 0.953125 
Q 33.9375 -1.421875 27.875 -1.421875 
Q 17.96875 -1.421875 11.734375 6.484375 
Q 5.515625 14.40625 5.515625 27.296875 
Q 5.515625 40.1875 11.734375 48.09375 
Q 17.96875 56 27.875 56 
Q 33.9375 56 38.25 53.625 
Q 42.578125 51.265625 45.40625 46.390625 
z
M 14.796875 27.296875 
Q 14.796875 17.390625 18.875 11.75 
Q 22.953125 6.109375 30.078125 6.109375 
Q 37.203125 6.109375 41.296875 11.75 
Q 45.40625 17.390625 45.40625 27.296875 
Q 45.40625 37.203125 41.296875 42.84375 
Q 37.203125 48.484375 30.078125 48.484375 
Q 22.953125 48.484375 18.875 42.84375 
Q 14.796875 37.203125 14.796875 27.296875 
z
" id="DejaVuSans-100"/>
      <path d="M 54.890625 33.015625 
L 54.890625 0 
L 45.90625 0 
L 45.90625 32.71875 
Q 45.90625 40.484375 42.875 44.328125 
Q 39.84375 48.1875 33.796875 48.1875 
Q 26.515625 48.1875 22.3125 43.546875 
Q 18.109375 38.921875 18.109375 30.90625 
L 18.109375 0 
L 9.078125 0 
L 9.078125 54.6875 
L 18.109375 54.6875 
L 18.109375 46.1875 
Q 21.34375 51.125 25.703125 53.5625 
Q 30.078125 56 35.796875 56 
Q 45.21875 56 50.046875 50.171875 
Q 54.890625 44.34375 54.890625 33.015625 
z
" id="DejaVuSans-110"/>
      <path d="M 44.28125 53.078125 
L 44.28125 44.578125 
Q 40.484375 46.53125 36.375 47.5 
Q 32.28125 48.484375 27.875 48.484375 
Q 21.1875 48.484375 17.84375 46.4375 
Q 14.5 44.390625 14.5 40.28125 
Q 14.5 37.15625 16.890625 35.375 
Q 19.28125 33.59375 26.515625 31.984375 
L 29.59375 31.296875 
Q 39.15625 29.25 43.1875 25.515625 
Q 47.21875 21.78125 47.21875 15.09375 
Q 47.21875 7.46875 41.1875 3.015625 
Q 35.15625 -1.421875 24.609375 -1.421875 
Q 20.21875 -1.421875 15.453125 -0.5625 
Q 10.6875 0.296875 5.421875 2 
L 5.421875 11.28125 
Q 10.40625 8.6875 15.234375 7.390625 
Q 20.0625 6.109375 24.8125 6.109375 
Q 31.15625 6.109375 34.5625 8.28125 
Q 37.984375 10.453125 37.984375 14.40625 
Q 37.984375 18.0625 35.515625 20.015625 
Q 33.0625 21.96875 24.703125 23.78125 
L 21.578125 24.515625 
Q 13.234375 26.265625 9.515625 29.90625 
Q 5.8125 33.546875 5.8125 39.890625 
Q 5.8125 47.609375 11.28125 51.796875 
Q 16.75 56 26.8125 56 
Q 31.78125 56 36.171875 55.265625 
Q 40.578125 54.546875 44.28125 53.078125 
z
" id="DejaVuSans-115"/>
      <path id="DejaVuSans-32"/>
      <path d="M 44.390625 34.1875 
Q 47.5625 33.109375 50.5625 29.59375 
Q 53.5625 26.078125 56.59375 19.921875 
L 66.609375 0 
L 56 0 
L 46.6875 18.703125 
Q 43.0625 26.03125 39.671875 28.421875 
Q 36.28125 30.8125 30.421875 30.8125 
L 19.671875 30.8125 
L 19.671875 0 
L 9.8125 0 
L 9.8125 72.90625 
L 32.078125 72.90625 
Q 44.578125 72.90625 50.734375 67.671875 
Q 56.890625 62.453125 56.890625 51.90625 
Q 56.890625 45.015625 53.6875 40.46875 
Q 50.484375 35.9375 44.390625 34.1875 
z
M 19.671875 64.796875 
L 19.671875 38.921875 
L 32.078125 38.921875 
Q 39.203125 38.921875 42.84375 42.21875 
Q 46.484375 45.515625 46.484375 51.90625 
Q 46.484375 58.296875 42.84375 61.546875 
Q 39.203125 64.796875 32.078125 64.796875 
z
" id="DejaVuSans-82"/>
      <path d="M 45.40625 27.984375 
Q 45.40625 37.75 41.375 43.109375 
Q 37.359375 48.484375 30.078125 48.484375 
Q 22.859375 48.484375 18.828125 43.109375 
Q 14.796875 37.75 14.796875 27.984375 
Q 14.796875 18.265625 18.828125 12.890625 
Q 22.859375 7.515625 30.078125 7.515625 
Q 37.359375 7.515625 41.375 12.890625 
Q 45.40625 18.265625 45.40625 27.984375 
z
M 54.390625 6.78125 
Q 54.390625 -7.171875 48.1875 -13.984375 
Q 42 -20.796875 29.203125 -20.796875 
Q 24.46875 -20.796875 20.265625 -20.09375 
Q 16.0625 -19.390625 12.109375 -17.921875 
L 12.109375 -9.1875 
Q 16.0625 -11.328125 19.921875 -12.34375 
Q 23.78125 -13.375 27.78125 -13.375 
Q 36.625 -13.375 41.015625 -8.765625 
Q 45.40625 -4.15625 45.40625 5.171875 
L 45.40625 9.625 
Q 42.625 4.78125 38.28125 2.390625 
Q 33.9375 0 27.875 0 
Q 17.828125 0 11.671875 7.65625 
Q 5.515625 15.328125 5.515625 27.984375 
Q 5.515625 40.671875 11.671875 48.328125 
Q 17.828125 56 27.875 56 
Q 33.9375 56 38.28125 53.609375 
Q 42.625 51.21875 45.40625 46.390625 
L 45.40625 54.6875 
L 54.390625 54.6875 
z
" id="DejaVuSans-103"/>
      <path d="M 9.421875 54.6875 
L 18.40625 54.6875 
L 18.40625 0 
L 9.421875 0 
z
M 9.421875 75.984375 
L 18.40625 75.984375 
L 18.40625 64.59375 
L 9.421875 64.59375 
z
" id="DejaVuSans-105"/>
      <path d="M 41.109375 46.296875 
Q 39.59375 47.171875 37.8125 47.578125 
Q 36.03125 48 33.890625 48 
Q 26.265625 48 22.1875 43.046875 
Q 18.109375 38.09375 18.109375 28.8125 
L 18.109375 0 
L 9.078125 0 
L 9.078125 54.6875 
L 18.109375 54.6875 
L 18.109375 46.1875 
Q 20.953125 51.171875 25.484375 53.578125 
Q 30.03125 56 36.53125 56 
Q 37.453125 56 38.578125 55.875 
Q 39.703125 55.765625 41.0625 55.515625 
z
" id="DejaVuSans-114"/>
     </defs>
     <g transform="translate(17.745313 167.498979)rotate(-90)scale(0.1 -0.1)">
      <use xlink:href="#DejaVuSans-83"/>
      <use x="63.476562" xlink:href="#DejaVuSans-116"/>
      <use x="102.685547" xlink:href="#DejaVuSans-117"/>
      <use x="166.064453" xlink:href="#DejaVuSans-100"/>
      <use x="229.541016" xlink:href="#DejaVuSans-101"/>
      <use x="291.064453" xlink:href="#DejaVuSans-110"/>
      <use x="354.443359" xlink:href="#DejaVuSans-116"/>
      <use x="393.652344" xlink:href="#DejaVuSans-115"/>
      <use x="445.751953" xlink:href="#DejaVuSans-32"/>
      <use x="477.539062" xlink:href="#DejaVuSans-82"/>
      <use x="546.958984" xlink:href="#DejaVuSans-101"/>
      <use x="608.482422" xlink:href="#DejaVuSans-103"/>
      <use x="671.958984" xlink:href="#DejaVuSans-105"/>
      <use x="699.742188" xlink:href="#DejaVuSans-115"/>
      <use x="751.841797" xlink:href="#DejaVuSans-116"/>
      <use x="791.050781" xlink:href="#DejaVuSans-101"/>
      <use x="852.574219" xlink:href="#DejaVuSans-114"/>
      <use x="893.65625" xlink:href="#DejaVuSans-101"/>
      <use x="955.179688" xlink:href="#DejaVuSans-100"/>
     </g>
    </g>
   </g>
   <g id="line2d_18">
    <path clip-path="url(#pd1fa7f20ee)" d="M 55.905 210.806645 
L 56.069441 210.806645 
L 56.069441 201.382519 
L 56.179946 201.382519 
L 56.801621 201.382519 
L 56.801621 196.670456 
L 56.877027 196.670456 
L 60.391258 196.670456 
L 60.391258 191.958393 
L 60.469291 191.958393 
L 63.356648 191.958393 
L 63.356648 177.822204 
L 63.434682 177.822204 
L 63.512704 177.822204 
L 63.512704 173.110142 
L 63.590753 173.110142 
L 63.668775 173.110142 
L 63.668775 154.26189 
L 63.74682 154.26189 
L 63.824846 154.26189 
L 63.824846 149.549827 
L 63.902881 149.549827 
L 63.98092 149.549827 
L 63.98092 140.125701 
L 64.058945 140.125701 
L 64.137015 140.125701 
L 64.137015 125.989512 
L 64.215048 125.989512 
L 66.946292 125.989512 
L 66.946292 121.277449 
L 67.024325 121.277449 
L 67.102346 121.277449 
L 67.102346 116.565386 
L 67.18038 116.565386 
L 67.570574 116.565386 
L 67.570574 111.853323 
L 67.648616 111.853323 
L 67.882721 111.853323 
L 67.882721 97.717134 
L 67.960745 97.717134 
L 68.038788 97.717134 
L 68.038788 93.005071 
L 68.116842 93.005071 
L 71.16022 93.005071 
L 71.16022 88.293008 
L 71.238272 88.293008 
L 71.316286 88.293008 
L 71.316286 83.580945 
L 71.394345 83.580945 
L 71.628452 83.580945 
L 71.628452 78.868882 
L 71.70648 78.868882 
L 72.096658 78.868882 
L 72.096658 74.156819 
L 72.174686 74.156819 
L 74.749902 74.156819 
L 74.749902 69.444756 
L 74.827909 69.444756 
L 82.085278 69.444756 
L 82.085278 45.884441 
L 82.163276 45.884441 
L 82.241335 45.884441 
L 82.241335 36.460315 
L 82.319347 36.460315 
L 82.397416 36.460315 
L 82.397416 31.748252 
L 82.475435 31.748252 
L 134.993612 31.748252 
L 134.993612 36.460315 
L 135.071662 36.460315 
L 135.149678 36.460315 
L 135.149678 31.748252 
L 135.227715 31.748252 
L 143.577558 31.748252 
L 143.577558 36.460315 
L 143.65562 36.460315 
L 143.733641 36.460315 
L 143.733641 31.748252 
L 143.811672 31.748252 
L 220.833161 31.748252 
L 220.833161 22.324126 
L 220.911167 22.324126 
L 303.005 22.324126 
L 303.005 22.324126 
" style="fill:none;stroke:#1b9e77;stroke-linecap:square;stroke-width:1.5;"/>
   </g>
   <g id="line2d_19">
    <path clip-path="url(#pd1fa7f20ee)" d="M 55.905 182.534267 
L 56.069441 182.534267 
L 56.069441 177.822204 
L 56.179946 177.822204 
L 56.877027 177.822204 
L 56.877027 173.110142 
L 59.374206 173.110142 
L 59.374206 168.398079 
L 59.61092 168.398079 
L 59.61092 163.686016 
L 59.688965 163.686016 
L 59.766983 163.686016 
L 59.766983 158.973953 
L 59.845032 158.973953 
L 60.235219 158.973953 
L 60.235219 144.837764 
L 60.313271 144.837764 
L 60.391258 144.837764 
L 60.391258 140.125701 
L 60.469291 140.125701 
L 63.512704 140.125701 
L 63.512704 130.701575 
L 63.590753 130.701575 
L 63.668775 130.701575 
L 63.668775 125.989512 
L 63.74682 125.989512 
L 63.824846 125.989512 
L 63.824846 130.701575 
L 63.902881 130.701575 
L 64.137015 130.701575 
L 64.137015 125.989512 
L 64.215048 125.989512 
L 64.293055 125.989512 
L 64.293055 116.565386 
L 64.371087 116.565386 
L 65.073434 116.565386 
L 65.073434 107.14126 
L 65.151479 107.14126 
L 66.790224 107.14126 
L 66.790224 102.429197 
L 66.868251 102.429197 
L 66.946292 102.429197 
L 66.946292 83.580945 
L 67.024325 83.580945 
L 67.102346 83.580945 
L 67.102346 74.156819 
L 67.18038 74.156819 
L 67.414507 74.156819 
L 67.414507 69.444756 
L 67.492545 69.444756 
L 67.570574 69.444756 
L 67.570574 64.732693 
L 67.648616 64.732693 
L 67.72665 64.732693 
L 67.72665 60.02063 
L 67.804695 60.02063 
L 67.882721 60.02063 
L 67.882721 45.884441 
L 67.960745 45.884441 
L 68.038788 45.884441 
L 68.038788 41.172378 
L 68.116842 41.172378 
L 68.194869 41.172378 
L 68.194869 36.460315 
L 68.272891 36.460315 
L 70.84807 36.460315 
L 70.84807 27.036189 
L 70.926118 27.036189 
L 71.004176 27.036189 
L 71.004176 22.324126 
L 71.082203 22.324126 
L 89.420621 22.324126 
L 89.420621 27.036189 
L 89.498689 27.036189 
L 89.576689 27.036189 
L 89.576689 22.324126 
L 89.654757 22.324126 
L 244.24392 22.324126 
L 244.24392 27.036189 
L 244.321962 27.036189 
L 244.400017 27.036189 
L 244.400017 22.324126 
L 244.478044 22.324126 
L 303.005 22.324126 
L 303.005 22.324126 
" style="fill:none;stroke:#d95f02;stroke-linecap:square;stroke-width:1.5;"/>
   </g>
   <g id="line2d_20">
    <path clip-path="url(#pd1fa7f20ee)" d="M 55.905 201.382519 
L 60.079156 201.382519 
L 60.079156 196.670456 
L 60.157168 196.670456 
L 63.200582 196.670456 
L 63.200582 191.958393 
L 63.278589 191.958393 
L 63.356648 191.958393 
L 63.356648 187.24633 
L 63.434682 187.24633 
L 63.512704 187.24633 
L 63.512704 177.822204 
L 63.590753 177.822204 
L 63.668775 177.822204 
L 63.668775 173.110142 
L 63.74682 173.110142 
L 63.824846 173.110142 
L 63.824846 168.398079 
L 63.902881 168.398079 
L 63.98092 168.398079 
L 63.98092 163.686016 
L 64.058945 163.686016 
L 64.293055 163.686016 
L 64.293055 158.973953 
L 64.371087 158.973953 
L 66.946292 158.973953 
L 66.946292 149.549827 
L 67.024325 149.549827 
L 67.102346 149.549827 
L 67.102346 144.837764 
L 67.18038 144.837764 
L 67.72665 144.837764 
L 67.72665 140.125701 
L 67.804695 140.125701 
L 67.882721 140.125701 
L 67.882721 130.701575 
L 67.960745 130.701575 
L 82.085278 130.701575 
L 82.085278 125.989512 
L 82.163276 125.989512 
L 82.241335 125.989512 
L 82.241335 121.277449 
L 82.319347 121.277449 
L 82.397416 121.277449 
L 82.397416 116.565386 
L 82.475435 116.565386 
L 82.553471 116.565386 
L 82.553471 111.853323 
L 82.631499 111.853323 
L 82.709559 111.853323 
L 82.709559 102.429197 
L 82.787577 102.429197 
L 82.865633 102.429197 
L 82.865633 97.717134 
L 82.943649 97.717134 
L 85.674906 97.717134 
L 85.713927 83.580945 
L 85.752941 83.580945 
L 85.987057 83.580945 
L 85.987057 74.156819 
L 86.06509 74.156819 
L 86.455277 74.156819 
L 86.455277 69.444756 
L 86.533315 69.444756 
L 86.61135 69.444756 
L 86.61135 60.02063 
L 86.689391 60.02063 
L 86.76742 60.02063 
L 86.76742 36.460315 
L 86.845453 36.460315 
L 86.923469 36.460315 
L 86.923469 22.324126 
L 87.001576 22.324126 
L 89.264545 22.324126 
L 89.264545 27.036189 
L 89.342711 27.036189 
L 89.576689 27.036189 
L 89.576689 22.324126 
L 89.654757 22.324126 
L 127.346081 22.324126 
L 127.346081 27.036189 
L 127.424144 27.036189 
L 127.502185 27.036189 
L 127.502185 22.324126 
L 127.58019 22.324126 
L 134.369356 22.324126 
L 134.369356 27.036189 
L 134.447362 27.036189 
L 134.681457 27.036189 
L 134.681457 22.324126 
L 134.759532 22.324126 
L 134.993612 22.324126 
L 134.993612 27.036189 
L 135.071662 27.036189 
L 135.617932 27.036189 
L 135.617932 22.324126 
L 135.695948 22.324126 
L 303.005 22.324126 
L 303.005 22.324126 
" style="fill:none;stroke:#7570b3;stroke-linecap:square;stroke-width:1.5;"/>
   </g>
   <g id="line2d_21">
    <path clip-path="url(#pd1fa7f20ee)" d="M 55.905 201.382519 
L 60.391258 201.382519 
L 60.391258 196.670456 
L 60.469291 196.670456 
L 63.356648 196.670456 
L 63.356648 191.958393 
L 63.434682 191.958393 
L 63.98092 191.958393 
L 63.98092 187.24633 
L 64.058945 187.24633 
L 67.25841 187.24633 
L 67.25841 177.822204 
L 67.336465 177.822204 
L 67.570574 177.822204 
L 67.570574 173.110142 
L 67.648616 173.110142 
L 67.882721 173.110142 
L 67.882721 168.398079 
L 67.960745 168.398079 
L 68.038788 168.398079 
L 68.038788 163.686016 
L 68.116842 163.686016 
L 71.628452 163.686016 
L 71.628452 158.973953 
L 71.70648 158.973953 
L 75.218102 158.973953 
L 75.218102 154.26189 
L 75.296149 154.26189 
L 82.085278 154.26189 
L 82.085278 144.837764 
L 82.163276 144.837764 
L 82.397416 144.837764 
L 82.397416 140.125701 
L 82.475435 140.125701 
L 83.177773 140.125701 
L 83.177773 135.413638 
L 83.255797 135.413638 
L 85.674906 135.413638 
L 85.674906 130.701575 
L 85.752941 130.701575 
L 86.455277 130.701575 
L 86.455277 125.989512 
L 86.533315 125.989512 
L 86.61135 125.989512 
L 86.61135 121.277449 
L 86.689391 121.277449 
L 86.76742 121.277449 
L 86.806433 107.14126 
L 86.845453 107.14126 
L 89.420621 107.14126 
L 89.420621 102.429197 
L 89.498689 102.429197 
L 89.576689 102.429197 
L 89.576689 93.005071 
L 89.654757 93.005071 
L 89.73276 93.005071 
L 89.73276 88.293008 
L 89.810804 88.293008 
L 89.888847 88.293008 
L 89.927863 74.156819 
L 89.966884 74.156819 
L 90.200985 74.156819 
L 90.200985 60.02063 
L 90.279036 60.02063 
L 90.357077 60.02063 
L 90.357077 50.596504 
L 90.435123 50.596504 
L 90.513126 50.596504 
L 90.513126 31.748252 
L 90.591189 31.748252 
L 90.669219 31.748252 
L 90.669219 27.036189 
L 90.747271 27.036189 
L 91.449584 27.036189 
L 91.449584 22.324126 
L 91.527624 22.324126 
L 134.369356 22.324126 
L 134.369356 27.036189 
L 134.447362 27.036189 
L 134.525426 27.036189 
L 134.525426 22.324126 
L 134.603458 22.324126 
L 134.837553 22.324126 
L 134.837553 27.036189 
L 134.915607 27.036189 
L 135.30575 27.036189 
L 135.30575 31.748252 
L 135.383817 31.748252 
L 135.617932 31.748252 
L 135.617932 36.460315 
L 135.695948 36.460315 
L 139.831843 36.460315 
L 139.831843 41.172378 
L 139.909876 41.172378 
L 149.040099 41.172378 
L 149.040099 36.460315 
L 149.118138 36.460315 
L 166.364053 36.460315 
L 166.364053 41.172378 
L 166.442112 41.172378 
L 172.450872 41.172378 
L 172.450872 36.460315 
L 172.528903 36.460315 
L 191.491662 36.460315 
L 191.491662 31.748252 
L 191.569693 31.748252 
L 193.988771 31.748252 
L 193.988771 27.036189 
L 194.066811 27.036189 
L 198.358803 27.036189 
L 198.358803 22.324126 
L 220.833161 22.324126 
L 220.833161 31.748252 
L 220.911167 31.748252 
L 221.301338 31.748252 
L 221.301338 36.460315 
L 221.379412 36.460315 
L 248.457865 36.460315 
L 248.457865 41.172378 
L 248.53593 41.172378 
L 254.076459 41.172378 
L 254.076459 36.460315 
L 254.154485 36.460315 
L 257.822193 36.460315 
L 257.822193 31.748252 
L 257.900206 31.748252 
L 258.914658 31.748252 
L 258.914658 27.036189 
L 258.992734 27.036189 
L 269.527583 27.036189 
L 269.527583 22.324126 
L 269.605624 22.324126 
L 289.816893 22.324126 
L 289.816893 27.036189 
L 289.894989 27.036189 
L 303.005 27.036189 
L 303.005 27.036189 
" style="fill:none;stroke:#e7298a;stroke-linecap:square;stroke-width:1.5;"/>
   </g>
   <g id="line2d_22">
    <path clip-path="url(#pd1fa7f20ee)" d="M 88.48422 196.670456 
L 89.264545 196.670456 
L 89.264545 182.534267 
L 89.342711 182.534267 
L 89.420621 182.534267 
L 89.420621 177.822204 
L 89.498689 177.822204 
L 89.576689 177.822204 
L 89.576689 158.973953 
L 89.654757 158.973953 
L 89.888847 158.973953 
L 89.888847 144.837764 
L 89.966884 144.837764 
L 90.200985 144.837764 
L 90.200985 116.565386 
L 90.279036 116.565386 
L 90.513126 116.565386 
L 90.513126 107.14126 
L 90.591189 107.14126 
L 90.669219 107.14126 
L 90.669219 102.429197 
L 90.747271 102.429197 
L 90.825277 102.429197 
L 90.825277 97.717134 
L 90.90334 97.717134 
L 91.137446 97.717134 
L 91.137446 93.005071 
L 91.215445 93.005071 
L 93.322418 93.005071 
L 93.322418 74.156819 
L 93.400481 74.156819 
L 93.634572 74.156819 
L 93.634572 69.444756 
L 93.712596 69.444756 
L 93.94674 69.444756 
L 93.94674 60.02063 
L 94.02476 60.02063 
L 94.102812 60.02063 
L 94.102812 55.308567 
L 94.180828 55.308567 
L 94.41496 55.308567 
L 94.41496 50.596504 
L 94.49297 50.596504 
L 97.692456 50.596504 
L 97.692456 45.884441 
L 97.770476 45.884441 
L 97.848501 45.884441 
L 97.848501 41.172378 
L 97.926572 41.172378 
L 98.004581 41.172378 
L 98.004581 36.460315 
L 98.082636 36.460315 
L 98.472818 36.460315 
L 98.472818 31.748252 
L 98.550856 31.748252 
L 108.461393 31.748252 
L 108.461393 22.324126 
L 108.539448 22.324126 
L 127.658236 22.324126 
L 127.658236 27.036189 
L 127.736281 27.036189 
L 128.594666 27.036189 
L 128.594666 22.324126 
L 128.672705 22.324126 
L 142.172936 22.324126 
L 142.172936 27.036189 
L 142.250975 27.036189 
L 143.421505 27.036189 
L 143.421505 22.324126 
L 143.49955 22.324126 
L 244.400017 22.324126 
L 244.400017 27.036189 
L 244.478044 27.036189 
L 248.77002 27.036189 
L 248.77002 22.324126 
L 248.848046 22.324126 
L 280.608674 22.324126 
L 280.608674 27.036189 
L 280.686723 27.036189 
L 280.764755 27.036189 
L 280.764755 22.324126 
L 280.842783 22.324126 
L 281.232944 22.324126 
L 281.232944 27.036189 
L 281.310998 27.036189 
L 281.70116 27.036189 
L 281.70116 22.324126 
L 281.779195 22.324126 
L 289.348683 22.324126 
L 289.348683 27.036189 
L 289.426756 27.036189 
L 289.816893 27.036189 
L 289.816893 22.324126 
L 289.894989 22.324126 
L 301.210173 22.324126 
L 301.210173 27.036189 
L 301.288197 27.036189 
L 303.005 27.036189 
L 303.005 27.036189 
" style="fill:none;stroke:#66a61e;stroke-linecap:square;stroke-width:1.5;"/>
   </g>
   <g id="line2d_23">
    <path clip-path="url(#pd1fa7f20ee)" d="M 55.905 191.958393 
L 63.356648 191.958393 
L 63.356648 187.24633 
L 63.434682 187.24633 
L 64.137015 187.24633 
L 64.137015 182.534267 
L 64.215048 182.534267 
L 64.449148 182.534267 
L 64.449148 177.822204 
L 64.527194 177.822204 
L 67.414507 177.822204 
L 67.414507 173.110142 
L 67.492545 173.110142 
L 67.72665 173.110142 
L 67.72665 168.398079 
L 67.804695 168.398079 
L 70.84807 168.398079 
L 70.84807 163.686016 
L 70.926118 163.686016 
L 81.929184 163.686016 
L 81.929184 154.26189 
L 82.007204 154.26189 
L 82.085278 154.26189 
L 82.085278 144.837764 
L 82.163276 144.837764 
L 82.553471 144.837764 
L 82.553471 140.125701 
L 82.631499 140.125701 
L 83.177773 140.125701 
L 83.177773 135.413638 
L 83.255797 135.413638 
L 85.987057 135.413638 
L 85.987057 130.701575 
L 86.06509 130.701575 
L 86.299174 130.701575 
L 86.299174 121.277449 
L 86.377251 121.277449 
L 86.61135 121.277449 
L 86.61135 116.565386 
L 86.689391 116.565386 
L 87.547783 116.565386 
L 87.547783 111.853323 
L 87.62581 111.853323 
L 89.264545 111.853323 
L 89.264545 107.14126 
L 89.342711 107.14126 
L 89.576689 107.14126 
L 89.576689 102.429197 
L 89.654757 102.429197 
L 89.73276 102.429197 
L 89.73276 93.005071 
L 89.810804 93.005071 
L 90.044928 93.005071 
L 90.044928 88.293008 
L 90.122983 88.293008 
L 90.200985 88.293008 
L 90.240018 74.156819 
L 90.279036 74.156819 
L 90.357077 74.156819 
L 90.357077 64.732693 
L 90.435123 64.732693 
L 90.98134 64.732693 
L 90.98134 69.444756 
L 91.05941 69.444756 
L 93.322418 69.444756 
L 93.322418 60.02063 
L 93.400481 60.02063 
L 93.478528 60.02063 
L 93.478528 55.308567 
L 93.556563 55.308567 
L 93.79065 55.308567 
L 93.79065 50.596504 
L 93.868688 50.596504 
L 93.94674 50.596504 
L 93.94674 41.172378 
L 94.02476 41.172378 
L 94.102812 41.172378 
L 94.102812 36.460315 
L 94.180828 36.460315 
L 94.41496 36.460315 
L 94.41496 31.748252 
L 94.49297 31.748252 
L 222.549936 31.748252 
L 222.549936 36.460315 
L 222.627954 36.460315 
L 226.13957 36.460315 
L 226.13957 31.748252 
L 226.217627 31.748252 
L 303.005 31.748252 
L 303.005 31.748252 
" style="fill:none;stroke:#e6ab02;stroke-linecap:square;stroke-width:1.5;"/>
   </g>
   <g id="line2d_24">
    <path clip-path="url(#pd1fa7f20ee)" d="M 55.905 196.670456 
L 60.079156 196.670456 
L 60.079156 191.958393 
L 60.157168 191.958393 
L 63.200582 191.958393 
L 63.200582 187.24633 
L 63.278589 187.24633 
L 63.356648 187.24633 
L 63.356648 182.534267 
L 63.434682 182.534267 
L 63.668775 182.534267 
L 63.668775 177.822204 
L 63.74682 177.822204 
L 63.824846 177.822204 
L 63.824846 173.110142 
L 63.902881 173.110142 
L 63.98092 173.110142 
L 63.98092 163.686016 
L 64.058945 163.686016 
L 64.137015 163.686016 
L 64.137015 158.973953 
L 64.215048 158.973953 
L 64.293055 158.973953 
L 64.293055 154.26189 
L 64.371087 154.26189 
L 66.790224 154.26189 
L 66.790224 149.549827 
L 66.868251 149.549827 
L 66.946292 149.549827 
L 66.946292 140.125701 
L 67.024325 140.125701 
L 67.25841 140.125701 
L 67.25841 135.413638 
L 67.336465 135.413638 
L 67.414507 135.413638 
L 67.414507 125.989512 
L 67.492545 125.989512 
L 67.72665 125.989512 
L 67.72665 121.277449 
L 67.804695 121.277449 
L 68.038788 121.277449 
L 68.038788 116.565386 
L 68.116842 116.565386 
L 68.194869 116.565386 
L 68.194869 111.853323 
L 68.272891 111.853323 
L 71.004176 111.853323 
L 71.004176 107.14126 
L 71.082203 107.14126 
L 71.628452 107.14126 
L 71.628452 102.429197 
L 71.70648 102.429197 
L 75.686295 102.429197 
L 75.686295 97.717134 
L 75.764347 97.717134 
L 81.929184 97.717134 
L 81.929184 93.005071 
L 82.007204 93.005071 
L 82.397416 93.005071 
L 82.397416 78.868882 
L 82.475435 78.868882 
L 82.553471 78.868882 
L 82.553471 69.444756 
L 82.631499 69.444756 
L 82.709559 69.444756 
L 82.709559 60.02063 
L 82.787577 60.02063 
L 83.177773 60.02063 
L 83.177773 55.308567 
L 83.255797 55.308567 
L 85.362769 55.308567 
L 85.362769 50.596504 
L 85.440801 50.596504 
L 85.830975 50.596504 
L 85.830975 45.884441 
L 85.909034 45.884441 
L 85.987057 45.884441 
L 85.987057 41.172378 
L 86.06509 41.172378 
L 86.143119 41.172378 
L 86.143119 36.460315 
L 86.22115 36.460315 
L 86.61135 36.460315 
L 86.61135 31.748252 
L 86.689391 31.748252 
L 303.005 31.748252 
L 303.005 31.748252 
" style="fill:none;stroke:#a6761d;stroke-linecap:square;stroke-width:1.5;"/>
   </g>
   <g id="line2d_25">
    <path clip-path="url(#pd1fa7f20ee)" d="M 55.905 196.670456 
L 59.374206 196.670456 
L 59.374206 191.958393 
L 63.98092 191.958393 
L 63.98092 187.24633 
L 64.058945 187.24633 
L 67.102346 187.24633 
L 67.102346 182.534267 
L 67.18038 182.534267 
L 67.414507 182.534267 
L 67.414507 177.822204 
L 67.492545 177.822204 
L 67.882721 177.822204 
L 67.882721 173.110142 
L 67.960745 173.110142 
L 68.038788 173.110142 
L 68.038788 168.398079 
L 68.116842 168.398079 
L 68.975226 168.398079 
L 68.975226 163.686016 
L 69.053277 163.686016 
L 82.397416 163.686016 
L 82.397416 154.26189 
L 82.475435 154.26189 
L 85.987057 154.26189 
L 85.987057 149.549827 
L 86.06509 149.549827 
L 86.76742 149.549827 
L 86.76742 144.837764 
L 86.845453 144.837764 
L 87.235649 144.837764 
L 87.235649 140.125701 
L 87.313676 140.125701 
L 89.576689 140.125701 
L 89.576689 135.413638 
L 89.654757 135.413638 
L 89.73276 135.413638 
L 89.73276 125.989512 
L 89.810804 125.989512 
L 90.200985 125.989512 
L 90.200985 116.565386 
L 90.279036 116.565386 
L 93.634572 116.565386 
L 93.634572 111.853323 
L 93.712596 111.853323 
L 94.102812 111.853323 
L 94.102812 107.14126 
L 94.180828 107.14126 
L 94.570996 107.14126 
L 94.570996 102.429197 
L 94.64905 102.429197 
L 98.472818 102.429197 
L 98.472818 97.717134 
L 98.550856 97.717134 
L 109.24177 97.717134 
L 109.24177 93.005071 
L 109.319816 93.005071 
L 112.831412 93.005071 
L 112.831412 88.293008 
L 112.909465 88.293008 
L 116.889307 88.293008 
L 116.889307 93.005071 
L 116.967332 93.005071 
L 134.837553 93.005071 
L 134.837553 88.293008 
L 134.915607 88.293008 
L 134.993612 88.293008 
L 134.993612 93.005071 
L 135.071662 93.005071 
L 138.895424 93.005071 
L 138.895424 88.293008 
L 138.973478 88.293008 
L 166.364053 88.293008 
L 166.364053 83.580945 
L 166.442112 83.580945 
L 191.335558 83.580945 
L 191.335558 78.868882 
L 191.413593 78.868882 
L 199.29524 78.868882 
L 199.29524 83.580945 
L 199.373268 83.580945 
L 248.77002 83.580945 
L 248.77002 88.293008 
L 248.848046 88.293008 
L 250.642893 88.293008 
L 250.642893 93.005071 
L 250.720927 93.005071 
L 263.752929 93.005071 
L 263.752929 88.293008 
L 263.830949 88.293008 
L 265.937933 88.293008 
L 265.937933 83.580945 
L 266.015973 83.580945 
L 269.05934 83.580945 
L 269.05934 78.868882 
L 269.137408 78.868882 
L 273.429347 78.868882 
L 273.429347 83.580945 
L 273.507399 83.580945 
L 289.348683 83.580945 
L 289.348683 78.868882 
L 289.426756 78.868882 
L 303.005 78.868882 
L 303.005 78.868882 
" style="fill:none;stroke:#666666;stroke-linecap:square;stroke-width:1.5;"/>
   </g>
   <g id="line2d_26">
    <path clip-path="url(#pd1fa7f20ee)" d="M 55.905 201.382519 
L 63.512704 201.382519 
L 63.512704 196.670456 
L 63.590753 196.670456 
L 63.98092 196.670456 
L 63.98092 191.958393 
L 64.058945 191.958393 
L 67.414507 191.958393 
L 67.414507 187.24633 
L 67.492545 187.24633 
L 67.72665 187.24633 
L 67.72665 191.958393 
L 67.804695 191.958393 
L 67.882721 191.958393 
L 67.882721 182.534267 
L 67.960745 182.534267 
L 82.085278 182.534267 
L 82.085278 177.822204 
L 82.163276 177.822204 
L 82.397416 177.822204 
L 82.397416 173.110142 
L 82.475435 173.110142 
L 82.709559 173.110142 
L 82.709559 168.398079 
L 82.787577 168.398079 
L 82.865633 168.398079 
L 82.865633 163.686016 
L 82.943649 163.686016 
L 83.645967 163.686016 
L 83.645967 158.973953 
L 83.724034 158.973953 
L 86.143119 158.973953 
L 86.143119 154.26189 
L 86.22115 154.26189 
L 86.61135 154.26189 
L 86.61135 149.549827 
L 86.689391 149.549827 
L 86.76742 149.549827 
L 86.76742 144.837764 
L 86.845453 144.837764 
L 89.420621 144.837764 
L 89.420621 135.413638 
L 89.498689 135.413638 
L 89.576689 135.413638 
L 89.576689 130.701575 
L 89.654757 130.701575 
L 89.73276 130.701575 
L 89.77178 116.565386 
L 89.810804 116.565386 
L 90.357077 116.565386 
L 90.357077 111.853323 
L 90.435123 111.853323 
L 90.513126 111.853323 
L 90.513126 107.14126 
L 90.591189 107.14126 
L 90.669219 107.14126 
L 90.669219 111.853323 
L 90.747271 111.853323 
L 90.825277 111.853323 
L 90.825277 107.14126 
L 90.90334 107.14126 
L 90.98134 107.14126 
L 90.98134 102.429197 
L 91.05941 102.429197 
L 92.854227 102.429197 
L 92.854227 107.14126 
L 92.93224 107.14126 
L 93.322418 107.14126 
L 93.322418 93.005071 
L 93.400481 93.005071 
L 93.634572 93.005071 
L 93.634572 88.293008 
L 93.712596 88.293008 
L 93.94674 88.293008 
L 93.94674 69.444756 
L 94.02476 69.444756 
L 94.102812 69.444756 
L 94.102812 64.732693 
L 94.180828 64.732693 
L 97.536363 64.732693 
L 97.536363 60.02063 
L 97.614394 60.02063 
L 110.178215 60.02063 
L 110.178215 55.308567 
L 110.256251 55.308567 
L 112.675358 55.308567 
L 112.675358 50.596504 
L 112.753373 50.596504 
L 112.831412 50.596504 
L 112.831412 55.308567 
L 112.909465 55.308567 
L 113.143557 55.308567 
L 113.143557 50.596504 
L 113.221611 50.596504 
L 116.889307 50.596504 
L 116.889307 45.884441 
L 116.967332 45.884441 
L 123.288215 45.884441 
L 123.288215 50.596504 
L 123.366259 50.596504 
L 127.658236 50.596504 
L 127.658236 45.884441 
L 127.736281 45.884441 
L 134.369356 45.884441 
L 134.369356 50.596504 
L 134.447362 50.596504 
L 134.681457 50.596504 
L 134.681457 55.308567 
L 134.759532 55.308567 
L 135.149678 55.308567 
L 135.149678 60.02063 
L 135.227715 60.02063 
L 139.519697 60.02063 
L 139.519697 64.732693 
L 139.597765 64.732693 
L 146.230777 64.732693 
L 146.230777 69.444756 
L 146.308836 69.444756 
L 161.837999 69.444756 
L 161.837999 74.156819 
L 161.916019 74.156819 
L 232.694608 74.156819 
L 232.694608 69.444756 
L 232.772676 69.444756 
L 236.908564 69.444756 
L 236.908564 74.156819 
L 236.98662 74.156819 
L 277.175096 74.156819 
L 277.175096 69.444756 
L 277.253119 69.444756 
L 280.764755 69.444756 
L 280.764755 74.156819 
L 280.842783 74.156819 
L 280.920815 74.156819 
L 280.920815 78.868882 
L 280.998852 78.868882 
L 283.886184 78.868882 
L 283.886184 83.580945 
L 283.964234 83.580945 
L 303.005 83.580945 
L 303.005 83.580945 
" style="fill:none;stroke:#1b9e77;stroke-dasharray:4.5,1.5;stroke-dashoffset:0;stroke-width:1.5;"/>
   </g>
   <g id="line2d_27">
    <path clip-path="url(#pd1fa7f20ee)" d="M 55.905 210.806645 
L 60.547326 210.806645 
L 60.547326 206.094582 
L 60.625366 206.094582 
L 61.171644 206.094582 
L 61.171644 201.382519 
L 61.249672 201.382519 
L 71.004176 201.382519 
L 71.004176 196.670456 
L 71.082203 196.670456 
L 81.929184 196.670456 
L 81.929184 191.958393 
L 82.007204 191.958393 
L 83.021682 191.958393 
L 83.021682 182.534267 
L 83.099711 182.534267 
L 85.987057 182.534267 
L 85.987057 177.822204 
L 86.06509 177.822204 
L 86.143119 177.822204 
L 86.143119 173.110142 
L 86.22115 173.110142 
L 86.61135 173.110142 
L 86.61135 163.686016 
L 86.689391 163.686016 
L 86.76742 163.686016 
L 86.76742 158.973953 
L 86.845453 158.973953 
L 87.703826 158.973953 
L 87.703826 154.26189 
L 87.781902 154.26189 
L 89.576689 154.26189 
L 89.576689 158.973953 
L 89.654757 158.973953 
L 89.888847 158.973953 
L 89.888847 154.26189 
L 89.966884 154.26189 
L 90.044928 154.26189 
L 90.044928 149.549827 
L 90.122983 149.549827 
L 90.357077 149.549827 
L 90.357077 144.837764 
L 90.435123 144.837764 
L 90.513126 144.837764 
L 90.513126 149.549827 
L 90.591189 149.549827 
L 90.669219 149.549827 
L 90.669219 144.837764 
L 90.747271 144.837764 
L 93.322418 144.837764 
L 93.322418 140.125701 
L 93.400481 140.125701 
L 98.316744 140.125701 
L 98.316744 135.413638 
L 98.39477 135.413638 
L 108.773549 135.413638 
L 108.773549 130.701575 
L 108.851598 130.701575 
L 123.600367 130.701575 
L 123.600367 125.989512 
L 123.678438 125.989512 
L 142.172936 125.989512 
L 142.172936 121.277449 
L 142.250975 121.277449 
L 161.837999 121.277449 
L 161.837999 116.565386 
L 161.916019 116.565386 
L 198.358803 116.565386 
L 198.358803 111.853323 
L 213.341691 111.853323 
L 213.341691 107.14126 
L 213.419745 107.14126 
L 244.24392 107.14126 
L 244.24392 102.429197 
L 244.321962 102.429197 
L 248.613934 102.429197 
L 248.613934 97.717134 
L 248.691974 97.717134 
L 254.388582 97.717134 
L 254.388582 93.005071 
L 254.466639 93.005071 
L 278.111537 93.005071 
L 278.111537 88.293008 
L 278.189574 88.293008 
L 280.764755 88.293008 
L 280.764755 83.580945 
L 280.842783 83.580945 
L 281.70116 83.580945 
L 281.70116 88.293008 
L 281.779195 88.293008 
L 303.005 88.293008 
L 303.005 88.293008 
" style="fill:none;stroke:#d95f02;stroke-dasharray:4.5,1.5;stroke-dashoffset:0;stroke-width:1.5;"/>
   </g>
   <g id="line2d_28">
    <path clip-path="url(#pd1fa7f20ee)" d="M 55.905 206.094582 
L 63.200582 206.094582 
L 63.200582 201.382519 
L 63.278589 201.382519 
L 63.356648 201.382519 
L 63.356648 196.670456 
L 63.434682 196.670456 
L 63.98092 196.670456 
L 63.98092 187.24633 
L 64.058945 187.24633 
L 66.946292 187.24633 
L 66.946292 182.534267 
L 67.024325 182.534267 
L 67.72665 182.534267 
L 67.72665 177.822204 
L 67.804695 177.822204 
L 67.882721 177.822204 
L 67.882721 173.110142 
L 67.960745 173.110142 
L 68.038788 173.110142 
L 68.038788 168.398079 
L 68.116842 168.398079 
L 82.241335 168.398079 
L 82.241335 163.686016 
L 82.319347 163.686016 
L 82.397416 163.686016 
L 82.397416 158.973953 
L 82.475435 158.973953 
L 82.553471 158.973953 
L 82.553471 149.549827 
L 82.631499 149.549827 
L 86.455277 149.549827 
L 86.455277 144.837764 
L 86.533315 144.837764 
L 86.61135 144.837764 
L 86.61135 140.125701 
L 86.689391 140.125701 
L 89.264545 140.125701 
L 89.264545 144.837764 
L 89.342711 144.837764 
L 89.73276 144.837764 
L 89.73276 135.413638 
L 89.810804 135.413638 
L 89.888847 135.413638 
L 89.888847 140.125701 
L 89.966884 140.125701 
L 90.044928 140.125701 
L 90.044928 135.413638 
L 90.122983 135.413638 
L 90.357077 135.413638 
L 90.357077 125.989512 
L 90.435123 125.989512 
L 90.513126 125.989512 
L 90.513126 121.277449 
L 90.591189 121.277449 
L 97.848501 121.277449 
L 97.848501 116.565386 
L 97.926572 116.565386 
L 98.316744 116.565386 
L 98.316744 111.853323 
L 98.39477 111.853323 
L 105.808171 111.853323 
L 105.808171 107.14126 
L 105.886208 107.14126 
L 120.010712 107.14126 
L 120.010712 102.429197 
L 120.08876 102.429197 
L 120.634999 102.429197 
L 120.634999 97.717134 
L 120.713072 97.717134 
L 123.756461 97.717134 
L 123.756461 93.005071 
L 123.834501 93.005071 
L 136.086146 93.005071 
L 136.086146 88.293008 
L 136.164154 88.293008 
L 229.104934 88.293008 
L 229.104934 93.005071 
L 229.183006 93.005071 
L 232.694608 93.005071 
L 232.694608 97.717134 
L 232.772676 97.717134 
L 265.781852 97.717134 
L 265.781852 93.005071 
L 265.859866 93.005071 
L 266.406118 93.005071 
L 266.406118 88.293008 
L 266.484164 88.293008 
L 303.005 88.293008 
L 303.005 88.293008 
" style="fill:none;stroke:#7570b3;stroke-dasharray:4.5,1.5;stroke-dashoffset:0;stroke-width:1.5;"/>
   </g>
   <g id="line2d_29">
    <path clip-path="url(#pd1fa7f20ee)" d="M 55.905 210.806645 
L 59.923204 210.806645 
L 59.923204 206.094582 
L 60.001106 206.094582 
L 60.235219 206.094582 
L 60.235219 201.382519 
L 60.313271 201.382519 
L 63.824846 201.382519 
L 63.824846 196.670456 
L 63.902881 196.670456 
L 67.882721 196.670456 
L 67.882721 191.958393 
L 67.960745 191.958393 
L 70.379877 191.958393 
L 70.379877 187.24633 
L 70.457936 187.24633 
L 71.16022 187.24633 
L 71.16022 182.534267 
L 71.238272 182.534267 
L 71.472377 182.534267 
L 71.472377 177.822204 
L 71.550399 177.822204 
L 81.929184 177.822204 
L 81.929184 168.398079 
L 82.007204 168.398079 
L 82.241335 168.398079 
L 82.241335 163.686016 
L 82.319347 163.686016 
L 82.397416 163.686016 
L 82.397416 158.973953 
L 82.475435 158.973953 
L 82.553471 158.973953 
L 82.553471 154.26189 
L 82.631499 154.26189 
L 82.709559 154.26189 
L 82.709559 144.837764 
L 82.787577 144.837764 
L 82.865633 144.837764 
L 82.865633 140.125701 
L 82.943649 140.125701 
L 83.177773 140.125701 
L 83.177773 135.413638 
L 83.255797 135.413638 
L 83.489931 135.413638 
L 83.489931 130.701575 
L 83.567954 130.701575 
L 83.958104 130.701575 
L 83.958104 125.989512 
L 84.036177 125.989512 
L 85.674906 125.989512 
L 85.674906 121.277449 
L 85.752941 121.277449 
L 85.830975 121.277449 
L 85.830975 116.565386 
L 85.909034 116.565386 
L 85.987057 116.565386 
L 85.987057 102.429197 
L 86.06509 102.429197 
L 86.143119 102.429197 
L 86.143119 97.717134 
L 86.22115 97.717134 
L 86.299174 97.717134 
L 86.299174 93.005071 
L 86.377251 93.005071 
L 87.703826 93.005071 
L 87.703826 97.717134 
L 87.781902 97.717134 
L 89.73276 97.717134 
L 89.73276 93.005071 
L 89.810804 93.005071 
L 89.888847 93.005071 
L 89.888847 97.717134 
L 89.966884 97.717134 
L 90.044928 97.717134 
L 90.044928 93.005071 
L 90.122983 93.005071 
L 94.41496 93.005071 
L 94.41496 97.717134 
L 94.49297 97.717134 
L 94.570996 97.717134 
L 94.570996 93.005071 
L 94.64905 93.005071 
L 243.931801 93.005071 
L 243.931801 97.717134 
L 244.009805 97.717134 
L 255.949315 97.717134 
L 255.949315 93.005071 
L 256.027336 93.005071 
L 296.684056 93.005071 
L 296.684056 97.717134 
L 296.762131 97.717134 
L 301.210173 97.717134 
L 301.210173 93.005071 
L 301.288197 93.005071 
L 303.005 93.005071 
L 303.005 93.005071 
" style="fill:none;stroke:#e7298a;stroke-dasharray:4.5,1.5;stroke-dashoffset:0;stroke-width:1.5;"/>
   </g>
   <g id="line2d_30">
    <path clip-path="url(#pd1fa7f20ee)" d="M 125.980463 210.806645 
L 127.346081 210.806645 
L 127.346081 206.094582 
L 127.424144 206.094582 
L 132.028269 206.094582 
L 132.028269 201.382519 
L 132.106283 201.382519 
L 134.369356 201.382519 
L 134.369356 182.534267 
L 134.447362 182.534267 
L 134.681457 182.534267 
L 134.681457 173.110142 
L 134.759532 173.110142 
L 134.993612 173.110142 
L 134.993612 158.973953 
L 135.071662 158.973953 
L 135.30575 158.973953 
L 135.30575 154.26189 
L 135.383817 154.26189 
L 138.42722 154.26189 
L 138.42722 149.549827 
L 138.505255 149.549827 
L 139.20757 149.549827 
L 139.20757 144.837764 
L 139.285601 144.837764 
L 139.519697 144.837764 
L 139.519697 140.125701 
L 139.597765 140.125701 
L 139.831843 140.125701 
L 139.831843 135.413638 
L 139.909876 135.413638 
L 139.98792 135.413638 
L 139.98792 130.701575 
L 140.06594 130.701575 
L 142.172936 130.701575 
L 142.172936 125.989512 
L 142.250975 125.989512 
L 143.577558 125.989512 
L 143.577558 121.277449 
L 143.65562 121.277449 
L 146.230777 121.277449 
L 146.230777 116.565386 
L 146.308836 116.565386 
L 193.988771 116.565386 
L 193.988771 121.277449 
L 194.066811 121.277449 
L 194.769122 121.277449 
L 194.769122 116.565386 
L 194.847187 116.565386 
L 220.989225 116.565386 
L 220.989225 111.853323 
L 221.067272 111.853323 
L 221.301338 111.853323 
L 221.301338 107.14126 
L 221.379412 107.14126 
L 222.549936 107.14126 
L 222.549936 102.429197 
L 222.627954 102.429197 
L 243.775698 102.429197 
L 243.775698 97.717134 
L 243.853741 97.717134 
L 303.005 97.717134 
L 303.005 97.717134 
" style="fill:none;stroke:#66a61e;stroke-dasharray:4.5,1.5;stroke-dashoffset:0;stroke-width:1.5;"/>
   </g>
   <g id="line2d_31">
    <path clip-path="url(#pd1fa7f20ee)" d="M 55.905 206.094582 
L 63.512704 206.094582 
L 63.512704 201.382519 
L 63.590753 201.382519 
L 67.72665 201.382519 
L 67.72665 191.958393 
L 67.804695 191.958393 
L 81.929184 191.958393 
L 81.929184 187.24633 
L 82.007204 187.24633 
L 82.241335 187.24633 
L 82.241335 182.534267 
L 82.319347 182.534267 
L 82.709559 182.534267 
L 82.709559 177.822204 
L 82.787577 177.822204 
L 85.674906 177.822204 
L 85.674906 173.110142 
L 85.752941 173.110142 
L 85.830975 173.110142 
L 85.830975 163.686016 
L 85.909034 163.686016 
L 85.987057 163.686016 
L 85.987057 158.973953 
L 86.06509 158.973953 
L 86.299174 158.973953 
L 86.299174 154.26189 
L 86.377251 154.26189 
L 86.455277 154.26189 
L 86.455277 144.837764 
L 86.533315 144.837764 
L 86.61135 144.837764 
L 86.61135 135.413638 
L 86.689391 135.413638 
L 87.235649 135.413638 
L 87.235649 130.701575 
L 87.313676 130.701575 
L 87.547783 130.701575 
L 87.547783 125.989512 
L 87.62581 125.989512 
L 87.703826 125.989512 
L 87.703826 130.701575 
L 87.781902 130.701575 
L 89.108489 130.701575 
L 89.108489 135.413638 
L 89.186544 135.413638 
L 89.264545 135.413638 
L 89.264545 140.125701 
L 89.342711 140.125701 
L 89.420621 140.125701 
L 89.420621 135.413638 
L 89.498689 135.413638 
L 89.576689 135.413638 
L 89.576689 140.125701 
L 89.654757 140.125701 
L 89.73276 140.125701 
L 89.73276 135.413638 
L 89.810804 135.413638 
L 89.888847 135.413638 
L 89.888847 130.701575 
L 89.966884 130.701575 
L 90.200985 130.701575 
L 90.200985 135.413638 
L 90.279036 135.413638 
L 93.79065 135.413638 
L 93.79065 130.701575 
L 93.868688 130.701575 
L 94.102812 130.701575 
L 94.102812 125.989512 
L 94.180828 125.989512 
L 97.692456 125.989512 
L 97.692456 121.277449 
L 97.770476 121.277449 
L 98.784946 121.277449 
L 98.784946 116.565386 
L 98.862968 116.565386 
L 108.773549 116.565386 
L 108.773549 111.853323 
L 108.851598 111.853323 
L 108.929619 111.853323 
L 108.929619 107.14126 
L 109.00766 107.14126 
L 109.553891 107.14126 
L 109.553891 102.429197 
L 109.631953 102.429197 
L 116.889307 102.429197 
L 116.889307 97.717134 
L 116.967332 97.717134 
L 117.357482 97.717134 
L 117.357482 93.005071 
L 117.435549 93.005071 
L 125.161101 93.005071 
L 125.161101 88.293008 
L 125.239116 88.293008 
L 128.594666 88.293008 
L 128.594666 93.005071 
L 128.672705 93.005071 
L 134.681457 93.005071 
L 134.681457 97.717134 
L 134.759532 97.717134 
L 161.525848 97.717134 
L 161.525848 93.005071 
L 161.603896 93.005071 
L 187.902008 93.005071 
L 187.902008 88.293008 
L 187.980027 88.293008 
L 190.867363 88.293008 
L 190.867363 83.580945 
L 190.945375 83.580945 
L 201.636305 83.580945 
L 201.636305 78.868882 
L 201.714352 78.868882 
L 224.422826 78.868882 
L 224.422826 83.580945 
L 224.500859 83.580945 
L 224.578858 83.580945 
L 224.578858 78.868882 
L 224.656893 78.868882 
L 255.949315 78.868882 
L 255.949315 83.580945 
L 256.027336 83.580945 
L 263.128625 83.580945 
L 263.128625 88.293008 
L 263.206645 88.293008 
L 274.83415 88.293008 
L 274.83415 93.005071 
L 274.912061 93.005071 
L 297.308369 93.005071 
L 297.308369 97.717134 
L 297.38641 97.717134 
L 303.005 97.717134 
L 303.005 97.717134 
" style="fill:none;stroke:#e6ab02;stroke-dasharray:4.5,1.5;stroke-dashoffset:0;stroke-width:1.5;"/>
   </g>
   <g id="line2d_32">
    <path clip-path="url(#pd1fa7f20ee)" d="M 55.905 206.094582 
L 63.668775 206.094582 
L 63.668775 196.670456 
L 63.74682 196.670456 
L 67.102346 196.670456 
L 67.102346 187.24633 
L 67.18038 187.24633 
L 67.25841 187.24633 
L 67.25841 182.534267 
L 67.336465 182.534267 
L 67.882721 182.534267 
L 67.882721 177.822204 
L 67.960745 177.822204 
L 68.038788 177.822204 
L 68.038788 173.110142 
L 68.116842 173.110142 
L 82.553471 173.110142 
L 82.553471 168.398079 
L 82.631499 168.398079 
L 82.709559 168.398079 
L 82.709559 163.686016 
L 82.787577 163.686016 
L 82.865633 163.686016 
L 82.865633 158.973953 
L 82.943649 158.973953 
L 83.333815 158.973953 
L 83.333815 154.26189 
L 83.411886 154.26189 
L 83.489931 154.26189 
L 83.489931 158.973953 
L 83.567954 158.973953 
L 85.674906 158.973953 
L 85.674906 140.125701 
L 85.752941 140.125701 
L 85.987057 140.125701 
L 85.987057 130.701575 
L 86.06509 130.701575 
L 86.143119 130.701575 
L 86.143119 125.989512 
L 86.22115 125.989512 
L 86.299174 125.989512 
L 86.299174 116.565386 
L 86.377251 116.565386 
L 303.005 116.565386 
L 303.005 116.565386 
" style="fill:none;stroke:#a6761d;stroke-dasharray:4.5,1.5;stroke-dashoffset:0;stroke-width:1.5;"/>
   </g>
   <g id="line2d_33">
    <path clip-path="url(#pd1fa7f20ee)" d="M 55.905 210.806645 
L 63.98092 210.806645 
L 63.98092 206.094582 
L 64.058945 206.094582 
L 64.137015 206.094582 
L 64.137015 201.382519 
L 64.215048 201.382519 
L 67.25841 201.382519 
L 67.25841 196.670456 
L 67.336465 196.670456 
L 68.038788 196.670456 
L 68.038788 191.958393 
L 68.116842 191.958393 
L 68.350932 191.958393 
L 68.350932 187.24633 
L 68.428986 187.24633 
L 68.663092 187.24633 
L 68.663092 182.534267 
L 68.741135 182.534267 
L 71.004176 182.534267 
L 71.004176 187.24633 
L 71.082203 187.24633 
L 82.085278 187.24633 
L 82.085278 182.534267 
L 82.163276 182.534267 
L 83.021682 182.534267 
L 83.021682 173.110142 
L 83.099711 173.110142 
L 85.830975 173.110142 
L 85.830975 168.398079 
L 85.909034 168.398079 
L 86.455277 168.398079 
L 86.455277 149.549827 
L 86.533315 149.549827 
L 86.61135 149.549827 
L 86.61135 144.837764 
L 86.689391 144.837764 
L 86.76742 144.837764 
L 86.76742 140.125701 
L 86.845453 140.125701 
L 134.681457 140.125701 
L 134.681457 144.837764 
L 134.759532 144.837764 
L 134.837553 144.837764 
L 134.837553 140.125701 
L 134.915607 140.125701 
L 229.104934 140.125701 
L 229.104934 135.413638 
L 229.183006 135.413638 
L 236.908564 135.413638 
L 236.908564 130.701575 
L 236.98662 130.701575 
L 248.457865 130.701575 
L 248.457865 125.989512 
L 248.53593 125.989512 
L 250.642893 125.989512 
L 250.642893 121.277449 
L 250.720927 121.277449 
L 251.267174 121.277449 
L 251.267174 116.565386 
L 251.345197 116.565386 
L 277.175096 116.565386 
L 277.175096 121.277449 
L 277.253119 121.277449 
L 280.920815 121.277449 
L 280.920815 116.565386 
L 280.998852 116.565386 
L 303.005 116.565386 
L 303.005 116.565386 
" style="fill:none;stroke:#666666;stroke-dasharray:4.5,1.5;stroke-dashoffset:0;stroke-width:1.5;"/>
   </g>
   <g id="line2d_34"/>
   <g id="line2d_35"/>
   <g id="line2d_36"/>
   <g id="line2d_37"/>
   <g id="line2d_38"/>
   <g id="line2d_39"/>
   <g id="line2d_40"/>
   <g id="line2d_41"/>
   <g id="line2d_42"/>
   <g id="line2d_43"/>
   <g id="line2d_44"/>
   <g id="line2d_45"/>
   <g id="line2d_46"/>
   <g id="line2d_47"/>
   <g id="line2d_48"/>
   <g id="line2d_49"/>
   <g id="line2d_50"/>
   <g id="patch_3">
    <path d="M 43.55 220.230771 
L 43.55 12.9 
" style="fill:none;stroke:#000000;stroke-linecap:square;stroke-linejoin:miter;stroke-width:0.8;"/>
   </g>
   <g id="patch_4">
    <path d="M 315.36 220.230771 
L 315.36 12.9 
" style="fill:none;stroke:#000000;stroke-linecap:square;stroke-linejoin:miter;stroke-width:0.8;"/>
   </g>
   <g id="patch_5">
    <path d="M 43.55 220.230771 
L 315.36 220.230771 
" style="fill:none;stroke:#000000;stroke-linecap:square;stroke-linejoin:miter;stroke-width:0.8;"/>
   </g>
   <g id="patch_6">
    <path d="M 43.55 12.9 
L 315.36 12.9 
" style="fill:none;stroke:#000000;stroke-linecap:square;stroke-linejoin:miter;stroke-width:0.8;"/>
   </g>
  </g>
  <g id="legend_1">
   <g id="patch_7">
    <path d="M 331.8625 262.528125 
L 420 262.528125 
Q 422 262.528125 422 260.528125 
L 422 12 
Q 422 10 420 10 
L 331.8625 10 
Q 329.8625 10 329.8625 12 
L 329.8625 260.528125 
Q 329.8625 262.528125 331.8625 262.528125 
z
" style="fill:#ffffff;opacity:0.8;stroke:#cccccc;stroke-linejoin:miter;"/>
   </g>
   <g id="text_20">
    <!-- 494/610 Reg. -->
    <defs>
     <path d="M 25.390625 72.90625 
L 33.6875 72.90625 
L 8.296875 -9.28125 
L 0 -9.28125 
z
" id="DejaVuSans-47"/>
     <path d="M 33.015625 40.375 
Q 26.375 40.375 22.484375 35.828125 
Q 18.609375 31.296875 18.609375 23.390625 
Q 18.609375 15.53125 22.484375 10.953125 
Q 26.375 6.390625 33.015625 6.390625 
Q 39.65625 6.390625 43.53125 10.953125 
Q 47.40625 15.53125 47.40625 23.390625 
Q 47.40625 31.296875 43.53125 35.828125 
Q 39.65625 40.375 33.015625 40.375 
z
M 52.59375 71.296875 
L 52.59375 62.3125 
Q 48.875 64.0625 45.09375 64.984375 
Q 41.3125 65.921875 37.59375 65.921875 
Q 27.828125 65.921875 22.671875 59.328125 
Q 17.53125 52.734375 16.796875 39.40625 
Q 19.671875 43.65625 24.015625 45.921875 
Q 28.375 48.1875 33.59375 48.1875 
Q 44.578125 48.1875 50.953125 41.515625 
Q 57.328125 34.859375 57.328125 23.390625 
Q 57.328125 12.15625 50.6875 5.359375 
Q 44.046875 -1.421875 33.015625 -1.421875 
Q 20.359375 -1.421875 13.671875 8.265625 
Q 6.984375 17.96875 6.984375 36.375 
Q 6.984375 53.65625 15.1875 63.9375 
Q 23.390625 74.21875 37.203125 74.21875 
Q 40.921875 74.21875 44.703125 73.484375 
Q 48.484375 72.75 52.59375 71.296875 
z
" id="DejaVuSans-54"/>
     <path d="M 10.6875 12.40625 
L 21 12.40625 
L 21 0 
L 10.6875 0 
z
" id="DejaVuSans-46"/>
    </defs>
    <g transform="translate(342.259375 21.598437)scale(0.1 -0.1)">
     <use xlink:href="#DejaVuSans-52"/>
     <use x="63.623047" xlink:href="#DejaVuSans-57"/>
     <use x="127.246094" xlink:href="#DejaVuSans-52"/>
     <use x="190.869141" xlink:href="#DejaVuSans-47"/>
     <use x="224.560547" xlink:href="#DejaVuSans-54"/>
     <use x="288.183594" xlink:href="#DejaVuSans-49"/>
     <use x="351.806641" xlink:href="#DejaVuSans-48"/>
     <use x="415.429688" xlink:href="#DejaVuSans-32"/>
     <use x="447.216797" xlink:href="#DejaVuSans-82"/>
     <use x="516.636719" xlink:href="#DejaVuSans-101"/>
     <use x="578.160156" xlink:href="#DejaVuSans-103"/>
     <use x="641.636719" xlink:href="#DejaVuSans-46"/>
    </g>
   </g>
   <g id="line2d_51">
    <path d="M 333.8625 32.776562 
L 353.8625 32.776562 
" style="fill:none;stroke:#1b9e77;stroke-linecap:square;stroke-width:1.5;"/>
   </g>
   <g id="line2d_52"/>
   <g id="text_21">
    <!-- AS (40) -->
    <defs>
     <path d="M 34.1875 63.1875 
L 20.796875 26.90625 
L 47.609375 26.90625 
z
M 28.609375 72.90625 
L 39.796875 72.90625 
L 67.578125 0 
L 57.328125 0 
L 50.6875 18.703125 
L 17.828125 18.703125 
L 11.1875 0 
L 0.78125 0 
z
" id="DejaVuSans-65"/>
     <path d="M 31 75.875 
Q 24.46875 64.65625 21.28125 53.65625 
Q 18.109375 42.671875 18.109375 31.390625 
Q 18.109375 20.125 21.3125 9.0625 
Q 24.515625 -2 31 -13.1875 
L 23.1875 -13.1875 
Q 15.875 -1.703125 12.234375 9.375 
Q 8.59375 20.453125 8.59375 31.390625 
Q 8.59375 42.28125 12.203125 53.3125 
Q 15.828125 64.359375 23.1875 75.875 
z
" id="DejaVuSans-40"/>
     <path d="M 8.015625 75.875 
L 15.828125 75.875 
Q 23.140625 64.359375 26.78125 53.3125 
Q 30.421875 42.28125 30.421875 31.390625 
Q 30.421875 20.453125 26.78125 9.375 
Q 23.140625 -1.703125 15.828125 -13.1875 
L 8.015625 -13.1875 
Q 14.5 -2 17.703125 9.0625 
Q 20.90625 20.125 20.90625 31.390625 
Q 20.90625 42.671875 17.703125 53.65625 
Q 14.5 64.65625 8.015625 75.875 
z
" id="DejaVuSans-41"/>
    </defs>
    <g transform="translate(361.8625 36.276562)scale(0.1 -0.1)">
     <use xlink:href="#DejaVuSans-65"/>
     <use x="68.408203" xlink:href="#DejaVuSans-83"/>
     <use x="131.884766" xlink:href="#DejaVuSans-32"/>
     <use x="163.671875" xlink:href="#DejaVuSans-40"/>
     <use x="202.685547" xlink:href="#DejaVuSans-52"/>
     <use x="266.308594" xlink:href="#DejaVuSans-48"/>
     <use x="329.931641" xlink:href="#DejaVuSans-41"/>
    </g>
   </g>
   <g id="line2d_53">
    <path d="M 333.8625 47.454688 
L 353.8625 47.454688 
" style="fill:none;stroke:#d95f02;stroke-linecap:square;stroke-width:1.5;"/>
   </g>
   <g id="line2d_54"/>
   <g id="text_22">
    <!-- COML (40) -->
    <defs>
     <path d="M 64.40625 67.28125 
L 64.40625 56.890625 
Q 59.421875 61.53125 53.78125 63.8125 
Q 48.140625 66.109375 41.796875 66.109375 
Q 29.296875 66.109375 22.65625 58.46875 
Q 16.015625 50.828125 16.015625 36.375 
Q 16.015625 21.96875 22.65625 14.328125 
Q 29.296875 6.6875 41.796875 6.6875 
Q 48.140625 6.6875 53.78125 8.984375 
Q 59.421875 11.28125 64.40625 15.921875 
L 64.40625 5.609375 
Q 59.234375 2.09375 53.4375 0.328125 
Q 47.65625 -1.421875 41.21875 -1.421875 
Q 24.65625 -1.421875 15.125 8.703125 
Q 5.609375 18.84375 5.609375 36.375 
Q 5.609375 53.953125 15.125 64.078125 
Q 24.65625 74.21875 41.21875 74.21875 
Q 47.75 74.21875 53.53125 72.484375 
Q 59.328125 70.75 64.40625 67.28125 
z
" id="DejaVuSans-67"/>
     <path d="M 39.40625 66.21875 
Q 28.65625 66.21875 22.328125 58.203125 
Q 16.015625 50.203125 16.015625 36.375 
Q 16.015625 22.609375 22.328125 14.59375 
Q 28.65625 6.59375 39.40625 6.59375 
Q 50.140625 6.59375 56.421875 14.59375 
Q 62.703125 22.609375 62.703125 36.375 
Q 62.703125 50.203125 56.421875 58.203125 
Q 50.140625 66.21875 39.40625 66.21875 
z
M 39.40625 74.21875 
Q 54.734375 74.21875 63.90625 63.9375 
Q 73.09375 53.65625 73.09375 36.375 
Q 73.09375 19.140625 63.90625 8.859375 
Q 54.734375 -1.421875 39.40625 -1.421875 
Q 24.03125 -1.421875 14.8125 8.828125 
Q 5.609375 19.09375 5.609375 36.375 
Q 5.609375 53.65625 14.8125 63.9375 
Q 24.03125 74.21875 39.40625 74.21875 
z
" id="DejaVuSans-79"/>
     <path d="M 9.8125 72.90625 
L 24.515625 72.90625 
L 43.109375 23.296875 
L 61.8125 72.90625 
L 76.515625 72.90625 
L 76.515625 0 
L 66.890625 0 
L 66.890625 64.015625 
L 48.09375 14.015625 
L 38.1875 14.015625 
L 19.390625 64.015625 
L 19.390625 0 
L 9.8125 0 
z
" id="DejaVuSans-77"/>
     <path d="M 9.8125 72.90625 
L 19.671875 72.90625 
L 19.671875 8.296875 
L 55.171875 8.296875 
L 55.171875 0 
L 9.8125 0 
z
" id="DejaVuSans-76"/>
    </defs>
    <g transform="translate(361.8625 50.954688)scale(0.1 -0.1)">
     <use xlink:href="#DejaVuSans-67"/>
     <use x="69.824219" xlink:href="#DejaVuSans-79"/>
     <use x="148.535156" xlink:href="#DejaVuSans-77"/>
     <use x="234.814453" xlink:href="#DejaVuSans-76"/>
     <use x="290.527344" xlink:href="#DejaVuSans-32"/>
     <use x="322.314453" xlink:href="#DejaVuSans-40"/>
     <use x="361.328125" xlink:href="#DejaVuSans-52"/>
     <use x="424.951172" xlink:href="#DejaVuSans-48"/>
     <use x="488.574219" xlink:href="#DejaVuSans-41"/>
    </g>
   </g>
   <g id="line2d_55">
    <path d="M 333.8625 62.132812 
L 353.8625 62.132812 
" style="fill:none;stroke:#7570b3;stroke-linecap:square;stroke-width:1.5;"/>
   </g>
   <g id="line2d_56"/>
   <g id="text_23">
    <!-- GDD (40) -->
    <defs>
     <path d="M 59.515625 10.40625 
L 59.515625 29.984375 
L 43.40625 29.984375 
L 43.40625 38.09375 
L 69.28125 38.09375 
L 69.28125 6.78125 
Q 63.578125 2.734375 56.6875 0.65625 
Q 49.8125 -1.421875 42 -1.421875 
Q 24.90625 -1.421875 15.25 8.5625 
Q 5.609375 18.5625 5.609375 36.375 
Q 5.609375 54.25 15.25 64.234375 
Q 24.90625 74.21875 42 74.21875 
Q 49.125 74.21875 55.546875 72.453125 
Q 61.96875 70.703125 67.390625 67.28125 
L 67.390625 56.78125 
Q 61.921875 61.421875 55.765625 63.765625 
Q 49.609375 66.109375 42.828125 66.109375 
Q 29.4375 66.109375 22.71875 58.640625 
Q 16.015625 51.171875 16.015625 36.375 
Q 16.015625 21.625 22.71875 14.15625 
Q 29.4375 6.6875 42.828125 6.6875 
Q 48.046875 6.6875 52.140625 7.59375 
Q 56.25 8.5 59.515625 10.40625 
z
" id="DejaVuSans-71"/>
    </defs>
    <g transform="translate(361.8625 65.632812)scale(0.1 -0.1)">
     <use xlink:href="#DejaVuSans-71"/>
     <use x="77.490234" xlink:href="#DejaVuSans-68"/>
     <use x="154.492188" xlink:href="#DejaVuSans-68"/>
     <use x="231.494141" xlink:href="#DejaVuSans-32"/>
     <use x="263.28125" xlink:href="#DejaVuSans-40"/>
     <use x="302.294922" xlink:href="#DejaVuSans-52"/>
     <use x="365.917969" xlink:href="#DejaVuSans-48"/>
     <use x="429.541016" xlink:href="#DejaVuSans-41"/>
    </g>
   </g>
   <g id="line2d_57">
    <path d="M 333.8625 76.810937 
L 353.8625 76.810937 
" style="fill:none;stroke:#e7298a;stroke-linecap:square;stroke-width:1.5;"/>
   </g>
   <g id="line2d_58"/>
   <g id="text_24">
    <!-- SA (39) -->
    <g transform="translate(361.8625 80.310937)scale(0.1 -0.1)">
     <use xlink:href="#DejaVuSans-83"/>
     <use x="63.492188" xlink:href="#DejaVuSans-65"/>
     <use x="131.900391" xlink:href="#DejaVuSans-32"/>
     <use x="163.6875" xlink:href="#DejaVuSans-40"/>
     <use x="202.701172" xlink:href="#DejaVuSans-51"/>
     <use x="266.324219" xlink:href="#DejaVuSans-57"/>
     <use x="329.947266" xlink:href="#DejaVuSans-41"/>
    </g>
   </g>
   <g id="line2d_59">
    <path d="M 333.8625 91.489062 
L 353.8625 91.489062 
" style="fill:none;stroke:#66a61e;stroke-linecap:square;stroke-width:1.5;"/>
   </g>
   <g id="line2d_60"/>
   <g id="text_25">
    <!-- AUS (39) -->
    <defs>
     <path d="M 8.6875 72.90625 
L 18.609375 72.90625 
L 18.609375 28.609375 
Q 18.609375 16.890625 22.84375 11.734375 
Q 27.09375 6.59375 36.625 6.59375 
Q 46.09375 6.59375 50.34375 11.734375 
Q 54.59375 16.890625 54.59375 28.609375 
L 54.59375 72.90625 
L 64.5 72.90625 
L 64.5 27.390625 
Q 64.5 13.140625 57.4375 5.859375 
Q 50.390625 -1.421875 36.625 -1.421875 
Q 22.796875 -1.421875 15.734375 5.859375 
Q 8.6875 13.140625 8.6875 27.390625 
z
" id="DejaVuSans-85"/>
    </defs>
    <g transform="translate(361.8625 94.989062)scale(0.1 -0.1)">
     <use xlink:href="#DejaVuSans-65"/>
     <use x="68.408203" xlink:href="#DejaVuSans-85"/>
     <use x="141.601562" xlink:href="#DejaVuSans-83"/>
     <use x="205.078125" xlink:href="#DejaVuSans-32"/>
     <use x="236.865234" xlink:href="#DejaVuSans-40"/>
     <use x="275.878906" xlink:href="#DejaVuSans-51"/>
     <use x="339.501953" xlink:href="#DejaVuSans-57"/>
     <use x="403.125" xlink:href="#DejaVuSans-41"/>
    </g>
   </g>
   <g id="line2d_61">
    <path d="M 333.8625 106.167188 
L 353.8625 106.167188 
" style="fill:none;stroke:#e6ab02;stroke-linecap:square;stroke-width:1.5;"/>
   </g>
   <g id="line2d_62"/>
   <g id="text_26">
    <!-- MD (38) -->
    <defs>
     <path d="M 31.78125 34.625 
Q 24.75 34.625 20.71875 30.859375 
Q 16.703125 27.09375 16.703125 20.515625 
Q 16.703125 13.921875 20.71875 10.15625 
Q 24.75 6.390625 31.78125 6.390625 
Q 38.8125 6.390625 42.859375 10.171875 
Q 46.921875 13.96875 46.921875 20.515625 
Q 46.921875 27.09375 42.890625 30.859375 
Q 38.875 34.625 31.78125 34.625 
z
M 21.921875 38.8125 
Q 15.578125 40.375 12.03125 44.71875 
Q 8.5 49.078125 8.5 55.328125 
Q 8.5 64.0625 14.71875 69.140625 
Q 20.953125 74.21875 31.78125 74.21875 
Q 42.671875 74.21875 48.875 69.140625 
Q 55.078125 64.0625 55.078125 55.328125 
Q 55.078125 49.078125 51.53125 44.71875 
Q 48 40.375 41.703125 38.8125 
Q 48.828125 37.15625 52.796875 32.3125 
Q 56.78125 27.484375 56.78125 20.515625 
Q 56.78125 9.90625 50.3125 4.234375 
Q 43.84375 -1.421875 31.78125 -1.421875 
Q 19.734375 -1.421875 13.25 4.234375 
Q 6.78125 9.90625 6.78125 20.515625 
Q 6.78125 27.484375 10.78125 32.3125 
Q 14.796875 37.15625 21.921875 38.8125 
z
M 18.3125 54.390625 
Q 18.3125 48.734375 21.84375 45.5625 
Q 25.390625 42.390625 31.78125 42.390625 
Q 38.140625 42.390625 41.71875 45.5625 
Q 45.3125 48.734375 45.3125 54.390625 
Q 45.3125 60.0625 41.71875 63.234375 
Q 38.140625 66.40625 31.78125 66.40625 
Q 25.390625 66.40625 21.84375 63.234375 
Q 18.3125 60.0625 18.3125 54.390625 
z
" id="DejaVuSans-56"/>
    </defs>
    <g transform="translate(361.8625 109.667188)scale(0.1 -0.1)">
     <use xlink:href="#DejaVuSans-77"/>
     <use x="86.279297" xlink:href="#DejaVuSans-68"/>
     <use x="163.28125" xlink:href="#DejaVuSans-32"/>
     <use x="195.068359" xlink:href="#DejaVuSans-40"/>
     <use x="234.082031" xlink:href="#DejaVuSans-51"/>
     <use x="297.705078" xlink:href="#DejaVuSans-56"/>
     <use x="361.328125" xlink:href="#DejaVuSans-41"/>
    </g>
   </g>
   <g id="line2d_63">
    <path d="M 333.8625 120.845312 
L 353.8625 120.845312 
" style="fill:none;stroke:#a6761d;stroke-linecap:square;stroke-width:1.5;"/>
   </g>
   <g id="line2d_64"/>
   <g id="text_27">
    <!-- HPI (38) -->
    <defs>
     <path d="M 9.8125 72.90625 
L 19.671875 72.90625 
L 19.671875 43.015625 
L 55.515625 43.015625 
L 55.515625 72.90625 
L 65.375 72.90625 
L 65.375 0 
L 55.515625 0 
L 55.515625 34.71875 
L 19.671875 34.71875 
L 19.671875 0 
L 9.8125 0 
z
" id="DejaVuSans-72"/>
     <path d="M 19.671875 64.796875 
L 19.671875 37.40625 
L 32.078125 37.40625 
Q 38.96875 37.40625 42.71875 40.96875 
Q 46.484375 44.53125 46.484375 51.125 
Q 46.484375 57.671875 42.71875 61.234375 
Q 38.96875 64.796875 32.078125 64.796875 
z
M 9.8125 72.90625 
L 32.078125 72.90625 
Q 44.34375 72.90625 50.609375 67.359375 
Q 56.890625 61.8125 56.890625 51.125 
Q 56.890625 40.328125 50.609375 34.8125 
Q 44.34375 29.296875 32.078125 29.296875 
L 19.671875 29.296875 
L 19.671875 0 
L 9.8125 0 
z
" id="DejaVuSans-80"/>
     <path d="M 9.8125 72.90625 
L 19.671875 72.90625 
L 19.671875 0 
L 9.8125 0 
z
" id="DejaVuSans-73"/>
    </defs>
    <g transform="translate(361.8625 124.345312)scale(0.1 -0.1)">
     <use xlink:href="#DejaVuSans-72"/>
     <use x="75.195312" xlink:href="#DejaVuSans-80"/>
     <use x="135.498047" xlink:href="#DejaVuSans-73"/>
     <use x="164.990234" xlink:href="#DejaVuSans-32"/>
     <use x="196.777344" xlink:href="#DejaVuSans-40"/>
     <use x="235.791016" xlink:href="#DejaVuSans-51"/>
     <use x="299.414062" xlink:href="#DejaVuSans-56"/>
     <use x="363.037109" xlink:href="#DejaVuSans-41"/>
    </g>
   </g>
   <g id="line2d_65">
    <path d="M 333.8625 135.523438 
L 353.8625 135.523438 
" style="fill:none;stroke:#666666;stroke-linecap:square;stroke-width:1.5;"/>
   </g>
   <g id="line2d_66"/>
   <g id="text_28">
    <!-- TBI (28) -->
    <defs>
     <path d="M -0.296875 72.90625 
L 61.375 72.90625 
L 61.375 64.59375 
L 35.5 64.59375 
L 35.5 0 
L 25.59375 0 
L 25.59375 64.59375 
L -0.296875 64.59375 
z
" id="DejaVuSans-84"/>
     <path d="M 19.671875 34.8125 
L 19.671875 8.109375 
L 35.5 8.109375 
Q 43.453125 8.109375 47.28125 11.40625 
Q 51.125 14.703125 51.125 21.484375 
Q 51.125 28.328125 47.28125 31.5625 
Q 43.453125 34.8125 35.5 34.8125 
z
M 19.671875 64.796875 
L 19.671875 42.828125 
L 34.28125 42.828125 
Q 41.5 42.828125 45.03125 45.53125 
Q 48.578125 48.25 48.578125 53.8125 
Q 48.578125 59.328125 45.03125 62.0625 
Q 41.5 64.796875 34.28125 64.796875 
z
M 9.8125 72.90625 
L 35.015625 72.90625 
Q 46.296875 72.90625 52.390625 68.21875 
Q 58.5 63.53125 58.5 54.890625 
Q 58.5 48.1875 55.375 44.234375 
Q 52.25 40.28125 46.1875 39.3125 
Q 53.46875 37.75 57.5 32.78125 
Q 61.53125 27.828125 61.53125 20.40625 
Q 61.53125 10.640625 54.890625 5.3125 
Q 48.25 0 35.984375 0 
L 9.8125 0 
z
" id="DejaVuSans-66"/>
    </defs>
    <g transform="translate(361.8625 139.023438)scale(0.1 -0.1)">
     <use xlink:href="#DejaVuSans-84"/>
     <use x="61.083984" xlink:href="#DejaVuSans-66"/>
     <use x="129.6875" xlink:href="#DejaVuSans-73"/>
     <use x="159.179688" xlink:href="#DejaVuSans-32"/>
     <use x="190.966797" xlink:href="#DejaVuSans-40"/>
     <use x="229.980469" xlink:href="#DejaVuSans-50"/>
     <use x="293.603516" xlink:href="#DejaVuSans-56"/>
     <use x="357.226562" xlink:href="#DejaVuSans-41"/>
    </g>
   </g>
   <g id="line2d_67">
    <path d="M 333.8625 150.201562 
L 353.8625 150.201562 
" style="fill:none;stroke:#1b9e77;stroke-dasharray:4.5,1.5;stroke-dashoffset:0;stroke-width:1.5;"/>
   </g>
   <g id="line2d_68"/>
   <g id="text_29">
    <!-- FIT (27) -->
    <defs>
     <path d="M 9.8125 72.90625 
L 51.703125 72.90625 
L 51.703125 64.59375 
L 19.671875 64.59375 
L 19.671875 43.109375 
L 48.578125 43.109375 
L 48.578125 34.8125 
L 19.671875 34.8125 
L 19.671875 0 
L 9.8125 0 
z
" id="DejaVuSans-70"/>
     <path d="M 8.203125 72.90625 
L 55.078125 72.90625 
L 55.078125 68.703125 
L 28.609375 0 
L 18.3125 0 
L 43.21875 64.59375 
L 8.203125 64.59375 
z
" id="DejaVuSans-55"/>
    </defs>
    <g transform="translate(361.8625 153.701562)scale(0.1 -0.1)">
     <use xlink:href="#DejaVuSans-70"/>
     <use x="57.519531" xlink:href="#DejaVuSans-73"/>
     <use x="87.011719" xlink:href="#DejaVuSans-84"/>
     <use x="148.095703" xlink:href="#DejaVuSans-32"/>
     <use x="179.882812" xlink:href="#DejaVuSans-40"/>
     <use x="218.896484" xlink:href="#DejaVuSans-50"/>
     <use x="282.519531" xlink:href="#DejaVuSans-55"/>
     <use x="346.142578" xlink:href="#DejaVuSans-41"/>
    </g>
   </g>
   <g id="line2d_69">
    <path d="M 333.8625 164.879687 
L 353.8625 164.879687 
" style="fill:none;stroke:#d95f02;stroke-dasharray:4.5,1.5;stroke-dashoffset:0;stroke-width:1.5;"/>
   </g>
   <g id="line2d_70"/>
   <g id="text_30">
    <!-- CB (26) -->
    <g transform="translate(361.8625 168.379687)scale(0.1 -0.1)">
     <use xlink:href="#DejaVuSans-67"/>
     <use x="69.824219" xlink:href="#DejaVuSans-66"/>
     <use x="138.427734" xlink:href="#DejaVuSans-32"/>
     <use x="170.214844" xlink:href="#DejaVuSans-40"/>
     <use x="209.228516" xlink:href="#DejaVuSans-50"/>
     <use x="272.851562" xlink:href="#DejaVuSans-54"/>
     <use x="336.474609" xlink:href="#DejaVuSans-41"/>
    </g>
   </g>
   <g id="line2d_71">
    <path d="M 333.8625 179.557812 
L 353.8625 179.557812 
" style="fill:none;stroke:#7570b3;stroke-dasharray:4.5,1.5;stroke-dashoffset:0;stroke-width:1.5;"/>
   </g>
   <g id="line2d_72"/>
   <g id="text_31">
    <!-- BP (26) -->
    <g transform="translate(361.8625 183.057812)scale(0.1 -0.1)">
     <use xlink:href="#DejaVuSans-66"/>
     <use x="68.603516" xlink:href="#DejaVuSans-80"/>
     <use x="128.90625" xlink:href="#DejaVuSans-32"/>
     <use x="160.693359" xlink:href="#DejaVuSans-40"/>
     <use x="199.707031" xlink:href="#DejaVuSans-50"/>
     <use x="263.330078" xlink:href="#DejaVuSans-54"/>
     <use x="326.953125" xlink:href="#DejaVuSans-41"/>
    </g>
   </g>
   <g id="line2d_73">
    <path d="M 333.8625 194.235937 
L 353.8625 194.235937 
" style="fill:none;stroke:#e7298a;stroke-dasharray:4.5,1.5;stroke-dashoffset:0;stroke-width:1.5;"/>
   </g>
   <g id="line2d_74"/>
   <g id="text_32">
    <!-- CC (25) -->
    <g transform="translate(361.8625 197.735937)scale(0.1 -0.1)">
     <use xlink:href="#DejaVuSans-67"/>
     <use x="69.824219" xlink:href="#DejaVuSans-67"/>
     <use x="139.648438" xlink:href="#DejaVuSans-32"/>
     <use x="171.435547" xlink:href="#DejaVuSans-40"/>
     <use x="210.449219" xlink:href="#DejaVuSans-50"/>
     <use x="274.072266" xlink:href="#DejaVuSans-53"/>
     <use x="337.695312" xlink:href="#DejaVuSans-41"/>
    </g>
   </g>
   <g id="line2d_75">
    <path d="M 333.8625 208.914062 
L 353.8625 208.914062 
" style="fill:none;stroke:#66a61e;stroke-dasharray:4.5,1.5;stroke-dashoffset:0;stroke-width:1.5;"/>
   </g>
   <g id="line2d_76"/>
   <g id="text_33">
    <!-- RJPH (24) -->
    <defs>
     <path d="M 9.8125 72.90625 
L 19.671875 72.90625 
L 19.671875 5.078125 
Q 19.671875 -8.109375 14.671875 -14.0625 
Q 9.671875 -20.015625 -1.421875 -20.015625 
L -5.171875 -20.015625 
L -5.171875 -11.71875 
L -2.09375 -11.71875 
Q 4.4375 -11.71875 7.125 -8.046875 
Q 9.8125 -4.390625 9.8125 5.078125 
z
" id="DejaVuSans-74"/>
    </defs>
    <g transform="translate(361.8625 212.414062)scale(0.1 -0.1)">
     <use xlink:href="#DejaVuSans-82"/>
     <use x="69.482422" xlink:href="#DejaVuSans-74"/>
     <use x="98.974609" xlink:href="#DejaVuSans-80"/>
     <use x="159.277344" xlink:href="#DejaVuSans-72"/>
     <use x="234.472656" xlink:href="#DejaVuSans-32"/>
     <use x="266.259766" xlink:href="#DejaVuSans-40"/>
     <use x="305.273438" xlink:href="#DejaVuSans-50"/>
     <use x="368.896484" xlink:href="#DejaVuSans-52"/>
     <use x="432.519531" xlink:href="#DejaVuSans-41"/>
    </g>
   </g>
   <g id="line2d_77">
    <path d="M 333.8625 223.592187 
L 353.8625 223.592187 
" style="fill:none;stroke:#e6ab02;stroke-dasharray:4.5,1.5;stroke-dashoffset:0;stroke-width:1.5;"/>
   </g>
   <g id="line2d_78"/>
   <g id="text_34">
    <!-- SPD (24) -->
    <g transform="translate(361.8625 227.092187)scale(0.1 -0.1)">
     <use xlink:href="#DejaVuSans-83"/>
     <use x="63.476562" xlink:href="#DejaVuSans-80"/>
     <use x="123.779297" xlink:href="#DejaVuSans-68"/>
     <use x="200.78125" xlink:href="#DejaVuSans-32"/>
     <use x="232.568359" xlink:href="#DejaVuSans-40"/>
     <use x="271.582031" xlink:href="#DejaVuSans-50"/>
     <use x="335.205078" xlink:href="#DejaVuSans-52"/>
     <use x="398.828125" xlink:href="#DejaVuSans-41"/>
    </g>
   </g>
   <g id="line2d_79">
    <path d="M 333.8625 238.270312 
L 353.8625 238.270312 
" style="fill:none;stroke:#a6761d;stroke-dasharray:4.5,1.5;stroke-dashoffset:0;stroke-width:1.5;"/>
   </g>
   <g id="line2d_80"/>
   <g id="text_35">
    <!-- AHR-H (20) -->
    <g transform="translate(361.8625 241.770312)scale(0.1 -0.1)">
     <use xlink:href="#DejaVuSans-65"/>
     <use x="68.408203" xlink:href="#DejaVuSans-72"/>
     <use x="143.603516" xlink:href="#DejaVuSans-82"/>
     <use x="213.023438" xlink:href="#DejaVuSans-45"/>
     <use x="249.107422" xlink:href="#DejaVuSans-72"/>
     <use x="324.302734" xlink:href="#DejaVuSans-32"/>
     <use x="356.089844" xlink:href="#DejaVuSans-40"/>
     <use x="395.103516" xlink:href="#DejaVuSans-50"/>
     <use x="458.726562" xlink:href="#DejaVuSans-48"/>
     <use x="522.349609" xlink:href="#DejaVuSans-41"/>
    </g>
   </g>
   <g id="line2d_81">
    <path d="M 333.8625 252.948437 
L 353.8625 252.948437 
" style="fill:none;stroke:#666666;stroke-dasharray:4.5,1.5;stroke-dashoffset:0;stroke-width:1.5;"/>
   </g>
   <g id="line2d_82"/>
   <g id="text_36">
    <!-- AHR-A (20) -->
    <g transform="translate(361.8625 256.448437)scale(0.1 -0.1)">
     <use xlink:href="#DejaVuSans-65"/>
     <use x="68.408203" xlink:href="#DejaVuSans-72"/>
     <use x="143.603516" xlink:href="#DejaVuSans-82"/>
     <use x="213.023438" xlink:href="#DejaVuSans-45"/>
     <use x="249.076172" xlink:href="#DejaVuSans-65"/>
     <use x="317.484375" xlink:href="#DejaVuSans-32"/>
     <use x="349.271484" xlink:href="#DejaVuSans-40"/>
     <use x="388.285156" xlink:href="#DejaVuSans-50"/>
     <use x="451.908203" xlink:href="#DejaVuSans-48"/>
     <use x="515.53125" xlink:href="#DejaVuSans-41"/>
    </g>
   </g>
  </g>
 </g>
 <defs>
  <clipPath id="pd1fa7f20ee">
   <rect height="207.330771" width="271.81" x="43.55" y="12.9"/>
  </clipPath>
 </defs>
</svg>
