<?xml version="1.0" encoding="utf-8" standalone="no"?>
<!DOCTYPE svg PUBLIC "-//W3C//DTD SVG 1.1//EN"
  "http://www.w3.org/Graphics/SVG/1.1/DTD/svg11.dtd">
<!-- Created with matplotlib (https://matplotlib.org/) -->
<svg height="288pt" version="1.1" viewBox="0 0 432 288" width="432pt" xmlns="http://www.w3.org/2000/svg" xmlns:xlink="http://www.w3.org/1999/xlink">
 <defs>
  <style type="text/css">
*{stroke-linecap:butt;stroke-linejoin:round;}
  </style>
 </defs>
 <g id="figure_1">
  <g id="patch_1">
   <path d="M 0 288 
L 432 288 
L 432 0 
L 0 0 
z
" style="fill:#ffffff;"/>
  </g>
  <g id="axes_1">
   <g id="patch_2">
    <path d="M 43.55 220.230771 
L 315.36 220.230771 
L 315.36 12.9 
L 43.55 12.9 
z
" style="fill:#ffffff;"/>
   </g>
   <g id="matplotlib.axis_1">
    <g id="xtick_1">
     <g id="line2d_1">
      <defs>
       <path d="M 0 0 
L 0 3.5 
" id="m329e7f54ae" style="stroke:#000000;stroke-width:0.8;"/>
      </defs>
      <g>
       <use style="stroke:#000000;stroke-width:0.8;" x="44.59314" xlink:href="#m329e7f54ae" y="220.230771"/>
      </g>
     </g>
     <g id="text_1">
      <!-- 2020-11-29 -->
      <defs>
       <path d="M 19.1875 8.296875 
L 53.609375 8.296875 
L 53.609375 0 
L 7.328125 0 
L 7.328125 8.296875 
Q 12.9375 14.109375 22.625 23.890625 
Q 32.328125 33.6875 34.8125 36.53125 
Q 39.546875 41.84375 41.421875 45.53125 
Q 43.3125 49.21875 43.3125 52.78125 
Q 43.3125 58.59375 39.234375 62.25 
Q 35.15625 65.921875 28.609375 65.921875 
Q 23.96875 65.921875 18.8125 64.3125 
Q 13.671875 62.703125 7.8125 59.421875 
L 7.8125 69.390625 
Q 13.765625 71.78125 18.9375 73 
Q 24.125 74.21875 28.421875 74.21875 
Q 39.75 74.21875 46.484375 68.546875 
Q 53.21875 62.890625 53.21875 53.421875 
Q 53.21875 48.921875 51.53125 44.890625 
Q 49.859375 40.875 45.40625 35.40625 
Q 44.1875 33.984375 37.640625 27.21875 
Q 31.109375 20.453125 19.1875 8.296875 
z
" id="DejaVuSans-50"/>
       <path d="M 31.78125 66.40625 
Q 24.171875 66.40625 20.328125 58.90625 
Q 16.5 51.421875 16.5 36.375 
Q 16.5 21.390625 20.328125 13.890625 
Q 24.171875 6.390625 31.78125 6.390625 
Q 39.453125 6.390625 43.28125 13.890625 
Q 47.125 21.390625 47.125 36.375 
Q 47.125 51.421875 43.28125 58.90625 
Q 39.453125 66.40625 31.78125 66.40625 
z
M 31.78125 74.21875 
Q 44.046875 74.21875 50.515625 64.515625 
Q 56.984375 54.828125 56.984375 36.375 
Q 56.984375 17.96875 50.515625 8.265625 
Q 44.046875 -1.421875 31.78125 -1.421875 
Q 19.53125 -1.421875 13.0625 8.265625 
Q 6.59375 17.96875 6.59375 36.375 
Q 6.59375 54.828125 13.0625 64.515625 
Q 19.53125 74.21875 31.78125 74.21875 
z
" id="DejaVuSans-48"/>
       <path d="M 4.890625 31.390625 
L 31.203125 31.390625 
L 31.203125 23.390625 
L 4.890625 23.390625 
z
" id="DejaVuSans-45"/>
       <path d="M 12.40625 8.296875 
L 28.515625 8.296875 
L 28.515625 63.921875 
L 10.984375 60.40625 
L 10.984375 69.390625 
L 28.421875 72.90625 
L 38.28125 72.90625 
L 38.28125 8.296875 
L 54.390625 8.296875 
L 54.390625 0 
L 12.40625 0 
z
" id="DejaVuSans-49"/>
       <path d="M 10.984375 1.515625 
L 10.984375 10.5 
Q 14.703125 8.734375 18.5 7.8125 
Q 22.3125 6.890625 25.984375 6.890625 
Q 35.75 6.890625 40.890625 13.453125 
Q 46.046875 20.015625 46.78125 33.40625 
Q 43.953125 29.203125 39.59375 26.953125 
Q 35.25 24.703125 29.984375 24.703125 
Q 19.046875 24.703125 12.671875 31.3125 
Q 6.296875 37.9375 6.296875 49.421875 
Q 6.296875 60.640625 12.9375 67.421875 
Q 19.578125 74.21875 30.609375 74.21875 
Q 43.265625 74.21875 49.921875 64.515625 
Q 56.59375 54.828125 56.59375 36.375 
Q 56.59375 19.140625 48.40625 8.859375 
Q 40.234375 -1.421875 26.421875 -1.421875 
Q 22.703125 -1.421875 18.890625 -0.6875 
Q 15.09375 0.046875 10.984375 1.515625 
z
M 30.609375 32.421875 
Q 37.25 32.421875 41.125 36.953125 
Q 45.015625 41.5 45.015625 49.421875 
Q 45.015625 57.28125 41.125 61.84375 
Q 37.25 66.40625 30.609375 66.40625 
Q 23.96875 66.40625 20.09375 61.84375 
Q 16.21875 57.28125 16.21875 49.421875 
Q 16.21875 41.5 20.09375 36.953125 
Q 23.96875 32.421875 30.609375 32.421875 
z
" id="DejaVuSans-57"/>
      </defs>
      <g transform="translate(20.808024 262.869024)rotate(-30)scale(0.1 -0.1)">
       <use xlink:href="#DejaVuSans-50"/>
       <use x="63.623047" xlink:href="#DejaVuSans-48"/>
       <use x="127.246094" xlink:href="#DejaVuSans-50"/>
       <use x="190.869141" xlink:href="#DejaVuSans-48"/>
       <use x="254.492188" xlink:href="#DejaVuSans-45"/>
       <use x="290.576172" xlink:href="#DejaVuSans-49"/>
       <use x="354.199219" xlink:href="#DejaVuSans-49"/>
       <use x="417.822266" xlink:href="#DejaVuSans-45"/>
       <use x="453.90625" xlink:href="#DejaVuSans-50"/>
       <use x="517.529297" xlink:href="#DejaVuSans-57"/>
      </g>
     </g>
    </g>
    <g id="xtick_2">
     <g id="line2d_2">
      <g>
       <use style="stroke:#000000;stroke-width:0.8;" x="60.214974" xlink:href="#m329e7f54ae" y="220.230771"/>
      </g>
     </g>
     <g id="text_2">
      <!-- 2020-12-01 -->
      <g transform="translate(36.429858 262.869024)rotate(-30)scale(0.1 -0.1)">
       <use xlink:href="#DejaVuSans-50"/>
       <use x="63.623047" xlink:href="#DejaVuSans-48"/>
       <use x="127.246094" xlink:href="#DejaVuSans-50"/>
       <use x="190.869141" xlink:href="#DejaVuSans-48"/>
       <use x="254.492188" xlink:href="#DejaVuSans-45"/>
       <use x="290.576172" xlink:href="#DejaVuSans-49"/>
       <use x="354.199219" xlink:href="#DejaVuSans-50"/>
       <use x="417.822266" xlink:href="#DejaVuSans-45"/>
       <use x="453.90625" xlink:href="#DejaVuSans-48"/>
       <use x="517.529297" xlink:href="#DejaVuSans-49"/>
      </g>
     </g>
    </g>
    <g id="xtick_3">
     <g id="line2d_3">
      <g>
       <use style="stroke:#000000;stroke-width:0.8;" x="91.458642" xlink:href="#m329e7f54ae" y="220.230771"/>
      </g>
     </g>
     <g id="text_3">
      <!-- 2020-12-05 -->
      <defs>
       <path d="M 10.796875 72.90625 
L 49.515625 72.90625 
L 49.515625 64.59375 
L 19.828125 64.59375 
L 19.828125 46.734375 
Q 21.96875 47.46875 24.109375 47.828125 
Q 26.265625 48.1875 28.421875 48.1875 
Q 40.625 48.1875 47.75 41.5 
Q 54.890625 34.8125 54.890625 23.390625 
Q 54.890625 11.625 47.5625 5.09375 
Q 40.234375 -1.421875 26.90625 -1.421875 
Q 22.3125 -1.421875 17.546875 -0.640625 
Q 12.796875 0.140625 7.71875 1.703125 
L 7.71875 11.625 
Q 12.109375 9.234375 16.796875 8.0625 
Q 21.484375 6.890625 26.703125 6.890625 
Q 35.15625 6.890625 40.078125 11.328125 
Q 45.015625 15.765625 45.015625 23.390625 
Q 45.015625 31 40.078125 35.4375 
Q 35.15625 39.890625 26.703125 39.890625 
Q 22.75 39.890625 18.8125 39.015625 
Q 14.890625 38.140625 10.796875 36.28125 
z
" id="DejaVuSans-53"/>
      </defs>
      <g transform="translate(67.673526 262.869024)rotate(-30)scale(0.1 -0.1)">
       <use xlink:href="#DejaVuSans-50"/>
       <use x="63.623047" xlink:href="#DejaVuSans-48"/>
       <use x="127.246094" xlink:href="#DejaVuSans-50"/>
       <use x="190.869141" xlink:href="#DejaVuSans-48"/>
       <use x="254.492188" xlink:href="#DejaVuSans-45"/>
       <use x="290.576172" xlink:href="#DejaVuSans-49"/>
       <use x="354.199219" xlink:href="#DejaVuSans-50"/>
       <use x="417.822266" xlink:href="#DejaVuSans-45"/>
       <use x="453.90625" xlink:href="#DejaVuSans-48"/>
       <use x="517.529297" xlink:href="#DejaVuSans-53"/>
      </g>
     </g>
    </g>
    <g id="xtick_4">
     <g id="line2d_4">
      <g>
       <use style="stroke:#000000;stroke-width:0.8;" x="122.70231" xlink:href="#m329e7f54ae" y="220.230771"/>
      </g>
     </g>
     <g id="text_4">
      <!-- 2020-12-09 -->
      <g transform="translate(98.917193 262.869024)rotate(-30)scale(0.1 -0.1)">
       <use xlink:href="#DejaVuSans-50"/>
       <use x="63.623047" xlink:href="#DejaVuSans-48"/>
       <use x="127.246094" xlink:href="#DejaVuSans-50"/>
       <use x="190.869141" xlink:href="#DejaVuSans-48"/>
       <use x="254.492188" xlink:href="#DejaVuSans-45"/>
       <use x="290.576172" xlink:href="#DejaVuSans-49"/>
       <use x="354.199219" xlink:href="#DejaVuSans-50"/>
       <use x="417.822266" xlink:href="#DejaVuSans-45"/>
       <use x="453.90625" xlink:href="#DejaVuSans-48"/>
       <use x="517.529297" xlink:href="#DejaVuSans-57"/>
      </g>
     </g>
    </g>
    <g id="xtick_5">
     <g id="line2d_5">
      <g>
       <use style="stroke:#000000;stroke-width:0.8;" x="153.945977" xlink:href="#m329e7f54ae" y="220.230771"/>
      </g>
     </g>
     <g id="text_5">
      <!-- 2020-12-13 -->
      <defs>
       <path d="M 40.578125 39.3125 
Q 47.65625 37.796875 51.625 33 
Q 55.609375 28.21875 55.609375 21.1875 
Q 55.609375 10.40625 48.1875 4.484375 
Q 40.765625 -1.421875 27.09375 -1.421875 
Q 22.515625 -1.421875 17.65625 -0.515625 
Q 12.796875 0.390625 7.625 2.203125 
L 7.625 11.71875 
Q 11.71875 9.328125 16.59375 8.109375 
Q 21.484375 6.890625 26.8125 6.890625 
Q 36.078125 6.890625 40.9375 10.546875 
Q 45.796875 14.203125 45.796875 21.1875 
Q 45.796875 27.640625 41.28125 31.265625 
Q 36.765625 34.90625 28.71875 34.90625 
L 20.21875 34.90625 
L 20.21875 43.015625 
L 29.109375 43.015625 
Q 36.375 43.015625 40.234375 45.921875 
Q 44.09375 48.828125 44.09375 54.296875 
Q 44.09375 59.90625 40.109375 62.90625 
Q 36.140625 65.921875 28.71875 65.921875 
Q 24.65625 65.921875 20.015625 65.03125 
Q 15.375 64.15625 9.8125 62.3125 
L 9.8125 71.09375 
Q 15.4375 72.65625 20.34375 73.4375 
Q 25.25 74.21875 29.59375 74.21875 
Q 40.828125 74.21875 47.359375 69.109375 
Q 53.90625 64.015625 53.90625 55.328125 
Q 53.90625 49.265625 50.4375 45.09375 
Q 46.96875 40.921875 40.578125 39.3125 
z
" id="DejaVuSans-51"/>
      </defs>
      <g transform="translate(130.160861 262.869024)rotate(-30)scale(0.1 -0.1)">
       <use xlink:href="#DejaVuSans-50"/>
       <use x="63.623047" xlink:href="#DejaVuSans-48"/>
       <use x="127.246094" xlink:href="#DejaVuSans-50"/>
       <use x="190.869141" xlink:href="#DejaVuSans-48"/>
       <use x="254.492188" xlink:href="#DejaVuSans-45"/>
       <use x="290.576172" xlink:href="#DejaVuSans-49"/>
       <use x="354.199219" xlink:href="#DejaVuSans-50"/>
       <use x="417.822266" xlink:href="#DejaVuSans-45"/>
       <use x="453.90625" xlink:href="#DejaVuSans-49"/>
       <use x="517.529297" xlink:href="#DejaVuSans-51"/>
      </g>
     </g>
    </g>
    <g id="xtick_6">
     <g id="line2d_6">
      <g>
       <use style="stroke:#000000;stroke-width:0.8;" x="185.189645" xlink:href="#m329e7f54ae" y="220.230771"/>
      </g>
     </g>
     <g id="text_6">
      <!-- 2020-12-17 -->
      <defs>
       <path d="M 8.203125 72.90625 
L 55.078125 72.90625 
L 55.078125 68.703125 
L 28.609375 0 
L 18.3125 0 
L 43.21875 64.59375 
L 8.203125 64.59375 
z
" id="DejaVuSans-55"/>
      </defs>
      <g transform="translate(161.404529 262.869024)rotate(-30)scale(0.1 -0.1)">
       <use xlink:href="#DejaVuSans-50"/>
       <use x="63.623047" xlink:href="#DejaVuSans-48"/>
       <use x="127.246094" xlink:href="#DejaVuSans-50"/>
       <use x="190.869141" xlink:href="#DejaVuSans-48"/>
       <use x="254.492188" xlink:href="#DejaVuSans-45"/>
       <use x="290.576172" xlink:href="#DejaVuSans-49"/>
       <use x="354.199219" xlink:href="#DejaVuSans-50"/>
       <use x="417.822266" xlink:href="#DejaVuSans-45"/>
       <use x="453.90625" xlink:href="#DejaVuSans-49"/>
       <use x="517.529297" xlink:href="#DejaVuSans-55"/>
      </g>
     </g>
    </g>
    <g id="xtick_7">
     <g id="line2d_7">
      <g>
       <use style="stroke:#000000;stroke-width:0.8;" x="216.433313" xlink:href="#m329e7f54ae" y="220.230771"/>
      </g>
     </g>
     <g id="text_7">
      <!-- 2020-12-21 -->
      <g transform="translate(192.648197 262.869024)rotate(-30)scale(0.1 -0.1)">
       <use xlink:href="#DejaVuSans-50"/>
       <use x="63.623047" xlink:href="#DejaVuSans-48"/>
       <use x="127.246094" xlink:href="#DejaVuSans-50"/>
       <use x="190.869141" xlink:href="#DejaVuSans-48"/>
       <use x="254.492188" xlink:href="#DejaVuSans-45"/>
       <use x="290.576172" xlink:href="#DejaVuSans-49"/>
       <use x="354.199219" xlink:href="#DejaVuSans-50"/>
       <use x="417.822266" xlink:href="#DejaVuSans-45"/>
       <use x="453.90625" xlink:href="#DejaVuSans-50"/>
       <use x="517.529297" xlink:href="#DejaVuSans-49"/>
      </g>
     </g>
    </g>
    <g id="xtick_8">
     <g id="line2d_8">
      <g>
       <use style="stroke:#000000;stroke-width:0.8;" x="247.676981" xlink:href="#m329e7f54ae" y="220.230771"/>
      </g>
     </g>
     <g id="text_8">
      <!-- 2020-12-25 -->
      <g transform="translate(223.891864 262.869024)rotate(-30)scale(0.1 -0.1)">
       <use xlink:href="#DejaVuSans-50"/>
       <use x="63.623047" xlink:href="#DejaVuSans-48"/>
       <use x="127.246094" xlink:href="#DejaVuSans-50"/>
       <use x="190.869141" xlink:href="#DejaVuSans-48"/>
       <use x="254.492188" xlink:href="#DejaVuSans-45"/>
       <use x="290.576172" xlink:href="#DejaVuSans-49"/>
       <use x="354.199219" xlink:href="#DejaVuSans-50"/>
       <use x="417.822266" xlink:href="#DejaVuSans-45"/>
       <use x="453.90625" xlink:href="#DejaVuSans-50"/>
       <use x="517.529297" xlink:href="#DejaVuSans-53"/>
      </g>
     </g>
    </g>
    <g id="xtick_9">
     <g id="line2d_9">
      <g>
       <use style="stroke:#000000;stroke-width:0.8;" x="278.920648" xlink:href="#m329e7f54ae" y="220.230771"/>
      </g>
     </g>
     <g id="text_9">
      <!-- 2020-12-29 -->
      <g transform="translate(255.135532 262.869024)rotate(-30)scale(0.1 -0.1)">
       <use xlink:href="#DejaVuSans-50"/>
       <use x="63.623047" xlink:href="#DejaVuSans-48"/>
       <use x="127.246094" xlink:href="#DejaVuSans-50"/>
       <use x="190.869141" xlink:href="#DejaVuSans-48"/>
       <use x="254.492188" xlink:href="#DejaVuSans-45"/>
       <use x="290.576172" xlink:href="#DejaVuSans-49"/>
       <use x="354.199219" xlink:href="#DejaVuSans-50"/>
       <use x="417.822266" xlink:href="#DejaVuSans-45"/>
       <use x="453.90625" xlink:href="#DejaVuSans-50"/>
       <use x="517.529297" xlink:href="#DejaVuSans-57"/>
      </g>
     </g>
    </g>
    <g id="xtick_10">
     <g id="line2d_10">
      <g>
       <use style="stroke:#000000;stroke-width:0.8;" x="302.353399" xlink:href="#m329e7f54ae" y="220.230771"/>
      </g>
     </g>
     <g id="text_10">
      <!-- 2021-01-01 -->
      <g transform="translate(278.568283 262.869024)rotate(-30)scale(0.1 -0.1)">
       <use xlink:href="#DejaVuSans-50"/>
       <use x="63.623047" xlink:href="#DejaVuSans-48"/>
       <use x="127.246094" xlink:href="#DejaVuSans-50"/>
       <use x="190.869141" xlink:href="#DejaVuSans-49"/>
       <use x="254.492188" xlink:href="#DejaVuSans-45"/>
       <use x="290.576172" xlink:href="#DejaVuSans-48"/>
       <use x="354.199219" xlink:href="#DejaVuSans-49"/>
       <use x="417.822266" xlink:href="#DejaVuSans-45"/>
       <use x="453.90625" xlink:href="#DejaVuSans-48"/>
       <use x="517.529297" xlink:href="#DejaVuSans-49"/>
      </g>
     </g>
    </g>
    <g id="text_11">
     <!-- Date -->
     <defs>
      <path d="M 19.671875 64.796875 
L 19.671875 8.109375 
L 31.59375 8.109375 
Q 46.6875 8.109375 53.6875 14.9375 
Q 60.6875 21.78125 60.6875 36.53125 
Q 60.6875 51.171875 53.6875 57.984375 
Q 46.6875 64.796875 31.59375 64.796875 
z
M 9.8125 72.90625 
L 30.078125 72.90625 
Q 51.265625 72.90625 61.171875 64.09375 
Q 71.09375 55.28125 71.09375 36.53125 
Q 71.09375 17.671875 61.125 8.828125 
Q 51.171875 0 30.078125 0 
L 9.8125 0 
z
" id="DejaVuSans-68"/>
      <path d="M 34.28125 27.484375 
Q 23.390625 27.484375 19.1875 25 
Q 14.984375 22.515625 14.984375 16.5 
Q 14.984375 11.71875 18.140625 8.90625 
Q 21.296875 6.109375 26.703125 6.109375 
Q 34.1875 6.109375 38.703125 11.40625 
Q 43.21875 16.703125 43.21875 25.484375 
L 43.21875 27.484375 
z
M 52.203125 31.203125 
L 52.203125 0 
L 43.21875 0 
L 43.21875 8.296875 
Q 40.140625 3.328125 35.546875 0.953125 
Q 30.953125 -1.421875 24.3125 -1.421875 
Q 15.921875 -1.421875 10.953125 3.296875 
Q 6 8.015625 6 15.921875 
Q 6 25.140625 12.171875 29.828125 
Q 18.359375 34.515625 30.609375 34.515625 
L 43.21875 34.515625 
L 43.21875 35.40625 
Q 43.21875 41.609375 39.140625 45 
Q 35.0625 48.390625 27.6875 48.390625 
Q 23 48.390625 18.546875 47.265625 
Q 14.109375 46.140625 10.015625 43.890625 
L 10.015625 52.203125 
Q 14.9375 54.109375 19.578125 55.046875 
Q 24.21875 56 28.609375 56 
Q 40.484375 56 46.34375 49.84375 
Q 52.203125 43.703125 52.203125 31.203125 
z
" id="DejaVuSans-97"/>
      <path d="M 18.3125 70.21875 
L 18.3125 54.6875 
L 36.8125 54.6875 
L 36.8125 47.703125 
L 18.3125 47.703125 
L 18.3125 18.015625 
Q 18.3125 11.328125 20.140625 9.421875 
Q 21.96875 7.515625 27.59375 7.515625 
L 36.8125 7.515625 
L 36.8125 0 
L 27.59375 0 
Q 17.1875 0 13.234375 3.875 
Q 9.28125 7.765625 9.28125 18.015625 
L 9.28125 47.703125 
L 2.6875 47.703125 
L 2.6875 54.6875 
L 9.28125 54.6875 
L 9.28125 70.21875 
z
" id="DejaVuSans-116"/>
      <path d="M 56.203125 29.59375 
L 56.203125 25.203125 
L 14.890625 25.203125 
Q 15.484375 15.921875 20.484375 11.0625 
Q 25.484375 6.203125 34.421875 6.203125 
Q 39.59375 6.203125 44.453125 7.46875 
Q 49.3125 8.734375 54.109375 11.28125 
L 54.109375 2.78125 
Q 49.265625 0.734375 44.1875 -0.34375 
Q 39.109375 -1.421875 33.890625 -1.421875 
Q 20.796875 -1.421875 13.15625 6.1875 
Q 5.515625 13.8125 5.515625 26.8125 
Q 5.515625 40.234375 12.765625 48.109375 
Q 20.015625 56 32.328125 56 
Q 43.359375 56 49.78125 48.890625 
Q 56.203125 41.796875 56.203125 29.59375 
z
M 47.21875 32.234375 
Q 47.125 39.59375 43.09375 43.984375 
Q 39.0625 48.390625 32.421875 48.390625 
Q 24.90625 48.390625 20.390625 44.140625 
Q 15.875 39.890625 15.1875 32.171875 
z
" id="DejaVuSans-101"/>
     </defs>
     <g transform="translate(167.504219 276.268523)scale(0.1 -0.1)">
      <use xlink:href="#DejaVuSans-68"/>
      <use x="77.001953" xlink:href="#DejaVuSans-97"/>
      <use x="138.28125" xlink:href="#DejaVuSans-116"/>
      <use x="177.490234" xlink:href="#DejaVuSans-101"/>
     </g>
    </g>
   </g>
   <g id="matplotlib.axis_2">
    <g id="ytick_1">
     <g id="line2d_11">
      <defs>
       <path d="M 0 0 
L -3.5 0 
" id="mec5c8ea188" style="stroke:#000000;stroke-width:0.8;"/>
      </defs>
      <g>
       <use style="stroke:#000000;stroke-width:0.8;" x="43.55" xlink:href="#mec5c8ea188" y="210.806645"/>
      </g>
     </g>
     <g id="text_12">
      <!-- 0 -->
      <g transform="translate(30.1875 214.605864)scale(0.1 -0.1)">
       <use xlink:href="#DejaVuSans-48"/>
      </g>
     </g>
    </g>
    <g id="ytick_2">
     <g id="line2d_12">
      <g>
       <use style="stroke:#000000;stroke-width:0.8;" x="43.55" xlink:href="#mec5c8ea188" y="187.24633"/>
      </g>
     </g>
     <g id="text_13">
      <!-- 5 -->
      <g transform="translate(30.1875 191.045549)scale(0.1 -0.1)">
       <use xlink:href="#DejaVuSans-53"/>
      </g>
     </g>
    </g>
    <g id="ytick_3">
     <g id="line2d_13">
      <g>
       <use style="stroke:#000000;stroke-width:0.8;" x="43.55" xlink:href="#mec5c8ea188" y="163.686016"/>
      </g>
     </g>
     <g id="text_14">
      <!-- 10 -->
      <g transform="translate(23.825 167.485234)scale(0.1 -0.1)">
       <use xlink:href="#DejaVuSans-49"/>
       <use x="63.623047" xlink:href="#DejaVuSans-48"/>
      </g>
     </g>
    </g>
    <g id="ytick_4">
     <g id="line2d_14">
      <g>
       <use style="stroke:#000000;stroke-width:0.8;" x="43.55" xlink:href="#mec5c8ea188" y="140.125701"/>
      </g>
     </g>
     <g id="text_15">
      <!-- 15 -->
      <g transform="translate(23.825 143.924919)scale(0.1 -0.1)">
       <use xlink:href="#DejaVuSans-49"/>
       <use x="63.623047" xlink:href="#DejaVuSans-53"/>
      </g>
     </g>
    </g>
    <g id="ytick_5">
     <g id="line2d_15">
      <g>
       <use style="stroke:#000000;stroke-width:0.8;" x="43.55" xlink:href="#mec5c8ea188" y="116.565386"/>
      </g>
     </g>
     <g id="text_16">
      <!-- 20 -->
      <g transform="translate(23.825 120.364604)scale(0.1 -0.1)">
       <use xlink:href="#DejaVuSans-50"/>
       <use x="63.623047" xlink:href="#DejaVuSans-48"/>
      </g>
     </g>
    </g>
    <g id="ytick_6">
     <g id="line2d_16">
      <g>
       <use style="stroke:#000000;stroke-width:0.8;" x="43.55" xlink:href="#mec5c8ea188" y="93.005071"/>
      </g>
     </g>
     <g id="text_17">
      <!-- 25 -->
      <g transform="translate(23.825 96.80429)scale(0.1 -0.1)">
       <use xlink:href="#DejaVuSans-50"/>
       <use x="63.623047" xlink:href="#DejaVuSans-53"/>
      </g>
     </g>
    </g>
    <g id="ytick_7">
     <g id="line2d_17">
      <g>
       <use style="stroke:#000000;stroke-width:0.8;" x="43.55" xlink:href="#mec5c8ea188" y="69.444756"/>
      </g>
     </g>
     <g id="text_18">
      <!-- 30 -->
      <g transform="translate(23.825 73.243975)scale(0.1 -0.1)">
       <use xlink:href="#DejaVuSans-51"/>
       <use x="63.623047" xlink:href="#DejaVuSans-48"/>
      </g>
     </g>
    </g>
    <g id="ytick_8">
     <g id="line2d_18">
      <g>
       <use style="stroke:#000000;stroke-width:0.8;" x="43.55" xlink:href="#mec5c8ea188" y="45.884441"/>
      </g>
     </g>
     <g id="text_19">
      <!-- 35 -->
      <g transform="translate(23.825 49.68366)scale(0.1 -0.1)">
       <use xlink:href="#DejaVuSans-51"/>
       <use x="63.623047" xlink:href="#DejaVuSans-53"/>
      </g>
     </g>
    </g>
    <g id="ytick_9">
     <g id="line2d_19">
      <g>
       <use style="stroke:#000000;stroke-width:0.8;" x="43.55" xlink:href="#mec5c8ea188" y="22.324126"/>
      </g>
     </g>
     <g id="text_20">
      <!-- 40 -->
      <defs>
       <path d="M 37.796875 64.3125 
L 12.890625 25.390625 
L 37.796875 25.390625 
z
M 35.203125 72.90625 
L 47.609375 72.90625 
L 47.609375 25.390625 
L 58.015625 25.390625 
L 58.015625 17.1875 
L 47.609375 17.1875 
L 47.609375 0 
L 37.796875 0 
L 37.796875 17.1875 
L 4.890625 17.1875 
L 4.890625 26.703125 
z
" id="DejaVuSans-52"/>
      </defs>
      <g transform="translate(23.825 26.123345)scale(0.1 -0.1)">
       <use xlink:href="#DejaVuSans-52"/>
       <use x="63.623047" xlink:href="#DejaVuSans-48"/>
      </g>
     </g>
    </g>
    <g id="text_21">
     <!-- Students Registered -->
     <defs>
      <path d="M 53.515625 70.515625 
L 53.515625 60.890625 
Q 47.90625 63.578125 42.921875 64.890625 
Q 37.9375 66.21875 33.296875 66.21875 
Q 25.25 66.21875 20.875 63.09375 
Q 16.5 59.96875 16.5 54.203125 
Q 16.5 49.359375 19.40625 46.890625 
Q 22.3125 44.4375 30.421875 42.921875 
L 36.375 41.703125 
Q 47.40625 39.59375 52.65625 34.296875 
Q 57.90625 29 57.90625 20.125 
Q 57.90625 9.515625 50.796875 4.046875 
Q 43.703125 -1.421875 29.984375 -1.421875 
Q 24.8125 -1.421875 18.96875 -0.25 
Q 13.140625 0.921875 6.890625 3.21875 
L 6.890625 13.375 
Q 12.890625 10.015625 18.65625 8.296875 
Q 24.421875 6.59375 29.984375 6.59375 
Q 38.421875 6.59375 43.015625 9.90625 
Q 47.609375 13.234375 47.609375 19.390625 
Q 47.609375 24.75 44.3125 27.78125 
Q 41.015625 30.8125 33.5 32.328125 
L 27.484375 33.5 
Q 16.453125 35.6875 11.515625 40.375 
Q 6.59375 45.0625 6.59375 53.421875 
Q 6.59375 63.09375 13.40625 68.65625 
Q 20.21875 74.21875 32.171875 74.21875 
Q 37.3125 74.21875 42.625 73.28125 
Q 47.953125 72.359375 53.515625 70.515625 
z
" id="DejaVuSans-83"/>
      <path d="M 8.5 21.578125 
L 8.5 54.6875 
L 17.484375 54.6875 
L 17.484375 21.921875 
Q 17.484375 14.15625 20.5 10.265625 
Q 23.53125 6.390625 29.59375 6.390625 
Q 36.859375 6.390625 41.078125 11.03125 
Q 45.3125 15.671875 45.3125 23.6875 
L 45.3125 54.6875 
L 54.296875 54.6875 
L 54.296875 0 
L 45.3125 0 
L 45.3125 8.40625 
Q 42.046875 3.421875 37.71875 1 
Q 33.40625 -1.421875 27.6875 -1.421875 
Q 18.265625 -1.421875 13.375 4.4375 
Q 8.5 10.296875 8.5 21.578125 
z
M 31.109375 56 
z
" id="DejaVuSans-117"/>
      <path d="M 45.40625 46.390625 
L 45.40625 75.984375 
L 54.390625 75.984375 
L 54.390625 0 
L 45.40625 0 
L 45.40625 8.203125 
Q 42.578125 3.328125 38.25 0.953125 
Q 33.9375 -1.421875 27.875 -1.421875 
Q 17.96875 -1.421875 11.734375 6.484375 
Q 5.515625 14.40625 5.515625 27.296875 
Q 5.515625 40.1875 11.734375 48.09375 
Q 17.96875 56 27.875 56 
Q 33.9375 56 38.25 53.625 
Q 42.578125 51.265625 45.40625 46.390625 
z
M 14.796875 27.296875 
Q 14.796875 17.390625 18.875 11.75 
Q 22.953125 6.109375 30.078125 6.109375 
Q 37.203125 6.109375 41.296875 11.75 
Q 45.40625 17.390625 45.40625 27.296875 
Q 45.40625 37.203125 41.296875 42.84375 
Q 37.203125 48.484375 30.078125 48.484375 
Q 22.953125 48.484375 18.875 42.84375 
Q 14.796875 37.203125 14.796875 27.296875 
z
" id="DejaVuSans-100"/>
      <path d="M 54.890625 33.015625 
L 54.890625 0 
L 45.90625 0 
L 45.90625 32.71875 
Q 45.90625 40.484375 42.875 44.328125 
Q 39.84375 48.1875 33.796875 48.1875 
Q 26.515625 48.1875 22.3125 43.546875 
Q 18.109375 38.921875 18.109375 30.90625 
L 18.109375 0 
L 9.078125 0 
L 9.078125 54.6875 
L 18.109375 54.6875 
L 18.109375 46.1875 
Q 21.34375 51.125 25.703125 53.5625 
Q 30.078125 56 35.796875 56 
Q 45.21875 56 50.046875 50.171875 
Q 54.890625 44.34375 54.890625 33.015625 
z
" id="DejaVuSans-110"/>
      <path d="M 44.28125 53.078125 
L 44.28125 44.578125 
Q 40.484375 46.53125 36.375 47.5 
Q 32.28125 48.484375 27.875 48.484375 
Q 21.1875 48.484375 17.84375 46.4375 
Q 14.5 44.390625 14.5 40.28125 
Q 14.5 37.15625 16.890625 35.375 
Q 19.28125 33.59375 26.515625 31.984375 
L 29.59375 31.296875 
Q 39.15625 29.25 43.1875 25.515625 
Q 47.21875 21.78125 47.21875 15.09375 
Q 47.21875 7.46875 41.1875 3.015625 
Q 35.15625 -1.421875 24.609375 -1.421875 
Q 20.21875 -1.421875 15.453125 -0.5625 
Q 10.6875 0.296875 5.421875 2 
L 5.421875 11.28125 
Q 10.40625 8.6875 15.234375 7.390625 
Q 20.0625 6.109375 24.8125 6.109375 
Q 31.15625 6.109375 34.5625 8.28125 
Q 37.984375 10.453125 37.984375 14.40625 
Q 37.984375 18.0625 35.515625 20.015625 
Q 33.0625 21.96875 24.703125 23.78125 
L 21.578125 24.515625 
Q 13.234375 26.265625 9.515625 29.90625 
Q 5.8125 33.546875 5.8125 39.890625 
Q 5.8125 47.609375 11.28125 51.796875 
Q 16.75 56 26.8125 56 
Q 31.78125 56 36.171875 55.265625 
Q 40.578125 54.546875 44.28125 53.078125 
z
" id="DejaVuSans-115"/>
      <path id="DejaVuSans-32"/>
      <path d="M 44.390625 34.1875 
Q 47.5625 33.109375 50.5625 29.59375 
Q 53.5625 26.078125 56.59375 19.921875 
L 66.609375 0 
L 56 0 
L 46.6875 18.703125 
Q 43.0625 26.03125 39.671875 28.421875 
Q 36.28125 30.8125 30.421875 30.8125 
L 19.671875 30.8125 
L 19.671875 0 
L 9.8125 0 
L 9.8125 72.90625 
L 32.078125 72.90625 
Q 44.578125 72.90625 50.734375 67.671875 
Q 56.890625 62.453125 56.890625 51.90625 
Q 56.890625 45.015625 53.6875 40.46875 
Q 50.484375 35.9375 44.390625 34.1875 
z
M 19.671875 64.796875 
L 19.671875 38.921875 
L 32.078125 38.921875 
Q 39.203125 38.921875 42.84375 42.21875 
Q 46.484375 45.515625 46.484375 51.90625 
Q 46.484375 58.296875 42.84375 61.546875 
Q 39.203125 64.796875 32.078125 64.796875 
z
" id="DejaVuSans-82"/>
      <path d="M 45.40625 27.984375 
Q 45.40625 37.75 41.375 43.109375 
Q 37.359375 48.484375 30.078125 48.484375 
Q 22.859375 48.484375 18.828125 43.109375 
Q 14.796875 37.75 14.796875 27.984375 
Q 14.796875 18.265625 18.828125 12.890625 
Q 22.859375 7.515625 30.078125 7.515625 
Q 37.359375 7.515625 41.375 12.890625 
Q 45.40625 18.265625 45.40625 27.984375 
z
M 54.390625 6.78125 
Q 54.390625 -7.171875 48.1875 -13.984375 
Q 42 -20.796875 29.203125 -20.796875 
Q 24.46875 -20.796875 20.265625 -20.09375 
Q 16.0625 -19.390625 12.109375 -17.921875 
L 12.109375 -9.1875 
Q 16.0625 -11.328125 19.921875 -12.34375 
Q 23.78125 -13.375 27.78125 -13.375 
Q 36.625 -13.375 41.015625 -8.765625 
Q 45.40625 -4.15625 45.40625 5.171875 
L 45.40625 9.625 
Q 42.625 4.78125 38.28125 2.390625 
Q 33.9375 0 27.875 0 
Q 17.828125 0 11.671875 7.65625 
Q 5.515625 15.328125 5.515625 27.984375 
Q 5.515625 40.671875 11.671875 48.328125 
Q 17.828125 56 27.875 56 
Q 33.9375 56 38.28125 53.609375 
Q 42.625 51.21875 45.40625 46.390625 
L 45.40625 54.6875 
L 54.390625 54.6875 
z
" id="DejaVuSans-103"/>
      <path d="M 9.421875 54.6875 
L 18.40625 54.6875 
L 18.40625 0 
L 9.421875 0 
z
M 9.421875 75.984375 
L 18.40625 75.984375 
L 18.40625 64.59375 
L 9.421875 64.59375 
z
" id="DejaVuSans-105"/>
      <path d="M 41.109375 46.296875 
Q 39.59375 47.171875 37.8125 47.578125 
Q 36.03125 48 33.890625 48 
Q 26.265625 48 22.1875 43.046875 
Q 18.109375 38.09375 18.109375 28.8125 
L 18.109375 0 
L 9.078125 0 
L 9.078125 54.6875 
L 18.109375 54.6875 
L 18.109375 46.1875 
Q 20.953125 51.171875 25.484375 53.578125 
Q 30.03125 56 36.53125 56 
Q 37.453125 56 38.578125 55.875 
Q 39.703125 55.765625 41.0625 55.515625 
z
" id="DejaVuSans-114"/>
     </defs>
     <g transform="translate(17.745313 167.498979)rotate(-90)scale(0.1 -0.1)">
      <use xlink:href="#DejaVuSans-83"/>
      <use x="63.476562" xlink:href="#DejaVuSans-116"/>
      <use x="102.685547" xlink:href="#DejaVuSans-117"/>
      <use x="166.064453" xlink:href="#DejaVuSans-100"/>
      <use x="229.541016" xlink:href="#DejaVuSans-101"/>
      <use x="291.064453" xlink:href="#DejaVuSans-110"/>
      <use x="354.443359" xlink:href="#DejaVuSans-116"/>
      <use x="393.652344" xlink:href="#DejaVuSans-115"/>
      <use x="445.751953" xlink:href="#DejaVuSans-32"/>
      <use x="477.539062" xlink:href="#DejaVuSans-82"/>
      <use x="546.958984" xlink:href="#DejaVuSans-101"/>
      <use x="608.482422" xlink:href="#DejaVuSans-103"/>
      <use x="671.958984" xlink:href="#DejaVuSans-105"/>
      <use x="699.742188" xlink:href="#DejaVuSans-115"/>
      <use x="751.841797" xlink:href="#DejaVuSans-116"/>
      <use x="791.050781" xlink:href="#DejaVuSans-101"/>
      <use x="852.574219" xlink:href="#DejaVuSans-114"/>
      <use x="893.65625" xlink:href="#DejaVuSans-101"/>
      <use x="955.179688" xlink:href="#DejaVuSans-100"/>
     </g>
    </g>
   </g>
   <g id="line2d_20">
    <path clip-path="url(#p22f32ad125)" d="M 123.842076 196.670456 
L 125.469278 196.670456 
L 125.469278 182.534267 
L 125.550655 182.534267 
L 125.794742 182.534267 
L 125.794742 177.822204 
L 125.876129 177.822204 
L 126.120189 177.822204 
L 126.120189 158.973953 
L 126.201554 158.973953 
L 126.771129 158.973953 
L 126.771129 144.837764 
L 126.852488 144.837764 
L 127.422026 144.837764 
L 127.422026 116.565386 
L 127.503421 116.565386 
L 128.07293 116.565386 
L 128.07293 107.14126 
L 128.154295 107.14126 
L 128.398429 107.14126 
L 128.398429 102.429197 
L 128.479789 102.429197 
L 128.723855 102.429197 
L 128.723855 97.717134 
L 128.805238 97.717134 
L 129.374818 97.717134 
L 129.374818 93.005071 
L 129.456183 93.005071 
L 133.931115 93.005071 
L 133.931115 74.156819 
L 134.012501 74.156819 
L 134.582047 74.156819 
L 134.582047 69.444756 
L 134.66345 69.444756 
L 135.233006 69.444756 
L 135.233006 60.02063 
L 135.3143 60.02063 
L 135.558461 60.02063 
L 135.558461 55.308567 
L 135.639754 55.308567 
L 136.209381 55.308567 
L 136.209381 50.596504 
L 136.290669 50.596504 
L 143.043905 50.596504 
L 143.043905 45.884441 
L 143.125212 45.884441 
L 143.369304 45.884441 
L 143.369304 41.172378 
L 143.45071 41.172378 
L 143.694776 41.172378 
L 143.694776 36.460315 
L 143.776166 36.460315 
L 144.671185 36.460315 
L 144.671185 31.748252 
L 144.752473 31.748252 
L 165.500247 31.748252 
L 165.500247 22.324126 
L 165.581668 22.324126 
L 205.531203 22.324126 
L 205.531203 27.036189 
L 205.612571 27.036189 
L 207.483931 27.036189 
L 207.483931 22.324126 
L 207.565346 22.324126 
L 235.798543 22.324126 
L 235.798543 27.036189 
L 235.879868 27.036189 
L 238.402168 27.036189 
L 238.402168 22.324126 
L 238.483498 22.324126 
L 303.005 22.324126 
L 303.005 22.324126 
" style="fill:none;stroke:#1b9e77;stroke-linecap:square;stroke-width:1.5;"/>
   </g>
   <g id="line2d_21">
    <path clip-path="url(#p22f32ad125)" d="M 55.905 182.534267 
L 56.247906 182.534267 
L 56.247906 177.822204 
L 56.358993 177.822204 
L 57.931957 177.822204 
L 57.931957 173.110142 
L 63.139295 173.110142 
L 63.139295 168.398079 
L 63.632912 168.398079 
L 63.632912 163.686016 
L 63.714223 163.686016 
L 63.958348 163.686016 
L 63.958348 158.973953 
L 64.039751 158.973953 
L 64.934757 158.973953 
L 64.934757 144.837764 
L 65.016085 144.837764 
L 65.260142 144.837764 
L 65.260142 140.125701 
L 65.341564 140.125701 
L 71.769259 140.125701 
L 71.769259 130.701575 
L 71.85067 130.701575 
L 72.094712 130.701575 
L 72.094712 125.989512 
L 72.176042 125.989512 
L 72.420165 125.989512 
L 72.420165 130.701575 
L 72.501553 130.701575 
L 73.071127 130.701575 
L 73.071127 125.989512 
L 73.152469 125.989512 
L 73.396516 125.989512 
L 73.396516 116.565386 
L 73.47797 116.565386 
L 75.023831 116.565386 
L 75.023831 107.14126 
L 75.105167 107.14126 
L 78.603832 107.14126 
L 78.603832 102.429197 
L 78.685174 102.429197 
L 78.929281 102.429197 
L 78.929281 83.580945 
L 79.010632 83.580945 
L 79.254698 83.580945 
L 79.254698 74.156819 
L 79.33606 74.156819 
L 79.905643 74.156819 
L 79.905643 69.444756 
L 79.987013 69.444756 
L 80.231088 69.444756 
L 80.231088 64.732693 
L 80.312482 64.732693 
L 80.556551 64.732693 
L 80.556551 60.02063 
L 80.637924 60.02063 
L 80.882004 60.02063 
L 80.882004 45.884441 
L 80.963412 45.884441 
L 81.20745 45.884441 
L 81.20745 41.172378 
L 81.288845 41.172378 
L 81.532924 41.172378 
L 81.532924 36.460315 
L 81.614301 36.460315 
L 87.065613 36.460315 
L 87.065613 27.036189 
L 87.146978 27.036189 
L 87.391138 27.036189 
L 87.391138 22.324126 
L 87.47245 22.324126 
L 125.794742 22.324126 
L 125.794742 27.036189 
L 125.876129 27.036189 
L 126.120189 27.036189 
L 126.120189 22.324126 
L 126.201554 22.324126 
L 303.005 22.324126 
L 303.005 22.324126 
" style="fill:none;stroke:#d95f02;stroke-linecap:square;stroke-width:1.5;"/>
   </g>
   <g id="line2d_22">
    <path clip-path="url(#p22f32ad125)" d="M 55.905 201.382519 
L 64.609319 201.382519 
L 64.609319 196.670456 
L 64.690621 196.670456 
L 71.118394 196.670456 
L 71.118394 191.958393 
L 71.199764 191.958393 
L 71.443836 191.958393 
L 71.443836 187.24633 
L 71.525203 187.24633 
L 71.769259 187.24633 
L 71.769259 177.822204 
L 71.85067 177.822204 
L 72.094712 177.822204 
L 72.094712 173.110142 
L 72.176042 173.110142 
L 72.420165 173.110142 
L 72.420165 168.398079 
L 72.501553 168.398079 
L 72.745624 168.398079 
L 72.745624 163.686016 
L 72.82697 163.686016 
L 73.396516 163.686016 
L 73.396516 158.973953 
L 73.47797 158.973953 
L 78.929281 158.973953 
L 78.929281 149.549827 
L 79.010632 149.549827 
L 79.254698 149.549827 
L 79.254698 144.837764 
L 79.33606 144.837764 
L 80.556551 144.837764 
L 80.556551 140.125701 
L 80.637924 140.125701 
L 80.882004 140.125701 
L 80.882004 130.701575 
L 80.963412 130.701575 
L 110.498436 130.701575 
L 110.498436 125.989512 
L 110.579718 125.989512 
L 110.823858 125.989512 
L 110.823858 121.277449 
L 110.905179 121.277449 
L 111.149333 121.277449 
L 111.149333 116.565386 
L 111.23067 116.565386 
L 111.474753 116.565386 
L 111.474753 111.853323 
L 111.556111 111.853323 
L 111.800242 111.853323 
L 111.800242 102.429197 
L 111.881585 102.429197 
L 112.125701 102.429197 
L 112.125701 97.717134 
L 112.207052 97.717134 
L 117.983846 97.717134 
L 118.065215 83.580945 
L 118.065215 83.580945 
L 118.634771 83.580945 
L 118.634771 74.156819 
L 118.716123 74.156819 
L 119.611144 74.156819 
L 119.611144 69.444756 
L 119.692495 69.444756 
L 119.936601 69.444756 
L 119.936601 60.02063 
L 120.01797 60.02063 
L 120.262053 60.02063 
L 120.262053 36.460315 
L 120.343406 36.460315 
L 120.587459 36.460315 
L 120.587459 22.324126 
L 120.668899 22.324126 
L 125.469278 22.324126 
L 125.469278 27.036189 
L 125.550655 27.036189 
L 126.120189 27.036189 
L 126.120189 22.324126 
L 126.201554 22.324126 
L 204.88027 22.324126 
L 204.88027 27.036189 
L 204.961692 27.036189 
L 205.205793 27.036189 
L 205.205793 22.324126 
L 205.28717 22.324126 
L 219.525825 22.324126 
L 219.525825 27.036189 
L 219.607108 27.036189 
L 220.176646 27.036189 
L 220.176646 22.324126 
L 220.25801 22.324126 
L 220.827579 22.324126 
L 220.827579 27.036189 
L 220.908954 27.036189 
L 222.129468 27.036189 
L 222.129468 22.324126 
L 222.210783 22.324126 
L 303.005 22.324126 
L 303.005 22.324126 
" style="fill:none;stroke:#7570b3;stroke-linecap:square;stroke-width:1.5;"/>
   </g>
   <g id="line2d_23">
    <path clip-path="url(#p22f32ad125)" d="M 55.905 210.806645 
L 56.247906 210.806645 
L 56.247906 201.382519 
L 56.358993 201.382519 
L 57.774714 201.382519 
L 57.774714 196.670456 
L 57.883197 196.670456 
L 65.260142 196.670456 
L 65.260142 191.958393 
L 65.341564 191.958393 
L 71.443836 191.958393 
L 71.443836 177.822204 
L 71.525203 177.822204 
L 71.769259 177.822204 
L 71.769259 173.110142 
L 71.85067 173.110142 
L 72.094712 173.110142 
L 72.094712 154.26189 
L 72.176042 154.26189 
L 72.420165 154.26189 
L 72.420165 149.549827 
L 72.501553 149.549827 
L 72.745624 149.549827 
L 72.745624 140.125701 
L 72.82697 140.125701 
L 73.071127 140.125701 
L 73.071127 125.989512 
L 73.152469 125.989512 
L 78.929281 125.989512 
L 78.929281 121.277449 
L 79.010632 121.277449 
L 79.254698 121.277449 
L 79.254698 116.565386 
L 79.33606 116.565386 
L 80.231088 116.565386 
L 80.231088 111.853323 
L 80.312482 111.853323 
L 80.882004 111.853323 
L 80.882004 97.717134 
L 80.963412 97.717134 
L 81.20745 97.717134 
L 81.20745 93.005071 
L 81.288845 93.005071 
L 87.716535 93.005071 
L 87.716535 88.293008 
L 87.797912 88.293008 
L 88.041979 88.293008 
L 88.041979 83.580945 
L 88.123376 83.580945 
L 88.692935 83.580945 
L 88.692935 78.868882 
L 88.774251 78.868882 
L 89.66928 78.868882 
L 89.66928 74.156819 
L 89.750688 74.156819 
L 95.202059 74.156819 
L 95.202059 69.444756 
L 95.283385 69.444756 
L 110.498436 69.444756 
L 110.498436 45.884441 
L 110.579718 45.884441 
L 110.823858 45.884441 
L 110.823858 36.460315 
L 110.905179 36.460315 
L 111.149333 36.460315 
L 111.149333 31.748252 
L 111.23067 31.748252 
L 220.827579 31.748252 
L 220.827579 36.460315 
L 220.908954 36.460315 
L 221.153023 36.460315 
L 221.153023 31.748252 
L 221.234386 31.748252 
L 238.727583 31.748252 
L 238.727583 36.460315 
L 238.809004 36.460315 
L 239.053062 36.460315 
L 239.053062 31.748252 
L 239.134453 31.748252 
L 303.005 31.748252 
L 303.005 31.748252 
" style="fill:none;stroke:#e7298a;stroke-linecap:square;stroke-width:1.5;"/>
   </g>
   <g id="line2d_24">
    <path clip-path="url(#p22f32ad125)" d="M 55.905 191.958393 
L 71.443836 191.958393 
L 71.443836 187.24633 
L 71.525203 187.24633 
L 73.071127 187.24633 
L 73.071127 182.534267 
L 73.152469 182.534267 
L 73.722015 182.534267 
L 73.722015 177.822204 
L 73.803347 177.822204 
L 79.905643 177.822204 
L 79.905643 173.110142 
L 79.987013 173.110142 
L 80.556551 173.110142 
L 80.556551 168.398079 
L 80.637924 168.398079 
L 87.065613 168.398079 
L 87.065613 163.686016 
L 87.146978 163.686016 
L 110.172934 163.686016 
L 110.172934 154.26189 
L 110.254344 154.26189 
L 110.498436 154.26189 
L 110.498436 144.837764 
L 110.579718 144.837764 
L 111.474753 144.837764 
L 111.474753 140.125701 
L 111.556111 140.125701 
L 112.776603 140.125701 
L 112.776603 135.413638 
L 112.857948 135.413638 
L 118.634771 135.413638 
L 118.634771 130.701575 
L 118.716123 130.701575 
L 119.285625 130.701575 
L 119.285625 121.277449 
L 119.367061 121.277449 
L 119.936601 121.277449 
L 119.936601 116.565386 
L 120.01797 116.565386 
L 121.889334 116.565386 
L 121.889334 111.853323 
L 121.970683 111.853323 
L 125.469278 111.853323 
L 125.469278 107.14126 
L 125.550655 107.14126 
L 126.120189 107.14126 
L 126.120189 102.429197 
L 126.201554 102.429197 
L 126.445641 102.429197 
L 126.445641 93.005071 
L 126.527011 93.005071 
L 127.096602 93.005071 
L 127.096602 88.293008 
L 127.177969 88.293008 
L 127.422026 88.293008 
L 127.503421 74.156819 
L 127.503421 74.156819 
L 127.747522 74.156819 
L 127.747522 64.732693 
L 127.828897 64.732693 
L 129.049291 64.732693 
L 129.049291 69.444756 
L 129.130643 69.444756 
L 133.931115 69.444756 
L 133.931115 60.02063 
L 134.012501 60.02063 
L 134.256649 60.02063 
L 134.256649 55.308567 
L 134.337931 55.308567 
L 134.907513 55.308567 
L 134.907513 50.596504 
L 134.988889 50.596504 
L 135.233006 50.596504 
L 135.233006 41.172378 
L 135.3143 41.172378 
L 135.558461 41.172378 
L 135.558461 36.460315 
L 135.639754 36.460315 
L 136.209381 36.460315 
L 136.209381 31.748252 
L 136.290669 31.748252 
L 303.005 31.748252 
L 303.005 31.748252 
" style="fill:none;stroke:#66a61e;stroke-linecap:square;stroke-width:1.5;"/>
   </g>
   <g id="line2d_25">
    <path clip-path="url(#p22f32ad125)" d="M 55.905 196.670456 
L 64.609319 196.670456 
L 64.609319 191.958393 
L 64.690621 191.958393 
L 71.118394 191.958393 
L 71.118394 187.24633 
L 71.199764 187.24633 
L 71.443836 187.24633 
L 71.443836 182.534267 
L 71.525203 182.534267 
L 72.094712 182.534267 
L 72.094712 177.822204 
L 72.176042 177.822204 
L 72.420165 177.822204 
L 72.420165 173.110142 
L 72.501553 173.110142 
L 72.745624 173.110142 
L 72.745624 163.686016 
L 72.82697 163.686016 
L 73.071127 163.686016 
L 73.071127 158.973953 
L 73.152469 158.973953 
L 73.396516 158.973953 
L 73.396516 154.26189 
L 73.47797 154.26189 
L 78.603832 154.26189 
L 78.603832 149.549827 
L 78.685174 149.549827 
L 78.929281 149.549827 
L 78.929281 140.125701 
L 79.010632 140.125701 
L 79.580137 140.125701 
L 79.580137 135.413638 
L 79.661507 135.413638 
L 79.905643 135.413638 
L 79.905643 125.989512 
L 79.987013 125.989512 
L 80.556551 125.989512 
L 80.556551 121.277449 
L 80.637924 121.277449 
L 81.20745 121.277449 
L 81.20745 116.565386 
L 81.288845 116.565386 
L 81.532924 116.565386 
L 81.532924 111.853323 
L 81.614301 111.853323 
L 87.391138 111.853323 
L 87.391138 107.14126 
L 87.47245 107.14126 
L 88.692935 107.14126 
L 88.692935 102.429197 
L 88.774251 102.429197 
L 97.154709 102.429197 
L 97.154709 97.717134 
L 97.236081 97.717134 
L 110.172934 97.717134 
L 110.172934 93.005071 
L 110.254344 93.005071 
L 111.149333 93.005071 
L 111.149333 78.868882 
L 111.23067 78.868882 
L 111.474753 78.868882 
L 111.474753 69.444756 
L 111.556111 69.444756 
L 111.800242 69.444756 
L 111.800242 60.02063 
L 111.881585 60.02063 
L 112.776603 60.02063 
L 112.776603 55.308567 
L 112.857948 55.308567 
L 117.33295 55.308567 
L 117.33295 50.596504 
L 117.41431 50.596504 
L 118.309294 50.596504 
L 118.309294 45.884441 
L 118.390642 45.884441 
L 118.634771 45.884441 
L 118.634771 41.172378 
L 118.716123 41.172378 
L 118.960205 41.172378 
L 118.960205 36.460315 
L 119.041577 36.460315 
L 119.936601 36.460315 
L 119.936601 31.748252 
L 120.01797 31.748252 
L 303.005 31.748252 
L 303.005 31.748252 
" style="fill:none;stroke:#e6ab02;stroke-linecap:square;stroke-width:1.5;"/>
   </g>
   <g id="line2d_26">
    <path clip-path="url(#p22f32ad125)" d="M 55.905 201.382519 
L 65.260142 201.382519 
L 65.260142 196.670456 
L 65.341564 196.670456 
L 71.443836 196.670456 
L 71.443836 191.958393 
L 71.525203 191.958393 
L 72.745624 191.958393 
L 72.745624 187.24633 
L 72.82697 187.24633 
L 79.580137 187.24633 
L 79.580137 177.822204 
L 79.661507 177.822204 
L 80.231088 177.822204 
L 80.231088 173.110142 
L 80.312482 173.110142 
L 80.882004 173.110142 
L 80.882004 168.398079 
L 80.963412 168.398079 
L 81.20745 168.398079 
L 81.20745 163.686016 
L 81.288845 163.686016 
L 88.692935 163.686016 
L 88.692935 158.973953 
L 88.774251 158.973953 
L 96.178392 158.973953 
L 96.178392 154.26189 
L 96.259719 154.26189 
L 110.498436 154.26189 
L 110.498436 144.837764 
L 110.579718 144.837764 
L 111.149333 144.837764 
L 111.149333 140.125701 
L 111.23067 140.125701 
L 112.776603 140.125701 
L 112.776603 135.413638 
L 112.857948 135.413638 
L 117.983846 135.413638 
L 117.983846 130.701575 
L 118.065215 130.701575 
L 119.611144 130.701575 
L 119.611144 125.989512 
L 119.692495 125.989512 
L 119.936601 125.989512 
L 119.936601 121.277449 
L 120.01797 121.277449 
L 120.262053 121.277449 
L 120.343406 107.14126 
L 120.343406 107.14126 
L 125.794742 107.14126 
L 125.794742 102.429197 
L 125.876129 102.429197 
L 126.120189 102.429197 
L 126.120189 93.005071 
L 126.201554 93.005071 
L 126.445641 93.005071 
L 126.445641 88.293008 
L 126.527011 88.293008 
L 126.771129 88.293008 
L 126.852488 74.156819 
L 126.852488 74.156819 
L 127.422026 74.156819 
L 127.422026 60.02063 
L 127.503421 60.02063 
L 127.747522 60.02063 
L 127.747522 50.596504 
L 127.828897 50.596504 
L 128.07293 50.596504 
L 128.07293 31.748252 
L 128.154295 31.748252 
L 128.398429 31.748252 
L 128.398429 27.036189 
L 128.479789 27.036189 
L 130.025716 27.036189 
L 130.025716 22.324126 
L 130.10708 22.324126 
L 219.525825 22.324126 
L 219.525825 27.036189 
L 219.607108 27.036189 
L 219.851277 27.036189 
L 219.851277 22.324126 
L 219.932636 22.324126 
L 220.502151 22.324126 
L 220.502151 27.036189 
L 220.583547 27.036189 
L 221.478478 27.036189 
L 221.478478 31.748252 
L 221.55991 31.748252 
L 222.129468 31.748252 
L 222.129468 36.460315 
L 222.210783 36.460315 
L 230.916687 36.460315 
L 230.916687 41.172378 
L 230.998091 41.172378 
L 250.118559 41.172378 
L 250.118559 36.460315 
L 250.199932 36.460315 
L 286.244003 36.460315 
L 286.244003 41.172378 
L 286.325434 41.172378 
L 298.936777 41.172378 
L 298.936777 36.460315 
L 299.0181 36.460315 
L 303.005 36.460315 
L 303.005 36.460315 
" style="fill:none;stroke:#a6761d;stroke-linecap:square;stroke-width:1.5;"/>
   </g>
   <g id="line2d_27">
    <path clip-path="url(#p22f32ad125)" d="M 55.905 201.382519 
L 71.769259 201.382519 
L 71.769259 196.670456 
L 71.85067 196.670456 
L 72.745624 196.670456 
L 72.745624 191.958393 
L 72.82697 191.958393 
L 79.905643 191.958393 
L 79.905643 187.24633 
L 79.987013 187.24633 
L 80.556551 187.24633 
L 80.556551 191.958393 
L 80.637924 191.958393 
L 80.882004 191.958393 
L 80.882004 182.534267 
L 80.963412 182.534267 
L 110.498436 182.534267 
L 110.498436 177.822204 
L 110.579718 177.822204 
L 111.149333 177.822204 
L 111.149333 173.110142 
L 111.23067 173.110142 
L 111.800242 173.110142 
L 111.800242 168.398079 
L 111.881585 168.398079 
L 112.125701 168.398079 
L 112.125701 163.686016 
L 112.207052 163.686016 
L 113.752922 163.686016 
L 113.752922 158.973953 
L 113.834265 158.973953 
L 118.960205 158.973953 
L 118.960205 154.26189 
L 119.041577 154.26189 
L 119.936601 154.26189 
L 119.936601 149.549827 
L 120.01797 149.549827 
L 120.262053 149.549827 
L 120.262053 144.837764 
L 120.343406 144.837764 
L 125.794742 144.837764 
L 125.794742 135.413638 
L 125.876129 135.413638 
L 126.120189 135.413638 
L 126.120189 130.701575 
L 126.201554 130.701575 
L 126.445641 130.701575 
L 126.527011 116.565386 
L 126.527011 116.565386 
L 127.747522 116.565386 
L 127.747522 111.853323 
L 127.828897 111.853323 
L 128.07293 111.853323 
L 128.07293 107.14126 
L 128.154295 107.14126 
L 128.398429 107.14126 
L 128.398429 111.853323 
L 128.479789 111.853323 
L 128.723855 111.853323 
L 128.723855 107.14126 
L 128.805238 107.14126 
L 129.049291 107.14126 
L 129.049291 102.429197 
L 129.130643 102.429197 
L 132.954801 102.429197 
L 132.954801 107.14126 
L 133.036103 107.14126 
L 133.931115 107.14126 
L 133.931115 93.005071 
L 134.012501 93.005071 
L 134.582047 93.005071 
L 134.582047 88.293008 
L 134.66345 88.293008 
L 135.233006 88.293008 
L 135.233006 69.444756 
L 135.3143 69.444756 
L 135.558461 69.444756 
L 135.558461 64.732693 
L 135.639754 64.732693 
L 142.718407 64.732693 
L 142.718407 60.02063 
L 142.799803 60.02063 
L 169.080317 60.02063 
L 169.080317 55.308567 
L 169.16163 55.308567 
L 174.28758 55.308567 
L 174.28758 50.596504 
L 174.368927 50.596504 
L 174.612996 50.596504 
L 174.612996 55.308567 
L 174.694345 55.308567 
L 175.26391 55.308567 
L 175.26391 50.596504 
L 175.345248 50.596504 
L 183.074879 50.596504 
L 183.074879 45.884441 
L 183.156329 45.884441 
L 196.41845 45.884441 
L 196.41845 50.596504 
L 196.499823 50.596504 
L 205.531203 50.596504 
L 205.531203 45.884441 
L 205.612571 45.884441 
L 219.525825 45.884441 
L 219.525825 50.596504 
L 219.607108 50.596504 
L 220.176646 50.596504 
L 220.176646 55.308567 
L 220.25801 55.308567 
L 221.153023 55.308567 
L 221.153023 60.02063 
L 221.234386 60.02063 
L 230.265774 60.02063 
L 230.265774 64.732693 
L 230.347116 64.732693 
L 244.260312 64.732693 
L 244.260312 69.444756 
L 244.341746 69.444756 
L 276.805875 69.444756 
L 276.805875 74.156819 
L 276.88722 74.156819 
L 303.005 74.156819 
L 303.005 74.156819 
" style="fill:none;stroke:#666666;stroke-linecap:square;stroke-width:1.5;"/>
   </g>
   <g id="line2d_28">
    <path clip-path="url(#p22f32ad125)" d="M 55.905 196.670456 
L 63.139295 196.670456 
L 63.139295 191.958393 
L 72.745624 191.958393 
L 72.745624 187.24633 
L 72.82697 187.24633 
L 79.254698 187.24633 
L 79.254698 182.534267 
L 79.33606 182.534267 
L 79.905643 182.534267 
L 79.905643 177.822204 
L 79.987013 177.822204 
L 80.882004 177.822204 
L 80.882004 173.110142 
L 80.963412 173.110142 
L 81.20745 173.110142 
L 81.20745 168.398079 
L 81.288845 168.398079 
L 83.160194 168.398079 
L 83.160194 163.686016 
L 83.241565 163.686016 
L 111.149333 163.686016 
L 111.149333 154.26189 
L 111.23067 154.26189 
L 118.634771 154.26189 
L 118.634771 149.549827 
L 118.716123 149.549827 
L 120.262053 149.549827 
L 120.262053 144.837764 
L 120.343406 144.837764 
L 121.238445 144.837764 
L 121.238445 140.125701 
L 121.319801 140.125701 
L 126.120189 140.125701 
L 126.120189 135.413638 
L 126.201554 135.413638 
L 126.445641 135.413638 
L 126.445641 125.989512 
L 126.527011 125.989512 
L 127.422026 125.989512 
L 127.422026 116.565386 
L 127.503421 116.565386 
L 134.582047 116.565386 
L 134.582047 111.853323 
L 134.66345 111.853323 
L 135.558461 111.853323 
L 135.558461 107.14126 
L 135.639754 107.14126 
L 136.53476 107.14126 
L 136.53476 102.429197 
L 136.616135 102.429197 
L 144.671185 102.429197 
L 144.671185 97.717134 
L 144.752473 97.717134 
L 167.127557 97.717134 
L 167.127557 93.005071 
L 167.208887 93.005071 
L 174.612996 93.005071 
L 174.612996 88.293008 
L 174.694345 88.293008 
L 183.074879 88.293008 
L 183.074879 93.005071 
L 183.156329 93.005071 
L 220.502151 93.005071 
L 220.502151 88.293008 
L 220.583547 88.293008 
L 220.827579 88.293008 
L 220.827579 93.005071 
L 220.908954 93.005071 
L 228.963984 93.005071 
L 228.963984 88.293008 
L 229.045356 88.293008 
L 286.244003 88.293008 
L 286.244003 83.580945 
L 286.325434 83.580945 
L 303.005 83.580945 
L 303.005 83.580945 
" style="fill:none;stroke:#1b9e77;stroke-dasharray:4.5,1.5;stroke-dashoffset:0;stroke-width:1.5;"/>
   </g>
   <g id="line2d_29">
    <path clip-path="url(#p22f32ad125)" d="M 55.905 206.094582 
L 71.118394 206.094582 
L 71.118394 201.382519 
L 71.199764 201.382519 
L 71.443836 201.382519 
L 71.443836 196.670456 
L 71.525203 196.670456 
L 72.745624 196.670456 
L 72.745624 187.24633 
L 72.82697 187.24633 
L 78.929281 187.24633 
L 78.929281 182.534267 
L 79.010632 182.534267 
L 80.556551 182.534267 
L 80.556551 177.822204 
L 80.637924 177.822204 
L 80.882004 177.822204 
L 80.882004 173.110142 
L 80.963412 173.110142 
L 81.20745 173.110142 
L 81.20745 168.398079 
L 81.288845 168.398079 
L 110.823858 168.398079 
L 110.823858 163.686016 
L 110.905179 163.686016 
L 111.149333 163.686016 
L 111.149333 158.973953 
L 111.23067 158.973953 
L 111.474753 158.973953 
L 111.474753 149.549827 
L 111.556111 149.549827 
L 119.611144 149.549827 
L 119.611144 144.837764 
L 119.692495 144.837764 
L 119.936601 144.837764 
L 119.936601 140.125701 
L 120.01797 140.125701 
L 125.469278 140.125701 
L 125.469278 144.837764 
L 125.550655 144.837764 
L 126.445641 144.837764 
L 126.445641 135.413638 
L 126.527011 135.413638 
L 126.771129 135.413638 
L 126.771129 140.125701 
L 126.852488 140.125701 
L 127.096602 140.125701 
L 127.096602 135.413638 
L 127.177969 135.413638 
L 127.747522 135.413638 
L 127.747522 125.989512 
L 127.828897 125.989512 
L 128.07293 125.989512 
L 128.07293 121.277449 
L 128.154295 121.277449 
L 143.369304 121.277449 
L 143.369304 116.565386 
L 143.45071 116.565386 
L 144.345726 116.565386 
L 144.345726 111.853323 
L 144.427105 111.853323 
L 159.967513 111.853323 
L 159.967513 107.14126 
L 160.048914 107.14126 
L 189.58391 107.14126 
L 189.58391 102.429197 
L 189.665303 102.429197 
L 190.885728 102.429197 
L 190.885728 97.717134 
L 190.967117 97.717134 
L 197.394877 97.717134 
L 197.394877 93.005071 
L 197.476202 93.005071 
L 223.105828 93.005071 
L 223.105828 88.293008 
L 223.187172 88.293008 
L 303.005 88.293008 
L 303.005 88.293008 
" style="fill:none;stroke:#d95f02;stroke-dasharray:4.5,1.5;stroke-dashoffset:0;stroke-width:1.5;"/>
   </g>
   <g id="line2d_30">
    <path clip-path="url(#p22f32ad125)" d="M 55.905 206.094582 
L 71.769259 206.094582 
L 71.769259 201.382519 
L 71.85067 201.382519 
L 80.556551 201.382519 
L 80.556551 191.958393 
L 80.637924 191.958393 
L 110.172934 191.958393 
L 110.172934 187.24633 
L 110.254344 187.24633 
L 110.823858 187.24633 
L 110.823858 182.534267 
L 110.905179 182.534267 
L 111.800242 182.534267 
L 111.800242 177.822204 
L 111.881585 177.822204 
L 117.983846 177.822204 
L 117.983846 173.110142 
L 118.065215 173.110142 
L 118.309294 173.110142 
L 118.309294 163.686016 
L 118.390642 163.686016 
L 118.634771 163.686016 
L 118.634771 158.973953 
L 118.716123 158.973953 
L 119.285625 158.973953 
L 119.285625 154.26189 
L 119.367061 154.26189 
L 119.611144 154.26189 
L 119.611144 144.837764 
L 119.692495 144.837764 
L 119.936601 144.837764 
L 119.936601 135.413638 
L 120.01797 135.413638 
L 121.238445 135.413638 
L 121.238445 130.701575 
L 121.319801 130.701575 
L 121.889334 130.701575 
L 121.889334 125.989512 
L 121.970683 125.989512 
L 122.214729 125.989512 
L 122.214729 130.701575 
L 122.296178 130.701575 
L 125.143857 130.701575 
L 125.143857 135.413638 
L 125.225247 135.413638 
L 125.469278 135.413638 
L 125.469278 140.125701 
L 125.550655 140.125701 
L 125.794742 140.125701 
L 125.794742 135.413638 
L 125.876129 135.413638 
L 126.120189 135.413638 
L 126.120189 140.125701 
L 126.201554 140.125701 
L 126.445641 140.125701 
L 126.445641 135.413638 
L 126.527011 135.413638 
L 126.771129 135.413638 
L 126.771129 130.701575 
L 126.852488 130.701575 
L 127.422026 130.701575 
L 127.422026 135.413638 
L 127.503421 135.413638 
L 134.907513 135.413638 
L 134.907513 130.701575 
L 134.988889 130.701575 
L 135.558461 130.701575 
L 135.558461 125.989512 
L 135.639754 125.989512 
L 143.043905 125.989512 
L 143.043905 121.277449 
L 143.125212 121.277449 
L 145.322063 121.277449 
L 145.322063 116.565386 
L 145.403462 116.565386 
L 166.151182 116.565386 
L 166.151182 111.853323 
L 166.232501 111.853323 
L 166.476633 111.853323 
L 166.476633 107.14126 
L 166.557955 107.14126 
L 167.77842 107.14126 
L 167.77842 102.429197 
L 167.859881 102.429197 
L 183.074879 102.429197 
L 183.074879 97.717134 
L 183.156329 97.717134 
L 184.051159 97.717134 
L 184.051159 93.005071 
L 184.132601 93.005071 
L 200.323957 93.005071 
L 200.323957 88.293008 
L 200.405268 88.293008 
L 207.483931 88.293008 
L 207.483931 93.005071 
L 207.565346 93.005071 
L 220.176646 93.005071 
L 220.176646 97.717134 
L 220.25801 97.717134 
L 276.154949 97.717134 
L 276.154949 93.005071 
L 276.236287 93.005071 
L 303.005 93.005071 
L 303.005 93.005071 
" style="fill:none;stroke:#7570b3;stroke-dasharray:4.5,1.5;stroke-dashoffset:0;stroke-width:1.5;"/>
   </g>
   <g id="line2d_31">
    <path clip-path="url(#p22f32ad125)" d="M 55.905 210.806645 
L 64.284115 210.806645 
L 64.284115 206.094582 
L 64.36518 206.094582 
L 64.934757 206.094582 
L 64.934757 201.382519 
L 65.016085 201.382519 
L 72.420165 201.382519 
L 72.420165 196.670456 
L 72.501553 196.670456 
L 80.882004 196.670456 
L 80.882004 191.958393 
L 80.963412 191.958393 
L 86.089295 191.958393 
L 86.089295 187.24633 
L 86.17073 187.24633 
L 87.716535 187.24633 
L 87.716535 182.534267 
L 87.797912 182.534267 
L 88.367474 182.534267 
L 88.367474 177.822204 
L 88.448855 177.822204 
L 110.172934 177.822204 
L 110.172934 168.398079 
L 110.254344 168.398079 
L 110.823858 168.398079 
L 110.823858 163.686016 
L 110.905179 163.686016 
L 111.149333 163.686016 
L 111.149333 158.973953 
L 111.23067 158.973953 
L 111.474753 158.973953 
L 111.474753 154.26189 
L 111.556111 154.26189 
L 111.800242 154.26189 
L 111.800242 144.837764 
L 111.881585 144.837764 
L 112.125701 144.837764 
L 112.125701 140.125701 
L 112.207052 140.125701 
L 112.776603 140.125701 
L 112.776603 135.413638 
L 112.857948 135.413638 
L 113.427541 135.413638 
L 113.427541 130.701575 
L 113.508805 130.701575 
L 114.403818 130.701575 
L 114.403818 125.989512 
L 114.485183 125.989512 
L 117.983846 125.989512 
L 117.983846 121.277449 
L 118.065215 121.277449 
L 118.309294 121.277449 
L 118.309294 116.565386 
L 118.390642 116.565386 
L 118.634771 116.565386 
L 118.634771 102.429197 
L 118.716123 102.429197 
L 118.960205 102.429197 
L 118.960205 97.717134 
L 119.041577 97.717134 
L 119.285625 97.717134 
L 119.285625 93.005071 
L 119.367061 93.005071 
L 122.214729 93.005071 
L 122.214729 97.717134 
L 122.296178 97.717134 
L 126.445641 97.717134 
L 126.445641 93.005071 
L 126.527011 93.005071 
L 126.771129 93.005071 
L 126.771129 97.717134 
L 126.852488 97.717134 
L 127.096602 97.717134 
L 127.096602 93.005071 
L 127.177969 93.005071 
L 136.209381 93.005071 
L 136.209381 97.717134 
L 136.290669 97.717134 
L 136.53476 97.717134 
L 136.53476 93.005071 
L 136.616135 93.005071 
L 303.005 93.005071 
L 303.005 93.005071 
" style="fill:none;stroke:#e7298a;stroke-dasharray:4.5,1.5;stroke-dashoffset:0;stroke-width:1.5;"/>
   </g>
   <g id="line2d_32">
    <path clip-path="url(#p22f32ad125)" d="M 202.032563 210.806645 
L 204.88027 210.806645 
L 204.88027 206.094582 
L 204.961692 206.094582 
L 214.643985 206.094582 
L 214.643985 201.382519 
L 214.725323 201.382519 
L 219.525825 201.382519 
L 219.525825 182.534267 
L 219.607108 182.534267 
L 220.176646 182.534267 
L 220.176646 173.110142 
L 220.25801 173.110142 
L 220.827579 173.110142 
L 220.827579 158.973953 
L 220.908954 158.973953 
L 221.478478 158.973953 
L 221.478478 154.26189 
L 221.55991 154.26189 
L 227.987644 154.26189 
L 227.987644 149.549827 
L 228.068957 149.549827 
L 229.614899 149.549827 
L 229.614899 144.837764 
L 229.696212 144.837764 
L 230.265774 144.837764 
L 230.265774 140.125701 
L 230.347116 140.125701 
L 230.916687 140.125701 
L 230.916687 135.413638 
L 230.998091 135.413638 
L 231.242153 135.413638 
L 231.242153 130.701575 
L 231.323464 130.701575 
L 235.798543 130.701575 
L 235.798543 125.989512 
L 235.879868 125.989512 
L 238.727583 125.989512 
L 238.727583 121.277449 
L 238.809004 121.277449 
L 244.260312 121.277449 
L 244.260312 116.565386 
L 244.341746 116.565386 
L 303.005 116.565386 
L 303.005 116.565386 
" style="fill:none;stroke:#66a61e;stroke-dasharray:4.5,1.5;stroke-dashoffset:0;stroke-width:1.5;"/>
   </g>
   <g id="line2d_33">
    <path clip-path="url(#p22f32ad125)" d="M 55.905 206.094582 
L 72.094712 206.094582 
L 72.094712 196.670456 
L 72.176042 196.670456 
L 79.254698 196.670456 
L 79.254698 187.24633 
L 79.33606 187.24633 
L 79.580137 187.24633 
L 79.580137 182.534267 
L 79.661507 182.534267 
L 80.882004 182.534267 
L 80.882004 177.822204 
L 80.963412 177.822204 
L 81.20745 177.822204 
L 81.20745 173.110142 
L 81.288845 173.110142 
L 111.474753 173.110142 
L 111.474753 168.398079 
L 111.556111 168.398079 
L 111.800242 168.398079 
L 111.800242 163.686016 
L 111.881585 163.686016 
L 112.125701 163.686016 
L 112.125701 158.973953 
L 112.207052 158.973953 
L 113.101994 158.973953 
L 113.101994 154.26189 
L 113.183431 154.26189 
L 113.427541 154.26189 
L 113.427541 158.973953 
L 113.508805 158.973953 
L 117.983846 158.973953 
L 117.983846 140.125701 
L 118.065215 140.125701 
L 118.634771 140.125701 
L 118.634771 130.701575 
L 118.716123 130.701575 
L 118.960205 130.701575 
L 118.960205 125.989512 
L 119.041577 125.989512 
L 119.285625 125.989512 
L 119.285625 116.565386 
L 119.367061 116.565386 
L 303.005 116.565386 
L 303.005 116.565386 
" style="fill:none;stroke:#e6ab02;stroke-dasharray:4.5,1.5;stroke-dashoffset:0;stroke-width:1.5;"/>
   </g>
   <g id="line2d_34">
    <path clip-path="url(#p22f32ad125)" d="M 55.905 210.806645 
L 65.58559 210.806645 
L 65.58559 206.094582 
L 65.666989 206.094582 
L 66.887473 206.094582 
L 66.887473 201.382519 
L 66.96879 201.382519 
L 87.391138 201.382519 
L 87.391138 196.670456 
L 87.47245 196.670456 
L 110.172934 196.670456 
L 110.172934 191.958393 
L 110.254344 191.958393 
L 112.451107 191.958393 
L 112.451107 182.534267 
L 112.532455 182.534267 
L 118.634771 182.534267 
L 118.634771 177.822204 
L 118.716123 177.822204 
L 118.960205 177.822204 
L 118.960205 173.110142 
L 119.041577 173.110142 
L 119.936601 173.110142 
L 119.936601 163.686016 
L 120.01797 163.686016 
L 120.262053 163.686016 
L 120.262053 158.973953 
L 120.343406 158.973953 
L 122.214729 158.973953 
L 122.214729 154.26189 
L 122.296178 154.26189 
L 126.120189 154.26189 
L 126.120189 158.973953 
L 126.201554 158.973953 
L 126.771129 158.973953 
L 126.771129 154.26189 
L 126.852488 154.26189 
L 127.096602 154.26189 
L 127.096602 149.549827 
L 127.177969 149.549827 
L 127.747522 149.549827 
L 127.747522 144.837764 
L 127.828897 144.837764 
L 128.07293 144.837764 
L 128.07293 149.549827 
L 128.154295 149.549827 
L 128.398429 149.549827 
L 128.398429 144.837764 
L 128.479789 144.837764 
L 133.931115 144.837764 
L 133.931115 140.125701 
L 134.012501 140.125701 
L 144.345726 140.125701 
L 144.345726 135.413638 
L 144.427105 135.413638 
L 166.151182 135.413638 
L 166.151182 130.701575 
L 166.232501 130.701575 
L 197.069377 130.701575 
L 197.069377 125.989512 
L 197.150797 125.989512 
L 235.798543 125.989512 
L 235.798543 121.277449 
L 235.879868 121.277449 
L 276.805875 121.277449 
L 276.805875 116.565386 
L 276.88722 116.565386 
L 303.005 116.565386 
L 303.005 116.565386 
" style="fill:none;stroke:#a6761d;stroke-dasharray:4.5,1.5;stroke-dashoffset:0;stroke-width:1.5;"/>
   </g>
   <g id="line2d_35">
    <path clip-path="url(#p22f32ad125)" d="M 55.905 210.806645 
L 72.745624 210.806645 
L 72.745624 206.094582 
L 72.82697 206.094582 
L 73.071127 206.094582 
L 73.071127 201.382519 
L 73.152469 201.382519 
L 79.580137 201.382519 
L 79.580137 196.670456 
L 79.661507 196.670456 
L 81.20745 196.670456 
L 81.20745 191.958393 
L 81.288845 191.958393 
L 81.85836 191.958393 
L 81.85836 187.24633 
L 81.939741 187.24633 
L 82.509304 187.24633 
L 82.509304 182.534267 
L 82.590672 182.534267 
L 87.391138 182.534267 
L 87.391138 187.24633 
L 87.47245 187.24633 
L 110.498436 187.24633 
L 110.498436 182.534267 
L 110.579718 182.534267 
L 112.451107 182.534267 
L 112.451107 173.110142 
L 112.532455 173.110142 
L 118.309294 173.110142 
L 118.309294 168.398079 
L 118.390642 168.398079 
L 119.611144 168.398079 
L 119.611144 149.549827 
L 119.692495 149.549827 
L 119.936601 149.549827 
L 119.936601 144.837764 
L 120.01797 144.837764 
L 120.262053 144.837764 
L 120.262053 140.125701 
L 120.343406 140.125701 
L 220.176646 140.125701 
L 220.176646 144.837764 
L 220.25801 144.837764 
L 220.502151 144.837764 
L 220.502151 140.125701 
L 220.583547 140.125701 
L 303.005 140.125701 
L 303.005 140.125701 
" style="fill:none;stroke:#666666;stroke-dasharray:4.5,1.5;stroke-dashoffset:0;stroke-width:1.5;"/>
   </g>
   <g id="line2d_36"/>
   <g id="line2d_37"/>
   <g id="line2d_38"/>
   <g id="line2d_39"/>
   <g id="line2d_40"/>
   <g id="line2d_41"/>
   <g id="line2d_42"/>
   <g id="line2d_43"/>
   <g id="line2d_44"/>
   <g id="line2d_45"/>
   <g id="line2d_46"/>
   <g id="line2d_47"/>
   <g id="line2d_48"/>
   <g id="line2d_49"/>
   <g id="line2d_50"/>
   <g id="line2d_51"/>
   <g id="line2d_52"/>
   <g id="patch_3">
    <path d="M 43.55 220.230771 
L 43.55 12.9 
" style="fill:none;stroke:#000000;stroke-linecap:square;stroke-linejoin:miter;stroke-width:0.8;"/>
   </g>
   <g id="patch_4">
    <path d="M 315.36 220.230771 
L 315.36 12.9 
" style="fill:none;stroke:#000000;stroke-linecap:square;stroke-linejoin:miter;stroke-width:0.8;"/>
   </g>
   <g id="patch_5">
    <path d="M 43.55 220.230771 
L 315.36 220.230771 
" style="fill:none;stroke:#000000;stroke-linecap:square;stroke-linejoin:miter;stroke-width:0.8;"/>
   </g>
   <g id="patch_6">
    <path d="M 43.55 12.9 
L 315.36 12.9 
" style="fill:none;stroke:#000000;stroke-linecap:square;stroke-linejoin:miter;stroke-width:0.8;"/>
   </g>
  </g>
  <g id="legend_1">
   <g id="patch_7">
    <path d="M 331.8625 262.528125 
L 420 262.528125 
Q 422 262.528125 422 260.528125 
L 422 12 
Q 422 10 420 10 
L 331.8625 10 
Q 329.8625 10 329.8625 12 
L 329.8625 260.528125 
Q 329.8625 262.528125 331.8625 262.528125 
z
" style="fill:#ffffff;opacity:0.8;stroke:#cccccc;stroke-linejoin:miter;"/>
   </g>
   <g id="text_22">
    <!-- 478/610 Reg. -->
    <defs>
     <path d="M 31.78125 34.625 
Q 24.75 34.625 20.71875 30.859375 
Q 16.703125 27.09375 16.703125 20.515625 
Q 16.703125 13.921875 20.71875 10.15625 
Q 24.75 6.390625 31.78125 6.390625 
Q 38.8125 6.390625 42.859375 10.171875 
Q 46.921875 13.96875 46.921875 20.515625 
Q 46.921875 27.09375 42.890625 30.859375 
Q 38.875 34.625 31.78125 34.625 
z
M 21.921875 38.8125 
Q 15.578125 40.375 12.03125 44.71875 
Q 8.5 49.078125 8.5 55.328125 
Q 8.5 64.0625 14.71875 69.140625 
Q 20.953125 74.21875 31.78125 74.21875 
Q 42.671875 74.21875 48.875 69.140625 
Q 55.078125 64.0625 55.078125 55.328125 
Q 55.078125 49.078125 51.53125 44.71875 
Q 48 40.375 41.703125 38.8125 
Q 48.828125 37.15625 52.796875 32.3125 
Q 56.78125 27.484375 56.78125 20.515625 
Q 56.78125 9.90625 50.3125 4.234375 
Q 43.84375 -1.421875 31.78125 -1.421875 
Q 19.734375 -1.421875 13.25 4.234375 
Q 6.78125 9.90625 6.78125 20.515625 
Q 6.78125 27.484375 10.78125 32.3125 
Q 14.796875 37.15625 21.921875 38.8125 
z
M 18.3125 54.390625 
Q 18.3125 48.734375 21.84375 45.5625 
Q 25.390625 42.390625 31.78125 42.390625 
Q 38.140625 42.390625 41.71875 45.5625 
Q 45.3125 48.734375 45.3125 54.390625 
Q 45.3125 60.0625 41.71875 63.234375 
Q 38.140625 66.40625 31.78125 66.40625 
Q 25.390625 66.40625 21.84375 63.234375 
Q 18.3125 60.0625 18.3125 54.390625 
z
" id="DejaVuSans-56"/>
     <path d="M 25.390625 72.90625 
L 33.6875 72.90625 
L 8.296875 -9.28125 
L 0 -9.28125 
z
" id="DejaVuSans-47"/>
     <path d="M 33.015625 40.375 
Q 26.375 40.375 22.484375 35.828125 
Q 18.609375 31.296875 18.609375 23.390625 
Q 18.609375 15.53125 22.484375 10.953125 
Q 26.375 6.390625 33.015625 6.390625 
Q 39.65625 6.390625 43.53125 10.953125 
Q 47.40625 15.53125 47.40625 23.390625 
Q 47.40625 31.296875 43.53125 35.828125 
Q 39.65625 40.375 33.015625 40.375 
z
M 52.59375 71.296875 
L 52.59375 62.3125 
Q 48.875 64.0625 45.09375 64.984375 
Q 41.3125 65.921875 37.59375 65.921875 
Q 27.828125 65.921875 22.671875 59.328125 
Q 17.53125 52.734375 16.796875 39.40625 
Q 19.671875 43.65625 24.015625 45.921875 
Q 28.375 48.1875 33.59375 48.1875 
Q 44.578125 48.1875 50.953125 41.515625 
Q 57.328125 34.859375 57.328125 23.390625 
Q 57.328125 12.15625 50.6875 5.359375 
Q 44.046875 -1.421875 33.015625 -1.421875 
Q 20.359375 -1.421875 13.671875 8.265625 
Q 6.984375 17.96875 6.984375 36.375 
Q 6.984375 53.65625 15.1875 63.9375 
Q 23.390625 74.21875 37.203125 74.21875 
Q 40.921875 74.21875 44.703125 73.484375 
Q 48.484375 72.75 52.59375 71.296875 
z
" id="DejaVuSans-54"/>
     <path d="M 10.6875 12.40625 
L 21 12.40625 
L 21 0 
L 10.6875 0 
z
" id="DejaVuSans-46"/>
    </defs>
    <g transform="translate(342.259375 21.598437)scale(0.1 -0.1)">
     <use xlink:href="#DejaVuSans-52"/>
     <use x="63.623047" xlink:href="#DejaVuSans-55"/>
     <use x="127.246094" xlink:href="#DejaVuSans-56"/>
     <use x="190.869141" xlink:href="#DejaVuSans-47"/>
     <use x="224.560547" xlink:href="#DejaVuSans-54"/>
     <use x="288.183594" xlink:href="#DejaVuSans-49"/>
     <use x="351.806641" xlink:href="#DejaVuSans-48"/>
     <use x="415.429688" xlink:href="#DejaVuSans-32"/>
     <use x="447.216797" xlink:href="#DejaVuSans-82"/>
     <use x="516.636719" xlink:href="#DejaVuSans-101"/>
     <use x="578.160156" xlink:href="#DejaVuSans-103"/>
     <use x="641.636719" xlink:href="#DejaVuSans-46"/>
    </g>
   </g>
   <g id="line2d_53">
    <path d="M 333.8625 32.776562 
L 353.8625 32.776562 
" style="fill:none;stroke:#1b9e77;stroke-linecap:square;stroke-width:1.5;"/>
   </g>
   <g id="line2d_54"/>
   <g id="text_23">
    <!-- AUS (40) -->
    <defs>
     <path d="M 34.1875 63.1875 
L 20.796875 26.90625 
L 47.609375 26.90625 
z
M 28.609375 72.90625 
L 39.796875 72.90625 
L 67.578125 0 
L 57.328125 0 
L 50.6875 18.703125 
L 17.828125 18.703125 
L 11.1875 0 
L 0.78125 0 
z
" id="DejaVuSans-65"/>
     <path d="M 8.6875 72.90625 
L 18.609375 72.90625 
L 18.609375 28.609375 
Q 18.609375 16.890625 22.84375 11.734375 
Q 27.09375 6.59375 36.625 6.59375 
Q 46.09375 6.59375 50.34375 11.734375 
Q 54.59375 16.890625 54.59375 28.609375 
L 54.59375 72.90625 
L 64.5 72.90625 
L 64.5 27.390625 
Q 64.5 13.140625 57.4375 5.859375 
Q 50.390625 -1.421875 36.625 -1.421875 
Q 22.796875 -1.421875 15.734375 5.859375 
Q 8.6875 13.140625 8.6875 27.390625 
z
" id="DejaVuSans-85"/>
     <path d="M 31 75.875 
Q 24.46875 64.65625 21.28125 53.65625 
Q 18.109375 42.671875 18.109375 31.390625 
Q 18.109375 20.125 21.3125 9.0625 
Q 24.515625 -2 31 -13.1875 
L 23.1875 -13.1875 
Q 15.875 -1.703125 12.234375 9.375 
Q 8.59375 20.453125 8.59375 31.390625 
Q 8.59375 42.28125 12.203125 53.3125 
Q 15.828125 64.359375 23.1875 75.875 
z
" id="DejaVuSans-40"/>
     <path d="M 8.015625 75.875 
L 15.828125 75.875 
Q 23.140625 64.359375 26.78125 53.3125 
Q 30.421875 42.28125 30.421875 31.390625 
Q 30.421875 20.453125 26.78125 9.375 
Q 23.140625 -1.703125 15.828125 -13.1875 
L 8.015625 -13.1875 
Q 14.5 -2 17.703125 9.0625 
Q 20.90625 20.125 20.90625 31.390625 
Q 20.90625 42.671875 17.703125 53.65625 
Q 14.5 64.65625 8.015625 75.875 
z
" id="DejaVuSans-41"/>
    </defs>
    <g transform="translate(361.8625 36.276562)scale(0.1 -0.1)">
     <use xlink:href="#DejaVuSans-65"/>
     <use x="68.408203" xlink:href="#DejaVuSans-85"/>
     <use x="141.601562" xlink:href="#DejaVuSans-83"/>
     <use x="205.078125" xlink:href="#DejaVuSans-32"/>
     <use x="236.865234" xlink:href="#DejaVuSans-40"/>
     <use x="275.878906" xlink:href="#DejaVuSans-52"/>
     <use x="339.501953" xlink:href="#DejaVuSans-48"/>
     <use x="403.125" xlink:href="#DejaVuSans-41"/>
    </g>
   </g>
   <g id="line2d_55">
    <path d="M 333.8625 47.454688 
L 353.8625 47.454688 
" style="fill:none;stroke:#d95f02;stroke-linecap:square;stroke-width:1.5;"/>
   </g>
   <g id="line2d_56"/>
   <g id="text_24">
    <!-- COML (40) -->
    <defs>
     <path d="M 64.40625 67.28125 
L 64.40625 56.890625 
Q 59.421875 61.53125 53.78125 63.8125 
Q 48.140625 66.109375 41.796875 66.109375 
Q 29.296875 66.109375 22.65625 58.46875 
Q 16.015625 50.828125 16.015625 36.375 
Q 16.015625 21.96875 22.65625 14.328125 
Q 29.296875 6.6875 41.796875 6.6875 
Q 48.140625 6.6875 53.78125 8.984375 
Q 59.421875 11.28125 64.40625 15.921875 
L 64.40625 5.609375 
Q 59.234375 2.09375 53.4375 0.328125 
Q 47.65625 -1.421875 41.21875 -1.421875 
Q 24.65625 -1.421875 15.125 8.703125 
Q 5.609375 18.84375 5.609375 36.375 
Q 5.609375 53.953125 15.125 64.078125 
Q 24.65625 74.21875 41.21875 74.21875 
Q 47.75 74.21875 53.53125 72.484375 
Q 59.328125 70.75 64.40625 67.28125 
z
" id="DejaVuSans-67"/>
     <path d="M 39.40625 66.21875 
Q 28.65625 66.21875 22.328125 58.203125 
Q 16.015625 50.203125 16.015625 36.375 
Q 16.015625 22.609375 22.328125 14.59375 
Q 28.65625 6.59375 39.40625 6.59375 
Q 50.140625 6.59375 56.421875 14.59375 
Q 62.703125 22.609375 62.703125 36.375 
Q 62.703125 50.203125 56.421875 58.203125 
Q 50.140625 66.21875 39.40625 66.21875 
z
M 39.40625 74.21875 
Q 54.734375 74.21875 63.90625 63.9375 
Q 73.09375 53.65625 73.09375 36.375 
Q 73.09375 19.140625 63.90625 8.859375 
Q 54.734375 -1.421875 39.40625 -1.421875 
Q 24.03125 -1.421875 14.8125 8.828125 
Q 5.609375 19.09375 5.609375 36.375 
Q 5.609375 53.65625 14.8125 63.9375 
Q 24.03125 74.21875 39.40625 74.21875 
z
" id="DejaVuSans-79"/>
     <path d="M 9.8125 72.90625 
L 24.515625 72.90625 
L 43.109375 23.296875 
L 61.8125 72.90625 
L 76.515625 72.90625 
L 76.515625 0 
L 66.890625 0 
L 66.890625 64.015625 
L 48.09375 14.015625 
L 38.1875 14.015625 
L 19.390625 64.015625 
L 19.390625 0 
L 9.8125 0 
z
" id="DejaVuSans-77"/>
     <path d="M 9.8125 72.90625 
L 19.671875 72.90625 
L 19.671875 8.296875 
L 55.171875 8.296875 
L 55.171875 0 
L 9.8125 0 
z
" id="DejaVuSans-76"/>
    </defs>
    <g transform="translate(361.8625 50.954688)scale(0.1 -0.1)">
     <use xlink:href="#DejaVuSans-67"/>
     <use x="69.824219" xlink:href="#DejaVuSans-79"/>
     <use x="148.535156" xlink:href="#DejaVuSans-77"/>
     <use x="234.814453" xlink:href="#DejaVuSans-76"/>
     <use x="290.527344" xlink:href="#DejaVuSans-32"/>
     <use x="322.314453" xlink:href="#DejaVuSans-40"/>
     <use x="361.328125" xlink:href="#DejaVuSans-52"/>
     <use x="424.951172" xlink:href="#DejaVuSans-48"/>
     <use x="488.574219" xlink:href="#DejaVuSans-41"/>
    </g>
   </g>
   <g id="line2d_57">
    <path d="M 333.8625 62.132812 
L 353.8625 62.132812 
" style="fill:none;stroke:#7570b3;stroke-linecap:square;stroke-width:1.5;"/>
   </g>
   <g id="line2d_58"/>
   <g id="text_25">
    <!-- GDD (40) -->
    <defs>
     <path d="M 59.515625 10.40625 
L 59.515625 29.984375 
L 43.40625 29.984375 
L 43.40625 38.09375 
L 69.28125 38.09375 
L 69.28125 6.78125 
Q 63.578125 2.734375 56.6875 0.65625 
Q 49.8125 -1.421875 42 -1.421875 
Q 24.90625 -1.421875 15.25 8.5625 
Q 5.609375 18.5625 5.609375 36.375 
Q 5.609375 54.25 15.25 64.234375 
Q 24.90625 74.21875 42 74.21875 
Q 49.125 74.21875 55.546875 72.453125 
Q 61.96875 70.703125 67.390625 67.28125 
L 67.390625 56.78125 
Q 61.921875 61.421875 55.765625 63.765625 
Q 49.609375 66.109375 42.828125 66.109375 
Q 29.4375 66.109375 22.71875 58.640625 
Q 16.015625 51.171875 16.015625 36.375 
Q 16.015625 21.625 22.71875 14.15625 
Q 29.4375 6.6875 42.828125 6.6875 
Q 48.046875 6.6875 52.140625 7.59375 
Q 56.25 8.5 59.515625 10.40625 
z
" id="DejaVuSans-71"/>
    </defs>
    <g transform="translate(361.8625 65.632812)scale(0.1 -0.1)">
     <use xlink:href="#DejaVuSans-71"/>
     <use x="77.490234" xlink:href="#DejaVuSans-68"/>
     <use x="154.492188" xlink:href="#DejaVuSans-68"/>
     <use x="231.494141" xlink:href="#DejaVuSans-32"/>
     <use x="263.28125" xlink:href="#DejaVuSans-40"/>
     <use x="302.294922" xlink:href="#DejaVuSans-52"/>
     <use x="365.917969" xlink:href="#DejaVuSans-48"/>
     <use x="429.541016" xlink:href="#DejaVuSans-41"/>
    </g>
   </g>
   <g id="line2d_59">
    <path d="M 333.8625 76.810937 
L 353.8625 76.810937 
" style="fill:none;stroke:#e7298a;stroke-linecap:square;stroke-width:1.5;"/>
   </g>
   <g id="line2d_60"/>
   <g id="text_26">
    <!-- AS (38) -->
    <g transform="translate(361.8625 80.310937)scale(0.1 -0.1)">
     <use xlink:href="#DejaVuSans-65"/>
     <use x="68.408203" xlink:href="#DejaVuSans-83"/>
     <use x="131.884766" xlink:href="#DejaVuSans-32"/>
     <use x="163.671875" xlink:href="#DejaVuSans-40"/>
     <use x="202.685547" xlink:href="#DejaVuSans-51"/>
     <use x="266.308594" xlink:href="#DejaVuSans-56"/>
     <use x="329.931641" xlink:href="#DejaVuSans-41"/>
    </g>
   </g>
   <g id="line2d_61">
    <path d="M 333.8625 91.489062 
L 353.8625 91.489062 
" style="fill:none;stroke:#66a61e;stroke-linecap:square;stroke-width:1.5;"/>
   </g>
   <g id="line2d_62"/>
   <g id="text_27">
    <!-- MD (38) -->
    <g transform="translate(361.8625 94.989062)scale(0.1 -0.1)">
     <use xlink:href="#DejaVuSans-77"/>
     <use x="86.279297" xlink:href="#DejaVuSans-68"/>
     <use x="163.28125" xlink:href="#DejaVuSans-32"/>
     <use x="195.068359" xlink:href="#DejaVuSans-40"/>
     <use x="234.082031" xlink:href="#DejaVuSans-51"/>
     <use x="297.705078" xlink:href="#DejaVuSans-56"/>
     <use x="361.328125" xlink:href="#DejaVuSans-41"/>
    </g>
   </g>
   <g id="line2d_63">
    <path d="M 333.8625 106.167188 
L 353.8625 106.167188 
" style="fill:none;stroke:#e6ab02;stroke-linecap:square;stroke-width:1.5;"/>
   </g>
   <g id="line2d_64"/>
   <g id="text_28">
    <!-- HPI (38) -->
    <defs>
     <path d="M 9.8125 72.90625 
L 19.671875 72.90625 
L 19.671875 43.015625 
L 55.515625 43.015625 
L 55.515625 72.90625 
L 65.375 72.90625 
L 65.375 0 
L 55.515625 0 
L 55.515625 34.71875 
L 19.671875 34.71875 
L 19.671875 0 
L 9.8125 0 
z
" id="DejaVuSans-72"/>
     <path d="M 19.671875 64.796875 
L 19.671875 37.40625 
L 32.078125 37.40625 
Q 38.96875 37.40625 42.71875 40.96875 
Q 46.484375 44.53125 46.484375 51.125 
Q 46.484375 57.671875 42.71875 61.234375 
Q 38.96875 64.796875 32.078125 64.796875 
z
M 9.8125 72.90625 
L 32.078125 72.90625 
Q 44.34375 72.90625 50.609375 67.359375 
Q 56.890625 61.8125 56.890625 51.125 
Q 56.890625 40.328125 50.609375 34.8125 
Q 44.34375 29.296875 32.078125 29.296875 
L 19.671875 29.296875 
L 19.671875 0 
L 9.8125 0 
z
" id="DejaVuSans-80"/>
     <path d="M 9.8125 72.90625 
L 19.671875 72.90625 
L 19.671875 0 
L 9.8125 0 
z
" id="DejaVuSans-73"/>
    </defs>
    <g transform="translate(361.8625 109.667188)scale(0.1 -0.1)">
     <use xlink:href="#DejaVuSans-72"/>
     <use x="75.195312" xlink:href="#DejaVuSans-80"/>
     <use x="135.498047" xlink:href="#DejaVuSans-73"/>
     <use x="164.990234" xlink:href="#DejaVuSans-32"/>
     <use x="196.777344" xlink:href="#DejaVuSans-40"/>
     <use x="235.791016" xlink:href="#DejaVuSans-51"/>
     <use x="299.414062" xlink:href="#DejaVuSans-56"/>
     <use x="363.037109" xlink:href="#DejaVuSans-41"/>
    </g>
   </g>
   <g id="line2d_65">
    <path d="M 333.8625 120.845312 
L 353.8625 120.845312 
" style="fill:none;stroke:#a6761d;stroke-linecap:square;stroke-width:1.5;"/>
   </g>
   <g id="line2d_66"/>
   <g id="text_29">
    <!-- SA (37) -->
    <g transform="translate(361.8625 124.345312)scale(0.1 -0.1)">
     <use xlink:href="#DejaVuSans-83"/>
     <use x="63.492188" xlink:href="#DejaVuSans-65"/>
     <use x="131.900391" xlink:href="#DejaVuSans-32"/>
     <use x="163.6875" xlink:href="#DejaVuSans-40"/>
     <use x="202.701172" xlink:href="#DejaVuSans-51"/>
     <use x="266.324219" xlink:href="#DejaVuSans-55"/>
     <use x="329.947266" xlink:href="#DejaVuSans-41"/>
    </g>
   </g>
   <g id="line2d_67">
    <path d="M 333.8625 135.523438 
L 353.8625 135.523438 
" style="fill:none;stroke:#666666;stroke-linecap:square;stroke-width:1.5;"/>
   </g>
   <g id="line2d_68"/>
   <g id="text_30">
    <!-- FIT (29) -->
    <defs>
     <path d="M 9.8125 72.90625 
L 51.703125 72.90625 
L 51.703125 64.59375 
L 19.671875 64.59375 
L 19.671875 43.109375 
L 48.578125 43.109375 
L 48.578125 34.8125 
L 19.671875 34.8125 
L 19.671875 0 
L 9.8125 0 
z
" id="DejaVuSans-70"/>
     <path d="M -0.296875 72.90625 
L 61.375 72.90625 
L 61.375 64.59375 
L 35.5 64.59375 
L 35.5 0 
L 25.59375 0 
L 25.59375 64.59375 
L -0.296875 64.59375 
z
" id="DejaVuSans-84"/>
    </defs>
    <g transform="translate(361.8625 139.023438)scale(0.1 -0.1)">
     <use xlink:href="#DejaVuSans-70"/>
     <use x="57.519531" xlink:href="#DejaVuSans-73"/>
     <use x="87.011719" xlink:href="#DejaVuSans-84"/>
     <use x="148.095703" xlink:href="#DejaVuSans-32"/>
     <use x="179.882812" xlink:href="#DejaVuSans-40"/>
     <use x="218.896484" xlink:href="#DejaVuSans-50"/>
     <use x="282.519531" xlink:href="#DejaVuSans-57"/>
     <use x="346.142578" xlink:href="#DejaVuSans-41"/>
    </g>
   </g>
   <g id="line2d_69">
    <path d="M 333.8625 150.201562 
L 353.8625 150.201562 
" style="fill:none;stroke:#1b9e77;stroke-dasharray:4.5,1.5;stroke-dashoffset:0;stroke-width:1.5;"/>
   </g>
   <g id="line2d_70"/>
   <g id="text_31">
    <!-- TBI (27) -->
    <defs>
     <path d="M 19.671875 34.8125 
L 19.671875 8.109375 
L 35.5 8.109375 
Q 43.453125 8.109375 47.28125 11.40625 
Q 51.125 14.703125 51.125 21.484375 
Q 51.125 28.328125 47.28125 31.5625 
Q 43.453125 34.8125 35.5 34.8125 
z
M 19.671875 64.796875 
L 19.671875 42.828125 
L 34.28125 42.828125 
Q 41.5 42.828125 45.03125 45.53125 
Q 48.578125 48.25 48.578125 53.8125 
Q 48.578125 59.328125 45.03125 62.0625 
Q 41.5 64.796875 34.28125 64.796875 
z
M 9.8125 72.90625 
L 35.015625 72.90625 
Q 46.296875 72.90625 52.390625 68.21875 
Q 58.5 63.53125 58.5 54.890625 
Q 58.5 48.1875 55.375 44.234375 
Q 52.25 40.28125 46.1875 39.3125 
Q 53.46875 37.75 57.5 32.78125 
Q 61.53125 27.828125 61.53125 20.40625 
Q 61.53125 10.640625 54.890625 5.3125 
Q 48.25 0 35.984375 0 
L 9.8125 0 
z
" id="DejaVuSans-66"/>
    </defs>
    <g transform="translate(361.8625 153.701562)scale(0.1 -0.1)">
     <use xlink:href="#DejaVuSans-84"/>
     <use x="61.083984" xlink:href="#DejaVuSans-66"/>
     <use x="129.6875" xlink:href="#DejaVuSans-73"/>
     <use x="159.179688" xlink:href="#DejaVuSans-32"/>
     <use x="190.966797" xlink:href="#DejaVuSans-40"/>
     <use x="229.980469" xlink:href="#DejaVuSans-50"/>
     <use x="293.603516" xlink:href="#DejaVuSans-55"/>
     <use x="357.226562" xlink:href="#DejaVuSans-41"/>
    </g>
   </g>
   <g id="line2d_71">
    <path d="M 333.8625 164.879687 
L 353.8625 164.879687 
" style="fill:none;stroke:#d95f02;stroke-dasharray:4.5,1.5;stroke-dashoffset:0;stroke-width:1.5;"/>
   </g>
   <g id="line2d_72"/>
   <g id="text_32">
    <!-- BP (26) -->
    <g transform="translate(361.8625 168.379687)scale(0.1 -0.1)">
     <use xlink:href="#DejaVuSans-66"/>
     <use x="68.603516" xlink:href="#DejaVuSans-80"/>
     <use x="128.90625" xlink:href="#DejaVuSans-32"/>
     <use x="160.693359" xlink:href="#DejaVuSans-40"/>
     <use x="199.707031" xlink:href="#DejaVuSans-50"/>
     <use x="263.330078" xlink:href="#DejaVuSans-54"/>
     <use x="326.953125" xlink:href="#DejaVuSans-41"/>
    </g>
   </g>
   <g id="line2d_73">
    <path d="M 333.8625 179.557812 
L 353.8625 179.557812 
" style="fill:none;stroke:#7570b3;stroke-dasharray:4.5,1.5;stroke-dashoffset:0;stroke-width:1.5;"/>
   </g>
   <g id="line2d_74"/>
   <g id="text_33">
    <!-- SPD (25) -->
    <g transform="translate(361.8625 183.057812)scale(0.1 -0.1)">
     <use xlink:href="#DejaVuSans-83"/>
     <use x="63.476562" xlink:href="#DejaVuSans-80"/>
     <use x="123.779297" xlink:href="#DejaVuSans-68"/>
     <use x="200.78125" xlink:href="#DejaVuSans-32"/>
     <use x="232.568359" xlink:href="#DejaVuSans-40"/>
     <use x="271.582031" xlink:href="#DejaVuSans-50"/>
     <use x="335.205078" xlink:href="#DejaVuSans-53"/>
     <use x="398.828125" xlink:href="#DejaVuSans-41"/>
    </g>
   </g>
   <g id="line2d_75">
    <path d="M 333.8625 194.235937 
L 353.8625 194.235937 
" style="fill:none;stroke:#e7298a;stroke-dasharray:4.5,1.5;stroke-dashoffset:0;stroke-width:1.5;"/>
   </g>
   <g id="line2d_76"/>
   <g id="text_34">
    <!-- CC (25) -->
    <g transform="translate(361.8625 197.735937)scale(0.1 -0.1)">
     <use xlink:href="#DejaVuSans-67"/>
     <use x="69.824219" xlink:href="#DejaVuSans-67"/>
     <use x="139.648438" xlink:href="#DejaVuSans-32"/>
     <use x="171.435547" xlink:href="#DejaVuSans-40"/>
     <use x="210.449219" xlink:href="#DejaVuSans-50"/>
     <use x="274.072266" xlink:href="#DejaVuSans-53"/>
     <use x="337.695312" xlink:href="#DejaVuSans-41"/>
    </g>
   </g>
   <g id="line2d_77">
    <path d="M 333.8625 208.914062 
L 353.8625 208.914062 
" style="fill:none;stroke:#66a61e;stroke-dasharray:4.5,1.5;stroke-dashoffset:0;stroke-width:1.5;"/>
   </g>
   <g id="line2d_78"/>
   <g id="text_35">
    <!-- RJPH (20) -->
    <defs>
     <path d="M 9.8125 72.90625 
L 19.671875 72.90625 
L 19.671875 5.078125 
Q 19.671875 -8.109375 14.671875 -14.0625 
Q 9.671875 -20.015625 -1.421875 -20.015625 
L -5.171875 -20.015625 
L -5.171875 -11.71875 
L -2.09375 -11.71875 
Q 4.4375 -11.71875 7.125 -8.046875 
Q 9.8125 -4.390625 9.8125 5.078125 
z
" id="DejaVuSans-74"/>
    </defs>
    <g transform="translate(361.8625 212.414062)scale(0.1 -0.1)">
     <use xlink:href="#DejaVuSans-82"/>
     <use x="69.482422" xlink:href="#DejaVuSans-74"/>
     <use x="98.974609" xlink:href="#DejaVuSans-80"/>
     <use x="159.277344" xlink:href="#DejaVuSans-72"/>
     <use x="234.472656" xlink:href="#DejaVuSans-32"/>
     <use x="266.259766" xlink:href="#DejaVuSans-40"/>
     <use x="305.273438" xlink:href="#DejaVuSans-50"/>
     <use x="368.896484" xlink:href="#DejaVuSans-48"/>
     <use x="432.519531" xlink:href="#DejaVuSans-41"/>
    </g>
   </g>
   <g id="line2d_79">
    <path d="M 333.8625 223.592187 
L 353.8625 223.592187 
" style="fill:none;stroke:#e6ab02;stroke-dasharray:4.5,1.5;stroke-dashoffset:0;stroke-width:1.5;"/>
   </g>
   <g id="line2d_80"/>
   <g id="text_36">
    <!-- AHR-H (20) -->
    <g transform="translate(361.8625 227.092187)scale(0.1 -0.1)">
     <use xlink:href="#DejaVuSans-65"/>
     <use x="68.408203" xlink:href="#DejaVuSans-72"/>
     <use x="143.603516" xlink:href="#DejaVuSans-82"/>
     <use x="213.023438" xlink:href="#DejaVuSans-45"/>
     <use x="249.107422" xlink:href="#DejaVuSans-72"/>
     <use x="324.302734" xlink:href="#DejaVuSans-32"/>
     <use x="356.089844" xlink:href="#DejaVuSans-40"/>
     <use x="395.103516" xlink:href="#DejaVuSans-50"/>
     <use x="458.726562" xlink:href="#DejaVuSans-48"/>
     <use x="522.349609" xlink:href="#DejaVuSans-41"/>
    </g>
   </g>
   <g id="line2d_81">
    <path d="M 333.8625 238.270312 
L 353.8625 238.270312 
" style="fill:none;stroke:#a6761d;stroke-dasharray:4.5,1.5;stroke-dashoffset:0;stroke-width:1.5;"/>
   </g>
   <g id="line2d_82"/>
   <g id="text_37">
    <!-- CB (20) -->
    <g transform="translate(361.8625 241.770312)scale(0.1 -0.1)">
     <use xlink:href="#DejaVuSans-67"/>
     <use x="69.824219" xlink:href="#DejaVuSans-66"/>
     <use x="138.427734" xlink:href="#DejaVuSans-32"/>
     <use x="170.214844" xlink:href="#DejaVuSans-40"/>
     <use x="209.228516" xlink:href="#DejaVuSans-50"/>
     <use x="272.851562" xlink:href="#DejaVuSans-48"/>
     <use x="336.474609" xlink:href="#DejaVuSans-41"/>
    </g>
   </g>
   <g id="line2d_83">
    <path d="M 333.8625 252.948437 
L 353.8625 252.948437 
" style="fill:none;stroke:#666666;stroke-dasharray:4.5,1.5;stroke-dashoffset:0;stroke-width:1.5;"/>
   </g>
   <g id="line2d_84"/>
   <g id="text_38">
    <!-- AHR-A (15) -->
    <g transform="translate(361.8625 256.448437)scale(0.1 -0.1)">
     <use xlink:href="#DejaVuSans-65"/>
     <use x="68.408203" xlink:href="#DejaVuSans-72"/>
     <use x="143.603516" xlink:href="#DejaVuSans-82"/>
     <use x="213.023438" xlink:href="#DejaVuSans-45"/>
     <use x="249.076172" xlink:href="#DejaVuSans-65"/>
     <use x="317.484375" xlink:href="#DejaVuSans-32"/>
     <use x="349.271484" xlink:href="#DejaVuSans-40"/>
     <use x="388.285156" xlink:href="#DejaVuSans-49"/>
     <use x="451.908203" xlink:href="#DejaVuSans-53"/>
     <use x="515.53125" xlink:href="#DejaVuSans-41"/>
    </g>
   </g>
  </g>
 </g>
 <defs>
  <clipPath id="p22f32ad125">
   <rect height="207.330771" width="271.81" x="43.55" y="12.9"/>
  </clipPath>
 </defs>
</svg>
