<?xml version="1.0" encoding="utf-8" standalone="no"?>
<!DOCTYPE svg PUBLIC "-//W3C//DTD SVG 1.1//EN"
  "http://www.w3.org/Graphics/SVG/1.1/DTD/svg11.dtd">
<!-- Created with matplotlib (https://matplotlib.org/) -->
<svg height="288pt" version="1.1" viewBox="0 0 432 288" width="432pt" xmlns="http://www.w3.org/2000/svg" xmlns:xlink="http://www.w3.org/1999/xlink">
 <defs>
  <style type="text/css">
*{stroke-linecap:butt;stroke-linejoin:round;}
  </style>
 </defs>
 <g id="figure_1">
  <g id="patch_1">
   <path d="M 0 288 
L 432 288 
L 432 0 
L 0 0 
z
" style="fill:#ffffff;"/>
  </g>
  <g id="axes_1">
   <g id="patch_2">
    <path d="M 43.55 220.230771 
L 315.36 220.230771 
L 315.36 12.9 
L 43.55 12.9 
z
" style="fill:#ffffff;"/>
   </g>
   <g id="matplotlib.axis_1">
    <g id="xtick_1">
     <g id="line2d_1">
      <defs>
       <path d="M 0 0 
L 0 3.5 
" id="m6fa75eba64" style="stroke:#000000;stroke-width:0.8;"/>
      </defs>
      <g>
       <use style="stroke:#000000;stroke-width:0.8;" x="45.987535" xlink:href="#m6fa75eba64" y="220.230771"/>
      </g>
     </g>
     <g id="text_1">
      <!-- 2020-11-29 -->
      <defs>
       <path d="M 19.1875 8.296875 
L 53.609375 8.296875 
L 53.609375 0 
L 7.328125 0 
L 7.328125 8.296875 
Q 12.9375 14.109375 22.625 23.890625 
Q 32.328125 33.6875 34.8125 36.53125 
Q 39.546875 41.84375 41.421875 45.53125 
Q 43.3125 49.21875 43.3125 52.78125 
Q 43.3125 58.59375 39.234375 62.25 
Q 35.15625 65.921875 28.609375 65.921875 
Q 23.96875 65.921875 18.8125 64.3125 
Q 13.671875 62.703125 7.8125 59.421875 
L 7.8125 69.390625 
Q 13.765625 71.78125 18.9375 73 
Q 24.125 74.21875 28.421875 74.21875 
Q 39.75 74.21875 46.484375 68.546875 
Q 53.21875 62.890625 53.21875 53.421875 
Q 53.21875 48.921875 51.53125 44.890625 
Q 49.859375 40.875 45.40625 35.40625 
Q 44.1875 33.984375 37.640625 27.21875 
Q 31.109375 20.453125 19.1875 8.296875 
z
" id="DejaVuSans-50"/>
       <path d="M 31.78125 66.40625 
Q 24.171875 66.40625 20.328125 58.90625 
Q 16.5 51.421875 16.5 36.375 
Q 16.5 21.390625 20.328125 13.890625 
Q 24.171875 6.390625 31.78125 6.390625 
Q 39.453125 6.390625 43.28125 13.890625 
Q 47.125 21.390625 47.125 36.375 
Q 47.125 51.421875 43.28125 58.90625 
Q 39.453125 66.40625 31.78125 66.40625 
z
M 31.78125 74.21875 
Q 44.046875 74.21875 50.515625 64.515625 
Q 56.984375 54.828125 56.984375 36.375 
Q 56.984375 17.96875 50.515625 8.265625 
Q 44.046875 -1.421875 31.78125 -1.421875 
Q 19.53125 -1.421875 13.0625 8.265625 
Q 6.59375 17.96875 6.59375 36.375 
Q 6.59375 54.828125 13.0625 64.515625 
Q 19.53125 74.21875 31.78125 74.21875 
z
" id="DejaVuSans-48"/>
       <path d="M 4.890625 31.390625 
L 31.203125 31.390625 
L 31.203125 23.390625 
L 4.890625 23.390625 
z
" id="DejaVuSans-45"/>
       <path d="M 12.40625 8.296875 
L 28.515625 8.296875 
L 28.515625 63.921875 
L 10.984375 60.40625 
L 10.984375 69.390625 
L 28.421875 72.90625 
L 38.28125 72.90625 
L 38.28125 8.296875 
L 54.390625 8.296875 
L 54.390625 0 
L 12.40625 0 
z
" id="DejaVuSans-49"/>
       <path d="M 10.984375 1.515625 
L 10.984375 10.5 
Q 14.703125 8.734375 18.5 7.8125 
Q 22.3125 6.890625 25.984375 6.890625 
Q 35.75 6.890625 40.890625 13.453125 
Q 46.046875 20.015625 46.78125 33.40625 
Q 43.953125 29.203125 39.59375 26.953125 
Q 35.25 24.703125 29.984375 24.703125 
Q 19.046875 24.703125 12.671875 31.3125 
Q 6.296875 37.9375 6.296875 49.421875 
Q 6.296875 60.640625 12.9375 67.421875 
Q 19.578125 74.21875 30.609375 74.21875 
Q 43.265625 74.21875 49.921875 64.515625 
Q 56.59375 54.828125 56.59375 36.375 
Q 56.59375 19.140625 48.40625 8.859375 
Q 40.234375 -1.421875 26.421875 -1.421875 
Q 22.703125 -1.421875 18.890625 -0.6875 
Q 15.09375 0.046875 10.984375 1.515625 
z
M 30.609375 32.421875 
Q 37.25 32.421875 41.125 36.953125 
Q 45.015625 41.5 45.015625 49.421875 
Q 45.015625 57.28125 41.125 61.84375 
Q 37.25 66.40625 30.609375 66.40625 
Q 23.96875 66.40625 20.09375 61.84375 
Q 16.21875 57.28125 16.21875 49.421875 
Q 16.21875 41.5 20.09375 36.953125 
Q 23.96875 32.421875 30.609375 32.421875 
z
" id="DejaVuSans-57"/>
      </defs>
      <g transform="translate(22.202419 262.869024)rotate(-30)scale(0.1 -0.1)">
       <use xlink:href="#DejaVuSans-50"/>
       <use x="63.623047" xlink:href="#DejaVuSans-48"/>
       <use x="127.246094" xlink:href="#DejaVuSans-50"/>
       <use x="190.869141" xlink:href="#DejaVuSans-48"/>
       <use x="254.492188" xlink:href="#DejaVuSans-45"/>
       <use x="290.576172" xlink:href="#DejaVuSans-49"/>
       <use x="354.199219" xlink:href="#DejaVuSans-49"/>
       <use x="417.822266" xlink:href="#DejaVuSans-45"/>
       <use x="453.90625" xlink:href="#DejaVuSans-50"/>
       <use x="517.529297" xlink:href="#DejaVuSans-57"/>
      </g>
     </g>
    </g>
    <g id="xtick_2">
     <g id="line2d_2">
      <g>
       <use style="stroke:#000000;stroke-width:0.8;" x="59.683691" xlink:href="#m6fa75eba64" y="220.230771"/>
      </g>
     </g>
     <g id="text_2">
      <!-- 2020-12-01 -->
      <g transform="translate(35.898575 262.869024)rotate(-30)scale(0.1 -0.1)">
       <use xlink:href="#DejaVuSans-50"/>
       <use x="63.623047" xlink:href="#DejaVuSans-48"/>
       <use x="127.246094" xlink:href="#DejaVuSans-50"/>
       <use x="190.869141" xlink:href="#DejaVuSans-48"/>
       <use x="254.492188" xlink:href="#DejaVuSans-45"/>
       <use x="290.576172" xlink:href="#DejaVuSans-49"/>
       <use x="354.199219" xlink:href="#DejaVuSans-50"/>
       <use x="417.822266" xlink:href="#DejaVuSans-45"/>
       <use x="453.90625" xlink:href="#DejaVuSans-48"/>
       <use x="517.529297" xlink:href="#DejaVuSans-49"/>
      </g>
     </g>
    </g>
    <g id="xtick_3">
     <g id="line2d_3">
      <g>
       <use style="stroke:#000000;stroke-width:0.8;" x="87.076003" xlink:href="#m6fa75eba64" y="220.230771"/>
      </g>
     </g>
     <g id="text_3">
      <!-- 2020-12-05 -->
      <defs>
       <path d="M 10.796875 72.90625 
L 49.515625 72.90625 
L 49.515625 64.59375 
L 19.828125 64.59375 
L 19.828125 46.734375 
Q 21.96875 47.46875 24.109375 47.828125 
Q 26.265625 48.1875 28.421875 48.1875 
Q 40.625 48.1875 47.75 41.5 
Q 54.890625 34.8125 54.890625 23.390625 
Q 54.890625 11.625 47.5625 5.09375 
Q 40.234375 -1.421875 26.90625 -1.421875 
Q 22.3125 -1.421875 17.546875 -0.640625 
Q 12.796875 0.140625 7.71875 1.703125 
L 7.71875 11.625 
Q 12.109375 9.234375 16.796875 8.0625 
Q 21.484375 6.890625 26.703125 6.890625 
Q 35.15625 6.890625 40.078125 11.328125 
Q 45.015625 15.765625 45.015625 23.390625 
Q 45.015625 31 40.078125 35.4375 
Q 35.15625 39.890625 26.703125 39.890625 
Q 22.75 39.890625 18.8125 39.015625 
Q 14.890625 38.140625 10.796875 36.28125 
z
" id="DejaVuSans-53"/>
      </defs>
      <g transform="translate(63.290886 262.869024)rotate(-30)scale(0.1 -0.1)">
       <use xlink:href="#DejaVuSans-50"/>
       <use x="63.623047" xlink:href="#DejaVuSans-48"/>
       <use x="127.246094" xlink:href="#DejaVuSans-50"/>
       <use x="190.869141" xlink:href="#DejaVuSans-48"/>
       <use x="254.492188" xlink:href="#DejaVuSans-45"/>
       <use x="290.576172" xlink:href="#DejaVuSans-49"/>
       <use x="354.199219" xlink:href="#DejaVuSans-50"/>
       <use x="417.822266" xlink:href="#DejaVuSans-45"/>
       <use x="453.90625" xlink:href="#DejaVuSans-48"/>
       <use x="517.529297" xlink:href="#DejaVuSans-53"/>
      </g>
     </g>
    </g>
    <g id="xtick_4">
     <g id="line2d_4">
      <g>
       <use style="stroke:#000000;stroke-width:0.8;" x="114.468315" xlink:href="#m6fa75eba64" y="220.230771"/>
      </g>
     </g>
     <g id="text_4">
      <!-- 2020-12-09 -->
      <g transform="translate(90.683198 262.869024)rotate(-30)scale(0.1 -0.1)">
       <use xlink:href="#DejaVuSans-50"/>
       <use x="63.623047" xlink:href="#DejaVuSans-48"/>
       <use x="127.246094" xlink:href="#DejaVuSans-50"/>
       <use x="190.869141" xlink:href="#DejaVuSans-48"/>
       <use x="254.492188" xlink:href="#DejaVuSans-45"/>
       <use x="290.576172" xlink:href="#DejaVuSans-49"/>
       <use x="354.199219" xlink:href="#DejaVuSans-50"/>
       <use x="417.822266" xlink:href="#DejaVuSans-45"/>
       <use x="453.90625" xlink:href="#DejaVuSans-48"/>
       <use x="517.529297" xlink:href="#DejaVuSans-57"/>
      </g>
     </g>
    </g>
    <g id="xtick_5">
     <g id="line2d_5">
      <g>
       <use style="stroke:#000000;stroke-width:0.8;" x="141.860626" xlink:href="#m6fa75eba64" y="220.230771"/>
      </g>
     </g>
     <g id="text_5">
      <!-- 2020-12-13 -->
      <defs>
       <path d="M 40.578125 39.3125 
Q 47.65625 37.796875 51.625 33 
Q 55.609375 28.21875 55.609375 21.1875 
Q 55.609375 10.40625 48.1875 4.484375 
Q 40.765625 -1.421875 27.09375 -1.421875 
Q 22.515625 -1.421875 17.65625 -0.515625 
Q 12.796875 0.390625 7.625 2.203125 
L 7.625 11.71875 
Q 11.71875 9.328125 16.59375 8.109375 
Q 21.484375 6.890625 26.8125 6.890625 
Q 36.078125 6.890625 40.9375 10.546875 
Q 45.796875 14.203125 45.796875 21.1875 
Q 45.796875 27.640625 41.28125 31.265625 
Q 36.765625 34.90625 28.71875 34.90625 
L 20.21875 34.90625 
L 20.21875 43.015625 
L 29.109375 43.015625 
Q 36.375 43.015625 40.234375 45.921875 
Q 44.09375 48.828125 44.09375 54.296875 
Q 44.09375 59.90625 40.109375 62.90625 
Q 36.140625 65.921875 28.71875 65.921875 
Q 24.65625 65.921875 20.015625 65.03125 
Q 15.375 64.15625 9.8125 62.3125 
L 9.8125 71.09375 
Q 15.4375 72.65625 20.34375 73.4375 
Q 25.25 74.21875 29.59375 74.21875 
Q 40.828125 74.21875 47.359375 69.109375 
Q 53.90625 64.015625 53.90625 55.328125 
Q 53.90625 49.265625 50.4375 45.09375 
Q 46.96875 40.921875 40.578125 39.3125 
z
" id="DejaVuSans-51"/>
      </defs>
      <g transform="translate(118.07551 262.869024)rotate(-30)scale(0.1 -0.1)">
       <use xlink:href="#DejaVuSans-50"/>
       <use x="63.623047" xlink:href="#DejaVuSans-48"/>
       <use x="127.246094" xlink:href="#DejaVuSans-50"/>
       <use x="190.869141" xlink:href="#DejaVuSans-48"/>
       <use x="254.492188" xlink:href="#DejaVuSans-45"/>
       <use x="290.576172" xlink:href="#DejaVuSans-49"/>
       <use x="354.199219" xlink:href="#DejaVuSans-50"/>
       <use x="417.822266" xlink:href="#DejaVuSans-45"/>
       <use x="453.90625" xlink:href="#DejaVuSans-49"/>
       <use x="517.529297" xlink:href="#DejaVuSans-51"/>
      </g>
     </g>
    </g>
    <g id="xtick_6">
     <g id="line2d_6">
      <g>
       <use style="stroke:#000000;stroke-width:0.8;" x="169.252938" xlink:href="#m6fa75eba64" y="220.230771"/>
      </g>
     </g>
     <g id="text_6">
      <!-- 2020-12-17 -->
      <defs>
       <path d="M 8.203125 72.90625 
L 55.078125 72.90625 
L 55.078125 68.703125 
L 28.609375 0 
L 18.3125 0 
L 43.21875 64.59375 
L 8.203125 64.59375 
z
" id="DejaVuSans-55"/>
      </defs>
      <g transform="translate(145.467822 262.869024)rotate(-30)scale(0.1 -0.1)">
       <use xlink:href="#DejaVuSans-50"/>
       <use x="63.623047" xlink:href="#DejaVuSans-48"/>
       <use x="127.246094" xlink:href="#DejaVuSans-50"/>
       <use x="190.869141" xlink:href="#DejaVuSans-48"/>
       <use x="254.492188" xlink:href="#DejaVuSans-45"/>
       <use x="290.576172" xlink:href="#DejaVuSans-49"/>
       <use x="354.199219" xlink:href="#DejaVuSans-50"/>
       <use x="417.822266" xlink:href="#DejaVuSans-45"/>
       <use x="453.90625" xlink:href="#DejaVuSans-49"/>
       <use x="517.529297" xlink:href="#DejaVuSans-55"/>
      </g>
     </g>
    </g>
    <g id="xtick_7">
     <g id="line2d_7">
      <g>
       <use style="stroke:#000000;stroke-width:0.8;" x="196.64525" xlink:href="#m6fa75eba64" y="220.230771"/>
      </g>
     </g>
     <g id="text_7">
      <!-- 2020-12-21 -->
      <g transform="translate(172.860134 262.869024)rotate(-30)scale(0.1 -0.1)">
       <use xlink:href="#DejaVuSans-50"/>
       <use x="63.623047" xlink:href="#DejaVuSans-48"/>
       <use x="127.246094" xlink:href="#DejaVuSans-50"/>
       <use x="190.869141" xlink:href="#DejaVuSans-48"/>
       <use x="254.492188" xlink:href="#DejaVuSans-45"/>
       <use x="290.576172" xlink:href="#DejaVuSans-49"/>
       <use x="354.199219" xlink:href="#DejaVuSans-50"/>
       <use x="417.822266" xlink:href="#DejaVuSans-45"/>
       <use x="453.90625" xlink:href="#DejaVuSans-50"/>
       <use x="517.529297" xlink:href="#DejaVuSans-49"/>
      </g>
     </g>
    </g>
    <g id="xtick_8">
     <g id="line2d_8">
      <g>
       <use style="stroke:#000000;stroke-width:0.8;" x="224.037562" xlink:href="#m6fa75eba64" y="220.230771"/>
      </g>
     </g>
     <g id="text_8">
      <!-- 2020-12-25 -->
      <g transform="translate(200.252446 262.869024)rotate(-30)scale(0.1 -0.1)">
       <use xlink:href="#DejaVuSans-50"/>
       <use x="63.623047" xlink:href="#DejaVuSans-48"/>
       <use x="127.246094" xlink:href="#DejaVuSans-50"/>
       <use x="190.869141" xlink:href="#DejaVuSans-48"/>
       <use x="254.492188" xlink:href="#DejaVuSans-45"/>
       <use x="290.576172" xlink:href="#DejaVuSans-49"/>
       <use x="354.199219" xlink:href="#DejaVuSans-50"/>
       <use x="417.822266" xlink:href="#DejaVuSans-45"/>
       <use x="453.90625" xlink:href="#DejaVuSans-50"/>
       <use x="517.529297" xlink:href="#DejaVuSans-53"/>
      </g>
     </g>
    </g>
    <g id="xtick_9">
     <g id="line2d_9">
      <g>
       <use style="stroke:#000000;stroke-width:0.8;" x="251.429874" xlink:href="#m6fa75eba64" y="220.230771"/>
      </g>
     </g>
     <g id="text_9">
      <!-- 2020-12-29 -->
      <g transform="translate(227.644757 262.869024)rotate(-30)scale(0.1 -0.1)">
       <use xlink:href="#DejaVuSans-50"/>
       <use x="63.623047" xlink:href="#DejaVuSans-48"/>
       <use x="127.246094" xlink:href="#DejaVuSans-50"/>
       <use x="190.869141" xlink:href="#DejaVuSans-48"/>
       <use x="254.492188" xlink:href="#DejaVuSans-45"/>
       <use x="290.576172" xlink:href="#DejaVuSans-49"/>
       <use x="354.199219" xlink:href="#DejaVuSans-50"/>
       <use x="417.822266" xlink:href="#DejaVuSans-45"/>
       <use x="453.90625" xlink:href="#DejaVuSans-50"/>
       <use x="517.529297" xlink:href="#DejaVuSans-57"/>
      </g>
     </g>
    </g>
    <g id="xtick_10">
     <g id="line2d_10">
      <g>
       <use style="stroke:#000000;stroke-width:0.8;" x="271.974108" xlink:href="#m6fa75eba64" y="220.230771"/>
      </g>
     </g>
     <g id="text_10">
      <!-- 2021-01-01 -->
      <g transform="translate(248.188991 262.869024)rotate(-30)scale(0.1 -0.1)">
       <use xlink:href="#DejaVuSans-50"/>
       <use x="63.623047" xlink:href="#DejaVuSans-48"/>
       <use x="127.246094" xlink:href="#DejaVuSans-50"/>
       <use x="190.869141" xlink:href="#DejaVuSans-49"/>
       <use x="254.492188" xlink:href="#DejaVuSans-45"/>
       <use x="290.576172" xlink:href="#DejaVuSans-48"/>
       <use x="354.199219" xlink:href="#DejaVuSans-49"/>
       <use x="417.822266" xlink:href="#DejaVuSans-45"/>
       <use x="453.90625" xlink:href="#DejaVuSans-48"/>
       <use x="517.529297" xlink:href="#DejaVuSans-49"/>
      </g>
     </g>
    </g>
    <g id="xtick_11">
     <g id="line2d_11">
      <g>
       <use style="stroke:#000000;stroke-width:0.8;" x="299.366419" xlink:href="#m6fa75eba64" y="220.230771"/>
      </g>
     </g>
     <g id="text_11">
      <!-- 2021-01-05 -->
      <g transform="translate(275.581303 262.869024)rotate(-30)scale(0.1 -0.1)">
       <use xlink:href="#DejaVuSans-50"/>
       <use x="63.623047" xlink:href="#DejaVuSans-48"/>
       <use x="127.246094" xlink:href="#DejaVuSans-50"/>
       <use x="190.869141" xlink:href="#DejaVuSans-49"/>
       <use x="254.492188" xlink:href="#DejaVuSans-45"/>
       <use x="290.576172" xlink:href="#DejaVuSans-48"/>
       <use x="354.199219" xlink:href="#DejaVuSans-49"/>
       <use x="417.822266" xlink:href="#DejaVuSans-45"/>
       <use x="453.90625" xlink:href="#DejaVuSans-48"/>
       <use x="517.529297" xlink:href="#DejaVuSans-53"/>
      </g>
     </g>
    </g>
    <g id="text_12">
     <!-- Date -->
     <defs>
      <path d="M 19.671875 64.796875 
L 19.671875 8.109375 
L 31.59375 8.109375 
Q 46.6875 8.109375 53.6875 14.9375 
Q 60.6875 21.78125 60.6875 36.53125 
Q 60.6875 51.171875 53.6875 57.984375 
Q 46.6875 64.796875 31.59375 64.796875 
z
M 9.8125 72.90625 
L 30.078125 72.90625 
Q 51.265625 72.90625 61.171875 64.09375 
Q 71.09375 55.28125 71.09375 36.53125 
Q 71.09375 17.671875 61.125 8.828125 
Q 51.171875 0 30.078125 0 
L 9.8125 0 
z
" id="DejaVuSans-68"/>
      <path d="M 34.28125 27.484375 
Q 23.390625 27.484375 19.1875 25 
Q 14.984375 22.515625 14.984375 16.5 
Q 14.984375 11.71875 18.140625 8.90625 
Q 21.296875 6.109375 26.703125 6.109375 
Q 34.1875 6.109375 38.703125 11.40625 
Q 43.21875 16.703125 43.21875 25.484375 
L 43.21875 27.484375 
z
M 52.203125 31.203125 
L 52.203125 0 
L 43.21875 0 
L 43.21875 8.296875 
Q 40.140625 3.328125 35.546875 0.953125 
Q 30.953125 -1.421875 24.3125 -1.421875 
Q 15.921875 -1.421875 10.953125 3.296875 
Q 6 8.015625 6 15.921875 
Q 6 25.140625 12.171875 29.828125 
Q 18.359375 34.515625 30.609375 34.515625 
L 43.21875 34.515625 
L 43.21875 35.40625 
Q 43.21875 41.609375 39.140625 45 
Q 35.0625 48.390625 27.6875 48.390625 
Q 23 48.390625 18.546875 47.265625 
Q 14.109375 46.140625 10.015625 43.890625 
L 10.015625 52.203125 
Q 14.9375 54.109375 19.578125 55.046875 
Q 24.21875 56 28.609375 56 
Q 40.484375 56 46.34375 49.84375 
Q 52.203125 43.703125 52.203125 31.203125 
z
" id="DejaVuSans-97"/>
      <path d="M 18.3125 70.21875 
L 18.3125 54.6875 
L 36.8125 54.6875 
L 36.8125 47.703125 
L 18.3125 47.703125 
L 18.3125 18.015625 
Q 18.3125 11.328125 20.140625 9.421875 
Q 21.96875 7.515625 27.59375 7.515625 
L 36.8125 7.515625 
L 36.8125 0 
L 27.59375 0 
Q 17.1875 0 13.234375 3.875 
Q 9.28125 7.765625 9.28125 18.015625 
L 9.28125 47.703125 
L 2.6875 47.703125 
L 2.6875 54.6875 
L 9.28125 54.6875 
L 9.28125 70.21875 
z
" id="DejaVuSans-116"/>
      <path d="M 56.203125 29.59375 
L 56.203125 25.203125 
L 14.890625 25.203125 
Q 15.484375 15.921875 20.484375 11.0625 
Q 25.484375 6.203125 34.421875 6.203125 
Q 39.59375 6.203125 44.453125 7.46875 
Q 49.3125 8.734375 54.109375 11.28125 
L 54.109375 2.78125 
Q 49.265625 0.734375 44.1875 -0.34375 
Q 39.109375 -1.421875 33.890625 -1.421875 
Q 20.796875 -1.421875 13.15625 6.1875 
Q 5.515625 13.8125 5.515625 26.8125 
Q 5.515625 40.234375 12.765625 48.109375 
Q 20.015625 56 32.328125 56 
Q 43.359375 56 49.78125 48.890625 
Q 56.203125 41.796875 56.203125 29.59375 
z
M 47.21875 32.234375 
Q 47.125 39.59375 43.09375 43.984375 
Q 39.0625 48.390625 32.421875 48.390625 
Q 24.90625 48.390625 20.390625 44.140625 
Q 15.875 39.890625 15.1875 32.171875 
z
" id="DejaVuSans-101"/>
     </defs>
     <g transform="translate(167.504219 276.268523)scale(0.1 -0.1)">
      <use xlink:href="#DejaVuSans-68"/>
      <use x="77.001953" xlink:href="#DejaVuSans-97"/>
      <use x="138.28125" xlink:href="#DejaVuSans-116"/>
      <use x="177.490234" xlink:href="#DejaVuSans-101"/>
     </g>
    </g>
   </g>
   <g id="matplotlib.axis_2">
    <g id="ytick_1">
     <g id="line2d_12">
      <defs>
       <path d="M 0 0 
L -3.5 0 
" id="m216943b5e5" style="stroke:#000000;stroke-width:0.8;"/>
      </defs>
      <g>
       <use style="stroke:#000000;stroke-width:0.8;" x="43.55" xlink:href="#m216943b5e5" y="210.806645"/>
      </g>
     </g>
     <g id="text_13">
      <!-- 0 -->
      <g transform="translate(30.1875 214.605864)scale(0.1 -0.1)">
       <use xlink:href="#DejaVuSans-48"/>
      </g>
     </g>
    </g>
    <g id="ytick_2">
     <g id="line2d_13">
      <g>
       <use style="stroke:#000000;stroke-width:0.8;" x="43.55" xlink:href="#m216943b5e5" y="187.24633"/>
      </g>
     </g>
     <g id="text_14">
      <!-- 5 -->
      <g transform="translate(30.1875 191.045549)scale(0.1 -0.1)">
       <use xlink:href="#DejaVuSans-53"/>
      </g>
     </g>
    </g>
    <g id="ytick_3">
     <g id="line2d_14">
      <g>
       <use style="stroke:#000000;stroke-width:0.8;" x="43.55" xlink:href="#m216943b5e5" y="163.686016"/>
      </g>
     </g>
     <g id="text_15">
      <!-- 10 -->
      <g transform="translate(23.825 167.485234)scale(0.1 -0.1)">
       <use xlink:href="#DejaVuSans-49"/>
       <use x="63.623047" xlink:href="#DejaVuSans-48"/>
      </g>
     </g>
    </g>
    <g id="ytick_4">
     <g id="line2d_15">
      <g>
       <use style="stroke:#000000;stroke-width:0.8;" x="43.55" xlink:href="#m216943b5e5" y="140.125701"/>
      </g>
     </g>
     <g id="text_16">
      <!-- 15 -->
      <g transform="translate(23.825 143.924919)scale(0.1 -0.1)">
       <use xlink:href="#DejaVuSans-49"/>
       <use x="63.623047" xlink:href="#DejaVuSans-53"/>
      </g>
     </g>
    </g>
    <g id="ytick_5">
     <g id="line2d_16">
      <g>
       <use style="stroke:#000000;stroke-width:0.8;" x="43.55" xlink:href="#m216943b5e5" y="116.565386"/>
      </g>
     </g>
     <g id="text_17">
      <!-- 20 -->
      <g transform="translate(23.825 120.364604)scale(0.1 -0.1)">
       <use xlink:href="#DejaVuSans-50"/>
       <use x="63.623047" xlink:href="#DejaVuSans-48"/>
      </g>
     </g>
    </g>
    <g id="ytick_6">
     <g id="line2d_17">
      <g>
       <use style="stroke:#000000;stroke-width:0.8;" x="43.55" xlink:href="#m216943b5e5" y="93.005071"/>
      </g>
     </g>
     <g id="text_18">
      <!-- 25 -->
      <g transform="translate(23.825 96.80429)scale(0.1 -0.1)">
       <use xlink:href="#DejaVuSans-50"/>
       <use x="63.623047" xlink:href="#DejaVuSans-53"/>
      </g>
     </g>
    </g>
    <g id="ytick_7">
     <g id="line2d_18">
      <g>
       <use style="stroke:#000000;stroke-width:0.8;" x="43.55" xlink:href="#m216943b5e5" y="69.444756"/>
      </g>
     </g>
     <g id="text_19">
      <!-- 30 -->
      <g transform="translate(23.825 73.243975)scale(0.1 -0.1)">
       <use xlink:href="#DejaVuSans-51"/>
       <use x="63.623047" xlink:href="#DejaVuSans-48"/>
      </g>
     </g>
    </g>
    <g id="ytick_8">
     <g id="line2d_19">
      <g>
       <use style="stroke:#000000;stroke-width:0.8;" x="43.55" xlink:href="#m216943b5e5" y="45.884441"/>
      </g>
     </g>
     <g id="text_20">
      <!-- 35 -->
      <g transform="translate(23.825 49.68366)scale(0.1 -0.1)">
       <use xlink:href="#DejaVuSans-51"/>
       <use x="63.623047" xlink:href="#DejaVuSans-53"/>
      </g>
     </g>
    </g>
    <g id="ytick_9">
     <g id="line2d_20">
      <g>
       <use style="stroke:#000000;stroke-width:0.8;" x="43.55" xlink:href="#m216943b5e5" y="22.324126"/>
      </g>
     </g>
     <g id="text_21">
      <!-- 40 -->
      <defs>
       <path d="M 37.796875 64.3125 
L 12.890625 25.390625 
L 37.796875 25.390625 
z
M 35.203125 72.90625 
L 47.609375 72.90625 
L 47.609375 25.390625 
L 58.015625 25.390625 
L 58.015625 17.1875 
L 47.609375 17.1875 
L 47.609375 0 
L 37.796875 0 
L 37.796875 17.1875 
L 4.890625 17.1875 
L 4.890625 26.703125 
z
" id="DejaVuSans-52"/>
      </defs>
      <g transform="translate(23.825 26.123345)scale(0.1 -0.1)">
       <use xlink:href="#DejaVuSans-52"/>
       <use x="63.623047" xlink:href="#DejaVuSans-48"/>
      </g>
     </g>
    </g>
    <g id="text_22">
     <!-- Students Registered -->
     <defs>
      <path d="M 53.515625 70.515625 
L 53.515625 60.890625 
Q 47.90625 63.578125 42.921875 64.890625 
Q 37.9375 66.21875 33.296875 66.21875 
Q 25.25 66.21875 20.875 63.09375 
Q 16.5 59.96875 16.5 54.203125 
Q 16.5 49.359375 19.40625 46.890625 
Q 22.3125 44.4375 30.421875 42.921875 
L 36.375 41.703125 
Q 47.40625 39.59375 52.65625 34.296875 
Q 57.90625 29 57.90625 20.125 
Q 57.90625 9.515625 50.796875 4.046875 
Q 43.703125 -1.421875 29.984375 -1.421875 
Q 24.8125 -1.421875 18.96875 -0.25 
Q 13.140625 0.921875 6.890625 3.21875 
L 6.890625 13.375 
Q 12.890625 10.015625 18.65625 8.296875 
Q 24.421875 6.59375 29.984375 6.59375 
Q 38.421875 6.59375 43.015625 9.90625 
Q 47.609375 13.234375 47.609375 19.390625 
Q 47.609375 24.75 44.3125 27.78125 
Q 41.015625 30.8125 33.5 32.328125 
L 27.484375 33.5 
Q 16.453125 35.6875 11.515625 40.375 
Q 6.59375 45.0625 6.59375 53.421875 
Q 6.59375 63.09375 13.40625 68.65625 
Q 20.21875 74.21875 32.171875 74.21875 
Q 37.3125 74.21875 42.625 73.28125 
Q 47.953125 72.359375 53.515625 70.515625 
z
" id="DejaVuSans-83"/>
      <path d="M 8.5 21.578125 
L 8.5 54.6875 
L 17.484375 54.6875 
L 17.484375 21.921875 
Q 17.484375 14.15625 20.5 10.265625 
Q 23.53125 6.390625 29.59375 6.390625 
Q 36.859375 6.390625 41.078125 11.03125 
Q 45.3125 15.671875 45.3125 23.6875 
L 45.3125 54.6875 
L 54.296875 54.6875 
L 54.296875 0 
L 45.3125 0 
L 45.3125 8.40625 
Q 42.046875 3.421875 37.71875 1 
Q 33.40625 -1.421875 27.6875 -1.421875 
Q 18.265625 -1.421875 13.375 4.4375 
Q 8.5 10.296875 8.5 21.578125 
z
M 31.109375 56 
z
" id="DejaVuSans-117"/>
      <path d="M 45.40625 46.390625 
L 45.40625 75.984375 
L 54.390625 75.984375 
L 54.390625 0 
L 45.40625 0 
L 45.40625 8.203125 
Q 42.578125 3.328125 38.25 0.953125 
Q 33.9375 -1.421875 27.875 -1.421875 
Q 17.96875 -1.421875 11.734375 6.484375 
Q 5.515625 14.40625 5.515625 27.296875 
Q 5.515625 40.1875 11.734375 48.09375 
Q 17.96875 56 27.875 56 
Q 33.9375 56 38.25 53.625 
Q 42.578125 51.265625 45.40625 46.390625 
z
M 14.796875 27.296875 
Q 14.796875 17.390625 18.875 11.75 
Q 22.953125 6.109375 30.078125 6.109375 
Q 37.203125 6.109375 41.296875 11.75 
Q 45.40625 17.390625 45.40625 27.296875 
Q 45.40625 37.203125 41.296875 42.84375 
Q 37.203125 48.484375 30.078125 48.484375 
Q 22.953125 48.484375 18.875 42.84375 
Q 14.796875 37.203125 14.796875 27.296875 
z
" id="DejaVuSans-100"/>
      <path d="M 54.890625 33.015625 
L 54.890625 0 
L 45.90625 0 
L 45.90625 32.71875 
Q 45.90625 40.484375 42.875 44.328125 
Q 39.84375 48.1875 33.796875 48.1875 
Q 26.515625 48.1875 22.3125 43.546875 
Q 18.109375 38.921875 18.109375 30.90625 
L 18.109375 0 
L 9.078125 0 
L 9.078125 54.6875 
L 18.109375 54.6875 
L 18.109375 46.1875 
Q 21.34375 51.125 25.703125 53.5625 
Q 30.078125 56 35.796875 56 
Q 45.21875 56 50.046875 50.171875 
Q 54.890625 44.34375 54.890625 33.015625 
z
" id="DejaVuSans-110"/>
      <path d="M 44.28125 53.078125 
L 44.28125 44.578125 
Q 40.484375 46.53125 36.375 47.5 
Q 32.28125 48.484375 27.875 48.484375 
Q 21.1875 48.484375 17.84375 46.4375 
Q 14.5 44.390625 14.5 40.28125 
Q 14.5 37.15625 16.890625 35.375 
Q 19.28125 33.59375 26.515625 31.984375 
L 29.59375 31.296875 
Q 39.15625 29.25 43.1875 25.515625 
Q 47.21875 21.78125 47.21875 15.09375 
Q 47.21875 7.46875 41.1875 3.015625 
Q 35.15625 -1.421875 24.609375 -1.421875 
Q 20.21875 -1.421875 15.453125 -0.5625 
Q 10.6875 0.296875 5.421875 2 
L 5.421875 11.28125 
Q 10.40625 8.6875 15.234375 7.390625 
Q 20.0625 6.109375 24.8125 6.109375 
Q 31.15625 6.109375 34.5625 8.28125 
Q 37.984375 10.453125 37.984375 14.40625 
Q 37.984375 18.0625 35.515625 20.015625 
Q 33.0625 21.96875 24.703125 23.78125 
L 21.578125 24.515625 
Q 13.234375 26.265625 9.515625 29.90625 
Q 5.8125 33.546875 5.8125 39.890625 
Q 5.8125 47.609375 11.28125 51.796875 
Q 16.75 56 26.8125 56 
Q 31.78125 56 36.171875 55.265625 
Q 40.578125 54.546875 44.28125 53.078125 
z
" id="DejaVuSans-115"/>
      <path id="DejaVuSans-32"/>
      <path d="M 44.390625 34.1875 
Q 47.5625 33.109375 50.5625 29.59375 
Q 53.5625 26.078125 56.59375 19.921875 
L 66.609375 0 
L 56 0 
L 46.6875 18.703125 
Q 43.0625 26.03125 39.671875 28.421875 
Q 36.28125 30.8125 30.421875 30.8125 
L 19.671875 30.8125 
L 19.671875 0 
L 9.8125 0 
L 9.8125 72.90625 
L 32.078125 72.90625 
Q 44.578125 72.90625 50.734375 67.671875 
Q 56.890625 62.453125 56.890625 51.90625 
Q 56.890625 45.015625 53.6875 40.46875 
Q 50.484375 35.9375 44.390625 34.1875 
z
M 19.671875 64.796875 
L 19.671875 38.921875 
L 32.078125 38.921875 
Q 39.203125 38.921875 42.84375 42.21875 
Q 46.484375 45.515625 46.484375 51.90625 
Q 46.484375 58.296875 42.84375 61.546875 
Q 39.203125 64.796875 32.078125 64.796875 
z
" id="DejaVuSans-82"/>
      <path d="M 45.40625 27.984375 
Q 45.40625 37.75 41.375 43.109375 
Q 37.359375 48.484375 30.078125 48.484375 
Q 22.859375 48.484375 18.828125 43.109375 
Q 14.796875 37.75 14.796875 27.984375 
Q 14.796875 18.265625 18.828125 12.890625 
Q 22.859375 7.515625 30.078125 7.515625 
Q 37.359375 7.515625 41.375 12.890625 
Q 45.40625 18.265625 45.40625 27.984375 
z
M 54.390625 6.78125 
Q 54.390625 -7.171875 48.1875 -13.984375 
Q 42 -20.796875 29.203125 -20.796875 
Q 24.46875 -20.796875 20.265625 -20.09375 
Q 16.0625 -19.390625 12.109375 -17.921875 
L 12.109375 -9.1875 
Q 16.0625 -11.328125 19.921875 -12.34375 
Q 23.78125 -13.375 27.78125 -13.375 
Q 36.625 -13.375 41.015625 -8.765625 
Q 45.40625 -4.15625 45.40625 5.171875 
L 45.40625 9.625 
Q 42.625 4.78125 38.28125 2.390625 
Q 33.9375 0 27.875 0 
Q 17.828125 0 11.671875 7.65625 
Q 5.515625 15.328125 5.515625 27.984375 
Q 5.515625 40.671875 11.671875 48.328125 
Q 17.828125 56 27.875 56 
Q 33.9375 56 38.28125 53.609375 
Q 42.625 51.21875 45.40625 46.390625 
L 45.40625 54.6875 
L 54.390625 54.6875 
z
" id="DejaVuSans-103"/>
      <path d="M 9.421875 54.6875 
L 18.40625 54.6875 
L 18.40625 0 
L 9.421875 0 
z
M 9.421875 75.984375 
L 18.40625 75.984375 
L 18.40625 64.59375 
L 9.421875 64.59375 
z
" id="DejaVuSans-105"/>
      <path d="M 41.109375 46.296875 
Q 39.59375 47.171875 37.8125 47.578125 
Q 36.03125 48 33.890625 48 
Q 26.265625 48 22.1875 43.046875 
Q 18.109375 38.09375 18.109375 28.8125 
L 18.109375 0 
L 9.078125 0 
L 9.078125 54.6875 
L 18.109375 54.6875 
L 18.109375 46.1875 
Q 20.953125 51.171875 25.484375 53.578125 
Q 30.03125 56 36.53125 56 
Q 37.453125 56 38.578125 55.875 
Q 39.703125 55.765625 41.0625 55.515625 
z
" id="DejaVuSans-114"/>
     </defs>
     <g transform="translate(17.745313 167.498979)rotate(-90)scale(0.1 -0.1)">
      <use xlink:href="#DejaVuSans-83"/>
      <use x="63.476562" xlink:href="#DejaVuSans-116"/>
      <use x="102.685547" xlink:href="#DejaVuSans-117"/>
      <use x="166.064453" xlink:href="#DejaVuSans-100"/>
      <use x="229.541016" xlink:href="#DejaVuSans-101"/>
      <use x="291.064453" xlink:href="#DejaVuSans-110"/>
      <use x="354.443359" xlink:href="#DejaVuSans-116"/>
      <use x="393.652344" xlink:href="#DejaVuSans-115"/>
      <use x="445.751953" xlink:href="#DejaVuSans-32"/>
      <use x="477.539062" xlink:href="#DejaVuSans-82"/>
      <use x="546.958984" xlink:href="#DejaVuSans-101"/>
      <use x="608.482422" xlink:href="#DejaVuSans-103"/>
      <use x="671.958984" xlink:href="#DejaVuSans-105"/>
      <use x="699.742188" xlink:href="#DejaVuSans-115"/>
      <use x="751.841797" xlink:href="#DejaVuSans-116"/>
      <use x="791.050781" xlink:href="#DejaVuSans-101"/>
      <use x="852.574219" xlink:href="#DejaVuSans-114"/>
      <use x="893.65625" xlink:href="#DejaVuSans-101"/>
      <use x="955.179688" xlink:href="#DejaVuSans-100"/>
     </g>
    </g>
   </g>
   <g id="line2d_21">
    <path clip-path="url(#paef76f3933)" d="M 115.467584 196.670456 
L 116.894203 196.670456 
L 116.894203 182.534267 
L 116.965549 182.534267 
L 117.179548 182.534267 
L 117.179548 177.822204 
L 117.250902 177.822204 
L 117.464877 177.822204 
L 117.464877 158.973953 
L 117.536213 158.973953 
L 118.035577 158.973953 
L 118.035577 144.837764 
L 118.106907 144.837764 
L 118.606239 144.837764 
L 118.606239 116.565386 
L 118.6776 116.565386 
L 119.176907 116.565386 
L 119.176907 107.14126 
L 119.248242 107.14126 
L 119.462282 107.14126 
L 119.462282 102.429197 
L 119.533614 102.429197 
L 119.747594 102.429197 
L 119.747594 97.717134 
L 119.818945 97.717134 
L 120.318314 97.717134 
L 120.318314 93.005071 
L 120.389649 93.005071 
L 124.312963 93.005071 
L 124.312963 74.156819 
L 124.384317 74.156819 
L 124.883656 74.156819 
L 124.883656 69.444756 
L 124.955025 69.444756 
L 125.454372 69.444756 
L 125.454372 60.02063 
L 125.525646 60.02063 
L 125.739709 60.02063 
L 125.739709 55.308567 
L 125.810981 55.308567 
L 126.310391 55.308567 
L 126.310391 50.596504 
L 126.381659 50.596504 
L 132.302434 50.596504 
L 132.302434 45.884441 
L 132.373719 45.884441 
L 132.587722 45.884441 
L 132.587722 41.172378 
L 132.659093 41.172378 
L 132.873074 41.172378 
L 132.873074 36.460315 
L 132.944431 36.460315 
L 133.729122 36.460315 
L 133.729122 31.748252 
L 133.80039 31.748252 
L 151.99062 31.748252 
L 151.99062 22.324126 
L 152.062004 22.324126 
L 187.087026 22.324126 
L 187.087026 27.036189 
L 187.158363 27.036189 
L 188.799044 27.036189 
L 188.799044 22.324126 
L 188.870423 22.324126 
L 213.62336 22.324126 
L 213.62336 27.036189 
L 213.694661 27.036189 
L 215.90604 27.036189 
L 215.90604 22.324126 
L 215.977345 22.324126 
L 303.005 22.324126 
L 303.005 22.324126 
" style="fill:none;stroke:#1b9e77;stroke-linecap:square;stroke-width:1.5;"/>
   </g>
   <g id="line2d_22">
    <path clip-path="url(#paef76f3933)" d="M 55.905 182.534267 
L 56.205637 182.534267 
L 56.205637 177.822204 
L 56.312546 177.822204 
L 57.682097 177.822204 
L 57.682097 173.110142 
L 62.247535 173.110142 
L 62.247535 168.398079 
L 62.680305 168.398079 
L 62.680305 163.686016 
L 62.751593 163.686016 
L 62.965625 163.686016 
L 62.965625 158.973953 
L 63.036993 158.973953 
L 63.821673 158.973953 
L 63.821673 144.837764 
L 63.892976 144.837764 
L 64.106949 144.837764 
L 64.106949 140.125701 
L 64.178334 140.125701 
L 69.813698 140.125701 
L 69.813698 130.701575 
L 69.885074 130.701575 
L 70.099033 130.701575 
L 70.099033 125.989512 
L 70.170337 125.989512 
L 70.384367 125.989512 
L 70.384367 130.701575 
L 70.455723 130.701575 
L 70.955087 130.701575 
L 70.955087 125.989512 
L 71.026402 125.989512 
L 71.240366 125.989512 
L 71.240366 116.565386 
L 71.311779 116.565386 
L 72.667084 116.565386 
L 72.667084 107.14126 
L 72.738393 107.14126 
L 75.805784 107.14126 
L 75.805784 102.429197 
L 75.877099 102.429197 
L 76.091115 102.429197 
L 76.091115 83.580945 
L 76.162439 83.580945 
L 76.376419 83.580945 
L 76.376419 74.156819 
L 76.447752 74.156819 
L 76.947123 74.156819 
L 76.947123 69.444756 
L 77.018463 69.444756 
L 77.232451 69.444756 
L 77.232451 64.732693 
L 77.303811 64.732693 
L 77.517795 64.732693 
L 77.517795 60.02063 
L 77.589137 60.02063 
L 77.80313 60.02063 
L 77.80313 45.884441 
L 77.874503 45.884441 
L 78.088459 45.884441 
L 78.088459 41.172378 
L 78.15982 41.172378 
L 78.373812 41.172378 
L 78.373812 36.460315 
L 78.445157 36.460315 
L 83.224495 36.460315 
L 83.224495 27.036189 
L 83.295831 27.036189 
L 83.509894 27.036189 
L 83.509894 22.324126 
L 83.581182 22.324126 
L 117.179548 22.324126 
L 117.179548 27.036189 
L 117.250902 27.036189 
L 117.464877 27.036189 
L 117.464877 22.324126 
L 117.536213 22.324126 
L 303.005 22.324126 
L 303.005 22.324126 
" style="fill:none;stroke:#d95f02;stroke-linecap:square;stroke-width:1.5;"/>
   </g>
   <g id="line2d_23">
    <path clip-path="url(#paef76f3933)" d="M 55.905 201.382519 
L 63.536352 201.382519 
L 63.536352 196.670456 
L 63.607632 196.670456 
L 69.243064 196.670456 
L 69.243064 191.958393 
L 69.314404 191.958393 
L 69.528389 191.958393 
L 69.528389 187.24633 
L 69.599726 187.24633 
L 69.813698 187.24633 
L 69.813698 177.822204 
L 69.885074 177.822204 
L 70.099033 177.822204 
L 70.099033 173.110142 
L 70.170337 173.110142 
L 70.384367 173.110142 
L 70.384367 168.398079 
L 70.455723 168.398079 
L 70.669708 168.398079 
L 70.669708 163.686016 
L 70.741027 163.686016 
L 71.240366 163.686016 
L 71.240366 158.973953 
L 71.311779 158.973953 
L 76.091115 158.973953 
L 76.091115 149.549827 
L 76.162439 149.549827 
L 76.376419 149.549827 
L 76.376419 144.837764 
L 76.447752 144.837764 
L 77.517795 144.837764 
L 77.517795 140.125701 
L 77.589137 140.125701 
L 77.80313 140.125701 
L 77.80313 130.701575 
L 77.874503 130.701575 
L 103.768792 130.701575 
L 103.768792 125.989512 
L 103.840055 125.989512 
L 104.0541 125.989512 
L 104.0541 121.277449 
L 104.125397 121.277449 
L 104.339454 121.277449 
L 104.339454 116.565386 
L 104.410765 116.565386 
L 104.62476 116.565386 
L 104.62476 111.853323 
L 104.69609 111.853323 
L 104.910127 111.853323 
L 104.910127 102.429197 
L 104.981443 102.429197 
L 105.195467 102.429197 
L 105.195467 97.717134 
L 105.26679 97.717134 
L 110.331488 97.717134 
L 110.402827 83.580945 
L 110.402827 83.580945 
L 110.902175 83.580945 
L 110.902175 74.156819 
L 110.973499 74.156819 
L 111.758192 74.156819 
L 111.758192 69.444756 
L 111.829515 69.444756 
L 112.043531 69.444756 
L 112.043531 60.02063 
L 112.114869 60.02063 
L 112.328864 60.02063 
L 112.328864 36.460315 
L 112.400189 36.460315 
L 112.614158 36.460315 
L 112.614158 22.324126 
L 112.685559 22.324126 
L 116.894203 22.324126 
L 116.894203 27.036189 
L 116.965549 27.036189 
L 117.464877 27.036189 
L 117.464877 22.324126 
L 117.536213 22.324126 
L 186.516332 22.324126 
L 186.516332 27.036189 
L 186.587717 27.036189 
L 186.801729 27.036189 
L 186.801729 22.324126 
L 186.873074 22.324126 
L 199.356554 22.324126 
L 199.356554 27.036189 
L 199.427816 27.036189 
L 199.927149 27.036189 
L 199.927149 22.324126 
L 199.998483 22.324126 
L 200.497842 22.324126 
L 200.497842 27.036189 
L 200.569186 27.036189 
L 201.639249 27.036189 
L 201.639249 22.324126 
L 201.710541 22.324126 
L 303.005 22.324126 
L 303.005 22.324126 
" style="fill:none;stroke:#7570b3;stroke-linecap:square;stroke-width:1.5;"/>
   </g>
   <g id="line2d_24">
    <path clip-path="url(#paef76f3933)" d="M 55.905 210.806645 
L 56.205637 210.806645 
L 56.205637 201.382519 
L 56.312546 201.382519 
L 57.544237 201.382519 
L 57.544237 196.670456 
L 57.653626 196.670456 
L 64.106949 196.670456 
L 64.106949 191.958393 
L 64.178334 191.958393 
L 69.528389 191.958393 
L 69.528389 177.822204 
L 69.599726 177.822204 
L 69.813698 177.822204 
L 69.813698 173.110142 
L 69.885074 173.110142 
L 70.099033 173.110142 
L 70.099033 154.26189 
L 70.170337 154.26189 
L 70.384367 154.26189 
L 70.384367 149.549827 
L 70.455723 149.549827 
L 70.669708 149.549827 
L 70.669708 140.125701 
L 70.741027 140.125701 
L 70.955087 140.125701 
L 70.955087 125.989512 
L 71.026402 125.989512 
L 76.091115 125.989512 
L 76.091115 121.277449 
L 76.162439 121.277449 
L 76.376419 121.277449 
L 76.376419 116.565386 
L 76.447752 116.565386 
L 77.232451 116.565386 
L 77.232451 111.853323 
L 77.303811 111.853323 
L 77.80313 111.853323 
L 77.80313 97.717134 
L 77.874503 97.717134 
L 78.088459 97.717134 
L 78.088459 93.005071 
L 78.15982 93.005071 
L 83.795179 93.005071 
L 83.795179 88.293008 
L 83.866525 88.293008 
L 84.080507 88.293008 
L 84.080507 83.580945 
L 84.151869 83.580945 
L 84.65122 83.580945 
L 84.65122 78.868882 
L 84.722512 78.868882 
L 85.507213 78.868882 
L 85.507213 74.156819 
L 85.578585 74.156819 
L 90.357975 74.156819 
L 90.357975 69.444756 
L 90.429276 69.444756 
L 103.768792 69.444756 
L 103.768792 45.884441 
L 103.840055 45.884441 
L 104.0541 45.884441 
L 104.0541 36.460315 
L 104.125397 36.460315 
L 104.339454 36.460315 
L 104.339454 31.748252 
L 104.410765 31.748252 
L 200.497842 31.748252 
L 200.497842 36.460315 
L 200.569186 36.460315 
L 200.783169 36.460315 
L 200.783169 31.748252 
L 200.854503 31.748252 
L 216.191342 31.748252 
L 216.191342 36.460315 
L 216.262726 36.460315 
L 216.476699 36.460315 
L 216.476699 31.748252 
L 216.548057 31.748252 
L 303.005 31.748252 
L 303.005 31.748252 
" style="fill:none;stroke:#e7298a;stroke-linecap:square;stroke-width:1.5;"/>
   </g>
   <g id="line2d_25">
    <path clip-path="url(#paef76f3933)" d="M 55.905 191.958393 
L 69.528389 191.958393 
L 69.528389 187.24633 
L 69.599726 187.24633 
L 70.955087 187.24633 
L 70.955087 182.534267 
L 71.026402 182.534267 
L 71.525741 182.534267 
L 71.525741 177.822204 
L 71.597047 177.822204 
L 76.947123 177.822204 
L 76.947123 173.110142 
L 77.018463 173.110142 
L 77.517795 173.110142 
L 77.517795 168.398079 
L 77.589137 168.398079 
L 83.224495 168.398079 
L 83.224495 163.686016 
L 83.295831 163.686016 
L 103.483415 163.686016 
L 103.483415 154.26189 
L 103.554789 154.26189 
L 103.768792 154.26189 
L 103.768792 144.837764 
L 103.840055 144.837764 
L 104.62476 144.837764 
L 104.62476 140.125701 
L 104.69609 140.125701 
L 105.766134 140.125701 
L 105.766134 135.413638 
L 105.837451 135.413638 
L 110.902175 135.413638 
L 110.902175 130.701575 
L 110.973499 130.701575 
L 111.472799 130.701575 
L 111.472799 121.277449 
L 111.544196 121.277449 
L 112.043531 121.277449 
L 112.043531 116.565386 
L 112.114869 116.565386 
L 113.755553 116.565386 
L 113.755553 111.853323 
L 113.826874 111.853323 
L 116.894203 111.853323 
L 116.894203 107.14126 
L 116.965549 107.14126 
L 117.464877 107.14126 
L 117.464877 102.429197 
L 117.536213 102.429197 
L 117.750211 102.429197 
L 117.750211 93.005071 
L 117.821551 93.005071 
L 118.32093 93.005071 
L 118.32093 88.293008 
L 118.392267 88.293008 
L 118.606239 88.293008 
L 118.6776 74.156819 
L 118.6776 74.156819 
L 118.891612 74.156819 
L 118.891612 64.732693 
L 118.962956 64.732693 
L 120.032913 64.732693 
L 120.032913 69.444756 
L 120.104238 69.444756 
L 124.312963 69.444756 
L 124.312963 60.02063 
L 124.384317 60.02063 
L 124.59837 60.02063 
L 124.59837 55.308567 
L 124.669632 55.308567 
L 125.169002 55.308567 
L 125.169002 50.596504 
L 125.240348 50.596504 
L 125.454372 50.596504 
L 125.454372 41.172378 
L 125.525646 41.172378 
L 125.739709 41.172378 
L 125.739709 36.460315 
L 125.810981 36.460315 
L 126.310391 36.460315 
L 126.310391 31.748252 
L 126.381659 31.748252 
L 303.005 31.748252 
L 303.005 31.748252 
" style="fill:none;stroke:#66a61e;stroke-linecap:square;stroke-width:1.5;"/>
   </g>
   <g id="line2d_26">
    <path clip-path="url(#paef76f3933)" d="M 55.905 196.670456 
L 63.536352 196.670456 
L 63.536352 191.958393 
L 63.607632 191.958393 
L 69.243064 191.958393 
L 69.243064 187.24633 
L 69.314404 187.24633 
L 69.528389 187.24633 
L 69.528389 182.534267 
L 69.599726 182.534267 
L 70.099033 182.534267 
L 70.099033 177.822204 
L 70.170337 177.822204 
L 70.384367 177.822204 
L 70.384367 173.110142 
L 70.455723 173.110142 
L 70.669708 173.110142 
L 70.669708 163.686016 
L 70.741027 163.686016 
L 70.955087 163.686016 
L 70.955087 158.973953 
L 71.026402 158.973953 
L 71.240366 158.973953 
L 71.240366 154.26189 
L 71.311779 154.26189 
L 75.805784 154.26189 
L 75.805784 149.549827 
L 75.877099 149.549827 
L 76.091115 149.549827 
L 76.091115 140.125701 
L 76.162439 140.125701 
L 76.661741 140.125701 
L 76.661741 135.413638 
L 76.733081 135.413638 
L 76.947123 135.413638 
L 76.947123 125.989512 
L 77.018463 125.989512 
L 77.517795 125.989512 
L 77.517795 121.277449 
L 77.589137 121.277449 
L 78.088459 121.277449 
L 78.088459 116.565386 
L 78.15982 116.565386 
L 78.373812 116.565386 
L 78.373812 111.853323 
L 78.445157 111.853323 
L 83.509894 111.853323 
L 83.509894 107.14126 
L 83.581182 107.14126 
L 84.65122 107.14126 
L 84.65122 102.429197 
L 84.722512 102.429197 
L 92.069924 102.429197 
L 92.069924 97.717134 
L 92.141266 97.717134 
L 103.483415 97.717134 
L 103.483415 93.005071 
L 103.554789 93.005071 
L 104.339454 93.005071 
L 104.339454 78.868882 
L 104.410765 78.868882 
L 104.62476 78.868882 
L 104.62476 69.444756 
L 104.69609 69.444756 
L 104.910127 69.444756 
L 104.910127 60.02063 
L 104.981443 60.02063 
L 105.766134 60.02063 
L 105.766134 55.308567 
L 105.837451 55.308567 
L 109.760827 55.308567 
L 109.760827 50.596504 
L 109.832158 50.596504 
L 110.616819 50.596504 
L 110.616819 45.884441 
L 110.688139 45.884441 
L 110.902175 45.884441 
L 110.902175 41.172378 
L 110.973499 41.172378 
L 111.187493 41.172378 
L 111.187493 36.460315 
L 111.258834 36.460315 
L 112.043531 36.460315 
L 112.043531 31.748252 
L 112.114869 31.748252 
L 303.005 31.748252 
L 303.005 31.748252 
" style="fill:none;stroke:#e6ab02;stroke-linecap:square;stroke-width:1.5;"/>
   </g>
   <g id="line2d_27">
    <path clip-path="url(#paef76f3933)" d="M 55.905 201.382519 
L 64.106949 201.382519 
L 64.106949 196.670456 
L 64.178334 196.670456 
L 69.528389 196.670456 
L 69.528389 191.958393 
L 69.599726 191.958393 
L 70.669708 191.958393 
L 70.669708 187.24633 
L 70.741027 187.24633 
L 76.661741 187.24633 
L 76.661741 177.822204 
L 76.733081 177.822204 
L 77.232451 177.822204 
L 77.232451 173.110142 
L 77.303811 173.110142 
L 77.80313 173.110142 
L 77.80313 168.398079 
L 77.874503 168.398079 
L 78.088459 168.398079 
L 78.088459 163.686016 
L 78.15982 163.686016 
L 84.65122 163.686016 
L 84.65122 158.973953 
L 84.722512 158.973953 
L 91.213957 158.973953 
L 91.213957 154.26189 
L 91.285258 154.26189 
L 103.768792 154.26189 
L 103.768792 144.837764 
L 103.840055 144.837764 
L 104.339454 144.837764 
L 104.339454 140.125701 
L 104.410765 140.125701 
L 105.766134 140.125701 
L 105.766134 135.413638 
L 105.837451 135.413638 
L 110.331488 135.413638 
L 110.331488 130.701575 
L 110.402827 130.701575 
L 111.758192 130.701575 
L 111.758192 125.989512 
L 111.829515 125.989512 
L 112.043531 125.989512 
L 112.043531 121.277449 
L 112.114869 121.277449 
L 112.328864 121.277449 
L 112.400189 107.14126 
L 112.400189 107.14126 
L 117.179548 107.14126 
L 117.179548 102.429197 
L 117.250902 102.429197 
L 117.464877 102.429197 
L 117.464877 93.005071 
L 117.536213 93.005071 
L 117.750211 93.005071 
L 117.750211 88.293008 
L 117.821551 88.293008 
L 118.035577 88.293008 
L 118.106907 74.156819 
L 118.106907 74.156819 
L 118.606239 74.156819 
L 118.606239 60.02063 
L 118.6776 60.02063 
L 118.891612 60.02063 
L 118.891612 50.596504 
L 118.962956 50.596504 
L 119.176907 50.596504 
L 119.176907 31.748252 
L 119.248242 31.748252 
L 119.462282 31.748252 
L 119.462282 27.036189 
L 119.533614 27.036189 
L 120.888977 27.036189 
L 120.888977 22.324126 
L 120.960311 22.324126 
L 199.356554 22.324126 
L 199.356554 27.036189 
L 199.427816 27.036189 
L 199.641888 27.036189 
L 199.641888 22.324126 
L 199.713218 22.324126 
L 200.212529 22.324126 
L 200.212529 27.036189 
L 200.283892 27.036189 
L 201.068506 27.036189 
L 201.068506 31.748252 
L 201.1399 31.748252 
L 201.639249 31.748252 
L 201.639249 36.460315 
L 201.710541 36.460315 
L 209.343282 36.460315 
L 209.343282 41.172378 
L 209.414652 41.172378 
L 226.178171 41.172378 
L 226.178171 36.460315 
L 226.249513 36.460315 
L 257.850491 36.460315 
L 257.850491 41.172378 
L 257.921884 41.172378 
L 268.978647 41.172378 
L 268.978647 36.460315 
L 269.049945 36.460315 
L 303.005 36.460315 
L 303.005 36.460315 
" style="fill:none;stroke:#a6761d;stroke-linecap:square;stroke-width:1.5;"/>
   </g>
   <g id="line2d_28">
    <path clip-path="url(#paef76f3933)" d="M 55.905 201.382519 
L 69.813698 201.382519 
L 69.813698 196.670456 
L 69.885074 196.670456 
L 70.669708 196.670456 
L 70.669708 191.958393 
L 70.741027 191.958393 
L 76.947123 191.958393 
L 76.947123 187.24633 
L 77.018463 187.24633 
L 77.517795 187.24633 
L 77.517795 191.958393 
L 77.589137 191.958393 
L 77.80313 191.958393 
L 77.80313 182.534267 
L 77.874503 182.534267 
L 103.768792 182.534267 
L 103.768792 177.822204 
L 103.840055 177.822204 
L 104.339454 177.822204 
L 104.339454 173.110142 
L 104.410765 173.110142 
L 104.910127 173.110142 
L 104.910127 168.398079 
L 104.981443 168.398079 
L 105.195467 168.398079 
L 105.195467 163.686016 
L 105.26679 163.686016 
L 106.622103 163.686016 
L 106.622103 158.973953 
L 106.693419 158.973953 
L 111.187493 158.973953 
L 111.187493 154.26189 
L 111.258834 154.26189 
L 112.043531 154.26189 
L 112.043531 149.549827 
L 112.114869 149.549827 
L 112.328864 149.549827 
L 112.328864 144.837764 
L 112.400189 144.837764 
L 117.179548 144.837764 
L 117.179548 135.413638 
L 117.250902 135.413638 
L 117.464877 135.413638 
L 117.464877 130.701575 
L 117.536213 130.701575 
L 117.750211 130.701575 
L 117.821551 116.565386 
L 117.821551 116.565386 
L 118.891612 116.565386 
L 118.891612 111.853323 
L 118.962956 111.853323 
L 119.176907 111.853323 
L 119.176907 107.14126 
L 119.248242 107.14126 
L 119.462282 107.14126 
L 119.462282 111.853323 
L 119.533614 111.853323 
L 119.747594 111.853323 
L 119.747594 107.14126 
L 119.818945 107.14126 
L 120.032913 107.14126 
L 120.032913 102.429197 
L 120.104238 102.429197 
L 123.456998 102.429197 
L 123.456998 107.14126 
L 123.528278 107.14126 
L 124.312963 107.14126 
L 124.312963 93.005071 
L 124.384317 93.005071 
L 124.883656 93.005071 
L 124.883656 88.293008 
L 124.955025 88.293008 
L 125.454372 88.293008 
L 125.454372 69.444756 
L 125.525646 69.444756 
L 125.739709 69.444756 
L 125.739709 64.732693 
L 125.810981 64.732693 
L 132.01706 64.732693 
L 132.01706 60.02063 
L 132.088423 60.02063 
L 155.12938 60.02063 
L 155.12938 55.308567 
L 155.200671 55.308567 
L 159.694753 55.308567 
L 159.694753 50.596504 
L 159.766072 50.596504 
L 159.980055 50.596504 
L 159.980055 55.308567 
L 160.051377 55.308567 
L 160.550732 55.308567 
L 160.550732 50.596504 
L 160.622044 50.596504 
L 167.398856 50.596504 
L 167.398856 45.884441 
L 167.470266 45.884441 
L 179.097586 45.884441 
L 179.097586 50.596504 
L 179.168929 50.596504 
L 187.087026 50.596504 
L 187.087026 45.884441 
L 187.158363 45.884441 
L 199.356554 45.884441 
L 199.356554 50.596504 
L 199.427816 50.596504 
L 199.927149 50.596504 
L 199.927149 55.308567 
L 199.998483 55.308567 
L 200.783169 55.308567 
L 200.783169 60.02063 
L 200.854503 60.02063 
L 208.772606 60.02063 
L 208.772606 64.732693 
L 208.843921 64.732693 
L 221.042061 64.732693 
L 221.042061 69.444756 
L 221.113456 69.444756 
L 249.575785 69.444756 
L 249.575785 74.156819 
L 249.647103 74.156819 
L 303.005 74.156819 
L 303.005 74.156819 
" style="fill:none;stroke:#666666;stroke-linecap:square;stroke-width:1.5;"/>
   </g>
   <g id="line2d_29">
    <path clip-path="url(#paef76f3933)" d="M 55.905 196.670456 
L 62.247535 196.670456 
L 62.247535 191.958393 
L 70.669708 191.958393 
L 70.669708 187.24633 
L 70.741027 187.24633 
L 76.376419 187.24633 
L 76.376419 182.534267 
L 76.447752 182.534267 
L 76.947123 182.534267 
L 76.947123 177.822204 
L 77.018463 177.822204 
L 77.80313 177.822204 
L 77.80313 173.110142 
L 77.874503 173.110142 
L 78.088459 173.110142 
L 78.088459 168.398079 
L 78.15982 168.398079 
L 79.800491 168.398079 
L 79.800491 163.686016 
L 79.871831 163.686016 
L 104.339454 163.686016 
L 104.339454 154.26189 
L 104.410765 154.26189 
L 110.902175 154.26189 
L 110.902175 149.549827 
L 110.973499 149.549827 
L 112.328864 149.549827 
L 112.328864 144.837764 
L 112.400189 144.837764 
L 113.184898 144.837764 
L 113.184898 140.125701 
L 113.256225 140.125701 
L 117.464877 140.125701 
L 117.464877 135.413638 
L 117.536213 135.413638 
L 117.750211 135.413638 
L 117.750211 125.989512 
L 117.821551 125.989512 
L 118.606239 125.989512 
L 118.606239 116.565386 
L 118.6776 116.565386 
L 124.883656 116.565386 
L 124.883656 111.853323 
L 124.955025 111.853323 
L 125.739709 111.853323 
L 125.739709 107.14126 
L 125.810981 107.14126 
L 126.595661 107.14126 
L 126.595661 102.429197 
L 126.667005 102.429197 
L 133.729122 102.429197 
L 133.729122 97.717134 
L 133.80039 97.717134 
L 153.417334 97.717134 
L 153.417334 93.005071 
L 153.488639 93.005071 
L 159.980055 93.005071 
L 159.980055 88.293008 
L 160.051377 88.293008 
L 167.398856 88.293008 
L 167.398856 93.005071 
L 167.470266 93.005071 
L 200.212529 93.005071 
L 200.212529 88.293008 
L 200.283892 88.293008 
L 200.497842 88.293008 
L 200.497842 93.005071 
L 200.569186 93.005071 
L 207.631286 93.005071 
L 207.631286 88.293008 
L 207.702627 88.293008 
L 257.850491 88.293008 
L 257.850491 83.580945 
L 257.921884 83.580945 
L 303.005 83.580945 
L 303.005 83.580945 
" style="fill:none;stroke:#1b9e77;stroke-dasharray:4.5,1.5;stroke-dashoffset:0;stroke-width:1.5;"/>
   </g>
   <g id="line2d_30">
    <path clip-path="url(#paef76f3933)" d="M 55.905 206.094582 
L 69.813698 206.094582 
L 69.813698 201.382519 
L 69.885074 201.382519 
L 77.517795 201.382519 
L 77.517795 191.958393 
L 77.589137 191.958393 
L 103.483415 191.958393 
L 103.483415 187.24633 
L 103.554789 187.24633 
L 104.0541 187.24633 
L 104.0541 182.534267 
L 104.125397 182.534267 
L 104.910127 182.534267 
L 104.910127 177.822204 
L 104.981443 177.822204 
L 110.331488 177.822204 
L 110.331488 173.110142 
L 110.402827 173.110142 
L 110.616819 173.110142 
L 110.616819 163.686016 
L 110.688139 163.686016 
L 110.902175 163.686016 
L 110.902175 158.973953 
L 110.973499 158.973953 
L 111.472799 158.973953 
L 111.472799 154.26189 
L 111.544196 154.26189 
L 111.758192 154.26189 
L 111.758192 144.837764 
L 111.829515 144.837764 
L 112.043531 144.837764 
L 112.043531 135.413638 
L 112.114869 135.413638 
L 113.184898 135.413638 
L 113.184898 130.701575 
L 113.256225 130.701575 
L 113.755553 130.701575 
L 113.755553 125.989512 
L 113.826874 125.989512 
L 114.040837 125.989512 
L 114.040837 130.701575 
L 114.112246 130.701575 
L 116.608896 130.701575 
L 116.608896 135.413638 
L 116.680254 135.413638 
L 116.894203 135.413638 
L 116.894203 140.125701 
L 116.965549 140.125701 
L 117.179548 140.125701 
L 117.179548 135.413638 
L 117.250902 135.413638 
L 117.464877 135.413638 
L 117.464877 140.125701 
L 117.536213 140.125701 
L 117.750211 140.125701 
L 117.750211 135.413638 
L 117.821551 135.413638 
L 118.035577 135.413638 
L 118.035577 130.701575 
L 118.106907 130.701575 
L 118.606239 130.701575 
L 118.606239 135.413638 
L 118.6776 135.413638 
L 125.169002 135.413638 
L 125.169002 130.701575 
L 125.240348 130.701575 
L 125.739709 130.701575 
L 125.739709 125.989512 
L 125.810981 125.989512 
L 132.302434 125.989512 
L 132.302434 121.277449 
L 132.373719 121.277449 
L 134.299767 121.277449 
L 134.299767 116.565386 
L 134.371133 116.565386 
L 152.561316 116.565386 
L 152.561316 111.853323 
L 152.63261 111.853323 
L 152.846648 111.853323 
L 152.846648 107.14126 
L 152.917946 107.14126 
L 153.987966 107.14126 
L 153.987966 102.429197 
L 154.059386 102.429197 
L 167.398856 102.429197 
L 167.398856 97.717134 
L 167.470266 97.717134 
L 168.254791 97.717134 
L 168.254791 93.005071 
L 168.326195 93.005071 
L 182.521668 93.005071 
L 182.521668 88.293008 
L 182.592956 88.293008 
L 188.799044 88.293008 
L 188.799044 93.005071 
L 188.870423 93.005071 
L 199.927149 93.005071 
L 199.927149 97.717134 
L 199.998483 97.717134 
L 249.005098 97.717134 
L 249.005098 93.005071 
L 249.076409 93.005071 
L 297.227009 93.005071 
L 297.227009 88.293008 
L 297.298323 88.293008 
L 302.648385 88.293008 
L 302.648385 83.580945 
L 302.719673 83.580945 
L 303.005 83.580945 
L 303.005 83.580945 
" style="fill:none;stroke:#d95f02;stroke-dasharray:4.5,1.5;stroke-dashoffset:0;stroke-width:1.5;"/>
   </g>
   <g id="line2d_31">
    <path clip-path="url(#paef76f3933)" d="M 55.905 206.094582 
L 69.243064 206.094582 
L 69.243064 201.382519 
L 69.314404 201.382519 
L 69.528389 201.382519 
L 69.528389 196.670456 
L 69.599726 196.670456 
L 70.669708 196.670456 
L 70.669708 187.24633 
L 70.741027 187.24633 
L 76.091115 187.24633 
L 76.091115 182.534267 
L 76.162439 182.534267 
L 77.517795 182.534267 
L 77.517795 177.822204 
L 77.589137 177.822204 
L 77.80313 177.822204 
L 77.80313 173.110142 
L 77.874503 173.110142 
L 78.088459 173.110142 
L 78.088459 168.398079 
L 78.15982 168.398079 
L 104.0541 168.398079 
L 104.0541 163.686016 
L 104.125397 163.686016 
L 104.339454 163.686016 
L 104.339454 158.973953 
L 104.410765 158.973953 
L 104.62476 158.973953 
L 104.62476 149.549827 
L 104.69609 149.549827 
L 111.758192 149.549827 
L 111.758192 144.837764 
L 111.829515 144.837764 
L 112.043531 144.837764 
L 112.043531 140.125701 
L 112.114869 140.125701 
L 116.894203 140.125701 
L 116.894203 144.837764 
L 116.965549 144.837764 
L 117.750211 144.837764 
L 117.750211 135.413638 
L 117.821551 135.413638 
L 118.035577 135.413638 
L 118.035577 140.125701 
L 118.106907 140.125701 
L 118.32093 140.125701 
L 118.32093 135.413638 
L 118.392267 135.413638 
L 118.891612 135.413638 
L 118.891612 125.989512 
L 118.962956 125.989512 
L 119.176907 125.989512 
L 119.176907 121.277449 
L 119.248242 121.277449 
L 132.587722 121.277449 
L 132.587722 116.565386 
L 132.659093 116.565386 
L 133.443782 116.565386 
L 133.443782 111.853323 
L 133.51513 111.853323 
L 147.139897 111.853323 
L 147.139897 107.14126 
L 147.211264 107.14126 
L 173.105529 107.14126 
L 173.105529 102.429197 
L 173.176889 102.429197 
L 174.246874 102.429197 
L 174.246874 97.717134 
L 174.318231 97.717134 
L 179.953651 97.717134 
L 179.953651 93.005071 
L 180.024951 93.005071 
L 202.495255 93.005071 
L 202.495255 88.293008 
L 202.566572 88.293008 
L 303.005 88.293008 
L 303.005 88.293008 
" style="fill:none;stroke:#7570b3;stroke-dasharray:4.5,1.5;stroke-dashoffset:0;stroke-width:1.5;"/>
   </g>
   <g id="line2d_32">
    <path clip-path="url(#paef76f3933)" d="M 55.905 210.806645 
L 63.251235 210.806645 
L 63.251235 206.094582 
L 63.322307 206.094582 
L 63.821673 206.094582 
L 63.821673 201.382519 
L 63.892976 201.382519 
L 70.384367 201.382519 
L 70.384367 196.670456 
L 70.455723 196.670456 
L 77.80313 196.670456 
L 77.80313 191.958393 
L 77.874503 191.958393 
L 82.368526 191.958393 
L 82.368526 187.24633 
L 82.439923 187.24633 
L 83.795179 187.24633 
L 83.795179 182.534267 
L 83.866525 182.534267 
L 84.365878 182.534267 
L 84.365878 177.822204 
L 84.437227 177.822204 
L 103.483415 177.822204 
L 103.483415 168.398079 
L 103.554789 168.398079 
L 104.0541 168.398079 
L 104.0541 163.686016 
L 104.125397 163.686016 
L 104.339454 163.686016 
L 104.339454 158.973953 
L 104.410765 158.973953 
L 104.62476 158.973953 
L 104.62476 154.26189 
L 104.69609 154.26189 
L 104.910127 154.26189 
L 104.910127 144.837764 
L 104.981443 144.837764 
L 105.195467 144.837764 
L 105.195467 140.125701 
L 105.26679 140.125701 
L 105.766134 140.125701 
L 105.766134 135.413638 
L 105.837451 135.413638 
L 106.336832 135.413638 
L 106.336832 130.701575 
L 106.408078 130.701575 
L 107.192764 130.701575 
L 107.192764 125.989512 
L 107.2641 125.989512 
L 110.331488 125.989512 
L 110.331488 121.277449 
L 110.402827 121.277449 
L 110.616819 121.277449 
L 110.616819 116.565386 
L 110.688139 116.565386 
L 110.902175 116.565386 
L 110.902175 102.429197 
L 110.973499 102.429197 
L 111.187493 102.429197 
L 111.187493 97.717134 
L 111.258834 97.717134 
L 111.472799 97.717134 
L 111.472799 93.005071 
L 111.544196 93.005071 
L 114.040837 93.005071 
L 114.040837 97.717134 
L 114.112246 97.717134 
L 117.750211 97.717134 
L 117.750211 93.005071 
L 117.821551 93.005071 
L 118.035577 93.005071 
L 118.035577 97.717134 
L 118.106907 97.717134 
L 118.32093 97.717134 
L 118.32093 93.005071 
L 118.392267 93.005071 
L 126.310391 93.005071 
L 126.310391 97.717134 
L 126.381659 97.717134 
L 126.595661 97.717134 
L 126.595661 93.005071 
L 126.667005 93.005071 
L 303.005 93.005071 
L 303.005 93.005071 
" style="fill:none;stroke:#e7298a;stroke-dasharray:4.5,1.5;stroke-dashoffset:0;stroke-width:1.5;"/>
   </g>
   <g id="line2d_33">
    <path clip-path="url(#paef76f3933)" d="M 184.019657 210.806645 
L 186.516332 210.806645 
L 186.516332 206.094582 
L 186.587717 206.094582 
L 195.07649 206.094582 
L 195.07649 201.382519 
L 195.147801 201.382519 
L 199.356554 201.382519 
L 199.356554 182.534267 
L 199.427816 182.534267 
L 199.927149 182.534267 
L 199.927149 173.110142 
L 199.998483 173.110142 
L 200.497842 173.110142 
L 200.497842 158.973953 
L 200.569186 158.973953 
L 201.068506 158.973953 
L 201.068506 154.26189 
L 201.1399 154.26189 
L 206.775298 154.26189 
L 206.775298 149.549827 
L 206.846587 149.549827 
L 208.201964 149.549827 
L 208.201964 144.837764 
L 208.273253 144.837764 
L 208.772606 144.837764 
L 208.772606 140.125701 
L 208.843921 140.125701 
L 209.343282 140.125701 
L 209.343282 135.413638 
L 209.414652 135.413638 
L 209.628629 135.413638 
L 209.628629 130.701575 
L 209.699917 130.701575 
L 213.62336 130.701575 
L 213.62336 125.989512 
L 213.694661 125.989512 
L 216.191342 125.989512 
L 216.191342 121.277449 
L 216.262726 121.277449 
L 221.042061 121.277449 
L 221.042061 116.565386 
L 221.113456 116.565386 
L 303.005 116.565386 
L 303.005 116.565386 
" style="fill:none;stroke:#66a61e;stroke-dasharray:4.5,1.5;stroke-dashoffset:0;stroke-width:1.5;"/>
   </g>
   <g id="line2d_34">
    <path clip-path="url(#paef76f3933)" d="M 55.905 206.094582 
L 70.099033 206.094582 
L 70.099033 196.670456 
L 70.170337 196.670456 
L 76.376419 196.670456 
L 76.376419 187.24633 
L 76.447752 187.24633 
L 76.661741 187.24633 
L 76.661741 182.534267 
L 76.733081 182.534267 
L 77.80313 182.534267 
L 77.80313 177.822204 
L 77.874503 177.822204 
L 78.088459 177.822204 
L 78.088459 173.110142 
L 78.15982 173.110142 
L 104.62476 173.110142 
L 104.62476 168.398079 
L 104.69609 168.398079 
L 104.910127 168.398079 
L 104.910127 163.686016 
L 104.981443 163.686016 
L 105.195467 163.686016 
L 105.195467 158.973953 
L 105.26679 158.973953 
L 106.051414 158.973953 
L 106.051414 154.26189 
L 106.122812 154.26189 
L 106.336832 154.26189 
L 106.336832 158.973953 
L 106.408078 158.973953 
L 110.331488 158.973953 
L 110.331488 140.125701 
L 110.402827 140.125701 
L 110.902175 140.125701 
L 110.902175 130.701575 
L 110.973499 130.701575 
L 111.187493 130.701575 
L 111.187493 125.989512 
L 111.258834 125.989512 
L 111.472799 125.989512 
L 111.472799 116.565386 
L 111.544196 116.565386 
L 303.005 116.565386 
L 303.005 116.565386 
" style="fill:none;stroke:#e6ab02;stroke-dasharray:4.5,1.5;stroke-dashoffset:0;stroke-width:1.5;"/>
   </g>
   <g id="line2d_35">
    <path clip-path="url(#paef76f3933)" d="M 55.905 210.806645 
L 64.392279 210.806645 
L 64.392279 206.094582 
L 64.463645 206.094582 
L 65.533682 206.094582 
L 65.533682 201.382519 
L 65.604975 201.382519 
L 83.509894 201.382519 
L 83.509894 196.670456 
L 83.581182 196.670456 
L 103.483415 196.670456 
L 103.483415 191.958393 
L 103.554789 191.958393 
L 105.480761 191.958393 
L 105.480761 182.534267 
L 105.552081 182.534267 
L 110.902175 182.534267 
L 110.902175 177.822204 
L 110.973499 177.822204 
L 111.187493 177.822204 
L 111.187493 173.110142 
L 111.258834 173.110142 
L 112.043531 173.110142 
L 112.043531 163.686016 
L 112.114869 163.686016 
L 112.328864 163.686016 
L 112.328864 158.973953 
L 112.400189 158.973953 
L 114.040837 158.973953 
L 114.040837 154.26189 
L 114.112246 154.26189 
L 117.464877 154.26189 
L 117.464877 158.973953 
L 117.536213 158.973953 
L 118.035577 158.973953 
L 118.035577 154.26189 
L 118.106907 154.26189 
L 118.32093 154.26189 
L 118.32093 149.549827 
L 118.392267 149.549827 
L 118.891612 149.549827 
L 118.891612 144.837764 
L 118.962956 144.837764 
L 119.176907 144.837764 
L 119.176907 149.549827 
L 119.248242 149.549827 
L 119.462282 149.549827 
L 119.462282 144.837764 
L 119.533614 144.837764 
L 124.312963 144.837764 
L 124.312963 140.125701 
L 124.384317 140.125701 
L 133.443782 140.125701 
L 133.443782 135.413638 
L 133.51513 135.413638 
L 152.561316 135.413638 
L 152.561316 130.701575 
L 152.63261 130.701575 
L 179.668275 130.701575 
L 179.668275 125.989512 
L 179.739659 125.989512 
L 213.62336 125.989512 
L 213.62336 121.277449 
L 213.694661 121.277449 
L 249.575785 121.277449 
L 249.575785 116.565386 
L 249.647103 116.565386 
L 303.005 116.565386 
L 303.005 116.565386 
" style="fill:none;stroke:#a6761d;stroke-dasharray:4.5,1.5;stroke-dashoffset:0;stroke-width:1.5;"/>
   </g>
   <g id="line2d_36">
    <path clip-path="url(#paef76f3933)" d="M 55.905 210.806645 
L 70.669708 210.806645 
L 70.669708 206.094582 
L 70.741027 206.094582 
L 70.955087 206.094582 
L 70.955087 201.382519 
L 71.026402 201.382519 
L 76.661741 201.382519 
L 76.661741 196.670456 
L 76.733081 196.670456 
L 78.088459 196.670456 
L 78.088459 191.958393 
L 78.15982 191.958393 
L 78.659132 191.958393 
L 78.659132 187.24633 
L 78.730481 187.24633 
L 79.229835 187.24633 
L 79.229835 182.534267 
L 79.301173 182.534267 
L 83.509894 182.534267 
L 83.509894 187.24633 
L 83.581182 187.24633 
L 103.768792 187.24633 
L 103.768792 182.534267 
L 103.840055 182.534267 
L 105.480761 182.534267 
L 105.480761 173.110142 
L 105.552081 173.110142 
L 110.616819 173.110142 
L 110.616819 168.398079 
L 110.688139 168.398079 
L 111.758192 168.398079 
L 111.758192 149.549827 
L 111.829515 149.549827 
L 112.043531 149.549827 
L 112.043531 144.837764 
L 112.114869 144.837764 
L 112.328864 144.837764 
L 112.328864 140.125701 
L 112.400189 140.125701 
L 199.927149 140.125701 
L 199.927149 144.837764 
L 199.998483 144.837764 
L 200.212529 144.837764 
L 200.212529 140.125701 
L 200.283892 140.125701 
L 303.005 140.125701 
L 303.005 140.125701 
" style="fill:none;stroke:#666666;stroke-dasharray:4.5,1.5;stroke-dashoffset:0;stroke-width:1.5;"/>
   </g>
   <g id="line2d_37"/>
   <g id="line2d_38"/>
   <g id="line2d_39"/>
   <g id="line2d_40"/>
   <g id="line2d_41"/>
   <g id="line2d_42"/>
   <g id="line2d_43"/>
   <g id="line2d_44"/>
   <g id="line2d_45"/>
   <g id="line2d_46"/>
   <g id="line2d_47"/>
   <g id="line2d_48"/>
   <g id="line2d_49"/>
   <g id="line2d_50"/>
   <g id="line2d_51"/>
   <g id="line2d_52"/>
   <g id="line2d_53"/>
   <g id="patch_3">
    <path d="M 43.55 220.230771 
L 43.55 12.9 
" style="fill:none;stroke:#000000;stroke-linecap:square;stroke-linejoin:miter;stroke-width:0.8;"/>
   </g>
   <g id="patch_4">
    <path d="M 315.36 220.230771 
L 315.36 12.9 
" style="fill:none;stroke:#000000;stroke-linecap:square;stroke-linejoin:miter;stroke-width:0.8;"/>
   </g>
   <g id="patch_5">
    <path d="M 43.55 220.230771 
L 315.36 220.230771 
" style="fill:none;stroke:#000000;stroke-linecap:square;stroke-linejoin:miter;stroke-width:0.8;"/>
   </g>
   <g id="patch_6">
    <path d="M 43.55 12.9 
L 315.36 12.9 
" style="fill:none;stroke:#000000;stroke-linecap:square;stroke-linejoin:miter;stroke-width:0.8;"/>
   </g>
  </g>
  <g id="legend_1">
   <g id="patch_7">
    <path d="M 331.8625 262.528125 
L 420 262.528125 
Q 422 262.528125 422 260.528125 
L 422 12 
Q 422 10 420 10 
L 331.8625 10 
Q 329.8625 10 329.8625 12 
L 329.8625 260.528125 
Q 329.8625 262.528125 331.8625 262.528125 
z
" style="fill:#ffffff;opacity:0.8;stroke:#cccccc;stroke-linejoin:miter;"/>
   </g>
   <g id="text_23">
    <!-- 480/610 Reg. -->
    <defs>
     <path d="M 31.78125 34.625 
Q 24.75 34.625 20.71875 30.859375 
Q 16.703125 27.09375 16.703125 20.515625 
Q 16.703125 13.921875 20.71875 10.15625 
Q 24.75 6.390625 31.78125 6.390625 
Q 38.8125 6.390625 42.859375 10.171875 
Q 46.921875 13.96875 46.921875 20.515625 
Q 46.921875 27.09375 42.890625 30.859375 
Q 38.875 34.625 31.78125 34.625 
z
M 21.921875 38.8125 
Q 15.578125 40.375 12.03125 44.71875 
Q 8.5 49.078125 8.5 55.328125 
Q 8.5 64.0625 14.71875 69.140625 
Q 20.953125 74.21875 31.78125 74.21875 
Q 42.671875 74.21875 48.875 69.140625 
Q 55.078125 64.0625 55.078125 55.328125 
Q 55.078125 49.078125 51.53125 44.71875 
Q 48 40.375 41.703125 38.8125 
Q 48.828125 37.15625 52.796875 32.3125 
Q 56.78125 27.484375 56.78125 20.515625 
Q 56.78125 9.90625 50.3125 4.234375 
Q 43.84375 -1.421875 31.78125 -1.421875 
Q 19.734375 -1.421875 13.25 4.234375 
Q 6.78125 9.90625 6.78125 20.515625 
Q 6.78125 27.484375 10.78125 32.3125 
Q 14.796875 37.15625 21.921875 38.8125 
z
M 18.3125 54.390625 
Q 18.3125 48.734375 21.84375 45.5625 
Q 25.390625 42.390625 31.78125 42.390625 
Q 38.140625 42.390625 41.71875 45.5625 
Q 45.3125 48.734375 45.3125 54.390625 
Q 45.3125 60.0625 41.71875 63.234375 
Q 38.140625 66.40625 31.78125 66.40625 
Q 25.390625 66.40625 21.84375 63.234375 
Q 18.3125 60.0625 18.3125 54.390625 
z
" id="DejaVuSans-56"/>
     <path d="M 25.390625 72.90625 
L 33.6875 72.90625 
L 8.296875 -9.28125 
L 0 -9.28125 
z
" id="DejaVuSans-47"/>
     <path d="M 33.015625 40.375 
Q 26.375 40.375 22.484375 35.828125 
Q 18.609375 31.296875 18.609375 23.390625 
Q 18.609375 15.53125 22.484375 10.953125 
Q 26.375 6.390625 33.015625 6.390625 
Q 39.65625 6.390625 43.53125 10.953125 
Q 47.40625 15.53125 47.40625 23.390625 
Q 47.40625 31.296875 43.53125 35.828125 
Q 39.65625 40.375 33.015625 40.375 
z
M 52.59375 71.296875 
L 52.59375 62.3125 
Q 48.875 64.0625 45.09375 64.984375 
Q 41.3125 65.921875 37.59375 65.921875 
Q 27.828125 65.921875 22.671875 59.328125 
Q 17.53125 52.734375 16.796875 39.40625 
Q 19.671875 43.65625 24.015625 45.921875 
Q 28.375 48.1875 33.59375 48.1875 
Q 44.578125 48.1875 50.953125 41.515625 
Q 57.328125 34.859375 57.328125 23.390625 
Q 57.328125 12.15625 50.6875 5.359375 
Q 44.046875 -1.421875 33.015625 -1.421875 
Q 20.359375 -1.421875 13.671875 8.265625 
Q 6.984375 17.96875 6.984375 36.375 
Q 6.984375 53.65625 15.1875 63.9375 
Q 23.390625 74.21875 37.203125 74.21875 
Q 40.921875 74.21875 44.703125 73.484375 
Q 48.484375 72.75 52.59375 71.296875 
z
" id="DejaVuSans-54"/>
     <path d="M 10.6875 12.40625 
L 21 12.40625 
L 21 0 
L 10.6875 0 
z
" id="DejaVuSans-46"/>
    </defs>
    <g transform="translate(342.259375 21.598437)scale(0.1 -0.1)">
     <use xlink:href="#DejaVuSans-52"/>
     <use x="63.623047" xlink:href="#DejaVuSans-56"/>
     <use x="127.246094" xlink:href="#DejaVuSans-48"/>
     <use x="190.869141" xlink:href="#DejaVuSans-47"/>
     <use x="224.560547" xlink:href="#DejaVuSans-54"/>
     <use x="288.183594" xlink:href="#DejaVuSans-49"/>
     <use x="351.806641" xlink:href="#DejaVuSans-48"/>
     <use x="415.429688" xlink:href="#DejaVuSans-32"/>
     <use x="447.216797" xlink:href="#DejaVuSans-82"/>
     <use x="516.636719" xlink:href="#DejaVuSans-101"/>
     <use x="578.160156" xlink:href="#DejaVuSans-103"/>
     <use x="641.636719" xlink:href="#DejaVuSans-46"/>
    </g>
   </g>
   <g id="line2d_54">
    <path d="M 333.8625 32.776562 
L 353.8625 32.776562 
" style="fill:none;stroke:#1b9e77;stroke-linecap:square;stroke-width:1.5;"/>
   </g>
   <g id="line2d_55"/>
   <g id="text_24">
    <!-- AUS (40) -->
    <defs>
     <path d="M 34.1875 63.1875 
L 20.796875 26.90625 
L 47.609375 26.90625 
z
M 28.609375 72.90625 
L 39.796875 72.90625 
L 67.578125 0 
L 57.328125 0 
L 50.6875 18.703125 
L 17.828125 18.703125 
L 11.1875 0 
L 0.78125 0 
z
" id="DejaVuSans-65"/>
     <path d="M 8.6875 72.90625 
L 18.609375 72.90625 
L 18.609375 28.609375 
Q 18.609375 16.890625 22.84375 11.734375 
Q 27.09375 6.59375 36.625 6.59375 
Q 46.09375 6.59375 50.34375 11.734375 
Q 54.59375 16.890625 54.59375 28.609375 
L 54.59375 72.90625 
L 64.5 72.90625 
L 64.5 27.390625 
Q 64.5 13.140625 57.4375 5.859375 
Q 50.390625 -1.421875 36.625 -1.421875 
Q 22.796875 -1.421875 15.734375 5.859375 
Q 8.6875 13.140625 8.6875 27.390625 
z
" id="DejaVuSans-85"/>
     <path d="M 31 75.875 
Q 24.46875 64.65625 21.28125 53.65625 
Q 18.109375 42.671875 18.109375 31.390625 
Q 18.109375 20.125 21.3125 9.0625 
Q 24.515625 -2 31 -13.1875 
L 23.1875 -13.1875 
Q 15.875 -1.703125 12.234375 9.375 
Q 8.59375 20.453125 8.59375 31.390625 
Q 8.59375 42.28125 12.203125 53.3125 
Q 15.828125 64.359375 23.1875 75.875 
z
" id="DejaVuSans-40"/>
     <path d="M 8.015625 75.875 
L 15.828125 75.875 
Q 23.140625 64.359375 26.78125 53.3125 
Q 30.421875 42.28125 30.421875 31.390625 
Q 30.421875 20.453125 26.78125 9.375 
Q 23.140625 -1.703125 15.828125 -13.1875 
L 8.015625 -13.1875 
Q 14.5 -2 17.703125 9.0625 
Q 20.90625 20.125 20.90625 31.390625 
Q 20.90625 42.671875 17.703125 53.65625 
Q 14.5 64.65625 8.015625 75.875 
z
" id="DejaVuSans-41"/>
    </defs>
    <g transform="translate(361.8625 36.276562)scale(0.1 -0.1)">
     <use xlink:href="#DejaVuSans-65"/>
     <use x="68.408203" xlink:href="#DejaVuSans-85"/>
     <use x="141.601562" xlink:href="#DejaVuSans-83"/>
     <use x="205.078125" xlink:href="#DejaVuSans-32"/>
     <use x="236.865234" xlink:href="#DejaVuSans-40"/>
     <use x="275.878906" xlink:href="#DejaVuSans-52"/>
     <use x="339.501953" xlink:href="#DejaVuSans-48"/>
     <use x="403.125" xlink:href="#DejaVuSans-41"/>
    </g>
   </g>
   <g id="line2d_56">
    <path d="M 333.8625 47.454688 
L 353.8625 47.454688 
" style="fill:none;stroke:#d95f02;stroke-linecap:square;stroke-width:1.5;"/>
   </g>
   <g id="line2d_57"/>
   <g id="text_25">
    <!-- COML (40) -->
    <defs>
     <path d="M 64.40625 67.28125 
L 64.40625 56.890625 
Q 59.421875 61.53125 53.78125 63.8125 
Q 48.140625 66.109375 41.796875 66.109375 
Q 29.296875 66.109375 22.65625 58.46875 
Q 16.015625 50.828125 16.015625 36.375 
Q 16.015625 21.96875 22.65625 14.328125 
Q 29.296875 6.6875 41.796875 6.6875 
Q 48.140625 6.6875 53.78125 8.984375 
Q 59.421875 11.28125 64.40625 15.921875 
L 64.40625 5.609375 
Q 59.234375 2.09375 53.4375 0.328125 
Q 47.65625 -1.421875 41.21875 -1.421875 
Q 24.65625 -1.421875 15.125 8.703125 
Q 5.609375 18.84375 5.609375 36.375 
Q 5.609375 53.953125 15.125 64.078125 
Q 24.65625 74.21875 41.21875 74.21875 
Q 47.75 74.21875 53.53125 72.484375 
Q 59.328125 70.75 64.40625 67.28125 
z
" id="DejaVuSans-67"/>
     <path d="M 39.40625 66.21875 
Q 28.65625 66.21875 22.328125 58.203125 
Q 16.015625 50.203125 16.015625 36.375 
Q 16.015625 22.609375 22.328125 14.59375 
Q 28.65625 6.59375 39.40625 6.59375 
Q 50.140625 6.59375 56.421875 14.59375 
Q 62.703125 22.609375 62.703125 36.375 
Q 62.703125 50.203125 56.421875 58.203125 
Q 50.140625 66.21875 39.40625 66.21875 
z
M 39.40625 74.21875 
Q 54.734375 74.21875 63.90625 63.9375 
Q 73.09375 53.65625 73.09375 36.375 
Q 73.09375 19.140625 63.90625 8.859375 
Q 54.734375 -1.421875 39.40625 -1.421875 
Q 24.03125 -1.421875 14.8125 8.828125 
Q 5.609375 19.09375 5.609375 36.375 
Q 5.609375 53.65625 14.8125 63.9375 
Q 24.03125 74.21875 39.40625 74.21875 
z
" id="DejaVuSans-79"/>
     <path d="M 9.8125 72.90625 
L 24.515625 72.90625 
L 43.109375 23.296875 
L 61.8125 72.90625 
L 76.515625 72.90625 
L 76.515625 0 
L 66.890625 0 
L 66.890625 64.015625 
L 48.09375 14.015625 
L 38.1875 14.015625 
L 19.390625 64.015625 
L 19.390625 0 
L 9.8125 0 
z
" id="DejaVuSans-77"/>
     <path d="M 9.8125 72.90625 
L 19.671875 72.90625 
L 19.671875 8.296875 
L 55.171875 8.296875 
L 55.171875 0 
L 9.8125 0 
z
" id="DejaVuSans-76"/>
    </defs>
    <g transform="translate(361.8625 50.954688)scale(0.1 -0.1)">
     <use xlink:href="#DejaVuSans-67"/>
     <use x="69.824219" xlink:href="#DejaVuSans-79"/>
     <use x="148.535156" xlink:href="#DejaVuSans-77"/>
     <use x="234.814453" xlink:href="#DejaVuSans-76"/>
     <use x="290.527344" xlink:href="#DejaVuSans-32"/>
     <use x="322.314453" xlink:href="#DejaVuSans-40"/>
     <use x="361.328125" xlink:href="#DejaVuSans-52"/>
     <use x="424.951172" xlink:href="#DejaVuSans-48"/>
     <use x="488.574219" xlink:href="#DejaVuSans-41"/>
    </g>
   </g>
   <g id="line2d_58">
    <path d="M 333.8625 62.132812 
L 353.8625 62.132812 
" style="fill:none;stroke:#7570b3;stroke-linecap:square;stroke-width:1.5;"/>
   </g>
   <g id="line2d_59"/>
   <g id="text_26">
    <!-- GDD (40) -->
    <defs>
     <path d="M 59.515625 10.40625 
L 59.515625 29.984375 
L 43.40625 29.984375 
L 43.40625 38.09375 
L 69.28125 38.09375 
L 69.28125 6.78125 
Q 63.578125 2.734375 56.6875 0.65625 
Q 49.8125 -1.421875 42 -1.421875 
Q 24.90625 -1.421875 15.25 8.5625 
Q 5.609375 18.5625 5.609375 36.375 
Q 5.609375 54.25 15.25 64.234375 
Q 24.90625 74.21875 42 74.21875 
Q 49.125 74.21875 55.546875 72.453125 
Q 61.96875 70.703125 67.390625 67.28125 
L 67.390625 56.78125 
Q 61.921875 61.421875 55.765625 63.765625 
Q 49.609375 66.109375 42.828125 66.109375 
Q 29.4375 66.109375 22.71875 58.640625 
Q 16.015625 51.171875 16.015625 36.375 
Q 16.015625 21.625 22.71875 14.15625 
Q 29.4375 6.6875 42.828125 6.6875 
Q 48.046875 6.6875 52.140625 7.59375 
Q 56.25 8.5 59.515625 10.40625 
z
" id="DejaVuSans-71"/>
    </defs>
    <g transform="translate(361.8625 65.632812)scale(0.1 -0.1)">
     <use xlink:href="#DejaVuSans-71"/>
     <use x="77.490234" xlink:href="#DejaVuSans-68"/>
     <use x="154.492188" xlink:href="#DejaVuSans-68"/>
     <use x="231.494141" xlink:href="#DejaVuSans-32"/>
     <use x="263.28125" xlink:href="#DejaVuSans-40"/>
     <use x="302.294922" xlink:href="#DejaVuSans-52"/>
     <use x="365.917969" xlink:href="#DejaVuSans-48"/>
     <use x="429.541016" xlink:href="#DejaVuSans-41"/>
    </g>
   </g>
   <g id="line2d_60">
    <path d="M 333.8625 76.810937 
L 353.8625 76.810937 
" style="fill:none;stroke:#e7298a;stroke-linecap:square;stroke-width:1.5;"/>
   </g>
   <g id="line2d_61"/>
   <g id="text_27">
    <!-- AS (38) -->
    <g transform="translate(361.8625 80.310937)scale(0.1 -0.1)">
     <use xlink:href="#DejaVuSans-65"/>
     <use x="68.408203" xlink:href="#DejaVuSans-83"/>
     <use x="131.884766" xlink:href="#DejaVuSans-32"/>
     <use x="163.671875" xlink:href="#DejaVuSans-40"/>
     <use x="202.685547" xlink:href="#DejaVuSans-51"/>
     <use x="266.308594" xlink:href="#DejaVuSans-56"/>
     <use x="329.931641" xlink:href="#DejaVuSans-41"/>
    </g>
   </g>
   <g id="line2d_62">
    <path d="M 333.8625 91.489062 
L 353.8625 91.489062 
" style="fill:none;stroke:#66a61e;stroke-linecap:square;stroke-width:1.5;"/>
   </g>
   <g id="line2d_63"/>
   <g id="text_28">
    <!-- MD (38) -->
    <g transform="translate(361.8625 94.989062)scale(0.1 -0.1)">
     <use xlink:href="#DejaVuSans-77"/>
     <use x="86.279297" xlink:href="#DejaVuSans-68"/>
     <use x="163.28125" xlink:href="#DejaVuSans-32"/>
     <use x="195.068359" xlink:href="#DejaVuSans-40"/>
     <use x="234.082031" xlink:href="#DejaVuSans-51"/>
     <use x="297.705078" xlink:href="#DejaVuSans-56"/>
     <use x="361.328125" xlink:href="#DejaVuSans-41"/>
    </g>
   </g>
   <g id="line2d_64">
    <path d="M 333.8625 106.167188 
L 353.8625 106.167188 
" style="fill:none;stroke:#e6ab02;stroke-linecap:square;stroke-width:1.5;"/>
   </g>
   <g id="line2d_65"/>
   <g id="text_29">
    <!-- HPI (38) -->
    <defs>
     <path d="M 9.8125 72.90625 
L 19.671875 72.90625 
L 19.671875 43.015625 
L 55.515625 43.015625 
L 55.515625 72.90625 
L 65.375 72.90625 
L 65.375 0 
L 55.515625 0 
L 55.515625 34.71875 
L 19.671875 34.71875 
L 19.671875 0 
L 9.8125 0 
z
" id="DejaVuSans-72"/>
     <path d="M 19.671875 64.796875 
L 19.671875 37.40625 
L 32.078125 37.40625 
Q 38.96875 37.40625 42.71875 40.96875 
Q 46.484375 44.53125 46.484375 51.125 
Q 46.484375 57.671875 42.71875 61.234375 
Q 38.96875 64.796875 32.078125 64.796875 
z
M 9.8125 72.90625 
L 32.078125 72.90625 
Q 44.34375 72.90625 50.609375 67.359375 
Q 56.890625 61.8125 56.890625 51.125 
Q 56.890625 40.328125 50.609375 34.8125 
Q 44.34375 29.296875 32.078125 29.296875 
L 19.671875 29.296875 
L 19.671875 0 
L 9.8125 0 
z
" id="DejaVuSans-80"/>
     <path d="M 9.8125 72.90625 
L 19.671875 72.90625 
L 19.671875 0 
L 9.8125 0 
z
" id="DejaVuSans-73"/>
    </defs>
    <g transform="translate(361.8625 109.667188)scale(0.1 -0.1)">
     <use xlink:href="#DejaVuSans-72"/>
     <use x="75.195312" xlink:href="#DejaVuSans-80"/>
     <use x="135.498047" xlink:href="#DejaVuSans-73"/>
     <use x="164.990234" xlink:href="#DejaVuSans-32"/>
     <use x="196.777344" xlink:href="#DejaVuSans-40"/>
     <use x="235.791016" xlink:href="#DejaVuSans-51"/>
     <use x="299.414062" xlink:href="#DejaVuSans-56"/>
     <use x="363.037109" xlink:href="#DejaVuSans-41"/>
    </g>
   </g>
   <g id="line2d_66">
    <path d="M 333.8625 120.845312 
L 353.8625 120.845312 
" style="fill:none;stroke:#a6761d;stroke-linecap:square;stroke-width:1.5;"/>
   </g>
   <g id="line2d_67"/>
   <g id="text_30">
    <!-- SA (37) -->
    <g transform="translate(361.8625 124.345312)scale(0.1 -0.1)">
     <use xlink:href="#DejaVuSans-83"/>
     <use x="63.492188" xlink:href="#DejaVuSans-65"/>
     <use x="131.900391" xlink:href="#DejaVuSans-32"/>
     <use x="163.6875" xlink:href="#DejaVuSans-40"/>
     <use x="202.701172" xlink:href="#DejaVuSans-51"/>
     <use x="266.324219" xlink:href="#DejaVuSans-55"/>
     <use x="329.947266" xlink:href="#DejaVuSans-41"/>
    </g>
   </g>
   <g id="line2d_68">
    <path d="M 333.8625 135.523438 
L 353.8625 135.523438 
" style="fill:none;stroke:#666666;stroke-linecap:square;stroke-width:1.5;"/>
   </g>
   <g id="line2d_69"/>
   <g id="text_31">
    <!-- FIT (29) -->
    <defs>
     <path d="M 9.8125 72.90625 
L 51.703125 72.90625 
L 51.703125 64.59375 
L 19.671875 64.59375 
L 19.671875 43.109375 
L 48.578125 43.109375 
L 48.578125 34.8125 
L 19.671875 34.8125 
L 19.671875 0 
L 9.8125 0 
z
" id="DejaVuSans-70"/>
     <path d="M -0.296875 72.90625 
L 61.375 72.90625 
L 61.375 64.59375 
L 35.5 64.59375 
L 35.5 0 
L 25.59375 0 
L 25.59375 64.59375 
L -0.296875 64.59375 
z
" id="DejaVuSans-84"/>
    </defs>
    <g transform="translate(361.8625 139.023438)scale(0.1 -0.1)">
     <use xlink:href="#DejaVuSans-70"/>
     <use x="57.519531" xlink:href="#DejaVuSans-73"/>
     <use x="87.011719" xlink:href="#DejaVuSans-84"/>
     <use x="148.095703" xlink:href="#DejaVuSans-32"/>
     <use x="179.882812" xlink:href="#DejaVuSans-40"/>
     <use x="218.896484" xlink:href="#DejaVuSans-50"/>
     <use x="282.519531" xlink:href="#DejaVuSans-57"/>
     <use x="346.142578" xlink:href="#DejaVuSans-41"/>
    </g>
   </g>
   <g id="line2d_70">
    <path d="M 333.8625 150.201562 
L 353.8625 150.201562 
" style="fill:none;stroke:#1b9e77;stroke-dasharray:4.5,1.5;stroke-dashoffset:0;stroke-width:1.5;"/>
   </g>
   <g id="line2d_71"/>
   <g id="text_32">
    <!-- TBI (27) -->
    <defs>
     <path d="M 19.671875 34.8125 
L 19.671875 8.109375 
L 35.5 8.109375 
Q 43.453125 8.109375 47.28125 11.40625 
Q 51.125 14.703125 51.125 21.484375 
Q 51.125 28.328125 47.28125 31.5625 
Q 43.453125 34.8125 35.5 34.8125 
z
M 19.671875 64.796875 
L 19.671875 42.828125 
L 34.28125 42.828125 
Q 41.5 42.828125 45.03125 45.53125 
Q 48.578125 48.25 48.578125 53.8125 
Q 48.578125 59.328125 45.03125 62.0625 
Q 41.5 64.796875 34.28125 64.796875 
z
M 9.8125 72.90625 
L 35.015625 72.90625 
Q 46.296875 72.90625 52.390625 68.21875 
Q 58.5 63.53125 58.5 54.890625 
Q 58.5 48.1875 55.375 44.234375 
Q 52.25 40.28125 46.1875 39.3125 
Q 53.46875 37.75 57.5 32.78125 
Q 61.53125 27.828125 61.53125 20.40625 
Q 61.53125 10.640625 54.890625 5.3125 
Q 48.25 0 35.984375 0 
L 9.8125 0 
z
" id="DejaVuSans-66"/>
    </defs>
    <g transform="translate(361.8625 153.701562)scale(0.1 -0.1)">
     <use xlink:href="#DejaVuSans-84"/>
     <use x="61.083984" xlink:href="#DejaVuSans-66"/>
     <use x="129.6875" xlink:href="#DejaVuSans-73"/>
     <use x="159.179688" xlink:href="#DejaVuSans-32"/>
     <use x="190.966797" xlink:href="#DejaVuSans-40"/>
     <use x="229.980469" xlink:href="#DejaVuSans-50"/>
     <use x="293.603516" xlink:href="#DejaVuSans-55"/>
     <use x="357.226562" xlink:href="#DejaVuSans-41"/>
    </g>
   </g>
   <g id="line2d_72">
    <path d="M 333.8625 164.879687 
L 353.8625 164.879687 
" style="fill:none;stroke:#d95f02;stroke-dasharray:4.5,1.5;stroke-dashoffset:0;stroke-width:1.5;"/>
   </g>
   <g id="line2d_73"/>
   <g id="text_33">
    <!-- SPD (27) -->
    <g transform="translate(361.8625 168.379687)scale(0.1 -0.1)">
     <use xlink:href="#DejaVuSans-83"/>
     <use x="63.476562" xlink:href="#DejaVuSans-80"/>
     <use x="123.779297" xlink:href="#DejaVuSans-68"/>
     <use x="200.78125" xlink:href="#DejaVuSans-32"/>
     <use x="232.568359" xlink:href="#DejaVuSans-40"/>
     <use x="271.582031" xlink:href="#DejaVuSans-50"/>
     <use x="335.205078" xlink:href="#DejaVuSans-55"/>
     <use x="398.828125" xlink:href="#DejaVuSans-41"/>
    </g>
   </g>
   <g id="line2d_74">
    <path d="M 333.8625 179.557812 
L 353.8625 179.557812 
" style="fill:none;stroke:#7570b3;stroke-dasharray:4.5,1.5;stroke-dashoffset:0;stroke-width:1.5;"/>
   </g>
   <g id="line2d_75"/>
   <g id="text_34">
    <!-- BP (26) -->
    <g transform="translate(361.8625 183.057812)scale(0.1 -0.1)">
     <use xlink:href="#DejaVuSans-66"/>
     <use x="68.603516" xlink:href="#DejaVuSans-80"/>
     <use x="128.90625" xlink:href="#DejaVuSans-32"/>
     <use x="160.693359" xlink:href="#DejaVuSans-40"/>
     <use x="199.707031" xlink:href="#DejaVuSans-50"/>
     <use x="263.330078" xlink:href="#DejaVuSans-54"/>
     <use x="326.953125" xlink:href="#DejaVuSans-41"/>
    </g>
   </g>
   <g id="line2d_76">
    <path d="M 333.8625 194.235937 
L 353.8625 194.235937 
" style="fill:none;stroke:#e7298a;stroke-dasharray:4.5,1.5;stroke-dashoffset:0;stroke-width:1.5;"/>
   </g>
   <g id="line2d_77"/>
   <g id="text_35">
    <!-- CC (25) -->
    <g transform="translate(361.8625 197.735937)scale(0.1 -0.1)">
     <use xlink:href="#DejaVuSans-67"/>
     <use x="69.824219" xlink:href="#DejaVuSans-67"/>
     <use x="139.648438" xlink:href="#DejaVuSans-32"/>
     <use x="171.435547" xlink:href="#DejaVuSans-40"/>
     <use x="210.449219" xlink:href="#DejaVuSans-50"/>
     <use x="274.072266" xlink:href="#DejaVuSans-53"/>
     <use x="337.695312" xlink:href="#DejaVuSans-41"/>
    </g>
   </g>
   <g id="line2d_78">
    <path d="M 333.8625 208.914062 
L 353.8625 208.914062 
" style="fill:none;stroke:#66a61e;stroke-dasharray:4.5,1.5;stroke-dashoffset:0;stroke-width:1.5;"/>
   </g>
   <g id="line2d_79"/>
   <g id="text_36">
    <!-- RJPH (20) -->
    <defs>
     <path d="M 9.8125 72.90625 
L 19.671875 72.90625 
L 19.671875 5.078125 
Q 19.671875 -8.109375 14.671875 -14.0625 
Q 9.671875 -20.015625 -1.421875 -20.015625 
L -5.171875 -20.015625 
L -5.171875 -11.71875 
L -2.09375 -11.71875 
Q 4.4375 -11.71875 7.125 -8.046875 
Q 9.8125 -4.390625 9.8125 5.078125 
z
" id="DejaVuSans-74"/>
    </defs>
    <g transform="translate(361.8625 212.414062)scale(0.1 -0.1)">
     <use xlink:href="#DejaVuSans-82"/>
     <use x="69.482422" xlink:href="#DejaVuSans-74"/>
     <use x="98.974609" xlink:href="#DejaVuSans-80"/>
     <use x="159.277344" xlink:href="#DejaVuSans-72"/>
     <use x="234.472656" xlink:href="#DejaVuSans-32"/>
     <use x="266.259766" xlink:href="#DejaVuSans-40"/>
     <use x="305.273438" xlink:href="#DejaVuSans-50"/>
     <use x="368.896484" xlink:href="#DejaVuSans-48"/>
     <use x="432.519531" xlink:href="#DejaVuSans-41"/>
    </g>
   </g>
   <g id="line2d_80">
    <path d="M 333.8625 223.592187 
L 353.8625 223.592187 
" style="fill:none;stroke:#e6ab02;stroke-dasharray:4.5,1.5;stroke-dashoffset:0;stroke-width:1.5;"/>
   </g>
   <g id="line2d_81"/>
   <g id="text_37">
    <!-- AHR-H (20) -->
    <g transform="translate(361.8625 227.092187)scale(0.1 -0.1)">
     <use xlink:href="#DejaVuSans-65"/>
     <use x="68.408203" xlink:href="#DejaVuSans-72"/>
     <use x="143.603516" xlink:href="#DejaVuSans-82"/>
     <use x="213.023438" xlink:href="#DejaVuSans-45"/>
     <use x="249.107422" xlink:href="#DejaVuSans-72"/>
     <use x="324.302734" xlink:href="#DejaVuSans-32"/>
     <use x="356.089844" xlink:href="#DejaVuSans-40"/>
     <use x="395.103516" xlink:href="#DejaVuSans-50"/>
     <use x="458.726562" xlink:href="#DejaVuSans-48"/>
     <use x="522.349609" xlink:href="#DejaVuSans-41"/>
    </g>
   </g>
   <g id="line2d_82">
    <path d="M 333.8625 238.270312 
L 353.8625 238.270312 
" style="fill:none;stroke:#a6761d;stroke-dasharray:4.5,1.5;stroke-dashoffset:0;stroke-width:1.5;"/>
   </g>
   <g id="line2d_83"/>
   <g id="text_38">
    <!-- CB (20) -->
    <g transform="translate(361.8625 241.770312)scale(0.1 -0.1)">
     <use xlink:href="#DejaVuSans-67"/>
     <use x="69.824219" xlink:href="#DejaVuSans-66"/>
     <use x="138.427734" xlink:href="#DejaVuSans-32"/>
     <use x="170.214844" xlink:href="#DejaVuSans-40"/>
     <use x="209.228516" xlink:href="#DejaVuSans-50"/>
     <use x="272.851562" xlink:href="#DejaVuSans-48"/>
     <use x="336.474609" xlink:href="#DejaVuSans-41"/>
    </g>
   </g>
   <g id="line2d_84">
    <path d="M 333.8625 252.948437 
L 353.8625 252.948437 
" style="fill:none;stroke:#666666;stroke-dasharray:4.5,1.5;stroke-dashoffset:0;stroke-width:1.5;"/>
   </g>
   <g id="line2d_85"/>
   <g id="text_39">
    <!-- AHR-A (15) -->
    <g transform="translate(361.8625 256.448437)scale(0.1 -0.1)">
     <use xlink:href="#DejaVuSans-65"/>
     <use x="68.408203" xlink:href="#DejaVuSans-72"/>
     <use x="143.603516" xlink:href="#DejaVuSans-82"/>
     <use x="213.023438" xlink:href="#DejaVuSans-45"/>
     <use x="249.076172" xlink:href="#DejaVuSans-65"/>
     <use x="317.484375" xlink:href="#DejaVuSans-32"/>
     <use x="349.271484" xlink:href="#DejaVuSans-40"/>
     <use x="388.285156" xlink:href="#DejaVuSans-49"/>
     <use x="451.908203" xlink:href="#DejaVuSans-53"/>
     <use x="515.53125" xlink:href="#DejaVuSans-41"/>
    </g>
   </g>
  </g>
 </g>
 <defs>
  <clipPath id="paef76f3933">
   <rect height="207.330771" width="271.81" x="43.55" y="12.9"/>
  </clipPath>
 </defs>
</svg>
