<?xml version="1.0" encoding="utf-8" standalone="no"?>
<!DOCTYPE svg PUBLIC "-//W3C//DTD SVG 1.1//EN"
  "http://www.w3.org/Graphics/SVG/1.1/DTD/svg11.dtd">
<!-- Created with matplotlib (https://matplotlib.org/) -->
<svg height="288pt" version="1.1" viewBox="0 0 432 288" width="432pt" xmlns="http://www.w3.org/2000/svg" xmlns:xlink="http://www.w3.org/1999/xlink">
 <defs>
  <style type="text/css">
*{stroke-linecap:butt;stroke-linejoin:round;}
  </style>
 </defs>
 <g id="figure_1">
  <g id="patch_1">
   <path d="M 0 288 
L 432 288 
L 432 0 
L 0 0 
z
" style="fill:#ffffff;"/>
  </g>
  <g id="axes_1">
   <g id="patch_2">
    <path d="M 43.55 220.230771 
L 315.36 220.230771 
L 315.36 12.9 
L 43.55 12.9 
z
" style="fill:#ffffff;"/>
   </g>
   <g id="matplotlib.axis_1">
    <g id="xtick_1">
     <g id="line2d_1">
      <defs>
       <path d="M 0 0 
L 0 3.5 
" id="m824bdb22f5" style="stroke:#000000;stroke-width:0.8;"/>
      </defs>
      <g>
       <use style="stroke:#000000;stroke-width:0.8;" x="49.316195" xlink:href="#m824bdb22f5" y="220.230771"/>
      </g>
     </g>
     <g id="text_1">
      <!-- 2020-11-29 -->
      <defs>
       <path d="M 19.1875 8.296875 
L 53.609375 8.296875 
L 53.609375 0 
L 7.328125 0 
L 7.328125 8.296875 
Q 12.9375 14.109375 22.625 23.890625 
Q 32.328125 33.6875 34.8125 36.53125 
Q 39.546875 41.84375 41.421875 45.53125 
Q 43.3125 49.21875 43.3125 52.78125 
Q 43.3125 58.59375 39.234375 62.25 
Q 35.15625 65.921875 28.609375 65.921875 
Q 23.96875 65.921875 18.8125 64.3125 
Q 13.671875 62.703125 7.8125 59.421875 
L 7.8125 69.390625 
Q 13.765625 71.78125 18.9375 73 
Q 24.125 74.21875 28.421875 74.21875 
Q 39.75 74.21875 46.484375 68.546875 
Q 53.21875 62.890625 53.21875 53.421875 
Q 53.21875 48.921875 51.53125 44.890625 
Q 49.859375 40.875 45.40625 35.40625 
Q 44.1875 33.984375 37.640625 27.21875 
Q 31.109375 20.453125 19.1875 8.296875 
z
" id="DejaVuSans-50"/>
       <path d="M 31.78125 66.40625 
Q 24.171875 66.40625 20.328125 58.90625 
Q 16.5 51.421875 16.5 36.375 
Q 16.5 21.390625 20.328125 13.890625 
Q 24.171875 6.390625 31.78125 6.390625 
Q 39.453125 6.390625 43.28125 13.890625 
Q 47.125 21.390625 47.125 36.375 
Q 47.125 51.421875 43.28125 58.90625 
Q 39.453125 66.40625 31.78125 66.40625 
z
M 31.78125 74.21875 
Q 44.046875 74.21875 50.515625 64.515625 
Q 56.984375 54.828125 56.984375 36.375 
Q 56.984375 17.96875 50.515625 8.265625 
Q 44.046875 -1.421875 31.78125 -1.421875 
Q 19.53125 -1.421875 13.0625 8.265625 
Q 6.59375 17.96875 6.59375 36.375 
Q 6.59375 54.828125 13.0625 64.515625 
Q 19.53125 74.21875 31.78125 74.21875 
z
" id="DejaVuSans-48"/>
       <path d="M 4.890625 31.390625 
L 31.203125 31.390625 
L 31.203125 23.390625 
L 4.890625 23.390625 
z
" id="DejaVuSans-45"/>
       <path d="M 12.40625 8.296875 
L 28.515625 8.296875 
L 28.515625 63.921875 
L 10.984375 60.40625 
L 10.984375 69.390625 
L 28.421875 72.90625 
L 38.28125 72.90625 
L 38.28125 8.296875 
L 54.390625 8.296875 
L 54.390625 0 
L 12.40625 0 
z
" id="DejaVuSans-49"/>
       <path d="M 10.984375 1.515625 
L 10.984375 10.5 
Q 14.703125 8.734375 18.5 7.8125 
Q 22.3125 6.890625 25.984375 6.890625 
Q 35.75 6.890625 40.890625 13.453125 
Q 46.046875 20.015625 46.78125 33.40625 
Q 43.953125 29.203125 39.59375 26.953125 
Q 35.25 24.703125 29.984375 24.703125 
Q 19.046875 24.703125 12.671875 31.3125 
Q 6.296875 37.9375 6.296875 49.421875 
Q 6.296875 60.640625 12.9375 67.421875 
Q 19.578125 74.21875 30.609375 74.21875 
Q 43.265625 74.21875 49.921875 64.515625 
Q 56.59375 54.828125 56.59375 36.375 
Q 56.59375 19.140625 48.40625 8.859375 
Q 40.234375 -1.421875 26.421875 -1.421875 
Q 22.703125 -1.421875 18.890625 -0.6875 
Q 15.09375 0.046875 10.984375 1.515625 
z
M 30.609375 32.421875 
Q 37.25 32.421875 41.125 36.953125 
Q 45.015625 41.5 45.015625 49.421875 
Q 45.015625 57.28125 41.125 61.84375 
Q 37.25 66.40625 30.609375 66.40625 
Q 23.96875 66.40625 20.09375 61.84375 
Q 16.21875 57.28125 16.21875 49.421875 
Q 16.21875 41.5 20.09375 36.953125 
Q 23.96875 32.421875 30.609375 32.421875 
z
" id="DejaVuSans-57"/>
      </defs>
      <g transform="translate(25.531079 262.869024)rotate(-30)scale(0.1 -0.1)">
       <use xlink:href="#DejaVuSans-50"/>
       <use x="63.623047" xlink:href="#DejaVuSans-48"/>
       <use x="127.246094" xlink:href="#DejaVuSans-50"/>
       <use x="190.869141" xlink:href="#DejaVuSans-48"/>
       <use x="254.492188" xlink:href="#DejaVuSans-45"/>
       <use x="290.576172" xlink:href="#DejaVuSans-49"/>
       <use x="354.199219" xlink:href="#DejaVuSans-49"/>
       <use x="417.822266" xlink:href="#DejaVuSans-45"/>
       <use x="453.90625" xlink:href="#DejaVuSans-50"/>
       <use x="517.529297" xlink:href="#DejaVuSans-57"/>
      </g>
     </g>
    </g>
    <g id="xtick_2">
     <g id="line2d_2">
      <g>
       <use style="stroke:#000000;stroke-width:0.8;" x="58.415425" xlink:href="#m824bdb22f5" y="220.230771"/>
      </g>
     </g>
     <g id="text_2">
      <!-- 2020-12-01 -->
      <g transform="translate(34.630309 262.869024)rotate(-30)scale(0.1 -0.1)">
       <use xlink:href="#DejaVuSans-50"/>
       <use x="63.623047" xlink:href="#DejaVuSans-48"/>
       <use x="127.246094" xlink:href="#DejaVuSans-50"/>
       <use x="190.869141" xlink:href="#DejaVuSans-48"/>
       <use x="254.492188" xlink:href="#DejaVuSans-45"/>
       <use x="290.576172" xlink:href="#DejaVuSans-49"/>
       <use x="354.199219" xlink:href="#DejaVuSans-50"/>
       <use x="417.822266" xlink:href="#DejaVuSans-45"/>
       <use x="453.90625" xlink:href="#DejaVuSans-48"/>
       <use x="517.529297" xlink:href="#DejaVuSans-49"/>
      </g>
     </g>
    </g>
    <g id="xtick_3">
     <g id="line2d_3">
      <g>
       <use style="stroke:#000000;stroke-width:0.8;" x="90.262732" xlink:href="#m824bdb22f5" y="220.230771"/>
      </g>
     </g>
     <g id="text_3">
      <!-- 2020-12-08 -->
      <defs>
       <path d="M 31.78125 34.625 
Q 24.75 34.625 20.71875 30.859375 
Q 16.703125 27.09375 16.703125 20.515625 
Q 16.703125 13.921875 20.71875 10.15625 
Q 24.75 6.390625 31.78125 6.390625 
Q 38.8125 6.390625 42.859375 10.171875 
Q 46.921875 13.96875 46.921875 20.515625 
Q 46.921875 27.09375 42.890625 30.859375 
Q 38.875 34.625 31.78125 34.625 
z
M 21.921875 38.8125 
Q 15.578125 40.375 12.03125 44.71875 
Q 8.5 49.078125 8.5 55.328125 
Q 8.5 64.0625 14.71875 69.140625 
Q 20.953125 74.21875 31.78125 74.21875 
Q 42.671875 74.21875 48.875 69.140625 
Q 55.078125 64.0625 55.078125 55.328125 
Q 55.078125 49.078125 51.53125 44.71875 
Q 48 40.375 41.703125 38.8125 
Q 48.828125 37.15625 52.796875 32.3125 
Q 56.78125 27.484375 56.78125 20.515625 
Q 56.78125 9.90625 50.3125 4.234375 
Q 43.84375 -1.421875 31.78125 -1.421875 
Q 19.734375 -1.421875 13.25 4.234375 
Q 6.78125 9.90625 6.78125 20.515625 
Q 6.78125 27.484375 10.78125 32.3125 
Q 14.796875 37.15625 21.921875 38.8125 
z
M 18.3125 54.390625 
Q 18.3125 48.734375 21.84375 45.5625 
Q 25.390625 42.390625 31.78125 42.390625 
Q 38.140625 42.390625 41.71875 45.5625 
Q 45.3125 48.734375 45.3125 54.390625 
Q 45.3125 60.0625 41.71875 63.234375 
Q 38.140625 66.40625 31.78125 66.40625 
Q 25.390625 66.40625 21.84375 63.234375 
Q 18.3125 60.0625 18.3125 54.390625 
z
" id="DejaVuSans-56"/>
      </defs>
      <g transform="translate(66.477615 262.869024)rotate(-30)scale(0.1 -0.1)">
       <use xlink:href="#DejaVuSans-50"/>
       <use x="63.623047" xlink:href="#DejaVuSans-48"/>
       <use x="127.246094" xlink:href="#DejaVuSans-50"/>
       <use x="190.869141" xlink:href="#DejaVuSans-48"/>
       <use x="254.492188" xlink:href="#DejaVuSans-45"/>
       <use x="290.576172" xlink:href="#DejaVuSans-49"/>
       <use x="354.199219" xlink:href="#DejaVuSans-50"/>
       <use x="417.822266" xlink:href="#DejaVuSans-45"/>
       <use x="453.90625" xlink:href="#DejaVuSans-48"/>
       <use x="517.529297" xlink:href="#DejaVuSans-56"/>
      </g>
     </g>
    </g>
    <g id="xtick_4">
     <g id="line2d_4">
      <g>
       <use style="stroke:#000000;stroke-width:0.8;" x="122.110038" xlink:href="#m824bdb22f5" y="220.230771"/>
      </g>
     </g>
     <g id="text_4">
      <!-- 2020-12-15 -->
      <defs>
       <path d="M 10.796875 72.90625 
L 49.515625 72.90625 
L 49.515625 64.59375 
L 19.828125 64.59375 
L 19.828125 46.734375 
Q 21.96875 47.46875 24.109375 47.828125 
Q 26.265625 48.1875 28.421875 48.1875 
Q 40.625 48.1875 47.75 41.5 
Q 54.890625 34.8125 54.890625 23.390625 
Q 54.890625 11.625 47.5625 5.09375 
Q 40.234375 -1.421875 26.90625 -1.421875 
Q 22.3125 -1.421875 17.546875 -0.640625 
Q 12.796875 0.140625 7.71875 1.703125 
L 7.71875 11.625 
Q 12.109375 9.234375 16.796875 8.0625 
Q 21.484375 6.890625 26.703125 6.890625 
Q 35.15625 6.890625 40.078125 11.328125 
Q 45.015625 15.765625 45.015625 23.390625 
Q 45.015625 31 40.078125 35.4375 
Q 35.15625 39.890625 26.703125 39.890625 
Q 22.75 39.890625 18.8125 39.015625 
Q 14.890625 38.140625 10.796875 36.28125 
z
" id="DejaVuSans-53"/>
      </defs>
      <g transform="translate(98.324921 262.869024)rotate(-30)scale(0.1 -0.1)">
       <use xlink:href="#DejaVuSans-50"/>
       <use x="63.623047" xlink:href="#DejaVuSans-48"/>
       <use x="127.246094" xlink:href="#DejaVuSans-50"/>
       <use x="190.869141" xlink:href="#DejaVuSans-48"/>
       <use x="254.492188" xlink:href="#DejaVuSans-45"/>
       <use x="290.576172" xlink:href="#DejaVuSans-49"/>
       <use x="354.199219" xlink:href="#DejaVuSans-50"/>
       <use x="417.822266" xlink:href="#DejaVuSans-45"/>
       <use x="453.90625" xlink:href="#DejaVuSans-49"/>
       <use x="517.529297" xlink:href="#DejaVuSans-53"/>
      </g>
     </g>
    </g>
    <g id="xtick_5">
     <g id="line2d_5">
      <g>
       <use style="stroke:#000000;stroke-width:0.8;" x="153.957344" xlink:href="#m824bdb22f5" y="220.230771"/>
      </g>
     </g>
     <g id="text_5">
      <!-- 2020-12-22 -->
      <g transform="translate(130.172228 262.869024)rotate(-30)scale(0.1 -0.1)">
       <use xlink:href="#DejaVuSans-50"/>
       <use x="63.623047" xlink:href="#DejaVuSans-48"/>
       <use x="127.246094" xlink:href="#DejaVuSans-50"/>
       <use x="190.869141" xlink:href="#DejaVuSans-48"/>
       <use x="254.492188" xlink:href="#DejaVuSans-45"/>
       <use x="290.576172" xlink:href="#DejaVuSans-49"/>
       <use x="354.199219" xlink:href="#DejaVuSans-50"/>
       <use x="417.822266" xlink:href="#DejaVuSans-45"/>
       <use x="453.90625" xlink:href="#DejaVuSans-50"/>
       <use x="517.529297" xlink:href="#DejaVuSans-50"/>
      </g>
     </g>
    </g>
    <g id="xtick_6">
     <g id="line2d_6">
      <g>
       <use style="stroke:#000000;stroke-width:0.8;" x="185.80465" xlink:href="#m824bdb22f5" y="220.230771"/>
      </g>
     </g>
     <g id="text_6">
      <!-- 2020-12-29 -->
      <g transform="translate(162.019534 262.869024)rotate(-30)scale(0.1 -0.1)">
       <use xlink:href="#DejaVuSans-50"/>
       <use x="63.623047" xlink:href="#DejaVuSans-48"/>
       <use x="127.246094" xlink:href="#DejaVuSans-50"/>
       <use x="190.869141" xlink:href="#DejaVuSans-48"/>
       <use x="254.492188" xlink:href="#DejaVuSans-45"/>
       <use x="290.576172" xlink:href="#DejaVuSans-49"/>
       <use x="354.199219" xlink:href="#DejaVuSans-50"/>
       <use x="417.822266" xlink:href="#DejaVuSans-45"/>
       <use x="453.90625" xlink:href="#DejaVuSans-50"/>
       <use x="517.529297" xlink:href="#DejaVuSans-57"/>
      </g>
     </g>
    </g>
    <g id="xtick_7">
     <g id="line2d_7">
      <g>
       <use style="stroke:#000000;stroke-width:0.8;" x="199.453496" xlink:href="#m824bdb22f5" y="220.230771"/>
      </g>
     </g>
     <g id="text_7">
      <!-- 2021-01-01 -->
      <g transform="translate(175.668379 262.869024)rotate(-30)scale(0.1 -0.1)">
       <use xlink:href="#DejaVuSans-50"/>
       <use x="63.623047" xlink:href="#DejaVuSans-48"/>
       <use x="127.246094" xlink:href="#DejaVuSans-50"/>
       <use x="190.869141" xlink:href="#DejaVuSans-49"/>
       <use x="254.492188" xlink:href="#DejaVuSans-45"/>
       <use x="290.576172" xlink:href="#DejaVuSans-48"/>
       <use x="354.199219" xlink:href="#DejaVuSans-49"/>
       <use x="417.822266" xlink:href="#DejaVuSans-45"/>
       <use x="453.90625" xlink:href="#DejaVuSans-48"/>
       <use x="517.529297" xlink:href="#DejaVuSans-49"/>
      </g>
     </g>
    </g>
    <g id="xtick_8">
     <g id="line2d_8">
      <g>
       <use style="stroke:#000000;stroke-width:0.8;" x="231.300802" xlink:href="#m824bdb22f5" y="220.230771"/>
      </g>
     </g>
     <g id="text_8">
      <!-- 2021-01-08 -->
      <g transform="translate(207.515686 262.869024)rotate(-30)scale(0.1 -0.1)">
       <use xlink:href="#DejaVuSans-50"/>
       <use x="63.623047" xlink:href="#DejaVuSans-48"/>
       <use x="127.246094" xlink:href="#DejaVuSans-50"/>
       <use x="190.869141" xlink:href="#DejaVuSans-49"/>
       <use x="254.492188" xlink:href="#DejaVuSans-45"/>
       <use x="290.576172" xlink:href="#DejaVuSans-48"/>
       <use x="354.199219" xlink:href="#DejaVuSans-49"/>
       <use x="417.822266" xlink:href="#DejaVuSans-45"/>
       <use x="453.90625" xlink:href="#DejaVuSans-48"/>
       <use x="517.529297" xlink:href="#DejaVuSans-56"/>
      </g>
     </g>
    </g>
    <g id="xtick_9">
     <g id="line2d_9">
      <g>
       <use style="stroke:#000000;stroke-width:0.8;" x="263.148108" xlink:href="#m824bdb22f5" y="220.230771"/>
      </g>
     </g>
     <g id="text_9">
      <!-- 2021-01-15 -->
      <g transform="translate(239.362992 262.869024)rotate(-30)scale(0.1 -0.1)">
       <use xlink:href="#DejaVuSans-50"/>
       <use x="63.623047" xlink:href="#DejaVuSans-48"/>
       <use x="127.246094" xlink:href="#DejaVuSans-50"/>
       <use x="190.869141" xlink:href="#DejaVuSans-49"/>
       <use x="254.492188" xlink:href="#DejaVuSans-45"/>
       <use x="290.576172" xlink:href="#DejaVuSans-48"/>
       <use x="354.199219" xlink:href="#DejaVuSans-49"/>
       <use x="417.822266" xlink:href="#DejaVuSans-45"/>
       <use x="453.90625" xlink:href="#DejaVuSans-49"/>
       <use x="517.529297" xlink:href="#DejaVuSans-53"/>
      </g>
     </g>
    </g>
    <g id="xtick_10">
     <g id="line2d_10">
      <g>
       <use style="stroke:#000000;stroke-width:0.8;" x="294.995414" xlink:href="#m824bdb22f5" y="220.230771"/>
      </g>
     </g>
     <g id="text_10">
      <!-- 2021-01-22 -->
      <g transform="translate(271.210298 262.869024)rotate(-30)scale(0.1 -0.1)">
       <use xlink:href="#DejaVuSans-50"/>
       <use x="63.623047" xlink:href="#DejaVuSans-48"/>
       <use x="127.246094" xlink:href="#DejaVuSans-50"/>
       <use x="190.869141" xlink:href="#DejaVuSans-49"/>
       <use x="254.492188" xlink:href="#DejaVuSans-45"/>
       <use x="290.576172" xlink:href="#DejaVuSans-48"/>
       <use x="354.199219" xlink:href="#DejaVuSans-49"/>
       <use x="417.822266" xlink:href="#DejaVuSans-45"/>
       <use x="453.90625" xlink:href="#DejaVuSans-50"/>
       <use x="517.529297" xlink:href="#DejaVuSans-50"/>
      </g>
     </g>
    </g>
    <g id="text_11">
     <!-- Date -->
     <defs>
      <path d="M 19.671875 64.796875 
L 19.671875 8.109375 
L 31.59375 8.109375 
Q 46.6875 8.109375 53.6875 14.9375 
Q 60.6875 21.78125 60.6875 36.53125 
Q 60.6875 51.171875 53.6875 57.984375 
Q 46.6875 64.796875 31.59375 64.796875 
z
M 9.8125 72.90625 
L 30.078125 72.90625 
Q 51.265625 72.90625 61.171875 64.09375 
Q 71.09375 55.28125 71.09375 36.53125 
Q 71.09375 17.671875 61.125 8.828125 
Q 51.171875 0 30.078125 0 
L 9.8125 0 
z
" id="DejaVuSans-68"/>
      <path d="M 34.28125 27.484375 
Q 23.390625 27.484375 19.1875 25 
Q 14.984375 22.515625 14.984375 16.5 
Q 14.984375 11.71875 18.140625 8.90625 
Q 21.296875 6.109375 26.703125 6.109375 
Q 34.1875 6.109375 38.703125 11.40625 
Q 43.21875 16.703125 43.21875 25.484375 
L 43.21875 27.484375 
z
M 52.203125 31.203125 
L 52.203125 0 
L 43.21875 0 
L 43.21875 8.296875 
Q 40.140625 3.328125 35.546875 0.953125 
Q 30.953125 -1.421875 24.3125 -1.421875 
Q 15.921875 -1.421875 10.953125 3.296875 
Q 6 8.015625 6 15.921875 
Q 6 25.140625 12.171875 29.828125 
Q 18.359375 34.515625 30.609375 34.515625 
L 43.21875 34.515625 
L 43.21875 35.40625 
Q 43.21875 41.609375 39.140625 45 
Q 35.0625 48.390625 27.6875 48.390625 
Q 23 48.390625 18.546875 47.265625 
Q 14.109375 46.140625 10.015625 43.890625 
L 10.015625 52.203125 
Q 14.9375 54.109375 19.578125 55.046875 
Q 24.21875 56 28.609375 56 
Q 40.484375 56 46.34375 49.84375 
Q 52.203125 43.703125 52.203125 31.203125 
z
" id="DejaVuSans-97"/>
      <path d="M 18.3125 70.21875 
L 18.3125 54.6875 
L 36.8125 54.6875 
L 36.8125 47.703125 
L 18.3125 47.703125 
L 18.3125 18.015625 
Q 18.3125 11.328125 20.140625 9.421875 
Q 21.96875 7.515625 27.59375 7.515625 
L 36.8125 7.515625 
L 36.8125 0 
L 27.59375 0 
Q 17.1875 0 13.234375 3.875 
Q 9.28125 7.765625 9.28125 18.015625 
L 9.28125 47.703125 
L 2.6875 47.703125 
L 2.6875 54.6875 
L 9.28125 54.6875 
L 9.28125 70.21875 
z
" id="DejaVuSans-116"/>
      <path d="M 56.203125 29.59375 
L 56.203125 25.203125 
L 14.890625 25.203125 
Q 15.484375 15.921875 20.484375 11.0625 
Q 25.484375 6.203125 34.421875 6.203125 
Q 39.59375 6.203125 44.453125 7.46875 
Q 49.3125 8.734375 54.109375 11.28125 
L 54.109375 2.78125 
Q 49.265625 0.734375 44.1875 -0.34375 
Q 39.109375 -1.421875 33.890625 -1.421875 
Q 20.796875 -1.421875 13.15625 6.1875 
Q 5.515625 13.8125 5.515625 26.8125 
Q 5.515625 40.234375 12.765625 48.109375 
Q 20.015625 56 32.328125 56 
Q 43.359375 56 49.78125 48.890625 
Q 56.203125 41.796875 56.203125 29.59375 
z
M 47.21875 32.234375 
Q 47.125 39.59375 43.09375 43.984375 
Q 39.0625 48.390625 32.421875 48.390625 
Q 24.90625 48.390625 20.390625 44.140625 
Q 15.875 39.890625 15.1875 32.171875 
z
" id="DejaVuSans-101"/>
     </defs>
     <g transform="translate(167.504219 276.268523)scale(0.1 -0.1)">
      <use xlink:href="#DejaVuSans-68"/>
      <use x="77.001953" xlink:href="#DejaVuSans-97"/>
      <use x="138.28125" xlink:href="#DejaVuSans-116"/>
      <use x="177.490234" xlink:href="#DejaVuSans-101"/>
     </g>
    </g>
   </g>
   <g id="matplotlib.axis_2">
    <g id="ytick_1">
     <g id="line2d_11">
      <defs>
       <path d="M 0 0 
L -3.5 0 
" id="m184dabec5a" style="stroke:#000000;stroke-width:0.8;"/>
      </defs>
      <g>
       <use style="stroke:#000000;stroke-width:0.8;" x="43.55" xlink:href="#m184dabec5a" y="210.806645"/>
      </g>
     </g>
     <g id="text_12">
      <!-- 0 -->
      <g transform="translate(30.1875 214.605864)scale(0.1 -0.1)">
       <use xlink:href="#DejaVuSans-48"/>
      </g>
     </g>
    </g>
    <g id="ytick_2">
     <g id="line2d_12">
      <g>
       <use style="stroke:#000000;stroke-width:0.8;" x="43.55" xlink:href="#m184dabec5a" y="187.24633"/>
      </g>
     </g>
     <g id="text_13">
      <!-- 5 -->
      <g transform="translate(30.1875 191.045549)scale(0.1 -0.1)">
       <use xlink:href="#DejaVuSans-53"/>
      </g>
     </g>
    </g>
    <g id="ytick_3">
     <g id="line2d_13">
      <g>
       <use style="stroke:#000000;stroke-width:0.8;" x="43.55" xlink:href="#m184dabec5a" y="163.686016"/>
      </g>
     </g>
     <g id="text_14">
      <!-- 10 -->
      <g transform="translate(23.825 167.485234)scale(0.1 -0.1)">
       <use xlink:href="#DejaVuSans-49"/>
       <use x="63.623047" xlink:href="#DejaVuSans-48"/>
      </g>
     </g>
    </g>
    <g id="ytick_4">
     <g id="line2d_14">
      <g>
       <use style="stroke:#000000;stroke-width:0.8;" x="43.55" xlink:href="#m184dabec5a" y="140.125701"/>
      </g>
     </g>
     <g id="text_15">
      <!-- 15 -->
      <g transform="translate(23.825 143.924919)scale(0.1 -0.1)">
       <use xlink:href="#DejaVuSans-49"/>
       <use x="63.623047" xlink:href="#DejaVuSans-53"/>
      </g>
     </g>
    </g>
    <g id="ytick_5">
     <g id="line2d_15">
      <g>
       <use style="stroke:#000000;stroke-width:0.8;" x="43.55" xlink:href="#m184dabec5a" y="116.565386"/>
      </g>
     </g>
     <g id="text_16">
      <!-- 20 -->
      <g transform="translate(23.825 120.364604)scale(0.1 -0.1)">
       <use xlink:href="#DejaVuSans-50"/>
       <use x="63.623047" xlink:href="#DejaVuSans-48"/>
      </g>
     </g>
    </g>
    <g id="ytick_6">
     <g id="line2d_16">
      <g>
       <use style="stroke:#000000;stroke-width:0.8;" x="43.55" xlink:href="#m184dabec5a" y="93.005071"/>
      </g>
     </g>
     <g id="text_17">
      <!-- 25 -->
      <g transform="translate(23.825 96.80429)scale(0.1 -0.1)">
       <use xlink:href="#DejaVuSans-50"/>
       <use x="63.623047" xlink:href="#DejaVuSans-53"/>
      </g>
     </g>
    </g>
    <g id="ytick_7">
     <g id="line2d_17">
      <g>
       <use style="stroke:#000000;stroke-width:0.8;" x="43.55" xlink:href="#m184dabec5a" y="69.444756"/>
      </g>
     </g>
     <g id="text_18">
      <!-- 30 -->
      <defs>
       <path d="M 40.578125 39.3125 
Q 47.65625 37.796875 51.625 33 
Q 55.609375 28.21875 55.609375 21.1875 
Q 55.609375 10.40625 48.1875 4.484375 
Q 40.765625 -1.421875 27.09375 -1.421875 
Q 22.515625 -1.421875 17.65625 -0.515625 
Q 12.796875 0.390625 7.625 2.203125 
L 7.625 11.71875 
Q 11.71875 9.328125 16.59375 8.109375 
Q 21.484375 6.890625 26.8125 6.890625 
Q 36.078125 6.890625 40.9375 10.546875 
Q 45.796875 14.203125 45.796875 21.1875 
Q 45.796875 27.640625 41.28125 31.265625 
Q 36.765625 34.90625 28.71875 34.90625 
L 20.21875 34.90625 
L 20.21875 43.015625 
L 29.109375 43.015625 
Q 36.375 43.015625 40.234375 45.921875 
Q 44.09375 48.828125 44.09375 54.296875 
Q 44.09375 59.90625 40.109375 62.90625 
Q 36.140625 65.921875 28.71875 65.921875 
Q 24.65625 65.921875 20.015625 65.03125 
Q 15.375 64.15625 9.8125 62.3125 
L 9.8125 71.09375 
Q 15.4375 72.65625 20.34375 73.4375 
Q 25.25 74.21875 29.59375 74.21875 
Q 40.828125 74.21875 47.359375 69.109375 
Q 53.90625 64.015625 53.90625 55.328125 
Q 53.90625 49.265625 50.4375 45.09375 
Q 46.96875 40.921875 40.578125 39.3125 
z
" id="DejaVuSans-51"/>
      </defs>
      <g transform="translate(23.825 73.243975)scale(0.1 -0.1)">
       <use xlink:href="#DejaVuSans-51"/>
       <use x="63.623047" xlink:href="#DejaVuSans-48"/>
      </g>
     </g>
    </g>
    <g id="ytick_8">
     <g id="line2d_18">
      <g>
       <use style="stroke:#000000;stroke-width:0.8;" x="43.55" xlink:href="#m184dabec5a" y="45.884441"/>
      </g>
     </g>
     <g id="text_19">
      <!-- 35 -->
      <g transform="translate(23.825 49.68366)scale(0.1 -0.1)">
       <use xlink:href="#DejaVuSans-51"/>
       <use x="63.623047" xlink:href="#DejaVuSans-53"/>
      </g>
     </g>
    </g>
    <g id="ytick_9">
     <g id="line2d_19">
      <g>
       <use style="stroke:#000000;stroke-width:0.8;" x="43.55" xlink:href="#m184dabec5a" y="22.324126"/>
      </g>
     </g>
     <g id="text_20">
      <!-- 40 -->
      <defs>
       <path d="M 37.796875 64.3125 
L 12.890625 25.390625 
L 37.796875 25.390625 
z
M 35.203125 72.90625 
L 47.609375 72.90625 
L 47.609375 25.390625 
L 58.015625 25.390625 
L 58.015625 17.1875 
L 47.609375 17.1875 
L 47.609375 0 
L 37.796875 0 
L 37.796875 17.1875 
L 4.890625 17.1875 
L 4.890625 26.703125 
z
" id="DejaVuSans-52"/>
      </defs>
      <g transform="translate(23.825 26.123345)scale(0.1 -0.1)">
       <use xlink:href="#DejaVuSans-52"/>
       <use x="63.623047" xlink:href="#DejaVuSans-48"/>
      </g>
     </g>
    </g>
    <g id="text_21">
     <!-- Students Registered -->
     <defs>
      <path d="M 53.515625 70.515625 
L 53.515625 60.890625 
Q 47.90625 63.578125 42.921875 64.890625 
Q 37.9375 66.21875 33.296875 66.21875 
Q 25.25 66.21875 20.875 63.09375 
Q 16.5 59.96875 16.5 54.203125 
Q 16.5 49.359375 19.40625 46.890625 
Q 22.3125 44.4375 30.421875 42.921875 
L 36.375 41.703125 
Q 47.40625 39.59375 52.65625 34.296875 
Q 57.90625 29 57.90625 20.125 
Q 57.90625 9.515625 50.796875 4.046875 
Q 43.703125 -1.421875 29.984375 -1.421875 
Q 24.8125 -1.421875 18.96875 -0.25 
Q 13.140625 0.921875 6.890625 3.21875 
L 6.890625 13.375 
Q 12.890625 10.015625 18.65625 8.296875 
Q 24.421875 6.59375 29.984375 6.59375 
Q 38.421875 6.59375 43.015625 9.90625 
Q 47.609375 13.234375 47.609375 19.390625 
Q 47.609375 24.75 44.3125 27.78125 
Q 41.015625 30.8125 33.5 32.328125 
L 27.484375 33.5 
Q 16.453125 35.6875 11.515625 40.375 
Q 6.59375 45.0625 6.59375 53.421875 
Q 6.59375 63.09375 13.40625 68.65625 
Q 20.21875 74.21875 32.171875 74.21875 
Q 37.3125 74.21875 42.625 73.28125 
Q 47.953125 72.359375 53.515625 70.515625 
z
" id="DejaVuSans-83"/>
      <path d="M 8.5 21.578125 
L 8.5 54.6875 
L 17.484375 54.6875 
L 17.484375 21.921875 
Q 17.484375 14.15625 20.5 10.265625 
Q 23.53125 6.390625 29.59375 6.390625 
Q 36.859375 6.390625 41.078125 11.03125 
Q 45.3125 15.671875 45.3125 23.6875 
L 45.3125 54.6875 
L 54.296875 54.6875 
L 54.296875 0 
L 45.3125 0 
L 45.3125 8.40625 
Q 42.046875 3.421875 37.71875 1 
Q 33.40625 -1.421875 27.6875 -1.421875 
Q 18.265625 -1.421875 13.375 4.4375 
Q 8.5 10.296875 8.5 21.578125 
z
M 31.109375 56 
z
" id="DejaVuSans-117"/>
      <path d="M 45.40625 46.390625 
L 45.40625 75.984375 
L 54.390625 75.984375 
L 54.390625 0 
L 45.40625 0 
L 45.40625 8.203125 
Q 42.578125 3.328125 38.25 0.953125 
Q 33.9375 -1.421875 27.875 -1.421875 
Q 17.96875 -1.421875 11.734375 6.484375 
Q 5.515625 14.40625 5.515625 27.296875 
Q 5.515625 40.1875 11.734375 48.09375 
Q 17.96875 56 27.875 56 
Q 33.9375 56 38.25 53.625 
Q 42.578125 51.265625 45.40625 46.390625 
z
M 14.796875 27.296875 
Q 14.796875 17.390625 18.875 11.75 
Q 22.953125 6.109375 30.078125 6.109375 
Q 37.203125 6.109375 41.296875 11.75 
Q 45.40625 17.390625 45.40625 27.296875 
Q 45.40625 37.203125 41.296875 42.84375 
Q 37.203125 48.484375 30.078125 48.484375 
Q 22.953125 48.484375 18.875 42.84375 
Q 14.796875 37.203125 14.796875 27.296875 
z
" id="DejaVuSans-100"/>
      <path d="M 54.890625 33.015625 
L 54.890625 0 
L 45.90625 0 
L 45.90625 32.71875 
Q 45.90625 40.484375 42.875 44.328125 
Q 39.84375 48.1875 33.796875 48.1875 
Q 26.515625 48.1875 22.3125 43.546875 
Q 18.109375 38.921875 18.109375 30.90625 
L 18.109375 0 
L 9.078125 0 
L 9.078125 54.6875 
L 18.109375 54.6875 
L 18.109375 46.1875 
Q 21.34375 51.125 25.703125 53.5625 
Q 30.078125 56 35.796875 56 
Q 45.21875 56 50.046875 50.171875 
Q 54.890625 44.34375 54.890625 33.015625 
z
" id="DejaVuSans-110"/>
      <path d="M 44.28125 53.078125 
L 44.28125 44.578125 
Q 40.484375 46.53125 36.375 47.5 
Q 32.28125 48.484375 27.875 48.484375 
Q 21.1875 48.484375 17.84375 46.4375 
Q 14.5 44.390625 14.5 40.28125 
Q 14.5 37.15625 16.890625 35.375 
Q 19.28125 33.59375 26.515625 31.984375 
L 29.59375 31.296875 
Q 39.15625 29.25 43.1875 25.515625 
Q 47.21875 21.78125 47.21875 15.09375 
Q 47.21875 7.46875 41.1875 3.015625 
Q 35.15625 -1.421875 24.609375 -1.421875 
Q 20.21875 -1.421875 15.453125 -0.5625 
Q 10.6875 0.296875 5.421875 2 
L 5.421875 11.28125 
Q 10.40625 8.6875 15.234375 7.390625 
Q 20.0625 6.109375 24.8125 6.109375 
Q 31.15625 6.109375 34.5625 8.28125 
Q 37.984375 10.453125 37.984375 14.40625 
Q 37.984375 18.0625 35.515625 20.015625 
Q 33.0625 21.96875 24.703125 23.78125 
L 21.578125 24.515625 
Q 13.234375 26.265625 9.515625 29.90625 
Q 5.8125 33.546875 5.8125 39.890625 
Q 5.8125 47.609375 11.28125 51.796875 
Q 16.75 56 26.8125 56 
Q 31.78125 56 36.171875 55.265625 
Q 40.578125 54.546875 44.28125 53.078125 
z
" id="DejaVuSans-115"/>
      <path id="DejaVuSans-32"/>
      <path d="M 44.390625 34.1875 
Q 47.5625 33.109375 50.5625 29.59375 
Q 53.5625 26.078125 56.59375 19.921875 
L 66.609375 0 
L 56 0 
L 46.6875 18.703125 
Q 43.0625 26.03125 39.671875 28.421875 
Q 36.28125 30.8125 30.421875 30.8125 
L 19.671875 30.8125 
L 19.671875 0 
L 9.8125 0 
L 9.8125 72.90625 
L 32.078125 72.90625 
Q 44.578125 72.90625 50.734375 67.671875 
Q 56.890625 62.453125 56.890625 51.90625 
Q 56.890625 45.015625 53.6875 40.46875 
Q 50.484375 35.9375 44.390625 34.1875 
z
M 19.671875 64.796875 
L 19.671875 38.921875 
L 32.078125 38.921875 
Q 39.203125 38.921875 42.84375 42.21875 
Q 46.484375 45.515625 46.484375 51.90625 
Q 46.484375 58.296875 42.84375 61.546875 
Q 39.203125 64.796875 32.078125 64.796875 
z
" id="DejaVuSans-82"/>
      <path d="M 45.40625 27.984375 
Q 45.40625 37.75 41.375 43.109375 
Q 37.359375 48.484375 30.078125 48.484375 
Q 22.859375 48.484375 18.828125 43.109375 
Q 14.796875 37.75 14.796875 27.984375 
Q 14.796875 18.265625 18.828125 12.890625 
Q 22.859375 7.515625 30.078125 7.515625 
Q 37.359375 7.515625 41.375 12.890625 
Q 45.40625 18.265625 45.40625 27.984375 
z
M 54.390625 6.78125 
Q 54.390625 -7.171875 48.1875 -13.984375 
Q 42 -20.796875 29.203125 -20.796875 
Q 24.46875 -20.796875 20.265625 -20.09375 
Q 16.0625 -19.390625 12.109375 -17.921875 
L 12.109375 -9.1875 
Q 16.0625 -11.328125 19.921875 -12.34375 
Q 23.78125 -13.375 27.78125 -13.375 
Q 36.625 -13.375 41.015625 -8.765625 
Q 45.40625 -4.15625 45.40625 5.171875 
L 45.40625 9.625 
Q 42.625 4.78125 38.28125 2.390625 
Q 33.9375 0 27.875 0 
Q 17.828125 0 11.671875 7.65625 
Q 5.515625 15.328125 5.515625 27.984375 
Q 5.515625 40.671875 11.671875 48.328125 
Q 17.828125 56 27.875 56 
Q 33.9375 56 38.28125 53.609375 
Q 42.625 51.21875 45.40625 46.390625 
L 45.40625 54.6875 
L 54.390625 54.6875 
z
" id="DejaVuSans-103"/>
      <path d="M 9.421875 54.6875 
L 18.40625 54.6875 
L 18.40625 0 
L 9.421875 0 
z
M 9.421875 75.984375 
L 18.40625 75.984375 
L 18.40625 64.59375 
L 9.421875 64.59375 
z
" id="DejaVuSans-105"/>
      <path d="M 41.109375 46.296875 
Q 39.59375 47.171875 37.8125 47.578125 
Q 36.03125 48 33.890625 48 
Q 26.265625 48 22.1875 43.046875 
Q 18.109375 38.09375 18.109375 28.8125 
L 18.109375 0 
L 9.078125 0 
L 9.078125 54.6875 
L 18.109375 54.6875 
L 18.109375 46.1875 
Q 20.953125 51.171875 25.484375 53.578125 
Q 30.03125 56 36.53125 56 
Q 37.453125 56 38.578125 55.875 
Q 39.703125 55.765625 41.0625 55.515625 
z
" id="DejaVuSans-114"/>
     </defs>
     <g transform="translate(17.745313 167.498979)rotate(-90)scale(0.1 -0.1)">
      <use xlink:href="#DejaVuSans-83"/>
      <use x="63.476562" xlink:href="#DejaVuSans-116"/>
      <use x="102.685547" xlink:href="#DejaVuSans-117"/>
      <use x="166.064453" xlink:href="#DejaVuSans-100"/>
      <use x="229.541016" xlink:href="#DejaVuSans-101"/>
      <use x="291.064453" xlink:href="#DejaVuSans-110"/>
      <use x="354.443359" xlink:href="#DejaVuSans-116"/>
      <use x="393.652344" xlink:href="#DejaVuSans-115"/>
      <use x="445.751953" xlink:href="#DejaVuSans-32"/>
      <use x="477.539062" xlink:href="#DejaVuSans-82"/>
      <use x="546.958984" xlink:href="#DejaVuSans-101"/>
      <use x="608.482422" xlink:href="#DejaVuSans-103"/>
      <use x="671.958984" xlink:href="#DejaVuSans-105"/>
      <use x="699.742188" xlink:href="#DejaVuSans-115"/>
      <use x="751.841797" xlink:href="#DejaVuSans-116"/>
      <use x="791.050781" xlink:href="#DejaVuSans-101"/>
      <use x="852.574219" xlink:href="#DejaVuSans-114"/>
      <use x="893.65625" xlink:href="#DejaVuSans-101"/>
      <use x="955.179688" xlink:href="#DejaVuSans-100"/>
     </g>
    </g>
   </g>
   <g id="line2d_20">
    <path clip-path="url(#p0201604a3f)" d="M 55.905 210.806645 
L 56.104732 210.806645 
L 56.104732 201.382519 
L 56.213654 201.382519 
L 56.99405 201.382519 
L 56.99405 196.670456 
L 57.085639 196.670456 
L 61.354078 196.670456 
L 61.354078 191.958393 
L 61.448859 191.958393 
L 64.955887 191.958393 
L 64.955887 177.822204 
L 65.050669 177.822204 
L 65.145435 177.822204 
L 65.145435 173.110142 
L 65.240234 173.110142 
L 65.335002 173.110142 
L 65.335002 154.26189 
L 65.429796 154.26189 
L 65.524568 154.26189 
L 65.524568 149.549827 
L 65.61935 149.549827 
L 65.714137 149.549827 
L 65.714137 140.125701 
L 65.808908 140.125701 
L 65.903733 140.125701 
L 65.903733 125.989512 
L 65.998512 125.989512 
L 69.315924 125.989512 
L 69.315924 121.277449 
L 69.410705 121.277449 
L 69.50547 121.277449 
L 69.50547 116.565386 
L 69.600251 116.565386 
L 70.074186 116.565386 
L 70.074186 111.853323 
L 70.168978 111.853323 
L 70.453325 111.853323 
L 70.453325 97.717134 
L 70.548095 97.717134 
L 70.642887 97.717134 
L 70.642887 93.005071 
L 70.737693 93.005071 
L 74.434226 93.005071 
L 74.434226 88.293008 
L 74.52903 88.293008 
L 74.623787 88.293008 
L 74.623787 83.580945 
L 74.718598 83.580945 
L 75.002948 83.580945 
L 75.002948 78.868882 
L 75.097722 78.868882 
L 75.571639 78.868882 
L 75.571639 74.156819 
L 75.666413 74.156819 
L 78.79431 74.156819 
L 78.79431 69.444756 
L 78.889059 69.444756 
L 87.703971 69.444756 
L 87.703971 45.884441 
L 87.798708 45.884441 
L 87.89352 45.884441 
L 87.89352 36.460315 
L 87.988274 36.460315 
L 88.083099 36.460315 
L 88.083099 31.748252 
L 88.177862 31.748252 
L 151.967252 31.748252 
L 151.967252 36.460315 
L 152.062053 36.460315 
L 152.156813 36.460315 
L 152.156813 31.748252 
L 152.251597 31.748252 
L 162.393445 31.748252 
L 162.393445 36.460315 
L 162.488261 36.460315 
L 162.583026 36.460315 
L 162.583026 31.748252 
L 162.677804 31.748252 
L 256.229297 31.748252 
L 256.229297 22.324126 
L 256.324045 22.324126 
L 303.005 22.324126 
L 303.005 22.324126 
" style="fill:none;stroke:#1b9e77;stroke-linecap:square;stroke-width:1.5;"/>
   </g>
   <g id="line2d_21">
    <path clip-path="url(#p0201604a3f)" d="M 95.476225 196.670456 
L 96.424019 196.670456 
L 96.424019 182.534267 
L 96.518961 182.534267 
L 96.613592 182.534267 
L 96.613592 177.822204 
L 96.708414 177.822204 
L 96.803155 177.822204 
L 96.803155 158.973953 
L 96.897977 158.973953 
L 97.182307 158.973953 
L 97.182307 144.837764 
L 97.277092 144.837764 
L 97.561434 144.837764 
L 97.561434 116.565386 
L 97.656236 116.565386 
L 97.940566 116.565386 
L 97.940566 107.14126 
L 98.035381 107.14126 
L 98.130158 107.14126 
L 98.130158 102.429197 
L 98.224961 102.429197 
L 98.319709 102.429197 
L 98.319709 97.717134 
L 98.414525 97.717134 
L 98.698875 97.717134 
L 98.698875 93.005071 
L 98.793614 93.005071 
L 101.352775 93.005071 
L 101.352775 74.156819 
L 101.447591 74.156819 
L 101.731923 74.156819 
L 101.731923 69.444756 
L 101.826691 69.444756 
L 102.111086 69.444756 
L 102.111086 60.02063 
L 102.20585 60.02063 
L 102.300654 60.02063 
L 102.300654 55.308567 
L 102.395413 55.308567 
L 102.679794 55.308567 
L 102.679794 50.596504 
L 102.774545 50.596504 
L 106.660691 50.596504 
L 106.660691 45.884441 
L 106.755455 45.884441 
L 106.850225 45.884441 
L 106.850225 41.172378 
L 106.945052 41.172378 
L 107.039803 41.172378 
L 107.039803 36.460315 
L 107.134609 36.460315 
L 107.608531 36.460315 
L 107.608531 31.748252 
L 107.703317 31.748252 
L 119.740809 31.748252 
L 119.740809 22.324126 
L 119.835616 22.324126 
L 143.05759 22.324126 
L 143.05759 27.036189 
L 143.152386 27.036189 
L 144.194993 27.036189 
L 144.194993 22.324126 
L 144.289781 22.324126 
L 160.687371 22.324126 
L 160.687371 27.036189 
L 160.782158 27.036189 
L 162.203901 27.036189 
L 162.203901 22.324126 
L 162.298696 22.324126 
L 284.853965 22.324126 
L 284.853965 27.036189 
L 284.948738 27.036189 
L 290.161838 27.036189 
L 290.161838 22.324126 
L 290.25661 22.324126 
L 303.005 22.324126 
L 303.005 22.324126 
" style="fill:none;stroke:#d95f02;stroke-linecap:square;stroke-width:1.5;"/>
   </g>
   <g id="line2d_22">
    <path clip-path="url(#p0201604a3f)" d="M 55.905 182.534267 
L 56.104732 182.534267 
L 56.104732 177.822204 
L 56.213654 177.822204 
L 57.085639 177.822204 
L 57.085639 173.110142 
L 60.118751 173.110142 
L 60.118751 168.398079 
L 60.406268 168.398079 
L 60.406268 163.686016 
L 60.501062 163.686016 
L 60.595824 163.686016 
L 60.595824 158.973953 
L 60.690624 158.973953 
L 61.164551 158.973953 
L 61.164551 144.837764 
L 61.259355 144.837764 
L 61.354078 144.837764 
L 61.354078 140.125701 
L 61.448859 140.125701 
L 65.145435 140.125701 
L 65.145435 130.701575 
L 65.240234 130.701575 
L 65.335002 130.701575 
L 65.335002 125.989512 
L 65.429796 125.989512 
L 65.524568 125.989512 
L 65.524568 130.701575 
L 65.61935 130.701575 
L 65.903733 130.701575 
L 65.903733 125.989512 
L 65.998512 125.989512 
L 66.093262 125.989512 
L 66.093262 116.565386 
L 66.18804 116.565386 
L 67.041122 116.565386 
L 67.041122 107.14126 
L 67.135916 107.14126 
L 69.126361 107.14126 
L 69.126361 102.429197 
L 69.221135 102.429197 
L 69.315924 102.429197 
L 69.315924 83.580945 
L 69.410705 83.580945 
L 69.50547 83.580945 
L 69.50547 74.156819 
L 69.600251 74.156819 
L 69.884625 74.156819 
L 69.884625 69.444756 
L 69.979411 69.444756 
L 70.074186 69.444756 
L 70.074186 64.732693 
L 70.168978 64.732693 
L 70.263759 64.732693 
L 70.263759 60.02063 
L 70.358553 60.02063 
L 70.453325 60.02063 
L 70.453325 45.884441 
L 70.548095 45.884441 
L 70.642887 45.884441 
L 70.642887 41.172378 
L 70.737693 41.172378 
L 70.832465 41.172378 
L 70.832465 36.460315 
L 70.927232 36.460315 
L 74.055084 36.460315 
L 74.055084 27.036189 
L 74.149882 27.036189 
L 74.244692 27.036189 
L 74.244692 22.324126 
L 74.339466 22.324126 
L 96.613592 22.324126 
L 96.613592 27.036189 
L 96.708414 27.036189 
L 96.803155 27.036189 
L 96.803155 22.324126 
L 96.897977 22.324126 
L 284.664367 22.324126 
L 284.664367 27.036189 
L 284.759158 27.036189 
L 284.853965 27.036189 
L 284.853965 22.324126 
L 284.948738 22.324126 
L 303.005 22.324126 
L 303.005 22.324126 
" style="fill:none;stroke:#7570b3;stroke-linecap:square;stroke-width:1.5;"/>
   </g>
   <g id="line2d_23">
    <path clip-path="url(#p0201604a3f)" d="M 55.905 201.382519 
L 60.974994 201.382519 
L 60.974994 196.670456 
L 61.069749 196.670456 
L 64.766327 196.670456 
L 64.766327 191.958393 
L 64.861075 191.958393 
L 64.955887 191.958393 
L 64.955887 187.24633 
L 65.050669 187.24633 
L 65.145435 187.24633 
L 65.145435 177.822204 
L 65.240234 177.822204 
L 65.335002 177.822204 
L 65.335002 173.110142 
L 65.429796 173.110142 
L 65.524568 173.110142 
L 65.524568 168.398079 
L 65.61935 168.398079 
L 65.714137 168.398079 
L 65.714137 163.686016 
L 65.808908 163.686016 
L 66.093262 163.686016 
L 66.093262 158.973953 
L 66.18804 158.973953 
L 69.315924 158.973953 
L 69.315924 149.549827 
L 69.410705 149.549827 
L 69.50547 149.549827 
L 69.50547 144.837764 
L 69.600251 144.837764 
L 70.263759 144.837764 
L 70.263759 140.125701 
L 70.358553 140.125701 
L 70.453325 140.125701 
L 70.453325 130.701575 
L 70.548095 130.701575 
L 87.703971 130.701575 
L 87.703971 125.989512 
L 87.798708 125.989512 
L 87.89352 125.989512 
L 87.89352 121.277449 
L 87.988274 121.277449 
L 88.083099 121.277449 
L 88.083099 116.565386 
L 88.177862 116.565386 
L 88.272645 116.565386 
L 88.272645 111.853323 
L 88.36742 111.853323 
L 88.462233 111.853323 
L 88.462233 102.429197 
L 88.556994 102.429197 
L 88.651803 102.429197 
L 88.651803 97.717134 
L 88.746561 97.717134 
L 92.063989 97.717134 
L 92.111384 83.580945 
L 92.158771 83.580945 
L 92.443133 83.580945 
L 92.443133 74.156819 
L 92.537912 74.156819 
L 93.011839 74.156819 
L 93.011839 69.444756 
L 93.106625 69.444756 
L 93.201408 69.444756 
L 93.201408 60.02063 
L 93.296197 60.02063 
L 93.390973 60.02063 
L 93.390973 36.460315 
L 93.485754 36.460315 
L 93.580512 36.460315 
L 93.580512 22.324126 
L 93.675383 22.324126 
L 96.424019 22.324126 
L 96.424019 27.036189 
L 96.518961 27.036189 
L 96.803155 27.036189 
L 96.803155 22.324126 
L 96.897977 22.324126 
L 142.678442 22.324126 
L 142.678442 27.036189 
L 142.773259 27.036189 
L 142.868049 27.036189 
L 142.868049 22.324126 
L 142.962795 22.324126 
L 151.209021 22.324126 
L 151.209021 27.036189 
L 151.303769 27.036189 
L 151.588104 27.036189 
L 151.588104 22.324126 
L 151.682935 22.324126 
L 151.967252 22.324126 
L 151.967252 27.036189 
L 152.062053 27.036189 
L 152.725561 27.036189 
L 152.725561 22.324126 
L 152.82032 22.324126 
L 303.005 22.324126 
L 303.005 22.324126 
" style="fill:none;stroke:#e7298a;stroke-linecap:square;stroke-width:1.5;"/>
   </g>
   <g id="line2d_24">
    <path clip-path="url(#p0201604a3f)" d="M 55.905 201.382519 
L 61.354078 201.382519 
L 61.354078 196.670456 
L 61.448859 196.670456 
L 64.955887 196.670456 
L 64.955887 191.958393 
L 65.050669 191.958393 
L 65.714137 191.958393 
L 65.714137 187.24633 
L 65.808908 187.24633 
L 69.695028 187.24633 
L 69.695028 177.822204 
L 69.789835 177.822204 
L 70.074186 177.822204 
L 70.074186 173.110142 
L 70.168978 173.110142 
L 70.453325 173.110142 
L 70.453325 168.398079 
L 70.548095 168.398079 
L 70.642887 168.398079 
L 70.642887 163.686016 
L 70.737693 163.686016 
L 75.002948 163.686016 
L 75.002948 158.973953 
L 75.097722 158.973953 
L 79.362993 158.973953 
L 79.362993 154.26189 
L 79.457789 154.26189 
L 87.703971 154.26189 
L 87.703971 144.837764 
L 87.798708 144.837764 
L 88.083099 144.837764 
L 88.083099 140.125701 
L 88.177862 140.125701 
L 89.030933 140.125701 
L 89.030933 135.413638 
L 89.125702 135.413638 
L 92.063989 135.413638 
L 92.063989 130.701575 
L 92.158771 130.701575 
L 93.011839 130.701575 
L 93.011839 125.989512 
L 93.106625 125.989512 
L 93.201408 125.989512 
L 93.201408 121.277449 
L 93.296197 121.277449 
L 93.390973 121.277449 
L 93.438359 107.14126 
L 93.485754 107.14126 
L 96.613592 107.14126 
L 96.613592 102.429197 
L 96.708414 102.429197 
L 96.803155 102.429197 
L 96.803155 93.005071 
L 96.897977 93.005071 
L 96.99272 93.005071 
L 96.99272 88.293008 
L 97.087514 88.293008 
L 97.182307 88.293008 
L 97.229696 74.156819 
L 97.277092 74.156819 
L 97.561434 74.156819 
L 97.561434 60.02063 
L 97.656236 60.02063 
L 97.751025 60.02063 
L 97.751025 50.596504 
L 97.845822 50.596504 
L 97.940566 50.596504 
L 97.940566 31.748252 
L 98.035381 31.748252 
L 98.130158 31.748252 
L 98.130158 27.036189 
L 98.224961 27.036189 
L 99.078002 27.036189 
L 99.078002 22.324126 
L 99.17279 22.324126 
L 151.209021 22.324126 
L 151.209021 27.036189 
L 151.303769 27.036189 
L 151.398586 27.036189 
L 151.398586 22.324126 
L 151.493365 22.324126 
L 151.7777 22.324126 
L 151.7777 27.036189 
L 151.872506 27.036189 
L 152.34638 27.036189 
L 152.34638 31.748252 
L 152.441201 31.748252 
L 152.725561 31.748252 
L 152.725561 36.460315 
L 152.82032 36.460315 
L 157.843842 36.460315 
L 157.843842 41.172378 
L 157.938623 41.172378 
L 169.028333 41.172378 
L 169.028333 36.460315 
L 169.12312 36.460315 
L 190.070276 36.460315 
L 190.070276 41.172378 
L 190.165086 41.172378 
L 197.46342 41.172378 
L 197.46342 36.460315 
L 197.558197 36.460315 
L 220.590659 36.460315 
L 220.590659 31.748252 
L 220.685436 31.748252 
L 223.623686 31.748252 
L 223.623686 27.036189 
L 223.718474 27.036189 
L 228.931594 27.036189 
L 228.931594 22.324126 
L 256.229297 22.324126 
L 256.229297 31.748252 
L 256.324045 31.748252 
L 256.797952 31.748252 
L 256.797952 36.460315 
L 256.892781 36.460315 
L 289.78269 36.460315 
L 289.78269 41.172378 
L 289.877508 41.172378 
L 296.607121 41.172378 
L 296.607121 36.460315 
L 296.701892 36.460315 
L 301.156747 36.460315 
L 301.156747 31.748252 
L 301.251503 31.748252 
L 302.483672 31.748252 
L 302.483672 27.036189 
L 302.578504 27.036189 
L 303.005 27.036189 
L 303.005 27.036189 
" style="fill:none;stroke:#66a61e;stroke-linecap:square;stroke-width:1.5;"/>
   </g>
   <g id="line2d_25">
    <path clip-path="url(#p0201604a3f)" d="M 55.905 191.958393 
L 64.955887 191.958393 
L 64.955887 187.24633 
L 65.050669 187.24633 
L 65.903733 187.24633 
L 65.903733 182.534267 
L 65.998512 182.534267 
L 66.282855 182.534267 
L 66.282855 177.822204 
L 66.37765 177.822204 
L 69.884625 177.822204 
L 69.884625 173.110142 
L 69.979411 173.110142 
L 70.263759 173.110142 
L 70.263759 168.398079 
L 70.358553 168.398079 
L 74.055084 168.398079 
L 74.055084 163.686016 
L 74.149882 163.686016 
L 87.514377 163.686016 
L 87.514377 154.26189 
L 87.609141 154.26189 
L 87.703971 154.26189 
L 87.703971 144.837764 
L 87.798708 144.837764 
L 88.272645 144.837764 
L 88.272645 140.125701 
L 88.36742 140.125701 
L 89.030933 140.125701 
L 89.030933 135.413638 
L 89.125702 135.413638 
L 92.443133 135.413638 
L 92.443133 130.701575 
L 92.537912 130.701575 
L 92.822234 130.701575 
L 92.822234 121.277449 
L 92.917067 121.277449 
L 93.201408 121.277449 
L 93.201408 116.565386 
L 93.296197 116.565386 
L 94.338814 116.565386 
L 94.338814 111.853323 
L 94.433587 111.853323 
L 96.424019 111.853323 
L 96.424019 107.14126 
L 96.518961 107.14126 
L 96.803155 107.14126 
L 96.803155 102.429197 
L 96.897977 102.429197 
L 96.99272 102.429197 
L 96.99272 93.005071 
L 97.087514 93.005071 
L 97.371885 93.005071 
L 97.371885 88.293008 
L 97.466692 88.293008 
L 97.561434 88.293008 
L 97.608844 74.156819 
L 97.656236 74.156819 
L 97.751025 74.156819 
L 97.751025 64.732693 
L 97.845822 64.732693 
L 98.509265 64.732693 
L 98.509265 69.444756 
L 98.604091 69.444756 
L 101.352775 69.444756 
L 101.352775 60.02063 
L 101.447591 60.02063 
L 101.542389 60.02063 
L 101.542389 55.308567 
L 101.637171 55.308567 
L 101.921497 55.308567 
L 101.921497 50.596504 
L 102.016283 50.596504 
L 102.111086 50.596504 
L 102.111086 41.172378 
L 102.20585 41.172378 
L 102.300654 41.172378 
L 102.300654 36.460315 
L 102.395413 36.460315 
L 102.679794 36.460315 
L 102.679794 31.748252 
L 102.774545 31.748252 
L 258.314519 31.748252 
L 258.314519 36.460315 
L 258.409281 36.460315 
L 262.674543 36.460315 
L 262.674543 31.748252 
L 262.769353 31.748252 
L 303.005 31.748252 
L 303.005 31.748252 
" style="fill:none;stroke:#e6ab02;stroke-linecap:square;stroke-width:1.5;"/>
   </g>
   <g id="line2d_26">
    <path clip-path="url(#p0201604a3f)" d="M 55.905 196.670456 
L 60.974994 196.670456 
L 60.974994 191.958393 
L 61.069749 191.958393 
L 64.766327 191.958393 
L 64.766327 187.24633 
L 64.861075 187.24633 
L 64.955887 187.24633 
L 64.955887 182.534267 
L 65.050669 182.534267 
L 65.335002 182.534267 
L 65.335002 177.822204 
L 65.429796 177.822204 
L 65.524568 177.822204 
L 65.524568 173.110142 
L 65.61935 173.110142 
L 65.714137 173.110142 
L 65.714137 163.686016 
L 65.808908 163.686016 
L 65.903733 163.686016 
L 65.903733 158.973953 
L 65.998512 158.973953 
L 66.093262 158.973953 
L 66.093262 154.26189 
L 66.18804 154.26189 
L 69.126361 154.26189 
L 69.126361 149.549827 
L 69.221135 149.549827 
L 69.315924 149.549827 
L 69.315924 140.125701 
L 69.410705 140.125701 
L 69.695028 140.125701 
L 69.695028 135.413638 
L 69.789835 135.413638 
L 69.884625 135.413638 
L 69.884625 125.989512 
L 69.979411 125.989512 
L 70.263759 125.989512 
L 70.263759 121.277449 
L 70.358553 121.277449 
L 70.642887 121.277449 
L 70.642887 116.565386 
L 70.737693 116.565386 
L 70.832465 116.565386 
L 70.832465 111.853323 
L 70.927232 111.853323 
L 74.244692 111.853323 
L 74.244692 107.14126 
L 74.339466 107.14126 
L 75.002948 107.14126 
L 75.002948 102.429197 
L 75.097722 102.429197 
L 79.931667 102.429197 
L 79.931667 97.717134 
L 80.02647 97.717134 
L 87.514377 97.717134 
L 87.514377 93.005071 
L 87.609141 93.005071 
L 88.083099 93.005071 
L 88.083099 78.868882 
L 88.177862 78.868882 
L 88.272645 78.868882 
L 88.272645 69.444756 
L 88.36742 69.444756 
L 88.462233 69.444756 
L 88.462233 60.02063 
L 88.556994 60.02063 
L 89.030933 60.02063 
L 89.030933 55.308567 
L 89.125702 55.308567 
L 91.684863 55.308567 
L 91.684863 50.596504 
L 91.77964 50.596504 
L 92.253552 50.596504 
L 92.253552 45.884441 
L 92.348365 45.884441 
L 92.443133 45.884441 
L 92.443133 41.172378 
L 92.537912 41.172378 
L 92.632688 41.172378 
L 92.632688 36.460315 
L 92.727465 36.460315 
L 93.201408 36.460315 
L 93.201408 31.748252 
L 93.296197 31.748252 
L 303.005 31.748252 
L 303.005 31.748252 
" style="fill:none;stroke:#a6761d;stroke-linecap:square;stroke-width:1.5;"/>
   </g>
   <g id="line2d_27">
    <path clip-path="url(#p0201604a3f)" d="M 55.905 201.382519 
L 65.145435 201.382519 
L 65.145435 196.670456 
L 65.240234 196.670456 
L 65.714137 196.670456 
L 65.714137 191.958393 
L 65.808908 191.958393 
L 69.884625 191.958393 
L 69.884625 187.24633 
L 69.979411 187.24633 
L 70.263759 187.24633 
L 70.263759 191.958393 
L 70.358553 191.958393 
L 70.453325 191.958393 
L 70.453325 182.534267 
L 70.548095 182.534267 
L 87.703971 182.534267 
L 87.703971 177.822204 
L 87.798708 177.822204 
L 88.083099 177.822204 
L 88.083099 173.110142 
L 88.177862 173.110142 
L 88.462233 173.110142 
L 88.462233 168.398079 
L 88.556994 168.398079 
L 88.651803 168.398079 
L 88.651803 163.686016 
L 88.746561 163.686016 
L 89.599608 163.686016 
L 89.599608 158.973953 
L 89.69443 158.973953 
L 92.632688 158.973953 
L 92.632688 154.26189 
L 92.727465 154.26189 
L 93.201408 154.26189 
L 93.201408 149.549827 
L 93.296197 149.549827 
L 93.390973 149.549827 
L 93.390973 144.837764 
L 93.485754 144.837764 
L 96.613592 144.837764 
L 96.613592 135.413638 
L 96.708414 135.413638 
L 96.803155 135.413638 
L 96.803155 130.701575 
L 96.897977 130.701575 
L 96.99272 130.701575 
L 97.040116 116.565386 
L 97.087514 116.565386 
L 97.751025 116.565386 
L 97.751025 111.853323 
L 97.845822 111.853323 
L 97.940566 111.853323 
L 97.940566 107.14126 
L 98.035381 107.14126 
L 98.130158 107.14126 
L 98.130158 111.853323 
L 98.224961 111.853323 
L 98.319709 111.853323 
L 98.319709 107.14126 
L 98.414525 107.14126 
L 98.509265 107.14126 
L 98.509265 102.429197 
L 98.604091 102.429197 
L 100.784103 102.429197 
L 100.784103 107.14126 
L 100.878859 107.14126 
L 101.352775 107.14126 
L 101.352775 93.005071 
L 101.447591 93.005071 
L 101.731923 93.005071 
L 101.731923 88.293008 
L 101.826691 88.293008 
L 102.111086 88.293008 
L 102.111086 69.444756 
L 102.20585 69.444756 
L 102.300654 69.444756 
L 102.300654 64.732693 
L 102.395413 64.732693 
L 106.471098 64.732693 
L 106.471098 60.02063 
L 106.565875 60.02063 
L 121.826087 60.02063 
L 121.826087 55.308567 
L 121.920871 55.308567 
L 124.859156 55.308567 
L 124.859156 50.596504 
L 124.953913 50.596504 
L 125.0487 50.596504 
L 125.0487 55.308567 
L 125.143506 55.308567 
L 125.427837 55.308567 
L 125.427837 50.596504 
L 125.522643 50.596504 
L 129.977483 50.596504 
L 129.977483 45.884441 
L 130.072254 45.884441 
L 137.749696 45.884441 
L 137.749696 50.596504 
L 137.844489 50.596504 
L 143.05759 50.596504 
L 143.05759 45.884441 
L 143.152386 45.884441 
L 151.209021 45.884441 
L 151.209021 50.596504 
L 151.303769 50.596504 
L 151.588104 50.596504 
L 151.588104 55.308567 
L 151.682935 55.308567 
L 152.156813 55.308567 
L 152.156813 60.02063 
L 152.251597 60.02063 
L 157.464705 60.02063 
L 157.464705 64.732693 
L 157.559528 64.732693 
L 165.616087 64.732693 
L 165.616087 69.444756 
L 165.710898 69.444756 
L 184.57286 69.444756 
L 184.57286 74.156819 
L 184.667624 74.156819 
L 270.636394 74.156819 
L 270.636394 69.444756 
L 270.731216 69.444756 
L 275.75473 69.444756 
L 275.75473 74.156819 
L 275.849538 74.156819 
L 303.005 74.156819 
L 303.005 74.156819 
" style="fill:none;stroke:#666666;stroke-linecap:square;stroke-width:1.5;"/>
   </g>
   <g id="line2d_28">
    <path clip-path="url(#p0201604a3f)" d="M 55.905 206.094582 
L 65.145435 206.094582 
L 65.145435 201.382519 
L 65.240234 201.382519 
L 70.263759 201.382519 
L 70.263759 191.958393 
L 70.358553 191.958393 
L 87.514377 191.958393 
L 87.514377 187.24633 
L 87.609141 187.24633 
L 87.89352 187.24633 
L 87.89352 182.534267 
L 87.988274 182.534267 
L 88.462233 182.534267 
L 88.462233 177.822204 
L 88.556994 177.822204 
L 92.063989 177.822204 
L 92.063989 173.110142 
L 92.158771 173.110142 
L 92.253552 173.110142 
L 92.253552 163.686016 
L 92.348365 163.686016 
L 92.443133 163.686016 
L 92.443133 158.973953 
L 92.537912 158.973953 
L 92.822234 158.973953 
L 92.822234 154.26189 
L 92.917067 154.26189 
L 93.011839 154.26189 
L 93.011839 144.837764 
L 93.106625 144.837764 
L 93.201408 144.837764 
L 93.201408 135.413638 
L 93.296197 135.413638 
L 93.959691 135.413638 
L 93.959691 130.701575 
L 94.054463 130.701575 
L 94.338814 130.701575 
L 94.338814 125.989512 
L 94.433587 125.989512 
L 94.528346 125.989512 
L 94.528346 130.701575 
L 94.623179 130.701575 
L 96.234472 130.701575 
L 96.234472 135.413638 
L 96.329279 135.413638 
L 96.424019 135.413638 
L 96.424019 140.125701 
L 96.518961 140.125701 
L 96.613592 140.125701 
L 96.613592 135.413638 
L 96.708414 135.413638 
L 96.803155 135.413638 
L 96.803155 140.125701 
L 96.897977 140.125701 
L 96.99272 140.125701 
L 96.99272 135.413638 
L 97.087514 135.413638 
L 97.182307 135.413638 
L 97.182307 130.701575 
L 97.277092 130.701575 
L 97.561434 130.701575 
L 97.561434 135.413638 
L 97.656236 135.413638 
L 101.921497 135.413638 
L 101.921497 130.701575 
L 102.016283 130.701575 
L 102.300654 130.701575 
L 102.300654 125.989512 
L 102.395413 125.989512 
L 106.660691 125.989512 
L 106.660691 121.277449 
L 106.755455 121.277449 
L 107.987646 121.277449 
L 107.987646 116.565386 
L 108.082413 116.565386 
L 120.119958 116.565386 
L 120.119958 111.853323 
L 120.214758 111.853323 
L 120.309523 111.853323 
L 120.309523 107.14126 
L 120.404313 107.14126 
L 121.067773 107.14126 
L 121.067773 102.429197 
L 121.162588 102.429197 
L 129.977483 102.429197 
L 129.977483 97.717134 
L 130.072254 97.717134 
L 130.546135 97.717134 
L 130.546135 93.005071 
L 130.640957 93.005071 
L 140.024532 93.005071 
L 140.024532 88.293008 
L 140.11929 88.293008 
L 144.194993 88.293008 
L 144.194993 93.005071 
L 144.289781 93.005071 
L 151.588104 93.005071 
L 151.588104 97.717134 
L 151.682935 97.717134 
L 184.193717 97.717134 
L 184.193717 93.005071 
L 184.288515 93.005071 
L 216.230609 93.005071 
L 216.230609 88.293008 
L 216.325372 88.293008 
L 219.832375 88.293008 
L 219.832375 83.580945 
L 219.927129 83.580945 
L 232.912498 83.580945 
L 232.912498 78.868882 
L 233.007296 78.868882 
L 260.589359 78.868882 
L 260.589359 83.580945 
L 260.68414 83.580945 
L 260.778879 83.580945 
L 260.778879 78.868882 
L 260.873661 78.868882 
L 298.88192 78.868882 
L 298.88192 83.580945 
L 298.976686 83.580945 
L 303.005 83.580945 
L 303.005 83.580945 
" style="fill:none;stroke:#1b9e77;stroke-dasharray:4.5,1.5;stroke-dashoffset:0;stroke-width:1.5;"/>
   </g>
   <g id="line2d_29">
    <path clip-path="url(#p0201604a3f)" d="M 55.905 196.670456 
L 60.118751 196.670456 
L 60.118751 191.958393 
L 65.714137 191.958393 
L 65.714137 187.24633 
L 65.808908 187.24633 
L 69.50547 187.24633 
L 69.50547 182.534267 
L 69.600251 182.534267 
L 69.884625 182.534267 
L 69.884625 177.822204 
L 69.979411 177.822204 
L 70.453325 177.822204 
L 70.453325 173.110142 
L 70.548095 173.110142 
L 70.642887 173.110142 
L 70.642887 168.398079 
L 70.737693 168.398079 
L 71.780299 168.398079 
L 71.780299 163.686016 
L 71.875101 163.686016 
L 88.083099 163.686016 
L 88.083099 154.26189 
L 88.177862 154.26189 
L 92.443133 154.26189 
L 92.443133 149.549827 
L 92.537912 149.549827 
L 93.390973 149.549827 
L 93.390973 144.837764 
L 93.485754 144.837764 
L 93.959691 144.837764 
L 93.959691 140.125701 
L 94.054463 140.125701 
L 96.803155 140.125701 
L 96.803155 135.413638 
L 96.897977 135.413638 
L 96.99272 135.413638 
L 96.99272 125.989512 
L 97.087514 125.989512 
L 97.561434 125.989512 
L 97.561434 116.565386 
L 97.656236 116.565386 
L 101.731923 116.565386 
L 101.731923 111.853323 
L 101.826691 111.853323 
L 102.300654 111.853323 
L 102.300654 107.14126 
L 102.395413 107.14126 
L 102.869317 107.14126 
L 102.869317 102.429197 
L 102.964122 102.429197 
L 107.608531 102.429197 
L 107.608531 97.717134 
L 107.703317 97.717134 
L 120.688666 97.717134 
L 120.688666 93.005071 
L 120.783462 93.005071 
L 125.0487 93.005071 
L 125.0487 88.293008 
L 125.143506 88.293008 
L 129.977483 88.293008 
L 129.977483 93.005071 
L 130.072254 93.005071 
L 151.7777 93.005071 
L 151.7777 88.293008 
L 151.872506 88.293008 
L 151.967252 88.293008 
L 151.967252 93.005071 
L 152.062053 93.005071 
L 156.706453 93.005071 
L 156.706453 88.293008 
L 156.801259 88.293008 
L 190.070276 88.293008 
L 190.070276 83.580945 
L 190.165086 83.580945 
L 220.401052 83.580945 
L 220.401052 78.868882 
L 220.495834 78.868882 
L 230.069004 78.868882 
L 230.069004 83.580945 
L 230.163778 83.580945 
L 290.161838 83.580945 
L 290.161838 88.293008 
L 290.25661 88.293008 
L 292.436659 88.293008 
L 292.436659 93.005071 
L 292.53144 93.005071 
L 303.005 93.005071 
L 303.005 93.005071 
" style="fill:none;stroke:#d95f02;stroke-dasharray:4.5,1.5;stroke-dashoffset:0;stroke-width:1.5;"/>
   </g>
   <g id="line2d_30">
    <path clip-path="url(#p0201604a3f)" d="M 55.905 210.806645 
L 61.543641 210.806645 
L 61.543641 206.094582 
L 61.63843 206.094582 
L 62.301948 206.094582 
L 62.301948 201.382519 
L 62.396721 201.382519 
L 74.244692 201.382519 
L 74.244692 196.670456 
L 74.339466 196.670456 
L 87.514377 196.670456 
L 87.514377 191.958393 
L 87.609141 191.958393 
L 88.841342 191.958393 
L 88.841342 182.534267 
L 88.936117 182.534267 
L 92.443133 182.534267 
L 92.443133 177.822204 
L 92.537912 177.822204 
L 92.632688 177.822204 
L 92.632688 173.110142 
L 92.727465 173.110142 
L 93.201408 173.110142 
L 93.201408 163.686016 
L 93.296197 163.686016 
L 93.390973 163.686016 
L 93.390973 158.973953 
L 93.485754 158.973953 
L 94.528346 158.973953 
L 94.528346 154.26189 
L 94.623179 154.26189 
L 96.803155 154.26189 
L 96.803155 158.973953 
L 96.897977 158.973953 
L 97.182307 158.973953 
L 97.182307 154.26189 
L 97.277092 154.26189 
L 97.371885 154.26189 
L 97.371885 149.549827 
L 97.466692 149.549827 
L 97.751025 149.549827 
L 97.751025 144.837764 
L 97.845822 144.837764 
L 97.940566 144.837764 
L 97.940566 149.549827 
L 98.035381 149.549827 
L 98.130158 149.549827 
L 98.130158 144.837764 
L 98.224961 144.837764 
L 101.352775 144.837764 
L 101.352775 140.125701 
L 101.447591 140.125701 
L 107.418961 140.125701 
L 107.418961 135.413638 
L 107.513732 135.413638 
L 120.119958 135.413638 
L 120.119958 130.701575 
L 120.214758 130.701575 
L 138.128841 130.701575 
L 138.128841 125.989512 
L 138.223667 125.989512 
L 160.687371 125.989512 
L 160.687371 121.277449 
L 160.782158 121.277449 
L 184.57286 121.277449 
L 184.57286 116.565386 
L 184.667624 116.565386 
L 228.931594 116.565386 
L 228.931594 111.853323 
L 247.130041 111.853323 
L 247.130041 107.14126 
L 247.224847 107.14126 
L 284.664367 107.14126 
L 284.664367 102.429197 
L 284.759158 102.429197 
L 289.972254 102.429197 
L 289.972254 97.717134 
L 290.067042 97.717134 
L 296.986231 97.717134 
L 296.986231 93.005071 
L 297.08104 93.005071 
L 303.005 93.005071 
L 303.005 93.005071 
" style="fill:none;stroke:#7570b3;stroke-dasharray:4.5,1.5;stroke-dashoffset:0;stroke-width:1.5;"/>
   </g>
   <g id="line2d_31">
    <path clip-path="url(#p0201604a3f)" d="M 55.905 210.806645 
L 60.785573 210.806645 
L 60.785573 206.094582 
L 60.880193 206.094582 
L 61.164551 206.094582 
L 61.164551 201.382519 
L 61.259355 201.382519 
L 65.524568 201.382519 
L 65.524568 196.670456 
L 65.61935 196.670456 
L 70.453325 196.670456 
L 70.453325 191.958393 
L 70.548095 191.958393 
L 73.486409 191.958393 
L 73.486409 187.24633 
L 73.581221 187.24633 
L 74.434226 187.24633 
L 74.434226 182.534267 
L 74.52903 182.534267 
L 74.813377 182.534267 
L 74.813377 177.822204 
L 74.908143 177.822204 
L 87.514377 177.822204 
L 87.514377 168.398079 
L 87.609141 168.398079 
L 87.89352 168.398079 
L 87.89352 163.686016 
L 87.988274 163.686016 
L 88.083099 163.686016 
L 88.083099 158.973953 
L 88.177862 158.973953 
L 88.272645 158.973953 
L 88.272645 154.26189 
L 88.36742 154.26189 
L 88.462233 154.26189 
L 88.462233 144.837764 
L 88.556994 144.837764 
L 88.651803 144.837764 
L 88.651803 140.125701 
L 88.746561 140.125701 
L 89.030933 140.125701 
L 89.030933 135.413638 
L 89.125702 135.413638 
L 89.410084 135.413638 
L 89.410084 130.701575 
L 89.504851 130.701575 
L 89.978734 130.701575 
L 89.978734 125.989512 
L 90.073563 125.989512 
L 92.063989 125.989512 
L 92.063989 121.277449 
L 92.158771 121.277449 
L 92.253552 121.277449 
L 92.253552 116.565386 
L 92.348365 116.565386 
L 92.443133 116.565386 
L 92.443133 102.429197 
L 92.537912 102.429197 
L 92.632688 102.429197 
L 92.632688 97.717134 
L 92.727465 97.717134 
L 92.822234 97.717134 
L 92.822234 93.005071 
L 92.917067 93.005071 
L 94.528346 93.005071 
L 94.528346 97.717134 
L 94.623179 97.717134 
L 96.99272 97.717134 
L 96.99272 93.005071 
L 97.087514 93.005071 
L 97.182307 93.005071 
L 97.182307 97.717134 
L 97.277092 97.717134 
L 97.371885 97.717134 
L 97.371885 93.005071 
L 97.466692 93.005071 
L 102.679794 93.005071 
L 102.679794 97.717134 
L 102.774545 97.717134 
L 102.869317 97.717134 
L 102.869317 93.005071 
L 102.964122 93.005071 
L 284.285262 93.005071 
L 284.285262 97.717134 
L 284.380008 97.717134 
L 298.88192 97.717134 
L 298.88192 93.005071 
L 298.976686 93.005071 
L 303.005 93.005071 
L 303.005 93.005071 
" style="fill:none;stroke:#e7298a;stroke-dasharray:4.5,1.5;stroke-dashoffset:0;stroke-width:1.5;"/>
   </g>
   <g id="line2d_32">
    <path clip-path="url(#p0201604a3f)" d="M 141.019742 210.806645 
L 142.678442 210.806645 
L 142.678442 206.094582 
L 142.773259 206.094582 
L 148.365501 206.094582 
L 148.365501 201.382519 
L 148.460257 201.382519 
L 151.209021 201.382519 
L 151.209021 182.534267 
L 151.303769 182.534267 
L 151.588104 182.534267 
L 151.588104 173.110142 
L 151.682935 173.110142 
L 151.967252 173.110142 
L 151.967252 158.973953 
L 152.062053 158.973953 
L 152.34638 158.973953 
L 152.34638 154.26189 
L 152.441201 154.26189 
L 156.137766 154.26189 
L 156.137766 149.549827 
L 156.232548 149.549827 
L 157.085591 149.549827 
L 157.085591 144.837764 
L 157.180368 144.837764 
L 157.464705 144.837764 
L 157.464705 140.125701 
L 157.559528 140.125701 
L 157.843842 140.125701 
L 157.843842 135.413638 
L 157.938623 135.413638 
L 158.033416 135.413638 
L 158.033416 130.701575 
L 158.12818 130.701575 
L 160.687371 130.701575 
L 160.687371 125.989512 
L 160.782158 125.989512 
L 162.393445 125.989512 
L 162.393445 121.277449 
L 162.488261 121.277449 
L 165.616087 121.277449 
L 165.616087 116.565386 
L 165.710898 116.565386 
L 223.623686 116.565386 
L 223.623686 121.277449 
L 223.718474 121.277449 
L 224.571511 121.277449 
L 224.571511 116.565386 
L 224.666331 116.565386 
L 256.418855 116.565386 
L 256.418855 111.853323 
L 256.513652 111.853323 
L 256.797952 111.853323 
L 256.797952 107.14126 
L 256.892781 107.14126 
L 258.314519 107.14126 
L 258.314519 102.429197 
L 258.409281 102.429197 
L 284.095658 102.429197 
L 284.095658 97.717134 
L 284.190449 97.717134 
L 303.005 97.717134 
L 303.005 97.717134 
" style="fill:none;stroke:#66a61e;stroke-dasharray:4.5,1.5;stroke-dashoffset:0;stroke-width:1.5;"/>
   </g>
   <g id="line2d_33">
    <path clip-path="url(#p0201604a3f)" d="M 55.905 206.094582 
L 64.766327 206.094582 
L 64.766327 201.382519 
L 64.861075 201.382519 
L 64.955887 201.382519 
L 64.955887 196.670456 
L 65.050669 196.670456 
L 65.714137 196.670456 
L 65.714137 187.24633 
L 65.808908 187.24633 
L 69.315924 187.24633 
L 69.315924 182.534267 
L 69.410705 182.534267 
L 70.263759 182.534267 
L 70.263759 177.822204 
L 70.358553 177.822204 
L 70.453325 177.822204 
L 70.453325 173.110142 
L 70.548095 173.110142 
L 70.642887 173.110142 
L 70.642887 168.398079 
L 70.737693 168.398079 
L 87.89352 168.398079 
L 87.89352 163.686016 
L 87.988274 163.686016 
L 88.083099 163.686016 
L 88.083099 158.973953 
L 88.177862 158.973953 
L 88.272645 158.973953 
L 88.272645 149.549827 
L 88.36742 149.549827 
L 93.011839 149.549827 
L 93.011839 144.837764 
L 93.106625 144.837764 
L 93.201408 144.837764 
L 93.201408 140.125701 
L 93.296197 140.125701 
L 96.424019 140.125701 
L 96.424019 144.837764 
L 96.518961 144.837764 
L 96.99272 144.837764 
L 96.99272 135.413638 
L 97.087514 135.413638 
L 97.182307 135.413638 
L 97.182307 140.125701 
L 97.277092 140.125701 
L 97.371885 140.125701 
L 97.371885 135.413638 
L 97.466692 135.413638 
L 97.751025 135.413638 
L 97.751025 125.989512 
L 97.845822 125.989512 
L 97.940566 125.989512 
L 97.940566 121.277449 
L 98.035381 121.277449 
L 106.850225 121.277449 
L 106.850225 116.565386 
L 106.945052 116.565386 
L 107.418961 116.565386 
L 107.418961 111.853323 
L 107.513732 111.853323 
L 116.518164 111.853323 
L 116.518164 107.14126 
L 116.612949 107.14126 
L 133.76879 107.14126 
L 133.76879 102.429197 
L 133.863588 102.429197 
L 134.527059 102.429197 
L 134.527059 97.717134 
L 134.621887 97.717134 
L 138.318434 97.717134 
L 138.318434 93.005071 
L 138.413223 93.005071 
L 153.294261 93.005071 
L 153.294261 88.293008 
L 153.38901 88.293008 
L 266.27632 88.293008 
L 266.27632 93.005071 
L 266.371148 93.005071 
L 270.636394 93.005071 
L 270.636394 97.717134 
L 270.731216 97.717134 
L 303.005 97.717134 
L 303.005 97.717134 
" style="fill:none;stroke:#e6ab02;stroke-dasharray:4.5,1.5;stroke-dashoffset:0;stroke-width:1.5;"/>
   </g>
   <g id="line2d_34">
    <path clip-path="url(#p0201604a3f)" d="M 55.905 206.094582 
L 65.335002 206.094582 
L 65.335002 196.670456 
L 65.429796 196.670456 
L 69.50547 196.670456 
L 69.50547 187.24633 
L 69.600251 187.24633 
L 69.695028 187.24633 
L 69.695028 182.534267 
L 69.789835 182.534267 
L 70.453325 182.534267 
L 70.453325 177.822204 
L 70.548095 177.822204 
L 70.642887 177.822204 
L 70.642887 173.110142 
L 70.737693 173.110142 
L 88.272645 173.110142 
L 88.272645 168.398079 
L 88.36742 168.398079 
L 88.462233 168.398079 
L 88.462233 163.686016 
L 88.556994 163.686016 
L 88.651803 163.686016 
L 88.651803 158.973953 
L 88.746561 158.973953 
L 89.220463 158.973953 
L 89.220463 154.26189 
L 89.31529 154.26189 
L 89.410084 154.26189 
L 89.410084 158.973953 
L 89.504851 158.973953 
L 92.063989 158.973953 
L 92.063989 140.125701 
L 92.158771 140.125701 
L 92.443133 140.125701 
L 92.443133 130.701575 
L 92.537912 130.701575 
L 92.632688 130.701575 
L 92.632688 125.989512 
L 92.727465 125.989512 
L 92.822234 125.989512 
L 92.822234 116.565386 
L 92.917067 116.565386 
L 303.005 116.565386 
L 303.005 116.565386 
" style="fill:none;stroke:#a6761d;stroke-dasharray:4.5,1.5;stroke-dashoffset:0;stroke-width:1.5;"/>
   </g>
   <g id="line2d_35">
    <path clip-path="url(#p0201604a3f)" d="M 55.905 210.806645 
L 65.714137 210.806645 
L 65.714137 206.094582 
L 65.808908 206.094582 
L 65.903733 206.094582 
L 65.903733 201.382519 
L 65.998512 201.382519 
L 69.695028 201.382519 
L 69.695028 196.670456 
L 69.789835 196.670456 
L 70.642887 196.670456 
L 70.642887 191.958393 
L 70.737693 191.958393 
L 71.022022 191.958393 
L 71.022022 187.24633 
L 71.116827 187.24633 
L 71.401176 187.24633 
L 71.401176 182.534267 
L 71.495968 182.534267 
L 74.244692 182.534267 
L 74.244692 187.24633 
L 74.339466 187.24633 
L 87.703971 187.24633 
L 87.703971 182.534267 
L 87.798708 182.534267 
L 88.841342 182.534267 
L 88.841342 173.110142 
L 88.936117 173.110142 
L 92.253552 173.110142 
L 92.253552 168.398079 
L 92.348365 168.398079 
L 93.011839 168.398079 
L 93.011839 149.549827 
L 93.106625 149.549827 
L 93.201408 149.549827 
L 93.201408 144.837764 
L 93.296197 144.837764 
L 93.390973 144.837764 
L 93.390973 140.125701 
L 93.485754 140.125701 
L 151.588104 140.125701 
L 151.588104 144.837764 
L 151.682935 144.837764 
L 151.7777 144.837764 
L 151.7777 140.125701 
L 151.872506 140.125701 
L 266.27632 140.125701 
L 266.27632 135.413638 
L 266.371148 135.413638 
L 275.75473 135.413638 
L 275.75473 130.701575 
L 275.849538 130.701575 
L 289.78269 130.701575 
L 289.78269 125.989512 
L 289.877508 125.989512 
L 292.436659 125.989512 
L 292.436659 121.277449 
L 292.53144 121.277449 
L 293.19492 121.277449 
L 293.19492 116.565386 
L 293.289688 116.565386 
L 303.005 116.565386 
L 303.005 116.565386 
" style="fill:none;stroke:#666666;stroke-dasharray:4.5,1.5;stroke-dashoffset:0;stroke-width:1.5;"/>
   </g>
   <g id="line2d_36"/>
   <g id="line2d_37"/>
   <g id="line2d_38"/>
   <g id="line2d_39"/>
   <g id="line2d_40"/>
   <g id="line2d_41"/>
   <g id="line2d_42"/>
   <g id="line2d_43"/>
   <g id="line2d_44"/>
   <g id="line2d_45"/>
   <g id="line2d_46"/>
   <g id="line2d_47"/>
   <g id="line2d_48"/>
   <g id="line2d_49"/>
   <g id="line2d_50"/>
   <g id="line2d_51"/>
   <g id="line2d_52"/>
   <g id="patch_3">
    <path d="M 43.55 220.230771 
L 43.55 12.9 
" style="fill:none;stroke:#000000;stroke-linecap:square;stroke-linejoin:miter;stroke-width:0.8;"/>
   </g>
   <g id="patch_4">
    <path d="M 315.36 220.230771 
L 315.36 12.9 
" style="fill:none;stroke:#000000;stroke-linecap:square;stroke-linejoin:miter;stroke-width:0.8;"/>
   </g>
   <g id="patch_5">
    <path d="M 43.55 220.230771 
L 315.36 220.230771 
" style="fill:none;stroke:#000000;stroke-linecap:square;stroke-linejoin:miter;stroke-width:0.8;"/>
   </g>
   <g id="patch_6">
    <path d="M 43.55 12.9 
L 315.36 12.9 
" style="fill:none;stroke:#000000;stroke-linecap:square;stroke-linejoin:miter;stroke-width:0.8;"/>
   </g>
  </g>
  <g id="legend_1">
   <g id="patch_7">
    <path d="M 331.8625 262.528125 
L 420 262.528125 
Q 422 262.528125 422 260.528125 
L 422 12 
Q 422 10 420 10 
L 331.8625 10 
Q 329.8625 10 329.8625 12 
L 329.8625 260.528125 
Q 329.8625 262.528125 331.8625 262.528125 
z
" style="fill:#ffffff;opacity:0.8;stroke:#cccccc;stroke-linejoin:miter;"/>
   </g>
   <g id="text_22">
    <!-- 494/610 Reg. -->
    <defs>
     <path d="M 25.390625 72.90625 
L 33.6875 72.90625 
L 8.296875 -9.28125 
L 0 -9.28125 
z
" id="DejaVuSans-47"/>
     <path d="M 33.015625 40.375 
Q 26.375 40.375 22.484375 35.828125 
Q 18.609375 31.296875 18.609375 23.390625 
Q 18.609375 15.53125 22.484375 10.953125 
Q 26.375 6.390625 33.015625 6.390625 
Q 39.65625 6.390625 43.53125 10.953125 
Q 47.40625 15.53125 47.40625 23.390625 
Q 47.40625 31.296875 43.53125 35.828125 
Q 39.65625 40.375 33.015625 40.375 
z
M 52.59375 71.296875 
L 52.59375 62.3125 
Q 48.875 64.0625 45.09375 64.984375 
Q 41.3125 65.921875 37.59375 65.921875 
Q 27.828125 65.921875 22.671875 59.328125 
Q 17.53125 52.734375 16.796875 39.40625 
Q 19.671875 43.65625 24.015625 45.921875 
Q 28.375 48.1875 33.59375 48.1875 
Q 44.578125 48.1875 50.953125 41.515625 
Q 57.328125 34.859375 57.328125 23.390625 
Q 57.328125 12.15625 50.6875 5.359375 
Q 44.046875 -1.421875 33.015625 -1.421875 
Q 20.359375 -1.421875 13.671875 8.265625 
Q 6.984375 17.96875 6.984375 36.375 
Q 6.984375 53.65625 15.1875 63.9375 
Q 23.390625 74.21875 37.203125 74.21875 
Q 40.921875 74.21875 44.703125 73.484375 
Q 48.484375 72.75 52.59375 71.296875 
z
" id="DejaVuSans-54"/>
     <path d="M 10.6875 12.40625 
L 21 12.40625 
L 21 0 
L 10.6875 0 
z
" id="DejaVuSans-46"/>
    </defs>
    <g transform="translate(342.259375 21.598437)scale(0.1 -0.1)">
     <use xlink:href="#DejaVuSans-52"/>
     <use x="63.623047" xlink:href="#DejaVuSans-57"/>
     <use x="127.246094" xlink:href="#DejaVuSans-52"/>
     <use x="190.869141" xlink:href="#DejaVuSans-47"/>
     <use x="224.560547" xlink:href="#DejaVuSans-54"/>
     <use x="288.183594" xlink:href="#DejaVuSans-49"/>
     <use x="351.806641" xlink:href="#DejaVuSans-48"/>
     <use x="415.429688" xlink:href="#DejaVuSans-32"/>
     <use x="447.216797" xlink:href="#DejaVuSans-82"/>
     <use x="516.636719" xlink:href="#DejaVuSans-101"/>
     <use x="578.160156" xlink:href="#DejaVuSans-103"/>
     <use x="641.636719" xlink:href="#DejaVuSans-46"/>
    </g>
   </g>
   <g id="line2d_53">
    <path d="M 333.8625 32.776562 
L 353.8625 32.776562 
" style="fill:none;stroke:#1b9e77;stroke-linecap:square;stroke-width:1.5;"/>
   </g>
   <g id="line2d_54"/>
   <g id="text_23">
    <!-- AS (40) -->
    <defs>
     <path d="M 34.1875 63.1875 
L 20.796875 26.90625 
L 47.609375 26.90625 
z
M 28.609375 72.90625 
L 39.796875 72.90625 
L 67.578125 0 
L 57.328125 0 
L 50.6875 18.703125 
L 17.828125 18.703125 
L 11.1875 0 
L 0.78125 0 
z
" id="DejaVuSans-65"/>
     <path d="M 31 75.875 
Q 24.46875 64.65625 21.28125 53.65625 
Q 18.109375 42.671875 18.109375 31.390625 
Q 18.109375 20.125 21.3125 9.0625 
Q 24.515625 -2 31 -13.1875 
L 23.1875 -13.1875 
Q 15.875 -1.703125 12.234375 9.375 
Q 8.59375 20.453125 8.59375 31.390625 
Q 8.59375 42.28125 12.203125 53.3125 
Q 15.828125 64.359375 23.1875 75.875 
z
" id="DejaVuSans-40"/>
     <path d="M 8.015625 75.875 
L 15.828125 75.875 
Q 23.140625 64.359375 26.78125 53.3125 
Q 30.421875 42.28125 30.421875 31.390625 
Q 30.421875 20.453125 26.78125 9.375 
Q 23.140625 -1.703125 15.828125 -13.1875 
L 8.015625 -13.1875 
Q 14.5 -2 17.703125 9.0625 
Q 20.90625 20.125 20.90625 31.390625 
Q 20.90625 42.671875 17.703125 53.65625 
Q 14.5 64.65625 8.015625 75.875 
z
" id="DejaVuSans-41"/>
    </defs>
    <g transform="translate(361.8625 36.276562)scale(0.1 -0.1)">
     <use xlink:href="#DejaVuSans-65"/>
     <use x="68.408203" xlink:href="#DejaVuSans-83"/>
     <use x="131.884766" xlink:href="#DejaVuSans-32"/>
     <use x="163.671875" xlink:href="#DejaVuSans-40"/>
     <use x="202.685547" xlink:href="#DejaVuSans-52"/>
     <use x="266.308594" xlink:href="#DejaVuSans-48"/>
     <use x="329.931641" xlink:href="#DejaVuSans-41"/>
    </g>
   </g>
   <g id="line2d_55">
    <path d="M 333.8625 47.454688 
L 353.8625 47.454688 
" style="fill:none;stroke:#d95f02;stroke-linecap:square;stroke-width:1.5;"/>
   </g>
   <g id="line2d_56"/>
   <g id="text_24">
    <!-- AUS (40) -->
    <defs>
     <path d="M 8.6875 72.90625 
L 18.609375 72.90625 
L 18.609375 28.609375 
Q 18.609375 16.890625 22.84375 11.734375 
Q 27.09375 6.59375 36.625 6.59375 
Q 46.09375 6.59375 50.34375 11.734375 
Q 54.59375 16.890625 54.59375 28.609375 
L 54.59375 72.90625 
L 64.5 72.90625 
L 64.5 27.390625 
Q 64.5 13.140625 57.4375 5.859375 
Q 50.390625 -1.421875 36.625 -1.421875 
Q 22.796875 -1.421875 15.734375 5.859375 
Q 8.6875 13.140625 8.6875 27.390625 
z
" id="DejaVuSans-85"/>
    </defs>
    <g transform="translate(361.8625 50.954688)scale(0.1 -0.1)">
     <use xlink:href="#DejaVuSans-65"/>
     <use x="68.408203" xlink:href="#DejaVuSans-85"/>
     <use x="141.601562" xlink:href="#DejaVuSans-83"/>
     <use x="205.078125" xlink:href="#DejaVuSans-32"/>
     <use x="236.865234" xlink:href="#DejaVuSans-40"/>
     <use x="275.878906" xlink:href="#DejaVuSans-52"/>
     <use x="339.501953" xlink:href="#DejaVuSans-48"/>
     <use x="403.125" xlink:href="#DejaVuSans-41"/>
    </g>
   </g>
   <g id="line2d_57">
    <path d="M 333.8625 62.132812 
L 353.8625 62.132812 
" style="fill:none;stroke:#7570b3;stroke-linecap:square;stroke-width:1.5;"/>
   </g>
   <g id="line2d_58"/>
   <g id="text_25">
    <!-- COML (40) -->
    <defs>
     <path d="M 64.40625 67.28125 
L 64.40625 56.890625 
Q 59.421875 61.53125 53.78125 63.8125 
Q 48.140625 66.109375 41.796875 66.109375 
Q 29.296875 66.109375 22.65625 58.46875 
Q 16.015625 50.828125 16.015625 36.375 
Q 16.015625 21.96875 22.65625 14.328125 
Q 29.296875 6.6875 41.796875 6.6875 
Q 48.140625 6.6875 53.78125 8.984375 
Q 59.421875 11.28125 64.40625 15.921875 
L 64.40625 5.609375 
Q 59.234375 2.09375 53.4375 0.328125 
Q 47.65625 -1.421875 41.21875 -1.421875 
Q 24.65625 -1.421875 15.125 8.703125 
Q 5.609375 18.84375 5.609375 36.375 
Q 5.609375 53.953125 15.125 64.078125 
Q 24.65625 74.21875 41.21875 74.21875 
Q 47.75 74.21875 53.53125 72.484375 
Q 59.328125 70.75 64.40625 67.28125 
z
" id="DejaVuSans-67"/>
     <path d="M 39.40625 66.21875 
Q 28.65625 66.21875 22.328125 58.203125 
Q 16.015625 50.203125 16.015625 36.375 
Q 16.015625 22.609375 22.328125 14.59375 
Q 28.65625 6.59375 39.40625 6.59375 
Q 50.140625 6.59375 56.421875 14.59375 
Q 62.703125 22.609375 62.703125 36.375 
Q 62.703125 50.203125 56.421875 58.203125 
Q 50.140625 66.21875 39.40625 66.21875 
z
M 39.40625 74.21875 
Q 54.734375 74.21875 63.90625 63.9375 
Q 73.09375 53.65625 73.09375 36.375 
Q 73.09375 19.140625 63.90625 8.859375 
Q 54.734375 -1.421875 39.40625 -1.421875 
Q 24.03125 -1.421875 14.8125 8.828125 
Q 5.609375 19.09375 5.609375 36.375 
Q 5.609375 53.65625 14.8125 63.9375 
Q 24.03125 74.21875 39.40625 74.21875 
z
" id="DejaVuSans-79"/>
     <path d="M 9.8125 72.90625 
L 24.515625 72.90625 
L 43.109375 23.296875 
L 61.8125 72.90625 
L 76.515625 72.90625 
L 76.515625 0 
L 66.890625 0 
L 66.890625 64.015625 
L 48.09375 14.015625 
L 38.1875 14.015625 
L 19.390625 64.015625 
L 19.390625 0 
L 9.8125 0 
z
" id="DejaVuSans-77"/>
     <path d="M 9.8125 72.90625 
L 19.671875 72.90625 
L 19.671875 8.296875 
L 55.171875 8.296875 
L 55.171875 0 
L 9.8125 0 
z
" id="DejaVuSans-76"/>
    </defs>
    <g transform="translate(361.8625 65.632812)scale(0.1 -0.1)">
     <use xlink:href="#DejaVuSans-67"/>
     <use x="69.824219" xlink:href="#DejaVuSans-79"/>
     <use x="148.535156" xlink:href="#DejaVuSans-77"/>
     <use x="234.814453" xlink:href="#DejaVuSans-76"/>
     <use x="290.527344" xlink:href="#DejaVuSans-32"/>
     <use x="322.314453" xlink:href="#DejaVuSans-40"/>
     <use x="361.328125" xlink:href="#DejaVuSans-52"/>
     <use x="424.951172" xlink:href="#DejaVuSans-48"/>
     <use x="488.574219" xlink:href="#DejaVuSans-41"/>
    </g>
   </g>
   <g id="line2d_59">
    <path d="M 333.8625 76.810937 
L 353.8625 76.810937 
" style="fill:none;stroke:#e7298a;stroke-linecap:square;stroke-width:1.5;"/>
   </g>
   <g id="line2d_60"/>
   <g id="text_26">
    <!-- GDD (40) -->
    <defs>
     <path d="M 59.515625 10.40625 
L 59.515625 29.984375 
L 43.40625 29.984375 
L 43.40625 38.09375 
L 69.28125 38.09375 
L 69.28125 6.78125 
Q 63.578125 2.734375 56.6875 0.65625 
Q 49.8125 -1.421875 42 -1.421875 
Q 24.90625 -1.421875 15.25 8.5625 
Q 5.609375 18.5625 5.609375 36.375 
Q 5.609375 54.25 15.25 64.234375 
Q 24.90625 74.21875 42 74.21875 
Q 49.125 74.21875 55.546875 72.453125 
Q 61.96875 70.703125 67.390625 67.28125 
L 67.390625 56.78125 
Q 61.921875 61.421875 55.765625 63.765625 
Q 49.609375 66.109375 42.828125 66.109375 
Q 29.4375 66.109375 22.71875 58.640625 
Q 16.015625 51.171875 16.015625 36.375 
Q 16.015625 21.625 22.71875 14.15625 
Q 29.4375 6.6875 42.828125 6.6875 
Q 48.046875 6.6875 52.140625 7.59375 
Q 56.25 8.5 59.515625 10.40625 
z
" id="DejaVuSans-71"/>
    </defs>
    <g transform="translate(361.8625 80.310937)scale(0.1 -0.1)">
     <use xlink:href="#DejaVuSans-71"/>
     <use x="77.490234" xlink:href="#DejaVuSans-68"/>
     <use x="154.492188" xlink:href="#DejaVuSans-68"/>
     <use x="231.494141" xlink:href="#DejaVuSans-32"/>
     <use x="263.28125" xlink:href="#DejaVuSans-40"/>
     <use x="302.294922" xlink:href="#DejaVuSans-52"/>
     <use x="365.917969" xlink:href="#DejaVuSans-48"/>
     <use x="429.541016" xlink:href="#DejaVuSans-41"/>
    </g>
   </g>
   <g id="line2d_61">
    <path d="M 333.8625 91.489062 
L 353.8625 91.489062 
" style="fill:none;stroke:#66a61e;stroke-linecap:square;stroke-width:1.5;"/>
   </g>
   <g id="line2d_62"/>
   <g id="text_27">
    <!-- SA (39) -->
    <g transform="translate(361.8625 94.989062)scale(0.1 -0.1)">
     <use xlink:href="#DejaVuSans-83"/>
     <use x="63.492188" xlink:href="#DejaVuSans-65"/>
     <use x="131.900391" xlink:href="#DejaVuSans-32"/>
     <use x="163.6875" xlink:href="#DejaVuSans-40"/>
     <use x="202.701172" xlink:href="#DejaVuSans-51"/>
     <use x="266.324219" xlink:href="#DejaVuSans-57"/>
     <use x="329.947266" xlink:href="#DejaVuSans-41"/>
    </g>
   </g>
   <g id="line2d_63">
    <path d="M 333.8625 106.167188 
L 353.8625 106.167188 
" style="fill:none;stroke:#e6ab02;stroke-linecap:square;stroke-width:1.5;"/>
   </g>
   <g id="line2d_64"/>
   <g id="text_28">
    <!-- MD (38) -->
    <g transform="translate(361.8625 109.667188)scale(0.1 -0.1)">
     <use xlink:href="#DejaVuSans-77"/>
     <use x="86.279297" xlink:href="#DejaVuSans-68"/>
     <use x="163.28125" xlink:href="#DejaVuSans-32"/>
     <use x="195.068359" xlink:href="#DejaVuSans-40"/>
     <use x="234.082031" xlink:href="#DejaVuSans-51"/>
     <use x="297.705078" xlink:href="#DejaVuSans-56"/>
     <use x="361.328125" xlink:href="#DejaVuSans-41"/>
    </g>
   </g>
   <g id="line2d_65">
    <path d="M 333.8625 120.845312 
L 353.8625 120.845312 
" style="fill:none;stroke:#a6761d;stroke-linecap:square;stroke-width:1.5;"/>
   </g>
   <g id="line2d_66"/>
   <g id="text_29">
    <!-- HPI (38) -->
    <defs>
     <path d="M 9.8125 72.90625 
L 19.671875 72.90625 
L 19.671875 43.015625 
L 55.515625 43.015625 
L 55.515625 72.90625 
L 65.375 72.90625 
L 65.375 0 
L 55.515625 0 
L 55.515625 34.71875 
L 19.671875 34.71875 
L 19.671875 0 
L 9.8125 0 
z
" id="DejaVuSans-72"/>
     <path d="M 19.671875 64.796875 
L 19.671875 37.40625 
L 32.078125 37.40625 
Q 38.96875 37.40625 42.71875 40.96875 
Q 46.484375 44.53125 46.484375 51.125 
Q 46.484375 57.671875 42.71875 61.234375 
Q 38.96875 64.796875 32.078125 64.796875 
z
M 9.8125 72.90625 
L 32.078125 72.90625 
Q 44.34375 72.90625 50.609375 67.359375 
Q 56.890625 61.8125 56.890625 51.125 
Q 56.890625 40.328125 50.609375 34.8125 
Q 44.34375 29.296875 32.078125 29.296875 
L 19.671875 29.296875 
L 19.671875 0 
L 9.8125 0 
z
" id="DejaVuSans-80"/>
     <path d="M 9.8125 72.90625 
L 19.671875 72.90625 
L 19.671875 0 
L 9.8125 0 
z
" id="DejaVuSans-73"/>
    </defs>
    <g transform="translate(361.8625 124.345312)scale(0.1 -0.1)">
     <use xlink:href="#DejaVuSans-72"/>
     <use x="75.195312" xlink:href="#DejaVuSans-80"/>
     <use x="135.498047" xlink:href="#DejaVuSans-73"/>
     <use x="164.990234" xlink:href="#DejaVuSans-32"/>
     <use x="196.777344" xlink:href="#DejaVuSans-40"/>
     <use x="235.791016" xlink:href="#DejaVuSans-51"/>
     <use x="299.414062" xlink:href="#DejaVuSans-56"/>
     <use x="363.037109" xlink:href="#DejaVuSans-41"/>
    </g>
   </g>
   <g id="line2d_67">
    <path d="M 333.8625 135.523438 
L 353.8625 135.523438 
" style="fill:none;stroke:#666666;stroke-linecap:square;stroke-width:1.5;"/>
   </g>
   <g id="line2d_68"/>
   <g id="text_30">
    <!-- FIT (29) -->
    <defs>
     <path d="M 9.8125 72.90625 
L 51.703125 72.90625 
L 51.703125 64.59375 
L 19.671875 64.59375 
L 19.671875 43.109375 
L 48.578125 43.109375 
L 48.578125 34.8125 
L 19.671875 34.8125 
L 19.671875 0 
L 9.8125 0 
z
" id="DejaVuSans-70"/>
     <path d="M -0.296875 72.90625 
L 61.375 72.90625 
L 61.375 64.59375 
L 35.5 64.59375 
L 35.5 0 
L 25.59375 0 
L 25.59375 64.59375 
L -0.296875 64.59375 
z
" id="DejaVuSans-84"/>
    </defs>
    <g transform="translate(361.8625 139.023438)scale(0.1 -0.1)">
     <use xlink:href="#DejaVuSans-70"/>
     <use x="57.519531" xlink:href="#DejaVuSans-73"/>
     <use x="87.011719" xlink:href="#DejaVuSans-84"/>
     <use x="148.095703" xlink:href="#DejaVuSans-32"/>
     <use x="179.882812" xlink:href="#DejaVuSans-40"/>
     <use x="218.896484" xlink:href="#DejaVuSans-50"/>
     <use x="282.519531" xlink:href="#DejaVuSans-57"/>
     <use x="346.142578" xlink:href="#DejaVuSans-41"/>
    </g>
   </g>
   <g id="line2d_69">
    <path d="M 333.8625 150.201562 
L 353.8625 150.201562 
" style="fill:none;stroke:#1b9e77;stroke-dasharray:4.5,1.5;stroke-dashoffset:0;stroke-width:1.5;"/>
   </g>
   <g id="line2d_70"/>
   <g id="text_31">
    <!-- SPD (27) -->
    <defs>
     <path d="M 8.203125 72.90625 
L 55.078125 72.90625 
L 55.078125 68.703125 
L 28.609375 0 
L 18.3125 0 
L 43.21875 64.59375 
L 8.203125 64.59375 
z
" id="DejaVuSans-55"/>
    </defs>
    <g transform="translate(361.8625 153.701562)scale(0.1 -0.1)">
     <use xlink:href="#DejaVuSans-83"/>
     <use x="63.476562" xlink:href="#DejaVuSans-80"/>
     <use x="123.779297" xlink:href="#DejaVuSans-68"/>
     <use x="200.78125" xlink:href="#DejaVuSans-32"/>
     <use x="232.568359" xlink:href="#DejaVuSans-40"/>
     <use x="271.582031" xlink:href="#DejaVuSans-50"/>
     <use x="335.205078" xlink:href="#DejaVuSans-55"/>
     <use x="398.828125" xlink:href="#DejaVuSans-41"/>
    </g>
   </g>
   <g id="line2d_71">
    <path d="M 333.8625 164.879687 
L 353.8625 164.879687 
" style="fill:none;stroke:#d95f02;stroke-dasharray:4.5,1.5;stroke-dashoffset:0;stroke-width:1.5;"/>
   </g>
   <g id="line2d_72"/>
   <g id="text_32">
    <!-- TBI (25) -->
    <defs>
     <path d="M 19.671875 34.8125 
L 19.671875 8.109375 
L 35.5 8.109375 
Q 43.453125 8.109375 47.28125 11.40625 
Q 51.125 14.703125 51.125 21.484375 
Q 51.125 28.328125 47.28125 31.5625 
Q 43.453125 34.8125 35.5 34.8125 
z
M 19.671875 64.796875 
L 19.671875 42.828125 
L 34.28125 42.828125 
Q 41.5 42.828125 45.03125 45.53125 
Q 48.578125 48.25 48.578125 53.8125 
Q 48.578125 59.328125 45.03125 62.0625 
Q 41.5 64.796875 34.28125 64.796875 
z
M 9.8125 72.90625 
L 35.015625 72.90625 
Q 46.296875 72.90625 52.390625 68.21875 
Q 58.5 63.53125 58.5 54.890625 
Q 58.5 48.1875 55.375 44.234375 
Q 52.25 40.28125 46.1875 39.3125 
Q 53.46875 37.75 57.5 32.78125 
Q 61.53125 27.828125 61.53125 20.40625 
Q 61.53125 10.640625 54.890625 5.3125 
Q 48.25 0 35.984375 0 
L 9.8125 0 
z
" id="DejaVuSans-66"/>
    </defs>
    <g transform="translate(361.8625 168.379687)scale(0.1 -0.1)">
     <use xlink:href="#DejaVuSans-84"/>
     <use x="61.083984" xlink:href="#DejaVuSans-66"/>
     <use x="129.6875" xlink:href="#DejaVuSans-73"/>
     <use x="159.179688" xlink:href="#DejaVuSans-32"/>
     <use x="190.966797" xlink:href="#DejaVuSans-40"/>
     <use x="229.980469" xlink:href="#DejaVuSans-50"/>
     <use x="293.603516" xlink:href="#DejaVuSans-53"/>
     <use x="357.226562" xlink:href="#DejaVuSans-41"/>
    </g>
   </g>
   <g id="line2d_73">
    <path d="M 333.8625 179.557812 
L 353.8625 179.557812 
" style="fill:none;stroke:#7570b3;stroke-dasharray:4.5,1.5;stroke-dashoffset:0;stroke-width:1.5;"/>
   </g>
   <g id="line2d_74"/>
   <g id="text_33">
    <!-- CB (25) -->
    <g transform="translate(361.8625 183.057812)scale(0.1 -0.1)">
     <use xlink:href="#DejaVuSans-67"/>
     <use x="69.824219" xlink:href="#DejaVuSans-66"/>
     <use x="138.427734" xlink:href="#DejaVuSans-32"/>
     <use x="170.214844" xlink:href="#DejaVuSans-40"/>
     <use x="209.228516" xlink:href="#DejaVuSans-50"/>
     <use x="272.851562" xlink:href="#DejaVuSans-53"/>
     <use x="336.474609" xlink:href="#DejaVuSans-41"/>
    </g>
   </g>
   <g id="line2d_75">
    <path d="M 333.8625 194.235937 
L 353.8625 194.235937 
" style="fill:none;stroke:#e7298a;stroke-dasharray:4.5,1.5;stroke-dashoffset:0;stroke-width:1.5;"/>
   </g>
   <g id="line2d_76"/>
   <g id="text_34">
    <!-- CC (25) -->
    <g transform="translate(361.8625 197.735937)scale(0.1 -0.1)">
     <use xlink:href="#DejaVuSans-67"/>
     <use x="69.824219" xlink:href="#DejaVuSans-67"/>
     <use x="139.648438" xlink:href="#DejaVuSans-32"/>
     <use x="171.435547" xlink:href="#DejaVuSans-40"/>
     <use x="210.449219" xlink:href="#DejaVuSans-50"/>
     <use x="274.072266" xlink:href="#DejaVuSans-53"/>
     <use x="337.695312" xlink:href="#DejaVuSans-41"/>
    </g>
   </g>
   <g id="line2d_77">
    <path d="M 333.8625 208.914062 
L 353.8625 208.914062 
" style="fill:none;stroke:#66a61e;stroke-dasharray:4.5,1.5;stroke-dashoffset:0;stroke-width:1.5;"/>
   </g>
   <g id="line2d_78"/>
   <g id="text_35">
    <!-- RJPH (24) -->
    <defs>
     <path d="M 9.8125 72.90625 
L 19.671875 72.90625 
L 19.671875 5.078125 
Q 19.671875 -8.109375 14.671875 -14.0625 
Q 9.671875 -20.015625 -1.421875 -20.015625 
L -5.171875 -20.015625 
L -5.171875 -11.71875 
L -2.09375 -11.71875 
Q 4.4375 -11.71875 7.125 -8.046875 
Q 9.8125 -4.390625 9.8125 5.078125 
z
" id="DejaVuSans-74"/>
    </defs>
    <g transform="translate(361.8625 212.414062)scale(0.1 -0.1)">
     <use xlink:href="#DejaVuSans-82"/>
     <use x="69.482422" xlink:href="#DejaVuSans-74"/>
     <use x="98.974609" xlink:href="#DejaVuSans-80"/>
     <use x="159.277344" xlink:href="#DejaVuSans-72"/>
     <use x="234.472656" xlink:href="#DejaVuSans-32"/>
     <use x="266.259766" xlink:href="#DejaVuSans-40"/>
     <use x="305.273438" xlink:href="#DejaVuSans-50"/>
     <use x="368.896484" xlink:href="#DejaVuSans-52"/>
     <use x="432.519531" xlink:href="#DejaVuSans-41"/>
    </g>
   </g>
   <g id="line2d_79">
    <path d="M 333.8625 223.592187 
L 353.8625 223.592187 
" style="fill:none;stroke:#e6ab02;stroke-dasharray:4.5,1.5;stroke-dashoffset:0;stroke-width:1.5;"/>
   </g>
   <g id="line2d_80"/>
   <g id="text_36">
    <!-- BP (24) -->
    <g transform="translate(361.8625 227.092187)scale(0.1 -0.1)">
     <use xlink:href="#DejaVuSans-66"/>
     <use x="68.603516" xlink:href="#DejaVuSans-80"/>
     <use x="128.90625" xlink:href="#DejaVuSans-32"/>
     <use x="160.693359" xlink:href="#DejaVuSans-40"/>
     <use x="199.707031" xlink:href="#DejaVuSans-50"/>
     <use x="263.330078" xlink:href="#DejaVuSans-52"/>
     <use x="326.953125" xlink:href="#DejaVuSans-41"/>
    </g>
   </g>
   <g id="line2d_81">
    <path d="M 333.8625 238.270312 
L 353.8625 238.270312 
" style="fill:none;stroke:#a6761d;stroke-dasharray:4.5,1.5;stroke-dashoffset:0;stroke-width:1.5;"/>
   </g>
   <g id="line2d_82"/>
   <g id="text_37">
    <!-- AHR-H (20) -->
    <g transform="translate(361.8625 241.770312)scale(0.1 -0.1)">
     <use xlink:href="#DejaVuSans-65"/>
     <use x="68.408203" xlink:href="#DejaVuSans-72"/>
     <use x="143.603516" xlink:href="#DejaVuSans-82"/>
     <use x="213.023438" xlink:href="#DejaVuSans-45"/>
     <use x="249.107422" xlink:href="#DejaVuSans-72"/>
     <use x="324.302734" xlink:href="#DejaVuSans-32"/>
     <use x="356.089844" xlink:href="#DejaVuSans-40"/>
     <use x="395.103516" xlink:href="#DejaVuSans-50"/>
     <use x="458.726562" xlink:href="#DejaVuSans-48"/>
     <use x="522.349609" xlink:href="#DejaVuSans-41"/>
    </g>
   </g>
   <g id="line2d_83">
    <path d="M 333.8625 252.948437 
L 353.8625 252.948437 
" style="fill:none;stroke:#666666;stroke-dasharray:4.5,1.5;stroke-dashoffset:0;stroke-width:1.5;"/>
   </g>
   <g id="line2d_84"/>
   <g id="text_38">
    <!-- AHR-A (20) -->
    <g transform="translate(361.8625 256.448437)scale(0.1 -0.1)">
     <use xlink:href="#DejaVuSans-65"/>
     <use x="68.408203" xlink:href="#DejaVuSans-72"/>
     <use x="143.603516" xlink:href="#DejaVuSans-82"/>
     <use x="213.023438" xlink:href="#DejaVuSans-45"/>
     <use x="249.076172" xlink:href="#DejaVuSans-65"/>
     <use x="317.484375" xlink:href="#DejaVuSans-32"/>
     <use x="349.271484" xlink:href="#DejaVuSans-40"/>
     <use x="388.285156" xlink:href="#DejaVuSans-50"/>
     <use x="451.908203" xlink:href="#DejaVuSans-48"/>
     <use x="515.53125" xlink:href="#DejaVuSans-41"/>
    </g>
   </g>
  </g>
 </g>
 <defs>
  <clipPath id="p0201604a3f">
   <rect height="207.330771" width="271.81" x="43.55" y="12.9"/>
  </clipPath>
 </defs>
</svg>
