<?xml version="1.0" encoding="utf-8" standalone="no"?>
<!DOCTYPE svg PUBLIC "-//W3C//DTD SVG 1.1//EN"
  "http://www.w3.org/Graphics/SVG/1.1/DTD/svg11.dtd">
<!-- Created with matplotlib (https://matplotlib.org/) -->
<svg height="288pt" version="1.1" viewBox="0 0 432 288" width="432pt" xmlns="http://www.w3.org/2000/svg" xmlns:xlink="http://www.w3.org/1999/xlink">
 <defs>
  <style type="text/css">
*{stroke-linecap:butt;stroke-linejoin:round;}
  </style>
 </defs>
 <g id="figure_1">
  <g id="patch_1">
   <path d="M 0 288 
L 432 288 
L 432 0 
L 0 0 
z
" style="fill:#ffffff;"/>
  </g>
  <g id="axes_1">
   <g id="patch_2">
    <path d="M 43.55 220.230771 
L 315.36 220.230771 
L 315.36 12.9 
L 43.55 12.9 
z
" style="fill:#ffffff;"/>
   </g>
   <g id="matplotlib.axis_1">
    <g id="xtick_1">
     <g id="line2d_1">
      <defs>
       <path d="M 0 0 
L 0 3.5 
" id="mdfb4b0b20b" style="stroke:#000000;stroke-width:0.8;"/>
      </defs>
      <g>
       <use style="stroke:#000000;stroke-width:0.8;" x="49.907441" xlink:href="#mdfb4b0b20b" y="220.230771"/>
      </g>
     </g>
     <g id="text_1">
      <!-- 2020-11-29 -->
      <defs>
       <path d="M 19.1875 8.296875 
L 53.609375 8.296875 
L 53.609375 0 
L 7.328125 0 
L 7.328125 8.296875 
Q 12.9375 14.109375 22.625 23.890625 
Q 32.328125 33.6875 34.8125 36.53125 
Q 39.546875 41.84375 41.421875 45.53125 
Q 43.3125 49.21875 43.3125 52.78125 
Q 43.3125 58.59375 39.234375 62.25 
Q 35.15625 65.921875 28.609375 65.921875 
Q 23.96875 65.921875 18.8125 64.3125 
Q 13.671875 62.703125 7.8125 59.421875 
L 7.8125 69.390625 
Q 13.765625 71.78125 18.9375 73 
Q 24.125 74.21875 28.421875 74.21875 
Q 39.75 74.21875 46.484375 68.546875 
Q 53.21875 62.890625 53.21875 53.421875 
Q 53.21875 48.921875 51.53125 44.890625 
Q 49.859375 40.875 45.40625 35.40625 
Q 44.1875 33.984375 37.640625 27.21875 
Q 31.109375 20.453125 19.1875 8.296875 
z
" id="DejaVuSans-50"/>
       <path d="M 31.78125 66.40625 
Q 24.171875 66.40625 20.328125 58.90625 
Q 16.5 51.421875 16.5 36.375 
Q 16.5 21.390625 20.328125 13.890625 
Q 24.171875 6.390625 31.78125 6.390625 
Q 39.453125 6.390625 43.28125 13.890625 
Q 47.125 21.390625 47.125 36.375 
Q 47.125 51.421875 43.28125 58.90625 
Q 39.453125 66.40625 31.78125 66.40625 
z
M 31.78125 74.21875 
Q 44.046875 74.21875 50.515625 64.515625 
Q 56.984375 54.828125 56.984375 36.375 
Q 56.984375 17.96875 50.515625 8.265625 
Q 44.046875 -1.421875 31.78125 -1.421875 
Q 19.53125 -1.421875 13.0625 8.265625 
Q 6.59375 17.96875 6.59375 36.375 
Q 6.59375 54.828125 13.0625 64.515625 
Q 19.53125 74.21875 31.78125 74.21875 
z
" id="DejaVuSans-48"/>
       <path d="M 4.890625 31.390625 
L 31.203125 31.390625 
L 31.203125 23.390625 
L 4.890625 23.390625 
z
" id="DejaVuSans-45"/>
       <path d="M 12.40625 8.296875 
L 28.515625 8.296875 
L 28.515625 63.921875 
L 10.984375 60.40625 
L 10.984375 69.390625 
L 28.421875 72.90625 
L 38.28125 72.90625 
L 38.28125 8.296875 
L 54.390625 8.296875 
L 54.390625 0 
L 12.40625 0 
z
" id="DejaVuSans-49"/>
       <path d="M 10.984375 1.515625 
L 10.984375 10.5 
Q 14.703125 8.734375 18.5 7.8125 
Q 22.3125 6.890625 25.984375 6.890625 
Q 35.75 6.890625 40.890625 13.453125 
Q 46.046875 20.015625 46.78125 33.40625 
Q 43.953125 29.203125 39.59375 26.953125 
Q 35.25 24.703125 29.984375 24.703125 
Q 19.046875 24.703125 12.671875 31.3125 
Q 6.296875 37.9375 6.296875 49.421875 
Q 6.296875 60.640625 12.9375 67.421875 
Q 19.578125 74.21875 30.609375 74.21875 
Q 43.265625 74.21875 49.921875 64.515625 
Q 56.59375 54.828125 56.59375 36.375 
Q 56.59375 19.140625 48.40625 8.859375 
Q 40.234375 -1.421875 26.421875 -1.421875 
Q 22.703125 -1.421875 18.890625 -0.6875 
Q 15.09375 0.046875 10.984375 1.515625 
z
M 30.609375 32.421875 
Q 37.25 32.421875 41.125 36.953125 
Q 45.015625 41.5 45.015625 49.421875 
Q 45.015625 57.28125 41.125 61.84375 
Q 37.25 66.40625 30.609375 66.40625 
Q 23.96875 66.40625 20.09375 61.84375 
Q 16.21875 57.28125 16.21875 49.421875 
Q 16.21875 41.5 20.09375 36.953125 
Q 23.96875 32.421875 30.609375 32.421875 
z
" id="DejaVuSans-57"/>
      </defs>
      <g transform="translate(26.122325 262.869024)rotate(-30)scale(0.1 -0.1)">
       <use xlink:href="#DejaVuSans-50"/>
       <use x="63.623047" xlink:href="#DejaVuSans-48"/>
       <use x="127.246094" xlink:href="#DejaVuSans-50"/>
       <use x="190.869141" xlink:href="#DejaVuSans-48"/>
       <use x="254.492188" xlink:href="#DejaVuSans-45"/>
       <use x="290.576172" xlink:href="#DejaVuSans-49"/>
       <use x="354.199219" xlink:href="#DejaVuSans-49"/>
       <use x="417.822266" xlink:href="#DejaVuSans-45"/>
       <use x="453.90625" xlink:href="#DejaVuSans-50"/>
       <use x="517.529297" xlink:href="#DejaVuSans-57"/>
      </g>
     </g>
    </g>
    <g id="xtick_2">
     <g id="line2d_2">
      <g>
       <use style="stroke:#000000;stroke-width:0.8;" x="58.190153" xlink:href="#mdfb4b0b20b" y="220.230771"/>
      </g>
     </g>
     <g id="text_2">
      <!-- 2020-12-01 -->
      <g transform="translate(34.405036 262.869024)rotate(-30)scale(0.1 -0.1)">
       <use xlink:href="#DejaVuSans-50"/>
       <use x="63.623047" xlink:href="#DejaVuSans-48"/>
       <use x="127.246094" xlink:href="#DejaVuSans-50"/>
       <use x="190.869141" xlink:href="#DejaVuSans-48"/>
       <use x="254.492188" xlink:href="#DejaVuSans-45"/>
       <use x="290.576172" xlink:href="#DejaVuSans-49"/>
       <use x="354.199219" xlink:href="#DejaVuSans-50"/>
       <use x="417.822266" xlink:href="#DejaVuSans-45"/>
       <use x="453.90625" xlink:href="#DejaVuSans-48"/>
       <use x="517.529297" xlink:href="#DejaVuSans-49"/>
      </g>
     </g>
    </g>
    <g id="xtick_3">
     <g id="line2d_3">
      <g>
       <use style="stroke:#000000;stroke-width:0.8;" x="87.179643" xlink:href="#mdfb4b0b20b" y="220.230771"/>
      </g>
     </g>
     <g id="text_3">
      <!-- 2020-12-08 -->
      <defs>
       <path d="M 31.78125 34.625 
Q 24.75 34.625 20.71875 30.859375 
Q 16.703125 27.09375 16.703125 20.515625 
Q 16.703125 13.921875 20.71875 10.15625 
Q 24.75 6.390625 31.78125 6.390625 
Q 38.8125 6.390625 42.859375 10.171875 
Q 46.921875 13.96875 46.921875 20.515625 
Q 46.921875 27.09375 42.890625 30.859375 
Q 38.875 34.625 31.78125 34.625 
z
M 21.921875 38.8125 
Q 15.578125 40.375 12.03125 44.71875 
Q 8.5 49.078125 8.5 55.328125 
Q 8.5 64.0625 14.71875 69.140625 
Q 20.953125 74.21875 31.78125 74.21875 
Q 42.671875 74.21875 48.875 69.140625 
Q 55.078125 64.0625 55.078125 55.328125 
Q 55.078125 49.078125 51.53125 44.71875 
Q 48 40.375 41.703125 38.8125 
Q 48.828125 37.15625 52.796875 32.3125 
Q 56.78125 27.484375 56.78125 20.515625 
Q 56.78125 9.90625 50.3125 4.234375 
Q 43.84375 -1.421875 31.78125 -1.421875 
Q 19.734375 -1.421875 13.25 4.234375 
Q 6.78125 9.90625 6.78125 20.515625 
Q 6.78125 27.484375 10.78125 32.3125 
Q 14.796875 37.15625 21.921875 38.8125 
z
M 18.3125 54.390625 
Q 18.3125 48.734375 21.84375 45.5625 
Q 25.390625 42.390625 31.78125 42.390625 
Q 38.140625 42.390625 41.71875 45.5625 
Q 45.3125 48.734375 45.3125 54.390625 
Q 45.3125 60.0625 41.71875 63.234375 
Q 38.140625 66.40625 31.78125 66.40625 
Q 25.390625 66.40625 21.84375 63.234375 
Q 18.3125 60.0625 18.3125 54.390625 
z
" id="DejaVuSans-56"/>
      </defs>
      <g transform="translate(63.394527 262.869024)rotate(-30)scale(0.1 -0.1)">
       <use xlink:href="#DejaVuSans-50"/>
       <use x="63.623047" xlink:href="#DejaVuSans-48"/>
       <use x="127.246094" xlink:href="#DejaVuSans-50"/>
       <use x="190.869141" xlink:href="#DejaVuSans-48"/>
       <use x="254.492188" xlink:href="#DejaVuSans-45"/>
       <use x="290.576172" xlink:href="#DejaVuSans-49"/>
       <use x="354.199219" xlink:href="#DejaVuSans-50"/>
       <use x="417.822266" xlink:href="#DejaVuSans-45"/>
       <use x="453.90625" xlink:href="#DejaVuSans-48"/>
       <use x="517.529297" xlink:href="#DejaVuSans-56"/>
      </g>
     </g>
    </g>
    <g id="xtick_4">
     <g id="line2d_4">
      <g>
       <use style="stroke:#000000;stroke-width:0.8;" x="116.169133" xlink:href="#mdfb4b0b20b" y="220.230771"/>
      </g>
     </g>
     <g id="text_4">
      <!-- 2020-12-15 -->
      <defs>
       <path d="M 10.796875 72.90625 
L 49.515625 72.90625 
L 49.515625 64.59375 
L 19.828125 64.59375 
L 19.828125 46.734375 
Q 21.96875 47.46875 24.109375 47.828125 
Q 26.265625 48.1875 28.421875 48.1875 
Q 40.625 48.1875 47.75 41.5 
Q 54.890625 34.8125 54.890625 23.390625 
Q 54.890625 11.625 47.5625 5.09375 
Q 40.234375 -1.421875 26.90625 -1.421875 
Q 22.3125 -1.421875 17.546875 -0.640625 
Q 12.796875 0.140625 7.71875 1.703125 
L 7.71875 11.625 
Q 12.109375 9.234375 16.796875 8.0625 
Q 21.484375 6.890625 26.703125 6.890625 
Q 35.15625 6.890625 40.078125 11.328125 
Q 45.015625 15.765625 45.015625 23.390625 
Q 45.015625 31 40.078125 35.4375 
Q 35.15625 39.890625 26.703125 39.890625 
Q 22.75 39.890625 18.8125 39.015625 
Q 14.890625 38.140625 10.796875 36.28125 
z
" id="DejaVuSans-53"/>
      </defs>
      <g transform="translate(92.384017 262.869024)rotate(-30)scale(0.1 -0.1)">
       <use xlink:href="#DejaVuSans-50"/>
       <use x="63.623047" xlink:href="#DejaVuSans-48"/>
       <use x="127.246094" xlink:href="#DejaVuSans-50"/>
       <use x="190.869141" xlink:href="#DejaVuSans-48"/>
       <use x="254.492188" xlink:href="#DejaVuSans-45"/>
       <use x="290.576172" xlink:href="#DejaVuSans-49"/>
       <use x="354.199219" xlink:href="#DejaVuSans-50"/>
       <use x="417.822266" xlink:href="#DejaVuSans-45"/>
       <use x="453.90625" xlink:href="#DejaVuSans-49"/>
       <use x="517.529297" xlink:href="#DejaVuSans-53"/>
      </g>
     </g>
    </g>
    <g id="xtick_5">
     <g id="line2d_5">
      <g>
       <use style="stroke:#000000;stroke-width:0.8;" x="145.158624" xlink:href="#mdfb4b0b20b" y="220.230771"/>
      </g>
     </g>
     <g id="text_5">
      <!-- 2020-12-22 -->
      <g transform="translate(121.373508 262.869024)rotate(-30)scale(0.1 -0.1)">
       <use xlink:href="#DejaVuSans-50"/>
       <use x="63.623047" xlink:href="#DejaVuSans-48"/>
       <use x="127.246094" xlink:href="#DejaVuSans-50"/>
       <use x="190.869141" xlink:href="#DejaVuSans-48"/>
       <use x="254.492188" xlink:href="#DejaVuSans-45"/>
       <use x="290.576172" xlink:href="#DejaVuSans-49"/>
       <use x="354.199219" xlink:href="#DejaVuSans-50"/>
       <use x="417.822266" xlink:href="#DejaVuSans-45"/>
       <use x="453.90625" xlink:href="#DejaVuSans-50"/>
       <use x="517.529297" xlink:href="#DejaVuSans-50"/>
      </g>
     </g>
    </g>
    <g id="xtick_6">
     <g id="line2d_6">
      <g>
       <use style="stroke:#000000;stroke-width:0.8;" x="174.148114" xlink:href="#mdfb4b0b20b" y="220.230771"/>
      </g>
     </g>
     <g id="text_6">
      <!-- 2020-12-29 -->
      <g transform="translate(150.362998 262.869024)rotate(-30)scale(0.1 -0.1)">
       <use xlink:href="#DejaVuSans-50"/>
       <use x="63.623047" xlink:href="#DejaVuSans-48"/>
       <use x="127.246094" xlink:href="#DejaVuSans-50"/>
       <use x="190.869141" xlink:href="#DejaVuSans-48"/>
       <use x="254.492188" xlink:href="#DejaVuSans-45"/>
       <use x="290.576172" xlink:href="#DejaVuSans-49"/>
       <use x="354.199219" xlink:href="#DejaVuSans-50"/>
       <use x="417.822266" xlink:href="#DejaVuSans-45"/>
       <use x="453.90625" xlink:href="#DejaVuSans-50"/>
       <use x="517.529297" xlink:href="#DejaVuSans-57"/>
      </g>
     </g>
    </g>
    <g id="xtick_7">
     <g id="line2d_7">
      <g>
       <use style="stroke:#000000;stroke-width:0.8;" x="186.572182" xlink:href="#mdfb4b0b20b" y="220.230771"/>
      </g>
     </g>
     <g id="text_7">
      <!-- 2021-01-01 -->
      <g transform="translate(162.787065 262.869024)rotate(-30)scale(0.1 -0.1)">
       <use xlink:href="#DejaVuSans-50"/>
       <use x="63.623047" xlink:href="#DejaVuSans-48"/>
       <use x="127.246094" xlink:href="#DejaVuSans-50"/>
       <use x="190.869141" xlink:href="#DejaVuSans-49"/>
       <use x="254.492188" xlink:href="#DejaVuSans-45"/>
       <use x="290.576172" xlink:href="#DejaVuSans-48"/>
       <use x="354.199219" xlink:href="#DejaVuSans-49"/>
       <use x="417.822266" xlink:href="#DejaVuSans-45"/>
       <use x="453.90625" xlink:href="#DejaVuSans-48"/>
       <use x="517.529297" xlink:href="#DejaVuSans-49"/>
      </g>
     </g>
    </g>
    <g id="xtick_8">
     <g id="line2d_8">
      <g>
       <use style="stroke:#000000;stroke-width:0.8;" x="215.561672" xlink:href="#mdfb4b0b20b" y="220.230771"/>
      </g>
     </g>
     <g id="text_8">
      <!-- 2021-01-08 -->
      <g transform="translate(191.776556 262.869024)rotate(-30)scale(0.1 -0.1)">
       <use xlink:href="#DejaVuSans-50"/>
       <use x="63.623047" xlink:href="#DejaVuSans-48"/>
       <use x="127.246094" xlink:href="#DejaVuSans-50"/>
       <use x="190.869141" xlink:href="#DejaVuSans-49"/>
       <use x="254.492188" xlink:href="#DejaVuSans-45"/>
       <use x="290.576172" xlink:href="#DejaVuSans-48"/>
       <use x="354.199219" xlink:href="#DejaVuSans-49"/>
       <use x="417.822266" xlink:href="#DejaVuSans-45"/>
       <use x="453.90625" xlink:href="#DejaVuSans-48"/>
       <use x="517.529297" xlink:href="#DejaVuSans-56"/>
      </g>
     </g>
    </g>
    <g id="xtick_9">
     <g id="line2d_9">
      <g>
       <use style="stroke:#000000;stroke-width:0.8;" x="244.551162" xlink:href="#mdfb4b0b20b" y="220.230771"/>
      </g>
     </g>
     <g id="text_9">
      <!-- 2021-01-15 -->
      <g transform="translate(220.766046 262.869024)rotate(-30)scale(0.1 -0.1)">
       <use xlink:href="#DejaVuSans-50"/>
       <use x="63.623047" xlink:href="#DejaVuSans-48"/>
       <use x="127.246094" xlink:href="#DejaVuSans-50"/>
       <use x="190.869141" xlink:href="#DejaVuSans-49"/>
       <use x="254.492188" xlink:href="#DejaVuSans-45"/>
       <use x="290.576172" xlink:href="#DejaVuSans-48"/>
       <use x="354.199219" xlink:href="#DejaVuSans-49"/>
       <use x="417.822266" xlink:href="#DejaVuSans-45"/>
       <use x="453.90625" xlink:href="#DejaVuSans-49"/>
       <use x="517.529297" xlink:href="#DejaVuSans-53"/>
      </g>
     </g>
    </g>
    <g id="xtick_10">
     <g id="line2d_10">
      <g>
       <use style="stroke:#000000;stroke-width:0.8;" x="273.540653" xlink:href="#mdfb4b0b20b" y="220.230771"/>
      </g>
     </g>
     <g id="text_10">
      <!-- 2021-01-22 -->
      <g transform="translate(249.755536 262.869024)rotate(-30)scale(0.1 -0.1)">
       <use xlink:href="#DejaVuSans-50"/>
       <use x="63.623047" xlink:href="#DejaVuSans-48"/>
       <use x="127.246094" xlink:href="#DejaVuSans-50"/>
       <use x="190.869141" xlink:href="#DejaVuSans-49"/>
       <use x="254.492188" xlink:href="#DejaVuSans-45"/>
       <use x="290.576172" xlink:href="#DejaVuSans-48"/>
       <use x="354.199219" xlink:href="#DejaVuSans-49"/>
       <use x="417.822266" xlink:href="#DejaVuSans-45"/>
       <use x="453.90625" xlink:href="#DejaVuSans-50"/>
       <use x="517.529297" xlink:href="#DejaVuSans-50"/>
      </g>
     </g>
    </g>
    <g id="xtick_11">
     <g id="line2d_11">
      <g>
       <use style="stroke:#000000;stroke-width:0.8;" x="302.530143" xlink:href="#mdfb4b0b20b" y="220.230771"/>
      </g>
     </g>
     <g id="text_11">
      <!-- 2021-01-29 -->
      <g transform="translate(278.745027 262.869024)rotate(-30)scale(0.1 -0.1)">
       <use xlink:href="#DejaVuSans-50"/>
       <use x="63.623047" xlink:href="#DejaVuSans-48"/>
       <use x="127.246094" xlink:href="#DejaVuSans-50"/>
       <use x="190.869141" xlink:href="#DejaVuSans-49"/>
       <use x="254.492188" xlink:href="#DejaVuSans-45"/>
       <use x="290.576172" xlink:href="#DejaVuSans-48"/>
       <use x="354.199219" xlink:href="#DejaVuSans-49"/>
       <use x="417.822266" xlink:href="#DejaVuSans-45"/>
       <use x="453.90625" xlink:href="#DejaVuSans-50"/>
       <use x="517.529297" xlink:href="#DejaVuSans-57"/>
      </g>
     </g>
    </g>
    <g id="xtick_12">
     <g id="line2d_12">
      <g>
       <use style="stroke:#000000;stroke-width:0.8;" x="314.954211" xlink:href="#mdfb4b0b20b" y="220.230771"/>
      </g>
     </g>
     <g id="text_12">
      <!-- 2021-02-01 -->
      <g transform="translate(291.169094 262.869024)rotate(-30)scale(0.1 -0.1)">
       <use xlink:href="#DejaVuSans-50"/>
       <use x="63.623047" xlink:href="#DejaVuSans-48"/>
       <use x="127.246094" xlink:href="#DejaVuSans-50"/>
       <use x="190.869141" xlink:href="#DejaVuSans-49"/>
       <use x="254.492188" xlink:href="#DejaVuSans-45"/>
       <use x="290.576172" xlink:href="#DejaVuSans-48"/>
       <use x="354.199219" xlink:href="#DejaVuSans-50"/>
       <use x="417.822266" xlink:href="#DejaVuSans-45"/>
       <use x="453.90625" xlink:href="#DejaVuSans-48"/>
       <use x="517.529297" xlink:href="#DejaVuSans-49"/>
      </g>
     </g>
    </g>
    <g id="text_13">
     <!-- Date -->
     <defs>
      <path d="M 19.671875 64.796875 
L 19.671875 8.109375 
L 31.59375 8.109375 
Q 46.6875 8.109375 53.6875 14.9375 
Q 60.6875 21.78125 60.6875 36.53125 
Q 60.6875 51.171875 53.6875 57.984375 
Q 46.6875 64.796875 31.59375 64.796875 
z
M 9.8125 72.90625 
L 30.078125 72.90625 
Q 51.265625 72.90625 61.171875 64.09375 
Q 71.09375 55.28125 71.09375 36.53125 
Q 71.09375 17.671875 61.125 8.828125 
Q 51.171875 0 30.078125 0 
L 9.8125 0 
z
" id="DejaVuSans-68"/>
      <path d="M 34.28125 27.484375 
Q 23.390625 27.484375 19.1875 25 
Q 14.984375 22.515625 14.984375 16.5 
Q 14.984375 11.71875 18.140625 8.90625 
Q 21.296875 6.109375 26.703125 6.109375 
Q 34.1875 6.109375 38.703125 11.40625 
Q 43.21875 16.703125 43.21875 25.484375 
L 43.21875 27.484375 
z
M 52.203125 31.203125 
L 52.203125 0 
L 43.21875 0 
L 43.21875 8.296875 
Q 40.140625 3.328125 35.546875 0.953125 
Q 30.953125 -1.421875 24.3125 -1.421875 
Q 15.921875 -1.421875 10.953125 3.296875 
Q 6 8.015625 6 15.921875 
Q 6 25.140625 12.171875 29.828125 
Q 18.359375 34.515625 30.609375 34.515625 
L 43.21875 34.515625 
L 43.21875 35.40625 
Q 43.21875 41.609375 39.140625 45 
Q 35.0625 48.390625 27.6875 48.390625 
Q 23 48.390625 18.546875 47.265625 
Q 14.109375 46.140625 10.015625 43.890625 
L 10.015625 52.203125 
Q 14.9375 54.109375 19.578125 55.046875 
Q 24.21875 56 28.609375 56 
Q 40.484375 56 46.34375 49.84375 
Q 52.203125 43.703125 52.203125 31.203125 
z
" id="DejaVuSans-97"/>
      <path d="M 18.3125 70.21875 
L 18.3125 54.6875 
L 36.8125 54.6875 
L 36.8125 47.703125 
L 18.3125 47.703125 
L 18.3125 18.015625 
Q 18.3125 11.328125 20.140625 9.421875 
Q 21.96875 7.515625 27.59375 7.515625 
L 36.8125 7.515625 
L 36.8125 0 
L 27.59375 0 
Q 17.1875 0 13.234375 3.875 
Q 9.28125 7.765625 9.28125 18.015625 
L 9.28125 47.703125 
L 2.6875 47.703125 
L 2.6875 54.6875 
L 9.28125 54.6875 
L 9.28125 70.21875 
z
" id="DejaVuSans-116"/>
      <path d="M 56.203125 29.59375 
L 56.203125 25.203125 
L 14.890625 25.203125 
Q 15.484375 15.921875 20.484375 11.0625 
Q 25.484375 6.203125 34.421875 6.203125 
Q 39.59375 6.203125 44.453125 7.46875 
Q 49.3125 8.734375 54.109375 11.28125 
L 54.109375 2.78125 
Q 49.265625 0.734375 44.1875 -0.34375 
Q 39.109375 -1.421875 33.890625 -1.421875 
Q 20.796875 -1.421875 13.15625 6.1875 
Q 5.515625 13.8125 5.515625 26.8125 
Q 5.515625 40.234375 12.765625 48.109375 
Q 20.015625 56 32.328125 56 
Q 43.359375 56 49.78125 48.890625 
Q 56.203125 41.796875 56.203125 29.59375 
z
M 47.21875 32.234375 
Q 47.125 39.59375 43.09375 43.984375 
Q 39.0625 48.390625 32.421875 48.390625 
Q 24.90625 48.390625 20.390625 44.140625 
Q 15.875 39.890625 15.1875 32.171875 
z
" id="DejaVuSans-101"/>
     </defs>
     <g transform="translate(167.504219 276.268523)scale(0.1 -0.1)">
      <use xlink:href="#DejaVuSans-68"/>
      <use x="77.001953" xlink:href="#DejaVuSans-97"/>
      <use x="138.28125" xlink:href="#DejaVuSans-116"/>
      <use x="177.490234" xlink:href="#DejaVuSans-101"/>
     </g>
    </g>
   </g>
   <g id="matplotlib.axis_2">
    <g id="ytick_1">
     <g id="line2d_13">
      <defs>
       <path d="M 0 0 
L -3.5 0 
" id="maefe749a3f" style="stroke:#000000;stroke-width:0.8;"/>
      </defs>
      <g>
       <use style="stroke:#000000;stroke-width:0.8;" x="43.55" xlink:href="#maefe749a3f" y="210.806645"/>
      </g>
     </g>
     <g id="text_14">
      <!-- 0 -->
      <g transform="translate(30.1875 214.605864)scale(0.1 -0.1)">
       <use xlink:href="#DejaVuSans-48"/>
      </g>
     </g>
    </g>
    <g id="ytick_2">
     <g id="line2d_14">
      <g>
       <use style="stroke:#000000;stroke-width:0.8;" x="43.55" xlink:href="#maefe749a3f" y="187.24633"/>
      </g>
     </g>
     <g id="text_15">
      <!-- 5 -->
      <g transform="translate(30.1875 191.045549)scale(0.1 -0.1)">
       <use xlink:href="#DejaVuSans-53"/>
      </g>
     </g>
    </g>
    <g id="ytick_3">
     <g id="line2d_15">
      <g>
       <use style="stroke:#000000;stroke-width:0.8;" x="43.55" xlink:href="#maefe749a3f" y="163.686016"/>
      </g>
     </g>
     <g id="text_16">
      <!-- 10 -->
      <g transform="translate(23.825 167.485234)scale(0.1 -0.1)">
       <use xlink:href="#DejaVuSans-49"/>
       <use x="63.623047" xlink:href="#DejaVuSans-48"/>
      </g>
     </g>
    </g>
    <g id="ytick_4">
     <g id="line2d_16">
      <g>
       <use style="stroke:#000000;stroke-width:0.8;" x="43.55" xlink:href="#maefe749a3f" y="140.125701"/>
      </g>
     </g>
     <g id="text_17">
      <!-- 15 -->
      <g transform="translate(23.825 143.924919)scale(0.1 -0.1)">
       <use xlink:href="#DejaVuSans-49"/>
       <use x="63.623047" xlink:href="#DejaVuSans-53"/>
      </g>
     </g>
    </g>
    <g id="ytick_5">
     <g id="line2d_17">
      <g>
       <use style="stroke:#000000;stroke-width:0.8;" x="43.55" xlink:href="#maefe749a3f" y="116.565386"/>
      </g>
     </g>
     <g id="text_18">
      <!-- 20 -->
      <g transform="translate(23.825 120.364604)scale(0.1 -0.1)">
       <use xlink:href="#DejaVuSans-50"/>
       <use x="63.623047" xlink:href="#DejaVuSans-48"/>
      </g>
     </g>
    </g>
    <g id="ytick_6">
     <g id="line2d_18">
      <g>
       <use style="stroke:#000000;stroke-width:0.8;" x="43.55" xlink:href="#maefe749a3f" y="93.005071"/>
      </g>
     </g>
     <g id="text_19">
      <!-- 25 -->
      <g transform="translate(23.825 96.80429)scale(0.1 -0.1)">
       <use xlink:href="#DejaVuSans-50"/>
       <use x="63.623047" xlink:href="#DejaVuSans-53"/>
      </g>
     </g>
    </g>
    <g id="ytick_7">
     <g id="line2d_19">
      <g>
       <use style="stroke:#000000;stroke-width:0.8;" x="43.55" xlink:href="#maefe749a3f" y="69.444756"/>
      </g>
     </g>
     <g id="text_20">
      <!-- 30 -->
      <defs>
       <path d="M 40.578125 39.3125 
Q 47.65625 37.796875 51.625 33 
Q 55.609375 28.21875 55.609375 21.1875 
Q 55.609375 10.40625 48.1875 4.484375 
Q 40.765625 -1.421875 27.09375 -1.421875 
Q 22.515625 -1.421875 17.65625 -0.515625 
Q 12.796875 0.390625 7.625 2.203125 
L 7.625 11.71875 
Q 11.71875 9.328125 16.59375 8.109375 
Q 21.484375 6.890625 26.8125 6.890625 
Q 36.078125 6.890625 40.9375 10.546875 
Q 45.796875 14.203125 45.796875 21.1875 
Q 45.796875 27.640625 41.28125 31.265625 
Q 36.765625 34.90625 28.71875 34.90625 
L 20.21875 34.90625 
L 20.21875 43.015625 
L 29.109375 43.015625 
Q 36.375 43.015625 40.234375 45.921875 
Q 44.09375 48.828125 44.09375 54.296875 
Q 44.09375 59.90625 40.109375 62.90625 
Q 36.140625 65.921875 28.71875 65.921875 
Q 24.65625 65.921875 20.015625 65.03125 
Q 15.375 64.15625 9.8125 62.3125 
L 9.8125 71.09375 
Q 15.4375 72.65625 20.34375 73.4375 
Q 25.25 74.21875 29.59375 74.21875 
Q 40.828125 74.21875 47.359375 69.109375 
Q 53.90625 64.015625 53.90625 55.328125 
Q 53.90625 49.265625 50.4375 45.09375 
Q 46.96875 40.921875 40.578125 39.3125 
z
" id="DejaVuSans-51"/>
      </defs>
      <g transform="translate(23.825 73.243975)scale(0.1 -0.1)">
       <use xlink:href="#DejaVuSans-51"/>
       <use x="63.623047" xlink:href="#DejaVuSans-48"/>
      </g>
     </g>
    </g>
    <g id="ytick_8">
     <g id="line2d_20">
      <g>
       <use style="stroke:#000000;stroke-width:0.8;" x="43.55" xlink:href="#maefe749a3f" y="45.884441"/>
      </g>
     </g>
     <g id="text_21">
      <!-- 35 -->
      <g transform="translate(23.825 49.68366)scale(0.1 -0.1)">
       <use xlink:href="#DejaVuSans-51"/>
       <use x="63.623047" xlink:href="#DejaVuSans-53"/>
      </g>
     </g>
    </g>
    <g id="ytick_9">
     <g id="line2d_21">
      <g>
       <use style="stroke:#000000;stroke-width:0.8;" x="43.55" xlink:href="#maefe749a3f" y="22.324126"/>
      </g>
     </g>
     <g id="text_22">
      <!-- 40 -->
      <defs>
       <path d="M 37.796875 64.3125 
L 12.890625 25.390625 
L 37.796875 25.390625 
z
M 35.203125 72.90625 
L 47.609375 72.90625 
L 47.609375 25.390625 
L 58.015625 25.390625 
L 58.015625 17.1875 
L 47.609375 17.1875 
L 47.609375 0 
L 37.796875 0 
L 37.796875 17.1875 
L 4.890625 17.1875 
L 4.890625 26.703125 
z
" id="DejaVuSans-52"/>
      </defs>
      <g transform="translate(23.825 26.123345)scale(0.1 -0.1)">
       <use xlink:href="#DejaVuSans-52"/>
       <use x="63.623047" xlink:href="#DejaVuSans-48"/>
      </g>
     </g>
    </g>
    <g id="text_23">
     <!-- Students Registered -->
     <defs>
      <path d="M 53.515625 70.515625 
L 53.515625 60.890625 
Q 47.90625 63.578125 42.921875 64.890625 
Q 37.9375 66.21875 33.296875 66.21875 
Q 25.25 66.21875 20.875 63.09375 
Q 16.5 59.96875 16.5 54.203125 
Q 16.5 49.359375 19.40625 46.890625 
Q 22.3125 44.4375 30.421875 42.921875 
L 36.375 41.703125 
Q 47.40625 39.59375 52.65625 34.296875 
Q 57.90625 29 57.90625 20.125 
Q 57.90625 9.515625 50.796875 4.046875 
Q 43.703125 -1.421875 29.984375 -1.421875 
Q 24.8125 -1.421875 18.96875 -0.25 
Q 13.140625 0.921875 6.890625 3.21875 
L 6.890625 13.375 
Q 12.890625 10.015625 18.65625 8.296875 
Q 24.421875 6.59375 29.984375 6.59375 
Q 38.421875 6.59375 43.015625 9.90625 
Q 47.609375 13.234375 47.609375 19.390625 
Q 47.609375 24.75 44.3125 27.78125 
Q 41.015625 30.8125 33.5 32.328125 
L 27.484375 33.5 
Q 16.453125 35.6875 11.515625 40.375 
Q 6.59375 45.0625 6.59375 53.421875 
Q 6.59375 63.09375 13.40625 68.65625 
Q 20.21875 74.21875 32.171875 74.21875 
Q 37.3125 74.21875 42.625 73.28125 
Q 47.953125 72.359375 53.515625 70.515625 
z
" id="DejaVuSans-83"/>
      <path d="M 8.5 21.578125 
L 8.5 54.6875 
L 17.484375 54.6875 
L 17.484375 21.921875 
Q 17.484375 14.15625 20.5 10.265625 
Q 23.53125 6.390625 29.59375 6.390625 
Q 36.859375 6.390625 41.078125 11.03125 
Q 45.3125 15.671875 45.3125 23.6875 
L 45.3125 54.6875 
L 54.296875 54.6875 
L 54.296875 0 
L 45.3125 0 
L 45.3125 8.40625 
Q 42.046875 3.421875 37.71875 1 
Q 33.40625 -1.421875 27.6875 -1.421875 
Q 18.265625 -1.421875 13.375 4.4375 
Q 8.5 10.296875 8.5 21.578125 
z
M 31.109375 56 
z
" id="DejaVuSans-117"/>
      <path d="M 45.40625 46.390625 
L 45.40625 75.984375 
L 54.390625 75.984375 
L 54.390625 0 
L 45.40625 0 
L 45.40625 8.203125 
Q 42.578125 3.328125 38.25 0.953125 
Q 33.9375 -1.421875 27.875 -1.421875 
Q 17.96875 -1.421875 11.734375 6.484375 
Q 5.515625 14.40625 5.515625 27.296875 
Q 5.515625 40.1875 11.734375 48.09375 
Q 17.96875 56 27.875 56 
Q 33.9375 56 38.25 53.625 
Q 42.578125 51.265625 45.40625 46.390625 
z
M 14.796875 27.296875 
Q 14.796875 17.390625 18.875 11.75 
Q 22.953125 6.109375 30.078125 6.109375 
Q 37.203125 6.109375 41.296875 11.75 
Q 45.40625 17.390625 45.40625 27.296875 
Q 45.40625 37.203125 41.296875 42.84375 
Q 37.203125 48.484375 30.078125 48.484375 
Q 22.953125 48.484375 18.875 42.84375 
Q 14.796875 37.203125 14.796875 27.296875 
z
" id="DejaVuSans-100"/>
      <path d="M 54.890625 33.015625 
L 54.890625 0 
L 45.90625 0 
L 45.90625 32.71875 
Q 45.90625 40.484375 42.875 44.328125 
Q 39.84375 48.1875 33.796875 48.1875 
Q 26.515625 48.1875 22.3125 43.546875 
Q 18.109375 38.921875 18.109375 30.90625 
L 18.109375 0 
L 9.078125 0 
L 9.078125 54.6875 
L 18.109375 54.6875 
L 18.109375 46.1875 
Q 21.34375 51.125 25.703125 53.5625 
Q 30.078125 56 35.796875 56 
Q 45.21875 56 50.046875 50.171875 
Q 54.890625 44.34375 54.890625 33.015625 
z
" id="DejaVuSans-110"/>
      <path d="M 44.28125 53.078125 
L 44.28125 44.578125 
Q 40.484375 46.53125 36.375 47.5 
Q 32.28125 48.484375 27.875 48.484375 
Q 21.1875 48.484375 17.84375 46.4375 
Q 14.5 44.390625 14.5 40.28125 
Q 14.5 37.15625 16.890625 35.375 
Q 19.28125 33.59375 26.515625 31.984375 
L 29.59375 31.296875 
Q 39.15625 29.25 43.1875 25.515625 
Q 47.21875 21.78125 47.21875 15.09375 
Q 47.21875 7.46875 41.1875 3.015625 
Q 35.15625 -1.421875 24.609375 -1.421875 
Q 20.21875 -1.421875 15.453125 -0.5625 
Q 10.6875 0.296875 5.421875 2 
L 5.421875 11.28125 
Q 10.40625 8.6875 15.234375 7.390625 
Q 20.0625 6.109375 24.8125 6.109375 
Q 31.15625 6.109375 34.5625 8.28125 
Q 37.984375 10.453125 37.984375 14.40625 
Q 37.984375 18.0625 35.515625 20.015625 
Q 33.0625 21.96875 24.703125 23.78125 
L 21.578125 24.515625 
Q 13.234375 26.265625 9.515625 29.90625 
Q 5.8125 33.546875 5.8125 39.890625 
Q 5.8125 47.609375 11.28125 51.796875 
Q 16.75 56 26.8125 56 
Q 31.78125 56 36.171875 55.265625 
Q 40.578125 54.546875 44.28125 53.078125 
z
" id="DejaVuSans-115"/>
      <path id="DejaVuSans-32"/>
      <path d="M 44.390625 34.1875 
Q 47.5625 33.109375 50.5625 29.59375 
Q 53.5625 26.078125 56.59375 19.921875 
L 66.609375 0 
L 56 0 
L 46.6875 18.703125 
Q 43.0625 26.03125 39.671875 28.421875 
Q 36.28125 30.8125 30.421875 30.8125 
L 19.671875 30.8125 
L 19.671875 0 
L 9.8125 0 
L 9.8125 72.90625 
L 32.078125 72.90625 
Q 44.578125 72.90625 50.734375 67.671875 
Q 56.890625 62.453125 56.890625 51.90625 
Q 56.890625 45.015625 53.6875 40.46875 
Q 50.484375 35.9375 44.390625 34.1875 
z
M 19.671875 64.796875 
L 19.671875 38.921875 
L 32.078125 38.921875 
Q 39.203125 38.921875 42.84375 42.21875 
Q 46.484375 45.515625 46.484375 51.90625 
Q 46.484375 58.296875 42.84375 61.546875 
Q 39.203125 64.796875 32.078125 64.796875 
z
" id="DejaVuSans-82"/>
      <path d="M 45.40625 27.984375 
Q 45.40625 37.75 41.375 43.109375 
Q 37.359375 48.484375 30.078125 48.484375 
Q 22.859375 48.484375 18.828125 43.109375 
Q 14.796875 37.75 14.796875 27.984375 
Q 14.796875 18.265625 18.828125 12.890625 
Q 22.859375 7.515625 30.078125 7.515625 
Q 37.359375 7.515625 41.375 12.890625 
Q 45.40625 18.265625 45.40625 27.984375 
z
M 54.390625 6.78125 
Q 54.390625 -7.171875 48.1875 -13.984375 
Q 42 -20.796875 29.203125 -20.796875 
Q 24.46875 -20.796875 20.265625 -20.09375 
Q 16.0625 -19.390625 12.109375 -17.921875 
L 12.109375 -9.1875 
Q 16.0625 -11.328125 19.921875 -12.34375 
Q 23.78125 -13.375 27.78125 -13.375 
Q 36.625 -13.375 41.015625 -8.765625 
Q 45.40625 -4.15625 45.40625 5.171875 
L 45.40625 9.625 
Q 42.625 4.78125 38.28125 2.390625 
Q 33.9375 0 27.875 0 
Q 17.828125 0 11.671875 7.65625 
Q 5.515625 15.328125 5.515625 27.984375 
Q 5.515625 40.671875 11.671875 48.328125 
Q 17.828125 56 27.875 56 
Q 33.9375 56 38.28125 53.609375 
Q 42.625 51.21875 45.40625 46.390625 
L 45.40625 54.6875 
L 54.390625 54.6875 
z
" id="DejaVuSans-103"/>
      <path d="M 9.421875 54.6875 
L 18.40625 54.6875 
L 18.40625 0 
L 9.421875 0 
z
M 9.421875 75.984375 
L 18.40625 75.984375 
L 18.40625 64.59375 
L 9.421875 64.59375 
z
" id="DejaVuSans-105"/>
      <path d="M 41.109375 46.296875 
Q 39.59375 47.171875 37.8125 47.578125 
Q 36.03125 48 33.890625 48 
Q 26.265625 48 22.1875 43.046875 
Q 18.109375 38.09375 18.109375 28.8125 
L 18.109375 0 
L 9.078125 0 
L 9.078125 54.6875 
L 18.109375 54.6875 
L 18.109375 46.1875 
Q 20.953125 51.171875 25.484375 53.578125 
Q 30.03125 56 36.53125 56 
Q 37.453125 56 38.578125 55.875 
Q 39.703125 55.765625 41.0625 55.515625 
z
" id="DejaVuSans-114"/>
     </defs>
     <g transform="translate(17.745313 167.498979)rotate(-90)scale(0.1 -0.1)">
      <use xlink:href="#DejaVuSans-83"/>
      <use x="63.476562" xlink:href="#DejaVuSans-116"/>
      <use x="102.685547" xlink:href="#DejaVuSans-117"/>
      <use x="166.064453" xlink:href="#DejaVuSans-100"/>
      <use x="229.541016" xlink:href="#DejaVuSans-101"/>
      <use x="291.064453" xlink:href="#DejaVuSans-110"/>
      <use x="354.443359" xlink:href="#DejaVuSans-116"/>
      <use x="393.652344" xlink:href="#DejaVuSans-115"/>
      <use x="445.751953" xlink:href="#DejaVuSans-32"/>
      <use x="477.539062" xlink:href="#DejaVuSans-82"/>
      <use x="546.958984" xlink:href="#DejaVuSans-101"/>
      <use x="608.482422" xlink:href="#DejaVuSans-103"/>
      <use x="671.958984" xlink:href="#DejaVuSans-105"/>
      <use x="699.742188" xlink:href="#DejaVuSans-115"/>
      <use x="751.841797" xlink:href="#DejaVuSans-116"/>
      <use x="791.050781" xlink:href="#DejaVuSans-101"/>
      <use x="852.574219" xlink:href="#DejaVuSans-114"/>
      <use x="893.65625" xlink:href="#DejaVuSans-101"/>
      <use x="955.179688" xlink:href="#DejaVuSans-100"/>
     </g>
    </g>
   </g>
   <g id="line2d_22">
    <path clip-path="url(#pc44ea76dba)" d="M 55.905 201.382519 
L 60.865105 201.382519 
L 60.865105 196.670456 
L 60.951381 196.670456 
L 64.143706 196.670456 
L 64.143706 191.958393 
L 64.229983 191.958393 
L 64.833915 191.958393 
L 64.833915 187.24633 
L 64.920181 187.24633 
L 68.457581 187.24633 
L 68.457581 177.822204 
L 68.54388 177.822204 
L 68.802715 177.822204 
L 68.802715 173.110142 
L 68.889001 173.110142 
L 69.147832 173.110142 
L 69.147832 168.398079 
L 69.234098 168.398079 
L 69.320384 168.398079 
L 69.320384 163.686016 
L 69.406682 163.686016 
L 73.289195 163.686016 
L 73.289195 158.973953 
L 73.375465 158.973953 
L 77.257992 158.973953 
L 77.257992 154.26189 
L 77.344282 154.26189 
L 84.850493 154.26189 
L 84.850493 144.837764 
L 84.936728 144.837764 
L 85.195599 144.837764 
L 85.195599 140.125701 
L 85.281859 140.125701 
L 86.058379 140.125701 
L 86.058379 135.413638 
L 86.144644 135.413638 
L 88.819264 135.413638 
L 88.819264 130.701575 
L 88.905541 130.701575 
L 89.68206 130.701575 
L 89.68206 125.989512 
L 89.76834 125.989512 
L 89.854618 125.989512 
L 89.854618 121.277449 
L 89.940901 121.277449 
L 90.027172 121.277449 
L 90.070305 107.14126 
L 90.113447 107.14126 
L 92.960609 107.14126 
L 92.960609 102.429197 
L 93.046923 102.429197 
L 93.133162 102.429197 
L 93.133162 93.005071 
L 93.219475 93.005071 
L 93.305717 93.005071 
L 93.305717 88.293008 
L 93.392004 88.293008 
L 93.478291 88.293008 
L 93.521427 74.156819 
L 93.56457 74.156819 
L 93.823397 74.156819 
L 93.823397 60.02063 
L 93.909692 60.02063 
L 93.995975 60.02063 
L 93.995975 50.596504 
L 94.082265 50.596504 
L 94.168507 50.596504 
L 94.168507 31.748252 
L 94.254815 31.748252 
L 94.341086 31.748252 
L 94.341086 27.036189 
L 94.427383 27.036189 
L 95.203876 27.036189 
L 95.203876 22.324126 
L 95.290158 22.324126 
L 142.656921 22.324126 
L 142.656921 27.036189 
L 142.743167 27.036189 
L 142.829476 27.036189 
L 142.829476 22.324126 
L 142.91575 22.324126 
L 143.17457 22.324126 
L 143.17457 27.036189 
L 143.260868 27.036189 
L 143.69222 27.036189 
L 143.69222 31.748252 
L 143.778532 31.748252 
L 144.037375 31.748252 
L 144.037375 36.460315 
L 144.123631 36.460315 
L 148.696367 36.460315 
L 148.696367 41.172378 
L 148.782643 41.172378 
L 158.877219 41.172378 
L 158.877219 36.460315 
L 158.9635 36.460315 
L 178.030964 36.460315 
L 178.030964 41.172378 
L 178.117267 41.172378 
L 184.760685 41.172378 
L 184.760685 36.460315 
L 184.846958 36.460315 
L 205.812603 36.460315 
L 205.812603 31.748252 
L 205.898875 31.748252 
L 208.573461 31.748252 
L 208.573461 27.036189 
L 208.659744 27.036189 
L 213.405065 27.036189 
L 213.405065 22.324126 
L 238.25321 22.324126 
L 238.25321 31.748252 
L 238.339456 31.748252 
L 238.770837 31.748252 
L 238.770837 36.460315 
L 238.857157 36.460315 
L 268.795692 36.460315 
L 268.795692 41.172378 
L 268.882002 41.172378 
L 275.007733 41.172378 
L 275.007733 36.460315 
L 275.094 36.460315 
L 279.149099 36.460315 
L 279.149099 31.748252 
L 279.235352 31.748252 
L 280.356952 31.748252 
L 280.356952 27.036189 
L 280.443275 27.036189 
L 292.090836 27.036189 
L 292.090836 22.324126 
L 292.177121 22.324126 
L 303.005 22.324126 
L 303.005 22.324126 
" style="fill:none;stroke:#1b9e77;stroke-linecap:square;stroke-width:1.5;"/>
   </g>
   <g id="line2d_23">
    <path clip-path="url(#pc44ea76dba)" d="M 55.905 210.806645 
L 56.086809 210.806645 
L 56.086809 201.382519 
L 56.197472 201.382519 
L 56.896324 201.382519 
L 56.896324 196.670456 
L 56.979694 196.670456 
L 60.865105 196.670456 
L 60.865105 191.958393 
L 60.951381 191.958393 
L 64.143706 191.958393 
L 64.143706 177.822204 
L 64.229983 177.822204 
L 64.316246 177.822204 
L 64.316246 173.110142 
L 64.402538 173.110142 
L 64.488801 173.110142 
L 64.488801 154.26189 
L 64.575089 154.26189 
L 64.661356 154.26189 
L 64.661356 149.549827 
L 64.747633 149.549827 
L 64.833915 149.549827 
L 64.833915 140.125701 
L 64.920181 140.125701 
L 65.006497 140.125701 
L 65.006497 125.989512 
L 65.092772 125.989512 
L 68.112496 125.989512 
L 68.112496 121.277449 
L 68.198771 121.277449 
L 68.285033 121.277449 
L 68.285033 116.565386 
L 68.371309 116.565386 
L 68.802715 116.565386 
L 68.802715 111.853323 
L 68.889001 111.853323 
L 69.147832 111.853323 
L 69.147832 97.717134 
L 69.234098 97.717134 
L 69.320384 97.717134 
L 69.320384 93.005071 
L 69.406682 93.005071 
L 72.771507 93.005071 
L 72.771507 88.293008 
L 72.857804 88.293008 
L 72.944058 88.293008 
L 72.944058 83.580945 
L 73.030361 83.580945 
L 73.289195 83.580945 
L 73.289195 78.868882 
L 73.375465 78.868882 
L 73.806854 78.868882 
L 73.806854 74.156819 
L 73.893124 74.156819 
L 76.740339 74.156819 
L 76.740339 69.444756 
L 76.826586 69.444756 
L 84.850493 69.444756 
L 84.850493 45.884441 
L 84.936728 45.884441 
L 85.023032 45.884441 
L 85.023032 36.460315 
L 85.109284 36.460315 
L 85.195599 36.460315 
L 85.195599 31.748252 
L 85.281859 31.748252 
L 143.347112 31.748252 
L 143.347112 36.460315 
L 143.433407 36.460315 
L 143.519663 36.460315 
L 143.519663 31.748252 
L 143.605942 31.748252 
L 152.837712 31.748252 
L 152.837712 36.460315 
L 152.92402 36.460315 
L 153.010281 36.460315 
L 153.010281 31.748252 
L 153.096554 31.748252 
L 238.25321 31.748252 
L 238.25321 22.324126 
L 238.339456 22.324126 
L 303.005 22.324126 
L 303.005 22.324126 
" style="fill:none;stroke:#d95f02;stroke-linecap:square;stroke-width:1.5;"/>
   </g>
   <g id="line2d_24">
    <path clip-path="url(#pc44ea76dba)" d="M 91.925304 196.670456 
L 92.788048 196.670456 
L 92.788048 182.534267 
L 92.87447 182.534267 
L 92.960609 182.534267 
L 92.960609 177.822204 
L 93.046923 177.822204 
L 93.133162 177.822204 
L 93.133162 158.973953 
L 93.219475 158.973953 
L 93.478291 158.973953 
L 93.478291 144.837764 
L 93.56457 144.837764 
L 93.823397 144.837764 
L 93.823397 116.565386 
L 93.909692 116.565386 
L 94.168507 116.565386 
L 94.168507 107.14126 
L 94.254815 107.14126 
L 94.341086 107.14126 
L 94.341086 102.429197 
L 94.427383 102.429197 
L 94.513628 102.429197 
L 94.513628 97.717134 
L 94.599936 97.717134 
L 94.858769 97.717134 
L 94.858769 93.005071 
L 94.945007 93.005071 
L 97.274522 93.005071 
L 97.274522 74.156819 
L 97.36083 74.156819 
L 97.619647 74.156819 
L 97.619647 69.444756 
L 97.705911 69.444756 
L 97.964786 69.444756 
L 97.964786 60.02063 
L 98.051046 60.02063 
L 98.137343 60.02063 
L 98.137343 55.308567 
L 98.223599 55.308567 
L 98.482461 55.308567 
L 98.482461 50.596504 
L 98.56871 50.596504 
L 102.106132 50.596504 
L 102.106132 45.884441 
L 102.192393 45.884441 
L 102.278659 45.884441 
L 102.278659 41.172378 
L 102.364977 41.172378 
L 102.451225 41.172378 
L 102.451225 36.460315 
L 102.537524 36.460315 
L 102.968918 36.460315 
L 102.968918 31.748252 
L 103.055198 31.748252 
L 114.012507 31.748252 
L 114.012507 22.324126 
L 114.098806 22.324126 
L 135.236959 22.324126 
L 135.236959 27.036189 
L 135.323248 27.036189 
L 136.272297 27.036189 
L 136.272297 22.324126 
L 136.358579 22.324126 
L 151.284732 22.324126 
L 151.284732 27.036189 
L 151.371014 27.036189 
L 152.665177 27.036189 
L 152.665177 22.324126 
L 152.751465 22.324126 
L 264.309246 22.324126 
L 264.309246 27.036189 
L 264.395514 27.036189 
L 269.140817 27.036189 
L 269.140817 22.324126 
L 269.227085 22.324126 
L 303.005 22.324126 
L 303.005 22.324126 
" style="fill:none;stroke:#7570b3;stroke-linecap:square;stroke-width:1.5;"/>
   </g>
   <g id="line2d_25">
    <path clip-path="url(#pc44ea76dba)" d="M 55.905 182.534267 
L 56.086809 182.534267 
L 56.086809 177.822204 
L 56.197472 177.822204 
L 56.979694 177.822204 
L 56.979694 173.110142 
L 59.74063 173.110142 
L 59.74063 168.398079 
L 60.002347 168.398079 
L 60.002347 163.686016 
L 60.088635 163.686016 
L 60.174893 163.686016 
L 60.174893 158.973953 
L 60.261187 158.973953 
L 60.692586 158.973953 
L 60.692586 144.837764 
L 60.778882 144.837764 
L 60.865105 144.837764 
L 60.865105 140.125701 
L 60.951381 140.125701 
L 64.316246 140.125701 
L 64.316246 130.701575 
L 64.402538 130.701575 
L 64.488801 130.701575 
L 64.488801 125.989512 
L 64.575089 125.989512 
L 64.661356 125.989512 
L 64.661356 130.701575 
L 64.747633 130.701575 
L 65.006497 130.701575 
L 65.006497 125.989512 
L 65.092772 125.989512 
L 65.179019 125.989512 
L 65.179019 116.565386 
L 65.265292 116.565386 
L 66.041823 116.565386 
L 66.041823 107.14126 
L 66.128111 107.14126 
L 67.939943 107.14126 
L 67.939943 102.429197 
L 68.026212 102.429197 
L 68.112496 102.429197 
L 68.112496 83.580945 
L 68.198771 83.580945 
L 68.285033 83.580945 
L 68.285033 74.156819 
L 68.371309 74.156819 
L 68.630164 74.156819 
L 68.630164 69.444756 
L 68.716445 69.444756 
L 68.802715 69.444756 
L 68.802715 64.732693 
L 68.889001 64.732693 
L 68.975277 64.732693 
L 68.975277 60.02063 
L 69.061565 60.02063 
L 69.147832 60.02063 
L 69.147832 45.884441 
L 69.234098 45.884441 
L 69.320384 45.884441 
L 69.320384 41.172378 
L 69.406682 41.172378 
L 69.49295 41.172378 
L 69.49295 36.460315 
L 69.579213 36.460315 
L 72.426387 36.460315 
L 72.426387 27.036189 
L 72.512679 27.036189 
L 72.598981 27.036189 
L 72.598981 22.324126 
L 72.685251 22.324126 
L 92.960609 22.324126 
L 92.960609 27.036189 
L 93.046923 27.036189 
L 93.133162 27.036189 
L 93.133162 22.324126 
L 93.219475 22.324126 
L 264.136662 22.324126 
L 264.136662 27.036189 
L 264.222946 27.036189 
L 264.309246 27.036189 
L 264.309246 22.324126 
L 264.395514 22.324126 
L 303.005 22.324126 
L 303.005 22.324126 
" style="fill:none;stroke:#e7298a;stroke-linecap:square;stroke-width:1.5;"/>
   </g>
   <g id="line2d_26">
    <path clip-path="url(#pc44ea76dba)" d="M 55.905 201.382519 
L 60.520038 201.382519 
L 60.520038 196.670456 
L 60.60629 196.670456 
L 63.971157 196.670456 
L 63.971157 191.958393 
L 64.057403 191.958393 
L 64.143706 191.958393 
L 64.143706 187.24633 
L 64.229983 187.24633 
L 64.316246 187.24633 
L 64.316246 177.822204 
L 64.402538 177.822204 
L 64.488801 177.822204 
L 64.488801 173.110142 
L 64.575089 173.110142 
L 64.661356 173.110142 
L 64.661356 168.398079 
L 64.747633 168.398079 
L 64.833915 168.398079 
L 64.833915 163.686016 
L 64.920181 163.686016 
L 65.179019 163.686016 
L 65.179019 158.973953 
L 65.265292 158.973953 
L 68.112496 158.973953 
L 68.112496 149.549827 
L 68.198771 149.549827 
L 68.285033 149.549827 
L 68.285033 144.837764 
L 68.371309 144.837764 
L 68.975277 144.837764 
L 68.975277 140.125701 
L 69.061565 140.125701 
L 69.147832 140.125701 
L 69.147832 130.701575 
L 69.234098 130.701575 
L 84.850493 130.701575 
L 84.850493 125.989512 
L 84.936728 125.989512 
L 85.023032 125.989512 
L 85.023032 121.277449 
L 85.109284 121.277449 
L 85.195599 121.277449 
L 85.195599 116.565386 
L 85.281859 116.565386 
L 85.368137 116.565386 
L 85.368137 111.853323 
L 85.454407 111.853323 
L 85.540712 111.853323 
L 85.540712 102.429197 
L 85.62697 102.429197 
L 85.713271 102.429197 
L 85.713271 97.717134 
L 85.799526 97.717134 
L 88.819264 97.717134 
L 88.862406 83.580945 
L 88.905541 83.580945 
L 89.164386 83.580945 
L 89.164386 74.156819 
L 89.250661 74.156819 
L 89.68206 74.156819 
L 89.68206 69.444756 
L 89.76834 69.444756 
L 89.854618 69.444756 
L 89.854618 60.02063 
L 89.940901 60.02063 
L 90.027172 60.02063 
L 90.027172 36.460315 
L 90.113447 36.460315 
L 90.199703 36.460315 
L 90.199703 22.324126 
L 90.28606 22.324126 
L 92.788048 22.324126 
L 92.788048 27.036189 
L 92.87447 27.036189 
L 93.133162 27.036189 
L 93.133162 22.324126 
L 93.219475 22.324126 
L 134.891834 22.324126 
L 134.891834 27.036189 
L 134.978142 27.036189 
L 135.064426 27.036189 
L 135.064426 22.324126 
L 135.15067 22.324126 
L 142.656921 22.324126 
L 142.656921 27.036189 
L 142.743167 27.036189 
L 143.001987 27.036189 
L 143.001987 22.324126 
L 143.088308 22.324126 
L 143.347112 22.324126 
L 143.347112 27.036189 
L 143.433407 27.036189 
L 144.037375 27.036189 
L 144.037375 22.324126 
L 144.123631 22.324126 
L 303.005 22.324126 
L 303.005 22.324126 
" style="fill:none;stroke:#66a61e;stroke-linecap:square;stroke-width:1.5;"/>
   </g>
   <g id="line2d_27">
    <path clip-path="url(#pc44ea76dba)" d="M 55.905 191.958393 
L 64.143706 191.958393 
L 64.143706 187.24633 
L 64.229983 187.24633 
L 65.006497 187.24633 
L 65.006497 182.534267 
L 65.092772 182.534267 
L 65.351599 182.534267 
L 65.351599 177.822204 
L 65.437888 177.822204 
L 68.630164 177.822204 
L 68.630164 173.110142 
L 68.716445 173.110142 
L 68.975277 173.110142 
L 68.975277 168.398079 
L 69.061565 168.398079 
L 72.426387 168.398079 
L 72.426387 163.686016 
L 72.512679 163.686016 
L 84.677912 163.686016 
L 84.677912 154.26189 
L 84.764172 154.26189 
L 84.850493 154.26189 
L 84.850493 144.837764 
L 84.936728 144.837764 
L 85.368137 144.837764 
L 85.368137 140.125701 
L 85.454407 140.125701 
L 86.058379 140.125701 
L 86.058379 135.413638 
L 86.144644 135.413638 
L 89.164386 135.413638 
L 89.164386 130.701575 
L 89.250661 130.701575 
L 89.509469 130.701575 
L 89.509469 121.277449 
L 89.595792 121.277449 
L 89.854618 121.277449 
L 89.854618 116.565386 
L 89.940901 116.565386 
L 90.889958 116.565386 
L 90.889958 111.853323 
L 90.976227 111.853323 
L 92.788048 111.853323 
L 92.788048 107.14126 
L 92.87447 107.14126 
L 93.133162 107.14126 
L 93.133162 102.429197 
L 93.219475 102.429197 
L 93.305717 102.429197 
L 93.305717 93.005071 
L 93.392004 93.005071 
L 93.650857 93.005071 
L 93.650857 88.293008 
L 93.737156 88.293008 
L 93.823397 88.293008 
L 93.866552 74.156819 
L 93.909692 74.156819 
L 93.995975 74.156819 
L 93.995975 64.732693 
L 94.082265 64.732693 
L 94.686174 64.732693 
L 94.686174 69.444756 
L 94.772491 69.444756 
L 97.274522 69.444756 
L 97.274522 60.02063 
L 97.36083 60.02063 
L 97.447121 60.02063 
L 97.447121 55.308567 
L 97.533398 55.308567 
L 97.79221 55.308567 
L 97.79221 50.596504 
L 97.87849 50.596504 
L 97.964786 50.596504 
L 97.964786 41.172378 
L 98.051046 41.172378 
L 98.137343 41.172378 
L 98.137343 36.460315 
L 98.223599 36.460315 
L 98.482461 36.460315 
L 98.482461 31.748252 
L 98.56871 31.748252 
L 240.151315 31.748252 
L 240.151315 36.460315 
L 240.237573 36.460315 
L 244.120093 36.460315 
L 244.120093 31.748252 
L 244.206395 31.748252 
L 303.005 31.748252 
L 303.005 31.748252 
" style="fill:none;stroke:#e6ab02;stroke-linecap:square;stroke-width:1.5;"/>
   </g>
   <g id="line2d_28">
    <path clip-path="url(#pc44ea76dba)" d="M 55.905 196.670456 
L 60.520038 196.670456 
L 60.520038 191.958393 
L 60.60629 191.958393 
L 63.971157 191.958393 
L 63.971157 187.24633 
L 64.057403 187.24633 
L 64.143706 187.24633 
L 64.143706 182.534267 
L 64.229983 182.534267 
L 64.488801 182.534267 
L 64.488801 177.822204 
L 64.575089 177.822204 
L 64.661356 177.822204 
L 64.661356 173.110142 
L 64.747633 173.110142 
L 64.833915 173.110142 
L 64.833915 163.686016 
L 64.920181 163.686016 
L 65.006497 163.686016 
L 65.006497 158.973953 
L 65.092772 158.973953 
L 65.179019 158.973953 
L 65.179019 154.26189 
L 65.265292 154.26189 
L 67.939943 154.26189 
L 67.939943 149.549827 
L 68.026212 149.549827 
L 68.112496 149.549827 
L 68.112496 140.125701 
L 68.198771 140.125701 
L 68.457581 140.125701 
L 68.457581 135.413638 
L 68.54388 135.413638 
L 68.630164 135.413638 
L 68.630164 125.989512 
L 68.716445 125.989512 
L 68.975277 125.989512 
L 68.975277 121.277449 
L 69.061565 121.277449 
L 69.320384 121.277449 
L 69.320384 116.565386 
L 69.406682 116.565386 
L 69.49295 116.565386 
L 69.49295 111.853323 
L 69.579213 111.853323 
L 72.598981 111.853323 
L 72.598981 107.14126 
L 72.685251 107.14126 
L 73.289195 107.14126 
L 73.289195 102.429197 
L 73.375465 102.429197 
L 77.775636 102.429197 
L 77.775636 97.717134 
L 77.861932 97.717134 
L 84.677912 97.717134 
L 84.677912 93.005071 
L 84.764172 93.005071 
L 85.195599 93.005071 
L 85.195599 78.868882 
L 85.281859 78.868882 
L 85.368137 78.868882 
L 85.368137 69.444756 
L 85.454407 69.444756 
L 85.540712 69.444756 
L 85.540712 60.02063 
L 85.62697 60.02063 
L 86.058379 60.02063 
L 86.058379 55.308567 
L 86.144644 55.308567 
L 88.474159 55.308567 
L 88.474159 50.596504 
L 88.560432 50.596504 
L 88.991817 50.596504 
L 88.991817 45.884441 
L 89.078122 45.884441 
L 89.164386 45.884441 
L 89.164386 41.172378 
L 89.250661 41.172378 
L 89.336931 41.172378 
L 89.336931 36.460315 
L 89.423204 36.460315 
L 89.854618 36.460315 
L 89.854618 31.748252 
L 89.940901 31.748252 
L 303.005 31.748252 
L 303.005 31.748252 
" style="fill:none;stroke:#a6761d;stroke-linecap:square;stroke-width:1.5;"/>
   </g>
   <g id="line2d_29">
    <path clip-path="url(#pc44ea76dba)" d="M 55.905 201.382519 
L 64.316246 201.382519 
L 64.316246 196.670456 
L 64.402538 196.670456 
L 64.833915 196.670456 
L 64.833915 191.958393 
L 64.920181 191.958393 
L 68.630164 191.958393 
L 68.630164 187.24633 
L 68.716445 187.24633 
L 68.975277 187.24633 
L 68.975277 191.958393 
L 69.061565 191.958393 
L 69.147832 191.958393 
L 69.147832 182.534267 
L 69.234098 182.534267 
L 84.850493 182.534267 
L 84.850493 177.822204 
L 84.936728 177.822204 
L 85.195599 177.822204 
L 85.195599 173.110142 
L 85.281859 173.110142 
L 85.540712 173.110142 
L 85.540712 168.398079 
L 85.62697 168.398079 
L 85.713271 168.398079 
L 85.713271 163.686016 
L 85.799526 163.686016 
L 86.576025 163.686016 
L 86.576025 158.973953 
L 86.662337 158.973953 
L 89.336931 158.973953 
L 89.336931 154.26189 
L 89.423204 154.26189 
L 89.854618 154.26189 
L 89.854618 149.549827 
L 89.940901 149.549827 
L 90.027172 149.549827 
L 90.027172 144.837764 
L 90.113447 144.837764 
L 92.960609 144.837764 
L 92.960609 135.413638 
L 93.046923 135.413638 
L 93.133162 135.413638 
L 93.133162 130.701575 
L 93.219475 130.701575 
L 93.305717 130.701575 
L 93.348859 116.565386 
L 93.392004 116.565386 
L 93.995975 116.565386 
L 93.995975 111.853323 
L 94.082265 111.853323 
L 94.168507 111.853323 
L 94.168507 107.14126 
L 94.254815 107.14126 
L 94.341086 107.14126 
L 94.341086 111.853323 
L 94.427383 111.853323 
L 94.513628 111.853323 
L 94.513628 107.14126 
L 94.599936 107.14126 
L 94.686174 107.14126 
L 94.686174 102.429197 
L 94.772491 102.429197 
L 96.75688 102.429197 
L 96.75688 107.14126 
L 96.843133 107.14126 
L 97.274522 107.14126 
L 97.274522 93.005071 
L 97.36083 93.005071 
L 97.619647 93.005071 
L 97.619647 88.293008 
L 97.705911 88.293008 
L 97.964786 88.293008 
L 97.964786 69.444756 
L 98.051046 69.444756 
L 98.137343 69.444756 
L 98.137343 64.732693 
L 98.223599 64.732693 
L 101.933553 64.732693 
L 101.933553 60.02063 
L 102.019825 60.02063 
L 115.910663 60.02063 
L 115.910663 55.308567 
L 115.996941 55.308567 
L 118.67156 55.308567 
L 118.67156 50.596504 
L 118.757814 50.596504 
L 118.844095 50.596504 
L 118.844095 55.308567 
L 118.930393 55.308567 
L 119.18921 55.308567 
L 119.18921 50.596504 
L 119.275509 50.596504 
L 123.330594 50.596504 
L 123.330594 45.884441 
L 123.416861 45.884441 
L 130.405368 45.884441 
L 130.405368 50.596504 
L 130.491654 50.596504 
L 135.236959 50.596504 
L 135.236959 45.884441 
L 135.323248 45.884441 
L 142.656921 45.884441 
L 142.656921 50.596504 
L 142.743167 50.596504 
L 143.001987 50.596504 
L 143.001987 55.308567 
L 143.088308 55.308567 
L 143.519663 55.308567 
L 143.519663 60.02063 
L 143.605942 60.02063 
L 148.351252 60.02063 
L 148.351252 64.732693 
L 148.437566 64.732693 
L 155.77117 64.732693 
L 155.77117 69.444756 
L 155.857473 69.444756 
L 173.026859 69.444756 
L 173.026859 74.156819 
L 173.113119 74.156819 
L 251.367487 74.156819 
L 251.367487 69.444756 
L 251.453801 69.444756 
L 256.02653 69.444756 
L 256.02653 74.156819 
L 256.11283 74.156819 
L 300.546095 74.156819 
L 300.546095 69.444756 
L 300.63236 69.444756 
L 303.005 69.444756 
L 303.005 69.444756 
" style="fill:none;stroke:#666666;stroke-linecap:square;stroke-width:1.5;"/>
   </g>
   <g id="line2d_30">
    <path clip-path="url(#pc44ea76dba)" d="M 55.905 196.670456 
L 59.74063 196.670456 
L 59.74063 191.958393 
L 64.833915 191.958393 
L 64.833915 187.24633 
L 64.920181 187.24633 
L 68.285033 187.24633 
L 68.285033 182.534267 
L 68.371309 182.534267 
L 68.630164 182.534267 
L 68.630164 177.822204 
L 68.716445 177.822204 
L 69.147832 177.822204 
L 69.147832 173.110142 
L 69.234098 173.110142 
L 69.320384 173.110142 
L 69.320384 168.398079 
L 69.406682 168.398079 
L 70.35573 168.398079 
L 70.35573 163.686016 
L 70.442025 163.686016 
L 85.195599 163.686016 
L 85.195599 154.26189 
L 85.281859 154.26189 
L 89.164386 154.26189 
L 89.164386 149.549827 
L 89.250661 149.549827 
L 90.027172 149.549827 
L 90.027172 144.837764 
L 90.113447 144.837764 
L 90.544856 144.837764 
L 90.544856 140.125701 
L 90.631124 140.125701 
L 93.133162 140.125701 
L 93.133162 135.413638 
L 93.219475 135.413638 
L 93.305717 135.413638 
L 93.305717 125.989512 
L 93.392004 125.989512 
L 93.823397 125.989512 
L 93.823397 116.565386 
L 93.909692 116.565386 
L 97.619647 116.565386 
L 97.619647 111.853323 
L 97.705911 111.853323 
L 98.137343 111.853323 
L 98.137343 107.14126 
L 98.223599 107.14126 
L 98.654977 107.14126 
L 98.654977 102.429197 
L 98.741275 102.429197 
L 102.968918 102.429197 
L 102.968918 97.717134 
L 103.055198 97.717134 
L 114.875308 97.717134 
L 114.875308 93.005071 
L 114.961598 93.005071 
L 118.844095 93.005071 
L 118.844095 88.293008 
L 118.930393 88.293008 
L 123.330594 88.293008 
L 123.330594 93.005071 
L 123.416861 93.005071 
L 143.17457 93.005071 
L 143.17457 88.293008 
L 143.260868 88.293008 
L 143.347112 88.293008 
L 143.347112 93.005071 
L 143.433407 93.005071 
L 147.661042 93.005071 
L 147.661042 88.293008 
L 147.74734 88.293008 
L 178.030964 88.293008 
L 178.030964 83.580945 
L 178.117267 83.580945 
L 205.64001 83.580945 
L 205.64001 78.868882 
L 205.726287 78.868882 
L 214.44041 78.868882 
L 214.44041 83.580945 
L 214.526679 83.580945 
L 269.140817 83.580945 
L 269.140817 88.293008 
L 269.227085 88.293008 
L 271.211507 88.293008 
L 271.211507 93.005071 
L 271.297783 93.005071 
L 285.706252 93.005071 
L 285.706252 88.293008 
L 285.792513 88.293008 
L 288.12204 88.293008 
L 288.12204 83.580945 
L 288.208323 83.580945 
L 291.573136 83.580945 
L 291.573136 78.868882 
L 291.659451 78.868882 
L 296.404712 78.868882 
L 296.404712 83.580945 
L 296.491009 83.580945 
L 303.005 83.580945 
L 303.005 83.580945 
" style="fill:none;stroke:#1b9e77;stroke-dasharray:4.5,1.5;stroke-dashoffset:0;stroke-width:1.5;"/>
   </g>
   <g id="line2d_31">
    <path clip-path="url(#pc44ea76dba)" d="M 55.905 210.806645 
L 61.037658 210.806645 
L 61.037658 206.094582 
L 61.123941 206.094582 
L 61.727918 206.094582 
L 61.727918 201.382519 
L 61.814187 201.382519 
L 72.598981 201.382519 
L 72.598981 196.670456 
L 72.685251 196.670456 
L 84.677912 196.670456 
L 84.677912 191.958393 
L 84.764172 191.958393 
L 85.885801 191.958393 
L 85.885801 182.534267 
L 85.972072 182.534267 
L 89.164386 182.534267 
L 89.164386 177.822204 
L 89.250661 177.822204 
L 89.336931 177.822204 
L 89.336931 173.110142 
L 89.423204 173.110142 
L 89.854618 173.110142 
L 89.854618 163.686016 
L 89.940901 163.686016 
L 90.027172 163.686016 
L 90.027172 158.973953 
L 90.113447 158.973953 
L 91.062483 158.973953 
L 91.062483 154.26189 
L 91.148806 154.26189 
L 93.133162 154.26189 
L 93.133162 158.973953 
L 93.219475 158.973953 
L 93.478291 158.973953 
L 93.478291 154.26189 
L 93.56457 154.26189 
L 93.650857 154.26189 
L 93.650857 149.549827 
L 93.737156 149.549827 
L 93.995975 149.549827 
L 93.995975 144.837764 
L 94.082265 144.837764 
L 94.168507 144.837764 
L 94.168507 149.549827 
L 94.254815 149.549827 
L 94.341086 149.549827 
L 94.341086 144.837764 
L 94.427383 144.837764 
L 97.274522 144.837764 
L 97.274522 140.125701 
L 97.36083 140.125701 
L 102.796359 140.125701 
L 102.796359 135.413638 
L 102.882626 135.413638 
L 114.357633 135.413638 
L 114.357633 130.701575 
L 114.443926 130.701575 
L 130.75049 130.701575 
L 130.75049 125.989512 
L 130.836807 125.989512 
L 151.284732 125.989512 
L 151.284732 121.277449 
L 151.371014 121.277449 
L 173.026859 121.277449 
L 173.026859 116.565386 
L 173.113119 116.565386 
L 213.405065 116.565386 
L 213.405065 111.853323 
L 229.970476 111.853323 
L 229.970476 107.14126 
L 230.056774 107.14126 
L 264.136662 107.14126 
L 264.136662 102.429197 
L 264.222946 102.429197 
L 268.968246 102.429197 
L 268.968246 97.717134 
L 269.054528 97.717134 
L 275.352824 97.717134 
L 275.352824 93.005071 
L 275.439125 93.005071 
L 301.581445 93.005071 
L 301.581445 88.293008 
L 301.667725 88.293008 
L 303.005 88.293008 
L 303.005 88.293008 
" style="fill:none;stroke:#d95f02;stroke-dasharray:4.5,1.5;stroke-dashoffset:0;stroke-width:1.5;"/>
   </g>
   <g id="line2d_32">
    <path clip-path="url(#pc44ea76dba)" d="M 55.905 206.094582 
L 63.971157 206.094582 
L 63.971157 201.382519 
L 64.057403 201.382519 
L 64.143706 201.382519 
L 64.143706 196.670456 
L 64.229983 196.670456 
L 64.833915 196.670456 
L 64.833915 187.24633 
L 64.920181 187.24633 
L 68.112496 187.24633 
L 68.112496 182.534267 
L 68.198771 182.534267 
L 68.975277 182.534267 
L 68.975277 177.822204 
L 69.061565 177.822204 
L 69.147832 177.822204 
L 69.147832 173.110142 
L 69.234098 173.110142 
L 69.320384 173.110142 
L 69.320384 168.398079 
L 69.406682 168.398079 
L 85.023032 168.398079 
L 85.023032 163.686016 
L 85.109284 163.686016 
L 85.195599 163.686016 
L 85.195599 158.973953 
L 85.281859 158.973953 
L 85.368137 158.973953 
L 85.368137 149.549827 
L 85.454407 149.549827 
L 89.68206 149.549827 
L 89.68206 144.837764 
L 89.76834 144.837764 
L 89.854618 144.837764 
L 89.854618 140.125701 
L 89.940901 140.125701 
L 92.788048 140.125701 
L 92.788048 144.837764 
L 92.87447 144.837764 
L 93.305717 144.837764 
L 93.305717 135.413638 
L 93.392004 135.413638 
L 93.478291 135.413638 
L 93.478291 140.125701 
L 93.56457 140.125701 
L 93.650857 140.125701 
L 93.650857 135.413638 
L 93.737156 135.413638 
L 93.995975 135.413638 
L 93.995975 125.989512 
L 94.082265 125.989512 
L 94.168507 125.989512 
L 94.168507 121.277449 
L 94.254815 121.277449 
L 102.278659 121.277449 
L 102.278659 116.565386 
L 102.364977 116.565386 
L 102.796359 116.565386 
L 102.796359 111.853323 
L 102.882626 111.853323 
L 111.079046 111.853323 
L 111.079046 107.14126 
L 111.165326 107.14126 
L 126.781689 107.14126 
L 126.781689 102.429197 
L 126.86798 102.429197 
L 127.471914 102.429197 
L 127.471914 97.717134 
L 127.558233 97.717134 
L 130.923071 97.717134 
L 130.923071 93.005071 
L 131.009354 93.005071 
L 144.555042 93.005071 
L 144.555042 88.293008 
L 144.641289 88.293008 
L 247.398664 88.293008 
L 247.398664 93.005071 
L 247.484983 93.005071 
L 251.367487 93.005071 
L 251.367487 97.717134 
L 251.453801 97.717134 
L 287.949474 97.717134 
L 287.949474 93.005071 
L 288.035727 93.005071 
L 288.639676 93.005071 
L 288.639676 88.293008 
L 288.725965 88.293008 
L 303.005 88.293008 
L 303.005 88.293008 
" style="fill:none;stroke:#7570b3;stroke-dasharray:4.5,1.5;stroke-dashoffset:0;stroke-width:1.5;"/>
   </g>
   <g id="line2d_33">
    <path clip-path="url(#pc44ea76dba)" d="M 55.905 206.094582 
L 64.316246 206.094582 
L 64.316246 201.382519 
L 64.402538 201.382519 
L 68.975277 201.382519 
L 68.975277 191.958393 
L 69.061565 191.958393 
L 84.677912 191.958393 
L 84.677912 187.24633 
L 84.764172 187.24633 
L 85.023032 187.24633 
L 85.023032 182.534267 
L 85.109284 182.534267 
L 85.540712 182.534267 
L 85.540712 177.822204 
L 85.62697 177.822204 
L 88.819264 177.822204 
L 88.819264 173.110142 
L 88.905541 173.110142 
L 88.991817 173.110142 
L 88.991817 163.686016 
L 89.078122 163.686016 
L 89.164386 163.686016 
L 89.164386 158.973953 
L 89.250661 158.973953 
L 89.509469 158.973953 
L 89.509469 154.26189 
L 89.595792 154.26189 
L 89.68206 154.26189 
L 89.68206 144.837764 
L 89.76834 144.837764 
L 89.854618 144.837764 
L 89.854618 135.413638 
L 89.940901 135.413638 
L 90.544856 135.413638 
L 90.544856 130.701575 
L 90.631124 130.701575 
L 90.889958 130.701575 
L 90.889958 125.989512 
L 90.976227 125.989512 
L 91.062483 125.989512 
L 91.062483 130.701575 
L 91.148806 130.701575 
L 92.615509 130.701575 
L 92.615509 135.413638 
L 92.701809 135.413638 
L 92.788048 135.413638 
L 92.788048 140.125701 
L 92.87447 140.125701 
L 92.960609 140.125701 
L 92.960609 135.413638 
L 93.046923 135.413638 
L 93.133162 135.413638 
L 93.133162 140.125701 
L 93.219475 140.125701 
L 93.305717 140.125701 
L 93.305717 135.413638 
L 93.392004 135.413638 
L 93.478291 135.413638 
L 93.478291 130.701575 
L 93.56457 130.701575 
L 93.823397 130.701575 
L 93.823397 135.413638 
L 93.909692 135.413638 
L 97.79221 135.413638 
L 97.79221 130.701575 
L 97.87849 130.701575 
L 98.137343 130.701575 
L 98.137343 125.989512 
L 98.223599 125.989512 
L 102.106132 125.989512 
L 102.106132 121.277449 
L 102.192393 121.277449 
L 103.314014 121.277449 
L 103.314014 116.565386 
L 103.400277 116.565386 
L 114.357633 116.565386 
L 114.357633 111.853323 
L 114.443926 111.853323 
L 114.530188 111.853323 
L 114.530188 107.14126 
L 114.616472 107.14126 
L 115.220396 107.14126 
L 115.220396 102.429197 
L 115.306703 102.429197 
L 123.330594 102.429197 
L 123.330594 97.717134 
L 123.416861 97.717134 
L 123.848218 97.717134 
L 123.848218 93.005071 
L 123.934531 93.005071 
L 132.476072 93.005071 
L 132.476072 88.293008 
L 132.562326 88.293008 
L 136.272297 88.293008 
L 136.272297 93.005071 
L 136.358579 93.005071 
L 143.001987 93.005071 
L 143.001987 97.717134 
L 143.088308 97.717134 
L 172.681738 97.717134 
L 172.681738 93.005071 
L 172.768029 93.005071 
L 201.843802 93.005071 
L 201.843802 88.293008 
L 201.930061 88.293008 
L 205.122364 88.293008 
L 205.122364 83.580945 
L 205.208615 83.580945 
L 217.028743 83.580945 
L 217.028743 78.868882 
L 217.115034 78.868882 
L 242.222023 78.868882 
L 242.222023 83.580945 
L 242.308298 83.580945 
L 242.394536 83.580945 
L 242.394536 78.868882 
L 242.480813 78.868882 
L 277.078404 78.868882 
L 277.078404 83.580945 
L 277.164666 83.580945 
L 285.016007 83.580945 
L 285.016007 88.293008 
L 285.102268 88.293008 
L 297.957894 88.293008 
L 297.957894 93.005071 
L 298.044034 93.005071 
L 303.005 93.005071 
L 303.005 93.005071 
" style="fill:none;stroke:#e7298a;stroke-dasharray:4.5,1.5;stroke-dashoffset:0;stroke-width:1.5;"/>
   </g>
   <g id="line2d_34">
    <path clip-path="url(#pc44ea76dba)" d="M 55.905 210.806645 
L 60.347615 210.806645 
L 60.347615 206.094582 
L 60.433745 206.094582 
L 60.692586 206.094582 
L 60.692586 201.382519 
L 60.778882 201.382519 
L 64.661356 201.382519 
L 64.661356 196.670456 
L 64.747633 196.670456 
L 69.147832 196.670456 
L 69.147832 191.958393 
L 69.234098 191.958393 
L 71.908743 191.958393 
L 71.908743 187.24633 
L 71.995046 187.24633 
L 72.771507 187.24633 
L 72.771507 182.534267 
L 72.857804 182.534267 
L 73.116635 182.534267 
L 73.116635 177.822204 
L 73.202898 177.822204 
L 84.677912 177.822204 
L 84.677912 168.398079 
L 84.764172 168.398079 
L 85.023032 168.398079 
L 85.023032 163.686016 
L 85.109284 163.686016 
L 85.195599 163.686016 
L 85.195599 158.973953 
L 85.281859 158.973953 
L 85.368137 158.973953 
L 85.368137 154.26189 
L 85.454407 154.26189 
L 85.540712 154.26189 
L 85.540712 144.837764 
L 85.62697 144.837764 
L 85.713271 144.837764 
L 85.713271 140.125701 
L 85.799526 140.125701 
L 86.058379 140.125701 
L 86.058379 135.413638 
L 86.144644 135.413638 
L 86.403507 135.413638 
L 86.403507 130.701575 
L 86.489771 130.701575 
L 86.92113 130.701575 
L 86.92113 125.989512 
L 87.00745 125.989512 
L 88.819264 125.989512 
L 88.819264 121.277449 
L 88.905541 121.277449 
L 88.991817 121.277449 
L 88.991817 116.565386 
L 89.078122 116.565386 
L 89.164386 116.565386 
L 89.164386 102.429197 
L 89.250661 102.429197 
L 89.336931 102.429197 
L 89.336931 97.717134 
L 89.423204 97.717134 
L 89.509469 97.717134 
L 89.509469 93.005071 
L 89.595792 93.005071 
L 91.062483 93.005071 
L 91.062483 97.717134 
L 91.148806 97.717134 
L 93.305717 97.717134 
L 93.305717 93.005071 
L 93.392004 93.005071 
L 93.478291 93.005071 
L 93.478291 97.717134 
L 93.56457 97.717134 
L 93.650857 97.717134 
L 93.650857 93.005071 
L 93.737156 93.005071 
L 98.482461 93.005071 
L 98.482461 97.717134 
L 98.56871 97.717134 
L 98.654977 97.717134 
L 98.654977 93.005071 
L 98.741275 93.005071 
L 263.791576 93.005071 
L 263.791576 97.717134 
L 263.877819 97.717134 
L 277.078404 97.717134 
L 277.078404 93.005071 
L 277.164666 93.005071 
L 303.005 93.005071 
L 303.005 93.005071 
" style="fill:none;stroke:#66a61e;stroke-dasharray:4.5,1.5;stroke-dashoffset:0;stroke-width:1.5;"/>
   </g>
   <g id="line2d_35">
    <path clip-path="url(#pc44ea76dba)" d="M 133.381977 210.806645 
L 134.891834 210.806645 
L 134.891834 206.094582 
L 134.978142 206.094582 
L 140.068565 206.094582 
L 140.068565 201.382519 
L 140.154818 201.382519 
L 142.656921 201.382519 
L 142.656921 182.534267 
L 142.743167 182.534267 
L 143.001987 182.534267 
L 143.001987 173.110142 
L 143.088308 173.110142 
L 143.347112 173.110142 
L 143.347112 158.973953 
L 143.433407 158.973953 
L 143.69222 158.973953 
L 143.69222 154.26189 
L 143.778532 154.26189 
L 147.143386 154.26189 
L 147.143386 149.549827 
L 147.229662 149.549827 
L 148.006158 149.549827 
L 148.006158 144.837764 
L 148.09243 144.837764 
L 148.351252 144.837764 
L 148.351252 140.125701 
L 148.437566 140.125701 
L 148.696367 140.125701 
L 148.696367 135.413638 
L 148.782643 135.413638 
L 148.86893 135.413638 
L 148.86893 130.701575 
L 148.95519 130.701575 
L 151.284732 130.701575 
L 151.284732 125.989512 
L 151.371014 125.989512 
L 152.837712 125.989512 
L 152.837712 121.277449 
L 152.92402 121.277449 
L 155.77117 121.277449 
L 155.77117 116.565386 
L 155.857473 116.565386 
L 208.573461 116.565386 
L 208.573461 121.277449 
L 208.659744 121.277449 
L 209.436234 121.277449 
L 209.436234 116.565386 
L 209.522545 116.565386 
L 238.425758 116.565386 
L 238.425758 111.853323 
L 238.512049 111.853323 
L 238.770837 111.853323 
L 238.770837 107.14126 
L 238.857157 107.14126 
L 240.151315 107.14126 
L 240.151315 102.429197 
L 240.237573 102.429197 
L 263.618985 102.429197 
L 263.618985 97.717134 
L 263.70527 97.717134 
L 303.005 97.717134 
L 303.005 97.717134 
" style="fill:none;stroke:#e6ab02;stroke-dasharray:4.5,1.5;stroke-dashoffset:0;stroke-width:1.5;"/>
   </g>
   <g id="line2d_36">
    <path clip-path="url(#pc44ea76dba)" d="M 55.905 206.094582 
L 64.488801 206.094582 
L 64.488801 196.670456 
L 64.575089 196.670456 
L 68.285033 196.670456 
L 68.285033 187.24633 
L 68.371309 187.24633 
L 68.457581 187.24633 
L 68.457581 182.534267 
L 68.54388 182.534267 
L 69.147832 182.534267 
L 69.147832 177.822204 
L 69.234098 177.822204 
L 69.320384 177.822204 
L 69.320384 173.110142 
L 69.406682 173.110142 
L 85.368137 173.110142 
L 85.368137 168.398079 
L 85.454407 168.398079 
L 85.540712 168.398079 
L 85.540712 163.686016 
L 85.62697 163.686016 
L 85.713271 163.686016 
L 85.713271 158.973953 
L 85.799526 158.973953 
L 86.230902 158.973953 
L 86.230902 154.26189 
L 86.31722 154.26189 
L 86.403507 154.26189 
L 86.403507 158.973953 
L 86.489771 158.973953 
L 88.819264 158.973953 
L 88.819264 140.125701 
L 88.905541 140.125701 
L 89.164386 140.125701 
L 89.164386 130.701575 
L 89.250661 130.701575 
L 89.336931 130.701575 
L 89.336931 125.989512 
L 89.423204 125.989512 
L 89.509469 125.989512 
L 89.509469 116.565386 
L 89.595792 116.565386 
L 303.005 116.565386 
L 303.005 116.565386 
" style="fill:none;stroke:#a6761d;stroke-dasharray:4.5,1.5;stroke-dashoffset:0;stroke-width:1.5;"/>
   </g>
   <g id="line2d_37">
    <path clip-path="url(#pc44ea76dba)" d="M 55.905 210.806645 
L 64.833915 210.806645 
L 64.833915 206.094582 
L 64.920181 206.094582 
L 65.006497 206.094582 
L 65.006497 201.382519 
L 65.092772 201.382519 
L 68.457581 201.382519 
L 68.457581 196.670456 
L 68.54388 196.670456 
L 69.320384 196.670456 
L 69.320384 191.958393 
L 69.406682 191.958393 
L 69.665497 191.958393 
L 69.665497 187.24633 
L 69.751795 187.24633 
L 70.010628 187.24633 
L 70.010628 182.534267 
L 70.096913 182.534267 
L 72.598981 182.534267 
L 72.598981 187.24633 
L 72.685251 187.24633 
L 84.850493 187.24633 
L 84.850493 182.534267 
L 84.936728 182.534267 
L 85.885801 182.534267 
L 85.885801 173.110142 
L 85.972072 173.110142 
L 88.991817 173.110142 
L 88.991817 168.398079 
L 89.078122 168.398079 
L 89.68206 168.398079 
L 89.68206 149.549827 
L 89.76834 149.549827 
L 89.854618 149.549827 
L 89.854618 144.837764 
L 89.940901 144.837764 
L 90.027172 144.837764 
L 90.027172 140.125701 
L 90.113447 140.125701 
L 143.001987 140.125701 
L 143.001987 144.837764 
L 143.088308 144.837764 
L 143.17457 144.837764 
L 143.17457 140.125701 
L 143.260868 140.125701 
L 247.398664 140.125701 
L 247.398664 135.413638 
L 247.484983 135.413638 
L 256.02653 135.413638 
L 256.02653 130.701575 
L 256.11283 130.701575 
L 268.795692 130.701575 
L 268.795692 125.989512 
L 268.882002 125.989512 
L 271.211507 125.989512 
L 271.211507 121.277449 
L 271.297783 121.277449 
L 271.901726 121.277449 
L 271.901726 116.565386 
L 271.98799 116.565386 
L 300.546095 116.565386 
L 300.546095 121.277449 
L 300.63236 121.277449 
L 303.005 121.277449 
L 303.005 121.277449 
" style="fill:none;stroke:#666666;stroke-dasharray:4.5,1.5;stroke-dashoffset:0;stroke-width:1.5;"/>
   </g>
   <g id="line2d_38"/>
   <g id="line2d_39"/>
   <g id="line2d_40"/>
   <g id="line2d_41"/>
   <g id="line2d_42"/>
   <g id="line2d_43"/>
   <g id="line2d_44"/>
   <g id="line2d_45"/>
   <g id="line2d_46"/>
   <g id="line2d_47"/>
   <g id="line2d_48"/>
   <g id="line2d_49"/>
   <g id="line2d_50"/>
   <g id="line2d_51"/>
   <g id="line2d_52"/>
   <g id="line2d_53"/>
   <g id="line2d_54"/>
   <g id="patch_3">
    <path d="M 43.55 220.230771 
L 43.55 12.9 
" style="fill:none;stroke:#000000;stroke-linecap:square;stroke-linejoin:miter;stroke-width:0.8;"/>
   </g>
   <g id="patch_4">
    <path d="M 315.36 220.230771 
L 315.36 12.9 
" style="fill:none;stroke:#000000;stroke-linecap:square;stroke-linejoin:miter;stroke-width:0.8;"/>
   </g>
   <g id="patch_5">
    <path d="M 43.55 220.230771 
L 315.36 220.230771 
" style="fill:none;stroke:#000000;stroke-linecap:square;stroke-linejoin:miter;stroke-width:0.8;"/>
   </g>
   <g id="patch_6">
    <path d="M 43.55 12.9 
L 315.36 12.9 
" style="fill:none;stroke:#000000;stroke-linecap:square;stroke-linejoin:miter;stroke-width:0.8;"/>
   </g>
  </g>
  <g id="legend_1">
   <g id="patch_7">
    <path d="M 331.8625 262.528125 
L 420 262.528125 
Q 422 262.528125 422 260.528125 
L 422 12 
Q 422 10 420 10 
L 331.8625 10 
Q 329.8625 10 329.8625 12 
L 329.8625 260.528125 
Q 329.8625 262.528125 331.8625 262.528125 
z
" style="fill:#ffffff;opacity:0.8;stroke:#cccccc;stroke-linejoin:miter;"/>
   </g>
   <g id="text_24">
    <!-- 498/610 Reg. -->
    <defs>
     <path d="M 25.390625 72.90625 
L 33.6875 72.90625 
L 8.296875 -9.28125 
L 0 -9.28125 
z
" id="DejaVuSans-47"/>
     <path d="M 33.015625 40.375 
Q 26.375 40.375 22.484375 35.828125 
Q 18.609375 31.296875 18.609375 23.390625 
Q 18.609375 15.53125 22.484375 10.953125 
Q 26.375 6.390625 33.015625 6.390625 
Q 39.65625 6.390625 43.53125 10.953125 
Q 47.40625 15.53125 47.40625 23.390625 
Q 47.40625 31.296875 43.53125 35.828125 
Q 39.65625 40.375 33.015625 40.375 
z
M 52.59375 71.296875 
L 52.59375 62.3125 
Q 48.875 64.0625 45.09375 64.984375 
Q 41.3125 65.921875 37.59375 65.921875 
Q 27.828125 65.921875 22.671875 59.328125 
Q 17.53125 52.734375 16.796875 39.40625 
Q 19.671875 43.65625 24.015625 45.921875 
Q 28.375 48.1875 33.59375 48.1875 
Q 44.578125 48.1875 50.953125 41.515625 
Q 57.328125 34.859375 57.328125 23.390625 
Q 57.328125 12.15625 50.6875 5.359375 
Q 44.046875 -1.421875 33.015625 -1.421875 
Q 20.359375 -1.421875 13.671875 8.265625 
Q 6.984375 17.96875 6.984375 36.375 
Q 6.984375 53.65625 15.1875 63.9375 
Q 23.390625 74.21875 37.203125 74.21875 
Q 40.921875 74.21875 44.703125 73.484375 
Q 48.484375 72.75 52.59375 71.296875 
z
" id="DejaVuSans-54"/>
     <path d="M 10.6875 12.40625 
L 21 12.40625 
L 21 0 
L 10.6875 0 
z
" id="DejaVuSans-46"/>
    </defs>
    <g transform="translate(342.259375 21.598437)scale(0.1 -0.1)">
     <use xlink:href="#DejaVuSans-52"/>
     <use x="63.623047" xlink:href="#DejaVuSans-57"/>
     <use x="127.246094" xlink:href="#DejaVuSans-56"/>
     <use x="190.869141" xlink:href="#DejaVuSans-47"/>
     <use x="224.560547" xlink:href="#DejaVuSans-54"/>
     <use x="288.183594" xlink:href="#DejaVuSans-49"/>
     <use x="351.806641" xlink:href="#DejaVuSans-48"/>
     <use x="415.429688" xlink:href="#DejaVuSans-32"/>
     <use x="447.216797" xlink:href="#DejaVuSans-82"/>
     <use x="516.636719" xlink:href="#DejaVuSans-101"/>
     <use x="578.160156" xlink:href="#DejaVuSans-103"/>
     <use x="641.636719" xlink:href="#DejaVuSans-46"/>
    </g>
   </g>
   <g id="line2d_55">
    <path d="M 333.8625 32.776562 
L 353.8625 32.776562 
" style="fill:none;stroke:#1b9e77;stroke-linecap:square;stroke-width:1.5;"/>
   </g>
   <g id="line2d_56"/>
   <g id="text_25">
    <!-- SA (40) -->
    <defs>
     <path d="M 34.1875 63.1875 
L 20.796875 26.90625 
L 47.609375 26.90625 
z
M 28.609375 72.90625 
L 39.796875 72.90625 
L 67.578125 0 
L 57.328125 0 
L 50.6875 18.703125 
L 17.828125 18.703125 
L 11.1875 0 
L 0.78125 0 
z
" id="DejaVuSans-65"/>
     <path d="M 31 75.875 
Q 24.46875 64.65625 21.28125 53.65625 
Q 18.109375 42.671875 18.109375 31.390625 
Q 18.109375 20.125 21.3125 9.0625 
Q 24.515625 -2 31 -13.1875 
L 23.1875 -13.1875 
Q 15.875 -1.703125 12.234375 9.375 
Q 8.59375 20.453125 8.59375 31.390625 
Q 8.59375 42.28125 12.203125 53.3125 
Q 15.828125 64.359375 23.1875 75.875 
z
" id="DejaVuSans-40"/>
     <path d="M 8.015625 75.875 
L 15.828125 75.875 
Q 23.140625 64.359375 26.78125 53.3125 
Q 30.421875 42.28125 30.421875 31.390625 
Q 30.421875 20.453125 26.78125 9.375 
Q 23.140625 -1.703125 15.828125 -13.1875 
L 8.015625 -13.1875 
Q 14.5 -2 17.703125 9.0625 
Q 20.90625 20.125 20.90625 31.390625 
Q 20.90625 42.671875 17.703125 53.65625 
Q 14.5 64.65625 8.015625 75.875 
z
" id="DejaVuSans-41"/>
    </defs>
    <g transform="translate(361.8625 36.276562)scale(0.1 -0.1)">
     <use xlink:href="#DejaVuSans-83"/>
     <use x="63.492188" xlink:href="#DejaVuSans-65"/>
     <use x="131.900391" xlink:href="#DejaVuSans-32"/>
     <use x="163.6875" xlink:href="#DejaVuSans-40"/>
     <use x="202.701172" xlink:href="#DejaVuSans-52"/>
     <use x="266.324219" xlink:href="#DejaVuSans-48"/>
     <use x="329.947266" xlink:href="#DejaVuSans-41"/>
    </g>
   </g>
   <g id="line2d_57">
    <path d="M 333.8625 47.454688 
L 353.8625 47.454688 
" style="fill:none;stroke:#d95f02;stroke-linecap:square;stroke-width:1.5;"/>
   </g>
   <g id="line2d_58"/>
   <g id="text_26">
    <!-- AS (40) -->
    <g transform="translate(361.8625 50.954688)scale(0.1 -0.1)">
     <use xlink:href="#DejaVuSans-65"/>
     <use x="68.408203" xlink:href="#DejaVuSans-83"/>
     <use x="131.884766" xlink:href="#DejaVuSans-32"/>
     <use x="163.671875" xlink:href="#DejaVuSans-40"/>
     <use x="202.685547" xlink:href="#DejaVuSans-52"/>
     <use x="266.308594" xlink:href="#DejaVuSans-48"/>
     <use x="329.931641" xlink:href="#DejaVuSans-41"/>
    </g>
   </g>
   <g id="line2d_59">
    <path d="M 333.8625 62.132812 
L 353.8625 62.132812 
" style="fill:none;stroke:#7570b3;stroke-linecap:square;stroke-width:1.5;"/>
   </g>
   <g id="line2d_60"/>
   <g id="text_27">
    <!-- AUS (40) -->
    <defs>
     <path d="M 8.6875 72.90625 
L 18.609375 72.90625 
L 18.609375 28.609375 
Q 18.609375 16.890625 22.84375 11.734375 
Q 27.09375 6.59375 36.625 6.59375 
Q 46.09375 6.59375 50.34375 11.734375 
Q 54.59375 16.890625 54.59375 28.609375 
L 54.59375 72.90625 
L 64.5 72.90625 
L 64.5 27.390625 
Q 64.5 13.140625 57.4375 5.859375 
Q 50.390625 -1.421875 36.625 -1.421875 
Q 22.796875 -1.421875 15.734375 5.859375 
Q 8.6875 13.140625 8.6875 27.390625 
z
" id="DejaVuSans-85"/>
    </defs>
    <g transform="translate(361.8625 65.632812)scale(0.1 -0.1)">
     <use xlink:href="#DejaVuSans-65"/>
     <use x="68.408203" xlink:href="#DejaVuSans-85"/>
     <use x="141.601562" xlink:href="#DejaVuSans-83"/>
     <use x="205.078125" xlink:href="#DejaVuSans-32"/>
     <use x="236.865234" xlink:href="#DejaVuSans-40"/>
     <use x="275.878906" xlink:href="#DejaVuSans-52"/>
     <use x="339.501953" xlink:href="#DejaVuSans-48"/>
     <use x="403.125" xlink:href="#DejaVuSans-41"/>
    </g>
   </g>
   <g id="line2d_61">
    <path d="M 333.8625 76.810937 
L 353.8625 76.810937 
" style="fill:none;stroke:#e7298a;stroke-linecap:square;stroke-width:1.5;"/>
   </g>
   <g id="line2d_62"/>
   <g id="text_28">
    <!-- COML (40) -->
    <defs>
     <path d="M 64.40625 67.28125 
L 64.40625 56.890625 
Q 59.421875 61.53125 53.78125 63.8125 
Q 48.140625 66.109375 41.796875 66.109375 
Q 29.296875 66.109375 22.65625 58.46875 
Q 16.015625 50.828125 16.015625 36.375 
Q 16.015625 21.96875 22.65625 14.328125 
Q 29.296875 6.6875 41.796875 6.6875 
Q 48.140625 6.6875 53.78125 8.984375 
Q 59.421875 11.28125 64.40625 15.921875 
L 64.40625 5.609375 
Q 59.234375 2.09375 53.4375 0.328125 
Q 47.65625 -1.421875 41.21875 -1.421875 
Q 24.65625 -1.421875 15.125 8.703125 
Q 5.609375 18.84375 5.609375 36.375 
Q 5.609375 53.953125 15.125 64.078125 
Q 24.65625 74.21875 41.21875 74.21875 
Q 47.75 74.21875 53.53125 72.484375 
Q 59.328125 70.75 64.40625 67.28125 
z
" id="DejaVuSans-67"/>
     <path d="M 39.40625 66.21875 
Q 28.65625 66.21875 22.328125 58.203125 
Q 16.015625 50.203125 16.015625 36.375 
Q 16.015625 22.609375 22.328125 14.59375 
Q 28.65625 6.59375 39.40625 6.59375 
Q 50.140625 6.59375 56.421875 14.59375 
Q 62.703125 22.609375 62.703125 36.375 
Q 62.703125 50.203125 56.421875 58.203125 
Q 50.140625 66.21875 39.40625 66.21875 
z
M 39.40625 74.21875 
Q 54.734375 74.21875 63.90625 63.9375 
Q 73.09375 53.65625 73.09375 36.375 
Q 73.09375 19.140625 63.90625 8.859375 
Q 54.734375 -1.421875 39.40625 -1.421875 
Q 24.03125 -1.421875 14.8125 8.828125 
Q 5.609375 19.09375 5.609375 36.375 
Q 5.609375 53.65625 14.8125 63.9375 
Q 24.03125 74.21875 39.40625 74.21875 
z
" id="DejaVuSans-79"/>
     <path d="M 9.8125 72.90625 
L 24.515625 72.90625 
L 43.109375 23.296875 
L 61.8125 72.90625 
L 76.515625 72.90625 
L 76.515625 0 
L 66.890625 0 
L 66.890625 64.015625 
L 48.09375 14.015625 
L 38.1875 14.015625 
L 19.390625 64.015625 
L 19.390625 0 
L 9.8125 0 
z
" id="DejaVuSans-77"/>
     <path d="M 9.8125 72.90625 
L 19.671875 72.90625 
L 19.671875 8.296875 
L 55.171875 8.296875 
L 55.171875 0 
L 9.8125 0 
z
" id="DejaVuSans-76"/>
    </defs>
    <g transform="translate(361.8625 80.310937)scale(0.1 -0.1)">
     <use xlink:href="#DejaVuSans-67"/>
     <use x="69.824219" xlink:href="#DejaVuSans-79"/>
     <use x="148.535156" xlink:href="#DejaVuSans-77"/>
     <use x="234.814453" xlink:href="#DejaVuSans-76"/>
     <use x="290.527344" xlink:href="#DejaVuSans-32"/>
     <use x="322.314453" xlink:href="#DejaVuSans-40"/>
     <use x="361.328125" xlink:href="#DejaVuSans-52"/>
     <use x="424.951172" xlink:href="#DejaVuSans-48"/>
     <use x="488.574219" xlink:href="#DejaVuSans-41"/>
    </g>
   </g>
   <g id="line2d_63">
    <path d="M 333.8625 91.489062 
L 353.8625 91.489062 
" style="fill:none;stroke:#66a61e;stroke-linecap:square;stroke-width:1.5;"/>
   </g>
   <g id="line2d_64"/>
   <g id="text_29">
    <!-- GDD (40) -->
    <defs>
     <path d="M 59.515625 10.40625 
L 59.515625 29.984375 
L 43.40625 29.984375 
L 43.40625 38.09375 
L 69.28125 38.09375 
L 69.28125 6.78125 
Q 63.578125 2.734375 56.6875 0.65625 
Q 49.8125 -1.421875 42 -1.421875 
Q 24.90625 -1.421875 15.25 8.5625 
Q 5.609375 18.5625 5.609375 36.375 
Q 5.609375 54.25 15.25 64.234375 
Q 24.90625 74.21875 42 74.21875 
Q 49.125 74.21875 55.546875 72.453125 
Q 61.96875 70.703125 67.390625 67.28125 
L 67.390625 56.78125 
Q 61.921875 61.421875 55.765625 63.765625 
Q 49.609375 66.109375 42.828125 66.109375 
Q 29.4375 66.109375 22.71875 58.640625 
Q 16.015625 51.171875 16.015625 36.375 
Q 16.015625 21.625 22.71875 14.15625 
Q 29.4375 6.6875 42.828125 6.6875 
Q 48.046875 6.6875 52.140625 7.59375 
Q 56.25 8.5 59.515625 10.40625 
z
" id="DejaVuSans-71"/>
    </defs>
    <g transform="translate(361.8625 94.989062)scale(0.1 -0.1)">
     <use xlink:href="#DejaVuSans-71"/>
     <use x="77.490234" xlink:href="#DejaVuSans-68"/>
     <use x="154.492188" xlink:href="#DejaVuSans-68"/>
     <use x="231.494141" xlink:href="#DejaVuSans-32"/>
     <use x="263.28125" xlink:href="#DejaVuSans-40"/>
     <use x="302.294922" xlink:href="#DejaVuSans-52"/>
     <use x="365.917969" xlink:href="#DejaVuSans-48"/>
     <use x="429.541016" xlink:href="#DejaVuSans-41"/>
    </g>
   </g>
   <g id="line2d_65">
    <path d="M 333.8625 106.167188 
L 353.8625 106.167188 
" style="fill:none;stroke:#e6ab02;stroke-linecap:square;stroke-width:1.5;"/>
   </g>
   <g id="line2d_66"/>
   <g id="text_30">
    <!-- MD (38) -->
    <g transform="translate(361.8625 109.667188)scale(0.1 -0.1)">
     <use xlink:href="#DejaVuSans-77"/>
     <use x="86.279297" xlink:href="#DejaVuSans-68"/>
     <use x="163.28125" xlink:href="#DejaVuSans-32"/>
     <use x="195.068359" xlink:href="#DejaVuSans-40"/>
     <use x="234.082031" xlink:href="#DejaVuSans-51"/>
     <use x="297.705078" xlink:href="#DejaVuSans-56"/>
     <use x="361.328125" xlink:href="#DejaVuSans-41"/>
    </g>
   </g>
   <g id="line2d_67">
    <path d="M 333.8625 120.845312 
L 353.8625 120.845312 
" style="fill:none;stroke:#a6761d;stroke-linecap:square;stroke-width:1.5;"/>
   </g>
   <g id="line2d_68"/>
   <g id="text_31">
    <!-- HPI (38) -->
    <defs>
     <path d="M 9.8125 72.90625 
L 19.671875 72.90625 
L 19.671875 43.015625 
L 55.515625 43.015625 
L 55.515625 72.90625 
L 65.375 72.90625 
L 65.375 0 
L 55.515625 0 
L 55.515625 34.71875 
L 19.671875 34.71875 
L 19.671875 0 
L 9.8125 0 
z
" id="DejaVuSans-72"/>
     <path d="M 19.671875 64.796875 
L 19.671875 37.40625 
L 32.078125 37.40625 
Q 38.96875 37.40625 42.71875 40.96875 
Q 46.484375 44.53125 46.484375 51.125 
Q 46.484375 57.671875 42.71875 61.234375 
Q 38.96875 64.796875 32.078125 64.796875 
z
M 9.8125 72.90625 
L 32.078125 72.90625 
Q 44.34375 72.90625 50.609375 67.359375 
Q 56.890625 61.8125 56.890625 51.125 
Q 56.890625 40.328125 50.609375 34.8125 
Q 44.34375 29.296875 32.078125 29.296875 
L 19.671875 29.296875 
L 19.671875 0 
L 9.8125 0 
z
" id="DejaVuSans-80"/>
     <path d="M 9.8125 72.90625 
L 19.671875 72.90625 
L 19.671875 0 
L 9.8125 0 
z
" id="DejaVuSans-73"/>
    </defs>
    <g transform="translate(361.8625 124.345312)scale(0.1 -0.1)">
     <use xlink:href="#DejaVuSans-72"/>
     <use x="75.195312" xlink:href="#DejaVuSans-80"/>
     <use x="135.498047" xlink:href="#DejaVuSans-73"/>
     <use x="164.990234" xlink:href="#DejaVuSans-32"/>
     <use x="196.777344" xlink:href="#DejaVuSans-40"/>
     <use x="235.791016" xlink:href="#DejaVuSans-51"/>
     <use x="299.414062" xlink:href="#DejaVuSans-56"/>
     <use x="363.037109" xlink:href="#DejaVuSans-41"/>
    </g>
   </g>
   <g id="line2d_69">
    <path d="M 333.8625 135.523438 
L 353.8625 135.523438 
" style="fill:none;stroke:#666666;stroke-linecap:square;stroke-width:1.5;"/>
   </g>
   <g id="line2d_70"/>
   <g id="text_32">
    <!-- FIT (30) -->
    <defs>
     <path d="M 9.8125 72.90625 
L 51.703125 72.90625 
L 51.703125 64.59375 
L 19.671875 64.59375 
L 19.671875 43.109375 
L 48.578125 43.109375 
L 48.578125 34.8125 
L 19.671875 34.8125 
L 19.671875 0 
L 9.8125 0 
z
" id="DejaVuSans-70"/>
     <path d="M -0.296875 72.90625 
L 61.375 72.90625 
L 61.375 64.59375 
L 35.5 64.59375 
L 35.5 0 
L 25.59375 0 
L 25.59375 64.59375 
L -0.296875 64.59375 
z
" id="DejaVuSans-84"/>
    </defs>
    <g transform="translate(361.8625 139.023438)scale(0.1 -0.1)">
     <use xlink:href="#DejaVuSans-70"/>
     <use x="57.519531" xlink:href="#DejaVuSans-73"/>
     <use x="87.011719" xlink:href="#DejaVuSans-84"/>
     <use x="148.095703" xlink:href="#DejaVuSans-32"/>
     <use x="179.882812" xlink:href="#DejaVuSans-40"/>
     <use x="218.896484" xlink:href="#DejaVuSans-51"/>
     <use x="282.519531" xlink:href="#DejaVuSans-48"/>
     <use x="346.142578" xlink:href="#DejaVuSans-41"/>
    </g>
   </g>
   <g id="line2d_71">
    <path d="M 333.8625 150.201562 
L 353.8625 150.201562 
" style="fill:none;stroke:#1b9e77;stroke-dasharray:4.5,1.5;stroke-dashoffset:0;stroke-width:1.5;"/>
   </g>
   <g id="line2d_72"/>
   <g id="text_33">
    <!-- TBI (27) -->
    <defs>
     <path d="M 19.671875 34.8125 
L 19.671875 8.109375 
L 35.5 8.109375 
Q 43.453125 8.109375 47.28125 11.40625 
Q 51.125 14.703125 51.125 21.484375 
Q 51.125 28.328125 47.28125 31.5625 
Q 43.453125 34.8125 35.5 34.8125 
z
M 19.671875 64.796875 
L 19.671875 42.828125 
L 34.28125 42.828125 
Q 41.5 42.828125 45.03125 45.53125 
Q 48.578125 48.25 48.578125 53.8125 
Q 48.578125 59.328125 45.03125 62.0625 
Q 41.5 64.796875 34.28125 64.796875 
z
M 9.8125 72.90625 
L 35.015625 72.90625 
Q 46.296875 72.90625 52.390625 68.21875 
Q 58.5 63.53125 58.5 54.890625 
Q 58.5 48.1875 55.375 44.234375 
Q 52.25 40.28125 46.1875 39.3125 
Q 53.46875 37.75 57.5 32.78125 
Q 61.53125 27.828125 61.53125 20.40625 
Q 61.53125 10.640625 54.890625 5.3125 
Q 48.25 0 35.984375 0 
L 9.8125 0 
z
" id="DejaVuSans-66"/>
     <path d="M 8.203125 72.90625 
L 55.078125 72.90625 
L 55.078125 68.703125 
L 28.609375 0 
L 18.3125 0 
L 43.21875 64.59375 
L 8.203125 64.59375 
z
" id="DejaVuSans-55"/>
    </defs>
    <g transform="translate(361.8625 153.701562)scale(0.1 -0.1)">
     <use xlink:href="#DejaVuSans-84"/>
     <use x="61.083984" xlink:href="#DejaVuSans-66"/>
     <use x="129.6875" xlink:href="#DejaVuSans-73"/>
     <use x="159.179688" xlink:href="#DejaVuSans-32"/>
     <use x="190.966797" xlink:href="#DejaVuSans-40"/>
     <use x="229.980469" xlink:href="#DejaVuSans-50"/>
     <use x="293.603516" xlink:href="#DejaVuSans-55"/>
     <use x="357.226562" xlink:href="#DejaVuSans-41"/>
    </g>
   </g>
   <g id="line2d_73">
    <path d="M 333.8625 164.879687 
L 353.8625 164.879687 
" style="fill:none;stroke:#d95f02;stroke-dasharray:4.5,1.5;stroke-dashoffset:0;stroke-width:1.5;"/>
   </g>
   <g id="line2d_74"/>
   <g id="text_34">
    <!-- CB (26) -->
    <g transform="translate(361.8625 168.379687)scale(0.1 -0.1)">
     <use xlink:href="#DejaVuSans-67"/>
     <use x="69.824219" xlink:href="#DejaVuSans-66"/>
     <use x="138.427734" xlink:href="#DejaVuSans-32"/>
     <use x="170.214844" xlink:href="#DejaVuSans-40"/>
     <use x="209.228516" xlink:href="#DejaVuSans-50"/>
     <use x="272.851562" xlink:href="#DejaVuSans-54"/>
     <use x="336.474609" xlink:href="#DejaVuSans-41"/>
    </g>
   </g>
   <g id="line2d_75">
    <path d="M 333.8625 179.557812 
L 353.8625 179.557812 
" style="fill:none;stroke:#7570b3;stroke-dasharray:4.5,1.5;stroke-dashoffset:0;stroke-width:1.5;"/>
   </g>
   <g id="line2d_76"/>
   <g id="text_35">
    <!-- BP (26) -->
    <g transform="translate(361.8625 183.057812)scale(0.1 -0.1)">
     <use xlink:href="#DejaVuSans-66"/>
     <use x="68.603516" xlink:href="#DejaVuSans-80"/>
     <use x="128.90625" xlink:href="#DejaVuSans-32"/>
     <use x="160.693359" xlink:href="#DejaVuSans-40"/>
     <use x="199.707031" xlink:href="#DejaVuSans-50"/>
     <use x="263.330078" xlink:href="#DejaVuSans-54"/>
     <use x="326.953125" xlink:href="#DejaVuSans-41"/>
    </g>
   </g>
   <g id="line2d_77">
    <path d="M 333.8625 194.235937 
L 353.8625 194.235937 
" style="fill:none;stroke:#e7298a;stroke-dasharray:4.5,1.5;stroke-dashoffset:0;stroke-width:1.5;"/>
   </g>
   <g id="line2d_78"/>
   <g id="text_36">
    <!-- SPD (25) -->
    <g transform="translate(361.8625 197.735937)scale(0.1 -0.1)">
     <use xlink:href="#DejaVuSans-83"/>
     <use x="63.476562" xlink:href="#DejaVuSans-80"/>
     <use x="123.779297" xlink:href="#DejaVuSans-68"/>
     <use x="200.78125" xlink:href="#DejaVuSans-32"/>
     <use x="232.568359" xlink:href="#DejaVuSans-40"/>
     <use x="271.582031" xlink:href="#DejaVuSans-50"/>
     <use x="335.205078" xlink:href="#DejaVuSans-53"/>
     <use x="398.828125" xlink:href="#DejaVuSans-41"/>
    </g>
   </g>
   <g id="line2d_79">
    <path d="M 333.8625 208.914062 
L 353.8625 208.914062 
" style="fill:none;stroke:#66a61e;stroke-dasharray:4.5,1.5;stroke-dashoffset:0;stroke-width:1.5;"/>
   </g>
   <g id="line2d_80"/>
   <g id="text_37">
    <!-- CC (25) -->
    <g transform="translate(361.8625 212.414062)scale(0.1 -0.1)">
     <use xlink:href="#DejaVuSans-67"/>
     <use x="69.824219" xlink:href="#DejaVuSans-67"/>
     <use x="139.648438" xlink:href="#DejaVuSans-32"/>
     <use x="171.435547" xlink:href="#DejaVuSans-40"/>
     <use x="210.449219" xlink:href="#DejaVuSans-50"/>
     <use x="274.072266" xlink:href="#DejaVuSans-53"/>
     <use x="337.695312" xlink:href="#DejaVuSans-41"/>
    </g>
   </g>
   <g id="line2d_81">
    <path d="M 333.8625 223.592187 
L 353.8625 223.592187 
" style="fill:none;stroke:#e6ab02;stroke-dasharray:4.5,1.5;stroke-dashoffset:0;stroke-width:1.5;"/>
   </g>
   <g id="line2d_82"/>
   <g id="text_38">
    <!-- RJPH (24) -->
    <defs>
     <path d="M 9.8125 72.90625 
L 19.671875 72.90625 
L 19.671875 5.078125 
Q 19.671875 -8.109375 14.671875 -14.0625 
Q 9.671875 -20.015625 -1.421875 -20.015625 
L -5.171875 -20.015625 
L -5.171875 -11.71875 
L -2.09375 -11.71875 
Q 4.4375 -11.71875 7.125 -8.046875 
Q 9.8125 -4.390625 9.8125 5.078125 
z
" id="DejaVuSans-74"/>
    </defs>
    <g transform="translate(361.8625 227.092187)scale(0.1 -0.1)">
     <use xlink:href="#DejaVuSans-82"/>
     <use x="69.482422" xlink:href="#DejaVuSans-74"/>
     <use x="98.974609" xlink:href="#DejaVuSans-80"/>
     <use x="159.277344" xlink:href="#DejaVuSans-72"/>
     <use x="234.472656" xlink:href="#DejaVuSans-32"/>
     <use x="266.259766" xlink:href="#DejaVuSans-40"/>
     <use x="305.273438" xlink:href="#DejaVuSans-50"/>
     <use x="368.896484" xlink:href="#DejaVuSans-52"/>
     <use x="432.519531" xlink:href="#DejaVuSans-41"/>
    </g>
   </g>
   <g id="line2d_83">
    <path d="M 333.8625 238.270312 
L 353.8625 238.270312 
" style="fill:none;stroke:#a6761d;stroke-dasharray:4.5,1.5;stroke-dashoffset:0;stroke-width:1.5;"/>
   </g>
   <g id="line2d_84"/>
   <g id="text_39">
    <!-- AHR-H (20) -->
    <g transform="translate(361.8625 241.770312)scale(0.1 -0.1)">
     <use xlink:href="#DejaVuSans-65"/>
     <use x="68.408203" xlink:href="#DejaVuSans-72"/>
     <use x="143.603516" xlink:href="#DejaVuSans-82"/>
     <use x="213.023438" xlink:href="#DejaVuSans-45"/>
     <use x="249.107422" xlink:href="#DejaVuSans-72"/>
     <use x="324.302734" xlink:href="#DejaVuSans-32"/>
     <use x="356.089844" xlink:href="#DejaVuSans-40"/>
     <use x="395.103516" xlink:href="#DejaVuSans-50"/>
     <use x="458.726562" xlink:href="#DejaVuSans-48"/>
     <use x="522.349609" xlink:href="#DejaVuSans-41"/>
    </g>
   </g>
   <g id="line2d_85">
    <path d="M 333.8625 252.948437 
L 353.8625 252.948437 
" style="fill:none;stroke:#666666;stroke-dasharray:4.5,1.5;stroke-dashoffset:0;stroke-width:1.5;"/>
   </g>
   <g id="line2d_86"/>
   <g id="text_40">
    <!-- AHR-A (19) -->
    <g transform="translate(361.8625 256.448437)scale(0.1 -0.1)">
     <use xlink:href="#DejaVuSans-65"/>
     <use x="68.408203" xlink:href="#DejaVuSans-72"/>
     <use x="143.603516" xlink:href="#DejaVuSans-82"/>
     <use x="213.023438" xlink:href="#DejaVuSans-45"/>
     <use x="249.076172" xlink:href="#DejaVuSans-65"/>
     <use x="317.484375" xlink:href="#DejaVuSans-32"/>
     <use x="349.271484" xlink:href="#DejaVuSans-40"/>
     <use x="388.285156" xlink:href="#DejaVuSans-49"/>
     <use x="451.908203" xlink:href="#DejaVuSans-57"/>
     <use x="515.53125" xlink:href="#DejaVuSans-41"/>
    </g>
   </g>
  </g>
 </g>
 <defs>
  <clipPath id="pc44ea76dba">
   <rect height="207.330771" width="271.81" x="43.55" y="12.9"/>
  </clipPath>
 </defs>
</svg>
