<?xml version="1.0" encoding="utf-8" standalone="no"?>
<!DOCTYPE svg PUBLIC "-//W3C//DTD SVG 1.1//EN"
  "http://www.w3.org/Graphics/SVG/1.1/DTD/svg11.dtd">
<!-- Created with matplotlib (https://matplotlib.org/) -->
<svg height="288pt" version="1.1" viewBox="0 0 432 288" width="432pt" xmlns="http://www.w3.org/2000/svg" xmlns:xlink="http://www.w3.org/1999/xlink">
 <defs>
  <style type="text/css">
*{stroke-linecap:butt;stroke-linejoin:round;}
  </style>
 </defs>
 <g id="figure_1">
  <g id="patch_1">
   <path d="M 0 288 
L 432 288 
L 432 0 
L 0 0 
z
" style="fill:#ffffff;"/>
  </g>
  <g id="axes_1">
   <g id="patch_2">
    <path d="M 43.55 220.230771 
L 315.36 220.230771 
L 315.36 12.9 
L 43.55 12.9 
z
" style="fill:#ffffff;"/>
   </g>
   <g id="matplotlib.axis_1">
    <g id="xtick_1">
     <g id="line2d_1">
      <defs>
       <path d="M 0 0 
L 0 3.5 
" id="m3ffd367e57" style="stroke:#000000;stroke-width:0.8;"/>
      </defs>
      <g>
       <use style="stroke:#000000;stroke-width:0.8;" x="45.560497" xlink:href="#m3ffd367e57" y="220.230771"/>
      </g>
     </g>
     <g id="text_1">
      <!-- 2020-11-29 -->
      <defs>
       <path d="M 19.1875 8.296875 
L 53.609375 8.296875 
L 53.609375 0 
L 7.328125 0 
L 7.328125 8.296875 
Q 12.9375 14.109375 22.625 23.890625 
Q 32.328125 33.6875 34.8125 36.53125 
Q 39.546875 41.84375 41.421875 45.53125 
Q 43.3125 49.21875 43.3125 52.78125 
Q 43.3125 58.59375 39.234375 62.25 
Q 35.15625 65.921875 28.609375 65.921875 
Q 23.96875 65.921875 18.8125 64.3125 
Q 13.671875 62.703125 7.8125 59.421875 
L 7.8125 69.390625 
Q 13.765625 71.78125 18.9375 73 
Q 24.125 74.21875 28.421875 74.21875 
Q 39.75 74.21875 46.484375 68.546875 
Q 53.21875 62.890625 53.21875 53.421875 
Q 53.21875 48.921875 51.53125 44.890625 
Q 49.859375 40.875 45.40625 35.40625 
Q 44.1875 33.984375 37.640625 27.21875 
Q 31.109375 20.453125 19.1875 8.296875 
z
" id="DejaVuSans-50"/>
       <path d="M 31.78125 66.40625 
Q 24.171875 66.40625 20.328125 58.90625 
Q 16.5 51.421875 16.5 36.375 
Q 16.5 21.390625 20.328125 13.890625 
Q 24.171875 6.390625 31.78125 6.390625 
Q 39.453125 6.390625 43.28125 13.890625 
Q 47.125 21.390625 47.125 36.375 
Q 47.125 51.421875 43.28125 58.90625 
Q 39.453125 66.40625 31.78125 66.40625 
z
M 31.78125 74.21875 
Q 44.046875 74.21875 50.515625 64.515625 
Q 56.984375 54.828125 56.984375 36.375 
Q 56.984375 17.96875 50.515625 8.265625 
Q 44.046875 -1.421875 31.78125 -1.421875 
Q 19.53125 -1.421875 13.0625 8.265625 
Q 6.59375 17.96875 6.59375 36.375 
Q 6.59375 54.828125 13.0625 64.515625 
Q 19.53125 74.21875 31.78125 74.21875 
z
" id="DejaVuSans-48"/>
       <path d="M 4.890625 31.390625 
L 31.203125 31.390625 
L 31.203125 23.390625 
L 4.890625 23.390625 
z
" id="DejaVuSans-45"/>
       <path d="M 12.40625 8.296875 
L 28.515625 8.296875 
L 28.515625 63.921875 
L 10.984375 60.40625 
L 10.984375 69.390625 
L 28.421875 72.90625 
L 38.28125 72.90625 
L 38.28125 8.296875 
L 54.390625 8.296875 
L 54.390625 0 
L 12.40625 0 
z
" id="DejaVuSans-49"/>
       <path d="M 10.984375 1.515625 
L 10.984375 10.5 
Q 14.703125 8.734375 18.5 7.8125 
Q 22.3125 6.890625 25.984375 6.890625 
Q 35.75 6.890625 40.890625 13.453125 
Q 46.046875 20.015625 46.78125 33.40625 
Q 43.953125 29.203125 39.59375 26.953125 
Q 35.25 24.703125 29.984375 24.703125 
Q 19.046875 24.703125 12.671875 31.3125 
Q 6.296875 37.9375 6.296875 49.421875 
Q 6.296875 60.640625 12.9375 67.421875 
Q 19.578125 74.21875 30.609375 74.21875 
Q 43.265625 74.21875 49.921875 64.515625 
Q 56.59375 54.828125 56.59375 36.375 
Q 56.59375 19.140625 48.40625 8.859375 
Q 40.234375 -1.421875 26.421875 -1.421875 
Q 22.703125 -1.421875 18.890625 -0.6875 
Q 15.09375 0.046875 10.984375 1.515625 
z
M 30.609375 32.421875 
Q 37.25 32.421875 41.125 36.953125 
Q 45.015625 41.5 45.015625 49.421875 
Q 45.015625 57.28125 41.125 61.84375 
Q 37.25 66.40625 30.609375 66.40625 
Q 23.96875 66.40625 20.09375 61.84375 
Q 16.21875 57.28125 16.21875 49.421875 
Q 16.21875 41.5 20.09375 36.953125 
Q 23.96875 32.421875 30.609375 32.421875 
z
" id="DejaVuSans-57"/>
      </defs>
      <g transform="translate(21.77538 262.869024)rotate(-30)scale(0.1 -0.1)">
       <use xlink:href="#DejaVuSans-50"/>
       <use x="63.623047" xlink:href="#DejaVuSans-48"/>
       <use x="127.246094" xlink:href="#DejaVuSans-50"/>
       <use x="190.869141" xlink:href="#DejaVuSans-48"/>
       <use x="254.492188" xlink:href="#DejaVuSans-45"/>
       <use x="290.576172" xlink:href="#DejaVuSans-49"/>
       <use x="354.199219" xlink:href="#DejaVuSans-49"/>
       <use x="417.822266" xlink:href="#DejaVuSans-45"/>
       <use x="453.90625" xlink:href="#DejaVuSans-50"/>
       <use x="517.529297" xlink:href="#DejaVuSans-57"/>
      </g>
     </g>
    </g>
    <g id="xtick_2">
     <g id="line2d_2">
      <g>
       <use style="stroke:#000000;stroke-width:0.8;" x="59.846398" xlink:href="#m3ffd367e57" y="220.230771"/>
      </g>
     </g>
     <g id="text_2">
      <!-- 2020-12-01 -->
      <g transform="translate(36.061282 262.869024)rotate(-30)scale(0.1 -0.1)">
       <use xlink:href="#DejaVuSans-50"/>
       <use x="63.623047" xlink:href="#DejaVuSans-48"/>
       <use x="127.246094" xlink:href="#DejaVuSans-50"/>
       <use x="190.869141" xlink:href="#DejaVuSans-48"/>
       <use x="254.492188" xlink:href="#DejaVuSans-45"/>
       <use x="290.576172" xlink:href="#DejaVuSans-49"/>
       <use x="354.199219" xlink:href="#DejaVuSans-50"/>
       <use x="417.822266" xlink:href="#DejaVuSans-45"/>
       <use x="453.90625" xlink:href="#DejaVuSans-48"/>
       <use x="517.529297" xlink:href="#DejaVuSans-49"/>
      </g>
     </g>
    </g>
    <g id="xtick_3">
     <g id="line2d_3">
      <g>
       <use style="stroke:#000000;stroke-width:0.8;" x="88.418201" xlink:href="#m3ffd367e57" y="220.230771"/>
      </g>
     </g>
     <g id="text_3">
      <!-- 2020-12-05 -->
      <defs>
       <path d="M 10.796875 72.90625 
L 49.515625 72.90625 
L 49.515625 64.59375 
L 19.828125 64.59375 
L 19.828125 46.734375 
Q 21.96875 47.46875 24.109375 47.828125 
Q 26.265625 48.1875 28.421875 48.1875 
Q 40.625 48.1875 47.75 41.5 
Q 54.890625 34.8125 54.890625 23.390625 
Q 54.890625 11.625 47.5625 5.09375 
Q 40.234375 -1.421875 26.90625 -1.421875 
Q 22.3125 -1.421875 17.546875 -0.640625 
Q 12.796875 0.140625 7.71875 1.703125 
L 7.71875 11.625 
Q 12.109375 9.234375 16.796875 8.0625 
Q 21.484375 6.890625 26.703125 6.890625 
Q 35.15625 6.890625 40.078125 11.328125 
Q 45.015625 15.765625 45.015625 23.390625 
Q 45.015625 31 40.078125 35.4375 
Q 35.15625 39.890625 26.703125 39.890625 
Q 22.75 39.890625 18.8125 39.015625 
Q 14.890625 38.140625 10.796875 36.28125 
z
" id="DejaVuSans-53"/>
      </defs>
      <g transform="translate(64.633085 262.869024)rotate(-30)scale(0.1 -0.1)">
       <use xlink:href="#DejaVuSans-50"/>
       <use x="63.623047" xlink:href="#DejaVuSans-48"/>
       <use x="127.246094" xlink:href="#DejaVuSans-50"/>
       <use x="190.869141" xlink:href="#DejaVuSans-48"/>
       <use x="254.492188" xlink:href="#DejaVuSans-45"/>
       <use x="290.576172" xlink:href="#DejaVuSans-49"/>
       <use x="354.199219" xlink:href="#DejaVuSans-50"/>
       <use x="417.822266" xlink:href="#DejaVuSans-45"/>
       <use x="453.90625" xlink:href="#DejaVuSans-48"/>
       <use x="517.529297" xlink:href="#DejaVuSans-53"/>
      </g>
     </g>
    </g>
    <g id="xtick_4">
     <g id="line2d_4">
      <g>
       <use style="stroke:#000000;stroke-width:0.8;" x="116.990004" xlink:href="#m3ffd367e57" y="220.230771"/>
      </g>
     </g>
     <g id="text_4">
      <!-- 2020-12-09 -->
      <g transform="translate(93.204888 262.869024)rotate(-30)scale(0.1 -0.1)">
       <use xlink:href="#DejaVuSans-50"/>
       <use x="63.623047" xlink:href="#DejaVuSans-48"/>
       <use x="127.246094" xlink:href="#DejaVuSans-50"/>
       <use x="190.869141" xlink:href="#DejaVuSans-48"/>
       <use x="254.492188" xlink:href="#DejaVuSans-45"/>
       <use x="290.576172" xlink:href="#DejaVuSans-49"/>
       <use x="354.199219" xlink:href="#DejaVuSans-50"/>
       <use x="417.822266" xlink:href="#DejaVuSans-45"/>
       <use x="453.90625" xlink:href="#DejaVuSans-48"/>
       <use x="517.529297" xlink:href="#DejaVuSans-57"/>
      </g>
     </g>
    </g>
    <g id="xtick_5">
     <g id="line2d_5">
      <g>
       <use style="stroke:#000000;stroke-width:0.8;" x="145.561807" xlink:href="#m3ffd367e57" y="220.230771"/>
      </g>
     </g>
     <g id="text_5">
      <!-- 2020-12-13 -->
      <defs>
       <path d="M 40.578125 39.3125 
Q 47.65625 37.796875 51.625 33 
Q 55.609375 28.21875 55.609375 21.1875 
Q 55.609375 10.40625 48.1875 4.484375 
Q 40.765625 -1.421875 27.09375 -1.421875 
Q 22.515625 -1.421875 17.65625 -0.515625 
Q 12.796875 0.390625 7.625 2.203125 
L 7.625 11.71875 
Q 11.71875 9.328125 16.59375 8.109375 
Q 21.484375 6.890625 26.8125 6.890625 
Q 36.078125 6.890625 40.9375 10.546875 
Q 45.796875 14.203125 45.796875 21.1875 
Q 45.796875 27.640625 41.28125 31.265625 
Q 36.765625 34.90625 28.71875 34.90625 
L 20.21875 34.90625 
L 20.21875 43.015625 
L 29.109375 43.015625 
Q 36.375 43.015625 40.234375 45.921875 
Q 44.09375 48.828125 44.09375 54.296875 
Q 44.09375 59.90625 40.109375 62.90625 
Q 36.140625 65.921875 28.71875 65.921875 
Q 24.65625 65.921875 20.015625 65.03125 
Q 15.375 64.15625 9.8125 62.3125 
L 9.8125 71.09375 
Q 15.4375 72.65625 20.34375 73.4375 
Q 25.25 74.21875 29.59375 74.21875 
Q 40.828125 74.21875 47.359375 69.109375 
Q 53.90625 64.015625 53.90625 55.328125 
Q 53.90625 49.265625 50.4375 45.09375 
Q 46.96875 40.921875 40.578125 39.3125 
z
" id="DejaVuSans-51"/>
      </defs>
      <g transform="translate(121.776691 262.869024)rotate(-30)scale(0.1 -0.1)">
       <use xlink:href="#DejaVuSans-50"/>
       <use x="63.623047" xlink:href="#DejaVuSans-48"/>
       <use x="127.246094" xlink:href="#DejaVuSans-50"/>
       <use x="190.869141" xlink:href="#DejaVuSans-48"/>
       <use x="254.492188" xlink:href="#DejaVuSans-45"/>
       <use x="290.576172" xlink:href="#DejaVuSans-49"/>
       <use x="354.199219" xlink:href="#DejaVuSans-50"/>
       <use x="417.822266" xlink:href="#DejaVuSans-45"/>
       <use x="453.90625" xlink:href="#DejaVuSans-49"/>
       <use x="517.529297" xlink:href="#DejaVuSans-51"/>
      </g>
     </g>
    </g>
    <g id="xtick_6">
     <g id="line2d_6">
      <g>
       <use style="stroke:#000000;stroke-width:0.8;" x="174.13361" xlink:href="#m3ffd367e57" y="220.230771"/>
      </g>
     </g>
     <g id="text_6">
      <!-- 2020-12-17 -->
      <defs>
       <path d="M 8.203125 72.90625 
L 55.078125 72.90625 
L 55.078125 68.703125 
L 28.609375 0 
L 18.3125 0 
L 43.21875 64.59375 
L 8.203125 64.59375 
z
" id="DejaVuSans-55"/>
      </defs>
      <g transform="translate(150.348494 262.869024)rotate(-30)scale(0.1 -0.1)">
       <use xlink:href="#DejaVuSans-50"/>
       <use x="63.623047" xlink:href="#DejaVuSans-48"/>
       <use x="127.246094" xlink:href="#DejaVuSans-50"/>
       <use x="190.869141" xlink:href="#DejaVuSans-48"/>
       <use x="254.492188" xlink:href="#DejaVuSans-45"/>
       <use x="290.576172" xlink:href="#DejaVuSans-49"/>
       <use x="354.199219" xlink:href="#DejaVuSans-50"/>
       <use x="417.822266" xlink:href="#DejaVuSans-45"/>
       <use x="453.90625" xlink:href="#DejaVuSans-49"/>
       <use x="517.529297" xlink:href="#DejaVuSans-55"/>
      </g>
     </g>
    </g>
    <g id="xtick_7">
     <g id="line2d_7">
      <g>
       <use style="stroke:#000000;stroke-width:0.8;" x="202.705413" xlink:href="#m3ffd367e57" y="220.230771"/>
      </g>
     </g>
     <g id="text_7">
      <!-- 2020-12-21 -->
      <g transform="translate(178.920297 262.869024)rotate(-30)scale(0.1 -0.1)">
       <use xlink:href="#DejaVuSans-50"/>
       <use x="63.623047" xlink:href="#DejaVuSans-48"/>
       <use x="127.246094" xlink:href="#DejaVuSans-50"/>
       <use x="190.869141" xlink:href="#DejaVuSans-48"/>
       <use x="254.492188" xlink:href="#DejaVuSans-45"/>
       <use x="290.576172" xlink:href="#DejaVuSans-49"/>
       <use x="354.199219" xlink:href="#DejaVuSans-50"/>
       <use x="417.822266" xlink:href="#DejaVuSans-45"/>
       <use x="453.90625" xlink:href="#DejaVuSans-50"/>
       <use x="517.529297" xlink:href="#DejaVuSans-49"/>
      </g>
     </g>
    </g>
    <g id="xtick_8">
     <g id="line2d_8">
      <g>
       <use style="stroke:#000000;stroke-width:0.8;" x="231.277216" xlink:href="#m3ffd367e57" y="220.230771"/>
      </g>
     </g>
     <g id="text_8">
      <!-- 2020-12-25 -->
      <g transform="translate(207.4921 262.869024)rotate(-30)scale(0.1 -0.1)">
       <use xlink:href="#DejaVuSans-50"/>
       <use x="63.623047" xlink:href="#DejaVuSans-48"/>
       <use x="127.246094" xlink:href="#DejaVuSans-50"/>
       <use x="190.869141" xlink:href="#DejaVuSans-48"/>
       <use x="254.492188" xlink:href="#DejaVuSans-45"/>
       <use x="290.576172" xlink:href="#DejaVuSans-49"/>
       <use x="354.199219" xlink:href="#DejaVuSans-50"/>
       <use x="417.822266" xlink:href="#DejaVuSans-45"/>
       <use x="453.90625" xlink:href="#DejaVuSans-50"/>
       <use x="517.529297" xlink:href="#DejaVuSans-53"/>
      </g>
     </g>
    </g>
    <g id="xtick_9">
     <g id="line2d_9">
      <g>
       <use style="stroke:#000000;stroke-width:0.8;" x="259.849019" xlink:href="#m3ffd367e57" y="220.230771"/>
      </g>
     </g>
     <g id="text_9">
      <!-- 2020-12-29 -->
      <g transform="translate(236.063903 262.869024)rotate(-30)scale(0.1 -0.1)">
       <use xlink:href="#DejaVuSans-50"/>
       <use x="63.623047" xlink:href="#DejaVuSans-48"/>
       <use x="127.246094" xlink:href="#DejaVuSans-50"/>
       <use x="190.869141" xlink:href="#DejaVuSans-48"/>
       <use x="254.492188" xlink:href="#DejaVuSans-45"/>
       <use x="290.576172" xlink:href="#DejaVuSans-49"/>
       <use x="354.199219" xlink:href="#DejaVuSans-50"/>
       <use x="417.822266" xlink:href="#DejaVuSans-45"/>
       <use x="453.90625" xlink:href="#DejaVuSans-50"/>
       <use x="517.529297" xlink:href="#DejaVuSans-57"/>
      </g>
     </g>
    </g>
    <g id="xtick_10">
     <g id="line2d_10">
      <g>
       <use style="stroke:#000000;stroke-width:0.8;" x="281.277872" xlink:href="#m3ffd367e57" y="220.230771"/>
      </g>
     </g>
     <g id="text_10">
      <!-- 2021-01-01 -->
      <g transform="translate(257.492755 262.869024)rotate(-30)scale(0.1 -0.1)">
       <use xlink:href="#DejaVuSans-50"/>
       <use x="63.623047" xlink:href="#DejaVuSans-48"/>
       <use x="127.246094" xlink:href="#DejaVuSans-50"/>
       <use x="190.869141" xlink:href="#DejaVuSans-49"/>
       <use x="254.492188" xlink:href="#DejaVuSans-45"/>
       <use x="290.576172" xlink:href="#DejaVuSans-48"/>
       <use x="354.199219" xlink:href="#DejaVuSans-49"/>
       <use x="417.822266" xlink:href="#DejaVuSans-45"/>
       <use x="453.90625" xlink:href="#DejaVuSans-48"/>
       <use x="517.529297" xlink:href="#DejaVuSans-49"/>
      </g>
     </g>
    </g>
    <g id="xtick_11">
     <g id="line2d_11">
      <g>
       <use style="stroke:#000000;stroke-width:0.8;" x="309.849675" xlink:href="#m3ffd367e57" y="220.230771"/>
      </g>
     </g>
     <g id="text_11">
      <!-- 2021-01-05 -->
      <g transform="translate(286.064558 262.869024)rotate(-30)scale(0.1 -0.1)">
       <use xlink:href="#DejaVuSans-50"/>
       <use x="63.623047" xlink:href="#DejaVuSans-48"/>
       <use x="127.246094" xlink:href="#DejaVuSans-50"/>
       <use x="190.869141" xlink:href="#DejaVuSans-49"/>
       <use x="254.492188" xlink:href="#DejaVuSans-45"/>
       <use x="290.576172" xlink:href="#DejaVuSans-48"/>
       <use x="354.199219" xlink:href="#DejaVuSans-49"/>
       <use x="417.822266" xlink:href="#DejaVuSans-45"/>
       <use x="453.90625" xlink:href="#DejaVuSans-48"/>
       <use x="517.529297" xlink:href="#DejaVuSans-53"/>
      </g>
     </g>
    </g>
    <g id="text_12">
     <!-- Date -->
     <defs>
      <path d="M 19.671875 64.796875 
L 19.671875 8.109375 
L 31.59375 8.109375 
Q 46.6875 8.109375 53.6875 14.9375 
Q 60.6875 21.78125 60.6875 36.53125 
Q 60.6875 51.171875 53.6875 57.984375 
Q 46.6875 64.796875 31.59375 64.796875 
z
M 9.8125 72.90625 
L 30.078125 72.90625 
Q 51.265625 72.90625 61.171875 64.09375 
Q 71.09375 55.28125 71.09375 36.53125 
Q 71.09375 17.671875 61.125 8.828125 
Q 51.171875 0 30.078125 0 
L 9.8125 0 
z
" id="DejaVuSans-68"/>
      <path d="M 34.28125 27.484375 
Q 23.390625 27.484375 19.1875 25 
Q 14.984375 22.515625 14.984375 16.5 
Q 14.984375 11.71875 18.140625 8.90625 
Q 21.296875 6.109375 26.703125 6.109375 
Q 34.1875 6.109375 38.703125 11.40625 
Q 43.21875 16.703125 43.21875 25.484375 
L 43.21875 27.484375 
z
M 52.203125 31.203125 
L 52.203125 0 
L 43.21875 0 
L 43.21875 8.296875 
Q 40.140625 3.328125 35.546875 0.953125 
Q 30.953125 -1.421875 24.3125 -1.421875 
Q 15.921875 -1.421875 10.953125 3.296875 
Q 6 8.015625 6 15.921875 
Q 6 25.140625 12.171875 29.828125 
Q 18.359375 34.515625 30.609375 34.515625 
L 43.21875 34.515625 
L 43.21875 35.40625 
Q 43.21875 41.609375 39.140625 45 
Q 35.0625 48.390625 27.6875 48.390625 
Q 23 48.390625 18.546875 47.265625 
Q 14.109375 46.140625 10.015625 43.890625 
L 10.015625 52.203125 
Q 14.9375 54.109375 19.578125 55.046875 
Q 24.21875 56 28.609375 56 
Q 40.484375 56 46.34375 49.84375 
Q 52.203125 43.703125 52.203125 31.203125 
z
" id="DejaVuSans-97"/>
      <path d="M 18.3125 70.21875 
L 18.3125 54.6875 
L 36.8125 54.6875 
L 36.8125 47.703125 
L 18.3125 47.703125 
L 18.3125 18.015625 
Q 18.3125 11.328125 20.140625 9.421875 
Q 21.96875 7.515625 27.59375 7.515625 
L 36.8125 7.515625 
L 36.8125 0 
L 27.59375 0 
Q 17.1875 0 13.234375 3.875 
Q 9.28125 7.765625 9.28125 18.015625 
L 9.28125 47.703125 
L 2.6875 47.703125 
L 2.6875 54.6875 
L 9.28125 54.6875 
L 9.28125 70.21875 
z
" id="DejaVuSans-116"/>
      <path d="M 56.203125 29.59375 
L 56.203125 25.203125 
L 14.890625 25.203125 
Q 15.484375 15.921875 20.484375 11.0625 
Q 25.484375 6.203125 34.421875 6.203125 
Q 39.59375 6.203125 44.453125 7.46875 
Q 49.3125 8.734375 54.109375 11.28125 
L 54.109375 2.78125 
Q 49.265625 0.734375 44.1875 -0.34375 
Q 39.109375 -1.421875 33.890625 -1.421875 
Q 20.796875 -1.421875 13.15625 6.1875 
Q 5.515625 13.8125 5.515625 26.8125 
Q 5.515625 40.234375 12.765625 48.109375 
Q 20.015625 56 32.328125 56 
Q 43.359375 56 49.78125 48.890625 
Q 56.203125 41.796875 56.203125 29.59375 
z
M 47.21875 32.234375 
Q 47.125 39.59375 43.09375 43.984375 
Q 39.0625 48.390625 32.421875 48.390625 
Q 24.90625 48.390625 20.390625 44.140625 
Q 15.875 39.890625 15.1875 32.171875 
z
" id="DejaVuSans-101"/>
     </defs>
     <g transform="translate(167.504219 276.268523)scale(0.1 -0.1)">
      <use xlink:href="#DejaVuSans-68"/>
      <use x="77.001953" xlink:href="#DejaVuSans-97"/>
      <use x="138.28125" xlink:href="#DejaVuSans-116"/>
      <use x="177.490234" xlink:href="#DejaVuSans-101"/>
     </g>
    </g>
   </g>
   <g id="matplotlib.axis_2">
    <g id="ytick_1">
     <g id="line2d_12">
      <defs>
       <path d="M 0 0 
L -3.5 0 
" id="me12fc22f71" style="stroke:#000000;stroke-width:0.8;"/>
      </defs>
      <g>
       <use style="stroke:#000000;stroke-width:0.8;" x="43.55" xlink:href="#me12fc22f71" y="210.806645"/>
      </g>
     </g>
     <g id="text_13">
      <!-- 0 -->
      <g transform="translate(30.1875 214.605864)scale(0.1 -0.1)">
       <use xlink:href="#DejaVuSans-48"/>
      </g>
     </g>
    </g>
    <g id="ytick_2">
     <g id="line2d_13">
      <g>
       <use style="stroke:#000000;stroke-width:0.8;" x="43.55" xlink:href="#me12fc22f71" y="187.24633"/>
      </g>
     </g>
     <g id="text_14">
      <!-- 5 -->
      <g transform="translate(30.1875 191.045549)scale(0.1 -0.1)">
       <use xlink:href="#DejaVuSans-53"/>
      </g>
     </g>
    </g>
    <g id="ytick_3">
     <g id="line2d_14">
      <g>
       <use style="stroke:#000000;stroke-width:0.8;" x="43.55" xlink:href="#me12fc22f71" y="163.686016"/>
      </g>
     </g>
     <g id="text_15">
      <!-- 10 -->
      <g transform="translate(23.825 167.485234)scale(0.1 -0.1)">
       <use xlink:href="#DejaVuSans-49"/>
       <use x="63.623047" xlink:href="#DejaVuSans-48"/>
      </g>
     </g>
    </g>
    <g id="ytick_4">
     <g id="line2d_15">
      <g>
       <use style="stroke:#000000;stroke-width:0.8;" x="43.55" xlink:href="#me12fc22f71" y="140.125701"/>
      </g>
     </g>
     <g id="text_16">
      <!-- 15 -->
      <g transform="translate(23.825 143.924919)scale(0.1 -0.1)">
       <use xlink:href="#DejaVuSans-49"/>
       <use x="63.623047" xlink:href="#DejaVuSans-53"/>
      </g>
     </g>
    </g>
    <g id="ytick_5">
     <g id="line2d_16">
      <g>
       <use style="stroke:#000000;stroke-width:0.8;" x="43.55" xlink:href="#me12fc22f71" y="116.565386"/>
      </g>
     </g>
     <g id="text_17">
      <!-- 20 -->
      <g transform="translate(23.825 120.364604)scale(0.1 -0.1)">
       <use xlink:href="#DejaVuSans-50"/>
       <use x="63.623047" xlink:href="#DejaVuSans-48"/>
      </g>
     </g>
    </g>
    <g id="ytick_6">
     <g id="line2d_17">
      <g>
       <use style="stroke:#000000;stroke-width:0.8;" x="43.55" xlink:href="#me12fc22f71" y="93.005071"/>
      </g>
     </g>
     <g id="text_18">
      <!-- 25 -->
      <g transform="translate(23.825 96.80429)scale(0.1 -0.1)">
       <use xlink:href="#DejaVuSans-50"/>
       <use x="63.623047" xlink:href="#DejaVuSans-53"/>
      </g>
     </g>
    </g>
    <g id="ytick_7">
     <g id="line2d_18">
      <g>
       <use style="stroke:#000000;stroke-width:0.8;" x="43.55" xlink:href="#me12fc22f71" y="69.444756"/>
      </g>
     </g>
     <g id="text_19">
      <!-- 30 -->
      <g transform="translate(23.825 73.243975)scale(0.1 -0.1)">
       <use xlink:href="#DejaVuSans-51"/>
       <use x="63.623047" xlink:href="#DejaVuSans-48"/>
      </g>
     </g>
    </g>
    <g id="ytick_8">
     <g id="line2d_19">
      <g>
       <use style="stroke:#000000;stroke-width:0.8;" x="43.55" xlink:href="#me12fc22f71" y="45.884441"/>
      </g>
     </g>
     <g id="text_20">
      <!-- 35 -->
      <g transform="translate(23.825 49.68366)scale(0.1 -0.1)">
       <use xlink:href="#DejaVuSans-51"/>
       <use x="63.623047" xlink:href="#DejaVuSans-53"/>
      </g>
     </g>
    </g>
    <g id="ytick_9">
     <g id="line2d_20">
      <g>
       <use style="stroke:#000000;stroke-width:0.8;" x="43.55" xlink:href="#me12fc22f71" y="22.324126"/>
      </g>
     </g>
     <g id="text_21">
      <!-- 40 -->
      <defs>
       <path d="M 37.796875 64.3125 
L 12.890625 25.390625 
L 37.796875 25.390625 
z
M 35.203125 72.90625 
L 47.609375 72.90625 
L 47.609375 25.390625 
L 58.015625 25.390625 
L 58.015625 17.1875 
L 47.609375 17.1875 
L 47.609375 0 
L 37.796875 0 
L 37.796875 17.1875 
L 4.890625 17.1875 
L 4.890625 26.703125 
z
" id="DejaVuSans-52"/>
      </defs>
      <g transform="translate(23.825 26.123345)scale(0.1 -0.1)">
       <use xlink:href="#DejaVuSans-52"/>
       <use x="63.623047" xlink:href="#DejaVuSans-48"/>
      </g>
     </g>
    </g>
    <g id="text_22">
     <!-- Students Registered -->
     <defs>
      <path d="M 53.515625 70.515625 
L 53.515625 60.890625 
Q 47.90625 63.578125 42.921875 64.890625 
Q 37.9375 66.21875 33.296875 66.21875 
Q 25.25 66.21875 20.875 63.09375 
Q 16.5 59.96875 16.5 54.203125 
Q 16.5 49.359375 19.40625 46.890625 
Q 22.3125 44.4375 30.421875 42.921875 
L 36.375 41.703125 
Q 47.40625 39.59375 52.65625 34.296875 
Q 57.90625 29 57.90625 20.125 
Q 57.90625 9.515625 50.796875 4.046875 
Q 43.703125 -1.421875 29.984375 -1.421875 
Q 24.8125 -1.421875 18.96875 -0.25 
Q 13.140625 0.921875 6.890625 3.21875 
L 6.890625 13.375 
Q 12.890625 10.015625 18.65625 8.296875 
Q 24.421875 6.59375 29.984375 6.59375 
Q 38.421875 6.59375 43.015625 9.90625 
Q 47.609375 13.234375 47.609375 19.390625 
Q 47.609375 24.75 44.3125 27.78125 
Q 41.015625 30.8125 33.5 32.328125 
L 27.484375 33.5 
Q 16.453125 35.6875 11.515625 40.375 
Q 6.59375 45.0625 6.59375 53.421875 
Q 6.59375 63.09375 13.40625 68.65625 
Q 20.21875 74.21875 32.171875 74.21875 
Q 37.3125 74.21875 42.625 73.28125 
Q 47.953125 72.359375 53.515625 70.515625 
z
" id="DejaVuSans-83"/>
      <path d="M 8.5 21.578125 
L 8.5 54.6875 
L 17.484375 54.6875 
L 17.484375 21.921875 
Q 17.484375 14.15625 20.5 10.265625 
Q 23.53125 6.390625 29.59375 6.390625 
Q 36.859375 6.390625 41.078125 11.03125 
Q 45.3125 15.671875 45.3125 23.6875 
L 45.3125 54.6875 
L 54.296875 54.6875 
L 54.296875 0 
L 45.3125 0 
L 45.3125 8.40625 
Q 42.046875 3.421875 37.71875 1 
Q 33.40625 -1.421875 27.6875 -1.421875 
Q 18.265625 -1.421875 13.375 4.4375 
Q 8.5 10.296875 8.5 21.578125 
z
M 31.109375 56 
z
" id="DejaVuSans-117"/>
      <path d="M 45.40625 46.390625 
L 45.40625 75.984375 
L 54.390625 75.984375 
L 54.390625 0 
L 45.40625 0 
L 45.40625 8.203125 
Q 42.578125 3.328125 38.25 0.953125 
Q 33.9375 -1.421875 27.875 -1.421875 
Q 17.96875 -1.421875 11.734375 6.484375 
Q 5.515625 14.40625 5.515625 27.296875 
Q 5.515625 40.1875 11.734375 48.09375 
Q 17.96875 56 27.875 56 
Q 33.9375 56 38.25 53.625 
Q 42.578125 51.265625 45.40625 46.390625 
z
M 14.796875 27.296875 
Q 14.796875 17.390625 18.875 11.75 
Q 22.953125 6.109375 30.078125 6.109375 
Q 37.203125 6.109375 41.296875 11.75 
Q 45.40625 17.390625 45.40625 27.296875 
Q 45.40625 37.203125 41.296875 42.84375 
Q 37.203125 48.484375 30.078125 48.484375 
Q 22.953125 48.484375 18.875 42.84375 
Q 14.796875 37.203125 14.796875 27.296875 
z
" id="DejaVuSans-100"/>
      <path d="M 54.890625 33.015625 
L 54.890625 0 
L 45.90625 0 
L 45.90625 32.71875 
Q 45.90625 40.484375 42.875 44.328125 
Q 39.84375 48.1875 33.796875 48.1875 
Q 26.515625 48.1875 22.3125 43.546875 
Q 18.109375 38.921875 18.109375 30.90625 
L 18.109375 0 
L 9.078125 0 
L 9.078125 54.6875 
L 18.109375 54.6875 
L 18.109375 46.1875 
Q 21.34375 51.125 25.703125 53.5625 
Q 30.078125 56 35.796875 56 
Q 45.21875 56 50.046875 50.171875 
Q 54.890625 44.34375 54.890625 33.015625 
z
" id="DejaVuSans-110"/>
      <path d="M 44.28125 53.078125 
L 44.28125 44.578125 
Q 40.484375 46.53125 36.375 47.5 
Q 32.28125 48.484375 27.875 48.484375 
Q 21.1875 48.484375 17.84375 46.4375 
Q 14.5 44.390625 14.5 40.28125 
Q 14.5 37.15625 16.890625 35.375 
Q 19.28125 33.59375 26.515625 31.984375 
L 29.59375 31.296875 
Q 39.15625 29.25 43.1875 25.515625 
Q 47.21875 21.78125 47.21875 15.09375 
Q 47.21875 7.46875 41.1875 3.015625 
Q 35.15625 -1.421875 24.609375 -1.421875 
Q 20.21875 -1.421875 15.453125 -0.5625 
Q 10.6875 0.296875 5.421875 2 
L 5.421875 11.28125 
Q 10.40625 8.6875 15.234375 7.390625 
Q 20.0625 6.109375 24.8125 6.109375 
Q 31.15625 6.109375 34.5625 8.28125 
Q 37.984375 10.453125 37.984375 14.40625 
Q 37.984375 18.0625 35.515625 20.015625 
Q 33.0625 21.96875 24.703125 23.78125 
L 21.578125 24.515625 
Q 13.234375 26.265625 9.515625 29.90625 
Q 5.8125 33.546875 5.8125 39.890625 
Q 5.8125 47.609375 11.28125 51.796875 
Q 16.75 56 26.8125 56 
Q 31.78125 56 36.171875 55.265625 
Q 40.578125 54.546875 44.28125 53.078125 
z
" id="DejaVuSans-115"/>
      <path id="DejaVuSans-32"/>
      <path d="M 44.390625 34.1875 
Q 47.5625 33.109375 50.5625 29.59375 
Q 53.5625 26.078125 56.59375 19.921875 
L 66.609375 0 
L 56 0 
L 46.6875 18.703125 
Q 43.0625 26.03125 39.671875 28.421875 
Q 36.28125 30.8125 30.421875 30.8125 
L 19.671875 30.8125 
L 19.671875 0 
L 9.8125 0 
L 9.8125 72.90625 
L 32.078125 72.90625 
Q 44.578125 72.90625 50.734375 67.671875 
Q 56.890625 62.453125 56.890625 51.90625 
Q 56.890625 45.015625 53.6875 40.46875 
Q 50.484375 35.9375 44.390625 34.1875 
z
M 19.671875 64.796875 
L 19.671875 38.921875 
L 32.078125 38.921875 
Q 39.203125 38.921875 42.84375 42.21875 
Q 46.484375 45.515625 46.484375 51.90625 
Q 46.484375 58.296875 42.84375 61.546875 
Q 39.203125 64.796875 32.078125 64.796875 
z
" id="DejaVuSans-82"/>
      <path d="M 45.40625 27.984375 
Q 45.40625 37.75 41.375 43.109375 
Q 37.359375 48.484375 30.078125 48.484375 
Q 22.859375 48.484375 18.828125 43.109375 
Q 14.796875 37.75 14.796875 27.984375 
Q 14.796875 18.265625 18.828125 12.890625 
Q 22.859375 7.515625 30.078125 7.515625 
Q 37.359375 7.515625 41.375 12.890625 
Q 45.40625 18.265625 45.40625 27.984375 
z
M 54.390625 6.78125 
Q 54.390625 -7.171875 48.1875 -13.984375 
Q 42 -20.796875 29.203125 -20.796875 
Q 24.46875 -20.796875 20.265625 -20.09375 
Q 16.0625 -19.390625 12.109375 -17.921875 
L 12.109375 -9.1875 
Q 16.0625 -11.328125 19.921875 -12.34375 
Q 23.78125 -13.375 27.78125 -13.375 
Q 36.625 -13.375 41.015625 -8.765625 
Q 45.40625 -4.15625 45.40625 5.171875 
L 45.40625 9.625 
Q 42.625 4.78125 38.28125 2.390625 
Q 33.9375 0 27.875 0 
Q 17.828125 0 11.671875 7.65625 
Q 5.515625 15.328125 5.515625 27.984375 
Q 5.515625 40.671875 11.671875 48.328125 
Q 17.828125 56 27.875 56 
Q 33.9375 56 38.28125 53.609375 
Q 42.625 51.21875 45.40625 46.390625 
L 45.40625 54.6875 
L 54.390625 54.6875 
z
" id="DejaVuSans-103"/>
      <path d="M 9.421875 54.6875 
L 18.40625 54.6875 
L 18.40625 0 
L 9.421875 0 
z
M 9.421875 75.984375 
L 18.40625 75.984375 
L 18.40625 64.59375 
L 9.421875 64.59375 
z
" id="DejaVuSans-105"/>
      <path d="M 41.109375 46.296875 
Q 39.59375 47.171875 37.8125 47.578125 
Q 36.03125 48 33.890625 48 
Q 26.265625 48 22.1875 43.046875 
Q 18.109375 38.09375 18.109375 28.8125 
L 18.109375 0 
L 9.078125 0 
L 9.078125 54.6875 
L 18.109375 54.6875 
L 18.109375 46.1875 
Q 20.953125 51.171875 25.484375 53.578125 
Q 30.03125 56 36.53125 56 
Q 37.453125 56 38.578125 55.875 
Q 39.703125 55.765625 41.0625 55.515625 
z
" id="DejaVuSans-114"/>
     </defs>
     <g transform="translate(17.745313 167.498979)rotate(-90)scale(0.1 -0.1)">
      <use xlink:href="#DejaVuSans-83"/>
      <use x="63.476562" xlink:href="#DejaVuSans-116"/>
      <use x="102.685547" xlink:href="#DejaVuSans-117"/>
      <use x="166.064453" xlink:href="#DejaVuSans-100"/>
      <use x="229.541016" xlink:href="#DejaVuSans-101"/>
      <use x="291.064453" xlink:href="#DejaVuSans-110"/>
      <use x="354.443359" xlink:href="#DejaVuSans-116"/>
      <use x="393.652344" xlink:href="#DejaVuSans-115"/>
      <use x="445.751953" xlink:href="#DejaVuSans-32"/>
      <use x="477.539062" xlink:href="#DejaVuSans-82"/>
      <use x="546.958984" xlink:href="#DejaVuSans-101"/>
      <use x="608.482422" xlink:href="#DejaVuSans-103"/>
      <use x="671.958984" xlink:href="#DejaVuSans-105"/>
      <use x="699.742188" xlink:href="#DejaVuSans-115"/>
      <use x="751.841797" xlink:href="#DejaVuSans-116"/>
      <use x="791.050781" xlink:href="#DejaVuSans-101"/>
      <use x="852.574219" xlink:href="#DejaVuSans-114"/>
      <use x="893.65625" xlink:href="#DejaVuSans-101"/>
      <use x="955.179688" xlink:href="#DejaVuSans-100"/>
     </g>
    </g>
   </g>
   <g id="line2d_21">
    <path clip-path="url(#pef7ebf54ff)" d="M 118.032301 196.670456 
L 119.52035 196.670456 
L 119.52035 182.534267 
L 119.594768 182.534267 
L 119.817981 182.534267 
L 119.817981 177.822204 
L 119.892408 177.822204 
L 120.115597 177.822204 
L 120.115597 158.973953 
L 120.190004 158.973953 
L 120.71087 158.973953 
L 120.71087 144.837764 
L 120.785272 144.837764 
L 121.306104 144.837764 
L 121.306104 116.565386 
L 121.380539 116.565386 
L 121.901345 116.565386 
L 121.901345 107.14126 
L 121.975752 107.14126 
L 122.199008 107.14126 
L 122.199008 102.429197 
L 122.273411 102.429197 
L 122.496605 102.429197 
L 122.496605 97.717134 
L 122.571028 97.717134 
L 123.0919 97.717134 
L 123.0919 93.005071 
L 123.166306 93.005071 
L 127.258555 93.005071 
L 127.258555 74.156819 
L 127.332982 74.156819 
L 127.853822 74.156819 
L 127.853822 69.444756 
L 127.928264 69.444756 
L 128.449113 69.444756 
L 128.449113 60.02063 
L 128.523455 60.02063 
L 128.746736 60.02063 
L 128.746736 55.308567 
L 128.821077 55.308567 
L 129.341991 55.308567 
L 129.341991 50.596504 
L 129.416328 50.596504 
L 135.592047 50.596504 
L 135.592047 45.884441 
L 135.666401 45.884441 
L 135.889619 45.884441 
L 135.889619 41.172378 
L 135.964063 41.172378 
L 136.187258 41.172378 
L 136.187258 36.460315 
L 136.261687 36.460315 
L 137.080167 36.460315 
L 137.080167 31.748252 
L 137.154503 31.748252 
L 156.12799 31.748252 
L 156.12799 22.324126 
L 156.202448 22.324126 
L 192.735619 22.324126 
L 192.735619 27.036189 
L 192.810029 27.036189 
L 194.521356 27.036189 
L 194.521356 22.324126 
L 194.595808 22.324126 
L 220.414587 22.324126 
L 220.414587 27.036189 
L 220.488958 27.036189 
L 222.795558 27.036189 
L 222.795558 22.324126 
L 222.869932 22.324126 
L 303.005 22.324126 
L 303.005 22.324126 
" style="fill:none;stroke:#1b9e77;stroke-linecap:square;stroke-width:1.5;"/>
   </g>
   <g id="line2d_22">
    <path clip-path="url(#pef7ebf54ff)" d="M 55.905 182.534267 
L 56.218582 182.534267 
L 56.218582 177.822204 
L 56.325133 177.822204 
L 57.758617 177.822204 
L 57.758617 173.110142 
L 62.52064 173.110142 
L 62.52064 168.398079 
L 62.972045 168.398079 
L 62.972045 163.686016 
L 63.046402 163.686016 
L 63.26965 163.686016 
L 63.26965 158.973953 
L 63.344091 158.973953 
L 64.162559 158.973953 
L 64.162559 144.837764 
L 64.236932 144.837764 
L 64.460118 144.837764 
L 64.460118 140.125701 
L 64.534577 140.125701 
L 70.412595 140.125701 
L 70.412595 130.701575 
L 70.487045 130.701575 
L 70.710217 130.701575 
L 70.710217 125.989512 
L 70.784591 125.989512 
L 71.007837 125.989512 
L 71.007837 130.701575 
L 71.082265 130.701575 
L 71.603131 130.701575 
L 71.603131 125.989512 
L 71.677518 125.989512 
L 71.900694 125.989512 
L 71.900694 116.565386 
L 71.975182 116.565386 
L 73.388846 116.565386 
L 73.388846 107.14126 
L 73.463226 107.14126 
L 76.662696 107.14126 
L 76.662696 102.429197 
L 76.737082 102.429197 
L 76.960313 102.429197 
L 76.960313 83.580945 
L 77.034708 83.580945 
L 77.257902 83.580945 
L 77.257902 74.156819 
L 77.332306 74.156819 
L 77.85318 74.156819 
L 77.85318 69.444756 
L 77.927592 69.444756 
L 78.150794 69.444756 
L 78.150794 64.732693 
L 78.225227 64.732693 
L 78.448425 64.732693 
L 78.448425 60.02063 
L 78.522839 60.02063 
L 78.746046 60.02063 
L 78.746046 45.884441 
L 78.820492 45.884441 
L 79.043661 45.884441 
L 79.043661 41.172378 
L 79.118095 41.172378 
L 79.341301 41.172378 
L 79.341301 36.460315 
L 79.415719 36.460315 
L 84.400851 36.460315 
L 84.400851 27.036189 
L 84.475258 27.036189 
L 84.698538 27.036189 
L 84.698538 22.324126 
L 84.772897 22.324126 
L 119.817981 22.324126 
L 119.817981 27.036189 
L 119.892408 27.036189 
L 120.115597 27.036189 
L 120.115597 22.324126 
L 120.190004 22.324126 
L 303.005 22.324126 
L 303.005 22.324126 
" style="fill:none;stroke:#d95f02;stroke-linecap:square;stroke-width:1.5;"/>
   </g>
   <g id="line2d_23">
    <path clip-path="url(#pef7ebf54ff)" d="M 55.905 201.382519 
L 63.864952 201.382519 
L 63.864952 196.670456 
L 63.939301 196.670456 
L 69.817391 196.670456 
L 69.817391 191.958393 
L 69.891802 191.958393 
L 70.115002 191.958393 
L 70.115002 187.24633 
L 70.18941 187.24633 
L 70.412595 187.24633 
L 70.412595 177.822204 
L 70.487045 177.822204 
L 70.710217 177.822204 
L 70.710217 173.110142 
L 70.784591 173.110142 
L 71.007837 173.110142 
L 71.007837 168.398079 
L 71.082265 168.398079 
L 71.305464 168.398079 
L 71.305464 163.686016 
L 71.379854 163.686016 
L 71.900694 163.686016 
L 71.900694 158.973953 
L 71.975182 158.973953 
L 76.960313 158.973953 
L 76.960313 149.549827 
L 77.034708 149.549827 
L 77.257902 149.549827 
L 77.257902 144.837764 
L 77.332306 144.837764 
L 78.448425 144.837764 
L 78.448425 140.125701 
L 78.522839 140.125701 
L 78.746046 140.125701 
L 78.746046 130.701575 
L 78.820492 130.701575 
L 105.829769 130.701575 
L 105.829769 125.989512 
L 105.9041 125.989512 
L 106.127362 125.989512 
L 106.127362 121.277449 
L 106.201729 121.277449 
L 106.425003 121.277449 
L 106.425003 116.565386 
L 106.499385 116.565386 
L 106.722594 116.565386 
L 106.722594 111.853323 
L 106.796995 111.853323 
L 107.020248 111.853323 
L 107.020248 102.429197 
L 107.094635 102.429197 
L 107.317875 102.429197 
L 107.317875 97.717134 
L 107.39227 97.717134 
L 112.675049 97.717134 
L 112.74946 83.580945 
L 112.74946 83.580945 
L 113.270309 83.580945 
L 113.270309 74.156819 
L 113.344705 74.156819 
L 114.163186 74.156819 
L 114.163186 69.444756 
L 114.23758 69.444756 
L 114.460811 69.444756 
L 114.460811 60.02063 
L 114.535221 60.02063 
L 114.758431 60.02063 
L 114.758431 36.460315 
L 114.832826 36.460315 
L 115.056009 36.460315 
L 115.056009 22.324126 
L 115.130485 22.324126 
L 119.52035 22.324126 
L 119.52035 27.036189 
L 119.594768 27.036189 
L 120.115597 27.036189 
L 120.115597 22.324126 
L 120.190004 22.324126 
L 192.140352 22.324126 
L 192.140352 27.036189 
L 192.214811 27.036189 
L 192.438038 27.036189 
L 192.438038 22.324126 
L 192.512455 22.324126 
L 205.533463 22.324126 
L 205.533463 27.036189 
L 205.607795 27.036189 
L 206.128628 27.036189 
L 206.128628 22.324126 
L 206.203034 22.324126 
L 206.723895 22.324126 
L 206.723895 27.036189 
L 206.798311 27.036189 
L 207.91445 27.036189 
L 207.91445 22.324126 
L 207.988811 22.324126 
L 303.005 22.324126 
L 303.005 22.324126 
" style="fill:none;stroke:#7570b3;stroke-linecap:square;stroke-width:1.5;"/>
   </g>
   <g id="line2d_24">
    <path clip-path="url(#pef7ebf54ff)" d="M 55.905 210.806645 
L 56.218582 210.806645 
L 56.218582 201.382519 
L 56.325133 201.382519 
L 57.614821 201.382519 
L 57.614821 196.670456 
L 57.723956 196.670456 
L 64.460118 196.670456 
L 64.460118 191.958393 
L 64.534577 191.958393 
L 70.115002 191.958393 
L 70.115002 177.822204 
L 70.18941 177.822204 
L 70.412595 177.822204 
L 70.412595 173.110142 
L 70.487045 173.110142 
L 70.710217 173.110142 
L 70.710217 154.26189 
L 70.784591 154.26189 
L 71.007837 154.26189 
L 71.007837 149.549827 
L 71.082265 149.549827 
L 71.305464 149.549827 
L 71.305464 140.125701 
L 71.379854 140.125701 
L 71.603131 140.125701 
L 71.603131 125.989512 
L 71.677518 125.989512 
L 76.960313 125.989512 
L 76.960313 121.277449 
L 77.034708 121.277449 
L 77.257902 121.277449 
L 77.257902 116.565386 
L 77.332306 116.565386 
L 78.150794 116.565386 
L 78.150794 111.853323 
L 78.225227 111.853323 
L 78.746046 111.853323 
L 78.746046 97.717134 
L 78.820492 97.717134 
L 79.043661 97.717134 
L 79.043661 93.005071 
L 79.118095 93.005071 
L 84.996108 93.005071 
L 84.996108 88.293008 
L 85.070526 88.293008 
L 85.293721 88.293008 
L 85.293721 83.580945 
L 85.368157 83.580945 
L 85.889009 83.580945 
L 85.889009 78.868882 
L 85.963371 78.868882 
L 86.781861 78.868882 
L 86.781861 74.156819 
L 86.856306 74.156819 
L 91.841492 74.156819 
L 91.841492 69.444756 
L 91.915863 69.444756 
L 105.829769 69.444756 
L 105.829769 45.884441 
L 105.9041 45.884441 
L 106.127362 45.884441 
L 106.127362 36.460315 
L 106.201729 36.460315 
L 106.425003 36.460315 
L 106.425003 31.748252 
L 106.499385 31.748252 
L 206.723895 31.748252 
L 206.723895 36.460315 
L 206.798311 36.460315 
L 207.021508 36.460315 
L 207.021508 31.748252 
L 207.095913 31.748252 
L 223.093145 31.748252 
L 223.093145 36.460315 
L 223.167602 36.460315 
L 223.390789 36.460315 
L 223.390789 31.748252 
L 223.46522 31.748252 
L 303.005 31.748252 
L 303.005 31.748252 
" style="fill:none;stroke:#e7298a;stroke-linecap:square;stroke-width:1.5;"/>
   </g>
   <g id="line2d_25">
    <path clip-path="url(#pef7ebf54ff)" d="M 55.905 191.958393 
L 70.115002 191.958393 
L 70.115002 187.24633 
L 70.18941 187.24633 
L 71.603131 187.24633 
L 71.603131 182.534267 
L 71.677518 182.534267 
L 72.198357 182.534267 
L 72.198357 177.822204 
L 72.272734 177.822204 
L 77.85318 177.822204 
L 77.85318 173.110142 
L 77.927592 173.110142 
L 78.448425 173.110142 
L 78.448425 168.398079 
L 78.522839 168.398079 
L 84.400851 168.398079 
L 84.400851 163.686016 
L 84.475258 163.686016 
L 105.532103 163.686016 
L 105.532103 154.26189 
L 105.606551 154.26189 
L 105.829769 154.26189 
L 105.829769 144.837764 
L 105.9041 144.837764 
L 106.722594 144.837764 
L 106.722594 140.125701 
L 106.796995 140.125701 
L 107.913114 140.125701 
L 107.913114 135.413638 
L 107.987503 135.413638 
L 113.270309 135.413638 
L 113.270309 130.701575 
L 113.344705 130.701575 
L 113.865504 130.701575 
L 113.865504 121.277449 
L 113.939976 121.277449 
L 114.460811 121.277449 
L 114.460811 116.565386 
L 114.535221 116.565386 
L 116.246552 116.565386 
L 116.246552 111.853323 
L 116.320944 111.853323 
L 119.52035 111.853323 
L 119.52035 107.14126 
L 119.594768 107.14126 
L 120.115597 107.14126 
L 120.115597 102.429197 
L 120.190004 102.429197 
L 120.413217 102.429197 
L 120.413217 93.005071 
L 120.487628 93.005071 
L 121.00851 93.005071 
L 121.00851 88.293008 
L 121.082919 88.293008 
L 121.306104 88.293008 
L 121.380539 74.156819 
L 121.380539 74.156819 
L 121.603765 74.156819 
L 121.603765 64.732693 
L 121.678182 64.732693 
L 122.79421 64.732693 
L 122.79421 69.444756 
L 122.868606 69.444756 
L 127.258555 69.444756 
L 127.258555 60.02063 
L 127.332982 60.02063 
L 127.556251 60.02063 
L 127.556251 55.308567 
L 127.630582 55.308567 
L 128.151455 55.308567 
L 128.151455 50.596504 
L 128.225873 50.596504 
L 128.449113 50.596504 
L 128.449113 41.172378 
L 128.523455 41.172378 
L 128.746736 41.172378 
L 128.746736 36.460315 
L 128.821077 36.460315 
L 129.341991 36.460315 
L 129.341991 31.748252 
L 129.416328 31.748252 
L 303.005 31.748252 
L 303.005 31.748252 
" style="fill:none;stroke:#66a61e;stroke-linecap:square;stroke-width:1.5;"/>
   </g>
   <g id="line2d_26">
    <path clip-path="url(#pef7ebf54ff)" d="M 55.905 196.670456 
L 63.864952 196.670456 
L 63.864952 191.958393 
L 63.939301 191.958393 
L 69.817391 191.958393 
L 69.817391 187.24633 
L 69.891802 187.24633 
L 70.115002 187.24633 
L 70.115002 182.534267 
L 70.18941 182.534267 
L 70.710217 182.534267 
L 70.710217 177.822204 
L 70.784591 177.822204 
L 71.007837 177.822204 
L 71.007837 173.110142 
L 71.082265 173.110142 
L 71.305464 173.110142 
L 71.305464 163.686016 
L 71.379854 163.686016 
L 71.603131 163.686016 
L 71.603131 158.973953 
L 71.677518 158.973953 
L 71.900694 158.973953 
L 71.900694 154.26189 
L 71.975182 154.26189 
L 76.662696 154.26189 
L 76.662696 149.549827 
L 76.737082 149.549827 
L 76.960313 149.549827 
L 76.960313 140.125701 
L 77.034708 140.125701 
L 77.55551 140.125701 
L 77.55551 135.413638 
L 77.629922 135.413638 
L 77.85318 135.413638 
L 77.85318 125.989512 
L 77.927592 125.989512 
L 78.448425 125.989512 
L 78.448425 121.277449 
L 78.522839 121.277449 
L 79.043661 121.277449 
L 79.043661 116.565386 
L 79.118095 116.565386 
L 79.341301 116.565386 
L 79.341301 111.853323 
L 79.415719 111.853323 
L 84.698538 111.853323 
L 84.698538 107.14126 
L 84.772897 107.14126 
L 85.889009 107.14126 
L 85.889009 102.429197 
L 85.963371 102.429197 
L 93.627157 102.429197 
L 93.627157 97.717134 
L 93.701571 97.717134 
L 105.532103 97.717134 
L 105.532103 93.005071 
L 105.606551 93.005071 
L 106.425003 93.005071 
L 106.425003 78.868882 
L 106.499385 78.868882 
L 106.722594 78.868882 
L 106.722594 69.444756 
L 106.796995 69.444756 
L 107.020248 69.444756 
L 107.020248 60.02063 
L 107.094635 60.02063 
L 107.913114 60.02063 
L 107.913114 55.308567 
L 107.987503 55.308567 
L 112.079816 55.308567 
L 112.079816 50.596504 
L 112.154218 50.596504 
L 112.972666 50.596504 
L 112.972666 45.884441 
L 113.047058 45.884441 
L 113.270309 45.884441 
L 113.270309 41.172378 
L 113.344705 41.172378 
L 113.567913 41.172378 
L 113.567913 36.460315 
L 113.642327 36.460315 
L 114.460811 36.460315 
L 114.460811 31.748252 
L 114.535221 31.748252 
L 303.005 31.748252 
L 303.005 31.748252 
" style="fill:none;stroke:#e6ab02;stroke-linecap:square;stroke-width:1.5;"/>
   </g>
   <g id="line2d_27">
    <path clip-path="url(#pef7ebf54ff)" d="M 55.905 201.382519 
L 64.460118 201.382519 
L 64.460118 196.670456 
L 64.534577 196.670456 
L 70.115002 196.670456 
L 70.115002 191.958393 
L 70.18941 191.958393 
L 71.305464 191.958393 
L 71.305464 187.24633 
L 71.379854 187.24633 
L 77.55551 187.24633 
L 77.55551 177.822204 
L 77.629922 177.822204 
L 78.150794 177.822204 
L 78.150794 173.110142 
L 78.225227 173.110142 
L 78.746046 173.110142 
L 78.746046 168.398079 
L 78.820492 168.398079 
L 79.043661 168.398079 
L 79.043661 163.686016 
L 79.118095 163.686016 
L 85.889009 163.686016 
L 85.889009 158.973953 
L 85.963371 158.973953 
L 92.734332 158.973953 
L 92.734332 154.26189 
L 92.808704 154.26189 
L 105.829769 154.26189 
L 105.829769 144.837764 
L 105.9041 144.837764 
L 106.425003 144.837764 
L 106.425003 140.125701 
L 106.499385 140.125701 
L 107.913114 140.125701 
L 107.913114 135.413638 
L 107.987503 135.413638 
L 112.675049 135.413638 
L 112.675049 130.701575 
L 112.74946 130.701575 
L 114.163186 130.701575 
L 114.163186 125.989512 
L 114.23758 125.989512 
L 114.460811 125.989512 
L 114.460811 121.277449 
L 114.535221 121.277449 
L 114.758431 121.277449 
L 114.832826 107.14126 
L 114.832826 107.14126 
L 119.817981 107.14126 
L 119.817981 102.429197 
L 119.892408 102.429197 
L 120.115597 102.429197 
L 120.115597 93.005071 
L 120.190004 93.005071 
L 120.413217 93.005071 
L 120.413217 88.293008 
L 120.487628 88.293008 
L 120.71087 88.293008 
L 120.785272 74.156819 
L 120.785272 74.156819 
L 121.306104 74.156819 
L 121.306104 60.02063 
L 121.380539 60.02063 
L 121.603765 60.02063 
L 121.603765 50.596504 
L 121.678182 50.596504 
L 121.901345 50.596504 
L 121.901345 31.748252 
L 121.975752 31.748252 
L 122.199008 31.748252 
L 122.199008 27.036189 
L 122.273411 27.036189 
L 123.687135 27.036189 
L 123.687135 22.324126 
L 123.761541 22.324126 
L 205.533463 22.324126 
L 205.533463 27.036189 
L 205.607795 27.036189 
L 205.831084 27.036189 
L 205.831084 22.324126 
L 205.905485 22.324126 
L 206.426297 22.324126 
L 206.426297 27.036189 
L 206.500732 27.036189 
L 207.319131 27.036189 
L 207.319131 31.748252 
L 207.393599 31.748252 
L 207.91445 31.748252 
L 207.91445 36.460315 
L 207.988811 36.460315 
L 215.950213 36.460315 
L 215.950213 41.172378 
L 216.024655 41.172378 
L 233.509999 41.172378 
L 233.509999 36.460315 
L 233.584413 36.460315 
L 266.546103 36.460315 
L 266.546103 41.172378 
L 266.62057 41.172378 
L 278.153428 41.172378 
L 278.153428 36.460315 
L 278.227797 36.460315 
L 303.005 36.460315 
L 303.005 36.460315 
" style="fill:none;stroke:#a6761d;stroke-linecap:square;stroke-width:1.5;"/>
   </g>
   <g id="line2d_28">
    <path clip-path="url(#pef7ebf54ff)" d="M 55.905 201.382519 
L 70.412595 201.382519 
L 70.412595 196.670456 
L 70.487045 196.670456 
L 71.305464 196.670456 
L 71.305464 191.958393 
L 71.379854 191.958393 
L 77.85318 191.958393 
L 77.85318 187.24633 
L 77.927592 187.24633 
L 78.448425 187.24633 
L 78.448425 191.958393 
L 78.522839 191.958393 
L 78.746046 191.958393 
L 78.746046 182.534267 
L 78.820492 182.534267 
L 105.829769 182.534267 
L 105.829769 177.822204 
L 105.9041 177.822204 
L 106.425003 177.822204 
L 106.425003 173.110142 
L 106.499385 173.110142 
L 107.020248 173.110142 
L 107.020248 168.398079 
L 107.094635 168.398079 
L 107.317875 168.398079 
L 107.317875 163.686016 
L 107.39227 163.686016 
L 108.805942 163.686016 
L 108.805942 158.973953 
L 108.880328 158.973953 
L 113.567913 158.973953 
L 113.567913 154.26189 
L 113.642327 154.26189 
L 114.460811 154.26189 
L 114.460811 149.549827 
L 114.535221 149.549827 
L 114.758431 149.549827 
L 114.758431 144.837764 
L 114.832826 144.837764 
L 119.817981 144.837764 
L 119.817981 135.413638 
L 119.892408 135.413638 
L 120.115597 135.413638 
L 120.115597 130.701575 
L 120.190004 130.701575 
L 120.413217 130.701575 
L 120.487628 116.565386 
L 120.487628 116.565386 
L 121.603765 116.565386 
L 121.603765 111.853323 
L 121.678182 111.853323 
L 121.901345 111.853323 
L 121.901345 107.14126 
L 121.975752 107.14126 
L 122.199008 107.14126 
L 122.199008 111.853323 
L 122.273411 111.853323 
L 122.496605 111.853323 
L 122.496605 107.14126 
L 122.571028 107.14126 
L 122.79421 107.14126 
L 122.79421 102.429197 
L 122.868606 102.429197 
L 126.365733 102.429197 
L 126.365733 107.14126 
L 126.440082 107.14126 
L 127.258555 107.14126 
L 127.258555 93.005071 
L 127.332982 93.005071 
L 127.853822 93.005071 
L 127.853822 88.293008 
L 127.928264 88.293008 
L 128.449113 88.293008 
L 128.449113 69.444756 
L 128.523455 69.444756 
L 128.746736 69.444756 
L 128.746736 64.732693 
L 128.821077 64.732693 
L 135.294385 64.732693 
L 135.294385 60.02063 
L 135.368821 60.02063 
L 159.401903 60.02063 
L 159.401903 55.308567 
L 159.476263 55.308567 
L 164.163857 55.308567 
L 164.163857 50.596504 
L 164.238248 50.596504 
L 164.461445 50.596504 
L 164.461445 55.308567 
L 164.535837 55.308567 
L 165.056694 55.308567 
L 165.056694 50.596504 
L 165.131076 50.596504 
L 172.199693 50.596504 
L 172.199693 45.884441 
L 172.274177 45.884441 
L 184.402161 45.884441 
L 184.402161 50.596504 
L 184.476576 50.596504 
L 192.735619 50.596504 
L 192.735619 45.884441 
L 192.810029 45.884441 
L 205.533463 45.884441 
L 205.533463 50.596504 
L 205.607795 50.596504 
L 206.128628 50.596504 
L 206.128628 55.308567 
L 206.203034 55.308567 
L 207.021508 55.308567 
L 207.021508 60.02063 
L 207.095913 60.02063 
L 215.354964 60.02063 
L 215.354964 64.732693 
L 215.429349 64.732693 
L 228.152731 64.732693 
L 228.152731 69.444756 
L 228.227201 69.444756 
L 257.915095 69.444756 
L 257.915095 74.156819 
L 257.989483 74.156819 
L 303.005 74.156819 
L 303.005 74.156819 
" style="fill:none;stroke:#666666;stroke-linecap:square;stroke-width:1.5;"/>
   </g>
   <g id="line2d_29">
    <path clip-path="url(#pef7ebf54ff)" d="M 55.905 196.670456 
L 62.52064 196.670456 
L 62.52064 191.958393 
L 71.305464 191.958393 
L 71.305464 187.24633 
L 71.379854 187.24633 
L 77.257902 187.24633 
L 77.257902 182.534267 
L 77.332306 182.534267 
L 77.85318 182.534267 
L 77.85318 177.822204 
L 77.927592 177.822204 
L 78.746046 177.822204 
L 78.746046 173.110142 
L 78.820492 173.110142 
L 79.043661 173.110142 
L 79.043661 168.398079 
L 79.118095 168.398079 
L 80.829411 168.398079 
L 80.829411 163.686016 
L 80.903824 163.686016 
L 106.425003 163.686016 
L 106.425003 154.26189 
L 106.499385 154.26189 
L 113.270309 154.26189 
L 113.270309 149.549827 
L 113.344705 149.549827 
L 114.758431 149.549827 
L 114.758431 144.837764 
L 114.832826 144.837764 
L 115.651325 144.837764 
L 115.651325 140.125701 
L 115.725723 140.125701 
L 120.115597 140.125701 
L 120.115597 135.413638 
L 120.190004 135.413638 
L 120.413217 135.413638 
L 120.413217 125.989512 
L 120.487628 125.989512 
L 121.306104 125.989512 
L 121.306104 116.565386 
L 121.380539 116.565386 
L 127.853822 116.565386 
L 127.853822 111.853323 
L 127.928264 111.853323 
L 128.746736 111.853323 
L 128.746736 107.14126 
L 128.821077 107.14126 
L 129.639545 107.14126 
L 129.639545 102.429197 
L 129.713961 102.429197 
L 137.080167 102.429197 
L 137.080167 97.717134 
L 137.154503 97.717134 
L 157.616138 97.717134 
L 157.616138 93.005071 
L 157.690513 93.005071 
L 164.461445 93.005071 
L 164.461445 88.293008 
L 164.535837 88.293008 
L 172.199693 88.293008 
L 172.199693 93.005071 
L 172.274177 93.005071 
L 206.426297 93.005071 
L 206.426297 88.293008 
L 206.500732 88.293008 
L 206.723895 88.293008 
L 206.723895 93.005071 
L 206.798311 93.005071 
L 214.164499 93.005071 
L 214.164499 88.293008 
L 214.238912 88.293008 
L 266.546103 88.293008 
L 266.546103 83.580945 
L 266.62057 83.580945 
L 303.005 83.580945 
L 303.005 83.580945 
" style="fill:none;stroke:#1b9e77;stroke-dasharray:4.5,1.5;stroke-dashoffset:0;stroke-width:1.5;"/>
   </g>
   <g id="line2d_30">
    <path clip-path="url(#pef7ebf54ff)" d="M 55.905 206.094582 
L 69.817391 206.094582 
L 69.817391 201.382519 
L 69.891802 201.382519 
L 70.115002 201.382519 
L 70.115002 196.670456 
L 70.18941 196.670456 
L 71.305464 196.670456 
L 71.305464 187.24633 
L 71.379854 187.24633 
L 76.960313 187.24633 
L 76.960313 182.534267 
L 77.034708 182.534267 
L 78.448425 182.534267 
L 78.448425 177.822204 
L 78.522839 177.822204 
L 78.746046 177.822204 
L 78.746046 173.110142 
L 78.820492 173.110142 
L 79.043661 173.110142 
L 79.043661 168.398079 
L 79.118095 168.398079 
L 106.127362 168.398079 
L 106.127362 163.686016 
L 106.201729 163.686016 
L 106.425003 163.686016 
L 106.425003 158.973953 
L 106.499385 158.973953 
L 106.722594 158.973953 
L 106.722594 149.549827 
L 106.796995 149.549827 
L 114.163186 149.549827 
L 114.163186 144.837764 
L 114.23758 144.837764 
L 114.460811 144.837764 
L 114.460811 140.125701 
L 114.535221 140.125701 
L 119.52035 140.125701 
L 119.52035 144.837764 
L 119.594768 144.837764 
L 120.413217 144.837764 
L 120.413217 135.413638 
L 120.487628 135.413638 
L 120.71087 135.413638 
L 120.71087 140.125701 
L 120.785272 140.125701 
L 121.00851 140.125701 
L 121.00851 135.413638 
L 121.082919 135.413638 
L 121.603765 135.413638 
L 121.603765 125.989512 
L 121.678182 125.989512 
L 121.901345 125.989512 
L 121.901345 121.277449 
L 121.975752 121.277449 
L 135.889619 121.277449 
L 135.889619 116.565386 
L 135.964063 116.565386 
L 136.782541 116.565386 
L 136.782541 111.853323 
L 136.85696 111.853323 
L 151.068399 111.853323 
L 151.068399 107.14126 
L 151.142839 107.14126 
L 178.152091 107.14126 
L 178.152091 102.429197 
L 178.226523 102.429197 
L 179.342581 102.429197 
L 179.342581 97.717134 
L 179.41701 97.717134 
L 185.295087 97.717134 
L 185.295087 93.005071 
L 185.369458 93.005071 
L 208.807315 93.005071 
L 208.807315 88.293008 
L 208.881703 88.293008 
L 303.005 88.293008 
L 303.005 88.293008 
" style="fill:none;stroke:#d95f02;stroke-dasharray:4.5,1.5;stroke-dashoffset:0;stroke-width:1.5;"/>
   </g>
   <g id="line2d_31">
    <path clip-path="url(#pef7ebf54ff)" d="M 55.905 206.094582 
L 70.412595 206.094582 
L 70.412595 201.382519 
L 70.487045 201.382519 
L 78.448425 201.382519 
L 78.448425 191.958393 
L 78.522839 191.958393 
L 105.532103 191.958393 
L 105.532103 187.24633 
L 105.606551 187.24633 
L 106.127362 187.24633 
L 106.127362 182.534267 
L 106.201729 182.534267 
L 107.020248 182.534267 
L 107.020248 177.822204 
L 107.094635 177.822204 
L 112.675049 177.822204 
L 112.675049 173.110142 
L 112.74946 173.110142 
L 112.972666 173.110142 
L 112.972666 163.686016 
L 113.047058 163.686016 
L 113.270309 163.686016 
L 113.270309 158.973953 
L 113.344705 158.973953 
L 113.865504 158.973953 
L 113.865504 154.26189 
L 113.939976 154.26189 
L 114.163186 154.26189 
L 114.163186 144.837764 
L 114.23758 144.837764 
L 114.460811 144.837764 
L 114.460811 135.413638 
L 114.535221 135.413638 
L 115.651325 135.413638 
L 115.651325 130.701575 
L 115.725723 130.701575 
L 116.246552 130.701575 
L 116.246552 125.989512 
L 116.320944 125.989512 
L 116.54412 125.989512 
L 116.54412 130.701575 
L 116.618603 130.701575 
L 119.222758 130.701575 
L 119.222758 135.413638 
L 119.297188 135.413638 
L 119.52035 135.413638 
L 119.52035 140.125701 
L 119.594768 140.125701 
L 119.817981 140.125701 
L 119.817981 135.413638 
L 119.892408 135.413638 
L 120.115597 135.413638 
L 120.115597 140.125701 
L 120.190004 140.125701 
L 120.413217 140.125701 
L 120.413217 135.413638 
L 120.487628 135.413638 
L 120.71087 135.413638 
L 120.71087 130.701575 
L 120.785272 130.701575 
L 121.306104 130.701575 
L 121.306104 135.413638 
L 121.380539 135.413638 
L 128.151455 135.413638 
L 128.151455 130.701575 
L 128.225873 130.701575 
L 128.746736 130.701575 
L 128.746736 125.989512 
L 128.821077 125.989512 
L 135.592047 125.989512 
L 135.592047 121.277449 
L 135.666401 121.277449 
L 137.675384 121.277449 
L 137.675384 116.565386 
L 137.749822 116.565386 
L 156.72326 116.565386 
L 156.72326 111.853323 
L 156.797624 111.853323 
L 157.020879 111.853323 
L 157.020879 107.14126 
L 157.095247 107.14126 
L 158.21134 107.14126 
L 158.21134 102.429197 
L 158.285835 102.429197 
L 172.199693 102.429197 
L 172.199693 97.717134 
L 172.274177 97.717134 
L 173.092484 97.717134 
L 173.092484 93.005071 
L 173.166962 93.005071 
L 187.973681 93.005071 
L 187.973681 88.293008 
L 188.048039 88.293008 
L 194.521356 88.293008 
L 194.521356 93.005071 
L 194.595808 93.005071 
L 206.128628 93.005071 
L 206.128628 97.717134 
L 206.203034 97.717134 
L 257.319834 97.717134 
L 257.319834 93.005071 
L 257.394216 93.005071 
L 303.005 93.005071 
L 303.005 93.005071 
" style="fill:none;stroke:#7570b3;stroke-dasharray:4.5,1.5;stroke-dashoffset:0;stroke-width:1.5;"/>
   </g>
   <g id="line2d_32">
    <path clip-path="url(#pef7ebf54ff)" d="M 55.905 210.806645 
L 63.567559 210.806645 
L 63.567559 206.094582 
L 63.641691 206.094582 
L 64.162559 206.094582 
L 64.162559 201.382519 
L 64.236932 201.382519 
L 71.007837 201.382519 
L 71.007837 196.670456 
L 71.082265 196.670456 
L 78.746046 196.670456 
L 78.746046 191.958393 
L 78.820492 191.958393 
L 83.508024 191.958393 
L 83.508024 187.24633 
L 83.582496 187.24633 
L 84.996108 187.24633 
L 84.996108 182.534267 
L 85.070526 182.534267 
L 85.591381 182.534267 
L 85.591381 177.822204 
L 85.665802 177.822204 
L 105.532103 177.822204 
L 105.532103 168.398079 
L 105.606551 168.398079 
L 106.127362 168.398079 
L 106.127362 163.686016 
L 106.201729 163.686016 
L 106.425003 163.686016 
L 106.425003 158.973953 
L 106.499385 158.973953 
L 106.722594 158.973953 
L 106.722594 154.26189 
L 106.796995 154.26189 
L 107.020248 154.26189 
L 107.020248 144.837764 
L 107.094635 144.837764 
L 107.317875 144.837764 
L 107.317875 140.125701 
L 107.39227 140.125701 
L 107.913114 140.125701 
L 107.913114 135.413638 
L 107.987503 135.413638 
L 108.508386 135.413638 
L 108.508386 130.701575 
L 108.582701 130.701575 
L 109.401175 130.701575 
L 109.401175 125.989512 
L 109.475582 125.989512 
L 112.675049 125.989512 
L 112.675049 121.277449 
L 112.74946 121.277449 
L 112.972666 121.277449 
L 112.972666 116.565386 
L 113.047058 116.565386 
L 113.270309 116.565386 
L 113.270309 102.429197 
L 113.344705 102.429197 
L 113.567913 102.429197 
L 113.567913 97.717134 
L 113.642327 97.717134 
L 113.865504 97.717134 
L 113.865504 93.005071 
L 113.939976 93.005071 
L 116.54412 93.005071 
L 116.54412 97.717134 
L 116.618603 97.717134 
L 120.413217 97.717134 
L 120.413217 93.005071 
L 120.487628 93.005071 
L 120.71087 93.005071 
L 120.71087 97.717134 
L 120.785272 97.717134 
L 121.00851 97.717134 
L 121.00851 93.005071 
L 121.082919 93.005071 
L 129.341991 93.005071 
L 129.341991 97.717134 
L 129.416328 97.717134 
L 129.639545 97.717134 
L 129.639545 93.005071 
L 129.713961 93.005071 
L 303.005 93.005071 
L 303.005 93.005071 
" style="fill:none;stroke:#e7298a;stroke-dasharray:4.5,1.5;stroke-dashoffset:0;stroke-width:1.5;"/>
   </g>
   <g id="line2d_33">
    <path clip-path="url(#pef7ebf54ff)" d="M 189.536173 210.806645 
L 192.140352 210.806645 
L 192.140352 206.094582 
L 192.214811 206.094582 
L 201.069103 206.094582 
L 201.069103 201.382519 
L 201.143486 201.382519 
L 205.533463 201.382519 
L 205.533463 182.534267 
L 205.607795 182.534267 
L 206.128628 182.534267 
L 206.128628 173.110142 
L 206.203034 173.110142 
L 206.723895 173.110142 
L 206.723895 158.973953 
L 206.798311 158.973953 
L 207.319131 158.973953 
L 207.319131 154.26189 
L 207.393599 154.26189 
L 213.271653 154.26189 
L 213.271653 149.549827 
L 213.346012 149.549827 
L 214.75975 149.549827 
L 214.75975 144.837764 
L 214.834109 144.837764 
L 215.354964 144.837764 
L 215.354964 140.125701 
L 215.429349 140.125701 
L 215.950213 140.125701 
L 215.950213 135.413638 
L 216.024655 135.413638 
L 216.247846 135.413638 
L 216.247846 130.701575 
L 216.322203 130.701575 
L 220.414587 130.701575 
L 220.414587 125.989512 
L 220.488958 125.989512 
L 223.093145 125.989512 
L 223.093145 121.277449 
L 223.167602 121.277449 
L 228.152731 121.277449 
L 228.152731 116.565386 
L 228.227201 116.565386 
L 303.005 116.565386 
L 303.005 116.565386 
" style="fill:none;stroke:#66a61e;stroke-dasharray:4.5,1.5;stroke-dashoffset:0;stroke-width:1.5;"/>
   </g>
   <g id="line2d_34">
    <path clip-path="url(#pef7ebf54ff)" d="M 55.905 206.094582 
L 70.710217 206.094582 
L 70.710217 196.670456 
L 70.784591 196.670456 
L 77.257902 196.670456 
L 77.257902 187.24633 
L 77.332306 187.24633 
L 77.55551 187.24633 
L 77.55551 182.534267 
L 77.629922 182.534267 
L 78.746046 182.534267 
L 78.746046 177.822204 
L 78.820492 177.822204 
L 79.043661 177.822204 
L 79.043661 173.110142 
L 79.118095 173.110142 
L 106.722594 173.110142 
L 106.722594 168.398079 
L 106.796995 168.398079 
L 107.020248 168.398079 
L 107.020248 163.686016 
L 107.094635 163.686016 
L 107.317875 163.686016 
L 107.317875 158.973953 
L 107.39227 158.973953 
L 108.210679 158.973953 
L 108.210679 154.26189 
L 108.285151 154.26189 
L 108.508386 154.26189 
L 108.508386 158.973953 
L 108.582701 158.973953 
L 112.675049 158.973953 
L 112.675049 140.125701 
L 112.74946 140.125701 
L 113.270309 140.125701 
L 113.270309 130.701575 
L 113.344705 130.701575 
L 113.567913 130.701575 
L 113.567913 125.989512 
L 113.642327 125.989512 
L 113.865504 125.989512 
L 113.865504 116.565386 
L 113.939976 116.565386 
L 303.005 116.565386 
L 303.005 116.565386 
" style="fill:none;stroke:#e6ab02;stroke-dasharray:4.5,1.5;stroke-dashoffset:0;stroke-width:1.5;"/>
   </g>
   <g id="line2d_35">
    <path clip-path="url(#pef7ebf54ff)" d="M 55.905 210.806645 
L 64.757735 210.806645 
L 64.757735 206.094582 
L 64.832173 206.094582 
L 65.948285 206.094582 
L 65.948285 201.382519 
L 66.022648 201.382519 
L 84.698538 201.382519 
L 84.698538 196.670456 
L 84.772897 196.670456 
L 105.532103 196.670456 
L 105.532103 191.958393 
L 105.606551 191.958393 
L 107.615454 191.958393 
L 107.615454 182.534267 
L 107.689845 182.534267 
L 113.270309 182.534267 
L 113.270309 177.822204 
L 113.344705 177.822204 
L 113.567913 177.822204 
L 113.567913 173.110142 
L 113.642327 173.110142 
L 114.460811 173.110142 
L 114.460811 163.686016 
L 114.535221 163.686016 
L 114.758431 163.686016 
L 114.758431 158.973953 
L 114.832826 158.973953 
L 116.54412 158.973953 
L 116.54412 154.26189 
L 116.618603 154.26189 
L 120.115597 154.26189 
L 120.115597 158.973953 
L 120.190004 158.973953 
L 120.71087 158.973953 
L 120.71087 154.26189 
L 120.785272 154.26189 
L 121.00851 154.26189 
L 121.00851 149.549827 
L 121.082919 149.549827 
L 121.603765 149.549827 
L 121.603765 144.837764 
L 121.678182 144.837764 
L 121.901345 144.837764 
L 121.901345 149.549827 
L 121.975752 149.549827 
L 122.199008 149.549827 
L 122.199008 144.837764 
L 122.273411 144.837764 
L 127.258555 144.837764 
L 127.258555 140.125701 
L 127.332982 140.125701 
L 136.782541 140.125701 
L 136.782541 135.413638 
L 136.85696 135.413638 
L 156.72326 135.413638 
L 156.72326 130.701575 
L 156.797624 130.701575 
L 184.997423 130.701575 
L 184.997423 125.989512 
L 185.07188 125.989512 
L 220.414587 125.989512 
L 220.414587 121.277449 
L 220.488958 121.277449 
L 257.915095 121.277449 
L 257.915095 116.565386 
L 257.989483 116.565386 
L 303.005 116.565386 
L 303.005 116.565386 
" style="fill:none;stroke:#a6761d;stroke-dasharray:4.5,1.5;stroke-dashoffset:0;stroke-width:1.5;"/>
   </g>
   <g id="line2d_36">
    <path clip-path="url(#pef7ebf54ff)" d="M 55.905 210.806645 
L 71.305464 210.806645 
L 71.305464 206.094582 
L 71.379854 206.094582 
L 71.603131 206.094582 
L 71.603131 201.382519 
L 71.677518 201.382519 
L 77.55551 201.382519 
L 77.55551 196.670456 
L 77.629922 196.670456 
L 79.043661 196.670456 
L 79.043661 191.958393 
L 79.118095 191.958393 
L 79.638907 191.958393 
L 79.638907 187.24633 
L 79.713328 187.24633 
L 80.234183 187.24633 
L 80.234183 182.534267 
L 80.308594 182.534267 
L 84.698538 182.534267 
L 84.698538 187.24633 
L 84.772897 187.24633 
L 105.829769 187.24633 
L 105.829769 182.534267 
L 105.9041 182.534267 
L 107.615454 182.534267 
L 107.615454 173.110142 
L 107.689845 173.110142 
L 112.972666 173.110142 
L 112.972666 168.398079 
L 113.047058 168.398079 
L 114.163186 168.398079 
L 114.163186 149.549827 
L 114.23758 149.549827 
L 114.460811 149.549827 
L 114.460811 144.837764 
L 114.535221 144.837764 
L 114.758431 144.837764 
L 114.758431 140.125701 
L 114.832826 140.125701 
L 206.128628 140.125701 
L 206.128628 144.837764 
L 206.203034 144.837764 
L 206.426297 144.837764 
L 206.426297 140.125701 
L 206.500732 140.125701 
L 303.005 140.125701 
L 303.005 140.125701 
" style="fill:none;stroke:#666666;stroke-dasharray:4.5,1.5;stroke-dashoffset:0;stroke-width:1.5;"/>
   </g>
   <g id="line2d_37"/>
   <g id="line2d_38"/>
   <g id="line2d_39"/>
   <g id="line2d_40"/>
   <g id="line2d_41"/>
   <g id="line2d_42"/>
   <g id="line2d_43"/>
   <g id="line2d_44"/>
   <g id="line2d_45"/>
   <g id="line2d_46"/>
   <g id="line2d_47"/>
   <g id="line2d_48"/>
   <g id="line2d_49"/>
   <g id="line2d_50"/>
   <g id="line2d_51"/>
   <g id="line2d_52"/>
   <g id="line2d_53"/>
   <g id="patch_3">
    <path d="M 43.55 220.230771 
L 43.55 12.9 
" style="fill:none;stroke:#000000;stroke-linecap:square;stroke-linejoin:miter;stroke-width:0.8;"/>
   </g>
   <g id="patch_4">
    <path d="M 315.36 220.230771 
L 315.36 12.9 
" style="fill:none;stroke:#000000;stroke-linecap:square;stroke-linejoin:miter;stroke-width:0.8;"/>
   </g>
   <g id="patch_5">
    <path d="M 43.55 220.230771 
L 315.36 220.230771 
" style="fill:none;stroke:#000000;stroke-linecap:square;stroke-linejoin:miter;stroke-width:0.8;"/>
   </g>
   <g id="patch_6">
    <path d="M 43.55 12.9 
L 315.36 12.9 
" style="fill:none;stroke:#000000;stroke-linecap:square;stroke-linejoin:miter;stroke-width:0.8;"/>
   </g>
  </g>
  <g id="legend_1">
   <g id="patch_7">
    <path d="M 331.8625 262.528125 
L 420 262.528125 
Q 422 262.528125 422 260.528125 
L 422 12 
Q 422 10 420 10 
L 331.8625 10 
Q 329.8625 10 329.8625 12 
L 329.8625 260.528125 
Q 329.8625 262.528125 331.8625 262.528125 
z
" style="fill:#ffffff;opacity:0.8;stroke:#cccccc;stroke-linejoin:miter;"/>
   </g>
   <g id="text_23">
    <!-- 478/610 Reg. -->
    <defs>
     <path d="M 31.78125 34.625 
Q 24.75 34.625 20.71875 30.859375 
Q 16.703125 27.09375 16.703125 20.515625 
Q 16.703125 13.921875 20.71875 10.15625 
Q 24.75 6.390625 31.78125 6.390625 
Q 38.8125 6.390625 42.859375 10.171875 
Q 46.921875 13.96875 46.921875 20.515625 
Q 46.921875 27.09375 42.890625 30.859375 
Q 38.875 34.625 31.78125 34.625 
z
M 21.921875 38.8125 
Q 15.578125 40.375 12.03125 44.71875 
Q 8.5 49.078125 8.5 55.328125 
Q 8.5 64.0625 14.71875 69.140625 
Q 20.953125 74.21875 31.78125 74.21875 
Q 42.671875 74.21875 48.875 69.140625 
Q 55.078125 64.0625 55.078125 55.328125 
Q 55.078125 49.078125 51.53125 44.71875 
Q 48 40.375 41.703125 38.8125 
Q 48.828125 37.15625 52.796875 32.3125 
Q 56.78125 27.484375 56.78125 20.515625 
Q 56.78125 9.90625 50.3125 4.234375 
Q 43.84375 -1.421875 31.78125 -1.421875 
Q 19.734375 -1.421875 13.25 4.234375 
Q 6.78125 9.90625 6.78125 20.515625 
Q 6.78125 27.484375 10.78125 32.3125 
Q 14.796875 37.15625 21.921875 38.8125 
z
M 18.3125 54.390625 
Q 18.3125 48.734375 21.84375 45.5625 
Q 25.390625 42.390625 31.78125 42.390625 
Q 38.140625 42.390625 41.71875 45.5625 
Q 45.3125 48.734375 45.3125 54.390625 
Q 45.3125 60.0625 41.71875 63.234375 
Q 38.140625 66.40625 31.78125 66.40625 
Q 25.390625 66.40625 21.84375 63.234375 
Q 18.3125 60.0625 18.3125 54.390625 
z
" id="DejaVuSans-56"/>
     <path d="M 25.390625 72.90625 
L 33.6875 72.90625 
L 8.296875 -9.28125 
L 0 -9.28125 
z
" id="DejaVuSans-47"/>
     <path d="M 33.015625 40.375 
Q 26.375 40.375 22.484375 35.828125 
Q 18.609375 31.296875 18.609375 23.390625 
Q 18.609375 15.53125 22.484375 10.953125 
Q 26.375 6.390625 33.015625 6.390625 
Q 39.65625 6.390625 43.53125 10.953125 
Q 47.40625 15.53125 47.40625 23.390625 
Q 47.40625 31.296875 43.53125 35.828125 
Q 39.65625 40.375 33.015625 40.375 
z
M 52.59375 71.296875 
L 52.59375 62.3125 
Q 48.875 64.0625 45.09375 64.984375 
Q 41.3125 65.921875 37.59375 65.921875 
Q 27.828125 65.921875 22.671875 59.328125 
Q 17.53125 52.734375 16.796875 39.40625 
Q 19.671875 43.65625 24.015625 45.921875 
Q 28.375 48.1875 33.59375 48.1875 
Q 44.578125 48.1875 50.953125 41.515625 
Q 57.328125 34.859375 57.328125 23.390625 
Q 57.328125 12.15625 50.6875 5.359375 
Q 44.046875 -1.421875 33.015625 -1.421875 
Q 20.359375 -1.421875 13.671875 8.265625 
Q 6.984375 17.96875 6.984375 36.375 
Q 6.984375 53.65625 15.1875 63.9375 
Q 23.390625 74.21875 37.203125 74.21875 
Q 40.921875 74.21875 44.703125 73.484375 
Q 48.484375 72.75 52.59375 71.296875 
z
" id="DejaVuSans-54"/>
     <path d="M 10.6875 12.40625 
L 21 12.40625 
L 21 0 
L 10.6875 0 
z
" id="DejaVuSans-46"/>
    </defs>
    <g transform="translate(342.259375 21.598437)scale(0.1 -0.1)">
     <use xlink:href="#DejaVuSans-52"/>
     <use x="63.623047" xlink:href="#DejaVuSans-55"/>
     <use x="127.246094" xlink:href="#DejaVuSans-56"/>
     <use x="190.869141" xlink:href="#DejaVuSans-47"/>
     <use x="224.560547" xlink:href="#DejaVuSans-54"/>
     <use x="288.183594" xlink:href="#DejaVuSans-49"/>
     <use x="351.806641" xlink:href="#DejaVuSans-48"/>
     <use x="415.429688" xlink:href="#DejaVuSans-32"/>
     <use x="447.216797" xlink:href="#DejaVuSans-82"/>
     <use x="516.636719" xlink:href="#DejaVuSans-101"/>
     <use x="578.160156" xlink:href="#DejaVuSans-103"/>
     <use x="641.636719" xlink:href="#DejaVuSans-46"/>
    </g>
   </g>
   <g id="line2d_54">
    <path d="M 333.8625 32.776562 
L 353.8625 32.776562 
" style="fill:none;stroke:#1b9e77;stroke-linecap:square;stroke-width:1.5;"/>
   </g>
   <g id="line2d_55"/>
   <g id="text_24">
    <!-- AUS (40) -->
    <defs>
     <path d="M 34.1875 63.1875 
L 20.796875 26.90625 
L 47.609375 26.90625 
z
M 28.609375 72.90625 
L 39.796875 72.90625 
L 67.578125 0 
L 57.328125 0 
L 50.6875 18.703125 
L 17.828125 18.703125 
L 11.1875 0 
L 0.78125 0 
z
" id="DejaVuSans-65"/>
     <path d="M 8.6875 72.90625 
L 18.609375 72.90625 
L 18.609375 28.609375 
Q 18.609375 16.890625 22.84375 11.734375 
Q 27.09375 6.59375 36.625 6.59375 
Q 46.09375 6.59375 50.34375 11.734375 
Q 54.59375 16.890625 54.59375 28.609375 
L 54.59375 72.90625 
L 64.5 72.90625 
L 64.5 27.390625 
Q 64.5 13.140625 57.4375 5.859375 
Q 50.390625 -1.421875 36.625 -1.421875 
Q 22.796875 -1.421875 15.734375 5.859375 
Q 8.6875 13.140625 8.6875 27.390625 
z
" id="DejaVuSans-85"/>
     <path d="M 31 75.875 
Q 24.46875 64.65625 21.28125 53.65625 
Q 18.109375 42.671875 18.109375 31.390625 
Q 18.109375 20.125 21.3125 9.0625 
Q 24.515625 -2 31 -13.1875 
L 23.1875 -13.1875 
Q 15.875 -1.703125 12.234375 9.375 
Q 8.59375 20.453125 8.59375 31.390625 
Q 8.59375 42.28125 12.203125 53.3125 
Q 15.828125 64.359375 23.1875 75.875 
z
" id="DejaVuSans-40"/>
     <path d="M 8.015625 75.875 
L 15.828125 75.875 
Q 23.140625 64.359375 26.78125 53.3125 
Q 30.421875 42.28125 30.421875 31.390625 
Q 30.421875 20.453125 26.78125 9.375 
Q 23.140625 -1.703125 15.828125 -13.1875 
L 8.015625 -13.1875 
Q 14.5 -2 17.703125 9.0625 
Q 20.90625 20.125 20.90625 31.390625 
Q 20.90625 42.671875 17.703125 53.65625 
Q 14.5 64.65625 8.015625 75.875 
z
" id="DejaVuSans-41"/>
    </defs>
    <g transform="translate(361.8625 36.276562)scale(0.1 -0.1)">
     <use xlink:href="#DejaVuSans-65"/>
     <use x="68.408203" xlink:href="#DejaVuSans-85"/>
     <use x="141.601562" xlink:href="#DejaVuSans-83"/>
     <use x="205.078125" xlink:href="#DejaVuSans-32"/>
     <use x="236.865234" xlink:href="#DejaVuSans-40"/>
     <use x="275.878906" xlink:href="#DejaVuSans-52"/>
     <use x="339.501953" xlink:href="#DejaVuSans-48"/>
     <use x="403.125" xlink:href="#DejaVuSans-41"/>
    </g>
   </g>
   <g id="line2d_56">
    <path d="M 333.8625 47.454688 
L 353.8625 47.454688 
" style="fill:none;stroke:#d95f02;stroke-linecap:square;stroke-width:1.5;"/>
   </g>
   <g id="line2d_57"/>
   <g id="text_25">
    <!-- COML (40) -->
    <defs>
     <path d="M 64.40625 67.28125 
L 64.40625 56.890625 
Q 59.421875 61.53125 53.78125 63.8125 
Q 48.140625 66.109375 41.796875 66.109375 
Q 29.296875 66.109375 22.65625 58.46875 
Q 16.015625 50.828125 16.015625 36.375 
Q 16.015625 21.96875 22.65625 14.328125 
Q 29.296875 6.6875 41.796875 6.6875 
Q 48.140625 6.6875 53.78125 8.984375 
Q 59.421875 11.28125 64.40625 15.921875 
L 64.40625 5.609375 
Q 59.234375 2.09375 53.4375 0.328125 
Q 47.65625 -1.421875 41.21875 -1.421875 
Q 24.65625 -1.421875 15.125 8.703125 
Q 5.609375 18.84375 5.609375 36.375 
Q 5.609375 53.953125 15.125 64.078125 
Q 24.65625 74.21875 41.21875 74.21875 
Q 47.75 74.21875 53.53125 72.484375 
Q 59.328125 70.75 64.40625 67.28125 
z
" id="DejaVuSans-67"/>
     <path d="M 39.40625 66.21875 
Q 28.65625 66.21875 22.328125 58.203125 
Q 16.015625 50.203125 16.015625 36.375 
Q 16.015625 22.609375 22.328125 14.59375 
Q 28.65625 6.59375 39.40625 6.59375 
Q 50.140625 6.59375 56.421875 14.59375 
Q 62.703125 22.609375 62.703125 36.375 
Q 62.703125 50.203125 56.421875 58.203125 
Q 50.140625 66.21875 39.40625 66.21875 
z
M 39.40625 74.21875 
Q 54.734375 74.21875 63.90625 63.9375 
Q 73.09375 53.65625 73.09375 36.375 
Q 73.09375 19.140625 63.90625 8.859375 
Q 54.734375 -1.421875 39.40625 -1.421875 
Q 24.03125 -1.421875 14.8125 8.828125 
Q 5.609375 19.09375 5.609375 36.375 
Q 5.609375 53.65625 14.8125 63.9375 
Q 24.03125 74.21875 39.40625 74.21875 
z
" id="DejaVuSans-79"/>
     <path d="M 9.8125 72.90625 
L 24.515625 72.90625 
L 43.109375 23.296875 
L 61.8125 72.90625 
L 76.515625 72.90625 
L 76.515625 0 
L 66.890625 0 
L 66.890625 64.015625 
L 48.09375 14.015625 
L 38.1875 14.015625 
L 19.390625 64.015625 
L 19.390625 0 
L 9.8125 0 
z
" id="DejaVuSans-77"/>
     <path d="M 9.8125 72.90625 
L 19.671875 72.90625 
L 19.671875 8.296875 
L 55.171875 8.296875 
L 55.171875 0 
L 9.8125 0 
z
" id="DejaVuSans-76"/>
    </defs>
    <g transform="translate(361.8625 50.954688)scale(0.1 -0.1)">
     <use xlink:href="#DejaVuSans-67"/>
     <use x="69.824219" xlink:href="#DejaVuSans-79"/>
     <use x="148.535156" xlink:href="#DejaVuSans-77"/>
     <use x="234.814453" xlink:href="#DejaVuSans-76"/>
     <use x="290.527344" xlink:href="#DejaVuSans-32"/>
     <use x="322.314453" xlink:href="#DejaVuSans-40"/>
     <use x="361.328125" xlink:href="#DejaVuSans-52"/>
     <use x="424.951172" xlink:href="#DejaVuSans-48"/>
     <use x="488.574219" xlink:href="#DejaVuSans-41"/>
    </g>
   </g>
   <g id="line2d_58">
    <path d="M 333.8625 62.132812 
L 353.8625 62.132812 
" style="fill:none;stroke:#7570b3;stroke-linecap:square;stroke-width:1.5;"/>
   </g>
   <g id="line2d_59"/>
   <g id="text_26">
    <!-- GDD (40) -->
    <defs>
     <path d="M 59.515625 10.40625 
L 59.515625 29.984375 
L 43.40625 29.984375 
L 43.40625 38.09375 
L 69.28125 38.09375 
L 69.28125 6.78125 
Q 63.578125 2.734375 56.6875 0.65625 
Q 49.8125 -1.421875 42 -1.421875 
Q 24.90625 -1.421875 15.25 8.5625 
Q 5.609375 18.5625 5.609375 36.375 
Q 5.609375 54.25 15.25 64.234375 
Q 24.90625 74.21875 42 74.21875 
Q 49.125 74.21875 55.546875 72.453125 
Q 61.96875 70.703125 67.390625 67.28125 
L 67.390625 56.78125 
Q 61.921875 61.421875 55.765625 63.765625 
Q 49.609375 66.109375 42.828125 66.109375 
Q 29.4375 66.109375 22.71875 58.640625 
Q 16.015625 51.171875 16.015625 36.375 
Q 16.015625 21.625 22.71875 14.15625 
Q 29.4375 6.6875 42.828125 6.6875 
Q 48.046875 6.6875 52.140625 7.59375 
Q 56.25 8.5 59.515625 10.40625 
z
" id="DejaVuSans-71"/>
    </defs>
    <g transform="translate(361.8625 65.632812)scale(0.1 -0.1)">
     <use xlink:href="#DejaVuSans-71"/>
     <use x="77.490234" xlink:href="#DejaVuSans-68"/>
     <use x="154.492188" xlink:href="#DejaVuSans-68"/>
     <use x="231.494141" xlink:href="#DejaVuSans-32"/>
     <use x="263.28125" xlink:href="#DejaVuSans-40"/>
     <use x="302.294922" xlink:href="#DejaVuSans-52"/>
     <use x="365.917969" xlink:href="#DejaVuSans-48"/>
     <use x="429.541016" xlink:href="#DejaVuSans-41"/>
    </g>
   </g>
   <g id="line2d_60">
    <path d="M 333.8625 76.810937 
L 353.8625 76.810937 
" style="fill:none;stroke:#e7298a;stroke-linecap:square;stroke-width:1.5;"/>
   </g>
   <g id="line2d_61"/>
   <g id="text_27">
    <!-- AS (38) -->
    <g transform="translate(361.8625 80.310937)scale(0.1 -0.1)">
     <use xlink:href="#DejaVuSans-65"/>
     <use x="68.408203" xlink:href="#DejaVuSans-83"/>
     <use x="131.884766" xlink:href="#DejaVuSans-32"/>
     <use x="163.671875" xlink:href="#DejaVuSans-40"/>
     <use x="202.685547" xlink:href="#DejaVuSans-51"/>
     <use x="266.308594" xlink:href="#DejaVuSans-56"/>
     <use x="329.931641" xlink:href="#DejaVuSans-41"/>
    </g>
   </g>
   <g id="line2d_62">
    <path d="M 333.8625 91.489062 
L 353.8625 91.489062 
" style="fill:none;stroke:#66a61e;stroke-linecap:square;stroke-width:1.5;"/>
   </g>
   <g id="line2d_63"/>
   <g id="text_28">
    <!-- MD (38) -->
    <g transform="translate(361.8625 94.989062)scale(0.1 -0.1)">
     <use xlink:href="#DejaVuSans-77"/>
     <use x="86.279297" xlink:href="#DejaVuSans-68"/>
     <use x="163.28125" xlink:href="#DejaVuSans-32"/>
     <use x="195.068359" xlink:href="#DejaVuSans-40"/>
     <use x="234.082031" xlink:href="#DejaVuSans-51"/>
     <use x="297.705078" xlink:href="#DejaVuSans-56"/>
     <use x="361.328125" xlink:href="#DejaVuSans-41"/>
    </g>
   </g>
   <g id="line2d_64">
    <path d="M 333.8625 106.167188 
L 353.8625 106.167188 
" style="fill:none;stroke:#e6ab02;stroke-linecap:square;stroke-width:1.5;"/>
   </g>
   <g id="line2d_65"/>
   <g id="text_29">
    <!-- HPI (38) -->
    <defs>
     <path d="M 9.8125 72.90625 
L 19.671875 72.90625 
L 19.671875 43.015625 
L 55.515625 43.015625 
L 55.515625 72.90625 
L 65.375 72.90625 
L 65.375 0 
L 55.515625 0 
L 55.515625 34.71875 
L 19.671875 34.71875 
L 19.671875 0 
L 9.8125 0 
z
" id="DejaVuSans-72"/>
     <path d="M 19.671875 64.796875 
L 19.671875 37.40625 
L 32.078125 37.40625 
Q 38.96875 37.40625 42.71875 40.96875 
Q 46.484375 44.53125 46.484375 51.125 
Q 46.484375 57.671875 42.71875 61.234375 
Q 38.96875 64.796875 32.078125 64.796875 
z
M 9.8125 72.90625 
L 32.078125 72.90625 
Q 44.34375 72.90625 50.609375 67.359375 
Q 56.890625 61.8125 56.890625 51.125 
Q 56.890625 40.328125 50.609375 34.8125 
Q 44.34375 29.296875 32.078125 29.296875 
L 19.671875 29.296875 
L 19.671875 0 
L 9.8125 0 
z
" id="DejaVuSans-80"/>
     <path d="M 9.8125 72.90625 
L 19.671875 72.90625 
L 19.671875 0 
L 9.8125 0 
z
" id="DejaVuSans-73"/>
    </defs>
    <g transform="translate(361.8625 109.667188)scale(0.1 -0.1)">
     <use xlink:href="#DejaVuSans-72"/>
     <use x="75.195312" xlink:href="#DejaVuSans-80"/>
     <use x="135.498047" xlink:href="#DejaVuSans-73"/>
     <use x="164.990234" xlink:href="#DejaVuSans-32"/>
     <use x="196.777344" xlink:href="#DejaVuSans-40"/>
     <use x="235.791016" xlink:href="#DejaVuSans-51"/>
     <use x="299.414062" xlink:href="#DejaVuSans-56"/>
     <use x="363.037109" xlink:href="#DejaVuSans-41"/>
    </g>
   </g>
   <g id="line2d_66">
    <path d="M 333.8625 120.845312 
L 353.8625 120.845312 
" style="fill:none;stroke:#a6761d;stroke-linecap:square;stroke-width:1.5;"/>
   </g>
   <g id="line2d_67"/>
   <g id="text_30">
    <!-- SA (37) -->
    <g transform="translate(361.8625 124.345312)scale(0.1 -0.1)">
     <use xlink:href="#DejaVuSans-83"/>
     <use x="63.492188" xlink:href="#DejaVuSans-65"/>
     <use x="131.900391" xlink:href="#DejaVuSans-32"/>
     <use x="163.6875" xlink:href="#DejaVuSans-40"/>
     <use x="202.701172" xlink:href="#DejaVuSans-51"/>
     <use x="266.324219" xlink:href="#DejaVuSans-55"/>
     <use x="329.947266" xlink:href="#DejaVuSans-41"/>
    </g>
   </g>
   <g id="line2d_68">
    <path d="M 333.8625 135.523438 
L 353.8625 135.523438 
" style="fill:none;stroke:#666666;stroke-linecap:square;stroke-width:1.5;"/>
   </g>
   <g id="line2d_69"/>
   <g id="text_31">
    <!-- FIT (29) -->
    <defs>
     <path d="M 9.8125 72.90625 
L 51.703125 72.90625 
L 51.703125 64.59375 
L 19.671875 64.59375 
L 19.671875 43.109375 
L 48.578125 43.109375 
L 48.578125 34.8125 
L 19.671875 34.8125 
L 19.671875 0 
L 9.8125 0 
z
" id="DejaVuSans-70"/>
     <path d="M -0.296875 72.90625 
L 61.375 72.90625 
L 61.375 64.59375 
L 35.5 64.59375 
L 35.5 0 
L 25.59375 0 
L 25.59375 64.59375 
L -0.296875 64.59375 
z
" id="DejaVuSans-84"/>
    </defs>
    <g transform="translate(361.8625 139.023438)scale(0.1 -0.1)">
     <use xlink:href="#DejaVuSans-70"/>
     <use x="57.519531" xlink:href="#DejaVuSans-73"/>
     <use x="87.011719" xlink:href="#DejaVuSans-84"/>
     <use x="148.095703" xlink:href="#DejaVuSans-32"/>
     <use x="179.882812" xlink:href="#DejaVuSans-40"/>
     <use x="218.896484" xlink:href="#DejaVuSans-50"/>
     <use x="282.519531" xlink:href="#DejaVuSans-57"/>
     <use x="346.142578" xlink:href="#DejaVuSans-41"/>
    </g>
   </g>
   <g id="line2d_70">
    <path d="M 333.8625 150.201562 
L 353.8625 150.201562 
" style="fill:none;stroke:#1b9e77;stroke-dasharray:4.5,1.5;stroke-dashoffset:0;stroke-width:1.5;"/>
   </g>
   <g id="line2d_71"/>
   <g id="text_32">
    <!-- TBI (27) -->
    <defs>
     <path d="M 19.671875 34.8125 
L 19.671875 8.109375 
L 35.5 8.109375 
Q 43.453125 8.109375 47.28125 11.40625 
Q 51.125 14.703125 51.125 21.484375 
Q 51.125 28.328125 47.28125 31.5625 
Q 43.453125 34.8125 35.5 34.8125 
z
M 19.671875 64.796875 
L 19.671875 42.828125 
L 34.28125 42.828125 
Q 41.5 42.828125 45.03125 45.53125 
Q 48.578125 48.25 48.578125 53.8125 
Q 48.578125 59.328125 45.03125 62.0625 
Q 41.5 64.796875 34.28125 64.796875 
z
M 9.8125 72.90625 
L 35.015625 72.90625 
Q 46.296875 72.90625 52.390625 68.21875 
Q 58.5 63.53125 58.5 54.890625 
Q 58.5 48.1875 55.375 44.234375 
Q 52.25 40.28125 46.1875 39.3125 
Q 53.46875 37.75 57.5 32.78125 
Q 61.53125 27.828125 61.53125 20.40625 
Q 61.53125 10.640625 54.890625 5.3125 
Q 48.25 0 35.984375 0 
L 9.8125 0 
z
" id="DejaVuSans-66"/>
    </defs>
    <g transform="translate(361.8625 153.701562)scale(0.1 -0.1)">
     <use xlink:href="#DejaVuSans-84"/>
     <use x="61.083984" xlink:href="#DejaVuSans-66"/>
     <use x="129.6875" xlink:href="#DejaVuSans-73"/>
     <use x="159.179688" xlink:href="#DejaVuSans-32"/>
     <use x="190.966797" xlink:href="#DejaVuSans-40"/>
     <use x="229.980469" xlink:href="#DejaVuSans-50"/>
     <use x="293.603516" xlink:href="#DejaVuSans-55"/>
     <use x="357.226562" xlink:href="#DejaVuSans-41"/>
    </g>
   </g>
   <g id="line2d_72">
    <path d="M 333.8625 164.879687 
L 353.8625 164.879687 
" style="fill:none;stroke:#d95f02;stroke-dasharray:4.5,1.5;stroke-dashoffset:0;stroke-width:1.5;"/>
   </g>
   <g id="line2d_73"/>
   <g id="text_33">
    <!-- BP (26) -->
    <g transform="translate(361.8625 168.379687)scale(0.1 -0.1)">
     <use xlink:href="#DejaVuSans-66"/>
     <use x="68.603516" xlink:href="#DejaVuSans-80"/>
     <use x="128.90625" xlink:href="#DejaVuSans-32"/>
     <use x="160.693359" xlink:href="#DejaVuSans-40"/>
     <use x="199.707031" xlink:href="#DejaVuSans-50"/>
     <use x="263.330078" xlink:href="#DejaVuSans-54"/>
     <use x="326.953125" xlink:href="#DejaVuSans-41"/>
    </g>
   </g>
   <g id="line2d_74">
    <path d="M 333.8625 179.557812 
L 353.8625 179.557812 
" style="fill:none;stroke:#7570b3;stroke-dasharray:4.5,1.5;stroke-dashoffset:0;stroke-width:1.5;"/>
   </g>
   <g id="line2d_75"/>
   <g id="text_34">
    <!-- SPD (25) -->
    <g transform="translate(361.8625 183.057812)scale(0.1 -0.1)">
     <use xlink:href="#DejaVuSans-83"/>
     <use x="63.476562" xlink:href="#DejaVuSans-80"/>
     <use x="123.779297" xlink:href="#DejaVuSans-68"/>
     <use x="200.78125" xlink:href="#DejaVuSans-32"/>
     <use x="232.568359" xlink:href="#DejaVuSans-40"/>
     <use x="271.582031" xlink:href="#DejaVuSans-50"/>
     <use x="335.205078" xlink:href="#DejaVuSans-53"/>
     <use x="398.828125" xlink:href="#DejaVuSans-41"/>
    </g>
   </g>
   <g id="line2d_76">
    <path d="M 333.8625 194.235937 
L 353.8625 194.235937 
" style="fill:none;stroke:#e7298a;stroke-dasharray:4.5,1.5;stroke-dashoffset:0;stroke-width:1.5;"/>
   </g>
   <g id="line2d_77"/>
   <g id="text_35">
    <!-- CC (25) -->
    <g transform="translate(361.8625 197.735937)scale(0.1 -0.1)">
     <use xlink:href="#DejaVuSans-67"/>
     <use x="69.824219" xlink:href="#DejaVuSans-67"/>
     <use x="139.648438" xlink:href="#DejaVuSans-32"/>
     <use x="171.435547" xlink:href="#DejaVuSans-40"/>
     <use x="210.449219" xlink:href="#DejaVuSans-50"/>
     <use x="274.072266" xlink:href="#DejaVuSans-53"/>
     <use x="337.695312" xlink:href="#DejaVuSans-41"/>
    </g>
   </g>
   <g id="line2d_78">
    <path d="M 333.8625 208.914062 
L 353.8625 208.914062 
" style="fill:none;stroke:#66a61e;stroke-dasharray:4.5,1.5;stroke-dashoffset:0;stroke-width:1.5;"/>
   </g>
   <g id="line2d_79"/>
   <g id="text_36">
    <!-- RJPH (20) -->
    <defs>
     <path d="M 9.8125 72.90625 
L 19.671875 72.90625 
L 19.671875 5.078125 
Q 19.671875 -8.109375 14.671875 -14.0625 
Q 9.671875 -20.015625 -1.421875 -20.015625 
L -5.171875 -20.015625 
L -5.171875 -11.71875 
L -2.09375 -11.71875 
Q 4.4375 -11.71875 7.125 -8.046875 
Q 9.8125 -4.390625 9.8125 5.078125 
z
" id="DejaVuSans-74"/>
    </defs>
    <g transform="translate(361.8625 212.414062)scale(0.1 -0.1)">
     <use xlink:href="#DejaVuSans-82"/>
     <use x="69.482422" xlink:href="#DejaVuSans-74"/>
     <use x="98.974609" xlink:href="#DejaVuSans-80"/>
     <use x="159.277344" xlink:href="#DejaVuSans-72"/>
     <use x="234.472656" xlink:href="#DejaVuSans-32"/>
     <use x="266.259766" xlink:href="#DejaVuSans-40"/>
     <use x="305.273438" xlink:href="#DejaVuSans-50"/>
     <use x="368.896484" xlink:href="#DejaVuSans-48"/>
     <use x="432.519531" xlink:href="#DejaVuSans-41"/>
    </g>
   </g>
   <g id="line2d_80">
    <path d="M 333.8625 223.592187 
L 353.8625 223.592187 
" style="fill:none;stroke:#e6ab02;stroke-dasharray:4.5,1.5;stroke-dashoffset:0;stroke-width:1.5;"/>
   </g>
   <g id="line2d_81"/>
   <g id="text_37">
    <!-- AHR-H (20) -->
    <g transform="translate(361.8625 227.092187)scale(0.1 -0.1)">
     <use xlink:href="#DejaVuSans-65"/>
     <use x="68.408203" xlink:href="#DejaVuSans-72"/>
     <use x="143.603516" xlink:href="#DejaVuSans-82"/>
     <use x="213.023438" xlink:href="#DejaVuSans-45"/>
     <use x="249.107422" xlink:href="#DejaVuSans-72"/>
     <use x="324.302734" xlink:href="#DejaVuSans-32"/>
     <use x="356.089844" xlink:href="#DejaVuSans-40"/>
     <use x="395.103516" xlink:href="#DejaVuSans-50"/>
     <use x="458.726562" xlink:href="#DejaVuSans-48"/>
     <use x="522.349609" xlink:href="#DejaVuSans-41"/>
    </g>
   </g>
   <g id="line2d_82">
    <path d="M 333.8625 238.270312 
L 353.8625 238.270312 
" style="fill:none;stroke:#a6761d;stroke-dasharray:4.5,1.5;stroke-dashoffset:0;stroke-width:1.5;"/>
   </g>
   <g id="line2d_83"/>
   <g id="text_38">
    <!-- CB (20) -->
    <g transform="translate(361.8625 241.770312)scale(0.1 -0.1)">
     <use xlink:href="#DejaVuSans-67"/>
     <use x="69.824219" xlink:href="#DejaVuSans-66"/>
     <use x="138.427734" xlink:href="#DejaVuSans-32"/>
     <use x="170.214844" xlink:href="#DejaVuSans-40"/>
     <use x="209.228516" xlink:href="#DejaVuSans-50"/>
     <use x="272.851562" xlink:href="#DejaVuSans-48"/>
     <use x="336.474609" xlink:href="#DejaVuSans-41"/>
    </g>
   </g>
   <g id="line2d_84">
    <path d="M 333.8625 252.948437 
L 353.8625 252.948437 
" style="fill:none;stroke:#666666;stroke-dasharray:4.5,1.5;stroke-dashoffset:0;stroke-width:1.5;"/>
   </g>
   <g id="line2d_85"/>
   <g id="text_39">
    <!-- AHR-A (15) -->
    <g transform="translate(361.8625 256.448437)scale(0.1 -0.1)">
     <use xlink:href="#DejaVuSans-65"/>
     <use x="68.408203" xlink:href="#DejaVuSans-72"/>
     <use x="143.603516" xlink:href="#DejaVuSans-82"/>
     <use x="213.023438" xlink:href="#DejaVuSans-45"/>
     <use x="249.076172" xlink:href="#DejaVuSans-65"/>
     <use x="317.484375" xlink:href="#DejaVuSans-32"/>
     <use x="349.271484" xlink:href="#DejaVuSans-40"/>
     <use x="388.285156" xlink:href="#DejaVuSans-49"/>
     <use x="451.908203" xlink:href="#DejaVuSans-53"/>
     <use x="515.53125" xlink:href="#DejaVuSans-41"/>
    </g>
   </g>
  </g>
 </g>
 <defs>
  <clipPath id="pef7ebf54ff">
   <rect height="207.330771" width="271.81" x="43.55" y="12.9"/>
  </clipPath>
 </defs>
</svg>
