<?xml version="1.0" encoding="utf-8" standalone="no"?>
<!DOCTYPE svg PUBLIC "-//W3C//DTD SVG 1.1//EN"
  "http://www.w3.org/Graphics/SVG/1.1/DTD/svg11.dtd">
<!-- Created with matplotlib (https://matplotlib.org/) -->
<svg height="288pt" version="1.1" viewBox="0 0 432 288" width="432pt" xmlns="http://www.w3.org/2000/svg" xmlns:xlink="http://www.w3.org/1999/xlink">
 <defs>
  <style type="text/css">
*{stroke-linecap:butt;stroke-linejoin:round;}
  </style>
 </defs>
 <g id="figure_1">
  <g id="patch_1">
   <path d="M 0 288 
L 432 288 
L 432 0 
L 0 0 
z
" style="fill:#ffffff;"/>
  </g>
  <g id="axes_1">
   <g id="patch_2">
    <path d="M 43.55 220.230771 
L 315.36 220.230771 
L 315.36 12.9 
L 43.55 12.9 
z
" style="fill:#ffffff;"/>
   </g>
   <g id="matplotlib.axis_1">
    <g id="xtick_1">
     <g id="line2d_1">
      <defs>
       <path d="M 0 0 
L 0 3.5 
" id="m8ba37b0088" style="stroke:#000000;stroke-width:0.8;"/>
      </defs>
      <g>
       <use style="stroke:#000000;stroke-width:0.8;" x="46.181227" xlink:href="#m8ba37b0088" y="220.230771"/>
      </g>
     </g>
     <g id="text_1">
      <!-- 2020-11-29 -->
      <defs>
       <path d="M 19.1875 8.296875 
L 53.609375 8.296875 
L 53.609375 0 
L 7.328125 0 
L 7.328125 8.296875 
Q 12.9375 14.109375 22.625 23.890625 
Q 32.328125 33.6875 34.8125 36.53125 
Q 39.546875 41.84375 41.421875 45.53125 
Q 43.3125 49.21875 43.3125 52.78125 
Q 43.3125 58.59375 39.234375 62.25 
Q 35.15625 65.921875 28.609375 65.921875 
Q 23.96875 65.921875 18.8125 64.3125 
Q 13.671875 62.703125 7.8125 59.421875 
L 7.8125 69.390625 
Q 13.765625 71.78125 18.9375 73 
Q 24.125 74.21875 28.421875 74.21875 
Q 39.75 74.21875 46.484375 68.546875 
Q 53.21875 62.890625 53.21875 53.421875 
Q 53.21875 48.921875 51.53125 44.890625 
Q 49.859375 40.875 45.40625 35.40625 
Q 44.1875 33.984375 37.640625 27.21875 
Q 31.109375 20.453125 19.1875 8.296875 
z
" id="DejaVuSans-50"/>
       <path d="M 31.78125 66.40625 
Q 24.171875 66.40625 20.328125 58.90625 
Q 16.5 51.421875 16.5 36.375 
Q 16.5 21.390625 20.328125 13.890625 
Q 24.171875 6.390625 31.78125 6.390625 
Q 39.453125 6.390625 43.28125 13.890625 
Q 47.125 21.390625 47.125 36.375 
Q 47.125 51.421875 43.28125 58.90625 
Q 39.453125 66.40625 31.78125 66.40625 
z
M 31.78125 74.21875 
Q 44.046875 74.21875 50.515625 64.515625 
Q 56.984375 54.828125 56.984375 36.375 
Q 56.984375 17.96875 50.515625 8.265625 
Q 44.046875 -1.421875 31.78125 -1.421875 
Q 19.53125 -1.421875 13.0625 8.265625 
Q 6.59375 17.96875 6.59375 36.375 
Q 6.59375 54.828125 13.0625 64.515625 
Q 19.53125 74.21875 31.78125 74.21875 
z
" id="DejaVuSans-48"/>
       <path d="M 4.890625 31.390625 
L 31.203125 31.390625 
L 31.203125 23.390625 
L 4.890625 23.390625 
z
" id="DejaVuSans-45"/>
       <path d="M 12.40625 8.296875 
L 28.515625 8.296875 
L 28.515625 63.921875 
L 10.984375 60.40625 
L 10.984375 69.390625 
L 28.421875 72.90625 
L 38.28125 72.90625 
L 38.28125 8.296875 
L 54.390625 8.296875 
L 54.390625 0 
L 12.40625 0 
z
" id="DejaVuSans-49"/>
       <path d="M 10.984375 1.515625 
L 10.984375 10.5 
Q 14.703125 8.734375 18.5 7.8125 
Q 22.3125 6.890625 25.984375 6.890625 
Q 35.75 6.890625 40.890625 13.453125 
Q 46.046875 20.015625 46.78125 33.40625 
Q 43.953125 29.203125 39.59375 26.953125 
Q 35.25 24.703125 29.984375 24.703125 
Q 19.046875 24.703125 12.671875 31.3125 
Q 6.296875 37.9375 6.296875 49.421875 
Q 6.296875 60.640625 12.9375 67.421875 
Q 19.578125 74.21875 30.609375 74.21875 
Q 43.265625 74.21875 49.921875 64.515625 
Q 56.59375 54.828125 56.59375 36.375 
Q 56.59375 19.140625 48.40625 8.859375 
Q 40.234375 -1.421875 26.421875 -1.421875 
Q 22.703125 -1.421875 18.890625 -0.6875 
Q 15.09375 0.046875 10.984375 1.515625 
z
M 30.609375 32.421875 
Q 37.25 32.421875 41.125 36.953125 
Q 45.015625 41.5 45.015625 49.421875 
Q 45.015625 57.28125 41.125 61.84375 
Q 37.25 66.40625 30.609375 66.40625 
Q 23.96875 66.40625 20.09375 61.84375 
Q 16.21875 57.28125 16.21875 49.421875 
Q 16.21875 41.5 20.09375 36.953125 
Q 23.96875 32.421875 30.609375 32.421875 
z
" id="DejaVuSans-57"/>
      </defs>
      <g transform="translate(22.39611 262.869024)rotate(-30)scale(0.1 -0.1)">
       <use xlink:href="#DejaVuSans-50"/>
       <use x="63.623047" xlink:href="#DejaVuSans-48"/>
       <use x="127.246094" xlink:href="#DejaVuSans-50"/>
       <use x="190.869141" xlink:href="#DejaVuSans-48"/>
       <use x="254.492188" xlink:href="#DejaVuSans-45"/>
       <use x="290.576172" xlink:href="#DejaVuSans-49"/>
       <use x="354.199219" xlink:href="#DejaVuSans-49"/>
       <use x="417.822266" xlink:href="#DejaVuSans-45"/>
       <use x="453.90625" xlink:href="#DejaVuSans-50"/>
       <use x="517.529297" xlink:href="#DejaVuSans-57"/>
      </g>
     </g>
    </g>
    <g id="xtick_2">
     <g id="line2d_2">
      <g>
       <use style="stroke:#000000;stroke-width:0.8;" x="59.609892" xlink:href="#m8ba37b0088" y="220.230771"/>
      </g>
     </g>
     <g id="text_2">
      <!-- 2020-12-01 -->
      <g transform="translate(35.824775 262.869024)rotate(-30)scale(0.1 -0.1)">
       <use xlink:href="#DejaVuSans-50"/>
       <use x="63.623047" xlink:href="#DejaVuSans-48"/>
       <use x="127.246094" xlink:href="#DejaVuSans-50"/>
       <use x="190.869141" xlink:href="#DejaVuSans-48"/>
       <use x="254.492188" xlink:href="#DejaVuSans-45"/>
       <use x="290.576172" xlink:href="#DejaVuSans-49"/>
       <use x="354.199219" xlink:href="#DejaVuSans-50"/>
       <use x="417.822266" xlink:href="#DejaVuSans-45"/>
       <use x="453.90625" xlink:href="#DejaVuSans-48"/>
       <use x="517.529297" xlink:href="#DejaVuSans-49"/>
      </g>
     </g>
    </g>
    <g id="xtick_3">
     <g id="line2d_3">
      <g>
       <use style="stroke:#000000;stroke-width:0.8;" x="86.467222" xlink:href="#m8ba37b0088" y="220.230771"/>
      </g>
     </g>
     <g id="text_3">
      <!-- 2020-12-05 -->
      <defs>
       <path d="M 10.796875 72.90625 
L 49.515625 72.90625 
L 49.515625 64.59375 
L 19.828125 64.59375 
L 19.828125 46.734375 
Q 21.96875 47.46875 24.109375 47.828125 
Q 26.265625 48.1875 28.421875 48.1875 
Q 40.625 48.1875 47.75 41.5 
Q 54.890625 34.8125 54.890625 23.390625 
Q 54.890625 11.625 47.5625 5.09375 
Q 40.234375 -1.421875 26.90625 -1.421875 
Q 22.3125 -1.421875 17.546875 -0.640625 
Q 12.796875 0.140625 7.71875 1.703125 
L 7.71875 11.625 
Q 12.109375 9.234375 16.796875 8.0625 
Q 21.484375 6.890625 26.703125 6.890625 
Q 35.15625 6.890625 40.078125 11.328125 
Q 45.015625 15.765625 45.015625 23.390625 
Q 45.015625 31 40.078125 35.4375 
Q 35.15625 39.890625 26.703125 39.890625 
Q 22.75 39.890625 18.8125 39.015625 
Q 14.890625 38.140625 10.796875 36.28125 
z
" id="DejaVuSans-53"/>
      </defs>
      <g transform="translate(62.682105 262.869024)rotate(-30)scale(0.1 -0.1)">
       <use xlink:href="#DejaVuSans-50"/>
       <use x="63.623047" xlink:href="#DejaVuSans-48"/>
       <use x="127.246094" xlink:href="#DejaVuSans-50"/>
       <use x="190.869141" xlink:href="#DejaVuSans-48"/>
       <use x="254.492188" xlink:href="#DejaVuSans-45"/>
       <use x="290.576172" xlink:href="#DejaVuSans-49"/>
       <use x="354.199219" xlink:href="#DejaVuSans-50"/>
       <use x="417.822266" xlink:href="#DejaVuSans-45"/>
       <use x="453.90625" xlink:href="#DejaVuSans-48"/>
       <use x="517.529297" xlink:href="#DejaVuSans-53"/>
      </g>
     </g>
    </g>
    <g id="xtick_4">
     <g id="line2d_4">
      <g>
       <use style="stroke:#000000;stroke-width:0.8;" x="113.324552" xlink:href="#m8ba37b0088" y="220.230771"/>
      </g>
     </g>
     <g id="text_4">
      <!-- 2020-12-09 -->
      <g transform="translate(89.539435 262.869024)rotate(-30)scale(0.1 -0.1)">
       <use xlink:href="#DejaVuSans-50"/>
       <use x="63.623047" xlink:href="#DejaVuSans-48"/>
       <use x="127.246094" xlink:href="#DejaVuSans-50"/>
       <use x="190.869141" xlink:href="#DejaVuSans-48"/>
       <use x="254.492188" xlink:href="#DejaVuSans-45"/>
       <use x="290.576172" xlink:href="#DejaVuSans-49"/>
       <use x="354.199219" xlink:href="#DejaVuSans-50"/>
       <use x="417.822266" xlink:href="#DejaVuSans-45"/>
       <use x="453.90625" xlink:href="#DejaVuSans-48"/>
       <use x="517.529297" xlink:href="#DejaVuSans-57"/>
      </g>
     </g>
    </g>
    <g id="xtick_5">
     <g id="line2d_5">
      <g>
       <use style="stroke:#000000;stroke-width:0.8;" x="140.181882" xlink:href="#m8ba37b0088" y="220.230771"/>
      </g>
     </g>
     <g id="text_5">
      <!-- 2020-12-13 -->
      <defs>
       <path d="M 40.578125 39.3125 
Q 47.65625 37.796875 51.625 33 
Q 55.609375 28.21875 55.609375 21.1875 
Q 55.609375 10.40625 48.1875 4.484375 
Q 40.765625 -1.421875 27.09375 -1.421875 
Q 22.515625 -1.421875 17.65625 -0.515625 
Q 12.796875 0.390625 7.625 2.203125 
L 7.625 11.71875 
Q 11.71875 9.328125 16.59375 8.109375 
Q 21.484375 6.890625 26.8125 6.890625 
Q 36.078125 6.890625 40.9375 10.546875 
Q 45.796875 14.203125 45.796875 21.1875 
Q 45.796875 27.640625 41.28125 31.265625 
Q 36.765625 34.90625 28.71875 34.90625 
L 20.21875 34.90625 
L 20.21875 43.015625 
L 29.109375 43.015625 
Q 36.375 43.015625 40.234375 45.921875 
Q 44.09375 48.828125 44.09375 54.296875 
Q 44.09375 59.90625 40.109375 62.90625 
Q 36.140625 65.921875 28.71875 65.921875 
Q 24.65625 65.921875 20.015625 65.03125 
Q 15.375 64.15625 9.8125 62.3125 
L 9.8125 71.09375 
Q 15.4375 72.65625 20.34375 73.4375 
Q 25.25 74.21875 29.59375 74.21875 
Q 40.828125 74.21875 47.359375 69.109375 
Q 53.90625 64.015625 53.90625 55.328125 
Q 53.90625 49.265625 50.4375 45.09375 
Q 46.96875 40.921875 40.578125 39.3125 
z
" id="DejaVuSans-51"/>
      </defs>
      <g transform="translate(116.396766 262.869024)rotate(-30)scale(0.1 -0.1)">
       <use xlink:href="#DejaVuSans-50"/>
       <use x="63.623047" xlink:href="#DejaVuSans-48"/>
       <use x="127.246094" xlink:href="#DejaVuSans-50"/>
       <use x="190.869141" xlink:href="#DejaVuSans-48"/>
       <use x="254.492188" xlink:href="#DejaVuSans-45"/>
       <use x="290.576172" xlink:href="#DejaVuSans-49"/>
       <use x="354.199219" xlink:href="#DejaVuSans-50"/>
       <use x="417.822266" xlink:href="#DejaVuSans-45"/>
       <use x="453.90625" xlink:href="#DejaVuSans-49"/>
       <use x="517.529297" xlink:href="#DejaVuSans-51"/>
      </g>
     </g>
    </g>
    <g id="xtick_6">
     <g id="line2d_6">
      <g>
       <use style="stroke:#000000;stroke-width:0.8;" x="167.039212" xlink:href="#m8ba37b0088" y="220.230771"/>
      </g>
     </g>
     <g id="text_6">
      <!-- 2020-12-17 -->
      <defs>
       <path d="M 8.203125 72.90625 
L 55.078125 72.90625 
L 55.078125 68.703125 
L 28.609375 0 
L 18.3125 0 
L 43.21875 64.59375 
L 8.203125 64.59375 
z
" id="DejaVuSans-55"/>
      </defs>
      <g transform="translate(143.254096 262.869024)rotate(-30)scale(0.1 -0.1)">
       <use xlink:href="#DejaVuSans-50"/>
       <use x="63.623047" xlink:href="#DejaVuSans-48"/>
       <use x="127.246094" xlink:href="#DejaVuSans-50"/>
       <use x="190.869141" xlink:href="#DejaVuSans-48"/>
       <use x="254.492188" xlink:href="#DejaVuSans-45"/>
       <use x="290.576172" xlink:href="#DejaVuSans-49"/>
       <use x="354.199219" xlink:href="#DejaVuSans-50"/>
       <use x="417.822266" xlink:href="#DejaVuSans-45"/>
       <use x="453.90625" xlink:href="#DejaVuSans-49"/>
       <use x="517.529297" xlink:href="#DejaVuSans-55"/>
      </g>
     </g>
    </g>
    <g id="xtick_7">
     <g id="line2d_7">
      <g>
       <use style="stroke:#000000;stroke-width:0.8;" x="193.896542" xlink:href="#m8ba37b0088" y="220.230771"/>
      </g>
     </g>
     <g id="text_7">
      <!-- 2020-12-21 -->
      <g transform="translate(170.111426 262.869024)rotate(-30)scale(0.1 -0.1)">
       <use xlink:href="#DejaVuSans-50"/>
       <use x="63.623047" xlink:href="#DejaVuSans-48"/>
       <use x="127.246094" xlink:href="#DejaVuSans-50"/>
       <use x="190.869141" xlink:href="#DejaVuSans-48"/>
       <use x="254.492188" xlink:href="#DejaVuSans-45"/>
       <use x="290.576172" xlink:href="#DejaVuSans-49"/>
       <use x="354.199219" xlink:href="#DejaVuSans-50"/>
       <use x="417.822266" xlink:href="#DejaVuSans-45"/>
       <use x="453.90625" xlink:href="#DejaVuSans-50"/>
       <use x="517.529297" xlink:href="#DejaVuSans-49"/>
      </g>
     </g>
    </g>
    <g id="xtick_8">
     <g id="line2d_8">
      <g>
       <use style="stroke:#000000;stroke-width:0.8;" x="220.753872" xlink:href="#m8ba37b0088" y="220.230771"/>
      </g>
     </g>
     <g id="text_8">
      <!-- 2020-12-25 -->
      <g transform="translate(196.968756 262.869024)rotate(-30)scale(0.1 -0.1)">
       <use xlink:href="#DejaVuSans-50"/>
       <use x="63.623047" xlink:href="#DejaVuSans-48"/>
       <use x="127.246094" xlink:href="#DejaVuSans-50"/>
       <use x="190.869141" xlink:href="#DejaVuSans-48"/>
       <use x="254.492188" xlink:href="#DejaVuSans-45"/>
       <use x="290.576172" xlink:href="#DejaVuSans-49"/>
       <use x="354.199219" xlink:href="#DejaVuSans-50"/>
       <use x="417.822266" xlink:href="#DejaVuSans-45"/>
       <use x="453.90625" xlink:href="#DejaVuSans-50"/>
       <use x="517.529297" xlink:href="#DejaVuSans-53"/>
      </g>
     </g>
    </g>
    <g id="xtick_9">
     <g id="line2d_9">
      <g>
       <use style="stroke:#000000;stroke-width:0.8;" x="247.611202" xlink:href="#m8ba37b0088" y="220.230771"/>
      </g>
     </g>
     <g id="text_9">
      <!-- 2020-12-29 -->
      <g transform="translate(223.826086 262.869024)rotate(-30)scale(0.1 -0.1)">
       <use xlink:href="#DejaVuSans-50"/>
       <use x="63.623047" xlink:href="#DejaVuSans-48"/>
       <use x="127.246094" xlink:href="#DejaVuSans-50"/>
       <use x="190.869141" xlink:href="#DejaVuSans-48"/>
       <use x="254.492188" xlink:href="#DejaVuSans-45"/>
       <use x="290.576172" xlink:href="#DejaVuSans-49"/>
       <use x="354.199219" xlink:href="#DejaVuSans-50"/>
       <use x="417.822266" xlink:href="#DejaVuSans-45"/>
       <use x="453.90625" xlink:href="#DejaVuSans-50"/>
       <use x="517.529297" xlink:href="#DejaVuSans-57"/>
      </g>
     </g>
    </g>
    <g id="xtick_10">
     <g id="line2d_10">
      <g>
       <use style="stroke:#000000;stroke-width:0.8;" x="267.7542" xlink:href="#m8ba37b0088" y="220.230771"/>
      </g>
     </g>
     <g id="text_10">
      <!-- 2021-01-01 -->
      <g transform="translate(243.969083 262.869024)rotate(-30)scale(0.1 -0.1)">
       <use xlink:href="#DejaVuSans-50"/>
       <use x="63.623047" xlink:href="#DejaVuSans-48"/>
       <use x="127.246094" xlink:href="#DejaVuSans-50"/>
       <use x="190.869141" xlink:href="#DejaVuSans-49"/>
       <use x="254.492188" xlink:href="#DejaVuSans-45"/>
       <use x="290.576172" xlink:href="#DejaVuSans-48"/>
       <use x="354.199219" xlink:href="#DejaVuSans-49"/>
       <use x="417.822266" xlink:href="#DejaVuSans-45"/>
       <use x="453.90625" xlink:href="#DejaVuSans-48"/>
       <use x="517.529297" xlink:href="#DejaVuSans-49"/>
      </g>
     </g>
    </g>
    <g id="xtick_11">
     <g id="line2d_11">
      <g>
       <use style="stroke:#000000;stroke-width:0.8;" x="294.61153" xlink:href="#m8ba37b0088" y="220.230771"/>
      </g>
     </g>
     <g id="text_11">
      <!-- 2021-01-05 -->
      <g transform="translate(270.826413 262.869024)rotate(-30)scale(0.1 -0.1)">
       <use xlink:href="#DejaVuSans-50"/>
       <use x="63.623047" xlink:href="#DejaVuSans-48"/>
       <use x="127.246094" xlink:href="#DejaVuSans-50"/>
       <use x="190.869141" xlink:href="#DejaVuSans-49"/>
       <use x="254.492188" xlink:href="#DejaVuSans-45"/>
       <use x="290.576172" xlink:href="#DejaVuSans-48"/>
       <use x="354.199219" xlink:href="#DejaVuSans-49"/>
       <use x="417.822266" xlink:href="#DejaVuSans-45"/>
       <use x="453.90625" xlink:href="#DejaVuSans-48"/>
       <use x="517.529297" xlink:href="#DejaVuSans-53"/>
      </g>
     </g>
    </g>
    <g id="text_12">
     <!-- Date -->
     <defs>
      <path d="M 19.671875 64.796875 
L 19.671875 8.109375 
L 31.59375 8.109375 
Q 46.6875 8.109375 53.6875 14.9375 
Q 60.6875 21.78125 60.6875 36.53125 
Q 60.6875 51.171875 53.6875 57.984375 
Q 46.6875 64.796875 31.59375 64.796875 
z
M 9.8125 72.90625 
L 30.078125 72.90625 
Q 51.265625 72.90625 61.171875 64.09375 
Q 71.09375 55.28125 71.09375 36.53125 
Q 71.09375 17.671875 61.125 8.828125 
Q 51.171875 0 30.078125 0 
L 9.8125 0 
z
" id="DejaVuSans-68"/>
      <path d="M 34.28125 27.484375 
Q 23.390625 27.484375 19.1875 25 
Q 14.984375 22.515625 14.984375 16.5 
Q 14.984375 11.71875 18.140625 8.90625 
Q 21.296875 6.109375 26.703125 6.109375 
Q 34.1875 6.109375 38.703125 11.40625 
Q 43.21875 16.703125 43.21875 25.484375 
L 43.21875 27.484375 
z
M 52.203125 31.203125 
L 52.203125 0 
L 43.21875 0 
L 43.21875 8.296875 
Q 40.140625 3.328125 35.546875 0.953125 
Q 30.953125 -1.421875 24.3125 -1.421875 
Q 15.921875 -1.421875 10.953125 3.296875 
Q 6 8.015625 6 15.921875 
Q 6 25.140625 12.171875 29.828125 
Q 18.359375 34.515625 30.609375 34.515625 
L 43.21875 34.515625 
L 43.21875 35.40625 
Q 43.21875 41.609375 39.140625 45 
Q 35.0625 48.390625 27.6875 48.390625 
Q 23 48.390625 18.546875 47.265625 
Q 14.109375 46.140625 10.015625 43.890625 
L 10.015625 52.203125 
Q 14.9375 54.109375 19.578125 55.046875 
Q 24.21875 56 28.609375 56 
Q 40.484375 56 46.34375 49.84375 
Q 52.203125 43.703125 52.203125 31.203125 
z
" id="DejaVuSans-97"/>
      <path d="M 18.3125 70.21875 
L 18.3125 54.6875 
L 36.8125 54.6875 
L 36.8125 47.703125 
L 18.3125 47.703125 
L 18.3125 18.015625 
Q 18.3125 11.328125 20.140625 9.421875 
Q 21.96875 7.515625 27.59375 7.515625 
L 36.8125 7.515625 
L 36.8125 0 
L 27.59375 0 
Q 17.1875 0 13.234375 3.875 
Q 9.28125 7.765625 9.28125 18.015625 
L 9.28125 47.703125 
L 2.6875 47.703125 
L 2.6875 54.6875 
L 9.28125 54.6875 
L 9.28125 70.21875 
z
" id="DejaVuSans-116"/>
      <path d="M 56.203125 29.59375 
L 56.203125 25.203125 
L 14.890625 25.203125 
Q 15.484375 15.921875 20.484375 11.0625 
Q 25.484375 6.203125 34.421875 6.203125 
Q 39.59375 6.203125 44.453125 7.46875 
Q 49.3125 8.734375 54.109375 11.28125 
L 54.109375 2.78125 
Q 49.265625 0.734375 44.1875 -0.34375 
Q 39.109375 -1.421875 33.890625 -1.421875 
Q 20.796875 -1.421875 13.15625 6.1875 
Q 5.515625 13.8125 5.515625 26.8125 
Q 5.515625 40.234375 12.765625 48.109375 
Q 20.015625 56 32.328125 56 
Q 43.359375 56 49.78125 48.890625 
Q 56.203125 41.796875 56.203125 29.59375 
z
M 47.21875 32.234375 
Q 47.125 39.59375 43.09375 43.984375 
Q 39.0625 48.390625 32.421875 48.390625 
Q 24.90625 48.390625 20.390625 44.140625 
Q 15.875 39.890625 15.1875 32.171875 
z
" id="DejaVuSans-101"/>
     </defs>
     <g transform="translate(167.504219 276.268523)scale(0.1 -0.1)">
      <use xlink:href="#DejaVuSans-68"/>
      <use x="77.001953" xlink:href="#DejaVuSans-97"/>
      <use x="138.28125" xlink:href="#DejaVuSans-116"/>
      <use x="177.490234" xlink:href="#DejaVuSans-101"/>
     </g>
    </g>
   </g>
   <g id="matplotlib.axis_2">
    <g id="ytick_1">
     <g id="line2d_12">
      <defs>
       <path d="M 0 0 
L -3.5 0 
" id="m8cbce1eaa9" style="stroke:#000000;stroke-width:0.8;"/>
      </defs>
      <g>
       <use style="stroke:#000000;stroke-width:0.8;" x="43.55" xlink:href="#m8cbce1eaa9" y="210.806645"/>
      </g>
     </g>
     <g id="text_13">
      <!-- 0 -->
      <g transform="translate(30.1875 214.605864)scale(0.1 -0.1)">
       <use xlink:href="#DejaVuSans-48"/>
      </g>
     </g>
    </g>
    <g id="ytick_2">
     <g id="line2d_13">
      <g>
       <use style="stroke:#000000;stroke-width:0.8;" x="43.55" xlink:href="#m8cbce1eaa9" y="187.24633"/>
      </g>
     </g>
     <g id="text_14">
      <!-- 5 -->
      <g transform="translate(30.1875 191.045549)scale(0.1 -0.1)">
       <use xlink:href="#DejaVuSans-53"/>
      </g>
     </g>
    </g>
    <g id="ytick_3">
     <g id="line2d_14">
      <g>
       <use style="stroke:#000000;stroke-width:0.8;" x="43.55" xlink:href="#m8cbce1eaa9" y="163.686016"/>
      </g>
     </g>
     <g id="text_15">
      <!-- 10 -->
      <g transform="translate(23.825 167.485234)scale(0.1 -0.1)">
       <use xlink:href="#DejaVuSans-49"/>
       <use x="63.623047" xlink:href="#DejaVuSans-48"/>
      </g>
     </g>
    </g>
    <g id="ytick_4">
     <g id="line2d_15">
      <g>
       <use style="stroke:#000000;stroke-width:0.8;" x="43.55" xlink:href="#m8cbce1eaa9" y="140.125701"/>
      </g>
     </g>
     <g id="text_16">
      <!-- 15 -->
      <g transform="translate(23.825 143.924919)scale(0.1 -0.1)">
       <use xlink:href="#DejaVuSans-49"/>
       <use x="63.623047" xlink:href="#DejaVuSans-53"/>
      </g>
     </g>
    </g>
    <g id="ytick_5">
     <g id="line2d_16">
      <g>
       <use style="stroke:#000000;stroke-width:0.8;" x="43.55" xlink:href="#m8cbce1eaa9" y="116.565386"/>
      </g>
     </g>
     <g id="text_17">
      <!-- 20 -->
      <g transform="translate(23.825 120.364604)scale(0.1 -0.1)">
       <use xlink:href="#DejaVuSans-50"/>
       <use x="63.623047" xlink:href="#DejaVuSans-48"/>
      </g>
     </g>
    </g>
    <g id="ytick_6">
     <g id="line2d_17">
      <g>
       <use style="stroke:#000000;stroke-width:0.8;" x="43.55" xlink:href="#m8cbce1eaa9" y="93.005071"/>
      </g>
     </g>
     <g id="text_18">
      <!-- 25 -->
      <g transform="translate(23.825 96.80429)scale(0.1 -0.1)">
       <use xlink:href="#DejaVuSans-50"/>
       <use x="63.623047" xlink:href="#DejaVuSans-53"/>
      </g>
     </g>
    </g>
    <g id="ytick_7">
     <g id="line2d_18">
      <g>
       <use style="stroke:#000000;stroke-width:0.8;" x="43.55" xlink:href="#m8cbce1eaa9" y="69.444756"/>
      </g>
     </g>
     <g id="text_19">
      <!-- 30 -->
      <g transform="translate(23.825 73.243975)scale(0.1 -0.1)">
       <use xlink:href="#DejaVuSans-51"/>
       <use x="63.623047" xlink:href="#DejaVuSans-48"/>
      </g>
     </g>
    </g>
    <g id="ytick_8">
     <g id="line2d_19">
      <g>
       <use style="stroke:#000000;stroke-width:0.8;" x="43.55" xlink:href="#m8cbce1eaa9" y="45.884441"/>
      </g>
     </g>
     <g id="text_20">
      <!-- 35 -->
      <g transform="translate(23.825 49.68366)scale(0.1 -0.1)">
       <use xlink:href="#DejaVuSans-51"/>
       <use x="63.623047" xlink:href="#DejaVuSans-53"/>
      </g>
     </g>
    </g>
    <g id="ytick_9">
     <g id="line2d_20">
      <g>
       <use style="stroke:#000000;stroke-width:0.8;" x="43.55" xlink:href="#m8cbce1eaa9" y="22.324126"/>
      </g>
     </g>
     <g id="text_21">
      <!-- 40 -->
      <defs>
       <path d="M 37.796875 64.3125 
L 12.890625 25.390625 
L 37.796875 25.390625 
z
M 35.203125 72.90625 
L 47.609375 72.90625 
L 47.609375 25.390625 
L 58.015625 25.390625 
L 58.015625 17.1875 
L 47.609375 17.1875 
L 47.609375 0 
L 37.796875 0 
L 37.796875 17.1875 
L 4.890625 17.1875 
L 4.890625 26.703125 
z
" id="DejaVuSans-52"/>
      </defs>
      <g transform="translate(23.825 26.123345)scale(0.1 -0.1)">
       <use xlink:href="#DejaVuSans-52"/>
       <use x="63.623047" xlink:href="#DejaVuSans-48"/>
      </g>
     </g>
    </g>
    <g id="text_22">
     <!-- Students Registered -->
     <defs>
      <path d="M 53.515625 70.515625 
L 53.515625 60.890625 
Q 47.90625 63.578125 42.921875 64.890625 
Q 37.9375 66.21875 33.296875 66.21875 
Q 25.25 66.21875 20.875 63.09375 
Q 16.5 59.96875 16.5 54.203125 
Q 16.5 49.359375 19.40625 46.890625 
Q 22.3125 44.4375 30.421875 42.921875 
L 36.375 41.703125 
Q 47.40625 39.59375 52.65625 34.296875 
Q 57.90625 29 57.90625 20.125 
Q 57.90625 9.515625 50.796875 4.046875 
Q 43.703125 -1.421875 29.984375 -1.421875 
Q 24.8125 -1.421875 18.96875 -0.25 
Q 13.140625 0.921875 6.890625 3.21875 
L 6.890625 13.375 
Q 12.890625 10.015625 18.65625 8.296875 
Q 24.421875 6.59375 29.984375 6.59375 
Q 38.421875 6.59375 43.015625 9.90625 
Q 47.609375 13.234375 47.609375 19.390625 
Q 47.609375 24.75 44.3125 27.78125 
Q 41.015625 30.8125 33.5 32.328125 
L 27.484375 33.5 
Q 16.453125 35.6875 11.515625 40.375 
Q 6.59375 45.0625 6.59375 53.421875 
Q 6.59375 63.09375 13.40625 68.65625 
Q 20.21875 74.21875 32.171875 74.21875 
Q 37.3125 74.21875 42.625 73.28125 
Q 47.953125 72.359375 53.515625 70.515625 
z
" id="DejaVuSans-83"/>
      <path d="M 8.5 21.578125 
L 8.5 54.6875 
L 17.484375 54.6875 
L 17.484375 21.921875 
Q 17.484375 14.15625 20.5 10.265625 
Q 23.53125 6.390625 29.59375 6.390625 
Q 36.859375 6.390625 41.078125 11.03125 
Q 45.3125 15.671875 45.3125 23.6875 
L 45.3125 54.6875 
L 54.296875 54.6875 
L 54.296875 0 
L 45.3125 0 
L 45.3125 8.40625 
Q 42.046875 3.421875 37.71875 1 
Q 33.40625 -1.421875 27.6875 -1.421875 
Q 18.265625 -1.421875 13.375 4.4375 
Q 8.5 10.296875 8.5 21.578125 
z
M 31.109375 56 
z
" id="DejaVuSans-117"/>
      <path d="M 45.40625 46.390625 
L 45.40625 75.984375 
L 54.390625 75.984375 
L 54.390625 0 
L 45.40625 0 
L 45.40625 8.203125 
Q 42.578125 3.328125 38.25 0.953125 
Q 33.9375 -1.421875 27.875 -1.421875 
Q 17.96875 -1.421875 11.734375 6.484375 
Q 5.515625 14.40625 5.515625 27.296875 
Q 5.515625 40.1875 11.734375 48.09375 
Q 17.96875 56 27.875 56 
Q 33.9375 56 38.25 53.625 
Q 42.578125 51.265625 45.40625 46.390625 
z
M 14.796875 27.296875 
Q 14.796875 17.390625 18.875 11.75 
Q 22.953125 6.109375 30.078125 6.109375 
Q 37.203125 6.109375 41.296875 11.75 
Q 45.40625 17.390625 45.40625 27.296875 
Q 45.40625 37.203125 41.296875 42.84375 
Q 37.203125 48.484375 30.078125 48.484375 
Q 22.953125 48.484375 18.875 42.84375 
Q 14.796875 37.203125 14.796875 27.296875 
z
" id="DejaVuSans-100"/>
      <path d="M 54.890625 33.015625 
L 54.890625 0 
L 45.90625 0 
L 45.90625 32.71875 
Q 45.90625 40.484375 42.875 44.328125 
Q 39.84375 48.1875 33.796875 48.1875 
Q 26.515625 48.1875 22.3125 43.546875 
Q 18.109375 38.921875 18.109375 30.90625 
L 18.109375 0 
L 9.078125 0 
L 9.078125 54.6875 
L 18.109375 54.6875 
L 18.109375 46.1875 
Q 21.34375 51.125 25.703125 53.5625 
Q 30.078125 56 35.796875 56 
Q 45.21875 56 50.046875 50.171875 
Q 54.890625 44.34375 54.890625 33.015625 
z
" id="DejaVuSans-110"/>
      <path d="M 44.28125 53.078125 
L 44.28125 44.578125 
Q 40.484375 46.53125 36.375 47.5 
Q 32.28125 48.484375 27.875 48.484375 
Q 21.1875 48.484375 17.84375 46.4375 
Q 14.5 44.390625 14.5 40.28125 
Q 14.5 37.15625 16.890625 35.375 
Q 19.28125 33.59375 26.515625 31.984375 
L 29.59375 31.296875 
Q 39.15625 29.25 43.1875 25.515625 
Q 47.21875 21.78125 47.21875 15.09375 
Q 47.21875 7.46875 41.1875 3.015625 
Q 35.15625 -1.421875 24.609375 -1.421875 
Q 20.21875 -1.421875 15.453125 -0.5625 
Q 10.6875 0.296875 5.421875 2 
L 5.421875 11.28125 
Q 10.40625 8.6875 15.234375 7.390625 
Q 20.0625 6.109375 24.8125 6.109375 
Q 31.15625 6.109375 34.5625 8.28125 
Q 37.984375 10.453125 37.984375 14.40625 
Q 37.984375 18.0625 35.515625 20.015625 
Q 33.0625 21.96875 24.703125 23.78125 
L 21.578125 24.515625 
Q 13.234375 26.265625 9.515625 29.90625 
Q 5.8125 33.546875 5.8125 39.890625 
Q 5.8125 47.609375 11.28125 51.796875 
Q 16.75 56 26.8125 56 
Q 31.78125 56 36.171875 55.265625 
Q 40.578125 54.546875 44.28125 53.078125 
z
" id="DejaVuSans-115"/>
      <path id="DejaVuSans-32"/>
      <path d="M 44.390625 34.1875 
Q 47.5625 33.109375 50.5625 29.59375 
Q 53.5625 26.078125 56.59375 19.921875 
L 66.609375 0 
L 56 0 
L 46.6875 18.703125 
Q 43.0625 26.03125 39.671875 28.421875 
Q 36.28125 30.8125 30.421875 30.8125 
L 19.671875 30.8125 
L 19.671875 0 
L 9.8125 0 
L 9.8125 72.90625 
L 32.078125 72.90625 
Q 44.578125 72.90625 50.734375 67.671875 
Q 56.890625 62.453125 56.890625 51.90625 
Q 56.890625 45.015625 53.6875 40.46875 
Q 50.484375 35.9375 44.390625 34.1875 
z
M 19.671875 64.796875 
L 19.671875 38.921875 
L 32.078125 38.921875 
Q 39.203125 38.921875 42.84375 42.21875 
Q 46.484375 45.515625 46.484375 51.90625 
Q 46.484375 58.296875 42.84375 61.546875 
Q 39.203125 64.796875 32.078125 64.796875 
z
" id="DejaVuSans-82"/>
      <path d="M 45.40625 27.984375 
Q 45.40625 37.75 41.375 43.109375 
Q 37.359375 48.484375 30.078125 48.484375 
Q 22.859375 48.484375 18.828125 43.109375 
Q 14.796875 37.75 14.796875 27.984375 
Q 14.796875 18.265625 18.828125 12.890625 
Q 22.859375 7.515625 30.078125 7.515625 
Q 37.359375 7.515625 41.375 12.890625 
Q 45.40625 18.265625 45.40625 27.984375 
z
M 54.390625 6.78125 
Q 54.390625 -7.171875 48.1875 -13.984375 
Q 42 -20.796875 29.203125 -20.796875 
Q 24.46875 -20.796875 20.265625 -20.09375 
Q 16.0625 -19.390625 12.109375 -17.921875 
L 12.109375 -9.1875 
Q 16.0625 -11.328125 19.921875 -12.34375 
Q 23.78125 -13.375 27.78125 -13.375 
Q 36.625 -13.375 41.015625 -8.765625 
Q 45.40625 -4.15625 45.40625 5.171875 
L 45.40625 9.625 
Q 42.625 4.78125 38.28125 2.390625 
Q 33.9375 0 27.875 0 
Q 17.828125 0 11.671875 7.65625 
Q 5.515625 15.328125 5.515625 27.984375 
Q 5.515625 40.671875 11.671875 48.328125 
Q 17.828125 56 27.875 56 
Q 33.9375 56 38.28125 53.609375 
Q 42.625 51.21875 45.40625 46.390625 
L 45.40625 54.6875 
L 54.390625 54.6875 
z
" id="DejaVuSans-103"/>
      <path d="M 9.421875 54.6875 
L 18.40625 54.6875 
L 18.40625 0 
L 9.421875 0 
z
M 9.421875 75.984375 
L 18.40625 75.984375 
L 18.40625 64.59375 
L 9.421875 64.59375 
z
" id="DejaVuSans-105"/>
      <path d="M 41.109375 46.296875 
Q 39.59375 47.171875 37.8125 47.578125 
Q 36.03125 48 33.890625 48 
Q 26.265625 48 22.1875 43.046875 
Q 18.109375 38.09375 18.109375 28.8125 
L 18.109375 0 
L 9.078125 0 
L 9.078125 54.6875 
L 18.109375 54.6875 
L 18.109375 46.1875 
Q 20.953125 51.171875 25.484375 53.578125 
Q 30.03125 56 36.53125 56 
Q 37.453125 56 38.578125 55.875 
Q 39.703125 55.765625 41.0625 55.515625 
z
" id="DejaVuSans-114"/>
     </defs>
     <g transform="translate(17.745313 167.498979)rotate(-90)scale(0.1 -0.1)">
      <use xlink:href="#DejaVuSans-83"/>
      <use x="63.476562" xlink:href="#DejaVuSans-116"/>
      <use x="102.685547" xlink:href="#DejaVuSans-117"/>
      <use x="166.064453" xlink:href="#DejaVuSans-100"/>
      <use x="229.541016" xlink:href="#DejaVuSans-101"/>
      <use x="291.064453" xlink:href="#DejaVuSans-110"/>
      <use x="354.443359" xlink:href="#DejaVuSans-116"/>
      <use x="393.652344" xlink:href="#DejaVuSans-115"/>
      <use x="445.751953" xlink:href="#DejaVuSans-32"/>
      <use x="477.539062" xlink:href="#DejaVuSans-82"/>
      <use x="546.958984" xlink:href="#DejaVuSans-101"/>
      <use x="608.482422" xlink:href="#DejaVuSans-103"/>
      <use x="671.958984" xlink:href="#DejaVuSans-105"/>
      <use x="699.742188" xlink:href="#DejaVuSans-115"/>
      <use x="751.841797" xlink:href="#DejaVuSans-116"/>
      <use x="791.050781" xlink:href="#DejaVuSans-101"/>
      <use x="852.574219" xlink:href="#DejaVuSans-114"/>
      <use x="893.65625" xlink:href="#DejaVuSans-101"/>
      <use x="955.179688" xlink:href="#DejaVuSans-100"/>
     </g>
    </g>
   </g>
   <g id="line2d_21">
    <path clip-path="url(#p30ab70c0f0)" d="M 114.304305 196.670456 
L 115.703062 196.670456 
L 115.703062 182.534267 
L 115.773014 182.534267 
L 115.982833 182.534267 
L 115.982833 177.822204 
L 116.052795 177.822204 
L 116.262591 177.822204 
L 116.262591 158.973953 
L 116.332533 158.973953 
L 116.822144 158.973953 
L 116.822144 144.837764 
L 116.892081 144.837764 
L 117.381661 144.837764 
L 117.381661 116.565386 
L 117.451629 116.565386 
L 117.941184 116.565386 
L 117.941184 107.14126 
L 118.011126 107.14126 
L 118.220985 107.14126 
L 118.220985 102.429197 
L 118.290924 102.429197 
L 118.500725 102.429197 
L 118.500725 97.717134 
L 118.570682 97.717134 
L 119.060298 97.717134 
L 119.060298 93.005071 
L 119.13024 93.005071 
L 122.976931 93.005071 
L 122.976931 74.156819 
L 123.046891 74.156819 
L 123.536478 74.156819 
L 123.536478 69.444756 
L 123.606453 69.444756 
L 124.096048 69.444756 
L 124.096048 60.02063 
L 124.165929 60.02063 
L 124.375812 60.02063 
L 124.375812 55.308567 
L 124.445692 55.308567 
L 124.935348 55.308567 
L 124.935348 50.596504 
L 125.005224 50.596504 
L 130.810365 50.596504 
L 130.810365 45.884441 
L 130.880257 45.884441 
L 131.090081 45.884441 
L 131.090081 41.172378 
L 131.160058 41.172378 
L 131.369859 41.172378 
L 131.369859 36.460315 
L 131.439823 36.460315 
L 132.209189 36.460315 
L 132.209189 31.748252 
L 132.279065 31.748252 
L 150.114033 31.748252 
L 150.114033 22.324126 
L 150.184023 22.324126 
L 184.524993 22.324126 
L 184.524993 27.036189 
L 184.594938 27.036189 
L 186.203575 27.036189 
L 186.203575 22.324126 
L 186.27356 22.324126 
L 210.543063 22.324126 
L 210.543063 27.036189 
L 210.612971 27.036189 
L 212.781162 27.036189 
L 212.781162 22.324126 
L 212.851074 22.324126 
L 303.005 22.324126 
L 303.005 22.324126 
" style="fill:none;stroke:#1b9e77;stroke-linecap:square;stroke-width:1.5;"/>
   </g>
   <g id="line2d_22">
    <path clip-path="url(#p30ab70c0f0)" d="M 55.905 182.534267 
L 56.199765 182.534267 
L 56.199765 177.822204 
L 56.309293 177.822204 
L 57.64739 177.822204 
L 57.64739 173.110142 
L 62.123663 173.110142 
L 62.123663 168.398079 
L 62.547981 168.398079 
L 62.547981 163.686016 
L 62.617877 163.686016 
L 62.827729 163.686016 
L 62.827729 158.973953 
L 62.897703 158.973953 
L 63.667058 158.973953 
L 63.667058 144.837764 
L 63.736968 144.837764 
L 63.946762 144.837764 
L 63.946762 140.125701 
L 64.016753 140.125701 
L 69.542056 140.125701 
L 69.542056 130.701575 
L 69.612038 130.701575 
L 69.821818 130.701575 
L 69.821818 125.989512 
L 69.89173 125.989512 
L 70.10158 125.989512 
L 70.10158 130.701575 
L 70.171542 130.701575 
L 70.661153 130.701575 
L 70.661153 125.989512 
L 70.731076 125.989512 
L 70.94086 125.989512 
L 70.94086 116.565386 
L 71.010879 116.565386 
L 72.339714 116.565386 
L 72.339714 107.14126 
L 72.409631 107.14126 
L 75.417115 107.14126 
L 75.417115 102.429197 
L 75.487037 102.429197 
L 75.696873 102.429197 
L 75.696873 83.580945 
L 75.766804 83.580945 
L 75.976605 83.580945 
L 75.976605 74.156819 
L 76.046544 74.156819 
L 76.536163 74.156819 
L 76.536163 69.444756 
L 76.606109 69.444756 
L 76.815918 69.444756 
L 76.815918 64.732693 
L 76.885885 64.732693 
L 77.095689 64.732693 
L 77.095689 60.02063 
L 77.165638 60.02063 
L 77.375451 60.02063 
L 77.375451 45.884441 
L 77.44543 45.884441 
L 77.655208 45.884441 
L 77.655208 41.172378 
L 77.725176 41.172378 
L 77.934988 41.172378 
L 77.934988 36.460315 
L 78.00494 36.460315 
L 82.690935 36.460315 
L 82.690935 27.036189 
L 82.760878 27.036189 
L 82.97076 27.036189 
L 82.97076 22.324126 
L 83.040656 22.324126 
L 115.982833 22.324126 
L 115.982833 27.036189 
L 116.052795 27.036189 
L 116.262591 27.036189 
L 116.262591 22.324126 
L 116.332533 22.324126 
L 303.005 22.324126 
L 303.005 22.324126 
" style="fill:none;stroke:#d95f02;stroke-linecap:square;stroke-width:1.5;"/>
   </g>
   <g id="line2d_23">
    <path clip-path="url(#p30ab70c0f0)" d="M 55.905 201.382519 
L 63.387309 201.382519 
L 63.387309 196.670456 
L 63.457197 196.670456 
L 68.982567 196.670456 
L 68.982567 191.958393 
L 69.052513 191.958393 
L 69.262319 191.958393 
L 69.262319 187.24633 
L 69.332263 187.24633 
L 69.542056 187.24633 
L 69.542056 177.822204 
L 69.612038 177.822204 
L 69.821818 177.822204 
L 69.821818 173.110142 
L 69.89173 173.110142 
L 70.10158 173.110142 
L 70.10158 168.398079 
L 70.171542 168.398079 
L 70.381347 168.398079 
L 70.381347 163.686016 
L 70.451274 163.686016 
L 70.94086 163.686016 
L 70.94086 158.973953 
L 71.010879 158.973953 
L 75.696873 158.973953 
L 75.696873 149.549827 
L 75.766804 149.549827 
L 75.976605 149.549827 
L 75.976605 144.837764 
L 76.046544 144.837764 
L 77.095689 144.837764 
L 77.095689 140.125701 
L 77.165638 140.125701 
L 77.375451 140.125701 
L 77.375451 130.701575 
L 77.44543 130.701575 
L 102.833995 130.701575 
L 102.833995 125.989512 
L 102.903866 125.989512 
L 103.113731 125.989512 
L 103.113731 121.277449 
L 103.183635 121.277449 
L 103.393512 121.277449 
L 103.393512 116.565386 
L 103.46343 116.565386 
L 103.673245 116.565386 
L 103.673245 111.853323 
L 103.743182 111.853323 
L 103.953039 111.853323 
L 103.953039 102.429197 
L 104.022962 102.429197 
L 104.232806 102.429197 
L 104.232806 97.717134 
L 104.302737 97.717134 
L 109.268519 97.717134 
L 109.338464 83.580945 
L 109.338464 83.580945 
L 109.82806 83.580945 
L 109.82806 74.156819 
L 109.897991 74.156819 
L 110.667359 74.156819 
L 110.667359 69.444756 
L 110.737289 69.444756 
L 110.947125 69.444756 
L 110.947125 60.02063 
L 111.01707 60.02063 
L 111.226886 60.02063 
L 111.226886 36.460315 
L 111.296817 36.460315 
L 111.506607 36.460315 
L 111.506607 22.324126 
L 111.576614 22.324126 
L 115.703062 22.324126 
L 115.703062 27.036189 
L 115.773014 27.036189 
L 116.262591 27.036189 
L 116.262591 22.324126 
L 116.332533 22.324126 
L 183.965445 22.324126 
L 183.965445 27.036189 
L 184.035436 27.036189 
L 184.245268 27.036189 
L 184.245268 22.324126 
L 184.31522 22.324126 
L 196.554893 22.324126 
L 196.554893 27.036189 
L 196.624764 27.036189 
L 197.114344 27.036189 
L 197.114344 22.324126 
L 197.184285 22.324126 
L 197.673892 22.324126 
L 197.673892 27.036189 
L 197.743842 27.036189 
L 198.793006 27.036189 
L 198.793006 22.324126 
L 198.862906 22.324126 
L 303.005 22.324126 
L 303.005 22.324126 
" style="fill:none;stroke:#7570b3;stroke-linecap:square;stroke-width:1.5;"/>
   </g>
   <g id="line2d_24">
    <path clip-path="url(#p30ab70c0f0)" d="M 55.905 201.382519 
L 63.946762 201.382519 
L 63.946762 196.670456 
L 64.016753 196.670456 
L 69.262319 196.670456 
L 69.262319 191.958393 
L 69.332263 191.958393 
L 70.381347 191.958393 
L 70.381347 187.24633 
L 70.451274 187.24633 
L 76.256355 187.24633 
L 76.256355 177.822204 
L 76.326301 177.822204 
L 76.815918 177.822204 
L 76.815918 173.110142 
L 76.885885 173.110142 
L 77.375451 173.110142 
L 77.375451 168.398079 
L 77.44543 168.398079 
L 77.655208 168.398079 
L 77.655208 163.686016 
L 77.725176 163.686016 
L 84.089796 163.686016 
L 84.089796 158.973953 
L 84.159696 158.973953 
L 90.52436 158.973953 
L 90.52436 154.26189 
L 90.594269 154.26189 
L 102.833995 154.26189 
L 102.833995 144.837764 
L 102.903866 144.837764 
L 103.393512 144.837764 
L 103.393512 140.125701 
L 103.46343 140.125701 
L 104.792328 140.125701 
L 104.792328 135.413638 
L 104.862252 135.413638 
L 109.268519 135.413638 
L 109.268519 130.701575 
L 109.338464 130.701575 
L 110.667359 130.701575 
L 110.667359 125.989512 
L 110.737289 125.989512 
L 110.947125 125.989512 
L 110.947125 121.277449 
L 111.01707 121.277449 
L 111.226886 121.277449 
L 111.296817 107.14126 
L 111.296817 107.14126 
L 115.982833 107.14126 
L 115.982833 102.429197 
L 116.052795 102.429197 
L 116.262591 102.429197 
L 116.262591 93.005071 
L 116.332533 93.005071 
L 116.542352 93.005071 
L 116.542352 88.293008 
L 116.612298 88.293008 
L 116.822144 88.293008 
L 116.892081 74.156819 
L 116.892081 74.156819 
L 117.381661 74.156819 
L 117.381661 60.02063 
L 117.451629 60.02063 
L 117.661461 60.02063 
L 117.661461 50.596504 
L 117.731411 50.596504 
L 117.941184 50.596504 
L 117.941184 31.748252 
L 118.011126 31.748252 
L 118.220985 31.748252 
L 118.220985 27.036189 
L 118.290924 27.036189 
L 119.619816 27.036189 
L 119.619816 22.324126 
L 119.689757 22.324126 
L 196.554893 22.324126 
L 196.554893 27.036189 
L 196.624764 27.036189 
L 196.834654 27.036189 
L 196.834654 22.324126 
L 196.904591 22.324126 
L 197.394151 22.324126 
L 197.394151 27.036189 
L 197.464119 27.036189 
L 198.23341 27.036189 
L 198.23341 31.748252 
L 198.303409 31.748252 
L 198.793006 31.748252 
L 198.793006 36.460315 
L 198.862906 36.460315 
L 206.346577 36.460315 
L 206.346577 41.172378 
L 206.416553 41.172378 
L 222.852675 41.172378 
L 222.852675 36.460315 
L 222.922623 36.460315 
L 253.906422 36.460315 
L 253.906422 41.172378 
L 253.976421 41.172378 
L 264.817241 41.172378 
L 264.817241 36.460315 
L 264.887147 36.460315 
L 298.948473 36.460315 
L 298.948473 31.748252 
L 299.018354 31.748252 
L 303.005 31.748252 
L 303.005 31.748252 
" style="fill:none;stroke:#e7298a;stroke-linecap:square;stroke-width:1.5;"/>
   </g>
   <g id="line2d_25">
    <path clip-path="url(#p30ab70c0f0)" d="M 55.905 210.806645 
L 56.199765 210.806645 
L 56.199765 201.382519 
L 56.309293 201.382519 
L 57.512222 201.382519 
L 57.512222 196.670456 
L 57.619475 196.670456 
L 63.946762 196.670456 
L 63.946762 191.958393 
L 64.016753 191.958393 
L 69.262319 191.958393 
L 69.262319 177.822204 
L 69.332263 177.822204 
L 69.542056 177.822204 
L 69.542056 173.110142 
L 69.612038 173.110142 
L 69.821818 173.110142 
L 69.821818 154.26189 
L 69.89173 154.26189 
L 70.10158 154.26189 
L 70.10158 149.549827 
L 70.171542 149.549827 
L 70.381347 149.549827 
L 70.381347 140.125701 
L 70.451274 140.125701 
L 70.661153 140.125701 
L 70.661153 125.989512 
L 70.731076 125.989512 
L 75.696873 125.989512 
L 75.696873 121.277449 
L 75.766804 121.277449 
L 75.976605 121.277449 
L 75.976605 116.565386 
L 76.046544 116.565386 
L 76.815918 116.565386 
L 76.815918 111.853323 
L 76.885885 111.853323 
L 77.375451 111.853323 
L 77.375451 97.717134 
L 77.44543 97.717134 
L 77.655208 97.717134 
L 77.655208 93.005071 
L 77.725176 93.005071 
L 83.250474 93.005071 
L 83.250474 88.293008 
L 83.320426 88.293008 
L 83.530229 88.293008 
L 83.530229 83.580945 
L 83.600198 83.580945 
L 84.089796 83.580945 
L 84.089796 78.868882 
L 84.159696 78.868882 
L 84.929071 78.868882 
L 84.929071 74.156819 
L 84.999049 74.156819 
L 89.685096 74.156819 
L 89.685096 69.444756 
L 89.755004 69.444756 
L 102.833995 69.444756 
L 102.833995 45.884441 
L 102.903866 45.884441 
L 103.113731 45.884441 
L 103.113731 36.460315 
L 103.183635 36.460315 
L 103.393512 36.460315 
L 103.393512 31.748252 
L 103.46343 31.748252 
L 197.673892 31.748252 
L 197.673892 36.460315 
L 197.743842 36.460315 
L 197.953646 36.460315 
L 197.953646 31.748252 
L 198.023587 31.748252 
L 213.060892 31.748252 
L 213.060892 36.460315 
L 213.130881 36.460315 
L 213.340676 36.460315 
L 213.340676 31.748252 
L 213.41064 31.748252 
L 303.005 31.748252 
L 303.005 31.748252 
" style="fill:none;stroke:#66a61e;stroke-linecap:square;stroke-width:1.5;"/>
   </g>
   <g id="line2d_26">
    <path clip-path="url(#p30ab70c0f0)" d="M 55.905 191.958393 
L 69.262319 191.958393 
L 69.262319 187.24633 
L 69.332263 187.24633 
L 70.661153 187.24633 
L 70.661153 182.534267 
L 70.731076 182.534267 
L 71.220662 182.534267 
L 71.220662 177.822204 
L 71.290576 177.822204 
L 76.536163 177.822204 
L 76.536163 173.110142 
L 76.606109 173.110142 
L 77.095689 173.110142 
L 77.095689 168.398079 
L 77.165638 168.398079 
L 82.690935 168.398079 
L 82.690935 163.686016 
L 82.760878 163.686016 
L 102.554191 163.686016 
L 102.554191 154.26189 
L 102.624172 154.26189 
L 102.833995 154.26189 
L 102.833995 144.837764 
L 102.903866 144.837764 
L 103.673245 144.837764 
L 103.673245 140.125701 
L 103.743182 140.125701 
L 104.792328 140.125701 
L 104.792328 135.413638 
L 104.862252 135.413638 
L 109.82806 135.413638 
L 109.82806 130.701575 
L 109.897991 130.701575 
L 110.387539 130.701575 
L 110.387539 121.277449 
L 110.457543 121.277449 
L 110.947125 121.277449 
L 110.947125 116.565386 
L 111.01707 116.565386 
L 112.625711 116.565386 
L 112.625711 111.853323 
L 112.695639 111.853323 
L 115.703062 111.853323 
L 115.703062 107.14126 
L 115.773014 107.14126 
L 116.262591 107.14126 
L 116.262591 102.429197 
L 116.332533 102.429197 
L 116.542352 102.429197 
L 116.542352 93.005071 
L 116.612298 93.005071 
L 117.101924 93.005071 
L 117.101924 88.293008 
L 117.171868 88.293008 
L 117.381661 88.293008 
L 117.451629 74.156819 
L 117.451629 74.156819 
L 117.661461 74.156819 
L 117.661461 64.732693 
L 117.731411 64.732693 
L 118.780472 64.732693 
L 118.780472 69.444756 
L 118.850403 69.444756 
L 122.976931 69.444756 
L 122.976931 60.02063 
L 123.046891 60.02063 
L 123.256763 60.02063 
L 123.256763 55.308567 
L 123.326634 55.308567 
L 123.816251 55.308567 
L 123.816251 50.596504 
L 123.886203 50.596504 
L 124.096048 50.596504 
L 124.096048 41.172378 
L 124.165929 41.172378 
L 124.375812 41.172378 
L 124.375812 36.460315 
L 124.445692 36.460315 
L 124.935348 36.460315 
L 124.935348 31.748252 
L 125.005224 31.748252 
L 303.005 31.748252 
L 303.005 31.748252 
" style="fill:none;stroke:#e6ab02;stroke-linecap:square;stroke-width:1.5;"/>
   </g>
   <g id="line2d_27">
    <path clip-path="url(#p30ab70c0f0)" d="M 55.905 196.670456 
L 63.387309 196.670456 
L 63.387309 191.958393 
L 63.457197 191.958393 
L 68.982567 191.958393 
L 68.982567 187.24633 
L 69.052513 187.24633 
L 69.262319 187.24633 
L 69.262319 182.534267 
L 69.332263 182.534267 
L 69.821818 182.534267 
L 69.821818 177.822204 
L 69.89173 177.822204 
L 70.10158 177.822204 
L 70.10158 173.110142 
L 70.171542 173.110142 
L 70.381347 173.110142 
L 70.381347 163.686016 
L 70.451274 163.686016 
L 70.661153 163.686016 
L 70.661153 158.973953 
L 70.731076 158.973953 
L 70.94086 158.973953 
L 70.94086 154.26189 
L 71.010879 154.26189 
L 75.417115 154.26189 
L 75.417115 149.549827 
L 75.487037 149.549827 
L 75.696873 149.549827 
L 75.696873 140.125701 
L 75.766804 140.125701 
L 76.256355 140.125701 
L 76.256355 135.413638 
L 76.326301 135.413638 
L 76.536163 135.413638 
L 76.536163 125.989512 
L 76.606109 125.989512 
L 77.095689 125.989512 
L 77.095689 121.277449 
L 77.165638 121.277449 
L 77.655208 121.277449 
L 77.655208 116.565386 
L 77.725176 116.565386 
L 77.934988 116.565386 
L 77.934988 111.853323 
L 78.00494 111.853323 
L 82.97076 111.853323 
L 82.97076 107.14126 
L 83.040656 107.14126 
L 84.089796 107.14126 
L 84.089796 102.429197 
L 84.159696 102.429197 
L 91.36361 102.429197 
L 91.36361 97.717134 
L 91.433559 97.717134 
L 102.554191 97.717134 
L 102.554191 93.005071 
L 102.624172 93.005071 
L 103.393512 93.005071 
L 103.393512 78.868882 
L 103.46343 78.868882 
L 103.673245 78.868882 
L 103.673245 69.444756 
L 103.743182 69.444756 
L 103.953039 69.444756 
L 103.953039 60.02063 
L 104.022962 60.02063 
L 104.792328 60.02063 
L 104.792328 55.308567 
L 104.862252 55.308567 
L 108.709003 55.308567 
L 108.709003 50.596504 
L 108.778941 50.596504 
L 109.548277 50.596504 
L 109.548277 45.884441 
L 109.618205 45.884441 
L 109.82806 45.884441 
L 109.82806 41.172378 
L 109.897991 41.172378 
L 110.107806 41.172378 
L 110.107806 36.460315 
L 110.177754 36.460315 
L 110.947125 36.460315 
L 110.947125 31.748252 
L 111.01707 31.748252 
L 303.005 31.748252 
L 303.005 31.748252 
" style="fill:none;stroke:#a6761d;stroke-linecap:square;stroke-width:1.5;"/>
   </g>
   <g id="line2d_28">
    <path clip-path="url(#p30ab70c0f0)" d="M 55.905 201.382519 
L 69.542056 201.382519 
L 69.542056 196.670456 
L 69.612038 196.670456 
L 70.381347 196.670456 
L 70.381347 191.958393 
L 70.451274 191.958393 
L 76.536163 191.958393 
L 76.536163 187.24633 
L 76.606109 187.24633 
L 77.095689 187.24633 
L 77.095689 191.958393 
L 77.165638 191.958393 
L 77.375451 191.958393 
L 77.375451 182.534267 
L 77.44543 182.534267 
L 102.833995 182.534267 
L 102.833995 177.822204 
L 102.903866 177.822204 
L 103.393512 177.822204 
L 103.393512 173.110142 
L 103.46343 173.110142 
L 103.953039 173.110142 
L 103.953039 168.398079 
L 104.022962 168.398079 
L 104.232806 168.398079 
L 104.232806 163.686016 
L 104.302737 163.686016 
L 105.63158 163.686016 
L 105.63158 158.973953 
L 105.701503 158.973953 
L 110.107806 158.973953 
L 110.107806 154.26189 
L 110.177754 154.26189 
L 110.947125 154.26189 
L 110.947125 149.549827 
L 111.01707 149.549827 
L 111.226886 149.549827 
L 111.226886 144.837764 
L 111.296817 144.837764 
L 115.982833 144.837764 
L 115.982833 135.413638 
L 116.052795 135.413638 
L 116.262591 135.413638 
L 116.262591 130.701575 
L 116.332533 130.701575 
L 116.542352 130.701575 
L 116.612298 116.565386 
L 116.612298 116.565386 
L 117.661461 116.565386 
L 117.661461 111.853323 
L 117.731411 111.853323 
L 117.941184 111.853323 
L 117.941184 107.14126 
L 118.011126 107.14126 
L 118.220985 107.14126 
L 118.220985 111.853323 
L 118.290924 111.853323 
L 118.500725 111.853323 
L 118.500725 107.14126 
L 118.570682 107.14126 
L 118.780472 107.14126 
L 118.780472 102.429197 
L 118.850403 102.429197 
L 122.137683 102.429197 
L 122.137683 107.14126 
L 122.207571 107.14126 
L 122.976931 107.14126 
L 122.976931 93.005071 
L 123.046891 93.005071 
L 123.536478 93.005071 
L 123.536478 88.293008 
L 123.606453 88.293008 
L 124.096048 88.293008 
L 124.096048 69.444756 
L 124.165929 69.444756 
L 124.375812 69.444756 
L 124.375812 64.732693 
L 124.445692 64.732693 
L 130.530564 64.732693 
L 130.530564 60.02063 
L 130.600533 60.02063 
L 153.191492 60.02063 
L 153.191492 55.308567 
L 153.26139 55.308567 
L 157.667702 55.308567 
L 157.667702 50.596504 
L 157.737628 50.596504 
L 157.947432 50.596504 
L 157.947432 55.308567 
L 158.01736 55.308567 
L 158.506963 55.308567 
L 158.506963 50.596504 
L 158.576882 50.596504 
L 165.221341 50.596504 
L 165.221341 45.884441 
L 165.291356 45.884441 
L 176.691591 45.884441 
L 176.691591 50.596504 
L 176.76154 50.596504 
L 184.524993 50.596504 
L 184.524993 45.884441 
L 184.594938 45.884441 
L 196.554893 45.884441 
L 196.554893 50.596504 
L 196.624764 50.596504 
L 197.114344 50.596504 
L 197.114344 55.308567 
L 197.184285 55.308567 
L 197.953646 55.308567 
L 197.953646 60.02063 
L 198.023587 60.02063 
L 205.787047 60.02063 
L 205.787047 64.732693 
L 205.856968 64.732693 
L 217.816874 64.732693 
L 217.816874 69.444756 
L 217.886875 69.444756 
L 245.793324 69.444756 
L 245.793324 74.156819 
L 245.863249 74.156819 
L 303.005 74.156819 
L 303.005 74.156819 
" style="fill:none;stroke:#666666;stroke-linecap:square;stroke-width:1.5;"/>
   </g>
   <g id="line2d_29">
    <path clip-path="url(#p30ab70c0f0)" d="M 55.905 196.670456 
L 62.123663 196.670456 
L 62.123663 191.958393 
L 70.381347 191.958393 
L 70.381347 187.24633 
L 70.451274 187.24633 
L 75.976605 187.24633 
L 75.976605 182.534267 
L 76.046544 182.534267 
L 76.536163 182.534267 
L 76.536163 177.822204 
L 76.606109 177.822204 
L 77.375451 177.822204 
L 77.375451 173.110142 
L 77.44543 173.110142 
L 77.655208 173.110142 
L 77.655208 168.398079 
L 77.725176 168.398079 
L 79.333803 168.398079 
L 79.333803 163.686016 
L 79.403751 163.686016 
L 103.393512 163.686016 
L 103.393512 154.26189 
L 103.46343 154.26189 
L 109.82806 154.26189 
L 109.82806 149.549827 
L 109.897991 149.549827 
L 111.226886 149.549827 
L 111.226886 144.837764 
L 111.296817 144.837764 
L 112.066201 144.837764 
L 112.066201 140.125701 
L 112.136135 140.125701 
L 116.262591 140.125701 
L 116.262591 135.413638 
L 116.332533 135.413638 
L 116.542352 135.413638 
L 116.542352 125.989512 
L 116.612298 125.989512 
L 117.381661 125.989512 
L 117.381661 116.565386 
L 117.451629 116.565386 
L 123.536478 116.565386 
L 123.536478 111.853323 
L 123.606453 111.853323 
L 124.375812 111.853323 
L 124.375812 107.14126 
L 124.445692 107.14126 
L 125.215047 107.14126 
L 125.215047 102.429197 
L 125.284998 102.429197 
L 132.209189 102.429197 
L 132.209189 97.717134 
L 132.279065 97.717134 
L 151.512883 97.717134 
L 151.512883 93.005071 
L 151.582795 93.005071 
L 157.947432 93.005071 
L 157.947432 88.293008 
L 158.01736 88.293008 
L 165.221341 88.293008 
L 165.221341 93.005071 
L 165.291356 93.005071 
L 197.394151 93.005071 
L 197.394151 88.293008 
L 197.464119 88.293008 
L 197.673892 88.293008 
L 197.673892 93.005071 
L 197.743842 93.005071 
L 204.668016 93.005071 
L 204.668016 88.293008 
L 204.737964 88.293008 
L 253.906422 88.293008 
L 253.906422 83.580945 
L 253.976421 83.580945 
L 298.668652 83.580945 
L 298.668652 78.868882 
L 298.738662 78.868882 
L 303.005 78.868882 
L 303.005 78.868882 
" style="fill:none;stroke:#1b9e77;stroke-dasharray:4.5,1.5;stroke-dashoffset:0;stroke-width:1.5;"/>
   </g>
   <g id="line2d_30">
    <path clip-path="url(#p30ab70c0f0)" d="M 55.905 206.094582 
L 69.542056 206.094582 
L 69.542056 201.382519 
L 69.612038 201.382519 
L 77.095689 201.382519 
L 77.095689 191.958393 
L 77.165638 191.958393 
L 102.554191 191.958393 
L 102.554191 187.24633 
L 102.624172 187.24633 
L 103.113731 187.24633 
L 103.113731 182.534267 
L 103.183635 182.534267 
L 103.953039 182.534267 
L 103.953039 177.822204 
L 104.022962 177.822204 
L 109.268519 177.822204 
L 109.268519 173.110142 
L 109.338464 173.110142 
L 109.548277 173.110142 
L 109.548277 163.686016 
L 109.618205 163.686016 
L 109.82806 163.686016 
L 109.82806 158.973953 
L 109.897991 158.973953 
L 110.387539 158.973953 
L 110.387539 154.26189 
L 110.457543 154.26189 
L 110.667359 154.26189 
L 110.667359 144.837764 
L 110.737289 144.837764 
L 110.947125 144.837764 
L 110.947125 135.413638 
L 111.01707 135.413638 
L 112.066201 135.413638 
L 112.066201 130.701575 
L 112.136135 130.701575 
L 112.625711 130.701575 
L 112.625711 125.989512 
L 112.695639 125.989512 
L 112.905423 125.989512 
L 112.905423 130.701575 
L 112.975437 130.701575 
L 115.423327 130.701575 
L 115.423327 135.413638 
L 115.493291 135.413638 
L 115.703062 135.413638 
L 115.703062 140.125701 
L 115.773014 140.125701 
L 115.982833 140.125701 
L 115.982833 135.413638 
L 116.052795 135.413638 
L 116.262591 135.413638 
L 116.262591 140.125701 
L 116.332533 140.125701 
L 116.542352 140.125701 
L 116.542352 135.413638 
L 116.612298 135.413638 
L 116.822144 135.413638 
L 116.822144 130.701575 
L 116.892081 130.701575 
L 117.381661 130.701575 
L 117.381661 135.413638 
L 117.451629 135.413638 
L 123.816251 135.413638 
L 123.816251 130.701575 
L 123.886203 130.701575 
L 124.375812 130.701575 
L 124.375812 125.989512 
L 124.445692 125.989512 
L 130.810365 125.989512 
L 130.810365 121.277449 
L 130.880257 121.277449 
L 132.768689 121.277449 
L 132.768689 116.565386 
L 132.838661 116.565386 
L 150.673583 116.565386 
L 150.673583 111.853323 
L 150.743485 111.853323 
L 150.953343 111.853323 
L 150.953343 107.14126 
L 151.023248 107.14126 
L 152.07237 107.14126 
L 152.07237 102.429197 
L 152.142395 102.429197 
L 165.221341 102.429197 
L 165.221341 97.717134 
L 165.291356 97.717134 
L 166.060559 97.717134 
L 166.060559 93.005071 
L 166.130568 93.005071 
L 180.048798 93.005071 
L 180.048798 88.293008 
L 180.118694 88.293008 
L 186.203575 88.293008 
L 186.203575 93.005071 
L 186.27356 93.005071 
L 197.114344 93.005071 
L 197.114344 97.717134 
L 197.184285 97.717134 
L 245.233783 97.717134 
L 245.233783 93.005071 
L 245.303701 93.005071 
L 292.513902 93.005071 
L 292.513902 88.293008 
L 292.583824 88.293008 
L 297.829397 88.293008 
L 297.829397 83.580945 
L 297.899293 83.580945 
L 303.005 83.580945 
L 303.005 83.580945 
" style="fill:none;stroke:#d95f02;stroke-dasharray:4.5,1.5;stroke-dashoffset:0;stroke-width:1.5;"/>
   </g>
   <g id="line2d_31">
    <path clip-path="url(#p30ab70c0f0)" d="M 55.905 206.094582 
L 68.982567 206.094582 
L 68.982567 201.382519 
L 69.052513 201.382519 
L 69.262319 201.382519 
L 69.262319 196.670456 
L 69.332263 196.670456 
L 70.381347 196.670456 
L 70.381347 187.24633 
L 70.451274 187.24633 
L 75.696873 187.24633 
L 75.696873 182.534267 
L 75.766804 182.534267 
L 77.095689 182.534267 
L 77.095689 177.822204 
L 77.165638 177.822204 
L 77.375451 177.822204 
L 77.375451 173.110142 
L 77.44543 173.110142 
L 77.655208 173.110142 
L 77.655208 168.398079 
L 77.725176 168.398079 
L 103.113731 168.398079 
L 103.113731 163.686016 
L 103.183635 163.686016 
L 103.393512 163.686016 
L 103.393512 158.973953 
L 103.46343 158.973953 
L 103.673245 158.973953 
L 103.673245 149.549827 
L 103.743182 149.549827 
L 110.667359 149.549827 
L 110.667359 144.837764 
L 110.737289 144.837764 
L 110.947125 144.837764 
L 110.947125 140.125701 
L 111.01707 140.125701 
L 115.703062 140.125701 
L 115.703062 144.837764 
L 115.773014 144.837764 
L 116.542352 144.837764 
L 116.542352 135.413638 
L 116.612298 135.413638 
L 116.822144 135.413638 
L 116.822144 140.125701 
L 116.892081 140.125701 
L 117.101924 140.125701 
L 117.101924 135.413638 
L 117.171868 135.413638 
L 117.661461 135.413638 
L 117.661461 125.989512 
L 117.731411 125.989512 
L 117.941184 125.989512 
L 117.941184 121.277449 
L 118.011126 121.277449 
L 131.090081 121.277449 
L 131.090081 116.565386 
L 131.160058 116.565386 
L 131.929422 116.565386 
L 131.929422 111.853323 
L 131.999376 111.853323 
L 145.358046 111.853323 
L 145.358046 107.14126 
L 145.42802 107.14126 
L 170.816561 107.14126 
L 170.816561 102.429197 
L 170.886526 102.429197 
L 171.935615 102.429197 
L 171.935615 97.717134 
L 172.005577 97.717134 
L 177.530936 97.717134 
L 177.530936 93.005071 
L 177.600844 93.005071 
L 199.632294 93.005071 
L 199.632294 88.293008 
L 199.702219 88.293008 
L 303.005 88.293008 
L 303.005 88.293008 
" style="fill:none;stroke:#7570b3;stroke-dasharray:4.5,1.5;stroke-dashoffset:0;stroke-width:1.5;"/>
   </g>
   <g id="line2d_32">
    <path clip-path="url(#p30ab70c0f0)" d="M 55.905 210.806645 
L 63.107761 210.806645 
L 63.107761 206.094582 
L 63.177445 206.094582 
L 63.667058 206.094582 
L 63.667058 201.382519 
L 63.736968 201.382519 
L 70.10158 201.382519 
L 70.10158 196.670456 
L 70.171542 196.670456 
L 77.375451 196.670456 
L 77.375451 191.958393 
L 77.44543 191.958393 
L 81.851684 191.958393 
L 81.851684 187.24633 
L 81.921686 187.24633 
L 83.250474 187.24633 
L 83.250474 182.534267 
L 83.320426 182.534267 
L 83.810027 182.534267 
L 83.810027 177.822204 
L 83.879983 177.822204 
L 102.554191 177.822204 
L 102.554191 168.398079 
L 102.624172 168.398079 
L 103.113731 168.398079 
L 103.113731 163.686016 
L 103.183635 163.686016 
L 103.393512 163.686016 
L 103.393512 158.973953 
L 103.46343 158.973953 
L 103.673245 158.973953 
L 103.673245 154.26189 
L 103.743182 154.26189 
L 103.953039 154.26189 
L 103.953039 144.837764 
L 104.022962 144.837764 
L 104.232806 144.837764 
L 104.232806 140.125701 
L 104.302737 140.125701 
L 104.792328 140.125701 
L 104.792328 135.413638 
L 104.862252 135.413638 
L 105.35188 135.413638 
L 105.35188 130.701575 
L 105.421735 130.701575 
L 106.191096 130.701575 
L 106.191096 125.989512 
L 106.261038 125.989512 
L 109.268519 125.989512 
L 109.268519 121.277449 
L 109.338464 121.277449 
L 109.548277 121.277449 
L 109.548277 116.565386 
L 109.618205 116.565386 
L 109.82806 116.565386 
L 109.82806 102.429197 
L 109.897991 102.429197 
L 110.107806 102.429197 
L 110.107806 97.717134 
L 110.177754 97.717134 
L 110.387539 97.717134 
L 110.387539 93.005071 
L 110.457543 93.005071 
L 112.905423 93.005071 
L 112.905423 97.717134 
L 112.975437 97.717134 
L 116.542352 97.717134 
L 116.542352 93.005071 
L 116.612298 93.005071 
L 116.822144 93.005071 
L 116.822144 97.717134 
L 116.892081 97.717134 
L 117.101924 97.717134 
L 117.101924 93.005071 
L 117.171868 93.005071 
L 124.935348 93.005071 
L 124.935348 97.717134 
L 125.005224 97.717134 
L 125.215047 97.717134 
L 125.215047 93.005071 
L 125.284998 93.005071 
L 303.005 93.005071 
L 303.005 93.005071 
" style="fill:none;stroke:#e7298a;stroke-dasharray:4.5,1.5;stroke-dashoffset:0;stroke-width:1.5;"/>
   </g>
   <g id="line2d_33">
    <path clip-path="url(#p30ab70c0f0)" d="M 181.517532 210.806645 
L 183.965445 210.806645 
L 183.965445 206.094582 
L 184.035436 206.094582 
L 192.35842 206.094582 
L 192.35842 201.382519 
L 192.428339 201.382519 
L 196.554893 201.382519 
L 196.554893 182.534267 
L 196.624764 182.534267 
L 197.114344 182.534267 
L 197.114344 173.110142 
L 197.184285 173.110142 
L 197.673892 173.110142 
L 197.673892 158.973953 
L 197.743842 158.973953 
L 198.23341 158.973953 
L 198.23341 154.26189 
L 198.303409 154.26189 
L 203.828746 154.26189 
L 203.828746 149.549827 
L 203.898643 149.549827 
L 205.227549 149.549827 
L 205.227549 144.837764 
L 205.297446 144.837764 
L 205.787047 144.837764 
L 205.787047 140.125701 
L 205.856968 140.125701 
L 206.346577 140.125701 
L 206.346577 135.413638 
L 206.416553 135.413638 
L 206.626351 135.413638 
L 206.626351 130.701575 
L 206.696246 130.701575 
L 210.543063 130.701575 
L 210.543063 125.989512 
L 210.612971 125.989512 
L 213.060892 125.989512 
L 213.060892 121.277449 
L 213.130881 121.277449 
L 217.816874 121.277449 
L 217.816874 116.565386 
L 217.886875 116.565386 
L 303.005 116.565386 
L 303.005 116.565386 
" style="fill:none;stroke:#66a61e;stroke-dasharray:4.5,1.5;stroke-dashoffset:0;stroke-width:1.5;"/>
   </g>
   <g id="line2d_34">
    <path clip-path="url(#p30ab70c0f0)" d="M 55.905 206.094582 
L 69.821818 206.094582 
L 69.821818 196.670456 
L 69.89173 196.670456 
L 75.976605 196.670456 
L 75.976605 187.24633 
L 76.046544 187.24633 
L 76.256355 187.24633 
L 76.256355 182.534267 
L 76.326301 182.534267 
L 77.375451 182.534267 
L 77.375451 177.822204 
L 77.44543 177.822204 
L 77.655208 177.822204 
L 77.655208 173.110142 
L 77.725176 173.110142 
L 103.673245 173.110142 
L 103.673245 168.398079 
L 103.743182 168.398079 
L 103.953039 168.398079 
L 103.953039 163.686016 
L 104.022962 163.686016 
L 104.232806 163.686016 
L 104.232806 158.973953 
L 104.302737 158.973953 
L 105.072036 158.973953 
L 105.072036 154.26189 
L 105.14204 154.26189 
L 105.35188 154.26189 
L 105.35188 158.973953 
L 105.421735 158.973953 
L 109.268519 158.973953 
L 109.268519 140.125701 
L 109.338464 140.125701 
L 109.82806 140.125701 
L 109.82806 130.701575 
L 109.897991 130.701575 
L 110.107806 130.701575 
L 110.107806 125.989512 
L 110.177754 125.989512 
L 110.387539 125.989512 
L 110.387539 116.565386 
L 110.457543 116.565386 
L 303.005 116.565386 
L 303.005 116.565386 
" style="fill:none;stroke:#e6ab02;stroke-dasharray:4.5,1.5;stroke-dashoffset:0;stroke-width:1.5;"/>
   </g>
   <g id="line2d_35">
    <path clip-path="url(#p30ab70c0f0)" d="M 55.905 210.806645 
L 64.22652 210.806645 
L 64.22652 206.094582 
L 64.296491 206.094582 
L 65.34563 206.094582 
L 65.34563 201.382519 
L 65.415531 201.382519 
L 82.97076 201.382519 
L 82.97076 196.670456 
L 83.040656 196.670456 
L 102.554191 196.670456 
L 102.554191 191.958393 
L 102.624172 191.958393 
L 104.512529 191.958393 
L 104.512529 182.534267 
L 104.582455 182.534267 
L 109.82806 182.534267 
L 109.82806 177.822204 
L 109.897991 177.822204 
L 110.107806 177.822204 
L 110.107806 173.110142 
L 110.177754 173.110142 
L 110.947125 173.110142 
L 110.947125 163.686016 
L 111.01707 163.686016 
L 111.226886 163.686016 
L 111.226886 158.973953 
L 111.296817 158.973953 
L 112.905423 158.973953 
L 112.905423 154.26189 
L 112.975437 154.26189 
L 116.262591 154.26189 
L 116.262591 158.973953 
L 116.332533 158.973953 
L 116.822144 158.973953 
L 116.822144 154.26189 
L 116.892081 154.26189 
L 117.101924 154.26189 
L 117.101924 149.549827 
L 117.171868 149.549827 
L 117.661461 149.549827 
L 117.661461 144.837764 
L 117.731411 144.837764 
L 117.941184 144.837764 
L 117.941184 149.549827 
L 118.011126 149.549827 
L 118.220985 149.549827 
L 118.220985 144.837764 
L 118.290924 144.837764 
L 122.976931 144.837764 
L 122.976931 140.125701 
L 123.046891 140.125701 
L 131.929422 140.125701 
L 131.929422 135.413638 
L 131.999376 135.413638 
L 150.673583 135.413638 
L 150.673583 130.701575 
L 150.743485 130.701575 
L 177.251133 130.701575 
L 177.251133 125.989512 
L 177.321123 125.989512 
L 210.543063 125.989512 
L 210.543063 121.277449 
L 210.612971 121.277449 
L 245.793324 121.277449 
L 245.793324 116.565386 
L 245.863249 116.565386 
L 303.005 116.565386 
L 303.005 116.565386 
" style="fill:none;stroke:#a6761d;stroke-dasharray:4.5,1.5;stroke-dashoffset:0;stroke-width:1.5;"/>
   </g>
   <g id="line2d_36">
    <path clip-path="url(#p30ab70c0f0)" d="M 55.905 210.806645 
L 70.381347 210.806645 
L 70.381347 206.094582 
L 70.451274 206.094582 
L 70.661153 206.094582 
L 70.661153 201.382519 
L 70.731076 201.382519 
L 76.256355 201.382519 
L 76.256355 196.670456 
L 76.326301 196.670456 
L 77.655208 196.670456 
L 77.655208 191.958393 
L 77.725176 191.958393 
L 78.214736 191.958393 
L 78.214736 187.24633 
L 78.284691 187.24633 
L 78.774292 187.24633 
L 78.774292 182.534267 
L 78.844237 182.534267 
L 82.97076 182.534267 
L 82.97076 187.24633 
L 83.040656 187.24633 
L 102.833995 187.24633 
L 102.833995 182.534267 
L 102.903866 182.534267 
L 104.512529 182.534267 
L 104.512529 173.110142 
L 104.582455 173.110142 
L 109.548277 173.110142 
L 109.548277 168.398079 
L 109.618205 168.398079 
L 110.667359 168.398079 
L 110.667359 149.549827 
L 110.737289 149.549827 
L 110.947125 149.549827 
L 110.947125 144.837764 
L 111.01707 144.837764 
L 111.226886 144.837764 
L 111.226886 140.125701 
L 111.296817 140.125701 
L 197.114344 140.125701 
L 197.114344 144.837764 
L 197.184285 144.837764 
L 197.394151 144.837764 
L 197.394151 140.125701 
L 197.464119 140.125701 
L 303.005 140.125701 
L 303.005 140.125701 
" style="fill:none;stroke:#666666;stroke-dasharray:4.5,1.5;stroke-dashoffset:0;stroke-width:1.5;"/>
   </g>
   <g id="line2d_37"/>
   <g id="line2d_38"/>
   <g id="line2d_39"/>
   <g id="line2d_40"/>
   <g id="line2d_41"/>
   <g id="line2d_42"/>
   <g id="line2d_43"/>
   <g id="line2d_44"/>
   <g id="line2d_45"/>
   <g id="line2d_46"/>
   <g id="line2d_47"/>
   <g id="line2d_48"/>
   <g id="line2d_49"/>
   <g id="line2d_50"/>
   <g id="line2d_51"/>
   <g id="line2d_52"/>
   <g id="line2d_53"/>
   <g id="patch_3">
    <path d="M 43.55 220.230771 
L 43.55 12.9 
" style="fill:none;stroke:#000000;stroke-linecap:square;stroke-linejoin:miter;stroke-width:0.8;"/>
   </g>
   <g id="patch_4">
    <path d="M 315.36 220.230771 
L 315.36 12.9 
" style="fill:none;stroke:#000000;stroke-linecap:square;stroke-linejoin:miter;stroke-width:0.8;"/>
   </g>
   <g id="patch_5">
    <path d="M 43.55 220.230771 
L 315.36 220.230771 
" style="fill:none;stroke:#000000;stroke-linecap:square;stroke-linejoin:miter;stroke-width:0.8;"/>
   </g>
   <g id="patch_6">
    <path d="M 43.55 12.9 
L 315.36 12.9 
" style="fill:none;stroke:#000000;stroke-linecap:square;stroke-linejoin:miter;stroke-width:0.8;"/>
   </g>
  </g>
  <g id="legend_1">
   <g id="patch_7">
    <path d="M 331.8625 262.528125 
L 420 262.528125 
Q 422 262.528125 422 260.528125 
L 422 12 
Q 422 10 420 10 
L 331.8625 10 
Q 329.8625 10 329.8625 12 
L 329.8625 260.528125 
Q 329.8625 262.528125 331.8625 262.528125 
z
" style="fill:#ffffff;opacity:0.8;stroke:#cccccc;stroke-linejoin:miter;"/>
   </g>
   <g id="text_23">
    <!-- 482/610 Reg. -->
    <defs>
     <path d="M 31.78125 34.625 
Q 24.75 34.625 20.71875 30.859375 
Q 16.703125 27.09375 16.703125 20.515625 
Q 16.703125 13.921875 20.71875 10.15625 
Q 24.75 6.390625 31.78125 6.390625 
Q 38.8125 6.390625 42.859375 10.171875 
Q 46.921875 13.96875 46.921875 20.515625 
Q 46.921875 27.09375 42.890625 30.859375 
Q 38.875 34.625 31.78125 34.625 
z
M 21.921875 38.8125 
Q 15.578125 40.375 12.03125 44.71875 
Q 8.5 49.078125 8.5 55.328125 
Q 8.5 64.0625 14.71875 69.140625 
Q 20.953125 74.21875 31.78125 74.21875 
Q 42.671875 74.21875 48.875 69.140625 
Q 55.078125 64.0625 55.078125 55.328125 
Q 55.078125 49.078125 51.53125 44.71875 
Q 48 40.375 41.703125 38.8125 
Q 48.828125 37.15625 52.796875 32.3125 
Q 56.78125 27.484375 56.78125 20.515625 
Q 56.78125 9.90625 50.3125 4.234375 
Q 43.84375 -1.421875 31.78125 -1.421875 
Q 19.734375 -1.421875 13.25 4.234375 
Q 6.78125 9.90625 6.78125 20.515625 
Q 6.78125 27.484375 10.78125 32.3125 
Q 14.796875 37.15625 21.921875 38.8125 
z
M 18.3125 54.390625 
Q 18.3125 48.734375 21.84375 45.5625 
Q 25.390625 42.390625 31.78125 42.390625 
Q 38.140625 42.390625 41.71875 45.5625 
Q 45.3125 48.734375 45.3125 54.390625 
Q 45.3125 60.0625 41.71875 63.234375 
Q 38.140625 66.40625 31.78125 66.40625 
Q 25.390625 66.40625 21.84375 63.234375 
Q 18.3125 60.0625 18.3125 54.390625 
z
" id="DejaVuSans-56"/>
     <path d="M 25.390625 72.90625 
L 33.6875 72.90625 
L 8.296875 -9.28125 
L 0 -9.28125 
z
" id="DejaVuSans-47"/>
     <path d="M 33.015625 40.375 
Q 26.375 40.375 22.484375 35.828125 
Q 18.609375 31.296875 18.609375 23.390625 
Q 18.609375 15.53125 22.484375 10.953125 
Q 26.375 6.390625 33.015625 6.390625 
Q 39.65625 6.390625 43.53125 10.953125 
Q 47.40625 15.53125 47.40625 23.390625 
Q 47.40625 31.296875 43.53125 35.828125 
Q 39.65625 40.375 33.015625 40.375 
z
M 52.59375 71.296875 
L 52.59375 62.3125 
Q 48.875 64.0625 45.09375 64.984375 
Q 41.3125 65.921875 37.59375 65.921875 
Q 27.828125 65.921875 22.671875 59.328125 
Q 17.53125 52.734375 16.796875 39.40625 
Q 19.671875 43.65625 24.015625 45.921875 
Q 28.375 48.1875 33.59375 48.1875 
Q 44.578125 48.1875 50.953125 41.515625 
Q 57.328125 34.859375 57.328125 23.390625 
Q 57.328125 12.15625 50.6875 5.359375 
Q 44.046875 -1.421875 33.015625 -1.421875 
Q 20.359375 -1.421875 13.671875 8.265625 
Q 6.984375 17.96875 6.984375 36.375 
Q 6.984375 53.65625 15.1875 63.9375 
Q 23.390625 74.21875 37.203125 74.21875 
Q 40.921875 74.21875 44.703125 73.484375 
Q 48.484375 72.75 52.59375 71.296875 
z
" id="DejaVuSans-54"/>
     <path d="M 10.6875 12.40625 
L 21 12.40625 
L 21 0 
L 10.6875 0 
z
" id="DejaVuSans-46"/>
    </defs>
    <g transform="translate(342.259375 21.598437)scale(0.1 -0.1)">
     <use xlink:href="#DejaVuSans-52"/>
     <use x="63.623047" xlink:href="#DejaVuSans-56"/>
     <use x="127.246094" xlink:href="#DejaVuSans-50"/>
     <use x="190.869141" xlink:href="#DejaVuSans-47"/>
     <use x="224.560547" xlink:href="#DejaVuSans-54"/>
     <use x="288.183594" xlink:href="#DejaVuSans-49"/>
     <use x="351.806641" xlink:href="#DejaVuSans-48"/>
     <use x="415.429688" xlink:href="#DejaVuSans-32"/>
     <use x="447.216797" xlink:href="#DejaVuSans-82"/>
     <use x="516.636719" xlink:href="#DejaVuSans-101"/>
     <use x="578.160156" xlink:href="#DejaVuSans-103"/>
     <use x="641.636719" xlink:href="#DejaVuSans-46"/>
    </g>
   </g>
   <g id="line2d_54">
    <path d="M 333.8625 32.776562 
L 353.8625 32.776562 
" style="fill:none;stroke:#1b9e77;stroke-linecap:square;stroke-width:1.5;"/>
   </g>
   <g id="line2d_55"/>
   <g id="text_24">
    <!-- AUS (40) -->
    <defs>
     <path d="M 34.1875 63.1875 
L 20.796875 26.90625 
L 47.609375 26.90625 
z
M 28.609375 72.90625 
L 39.796875 72.90625 
L 67.578125 0 
L 57.328125 0 
L 50.6875 18.703125 
L 17.828125 18.703125 
L 11.1875 0 
L 0.78125 0 
z
" id="DejaVuSans-65"/>
     <path d="M 8.6875 72.90625 
L 18.609375 72.90625 
L 18.609375 28.609375 
Q 18.609375 16.890625 22.84375 11.734375 
Q 27.09375 6.59375 36.625 6.59375 
Q 46.09375 6.59375 50.34375 11.734375 
Q 54.59375 16.890625 54.59375 28.609375 
L 54.59375 72.90625 
L 64.5 72.90625 
L 64.5 27.390625 
Q 64.5 13.140625 57.4375 5.859375 
Q 50.390625 -1.421875 36.625 -1.421875 
Q 22.796875 -1.421875 15.734375 5.859375 
Q 8.6875 13.140625 8.6875 27.390625 
z
" id="DejaVuSans-85"/>
     <path d="M 31 75.875 
Q 24.46875 64.65625 21.28125 53.65625 
Q 18.109375 42.671875 18.109375 31.390625 
Q 18.109375 20.125 21.3125 9.0625 
Q 24.515625 -2 31 -13.1875 
L 23.1875 -13.1875 
Q 15.875 -1.703125 12.234375 9.375 
Q 8.59375 20.453125 8.59375 31.390625 
Q 8.59375 42.28125 12.203125 53.3125 
Q 15.828125 64.359375 23.1875 75.875 
z
" id="DejaVuSans-40"/>
     <path d="M 8.015625 75.875 
L 15.828125 75.875 
Q 23.140625 64.359375 26.78125 53.3125 
Q 30.421875 42.28125 30.421875 31.390625 
Q 30.421875 20.453125 26.78125 9.375 
Q 23.140625 -1.703125 15.828125 -13.1875 
L 8.015625 -13.1875 
Q 14.5 -2 17.703125 9.0625 
Q 20.90625 20.125 20.90625 31.390625 
Q 20.90625 42.671875 17.703125 53.65625 
Q 14.5 64.65625 8.015625 75.875 
z
" id="DejaVuSans-41"/>
    </defs>
    <g transform="translate(361.8625 36.276562)scale(0.1 -0.1)">
     <use xlink:href="#DejaVuSans-65"/>
     <use x="68.408203" xlink:href="#DejaVuSans-85"/>
     <use x="141.601562" xlink:href="#DejaVuSans-83"/>
     <use x="205.078125" xlink:href="#DejaVuSans-32"/>
     <use x="236.865234" xlink:href="#DejaVuSans-40"/>
     <use x="275.878906" xlink:href="#DejaVuSans-52"/>
     <use x="339.501953" xlink:href="#DejaVuSans-48"/>
     <use x="403.125" xlink:href="#DejaVuSans-41"/>
    </g>
   </g>
   <g id="line2d_56">
    <path d="M 333.8625 47.454688 
L 353.8625 47.454688 
" style="fill:none;stroke:#d95f02;stroke-linecap:square;stroke-width:1.5;"/>
   </g>
   <g id="line2d_57"/>
   <g id="text_25">
    <!-- COML (40) -->
    <defs>
     <path d="M 64.40625 67.28125 
L 64.40625 56.890625 
Q 59.421875 61.53125 53.78125 63.8125 
Q 48.140625 66.109375 41.796875 66.109375 
Q 29.296875 66.109375 22.65625 58.46875 
Q 16.015625 50.828125 16.015625 36.375 
Q 16.015625 21.96875 22.65625 14.328125 
Q 29.296875 6.6875 41.796875 6.6875 
Q 48.140625 6.6875 53.78125 8.984375 
Q 59.421875 11.28125 64.40625 15.921875 
L 64.40625 5.609375 
Q 59.234375 2.09375 53.4375 0.328125 
Q 47.65625 -1.421875 41.21875 -1.421875 
Q 24.65625 -1.421875 15.125 8.703125 
Q 5.609375 18.84375 5.609375 36.375 
Q 5.609375 53.953125 15.125 64.078125 
Q 24.65625 74.21875 41.21875 74.21875 
Q 47.75 74.21875 53.53125 72.484375 
Q 59.328125 70.75 64.40625 67.28125 
z
" id="DejaVuSans-67"/>
     <path d="M 39.40625 66.21875 
Q 28.65625 66.21875 22.328125 58.203125 
Q 16.015625 50.203125 16.015625 36.375 
Q 16.015625 22.609375 22.328125 14.59375 
Q 28.65625 6.59375 39.40625 6.59375 
Q 50.140625 6.59375 56.421875 14.59375 
Q 62.703125 22.609375 62.703125 36.375 
Q 62.703125 50.203125 56.421875 58.203125 
Q 50.140625 66.21875 39.40625 66.21875 
z
M 39.40625 74.21875 
Q 54.734375 74.21875 63.90625 63.9375 
Q 73.09375 53.65625 73.09375 36.375 
Q 73.09375 19.140625 63.90625 8.859375 
Q 54.734375 -1.421875 39.40625 -1.421875 
Q 24.03125 -1.421875 14.8125 8.828125 
Q 5.609375 19.09375 5.609375 36.375 
Q 5.609375 53.65625 14.8125 63.9375 
Q 24.03125 74.21875 39.40625 74.21875 
z
" id="DejaVuSans-79"/>
     <path d="M 9.8125 72.90625 
L 24.515625 72.90625 
L 43.109375 23.296875 
L 61.8125 72.90625 
L 76.515625 72.90625 
L 76.515625 0 
L 66.890625 0 
L 66.890625 64.015625 
L 48.09375 14.015625 
L 38.1875 14.015625 
L 19.390625 64.015625 
L 19.390625 0 
L 9.8125 0 
z
" id="DejaVuSans-77"/>
     <path d="M 9.8125 72.90625 
L 19.671875 72.90625 
L 19.671875 8.296875 
L 55.171875 8.296875 
L 55.171875 0 
L 9.8125 0 
z
" id="DejaVuSans-76"/>
    </defs>
    <g transform="translate(361.8625 50.954688)scale(0.1 -0.1)">
     <use xlink:href="#DejaVuSans-67"/>
     <use x="69.824219" xlink:href="#DejaVuSans-79"/>
     <use x="148.535156" xlink:href="#DejaVuSans-77"/>
     <use x="234.814453" xlink:href="#DejaVuSans-76"/>
     <use x="290.527344" xlink:href="#DejaVuSans-32"/>
     <use x="322.314453" xlink:href="#DejaVuSans-40"/>
     <use x="361.328125" xlink:href="#DejaVuSans-52"/>
     <use x="424.951172" xlink:href="#DejaVuSans-48"/>
     <use x="488.574219" xlink:href="#DejaVuSans-41"/>
    </g>
   </g>
   <g id="line2d_58">
    <path d="M 333.8625 62.132812 
L 353.8625 62.132812 
" style="fill:none;stroke:#7570b3;stroke-linecap:square;stroke-width:1.5;"/>
   </g>
   <g id="line2d_59"/>
   <g id="text_26">
    <!-- GDD (40) -->
    <defs>
     <path d="M 59.515625 10.40625 
L 59.515625 29.984375 
L 43.40625 29.984375 
L 43.40625 38.09375 
L 69.28125 38.09375 
L 69.28125 6.78125 
Q 63.578125 2.734375 56.6875 0.65625 
Q 49.8125 -1.421875 42 -1.421875 
Q 24.90625 -1.421875 15.25 8.5625 
Q 5.609375 18.5625 5.609375 36.375 
Q 5.609375 54.25 15.25 64.234375 
Q 24.90625 74.21875 42 74.21875 
Q 49.125 74.21875 55.546875 72.453125 
Q 61.96875 70.703125 67.390625 67.28125 
L 67.390625 56.78125 
Q 61.921875 61.421875 55.765625 63.765625 
Q 49.609375 66.109375 42.828125 66.109375 
Q 29.4375 66.109375 22.71875 58.640625 
Q 16.015625 51.171875 16.015625 36.375 
Q 16.015625 21.625 22.71875 14.15625 
Q 29.4375 6.6875 42.828125 6.6875 
Q 48.046875 6.6875 52.140625 7.59375 
Q 56.25 8.5 59.515625 10.40625 
z
" id="DejaVuSans-71"/>
    </defs>
    <g transform="translate(361.8625 65.632812)scale(0.1 -0.1)">
     <use xlink:href="#DejaVuSans-71"/>
     <use x="77.490234" xlink:href="#DejaVuSans-68"/>
     <use x="154.492188" xlink:href="#DejaVuSans-68"/>
     <use x="231.494141" xlink:href="#DejaVuSans-32"/>
     <use x="263.28125" xlink:href="#DejaVuSans-40"/>
     <use x="302.294922" xlink:href="#DejaVuSans-52"/>
     <use x="365.917969" xlink:href="#DejaVuSans-48"/>
     <use x="429.541016" xlink:href="#DejaVuSans-41"/>
    </g>
   </g>
   <g id="line2d_60">
    <path d="M 333.8625 76.810937 
L 353.8625 76.810937 
" style="fill:none;stroke:#e7298a;stroke-linecap:square;stroke-width:1.5;"/>
   </g>
   <g id="line2d_61"/>
   <g id="text_27">
    <!-- SA (38) -->
    <g transform="translate(361.8625 80.310937)scale(0.1 -0.1)">
     <use xlink:href="#DejaVuSans-83"/>
     <use x="63.492188" xlink:href="#DejaVuSans-65"/>
     <use x="131.900391" xlink:href="#DejaVuSans-32"/>
     <use x="163.6875" xlink:href="#DejaVuSans-40"/>
     <use x="202.701172" xlink:href="#DejaVuSans-51"/>
     <use x="266.324219" xlink:href="#DejaVuSans-56"/>
     <use x="329.947266" xlink:href="#DejaVuSans-41"/>
    </g>
   </g>
   <g id="line2d_62">
    <path d="M 333.8625 91.489062 
L 353.8625 91.489062 
" style="fill:none;stroke:#66a61e;stroke-linecap:square;stroke-width:1.5;"/>
   </g>
   <g id="line2d_63"/>
   <g id="text_28">
    <!-- AS (38) -->
    <g transform="translate(361.8625 94.989062)scale(0.1 -0.1)">
     <use xlink:href="#DejaVuSans-65"/>
     <use x="68.408203" xlink:href="#DejaVuSans-83"/>
     <use x="131.884766" xlink:href="#DejaVuSans-32"/>
     <use x="163.671875" xlink:href="#DejaVuSans-40"/>
     <use x="202.685547" xlink:href="#DejaVuSans-51"/>
     <use x="266.308594" xlink:href="#DejaVuSans-56"/>
     <use x="329.931641" xlink:href="#DejaVuSans-41"/>
    </g>
   </g>
   <g id="line2d_64">
    <path d="M 333.8625 106.167188 
L 353.8625 106.167188 
" style="fill:none;stroke:#e6ab02;stroke-linecap:square;stroke-width:1.5;"/>
   </g>
   <g id="line2d_65"/>
   <g id="text_29">
    <!-- MD (38) -->
    <g transform="translate(361.8625 109.667188)scale(0.1 -0.1)">
     <use xlink:href="#DejaVuSans-77"/>
     <use x="86.279297" xlink:href="#DejaVuSans-68"/>
     <use x="163.28125" xlink:href="#DejaVuSans-32"/>
     <use x="195.068359" xlink:href="#DejaVuSans-40"/>
     <use x="234.082031" xlink:href="#DejaVuSans-51"/>
     <use x="297.705078" xlink:href="#DejaVuSans-56"/>
     <use x="361.328125" xlink:href="#DejaVuSans-41"/>
    </g>
   </g>
   <g id="line2d_66">
    <path d="M 333.8625 120.845312 
L 353.8625 120.845312 
" style="fill:none;stroke:#a6761d;stroke-linecap:square;stroke-width:1.5;"/>
   </g>
   <g id="line2d_67"/>
   <g id="text_30">
    <!-- HPI (38) -->
    <defs>
     <path d="M 9.8125 72.90625 
L 19.671875 72.90625 
L 19.671875 43.015625 
L 55.515625 43.015625 
L 55.515625 72.90625 
L 65.375 72.90625 
L 65.375 0 
L 55.515625 0 
L 55.515625 34.71875 
L 19.671875 34.71875 
L 19.671875 0 
L 9.8125 0 
z
" id="DejaVuSans-72"/>
     <path d="M 19.671875 64.796875 
L 19.671875 37.40625 
L 32.078125 37.40625 
Q 38.96875 37.40625 42.71875 40.96875 
Q 46.484375 44.53125 46.484375 51.125 
Q 46.484375 57.671875 42.71875 61.234375 
Q 38.96875 64.796875 32.078125 64.796875 
z
M 9.8125 72.90625 
L 32.078125 72.90625 
Q 44.34375 72.90625 50.609375 67.359375 
Q 56.890625 61.8125 56.890625 51.125 
Q 56.890625 40.328125 50.609375 34.8125 
Q 44.34375 29.296875 32.078125 29.296875 
L 19.671875 29.296875 
L 19.671875 0 
L 9.8125 0 
z
" id="DejaVuSans-80"/>
     <path d="M 9.8125 72.90625 
L 19.671875 72.90625 
L 19.671875 0 
L 9.8125 0 
z
" id="DejaVuSans-73"/>
    </defs>
    <g transform="translate(361.8625 124.345312)scale(0.1 -0.1)">
     <use xlink:href="#DejaVuSans-72"/>
     <use x="75.195312" xlink:href="#DejaVuSans-80"/>
     <use x="135.498047" xlink:href="#DejaVuSans-73"/>
     <use x="164.990234" xlink:href="#DejaVuSans-32"/>
     <use x="196.777344" xlink:href="#DejaVuSans-40"/>
     <use x="235.791016" xlink:href="#DejaVuSans-51"/>
     <use x="299.414062" xlink:href="#DejaVuSans-56"/>
     <use x="363.037109" xlink:href="#DejaVuSans-41"/>
    </g>
   </g>
   <g id="line2d_68">
    <path d="M 333.8625 135.523438 
L 353.8625 135.523438 
" style="fill:none;stroke:#666666;stroke-linecap:square;stroke-width:1.5;"/>
   </g>
   <g id="line2d_69"/>
   <g id="text_31">
    <!-- FIT (29) -->
    <defs>
     <path d="M 9.8125 72.90625 
L 51.703125 72.90625 
L 51.703125 64.59375 
L 19.671875 64.59375 
L 19.671875 43.109375 
L 48.578125 43.109375 
L 48.578125 34.8125 
L 19.671875 34.8125 
L 19.671875 0 
L 9.8125 0 
z
" id="DejaVuSans-70"/>
     <path d="M -0.296875 72.90625 
L 61.375 72.90625 
L 61.375 64.59375 
L 35.5 64.59375 
L 35.5 0 
L 25.59375 0 
L 25.59375 64.59375 
L -0.296875 64.59375 
z
" id="DejaVuSans-84"/>
    </defs>
    <g transform="translate(361.8625 139.023438)scale(0.1 -0.1)">
     <use xlink:href="#DejaVuSans-70"/>
     <use x="57.519531" xlink:href="#DejaVuSans-73"/>
     <use x="87.011719" xlink:href="#DejaVuSans-84"/>
     <use x="148.095703" xlink:href="#DejaVuSans-32"/>
     <use x="179.882812" xlink:href="#DejaVuSans-40"/>
     <use x="218.896484" xlink:href="#DejaVuSans-50"/>
     <use x="282.519531" xlink:href="#DejaVuSans-57"/>
     <use x="346.142578" xlink:href="#DejaVuSans-41"/>
    </g>
   </g>
   <g id="line2d_70">
    <path d="M 333.8625 150.201562 
L 353.8625 150.201562 
" style="fill:none;stroke:#1b9e77;stroke-dasharray:4.5,1.5;stroke-dashoffset:0;stroke-width:1.5;"/>
   </g>
   <g id="line2d_71"/>
   <g id="text_32">
    <!-- TBI (28) -->
    <defs>
     <path d="M 19.671875 34.8125 
L 19.671875 8.109375 
L 35.5 8.109375 
Q 43.453125 8.109375 47.28125 11.40625 
Q 51.125 14.703125 51.125 21.484375 
Q 51.125 28.328125 47.28125 31.5625 
Q 43.453125 34.8125 35.5 34.8125 
z
M 19.671875 64.796875 
L 19.671875 42.828125 
L 34.28125 42.828125 
Q 41.5 42.828125 45.03125 45.53125 
Q 48.578125 48.25 48.578125 53.8125 
Q 48.578125 59.328125 45.03125 62.0625 
Q 41.5 64.796875 34.28125 64.796875 
z
M 9.8125 72.90625 
L 35.015625 72.90625 
Q 46.296875 72.90625 52.390625 68.21875 
Q 58.5 63.53125 58.5 54.890625 
Q 58.5 48.1875 55.375 44.234375 
Q 52.25 40.28125 46.1875 39.3125 
Q 53.46875 37.75 57.5 32.78125 
Q 61.53125 27.828125 61.53125 20.40625 
Q 61.53125 10.640625 54.890625 5.3125 
Q 48.25 0 35.984375 0 
L 9.8125 0 
z
" id="DejaVuSans-66"/>
    </defs>
    <g transform="translate(361.8625 153.701562)scale(0.1 -0.1)">
     <use xlink:href="#DejaVuSans-84"/>
     <use x="61.083984" xlink:href="#DejaVuSans-66"/>
     <use x="129.6875" xlink:href="#DejaVuSans-73"/>
     <use x="159.179688" xlink:href="#DejaVuSans-32"/>
     <use x="190.966797" xlink:href="#DejaVuSans-40"/>
     <use x="229.980469" xlink:href="#DejaVuSans-50"/>
     <use x="293.603516" xlink:href="#DejaVuSans-56"/>
     <use x="357.226562" xlink:href="#DejaVuSans-41"/>
    </g>
   </g>
   <g id="line2d_72">
    <path d="M 333.8625 164.879687 
L 353.8625 164.879687 
" style="fill:none;stroke:#d95f02;stroke-dasharray:4.5,1.5;stroke-dashoffset:0;stroke-width:1.5;"/>
   </g>
   <g id="line2d_73"/>
   <g id="text_33">
    <!-- SPD (27) -->
    <g transform="translate(361.8625 168.379687)scale(0.1 -0.1)">
     <use xlink:href="#DejaVuSans-83"/>
     <use x="63.476562" xlink:href="#DejaVuSans-80"/>
     <use x="123.779297" xlink:href="#DejaVuSans-68"/>
     <use x="200.78125" xlink:href="#DejaVuSans-32"/>
     <use x="232.568359" xlink:href="#DejaVuSans-40"/>
     <use x="271.582031" xlink:href="#DejaVuSans-50"/>
     <use x="335.205078" xlink:href="#DejaVuSans-55"/>
     <use x="398.828125" xlink:href="#DejaVuSans-41"/>
    </g>
   </g>
   <g id="line2d_74">
    <path d="M 333.8625 179.557812 
L 353.8625 179.557812 
" style="fill:none;stroke:#7570b3;stroke-dasharray:4.5,1.5;stroke-dashoffset:0;stroke-width:1.5;"/>
   </g>
   <g id="line2d_75"/>
   <g id="text_34">
    <!-- BP (26) -->
    <g transform="translate(361.8625 183.057812)scale(0.1 -0.1)">
     <use xlink:href="#DejaVuSans-66"/>
     <use x="68.603516" xlink:href="#DejaVuSans-80"/>
     <use x="128.90625" xlink:href="#DejaVuSans-32"/>
     <use x="160.693359" xlink:href="#DejaVuSans-40"/>
     <use x="199.707031" xlink:href="#DejaVuSans-50"/>
     <use x="263.330078" xlink:href="#DejaVuSans-54"/>
     <use x="326.953125" xlink:href="#DejaVuSans-41"/>
    </g>
   </g>
   <g id="line2d_76">
    <path d="M 333.8625 194.235937 
L 353.8625 194.235937 
" style="fill:none;stroke:#e7298a;stroke-dasharray:4.5,1.5;stroke-dashoffset:0;stroke-width:1.5;"/>
   </g>
   <g id="line2d_77"/>
   <g id="text_35">
    <!-- CC (25) -->
    <g transform="translate(361.8625 197.735937)scale(0.1 -0.1)">
     <use xlink:href="#DejaVuSans-67"/>
     <use x="69.824219" xlink:href="#DejaVuSans-67"/>
     <use x="139.648438" xlink:href="#DejaVuSans-32"/>
     <use x="171.435547" xlink:href="#DejaVuSans-40"/>
     <use x="210.449219" xlink:href="#DejaVuSans-50"/>
     <use x="274.072266" xlink:href="#DejaVuSans-53"/>
     <use x="337.695312" xlink:href="#DejaVuSans-41"/>
    </g>
   </g>
   <g id="line2d_78">
    <path d="M 333.8625 208.914062 
L 353.8625 208.914062 
" style="fill:none;stroke:#66a61e;stroke-dasharray:4.5,1.5;stroke-dashoffset:0;stroke-width:1.5;"/>
   </g>
   <g id="line2d_79"/>
   <g id="text_36">
    <!-- RJPH (20) -->
    <defs>
     <path d="M 9.8125 72.90625 
L 19.671875 72.90625 
L 19.671875 5.078125 
Q 19.671875 -8.109375 14.671875 -14.0625 
Q 9.671875 -20.015625 -1.421875 -20.015625 
L -5.171875 -20.015625 
L -5.171875 -11.71875 
L -2.09375 -11.71875 
Q 4.4375 -11.71875 7.125 -8.046875 
Q 9.8125 -4.390625 9.8125 5.078125 
z
" id="DejaVuSans-74"/>
    </defs>
    <g transform="translate(361.8625 212.414062)scale(0.1 -0.1)">
     <use xlink:href="#DejaVuSans-82"/>
     <use x="69.482422" xlink:href="#DejaVuSans-74"/>
     <use x="98.974609" xlink:href="#DejaVuSans-80"/>
     <use x="159.277344" xlink:href="#DejaVuSans-72"/>
     <use x="234.472656" xlink:href="#DejaVuSans-32"/>
     <use x="266.259766" xlink:href="#DejaVuSans-40"/>
     <use x="305.273438" xlink:href="#DejaVuSans-50"/>
     <use x="368.896484" xlink:href="#DejaVuSans-48"/>
     <use x="432.519531" xlink:href="#DejaVuSans-41"/>
    </g>
   </g>
   <g id="line2d_80">
    <path d="M 333.8625 223.592187 
L 353.8625 223.592187 
" style="fill:none;stroke:#e6ab02;stroke-dasharray:4.5,1.5;stroke-dashoffset:0;stroke-width:1.5;"/>
   </g>
   <g id="line2d_81"/>
   <g id="text_37">
    <!-- AHR-H (20) -->
    <g transform="translate(361.8625 227.092187)scale(0.1 -0.1)">
     <use xlink:href="#DejaVuSans-65"/>
     <use x="68.408203" xlink:href="#DejaVuSans-72"/>
     <use x="143.603516" xlink:href="#DejaVuSans-82"/>
     <use x="213.023438" xlink:href="#DejaVuSans-45"/>
     <use x="249.107422" xlink:href="#DejaVuSans-72"/>
     <use x="324.302734" xlink:href="#DejaVuSans-32"/>
     <use x="356.089844" xlink:href="#DejaVuSans-40"/>
     <use x="395.103516" xlink:href="#DejaVuSans-50"/>
     <use x="458.726562" xlink:href="#DejaVuSans-48"/>
     <use x="522.349609" xlink:href="#DejaVuSans-41"/>
    </g>
   </g>
   <g id="line2d_82">
    <path d="M 333.8625 238.270312 
L 353.8625 238.270312 
" style="fill:none;stroke:#a6761d;stroke-dasharray:4.5,1.5;stroke-dashoffset:0;stroke-width:1.5;"/>
   </g>
   <g id="line2d_83"/>
   <g id="text_38">
    <!-- CB (20) -->
    <g transform="translate(361.8625 241.770312)scale(0.1 -0.1)">
     <use xlink:href="#DejaVuSans-67"/>
     <use x="69.824219" xlink:href="#DejaVuSans-66"/>
     <use x="138.427734" xlink:href="#DejaVuSans-32"/>
     <use x="170.214844" xlink:href="#DejaVuSans-40"/>
     <use x="209.228516" xlink:href="#DejaVuSans-50"/>
     <use x="272.851562" xlink:href="#DejaVuSans-48"/>
     <use x="336.474609" xlink:href="#DejaVuSans-41"/>
    </g>
   </g>
   <g id="line2d_84">
    <path d="M 333.8625 252.948437 
L 353.8625 252.948437 
" style="fill:none;stroke:#666666;stroke-dasharray:4.5,1.5;stroke-dashoffset:0;stroke-width:1.5;"/>
   </g>
   <g id="line2d_85"/>
   <g id="text_39">
    <!-- AHR-A (15) -->
    <g transform="translate(361.8625 256.448437)scale(0.1 -0.1)">
     <use xlink:href="#DejaVuSans-65"/>
     <use x="68.408203" xlink:href="#DejaVuSans-72"/>
     <use x="143.603516" xlink:href="#DejaVuSans-82"/>
     <use x="213.023438" xlink:href="#DejaVuSans-45"/>
     <use x="249.076172" xlink:href="#DejaVuSans-65"/>
     <use x="317.484375" xlink:href="#DejaVuSans-32"/>
     <use x="349.271484" xlink:href="#DejaVuSans-40"/>
     <use x="388.285156" xlink:href="#DejaVuSans-49"/>
     <use x="451.908203" xlink:href="#DejaVuSans-53"/>
     <use x="515.53125" xlink:href="#DejaVuSans-41"/>
    </g>
   </g>
  </g>
 </g>
 <defs>
  <clipPath id="p30ab70c0f0">
   <rect height="207.330771" width="271.81" x="43.55" y="12.9"/>
  </clipPath>
 </defs>
</svg>
