<?xml version="1.0" encoding="utf-8" standalone="no"?>
<!DOCTYPE svg PUBLIC "-//W3C//DTD SVG 1.1//EN"
  "http://www.w3.org/Graphics/SVG/1.1/DTD/svg11.dtd">
<!-- Created with matplotlib (https://matplotlib.org/) -->
<svg height="288pt" version="1.1" viewBox="0 0 432 288" width="432pt" xmlns="http://www.w3.org/2000/svg" xmlns:xlink="http://www.w3.org/1999/xlink">
 <defs>
  <style type="text/css">
*{stroke-linecap:butt;stroke-linejoin:round;}
  </style>
 </defs>
 <g id="figure_1">
  <g id="patch_1">
   <path d="M 0 288 
L 432 288 
L 432 0 
L 0 0 
z
" style="fill:#ffffff;"/>
  </g>
  <g id="axes_1">
   <g id="patch_2">
    <path d="M 43.55 220.230771 
L 315.36 220.230771 
L 315.36 12.9 
L 43.55 12.9 
z
" style="fill:#ffffff;"/>
   </g>
   <g id="matplotlib.axis_1">
    <g id="xtick_1">
     <g id="line2d_1">
      <defs>
       <path d="M 0 0 
L 0 3.5 
" id="m777ae3e882" style="stroke:#000000;stroke-width:0.8;"/>
      </defs>
      <g>
       <use style="stroke:#000000;stroke-width:0.8;" x="48.684731" xlink:href="#m777ae3e882" y="220.230771"/>
      </g>
     </g>
     <g id="text_1">
      <!-- 2020-11-29 -->
      <defs>
       <path d="M 19.1875 8.296875 
L 53.609375 8.296875 
L 53.609375 0 
L 7.328125 0 
L 7.328125 8.296875 
Q 12.9375 14.109375 22.625 23.890625 
Q 32.328125 33.6875 34.8125 36.53125 
Q 39.546875 41.84375 41.421875 45.53125 
Q 43.3125 49.21875 43.3125 52.78125 
Q 43.3125 58.59375 39.234375 62.25 
Q 35.15625 65.921875 28.609375 65.921875 
Q 23.96875 65.921875 18.8125 64.3125 
Q 13.671875 62.703125 7.8125 59.421875 
L 7.8125 69.390625 
Q 13.765625 71.78125 18.9375 73 
Q 24.125 74.21875 28.421875 74.21875 
Q 39.75 74.21875 46.484375 68.546875 
Q 53.21875 62.890625 53.21875 53.421875 
Q 53.21875 48.921875 51.53125 44.890625 
Q 49.859375 40.875 45.40625 35.40625 
Q 44.1875 33.984375 37.640625 27.21875 
Q 31.109375 20.453125 19.1875 8.296875 
z
" id="DejaVuSans-50"/>
       <path d="M 31.78125 66.40625 
Q 24.171875 66.40625 20.328125 58.90625 
Q 16.5 51.421875 16.5 36.375 
Q 16.5 21.390625 20.328125 13.890625 
Q 24.171875 6.390625 31.78125 6.390625 
Q 39.453125 6.390625 43.28125 13.890625 
Q 47.125 21.390625 47.125 36.375 
Q 47.125 51.421875 43.28125 58.90625 
Q 39.453125 66.40625 31.78125 66.40625 
z
M 31.78125 74.21875 
Q 44.046875 74.21875 50.515625 64.515625 
Q 56.984375 54.828125 56.984375 36.375 
Q 56.984375 17.96875 50.515625 8.265625 
Q 44.046875 -1.421875 31.78125 -1.421875 
Q 19.53125 -1.421875 13.0625 8.265625 
Q 6.59375 17.96875 6.59375 36.375 
Q 6.59375 54.828125 13.0625 64.515625 
Q 19.53125 74.21875 31.78125 74.21875 
z
" id="DejaVuSans-48"/>
       <path d="M 4.890625 31.390625 
L 31.203125 31.390625 
L 31.203125 23.390625 
L 4.890625 23.390625 
z
" id="DejaVuSans-45"/>
       <path d="M 12.40625 8.296875 
L 28.515625 8.296875 
L 28.515625 63.921875 
L 10.984375 60.40625 
L 10.984375 69.390625 
L 28.421875 72.90625 
L 38.28125 72.90625 
L 38.28125 8.296875 
L 54.390625 8.296875 
L 54.390625 0 
L 12.40625 0 
z
" id="DejaVuSans-49"/>
       <path d="M 10.984375 1.515625 
L 10.984375 10.5 
Q 14.703125 8.734375 18.5 7.8125 
Q 22.3125 6.890625 25.984375 6.890625 
Q 35.75 6.890625 40.890625 13.453125 
Q 46.046875 20.015625 46.78125 33.40625 
Q 43.953125 29.203125 39.59375 26.953125 
Q 35.25 24.703125 29.984375 24.703125 
Q 19.046875 24.703125 12.671875 31.3125 
Q 6.296875 37.9375 6.296875 49.421875 
Q 6.296875 60.640625 12.9375 67.421875 
Q 19.578125 74.21875 30.609375 74.21875 
Q 43.265625 74.21875 49.921875 64.515625 
Q 56.59375 54.828125 56.59375 36.375 
Q 56.59375 19.140625 48.40625 8.859375 
Q 40.234375 -1.421875 26.421875 -1.421875 
Q 22.703125 -1.421875 18.890625 -0.6875 
Q 15.09375 0.046875 10.984375 1.515625 
z
M 30.609375 32.421875 
Q 37.25 32.421875 41.125 36.953125 
Q 45.015625 41.5 45.015625 49.421875 
Q 45.015625 57.28125 41.125 61.84375 
Q 37.25 66.40625 30.609375 66.40625 
Q 23.96875 66.40625 20.09375 61.84375 
Q 16.21875 57.28125 16.21875 49.421875 
Q 16.21875 41.5 20.09375 36.953125 
Q 23.96875 32.421875 30.609375 32.421875 
z
" id="DejaVuSans-57"/>
      </defs>
      <g transform="translate(24.899615 262.869024)rotate(-30)scale(0.1 -0.1)">
       <use xlink:href="#DejaVuSans-50"/>
       <use x="63.623047" xlink:href="#DejaVuSans-48"/>
       <use x="127.246094" xlink:href="#DejaVuSans-50"/>
       <use x="190.869141" xlink:href="#DejaVuSans-48"/>
       <use x="254.492188" xlink:href="#DejaVuSans-45"/>
       <use x="290.576172" xlink:href="#DejaVuSans-49"/>
       <use x="354.199219" xlink:href="#DejaVuSans-49"/>
       <use x="417.822266" xlink:href="#DejaVuSans-45"/>
       <use x="453.90625" xlink:href="#DejaVuSans-50"/>
       <use x="517.529297" xlink:href="#DejaVuSans-57"/>
      </g>
     </g>
    </g>
    <g id="xtick_2">
     <g id="line2d_2">
      <g>
       <use style="stroke:#000000;stroke-width:0.8;" x="58.656022" xlink:href="#m777ae3e882" y="220.230771"/>
      </g>
     </g>
     <g id="text_2">
      <!-- 2020-12-01 -->
      <g transform="translate(34.870906 262.869024)rotate(-30)scale(0.1 -0.1)">
       <use xlink:href="#DejaVuSans-50"/>
       <use x="63.623047" xlink:href="#DejaVuSans-48"/>
       <use x="127.246094" xlink:href="#DejaVuSans-50"/>
       <use x="190.869141" xlink:href="#DejaVuSans-48"/>
       <use x="254.492188" xlink:href="#DejaVuSans-45"/>
       <use x="290.576172" xlink:href="#DejaVuSans-49"/>
       <use x="354.199219" xlink:href="#DejaVuSans-50"/>
       <use x="417.822266" xlink:href="#DejaVuSans-45"/>
       <use x="453.90625" xlink:href="#DejaVuSans-48"/>
       <use x="517.529297" xlink:href="#DejaVuSans-49"/>
      </g>
     </g>
    </g>
    <g id="xtick_3">
     <g id="line2d_3">
      <g>
       <use style="stroke:#000000;stroke-width:0.8;" x="93.55554" xlink:href="#m777ae3e882" y="220.230771"/>
      </g>
     </g>
     <g id="text_3">
      <!-- 2020-12-08 -->
      <defs>
       <path d="M 31.78125 34.625 
Q 24.75 34.625 20.71875 30.859375 
Q 16.703125 27.09375 16.703125 20.515625 
Q 16.703125 13.921875 20.71875 10.15625 
Q 24.75 6.390625 31.78125 6.390625 
Q 38.8125 6.390625 42.859375 10.171875 
Q 46.921875 13.96875 46.921875 20.515625 
Q 46.921875 27.09375 42.890625 30.859375 
Q 38.875 34.625 31.78125 34.625 
z
M 21.921875 38.8125 
Q 15.578125 40.375 12.03125 44.71875 
Q 8.5 49.078125 8.5 55.328125 
Q 8.5 64.0625 14.71875 69.140625 
Q 20.953125 74.21875 31.78125 74.21875 
Q 42.671875 74.21875 48.875 69.140625 
Q 55.078125 64.0625 55.078125 55.328125 
Q 55.078125 49.078125 51.53125 44.71875 
Q 48 40.375 41.703125 38.8125 
Q 48.828125 37.15625 52.796875 32.3125 
Q 56.78125 27.484375 56.78125 20.515625 
Q 56.78125 9.90625 50.3125 4.234375 
Q 43.84375 -1.421875 31.78125 -1.421875 
Q 19.734375 -1.421875 13.25 4.234375 
Q 6.78125 9.90625 6.78125 20.515625 
Q 6.78125 27.484375 10.78125 32.3125 
Q 14.796875 37.15625 21.921875 38.8125 
z
M 18.3125 54.390625 
Q 18.3125 48.734375 21.84375 45.5625 
Q 25.390625 42.390625 31.78125 42.390625 
Q 38.140625 42.390625 41.71875 45.5625 
Q 45.3125 48.734375 45.3125 54.390625 
Q 45.3125 60.0625 41.71875 63.234375 
Q 38.140625 66.40625 31.78125 66.40625 
Q 25.390625 66.40625 21.84375 63.234375 
Q 18.3125 60.0625 18.3125 54.390625 
z
" id="DejaVuSans-56"/>
      </defs>
      <g transform="translate(69.770424 262.869024)rotate(-30)scale(0.1 -0.1)">
       <use xlink:href="#DejaVuSans-50"/>
       <use x="63.623047" xlink:href="#DejaVuSans-48"/>
       <use x="127.246094" xlink:href="#DejaVuSans-50"/>
       <use x="190.869141" xlink:href="#DejaVuSans-48"/>
       <use x="254.492188" xlink:href="#DejaVuSans-45"/>
       <use x="290.576172" xlink:href="#DejaVuSans-49"/>
       <use x="354.199219" xlink:href="#DejaVuSans-50"/>
       <use x="417.822266" xlink:href="#DejaVuSans-45"/>
       <use x="453.90625" xlink:href="#DejaVuSans-48"/>
       <use x="517.529297" xlink:href="#DejaVuSans-56"/>
      </g>
     </g>
    </g>
    <g id="xtick_4">
     <g id="line2d_4">
      <g>
       <use style="stroke:#000000;stroke-width:0.8;" x="128.455058" xlink:href="#m777ae3e882" y="220.230771"/>
      </g>
     </g>
     <g id="text_4">
      <!-- 2020-12-15 -->
      <defs>
       <path d="M 10.796875 72.90625 
L 49.515625 72.90625 
L 49.515625 64.59375 
L 19.828125 64.59375 
L 19.828125 46.734375 
Q 21.96875 47.46875 24.109375 47.828125 
Q 26.265625 48.1875 28.421875 48.1875 
Q 40.625 48.1875 47.75 41.5 
Q 54.890625 34.8125 54.890625 23.390625 
Q 54.890625 11.625 47.5625 5.09375 
Q 40.234375 -1.421875 26.90625 -1.421875 
Q 22.3125 -1.421875 17.546875 -0.640625 
Q 12.796875 0.140625 7.71875 1.703125 
L 7.71875 11.625 
Q 12.109375 9.234375 16.796875 8.0625 
Q 21.484375 6.890625 26.703125 6.890625 
Q 35.15625 6.890625 40.078125 11.328125 
Q 45.015625 15.765625 45.015625 23.390625 
Q 45.015625 31 40.078125 35.4375 
Q 35.15625 39.890625 26.703125 39.890625 
Q 22.75 39.890625 18.8125 39.015625 
Q 14.890625 38.140625 10.796875 36.28125 
z
" id="DejaVuSans-53"/>
      </defs>
      <g transform="translate(104.669942 262.869024)rotate(-30)scale(0.1 -0.1)">
       <use xlink:href="#DejaVuSans-50"/>
       <use x="63.623047" xlink:href="#DejaVuSans-48"/>
       <use x="127.246094" xlink:href="#DejaVuSans-50"/>
       <use x="190.869141" xlink:href="#DejaVuSans-48"/>
       <use x="254.492188" xlink:href="#DejaVuSans-45"/>
       <use x="290.576172" xlink:href="#DejaVuSans-49"/>
       <use x="354.199219" xlink:href="#DejaVuSans-50"/>
       <use x="417.822266" xlink:href="#DejaVuSans-45"/>
       <use x="453.90625" xlink:href="#DejaVuSans-49"/>
       <use x="517.529297" xlink:href="#DejaVuSans-53"/>
      </g>
     </g>
    </g>
    <g id="xtick_5">
     <g id="line2d_5">
      <g>
       <use style="stroke:#000000;stroke-width:0.8;" x="163.354576" xlink:href="#m777ae3e882" y="220.230771"/>
      </g>
     </g>
     <g id="text_5">
      <!-- 2020-12-22 -->
      <g transform="translate(139.56946 262.869024)rotate(-30)scale(0.1 -0.1)">
       <use xlink:href="#DejaVuSans-50"/>
       <use x="63.623047" xlink:href="#DejaVuSans-48"/>
       <use x="127.246094" xlink:href="#DejaVuSans-50"/>
       <use x="190.869141" xlink:href="#DejaVuSans-48"/>
       <use x="254.492188" xlink:href="#DejaVuSans-45"/>
       <use x="290.576172" xlink:href="#DejaVuSans-49"/>
       <use x="354.199219" xlink:href="#DejaVuSans-50"/>
       <use x="417.822266" xlink:href="#DejaVuSans-45"/>
       <use x="453.90625" xlink:href="#DejaVuSans-50"/>
       <use x="517.529297" xlink:href="#DejaVuSans-50"/>
      </g>
     </g>
    </g>
    <g id="xtick_6">
     <g id="line2d_6">
      <g>
       <use style="stroke:#000000;stroke-width:0.8;" x="198.254094" xlink:href="#m777ae3e882" y="220.230771"/>
      </g>
     </g>
     <g id="text_6">
      <!-- 2020-12-29 -->
      <g transform="translate(174.468978 262.869024)rotate(-30)scale(0.1 -0.1)">
       <use xlink:href="#DejaVuSans-50"/>
       <use x="63.623047" xlink:href="#DejaVuSans-48"/>
       <use x="127.246094" xlink:href="#DejaVuSans-50"/>
       <use x="190.869141" xlink:href="#DejaVuSans-48"/>
       <use x="254.492188" xlink:href="#DejaVuSans-45"/>
       <use x="290.576172" xlink:href="#DejaVuSans-49"/>
       <use x="354.199219" xlink:href="#DejaVuSans-50"/>
       <use x="417.822266" xlink:href="#DejaVuSans-45"/>
       <use x="453.90625" xlink:href="#DejaVuSans-50"/>
       <use x="517.529297" xlink:href="#DejaVuSans-57"/>
      </g>
     </g>
    </g>
    <g id="xtick_7">
     <g id="line2d_7">
      <g>
       <use style="stroke:#000000;stroke-width:0.8;" x="213.21103" xlink:href="#m777ae3e882" y="220.230771"/>
      </g>
     </g>
     <g id="text_7">
      <!-- 2021-01-01 -->
      <g transform="translate(189.425914 262.869024)rotate(-30)scale(0.1 -0.1)">
       <use xlink:href="#DejaVuSans-50"/>
       <use x="63.623047" xlink:href="#DejaVuSans-48"/>
       <use x="127.246094" xlink:href="#DejaVuSans-50"/>
       <use x="190.869141" xlink:href="#DejaVuSans-49"/>
       <use x="254.492188" xlink:href="#DejaVuSans-45"/>
       <use x="290.576172" xlink:href="#DejaVuSans-48"/>
       <use x="354.199219" xlink:href="#DejaVuSans-49"/>
       <use x="417.822266" xlink:href="#DejaVuSans-45"/>
       <use x="453.90625" xlink:href="#DejaVuSans-48"/>
       <use x="517.529297" xlink:href="#DejaVuSans-49"/>
      </g>
     </g>
    </g>
    <g id="xtick_8">
     <g id="line2d_8">
      <g>
       <use style="stroke:#000000;stroke-width:0.8;" x="248.110548" xlink:href="#m777ae3e882" y="220.230771"/>
      </g>
     </g>
     <g id="text_8">
      <!-- 2021-01-08 -->
      <g transform="translate(224.325432 262.869024)rotate(-30)scale(0.1 -0.1)">
       <use xlink:href="#DejaVuSans-50"/>
       <use x="63.623047" xlink:href="#DejaVuSans-48"/>
       <use x="127.246094" xlink:href="#DejaVuSans-50"/>
       <use x="190.869141" xlink:href="#DejaVuSans-49"/>
       <use x="254.492188" xlink:href="#DejaVuSans-45"/>
       <use x="290.576172" xlink:href="#DejaVuSans-48"/>
       <use x="354.199219" xlink:href="#DejaVuSans-49"/>
       <use x="417.822266" xlink:href="#DejaVuSans-45"/>
       <use x="453.90625" xlink:href="#DejaVuSans-48"/>
       <use x="517.529297" xlink:href="#DejaVuSans-56"/>
      </g>
     </g>
    </g>
    <g id="xtick_9">
     <g id="line2d_9">
      <g>
       <use style="stroke:#000000;stroke-width:0.8;" x="283.010067" xlink:href="#m777ae3e882" y="220.230771"/>
      </g>
     </g>
     <g id="text_9">
      <!-- 2021-01-15 -->
      <g transform="translate(259.22495 262.869024)rotate(-30)scale(0.1 -0.1)">
       <use xlink:href="#DejaVuSans-50"/>
       <use x="63.623047" xlink:href="#DejaVuSans-48"/>
       <use x="127.246094" xlink:href="#DejaVuSans-50"/>
       <use x="190.869141" xlink:href="#DejaVuSans-49"/>
       <use x="254.492188" xlink:href="#DejaVuSans-45"/>
       <use x="290.576172" xlink:href="#DejaVuSans-48"/>
       <use x="354.199219" xlink:href="#DejaVuSans-49"/>
       <use x="417.822266" xlink:href="#DejaVuSans-45"/>
       <use x="453.90625" xlink:href="#DejaVuSans-49"/>
       <use x="517.529297" xlink:href="#DejaVuSans-53"/>
      </g>
     </g>
    </g>
    <g id="text_10">
     <!-- Date -->
     <defs>
      <path d="M 19.671875 64.796875 
L 19.671875 8.109375 
L 31.59375 8.109375 
Q 46.6875 8.109375 53.6875 14.9375 
Q 60.6875 21.78125 60.6875 36.53125 
Q 60.6875 51.171875 53.6875 57.984375 
Q 46.6875 64.796875 31.59375 64.796875 
z
M 9.8125 72.90625 
L 30.078125 72.90625 
Q 51.265625 72.90625 61.171875 64.09375 
Q 71.09375 55.28125 71.09375 36.53125 
Q 71.09375 17.671875 61.125 8.828125 
Q 51.171875 0 30.078125 0 
L 9.8125 0 
z
" id="DejaVuSans-68"/>
      <path d="M 34.28125 27.484375 
Q 23.390625 27.484375 19.1875 25 
Q 14.984375 22.515625 14.984375 16.5 
Q 14.984375 11.71875 18.140625 8.90625 
Q 21.296875 6.109375 26.703125 6.109375 
Q 34.1875 6.109375 38.703125 11.40625 
Q 43.21875 16.703125 43.21875 25.484375 
L 43.21875 27.484375 
z
M 52.203125 31.203125 
L 52.203125 0 
L 43.21875 0 
L 43.21875 8.296875 
Q 40.140625 3.328125 35.546875 0.953125 
Q 30.953125 -1.421875 24.3125 -1.421875 
Q 15.921875 -1.421875 10.953125 3.296875 
Q 6 8.015625 6 15.921875 
Q 6 25.140625 12.171875 29.828125 
Q 18.359375 34.515625 30.609375 34.515625 
L 43.21875 34.515625 
L 43.21875 35.40625 
Q 43.21875 41.609375 39.140625 45 
Q 35.0625 48.390625 27.6875 48.390625 
Q 23 48.390625 18.546875 47.265625 
Q 14.109375 46.140625 10.015625 43.890625 
L 10.015625 52.203125 
Q 14.9375 54.109375 19.578125 55.046875 
Q 24.21875 56 28.609375 56 
Q 40.484375 56 46.34375 49.84375 
Q 52.203125 43.703125 52.203125 31.203125 
z
" id="DejaVuSans-97"/>
      <path d="M 18.3125 70.21875 
L 18.3125 54.6875 
L 36.8125 54.6875 
L 36.8125 47.703125 
L 18.3125 47.703125 
L 18.3125 18.015625 
Q 18.3125 11.328125 20.140625 9.421875 
Q 21.96875 7.515625 27.59375 7.515625 
L 36.8125 7.515625 
L 36.8125 0 
L 27.59375 0 
Q 17.1875 0 13.234375 3.875 
Q 9.28125 7.765625 9.28125 18.015625 
L 9.28125 47.703125 
L 2.6875 47.703125 
L 2.6875 54.6875 
L 9.28125 54.6875 
L 9.28125 70.21875 
z
" id="DejaVuSans-116"/>
      <path d="M 56.203125 29.59375 
L 56.203125 25.203125 
L 14.890625 25.203125 
Q 15.484375 15.921875 20.484375 11.0625 
Q 25.484375 6.203125 34.421875 6.203125 
Q 39.59375 6.203125 44.453125 7.46875 
Q 49.3125 8.734375 54.109375 11.28125 
L 54.109375 2.78125 
Q 49.265625 0.734375 44.1875 -0.34375 
Q 39.109375 -1.421875 33.890625 -1.421875 
Q 20.796875 -1.421875 13.15625 6.1875 
Q 5.515625 13.8125 5.515625 26.8125 
Q 5.515625 40.234375 12.765625 48.109375 
Q 20.015625 56 32.328125 56 
Q 43.359375 56 49.78125 48.890625 
Q 56.203125 41.796875 56.203125 29.59375 
z
M 47.21875 32.234375 
Q 47.125 39.59375 43.09375 43.984375 
Q 39.0625 48.390625 32.421875 48.390625 
Q 24.90625 48.390625 20.390625 44.140625 
Q 15.875 39.890625 15.1875 32.171875 
z
" id="DejaVuSans-101"/>
     </defs>
     <g transform="translate(167.504219 276.268523)scale(0.1 -0.1)">
      <use xlink:href="#DejaVuSans-68"/>
      <use x="77.001953" xlink:href="#DejaVuSans-97"/>
      <use x="138.28125" xlink:href="#DejaVuSans-116"/>
      <use x="177.490234" xlink:href="#DejaVuSans-101"/>
     </g>
    </g>
   </g>
   <g id="matplotlib.axis_2">
    <g id="ytick_1">
     <g id="line2d_10">
      <defs>
       <path d="M 0 0 
L -3.5 0 
" id="maef20fe9e6" style="stroke:#000000;stroke-width:0.8;"/>
      </defs>
      <g>
       <use style="stroke:#000000;stroke-width:0.8;" x="43.55" xlink:href="#maef20fe9e6" y="210.806645"/>
      </g>
     </g>
     <g id="text_11">
      <!-- 0 -->
      <g transform="translate(30.1875 214.605864)scale(0.1 -0.1)">
       <use xlink:href="#DejaVuSans-48"/>
      </g>
     </g>
    </g>
    <g id="ytick_2">
     <g id="line2d_11">
      <g>
       <use style="stroke:#000000;stroke-width:0.8;" x="43.55" xlink:href="#maef20fe9e6" y="187.24633"/>
      </g>
     </g>
     <g id="text_12">
      <!-- 5 -->
      <g transform="translate(30.1875 191.045549)scale(0.1 -0.1)">
       <use xlink:href="#DejaVuSans-53"/>
      </g>
     </g>
    </g>
    <g id="ytick_3">
     <g id="line2d_12">
      <g>
       <use style="stroke:#000000;stroke-width:0.8;" x="43.55" xlink:href="#maef20fe9e6" y="163.686016"/>
      </g>
     </g>
     <g id="text_13">
      <!-- 10 -->
      <g transform="translate(23.825 167.485234)scale(0.1 -0.1)">
       <use xlink:href="#DejaVuSans-49"/>
       <use x="63.623047" xlink:href="#DejaVuSans-48"/>
      </g>
     </g>
    </g>
    <g id="ytick_4">
     <g id="line2d_13">
      <g>
       <use style="stroke:#000000;stroke-width:0.8;" x="43.55" xlink:href="#maef20fe9e6" y="140.125701"/>
      </g>
     </g>
     <g id="text_14">
      <!-- 15 -->
      <g transform="translate(23.825 143.924919)scale(0.1 -0.1)">
       <use xlink:href="#DejaVuSans-49"/>
       <use x="63.623047" xlink:href="#DejaVuSans-53"/>
      </g>
     </g>
    </g>
    <g id="ytick_5">
     <g id="line2d_14">
      <g>
       <use style="stroke:#000000;stroke-width:0.8;" x="43.55" xlink:href="#maef20fe9e6" y="116.565386"/>
      </g>
     </g>
     <g id="text_15">
      <!-- 20 -->
      <g transform="translate(23.825 120.364604)scale(0.1 -0.1)">
       <use xlink:href="#DejaVuSans-50"/>
       <use x="63.623047" xlink:href="#DejaVuSans-48"/>
      </g>
     </g>
    </g>
    <g id="ytick_6">
     <g id="line2d_15">
      <g>
       <use style="stroke:#000000;stroke-width:0.8;" x="43.55" xlink:href="#maef20fe9e6" y="93.005071"/>
      </g>
     </g>
     <g id="text_16">
      <!-- 25 -->
      <g transform="translate(23.825 96.80429)scale(0.1 -0.1)">
       <use xlink:href="#DejaVuSans-50"/>
       <use x="63.623047" xlink:href="#DejaVuSans-53"/>
      </g>
     </g>
    </g>
    <g id="ytick_7">
     <g id="line2d_16">
      <g>
       <use style="stroke:#000000;stroke-width:0.8;" x="43.55" xlink:href="#maef20fe9e6" y="69.444756"/>
      </g>
     </g>
     <g id="text_17">
      <!-- 30 -->
      <defs>
       <path d="M 40.578125 39.3125 
Q 47.65625 37.796875 51.625 33 
Q 55.609375 28.21875 55.609375 21.1875 
Q 55.609375 10.40625 48.1875 4.484375 
Q 40.765625 -1.421875 27.09375 -1.421875 
Q 22.515625 -1.421875 17.65625 -0.515625 
Q 12.796875 0.390625 7.625 2.203125 
L 7.625 11.71875 
Q 11.71875 9.328125 16.59375 8.109375 
Q 21.484375 6.890625 26.8125 6.890625 
Q 36.078125 6.890625 40.9375 10.546875 
Q 45.796875 14.203125 45.796875 21.1875 
Q 45.796875 27.640625 41.28125 31.265625 
Q 36.765625 34.90625 28.71875 34.90625 
L 20.21875 34.90625 
L 20.21875 43.015625 
L 29.109375 43.015625 
Q 36.375 43.015625 40.234375 45.921875 
Q 44.09375 48.828125 44.09375 54.296875 
Q 44.09375 59.90625 40.109375 62.90625 
Q 36.140625 65.921875 28.71875 65.921875 
Q 24.65625 65.921875 20.015625 65.03125 
Q 15.375 64.15625 9.8125 62.3125 
L 9.8125 71.09375 
Q 15.4375 72.65625 20.34375 73.4375 
Q 25.25 74.21875 29.59375 74.21875 
Q 40.828125 74.21875 47.359375 69.109375 
Q 53.90625 64.015625 53.90625 55.328125 
Q 53.90625 49.265625 50.4375 45.09375 
Q 46.96875 40.921875 40.578125 39.3125 
z
" id="DejaVuSans-51"/>
      </defs>
      <g transform="translate(23.825 73.243975)scale(0.1 -0.1)">
       <use xlink:href="#DejaVuSans-51"/>
       <use x="63.623047" xlink:href="#DejaVuSans-48"/>
      </g>
     </g>
    </g>
    <g id="ytick_8">
     <g id="line2d_17">
      <g>
       <use style="stroke:#000000;stroke-width:0.8;" x="43.55" xlink:href="#maef20fe9e6" y="45.884441"/>
      </g>
     </g>
     <g id="text_18">
      <!-- 35 -->
      <g transform="translate(23.825 49.68366)scale(0.1 -0.1)">
       <use xlink:href="#DejaVuSans-51"/>
       <use x="63.623047" xlink:href="#DejaVuSans-53"/>
      </g>
     </g>
    </g>
    <g id="ytick_9">
     <g id="line2d_18">
      <g>
       <use style="stroke:#000000;stroke-width:0.8;" x="43.55" xlink:href="#maef20fe9e6" y="22.324126"/>
      </g>
     </g>
     <g id="text_19">
      <!-- 40 -->
      <defs>
       <path d="M 37.796875 64.3125 
L 12.890625 25.390625 
L 37.796875 25.390625 
z
M 35.203125 72.90625 
L 47.609375 72.90625 
L 47.609375 25.390625 
L 58.015625 25.390625 
L 58.015625 17.1875 
L 47.609375 17.1875 
L 47.609375 0 
L 37.796875 0 
L 37.796875 17.1875 
L 4.890625 17.1875 
L 4.890625 26.703125 
z
" id="DejaVuSans-52"/>
      </defs>
      <g transform="translate(23.825 26.123345)scale(0.1 -0.1)">
       <use xlink:href="#DejaVuSans-52"/>
       <use x="63.623047" xlink:href="#DejaVuSans-48"/>
      </g>
     </g>
    </g>
    <g id="text_20">
     <!-- Students Registered -->
     <defs>
      <path d="M 53.515625 70.515625 
L 53.515625 60.890625 
Q 47.90625 63.578125 42.921875 64.890625 
Q 37.9375 66.21875 33.296875 66.21875 
Q 25.25 66.21875 20.875 63.09375 
Q 16.5 59.96875 16.5 54.203125 
Q 16.5 49.359375 19.40625 46.890625 
Q 22.3125 44.4375 30.421875 42.921875 
L 36.375 41.703125 
Q 47.40625 39.59375 52.65625 34.296875 
Q 57.90625 29 57.90625 20.125 
Q 57.90625 9.515625 50.796875 4.046875 
Q 43.703125 -1.421875 29.984375 -1.421875 
Q 24.8125 -1.421875 18.96875 -0.25 
Q 13.140625 0.921875 6.890625 3.21875 
L 6.890625 13.375 
Q 12.890625 10.015625 18.65625 8.296875 
Q 24.421875 6.59375 29.984375 6.59375 
Q 38.421875 6.59375 43.015625 9.90625 
Q 47.609375 13.234375 47.609375 19.390625 
Q 47.609375 24.75 44.3125 27.78125 
Q 41.015625 30.8125 33.5 32.328125 
L 27.484375 33.5 
Q 16.453125 35.6875 11.515625 40.375 
Q 6.59375 45.0625 6.59375 53.421875 
Q 6.59375 63.09375 13.40625 68.65625 
Q 20.21875 74.21875 32.171875 74.21875 
Q 37.3125 74.21875 42.625 73.28125 
Q 47.953125 72.359375 53.515625 70.515625 
z
" id="DejaVuSans-83"/>
      <path d="M 8.5 21.578125 
L 8.5 54.6875 
L 17.484375 54.6875 
L 17.484375 21.921875 
Q 17.484375 14.15625 20.5 10.265625 
Q 23.53125 6.390625 29.59375 6.390625 
Q 36.859375 6.390625 41.078125 11.03125 
Q 45.3125 15.671875 45.3125 23.6875 
L 45.3125 54.6875 
L 54.296875 54.6875 
L 54.296875 0 
L 45.3125 0 
L 45.3125 8.40625 
Q 42.046875 3.421875 37.71875 1 
Q 33.40625 -1.421875 27.6875 -1.421875 
Q 18.265625 -1.421875 13.375 4.4375 
Q 8.5 10.296875 8.5 21.578125 
z
M 31.109375 56 
z
" id="DejaVuSans-117"/>
      <path d="M 45.40625 46.390625 
L 45.40625 75.984375 
L 54.390625 75.984375 
L 54.390625 0 
L 45.40625 0 
L 45.40625 8.203125 
Q 42.578125 3.328125 38.25 0.953125 
Q 33.9375 -1.421875 27.875 -1.421875 
Q 17.96875 -1.421875 11.734375 6.484375 
Q 5.515625 14.40625 5.515625 27.296875 
Q 5.515625 40.1875 11.734375 48.09375 
Q 17.96875 56 27.875 56 
Q 33.9375 56 38.25 53.625 
Q 42.578125 51.265625 45.40625 46.390625 
z
M 14.796875 27.296875 
Q 14.796875 17.390625 18.875 11.75 
Q 22.953125 6.109375 30.078125 6.109375 
Q 37.203125 6.109375 41.296875 11.75 
Q 45.40625 17.390625 45.40625 27.296875 
Q 45.40625 37.203125 41.296875 42.84375 
Q 37.203125 48.484375 30.078125 48.484375 
Q 22.953125 48.484375 18.875 42.84375 
Q 14.796875 37.203125 14.796875 27.296875 
z
" id="DejaVuSans-100"/>
      <path d="M 54.890625 33.015625 
L 54.890625 0 
L 45.90625 0 
L 45.90625 32.71875 
Q 45.90625 40.484375 42.875 44.328125 
Q 39.84375 48.1875 33.796875 48.1875 
Q 26.515625 48.1875 22.3125 43.546875 
Q 18.109375 38.921875 18.109375 30.90625 
L 18.109375 0 
L 9.078125 0 
L 9.078125 54.6875 
L 18.109375 54.6875 
L 18.109375 46.1875 
Q 21.34375 51.125 25.703125 53.5625 
Q 30.078125 56 35.796875 56 
Q 45.21875 56 50.046875 50.171875 
Q 54.890625 44.34375 54.890625 33.015625 
z
" id="DejaVuSans-110"/>
      <path d="M 44.28125 53.078125 
L 44.28125 44.578125 
Q 40.484375 46.53125 36.375 47.5 
Q 32.28125 48.484375 27.875 48.484375 
Q 21.1875 48.484375 17.84375 46.4375 
Q 14.5 44.390625 14.5 40.28125 
Q 14.5 37.15625 16.890625 35.375 
Q 19.28125 33.59375 26.515625 31.984375 
L 29.59375 31.296875 
Q 39.15625 29.25 43.1875 25.515625 
Q 47.21875 21.78125 47.21875 15.09375 
Q 47.21875 7.46875 41.1875 3.015625 
Q 35.15625 -1.421875 24.609375 -1.421875 
Q 20.21875 -1.421875 15.453125 -0.5625 
Q 10.6875 0.296875 5.421875 2 
L 5.421875 11.28125 
Q 10.40625 8.6875 15.234375 7.390625 
Q 20.0625 6.109375 24.8125 6.109375 
Q 31.15625 6.109375 34.5625 8.28125 
Q 37.984375 10.453125 37.984375 14.40625 
Q 37.984375 18.0625 35.515625 20.015625 
Q 33.0625 21.96875 24.703125 23.78125 
L 21.578125 24.515625 
Q 13.234375 26.265625 9.515625 29.90625 
Q 5.8125 33.546875 5.8125 39.890625 
Q 5.8125 47.609375 11.28125 51.796875 
Q 16.75 56 26.8125 56 
Q 31.78125 56 36.171875 55.265625 
Q 40.578125 54.546875 44.28125 53.078125 
z
" id="DejaVuSans-115"/>
      <path id="DejaVuSans-32"/>
      <path d="M 44.390625 34.1875 
Q 47.5625 33.109375 50.5625 29.59375 
Q 53.5625 26.078125 56.59375 19.921875 
L 66.609375 0 
L 56 0 
L 46.6875 18.703125 
Q 43.0625 26.03125 39.671875 28.421875 
Q 36.28125 30.8125 30.421875 30.8125 
L 19.671875 30.8125 
L 19.671875 0 
L 9.8125 0 
L 9.8125 72.90625 
L 32.078125 72.90625 
Q 44.578125 72.90625 50.734375 67.671875 
Q 56.890625 62.453125 56.890625 51.90625 
Q 56.890625 45.015625 53.6875 40.46875 
Q 50.484375 35.9375 44.390625 34.1875 
z
M 19.671875 64.796875 
L 19.671875 38.921875 
L 32.078125 38.921875 
Q 39.203125 38.921875 42.84375 42.21875 
Q 46.484375 45.515625 46.484375 51.90625 
Q 46.484375 58.296875 42.84375 61.546875 
Q 39.203125 64.796875 32.078125 64.796875 
z
" id="DejaVuSans-82"/>
      <path d="M 45.40625 27.984375 
Q 45.40625 37.75 41.375 43.109375 
Q 37.359375 48.484375 30.078125 48.484375 
Q 22.859375 48.484375 18.828125 43.109375 
Q 14.796875 37.75 14.796875 27.984375 
Q 14.796875 18.265625 18.828125 12.890625 
Q 22.859375 7.515625 30.078125 7.515625 
Q 37.359375 7.515625 41.375 12.890625 
Q 45.40625 18.265625 45.40625 27.984375 
z
M 54.390625 6.78125 
Q 54.390625 -7.171875 48.1875 -13.984375 
Q 42 -20.796875 29.203125 -20.796875 
Q 24.46875 -20.796875 20.265625 -20.09375 
Q 16.0625 -19.390625 12.109375 -17.921875 
L 12.109375 -9.1875 
Q 16.0625 -11.328125 19.921875 -12.34375 
Q 23.78125 -13.375 27.78125 -13.375 
Q 36.625 -13.375 41.015625 -8.765625 
Q 45.40625 -4.15625 45.40625 5.171875 
L 45.40625 9.625 
Q 42.625 4.78125 38.28125 2.390625 
Q 33.9375 0 27.875 0 
Q 17.828125 0 11.671875 7.65625 
Q 5.515625 15.328125 5.515625 27.984375 
Q 5.515625 40.671875 11.671875 48.328125 
Q 17.828125 56 27.875 56 
Q 33.9375 56 38.28125 53.609375 
Q 42.625 51.21875 45.40625 46.390625 
L 45.40625 54.6875 
L 54.390625 54.6875 
z
" id="DejaVuSans-103"/>
      <path d="M 9.421875 54.6875 
L 18.40625 54.6875 
L 18.40625 0 
L 9.421875 0 
z
M 9.421875 75.984375 
L 18.40625 75.984375 
L 18.40625 64.59375 
L 9.421875 64.59375 
z
" id="DejaVuSans-105"/>
      <path d="M 41.109375 46.296875 
Q 39.59375 47.171875 37.8125 47.578125 
Q 36.03125 48 33.890625 48 
Q 26.265625 48 22.1875 43.046875 
Q 18.109375 38.09375 18.109375 28.8125 
L 18.109375 0 
L 9.078125 0 
L 9.078125 54.6875 
L 18.109375 54.6875 
L 18.109375 46.1875 
Q 20.953125 51.171875 25.484375 53.578125 
Q 30.03125 56 36.53125 56 
Q 37.453125 56 38.578125 55.875 
Q 39.703125 55.765625 41.0625 55.515625 
z
" id="DejaVuSans-114"/>
     </defs>
     <g transform="translate(17.745313 167.498979)rotate(-90)scale(0.1 -0.1)">
      <use xlink:href="#DejaVuSans-83"/>
      <use x="63.476562" xlink:href="#DejaVuSans-116"/>
      <use x="102.685547" xlink:href="#DejaVuSans-117"/>
      <use x="166.064453" xlink:href="#DejaVuSans-100"/>
      <use x="229.541016" xlink:href="#DejaVuSans-101"/>
      <use x="291.064453" xlink:href="#DejaVuSans-110"/>
      <use x="354.443359" xlink:href="#DejaVuSans-116"/>
      <use x="393.652344" xlink:href="#DejaVuSans-115"/>
      <use x="445.751953" xlink:href="#DejaVuSans-32"/>
      <use x="477.539062" xlink:href="#DejaVuSans-82"/>
      <use x="546.958984" xlink:href="#DejaVuSans-101"/>
      <use x="608.482422" xlink:href="#DejaVuSans-103"/>
      <use x="671.958984" xlink:href="#DejaVuSans-105"/>
      <use x="699.742188" xlink:href="#DejaVuSans-115"/>
      <use x="751.841797" xlink:href="#DejaVuSans-116"/>
      <use x="791.050781" xlink:href="#DejaVuSans-101"/>
      <use x="852.574219" xlink:href="#DejaVuSans-114"/>
      <use x="893.65625" xlink:href="#DejaVuSans-101"/>
      <use x="955.179688" xlink:href="#DejaVuSans-100"/>
     </g>
    </g>
   </g>
   <g id="line2d_19">
    <path clip-path="url(#pdc3bba64a5)" d="M 55.905 210.806645 
L 56.123874 210.806645 
L 56.123874 201.382519 
L 56.232838 201.382519 
L 57.098423 201.382519 
L 57.098423 196.670456 
L 57.19879 196.670456 
L 61.876312 196.670456 
L 61.876312 191.958393 
L 61.980176 191.958393 
L 65.823314 191.958393 
L 65.823314 177.822204 
L 65.92718 177.822204 
L 66.031029 177.822204 
L 66.031029 173.110142 
L 66.134913 173.110142 
L 66.238763 173.110142 
L 66.238763 154.26189 
L 66.342642 154.26189 
L 66.446497 154.26189 
L 66.446497 149.549827 
L 66.550362 149.549827 
L 66.654235 149.549827 
L 66.654235 140.125701 
L 66.758088 140.125701 
L 66.862001 140.125701 
L 66.862001 125.989512 
L 66.965864 125.989512 
L 70.601213 125.989512 
L 70.601213 121.277449 
L 70.705077 121.277449 
L 70.808924 121.277449 
L 70.808924 116.565386 
L 70.912789 116.565386 
L 71.432146 116.565386 
L 71.432146 111.853323 
L 71.536022 111.853323 
L 71.847621 111.853323 
L 71.847621 97.717134 
L 71.951473 97.717134 
L 72.055351 97.717134 
L 72.055351 93.005071 
L 72.159242 93.005071 
L 76.210047 93.005071 
L 76.210047 88.293008 
L 76.313937 88.293008 
L 76.417775 88.293008 
L 76.417775 83.580945 
L 76.521673 83.580945 
L 76.833275 83.580945 
L 76.833275 78.868882 
L 76.937132 78.868882 
L 77.456469 78.868882 
L 77.456469 74.156819 
L 77.560326 74.156819 
L 80.987997 74.156819 
L 80.987997 69.444756 
L 81.091826 69.444756 
L 90.751551 69.444756 
L 90.751551 45.884441 
L 90.855367 45.884441 
L 90.959265 45.884441 
L 90.959265 36.460315 
L 91.063101 36.460315 
L 91.167013 36.460315 
L 91.167013 31.748252 
L 91.270858 31.748252 
L 161.173755 31.748252 
L 161.173755 36.460315 
L 161.277642 36.460315 
L 161.381484 36.460315 
L 161.381484 31.748252 
L 161.485352 31.748252 
L 172.599184 31.748252 
L 172.599184 36.460315 
L 172.703088 36.460315 
L 172.806934 36.460315 
L 172.806934 31.748252 
L 172.910796 31.748252 
L 275.428164 31.748252 
L 275.428164 22.324126 
L 275.531992 22.324126 
L 303.005 22.324126 
L 303.005 22.324126 
" style="fill:none;stroke:#1b9e77;stroke-linecap:square;stroke-width:1.5;"/>
   </g>
   <g id="line2d_20">
    <path clip-path="url(#pdc3bba64a5)" d="M 99.268689 196.670456 
L 100.307319 196.670456 
L 100.307319 182.534267 
L 100.41136 182.534267 
L 100.51506 182.534267 
L 100.51506 177.822204 
L 100.61897 177.822204 
L 100.72279 177.822204 
L 100.72279 158.973953 
L 100.8267 158.973953 
L 101.13828 158.973953 
L 101.13828 144.837764 
L 101.242149 144.837764 
L 101.553742 144.837764 
L 101.553742 116.565386 
L 101.65763 116.565386 
L 101.969209 116.565386 
L 101.969209 107.14126 
L 102.073112 107.14126 
L 102.176972 107.14126 
L 102.176972 102.429197 
L 102.280861 102.429197 
L 102.384689 102.429197 
L 102.384689 97.717134 
L 102.488593 97.717134 
L 102.800194 97.717134 
L 102.800194 93.005071 
L 102.904012 93.005071 
L 105.708441 93.005071 
L 105.708441 74.156819 
L 105.812345 74.156819 
L 106.123926 74.156819 
L 106.123926 69.444756 
L 106.227777 69.444756 
L 106.539428 69.444756 
L 106.539428 60.02063 
L 106.643274 60.02063 
L 106.747164 60.02063 
L 106.747164 55.308567 
L 106.851005 55.308567 
L 107.16264 55.308567 
L 107.16264 50.596504 
L 107.266472 50.596504 
L 111.525062 50.596504 
L 111.525062 45.884441 
L 111.628909 45.884441 
L 111.732762 45.884441 
L 111.732762 41.172378 
L 111.836676 41.172378 
L 111.940508 41.172378 
L 111.940508 36.460315 
L 112.0444 36.460315 
L 112.563742 36.460315 
L 112.563742 31.748252 
L 112.667612 31.748252 
L 125.858764 31.748252 
L 125.858764 22.324126 
L 125.962658 22.324126 
L 151.410202 22.324126 
L 151.410202 27.036189 
L 151.514082 27.036189 
L 152.656612 27.036189 
L 152.656612 22.324126 
L 152.760484 22.324126 
L 170.729601 22.324126 
L 170.729601 27.036189 
L 170.833473 27.036189 
L 172.391474 27.036189 
L 172.391474 22.324126 
L 172.495355 22.324126 
L 303.005 22.324126 
L 303.005 22.324126 
" style="fill:none;stroke:#d95f02;stroke-linecap:square;stroke-width:1.5;"/>
   </g>
   <g id="line2d_21">
    <path clip-path="url(#pdc3bba64a5)" d="M 55.905 182.534267 
L 56.123874 182.534267 
L 56.123874 177.822204 
L 56.232838 177.822204 
L 57.19879 177.822204 
L 57.19879 173.110142 
L 60.522592 173.110142 
L 60.522592 168.398079 
L 60.837664 168.398079 
L 60.837664 163.686016 
L 60.941544 163.686016 
L 61.045387 163.686016 
L 61.045387 158.973953 
L 61.149273 158.973953 
L 61.668621 158.973953 
L 61.668621 144.837764 
L 61.77251 144.837764 
L 61.876312 144.837764 
L 61.876312 140.125701 
L 61.980176 140.125701 
L 66.031029 140.125701 
L 66.031029 130.701575 
L 66.134913 130.701575 
L 66.238763 130.701575 
L 66.238763 125.989512 
L 66.342642 125.989512 
L 66.446497 125.989512 
L 66.446497 130.701575 
L 66.550362 130.701575 
L 66.862001 130.701575 
L 66.862001 125.989512 
L 66.965864 125.989512 
L 67.069694 125.989512 
L 67.069694 116.565386 
L 67.173555 116.565386 
L 68.108396 116.565386 
L 68.108396 107.14126 
L 68.212275 107.14126 
L 70.393482 107.14126 
L 70.393482 102.429197 
L 70.497339 102.429197 
L 70.601213 102.429197 
L 70.601213 83.580945 
L 70.705077 83.580945 
L 70.808924 83.580945 
L 70.808924 74.156819 
L 70.912789 74.156819 
L 71.224417 74.156819 
L 71.224417 69.444756 
L 71.328287 69.444756 
L 71.432146 69.444756 
L 71.432146 64.732693 
L 71.536022 64.732693 
L 71.639887 64.732693 
L 71.639887 60.02063 
L 71.743767 60.02063 
L 71.847621 60.02063 
L 71.847621 45.884441 
L 71.951473 45.884441 
L 72.055351 45.884441 
L 72.055351 41.172378 
L 72.159242 41.172378 
L 72.263098 41.172378 
L 72.263098 36.460315 
L 72.366947 36.460315 
L 75.794568 36.460315 
L 75.794568 27.036189 
L 75.898453 27.036189 
L 76.002349 27.036189 
L 76.002349 22.324126 
L 76.106206 22.324126 
L 100.51506 22.324126 
L 100.51506 27.036189 
L 100.61897 27.036189 
L 100.72279 27.036189 
L 100.72279 22.324126 
L 100.8267 22.324126 
L 303.005 22.324126 
L 303.005 22.324126 
" style="fill:none;stroke:#7570b3;stroke-linecap:square;stroke-width:1.5;"/>
   </g>
   <g id="line2d_22">
    <path clip-path="url(#pdc3bba64a5)" d="M 55.905 201.382519 
L 61.460897 201.382519 
L 61.460897 196.670456 
L 61.564733 196.670456 
L 65.615587 196.670456 
L 65.615587 191.958393 
L 65.719416 191.958393 
L 65.823314 191.958393 
L 65.823314 187.24633 
L 65.92718 187.24633 
L 66.031029 187.24633 
L 66.031029 177.822204 
L 66.134913 177.822204 
L 66.238763 177.822204 
L 66.238763 173.110142 
L 66.342642 173.110142 
L 66.446497 173.110142 
L 66.446497 168.398079 
L 66.550362 168.398079 
L 66.654235 168.398079 
L 66.654235 163.686016 
L 66.758088 163.686016 
L 67.069694 163.686016 
L 67.069694 158.973953 
L 67.173555 158.973953 
L 70.601213 158.973953 
L 70.601213 149.549827 
L 70.705077 149.549827 
L 70.808924 149.549827 
L 70.808924 144.837764 
L 70.912789 144.837764 
L 71.639887 144.837764 
L 71.639887 140.125701 
L 71.743767 140.125701 
L 71.847621 140.125701 
L 71.847621 130.701575 
L 71.951473 130.701575 
L 90.751551 130.701575 
L 90.751551 125.989512 
L 90.855367 125.989512 
L 90.959265 125.989512 
L 90.959265 121.277449 
L 91.063101 121.277449 
L 91.167013 121.277449 
L 91.167013 116.565386 
L 91.270858 116.565386 
L 91.374726 116.565386 
L 91.374726 111.853323 
L 91.478584 111.853323 
L 91.582483 111.853323 
L 91.582483 102.429197 
L 91.686326 102.429197 
L 91.790221 102.429197 
L 91.790221 97.717134 
L 91.894061 97.717134 
L 95.529428 97.717134 
L 95.581365 83.580945 
L 95.633294 83.580945 
L 95.944908 83.580945 
L 95.944908 74.156819 
L 96.048772 74.156819 
L 96.568119 74.156819 
L 96.568119 69.444756 
L 96.67199 69.444756 
L 96.775856 69.444756 
L 96.775856 60.02063 
L 96.87973 60.02063 
L 96.983589 60.02063 
L 96.983589 36.460315 
L 97.087453 36.460315 
L 97.191293 36.460315 
L 97.191293 22.324126 
L 97.295256 22.324126 
L 100.307319 22.324126 
L 100.307319 27.036189 
L 100.41136 27.036189 
L 100.72279 27.036189 
L 100.72279 22.324126 
L 100.8267 22.324126 
L 150.994716 22.324126 
L 150.994716 27.036189 
L 151.09862 27.036189 
L 151.202495 27.036189 
L 151.202495 22.324126 
L 151.306321 22.324126 
L 160.342857 22.324126 
L 160.342857 27.036189 
L 160.446685 27.036189 
L 160.75827 27.036189 
L 160.75827 22.324126 
L 160.86219 22.324126 
L 161.173755 22.324126 
L 161.173755 27.036189 
L 161.277642 27.036189 
L 162.00474 27.036189 
L 162.00474 22.324126 
L 162.108581 22.324126 
L 303.005 22.324126 
L 303.005 22.324126 
" style="fill:none;stroke:#e7298a;stroke-linecap:square;stroke-width:1.5;"/>
   </g>
   <g id="line2d_23">
    <path clip-path="url(#pdc3bba64a5)" d="M 55.905 191.958393 
L 65.823314 191.958393 
L 65.823314 187.24633 
L 65.92718 187.24633 
L 66.862001 187.24633 
L 66.862001 182.534267 
L 66.965864 182.534267 
L 67.277457 182.534267 
L 67.277457 177.822204 
L 67.381338 177.822204 
L 71.224417 177.822204 
L 71.224417 173.110142 
L 71.328287 173.110142 
L 71.639887 173.110142 
L 71.639887 168.398079 
L 71.743767 168.398079 
L 75.794568 168.398079 
L 75.794568 163.686016 
L 75.898453 163.686016 
L 90.543786 163.686016 
L 90.543786 154.26189 
L 90.647632 154.26189 
L 90.751551 154.26189 
L 90.751551 144.837764 
L 90.855367 144.837764 
L 91.374726 144.837764 
L 91.374726 140.125701 
L 91.478584 140.125701 
L 92.205687 140.125701 
L 92.205687 135.413638 
L 92.309538 135.413638 
L 95.944908 135.413638 
L 95.944908 130.701575 
L 96.048772 130.701575 
L 96.360343 130.701575 
L 96.360343 121.277449 
L 96.464264 121.277449 
L 96.775856 121.277449 
L 96.775856 116.565386 
L 96.87973 116.565386 
L 98.02227 116.565386 
L 98.02227 111.853323 
L 98.126125 111.853323 
L 100.307319 111.853323 
L 100.307319 107.14126 
L 100.41136 107.14126 
L 100.72279 107.14126 
L 100.72279 102.429197 
L 100.8267 102.429197 
L 100.930524 102.429197 
L 100.930524 93.005071 
L 101.034402 93.005071 
L 101.346027 93.005071 
L 101.346027 88.293008 
L 101.44992 88.293008 
L 101.553742 88.293008 
L 101.605696 74.156819 
L 101.65763 74.156819 
L 101.761504 74.156819 
L 101.761504 64.732693 
L 101.865385 64.732693 
L 102.592412 64.732693 
L 102.592412 69.444756 
L 102.696326 69.444756 
L 105.708441 69.444756 
L 105.708441 60.02063 
L 105.812345 60.02063 
L 105.916227 60.02063 
L 105.916227 55.308567 
L 106.020094 55.308567 
L 106.331669 55.308567 
L 106.331669 50.596504 
L 106.435539 50.596504 
L 106.539428 50.596504 
L 106.539428 41.172378 
L 106.643274 41.172378 
L 106.747164 41.172378 
L 106.747164 36.460315 
L 106.851005 36.460315 
L 107.16264 36.460315 
L 107.16264 31.748252 
L 107.266472 31.748252 
L 277.713231 31.748252 
L 277.713231 36.460315 
L 277.817075 36.460315 
L 282.491116 36.460315 
L 282.491116 31.748252 
L 282.595012 31.748252 
L 303.005 31.748252 
L 303.005 31.748252 
" style="fill:none;stroke:#66a61e;stroke-linecap:square;stroke-width:1.5;"/>
   </g>
   <g id="line2d_24">
    <path clip-path="url(#pdc3bba64a5)" d="M 55.905 196.670456 
L 61.460897 196.670456 
L 61.460897 191.958393 
L 61.564733 191.958393 
L 65.615587 191.958393 
L 65.615587 187.24633 
L 65.719416 187.24633 
L 65.823314 187.24633 
L 65.823314 182.534267 
L 65.92718 182.534267 
L 66.238763 182.534267 
L 66.238763 177.822204 
L 66.342642 177.822204 
L 66.446497 177.822204 
L 66.446497 173.110142 
L 66.550362 173.110142 
L 66.654235 173.110142 
L 66.654235 163.686016 
L 66.758088 163.686016 
L 66.862001 163.686016 
L 66.862001 158.973953 
L 66.965864 158.973953 
L 67.069694 158.973953 
L 67.069694 154.26189 
L 67.173555 154.26189 
L 70.393482 154.26189 
L 70.393482 149.549827 
L 70.497339 149.549827 
L 70.601213 149.549827 
L 70.601213 140.125701 
L 70.705077 140.125701 
L 71.016649 140.125701 
L 71.016649 135.413638 
L 71.120542 135.413638 
L 71.224417 135.413638 
L 71.224417 125.989512 
L 71.328287 125.989512 
L 71.639887 125.989512 
L 71.639887 121.277449 
L 71.743767 121.277449 
L 72.055351 121.277449 
L 72.055351 116.565386 
L 72.159242 116.565386 
L 72.263098 116.565386 
L 72.263098 111.853323 
L 72.366947 111.853323 
L 76.002349 111.853323 
L 76.002349 107.14126 
L 76.106206 107.14126 
L 76.833275 107.14126 
L 76.833275 102.429197 
L 76.937132 102.429197 
L 82.234357 102.429197 
L 82.234357 97.717134 
L 82.338246 97.717134 
L 90.543786 97.717134 
L 90.543786 93.005071 
L 90.647632 93.005071 
L 91.167013 93.005071 
L 91.167013 78.868882 
L 91.270858 78.868882 
L 91.374726 78.868882 
L 91.374726 69.444756 
L 91.478584 69.444756 
L 91.582483 69.444756 
L 91.582483 60.02063 
L 91.686326 60.02063 
L 92.205687 60.02063 
L 92.205687 55.308567 
L 92.309538 55.308567 
L 95.113966 55.308567 
L 95.113966 50.596504 
L 95.217828 50.596504 
L 95.737159 50.596504 
L 95.737159 45.884441 
L 95.841058 45.884441 
L 95.944908 45.884441 
L 95.944908 41.172378 
L 96.048772 41.172378 
L 96.15263 41.172378 
L 96.15263 36.460315 
L 96.256491 36.460315 
L 96.775856 36.460315 
L 96.775856 31.748252 
L 96.87973 31.748252 
L 303.005 31.748252 
L 303.005 31.748252 
" style="fill:none;stroke:#e6ab02;stroke-linecap:square;stroke-width:1.5;"/>
   </g>
   <g id="line2d_25">
    <path clip-path="url(#pdc3bba64a5)" d="M 55.905 201.382519 
L 61.876312 201.382519 
L 61.876312 196.670456 
L 61.980176 196.670456 
L 65.823314 196.670456 
L 65.823314 191.958393 
L 65.92718 191.958393 
L 66.654235 191.958393 
L 66.654235 187.24633 
L 66.758088 187.24633 
L 71.016649 187.24633 
L 71.016649 177.822204 
L 71.120542 177.822204 
L 71.432146 177.822204 
L 71.432146 173.110142 
L 71.536022 173.110142 
L 71.847621 173.110142 
L 71.847621 168.398079 
L 71.951473 168.398079 
L 72.055351 168.398079 
L 72.055351 163.686016 
L 72.159242 163.686016 
L 76.833275 163.686016 
L 76.833275 158.973953 
L 76.937132 158.973953 
L 81.611182 158.973953 
L 81.611182 154.26189 
L 81.715064 154.26189 
L 90.751551 154.26189 
L 90.751551 144.837764 
L 90.855367 144.837764 
L 91.167013 144.837764 
L 91.167013 140.125701 
L 91.270858 140.125701 
L 92.205687 140.125701 
L 92.205687 135.413638 
L 92.309538 135.413638 
L 95.529428 135.413638 
L 95.529428 130.701575 
L 95.633294 130.701575 
L 96.568119 130.701575 
L 96.568119 125.989512 
L 96.67199 125.989512 
L 96.775856 125.989512 
L 96.775856 121.277449 
L 96.87973 121.277449 
L 96.983589 121.277449 
L 97.035516 107.14126 
L 97.087453 107.14126 
L 100.51506 107.14126 
L 100.51506 102.429197 
L 100.61897 102.429197 
L 100.72279 102.429197 
L 100.72279 93.005071 
L 100.8267 93.005071 
L 100.930524 93.005071 
L 100.930524 88.293008 
L 101.034402 88.293008 
L 101.13828 88.293008 
L 101.190211 74.156819 
L 101.242149 74.156819 
L 101.553742 74.156819 
L 101.553742 60.02063 
L 101.65763 60.02063 
L 101.761504 60.02063 
L 101.761504 50.596504 
L 101.865385 50.596504 
L 101.969209 50.596504 
L 101.969209 31.748252 
L 102.073112 31.748252 
L 102.176972 31.748252 
L 102.176972 27.036189 
L 102.280861 27.036189 
L 103.215657 27.036189 
L 103.215657 22.324126 
L 103.319529 22.324126 
L 160.342857 22.324126 
L 160.342857 27.036189 
L 160.446685 27.036189 
L 160.55059 27.036189 
L 160.55059 22.324126 
L 160.654452 22.324126 
L 160.966037 22.324126 
L 160.966037 27.036189 
L 161.069929 27.036189 
L 161.589219 27.036189 
L 161.589219 31.748252 
L 161.693128 31.748252 
L 162.00474 31.748252 
L 162.00474 36.460315 
L 162.108581 36.460315 
L 167.613552 36.460315 
L 167.613552 41.172378 
L 167.717416 41.172378 
L 179.869952 41.172378 
L 179.869952 36.460315 
L 179.973823 36.460315 
L 202.928533 36.460315 
L 202.928533 41.172378 
L 203.03243 41.172378 
L 211.030228 41.172378 
L 211.030228 36.460315 
L 211.134089 36.460315 
L 236.373956 36.460315 
L 236.373956 31.748252 
L 236.477818 31.748252 
L 239.697666 31.748252 
L 239.697666 27.036189 
L 239.801539 27.036189 
L 245.514279 27.036189 
L 245.514279 22.324126 
L 275.428164 22.324126 
L 275.428164 31.748252 
L 275.531992 31.748252 
L 276.051319 31.748252 
L 276.051319 36.460315 
L 276.155236 36.460315 
L 303.005 36.460315 
L 303.005 36.460315 
" style="fill:none;stroke:#a6761d;stroke-linecap:square;stroke-width:1.5;"/>
   </g>
   <g id="line2d_26">
    <path clip-path="url(#pdc3bba64a5)" d="M 55.905 201.382519 
L 66.031029 201.382519 
L 66.031029 196.670456 
L 66.134913 196.670456 
L 66.654235 196.670456 
L 66.654235 191.958393 
L 66.758088 191.958393 
L 71.224417 191.958393 
L 71.224417 187.24633 
L 71.328287 187.24633 
L 71.639887 187.24633 
L 71.639887 191.958393 
L 71.743767 191.958393 
L 71.847621 191.958393 
L 71.847621 182.534267 
L 71.951473 182.534267 
L 90.751551 182.534267 
L 90.751551 177.822204 
L 90.855367 177.822204 
L 91.167013 177.822204 
L 91.167013 173.110142 
L 91.270858 173.110142 
L 91.582483 173.110142 
L 91.582483 168.398079 
L 91.686326 168.398079 
L 91.790221 168.398079 
L 91.790221 163.686016 
L 91.894061 163.686016 
L 92.828863 163.686016 
L 92.828863 158.973953 
L 92.932772 158.973953 
L 96.15263 158.973953 
L 96.15263 154.26189 
L 96.256491 154.26189 
L 96.775856 154.26189 
L 96.775856 149.549827 
L 96.87973 149.549827 
L 96.983589 149.549827 
L 96.983589 144.837764 
L 97.087453 144.837764 
L 100.51506 144.837764 
L 100.51506 135.413638 
L 100.61897 135.413638 
L 100.72279 135.413638 
L 100.72279 130.701575 
L 100.8267 130.701575 
L 100.930524 130.701575 
L 100.982461 116.565386 
L 101.034402 116.565386 
L 101.761504 116.565386 
L 101.761504 111.853323 
L 101.865385 111.853323 
L 101.969209 111.853323 
L 101.969209 107.14126 
L 102.073112 107.14126 
L 102.176972 107.14126 
L 102.176972 111.853323 
L 102.280861 111.853323 
L 102.384689 111.853323 
L 102.384689 107.14126 
L 102.488593 107.14126 
L 102.592412 107.14126 
L 102.592412 102.429197 
L 102.696326 102.429197 
L 105.085268 102.429197 
L 105.085268 107.14126 
L 105.189106 107.14126 
L 105.708441 107.14126 
L 105.708441 93.005071 
L 105.812345 93.005071 
L 106.123926 93.005071 
L 106.123926 88.293008 
L 106.227777 88.293008 
L 106.539428 88.293008 
L 106.539428 69.444756 
L 106.643274 69.444756 
L 106.747164 69.444756 
L 106.747164 64.732693 
L 106.851005 64.732693 
L 111.317299 64.732693 
L 111.317299 60.02063 
L 111.42116 60.02063 
L 128.143894 60.02063 
L 128.143894 55.308567 
L 128.247761 55.308567 
L 131.467649 55.308567 
L 131.467649 50.596504 
L 131.571488 50.596504 
L 131.675359 50.596504 
L 131.675359 55.308567 
L 131.77925 55.308567 
L 132.090832 55.308567 
L 132.090832 50.596504 
L 132.194724 50.596504 
L 137.076511 50.596504 
L 137.076511 45.884441 
L 137.180364 45.884441 
L 145.593605 45.884441 
L 145.593605 50.596504 
L 145.697482 50.596504 
L 151.410202 50.596504 
L 151.410202 45.884441 
L 151.514082 45.884441 
L 160.342857 45.884441 
L 160.342857 50.596504 
L 160.446685 50.596504 
L 160.75827 50.596504 
L 160.75827 55.308567 
L 160.86219 55.308567 
L 161.381484 55.308567 
L 161.381484 60.02063 
L 161.485352 60.02063 
L 167.198079 60.02063 
L 167.198079 64.732693 
L 167.301989 64.732693 
L 176.13068 64.732693 
L 176.13068 69.444756 
L 176.234578 69.444756 
L 196.904251 69.444756 
L 196.904251 74.156819 
L 197.008096 74.156819 
L 291.216021 74.156819 
L 291.216021 69.444756 
L 291.319932 69.444756 
L 296.824893 69.444756 
L 296.824893 74.156819 
L 296.928788 74.156819 
L 303.005 74.156819 
L 303.005 74.156819 
" style="fill:none;stroke:#666666;stroke-linecap:square;stroke-width:1.5;"/>
   </g>
   <g id="line2d_27">
    <path clip-path="url(#pdc3bba64a5)" d="M 55.905 206.094582 
L 66.031029 206.094582 
L 66.031029 201.382519 
L 66.134913 201.382519 
L 71.639887 201.382519 
L 71.639887 191.958393 
L 71.743767 191.958393 
L 90.543786 191.958393 
L 90.543786 187.24633 
L 90.647632 187.24633 
L 90.959265 187.24633 
L 90.959265 182.534267 
L 91.063101 182.534267 
L 91.582483 182.534267 
L 91.582483 177.822204 
L 91.686326 177.822204 
L 95.529428 177.822204 
L 95.529428 173.110142 
L 95.633294 173.110142 
L 95.737159 173.110142 
L 95.737159 163.686016 
L 95.841058 163.686016 
L 95.944908 163.686016 
L 95.944908 158.973953 
L 96.048772 158.973953 
L 96.360343 158.973953 
L 96.360343 154.26189 
L 96.464264 154.26189 
L 96.568119 154.26189 
L 96.568119 144.837764 
L 96.67199 144.837764 
L 96.775856 144.837764 
L 96.775856 135.413638 
L 96.87973 135.413638 
L 97.606812 135.413638 
L 97.606812 130.701575 
L 97.710667 130.701575 
L 98.02227 130.701575 
L 98.02227 125.989512 
L 98.126125 125.989512 
L 98.229967 125.989512 
L 98.229967 130.701575 
L 98.333888 130.701575 
L 100.099605 130.701575 
L 100.099605 135.413638 
L 100.203499 135.413638 
L 100.307319 135.413638 
L 100.307319 140.125701 
L 100.41136 140.125701 
L 100.51506 140.125701 
L 100.51506 135.413638 
L 100.61897 135.413638 
L 100.72279 135.413638 
L 100.72279 140.125701 
L 100.8267 140.125701 
L 100.930524 140.125701 
L 100.930524 135.413638 
L 101.034402 135.413638 
L 101.13828 135.413638 
L 101.13828 130.701575 
L 101.242149 130.701575 
L 101.553742 130.701575 
L 101.553742 135.413638 
L 101.65763 135.413638 
L 106.331669 135.413638 
L 106.331669 130.701575 
L 106.435539 130.701575 
L 106.747164 130.701575 
L 106.747164 125.989512 
L 106.851005 125.989512 
L 111.525062 125.989512 
L 111.525062 121.277449 
L 111.628909 121.277449 
L 112.979192 121.277449 
L 112.979192 116.565386 
L 113.083041 116.565386 
L 126.274251 116.565386 
L 126.274251 111.853323 
L 126.378136 111.853323 
L 126.481984 111.853323 
L 126.481984 107.14126 
L 126.585858 107.14126 
L 127.312904 107.14126 
L 127.312904 102.429197 
L 127.416806 102.429197 
L 137.076511 102.429197 
L 137.076511 97.717134 
L 137.180364 97.717134 
L 137.699662 97.717134 
L 137.699662 93.005071 
L 137.803571 93.005071 
L 148.086458 93.005071 
L 148.086458 88.293008 
L 148.190298 88.293008 
L 152.656612 88.293008 
L 152.656612 93.005071 
L 152.760484 93.005071 
L 160.75827 93.005071 
L 160.75827 97.717134 
L 160.86219 97.717134 
L 196.48877 97.717134 
L 196.48877 93.005071 
L 196.592654 93.005071 
L 231.596045 93.005071 
L 231.596045 88.293008 
L 231.69989 88.293008 
L 235.543 88.293008 
L 235.543 83.580945 
L 235.646835 83.580945 
L 249.876708 83.580945 
L 249.876708 78.868882 
L 249.980591 78.868882 
L 280.20609 78.868882 
L 280.20609 83.580945 
L 280.309954 83.580945 
L 280.413773 83.580945 
L 280.413773 78.868882 
L 280.517639 78.868882 
L 303.005 78.868882 
L 303.005 78.868882 
" style="fill:none;stroke:#1b9e77;stroke-dasharray:4.5,1.5;stroke-dashoffset:0;stroke-width:1.5;"/>
   </g>
   <g id="line2d_28">
    <path clip-path="url(#pdc3bba64a5)" d="M 55.905 196.670456 
L 60.522592 196.670456 
L 60.522592 191.958393 
L 66.654235 191.958393 
L 66.654235 187.24633 
L 66.758088 187.24633 
L 70.808924 187.24633 
L 70.808924 182.534267 
L 70.912789 182.534267 
L 71.224417 182.534267 
L 71.224417 177.822204 
L 71.328287 177.822204 
L 71.847621 177.822204 
L 71.847621 173.110142 
L 71.951473 173.110142 
L 72.055351 173.110142 
L 72.055351 168.398079 
L 72.159242 168.398079 
L 73.301771 168.398079 
L 73.301771 163.686016 
L 73.405659 163.686016 
L 91.167013 163.686016 
L 91.167013 154.26189 
L 91.270858 154.26189 
L 95.944908 154.26189 
L 95.944908 149.549827 
L 96.048772 149.549827 
L 96.983589 149.549827 
L 96.983589 144.837764 
L 97.087453 144.837764 
L 97.606812 144.837764 
L 97.606812 140.125701 
L 97.710667 140.125701 
L 100.72279 140.125701 
L 100.72279 135.413638 
L 100.8267 135.413638 
L 100.930524 135.413638 
L 100.930524 125.989512 
L 101.034402 125.989512 
L 101.553742 125.989512 
L 101.553742 116.565386 
L 101.65763 116.565386 
L 106.123926 116.565386 
L 106.123926 111.853323 
L 106.227777 111.853323 
L 106.747164 111.853323 
L 106.747164 107.14126 
L 106.851005 107.14126 
L 107.370327 107.14126 
L 107.370327 102.429197 
L 107.474218 102.429197 
L 112.563742 102.429197 
L 112.563742 97.717134 
L 112.667612 97.717134 
L 126.897463 97.717134 
L 126.897463 93.005071 
L 127.001345 93.005071 
L 131.675359 93.005071 
L 131.675359 88.293008 
L 131.77925 88.293008 
L 137.076511 88.293008 
L 137.076511 93.005071 
L 137.180364 93.005071 
L 160.966037 93.005071 
L 160.966037 88.293008 
L 161.069929 88.293008 
L 161.173755 88.293008 
L 161.173755 93.005071 
L 161.277642 93.005071 
L 166.367157 93.005071 
L 166.367157 88.293008 
L 166.471049 88.293008 
L 202.928533 88.293008 
L 202.928533 83.580945 
L 203.03243 83.580945 
L 236.166178 83.580945 
L 236.166178 78.868882 
L 236.270044 78.868882 
L 246.760697 78.868882 
L 246.760697 83.580945 
L 246.864554 83.580945 
L 303.005 83.580945 
L 303.005 83.580945 
" style="fill:none;stroke:#d95f02;stroke-dasharray:4.5,1.5;stroke-dashoffset:0;stroke-width:1.5;"/>
   </g>
   <g id="line2d_29">
    <path clip-path="url(#pdc3bba64a5)" d="M 55.905 210.806645 
L 61.253322 210.806645 
L 61.253322 206.094582 
L 61.357011 206.094582 
L 61.668621 206.094582 
L 61.668621 201.382519 
L 61.77251 201.382519 
L 66.446497 201.382519 
L 66.446497 196.670456 
L 66.550362 196.670456 
L 71.847621 196.670456 
L 71.847621 191.958393 
L 71.951473 191.958393 
L 75.171393 191.958393 
L 75.171393 187.24633 
L 75.275291 187.24633 
L 76.210047 187.24633 
L 76.210047 182.534267 
L 76.313937 182.534267 
L 76.625536 182.534267 
L 76.625536 177.822204 
L 76.729384 177.822204 
L 90.543786 177.822204 
L 90.543786 168.398079 
L 90.647632 168.398079 
L 90.959265 168.398079 
L 90.959265 163.686016 
L 91.063101 163.686016 
L 91.167013 163.686016 
L 91.167013 158.973953 
L 91.270858 158.973953 
L 91.374726 158.973953 
L 91.374726 154.26189 
L 91.478584 154.26189 
L 91.582483 154.26189 
L 91.582483 144.837764 
L 91.686326 144.837764 
L 91.790221 144.837764 
L 91.790221 140.125701 
L 91.894061 140.125701 
L 92.205687 140.125701 
L 92.205687 135.413638 
L 92.309538 135.413638 
L 92.621175 135.413638 
L 92.621175 130.701575 
L 92.725025 130.701575 
L 93.244325 130.701575 
L 93.244325 125.989512 
L 93.348242 125.989512 
L 95.529428 125.989512 
L 95.529428 121.277449 
L 95.633294 121.277449 
L 95.737159 121.277449 
L 95.737159 116.565386 
L 95.841058 116.565386 
L 95.944908 116.565386 
L 95.944908 102.429197 
L 96.048772 102.429197 
L 96.15263 102.429197 
L 96.15263 97.717134 
L 96.256491 97.717134 
L 96.360343 97.717134 
L 96.360343 93.005071 
L 96.464264 93.005071 
L 98.229967 93.005071 
L 98.229967 97.717134 
L 98.333888 97.717134 
L 100.930524 97.717134 
L 100.930524 93.005071 
L 101.034402 93.005071 
L 101.13828 93.005071 
L 101.13828 97.717134 
L 101.242149 97.717134 
L 101.346027 97.717134 
L 101.346027 93.005071 
L 101.44992 93.005071 
L 107.16264 93.005071 
L 107.16264 97.717134 
L 107.266472 97.717134 
L 107.370327 97.717134 
L 107.370327 93.005071 
L 107.474218 93.005071 
L 303.005 93.005071 
L 303.005 93.005071 
" style="fill:none;stroke:#7570b3;stroke-dasharray:4.5,1.5;stroke-dashoffset:0;stroke-width:1.5;"/>
   </g>
   <g id="line2d_30">
    <path clip-path="url(#pdc3bba64a5)" d="M 55.905 206.094582 
L 65.615587 206.094582 
L 65.615587 201.382519 
L 65.719416 201.382519 
L 65.823314 201.382519 
L 65.823314 196.670456 
L 65.92718 196.670456 
L 66.654235 196.670456 
L 66.654235 187.24633 
L 66.758088 187.24633 
L 70.601213 187.24633 
L 70.601213 182.534267 
L 70.705077 182.534267 
L 71.639887 182.534267 
L 71.639887 177.822204 
L 71.743767 177.822204 
L 71.847621 177.822204 
L 71.847621 173.110142 
L 71.951473 173.110142 
L 72.055351 173.110142 
L 72.055351 168.398079 
L 72.159242 168.398079 
L 90.959265 168.398079 
L 90.959265 163.686016 
L 91.063101 163.686016 
L 91.167013 163.686016 
L 91.167013 158.973953 
L 91.270858 158.973953 
L 91.374726 158.973953 
L 91.374726 149.549827 
L 91.478584 149.549827 
L 96.568119 149.549827 
L 96.568119 144.837764 
L 96.67199 144.837764 
L 96.775856 144.837764 
L 96.775856 140.125701 
L 96.87973 140.125701 
L 100.307319 140.125701 
L 100.307319 144.837764 
L 100.41136 144.837764 
L 100.930524 144.837764 
L 100.930524 135.413638 
L 101.034402 135.413638 
L 101.13828 135.413638 
L 101.13828 140.125701 
L 101.242149 140.125701 
L 101.346027 140.125701 
L 101.346027 135.413638 
L 101.44992 135.413638 
L 101.761504 135.413638 
L 101.761504 125.989512 
L 101.865385 125.989512 
L 101.969209 125.989512 
L 101.969209 121.277449 
L 102.073112 121.277449 
L 111.732762 121.277449 
L 111.732762 116.565386 
L 111.836676 116.565386 
L 112.356004 116.565386 
L 112.356004 111.853323 
L 112.459858 111.853323 
L 122.327265 111.853323 
L 122.327265 107.14126 
L 122.431134 107.14126 
L 141.231173 107.14126 
L 141.231173 102.429197 
L 141.335056 102.429197 
L 142.062113 102.429197 
L 142.062113 97.717134 
L 142.16603 97.717134 
L 146.21685 97.717134 
L 146.21685 93.005071 
L 146.320724 93.005071 
L 162.627943 93.005071 
L 162.627943 88.293008 
L 162.731774 88.293008 
L 286.438083 88.293008 
L 286.438083 93.005071 
L 286.541999 93.005071 
L 291.216021 93.005071 
L 291.216021 97.717134 
L 291.319932 97.717134 
L 303.005 97.717134 
L 303.005 97.717134 
" style="fill:none;stroke:#e7298a;stroke-dasharray:4.5,1.5;stroke-dashoffset:0;stroke-width:1.5;"/>
   </g>
   <g id="line2d_31">
    <path clip-path="url(#pdc3bba64a5)" d="M 149.177048 210.806645 
L 150.994716 210.806645 
L 150.994716 206.094582 
L 151.09862 206.094582 
L 157.226817 206.094582 
L 157.226817 201.382519 
L 157.330655 201.382519 
L 160.342857 201.382519 
L 160.342857 182.534267 
L 160.446685 182.534267 
L 160.75827 182.534267 
L 160.75827 173.110142 
L 160.86219 173.110142 
L 161.173755 173.110142 
L 161.173755 158.973953 
L 161.277642 158.973953 
L 161.589219 158.973953 
L 161.589219 154.26189 
L 161.693128 154.26189 
L 165.743967 154.26189 
L 165.743967 149.549827 
L 165.847833 149.549827 
L 166.782631 149.549827 
L 166.782631 144.837764 
L 166.886492 144.837764 
L 167.198079 144.837764 
L 167.198079 140.125701 
L 167.301989 140.125701 
L 167.613552 140.125701 
L 167.613552 135.413638 
L 167.717416 135.413638 
L 167.821294 135.413638 
L 167.821294 130.701575 
L 167.92514 130.701575 
L 170.729601 130.701575 
L 170.729601 125.989512 
L 170.833473 125.989512 
L 172.599184 125.989512 
L 172.599184 121.277449 
L 172.703088 121.277449 
L 176.13068 121.277449 
L 176.13068 116.565386 
L 176.234578 116.565386 
L 239.697666 116.565386 
L 239.697666 121.277449 
L 239.801539 121.277449 
L 240.73633 121.277449 
L 240.73633 116.565386 
L 240.840237 116.565386 
L 275.635889 116.565386 
L 275.635889 111.853323 
L 275.739771 111.853323 
L 276.051319 111.853323 
L 276.051319 107.14126 
L 276.155236 107.14126 
L 277.713231 107.14126 
L 277.713231 102.429197 
L 277.817075 102.429197 
L 303.005 102.429197 
L 303.005 102.429197 
" style="fill:none;stroke:#66a61e;stroke-dasharray:4.5,1.5;stroke-dashoffset:0;stroke-width:1.5;"/>
   </g>
   <g id="line2d_32">
    <path clip-path="url(#pdc3bba64a5)" d="M 55.905 210.806645 
L 62.084043 210.806645 
L 62.084043 206.094582 
L 62.187916 206.094582 
L 62.915024 206.094582 
L 62.915024 201.382519 
L 63.018881 201.382519 
L 76.002349 201.382519 
L 76.002349 196.670456 
L 76.106206 196.670456 
L 90.543786 196.670456 
L 90.543786 191.958393 
L 90.647632 191.958393 
L 91.997925 191.958393 
L 91.997925 182.534267 
L 92.101784 182.534267 
L 95.944908 182.534267 
L 95.944908 177.822204 
L 96.048772 177.822204 
L 96.15263 177.822204 
L 96.15263 173.110142 
L 96.256491 173.110142 
L 96.775856 173.110142 
L 96.775856 163.686016 
L 96.87973 163.686016 
L 96.983589 163.686016 
L 96.983589 158.973953 
L 97.087453 158.973953 
L 98.229967 158.973953 
L 98.229967 154.26189 
L 98.333888 154.26189 
L 100.72279 154.26189 
L 100.72279 158.973953 
L 100.8267 158.973953 
L 101.13828 158.973953 
L 101.13828 154.26189 
L 101.242149 154.26189 
L 101.346027 154.26189 
L 101.346027 149.549827 
L 101.44992 149.549827 
L 101.761504 149.549827 
L 101.761504 144.837764 
L 101.865385 144.837764 
L 101.969209 144.837764 
L 101.969209 149.549827 
L 102.073112 149.549827 
L 102.176972 149.549827 
L 102.176972 144.837764 
L 102.280861 144.837764 
L 105.708441 144.837764 
L 105.708441 140.125701 
L 105.812345 140.125701 
L 112.356004 140.125701 
L 112.356004 135.413638 
L 112.459858 135.413638 
L 126.274251 135.413638 
L 126.274251 130.701575 
L 126.378136 130.701575 
L 146.009086 130.701575 
L 146.009086 125.989512 
L 146.113 125.989512 
L 170.729601 125.989512 
L 170.729601 121.277449 
L 170.833473 121.277449 
L 196.904251 121.277449 
L 196.904251 116.565386 
L 197.008096 116.565386 
L 245.514279 116.565386 
L 245.514279 111.853323 
L 265.456845 111.853323 
L 265.456845 107.14126 
L 265.560737 107.14126 
L 303.005 107.14126 
L 303.005 107.14126 
" style="fill:none;stroke:#e6ab02;stroke-dasharray:4.5,1.5;stroke-dashoffset:0;stroke-width:1.5;"/>
   </g>
   <g id="line2d_33">
    <path clip-path="url(#pdc3bba64a5)" d="M 55.905 206.094582 
L 66.238763 206.094582 
L 66.238763 196.670456 
L 66.342642 196.670456 
L 70.808924 196.670456 
L 70.808924 187.24633 
L 70.912789 187.24633 
L 71.016649 187.24633 
L 71.016649 182.534267 
L 71.120542 182.534267 
L 71.847621 182.534267 
L 71.847621 177.822204 
L 71.951473 177.822204 
L 72.055351 177.822204 
L 72.055351 173.110142 
L 72.159242 173.110142 
L 91.374726 173.110142 
L 91.374726 168.398079 
L 91.478584 168.398079 
L 91.582483 168.398079 
L 91.582483 163.686016 
L 91.686326 163.686016 
L 91.790221 163.686016 
L 91.790221 158.973953 
L 91.894061 158.973953 
L 92.413381 158.973953 
L 92.413381 154.26189 
L 92.517296 154.26189 
L 92.621175 154.26189 
L 92.621175 158.973953 
L 92.725025 158.973953 
L 95.529428 158.973953 
L 95.529428 140.125701 
L 95.633294 140.125701 
L 95.944908 140.125701 
L 95.944908 130.701575 
L 96.048772 130.701575 
L 96.15263 130.701575 
L 96.15263 125.989512 
L 96.256491 125.989512 
L 96.360343 125.989512 
L 96.360343 116.565386 
L 96.464264 116.565386 
L 303.005 116.565386 
L 303.005 116.565386 
" style="fill:none;stroke:#a6761d;stroke-dasharray:4.5,1.5;stroke-dashoffset:0;stroke-width:1.5;"/>
   </g>
   <g id="line2d_34">
    <path clip-path="url(#pdc3bba64a5)" d="M 55.905 210.806645 
L 66.654235 210.806645 
L 66.654235 206.094582 
L 66.758088 206.094582 
L 66.862001 206.094582 
L 66.862001 201.382519 
L 66.965864 201.382519 
L 71.016649 201.382519 
L 71.016649 196.670456 
L 71.120542 196.670456 
L 72.055351 196.670456 
L 72.055351 191.958393 
L 72.159242 191.958393 
L 72.470821 191.958393 
L 72.470821 187.24633 
L 72.574712 187.24633 
L 72.886313 187.24633 
L 72.886313 182.534267 
L 72.990189 182.534267 
L 76.002349 182.534267 
L 76.002349 187.24633 
L 76.106206 187.24633 
L 90.751551 187.24633 
L 90.751551 182.534267 
L 90.855367 182.534267 
L 91.997925 182.534267 
L 91.997925 173.110142 
L 92.101784 173.110142 
L 95.737159 173.110142 
L 95.737159 168.398079 
L 95.841058 168.398079 
L 96.568119 168.398079 
L 96.568119 149.549827 
L 96.67199 149.549827 
L 96.775856 149.549827 
L 96.775856 144.837764 
L 96.87973 144.837764 
L 96.983589 144.837764 
L 96.983589 140.125701 
L 97.087453 140.125701 
L 160.75827 140.125701 
L 160.75827 144.837764 
L 160.86219 144.837764 
L 160.966037 144.837764 
L 160.966037 140.125701 
L 161.069929 140.125701 
L 286.438083 140.125701 
L 286.438083 135.413638 
L 286.541999 135.413638 
L 296.824893 135.413638 
L 296.824893 130.701575 
L 296.928788 130.701575 
L 303.005 130.701575 
L 303.005 130.701575 
" style="fill:none;stroke:#666666;stroke-dasharray:4.5,1.5;stroke-dashoffset:0;stroke-width:1.5;"/>
   </g>
   <g id="line2d_35"/>
   <g id="line2d_36"/>
   <g id="line2d_37"/>
   <g id="line2d_38"/>
   <g id="line2d_39"/>
   <g id="line2d_40"/>
   <g id="line2d_41"/>
   <g id="line2d_42"/>
   <g id="line2d_43"/>
   <g id="line2d_44"/>
   <g id="line2d_45"/>
   <g id="line2d_46"/>
   <g id="line2d_47"/>
   <g id="line2d_48"/>
   <g id="line2d_49"/>
   <g id="line2d_50"/>
   <g id="line2d_51"/>
   <g id="patch_3">
    <path d="M 43.55 220.230771 
L 43.55 12.9 
" style="fill:none;stroke:#000000;stroke-linecap:square;stroke-linejoin:miter;stroke-width:0.8;"/>
   </g>
   <g id="patch_4">
    <path d="M 315.36 220.230771 
L 315.36 12.9 
" style="fill:none;stroke:#000000;stroke-linecap:square;stroke-linejoin:miter;stroke-width:0.8;"/>
   </g>
   <g id="patch_5">
    <path d="M 43.55 220.230771 
L 315.36 220.230771 
" style="fill:none;stroke:#000000;stroke-linecap:square;stroke-linejoin:miter;stroke-width:0.8;"/>
   </g>
   <g id="patch_6">
    <path d="M 43.55 12.9 
L 315.36 12.9 
" style="fill:none;stroke:#000000;stroke-linecap:square;stroke-linejoin:miter;stroke-width:0.8;"/>
   </g>
  </g>
  <g id="legend_1">
   <g id="patch_7">
    <path d="M 331.8625 262.528125 
L 420 262.528125 
Q 422 262.528125 422 260.528125 
L 422 12 
Q 422 10 420 10 
L 331.8625 10 
Q 329.8625 10 329.8625 12 
L 329.8625 260.528125 
Q 329.8625 262.528125 331.8625 262.528125 
z
" style="fill:#ffffff;opacity:0.8;stroke:#cccccc;stroke-linejoin:miter;"/>
   </g>
   <g id="text_21">
    <!-- 488/610 Reg. -->
    <defs>
     <path d="M 25.390625 72.90625 
L 33.6875 72.90625 
L 8.296875 -9.28125 
L 0 -9.28125 
z
" id="DejaVuSans-47"/>
     <path d="M 33.015625 40.375 
Q 26.375 40.375 22.484375 35.828125 
Q 18.609375 31.296875 18.609375 23.390625 
Q 18.609375 15.53125 22.484375 10.953125 
Q 26.375 6.390625 33.015625 6.390625 
Q 39.65625 6.390625 43.53125 10.953125 
Q 47.40625 15.53125 47.40625 23.390625 
Q 47.40625 31.296875 43.53125 35.828125 
Q 39.65625 40.375 33.015625 40.375 
z
M 52.59375 71.296875 
L 52.59375 62.3125 
Q 48.875 64.0625 45.09375 64.984375 
Q 41.3125 65.921875 37.59375 65.921875 
Q 27.828125 65.921875 22.671875 59.328125 
Q 17.53125 52.734375 16.796875 39.40625 
Q 19.671875 43.65625 24.015625 45.921875 
Q 28.375 48.1875 33.59375 48.1875 
Q 44.578125 48.1875 50.953125 41.515625 
Q 57.328125 34.859375 57.328125 23.390625 
Q 57.328125 12.15625 50.6875 5.359375 
Q 44.046875 -1.421875 33.015625 -1.421875 
Q 20.359375 -1.421875 13.671875 8.265625 
Q 6.984375 17.96875 6.984375 36.375 
Q 6.984375 53.65625 15.1875 63.9375 
Q 23.390625 74.21875 37.203125 74.21875 
Q 40.921875 74.21875 44.703125 73.484375 
Q 48.484375 72.75 52.59375 71.296875 
z
" id="DejaVuSans-54"/>
     <path d="M 10.6875 12.40625 
L 21 12.40625 
L 21 0 
L 10.6875 0 
z
" id="DejaVuSans-46"/>
    </defs>
    <g transform="translate(342.259375 21.598437)scale(0.1 -0.1)">
     <use xlink:href="#DejaVuSans-52"/>
     <use x="63.623047" xlink:href="#DejaVuSans-56"/>
     <use x="127.246094" xlink:href="#DejaVuSans-56"/>
     <use x="190.869141" xlink:href="#DejaVuSans-47"/>
     <use x="224.560547" xlink:href="#DejaVuSans-54"/>
     <use x="288.183594" xlink:href="#DejaVuSans-49"/>
     <use x="351.806641" xlink:href="#DejaVuSans-48"/>
     <use x="415.429688" xlink:href="#DejaVuSans-32"/>
     <use x="447.216797" xlink:href="#DejaVuSans-82"/>
     <use x="516.636719" xlink:href="#DejaVuSans-101"/>
     <use x="578.160156" xlink:href="#DejaVuSans-103"/>
     <use x="641.636719" xlink:href="#DejaVuSans-46"/>
    </g>
   </g>
   <g id="line2d_52">
    <path d="M 333.8625 32.776562 
L 353.8625 32.776562 
" style="fill:none;stroke:#1b9e77;stroke-linecap:square;stroke-width:1.5;"/>
   </g>
   <g id="line2d_53"/>
   <g id="text_22">
    <!-- AS (40) -->
    <defs>
     <path d="M 34.1875 63.1875 
L 20.796875 26.90625 
L 47.609375 26.90625 
z
M 28.609375 72.90625 
L 39.796875 72.90625 
L 67.578125 0 
L 57.328125 0 
L 50.6875 18.703125 
L 17.828125 18.703125 
L 11.1875 0 
L 0.78125 0 
z
" id="DejaVuSans-65"/>
     <path d="M 31 75.875 
Q 24.46875 64.65625 21.28125 53.65625 
Q 18.109375 42.671875 18.109375 31.390625 
Q 18.109375 20.125 21.3125 9.0625 
Q 24.515625 -2 31 -13.1875 
L 23.1875 -13.1875 
Q 15.875 -1.703125 12.234375 9.375 
Q 8.59375 20.453125 8.59375 31.390625 
Q 8.59375 42.28125 12.203125 53.3125 
Q 15.828125 64.359375 23.1875 75.875 
z
" id="DejaVuSans-40"/>
     <path d="M 8.015625 75.875 
L 15.828125 75.875 
Q 23.140625 64.359375 26.78125 53.3125 
Q 30.421875 42.28125 30.421875 31.390625 
Q 30.421875 20.453125 26.78125 9.375 
Q 23.140625 -1.703125 15.828125 -13.1875 
L 8.015625 -13.1875 
Q 14.5 -2 17.703125 9.0625 
Q 20.90625 20.125 20.90625 31.390625 
Q 20.90625 42.671875 17.703125 53.65625 
Q 14.5 64.65625 8.015625 75.875 
z
" id="DejaVuSans-41"/>
    </defs>
    <g transform="translate(361.8625 36.276562)scale(0.1 -0.1)">
     <use xlink:href="#DejaVuSans-65"/>
     <use x="68.408203" xlink:href="#DejaVuSans-83"/>
     <use x="131.884766" xlink:href="#DejaVuSans-32"/>
     <use x="163.671875" xlink:href="#DejaVuSans-40"/>
     <use x="202.685547" xlink:href="#DejaVuSans-52"/>
     <use x="266.308594" xlink:href="#DejaVuSans-48"/>
     <use x="329.931641" xlink:href="#DejaVuSans-41"/>
    </g>
   </g>
   <g id="line2d_54">
    <path d="M 333.8625 47.454688 
L 353.8625 47.454688 
" style="fill:none;stroke:#d95f02;stroke-linecap:square;stroke-width:1.5;"/>
   </g>
   <g id="line2d_55"/>
   <g id="text_23">
    <!-- AUS (40) -->
    <defs>
     <path d="M 8.6875 72.90625 
L 18.609375 72.90625 
L 18.609375 28.609375 
Q 18.609375 16.890625 22.84375 11.734375 
Q 27.09375 6.59375 36.625 6.59375 
Q 46.09375 6.59375 50.34375 11.734375 
Q 54.59375 16.890625 54.59375 28.609375 
L 54.59375 72.90625 
L 64.5 72.90625 
L 64.5 27.390625 
Q 64.5 13.140625 57.4375 5.859375 
Q 50.390625 -1.421875 36.625 -1.421875 
Q 22.796875 -1.421875 15.734375 5.859375 
Q 8.6875 13.140625 8.6875 27.390625 
z
" id="DejaVuSans-85"/>
    </defs>
    <g transform="translate(361.8625 50.954688)scale(0.1 -0.1)">
     <use xlink:href="#DejaVuSans-65"/>
     <use x="68.408203" xlink:href="#DejaVuSans-85"/>
     <use x="141.601562" xlink:href="#DejaVuSans-83"/>
     <use x="205.078125" xlink:href="#DejaVuSans-32"/>
     <use x="236.865234" xlink:href="#DejaVuSans-40"/>
     <use x="275.878906" xlink:href="#DejaVuSans-52"/>
     <use x="339.501953" xlink:href="#DejaVuSans-48"/>
     <use x="403.125" xlink:href="#DejaVuSans-41"/>
    </g>
   </g>
   <g id="line2d_56">
    <path d="M 333.8625 62.132812 
L 353.8625 62.132812 
" style="fill:none;stroke:#7570b3;stroke-linecap:square;stroke-width:1.5;"/>
   </g>
   <g id="line2d_57"/>
   <g id="text_24">
    <!-- COML (40) -->
    <defs>
     <path d="M 64.40625 67.28125 
L 64.40625 56.890625 
Q 59.421875 61.53125 53.78125 63.8125 
Q 48.140625 66.109375 41.796875 66.109375 
Q 29.296875 66.109375 22.65625 58.46875 
Q 16.015625 50.828125 16.015625 36.375 
Q 16.015625 21.96875 22.65625 14.328125 
Q 29.296875 6.6875 41.796875 6.6875 
Q 48.140625 6.6875 53.78125 8.984375 
Q 59.421875 11.28125 64.40625 15.921875 
L 64.40625 5.609375 
Q 59.234375 2.09375 53.4375 0.328125 
Q 47.65625 -1.421875 41.21875 -1.421875 
Q 24.65625 -1.421875 15.125 8.703125 
Q 5.609375 18.84375 5.609375 36.375 
Q 5.609375 53.953125 15.125 64.078125 
Q 24.65625 74.21875 41.21875 74.21875 
Q 47.75 74.21875 53.53125 72.484375 
Q 59.328125 70.75 64.40625 67.28125 
z
" id="DejaVuSans-67"/>
     <path d="M 39.40625 66.21875 
Q 28.65625 66.21875 22.328125 58.203125 
Q 16.015625 50.203125 16.015625 36.375 
Q 16.015625 22.609375 22.328125 14.59375 
Q 28.65625 6.59375 39.40625 6.59375 
Q 50.140625 6.59375 56.421875 14.59375 
Q 62.703125 22.609375 62.703125 36.375 
Q 62.703125 50.203125 56.421875 58.203125 
Q 50.140625 66.21875 39.40625 66.21875 
z
M 39.40625 74.21875 
Q 54.734375 74.21875 63.90625 63.9375 
Q 73.09375 53.65625 73.09375 36.375 
Q 73.09375 19.140625 63.90625 8.859375 
Q 54.734375 -1.421875 39.40625 -1.421875 
Q 24.03125 -1.421875 14.8125 8.828125 
Q 5.609375 19.09375 5.609375 36.375 
Q 5.609375 53.65625 14.8125 63.9375 
Q 24.03125 74.21875 39.40625 74.21875 
z
" id="DejaVuSans-79"/>
     <path d="M 9.8125 72.90625 
L 24.515625 72.90625 
L 43.109375 23.296875 
L 61.8125 72.90625 
L 76.515625 72.90625 
L 76.515625 0 
L 66.890625 0 
L 66.890625 64.015625 
L 48.09375 14.015625 
L 38.1875 14.015625 
L 19.390625 64.015625 
L 19.390625 0 
L 9.8125 0 
z
" id="DejaVuSans-77"/>
     <path d="M 9.8125 72.90625 
L 19.671875 72.90625 
L 19.671875 8.296875 
L 55.171875 8.296875 
L 55.171875 0 
L 9.8125 0 
z
" id="DejaVuSans-76"/>
    </defs>
    <g transform="translate(361.8625 65.632812)scale(0.1 -0.1)">
     <use xlink:href="#DejaVuSans-67"/>
     <use x="69.824219" xlink:href="#DejaVuSans-79"/>
     <use x="148.535156" xlink:href="#DejaVuSans-77"/>
     <use x="234.814453" xlink:href="#DejaVuSans-76"/>
     <use x="290.527344" xlink:href="#DejaVuSans-32"/>
     <use x="322.314453" xlink:href="#DejaVuSans-40"/>
     <use x="361.328125" xlink:href="#DejaVuSans-52"/>
     <use x="424.951172" xlink:href="#DejaVuSans-48"/>
     <use x="488.574219" xlink:href="#DejaVuSans-41"/>
    </g>
   </g>
   <g id="line2d_58">
    <path d="M 333.8625 76.810937 
L 353.8625 76.810937 
" style="fill:none;stroke:#e7298a;stroke-linecap:square;stroke-width:1.5;"/>
   </g>
   <g id="line2d_59"/>
   <g id="text_25">
    <!-- GDD (40) -->
    <defs>
     <path d="M 59.515625 10.40625 
L 59.515625 29.984375 
L 43.40625 29.984375 
L 43.40625 38.09375 
L 69.28125 38.09375 
L 69.28125 6.78125 
Q 63.578125 2.734375 56.6875 0.65625 
Q 49.8125 -1.421875 42 -1.421875 
Q 24.90625 -1.421875 15.25 8.5625 
Q 5.609375 18.5625 5.609375 36.375 
Q 5.609375 54.25 15.25 64.234375 
Q 24.90625 74.21875 42 74.21875 
Q 49.125 74.21875 55.546875 72.453125 
Q 61.96875 70.703125 67.390625 67.28125 
L 67.390625 56.78125 
Q 61.921875 61.421875 55.765625 63.765625 
Q 49.609375 66.109375 42.828125 66.109375 
Q 29.4375 66.109375 22.71875 58.640625 
Q 16.015625 51.171875 16.015625 36.375 
Q 16.015625 21.625 22.71875 14.15625 
Q 29.4375 6.6875 42.828125 6.6875 
Q 48.046875 6.6875 52.140625 7.59375 
Q 56.25 8.5 59.515625 10.40625 
z
" id="DejaVuSans-71"/>
    </defs>
    <g transform="translate(361.8625 80.310937)scale(0.1 -0.1)">
     <use xlink:href="#DejaVuSans-71"/>
     <use x="77.490234" xlink:href="#DejaVuSans-68"/>
     <use x="154.492188" xlink:href="#DejaVuSans-68"/>
     <use x="231.494141" xlink:href="#DejaVuSans-32"/>
     <use x="263.28125" xlink:href="#DejaVuSans-40"/>
     <use x="302.294922" xlink:href="#DejaVuSans-52"/>
     <use x="365.917969" xlink:href="#DejaVuSans-48"/>
     <use x="429.541016" xlink:href="#DejaVuSans-41"/>
    </g>
   </g>
   <g id="line2d_60">
    <path d="M 333.8625 91.489062 
L 353.8625 91.489062 
" style="fill:none;stroke:#66a61e;stroke-linecap:square;stroke-width:1.5;"/>
   </g>
   <g id="line2d_61"/>
   <g id="text_26">
    <!-- MD (38) -->
    <g transform="translate(361.8625 94.989062)scale(0.1 -0.1)">
     <use xlink:href="#DejaVuSans-77"/>
     <use x="86.279297" xlink:href="#DejaVuSans-68"/>
     <use x="163.28125" xlink:href="#DejaVuSans-32"/>
     <use x="195.068359" xlink:href="#DejaVuSans-40"/>
     <use x="234.082031" xlink:href="#DejaVuSans-51"/>
     <use x="297.705078" xlink:href="#DejaVuSans-56"/>
     <use x="361.328125" xlink:href="#DejaVuSans-41"/>
    </g>
   </g>
   <g id="line2d_62">
    <path d="M 333.8625 106.167188 
L 353.8625 106.167188 
" style="fill:none;stroke:#e6ab02;stroke-linecap:square;stroke-width:1.5;"/>
   </g>
   <g id="line2d_63"/>
   <g id="text_27">
    <!-- HPI (38) -->
    <defs>
     <path d="M 9.8125 72.90625 
L 19.671875 72.90625 
L 19.671875 43.015625 
L 55.515625 43.015625 
L 55.515625 72.90625 
L 65.375 72.90625 
L 65.375 0 
L 55.515625 0 
L 55.515625 34.71875 
L 19.671875 34.71875 
L 19.671875 0 
L 9.8125 0 
z
" id="DejaVuSans-72"/>
     <path d="M 19.671875 64.796875 
L 19.671875 37.40625 
L 32.078125 37.40625 
Q 38.96875 37.40625 42.71875 40.96875 
Q 46.484375 44.53125 46.484375 51.125 
Q 46.484375 57.671875 42.71875 61.234375 
Q 38.96875 64.796875 32.078125 64.796875 
z
M 9.8125 72.90625 
L 32.078125 72.90625 
Q 44.34375 72.90625 50.609375 67.359375 
Q 56.890625 61.8125 56.890625 51.125 
Q 56.890625 40.328125 50.609375 34.8125 
Q 44.34375 29.296875 32.078125 29.296875 
L 19.671875 29.296875 
L 19.671875 0 
L 9.8125 0 
z
" id="DejaVuSans-80"/>
     <path d="M 9.8125 72.90625 
L 19.671875 72.90625 
L 19.671875 0 
L 9.8125 0 
z
" id="DejaVuSans-73"/>
    </defs>
    <g transform="translate(361.8625 109.667188)scale(0.1 -0.1)">
     <use xlink:href="#DejaVuSans-72"/>
     <use x="75.195312" xlink:href="#DejaVuSans-80"/>
     <use x="135.498047" xlink:href="#DejaVuSans-73"/>
     <use x="164.990234" xlink:href="#DejaVuSans-32"/>
     <use x="196.777344" xlink:href="#DejaVuSans-40"/>
     <use x="235.791016" xlink:href="#DejaVuSans-51"/>
     <use x="299.414062" xlink:href="#DejaVuSans-56"/>
     <use x="363.037109" xlink:href="#DejaVuSans-41"/>
    </g>
   </g>
   <g id="line2d_64">
    <path d="M 333.8625 120.845312 
L 353.8625 120.845312 
" style="fill:none;stroke:#a6761d;stroke-linecap:square;stroke-width:1.5;"/>
   </g>
   <g id="line2d_65"/>
   <g id="text_28">
    <!-- SA (37) -->
    <defs>
     <path d="M 8.203125 72.90625 
L 55.078125 72.90625 
L 55.078125 68.703125 
L 28.609375 0 
L 18.3125 0 
L 43.21875 64.59375 
L 8.203125 64.59375 
z
" id="DejaVuSans-55"/>
    </defs>
    <g transform="translate(361.8625 124.345312)scale(0.1 -0.1)">
     <use xlink:href="#DejaVuSans-83"/>
     <use x="63.492188" xlink:href="#DejaVuSans-65"/>
     <use x="131.900391" xlink:href="#DejaVuSans-32"/>
     <use x="163.6875" xlink:href="#DejaVuSans-40"/>
     <use x="202.701172" xlink:href="#DejaVuSans-51"/>
     <use x="266.324219" xlink:href="#DejaVuSans-55"/>
     <use x="329.947266" xlink:href="#DejaVuSans-41"/>
    </g>
   </g>
   <g id="line2d_66">
    <path d="M 333.8625 135.523438 
L 353.8625 135.523438 
" style="fill:none;stroke:#666666;stroke-linecap:square;stroke-width:1.5;"/>
   </g>
   <g id="line2d_67"/>
   <g id="text_29">
    <!-- FIT (29) -->
    <defs>
     <path d="M 9.8125 72.90625 
L 51.703125 72.90625 
L 51.703125 64.59375 
L 19.671875 64.59375 
L 19.671875 43.109375 
L 48.578125 43.109375 
L 48.578125 34.8125 
L 19.671875 34.8125 
L 19.671875 0 
L 9.8125 0 
z
" id="DejaVuSans-70"/>
     <path d="M -0.296875 72.90625 
L 61.375 72.90625 
L 61.375 64.59375 
L 35.5 64.59375 
L 35.5 0 
L 25.59375 0 
L 25.59375 64.59375 
L -0.296875 64.59375 
z
" id="DejaVuSans-84"/>
    </defs>
    <g transform="translate(361.8625 139.023438)scale(0.1 -0.1)">
     <use xlink:href="#DejaVuSans-70"/>
     <use x="57.519531" xlink:href="#DejaVuSans-73"/>
     <use x="87.011719" xlink:href="#DejaVuSans-84"/>
     <use x="148.095703" xlink:href="#DejaVuSans-32"/>
     <use x="179.882812" xlink:href="#DejaVuSans-40"/>
     <use x="218.896484" xlink:href="#DejaVuSans-50"/>
     <use x="282.519531" xlink:href="#DejaVuSans-57"/>
     <use x="346.142578" xlink:href="#DejaVuSans-41"/>
    </g>
   </g>
   <g id="line2d_68">
    <path d="M 333.8625 150.201562 
L 353.8625 150.201562 
" style="fill:none;stroke:#1b9e77;stroke-dasharray:4.5,1.5;stroke-dashoffset:0;stroke-width:1.5;"/>
   </g>
   <g id="line2d_69"/>
   <g id="text_30">
    <!-- SPD (28) -->
    <g transform="translate(361.8625 153.701562)scale(0.1 -0.1)">
     <use xlink:href="#DejaVuSans-83"/>
     <use x="63.476562" xlink:href="#DejaVuSans-80"/>
     <use x="123.779297" xlink:href="#DejaVuSans-68"/>
     <use x="200.78125" xlink:href="#DejaVuSans-32"/>
     <use x="232.568359" xlink:href="#DejaVuSans-40"/>
     <use x="271.582031" xlink:href="#DejaVuSans-50"/>
     <use x="335.205078" xlink:href="#DejaVuSans-56"/>
     <use x="398.828125" xlink:href="#DejaVuSans-41"/>
    </g>
   </g>
   <g id="line2d_70">
    <path d="M 333.8625 164.879687 
L 353.8625 164.879687 
" style="fill:none;stroke:#d95f02;stroke-dasharray:4.5,1.5;stroke-dashoffset:0;stroke-width:1.5;"/>
   </g>
   <g id="line2d_71"/>
   <g id="text_31">
    <!-- TBI (27) -->
    <defs>
     <path d="M 19.671875 34.8125 
L 19.671875 8.109375 
L 35.5 8.109375 
Q 43.453125 8.109375 47.28125 11.40625 
Q 51.125 14.703125 51.125 21.484375 
Q 51.125 28.328125 47.28125 31.5625 
Q 43.453125 34.8125 35.5 34.8125 
z
M 19.671875 64.796875 
L 19.671875 42.828125 
L 34.28125 42.828125 
Q 41.5 42.828125 45.03125 45.53125 
Q 48.578125 48.25 48.578125 53.8125 
Q 48.578125 59.328125 45.03125 62.0625 
Q 41.5 64.796875 34.28125 64.796875 
z
M 9.8125 72.90625 
L 35.015625 72.90625 
Q 46.296875 72.90625 52.390625 68.21875 
Q 58.5 63.53125 58.5 54.890625 
Q 58.5 48.1875 55.375 44.234375 
Q 52.25 40.28125 46.1875 39.3125 
Q 53.46875 37.75 57.5 32.78125 
Q 61.53125 27.828125 61.53125 20.40625 
Q 61.53125 10.640625 54.890625 5.3125 
Q 48.25 0 35.984375 0 
L 9.8125 0 
z
" id="DejaVuSans-66"/>
    </defs>
    <g transform="translate(361.8625 168.379687)scale(0.1 -0.1)">
     <use xlink:href="#DejaVuSans-84"/>
     <use x="61.083984" xlink:href="#DejaVuSans-66"/>
     <use x="129.6875" xlink:href="#DejaVuSans-73"/>
     <use x="159.179688" xlink:href="#DejaVuSans-32"/>
     <use x="190.966797" xlink:href="#DejaVuSans-40"/>
     <use x="229.980469" xlink:href="#DejaVuSans-50"/>
     <use x="293.603516" xlink:href="#DejaVuSans-55"/>
     <use x="357.226562" xlink:href="#DejaVuSans-41"/>
    </g>
   </g>
   <g id="line2d_72">
    <path d="M 333.8625 179.557812 
L 353.8625 179.557812 
" style="fill:none;stroke:#7570b3;stroke-dasharray:4.5,1.5;stroke-dashoffset:0;stroke-width:1.5;"/>
   </g>
   <g id="line2d_73"/>
   <g id="text_32">
    <!-- CC (25) -->
    <g transform="translate(361.8625 183.057812)scale(0.1 -0.1)">
     <use xlink:href="#DejaVuSans-67"/>
     <use x="69.824219" xlink:href="#DejaVuSans-67"/>
     <use x="139.648438" xlink:href="#DejaVuSans-32"/>
     <use x="171.435547" xlink:href="#DejaVuSans-40"/>
     <use x="210.449219" xlink:href="#DejaVuSans-50"/>
     <use x="274.072266" xlink:href="#DejaVuSans-53"/>
     <use x="337.695312" xlink:href="#DejaVuSans-41"/>
    </g>
   </g>
   <g id="line2d_74">
    <path d="M 333.8625 194.235937 
L 353.8625 194.235937 
" style="fill:none;stroke:#e7298a;stroke-dasharray:4.5,1.5;stroke-dashoffset:0;stroke-width:1.5;"/>
   </g>
   <g id="line2d_75"/>
   <g id="text_33">
    <!-- BP (24) -->
    <g transform="translate(361.8625 197.735937)scale(0.1 -0.1)">
     <use xlink:href="#DejaVuSans-66"/>
     <use x="68.603516" xlink:href="#DejaVuSans-80"/>
     <use x="128.90625" xlink:href="#DejaVuSans-32"/>
     <use x="160.693359" xlink:href="#DejaVuSans-40"/>
     <use x="199.707031" xlink:href="#DejaVuSans-50"/>
     <use x="263.330078" xlink:href="#DejaVuSans-52"/>
     <use x="326.953125" xlink:href="#DejaVuSans-41"/>
    </g>
   </g>
   <g id="line2d_76">
    <path d="M 333.8625 208.914062 
L 353.8625 208.914062 
" style="fill:none;stroke:#66a61e;stroke-dasharray:4.5,1.5;stroke-dashoffset:0;stroke-width:1.5;"/>
   </g>
   <g id="line2d_77"/>
   <g id="text_34">
    <!-- RJPH (23) -->
    <defs>
     <path d="M 9.8125 72.90625 
L 19.671875 72.90625 
L 19.671875 5.078125 
Q 19.671875 -8.109375 14.671875 -14.0625 
Q 9.671875 -20.015625 -1.421875 -20.015625 
L -5.171875 -20.015625 
L -5.171875 -11.71875 
L -2.09375 -11.71875 
Q 4.4375 -11.71875 7.125 -8.046875 
Q 9.8125 -4.390625 9.8125 5.078125 
z
" id="DejaVuSans-74"/>
    </defs>
    <g transform="translate(361.8625 212.414062)scale(0.1 -0.1)">
     <use xlink:href="#DejaVuSans-82"/>
     <use x="69.482422" xlink:href="#DejaVuSans-74"/>
     <use x="98.974609" xlink:href="#DejaVuSans-80"/>
     <use x="159.277344" xlink:href="#DejaVuSans-72"/>
     <use x="234.472656" xlink:href="#DejaVuSans-32"/>
     <use x="266.259766" xlink:href="#DejaVuSans-40"/>
     <use x="305.273438" xlink:href="#DejaVuSans-50"/>
     <use x="368.896484" xlink:href="#DejaVuSans-51"/>
     <use x="432.519531" xlink:href="#DejaVuSans-41"/>
    </g>
   </g>
   <g id="line2d_78">
    <path d="M 333.8625 223.592187 
L 353.8625 223.592187 
" style="fill:none;stroke:#e6ab02;stroke-dasharray:4.5,1.5;stroke-dashoffset:0;stroke-width:1.5;"/>
   </g>
   <g id="line2d_79"/>
   <g id="text_35">
    <!-- CB (22) -->
    <g transform="translate(361.8625 227.092187)scale(0.1 -0.1)">
     <use xlink:href="#DejaVuSans-67"/>
     <use x="69.824219" xlink:href="#DejaVuSans-66"/>
     <use x="138.427734" xlink:href="#DejaVuSans-32"/>
     <use x="170.214844" xlink:href="#DejaVuSans-40"/>
     <use x="209.228516" xlink:href="#DejaVuSans-50"/>
     <use x="272.851562" xlink:href="#DejaVuSans-50"/>
     <use x="336.474609" xlink:href="#DejaVuSans-41"/>
    </g>
   </g>
   <g id="line2d_80">
    <path d="M 333.8625 238.270312 
L 353.8625 238.270312 
" style="fill:none;stroke:#a6761d;stroke-dasharray:4.5,1.5;stroke-dashoffset:0;stroke-width:1.5;"/>
   </g>
   <g id="line2d_81"/>
   <g id="text_36">
    <!-- AHR-H (20) -->
    <g transform="translate(361.8625 241.770312)scale(0.1 -0.1)">
     <use xlink:href="#DejaVuSans-65"/>
     <use x="68.408203" xlink:href="#DejaVuSans-72"/>
     <use x="143.603516" xlink:href="#DejaVuSans-82"/>
     <use x="213.023438" xlink:href="#DejaVuSans-45"/>
     <use x="249.107422" xlink:href="#DejaVuSans-72"/>
     <use x="324.302734" xlink:href="#DejaVuSans-32"/>
     <use x="356.089844" xlink:href="#DejaVuSans-40"/>
     <use x="395.103516" xlink:href="#DejaVuSans-50"/>
     <use x="458.726562" xlink:href="#DejaVuSans-48"/>
     <use x="522.349609" xlink:href="#DejaVuSans-41"/>
    </g>
   </g>
   <g id="line2d_82">
    <path d="M 333.8625 252.948437 
L 353.8625 252.948437 
" style="fill:none;stroke:#666666;stroke-dasharray:4.5,1.5;stroke-dashoffset:0;stroke-width:1.5;"/>
   </g>
   <g id="line2d_83"/>
   <g id="text_37">
    <!-- AHR-A (17) -->
    <g transform="translate(361.8625 256.448437)scale(0.1 -0.1)">
     <use xlink:href="#DejaVuSans-65"/>
     <use x="68.408203" xlink:href="#DejaVuSans-72"/>
     <use x="143.603516" xlink:href="#DejaVuSans-82"/>
     <use x="213.023438" xlink:href="#DejaVuSans-45"/>
     <use x="249.076172" xlink:href="#DejaVuSans-65"/>
     <use x="317.484375" xlink:href="#DejaVuSans-32"/>
     <use x="349.271484" xlink:href="#DejaVuSans-40"/>
     <use x="388.285156" xlink:href="#DejaVuSans-49"/>
     <use x="451.908203" xlink:href="#DejaVuSans-55"/>
     <use x="515.53125" xlink:href="#DejaVuSans-41"/>
    </g>
   </g>
  </g>
 </g>
 <defs>
  <clipPath id="pdc3bba64a5">
   <rect height="207.330771" width="271.81" x="43.55" y="12.9"/>
  </clipPath>
 </defs>
</svg>
