<?xml version="1.0" encoding="utf-8" standalone="no"?>
<!DOCTYPE svg PUBLIC "-//W3C//DTD SVG 1.1//EN"
  "http://www.w3.org/Graphics/SVG/1.1/DTD/svg11.dtd">
<!-- Created with matplotlib (https://matplotlib.org/) -->
<svg height="288pt" version="1.1" viewBox="0 0 432 288" width="432pt" xmlns="http://www.w3.org/2000/svg" xmlns:xlink="http://www.w3.org/1999/xlink">
 <defs>
  <style type="text/css">
*{stroke-linecap:butt;stroke-linejoin:round;}
  </style>
 </defs>
 <g id="figure_1">
  <g id="patch_1">
   <path d="M 0 288 
L 432 288 
L 432 0 
L 0 0 
z
" style="fill:#ffffff;"/>
  </g>
  <g id="axes_1">
   <g id="patch_2">
    <path d="M 43.55 220.230771 
L 315.36 220.230771 
L 315.36 12.9 
L 43.55 12.9 
z
" style="fill:#ffffff;"/>
   </g>
   <g id="matplotlib.axis_1">
    <g id="xtick_1">
     <g id="line2d_1">
      <defs>
       <path d="M 0 0 
L 0 3.5 
" id="m9ef366cc10" style="stroke:#000000;stroke-width:0.8;"/>
      </defs>
      <g>
       <use style="stroke:#000000;stroke-width:0.8;" x="50.85517" xlink:href="#m9ef366cc10" y="220.230771"/>
      </g>
     </g>
     <g id="text_1">
      <!-- 2020-11-29 -->
      <defs>
       <path d="M 19.1875 8.296875 
L 53.609375 8.296875 
L 53.609375 0 
L 7.328125 0 
L 7.328125 8.296875 
Q 12.9375 14.109375 22.625 23.890625 
Q 32.328125 33.6875 34.8125 36.53125 
Q 39.546875 41.84375 41.421875 45.53125 
Q 43.3125 49.21875 43.3125 52.78125 
Q 43.3125 58.59375 39.234375 62.25 
Q 35.15625 65.921875 28.609375 65.921875 
Q 23.96875 65.921875 18.8125 64.3125 
Q 13.671875 62.703125 7.8125 59.421875 
L 7.8125 69.390625 
Q 13.765625 71.78125 18.9375 73 
Q 24.125 74.21875 28.421875 74.21875 
Q 39.75 74.21875 46.484375 68.546875 
Q 53.21875 62.890625 53.21875 53.421875 
Q 53.21875 48.921875 51.53125 44.890625 
Q 49.859375 40.875 45.40625 35.40625 
Q 44.1875 33.984375 37.640625 27.21875 
Q 31.109375 20.453125 19.1875 8.296875 
z
" id="DejaVuSans-50"/>
       <path d="M 31.78125 66.40625 
Q 24.171875 66.40625 20.328125 58.90625 
Q 16.5 51.421875 16.5 36.375 
Q 16.5 21.390625 20.328125 13.890625 
Q 24.171875 6.390625 31.78125 6.390625 
Q 39.453125 6.390625 43.28125 13.890625 
Q 47.125 21.390625 47.125 36.375 
Q 47.125 51.421875 43.28125 58.90625 
Q 39.453125 66.40625 31.78125 66.40625 
z
M 31.78125 74.21875 
Q 44.046875 74.21875 50.515625 64.515625 
Q 56.984375 54.828125 56.984375 36.375 
Q 56.984375 17.96875 50.515625 8.265625 
Q 44.046875 -1.421875 31.78125 -1.421875 
Q 19.53125 -1.421875 13.0625 8.265625 
Q 6.59375 17.96875 6.59375 36.375 
Q 6.59375 54.828125 13.0625 64.515625 
Q 19.53125 74.21875 31.78125 74.21875 
z
" id="DejaVuSans-48"/>
       <path d="M 4.890625 31.390625 
L 31.203125 31.390625 
L 31.203125 23.390625 
L 4.890625 23.390625 
z
" id="DejaVuSans-45"/>
       <path d="M 12.40625 8.296875 
L 28.515625 8.296875 
L 28.515625 63.921875 
L 10.984375 60.40625 
L 10.984375 69.390625 
L 28.421875 72.90625 
L 38.28125 72.90625 
L 38.28125 8.296875 
L 54.390625 8.296875 
L 54.390625 0 
L 12.40625 0 
z
" id="DejaVuSans-49"/>
       <path d="M 10.984375 1.515625 
L 10.984375 10.5 
Q 14.703125 8.734375 18.5 7.8125 
Q 22.3125 6.890625 25.984375 6.890625 
Q 35.75 6.890625 40.890625 13.453125 
Q 46.046875 20.015625 46.78125 33.40625 
Q 43.953125 29.203125 39.59375 26.953125 
Q 35.25 24.703125 29.984375 24.703125 
Q 19.046875 24.703125 12.671875 31.3125 
Q 6.296875 37.9375 6.296875 49.421875 
Q 6.296875 60.640625 12.9375 67.421875 
Q 19.578125 74.21875 30.609375 74.21875 
Q 43.265625 74.21875 49.921875 64.515625 
Q 56.59375 54.828125 56.59375 36.375 
Q 56.59375 19.140625 48.40625 8.859375 
Q 40.234375 -1.421875 26.421875 -1.421875 
Q 22.703125 -1.421875 18.890625 -0.6875 
Q 15.09375 0.046875 10.984375 1.515625 
z
M 30.609375 32.421875 
Q 37.25 32.421875 41.125 36.953125 
Q 45.015625 41.5 45.015625 49.421875 
Q 45.015625 57.28125 41.125 61.84375 
Q 37.25 66.40625 30.609375 66.40625 
Q 23.96875 66.40625 20.09375 61.84375 
Q 16.21875 57.28125 16.21875 49.421875 
Q 16.21875 41.5 20.09375 36.953125 
Q 23.96875 32.421875 30.609375 32.421875 
z
" id="DejaVuSans-57"/>
      </defs>
      <g transform="translate(27.070054 262.869024)rotate(-30)scale(0.1 -0.1)">
       <use xlink:href="#DejaVuSans-50"/>
       <use x="63.623047" xlink:href="#DejaVuSans-48"/>
       <use x="127.246094" xlink:href="#DejaVuSans-50"/>
       <use x="190.869141" xlink:href="#DejaVuSans-48"/>
       <use x="254.492188" xlink:href="#DejaVuSans-45"/>
       <use x="290.576172" xlink:href="#DejaVuSans-49"/>
       <use x="354.199219" xlink:href="#DejaVuSans-49"/>
       <use x="417.822266" xlink:href="#DejaVuSans-45"/>
       <use x="453.90625" xlink:href="#DejaVuSans-50"/>
       <use x="517.529297" xlink:href="#DejaVuSans-57"/>
      </g>
     </g>
    </g>
    <g id="xtick_2">
     <g id="line2d_2">
      <g>
       <use style="stroke:#000000;stroke-width:0.8;" x="57.829055" xlink:href="#m9ef366cc10" y="220.230771"/>
      </g>
     </g>
     <g id="text_2">
      <!-- 2020-12-01 -->
      <g transform="translate(34.043939 262.869024)rotate(-30)scale(0.1 -0.1)">
       <use xlink:href="#DejaVuSans-50"/>
       <use x="63.623047" xlink:href="#DejaVuSans-48"/>
       <use x="127.246094" xlink:href="#DejaVuSans-50"/>
       <use x="190.869141" xlink:href="#DejaVuSans-48"/>
       <use x="254.492188" xlink:href="#DejaVuSans-45"/>
       <use x="290.576172" xlink:href="#DejaVuSans-49"/>
       <use x="354.199219" xlink:href="#DejaVuSans-50"/>
       <use x="417.822266" xlink:href="#DejaVuSans-45"/>
       <use x="453.90625" xlink:href="#DejaVuSans-48"/>
       <use x="517.529297" xlink:href="#DejaVuSans-49"/>
      </g>
     </g>
    </g>
    <g id="xtick_3">
     <g id="line2d_3">
      <g>
       <use style="stroke:#000000;stroke-width:0.8;" x="106.646249" xlink:href="#m9ef366cc10" y="220.230771"/>
      </g>
     </g>
     <g id="text_3">
      <!-- 2020-12-15 -->
      <defs>
       <path d="M 10.796875 72.90625 
L 49.515625 72.90625 
L 49.515625 64.59375 
L 19.828125 64.59375 
L 19.828125 46.734375 
Q 21.96875 47.46875 24.109375 47.828125 
Q 26.265625 48.1875 28.421875 48.1875 
Q 40.625 48.1875 47.75 41.5 
Q 54.890625 34.8125 54.890625 23.390625 
Q 54.890625 11.625 47.5625 5.09375 
Q 40.234375 -1.421875 26.90625 -1.421875 
Q 22.3125 -1.421875 17.546875 -0.640625 
Q 12.796875 0.140625 7.71875 1.703125 
L 7.71875 11.625 
Q 12.109375 9.234375 16.796875 8.0625 
Q 21.484375 6.890625 26.703125 6.890625 
Q 35.15625 6.890625 40.078125 11.328125 
Q 45.015625 15.765625 45.015625 23.390625 
Q 45.015625 31 40.078125 35.4375 
Q 35.15625 39.890625 26.703125 39.890625 
Q 22.75 39.890625 18.8125 39.015625 
Q 14.890625 38.140625 10.796875 36.28125 
z
" id="DejaVuSans-53"/>
      </defs>
      <g transform="translate(82.861133 262.869024)rotate(-30)scale(0.1 -0.1)">
       <use xlink:href="#DejaVuSans-50"/>
       <use x="63.623047" xlink:href="#DejaVuSans-48"/>
       <use x="127.246094" xlink:href="#DejaVuSans-50"/>
       <use x="190.869141" xlink:href="#DejaVuSans-48"/>
       <use x="254.492188" xlink:href="#DejaVuSans-45"/>
       <use x="290.576172" xlink:href="#DejaVuSans-49"/>
       <use x="354.199219" xlink:href="#DejaVuSans-50"/>
       <use x="417.822266" xlink:href="#DejaVuSans-45"/>
       <use x="453.90625" xlink:href="#DejaVuSans-49"/>
       <use x="517.529297" xlink:href="#DejaVuSans-53"/>
      </g>
     </g>
    </g>
    <g id="xtick_4">
     <g id="line2d_4">
      <g>
       <use style="stroke:#000000;stroke-width:0.8;" x="155.463443" xlink:href="#m9ef366cc10" y="220.230771"/>
      </g>
     </g>
     <g id="text_4">
      <!-- 2020-12-29 -->
      <g transform="translate(131.678327 262.869024)rotate(-30)scale(0.1 -0.1)">
       <use xlink:href="#DejaVuSans-50"/>
       <use x="63.623047" xlink:href="#DejaVuSans-48"/>
       <use x="127.246094" xlink:href="#DejaVuSans-50"/>
       <use x="190.869141" xlink:href="#DejaVuSans-48"/>
       <use x="254.492188" xlink:href="#DejaVuSans-45"/>
       <use x="290.576172" xlink:href="#DejaVuSans-49"/>
       <use x="354.199219" xlink:href="#DejaVuSans-50"/>
       <use x="417.822266" xlink:href="#DejaVuSans-45"/>
       <use x="453.90625" xlink:href="#DejaVuSans-50"/>
       <use x="517.529297" xlink:href="#DejaVuSans-57"/>
      </g>
     </g>
    </g>
    <g id="xtick_5">
     <g id="line2d_5">
      <g>
       <use style="stroke:#000000;stroke-width:0.8;" x="165.924271" xlink:href="#m9ef366cc10" y="220.230771"/>
      </g>
     </g>
     <g id="text_5">
      <!-- 2021-01-01 -->
      <g transform="translate(142.139154 262.869024)rotate(-30)scale(0.1 -0.1)">
       <use xlink:href="#DejaVuSans-50"/>
       <use x="63.623047" xlink:href="#DejaVuSans-48"/>
       <use x="127.246094" xlink:href="#DejaVuSans-50"/>
       <use x="190.869141" xlink:href="#DejaVuSans-49"/>
       <use x="254.492188" xlink:href="#DejaVuSans-45"/>
       <use x="290.576172" xlink:href="#DejaVuSans-48"/>
       <use x="354.199219" xlink:href="#DejaVuSans-49"/>
       <use x="417.822266" xlink:href="#DejaVuSans-45"/>
       <use x="453.90625" xlink:href="#DejaVuSans-48"/>
       <use x="517.529297" xlink:href="#DejaVuSans-49"/>
      </g>
     </g>
    </g>
    <g id="xtick_6">
     <g id="line2d_6">
      <g>
       <use style="stroke:#000000;stroke-width:0.8;" x="214.741465" xlink:href="#m9ef366cc10" y="220.230771"/>
      </g>
     </g>
     <g id="text_6">
      <!-- 2021-01-15 -->
      <g transform="translate(190.956348 262.869024)rotate(-30)scale(0.1 -0.1)">
       <use xlink:href="#DejaVuSans-50"/>
       <use x="63.623047" xlink:href="#DejaVuSans-48"/>
       <use x="127.246094" xlink:href="#DejaVuSans-50"/>
       <use x="190.869141" xlink:href="#DejaVuSans-49"/>
       <use x="254.492188" xlink:href="#DejaVuSans-45"/>
       <use x="290.576172" xlink:href="#DejaVuSans-48"/>
       <use x="354.199219" xlink:href="#DejaVuSans-49"/>
       <use x="417.822266" xlink:href="#DejaVuSans-45"/>
       <use x="453.90625" xlink:href="#DejaVuSans-49"/>
       <use x="517.529297" xlink:href="#DejaVuSans-53"/>
      </g>
     </g>
    </g>
    <g id="xtick_7">
     <g id="line2d_7">
      <g>
       <use style="stroke:#000000;stroke-width:0.8;" x="263.558659" xlink:href="#m9ef366cc10" y="220.230771"/>
      </g>
     </g>
     <g id="text_7">
      <!-- 2021-01-29 -->
      <g transform="translate(239.773543 262.869024)rotate(-30)scale(0.1 -0.1)">
       <use xlink:href="#DejaVuSans-50"/>
       <use x="63.623047" xlink:href="#DejaVuSans-48"/>
       <use x="127.246094" xlink:href="#DejaVuSans-50"/>
       <use x="190.869141" xlink:href="#DejaVuSans-49"/>
       <use x="254.492188" xlink:href="#DejaVuSans-45"/>
       <use x="290.576172" xlink:href="#DejaVuSans-48"/>
       <use x="354.199219" xlink:href="#DejaVuSans-49"/>
       <use x="417.822266" xlink:href="#DejaVuSans-45"/>
       <use x="453.90625" xlink:href="#DejaVuSans-50"/>
       <use x="517.529297" xlink:href="#DejaVuSans-57"/>
      </g>
     </g>
    </g>
    <g id="xtick_8">
     <g id="line2d_8">
      <g>
       <use style="stroke:#000000;stroke-width:0.8;" x="274.019486" xlink:href="#m9ef366cc10" y="220.230771"/>
      </g>
     </g>
     <g id="text_8">
      <!-- 2021-02-01 -->
      <g transform="translate(250.23437 262.869024)rotate(-30)scale(0.1 -0.1)">
       <use xlink:href="#DejaVuSans-50"/>
       <use x="63.623047" xlink:href="#DejaVuSans-48"/>
       <use x="127.246094" xlink:href="#DejaVuSans-50"/>
       <use x="190.869141" xlink:href="#DejaVuSans-49"/>
       <use x="254.492188" xlink:href="#DejaVuSans-45"/>
       <use x="290.576172" xlink:href="#DejaVuSans-48"/>
       <use x="354.199219" xlink:href="#DejaVuSans-50"/>
       <use x="417.822266" xlink:href="#DejaVuSans-45"/>
       <use x="453.90625" xlink:href="#DejaVuSans-48"/>
       <use x="517.529297" xlink:href="#DejaVuSans-49"/>
      </g>
     </g>
    </g>
    <g id="text_9">
     <!-- Date -->
     <defs>
      <path d="M 19.671875 64.796875 
L 19.671875 8.109375 
L 31.59375 8.109375 
Q 46.6875 8.109375 53.6875 14.9375 
Q 60.6875 21.78125 60.6875 36.53125 
Q 60.6875 51.171875 53.6875 57.984375 
Q 46.6875 64.796875 31.59375 64.796875 
z
M 9.8125 72.90625 
L 30.078125 72.90625 
Q 51.265625 72.90625 61.171875 64.09375 
Q 71.09375 55.28125 71.09375 36.53125 
Q 71.09375 17.671875 61.125 8.828125 
Q 51.171875 0 30.078125 0 
L 9.8125 0 
z
" id="DejaVuSans-68"/>
      <path d="M 34.28125 27.484375 
Q 23.390625 27.484375 19.1875 25 
Q 14.984375 22.515625 14.984375 16.5 
Q 14.984375 11.71875 18.140625 8.90625 
Q 21.296875 6.109375 26.703125 6.109375 
Q 34.1875 6.109375 38.703125 11.40625 
Q 43.21875 16.703125 43.21875 25.484375 
L 43.21875 27.484375 
z
M 52.203125 31.203125 
L 52.203125 0 
L 43.21875 0 
L 43.21875 8.296875 
Q 40.140625 3.328125 35.546875 0.953125 
Q 30.953125 -1.421875 24.3125 -1.421875 
Q 15.921875 -1.421875 10.953125 3.296875 
Q 6 8.015625 6 15.921875 
Q 6 25.140625 12.171875 29.828125 
Q 18.359375 34.515625 30.609375 34.515625 
L 43.21875 34.515625 
L 43.21875 35.40625 
Q 43.21875 41.609375 39.140625 45 
Q 35.0625 48.390625 27.6875 48.390625 
Q 23 48.390625 18.546875 47.265625 
Q 14.109375 46.140625 10.015625 43.890625 
L 10.015625 52.203125 
Q 14.9375 54.109375 19.578125 55.046875 
Q 24.21875 56 28.609375 56 
Q 40.484375 56 46.34375 49.84375 
Q 52.203125 43.703125 52.203125 31.203125 
z
" id="DejaVuSans-97"/>
      <path d="M 18.3125 70.21875 
L 18.3125 54.6875 
L 36.8125 54.6875 
L 36.8125 47.703125 
L 18.3125 47.703125 
L 18.3125 18.015625 
Q 18.3125 11.328125 20.140625 9.421875 
Q 21.96875 7.515625 27.59375 7.515625 
L 36.8125 7.515625 
L 36.8125 0 
L 27.59375 0 
Q 17.1875 0 13.234375 3.875 
Q 9.28125 7.765625 9.28125 18.015625 
L 9.28125 47.703125 
L 2.6875 47.703125 
L 2.6875 54.6875 
L 9.28125 54.6875 
L 9.28125 70.21875 
z
" id="DejaVuSans-116"/>
      <path d="M 56.203125 29.59375 
L 56.203125 25.203125 
L 14.890625 25.203125 
Q 15.484375 15.921875 20.484375 11.0625 
Q 25.484375 6.203125 34.421875 6.203125 
Q 39.59375 6.203125 44.453125 7.46875 
Q 49.3125 8.734375 54.109375 11.28125 
L 54.109375 2.78125 
Q 49.265625 0.734375 44.1875 -0.34375 
Q 39.109375 -1.421875 33.890625 -1.421875 
Q 20.796875 -1.421875 13.15625 6.1875 
Q 5.515625 13.8125 5.515625 26.8125 
Q 5.515625 40.234375 12.765625 48.109375 
Q 20.015625 56 32.328125 56 
Q 43.359375 56 49.78125 48.890625 
Q 56.203125 41.796875 56.203125 29.59375 
z
M 47.21875 32.234375 
Q 47.125 39.59375 43.09375 43.984375 
Q 39.0625 48.390625 32.421875 48.390625 
Q 24.90625 48.390625 20.390625 44.140625 
Q 15.875 39.890625 15.1875 32.171875 
z
" id="DejaVuSans-101"/>
     </defs>
     <g transform="translate(167.504219 276.268523)scale(0.1 -0.1)">
      <use xlink:href="#DejaVuSans-68"/>
      <use x="77.001953" xlink:href="#DejaVuSans-97"/>
      <use x="138.28125" xlink:href="#DejaVuSans-116"/>
      <use x="177.490234" xlink:href="#DejaVuSans-101"/>
     </g>
    </g>
   </g>
   <g id="matplotlib.axis_2">
    <g id="ytick_1">
     <g id="line2d_9">
      <defs>
       <path d="M 0 0 
L -3.5 0 
" id="m8a40d05623" style="stroke:#000000;stroke-width:0.8;"/>
      </defs>
      <g>
       <use style="stroke:#000000;stroke-width:0.8;" x="43.55" xlink:href="#m8a40d05623" y="210.806645"/>
      </g>
     </g>
     <g id="text_10">
      <!-- 0 -->
      <g transform="translate(30.1875 214.605864)scale(0.1 -0.1)">
       <use xlink:href="#DejaVuSans-48"/>
      </g>
     </g>
    </g>
    <g id="ytick_2">
     <g id="line2d_10">
      <g>
       <use style="stroke:#000000;stroke-width:0.8;" x="43.55" xlink:href="#m8a40d05623" y="187.24633"/>
      </g>
     </g>
     <g id="text_11">
      <!-- 5 -->
      <g transform="translate(30.1875 191.045549)scale(0.1 -0.1)">
       <use xlink:href="#DejaVuSans-53"/>
      </g>
     </g>
    </g>
    <g id="ytick_3">
     <g id="line2d_11">
      <g>
       <use style="stroke:#000000;stroke-width:0.8;" x="43.55" xlink:href="#m8a40d05623" y="163.686016"/>
      </g>
     </g>
     <g id="text_12">
      <!-- 10 -->
      <g transform="translate(23.825 167.485234)scale(0.1 -0.1)">
       <use xlink:href="#DejaVuSans-49"/>
       <use x="63.623047" xlink:href="#DejaVuSans-48"/>
      </g>
     </g>
    </g>
    <g id="ytick_4">
     <g id="line2d_12">
      <g>
       <use style="stroke:#000000;stroke-width:0.8;" x="43.55" xlink:href="#m8a40d05623" y="140.125701"/>
      </g>
     </g>
     <g id="text_13">
      <!-- 15 -->
      <g transform="translate(23.825 143.924919)scale(0.1 -0.1)">
       <use xlink:href="#DejaVuSans-49"/>
       <use x="63.623047" xlink:href="#DejaVuSans-53"/>
      </g>
     </g>
    </g>
    <g id="ytick_5">
     <g id="line2d_13">
      <g>
       <use style="stroke:#000000;stroke-width:0.8;" x="43.55" xlink:href="#m8a40d05623" y="116.565386"/>
      </g>
     </g>
     <g id="text_14">
      <!-- 20 -->
      <g transform="translate(23.825 120.364604)scale(0.1 -0.1)">
       <use xlink:href="#DejaVuSans-50"/>
       <use x="63.623047" xlink:href="#DejaVuSans-48"/>
      </g>
     </g>
    </g>
    <g id="ytick_6">
     <g id="line2d_14">
      <g>
       <use style="stroke:#000000;stroke-width:0.8;" x="43.55" xlink:href="#m8a40d05623" y="93.005071"/>
      </g>
     </g>
     <g id="text_15">
      <!-- 25 -->
      <g transform="translate(23.825 96.80429)scale(0.1 -0.1)">
       <use xlink:href="#DejaVuSans-50"/>
       <use x="63.623047" xlink:href="#DejaVuSans-53"/>
      </g>
     </g>
    </g>
    <g id="ytick_7">
     <g id="line2d_15">
      <g>
       <use style="stroke:#000000;stroke-width:0.8;" x="43.55" xlink:href="#m8a40d05623" y="69.444756"/>
      </g>
     </g>
     <g id="text_16">
      <!-- 30 -->
      <defs>
       <path d="M 40.578125 39.3125 
Q 47.65625 37.796875 51.625 33 
Q 55.609375 28.21875 55.609375 21.1875 
Q 55.609375 10.40625 48.1875 4.484375 
Q 40.765625 -1.421875 27.09375 -1.421875 
Q 22.515625 -1.421875 17.65625 -0.515625 
Q 12.796875 0.390625 7.625 2.203125 
L 7.625 11.71875 
Q 11.71875 9.328125 16.59375 8.109375 
Q 21.484375 6.890625 26.8125 6.890625 
Q 36.078125 6.890625 40.9375 10.546875 
Q 45.796875 14.203125 45.796875 21.1875 
Q 45.796875 27.640625 41.28125 31.265625 
Q 36.765625 34.90625 28.71875 34.90625 
L 20.21875 34.90625 
L 20.21875 43.015625 
L 29.109375 43.015625 
Q 36.375 43.015625 40.234375 45.921875 
Q 44.09375 48.828125 44.09375 54.296875 
Q 44.09375 59.90625 40.109375 62.90625 
Q 36.140625 65.921875 28.71875 65.921875 
Q 24.65625 65.921875 20.015625 65.03125 
Q 15.375 64.15625 9.8125 62.3125 
L 9.8125 71.09375 
Q 15.4375 72.65625 20.34375 73.4375 
Q 25.25 74.21875 29.59375 74.21875 
Q 40.828125 74.21875 47.359375 69.109375 
Q 53.90625 64.015625 53.90625 55.328125 
Q 53.90625 49.265625 50.4375 45.09375 
Q 46.96875 40.921875 40.578125 39.3125 
z
" id="DejaVuSans-51"/>
      </defs>
      <g transform="translate(23.825 73.243975)scale(0.1 -0.1)">
       <use xlink:href="#DejaVuSans-51"/>
       <use x="63.623047" xlink:href="#DejaVuSans-48"/>
      </g>
     </g>
    </g>
    <g id="ytick_8">
     <g id="line2d_16">
      <g>
       <use style="stroke:#000000;stroke-width:0.8;" x="43.55" xlink:href="#m8a40d05623" y="45.884441"/>
      </g>
     </g>
     <g id="text_17">
      <!-- 35 -->
      <g transform="translate(23.825 49.68366)scale(0.1 -0.1)">
       <use xlink:href="#DejaVuSans-51"/>
       <use x="63.623047" xlink:href="#DejaVuSans-53"/>
      </g>
     </g>
    </g>
    <g id="ytick_9">
     <g id="line2d_17">
      <g>
       <use style="stroke:#000000;stroke-width:0.8;" x="43.55" xlink:href="#m8a40d05623" y="22.324126"/>
      </g>
     </g>
     <g id="text_18">
      <!-- 40 -->
      <defs>
       <path d="M 37.796875 64.3125 
L 12.890625 25.390625 
L 37.796875 25.390625 
z
M 35.203125 72.90625 
L 47.609375 72.90625 
L 47.609375 25.390625 
L 58.015625 25.390625 
L 58.015625 17.1875 
L 47.609375 17.1875 
L 47.609375 0 
L 37.796875 0 
L 37.796875 17.1875 
L 4.890625 17.1875 
L 4.890625 26.703125 
z
" id="DejaVuSans-52"/>
      </defs>
      <g transform="translate(23.825 26.123345)scale(0.1 -0.1)">
       <use xlink:href="#DejaVuSans-52"/>
       <use x="63.623047" xlink:href="#DejaVuSans-48"/>
      </g>
     </g>
    </g>
    <g id="text_19">
     <!-- Students Registered -->
     <defs>
      <path d="M 53.515625 70.515625 
L 53.515625 60.890625 
Q 47.90625 63.578125 42.921875 64.890625 
Q 37.9375 66.21875 33.296875 66.21875 
Q 25.25 66.21875 20.875 63.09375 
Q 16.5 59.96875 16.5 54.203125 
Q 16.5 49.359375 19.40625 46.890625 
Q 22.3125 44.4375 30.421875 42.921875 
L 36.375 41.703125 
Q 47.40625 39.59375 52.65625 34.296875 
Q 57.90625 29 57.90625 20.125 
Q 57.90625 9.515625 50.796875 4.046875 
Q 43.703125 -1.421875 29.984375 -1.421875 
Q 24.8125 -1.421875 18.96875 -0.25 
Q 13.140625 0.921875 6.890625 3.21875 
L 6.890625 13.375 
Q 12.890625 10.015625 18.65625 8.296875 
Q 24.421875 6.59375 29.984375 6.59375 
Q 38.421875 6.59375 43.015625 9.90625 
Q 47.609375 13.234375 47.609375 19.390625 
Q 47.609375 24.75 44.3125 27.78125 
Q 41.015625 30.8125 33.5 32.328125 
L 27.484375 33.5 
Q 16.453125 35.6875 11.515625 40.375 
Q 6.59375 45.0625 6.59375 53.421875 
Q 6.59375 63.09375 13.40625 68.65625 
Q 20.21875 74.21875 32.171875 74.21875 
Q 37.3125 74.21875 42.625 73.28125 
Q 47.953125 72.359375 53.515625 70.515625 
z
" id="DejaVuSans-83"/>
      <path d="M 8.5 21.578125 
L 8.5 54.6875 
L 17.484375 54.6875 
L 17.484375 21.921875 
Q 17.484375 14.15625 20.5 10.265625 
Q 23.53125 6.390625 29.59375 6.390625 
Q 36.859375 6.390625 41.078125 11.03125 
Q 45.3125 15.671875 45.3125 23.6875 
L 45.3125 54.6875 
L 54.296875 54.6875 
L 54.296875 0 
L 45.3125 0 
L 45.3125 8.40625 
Q 42.046875 3.421875 37.71875 1 
Q 33.40625 -1.421875 27.6875 -1.421875 
Q 18.265625 -1.421875 13.375 4.4375 
Q 8.5 10.296875 8.5 21.578125 
z
M 31.109375 56 
z
" id="DejaVuSans-117"/>
      <path d="M 45.40625 46.390625 
L 45.40625 75.984375 
L 54.390625 75.984375 
L 54.390625 0 
L 45.40625 0 
L 45.40625 8.203125 
Q 42.578125 3.328125 38.25 0.953125 
Q 33.9375 -1.421875 27.875 -1.421875 
Q 17.96875 -1.421875 11.734375 6.484375 
Q 5.515625 14.40625 5.515625 27.296875 
Q 5.515625 40.1875 11.734375 48.09375 
Q 17.96875 56 27.875 56 
Q 33.9375 56 38.25 53.625 
Q 42.578125 51.265625 45.40625 46.390625 
z
M 14.796875 27.296875 
Q 14.796875 17.390625 18.875 11.75 
Q 22.953125 6.109375 30.078125 6.109375 
Q 37.203125 6.109375 41.296875 11.75 
Q 45.40625 17.390625 45.40625 27.296875 
Q 45.40625 37.203125 41.296875 42.84375 
Q 37.203125 48.484375 30.078125 48.484375 
Q 22.953125 48.484375 18.875 42.84375 
Q 14.796875 37.203125 14.796875 27.296875 
z
" id="DejaVuSans-100"/>
      <path d="M 54.890625 33.015625 
L 54.890625 0 
L 45.90625 0 
L 45.90625 32.71875 
Q 45.90625 40.484375 42.875 44.328125 
Q 39.84375 48.1875 33.796875 48.1875 
Q 26.515625 48.1875 22.3125 43.546875 
Q 18.109375 38.921875 18.109375 30.90625 
L 18.109375 0 
L 9.078125 0 
L 9.078125 54.6875 
L 18.109375 54.6875 
L 18.109375 46.1875 
Q 21.34375 51.125 25.703125 53.5625 
Q 30.078125 56 35.796875 56 
Q 45.21875 56 50.046875 50.171875 
Q 54.890625 44.34375 54.890625 33.015625 
z
" id="DejaVuSans-110"/>
      <path d="M 44.28125 53.078125 
L 44.28125 44.578125 
Q 40.484375 46.53125 36.375 47.5 
Q 32.28125 48.484375 27.875 48.484375 
Q 21.1875 48.484375 17.84375 46.4375 
Q 14.5 44.390625 14.5 40.28125 
Q 14.5 37.15625 16.890625 35.375 
Q 19.28125 33.59375 26.515625 31.984375 
L 29.59375 31.296875 
Q 39.15625 29.25 43.1875 25.515625 
Q 47.21875 21.78125 47.21875 15.09375 
Q 47.21875 7.46875 41.1875 3.015625 
Q 35.15625 -1.421875 24.609375 -1.421875 
Q 20.21875 -1.421875 15.453125 -0.5625 
Q 10.6875 0.296875 5.421875 2 
L 5.421875 11.28125 
Q 10.40625 8.6875 15.234375 7.390625 
Q 20.0625 6.109375 24.8125 6.109375 
Q 31.15625 6.109375 34.5625 8.28125 
Q 37.984375 10.453125 37.984375 14.40625 
Q 37.984375 18.0625 35.515625 20.015625 
Q 33.0625 21.96875 24.703125 23.78125 
L 21.578125 24.515625 
Q 13.234375 26.265625 9.515625 29.90625 
Q 5.8125 33.546875 5.8125 39.890625 
Q 5.8125 47.609375 11.28125 51.796875 
Q 16.75 56 26.8125 56 
Q 31.78125 56 36.171875 55.265625 
Q 40.578125 54.546875 44.28125 53.078125 
z
" id="DejaVuSans-115"/>
      <path id="DejaVuSans-32"/>
      <path d="M 44.390625 34.1875 
Q 47.5625 33.109375 50.5625 29.59375 
Q 53.5625 26.078125 56.59375 19.921875 
L 66.609375 0 
L 56 0 
L 46.6875 18.703125 
Q 43.0625 26.03125 39.671875 28.421875 
Q 36.28125 30.8125 30.421875 30.8125 
L 19.671875 30.8125 
L 19.671875 0 
L 9.8125 0 
L 9.8125 72.90625 
L 32.078125 72.90625 
Q 44.578125 72.90625 50.734375 67.671875 
Q 56.890625 62.453125 56.890625 51.90625 
Q 56.890625 45.015625 53.6875 40.46875 
Q 50.484375 35.9375 44.390625 34.1875 
z
M 19.671875 64.796875 
L 19.671875 38.921875 
L 32.078125 38.921875 
Q 39.203125 38.921875 42.84375 42.21875 
Q 46.484375 45.515625 46.484375 51.90625 
Q 46.484375 58.296875 42.84375 61.546875 
Q 39.203125 64.796875 32.078125 64.796875 
z
" id="DejaVuSans-82"/>
      <path d="M 45.40625 27.984375 
Q 45.40625 37.75 41.375 43.109375 
Q 37.359375 48.484375 30.078125 48.484375 
Q 22.859375 48.484375 18.828125 43.109375 
Q 14.796875 37.75 14.796875 27.984375 
Q 14.796875 18.265625 18.828125 12.890625 
Q 22.859375 7.515625 30.078125 7.515625 
Q 37.359375 7.515625 41.375 12.890625 
Q 45.40625 18.265625 45.40625 27.984375 
z
M 54.390625 6.78125 
Q 54.390625 -7.171875 48.1875 -13.984375 
Q 42 -20.796875 29.203125 -20.796875 
Q 24.46875 -20.796875 20.265625 -20.09375 
Q 16.0625 -19.390625 12.109375 -17.921875 
L 12.109375 -9.1875 
Q 16.0625 -11.328125 19.921875 -12.34375 
Q 23.78125 -13.375 27.78125 -13.375 
Q 36.625 -13.375 41.015625 -8.765625 
Q 45.40625 -4.15625 45.40625 5.171875 
L 45.40625 9.625 
Q 42.625 4.78125 38.28125 2.390625 
Q 33.9375 0 27.875 0 
Q 17.828125 0 11.671875 7.65625 
Q 5.515625 15.328125 5.515625 27.984375 
Q 5.515625 40.671875 11.671875 48.328125 
Q 17.828125 56 27.875 56 
Q 33.9375 56 38.28125 53.609375 
Q 42.625 51.21875 45.40625 46.390625 
L 45.40625 54.6875 
L 54.390625 54.6875 
z
" id="DejaVuSans-103"/>
      <path d="M 9.421875 54.6875 
L 18.40625 54.6875 
L 18.40625 0 
L 9.421875 0 
z
M 9.421875 75.984375 
L 18.40625 75.984375 
L 18.40625 64.59375 
L 9.421875 64.59375 
z
" id="DejaVuSans-105"/>
      <path d="M 41.109375 46.296875 
Q 39.59375 47.171875 37.8125 47.578125 
Q 36.03125 48 33.890625 48 
Q 26.265625 48 22.1875 43.046875 
Q 18.109375 38.09375 18.109375 28.8125 
L 18.109375 0 
L 9.078125 0 
L 9.078125 54.6875 
L 18.109375 54.6875 
L 18.109375 46.1875 
Q 20.953125 51.171875 25.484375 53.578125 
Q 30.03125 56 36.53125 56 
Q 37.453125 56 38.578125 55.875 
Q 39.703125 55.765625 41.0625 55.515625 
z
" id="DejaVuSans-114"/>
     </defs>
     <g transform="translate(17.745313 167.498979)rotate(-90)scale(0.1 -0.1)">
      <use xlink:href="#DejaVuSans-83"/>
      <use x="63.476562" xlink:href="#DejaVuSans-116"/>
      <use x="102.685547" xlink:href="#DejaVuSans-117"/>
      <use x="166.064453" xlink:href="#DejaVuSans-100"/>
      <use x="229.541016" xlink:href="#DejaVuSans-101"/>
      <use x="291.064453" xlink:href="#DejaVuSans-110"/>
      <use x="354.443359" xlink:href="#DejaVuSans-116"/>
      <use x="393.652344" xlink:href="#DejaVuSans-115"/>
      <use x="445.751953" xlink:href="#DejaVuSans-32"/>
      <use x="477.539062" xlink:href="#DejaVuSans-82"/>
      <use x="546.958984" xlink:href="#DejaVuSans-101"/>
      <use x="608.482422" xlink:href="#DejaVuSans-103"/>
      <use x="671.958984" xlink:href="#DejaVuSans-105"/>
      <use x="699.742188" xlink:href="#DejaVuSans-115"/>
      <use x="751.841797" xlink:href="#DejaVuSans-116"/>
      <use x="791.050781" xlink:href="#DejaVuSans-101"/>
      <use x="852.574219" xlink:href="#DejaVuSans-114"/>
      <use x="893.65625" xlink:href="#DejaVuSans-101"/>
      <use x="955.179688" xlink:href="#DejaVuSans-100"/>
     </g>
    </g>
   </g>
   <g id="line2d_18">
    <path clip-path="url(#pc03840a4ae)" d="M 55.905 201.382519 
L 60.081314 201.382519 
L 60.081314 196.670456 
L 60.190304 196.670456 
L 62.841833 196.670456 
L 62.841833 191.958393 
L 62.950791 191.958393 
L 63.422976 191.958393 
L 63.422976 187.24633 
L 63.531926 187.24633 
L 66.474033 187.24633 
L 66.474033 177.822204 
L 66.583019 177.822204 
L 66.76463 177.822204 
L 66.76463 173.110142 
L 66.873603 173.110142 
L 67.055212 173.110142 
L 67.055212 168.398079 
L 67.164167 168.398079 
L 67.200497 168.398079 
L 67.200497 163.686016 
L 67.309478 163.686016 
L 70.54216 163.686016 
L 70.54216 158.973953 
L 70.651132 158.973953 
L 73.883811 158.973953 
L 73.883811 154.26189 
L 73.992774 154.26189 
L 80.276552 154.26189 
L 80.276552 144.837764 
L 80.385511 144.837764 
L 80.567125 144.837764 
L 80.567125 140.125701 
L 80.676084 140.125701 
L 81.293569 140.125701 
L 81.293569 135.413638 
L 81.402517 135.413638 
L 83.618182 135.413638 
L 83.618182 130.701575 
L 83.727145 130.701575 
L 84.344639 130.701575 
L 84.344639 125.989512 
L 84.453603 125.989512 
L 84.489929 125.989512 
L 84.489929 121.277449 
L 84.598895 121.277449 
L 84.635217 121.277449 
L 84.671534 107.14126 
L 84.744181 107.14126 
L 87.105115 107.14126 
L 87.105115 102.429197 
L 87.21408 102.429197 
L 87.250401 102.429197 
L 87.250401 93.005071 
L 87.359366 93.005071 
L 87.395689 93.005071 
L 87.395689 88.293008 
L 87.504663 88.293008 
L 87.540993 88.293008 
L 87.577313 74.156819 
L 87.649959 74.156819 
L 87.831566 74.156819 
L 87.831566 60.02063 
L 87.940551 60.02063 
L 87.976874 60.02063 
L 87.976874 50.596504 
L 88.085811 50.596504 
L 88.122142 50.596504 
L 88.122142 31.748252 
L 88.23113 31.748252 
L 88.267451 31.748252 
L 88.267451 27.036189 
L 88.376998 27.036189 
L 88.993903 27.036189 
L 88.993903 22.324126 
L 89.102874 22.324126 
L 128.94846 22.324126 
L 128.94846 27.036189 
L 129.057409 27.036189 
L 129.093748 27.036189 
L 129.093748 22.324126 
L 129.202713 22.324126 
L 129.384311 22.324126 
L 129.384311 27.036189 
L 129.493301 27.036189 
L 129.820162 27.036189 
L 129.820162 31.748252 
L 129.92916 31.748252 
L 130.110776 31.748252 
L 130.110776 36.460315 
L 130.219744 36.460315 
L 134.033558 36.460315 
L 134.033558 41.172378 
L 134.142544 41.172378 
L 142.605641 41.172378 
L 142.605641 36.460315 
L 142.714612 36.460315 
L 158.732729 36.460315 
L 158.732729 41.172378 
L 158.84171 41.172378 
L 164.399025 41.172378 
L 164.399025 36.460315 
L 164.507969 36.460315 
L 182.124337 36.460315 
L 182.124337 31.748252 
L 182.2333 31.748252 
L 184.448928 31.748252 
L 184.448928 27.036189 
L 184.557911 27.036189 
L 188.517046 27.036189 
L 188.517046 22.324126 
L 209.438709 22.324126 
L 209.438709 31.748252 
L 209.547652 31.748252 
L 209.874541 31.748252 
L 209.874541 36.460315 
L 209.983512 36.460315 
L 235.154895 36.460315 
L 235.154895 41.172378 
L 235.263865 41.172378 
L 240.385315 41.172378 
L 240.385315 36.460315 
L 240.494287 36.460315 
L 243.872266 36.460315 
L 243.872266 31.748252 
L 243.981228 31.748252 
L 244.889256 31.748252 
L 244.889256 27.036189 
L 244.998251 27.036189 
L 254.768962 27.036189 
L 254.768962 22.324126 
L 254.879224 22.324126 
L 273.656537 22.324126 
L 273.656537 27.036189 
L 273.765524 27.036189 
L 290.074226 27.036189 
L 290.074226 22.324126 
L 290.183193 22.324126 
L 303.005 22.324126 
L 303.005 22.324126 
" style="fill:none;stroke:#1b9e77;stroke-linecap:square;stroke-width:1.5;"/>
   </g>
   <g id="line2d_19">
    <path clip-path="url(#pc03840a4ae)" d="M 55.905 210.806645 
L 56.05808 210.806645 
L 56.05808 201.382519 
L 56.168179 201.382519 
L 56.739676 201.382519 
L 56.739676 196.670456 
L 56.809872 196.670456 
L 60.081314 196.670456 
L 60.081314 191.958393 
L 60.190304 191.958393 
L 62.841833 191.958393 
L 62.841833 177.822204 
L 62.950791 177.822204 
L 62.987108 177.822204 
L 62.987108 173.110142 
L 63.096073 173.110142 
L 63.132397 173.110142 
L 63.132397 154.26189 
L 63.24153 154.26189 
L 63.277685 154.26189 
L 63.277685 149.549827 
L 63.38667 149.549827 
L 63.422976 149.549827 
L 63.422976 140.125701 
L 63.531926 140.125701 
L 63.568287 140.125701 
L 63.568287 125.989512 
L 63.67724 125.989512 
L 66.183478 125.989512 
L 66.183478 121.277449 
L 66.292426 121.277449 
L 66.328751 121.277449 
L 66.328751 116.565386 
L 66.437715 116.565386 
L 66.76463 116.565386 
L 66.76463 111.853323 
L 66.873603 111.853323 
L 67.055212 111.853323 
L 67.055212 97.717134 
L 67.164167 97.717134 
L 67.200497 97.717134 
L 67.200497 93.005071 
L 67.309478 93.005071 
L 70.106277 93.005071 
L 70.106277 88.293008 
L 70.215272 88.293008 
L 70.251561 88.293008 
L 70.251561 83.580945 
L 70.36056 83.580945 
L 70.54216 83.580945 
L 70.54216 78.868882 
L 70.651132 78.868882 
L 70.978019 78.868882 
L 70.978019 74.156819 
L 71.086993 74.156819 
L 73.447957 74.156819 
L 73.447957 69.444756 
L 73.556923 69.444756 
L 80.276552 69.444756 
L 80.276552 45.884441 
L 80.385511 45.884441 
L 80.421827 45.884441 
L 80.421827 36.460315 
L 80.53081 36.460315 
L 80.567125 36.460315 
L 80.567125 31.748252 
L 80.676084 31.748252 
L 129.529588 31.748252 
L 129.529588 36.460315 
L 129.638558 36.460315 
L 129.674872 36.460315 
L 129.674872 31.748252 
L 129.783839 31.748252 
L 137.520492 31.748252 
L 137.520492 36.460315 
L 137.629472 36.460315 
L 137.665791 36.460315 
L 137.665791 31.748252 
L 137.774777 31.748252 
L 209.438709 31.748252 
L 209.438709 22.324126 
L 209.547652 22.324126 
L 303.005 22.324126 
L 303.005 22.324126 
" style="fill:none;stroke:#d95f02;stroke-linecap:square;stroke-width:1.5;"/>
   </g>
   <g id="line2d_20">
    <path clip-path="url(#pc03840a4ae)" d="M 86.233408 196.670456 
L 86.959822 196.670456 
L 86.959822 182.534267 
L 87.068789 182.534267 
L 87.105115 182.534267 
L 87.105115 177.822204 
L 87.21408 177.822204 
L 87.250401 177.822204 
L 87.250401 158.973953 
L 87.359366 158.973953 
L 87.540993 158.973953 
L 87.540993 144.837764 
L 87.649959 144.837764 
L 87.831566 144.837764 
L 87.831566 116.565386 
L 87.940551 116.565386 
L 88.122142 116.565386 
L 88.122142 107.14126 
L 88.23113 107.14126 
L 88.267451 107.14126 
L 88.267451 102.429197 
L 88.376998 102.429197 
L 88.412727 102.429197 
L 88.412727 97.717134 
L 88.521683 97.717134 
L 88.70333 97.717134 
L 88.70333 93.005071 
L 88.812271 93.005071 
L 90.737347 93.005071 
L 90.737347 74.156819 
L 90.846344 74.156819 
L 91.027936 74.156819 
L 91.027936 69.444756 
L 91.136903 69.444756 
L 91.318536 69.444756 
L 91.318536 60.02063 
L 91.427496 60.02063 
L 91.463826 60.02063 
L 91.463826 55.308567 
L 91.572784 55.308567 
L 91.754409 55.308567 
L 91.754409 50.596504 
L 91.863367 50.596504 
L 94.805471 50.596504 
L 94.805471 45.884441 
L 94.914434 45.884441 
L 94.950735 45.884441 
L 94.950735 41.172378 
L 95.059735 41.172378 
L 95.096032 41.172378 
L 95.096032 36.460315 
L 95.204993 36.460315 
L 95.53192 36.460315 
L 95.53192 31.748252 
L 95.640858 31.748252 
L 104.830411 31.748252 
L 104.830411 22.324126 
L 104.939374 22.324126 
L 122.700994 22.324126 
L 122.700994 27.036189 
L 122.80997 27.036189 
L 123.572729 27.036189 
L 123.572729 22.324126 
L 123.681686 22.324126 
L 136.212912 22.324126 
L 136.212912 27.036189 
L 136.321872 27.036189 
L 137.37522 27.036189 
L 137.37522 22.324126 
L 137.48418 22.324126 
L 231.377394 22.324126 
L 231.377394 27.036189 
L 231.486359 27.036189 
L 235.445484 27.036189 
L 235.445484 22.324126 
L 235.554452 22.324126 
L 265.08449 22.324126 
L 265.08449 27.036189 
L 265.193442 27.036189 
L 265.229788 27.036189 
L 265.229788 22.324126 
L 265.338723 22.324126 
L 265.66563 22.324126 
L 265.66563 27.036189 
L 265.774594 27.036189 
L 266.101499 27.036189 
L 266.101499 22.324126 
L 266.210481 22.324126 
L 273.220675 22.324126 
L 273.220675 27.036189 
L 273.329666 27.036189 
L 273.656537 27.036189 
L 273.656537 22.324126 
L 273.765524 22.324126 
L 284.262685 22.324126 
L 284.262685 27.036189 
L 284.371947 27.036189 
L 287.604337 27.036189 
L 287.604337 22.324126 
L 287.713297 22.324126 
L 303.005 22.324126 
L 303.005 22.324126 
" style="fill:none;stroke:#7570b3;stroke-linecap:square;stroke-width:1.5;"/>
   </g>
   <g id="line2d_21">
    <path clip-path="url(#pc03840a4ae)" d="M 55.905 182.534267 
L 56.05808 182.534267 
L 56.05808 177.822204 
L 56.168179 177.822204 
L 56.809872 177.822204 
L 56.809872 173.110142 
L 59.134527 173.110142 
L 59.134527 168.398079 
L 59.354888 168.398079 
L 59.354888 163.686016 
L 59.463853 163.686016 
L 59.500168 163.686016 
L 59.500168 158.973953 
L 59.609137 158.973953 
L 59.936056 158.973953 
L 59.936056 144.837764 
L 60.045011 144.837764 
L 60.081314 144.837764 
L 60.081314 140.125701 
L 60.190304 140.125701 
L 62.987108 140.125701 
L 62.987108 130.701575 
L 63.096073 130.701575 
L 63.132397 130.701575 
L 63.132397 125.989512 
L 63.24153 125.989512 
L 63.277685 125.989512 
L 63.277685 130.701575 
L 63.38667 130.701575 
L 63.568287 130.701575 
L 63.568287 125.989512 
L 63.67724 125.989512 
L 63.713547 125.989512 
L 63.713547 116.565386 
L 63.82254 116.565386 
L 64.440011 116.565386 
L 64.440011 107.14126 
L 64.548975 107.14126 
L 66.038192 107.14126 
L 66.038192 102.429197 
L 66.147162 102.429197 
L 66.183478 102.429197 
L 66.183478 83.580945 
L 66.292426 83.580945 
L 66.328751 83.580945 
L 66.328751 74.156819 
L 66.437715 74.156819 
L 66.619345 74.156819 
L 66.619345 69.444756 
L 66.728313 69.444756 
L 66.76463 69.444756 
L 66.76463 64.732693 
L 66.873603 64.732693 
L 66.909923 64.732693 
L 66.909923 60.02063 
L 67.01957 60.02063 
L 67.055212 60.02063 
L 67.055212 45.884441 
L 67.164167 45.884441 
L 67.200497 45.884441 
L 67.200497 41.172378 
L 67.309478 41.172378 
L 67.345795 41.172378 
L 67.345795 36.460315 
L 67.454743 36.460315 
L 69.815692 36.460315 
L 69.815692 27.036189 
L 69.924678 27.036189 
L 69.961013 27.036189 
L 69.961013 22.324126 
L 70.06998 22.324126 
L 87.105115 22.324126 
L 87.105115 27.036189 
L 87.21408 27.036189 
L 87.250401 27.036189 
L 87.250401 22.324126 
L 87.359366 22.324126 
L 231.232081 22.324126 
L 231.232081 27.036189 
L 231.34103 27.036189 
L 231.377394 27.036189 
L 231.377394 22.324126 
L 231.486359 22.324126 
L 290.074226 22.324126 
L 290.074226 27.036189 
L 290.183193 27.036189 
L 290.219546 27.036189 
L 290.219546 22.324126 
L 290.328507 22.324126 
L 303.005 22.324126 
L 303.005 22.324126 
" style="fill:none;stroke:#e7298a;stroke-linecap:square;stroke-width:1.5;"/>
   </g>
   <g id="line2d_22">
    <path clip-path="url(#pc03840a4ae)" d="M 55.905 201.382519 
L 59.790774 201.382519 
L 59.790774 196.670456 
L 59.900019 196.670456 
L 62.69655 196.670456 
L 62.69655 191.958393 
L 62.805513 191.958393 
L 62.841833 191.958393 
L 62.841833 187.24633 
L 62.950791 187.24633 
L 62.987108 187.24633 
L 62.987108 177.822204 
L 63.096073 177.822204 
L 63.132397 177.822204 
L 63.132397 173.110142 
L 63.24153 173.110142 
L 63.277685 173.110142 
L 63.277685 168.398079 
L 63.38667 168.398079 
L 63.422976 168.398079 
L 63.422976 163.686016 
L 63.531926 163.686016 
L 63.713547 163.686016 
L 63.713547 158.973953 
L 63.82254 158.973953 
L 66.183478 158.973953 
L 66.183478 149.549827 
L 66.292426 149.549827 
L 66.328751 149.549827 
L 66.328751 144.837764 
L 66.437715 144.837764 
L 66.909923 144.837764 
L 66.909923 140.125701 
L 67.01957 140.125701 
L 67.055212 140.125701 
L 67.055212 130.701575 
L 67.164167 130.701575 
L 80.276552 130.701575 
L 80.276552 125.989512 
L 80.385511 125.989512 
L 80.421827 125.989512 
L 80.421827 121.277449 
L 80.53081 121.277449 
L 80.567125 121.277449 
L 80.567125 116.565386 
L 80.676084 116.565386 
L 80.712398 116.565386 
L 80.712398 111.853323 
L 80.821349 111.853323 
L 80.857703 111.853323 
L 80.857703 102.429197 
L 80.966642 102.429197 
L 81.002994 102.429197 
L 81.002994 97.717134 
L 81.111945 97.717134 
L 83.618182 97.717134 
L 83.654507 83.580945 
L 83.727145 83.580945 
L 83.908767 83.580945 
L 83.908767 74.156819 
L 84.017727 74.156819 
L 84.344639 74.156819 
L 84.344639 69.444756 
L 84.453603 69.444756 
L 84.489929 69.444756 
L 84.489929 60.02063 
L 84.598895 60.02063 
L 84.635217 60.02063 
L 84.635217 36.460315 
L 84.744181 36.460315 
L 84.780484 36.460315 
L 84.780484 22.324126 
L 84.889474 22.324126 
L 86.959822 22.324126 
L 86.959822 27.036189 
L 87.068789 27.036189 
L 87.250401 27.036189 
L 87.250401 22.324126 
L 87.359366 22.324126 
L 122.410405 22.324126 
L 122.410405 27.036189 
L 122.519401 27.036189 
L 122.555725 27.036189 
L 122.555725 22.324126 
L 122.66467 22.324126 
L 128.94846 22.324126 
L 128.94846 27.036189 
L 129.057409 27.036189 
L 129.238999 27.036189 
L 129.238999 22.324126 
L 129.348012 22.324126 
L 129.529588 22.324126 
L 129.529588 27.036189 
L 129.638558 27.036189 
L 130.110776 27.036189 
L 130.110776 22.324126 
L 130.219744 22.324126 
L 303.005 22.324126 
L 303.005 22.324126 
" style="fill:none;stroke:#66a61e;stroke-linecap:square;stroke-width:1.5;"/>
   </g>
   <g id="line2d_23">
    <path clip-path="url(#pc03840a4ae)" d="M 55.905 191.958393 
L 62.841833 191.958393 
L 62.841833 187.24633 
L 62.950791 187.24633 
L 63.568287 187.24633 
L 63.568287 182.534267 
L 63.67724 182.534267 
L 63.858856 182.534267 
L 63.858856 177.822204 
L 63.967812 177.822204 
L 66.619345 177.822204 
L 66.619345 173.110142 
L 66.728313 173.110142 
L 66.909923 173.110142 
L 66.909923 168.398079 
L 67.01957 168.398079 
L 69.815692 168.398079 
L 69.815692 163.686016 
L 69.924678 163.686016 
L 80.131242 163.686016 
L 80.131242 154.26189 
L 80.240209 154.26189 
L 80.276552 154.26189 
L 80.276552 144.837764 
L 80.385511 144.837764 
L 80.712398 144.837764 
L 80.712398 140.125701 
L 80.821349 140.125701 
L 81.293569 140.125701 
L 81.293569 135.413638 
L 81.402517 135.413638 
L 83.908767 135.413638 
L 83.908767 130.701575 
L 84.017727 130.701575 
L 84.199321 130.701575 
L 84.199321 121.277449 
L 84.308322 121.277449 
L 84.489929 121.277449 
L 84.489929 116.565386 
L 84.598895 116.565386 
L 85.361667 116.565386 
L 85.361667 111.853323 
L 85.470616 111.853323 
L 86.959822 111.853323 
L 86.959822 107.14126 
L 87.068789 107.14126 
L 87.250401 107.14126 
L 87.250401 102.429197 
L 87.359366 102.429197 
L 87.395689 102.429197 
L 87.395689 93.005071 
L 87.504663 93.005071 
L 87.68629 93.005071 
L 87.68629 88.293008 
L 87.795268 88.293008 
L 87.831566 88.293008 
L 87.867902 74.156819 
L 87.940551 74.156819 
L 87.976874 74.156819 
L 87.976874 64.732693 
L 88.085811 64.732693 
L 88.558008 64.732693 
L 88.558008 69.444756 
L 88.667008 69.444756 
L 90.737347 69.444756 
L 90.737347 60.02063 
L 90.846344 60.02063 
L 90.882672 60.02063 
L 90.882672 55.308567 
L 90.991602 55.308567 
L 91.17323 55.308567 
L 91.17323 50.596504 
L 91.282206 50.596504 
L 91.318536 50.596504 
L 91.318536 41.172378 
L 91.427496 41.172378 
L 91.463826 41.172378 
L 91.463826 36.460315 
L 91.572784 36.460315 
L 91.754409 36.460315 
L 91.754409 31.748252 
L 91.863367 31.748252 
L 211.036877 31.748252 
L 211.036877 36.460315 
L 211.145853 36.460315 
L 214.378513 36.460315 
L 214.378513 31.748252 
L 214.487489 31.748252 
L 303.005 31.748252 
L 303.005 31.748252 
" style="fill:none;stroke:#e6ab02;stroke-linecap:square;stroke-width:1.5;"/>
   </g>
   <g id="line2d_24">
    <path clip-path="url(#pc03840a4ae)" d="M 55.905 196.670456 
L 59.790774 196.670456 
L 59.790774 191.958393 
L 59.900019 191.958393 
L 62.69655 191.958393 
L 62.69655 187.24633 
L 62.805513 187.24633 
L 62.841833 187.24633 
L 62.841833 182.534267 
L 62.950791 182.534267 
L 63.132397 182.534267 
L 63.132397 177.822204 
L 63.24153 177.822204 
L 63.277685 177.822204 
L 63.277685 173.110142 
L 63.38667 173.110142 
L 63.422976 173.110142 
L 63.422976 163.686016 
L 63.531926 163.686016 
L 63.568287 163.686016 
L 63.568287 158.973953 
L 63.67724 158.973953 
L 63.713547 158.973953 
L 63.713547 154.26189 
L 63.82254 154.26189 
L 66.038192 154.26189 
L 66.038192 149.549827 
L 66.147162 149.549827 
L 66.183478 149.549827 
L 66.183478 140.125701 
L 66.292426 140.125701 
L 66.474033 140.125701 
L 66.474033 135.413638 
L 66.583019 135.413638 
L 66.619345 135.413638 
L 66.619345 125.989512 
L 66.728313 125.989512 
L 66.909923 125.989512 
L 66.909923 121.277449 
L 67.01957 121.277449 
L 67.200497 121.277449 
L 67.200497 116.565386 
L 67.309478 116.565386 
L 67.345795 116.565386 
L 67.345795 111.853323 
L 67.454743 111.853323 
L 69.961013 111.853323 
L 69.961013 107.14126 
L 70.06998 107.14126 
L 70.54216 107.14126 
L 70.54216 102.429197 
L 70.651132 102.429197 
L 74.319657 102.429197 
L 74.319657 97.717134 
L 74.428633 97.717134 
L 80.131242 97.717134 
L 80.131242 93.005071 
L 80.240209 93.005071 
L 80.567125 93.005071 
L 80.567125 78.868882 
L 80.676084 78.868882 
L 80.712398 78.868882 
L 80.712398 69.444756 
L 80.821349 69.444756 
L 80.857703 69.444756 
L 80.857703 60.02063 
L 80.966642 60.02063 
L 81.293569 60.02063 
L 81.293569 55.308567 
L 81.402517 55.308567 
L 83.32761 55.308567 
L 83.32761 50.596504 
L 83.436586 50.596504 
L 83.763468 50.596504 
L 83.763468 45.884441 
L 83.872451 45.884441 
L 83.908767 45.884441 
L 83.908767 41.172378 
L 84.017727 41.172378 
L 84.054047 41.172378 
L 84.054047 36.460315 
L 84.163004 36.460315 
L 84.489929 36.460315 
L 84.489929 31.748252 
L 84.598895 31.748252 
L 303.005 31.748252 
L 303.005 31.748252 
" style="fill:none;stroke:#a6761d;stroke-linecap:square;stroke-width:1.5;"/>
   </g>
   <g id="line2d_25">
    <path clip-path="url(#pc03840a4ae)" d="M 55.905 196.670456 
L 59.134527 196.670456 
L 59.134527 191.958393 
L 63.422976 191.958393 
L 63.422976 187.24633 
L 63.531926 187.24633 
L 66.328751 187.24633 
L 66.328751 182.534267 
L 66.437715 182.534267 
L 66.619345 182.534267 
L 66.619345 177.822204 
L 66.728313 177.822204 
L 67.055212 177.822204 
L 67.055212 173.110142 
L 67.164167 173.110142 
L 67.200497 173.110142 
L 67.200497 168.398079 
L 67.309478 168.398079 
L 68.072239 168.398079 
L 68.072239 163.686016 
L 68.181181 163.686016 
L 80.567125 163.686016 
L 80.567125 154.26189 
L 80.676084 154.26189 
L 83.908767 154.26189 
L 83.908767 149.549827 
L 84.017727 149.549827 
L 84.635217 149.549827 
L 84.635217 144.837764 
L 84.744181 144.837764 
L 85.071097 144.837764 
L 85.071097 140.125701 
L 85.18005 140.125701 
L 87.250401 140.125701 
L 87.250401 135.413638 
L 87.359366 135.413638 
L 87.395689 135.413638 
L 87.395689 125.989512 
L 87.504663 125.989512 
L 87.831566 125.989512 
L 87.831566 116.565386 
L 87.940551 116.565386 
L 91.027936 116.565386 
L 91.027936 111.853323 
L 91.136903 111.853323 
L 91.463826 111.853323 
L 91.463826 107.14126 
L 91.572784 107.14126 
L 91.899664 107.14126 
L 91.899664 102.429197 
L 92.008655 102.429197 
L 95.53192 102.429197 
L 95.53192 97.717134 
L 95.640858 97.717134 
L 105.556873 97.717134 
L 105.556873 93.005071 
L 105.665837 93.005071 
L 108.898516 93.005071 
L 108.898516 88.293008 
L 109.007484 88.293008 
L 112.676062 88.293008 
L 112.676062 93.005071 
L 112.785007 93.005071 
L 129.384311 93.005071 
L 129.384311 88.293008 
L 129.493301 88.293008 
L 129.529588 88.293008 
L 129.529588 93.005071 
L 129.638558 93.005071 
L 133.161834 93.005071 
L 133.161834 88.293008 
L 133.270792 88.293008 
L 158.732729 88.293008 
L 158.732729 83.580945 
L 158.84171 83.580945 
L 181.979018 83.580945 
L 181.979018 78.868882 
L 182.087989 78.868882 
L 189.388786 78.868882 
L 189.388786 83.580945 
L 189.497731 83.580945 
L 235.445484 83.580945 
L 235.445484 88.293008 
L 235.554452 88.293008 
L 237.188966 88.293008 
L 237.188966 93.005071 
L 237.297918 93.005071 
L 249.393264 93.005071 
L 249.393264 88.293008 
L 249.502209 88.293008 
L 251.427311 88.293008 
L 251.427311 83.580945 
L 251.536279 83.580945 
L 254.333068 83.580945 
L 254.333068 78.868882 
L 254.442047 78.868882 
L 258.401163 78.868882 
L 258.401163 83.580945 
L 258.510163 83.580945 
L 273.220675 83.580945 
L 273.220675 78.868882 
L 273.329666 78.868882 
L 303.005 78.868882 
L 303.005 78.868882 
" style="fill:none;stroke:#666666;stroke-linecap:square;stroke-width:1.5;"/>
   </g>
   <g id="line2d_26">
    <path clip-path="url(#pc03840a4ae)" d="M 55.905 201.382519 
L 62.987108 201.382519 
L 62.987108 196.670456 
L 63.096073 196.670456 
L 63.422976 196.670456 
L 63.422976 191.958393 
L 63.531926 191.958393 
L 66.619345 191.958393 
L 66.619345 187.24633 
L 66.728313 187.24633 
L 66.909923 187.24633 
L 66.909923 191.958393 
L 67.01957 191.958393 
L 67.055212 191.958393 
L 67.055212 182.534267 
L 67.164167 182.534267 
L 80.276552 182.534267 
L 80.276552 177.822204 
L 80.385511 177.822204 
L 80.567125 177.822204 
L 80.567125 173.110142 
L 80.676084 173.110142 
L 80.857703 173.110142 
L 80.857703 168.398079 
L 80.966642 168.398079 
L 81.002994 168.398079 
L 81.002994 163.686016 
L 81.111945 163.686016 
L 81.729417 163.686016 
L 81.729417 158.973953 
L 81.838405 158.973953 
L 84.054047 158.973953 
L 84.054047 154.26189 
L 84.163004 154.26189 
L 84.489929 154.26189 
L 84.489929 149.549827 
L 84.598895 149.549827 
L 84.635217 149.549827 
L 84.635217 144.837764 
L 84.744181 144.837764 
L 87.105115 144.837764 
L 87.105115 135.413638 
L 87.21408 135.413638 
L 87.250401 135.413638 
L 87.250401 130.701575 
L 87.359366 130.701575 
L 87.395689 130.701575 
L 87.432014 116.565386 
L 87.504663 116.565386 
L 87.976874 116.565386 
L 87.976874 111.853323 
L 88.085811 111.853323 
L 88.122142 111.853323 
L 88.122142 107.14126 
L 88.23113 107.14126 
L 88.267451 107.14126 
L 88.267451 111.853323 
L 88.376998 111.853323 
L 88.412727 111.853323 
L 88.412727 107.14126 
L 88.521683 107.14126 
L 88.558008 107.14126 
L 88.558008 102.429197 
L 88.667008 102.429197 
L 90.301502 102.429197 
L 90.301502 107.14126 
L 90.410468 107.14126 
L 90.737347 107.14126 
L 90.737347 93.005071 
L 90.846344 93.005071 
L 91.027936 93.005071 
L 91.027936 88.293008 
L 91.136903 88.293008 
L 91.318536 88.293008 
L 91.318536 69.444756 
L 91.427496 69.444756 
L 91.463826 69.444756 
L 91.463826 64.732693 
L 91.572784 64.732693 
L 94.660162 64.732693 
L 94.660162 60.02063 
L 94.769137 60.02063 
L 106.428622 60.02063 
L 106.428622 55.308567 
L 106.537568 55.308567 
L 108.753244 55.308567 
L 108.753244 50.596504 
L 108.862214 50.596504 
L 108.898516 50.596504 
L 108.898516 55.308567 
L 109.007484 55.308567 
L 109.189096 55.308567 
L 109.189096 50.596504 
L 109.298062 50.596504 
L 112.676062 50.596504 
L 112.676062 45.884441 
L 112.785007 45.884441 
L 118.632887 45.884441 
L 118.632887 50.596504 
L 118.74187 50.596504 
L 122.700994 50.596504 
L 122.700994 45.884441 
L 122.80997 45.884441 
L 128.94846 45.884441 
L 128.94846 50.596504 
L 129.057409 50.596504 
L 129.238999 50.596504 
L 129.238999 55.308567 
L 129.348012 55.308567 
L 129.674872 55.308567 
L 129.674872 60.02063 
L 129.783839 60.02063 
L 133.742978 60.02063 
L 133.742978 64.732693 
L 133.851958 64.732693 
L 139.990407 64.732693 
L 139.990407 69.444756 
L 140.099384 69.444756 
L 154.519368 69.444756 
L 154.519368 74.156819 
L 154.628338 74.156819 
L 220.48068 74.156819 
L 220.48068 69.444756 
L 220.589642 69.444756 
L 224.403505 69.444756 
L 224.403505 74.156819 
L 224.51248 74.156819 
L 261.888129 74.156819 
L 261.888129 69.444756 
L 261.997084 69.444756 
L 265.229788 69.444756 
L 265.229788 74.156819 
L 265.338723 74.156819 
L 265.375065 74.156819 
L 265.375065 78.868882 
L 265.484014 78.868882 
L 268.135565 78.868882 
L 268.135565 83.580945 
L 268.244533 83.580945 
L 303.005 83.580945 
L 303.005 83.580945 
" style="fill:none;stroke:#1b9e77;stroke-dasharray:4.5,1.5;stroke-dashoffset:0;stroke-width:1.5;"/>
   </g>
   <g id="line2d_27">
    <path clip-path="url(#pc03840a4ae)" d="M 55.905 210.806645 
L 60.2266 210.806645 
L 60.2266 206.094582 
L 60.335883 206.094582 
L 60.807786 206.094582 
L 60.807786 201.382519 
L 60.916728 201.382519 
L 69.961013 201.382519 
L 69.961013 196.670456 
L 70.06998 196.670456 
L 80.131242 196.670456 
L 80.131242 191.958393 
L 80.240209 191.958393 
L 81.148262 191.958393 
L 81.148262 182.534267 
L 81.257217 182.534267 
L 83.908767 182.534267 
L 83.908767 177.822204 
L 84.017727 177.822204 
L 84.054047 177.822204 
L 84.054047 173.110142 
L 84.163004 173.110142 
L 84.489929 173.110142 
L 84.489929 163.686016 
L 84.598895 163.686016 
L 84.635217 163.686016 
L 84.635217 158.973953 
L 84.744181 158.973953 
L 85.506929 158.973953 
L 85.506929 154.26189 
L 85.61593 154.26189 
L 87.250401 154.26189 
L 87.250401 158.973953 
L 87.359366 158.973953 
L 87.540993 158.973953 
L 87.540993 154.26189 
L 87.649959 154.26189 
L 87.68629 154.26189 
L 87.68629 149.549827 
L 87.795268 149.549827 
L 87.976874 149.549827 
L 87.976874 144.837764 
L 88.085811 144.837764 
L 88.122142 144.837764 
L 88.122142 149.549827 
L 88.23113 149.549827 
L 88.267451 149.549827 
L 88.267451 144.837764 
L 88.376998 144.837764 
L 90.737347 144.837764 
L 90.737347 140.125701 
L 90.846344 140.125701 
L 95.386629 140.125701 
L 95.386629 135.413638 
L 95.495596 135.413638 
L 105.121001 135.413638 
L 105.121001 130.701575 
L 105.229969 130.701575 
L 118.923473 130.701575 
L 118.923473 125.989512 
L 119.032471 125.989512 
L 136.212912 125.989512 
L 136.212912 121.277449 
L 136.321872 121.277449 
L 154.519368 121.277449 
L 154.519368 116.565386 
L 154.628338 116.565386 
L 188.517046 116.565386 
L 188.517046 111.853323 
L 202.464805 111.853323 
L 202.464805 107.14126 
L 202.573786 107.14126 
L 231.232081 107.14126 
L 231.232081 102.429197 
L 231.34103 102.429197 
L 235.300182 102.429197 
L 235.300182 97.717134 
L 235.409146 97.717134 
L 240.675875 97.717134 
L 240.675875 93.005071 
L 240.784872 93.005071 
L 262.759873 93.005071 
L 262.759873 88.293008 
L 262.868813 88.293008 
L 265.229788 88.293008 
L 265.229788 83.580945 
L 265.338723 83.580945 
L 266.101499 83.580945 
L 266.101499 88.293008 
L 266.210481 88.293008 
L 303.005 88.293008 
L 303.005 88.293008 
" style="fill:none;stroke:#d95f02;stroke-dasharray:4.5,1.5;stroke-dashoffset:0;stroke-width:1.5;"/>
   </g>
   <g id="line2d_28">
    <path clip-path="url(#pc03840a4ae)" d="M 55.905 206.094582 
L 62.69655 206.094582 
L 62.69655 201.382519 
L 62.805513 201.382519 
L 62.841833 201.382519 
L 62.841833 196.670456 
L 62.950791 196.670456 
L 63.422976 196.670456 
L 63.422976 187.24633 
L 63.531926 187.24633 
L 66.183478 187.24633 
L 66.183478 182.534267 
L 66.292426 182.534267 
L 66.909923 182.534267 
L 66.909923 177.822204 
L 67.01957 177.822204 
L 67.055212 177.822204 
L 67.055212 173.110142 
L 67.164167 173.110142 
L 67.200497 173.110142 
L 67.200497 168.398079 
L 67.309478 168.398079 
L 80.421827 168.398079 
L 80.421827 163.686016 
L 80.53081 163.686016 
L 80.567125 163.686016 
L 80.567125 158.973953 
L 80.676084 158.973953 
L 80.712398 158.973953 
L 80.712398 149.549827 
L 80.821349 149.549827 
L 84.344639 149.549827 
L 84.344639 144.837764 
L 84.453603 144.837764 
L 84.489929 144.837764 
L 84.489929 140.125701 
L 84.598895 140.125701 
L 86.959822 140.125701 
L 86.959822 144.837764 
L 87.068789 144.837764 
L 87.395689 144.837764 
L 87.395689 135.413638 
L 87.504663 135.413638 
L 87.540993 135.413638 
L 87.540993 140.125701 
L 87.649959 140.125701 
L 87.68629 140.125701 
L 87.68629 135.413638 
L 87.795268 135.413638 
L 87.976874 135.413638 
L 87.976874 125.989512 
L 88.085811 125.989512 
L 88.122142 125.989512 
L 88.122142 121.277449 
L 88.23113 121.277449 
L 94.950735 121.277449 
L 94.950735 116.565386 
L 95.059735 116.565386 
L 95.386629 116.565386 
L 95.386629 111.853323 
L 95.495596 111.853323 
L 102.360493 111.853323 
L 102.360493 107.14126 
L 102.469486 107.14126 
L 115.581818 107.14126 
L 115.581818 102.429197 
L 115.690796 102.429197 
L 116.162974 102.429197 
L 116.162974 97.717134 
L 116.27193 97.717134 
L 119.068782 97.717134 
L 119.068782 93.005071 
L 119.17776 93.005071 
L 130.546642 93.005071 
L 130.546642 88.293008 
L 130.655586 88.293008 
L 217.139007 88.293008 
L 217.139007 93.005071 
L 217.248002 93.005071 
L 220.48068 93.005071 
L 220.48068 97.717134 
L 220.589642 97.717134 
L 251.282014 97.717134 
L 251.282014 93.005071 
L 251.390959 93.005071 
L 251.863151 93.005071 
L 251.863151 88.293008 
L 251.972119 88.293008 
L 303.005 88.293008 
L 303.005 88.293008 
" style="fill:none;stroke:#7570b3;stroke-dasharray:4.5,1.5;stroke-dashoffset:0;stroke-width:1.5;"/>
   </g>
   <g id="line2d_29">
    <path clip-path="url(#pc03840a4ae)" d="M 121.139134 210.806645 
L 122.410405 210.806645 
L 122.410405 206.094582 
L 122.519401 206.094582 
L 126.769113 206.094582 
L 126.769113 201.382519 
L 126.878062 201.382519 
L 128.94846 201.382519 
L 128.94846 182.534267 
L 129.057409 182.534267 
L 129.238999 182.534267 
L 129.238999 173.110142 
L 129.348012 173.110142 
L 129.529588 173.110142 
L 129.529588 158.973953 
L 129.638558 158.973953 
L 129.820162 158.973953 
L 129.820162 154.26189 
L 129.92916 154.26189 
L 132.725978 154.26189 
L 132.725978 149.549827 
L 132.83494 149.549827 
L 133.452415 149.549827 
L 133.452415 144.837764 
L 133.561352 144.837764 
L 133.742978 144.837764 
L 133.742978 140.125701 
L 133.851958 140.125701 
L 134.033558 140.125701 
L 134.033558 135.413638 
L 134.142544 135.413638 
L 134.178853 135.413638 
L 134.178853 130.701575 
L 134.287817 130.701575 
L 136.212912 130.701575 
L 136.212912 125.989512 
L 136.321872 125.989512 
L 137.520492 125.989512 
L 137.520492 121.277449 
L 137.629472 121.277449 
L 139.990407 121.277449 
L 139.990407 116.565386 
L 140.099384 116.565386 
L 184.448928 116.565386 
L 184.448928 121.277449 
L 184.557911 121.277449 
L 185.175366 121.277449 
L 185.175366 116.565386 
L 185.284337 116.565386 
L 209.583991 116.565386 
L 209.583991 111.853323 
L 209.692956 111.853323 
L 209.874541 111.853323 
L 209.874541 107.14126 
L 209.983512 107.14126 
L 211.036877 107.14126 
L 211.036877 102.429197 
L 211.145853 102.429197 
L 230.796207 102.429197 
L 230.796207 97.717134 
L 230.905193 97.717134 
L 303.005 97.717134 
L 303.005 97.717134 
" style="fill:none;stroke:#e7298a;stroke-dasharray:4.5,1.5;stroke-dashoffset:0;stroke-width:1.5;"/>
   </g>
   <g id="line2d_30">
    <path clip-path="url(#pc03840a4ae)" d="M 55.905 206.094582 
L 62.987108 206.094582 
L 62.987108 201.382519 
L 63.096073 201.382519 
L 66.909923 201.382519 
L 66.909923 191.958393 
L 67.01957 191.958393 
L 80.131242 191.958393 
L 80.131242 187.24633 
L 80.240209 187.24633 
L 80.421827 187.24633 
L 80.421827 182.534267 
L 80.53081 182.534267 
L 80.857703 182.534267 
L 80.857703 177.822204 
L 80.966642 177.822204 
L 83.618182 177.822204 
L 83.618182 173.110142 
L 83.727145 173.110142 
L 83.763468 173.110142 
L 83.763468 163.686016 
L 83.872451 163.686016 
L 83.908767 163.686016 
L 83.908767 158.973953 
L 84.017727 158.973953 
L 84.199321 158.973953 
L 84.199321 154.26189 
L 84.308322 154.26189 
L 84.344639 154.26189 
L 84.344639 144.837764 
L 84.453603 144.837764 
L 84.489929 144.837764 
L 84.489929 135.413638 
L 84.598895 135.413638 
L 85.071097 135.413638 
L 85.071097 130.701575 
L 85.18005 130.701575 
L 85.361667 130.701575 
L 85.361667 125.989512 
L 85.470616 125.989512 
L 85.506929 125.989512 
L 85.506929 130.701575 
L 85.61593 130.701575 
L 86.814548 130.701575 
L 86.814548 135.413638 
L 86.923536 135.413638 
L 86.959822 135.413638 
L 86.959822 140.125701 
L 87.068789 140.125701 
L 87.105115 140.125701 
L 87.105115 135.413638 
L 87.21408 135.413638 
L 87.250401 135.413638 
L 87.250401 140.125701 
L 87.359366 140.125701 
L 87.395689 140.125701 
L 87.395689 135.413638 
L 87.504663 135.413638 
L 87.540993 135.413638 
L 87.540993 130.701575 
L 87.649959 130.701575 
L 87.831566 130.701575 
L 87.831566 135.413638 
L 87.940551 135.413638 
L 91.17323 135.413638 
L 91.17323 130.701575 
L 91.282206 130.701575 
L 91.463826 130.701575 
L 91.463826 125.989512 
L 91.572784 125.989512 
L 94.805471 125.989512 
L 94.805471 121.277449 
L 94.914434 121.277449 
L 95.822484 121.277449 
L 95.822484 116.565386 
L 95.93145 116.565386 
L 105.121001 116.565386 
L 105.121001 111.853323 
L 105.229969 111.853323 
L 105.266288 111.853323 
L 105.266288 107.14126 
L 105.375242 107.14126 
L 105.84743 107.14126 
L 105.84743 102.429197 
L 105.956411 102.429197 
L 112.676062 102.429197 
L 112.676062 97.717134 
L 112.785007 97.717134 
L 113.111892 97.717134 
L 113.111892 93.005071 
L 113.22088 93.005071 
L 120.376379 93.005071 
L 120.376379 88.293008 
L 120.485326 88.293008 
L 123.572729 88.293008 
L 123.572729 93.005071 
L 123.681686 93.005071 
L 129.238999 93.005071 
L 129.238999 97.717134 
L 129.348012 97.717134 
L 154.228782 97.717134 
L 154.228782 93.005071 
L 154.337726 93.005071 
L 178.782683 93.005071 
L 178.782683 88.293008 
L 178.891616 88.293008 
L 181.54317 88.293008 
L 181.54317 83.580945 
L 181.65213 83.580945 
L 191.568113 83.580945 
L 191.568113 78.868882 
L 191.677695 78.868882 
L 212.780373 78.868882 
L 212.780373 83.580945 
L 212.889331 83.580945 
L 212.925626 83.580945 
L 212.925626 78.868882 
L 213.034618 78.868882 
L 242.12878 78.868882 
L 242.12878 83.580945 
L 242.237747 83.580945 
L 248.812091 83.580945 
L 248.812091 88.293008 
L 248.921063 88.293008 
L 259.708912 88.293008 
L 259.708912 93.005071 
L 259.81775 93.005071 
L 280.630447 93.005071 
L 280.630447 97.717134 
L 280.740163 97.717134 
L 303.005 97.717134 
L 303.005 97.717134 
" style="fill:none;stroke:#66a61e;stroke-dasharray:4.5,1.5;stroke-dashoffset:0;stroke-width:1.5;"/>
   </g>
   <g id="line2d_31">
    <path clip-path="url(#pc03840a4ae)" d="M 55.905 210.806645 
L 59.645597 210.806645 
L 59.645597 206.094582 
L 59.754422 206.094582 
L 59.936056 206.094582 
L 59.936056 201.382519 
L 60.045011 201.382519 
L 63.277685 201.382519 
L 63.277685 196.670456 
L 63.38667 196.670456 
L 67.055212 196.670456 
L 67.055212 191.958393 
L 67.164167 191.958393 
L 69.379845 191.958393 
L 69.379845 187.24633 
L 69.488812 187.24633 
L 70.106277 187.24633 
L 70.106277 182.534267 
L 70.215272 182.534267 
L 70.396868 182.534267 
L 70.396868 177.822204 
L 70.505838 177.822204 
L 80.131242 177.822204 
L 80.131242 168.398079 
L 80.240209 168.398079 
L 80.421827 168.398079 
L 80.421827 163.686016 
L 80.53081 163.686016 
L 80.567125 163.686016 
L 80.567125 158.973953 
L 80.676084 158.973953 
L 80.712398 158.973953 
L 80.712398 154.26189 
L 80.821349 154.26189 
L 80.857703 154.26189 
L 80.857703 144.837764 
L 80.966642 144.837764 
L 81.002994 144.837764 
L 81.002994 140.125701 
L 81.111945 140.125701 
L 81.293569 140.125701 
L 81.293569 135.413638 
L 81.402517 135.413638 
L 81.584161 135.413638 
L 81.584161 130.701575 
L 81.693102 130.701575 
L 82.019989 130.701575 
L 82.019989 125.989512 
L 82.128976 125.989512 
L 83.618182 125.989512 
L 83.618182 121.277449 
L 83.727145 121.277449 
L 83.763468 121.277449 
L 83.763468 116.565386 
L 83.872451 116.565386 
L 83.908767 116.565386 
L 83.908767 102.429197 
L 84.017727 102.429197 
L 84.054047 102.429197 
L 84.054047 97.717134 
L 84.163004 97.717134 
L 84.199321 97.717134 
L 84.199321 93.005071 
L 84.308322 93.005071 
L 85.506929 93.005071 
L 85.506929 97.717134 
L 85.61593 97.717134 
L 87.395689 97.717134 
L 87.395689 93.005071 
L 87.504663 93.005071 
L 87.540993 93.005071 
L 87.540993 97.717134 
L 87.649959 97.717134 
L 87.68629 97.717134 
L 87.68629 93.005071 
L 87.795268 93.005071 
L 91.754409 93.005071 
L 91.754409 97.717134 
L 91.863367 97.717134 
L 91.899664 97.717134 
L 91.899664 93.005071 
L 92.008655 93.005071 
L 230.941525 93.005071 
L 230.941525 97.717134 
L 231.05047 97.717134 
L 242.12878 97.717134 
L 242.12878 93.005071 
L 242.237747 93.005071 
L 280.049266 93.005071 
L 280.049266 97.717134 
L 280.158233 97.717134 
L 284.262685 97.717134 
L 284.262685 93.005071 
L 284.371947 93.005071 
L 290.219546 93.005071 
L 290.219546 97.717134 
L 290.328507 97.717134 
L 303.005 97.717134 
L 303.005 97.717134 
" style="fill:none;stroke:#e6ab02;stroke-dasharray:4.5,1.5;stroke-dashoffset:0;stroke-width:1.5;"/>
   </g>
   <g id="line2d_32">
    <path clip-path="url(#pc03840a4ae)" d="M 55.905 206.094582 
L 63.132397 206.094582 
L 63.132397 196.670456 
L 63.24153 196.670456 
L 66.328751 196.670456 
L 66.328751 187.24633 
L 66.437715 187.24633 
L 66.474033 187.24633 
L 66.474033 182.534267 
L 66.583019 182.534267 
L 67.055212 182.534267 
L 67.055212 177.822204 
L 67.164167 177.822204 
L 67.200497 177.822204 
L 67.200497 173.110142 
L 67.309478 173.110142 
L 80.712398 173.110142 
L 80.712398 168.398079 
L 80.821349 168.398079 
L 80.857703 168.398079 
L 80.857703 163.686016 
L 80.966642 163.686016 
L 81.002994 163.686016 
L 81.002994 158.973953 
L 81.111945 158.973953 
L 81.43883 158.973953 
L 81.43883 154.26189 
L 81.547821 154.26189 
L 81.584161 154.26189 
L 81.584161 158.973953 
L 81.693102 158.973953 
L 83.618182 158.973953 
L 83.618182 140.125701 
L 83.727145 140.125701 
L 83.908767 140.125701 
L 83.908767 130.701575 
L 84.017727 130.701575 
L 84.054047 130.701575 
L 84.054047 125.989512 
L 84.163004 125.989512 
L 84.199321 125.989512 
L 84.199321 116.565386 
L 84.308322 116.565386 
L 303.005 116.565386 
L 303.005 116.565386 
" style="fill:none;stroke:#a6761d;stroke-dasharray:4.5,1.5;stroke-dashoffset:0;stroke-width:1.5;"/>
   </g>
   <g id="line2d_33">
    <path clip-path="url(#pc03840a4ae)" d="M 55.905 210.806645 
L 63.422976 210.806645 
L 63.422976 206.094582 
L 63.531926 206.094582 
L 63.568287 206.094582 
L 63.568287 201.382519 
L 63.67724 201.382519 
L 66.474033 201.382519 
L 66.474033 196.670456 
L 66.583019 196.670456 
L 67.200497 196.670456 
L 67.200497 191.958393 
L 67.309478 191.958393 
L 67.491076 191.958393 
L 67.491076 187.24633 
L 67.600178 187.24633 
L 67.781669 187.24633 
L 67.781669 182.534267 
L 67.890638 182.534267 
L 69.961013 182.534267 
L 69.961013 187.24633 
L 70.06998 187.24633 
L 80.276552 187.24633 
L 80.276552 182.534267 
L 80.385511 182.534267 
L 81.148262 182.534267 
L 81.148262 173.110142 
L 81.257217 173.110142 
L 83.763468 173.110142 
L 83.763468 168.398079 
L 83.872451 168.398079 
L 84.344639 168.398079 
L 84.344639 149.549827 
L 84.453603 149.549827 
L 84.489929 149.549827 
L 84.489929 144.837764 
L 84.598895 144.837764 
L 84.635217 144.837764 
L 84.635217 140.125701 
L 84.744181 140.125701 
L 129.238999 140.125701 
L 129.238999 144.837764 
L 129.348012 144.837764 
L 129.384311 144.837764 
L 129.384311 140.125701 
L 129.493301 140.125701 
L 217.139007 140.125701 
L 217.139007 135.413638 
L 217.248002 135.413638 
L 224.403505 135.413638 
L 224.403505 130.701575 
L 224.51248 130.701575 
L 235.154895 130.701575 
L 235.154895 125.989512 
L 235.263865 125.989512 
L 237.188966 125.989512 
L 237.188966 121.277449 
L 237.297918 121.277449 
L 237.770117 121.277449 
L 237.770117 116.565386 
L 237.879053 116.565386 
L 261.888129 116.565386 
L 261.888129 121.277449 
L 261.997084 121.277449 
L 265.375065 121.277449 
L 265.375065 116.565386 
L 265.484014 116.565386 
L 303.005 116.565386 
L 303.005 116.565386 
" style="fill:none;stroke:#666666;stroke-dasharray:4.5,1.5;stroke-dashoffset:0;stroke-width:1.5;"/>
   </g>
   <g id="line2d_34"/>
   <g id="line2d_35"/>
   <g id="line2d_36"/>
   <g id="line2d_37"/>
   <g id="line2d_38"/>
   <g id="line2d_39"/>
   <g id="line2d_40"/>
   <g id="line2d_41"/>
   <g id="line2d_42"/>
   <g id="line2d_43"/>
   <g id="line2d_44"/>
   <g id="line2d_45"/>
   <g id="line2d_46"/>
   <g id="line2d_47"/>
   <g id="line2d_48"/>
   <g id="line2d_49"/>
   <g id="line2d_50"/>
   <g id="patch_3">
    <path d="M 43.55 220.230771 
L 43.55 12.9 
" style="fill:none;stroke:#000000;stroke-linecap:square;stroke-linejoin:miter;stroke-width:0.8;"/>
   </g>
   <g id="patch_4">
    <path d="M 315.36 220.230771 
L 315.36 12.9 
" style="fill:none;stroke:#000000;stroke-linecap:square;stroke-linejoin:miter;stroke-width:0.8;"/>
   </g>
   <g id="patch_5">
    <path d="M 43.55 220.230771 
L 315.36 220.230771 
" style="fill:none;stroke:#000000;stroke-linecap:square;stroke-linejoin:miter;stroke-width:0.8;"/>
   </g>
   <g id="patch_6">
    <path d="M 43.55 12.9 
L 315.36 12.9 
" style="fill:none;stroke:#000000;stroke-linecap:square;stroke-linejoin:miter;stroke-width:0.8;"/>
   </g>
  </g>
  <g id="legend_1">
   <g id="patch_7">
    <path d="M 331.8625 262.528125 
L 420 262.528125 
Q 422 262.528125 422 260.528125 
L 422 12 
Q 422 10 420 10 
L 331.8625 10 
Q 329.8625 10 329.8625 12 
L 329.8625 260.528125 
Q 329.8625 262.528125 331.8625 262.528125 
z
" style="fill:#ffffff;opacity:0.8;stroke:#cccccc;stroke-linejoin:miter;"/>
   </g>
   <g id="text_20">
    <!-- 495/610 Reg. -->
    <defs>
     <path d="M 25.390625 72.90625 
L 33.6875 72.90625 
L 8.296875 -9.28125 
L 0 -9.28125 
z
" id="DejaVuSans-47"/>
     <path d="M 33.015625 40.375 
Q 26.375 40.375 22.484375 35.828125 
Q 18.609375 31.296875 18.609375 23.390625 
Q 18.609375 15.53125 22.484375 10.953125 
Q 26.375 6.390625 33.015625 6.390625 
Q 39.65625 6.390625 43.53125 10.953125 
Q 47.40625 15.53125 47.40625 23.390625 
Q 47.40625 31.296875 43.53125 35.828125 
Q 39.65625 40.375 33.015625 40.375 
z
M 52.59375 71.296875 
L 52.59375 62.3125 
Q 48.875 64.0625 45.09375 64.984375 
Q 41.3125 65.921875 37.59375 65.921875 
Q 27.828125 65.921875 22.671875 59.328125 
Q 17.53125 52.734375 16.796875 39.40625 
Q 19.671875 43.65625 24.015625 45.921875 
Q 28.375 48.1875 33.59375 48.1875 
Q 44.578125 48.1875 50.953125 41.515625 
Q 57.328125 34.859375 57.328125 23.390625 
Q 57.328125 12.15625 50.6875 5.359375 
Q 44.046875 -1.421875 33.015625 -1.421875 
Q 20.359375 -1.421875 13.671875 8.265625 
Q 6.984375 17.96875 6.984375 36.375 
Q 6.984375 53.65625 15.1875 63.9375 
Q 23.390625 74.21875 37.203125 74.21875 
Q 40.921875 74.21875 44.703125 73.484375 
Q 48.484375 72.75 52.59375 71.296875 
z
" id="DejaVuSans-54"/>
     <path d="M 10.6875 12.40625 
L 21 12.40625 
L 21 0 
L 10.6875 0 
z
" id="DejaVuSans-46"/>
    </defs>
    <g transform="translate(342.259375 21.598437)scale(0.1 -0.1)">
     <use xlink:href="#DejaVuSans-52"/>
     <use x="63.623047" xlink:href="#DejaVuSans-57"/>
     <use x="127.246094" xlink:href="#DejaVuSans-53"/>
     <use x="190.869141" xlink:href="#DejaVuSans-47"/>
     <use x="224.560547" xlink:href="#DejaVuSans-54"/>
     <use x="288.183594" xlink:href="#DejaVuSans-49"/>
     <use x="351.806641" xlink:href="#DejaVuSans-48"/>
     <use x="415.429688" xlink:href="#DejaVuSans-32"/>
     <use x="447.216797" xlink:href="#DejaVuSans-82"/>
     <use x="516.636719" xlink:href="#DejaVuSans-101"/>
     <use x="578.160156" xlink:href="#DejaVuSans-103"/>
     <use x="641.636719" xlink:href="#DejaVuSans-46"/>
    </g>
   </g>
   <g id="line2d_51">
    <path d="M 333.8625 32.776562 
L 353.8625 32.776562 
" style="fill:none;stroke:#1b9e77;stroke-linecap:square;stroke-width:1.5;"/>
   </g>
   <g id="line2d_52"/>
   <g id="text_21">
    <!-- SA (40) -->
    <defs>
     <path d="M 34.1875 63.1875 
L 20.796875 26.90625 
L 47.609375 26.90625 
z
M 28.609375 72.90625 
L 39.796875 72.90625 
L 67.578125 0 
L 57.328125 0 
L 50.6875 18.703125 
L 17.828125 18.703125 
L 11.1875 0 
L 0.78125 0 
z
" id="DejaVuSans-65"/>
     <path d="M 31 75.875 
Q 24.46875 64.65625 21.28125 53.65625 
Q 18.109375 42.671875 18.109375 31.390625 
Q 18.109375 20.125 21.3125 9.0625 
Q 24.515625 -2 31 -13.1875 
L 23.1875 -13.1875 
Q 15.875 -1.703125 12.234375 9.375 
Q 8.59375 20.453125 8.59375 31.390625 
Q 8.59375 42.28125 12.203125 53.3125 
Q 15.828125 64.359375 23.1875 75.875 
z
" id="DejaVuSans-40"/>
     <path d="M 8.015625 75.875 
L 15.828125 75.875 
Q 23.140625 64.359375 26.78125 53.3125 
Q 30.421875 42.28125 30.421875 31.390625 
Q 30.421875 20.453125 26.78125 9.375 
Q 23.140625 -1.703125 15.828125 -13.1875 
L 8.015625 -13.1875 
Q 14.5 -2 17.703125 9.0625 
Q 20.90625 20.125 20.90625 31.390625 
Q 20.90625 42.671875 17.703125 53.65625 
Q 14.5 64.65625 8.015625 75.875 
z
" id="DejaVuSans-41"/>
    </defs>
    <g transform="translate(361.8625 36.276562)scale(0.1 -0.1)">
     <use xlink:href="#DejaVuSans-83"/>
     <use x="63.492188" xlink:href="#DejaVuSans-65"/>
     <use x="131.900391" xlink:href="#DejaVuSans-32"/>
     <use x="163.6875" xlink:href="#DejaVuSans-40"/>
     <use x="202.701172" xlink:href="#DejaVuSans-52"/>
     <use x="266.324219" xlink:href="#DejaVuSans-48"/>
     <use x="329.947266" xlink:href="#DejaVuSans-41"/>
    </g>
   </g>
   <g id="line2d_53">
    <path d="M 333.8625 47.454688 
L 353.8625 47.454688 
" style="fill:none;stroke:#d95f02;stroke-linecap:square;stroke-width:1.5;"/>
   </g>
   <g id="line2d_54"/>
   <g id="text_22">
    <!-- AS (40) -->
    <g transform="translate(361.8625 50.954688)scale(0.1 -0.1)">
     <use xlink:href="#DejaVuSans-65"/>
     <use x="68.408203" xlink:href="#DejaVuSans-83"/>
     <use x="131.884766" xlink:href="#DejaVuSans-32"/>
     <use x="163.671875" xlink:href="#DejaVuSans-40"/>
     <use x="202.685547" xlink:href="#DejaVuSans-52"/>
     <use x="266.308594" xlink:href="#DejaVuSans-48"/>
     <use x="329.931641" xlink:href="#DejaVuSans-41"/>
    </g>
   </g>
   <g id="line2d_55">
    <path d="M 333.8625 62.132812 
L 353.8625 62.132812 
" style="fill:none;stroke:#7570b3;stroke-linecap:square;stroke-width:1.5;"/>
   </g>
   <g id="line2d_56"/>
   <g id="text_23">
    <!-- AUS (40) -->
    <defs>
     <path d="M 8.6875 72.90625 
L 18.609375 72.90625 
L 18.609375 28.609375 
Q 18.609375 16.890625 22.84375 11.734375 
Q 27.09375 6.59375 36.625 6.59375 
Q 46.09375 6.59375 50.34375 11.734375 
Q 54.59375 16.890625 54.59375 28.609375 
L 54.59375 72.90625 
L 64.5 72.90625 
L 64.5 27.390625 
Q 64.5 13.140625 57.4375 5.859375 
Q 50.390625 -1.421875 36.625 -1.421875 
Q 22.796875 -1.421875 15.734375 5.859375 
Q 8.6875 13.140625 8.6875 27.390625 
z
" id="DejaVuSans-85"/>
    </defs>
    <g transform="translate(361.8625 65.632812)scale(0.1 -0.1)">
     <use xlink:href="#DejaVuSans-65"/>
     <use x="68.408203" xlink:href="#DejaVuSans-85"/>
     <use x="141.601562" xlink:href="#DejaVuSans-83"/>
     <use x="205.078125" xlink:href="#DejaVuSans-32"/>
     <use x="236.865234" xlink:href="#DejaVuSans-40"/>
     <use x="275.878906" xlink:href="#DejaVuSans-52"/>
     <use x="339.501953" xlink:href="#DejaVuSans-48"/>
     <use x="403.125" xlink:href="#DejaVuSans-41"/>
    </g>
   </g>
   <g id="line2d_57">
    <path d="M 333.8625 76.810937 
L 353.8625 76.810937 
" style="fill:none;stroke:#e7298a;stroke-linecap:square;stroke-width:1.5;"/>
   </g>
   <g id="line2d_58"/>
   <g id="text_24">
    <!-- COML (40) -->
    <defs>
     <path d="M 64.40625 67.28125 
L 64.40625 56.890625 
Q 59.421875 61.53125 53.78125 63.8125 
Q 48.140625 66.109375 41.796875 66.109375 
Q 29.296875 66.109375 22.65625 58.46875 
Q 16.015625 50.828125 16.015625 36.375 
Q 16.015625 21.96875 22.65625 14.328125 
Q 29.296875 6.6875 41.796875 6.6875 
Q 48.140625 6.6875 53.78125 8.984375 
Q 59.421875 11.28125 64.40625 15.921875 
L 64.40625 5.609375 
Q 59.234375 2.09375 53.4375 0.328125 
Q 47.65625 -1.421875 41.21875 -1.421875 
Q 24.65625 -1.421875 15.125 8.703125 
Q 5.609375 18.84375 5.609375 36.375 
Q 5.609375 53.953125 15.125 64.078125 
Q 24.65625 74.21875 41.21875 74.21875 
Q 47.75 74.21875 53.53125 72.484375 
Q 59.328125 70.75 64.40625 67.28125 
z
" id="DejaVuSans-67"/>
     <path d="M 39.40625 66.21875 
Q 28.65625 66.21875 22.328125 58.203125 
Q 16.015625 50.203125 16.015625 36.375 
Q 16.015625 22.609375 22.328125 14.59375 
Q 28.65625 6.59375 39.40625 6.59375 
Q 50.140625 6.59375 56.421875 14.59375 
Q 62.703125 22.609375 62.703125 36.375 
Q 62.703125 50.203125 56.421875 58.203125 
Q 50.140625 66.21875 39.40625 66.21875 
z
M 39.40625 74.21875 
Q 54.734375 74.21875 63.90625 63.9375 
Q 73.09375 53.65625 73.09375 36.375 
Q 73.09375 19.140625 63.90625 8.859375 
Q 54.734375 -1.421875 39.40625 -1.421875 
Q 24.03125 -1.421875 14.8125 8.828125 
Q 5.609375 19.09375 5.609375 36.375 
Q 5.609375 53.65625 14.8125 63.9375 
Q 24.03125 74.21875 39.40625 74.21875 
z
" id="DejaVuSans-79"/>
     <path d="M 9.8125 72.90625 
L 24.515625 72.90625 
L 43.109375 23.296875 
L 61.8125 72.90625 
L 76.515625 72.90625 
L 76.515625 0 
L 66.890625 0 
L 66.890625 64.015625 
L 48.09375 14.015625 
L 38.1875 14.015625 
L 19.390625 64.015625 
L 19.390625 0 
L 9.8125 0 
z
" id="DejaVuSans-77"/>
     <path d="M 9.8125 72.90625 
L 19.671875 72.90625 
L 19.671875 8.296875 
L 55.171875 8.296875 
L 55.171875 0 
L 9.8125 0 
z
" id="DejaVuSans-76"/>
    </defs>
    <g transform="translate(361.8625 80.310937)scale(0.1 -0.1)">
     <use xlink:href="#DejaVuSans-67"/>
     <use x="69.824219" xlink:href="#DejaVuSans-79"/>
     <use x="148.535156" xlink:href="#DejaVuSans-77"/>
     <use x="234.814453" xlink:href="#DejaVuSans-76"/>
     <use x="290.527344" xlink:href="#DejaVuSans-32"/>
     <use x="322.314453" xlink:href="#DejaVuSans-40"/>
     <use x="361.328125" xlink:href="#DejaVuSans-52"/>
     <use x="424.951172" xlink:href="#DejaVuSans-48"/>
     <use x="488.574219" xlink:href="#DejaVuSans-41"/>
    </g>
   </g>
   <g id="line2d_59">
    <path d="M 333.8625 91.489062 
L 353.8625 91.489062 
" style="fill:none;stroke:#66a61e;stroke-linecap:square;stroke-width:1.5;"/>
   </g>
   <g id="line2d_60"/>
   <g id="text_25">
    <!-- GDD (40) -->
    <defs>
     <path d="M 59.515625 10.40625 
L 59.515625 29.984375 
L 43.40625 29.984375 
L 43.40625 38.09375 
L 69.28125 38.09375 
L 69.28125 6.78125 
Q 63.578125 2.734375 56.6875 0.65625 
Q 49.8125 -1.421875 42 -1.421875 
Q 24.90625 -1.421875 15.25 8.5625 
Q 5.609375 18.5625 5.609375 36.375 
Q 5.609375 54.25 15.25 64.234375 
Q 24.90625 74.21875 42 74.21875 
Q 49.125 74.21875 55.546875 72.453125 
Q 61.96875 70.703125 67.390625 67.28125 
L 67.390625 56.78125 
Q 61.921875 61.421875 55.765625 63.765625 
Q 49.609375 66.109375 42.828125 66.109375 
Q 29.4375 66.109375 22.71875 58.640625 
Q 16.015625 51.171875 16.015625 36.375 
Q 16.015625 21.625 22.71875 14.15625 
Q 29.4375 6.6875 42.828125 6.6875 
Q 48.046875 6.6875 52.140625 7.59375 
Q 56.25 8.5 59.515625 10.40625 
z
" id="DejaVuSans-71"/>
    </defs>
    <g transform="translate(361.8625 94.989062)scale(0.1 -0.1)">
     <use xlink:href="#DejaVuSans-71"/>
     <use x="77.490234" xlink:href="#DejaVuSans-68"/>
     <use x="154.492188" xlink:href="#DejaVuSans-68"/>
     <use x="231.494141" xlink:href="#DejaVuSans-32"/>
     <use x="263.28125" xlink:href="#DejaVuSans-40"/>
     <use x="302.294922" xlink:href="#DejaVuSans-52"/>
     <use x="365.917969" xlink:href="#DejaVuSans-48"/>
     <use x="429.541016" xlink:href="#DejaVuSans-41"/>
    </g>
   </g>
   <g id="line2d_61">
    <path d="M 333.8625 106.167188 
L 353.8625 106.167188 
" style="fill:none;stroke:#e6ab02;stroke-linecap:square;stroke-width:1.5;"/>
   </g>
   <g id="line2d_62"/>
   <g id="text_26">
    <!-- MD (38) -->
    <defs>
     <path d="M 31.78125 34.625 
Q 24.75 34.625 20.71875 30.859375 
Q 16.703125 27.09375 16.703125 20.515625 
Q 16.703125 13.921875 20.71875 10.15625 
Q 24.75 6.390625 31.78125 6.390625 
Q 38.8125 6.390625 42.859375 10.171875 
Q 46.921875 13.96875 46.921875 20.515625 
Q 46.921875 27.09375 42.890625 30.859375 
Q 38.875 34.625 31.78125 34.625 
z
M 21.921875 38.8125 
Q 15.578125 40.375 12.03125 44.71875 
Q 8.5 49.078125 8.5 55.328125 
Q 8.5 64.0625 14.71875 69.140625 
Q 20.953125 74.21875 31.78125 74.21875 
Q 42.671875 74.21875 48.875 69.140625 
Q 55.078125 64.0625 55.078125 55.328125 
Q 55.078125 49.078125 51.53125 44.71875 
Q 48 40.375 41.703125 38.8125 
Q 48.828125 37.15625 52.796875 32.3125 
Q 56.78125 27.484375 56.78125 20.515625 
Q 56.78125 9.90625 50.3125 4.234375 
Q 43.84375 -1.421875 31.78125 -1.421875 
Q 19.734375 -1.421875 13.25 4.234375 
Q 6.78125 9.90625 6.78125 20.515625 
Q 6.78125 27.484375 10.78125 32.3125 
Q 14.796875 37.15625 21.921875 38.8125 
z
M 18.3125 54.390625 
Q 18.3125 48.734375 21.84375 45.5625 
Q 25.390625 42.390625 31.78125 42.390625 
Q 38.140625 42.390625 41.71875 45.5625 
Q 45.3125 48.734375 45.3125 54.390625 
Q 45.3125 60.0625 41.71875 63.234375 
Q 38.140625 66.40625 31.78125 66.40625 
Q 25.390625 66.40625 21.84375 63.234375 
Q 18.3125 60.0625 18.3125 54.390625 
z
" id="DejaVuSans-56"/>
    </defs>
    <g transform="translate(361.8625 109.667188)scale(0.1 -0.1)">
     <use xlink:href="#DejaVuSans-77"/>
     <use x="86.279297" xlink:href="#DejaVuSans-68"/>
     <use x="163.28125" xlink:href="#DejaVuSans-32"/>
     <use x="195.068359" xlink:href="#DejaVuSans-40"/>
     <use x="234.082031" xlink:href="#DejaVuSans-51"/>
     <use x="297.705078" xlink:href="#DejaVuSans-56"/>
     <use x="361.328125" xlink:href="#DejaVuSans-41"/>
    </g>
   </g>
   <g id="line2d_63">
    <path d="M 333.8625 120.845312 
L 353.8625 120.845312 
" style="fill:none;stroke:#a6761d;stroke-linecap:square;stroke-width:1.5;"/>
   </g>
   <g id="line2d_64"/>
   <g id="text_27">
    <!-- HPI (38) -->
    <defs>
     <path d="M 9.8125 72.90625 
L 19.671875 72.90625 
L 19.671875 43.015625 
L 55.515625 43.015625 
L 55.515625 72.90625 
L 65.375 72.90625 
L 65.375 0 
L 55.515625 0 
L 55.515625 34.71875 
L 19.671875 34.71875 
L 19.671875 0 
L 9.8125 0 
z
" id="DejaVuSans-72"/>
     <path d="M 19.671875 64.796875 
L 19.671875 37.40625 
L 32.078125 37.40625 
Q 38.96875 37.40625 42.71875 40.96875 
Q 46.484375 44.53125 46.484375 51.125 
Q 46.484375 57.671875 42.71875 61.234375 
Q 38.96875 64.796875 32.078125 64.796875 
z
M 9.8125 72.90625 
L 32.078125 72.90625 
Q 44.34375 72.90625 50.609375 67.359375 
Q 56.890625 61.8125 56.890625 51.125 
Q 56.890625 40.328125 50.609375 34.8125 
Q 44.34375 29.296875 32.078125 29.296875 
L 19.671875 29.296875 
L 19.671875 0 
L 9.8125 0 
z
" id="DejaVuSans-80"/>
     <path d="M 9.8125 72.90625 
L 19.671875 72.90625 
L 19.671875 0 
L 9.8125 0 
z
" id="DejaVuSans-73"/>
    </defs>
    <g transform="translate(361.8625 124.345312)scale(0.1 -0.1)">
     <use xlink:href="#DejaVuSans-72"/>
     <use x="75.195312" xlink:href="#DejaVuSans-80"/>
     <use x="135.498047" xlink:href="#DejaVuSans-73"/>
     <use x="164.990234" xlink:href="#DejaVuSans-32"/>
     <use x="196.777344" xlink:href="#DejaVuSans-40"/>
     <use x="235.791016" xlink:href="#DejaVuSans-51"/>
     <use x="299.414062" xlink:href="#DejaVuSans-56"/>
     <use x="363.037109" xlink:href="#DejaVuSans-41"/>
    </g>
   </g>
   <g id="line2d_65">
    <path d="M 333.8625 135.523438 
L 353.8625 135.523438 
" style="fill:none;stroke:#666666;stroke-linecap:square;stroke-width:1.5;"/>
   </g>
   <g id="line2d_66"/>
   <g id="text_28">
    <!-- TBI (28) -->
    <defs>
     <path d="M -0.296875 72.90625 
L 61.375 72.90625 
L 61.375 64.59375 
L 35.5 64.59375 
L 35.5 0 
L 25.59375 0 
L 25.59375 64.59375 
L -0.296875 64.59375 
z
" id="DejaVuSans-84"/>
     <path d="M 19.671875 34.8125 
L 19.671875 8.109375 
L 35.5 8.109375 
Q 43.453125 8.109375 47.28125 11.40625 
Q 51.125 14.703125 51.125 21.484375 
Q 51.125 28.328125 47.28125 31.5625 
Q 43.453125 34.8125 35.5 34.8125 
z
M 19.671875 64.796875 
L 19.671875 42.828125 
L 34.28125 42.828125 
Q 41.5 42.828125 45.03125 45.53125 
Q 48.578125 48.25 48.578125 53.8125 
Q 48.578125 59.328125 45.03125 62.0625 
Q 41.5 64.796875 34.28125 64.796875 
z
M 9.8125 72.90625 
L 35.015625 72.90625 
Q 46.296875 72.90625 52.390625 68.21875 
Q 58.5 63.53125 58.5 54.890625 
Q 58.5 48.1875 55.375 44.234375 
Q 52.25 40.28125 46.1875 39.3125 
Q 53.46875 37.75 57.5 32.78125 
Q 61.53125 27.828125 61.53125 20.40625 
Q 61.53125 10.640625 54.890625 5.3125 
Q 48.25 0 35.984375 0 
L 9.8125 0 
z
" id="DejaVuSans-66"/>
    </defs>
    <g transform="translate(361.8625 139.023438)scale(0.1 -0.1)">
     <use xlink:href="#DejaVuSans-84"/>
     <use x="61.083984" xlink:href="#DejaVuSans-66"/>
     <use x="129.6875" xlink:href="#DejaVuSans-73"/>
     <use x="159.179688" xlink:href="#DejaVuSans-32"/>
     <use x="190.966797" xlink:href="#DejaVuSans-40"/>
     <use x="229.980469" xlink:href="#DejaVuSans-50"/>
     <use x="293.603516" xlink:href="#DejaVuSans-56"/>
     <use x="357.226562" xlink:href="#DejaVuSans-41"/>
    </g>
   </g>
   <g id="line2d_67">
    <path d="M 333.8625 150.201562 
L 353.8625 150.201562 
" style="fill:none;stroke:#1b9e77;stroke-dasharray:4.5,1.5;stroke-dashoffset:0;stroke-width:1.5;"/>
   </g>
   <g id="line2d_68"/>
   <g id="text_29">
    <!-- FIT (27) -->
    <defs>
     <path d="M 9.8125 72.90625 
L 51.703125 72.90625 
L 51.703125 64.59375 
L 19.671875 64.59375 
L 19.671875 43.109375 
L 48.578125 43.109375 
L 48.578125 34.8125 
L 19.671875 34.8125 
L 19.671875 0 
L 9.8125 0 
z
" id="DejaVuSans-70"/>
     <path d="M 8.203125 72.90625 
L 55.078125 72.90625 
L 55.078125 68.703125 
L 28.609375 0 
L 18.3125 0 
L 43.21875 64.59375 
L 8.203125 64.59375 
z
" id="DejaVuSans-55"/>
    </defs>
    <g transform="translate(361.8625 153.701562)scale(0.1 -0.1)">
     <use xlink:href="#DejaVuSans-70"/>
     <use x="57.519531" xlink:href="#DejaVuSans-73"/>
     <use x="87.011719" xlink:href="#DejaVuSans-84"/>
     <use x="148.095703" xlink:href="#DejaVuSans-32"/>
     <use x="179.882812" xlink:href="#DejaVuSans-40"/>
     <use x="218.896484" xlink:href="#DejaVuSans-50"/>
     <use x="282.519531" xlink:href="#DejaVuSans-55"/>
     <use x="346.142578" xlink:href="#DejaVuSans-41"/>
    </g>
   </g>
   <g id="line2d_69">
    <path d="M 333.8625 164.879687 
L 353.8625 164.879687 
" style="fill:none;stroke:#d95f02;stroke-dasharray:4.5,1.5;stroke-dashoffset:0;stroke-width:1.5;"/>
   </g>
   <g id="line2d_70"/>
   <g id="text_30">
    <!-- CB (26) -->
    <g transform="translate(361.8625 168.379687)scale(0.1 -0.1)">
     <use xlink:href="#DejaVuSans-67"/>
     <use x="69.824219" xlink:href="#DejaVuSans-66"/>
     <use x="138.427734" xlink:href="#DejaVuSans-32"/>
     <use x="170.214844" xlink:href="#DejaVuSans-40"/>
     <use x="209.228516" xlink:href="#DejaVuSans-50"/>
     <use x="272.851562" xlink:href="#DejaVuSans-54"/>
     <use x="336.474609" xlink:href="#DejaVuSans-41"/>
    </g>
   </g>
   <g id="line2d_71">
    <path d="M 333.8625 179.557812 
L 353.8625 179.557812 
" style="fill:none;stroke:#7570b3;stroke-dasharray:4.5,1.5;stroke-dashoffset:0;stroke-width:1.5;"/>
   </g>
   <g id="line2d_72"/>
   <g id="text_31">
    <!-- BP (26) -->
    <g transform="translate(361.8625 183.057812)scale(0.1 -0.1)">
     <use xlink:href="#DejaVuSans-66"/>
     <use x="68.603516" xlink:href="#DejaVuSans-80"/>
     <use x="128.90625" xlink:href="#DejaVuSans-32"/>
     <use x="160.693359" xlink:href="#DejaVuSans-40"/>
     <use x="199.707031" xlink:href="#DejaVuSans-50"/>
     <use x="263.330078" xlink:href="#DejaVuSans-54"/>
     <use x="326.953125" xlink:href="#DejaVuSans-41"/>
    </g>
   </g>
   <g id="line2d_73">
    <path d="M 333.8625 194.235937 
L 353.8625 194.235937 
" style="fill:none;stroke:#e7298a;stroke-dasharray:4.5,1.5;stroke-dashoffset:0;stroke-width:1.5;"/>
   </g>
   <g id="line2d_74"/>
   <g id="text_32">
    <!-- RJPH (24) -->
    <defs>
     <path d="M 9.8125 72.90625 
L 19.671875 72.90625 
L 19.671875 5.078125 
Q 19.671875 -8.109375 14.671875 -14.0625 
Q 9.671875 -20.015625 -1.421875 -20.015625 
L -5.171875 -20.015625 
L -5.171875 -11.71875 
L -2.09375 -11.71875 
Q 4.4375 -11.71875 7.125 -8.046875 
Q 9.8125 -4.390625 9.8125 5.078125 
z
" id="DejaVuSans-74"/>
    </defs>
    <g transform="translate(361.8625 197.735937)scale(0.1 -0.1)">
     <use xlink:href="#DejaVuSans-82"/>
     <use x="69.482422" xlink:href="#DejaVuSans-74"/>
     <use x="98.974609" xlink:href="#DejaVuSans-80"/>
     <use x="159.277344" xlink:href="#DejaVuSans-72"/>
     <use x="234.472656" xlink:href="#DejaVuSans-32"/>
     <use x="266.259766" xlink:href="#DejaVuSans-40"/>
     <use x="305.273438" xlink:href="#DejaVuSans-50"/>
     <use x="368.896484" xlink:href="#DejaVuSans-52"/>
     <use x="432.519531" xlink:href="#DejaVuSans-41"/>
    </g>
   </g>
   <g id="line2d_75">
    <path d="M 333.8625 208.914062 
L 353.8625 208.914062 
" style="fill:none;stroke:#66a61e;stroke-dasharray:4.5,1.5;stroke-dashoffset:0;stroke-width:1.5;"/>
   </g>
   <g id="line2d_76"/>
   <g id="text_33">
    <!-- SPD (24) -->
    <g transform="translate(361.8625 212.414062)scale(0.1 -0.1)">
     <use xlink:href="#DejaVuSans-83"/>
     <use x="63.476562" xlink:href="#DejaVuSans-80"/>
     <use x="123.779297" xlink:href="#DejaVuSans-68"/>
     <use x="200.78125" xlink:href="#DejaVuSans-32"/>
     <use x="232.568359" xlink:href="#DejaVuSans-40"/>
     <use x="271.582031" xlink:href="#DejaVuSans-50"/>
     <use x="335.205078" xlink:href="#DejaVuSans-52"/>
     <use x="398.828125" xlink:href="#DejaVuSans-41"/>
    </g>
   </g>
   <g id="line2d_77">
    <path d="M 333.8625 223.592187 
L 353.8625 223.592187 
" style="fill:none;stroke:#e6ab02;stroke-dasharray:4.5,1.5;stroke-dashoffset:0;stroke-width:1.5;"/>
   </g>
   <g id="line2d_78"/>
   <g id="text_34">
    <!-- CC (24) -->
    <g transform="translate(361.8625 227.092187)scale(0.1 -0.1)">
     <use xlink:href="#DejaVuSans-67"/>
     <use x="69.824219" xlink:href="#DejaVuSans-67"/>
     <use x="139.648438" xlink:href="#DejaVuSans-32"/>
     <use x="171.435547" xlink:href="#DejaVuSans-40"/>
     <use x="210.449219" xlink:href="#DejaVuSans-50"/>
     <use x="274.072266" xlink:href="#DejaVuSans-52"/>
     <use x="337.695312" xlink:href="#DejaVuSans-41"/>
    </g>
   </g>
   <g id="line2d_79">
    <path d="M 333.8625 238.270312 
L 353.8625 238.270312 
" style="fill:none;stroke:#a6761d;stroke-dasharray:4.5,1.5;stroke-dashoffset:0;stroke-width:1.5;"/>
   </g>
   <g id="line2d_80"/>
   <g id="text_35">
    <!-- AHR-H (20) -->
    <g transform="translate(361.8625 241.770312)scale(0.1 -0.1)">
     <use xlink:href="#DejaVuSans-65"/>
     <use x="68.408203" xlink:href="#DejaVuSans-72"/>
     <use x="143.603516" xlink:href="#DejaVuSans-82"/>
     <use x="213.023438" xlink:href="#DejaVuSans-45"/>
     <use x="249.107422" xlink:href="#DejaVuSans-72"/>
     <use x="324.302734" xlink:href="#DejaVuSans-32"/>
     <use x="356.089844" xlink:href="#DejaVuSans-40"/>
     <use x="395.103516" xlink:href="#DejaVuSans-50"/>
     <use x="458.726562" xlink:href="#DejaVuSans-48"/>
     <use x="522.349609" xlink:href="#DejaVuSans-41"/>
    </g>
   </g>
   <g id="line2d_81">
    <path d="M 333.8625 252.948437 
L 353.8625 252.948437 
" style="fill:none;stroke:#666666;stroke-dasharray:4.5,1.5;stroke-dashoffset:0;stroke-width:1.5;"/>
   </g>
   <g id="line2d_82"/>
   <g id="text_36">
    <!-- AHR-A (20) -->
    <g transform="translate(361.8625 256.448437)scale(0.1 -0.1)">
     <use xlink:href="#DejaVuSans-65"/>
     <use x="68.408203" xlink:href="#DejaVuSans-72"/>
     <use x="143.603516" xlink:href="#DejaVuSans-82"/>
     <use x="213.023438" xlink:href="#DejaVuSans-45"/>
     <use x="249.076172" xlink:href="#DejaVuSans-65"/>
     <use x="317.484375" xlink:href="#DejaVuSans-32"/>
     <use x="349.271484" xlink:href="#DejaVuSans-40"/>
     <use x="388.285156" xlink:href="#DejaVuSans-50"/>
     <use x="451.908203" xlink:href="#DejaVuSans-48"/>
     <use x="515.53125" xlink:href="#DejaVuSans-41"/>
    </g>
   </g>
  </g>
 </g>
 <defs>
  <clipPath id="pc03840a4ae">
   <rect height="207.330771" width="271.81" x="43.55" y="12.9"/>
  </clipPath>
 </defs>
</svg>
