<?xml version="1.0" encoding="utf-8" standalone="no"?>
<!DOCTYPE svg PUBLIC "-//W3C//DTD SVG 1.1//EN"
  "http://www.w3.org/Graphics/SVG/1.1/DTD/svg11.dtd">
<!-- Created with matplotlib (https://matplotlib.org/) -->
<svg height="288pt" version="1.1" viewBox="0 0 432 288" width="432pt" xmlns="http://www.w3.org/2000/svg" xmlns:xlink="http://www.w3.org/1999/xlink">
 <defs>
  <style type="text/css">
*{stroke-linecap:butt;stroke-linejoin:round;}
  </style>
 </defs>
 <g id="figure_1">
  <g id="patch_1">
   <path d="M 0 288 
L 432 288 
L 432 0 
L 0 0 
z
" style="fill:#ffffff;"/>
  </g>
  <g id="axes_1">
   <g id="patch_2">
    <path d="M 43.55 220.230771 
L 315.36 220.230771 
L 315.36 12.9 
L 43.55 12.9 
z
" style="fill:#ffffff;"/>
   </g>
   <g id="matplotlib.axis_1">
    <g id="xtick_1">
     <g id="line2d_1">
      <defs>
       <path d="M 0 0 
L 0 3.5 
" id="ma29ff24276" style="stroke:#000000;stroke-width:0.8;"/>
      </defs>
      <g>
       <use style="stroke:#000000;stroke-width:0.8;" x="46.859693" xlink:href="#ma29ff24276" y="220.230771"/>
      </g>
     </g>
     <g id="text_1">
      <!-- 2020-11-29 -->
      <defs>
       <path d="M 19.1875 8.296875 
L 53.609375 8.296875 
L 53.609375 0 
L 7.328125 0 
L 7.328125 8.296875 
Q 12.9375 14.109375 22.625 23.890625 
Q 32.328125 33.6875 34.8125 36.53125 
Q 39.546875 41.84375 41.421875 45.53125 
Q 43.3125 49.21875 43.3125 52.78125 
Q 43.3125 58.59375 39.234375 62.25 
Q 35.15625 65.921875 28.609375 65.921875 
Q 23.96875 65.921875 18.8125 64.3125 
Q 13.671875 62.703125 7.8125 59.421875 
L 7.8125 69.390625 
Q 13.765625 71.78125 18.9375 73 
Q 24.125 74.21875 28.421875 74.21875 
Q 39.75 74.21875 46.484375 68.546875 
Q 53.21875 62.890625 53.21875 53.421875 
Q 53.21875 48.921875 51.53125 44.890625 
Q 49.859375 40.875 45.40625 35.40625 
Q 44.1875 33.984375 37.640625 27.21875 
Q 31.109375 20.453125 19.1875 8.296875 
z
" id="DejaVuSans-50"/>
       <path d="M 31.78125 66.40625 
Q 24.171875 66.40625 20.328125 58.90625 
Q 16.5 51.421875 16.5 36.375 
Q 16.5 21.390625 20.328125 13.890625 
Q 24.171875 6.390625 31.78125 6.390625 
Q 39.453125 6.390625 43.28125 13.890625 
Q 47.125 21.390625 47.125 36.375 
Q 47.125 51.421875 43.28125 58.90625 
Q 39.453125 66.40625 31.78125 66.40625 
z
M 31.78125 74.21875 
Q 44.046875 74.21875 50.515625 64.515625 
Q 56.984375 54.828125 56.984375 36.375 
Q 56.984375 17.96875 50.515625 8.265625 
Q 44.046875 -1.421875 31.78125 -1.421875 
Q 19.53125 -1.421875 13.0625 8.265625 
Q 6.59375 17.96875 6.59375 36.375 
Q 6.59375 54.828125 13.0625 64.515625 
Q 19.53125 74.21875 31.78125 74.21875 
z
" id="DejaVuSans-48"/>
       <path d="M 4.890625 31.390625 
L 31.203125 31.390625 
L 31.203125 23.390625 
L 4.890625 23.390625 
z
" id="DejaVuSans-45"/>
       <path d="M 12.40625 8.296875 
L 28.515625 8.296875 
L 28.515625 63.921875 
L 10.984375 60.40625 
L 10.984375 69.390625 
L 28.421875 72.90625 
L 38.28125 72.90625 
L 38.28125 8.296875 
L 54.390625 8.296875 
L 54.390625 0 
L 12.40625 0 
z
" id="DejaVuSans-49"/>
       <path d="M 10.984375 1.515625 
L 10.984375 10.5 
Q 14.703125 8.734375 18.5 7.8125 
Q 22.3125 6.890625 25.984375 6.890625 
Q 35.75 6.890625 40.890625 13.453125 
Q 46.046875 20.015625 46.78125 33.40625 
Q 43.953125 29.203125 39.59375 26.953125 
Q 35.25 24.703125 29.984375 24.703125 
Q 19.046875 24.703125 12.671875 31.3125 
Q 6.296875 37.9375 6.296875 49.421875 
Q 6.296875 60.640625 12.9375 67.421875 
Q 19.578125 74.21875 30.609375 74.21875 
Q 43.265625 74.21875 49.921875 64.515625 
Q 56.59375 54.828125 56.59375 36.375 
Q 56.59375 19.140625 48.40625 8.859375 
Q 40.234375 -1.421875 26.421875 -1.421875 
Q 22.703125 -1.421875 18.890625 -0.6875 
Q 15.09375 0.046875 10.984375 1.515625 
z
M 30.609375 32.421875 
Q 37.25 32.421875 41.125 36.953125 
Q 45.015625 41.5 45.015625 49.421875 
Q 45.015625 57.28125 41.125 61.84375 
Q 37.25 66.40625 30.609375 66.40625 
Q 23.96875 66.40625 20.09375 61.84375 
Q 16.21875 57.28125 16.21875 49.421875 
Q 16.21875 41.5 20.09375 36.953125 
Q 23.96875 32.421875 30.609375 32.421875 
z
" id="DejaVuSans-57"/>
      </defs>
      <g transform="translate(23.074576 262.869024)rotate(-30)scale(0.1 -0.1)">
       <use xlink:href="#DejaVuSans-50"/>
       <use x="63.623047" xlink:href="#DejaVuSans-48"/>
       <use x="127.246094" xlink:href="#DejaVuSans-50"/>
       <use x="190.869141" xlink:href="#DejaVuSans-48"/>
       <use x="254.492188" xlink:href="#DejaVuSans-45"/>
       <use x="290.576172" xlink:href="#DejaVuSans-49"/>
       <use x="354.199219" xlink:href="#DejaVuSans-49"/>
       <use x="417.822266" xlink:href="#DejaVuSans-45"/>
       <use x="453.90625" xlink:href="#DejaVuSans-50"/>
       <use x="517.529297" xlink:href="#DejaVuSans-57"/>
      </g>
     </g>
    </g>
    <g id="xtick_2">
     <g id="line2d_2">
      <g>
       <use style="stroke:#000000;stroke-width:0.8;" x="59.351387" xlink:href="#ma29ff24276" y="220.230771"/>
      </g>
     </g>
     <g id="text_2">
      <!-- 2020-12-01 -->
      <g transform="translate(35.56627 262.869024)rotate(-30)scale(0.1 -0.1)">
       <use xlink:href="#DejaVuSans-50"/>
       <use x="63.623047" xlink:href="#DejaVuSans-48"/>
       <use x="127.246094" xlink:href="#DejaVuSans-50"/>
       <use x="190.869141" xlink:href="#DejaVuSans-48"/>
       <use x="254.492188" xlink:href="#DejaVuSans-45"/>
       <use x="290.576172" xlink:href="#DejaVuSans-49"/>
       <use x="354.199219" xlink:href="#DejaVuSans-50"/>
       <use x="417.822266" xlink:href="#DejaVuSans-45"/>
       <use x="453.90625" xlink:href="#DejaVuSans-48"/>
       <use x="517.529297" xlink:href="#DejaVuSans-49"/>
      </g>
     </g>
    </g>
    <g id="xtick_3">
     <g id="line2d_3">
      <g>
       <use style="stroke:#000000;stroke-width:0.8;" x="103.072316" xlink:href="#ma29ff24276" y="220.230771"/>
      </g>
     </g>
     <g id="text_3">
      <!-- 2020-12-08 -->
      <defs>
       <path d="M 31.78125 34.625 
Q 24.75 34.625 20.71875 30.859375 
Q 16.703125 27.09375 16.703125 20.515625 
Q 16.703125 13.921875 20.71875 10.15625 
Q 24.75 6.390625 31.78125 6.390625 
Q 38.8125 6.390625 42.859375 10.171875 
Q 46.921875 13.96875 46.921875 20.515625 
Q 46.921875 27.09375 42.890625 30.859375 
Q 38.875 34.625 31.78125 34.625 
z
M 21.921875 38.8125 
Q 15.578125 40.375 12.03125 44.71875 
Q 8.5 49.078125 8.5 55.328125 
Q 8.5 64.0625 14.71875 69.140625 
Q 20.953125 74.21875 31.78125 74.21875 
Q 42.671875 74.21875 48.875 69.140625 
Q 55.078125 64.0625 55.078125 55.328125 
Q 55.078125 49.078125 51.53125 44.71875 
Q 48 40.375 41.703125 38.8125 
Q 48.828125 37.15625 52.796875 32.3125 
Q 56.78125 27.484375 56.78125 20.515625 
Q 56.78125 9.90625 50.3125 4.234375 
Q 43.84375 -1.421875 31.78125 -1.421875 
Q 19.734375 -1.421875 13.25 4.234375 
Q 6.78125 9.90625 6.78125 20.515625 
Q 6.78125 27.484375 10.78125 32.3125 
Q 14.796875 37.15625 21.921875 38.8125 
z
M 18.3125 54.390625 
Q 18.3125 48.734375 21.84375 45.5625 
Q 25.390625 42.390625 31.78125 42.390625 
Q 38.140625 42.390625 41.71875 45.5625 
Q 45.3125 48.734375 45.3125 54.390625 
Q 45.3125 60.0625 41.71875 63.234375 
Q 38.140625 66.40625 31.78125 66.40625 
Q 25.390625 66.40625 21.84375 63.234375 
Q 18.3125 60.0625 18.3125 54.390625 
z
" id="DejaVuSans-56"/>
      </defs>
      <g transform="translate(79.2872 262.869024)rotate(-30)scale(0.1 -0.1)">
       <use xlink:href="#DejaVuSans-50"/>
       <use x="63.623047" xlink:href="#DejaVuSans-48"/>
       <use x="127.246094" xlink:href="#DejaVuSans-50"/>
       <use x="190.869141" xlink:href="#DejaVuSans-48"/>
       <use x="254.492188" xlink:href="#DejaVuSans-45"/>
       <use x="290.576172" xlink:href="#DejaVuSans-49"/>
       <use x="354.199219" xlink:href="#DejaVuSans-50"/>
       <use x="417.822266" xlink:href="#DejaVuSans-45"/>
       <use x="453.90625" xlink:href="#DejaVuSans-48"/>
       <use x="517.529297" xlink:href="#DejaVuSans-56"/>
      </g>
     </g>
    </g>
    <g id="xtick_4">
     <g id="line2d_4">
      <g>
       <use style="stroke:#000000;stroke-width:0.8;" x="146.793246" xlink:href="#ma29ff24276" y="220.230771"/>
      </g>
     </g>
     <g id="text_4">
      <!-- 2020-12-15 -->
      <defs>
       <path d="M 10.796875 72.90625 
L 49.515625 72.90625 
L 49.515625 64.59375 
L 19.828125 64.59375 
L 19.828125 46.734375 
Q 21.96875 47.46875 24.109375 47.828125 
Q 26.265625 48.1875 28.421875 48.1875 
Q 40.625 48.1875 47.75 41.5 
Q 54.890625 34.8125 54.890625 23.390625 
Q 54.890625 11.625 47.5625 5.09375 
Q 40.234375 -1.421875 26.90625 -1.421875 
Q 22.3125 -1.421875 17.546875 -0.640625 
Q 12.796875 0.140625 7.71875 1.703125 
L 7.71875 11.625 
Q 12.109375 9.234375 16.796875 8.0625 
Q 21.484375 6.890625 26.703125 6.890625 
Q 35.15625 6.890625 40.078125 11.328125 
Q 45.015625 15.765625 45.015625 23.390625 
Q 45.015625 31 40.078125 35.4375 
Q 35.15625 39.890625 26.703125 39.890625 
Q 22.75 39.890625 18.8125 39.015625 
Q 14.890625 38.140625 10.796875 36.28125 
z
" id="DejaVuSans-53"/>
      </defs>
      <g transform="translate(123.008129 262.869024)rotate(-30)scale(0.1 -0.1)">
       <use xlink:href="#DejaVuSans-50"/>
       <use x="63.623047" xlink:href="#DejaVuSans-48"/>
       <use x="127.246094" xlink:href="#DejaVuSans-50"/>
       <use x="190.869141" xlink:href="#DejaVuSans-48"/>
       <use x="254.492188" xlink:href="#DejaVuSans-45"/>
       <use x="290.576172" xlink:href="#DejaVuSans-49"/>
       <use x="354.199219" xlink:href="#DejaVuSans-50"/>
       <use x="417.822266" xlink:href="#DejaVuSans-45"/>
       <use x="453.90625" xlink:href="#DejaVuSans-49"/>
       <use x="517.529297" xlink:href="#DejaVuSans-53"/>
      </g>
     </g>
    </g>
    <g id="xtick_5">
     <g id="line2d_5">
      <g>
       <use style="stroke:#000000;stroke-width:0.8;" x="190.514175" xlink:href="#ma29ff24276" y="220.230771"/>
      </g>
     </g>
     <g id="text_5">
      <!-- 2020-12-22 -->
      <g transform="translate(166.729059 262.869024)rotate(-30)scale(0.1 -0.1)">
       <use xlink:href="#DejaVuSans-50"/>
       <use x="63.623047" xlink:href="#DejaVuSans-48"/>
       <use x="127.246094" xlink:href="#DejaVuSans-50"/>
       <use x="190.869141" xlink:href="#DejaVuSans-48"/>
       <use x="254.492188" xlink:href="#DejaVuSans-45"/>
       <use x="290.576172" xlink:href="#DejaVuSans-49"/>
       <use x="354.199219" xlink:href="#DejaVuSans-50"/>
       <use x="417.822266" xlink:href="#DejaVuSans-45"/>
       <use x="453.90625" xlink:href="#DejaVuSans-50"/>
       <use x="517.529297" xlink:href="#DejaVuSans-50"/>
      </g>
     </g>
    </g>
    <g id="xtick_6">
     <g id="line2d_6">
      <g>
       <use style="stroke:#000000;stroke-width:0.8;" x="234.235105" xlink:href="#ma29ff24276" y="220.230771"/>
      </g>
     </g>
     <g id="text_6">
      <!-- 2020-12-29 -->
      <g transform="translate(210.449988 262.869024)rotate(-30)scale(0.1 -0.1)">
       <use xlink:href="#DejaVuSans-50"/>
       <use x="63.623047" xlink:href="#DejaVuSans-48"/>
       <use x="127.246094" xlink:href="#DejaVuSans-50"/>
       <use x="190.869141" xlink:href="#DejaVuSans-48"/>
       <use x="254.492188" xlink:href="#DejaVuSans-45"/>
       <use x="290.576172" xlink:href="#DejaVuSans-49"/>
       <use x="354.199219" xlink:href="#DejaVuSans-50"/>
       <use x="417.822266" xlink:href="#DejaVuSans-45"/>
       <use x="453.90625" xlink:href="#DejaVuSans-50"/>
       <use x="517.529297" xlink:href="#DejaVuSans-57"/>
      </g>
     </g>
    </g>
    <g id="xtick_7">
     <g id="line2d_7">
      <g>
       <use style="stroke:#000000;stroke-width:0.8;" x="252.972646" xlink:href="#ma29ff24276" y="220.230771"/>
      </g>
     </g>
     <g id="text_7">
      <!-- 2021-01-01 -->
      <g transform="translate(229.18753 262.869024)rotate(-30)scale(0.1 -0.1)">
       <use xlink:href="#DejaVuSans-50"/>
       <use x="63.623047" xlink:href="#DejaVuSans-48"/>
       <use x="127.246094" xlink:href="#DejaVuSans-50"/>
       <use x="190.869141" xlink:href="#DejaVuSans-49"/>
       <use x="254.492188" xlink:href="#DejaVuSans-45"/>
       <use x="290.576172" xlink:href="#DejaVuSans-48"/>
       <use x="354.199219" xlink:href="#DejaVuSans-49"/>
       <use x="417.822266" xlink:href="#DejaVuSans-45"/>
       <use x="453.90625" xlink:href="#DejaVuSans-48"/>
       <use x="517.529297" xlink:href="#DejaVuSans-49"/>
      </g>
     </g>
    </g>
    <g id="xtick_8">
     <g id="line2d_8">
      <g>
       <use style="stroke:#000000;stroke-width:0.8;" x="296.693575" xlink:href="#ma29ff24276" y="220.230771"/>
      </g>
     </g>
     <g id="text_8">
      <!-- 2021-01-08 -->
      <g transform="translate(272.908459 262.869024)rotate(-30)scale(0.1 -0.1)">
       <use xlink:href="#DejaVuSans-50"/>
       <use x="63.623047" xlink:href="#DejaVuSans-48"/>
       <use x="127.246094" xlink:href="#DejaVuSans-50"/>
       <use x="190.869141" xlink:href="#DejaVuSans-49"/>
       <use x="254.492188" xlink:href="#DejaVuSans-45"/>
       <use x="290.576172" xlink:href="#DejaVuSans-48"/>
       <use x="354.199219" xlink:href="#DejaVuSans-49"/>
       <use x="417.822266" xlink:href="#DejaVuSans-45"/>
       <use x="453.90625" xlink:href="#DejaVuSans-48"/>
       <use x="517.529297" xlink:href="#DejaVuSans-56"/>
      </g>
     </g>
    </g>
    <g id="text_9">
     <!-- Date -->
     <defs>
      <path d="M 19.671875 64.796875 
L 19.671875 8.109375 
L 31.59375 8.109375 
Q 46.6875 8.109375 53.6875 14.9375 
Q 60.6875 21.78125 60.6875 36.53125 
Q 60.6875 51.171875 53.6875 57.984375 
Q 46.6875 64.796875 31.59375 64.796875 
z
M 9.8125 72.90625 
L 30.078125 72.90625 
Q 51.265625 72.90625 61.171875 64.09375 
Q 71.09375 55.28125 71.09375 36.53125 
Q 71.09375 17.671875 61.125 8.828125 
Q 51.171875 0 30.078125 0 
L 9.8125 0 
z
" id="DejaVuSans-68"/>
      <path d="M 34.28125 27.484375 
Q 23.390625 27.484375 19.1875 25 
Q 14.984375 22.515625 14.984375 16.5 
Q 14.984375 11.71875 18.140625 8.90625 
Q 21.296875 6.109375 26.703125 6.109375 
Q 34.1875 6.109375 38.703125 11.40625 
Q 43.21875 16.703125 43.21875 25.484375 
L 43.21875 27.484375 
z
M 52.203125 31.203125 
L 52.203125 0 
L 43.21875 0 
L 43.21875 8.296875 
Q 40.140625 3.328125 35.546875 0.953125 
Q 30.953125 -1.421875 24.3125 -1.421875 
Q 15.921875 -1.421875 10.953125 3.296875 
Q 6 8.015625 6 15.921875 
Q 6 25.140625 12.171875 29.828125 
Q 18.359375 34.515625 30.609375 34.515625 
L 43.21875 34.515625 
L 43.21875 35.40625 
Q 43.21875 41.609375 39.140625 45 
Q 35.0625 48.390625 27.6875 48.390625 
Q 23 48.390625 18.546875 47.265625 
Q 14.109375 46.140625 10.015625 43.890625 
L 10.015625 52.203125 
Q 14.9375 54.109375 19.578125 55.046875 
Q 24.21875 56 28.609375 56 
Q 40.484375 56 46.34375 49.84375 
Q 52.203125 43.703125 52.203125 31.203125 
z
" id="DejaVuSans-97"/>
      <path d="M 18.3125 70.21875 
L 18.3125 54.6875 
L 36.8125 54.6875 
L 36.8125 47.703125 
L 18.3125 47.703125 
L 18.3125 18.015625 
Q 18.3125 11.328125 20.140625 9.421875 
Q 21.96875 7.515625 27.59375 7.515625 
L 36.8125 7.515625 
L 36.8125 0 
L 27.59375 0 
Q 17.1875 0 13.234375 3.875 
Q 9.28125 7.765625 9.28125 18.015625 
L 9.28125 47.703125 
L 2.6875 47.703125 
L 2.6875 54.6875 
L 9.28125 54.6875 
L 9.28125 70.21875 
z
" id="DejaVuSans-116"/>
      <path d="M 56.203125 29.59375 
L 56.203125 25.203125 
L 14.890625 25.203125 
Q 15.484375 15.921875 20.484375 11.0625 
Q 25.484375 6.203125 34.421875 6.203125 
Q 39.59375 6.203125 44.453125 7.46875 
Q 49.3125 8.734375 54.109375 11.28125 
L 54.109375 2.78125 
Q 49.265625 0.734375 44.1875 -0.34375 
Q 39.109375 -1.421875 33.890625 -1.421875 
Q 20.796875 -1.421875 13.15625 6.1875 
Q 5.515625 13.8125 5.515625 26.8125 
Q 5.515625 40.234375 12.765625 48.109375 
Q 20.015625 56 32.328125 56 
Q 43.359375 56 49.78125 48.890625 
Q 56.203125 41.796875 56.203125 29.59375 
z
M 47.21875 32.234375 
Q 47.125 39.59375 43.09375 43.984375 
Q 39.0625 48.390625 32.421875 48.390625 
Q 24.90625 48.390625 20.390625 44.140625 
Q 15.875 39.890625 15.1875 32.171875 
z
" id="DejaVuSans-101"/>
     </defs>
     <g transform="translate(167.504219 276.268523)scale(0.1 -0.1)">
      <use xlink:href="#DejaVuSans-68"/>
      <use x="77.001953" xlink:href="#DejaVuSans-97"/>
      <use x="138.28125" xlink:href="#DejaVuSans-116"/>
      <use x="177.490234" xlink:href="#DejaVuSans-101"/>
     </g>
    </g>
   </g>
   <g id="matplotlib.axis_2">
    <g id="ytick_1">
     <g id="line2d_9">
      <defs>
       <path d="M 0 0 
L -3.5 0 
" id="m19a208e5f6" style="stroke:#000000;stroke-width:0.8;"/>
      </defs>
      <g>
       <use style="stroke:#000000;stroke-width:0.8;" x="43.55" xlink:href="#m19a208e5f6" y="210.806645"/>
      </g>
     </g>
     <g id="text_10">
      <!-- 0 -->
      <g transform="translate(30.1875 214.605864)scale(0.1 -0.1)">
       <use xlink:href="#DejaVuSans-48"/>
      </g>
     </g>
    </g>
    <g id="ytick_2">
     <g id="line2d_10">
      <g>
       <use style="stroke:#000000;stroke-width:0.8;" x="43.55" xlink:href="#m19a208e5f6" y="187.24633"/>
      </g>
     </g>
     <g id="text_11">
      <!-- 5 -->
      <g transform="translate(30.1875 191.045549)scale(0.1 -0.1)">
       <use xlink:href="#DejaVuSans-53"/>
      </g>
     </g>
    </g>
    <g id="ytick_3">
     <g id="line2d_11">
      <g>
       <use style="stroke:#000000;stroke-width:0.8;" x="43.55" xlink:href="#m19a208e5f6" y="163.686016"/>
      </g>
     </g>
     <g id="text_12">
      <!-- 10 -->
      <g transform="translate(23.825 167.485234)scale(0.1 -0.1)">
       <use xlink:href="#DejaVuSans-49"/>
       <use x="63.623047" xlink:href="#DejaVuSans-48"/>
      </g>
     </g>
    </g>
    <g id="ytick_4">
     <g id="line2d_12">
      <g>
       <use style="stroke:#000000;stroke-width:0.8;" x="43.55" xlink:href="#m19a208e5f6" y="140.125701"/>
      </g>
     </g>
     <g id="text_13">
      <!-- 15 -->
      <g transform="translate(23.825 143.924919)scale(0.1 -0.1)">
       <use xlink:href="#DejaVuSans-49"/>
       <use x="63.623047" xlink:href="#DejaVuSans-53"/>
      </g>
     </g>
    </g>
    <g id="ytick_5">
     <g id="line2d_13">
      <g>
       <use style="stroke:#000000;stroke-width:0.8;" x="43.55" xlink:href="#m19a208e5f6" y="116.565386"/>
      </g>
     </g>
     <g id="text_14">
      <!-- 20 -->
      <g transform="translate(23.825 120.364604)scale(0.1 -0.1)">
       <use xlink:href="#DejaVuSans-50"/>
       <use x="63.623047" xlink:href="#DejaVuSans-48"/>
      </g>
     </g>
    </g>
    <g id="ytick_6">
     <g id="line2d_14">
      <g>
       <use style="stroke:#000000;stroke-width:0.8;" x="43.55" xlink:href="#m19a208e5f6" y="93.005071"/>
      </g>
     </g>
     <g id="text_15">
      <!-- 25 -->
      <g transform="translate(23.825 96.80429)scale(0.1 -0.1)">
       <use xlink:href="#DejaVuSans-50"/>
       <use x="63.623047" xlink:href="#DejaVuSans-53"/>
      </g>
     </g>
    </g>
    <g id="ytick_7">
     <g id="line2d_15">
      <g>
       <use style="stroke:#000000;stroke-width:0.8;" x="43.55" xlink:href="#m19a208e5f6" y="69.444756"/>
      </g>
     </g>
     <g id="text_16">
      <!-- 30 -->
      <defs>
       <path d="M 40.578125 39.3125 
Q 47.65625 37.796875 51.625 33 
Q 55.609375 28.21875 55.609375 21.1875 
Q 55.609375 10.40625 48.1875 4.484375 
Q 40.765625 -1.421875 27.09375 -1.421875 
Q 22.515625 -1.421875 17.65625 -0.515625 
Q 12.796875 0.390625 7.625 2.203125 
L 7.625 11.71875 
Q 11.71875 9.328125 16.59375 8.109375 
Q 21.484375 6.890625 26.8125 6.890625 
Q 36.078125 6.890625 40.9375 10.546875 
Q 45.796875 14.203125 45.796875 21.1875 
Q 45.796875 27.640625 41.28125 31.265625 
Q 36.765625 34.90625 28.71875 34.90625 
L 20.21875 34.90625 
L 20.21875 43.015625 
L 29.109375 43.015625 
Q 36.375 43.015625 40.234375 45.921875 
Q 44.09375 48.828125 44.09375 54.296875 
Q 44.09375 59.90625 40.109375 62.90625 
Q 36.140625 65.921875 28.71875 65.921875 
Q 24.65625 65.921875 20.015625 65.03125 
Q 15.375 64.15625 9.8125 62.3125 
L 9.8125 71.09375 
Q 15.4375 72.65625 20.34375 73.4375 
Q 25.25 74.21875 29.59375 74.21875 
Q 40.828125 74.21875 47.359375 69.109375 
Q 53.90625 64.015625 53.90625 55.328125 
Q 53.90625 49.265625 50.4375 45.09375 
Q 46.96875 40.921875 40.578125 39.3125 
z
" id="DejaVuSans-51"/>
      </defs>
      <g transform="translate(23.825 73.243975)scale(0.1 -0.1)">
       <use xlink:href="#DejaVuSans-51"/>
       <use x="63.623047" xlink:href="#DejaVuSans-48"/>
      </g>
     </g>
    </g>
    <g id="ytick_8">
     <g id="line2d_16">
      <g>
       <use style="stroke:#000000;stroke-width:0.8;" x="43.55" xlink:href="#m19a208e5f6" y="45.884441"/>
      </g>
     </g>
     <g id="text_17">
      <!-- 35 -->
      <g transform="translate(23.825 49.68366)scale(0.1 -0.1)">
       <use xlink:href="#DejaVuSans-51"/>
       <use x="63.623047" xlink:href="#DejaVuSans-53"/>
      </g>
     </g>
    </g>
    <g id="ytick_9">
     <g id="line2d_17">
      <g>
       <use style="stroke:#000000;stroke-width:0.8;" x="43.55" xlink:href="#m19a208e5f6" y="22.324126"/>
      </g>
     </g>
     <g id="text_18">
      <!-- 40 -->
      <defs>
       <path d="M 37.796875 64.3125 
L 12.890625 25.390625 
L 37.796875 25.390625 
z
M 35.203125 72.90625 
L 47.609375 72.90625 
L 47.609375 25.390625 
L 58.015625 25.390625 
L 58.015625 17.1875 
L 47.609375 17.1875 
L 47.609375 0 
L 37.796875 0 
L 37.796875 17.1875 
L 4.890625 17.1875 
L 4.890625 26.703125 
z
" id="DejaVuSans-52"/>
      </defs>
      <g transform="translate(23.825 26.123345)scale(0.1 -0.1)">
       <use xlink:href="#DejaVuSans-52"/>
       <use x="63.623047" xlink:href="#DejaVuSans-48"/>
      </g>
     </g>
    </g>
    <g id="text_19">
     <!-- Students Registered -->
     <defs>
      <path d="M 53.515625 70.515625 
L 53.515625 60.890625 
Q 47.90625 63.578125 42.921875 64.890625 
Q 37.9375 66.21875 33.296875 66.21875 
Q 25.25 66.21875 20.875 63.09375 
Q 16.5 59.96875 16.5 54.203125 
Q 16.5 49.359375 19.40625 46.890625 
Q 22.3125 44.4375 30.421875 42.921875 
L 36.375 41.703125 
Q 47.40625 39.59375 52.65625 34.296875 
Q 57.90625 29 57.90625 20.125 
Q 57.90625 9.515625 50.796875 4.046875 
Q 43.703125 -1.421875 29.984375 -1.421875 
Q 24.8125 -1.421875 18.96875 -0.25 
Q 13.140625 0.921875 6.890625 3.21875 
L 6.890625 13.375 
Q 12.890625 10.015625 18.65625 8.296875 
Q 24.421875 6.59375 29.984375 6.59375 
Q 38.421875 6.59375 43.015625 9.90625 
Q 47.609375 13.234375 47.609375 19.390625 
Q 47.609375 24.75 44.3125 27.78125 
Q 41.015625 30.8125 33.5 32.328125 
L 27.484375 33.5 
Q 16.453125 35.6875 11.515625 40.375 
Q 6.59375 45.0625 6.59375 53.421875 
Q 6.59375 63.09375 13.40625 68.65625 
Q 20.21875 74.21875 32.171875 74.21875 
Q 37.3125 74.21875 42.625 73.28125 
Q 47.953125 72.359375 53.515625 70.515625 
z
" id="DejaVuSans-83"/>
      <path d="M 8.5 21.578125 
L 8.5 54.6875 
L 17.484375 54.6875 
L 17.484375 21.921875 
Q 17.484375 14.15625 20.5 10.265625 
Q 23.53125 6.390625 29.59375 6.390625 
Q 36.859375 6.390625 41.078125 11.03125 
Q 45.3125 15.671875 45.3125 23.6875 
L 45.3125 54.6875 
L 54.296875 54.6875 
L 54.296875 0 
L 45.3125 0 
L 45.3125 8.40625 
Q 42.046875 3.421875 37.71875 1 
Q 33.40625 -1.421875 27.6875 -1.421875 
Q 18.265625 -1.421875 13.375 4.4375 
Q 8.5 10.296875 8.5 21.578125 
z
M 31.109375 56 
z
" id="DejaVuSans-117"/>
      <path d="M 45.40625 46.390625 
L 45.40625 75.984375 
L 54.390625 75.984375 
L 54.390625 0 
L 45.40625 0 
L 45.40625 8.203125 
Q 42.578125 3.328125 38.25 0.953125 
Q 33.9375 -1.421875 27.875 -1.421875 
Q 17.96875 -1.421875 11.734375 6.484375 
Q 5.515625 14.40625 5.515625 27.296875 
Q 5.515625 40.1875 11.734375 48.09375 
Q 17.96875 56 27.875 56 
Q 33.9375 56 38.25 53.625 
Q 42.578125 51.265625 45.40625 46.390625 
z
M 14.796875 27.296875 
Q 14.796875 17.390625 18.875 11.75 
Q 22.953125 6.109375 30.078125 6.109375 
Q 37.203125 6.109375 41.296875 11.75 
Q 45.40625 17.390625 45.40625 27.296875 
Q 45.40625 37.203125 41.296875 42.84375 
Q 37.203125 48.484375 30.078125 48.484375 
Q 22.953125 48.484375 18.875 42.84375 
Q 14.796875 37.203125 14.796875 27.296875 
z
" id="DejaVuSans-100"/>
      <path d="M 54.890625 33.015625 
L 54.890625 0 
L 45.90625 0 
L 45.90625 32.71875 
Q 45.90625 40.484375 42.875 44.328125 
Q 39.84375 48.1875 33.796875 48.1875 
Q 26.515625 48.1875 22.3125 43.546875 
Q 18.109375 38.921875 18.109375 30.90625 
L 18.109375 0 
L 9.078125 0 
L 9.078125 54.6875 
L 18.109375 54.6875 
L 18.109375 46.1875 
Q 21.34375 51.125 25.703125 53.5625 
Q 30.078125 56 35.796875 56 
Q 45.21875 56 50.046875 50.171875 
Q 54.890625 44.34375 54.890625 33.015625 
z
" id="DejaVuSans-110"/>
      <path d="M 44.28125 53.078125 
L 44.28125 44.578125 
Q 40.484375 46.53125 36.375 47.5 
Q 32.28125 48.484375 27.875 48.484375 
Q 21.1875 48.484375 17.84375 46.4375 
Q 14.5 44.390625 14.5 40.28125 
Q 14.5 37.15625 16.890625 35.375 
Q 19.28125 33.59375 26.515625 31.984375 
L 29.59375 31.296875 
Q 39.15625 29.25 43.1875 25.515625 
Q 47.21875 21.78125 47.21875 15.09375 
Q 47.21875 7.46875 41.1875 3.015625 
Q 35.15625 -1.421875 24.609375 -1.421875 
Q 20.21875 -1.421875 15.453125 -0.5625 
Q 10.6875 0.296875 5.421875 2 
L 5.421875 11.28125 
Q 10.40625 8.6875 15.234375 7.390625 
Q 20.0625 6.109375 24.8125 6.109375 
Q 31.15625 6.109375 34.5625 8.28125 
Q 37.984375 10.453125 37.984375 14.40625 
Q 37.984375 18.0625 35.515625 20.015625 
Q 33.0625 21.96875 24.703125 23.78125 
L 21.578125 24.515625 
Q 13.234375 26.265625 9.515625 29.90625 
Q 5.8125 33.546875 5.8125 39.890625 
Q 5.8125 47.609375 11.28125 51.796875 
Q 16.75 56 26.8125 56 
Q 31.78125 56 36.171875 55.265625 
Q 40.578125 54.546875 44.28125 53.078125 
z
" id="DejaVuSans-115"/>
      <path id="DejaVuSans-32"/>
      <path d="M 44.390625 34.1875 
Q 47.5625 33.109375 50.5625 29.59375 
Q 53.5625 26.078125 56.59375 19.921875 
L 66.609375 0 
L 56 0 
L 46.6875 18.703125 
Q 43.0625 26.03125 39.671875 28.421875 
Q 36.28125 30.8125 30.421875 30.8125 
L 19.671875 30.8125 
L 19.671875 0 
L 9.8125 0 
L 9.8125 72.90625 
L 32.078125 72.90625 
Q 44.578125 72.90625 50.734375 67.671875 
Q 56.890625 62.453125 56.890625 51.90625 
Q 56.890625 45.015625 53.6875 40.46875 
Q 50.484375 35.9375 44.390625 34.1875 
z
M 19.671875 64.796875 
L 19.671875 38.921875 
L 32.078125 38.921875 
Q 39.203125 38.921875 42.84375 42.21875 
Q 46.484375 45.515625 46.484375 51.90625 
Q 46.484375 58.296875 42.84375 61.546875 
Q 39.203125 64.796875 32.078125 64.796875 
z
" id="DejaVuSans-82"/>
      <path d="M 45.40625 27.984375 
Q 45.40625 37.75 41.375 43.109375 
Q 37.359375 48.484375 30.078125 48.484375 
Q 22.859375 48.484375 18.828125 43.109375 
Q 14.796875 37.75 14.796875 27.984375 
Q 14.796875 18.265625 18.828125 12.890625 
Q 22.859375 7.515625 30.078125 7.515625 
Q 37.359375 7.515625 41.375 12.890625 
Q 45.40625 18.265625 45.40625 27.984375 
z
M 54.390625 6.78125 
Q 54.390625 -7.171875 48.1875 -13.984375 
Q 42 -20.796875 29.203125 -20.796875 
Q 24.46875 -20.796875 20.265625 -20.09375 
Q 16.0625 -19.390625 12.109375 -17.921875 
L 12.109375 -9.1875 
Q 16.0625 -11.328125 19.921875 -12.34375 
Q 23.78125 -13.375 27.78125 -13.375 
Q 36.625 -13.375 41.015625 -8.765625 
Q 45.40625 -4.15625 45.40625 5.171875 
L 45.40625 9.625 
Q 42.625 4.78125 38.28125 2.390625 
Q 33.9375 0 27.875 0 
Q 17.828125 0 11.671875 7.65625 
Q 5.515625 15.328125 5.515625 27.984375 
Q 5.515625 40.671875 11.671875 48.328125 
Q 17.828125 56 27.875 56 
Q 33.9375 56 38.28125 53.609375 
Q 42.625 51.21875 45.40625 46.390625 
L 45.40625 54.6875 
L 54.390625 54.6875 
z
" id="DejaVuSans-103"/>
      <path d="M 9.421875 54.6875 
L 18.40625 54.6875 
L 18.40625 0 
L 9.421875 0 
z
M 9.421875 75.984375 
L 18.40625 75.984375 
L 18.40625 64.59375 
L 9.421875 64.59375 
z
" id="DejaVuSans-105"/>
      <path d="M 41.109375 46.296875 
Q 39.59375 47.171875 37.8125 47.578125 
Q 36.03125 48 33.890625 48 
Q 26.265625 48 22.1875 43.046875 
Q 18.109375 38.09375 18.109375 28.8125 
L 18.109375 0 
L 9.078125 0 
L 9.078125 54.6875 
L 18.109375 54.6875 
L 18.109375 46.1875 
Q 20.953125 51.171875 25.484375 53.578125 
Q 30.03125 56 36.53125 56 
Q 37.453125 56 38.578125 55.875 
Q 39.703125 55.765625 41.0625 55.515625 
z
" id="DejaVuSans-114"/>
     </defs>
     <g transform="translate(17.745313 167.498979)rotate(-90)scale(0.1 -0.1)">
      <use xlink:href="#DejaVuSans-83"/>
      <use x="63.476562" xlink:href="#DejaVuSans-116"/>
      <use x="102.685547" xlink:href="#DejaVuSans-117"/>
      <use x="166.064453" xlink:href="#DejaVuSans-100"/>
      <use x="229.541016" xlink:href="#DejaVuSans-101"/>
      <use x="291.064453" xlink:href="#DejaVuSans-110"/>
      <use x="354.443359" xlink:href="#DejaVuSans-116"/>
      <use x="393.652344" xlink:href="#DejaVuSans-115"/>
      <use x="445.751953" xlink:href="#DejaVuSans-32"/>
      <use x="477.539062" xlink:href="#DejaVuSans-82"/>
      <use x="546.958984" xlink:href="#DejaVuSans-101"/>
      <use x="608.482422" xlink:href="#DejaVuSans-103"/>
      <use x="671.958984" xlink:href="#DejaVuSans-105"/>
      <use x="699.742188" xlink:href="#DejaVuSans-115"/>
      <use x="751.841797" xlink:href="#DejaVuSans-116"/>
      <use x="791.050781" xlink:href="#DejaVuSans-101"/>
      <use x="852.574219" xlink:href="#DejaVuSans-114"/>
      <use x="893.65625" xlink:href="#DejaVuSans-101"/>
      <use x="955.179688" xlink:href="#DejaVuSans-100"/>
     </g>
    </g>
   </g>
   <g id="line2d_18">
    <path clip-path="url(#pbd8f706420)" d="M 55.905 201.382519 
L 63.385656 201.382519 
L 63.385656 196.670456 
L 63.450764 196.670456 
L 68.330327 196.670456 
L 68.330327 191.958393 
L 68.39539 191.958393 
L 69.371276 191.958393 
L 69.371276 187.24633 
L 69.436323 187.24633 
L 74.83636 187.24633 
L 74.83636 177.822204 
L 74.901427 177.822204 
L 75.356881 177.822204 
L 75.356881 173.110142 
L 75.421966 173.110142 
L 75.877373 173.110142 
L 75.877373 168.398079 
L 75.942469 168.398079 
L 76.13761 168.398079 
L 76.13761 163.686016 
L 76.202696 163.686016 
L 82.123231 163.686016 
L 82.123231 158.973953 
L 82.188254 158.973953 
L 88.108831 158.973953 
L 88.108831 154.26189 
L 88.173862 154.26189 
L 99.559574 154.26189 
L 99.559574 144.837764 
L 99.62457 144.837764 
L 100.080051 144.837764 
L 100.080051 140.125701 
L 100.145091 140.125701 
L 101.381266 140.125701 
L 101.381266 135.413638 
L 101.446312 135.413638 
L 105.545136 135.413638 
L 105.545136 130.701575 
L 105.610201 130.701575 
L 106.846373 130.701575 
L 106.846373 125.989512 
L 106.911424 125.989512 
L 107.106619 125.989512 
L 107.106619 121.277449 
L 107.171684 121.277449 
L 107.36686 121.277449 
L 107.431912 107.14126 
L 107.431912 107.14126 
L 111.790966 107.14126 
L 111.790966 102.429197 
L 111.856046 102.429197 
L 112.051204 102.429197 
L 112.051204 93.005071 
L 112.116266 93.005071 
L 112.311445 93.005071 
L 112.311445 88.293008 
L 112.376511 88.293008 
L 112.571715 88.293008 
L 112.636772 74.156819 
L 112.636772 74.156819 
L 113.092192 74.156819 
L 113.092192 60.02063 
L 113.157278 60.02063 
L 113.352469 60.02063 
L 113.352469 50.596504 
L 113.417539 50.596504 
L 113.612675 50.596504 
L 113.612675 31.748252 
L 113.677736 31.748252 
L 113.872953 31.748252 
L 113.872953 27.036189 
L 113.938012 27.036189 
L 115.174182 27.036189 
L 115.174182 22.324126 
L 115.239243 22.324126 
L 186.741195 22.324126 
L 186.741195 27.036189 
L 186.806191 27.036189 
L 187.001437 27.036189 
L 187.001437 22.324126 
L 187.066494 22.324126 
L 187.521895 22.324126 
L 187.521895 27.036189 
L 187.586982 27.036189 
L 188.302596 27.036189 
L 188.302596 31.748252 
L 188.367711 31.748252 
L 188.823147 31.748252 
L 188.823147 36.460315 
L 188.888169 36.460315 
L 195.849675 36.460315 
L 195.849675 41.172378 
L 195.914768 41.172378 
L 211.204077 41.172378 
L 211.204077 36.460315 
L 211.269146 36.460315 
L 240.091082 36.460315 
L 240.091082 41.172378 
L 240.156197 41.172378 
L 250.240611 41.172378 
L 250.240611 36.460315 
L 250.305639 36.460315 
L 281.990372 36.460315 
L 281.990372 31.748252 
L 282.055377 31.748252 
L 286.154202 31.748252 
L 286.154202 27.036189 
L 286.219296 27.036189 
L 293.441057 27.036189 
L 293.441057 22.324126 
L 303.005 22.324126 
L 303.005 22.324126 
" style="fill:none;stroke:#1b9e77;stroke-linecap:square;stroke-width:1.5;"/>
   </g>
   <g id="line2d_19">
    <path clip-path="url(#pbd8f706420)" d="M 110.229555 196.670456 
L 111.530716 196.670456 
L 111.530716 182.534267 
L 111.595787 182.534267 
L 111.790966 182.534267 
L 111.790966 177.822204 
L 111.856046 177.822204 
L 112.051204 177.822204 
L 112.051204 158.973953 
L 112.116266 158.973953 
L 112.571715 158.973953 
L 112.571715 144.837764 
L 112.636772 144.837764 
L 113.092192 144.837764 
L 113.092192 116.565386 
L 113.157278 116.565386 
L 113.612675 116.565386 
L 113.612675 107.14126 
L 113.677736 107.14126 
L 113.872953 107.14126 
L 113.872953 102.429197 
L 113.938012 102.429197 
L 114.133174 102.429197 
L 114.133174 97.717134 
L 114.19825 97.717134 
L 114.653704 97.717134 
L 114.653704 93.005071 
L 114.718766 93.005071 
L 118.297058 93.005071 
L 118.297058 74.156819 
L 118.362137 74.156819 
L 118.817563 74.156819 
L 118.817563 69.444756 
L 118.882656 69.444756 
L 119.33809 69.444756 
L 119.33809 60.02063 
L 119.403095 60.02063 
L 119.598334 60.02063 
L 119.598334 55.308567 
L 119.663338 55.308567 
L 120.118829 55.308567 
L 120.118829 50.596504 
L 120.183829 50.596504 
L 125.583922 50.596504 
L 125.583922 45.884441 
L 125.648938 45.884441 
L 125.844121 45.884441 
L 125.844121 41.172378 
L 125.909216 41.172378 
L 126.104379 41.172378 
L 126.104379 36.460315 
L 126.16946 36.460315 
L 126.885145 36.460315 
L 126.885145 31.748252 
L 126.950145 31.748252 
L 143.540697 31.748252 
L 143.540697 22.324126 
L 143.605804 22.324126 
L 175.550669 22.324126 
L 175.550669 27.036189 
L 175.615733 27.036189 
L 177.11213 27.036189 
L 177.11213 22.324126 
L 177.177232 22.324126 
L 199.753356 22.324126 
L 199.753356 27.036189 
L 199.818386 27.036189 
L 201.835294 27.036189 
L 201.835294 22.324126 
L 201.900327 22.324126 
L 303.005 22.324126 
L 303.005 22.324126 
" style="fill:none;stroke:#d95f02;stroke-linecap:square;stroke-width:1.5;"/>
   </g>
   <g id="line2d_20">
    <path clip-path="url(#pbd8f706420)" d="M 55.905 182.534267 
L 56.179198 182.534267 
L 56.179198 177.822204 
L 56.289712 177.822204 
L 57.525816 177.822204 
L 57.525816 173.110142 
L 61.689762 173.110142 
L 61.689762 168.398079 
L 62.084474 168.398079 
L 62.084474 163.686016 
L 62.149493 163.686016 
L 62.344703 163.686016 
L 62.344703 158.973953 
L 62.409795 158.973953 
L 63.125468 158.973953 
L 63.125468 144.837764 
L 63.190501 144.837764 
L 63.385656 144.837764 
L 63.385656 140.125701 
L 63.450764 140.125701 
L 68.590545 140.125701 
L 68.590545 130.701575 
L 68.655644 130.701575 
L 68.850787 130.701575 
L 68.850787 125.989512 
L 68.915821 125.989512 
L 69.111029 125.989512 
L 69.111029 130.701575 
L 69.176109 130.701575 
L 69.631558 130.701575 
L 69.631558 125.989512 
L 69.696602 125.989512 
L 69.891749 125.989512 
L 69.891749 116.565386 
L 69.956882 116.565386 
L 71.192999 116.565386 
L 71.192999 107.14126 
L 71.258038 107.14126 
L 74.055678 107.14126 
L 74.055678 102.429197 
L 74.120721 102.429197 
L 74.315916 102.429197 
L 74.315916 83.580945 
L 74.380967 83.580945 
L 74.57613 83.580945 
L 74.57613 74.156819 
L 74.641189 74.156819 
L 75.096645 74.156819 
L 75.096645 69.444756 
L 75.161711 69.444756 
L 75.356881 69.444756 
L 75.356881 64.732693 
L 75.421966 64.732693 
L 75.617131 64.732693 
L 75.617131 60.02063 
L 75.6822 60.02063 
L 75.877373 60.02063 
L 75.877373 45.884441 
L 75.942469 45.884441 
L 76.13761 45.884441 
L 76.13761 41.172378 
L 76.202696 41.172378 
L 76.397869 41.172378 
L 76.397869 36.460315 
L 76.46294 36.460315 
L 80.821975 36.460315 
L 80.821975 27.036189 
L 80.887037 27.036189 
L 81.082275 27.036189 
L 81.082275 22.324126 
L 81.147295 22.324126 
L 111.790966 22.324126 
L 111.790966 27.036189 
L 111.856046 27.036189 
L 112.051204 27.036189 
L 112.051204 22.324126 
L 112.116266 22.324126 
L 303.005 22.324126 
L 303.005 22.324126 
" style="fill:none;stroke:#7570b3;stroke-linecap:square;stroke-width:1.5;"/>
   </g>
   <g id="line2d_21">
    <path clip-path="url(#pbd8f706420)" d="M 55.905 201.382519 
L 62.865238 201.382519 
L 62.865238 196.670456 
L 62.93025 196.670456 
L 68.070094 196.670456 
L 68.070094 191.958393 
L 68.135159 191.958393 
L 68.330327 191.958393 
L 68.330327 187.24633 
L 68.39539 187.24633 
L 68.590545 187.24633 
L 68.590545 177.822204 
L 68.655644 177.822204 
L 68.850787 177.822204 
L 68.850787 173.110142 
L 68.915821 173.110142 
L 69.111029 173.110142 
L 69.111029 168.398079 
L 69.176109 168.398079 
L 69.371276 168.398079 
L 69.371276 163.686016 
L 69.436323 163.686016 
L 69.891749 163.686016 
L 69.891749 158.973953 
L 69.956882 158.973953 
L 74.315916 158.973953 
L 74.315916 149.549827 
L 74.380967 149.549827 
L 74.57613 149.549827 
L 74.57613 144.837764 
L 74.641189 144.837764 
L 75.617131 144.837764 
L 75.617131 140.125701 
L 75.6822 140.125701 
L 75.877373 140.125701 
L 75.877373 130.701575 
L 75.942469 130.701575 
L 99.559574 130.701575 
L 99.559574 125.989512 
L 99.62457 125.989512 
L 99.819792 125.989512 
L 99.819792 121.277449 
L 99.884818 121.277449 
L 100.080051 121.277449 
L 100.080051 116.565386 
L 100.145091 116.565386 
L 100.340267 116.565386 
L 100.340267 111.853323 
L 100.405324 111.853323 
L 100.600538 111.853323 
L 100.600538 102.429197 
L 100.665582 102.429197 
L 100.860785 102.429197 
L 100.860785 97.717134 
L 100.925836 97.717134 
L 105.545136 97.717134 
L 105.610201 83.580945 
L 105.610201 83.580945 
L 106.065636 83.580945 
L 106.065636 74.156819 
L 106.130687 74.156819 
L 106.846373 74.156819 
L 106.846373 69.444756 
L 106.911424 69.444756 
L 107.106619 69.444756 
L 107.106619 60.02063 
L 107.171684 60.02063 
L 107.36686 60.02063 
L 107.36686 36.460315 
L 107.431912 36.460315 
L 107.627064 36.460315 
L 107.627064 22.324126 
L 107.692187 22.324126 
L 111.530716 22.324126 
L 111.530716 27.036189 
L 111.595787 27.036189 
L 112.051204 27.036189 
L 112.051204 22.324126 
L 112.116266 22.324126 
L 175.030163 22.324126 
L 175.030163 27.036189 
L 175.09527 27.036189 
L 175.290462 27.036189 
L 175.290462 22.324126 
L 175.355533 22.324126 
L 186.741195 22.324126 
L 186.741195 27.036189 
L 186.806191 27.036189 
L 187.261612 27.036189 
L 187.261612 22.324126 
L 187.326673 22.324126 
L 187.782117 22.324126 
L 187.782117 27.036189 
L 187.847187 27.036189 
L 188.823147 27.036189 
L 188.823147 22.324126 
L 188.888169 22.324126 
L 303.005 22.324126 
L 303.005 22.324126 
" style="fill:none;stroke:#e7298a;stroke-linecap:square;stroke-width:1.5;"/>
   </g>
   <g id="line2d_22">
    <path clip-path="url(#pbd8f706420)" d="M 55.905 210.806645 
L 56.179198 210.806645 
L 56.179198 201.382519 
L 56.289712 201.382519 
L 57.40008 201.382519 
L 57.40008 196.670456 
L 57.508537 196.670456 
L 63.385656 196.670456 
L 63.385656 191.958393 
L 63.450764 191.958393 
L 68.330327 191.958393 
L 68.330327 177.822204 
L 68.39539 177.822204 
L 68.590545 177.822204 
L 68.590545 173.110142 
L 68.655644 173.110142 
L 68.850787 173.110142 
L 68.850787 154.26189 
L 68.915821 154.26189 
L 69.111029 154.26189 
L 69.111029 149.549827 
L 69.176109 149.549827 
L 69.371276 149.549827 
L 69.371276 140.125701 
L 69.436323 140.125701 
L 69.631558 140.125701 
L 69.631558 125.989512 
L 69.696602 125.989512 
L 74.315916 125.989512 
L 74.315916 121.277449 
L 74.380967 121.277449 
L 74.57613 121.277449 
L 74.57613 116.565386 
L 74.641189 116.565386 
L 75.356881 116.565386 
L 75.356881 111.853323 
L 75.421966 111.853323 
L 75.877373 111.853323 
L 75.877373 97.717134 
L 75.942469 97.717134 
L 76.13761 97.717134 
L 76.13761 93.005071 
L 76.202696 93.005071 
L 81.342472 93.005071 
L 81.342472 88.293008 
L 81.407544 88.293008 
L 81.602708 88.293008 
L 81.602708 83.580945 
L 81.667794 83.580945 
L 82.123231 83.580945 
L 82.123231 78.868882 
L 82.188254 78.868882 
L 82.903947 78.868882 
L 82.903947 74.156819 
L 82.969043 74.156819 
L 87.328125 74.156819 
L 87.328125 69.444756 
L 87.393156 69.444756 
L 99.559574 69.444756 
L 99.559574 45.884441 
L 99.62457 45.884441 
L 99.819792 45.884441 
L 99.819792 36.460315 
L 99.884818 36.460315 
L 100.080051 36.460315 
L 100.080051 31.748252 
L 100.145091 31.748252 
L 187.782117 31.748252 
L 187.782117 36.460315 
L 187.847187 36.460315 
L 188.042352 36.460315 
L 188.042352 31.748252 
L 188.107413 31.748252 
L 202.095506 31.748252 
L 202.095506 36.460315 
L 202.160612 36.460315 
L 202.355768 36.460315 
L 202.355768 31.748252 
L 202.420851 31.748252 
L 303.005 31.748252 
L 303.005 31.748252 
" style="fill:none;stroke:#66a61e;stroke-linecap:square;stroke-width:1.5;"/>
   </g>
   <g id="line2d_23">
    <path clip-path="url(#pbd8f706420)" d="M 55.905 191.958393 
L 68.330327 191.958393 
L 68.330327 187.24633 
L 68.39539 187.24633 
L 69.631558 187.24633 
L 69.631558 182.534267 
L 69.696602 182.534267 
L 70.152028 182.534267 
L 70.152028 177.822204 
L 70.217064 177.822204 
L 75.096645 177.822204 
L 75.096645 173.110142 
L 75.161711 173.110142 
L 75.617131 173.110142 
L 75.617131 168.398079 
L 75.6822 168.398079 
L 80.821975 168.398079 
L 80.821975 163.686016 
L 80.887037 163.686016 
L 99.299293 163.686016 
L 99.299293 154.26189 
L 99.364391 154.26189 
L 99.559574 154.26189 
L 99.559574 144.837764 
L 99.62457 144.837764 
L 100.340267 144.837764 
L 100.340267 140.125701 
L 100.405324 140.125701 
L 101.381266 140.125701 
L 101.381266 135.413638 
L 101.446312 135.413638 
L 106.065636 135.413638 
L 106.065636 130.701575 
L 106.130687 130.701575 
L 106.586078 130.701575 
L 106.586078 121.277449 
L 106.651197 121.277449 
L 107.106619 121.277449 
L 107.106619 116.565386 
L 107.171684 116.565386 
L 108.668083 116.565386 
L 108.668083 111.853323 
L 108.733132 111.853323 
L 111.530716 111.853323 
L 111.530716 107.14126 
L 111.595787 107.14126 
L 112.051204 107.14126 
L 112.051204 102.429197 
L 112.116266 102.429197 
L 112.311445 102.429197 
L 112.311445 93.005071 
L 112.376511 93.005071 
L 112.831973 93.005071 
L 112.831973 88.293008 
L 112.897037 88.293008 
L 113.092192 88.293008 
L 113.157278 74.156819 
L 113.157278 74.156819 
L 113.352469 74.156819 
L 113.352469 64.732693 
L 113.417539 64.732693 
L 114.393403 64.732693 
L 114.393403 69.444756 
L 114.458455 69.444756 
L 118.297058 69.444756 
L 118.297058 60.02063 
L 118.362137 60.02063 
L 118.557365 60.02063 
L 118.557365 55.308567 
L 118.62236 55.308567 
L 119.077816 55.308567 
L 119.077816 50.596504 
L 119.142887 50.596504 
L 119.33809 50.596504 
L 119.33809 41.172378 
L 119.403095 41.172378 
L 119.598334 41.172378 
L 119.598334 36.460315 
L 119.663338 36.460315 
L 120.118829 36.460315 
L 120.118829 31.748252 
L 120.183829 31.748252 
L 303.005 31.748252 
L 303.005 31.748252 
" style="fill:none;stroke:#e6ab02;stroke-linecap:square;stroke-width:1.5;"/>
   </g>
   <g id="line2d_24">
    <path clip-path="url(#pbd8f706420)" d="M 55.905 196.670456 
L 62.865238 196.670456 
L 62.865238 191.958393 
L 62.93025 191.958393 
L 68.070094 191.958393 
L 68.070094 187.24633 
L 68.135159 187.24633 
L 68.330327 187.24633 
L 68.330327 182.534267 
L 68.39539 182.534267 
L 68.850787 182.534267 
L 68.850787 177.822204 
L 68.915821 177.822204 
L 69.111029 177.822204 
L 69.111029 173.110142 
L 69.176109 173.110142 
L 69.371276 173.110142 
L 69.371276 163.686016 
L 69.436323 163.686016 
L 69.631558 163.686016 
L 69.631558 158.973953 
L 69.696602 158.973953 
L 69.891749 158.973953 
L 69.891749 154.26189 
L 69.956882 154.26189 
L 74.055678 154.26189 
L 74.055678 149.549827 
L 74.120721 149.549827 
L 74.315916 149.549827 
L 74.315916 140.125701 
L 74.380967 140.125701 
L 74.83636 140.125701 
L 74.83636 135.413638 
L 74.901427 135.413638 
L 75.096645 135.413638 
L 75.096645 125.989512 
L 75.161711 125.989512 
L 75.617131 125.989512 
L 75.617131 121.277449 
L 75.6822 121.277449 
L 76.13761 121.277449 
L 76.13761 116.565386 
L 76.202696 116.565386 
L 76.397869 116.565386 
L 76.397869 111.853323 
L 76.46294 111.853323 
L 81.082275 111.853323 
L 81.082275 107.14126 
L 81.147295 107.14126 
L 82.123231 107.14126 
L 82.123231 102.429197 
L 82.188254 102.429197 
L 88.889523 102.429197 
L 88.889523 97.717134 
L 88.954591 97.717134 
L 99.299293 97.717134 
L 99.299293 93.005071 
L 99.364391 93.005071 
L 100.080051 93.005071 
L 100.080051 78.868882 
L 100.145091 78.868882 
L 100.340267 78.868882 
L 100.340267 69.444756 
L 100.405324 69.444756 
L 100.600538 69.444756 
L 100.600538 60.02063 
L 100.665582 60.02063 
L 101.381266 60.02063 
L 101.381266 55.308567 
L 101.446312 55.308567 
L 105.02466 55.308567 
L 105.02466 50.596504 
L 105.089718 50.596504 
L 105.805374 50.596504 
L 105.805374 45.884441 
L 105.870423 45.884441 
L 106.065636 45.884441 
L 106.065636 41.172378 
L 106.130687 41.172378 
L 106.325862 41.172378 
L 106.325862 36.460315 
L 106.39093 36.460315 
L 107.106619 36.460315 
L 107.106619 31.748252 
L 107.171684 31.748252 
L 303.005 31.748252 
L 303.005 31.748252 
" style="fill:none;stroke:#a6761d;stroke-linecap:square;stroke-width:1.5;"/>
   </g>
   <g id="line2d_25">
    <path clip-path="url(#pbd8f706420)" d="M 55.905 201.382519 
L 68.590545 201.382519 
L 68.590545 196.670456 
L 68.655644 196.670456 
L 69.371276 196.670456 
L 69.371276 191.958393 
L 69.436323 191.958393 
L 75.096645 191.958393 
L 75.096645 187.24633 
L 75.161711 187.24633 
L 75.617131 187.24633 
L 75.617131 191.958393 
L 75.6822 191.958393 
L 75.877373 191.958393 
L 75.877373 182.534267 
L 75.942469 182.534267 
L 99.559574 182.534267 
L 99.559574 177.822204 
L 99.62457 177.822204 
L 100.080051 177.822204 
L 100.080051 173.110142 
L 100.145091 173.110142 
L 100.600538 173.110142 
L 100.600538 168.398079 
L 100.665582 168.398079 
L 100.860785 168.398079 
L 100.860785 163.686016 
L 100.925836 163.686016 
L 102.161961 163.686016 
L 102.161961 158.973953 
L 102.227005 158.973953 
L 106.325862 158.973953 
L 106.325862 154.26189 
L 106.39093 154.26189 
L 107.106619 154.26189 
L 107.106619 149.549827 
L 107.171684 149.549827 
L 107.36686 149.549827 
L 107.36686 144.837764 
L 107.431912 144.837764 
L 111.790966 144.837764 
L 111.790966 135.413638 
L 111.856046 135.413638 
L 112.051204 135.413638 
L 112.051204 130.701575 
L 112.116266 130.701575 
L 112.311445 130.701575 
L 112.376511 116.565386 
L 112.376511 116.565386 
L 113.352469 116.565386 
L 113.352469 111.853323 
L 113.417539 111.853323 
L 113.612675 111.853323 
L 113.612675 107.14126 
L 113.677736 107.14126 
L 113.872953 107.14126 
L 113.872953 111.853323 
L 113.938012 111.853323 
L 114.133174 111.853323 
L 114.133174 107.14126 
L 114.19825 107.14126 
L 114.393403 107.14126 
L 114.393403 102.429197 
L 114.458455 102.429197 
L 117.516368 102.429197 
L 117.516368 107.14126 
L 117.581379 107.14126 
L 118.297058 107.14126 
L 118.297058 93.005071 
L 118.362137 93.005071 
L 118.817563 93.005071 
L 118.817563 88.293008 
L 118.882656 88.293008 
L 119.33809 88.293008 
L 119.33809 69.444756 
L 119.403095 69.444756 
L 119.598334 69.444756 
L 119.598334 64.732693 
L 119.663338 64.732693 
L 125.323644 64.732693 
L 125.323644 60.02063 
L 125.388731 60.02063 
L 146.40343 60.02063 
L 146.40343 55.308567 
L 146.468451 55.308567 
L 150.567317 55.308567 
L 150.567317 50.596504 
L 150.632364 50.596504 
L 150.827529 50.596504 
L 150.827529 55.308567 
L 150.892578 55.308567 
L 151.348019 55.308567 
L 151.348019 50.596504 
L 151.41306 50.596504 
L 157.593909 50.596504 
L 157.593909 45.884441 
L 157.659038 45.884441 
L 168.263834 45.884441 
L 168.263834 50.596504 
L 168.328903 50.596504 
L 175.550669 50.596504 
L 175.550669 45.884441 
L 175.615733 45.884441 
L 186.741195 45.884441 
L 186.741195 50.596504 
L 186.806191 50.596504 
L 187.261612 50.596504 
L 187.261612 55.308567 
L 187.326673 55.308567 
L 188.042352 55.308567 
L 188.042352 60.02063 
L 188.107413 60.02063 
L 195.329185 60.02063 
L 195.329185 64.732693 
L 195.394229 64.732693 
L 206.519644 64.732693 
L 206.519644 69.444756 
L 206.584761 69.444756 
L 232.544067 69.444756 
L 232.544067 74.156819 
L 232.609113 74.156819 
L 303.005 74.156819 
L 303.005 74.156819 
" style="fill:none;stroke:#666666;stroke-linecap:square;stroke-width:1.5;"/>
   </g>
   <g id="line2d_26">
    <path clip-path="url(#pbd8f706420)" d="M 55.905 206.094582 
L 68.590545 206.094582 
L 68.590545 201.382519 
L 68.655644 201.382519 
L 75.617131 201.382519 
L 75.617131 191.958393 
L 75.6822 191.958393 
L 99.299293 191.958393 
L 99.299293 187.24633 
L 99.364391 187.24633 
L 99.819792 187.24633 
L 99.819792 182.534267 
L 99.884818 182.534267 
L 100.600538 182.534267 
L 100.600538 177.822204 
L 100.665582 177.822204 
L 105.545136 177.822204 
L 105.545136 173.110142 
L 105.610201 173.110142 
L 105.805374 173.110142 
L 105.805374 163.686016 
L 105.870423 163.686016 
L 106.065636 163.686016 
L 106.065636 158.973953 
L 106.130687 158.973953 
L 106.586078 158.973953 
L 106.586078 154.26189 
L 106.651197 154.26189 
L 106.846373 154.26189 
L 106.846373 144.837764 
L 106.911424 144.837764 
L 107.106619 144.837764 
L 107.106619 135.413638 
L 107.171684 135.413638 
L 108.147612 135.413638 
L 108.147612 130.701575 
L 108.212667 130.701575 
L 108.668083 130.701575 
L 108.668083 125.989512 
L 108.733132 125.989512 
L 108.928279 125.989512 
L 108.928279 130.701575 
L 108.993408 130.701575 
L 111.270499 130.701575 
L 111.270499 135.413638 
L 111.335581 135.413638 
L 111.530716 135.413638 
L 111.530716 140.125701 
L 111.595787 140.125701 
L 111.790966 140.125701 
L 111.790966 135.413638 
L 111.856046 135.413638 
L 112.051204 135.413638 
L 112.051204 140.125701 
L 112.116266 140.125701 
L 112.311445 140.125701 
L 112.311445 135.413638 
L 112.376511 135.413638 
L 112.571715 135.413638 
L 112.571715 130.701575 
L 112.636772 130.701575 
L 113.092192 130.701575 
L 113.092192 135.413638 
L 113.157278 135.413638 
L 119.077816 135.413638 
L 119.077816 130.701575 
L 119.142887 130.701575 
L 119.598334 130.701575 
L 119.598334 125.989512 
L 119.663338 125.989512 
L 125.583922 125.989512 
L 125.583922 121.277449 
L 125.648938 121.277449 
L 127.405607 121.277449 
L 127.405607 116.565386 
L 127.470696 116.565386 
L 144.061205 116.565386 
L 144.061205 111.853323 
L 144.12623 111.853323 
L 144.321445 111.853323 
L 144.321445 107.14126 
L 144.386473 107.14126 
L 145.362394 107.14126 
L 145.362394 102.429197 
L 145.427533 102.429197 
L 157.593909 102.429197 
L 157.593909 97.717134 
L 157.659038 97.717134 
L 158.374571 97.717134 
L 158.374571 93.005071 
L 158.439696 93.005071 
L 171.386796 93.005071 
L 171.386796 88.293008 
L 171.451815 88.293008 
L 177.11213 88.293008 
L 177.11213 93.005071 
L 177.177232 93.005071 
L 187.261612 93.005071 
L 187.261612 97.717134 
L 187.326673 97.717134 
L 232.023567 97.717134 
L 232.023567 93.005071 
L 232.088607 93.005071 
L 276.004767 93.005071 
L 276.004767 88.293008 
L 276.06981 88.293008 
L 280.949378 88.293008 
L 280.949378 83.580945 
L 281.014397 83.580945 
L 298.90616 83.580945 
L 298.90616 78.868882 
L 298.971192 78.868882 
L 303.005 78.868882 
L 303.005 78.868882 
" style="fill:none;stroke:#1b9e77;stroke-dasharray:4.5,1.5;stroke-dashoffset:0;stroke-width:1.5;"/>
   </g>
   <g id="line2d_27">
    <path clip-path="url(#pbd8f706420)" d="M 55.905 196.670456 
L 61.689762 196.670456 
L 61.689762 191.958393 
L 69.371276 191.958393 
L 69.371276 187.24633 
L 69.436323 187.24633 
L 74.57613 187.24633 
L 74.57613 182.534267 
L 74.641189 182.534267 
L 75.096645 182.534267 
L 75.096645 177.822204 
L 75.161711 177.822204 
L 75.877373 177.822204 
L 75.877373 173.110142 
L 75.942469 173.110142 
L 76.13761 173.110142 
L 76.13761 168.398079 
L 76.202696 168.398079 
L 77.699083 168.398079 
L 77.699083 163.686016 
L 77.76415 163.686016 
L 100.080051 163.686016 
L 100.080051 154.26189 
L 100.145091 154.26189 
L 106.065636 154.26189 
L 106.065636 149.549827 
L 106.130687 149.549827 
L 107.36686 149.549827 
L 107.36686 144.837764 
L 107.431912 144.837764 
L 108.147612 144.837764 
L 108.147612 140.125701 
L 108.212667 140.125701 
L 112.051204 140.125701 
L 112.051204 135.413638 
L 112.116266 135.413638 
L 112.311445 135.413638 
L 112.311445 125.989512 
L 112.376511 125.989512 
L 113.092192 125.989512 
L 113.092192 116.565386 
L 113.157278 116.565386 
L 118.817563 116.565386 
L 118.817563 111.853323 
L 118.882656 111.853323 
L 119.598334 111.853323 
L 119.598334 107.14126 
L 119.663338 107.14126 
L 120.379012 107.14126 
L 120.379012 102.429197 
L 120.444082 102.429197 
L 126.885145 102.429197 
L 126.885145 97.717134 
L 126.950145 97.717134 
L 144.841944 97.717134 
L 144.841944 93.005071 
L 144.906978 93.005071 
L 150.827529 93.005071 
L 150.827529 88.293008 
L 150.892578 88.293008 
L 157.593909 88.293008 
L 157.593909 93.005071 
L 157.659038 93.005071 
L 187.521895 93.005071 
L 187.521895 88.293008 
L 187.586982 88.293008 
L 187.782117 88.293008 
L 187.782117 93.005071 
L 187.847187 93.005071 
L 194.288234 93.005071 
L 194.288234 88.293008 
L 194.353302 88.293008 
L 240.091082 88.293008 
L 240.091082 83.580945 
L 240.156197 83.580945 
L 281.730075 83.580945 
L 281.730075 78.868882 
L 281.7952 78.868882 
L 295.002527 78.868882 
L 295.002527 83.580945 
L 295.06755 83.580945 
L 303.005 83.580945 
L 303.005 83.580945 
" style="fill:none;stroke:#d95f02;stroke-dasharray:4.5,1.5;stroke-dashoffset:0;stroke-width:1.5;"/>
   </g>
   <g id="line2d_28">
    <path clip-path="url(#pbd8f706420)" d="M 55.905 206.094582 
L 68.070094 206.094582 
L 68.070094 201.382519 
L 68.135159 201.382519 
L 68.330327 201.382519 
L 68.330327 196.670456 
L 68.39539 196.670456 
L 69.371276 196.670456 
L 69.371276 187.24633 
L 69.436323 187.24633 
L 74.315916 187.24633 
L 74.315916 182.534267 
L 74.380967 182.534267 
L 75.617131 182.534267 
L 75.617131 177.822204 
L 75.6822 177.822204 
L 75.877373 177.822204 
L 75.877373 173.110142 
L 75.942469 173.110142 
L 76.13761 173.110142 
L 76.13761 168.398079 
L 76.202696 168.398079 
L 99.819792 168.398079 
L 99.819792 163.686016 
L 99.884818 163.686016 
L 100.080051 163.686016 
L 100.080051 158.973953 
L 100.145091 158.973953 
L 100.340267 158.973953 
L 100.340267 149.549827 
L 100.405324 149.549827 
L 106.846373 149.549827 
L 106.846373 144.837764 
L 106.911424 144.837764 
L 107.106619 144.837764 
L 107.106619 140.125701 
L 107.171684 140.125701 
L 111.530716 140.125701 
L 111.530716 144.837764 
L 111.595787 144.837764 
L 112.311445 144.837764 
L 112.311445 135.413638 
L 112.376511 135.413638 
L 112.571715 135.413638 
L 112.571715 140.125701 
L 112.636772 140.125701 
L 112.831973 140.125701 
L 112.831973 135.413638 
L 112.897037 135.413638 
L 113.352469 135.413638 
L 113.352469 125.989512 
L 113.417539 125.989512 
L 113.612675 125.989512 
L 113.612675 121.277449 
L 113.677736 121.277449 
L 125.844121 121.277449 
L 125.844121 116.565386 
L 125.909216 116.565386 
L 126.624898 116.565386 
L 126.624898 111.853323 
L 126.689971 111.853323 
L 139.116555 111.853323 
L 139.116555 107.14126 
L 139.181646 107.14126 
L 162.798728 107.14126 
L 162.798728 102.429197 
L 162.863812 102.429197 
L 163.839701 102.429197 
L 163.839701 97.717134 
L 163.904782 97.717134 
L 169.044615 97.717134 
L 169.044615 93.005071 
L 169.109645 93.005071 
L 189.603875 93.005071 
L 189.603875 88.293008 
L 189.66892 88.293008 
L 303.005 88.293008 
L 303.005 88.293008 
" style="fill:none;stroke:#7570b3;stroke-dasharray:4.5,1.5;stroke-dashoffset:0;stroke-width:1.5;"/>
   </g>
   <g id="line2d_29">
    <path clip-path="url(#pbd8f706420)" d="M 55.905 210.806645 
L 62.605196 210.806645 
L 62.605196 206.094582 
L 62.670018 206.094582 
L 63.125468 206.094582 
L 63.125468 201.382519 
L 63.190501 201.382519 
L 69.111029 201.382519 
L 69.111029 196.670456 
L 69.176109 196.670456 
L 75.877373 196.670456 
L 75.877373 191.958393 
L 75.942469 191.958393 
L 80.041281 191.958393 
L 80.041281 187.24633 
L 80.1064 187.24633 
L 81.342472 187.24633 
L 81.342472 182.534267 
L 81.407544 182.534267 
L 81.862983 182.534267 
L 81.862983 177.822204 
L 81.928058 177.822204 
L 99.299293 177.822204 
L 99.299293 168.398079 
L 99.364391 168.398079 
L 99.819792 168.398079 
L 99.819792 163.686016 
L 99.884818 163.686016 
L 100.080051 163.686016 
L 100.080051 158.973953 
L 100.145091 158.973953 
L 100.340267 158.973953 
L 100.340267 154.26189 
L 100.405324 154.26189 
L 100.600538 154.26189 
L 100.600538 144.837764 
L 100.665582 144.837764 
L 100.860785 144.837764 
L 100.860785 140.125701 
L 100.925836 140.125701 
L 101.381266 140.125701 
L 101.381266 135.413638 
L 101.446312 135.413638 
L 101.901776 135.413638 
L 101.901776 130.701575 
L 101.966757 130.701575 
L 102.682436 130.701575 
L 102.682436 125.989512 
L 102.747499 125.989512 
L 105.545136 125.989512 
L 105.545136 121.277449 
L 105.610201 121.277449 
L 105.805374 121.277449 
L 105.805374 116.565386 
L 105.870423 116.565386 
L 106.065636 116.565386 
L 106.065636 102.429197 
L 106.130687 102.429197 
L 106.325862 102.429197 
L 106.325862 97.717134 
L 106.39093 97.717134 
L 106.586078 97.717134 
L 106.586078 93.005071 
L 106.651197 93.005071 
L 108.928279 93.005071 
L 108.928279 97.717134 
L 108.993408 97.717134 
L 112.311445 97.717134 
L 112.311445 93.005071 
L 112.376511 93.005071 
L 112.571715 93.005071 
L 112.571715 97.717134 
L 112.636772 97.717134 
L 112.831973 97.717134 
L 112.831973 93.005071 
L 112.897037 93.005071 
L 120.118829 93.005071 
L 120.118829 97.717134 
L 120.183829 97.717134 
L 120.379012 97.717134 
L 120.379012 93.005071 
L 120.444082 93.005071 
L 303.005 93.005071 
L 303.005 93.005071 
" style="fill:none;stroke:#e7298a;stroke-dasharray:4.5,1.5;stroke-dashoffset:0;stroke-width:1.5;"/>
   </g>
   <g id="line2d_30">
    <path clip-path="url(#pbd8f706420)" d="M 55.905 210.806645 
L 63.645894 210.806645 
L 63.645894 206.094582 
L 63.710984 206.094582 
L 64.68692 206.094582 
L 64.68692 201.382519 
L 64.751944 201.382519 
L 81.082275 201.382519 
L 81.082275 196.670456 
L 81.147295 196.670456 
L 99.299293 196.670456 
L 99.299293 191.958393 
L 99.364391 191.958393 
L 101.12099 191.958393 
L 101.12099 182.534267 
L 101.186037 182.534267 
L 106.065636 182.534267 
L 106.065636 177.822204 
L 106.130687 177.822204 
L 106.325862 177.822204 
L 106.325862 173.110142 
L 106.39093 173.110142 
L 107.106619 173.110142 
L 107.106619 163.686016 
L 107.171684 163.686016 
L 107.36686 163.686016 
L 107.36686 158.973953 
L 107.431912 158.973953 
L 108.928279 158.973953 
L 108.928279 154.26189 
L 108.993408 154.26189 
L 112.051204 154.26189 
L 112.051204 158.973953 
L 112.116266 158.973953 
L 112.571715 158.973953 
L 112.571715 154.26189 
L 112.636772 154.26189 
L 112.831973 154.26189 
L 112.831973 149.549827 
L 112.897037 149.549827 
L 113.352469 149.549827 
L 113.352469 144.837764 
L 113.417539 144.837764 
L 113.612675 144.837764 
L 113.612675 149.549827 
L 113.677736 149.549827 
L 113.872953 149.549827 
L 113.872953 144.837764 
L 113.938012 144.837764 
L 118.297058 144.837764 
L 118.297058 140.125701 
L 118.362137 140.125701 
L 126.624898 140.125701 
L 126.624898 135.413638 
L 126.689971 135.413638 
L 144.061205 135.413638 
L 144.061205 130.701575 
L 144.12623 130.701575 
L 168.784335 130.701575 
L 168.784335 125.989512 
L 168.849441 125.989512 
L 199.753356 125.989512 
L 199.753356 121.277449 
L 199.818386 121.277449 
L 232.544067 121.277449 
L 232.544067 116.565386 
L 232.609113 116.565386 
L 293.441057 116.565386 
L 293.441057 111.853323 
L 303.005 111.853323 
L 303.005 111.853323 
" style="fill:none;stroke:#66a61e;stroke-dasharray:4.5,1.5;stroke-dashoffset:0;stroke-width:1.5;"/>
   </g>
   <g id="line2d_31">
    <path clip-path="url(#pbd8f706420)" d="M 172.75305 210.806645 
L 175.030163 210.806645 
L 175.030163 206.094582 
L 175.09527 206.094582 
L 182.837527 206.094582 
L 182.837527 201.382519 
L 182.902568 201.382519 
L 186.741195 201.382519 
L 186.741195 182.534267 
L 186.806191 182.534267 
L 187.261612 182.534267 
L 187.261612 173.110142 
L 187.326673 173.110142 
L 187.782117 173.110142 
L 187.782117 158.973953 
L 187.847187 158.973953 
L 188.302596 158.973953 
L 188.302596 154.26189 
L 188.367711 154.26189 
L 193.507523 154.26189 
L 193.507523 149.549827 
L 193.572544 149.549827 
L 194.808726 149.549827 
L 194.808726 144.837764 
L 194.873746 144.837764 
L 195.329185 144.837764 
L 195.329185 140.125701 
L 195.394229 140.125701 
L 195.849675 140.125701 
L 195.849675 135.413638 
L 195.914768 135.413638 
L 196.109928 135.413638 
L 196.109928 130.701575 
L 196.174947 130.701575 
L 199.753356 130.701575 
L 199.753356 125.989512 
L 199.818386 125.989512 
L 202.095506 125.989512 
L 202.095506 121.277449 
L 202.160612 121.277449 
L 206.519644 121.277449 
L 206.519644 116.565386 
L 206.584761 116.565386 
L 286.154202 116.565386 
L 286.154202 121.277449 
L 286.219296 121.277449 
L 287.455405 121.277449 
L 287.455405 116.565386 
L 287.52049 116.565386 
L 303.005 116.565386 
L 303.005 116.565386 
" style="fill:none;stroke:#e6ab02;stroke-dasharray:4.5,1.5;stroke-dashoffset:0;stroke-width:1.5;"/>
   </g>
   <g id="line2d_32">
    <path clip-path="url(#pbd8f706420)" d="M 55.905 206.094582 
L 68.850787 206.094582 
L 68.850787 196.670456 
L 68.915821 196.670456 
L 74.57613 196.670456 
L 74.57613 187.24633 
L 74.641189 187.24633 
L 74.83636 187.24633 
L 74.83636 182.534267 
L 74.901427 182.534267 
L 75.877373 182.534267 
L 75.877373 177.822204 
L 75.942469 177.822204 
L 76.13761 177.822204 
L 76.13761 173.110142 
L 76.202696 173.110142 
L 100.340267 173.110142 
L 100.340267 168.398079 
L 100.405324 168.398079 
L 100.600538 168.398079 
L 100.600538 163.686016 
L 100.665582 163.686016 
L 100.860785 163.686016 
L 100.860785 158.973953 
L 100.925836 158.973953 
L 101.641458 158.973953 
L 101.641458 154.26189 
L 101.706578 154.26189 
L 101.901776 154.26189 
L 101.901776 158.973953 
L 101.966757 158.973953 
L 105.545136 158.973953 
L 105.545136 140.125701 
L 105.610201 140.125701 
L 106.065636 140.125701 
L 106.065636 130.701575 
L 106.130687 130.701575 
L 106.325862 130.701575 
L 106.325862 125.989512 
L 106.39093 125.989512 
L 106.586078 125.989512 
L 106.586078 116.565386 
L 106.651197 116.565386 
L 303.005 116.565386 
L 303.005 116.565386 
" style="fill:none;stroke:#a6761d;stroke-dasharray:4.5,1.5;stroke-dashoffset:0;stroke-width:1.5;"/>
   </g>
   <g id="line2d_33">
    <path clip-path="url(#pbd8f706420)" d="M 55.905 210.806645 
L 69.371276 210.806645 
L 69.371276 206.094582 
L 69.436323 206.094582 
L 69.631558 206.094582 
L 69.631558 201.382519 
L 69.696602 201.382519 
L 74.83636 201.382519 
L 74.83636 196.670456 
L 74.901427 196.670456 
L 76.13761 196.670456 
L 76.13761 191.958393 
L 76.202696 191.958393 
L 76.658097 191.958393 
L 76.658097 187.24633 
L 76.723172 187.24633 
L 77.178611 187.24633 
L 77.178611 182.534267 
L 77.243676 182.534267 
L 81.082275 182.534267 
L 81.082275 187.24633 
L 81.147295 187.24633 
L 99.559574 187.24633 
L 99.559574 182.534267 
L 99.62457 182.534267 
L 101.12099 182.534267 
L 101.12099 173.110142 
L 101.186037 173.110142 
L 105.805374 173.110142 
L 105.805374 168.398079 
L 105.870423 168.398079 
L 106.846373 168.398079 
L 106.846373 149.549827 
L 106.911424 149.549827 
L 107.106619 149.549827 
L 107.106619 144.837764 
L 107.171684 144.837764 
L 107.36686 144.837764 
L 107.36686 140.125701 
L 107.431912 140.125701 
L 187.261612 140.125701 
L 187.261612 144.837764 
L 187.326673 144.837764 
L 187.521895 144.837764 
L 187.521895 140.125701 
L 187.586982 140.125701 
L 303.005 140.125701 
L 303.005 140.125701 
" style="fill:none;stroke:#666666;stroke-dasharray:4.5,1.5;stroke-dashoffset:0;stroke-width:1.5;"/>
   </g>
   <g id="line2d_34"/>
   <g id="line2d_35"/>
   <g id="line2d_36"/>
   <g id="line2d_37"/>
   <g id="line2d_38"/>
   <g id="line2d_39"/>
   <g id="line2d_40"/>
   <g id="line2d_41"/>
   <g id="line2d_42"/>
   <g id="line2d_43"/>
   <g id="line2d_44"/>
   <g id="line2d_45"/>
   <g id="line2d_46"/>
   <g id="line2d_47"/>
   <g id="line2d_48"/>
   <g id="line2d_49"/>
   <g id="line2d_50"/>
   <g id="patch_3">
    <path d="M 43.55 220.230771 
L 43.55 12.9 
" style="fill:none;stroke:#000000;stroke-linecap:square;stroke-linejoin:miter;stroke-width:0.8;"/>
   </g>
   <g id="patch_4">
    <path d="M 315.36 220.230771 
L 315.36 12.9 
" style="fill:none;stroke:#000000;stroke-linecap:square;stroke-linejoin:miter;stroke-width:0.8;"/>
   </g>
   <g id="patch_5">
    <path d="M 43.55 220.230771 
L 315.36 220.230771 
" style="fill:none;stroke:#000000;stroke-linecap:square;stroke-linejoin:miter;stroke-width:0.8;"/>
   </g>
   <g id="patch_6">
    <path d="M 43.55 12.9 
L 315.36 12.9 
" style="fill:none;stroke:#000000;stroke-linecap:square;stroke-linejoin:miter;stroke-width:0.8;"/>
   </g>
  </g>
  <g id="legend_1">
   <g id="patch_7">
    <path d="M 331.8625 262.528125 
L 420 262.528125 
Q 422 262.528125 422 260.528125 
L 422 12 
Q 422 10 420 10 
L 331.8625 10 
Q 329.8625 10 329.8625 12 
L 329.8625 260.528125 
Q 329.8625 262.528125 331.8625 262.528125 
z
" style="fill:#ffffff;opacity:0.8;stroke:#cccccc;stroke-linejoin:miter;"/>
   </g>
   <g id="text_20">
    <!-- 485/610 Reg. -->
    <defs>
     <path d="M 25.390625 72.90625 
L 33.6875 72.90625 
L 8.296875 -9.28125 
L 0 -9.28125 
z
" id="DejaVuSans-47"/>
     <path d="M 33.015625 40.375 
Q 26.375 40.375 22.484375 35.828125 
Q 18.609375 31.296875 18.609375 23.390625 
Q 18.609375 15.53125 22.484375 10.953125 
Q 26.375 6.390625 33.015625 6.390625 
Q 39.65625 6.390625 43.53125 10.953125 
Q 47.40625 15.53125 47.40625 23.390625 
Q 47.40625 31.296875 43.53125 35.828125 
Q 39.65625 40.375 33.015625 40.375 
z
M 52.59375 71.296875 
L 52.59375 62.3125 
Q 48.875 64.0625 45.09375 64.984375 
Q 41.3125 65.921875 37.59375 65.921875 
Q 27.828125 65.921875 22.671875 59.328125 
Q 17.53125 52.734375 16.796875 39.40625 
Q 19.671875 43.65625 24.015625 45.921875 
Q 28.375 48.1875 33.59375 48.1875 
Q 44.578125 48.1875 50.953125 41.515625 
Q 57.328125 34.859375 57.328125 23.390625 
Q 57.328125 12.15625 50.6875 5.359375 
Q 44.046875 -1.421875 33.015625 -1.421875 
Q 20.359375 -1.421875 13.671875 8.265625 
Q 6.984375 17.96875 6.984375 36.375 
Q 6.984375 53.65625 15.1875 63.9375 
Q 23.390625 74.21875 37.203125 74.21875 
Q 40.921875 74.21875 44.703125 73.484375 
Q 48.484375 72.75 52.59375 71.296875 
z
" id="DejaVuSans-54"/>
     <path d="M 10.6875 12.40625 
L 21 12.40625 
L 21 0 
L 10.6875 0 
z
" id="DejaVuSans-46"/>
    </defs>
    <g transform="translate(342.259375 21.598437)scale(0.1 -0.1)">
     <use xlink:href="#DejaVuSans-52"/>
     <use x="63.623047" xlink:href="#DejaVuSans-56"/>
     <use x="127.246094" xlink:href="#DejaVuSans-53"/>
     <use x="190.869141" xlink:href="#DejaVuSans-47"/>
     <use x="224.560547" xlink:href="#DejaVuSans-54"/>
     <use x="288.183594" xlink:href="#DejaVuSans-49"/>
     <use x="351.806641" xlink:href="#DejaVuSans-48"/>
     <use x="415.429688" xlink:href="#DejaVuSans-32"/>
     <use x="447.216797" xlink:href="#DejaVuSans-82"/>
     <use x="516.636719" xlink:href="#DejaVuSans-101"/>
     <use x="578.160156" xlink:href="#DejaVuSans-103"/>
     <use x="641.636719" xlink:href="#DejaVuSans-46"/>
    </g>
   </g>
   <g id="line2d_51">
    <path d="M 333.8625 32.776562 
L 353.8625 32.776562 
" style="fill:none;stroke:#1b9e77;stroke-linecap:square;stroke-width:1.5;"/>
   </g>
   <g id="line2d_52"/>
   <g id="text_21">
    <!-- SA (40) -->
    <defs>
     <path d="M 34.1875 63.1875 
L 20.796875 26.90625 
L 47.609375 26.90625 
z
M 28.609375 72.90625 
L 39.796875 72.90625 
L 67.578125 0 
L 57.328125 0 
L 50.6875 18.703125 
L 17.828125 18.703125 
L 11.1875 0 
L 0.78125 0 
z
" id="DejaVuSans-65"/>
     <path d="M 31 75.875 
Q 24.46875 64.65625 21.28125 53.65625 
Q 18.109375 42.671875 18.109375 31.390625 
Q 18.109375 20.125 21.3125 9.0625 
Q 24.515625 -2 31 -13.1875 
L 23.1875 -13.1875 
Q 15.875 -1.703125 12.234375 9.375 
Q 8.59375 20.453125 8.59375 31.390625 
Q 8.59375 42.28125 12.203125 53.3125 
Q 15.828125 64.359375 23.1875 75.875 
z
" id="DejaVuSans-40"/>
     <path d="M 8.015625 75.875 
L 15.828125 75.875 
Q 23.140625 64.359375 26.78125 53.3125 
Q 30.421875 42.28125 30.421875 31.390625 
Q 30.421875 20.453125 26.78125 9.375 
Q 23.140625 -1.703125 15.828125 -13.1875 
L 8.015625 -13.1875 
Q 14.5 -2 17.703125 9.0625 
Q 20.90625 20.125 20.90625 31.390625 
Q 20.90625 42.671875 17.703125 53.65625 
Q 14.5 64.65625 8.015625 75.875 
z
" id="DejaVuSans-41"/>
    </defs>
    <g transform="translate(361.8625 36.276562)scale(0.1 -0.1)">
     <use xlink:href="#DejaVuSans-83"/>
     <use x="63.492188" xlink:href="#DejaVuSans-65"/>
     <use x="131.900391" xlink:href="#DejaVuSans-32"/>
     <use x="163.6875" xlink:href="#DejaVuSans-40"/>
     <use x="202.701172" xlink:href="#DejaVuSans-52"/>
     <use x="266.324219" xlink:href="#DejaVuSans-48"/>
     <use x="329.947266" xlink:href="#DejaVuSans-41"/>
    </g>
   </g>
   <g id="line2d_53">
    <path d="M 333.8625 47.454688 
L 353.8625 47.454688 
" style="fill:none;stroke:#d95f02;stroke-linecap:square;stroke-width:1.5;"/>
   </g>
   <g id="line2d_54"/>
   <g id="text_22">
    <!-- AUS (40) -->
    <defs>
     <path d="M 8.6875 72.90625 
L 18.609375 72.90625 
L 18.609375 28.609375 
Q 18.609375 16.890625 22.84375 11.734375 
Q 27.09375 6.59375 36.625 6.59375 
Q 46.09375 6.59375 50.34375 11.734375 
Q 54.59375 16.890625 54.59375 28.609375 
L 54.59375 72.90625 
L 64.5 72.90625 
L 64.5 27.390625 
Q 64.5 13.140625 57.4375 5.859375 
Q 50.390625 -1.421875 36.625 -1.421875 
Q 22.796875 -1.421875 15.734375 5.859375 
Q 8.6875 13.140625 8.6875 27.390625 
z
" id="DejaVuSans-85"/>
    </defs>
    <g transform="translate(361.8625 50.954688)scale(0.1 -0.1)">
     <use xlink:href="#DejaVuSans-65"/>
     <use x="68.408203" xlink:href="#DejaVuSans-85"/>
     <use x="141.601562" xlink:href="#DejaVuSans-83"/>
     <use x="205.078125" xlink:href="#DejaVuSans-32"/>
     <use x="236.865234" xlink:href="#DejaVuSans-40"/>
     <use x="275.878906" xlink:href="#DejaVuSans-52"/>
     <use x="339.501953" xlink:href="#DejaVuSans-48"/>
     <use x="403.125" xlink:href="#DejaVuSans-41"/>
    </g>
   </g>
   <g id="line2d_55">
    <path d="M 333.8625 62.132812 
L 353.8625 62.132812 
" style="fill:none;stroke:#7570b3;stroke-linecap:square;stroke-width:1.5;"/>
   </g>
   <g id="line2d_56"/>
   <g id="text_23">
    <!-- COML (40) -->
    <defs>
     <path d="M 64.40625 67.28125 
L 64.40625 56.890625 
Q 59.421875 61.53125 53.78125 63.8125 
Q 48.140625 66.109375 41.796875 66.109375 
Q 29.296875 66.109375 22.65625 58.46875 
Q 16.015625 50.828125 16.015625 36.375 
Q 16.015625 21.96875 22.65625 14.328125 
Q 29.296875 6.6875 41.796875 6.6875 
Q 48.140625 6.6875 53.78125 8.984375 
Q 59.421875 11.28125 64.40625 15.921875 
L 64.40625 5.609375 
Q 59.234375 2.09375 53.4375 0.328125 
Q 47.65625 -1.421875 41.21875 -1.421875 
Q 24.65625 -1.421875 15.125 8.703125 
Q 5.609375 18.84375 5.609375 36.375 
Q 5.609375 53.953125 15.125 64.078125 
Q 24.65625 74.21875 41.21875 74.21875 
Q 47.75 74.21875 53.53125 72.484375 
Q 59.328125 70.75 64.40625 67.28125 
z
" id="DejaVuSans-67"/>
     <path d="M 39.40625 66.21875 
Q 28.65625 66.21875 22.328125 58.203125 
Q 16.015625 50.203125 16.015625 36.375 
Q 16.015625 22.609375 22.328125 14.59375 
Q 28.65625 6.59375 39.40625 6.59375 
Q 50.140625 6.59375 56.421875 14.59375 
Q 62.703125 22.609375 62.703125 36.375 
Q 62.703125 50.203125 56.421875 58.203125 
Q 50.140625 66.21875 39.40625 66.21875 
z
M 39.40625 74.21875 
Q 54.734375 74.21875 63.90625 63.9375 
Q 73.09375 53.65625 73.09375 36.375 
Q 73.09375 19.140625 63.90625 8.859375 
Q 54.734375 -1.421875 39.40625 -1.421875 
Q 24.03125 -1.421875 14.8125 8.828125 
Q 5.609375 19.09375 5.609375 36.375 
Q 5.609375 53.65625 14.8125 63.9375 
Q 24.03125 74.21875 39.40625 74.21875 
z
" id="DejaVuSans-79"/>
     <path d="M 9.8125 72.90625 
L 24.515625 72.90625 
L 43.109375 23.296875 
L 61.8125 72.90625 
L 76.515625 72.90625 
L 76.515625 0 
L 66.890625 0 
L 66.890625 64.015625 
L 48.09375 14.015625 
L 38.1875 14.015625 
L 19.390625 64.015625 
L 19.390625 0 
L 9.8125 0 
z
" id="DejaVuSans-77"/>
     <path d="M 9.8125 72.90625 
L 19.671875 72.90625 
L 19.671875 8.296875 
L 55.171875 8.296875 
L 55.171875 0 
L 9.8125 0 
z
" id="DejaVuSans-76"/>
    </defs>
    <g transform="translate(361.8625 65.632812)scale(0.1 -0.1)">
     <use xlink:href="#DejaVuSans-67"/>
     <use x="69.824219" xlink:href="#DejaVuSans-79"/>
     <use x="148.535156" xlink:href="#DejaVuSans-77"/>
     <use x="234.814453" xlink:href="#DejaVuSans-76"/>
     <use x="290.527344" xlink:href="#DejaVuSans-32"/>
     <use x="322.314453" xlink:href="#DejaVuSans-40"/>
     <use x="361.328125" xlink:href="#DejaVuSans-52"/>
     <use x="424.951172" xlink:href="#DejaVuSans-48"/>
     <use x="488.574219" xlink:href="#DejaVuSans-41"/>
    </g>
   </g>
   <g id="line2d_57">
    <path d="M 333.8625 76.810937 
L 353.8625 76.810937 
" style="fill:none;stroke:#e7298a;stroke-linecap:square;stroke-width:1.5;"/>
   </g>
   <g id="line2d_58"/>
   <g id="text_24">
    <!-- GDD (40) -->
    <defs>
     <path d="M 59.515625 10.40625 
L 59.515625 29.984375 
L 43.40625 29.984375 
L 43.40625 38.09375 
L 69.28125 38.09375 
L 69.28125 6.78125 
Q 63.578125 2.734375 56.6875 0.65625 
Q 49.8125 -1.421875 42 -1.421875 
Q 24.90625 -1.421875 15.25 8.5625 
Q 5.609375 18.5625 5.609375 36.375 
Q 5.609375 54.25 15.25 64.234375 
Q 24.90625 74.21875 42 74.21875 
Q 49.125 74.21875 55.546875 72.453125 
Q 61.96875 70.703125 67.390625 67.28125 
L 67.390625 56.78125 
Q 61.921875 61.421875 55.765625 63.765625 
Q 49.609375 66.109375 42.828125 66.109375 
Q 29.4375 66.109375 22.71875 58.640625 
Q 16.015625 51.171875 16.015625 36.375 
Q 16.015625 21.625 22.71875 14.15625 
Q 29.4375 6.6875 42.828125 6.6875 
Q 48.046875 6.6875 52.140625 7.59375 
Q 56.25 8.5 59.515625 10.40625 
z
" id="DejaVuSans-71"/>
    </defs>
    <g transform="translate(361.8625 80.310937)scale(0.1 -0.1)">
     <use xlink:href="#DejaVuSans-71"/>
     <use x="77.490234" xlink:href="#DejaVuSans-68"/>
     <use x="154.492188" xlink:href="#DejaVuSans-68"/>
     <use x="231.494141" xlink:href="#DejaVuSans-32"/>
     <use x="263.28125" xlink:href="#DejaVuSans-40"/>
     <use x="302.294922" xlink:href="#DejaVuSans-52"/>
     <use x="365.917969" xlink:href="#DejaVuSans-48"/>
     <use x="429.541016" xlink:href="#DejaVuSans-41"/>
    </g>
   </g>
   <g id="line2d_59">
    <path d="M 333.8625 91.489062 
L 353.8625 91.489062 
" style="fill:none;stroke:#66a61e;stroke-linecap:square;stroke-width:1.5;"/>
   </g>
   <g id="line2d_60"/>
   <g id="text_25">
    <!-- AS (38) -->
    <g transform="translate(361.8625 94.989062)scale(0.1 -0.1)">
     <use xlink:href="#DejaVuSans-65"/>
     <use x="68.408203" xlink:href="#DejaVuSans-83"/>
     <use x="131.884766" xlink:href="#DejaVuSans-32"/>
     <use x="163.671875" xlink:href="#DejaVuSans-40"/>
     <use x="202.685547" xlink:href="#DejaVuSans-51"/>
     <use x="266.308594" xlink:href="#DejaVuSans-56"/>
     <use x="329.931641" xlink:href="#DejaVuSans-41"/>
    </g>
   </g>
   <g id="line2d_61">
    <path d="M 333.8625 106.167188 
L 353.8625 106.167188 
" style="fill:none;stroke:#e6ab02;stroke-linecap:square;stroke-width:1.5;"/>
   </g>
   <g id="line2d_62"/>
   <g id="text_26">
    <!-- MD (38) -->
    <g transform="translate(361.8625 109.667188)scale(0.1 -0.1)">
     <use xlink:href="#DejaVuSans-77"/>
     <use x="86.279297" xlink:href="#DejaVuSans-68"/>
     <use x="163.28125" xlink:href="#DejaVuSans-32"/>
     <use x="195.068359" xlink:href="#DejaVuSans-40"/>
     <use x="234.082031" xlink:href="#DejaVuSans-51"/>
     <use x="297.705078" xlink:href="#DejaVuSans-56"/>
     <use x="361.328125" xlink:href="#DejaVuSans-41"/>
    </g>
   </g>
   <g id="line2d_63">
    <path d="M 333.8625 120.845312 
L 353.8625 120.845312 
" style="fill:none;stroke:#a6761d;stroke-linecap:square;stroke-width:1.5;"/>
   </g>
   <g id="line2d_64"/>
   <g id="text_27">
    <!-- HPI (38) -->
    <defs>
     <path d="M 9.8125 72.90625 
L 19.671875 72.90625 
L 19.671875 43.015625 
L 55.515625 43.015625 
L 55.515625 72.90625 
L 65.375 72.90625 
L 65.375 0 
L 55.515625 0 
L 55.515625 34.71875 
L 19.671875 34.71875 
L 19.671875 0 
L 9.8125 0 
z
" id="DejaVuSans-72"/>
     <path d="M 19.671875 64.796875 
L 19.671875 37.40625 
L 32.078125 37.40625 
Q 38.96875 37.40625 42.71875 40.96875 
Q 46.484375 44.53125 46.484375 51.125 
Q 46.484375 57.671875 42.71875 61.234375 
Q 38.96875 64.796875 32.078125 64.796875 
z
M 9.8125 72.90625 
L 32.078125 72.90625 
Q 44.34375 72.90625 50.609375 67.359375 
Q 56.890625 61.8125 56.890625 51.125 
Q 56.890625 40.328125 50.609375 34.8125 
Q 44.34375 29.296875 32.078125 29.296875 
L 19.671875 29.296875 
L 19.671875 0 
L 9.8125 0 
z
" id="DejaVuSans-80"/>
     <path d="M 9.8125 72.90625 
L 19.671875 72.90625 
L 19.671875 0 
L 9.8125 0 
z
" id="DejaVuSans-73"/>
    </defs>
    <g transform="translate(361.8625 124.345312)scale(0.1 -0.1)">
     <use xlink:href="#DejaVuSans-72"/>
     <use x="75.195312" xlink:href="#DejaVuSans-80"/>
     <use x="135.498047" xlink:href="#DejaVuSans-73"/>
     <use x="164.990234" xlink:href="#DejaVuSans-32"/>
     <use x="196.777344" xlink:href="#DejaVuSans-40"/>
     <use x="235.791016" xlink:href="#DejaVuSans-51"/>
     <use x="299.414062" xlink:href="#DejaVuSans-56"/>
     <use x="363.037109" xlink:href="#DejaVuSans-41"/>
    </g>
   </g>
   <g id="line2d_65">
    <path d="M 333.8625 135.523438 
L 353.8625 135.523438 
" style="fill:none;stroke:#666666;stroke-linecap:square;stroke-width:1.5;"/>
   </g>
   <g id="line2d_66"/>
   <g id="text_28">
    <!-- FIT (29) -->
    <defs>
     <path d="M 9.8125 72.90625 
L 51.703125 72.90625 
L 51.703125 64.59375 
L 19.671875 64.59375 
L 19.671875 43.109375 
L 48.578125 43.109375 
L 48.578125 34.8125 
L 19.671875 34.8125 
L 19.671875 0 
L 9.8125 0 
z
" id="DejaVuSans-70"/>
     <path d="M -0.296875 72.90625 
L 61.375 72.90625 
L 61.375 64.59375 
L 35.5 64.59375 
L 35.5 0 
L 25.59375 0 
L 25.59375 64.59375 
L -0.296875 64.59375 
z
" id="DejaVuSans-84"/>
    </defs>
    <g transform="translate(361.8625 139.023438)scale(0.1 -0.1)">
     <use xlink:href="#DejaVuSans-70"/>
     <use x="57.519531" xlink:href="#DejaVuSans-73"/>
     <use x="87.011719" xlink:href="#DejaVuSans-84"/>
     <use x="148.095703" xlink:href="#DejaVuSans-32"/>
     <use x="179.882812" xlink:href="#DejaVuSans-40"/>
     <use x="218.896484" xlink:href="#DejaVuSans-50"/>
     <use x="282.519531" xlink:href="#DejaVuSans-57"/>
     <use x="346.142578" xlink:href="#DejaVuSans-41"/>
    </g>
   </g>
   <g id="line2d_67">
    <path d="M 333.8625 150.201562 
L 353.8625 150.201562 
" style="fill:none;stroke:#1b9e77;stroke-dasharray:4.5,1.5;stroke-dashoffset:0;stroke-width:1.5;"/>
   </g>
   <g id="line2d_68"/>
   <g id="text_29">
    <!-- SPD (28) -->
    <g transform="translate(361.8625 153.701562)scale(0.1 -0.1)">
     <use xlink:href="#DejaVuSans-83"/>
     <use x="63.476562" xlink:href="#DejaVuSans-80"/>
     <use x="123.779297" xlink:href="#DejaVuSans-68"/>
     <use x="200.78125" xlink:href="#DejaVuSans-32"/>
     <use x="232.568359" xlink:href="#DejaVuSans-40"/>
     <use x="271.582031" xlink:href="#DejaVuSans-50"/>
     <use x="335.205078" xlink:href="#DejaVuSans-56"/>
     <use x="398.828125" xlink:href="#DejaVuSans-41"/>
    </g>
   </g>
   <g id="line2d_69">
    <path d="M 333.8625 164.879687 
L 353.8625 164.879687 
" style="fill:none;stroke:#d95f02;stroke-dasharray:4.5,1.5;stroke-dashoffset:0;stroke-width:1.5;"/>
   </g>
   <g id="line2d_70"/>
   <g id="text_30">
    <!-- TBI (27) -->
    <defs>
     <path d="M 19.671875 34.8125 
L 19.671875 8.109375 
L 35.5 8.109375 
Q 43.453125 8.109375 47.28125 11.40625 
Q 51.125 14.703125 51.125 21.484375 
Q 51.125 28.328125 47.28125 31.5625 
Q 43.453125 34.8125 35.5 34.8125 
z
M 19.671875 64.796875 
L 19.671875 42.828125 
L 34.28125 42.828125 
Q 41.5 42.828125 45.03125 45.53125 
Q 48.578125 48.25 48.578125 53.8125 
Q 48.578125 59.328125 45.03125 62.0625 
Q 41.5 64.796875 34.28125 64.796875 
z
M 9.8125 72.90625 
L 35.015625 72.90625 
Q 46.296875 72.90625 52.390625 68.21875 
Q 58.5 63.53125 58.5 54.890625 
Q 58.5 48.1875 55.375 44.234375 
Q 52.25 40.28125 46.1875 39.3125 
Q 53.46875 37.75 57.5 32.78125 
Q 61.53125 27.828125 61.53125 20.40625 
Q 61.53125 10.640625 54.890625 5.3125 
Q 48.25 0 35.984375 0 
L 9.8125 0 
z
" id="DejaVuSans-66"/>
     <path d="M 8.203125 72.90625 
L 55.078125 72.90625 
L 55.078125 68.703125 
L 28.609375 0 
L 18.3125 0 
L 43.21875 64.59375 
L 8.203125 64.59375 
z
" id="DejaVuSans-55"/>
    </defs>
    <g transform="translate(361.8625 168.379687)scale(0.1 -0.1)">
     <use xlink:href="#DejaVuSans-84"/>
     <use x="61.083984" xlink:href="#DejaVuSans-66"/>
     <use x="129.6875" xlink:href="#DejaVuSans-73"/>
     <use x="159.179688" xlink:href="#DejaVuSans-32"/>
     <use x="190.966797" xlink:href="#DejaVuSans-40"/>
     <use x="229.980469" xlink:href="#DejaVuSans-50"/>
     <use x="293.603516" xlink:href="#DejaVuSans-55"/>
     <use x="357.226562" xlink:href="#DejaVuSans-41"/>
    </g>
   </g>
   <g id="line2d_71">
    <path d="M 333.8625 179.557812 
L 353.8625 179.557812 
" style="fill:none;stroke:#7570b3;stroke-dasharray:4.5,1.5;stroke-dashoffset:0;stroke-width:1.5;"/>
   </g>
   <g id="line2d_72"/>
   <g id="text_31">
    <!-- BP (26) -->
    <g transform="translate(361.8625 183.057812)scale(0.1 -0.1)">
     <use xlink:href="#DejaVuSans-66"/>
     <use x="68.603516" xlink:href="#DejaVuSans-80"/>
     <use x="128.90625" xlink:href="#DejaVuSans-32"/>
     <use x="160.693359" xlink:href="#DejaVuSans-40"/>
     <use x="199.707031" xlink:href="#DejaVuSans-50"/>
     <use x="263.330078" xlink:href="#DejaVuSans-54"/>
     <use x="326.953125" xlink:href="#DejaVuSans-41"/>
    </g>
   </g>
   <g id="line2d_73">
    <path d="M 333.8625 194.235937 
L 353.8625 194.235937 
" style="fill:none;stroke:#e7298a;stroke-dasharray:4.5,1.5;stroke-dashoffset:0;stroke-width:1.5;"/>
   </g>
   <g id="line2d_74"/>
   <g id="text_32">
    <!-- CC (25) -->
    <g transform="translate(361.8625 197.735937)scale(0.1 -0.1)">
     <use xlink:href="#DejaVuSans-67"/>
     <use x="69.824219" xlink:href="#DejaVuSans-67"/>
     <use x="139.648438" xlink:href="#DejaVuSans-32"/>
     <use x="171.435547" xlink:href="#DejaVuSans-40"/>
     <use x="210.449219" xlink:href="#DejaVuSans-50"/>
     <use x="274.072266" xlink:href="#DejaVuSans-53"/>
     <use x="337.695312" xlink:href="#DejaVuSans-41"/>
    </g>
   </g>
   <g id="line2d_75">
    <path d="M 333.8625 208.914062 
L 353.8625 208.914062 
" style="fill:none;stroke:#66a61e;stroke-dasharray:4.5,1.5;stroke-dashoffset:0;stroke-width:1.5;"/>
   </g>
   <g id="line2d_76"/>
   <g id="text_33">
    <!-- CB (21) -->
    <g transform="translate(361.8625 212.414062)scale(0.1 -0.1)">
     <use xlink:href="#DejaVuSans-67"/>
     <use x="69.824219" xlink:href="#DejaVuSans-66"/>
     <use x="138.427734" xlink:href="#DejaVuSans-32"/>
     <use x="170.214844" xlink:href="#DejaVuSans-40"/>
     <use x="209.228516" xlink:href="#DejaVuSans-50"/>
     <use x="272.851562" xlink:href="#DejaVuSans-49"/>
     <use x="336.474609" xlink:href="#DejaVuSans-41"/>
    </g>
   </g>
   <g id="line2d_77">
    <path d="M 333.8625 223.592187 
L 353.8625 223.592187 
" style="fill:none;stroke:#e6ab02;stroke-dasharray:4.5,1.5;stroke-dashoffset:0;stroke-width:1.5;"/>
   </g>
   <g id="line2d_78"/>
   <g id="text_34">
    <!-- RJPH (20) -->
    <defs>
     <path d="M 9.8125 72.90625 
L 19.671875 72.90625 
L 19.671875 5.078125 
Q 19.671875 -8.109375 14.671875 -14.0625 
Q 9.671875 -20.015625 -1.421875 -20.015625 
L -5.171875 -20.015625 
L -5.171875 -11.71875 
L -2.09375 -11.71875 
Q 4.4375 -11.71875 7.125 -8.046875 
Q 9.8125 -4.390625 9.8125 5.078125 
z
" id="DejaVuSans-74"/>
    </defs>
    <g transform="translate(361.8625 227.092187)scale(0.1 -0.1)">
     <use xlink:href="#DejaVuSans-82"/>
     <use x="69.482422" xlink:href="#DejaVuSans-74"/>
     <use x="98.974609" xlink:href="#DejaVuSans-80"/>
     <use x="159.277344" xlink:href="#DejaVuSans-72"/>
     <use x="234.472656" xlink:href="#DejaVuSans-32"/>
     <use x="266.259766" xlink:href="#DejaVuSans-40"/>
     <use x="305.273438" xlink:href="#DejaVuSans-50"/>
     <use x="368.896484" xlink:href="#DejaVuSans-48"/>
     <use x="432.519531" xlink:href="#DejaVuSans-41"/>
    </g>
   </g>
   <g id="line2d_79">
    <path d="M 333.8625 238.270312 
L 353.8625 238.270312 
" style="fill:none;stroke:#a6761d;stroke-dasharray:4.5,1.5;stroke-dashoffset:0;stroke-width:1.5;"/>
   </g>
   <g id="line2d_80"/>
   <g id="text_35">
    <!-- AHR-H (20) -->
    <g transform="translate(361.8625 241.770312)scale(0.1 -0.1)">
     <use xlink:href="#DejaVuSans-65"/>
     <use x="68.408203" xlink:href="#DejaVuSans-72"/>
     <use x="143.603516" xlink:href="#DejaVuSans-82"/>
     <use x="213.023438" xlink:href="#DejaVuSans-45"/>
     <use x="249.107422" xlink:href="#DejaVuSans-72"/>
     <use x="324.302734" xlink:href="#DejaVuSans-32"/>
     <use x="356.089844" xlink:href="#DejaVuSans-40"/>
     <use x="395.103516" xlink:href="#DejaVuSans-50"/>
     <use x="458.726562" xlink:href="#DejaVuSans-48"/>
     <use x="522.349609" xlink:href="#DejaVuSans-41"/>
    </g>
   </g>
   <g id="line2d_81">
    <path d="M 333.8625 252.948437 
L 353.8625 252.948437 
" style="fill:none;stroke:#666666;stroke-dasharray:4.5,1.5;stroke-dashoffset:0;stroke-width:1.5;"/>
   </g>
   <g id="line2d_82"/>
   <g id="text_36">
    <!-- AHR-A (15) -->
    <g transform="translate(361.8625 256.448437)scale(0.1 -0.1)">
     <use xlink:href="#DejaVuSans-65"/>
     <use x="68.408203" xlink:href="#DejaVuSans-72"/>
     <use x="143.603516" xlink:href="#DejaVuSans-82"/>
     <use x="213.023438" xlink:href="#DejaVuSans-45"/>
     <use x="249.076172" xlink:href="#DejaVuSans-65"/>
     <use x="317.484375" xlink:href="#DejaVuSans-32"/>
     <use x="349.271484" xlink:href="#DejaVuSans-40"/>
     <use x="388.285156" xlink:href="#DejaVuSans-49"/>
     <use x="451.908203" xlink:href="#DejaVuSans-53"/>
     <use x="515.53125" xlink:href="#DejaVuSans-41"/>
    </g>
   </g>
  </g>
 </g>
 <defs>
  <clipPath id="pbd8f706420">
   <rect height="207.330771" width="271.81" x="43.55" y="12.9"/>
  </clipPath>
 </defs>
</svg>
