<?xml version="1.0" encoding="utf-8" standalone="no"?>
<!DOCTYPE svg PUBLIC "-//W3C//DTD SVG 1.1//EN"
  "http://www.w3.org/Graphics/SVG/1.1/DTD/svg11.dtd">
<!-- Created with matplotlib (https://matplotlib.org/) -->
<svg height="288pt" version="1.1" viewBox="0 0 432 288" width="432pt" xmlns="http://www.w3.org/2000/svg" xmlns:xlink="http://www.w3.org/1999/xlink">
 <defs>
  <style type="text/css">
*{stroke-linecap:butt;stroke-linejoin:round;}
  </style>
 </defs>
 <g id="figure_1">
  <g id="patch_1">
   <path d="M 0 288 
L 432 288 
L 432 0 
L 0 0 
z
" style="fill:#ffffff;"/>
  </g>
  <g id="axes_1">
   <g id="patch_2">
    <path d="M 43.55 220.230771 
L 315.36 220.230771 
L 315.36 12.9 
L 43.55 12.9 
z
" style="fill:#ffffff;"/>
   </g>
   <g id="matplotlib.axis_1">
    <g id="xtick_1">
     <g id="line2d_1">
      <defs>
       <path d="M 0 0 
L 0 3.5 
" id="mee2e39f8f5" style="stroke:#000000;stroke-width:0.8;"/>
      </defs>
      <g>
       <use style="stroke:#000000;stroke-width:0.8;" x="49.007985" xlink:href="#mee2e39f8f5" y="220.230771"/>
      </g>
     </g>
     <g id="text_1">
      <!-- 2020-11-29 -->
      <defs>
       <path d="M 19.1875 8.296875 
L 53.609375 8.296875 
L 53.609375 0 
L 7.328125 0 
L 7.328125 8.296875 
Q 12.9375 14.109375 22.625 23.890625 
Q 32.328125 33.6875 34.8125 36.53125 
Q 39.546875 41.84375 41.421875 45.53125 
Q 43.3125 49.21875 43.3125 52.78125 
Q 43.3125 58.59375 39.234375 62.25 
Q 35.15625 65.921875 28.609375 65.921875 
Q 23.96875 65.921875 18.8125 64.3125 
Q 13.671875 62.703125 7.8125 59.421875 
L 7.8125 69.390625 
Q 13.765625 71.78125 18.9375 73 
Q 24.125 74.21875 28.421875 74.21875 
Q 39.75 74.21875 46.484375 68.546875 
Q 53.21875 62.890625 53.21875 53.421875 
Q 53.21875 48.921875 51.53125 44.890625 
Q 49.859375 40.875 45.40625 35.40625 
Q 44.1875 33.984375 37.640625 27.21875 
Q 31.109375 20.453125 19.1875 8.296875 
z
" id="DejaVuSans-50"/>
       <path d="M 31.78125 66.40625 
Q 24.171875 66.40625 20.328125 58.90625 
Q 16.5 51.421875 16.5 36.375 
Q 16.5 21.390625 20.328125 13.890625 
Q 24.171875 6.390625 31.78125 6.390625 
Q 39.453125 6.390625 43.28125 13.890625 
Q 47.125 21.390625 47.125 36.375 
Q 47.125 51.421875 43.28125 58.90625 
Q 39.453125 66.40625 31.78125 66.40625 
z
M 31.78125 74.21875 
Q 44.046875 74.21875 50.515625 64.515625 
Q 56.984375 54.828125 56.984375 36.375 
Q 56.984375 17.96875 50.515625 8.265625 
Q 44.046875 -1.421875 31.78125 -1.421875 
Q 19.53125 -1.421875 13.0625 8.265625 
Q 6.59375 17.96875 6.59375 36.375 
Q 6.59375 54.828125 13.0625 64.515625 
Q 19.53125 74.21875 31.78125 74.21875 
z
" id="DejaVuSans-48"/>
       <path d="M 4.890625 31.390625 
L 31.203125 31.390625 
L 31.203125 23.390625 
L 4.890625 23.390625 
z
" id="DejaVuSans-45"/>
       <path d="M 12.40625 8.296875 
L 28.515625 8.296875 
L 28.515625 63.921875 
L 10.984375 60.40625 
L 10.984375 69.390625 
L 28.421875 72.90625 
L 38.28125 72.90625 
L 38.28125 8.296875 
L 54.390625 8.296875 
L 54.390625 0 
L 12.40625 0 
z
" id="DejaVuSans-49"/>
       <path d="M 10.984375 1.515625 
L 10.984375 10.5 
Q 14.703125 8.734375 18.5 7.8125 
Q 22.3125 6.890625 25.984375 6.890625 
Q 35.75 6.890625 40.890625 13.453125 
Q 46.046875 20.015625 46.78125 33.40625 
Q 43.953125 29.203125 39.59375 26.953125 
Q 35.25 24.703125 29.984375 24.703125 
Q 19.046875 24.703125 12.671875 31.3125 
Q 6.296875 37.9375 6.296875 49.421875 
Q 6.296875 60.640625 12.9375 67.421875 
Q 19.578125 74.21875 30.609375 74.21875 
Q 43.265625 74.21875 49.921875 64.515625 
Q 56.59375 54.828125 56.59375 36.375 
Q 56.59375 19.140625 48.40625 8.859375 
Q 40.234375 -1.421875 26.421875 -1.421875 
Q 22.703125 -1.421875 18.890625 -0.6875 
Q 15.09375 0.046875 10.984375 1.515625 
z
M 30.609375 32.421875 
Q 37.25 32.421875 41.125 36.953125 
Q 45.015625 41.5 45.015625 49.421875 
Q 45.015625 57.28125 41.125 61.84375 
Q 37.25 66.40625 30.609375 66.40625 
Q 23.96875 66.40625 20.09375 61.84375 
Q 16.21875 57.28125 16.21875 49.421875 
Q 16.21875 41.5 20.09375 36.953125 
Q 23.96875 32.421875 30.609375 32.421875 
z
" id="DejaVuSans-57"/>
      </defs>
      <g transform="translate(25.222869 262.869024)rotate(-30)scale(0.1 -0.1)">
       <use xlink:href="#DejaVuSans-50"/>
       <use x="63.623047" xlink:href="#DejaVuSans-48"/>
       <use x="127.246094" xlink:href="#DejaVuSans-50"/>
       <use x="190.869141" xlink:href="#DejaVuSans-48"/>
       <use x="254.492188" xlink:href="#DejaVuSans-45"/>
       <use x="290.576172" xlink:href="#DejaVuSans-49"/>
       <use x="354.199219" xlink:href="#DejaVuSans-49"/>
       <use x="417.822266" xlink:href="#DejaVuSans-45"/>
       <use x="453.90625" xlink:href="#DejaVuSans-50"/>
       <use x="517.529297" xlink:href="#DejaVuSans-57"/>
      </g>
     </g>
    </g>
    <g id="xtick_2">
     <g id="line2d_2">
      <g>
       <use style="stroke:#000000;stroke-width:0.8;" x="58.532858" xlink:href="#mee2e39f8f5" y="220.230771"/>
      </g>
     </g>
     <g id="text_2">
      <!-- 2020-12-01 -->
      <g transform="translate(34.747741 262.869024)rotate(-30)scale(0.1 -0.1)">
       <use xlink:href="#DejaVuSans-50"/>
       <use x="63.623047" xlink:href="#DejaVuSans-48"/>
       <use x="127.246094" xlink:href="#DejaVuSans-50"/>
       <use x="190.869141" xlink:href="#DejaVuSans-48"/>
       <use x="254.492188" xlink:href="#DejaVuSans-45"/>
       <use x="290.576172" xlink:href="#DejaVuSans-49"/>
       <use x="354.199219" xlink:href="#DejaVuSans-50"/>
       <use x="417.822266" xlink:href="#DejaVuSans-45"/>
       <use x="453.90625" xlink:href="#DejaVuSans-48"/>
       <use x="517.529297" xlink:href="#DejaVuSans-49"/>
      </g>
     </g>
    </g>
    <g id="xtick_3">
     <g id="line2d_3">
      <g>
       <use style="stroke:#000000;stroke-width:0.8;" x="91.869912" xlink:href="#mee2e39f8f5" y="220.230771"/>
      </g>
     </g>
     <g id="text_3">
      <!-- 2020-12-08 -->
      <defs>
       <path d="M 31.78125 34.625 
Q 24.75 34.625 20.71875 30.859375 
Q 16.703125 27.09375 16.703125 20.515625 
Q 16.703125 13.921875 20.71875 10.15625 
Q 24.75 6.390625 31.78125 6.390625 
Q 38.8125 6.390625 42.859375 10.171875 
Q 46.921875 13.96875 46.921875 20.515625 
Q 46.921875 27.09375 42.890625 30.859375 
Q 38.875 34.625 31.78125 34.625 
z
M 21.921875 38.8125 
Q 15.578125 40.375 12.03125 44.71875 
Q 8.5 49.078125 8.5 55.328125 
Q 8.5 64.0625 14.71875 69.140625 
Q 20.953125 74.21875 31.78125 74.21875 
Q 42.671875 74.21875 48.875 69.140625 
Q 55.078125 64.0625 55.078125 55.328125 
Q 55.078125 49.078125 51.53125 44.71875 
Q 48 40.375 41.703125 38.8125 
Q 48.828125 37.15625 52.796875 32.3125 
Q 56.78125 27.484375 56.78125 20.515625 
Q 56.78125 9.90625 50.3125 4.234375 
Q 43.84375 -1.421875 31.78125 -1.421875 
Q 19.734375 -1.421875 13.25 4.234375 
Q 6.78125 9.90625 6.78125 20.515625 
Q 6.78125 27.484375 10.78125 32.3125 
Q 14.796875 37.15625 21.921875 38.8125 
z
M 18.3125 54.390625 
Q 18.3125 48.734375 21.84375 45.5625 
Q 25.390625 42.390625 31.78125 42.390625 
Q 38.140625 42.390625 41.71875 45.5625 
Q 45.3125 48.734375 45.3125 54.390625 
Q 45.3125 60.0625 41.71875 63.234375 
Q 38.140625 66.40625 31.78125 66.40625 
Q 25.390625 66.40625 21.84375 63.234375 
Q 18.3125 60.0625 18.3125 54.390625 
z
" id="DejaVuSans-56"/>
      </defs>
      <g transform="translate(68.084796 262.869024)rotate(-30)scale(0.1 -0.1)">
       <use xlink:href="#DejaVuSans-50"/>
       <use x="63.623047" xlink:href="#DejaVuSans-48"/>
       <use x="127.246094" xlink:href="#DejaVuSans-50"/>
       <use x="190.869141" xlink:href="#DejaVuSans-48"/>
       <use x="254.492188" xlink:href="#DejaVuSans-45"/>
       <use x="290.576172" xlink:href="#DejaVuSans-49"/>
       <use x="354.199219" xlink:href="#DejaVuSans-50"/>
       <use x="417.822266" xlink:href="#DejaVuSans-45"/>
       <use x="453.90625" xlink:href="#DejaVuSans-48"/>
       <use x="517.529297" xlink:href="#DejaVuSans-56"/>
      </g>
     </g>
    </g>
    <g id="xtick_4">
     <g id="line2d_4">
      <g>
       <use style="stroke:#000000;stroke-width:0.8;" x="125.206966" xlink:href="#mee2e39f8f5" y="220.230771"/>
      </g>
     </g>
     <g id="text_4">
      <!-- 2020-12-15 -->
      <defs>
       <path d="M 10.796875 72.90625 
L 49.515625 72.90625 
L 49.515625 64.59375 
L 19.828125 64.59375 
L 19.828125 46.734375 
Q 21.96875 47.46875 24.109375 47.828125 
Q 26.265625 48.1875 28.421875 48.1875 
Q 40.625 48.1875 47.75 41.5 
Q 54.890625 34.8125 54.890625 23.390625 
Q 54.890625 11.625 47.5625 5.09375 
Q 40.234375 -1.421875 26.90625 -1.421875 
Q 22.3125 -1.421875 17.546875 -0.640625 
Q 12.796875 0.140625 7.71875 1.703125 
L 7.71875 11.625 
Q 12.109375 9.234375 16.796875 8.0625 
Q 21.484375 6.890625 26.703125 6.890625 
Q 35.15625 6.890625 40.078125 11.328125 
Q 45.015625 15.765625 45.015625 23.390625 
Q 45.015625 31 40.078125 35.4375 
Q 35.15625 39.890625 26.703125 39.890625 
Q 22.75 39.890625 18.8125 39.015625 
Q 14.890625 38.140625 10.796875 36.28125 
z
" id="DejaVuSans-53"/>
      </defs>
      <g transform="translate(101.42185 262.869024)rotate(-30)scale(0.1 -0.1)">
       <use xlink:href="#DejaVuSans-50"/>
       <use x="63.623047" xlink:href="#DejaVuSans-48"/>
       <use x="127.246094" xlink:href="#DejaVuSans-50"/>
       <use x="190.869141" xlink:href="#DejaVuSans-48"/>
       <use x="254.492188" xlink:href="#DejaVuSans-45"/>
       <use x="290.576172" xlink:href="#DejaVuSans-49"/>
       <use x="354.199219" xlink:href="#DejaVuSans-50"/>
       <use x="417.822266" xlink:href="#DejaVuSans-45"/>
       <use x="453.90625" xlink:href="#DejaVuSans-49"/>
       <use x="517.529297" xlink:href="#DejaVuSans-53"/>
      </g>
     </g>
    </g>
    <g id="xtick_5">
     <g id="line2d_5">
      <g>
       <use style="stroke:#000000;stroke-width:0.8;" x="158.54402" xlink:href="#mee2e39f8f5" y="220.230771"/>
      </g>
     </g>
     <g id="text_5">
      <!-- 2020-12-22 -->
      <g transform="translate(134.758904 262.869024)rotate(-30)scale(0.1 -0.1)">
       <use xlink:href="#DejaVuSans-50"/>
       <use x="63.623047" xlink:href="#DejaVuSans-48"/>
       <use x="127.246094" xlink:href="#DejaVuSans-50"/>
       <use x="190.869141" xlink:href="#DejaVuSans-48"/>
       <use x="254.492188" xlink:href="#DejaVuSans-45"/>
       <use x="290.576172" xlink:href="#DejaVuSans-49"/>
       <use x="354.199219" xlink:href="#DejaVuSans-50"/>
       <use x="417.822266" xlink:href="#DejaVuSans-45"/>
       <use x="453.90625" xlink:href="#DejaVuSans-50"/>
       <use x="517.529297" xlink:href="#DejaVuSans-50"/>
      </g>
     </g>
    </g>
    <g id="xtick_6">
     <g id="line2d_6">
      <g>
       <use style="stroke:#000000;stroke-width:0.8;" x="191.881074" xlink:href="#mee2e39f8f5" y="220.230771"/>
      </g>
     </g>
     <g id="text_6">
      <!-- 2020-12-29 -->
      <g transform="translate(168.095958 262.869024)rotate(-30)scale(0.1 -0.1)">
       <use xlink:href="#DejaVuSans-50"/>
       <use x="63.623047" xlink:href="#DejaVuSans-48"/>
       <use x="127.246094" xlink:href="#DejaVuSans-50"/>
       <use x="190.869141" xlink:href="#DejaVuSans-48"/>
       <use x="254.492188" xlink:href="#DejaVuSans-45"/>
       <use x="290.576172" xlink:href="#DejaVuSans-49"/>
       <use x="354.199219" xlink:href="#DejaVuSans-50"/>
       <use x="417.822266" xlink:href="#DejaVuSans-45"/>
       <use x="453.90625" xlink:href="#DejaVuSans-50"/>
       <use x="517.529297" xlink:href="#DejaVuSans-57"/>
      </g>
     </g>
    </g>
    <g id="xtick_7">
     <g id="line2d_7">
      <g>
       <use style="stroke:#000000;stroke-width:0.8;" x="206.168383" xlink:href="#mee2e39f8f5" y="220.230771"/>
      </g>
     </g>
     <g id="text_7">
      <!-- 2021-01-01 -->
      <g transform="translate(182.383267 262.869024)rotate(-30)scale(0.1 -0.1)">
       <use xlink:href="#DejaVuSans-50"/>
       <use x="63.623047" xlink:href="#DejaVuSans-48"/>
       <use x="127.246094" xlink:href="#DejaVuSans-50"/>
       <use x="190.869141" xlink:href="#DejaVuSans-49"/>
       <use x="254.492188" xlink:href="#DejaVuSans-45"/>
       <use x="290.576172" xlink:href="#DejaVuSans-48"/>
       <use x="354.199219" xlink:href="#DejaVuSans-49"/>
       <use x="417.822266" xlink:href="#DejaVuSans-45"/>
       <use x="453.90625" xlink:href="#DejaVuSans-48"/>
       <use x="517.529297" xlink:href="#DejaVuSans-49"/>
      </g>
     </g>
    </g>
    <g id="xtick_8">
     <g id="line2d_8">
      <g>
       <use style="stroke:#000000;stroke-width:0.8;" x="239.505438" xlink:href="#mee2e39f8f5" y="220.230771"/>
      </g>
     </g>
     <g id="text_8">
      <!-- 2021-01-08 -->
      <g transform="translate(215.720321 262.869024)rotate(-30)scale(0.1 -0.1)">
       <use xlink:href="#DejaVuSans-50"/>
       <use x="63.623047" xlink:href="#DejaVuSans-48"/>
       <use x="127.246094" xlink:href="#DejaVuSans-50"/>
       <use x="190.869141" xlink:href="#DejaVuSans-49"/>
       <use x="254.492188" xlink:href="#DejaVuSans-45"/>
       <use x="290.576172" xlink:href="#DejaVuSans-48"/>
       <use x="354.199219" xlink:href="#DejaVuSans-49"/>
       <use x="417.822266" xlink:href="#DejaVuSans-45"/>
       <use x="453.90625" xlink:href="#DejaVuSans-48"/>
       <use x="517.529297" xlink:href="#DejaVuSans-56"/>
      </g>
     </g>
    </g>
    <g id="xtick_9">
     <g id="line2d_9">
      <g>
       <use style="stroke:#000000;stroke-width:0.8;" x="272.842492" xlink:href="#mee2e39f8f5" y="220.230771"/>
      </g>
     </g>
     <g id="text_9">
      <!-- 2021-01-15 -->
      <g transform="translate(249.057375 262.869024)rotate(-30)scale(0.1 -0.1)">
       <use xlink:href="#DejaVuSans-50"/>
       <use x="63.623047" xlink:href="#DejaVuSans-48"/>
       <use x="127.246094" xlink:href="#DejaVuSans-50"/>
       <use x="190.869141" xlink:href="#DejaVuSans-49"/>
       <use x="254.492188" xlink:href="#DejaVuSans-45"/>
       <use x="290.576172" xlink:href="#DejaVuSans-48"/>
       <use x="354.199219" xlink:href="#DejaVuSans-49"/>
       <use x="417.822266" xlink:href="#DejaVuSans-45"/>
       <use x="453.90625" xlink:href="#DejaVuSans-49"/>
       <use x="517.529297" xlink:href="#DejaVuSans-53"/>
      </g>
     </g>
    </g>
    <g id="xtick_10">
     <g id="line2d_10">
      <g>
       <use style="stroke:#000000;stroke-width:0.8;" x="306.179546" xlink:href="#mee2e39f8f5" y="220.230771"/>
      </g>
     </g>
     <g id="text_10">
      <!-- 2021-01-22 -->
      <g transform="translate(282.39443 262.869024)rotate(-30)scale(0.1 -0.1)">
       <use xlink:href="#DejaVuSans-50"/>
       <use x="63.623047" xlink:href="#DejaVuSans-48"/>
       <use x="127.246094" xlink:href="#DejaVuSans-50"/>
       <use x="190.869141" xlink:href="#DejaVuSans-49"/>
       <use x="254.492188" xlink:href="#DejaVuSans-45"/>
       <use x="290.576172" xlink:href="#DejaVuSans-48"/>
       <use x="354.199219" xlink:href="#DejaVuSans-49"/>
       <use x="417.822266" xlink:href="#DejaVuSans-45"/>
       <use x="453.90625" xlink:href="#DejaVuSans-50"/>
       <use x="517.529297" xlink:href="#DejaVuSans-50"/>
      </g>
     </g>
    </g>
    <g id="text_11">
     <!-- Date -->
     <defs>
      <path d="M 19.671875 64.796875 
L 19.671875 8.109375 
L 31.59375 8.109375 
Q 46.6875 8.109375 53.6875 14.9375 
Q 60.6875 21.78125 60.6875 36.53125 
Q 60.6875 51.171875 53.6875 57.984375 
Q 46.6875 64.796875 31.59375 64.796875 
z
M 9.8125 72.90625 
L 30.078125 72.90625 
Q 51.265625 72.90625 61.171875 64.09375 
Q 71.09375 55.28125 71.09375 36.53125 
Q 71.09375 17.671875 61.125 8.828125 
Q 51.171875 0 30.078125 0 
L 9.8125 0 
z
" id="DejaVuSans-68"/>
      <path d="M 34.28125 27.484375 
Q 23.390625 27.484375 19.1875 25 
Q 14.984375 22.515625 14.984375 16.5 
Q 14.984375 11.71875 18.140625 8.90625 
Q 21.296875 6.109375 26.703125 6.109375 
Q 34.1875 6.109375 38.703125 11.40625 
Q 43.21875 16.703125 43.21875 25.484375 
L 43.21875 27.484375 
z
M 52.203125 31.203125 
L 52.203125 0 
L 43.21875 0 
L 43.21875 8.296875 
Q 40.140625 3.328125 35.546875 0.953125 
Q 30.953125 -1.421875 24.3125 -1.421875 
Q 15.921875 -1.421875 10.953125 3.296875 
Q 6 8.015625 6 15.921875 
Q 6 25.140625 12.171875 29.828125 
Q 18.359375 34.515625 30.609375 34.515625 
L 43.21875 34.515625 
L 43.21875 35.40625 
Q 43.21875 41.609375 39.140625 45 
Q 35.0625 48.390625 27.6875 48.390625 
Q 23 48.390625 18.546875 47.265625 
Q 14.109375 46.140625 10.015625 43.890625 
L 10.015625 52.203125 
Q 14.9375 54.109375 19.578125 55.046875 
Q 24.21875 56 28.609375 56 
Q 40.484375 56 46.34375 49.84375 
Q 52.203125 43.703125 52.203125 31.203125 
z
" id="DejaVuSans-97"/>
      <path d="M 18.3125 70.21875 
L 18.3125 54.6875 
L 36.8125 54.6875 
L 36.8125 47.703125 
L 18.3125 47.703125 
L 18.3125 18.015625 
Q 18.3125 11.328125 20.140625 9.421875 
Q 21.96875 7.515625 27.59375 7.515625 
L 36.8125 7.515625 
L 36.8125 0 
L 27.59375 0 
Q 17.1875 0 13.234375 3.875 
Q 9.28125 7.765625 9.28125 18.015625 
L 9.28125 47.703125 
L 2.6875 47.703125 
L 2.6875 54.6875 
L 9.28125 54.6875 
L 9.28125 70.21875 
z
" id="DejaVuSans-116"/>
      <path d="M 56.203125 29.59375 
L 56.203125 25.203125 
L 14.890625 25.203125 
Q 15.484375 15.921875 20.484375 11.0625 
Q 25.484375 6.203125 34.421875 6.203125 
Q 39.59375 6.203125 44.453125 7.46875 
Q 49.3125 8.734375 54.109375 11.28125 
L 54.109375 2.78125 
Q 49.265625 0.734375 44.1875 -0.34375 
Q 39.109375 -1.421875 33.890625 -1.421875 
Q 20.796875 -1.421875 13.15625 6.1875 
Q 5.515625 13.8125 5.515625 26.8125 
Q 5.515625 40.234375 12.765625 48.109375 
Q 20.015625 56 32.328125 56 
Q 43.359375 56 49.78125 48.890625 
Q 56.203125 41.796875 56.203125 29.59375 
z
M 47.21875 32.234375 
Q 47.125 39.59375 43.09375 43.984375 
Q 39.0625 48.390625 32.421875 48.390625 
Q 24.90625 48.390625 20.390625 44.140625 
Q 15.875 39.890625 15.1875 32.171875 
z
" id="DejaVuSans-101"/>
     </defs>
     <g transform="translate(167.504219 276.268523)scale(0.1 -0.1)">
      <use xlink:href="#DejaVuSans-68"/>
      <use x="77.001953" xlink:href="#DejaVuSans-97"/>
      <use x="138.28125" xlink:href="#DejaVuSans-116"/>
      <use x="177.490234" xlink:href="#DejaVuSans-101"/>
     </g>
    </g>
   </g>
   <g id="matplotlib.axis_2">
    <g id="ytick_1">
     <g id="line2d_11">
      <defs>
       <path d="M 0 0 
L -3.5 0 
" id="m54f982b2ef" style="stroke:#000000;stroke-width:0.8;"/>
      </defs>
      <g>
       <use style="stroke:#000000;stroke-width:0.8;" x="43.55" xlink:href="#m54f982b2ef" y="210.806645"/>
      </g>
     </g>
     <g id="text_12">
      <!-- 0 -->
      <g transform="translate(30.1875 214.605864)scale(0.1 -0.1)">
       <use xlink:href="#DejaVuSans-48"/>
      </g>
     </g>
    </g>
    <g id="ytick_2">
     <g id="line2d_12">
      <g>
       <use style="stroke:#000000;stroke-width:0.8;" x="43.55" xlink:href="#m54f982b2ef" y="187.24633"/>
      </g>
     </g>
     <g id="text_13">
      <!-- 5 -->
      <g transform="translate(30.1875 191.045549)scale(0.1 -0.1)">
       <use xlink:href="#DejaVuSans-53"/>
      </g>
     </g>
    </g>
    <g id="ytick_3">
     <g id="line2d_13">
      <g>
       <use style="stroke:#000000;stroke-width:0.8;" x="43.55" xlink:href="#m54f982b2ef" y="163.686016"/>
      </g>
     </g>
     <g id="text_14">
      <!-- 10 -->
      <g transform="translate(23.825 167.485234)scale(0.1 -0.1)">
       <use xlink:href="#DejaVuSans-49"/>
       <use x="63.623047" xlink:href="#DejaVuSans-48"/>
      </g>
     </g>
    </g>
    <g id="ytick_4">
     <g id="line2d_14">
      <g>
       <use style="stroke:#000000;stroke-width:0.8;" x="43.55" xlink:href="#m54f982b2ef" y="140.125701"/>
      </g>
     </g>
     <g id="text_15">
      <!-- 15 -->
      <g transform="translate(23.825 143.924919)scale(0.1 -0.1)">
       <use xlink:href="#DejaVuSans-49"/>
       <use x="63.623047" xlink:href="#DejaVuSans-53"/>
      </g>
     </g>
    </g>
    <g id="ytick_5">
     <g id="line2d_15">
      <g>
       <use style="stroke:#000000;stroke-width:0.8;" x="43.55" xlink:href="#m54f982b2ef" y="116.565386"/>
      </g>
     </g>
     <g id="text_16">
      <!-- 20 -->
      <g transform="translate(23.825 120.364604)scale(0.1 -0.1)">
       <use xlink:href="#DejaVuSans-50"/>
       <use x="63.623047" xlink:href="#DejaVuSans-48"/>
      </g>
     </g>
    </g>
    <g id="ytick_6">
     <g id="line2d_16">
      <g>
       <use style="stroke:#000000;stroke-width:0.8;" x="43.55" xlink:href="#m54f982b2ef" y="93.005071"/>
      </g>
     </g>
     <g id="text_17">
      <!-- 25 -->
      <g transform="translate(23.825 96.80429)scale(0.1 -0.1)">
       <use xlink:href="#DejaVuSans-50"/>
       <use x="63.623047" xlink:href="#DejaVuSans-53"/>
      </g>
     </g>
    </g>
    <g id="ytick_7">
     <g id="line2d_17">
      <g>
       <use style="stroke:#000000;stroke-width:0.8;" x="43.55" xlink:href="#m54f982b2ef" y="69.444756"/>
      </g>
     </g>
     <g id="text_18">
      <!-- 30 -->
      <defs>
       <path d="M 40.578125 39.3125 
Q 47.65625 37.796875 51.625 33 
Q 55.609375 28.21875 55.609375 21.1875 
Q 55.609375 10.40625 48.1875 4.484375 
Q 40.765625 -1.421875 27.09375 -1.421875 
Q 22.515625 -1.421875 17.65625 -0.515625 
Q 12.796875 0.390625 7.625 2.203125 
L 7.625 11.71875 
Q 11.71875 9.328125 16.59375 8.109375 
Q 21.484375 6.890625 26.8125 6.890625 
Q 36.078125 6.890625 40.9375 10.546875 
Q 45.796875 14.203125 45.796875 21.1875 
Q 45.796875 27.640625 41.28125 31.265625 
Q 36.765625 34.90625 28.71875 34.90625 
L 20.21875 34.90625 
L 20.21875 43.015625 
L 29.109375 43.015625 
Q 36.375 43.015625 40.234375 45.921875 
Q 44.09375 48.828125 44.09375 54.296875 
Q 44.09375 59.90625 40.109375 62.90625 
Q 36.140625 65.921875 28.71875 65.921875 
Q 24.65625 65.921875 20.015625 65.03125 
Q 15.375 64.15625 9.8125 62.3125 
L 9.8125 71.09375 
Q 15.4375 72.65625 20.34375 73.4375 
Q 25.25 74.21875 29.59375 74.21875 
Q 40.828125 74.21875 47.359375 69.109375 
Q 53.90625 64.015625 53.90625 55.328125 
Q 53.90625 49.265625 50.4375 45.09375 
Q 46.96875 40.921875 40.578125 39.3125 
z
" id="DejaVuSans-51"/>
      </defs>
      <g transform="translate(23.825 73.243975)scale(0.1 -0.1)">
       <use xlink:href="#DejaVuSans-51"/>
       <use x="63.623047" xlink:href="#DejaVuSans-48"/>
      </g>
     </g>
    </g>
    <g id="ytick_8">
     <g id="line2d_18">
      <g>
       <use style="stroke:#000000;stroke-width:0.8;" x="43.55" xlink:href="#m54f982b2ef" y="45.884441"/>
      </g>
     </g>
     <g id="text_19">
      <!-- 35 -->
      <g transform="translate(23.825 49.68366)scale(0.1 -0.1)">
       <use xlink:href="#DejaVuSans-51"/>
       <use x="63.623047" xlink:href="#DejaVuSans-53"/>
      </g>
     </g>
    </g>
    <g id="ytick_9">
     <g id="line2d_19">
      <g>
       <use style="stroke:#000000;stroke-width:0.8;" x="43.55" xlink:href="#m54f982b2ef" y="22.324126"/>
      </g>
     </g>
     <g id="text_20">
      <!-- 40 -->
      <defs>
       <path d="M 37.796875 64.3125 
L 12.890625 25.390625 
L 37.796875 25.390625 
z
M 35.203125 72.90625 
L 47.609375 72.90625 
L 47.609375 25.390625 
L 58.015625 25.390625 
L 58.015625 17.1875 
L 47.609375 17.1875 
L 47.609375 0 
L 37.796875 0 
L 37.796875 17.1875 
L 4.890625 17.1875 
L 4.890625 26.703125 
z
" id="DejaVuSans-52"/>
      </defs>
      <g transform="translate(23.825 26.123345)scale(0.1 -0.1)">
       <use xlink:href="#DejaVuSans-52"/>
       <use x="63.623047" xlink:href="#DejaVuSans-48"/>
      </g>
     </g>
    </g>
    <g id="text_21">
     <!-- Students Registered -->
     <defs>
      <path d="M 53.515625 70.515625 
L 53.515625 60.890625 
Q 47.90625 63.578125 42.921875 64.890625 
Q 37.9375 66.21875 33.296875 66.21875 
Q 25.25 66.21875 20.875 63.09375 
Q 16.5 59.96875 16.5 54.203125 
Q 16.5 49.359375 19.40625 46.890625 
Q 22.3125 44.4375 30.421875 42.921875 
L 36.375 41.703125 
Q 47.40625 39.59375 52.65625 34.296875 
Q 57.90625 29 57.90625 20.125 
Q 57.90625 9.515625 50.796875 4.046875 
Q 43.703125 -1.421875 29.984375 -1.421875 
Q 24.8125 -1.421875 18.96875 -0.25 
Q 13.140625 0.921875 6.890625 3.21875 
L 6.890625 13.375 
Q 12.890625 10.015625 18.65625 8.296875 
Q 24.421875 6.59375 29.984375 6.59375 
Q 38.421875 6.59375 43.015625 9.90625 
Q 47.609375 13.234375 47.609375 19.390625 
Q 47.609375 24.75 44.3125 27.78125 
Q 41.015625 30.8125 33.5 32.328125 
L 27.484375 33.5 
Q 16.453125 35.6875 11.515625 40.375 
Q 6.59375 45.0625 6.59375 53.421875 
Q 6.59375 63.09375 13.40625 68.65625 
Q 20.21875 74.21875 32.171875 74.21875 
Q 37.3125 74.21875 42.625 73.28125 
Q 47.953125 72.359375 53.515625 70.515625 
z
" id="DejaVuSans-83"/>
      <path d="M 8.5 21.578125 
L 8.5 54.6875 
L 17.484375 54.6875 
L 17.484375 21.921875 
Q 17.484375 14.15625 20.5 10.265625 
Q 23.53125 6.390625 29.59375 6.390625 
Q 36.859375 6.390625 41.078125 11.03125 
Q 45.3125 15.671875 45.3125 23.6875 
L 45.3125 54.6875 
L 54.296875 54.6875 
L 54.296875 0 
L 45.3125 0 
L 45.3125 8.40625 
Q 42.046875 3.421875 37.71875 1 
Q 33.40625 -1.421875 27.6875 -1.421875 
Q 18.265625 -1.421875 13.375 4.4375 
Q 8.5 10.296875 8.5 21.578125 
z
M 31.109375 56 
z
" id="DejaVuSans-117"/>
      <path d="M 45.40625 46.390625 
L 45.40625 75.984375 
L 54.390625 75.984375 
L 54.390625 0 
L 45.40625 0 
L 45.40625 8.203125 
Q 42.578125 3.328125 38.25 0.953125 
Q 33.9375 -1.421875 27.875 -1.421875 
Q 17.96875 -1.421875 11.734375 6.484375 
Q 5.515625 14.40625 5.515625 27.296875 
Q 5.515625 40.1875 11.734375 48.09375 
Q 17.96875 56 27.875 56 
Q 33.9375 56 38.25 53.625 
Q 42.578125 51.265625 45.40625 46.390625 
z
M 14.796875 27.296875 
Q 14.796875 17.390625 18.875 11.75 
Q 22.953125 6.109375 30.078125 6.109375 
Q 37.203125 6.109375 41.296875 11.75 
Q 45.40625 17.390625 45.40625 27.296875 
Q 45.40625 37.203125 41.296875 42.84375 
Q 37.203125 48.484375 30.078125 48.484375 
Q 22.953125 48.484375 18.875 42.84375 
Q 14.796875 37.203125 14.796875 27.296875 
z
" id="DejaVuSans-100"/>
      <path d="M 54.890625 33.015625 
L 54.890625 0 
L 45.90625 0 
L 45.90625 32.71875 
Q 45.90625 40.484375 42.875 44.328125 
Q 39.84375 48.1875 33.796875 48.1875 
Q 26.515625 48.1875 22.3125 43.546875 
Q 18.109375 38.921875 18.109375 30.90625 
L 18.109375 0 
L 9.078125 0 
L 9.078125 54.6875 
L 18.109375 54.6875 
L 18.109375 46.1875 
Q 21.34375 51.125 25.703125 53.5625 
Q 30.078125 56 35.796875 56 
Q 45.21875 56 50.046875 50.171875 
Q 54.890625 44.34375 54.890625 33.015625 
z
" id="DejaVuSans-110"/>
      <path d="M 44.28125 53.078125 
L 44.28125 44.578125 
Q 40.484375 46.53125 36.375 47.5 
Q 32.28125 48.484375 27.875 48.484375 
Q 21.1875 48.484375 17.84375 46.4375 
Q 14.5 44.390625 14.5 40.28125 
Q 14.5 37.15625 16.890625 35.375 
Q 19.28125 33.59375 26.515625 31.984375 
L 29.59375 31.296875 
Q 39.15625 29.25 43.1875 25.515625 
Q 47.21875 21.78125 47.21875 15.09375 
Q 47.21875 7.46875 41.1875 3.015625 
Q 35.15625 -1.421875 24.609375 -1.421875 
Q 20.21875 -1.421875 15.453125 -0.5625 
Q 10.6875 0.296875 5.421875 2 
L 5.421875 11.28125 
Q 10.40625 8.6875 15.234375 7.390625 
Q 20.0625 6.109375 24.8125 6.109375 
Q 31.15625 6.109375 34.5625 8.28125 
Q 37.984375 10.453125 37.984375 14.40625 
Q 37.984375 18.0625 35.515625 20.015625 
Q 33.0625 21.96875 24.703125 23.78125 
L 21.578125 24.515625 
Q 13.234375 26.265625 9.515625 29.90625 
Q 5.8125 33.546875 5.8125 39.890625 
Q 5.8125 47.609375 11.28125 51.796875 
Q 16.75 56 26.8125 56 
Q 31.78125 56 36.171875 55.265625 
Q 40.578125 54.546875 44.28125 53.078125 
z
" id="DejaVuSans-115"/>
      <path id="DejaVuSans-32"/>
      <path d="M 44.390625 34.1875 
Q 47.5625 33.109375 50.5625 29.59375 
Q 53.5625 26.078125 56.59375 19.921875 
L 66.609375 0 
L 56 0 
L 46.6875 18.703125 
Q 43.0625 26.03125 39.671875 28.421875 
Q 36.28125 30.8125 30.421875 30.8125 
L 19.671875 30.8125 
L 19.671875 0 
L 9.8125 0 
L 9.8125 72.90625 
L 32.078125 72.90625 
Q 44.578125 72.90625 50.734375 67.671875 
Q 56.890625 62.453125 56.890625 51.90625 
Q 56.890625 45.015625 53.6875 40.46875 
Q 50.484375 35.9375 44.390625 34.1875 
z
M 19.671875 64.796875 
L 19.671875 38.921875 
L 32.078125 38.921875 
Q 39.203125 38.921875 42.84375 42.21875 
Q 46.484375 45.515625 46.484375 51.90625 
Q 46.484375 58.296875 42.84375 61.546875 
Q 39.203125 64.796875 32.078125 64.796875 
z
" id="DejaVuSans-82"/>
      <path d="M 45.40625 27.984375 
Q 45.40625 37.75 41.375 43.109375 
Q 37.359375 48.484375 30.078125 48.484375 
Q 22.859375 48.484375 18.828125 43.109375 
Q 14.796875 37.75 14.796875 27.984375 
Q 14.796875 18.265625 18.828125 12.890625 
Q 22.859375 7.515625 30.078125 7.515625 
Q 37.359375 7.515625 41.375 12.890625 
Q 45.40625 18.265625 45.40625 27.984375 
z
M 54.390625 6.78125 
Q 54.390625 -7.171875 48.1875 -13.984375 
Q 42 -20.796875 29.203125 -20.796875 
Q 24.46875 -20.796875 20.265625 -20.09375 
Q 16.0625 -19.390625 12.109375 -17.921875 
L 12.109375 -9.1875 
Q 16.0625 -11.328125 19.921875 -12.34375 
Q 23.78125 -13.375 27.78125 -13.375 
Q 36.625 -13.375 41.015625 -8.765625 
Q 45.40625 -4.15625 45.40625 5.171875 
L 45.40625 9.625 
Q 42.625 4.78125 38.28125 2.390625 
Q 33.9375 0 27.875 0 
Q 17.828125 0 11.671875 7.65625 
Q 5.515625 15.328125 5.515625 27.984375 
Q 5.515625 40.671875 11.671875 48.328125 
Q 17.828125 56 27.875 56 
Q 33.9375 56 38.28125 53.609375 
Q 42.625 51.21875 45.40625 46.390625 
L 45.40625 54.6875 
L 54.390625 54.6875 
z
" id="DejaVuSans-103"/>
      <path d="M 9.421875 54.6875 
L 18.40625 54.6875 
L 18.40625 0 
L 9.421875 0 
z
M 9.421875 75.984375 
L 18.40625 75.984375 
L 18.40625 64.59375 
L 9.421875 64.59375 
z
" id="DejaVuSans-105"/>
      <path d="M 41.109375 46.296875 
Q 39.59375 47.171875 37.8125 47.578125 
Q 36.03125 48 33.890625 48 
Q 26.265625 48 22.1875 43.046875 
Q 18.109375 38.09375 18.109375 28.8125 
L 18.109375 0 
L 9.078125 0 
L 9.078125 54.6875 
L 18.109375 54.6875 
L 18.109375 46.1875 
Q 20.953125 51.171875 25.484375 53.578125 
Q 30.03125 56 36.53125 56 
Q 37.453125 56 38.578125 55.875 
Q 39.703125 55.765625 41.0625 55.515625 
z
" id="DejaVuSans-114"/>
     </defs>
     <g transform="translate(17.745313 167.498979)rotate(-90)scale(0.1 -0.1)">
      <use xlink:href="#DejaVuSans-83"/>
      <use x="63.476562" xlink:href="#DejaVuSans-116"/>
      <use x="102.685547" xlink:href="#DejaVuSans-117"/>
      <use x="166.064453" xlink:href="#DejaVuSans-100"/>
      <use x="229.541016" xlink:href="#DejaVuSans-101"/>
      <use x="291.064453" xlink:href="#DejaVuSans-110"/>
      <use x="354.443359" xlink:href="#DejaVuSans-116"/>
      <use x="393.652344" xlink:href="#DejaVuSans-115"/>
      <use x="445.751953" xlink:href="#DejaVuSans-32"/>
      <use x="477.539062" xlink:href="#DejaVuSans-82"/>
      <use x="546.958984" xlink:href="#DejaVuSans-101"/>
      <use x="608.482422" xlink:href="#DejaVuSans-103"/>
      <use x="671.958984" xlink:href="#DejaVuSans-105"/>
      <use x="699.742188" xlink:href="#DejaVuSans-115"/>
      <use x="751.841797" xlink:href="#DejaVuSans-116"/>
      <use x="791.050781" xlink:href="#DejaVuSans-101"/>
      <use x="852.574219" xlink:href="#DejaVuSans-114"/>
      <use x="893.65625" xlink:href="#DejaVuSans-101"/>
      <use x="955.179688" xlink:href="#DejaVuSans-100"/>
     </g>
    </g>
   </g>
   <g id="line2d_20">
    <path clip-path="url(#p3bf9acbe96)" d="M 55.905 210.806645 
L 56.114075 210.806645 
L 56.114075 201.382519 
L 56.22478 201.382519 
L 57.044993 201.382519 
L 57.044993 196.670456 
L 57.140867 196.670456 
L 61.608974 196.670456 
L 61.608974 191.958393 
L 61.708188 191.958393 
L 65.379268 191.958393 
L 65.379268 177.822204 
L 65.478483 177.822204 
L 65.577683 177.822204 
L 65.577683 173.110142 
L 65.676916 173.110142 
L 65.776117 173.110142 
L 65.776117 154.26189 
L 65.875346 154.26189 
L 65.97455 154.26189 
L 65.97455 149.549827 
L 66.073766 149.549827 
L 66.172988 149.549827 
L 66.172988 140.125701 
L 66.272191 140.125701 
L 66.371452 140.125701 
L 66.371452 125.989512 
L 66.470665 125.989512 
L 69.943258 125.989512 
L 69.943258 121.277449 
L 70.042472 121.277449 
L 70.14167 121.277449 
L 70.14167 116.565386 
L 70.240885 116.565386 
L 70.73699 116.565386 
L 70.73699 111.853323 
L 70.836216 111.853323 
L 71.133864 111.853323 
L 71.133864 97.717134 
L 71.233067 97.717134 
L 71.332294 97.717134 
L 71.332294 93.005071 
L 71.431534 93.005071 
L 75.300983 93.005071 
L 75.300983 88.293008 
L 75.400222 88.293008 
L 75.499411 88.293008 
L 75.499411 83.580945 
L 75.598658 83.580945 
L 75.896309 83.580945 
L 75.896309 78.868882 
L 75.995516 78.868882 
L 76.491602 78.868882 
L 76.491602 74.156819 
L 76.590809 74.156819 
L 79.865022 74.156819 
L 79.865022 69.444756 
L 79.964203 69.444756 
L 89.191458 69.444756 
L 89.191458 45.884441 
L 89.290627 45.884441 
L 89.389873 45.884441 
L 89.389873 36.460315 
L 89.48906 36.460315 
L 89.58832 36.460315 
L 89.58832 31.748252 
L 89.687516 31.748252 
L 156.460836 31.748252 
L 156.460836 36.460315 
L 156.560072 36.460315 
L 156.659264 36.460315 
L 156.659264 31.748252 
L 156.758483 31.748252 
L 167.374744 31.748252 
L 167.374744 36.460315 
L 167.473996 36.460315 
L 167.573193 36.460315 
L 167.573193 31.748252 
L 167.672405 31.748252 
L 265.600034 31.748252 
L 265.600034 22.324126 
L 265.699213 22.324126 
L 303.005 22.324126 
L 303.005 22.324126 
" style="fill:none;stroke:#1b9e77;stroke-linecap:square;stroke-width:1.5;"/>
   </g>
   <g id="line2d_21">
    <path clip-path="url(#p3bf9acbe96)" d="M 97.327281 196.670456 
L 98.319411 196.670456 
L 98.319411 182.534267 
L 98.418794 182.534267 
L 98.517852 182.534267 
L 98.517852 177.822204 
L 98.617109 177.822204 
L 98.716282 177.822204 
L 98.716282 158.973953 
L 98.81554 158.973953 
L 99.11317 158.973953 
L 99.11317 144.837764 
L 99.212389 144.837764 
L 99.510032 144.837764 
L 99.510032 116.565386 
L 99.609269 116.565386 
L 99.906898 116.565386 
L 99.906898 107.14126 
L 100.006149 107.14126 
L 100.10536 107.14126 
L 100.10536 102.429197 
L 100.204597 102.429197 
L 100.303777 102.429197 
L 100.303777 97.717134 
L 100.403029 97.717134 
L 100.700679 97.717134 
L 100.700679 93.005071 
L 100.79985 93.005071 
L 103.478723 93.005071 
L 103.478723 74.156819 
L 103.577975 74.156819 
L 103.875607 74.156819 
L 103.875607 69.444756 
L 103.974808 69.444756 
L 104.272507 69.444756 
L 104.272507 60.02063 
L 104.371703 60.02063 
L 104.470942 60.02063 
L 104.470942 55.308567 
L 104.570134 55.308567 
L 104.867817 55.308567 
L 104.867817 50.596504 
L 104.967001 50.596504 
L 109.034932 50.596504 
L 109.034932 45.884441 
L 109.134129 45.884441 
L 109.233333 45.884441 
L 109.233333 41.172378 
L 109.332595 41.172378 
L 109.431778 41.172378 
L 109.431778 36.460315 
L 109.531019 36.460315 
L 110.02711 36.460315 
L 110.02711 31.748252 
L 110.12633 31.748252 
L 122.726909 31.748252 
L 122.726909 22.324126 
L 122.826151 22.324126 
L 147.1344 22.324126 
L 147.1344 27.036189 
L 147.233629 27.036189 
L 148.325008 27.036189 
L 148.325008 22.324126 
L 148.424229 22.324126 
L 165.588863 22.324126 
L 165.588863 27.036189 
L 165.688084 27.036189 
L 167.176333 27.036189 
L 167.176333 22.324126 
L 167.275563 22.324126 
L 295.563702 22.324126 
L 295.563702 27.036189 
L 295.662908 27.036189 
L 301.119865 27.036189 
L 301.119865 22.324126 
L 301.219071 22.324126 
L 303.005 22.324126 
L 303.005 22.324126 
" style="fill:none;stroke:#d95f02;stroke-linecap:square;stroke-width:1.5;"/>
   </g>
   <g id="line2d_22">
    <path clip-path="url(#p3bf9acbe96)" d="M 55.905 182.534267 
L 56.114075 182.534267 
L 56.114075 177.822204 
L 56.22478 177.822204 
L 57.140867 177.822204 
L 57.140867 173.110142 
L 60.315861 173.110142 
L 60.315861 168.398079 
L 60.616827 168.398079 
L 60.616827 163.686016 
L 60.716056 163.686016 
L 60.815251 163.686016 
L 60.815251 158.973953 
L 60.914485 158.973953 
L 61.410582 158.973953 
L 61.410582 144.837764 
L 61.50982 144.837764 
L 61.608974 144.837764 
L 61.608974 140.125701 
L 61.708188 140.125701 
L 65.577683 140.125701 
L 65.577683 130.701575 
L 65.676916 130.701575 
L 65.776117 130.701575 
L 65.776117 125.989512 
L 65.875346 125.989512 
L 65.97455 125.989512 
L 65.97455 130.701575 
L 66.073766 130.701575 
L 66.371452 130.701575 
L 66.371452 125.989512 
L 66.470665 125.989512 
L 66.569847 125.989512 
L 66.569847 116.565386 
L 66.669058 116.565386 
L 67.562045 116.565386 
L 67.562045 107.14126 
L 67.661274 107.14126 
L 69.744828 107.14126 
L 69.744828 102.429197 
L 69.844035 102.429197 
L 69.943258 102.429197 
L 69.943258 83.580945 
L 70.042472 83.580945 
L 70.14167 83.580945 
L 70.14167 74.156819 
L 70.240885 74.156819 
L 70.538562 74.156819 
L 70.538562 69.444756 
L 70.637781 69.444756 
L 70.73699 69.444756 
L 70.73699 64.732693 
L 70.836216 64.732693 
L 70.93543 64.732693 
L 70.93543 60.02063 
L 71.034659 60.02063 
L 71.133864 60.02063 
L 71.133864 45.884441 
L 71.233067 45.884441 
L 71.332294 45.884441 
L 71.332294 41.172378 
L 71.431534 41.172378 
L 71.53074 41.172378 
L 71.53074 36.460315 
L 71.62994 36.460315 
L 74.904105 36.460315 
L 74.904105 27.036189 
L 75.003339 27.036189 
L 75.102583 27.036189 
L 75.102583 22.324126 
L 75.20179 22.324126 
L 98.517852 22.324126 
L 98.517852 27.036189 
L 98.617109 27.036189 
L 98.716282 27.036189 
L 98.716282 22.324126 
L 98.81554 22.324126 
L 295.365235 22.324126 
L 295.365235 27.036189 
L 295.46446 27.036189 
L 295.563702 27.036189 
L 295.563702 22.324126 
L 295.662908 22.324126 
L 303.005 22.324126 
L 303.005 22.324126 
" style="fill:none;stroke:#7570b3;stroke-linecap:square;stroke-width:1.5;"/>
   </g>
   <g id="line2d_23">
    <path clip-path="url(#p3bf9acbe96)" d="M 55.905 201.382519 
L 61.212157 201.382519 
L 61.212157 196.670456 
L 61.311344 196.670456 
L 65.180841 196.670456 
L 65.180841 191.958393 
L 65.280021 191.958393 
L 65.379268 191.958393 
L 65.379268 187.24633 
L 65.478483 187.24633 
L 65.577683 187.24633 
L 65.577683 177.822204 
L 65.676916 177.822204 
L 65.776117 177.822204 
L 65.776117 173.110142 
L 65.875346 173.110142 
L 65.97455 173.110142 
L 65.97455 168.398079 
L 66.073766 168.398079 
L 66.172988 168.398079 
L 66.172988 163.686016 
L 66.272191 163.686016 
L 66.569847 163.686016 
L 66.569847 158.973953 
L 66.669058 158.973953 
L 69.943258 158.973953 
L 69.943258 149.549827 
L 70.042472 149.549827 
L 70.14167 149.549827 
L 70.14167 144.837764 
L 70.240885 144.837764 
L 70.93543 144.837764 
L 70.93543 140.125701 
L 71.034659 140.125701 
L 71.133864 140.125701 
L 71.133864 130.701575 
L 71.233067 130.701575 
L 89.191458 130.701575 
L 89.191458 125.989512 
L 89.290627 125.989512 
L 89.389873 125.989512 
L 89.389873 121.277449 
L 89.48906 121.277449 
L 89.58832 121.277449 
L 89.58832 116.565386 
L 89.687516 116.565386 
L 89.786734 116.565386 
L 89.786734 111.853323 
L 89.885942 111.853323 
L 89.985189 111.853323 
L 89.985189 102.429197 
L 90.084384 102.429197 
L 90.183627 102.429197 
L 90.183627 97.717134 
L 90.282818 97.717134 
L 93.755428 97.717134 
L 93.80504 83.580945 
L 93.854644 83.580945 
L 94.152307 83.580945 
L 94.152307 74.156819 
L 94.251521 74.156819 
L 94.747617 74.156819 
L 94.747617 69.444756 
L 94.846837 69.444756 
L 94.946053 69.444756 
L 94.946053 60.02063 
L 95.045277 60.02063 
L 95.144486 60.02063 
L 95.144486 36.460315 
L 95.2437 36.460315 
L 95.342891 36.460315 
L 95.342891 22.324126 
L 95.442199 22.324126 
L 98.319411 22.324126 
L 98.319411 27.036189 
L 98.418794 27.036189 
L 98.716282 27.036189 
L 98.716282 22.324126 
L 98.81554 22.324126 
L 146.737516 22.324126 
L 146.737516 27.036189 
L 146.836768 27.036189 
L 146.935992 27.036189 
L 146.935992 22.324126 
L 147.03517 22.324126 
L 155.667137 22.324126 
L 155.667137 27.036189 
L 155.766316 27.036189 
L 156.063952 27.036189 
L 156.063952 22.324126 
L 156.163219 22.324126 
L 156.460836 22.324126 
L 156.460836 27.036189 
L 156.560072 27.036189 
L 157.254617 27.036189 
L 157.254617 22.324126 
L 157.353809 22.324126 
L 303.005 22.324126 
L 303.005 22.324126 
" style="fill:none;stroke:#e7298a;stroke-linecap:square;stroke-width:1.5;"/>
   </g>
   <g id="line2d_24">
    <path clip-path="url(#p3bf9acbe96)" d="M 55.905 191.958393 
L 65.379268 191.958393 
L 65.379268 187.24633 
L 65.478483 187.24633 
L 66.371452 187.24633 
L 66.371452 182.534267 
L 66.470665 182.534267 
L 66.768308 182.534267 
L 66.768308 177.822204 
L 66.867538 177.822204 
L 70.538562 177.822204 
L 70.538562 173.110142 
L 70.637781 173.110142 
L 70.93543 173.110142 
L 70.93543 168.398079 
L 71.034659 168.398079 
L 74.904105 168.398079 
L 74.904105 163.686016 
L 75.003339 163.686016 
L 88.992995 163.686016 
L 88.992995 154.26189 
L 89.092192 154.26189 
L 89.191458 154.26189 
L 89.191458 144.837764 
L 89.290627 144.837764 
L 89.786734 144.837764 
L 89.786734 140.125701 
L 89.885942 140.125701 
L 90.580492 140.125701 
L 90.580492 135.413638 
L 90.679694 135.413638 
L 94.152307 135.413638 
L 94.152307 130.701575 
L 94.251521 130.701575 
L 94.549143 130.701575 
L 94.549143 121.277449 
L 94.648412 121.277449 
L 94.946053 121.277449 
L 94.946053 116.565386 
L 95.045277 116.565386 
L 96.136665 116.565386 
L 96.136665 111.853323 
L 96.23587 111.853323 
L 98.319411 111.853323 
L 98.319411 107.14126 
L 98.418794 107.14126 
L 98.716282 107.14126 
L 98.716282 102.429197 
L 98.81554 102.429197 
L 98.914715 102.429197 
L 98.914715 93.005071 
L 99.013943 93.005071 
L 99.311616 93.005071 
L 99.311616 88.293008 
L 99.410858 88.293008 
L 99.510032 88.293008 
L 99.559659 74.156819 
L 99.609269 74.156819 
L 99.708492 74.156819 
L 99.708492 64.732693 
L 99.807723 64.732693 
L 100.5022 64.732693 
L 100.5022 69.444756 
L 100.601462 69.444756 
L 103.478723 69.444756 
L 103.478723 60.02063 
L 103.577975 60.02063 
L 103.677207 60.02063 
L 103.677207 55.308567 
L 103.776423 55.308567 
L 104.074049 55.308567 
L 104.074049 50.596504 
L 104.173269 50.596504 
L 104.272507 50.596504 
L 104.272507 41.172378 
L 104.371703 41.172378 
L 104.470942 41.172378 
L 104.470942 36.460315 
L 104.570134 36.460315 
L 104.867817 36.460315 
L 104.867817 31.748252 
L 104.967001 31.748252 
L 267.782798 31.748252 
L 267.782798 36.460315 
L 267.881992 36.460315 
L 272.346775 36.460315 
L 272.346775 31.748252 
L 272.446019 31.748252 
L 303.005 31.748252 
L 303.005 31.748252 
" style="fill:none;stroke:#66a61e;stroke-linecap:square;stroke-width:1.5;"/>
   </g>
   <g id="line2d_25">
    <path clip-path="url(#p3bf9acbe96)" d="M 55.905 196.670456 
L 61.212157 196.670456 
L 61.212157 191.958393 
L 61.311344 191.958393 
L 65.180841 191.958393 
L 65.180841 187.24633 
L 65.280021 187.24633 
L 65.379268 187.24633 
L 65.379268 182.534267 
L 65.478483 182.534267 
L 65.776117 182.534267 
L 65.776117 177.822204 
L 65.875346 177.822204 
L 65.97455 177.822204 
L 65.97455 173.110142 
L 66.073766 173.110142 
L 66.172988 173.110142 
L 66.172988 163.686016 
L 66.272191 163.686016 
L 66.371452 163.686016 
L 66.371452 158.973953 
L 66.470665 158.973953 
L 66.569847 158.973953 
L 66.569847 154.26189 
L 66.669058 154.26189 
L 69.744828 154.26189 
L 69.744828 149.549827 
L 69.844035 149.549827 
L 69.943258 149.549827 
L 69.943258 140.125701 
L 70.042472 140.125701 
L 70.340095 140.125701 
L 70.340095 135.413638 
L 70.439337 135.413638 
L 70.538562 135.413638 
L 70.538562 125.989512 
L 70.637781 125.989512 
L 70.93543 125.989512 
L 70.93543 121.277449 
L 71.034659 121.277449 
L 71.332294 121.277449 
L 71.332294 116.565386 
L 71.431534 116.565386 
L 71.53074 116.565386 
L 71.53074 111.853323 
L 71.62994 111.853323 
L 75.102583 111.853323 
L 75.102583 107.14126 
L 75.20179 107.14126 
L 75.896309 107.14126 
L 75.896309 102.429197 
L 75.995516 102.429197 
L 81.055582 102.429197 
L 81.055582 97.717134 
L 81.15482 97.717134 
L 88.992995 97.717134 
L 88.992995 93.005071 
L 89.092192 93.005071 
L 89.58832 93.005071 
L 89.58832 78.868882 
L 89.687516 78.868882 
L 89.786734 78.868882 
L 89.786734 69.444756 
L 89.885942 69.444756 
L 89.985189 69.444756 
L 89.985189 60.02063 
L 90.084384 60.02063 
L 90.580492 60.02063 
L 90.580492 55.308567 
L 90.679694 55.308567 
L 93.358567 55.308567 
L 93.358567 50.596504 
L 93.457778 50.596504 
L 93.953859 50.596504 
L 93.953859 45.884441 
L 94.053106 45.884441 
L 94.152307 45.884441 
L 94.152307 41.172378 
L 94.251521 41.172378 
L 94.350729 41.172378 
L 94.350729 36.460315 
L 94.44994 36.460315 
L 94.946053 36.460315 
L 94.946053 31.748252 
L 95.045277 31.748252 
L 303.005 31.748252 
L 303.005 31.748252 
" style="fill:none;stroke:#e6ab02;stroke-linecap:square;stroke-width:1.5;"/>
   </g>
   <g id="line2d_26">
    <path clip-path="url(#p3bf9acbe96)" d="M 55.905 201.382519 
L 61.608974 201.382519 
L 61.608974 196.670456 
L 61.708188 196.670456 
L 65.379268 196.670456 
L 65.379268 191.958393 
L 65.478483 191.958393 
L 66.172988 191.958393 
L 66.172988 187.24633 
L 66.272191 187.24633 
L 70.340095 187.24633 
L 70.340095 177.822204 
L 70.439337 177.822204 
L 70.73699 177.822204 
L 70.73699 173.110142 
L 70.836216 173.110142 
L 71.133864 173.110142 
L 71.133864 168.398079 
L 71.233067 168.398079 
L 71.332294 168.398079 
L 71.332294 163.686016 
L 71.431534 163.686016 
L 75.896309 163.686016 
L 75.896309 158.973953 
L 75.995516 158.973953 
L 80.460307 158.973953 
L 80.460307 154.26189 
L 80.559538 154.26189 
L 89.191458 154.26189 
L 89.191458 144.837764 
L 89.290627 144.837764 
L 89.58832 144.837764 
L 89.58832 140.125701 
L 89.687516 140.125701 
L 90.580492 140.125701 
L 90.580492 135.413638 
L 90.679694 135.413638 
L 93.755428 135.413638 
L 93.755428 130.701575 
L 93.854644 130.701575 
L 94.747617 130.701575 
L 94.747617 125.989512 
L 94.846837 125.989512 
L 94.946053 125.989512 
L 94.946053 121.277449 
L 95.045277 121.277449 
L 95.144486 121.277449 
L 95.194088 107.14126 
L 95.2437 107.14126 
L 98.517852 107.14126 
L 98.517852 102.429197 
L 98.617109 102.429197 
L 98.716282 102.429197 
L 98.716282 93.005071 
L 98.81554 93.005071 
L 98.914715 93.005071 
L 98.914715 88.293008 
L 99.013943 88.293008 
L 99.11317 88.293008 
L 99.162776 74.156819 
L 99.212389 74.156819 
L 99.510032 74.156819 
L 99.510032 60.02063 
L 99.609269 60.02063 
L 99.708492 60.02063 
L 99.708492 50.596504 
L 99.807723 50.596504 
L 99.906898 50.596504 
L 99.906898 31.748252 
L 100.006149 31.748252 
L 100.10536 31.748252 
L 100.10536 27.036189 
L 100.204597 27.036189 
L 101.097542 27.036189 
L 101.097542 22.324126 
L 101.196764 22.324126 
L 155.667137 22.324126 
L 155.667137 27.036189 
L 155.766316 27.036189 
L 155.865569 27.036189 
L 155.865569 22.324126 
L 155.964782 22.324126 
L 156.262417 22.324126 
L 156.262417 27.036189 
L 156.361658 27.036189 
L 156.857699 27.036189 
L 156.857699 31.748252 
L 156.956956 31.748252 
L 157.254617 31.748252 
L 157.254617 36.460315 
L 157.353809 36.460315 
L 162.61232 36.460315 
L 162.61232 41.172378 
L 162.711535 41.172378 
L 174.319997 41.172378 
L 174.319997 36.460315 
L 174.419218 36.460315 
L 196.346237 36.460315 
L 196.346237 41.172378 
L 196.445483 41.172378 
L 204.085216 41.172378 
L 204.085216 36.460315 
L 204.184427 36.460315 
L 228.294297 36.460315 
L 228.294297 31.748252 
L 228.393508 31.748252 
L 231.469202 31.748252 
L 231.469202 27.036189 
L 231.568425 27.036189 
L 237.025404 27.036189 
L 237.025404 22.324126 
L 265.600034 22.324126 
L 265.600034 31.748252 
L 265.699213 31.748252 
L 266.19529 31.748252 
L 266.19529 36.460315 
L 266.294554 36.460315 
L 300.722982 36.460315 
L 300.722982 41.172378 
L 300.822235 41.172378 
L 303.005 41.172378 
L 303.005 41.172378 
" style="fill:none;stroke:#a6761d;stroke-linecap:square;stroke-width:1.5;"/>
   </g>
   <g id="line2d_27">
    <path clip-path="url(#p3bf9acbe96)" d="M 55.905 201.382519 
L 65.577683 201.382519 
L 65.577683 196.670456 
L 65.676916 196.670456 
L 66.172988 196.670456 
L 66.172988 191.958393 
L 66.272191 191.958393 
L 70.538562 191.958393 
L 70.538562 187.24633 
L 70.637781 187.24633 
L 70.93543 187.24633 
L 70.93543 191.958393 
L 71.034659 191.958393 
L 71.133864 191.958393 
L 71.133864 182.534267 
L 71.233067 182.534267 
L 89.191458 182.534267 
L 89.191458 177.822204 
L 89.290627 177.822204 
L 89.58832 177.822204 
L 89.58832 173.110142 
L 89.687516 173.110142 
L 89.985189 173.110142 
L 89.985189 168.398079 
L 90.084384 168.398079 
L 90.183627 168.398079 
L 90.183627 163.686016 
L 90.282818 163.686016 
L 91.175769 163.686016 
L 91.175769 158.973953 
L 91.275026 158.973953 
L 94.350729 158.973953 
L 94.350729 154.26189 
L 94.44994 154.26189 
L 94.946053 154.26189 
L 94.946053 149.549827 
L 95.045277 149.549827 
L 95.144486 149.549827 
L 95.144486 144.837764 
L 95.2437 144.837764 
L 98.517852 144.837764 
L 98.517852 135.413638 
L 98.617109 135.413638 
L 98.716282 135.413638 
L 98.716282 130.701575 
L 98.81554 130.701575 
L 98.914715 130.701575 
L 98.964327 116.565386 
L 99.013943 116.565386 
L 99.708492 116.565386 
L 99.708492 111.853323 
L 99.807723 111.853323 
L 99.906898 111.853323 
L 99.906898 107.14126 
L 100.006149 107.14126 
L 100.10536 107.14126 
L 100.10536 111.853323 
L 100.204597 111.853323 
L 100.303777 111.853323 
L 100.303777 107.14126 
L 100.403029 107.14126 
L 100.5022 107.14126 
L 100.5022 102.429197 
L 100.601462 102.429197 
L 102.88345 102.429197 
L 102.88345 107.14126 
L 102.982639 107.14126 
L 103.478723 107.14126 
L 103.478723 93.005071 
L 103.577975 93.005071 
L 103.875607 93.005071 
L 103.875607 88.293008 
L 103.974808 88.293008 
L 104.272507 88.293008 
L 104.272507 69.444756 
L 104.371703 69.444756 
L 104.470942 69.444756 
L 104.470942 64.732693 
L 104.570134 64.732693 
L 108.836471 64.732693 
L 108.836471 60.02063 
L 108.935681 60.02063 
L 124.909733 60.02063 
L 124.909733 55.308567 
L 125.00895 55.308567 
L 128.084682 55.308567 
L 128.084682 50.596504 
L 128.183872 50.596504 
L 128.283093 50.596504 
L 128.283093 55.308567 
L 128.382333 55.308567 
L 128.679965 55.308567 
L 128.679965 50.596504 
L 128.779205 50.596504 
L 133.442433 50.596504 
L 133.442433 45.884441 
L 133.541637 45.884441 
L 141.578214 45.884441 
L 141.578214 50.596504 
L 141.677441 50.596504 
L 147.1344 50.596504 
L 147.1344 45.884441 
L 147.233629 45.884441 
L 155.667137 45.884441 
L 155.667137 50.596504 
L 155.766316 50.596504 
L 156.063952 50.596504 
L 156.063952 55.308567 
L 156.163219 55.308567 
L 156.659264 55.308567 
L 156.659264 60.02063 
L 156.758483 60.02063 
L 162.215449 60.02063 
L 162.215449 64.732693 
L 162.314706 64.732693 
L 170.748134 64.732693 
L 170.748134 69.444756 
L 170.84738 69.444756 
L 190.591664 69.444756 
L 190.591664 74.156819 
L 190.69086 74.156819 
L 280.681063 74.156819 
L 280.681063 69.444756 
L 280.780322 69.444756 
L 286.038824 69.444756 
L 286.038824 74.156819 
L 286.138067 74.156819 
L 303.005 74.156819 
L 303.005 74.156819 
" style="fill:none;stroke:#666666;stroke-linecap:square;stroke-width:1.5;"/>
   </g>
   <g id="line2d_28">
    <path clip-path="url(#p3bf9acbe96)" d="M 55.905 206.094582 
L 65.577683 206.094582 
L 65.577683 201.382519 
L 65.676916 201.382519 
L 70.93543 201.382519 
L 70.93543 191.958393 
L 71.034659 191.958393 
L 88.992995 191.958393 
L 88.992995 187.24633 
L 89.092192 187.24633 
L 89.389873 187.24633 
L 89.389873 182.534267 
L 89.48906 182.534267 
L 89.985189 182.534267 
L 89.985189 177.822204 
L 90.084384 177.822204 
L 93.755428 177.822204 
L 93.755428 173.110142 
L 93.854644 173.110142 
L 93.953859 173.110142 
L 93.953859 163.686016 
L 94.053106 163.686016 
L 94.152307 163.686016 
L 94.152307 158.973953 
L 94.251521 158.973953 
L 94.549143 158.973953 
L 94.549143 154.26189 
L 94.648412 154.26189 
L 94.747617 154.26189 
L 94.747617 144.837764 
L 94.846837 144.837764 
L 94.946053 144.837764 
L 94.946053 135.413638 
L 95.045277 135.413638 
L 95.739807 135.413638 
L 95.739807 130.701575 
L 95.839013 130.701575 
L 96.136665 130.701575 
L 96.136665 125.989512 
L 96.23587 125.989512 
L 96.335063 125.989512 
L 96.335063 130.701575 
L 96.434332 130.701575 
L 98.120997 130.701575 
L 98.120997 135.413638 
L 98.220239 135.413638 
L 98.319411 135.413638 
L 98.319411 140.125701 
L 98.418794 140.125701 
L 98.517852 140.125701 
L 98.517852 135.413638 
L 98.617109 135.413638 
L 98.716282 135.413638 
L 98.716282 140.125701 
L 98.81554 140.125701 
L 98.914715 140.125701 
L 98.914715 135.413638 
L 99.013943 135.413638 
L 99.11317 135.413638 
L 99.11317 130.701575 
L 99.212389 130.701575 
L 99.510032 130.701575 
L 99.510032 135.413638 
L 99.609269 135.413638 
L 104.074049 135.413638 
L 104.074049 130.701575 
L 104.173269 130.701575 
L 104.470942 130.701575 
L 104.470942 125.989512 
L 104.570134 125.989512 
L 109.034932 125.989512 
L 109.034932 121.277449 
L 109.134129 121.277449 
L 110.42396 121.277449 
L 110.42396 116.565386 
L 110.52316 116.565386 
L 123.123795 116.565386 
L 123.123795 111.853323 
L 123.223029 111.853323 
L 123.322227 111.853323 
L 123.322227 107.14126 
L 123.421451 107.14126 
L 124.115946 107.14126 
L 124.115946 102.429197 
L 124.215197 102.429197 
L 133.442433 102.429197 
L 133.442433 97.717134 
L 133.541637 97.717134 
L 134.037686 97.717134 
L 134.037686 93.005071 
L 134.136943 93.005071 
L 143.959461 93.005071 
L 143.959461 88.293008 
L 144.058652 88.293008 
L 148.325008 88.293008 
L 148.325008 93.005071 
L 148.424229 93.005071 
L 156.063952 93.005071 
L 156.063952 97.717134 
L 156.163219 97.717134 
L 190.194785 97.717134 
L 190.194785 93.005071 
L 190.294017 93.005071 
L 223.730294 93.005071 
L 223.730294 88.293008 
L 223.82949 88.293008 
L 227.500543 88.293008 
L 227.500543 83.580945 
L 227.599729 83.580945 
L 241.192526 83.580945 
L 241.192526 78.868882 
L 241.291758 78.868882 
L 270.16405 78.868882 
L 270.16405 83.580945 
L 270.263265 83.580945 
L 270.362435 83.580945 
L 270.362435 78.868882 
L 270.461651 78.868882 
L 303.005 78.868882 
L 303.005 78.868882 
" style="fill:none;stroke:#1b9e77;stroke-dasharray:4.5,1.5;stroke-dashoffset:0;stroke-width:1.5;"/>
   </g>
   <g id="line2d_29">
    <path clip-path="url(#p3bf9acbe96)" d="M 55.905 196.670456 
L 60.315861 196.670456 
L 60.315861 191.958393 
L 66.172988 191.958393 
L 66.172988 187.24633 
L 66.272191 187.24633 
L 70.14167 187.24633 
L 70.14167 182.534267 
L 70.240885 182.534267 
L 70.538562 182.534267 
L 70.538562 177.822204 
L 70.637781 177.822204 
L 71.133864 177.822204 
L 71.133864 173.110142 
L 71.233067 173.110142 
L 71.332294 173.110142 
L 71.332294 168.398079 
L 71.431534 168.398079 
L 72.522911 168.398079 
L 72.522911 163.686016 
L 72.622148 163.686016 
L 89.58832 163.686016 
L 89.58832 154.26189 
L 89.687516 154.26189 
L 94.152307 154.26189 
L 94.152307 149.549827 
L 94.251521 149.549827 
L 95.144486 149.549827 
L 95.144486 144.837764 
L 95.2437 144.837764 
L 95.739807 144.837764 
L 95.739807 140.125701 
L 95.839013 140.125701 
L 98.716282 140.125701 
L 98.716282 135.413638 
L 98.81554 135.413638 
L 98.914715 135.413638 
L 98.914715 125.989512 
L 99.013943 125.989512 
L 99.510032 125.989512 
L 99.510032 116.565386 
L 99.609269 116.565386 
L 103.875607 116.565386 
L 103.875607 111.853323 
L 103.974808 111.853323 
L 104.470942 111.853323 
L 104.470942 107.14126 
L 104.570134 107.14126 
L 105.066206 107.14126 
L 105.066206 102.429197 
L 105.165446 102.429197 
L 110.02711 102.429197 
L 110.02711 97.717134 
L 110.12633 97.717134 
L 123.719106 97.717134 
L 123.719106 93.005071 
L 123.818336 93.005071 
L 128.283093 93.005071 
L 128.283093 88.293008 
L 128.382333 88.293008 
L 133.442433 88.293008 
L 133.442433 93.005071 
L 133.541637 93.005071 
L 156.262417 93.005071 
L 156.262417 88.293008 
L 156.361658 88.293008 
L 156.460836 88.293008 
L 156.460836 93.005071 
L 156.560072 93.005071 
L 161.421727 93.005071 
L 161.421727 88.293008 
L 161.520967 88.293008 
L 196.346237 88.293008 
L 196.346237 83.580945 
L 196.445483 83.580945 
L 228.095821 83.580945 
L 228.095821 78.868882 
L 228.195037 78.868882 
L 238.216019 78.868882 
L 238.216019 83.580945 
L 238.315227 83.580945 
L 301.119865 83.580945 
L 301.119865 88.293008 
L 301.219071 88.293008 
L 303.005 88.293008 
L 303.005 88.293008 
" style="fill:none;stroke:#d95f02;stroke-dasharray:4.5,1.5;stroke-dashoffset:0;stroke-width:1.5;"/>
   </g>
   <g id="line2d_30">
    <path clip-path="url(#p3bf9acbe96)" d="M 145.001225 210.806645 
L 146.737516 210.806645 
L 146.737516 206.094582 
L 146.836768 206.094582 
L 152.690603 206.094582 
L 152.690603 201.382519 
L 152.789792 201.382519 
L 155.667137 201.382519 
L 155.667137 182.534267 
L 155.766316 182.534267 
L 156.063952 182.534267 
L 156.063952 173.110142 
L 156.163219 173.110142 
L 156.460836 173.110142 
L 156.460836 158.973953 
L 156.560072 158.973953 
L 156.857699 158.973953 
L 156.857699 154.26189 
L 156.956956 154.26189 
L 160.826438 154.26189 
L 160.826438 149.549827 
L 160.925653 149.549827 
L 161.8186 149.549827 
L 161.8186 144.837764 
L 161.917811 144.837764 
L 162.215449 144.837764 
L 162.215449 140.125701 
L 162.314706 140.125701 
L 162.61232 140.125701 
L 162.61232 135.413638 
L 162.711535 135.413638 
L 162.810762 135.413638 
L 162.810762 130.701575 
L 162.909959 130.701575 
L 165.588863 130.701575 
L 165.588863 125.989512 
L 165.688084 125.989512 
L 167.374744 125.989512 
L 167.374744 121.277449 
L 167.473996 121.277449 
L 170.748134 121.277449 
L 170.748134 116.565386 
L 170.84738 116.565386 
L 231.469202 116.565386 
L 231.469202 121.277449 
L 231.568425 121.277449 
L 232.461366 121.277449 
L 232.461366 116.565386 
L 232.560621 116.565386 
L 265.798458 116.565386 
L 265.798458 111.853323 
L 265.89769 111.853323 
L 266.19529 111.853323 
L 266.19529 107.14126 
L 266.294554 107.14126 
L 267.782798 107.14126 
L 267.782798 102.429197 
L 267.881992 102.429197 
L 294.769922 102.429197 
L 294.769922 97.717134 
L 294.869148 97.717134 
L 303.005 97.717134 
L 303.005 97.717134 
" style="fill:none;stroke:#7570b3;stroke-dasharray:4.5,1.5;stroke-dashoffset:0;stroke-width:1.5;"/>
   </g>
   <g id="line2d_31">
    <path clip-path="url(#p3bf9acbe96)" d="M 55.905 210.806645 
L 61.807405 210.806645 
L 61.807405 206.094582 
L 61.906627 206.094582 
L 62.601183 206.094582 
L 62.601183 201.382519 
L 62.70039 201.382519 
L 75.102583 201.382519 
L 75.102583 196.670456 
L 75.20179 196.670456 
L 88.992995 196.670456 
L 88.992995 191.958393 
L 89.092192 191.958393 
L 90.382032 191.958393 
L 90.382032 182.534267 
L 90.481241 182.534267 
L 94.152307 182.534267 
L 94.152307 177.822204 
L 94.251521 177.822204 
L 94.350729 177.822204 
L 94.350729 173.110142 
L 94.44994 173.110142 
L 94.946053 173.110142 
L 94.946053 163.686016 
L 95.045277 163.686016 
L 95.144486 163.686016 
L 95.144486 158.973953 
L 95.2437 158.973953 
L 96.335063 158.973953 
L 96.335063 154.26189 
L 96.434332 154.26189 
L 98.716282 154.26189 
L 98.716282 158.973953 
L 98.81554 158.973953 
L 99.11317 158.973953 
L 99.11317 154.26189 
L 99.212389 154.26189 
L 99.311616 154.26189 
L 99.311616 149.549827 
L 99.410858 149.549827 
L 99.708492 149.549827 
L 99.708492 144.837764 
L 99.807723 144.837764 
L 99.906898 144.837764 
L 99.906898 149.549827 
L 100.006149 149.549827 
L 100.10536 149.549827 
L 100.10536 144.837764 
L 100.204597 144.837764 
L 103.478723 144.837764 
L 103.478723 140.125701 
L 103.577975 140.125701 
L 109.828672 140.125701 
L 109.828672 135.413638 
L 109.927876 135.413638 
L 123.123795 135.413638 
L 123.123795 130.701575 
L 123.223029 130.701575 
L 141.975094 130.701575 
L 141.975094 125.989512 
L 142.074356 125.989512 
L 165.588863 125.989512 
L 165.588863 121.277449 
L 165.688084 121.277449 
L 190.591664 121.277449 
L 190.591664 116.565386 
L 190.69086 116.565386 
L 237.025404 116.565386 
L 237.025404 111.853323 
L 256.075135 111.853323 
L 256.075135 107.14126 
L 256.174375 107.14126 
L 295.365235 107.14126 
L 295.365235 102.429197 
L 295.46446 102.429197 
L 300.921413 102.429197 
L 300.921413 97.717134 
L 301.020635 97.717134 
L 303.005 97.717134 
L 303.005 97.717134 
" style="fill:none;stroke:#e7298a;stroke-dasharray:4.5,1.5;stroke-dashoffset:0;stroke-width:1.5;"/>
   </g>
   <g id="line2d_32">
    <path clip-path="url(#p3bf9acbe96)" d="M 55.905 206.094582 
L 65.180841 206.094582 
L 65.180841 201.382519 
L 65.280021 201.382519 
L 65.379268 201.382519 
L 65.379268 196.670456 
L 65.478483 196.670456 
L 66.172988 196.670456 
L 66.172988 187.24633 
L 66.272191 187.24633 
L 69.943258 187.24633 
L 69.943258 182.534267 
L 70.042472 182.534267 
L 70.93543 182.534267 
L 70.93543 177.822204 
L 71.034659 177.822204 
L 71.133864 177.822204 
L 71.133864 173.110142 
L 71.233067 173.110142 
L 71.332294 173.110142 
L 71.332294 168.398079 
L 71.431534 168.398079 
L 89.389873 168.398079 
L 89.389873 163.686016 
L 89.48906 163.686016 
L 89.58832 163.686016 
L 89.58832 158.973953 
L 89.687516 158.973953 
L 89.786734 158.973953 
L 89.786734 149.549827 
L 89.885942 149.549827 
L 94.747617 149.549827 
L 94.747617 144.837764 
L 94.846837 144.837764 
L 94.946053 144.837764 
L 94.946053 140.125701 
L 95.045277 140.125701 
L 98.319411 140.125701 
L 98.319411 144.837764 
L 98.418794 144.837764 
L 98.914715 144.837764 
L 98.914715 135.413638 
L 99.013943 135.413638 
L 99.11317 135.413638 
L 99.11317 140.125701 
L 99.212389 140.125701 
L 99.311616 140.125701 
L 99.311616 135.413638 
L 99.410858 135.413638 
L 99.708492 135.413638 
L 99.708492 125.989512 
L 99.807723 125.989512 
L 99.906898 125.989512 
L 99.906898 121.277449 
L 100.006149 121.277449 
L 109.233333 121.277449 
L 109.233333 116.565386 
L 109.332595 116.565386 
L 109.828672 116.565386 
L 109.828672 111.853323 
L 109.927876 111.853323 
L 119.353516 111.853323 
L 119.353516 107.14126 
L 119.452736 107.14126 
L 137.41109 107.14126 
L 137.41109 102.429197 
L 137.510322 102.429197 
L 138.204828 102.429197 
L 138.204828 97.717134 
L 138.304093 97.717134 
L 142.173556 97.717134 
L 142.173556 93.005071 
L 142.272779 93.005071 
L 157.849919 93.005071 
L 157.849919 88.293008 
L 157.949101 88.293008 
L 276.117034 88.293008 
L 276.117034 93.005071 
L 276.216298 93.005071 
L 280.681063 93.005071 
L 280.681063 97.717134 
L 280.780322 97.717134 
L 303.005 97.717134 
L 303.005 97.717134 
" style="fill:none;stroke:#66a61e;stroke-dasharray:4.5,1.5;stroke-dashoffset:0;stroke-width:1.5;"/>
   </g>
   <g id="line2d_33">
    <path clip-path="url(#p3bf9acbe96)" d="M 55.905 210.806645 
L 61.013876 210.806645 
L 61.013876 206.094582 
L 61.112922 206.094582 
L 61.410582 206.094582 
L 61.410582 201.382519 
L 61.50982 201.382519 
L 65.97455 201.382519 
L 65.97455 196.670456 
L 66.073766 196.670456 
L 71.133864 196.670456 
L 71.133864 191.958393 
L 71.233067 191.958393 
L 74.308829 191.958393 
L 74.308829 187.24633 
L 74.408076 187.24633 
L 75.300983 187.24633 
L 75.300983 182.534267 
L 75.400222 182.534267 
L 75.69787 182.534267 
L 75.69787 177.822204 
L 75.797069 177.822204 
L 88.992995 177.822204 
L 88.992995 168.398079 
L 89.092192 168.398079 
L 89.389873 168.398079 
L 89.389873 163.686016 
L 89.48906 163.686016 
L 89.58832 163.686016 
L 89.58832 158.973953 
L 89.687516 158.973953 
L 89.786734 158.973953 
L 89.786734 154.26189 
L 89.885942 154.26189 
L 89.985189 154.26189 
L 89.985189 144.837764 
L 90.084384 144.837764 
L 90.183627 144.837764 
L 90.183627 140.125701 
L 90.282818 140.125701 
L 90.580492 140.125701 
L 90.580492 135.413638 
L 90.679694 135.413638 
L 90.977379 135.413638 
L 90.977379 130.701575 
L 91.07658 130.701575 
L 91.57263 130.701575 
L 91.57263 125.989512 
L 91.671895 125.989512 
L 93.755428 125.989512 
L 93.755428 121.277449 
L 93.854644 121.277449 
L 93.953859 121.277449 
L 93.953859 116.565386 
L 94.053106 116.565386 
L 94.152307 116.565386 
L 94.152307 102.429197 
L 94.251521 102.429197 
L 94.350729 102.429197 
L 94.350729 97.717134 
L 94.44994 97.717134 
L 94.549143 97.717134 
L 94.549143 93.005071 
L 94.648412 93.005071 
L 96.335063 93.005071 
L 96.335063 97.717134 
L 96.434332 97.717134 
L 98.914715 97.717134 
L 98.914715 93.005071 
L 99.013943 93.005071 
L 99.11317 93.005071 
L 99.11317 97.717134 
L 99.212389 97.717134 
L 99.311616 97.717134 
L 99.311616 93.005071 
L 99.410858 93.005071 
L 104.867817 93.005071 
L 104.867817 97.717134 
L 104.967001 97.717134 
L 105.066206 97.717134 
L 105.066206 93.005071 
L 105.165446 93.005071 
L 294.968397 93.005071 
L 294.968397 97.717134 
L 295.067574 97.717134 
L 303.005 97.717134 
L 303.005 97.717134 
" style="fill:none;stroke:#e6ab02;stroke-dasharray:4.5,1.5;stroke-dashoffset:0;stroke-width:1.5;"/>
   </g>
   <g id="line2d_34">
    <path clip-path="url(#p3bf9acbe96)" d="M 55.905 206.094582 
L 65.776117 206.094582 
L 65.776117 196.670456 
L 65.875346 196.670456 
L 70.14167 196.670456 
L 70.14167 187.24633 
L 70.240885 187.24633 
L 70.340095 187.24633 
L 70.340095 182.534267 
L 70.439337 182.534267 
L 71.133864 182.534267 
L 71.133864 177.822204 
L 71.233067 177.822204 
L 71.332294 177.822204 
L 71.332294 173.110142 
L 71.431534 173.110142 
L 89.786734 173.110142 
L 89.786734 168.398079 
L 89.885942 168.398079 
L 89.985189 168.398079 
L 89.985189 163.686016 
L 90.084384 163.686016 
L 90.183627 163.686016 
L 90.183627 158.973953 
L 90.282818 158.973953 
L 90.778888 158.973953 
L 90.778888 154.26189 
L 90.878151 154.26189 
L 90.977379 154.26189 
L 90.977379 158.973953 
L 91.07658 158.973953 
L 93.755428 158.973953 
L 93.755428 140.125701 
L 93.854644 140.125701 
L 94.152307 140.125701 
L 94.152307 130.701575 
L 94.251521 130.701575 
L 94.350729 130.701575 
L 94.350729 125.989512 
L 94.44994 125.989512 
L 94.549143 125.989512 
L 94.549143 116.565386 
L 94.648412 116.565386 
L 303.005 116.565386 
L 303.005 116.565386 
" style="fill:none;stroke:#a6761d;stroke-dasharray:4.5,1.5;stroke-dashoffset:0;stroke-width:1.5;"/>
   </g>
   <g id="line2d_35">
    <path clip-path="url(#p3bf9acbe96)" d="M 55.905 210.806645 
L 66.172988 210.806645 
L 66.172988 206.094582 
L 66.272191 206.094582 
L 66.371452 206.094582 
L 66.371452 201.382519 
L 66.470665 201.382519 
L 70.340095 201.382519 
L 70.340095 196.670456 
L 70.439337 196.670456 
L 71.332294 196.670456 
L 71.332294 191.958393 
L 71.431534 191.958393 
L 71.729163 191.958393 
L 71.729163 187.24633 
L 71.828403 187.24633 
L 72.126054 187.24633 
L 72.126054 182.534267 
L 72.225279 182.534267 
L 75.102583 182.534267 
L 75.102583 187.24633 
L 75.20179 187.24633 
L 89.191458 187.24633 
L 89.191458 182.534267 
L 89.290627 182.534267 
L 90.382032 182.534267 
L 90.382032 173.110142 
L 90.481241 173.110142 
L 93.953859 173.110142 
L 93.953859 168.398079 
L 94.053106 168.398079 
L 94.747617 168.398079 
L 94.747617 149.549827 
L 94.846837 149.549827 
L 94.946053 149.549827 
L 94.946053 144.837764 
L 95.045277 144.837764 
L 95.144486 144.837764 
L 95.144486 140.125701 
L 95.2437 140.125701 
L 156.063952 140.125701 
L 156.063952 144.837764 
L 156.163219 144.837764 
L 156.262417 144.837764 
L 156.262417 140.125701 
L 156.361658 140.125701 
L 276.117034 140.125701 
L 276.117034 135.413638 
L 276.216298 135.413638 
L 286.038824 135.413638 
L 286.038824 130.701575 
L 286.138067 130.701575 
L 300.722982 130.701575 
L 300.722982 125.989512 
L 300.822235 125.989512 
L 303.005 125.989512 
L 303.005 125.989512 
" style="fill:none;stroke:#666666;stroke-dasharray:4.5,1.5;stroke-dashoffset:0;stroke-width:1.5;"/>
   </g>
   <g id="line2d_36"/>
   <g id="line2d_37"/>
   <g id="line2d_38"/>
   <g id="line2d_39"/>
   <g id="line2d_40"/>
   <g id="line2d_41"/>
   <g id="line2d_42"/>
   <g id="line2d_43"/>
   <g id="line2d_44"/>
   <g id="line2d_45"/>
   <g id="line2d_46"/>
   <g id="line2d_47"/>
   <g id="line2d_48"/>
   <g id="line2d_49"/>
   <g id="line2d_50"/>
   <g id="line2d_51"/>
   <g id="line2d_52"/>
   <g id="patch_3">
    <path d="M 43.55 220.230771 
L 43.55 12.9 
" style="fill:none;stroke:#000000;stroke-linecap:square;stroke-linejoin:miter;stroke-width:0.8;"/>
   </g>
   <g id="patch_4">
    <path d="M 315.36 220.230771 
L 315.36 12.9 
" style="fill:none;stroke:#000000;stroke-linecap:square;stroke-linejoin:miter;stroke-width:0.8;"/>
   </g>
   <g id="patch_5">
    <path d="M 43.55 220.230771 
L 315.36 220.230771 
" style="fill:none;stroke:#000000;stroke-linecap:square;stroke-linejoin:miter;stroke-width:0.8;"/>
   </g>
   <g id="patch_6">
    <path d="M 43.55 12.9 
L 315.36 12.9 
" style="fill:none;stroke:#000000;stroke-linecap:square;stroke-linejoin:miter;stroke-width:0.8;"/>
   </g>
  </g>
  <g id="legend_1">
   <g id="patch_7">
    <path d="M 331.8625 262.528125 
L 420 262.528125 
Q 422 262.528125 422 260.528125 
L 422 12 
Q 422 10 420 10 
L 331.8625 10 
Q 329.8625 10 329.8625 12 
L 329.8625 260.528125 
Q 329.8625 262.528125 331.8625 262.528125 
z
" style="fill:#ffffff;opacity:0.8;stroke:#cccccc;stroke-linejoin:miter;"/>
   </g>
   <g id="text_22">
    <!-- 489/610 Reg. -->
    <defs>
     <path d="M 25.390625 72.90625 
L 33.6875 72.90625 
L 8.296875 -9.28125 
L 0 -9.28125 
z
" id="DejaVuSans-47"/>
     <path d="M 33.015625 40.375 
Q 26.375 40.375 22.484375 35.828125 
Q 18.609375 31.296875 18.609375 23.390625 
Q 18.609375 15.53125 22.484375 10.953125 
Q 26.375 6.390625 33.015625 6.390625 
Q 39.65625 6.390625 43.53125 10.953125 
Q 47.40625 15.53125 47.40625 23.390625 
Q 47.40625 31.296875 43.53125 35.828125 
Q 39.65625 40.375 33.015625 40.375 
z
M 52.59375 71.296875 
L 52.59375 62.3125 
Q 48.875 64.0625 45.09375 64.984375 
Q 41.3125 65.921875 37.59375 65.921875 
Q 27.828125 65.921875 22.671875 59.328125 
Q 17.53125 52.734375 16.796875 39.40625 
Q 19.671875 43.65625 24.015625 45.921875 
Q 28.375 48.1875 33.59375 48.1875 
Q 44.578125 48.1875 50.953125 41.515625 
Q 57.328125 34.859375 57.328125 23.390625 
Q 57.328125 12.15625 50.6875 5.359375 
Q 44.046875 -1.421875 33.015625 -1.421875 
Q 20.359375 -1.421875 13.671875 8.265625 
Q 6.984375 17.96875 6.984375 36.375 
Q 6.984375 53.65625 15.1875 63.9375 
Q 23.390625 74.21875 37.203125 74.21875 
Q 40.921875 74.21875 44.703125 73.484375 
Q 48.484375 72.75 52.59375 71.296875 
z
" id="DejaVuSans-54"/>
     <path d="M 10.6875 12.40625 
L 21 12.40625 
L 21 0 
L 10.6875 0 
z
" id="DejaVuSans-46"/>
    </defs>
    <g transform="translate(342.259375 21.598437)scale(0.1 -0.1)">
     <use xlink:href="#DejaVuSans-52"/>
     <use x="63.623047" xlink:href="#DejaVuSans-56"/>
     <use x="127.246094" xlink:href="#DejaVuSans-57"/>
     <use x="190.869141" xlink:href="#DejaVuSans-47"/>
     <use x="224.560547" xlink:href="#DejaVuSans-54"/>
     <use x="288.183594" xlink:href="#DejaVuSans-49"/>
     <use x="351.806641" xlink:href="#DejaVuSans-48"/>
     <use x="415.429688" xlink:href="#DejaVuSans-32"/>
     <use x="447.216797" xlink:href="#DejaVuSans-82"/>
     <use x="516.636719" xlink:href="#DejaVuSans-101"/>
     <use x="578.160156" xlink:href="#DejaVuSans-103"/>
     <use x="641.636719" xlink:href="#DejaVuSans-46"/>
    </g>
   </g>
   <g id="line2d_53">
    <path d="M 333.8625 32.776562 
L 353.8625 32.776562 
" style="fill:none;stroke:#1b9e77;stroke-linecap:square;stroke-width:1.5;"/>
   </g>
   <g id="line2d_54"/>
   <g id="text_23">
    <!-- AS (40) -->
    <defs>
     <path d="M 34.1875 63.1875 
L 20.796875 26.90625 
L 47.609375 26.90625 
z
M 28.609375 72.90625 
L 39.796875 72.90625 
L 67.578125 0 
L 57.328125 0 
L 50.6875 18.703125 
L 17.828125 18.703125 
L 11.1875 0 
L 0.78125 0 
z
" id="DejaVuSans-65"/>
     <path d="M 31 75.875 
Q 24.46875 64.65625 21.28125 53.65625 
Q 18.109375 42.671875 18.109375 31.390625 
Q 18.109375 20.125 21.3125 9.0625 
Q 24.515625 -2 31 -13.1875 
L 23.1875 -13.1875 
Q 15.875 -1.703125 12.234375 9.375 
Q 8.59375 20.453125 8.59375 31.390625 
Q 8.59375 42.28125 12.203125 53.3125 
Q 15.828125 64.359375 23.1875 75.875 
z
" id="DejaVuSans-40"/>
     <path d="M 8.015625 75.875 
L 15.828125 75.875 
Q 23.140625 64.359375 26.78125 53.3125 
Q 30.421875 42.28125 30.421875 31.390625 
Q 30.421875 20.453125 26.78125 9.375 
Q 23.140625 -1.703125 15.828125 -13.1875 
L 8.015625 -13.1875 
Q 14.5 -2 17.703125 9.0625 
Q 20.90625 20.125 20.90625 31.390625 
Q 20.90625 42.671875 17.703125 53.65625 
Q 14.5 64.65625 8.015625 75.875 
z
" id="DejaVuSans-41"/>
    </defs>
    <g transform="translate(361.8625 36.276562)scale(0.1 -0.1)">
     <use xlink:href="#DejaVuSans-65"/>
     <use x="68.408203" xlink:href="#DejaVuSans-83"/>
     <use x="131.884766" xlink:href="#DejaVuSans-32"/>
     <use x="163.671875" xlink:href="#DejaVuSans-40"/>
     <use x="202.685547" xlink:href="#DejaVuSans-52"/>
     <use x="266.308594" xlink:href="#DejaVuSans-48"/>
     <use x="329.931641" xlink:href="#DejaVuSans-41"/>
    </g>
   </g>
   <g id="line2d_55">
    <path d="M 333.8625 47.454688 
L 353.8625 47.454688 
" style="fill:none;stroke:#d95f02;stroke-linecap:square;stroke-width:1.5;"/>
   </g>
   <g id="line2d_56"/>
   <g id="text_24">
    <!-- AUS (40) -->
    <defs>
     <path d="M 8.6875 72.90625 
L 18.609375 72.90625 
L 18.609375 28.609375 
Q 18.609375 16.890625 22.84375 11.734375 
Q 27.09375 6.59375 36.625 6.59375 
Q 46.09375 6.59375 50.34375 11.734375 
Q 54.59375 16.890625 54.59375 28.609375 
L 54.59375 72.90625 
L 64.5 72.90625 
L 64.5 27.390625 
Q 64.5 13.140625 57.4375 5.859375 
Q 50.390625 -1.421875 36.625 -1.421875 
Q 22.796875 -1.421875 15.734375 5.859375 
Q 8.6875 13.140625 8.6875 27.390625 
z
" id="DejaVuSans-85"/>
    </defs>
    <g transform="translate(361.8625 50.954688)scale(0.1 -0.1)">
     <use xlink:href="#DejaVuSans-65"/>
     <use x="68.408203" xlink:href="#DejaVuSans-85"/>
     <use x="141.601562" xlink:href="#DejaVuSans-83"/>
     <use x="205.078125" xlink:href="#DejaVuSans-32"/>
     <use x="236.865234" xlink:href="#DejaVuSans-40"/>
     <use x="275.878906" xlink:href="#DejaVuSans-52"/>
     <use x="339.501953" xlink:href="#DejaVuSans-48"/>
     <use x="403.125" xlink:href="#DejaVuSans-41"/>
    </g>
   </g>
   <g id="line2d_57">
    <path d="M 333.8625 62.132812 
L 353.8625 62.132812 
" style="fill:none;stroke:#7570b3;stroke-linecap:square;stroke-width:1.5;"/>
   </g>
   <g id="line2d_58"/>
   <g id="text_25">
    <!-- COML (40) -->
    <defs>
     <path d="M 64.40625 67.28125 
L 64.40625 56.890625 
Q 59.421875 61.53125 53.78125 63.8125 
Q 48.140625 66.109375 41.796875 66.109375 
Q 29.296875 66.109375 22.65625 58.46875 
Q 16.015625 50.828125 16.015625 36.375 
Q 16.015625 21.96875 22.65625 14.328125 
Q 29.296875 6.6875 41.796875 6.6875 
Q 48.140625 6.6875 53.78125 8.984375 
Q 59.421875 11.28125 64.40625 15.921875 
L 64.40625 5.609375 
Q 59.234375 2.09375 53.4375 0.328125 
Q 47.65625 -1.421875 41.21875 -1.421875 
Q 24.65625 -1.421875 15.125 8.703125 
Q 5.609375 18.84375 5.609375 36.375 
Q 5.609375 53.953125 15.125 64.078125 
Q 24.65625 74.21875 41.21875 74.21875 
Q 47.75 74.21875 53.53125 72.484375 
Q 59.328125 70.75 64.40625 67.28125 
z
" id="DejaVuSans-67"/>
     <path d="M 39.40625 66.21875 
Q 28.65625 66.21875 22.328125 58.203125 
Q 16.015625 50.203125 16.015625 36.375 
Q 16.015625 22.609375 22.328125 14.59375 
Q 28.65625 6.59375 39.40625 6.59375 
Q 50.140625 6.59375 56.421875 14.59375 
Q 62.703125 22.609375 62.703125 36.375 
Q 62.703125 50.203125 56.421875 58.203125 
Q 50.140625 66.21875 39.40625 66.21875 
z
M 39.40625 74.21875 
Q 54.734375 74.21875 63.90625 63.9375 
Q 73.09375 53.65625 73.09375 36.375 
Q 73.09375 19.140625 63.90625 8.859375 
Q 54.734375 -1.421875 39.40625 -1.421875 
Q 24.03125 -1.421875 14.8125 8.828125 
Q 5.609375 19.09375 5.609375 36.375 
Q 5.609375 53.65625 14.8125 63.9375 
Q 24.03125 74.21875 39.40625 74.21875 
z
" id="DejaVuSans-79"/>
     <path d="M 9.8125 72.90625 
L 24.515625 72.90625 
L 43.109375 23.296875 
L 61.8125 72.90625 
L 76.515625 72.90625 
L 76.515625 0 
L 66.890625 0 
L 66.890625 64.015625 
L 48.09375 14.015625 
L 38.1875 14.015625 
L 19.390625 64.015625 
L 19.390625 0 
L 9.8125 0 
z
" id="DejaVuSans-77"/>
     <path d="M 9.8125 72.90625 
L 19.671875 72.90625 
L 19.671875 8.296875 
L 55.171875 8.296875 
L 55.171875 0 
L 9.8125 0 
z
" id="DejaVuSans-76"/>
    </defs>
    <g transform="translate(361.8625 65.632812)scale(0.1 -0.1)">
     <use xlink:href="#DejaVuSans-67"/>
     <use x="69.824219" xlink:href="#DejaVuSans-79"/>
     <use x="148.535156" xlink:href="#DejaVuSans-77"/>
     <use x="234.814453" xlink:href="#DejaVuSans-76"/>
     <use x="290.527344" xlink:href="#DejaVuSans-32"/>
     <use x="322.314453" xlink:href="#DejaVuSans-40"/>
     <use x="361.328125" xlink:href="#DejaVuSans-52"/>
     <use x="424.951172" xlink:href="#DejaVuSans-48"/>
     <use x="488.574219" xlink:href="#DejaVuSans-41"/>
    </g>
   </g>
   <g id="line2d_59">
    <path d="M 333.8625 76.810937 
L 353.8625 76.810937 
" style="fill:none;stroke:#e7298a;stroke-linecap:square;stroke-width:1.5;"/>
   </g>
   <g id="line2d_60"/>
   <g id="text_26">
    <!-- GDD (40) -->
    <defs>
     <path d="M 59.515625 10.40625 
L 59.515625 29.984375 
L 43.40625 29.984375 
L 43.40625 38.09375 
L 69.28125 38.09375 
L 69.28125 6.78125 
Q 63.578125 2.734375 56.6875 0.65625 
Q 49.8125 -1.421875 42 -1.421875 
Q 24.90625 -1.421875 15.25 8.5625 
Q 5.609375 18.5625 5.609375 36.375 
Q 5.609375 54.25 15.25 64.234375 
Q 24.90625 74.21875 42 74.21875 
Q 49.125 74.21875 55.546875 72.453125 
Q 61.96875 70.703125 67.390625 67.28125 
L 67.390625 56.78125 
Q 61.921875 61.421875 55.765625 63.765625 
Q 49.609375 66.109375 42.828125 66.109375 
Q 29.4375 66.109375 22.71875 58.640625 
Q 16.015625 51.171875 16.015625 36.375 
Q 16.015625 21.625 22.71875 14.15625 
Q 29.4375 6.6875 42.828125 6.6875 
Q 48.046875 6.6875 52.140625 7.59375 
Q 56.25 8.5 59.515625 10.40625 
z
" id="DejaVuSans-71"/>
    </defs>
    <g transform="translate(361.8625 80.310937)scale(0.1 -0.1)">
     <use xlink:href="#DejaVuSans-71"/>
     <use x="77.490234" xlink:href="#DejaVuSans-68"/>
     <use x="154.492188" xlink:href="#DejaVuSans-68"/>
     <use x="231.494141" xlink:href="#DejaVuSans-32"/>
     <use x="263.28125" xlink:href="#DejaVuSans-40"/>
     <use x="302.294922" xlink:href="#DejaVuSans-52"/>
     <use x="365.917969" xlink:href="#DejaVuSans-48"/>
     <use x="429.541016" xlink:href="#DejaVuSans-41"/>
    </g>
   </g>
   <g id="line2d_61">
    <path d="M 333.8625 91.489062 
L 353.8625 91.489062 
" style="fill:none;stroke:#66a61e;stroke-linecap:square;stroke-width:1.5;"/>
   </g>
   <g id="line2d_62"/>
   <g id="text_27">
    <!-- MD (38) -->
    <g transform="translate(361.8625 94.989062)scale(0.1 -0.1)">
     <use xlink:href="#DejaVuSans-77"/>
     <use x="86.279297" xlink:href="#DejaVuSans-68"/>
     <use x="163.28125" xlink:href="#DejaVuSans-32"/>
     <use x="195.068359" xlink:href="#DejaVuSans-40"/>
     <use x="234.082031" xlink:href="#DejaVuSans-51"/>
     <use x="297.705078" xlink:href="#DejaVuSans-56"/>
     <use x="361.328125" xlink:href="#DejaVuSans-41"/>
    </g>
   </g>
   <g id="line2d_63">
    <path d="M 333.8625 106.167188 
L 353.8625 106.167188 
" style="fill:none;stroke:#e6ab02;stroke-linecap:square;stroke-width:1.5;"/>
   </g>
   <g id="line2d_64"/>
   <g id="text_28">
    <!-- HPI (38) -->
    <defs>
     <path d="M 9.8125 72.90625 
L 19.671875 72.90625 
L 19.671875 43.015625 
L 55.515625 43.015625 
L 55.515625 72.90625 
L 65.375 72.90625 
L 65.375 0 
L 55.515625 0 
L 55.515625 34.71875 
L 19.671875 34.71875 
L 19.671875 0 
L 9.8125 0 
z
" id="DejaVuSans-72"/>
     <path d="M 19.671875 64.796875 
L 19.671875 37.40625 
L 32.078125 37.40625 
Q 38.96875 37.40625 42.71875 40.96875 
Q 46.484375 44.53125 46.484375 51.125 
Q 46.484375 57.671875 42.71875 61.234375 
Q 38.96875 64.796875 32.078125 64.796875 
z
M 9.8125 72.90625 
L 32.078125 72.90625 
Q 44.34375 72.90625 50.609375 67.359375 
Q 56.890625 61.8125 56.890625 51.125 
Q 56.890625 40.328125 50.609375 34.8125 
Q 44.34375 29.296875 32.078125 29.296875 
L 19.671875 29.296875 
L 19.671875 0 
L 9.8125 0 
z
" id="DejaVuSans-80"/>
     <path d="M 9.8125 72.90625 
L 19.671875 72.90625 
L 19.671875 0 
L 9.8125 0 
z
" id="DejaVuSans-73"/>
    </defs>
    <g transform="translate(361.8625 109.667188)scale(0.1 -0.1)">
     <use xlink:href="#DejaVuSans-72"/>
     <use x="75.195312" xlink:href="#DejaVuSans-80"/>
     <use x="135.498047" xlink:href="#DejaVuSans-73"/>
     <use x="164.990234" xlink:href="#DejaVuSans-32"/>
     <use x="196.777344" xlink:href="#DejaVuSans-40"/>
     <use x="235.791016" xlink:href="#DejaVuSans-51"/>
     <use x="299.414062" xlink:href="#DejaVuSans-56"/>
     <use x="363.037109" xlink:href="#DejaVuSans-41"/>
    </g>
   </g>
   <g id="line2d_65">
    <path d="M 333.8625 120.845312 
L 353.8625 120.845312 
" style="fill:none;stroke:#a6761d;stroke-linecap:square;stroke-width:1.5;"/>
   </g>
   <g id="line2d_66"/>
   <g id="text_29">
    <!-- SA (36) -->
    <g transform="translate(361.8625 124.345312)scale(0.1 -0.1)">
     <use xlink:href="#DejaVuSans-83"/>
     <use x="63.492188" xlink:href="#DejaVuSans-65"/>
     <use x="131.900391" xlink:href="#DejaVuSans-32"/>
     <use x="163.6875" xlink:href="#DejaVuSans-40"/>
     <use x="202.701172" xlink:href="#DejaVuSans-51"/>
     <use x="266.324219" xlink:href="#DejaVuSans-54"/>
     <use x="329.947266" xlink:href="#DejaVuSans-41"/>
    </g>
   </g>
   <g id="line2d_67">
    <path d="M 333.8625 135.523438 
L 353.8625 135.523438 
" style="fill:none;stroke:#666666;stroke-linecap:square;stroke-width:1.5;"/>
   </g>
   <g id="line2d_68"/>
   <g id="text_30">
    <!-- FIT (29) -->
    <defs>
     <path d="M 9.8125 72.90625 
L 51.703125 72.90625 
L 51.703125 64.59375 
L 19.671875 64.59375 
L 19.671875 43.109375 
L 48.578125 43.109375 
L 48.578125 34.8125 
L 19.671875 34.8125 
L 19.671875 0 
L 9.8125 0 
z
" id="DejaVuSans-70"/>
     <path d="M -0.296875 72.90625 
L 61.375 72.90625 
L 61.375 64.59375 
L 35.5 64.59375 
L 35.5 0 
L 25.59375 0 
L 25.59375 64.59375 
L -0.296875 64.59375 
z
" id="DejaVuSans-84"/>
    </defs>
    <g transform="translate(361.8625 139.023438)scale(0.1 -0.1)">
     <use xlink:href="#DejaVuSans-70"/>
     <use x="57.519531" xlink:href="#DejaVuSans-73"/>
     <use x="87.011719" xlink:href="#DejaVuSans-84"/>
     <use x="148.095703" xlink:href="#DejaVuSans-32"/>
     <use x="179.882812" xlink:href="#DejaVuSans-40"/>
     <use x="218.896484" xlink:href="#DejaVuSans-50"/>
     <use x="282.519531" xlink:href="#DejaVuSans-57"/>
     <use x="346.142578" xlink:href="#DejaVuSans-41"/>
    </g>
   </g>
   <g id="line2d_69">
    <path d="M 333.8625 150.201562 
L 353.8625 150.201562 
" style="fill:none;stroke:#1b9e77;stroke-dasharray:4.5,1.5;stroke-dashoffset:0;stroke-width:1.5;"/>
   </g>
   <g id="line2d_70"/>
   <g id="text_31">
    <!-- SPD (28) -->
    <g transform="translate(361.8625 153.701562)scale(0.1 -0.1)">
     <use xlink:href="#DejaVuSans-83"/>
     <use x="63.476562" xlink:href="#DejaVuSans-80"/>
     <use x="123.779297" xlink:href="#DejaVuSans-68"/>
     <use x="200.78125" xlink:href="#DejaVuSans-32"/>
     <use x="232.568359" xlink:href="#DejaVuSans-40"/>
     <use x="271.582031" xlink:href="#DejaVuSans-50"/>
     <use x="335.205078" xlink:href="#DejaVuSans-56"/>
     <use x="398.828125" xlink:href="#DejaVuSans-41"/>
    </g>
   </g>
   <g id="line2d_71">
    <path d="M 333.8625 164.879687 
L 353.8625 164.879687 
" style="fill:none;stroke:#d95f02;stroke-dasharray:4.5,1.5;stroke-dashoffset:0;stroke-width:1.5;"/>
   </g>
   <g id="line2d_72"/>
   <g id="text_32">
    <!-- TBI (26) -->
    <defs>
     <path d="M 19.671875 34.8125 
L 19.671875 8.109375 
L 35.5 8.109375 
Q 43.453125 8.109375 47.28125 11.40625 
Q 51.125 14.703125 51.125 21.484375 
Q 51.125 28.328125 47.28125 31.5625 
Q 43.453125 34.8125 35.5 34.8125 
z
M 19.671875 64.796875 
L 19.671875 42.828125 
L 34.28125 42.828125 
Q 41.5 42.828125 45.03125 45.53125 
Q 48.578125 48.25 48.578125 53.8125 
Q 48.578125 59.328125 45.03125 62.0625 
Q 41.5 64.796875 34.28125 64.796875 
z
M 9.8125 72.90625 
L 35.015625 72.90625 
Q 46.296875 72.90625 52.390625 68.21875 
Q 58.5 63.53125 58.5 54.890625 
Q 58.5 48.1875 55.375 44.234375 
Q 52.25 40.28125 46.1875 39.3125 
Q 53.46875 37.75 57.5 32.78125 
Q 61.53125 27.828125 61.53125 20.40625 
Q 61.53125 10.640625 54.890625 5.3125 
Q 48.25 0 35.984375 0 
L 9.8125 0 
z
" id="DejaVuSans-66"/>
    </defs>
    <g transform="translate(361.8625 168.379687)scale(0.1 -0.1)">
     <use xlink:href="#DejaVuSans-84"/>
     <use x="61.083984" xlink:href="#DejaVuSans-66"/>
     <use x="129.6875" xlink:href="#DejaVuSans-73"/>
     <use x="159.179688" xlink:href="#DejaVuSans-32"/>
     <use x="190.966797" xlink:href="#DejaVuSans-40"/>
     <use x="229.980469" xlink:href="#DejaVuSans-50"/>
     <use x="293.603516" xlink:href="#DejaVuSans-54"/>
     <use x="357.226562" xlink:href="#DejaVuSans-41"/>
    </g>
   </g>
   <g id="line2d_73">
    <path d="M 333.8625 179.557812 
L 353.8625 179.557812 
" style="fill:none;stroke:#7570b3;stroke-dasharray:4.5,1.5;stroke-dashoffset:0;stroke-width:1.5;"/>
   </g>
   <g id="line2d_74"/>
   <g id="text_33">
    <!-- RJPH (24) -->
    <defs>
     <path d="M 9.8125 72.90625 
L 19.671875 72.90625 
L 19.671875 5.078125 
Q 19.671875 -8.109375 14.671875 -14.0625 
Q 9.671875 -20.015625 -1.421875 -20.015625 
L -5.171875 -20.015625 
L -5.171875 -11.71875 
L -2.09375 -11.71875 
Q 4.4375 -11.71875 7.125 -8.046875 
Q 9.8125 -4.390625 9.8125 5.078125 
z
" id="DejaVuSans-74"/>
    </defs>
    <g transform="translate(361.8625 183.057812)scale(0.1 -0.1)">
     <use xlink:href="#DejaVuSans-82"/>
     <use x="69.482422" xlink:href="#DejaVuSans-74"/>
     <use x="98.974609" xlink:href="#DejaVuSans-80"/>
     <use x="159.277344" xlink:href="#DejaVuSans-72"/>
     <use x="234.472656" xlink:href="#DejaVuSans-32"/>
     <use x="266.259766" xlink:href="#DejaVuSans-40"/>
     <use x="305.273438" xlink:href="#DejaVuSans-50"/>
     <use x="368.896484" xlink:href="#DejaVuSans-52"/>
     <use x="432.519531" xlink:href="#DejaVuSans-41"/>
    </g>
   </g>
   <g id="line2d_75">
    <path d="M 333.8625 194.235937 
L 353.8625 194.235937 
" style="fill:none;stroke:#e7298a;stroke-dasharray:4.5,1.5;stroke-dashoffset:0;stroke-width:1.5;"/>
   </g>
   <g id="line2d_76"/>
   <g id="text_34">
    <!-- CB (24) -->
    <g transform="translate(361.8625 197.735937)scale(0.1 -0.1)">
     <use xlink:href="#DejaVuSans-67"/>
     <use x="69.824219" xlink:href="#DejaVuSans-66"/>
     <use x="138.427734" xlink:href="#DejaVuSans-32"/>
     <use x="170.214844" xlink:href="#DejaVuSans-40"/>
     <use x="209.228516" xlink:href="#DejaVuSans-50"/>
     <use x="272.851562" xlink:href="#DejaVuSans-52"/>
     <use x="336.474609" xlink:href="#DejaVuSans-41"/>
    </g>
   </g>
   <g id="line2d_77">
    <path d="M 333.8625 208.914062 
L 353.8625 208.914062 
" style="fill:none;stroke:#66a61e;stroke-dasharray:4.5,1.5;stroke-dashoffset:0;stroke-width:1.5;"/>
   </g>
   <g id="line2d_78"/>
   <g id="text_35">
    <!-- BP (24) -->
    <g transform="translate(361.8625 212.414062)scale(0.1 -0.1)">
     <use xlink:href="#DejaVuSans-66"/>
     <use x="68.603516" xlink:href="#DejaVuSans-80"/>
     <use x="128.90625" xlink:href="#DejaVuSans-32"/>
     <use x="160.693359" xlink:href="#DejaVuSans-40"/>
     <use x="199.707031" xlink:href="#DejaVuSans-50"/>
     <use x="263.330078" xlink:href="#DejaVuSans-52"/>
     <use x="326.953125" xlink:href="#DejaVuSans-41"/>
    </g>
   </g>
   <g id="line2d_79">
    <path d="M 333.8625 223.592187 
L 353.8625 223.592187 
" style="fill:none;stroke:#e6ab02;stroke-dasharray:4.5,1.5;stroke-dashoffset:0;stroke-width:1.5;"/>
   </g>
   <g id="line2d_80"/>
   <g id="text_36">
    <!-- CC (24) -->
    <g transform="translate(361.8625 227.092187)scale(0.1 -0.1)">
     <use xlink:href="#DejaVuSans-67"/>
     <use x="69.824219" xlink:href="#DejaVuSans-67"/>
     <use x="139.648438" xlink:href="#DejaVuSans-32"/>
     <use x="171.435547" xlink:href="#DejaVuSans-40"/>
     <use x="210.449219" xlink:href="#DejaVuSans-50"/>
     <use x="274.072266" xlink:href="#DejaVuSans-52"/>
     <use x="337.695312" xlink:href="#DejaVuSans-41"/>
    </g>
   </g>
   <g id="line2d_81">
    <path d="M 333.8625 238.270312 
L 353.8625 238.270312 
" style="fill:none;stroke:#a6761d;stroke-dasharray:4.5,1.5;stroke-dashoffset:0;stroke-width:1.5;"/>
   </g>
   <g id="line2d_82"/>
   <g id="text_37">
    <!-- AHR-H (20) -->
    <g transform="translate(361.8625 241.770312)scale(0.1 -0.1)">
     <use xlink:href="#DejaVuSans-65"/>
     <use x="68.408203" xlink:href="#DejaVuSans-72"/>
     <use x="143.603516" xlink:href="#DejaVuSans-82"/>
     <use x="213.023438" xlink:href="#DejaVuSans-45"/>
     <use x="249.107422" xlink:href="#DejaVuSans-72"/>
     <use x="324.302734" xlink:href="#DejaVuSans-32"/>
     <use x="356.089844" xlink:href="#DejaVuSans-40"/>
     <use x="395.103516" xlink:href="#DejaVuSans-50"/>
     <use x="458.726562" xlink:href="#DejaVuSans-48"/>
     <use x="522.349609" xlink:href="#DejaVuSans-41"/>
    </g>
   </g>
   <g id="line2d_83">
    <path d="M 333.8625 252.948437 
L 353.8625 252.948437 
" style="fill:none;stroke:#666666;stroke-dasharray:4.5,1.5;stroke-dashoffset:0;stroke-width:1.5;"/>
   </g>
   <g id="line2d_84"/>
   <g id="text_38">
    <!-- AHR-A (18) -->
    <g transform="translate(361.8625 256.448437)scale(0.1 -0.1)">
     <use xlink:href="#DejaVuSans-65"/>
     <use x="68.408203" xlink:href="#DejaVuSans-72"/>
     <use x="143.603516" xlink:href="#DejaVuSans-82"/>
     <use x="213.023438" xlink:href="#DejaVuSans-45"/>
     <use x="249.076172" xlink:href="#DejaVuSans-65"/>
     <use x="317.484375" xlink:href="#DejaVuSans-32"/>
     <use x="349.271484" xlink:href="#DejaVuSans-40"/>
     <use x="388.285156" xlink:href="#DejaVuSans-49"/>
     <use x="451.908203" xlink:href="#DejaVuSans-56"/>
     <use x="515.53125" xlink:href="#DejaVuSans-41"/>
    </g>
   </g>
  </g>
 </g>
 <defs>
  <clipPath id="p3bf9acbe96">
   <rect height="207.330771" width="271.81" x="43.55" y="12.9"/>
  </clipPath>
 </defs>
</svg>
