<?xml version="1.0" encoding="utf-8" standalone="no"?>
<!DOCTYPE svg PUBLIC "-//W3C//DTD SVG 1.1//EN"
  "http://www.w3.org/Graphics/SVG/1.1/DTD/svg11.dtd">
<!-- Created with matplotlib (https://matplotlib.org/) -->
<svg height="288pt" version="1.1" viewBox="0 0 432 288" width="432pt" xmlns="http://www.w3.org/2000/svg" xmlns:xlink="http://www.w3.org/1999/xlink">
 <defs>
  <style type="text/css">
*{stroke-linecap:butt;stroke-linejoin:round;}
  </style>
 </defs>
 <g id="figure_1">
  <g id="patch_1">
   <path d="M 0 288 
L 432 288 
L 432 0 
L 0 0 
z
" style="fill:#ffffff;"/>
  </g>
  <g id="axes_1">
   <g id="patch_2">
    <path d="M 43.55 220.230771 
L 315.36 220.230771 
L 315.36 12.9 
L 43.55 12.9 
z
" style="fill:#ffffff;"/>
   </g>
   <g id="matplotlib.axis_1">
    <g id="xtick_1">
     <g id="line2d_1">
      <defs>
       <path d="M 0 0 
L 0 3.5 
" id="m0414de547a" style="stroke:#000000;stroke-width:0.8;"/>
      </defs>
      <g>
       <use style="stroke:#000000;stroke-width:0.8;" x="50.888354" xlink:href="#m0414de547a" y="220.230771"/>
      </g>
     </g>
     <g id="text_1">
      <!-- 2020-11-29 -->
      <defs>
       <path d="M 19.1875 8.296875 
L 53.609375 8.296875 
L 53.609375 0 
L 7.328125 0 
L 7.328125 8.296875 
Q 12.9375 14.109375 22.625 23.890625 
Q 32.328125 33.6875 34.8125 36.53125 
Q 39.546875 41.84375 41.421875 45.53125 
Q 43.3125 49.21875 43.3125 52.78125 
Q 43.3125 58.59375 39.234375 62.25 
Q 35.15625 65.921875 28.609375 65.921875 
Q 23.96875 65.921875 18.8125 64.3125 
Q 13.671875 62.703125 7.8125 59.421875 
L 7.8125 69.390625 
Q 13.765625 71.78125 18.9375 73 
Q 24.125 74.21875 28.421875 74.21875 
Q 39.75 74.21875 46.484375 68.546875 
Q 53.21875 62.890625 53.21875 53.421875 
Q 53.21875 48.921875 51.53125 44.890625 
Q 49.859375 40.875 45.40625 35.40625 
Q 44.1875 33.984375 37.640625 27.21875 
Q 31.109375 20.453125 19.1875 8.296875 
z
" id="DejaVuSans-50"/>
       <path d="M 31.78125 66.40625 
Q 24.171875 66.40625 20.328125 58.90625 
Q 16.5 51.421875 16.5 36.375 
Q 16.5 21.390625 20.328125 13.890625 
Q 24.171875 6.390625 31.78125 6.390625 
Q 39.453125 6.390625 43.28125 13.890625 
Q 47.125 21.390625 47.125 36.375 
Q 47.125 51.421875 43.28125 58.90625 
Q 39.453125 66.40625 31.78125 66.40625 
z
M 31.78125 74.21875 
Q 44.046875 74.21875 50.515625 64.515625 
Q 56.984375 54.828125 56.984375 36.375 
Q 56.984375 17.96875 50.515625 8.265625 
Q 44.046875 -1.421875 31.78125 -1.421875 
Q 19.53125 -1.421875 13.0625 8.265625 
Q 6.59375 17.96875 6.59375 36.375 
Q 6.59375 54.828125 13.0625 64.515625 
Q 19.53125 74.21875 31.78125 74.21875 
z
" id="DejaVuSans-48"/>
       <path d="M 4.890625 31.390625 
L 31.203125 31.390625 
L 31.203125 23.390625 
L 4.890625 23.390625 
z
" id="DejaVuSans-45"/>
       <path d="M 12.40625 8.296875 
L 28.515625 8.296875 
L 28.515625 63.921875 
L 10.984375 60.40625 
L 10.984375 69.390625 
L 28.421875 72.90625 
L 38.28125 72.90625 
L 38.28125 8.296875 
L 54.390625 8.296875 
L 54.390625 0 
L 12.40625 0 
z
" id="DejaVuSans-49"/>
       <path d="M 10.984375 1.515625 
L 10.984375 10.5 
Q 14.703125 8.734375 18.5 7.8125 
Q 22.3125 6.890625 25.984375 6.890625 
Q 35.75 6.890625 40.890625 13.453125 
Q 46.046875 20.015625 46.78125 33.40625 
Q 43.953125 29.203125 39.59375 26.953125 
Q 35.25 24.703125 29.984375 24.703125 
Q 19.046875 24.703125 12.671875 31.3125 
Q 6.296875 37.9375 6.296875 49.421875 
Q 6.296875 60.640625 12.9375 67.421875 
Q 19.578125 74.21875 30.609375 74.21875 
Q 43.265625 74.21875 49.921875 64.515625 
Q 56.59375 54.828125 56.59375 36.375 
Q 56.59375 19.140625 48.40625 8.859375 
Q 40.234375 -1.421875 26.421875 -1.421875 
Q 22.703125 -1.421875 18.890625 -0.6875 
Q 15.09375 0.046875 10.984375 1.515625 
z
M 30.609375 32.421875 
Q 37.25 32.421875 41.125 36.953125 
Q 45.015625 41.5 45.015625 49.421875 
Q 45.015625 57.28125 41.125 61.84375 
Q 37.25 66.40625 30.609375 66.40625 
Q 23.96875 66.40625 20.09375 61.84375 
Q 16.21875 57.28125 16.21875 49.421875 
Q 16.21875 41.5 20.09375 36.953125 
Q 23.96875 32.421875 30.609375 32.421875 
z
" id="DejaVuSans-57"/>
      </defs>
      <g transform="translate(27.103237 262.869024)rotate(-30)scale(0.1 -0.1)">
       <use xlink:href="#DejaVuSans-50"/>
       <use x="63.623047" xlink:href="#DejaVuSans-48"/>
       <use x="127.246094" xlink:href="#DejaVuSans-50"/>
       <use x="190.869141" xlink:href="#DejaVuSans-48"/>
       <use x="254.492188" xlink:href="#DejaVuSans-45"/>
       <use x="290.576172" xlink:href="#DejaVuSans-49"/>
       <use x="354.199219" xlink:href="#DejaVuSans-49"/>
       <use x="417.822266" xlink:href="#DejaVuSans-45"/>
       <use x="453.90625" xlink:href="#DejaVuSans-50"/>
       <use x="517.529297" xlink:href="#DejaVuSans-57"/>
      </g>
     </g>
    </g>
    <g id="xtick_2">
     <g id="line2d_2">
      <g>
       <use style="stroke:#000000;stroke-width:0.8;" x="57.816411" xlink:href="#m0414de547a" y="220.230771"/>
      </g>
     </g>
     <g id="text_2">
      <!-- 2020-12-01 -->
      <g transform="translate(34.031295 262.869024)rotate(-30)scale(0.1 -0.1)">
       <use xlink:href="#DejaVuSans-50"/>
       <use x="63.623047" xlink:href="#DejaVuSans-48"/>
       <use x="127.246094" xlink:href="#DejaVuSans-50"/>
       <use x="190.869141" xlink:href="#DejaVuSans-48"/>
       <use x="254.492188" xlink:href="#DejaVuSans-45"/>
       <use x="290.576172" xlink:href="#DejaVuSans-49"/>
       <use x="354.199219" xlink:href="#DejaVuSans-50"/>
       <use x="417.822266" xlink:href="#DejaVuSans-45"/>
       <use x="453.90625" xlink:href="#DejaVuSans-48"/>
       <use x="517.529297" xlink:href="#DejaVuSans-49"/>
      </g>
     </g>
    </g>
    <g id="xtick_3">
     <g id="line2d_3">
      <g>
       <use style="stroke:#000000;stroke-width:0.8;" x="106.312816" xlink:href="#m0414de547a" y="220.230771"/>
      </g>
     </g>
     <g id="text_3">
      <!-- 2020-12-15 -->
      <defs>
       <path d="M 10.796875 72.90625 
L 49.515625 72.90625 
L 49.515625 64.59375 
L 19.828125 64.59375 
L 19.828125 46.734375 
Q 21.96875 47.46875 24.109375 47.828125 
Q 26.265625 48.1875 28.421875 48.1875 
Q 40.625 48.1875 47.75 41.5 
Q 54.890625 34.8125 54.890625 23.390625 
Q 54.890625 11.625 47.5625 5.09375 
Q 40.234375 -1.421875 26.90625 -1.421875 
Q 22.3125 -1.421875 17.546875 -0.640625 
Q 12.796875 0.140625 7.71875 1.703125 
L 7.71875 11.625 
Q 12.109375 9.234375 16.796875 8.0625 
Q 21.484375 6.890625 26.703125 6.890625 
Q 35.15625 6.890625 40.078125 11.328125 
Q 45.015625 15.765625 45.015625 23.390625 
Q 45.015625 31 40.078125 35.4375 
Q 35.15625 39.890625 26.703125 39.890625 
Q 22.75 39.890625 18.8125 39.015625 
Q 14.890625 38.140625 10.796875 36.28125 
z
" id="DejaVuSans-53"/>
      </defs>
      <g transform="translate(82.5277 262.869024)rotate(-30)scale(0.1 -0.1)">
       <use xlink:href="#DejaVuSans-50"/>
       <use x="63.623047" xlink:href="#DejaVuSans-48"/>
       <use x="127.246094" xlink:href="#DejaVuSans-50"/>
       <use x="190.869141" xlink:href="#DejaVuSans-48"/>
       <use x="254.492188" xlink:href="#DejaVuSans-45"/>
       <use x="290.576172" xlink:href="#DejaVuSans-49"/>
       <use x="354.199219" xlink:href="#DejaVuSans-50"/>
       <use x="417.822266" xlink:href="#DejaVuSans-45"/>
       <use x="453.90625" xlink:href="#DejaVuSans-49"/>
       <use x="517.529297" xlink:href="#DejaVuSans-53"/>
      </g>
     </g>
    </g>
    <g id="xtick_4">
     <g id="line2d_4">
      <g>
       <use style="stroke:#000000;stroke-width:0.8;" x="154.809221" xlink:href="#m0414de547a" y="220.230771"/>
      </g>
     </g>
     <g id="text_4">
      <!-- 2020-12-29 -->
      <g transform="translate(131.024105 262.869024)rotate(-30)scale(0.1 -0.1)">
       <use xlink:href="#DejaVuSans-50"/>
       <use x="63.623047" xlink:href="#DejaVuSans-48"/>
       <use x="127.246094" xlink:href="#DejaVuSans-50"/>
       <use x="190.869141" xlink:href="#DejaVuSans-48"/>
       <use x="254.492188" xlink:href="#DejaVuSans-45"/>
       <use x="290.576172" xlink:href="#DejaVuSans-49"/>
       <use x="354.199219" xlink:href="#DejaVuSans-50"/>
       <use x="417.822266" xlink:href="#DejaVuSans-45"/>
       <use x="453.90625" xlink:href="#DejaVuSans-50"/>
       <use x="517.529297" xlink:href="#DejaVuSans-57"/>
      </g>
     </g>
    </g>
    <g id="xtick_5">
     <g id="line2d_5">
      <g>
       <use style="stroke:#000000;stroke-width:0.8;" x="165.201308" xlink:href="#m0414de547a" y="220.230771"/>
      </g>
     </g>
     <g id="text_5">
      <!-- 2021-01-01 -->
      <g transform="translate(141.416192 262.869024)rotate(-30)scale(0.1 -0.1)">
       <use xlink:href="#DejaVuSans-50"/>
       <use x="63.623047" xlink:href="#DejaVuSans-48"/>
       <use x="127.246094" xlink:href="#DejaVuSans-50"/>
       <use x="190.869141" xlink:href="#DejaVuSans-49"/>
       <use x="254.492188" xlink:href="#DejaVuSans-45"/>
       <use x="290.576172" xlink:href="#DejaVuSans-48"/>
       <use x="354.199219" xlink:href="#DejaVuSans-49"/>
       <use x="417.822266" xlink:href="#DejaVuSans-45"/>
       <use x="453.90625" xlink:href="#DejaVuSans-48"/>
       <use x="517.529297" xlink:href="#DejaVuSans-49"/>
      </g>
     </g>
    </g>
    <g id="xtick_6">
     <g id="line2d_6">
      <g>
       <use style="stroke:#000000;stroke-width:0.8;" x="213.697713" xlink:href="#m0414de547a" y="220.230771"/>
      </g>
     </g>
     <g id="text_6">
      <!-- 2021-01-15 -->
      <g transform="translate(189.912597 262.869024)rotate(-30)scale(0.1 -0.1)">
       <use xlink:href="#DejaVuSans-50"/>
       <use x="63.623047" xlink:href="#DejaVuSans-48"/>
       <use x="127.246094" xlink:href="#DejaVuSans-50"/>
       <use x="190.869141" xlink:href="#DejaVuSans-49"/>
       <use x="254.492188" xlink:href="#DejaVuSans-45"/>
       <use x="290.576172" xlink:href="#DejaVuSans-48"/>
       <use x="354.199219" xlink:href="#DejaVuSans-49"/>
       <use x="417.822266" xlink:href="#DejaVuSans-45"/>
       <use x="453.90625" xlink:href="#DejaVuSans-49"/>
       <use x="517.529297" xlink:href="#DejaVuSans-53"/>
      </g>
     </g>
    </g>
    <g id="xtick_7">
     <g id="line2d_7">
      <g>
       <use style="stroke:#000000;stroke-width:0.8;" x="262.194118" xlink:href="#m0414de547a" y="220.230771"/>
      </g>
     </g>
     <g id="text_7">
      <!-- 2021-01-29 -->
      <g transform="translate(238.409002 262.869024)rotate(-30)scale(0.1 -0.1)">
       <use xlink:href="#DejaVuSans-50"/>
       <use x="63.623047" xlink:href="#DejaVuSans-48"/>
       <use x="127.246094" xlink:href="#DejaVuSans-50"/>
       <use x="190.869141" xlink:href="#DejaVuSans-49"/>
       <use x="254.492188" xlink:href="#DejaVuSans-45"/>
       <use x="290.576172" xlink:href="#DejaVuSans-48"/>
       <use x="354.199219" xlink:href="#DejaVuSans-49"/>
       <use x="417.822266" xlink:href="#DejaVuSans-45"/>
       <use x="453.90625" xlink:href="#DejaVuSans-50"/>
       <use x="517.529297" xlink:href="#DejaVuSans-57"/>
      </g>
     </g>
    </g>
    <g id="xtick_8">
     <g id="line2d_8">
      <g>
       <use style="stroke:#000000;stroke-width:0.8;" x="272.586205" xlink:href="#m0414de547a" y="220.230771"/>
      </g>
     </g>
     <g id="text_8">
      <!-- 2021-02-01 -->
      <g transform="translate(248.801089 262.869024)rotate(-30)scale(0.1 -0.1)">
       <use xlink:href="#DejaVuSans-50"/>
       <use x="63.623047" xlink:href="#DejaVuSans-48"/>
       <use x="127.246094" xlink:href="#DejaVuSans-50"/>
       <use x="190.869141" xlink:href="#DejaVuSans-49"/>
       <use x="254.492188" xlink:href="#DejaVuSans-45"/>
       <use x="290.576172" xlink:href="#DejaVuSans-48"/>
       <use x="354.199219" xlink:href="#DejaVuSans-50"/>
       <use x="417.822266" xlink:href="#DejaVuSans-45"/>
       <use x="453.90625" xlink:href="#DejaVuSans-48"/>
       <use x="517.529297" xlink:href="#DejaVuSans-49"/>
      </g>
     </g>
    </g>
    <g id="text_9">
     <!-- Date -->
     <defs>
      <path d="M 19.671875 64.796875 
L 19.671875 8.109375 
L 31.59375 8.109375 
Q 46.6875 8.109375 53.6875 14.9375 
Q 60.6875 21.78125 60.6875 36.53125 
Q 60.6875 51.171875 53.6875 57.984375 
Q 46.6875 64.796875 31.59375 64.796875 
z
M 9.8125 72.90625 
L 30.078125 72.90625 
Q 51.265625 72.90625 61.171875 64.09375 
Q 71.09375 55.28125 71.09375 36.53125 
Q 71.09375 17.671875 61.125 8.828125 
Q 51.171875 0 30.078125 0 
L 9.8125 0 
z
" id="DejaVuSans-68"/>
      <path d="M 34.28125 27.484375 
Q 23.390625 27.484375 19.1875 25 
Q 14.984375 22.515625 14.984375 16.5 
Q 14.984375 11.71875 18.140625 8.90625 
Q 21.296875 6.109375 26.703125 6.109375 
Q 34.1875 6.109375 38.703125 11.40625 
Q 43.21875 16.703125 43.21875 25.484375 
L 43.21875 27.484375 
z
M 52.203125 31.203125 
L 52.203125 0 
L 43.21875 0 
L 43.21875 8.296875 
Q 40.140625 3.328125 35.546875 0.953125 
Q 30.953125 -1.421875 24.3125 -1.421875 
Q 15.921875 -1.421875 10.953125 3.296875 
Q 6 8.015625 6 15.921875 
Q 6 25.140625 12.171875 29.828125 
Q 18.359375 34.515625 30.609375 34.515625 
L 43.21875 34.515625 
L 43.21875 35.40625 
Q 43.21875 41.609375 39.140625 45 
Q 35.0625 48.390625 27.6875 48.390625 
Q 23 48.390625 18.546875 47.265625 
Q 14.109375 46.140625 10.015625 43.890625 
L 10.015625 52.203125 
Q 14.9375 54.109375 19.578125 55.046875 
Q 24.21875 56 28.609375 56 
Q 40.484375 56 46.34375 49.84375 
Q 52.203125 43.703125 52.203125 31.203125 
z
" id="DejaVuSans-97"/>
      <path d="M 18.3125 70.21875 
L 18.3125 54.6875 
L 36.8125 54.6875 
L 36.8125 47.703125 
L 18.3125 47.703125 
L 18.3125 18.015625 
Q 18.3125 11.328125 20.140625 9.421875 
Q 21.96875 7.515625 27.59375 7.515625 
L 36.8125 7.515625 
L 36.8125 0 
L 27.59375 0 
Q 17.1875 0 13.234375 3.875 
Q 9.28125 7.765625 9.28125 18.015625 
L 9.28125 47.703125 
L 2.6875 47.703125 
L 2.6875 54.6875 
L 9.28125 54.6875 
L 9.28125 70.21875 
z
" id="DejaVuSans-116"/>
      <path d="M 56.203125 29.59375 
L 56.203125 25.203125 
L 14.890625 25.203125 
Q 15.484375 15.921875 20.484375 11.0625 
Q 25.484375 6.203125 34.421875 6.203125 
Q 39.59375 6.203125 44.453125 7.46875 
Q 49.3125 8.734375 54.109375 11.28125 
L 54.109375 2.78125 
Q 49.265625 0.734375 44.1875 -0.34375 
Q 39.109375 -1.421875 33.890625 -1.421875 
Q 20.796875 -1.421875 13.15625 6.1875 
Q 5.515625 13.8125 5.515625 26.8125 
Q 5.515625 40.234375 12.765625 48.109375 
Q 20.015625 56 32.328125 56 
Q 43.359375 56 49.78125 48.890625 
Q 56.203125 41.796875 56.203125 29.59375 
z
M 47.21875 32.234375 
Q 47.125 39.59375 43.09375 43.984375 
Q 39.0625 48.390625 32.421875 48.390625 
Q 24.90625 48.390625 20.390625 44.140625 
Q 15.875 39.890625 15.1875 32.171875 
z
" id="DejaVuSans-101"/>
     </defs>
     <g transform="translate(167.504219 276.268523)scale(0.1 -0.1)">
      <use xlink:href="#DejaVuSans-68"/>
      <use x="77.001953" xlink:href="#DejaVuSans-97"/>
      <use x="138.28125" xlink:href="#DejaVuSans-116"/>
      <use x="177.490234" xlink:href="#DejaVuSans-101"/>
     </g>
    </g>
   </g>
   <g id="matplotlib.axis_2">
    <g id="ytick_1">
     <g id="line2d_9">
      <defs>
       <path d="M 0 0 
L -3.5 0 
" id="md8f6611b8b" style="stroke:#000000;stroke-width:0.8;"/>
      </defs>
      <g>
       <use style="stroke:#000000;stroke-width:0.8;" x="43.55" xlink:href="#md8f6611b8b" y="210.806645"/>
      </g>
     </g>
     <g id="text_10">
      <!-- 0 -->
      <g transform="translate(30.1875 214.605864)scale(0.1 -0.1)">
       <use xlink:href="#DejaVuSans-48"/>
      </g>
     </g>
    </g>
    <g id="ytick_2">
     <g id="line2d_10">
      <g>
       <use style="stroke:#000000;stroke-width:0.8;" x="43.55" xlink:href="#md8f6611b8b" y="187.24633"/>
      </g>
     </g>
     <g id="text_11">
      <!-- 5 -->
      <g transform="translate(30.1875 191.045549)scale(0.1 -0.1)">
       <use xlink:href="#DejaVuSans-53"/>
      </g>
     </g>
    </g>
    <g id="ytick_3">
     <g id="line2d_11">
      <g>
       <use style="stroke:#000000;stroke-width:0.8;" x="43.55" xlink:href="#md8f6611b8b" y="163.686016"/>
      </g>
     </g>
     <g id="text_12">
      <!-- 10 -->
      <g transform="translate(23.825 167.485234)scale(0.1 -0.1)">
       <use xlink:href="#DejaVuSans-49"/>
       <use x="63.623047" xlink:href="#DejaVuSans-48"/>
      </g>
     </g>
    </g>
    <g id="ytick_4">
     <g id="line2d_12">
      <g>
       <use style="stroke:#000000;stroke-width:0.8;" x="43.55" xlink:href="#md8f6611b8b" y="140.125701"/>
      </g>
     </g>
     <g id="text_13">
      <!-- 15 -->
      <g transform="translate(23.825 143.924919)scale(0.1 -0.1)">
       <use xlink:href="#DejaVuSans-49"/>
       <use x="63.623047" xlink:href="#DejaVuSans-53"/>
      </g>
     </g>
    </g>
    <g id="ytick_5">
     <g id="line2d_13">
      <g>
       <use style="stroke:#000000;stroke-width:0.8;" x="43.55" xlink:href="#md8f6611b8b" y="116.565386"/>
      </g>
     </g>
     <g id="text_14">
      <!-- 20 -->
      <g transform="translate(23.825 120.364604)scale(0.1 -0.1)">
       <use xlink:href="#DejaVuSans-50"/>
       <use x="63.623047" xlink:href="#DejaVuSans-48"/>
      </g>
     </g>
    </g>
    <g id="ytick_6">
     <g id="line2d_14">
      <g>
       <use style="stroke:#000000;stroke-width:0.8;" x="43.55" xlink:href="#md8f6611b8b" y="93.005071"/>
      </g>
     </g>
     <g id="text_15">
      <!-- 25 -->
      <g transform="translate(23.825 96.80429)scale(0.1 -0.1)">
       <use xlink:href="#DejaVuSans-50"/>
       <use x="63.623047" xlink:href="#DejaVuSans-53"/>
      </g>
     </g>
    </g>
    <g id="ytick_7">
     <g id="line2d_15">
      <g>
       <use style="stroke:#000000;stroke-width:0.8;" x="43.55" xlink:href="#md8f6611b8b" y="69.444756"/>
      </g>
     </g>
     <g id="text_16">
      <!-- 30 -->
      <defs>
       <path d="M 40.578125 39.3125 
Q 47.65625 37.796875 51.625 33 
Q 55.609375 28.21875 55.609375 21.1875 
Q 55.609375 10.40625 48.1875 4.484375 
Q 40.765625 -1.421875 27.09375 -1.421875 
Q 22.515625 -1.421875 17.65625 -0.515625 
Q 12.796875 0.390625 7.625 2.203125 
L 7.625 11.71875 
Q 11.71875 9.328125 16.59375 8.109375 
Q 21.484375 6.890625 26.8125 6.890625 
Q 36.078125 6.890625 40.9375 10.546875 
Q 45.796875 14.203125 45.796875 21.1875 
Q 45.796875 27.640625 41.28125 31.265625 
Q 36.765625 34.90625 28.71875 34.90625 
L 20.21875 34.90625 
L 20.21875 43.015625 
L 29.109375 43.015625 
Q 36.375 43.015625 40.234375 45.921875 
Q 44.09375 48.828125 44.09375 54.296875 
Q 44.09375 59.90625 40.109375 62.90625 
Q 36.140625 65.921875 28.71875 65.921875 
Q 24.65625 65.921875 20.015625 65.03125 
Q 15.375 64.15625 9.8125 62.3125 
L 9.8125 71.09375 
Q 15.4375 72.65625 20.34375 73.4375 
Q 25.25 74.21875 29.59375 74.21875 
Q 40.828125 74.21875 47.359375 69.109375 
Q 53.90625 64.015625 53.90625 55.328125 
Q 53.90625 49.265625 50.4375 45.09375 
Q 46.96875 40.921875 40.578125 39.3125 
z
" id="DejaVuSans-51"/>
      </defs>
      <g transform="translate(23.825 73.243975)scale(0.1 -0.1)">
       <use xlink:href="#DejaVuSans-51"/>
       <use x="63.623047" xlink:href="#DejaVuSans-48"/>
      </g>
     </g>
    </g>
    <g id="ytick_8">
     <g id="line2d_16">
      <g>
       <use style="stroke:#000000;stroke-width:0.8;" x="43.55" xlink:href="#md8f6611b8b" y="45.884441"/>
      </g>
     </g>
     <g id="text_17">
      <!-- 35 -->
      <g transform="translate(23.825 49.68366)scale(0.1 -0.1)">
       <use xlink:href="#DejaVuSans-51"/>
       <use x="63.623047" xlink:href="#DejaVuSans-53"/>
      </g>
     </g>
    </g>
    <g id="ytick_9">
     <g id="line2d_17">
      <g>
       <use style="stroke:#000000;stroke-width:0.8;" x="43.55" xlink:href="#md8f6611b8b" y="22.324126"/>
      </g>
     </g>
     <g id="text_18">
      <!-- 40 -->
      <defs>
       <path d="M 37.796875 64.3125 
L 12.890625 25.390625 
L 37.796875 25.390625 
z
M 35.203125 72.90625 
L 47.609375 72.90625 
L 47.609375 25.390625 
L 58.015625 25.390625 
L 58.015625 17.1875 
L 47.609375 17.1875 
L 47.609375 0 
L 37.796875 0 
L 37.796875 17.1875 
L 4.890625 17.1875 
L 4.890625 26.703125 
z
" id="DejaVuSans-52"/>
      </defs>
      <g transform="translate(23.825 26.123345)scale(0.1 -0.1)">
       <use xlink:href="#DejaVuSans-52"/>
       <use x="63.623047" xlink:href="#DejaVuSans-48"/>
      </g>
     </g>
    </g>
    <g id="text_19">
     <!-- Students Registered -->
     <defs>
      <path d="M 53.515625 70.515625 
L 53.515625 60.890625 
Q 47.90625 63.578125 42.921875 64.890625 
Q 37.9375 66.21875 33.296875 66.21875 
Q 25.25 66.21875 20.875 63.09375 
Q 16.5 59.96875 16.5 54.203125 
Q 16.5 49.359375 19.40625 46.890625 
Q 22.3125 44.4375 30.421875 42.921875 
L 36.375 41.703125 
Q 47.40625 39.59375 52.65625 34.296875 
Q 57.90625 29 57.90625 20.125 
Q 57.90625 9.515625 50.796875 4.046875 
Q 43.703125 -1.421875 29.984375 -1.421875 
Q 24.8125 -1.421875 18.96875 -0.25 
Q 13.140625 0.921875 6.890625 3.21875 
L 6.890625 13.375 
Q 12.890625 10.015625 18.65625 8.296875 
Q 24.421875 6.59375 29.984375 6.59375 
Q 38.421875 6.59375 43.015625 9.90625 
Q 47.609375 13.234375 47.609375 19.390625 
Q 47.609375 24.75 44.3125 27.78125 
Q 41.015625 30.8125 33.5 32.328125 
L 27.484375 33.5 
Q 16.453125 35.6875 11.515625 40.375 
Q 6.59375 45.0625 6.59375 53.421875 
Q 6.59375 63.09375 13.40625 68.65625 
Q 20.21875 74.21875 32.171875 74.21875 
Q 37.3125 74.21875 42.625 73.28125 
Q 47.953125 72.359375 53.515625 70.515625 
z
" id="DejaVuSans-83"/>
      <path d="M 8.5 21.578125 
L 8.5 54.6875 
L 17.484375 54.6875 
L 17.484375 21.921875 
Q 17.484375 14.15625 20.5 10.265625 
Q 23.53125 6.390625 29.59375 6.390625 
Q 36.859375 6.390625 41.078125 11.03125 
Q 45.3125 15.671875 45.3125 23.6875 
L 45.3125 54.6875 
L 54.296875 54.6875 
L 54.296875 0 
L 45.3125 0 
L 45.3125 8.40625 
Q 42.046875 3.421875 37.71875 1 
Q 33.40625 -1.421875 27.6875 -1.421875 
Q 18.265625 -1.421875 13.375 4.4375 
Q 8.5 10.296875 8.5 21.578125 
z
M 31.109375 56 
z
" id="DejaVuSans-117"/>
      <path d="M 45.40625 46.390625 
L 45.40625 75.984375 
L 54.390625 75.984375 
L 54.390625 0 
L 45.40625 0 
L 45.40625 8.203125 
Q 42.578125 3.328125 38.25 0.953125 
Q 33.9375 -1.421875 27.875 -1.421875 
Q 17.96875 -1.421875 11.734375 6.484375 
Q 5.515625 14.40625 5.515625 27.296875 
Q 5.515625 40.1875 11.734375 48.09375 
Q 17.96875 56 27.875 56 
Q 33.9375 56 38.25 53.625 
Q 42.578125 51.265625 45.40625 46.390625 
z
M 14.796875 27.296875 
Q 14.796875 17.390625 18.875 11.75 
Q 22.953125 6.109375 30.078125 6.109375 
Q 37.203125 6.109375 41.296875 11.75 
Q 45.40625 17.390625 45.40625 27.296875 
Q 45.40625 37.203125 41.296875 42.84375 
Q 37.203125 48.484375 30.078125 48.484375 
Q 22.953125 48.484375 18.875 42.84375 
Q 14.796875 37.203125 14.796875 27.296875 
z
" id="DejaVuSans-100"/>
      <path d="M 54.890625 33.015625 
L 54.890625 0 
L 45.90625 0 
L 45.90625 32.71875 
Q 45.90625 40.484375 42.875 44.328125 
Q 39.84375 48.1875 33.796875 48.1875 
Q 26.515625 48.1875 22.3125 43.546875 
Q 18.109375 38.921875 18.109375 30.90625 
L 18.109375 0 
L 9.078125 0 
L 9.078125 54.6875 
L 18.109375 54.6875 
L 18.109375 46.1875 
Q 21.34375 51.125 25.703125 53.5625 
Q 30.078125 56 35.796875 56 
Q 45.21875 56 50.046875 50.171875 
Q 54.890625 44.34375 54.890625 33.015625 
z
" id="DejaVuSans-110"/>
      <path d="M 44.28125 53.078125 
L 44.28125 44.578125 
Q 40.484375 46.53125 36.375 47.5 
Q 32.28125 48.484375 27.875 48.484375 
Q 21.1875 48.484375 17.84375 46.4375 
Q 14.5 44.390625 14.5 40.28125 
Q 14.5 37.15625 16.890625 35.375 
Q 19.28125 33.59375 26.515625 31.984375 
L 29.59375 31.296875 
Q 39.15625 29.25 43.1875 25.515625 
Q 47.21875 21.78125 47.21875 15.09375 
Q 47.21875 7.46875 41.1875 3.015625 
Q 35.15625 -1.421875 24.609375 -1.421875 
Q 20.21875 -1.421875 15.453125 -0.5625 
Q 10.6875 0.296875 5.421875 2 
L 5.421875 11.28125 
Q 10.40625 8.6875 15.234375 7.390625 
Q 20.0625 6.109375 24.8125 6.109375 
Q 31.15625 6.109375 34.5625 8.28125 
Q 37.984375 10.453125 37.984375 14.40625 
Q 37.984375 18.0625 35.515625 20.015625 
Q 33.0625 21.96875 24.703125 23.78125 
L 21.578125 24.515625 
Q 13.234375 26.265625 9.515625 29.90625 
Q 5.8125 33.546875 5.8125 39.890625 
Q 5.8125 47.609375 11.28125 51.796875 
Q 16.75 56 26.8125 56 
Q 31.78125 56 36.171875 55.265625 
Q 40.578125 54.546875 44.28125 53.078125 
z
" id="DejaVuSans-115"/>
      <path id="DejaVuSans-32"/>
      <path d="M 44.390625 34.1875 
Q 47.5625 33.109375 50.5625 29.59375 
Q 53.5625 26.078125 56.59375 19.921875 
L 66.609375 0 
L 56 0 
L 46.6875 18.703125 
Q 43.0625 26.03125 39.671875 28.421875 
Q 36.28125 30.8125 30.421875 30.8125 
L 19.671875 30.8125 
L 19.671875 0 
L 9.8125 0 
L 9.8125 72.90625 
L 32.078125 72.90625 
Q 44.578125 72.90625 50.734375 67.671875 
Q 56.890625 62.453125 56.890625 51.90625 
Q 56.890625 45.015625 53.6875 40.46875 
Q 50.484375 35.9375 44.390625 34.1875 
z
M 19.671875 64.796875 
L 19.671875 38.921875 
L 32.078125 38.921875 
Q 39.203125 38.921875 42.84375 42.21875 
Q 46.484375 45.515625 46.484375 51.90625 
Q 46.484375 58.296875 42.84375 61.546875 
Q 39.203125 64.796875 32.078125 64.796875 
z
" id="DejaVuSans-82"/>
      <path d="M 45.40625 27.984375 
Q 45.40625 37.75 41.375 43.109375 
Q 37.359375 48.484375 30.078125 48.484375 
Q 22.859375 48.484375 18.828125 43.109375 
Q 14.796875 37.75 14.796875 27.984375 
Q 14.796875 18.265625 18.828125 12.890625 
Q 22.859375 7.515625 30.078125 7.515625 
Q 37.359375 7.515625 41.375 12.890625 
Q 45.40625 18.265625 45.40625 27.984375 
z
M 54.390625 6.78125 
Q 54.390625 -7.171875 48.1875 -13.984375 
Q 42 -20.796875 29.203125 -20.796875 
Q 24.46875 -20.796875 20.265625 -20.09375 
Q 16.0625 -19.390625 12.109375 -17.921875 
L 12.109375 -9.1875 
Q 16.0625 -11.328125 19.921875 -12.34375 
Q 23.78125 -13.375 27.78125 -13.375 
Q 36.625 -13.375 41.015625 -8.765625 
Q 45.40625 -4.15625 45.40625 5.171875 
L 45.40625 9.625 
Q 42.625 4.78125 38.28125 2.390625 
Q 33.9375 0 27.875 0 
Q 17.828125 0 11.671875 7.65625 
Q 5.515625 15.328125 5.515625 27.984375 
Q 5.515625 40.671875 11.671875 48.328125 
Q 17.828125 56 27.875 56 
Q 33.9375 56 38.28125 53.609375 
Q 42.625 51.21875 45.40625 46.390625 
L 45.40625 54.6875 
L 54.390625 54.6875 
z
" id="DejaVuSans-103"/>
      <path d="M 9.421875 54.6875 
L 18.40625 54.6875 
L 18.40625 0 
L 9.421875 0 
z
M 9.421875 75.984375 
L 18.40625 75.984375 
L 18.40625 64.59375 
L 9.421875 64.59375 
z
" id="DejaVuSans-105"/>
      <path d="M 41.109375 46.296875 
Q 39.59375 47.171875 37.8125 47.578125 
Q 36.03125 48 33.890625 48 
Q 26.265625 48 22.1875 43.046875 
Q 18.109375 38.09375 18.109375 28.8125 
L 18.109375 0 
L 9.078125 0 
L 9.078125 54.6875 
L 18.109375 54.6875 
L 18.109375 46.1875 
Q 20.953125 51.171875 25.484375 53.578125 
Q 30.03125 56 36.53125 56 
Q 37.453125 56 38.578125 55.875 
Q 39.703125 55.765625 41.0625 55.515625 
z
" id="DejaVuSans-114"/>
     </defs>
     <g transform="translate(17.745313 167.498979)rotate(-90)scale(0.1 -0.1)">
      <use xlink:href="#DejaVuSans-83"/>
      <use x="63.476562" xlink:href="#DejaVuSans-116"/>
      <use x="102.685547" xlink:href="#DejaVuSans-117"/>
      <use x="166.064453" xlink:href="#DejaVuSans-100"/>
      <use x="229.541016" xlink:href="#DejaVuSans-101"/>
      <use x="291.064453" xlink:href="#DejaVuSans-110"/>
      <use x="354.443359" xlink:href="#DejaVuSans-116"/>
      <use x="393.652344" xlink:href="#DejaVuSans-115"/>
      <use x="445.751953" xlink:href="#DejaVuSans-32"/>
      <use x="477.539062" xlink:href="#DejaVuSans-82"/>
      <use x="546.958984" xlink:href="#DejaVuSans-101"/>
      <use x="608.482422" xlink:href="#DejaVuSans-103"/>
      <use x="671.958984" xlink:href="#DejaVuSans-105"/>
      <use x="699.742188" xlink:href="#DejaVuSans-115"/>
      <use x="751.841797" xlink:href="#DejaVuSans-116"/>
      <use x="791.050781" xlink:href="#DejaVuSans-101"/>
      <use x="852.574219" xlink:href="#DejaVuSans-114"/>
      <use x="893.65625" xlink:href="#DejaVuSans-101"/>
      <use x="955.179688" xlink:href="#DejaVuSans-100"/>
     </g>
    </g>
   </g>
   <g id="line2d_18">
    <path clip-path="url(#p27419e6dde)" d="M 55.905 201.382519 
L 60.05387 201.382519 
L 60.05387 196.670456 
L 60.162144 196.670456 
L 62.79625 196.670456 
L 62.79625 191.958393 
L 62.904491 191.958393 
L 63.373574 191.958393 
L 63.373574 187.24633 
L 63.481808 187.24633 
L 66.404581 187.24633 
L 66.404581 177.822204 
L 66.512851 177.822204 
L 66.693269 177.822204 
L 66.693269 173.110142 
L 66.801526 173.110142 
L 66.981941 173.110142 
L 66.981941 168.398079 
L 67.09018 168.398079 
L 67.126272 168.398079 
L 67.126272 163.686016 
L 67.234536 163.686016 
L 70.445976 163.686016 
L 70.445976 158.973953 
L 70.554231 158.973953 
L 73.765668 158.973953 
L 73.765668 154.26189 
L 73.873915 154.26189 
L 80.116401 154.26189 
L 80.116401 144.837764 
L 80.224644 144.837764 
L 80.405064 144.837764 
L 80.405064 140.125701 
L 80.513307 140.125701 
L 81.126735 140.125701 
L 81.126735 135.413638 
L 81.234967 135.413638 
L 83.436072 135.413638 
L 83.436072 130.701575 
L 83.544319 130.701575 
L 84.157756 130.701575 
L 84.157756 125.989512 
L 84.266004 125.989512 
L 84.302091 125.989512 
L 84.302091 121.277449 
L 84.410341 121.277449 
L 84.446424 121.277449 
L 84.482503 107.14126 
L 84.554672 107.14126 
L 86.900092 107.14126 
L 86.900092 102.429197 
L 87.008341 102.429197 
L 87.044423 102.429197 
L 87.044423 93.005071 
L 87.152673 93.005071 
L 87.188756 93.005071 
L 87.188756 88.293008 
L 87.297015 88.293008 
L 87.333105 88.293008 
L 87.369187 74.156819 
L 87.441355 74.156819 
L 87.621769 74.156819 
L 87.621769 60.02063 
L 87.730038 60.02063 
L 87.766122 60.02063 
L 87.766122 50.596504 
L 87.874343 50.596504 
L 87.910436 50.596504 
L 87.910436 31.748252 
L 88.018707 31.748252 
L 88.054789 31.748252 
L 88.054789 27.036189 
L 88.163617 27.036189 
L 88.776468 27.036189 
L 88.776468 22.324126 
L 88.884723 22.324126 
L 128.468475 22.324126 
L 128.468475 27.036189 
L 128.576708 27.036189 
L 128.612808 27.036189 
L 128.612808 22.324126 
L 128.721056 22.324126 
L 128.901461 22.324126 
L 128.901461 27.036189 
L 129.009735 27.036189 
L 129.334448 27.036189 
L 129.334448 31.748252 
L 129.44273 31.748252 
L 129.623153 31.748252 
L 129.623153 36.460315 
L 129.731404 36.460315 
L 133.520157 36.460315 
L 133.520157 41.172378 
L 133.628427 41.172378 
L 142.035911 41.172378 
L 142.035911 36.460315 
L 142.144166 36.460315 
L 158.057024 36.460315 
L 158.057024 41.172378 
L 158.165289 41.172378 
L 163.686086 41.172378 
L 163.686086 36.460315 
L 163.794314 36.460315 
L 181.294921 36.460315 
L 181.294921 31.748252 
L 181.403167 31.748252 
L 183.604236 31.748252 
L 183.604236 27.036189 
L 183.712503 27.036189 
L 187.645621 27.036189 
L 187.645621 22.324126 
L 208.429804 22.324126 
L 208.429804 31.748252 
L 208.53803 31.748252 
L 208.862772 31.748252 
L 208.862772 36.460315 
L 208.971026 36.460315 
L 233.977003 36.460315 
L 233.977003 41.172378 
L 234.085256 41.172378 
L 239.173052 41.172378 
L 239.173052 36.460315 
L 239.281308 36.460315 
L 242.637089 36.460315 
L 242.637089 31.748252 
L 242.745336 31.748252 
L 243.647396 31.748252 
L 243.647396 27.036189 
L 243.755676 27.036189 
L 253.462181 27.036189 
L 253.462181 22.324126 
L 253.571718 22.324126 
L 272.225641 22.324126 
L 272.225641 27.036189 
L 272.333911 27.036189 
L 288.535446 27.036189 
L 288.535446 22.324126 
L 288.643697 22.324126 
L 303.005 22.324126 
L 303.005 22.324126 
" style="fill:none;stroke:#1b9e77;stroke-linecap:square;stroke-width:1.5;"/>
   </g>
   <g id="line2d_19">
    <path clip-path="url(#p27419e6dde)" d="M 55.905 210.806645 
L 56.057074 210.806645 
L 56.057074 201.382519 
L 56.166449 201.382519 
L 56.734191 201.382519 
L 56.734191 196.670456 
L 56.803926 196.670456 
L 60.05387 196.670456 
L 60.05387 191.958393 
L 60.162144 191.958393 
L 62.79625 191.958393 
L 62.79625 177.822204 
L 62.904491 177.822204 
L 62.94057 177.822204 
L 62.94057 173.110142 
L 63.048819 173.110142 
L 63.084904 173.110142 
L 63.084904 154.26189 
L 63.19332 154.26189 
L 63.229237 154.26189 
L 63.229237 149.549827 
L 63.337507 149.549827 
L 63.373574 149.549827 
L 63.373574 140.125701 
L 63.481808 140.125701 
L 63.51793 140.125701 
L 63.51793 125.989512 
L 63.626167 125.989512 
L 66.115936 125.989512 
L 66.115936 121.277449 
L 66.224168 121.277449 
L 66.260254 121.277449 
L 66.260254 116.565386 
L 66.368503 116.565386 
L 66.693269 116.565386 
L 66.693269 111.853323 
L 66.801526 111.853323 
L 66.981941 111.853323 
L 66.981941 97.717134 
L 67.09018 97.717134 
L 67.126272 97.717134 
L 67.126272 93.005071 
L 67.234536 93.005071 
L 70.012957 93.005071 
L 70.012957 88.293008 
L 70.121235 88.293008 
L 70.157287 88.293008 
L 70.157287 83.580945 
L 70.265569 83.580945 
L 70.445976 83.580945 
L 70.445976 78.868882 
L 70.554231 78.868882 
L 70.878971 78.868882 
L 70.878971 74.156819 
L 70.987228 74.156819 
L 73.332679 74.156819 
L 73.332679 69.444756 
L 73.440928 69.444756 
L 80.116401 69.444756 
L 80.116401 45.884441 
L 80.224644 45.884441 
L 80.260721 45.884441 
L 80.260721 36.460315 
L 80.368988 36.460315 
L 80.405064 36.460315 
L 80.405064 31.748252 
L 80.513307 31.748252 
L 129.045784 31.748252 
L 129.045784 36.460315 
L 129.154038 36.460315 
L 129.190113 36.460315 
L 129.190113 31.748252 
L 129.298364 31.748252 
L 136.984177 31.748252 
L 136.984177 36.460315 
L 137.092441 36.460315 
L 137.128522 36.460315 
L 137.128522 31.748252 
L 137.236792 31.748252 
L 208.429804 31.748252 
L 208.429804 22.324126 
L 208.53803 22.324126 
L 303.005 22.324126 
L 303.005 22.324126 
" style="fill:none;stroke:#d95f02;stroke-linecap:square;stroke-width:1.5;"/>
   </g>
   <g id="line2d_20">
    <path clip-path="url(#p27419e6dde)" d="M 86.034113 196.670456 
L 86.755753 196.670456 
L 86.755753 182.534267 
L 86.864005 182.534267 
L 86.900092 182.534267 
L 86.900092 177.822204 
L 87.008341 177.822204 
L 87.044423 177.822204 
L 87.044423 158.973953 
L 87.152673 158.973953 
L 87.333105 158.973953 
L 87.333105 144.837764 
L 87.441355 144.837764 
L 87.621769 144.837764 
L 87.621769 116.565386 
L 87.730038 116.565386 
L 87.910436 116.565386 
L 87.910436 107.14126 
L 88.018707 107.14126 
L 88.054789 107.14126 
L 88.054789 102.429197 
L 88.163617 102.429197 
L 88.199111 102.429197 
L 88.199111 97.717134 
L 88.307351 97.717134 
L 88.487804 97.717134 
L 88.487804 93.005071 
L 88.59603 93.005071 
L 90.508456 93.005071 
L 90.508456 74.156819 
L 90.616736 74.156819 
L 90.797135 74.156819 
L 90.797135 69.444756 
L 90.905386 69.444756 
L 91.085826 69.444756 
L 91.085826 60.02063 
L 91.19407 60.02063 
L 91.230161 60.02063 
L 91.230161 55.308567 
L 91.338403 55.308567 
L 91.518834 55.308567 
L 91.518834 50.596504 
L 91.627076 50.596504 
L 94.549847 50.596504 
L 94.549847 45.884441 
L 94.658094 45.884441 
L 94.694157 45.884441 
L 94.694157 41.172378 
L 94.80244 41.172378 
L 94.838499 41.172378 
L 94.838499 36.460315 
L 94.946743 36.460315 
L 95.271522 36.460315 
L 95.271522 31.748252 
L 95.379745 31.748252 
L 104.50891 31.748252 
L 104.50891 22.324126 
L 104.617157 22.324126 
L 122.262062 22.324126 
L 122.262062 27.036189 
L 122.370322 27.036189 
L 123.128068 27.036189 
L 123.128068 22.324126 
L 123.23631 22.324126 
L 135.68519 22.324126 
L 135.68519 27.036189 
L 135.793434 27.036189 
L 136.83986 27.036189 
L 136.83986 22.324126 
L 136.948104 22.324126 
L 230.224324 22.324126 
L 230.224324 27.036189 
L 230.332573 27.036189 
L 234.265682 27.036189 
L 234.265682 22.324126 
L 234.373933 22.324126 
L 263.709923 22.324126 
L 263.709923 27.036189 
L 263.818159 27.036189 
L 263.854266 27.036189 
L 263.854266 22.324126 
L 263.962485 22.324126 
L 264.287244 22.324126 
L 264.287244 27.036189 
L 264.395492 27.036189 
L 264.720249 27.036189 
L 264.720249 22.324126 
L 264.828515 22.324126 
L 271.792643 22.324126 
L 271.792643 27.036189 
L 271.900918 27.036189 
L 272.225641 27.036189 
L 272.225641 22.324126 
L 272.333911 22.324126 
L 282.762094 22.324126 
L 282.762094 27.036189 
L 282.870638 27.036189 
L 286.081787 27.036189 
L 286.081787 22.324126 
L 286.190031 22.324126 
L 303.005 22.324126 
L 303.005 22.324126 
" style="fill:none;stroke:#7570b3;stroke-linecap:square;stroke-width:1.5;"/>
   </g>
   <g id="line2d_21">
    <path clip-path="url(#p27419e6dde)" d="M 55.905 182.534267 
L 56.057074 182.534267 
L 56.057074 177.822204 
L 56.166449 177.822204 
L 56.803926 177.822204 
L 56.803926 173.110142 
L 59.113305 173.110142 
L 59.113305 168.398079 
L 59.332218 168.398079 
L 59.332218 163.686016 
L 59.440467 163.686016 
L 59.476544 163.686016 
L 59.476544 158.973953 
L 59.584796 158.973953 
L 59.909567 158.973953 
L 59.909567 144.837764 
L 60.017806 144.837764 
L 60.05387 144.837764 
L 60.05387 140.125701 
L 60.162144 140.125701 
L 62.94057 140.125701 
L 62.94057 130.701575 
L 63.048819 130.701575 
L 63.084904 130.701575 
L 63.084904 125.989512 
L 63.19332 125.989512 
L 63.229237 125.989512 
L 63.229237 130.701575 
L 63.337507 130.701575 
L 63.51793 130.701575 
L 63.51793 125.989512 
L 63.626167 125.989512 
L 63.662235 125.989512 
L 63.662235 116.565386 
L 63.770512 116.565386 
L 64.383925 116.565386 
L 64.383925 107.14126 
L 64.492173 107.14126 
L 65.971605 107.14126 
L 65.971605 102.429197 
L 66.079858 102.429197 
L 66.115936 102.429197 
L 66.115936 83.580945 
L 66.224168 83.580945 
L 66.260254 83.580945 
L 66.260254 74.156819 
L 66.368503 74.156819 
L 66.548939 74.156819 
L 66.548939 69.444756 
L 66.65719 69.444756 
L 66.693269 69.444756 
L 66.693269 64.732693 
L 66.801526 64.732693 
L 66.837607 64.732693 
L 66.837607 60.02063 
L 66.946533 60.02063 
L 66.981941 60.02063 
L 66.981941 45.884441 
L 67.09018 45.884441 
L 67.126272 45.884441 
L 67.126272 41.172378 
L 67.234536 41.172378 
L 67.270614 41.172378 
L 67.270614 36.460315 
L 67.378846 36.460315 
L 69.724282 36.460315 
L 69.724282 27.036189 
L 69.832552 27.036189 
L 69.868648 27.036189 
L 69.868648 22.324126 
L 69.976899 22.324126 
L 86.900092 22.324126 
L 86.900092 27.036189 
L 87.008341 27.036189 
L 87.044423 27.036189 
L 87.044423 22.324126 
L 87.152673 22.324126 
L 230.079966 22.324126 
L 230.079966 27.036189 
L 230.188199 27.036189 
L 230.224324 27.036189 
L 230.224324 22.324126 
L 230.332573 22.324126 
L 288.535446 22.324126 
L 288.535446 27.036189 
L 288.643697 27.036189 
L 288.679811 27.036189 
L 288.679811 22.324126 
L 288.788055 22.324126 
L 303.005 22.324126 
L 303.005 22.324126 
" style="fill:none;stroke:#e7298a;stroke-linecap:square;stroke-width:1.5;"/>
   </g>
   <g id="line2d_22">
    <path clip-path="url(#p27419e6dde)" d="M 55.905 201.382519 
L 59.76524 201.382519 
L 59.76524 196.670456 
L 59.873767 196.670456 
L 62.651921 196.670456 
L 62.651921 191.958393 
L 62.760168 191.958393 
L 62.79625 191.958393 
L 62.79625 187.24633 
L 62.904491 187.24633 
L 62.94057 187.24633 
L 62.94057 177.822204 
L 63.048819 177.822204 
L 63.084904 177.822204 
L 63.084904 173.110142 
L 63.19332 173.110142 
L 63.229237 173.110142 
L 63.229237 168.398079 
L 63.337507 168.398079 
L 63.373574 168.398079 
L 63.373574 163.686016 
L 63.481808 163.686016 
L 63.662235 163.686016 
L 63.662235 158.973953 
L 63.770512 158.973953 
L 66.115936 158.973953 
L 66.115936 149.549827 
L 66.224168 149.549827 
L 66.260254 149.549827 
L 66.260254 144.837764 
L 66.368503 144.837764 
L 66.837607 144.837764 
L 66.837607 140.125701 
L 66.946533 140.125701 
L 66.981941 140.125701 
L 66.981941 130.701575 
L 67.09018 130.701575 
L 80.116401 130.701575 
L 80.116401 125.989512 
L 80.224644 125.989512 
L 80.260721 125.989512 
L 80.260721 121.277449 
L 80.368988 121.277449 
L 80.405064 121.277449 
L 80.405064 116.565386 
L 80.513307 116.565386 
L 80.549383 116.565386 
L 80.549383 111.853323 
L 80.657618 111.853323 
L 80.693733 111.853323 
L 80.693733 102.429197 
L 80.801956 102.429197 
L 80.83807 102.429197 
L 80.83807 97.717134 
L 80.946305 97.717134 
L 83.436072 97.717134 
L 83.472158 83.580945 
L 83.544319 83.580945 
L 83.724748 83.580945 
L 83.724748 74.156819 
L 83.832992 74.156819 
L 84.157756 74.156819 
L 84.157756 69.444756 
L 84.266004 69.444756 
L 84.302091 69.444756 
L 84.302091 60.02063 
L 84.410341 60.02063 
L 84.446424 60.02063 
L 84.446424 36.460315 
L 84.554672 36.460315 
L 84.590737 36.460315 
L 84.590737 22.324126 
L 84.69901 22.324126 
L 86.755753 22.324126 
L 86.755753 27.036189 
L 86.864005 27.036189 
L 87.044423 27.036189 
L 87.044423 22.324126 
L 87.152673 22.324126 
L 121.973382 22.324126 
L 121.973382 27.036189 
L 122.081662 27.036189 
L 122.117747 27.036189 
L 122.117747 22.324126 
L 122.225976 22.324126 
L 128.468475 22.324126 
L 128.468475 27.036189 
L 128.576708 27.036189 
L 128.757104 27.036189 
L 128.757104 22.324126 
L 128.865401 22.324126 
L 129.045784 22.324126 
L 129.045784 27.036189 
L 129.154038 27.036189 
L 129.623153 27.036189 
L 129.623153 22.324126 
L 129.731404 22.324126 
L 303.005 22.324126 
L 303.005 22.324126 
" style="fill:none;stroke:#66a61e;stroke-linecap:square;stroke-width:1.5;"/>
   </g>
   <g id="line2d_23">
    <path clip-path="url(#p27419e6dde)" d="M 55.905 191.958393 
L 62.79625 191.958393 
L 62.79625 187.24633 
L 62.904491 187.24633 
L 63.51793 187.24633 
L 63.51793 182.534267 
L 63.626167 182.534267 
L 63.806589 182.534267 
L 63.806589 177.822204 
L 63.91483 177.822204 
L 66.548939 177.822204 
L 66.548939 173.110142 
L 66.65719 173.110142 
L 66.837607 173.110142 
L 66.837607 168.398079 
L 66.946533 168.398079 
L 69.724282 168.398079 
L 69.724282 163.686016 
L 69.832552 163.686016 
L 79.972046 163.686016 
L 79.972046 154.26189 
L 80.080297 154.26189 
L 80.116401 154.26189 
L 80.116401 144.837764 
L 80.224644 144.837764 
L 80.549383 144.837764 
L 80.549383 140.125701 
L 80.657618 140.125701 
L 81.126735 140.125701 
L 81.126735 135.413638 
L 81.234967 135.413638 
L 83.724748 135.413638 
L 83.724748 130.701575 
L 83.832992 130.701575 
L 84.013392 130.701575 
L 84.013392 121.277449 
L 84.121677 121.277449 
L 84.302091 121.277449 
L 84.302091 116.565386 
L 84.410341 116.565386 
L 85.1681 116.565386 
L 85.1681 111.853323 
L 85.276333 111.853323 
L 86.755753 111.853323 
L 86.755753 107.14126 
L 86.864005 107.14126 
L 87.044423 107.14126 
L 87.044423 102.429197 
L 87.152673 102.429197 
L 87.188756 102.429197 
L 87.188756 93.005071 
L 87.297015 93.005071 
L 87.477448 93.005071 
L 87.477448 88.293008 
L 87.58571 88.293008 
L 87.621769 88.293008 
L 87.657866 74.156819 
L 87.730038 74.156819 
L 87.766122 74.156819 
L 87.766122 64.732693 
L 87.874343 64.732693 
L 88.343437 64.732693 
L 88.343437 69.444756 
L 88.451721 69.444756 
L 90.508456 69.444756 
L 90.508456 60.02063 
L 90.616736 60.02063 
L 90.652826 60.02063 
L 90.652826 55.308567 
L 90.761039 55.308567 
L 90.941474 55.308567 
L 90.941474 50.596504 
L 91.049734 50.596504 
L 91.085826 50.596504 
L 91.085826 41.172378 
L 91.19407 41.172378 
L 91.230161 41.172378 
L 91.230161 36.460315 
L 91.338403 36.460315 
L 91.518834 36.460315 
L 91.518834 31.748252 
L 91.627076 31.748252 
L 210.01747 31.748252 
L 210.01747 36.460315 
L 210.12573 36.460315 
L 213.337146 36.460315 
L 213.337146 31.748252 
L 213.445407 31.748252 
L 303.005 31.748252 
L 303.005 31.748252 
" style="fill:none;stroke:#e6ab02;stroke-linecap:square;stroke-width:1.5;"/>
   </g>
   <g id="line2d_24">
    <path clip-path="url(#p27419e6dde)" d="M 55.905 196.670456 
L 59.76524 196.670456 
L 59.76524 191.958393 
L 59.873767 191.958393 
L 62.651921 191.958393 
L 62.651921 187.24633 
L 62.760168 187.24633 
L 62.79625 187.24633 
L 62.79625 182.534267 
L 62.904491 182.534267 
L 63.084904 182.534267 
L 63.084904 177.822204 
L 63.19332 177.822204 
L 63.229237 177.822204 
L 63.229237 173.110142 
L 63.337507 173.110142 
L 63.373574 173.110142 
L 63.373574 163.686016 
L 63.481808 163.686016 
L 63.51793 163.686016 
L 63.51793 158.973953 
L 63.626167 158.973953 
L 63.662235 158.973953 
L 63.662235 154.26189 
L 63.770512 154.26189 
L 65.971605 154.26189 
L 65.971605 149.549827 
L 66.079858 149.549827 
L 66.115936 149.549827 
L 66.115936 140.125701 
L 66.224168 140.125701 
L 66.404581 140.125701 
L 66.404581 135.413638 
L 66.512851 135.413638 
L 66.548939 135.413638 
L 66.548939 125.989512 
L 66.65719 125.989512 
L 66.837607 125.989512 
L 66.837607 121.277449 
L 66.946533 121.277449 
L 67.126272 121.277449 
L 67.126272 116.565386 
L 67.234536 116.565386 
L 67.270614 116.565386 
L 67.270614 111.853323 
L 67.378846 111.853323 
L 69.868648 111.853323 
L 69.868648 107.14126 
L 69.976899 107.14126 
L 70.445976 107.14126 
L 70.445976 102.429197 
L 70.554231 102.429197 
L 74.19865 102.429197 
L 74.19865 97.717134 
L 74.30691 97.717134 
L 79.972046 97.717134 
L 79.972046 93.005071 
L 80.080297 93.005071 
L 80.405064 93.005071 
L 80.405064 78.868882 
L 80.513307 78.868882 
L 80.549383 78.868882 
L 80.549383 69.444756 
L 80.657618 69.444756 
L 80.693733 69.444756 
L 80.693733 60.02063 
L 80.801956 60.02063 
L 81.126735 60.02063 
L 81.126735 55.308567 
L 81.234967 55.308567 
L 83.147409 55.308567 
L 83.147409 50.596504 
L 83.25567 50.596504 
L 83.580404 50.596504 
L 83.580404 45.884441 
L 83.688671 45.884441 
L 83.724748 45.884441 
L 83.724748 41.172378 
L 83.832992 41.172378 
L 83.869073 41.172378 
L 83.869073 36.460315 
L 83.977314 36.460315 
L 84.302091 36.460315 
L 84.302091 31.748252 
L 84.410341 31.748252 
L 303.005 31.748252 
L 303.005 31.748252 
" style="fill:none;stroke:#a6761d;stroke-linecap:square;stroke-width:1.5;"/>
   </g>
   <g id="line2d_25">
    <path clip-path="url(#p27419e6dde)" d="M 55.905 196.670456 
L 59.113305 196.670456 
L 59.113305 191.958393 
L 63.373574 191.958393 
L 63.373574 187.24633 
L 63.481808 187.24633 
L 66.260254 187.24633 
L 66.260254 182.534267 
L 66.368503 182.534267 
L 66.548939 182.534267 
L 66.548939 177.822204 
L 66.65719 177.822204 
L 66.981941 177.822204 
L 66.981941 173.110142 
L 67.09018 173.110142 
L 67.126272 173.110142 
L 67.126272 168.398079 
L 67.234536 168.398079 
L 67.992285 168.398079 
L 67.992285 163.686016 
L 68.100511 163.686016 
L 80.405064 163.686016 
L 80.405064 154.26189 
L 80.513307 154.26189 
L 83.724748 154.26189 
L 83.724748 149.549827 
L 83.832992 149.549827 
L 84.446424 149.549827 
L 84.446424 144.837764 
L 84.554672 144.837764 
L 84.87944 144.837764 
L 84.87944 140.125701 
L 84.987677 140.125701 
L 87.044423 140.125701 
L 87.044423 135.413638 
L 87.152673 135.413638 
L 87.188756 135.413638 
L 87.188756 125.989512 
L 87.297015 125.989512 
L 87.621769 125.989512 
L 87.621769 116.565386 
L 87.730038 116.565386 
L 90.797135 116.565386 
L 90.797135 111.853323 
L 90.905386 111.853323 
L 91.230161 111.853323 
L 91.230161 107.14126 
L 91.338403 107.14126 
L 91.663135 107.14126 
L 91.663135 102.429197 
L 91.77141 102.429197 
L 95.271522 102.429197 
L 95.271522 97.717134 
L 95.379745 97.717134 
L 105.230599 97.717134 
L 105.230599 93.005071 
L 105.338847 93.005071 
L 108.550283 93.005071 
L 108.550283 88.293008 
L 108.658535 88.293008 
L 112.303006 88.293008 
L 112.303006 93.005071 
L 112.411235 93.005071 
L 128.901461 93.005071 
L 128.901461 88.293008 
L 129.009735 88.293008 
L 129.045784 88.293008 
L 129.045784 93.005071 
L 129.154038 93.005071 
L 132.654162 93.005071 
L 132.654162 88.293008 
L 132.762403 88.293008 
L 158.057024 88.293008 
L 158.057024 83.580945 
L 158.165289 83.580945 
L 181.150556 83.580945 
L 181.150556 78.868882 
L 181.258811 78.868882 
L 188.511633 78.868882 
L 188.511633 83.580945 
L 188.619862 83.580945 
L 234.265682 83.580945 
L 234.265682 88.293008 
L 234.373933 88.293008 
L 235.997706 88.293008 
L 235.997706 93.005071 
L 236.105943 93.005071 
L 248.121807 93.005071 
L 248.121807 88.293008 
L 248.230037 88.293008 
L 250.142489 88.293008 
L 250.142489 83.580945 
L 250.250741 83.580945 
L 253.029151 83.580945 
L 253.029151 78.868882 
L 253.137414 78.868882 
L 257.070514 78.868882 
L 257.070514 83.580945 
L 257.178797 83.580945 
L 271.792643 83.580945 
L 271.792643 78.868882 
L 271.900918 78.868882 
L 303.005 78.868882 
L 303.005 78.868882 
" style="fill:none;stroke:#666666;stroke-linecap:square;stroke-width:1.5;"/>
   </g>
   <g id="line2d_26">
    <path clip-path="url(#p27419e6dde)" d="M 55.905 201.382519 
L 62.94057 201.382519 
L 62.94057 196.670456 
L 63.048819 196.670456 
L 63.373574 196.670456 
L 63.373574 191.958393 
L 63.481808 191.958393 
L 66.548939 191.958393 
L 66.548939 187.24633 
L 66.65719 187.24633 
L 66.837607 187.24633 
L 66.837607 191.958393 
L 66.946533 191.958393 
L 66.981941 191.958393 
L 66.981941 182.534267 
L 67.09018 182.534267 
L 80.116401 182.534267 
L 80.116401 177.822204 
L 80.224644 177.822204 
L 80.405064 177.822204 
L 80.405064 173.110142 
L 80.513307 173.110142 
L 80.693733 173.110142 
L 80.693733 168.398079 
L 80.801956 168.398079 
L 80.83807 168.398079 
L 80.83807 163.686016 
L 80.946305 163.686016 
L 81.559719 163.686016 
L 81.559719 158.973953 
L 81.667991 158.973953 
L 83.869073 158.973953 
L 83.869073 154.26189 
L 83.977314 154.26189 
L 84.302091 154.26189 
L 84.302091 149.549827 
L 84.410341 149.549827 
L 84.446424 149.549827 
L 84.446424 144.837764 
L 84.554672 144.837764 
L 86.900092 144.837764 
L 86.900092 135.413638 
L 87.008341 135.413638 
L 87.044423 135.413638 
L 87.044423 130.701575 
L 87.152673 130.701575 
L 87.188756 130.701575 
L 87.224843 116.565386 
L 87.297015 116.565386 
L 87.766122 116.565386 
L 87.766122 111.853323 
L 87.874343 111.853323 
L 87.910436 111.853323 
L 87.910436 107.14126 
L 88.018707 107.14126 
L 88.054789 107.14126 
L 88.054789 111.853323 
L 88.163617 111.853323 
L 88.199111 111.853323 
L 88.199111 107.14126 
L 88.307351 107.14126 
L 88.343437 107.14126 
L 88.343437 102.429197 
L 88.451721 102.429197 
L 90.075475 102.429197 
L 90.075475 107.14126 
L 90.183725 107.14126 
L 90.508456 107.14126 
L 90.508456 93.005071 
L 90.616736 93.005071 
L 90.797135 93.005071 
L 90.797135 88.293008 
L 90.905386 88.293008 
L 91.085826 88.293008 
L 91.085826 69.444756 
L 91.19407 69.444756 
L 91.230161 69.444756 
L 91.230161 64.732693 
L 91.338403 64.732693 
L 94.405493 64.732693 
L 94.405493 60.02063 
L 94.513752 60.02063 
L 106.09662 60.02063 
L 106.09662 55.308567 
L 106.20485 55.308567 
L 108.405966 55.308567 
L 108.405966 50.596504 
L 108.51422 50.596504 
L 108.550283 50.596504 
L 108.550283 55.308567 
L 108.658535 55.308567 
L 108.838954 55.308567 
L 108.838954 50.596504 
L 108.947203 50.596504 
L 112.303006 50.596504 
L 112.303006 45.884441 
L 112.411235 45.884441 
L 118.220687 45.884441 
L 118.220687 50.596504 
L 118.328955 50.596504 
L 122.262062 50.596504 
L 122.262062 45.884441 
L 122.370322 45.884441 
L 128.468475 45.884441 
L 128.468475 50.596504 
L 128.576708 50.596504 
L 128.757104 50.596504 
L 128.757104 55.308567 
L 128.865401 55.308567 
L 129.190113 55.308567 
L 129.190113 60.02063 
L 129.298364 60.02063 
L 133.231487 60.02063 
L 133.231487 64.732693 
L 133.33975 64.732693 
L 139.437863 64.732693 
L 139.437863 69.444756 
L 139.546123 69.444756 
L 153.87135 69.444756 
L 153.87135 74.156819 
L 153.979604 74.156819 
L 219.399215 74.156819 
L 219.399215 69.444756 
L 219.507461 69.444756 
L 223.296262 69.444756 
L 223.296262 74.156819 
L 223.404521 74.156819 
L 260.534566 74.156819 
L 260.534566 69.444756 
L 260.642805 69.444756 
L 263.854266 69.444756 
L 263.854266 74.156819 
L 263.962485 74.156819 
L 263.998589 74.156819 
L 263.998589 78.868882 
L 264.106821 78.868882 
L 266.740949 78.868882 
L 266.740949 83.580945 
L 266.849201 83.580945 
L 303.005 83.580945 
L 303.005 83.580945 
" style="fill:none;stroke:#1b9e77;stroke-dasharray:4.5,1.5;stroke-dashoffset:0;stroke-width:1.5;"/>
   </g>
   <g id="line2d_27">
    <path clip-path="url(#p27419e6dde)" d="M 55.905 210.806645 
L 60.198202 210.806645 
L 60.198202 206.094582 
L 60.306767 206.094582 
L 60.775568 206.094582 
L 60.775568 201.382519 
L 60.883795 201.382519 
L 69.868648 201.382519 
L 69.868648 196.670456 
L 69.976899 196.670456 
L 79.972046 196.670456 
L 79.972046 191.958393 
L 80.080297 191.958393 
L 80.982383 191.958393 
L 80.982383 182.534267 
L 81.090622 182.534267 
L 83.724748 182.534267 
L 83.724748 177.822204 
L 83.832992 177.822204 
L 83.869073 177.822204 
L 83.869073 173.110142 
L 83.977314 173.110142 
L 84.302091 173.110142 
L 84.302091 163.686016 
L 84.410341 163.686016 
L 84.446424 163.686016 
L 84.446424 158.973953 
L 84.554672 158.973953 
L 85.312408 158.973953 
L 85.312408 154.26189 
L 85.420692 154.26189 
L 87.044423 154.26189 
L 87.044423 158.973953 
L 87.152673 158.973953 
L 87.333105 158.973953 
L 87.333105 154.26189 
L 87.441355 154.26189 
L 87.477448 154.26189 
L 87.477448 149.549827 
L 87.58571 149.549827 
L 87.766122 149.549827 
L 87.766122 144.837764 
L 87.874343 144.837764 
L 87.910436 144.837764 
L 87.910436 149.549827 
L 88.018707 149.549827 
L 88.054789 149.549827 
L 88.054789 144.837764 
L 88.163617 144.837764 
L 90.508456 144.837764 
L 90.508456 140.125701 
L 90.616736 140.125701 
L 95.127186 140.125701 
L 95.127186 135.413638 
L 95.235437 135.413638 
L 104.797591 135.413638 
L 104.797591 130.701575 
L 104.905844 130.701575 
L 118.509364 130.701575 
L 118.509364 125.989512 
L 118.617645 125.989512 
L 135.68519 125.989512 
L 135.68519 121.277449 
L 135.793434 121.277449 
L 153.87135 121.277449 
L 153.87135 116.565386 
L 153.979604 116.565386 
L 187.645621 116.565386 
L 187.645621 111.853323 
L 201.501727 111.853323 
L 201.501727 107.14126 
L 201.609992 107.14126 
L 230.079966 107.14126 
L 230.079966 102.429197 
L 230.188199 102.429197 
L 234.121335 102.429197 
L 234.121335 97.717134 
L 234.229582 97.717134 
L 239.461703 97.717134 
L 239.461703 93.005071 
L 239.569984 93.005071 
L 261.400581 93.005071 
L 261.400581 88.293008 
L 261.508806 88.293008 
L 263.854266 88.293008 
L 263.854266 83.580945 
L 263.962485 83.580945 
L 264.720249 83.580945 
L 264.720249 88.293008 
L 264.828515 88.293008 
L 303.005 88.293008 
L 303.005 88.293008 
" style="fill:none;stroke:#d95f02;stroke-dasharray:4.5,1.5;stroke-dashoffset:0;stroke-width:1.5;"/>
   </g>
   <g id="line2d_28">
    <path clip-path="url(#p27419e6dde)" d="M 55.905 206.094582 
L 62.651921 206.094582 
L 62.651921 201.382519 
L 62.760168 201.382519 
L 62.79625 201.382519 
L 62.79625 196.670456 
L 62.904491 196.670456 
L 63.373574 196.670456 
L 63.373574 187.24633 
L 63.481808 187.24633 
L 66.115936 187.24633 
L 66.115936 182.534267 
L 66.224168 182.534267 
L 66.837607 182.534267 
L 66.837607 177.822204 
L 66.946533 177.822204 
L 66.981941 177.822204 
L 66.981941 173.110142 
L 67.09018 173.110142 
L 67.126272 173.110142 
L 67.126272 168.398079 
L 67.234536 168.398079 
L 80.260721 168.398079 
L 80.260721 163.686016 
L 80.368988 163.686016 
L 80.405064 163.686016 
L 80.405064 158.973953 
L 80.513307 158.973953 
L 80.549383 158.973953 
L 80.549383 149.549827 
L 80.657618 149.549827 
L 84.157756 149.549827 
L 84.157756 144.837764 
L 84.266004 144.837764 
L 84.302091 144.837764 
L 84.302091 140.125701 
L 84.410341 140.125701 
L 86.755753 140.125701 
L 86.755753 144.837764 
L 86.864005 144.837764 
L 87.188756 144.837764 
L 87.188756 135.413638 
L 87.297015 135.413638 
L 87.333105 135.413638 
L 87.333105 140.125701 
L 87.441355 140.125701 
L 87.477448 140.125701 
L 87.477448 135.413638 
L 87.58571 135.413638 
L 87.766122 135.413638 
L 87.766122 125.989512 
L 87.874343 125.989512 
L 87.910436 125.989512 
L 87.910436 121.277449 
L 88.018707 121.277449 
L 94.694157 121.277449 
L 94.694157 116.565386 
L 94.80244 116.565386 
L 95.127186 116.565386 
L 95.127186 111.853323 
L 95.235437 111.853323 
L 102.055223 111.853323 
L 102.055223 107.14126 
L 102.1635 107.14126 
L 115.189667 107.14126 
L 115.189667 102.429197 
L 115.29793 102.429197 
L 115.767005 102.429197 
L 115.767005 97.717134 
L 115.875245 97.717134 
L 118.653718 97.717134 
L 118.653718 93.005071 
L 118.76198 93.005071 
L 130.056154 93.005071 
L 130.056154 88.293008 
L 130.164383 88.293008 
L 216.079501 88.293008 
L 216.079501 93.005071 
L 216.18778 93.005071 
L 219.399215 93.005071 
L 219.399215 97.717134 
L 219.507461 97.717134 
L 249.998146 97.717134 
L 249.998146 93.005071 
L 250.106375 93.005071 
L 250.575465 93.005071 
L 250.575465 88.293008 
L 250.683717 88.293008 
L 303.005 88.293008 
L 303.005 88.293008 
" style="fill:none;stroke:#7570b3;stroke-dasharray:4.5,1.5;stroke-dashoffset:0;stroke-width:1.5;"/>
   </g>
   <g id="line2d_29">
    <path clip-path="url(#p27419e6dde)" d="M 120.710465 210.806645 
L 121.973382 210.806645 
L 121.973382 206.094582 
L 122.081662 206.094582 
L 126.303449 206.094582 
L 126.303449 201.382519 
L 126.411681 201.382519 
L 128.468475 201.382519 
L 128.468475 182.534267 
L 128.576708 182.534267 
L 128.757104 182.534267 
L 128.757104 173.110142 
L 128.865401 173.110142 
L 129.045784 173.110142 
L 129.045784 158.973953 
L 129.154038 158.973953 
L 129.334448 158.973953 
L 129.334448 154.26189 
L 129.44273 154.26189 
L 132.221169 154.26189 
L 132.221169 149.549827 
L 132.329416 149.549827 
L 132.942833 149.549827 
L 132.942833 144.837764 
L 133.051054 144.837764 
L 133.231487 144.837764 
L 133.231487 140.125701 
L 133.33975 140.125701 
L 133.520157 140.125701 
L 133.520157 135.413638 
L 133.628427 135.413638 
L 133.664497 135.413638 
L 133.664497 130.701575 
L 133.772746 130.701575 
L 135.68519 130.701575 
L 135.68519 125.989512 
L 135.793434 125.989512 
L 136.984177 125.989512 
L 136.984177 121.277449 
L 137.092441 121.277449 
L 139.437863 121.277449 
L 139.437863 116.565386 
L 139.546123 116.565386 
L 183.604236 116.565386 
L 183.604236 121.277449 
L 183.712503 121.277449 
L 184.3259 121.277449 
L 184.3259 116.565386 
L 184.434155 116.565386 
L 208.574131 116.565386 
L 208.574131 111.853323 
L 208.68238 111.853323 
L 208.862772 111.853323 
L 208.862772 107.14126 
L 208.971026 107.14126 
L 210.01747 107.14126 
L 210.01747 102.429197 
L 210.12573 102.429197 
L 229.646956 102.429197 
L 229.646956 97.717134 
L 229.755226 97.717134 
L 303.005 97.717134 
L 303.005 97.717134 
" style="fill:none;stroke:#e7298a;stroke-dasharray:4.5,1.5;stroke-dashoffset:0;stroke-width:1.5;"/>
   </g>
   <g id="line2d_30">
    <path clip-path="url(#p27419e6dde)" d="M 55.905 206.094582 
L 62.94057 206.094582 
L 62.94057 201.382519 
L 63.048819 201.382519 
L 66.837607 201.382519 
L 66.837607 191.958393 
L 66.946533 191.958393 
L 79.972046 191.958393 
L 79.972046 187.24633 
L 80.080297 187.24633 
L 80.260721 187.24633 
L 80.260721 182.534267 
L 80.368988 182.534267 
L 80.693733 182.534267 
L 80.693733 177.822204 
L 80.801956 177.822204 
L 83.436072 177.822204 
L 83.436072 173.110142 
L 83.544319 173.110142 
L 83.580404 173.110142 
L 83.580404 163.686016 
L 83.688671 163.686016 
L 83.724748 163.686016 
L 83.724748 158.973953 
L 83.832992 158.973953 
L 84.013392 158.973953 
L 84.013392 154.26189 
L 84.121677 154.26189 
L 84.157756 154.26189 
L 84.157756 144.837764 
L 84.266004 144.837764 
L 84.302091 144.837764 
L 84.302091 135.413638 
L 84.410341 135.413638 
L 84.87944 135.413638 
L 84.87944 130.701575 
L 84.987677 130.701575 
L 85.1681 130.701575 
L 85.1681 125.989512 
L 85.276333 125.989512 
L 85.312408 125.989512 
L 85.312408 130.701575 
L 85.420692 130.701575 
L 86.611434 130.701575 
L 86.611434 135.413638 
L 86.719706 135.413638 
L 86.755753 135.413638 
L 86.755753 140.125701 
L 86.864005 140.125701 
L 86.900092 140.125701 
L 86.900092 135.413638 
L 87.008341 135.413638 
L 87.044423 135.413638 
L 87.044423 140.125701 
L 87.152673 140.125701 
L 87.188756 140.125701 
L 87.188756 135.413638 
L 87.297015 135.413638 
L 87.333105 135.413638 
L 87.333105 130.701575 
L 87.441355 130.701575 
L 87.621769 130.701575 
L 87.621769 135.413638 
L 87.730038 135.413638 
L 90.941474 135.413638 
L 90.941474 130.701575 
L 91.049734 130.701575 
L 91.230161 130.701575 
L 91.230161 125.989512 
L 91.338403 125.989512 
L 94.549847 125.989512 
L 94.549847 121.277449 
L 94.658094 121.277449 
L 95.560177 121.277449 
L 95.560177 116.565386 
L 95.668427 116.565386 
L 104.797591 116.565386 
L 104.797591 111.853323 
L 104.905844 111.853323 
L 104.941923 111.853323 
L 104.941923 107.14126 
L 105.050162 107.14126 
L 105.519247 107.14126 
L 105.519247 102.429197 
L 105.627511 102.429197 
L 112.303006 102.429197 
L 112.303006 97.717134 
L 112.411235 97.717134 
L 112.735972 97.717134 
L 112.735972 93.005071 
L 112.844244 93.005071 
L 119.952723 93.005071 
L 119.952723 88.293008 
L 120.060954 88.293008 
L 123.128068 88.293008 
L 123.128068 93.005071 
L 123.23631 93.005071 
L 128.757104 93.005071 
L 128.757104 97.717134 
L 128.865401 97.717134 
L 153.582674 97.717134 
L 153.582674 93.005071 
L 153.690902 93.005071 
L 177.975225 93.005071 
L 177.975225 88.293008 
L 178.083442 88.293008 
L 180.717572 88.293008 
L 180.717572 83.580945 
L 180.825817 83.580945 
L 190.67664 83.580945 
L 190.67664 78.868882 
L 190.785501 78.868882 
L 211.749509 78.868882 
L 211.749509 83.580945 
L 211.857751 83.580945 
L 211.893807 83.580945 
L 211.893807 78.868882 
L 212.002082 78.868882 
L 240.905061 78.868882 
L 240.905061 83.580945 
L 241.013311 83.580945 
L 247.544454 83.580945 
L 247.544454 88.293008 
L 247.65271 88.293008 
L 258.369669 88.293008 
L 258.369669 93.005071 
L 258.477791 93.005071 
L 279.153723 93.005071 
L 279.153723 97.717134 
L 279.262719 97.717134 
L 303.005 97.717134 
L 303.005 97.717134 
" style="fill:none;stroke:#66a61e;stroke-dasharray:4.5,1.5;stroke-dashoffset:0;stroke-width:1.5;"/>
   </g>
   <g id="line2d_31">
    <path clip-path="url(#p27419e6dde)" d="M 55.905 210.806645 
L 59.621017 210.806645 
L 59.621017 206.094582 
L 59.729126 206.094582 
L 59.909567 206.094582 
L 59.909567 201.382519 
L 60.017806 201.382519 
L 63.229237 201.382519 
L 63.229237 196.670456 
L 63.337507 196.670456 
L 66.981941 196.670456 
L 66.981941 191.958393 
L 67.09018 191.958393 
L 69.291299 191.958393 
L 69.291299 187.24633 
L 69.399549 187.24633 
L 70.012957 187.24633 
L 70.012957 182.534267 
L 70.121235 182.534267 
L 70.301639 182.534267 
L 70.301639 177.822204 
L 70.409893 177.822204 
L 79.972046 177.822204 
L 79.972046 168.398079 
L 80.080297 168.398079 
L 80.260721 168.398079 
L 80.260721 163.686016 
L 80.368988 163.686016 
L 80.405064 163.686016 
L 80.405064 158.973953 
L 80.513307 158.973953 
L 80.549383 158.973953 
L 80.549383 154.26189 
L 80.657618 154.26189 
L 80.693733 154.26189 
L 80.693733 144.837764 
L 80.801956 144.837764 
L 80.83807 144.837764 
L 80.83807 140.125701 
L 80.946305 140.125701 
L 81.126735 140.125701 
L 81.126735 135.413638 
L 81.234967 135.413638 
L 81.415417 135.413638 
L 81.415417 130.701575 
L 81.523642 130.701575 
L 81.848381 130.701575 
L 81.848381 125.989512 
L 81.956653 125.989512 
L 83.436072 125.989512 
L 83.436072 121.277449 
L 83.544319 121.277449 
L 83.580404 121.277449 
L 83.580404 116.565386 
L 83.688671 116.565386 
L 83.724748 116.565386 
L 83.724748 102.429197 
L 83.832992 102.429197 
L 83.869073 102.429197 
L 83.869073 97.717134 
L 83.977314 97.717134 
L 84.013392 97.717134 
L 84.013392 93.005071 
L 84.121677 93.005071 
L 85.312408 93.005071 
L 85.312408 97.717134 
L 85.420692 97.717134 
L 87.188756 97.717134 
L 87.188756 93.005071 
L 87.297015 93.005071 
L 87.333105 93.005071 
L 87.333105 97.717134 
L 87.441355 97.717134 
L 87.477448 97.717134 
L 87.477448 93.005071 
L 87.58571 93.005071 
L 91.518834 93.005071 
L 91.518834 97.717134 
L 91.627076 97.717134 
L 91.663135 97.717134 
L 91.663135 93.005071 
L 91.77141 93.005071 
L 229.791319 93.005071 
L 229.791319 97.717134 
L 229.899549 97.717134 
L 240.905061 97.717134 
L 240.905061 93.005071 
L 241.013311 93.005071 
L 278.576362 93.005071 
L 278.576362 97.717134 
L 278.684612 97.717134 
L 282.762094 97.717134 
L 282.762094 93.005071 
L 282.870638 93.005071 
L 288.679811 93.005071 
L 288.679811 97.717134 
L 288.788055 97.717134 
L 303.005 97.717134 
L 303.005 97.717134 
" style="fill:none;stroke:#e6ab02;stroke-dasharray:4.5,1.5;stroke-dashoffset:0;stroke-width:1.5;"/>
   </g>
   <g id="line2d_32">
    <path clip-path="url(#p27419e6dde)" d="M 55.905 206.094582 
L 63.084904 206.094582 
L 63.084904 196.670456 
L 63.19332 196.670456 
L 66.260254 196.670456 
L 66.260254 187.24633 
L 66.368503 187.24633 
L 66.404581 187.24633 
L 66.404581 182.534267 
L 66.512851 182.534267 
L 66.981941 182.534267 
L 66.981941 177.822204 
L 67.09018 177.822204 
L 67.126272 177.822204 
L 67.126272 173.110142 
L 67.234536 173.110142 
L 80.549383 173.110142 
L 80.549383 168.398079 
L 80.657618 168.398079 
L 80.693733 168.398079 
L 80.693733 163.686016 
L 80.801956 163.686016 
L 80.83807 163.686016 
L 80.83807 158.973953 
L 80.946305 158.973953 
L 81.271041 158.973953 
L 81.271041 154.26189 
L 81.379316 154.26189 
L 81.415417 154.26189 
L 81.415417 158.973953 
L 81.523642 158.973953 
L 83.436072 158.973953 
L 83.436072 140.125701 
L 83.544319 140.125701 
L 83.724748 140.125701 
L 83.724748 130.701575 
L 83.832992 130.701575 
L 83.869073 130.701575 
L 83.869073 125.989512 
L 83.977314 125.989512 
L 84.013392 125.989512 
L 84.013392 116.565386 
L 84.121677 116.565386 
L 303.005 116.565386 
L 303.005 116.565386 
" style="fill:none;stroke:#a6761d;stroke-dasharray:4.5,1.5;stroke-dashoffset:0;stroke-width:1.5;"/>
   </g>
   <g id="line2d_33">
    <path clip-path="url(#p27419e6dde)" d="M 55.905 210.806645 
L 63.373574 210.806645 
L 63.373574 206.094582 
L 63.481808 206.094582 
L 63.51793 206.094582 
L 63.51793 201.382519 
L 63.626167 201.382519 
L 66.404581 201.382519 
L 66.404581 196.670456 
L 66.512851 196.670456 
L 67.126272 196.670456 
L 67.126272 191.958393 
L 67.234536 191.958393 
L 67.414941 191.958393 
L 67.414941 187.24633 
L 67.523326 187.24633 
L 67.703625 187.24633 
L 67.703625 182.534267 
L 67.811878 182.534267 
L 69.868648 182.534267 
L 69.868648 187.24633 
L 69.976899 187.24633 
L 80.116401 187.24633 
L 80.116401 182.534267 
L 80.224644 182.534267 
L 80.982383 182.534267 
L 80.982383 173.110142 
L 81.090622 173.110142 
L 83.580404 173.110142 
L 83.580404 168.398079 
L 83.688671 168.398079 
L 84.157756 168.398079 
L 84.157756 149.549827 
L 84.266004 149.549827 
L 84.302091 149.549827 
L 84.302091 144.837764 
L 84.410341 144.837764 
L 84.446424 144.837764 
L 84.446424 140.125701 
L 84.554672 140.125701 
L 128.757104 140.125701 
L 128.757104 144.837764 
L 128.865401 144.837764 
L 128.901461 144.837764 
L 128.901461 140.125701 
L 129.009735 140.125701 
L 216.079501 140.125701 
L 216.079501 135.413638 
L 216.18778 135.413638 
L 223.296262 135.413638 
L 223.296262 130.701575 
L 223.404521 130.701575 
L 233.977003 130.701575 
L 233.977003 125.989512 
L 234.085256 125.989512 
L 235.997706 125.989512 
L 235.997706 121.277449 
L 236.105943 121.277449 
L 236.575039 121.277449 
L 236.575039 116.565386 
L 236.683259 116.565386 
L 260.534566 116.565386 
L 260.534566 121.277449 
L 260.642805 121.277449 
L 263.998589 121.277449 
L 263.998589 116.565386 
L 264.106821 116.565386 
L 303.005 116.565386 
L 303.005 116.565386 
" style="fill:none;stroke:#666666;stroke-dasharray:4.5,1.5;stroke-dashoffset:0;stroke-width:1.5;"/>
   </g>
   <g id="line2d_34"/>
   <g id="line2d_35"/>
   <g id="line2d_36"/>
   <g id="line2d_37"/>
   <g id="line2d_38"/>
   <g id="line2d_39"/>
   <g id="line2d_40"/>
   <g id="line2d_41"/>
   <g id="line2d_42"/>
   <g id="line2d_43"/>
   <g id="line2d_44"/>
   <g id="line2d_45"/>
   <g id="line2d_46"/>
   <g id="line2d_47"/>
   <g id="line2d_48"/>
   <g id="line2d_49"/>
   <g id="line2d_50"/>
   <g id="patch_3">
    <path d="M 43.55 220.230771 
L 43.55 12.9 
" style="fill:none;stroke:#000000;stroke-linecap:square;stroke-linejoin:miter;stroke-width:0.8;"/>
   </g>
   <g id="patch_4">
    <path d="M 315.36 220.230771 
L 315.36 12.9 
" style="fill:none;stroke:#000000;stroke-linecap:square;stroke-linejoin:miter;stroke-width:0.8;"/>
   </g>
   <g id="patch_5">
    <path d="M 43.55 220.230771 
L 315.36 220.230771 
" style="fill:none;stroke:#000000;stroke-linecap:square;stroke-linejoin:miter;stroke-width:0.8;"/>
   </g>
   <g id="patch_6">
    <path d="M 43.55 12.9 
L 315.36 12.9 
" style="fill:none;stroke:#000000;stroke-linecap:square;stroke-linejoin:miter;stroke-width:0.8;"/>
   </g>
  </g>
  <g id="legend_1">
   <g id="patch_7">
    <path d="M 331.8625 262.528125 
L 420 262.528125 
Q 422 262.528125 422 260.528125 
L 422 12 
Q 422 10 420 10 
L 331.8625 10 
Q 329.8625 10 329.8625 12 
L 329.8625 260.528125 
Q 329.8625 262.528125 331.8625 262.528125 
z
" style="fill:#ffffff;opacity:0.8;stroke:#cccccc;stroke-linejoin:miter;"/>
   </g>
   <g id="text_20">
    <!-- 495/610 Reg. -->
    <defs>
     <path d="M 25.390625 72.90625 
L 33.6875 72.90625 
L 8.296875 -9.28125 
L 0 -9.28125 
z
" id="DejaVuSans-47"/>
     <path d="M 33.015625 40.375 
Q 26.375 40.375 22.484375 35.828125 
Q 18.609375 31.296875 18.609375 23.390625 
Q 18.609375 15.53125 22.484375 10.953125 
Q 26.375 6.390625 33.015625 6.390625 
Q 39.65625 6.390625 43.53125 10.953125 
Q 47.40625 15.53125 47.40625 23.390625 
Q 47.40625 31.296875 43.53125 35.828125 
Q 39.65625 40.375 33.015625 40.375 
z
M 52.59375 71.296875 
L 52.59375 62.3125 
Q 48.875 64.0625 45.09375 64.984375 
Q 41.3125 65.921875 37.59375 65.921875 
Q 27.828125 65.921875 22.671875 59.328125 
Q 17.53125 52.734375 16.796875 39.40625 
Q 19.671875 43.65625 24.015625 45.921875 
Q 28.375 48.1875 33.59375 48.1875 
Q 44.578125 48.1875 50.953125 41.515625 
Q 57.328125 34.859375 57.328125 23.390625 
Q 57.328125 12.15625 50.6875 5.359375 
Q 44.046875 -1.421875 33.015625 -1.421875 
Q 20.359375 -1.421875 13.671875 8.265625 
Q 6.984375 17.96875 6.984375 36.375 
Q 6.984375 53.65625 15.1875 63.9375 
Q 23.390625 74.21875 37.203125 74.21875 
Q 40.921875 74.21875 44.703125 73.484375 
Q 48.484375 72.75 52.59375 71.296875 
z
" id="DejaVuSans-54"/>
     <path d="M 10.6875 12.40625 
L 21 12.40625 
L 21 0 
L 10.6875 0 
z
" id="DejaVuSans-46"/>
    </defs>
    <g transform="translate(342.259375 21.598437)scale(0.1 -0.1)">
     <use xlink:href="#DejaVuSans-52"/>
     <use x="63.623047" xlink:href="#DejaVuSans-57"/>
     <use x="127.246094" xlink:href="#DejaVuSans-53"/>
     <use x="190.869141" xlink:href="#DejaVuSans-47"/>
     <use x="224.560547" xlink:href="#DejaVuSans-54"/>
     <use x="288.183594" xlink:href="#DejaVuSans-49"/>
     <use x="351.806641" xlink:href="#DejaVuSans-48"/>
     <use x="415.429688" xlink:href="#DejaVuSans-32"/>
     <use x="447.216797" xlink:href="#DejaVuSans-82"/>
     <use x="516.636719" xlink:href="#DejaVuSans-101"/>
     <use x="578.160156" xlink:href="#DejaVuSans-103"/>
     <use x="641.636719" xlink:href="#DejaVuSans-46"/>
    </g>
   </g>
   <g id="line2d_51">
    <path d="M 333.8625 32.776562 
L 353.8625 32.776562 
" style="fill:none;stroke:#1b9e77;stroke-linecap:square;stroke-width:1.5;"/>
   </g>
   <g id="line2d_52"/>
   <g id="text_21">
    <!-- SA (40) -->
    <defs>
     <path d="M 34.1875 63.1875 
L 20.796875 26.90625 
L 47.609375 26.90625 
z
M 28.609375 72.90625 
L 39.796875 72.90625 
L 67.578125 0 
L 57.328125 0 
L 50.6875 18.703125 
L 17.828125 18.703125 
L 11.1875 0 
L 0.78125 0 
z
" id="DejaVuSans-65"/>
     <path d="M 31 75.875 
Q 24.46875 64.65625 21.28125 53.65625 
Q 18.109375 42.671875 18.109375 31.390625 
Q 18.109375 20.125 21.3125 9.0625 
Q 24.515625 -2 31 -13.1875 
L 23.1875 -13.1875 
Q 15.875 -1.703125 12.234375 9.375 
Q 8.59375 20.453125 8.59375 31.390625 
Q 8.59375 42.28125 12.203125 53.3125 
Q 15.828125 64.359375 23.1875 75.875 
z
" id="DejaVuSans-40"/>
     <path d="M 8.015625 75.875 
L 15.828125 75.875 
Q 23.140625 64.359375 26.78125 53.3125 
Q 30.421875 42.28125 30.421875 31.390625 
Q 30.421875 20.453125 26.78125 9.375 
Q 23.140625 -1.703125 15.828125 -13.1875 
L 8.015625 -13.1875 
Q 14.5 -2 17.703125 9.0625 
Q 20.90625 20.125 20.90625 31.390625 
Q 20.90625 42.671875 17.703125 53.65625 
Q 14.5 64.65625 8.015625 75.875 
z
" id="DejaVuSans-41"/>
    </defs>
    <g transform="translate(361.8625 36.276562)scale(0.1 -0.1)">
     <use xlink:href="#DejaVuSans-83"/>
     <use x="63.492188" xlink:href="#DejaVuSans-65"/>
     <use x="131.900391" xlink:href="#DejaVuSans-32"/>
     <use x="163.6875" xlink:href="#DejaVuSans-40"/>
     <use x="202.701172" xlink:href="#DejaVuSans-52"/>
     <use x="266.324219" xlink:href="#DejaVuSans-48"/>
     <use x="329.947266" xlink:href="#DejaVuSans-41"/>
    </g>
   </g>
   <g id="line2d_53">
    <path d="M 333.8625 47.454688 
L 353.8625 47.454688 
" style="fill:none;stroke:#d95f02;stroke-linecap:square;stroke-width:1.5;"/>
   </g>
   <g id="line2d_54"/>
   <g id="text_22">
    <!-- AS (40) -->
    <g transform="translate(361.8625 50.954688)scale(0.1 -0.1)">
     <use xlink:href="#DejaVuSans-65"/>
     <use x="68.408203" xlink:href="#DejaVuSans-83"/>
     <use x="131.884766" xlink:href="#DejaVuSans-32"/>
     <use x="163.671875" xlink:href="#DejaVuSans-40"/>
     <use x="202.685547" xlink:href="#DejaVuSans-52"/>
     <use x="266.308594" xlink:href="#DejaVuSans-48"/>
     <use x="329.931641" xlink:href="#DejaVuSans-41"/>
    </g>
   </g>
   <g id="line2d_55">
    <path d="M 333.8625 62.132812 
L 353.8625 62.132812 
" style="fill:none;stroke:#7570b3;stroke-linecap:square;stroke-width:1.5;"/>
   </g>
   <g id="line2d_56"/>
   <g id="text_23">
    <!-- AUS (40) -->
    <defs>
     <path d="M 8.6875 72.90625 
L 18.609375 72.90625 
L 18.609375 28.609375 
Q 18.609375 16.890625 22.84375 11.734375 
Q 27.09375 6.59375 36.625 6.59375 
Q 46.09375 6.59375 50.34375 11.734375 
Q 54.59375 16.890625 54.59375 28.609375 
L 54.59375 72.90625 
L 64.5 72.90625 
L 64.5 27.390625 
Q 64.5 13.140625 57.4375 5.859375 
Q 50.390625 -1.421875 36.625 -1.421875 
Q 22.796875 -1.421875 15.734375 5.859375 
Q 8.6875 13.140625 8.6875 27.390625 
z
" id="DejaVuSans-85"/>
    </defs>
    <g transform="translate(361.8625 65.632812)scale(0.1 -0.1)">
     <use xlink:href="#DejaVuSans-65"/>
     <use x="68.408203" xlink:href="#DejaVuSans-85"/>
     <use x="141.601562" xlink:href="#DejaVuSans-83"/>
     <use x="205.078125" xlink:href="#DejaVuSans-32"/>
     <use x="236.865234" xlink:href="#DejaVuSans-40"/>
     <use x="275.878906" xlink:href="#DejaVuSans-52"/>
     <use x="339.501953" xlink:href="#DejaVuSans-48"/>
     <use x="403.125" xlink:href="#DejaVuSans-41"/>
    </g>
   </g>
   <g id="line2d_57">
    <path d="M 333.8625 76.810937 
L 353.8625 76.810937 
" style="fill:none;stroke:#e7298a;stroke-linecap:square;stroke-width:1.5;"/>
   </g>
   <g id="line2d_58"/>
   <g id="text_24">
    <!-- COML (40) -->
    <defs>
     <path d="M 64.40625 67.28125 
L 64.40625 56.890625 
Q 59.421875 61.53125 53.78125 63.8125 
Q 48.140625 66.109375 41.796875 66.109375 
Q 29.296875 66.109375 22.65625 58.46875 
Q 16.015625 50.828125 16.015625 36.375 
Q 16.015625 21.96875 22.65625 14.328125 
Q 29.296875 6.6875 41.796875 6.6875 
Q 48.140625 6.6875 53.78125 8.984375 
Q 59.421875 11.28125 64.40625 15.921875 
L 64.40625 5.609375 
Q 59.234375 2.09375 53.4375 0.328125 
Q 47.65625 -1.421875 41.21875 -1.421875 
Q 24.65625 -1.421875 15.125 8.703125 
Q 5.609375 18.84375 5.609375 36.375 
Q 5.609375 53.953125 15.125 64.078125 
Q 24.65625 74.21875 41.21875 74.21875 
Q 47.75 74.21875 53.53125 72.484375 
Q 59.328125 70.75 64.40625 67.28125 
z
" id="DejaVuSans-67"/>
     <path d="M 39.40625 66.21875 
Q 28.65625 66.21875 22.328125 58.203125 
Q 16.015625 50.203125 16.015625 36.375 
Q 16.015625 22.609375 22.328125 14.59375 
Q 28.65625 6.59375 39.40625 6.59375 
Q 50.140625 6.59375 56.421875 14.59375 
Q 62.703125 22.609375 62.703125 36.375 
Q 62.703125 50.203125 56.421875 58.203125 
Q 50.140625 66.21875 39.40625 66.21875 
z
M 39.40625 74.21875 
Q 54.734375 74.21875 63.90625 63.9375 
Q 73.09375 53.65625 73.09375 36.375 
Q 73.09375 19.140625 63.90625 8.859375 
Q 54.734375 -1.421875 39.40625 -1.421875 
Q 24.03125 -1.421875 14.8125 8.828125 
Q 5.609375 19.09375 5.609375 36.375 
Q 5.609375 53.65625 14.8125 63.9375 
Q 24.03125 74.21875 39.40625 74.21875 
z
" id="DejaVuSans-79"/>
     <path d="M 9.8125 72.90625 
L 24.515625 72.90625 
L 43.109375 23.296875 
L 61.8125 72.90625 
L 76.515625 72.90625 
L 76.515625 0 
L 66.890625 0 
L 66.890625 64.015625 
L 48.09375 14.015625 
L 38.1875 14.015625 
L 19.390625 64.015625 
L 19.390625 0 
L 9.8125 0 
z
" id="DejaVuSans-77"/>
     <path d="M 9.8125 72.90625 
L 19.671875 72.90625 
L 19.671875 8.296875 
L 55.171875 8.296875 
L 55.171875 0 
L 9.8125 0 
z
" id="DejaVuSans-76"/>
    </defs>
    <g transform="translate(361.8625 80.310937)scale(0.1 -0.1)">
     <use xlink:href="#DejaVuSans-67"/>
     <use x="69.824219" xlink:href="#DejaVuSans-79"/>
     <use x="148.535156" xlink:href="#DejaVuSans-77"/>
     <use x="234.814453" xlink:href="#DejaVuSans-76"/>
     <use x="290.527344" xlink:href="#DejaVuSans-32"/>
     <use x="322.314453" xlink:href="#DejaVuSans-40"/>
     <use x="361.328125" xlink:href="#DejaVuSans-52"/>
     <use x="424.951172" xlink:href="#DejaVuSans-48"/>
     <use x="488.574219" xlink:href="#DejaVuSans-41"/>
    </g>
   </g>
   <g id="line2d_59">
    <path d="M 333.8625 91.489062 
L 353.8625 91.489062 
" style="fill:none;stroke:#66a61e;stroke-linecap:square;stroke-width:1.5;"/>
   </g>
   <g id="line2d_60"/>
   <g id="text_25">
    <!-- GDD (40) -->
    <defs>
     <path d="M 59.515625 10.40625 
L 59.515625 29.984375 
L 43.40625 29.984375 
L 43.40625 38.09375 
L 69.28125 38.09375 
L 69.28125 6.78125 
Q 63.578125 2.734375 56.6875 0.65625 
Q 49.8125 -1.421875 42 -1.421875 
Q 24.90625 -1.421875 15.25 8.5625 
Q 5.609375 18.5625 5.609375 36.375 
Q 5.609375 54.25 15.25 64.234375 
Q 24.90625 74.21875 42 74.21875 
Q 49.125 74.21875 55.546875 72.453125 
Q 61.96875 70.703125 67.390625 67.28125 
L 67.390625 56.78125 
Q 61.921875 61.421875 55.765625 63.765625 
Q 49.609375 66.109375 42.828125 66.109375 
Q 29.4375 66.109375 22.71875 58.640625 
Q 16.015625 51.171875 16.015625 36.375 
Q 16.015625 21.625 22.71875 14.15625 
Q 29.4375 6.6875 42.828125 6.6875 
Q 48.046875 6.6875 52.140625 7.59375 
Q 56.25 8.5 59.515625 10.40625 
z
" id="DejaVuSans-71"/>
    </defs>
    <g transform="translate(361.8625 94.989062)scale(0.1 -0.1)">
     <use xlink:href="#DejaVuSans-71"/>
     <use x="77.490234" xlink:href="#DejaVuSans-68"/>
     <use x="154.492188" xlink:href="#DejaVuSans-68"/>
     <use x="231.494141" xlink:href="#DejaVuSans-32"/>
     <use x="263.28125" xlink:href="#DejaVuSans-40"/>
     <use x="302.294922" xlink:href="#DejaVuSans-52"/>
     <use x="365.917969" xlink:href="#DejaVuSans-48"/>
     <use x="429.541016" xlink:href="#DejaVuSans-41"/>
    </g>
   </g>
   <g id="line2d_61">
    <path d="M 333.8625 106.167188 
L 353.8625 106.167188 
" style="fill:none;stroke:#e6ab02;stroke-linecap:square;stroke-width:1.5;"/>
   </g>
   <g id="line2d_62"/>
   <g id="text_26">
    <!-- MD (38) -->
    <defs>
     <path d="M 31.78125 34.625 
Q 24.75 34.625 20.71875 30.859375 
Q 16.703125 27.09375 16.703125 20.515625 
Q 16.703125 13.921875 20.71875 10.15625 
Q 24.75 6.390625 31.78125 6.390625 
Q 38.8125 6.390625 42.859375 10.171875 
Q 46.921875 13.96875 46.921875 20.515625 
Q 46.921875 27.09375 42.890625 30.859375 
Q 38.875 34.625 31.78125 34.625 
z
M 21.921875 38.8125 
Q 15.578125 40.375 12.03125 44.71875 
Q 8.5 49.078125 8.5 55.328125 
Q 8.5 64.0625 14.71875 69.140625 
Q 20.953125 74.21875 31.78125 74.21875 
Q 42.671875 74.21875 48.875 69.140625 
Q 55.078125 64.0625 55.078125 55.328125 
Q 55.078125 49.078125 51.53125 44.71875 
Q 48 40.375 41.703125 38.8125 
Q 48.828125 37.15625 52.796875 32.3125 
Q 56.78125 27.484375 56.78125 20.515625 
Q 56.78125 9.90625 50.3125 4.234375 
Q 43.84375 -1.421875 31.78125 -1.421875 
Q 19.734375 -1.421875 13.25 4.234375 
Q 6.78125 9.90625 6.78125 20.515625 
Q 6.78125 27.484375 10.78125 32.3125 
Q 14.796875 37.15625 21.921875 38.8125 
z
M 18.3125 54.390625 
Q 18.3125 48.734375 21.84375 45.5625 
Q 25.390625 42.390625 31.78125 42.390625 
Q 38.140625 42.390625 41.71875 45.5625 
Q 45.3125 48.734375 45.3125 54.390625 
Q 45.3125 60.0625 41.71875 63.234375 
Q 38.140625 66.40625 31.78125 66.40625 
Q 25.390625 66.40625 21.84375 63.234375 
Q 18.3125 60.0625 18.3125 54.390625 
z
" id="DejaVuSans-56"/>
    </defs>
    <g transform="translate(361.8625 109.667188)scale(0.1 -0.1)">
     <use xlink:href="#DejaVuSans-77"/>
     <use x="86.279297" xlink:href="#DejaVuSans-68"/>
     <use x="163.28125" xlink:href="#DejaVuSans-32"/>
     <use x="195.068359" xlink:href="#DejaVuSans-40"/>
     <use x="234.082031" xlink:href="#DejaVuSans-51"/>
     <use x="297.705078" xlink:href="#DejaVuSans-56"/>
     <use x="361.328125" xlink:href="#DejaVuSans-41"/>
    </g>
   </g>
   <g id="line2d_63">
    <path d="M 333.8625 120.845312 
L 353.8625 120.845312 
" style="fill:none;stroke:#a6761d;stroke-linecap:square;stroke-width:1.5;"/>
   </g>
   <g id="line2d_64"/>
   <g id="text_27">
    <!-- HPI (38) -->
    <defs>
     <path d="M 9.8125 72.90625 
L 19.671875 72.90625 
L 19.671875 43.015625 
L 55.515625 43.015625 
L 55.515625 72.90625 
L 65.375 72.90625 
L 65.375 0 
L 55.515625 0 
L 55.515625 34.71875 
L 19.671875 34.71875 
L 19.671875 0 
L 9.8125 0 
z
" id="DejaVuSans-72"/>
     <path d="M 19.671875 64.796875 
L 19.671875 37.40625 
L 32.078125 37.40625 
Q 38.96875 37.40625 42.71875 40.96875 
Q 46.484375 44.53125 46.484375 51.125 
Q 46.484375 57.671875 42.71875 61.234375 
Q 38.96875 64.796875 32.078125 64.796875 
z
M 9.8125 72.90625 
L 32.078125 72.90625 
Q 44.34375 72.90625 50.609375 67.359375 
Q 56.890625 61.8125 56.890625 51.125 
Q 56.890625 40.328125 50.609375 34.8125 
Q 44.34375 29.296875 32.078125 29.296875 
L 19.671875 29.296875 
L 19.671875 0 
L 9.8125 0 
z
" id="DejaVuSans-80"/>
     <path d="M 9.8125 72.90625 
L 19.671875 72.90625 
L 19.671875 0 
L 9.8125 0 
z
" id="DejaVuSans-73"/>
    </defs>
    <g transform="translate(361.8625 124.345312)scale(0.1 -0.1)">
     <use xlink:href="#DejaVuSans-72"/>
     <use x="75.195312" xlink:href="#DejaVuSans-80"/>
     <use x="135.498047" xlink:href="#DejaVuSans-73"/>
     <use x="164.990234" xlink:href="#DejaVuSans-32"/>
     <use x="196.777344" xlink:href="#DejaVuSans-40"/>
     <use x="235.791016" xlink:href="#DejaVuSans-51"/>
     <use x="299.414062" xlink:href="#DejaVuSans-56"/>
     <use x="363.037109" xlink:href="#DejaVuSans-41"/>
    </g>
   </g>
   <g id="line2d_65">
    <path d="M 333.8625 135.523438 
L 353.8625 135.523438 
" style="fill:none;stroke:#666666;stroke-linecap:square;stroke-width:1.5;"/>
   </g>
   <g id="line2d_66"/>
   <g id="text_28">
    <!-- TBI (28) -->
    <defs>
     <path d="M -0.296875 72.90625 
L 61.375 72.90625 
L 61.375 64.59375 
L 35.5 64.59375 
L 35.5 0 
L 25.59375 0 
L 25.59375 64.59375 
L -0.296875 64.59375 
z
" id="DejaVuSans-84"/>
     <path d="M 19.671875 34.8125 
L 19.671875 8.109375 
L 35.5 8.109375 
Q 43.453125 8.109375 47.28125 11.40625 
Q 51.125 14.703125 51.125 21.484375 
Q 51.125 28.328125 47.28125 31.5625 
Q 43.453125 34.8125 35.5 34.8125 
z
M 19.671875 64.796875 
L 19.671875 42.828125 
L 34.28125 42.828125 
Q 41.5 42.828125 45.03125 45.53125 
Q 48.578125 48.25 48.578125 53.8125 
Q 48.578125 59.328125 45.03125 62.0625 
Q 41.5 64.796875 34.28125 64.796875 
z
M 9.8125 72.90625 
L 35.015625 72.90625 
Q 46.296875 72.90625 52.390625 68.21875 
Q 58.5 63.53125 58.5 54.890625 
Q 58.5 48.1875 55.375 44.234375 
Q 52.25 40.28125 46.1875 39.3125 
Q 53.46875 37.75 57.5 32.78125 
Q 61.53125 27.828125 61.53125 20.40625 
Q 61.53125 10.640625 54.890625 5.3125 
Q 48.25 0 35.984375 0 
L 9.8125 0 
z
" id="DejaVuSans-66"/>
    </defs>
    <g transform="translate(361.8625 139.023438)scale(0.1 -0.1)">
     <use xlink:href="#DejaVuSans-84"/>
     <use x="61.083984" xlink:href="#DejaVuSans-66"/>
     <use x="129.6875" xlink:href="#DejaVuSans-73"/>
     <use x="159.179688" xlink:href="#DejaVuSans-32"/>
     <use x="190.966797" xlink:href="#DejaVuSans-40"/>
     <use x="229.980469" xlink:href="#DejaVuSans-50"/>
     <use x="293.603516" xlink:href="#DejaVuSans-56"/>
     <use x="357.226562" xlink:href="#DejaVuSans-41"/>
    </g>
   </g>
   <g id="line2d_67">
    <path d="M 333.8625 150.201562 
L 353.8625 150.201562 
" style="fill:none;stroke:#1b9e77;stroke-dasharray:4.5,1.5;stroke-dashoffset:0;stroke-width:1.5;"/>
   </g>
   <g id="line2d_68"/>
   <g id="text_29">
    <!-- FIT (27) -->
    <defs>
     <path d="M 9.8125 72.90625 
L 51.703125 72.90625 
L 51.703125 64.59375 
L 19.671875 64.59375 
L 19.671875 43.109375 
L 48.578125 43.109375 
L 48.578125 34.8125 
L 19.671875 34.8125 
L 19.671875 0 
L 9.8125 0 
z
" id="DejaVuSans-70"/>
     <path d="M 8.203125 72.90625 
L 55.078125 72.90625 
L 55.078125 68.703125 
L 28.609375 0 
L 18.3125 0 
L 43.21875 64.59375 
L 8.203125 64.59375 
z
" id="DejaVuSans-55"/>
    </defs>
    <g transform="translate(361.8625 153.701562)scale(0.1 -0.1)">
     <use xlink:href="#DejaVuSans-70"/>
     <use x="57.519531" xlink:href="#DejaVuSans-73"/>
     <use x="87.011719" xlink:href="#DejaVuSans-84"/>
     <use x="148.095703" xlink:href="#DejaVuSans-32"/>
     <use x="179.882812" xlink:href="#DejaVuSans-40"/>
     <use x="218.896484" xlink:href="#DejaVuSans-50"/>
     <use x="282.519531" xlink:href="#DejaVuSans-55"/>
     <use x="346.142578" xlink:href="#DejaVuSans-41"/>
    </g>
   </g>
   <g id="line2d_69">
    <path d="M 333.8625 164.879687 
L 353.8625 164.879687 
" style="fill:none;stroke:#d95f02;stroke-dasharray:4.5,1.5;stroke-dashoffset:0;stroke-width:1.5;"/>
   </g>
   <g id="line2d_70"/>
   <g id="text_30">
    <!-- CB (26) -->
    <g transform="translate(361.8625 168.379687)scale(0.1 -0.1)">
     <use xlink:href="#DejaVuSans-67"/>
     <use x="69.824219" xlink:href="#DejaVuSans-66"/>
     <use x="138.427734" xlink:href="#DejaVuSans-32"/>
     <use x="170.214844" xlink:href="#DejaVuSans-40"/>
     <use x="209.228516" xlink:href="#DejaVuSans-50"/>
     <use x="272.851562" xlink:href="#DejaVuSans-54"/>
     <use x="336.474609" xlink:href="#DejaVuSans-41"/>
    </g>
   </g>
   <g id="line2d_71">
    <path d="M 333.8625 179.557812 
L 353.8625 179.557812 
" style="fill:none;stroke:#7570b3;stroke-dasharray:4.5,1.5;stroke-dashoffset:0;stroke-width:1.5;"/>
   </g>
   <g id="line2d_72"/>
   <g id="text_31">
    <!-- BP (26) -->
    <g transform="translate(361.8625 183.057812)scale(0.1 -0.1)">
     <use xlink:href="#DejaVuSans-66"/>
     <use x="68.603516" xlink:href="#DejaVuSans-80"/>
     <use x="128.90625" xlink:href="#DejaVuSans-32"/>
     <use x="160.693359" xlink:href="#DejaVuSans-40"/>
     <use x="199.707031" xlink:href="#DejaVuSans-50"/>
     <use x="263.330078" xlink:href="#DejaVuSans-54"/>
     <use x="326.953125" xlink:href="#DejaVuSans-41"/>
    </g>
   </g>
   <g id="line2d_73">
    <path d="M 333.8625 194.235937 
L 353.8625 194.235937 
" style="fill:none;stroke:#e7298a;stroke-dasharray:4.5,1.5;stroke-dashoffset:0;stroke-width:1.5;"/>
   </g>
   <g id="line2d_74"/>
   <g id="text_32">
    <!-- RJPH (24) -->
    <defs>
     <path d="M 9.8125 72.90625 
L 19.671875 72.90625 
L 19.671875 5.078125 
Q 19.671875 -8.109375 14.671875 -14.0625 
Q 9.671875 -20.015625 -1.421875 -20.015625 
L -5.171875 -20.015625 
L -5.171875 -11.71875 
L -2.09375 -11.71875 
Q 4.4375 -11.71875 7.125 -8.046875 
Q 9.8125 -4.390625 9.8125 5.078125 
z
" id="DejaVuSans-74"/>
    </defs>
    <g transform="translate(361.8625 197.735937)scale(0.1 -0.1)">
     <use xlink:href="#DejaVuSans-82"/>
     <use x="69.482422" xlink:href="#DejaVuSans-74"/>
     <use x="98.974609" xlink:href="#DejaVuSans-80"/>
     <use x="159.277344" xlink:href="#DejaVuSans-72"/>
     <use x="234.472656" xlink:href="#DejaVuSans-32"/>
     <use x="266.259766" xlink:href="#DejaVuSans-40"/>
     <use x="305.273438" xlink:href="#DejaVuSans-50"/>
     <use x="368.896484" xlink:href="#DejaVuSans-52"/>
     <use x="432.519531" xlink:href="#DejaVuSans-41"/>
    </g>
   </g>
   <g id="line2d_75">
    <path d="M 333.8625 208.914062 
L 353.8625 208.914062 
" style="fill:none;stroke:#66a61e;stroke-dasharray:4.5,1.5;stroke-dashoffset:0;stroke-width:1.5;"/>
   </g>
   <g id="line2d_76"/>
   <g id="text_33">
    <!-- SPD (24) -->
    <g transform="translate(361.8625 212.414062)scale(0.1 -0.1)">
     <use xlink:href="#DejaVuSans-83"/>
     <use x="63.476562" xlink:href="#DejaVuSans-80"/>
     <use x="123.779297" xlink:href="#DejaVuSans-68"/>
     <use x="200.78125" xlink:href="#DejaVuSans-32"/>
     <use x="232.568359" xlink:href="#DejaVuSans-40"/>
     <use x="271.582031" xlink:href="#DejaVuSans-50"/>
     <use x="335.205078" xlink:href="#DejaVuSans-52"/>
     <use x="398.828125" xlink:href="#DejaVuSans-41"/>
    </g>
   </g>
   <g id="line2d_77">
    <path d="M 333.8625 223.592187 
L 353.8625 223.592187 
" style="fill:none;stroke:#e6ab02;stroke-dasharray:4.5,1.5;stroke-dashoffset:0;stroke-width:1.5;"/>
   </g>
   <g id="line2d_78"/>
   <g id="text_34">
    <!-- CC (24) -->
    <g transform="translate(361.8625 227.092187)scale(0.1 -0.1)">
     <use xlink:href="#DejaVuSans-67"/>
     <use x="69.824219" xlink:href="#DejaVuSans-67"/>
     <use x="139.648438" xlink:href="#DejaVuSans-32"/>
     <use x="171.435547" xlink:href="#DejaVuSans-40"/>
     <use x="210.449219" xlink:href="#DejaVuSans-50"/>
     <use x="274.072266" xlink:href="#DejaVuSans-52"/>
     <use x="337.695312" xlink:href="#DejaVuSans-41"/>
    </g>
   </g>
   <g id="line2d_79">
    <path d="M 333.8625 238.270312 
L 353.8625 238.270312 
" style="fill:none;stroke:#a6761d;stroke-dasharray:4.5,1.5;stroke-dashoffset:0;stroke-width:1.5;"/>
   </g>
   <g id="line2d_80"/>
   <g id="text_35">
    <!-- AHR-H (20) -->
    <g transform="translate(361.8625 241.770312)scale(0.1 -0.1)">
     <use xlink:href="#DejaVuSans-65"/>
     <use x="68.408203" xlink:href="#DejaVuSans-72"/>
     <use x="143.603516" xlink:href="#DejaVuSans-82"/>
     <use x="213.023438" xlink:href="#DejaVuSans-45"/>
     <use x="249.107422" xlink:href="#DejaVuSans-72"/>
     <use x="324.302734" xlink:href="#DejaVuSans-32"/>
     <use x="356.089844" xlink:href="#DejaVuSans-40"/>
     <use x="395.103516" xlink:href="#DejaVuSans-50"/>
     <use x="458.726562" xlink:href="#DejaVuSans-48"/>
     <use x="522.349609" xlink:href="#DejaVuSans-41"/>
    </g>
   </g>
   <g id="line2d_81">
    <path d="M 333.8625 252.948437 
L 353.8625 252.948437 
" style="fill:none;stroke:#666666;stroke-dasharray:4.5,1.5;stroke-dashoffset:0;stroke-width:1.5;"/>
   </g>
   <g id="line2d_82"/>
   <g id="text_36">
    <!-- AHR-A (20) -->
    <g transform="translate(361.8625 256.448437)scale(0.1 -0.1)">
     <use xlink:href="#DejaVuSans-65"/>
     <use x="68.408203" xlink:href="#DejaVuSans-72"/>
     <use x="143.603516" xlink:href="#DejaVuSans-82"/>
     <use x="213.023438" xlink:href="#DejaVuSans-45"/>
     <use x="249.076172" xlink:href="#DejaVuSans-65"/>
     <use x="317.484375" xlink:href="#DejaVuSans-32"/>
     <use x="349.271484" xlink:href="#DejaVuSans-40"/>
     <use x="388.285156" xlink:href="#DejaVuSans-50"/>
     <use x="451.908203" xlink:href="#DejaVuSans-48"/>
     <use x="515.53125" xlink:href="#DejaVuSans-41"/>
    </g>
   </g>
  </g>
 </g>
 <defs>
  <clipPath id="p27419e6dde">
   <rect height="207.330771" width="271.81" x="43.55" y="12.9"/>
  </clipPath>
 </defs>
</svg>
