<?xml version="1.0" encoding="utf-8" standalone="no"?>
<!DOCTYPE svg PUBLIC "-//W3C//DTD SVG 1.1//EN"
  "http://www.w3.org/Graphics/SVG/1.1/DTD/svg11.dtd">
<!-- Created with matplotlib (https://matplotlib.org/) -->
<svg height="288pt" version="1.1" viewBox="0 0 432 288" width="432pt" xmlns="http://www.w3.org/2000/svg" xmlns:xlink="http://www.w3.org/1999/xlink">
 <defs>
  <style type="text/css">
*{stroke-linecap:butt;stroke-linejoin:round;}
  </style>
 </defs>
 <g id="figure_1">
  <g id="patch_1">
   <path d="M 0 288 
L 432 288 
L 432 0 
L 0 0 
z
" style="fill:#ffffff;"/>
  </g>
  <g id="axes_1">
   <g id="patch_2">
    <path d="M 43.55 220.230771 
L 315.36 220.230771 
L 315.36 12.9 
L 43.55 12.9 
z
" style="fill:#ffffff;"/>
   </g>
   <g id="matplotlib.axis_1">
    <g id="xtick_1">
     <g id="line2d_1">
      <defs>
       <path d="M 0 0 
L 0 3.5 
" id="m2ca2bc898f" style="stroke:#000000;stroke-width:0.8;"/>
      </defs>
      <g>
       <use style="stroke:#000000;stroke-width:0.8;" x="60.836954" xlink:href="#m2ca2bc898f" y="220.230771"/>
      </g>
     </g>
     <g id="text_1">
      <!-- 2020-12-01 -->
      <defs>
       <path d="M 19.1875 8.296875 
L 53.609375 8.296875 
L 53.609375 0 
L 7.328125 0 
L 7.328125 8.296875 
Q 12.9375 14.109375 22.625 23.890625 
Q 32.328125 33.6875 34.8125 36.53125 
Q 39.546875 41.84375 41.421875 45.53125 
Q 43.3125 49.21875 43.3125 52.78125 
Q 43.3125 58.59375 39.234375 62.25 
Q 35.15625 65.921875 28.609375 65.921875 
Q 23.96875 65.921875 18.8125 64.3125 
Q 13.671875 62.703125 7.8125 59.421875 
L 7.8125 69.390625 
Q 13.765625 71.78125 18.9375 73 
Q 24.125 74.21875 28.421875 74.21875 
Q 39.75 74.21875 46.484375 68.546875 
Q 53.21875 62.890625 53.21875 53.421875 
Q 53.21875 48.921875 51.53125 44.890625 
Q 49.859375 40.875 45.40625 35.40625 
Q 44.1875 33.984375 37.640625 27.21875 
Q 31.109375 20.453125 19.1875 8.296875 
z
" id="DejaVuSans-50"/>
       <path d="M 31.78125 66.40625 
Q 24.171875 66.40625 20.328125 58.90625 
Q 16.5 51.421875 16.5 36.375 
Q 16.5 21.390625 20.328125 13.890625 
Q 24.171875 6.390625 31.78125 6.390625 
Q 39.453125 6.390625 43.28125 13.890625 
Q 47.125 21.390625 47.125 36.375 
Q 47.125 51.421875 43.28125 58.90625 
Q 39.453125 66.40625 31.78125 66.40625 
z
M 31.78125 74.21875 
Q 44.046875 74.21875 50.515625 64.515625 
Q 56.984375 54.828125 56.984375 36.375 
Q 56.984375 17.96875 50.515625 8.265625 
Q 44.046875 -1.421875 31.78125 -1.421875 
Q 19.53125 -1.421875 13.0625 8.265625 
Q 6.59375 17.96875 6.59375 36.375 
Q 6.59375 54.828125 13.0625 64.515625 
Q 19.53125 74.21875 31.78125 74.21875 
z
" id="DejaVuSans-48"/>
       <path d="M 4.890625 31.390625 
L 31.203125 31.390625 
L 31.203125 23.390625 
L 4.890625 23.390625 
z
" id="DejaVuSans-45"/>
       <path d="M 12.40625 8.296875 
L 28.515625 8.296875 
L 28.515625 63.921875 
L 10.984375 60.40625 
L 10.984375 69.390625 
L 28.421875 72.90625 
L 38.28125 72.90625 
L 38.28125 8.296875 
L 54.390625 8.296875 
L 54.390625 0 
L 12.40625 0 
z
" id="DejaVuSans-49"/>
      </defs>
      <g transform="translate(37.051838 262.869024)rotate(-30)scale(0.1 -0.1)">
       <use xlink:href="#DejaVuSans-50"/>
       <use x="63.623047" xlink:href="#DejaVuSans-48"/>
       <use x="127.246094" xlink:href="#DejaVuSans-50"/>
       <use x="190.869141" xlink:href="#DejaVuSans-48"/>
       <use x="254.492188" xlink:href="#DejaVuSans-45"/>
       <use x="290.576172" xlink:href="#DejaVuSans-49"/>
       <use x="354.199219" xlink:href="#DejaVuSans-50"/>
       <use x="417.822266" xlink:href="#DejaVuSans-45"/>
       <use x="453.90625" xlink:href="#DejaVuSans-48"/>
       <use x="517.529297" xlink:href="#DejaVuSans-49"/>
      </g>
     </g>
    </g>
    <g id="xtick_2">
     <g id="line2d_2">
      <g>
       <use style="stroke:#000000;stroke-width:0.8;" x="96.589449" xlink:href="#m2ca2bc898f" y="220.230771"/>
      </g>
     </g>
     <g id="text_2">
      <!-- 2020-12-05 -->
      <defs>
       <path d="M 10.796875 72.90625 
L 49.515625 72.90625 
L 49.515625 64.59375 
L 19.828125 64.59375 
L 19.828125 46.734375 
Q 21.96875 47.46875 24.109375 47.828125 
Q 26.265625 48.1875 28.421875 48.1875 
Q 40.625 48.1875 47.75 41.5 
Q 54.890625 34.8125 54.890625 23.390625 
Q 54.890625 11.625 47.5625 5.09375 
Q 40.234375 -1.421875 26.90625 -1.421875 
Q 22.3125 -1.421875 17.546875 -0.640625 
Q 12.796875 0.140625 7.71875 1.703125 
L 7.71875 11.625 
Q 12.109375 9.234375 16.796875 8.0625 
Q 21.484375 6.890625 26.703125 6.890625 
Q 35.15625 6.890625 40.078125 11.328125 
Q 45.015625 15.765625 45.015625 23.390625 
Q 45.015625 31 40.078125 35.4375 
Q 35.15625 39.890625 26.703125 39.890625 
Q 22.75 39.890625 18.8125 39.015625 
Q 14.890625 38.140625 10.796875 36.28125 
z
" id="DejaVuSans-53"/>
      </defs>
      <g transform="translate(72.804333 262.869024)rotate(-30)scale(0.1 -0.1)">
       <use xlink:href="#DejaVuSans-50"/>
       <use x="63.623047" xlink:href="#DejaVuSans-48"/>
       <use x="127.246094" xlink:href="#DejaVuSans-50"/>
       <use x="190.869141" xlink:href="#DejaVuSans-48"/>
       <use x="254.492188" xlink:href="#DejaVuSans-45"/>
       <use x="290.576172" xlink:href="#DejaVuSans-49"/>
       <use x="354.199219" xlink:href="#DejaVuSans-50"/>
       <use x="417.822266" xlink:href="#DejaVuSans-45"/>
       <use x="453.90625" xlink:href="#DejaVuSans-48"/>
       <use x="517.529297" xlink:href="#DejaVuSans-53"/>
      </g>
     </g>
    </g>
    <g id="xtick_3">
     <g id="line2d_3">
      <g>
       <use style="stroke:#000000;stroke-width:0.8;" x="132.341944" xlink:href="#m2ca2bc898f" y="220.230771"/>
      </g>
     </g>
     <g id="text_3">
      <!-- 2020-12-09 -->
      <defs>
       <path d="M 10.984375 1.515625 
L 10.984375 10.5 
Q 14.703125 8.734375 18.5 7.8125 
Q 22.3125 6.890625 25.984375 6.890625 
Q 35.75 6.890625 40.890625 13.453125 
Q 46.046875 20.015625 46.78125 33.40625 
Q 43.953125 29.203125 39.59375 26.953125 
Q 35.25 24.703125 29.984375 24.703125 
Q 19.046875 24.703125 12.671875 31.3125 
Q 6.296875 37.9375 6.296875 49.421875 
Q 6.296875 60.640625 12.9375 67.421875 
Q 19.578125 74.21875 30.609375 74.21875 
Q 43.265625 74.21875 49.921875 64.515625 
Q 56.59375 54.828125 56.59375 36.375 
Q 56.59375 19.140625 48.40625 8.859375 
Q 40.234375 -1.421875 26.421875 -1.421875 
Q 22.703125 -1.421875 18.890625 -0.6875 
Q 15.09375 0.046875 10.984375 1.515625 
z
M 30.609375 32.421875 
Q 37.25 32.421875 41.125 36.953125 
Q 45.015625 41.5 45.015625 49.421875 
Q 45.015625 57.28125 41.125 61.84375 
Q 37.25 66.40625 30.609375 66.40625 
Q 23.96875 66.40625 20.09375 61.84375 
Q 16.21875 57.28125 16.21875 49.421875 
Q 16.21875 41.5 20.09375 36.953125 
Q 23.96875 32.421875 30.609375 32.421875 
z
" id="DejaVuSans-57"/>
      </defs>
      <g transform="translate(108.556828 262.869024)rotate(-30)scale(0.1 -0.1)">
       <use xlink:href="#DejaVuSans-50"/>
       <use x="63.623047" xlink:href="#DejaVuSans-48"/>
       <use x="127.246094" xlink:href="#DejaVuSans-50"/>
       <use x="190.869141" xlink:href="#DejaVuSans-48"/>
       <use x="254.492188" xlink:href="#DejaVuSans-45"/>
       <use x="290.576172" xlink:href="#DejaVuSans-49"/>
       <use x="354.199219" xlink:href="#DejaVuSans-50"/>
       <use x="417.822266" xlink:href="#DejaVuSans-45"/>
       <use x="453.90625" xlink:href="#DejaVuSans-48"/>
       <use x="517.529297" xlink:href="#DejaVuSans-57"/>
      </g>
     </g>
    </g>
    <g id="xtick_4">
     <g id="line2d_4">
      <g>
       <use style="stroke:#000000;stroke-width:0.8;" x="168.094439" xlink:href="#m2ca2bc898f" y="220.230771"/>
      </g>
     </g>
     <g id="text_4">
      <!-- 2020-12-13 -->
      <defs>
       <path d="M 40.578125 39.3125 
Q 47.65625 37.796875 51.625 33 
Q 55.609375 28.21875 55.609375 21.1875 
Q 55.609375 10.40625 48.1875 4.484375 
Q 40.765625 -1.421875 27.09375 -1.421875 
Q 22.515625 -1.421875 17.65625 -0.515625 
Q 12.796875 0.390625 7.625 2.203125 
L 7.625 11.71875 
Q 11.71875 9.328125 16.59375 8.109375 
Q 21.484375 6.890625 26.8125 6.890625 
Q 36.078125 6.890625 40.9375 10.546875 
Q 45.796875 14.203125 45.796875 21.1875 
Q 45.796875 27.640625 41.28125 31.265625 
Q 36.765625 34.90625 28.71875 34.90625 
L 20.21875 34.90625 
L 20.21875 43.015625 
L 29.109375 43.015625 
Q 36.375 43.015625 40.234375 45.921875 
Q 44.09375 48.828125 44.09375 54.296875 
Q 44.09375 59.90625 40.109375 62.90625 
Q 36.140625 65.921875 28.71875 65.921875 
Q 24.65625 65.921875 20.015625 65.03125 
Q 15.375 64.15625 9.8125 62.3125 
L 9.8125 71.09375 
Q 15.4375 72.65625 20.34375 73.4375 
Q 25.25 74.21875 29.59375 74.21875 
Q 40.828125 74.21875 47.359375 69.109375 
Q 53.90625 64.015625 53.90625 55.328125 
Q 53.90625 49.265625 50.4375 45.09375 
Q 46.96875 40.921875 40.578125 39.3125 
z
" id="DejaVuSans-51"/>
      </defs>
      <g transform="translate(144.309323 262.869024)rotate(-30)scale(0.1 -0.1)">
       <use xlink:href="#DejaVuSans-50"/>
       <use x="63.623047" xlink:href="#DejaVuSans-48"/>
       <use x="127.246094" xlink:href="#DejaVuSans-50"/>
       <use x="190.869141" xlink:href="#DejaVuSans-48"/>
       <use x="254.492188" xlink:href="#DejaVuSans-45"/>
       <use x="290.576172" xlink:href="#DejaVuSans-49"/>
       <use x="354.199219" xlink:href="#DejaVuSans-50"/>
       <use x="417.822266" xlink:href="#DejaVuSans-45"/>
       <use x="453.90625" xlink:href="#DejaVuSans-49"/>
       <use x="517.529297" xlink:href="#DejaVuSans-51"/>
      </g>
     </g>
    </g>
    <g id="xtick_5">
     <g id="line2d_5">
      <g>
       <use style="stroke:#000000;stroke-width:0.8;" x="203.846934" xlink:href="#m2ca2bc898f" y="220.230771"/>
      </g>
     </g>
     <g id="text_5">
      <!-- 2020-12-17 -->
      <defs>
       <path d="M 8.203125 72.90625 
L 55.078125 72.90625 
L 55.078125 68.703125 
L 28.609375 0 
L 18.3125 0 
L 43.21875 64.59375 
L 8.203125 64.59375 
z
" id="DejaVuSans-55"/>
      </defs>
      <g transform="translate(180.061818 262.869024)rotate(-30)scale(0.1 -0.1)">
       <use xlink:href="#DejaVuSans-50"/>
       <use x="63.623047" xlink:href="#DejaVuSans-48"/>
       <use x="127.246094" xlink:href="#DejaVuSans-50"/>
       <use x="190.869141" xlink:href="#DejaVuSans-48"/>
       <use x="254.492188" xlink:href="#DejaVuSans-45"/>
       <use x="290.576172" xlink:href="#DejaVuSans-49"/>
       <use x="354.199219" xlink:href="#DejaVuSans-50"/>
       <use x="417.822266" xlink:href="#DejaVuSans-45"/>
       <use x="453.90625" xlink:href="#DejaVuSans-49"/>
       <use x="517.529297" xlink:href="#DejaVuSans-55"/>
      </g>
     </g>
    </g>
    <g id="xtick_6">
     <g id="line2d_6">
      <g>
       <use style="stroke:#000000;stroke-width:0.8;" x="239.599429" xlink:href="#m2ca2bc898f" y="220.230771"/>
      </g>
     </g>
     <g id="text_6">
      <!-- 2020-12-21 -->
      <g transform="translate(215.814312 262.869024)rotate(-30)scale(0.1 -0.1)">
       <use xlink:href="#DejaVuSans-50"/>
       <use x="63.623047" xlink:href="#DejaVuSans-48"/>
       <use x="127.246094" xlink:href="#DejaVuSans-50"/>
       <use x="190.869141" xlink:href="#DejaVuSans-48"/>
       <use x="254.492188" xlink:href="#DejaVuSans-45"/>
       <use x="290.576172" xlink:href="#DejaVuSans-49"/>
       <use x="354.199219" xlink:href="#DejaVuSans-50"/>
       <use x="417.822266" xlink:href="#DejaVuSans-45"/>
       <use x="453.90625" xlink:href="#DejaVuSans-50"/>
       <use x="517.529297" xlink:href="#DejaVuSans-49"/>
      </g>
     </g>
    </g>
    <g id="xtick_7">
     <g id="line2d_7">
      <g>
       <use style="stroke:#000000;stroke-width:0.8;" x="275.351924" xlink:href="#m2ca2bc898f" y="220.230771"/>
      </g>
     </g>
     <g id="text_7">
      <!-- 2020-12-25 -->
      <g transform="translate(251.566807 262.869024)rotate(-30)scale(0.1 -0.1)">
       <use xlink:href="#DejaVuSans-50"/>
       <use x="63.623047" xlink:href="#DejaVuSans-48"/>
       <use x="127.246094" xlink:href="#DejaVuSans-50"/>
       <use x="190.869141" xlink:href="#DejaVuSans-48"/>
       <use x="254.492188" xlink:href="#DejaVuSans-45"/>
       <use x="290.576172" xlink:href="#DejaVuSans-49"/>
       <use x="354.199219" xlink:href="#DejaVuSans-50"/>
       <use x="417.822266" xlink:href="#DejaVuSans-45"/>
       <use x="453.90625" xlink:href="#DejaVuSans-50"/>
       <use x="517.529297" xlink:href="#DejaVuSans-53"/>
      </g>
     </g>
    </g>
    <g id="xtick_8">
     <g id="line2d_8">
      <g>
       <use style="stroke:#000000;stroke-width:0.8;" x="311.104419" xlink:href="#m2ca2bc898f" y="220.230771"/>
      </g>
     </g>
     <g id="text_8">
      <!-- 2020-12-29 -->
      <g transform="translate(287.319302 262.869024)rotate(-30)scale(0.1 -0.1)">
       <use xlink:href="#DejaVuSans-50"/>
       <use x="63.623047" xlink:href="#DejaVuSans-48"/>
       <use x="127.246094" xlink:href="#DejaVuSans-50"/>
       <use x="190.869141" xlink:href="#DejaVuSans-48"/>
       <use x="254.492188" xlink:href="#DejaVuSans-45"/>
       <use x="290.576172" xlink:href="#DejaVuSans-49"/>
       <use x="354.199219" xlink:href="#DejaVuSans-50"/>
       <use x="417.822266" xlink:href="#DejaVuSans-45"/>
       <use x="453.90625" xlink:href="#DejaVuSans-50"/>
       <use x="517.529297" xlink:href="#DejaVuSans-57"/>
      </g>
     </g>
    </g>
    <g id="text_9">
     <!-- Date -->
     <defs>
      <path d="M 19.671875 64.796875 
L 19.671875 8.109375 
L 31.59375 8.109375 
Q 46.6875 8.109375 53.6875 14.9375 
Q 60.6875 21.78125 60.6875 36.53125 
Q 60.6875 51.171875 53.6875 57.984375 
Q 46.6875 64.796875 31.59375 64.796875 
z
M 9.8125 72.90625 
L 30.078125 72.90625 
Q 51.265625 72.90625 61.171875 64.09375 
Q 71.09375 55.28125 71.09375 36.53125 
Q 71.09375 17.671875 61.125 8.828125 
Q 51.171875 0 30.078125 0 
L 9.8125 0 
z
" id="DejaVuSans-68"/>
      <path d="M 34.28125 27.484375 
Q 23.390625 27.484375 19.1875 25 
Q 14.984375 22.515625 14.984375 16.5 
Q 14.984375 11.71875 18.140625 8.90625 
Q 21.296875 6.109375 26.703125 6.109375 
Q 34.1875 6.109375 38.703125 11.40625 
Q 43.21875 16.703125 43.21875 25.484375 
L 43.21875 27.484375 
z
M 52.203125 31.203125 
L 52.203125 0 
L 43.21875 0 
L 43.21875 8.296875 
Q 40.140625 3.328125 35.546875 0.953125 
Q 30.953125 -1.421875 24.3125 -1.421875 
Q 15.921875 -1.421875 10.953125 3.296875 
Q 6 8.015625 6 15.921875 
Q 6 25.140625 12.171875 29.828125 
Q 18.359375 34.515625 30.609375 34.515625 
L 43.21875 34.515625 
L 43.21875 35.40625 
Q 43.21875 41.609375 39.140625 45 
Q 35.0625 48.390625 27.6875 48.390625 
Q 23 48.390625 18.546875 47.265625 
Q 14.109375 46.140625 10.015625 43.890625 
L 10.015625 52.203125 
Q 14.9375 54.109375 19.578125 55.046875 
Q 24.21875 56 28.609375 56 
Q 40.484375 56 46.34375 49.84375 
Q 52.203125 43.703125 52.203125 31.203125 
z
" id="DejaVuSans-97"/>
      <path d="M 18.3125 70.21875 
L 18.3125 54.6875 
L 36.8125 54.6875 
L 36.8125 47.703125 
L 18.3125 47.703125 
L 18.3125 18.015625 
Q 18.3125 11.328125 20.140625 9.421875 
Q 21.96875 7.515625 27.59375 7.515625 
L 36.8125 7.515625 
L 36.8125 0 
L 27.59375 0 
Q 17.1875 0 13.234375 3.875 
Q 9.28125 7.765625 9.28125 18.015625 
L 9.28125 47.703125 
L 2.6875 47.703125 
L 2.6875 54.6875 
L 9.28125 54.6875 
L 9.28125 70.21875 
z
" id="DejaVuSans-116"/>
      <path d="M 56.203125 29.59375 
L 56.203125 25.203125 
L 14.890625 25.203125 
Q 15.484375 15.921875 20.484375 11.0625 
Q 25.484375 6.203125 34.421875 6.203125 
Q 39.59375 6.203125 44.453125 7.46875 
Q 49.3125 8.734375 54.109375 11.28125 
L 54.109375 2.78125 
Q 49.265625 0.734375 44.1875 -0.34375 
Q 39.109375 -1.421875 33.890625 -1.421875 
Q 20.796875 -1.421875 13.15625 6.1875 
Q 5.515625 13.8125 5.515625 26.8125 
Q 5.515625 40.234375 12.765625 48.109375 
Q 20.015625 56 32.328125 56 
Q 43.359375 56 49.78125 48.890625 
Q 56.203125 41.796875 56.203125 29.59375 
z
M 47.21875 32.234375 
Q 47.125 39.59375 43.09375 43.984375 
Q 39.0625 48.390625 32.421875 48.390625 
Q 24.90625 48.390625 20.390625 44.140625 
Q 15.875 39.890625 15.1875 32.171875 
z
" id="DejaVuSans-101"/>
     </defs>
     <g transform="translate(167.504219 276.268523)scale(0.1 -0.1)">
      <use xlink:href="#DejaVuSans-68"/>
      <use x="77.001953" xlink:href="#DejaVuSans-97"/>
      <use x="138.28125" xlink:href="#DejaVuSans-116"/>
      <use x="177.490234" xlink:href="#DejaVuSans-101"/>
     </g>
    </g>
   </g>
   <g id="matplotlib.axis_2">
    <g id="ytick_1">
     <g id="line2d_9">
      <defs>
       <path d="M 0 0 
L -3.5 0 
" id="mf5a433c790" style="stroke:#000000;stroke-width:0.8;"/>
      </defs>
      <g>
       <use style="stroke:#000000;stroke-width:0.8;" x="43.55" xlink:href="#mf5a433c790" y="210.806645"/>
      </g>
     </g>
     <g id="text_10">
      <!-- 0 -->
      <g transform="translate(30.1875 214.605864)scale(0.1 -0.1)">
       <use xlink:href="#DejaVuSans-48"/>
      </g>
     </g>
    </g>
    <g id="ytick_2">
     <g id="line2d_10">
      <g>
       <use style="stroke:#000000;stroke-width:0.8;" x="43.55" xlink:href="#mf5a433c790" y="187.24633"/>
      </g>
     </g>
     <g id="text_11">
      <!-- 5 -->
      <g transform="translate(30.1875 191.045549)scale(0.1 -0.1)">
       <use xlink:href="#DejaVuSans-53"/>
      </g>
     </g>
    </g>
    <g id="ytick_3">
     <g id="line2d_11">
      <g>
       <use style="stroke:#000000;stroke-width:0.8;" x="43.55" xlink:href="#mf5a433c790" y="163.686016"/>
      </g>
     </g>
     <g id="text_12">
      <!-- 10 -->
      <g transform="translate(23.825 167.485234)scale(0.1 -0.1)">
       <use xlink:href="#DejaVuSans-49"/>
       <use x="63.623047" xlink:href="#DejaVuSans-48"/>
      </g>
     </g>
    </g>
    <g id="ytick_4">
     <g id="line2d_12">
      <g>
       <use style="stroke:#000000;stroke-width:0.8;" x="43.55" xlink:href="#mf5a433c790" y="140.125701"/>
      </g>
     </g>
     <g id="text_13">
      <!-- 15 -->
      <g transform="translate(23.825 143.924919)scale(0.1 -0.1)">
       <use xlink:href="#DejaVuSans-49"/>
       <use x="63.623047" xlink:href="#DejaVuSans-53"/>
      </g>
     </g>
    </g>
    <g id="ytick_5">
     <g id="line2d_13">
      <g>
       <use style="stroke:#000000;stroke-width:0.8;" x="43.55" xlink:href="#mf5a433c790" y="116.565386"/>
      </g>
     </g>
     <g id="text_14">
      <!-- 20 -->
      <g transform="translate(23.825 120.364604)scale(0.1 -0.1)">
       <use xlink:href="#DejaVuSans-50"/>
       <use x="63.623047" xlink:href="#DejaVuSans-48"/>
      </g>
     </g>
    </g>
    <g id="ytick_6">
     <g id="line2d_14">
      <g>
       <use style="stroke:#000000;stroke-width:0.8;" x="43.55" xlink:href="#mf5a433c790" y="93.005071"/>
      </g>
     </g>
     <g id="text_15">
      <!-- 25 -->
      <g transform="translate(23.825 96.80429)scale(0.1 -0.1)">
       <use xlink:href="#DejaVuSans-50"/>
       <use x="63.623047" xlink:href="#DejaVuSans-53"/>
      </g>
     </g>
    </g>
    <g id="ytick_7">
     <g id="line2d_15">
      <g>
       <use style="stroke:#000000;stroke-width:0.8;" x="43.55" xlink:href="#mf5a433c790" y="69.444756"/>
      </g>
     </g>
     <g id="text_16">
      <!-- 30 -->
      <g transform="translate(23.825 73.243975)scale(0.1 -0.1)">
       <use xlink:href="#DejaVuSans-51"/>
       <use x="63.623047" xlink:href="#DejaVuSans-48"/>
      </g>
     </g>
    </g>
    <g id="ytick_8">
     <g id="line2d_16">
      <g>
       <use style="stroke:#000000;stroke-width:0.8;" x="43.55" xlink:href="#mf5a433c790" y="45.884441"/>
      </g>
     </g>
     <g id="text_17">
      <!-- 35 -->
      <g transform="translate(23.825 49.68366)scale(0.1 -0.1)">
       <use xlink:href="#DejaVuSans-51"/>
       <use x="63.623047" xlink:href="#DejaVuSans-53"/>
      </g>
     </g>
    </g>
    <g id="ytick_9">
     <g id="line2d_17">
      <g>
       <use style="stroke:#000000;stroke-width:0.8;" x="43.55" xlink:href="#mf5a433c790" y="22.324126"/>
      </g>
     </g>
     <g id="text_18">
      <!-- 40 -->
      <defs>
       <path d="M 37.796875 64.3125 
L 12.890625 25.390625 
L 37.796875 25.390625 
z
M 35.203125 72.90625 
L 47.609375 72.90625 
L 47.609375 25.390625 
L 58.015625 25.390625 
L 58.015625 17.1875 
L 47.609375 17.1875 
L 47.609375 0 
L 37.796875 0 
L 37.796875 17.1875 
L 4.890625 17.1875 
L 4.890625 26.703125 
z
" id="DejaVuSans-52"/>
      </defs>
      <g transform="translate(23.825 26.123345)scale(0.1 -0.1)">
       <use xlink:href="#DejaVuSans-52"/>
       <use x="63.623047" xlink:href="#DejaVuSans-48"/>
      </g>
     </g>
    </g>
    <g id="text_19">
     <!-- Students Registered -->
     <defs>
      <path d="M 53.515625 70.515625 
L 53.515625 60.890625 
Q 47.90625 63.578125 42.921875 64.890625 
Q 37.9375 66.21875 33.296875 66.21875 
Q 25.25 66.21875 20.875 63.09375 
Q 16.5 59.96875 16.5 54.203125 
Q 16.5 49.359375 19.40625 46.890625 
Q 22.3125 44.4375 30.421875 42.921875 
L 36.375 41.703125 
Q 47.40625 39.59375 52.65625 34.296875 
Q 57.90625 29 57.90625 20.125 
Q 57.90625 9.515625 50.796875 4.046875 
Q 43.703125 -1.421875 29.984375 -1.421875 
Q 24.8125 -1.421875 18.96875 -0.25 
Q 13.140625 0.921875 6.890625 3.21875 
L 6.890625 13.375 
Q 12.890625 10.015625 18.65625 8.296875 
Q 24.421875 6.59375 29.984375 6.59375 
Q 38.421875 6.59375 43.015625 9.90625 
Q 47.609375 13.234375 47.609375 19.390625 
Q 47.609375 24.75 44.3125 27.78125 
Q 41.015625 30.8125 33.5 32.328125 
L 27.484375 33.5 
Q 16.453125 35.6875 11.515625 40.375 
Q 6.59375 45.0625 6.59375 53.421875 
Q 6.59375 63.09375 13.40625 68.65625 
Q 20.21875 74.21875 32.171875 74.21875 
Q 37.3125 74.21875 42.625 73.28125 
Q 47.953125 72.359375 53.515625 70.515625 
z
" id="DejaVuSans-83"/>
      <path d="M 8.5 21.578125 
L 8.5 54.6875 
L 17.484375 54.6875 
L 17.484375 21.921875 
Q 17.484375 14.15625 20.5 10.265625 
Q 23.53125 6.390625 29.59375 6.390625 
Q 36.859375 6.390625 41.078125 11.03125 
Q 45.3125 15.671875 45.3125 23.6875 
L 45.3125 54.6875 
L 54.296875 54.6875 
L 54.296875 0 
L 45.3125 0 
L 45.3125 8.40625 
Q 42.046875 3.421875 37.71875 1 
Q 33.40625 -1.421875 27.6875 -1.421875 
Q 18.265625 -1.421875 13.375 4.4375 
Q 8.5 10.296875 8.5 21.578125 
z
M 31.109375 56 
z
" id="DejaVuSans-117"/>
      <path d="M 45.40625 46.390625 
L 45.40625 75.984375 
L 54.390625 75.984375 
L 54.390625 0 
L 45.40625 0 
L 45.40625 8.203125 
Q 42.578125 3.328125 38.25 0.953125 
Q 33.9375 -1.421875 27.875 -1.421875 
Q 17.96875 -1.421875 11.734375 6.484375 
Q 5.515625 14.40625 5.515625 27.296875 
Q 5.515625 40.1875 11.734375 48.09375 
Q 17.96875 56 27.875 56 
Q 33.9375 56 38.25 53.625 
Q 42.578125 51.265625 45.40625 46.390625 
z
M 14.796875 27.296875 
Q 14.796875 17.390625 18.875 11.75 
Q 22.953125 6.109375 30.078125 6.109375 
Q 37.203125 6.109375 41.296875 11.75 
Q 45.40625 17.390625 45.40625 27.296875 
Q 45.40625 37.203125 41.296875 42.84375 
Q 37.203125 48.484375 30.078125 48.484375 
Q 22.953125 48.484375 18.875 42.84375 
Q 14.796875 37.203125 14.796875 27.296875 
z
" id="DejaVuSans-100"/>
      <path d="M 54.890625 33.015625 
L 54.890625 0 
L 45.90625 0 
L 45.90625 32.71875 
Q 45.90625 40.484375 42.875 44.328125 
Q 39.84375 48.1875 33.796875 48.1875 
Q 26.515625 48.1875 22.3125 43.546875 
Q 18.109375 38.921875 18.109375 30.90625 
L 18.109375 0 
L 9.078125 0 
L 9.078125 54.6875 
L 18.109375 54.6875 
L 18.109375 46.1875 
Q 21.34375 51.125 25.703125 53.5625 
Q 30.078125 56 35.796875 56 
Q 45.21875 56 50.046875 50.171875 
Q 54.890625 44.34375 54.890625 33.015625 
z
" id="DejaVuSans-110"/>
      <path d="M 44.28125 53.078125 
L 44.28125 44.578125 
Q 40.484375 46.53125 36.375 47.5 
Q 32.28125 48.484375 27.875 48.484375 
Q 21.1875 48.484375 17.84375 46.4375 
Q 14.5 44.390625 14.5 40.28125 
Q 14.5 37.15625 16.890625 35.375 
Q 19.28125 33.59375 26.515625 31.984375 
L 29.59375 31.296875 
Q 39.15625 29.25 43.1875 25.515625 
Q 47.21875 21.78125 47.21875 15.09375 
Q 47.21875 7.46875 41.1875 3.015625 
Q 35.15625 -1.421875 24.609375 -1.421875 
Q 20.21875 -1.421875 15.453125 -0.5625 
Q 10.6875 0.296875 5.421875 2 
L 5.421875 11.28125 
Q 10.40625 8.6875 15.234375 7.390625 
Q 20.0625 6.109375 24.8125 6.109375 
Q 31.15625 6.109375 34.5625 8.28125 
Q 37.984375 10.453125 37.984375 14.40625 
Q 37.984375 18.0625 35.515625 20.015625 
Q 33.0625 21.96875 24.703125 23.78125 
L 21.578125 24.515625 
Q 13.234375 26.265625 9.515625 29.90625 
Q 5.8125 33.546875 5.8125 39.890625 
Q 5.8125 47.609375 11.28125 51.796875 
Q 16.75 56 26.8125 56 
Q 31.78125 56 36.171875 55.265625 
Q 40.578125 54.546875 44.28125 53.078125 
z
" id="DejaVuSans-115"/>
      <path id="DejaVuSans-32"/>
      <path d="M 44.390625 34.1875 
Q 47.5625 33.109375 50.5625 29.59375 
Q 53.5625 26.078125 56.59375 19.921875 
L 66.609375 0 
L 56 0 
L 46.6875 18.703125 
Q 43.0625 26.03125 39.671875 28.421875 
Q 36.28125 30.8125 30.421875 30.8125 
L 19.671875 30.8125 
L 19.671875 0 
L 9.8125 0 
L 9.8125 72.90625 
L 32.078125 72.90625 
Q 44.578125 72.90625 50.734375 67.671875 
Q 56.890625 62.453125 56.890625 51.90625 
Q 56.890625 45.015625 53.6875 40.46875 
Q 50.484375 35.9375 44.390625 34.1875 
z
M 19.671875 64.796875 
L 19.671875 38.921875 
L 32.078125 38.921875 
Q 39.203125 38.921875 42.84375 42.21875 
Q 46.484375 45.515625 46.484375 51.90625 
Q 46.484375 58.296875 42.84375 61.546875 
Q 39.203125 64.796875 32.078125 64.796875 
z
" id="DejaVuSans-82"/>
      <path d="M 45.40625 27.984375 
Q 45.40625 37.75 41.375 43.109375 
Q 37.359375 48.484375 30.078125 48.484375 
Q 22.859375 48.484375 18.828125 43.109375 
Q 14.796875 37.75 14.796875 27.984375 
Q 14.796875 18.265625 18.828125 12.890625 
Q 22.859375 7.515625 30.078125 7.515625 
Q 37.359375 7.515625 41.375 12.890625 
Q 45.40625 18.265625 45.40625 27.984375 
z
M 54.390625 6.78125 
Q 54.390625 -7.171875 48.1875 -13.984375 
Q 42 -20.796875 29.203125 -20.796875 
Q 24.46875 -20.796875 20.265625 -20.09375 
Q 16.0625 -19.390625 12.109375 -17.921875 
L 12.109375 -9.1875 
Q 16.0625 -11.328125 19.921875 -12.34375 
Q 23.78125 -13.375 27.78125 -13.375 
Q 36.625 -13.375 41.015625 -8.765625 
Q 45.40625 -4.15625 45.40625 5.171875 
L 45.40625 9.625 
Q 42.625 4.78125 38.28125 2.390625 
Q 33.9375 0 27.875 0 
Q 17.828125 0 11.671875 7.65625 
Q 5.515625 15.328125 5.515625 27.984375 
Q 5.515625 40.671875 11.671875 48.328125 
Q 17.828125 56 27.875 56 
Q 33.9375 56 38.28125 53.609375 
Q 42.625 51.21875 45.40625 46.390625 
L 45.40625 54.6875 
L 54.390625 54.6875 
z
" id="DejaVuSans-103"/>
      <path d="M 9.421875 54.6875 
L 18.40625 54.6875 
L 18.40625 0 
L 9.421875 0 
z
M 9.421875 75.984375 
L 18.40625 75.984375 
L 18.40625 64.59375 
L 9.421875 64.59375 
z
" id="DejaVuSans-105"/>
      <path d="M 41.109375 46.296875 
Q 39.59375 47.171875 37.8125 47.578125 
Q 36.03125 48 33.890625 48 
Q 26.265625 48 22.1875 43.046875 
Q 18.109375 38.09375 18.109375 28.8125 
L 18.109375 0 
L 9.078125 0 
L 9.078125 54.6875 
L 18.109375 54.6875 
L 18.109375 46.1875 
Q 20.953125 51.171875 25.484375 53.578125 
Q 30.03125 56 36.53125 56 
Q 37.453125 56 38.578125 55.875 
Q 39.703125 55.765625 41.0625 55.515625 
z
" id="DejaVuSans-114"/>
     </defs>
     <g transform="translate(17.745313 167.498979)rotate(-90)scale(0.1 -0.1)">
      <use xlink:href="#DejaVuSans-83"/>
      <use x="63.476562" xlink:href="#DejaVuSans-116"/>
      <use x="102.685547" xlink:href="#DejaVuSans-117"/>
      <use x="166.064453" xlink:href="#DejaVuSans-100"/>
      <use x="229.541016" xlink:href="#DejaVuSans-101"/>
      <use x="291.064453" xlink:href="#DejaVuSans-110"/>
      <use x="354.443359" xlink:href="#DejaVuSans-116"/>
      <use x="393.652344" xlink:href="#DejaVuSans-115"/>
      <use x="445.751953" xlink:href="#DejaVuSans-32"/>
      <use x="477.539062" xlink:href="#DejaVuSans-82"/>
      <use x="546.958984" xlink:href="#DejaVuSans-101"/>
      <use x="608.482422" xlink:href="#DejaVuSans-103"/>
      <use x="671.958984" xlink:href="#DejaVuSans-105"/>
      <use x="699.742188" xlink:href="#DejaVuSans-115"/>
      <use x="751.841797" xlink:href="#DejaVuSans-116"/>
      <use x="791.050781" xlink:href="#DejaVuSans-101"/>
      <use x="852.574219" xlink:href="#DejaVuSans-114"/>
      <use x="893.65625" xlink:href="#DejaVuSans-101"/>
      <use x="955.179688" xlink:href="#DejaVuSans-100"/>
     </g>
    </g>
   </g>
   <g id="line2d_18">
    <path clip-path="url(#p2479a6e483)" d="M 133.646192 196.670456 
L 135.508218 196.670456 
L 135.508218 182.534267 
L 135.601339 182.534267 
L 135.88065 182.534267 
L 135.88065 177.822204 
L 135.973783 177.822204 
L 136.253063 177.822204 
L 136.253063 158.973953 
L 136.34617 158.973953 
L 136.997942 158.973953 
L 136.997942 144.837764 
L 137.091041 144.837764 
L 137.74277 144.837764 
L 137.74277 116.565386 
L 137.835911 116.565386 
L 138.487608 116.565386 
L 138.487608 107.14126 
L 138.580714 107.14126 
L 138.860079 107.14126 
L 138.860079 102.429197 
L 138.953181 102.429197 
L 139.232469 102.429197 
L 139.232469 97.717134 
L 139.325596 97.717134 
L 139.977374 97.717134 
L 139.977374 93.005071 
L 140.07048 93.005071 
L 145.191197 93.005071 
L 145.191197 74.156819 
L 145.284329 74.156819 
L 145.936066 74.156819 
L 145.936066 69.444756 
L 146.029217 69.444756 
L 146.680966 69.444756 
L 146.680966 60.02063 
L 146.773992 60.02063 
L 147.053389 60.02063 
L 147.053389 55.308567 
L 147.146413 55.308567 
L 147.798243 55.308567 
L 147.798243 50.596504 
L 147.891263 50.596504 
L 155.61907 50.596504 
L 155.61907 45.884441 
L 155.71211 45.884441 
L 155.991428 45.884441 
L 155.991428 41.172378 
L 156.084581 41.172378 
L 156.363869 41.172378 
L 156.363869 36.460315 
L 156.457004 36.460315 
L 157.481185 36.460315 
L 157.481185 31.748252 
L 157.574204 31.748252 
L 181.316125 31.748252 
L 181.316125 22.324126 
L 181.409295 22.324126 
L 227.124017 22.324126 
L 227.124017 27.036189 
L 227.217127 27.036189 
L 229.358546 27.036189 
L 229.358546 22.324126 
L 229.451711 22.324126 
L 261.759288 22.324126 
L 261.759288 27.036189 
L 261.85235 27.036189 
L 264.738647 27.036189 
L 264.738647 22.324126 
L 264.831713 22.324126 
L 303.005 22.324126 
L 303.005 22.324126 
" style="fill:none;stroke:#1b9e77;stroke-linecap:square;stroke-width:1.5;"/>
   </g>
   <g id="line2d_19">
    <path clip-path="url(#p2479a6e483)" d="M 55.905 182.534267 
L 56.297392 182.534267 
L 56.297392 177.822204 
L 56.405877 177.822204 
L 58.22447 177.822204 
L 58.22447 173.110142 
L 64.183288 173.110142 
L 64.183288 168.398079 
L 64.748141 168.398079 
L 64.748141 163.686016 
L 64.841186 163.686016 
L 65.120541 163.686016 
L 65.120541 158.973953 
L 65.213691 158.973953 
L 66.237856 158.973953 
L 66.237856 144.837764 
L 66.330921 144.837764 
L 66.610198 144.837764 
L 66.610198 140.125701 
L 66.70337 140.125701 
L 74.058658 140.125701 
L 74.058658 130.701575 
L 74.151817 130.701575 
L 74.431077 130.701575 
L 74.431077 125.989512 
L 74.524144 125.989512 
L 74.803496 125.989512 
L 74.803496 130.701575 
L 74.89663 130.701575 
L 75.5484 130.701575 
L 75.5484 125.989512 
L 75.641481 125.989512 
L 75.920747 125.989512 
L 75.920747 116.565386 
L 76.013955 116.565386 
L 77.782902 116.565386 
L 77.782902 107.14126 
L 77.875976 107.14126 
L 81.87954 107.14126 
L 81.87954 102.429197 
L 81.97262 102.429197 
L 82.251954 102.429197 
L 82.251954 83.580945 
L 82.345046 83.580945 
L 82.624333 83.580945 
L 82.624333 74.156819 
L 82.717437 74.156819 
L 83.369217 74.156819 
L 83.369217 69.444756 
L 83.46233 69.444756 
L 83.741627 69.444756 
L 83.741627 64.732693 
L 83.834767 64.732693 
L 84.114059 64.732693 
L 84.114059 60.02063 
L 84.207175 60.02063 
L 84.486479 60.02063 
L 84.486479 45.884441 
L 84.579634 45.884441 
L 84.85889 45.884441 
L 84.85889 41.172378 
L 84.952032 41.172378 
L 85.231334 41.172378 
L 85.231334 36.460315 
L 85.324454 36.460315 
L 91.562454 36.460315 
L 91.562454 27.036189 
L 91.655562 27.036189 
L 91.934957 27.036189 
L 91.934957 22.324126 
L 92.028003 22.324126 
L 135.88065 22.324126 
L 135.88065 27.036189 
L 135.973783 27.036189 
L 136.253063 27.036189 
L 136.253063 22.324126 
L 136.34617 22.324126 
L 303.005 22.324126 
L 303.005 22.324126 
" style="fill:none;stroke:#d95f02;stroke-linecap:square;stroke-width:1.5;"/>
   </g>
   <g id="line2d_20">
    <path clip-path="url(#p2479a6e483)" d="M 55.905 201.382519 
L 65.865454 201.382519 
L 65.865454 196.670456 
L 65.958489 196.670456 
L 73.313865 196.670456 
L 73.313865 191.958393 
L 73.406978 191.958393 
L 73.686272 191.958393 
L 73.686272 187.24633 
L 73.779381 187.24633 
L 74.058658 187.24633 
L 74.058658 177.822204 
L 74.151817 177.822204 
L 74.431077 177.822204 
L 74.431077 173.110142 
L 74.524144 173.110142 
L 74.803496 173.110142 
L 74.803496 168.398079 
L 74.89663 168.398079 
L 75.175923 168.398079 
L 75.175923 163.686016 
L 75.269009 163.686016 
L 75.920747 163.686016 
L 75.920747 158.973953 
L 76.013955 158.973953 
L 82.251954 158.973953 
L 82.251954 149.549827 
L 82.345046 149.549827 
L 82.624333 149.549827 
L 82.624333 144.837764 
L 82.717437 144.837764 
L 84.114059 144.837764 
L 84.114059 140.125701 
L 84.207175 140.125701 
L 84.486479 140.125701 
L 84.486479 130.701575 
L 84.579634 130.701575 
L 118.376908 130.701575 
L 118.376908 125.989512 
L 118.46992 125.989512 
L 118.749293 125.989512 
L 118.749293 121.277449 
L 118.842349 121.277449 
L 119.121737 121.277449 
L 119.121737 116.565386 
L 119.214813 116.565386 
L 119.494119 116.565386 
L 119.494119 111.853323 
L 119.587218 111.853323 
L 119.86658 111.853323 
L 119.86658 102.429197 
L 119.959662 102.429197 
L 120.239007 102.429197 
L 120.239007 97.717134 
L 120.332098 97.717134 
L 126.94255 97.717134 
L 127.035662 83.580945 
L 127.035662 83.580945 
L 127.687412 83.580945 
L 127.687412 74.156819 
L 127.780504 74.156819 
L 128.804687 74.156819 
L 128.804687 69.444756 
L 128.897778 69.444756 
L 129.177112 69.444756 
L 129.177112 60.02063 
L 129.270223 60.02063 
L 129.549529 60.02063 
L 129.549529 36.460315 
L 129.642622 36.460315 
L 129.921895 36.460315 
L 129.921895 22.324126 
L 130.015089 22.324126 
L 135.508218 22.324126 
L 135.508218 27.036189 
L 135.601339 27.036189 
L 136.253063 27.036189 
L 136.253063 22.324126 
L 136.34617 22.324126 
L 226.379147 22.324126 
L 226.379147 27.036189 
L 226.472318 27.036189 
L 226.751647 27.036189 
L 226.751647 22.324126 
L 226.844767 22.324126 
L 243.138227 22.324126 
L 243.138227 27.036189 
L 243.231239 27.036189 
L 243.882969 27.036189 
L 243.882969 22.324126 
L 243.976075 22.324126 
L 244.627839 22.324126 
L 244.627839 27.036189 
L 244.720957 27.036189 
L 246.117605 27.036189 
L 246.117605 22.324126 
L 246.210655 22.324126 
L 303.005 22.324126 
L 303.005 22.324126 
" style="fill:none;stroke:#7570b3;stroke-linecap:square;stroke-width:1.5;"/>
   </g>
   <g id="line2d_21">
    <path clip-path="url(#p2479a6e483)" d="M 55.905 210.806645 
L 56.297392 210.806645 
L 56.297392 201.382519 
L 56.405877 201.382519 
L 58.044535 201.382519 
L 58.044535 196.670456 
L 58.150032 196.670456 
L 66.610198 196.670456 
L 66.610198 191.958393 
L 66.70337 191.958393 
L 73.686272 191.958393 
L 73.686272 177.822204 
L 73.779381 177.822204 
L 74.058658 177.822204 
L 74.058658 173.110142 
L 74.151817 173.110142 
L 74.431077 173.110142 
L 74.431077 154.26189 
L 74.524144 154.26189 
L 74.803496 154.26189 
L 74.803496 149.549827 
L 74.89663 149.549827 
L 75.175923 149.549827 
L 75.175923 140.125701 
L 75.269009 140.125701 
L 75.5484 140.125701 
L 75.5484 125.989512 
L 75.641481 125.989512 
L 82.251954 125.989512 
L 82.251954 121.277449 
L 82.345046 121.277449 
L 82.624333 121.277449 
L 82.624333 116.565386 
L 82.717437 116.565386 
L 83.741627 116.565386 
L 83.741627 111.853323 
L 83.834767 111.853323 
L 84.486479 111.853323 
L 84.486479 97.717134 
L 84.579634 97.717134 
L 84.85889 97.717134 
L 84.85889 93.005071 
L 84.952032 93.005071 
L 92.307312 93.005071 
L 92.307312 88.293008 
L 92.400433 88.293008 
L 92.679722 88.293008 
L 92.679722 83.580945 
L 92.772865 83.580945 
L 93.424618 83.580945 
L 93.424618 78.868882 
L 93.517669 78.868882 
L 94.541862 78.868882 
L 94.541862 74.156819 
L 94.635017 74.156819 
L 100.873085 74.156819 
L 100.873085 69.444756 
L 100.966147 69.444756 
L 118.376908 69.444756 
L 118.376908 45.884441 
L 118.46992 45.884441 
L 118.749293 45.884441 
L 118.749293 36.460315 
L 118.842349 36.460315 
L 119.121737 36.460315 
L 119.121737 31.748252 
L 119.214813 31.748252 
L 244.627839 31.748252 
L 244.627839 36.460315 
L 244.720957 36.460315 
L 245.000248 36.460315 
L 245.000248 31.748252 
L 245.093353 31.748252 
L 265.111024 31.748252 
L 265.111024 36.460315 
L 265.204194 36.460315 
L 265.483472 36.460315 
L 265.483472 31.748252 
L 265.576609 31.748252 
L 303.005 31.748252 
L 303.005 31.748252 
" style="fill:none;stroke:#e7298a;stroke-linecap:square;stroke-width:1.5;"/>
   </g>
   <g id="line2d_22">
    <path clip-path="url(#p2479a6e483)" d="M 55.905 191.958393 
L 73.686272 191.958393 
L 73.686272 187.24633 
L 73.779381 187.24633 
L 75.5484 187.24633 
L 75.5484 182.534267 
L 75.641481 182.534267 
L 76.293219 182.534267 
L 76.293219 177.822204 
L 76.386289 177.822204 
L 83.369217 177.822204 
L 83.369217 173.110142 
L 83.46233 173.110142 
L 84.114059 173.110142 
L 84.114059 168.398079 
L 84.207175 168.398079 
L 91.562454 168.398079 
L 91.562454 163.686016 
L 91.655562 163.686016 
L 118.004433 163.686016 
L 118.004433 154.26189 
L 118.097591 154.26189 
L 118.376908 154.26189 
L 118.376908 144.837764 
L 118.46992 144.837764 
L 119.494119 144.837764 
L 119.494119 140.125701 
L 119.587218 140.125701 
L 120.983842 140.125701 
L 120.983842 135.413638 
L 121.076926 135.413638 
L 127.687412 135.413638 
L 127.687412 130.701575 
L 127.780504 130.701575 
L 128.432191 130.701575 
L 128.432191 121.277449 
L 128.525379 121.277449 
L 129.177112 121.277449 
L 129.177112 116.565386 
L 129.270223 116.565386 
L 131.411647 116.565386 
L 131.411647 111.853323 
L 131.504734 111.853323 
L 135.508218 111.853323 
L 135.508218 107.14126 
L 135.601339 107.14126 
L 136.253063 107.14126 
L 136.253063 102.429197 
L 136.34617 102.429197 
L 136.625482 102.429197 
L 136.625482 93.005071 
L 136.718594 93.005071 
L 137.370384 93.005071 
L 137.370384 88.293008 
L 137.463494 88.293008 
L 137.74277 88.293008 
L 137.835911 74.156819 
L 137.835911 74.156819 
L 138.11524 74.156819 
L 138.11524 64.732693 
L 138.208358 64.732693 
L 139.604869 64.732693 
L 139.604869 69.444756 
L 139.697961 69.444756 
L 145.191197 69.444756 
L 145.191197 60.02063 
L 145.284329 60.02063 
L 145.56371 60.02063 
L 145.56371 55.308567 
L 145.656722 55.308567 
L 146.308501 55.308567 
L 146.308501 50.596504 
L 146.401621 50.596504 
L 146.680966 50.596504 
L 146.680966 41.172378 
L 146.773992 41.172378 
L 147.053389 41.172378 
L 147.053389 36.460315 
L 147.146413 36.460315 
L 147.798243 36.460315 
L 147.798243 31.748252 
L 147.891263 31.748252 
L 303.005 31.748252 
L 303.005 31.748252 
" style="fill:none;stroke:#66a61e;stroke-linecap:square;stroke-width:1.5;"/>
   </g>
   <g id="line2d_23">
    <path clip-path="url(#p2479a6e483)" d="M 55.905 196.670456 
L 65.865454 196.670456 
L 65.865454 191.958393 
L 65.958489 191.958393 
L 73.313865 191.958393 
L 73.313865 187.24633 
L 73.406978 187.24633 
L 73.686272 187.24633 
L 73.686272 182.534267 
L 73.779381 182.534267 
L 74.431077 182.534267 
L 74.431077 177.822204 
L 74.524144 177.822204 
L 74.803496 177.822204 
L 74.803496 173.110142 
L 74.89663 173.110142 
L 75.175923 173.110142 
L 75.175923 163.686016 
L 75.269009 163.686016 
L 75.5484 163.686016 
L 75.5484 158.973953 
L 75.641481 158.973953 
L 75.920747 158.973953 
L 75.920747 154.26189 
L 76.013955 154.26189 
L 81.87954 154.26189 
L 81.87954 149.549827 
L 81.97262 149.549827 
L 82.251954 149.549827 
L 82.251954 140.125701 
L 82.345046 140.125701 
L 82.996736 140.125701 
L 82.996736 135.413638 
L 83.089849 135.413638 
L 83.369217 135.413638 
L 83.369217 125.989512 
L 83.46233 125.989512 
L 84.114059 125.989512 
L 84.114059 121.277449 
L 84.207175 121.277449 
L 84.85889 121.277449 
L 84.85889 116.565386 
L 84.952032 116.565386 
L 85.231334 116.565386 
L 85.231334 111.853323 
L 85.324454 111.853323 
L 91.934957 111.853323 
L 91.934957 107.14126 
L 92.028003 107.14126 
L 93.424618 107.14126 
L 93.424618 102.429197 
L 93.517669 102.429197 
L 103.107525 102.429197 
L 103.107525 97.717134 
L 103.20064 97.717134 
L 118.004433 97.717134 
L 118.004433 93.005071 
L 118.097591 93.005071 
L 119.121737 93.005071 
L 119.121737 78.868882 
L 119.214813 78.868882 
L 119.494119 78.868882 
L 119.494119 69.444756 
L 119.587218 69.444756 
L 119.86658 69.444756 
L 119.86658 60.02063 
L 119.959662 60.02063 
L 120.983842 60.02063 
L 120.983842 55.308567 
L 121.076926 55.308567 
L 126.197723 55.308567 
L 126.197723 50.596504 
L 126.290824 50.596504 
L 127.314964 50.596504 
L 127.314964 45.884441 
L 127.408052 45.884441 
L 127.687412 45.884441 
L 127.687412 41.172378 
L 127.780504 41.172378 
L 128.059809 41.172378 
L 128.059809 36.460315 
L 128.152925 36.460315 
L 129.177112 36.460315 
L 129.177112 31.748252 
L 129.270223 31.748252 
L 303.005 31.748252 
L 303.005 31.748252 
" style="fill:none;stroke:#e6ab02;stroke-linecap:square;stroke-width:1.5;"/>
   </g>
   <g id="line2d_24">
    <path clip-path="url(#p2479a6e483)" d="M 55.905 201.382519 
L 66.610198 201.382519 
L 66.610198 196.670456 
L 66.70337 196.670456 
L 73.686272 196.670456 
L 73.686272 191.958393 
L 73.779381 191.958393 
L 75.175923 191.958393 
L 75.175923 187.24633 
L 75.269009 187.24633 
L 82.996736 187.24633 
L 82.996736 177.822204 
L 83.089849 177.822204 
L 83.741627 177.822204 
L 83.741627 173.110142 
L 83.834767 173.110142 
L 84.486479 173.110142 
L 84.486479 168.398079 
L 84.579634 168.398079 
L 84.85889 168.398079 
L 84.85889 163.686016 
L 84.952032 163.686016 
L 93.424618 163.686016 
L 93.424618 158.973953 
L 93.517669 158.973953 
L 101.990314 158.973953 
L 101.990314 154.26189 
L 102.083377 154.26189 
L 118.376908 154.26189 
L 118.376908 144.837764 
L 118.46992 144.837764 
L 119.121737 144.837764 
L 119.121737 140.125701 
L 119.214813 140.125701 
L 120.983842 140.125701 
L 120.983842 135.413638 
L 121.076926 135.413638 
L 126.94255 135.413638 
L 126.94255 130.701575 
L 127.035662 130.701575 
L 128.804687 130.701575 
L 128.804687 125.989512 
L 128.897778 125.989512 
L 129.177112 125.989512 
L 129.177112 121.277449 
L 129.270223 121.277449 
L 129.549529 121.277449 
L 129.642622 107.14126 
L 129.642622 107.14126 
L 135.88065 107.14126 
L 135.88065 102.429197 
L 135.973783 102.429197 
L 136.253063 102.429197 
L 136.253063 93.005071 
L 136.34617 93.005071 
L 136.625482 93.005071 
L 136.625482 88.293008 
L 136.718594 88.293008 
L 136.997942 88.293008 
L 137.091041 74.156819 
L 137.091041 74.156819 
L 137.74277 74.156819 
L 137.74277 60.02063 
L 137.835911 60.02063 
L 138.11524 60.02063 
L 138.11524 50.596504 
L 138.208358 50.596504 
L 138.487608 50.596504 
L 138.487608 31.748252 
L 138.580714 31.748252 
L 138.860079 31.748252 
L 138.860079 27.036189 
L 138.953181 27.036189 
L 140.722204 27.036189 
L 140.722204 22.324126 
L 140.815309 22.324126 
L 243.138227 22.324126 
L 243.138227 27.036189 
L 243.231239 27.036189 
L 243.510645 27.036189 
L 243.510645 22.324126 
L 243.603746 22.324126 
L 244.255448 22.324126 
L 244.255448 27.036189 
L 244.34859 27.036189 
L 245.372671 27.036189 
L 245.372671 31.748252 
L 245.465853 31.748252 
L 246.117605 31.748252 
L 246.117605 36.460315 
L 246.210655 36.460315 
L 256.172924 36.460315 
L 256.172924 41.172378 
L 256.266075 41.172378 
L 278.145851 41.172378 
L 278.145851 36.460315 
L 278.238967 36.460315 
L 303.005 36.460315 
L 303.005 36.460315 
" style="fill:none;stroke:#a6761d;stroke-linecap:square;stroke-width:1.5;"/>
   </g>
   <g id="line2d_25">
    <path clip-path="url(#p2479a6e483)" d="M 55.905 201.382519 
L 74.058658 201.382519 
L 74.058658 196.670456 
L 74.151817 196.670456 
L 75.175923 196.670456 
L 75.175923 191.958393 
L 75.269009 191.958393 
L 83.369217 191.958393 
L 83.369217 187.24633 
L 83.46233 187.24633 
L 84.114059 187.24633 
L 84.114059 191.958393 
L 84.207175 191.958393 
L 84.486479 191.958393 
L 84.486479 182.534267 
L 84.579634 182.534267 
L 118.376908 182.534267 
L 118.376908 177.822204 
L 118.46992 177.822204 
L 119.121737 177.822204 
L 119.121737 173.110142 
L 119.214813 173.110142 
L 119.86658 173.110142 
L 119.86658 168.398079 
L 119.959662 168.398079 
L 120.239007 168.398079 
L 120.239007 163.686016 
L 120.332098 163.686016 
L 122.101055 163.686016 
L 122.101055 158.973953 
L 122.194137 158.973953 
L 128.059809 158.973953 
L 128.059809 154.26189 
L 128.152925 154.26189 
L 129.177112 154.26189 
L 129.177112 149.549827 
L 129.270223 149.549827 
L 129.549529 149.549827 
L 129.549529 144.837764 
L 129.642622 144.837764 
L 135.88065 144.837764 
L 135.88065 135.413638 
L 135.973783 135.413638 
L 136.253063 135.413638 
L 136.253063 130.701575 
L 136.34617 130.701575 
L 136.625482 130.701575 
L 136.718594 116.565386 
L 136.718594 116.565386 
L 138.11524 116.565386 
L 138.11524 111.853323 
L 138.208358 111.853323 
L 138.487608 111.853323 
L 138.487608 107.14126 
L 138.580714 107.14126 
L 138.860079 107.14126 
L 138.860079 111.853323 
L 138.953181 111.853323 
L 139.232469 111.853323 
L 139.232469 107.14126 
L 139.325596 107.14126 
L 139.604869 107.14126 
L 139.604869 102.429197 
L 139.697961 102.429197 
L 144.07399 102.429197 
L 144.07399 107.14126 
L 144.167024 107.14126 
L 145.191197 107.14126 
L 145.191197 93.005071 
L 145.284329 93.005071 
L 145.936066 93.005071 
L 145.936066 88.293008 
L 146.029217 88.293008 
L 146.680966 88.293008 
L 146.680966 69.444756 
L 146.773992 69.444756 
L 147.053389 69.444756 
L 147.053389 64.732693 
L 147.146413 64.732693 
L 155.246599 64.732693 
L 155.246599 60.02063 
L 155.339741 60.02063 
L 185.412841 60.02063 
L 185.412841 55.308567 
L 185.505889 55.308567 
L 191.371573 55.308567 
L 191.371573 50.596504 
L 191.464659 50.596504 
L 191.743951 50.596504 
L 191.743951 55.308567 
L 191.837039 55.308567 
L 192.488798 55.308567 
L 192.488798 50.596504 
L 192.581875 50.596504 
L 201.426983 50.596504 
L 201.426983 45.884441 
L 201.520186 45.884441 
L 216.696186 45.884441 
L 216.696186 50.596504 
L 216.789303 50.596504 
L 227.124017 50.596504 
L 227.124017 45.884441 
L 227.217127 45.884441 
L 243.138227 45.884441 
L 243.138227 50.596504 
L 243.231239 50.596504 
L 243.882969 50.596504 
L 243.882969 55.308567 
L 243.976075 55.308567 
L 245.000248 55.308567 
L 245.000248 60.02063 
L 245.093353 60.02063 
L 255.428076 60.02063 
L 255.428076 64.732693 
L 255.521156 64.732693 
L 271.44219 64.732693 
L 271.44219 69.444756 
L 271.535375 69.444756 
L 303.005 69.444756 
L 303.005 69.444756 
" style="fill:none;stroke:#666666;stroke-linecap:square;stroke-width:1.5;"/>
   </g>
   <g id="line2d_26">
    <path clip-path="url(#p2479a6e483)" d="M 55.905 196.670456 
L 64.183288 196.670456 
L 64.183288 191.958393 
L 75.175923 191.958393 
L 75.175923 187.24633 
L 75.269009 187.24633 
L 82.624333 187.24633 
L 82.624333 182.534267 
L 82.717437 182.534267 
L 83.369217 182.534267 
L 83.369217 177.822204 
L 83.46233 177.822204 
L 84.486479 177.822204 
L 84.486479 173.110142 
L 84.579634 173.110142 
L 84.85889 173.110142 
L 84.85889 168.398079 
L 84.952032 168.398079 
L 87.093438 168.398079 
L 87.093438 163.686016 
L 87.186552 163.686016 
L 119.121737 163.686016 
L 119.121737 154.26189 
L 119.214813 154.26189 
L 127.687412 154.26189 
L 127.687412 149.549827 
L 127.780504 149.549827 
L 129.549529 149.549827 
L 129.549529 144.837764 
L 129.642622 144.837764 
L 130.666826 144.837764 
L 130.666826 140.125701 
L 130.759923 140.125701 
L 136.253063 140.125701 
L 136.253063 135.413638 
L 136.34617 135.413638 
L 136.625482 135.413638 
L 136.625482 125.989512 
L 136.718594 125.989512 
L 137.74277 125.989512 
L 137.74277 116.565386 
L 137.835911 116.565386 
L 145.936066 116.565386 
L 145.936066 111.853323 
L 146.029217 111.853323 
L 147.053389 111.853323 
L 147.053389 107.14126 
L 147.146413 107.14126 
L 148.170579 107.14126 
L 148.170579 102.429197 
L 148.263697 102.429197 
L 157.481185 102.429197 
L 157.481185 97.717134 
L 157.574204 97.717134 
L 183.178275 97.717134 
L 183.178275 93.005071 
L 183.271342 93.005071 
L 191.743951 93.005071 
L 191.743951 88.293008 
L 191.837039 88.293008 
L 201.426983 88.293008 
L 201.426983 93.005071 
L 201.520186 93.005071 
L 244.255448 93.005071 
L 244.255448 88.293008 
L 244.34859 88.293008 
L 244.627839 88.293008 
L 244.627839 93.005071 
L 244.720957 93.005071 
L 253.938422 93.005071 
L 253.938422 88.293008 
L 254.031537 88.293008 
L 303.005 88.293008 
L 303.005 88.293008 
" style="fill:none;stroke:#1b9e77;stroke-dasharray:4.5,1.5;stroke-dashoffset:0;stroke-width:1.5;"/>
   </g>
   <g id="line2d_27">
    <path clip-path="url(#p2479a6e483)" d="M 55.905 206.094582 
L 73.313865 206.094582 
L 73.313865 201.382519 
L 73.406978 201.382519 
L 73.686272 201.382519 
L 73.686272 196.670456 
L 73.779381 196.670456 
L 75.175923 196.670456 
L 75.175923 187.24633 
L 75.269009 187.24633 
L 82.251954 187.24633 
L 82.251954 182.534267 
L 82.345046 182.534267 
L 84.114059 182.534267 
L 84.114059 177.822204 
L 84.207175 177.822204 
L 84.486479 177.822204 
L 84.486479 173.110142 
L 84.579634 173.110142 
L 84.85889 173.110142 
L 84.85889 168.398079 
L 84.952032 168.398079 
L 118.749293 168.398079 
L 118.749293 163.686016 
L 118.842349 163.686016 
L 119.121737 163.686016 
L 119.121737 158.973953 
L 119.214813 158.973953 
L 119.494119 158.973953 
L 119.494119 149.549827 
L 119.587218 149.549827 
L 128.804687 149.549827 
L 128.804687 144.837764 
L 128.897778 144.837764 
L 129.177112 144.837764 
L 129.177112 140.125701 
L 129.270223 140.125701 
L 135.508218 140.125701 
L 135.508218 144.837764 
L 135.601339 144.837764 
L 136.625482 144.837764 
L 136.625482 135.413638 
L 136.718594 135.413638 
L 136.997942 135.413638 
L 136.997942 140.125701 
L 137.091041 140.125701 
L 137.370384 140.125701 
L 137.370384 135.413638 
L 137.463494 135.413638 
L 138.11524 135.413638 
L 138.11524 125.989512 
L 138.208358 125.989512 
L 138.487608 125.989512 
L 138.487608 121.277449 
L 138.580714 121.277449 
L 155.991428 121.277449 
L 155.991428 116.565386 
L 156.084581 116.565386 
L 157.108759 116.565386 
L 157.108759 111.853323 
L 157.201882 111.853323 
L 174.984952 111.853323 
L 174.984952 107.14126 
L 175.078101 107.14126 
L 208.875343 107.14126 
L 208.875343 102.429197 
L 208.968481 102.429197 
L 210.365028 102.429197 
L 210.365028 97.717134 
L 210.458163 97.717134 
L 217.813523 97.717134 
L 217.813523 93.005071 
L 217.906585 93.005071 
L 247.234866 93.005071 
L 247.234866 88.293008 
L 247.327949 88.293008 
L 303.005 88.293008 
L 303.005 88.293008 
" style="fill:none;stroke:#d95f02;stroke-dasharray:4.5,1.5;stroke-dashoffset:0;stroke-width:1.5;"/>
   </g>
   <g id="line2d_28">
    <path clip-path="url(#p2479a6e483)" d="M 55.905 210.806645 
L 65.49332 210.806645 
L 65.49332 206.094582 
L 65.586083 206.094582 
L 66.237856 206.094582 
L 66.237856 201.382519 
L 66.330921 201.382519 
L 74.803496 201.382519 
L 74.803496 196.670456 
L 74.89663 196.670456 
L 84.486479 196.670456 
L 84.486479 191.958393 
L 84.579634 191.958393 
L 90.445242 191.958393 
L 90.445242 187.24633 
L 90.53843 187.24633 
L 92.307312 187.24633 
L 92.307312 182.534267 
L 92.400433 182.534267 
L 93.052189 182.534267 
L 93.052189 177.822204 
L 93.145315 177.822204 
L 118.004433 177.822204 
L 118.004433 168.398079 
L 118.097591 168.398079 
L 118.749293 168.398079 
L 118.749293 163.686016 
L 118.842349 163.686016 
L 119.121737 163.686016 
L 119.121737 158.973953 
L 119.214813 158.973953 
L 119.494119 158.973953 
L 119.494119 154.26189 
L 119.587218 154.26189 
L 119.86658 154.26189 
L 119.86658 144.837764 
L 119.959662 144.837764 
L 120.239007 144.837764 
L 120.239007 140.125701 
L 120.332098 140.125701 
L 120.983842 140.125701 
L 120.983842 135.413638 
L 121.076926 135.413638 
L 121.728718 135.413638 
L 121.728718 130.701575 
L 121.821709 130.701575 
L 122.845883 130.701575 
L 122.845883 125.989512 
L 122.93899 125.989512 
L 126.94255 125.989512 
L 126.94255 121.277449 
L 127.035662 121.277449 
L 127.314964 121.277449 
L 127.314964 116.565386 
L 127.408052 116.565386 
L 127.687412 116.565386 
L 127.687412 102.429197 
L 127.780504 102.429197 
L 128.059809 102.429197 
L 128.059809 97.717134 
L 128.152925 97.717134 
L 128.432191 97.717134 
L 128.432191 93.005071 
L 128.525379 93.005071 
L 131.784 93.005071 
L 131.784 97.717134 
L 131.877202 97.717134 
L 136.625482 97.717134 
L 136.625482 93.005071 
L 136.718594 93.005071 
L 136.997942 93.005071 
L 136.997942 97.717134 
L 137.091041 97.717134 
L 137.370384 97.717134 
L 137.370384 93.005071 
L 137.463494 93.005071 
L 147.798243 93.005071 
L 147.798243 97.717134 
L 147.891263 97.717134 
L 148.170579 97.717134 
L 148.170579 93.005071 
L 148.263697 93.005071 
L 303.005 93.005071 
L 303.005 93.005071 
" style="fill:none;stroke:#7570b3;stroke-dasharray:4.5,1.5;stroke-dashoffset:0;stroke-width:1.5;"/>
   </g>
   <g id="line2d_29">
    <path clip-path="url(#p2479a6e483)" d="M 55.905 206.094582 
L 74.058658 206.094582 
L 74.058658 201.382519 
L 74.151817 201.382519 
L 84.114059 201.382519 
L 84.114059 191.958393 
L 84.207175 191.958393 
L 118.004433 191.958393 
L 118.004433 187.24633 
L 118.097591 187.24633 
L 118.749293 187.24633 
L 118.749293 182.534267 
L 118.842349 182.534267 
L 119.86658 182.534267 
L 119.86658 177.822204 
L 119.959662 177.822204 
L 126.94255 177.822204 
L 126.94255 173.110142 
L 127.035662 173.110142 
L 127.314964 173.110142 
L 127.314964 163.686016 
L 127.408052 163.686016 
L 127.687412 163.686016 
L 127.687412 158.973953 
L 127.780504 158.973953 
L 128.432191 158.973953 
L 128.432191 154.26189 
L 128.525379 154.26189 
L 128.804687 154.26189 
L 128.804687 144.837764 
L 128.897778 144.837764 
L 129.177112 144.837764 
L 129.177112 135.413638 
L 129.270223 135.413638 
L 130.666826 135.413638 
L 130.666826 130.701575 
L 130.759923 130.701575 
L 131.411647 130.701575 
L 131.411647 125.989512 
L 131.504734 125.989512 
L 131.784 125.989512 
L 131.784 130.701575 
L 131.877202 130.701575 
L 135.135835 130.701575 
L 135.135835 135.413638 
L 135.228971 135.413638 
L 135.508218 135.413638 
L 135.508218 140.125701 
L 135.601339 140.125701 
L 135.88065 140.125701 
L 135.88065 135.413638 
L 135.973783 135.413638 
L 136.253063 135.413638 
L 136.253063 140.125701 
L 136.34617 140.125701 
L 136.625482 140.125701 
L 136.625482 135.413638 
L 136.718594 135.413638 
L 136.997942 135.413638 
L 136.997942 130.701575 
L 137.091041 130.701575 
L 137.74277 130.701575 
L 137.74277 135.413638 
L 137.835911 135.413638 
L 146.308501 135.413638 
L 146.308501 130.701575 
L 146.401621 130.701575 
L 147.053389 130.701575 
L 147.053389 125.989512 
L 147.146413 125.989512 
L 155.61907 125.989512 
L 155.61907 121.277449 
L 155.71211 121.277449 
L 158.225992 121.277449 
L 158.225992 116.565386 
L 158.319139 116.565386 
L 182.060998 116.565386 
L 182.060998 111.853323 
L 182.154051 111.853323 
L 182.433415 111.853323 
L 182.433415 107.14126 
L 182.526473 107.14126 
L 183.923064 107.14126 
L 183.923064 102.429197 
L 184.016282 102.429197 
L 201.426983 102.429197 
L 201.426983 97.717134 
L 201.520186 97.717134 
L 202.54415 97.717134 
L 202.54415 93.005071 
L 202.637346 93.005071 
L 221.165304 93.005071 
L 221.165304 88.293008 
L 221.258349 88.293008 
L 229.358546 88.293008 
L 229.358546 93.005071 
L 229.451711 93.005071 
L 243.882969 93.005071 
L 243.882969 97.717134 
L 243.976075 97.717134 
L 303.005 97.717134 
L 303.005 97.717134 
" style="fill:none;stroke:#e7298a;stroke-dasharray:4.5,1.5;stroke-dashoffset:0;stroke-width:1.5;"/>
   </g>
   <g id="line2d_30">
    <path clip-path="url(#p2479a6e483)" d="M 223.120482 210.806645 
L 226.379147 210.806645 
L 226.379147 206.094582 
L 226.472318 206.094582 
L 237.55188 206.094582 
L 237.55188 201.382519 
L 237.644956 201.382519 
L 243.138227 201.382519 
L 243.138227 182.534267 
L 243.231239 182.534267 
L 243.882969 182.534267 
L 243.882969 173.110142 
L 243.976075 173.110142 
L 244.627839 173.110142 
L 244.627839 158.973953 
L 244.720957 158.973953 
L 245.372671 158.973953 
L 245.372671 154.26189 
L 245.465853 154.26189 
L 252.821185 154.26189 
L 252.821185 149.549827 
L 252.914233 149.549827 
L 254.683272 149.549827 
L 254.683272 144.837764 
L 254.776319 144.837764 
L 255.428076 144.837764 
L 255.428076 140.125701 
L 255.521156 140.125701 
L 256.172924 140.125701 
L 256.172924 135.413638 
L 256.266075 135.413638 
L 256.545358 135.413638 
L 256.545358 130.701575 
L 256.638403 130.701575 
L 261.759288 130.701575 
L 261.759288 125.989512 
L 261.85235 125.989512 
L 265.111024 125.989512 
L 265.111024 121.277449 
L 265.204194 121.277449 
L 271.44219 121.277449 
L 271.44219 116.565386 
L 271.535375 116.565386 
L 303.005 116.565386 
L 303.005 116.565386 
" style="fill:none;stroke:#66a61e;stroke-dasharray:4.5,1.5;stroke-dashoffset:0;stroke-width:1.5;"/>
   </g>
   <g id="line2d_31">
    <path clip-path="url(#p2479a6e483)" d="M 55.905 206.094582 
L 74.431077 206.094582 
L 74.431077 196.670456 
L 74.524144 196.670456 
L 82.624333 196.670456 
L 82.624333 187.24633 
L 82.717437 187.24633 
L 82.996736 187.24633 
L 82.996736 182.534267 
L 83.089849 182.534267 
L 84.486479 182.534267 
L 84.486479 177.822204 
L 84.579634 177.822204 
L 84.85889 177.822204 
L 84.85889 173.110142 
L 84.952032 173.110142 
L 119.494119 173.110142 
L 119.494119 168.398079 
L 119.587218 168.398079 
L 119.86658 168.398079 
L 119.86658 163.686016 
L 119.959662 163.686016 
L 120.239007 163.686016 
L 120.239007 158.973953 
L 120.332098 158.973953 
L 121.35619 158.973953 
L 121.35619 154.26189 
L 121.449379 154.26189 
L 121.728718 154.26189 
L 121.728718 158.973953 
L 121.821709 158.973953 
L 126.94255 158.973953 
L 126.94255 140.125701 
L 127.035662 140.125701 
L 127.687412 140.125701 
L 127.687412 130.701575 
L 127.780504 130.701575 
L 128.059809 130.701575 
L 128.059809 125.989512 
L 128.152925 125.989512 
L 128.432191 125.989512 
L 128.432191 116.565386 
L 128.525379 116.565386 
L 303.005 116.565386 
L 303.005 116.565386 
" style="fill:none;stroke:#e6ab02;stroke-dasharray:4.5,1.5;stroke-dashoffset:0;stroke-width:1.5;"/>
   </g>
   <g id="line2d_32">
    <path clip-path="url(#p2479a6e483)" d="M 55.905 210.806645 
L 66.982612 210.806645 
L 66.982612 206.094582 
L 67.075759 206.094582 
L 68.472373 206.094582 
L 68.472373 201.382519 
L 68.565425 201.382519 
L 91.934957 201.382519 
L 91.934957 196.670456 
L 92.028003 196.670456 
L 118.004433 196.670456 
L 118.004433 191.958393 
L 118.097591 191.958393 
L 120.611373 191.958393 
L 120.611373 182.534267 
L 120.70446 182.534267 
L 127.687412 182.534267 
L 127.687412 177.822204 
L 127.780504 177.822204 
L 128.059809 177.822204 
L 128.059809 173.110142 
L 128.152925 173.110142 
L 129.177112 173.110142 
L 129.177112 163.686016 
L 129.270223 163.686016 
L 129.549529 163.686016 
L 129.549529 158.973953 
L 129.642622 158.973953 
L 131.784 158.973953 
L 131.784 154.26189 
L 131.877202 154.26189 
L 136.253063 154.26189 
L 136.253063 158.973953 
L 136.34617 158.973953 
L 136.997942 158.973953 
L 136.997942 154.26189 
L 137.091041 154.26189 
L 137.370384 154.26189 
L 137.370384 149.549827 
L 137.463494 149.549827 
L 138.11524 149.549827 
L 138.11524 144.837764 
L 138.208358 144.837764 
L 138.487608 144.837764 
L 138.487608 149.549827 
L 138.580714 149.549827 
L 138.860079 149.549827 
L 138.860079 144.837764 
L 138.953181 144.837764 
L 145.191197 144.837764 
L 145.191197 140.125701 
L 145.284329 140.125701 
L 157.108759 140.125701 
L 157.108759 135.413638 
L 157.201882 135.413638 
L 182.060998 135.413638 
L 182.060998 130.701575 
L 182.154051 130.701575 
L 217.44105 130.701575 
L 217.44105 125.989512 
L 217.53422 125.989512 
L 261.759288 125.989512 
L 261.759288 121.277449 
L 261.85235 121.277449 
L 303.005 121.277449 
L 303.005 121.277449 
" style="fill:none;stroke:#a6761d;stroke-dasharray:4.5,1.5;stroke-dashoffset:0;stroke-width:1.5;"/>
   </g>
   <g id="line2d_33">
    <path clip-path="url(#p2479a6e483)" d="M 55.905 210.806645 
L 75.175923 210.806645 
L 75.175923 206.094582 
L 75.269009 206.094582 
L 75.5484 206.094582 
L 75.5484 201.382519 
L 75.641481 201.382519 
L 82.996736 201.382519 
L 82.996736 196.670456 
L 83.089849 196.670456 
L 84.85889 196.670456 
L 84.85889 191.958393 
L 84.952032 191.958393 
L 85.603734 191.958393 
L 85.603734 187.24633 
L 85.696859 187.24633 
L 86.348616 187.24633 
L 86.348616 182.534267 
L 86.441727 182.534267 
L 91.934957 182.534267 
L 91.934957 187.24633 
L 92.028003 187.24633 
L 118.376908 187.24633 
L 118.376908 182.534267 
L 118.46992 182.534267 
L 120.611373 182.534267 
L 120.611373 173.110142 
L 120.70446 173.110142 
L 127.314964 173.110142 
L 127.314964 168.398079 
L 127.408052 168.398079 
L 128.804687 168.398079 
L 128.804687 149.549827 
L 128.897778 149.549827 
L 129.177112 149.549827 
L 129.177112 144.837764 
L 129.270223 144.837764 
L 129.549529 144.837764 
L 129.549529 140.125701 
L 129.642622 140.125701 
L 243.882969 140.125701 
L 243.882969 144.837764 
L 243.976075 144.837764 
L 244.255448 144.837764 
L 244.255448 140.125701 
L 244.34859 140.125701 
L 303.005 140.125701 
L 303.005 140.125701 
" style="fill:none;stroke:#666666;stroke-dasharray:4.5,1.5;stroke-dashoffset:0;stroke-width:1.5;"/>
   </g>
   <g id="line2d_34"/>
   <g id="line2d_35"/>
   <g id="line2d_36"/>
   <g id="line2d_37"/>
   <g id="line2d_38"/>
   <g id="line2d_39"/>
   <g id="line2d_40"/>
   <g id="line2d_41"/>
   <g id="line2d_42"/>
   <g id="line2d_43"/>
   <g id="line2d_44"/>
   <g id="line2d_45"/>
   <g id="line2d_46"/>
   <g id="line2d_47"/>
   <g id="line2d_48"/>
   <g id="line2d_49"/>
   <g id="line2d_50"/>
   <g id="patch_3">
    <path d="M 43.55 220.230771 
L 43.55 12.9 
" style="fill:none;stroke:#000000;stroke-linecap:square;stroke-linejoin:miter;stroke-width:0.8;"/>
   </g>
   <g id="patch_4">
    <path d="M 315.36 220.230771 
L 315.36 12.9 
" style="fill:none;stroke:#000000;stroke-linecap:square;stroke-linejoin:miter;stroke-width:0.8;"/>
   </g>
   <g id="patch_5">
    <path d="M 43.55 220.230771 
L 315.36 220.230771 
" style="fill:none;stroke:#000000;stroke-linecap:square;stroke-linejoin:miter;stroke-width:0.8;"/>
   </g>
   <g id="patch_6">
    <path d="M 43.55 12.9 
L 315.36 12.9 
" style="fill:none;stroke:#000000;stroke-linecap:square;stroke-linejoin:miter;stroke-width:0.8;"/>
   </g>
  </g>
  <g id="legend_1">
   <g id="patch_7">
    <path d="M 331.8625 262.528125 
L 420 262.528125 
Q 422 262.528125 422 260.528125 
L 422 12 
Q 422 10 420 10 
L 331.8625 10 
Q 329.8625 10 329.8625 12 
L 329.8625 260.528125 
Q 329.8625 262.528125 331.8625 262.528125 
z
" style="fill:#ffffff;opacity:0.8;stroke:#cccccc;stroke-linejoin:miter;"/>
   </g>
   <g id="text_20">
    <!-- 476/610 Reg. -->
    <defs>
     <path d="M 33.015625 40.375 
Q 26.375 40.375 22.484375 35.828125 
Q 18.609375 31.296875 18.609375 23.390625 
Q 18.609375 15.53125 22.484375 10.953125 
Q 26.375 6.390625 33.015625 6.390625 
Q 39.65625 6.390625 43.53125 10.953125 
Q 47.40625 15.53125 47.40625 23.390625 
Q 47.40625 31.296875 43.53125 35.828125 
Q 39.65625 40.375 33.015625 40.375 
z
M 52.59375 71.296875 
L 52.59375 62.3125 
Q 48.875 64.0625 45.09375 64.984375 
Q 41.3125 65.921875 37.59375 65.921875 
Q 27.828125 65.921875 22.671875 59.328125 
Q 17.53125 52.734375 16.796875 39.40625 
Q 19.671875 43.65625 24.015625 45.921875 
Q 28.375 48.1875 33.59375 48.1875 
Q 44.578125 48.1875 50.953125 41.515625 
Q 57.328125 34.859375 57.328125 23.390625 
Q 57.328125 12.15625 50.6875 5.359375 
Q 44.046875 -1.421875 33.015625 -1.421875 
Q 20.359375 -1.421875 13.671875 8.265625 
Q 6.984375 17.96875 6.984375 36.375 
Q 6.984375 53.65625 15.1875 63.9375 
Q 23.390625 74.21875 37.203125 74.21875 
Q 40.921875 74.21875 44.703125 73.484375 
Q 48.484375 72.75 52.59375 71.296875 
z
" id="DejaVuSans-54"/>
     <path d="M 25.390625 72.90625 
L 33.6875 72.90625 
L 8.296875 -9.28125 
L 0 -9.28125 
z
" id="DejaVuSans-47"/>
     <path d="M 10.6875 12.40625 
L 21 12.40625 
L 21 0 
L 10.6875 0 
z
" id="DejaVuSans-46"/>
    </defs>
    <g transform="translate(342.259375 21.598437)scale(0.1 -0.1)">
     <use xlink:href="#DejaVuSans-52"/>
     <use x="63.623047" xlink:href="#DejaVuSans-55"/>
     <use x="127.246094" xlink:href="#DejaVuSans-54"/>
     <use x="190.869141" xlink:href="#DejaVuSans-47"/>
     <use x="224.560547" xlink:href="#DejaVuSans-54"/>
     <use x="288.183594" xlink:href="#DejaVuSans-49"/>
     <use x="351.806641" xlink:href="#DejaVuSans-48"/>
     <use x="415.429688" xlink:href="#DejaVuSans-32"/>
     <use x="447.216797" xlink:href="#DejaVuSans-82"/>
     <use x="516.636719" xlink:href="#DejaVuSans-101"/>
     <use x="578.160156" xlink:href="#DejaVuSans-103"/>
     <use x="641.636719" xlink:href="#DejaVuSans-46"/>
    </g>
   </g>
   <g id="line2d_51">
    <path d="M 333.8625 32.776562 
L 353.8625 32.776562 
" style="fill:none;stroke:#1b9e77;stroke-linecap:square;stroke-width:1.5;"/>
   </g>
   <g id="line2d_52"/>
   <g id="text_21">
    <!-- AUS (40) -->
    <defs>
     <path d="M 34.1875 63.1875 
L 20.796875 26.90625 
L 47.609375 26.90625 
z
M 28.609375 72.90625 
L 39.796875 72.90625 
L 67.578125 0 
L 57.328125 0 
L 50.6875 18.703125 
L 17.828125 18.703125 
L 11.1875 0 
L 0.78125 0 
z
" id="DejaVuSans-65"/>
     <path d="M 8.6875 72.90625 
L 18.609375 72.90625 
L 18.609375 28.609375 
Q 18.609375 16.890625 22.84375 11.734375 
Q 27.09375 6.59375 36.625 6.59375 
Q 46.09375 6.59375 50.34375 11.734375 
Q 54.59375 16.890625 54.59375 28.609375 
L 54.59375 72.90625 
L 64.5 72.90625 
L 64.5 27.390625 
Q 64.5 13.140625 57.4375 5.859375 
Q 50.390625 -1.421875 36.625 -1.421875 
Q 22.796875 -1.421875 15.734375 5.859375 
Q 8.6875 13.140625 8.6875 27.390625 
z
" id="DejaVuSans-85"/>
     <path d="M 31 75.875 
Q 24.46875 64.65625 21.28125 53.65625 
Q 18.109375 42.671875 18.109375 31.390625 
Q 18.109375 20.125 21.3125 9.0625 
Q 24.515625 -2 31 -13.1875 
L 23.1875 -13.1875 
Q 15.875 -1.703125 12.234375 9.375 
Q 8.59375 20.453125 8.59375 31.390625 
Q 8.59375 42.28125 12.203125 53.3125 
Q 15.828125 64.359375 23.1875 75.875 
z
" id="DejaVuSans-40"/>
     <path d="M 8.015625 75.875 
L 15.828125 75.875 
Q 23.140625 64.359375 26.78125 53.3125 
Q 30.421875 42.28125 30.421875 31.390625 
Q 30.421875 20.453125 26.78125 9.375 
Q 23.140625 -1.703125 15.828125 -13.1875 
L 8.015625 -13.1875 
Q 14.5 -2 17.703125 9.0625 
Q 20.90625 20.125 20.90625 31.390625 
Q 20.90625 42.671875 17.703125 53.65625 
Q 14.5 64.65625 8.015625 75.875 
z
" id="DejaVuSans-41"/>
    </defs>
    <g transform="translate(361.8625 36.276562)scale(0.1 -0.1)">
     <use xlink:href="#DejaVuSans-65"/>
     <use x="68.408203" xlink:href="#DejaVuSans-85"/>
     <use x="141.601562" xlink:href="#DejaVuSans-83"/>
     <use x="205.078125" xlink:href="#DejaVuSans-32"/>
     <use x="236.865234" xlink:href="#DejaVuSans-40"/>
     <use x="275.878906" xlink:href="#DejaVuSans-52"/>
     <use x="339.501953" xlink:href="#DejaVuSans-48"/>
     <use x="403.125" xlink:href="#DejaVuSans-41"/>
    </g>
   </g>
   <g id="line2d_53">
    <path d="M 333.8625 47.454688 
L 353.8625 47.454688 
" style="fill:none;stroke:#d95f02;stroke-linecap:square;stroke-width:1.5;"/>
   </g>
   <g id="line2d_54"/>
   <g id="text_22">
    <!-- COML (40) -->
    <defs>
     <path d="M 64.40625 67.28125 
L 64.40625 56.890625 
Q 59.421875 61.53125 53.78125 63.8125 
Q 48.140625 66.109375 41.796875 66.109375 
Q 29.296875 66.109375 22.65625 58.46875 
Q 16.015625 50.828125 16.015625 36.375 
Q 16.015625 21.96875 22.65625 14.328125 
Q 29.296875 6.6875 41.796875 6.6875 
Q 48.140625 6.6875 53.78125 8.984375 
Q 59.421875 11.28125 64.40625 15.921875 
L 64.40625 5.609375 
Q 59.234375 2.09375 53.4375 0.328125 
Q 47.65625 -1.421875 41.21875 -1.421875 
Q 24.65625 -1.421875 15.125 8.703125 
Q 5.609375 18.84375 5.609375 36.375 
Q 5.609375 53.953125 15.125 64.078125 
Q 24.65625 74.21875 41.21875 74.21875 
Q 47.75 74.21875 53.53125 72.484375 
Q 59.328125 70.75 64.40625 67.28125 
z
" id="DejaVuSans-67"/>
     <path d="M 39.40625 66.21875 
Q 28.65625 66.21875 22.328125 58.203125 
Q 16.015625 50.203125 16.015625 36.375 
Q 16.015625 22.609375 22.328125 14.59375 
Q 28.65625 6.59375 39.40625 6.59375 
Q 50.140625 6.59375 56.421875 14.59375 
Q 62.703125 22.609375 62.703125 36.375 
Q 62.703125 50.203125 56.421875 58.203125 
Q 50.140625 66.21875 39.40625 66.21875 
z
M 39.40625 74.21875 
Q 54.734375 74.21875 63.90625 63.9375 
Q 73.09375 53.65625 73.09375 36.375 
Q 73.09375 19.140625 63.90625 8.859375 
Q 54.734375 -1.421875 39.40625 -1.421875 
Q 24.03125 -1.421875 14.8125 8.828125 
Q 5.609375 19.09375 5.609375 36.375 
Q 5.609375 53.65625 14.8125 63.9375 
Q 24.03125 74.21875 39.40625 74.21875 
z
" id="DejaVuSans-79"/>
     <path d="M 9.8125 72.90625 
L 24.515625 72.90625 
L 43.109375 23.296875 
L 61.8125 72.90625 
L 76.515625 72.90625 
L 76.515625 0 
L 66.890625 0 
L 66.890625 64.015625 
L 48.09375 14.015625 
L 38.1875 14.015625 
L 19.390625 64.015625 
L 19.390625 0 
L 9.8125 0 
z
" id="DejaVuSans-77"/>
     <path d="M 9.8125 72.90625 
L 19.671875 72.90625 
L 19.671875 8.296875 
L 55.171875 8.296875 
L 55.171875 0 
L 9.8125 0 
z
" id="DejaVuSans-76"/>
    </defs>
    <g transform="translate(361.8625 50.954688)scale(0.1 -0.1)">
     <use xlink:href="#DejaVuSans-67"/>
     <use x="69.824219" xlink:href="#DejaVuSans-79"/>
     <use x="148.535156" xlink:href="#DejaVuSans-77"/>
     <use x="234.814453" xlink:href="#DejaVuSans-76"/>
     <use x="290.527344" xlink:href="#DejaVuSans-32"/>
     <use x="322.314453" xlink:href="#DejaVuSans-40"/>
     <use x="361.328125" xlink:href="#DejaVuSans-52"/>
     <use x="424.951172" xlink:href="#DejaVuSans-48"/>
     <use x="488.574219" xlink:href="#DejaVuSans-41"/>
    </g>
   </g>
   <g id="line2d_55">
    <path d="M 333.8625 62.132812 
L 353.8625 62.132812 
" style="fill:none;stroke:#7570b3;stroke-linecap:square;stroke-width:1.5;"/>
   </g>
   <g id="line2d_56"/>
   <g id="text_23">
    <!-- GDD (40) -->
    <defs>
     <path d="M 59.515625 10.40625 
L 59.515625 29.984375 
L 43.40625 29.984375 
L 43.40625 38.09375 
L 69.28125 38.09375 
L 69.28125 6.78125 
Q 63.578125 2.734375 56.6875 0.65625 
Q 49.8125 -1.421875 42 -1.421875 
Q 24.90625 -1.421875 15.25 8.5625 
Q 5.609375 18.5625 5.609375 36.375 
Q 5.609375 54.25 15.25 64.234375 
Q 24.90625 74.21875 42 74.21875 
Q 49.125 74.21875 55.546875 72.453125 
Q 61.96875 70.703125 67.390625 67.28125 
L 67.390625 56.78125 
Q 61.921875 61.421875 55.765625 63.765625 
Q 49.609375 66.109375 42.828125 66.109375 
Q 29.4375 66.109375 22.71875 58.640625 
Q 16.015625 51.171875 16.015625 36.375 
Q 16.015625 21.625 22.71875 14.15625 
Q 29.4375 6.6875 42.828125 6.6875 
Q 48.046875 6.6875 52.140625 7.59375 
Q 56.25 8.5 59.515625 10.40625 
z
" id="DejaVuSans-71"/>
    </defs>
    <g transform="translate(361.8625 65.632812)scale(0.1 -0.1)">
     <use xlink:href="#DejaVuSans-71"/>
     <use x="77.490234" xlink:href="#DejaVuSans-68"/>
     <use x="154.492188" xlink:href="#DejaVuSans-68"/>
     <use x="231.494141" xlink:href="#DejaVuSans-32"/>
     <use x="263.28125" xlink:href="#DejaVuSans-40"/>
     <use x="302.294922" xlink:href="#DejaVuSans-52"/>
     <use x="365.917969" xlink:href="#DejaVuSans-48"/>
     <use x="429.541016" xlink:href="#DejaVuSans-41"/>
    </g>
   </g>
   <g id="line2d_57">
    <path d="M 333.8625 76.810937 
L 353.8625 76.810937 
" style="fill:none;stroke:#e7298a;stroke-linecap:square;stroke-width:1.5;"/>
   </g>
   <g id="line2d_58"/>
   <g id="text_24">
    <!-- AS (38) -->
    <defs>
     <path d="M 31.78125 34.625 
Q 24.75 34.625 20.71875 30.859375 
Q 16.703125 27.09375 16.703125 20.515625 
Q 16.703125 13.921875 20.71875 10.15625 
Q 24.75 6.390625 31.78125 6.390625 
Q 38.8125 6.390625 42.859375 10.171875 
Q 46.921875 13.96875 46.921875 20.515625 
Q 46.921875 27.09375 42.890625 30.859375 
Q 38.875 34.625 31.78125 34.625 
z
M 21.921875 38.8125 
Q 15.578125 40.375 12.03125 44.71875 
Q 8.5 49.078125 8.5 55.328125 
Q 8.5 64.0625 14.71875 69.140625 
Q 20.953125 74.21875 31.78125 74.21875 
Q 42.671875 74.21875 48.875 69.140625 
Q 55.078125 64.0625 55.078125 55.328125 
Q 55.078125 49.078125 51.53125 44.71875 
Q 48 40.375 41.703125 38.8125 
Q 48.828125 37.15625 52.796875 32.3125 
Q 56.78125 27.484375 56.78125 20.515625 
Q 56.78125 9.90625 50.3125 4.234375 
Q 43.84375 -1.421875 31.78125 -1.421875 
Q 19.734375 -1.421875 13.25 4.234375 
Q 6.78125 9.90625 6.78125 20.515625 
Q 6.78125 27.484375 10.78125 32.3125 
Q 14.796875 37.15625 21.921875 38.8125 
z
M 18.3125 54.390625 
Q 18.3125 48.734375 21.84375 45.5625 
Q 25.390625 42.390625 31.78125 42.390625 
Q 38.140625 42.390625 41.71875 45.5625 
Q 45.3125 48.734375 45.3125 54.390625 
Q 45.3125 60.0625 41.71875 63.234375 
Q 38.140625 66.40625 31.78125 66.40625 
Q 25.390625 66.40625 21.84375 63.234375 
Q 18.3125 60.0625 18.3125 54.390625 
z
" id="DejaVuSans-56"/>
    </defs>
    <g transform="translate(361.8625 80.310937)scale(0.1 -0.1)">
     <use xlink:href="#DejaVuSans-65"/>
     <use x="68.408203" xlink:href="#DejaVuSans-83"/>
     <use x="131.884766" xlink:href="#DejaVuSans-32"/>
     <use x="163.671875" xlink:href="#DejaVuSans-40"/>
     <use x="202.685547" xlink:href="#DejaVuSans-51"/>
     <use x="266.308594" xlink:href="#DejaVuSans-56"/>
     <use x="329.931641" xlink:href="#DejaVuSans-41"/>
    </g>
   </g>
   <g id="line2d_59">
    <path d="M 333.8625 91.489062 
L 353.8625 91.489062 
" style="fill:none;stroke:#66a61e;stroke-linecap:square;stroke-width:1.5;"/>
   </g>
   <g id="line2d_60"/>
   <g id="text_25">
    <!-- MD (38) -->
    <g transform="translate(361.8625 94.989062)scale(0.1 -0.1)">
     <use xlink:href="#DejaVuSans-77"/>
     <use x="86.279297" xlink:href="#DejaVuSans-68"/>
     <use x="163.28125" xlink:href="#DejaVuSans-32"/>
     <use x="195.068359" xlink:href="#DejaVuSans-40"/>
     <use x="234.082031" xlink:href="#DejaVuSans-51"/>
     <use x="297.705078" xlink:href="#DejaVuSans-56"/>
     <use x="361.328125" xlink:href="#DejaVuSans-41"/>
    </g>
   </g>
   <g id="line2d_61">
    <path d="M 333.8625 106.167188 
L 353.8625 106.167188 
" style="fill:none;stroke:#e6ab02;stroke-linecap:square;stroke-width:1.5;"/>
   </g>
   <g id="line2d_62"/>
   <g id="text_26">
    <!-- HPI (38) -->
    <defs>
     <path d="M 9.8125 72.90625 
L 19.671875 72.90625 
L 19.671875 43.015625 
L 55.515625 43.015625 
L 55.515625 72.90625 
L 65.375 72.90625 
L 65.375 0 
L 55.515625 0 
L 55.515625 34.71875 
L 19.671875 34.71875 
L 19.671875 0 
L 9.8125 0 
z
" id="DejaVuSans-72"/>
     <path d="M 19.671875 64.796875 
L 19.671875 37.40625 
L 32.078125 37.40625 
Q 38.96875 37.40625 42.71875 40.96875 
Q 46.484375 44.53125 46.484375 51.125 
Q 46.484375 57.671875 42.71875 61.234375 
Q 38.96875 64.796875 32.078125 64.796875 
z
M 9.8125 72.90625 
L 32.078125 72.90625 
Q 44.34375 72.90625 50.609375 67.359375 
Q 56.890625 61.8125 56.890625 51.125 
Q 56.890625 40.328125 50.609375 34.8125 
Q 44.34375 29.296875 32.078125 29.296875 
L 19.671875 29.296875 
L 19.671875 0 
L 9.8125 0 
z
" id="DejaVuSans-80"/>
     <path d="M 9.8125 72.90625 
L 19.671875 72.90625 
L 19.671875 0 
L 9.8125 0 
z
" id="DejaVuSans-73"/>
    </defs>
    <g transform="translate(361.8625 109.667188)scale(0.1 -0.1)">
     <use xlink:href="#DejaVuSans-72"/>
     <use x="75.195312" xlink:href="#DejaVuSans-80"/>
     <use x="135.498047" xlink:href="#DejaVuSans-73"/>
     <use x="164.990234" xlink:href="#DejaVuSans-32"/>
     <use x="196.777344" xlink:href="#DejaVuSans-40"/>
     <use x="235.791016" xlink:href="#DejaVuSans-51"/>
     <use x="299.414062" xlink:href="#DejaVuSans-56"/>
     <use x="363.037109" xlink:href="#DejaVuSans-41"/>
    </g>
   </g>
   <g id="line2d_63">
    <path d="M 333.8625 120.845312 
L 353.8625 120.845312 
" style="fill:none;stroke:#a6761d;stroke-linecap:square;stroke-width:1.5;"/>
   </g>
   <g id="line2d_64"/>
   <g id="text_27">
    <!-- SA (37) -->
    <g transform="translate(361.8625 124.345312)scale(0.1 -0.1)">
     <use xlink:href="#DejaVuSans-83"/>
     <use x="63.492188" xlink:href="#DejaVuSans-65"/>
     <use x="131.900391" xlink:href="#DejaVuSans-32"/>
     <use x="163.6875" xlink:href="#DejaVuSans-40"/>
     <use x="202.701172" xlink:href="#DejaVuSans-51"/>
     <use x="266.324219" xlink:href="#DejaVuSans-55"/>
     <use x="329.947266" xlink:href="#DejaVuSans-41"/>
    </g>
   </g>
   <g id="line2d_65">
    <path d="M 333.8625 135.523438 
L 353.8625 135.523438 
" style="fill:none;stroke:#666666;stroke-linecap:square;stroke-width:1.5;"/>
   </g>
   <g id="line2d_66"/>
   <g id="text_28">
    <!-- FIT (30) -->
    <defs>
     <path d="M 9.8125 72.90625 
L 51.703125 72.90625 
L 51.703125 64.59375 
L 19.671875 64.59375 
L 19.671875 43.109375 
L 48.578125 43.109375 
L 48.578125 34.8125 
L 19.671875 34.8125 
L 19.671875 0 
L 9.8125 0 
z
" id="DejaVuSans-70"/>
     <path d="M -0.296875 72.90625 
L 61.375 72.90625 
L 61.375 64.59375 
L 35.5 64.59375 
L 35.5 0 
L 25.59375 0 
L 25.59375 64.59375 
L -0.296875 64.59375 
z
" id="DejaVuSans-84"/>
    </defs>
    <g transform="translate(361.8625 139.023438)scale(0.1 -0.1)">
     <use xlink:href="#DejaVuSans-70"/>
     <use x="57.519531" xlink:href="#DejaVuSans-73"/>
     <use x="87.011719" xlink:href="#DejaVuSans-84"/>
     <use x="148.095703" xlink:href="#DejaVuSans-32"/>
     <use x="179.882812" xlink:href="#DejaVuSans-40"/>
     <use x="218.896484" xlink:href="#DejaVuSans-51"/>
     <use x="282.519531" xlink:href="#DejaVuSans-48"/>
     <use x="346.142578" xlink:href="#DejaVuSans-41"/>
    </g>
   </g>
   <g id="line2d_67">
    <path d="M 333.8625 150.201562 
L 353.8625 150.201562 
" style="fill:none;stroke:#1b9e77;stroke-dasharray:4.5,1.5;stroke-dashoffset:0;stroke-width:1.5;"/>
   </g>
   <g id="line2d_68"/>
   <g id="text_29">
    <!-- TBI (26) -->
    <defs>
     <path d="M 19.671875 34.8125 
L 19.671875 8.109375 
L 35.5 8.109375 
Q 43.453125 8.109375 47.28125 11.40625 
Q 51.125 14.703125 51.125 21.484375 
Q 51.125 28.328125 47.28125 31.5625 
Q 43.453125 34.8125 35.5 34.8125 
z
M 19.671875 64.796875 
L 19.671875 42.828125 
L 34.28125 42.828125 
Q 41.5 42.828125 45.03125 45.53125 
Q 48.578125 48.25 48.578125 53.8125 
Q 48.578125 59.328125 45.03125 62.0625 
Q 41.5 64.796875 34.28125 64.796875 
z
M 9.8125 72.90625 
L 35.015625 72.90625 
Q 46.296875 72.90625 52.390625 68.21875 
Q 58.5 63.53125 58.5 54.890625 
Q 58.5 48.1875 55.375 44.234375 
Q 52.25 40.28125 46.1875 39.3125 
Q 53.46875 37.75 57.5 32.78125 
Q 61.53125 27.828125 61.53125 20.40625 
Q 61.53125 10.640625 54.890625 5.3125 
Q 48.25 0 35.984375 0 
L 9.8125 0 
z
" id="DejaVuSans-66"/>
    </defs>
    <g transform="translate(361.8625 153.701562)scale(0.1 -0.1)">
     <use xlink:href="#DejaVuSans-84"/>
     <use x="61.083984" xlink:href="#DejaVuSans-66"/>
     <use x="129.6875" xlink:href="#DejaVuSans-73"/>
     <use x="159.179688" xlink:href="#DejaVuSans-32"/>
     <use x="190.966797" xlink:href="#DejaVuSans-40"/>
     <use x="229.980469" xlink:href="#DejaVuSans-50"/>
     <use x="293.603516" xlink:href="#DejaVuSans-54"/>
     <use x="357.226562" xlink:href="#DejaVuSans-41"/>
    </g>
   </g>
   <g id="line2d_69">
    <path d="M 333.8625 164.879687 
L 353.8625 164.879687 
" style="fill:none;stroke:#d95f02;stroke-dasharray:4.5,1.5;stroke-dashoffset:0;stroke-width:1.5;"/>
   </g>
   <g id="line2d_70"/>
   <g id="text_30">
    <!-- BP (26) -->
    <g transform="translate(361.8625 168.379687)scale(0.1 -0.1)">
     <use xlink:href="#DejaVuSans-66"/>
     <use x="68.603516" xlink:href="#DejaVuSans-80"/>
     <use x="128.90625" xlink:href="#DejaVuSans-32"/>
     <use x="160.693359" xlink:href="#DejaVuSans-40"/>
     <use x="199.707031" xlink:href="#DejaVuSans-50"/>
     <use x="263.330078" xlink:href="#DejaVuSans-54"/>
     <use x="326.953125" xlink:href="#DejaVuSans-41"/>
    </g>
   </g>
   <g id="line2d_71">
    <path d="M 333.8625 179.557812 
L 353.8625 179.557812 
" style="fill:none;stroke:#7570b3;stroke-dasharray:4.5,1.5;stroke-dashoffset:0;stroke-width:1.5;"/>
   </g>
   <g id="line2d_72"/>
   <g id="text_31">
    <!-- CC (25) -->
    <g transform="translate(361.8625 183.057812)scale(0.1 -0.1)">
     <use xlink:href="#DejaVuSans-67"/>
     <use x="69.824219" xlink:href="#DejaVuSans-67"/>
     <use x="139.648438" xlink:href="#DejaVuSans-32"/>
     <use x="171.435547" xlink:href="#DejaVuSans-40"/>
     <use x="210.449219" xlink:href="#DejaVuSans-50"/>
     <use x="274.072266" xlink:href="#DejaVuSans-53"/>
     <use x="337.695312" xlink:href="#DejaVuSans-41"/>
    </g>
   </g>
   <g id="line2d_73">
    <path d="M 333.8625 194.235937 
L 353.8625 194.235937 
" style="fill:none;stroke:#e7298a;stroke-dasharray:4.5,1.5;stroke-dashoffset:0;stroke-width:1.5;"/>
   </g>
   <g id="line2d_74"/>
   <g id="text_32">
    <!-- SPD (24) -->
    <g transform="translate(361.8625 197.735937)scale(0.1 -0.1)">
     <use xlink:href="#DejaVuSans-83"/>
     <use x="63.476562" xlink:href="#DejaVuSans-80"/>
     <use x="123.779297" xlink:href="#DejaVuSans-68"/>
     <use x="200.78125" xlink:href="#DejaVuSans-32"/>
     <use x="232.568359" xlink:href="#DejaVuSans-40"/>
     <use x="271.582031" xlink:href="#DejaVuSans-50"/>
     <use x="335.205078" xlink:href="#DejaVuSans-52"/>
     <use x="398.828125" xlink:href="#DejaVuSans-41"/>
    </g>
   </g>
   <g id="line2d_75">
    <path d="M 333.8625 208.914062 
L 353.8625 208.914062 
" style="fill:none;stroke:#66a61e;stroke-dasharray:4.5,1.5;stroke-dashoffset:0;stroke-width:1.5;"/>
   </g>
   <g id="line2d_76"/>
   <g id="text_33">
    <!-- RJPH (20) -->
    <defs>
     <path d="M 9.8125 72.90625 
L 19.671875 72.90625 
L 19.671875 5.078125 
Q 19.671875 -8.109375 14.671875 -14.0625 
Q 9.671875 -20.015625 -1.421875 -20.015625 
L -5.171875 -20.015625 
L -5.171875 -11.71875 
L -2.09375 -11.71875 
Q 4.4375 -11.71875 7.125 -8.046875 
Q 9.8125 -4.390625 9.8125 5.078125 
z
" id="DejaVuSans-74"/>
    </defs>
    <g transform="translate(361.8625 212.414062)scale(0.1 -0.1)">
     <use xlink:href="#DejaVuSans-82"/>
     <use x="69.482422" xlink:href="#DejaVuSans-74"/>
     <use x="98.974609" xlink:href="#DejaVuSans-80"/>
     <use x="159.277344" xlink:href="#DejaVuSans-72"/>
     <use x="234.472656" xlink:href="#DejaVuSans-32"/>
     <use x="266.259766" xlink:href="#DejaVuSans-40"/>
     <use x="305.273438" xlink:href="#DejaVuSans-50"/>
     <use x="368.896484" xlink:href="#DejaVuSans-48"/>
     <use x="432.519531" xlink:href="#DejaVuSans-41"/>
    </g>
   </g>
   <g id="line2d_77">
    <path d="M 333.8625 223.592187 
L 353.8625 223.592187 
" style="fill:none;stroke:#e6ab02;stroke-dasharray:4.5,1.5;stroke-dashoffset:0;stroke-width:1.5;"/>
   </g>
   <g id="line2d_78"/>
   <g id="text_34">
    <!-- AHR-H (20) -->
    <g transform="translate(361.8625 227.092187)scale(0.1 -0.1)">
     <use xlink:href="#DejaVuSans-65"/>
     <use x="68.408203" xlink:href="#DejaVuSans-72"/>
     <use x="143.603516" xlink:href="#DejaVuSans-82"/>
     <use x="213.023438" xlink:href="#DejaVuSans-45"/>
     <use x="249.107422" xlink:href="#DejaVuSans-72"/>
     <use x="324.302734" xlink:href="#DejaVuSans-32"/>
     <use x="356.089844" xlink:href="#DejaVuSans-40"/>
     <use x="395.103516" xlink:href="#DejaVuSans-50"/>
     <use x="458.726562" xlink:href="#DejaVuSans-48"/>
     <use x="522.349609" xlink:href="#DejaVuSans-41"/>
    </g>
   </g>
   <g id="line2d_79">
    <path d="M 333.8625 238.270312 
L 353.8625 238.270312 
" style="fill:none;stroke:#a6761d;stroke-dasharray:4.5,1.5;stroke-dashoffset:0;stroke-width:1.5;"/>
   </g>
   <g id="line2d_80"/>
   <g id="text_35">
    <!-- CB (19) -->
    <g transform="translate(361.8625 241.770312)scale(0.1 -0.1)">
     <use xlink:href="#DejaVuSans-67"/>
     <use x="69.824219" xlink:href="#DejaVuSans-66"/>
     <use x="138.427734" xlink:href="#DejaVuSans-32"/>
     <use x="170.214844" xlink:href="#DejaVuSans-40"/>
     <use x="209.228516" xlink:href="#DejaVuSans-49"/>
     <use x="272.851562" xlink:href="#DejaVuSans-57"/>
     <use x="336.474609" xlink:href="#DejaVuSans-41"/>
    </g>
   </g>
   <g id="line2d_81">
    <path d="M 333.8625 252.948437 
L 353.8625 252.948437 
" style="fill:none;stroke:#666666;stroke-dasharray:4.5,1.5;stroke-dashoffset:0;stroke-width:1.5;"/>
   </g>
   <g id="line2d_82"/>
   <g id="text_36">
    <!-- AHR-A (15) -->
    <g transform="translate(361.8625 256.448437)scale(0.1 -0.1)">
     <use xlink:href="#DejaVuSans-65"/>
     <use x="68.408203" xlink:href="#DejaVuSans-72"/>
     <use x="143.603516" xlink:href="#DejaVuSans-82"/>
     <use x="213.023438" xlink:href="#DejaVuSans-45"/>
     <use x="249.076172" xlink:href="#DejaVuSans-65"/>
     <use x="317.484375" xlink:href="#DejaVuSans-32"/>
     <use x="349.271484" xlink:href="#DejaVuSans-40"/>
     <use x="388.285156" xlink:href="#DejaVuSans-49"/>
     <use x="451.908203" xlink:href="#DejaVuSans-53"/>
     <use x="515.53125" xlink:href="#DejaVuSans-41"/>
    </g>
   </g>
  </g>
 </g>
 <defs>
  <clipPath id="p2479a6e483">
   <rect height="207.330771" width="271.81" x="43.55" y="12.9"/>
  </clipPath>
 </defs>
</svg>
