<?xml version="1.0" encoding="utf-8" standalone="no"?>
<!DOCTYPE svg PUBLIC "-//W3C//DTD SVG 1.1//EN"
  "http://www.w3.org/Graphics/SVG/1.1/DTD/svg11.dtd">
<!-- Created with matplotlib (https://matplotlib.org/) -->
<svg height="288pt" version="1.1" viewBox="0 0 432 288" width="432pt" xmlns="http://www.w3.org/2000/svg" xmlns:xlink="http://www.w3.org/1999/xlink">
 <defs>
  <style type="text/css">
*{stroke-linecap:butt;stroke-linejoin:round;}
  </style>
 </defs>
 <g id="figure_1">
  <g id="patch_1">
   <path d="M 0 288 
L 432 288 
L 432 0 
L 0 0 
z
" style="fill:#ffffff;"/>
  </g>
  <g id="axes_1">
   <g id="patch_2">
    <path d="M 43.55 220.230771 
L 315.36 220.230771 
L 315.36 12.9 
L 43.55 12.9 
z
" style="fill:#ffffff;"/>
   </g>
   <g id="matplotlib.axis_1">
    <g id="xtick_1">
     <g id="line2d_1">
      <defs>
       <path d="M 0 0 
L 0 3.5 
" id="m8b374248cd" style="stroke:#000000;stroke-width:0.8;"/>
      </defs>
      <g>
       <use style="stroke:#000000;stroke-width:0.8;" x="49.230427" xlink:href="#m8b374248cd" y="220.230771"/>
      </g>
     </g>
     <g id="text_1">
      <!-- 2020-11-29 -->
      <defs>
       <path d="M 19.1875 8.296875 
L 53.609375 8.296875 
L 53.609375 0 
L 7.328125 0 
L 7.328125 8.296875 
Q 12.9375 14.109375 22.625 23.890625 
Q 32.328125 33.6875 34.8125 36.53125 
Q 39.546875 41.84375 41.421875 45.53125 
Q 43.3125 49.21875 43.3125 52.78125 
Q 43.3125 58.59375 39.234375 62.25 
Q 35.15625 65.921875 28.609375 65.921875 
Q 23.96875 65.921875 18.8125 64.3125 
Q 13.671875 62.703125 7.8125 59.421875 
L 7.8125 69.390625 
Q 13.765625 71.78125 18.9375 73 
Q 24.125 74.21875 28.421875 74.21875 
Q 39.75 74.21875 46.484375 68.546875 
Q 53.21875 62.890625 53.21875 53.421875 
Q 53.21875 48.921875 51.53125 44.890625 
Q 49.859375 40.875 45.40625 35.40625 
Q 44.1875 33.984375 37.640625 27.21875 
Q 31.109375 20.453125 19.1875 8.296875 
z
" id="DejaVuSans-50"/>
       <path d="M 31.78125 66.40625 
Q 24.171875 66.40625 20.328125 58.90625 
Q 16.5 51.421875 16.5 36.375 
Q 16.5 21.390625 20.328125 13.890625 
Q 24.171875 6.390625 31.78125 6.390625 
Q 39.453125 6.390625 43.28125 13.890625 
Q 47.125 21.390625 47.125 36.375 
Q 47.125 51.421875 43.28125 58.90625 
Q 39.453125 66.40625 31.78125 66.40625 
z
M 31.78125 74.21875 
Q 44.046875 74.21875 50.515625 64.515625 
Q 56.984375 54.828125 56.984375 36.375 
Q 56.984375 17.96875 50.515625 8.265625 
Q 44.046875 -1.421875 31.78125 -1.421875 
Q 19.53125 -1.421875 13.0625 8.265625 
Q 6.59375 17.96875 6.59375 36.375 
Q 6.59375 54.828125 13.0625 64.515625 
Q 19.53125 74.21875 31.78125 74.21875 
z
" id="DejaVuSans-48"/>
       <path d="M 4.890625 31.390625 
L 31.203125 31.390625 
L 31.203125 23.390625 
L 4.890625 23.390625 
z
" id="DejaVuSans-45"/>
       <path d="M 12.40625 8.296875 
L 28.515625 8.296875 
L 28.515625 63.921875 
L 10.984375 60.40625 
L 10.984375 69.390625 
L 28.421875 72.90625 
L 38.28125 72.90625 
L 38.28125 8.296875 
L 54.390625 8.296875 
L 54.390625 0 
L 12.40625 0 
z
" id="DejaVuSans-49"/>
       <path d="M 10.984375 1.515625 
L 10.984375 10.5 
Q 14.703125 8.734375 18.5 7.8125 
Q 22.3125 6.890625 25.984375 6.890625 
Q 35.75 6.890625 40.890625 13.453125 
Q 46.046875 20.015625 46.78125 33.40625 
Q 43.953125 29.203125 39.59375 26.953125 
Q 35.25 24.703125 29.984375 24.703125 
Q 19.046875 24.703125 12.671875 31.3125 
Q 6.296875 37.9375 6.296875 49.421875 
Q 6.296875 60.640625 12.9375 67.421875 
Q 19.578125 74.21875 30.609375 74.21875 
Q 43.265625 74.21875 49.921875 64.515625 
Q 56.59375 54.828125 56.59375 36.375 
Q 56.59375 19.140625 48.40625 8.859375 
Q 40.234375 -1.421875 26.421875 -1.421875 
Q 22.703125 -1.421875 18.890625 -0.6875 
Q 15.09375 0.046875 10.984375 1.515625 
z
M 30.609375 32.421875 
Q 37.25 32.421875 41.125 36.953125 
Q 45.015625 41.5 45.015625 49.421875 
Q 45.015625 57.28125 41.125 61.84375 
Q 37.25 66.40625 30.609375 66.40625 
Q 23.96875 66.40625 20.09375 61.84375 
Q 16.21875 57.28125 16.21875 49.421875 
Q 16.21875 41.5 20.09375 36.953125 
Q 23.96875 32.421875 30.609375 32.421875 
z
" id="DejaVuSans-57"/>
      </defs>
      <g transform="translate(25.445311 262.869024)rotate(-30)scale(0.1 -0.1)">
       <use xlink:href="#DejaVuSans-50"/>
       <use x="63.623047" xlink:href="#DejaVuSans-48"/>
       <use x="127.246094" xlink:href="#DejaVuSans-50"/>
       <use x="190.869141" xlink:href="#DejaVuSans-48"/>
       <use x="254.492188" xlink:href="#DejaVuSans-45"/>
       <use x="290.576172" xlink:href="#DejaVuSans-49"/>
       <use x="354.199219" xlink:href="#DejaVuSans-49"/>
       <use x="417.822266" xlink:href="#DejaVuSans-45"/>
       <use x="453.90625" xlink:href="#DejaVuSans-50"/>
       <use x="517.529297" xlink:href="#DejaVuSans-57"/>
      </g>
     </g>
    </g>
    <g id="xtick_2">
     <g id="line2d_2">
      <g>
       <use style="stroke:#000000;stroke-width:0.8;" x="58.448104" xlink:href="#m8b374248cd" y="220.230771"/>
      </g>
     </g>
     <g id="text_2">
      <!-- 2020-12-01 -->
      <g transform="translate(34.662988 262.869024)rotate(-30)scale(0.1 -0.1)">
       <use xlink:href="#DejaVuSans-50"/>
       <use x="63.623047" xlink:href="#DejaVuSans-48"/>
       <use x="127.246094" xlink:href="#DejaVuSans-50"/>
       <use x="190.869141" xlink:href="#DejaVuSans-48"/>
       <use x="254.492188" xlink:href="#DejaVuSans-45"/>
       <use x="290.576172" xlink:href="#DejaVuSans-49"/>
       <use x="354.199219" xlink:href="#DejaVuSans-50"/>
       <use x="417.822266" xlink:href="#DejaVuSans-45"/>
       <use x="453.90625" xlink:href="#DejaVuSans-48"/>
       <use x="517.529297" xlink:href="#DejaVuSans-49"/>
      </g>
     </g>
    </g>
    <g id="xtick_3">
     <g id="line2d_3">
      <g>
       <use style="stroke:#000000;stroke-width:0.8;" x="90.709973" xlink:href="#m8b374248cd" y="220.230771"/>
      </g>
     </g>
     <g id="text_3">
      <!-- 2020-12-08 -->
      <defs>
       <path d="M 31.78125 34.625 
Q 24.75 34.625 20.71875 30.859375 
Q 16.703125 27.09375 16.703125 20.515625 
Q 16.703125 13.921875 20.71875 10.15625 
Q 24.75 6.390625 31.78125 6.390625 
Q 38.8125 6.390625 42.859375 10.171875 
Q 46.921875 13.96875 46.921875 20.515625 
Q 46.921875 27.09375 42.890625 30.859375 
Q 38.875 34.625 31.78125 34.625 
z
M 21.921875 38.8125 
Q 15.578125 40.375 12.03125 44.71875 
Q 8.5 49.078125 8.5 55.328125 
Q 8.5 64.0625 14.71875 69.140625 
Q 20.953125 74.21875 31.78125 74.21875 
Q 42.671875 74.21875 48.875 69.140625 
Q 55.078125 64.0625 55.078125 55.328125 
Q 55.078125 49.078125 51.53125 44.71875 
Q 48 40.375 41.703125 38.8125 
Q 48.828125 37.15625 52.796875 32.3125 
Q 56.78125 27.484375 56.78125 20.515625 
Q 56.78125 9.90625 50.3125 4.234375 
Q 43.84375 -1.421875 31.78125 -1.421875 
Q 19.734375 -1.421875 13.25 4.234375 
Q 6.78125 9.90625 6.78125 20.515625 
Q 6.78125 27.484375 10.78125 32.3125 
Q 14.796875 37.15625 21.921875 38.8125 
z
M 18.3125 54.390625 
Q 18.3125 48.734375 21.84375 45.5625 
Q 25.390625 42.390625 31.78125 42.390625 
Q 38.140625 42.390625 41.71875 45.5625 
Q 45.3125 48.734375 45.3125 54.390625 
Q 45.3125 60.0625 41.71875 63.234375 
Q 38.140625 66.40625 31.78125 66.40625 
Q 25.390625 66.40625 21.84375 63.234375 
Q 18.3125 60.0625 18.3125 54.390625 
z
" id="DejaVuSans-56"/>
      </defs>
      <g transform="translate(66.924857 262.869024)rotate(-30)scale(0.1 -0.1)">
       <use xlink:href="#DejaVuSans-50"/>
       <use x="63.623047" xlink:href="#DejaVuSans-48"/>
       <use x="127.246094" xlink:href="#DejaVuSans-50"/>
       <use x="190.869141" xlink:href="#DejaVuSans-48"/>
       <use x="254.492188" xlink:href="#DejaVuSans-45"/>
       <use x="290.576172" xlink:href="#DejaVuSans-49"/>
       <use x="354.199219" xlink:href="#DejaVuSans-50"/>
       <use x="417.822266" xlink:href="#DejaVuSans-45"/>
       <use x="453.90625" xlink:href="#DejaVuSans-48"/>
       <use x="517.529297" xlink:href="#DejaVuSans-56"/>
      </g>
     </g>
    </g>
    <g id="xtick_4">
     <g id="line2d_4">
      <g>
       <use style="stroke:#000000;stroke-width:0.8;" x="122.971842" xlink:href="#m8b374248cd" y="220.230771"/>
      </g>
     </g>
     <g id="text_4">
      <!-- 2020-12-15 -->
      <defs>
       <path d="M 10.796875 72.90625 
L 49.515625 72.90625 
L 49.515625 64.59375 
L 19.828125 64.59375 
L 19.828125 46.734375 
Q 21.96875 47.46875 24.109375 47.828125 
Q 26.265625 48.1875 28.421875 48.1875 
Q 40.625 48.1875 47.75 41.5 
Q 54.890625 34.8125 54.890625 23.390625 
Q 54.890625 11.625 47.5625 5.09375 
Q 40.234375 -1.421875 26.90625 -1.421875 
Q 22.3125 -1.421875 17.546875 -0.640625 
Q 12.796875 0.140625 7.71875 1.703125 
L 7.71875 11.625 
Q 12.109375 9.234375 16.796875 8.0625 
Q 21.484375 6.890625 26.703125 6.890625 
Q 35.15625 6.890625 40.078125 11.328125 
Q 45.015625 15.765625 45.015625 23.390625 
Q 45.015625 31 40.078125 35.4375 
Q 35.15625 39.890625 26.703125 39.890625 
Q 22.75 39.890625 18.8125 39.015625 
Q 14.890625 38.140625 10.796875 36.28125 
z
" id="DejaVuSans-53"/>
      </defs>
      <g transform="translate(99.186726 262.869024)rotate(-30)scale(0.1 -0.1)">
       <use xlink:href="#DejaVuSans-50"/>
       <use x="63.623047" xlink:href="#DejaVuSans-48"/>
       <use x="127.246094" xlink:href="#DejaVuSans-50"/>
       <use x="190.869141" xlink:href="#DejaVuSans-48"/>
       <use x="254.492188" xlink:href="#DejaVuSans-45"/>
       <use x="290.576172" xlink:href="#DejaVuSans-49"/>
       <use x="354.199219" xlink:href="#DejaVuSans-50"/>
       <use x="417.822266" xlink:href="#DejaVuSans-45"/>
       <use x="453.90625" xlink:href="#DejaVuSans-49"/>
       <use x="517.529297" xlink:href="#DejaVuSans-53"/>
      </g>
     </g>
    </g>
    <g id="xtick_5">
     <g id="line2d_5">
      <g>
       <use style="stroke:#000000;stroke-width:0.8;" x="155.233712" xlink:href="#m8b374248cd" y="220.230771"/>
      </g>
     </g>
     <g id="text_5">
      <!-- 2020-12-22 -->
      <g transform="translate(131.448595 262.869024)rotate(-30)scale(0.1 -0.1)">
       <use xlink:href="#DejaVuSans-50"/>
       <use x="63.623047" xlink:href="#DejaVuSans-48"/>
       <use x="127.246094" xlink:href="#DejaVuSans-50"/>
       <use x="190.869141" xlink:href="#DejaVuSans-48"/>
       <use x="254.492188" xlink:href="#DejaVuSans-45"/>
       <use x="290.576172" xlink:href="#DejaVuSans-49"/>
       <use x="354.199219" xlink:href="#DejaVuSans-50"/>
       <use x="417.822266" xlink:href="#DejaVuSans-45"/>
       <use x="453.90625" xlink:href="#DejaVuSans-50"/>
       <use x="517.529297" xlink:href="#DejaVuSans-50"/>
      </g>
     </g>
    </g>
    <g id="xtick_6">
     <g id="line2d_6">
      <g>
       <use style="stroke:#000000;stroke-width:0.8;" x="187.495581" xlink:href="#m8b374248cd" y="220.230771"/>
      </g>
     </g>
     <g id="text_6">
      <!-- 2020-12-29 -->
      <g transform="translate(163.710465 262.869024)rotate(-30)scale(0.1 -0.1)">
       <use xlink:href="#DejaVuSans-50"/>
       <use x="63.623047" xlink:href="#DejaVuSans-48"/>
       <use x="127.246094" xlink:href="#DejaVuSans-50"/>
       <use x="190.869141" xlink:href="#DejaVuSans-48"/>
       <use x="254.492188" xlink:href="#DejaVuSans-45"/>
       <use x="290.576172" xlink:href="#DejaVuSans-49"/>
       <use x="354.199219" xlink:href="#DejaVuSans-50"/>
       <use x="417.822266" xlink:href="#DejaVuSans-45"/>
       <use x="453.90625" xlink:href="#DejaVuSans-50"/>
       <use x="517.529297" xlink:href="#DejaVuSans-57"/>
      </g>
     </g>
    </g>
    <g id="xtick_7">
     <g id="line2d_7">
      <g>
       <use style="stroke:#000000;stroke-width:0.8;" x="201.322096" xlink:href="#m8b374248cd" y="220.230771"/>
      </g>
     </g>
     <g id="text_7">
      <!-- 2021-01-01 -->
      <g transform="translate(177.53698 262.869024)rotate(-30)scale(0.1 -0.1)">
       <use xlink:href="#DejaVuSans-50"/>
       <use x="63.623047" xlink:href="#DejaVuSans-48"/>
       <use x="127.246094" xlink:href="#DejaVuSans-50"/>
       <use x="190.869141" xlink:href="#DejaVuSans-49"/>
       <use x="254.492188" xlink:href="#DejaVuSans-45"/>
       <use x="290.576172" xlink:href="#DejaVuSans-48"/>
       <use x="354.199219" xlink:href="#DejaVuSans-49"/>
       <use x="417.822266" xlink:href="#DejaVuSans-45"/>
       <use x="453.90625" xlink:href="#DejaVuSans-48"/>
       <use x="517.529297" xlink:href="#DejaVuSans-49"/>
      </g>
     </g>
    </g>
    <g id="xtick_8">
     <g id="line2d_8">
      <g>
       <use style="stroke:#000000;stroke-width:0.8;" x="233.583965" xlink:href="#m8b374248cd" y="220.230771"/>
      </g>
     </g>
     <g id="text_8">
      <!-- 2021-01-08 -->
      <g transform="translate(209.798849 262.869024)rotate(-30)scale(0.1 -0.1)">
       <use xlink:href="#DejaVuSans-50"/>
       <use x="63.623047" xlink:href="#DejaVuSans-48"/>
       <use x="127.246094" xlink:href="#DejaVuSans-50"/>
       <use x="190.869141" xlink:href="#DejaVuSans-49"/>
       <use x="254.492188" xlink:href="#DejaVuSans-45"/>
       <use x="290.576172" xlink:href="#DejaVuSans-48"/>
       <use x="354.199219" xlink:href="#DejaVuSans-49"/>
       <use x="417.822266" xlink:href="#DejaVuSans-45"/>
       <use x="453.90625" xlink:href="#DejaVuSans-48"/>
       <use x="517.529297" xlink:href="#DejaVuSans-56"/>
      </g>
     </g>
    </g>
    <g id="xtick_9">
     <g id="line2d_9">
      <g>
       <use style="stroke:#000000;stroke-width:0.8;" x="265.845835" xlink:href="#m8b374248cd" y="220.230771"/>
      </g>
     </g>
     <g id="text_9">
      <!-- 2021-01-15 -->
      <g transform="translate(242.060718 262.869024)rotate(-30)scale(0.1 -0.1)">
       <use xlink:href="#DejaVuSans-50"/>
       <use x="63.623047" xlink:href="#DejaVuSans-48"/>
       <use x="127.246094" xlink:href="#DejaVuSans-50"/>
       <use x="190.869141" xlink:href="#DejaVuSans-49"/>
       <use x="254.492188" xlink:href="#DejaVuSans-45"/>
       <use x="290.576172" xlink:href="#DejaVuSans-48"/>
       <use x="354.199219" xlink:href="#DejaVuSans-49"/>
       <use x="417.822266" xlink:href="#DejaVuSans-45"/>
       <use x="453.90625" xlink:href="#DejaVuSans-49"/>
       <use x="517.529297" xlink:href="#DejaVuSans-53"/>
      </g>
     </g>
    </g>
    <g id="xtick_10">
     <g id="line2d_10">
      <g>
       <use style="stroke:#000000;stroke-width:0.8;" x="298.107704" xlink:href="#m8b374248cd" y="220.230771"/>
      </g>
     </g>
     <g id="text_10">
      <!-- 2021-01-22 -->
      <g transform="translate(274.322587 262.869024)rotate(-30)scale(0.1 -0.1)">
       <use xlink:href="#DejaVuSans-50"/>
       <use x="63.623047" xlink:href="#DejaVuSans-48"/>
       <use x="127.246094" xlink:href="#DejaVuSans-50"/>
       <use x="190.869141" xlink:href="#DejaVuSans-49"/>
       <use x="254.492188" xlink:href="#DejaVuSans-45"/>
       <use x="290.576172" xlink:href="#DejaVuSans-48"/>
       <use x="354.199219" xlink:href="#DejaVuSans-49"/>
       <use x="417.822266" xlink:href="#DejaVuSans-45"/>
       <use x="453.90625" xlink:href="#DejaVuSans-50"/>
       <use x="517.529297" xlink:href="#DejaVuSans-50"/>
      </g>
     </g>
    </g>
    <g id="text_11">
     <!-- Date -->
     <defs>
      <path d="M 19.671875 64.796875 
L 19.671875 8.109375 
L 31.59375 8.109375 
Q 46.6875 8.109375 53.6875 14.9375 
Q 60.6875 21.78125 60.6875 36.53125 
Q 60.6875 51.171875 53.6875 57.984375 
Q 46.6875 64.796875 31.59375 64.796875 
z
M 9.8125 72.90625 
L 30.078125 72.90625 
Q 51.265625 72.90625 61.171875 64.09375 
Q 71.09375 55.28125 71.09375 36.53125 
Q 71.09375 17.671875 61.125 8.828125 
Q 51.171875 0 30.078125 0 
L 9.8125 0 
z
" id="DejaVuSans-68"/>
      <path d="M 34.28125 27.484375 
Q 23.390625 27.484375 19.1875 25 
Q 14.984375 22.515625 14.984375 16.5 
Q 14.984375 11.71875 18.140625 8.90625 
Q 21.296875 6.109375 26.703125 6.109375 
Q 34.1875 6.109375 38.703125 11.40625 
Q 43.21875 16.703125 43.21875 25.484375 
L 43.21875 27.484375 
z
M 52.203125 31.203125 
L 52.203125 0 
L 43.21875 0 
L 43.21875 8.296875 
Q 40.140625 3.328125 35.546875 0.953125 
Q 30.953125 -1.421875 24.3125 -1.421875 
Q 15.921875 -1.421875 10.953125 3.296875 
Q 6 8.015625 6 15.921875 
Q 6 25.140625 12.171875 29.828125 
Q 18.359375 34.515625 30.609375 34.515625 
L 43.21875 34.515625 
L 43.21875 35.40625 
Q 43.21875 41.609375 39.140625 45 
Q 35.0625 48.390625 27.6875 48.390625 
Q 23 48.390625 18.546875 47.265625 
Q 14.109375 46.140625 10.015625 43.890625 
L 10.015625 52.203125 
Q 14.9375 54.109375 19.578125 55.046875 
Q 24.21875 56 28.609375 56 
Q 40.484375 56 46.34375 49.84375 
Q 52.203125 43.703125 52.203125 31.203125 
z
" id="DejaVuSans-97"/>
      <path d="M 18.3125 70.21875 
L 18.3125 54.6875 
L 36.8125 54.6875 
L 36.8125 47.703125 
L 18.3125 47.703125 
L 18.3125 18.015625 
Q 18.3125 11.328125 20.140625 9.421875 
Q 21.96875 7.515625 27.59375 7.515625 
L 36.8125 7.515625 
L 36.8125 0 
L 27.59375 0 
Q 17.1875 0 13.234375 3.875 
Q 9.28125 7.765625 9.28125 18.015625 
L 9.28125 47.703125 
L 2.6875 47.703125 
L 2.6875 54.6875 
L 9.28125 54.6875 
L 9.28125 70.21875 
z
" id="DejaVuSans-116"/>
      <path d="M 56.203125 29.59375 
L 56.203125 25.203125 
L 14.890625 25.203125 
Q 15.484375 15.921875 20.484375 11.0625 
Q 25.484375 6.203125 34.421875 6.203125 
Q 39.59375 6.203125 44.453125 7.46875 
Q 49.3125 8.734375 54.109375 11.28125 
L 54.109375 2.78125 
Q 49.265625 0.734375 44.1875 -0.34375 
Q 39.109375 -1.421875 33.890625 -1.421875 
Q 20.796875 -1.421875 13.15625 6.1875 
Q 5.515625 13.8125 5.515625 26.8125 
Q 5.515625 40.234375 12.765625 48.109375 
Q 20.015625 56 32.328125 56 
Q 43.359375 56 49.78125 48.890625 
Q 56.203125 41.796875 56.203125 29.59375 
z
M 47.21875 32.234375 
Q 47.125 39.59375 43.09375 43.984375 
Q 39.0625 48.390625 32.421875 48.390625 
Q 24.90625 48.390625 20.390625 44.140625 
Q 15.875 39.890625 15.1875 32.171875 
z
" id="DejaVuSans-101"/>
     </defs>
     <g transform="translate(167.504219 276.268523)scale(0.1 -0.1)">
      <use xlink:href="#DejaVuSans-68"/>
      <use x="77.001953" xlink:href="#DejaVuSans-97"/>
      <use x="138.28125" xlink:href="#DejaVuSans-116"/>
      <use x="177.490234" xlink:href="#DejaVuSans-101"/>
     </g>
    </g>
   </g>
   <g id="matplotlib.axis_2">
    <g id="ytick_1">
     <g id="line2d_11">
      <defs>
       <path d="M 0 0 
L -3.5 0 
" id="md74bd3f8ee" style="stroke:#000000;stroke-width:0.8;"/>
      </defs>
      <g>
       <use style="stroke:#000000;stroke-width:0.8;" x="43.55" xlink:href="#md74bd3f8ee" y="210.806645"/>
      </g>
     </g>
     <g id="text_12">
      <!-- 0 -->
      <g transform="translate(30.1875 214.605864)scale(0.1 -0.1)">
       <use xlink:href="#DejaVuSans-48"/>
      </g>
     </g>
    </g>
    <g id="ytick_2">
     <g id="line2d_12">
      <g>
       <use style="stroke:#000000;stroke-width:0.8;" x="43.55" xlink:href="#md74bd3f8ee" y="187.24633"/>
      </g>
     </g>
     <g id="text_13">
      <!-- 5 -->
      <g transform="translate(30.1875 191.045549)scale(0.1 -0.1)">
       <use xlink:href="#DejaVuSans-53"/>
      </g>
     </g>
    </g>
    <g id="ytick_3">
     <g id="line2d_13">
      <g>
       <use style="stroke:#000000;stroke-width:0.8;" x="43.55" xlink:href="#md74bd3f8ee" y="163.686016"/>
      </g>
     </g>
     <g id="text_14">
      <!-- 10 -->
      <g transform="translate(23.825 167.485234)scale(0.1 -0.1)">
       <use xlink:href="#DejaVuSans-49"/>
       <use x="63.623047" xlink:href="#DejaVuSans-48"/>
      </g>
     </g>
    </g>
    <g id="ytick_4">
     <g id="line2d_14">
      <g>
       <use style="stroke:#000000;stroke-width:0.8;" x="43.55" xlink:href="#md74bd3f8ee" y="140.125701"/>
      </g>
     </g>
     <g id="text_15">
      <!-- 15 -->
      <g transform="translate(23.825 143.924919)scale(0.1 -0.1)">
       <use xlink:href="#DejaVuSans-49"/>
       <use x="63.623047" xlink:href="#DejaVuSans-53"/>
      </g>
     </g>
    </g>
    <g id="ytick_5">
     <g id="line2d_15">
      <g>
       <use style="stroke:#000000;stroke-width:0.8;" x="43.55" xlink:href="#md74bd3f8ee" y="116.565386"/>
      </g>
     </g>
     <g id="text_16">
      <!-- 20 -->
      <g transform="translate(23.825 120.364604)scale(0.1 -0.1)">
       <use xlink:href="#DejaVuSans-50"/>
       <use x="63.623047" xlink:href="#DejaVuSans-48"/>
      </g>
     </g>
    </g>
    <g id="ytick_6">
     <g id="line2d_16">
      <g>
       <use style="stroke:#000000;stroke-width:0.8;" x="43.55" xlink:href="#md74bd3f8ee" y="93.005071"/>
      </g>
     </g>
     <g id="text_17">
      <!-- 25 -->
      <g transform="translate(23.825 96.80429)scale(0.1 -0.1)">
       <use xlink:href="#DejaVuSans-50"/>
       <use x="63.623047" xlink:href="#DejaVuSans-53"/>
      </g>
     </g>
    </g>
    <g id="ytick_7">
     <g id="line2d_17">
      <g>
       <use style="stroke:#000000;stroke-width:0.8;" x="43.55" xlink:href="#md74bd3f8ee" y="69.444756"/>
      </g>
     </g>
     <g id="text_18">
      <!-- 30 -->
      <defs>
       <path d="M 40.578125 39.3125 
Q 47.65625 37.796875 51.625 33 
Q 55.609375 28.21875 55.609375 21.1875 
Q 55.609375 10.40625 48.1875 4.484375 
Q 40.765625 -1.421875 27.09375 -1.421875 
Q 22.515625 -1.421875 17.65625 -0.515625 
Q 12.796875 0.390625 7.625 2.203125 
L 7.625 11.71875 
Q 11.71875 9.328125 16.59375 8.109375 
Q 21.484375 6.890625 26.8125 6.890625 
Q 36.078125 6.890625 40.9375 10.546875 
Q 45.796875 14.203125 45.796875 21.1875 
Q 45.796875 27.640625 41.28125 31.265625 
Q 36.765625 34.90625 28.71875 34.90625 
L 20.21875 34.90625 
L 20.21875 43.015625 
L 29.109375 43.015625 
Q 36.375 43.015625 40.234375 45.921875 
Q 44.09375 48.828125 44.09375 54.296875 
Q 44.09375 59.90625 40.109375 62.90625 
Q 36.140625 65.921875 28.71875 65.921875 
Q 24.65625 65.921875 20.015625 65.03125 
Q 15.375 64.15625 9.8125 62.3125 
L 9.8125 71.09375 
Q 15.4375 72.65625 20.34375 73.4375 
Q 25.25 74.21875 29.59375 74.21875 
Q 40.828125 74.21875 47.359375 69.109375 
Q 53.90625 64.015625 53.90625 55.328125 
Q 53.90625 49.265625 50.4375 45.09375 
Q 46.96875 40.921875 40.578125 39.3125 
z
" id="DejaVuSans-51"/>
      </defs>
      <g transform="translate(23.825 73.243975)scale(0.1 -0.1)">
       <use xlink:href="#DejaVuSans-51"/>
       <use x="63.623047" xlink:href="#DejaVuSans-48"/>
      </g>
     </g>
    </g>
    <g id="ytick_8">
     <g id="line2d_18">
      <g>
       <use style="stroke:#000000;stroke-width:0.8;" x="43.55" xlink:href="#md74bd3f8ee" y="45.884441"/>
      </g>
     </g>
     <g id="text_19">
      <!-- 35 -->
      <g transform="translate(23.825 49.68366)scale(0.1 -0.1)">
       <use xlink:href="#DejaVuSans-51"/>
       <use x="63.623047" xlink:href="#DejaVuSans-53"/>
      </g>
     </g>
    </g>
    <g id="ytick_9">
     <g id="line2d_19">
      <g>
       <use style="stroke:#000000;stroke-width:0.8;" x="43.55" xlink:href="#md74bd3f8ee" y="22.324126"/>
      </g>
     </g>
     <g id="text_20">
      <!-- 40 -->
      <defs>
       <path d="M 37.796875 64.3125 
L 12.890625 25.390625 
L 37.796875 25.390625 
z
M 35.203125 72.90625 
L 47.609375 72.90625 
L 47.609375 25.390625 
L 58.015625 25.390625 
L 58.015625 17.1875 
L 47.609375 17.1875 
L 47.609375 0 
L 37.796875 0 
L 37.796875 17.1875 
L 4.890625 17.1875 
L 4.890625 26.703125 
z
" id="DejaVuSans-52"/>
      </defs>
      <g transform="translate(23.825 26.123345)scale(0.1 -0.1)">
       <use xlink:href="#DejaVuSans-52"/>
       <use x="63.623047" xlink:href="#DejaVuSans-48"/>
      </g>
     </g>
    </g>
    <g id="text_21">
     <!-- Students Registered -->
     <defs>
      <path d="M 53.515625 70.515625 
L 53.515625 60.890625 
Q 47.90625 63.578125 42.921875 64.890625 
Q 37.9375 66.21875 33.296875 66.21875 
Q 25.25 66.21875 20.875 63.09375 
Q 16.5 59.96875 16.5 54.203125 
Q 16.5 49.359375 19.40625 46.890625 
Q 22.3125 44.4375 30.421875 42.921875 
L 36.375 41.703125 
Q 47.40625 39.59375 52.65625 34.296875 
Q 57.90625 29 57.90625 20.125 
Q 57.90625 9.515625 50.796875 4.046875 
Q 43.703125 -1.421875 29.984375 -1.421875 
Q 24.8125 -1.421875 18.96875 -0.25 
Q 13.140625 0.921875 6.890625 3.21875 
L 6.890625 13.375 
Q 12.890625 10.015625 18.65625 8.296875 
Q 24.421875 6.59375 29.984375 6.59375 
Q 38.421875 6.59375 43.015625 9.90625 
Q 47.609375 13.234375 47.609375 19.390625 
Q 47.609375 24.75 44.3125 27.78125 
Q 41.015625 30.8125 33.5 32.328125 
L 27.484375 33.5 
Q 16.453125 35.6875 11.515625 40.375 
Q 6.59375 45.0625 6.59375 53.421875 
Q 6.59375 63.09375 13.40625 68.65625 
Q 20.21875 74.21875 32.171875 74.21875 
Q 37.3125 74.21875 42.625 73.28125 
Q 47.953125 72.359375 53.515625 70.515625 
z
" id="DejaVuSans-83"/>
      <path d="M 8.5 21.578125 
L 8.5 54.6875 
L 17.484375 54.6875 
L 17.484375 21.921875 
Q 17.484375 14.15625 20.5 10.265625 
Q 23.53125 6.390625 29.59375 6.390625 
Q 36.859375 6.390625 41.078125 11.03125 
Q 45.3125 15.671875 45.3125 23.6875 
L 45.3125 54.6875 
L 54.296875 54.6875 
L 54.296875 0 
L 45.3125 0 
L 45.3125 8.40625 
Q 42.046875 3.421875 37.71875 1 
Q 33.40625 -1.421875 27.6875 -1.421875 
Q 18.265625 -1.421875 13.375 4.4375 
Q 8.5 10.296875 8.5 21.578125 
z
M 31.109375 56 
z
" id="DejaVuSans-117"/>
      <path d="M 45.40625 46.390625 
L 45.40625 75.984375 
L 54.390625 75.984375 
L 54.390625 0 
L 45.40625 0 
L 45.40625 8.203125 
Q 42.578125 3.328125 38.25 0.953125 
Q 33.9375 -1.421875 27.875 -1.421875 
Q 17.96875 -1.421875 11.734375 6.484375 
Q 5.515625 14.40625 5.515625 27.296875 
Q 5.515625 40.1875 11.734375 48.09375 
Q 17.96875 56 27.875 56 
Q 33.9375 56 38.25 53.625 
Q 42.578125 51.265625 45.40625 46.390625 
z
M 14.796875 27.296875 
Q 14.796875 17.390625 18.875 11.75 
Q 22.953125 6.109375 30.078125 6.109375 
Q 37.203125 6.109375 41.296875 11.75 
Q 45.40625 17.390625 45.40625 27.296875 
Q 45.40625 37.203125 41.296875 42.84375 
Q 37.203125 48.484375 30.078125 48.484375 
Q 22.953125 48.484375 18.875 42.84375 
Q 14.796875 37.203125 14.796875 27.296875 
z
" id="DejaVuSans-100"/>
      <path d="M 54.890625 33.015625 
L 54.890625 0 
L 45.90625 0 
L 45.90625 32.71875 
Q 45.90625 40.484375 42.875 44.328125 
Q 39.84375 48.1875 33.796875 48.1875 
Q 26.515625 48.1875 22.3125 43.546875 
Q 18.109375 38.921875 18.109375 30.90625 
L 18.109375 0 
L 9.078125 0 
L 9.078125 54.6875 
L 18.109375 54.6875 
L 18.109375 46.1875 
Q 21.34375 51.125 25.703125 53.5625 
Q 30.078125 56 35.796875 56 
Q 45.21875 56 50.046875 50.171875 
Q 54.890625 44.34375 54.890625 33.015625 
z
" id="DejaVuSans-110"/>
      <path d="M 44.28125 53.078125 
L 44.28125 44.578125 
Q 40.484375 46.53125 36.375 47.5 
Q 32.28125 48.484375 27.875 48.484375 
Q 21.1875 48.484375 17.84375 46.4375 
Q 14.5 44.390625 14.5 40.28125 
Q 14.5 37.15625 16.890625 35.375 
Q 19.28125 33.59375 26.515625 31.984375 
L 29.59375 31.296875 
Q 39.15625 29.25 43.1875 25.515625 
Q 47.21875 21.78125 47.21875 15.09375 
Q 47.21875 7.46875 41.1875 3.015625 
Q 35.15625 -1.421875 24.609375 -1.421875 
Q 20.21875 -1.421875 15.453125 -0.5625 
Q 10.6875 0.296875 5.421875 2 
L 5.421875 11.28125 
Q 10.40625 8.6875 15.234375 7.390625 
Q 20.0625 6.109375 24.8125 6.109375 
Q 31.15625 6.109375 34.5625 8.28125 
Q 37.984375 10.453125 37.984375 14.40625 
Q 37.984375 18.0625 35.515625 20.015625 
Q 33.0625 21.96875 24.703125 23.78125 
L 21.578125 24.515625 
Q 13.234375 26.265625 9.515625 29.90625 
Q 5.8125 33.546875 5.8125 39.890625 
Q 5.8125 47.609375 11.28125 51.796875 
Q 16.75 56 26.8125 56 
Q 31.78125 56 36.171875 55.265625 
Q 40.578125 54.546875 44.28125 53.078125 
z
" id="DejaVuSans-115"/>
      <path id="DejaVuSans-32"/>
      <path d="M 44.390625 34.1875 
Q 47.5625 33.109375 50.5625 29.59375 
Q 53.5625 26.078125 56.59375 19.921875 
L 66.609375 0 
L 56 0 
L 46.6875 18.703125 
Q 43.0625 26.03125 39.671875 28.421875 
Q 36.28125 30.8125 30.421875 30.8125 
L 19.671875 30.8125 
L 19.671875 0 
L 9.8125 0 
L 9.8125 72.90625 
L 32.078125 72.90625 
Q 44.578125 72.90625 50.734375 67.671875 
Q 56.890625 62.453125 56.890625 51.90625 
Q 56.890625 45.015625 53.6875 40.46875 
Q 50.484375 35.9375 44.390625 34.1875 
z
M 19.671875 64.796875 
L 19.671875 38.921875 
L 32.078125 38.921875 
Q 39.203125 38.921875 42.84375 42.21875 
Q 46.484375 45.515625 46.484375 51.90625 
Q 46.484375 58.296875 42.84375 61.546875 
Q 39.203125 64.796875 32.078125 64.796875 
z
" id="DejaVuSans-82"/>
      <path d="M 45.40625 27.984375 
Q 45.40625 37.75 41.375 43.109375 
Q 37.359375 48.484375 30.078125 48.484375 
Q 22.859375 48.484375 18.828125 43.109375 
Q 14.796875 37.75 14.796875 27.984375 
Q 14.796875 18.265625 18.828125 12.890625 
Q 22.859375 7.515625 30.078125 7.515625 
Q 37.359375 7.515625 41.375 12.890625 
Q 45.40625 18.265625 45.40625 27.984375 
z
M 54.390625 6.78125 
Q 54.390625 -7.171875 48.1875 -13.984375 
Q 42 -20.796875 29.203125 -20.796875 
Q 24.46875 -20.796875 20.265625 -20.09375 
Q 16.0625 -19.390625 12.109375 -17.921875 
L 12.109375 -9.1875 
Q 16.0625 -11.328125 19.921875 -12.34375 
Q 23.78125 -13.375 27.78125 -13.375 
Q 36.625 -13.375 41.015625 -8.765625 
Q 45.40625 -4.15625 45.40625 5.171875 
L 45.40625 9.625 
Q 42.625 4.78125 38.28125 2.390625 
Q 33.9375 0 27.875 0 
Q 17.828125 0 11.671875 7.65625 
Q 5.515625 15.328125 5.515625 27.984375 
Q 5.515625 40.671875 11.671875 48.328125 
Q 17.828125 56 27.875 56 
Q 33.9375 56 38.28125 53.609375 
Q 42.625 51.21875 45.40625 46.390625 
L 45.40625 54.6875 
L 54.390625 54.6875 
z
" id="DejaVuSans-103"/>
      <path d="M 9.421875 54.6875 
L 18.40625 54.6875 
L 18.40625 0 
L 9.421875 0 
z
M 9.421875 75.984375 
L 18.40625 75.984375 
L 18.40625 64.59375 
L 9.421875 64.59375 
z
" id="DejaVuSans-105"/>
      <path d="M 41.109375 46.296875 
Q 39.59375 47.171875 37.8125 47.578125 
Q 36.03125 48 33.890625 48 
Q 26.265625 48 22.1875 43.046875 
Q 18.109375 38.09375 18.109375 28.8125 
L 18.109375 0 
L 9.078125 0 
L 9.078125 54.6875 
L 18.109375 54.6875 
L 18.109375 46.1875 
Q 20.953125 51.171875 25.484375 53.578125 
Q 30.03125 56 36.53125 56 
Q 37.453125 56 38.578125 55.875 
Q 39.703125 55.765625 41.0625 55.515625 
z
" id="DejaVuSans-114"/>
     </defs>
     <g transform="translate(17.745313 167.498979)rotate(-90)scale(0.1 -0.1)">
      <use xlink:href="#DejaVuSans-83"/>
      <use x="63.476562" xlink:href="#DejaVuSans-116"/>
      <use x="102.685547" xlink:href="#DejaVuSans-117"/>
      <use x="166.064453" xlink:href="#DejaVuSans-100"/>
      <use x="229.541016" xlink:href="#DejaVuSans-101"/>
      <use x="291.064453" xlink:href="#DejaVuSans-110"/>
      <use x="354.443359" xlink:href="#DejaVuSans-116"/>
      <use x="393.652344" xlink:href="#DejaVuSans-115"/>
      <use x="445.751953" xlink:href="#DejaVuSans-32"/>
      <use x="477.539062" xlink:href="#DejaVuSans-82"/>
      <use x="546.958984" xlink:href="#DejaVuSans-101"/>
      <use x="608.482422" xlink:href="#DejaVuSans-103"/>
      <use x="671.958984" xlink:href="#DejaVuSans-105"/>
      <use x="699.742188" xlink:href="#DejaVuSans-115"/>
      <use x="751.841797" xlink:href="#DejaVuSans-116"/>
      <use x="791.050781" xlink:href="#DejaVuSans-101"/>
      <use x="852.574219" xlink:href="#DejaVuSans-114"/>
      <use x="893.65625" xlink:href="#DejaVuSans-101"/>
      <use x="955.179688" xlink:href="#DejaVuSans-100"/>
     </g>
    </g>
   </g>
   <g id="line2d_20">
    <path clip-path="url(#pd97d5bf984)" d="M 55.905 210.806645 
L 56.107332 210.806645 
L 56.107332 201.382519 
L 56.217672 201.382519 
L 57.008226 201.382519 
L 57.008226 196.670456 
L 57.101008 196.670456 
L 61.42501 196.670456 
L 61.42501 191.958393 
L 61.521024 191.958393 
L 65.073704 191.958393 
L 65.073704 177.822204 
L 65.16972 177.822204 
L 65.26572 177.822204 
L 65.26572 173.110142 
L 65.361753 173.110142 
L 65.457754 173.110142 
L 65.457754 154.26189 
L 65.553782 154.26189 
L 65.649788 154.26189 
L 65.649788 149.549827 
L 65.745803 149.549827 
L 65.841825 149.549827 
L 65.841825 140.125701 
L 65.937829 140.125701 
L 66.033888 140.125701 
L 66.033888 125.989512 
L 66.129902 125.989512 
L 69.490497 125.989512 
L 69.490497 121.277449 
L 69.586511 121.277449 
L 69.68251 121.277449 
L 69.68251 116.565386 
L 69.778525 116.565386 
L 70.25863 116.565386 
L 70.25863 111.853323 
L 70.354655 111.853323 
L 70.642704 111.853323 
L 70.642704 97.717134 
L 70.738707 97.717134 
L 70.834733 97.717134 
L 70.834733 93.005071 
L 70.930773 93.005071 
L 74.675424 93.005071 
L 74.675424 88.293008 
L 74.771463 88.293008 
L 74.867453 88.293008 
L 74.867453 83.580945 
L 74.963499 83.580945 
L 75.25155 83.580945 
L 75.25155 78.868882 
L 75.347558 78.868882 
L 75.827644 78.868882 
L 75.827644 74.156819 
L 75.923651 74.156819 
L 79.092264 74.156819 
L 79.092264 69.444756 
L 79.188247 69.444756 
L 88.117905 69.444756 
L 88.117905 45.884441 
L 88.213875 45.884441 
L 88.309921 45.884441 
L 88.309921 36.460315 
L 88.405909 36.460315 
L 88.501968 36.460315 
L 88.501968 31.748252 
L 88.597964 31.748252 
L 153.217714 31.748252 
L 153.217714 36.460315 
L 153.313749 36.460315 
L 153.409742 36.460315 
L 153.409742 31.748252 
L 153.505761 31.748252 
L 163.779627 31.748252 
L 163.779627 36.460315 
L 163.875678 36.460315 
L 163.971676 36.460315 
L 163.971676 31.748252 
L 164.067688 31.748252 
L 258.83696 31.748252 
L 258.83696 22.324126 
L 258.932941 22.324126 
L 303.005 22.324126 
L 303.005 22.324126 
" style="fill:none;stroke:#1b9e77;stroke-linecap:square;stroke-width:1.5;"/>
   </g>
   <g id="line2d_21">
    <path clip-path="url(#pd97d5bf984)" d="M 95.991332 196.670456 
L 96.951464 196.670456 
L 96.951464 182.534267 
L 97.047641 182.534267 
L 97.143504 182.534267 
L 97.143504 177.822204 
L 97.239561 177.822204 
L 97.335534 177.822204 
L 97.335534 158.973953 
L 97.431591 158.973953 
L 97.719622 158.973953 
L 97.719622 144.837764 
L 97.815641 144.837764 
L 98.103684 144.837764 
L 98.103684 116.565386 
L 98.199721 116.565386 
L 98.487751 116.565386 
L 98.487751 107.14126 
L 98.583801 107.14126 
L 98.679812 107.14126 
L 98.679812 102.429197 
L 98.775849 102.429197 
L 98.87183 102.429197 
L 98.87183 97.717134 
L 98.96788 97.717134 
L 99.255931 97.717134 
L 99.255931 93.005071 
L 99.351903 93.005071 
L 101.944378 93.005071 
L 101.944378 74.156819 
L 102.040429 74.156819 
L 102.328461 74.156819 
L 102.328461 69.444756 
L 102.424463 69.444756 
L 102.71256 69.444756 
L 102.71256 60.02063 
L 102.808558 60.02063 
L 102.904595 60.02063 
L 102.904595 55.308567 
L 103.000588 55.308567 
L 103.288671 55.308567 
L 103.288671 50.596504 
L 103.384656 50.596504 
L 107.321388 50.596504 
L 107.321388 45.884441 
L 107.417386 45.884441 
L 107.51339 45.884441 
L 107.51339 41.172378 
L 107.609451 41.172378 
L 107.705435 41.172378 
L 107.705435 36.460315 
L 107.801475 36.460315 
L 108.281566 36.460315 
L 108.281566 31.748252 
L 108.377586 31.748252 
L 120.571773 31.748252 
L 120.571773 22.324126 
L 120.667814 22.324126 
L 144.192074 22.324126 
L 144.192074 27.036189 
L 144.288103 27.036189 
L 145.344283 27.036189 
L 145.344283 22.324126 
L 145.440304 22.324126 
L 162.051344 22.324126 
L 162.051344 27.036189 
L 162.147366 27.036189 
L 163.587616 27.036189 
L 163.587616 22.324126 
L 163.683645 22.324126 
L 287.834241 22.324126 
L 287.834241 27.036189 
L 287.930247 27.036189 
L 293.211207 27.036189 
L 293.211207 22.324126 
L 293.307214 22.324126 
L 303.005 22.324126 
L 303.005 22.324126 
" style="fill:none;stroke:#d95f02;stroke-linecap:square;stroke-width:1.5;"/>
   </g>
   <g id="line2d_22">
    <path clip-path="url(#pd97d5bf984)" d="M 55.905 182.534267 
L 56.107332 182.534267 
L 56.107332 177.822204 
L 56.217672 177.822204 
L 57.101008 177.822204 
L 57.101008 173.110142 
L 60.173602 173.110142 
L 60.173602 168.398079 
L 60.464862 168.398079 
L 60.464862 163.686016 
L 60.56089 163.686016 
L 60.656885 163.686016 
L 60.656885 158.973953 
L 60.75292 158.973953 
L 61.233016 158.973953 
L 61.233016 144.837764 
L 61.329053 144.837764 
L 61.42501 144.837764 
L 61.42501 140.125701 
L 61.521024 140.125701 
L 65.26572 140.125701 
L 65.26572 130.701575 
L 65.361753 130.701575 
L 65.457754 130.701575 
L 65.457754 125.989512 
L 65.553782 125.989512 
L 65.649788 125.989512 
L 65.649788 130.701575 
L 65.745803 130.701575 
L 66.033888 130.701575 
L 66.033888 125.989512 
L 66.129902 125.989512 
L 66.225885 125.989512 
L 66.225885 116.565386 
L 66.321896 116.565386 
L 67.186083 116.565386 
L 67.186083 107.14126 
L 67.282111 107.14126 
L 69.298466 107.14126 
L 69.298466 102.429197 
L 69.394474 102.429197 
L 69.490497 102.429197 
L 69.490497 83.580945 
L 69.586511 83.580945 
L 69.68251 83.580945 
L 69.68251 74.156819 
L 69.778525 74.156819 
L 70.066601 74.156819 
L 70.066601 69.444756 
L 70.16262 69.444756 
L 70.25863 69.444756 
L 70.25863 64.732693 
L 70.354655 64.732693 
L 70.45067 64.732693 
L 70.45067 60.02063 
L 70.546698 60.02063 
L 70.642704 60.02063 
L 70.642704 45.884441 
L 70.738707 45.884441 
L 70.834733 45.884441 
L 70.834733 41.172378 
L 70.930773 41.172378 
L 71.026779 41.172378 
L 71.026779 36.460315 
L 71.12278 36.460315 
L 74.291347 36.460315 
L 74.291347 27.036189 
L 74.38738 27.036189 
L 74.483424 27.036189 
L 74.483424 22.324126 
L 74.579431 22.324126 
L 97.143504 22.324126 
L 97.143504 27.036189 
L 97.239561 27.036189 
L 97.335534 27.036189 
L 97.335534 22.324126 
L 97.431591 22.324126 
L 287.642175 22.324126 
L 287.642175 27.036189 
L 287.7382 27.036189 
L 287.834241 27.036189 
L 287.834241 22.324126 
L 287.930247 22.324126 
L 303.005 22.324126 
L 303.005 22.324126 
" style="fill:none;stroke:#7570b3;stroke-linecap:square;stroke-width:1.5;"/>
   </g>
   <g id="line2d_23">
    <path clip-path="url(#pd97d5bf984)" d="M 55.905 201.382519 
L 61.040991 201.382519 
L 61.040991 196.670456 
L 61.136979 196.670456 
L 64.881677 196.670456 
L 64.881677 191.958393 
L 64.977658 191.958393 
L 65.073704 191.958393 
L 65.073704 187.24633 
L 65.16972 187.24633 
L 65.26572 187.24633 
L 65.26572 177.822204 
L 65.361753 177.822204 
L 65.457754 177.822204 
L 65.457754 173.110142 
L 65.553782 173.110142 
L 65.649788 173.110142 
L 65.649788 168.398079 
L 65.745803 168.398079 
L 65.841825 168.398079 
L 65.841825 163.686016 
L 65.937829 163.686016 
L 66.225885 163.686016 
L 66.225885 158.973953 
L 66.321896 158.973953 
L 69.490497 158.973953 
L 69.490497 149.549827 
L 69.586511 149.549827 
L 69.68251 149.549827 
L 69.68251 144.837764 
L 69.778525 144.837764 
L 70.45067 144.837764 
L 70.45067 140.125701 
L 70.546698 140.125701 
L 70.642704 140.125701 
L 70.642704 130.701575 
L 70.738707 130.701575 
L 88.117905 130.701575 
L 88.117905 125.989512 
L 88.213875 125.989512 
L 88.309921 125.989512 
L 88.309921 121.277449 
L 88.405909 121.277449 
L 88.501968 121.277449 
L 88.501968 116.565386 
L 88.597964 116.565386 
L 88.693982 116.565386 
L 88.693982 111.853323 
L 88.78999 111.853323 
L 88.886037 111.853323 
L 88.886037 102.429197 
L 88.982032 102.429197 
L 89.078074 102.429197 
L 89.078074 97.717134 
L 89.174067 97.717134 
L 92.534678 97.717134 
L 92.58269 83.580945 
L 92.630694 83.580945 
L 92.918757 83.580945 
L 92.918757 74.156819 
L 93.014771 74.156819 
L 93.494867 74.156819 
L 93.494867 69.444756 
L 93.590887 69.444756 
L 93.686903 69.444756 
L 93.686903 60.02063 
L 93.782926 60.02063 
L 93.878936 60.02063 
L 93.878936 36.460315 
L 93.97495 36.460315 
L 94.070942 36.460315 
L 94.070942 22.324126 
L 94.167047 22.324126 
L 96.951464 22.324126 
L 96.951464 27.036189 
L 97.047641 27.036189 
L 97.335534 27.036189 
L 97.335534 22.324126 
L 97.431591 22.324126 
L 143.80799 22.324126 
L 143.80799 27.036189 
L 143.904041 27.036189 
L 144.000065 27.036189 
L 144.000065 22.324126 
L 144.096044 22.324126 
L 152.449613 22.324126 
L 152.449613 27.036189 
L 152.545594 27.036189 
L 152.833631 27.036189 
L 152.833631 22.324126 
L 152.929696 22.324126 
L 153.217714 22.324126 
L 153.217714 27.036189 
L 153.313749 27.036189 
L 153.985894 27.036189 
L 153.985894 22.324126 
L 154.081887 22.324126 
L 303.005 22.324126 
L 303.005 22.324126 
" style="fill:none;stroke:#e7298a;stroke-linecap:square;stroke-width:1.5;"/>
   </g>
   <g id="line2d_24">
    <path clip-path="url(#pd97d5bf984)" d="M 55.905 191.958393 
L 65.073704 191.958393 
L 65.073704 187.24633 
L 65.16972 187.24633 
L 66.033888 187.24633 
L 66.033888 182.534267 
L 66.129902 182.534267 
L 66.417946 182.534267 
L 66.417946 177.822204 
L 66.513975 177.822204 
L 70.066601 177.822204 
L 70.066601 173.110142 
L 70.16262 173.110142 
L 70.45067 173.110142 
L 70.45067 168.398079 
L 70.546698 168.398079 
L 74.291347 168.398079 
L 74.291347 163.686016 
L 74.38738 163.686016 
L 87.925843 163.686016 
L 87.925843 154.26189 
L 88.021841 154.26189 
L 88.117905 154.26189 
L 88.117905 144.837764 
L 88.213875 144.837764 
L 88.693982 144.837764 
L 88.693982 140.125701 
L 88.78999 140.125701 
L 89.46214 140.125701 
L 89.46214 135.413638 
L 89.558142 135.413638 
L 92.918757 135.413638 
L 92.918757 130.701575 
L 93.014771 130.701575 
L 93.302794 130.701575 
L 93.302794 121.277449 
L 93.398861 121.277449 
L 93.686903 121.277449 
L 93.686903 116.565386 
L 93.782926 116.565386 
L 94.839115 116.565386 
L 94.839115 111.853323 
L 94.935121 111.853323 
L 96.951464 111.853323 
L 96.951464 107.14126 
L 97.047641 107.14126 
L 97.335534 107.14126 
L 97.335534 102.429197 
L 97.431591 102.429197 
L 97.527568 102.429197 
L 97.527568 93.005071 
L 97.623595 93.005071 
L 97.911668 93.005071 
L 97.911668 88.293008 
L 98.007709 88.293008 
L 98.103684 88.293008 
L 98.151712 74.156819 
L 98.199721 74.156819 
L 98.295744 74.156819 
L 98.295744 64.732693 
L 98.391774 64.732693 
L 99.063853 64.732693 
L 99.063853 69.444756 
L 99.159914 69.444756 
L 101.944378 69.444756 
L 101.944378 60.02063 
L 102.040429 60.02063 
L 102.13646 60.02063 
L 102.13646 55.308567 
L 102.232476 55.308567 
L 102.520503 55.308567 
L 102.520503 50.596504 
L 102.616523 50.596504 
L 102.71256 50.596504 
L 102.71256 41.172378 
L 102.808558 41.172378 
L 102.904595 41.172378 
L 102.904595 36.460315 
L 103.000588 36.460315 
L 103.288671 36.460315 
L 103.288671 31.748252 
L 103.384656 31.748252 
L 260.949325 31.748252 
L 260.949325 36.460315 
L 261.045321 36.460315 
L 265.366105 36.460315 
L 265.366105 31.748252 
L 265.462149 31.748252 
L 303.005 31.748252 
L 303.005 31.748252 
" style="fill:none;stroke:#66a61e;stroke-linecap:square;stroke-width:1.5;"/>
   </g>
   <g id="line2d_25">
    <path clip-path="url(#pd97d5bf984)" d="M 55.905 196.670456 
L 61.040991 196.670456 
L 61.040991 191.958393 
L 61.136979 191.958393 
L 64.881677 191.958393 
L 64.881677 187.24633 
L 64.977658 187.24633 
L 65.073704 187.24633 
L 65.073704 182.534267 
L 65.16972 182.534267 
L 65.457754 182.534267 
L 65.457754 177.822204 
L 65.553782 177.822204 
L 65.649788 177.822204 
L 65.649788 173.110142 
L 65.745803 173.110142 
L 65.841825 173.110142 
L 65.841825 163.686016 
L 65.937829 163.686016 
L 66.033888 163.686016 
L 66.033888 158.973953 
L 66.129902 158.973953 
L 66.225885 158.973953 
L 66.225885 154.26189 
L 66.321896 154.26189 
L 69.298466 154.26189 
L 69.298466 149.549827 
L 69.394474 149.549827 
L 69.490497 149.549827 
L 69.490497 140.125701 
L 69.586511 140.125701 
L 69.874535 140.125701 
L 69.874535 135.413638 
L 69.970576 135.413638 
L 70.066601 135.413638 
L 70.066601 125.989512 
L 70.16262 125.989512 
L 70.45067 125.989512 
L 70.45067 121.277449 
L 70.546698 121.277449 
L 70.834733 121.277449 
L 70.834733 116.565386 
L 70.930773 116.565386 
L 71.026779 116.565386 
L 71.026779 111.853323 
L 71.12278 111.853323 
L 74.483424 111.853323 
L 74.483424 107.14126 
L 74.579431 107.14126 
L 75.25155 107.14126 
L 75.25155 102.429197 
L 75.347558 102.429197 
L 80.244427 102.429197 
L 80.244427 97.717134 
L 80.340465 97.717134 
L 87.925843 97.717134 
L 87.925843 93.005071 
L 88.021841 93.005071 
L 88.501968 93.005071 
L 88.501968 78.868882 
L 88.597964 78.868882 
L 88.693982 78.868882 
L 88.693982 69.444756 
L 88.78999 69.444756 
L 88.886037 69.444756 
L 88.886037 60.02063 
L 88.982032 60.02063 
L 89.46214 60.02063 
L 89.46214 55.308567 
L 89.558142 55.308567 
L 92.150616 55.308567 
L 92.150616 50.596504 
L 92.246628 50.596504 
L 92.726709 50.596504 
L 92.726709 45.884441 
L 92.822755 45.884441 
L 92.918757 45.884441 
L 92.918757 41.172378 
L 93.014771 41.172378 
L 93.110779 41.172378 
L 93.110779 36.460315 
L 93.206791 36.460315 
L 93.686903 36.460315 
L 93.686903 31.748252 
L 93.782926 31.748252 
L 303.005 31.748252 
L 303.005 31.748252 
" style="fill:none;stroke:#e6ab02;stroke-linecap:square;stroke-width:1.5;"/>
   </g>
   <g id="line2d_26">
    <path clip-path="url(#pd97d5bf984)" d="M 55.905 201.382519 
L 61.42501 201.382519 
L 61.42501 196.670456 
L 61.521024 196.670456 
L 65.073704 196.670456 
L 65.073704 191.958393 
L 65.16972 191.958393 
L 65.841825 191.958393 
L 65.841825 187.24633 
L 65.937829 187.24633 
L 69.874535 187.24633 
L 69.874535 177.822204 
L 69.970576 177.822204 
L 70.25863 177.822204 
L 70.25863 173.110142 
L 70.354655 173.110142 
L 70.642704 173.110142 
L 70.642704 168.398079 
L 70.738707 168.398079 
L 70.834733 168.398079 
L 70.834733 163.686016 
L 70.930773 163.686016 
L 75.25155 163.686016 
L 75.25155 158.973953 
L 75.347558 158.973953 
L 79.668351 158.973953 
L 79.668351 154.26189 
L 79.764381 154.26189 
L 88.117905 154.26189 
L 88.117905 144.837764 
L 88.213875 144.837764 
L 88.501968 144.837764 
L 88.501968 140.125701 
L 88.597964 140.125701 
L 89.46214 140.125701 
L 89.46214 135.413638 
L 89.558142 135.413638 
L 92.534678 135.413638 
L 92.534678 130.701575 
L 92.630694 130.701575 
L 93.494867 130.701575 
L 93.494867 125.989512 
L 93.590887 125.989512 
L 93.686903 125.989512 
L 93.686903 121.277449 
L 93.782926 121.277449 
L 93.878936 121.277449 
L 93.926938 107.14126 
L 93.97495 107.14126 
L 97.143504 107.14126 
L 97.143504 102.429197 
L 97.239561 102.429197 
L 97.335534 102.429197 
L 97.335534 93.005071 
L 97.431591 93.005071 
L 97.527568 93.005071 
L 97.527568 88.293008 
L 97.623595 88.293008 
L 97.719622 88.293008 
L 97.767628 74.156819 
L 97.815641 74.156819 
L 98.103684 74.156819 
L 98.103684 60.02063 
L 98.199721 60.02063 
L 98.295744 60.02063 
L 98.295744 50.596504 
L 98.391774 50.596504 
L 98.487751 50.596504 
L 98.487751 31.748252 
L 98.583801 31.748252 
L 98.679812 31.748252 
L 98.679812 27.036189 
L 98.775849 27.036189 
L 99.639994 27.036189 
L 99.639994 22.324126 
L 99.736016 22.324126 
L 152.449613 22.324126 
L 152.449613 27.036189 
L 152.545594 27.036189 
L 152.641646 27.036189 
L 152.641646 22.324126 
L 152.737658 22.324126 
L 153.025695 22.324126 
L 153.025695 27.036189 
L 153.121734 27.036189 
L 153.601778 27.036189 
L 153.601778 31.748252 
L 153.697833 31.748252 
L 153.985894 31.748252 
L 153.985894 36.460315 
L 154.081887 36.460315 
L 159.170801 36.460315 
L 159.170801 41.172378 
L 159.266816 41.172378 
L 170.500883 41.172378 
L 170.500883 36.460315 
L 170.596903 36.460315 
L 191.816733 36.460315 
L 191.816733 41.172378 
L 191.912778 41.172378 
L 199.306115 41.172378 
L 199.306115 36.460315 
L 199.402126 36.460315 
L 222.734406 36.460315 
L 222.734406 31.748252 
L 222.830417 31.748252 
L 225.806914 31.748252 
L 225.806914 27.036189 
L 225.902937 27.036189 
L 231.183917 27.036189 
L 231.183917 22.324126 
L 258.83696 22.324126 
L 258.83696 31.748252 
L 258.932941 31.748252 
L 259.413017 31.748252 
L 259.413017 36.460315 
L 259.509081 36.460315 
L 292.827124 36.460315 
L 292.827124 41.172378 
L 292.923177 41.172378 
L 299.74039 41.172378 
L 299.74039 36.460315 
L 299.836395 36.460315 
L 303.005 36.460315 
L 303.005 36.460315 
" style="fill:none;stroke:#a6761d;stroke-linecap:square;stroke-width:1.5;"/>
   </g>
   <g id="line2d_27">
    <path clip-path="url(#pd97d5bf984)" d="M 55.905 201.382519 
L 65.26572 201.382519 
L 65.26572 196.670456 
L 65.361753 196.670456 
L 65.841825 196.670456 
L 65.841825 191.958393 
L 65.937829 191.958393 
L 70.066601 191.958393 
L 70.066601 187.24633 
L 70.16262 187.24633 
L 70.45067 187.24633 
L 70.45067 191.958393 
L 70.546698 191.958393 
L 70.642704 191.958393 
L 70.642704 182.534267 
L 70.738707 182.534267 
L 88.117905 182.534267 
L 88.117905 177.822204 
L 88.213875 177.822204 
L 88.501968 177.822204 
L 88.501968 173.110142 
L 88.597964 173.110142 
L 88.886037 173.110142 
L 88.886037 168.398079 
L 88.982032 168.398079 
L 89.078074 168.398079 
L 89.078074 163.686016 
L 89.174067 163.686016 
L 90.038218 163.686016 
L 90.038218 158.973953 
L 90.134274 158.973953 
L 93.110779 158.973953 
L 93.110779 154.26189 
L 93.206791 154.26189 
L 93.686903 154.26189 
L 93.686903 149.549827 
L 93.782926 149.549827 
L 93.878936 149.549827 
L 93.878936 144.837764 
L 93.97495 144.837764 
L 97.143504 144.837764 
L 97.143504 135.413638 
L 97.239561 135.413638 
L 97.335534 135.413638 
L 97.335534 130.701575 
L 97.431591 130.701575 
L 97.527568 130.701575 
L 97.57558 116.565386 
L 97.623595 116.565386 
L 98.295744 116.565386 
L 98.295744 111.853323 
L 98.391774 111.853323 
L 98.487751 111.853323 
L 98.487751 107.14126 
L 98.583801 107.14126 
L 98.679812 107.14126 
L 98.679812 111.853323 
L 98.775849 111.853323 
L 98.87183 111.853323 
L 98.87183 107.14126 
L 98.96788 107.14126 
L 99.063853 107.14126 
L 99.063853 102.429197 
L 99.159914 102.429197 
L 101.368303 102.429197 
L 101.368303 107.14126 
L 101.464293 107.14126 
L 101.944378 107.14126 
L 101.944378 93.005071 
L 102.040429 93.005071 
L 102.328461 93.005071 
L 102.328461 88.293008 
L 102.424463 88.293008 
L 102.71256 88.293008 
L 102.71256 69.444756 
L 102.808558 69.444756 
L 102.904595 69.444756 
L 102.904595 64.732693 
L 103.000588 64.732693 
L 107.129328 64.732693 
L 107.129328 60.02063 
L 107.225338 60.02063 
L 122.684196 60.02063 
L 122.684196 55.308567 
L 122.780213 55.308567 
L 125.756746 55.308567 
L 125.756746 50.596504 
L 125.852737 50.596504 
L 125.948758 50.596504 
L 125.948758 55.308567 
L 126.044798 55.308567 
L 126.33283 55.308567 
L 126.33283 50.596504 
L 126.42887 50.596504 
L 130.9417 50.596504 
L 130.9417 45.884441 
L 131.037704 45.884441 
L 138.815085 45.884441 
L 138.815085 50.596504 
L 138.911112 50.596504 
L 144.192074 50.596504 
L 144.192074 45.884441 
L 144.288103 45.884441 
L 152.449613 45.884441 
L 152.449613 50.596504 
L 152.545594 50.596504 
L 152.833631 50.596504 
L 152.833631 55.308567 
L 152.929696 55.308567 
L 153.409742 55.308567 
L 153.409742 60.02063 
L 153.505761 60.02063 
L 158.786729 60.02063 
L 158.786729 64.732693 
L 158.882786 64.732693 
L 167.044219 64.732693 
L 167.044219 69.444756 
L 167.140264 69.444756 
L 186.247757 69.444756 
L 186.247757 74.156819 
L 186.343754 74.156819 
L 273.431597 74.156819 
L 273.431597 69.444756 
L 273.527654 69.444756 
L 278.616559 69.444756 
L 278.616559 74.156819 
L 278.712601 74.156819 
L 303.005 74.156819 
L 303.005 74.156819 
" style="fill:none;stroke:#666666;stroke-linecap:square;stroke-width:1.5;"/>
   </g>
   <g id="line2d_28">
    <path clip-path="url(#pd97d5bf984)" d="M 55.905 206.094582 
L 65.26572 206.094582 
L 65.26572 201.382519 
L 65.361753 201.382519 
L 70.45067 201.382519 
L 70.45067 191.958393 
L 70.546698 191.958393 
L 87.925843 191.958393 
L 87.925843 187.24633 
L 88.021841 187.24633 
L 88.309921 187.24633 
L 88.309921 182.534267 
L 88.405909 182.534267 
L 88.886037 182.534267 
L 88.886037 177.822204 
L 88.982032 177.822204 
L 92.534678 177.822204 
L 92.534678 173.110142 
L 92.630694 173.110142 
L 92.726709 173.110142 
L 92.726709 163.686016 
L 92.822755 163.686016 
L 92.918757 163.686016 
L 92.918757 158.973953 
L 93.014771 158.973953 
L 93.302794 158.973953 
L 93.302794 154.26189 
L 93.398861 154.26189 
L 93.494867 154.26189 
L 93.494867 144.837764 
L 93.590887 144.837764 
L 93.686903 144.837764 
L 93.686903 135.413638 
L 93.782926 135.413638 
L 94.455057 135.413638 
L 94.455057 130.701575 
L 94.551063 130.701575 
L 94.839115 130.701575 
L 94.839115 125.989512 
L 94.935121 125.989512 
L 95.031114 125.989512 
L 95.031114 130.701575 
L 95.127182 130.701575 
L 96.759449 130.701575 
L 96.759449 135.413638 
L 96.85549 135.413638 
L 96.951464 135.413638 
L 96.951464 140.125701 
L 97.047641 140.125701 
L 97.143504 140.125701 
L 97.143504 135.413638 
L 97.239561 135.413638 
L 97.335534 135.413638 
L 97.335534 140.125701 
L 97.431591 140.125701 
L 97.527568 140.125701 
L 97.527568 135.413638 
L 97.623595 135.413638 
L 97.719622 135.413638 
L 97.719622 130.701575 
L 97.815641 130.701575 
L 98.103684 130.701575 
L 98.103684 135.413638 
L 98.199721 135.413638 
L 102.520503 135.413638 
L 102.520503 130.701575 
L 102.616523 130.701575 
L 102.904595 130.701575 
L 102.904595 125.989512 
L 103.000588 125.989512 
L 107.321388 125.989512 
L 107.321388 121.277449 
L 107.417386 121.277449 
L 108.665617 121.277449 
L 108.665617 116.565386 
L 108.761617 116.565386 
L 120.955857 116.565386 
L 120.955857 111.853323 
L 121.051891 111.853323 
L 121.14789 111.853323 
L 121.14789 107.14126 
L 121.243914 107.14126 
L 121.91601 107.14126 
L 121.91601 102.429197 
L 122.01206 102.429197 
L 130.9417 102.429197 
L 130.9417 97.717134 
L 131.037704 97.717134 
L 131.517754 97.717134 
L 131.517754 93.005071 
L 131.61381 93.005071 
L 141.119533 93.005071 
L 141.119533 88.293008 
L 141.215525 88.293008 
L 145.344283 88.293008 
L 145.344283 93.005071 
L 145.440304 93.005071 
L 152.833631 93.005071 
L 152.833631 97.717134 
L 152.929696 97.717134 
L 185.863677 97.717134 
L 185.863677 93.005071 
L 185.959709 93.005071 
L 218.317601 93.005071 
L 218.317601 88.293008 
L 218.413597 88.293008 
L 221.966252 88.293008 
L 221.966252 83.580945 
L 222.062239 83.580945 
L 235.216642 83.580945 
L 235.216642 78.868882 
L 235.312673 78.868882 
L 263.253778 78.868882 
L 263.253778 83.580945 
L 263.349792 83.580945 
L 263.445764 83.580945 
L 263.445764 78.868882 
L 263.541781 78.868882 
L 302.044801 78.868882 
L 302.044801 83.580945 
L 302.140801 83.580945 
L 303.005 83.580945 
L 303.005 83.580945 
" style="fill:none;stroke:#1b9e77;stroke-dasharray:4.5,1.5;stroke-dashoffset:0;stroke-width:1.5;"/>
   </g>
   <g id="line2d_29">
    <path clip-path="url(#pd97d5bf984)" d="M 55.905 196.670456 
L 60.173602 196.670456 
L 60.173602 191.958393 
L 65.841825 191.958393 
L 65.841825 187.24633 
L 65.937829 187.24633 
L 69.68251 187.24633 
L 69.68251 182.534267 
L 69.778525 182.534267 
L 70.066601 182.534267 
L 70.066601 177.822204 
L 70.16262 177.822204 
L 70.642704 177.822204 
L 70.642704 173.110142 
L 70.738707 173.110142 
L 70.834733 173.110142 
L 70.834733 168.398079 
L 70.930773 168.398079 
L 71.986951 168.398079 
L 71.986951 163.686016 
L 72.082987 163.686016 
L 88.501968 163.686016 
L 88.501968 154.26189 
L 88.597964 154.26189 
L 92.918757 154.26189 
L 92.918757 149.549827 
L 93.014771 149.549827 
L 93.878936 149.549827 
L 93.878936 144.837764 
L 93.97495 144.837764 
L 94.455057 144.837764 
L 94.455057 140.125701 
L 94.551063 140.125701 
L 97.335534 140.125701 
L 97.335534 135.413638 
L 97.431591 135.413638 
L 97.527568 135.413638 
L 97.527568 125.989512 
L 97.623595 125.989512 
L 98.103684 125.989512 
L 98.103684 116.565386 
L 98.199721 116.565386 
L 102.328461 116.565386 
L 102.328461 111.853323 
L 102.424463 111.853323 
L 102.904595 111.853323 
L 102.904595 107.14126 
L 103.000588 107.14126 
L 103.480661 107.14126 
L 103.480661 102.429197 
L 103.576701 102.429197 
L 108.281566 102.429197 
L 108.281566 97.717134 
L 108.377586 97.717134 
L 121.531968 97.717134 
L 121.531968 93.005071 
L 121.627999 93.005071 
L 125.948758 93.005071 
L 125.948758 88.293008 
L 126.044798 88.293008 
L 130.9417 88.293008 
L 130.9417 93.005071 
L 131.037704 93.005071 
L 153.025695 93.005071 
L 153.025695 88.293008 
L 153.121734 88.293008 
L 153.217714 88.293008 
L 153.217714 93.005071 
L 153.313749 93.005071 
L 158.018607 93.005071 
L 158.018607 88.293008 
L 158.114646 88.293008 
L 191.816733 88.293008 
L 191.816733 83.580945 
L 191.912778 83.580945 
L 222.542331 83.580945 
L 222.542331 78.868882 
L 222.638347 78.868882 
L 232.336133 78.868882 
L 232.336133 83.580945 
L 232.432141 83.580945 
L 293.211207 83.580945 
L 293.211207 88.293008 
L 293.307214 88.293008 
L 295.51564 88.293008 
L 295.51564 93.005071 
L 295.611655 93.005071 
L 303.005 93.005071 
L 303.005 93.005071 
" style="fill:none;stroke:#d95f02;stroke-dasharray:4.5,1.5;stroke-dashoffset:0;stroke-width:1.5;"/>
   </g>
   <g id="line2d_30">
    <path clip-path="url(#pd97d5bf984)" d="M 55.905 210.806645 
L 61.617041 210.806645 
L 61.617041 206.094582 
L 61.713063 206.094582 
L 62.385218 206.094582 
L 62.385218 201.382519 
L 62.481226 201.382519 
L 74.483424 201.382519 
L 74.483424 196.670456 
L 74.579431 196.670456 
L 87.925843 196.670456 
L 87.925843 191.958393 
L 88.021841 191.958393 
L 89.270081 191.958393 
L 89.270081 182.534267 
L 89.36609 182.534267 
L 92.918757 182.534267 
L 92.918757 177.822204 
L 93.014771 177.822204 
L 93.110779 177.822204 
L 93.110779 173.110142 
L 93.206791 173.110142 
L 93.686903 173.110142 
L 93.686903 163.686016 
L 93.782926 163.686016 
L 93.878936 163.686016 
L 93.878936 158.973953 
L 93.97495 158.973953 
L 95.031114 158.973953 
L 95.031114 154.26189 
L 95.127182 154.26189 
L 97.335534 154.26189 
L 97.335534 158.973953 
L 97.431591 158.973953 
L 97.719622 158.973953 
L 97.719622 154.26189 
L 97.815641 154.26189 
L 97.911668 154.26189 
L 97.911668 149.549827 
L 98.007709 149.549827 
L 98.295744 149.549827 
L 98.295744 144.837764 
L 98.391774 144.837764 
L 98.487751 144.837764 
L 98.487751 149.549827 
L 98.583801 149.549827 
L 98.679812 149.549827 
L 98.679812 144.837764 
L 98.775849 144.837764 
L 101.944378 144.837764 
L 101.944378 140.125701 
L 102.040429 140.125701 
L 108.089529 140.125701 
L 108.089529 135.413638 
L 108.185533 135.413638 
L 120.955857 135.413638 
L 120.955857 130.701575 
L 121.051891 130.701575 
L 139.199166 130.701575 
L 139.199166 125.989512 
L 139.295226 125.989512 
L 162.051344 125.989512 
L 162.051344 121.277449 
L 162.147366 121.277449 
L 186.247757 121.277449 
L 186.247757 116.565386 
L 186.343754 116.565386 
L 231.183917 116.565386 
L 231.183917 111.853323 
L 249.619257 111.853323 
L 249.619257 107.14126 
L 249.715297 107.14126 
L 287.642175 107.14126 
L 287.642175 102.429197 
L 287.7382 102.429197 
L 293.019156 102.429197 
L 293.019156 97.717134 
L 293.115178 97.717134 
L 300.124435 97.717134 
L 300.124435 93.005071 
L 300.220478 93.005071 
L 303.005 93.005071 
L 303.005 93.005071 
" style="fill:none;stroke:#7570b3;stroke-dasharray:4.5,1.5;stroke-dashoffset:0;stroke-width:1.5;"/>
   </g>
   <g id="line2d_31">
    <path clip-path="url(#pd97d5bf984)" d="M 55.905 210.806645 
L 60.849104 210.806645 
L 60.849104 206.094582 
L 60.944957 206.094582 
L 61.233016 206.094582 
L 61.233016 201.382519 
L 61.329053 201.382519 
L 65.649788 201.382519 
L 65.649788 196.670456 
L 65.745803 196.670456 
L 70.642704 196.670456 
L 70.642704 191.958393 
L 70.738707 191.958393 
L 73.71527 191.958393 
L 73.71527 187.24633 
L 73.811316 187.24633 
L 74.675424 187.24633 
L 74.675424 182.534267 
L 74.771463 182.534267 
L 75.059512 182.534267 
L 75.059512 177.822204 
L 75.155511 177.822204 
L 87.925843 177.822204 
L 87.925843 168.398079 
L 88.021841 168.398079 
L 88.309921 168.398079 
L 88.309921 163.686016 
L 88.405909 163.686016 
L 88.501968 163.686016 
L 88.501968 158.973953 
L 88.597964 158.973953 
L 88.693982 158.973953 
L 88.693982 154.26189 
L 88.78999 154.26189 
L 88.886037 154.26189 
L 88.886037 144.837764 
L 88.982032 144.837764 
L 89.078074 144.837764 
L 89.078074 140.125701 
L 89.174067 140.125701 
L 89.46214 140.125701 
L 89.46214 135.413638 
L 89.558142 135.413638 
L 89.846226 135.413638 
L 89.846226 130.701575 
L 89.942228 130.701575 
L 90.422279 130.701575 
L 90.422279 125.989512 
L 90.518342 125.989512 
L 92.534678 125.989512 
L 92.534678 121.277449 
L 92.630694 121.277449 
L 92.726709 121.277449 
L 92.726709 116.565386 
L 92.822755 116.565386 
L 92.918757 116.565386 
L 92.918757 102.429197 
L 93.014771 102.429197 
L 93.110779 102.429197 
L 93.110779 97.717134 
L 93.206791 97.717134 
L 93.302794 97.717134 
L 93.302794 93.005071 
L 93.398861 93.005071 
L 95.031114 93.005071 
L 95.031114 97.717134 
L 95.127182 97.717134 
L 97.527568 97.717134 
L 97.527568 93.005071 
L 97.623595 93.005071 
L 97.719622 93.005071 
L 97.719622 97.717134 
L 97.815641 97.717134 
L 97.911668 97.717134 
L 97.911668 93.005071 
L 98.007709 93.005071 
L 103.288671 93.005071 
L 103.288671 97.717134 
L 103.384656 97.717134 
L 103.480661 97.717134 
L 103.480661 93.005071 
L 103.576701 93.005071 
L 287.258136 93.005071 
L 287.258136 97.717134 
L 287.354114 97.717134 
L 302.044801 97.717134 
L 302.044801 93.005071 
L 302.140801 93.005071 
L 303.005 93.005071 
L 303.005 93.005071 
" style="fill:none;stroke:#e7298a;stroke-dasharray:4.5,1.5;stroke-dashoffset:0;stroke-width:1.5;"/>
   </g>
   <g id="line2d_32">
    <path clip-path="url(#pd97d5bf984)" d="M 142.127698 210.806645 
L 143.80799 210.806645 
L 143.80799 206.094582 
L 143.904041 206.094582 
L 149.569079 206.094582 
L 149.569079 201.382519 
L 149.665068 201.382519 
L 152.449613 201.382519 
L 152.449613 182.534267 
L 152.545594 182.534267 
L 152.833631 182.534267 
L 152.833631 173.110142 
L 152.929696 173.110142 
L 153.217714 173.110142 
L 153.217714 158.973953 
L 153.313749 158.973953 
L 153.601778 158.973953 
L 153.601778 154.26189 
L 153.697833 154.26189 
L 157.442517 154.26189 
L 157.442517 149.549827 
L 157.538532 149.549827 
L 158.40268 149.549827 
L 158.40268 144.837764 
L 158.498691 144.837764 
L 158.786729 144.837764 
L 158.786729 140.125701 
L 158.882786 140.125701 
L 159.170801 140.125701 
L 159.170801 135.413638 
L 159.266816 135.413638 
L 159.362843 135.413638 
L 159.362843 130.701575 
L 159.45884 130.701575 
L 162.051344 130.701575 
L 162.051344 125.989512 
L 162.147366 125.989512 
L 163.779627 125.989512 
L 163.779627 121.277449 
L 163.875678 121.277449 
L 167.044219 121.277449 
L 167.044219 116.565386 
L 167.140264 116.565386 
L 225.806914 116.565386 
L 225.806914 121.277449 
L 225.902937 121.277449 
L 226.767078 121.277449 
L 226.767078 116.565386 
L 226.863132 116.565386 
L 259.028985 116.565386 
L 259.028985 111.853323 
L 259.125016 111.853323 
L 259.413017 111.853323 
L 259.413017 107.14126 
L 259.509081 107.14126 
L 260.949325 107.14126 
L 260.949325 102.429197 
L 261.045321 102.429197 
L 287.066063 102.429197 
L 287.066063 97.717134 
L 287.162088 97.717134 
L 303.005 97.717134 
L 303.005 97.717134 
" style="fill:none;stroke:#66a61e;stroke-dasharray:4.5,1.5;stroke-dashoffset:0;stroke-width:1.5;"/>
   </g>
   <g id="line2d_33">
    <path clip-path="url(#pd97d5bf984)" d="M 55.905 206.094582 
L 64.881677 206.094582 
L 64.881677 201.382519 
L 64.977658 201.382519 
L 65.073704 201.382519 
L 65.073704 196.670456 
L 65.16972 196.670456 
L 65.841825 196.670456 
L 65.841825 187.24633 
L 65.937829 187.24633 
L 69.490497 187.24633 
L 69.490497 182.534267 
L 69.586511 182.534267 
L 70.45067 182.534267 
L 70.45067 177.822204 
L 70.546698 177.822204 
L 70.642704 177.822204 
L 70.642704 173.110142 
L 70.738707 173.110142 
L 70.834733 173.110142 
L 70.834733 168.398079 
L 70.930773 168.398079 
L 88.309921 168.398079 
L 88.309921 163.686016 
L 88.405909 163.686016 
L 88.501968 163.686016 
L 88.501968 158.973953 
L 88.597964 158.973953 
L 88.693982 158.973953 
L 88.693982 149.549827 
L 88.78999 149.549827 
L 93.494867 149.549827 
L 93.494867 144.837764 
L 93.590887 144.837764 
L 93.686903 144.837764 
L 93.686903 140.125701 
L 93.782926 140.125701 
L 96.951464 140.125701 
L 96.951464 144.837764 
L 97.047641 144.837764 
L 97.527568 144.837764 
L 97.527568 135.413638 
L 97.623595 135.413638 
L 97.719622 135.413638 
L 97.719622 140.125701 
L 97.815641 140.125701 
L 97.911668 140.125701 
L 97.911668 135.413638 
L 98.007709 135.413638 
L 98.295744 135.413638 
L 98.295744 125.989512 
L 98.391774 125.989512 
L 98.487751 125.989512 
L 98.487751 121.277449 
L 98.583801 121.277449 
L 107.51339 121.277449 
L 107.51339 116.565386 
L 107.609451 116.565386 
L 108.089529 116.565386 
L 108.089529 111.853323 
L 108.185533 111.853323 
L 117.307178 111.853323 
L 117.307178 107.14126 
L 117.403197 107.14126 
L 134.782359 107.14126 
L 134.782359 102.429197 
L 134.878391 102.429197 
L 135.550498 102.429197 
L 135.550498 97.717134 
L 135.646561 97.717134 
L 139.391227 97.717134 
L 139.391227 93.005071 
L 139.48725 93.005071 
L 154.561997 93.005071 
L 154.561997 88.293008 
L 154.65798 88.293008 
L 269.014767 88.293008 
L 269.014767 93.005071 
L 269.110829 93.005071 
L 273.431597 93.005071 
L 273.431597 97.717134 
L 273.527654 97.717134 
L 303.005 97.717134 
L 303.005 97.717134 
" style="fill:none;stroke:#e6ab02;stroke-dasharray:4.5,1.5;stroke-dashoffset:0;stroke-width:1.5;"/>
   </g>
   <g id="line2d_34">
    <path clip-path="url(#pd97d5bf984)" d="M 55.905 206.094582 
L 65.457754 206.094582 
L 65.457754 196.670456 
L 65.553782 196.670456 
L 69.68251 196.670456 
L 69.68251 187.24633 
L 69.778525 187.24633 
L 69.874535 187.24633 
L 69.874535 182.534267 
L 69.970576 182.534267 
L 70.642704 182.534267 
L 70.642704 177.822204 
L 70.738707 177.822204 
L 70.834733 177.822204 
L 70.834733 173.110142 
L 70.930773 173.110142 
L 88.693982 173.110142 
L 88.693982 168.398079 
L 88.78999 168.398079 
L 88.886037 168.398079 
L 88.886037 163.686016 
L 88.982032 163.686016 
L 89.078074 163.686016 
L 89.078074 158.973953 
L 89.174067 158.973953 
L 89.654137 158.973953 
L 89.654137 154.26189 
L 89.750198 154.26189 
L 89.846226 154.26189 
L 89.846226 158.973953 
L 89.942228 158.973953 
L 92.534678 158.973953 
L 92.534678 140.125701 
L 92.630694 140.125701 
L 92.918757 140.125701 
L 92.918757 130.701575 
L 93.014771 130.701575 
L 93.110779 130.701575 
L 93.110779 125.989512 
L 93.206791 125.989512 
L 93.302794 125.989512 
L 93.302794 116.565386 
L 93.398861 116.565386 
L 303.005 116.565386 
L 303.005 116.565386 
" style="fill:none;stroke:#a6761d;stroke-dasharray:4.5,1.5;stroke-dashoffset:0;stroke-width:1.5;"/>
   </g>
   <g id="line2d_35">
    <path clip-path="url(#pd97d5bf984)" d="M 55.905 210.806645 
L 65.841825 210.806645 
L 65.841825 206.094582 
L 65.937829 206.094582 
L 66.033888 206.094582 
L 66.033888 201.382519 
L 66.129902 201.382519 
L 69.874535 201.382519 
L 69.874535 196.670456 
L 69.970576 196.670456 
L 70.834733 196.670456 
L 70.834733 191.958393 
L 70.930773 191.958393 
L 71.218803 191.958393 
L 71.218803 187.24633 
L 71.314842 187.24633 
L 71.602893 187.24633 
L 71.602893 182.534267 
L 71.698919 182.534267 
L 74.483424 182.534267 
L 74.483424 187.24633 
L 74.579431 187.24633 
L 88.117905 187.24633 
L 88.117905 182.534267 
L 88.213875 182.534267 
L 89.270081 182.534267 
L 89.270081 173.110142 
L 89.36609 173.110142 
L 92.726709 173.110142 
L 92.726709 168.398079 
L 92.822755 168.398079 
L 93.494867 168.398079 
L 93.494867 149.549827 
L 93.590887 149.549827 
L 93.686903 149.549827 
L 93.686903 144.837764 
L 93.782926 144.837764 
L 93.878936 144.837764 
L 93.878936 140.125701 
L 93.97495 140.125701 
L 152.833631 140.125701 
L 152.833631 144.837764 
L 152.929696 144.837764 
L 153.025695 144.837764 
L 153.025695 140.125701 
L 153.121734 140.125701 
L 269.014767 140.125701 
L 269.014767 135.413638 
L 269.110829 135.413638 
L 278.616559 135.413638 
L 278.616559 130.701575 
L 278.712601 130.701575 
L 292.827124 130.701575 
L 292.827124 125.989512 
L 292.923177 125.989512 
L 295.51564 125.989512 
L 295.51564 121.277449 
L 295.611655 121.277449 
L 296.283772 121.277449 
L 296.283772 116.565386 
L 296.379774 116.565386 
L 303.005 116.565386 
L 303.005 116.565386 
" style="fill:none;stroke:#666666;stroke-dasharray:4.5,1.5;stroke-dashoffset:0;stroke-width:1.5;"/>
   </g>
   <g id="line2d_36"/>
   <g id="line2d_37"/>
   <g id="line2d_38"/>
   <g id="line2d_39"/>
   <g id="line2d_40"/>
   <g id="line2d_41"/>
   <g id="line2d_42"/>
   <g id="line2d_43"/>
   <g id="line2d_44"/>
   <g id="line2d_45"/>
   <g id="line2d_46"/>
   <g id="line2d_47"/>
   <g id="line2d_48"/>
   <g id="line2d_49"/>
   <g id="line2d_50"/>
   <g id="line2d_51"/>
   <g id="line2d_52"/>
   <g id="patch_3">
    <path d="M 43.55 220.230771 
L 43.55 12.9 
" style="fill:none;stroke:#000000;stroke-linecap:square;stroke-linejoin:miter;stroke-width:0.8;"/>
   </g>
   <g id="patch_4">
    <path d="M 315.36 220.230771 
L 315.36 12.9 
" style="fill:none;stroke:#000000;stroke-linecap:square;stroke-linejoin:miter;stroke-width:0.8;"/>
   </g>
   <g id="patch_5">
    <path d="M 43.55 220.230771 
L 315.36 220.230771 
" style="fill:none;stroke:#000000;stroke-linecap:square;stroke-linejoin:miter;stroke-width:0.8;"/>
   </g>
   <g id="patch_6">
    <path d="M 43.55 12.9 
L 315.36 12.9 
" style="fill:none;stroke:#000000;stroke-linecap:square;stroke-linejoin:miter;stroke-width:0.8;"/>
   </g>
  </g>
  <g id="legend_1">
   <g id="patch_7">
    <path d="M 331.8625 262.528125 
L 420 262.528125 
Q 422 262.528125 422 260.528125 
L 422 12 
Q 422 10 420 10 
L 331.8625 10 
Q 329.8625 10 329.8625 12 
L 329.8625 260.528125 
Q 329.8625 262.528125 331.8625 262.528125 
z
" style="fill:#ffffff;opacity:0.8;stroke:#cccccc;stroke-linejoin:miter;"/>
   </g>
   <g id="text_22">
    <!-- 492/610 Reg. -->
    <defs>
     <path d="M 25.390625 72.90625 
L 33.6875 72.90625 
L 8.296875 -9.28125 
L 0 -9.28125 
z
" id="DejaVuSans-47"/>
     <path d="M 33.015625 40.375 
Q 26.375 40.375 22.484375 35.828125 
Q 18.609375 31.296875 18.609375 23.390625 
Q 18.609375 15.53125 22.484375 10.953125 
Q 26.375 6.390625 33.015625 6.390625 
Q 39.65625 6.390625 43.53125 10.953125 
Q 47.40625 15.53125 47.40625 23.390625 
Q 47.40625 31.296875 43.53125 35.828125 
Q 39.65625 40.375 33.015625 40.375 
z
M 52.59375 71.296875 
L 52.59375 62.3125 
Q 48.875 64.0625 45.09375 64.984375 
Q 41.3125 65.921875 37.59375 65.921875 
Q 27.828125 65.921875 22.671875 59.328125 
Q 17.53125 52.734375 16.796875 39.40625 
Q 19.671875 43.65625 24.015625 45.921875 
Q 28.375 48.1875 33.59375 48.1875 
Q 44.578125 48.1875 50.953125 41.515625 
Q 57.328125 34.859375 57.328125 23.390625 
Q 57.328125 12.15625 50.6875 5.359375 
Q 44.046875 -1.421875 33.015625 -1.421875 
Q 20.359375 -1.421875 13.671875 8.265625 
Q 6.984375 17.96875 6.984375 36.375 
Q 6.984375 53.65625 15.1875 63.9375 
Q 23.390625 74.21875 37.203125 74.21875 
Q 40.921875 74.21875 44.703125 73.484375 
Q 48.484375 72.75 52.59375 71.296875 
z
" id="DejaVuSans-54"/>
     <path d="M 10.6875 12.40625 
L 21 12.40625 
L 21 0 
L 10.6875 0 
z
" id="DejaVuSans-46"/>
    </defs>
    <g transform="translate(342.259375 21.598437)scale(0.1 -0.1)">
     <use xlink:href="#DejaVuSans-52"/>
     <use x="63.623047" xlink:href="#DejaVuSans-57"/>
     <use x="127.246094" xlink:href="#DejaVuSans-50"/>
     <use x="190.869141" xlink:href="#DejaVuSans-47"/>
     <use x="224.560547" xlink:href="#DejaVuSans-54"/>
     <use x="288.183594" xlink:href="#DejaVuSans-49"/>
     <use x="351.806641" xlink:href="#DejaVuSans-48"/>
     <use x="415.429688" xlink:href="#DejaVuSans-32"/>
     <use x="447.216797" xlink:href="#DejaVuSans-82"/>
     <use x="516.636719" xlink:href="#DejaVuSans-101"/>
     <use x="578.160156" xlink:href="#DejaVuSans-103"/>
     <use x="641.636719" xlink:href="#DejaVuSans-46"/>
    </g>
   </g>
   <g id="line2d_53">
    <path d="M 333.8625 32.776562 
L 353.8625 32.776562 
" style="fill:none;stroke:#1b9e77;stroke-linecap:square;stroke-width:1.5;"/>
   </g>
   <g id="line2d_54"/>
   <g id="text_23">
    <!-- AS (40) -->
    <defs>
     <path d="M 34.1875 63.1875 
L 20.796875 26.90625 
L 47.609375 26.90625 
z
M 28.609375 72.90625 
L 39.796875 72.90625 
L 67.578125 0 
L 57.328125 0 
L 50.6875 18.703125 
L 17.828125 18.703125 
L 11.1875 0 
L 0.78125 0 
z
" id="DejaVuSans-65"/>
     <path d="M 31 75.875 
Q 24.46875 64.65625 21.28125 53.65625 
Q 18.109375 42.671875 18.109375 31.390625 
Q 18.109375 20.125 21.3125 9.0625 
Q 24.515625 -2 31 -13.1875 
L 23.1875 -13.1875 
Q 15.875 -1.703125 12.234375 9.375 
Q 8.59375 20.453125 8.59375 31.390625 
Q 8.59375 42.28125 12.203125 53.3125 
Q 15.828125 64.359375 23.1875 75.875 
z
" id="DejaVuSans-40"/>
     <path d="M 8.015625 75.875 
L 15.828125 75.875 
Q 23.140625 64.359375 26.78125 53.3125 
Q 30.421875 42.28125 30.421875 31.390625 
Q 30.421875 20.453125 26.78125 9.375 
Q 23.140625 -1.703125 15.828125 -13.1875 
L 8.015625 -13.1875 
Q 14.5 -2 17.703125 9.0625 
Q 20.90625 20.125 20.90625 31.390625 
Q 20.90625 42.671875 17.703125 53.65625 
Q 14.5 64.65625 8.015625 75.875 
z
" id="DejaVuSans-41"/>
    </defs>
    <g transform="translate(361.8625 36.276562)scale(0.1 -0.1)">
     <use xlink:href="#DejaVuSans-65"/>
     <use x="68.408203" xlink:href="#DejaVuSans-83"/>
     <use x="131.884766" xlink:href="#DejaVuSans-32"/>
     <use x="163.671875" xlink:href="#DejaVuSans-40"/>
     <use x="202.685547" xlink:href="#DejaVuSans-52"/>
     <use x="266.308594" xlink:href="#DejaVuSans-48"/>
     <use x="329.931641" xlink:href="#DejaVuSans-41"/>
    </g>
   </g>
   <g id="line2d_55">
    <path d="M 333.8625 47.454688 
L 353.8625 47.454688 
" style="fill:none;stroke:#d95f02;stroke-linecap:square;stroke-width:1.5;"/>
   </g>
   <g id="line2d_56"/>
   <g id="text_24">
    <!-- AUS (40) -->
    <defs>
     <path d="M 8.6875 72.90625 
L 18.609375 72.90625 
L 18.609375 28.609375 
Q 18.609375 16.890625 22.84375 11.734375 
Q 27.09375 6.59375 36.625 6.59375 
Q 46.09375 6.59375 50.34375 11.734375 
Q 54.59375 16.890625 54.59375 28.609375 
L 54.59375 72.90625 
L 64.5 72.90625 
L 64.5 27.390625 
Q 64.5 13.140625 57.4375 5.859375 
Q 50.390625 -1.421875 36.625 -1.421875 
Q 22.796875 -1.421875 15.734375 5.859375 
Q 8.6875 13.140625 8.6875 27.390625 
z
" id="DejaVuSans-85"/>
    </defs>
    <g transform="translate(361.8625 50.954688)scale(0.1 -0.1)">
     <use xlink:href="#DejaVuSans-65"/>
     <use x="68.408203" xlink:href="#DejaVuSans-85"/>
     <use x="141.601562" xlink:href="#DejaVuSans-83"/>
     <use x="205.078125" xlink:href="#DejaVuSans-32"/>
     <use x="236.865234" xlink:href="#DejaVuSans-40"/>
     <use x="275.878906" xlink:href="#DejaVuSans-52"/>
     <use x="339.501953" xlink:href="#DejaVuSans-48"/>
     <use x="403.125" xlink:href="#DejaVuSans-41"/>
    </g>
   </g>
   <g id="line2d_57">
    <path d="M 333.8625 62.132812 
L 353.8625 62.132812 
" style="fill:none;stroke:#7570b3;stroke-linecap:square;stroke-width:1.5;"/>
   </g>
   <g id="line2d_58"/>
   <g id="text_25">
    <!-- COML (40) -->
    <defs>
     <path d="M 64.40625 67.28125 
L 64.40625 56.890625 
Q 59.421875 61.53125 53.78125 63.8125 
Q 48.140625 66.109375 41.796875 66.109375 
Q 29.296875 66.109375 22.65625 58.46875 
Q 16.015625 50.828125 16.015625 36.375 
Q 16.015625 21.96875 22.65625 14.328125 
Q 29.296875 6.6875 41.796875 6.6875 
Q 48.140625 6.6875 53.78125 8.984375 
Q 59.421875 11.28125 64.40625 15.921875 
L 64.40625 5.609375 
Q 59.234375 2.09375 53.4375 0.328125 
Q 47.65625 -1.421875 41.21875 -1.421875 
Q 24.65625 -1.421875 15.125 8.703125 
Q 5.609375 18.84375 5.609375 36.375 
Q 5.609375 53.953125 15.125 64.078125 
Q 24.65625 74.21875 41.21875 74.21875 
Q 47.75 74.21875 53.53125 72.484375 
Q 59.328125 70.75 64.40625 67.28125 
z
" id="DejaVuSans-67"/>
     <path d="M 39.40625 66.21875 
Q 28.65625 66.21875 22.328125 58.203125 
Q 16.015625 50.203125 16.015625 36.375 
Q 16.015625 22.609375 22.328125 14.59375 
Q 28.65625 6.59375 39.40625 6.59375 
Q 50.140625 6.59375 56.421875 14.59375 
Q 62.703125 22.609375 62.703125 36.375 
Q 62.703125 50.203125 56.421875 58.203125 
Q 50.140625 66.21875 39.40625 66.21875 
z
M 39.40625 74.21875 
Q 54.734375 74.21875 63.90625 63.9375 
Q 73.09375 53.65625 73.09375 36.375 
Q 73.09375 19.140625 63.90625 8.859375 
Q 54.734375 -1.421875 39.40625 -1.421875 
Q 24.03125 -1.421875 14.8125 8.828125 
Q 5.609375 19.09375 5.609375 36.375 
Q 5.609375 53.65625 14.8125 63.9375 
Q 24.03125 74.21875 39.40625 74.21875 
z
" id="DejaVuSans-79"/>
     <path d="M 9.8125 72.90625 
L 24.515625 72.90625 
L 43.109375 23.296875 
L 61.8125 72.90625 
L 76.515625 72.90625 
L 76.515625 0 
L 66.890625 0 
L 66.890625 64.015625 
L 48.09375 14.015625 
L 38.1875 14.015625 
L 19.390625 64.015625 
L 19.390625 0 
L 9.8125 0 
z
" id="DejaVuSans-77"/>
     <path d="M 9.8125 72.90625 
L 19.671875 72.90625 
L 19.671875 8.296875 
L 55.171875 8.296875 
L 55.171875 0 
L 9.8125 0 
z
" id="DejaVuSans-76"/>
    </defs>
    <g transform="translate(361.8625 65.632812)scale(0.1 -0.1)">
     <use xlink:href="#DejaVuSans-67"/>
     <use x="69.824219" xlink:href="#DejaVuSans-79"/>
     <use x="148.535156" xlink:href="#DejaVuSans-77"/>
     <use x="234.814453" xlink:href="#DejaVuSans-76"/>
     <use x="290.527344" xlink:href="#DejaVuSans-32"/>
     <use x="322.314453" xlink:href="#DejaVuSans-40"/>
     <use x="361.328125" xlink:href="#DejaVuSans-52"/>
     <use x="424.951172" xlink:href="#DejaVuSans-48"/>
     <use x="488.574219" xlink:href="#DejaVuSans-41"/>
    </g>
   </g>
   <g id="line2d_59">
    <path d="M 333.8625 76.810937 
L 353.8625 76.810937 
" style="fill:none;stroke:#e7298a;stroke-linecap:square;stroke-width:1.5;"/>
   </g>
   <g id="line2d_60"/>
   <g id="text_26">
    <!-- GDD (40) -->
    <defs>
     <path d="M 59.515625 10.40625 
L 59.515625 29.984375 
L 43.40625 29.984375 
L 43.40625 38.09375 
L 69.28125 38.09375 
L 69.28125 6.78125 
Q 63.578125 2.734375 56.6875 0.65625 
Q 49.8125 -1.421875 42 -1.421875 
Q 24.90625 -1.421875 15.25 8.5625 
Q 5.609375 18.5625 5.609375 36.375 
Q 5.609375 54.25 15.25 64.234375 
Q 24.90625 74.21875 42 74.21875 
Q 49.125 74.21875 55.546875 72.453125 
Q 61.96875 70.703125 67.390625 67.28125 
L 67.390625 56.78125 
Q 61.921875 61.421875 55.765625 63.765625 
Q 49.609375 66.109375 42.828125 66.109375 
Q 29.4375 66.109375 22.71875 58.640625 
Q 16.015625 51.171875 16.015625 36.375 
Q 16.015625 21.625 22.71875 14.15625 
Q 29.4375 6.6875 42.828125 6.6875 
Q 48.046875 6.6875 52.140625 7.59375 
Q 56.25 8.5 59.515625 10.40625 
z
" id="DejaVuSans-71"/>
    </defs>
    <g transform="translate(361.8625 80.310937)scale(0.1 -0.1)">
     <use xlink:href="#DejaVuSans-71"/>
     <use x="77.490234" xlink:href="#DejaVuSans-68"/>
     <use x="154.492188" xlink:href="#DejaVuSans-68"/>
     <use x="231.494141" xlink:href="#DejaVuSans-32"/>
     <use x="263.28125" xlink:href="#DejaVuSans-40"/>
     <use x="302.294922" xlink:href="#DejaVuSans-52"/>
     <use x="365.917969" xlink:href="#DejaVuSans-48"/>
     <use x="429.541016" xlink:href="#DejaVuSans-41"/>
    </g>
   </g>
   <g id="line2d_61">
    <path d="M 333.8625 91.489062 
L 353.8625 91.489062 
" style="fill:none;stroke:#66a61e;stroke-linecap:square;stroke-width:1.5;"/>
   </g>
   <g id="line2d_62"/>
   <g id="text_27">
    <!-- MD (38) -->
    <g transform="translate(361.8625 94.989062)scale(0.1 -0.1)">
     <use xlink:href="#DejaVuSans-77"/>
     <use x="86.279297" xlink:href="#DejaVuSans-68"/>
     <use x="163.28125" xlink:href="#DejaVuSans-32"/>
     <use x="195.068359" xlink:href="#DejaVuSans-40"/>
     <use x="234.082031" xlink:href="#DejaVuSans-51"/>
     <use x="297.705078" xlink:href="#DejaVuSans-56"/>
     <use x="361.328125" xlink:href="#DejaVuSans-41"/>
    </g>
   </g>
   <g id="line2d_63">
    <path d="M 333.8625 106.167188 
L 353.8625 106.167188 
" style="fill:none;stroke:#e6ab02;stroke-linecap:square;stroke-width:1.5;"/>
   </g>
   <g id="line2d_64"/>
   <g id="text_28">
    <!-- HPI (38) -->
    <defs>
     <path d="M 9.8125 72.90625 
L 19.671875 72.90625 
L 19.671875 43.015625 
L 55.515625 43.015625 
L 55.515625 72.90625 
L 65.375 72.90625 
L 65.375 0 
L 55.515625 0 
L 55.515625 34.71875 
L 19.671875 34.71875 
L 19.671875 0 
L 9.8125 0 
z
" id="DejaVuSans-72"/>
     <path d="M 19.671875 64.796875 
L 19.671875 37.40625 
L 32.078125 37.40625 
Q 38.96875 37.40625 42.71875 40.96875 
Q 46.484375 44.53125 46.484375 51.125 
Q 46.484375 57.671875 42.71875 61.234375 
Q 38.96875 64.796875 32.078125 64.796875 
z
M 9.8125 72.90625 
L 32.078125 72.90625 
Q 44.34375 72.90625 50.609375 67.359375 
Q 56.890625 61.8125 56.890625 51.125 
Q 56.890625 40.328125 50.609375 34.8125 
Q 44.34375 29.296875 32.078125 29.296875 
L 19.671875 29.296875 
L 19.671875 0 
L 9.8125 0 
z
" id="DejaVuSans-80"/>
     <path d="M 9.8125 72.90625 
L 19.671875 72.90625 
L 19.671875 0 
L 9.8125 0 
z
" id="DejaVuSans-73"/>
    </defs>
    <g transform="translate(361.8625 109.667188)scale(0.1 -0.1)">
     <use xlink:href="#DejaVuSans-72"/>
     <use x="75.195312" xlink:href="#DejaVuSans-80"/>
     <use x="135.498047" xlink:href="#DejaVuSans-73"/>
     <use x="164.990234" xlink:href="#DejaVuSans-32"/>
     <use x="196.777344" xlink:href="#DejaVuSans-40"/>
     <use x="235.791016" xlink:href="#DejaVuSans-51"/>
     <use x="299.414062" xlink:href="#DejaVuSans-56"/>
     <use x="363.037109" xlink:href="#DejaVuSans-41"/>
    </g>
   </g>
   <g id="line2d_65">
    <path d="M 333.8625 120.845312 
L 353.8625 120.845312 
" style="fill:none;stroke:#a6761d;stroke-linecap:square;stroke-width:1.5;"/>
   </g>
   <g id="line2d_66"/>
   <g id="text_29">
    <!-- SA (37) -->
    <defs>
     <path d="M 8.203125 72.90625 
L 55.078125 72.90625 
L 55.078125 68.703125 
L 28.609375 0 
L 18.3125 0 
L 43.21875 64.59375 
L 8.203125 64.59375 
z
" id="DejaVuSans-55"/>
    </defs>
    <g transform="translate(361.8625 124.345312)scale(0.1 -0.1)">
     <use xlink:href="#DejaVuSans-83"/>
     <use x="63.492188" xlink:href="#DejaVuSans-65"/>
     <use x="131.900391" xlink:href="#DejaVuSans-32"/>
     <use x="163.6875" xlink:href="#DejaVuSans-40"/>
     <use x="202.701172" xlink:href="#DejaVuSans-51"/>
     <use x="266.324219" xlink:href="#DejaVuSans-55"/>
     <use x="329.947266" xlink:href="#DejaVuSans-41"/>
    </g>
   </g>
   <g id="line2d_67">
    <path d="M 333.8625 135.523438 
L 353.8625 135.523438 
" style="fill:none;stroke:#666666;stroke-linecap:square;stroke-width:1.5;"/>
   </g>
   <g id="line2d_68"/>
   <g id="text_30">
    <!-- FIT (29) -->
    <defs>
     <path d="M 9.8125 72.90625 
L 51.703125 72.90625 
L 51.703125 64.59375 
L 19.671875 64.59375 
L 19.671875 43.109375 
L 48.578125 43.109375 
L 48.578125 34.8125 
L 19.671875 34.8125 
L 19.671875 0 
L 9.8125 0 
z
" id="DejaVuSans-70"/>
     <path d="M -0.296875 72.90625 
L 61.375 72.90625 
L 61.375 64.59375 
L 35.5 64.59375 
L 35.5 0 
L 25.59375 0 
L 25.59375 64.59375 
L -0.296875 64.59375 
z
" id="DejaVuSans-84"/>
    </defs>
    <g transform="translate(361.8625 139.023438)scale(0.1 -0.1)">
     <use xlink:href="#DejaVuSans-70"/>
     <use x="57.519531" xlink:href="#DejaVuSans-73"/>
     <use x="87.011719" xlink:href="#DejaVuSans-84"/>
     <use x="148.095703" xlink:href="#DejaVuSans-32"/>
     <use x="179.882812" xlink:href="#DejaVuSans-40"/>
     <use x="218.896484" xlink:href="#DejaVuSans-50"/>
     <use x="282.519531" xlink:href="#DejaVuSans-57"/>
     <use x="346.142578" xlink:href="#DejaVuSans-41"/>
    </g>
   </g>
   <g id="line2d_69">
    <path d="M 333.8625 150.201562 
L 353.8625 150.201562 
" style="fill:none;stroke:#1b9e77;stroke-dasharray:4.5,1.5;stroke-dashoffset:0;stroke-width:1.5;"/>
   </g>
   <g id="line2d_70"/>
   <g id="text_31">
    <!-- SPD (27) -->
    <g transform="translate(361.8625 153.701562)scale(0.1 -0.1)">
     <use xlink:href="#DejaVuSans-83"/>
     <use x="63.476562" xlink:href="#DejaVuSans-80"/>
     <use x="123.779297" xlink:href="#DejaVuSans-68"/>
     <use x="200.78125" xlink:href="#DejaVuSans-32"/>
     <use x="232.568359" xlink:href="#DejaVuSans-40"/>
     <use x="271.582031" xlink:href="#DejaVuSans-50"/>
     <use x="335.205078" xlink:href="#DejaVuSans-55"/>
     <use x="398.828125" xlink:href="#DejaVuSans-41"/>
    </g>
   </g>
   <g id="line2d_71">
    <path d="M 333.8625 164.879687 
L 353.8625 164.879687 
" style="fill:none;stroke:#d95f02;stroke-dasharray:4.5,1.5;stroke-dashoffset:0;stroke-width:1.5;"/>
   </g>
   <g id="line2d_72"/>
   <g id="text_32">
    <!-- TBI (25) -->
    <defs>
     <path d="M 19.671875 34.8125 
L 19.671875 8.109375 
L 35.5 8.109375 
Q 43.453125 8.109375 47.28125 11.40625 
Q 51.125 14.703125 51.125 21.484375 
Q 51.125 28.328125 47.28125 31.5625 
Q 43.453125 34.8125 35.5 34.8125 
z
M 19.671875 64.796875 
L 19.671875 42.828125 
L 34.28125 42.828125 
Q 41.5 42.828125 45.03125 45.53125 
Q 48.578125 48.25 48.578125 53.8125 
Q 48.578125 59.328125 45.03125 62.0625 
Q 41.5 64.796875 34.28125 64.796875 
z
M 9.8125 72.90625 
L 35.015625 72.90625 
Q 46.296875 72.90625 52.390625 68.21875 
Q 58.5 63.53125 58.5 54.890625 
Q 58.5 48.1875 55.375 44.234375 
Q 52.25 40.28125 46.1875 39.3125 
Q 53.46875 37.75 57.5 32.78125 
Q 61.53125 27.828125 61.53125 20.40625 
Q 61.53125 10.640625 54.890625 5.3125 
Q 48.25 0 35.984375 0 
L 9.8125 0 
z
" id="DejaVuSans-66"/>
    </defs>
    <g transform="translate(361.8625 168.379687)scale(0.1 -0.1)">
     <use xlink:href="#DejaVuSans-84"/>
     <use x="61.083984" xlink:href="#DejaVuSans-66"/>
     <use x="129.6875" xlink:href="#DejaVuSans-73"/>
     <use x="159.179688" xlink:href="#DejaVuSans-32"/>
     <use x="190.966797" xlink:href="#DejaVuSans-40"/>
     <use x="229.980469" xlink:href="#DejaVuSans-50"/>
     <use x="293.603516" xlink:href="#DejaVuSans-53"/>
     <use x="357.226562" xlink:href="#DejaVuSans-41"/>
    </g>
   </g>
   <g id="line2d_73">
    <path d="M 333.8625 179.557812 
L 353.8625 179.557812 
" style="fill:none;stroke:#7570b3;stroke-dasharray:4.5,1.5;stroke-dashoffset:0;stroke-width:1.5;"/>
   </g>
   <g id="line2d_74"/>
   <g id="text_33">
    <!-- CB (25) -->
    <g transform="translate(361.8625 183.057812)scale(0.1 -0.1)">
     <use xlink:href="#DejaVuSans-67"/>
     <use x="69.824219" xlink:href="#DejaVuSans-66"/>
     <use x="138.427734" xlink:href="#DejaVuSans-32"/>
     <use x="170.214844" xlink:href="#DejaVuSans-40"/>
     <use x="209.228516" xlink:href="#DejaVuSans-50"/>
     <use x="272.851562" xlink:href="#DejaVuSans-53"/>
     <use x="336.474609" xlink:href="#DejaVuSans-41"/>
    </g>
   </g>
   <g id="line2d_75">
    <path d="M 333.8625 194.235937 
L 353.8625 194.235937 
" style="fill:none;stroke:#e7298a;stroke-dasharray:4.5,1.5;stroke-dashoffset:0;stroke-width:1.5;"/>
   </g>
   <g id="line2d_76"/>
   <g id="text_34">
    <!-- CC (25) -->
    <g transform="translate(361.8625 197.735937)scale(0.1 -0.1)">
     <use xlink:href="#DejaVuSans-67"/>
     <use x="69.824219" xlink:href="#DejaVuSans-67"/>
     <use x="139.648438" xlink:href="#DejaVuSans-32"/>
     <use x="171.435547" xlink:href="#DejaVuSans-40"/>
     <use x="210.449219" xlink:href="#DejaVuSans-50"/>
     <use x="274.072266" xlink:href="#DejaVuSans-53"/>
     <use x="337.695312" xlink:href="#DejaVuSans-41"/>
    </g>
   </g>
   <g id="line2d_77">
    <path d="M 333.8625 208.914062 
L 353.8625 208.914062 
" style="fill:none;stroke:#66a61e;stroke-dasharray:4.5,1.5;stroke-dashoffset:0;stroke-width:1.5;"/>
   </g>
   <g id="line2d_78"/>
   <g id="text_35">
    <!-- RJPH (24) -->
    <defs>
     <path d="M 9.8125 72.90625 
L 19.671875 72.90625 
L 19.671875 5.078125 
Q 19.671875 -8.109375 14.671875 -14.0625 
Q 9.671875 -20.015625 -1.421875 -20.015625 
L -5.171875 -20.015625 
L -5.171875 -11.71875 
L -2.09375 -11.71875 
Q 4.4375 -11.71875 7.125 -8.046875 
Q 9.8125 -4.390625 9.8125 5.078125 
z
" id="DejaVuSans-74"/>
    </defs>
    <g transform="translate(361.8625 212.414062)scale(0.1 -0.1)">
     <use xlink:href="#DejaVuSans-82"/>
     <use x="69.482422" xlink:href="#DejaVuSans-74"/>
     <use x="98.974609" xlink:href="#DejaVuSans-80"/>
     <use x="159.277344" xlink:href="#DejaVuSans-72"/>
     <use x="234.472656" xlink:href="#DejaVuSans-32"/>
     <use x="266.259766" xlink:href="#DejaVuSans-40"/>
     <use x="305.273438" xlink:href="#DejaVuSans-50"/>
     <use x="368.896484" xlink:href="#DejaVuSans-52"/>
     <use x="432.519531" xlink:href="#DejaVuSans-41"/>
    </g>
   </g>
   <g id="line2d_79">
    <path d="M 333.8625 223.592187 
L 353.8625 223.592187 
" style="fill:none;stroke:#e6ab02;stroke-dasharray:4.5,1.5;stroke-dashoffset:0;stroke-width:1.5;"/>
   </g>
   <g id="line2d_80"/>
   <g id="text_36">
    <!-- BP (24) -->
    <g transform="translate(361.8625 227.092187)scale(0.1 -0.1)">
     <use xlink:href="#DejaVuSans-66"/>
     <use x="68.603516" xlink:href="#DejaVuSans-80"/>
     <use x="128.90625" xlink:href="#DejaVuSans-32"/>
     <use x="160.693359" xlink:href="#DejaVuSans-40"/>
     <use x="199.707031" xlink:href="#DejaVuSans-50"/>
     <use x="263.330078" xlink:href="#DejaVuSans-52"/>
     <use x="326.953125" xlink:href="#DejaVuSans-41"/>
    </g>
   </g>
   <g id="line2d_81">
    <path d="M 333.8625 238.270312 
L 353.8625 238.270312 
" style="fill:none;stroke:#a6761d;stroke-dasharray:4.5,1.5;stroke-dashoffset:0;stroke-width:1.5;"/>
   </g>
   <g id="line2d_82"/>
   <g id="text_37">
    <!-- AHR-H (20) -->
    <g transform="translate(361.8625 241.770312)scale(0.1 -0.1)">
     <use xlink:href="#DejaVuSans-65"/>
     <use x="68.408203" xlink:href="#DejaVuSans-72"/>
     <use x="143.603516" xlink:href="#DejaVuSans-82"/>
     <use x="213.023438" xlink:href="#DejaVuSans-45"/>
     <use x="249.107422" xlink:href="#DejaVuSans-72"/>
     <use x="324.302734" xlink:href="#DejaVuSans-32"/>
     <use x="356.089844" xlink:href="#DejaVuSans-40"/>
     <use x="395.103516" xlink:href="#DejaVuSans-50"/>
     <use x="458.726562" xlink:href="#DejaVuSans-48"/>
     <use x="522.349609" xlink:href="#DejaVuSans-41"/>
    </g>
   </g>
   <g id="line2d_83">
    <path d="M 333.8625 252.948437 
L 353.8625 252.948437 
" style="fill:none;stroke:#666666;stroke-dasharray:4.5,1.5;stroke-dashoffset:0;stroke-width:1.5;"/>
   </g>
   <g id="line2d_84"/>
   <g id="text_38">
    <!-- AHR-A (20) -->
    <g transform="translate(361.8625 256.448437)scale(0.1 -0.1)">
     <use xlink:href="#DejaVuSans-65"/>
     <use x="68.408203" xlink:href="#DejaVuSans-72"/>
     <use x="143.603516" xlink:href="#DejaVuSans-82"/>
     <use x="213.023438" xlink:href="#DejaVuSans-45"/>
     <use x="249.076172" xlink:href="#DejaVuSans-65"/>
     <use x="317.484375" xlink:href="#DejaVuSans-32"/>
     <use x="349.271484" xlink:href="#DejaVuSans-40"/>
     <use x="388.285156" xlink:href="#DejaVuSans-50"/>
     <use x="451.908203" xlink:href="#DejaVuSans-48"/>
     <use x="515.53125" xlink:href="#DejaVuSans-41"/>
    </g>
   </g>
  </g>
 </g>
 <defs>
  <clipPath id="pd97d5bf984">
   <rect height="207.330771" width="271.81" x="43.55" y="12.9"/>
  </clipPath>
 </defs>
</svg>
