<?xml version="1.0" encoding="utf-8" standalone="no"?>
<!DOCTYPE svg PUBLIC "-//W3C//DTD SVG 1.1//EN"
  "http://www.w3.org/Graphics/SVG/1.1/DTD/svg11.dtd">
<!-- Created with matplotlib (https://matplotlib.org/) -->
<svg height="288pt" version="1.1" viewBox="0 0 432 288" width="432pt" xmlns="http://www.w3.org/2000/svg" xmlns:xlink="http://www.w3.org/1999/xlink">
 <defs>
  <style type="text/css">
*{stroke-linecap:butt;stroke-linejoin:round;}
  </style>
 </defs>
 <g id="figure_1">
  <g id="patch_1">
   <path d="M 0 288 
L 432 288 
L 432 0 
L 0 0 
z
" style="fill:#ffffff;"/>
  </g>
  <g id="axes_1">
   <g id="patch_2">
    <path d="M 43.55 220.230771 
L 315.36 220.230771 
L 315.36 12.9 
L 43.55 12.9 
z
" style="fill:#ffffff;"/>
   </g>
   <g id="matplotlib.axis_1">
    <g id="xtick_1">
     <g id="line2d_1">
      <defs>
       <path d="M 0 0 
L 0 3.5 
" id="mc70c2d5120" style="stroke:#000000;stroke-width:0.8;"/>
      </defs>
      <g>
       <use style="stroke:#000000;stroke-width:0.8;" x="50.569699" xlink:href="#mc70c2d5120" y="220.230771"/>
      </g>
     </g>
     <g id="text_1">
      <!-- 2020-11-29 -->
      <defs>
       <path d="M 19.1875 8.296875 
L 53.609375 8.296875 
L 53.609375 0 
L 7.328125 0 
L 7.328125 8.296875 
Q 12.9375 14.109375 22.625 23.890625 
Q 32.328125 33.6875 34.8125 36.53125 
Q 39.546875 41.84375 41.421875 45.53125 
Q 43.3125 49.21875 43.3125 52.78125 
Q 43.3125 58.59375 39.234375 62.25 
Q 35.15625 65.921875 28.609375 65.921875 
Q 23.96875 65.921875 18.8125 64.3125 
Q 13.671875 62.703125 7.8125 59.421875 
L 7.8125 69.390625 
Q 13.765625 71.78125 18.9375 73 
Q 24.125 74.21875 28.421875 74.21875 
Q 39.75 74.21875 46.484375 68.546875 
Q 53.21875 62.890625 53.21875 53.421875 
Q 53.21875 48.921875 51.53125 44.890625 
Q 49.859375 40.875 45.40625 35.40625 
Q 44.1875 33.984375 37.640625 27.21875 
Q 31.109375 20.453125 19.1875 8.296875 
z
" id="DejaVuSans-50"/>
       <path d="M 31.78125 66.40625 
Q 24.171875 66.40625 20.328125 58.90625 
Q 16.5 51.421875 16.5 36.375 
Q 16.5 21.390625 20.328125 13.890625 
Q 24.171875 6.390625 31.78125 6.390625 
Q 39.453125 6.390625 43.28125 13.890625 
Q 47.125 21.390625 47.125 36.375 
Q 47.125 51.421875 43.28125 58.90625 
Q 39.453125 66.40625 31.78125 66.40625 
z
M 31.78125 74.21875 
Q 44.046875 74.21875 50.515625 64.515625 
Q 56.984375 54.828125 56.984375 36.375 
Q 56.984375 17.96875 50.515625 8.265625 
Q 44.046875 -1.421875 31.78125 -1.421875 
Q 19.53125 -1.421875 13.0625 8.265625 
Q 6.59375 17.96875 6.59375 36.375 
Q 6.59375 54.828125 13.0625 64.515625 
Q 19.53125 74.21875 31.78125 74.21875 
z
" id="DejaVuSans-48"/>
       <path d="M 4.890625 31.390625 
L 31.203125 31.390625 
L 31.203125 23.390625 
L 4.890625 23.390625 
z
" id="DejaVuSans-45"/>
       <path d="M 12.40625 8.296875 
L 28.515625 8.296875 
L 28.515625 63.921875 
L 10.984375 60.40625 
L 10.984375 69.390625 
L 28.421875 72.90625 
L 38.28125 72.90625 
L 38.28125 8.296875 
L 54.390625 8.296875 
L 54.390625 0 
L 12.40625 0 
z
" id="DejaVuSans-49"/>
       <path d="M 10.984375 1.515625 
L 10.984375 10.5 
Q 14.703125 8.734375 18.5 7.8125 
Q 22.3125 6.890625 25.984375 6.890625 
Q 35.75 6.890625 40.890625 13.453125 
Q 46.046875 20.015625 46.78125 33.40625 
Q 43.953125 29.203125 39.59375 26.953125 
Q 35.25 24.703125 29.984375 24.703125 
Q 19.046875 24.703125 12.671875 31.3125 
Q 6.296875 37.9375 6.296875 49.421875 
Q 6.296875 60.640625 12.9375 67.421875 
Q 19.578125 74.21875 30.609375 74.21875 
Q 43.265625 74.21875 49.921875 64.515625 
Q 56.59375 54.828125 56.59375 36.375 
Q 56.59375 19.140625 48.40625 8.859375 
Q 40.234375 -1.421875 26.421875 -1.421875 
Q 22.703125 -1.421875 18.890625 -0.6875 
Q 15.09375 0.046875 10.984375 1.515625 
z
M 30.609375 32.421875 
Q 37.25 32.421875 41.125 36.953125 
Q 45.015625 41.5 45.015625 49.421875 
Q 45.015625 57.28125 41.125 61.84375 
Q 37.25 66.40625 30.609375 66.40625 
Q 23.96875 66.40625 20.09375 61.84375 
Q 16.21875 57.28125 16.21875 49.421875 
Q 16.21875 41.5 20.09375 36.953125 
Q 23.96875 32.421875 30.609375 32.421875 
z
" id="DejaVuSans-57"/>
      </defs>
      <g transform="translate(26.784582 262.869024)rotate(-30)scale(0.1 -0.1)">
       <use xlink:href="#DejaVuSans-50"/>
       <use x="63.623047" xlink:href="#DejaVuSans-48"/>
       <use x="127.246094" xlink:href="#DejaVuSans-50"/>
       <use x="190.869141" xlink:href="#DejaVuSans-48"/>
       <use x="254.492188" xlink:href="#DejaVuSans-45"/>
       <use x="290.576172" xlink:href="#DejaVuSans-49"/>
       <use x="354.199219" xlink:href="#DejaVuSans-49"/>
       <use x="417.822266" xlink:href="#DejaVuSans-45"/>
       <use x="453.90625" xlink:href="#DejaVuSans-50"/>
       <use x="517.529297" xlink:href="#DejaVuSans-57"/>
      </g>
     </g>
    </g>
    <g id="xtick_2">
     <g id="line2d_2">
      <g>
       <use style="stroke:#000000;stroke-width:0.8;" x="57.937823" xlink:href="#mc70c2d5120" y="220.230771"/>
      </g>
     </g>
     <g id="text_2">
      <!-- 2020-12-01 -->
      <g transform="translate(34.152707 262.869024)rotate(-30)scale(0.1 -0.1)">
       <use xlink:href="#DejaVuSans-50"/>
       <use x="63.623047" xlink:href="#DejaVuSans-48"/>
       <use x="127.246094" xlink:href="#DejaVuSans-50"/>
       <use x="190.869141" xlink:href="#DejaVuSans-48"/>
       <use x="254.492188" xlink:href="#DejaVuSans-45"/>
       <use x="290.576172" xlink:href="#DejaVuSans-49"/>
       <use x="354.199219" xlink:href="#DejaVuSans-50"/>
       <use x="417.822266" xlink:href="#DejaVuSans-45"/>
       <use x="453.90625" xlink:href="#DejaVuSans-48"/>
       <use x="517.529297" xlink:href="#DejaVuSans-49"/>
      </g>
     </g>
    </g>
    <g id="xtick_3">
     <g id="line2d_3">
      <g>
       <use style="stroke:#000000;stroke-width:0.8;" x="109.514695" xlink:href="#mc70c2d5120" y="220.230771"/>
      </g>
     </g>
     <g id="text_3">
      <!-- 2020-12-15 -->
      <defs>
       <path d="M 10.796875 72.90625 
L 49.515625 72.90625 
L 49.515625 64.59375 
L 19.828125 64.59375 
L 19.828125 46.734375 
Q 21.96875 47.46875 24.109375 47.828125 
Q 26.265625 48.1875 28.421875 48.1875 
Q 40.625 48.1875 47.75 41.5 
Q 54.890625 34.8125 54.890625 23.390625 
Q 54.890625 11.625 47.5625 5.09375 
Q 40.234375 -1.421875 26.90625 -1.421875 
Q 22.3125 -1.421875 17.546875 -0.640625 
Q 12.796875 0.140625 7.71875 1.703125 
L 7.71875 11.625 
Q 12.109375 9.234375 16.796875 8.0625 
Q 21.484375 6.890625 26.703125 6.890625 
Q 35.15625 6.890625 40.078125 11.328125 
Q 45.015625 15.765625 45.015625 23.390625 
Q 45.015625 31 40.078125 35.4375 
Q 35.15625 39.890625 26.703125 39.890625 
Q 22.75 39.890625 18.8125 39.015625 
Q 14.890625 38.140625 10.796875 36.28125 
z
" id="DejaVuSans-53"/>
      </defs>
      <g transform="translate(85.729579 262.869024)rotate(-30)scale(0.1 -0.1)">
       <use xlink:href="#DejaVuSans-50"/>
       <use x="63.623047" xlink:href="#DejaVuSans-48"/>
       <use x="127.246094" xlink:href="#DejaVuSans-50"/>
       <use x="190.869141" xlink:href="#DejaVuSans-48"/>
       <use x="254.492188" xlink:href="#DejaVuSans-45"/>
       <use x="290.576172" xlink:href="#DejaVuSans-49"/>
       <use x="354.199219" xlink:href="#DejaVuSans-50"/>
       <use x="417.822266" xlink:href="#DejaVuSans-45"/>
       <use x="453.90625" xlink:href="#DejaVuSans-49"/>
       <use x="517.529297" xlink:href="#DejaVuSans-53"/>
      </g>
     </g>
    </g>
    <g id="xtick_4">
     <g id="line2d_4">
      <g>
       <use style="stroke:#000000;stroke-width:0.8;" x="161.091567" xlink:href="#mc70c2d5120" y="220.230771"/>
      </g>
     </g>
     <g id="text_4">
      <!-- 2020-12-29 -->
      <g transform="translate(137.306451 262.869024)rotate(-30)scale(0.1 -0.1)">
       <use xlink:href="#DejaVuSans-50"/>
       <use x="63.623047" xlink:href="#DejaVuSans-48"/>
       <use x="127.246094" xlink:href="#DejaVuSans-50"/>
       <use x="190.869141" xlink:href="#DejaVuSans-48"/>
       <use x="254.492188" xlink:href="#DejaVuSans-45"/>
       <use x="290.576172" xlink:href="#DejaVuSans-49"/>
       <use x="354.199219" xlink:href="#DejaVuSans-50"/>
       <use x="417.822266" xlink:href="#DejaVuSans-45"/>
       <use x="453.90625" xlink:href="#DejaVuSans-50"/>
       <use x="517.529297" xlink:href="#DejaVuSans-57"/>
      </g>
     </g>
    </g>
    <g id="xtick_5">
     <g id="line2d_5">
      <g>
       <use style="stroke:#000000;stroke-width:0.8;" x="172.143754" xlink:href="#mc70c2d5120" y="220.230771"/>
      </g>
     </g>
     <g id="text_5">
      <!-- 2021-01-01 -->
      <g transform="translate(148.358638 262.869024)rotate(-30)scale(0.1 -0.1)">
       <use xlink:href="#DejaVuSans-50"/>
       <use x="63.623047" xlink:href="#DejaVuSans-48"/>
       <use x="127.246094" xlink:href="#DejaVuSans-50"/>
       <use x="190.869141" xlink:href="#DejaVuSans-49"/>
       <use x="254.492188" xlink:href="#DejaVuSans-45"/>
       <use x="290.576172" xlink:href="#DejaVuSans-48"/>
       <use x="354.199219" xlink:href="#DejaVuSans-49"/>
       <use x="417.822266" xlink:href="#DejaVuSans-45"/>
       <use x="453.90625" xlink:href="#DejaVuSans-48"/>
       <use x="517.529297" xlink:href="#DejaVuSans-49"/>
      </g>
     </g>
    </g>
    <g id="xtick_6">
     <g id="line2d_6">
      <g>
       <use style="stroke:#000000;stroke-width:0.8;" x="223.720626" xlink:href="#mc70c2d5120" y="220.230771"/>
      </g>
     </g>
     <g id="text_6">
      <!-- 2021-01-15 -->
      <g transform="translate(199.93551 262.869024)rotate(-30)scale(0.1 -0.1)">
       <use xlink:href="#DejaVuSans-50"/>
       <use x="63.623047" xlink:href="#DejaVuSans-48"/>
       <use x="127.246094" xlink:href="#DejaVuSans-50"/>
       <use x="190.869141" xlink:href="#DejaVuSans-49"/>
       <use x="254.492188" xlink:href="#DejaVuSans-45"/>
       <use x="290.576172" xlink:href="#DejaVuSans-48"/>
       <use x="354.199219" xlink:href="#DejaVuSans-49"/>
       <use x="417.822266" xlink:href="#DejaVuSans-45"/>
       <use x="453.90625" xlink:href="#DejaVuSans-49"/>
       <use x="517.529297" xlink:href="#DejaVuSans-53"/>
      </g>
     </g>
    </g>
    <g id="xtick_7">
     <g id="line2d_7">
      <g>
       <use style="stroke:#000000;stroke-width:0.8;" x="275.297498" xlink:href="#mc70c2d5120" y="220.230771"/>
      </g>
     </g>
     <g id="text_7">
      <!-- 2021-01-29 -->
      <g transform="translate(251.512382 262.869024)rotate(-30)scale(0.1 -0.1)">
       <use xlink:href="#DejaVuSans-50"/>
       <use x="63.623047" xlink:href="#DejaVuSans-48"/>
       <use x="127.246094" xlink:href="#DejaVuSans-50"/>
       <use x="190.869141" xlink:href="#DejaVuSans-49"/>
       <use x="254.492188" xlink:href="#DejaVuSans-45"/>
       <use x="290.576172" xlink:href="#DejaVuSans-48"/>
       <use x="354.199219" xlink:href="#DejaVuSans-49"/>
       <use x="417.822266" xlink:href="#DejaVuSans-45"/>
       <use x="453.90625" xlink:href="#DejaVuSans-50"/>
       <use x="517.529297" xlink:href="#DejaVuSans-57"/>
      </g>
     </g>
    </g>
    <g id="xtick_8">
     <g id="line2d_8">
      <g>
       <use style="stroke:#000000;stroke-width:0.8;" x="286.349685" xlink:href="#mc70c2d5120" y="220.230771"/>
      </g>
     </g>
     <g id="text_8">
      <!-- 2021-02-01 -->
      <g transform="translate(262.564568 262.869024)rotate(-30)scale(0.1 -0.1)">
       <use xlink:href="#DejaVuSans-50"/>
       <use x="63.623047" xlink:href="#DejaVuSans-48"/>
       <use x="127.246094" xlink:href="#DejaVuSans-50"/>
       <use x="190.869141" xlink:href="#DejaVuSans-49"/>
       <use x="254.492188" xlink:href="#DejaVuSans-45"/>
       <use x="290.576172" xlink:href="#DejaVuSans-48"/>
       <use x="354.199219" xlink:href="#DejaVuSans-50"/>
       <use x="417.822266" xlink:href="#DejaVuSans-45"/>
       <use x="453.90625" xlink:href="#DejaVuSans-48"/>
       <use x="517.529297" xlink:href="#DejaVuSans-49"/>
      </g>
     </g>
    </g>
    <g id="text_9">
     <!-- Date -->
     <defs>
      <path d="M 19.671875 64.796875 
L 19.671875 8.109375 
L 31.59375 8.109375 
Q 46.6875 8.109375 53.6875 14.9375 
Q 60.6875 21.78125 60.6875 36.53125 
Q 60.6875 51.171875 53.6875 57.984375 
Q 46.6875 64.796875 31.59375 64.796875 
z
M 9.8125 72.90625 
L 30.078125 72.90625 
Q 51.265625 72.90625 61.171875 64.09375 
Q 71.09375 55.28125 71.09375 36.53125 
Q 71.09375 17.671875 61.125 8.828125 
Q 51.171875 0 30.078125 0 
L 9.8125 0 
z
" id="DejaVuSans-68"/>
      <path d="M 34.28125 27.484375 
Q 23.390625 27.484375 19.1875 25 
Q 14.984375 22.515625 14.984375 16.5 
Q 14.984375 11.71875 18.140625 8.90625 
Q 21.296875 6.109375 26.703125 6.109375 
Q 34.1875 6.109375 38.703125 11.40625 
Q 43.21875 16.703125 43.21875 25.484375 
L 43.21875 27.484375 
z
M 52.203125 31.203125 
L 52.203125 0 
L 43.21875 0 
L 43.21875 8.296875 
Q 40.140625 3.328125 35.546875 0.953125 
Q 30.953125 -1.421875 24.3125 -1.421875 
Q 15.921875 -1.421875 10.953125 3.296875 
Q 6 8.015625 6 15.921875 
Q 6 25.140625 12.171875 29.828125 
Q 18.359375 34.515625 30.609375 34.515625 
L 43.21875 34.515625 
L 43.21875 35.40625 
Q 43.21875 41.609375 39.140625 45 
Q 35.0625 48.390625 27.6875 48.390625 
Q 23 48.390625 18.546875 47.265625 
Q 14.109375 46.140625 10.015625 43.890625 
L 10.015625 52.203125 
Q 14.9375 54.109375 19.578125 55.046875 
Q 24.21875 56 28.609375 56 
Q 40.484375 56 46.34375 49.84375 
Q 52.203125 43.703125 52.203125 31.203125 
z
" id="DejaVuSans-97"/>
      <path d="M 18.3125 70.21875 
L 18.3125 54.6875 
L 36.8125 54.6875 
L 36.8125 47.703125 
L 18.3125 47.703125 
L 18.3125 18.015625 
Q 18.3125 11.328125 20.140625 9.421875 
Q 21.96875 7.515625 27.59375 7.515625 
L 36.8125 7.515625 
L 36.8125 0 
L 27.59375 0 
Q 17.1875 0 13.234375 3.875 
Q 9.28125 7.765625 9.28125 18.015625 
L 9.28125 47.703125 
L 2.6875 47.703125 
L 2.6875 54.6875 
L 9.28125 54.6875 
L 9.28125 70.21875 
z
" id="DejaVuSans-116"/>
      <path d="M 56.203125 29.59375 
L 56.203125 25.203125 
L 14.890625 25.203125 
Q 15.484375 15.921875 20.484375 11.0625 
Q 25.484375 6.203125 34.421875 6.203125 
Q 39.59375 6.203125 44.453125 7.46875 
Q 49.3125 8.734375 54.109375 11.28125 
L 54.109375 2.78125 
Q 49.265625 0.734375 44.1875 -0.34375 
Q 39.109375 -1.421875 33.890625 -1.421875 
Q 20.796875 -1.421875 13.15625 6.1875 
Q 5.515625 13.8125 5.515625 26.8125 
Q 5.515625 40.234375 12.765625 48.109375 
Q 20.015625 56 32.328125 56 
Q 43.359375 56 49.78125 48.890625 
Q 56.203125 41.796875 56.203125 29.59375 
z
M 47.21875 32.234375 
Q 47.125 39.59375 43.09375 43.984375 
Q 39.0625 48.390625 32.421875 48.390625 
Q 24.90625 48.390625 20.390625 44.140625 
Q 15.875 39.890625 15.1875 32.171875 
z
" id="DejaVuSans-101"/>
     </defs>
     <g transform="translate(167.504219 276.268523)scale(0.1 -0.1)">
      <use xlink:href="#DejaVuSans-68"/>
      <use x="77.001953" xlink:href="#DejaVuSans-97"/>
      <use x="138.28125" xlink:href="#DejaVuSans-116"/>
      <use x="177.490234" xlink:href="#DejaVuSans-101"/>
     </g>
    </g>
   </g>
   <g id="matplotlib.axis_2">
    <g id="ytick_1">
     <g id="line2d_9">
      <defs>
       <path d="M 0 0 
L -3.5 0 
" id="m3a50b4579b" style="stroke:#000000;stroke-width:0.8;"/>
      </defs>
      <g>
       <use style="stroke:#000000;stroke-width:0.8;" x="43.55" xlink:href="#m3a50b4579b" y="210.806645"/>
      </g>
     </g>
     <g id="text_10">
      <!-- 0 -->
      <g transform="translate(30.1875 214.605864)scale(0.1 -0.1)">
       <use xlink:href="#DejaVuSans-48"/>
      </g>
     </g>
    </g>
    <g id="ytick_2">
     <g id="line2d_10">
      <g>
       <use style="stroke:#000000;stroke-width:0.8;" x="43.55" xlink:href="#m3a50b4579b" y="187.24633"/>
      </g>
     </g>
     <g id="text_11">
      <!-- 5 -->
      <g transform="translate(30.1875 191.045549)scale(0.1 -0.1)">
       <use xlink:href="#DejaVuSans-53"/>
      </g>
     </g>
    </g>
    <g id="ytick_3">
     <g id="line2d_11">
      <g>
       <use style="stroke:#000000;stroke-width:0.8;" x="43.55" xlink:href="#m3a50b4579b" y="163.686016"/>
      </g>
     </g>
     <g id="text_12">
      <!-- 10 -->
      <g transform="translate(23.825 167.485234)scale(0.1 -0.1)">
       <use xlink:href="#DejaVuSans-49"/>
       <use x="63.623047" xlink:href="#DejaVuSans-48"/>
      </g>
     </g>
    </g>
    <g id="ytick_4">
     <g id="line2d_12">
      <g>
       <use style="stroke:#000000;stroke-width:0.8;" x="43.55" xlink:href="#m3a50b4579b" y="140.125701"/>
      </g>
     </g>
     <g id="text_13">
      <!-- 15 -->
      <g transform="translate(23.825 143.924919)scale(0.1 -0.1)">
       <use xlink:href="#DejaVuSans-49"/>
       <use x="63.623047" xlink:href="#DejaVuSans-53"/>
      </g>
     </g>
    </g>
    <g id="ytick_5">
     <g id="line2d_13">
      <g>
       <use style="stroke:#000000;stroke-width:0.8;" x="43.55" xlink:href="#m3a50b4579b" y="116.565386"/>
      </g>
     </g>
     <g id="text_14">
      <!-- 20 -->
      <g transform="translate(23.825 120.364604)scale(0.1 -0.1)">
       <use xlink:href="#DejaVuSans-50"/>
       <use x="63.623047" xlink:href="#DejaVuSans-48"/>
      </g>
     </g>
    </g>
    <g id="ytick_6">
     <g id="line2d_14">
      <g>
       <use style="stroke:#000000;stroke-width:0.8;" x="43.55" xlink:href="#m3a50b4579b" y="93.005071"/>
      </g>
     </g>
     <g id="text_15">
      <!-- 25 -->
      <g transform="translate(23.825 96.80429)scale(0.1 -0.1)">
       <use xlink:href="#DejaVuSans-50"/>
       <use x="63.623047" xlink:href="#DejaVuSans-53"/>
      </g>
     </g>
    </g>
    <g id="ytick_7">
     <g id="line2d_15">
      <g>
       <use style="stroke:#000000;stroke-width:0.8;" x="43.55" xlink:href="#m3a50b4579b" y="69.444756"/>
      </g>
     </g>
     <g id="text_16">
      <!-- 30 -->
      <defs>
       <path d="M 40.578125 39.3125 
Q 47.65625 37.796875 51.625 33 
Q 55.609375 28.21875 55.609375 21.1875 
Q 55.609375 10.40625 48.1875 4.484375 
Q 40.765625 -1.421875 27.09375 -1.421875 
Q 22.515625 -1.421875 17.65625 -0.515625 
Q 12.796875 0.390625 7.625 2.203125 
L 7.625 11.71875 
Q 11.71875 9.328125 16.59375 8.109375 
Q 21.484375 6.890625 26.8125 6.890625 
Q 36.078125 6.890625 40.9375 10.546875 
Q 45.796875 14.203125 45.796875 21.1875 
Q 45.796875 27.640625 41.28125 31.265625 
Q 36.765625 34.90625 28.71875 34.90625 
L 20.21875 34.90625 
L 20.21875 43.015625 
L 29.109375 43.015625 
Q 36.375 43.015625 40.234375 45.921875 
Q 44.09375 48.828125 44.09375 54.296875 
Q 44.09375 59.90625 40.109375 62.90625 
Q 36.140625 65.921875 28.71875 65.921875 
Q 24.65625 65.921875 20.015625 65.03125 
Q 15.375 64.15625 9.8125 62.3125 
L 9.8125 71.09375 
Q 15.4375 72.65625 20.34375 73.4375 
Q 25.25 74.21875 29.59375 74.21875 
Q 40.828125 74.21875 47.359375 69.109375 
Q 53.90625 64.015625 53.90625 55.328125 
Q 53.90625 49.265625 50.4375 45.09375 
Q 46.96875 40.921875 40.578125 39.3125 
z
" id="DejaVuSans-51"/>
      </defs>
      <g transform="translate(23.825 73.243975)scale(0.1 -0.1)">
       <use xlink:href="#DejaVuSans-51"/>
       <use x="63.623047" xlink:href="#DejaVuSans-48"/>
      </g>
     </g>
    </g>
    <g id="ytick_8">
     <g id="line2d_16">
      <g>
       <use style="stroke:#000000;stroke-width:0.8;" x="43.55" xlink:href="#m3a50b4579b" y="45.884441"/>
      </g>
     </g>
     <g id="text_17">
      <!-- 35 -->
      <g transform="translate(23.825 49.68366)scale(0.1 -0.1)">
       <use xlink:href="#DejaVuSans-51"/>
       <use x="63.623047" xlink:href="#DejaVuSans-53"/>
      </g>
     </g>
    </g>
    <g id="ytick_9">
     <g id="line2d_17">
      <g>
       <use style="stroke:#000000;stroke-width:0.8;" x="43.55" xlink:href="#m3a50b4579b" y="22.324126"/>
      </g>
     </g>
     <g id="text_18">
      <!-- 40 -->
      <defs>
       <path d="M 37.796875 64.3125 
L 12.890625 25.390625 
L 37.796875 25.390625 
z
M 35.203125 72.90625 
L 47.609375 72.90625 
L 47.609375 25.390625 
L 58.015625 25.390625 
L 58.015625 17.1875 
L 47.609375 17.1875 
L 47.609375 0 
L 37.796875 0 
L 37.796875 17.1875 
L 4.890625 17.1875 
L 4.890625 26.703125 
z
" id="DejaVuSans-52"/>
      </defs>
      <g transform="translate(23.825 26.123345)scale(0.1 -0.1)">
       <use xlink:href="#DejaVuSans-52"/>
       <use x="63.623047" xlink:href="#DejaVuSans-48"/>
      </g>
     </g>
    </g>
    <g id="text_19">
     <!-- Students Registered -->
     <defs>
      <path d="M 53.515625 70.515625 
L 53.515625 60.890625 
Q 47.90625 63.578125 42.921875 64.890625 
Q 37.9375 66.21875 33.296875 66.21875 
Q 25.25 66.21875 20.875 63.09375 
Q 16.5 59.96875 16.5 54.203125 
Q 16.5 49.359375 19.40625 46.890625 
Q 22.3125 44.4375 30.421875 42.921875 
L 36.375 41.703125 
Q 47.40625 39.59375 52.65625 34.296875 
Q 57.90625 29 57.90625 20.125 
Q 57.90625 9.515625 50.796875 4.046875 
Q 43.703125 -1.421875 29.984375 -1.421875 
Q 24.8125 -1.421875 18.96875 -0.25 
Q 13.140625 0.921875 6.890625 3.21875 
L 6.890625 13.375 
Q 12.890625 10.015625 18.65625 8.296875 
Q 24.421875 6.59375 29.984375 6.59375 
Q 38.421875 6.59375 43.015625 9.90625 
Q 47.609375 13.234375 47.609375 19.390625 
Q 47.609375 24.75 44.3125 27.78125 
Q 41.015625 30.8125 33.5 32.328125 
L 27.484375 33.5 
Q 16.453125 35.6875 11.515625 40.375 
Q 6.59375 45.0625 6.59375 53.421875 
Q 6.59375 63.09375 13.40625 68.65625 
Q 20.21875 74.21875 32.171875 74.21875 
Q 37.3125 74.21875 42.625 73.28125 
Q 47.953125 72.359375 53.515625 70.515625 
z
" id="DejaVuSans-83"/>
      <path d="M 8.5 21.578125 
L 8.5 54.6875 
L 17.484375 54.6875 
L 17.484375 21.921875 
Q 17.484375 14.15625 20.5 10.265625 
Q 23.53125 6.390625 29.59375 6.390625 
Q 36.859375 6.390625 41.078125 11.03125 
Q 45.3125 15.671875 45.3125 23.6875 
L 45.3125 54.6875 
L 54.296875 54.6875 
L 54.296875 0 
L 45.3125 0 
L 45.3125 8.40625 
Q 42.046875 3.421875 37.71875 1 
Q 33.40625 -1.421875 27.6875 -1.421875 
Q 18.265625 -1.421875 13.375 4.4375 
Q 8.5 10.296875 8.5 21.578125 
z
M 31.109375 56 
z
" id="DejaVuSans-117"/>
      <path d="M 45.40625 46.390625 
L 45.40625 75.984375 
L 54.390625 75.984375 
L 54.390625 0 
L 45.40625 0 
L 45.40625 8.203125 
Q 42.578125 3.328125 38.25 0.953125 
Q 33.9375 -1.421875 27.875 -1.421875 
Q 17.96875 -1.421875 11.734375 6.484375 
Q 5.515625 14.40625 5.515625 27.296875 
Q 5.515625 40.1875 11.734375 48.09375 
Q 17.96875 56 27.875 56 
Q 33.9375 56 38.25 53.625 
Q 42.578125 51.265625 45.40625 46.390625 
z
M 14.796875 27.296875 
Q 14.796875 17.390625 18.875 11.75 
Q 22.953125 6.109375 30.078125 6.109375 
Q 37.203125 6.109375 41.296875 11.75 
Q 45.40625 17.390625 45.40625 27.296875 
Q 45.40625 37.203125 41.296875 42.84375 
Q 37.203125 48.484375 30.078125 48.484375 
Q 22.953125 48.484375 18.875 42.84375 
Q 14.796875 37.203125 14.796875 27.296875 
z
" id="DejaVuSans-100"/>
      <path d="M 54.890625 33.015625 
L 54.890625 0 
L 45.90625 0 
L 45.90625 32.71875 
Q 45.90625 40.484375 42.875 44.328125 
Q 39.84375 48.1875 33.796875 48.1875 
Q 26.515625 48.1875 22.3125 43.546875 
Q 18.109375 38.921875 18.109375 30.90625 
L 18.109375 0 
L 9.078125 0 
L 9.078125 54.6875 
L 18.109375 54.6875 
L 18.109375 46.1875 
Q 21.34375 51.125 25.703125 53.5625 
Q 30.078125 56 35.796875 56 
Q 45.21875 56 50.046875 50.171875 
Q 54.890625 44.34375 54.890625 33.015625 
z
" id="DejaVuSans-110"/>
      <path d="M 44.28125 53.078125 
L 44.28125 44.578125 
Q 40.484375 46.53125 36.375 47.5 
Q 32.28125 48.484375 27.875 48.484375 
Q 21.1875 48.484375 17.84375 46.4375 
Q 14.5 44.390625 14.5 40.28125 
Q 14.5 37.15625 16.890625 35.375 
Q 19.28125 33.59375 26.515625 31.984375 
L 29.59375 31.296875 
Q 39.15625 29.25 43.1875 25.515625 
Q 47.21875 21.78125 47.21875 15.09375 
Q 47.21875 7.46875 41.1875 3.015625 
Q 35.15625 -1.421875 24.609375 -1.421875 
Q 20.21875 -1.421875 15.453125 -0.5625 
Q 10.6875 0.296875 5.421875 2 
L 5.421875 11.28125 
Q 10.40625 8.6875 15.234375 7.390625 
Q 20.0625 6.109375 24.8125 6.109375 
Q 31.15625 6.109375 34.5625 8.28125 
Q 37.984375 10.453125 37.984375 14.40625 
Q 37.984375 18.0625 35.515625 20.015625 
Q 33.0625 21.96875 24.703125 23.78125 
L 21.578125 24.515625 
Q 13.234375 26.265625 9.515625 29.90625 
Q 5.8125 33.546875 5.8125 39.890625 
Q 5.8125 47.609375 11.28125 51.796875 
Q 16.75 56 26.8125 56 
Q 31.78125 56 36.171875 55.265625 
Q 40.578125 54.546875 44.28125 53.078125 
z
" id="DejaVuSans-115"/>
      <path id="DejaVuSans-32"/>
      <path d="M 44.390625 34.1875 
Q 47.5625 33.109375 50.5625 29.59375 
Q 53.5625 26.078125 56.59375 19.921875 
L 66.609375 0 
L 56 0 
L 46.6875 18.703125 
Q 43.0625 26.03125 39.671875 28.421875 
Q 36.28125 30.8125 30.421875 30.8125 
L 19.671875 30.8125 
L 19.671875 0 
L 9.8125 0 
L 9.8125 72.90625 
L 32.078125 72.90625 
Q 44.578125 72.90625 50.734375 67.671875 
Q 56.890625 62.453125 56.890625 51.90625 
Q 56.890625 45.015625 53.6875 40.46875 
Q 50.484375 35.9375 44.390625 34.1875 
z
M 19.671875 64.796875 
L 19.671875 38.921875 
L 32.078125 38.921875 
Q 39.203125 38.921875 42.84375 42.21875 
Q 46.484375 45.515625 46.484375 51.90625 
Q 46.484375 58.296875 42.84375 61.546875 
Q 39.203125 64.796875 32.078125 64.796875 
z
" id="DejaVuSans-82"/>
      <path d="M 45.40625 27.984375 
Q 45.40625 37.75 41.375 43.109375 
Q 37.359375 48.484375 30.078125 48.484375 
Q 22.859375 48.484375 18.828125 43.109375 
Q 14.796875 37.75 14.796875 27.984375 
Q 14.796875 18.265625 18.828125 12.890625 
Q 22.859375 7.515625 30.078125 7.515625 
Q 37.359375 7.515625 41.375 12.890625 
Q 45.40625 18.265625 45.40625 27.984375 
z
M 54.390625 6.78125 
Q 54.390625 -7.171875 48.1875 -13.984375 
Q 42 -20.796875 29.203125 -20.796875 
Q 24.46875 -20.796875 20.265625 -20.09375 
Q 16.0625 -19.390625 12.109375 -17.921875 
L 12.109375 -9.1875 
Q 16.0625 -11.328125 19.921875 -12.34375 
Q 23.78125 -13.375 27.78125 -13.375 
Q 36.625 -13.375 41.015625 -8.765625 
Q 45.40625 -4.15625 45.40625 5.171875 
L 45.40625 9.625 
Q 42.625 4.78125 38.28125 2.390625 
Q 33.9375 0 27.875 0 
Q 17.828125 0 11.671875 7.65625 
Q 5.515625 15.328125 5.515625 27.984375 
Q 5.515625 40.671875 11.671875 48.328125 
Q 17.828125 56 27.875 56 
Q 33.9375 56 38.28125 53.609375 
Q 42.625 51.21875 45.40625 46.390625 
L 45.40625 54.6875 
L 54.390625 54.6875 
z
" id="DejaVuSans-103"/>
      <path d="M 9.421875 54.6875 
L 18.40625 54.6875 
L 18.40625 0 
L 9.421875 0 
z
M 9.421875 75.984375 
L 18.40625 75.984375 
L 18.40625 64.59375 
L 9.421875 64.59375 
z
" id="DejaVuSans-105"/>
      <path d="M 41.109375 46.296875 
Q 39.59375 47.171875 37.8125 47.578125 
Q 36.03125 48 33.890625 48 
Q 26.265625 48 22.1875 43.046875 
Q 18.109375 38.09375 18.109375 28.8125 
L 18.109375 0 
L 9.078125 0 
L 9.078125 54.6875 
L 18.109375 54.6875 
L 18.109375 46.1875 
Q 20.953125 51.171875 25.484375 53.578125 
Q 30.03125 56 36.53125 56 
Q 37.453125 56 38.578125 55.875 
Q 39.703125 55.765625 41.0625 55.515625 
z
" id="DejaVuSans-114"/>
     </defs>
     <g transform="translate(17.745313 167.498979)rotate(-90)scale(0.1 -0.1)">
      <use xlink:href="#DejaVuSans-83"/>
      <use x="63.476562" xlink:href="#DejaVuSans-116"/>
      <use x="102.685547" xlink:href="#DejaVuSans-117"/>
      <use x="166.064453" xlink:href="#DejaVuSans-100"/>
      <use x="229.541016" xlink:href="#DejaVuSans-101"/>
      <use x="291.064453" xlink:href="#DejaVuSans-110"/>
      <use x="354.443359" xlink:href="#DejaVuSans-116"/>
      <use x="393.652344" xlink:href="#DejaVuSans-115"/>
      <use x="445.751953" xlink:href="#DejaVuSans-32"/>
      <use x="477.539062" xlink:href="#DejaVuSans-82"/>
      <use x="546.958984" xlink:href="#DejaVuSans-101"/>
      <use x="608.482422" xlink:href="#DejaVuSans-103"/>
      <use x="671.958984" xlink:href="#DejaVuSans-105"/>
      <use x="699.742188" xlink:href="#DejaVuSans-115"/>
      <use x="751.841797" xlink:href="#DejaVuSans-116"/>
      <use x="791.050781" xlink:href="#DejaVuSans-101"/>
      <use x="852.574219" xlink:href="#DejaVuSans-114"/>
      <use x="893.65625" xlink:href="#DejaVuSans-101"/>
      <use x="955.179688" xlink:href="#DejaVuSans-100"/>
     </g>
    </g>
   </g>
   <g id="line2d_18">
    <path clip-path="url(#pd4a3bb37ed)" d="M 55.905 210.806645 
L 56.066734 210.806645 
L 56.066734 201.382519 
L 56.17542 201.382519 
L 56.786861 201.382519 
L 56.786861 196.670456 
L 56.861025 196.670456 
L 60.317404 196.670456 
L 60.317404 191.958393 
L 60.394153 191.958393 
L 63.233978 191.958393 
L 63.233978 177.822204 
L 63.310728 177.822204 
L 63.387466 177.822204 
L 63.387466 173.110142 
L 63.464229 173.110142 
L 63.540968 173.110142 
L 63.540968 154.26189 
L 63.617728 154.26189 
L 63.694469 154.26189 
L 63.694469 149.549827 
L 63.771219 149.549827 
L 63.847974 149.549827 
L 63.847974 140.125701 
L 63.924714 140.125701 
L 64.001499 140.125701 
L 64.001499 125.989512 
L 64.078247 125.989512 
L 66.76453 125.989512 
L 66.76453 121.277449 
L 66.841278 121.277449 
L 66.918015 121.277449 
L 66.918015 116.565386 
L 66.994764 116.565386 
L 67.378534 116.565386 
L 67.378534 111.853323 
L 67.455292 111.853323 
L 67.685543 111.853323 
L 67.685543 97.717134 
L 67.762283 97.717134 
L 67.839041 97.717134 
L 67.839041 93.005071 
L 67.91581 93.005071 
L 70.909087 93.005071 
L 70.909087 88.293008 
L 70.985855 88.293008 
L 71.062585 88.293008 
L 71.062585 83.580945 
L 71.139358 83.580945 
L 71.369611 83.580945 
L 71.369611 78.868882 
L 71.446355 78.868882 
L 71.83011 78.868882 
L 71.83011 74.156819 
L 71.906854 74.156819 
L 74.439676 74.156819 
L 74.439676 69.444756 
L 74.516399 69.444756 
L 81.654297 69.444756 
L 81.654297 45.884441 
L 81.73101 45.884441 
L 81.807784 45.884441 
L 81.807784 36.460315 
L 81.884512 36.460315 
L 81.961296 36.460315 
L 81.961296 31.748252 
L 82.038031 31.748252 
L 133.691649 31.748252 
L 133.691649 36.460315 
L 133.768414 36.460315 
L 133.845146 36.460315 
L 133.845146 31.748252 
L 133.921899 31.748252 
L 142.134285 31.748252 
L 142.134285 36.460315 
L 142.211063 36.460315 
L 142.287799 36.460315 
L 142.287799 31.748252 
L 142.364546 31.748252 
L 218.118101 31.748252 
L 218.118101 22.324126 
L 218.194823 22.324126 
L 303.005 22.324126 
L 303.005 22.324126 
" style="fill:none;stroke:#1b9e77;stroke-linecap:square;stroke-width:1.5;"/>
   </g>
   <g id="line2d_19">
    <path clip-path="url(#pd4a3bb37ed)" d="M 87.947899 196.670456 
L 88.715378 196.670456 
L 88.715378 182.534267 
L 88.792257 182.534267 
L 88.868884 182.534267 
L 88.868884 177.822204 
L 88.945667 177.822204 
L 89.022383 177.822204 
L 89.022383 158.973953 
L 89.099166 158.973953 
L 89.329403 158.973953 
L 89.329403 144.837764 
L 89.406155 144.837764 
L 89.636402 144.837764 
L 89.636402 116.565386 
L 89.713168 116.565386 
L 89.943405 116.565386 
L 89.943405 107.14126 
L 90.020182 107.14126 
L 90.096928 107.14126 
L 90.096928 102.429197 
L 90.173695 102.429197 
L 90.250417 102.429197 
L 90.250417 97.717134 
L 90.327194 97.717134 
L 90.557447 97.717134 
L 90.557447 93.005071 
L 90.634162 93.005071 
L 92.70645 93.005071 
L 92.70645 74.156819 
L 92.783227 74.156819 
L 93.013465 74.156819 
L 93.013465 69.444756 
L 93.090204 69.444756 
L 93.320494 69.444756 
L 93.320494 60.02063 
L 93.397229 60.02063 
L 93.473997 60.02063 
L 93.473997 55.308567 
L 93.550728 55.308567 
L 93.781006 55.308567 
L 93.781006 50.596504 
L 93.857731 50.596504 
L 97.004548 50.596504 
L 97.004548 45.884441 
L 97.081284 45.884441 
L 97.158024 45.884441 
L 97.158024 41.172378 
L 97.23481 41.172378 
L 97.311535 41.172378 
L 97.311535 36.460315 
L 97.388304 36.460315 
L 97.772063 36.460315 
L 97.772063 31.748252 
L 97.848817 31.748252 
L 107.596206 31.748252 
L 107.596206 22.324126 
L 107.672976 22.324126 
L 126.477028 22.324126 
L 126.477028 27.036189 
L 126.553789 27.036189 
L 127.398043 27.036189 
L 127.398043 22.324126 
L 127.474798 22.324126 
L 140.752787 22.324126 
L 140.752787 27.036189 
L 140.829541 27.036189 
L 141.980801 27.036189 
L 141.980801 22.324126 
L 142.057562 22.324126 
L 241.296998 22.324126 
L 241.296998 27.036189 
L 241.37374 27.036189 
L 245.595061 27.036189 
L 245.595061 22.324126 
L 245.671803 22.324126 
L 276.909586 22.324126 
L 276.909586 27.036189 
L 276.986349 27.036189 
L 277.063097 27.036189 
L 277.063097 22.324126 
L 277.13984 22.324126 
L 277.523578 22.324126 
L 277.523578 27.036189 
L 277.600347 27.036189 
L 277.984087 27.036189 
L 277.984087 22.324126 
L 278.060837 22.324126 
L 285.505716 22.324126 
L 285.505716 27.036189 
L 285.582503 27.036189 
L 285.966218 27.036189 
L 285.966218 22.324126 
L 286.043028 22.324126 
L 297.17194 22.324126 
L 297.17194 27.036189 
L 297.24868 27.036189 
L 300.702499 27.036189 
L 300.702499 22.324126 
L 300.779222 22.324126 
L 303.005 22.324126 
L 303.005 22.324126 
" style="fill:none;stroke:#d95f02;stroke-linecap:square;stroke-width:1.5;"/>
   </g>
   <g id="line2d_20">
    <path clip-path="url(#pd4a3bb37ed)" d="M 55.905 182.534267 
L 56.066734 182.534267 
L 56.066734 177.822204 
L 56.17542 177.822204 
L 56.861025 177.822204 
L 56.861025 173.110142 
L 59.317095 173.110142 
L 59.317095 168.398079 
L 59.549913 168.398079 
L 59.549913 163.686016 
L 59.626673 163.686016 
L 59.703406 163.686016 
L 59.703406 158.973953 
L 59.780171 158.973953 
L 60.163935 158.973953 
L 60.163935 144.837764 
L 60.240702 144.837764 
L 60.317404 144.837764 
L 60.317404 140.125701 
L 60.394153 140.125701 
L 63.387466 140.125701 
L 63.387466 130.701575 
L 63.464229 130.701575 
L 63.540968 130.701575 
L 63.540968 125.989512 
L 63.617728 125.989512 
L 63.694469 125.989512 
L 63.694469 130.701575 
L 63.771219 130.701575 
L 64.001499 130.701575 
L 64.001499 125.989512 
L 64.078247 125.989512 
L 64.154971 125.989512 
L 64.154971 116.565386 
L 64.231717 116.565386 
L 64.922502 116.565386 
L 64.922502 107.14126 
L 64.999262 107.14126 
L 66.61103 107.14126 
L 66.61103 102.429197 
L 66.687773 102.429197 
L 66.76453 102.429197 
L 66.76453 83.580945 
L 66.841278 83.580945 
L 66.918015 83.580945 
L 66.918015 74.156819 
L 66.994764 74.156819 
L 67.225036 74.156819 
L 67.225036 69.444756 
L 67.301789 69.444756 
L 67.378534 69.444756 
L 67.378534 64.732693 
L 67.455292 64.732693 
L 67.532041 64.732693 
L 67.532041 60.02063 
L 67.608801 60.02063 
L 67.685543 60.02063 
L 67.685543 45.884441 
L 67.762283 45.884441 
L 67.839041 45.884441 
L 67.839041 41.172378 
L 67.91581 41.172378 
L 67.992553 41.172378 
L 67.992553 36.460315 
L 68.06929 36.460315 
L 70.602076 36.460315 
L 70.602076 27.036189 
L 70.678839 27.036189 
L 70.755612 27.036189 
L 70.755612 22.324126 
L 70.832355 22.324126 
L 88.868884 22.324126 
L 88.868884 27.036189 
L 88.945667 27.036189 
L 89.022383 27.036189 
L 89.022383 22.324126 
L 89.099166 22.324126 
L 241.143471 22.324126 
L 241.143471 27.036189 
L 241.220228 27.036189 
L 241.296998 27.036189 
L 241.296998 22.324126 
L 241.37374 22.324126 
L 303.005 22.324126 
L 303.005 22.324126 
" style="fill:none;stroke:#7570b3;stroke-linecap:square;stroke-width:1.5;"/>
   </g>
   <g id="line2d_21">
    <path clip-path="url(#pd4a3bb37ed)" d="M 55.905 201.382519 
L 60.01044 201.382519 
L 60.01044 196.670456 
L 60.087168 196.670456 
L 63.080482 196.670456 
L 63.080482 191.958393 
L 63.157204 191.958393 
L 63.233978 191.958393 
L 63.233978 187.24633 
L 63.310728 187.24633 
L 63.387466 187.24633 
L 63.387466 177.822204 
L 63.464229 177.822204 
L 63.540968 177.822204 
L 63.540968 173.110142 
L 63.617728 173.110142 
L 63.694469 173.110142 
L 63.694469 168.398079 
L 63.771219 168.398079 
L 63.847974 168.398079 
L 63.847974 163.686016 
L 63.924714 163.686016 
L 64.154971 163.686016 
L 64.154971 158.973953 
L 64.231717 158.973953 
L 66.76453 158.973953 
L 66.76453 149.549827 
L 66.841278 149.549827 
L 66.918015 149.549827 
L 66.918015 144.837764 
L 66.994764 144.837764 
L 67.532041 144.837764 
L 67.532041 140.125701 
L 67.608801 140.125701 
L 67.685543 140.125701 
L 67.685543 130.701575 
L 67.762283 130.701575 
L 81.654297 130.701575 
L 81.654297 125.989512 
L 81.73101 125.989512 
L 81.807784 125.989512 
L 81.807784 121.277449 
L 81.884512 121.277449 
L 81.961296 121.277449 
L 81.961296 116.565386 
L 82.038031 116.565386 
L 82.114782 116.565386 
L 82.114782 111.853323 
L 82.191526 111.853323 
L 82.268301 111.853323 
L 82.268301 102.429197 
L 82.345034 102.429197 
L 82.421805 102.429197 
L 82.421805 97.717134 
L 82.498536 97.717134 
L 85.184832 97.717134 
L 85.22321 83.580945 
L 85.261582 83.580945 
L 85.491844 83.580945 
L 85.491844 74.156819 
L 85.568593 74.156819 
L 85.952356 74.156819 
L 85.952356 69.444756 
L 86.029109 69.444756 
L 86.10586 69.444756 
L 86.10586 60.02063 
L 86.182616 60.02063 
L 86.259361 60.02063 
L 86.259361 36.460315 
L 86.336109 36.460315 
L 86.41284 36.460315 
L 86.41284 22.324126 
L 86.489662 22.324126 
L 88.715378 22.324126 
L 88.715378 27.036189 
L 88.792257 27.036189 
L 89.022383 27.036189 
L 89.022383 22.324126 
L 89.099166 22.324126 
L 126.170012 22.324126 
L 126.170012 27.036189 
L 126.24679 27.036189 
L 126.323547 27.036189 
L 126.323547 22.324126 
L 126.400267 22.324126 
L 133.07767 22.324126 
L 133.07767 27.036189 
L 133.154392 27.036189 
L 133.384633 27.036189 
L 133.384633 22.324126 
L 133.461422 22.324126 
L 133.691649 22.324126 
L 133.691649 27.036189 
L 133.768414 27.036189 
L 134.305692 27.036189 
L 134.305692 22.324126 
L 134.382423 22.324126 
L 303.005 22.324126 
L 303.005 22.324126 
" style="fill:none;stroke:#e7298a;stroke-linecap:square;stroke-width:1.5;"/>
   </g>
   <g id="line2d_22">
    <path clip-path="url(#pd4a3bb37ed)" d="M 55.905 201.382519 
L 60.317404 201.382519 
L 60.317404 196.670456 
L 60.394153 196.670456 
L 63.233978 196.670456 
L 63.233978 191.958393 
L 63.310728 191.958393 
L 63.847974 191.958393 
L 63.847974 187.24633 
L 63.924714 187.24633 
L 67.07151 187.24633 
L 67.07151 177.822204 
L 67.14828 177.822204 
L 67.378534 177.822204 
L 67.378534 173.110142 
L 67.455292 173.110142 
L 67.685543 173.110142 
L 67.685543 168.398079 
L 67.762283 168.398079 
L 67.839041 168.398079 
L 67.839041 163.686016 
L 67.91581 163.686016 
L 71.369611 163.686016 
L 71.369611 158.973953 
L 71.446355 158.973953 
L 74.900169 158.973953 
L 74.900169 154.26189 
L 74.97693 154.26189 
L 81.654297 154.26189 
L 81.654297 144.837764 
L 81.73101 144.837764 
L 81.961296 144.837764 
L 81.961296 140.125701 
L 82.038031 140.125701 
L 82.728807 140.125701 
L 82.728807 135.413638 
L 82.805546 135.413638 
L 85.184832 135.413638 
L 85.184832 130.701575 
L 85.261582 130.701575 
L 85.952356 130.701575 
L 85.952356 125.989512 
L 86.029109 125.989512 
L 86.10586 125.989512 
L 86.10586 121.277449 
L 86.182616 121.277449 
L 86.259361 121.277449 
L 86.297731 107.14126 
L 86.336109 107.14126 
L 88.868884 107.14126 
L 88.868884 102.429197 
L 88.945667 102.429197 
L 89.022383 102.429197 
L 89.022383 93.005071 
L 89.099166 93.005071 
L 89.175884 93.005071 
L 89.175884 88.293008 
L 89.252644 88.293008 
L 89.329403 88.293008 
L 89.367776 74.156819 
L 89.406155 74.156819 
L 89.636402 74.156819 
L 89.636402 60.02063 
L 89.713168 60.02063 
L 89.789924 60.02063 
L 89.789924 50.596504 
L 89.866686 50.596504 
L 89.943405 50.596504 
L 89.943405 31.748252 
L 90.020182 31.748252 
L 90.096928 31.748252 
L 90.096928 27.036189 
L 90.173695 27.036189 
L 90.864447 27.036189 
L 90.864447 22.324126 
L 90.941202 22.324126 
L 133.07767 22.324126 
L 133.07767 27.036189 
L 133.154392 27.036189 
L 133.231171 27.036189 
L 133.231171 22.324126 
L 133.307918 22.324126 
L 133.538159 22.324126 
L 133.538159 27.036189 
L 133.614928 27.036189 
L 133.998649 27.036189 
L 133.998649 31.748252 
L 134.075431 31.748252 
L 134.305692 31.748252 
L 134.305692 36.460315 
L 134.382423 36.460315 
L 138.450233 36.460315 
L 138.450233 41.172378 
L 138.526982 41.172378 
L 147.506902 41.172378 
L 147.506902 36.460315 
L 147.583656 36.460315 
L 164.545668 36.460315 
L 164.545668 41.172378 
L 164.622441 41.172378 
L 170.532285 41.172378 
L 170.532285 36.460315 
L 170.609031 36.460315 
L 189.259625 36.460315 
L 189.259625 31.748252 
L 189.336371 31.748252 
L 191.715626 31.748252 
L 191.715626 27.036189 
L 191.792381 27.036189 
L 196.013718 27.036189 
L 196.013718 22.324126 
L 218.118101 22.324126 
L 218.118101 31.748252 
L 218.194823 31.748252 
L 218.578571 31.748252 
L 218.578571 36.460315 
L 218.655359 36.460315 
L 245.288045 36.460315 
L 245.288045 41.172378 
L 245.364825 41.172378 
L 250.814145 41.172378 
L 250.814145 36.460315 
L 250.890887 36.460315 
L 254.498217 36.460315 
L 254.498217 31.748252 
L 254.574945 31.748252 
L 255.572698 31.748252 
L 255.572698 27.036189 
L 255.649488 27.036189 
L 266.010912 27.036189 
L 266.010912 22.324126 
L 266.087669 22.324126 
L 285.966218 22.324126 
L 285.966218 27.036189 
L 286.043028 27.036189 
L 303.005 27.036189 
L 303.005 27.036189 
" style="fill:none;stroke:#66a61e;stroke-linecap:square;stroke-width:1.5;"/>
   </g>
   <g id="line2d_23">
    <path clip-path="url(#pd4a3bb37ed)" d="M 55.905 191.958393 
L 63.233978 191.958393 
L 63.233978 187.24633 
L 63.310728 187.24633 
L 64.001499 187.24633 
L 64.001499 182.534267 
L 64.078247 182.534267 
L 64.308494 182.534267 
L 64.308494 177.822204 
L 64.385255 177.822204 
L 67.225036 177.822204 
L 67.225036 173.110142 
L 67.301789 173.110142 
L 67.532041 173.110142 
L 67.532041 168.398079 
L 67.608801 168.398079 
L 70.602076 168.398079 
L 70.602076 163.686016 
L 70.678839 163.686016 
L 81.500772 163.686016 
L 81.500772 154.26189 
L 81.577508 154.26189 
L 81.654297 154.26189 
L 81.654297 144.837764 
L 81.73101 144.837764 
L 82.114782 144.837764 
L 82.114782 140.125701 
L 82.191526 140.125701 
L 82.728807 140.125701 
L 82.728807 135.413638 
L 82.805546 135.413638 
L 85.491844 135.413638 
L 85.491844 130.701575 
L 85.568593 130.701575 
L 85.798823 130.701575 
L 85.798823 121.277449 
L 85.875614 121.277449 
L 86.10586 121.277449 
L 86.10586 116.565386 
L 86.182616 116.565386 
L 87.026877 116.565386 
L 87.026877 111.853323 
L 87.103619 111.853323 
L 88.715378 111.853323 
L 88.715378 107.14126 
L 88.792257 107.14126 
L 89.022383 107.14126 
L 89.022383 102.429197 
L 89.099166 102.429197 
L 89.175884 102.429197 
L 89.175884 93.005071 
L 89.252644 93.005071 
L 89.482914 93.005071 
L 89.482914 88.293008 
L 89.559684 88.293008 
L 89.636402 88.293008 
L 89.674792 74.156819 
L 89.713168 74.156819 
L 89.789924 74.156819 
L 89.789924 64.732693 
L 89.866686 64.732693 
L 90.40391 64.732693 
L 90.40391 69.444756 
L 90.480696 69.444756 
L 92.70645 69.444756 
L 92.70645 60.02063 
L 92.783227 60.02063 
L 92.85999 60.02063 
L 92.85999 55.308567 
L 92.93674 55.308567 
L 93.166973 55.308567 
L 93.166973 50.596504 
L 93.243727 50.596504 
L 93.320494 50.596504 
L 93.320494 41.172378 
L 93.397229 41.172378 
L 93.473997 41.172378 
L 93.473997 36.460315 
L 93.550728 36.460315 
L 93.781006 36.460315 
L 93.781006 31.748252 
L 93.857731 31.748252 
L 219.806615 31.748252 
L 219.806615 36.460315 
L 219.883349 36.460315 
L 223.337156 36.460315 
L 223.337156 31.748252 
L 223.413928 31.748252 
L 303.005 31.748252 
L 303.005 31.748252 
" style="fill:none;stroke:#e6ab02;stroke-linecap:square;stroke-width:1.5;"/>
   </g>
   <g id="line2d_24">
    <path clip-path="url(#pd4a3bb37ed)" d="M 55.905 196.670456 
L 60.01044 196.670456 
L 60.01044 191.958393 
L 60.087168 191.958393 
L 63.080482 191.958393 
L 63.080482 187.24633 
L 63.157204 187.24633 
L 63.233978 187.24633 
L 63.233978 182.534267 
L 63.310728 182.534267 
L 63.540968 182.534267 
L 63.540968 177.822204 
L 63.617728 177.822204 
L 63.694469 177.822204 
L 63.694469 173.110142 
L 63.771219 173.110142 
L 63.847974 173.110142 
L 63.847974 163.686016 
L 63.924714 163.686016 
L 64.001499 163.686016 
L 64.001499 158.973953 
L 64.078247 158.973953 
L 64.154971 158.973953 
L 64.154971 154.26189 
L 64.231717 154.26189 
L 66.61103 154.26189 
L 66.61103 149.549827 
L 66.687773 149.549827 
L 66.76453 149.549827 
L 66.76453 140.125701 
L 66.841278 140.125701 
L 67.07151 140.125701 
L 67.07151 135.413638 
L 67.14828 135.413638 
L 67.225036 135.413638 
L 67.225036 125.989512 
L 67.301789 125.989512 
L 67.532041 125.989512 
L 67.532041 121.277449 
L 67.608801 121.277449 
L 67.839041 121.277449 
L 67.839041 116.565386 
L 67.91581 116.565386 
L 67.992553 116.565386 
L 67.992553 111.853323 
L 68.06929 111.853323 
L 70.755612 111.853323 
L 70.755612 107.14126 
L 70.832355 107.14126 
L 71.369611 107.14126 
L 71.369611 102.429197 
L 71.446355 102.429197 
L 75.360654 102.429197 
L 75.360654 97.717134 
L 75.437421 97.717134 
L 81.500772 97.717134 
L 81.500772 93.005071 
L 81.577508 93.005071 
L 81.961296 93.005071 
L 81.961296 78.868882 
L 82.038031 78.868882 
L 82.114782 78.868882 
L 82.114782 69.444756 
L 82.191526 69.444756 
L 82.268301 69.444756 
L 82.268301 60.02063 
L 82.345034 60.02063 
L 82.728807 60.02063 
L 82.728807 55.308567 
L 82.805546 55.308567 
L 84.877833 55.308567 
L 84.877833 50.596504 
L 84.95458 50.596504 
L 85.338331 50.596504 
L 85.338331 45.884441 
L 85.415106 45.884441 
L 85.491844 45.884441 
L 85.491844 41.172378 
L 85.568593 41.172378 
L 85.645337 41.172378 
L 85.645337 36.460315 
L 85.722084 36.460315 
L 86.10586 36.460315 
L 86.10586 31.748252 
L 86.182616 31.748252 
L 303.005 31.748252 
L 303.005 31.748252 
" style="fill:none;stroke:#a6761d;stroke-linecap:square;stroke-width:1.5;"/>
   </g>
   <g id="line2d_25">
    <path clip-path="url(#pd4a3bb37ed)" d="M 55.905 196.670456 
L 59.317095 196.670456 
L 59.317095 191.958393 
L 63.847974 191.958393 
L 63.847974 187.24633 
L 63.924714 187.24633 
L 66.918015 187.24633 
L 66.918015 182.534267 
L 66.994764 182.534267 
L 67.225036 182.534267 
L 67.225036 177.822204 
L 67.301789 177.822204 
L 67.685543 177.822204 
L 67.685543 173.110142 
L 67.762283 173.110142 
L 67.839041 173.110142 
L 67.839041 168.398079 
L 67.91581 168.398079 
L 68.760063 168.398079 
L 68.760063 163.686016 
L 68.836829 163.686016 
L 81.961296 163.686016 
L 81.961296 154.26189 
L 82.038031 154.26189 
L 85.491844 154.26189 
L 85.491844 149.549827 
L 85.568593 149.549827 
L 86.259361 149.549827 
L 86.259361 144.837764 
L 86.336109 144.837764 
L 86.719882 144.837764 
L 86.719882 140.125701 
L 86.796624 140.125701 
L 89.022383 140.125701 
L 89.022383 135.413638 
L 89.099166 135.413638 
L 89.175884 135.413638 
L 89.175884 125.989512 
L 89.252644 125.989512 
L 89.636402 125.989512 
L 89.636402 116.565386 
L 89.713168 116.565386 
L 93.013465 116.565386 
L 93.013465 111.853323 
L 93.090204 111.853323 
L 93.473997 111.853323 
L 93.473997 107.14126 
L 93.550728 107.14126 
L 93.934473 107.14126 
L 93.934473 102.429197 
L 94.011242 102.429197 
L 97.772063 102.429197 
L 97.772063 97.717134 
L 97.848817 97.717134 
L 108.363736 97.717134 
L 108.363736 93.005071 
L 108.440497 93.005071 
L 111.894285 93.005071 
L 111.894285 88.293008 
L 111.971054 88.293008 
L 115.885379 88.293008 
L 115.885379 93.005071 
L 115.96212 93.005071 
L 133.538159 93.005071 
L 133.538159 88.293008 
L 133.614928 88.293008 
L 133.691649 88.293008 
L 133.691649 93.005071 
L 133.768414 93.005071 
L 137.529229 93.005071 
L 137.529229 88.293008 
L 137.605998 88.293008 
L 164.545668 88.293008 
L 164.545668 83.580945 
L 164.622441 83.580945 
L 189.10609 83.580945 
L 189.10609 78.868882 
L 189.18284 78.868882 
L 196.934739 78.868882 
L 196.934739 83.580945 
L 197.011482 83.580945 
L 245.595061 83.580945 
L 245.595061 88.293008 
L 245.671803 88.293008 
L 247.437103 88.293008 
L 247.437103 93.005071 
L 247.513853 93.005071 
L 260.331321 93.005071 
L 260.331321 88.293008 
L 260.408057 88.293008 
L 262.480355 88.293008 
L 262.480355 83.580945 
L 262.557111 83.580945 
L 265.550377 83.580945 
L 265.550377 78.868882 
L 265.62716 78.868882 
L 269.848444 78.868882 
L 269.848444 83.580945 
L 269.925212 83.580945 
L 285.505716 83.580945 
L 285.505716 78.868882 
L 285.582503 78.868882 
L 303.005 78.868882 
L 303.005 78.868882 
" style="fill:none;stroke:#666666;stroke-linecap:square;stroke-width:1.5;"/>
   </g>
   <g id="line2d_26">
    <path clip-path="url(#pd4a3bb37ed)" d="M 55.905 201.382519 
L 63.387466 201.382519 
L 63.387466 196.670456 
L 63.464229 196.670456 
L 63.847974 196.670456 
L 63.847974 191.958393 
L 63.924714 191.958393 
L 67.225036 191.958393 
L 67.225036 187.24633 
L 67.301789 187.24633 
L 67.532041 187.24633 
L 67.532041 191.958393 
L 67.608801 191.958393 
L 67.685543 191.958393 
L 67.685543 182.534267 
L 67.762283 182.534267 
L 81.654297 182.534267 
L 81.654297 177.822204 
L 81.73101 177.822204 
L 81.961296 177.822204 
L 81.961296 173.110142 
L 82.038031 173.110142 
L 82.268301 173.110142 
L 82.268301 168.398079 
L 82.345034 168.398079 
L 82.421805 168.398079 
L 82.421805 163.686016 
L 82.498536 163.686016 
L 83.189293 163.686016 
L 83.189293 158.973953 
L 83.266075 158.973953 
L 85.645337 158.973953 
L 85.645337 154.26189 
L 85.722084 154.26189 
L 86.10586 154.26189 
L 86.10586 149.549827 
L 86.182616 149.549827 
L 86.259361 149.549827 
L 86.259361 144.837764 
L 86.336109 144.837764 
L 88.868884 144.837764 
L 88.868884 135.413638 
L 88.945667 135.413638 
L 89.022383 135.413638 
L 89.022383 130.701575 
L 89.099166 130.701575 
L 89.175884 130.701575 
L 89.214263 116.565386 
L 89.252644 116.565386 
L 89.789924 116.565386 
L 89.789924 111.853323 
L 89.866686 111.853323 
L 89.943405 111.853323 
L 89.943405 107.14126 
L 90.020182 107.14126 
L 90.096928 107.14126 
L 90.096928 111.853323 
L 90.173695 111.853323 
L 90.250417 111.853323 
L 90.250417 107.14126 
L 90.327194 107.14126 
L 90.40391 107.14126 
L 90.40391 102.429197 
L 90.480696 102.429197 
L 92.245966 102.429197 
L 92.245966 107.14126 
L 92.322695 107.14126 
L 92.70645 107.14126 
L 92.70645 93.005071 
L 92.783227 93.005071 
L 93.013465 93.005071 
L 93.013465 88.293008 
L 93.090204 88.293008 
L 93.320494 88.293008 
L 93.320494 69.444756 
L 93.397229 69.444756 
L 93.473997 69.444756 
L 93.473997 64.732693 
L 93.550728 64.732693 
L 96.851025 64.732693 
L 96.851025 60.02063 
L 96.927771 60.02063 
L 109.284766 60.02063 
L 109.284766 55.308567 
L 109.361517 55.308567 
L 111.7408 55.308567 
L 111.7408 50.596504 
L 111.817531 50.596504 
L 111.894285 50.596504 
L 111.894285 55.308567 
L 111.971054 55.308567 
L 112.201292 55.308567 
L 112.201292 50.596504 
L 112.278061 50.596504 
L 115.885379 50.596504 
L 115.885379 45.884441 
L 115.96212 45.884441 
L 122.178948 45.884441 
L 122.178948 50.596504 
L 122.255706 50.596504 
L 126.477028 50.596504 
L 126.477028 45.884441 
L 126.553789 45.884441 
L 133.07767 45.884441 
L 133.07767 50.596504 
L 133.154392 50.596504 
L 133.384633 50.596504 
L 133.384633 55.308567 
L 133.461422 55.308567 
L 133.845146 55.308567 
L 133.845146 60.02063 
L 133.921899 60.02063 
L 138.143226 60.02063 
L 138.143226 64.732693 
L 138.220008 64.732693 
L 144.743827 64.732693 
L 144.743827 69.444756 
L 144.820601 69.444756 
L 160.094122 69.444756 
L 160.094122 74.156819 
L 160.170857 74.156819 
L 229.784284 74.156819 
L 229.784284 69.444756 
L 229.861067 69.444756 
L 233.928869 69.444756 
L 233.928869 74.156819 
L 234.00564 74.156819 
L 273.532531 74.156819 
L 273.532531 69.444756 
L 273.60927 69.444756 
L 277.063097 69.444756 
L 277.063097 74.156819 
L 277.13984 74.156819 
L 277.216587 74.156819 
L 277.216587 78.868882 
L 277.29334 78.868882 
L 280.133141 78.868882 
L 280.133141 83.580945 
L 280.209905 83.580945 
L 303.005 83.580945 
L 303.005 83.580945 
" style="fill:none;stroke:#1b9e77;stroke-dasharray:4.5,1.5;stroke-dashoffset:0;stroke-width:1.5;"/>
   </g>
   <g id="line2d_27">
    <path clip-path="url(#pd4a3bb37ed)" d="M 55.905 210.806645 
L 60.470904 210.806645 
L 60.470904 206.094582 
L 60.547659 206.094582 
L 61.084944 206.094582 
L 61.084944 201.382519 
L 61.161688 201.382519 
L 70.755612 201.382519 
L 70.755612 196.670456 
L 70.832355 196.670456 
L 81.500772 196.670456 
L 81.500772 191.958393 
L 81.577508 191.958393 
L 82.575285 191.958393 
L 82.575285 182.534267 
L 82.65203 182.534267 
L 85.491844 182.534267 
L 85.491844 177.822204 
L 85.568593 177.822204 
L 85.645337 177.822204 
L 85.645337 173.110142 
L 85.722084 173.110142 
L 86.10586 173.110142 
L 86.10586 163.686016 
L 86.182616 163.686016 
L 86.259361 163.686016 
L 86.259361 158.973953 
L 86.336109 158.973953 
L 87.180351 158.973953 
L 87.180351 154.26189 
L 87.257143 154.26189 
L 89.022383 154.26189 
L 89.022383 158.973953 
L 89.099166 158.973953 
L 89.329403 158.973953 
L 89.329403 154.26189 
L 89.406155 154.26189 
L 89.482914 154.26189 
L 89.482914 149.549827 
L 89.559684 149.549827 
L 89.789924 149.549827 
L 89.789924 144.837764 
L 89.866686 144.837764 
L 89.943405 144.837764 
L 89.943405 149.549827 
L 90.020182 149.549827 
L 90.096928 149.549827 
L 90.096928 144.837764 
L 90.173695 144.837764 
L 92.70645 144.837764 
L 92.70645 140.125701 
L 92.783227 140.125701 
L 97.618559 140.125701 
L 97.618559 135.413638 
L 97.6953 135.413638 
L 107.903223 135.413638 
L 107.903223 130.701575 
L 107.979987 130.701575 
L 122.485961 130.701575 
L 122.485961 125.989512 
L 122.562747 125.989512 
L 140.752787 125.989512 
L 140.752787 121.277449 
L 140.829541 121.277449 
L 160.094122 121.277449 
L 160.094122 116.565386 
L 160.170857 116.565386 
L 196.013718 116.565386 
L 196.013718 111.853323 
L 210.749956 111.853323 
L 210.749956 107.14126 
L 210.826725 107.14126 
L 241.143471 107.14126 
L 241.143471 102.429197 
L 241.220228 102.429197 
L 245.441546 102.429197 
L 245.441546 97.717134 
L 245.5183 97.717134 
L 251.121131 97.717134 
L 251.121131 93.005071 
L 251.197902 93.005071 
L 274.453556 93.005071 
L 274.453556 88.293008 
L 274.530309 88.293008 
L 277.063097 88.293008 
L 277.063097 83.580945 
L 277.13984 83.580945 
L 277.984087 83.580945 
L 277.984087 88.293008 
L 278.060837 88.293008 
L 303.005 88.293008 
L 303.005 88.293008 
" style="fill:none;stroke:#d95f02;stroke-dasharray:4.5,1.5;stroke-dashoffset:0;stroke-width:1.5;"/>
   </g>
   <g id="line2d_28">
    <path clip-path="url(#pd4a3bb37ed)" d="M 55.905 206.094582 
L 63.080482 206.094582 
L 63.080482 201.382519 
L 63.157204 201.382519 
L 63.233978 201.382519 
L 63.233978 196.670456 
L 63.310728 196.670456 
L 63.847974 196.670456 
L 63.847974 187.24633 
L 63.924714 187.24633 
L 66.76453 187.24633 
L 66.76453 182.534267 
L 66.841278 182.534267 
L 67.532041 182.534267 
L 67.532041 177.822204 
L 67.608801 177.822204 
L 67.685543 177.822204 
L 67.685543 173.110142 
L 67.762283 173.110142 
L 67.839041 173.110142 
L 67.839041 168.398079 
L 67.91581 168.398079 
L 81.807784 168.398079 
L 81.807784 163.686016 
L 81.884512 163.686016 
L 81.961296 163.686016 
L 81.961296 158.973953 
L 82.038031 158.973953 
L 82.114782 158.973953 
L 82.114782 149.549827 
L 82.191526 149.549827 
L 85.952356 149.549827 
L 85.952356 144.837764 
L 86.029109 144.837764 
L 86.10586 144.837764 
L 86.10586 140.125701 
L 86.182616 140.125701 
L 88.715378 140.125701 
L 88.715378 144.837764 
L 88.792257 144.837764 
L 89.175884 144.837764 
L 89.175884 135.413638 
L 89.252644 135.413638 
L 89.329403 135.413638 
L 89.329403 140.125701 
L 89.406155 140.125701 
L 89.482914 140.125701 
L 89.482914 135.413638 
L 89.559684 135.413638 
L 89.789924 135.413638 
L 89.789924 125.989512 
L 89.866686 125.989512 
L 89.943405 125.989512 
L 89.943405 121.277449 
L 90.020182 121.277449 
L 97.158024 121.277449 
L 97.158024 116.565386 
L 97.23481 116.565386 
L 97.618559 116.565386 
L 97.618559 111.853323 
L 97.6953 111.853323 
L 104.986661 111.853323 
L 104.986661 107.14126 
L 105.063414 107.14126 
L 118.955399 107.14126 
L 118.955399 102.429197 
L 119.032162 102.429197 
L 119.569409 102.429197 
L 119.569409 97.717134 
L 119.646197 97.717134 
L 122.639485 97.717134 
L 122.639485 93.005071 
L 122.716241 93.005071 
L 134.766198 93.005071 
L 134.766198 88.293008 
L 134.842922 88.293008 
L 226.253703 88.293008 
L 226.253703 93.005071 
L 226.33049 93.005071 
L 229.784284 93.005071 
L 229.784284 97.717134 
L 229.861067 97.717134 
L 262.326843 97.717134 
L 262.326843 93.005071 
L 262.403573 93.005071 
L 262.940833 93.005071 
L 262.940833 88.293008 
L 263.017594 88.293008 
L 303.005 88.293008 
L 303.005 88.293008 
" style="fill:none;stroke:#7570b3;stroke-dasharray:4.5,1.5;stroke-dashoffset:0;stroke-width:1.5;"/>
   </g>
   <g id="line2d_29">
    <path clip-path="url(#pd4a3bb37ed)" d="M 55.905 210.806645 
L 59.857056 210.806645 
L 59.857056 206.094582 
L 59.933675 206.094582 
L 60.163935 206.094582 
L 60.163935 201.382519 
L 60.240702 201.382519 
L 63.694469 201.382519 
L 63.694469 196.670456 
L 63.771219 196.670456 
L 67.685543 196.670456 
L 67.685543 191.958393 
L 67.762283 191.958393 
L 70.14159 191.958393 
L 70.14159 187.24633 
L 70.218364 187.24633 
L 70.909087 187.24633 
L 70.909087 182.534267 
L 70.985855 182.534267 
L 71.216106 182.534267 
L 71.216106 177.822204 
L 71.292843 177.822204 
L 81.500772 177.822204 
L 81.500772 168.398079 
L 81.577508 168.398079 
L 81.807784 168.398079 
L 81.807784 163.686016 
L 81.884512 163.686016 
L 81.961296 163.686016 
L 81.961296 158.973953 
L 82.038031 158.973953 
L 82.114782 158.973953 
L 82.114782 154.26189 
L 82.191526 154.26189 
L 82.268301 154.26189 
L 82.268301 144.837764 
L 82.345034 144.837764 
L 82.421805 144.837764 
L 82.421805 140.125701 
L 82.498536 140.125701 
L 82.728807 140.125701 
L 82.728807 135.413638 
L 82.805546 135.413638 
L 83.035826 135.413638 
L 83.035826 130.701575 
L 83.112564 130.701575 
L 83.496292 130.701575 
L 83.496292 125.989512 
L 83.57308 125.989512 
L 85.184832 125.989512 
L 85.184832 121.277449 
L 85.261582 121.277449 
L 85.338331 121.277449 
L 85.338331 116.565386 
L 85.415106 116.565386 
L 85.491844 116.565386 
L 85.491844 102.429197 
L 85.568593 102.429197 
L 85.645337 102.429197 
L 85.645337 97.717134 
L 85.722084 97.717134 
L 85.798823 97.717134 
L 85.798823 93.005071 
L 85.875614 93.005071 
L 87.180351 93.005071 
L 87.180351 97.717134 
L 87.257143 97.717134 
L 89.175884 97.717134 
L 89.175884 93.005071 
L 89.252644 93.005071 
L 89.329403 93.005071 
L 89.329403 97.717134 
L 89.406155 97.717134 
L 89.482914 97.717134 
L 89.482914 93.005071 
L 89.559684 93.005071 
L 93.781006 93.005071 
L 93.781006 97.717134 
L 93.857731 97.717134 
L 93.934473 97.717134 
L 93.934473 93.005071 
L 94.011242 93.005071 
L 240.83649 93.005071 
L 240.83649 97.717134 
L 240.91321 97.717134 
L 252.65617 97.717134 
L 252.65617 93.005071 
L 252.732907 93.005071 
L 292.720333 93.005071 
L 292.720333 97.717134 
L 292.797123 97.717134 
L 297.17194 97.717134 
L 297.17194 93.005071 
L 297.24868 93.005071 
L 303.005 93.005071 
L 303.005 93.005071 
" style="fill:none;stroke:#e7298a;stroke-dasharray:4.5,1.5;stroke-dashoffset:0;stroke-width:1.5;"/>
   </g>
   <g id="line2d_30">
    <path clip-path="url(#pd4a3bb37ed)" d="M 124.826875 210.806645 
L 126.170012 210.806645 
L 126.170012 206.094582 
L 126.24679 206.094582 
L 130.775122 206.094582 
L 130.775122 201.382519 
L 130.851852 201.382519 
L 133.07767 201.382519 
L 133.07767 182.534267 
L 133.154392 182.534267 
L 133.384633 182.534267 
L 133.384633 173.110142 
L 133.461422 173.110142 
L 133.691649 173.110142 
L 133.691649 158.973953 
L 133.768414 158.973953 
L 133.998649 158.973953 
L 133.998649 154.26189 
L 134.075431 154.26189 
L 137.068733 154.26189 
L 137.068733 149.549827 
L 137.145483 149.549827 
L 137.836237 149.549827 
L 137.836237 144.837764 
L 137.912983 144.837764 
L 138.143226 144.837764 
L 138.143226 140.125701 
L 138.220008 140.125701 
L 138.450233 140.125701 
L 138.450233 135.413638 
L 138.526982 135.413638 
L 138.603741 135.413638 
L 138.603741 130.701575 
L 138.680476 130.701575 
L 140.752787 130.701575 
L 140.752787 125.989512 
L 140.829541 125.989512 
L 142.134285 125.989512 
L 142.134285 121.277449 
L 142.211063 121.277449 
L 144.743827 121.277449 
L 144.743827 116.565386 
L 144.820601 116.565386 
L 191.715626 116.565386 
L 191.715626 121.277449 
L 191.792381 121.277449 
L 192.48313 121.277449 
L 192.48313 116.565386 
L 192.559911 116.565386 
L 218.271596 116.565386 
L 218.271596 111.853323 
L 218.348359 111.853323 
L 218.578571 111.853323 
L 218.578571 107.14126 
L 218.655359 107.14126 
L 219.806615 107.14126 
L 219.806615 102.429197 
L 219.883349 102.429197 
L 240.682957 102.429197 
L 240.682957 97.717134 
L 240.759714 97.717134 
L 303.005 97.717134 
L 303.005 97.717134 
" style="fill:none;stroke:#66a61e;stroke-dasharray:4.5,1.5;stroke-dashoffset:0;stroke-width:1.5;"/>
   </g>
   <g id="line2d_31">
    <path clip-path="url(#pd4a3bb37ed)" d="M 55.905 206.094582 
L 63.387466 206.094582 
L 63.387466 201.382519 
L 63.464229 201.382519 
L 67.532041 201.382519 
L 67.532041 191.958393 
L 67.608801 191.958393 
L 81.500772 191.958393 
L 81.500772 187.24633 
L 81.577508 187.24633 
L 81.807784 187.24633 
L 81.807784 182.534267 
L 81.884512 182.534267 
L 82.268301 182.534267 
L 82.268301 177.822204 
L 82.345034 177.822204 
L 85.184832 177.822204 
L 85.184832 173.110142 
L 85.261582 173.110142 
L 85.338331 173.110142 
L 85.338331 163.686016 
L 85.415106 163.686016 
L 85.491844 163.686016 
L 85.491844 158.973953 
L 85.568593 158.973953 
L 85.798823 158.973953 
L 85.798823 154.26189 
L 85.875614 154.26189 
L 85.952356 154.26189 
L 85.952356 144.837764 
L 86.029109 144.837764 
L 86.10586 144.837764 
L 86.10586 135.413638 
L 86.182616 135.413638 
L 86.719882 135.413638 
L 86.719882 130.701575 
L 86.796624 130.701575 
L 87.026877 130.701575 
L 87.026877 125.989512 
L 87.103619 125.989512 
L 87.180351 125.989512 
L 87.180351 130.701575 
L 87.257143 130.701575 
L 88.561891 130.701575 
L 88.561891 135.413638 
L 88.638661 135.413638 
L 88.715378 135.413638 
L 88.715378 140.125701 
L 88.792257 140.125701 
L 88.868884 140.125701 
L 88.868884 135.413638 
L 88.945667 135.413638 
L 89.022383 135.413638 
L 89.022383 140.125701 
L 89.099166 140.125701 
L 89.175884 140.125701 
L 89.175884 135.413638 
L 89.252644 135.413638 
L 89.329403 135.413638 
L 89.329403 130.701575 
L 89.406155 130.701575 
L 89.636402 130.701575 
L 89.636402 135.413638 
L 89.713168 135.413638 
L 93.166973 135.413638 
L 93.166973 130.701575 
L 93.243727 130.701575 
L 93.473997 130.701575 
L 93.473997 125.989512 
L 93.550728 125.989512 
L 97.004548 125.989512 
L 97.004548 121.277449 
L 97.081284 121.277449 
L 98.079053 121.277449 
L 98.079053 116.565386 
L 98.155791 116.565386 
L 107.903223 116.565386 
L 107.903223 111.853323 
L 107.979987 111.853323 
L 108.056724 111.853323 
L 108.056724 107.14126 
L 108.13348 107.14126 
L 108.670719 107.14126 
L 108.670719 102.429197 
L 108.747495 102.429197 
L 115.885379 102.429197 
L 115.885379 97.717134 
L 115.96212 97.717134 
L 116.345846 97.717134 
L 116.345846 93.005071 
L 116.422628 93.005071 
L 124.021002 93.005071 
L 124.021002 88.293008 
L 124.097732 88.293008 
L 127.398043 88.293008 
L 127.398043 93.005071 
L 127.474798 93.005071 
L 133.384633 93.005071 
L 133.384633 97.717134 
L 133.461422 97.717134 
L 159.78711 97.717134 
L 159.78711 93.005071 
L 159.863873 93.005071 
L 185.729064 93.005071 
L 185.729064 88.293008 
L 185.805798 88.293008 
L 188.645603 88.293008 
L 188.645603 83.580945 
L 188.72233 83.580945 
L 199.237265 83.580945 
L 199.237265 78.868882 
L 199.314028 78.868882 
L 221.648673 78.868882 
L 221.648673 83.580945 
L 221.725422 83.580945 
L 221.802137 83.580945 
L 221.802137 78.868882 
L 221.878887 78.868882 
L 252.65617 78.868882 
L 252.65617 83.580945 
L 252.732907 83.580945 
L 259.717294 83.580945 
L 259.717294 88.293008 
L 259.79403 88.293008 
L 271.230122 88.293008 
L 271.230122 93.005071 
L 271.30675 93.005071 
L 293.334368 93.005071 
L 293.334368 97.717134 
L 293.411125 97.717134 
L 303.005 97.717134 
L 303.005 97.717134 
" style="fill:none;stroke:#e6ab02;stroke-dasharray:4.5,1.5;stroke-dashoffset:0;stroke-width:1.5;"/>
   </g>
   <g id="line2d_32">
    <path clip-path="url(#pd4a3bb37ed)" d="M 55.905 206.094582 
L 63.540968 206.094582 
L 63.540968 196.670456 
L 63.617728 196.670456 
L 66.918015 196.670456 
L 66.918015 187.24633 
L 66.994764 187.24633 
L 67.07151 187.24633 
L 67.07151 182.534267 
L 67.14828 182.534267 
L 67.685543 182.534267 
L 67.685543 177.822204 
L 67.762283 177.822204 
L 67.839041 177.822204 
L 67.839041 173.110142 
L 67.91581 173.110142 
L 82.114782 173.110142 
L 82.114782 168.398079 
L 82.191526 168.398079 
L 82.268301 168.398079 
L 82.268301 163.686016 
L 82.345034 163.686016 
L 82.421805 163.686016 
L 82.421805 158.973953 
L 82.498536 158.973953 
L 82.882279 158.973953 
L 82.882279 154.26189 
L 82.959066 154.26189 
L 83.035826 154.26189 
L 83.035826 158.973953 
L 83.112564 158.973953 
L 85.184832 158.973953 
L 85.184832 140.125701 
L 85.261582 140.125701 
L 85.491844 140.125701 
L 85.491844 130.701575 
L 85.568593 130.701575 
L 85.645337 130.701575 
L 85.645337 125.989512 
L 85.722084 125.989512 
L 85.798823 125.989512 
L 85.798823 116.565386 
L 85.875614 116.565386 
L 303.005 116.565386 
L 303.005 116.565386 
" style="fill:none;stroke:#a6761d;stroke-dasharray:4.5,1.5;stroke-dashoffset:0;stroke-width:1.5;"/>
   </g>
   <g id="line2d_33">
    <path clip-path="url(#pd4a3bb37ed)" d="M 55.905 210.806645 
L 63.847974 210.806645 
L 63.847974 206.094582 
L 63.924714 206.094582 
L 64.001499 206.094582 
L 64.001499 201.382519 
L 64.078247 201.382519 
L 67.07151 201.382519 
L 67.07151 196.670456 
L 67.14828 196.670456 
L 67.839041 196.670456 
L 67.839041 191.958393 
L 67.91581 191.958393 
L 68.146046 191.958393 
L 68.146046 187.24633 
L 68.222815 187.24633 
L 68.453067 187.24633 
L 68.453067 182.534267 
L 68.529825 182.534267 
L 70.755612 182.534267 
L 70.755612 187.24633 
L 70.832355 187.24633 
L 81.654297 187.24633 
L 81.654297 182.534267 
L 81.73101 182.534267 
L 82.575285 182.534267 
L 82.575285 173.110142 
L 82.65203 173.110142 
L 85.338331 173.110142 
L 85.338331 168.398079 
L 85.415106 168.398079 
L 85.952356 168.398079 
L 85.952356 149.549827 
L 86.029109 149.549827 
L 86.10586 149.549827 
L 86.10586 144.837764 
L 86.182616 144.837764 
L 86.259361 144.837764 
L 86.259361 140.125701 
L 86.336109 140.125701 
L 133.384633 140.125701 
L 133.384633 144.837764 
L 133.461422 144.837764 
L 133.538159 144.837764 
L 133.538159 140.125701 
L 133.614928 140.125701 
L 226.253703 140.125701 
L 226.253703 135.413638 
L 226.33049 135.413638 
L 233.928869 135.413638 
L 233.928869 130.701575 
L 234.00564 130.701575 
L 245.288045 130.701575 
L 245.288045 125.989512 
L 245.364825 125.989512 
L 247.437103 125.989512 
L 247.437103 121.277449 
L 247.513853 121.277449 
L 248.051108 121.277449 
L 248.051108 116.565386 
L 248.127846 116.565386 
L 273.532531 116.565386 
L 273.532531 121.277449 
L 273.60927 121.277449 
L 277.216587 121.277449 
L 277.216587 116.565386 
L 277.29334 116.565386 
L 303.005 116.565386 
L 303.005 116.565386 
" style="fill:none;stroke:#666666;stroke-dasharray:4.5,1.5;stroke-dashoffset:0;stroke-width:1.5;"/>
   </g>
   <g id="line2d_34"/>
   <g id="line2d_35"/>
   <g id="line2d_36"/>
   <g id="line2d_37"/>
   <g id="line2d_38"/>
   <g id="line2d_39"/>
   <g id="line2d_40"/>
   <g id="line2d_41"/>
   <g id="line2d_42"/>
   <g id="line2d_43"/>
   <g id="line2d_44"/>
   <g id="line2d_45"/>
   <g id="line2d_46"/>
   <g id="line2d_47"/>
   <g id="line2d_48"/>
   <g id="line2d_49"/>
   <g id="line2d_50"/>
   <g id="patch_3">
    <path d="M 43.55 220.230771 
L 43.55 12.9 
" style="fill:none;stroke:#000000;stroke-linecap:square;stroke-linejoin:miter;stroke-width:0.8;"/>
   </g>
   <g id="patch_4">
    <path d="M 315.36 220.230771 
L 315.36 12.9 
" style="fill:none;stroke:#000000;stroke-linecap:square;stroke-linejoin:miter;stroke-width:0.8;"/>
   </g>
   <g id="patch_5">
    <path d="M 43.55 220.230771 
L 315.36 220.230771 
" style="fill:none;stroke:#000000;stroke-linecap:square;stroke-linejoin:miter;stroke-width:0.8;"/>
   </g>
   <g id="patch_6">
    <path d="M 43.55 12.9 
L 315.36 12.9 
" style="fill:none;stroke:#000000;stroke-linecap:square;stroke-linejoin:miter;stroke-width:0.8;"/>
   </g>
  </g>
  <g id="legend_1">
   <g id="patch_7">
    <path d="M 331.8625 262.528125 
L 420 262.528125 
Q 422 262.528125 422 260.528125 
L 422 12 
Q 422 10 420 10 
L 331.8625 10 
Q 329.8625 10 329.8625 12 
L 329.8625 260.528125 
Q 329.8625 262.528125 331.8625 262.528125 
z
" style="fill:#ffffff;opacity:0.8;stroke:#cccccc;stroke-linejoin:miter;"/>
   </g>
   <g id="text_20">
    <!-- 495/610 Reg. -->
    <defs>
     <path d="M 25.390625 72.90625 
L 33.6875 72.90625 
L 8.296875 -9.28125 
L 0 -9.28125 
z
" id="DejaVuSans-47"/>
     <path d="M 33.015625 40.375 
Q 26.375 40.375 22.484375 35.828125 
Q 18.609375 31.296875 18.609375 23.390625 
Q 18.609375 15.53125 22.484375 10.953125 
Q 26.375 6.390625 33.015625 6.390625 
Q 39.65625 6.390625 43.53125 10.953125 
Q 47.40625 15.53125 47.40625 23.390625 
Q 47.40625 31.296875 43.53125 35.828125 
Q 39.65625 40.375 33.015625 40.375 
z
M 52.59375 71.296875 
L 52.59375 62.3125 
Q 48.875 64.0625 45.09375 64.984375 
Q 41.3125 65.921875 37.59375 65.921875 
Q 27.828125 65.921875 22.671875 59.328125 
Q 17.53125 52.734375 16.796875 39.40625 
Q 19.671875 43.65625 24.015625 45.921875 
Q 28.375 48.1875 33.59375 48.1875 
Q 44.578125 48.1875 50.953125 41.515625 
Q 57.328125 34.859375 57.328125 23.390625 
Q 57.328125 12.15625 50.6875 5.359375 
Q 44.046875 -1.421875 33.015625 -1.421875 
Q 20.359375 -1.421875 13.671875 8.265625 
Q 6.984375 17.96875 6.984375 36.375 
Q 6.984375 53.65625 15.1875 63.9375 
Q 23.390625 74.21875 37.203125 74.21875 
Q 40.921875 74.21875 44.703125 73.484375 
Q 48.484375 72.75 52.59375 71.296875 
z
" id="DejaVuSans-54"/>
     <path d="M 10.6875 12.40625 
L 21 12.40625 
L 21 0 
L 10.6875 0 
z
" id="DejaVuSans-46"/>
    </defs>
    <g transform="translate(342.259375 21.598437)scale(0.1 -0.1)">
     <use xlink:href="#DejaVuSans-52"/>
     <use x="63.623047" xlink:href="#DejaVuSans-57"/>
     <use x="127.246094" xlink:href="#DejaVuSans-53"/>
     <use x="190.869141" xlink:href="#DejaVuSans-47"/>
     <use x="224.560547" xlink:href="#DejaVuSans-54"/>
     <use x="288.183594" xlink:href="#DejaVuSans-49"/>
     <use x="351.806641" xlink:href="#DejaVuSans-48"/>
     <use x="415.429688" xlink:href="#DejaVuSans-32"/>
     <use x="447.216797" xlink:href="#DejaVuSans-82"/>
     <use x="516.636719" xlink:href="#DejaVuSans-101"/>
     <use x="578.160156" xlink:href="#DejaVuSans-103"/>
     <use x="641.636719" xlink:href="#DejaVuSans-46"/>
    </g>
   </g>
   <g id="line2d_51">
    <path d="M 333.8625 32.776562 
L 353.8625 32.776562 
" style="fill:none;stroke:#1b9e77;stroke-linecap:square;stroke-width:1.5;"/>
   </g>
   <g id="line2d_52"/>
   <g id="text_21">
    <!-- AS (40) -->
    <defs>
     <path d="M 34.1875 63.1875 
L 20.796875 26.90625 
L 47.609375 26.90625 
z
M 28.609375 72.90625 
L 39.796875 72.90625 
L 67.578125 0 
L 57.328125 0 
L 50.6875 18.703125 
L 17.828125 18.703125 
L 11.1875 0 
L 0.78125 0 
z
" id="DejaVuSans-65"/>
     <path d="M 31 75.875 
Q 24.46875 64.65625 21.28125 53.65625 
Q 18.109375 42.671875 18.109375 31.390625 
Q 18.109375 20.125 21.3125 9.0625 
Q 24.515625 -2 31 -13.1875 
L 23.1875 -13.1875 
Q 15.875 -1.703125 12.234375 9.375 
Q 8.59375 20.453125 8.59375 31.390625 
Q 8.59375 42.28125 12.203125 53.3125 
Q 15.828125 64.359375 23.1875 75.875 
z
" id="DejaVuSans-40"/>
     <path d="M 8.015625 75.875 
L 15.828125 75.875 
Q 23.140625 64.359375 26.78125 53.3125 
Q 30.421875 42.28125 30.421875 31.390625 
Q 30.421875 20.453125 26.78125 9.375 
Q 23.140625 -1.703125 15.828125 -13.1875 
L 8.015625 -13.1875 
Q 14.5 -2 17.703125 9.0625 
Q 20.90625 20.125 20.90625 31.390625 
Q 20.90625 42.671875 17.703125 53.65625 
Q 14.5 64.65625 8.015625 75.875 
z
" id="DejaVuSans-41"/>
    </defs>
    <g transform="translate(361.8625 36.276562)scale(0.1 -0.1)">
     <use xlink:href="#DejaVuSans-65"/>
     <use x="68.408203" xlink:href="#DejaVuSans-83"/>
     <use x="131.884766" xlink:href="#DejaVuSans-32"/>
     <use x="163.671875" xlink:href="#DejaVuSans-40"/>
     <use x="202.685547" xlink:href="#DejaVuSans-52"/>
     <use x="266.308594" xlink:href="#DejaVuSans-48"/>
     <use x="329.931641" xlink:href="#DejaVuSans-41"/>
    </g>
   </g>
   <g id="line2d_53">
    <path d="M 333.8625 47.454688 
L 353.8625 47.454688 
" style="fill:none;stroke:#d95f02;stroke-linecap:square;stroke-width:1.5;"/>
   </g>
   <g id="line2d_54"/>
   <g id="text_22">
    <!-- AUS (40) -->
    <defs>
     <path d="M 8.6875 72.90625 
L 18.609375 72.90625 
L 18.609375 28.609375 
Q 18.609375 16.890625 22.84375 11.734375 
Q 27.09375 6.59375 36.625 6.59375 
Q 46.09375 6.59375 50.34375 11.734375 
Q 54.59375 16.890625 54.59375 28.609375 
L 54.59375 72.90625 
L 64.5 72.90625 
L 64.5 27.390625 
Q 64.5 13.140625 57.4375 5.859375 
Q 50.390625 -1.421875 36.625 -1.421875 
Q 22.796875 -1.421875 15.734375 5.859375 
Q 8.6875 13.140625 8.6875 27.390625 
z
" id="DejaVuSans-85"/>
    </defs>
    <g transform="translate(361.8625 50.954688)scale(0.1 -0.1)">
     <use xlink:href="#DejaVuSans-65"/>
     <use x="68.408203" xlink:href="#DejaVuSans-85"/>
     <use x="141.601562" xlink:href="#DejaVuSans-83"/>
     <use x="205.078125" xlink:href="#DejaVuSans-32"/>
     <use x="236.865234" xlink:href="#DejaVuSans-40"/>
     <use x="275.878906" xlink:href="#DejaVuSans-52"/>
     <use x="339.501953" xlink:href="#DejaVuSans-48"/>
     <use x="403.125" xlink:href="#DejaVuSans-41"/>
    </g>
   </g>
   <g id="line2d_55">
    <path d="M 333.8625 62.132812 
L 353.8625 62.132812 
" style="fill:none;stroke:#7570b3;stroke-linecap:square;stroke-width:1.5;"/>
   </g>
   <g id="line2d_56"/>
   <g id="text_23">
    <!-- COML (40) -->
    <defs>
     <path d="M 64.40625 67.28125 
L 64.40625 56.890625 
Q 59.421875 61.53125 53.78125 63.8125 
Q 48.140625 66.109375 41.796875 66.109375 
Q 29.296875 66.109375 22.65625 58.46875 
Q 16.015625 50.828125 16.015625 36.375 
Q 16.015625 21.96875 22.65625 14.328125 
Q 29.296875 6.6875 41.796875 6.6875 
Q 48.140625 6.6875 53.78125 8.984375 
Q 59.421875 11.28125 64.40625 15.921875 
L 64.40625 5.609375 
Q 59.234375 2.09375 53.4375 0.328125 
Q 47.65625 -1.421875 41.21875 -1.421875 
Q 24.65625 -1.421875 15.125 8.703125 
Q 5.609375 18.84375 5.609375 36.375 
Q 5.609375 53.953125 15.125 64.078125 
Q 24.65625 74.21875 41.21875 74.21875 
Q 47.75 74.21875 53.53125 72.484375 
Q 59.328125 70.75 64.40625 67.28125 
z
" id="DejaVuSans-67"/>
     <path d="M 39.40625 66.21875 
Q 28.65625 66.21875 22.328125 58.203125 
Q 16.015625 50.203125 16.015625 36.375 
Q 16.015625 22.609375 22.328125 14.59375 
Q 28.65625 6.59375 39.40625 6.59375 
Q 50.140625 6.59375 56.421875 14.59375 
Q 62.703125 22.609375 62.703125 36.375 
Q 62.703125 50.203125 56.421875 58.203125 
Q 50.140625 66.21875 39.40625 66.21875 
z
M 39.40625 74.21875 
Q 54.734375 74.21875 63.90625 63.9375 
Q 73.09375 53.65625 73.09375 36.375 
Q 73.09375 19.140625 63.90625 8.859375 
Q 54.734375 -1.421875 39.40625 -1.421875 
Q 24.03125 -1.421875 14.8125 8.828125 
Q 5.609375 19.09375 5.609375 36.375 
Q 5.609375 53.65625 14.8125 63.9375 
Q 24.03125 74.21875 39.40625 74.21875 
z
" id="DejaVuSans-79"/>
     <path d="M 9.8125 72.90625 
L 24.515625 72.90625 
L 43.109375 23.296875 
L 61.8125 72.90625 
L 76.515625 72.90625 
L 76.515625 0 
L 66.890625 0 
L 66.890625 64.015625 
L 48.09375 14.015625 
L 38.1875 14.015625 
L 19.390625 64.015625 
L 19.390625 0 
L 9.8125 0 
z
" id="DejaVuSans-77"/>
     <path d="M 9.8125 72.90625 
L 19.671875 72.90625 
L 19.671875 8.296875 
L 55.171875 8.296875 
L 55.171875 0 
L 9.8125 0 
z
" id="DejaVuSans-76"/>
    </defs>
    <g transform="translate(361.8625 65.632812)scale(0.1 -0.1)">
     <use xlink:href="#DejaVuSans-67"/>
     <use x="69.824219" xlink:href="#DejaVuSans-79"/>
     <use x="148.535156" xlink:href="#DejaVuSans-77"/>
     <use x="234.814453" xlink:href="#DejaVuSans-76"/>
     <use x="290.527344" xlink:href="#DejaVuSans-32"/>
     <use x="322.314453" xlink:href="#DejaVuSans-40"/>
     <use x="361.328125" xlink:href="#DejaVuSans-52"/>
     <use x="424.951172" xlink:href="#DejaVuSans-48"/>
     <use x="488.574219" xlink:href="#DejaVuSans-41"/>
    </g>
   </g>
   <g id="line2d_57">
    <path d="M 333.8625 76.810937 
L 353.8625 76.810937 
" style="fill:none;stroke:#e7298a;stroke-linecap:square;stroke-width:1.5;"/>
   </g>
   <g id="line2d_58"/>
   <g id="text_24">
    <!-- GDD (40) -->
    <defs>
     <path d="M 59.515625 10.40625 
L 59.515625 29.984375 
L 43.40625 29.984375 
L 43.40625 38.09375 
L 69.28125 38.09375 
L 69.28125 6.78125 
Q 63.578125 2.734375 56.6875 0.65625 
Q 49.8125 -1.421875 42 -1.421875 
Q 24.90625 -1.421875 15.25 8.5625 
Q 5.609375 18.5625 5.609375 36.375 
Q 5.609375 54.25 15.25 64.234375 
Q 24.90625 74.21875 42 74.21875 
Q 49.125 74.21875 55.546875 72.453125 
Q 61.96875 70.703125 67.390625 67.28125 
L 67.390625 56.78125 
Q 61.921875 61.421875 55.765625 63.765625 
Q 49.609375 66.109375 42.828125 66.109375 
Q 29.4375 66.109375 22.71875 58.640625 
Q 16.015625 51.171875 16.015625 36.375 
Q 16.015625 21.625 22.71875 14.15625 
Q 29.4375 6.6875 42.828125 6.6875 
Q 48.046875 6.6875 52.140625 7.59375 
Q 56.25 8.5 59.515625 10.40625 
z
" id="DejaVuSans-71"/>
    </defs>
    <g transform="translate(361.8625 80.310937)scale(0.1 -0.1)">
     <use xlink:href="#DejaVuSans-71"/>
     <use x="77.490234" xlink:href="#DejaVuSans-68"/>
     <use x="154.492188" xlink:href="#DejaVuSans-68"/>
     <use x="231.494141" xlink:href="#DejaVuSans-32"/>
     <use x="263.28125" xlink:href="#DejaVuSans-40"/>
     <use x="302.294922" xlink:href="#DejaVuSans-52"/>
     <use x="365.917969" xlink:href="#DejaVuSans-48"/>
     <use x="429.541016" xlink:href="#DejaVuSans-41"/>
    </g>
   </g>
   <g id="line2d_59">
    <path d="M 333.8625 91.489062 
L 353.8625 91.489062 
" style="fill:none;stroke:#66a61e;stroke-linecap:square;stroke-width:1.5;"/>
   </g>
   <g id="line2d_60"/>
   <g id="text_25">
    <!-- SA (39) -->
    <g transform="translate(361.8625 94.989062)scale(0.1 -0.1)">
     <use xlink:href="#DejaVuSans-83"/>
     <use x="63.492188" xlink:href="#DejaVuSans-65"/>
     <use x="131.900391" xlink:href="#DejaVuSans-32"/>
     <use x="163.6875" xlink:href="#DejaVuSans-40"/>
     <use x="202.701172" xlink:href="#DejaVuSans-51"/>
     <use x="266.324219" xlink:href="#DejaVuSans-57"/>
     <use x="329.947266" xlink:href="#DejaVuSans-41"/>
    </g>
   </g>
   <g id="line2d_61">
    <path d="M 333.8625 106.167188 
L 353.8625 106.167188 
" style="fill:none;stroke:#e6ab02;stroke-linecap:square;stroke-width:1.5;"/>
   </g>
   <g id="line2d_62"/>
   <g id="text_26">
    <!-- MD (38) -->
    <defs>
     <path d="M 31.78125 34.625 
Q 24.75 34.625 20.71875 30.859375 
Q 16.703125 27.09375 16.703125 20.515625 
Q 16.703125 13.921875 20.71875 10.15625 
Q 24.75 6.390625 31.78125 6.390625 
Q 38.8125 6.390625 42.859375 10.171875 
Q 46.921875 13.96875 46.921875 20.515625 
Q 46.921875 27.09375 42.890625 30.859375 
Q 38.875 34.625 31.78125 34.625 
z
M 21.921875 38.8125 
Q 15.578125 40.375 12.03125 44.71875 
Q 8.5 49.078125 8.5 55.328125 
Q 8.5 64.0625 14.71875 69.140625 
Q 20.953125 74.21875 31.78125 74.21875 
Q 42.671875 74.21875 48.875 69.140625 
Q 55.078125 64.0625 55.078125 55.328125 
Q 55.078125 49.078125 51.53125 44.71875 
Q 48 40.375 41.703125 38.8125 
Q 48.828125 37.15625 52.796875 32.3125 
Q 56.78125 27.484375 56.78125 20.515625 
Q 56.78125 9.90625 50.3125 4.234375 
Q 43.84375 -1.421875 31.78125 -1.421875 
Q 19.734375 -1.421875 13.25 4.234375 
Q 6.78125 9.90625 6.78125 20.515625 
Q 6.78125 27.484375 10.78125 32.3125 
Q 14.796875 37.15625 21.921875 38.8125 
z
M 18.3125 54.390625 
Q 18.3125 48.734375 21.84375 45.5625 
Q 25.390625 42.390625 31.78125 42.390625 
Q 38.140625 42.390625 41.71875 45.5625 
Q 45.3125 48.734375 45.3125 54.390625 
Q 45.3125 60.0625 41.71875 63.234375 
Q 38.140625 66.40625 31.78125 66.40625 
Q 25.390625 66.40625 21.84375 63.234375 
Q 18.3125 60.0625 18.3125 54.390625 
z
" id="DejaVuSans-56"/>
    </defs>
    <g transform="translate(361.8625 109.667188)scale(0.1 -0.1)">
     <use xlink:href="#DejaVuSans-77"/>
     <use x="86.279297" xlink:href="#DejaVuSans-68"/>
     <use x="163.28125" xlink:href="#DejaVuSans-32"/>
     <use x="195.068359" xlink:href="#DejaVuSans-40"/>
     <use x="234.082031" xlink:href="#DejaVuSans-51"/>
     <use x="297.705078" xlink:href="#DejaVuSans-56"/>
     <use x="361.328125" xlink:href="#DejaVuSans-41"/>
    </g>
   </g>
   <g id="line2d_63">
    <path d="M 333.8625 120.845312 
L 353.8625 120.845312 
" style="fill:none;stroke:#a6761d;stroke-linecap:square;stroke-width:1.5;"/>
   </g>
   <g id="line2d_64"/>
   <g id="text_27">
    <!-- HPI (38) -->
    <defs>
     <path d="M 9.8125 72.90625 
L 19.671875 72.90625 
L 19.671875 43.015625 
L 55.515625 43.015625 
L 55.515625 72.90625 
L 65.375 72.90625 
L 65.375 0 
L 55.515625 0 
L 55.515625 34.71875 
L 19.671875 34.71875 
L 19.671875 0 
L 9.8125 0 
z
" id="DejaVuSans-72"/>
     <path d="M 19.671875 64.796875 
L 19.671875 37.40625 
L 32.078125 37.40625 
Q 38.96875 37.40625 42.71875 40.96875 
Q 46.484375 44.53125 46.484375 51.125 
Q 46.484375 57.671875 42.71875 61.234375 
Q 38.96875 64.796875 32.078125 64.796875 
z
M 9.8125 72.90625 
L 32.078125 72.90625 
Q 44.34375 72.90625 50.609375 67.359375 
Q 56.890625 61.8125 56.890625 51.125 
Q 56.890625 40.328125 50.609375 34.8125 
Q 44.34375 29.296875 32.078125 29.296875 
L 19.671875 29.296875 
L 19.671875 0 
L 9.8125 0 
z
" id="DejaVuSans-80"/>
     <path d="M 9.8125 72.90625 
L 19.671875 72.90625 
L 19.671875 0 
L 9.8125 0 
z
" id="DejaVuSans-73"/>
    </defs>
    <g transform="translate(361.8625 124.345312)scale(0.1 -0.1)">
     <use xlink:href="#DejaVuSans-72"/>
     <use x="75.195312" xlink:href="#DejaVuSans-80"/>
     <use x="135.498047" xlink:href="#DejaVuSans-73"/>
     <use x="164.990234" xlink:href="#DejaVuSans-32"/>
     <use x="196.777344" xlink:href="#DejaVuSans-40"/>
     <use x="235.791016" xlink:href="#DejaVuSans-51"/>
     <use x="299.414062" xlink:href="#DejaVuSans-56"/>
     <use x="363.037109" xlink:href="#DejaVuSans-41"/>
    </g>
   </g>
   <g id="line2d_65">
    <path d="M 333.8625 135.523438 
L 353.8625 135.523438 
" style="fill:none;stroke:#666666;stroke-linecap:square;stroke-width:1.5;"/>
   </g>
   <g id="line2d_66"/>
   <g id="text_28">
    <!-- TBI (28) -->
    <defs>
     <path d="M -0.296875 72.90625 
L 61.375 72.90625 
L 61.375 64.59375 
L 35.5 64.59375 
L 35.5 0 
L 25.59375 0 
L 25.59375 64.59375 
L -0.296875 64.59375 
z
" id="DejaVuSans-84"/>
     <path d="M 19.671875 34.8125 
L 19.671875 8.109375 
L 35.5 8.109375 
Q 43.453125 8.109375 47.28125 11.40625 
Q 51.125 14.703125 51.125 21.484375 
Q 51.125 28.328125 47.28125 31.5625 
Q 43.453125 34.8125 35.5 34.8125 
z
M 19.671875 64.796875 
L 19.671875 42.828125 
L 34.28125 42.828125 
Q 41.5 42.828125 45.03125 45.53125 
Q 48.578125 48.25 48.578125 53.8125 
Q 48.578125 59.328125 45.03125 62.0625 
Q 41.5 64.796875 34.28125 64.796875 
z
M 9.8125 72.90625 
L 35.015625 72.90625 
Q 46.296875 72.90625 52.390625 68.21875 
Q 58.5 63.53125 58.5 54.890625 
Q 58.5 48.1875 55.375 44.234375 
Q 52.25 40.28125 46.1875 39.3125 
Q 53.46875 37.75 57.5 32.78125 
Q 61.53125 27.828125 61.53125 20.40625 
Q 61.53125 10.640625 54.890625 5.3125 
Q 48.25 0 35.984375 0 
L 9.8125 0 
z
" id="DejaVuSans-66"/>
    </defs>
    <g transform="translate(361.8625 139.023438)scale(0.1 -0.1)">
     <use xlink:href="#DejaVuSans-84"/>
     <use x="61.083984" xlink:href="#DejaVuSans-66"/>
     <use x="129.6875" xlink:href="#DejaVuSans-73"/>
     <use x="159.179688" xlink:href="#DejaVuSans-32"/>
     <use x="190.966797" xlink:href="#DejaVuSans-40"/>
     <use x="229.980469" xlink:href="#DejaVuSans-50"/>
     <use x="293.603516" xlink:href="#DejaVuSans-56"/>
     <use x="357.226562" xlink:href="#DejaVuSans-41"/>
    </g>
   </g>
   <g id="line2d_67">
    <path d="M 333.8625 150.201562 
L 353.8625 150.201562 
" style="fill:none;stroke:#1b9e77;stroke-dasharray:4.5,1.5;stroke-dashoffset:0;stroke-width:1.5;"/>
   </g>
   <g id="line2d_68"/>
   <g id="text_29">
    <!-- FIT (27) -->
    <defs>
     <path d="M 9.8125 72.90625 
L 51.703125 72.90625 
L 51.703125 64.59375 
L 19.671875 64.59375 
L 19.671875 43.109375 
L 48.578125 43.109375 
L 48.578125 34.8125 
L 19.671875 34.8125 
L 19.671875 0 
L 9.8125 0 
z
" id="DejaVuSans-70"/>
     <path d="M 8.203125 72.90625 
L 55.078125 72.90625 
L 55.078125 68.703125 
L 28.609375 0 
L 18.3125 0 
L 43.21875 64.59375 
L 8.203125 64.59375 
z
" id="DejaVuSans-55"/>
    </defs>
    <g transform="translate(361.8625 153.701562)scale(0.1 -0.1)">
     <use xlink:href="#DejaVuSans-70"/>
     <use x="57.519531" xlink:href="#DejaVuSans-73"/>
     <use x="87.011719" xlink:href="#DejaVuSans-84"/>
     <use x="148.095703" xlink:href="#DejaVuSans-32"/>
     <use x="179.882812" xlink:href="#DejaVuSans-40"/>
     <use x="218.896484" xlink:href="#DejaVuSans-50"/>
     <use x="282.519531" xlink:href="#DejaVuSans-55"/>
     <use x="346.142578" xlink:href="#DejaVuSans-41"/>
    </g>
   </g>
   <g id="line2d_69">
    <path d="M 333.8625 164.879687 
L 353.8625 164.879687 
" style="fill:none;stroke:#d95f02;stroke-dasharray:4.5,1.5;stroke-dashoffset:0;stroke-width:1.5;"/>
   </g>
   <g id="line2d_70"/>
   <g id="text_30">
    <!-- CB (26) -->
    <g transform="translate(361.8625 168.379687)scale(0.1 -0.1)">
     <use xlink:href="#DejaVuSans-67"/>
     <use x="69.824219" xlink:href="#DejaVuSans-66"/>
     <use x="138.427734" xlink:href="#DejaVuSans-32"/>
     <use x="170.214844" xlink:href="#DejaVuSans-40"/>
     <use x="209.228516" xlink:href="#DejaVuSans-50"/>
     <use x="272.851562" xlink:href="#DejaVuSans-54"/>
     <use x="336.474609" xlink:href="#DejaVuSans-41"/>
    </g>
   </g>
   <g id="line2d_71">
    <path d="M 333.8625 179.557812 
L 353.8625 179.557812 
" style="fill:none;stroke:#7570b3;stroke-dasharray:4.5,1.5;stroke-dashoffset:0;stroke-width:1.5;"/>
   </g>
   <g id="line2d_72"/>
   <g id="text_31">
    <!-- BP (26) -->
    <g transform="translate(361.8625 183.057812)scale(0.1 -0.1)">
     <use xlink:href="#DejaVuSans-66"/>
     <use x="68.603516" xlink:href="#DejaVuSans-80"/>
     <use x="128.90625" xlink:href="#DejaVuSans-32"/>
     <use x="160.693359" xlink:href="#DejaVuSans-40"/>
     <use x="199.707031" xlink:href="#DejaVuSans-50"/>
     <use x="263.330078" xlink:href="#DejaVuSans-54"/>
     <use x="326.953125" xlink:href="#DejaVuSans-41"/>
    </g>
   </g>
   <g id="line2d_73">
    <path d="M 333.8625 194.235937 
L 353.8625 194.235937 
" style="fill:none;stroke:#e7298a;stroke-dasharray:4.5,1.5;stroke-dashoffset:0;stroke-width:1.5;"/>
   </g>
   <g id="line2d_74"/>
   <g id="text_32">
    <!-- CC (25) -->
    <g transform="translate(361.8625 197.735937)scale(0.1 -0.1)">
     <use xlink:href="#DejaVuSans-67"/>
     <use x="69.824219" xlink:href="#DejaVuSans-67"/>
     <use x="139.648438" xlink:href="#DejaVuSans-32"/>
     <use x="171.435547" xlink:href="#DejaVuSans-40"/>
     <use x="210.449219" xlink:href="#DejaVuSans-50"/>
     <use x="274.072266" xlink:href="#DejaVuSans-53"/>
     <use x="337.695312" xlink:href="#DejaVuSans-41"/>
    </g>
   </g>
   <g id="line2d_75">
    <path d="M 333.8625 208.914062 
L 353.8625 208.914062 
" style="fill:none;stroke:#66a61e;stroke-dasharray:4.5,1.5;stroke-dashoffset:0;stroke-width:1.5;"/>
   </g>
   <g id="line2d_76"/>
   <g id="text_33">
    <!-- RJPH (24) -->
    <defs>
     <path d="M 9.8125 72.90625 
L 19.671875 72.90625 
L 19.671875 5.078125 
Q 19.671875 -8.109375 14.671875 -14.0625 
Q 9.671875 -20.015625 -1.421875 -20.015625 
L -5.171875 -20.015625 
L -5.171875 -11.71875 
L -2.09375 -11.71875 
Q 4.4375 -11.71875 7.125 -8.046875 
Q 9.8125 -4.390625 9.8125 5.078125 
z
" id="DejaVuSans-74"/>
    </defs>
    <g transform="translate(361.8625 212.414062)scale(0.1 -0.1)">
     <use xlink:href="#DejaVuSans-82"/>
     <use x="69.482422" xlink:href="#DejaVuSans-74"/>
     <use x="98.974609" xlink:href="#DejaVuSans-80"/>
     <use x="159.277344" xlink:href="#DejaVuSans-72"/>
     <use x="234.472656" xlink:href="#DejaVuSans-32"/>
     <use x="266.259766" xlink:href="#DejaVuSans-40"/>
     <use x="305.273438" xlink:href="#DejaVuSans-50"/>
     <use x="368.896484" xlink:href="#DejaVuSans-52"/>
     <use x="432.519531" xlink:href="#DejaVuSans-41"/>
    </g>
   </g>
   <g id="line2d_77">
    <path d="M 333.8625 223.592187 
L 353.8625 223.592187 
" style="fill:none;stroke:#e6ab02;stroke-dasharray:4.5,1.5;stroke-dashoffset:0;stroke-width:1.5;"/>
   </g>
   <g id="line2d_78"/>
   <g id="text_34">
    <!-- SPD (24) -->
    <g transform="translate(361.8625 227.092187)scale(0.1 -0.1)">
     <use xlink:href="#DejaVuSans-83"/>
     <use x="63.476562" xlink:href="#DejaVuSans-80"/>
     <use x="123.779297" xlink:href="#DejaVuSans-68"/>
     <use x="200.78125" xlink:href="#DejaVuSans-32"/>
     <use x="232.568359" xlink:href="#DejaVuSans-40"/>
     <use x="271.582031" xlink:href="#DejaVuSans-50"/>
     <use x="335.205078" xlink:href="#DejaVuSans-52"/>
     <use x="398.828125" xlink:href="#DejaVuSans-41"/>
    </g>
   </g>
   <g id="line2d_79">
    <path d="M 333.8625 238.270312 
L 353.8625 238.270312 
" style="fill:none;stroke:#a6761d;stroke-dasharray:4.5,1.5;stroke-dashoffset:0;stroke-width:1.5;"/>
   </g>
   <g id="line2d_80"/>
   <g id="text_35">
    <!-- AHR-H (20) -->
    <g transform="translate(361.8625 241.770312)scale(0.1 -0.1)">
     <use xlink:href="#DejaVuSans-65"/>
     <use x="68.408203" xlink:href="#DejaVuSans-72"/>
     <use x="143.603516" xlink:href="#DejaVuSans-82"/>
     <use x="213.023438" xlink:href="#DejaVuSans-45"/>
     <use x="249.107422" xlink:href="#DejaVuSans-72"/>
     <use x="324.302734" xlink:href="#DejaVuSans-32"/>
     <use x="356.089844" xlink:href="#DejaVuSans-40"/>
     <use x="395.103516" xlink:href="#DejaVuSans-50"/>
     <use x="458.726562" xlink:href="#DejaVuSans-48"/>
     <use x="522.349609" xlink:href="#DejaVuSans-41"/>
    </g>
   </g>
   <g id="line2d_81">
    <path d="M 333.8625 252.948437 
L 353.8625 252.948437 
" style="fill:none;stroke:#666666;stroke-dasharray:4.5,1.5;stroke-dashoffset:0;stroke-width:1.5;"/>
   </g>
   <g id="line2d_82"/>
   <g id="text_36">
    <!-- AHR-A (20) -->
    <g transform="translate(361.8625 256.448437)scale(0.1 -0.1)">
     <use xlink:href="#DejaVuSans-65"/>
     <use x="68.408203" xlink:href="#DejaVuSans-72"/>
     <use x="143.603516" xlink:href="#DejaVuSans-82"/>
     <use x="213.023438" xlink:href="#DejaVuSans-45"/>
     <use x="249.076172" xlink:href="#DejaVuSans-65"/>
     <use x="317.484375" xlink:href="#DejaVuSans-32"/>
     <use x="349.271484" xlink:href="#DejaVuSans-40"/>
     <use x="388.285156" xlink:href="#DejaVuSans-50"/>
     <use x="451.908203" xlink:href="#DejaVuSans-48"/>
     <use x="515.53125" xlink:href="#DejaVuSans-41"/>
    </g>
   </g>
  </g>
 </g>
 <defs>
  <clipPath id="pd4a3bb37ed">
   <rect height="207.330771" width="271.81" x="43.55" y="12.9"/>
  </clipPath>
 </defs>
</svg>
