<?xml version="1.0" encoding="utf-8" standalone="no"?>
<!DOCTYPE svg PUBLIC "-//W3C//DTD SVG 1.1//EN"
  "http://www.w3.org/Graphics/SVG/1.1/DTD/svg11.dtd">
<!-- Created with matplotlib (https://matplotlib.org/) -->
<svg height="288pt" version="1.1" viewBox="0 0 432 288" width="432pt" xmlns="http://www.w3.org/2000/svg" xmlns:xlink="http://www.w3.org/1999/xlink">
 <defs>
  <style type="text/css">
*{stroke-linecap:butt;stroke-linejoin:round;}
  </style>
 </defs>
 <g id="figure_1">
  <g id="patch_1">
   <path d="M 0 288 
L 432 288 
L 432 0 
L 0 0 
z
" style="fill:#ffffff;"/>
  </g>
  <g id="axes_1">
   <g id="patch_2">
    <path d="M 43.55 220.230771 
L 315.36 220.230771 
L 315.36 12.9 
L 43.55 12.9 
z
" style="fill:#ffffff;"/>
   </g>
   <g id="matplotlib.axis_1">
    <g id="xtick_1">
     <g id="line2d_1">
      <defs>
       <path d="M 0 0 
L 0 3.5 
" id="mb9297562ca" style="stroke:#000000;stroke-width:0.8;"/>
      </defs>
      <g>
       <use style="stroke:#000000;stroke-width:0.8;" x="49.38621" xlink:href="#mb9297562ca" y="220.230771"/>
      </g>
     </g>
     <g id="text_1">
      <!-- 2020-11-29 -->
      <defs>
       <path d="M 19.1875 8.296875 
L 53.609375 8.296875 
L 53.609375 0 
L 7.328125 0 
L 7.328125 8.296875 
Q 12.9375 14.109375 22.625 23.890625 
Q 32.328125 33.6875 34.8125 36.53125 
Q 39.546875 41.84375 41.421875 45.53125 
Q 43.3125 49.21875 43.3125 52.78125 
Q 43.3125 58.59375 39.234375 62.25 
Q 35.15625 65.921875 28.609375 65.921875 
Q 23.96875 65.921875 18.8125 64.3125 
Q 13.671875 62.703125 7.8125 59.421875 
L 7.8125 69.390625 
Q 13.765625 71.78125 18.9375 73 
Q 24.125 74.21875 28.421875 74.21875 
Q 39.75 74.21875 46.484375 68.546875 
Q 53.21875 62.890625 53.21875 53.421875 
Q 53.21875 48.921875 51.53125 44.890625 
Q 49.859375 40.875 45.40625 35.40625 
Q 44.1875 33.984375 37.640625 27.21875 
Q 31.109375 20.453125 19.1875 8.296875 
z
" id="DejaVuSans-50"/>
       <path d="M 31.78125 66.40625 
Q 24.171875 66.40625 20.328125 58.90625 
Q 16.5 51.421875 16.5 36.375 
Q 16.5 21.390625 20.328125 13.890625 
Q 24.171875 6.390625 31.78125 6.390625 
Q 39.453125 6.390625 43.28125 13.890625 
Q 47.125 21.390625 47.125 36.375 
Q 47.125 51.421875 43.28125 58.90625 
Q 39.453125 66.40625 31.78125 66.40625 
z
M 31.78125 74.21875 
Q 44.046875 74.21875 50.515625 64.515625 
Q 56.984375 54.828125 56.984375 36.375 
Q 56.984375 17.96875 50.515625 8.265625 
Q 44.046875 -1.421875 31.78125 -1.421875 
Q 19.53125 -1.421875 13.0625 8.265625 
Q 6.59375 17.96875 6.59375 36.375 
Q 6.59375 54.828125 13.0625 64.515625 
Q 19.53125 74.21875 31.78125 74.21875 
z
" id="DejaVuSans-48"/>
       <path d="M 4.890625 31.390625 
L 31.203125 31.390625 
L 31.203125 23.390625 
L 4.890625 23.390625 
z
" id="DejaVuSans-45"/>
       <path d="M 12.40625 8.296875 
L 28.515625 8.296875 
L 28.515625 63.921875 
L 10.984375 60.40625 
L 10.984375 69.390625 
L 28.421875 72.90625 
L 38.28125 72.90625 
L 38.28125 8.296875 
L 54.390625 8.296875 
L 54.390625 0 
L 12.40625 0 
z
" id="DejaVuSans-49"/>
       <path d="M 10.984375 1.515625 
L 10.984375 10.5 
Q 14.703125 8.734375 18.5 7.8125 
Q 22.3125 6.890625 25.984375 6.890625 
Q 35.75 6.890625 40.890625 13.453125 
Q 46.046875 20.015625 46.78125 33.40625 
Q 43.953125 29.203125 39.59375 26.953125 
Q 35.25 24.703125 29.984375 24.703125 
Q 19.046875 24.703125 12.671875 31.3125 
Q 6.296875 37.9375 6.296875 49.421875 
Q 6.296875 60.640625 12.9375 67.421875 
Q 19.578125 74.21875 30.609375 74.21875 
Q 43.265625 74.21875 49.921875 64.515625 
Q 56.59375 54.828125 56.59375 36.375 
Q 56.59375 19.140625 48.40625 8.859375 
Q 40.234375 -1.421875 26.421875 -1.421875 
Q 22.703125 -1.421875 18.890625 -0.6875 
Q 15.09375 0.046875 10.984375 1.515625 
z
M 30.609375 32.421875 
Q 37.25 32.421875 41.125 36.953125 
Q 45.015625 41.5 45.015625 49.421875 
Q 45.015625 57.28125 41.125 61.84375 
Q 37.25 66.40625 30.609375 66.40625 
Q 23.96875 66.40625 20.09375 61.84375 
Q 16.21875 57.28125 16.21875 49.421875 
Q 16.21875 41.5 20.09375 36.953125 
Q 23.96875 32.421875 30.609375 32.421875 
z
" id="DejaVuSans-57"/>
      </defs>
      <g transform="translate(25.601094 262.869024)rotate(-30)scale(0.1 -0.1)">
       <use xlink:href="#DejaVuSans-50"/>
       <use x="63.623047" xlink:href="#DejaVuSans-48"/>
       <use x="127.246094" xlink:href="#DejaVuSans-50"/>
       <use x="190.869141" xlink:href="#DejaVuSans-48"/>
       <use x="254.492188" xlink:href="#DejaVuSans-45"/>
       <use x="290.576172" xlink:href="#DejaVuSans-49"/>
       <use x="354.199219" xlink:href="#DejaVuSans-49"/>
       <use x="417.822266" xlink:href="#DejaVuSans-45"/>
       <use x="453.90625" xlink:href="#DejaVuSans-50"/>
       <use x="517.529297" xlink:href="#DejaVuSans-57"/>
      </g>
     </g>
    </g>
    <g id="xtick_2">
     <g id="line2d_2">
      <g>
       <use style="stroke:#000000;stroke-width:0.8;" x="58.388749" xlink:href="#mb9297562ca" y="220.230771"/>
      </g>
     </g>
     <g id="text_2">
      <!-- 2020-12-01 -->
      <g transform="translate(34.603632 262.869024)rotate(-30)scale(0.1 -0.1)">
       <use xlink:href="#DejaVuSans-50"/>
       <use x="63.623047" xlink:href="#DejaVuSans-48"/>
       <use x="127.246094" xlink:href="#DejaVuSans-50"/>
       <use x="190.869141" xlink:href="#DejaVuSans-48"/>
       <use x="254.492188" xlink:href="#DejaVuSans-45"/>
       <use x="290.576172" xlink:href="#DejaVuSans-49"/>
       <use x="354.199219" xlink:href="#DejaVuSans-50"/>
       <use x="417.822266" xlink:href="#DejaVuSans-45"/>
       <use x="453.90625" xlink:href="#DejaVuSans-48"/>
       <use x="517.529297" xlink:href="#DejaVuSans-49"/>
      </g>
     </g>
    </g>
    <g id="xtick_3">
     <g id="line2d_3">
      <g>
       <use style="stroke:#000000;stroke-width:0.8;" x="89.897634" xlink:href="#mb9297562ca" y="220.230771"/>
      </g>
     </g>
     <g id="text_3">
      <!-- 2020-12-08 -->
      <defs>
       <path d="M 31.78125 34.625 
Q 24.75 34.625 20.71875 30.859375 
Q 16.703125 27.09375 16.703125 20.515625 
Q 16.703125 13.921875 20.71875 10.15625 
Q 24.75 6.390625 31.78125 6.390625 
Q 38.8125 6.390625 42.859375 10.171875 
Q 46.921875 13.96875 46.921875 20.515625 
Q 46.921875 27.09375 42.890625 30.859375 
Q 38.875 34.625 31.78125 34.625 
z
M 21.921875 38.8125 
Q 15.578125 40.375 12.03125 44.71875 
Q 8.5 49.078125 8.5 55.328125 
Q 8.5 64.0625 14.71875 69.140625 
Q 20.953125 74.21875 31.78125 74.21875 
Q 42.671875 74.21875 48.875 69.140625 
Q 55.078125 64.0625 55.078125 55.328125 
Q 55.078125 49.078125 51.53125 44.71875 
Q 48 40.375 41.703125 38.8125 
Q 48.828125 37.15625 52.796875 32.3125 
Q 56.78125 27.484375 56.78125 20.515625 
Q 56.78125 9.90625 50.3125 4.234375 
Q 43.84375 -1.421875 31.78125 -1.421875 
Q 19.734375 -1.421875 13.25 4.234375 
Q 6.78125 9.90625 6.78125 20.515625 
Q 6.78125 27.484375 10.78125 32.3125 
Q 14.796875 37.15625 21.921875 38.8125 
z
M 18.3125 54.390625 
Q 18.3125 48.734375 21.84375 45.5625 
Q 25.390625 42.390625 31.78125 42.390625 
Q 38.140625 42.390625 41.71875 45.5625 
Q 45.3125 48.734375 45.3125 54.390625 
Q 45.3125 60.0625 41.71875 63.234375 
Q 38.140625 66.40625 31.78125 66.40625 
Q 25.390625 66.40625 21.84375 63.234375 
Q 18.3125 60.0625 18.3125 54.390625 
z
" id="DejaVuSans-56"/>
      </defs>
      <g transform="translate(66.112518 262.869024)rotate(-30)scale(0.1 -0.1)">
       <use xlink:href="#DejaVuSans-50"/>
       <use x="63.623047" xlink:href="#DejaVuSans-48"/>
       <use x="127.246094" xlink:href="#DejaVuSans-50"/>
       <use x="190.869141" xlink:href="#DejaVuSans-48"/>
       <use x="254.492188" xlink:href="#DejaVuSans-45"/>
       <use x="290.576172" xlink:href="#DejaVuSans-49"/>
       <use x="354.199219" xlink:href="#DejaVuSans-50"/>
       <use x="417.822266" xlink:href="#DejaVuSans-45"/>
       <use x="453.90625" xlink:href="#DejaVuSans-48"/>
       <use x="517.529297" xlink:href="#DejaVuSans-56"/>
      </g>
     </g>
    </g>
    <g id="xtick_4">
     <g id="line2d_4">
      <g>
       <use style="stroke:#000000;stroke-width:0.8;" x="121.40652" xlink:href="#mb9297562ca" y="220.230771"/>
      </g>
     </g>
     <g id="text_4">
      <!-- 2020-12-15 -->
      <defs>
       <path d="M 10.796875 72.90625 
L 49.515625 72.90625 
L 49.515625 64.59375 
L 19.828125 64.59375 
L 19.828125 46.734375 
Q 21.96875 47.46875 24.109375 47.828125 
Q 26.265625 48.1875 28.421875 48.1875 
Q 40.625 48.1875 47.75 41.5 
Q 54.890625 34.8125 54.890625 23.390625 
Q 54.890625 11.625 47.5625 5.09375 
Q 40.234375 -1.421875 26.90625 -1.421875 
Q 22.3125 -1.421875 17.546875 -0.640625 
Q 12.796875 0.140625 7.71875 1.703125 
L 7.71875 11.625 
Q 12.109375 9.234375 16.796875 8.0625 
Q 21.484375 6.890625 26.703125 6.890625 
Q 35.15625 6.890625 40.078125 11.328125 
Q 45.015625 15.765625 45.015625 23.390625 
Q 45.015625 31 40.078125 35.4375 
Q 35.15625 39.890625 26.703125 39.890625 
Q 22.75 39.890625 18.8125 39.015625 
Q 14.890625 38.140625 10.796875 36.28125 
z
" id="DejaVuSans-53"/>
      </defs>
      <g transform="translate(97.621404 262.869024)rotate(-30)scale(0.1 -0.1)">
       <use xlink:href="#DejaVuSans-50"/>
       <use x="63.623047" xlink:href="#DejaVuSans-48"/>
       <use x="127.246094" xlink:href="#DejaVuSans-50"/>
       <use x="190.869141" xlink:href="#DejaVuSans-48"/>
       <use x="254.492188" xlink:href="#DejaVuSans-45"/>
       <use x="290.576172" xlink:href="#DejaVuSans-49"/>
       <use x="354.199219" xlink:href="#DejaVuSans-50"/>
       <use x="417.822266" xlink:href="#DejaVuSans-45"/>
       <use x="453.90625" xlink:href="#DejaVuSans-49"/>
       <use x="517.529297" xlink:href="#DejaVuSans-53"/>
      </g>
     </g>
    </g>
    <g id="xtick_5">
     <g id="line2d_5">
      <g>
       <use style="stroke:#000000;stroke-width:0.8;" x="152.915406" xlink:href="#mb9297562ca" y="220.230771"/>
      </g>
     </g>
     <g id="text_5">
      <!-- 2020-12-22 -->
      <g transform="translate(129.13029 262.869024)rotate(-30)scale(0.1 -0.1)">
       <use xlink:href="#DejaVuSans-50"/>
       <use x="63.623047" xlink:href="#DejaVuSans-48"/>
       <use x="127.246094" xlink:href="#DejaVuSans-50"/>
       <use x="190.869141" xlink:href="#DejaVuSans-48"/>
       <use x="254.492188" xlink:href="#DejaVuSans-45"/>
       <use x="290.576172" xlink:href="#DejaVuSans-49"/>
       <use x="354.199219" xlink:href="#DejaVuSans-50"/>
       <use x="417.822266" xlink:href="#DejaVuSans-45"/>
       <use x="453.90625" xlink:href="#DejaVuSans-50"/>
       <use x="517.529297" xlink:href="#DejaVuSans-50"/>
      </g>
     </g>
    </g>
    <g id="xtick_6">
     <g id="line2d_6">
      <g>
       <use style="stroke:#000000;stroke-width:0.8;" x="184.424292" xlink:href="#mb9297562ca" y="220.230771"/>
      </g>
     </g>
     <g id="text_6">
      <!-- 2020-12-29 -->
      <g transform="translate(160.639175 262.869024)rotate(-30)scale(0.1 -0.1)">
       <use xlink:href="#DejaVuSans-50"/>
       <use x="63.623047" xlink:href="#DejaVuSans-48"/>
       <use x="127.246094" xlink:href="#DejaVuSans-50"/>
       <use x="190.869141" xlink:href="#DejaVuSans-48"/>
       <use x="254.492188" xlink:href="#DejaVuSans-45"/>
       <use x="290.576172" xlink:href="#DejaVuSans-49"/>
       <use x="354.199219" xlink:href="#DejaVuSans-50"/>
       <use x="417.822266" xlink:href="#DejaVuSans-45"/>
       <use x="453.90625" xlink:href="#DejaVuSans-50"/>
       <use x="517.529297" xlink:href="#DejaVuSans-57"/>
      </g>
     </g>
    </g>
    <g id="xtick_7">
     <g id="line2d_7">
      <g>
       <use style="stroke:#000000;stroke-width:0.8;" x="197.9281" xlink:href="#mb9297562ca" y="220.230771"/>
      </g>
     </g>
     <g id="text_7">
      <!-- 2021-01-01 -->
      <g transform="translate(174.142983 262.869024)rotate(-30)scale(0.1 -0.1)">
       <use xlink:href="#DejaVuSans-50"/>
       <use x="63.623047" xlink:href="#DejaVuSans-48"/>
       <use x="127.246094" xlink:href="#DejaVuSans-50"/>
       <use x="190.869141" xlink:href="#DejaVuSans-49"/>
       <use x="254.492188" xlink:href="#DejaVuSans-45"/>
       <use x="290.576172" xlink:href="#DejaVuSans-48"/>
       <use x="354.199219" xlink:href="#DejaVuSans-49"/>
       <use x="417.822266" xlink:href="#DejaVuSans-45"/>
       <use x="453.90625" xlink:href="#DejaVuSans-48"/>
       <use x="517.529297" xlink:href="#DejaVuSans-49"/>
      </g>
     </g>
    </g>
    <g id="xtick_8">
     <g id="line2d_8">
      <g>
       <use style="stroke:#000000;stroke-width:0.8;" x="229.436985" xlink:href="#mb9297562ca" y="220.230771"/>
      </g>
     </g>
     <g id="text_8">
      <!-- 2021-01-08 -->
      <g transform="translate(205.651869 262.869024)rotate(-30)scale(0.1 -0.1)">
       <use xlink:href="#DejaVuSans-50"/>
       <use x="63.623047" xlink:href="#DejaVuSans-48"/>
       <use x="127.246094" xlink:href="#DejaVuSans-50"/>
       <use x="190.869141" xlink:href="#DejaVuSans-49"/>
       <use x="254.492188" xlink:href="#DejaVuSans-45"/>
       <use x="290.576172" xlink:href="#DejaVuSans-48"/>
       <use x="354.199219" xlink:href="#DejaVuSans-49"/>
       <use x="417.822266" xlink:href="#DejaVuSans-45"/>
       <use x="453.90625" xlink:href="#DejaVuSans-48"/>
       <use x="517.529297" xlink:href="#DejaVuSans-56"/>
      </g>
     </g>
    </g>
    <g id="xtick_9">
     <g id="line2d_9">
      <g>
       <use style="stroke:#000000;stroke-width:0.8;" x="260.945871" xlink:href="#mb9297562ca" y="220.230771"/>
      </g>
     </g>
     <g id="text_9">
      <!-- 2021-01-15 -->
      <g transform="translate(237.160755 262.869024)rotate(-30)scale(0.1 -0.1)">
       <use xlink:href="#DejaVuSans-50"/>
       <use x="63.623047" xlink:href="#DejaVuSans-48"/>
       <use x="127.246094" xlink:href="#DejaVuSans-50"/>
       <use x="190.869141" xlink:href="#DejaVuSans-49"/>
       <use x="254.492188" xlink:href="#DejaVuSans-45"/>
       <use x="290.576172" xlink:href="#DejaVuSans-48"/>
       <use x="354.199219" xlink:href="#DejaVuSans-49"/>
       <use x="417.822266" xlink:href="#DejaVuSans-45"/>
       <use x="453.90625" xlink:href="#DejaVuSans-49"/>
       <use x="517.529297" xlink:href="#DejaVuSans-53"/>
      </g>
     </g>
    </g>
    <g id="xtick_10">
     <g id="line2d_10">
      <g>
       <use style="stroke:#000000;stroke-width:0.8;" x="292.454757" xlink:href="#mb9297562ca" y="220.230771"/>
      </g>
     </g>
     <g id="text_10">
      <!-- 2021-01-22 -->
      <g transform="translate(268.66964 262.869024)rotate(-30)scale(0.1 -0.1)">
       <use xlink:href="#DejaVuSans-50"/>
       <use x="63.623047" xlink:href="#DejaVuSans-48"/>
       <use x="127.246094" xlink:href="#DejaVuSans-50"/>
       <use x="190.869141" xlink:href="#DejaVuSans-49"/>
       <use x="254.492188" xlink:href="#DejaVuSans-45"/>
       <use x="290.576172" xlink:href="#DejaVuSans-48"/>
       <use x="354.199219" xlink:href="#DejaVuSans-49"/>
       <use x="417.822266" xlink:href="#DejaVuSans-45"/>
       <use x="453.90625" xlink:href="#DejaVuSans-50"/>
       <use x="517.529297" xlink:href="#DejaVuSans-50"/>
      </g>
     </g>
    </g>
    <g id="text_11">
     <!-- Date -->
     <defs>
      <path d="M 19.671875 64.796875 
L 19.671875 8.109375 
L 31.59375 8.109375 
Q 46.6875 8.109375 53.6875 14.9375 
Q 60.6875 21.78125 60.6875 36.53125 
Q 60.6875 51.171875 53.6875 57.984375 
Q 46.6875 64.796875 31.59375 64.796875 
z
M 9.8125 72.90625 
L 30.078125 72.90625 
Q 51.265625 72.90625 61.171875 64.09375 
Q 71.09375 55.28125 71.09375 36.53125 
Q 71.09375 17.671875 61.125 8.828125 
Q 51.171875 0 30.078125 0 
L 9.8125 0 
z
" id="DejaVuSans-68"/>
      <path d="M 34.28125 27.484375 
Q 23.390625 27.484375 19.1875 25 
Q 14.984375 22.515625 14.984375 16.5 
Q 14.984375 11.71875 18.140625 8.90625 
Q 21.296875 6.109375 26.703125 6.109375 
Q 34.1875 6.109375 38.703125 11.40625 
Q 43.21875 16.703125 43.21875 25.484375 
L 43.21875 27.484375 
z
M 52.203125 31.203125 
L 52.203125 0 
L 43.21875 0 
L 43.21875 8.296875 
Q 40.140625 3.328125 35.546875 0.953125 
Q 30.953125 -1.421875 24.3125 -1.421875 
Q 15.921875 -1.421875 10.953125 3.296875 
Q 6 8.015625 6 15.921875 
Q 6 25.140625 12.171875 29.828125 
Q 18.359375 34.515625 30.609375 34.515625 
L 43.21875 34.515625 
L 43.21875 35.40625 
Q 43.21875 41.609375 39.140625 45 
Q 35.0625 48.390625 27.6875 48.390625 
Q 23 48.390625 18.546875 47.265625 
Q 14.109375 46.140625 10.015625 43.890625 
L 10.015625 52.203125 
Q 14.9375 54.109375 19.578125 55.046875 
Q 24.21875 56 28.609375 56 
Q 40.484375 56 46.34375 49.84375 
Q 52.203125 43.703125 52.203125 31.203125 
z
" id="DejaVuSans-97"/>
      <path d="M 18.3125 70.21875 
L 18.3125 54.6875 
L 36.8125 54.6875 
L 36.8125 47.703125 
L 18.3125 47.703125 
L 18.3125 18.015625 
Q 18.3125 11.328125 20.140625 9.421875 
Q 21.96875 7.515625 27.59375 7.515625 
L 36.8125 7.515625 
L 36.8125 0 
L 27.59375 0 
Q 17.1875 0 13.234375 3.875 
Q 9.28125 7.765625 9.28125 18.015625 
L 9.28125 47.703125 
L 2.6875 47.703125 
L 2.6875 54.6875 
L 9.28125 54.6875 
L 9.28125 70.21875 
z
" id="DejaVuSans-116"/>
      <path d="M 56.203125 29.59375 
L 56.203125 25.203125 
L 14.890625 25.203125 
Q 15.484375 15.921875 20.484375 11.0625 
Q 25.484375 6.203125 34.421875 6.203125 
Q 39.59375 6.203125 44.453125 7.46875 
Q 49.3125 8.734375 54.109375 11.28125 
L 54.109375 2.78125 
Q 49.265625 0.734375 44.1875 -0.34375 
Q 39.109375 -1.421875 33.890625 -1.421875 
Q 20.796875 -1.421875 13.15625 6.1875 
Q 5.515625 13.8125 5.515625 26.8125 
Q 5.515625 40.234375 12.765625 48.109375 
Q 20.015625 56 32.328125 56 
Q 43.359375 56 49.78125 48.890625 
Q 56.203125 41.796875 56.203125 29.59375 
z
M 47.21875 32.234375 
Q 47.125 39.59375 43.09375 43.984375 
Q 39.0625 48.390625 32.421875 48.390625 
Q 24.90625 48.390625 20.390625 44.140625 
Q 15.875 39.890625 15.1875 32.171875 
z
" id="DejaVuSans-101"/>
     </defs>
     <g transform="translate(167.504219 276.268523)scale(0.1 -0.1)">
      <use xlink:href="#DejaVuSans-68"/>
      <use x="77.001953" xlink:href="#DejaVuSans-97"/>
      <use x="138.28125" xlink:href="#DejaVuSans-116"/>
      <use x="177.490234" xlink:href="#DejaVuSans-101"/>
     </g>
    </g>
   </g>
   <g id="matplotlib.axis_2">
    <g id="ytick_1">
     <g id="line2d_11">
      <defs>
       <path d="M 0 0 
L -3.5 0 
" id="me57bc7aa20" style="stroke:#000000;stroke-width:0.8;"/>
      </defs>
      <g>
       <use style="stroke:#000000;stroke-width:0.8;" x="43.55" xlink:href="#me57bc7aa20" y="210.806645"/>
      </g>
     </g>
     <g id="text_12">
      <!-- 0 -->
      <g transform="translate(30.1875 214.605864)scale(0.1 -0.1)">
       <use xlink:href="#DejaVuSans-48"/>
      </g>
     </g>
    </g>
    <g id="ytick_2">
     <g id="line2d_12">
      <g>
       <use style="stroke:#000000;stroke-width:0.8;" x="43.55" xlink:href="#me57bc7aa20" y="187.24633"/>
      </g>
     </g>
     <g id="text_13">
      <!-- 5 -->
      <g transform="translate(30.1875 191.045549)scale(0.1 -0.1)">
       <use xlink:href="#DejaVuSans-53"/>
      </g>
     </g>
    </g>
    <g id="ytick_3">
     <g id="line2d_13">
      <g>
       <use style="stroke:#000000;stroke-width:0.8;" x="43.55" xlink:href="#me57bc7aa20" y="163.686016"/>
      </g>
     </g>
     <g id="text_14">
      <!-- 10 -->
      <g transform="translate(23.825 167.485234)scale(0.1 -0.1)">
       <use xlink:href="#DejaVuSans-49"/>
       <use x="63.623047" xlink:href="#DejaVuSans-48"/>
      </g>
     </g>
    </g>
    <g id="ytick_4">
     <g id="line2d_14">
      <g>
       <use style="stroke:#000000;stroke-width:0.8;" x="43.55" xlink:href="#me57bc7aa20" y="140.125701"/>
      </g>
     </g>
     <g id="text_15">
      <!-- 15 -->
      <g transform="translate(23.825 143.924919)scale(0.1 -0.1)">
       <use xlink:href="#DejaVuSans-49"/>
       <use x="63.623047" xlink:href="#DejaVuSans-53"/>
      </g>
     </g>
    </g>
    <g id="ytick_5">
     <g id="line2d_15">
      <g>
       <use style="stroke:#000000;stroke-width:0.8;" x="43.55" xlink:href="#me57bc7aa20" y="116.565386"/>
      </g>
     </g>
     <g id="text_16">
      <!-- 20 -->
      <g transform="translate(23.825 120.364604)scale(0.1 -0.1)">
       <use xlink:href="#DejaVuSans-50"/>
       <use x="63.623047" xlink:href="#DejaVuSans-48"/>
      </g>
     </g>
    </g>
    <g id="ytick_6">
     <g id="line2d_16">
      <g>
       <use style="stroke:#000000;stroke-width:0.8;" x="43.55" xlink:href="#me57bc7aa20" y="93.005071"/>
      </g>
     </g>
     <g id="text_17">
      <!-- 25 -->
      <g transform="translate(23.825 96.80429)scale(0.1 -0.1)">
       <use xlink:href="#DejaVuSans-50"/>
       <use x="63.623047" xlink:href="#DejaVuSans-53"/>
      </g>
     </g>
    </g>
    <g id="ytick_7">
     <g id="line2d_17">
      <g>
       <use style="stroke:#000000;stroke-width:0.8;" x="43.55" xlink:href="#me57bc7aa20" y="69.444756"/>
      </g>
     </g>
     <g id="text_18">
      <!-- 30 -->
      <defs>
       <path d="M 40.578125 39.3125 
Q 47.65625 37.796875 51.625 33 
Q 55.609375 28.21875 55.609375 21.1875 
Q 55.609375 10.40625 48.1875 4.484375 
Q 40.765625 -1.421875 27.09375 -1.421875 
Q 22.515625 -1.421875 17.65625 -0.515625 
Q 12.796875 0.390625 7.625 2.203125 
L 7.625 11.71875 
Q 11.71875 9.328125 16.59375 8.109375 
Q 21.484375 6.890625 26.8125 6.890625 
Q 36.078125 6.890625 40.9375 10.546875 
Q 45.796875 14.203125 45.796875 21.1875 
Q 45.796875 27.640625 41.28125 31.265625 
Q 36.765625 34.90625 28.71875 34.90625 
L 20.21875 34.90625 
L 20.21875 43.015625 
L 29.109375 43.015625 
Q 36.375 43.015625 40.234375 45.921875 
Q 44.09375 48.828125 44.09375 54.296875 
Q 44.09375 59.90625 40.109375 62.90625 
Q 36.140625 65.921875 28.71875 65.921875 
Q 24.65625 65.921875 20.015625 65.03125 
Q 15.375 64.15625 9.8125 62.3125 
L 9.8125 71.09375 
Q 15.4375 72.65625 20.34375 73.4375 
Q 25.25 74.21875 29.59375 74.21875 
Q 40.828125 74.21875 47.359375 69.109375 
Q 53.90625 64.015625 53.90625 55.328125 
Q 53.90625 49.265625 50.4375 45.09375 
Q 46.96875 40.921875 40.578125 39.3125 
z
" id="DejaVuSans-51"/>
      </defs>
      <g transform="translate(23.825 73.243975)scale(0.1 -0.1)">
       <use xlink:href="#DejaVuSans-51"/>
       <use x="63.623047" xlink:href="#DejaVuSans-48"/>
      </g>
     </g>
    </g>
    <g id="ytick_8">
     <g id="line2d_18">
      <g>
       <use style="stroke:#000000;stroke-width:0.8;" x="43.55" xlink:href="#me57bc7aa20" y="45.884441"/>
      </g>
     </g>
     <g id="text_19">
      <!-- 35 -->
      <g transform="translate(23.825 49.68366)scale(0.1 -0.1)">
       <use xlink:href="#DejaVuSans-51"/>
       <use x="63.623047" xlink:href="#DejaVuSans-53"/>
      </g>
     </g>
    </g>
    <g id="ytick_9">
     <g id="line2d_19">
      <g>
       <use style="stroke:#000000;stroke-width:0.8;" x="43.55" xlink:href="#me57bc7aa20" y="22.324126"/>
      </g>
     </g>
     <g id="text_20">
      <!-- 40 -->
      <defs>
       <path d="M 37.796875 64.3125 
L 12.890625 25.390625 
L 37.796875 25.390625 
z
M 35.203125 72.90625 
L 47.609375 72.90625 
L 47.609375 25.390625 
L 58.015625 25.390625 
L 58.015625 17.1875 
L 47.609375 17.1875 
L 47.609375 0 
L 37.796875 0 
L 37.796875 17.1875 
L 4.890625 17.1875 
L 4.890625 26.703125 
z
" id="DejaVuSans-52"/>
      </defs>
      <g transform="translate(23.825 26.123345)scale(0.1 -0.1)">
       <use xlink:href="#DejaVuSans-52"/>
       <use x="63.623047" xlink:href="#DejaVuSans-48"/>
      </g>
     </g>
    </g>
    <g id="text_21">
     <!-- Students Registered -->
     <defs>
      <path d="M 53.515625 70.515625 
L 53.515625 60.890625 
Q 47.90625 63.578125 42.921875 64.890625 
Q 37.9375 66.21875 33.296875 66.21875 
Q 25.25 66.21875 20.875 63.09375 
Q 16.5 59.96875 16.5 54.203125 
Q 16.5 49.359375 19.40625 46.890625 
Q 22.3125 44.4375 30.421875 42.921875 
L 36.375 41.703125 
Q 47.40625 39.59375 52.65625 34.296875 
Q 57.90625 29 57.90625 20.125 
Q 57.90625 9.515625 50.796875 4.046875 
Q 43.703125 -1.421875 29.984375 -1.421875 
Q 24.8125 -1.421875 18.96875 -0.25 
Q 13.140625 0.921875 6.890625 3.21875 
L 6.890625 13.375 
Q 12.890625 10.015625 18.65625 8.296875 
Q 24.421875 6.59375 29.984375 6.59375 
Q 38.421875 6.59375 43.015625 9.90625 
Q 47.609375 13.234375 47.609375 19.390625 
Q 47.609375 24.75 44.3125 27.78125 
Q 41.015625 30.8125 33.5 32.328125 
L 27.484375 33.5 
Q 16.453125 35.6875 11.515625 40.375 
Q 6.59375 45.0625 6.59375 53.421875 
Q 6.59375 63.09375 13.40625 68.65625 
Q 20.21875 74.21875 32.171875 74.21875 
Q 37.3125 74.21875 42.625 73.28125 
Q 47.953125 72.359375 53.515625 70.515625 
z
" id="DejaVuSans-83"/>
      <path d="M 8.5 21.578125 
L 8.5 54.6875 
L 17.484375 54.6875 
L 17.484375 21.921875 
Q 17.484375 14.15625 20.5 10.265625 
Q 23.53125 6.390625 29.59375 6.390625 
Q 36.859375 6.390625 41.078125 11.03125 
Q 45.3125 15.671875 45.3125 23.6875 
L 45.3125 54.6875 
L 54.296875 54.6875 
L 54.296875 0 
L 45.3125 0 
L 45.3125 8.40625 
Q 42.046875 3.421875 37.71875 1 
Q 33.40625 -1.421875 27.6875 -1.421875 
Q 18.265625 -1.421875 13.375 4.4375 
Q 8.5 10.296875 8.5 21.578125 
z
M 31.109375 56 
z
" id="DejaVuSans-117"/>
      <path d="M 45.40625 46.390625 
L 45.40625 75.984375 
L 54.390625 75.984375 
L 54.390625 0 
L 45.40625 0 
L 45.40625 8.203125 
Q 42.578125 3.328125 38.25 0.953125 
Q 33.9375 -1.421875 27.875 -1.421875 
Q 17.96875 -1.421875 11.734375 6.484375 
Q 5.515625 14.40625 5.515625 27.296875 
Q 5.515625 40.1875 11.734375 48.09375 
Q 17.96875 56 27.875 56 
Q 33.9375 56 38.25 53.625 
Q 42.578125 51.265625 45.40625 46.390625 
z
M 14.796875 27.296875 
Q 14.796875 17.390625 18.875 11.75 
Q 22.953125 6.109375 30.078125 6.109375 
Q 37.203125 6.109375 41.296875 11.75 
Q 45.40625 17.390625 45.40625 27.296875 
Q 45.40625 37.203125 41.296875 42.84375 
Q 37.203125 48.484375 30.078125 48.484375 
Q 22.953125 48.484375 18.875 42.84375 
Q 14.796875 37.203125 14.796875 27.296875 
z
" id="DejaVuSans-100"/>
      <path d="M 54.890625 33.015625 
L 54.890625 0 
L 45.90625 0 
L 45.90625 32.71875 
Q 45.90625 40.484375 42.875 44.328125 
Q 39.84375 48.1875 33.796875 48.1875 
Q 26.515625 48.1875 22.3125 43.546875 
Q 18.109375 38.921875 18.109375 30.90625 
L 18.109375 0 
L 9.078125 0 
L 9.078125 54.6875 
L 18.109375 54.6875 
L 18.109375 46.1875 
Q 21.34375 51.125 25.703125 53.5625 
Q 30.078125 56 35.796875 56 
Q 45.21875 56 50.046875 50.171875 
Q 54.890625 44.34375 54.890625 33.015625 
z
" id="DejaVuSans-110"/>
      <path d="M 44.28125 53.078125 
L 44.28125 44.578125 
Q 40.484375 46.53125 36.375 47.5 
Q 32.28125 48.484375 27.875 48.484375 
Q 21.1875 48.484375 17.84375 46.4375 
Q 14.5 44.390625 14.5 40.28125 
Q 14.5 37.15625 16.890625 35.375 
Q 19.28125 33.59375 26.515625 31.984375 
L 29.59375 31.296875 
Q 39.15625 29.25 43.1875 25.515625 
Q 47.21875 21.78125 47.21875 15.09375 
Q 47.21875 7.46875 41.1875 3.015625 
Q 35.15625 -1.421875 24.609375 -1.421875 
Q 20.21875 -1.421875 15.453125 -0.5625 
Q 10.6875 0.296875 5.421875 2 
L 5.421875 11.28125 
Q 10.40625 8.6875 15.234375 7.390625 
Q 20.0625 6.109375 24.8125 6.109375 
Q 31.15625 6.109375 34.5625 8.28125 
Q 37.984375 10.453125 37.984375 14.40625 
Q 37.984375 18.0625 35.515625 20.015625 
Q 33.0625 21.96875 24.703125 23.78125 
L 21.578125 24.515625 
Q 13.234375 26.265625 9.515625 29.90625 
Q 5.8125 33.546875 5.8125 39.890625 
Q 5.8125 47.609375 11.28125 51.796875 
Q 16.75 56 26.8125 56 
Q 31.78125 56 36.171875 55.265625 
Q 40.578125 54.546875 44.28125 53.078125 
z
" id="DejaVuSans-115"/>
      <path id="DejaVuSans-32"/>
      <path d="M 44.390625 34.1875 
Q 47.5625 33.109375 50.5625 29.59375 
Q 53.5625 26.078125 56.59375 19.921875 
L 66.609375 0 
L 56 0 
L 46.6875 18.703125 
Q 43.0625 26.03125 39.671875 28.421875 
Q 36.28125 30.8125 30.421875 30.8125 
L 19.671875 30.8125 
L 19.671875 0 
L 9.8125 0 
L 9.8125 72.90625 
L 32.078125 72.90625 
Q 44.578125 72.90625 50.734375 67.671875 
Q 56.890625 62.453125 56.890625 51.90625 
Q 56.890625 45.015625 53.6875 40.46875 
Q 50.484375 35.9375 44.390625 34.1875 
z
M 19.671875 64.796875 
L 19.671875 38.921875 
L 32.078125 38.921875 
Q 39.203125 38.921875 42.84375 42.21875 
Q 46.484375 45.515625 46.484375 51.90625 
Q 46.484375 58.296875 42.84375 61.546875 
Q 39.203125 64.796875 32.078125 64.796875 
z
" id="DejaVuSans-82"/>
      <path d="M 45.40625 27.984375 
Q 45.40625 37.75 41.375 43.109375 
Q 37.359375 48.484375 30.078125 48.484375 
Q 22.859375 48.484375 18.828125 43.109375 
Q 14.796875 37.75 14.796875 27.984375 
Q 14.796875 18.265625 18.828125 12.890625 
Q 22.859375 7.515625 30.078125 7.515625 
Q 37.359375 7.515625 41.375 12.890625 
Q 45.40625 18.265625 45.40625 27.984375 
z
M 54.390625 6.78125 
Q 54.390625 -7.171875 48.1875 -13.984375 
Q 42 -20.796875 29.203125 -20.796875 
Q 24.46875 -20.796875 20.265625 -20.09375 
Q 16.0625 -19.390625 12.109375 -17.921875 
L 12.109375 -9.1875 
Q 16.0625 -11.328125 19.921875 -12.34375 
Q 23.78125 -13.375 27.78125 -13.375 
Q 36.625 -13.375 41.015625 -8.765625 
Q 45.40625 -4.15625 45.40625 5.171875 
L 45.40625 9.625 
Q 42.625 4.78125 38.28125 2.390625 
Q 33.9375 0 27.875 0 
Q 17.828125 0 11.671875 7.65625 
Q 5.515625 15.328125 5.515625 27.984375 
Q 5.515625 40.671875 11.671875 48.328125 
Q 17.828125 56 27.875 56 
Q 33.9375 56 38.28125 53.609375 
Q 42.625 51.21875 45.40625 46.390625 
L 45.40625 54.6875 
L 54.390625 54.6875 
z
" id="DejaVuSans-103"/>
      <path d="M 9.421875 54.6875 
L 18.40625 54.6875 
L 18.40625 0 
L 9.421875 0 
z
M 9.421875 75.984375 
L 18.40625 75.984375 
L 18.40625 64.59375 
L 9.421875 64.59375 
z
" id="DejaVuSans-105"/>
      <path d="M 41.109375 46.296875 
Q 39.59375 47.171875 37.8125 47.578125 
Q 36.03125 48 33.890625 48 
Q 26.265625 48 22.1875 43.046875 
Q 18.109375 38.09375 18.109375 28.8125 
L 18.109375 0 
L 9.078125 0 
L 9.078125 54.6875 
L 18.109375 54.6875 
L 18.109375 46.1875 
Q 20.953125 51.171875 25.484375 53.578125 
Q 30.03125 56 36.53125 56 
Q 37.453125 56 38.578125 55.875 
Q 39.703125 55.765625 41.0625 55.515625 
z
" id="DejaVuSans-114"/>
     </defs>
     <g transform="translate(17.745313 167.498979)rotate(-90)scale(0.1 -0.1)">
      <use xlink:href="#DejaVuSans-83"/>
      <use x="63.476562" xlink:href="#DejaVuSans-116"/>
      <use x="102.685547" xlink:href="#DejaVuSans-117"/>
      <use x="166.064453" xlink:href="#DejaVuSans-100"/>
      <use x="229.541016" xlink:href="#DejaVuSans-101"/>
      <use x="291.064453" xlink:href="#DejaVuSans-110"/>
      <use x="354.443359" xlink:href="#DejaVuSans-116"/>
      <use x="393.652344" xlink:href="#DejaVuSans-115"/>
      <use x="445.751953" xlink:href="#DejaVuSans-32"/>
      <use x="477.539062" xlink:href="#DejaVuSans-82"/>
      <use x="546.958984" xlink:href="#DejaVuSans-101"/>
      <use x="608.482422" xlink:href="#DejaVuSans-103"/>
      <use x="671.958984" xlink:href="#DejaVuSans-105"/>
      <use x="699.742188" xlink:href="#DejaVuSans-115"/>
      <use x="751.841797" xlink:href="#DejaVuSans-116"/>
      <use x="791.050781" xlink:href="#DejaVuSans-101"/>
      <use x="852.574219" xlink:href="#DejaVuSans-114"/>
      <use x="893.65625" xlink:href="#DejaVuSans-101"/>
      <use x="955.179688" xlink:href="#DejaVuSans-100"/>
     </g>
    </g>
   </g>
   <g id="line2d_20">
    <path clip-path="url(#p8245ced7dc)" d="M 55.905 210.806645 
L 56.10261 210.806645 
L 56.10261 201.382519 
L 56.213505 201.382519 
L 56.982477 201.382519 
L 56.982477 196.670456 
L 57.073093 196.670456 
L 61.296174 196.670456 
L 61.296174 191.958393 
L 61.389948 191.958393 
L 64.859709 191.958393 
L 64.859709 177.822204 
L 64.953484 177.822204 
L 65.047243 177.822204 
L 65.047243 173.110142 
L 65.141035 173.110142 
L 65.234795 173.110142 
L 65.234795 154.26189 
L 65.328582 154.26189 
L 65.422347 154.26189 
L 65.422347 149.549827 
L 65.516121 149.549827 
L 65.609902 149.549827 
L 65.609902 140.125701 
L 65.703666 140.125701 
L 65.797483 140.125701 
L 65.797483 125.989512 
L 65.891255 125.989512 
L 69.173415 125.989512 
L 69.173415 121.277449 
L 69.267188 121.277449 
L 69.360947 121.277449 
L 69.360947 116.565386 
L 69.454721 116.565386 
L 69.92362 116.565386 
L 69.92362 111.853323 
L 70.017404 111.853323 
L 70.298729 111.853323 
L 70.298729 97.717134 
L 70.392492 97.717134 
L 70.486277 97.717134 
L 70.486277 93.005071 
L 70.580075 93.005071 
L 74.237328 93.005071 
L 74.237328 88.293008 
L 74.331124 88.293008 
L 74.424875 88.293008 
L 74.424875 83.580945 
L 74.518678 83.580945 
L 74.800007 83.580945 
L 74.800007 78.868882 
L 74.893774 78.868882 
L 75.362654 78.868882 
L 75.362654 74.156819 
L 75.456421 74.156819 
L 78.55108 74.156819 
L 78.55108 69.444756 
L 78.644822 69.444756 
L 87.366064 69.444756 
L 87.366064 45.884441 
L 87.459794 45.884441 
L 87.553599 45.884441 
L 87.553599 36.460315 
L 87.647346 36.460315 
L 87.741163 36.460315 
L 87.741163 31.748252 
L 87.834919 31.748252 
L 150.946461 31.748252 
L 150.946461 36.460315 
L 151.040255 36.460315 
L 151.134007 36.460315 
L 151.134007 31.748252 
L 151.227785 31.748252 
L 161.261862 31.748252 
L 161.261862 36.460315 
L 161.355671 36.460315 
L 161.449428 36.460315 
L 161.449428 31.748252 
L 161.5432 31.748252 
L 254.100582 31.748252 
L 254.100582 22.324126 
L 254.194322 22.324126 
L 303.005 22.324126 
L 303.005 22.324126 
" style="fill:none;stroke:#1b9e77;stroke-linecap:square;stroke-width:1.5;"/>
   </g>
   <g id="line2d_21">
    <path clip-path="url(#p8245ced7dc)" d="M 95.055728 196.670456 
L 95.99345 196.670456 
L 95.99345 182.534267 
L 96.087383 182.534267 
L 96.181008 182.534267 
L 96.181008 177.822204 
L 96.274823 177.822204 
L 96.368557 177.822204 
L 96.368557 158.973953 
L 96.462371 158.973953 
L 96.74368 158.973953 
L 96.74368 144.837764 
L 96.837458 144.837764 
L 97.118778 144.837764 
L 97.118778 116.565386 
L 97.212573 116.565386 
L 97.493881 116.565386 
L 97.493881 107.14126 
L 97.587689 107.14126 
L 97.681459 107.14126 
L 97.681459 102.429197 
L 97.775255 102.429197 
L 97.868995 102.429197 
L 97.868995 97.717134 
L 97.962804 97.717134 
L 98.244132 97.717134 
L 98.244132 93.005071 
L 98.337864 93.005071 
L 100.869831 93.005071 
L 100.869831 74.156819 
L 100.96364 74.156819 
L 101.24495 74.156819 
L 101.24495 69.444756 
L 101.338711 69.444756 
L 101.620084 69.444756 
L 101.620084 60.02063 
L 101.713841 60.02063 
L 101.807637 60.02063 
L 101.807637 55.308567 
L 101.90139 55.308567 
L 102.182749 55.308567 
L 102.182749 50.596504 
L 102.276493 50.596504 
L 106.121343 50.596504 
L 106.121343 45.884441 
L 106.215101 45.884441 
L 106.308864 45.884441 
L 106.308864 41.172378 
L 106.402683 41.172378 
L 106.496427 41.172378 
L 106.496427 36.460315 
L 106.590225 36.460315 
L 107.059111 36.460315 
L 107.059111 31.748252 
L 107.15289 31.748252 
L 119.062467 31.748252 
L 119.062467 22.324126 
L 119.156267 22.324126 
L 142.131477 22.324126 
L 142.131477 27.036189 
L 142.225265 27.036189 
L 143.256793 27.036189 
L 143.256793 22.324126 
L 143.350574 22.324126 
L 159.573917 22.324126 
L 159.573917 27.036189 
L 159.667697 27.036189 
L 161.074332 27.036189 
L 161.074332 22.324126 
L 161.16812 22.324126 
L 282.421074 22.324126 
L 282.421074 27.036189 
L 282.51484 27.036189 
L 287.672544 27.036189 
L 287.672544 22.324126 
L 287.766309 22.324126 
L 303.005 22.324126 
L 303.005 22.324126 
" style="fill:none;stroke:#d95f02;stroke-linecap:square;stroke-width:1.5;"/>
   </g>
   <g id="line2d_22">
    <path clip-path="url(#p8245ced7dc)" d="M 55.905 182.534267 
L 56.10261 182.534267 
L 56.10261 177.822204 
L 56.213505 177.822204 
L 57.073093 177.822204 
L 57.073093 173.110142 
L 60.073974 173.110142 
L 60.073974 168.398079 
L 60.358436 168.398079 
L 60.358436 163.686016 
L 60.452223 163.686016 
L 60.545978 163.686016 
L 60.545978 158.973953 
L 60.639771 158.973953 
L 61.108661 158.973953 
L 61.108661 144.837764 
L 61.202457 144.837764 
L 61.296174 144.837764 
L 61.296174 140.125701 
L 61.389948 140.125701 
L 65.047243 140.125701 
L 65.047243 130.701575 
L 65.141035 130.701575 
L 65.234795 130.701575 
L 65.234795 125.989512 
L 65.328582 125.989512 
L 65.422347 125.989512 
L 65.422347 130.701575 
L 65.516121 130.701575 
L 65.797483 130.701575 
L 65.797483 125.989512 
L 65.891255 125.989512 
L 65.984998 125.989512 
L 65.984998 116.565386 
L 66.078769 116.565386 
L 66.922785 116.565386 
L 66.922785 107.14126 
L 67.016572 107.14126 
L 68.985866 107.14126 
L 68.985866 102.429197 
L 69.079633 102.429197 
L 69.173415 102.429197 
L 69.173415 83.580945 
L 69.267188 83.580945 
L 69.360947 83.580945 
L 69.360947 74.156819 
L 69.454721 74.156819 
L 69.736073 74.156819 
L 69.736073 69.444756 
L 69.829851 69.444756 
L 69.92362 69.444756 
L 69.92362 64.732693 
L 70.017404 64.732693 
L 70.111178 64.732693 
L 70.111178 60.02063 
L 70.204965 60.02063 
L 70.298729 60.02063 
L 70.298729 45.884441 
L 70.392492 45.884441 
L 70.486277 45.884441 
L 70.486277 41.172378 
L 70.580075 41.172378 
L 70.673841 41.172378 
L 70.673841 36.460315 
L 70.767601 36.460315 
L 73.862215 36.460315 
L 73.862215 27.036189 
L 73.956006 27.036189 
L 74.049808 27.036189 
L 74.049808 22.324126 
L 74.143575 22.324126 
L 96.181008 22.324126 
L 96.181008 27.036189 
L 96.274823 27.036189 
L 96.368557 27.036189 
L 96.368557 22.324126 
L 96.462371 22.324126 
L 282.233491 22.324126 
L 282.233491 27.036189 
L 282.327275 27.036189 
L 282.421074 27.036189 
L 282.421074 22.324126 
L 282.51484 22.324126 
L 303.005 22.324126 
L 303.005 22.324126 
" style="fill:none;stroke:#7570b3;stroke-linecap:square;stroke-width:1.5;"/>
   </g>
   <g id="line2d_23">
    <path clip-path="url(#p8245ced7dc)" d="M 55.905 201.382519 
L 60.921118 201.382519 
L 60.921118 196.670456 
L 61.014866 196.670456 
L 64.672164 196.670456 
L 64.672164 191.958393 
L 64.765905 191.958393 
L 64.859709 191.958393 
L 64.859709 187.24633 
L 64.953484 187.24633 
L 65.047243 187.24633 
L 65.047243 177.822204 
L 65.141035 177.822204 
L 65.234795 177.822204 
L 65.234795 173.110142 
L 65.328582 173.110142 
L 65.422347 173.110142 
L 65.422347 168.398079 
L 65.516121 168.398079 
L 65.609902 168.398079 
L 65.609902 163.686016 
L 65.703666 163.686016 
L 65.984998 163.686016 
L 65.984998 158.973953 
L 66.078769 158.973953 
L 69.173415 158.973953 
L 69.173415 149.549827 
L 69.267188 149.549827 
L 69.360947 149.549827 
L 69.360947 144.837764 
L 69.454721 144.837764 
L 70.111178 144.837764 
L 70.111178 140.125701 
L 70.204965 140.125701 
L 70.298729 140.125701 
L 70.298729 130.701575 
L 70.392492 130.701575 
L 87.366064 130.701575 
L 87.366064 125.989512 
L 87.459794 125.989512 
L 87.553599 125.989512 
L 87.553599 121.277449 
L 87.647346 121.277449 
L 87.741163 121.277449 
L 87.741163 116.565386 
L 87.834919 116.565386 
L 87.928696 116.565386 
L 87.928696 111.853323 
L 88.022463 111.853323 
L 88.116268 111.853323 
L 88.116268 102.429197 
L 88.210023 102.429197 
L 88.303824 102.429197 
L 88.303824 97.717134 
L 88.397575 97.717134 
L 91.679751 97.717134 
L 91.726642 83.580945 
L 91.773526 83.580945 
L 92.054866 83.580945 
L 92.054866 74.156819 
L 92.148638 74.156819 
L 92.617529 74.156819 
L 92.617529 69.444756 
L 92.711308 69.444756 
L 92.805084 69.444756 
L 92.805084 60.02063 
L 92.898866 60.02063 
L 92.992634 60.02063 
L 92.992634 36.460315 
L 93.086407 36.460315 
L 93.180159 36.460315 
L 93.180159 22.324126 
L 93.274021 22.324126 
L 95.99345 22.324126 
L 95.99345 27.036189 
L 96.087383 27.036189 
L 96.368557 27.036189 
L 96.368557 22.324126 
L 96.462371 22.324126 
L 141.756358 22.324126 
L 141.756358 27.036189 
L 141.850167 27.036189 
L 141.94395 27.036189 
L 141.94395 22.324126 
L 142.037688 22.324126 
L 150.196287 22.324126 
L 150.196287 27.036189 
L 150.290028 27.036189 
L 150.571342 27.036189 
L 150.571342 22.324126 
L 150.665165 22.324126 
L 150.946461 22.324126 
L 150.946461 27.036189 
L 151.040255 27.036189 
L 151.696712 27.036189 
L 151.696712 22.324126 
L 151.790464 22.324126 
L 303.005 22.324126 
L 303.005 22.324126 
" style="fill:none;stroke:#e7298a;stroke-linecap:square;stroke-width:1.5;"/>
   </g>
   <g id="line2d_24">
    <path clip-path="url(#p8245ced7dc)" d="M 55.905 201.382519 
L 61.296174 201.382519 
L 61.296174 196.670456 
L 61.389948 196.670456 
L 64.859709 196.670456 
L 64.859709 191.958393 
L 64.953484 191.958393 
L 65.609902 191.958393 
L 65.609902 187.24633 
L 65.703666 187.24633 
L 69.54849 187.24633 
L 69.54849 177.822204 
L 69.64229 177.822204 
L 69.92362 177.822204 
L 69.92362 173.110142 
L 70.017404 173.110142 
L 70.298729 173.110142 
L 70.298729 168.398079 
L 70.392492 168.398079 
L 70.486277 168.398079 
L 70.486277 163.686016 
L 70.580075 163.686016 
L 74.800007 163.686016 
L 74.800007 158.973953 
L 74.893774 158.973953 
L 79.11372 158.973953 
L 79.11372 154.26189 
L 79.207509 154.26189 
L 87.366064 154.26189 
L 87.366064 144.837764 
L 87.459794 144.837764 
L 87.741163 144.837764 
L 87.741163 140.125701 
L 87.834919 140.125701 
L 88.678925 140.125701 
L 88.678925 135.413638 
L 88.772687 135.413638 
L 91.679751 135.413638 
L 91.679751 130.701575 
L 91.773526 130.701575 
L 92.617529 130.701575 
L 92.617529 125.989512 
L 92.711308 125.989512 
L 92.805084 125.989512 
L 92.805084 121.277449 
L 92.898866 121.277449 
L 92.992634 121.277449 
L 93.039516 107.14126 
L 93.086407 107.14126 
L 96.181008 107.14126 
L 96.181008 102.429197 
L 96.274823 102.429197 
L 96.368557 102.429197 
L 96.368557 93.005071 
L 96.462371 93.005071 
L 96.556108 93.005071 
L 96.556108 88.293008 
L 96.649894 88.293008 
L 96.74368 88.293008 
L 96.790565 74.156819 
L 96.837458 74.156819 
L 97.118778 74.156819 
L 97.118778 60.02063 
L 97.212573 60.02063 
L 97.306355 60.02063 
L 97.306355 50.596504 
L 97.400144 50.596504 
L 97.493881 50.596504 
L 97.493881 31.748252 
L 97.587689 31.748252 
L 97.681459 31.748252 
L 97.681459 27.036189 
L 97.775255 27.036189 
L 98.619231 27.036189 
L 98.619231 22.324126 
L 98.713012 22.324126 
L 150.196287 22.324126 
L 150.196287 27.036189 
L 150.290028 27.036189 
L 150.383838 27.036189 
L 150.383838 22.324126 
L 150.47761 22.324126 
L 150.758924 22.324126 
L 150.758924 27.036189 
L 150.852722 27.036189 
L 151.321561 27.036189 
L 151.321561 31.748252 
L 151.415374 31.748252 
L 151.696712 31.748252 
L 151.696712 36.460315 
L 151.790464 36.460315 
L 156.760605 36.460315 
L 156.760605 41.172378 
L 156.854378 41.172378 
L 167.826245 41.172378 
L 167.826245 36.460315 
L 167.920025 36.460315 
L 188.644589 36.460315 
L 188.644589 41.172378 
L 188.738392 41.172378 
L 195.959171 41.172378 
L 195.959171 36.460315 
L 196.052941 36.460315 
L 218.840652 36.460315 
L 218.840652 31.748252 
L 218.934422 31.748252 
L 221.841449 31.748252 
L 221.841449 27.036189 
L 221.93523 27.036189 
L 227.092954 27.036189 
L 227.092954 22.324126 
L 254.100582 22.324126 
L 254.100582 31.748252 
L 254.194322 31.748252 
L 254.663194 31.748252 
L 254.663194 36.460315 
L 254.757016 36.460315 
L 287.297425 36.460315 
L 287.297425 41.172378 
L 287.391235 41.172378 
L 294.049337 41.172378 
L 294.049337 36.460315 
L 294.143101 36.460315 
L 298.550617 36.460315 
L 298.550617 31.748252 
L 298.644366 31.748252 
L 299.863442 31.748252 
L 299.863442 27.036189 
L 299.957266 27.036189 
L 303.005 27.036189 
L 303.005 27.036189 
" style="fill:none;stroke:#66a61e;stroke-linecap:square;stroke-width:1.5;"/>
   </g>
   <g id="line2d_25">
    <path clip-path="url(#p8245ced7dc)" d="M 55.905 191.958393 
L 64.859709 191.958393 
L 64.859709 187.24633 
L 64.953484 187.24633 
L 65.797483 187.24633 
L 65.797483 182.534267 
L 65.891255 182.534267 
L 66.172576 182.534267 
L 66.172576 177.822204 
L 66.266364 177.822204 
L 69.736073 177.822204 
L 69.736073 173.110142 
L 69.829851 173.110142 
L 70.111178 173.110142 
L 70.111178 168.398079 
L 70.204965 168.398079 
L 73.862215 168.398079 
L 73.862215 163.686016 
L 73.956006 163.686016 
L 87.178485 163.686016 
L 87.178485 154.26189 
L 87.272242 154.26189 
L 87.366064 154.26189 
L 87.366064 144.837764 
L 87.459794 144.837764 
L 87.928696 144.837764 
L 87.928696 140.125701 
L 88.022463 140.125701 
L 88.678925 140.125701 
L 88.678925 135.413638 
L 88.772687 135.413638 
L 92.054866 135.413638 
L 92.054866 130.701575 
L 92.148638 130.701575 
L 92.429939 130.701575 
L 92.429939 121.277449 
L 92.523764 121.277449 
L 92.805084 121.277449 
L 92.805084 116.565386 
L 92.898866 116.565386 
L 93.930403 116.565386 
L 93.930403 111.853323 
L 94.024168 111.853323 
L 95.99345 111.853323 
L 95.99345 107.14126 
L 96.087383 107.14126 
L 96.368557 107.14126 
L 96.368557 102.429197 
L 96.462371 102.429197 
L 96.556108 102.429197 
L 96.556108 93.005071 
L 96.649894 93.005071 
L 96.931243 93.005071 
L 96.931243 88.293008 
L 97.025043 88.293008 
L 97.118778 88.293008 
L 97.165684 74.156819 
L 97.212573 74.156819 
L 97.306355 74.156819 
L 97.306355 64.732693 
L 97.400144 64.732693 
L 98.056537 64.732693 
L 98.056537 69.444756 
L 98.150356 69.444756 
L 100.869831 69.444756 
L 100.869831 60.02063 
L 100.96364 60.02063 
L 101.05743 60.02063 
L 101.05743 55.308567 
L 101.151205 55.308567 
L 101.432509 55.308567 
L 101.432509 50.596504 
L 101.526288 50.596504 
L 101.620084 50.596504 
L 101.620084 41.172378 
L 101.713841 41.172378 
L 101.807637 41.172378 
L 101.807637 36.460315 
L 101.90139 36.460315 
L 102.182749 36.460315 
L 102.182749 31.748252 
L 102.276493 31.748252 
L 256.163645 31.748252 
L 256.163645 36.460315 
L 256.2574 36.460315 
L 260.477339 36.460315 
L 260.477339 31.748252 
L 260.571141 31.748252 
L 303.005 31.748252 
L 303.005 31.748252 
" style="fill:none;stroke:#e6ab02;stroke-linecap:square;stroke-width:1.5;"/>
   </g>
   <g id="line2d_26">
    <path clip-path="url(#p8245ced7dc)" d="M 55.905 196.670456 
L 60.921118 196.670456 
L 60.921118 191.958393 
L 61.014866 191.958393 
L 64.672164 191.958393 
L 64.672164 187.24633 
L 64.765905 187.24633 
L 64.859709 187.24633 
L 64.859709 182.534267 
L 64.953484 182.534267 
L 65.234795 182.534267 
L 65.234795 177.822204 
L 65.328582 177.822204 
L 65.422347 177.822204 
L 65.422347 173.110142 
L 65.516121 173.110142 
L 65.609902 173.110142 
L 65.609902 163.686016 
L 65.703666 163.686016 
L 65.797483 163.686016 
L 65.797483 158.973953 
L 65.891255 158.973953 
L 65.984998 158.973953 
L 65.984998 154.26189 
L 66.078769 154.26189 
L 68.985866 154.26189 
L 68.985866 149.549827 
L 69.079633 149.549827 
L 69.173415 149.549827 
L 69.173415 140.125701 
L 69.267188 140.125701 
L 69.54849 140.125701 
L 69.54849 135.413638 
L 69.64229 135.413638 
L 69.736073 135.413638 
L 69.736073 125.989512 
L 69.829851 125.989512 
L 70.111178 125.989512 
L 70.111178 121.277449 
L 70.204965 121.277449 
L 70.486277 121.277449 
L 70.486277 116.565386 
L 70.580075 116.565386 
L 70.673841 116.565386 
L 70.673841 111.853323 
L 70.767601 111.853323 
L 74.049808 111.853323 
L 74.049808 107.14126 
L 74.143575 107.14126 
L 74.800007 107.14126 
L 74.800007 102.429197 
L 74.893774 102.429197 
L 79.676351 102.429197 
L 79.676351 97.717134 
L 79.770147 97.717134 
L 87.178485 97.717134 
L 87.178485 93.005071 
L 87.272242 93.005071 
L 87.741163 93.005071 
L 87.741163 78.868882 
L 87.834919 78.868882 
L 87.928696 78.868882 
L 87.928696 69.444756 
L 88.022463 69.444756 
L 88.116268 69.444756 
L 88.116268 60.02063 
L 88.210023 60.02063 
L 88.678925 60.02063 
L 88.678925 55.308567 
L 88.772687 55.308567 
L 91.304653 55.308567 
L 91.304653 50.596504 
L 91.398424 50.596504 
L 91.8673 50.596504 
L 91.8673 45.884441 
L 91.961105 45.884441 
L 92.054866 45.884441 
L 92.054866 41.172378 
L 92.148638 41.172378 
L 92.242406 41.172378 
L 92.242406 36.460315 
L 92.336177 36.460315 
L 92.805084 36.460315 
L 92.805084 31.748252 
L 92.898866 31.748252 
L 303.005 31.748252 
L 303.005 31.748252 
" style="fill:none;stroke:#a6761d;stroke-linecap:square;stroke-width:1.5;"/>
   </g>
   <g id="line2d_27">
    <path clip-path="url(#p8245ced7dc)" d="M 55.905 201.382519 
L 65.047243 201.382519 
L 65.047243 196.670456 
L 65.141035 196.670456 
L 65.609902 196.670456 
L 65.609902 191.958393 
L 65.703666 191.958393 
L 69.736073 191.958393 
L 69.736073 187.24633 
L 69.829851 187.24633 
L 70.111178 187.24633 
L 70.111178 191.958393 
L 70.204965 191.958393 
L 70.298729 191.958393 
L 70.298729 182.534267 
L 70.392492 182.534267 
L 87.366064 182.534267 
L 87.366064 177.822204 
L 87.459794 177.822204 
L 87.741163 177.822204 
L 87.741163 173.110142 
L 87.834919 173.110142 
L 88.116268 173.110142 
L 88.116268 168.398079 
L 88.210023 168.398079 
L 88.303824 168.398079 
L 88.303824 163.686016 
L 88.397575 163.686016 
L 89.241558 163.686016 
L 89.241558 158.973953 
L 89.335371 158.973953 
L 92.242406 158.973953 
L 92.242406 154.26189 
L 92.336177 154.26189 
L 92.805084 154.26189 
L 92.805084 149.549827 
L 92.898866 149.549827 
L 92.992634 149.549827 
L 92.992634 144.837764 
L 93.086407 144.837764 
L 96.181008 144.837764 
L 96.181008 135.413638 
L 96.274823 135.413638 
L 96.368557 135.413638 
L 96.368557 130.701575 
L 96.462371 130.701575 
L 96.556108 130.701575 
L 96.603 116.565386 
L 96.649894 116.565386 
L 97.306355 116.565386 
L 97.306355 111.853323 
L 97.400144 111.853323 
L 97.493881 111.853323 
L 97.493881 107.14126 
L 97.587689 107.14126 
L 97.681459 107.14126 
L 97.681459 111.853323 
L 97.775255 111.853323 
L 97.868995 111.853323 
L 97.868995 107.14126 
L 97.962804 107.14126 
L 98.056537 107.14126 
L 98.056537 102.429197 
L 98.150356 102.429197 
L 100.307202 102.429197 
L 100.307202 107.14126 
L 100.400951 107.14126 
L 100.869831 107.14126 
L 100.869831 93.005071 
L 100.96364 93.005071 
L 101.24495 93.005071 
L 101.24495 88.293008 
L 101.338711 88.293008 
L 101.620084 88.293008 
L 101.620084 69.444756 
L 101.713841 69.444756 
L 101.807637 69.444756 
L 101.807637 64.732693 
L 101.90139 64.732693 
L 105.933765 64.732693 
L 105.933765 60.02063 
L 106.027535 60.02063 
L 121.125587 60.02063 
L 121.125587 55.308567 
L 121.219363 55.308567 
L 124.126425 55.308567 
L 124.126425 50.596504 
L 124.220176 50.596504 
L 124.313956 50.596504 
L 124.313956 55.308567 
L 124.407754 55.308567 
L 124.689063 55.308567 
L 124.689063 50.596504 
L 124.782862 50.596504 
L 129.190363 50.596504 
L 129.190363 45.884441 
L 129.284127 45.884441 
L 136.879986 45.884441 
L 136.879986 50.596504 
L 136.973771 50.596504 
L 142.131477 50.596504 
L 142.131477 45.884441 
L 142.225265 45.884441 
L 150.196287 45.884441 
L 150.196287 50.596504 
L 150.290028 50.596504 
L 150.571342 50.596504 
L 150.571342 55.308567 
L 150.665165 55.308567 
L 151.134007 55.308567 
L 151.134007 60.02063 
L 151.227785 60.02063 
L 156.385497 60.02063 
L 156.385497 64.732693 
L 156.479311 64.732693 
L 164.450259 64.732693 
L 164.450259 69.444756 
L 164.544062 69.444756 
L 183.205591 69.444756 
L 183.205591 74.156819 
L 183.299348 74.156819 
L 268.354584 74.156819 
L 268.354584 69.444756 
L 268.448399 69.444756 
L 273.41853 69.444756 
L 273.41853 74.156819 
L 273.512331 74.156819 
L 303.005 74.156819 
L 303.005 74.156819 
" style="fill:none;stroke:#666666;stroke-linecap:square;stroke-width:1.5;"/>
   </g>
   <g id="line2d_28">
    <path clip-path="url(#p8245ced7dc)" d="M 55.905 206.094582 
L 65.047243 206.094582 
L 65.047243 201.382519 
L 65.141035 201.382519 
L 70.111178 201.382519 
L 70.111178 191.958393 
L 70.204965 191.958393 
L 87.178485 191.958393 
L 87.178485 187.24633 
L 87.272242 187.24633 
L 87.553599 187.24633 
L 87.553599 182.534267 
L 87.647346 182.534267 
L 88.116268 182.534267 
L 88.116268 177.822204 
L 88.210023 177.822204 
L 91.679751 177.822204 
L 91.679751 173.110142 
L 91.773526 173.110142 
L 91.8673 173.110142 
L 91.8673 163.686016 
L 91.961105 163.686016 
L 92.054866 163.686016 
L 92.054866 158.973953 
L 92.148638 158.973953 
L 92.429939 158.973953 
L 92.429939 154.26189 
L 92.523764 154.26189 
L 92.617529 154.26189 
L 92.617529 144.837764 
L 92.711308 144.837764 
L 92.805084 144.837764 
L 92.805084 135.413638 
L 92.898866 135.413638 
L 93.555309 135.413638 
L 93.555309 130.701575 
L 93.649074 130.701575 
L 93.930403 130.701575 
L 93.930403 125.989512 
L 94.024168 125.989512 
L 94.117921 125.989512 
L 94.117921 130.701575 
L 94.211746 130.701575 
L 95.805917 130.701575 
L 95.805917 135.413638 
L 95.899717 135.413638 
L 95.99345 135.413638 
L 95.99345 140.125701 
L 96.087383 140.125701 
L 96.181008 140.125701 
L 96.181008 135.413638 
L 96.274823 135.413638 
L 96.368557 135.413638 
L 96.368557 140.125701 
L 96.462371 140.125701 
L 96.556108 140.125701 
L 96.556108 135.413638 
L 96.649894 135.413638 
L 96.74368 135.413638 
L 96.74368 130.701575 
L 96.837458 130.701575 
L 97.118778 130.701575 
L 97.118778 135.413638 
L 97.212573 135.413638 
L 101.432509 135.413638 
L 101.432509 130.701575 
L 101.526288 130.701575 
L 101.807637 130.701575 
L 101.807637 125.989512 
L 101.90139 125.989512 
L 106.121343 125.989512 
L 106.121343 121.277449 
L 106.215101 121.277449 
L 107.434198 121.277449 
L 107.434198 116.565386 
L 107.527958 116.565386 
L 119.437588 116.565386 
L 119.437588 111.853323 
L 119.53138 111.853323 
L 119.625138 111.853323 
L 119.625138 107.14126 
L 119.718921 107.14126 
L 120.375331 107.14126 
L 120.375331 102.429197 
L 120.469138 102.429197 
L 129.190363 102.429197 
L 129.190363 97.717134 
L 129.284127 97.717134 
L 129.752973 97.717134 
L 129.752973 93.005071 
L 129.846787 93.005071 
L 139.130649 93.005071 
L 139.130649 88.293008 
L 139.2244 88.293008 
L 143.256793 88.293008 
L 143.256793 93.005071 
L 143.350574 93.005071 
L 150.571342 93.005071 
L 150.571342 97.717134 
L 150.665165 97.717134 
L 182.830476 97.717134 
L 182.830476 93.005071 
L 182.924267 93.005071 
L 214.526934 93.005071 
L 214.526934 88.293008 
L 214.62069 88.293008 
L 218.090426 88.293008 
L 218.090426 83.580945 
L 218.184173 83.580945 
L 231.031556 83.580945 
L 231.031556 78.868882 
L 231.125346 78.868882 
L 258.414312 78.868882 
L 258.414312 83.580945 
L 258.508086 83.580945 
L 258.601818 83.580945 
L 258.601818 78.868882 
L 258.695593 78.868882 
L 296.299964 78.868882 
L 296.299964 83.580945 
L 296.393722 83.580945 
L 303.005 83.580945 
L 303.005 83.580945 
" style="fill:none;stroke:#1b9e77;stroke-dasharray:4.5,1.5;stroke-dashoffset:0;stroke-width:1.5;"/>
   </g>
   <g id="line2d_29">
    <path clip-path="url(#p8245ced7dc)" d="M 55.905 196.670456 
L 60.073974 196.670456 
L 60.073974 191.958393 
L 65.609902 191.958393 
L 65.609902 187.24633 
L 65.703666 187.24633 
L 69.360947 187.24633 
L 69.360947 182.534267 
L 69.454721 182.534267 
L 69.736073 182.534267 
L 69.736073 177.822204 
L 69.829851 177.822204 
L 70.298729 177.822204 
L 70.298729 173.110142 
L 70.392492 173.110142 
L 70.486277 173.110142 
L 70.486277 168.398079 
L 70.580075 168.398079 
L 71.611603 168.398079 
L 71.611603 163.686016 
L 71.705397 163.686016 
L 87.741163 163.686016 
L 87.741163 154.26189 
L 87.834919 154.26189 
L 92.054866 154.26189 
L 92.054866 149.549827 
L 92.148638 149.549827 
L 92.992634 149.549827 
L 92.992634 144.837764 
L 93.086407 144.837764 
L 93.555309 144.837764 
L 93.555309 140.125701 
L 93.649074 140.125701 
L 96.368557 140.125701 
L 96.368557 135.413638 
L 96.462371 135.413638 
L 96.556108 135.413638 
L 96.556108 125.989512 
L 96.649894 125.989512 
L 97.118778 125.989512 
L 97.118778 116.565386 
L 97.212573 116.565386 
L 101.24495 116.565386 
L 101.24495 111.853323 
L 101.338711 111.853323 
L 101.807637 111.853323 
L 101.807637 107.14126 
L 101.90139 107.14126 
L 102.370258 107.14126 
L 102.370258 102.429197 
L 102.464056 102.429197 
L 107.059111 102.429197 
L 107.059111 97.717134 
L 107.15289 97.717134 
L 120.000252 97.717134 
L 120.000252 93.005071 
L 120.094041 93.005071 
L 124.313956 93.005071 
L 124.313956 88.293008 
L 124.407754 88.293008 
L 129.190363 88.293008 
L 129.190363 93.005071 
L 129.284127 93.005071 
L 150.758924 93.005071 
L 150.758924 88.293008 
L 150.852722 88.293008 
L 150.946461 88.293008 
L 150.946461 93.005071 
L 151.040255 93.005071 
L 155.635302 93.005071 
L 155.635302 88.293008 
L 155.7291 88.293008 
L 188.644589 88.293008 
L 188.644589 83.580945 
L 188.738392 83.580945 
L 218.65306 83.580945 
L 218.65306 78.868882 
L 218.746835 78.868882 
L 228.218277 78.868882 
L 228.218277 83.580945 
L 228.312044 83.580945 
L 287.672544 83.580945 
L 287.672544 88.293008 
L 287.766309 88.293008 
L 289.923192 88.293008 
L 289.923192 93.005071 
L 290.016965 93.005071 
L 303.005 93.005071 
L 303.005 93.005071 
" style="fill:none;stroke:#d95f02;stroke-dasharray:4.5,1.5;stroke-dashoffset:0;stroke-width:1.5;"/>
   </g>
   <g id="line2d_30">
    <path clip-path="url(#p8245ced7dc)" d="M 55.905 210.806645 
L 61.483723 210.806645 
L 61.483723 206.094582 
L 61.577505 206.094582 
L 62.233972 206.094582 
L 62.233972 201.382519 
L 62.327738 201.382519 
L 74.049808 201.382519 
L 74.049808 196.670456 
L 74.143575 196.670456 
L 87.178485 196.670456 
L 87.178485 191.958393 
L 87.272242 191.958393 
L 88.491349 191.958393 
L 88.491349 182.534267 
L 88.585117 182.534267 
L 92.054866 182.534267 
L 92.054866 177.822204 
L 92.148638 177.822204 
L 92.242406 177.822204 
L 92.242406 173.110142 
L 92.336177 173.110142 
L 92.805084 173.110142 
L 92.805084 163.686016 
L 92.898866 163.686016 
L 92.992634 163.686016 
L 92.992634 158.973953 
L 93.086407 158.973953 
L 94.117921 158.973953 
L 94.117921 154.26189 
L 94.211746 154.26189 
L 96.368557 154.26189 
L 96.368557 158.973953 
L 96.462371 158.973953 
L 96.74368 158.973953 
L 96.74368 154.26189 
L 96.837458 154.26189 
L 96.931243 154.26189 
L 96.931243 149.549827 
L 97.025043 149.549827 
L 97.306355 149.549827 
L 97.306355 144.837764 
L 97.400144 144.837764 
L 97.493881 144.837764 
L 97.493881 149.549827 
L 97.587689 149.549827 
L 97.681459 149.549827 
L 97.681459 144.837764 
L 97.775255 144.837764 
L 100.869831 144.837764 
L 100.869831 140.125701 
L 100.96364 140.125701 
L 106.871556 140.125701 
L 106.871556 135.413638 
L 106.96532 135.413638 
L 119.437588 135.413638 
L 119.437588 130.701575 
L 119.53138 130.701575 
L 137.255102 130.701575 
L 137.255102 125.989512 
L 137.34892 125.989512 
L 159.573917 125.989512 
L 159.573917 121.277449 
L 159.667697 121.277449 
L 183.205591 121.277449 
L 183.205591 116.565386 
L 183.299348 116.565386 
L 227.092954 116.565386 
L 227.092954 111.853323 
L 245.098018 111.853323 
L 245.098018 107.14126 
L 245.191816 107.14126 
L 282.233491 107.14126 
L 282.233491 102.429197 
L 282.327275 102.429197 
L 287.484975 102.429197 
L 287.484975 97.717134 
L 287.578755 97.717134 
L 294.424418 97.717134 
L 294.424418 93.005071 
L 294.51822 93.005071 
L 303.005 93.005071 
L 303.005 93.005071 
" style="fill:none;stroke:#7570b3;stroke-dasharray:4.5,1.5;stroke-dashoffset:0;stroke-width:1.5;"/>
   </g>
   <g id="line2d_31">
    <path clip-path="url(#p8245ced7dc)" d="M 55.905 210.806645 
L 60.73371 210.806645 
L 60.73371 206.094582 
L 60.827325 206.094582 
L 61.108661 206.094582 
L 61.108661 201.382519 
L 61.202457 201.382519 
L 65.422347 201.382519 
L 65.422347 196.670456 
L 65.516121 196.670456 
L 70.298729 196.670456 
L 70.298729 191.958393 
L 70.392492 191.958393 
L 73.299583 191.958393 
L 73.299583 187.24633 
L 73.393387 187.24633 
L 74.237328 187.24633 
L 74.237328 182.534267 
L 74.331124 182.534267 
L 74.61245 182.534267 
L 74.61245 177.822204 
L 74.706209 177.822204 
L 87.178485 177.822204 
L 87.178485 168.398079 
L 87.272242 168.398079 
L 87.553599 168.398079 
L 87.553599 163.686016 
L 87.647346 163.686016 
L 87.741163 163.686016 
L 87.741163 158.973953 
L 87.834919 158.973953 
L 87.928696 158.973953 
L 87.928696 154.26189 
L 88.022463 154.26189 
L 88.116268 154.26189 
L 88.116268 144.837764 
L 88.210023 144.837764 
L 88.303824 144.837764 
L 88.303824 140.125701 
L 88.397575 140.125701 
L 88.678925 140.125701 
L 88.678925 135.413638 
L 88.772687 135.413638 
L 89.054047 135.413638 
L 89.054047 130.701575 
L 89.147808 130.701575 
L 89.616655 130.701575 
L 89.616655 125.989512 
L 89.710476 125.989512 
L 91.679751 125.989512 
L 91.679751 121.277449 
L 91.773526 121.277449 
L 91.8673 121.277449 
L 91.8673 116.565386 
L 91.961105 116.565386 
L 92.054866 116.565386 
L 92.054866 102.429197 
L 92.148638 102.429197 
L 92.242406 102.429197 
L 92.242406 97.717134 
L 92.336177 97.717134 
L 92.429939 97.717134 
L 92.429939 93.005071 
L 92.523764 93.005071 
L 94.117921 93.005071 
L 94.117921 97.717134 
L 94.211746 97.717134 
L 96.556108 97.717134 
L 96.556108 93.005071 
L 96.649894 93.005071 
L 96.74368 93.005071 
L 96.74368 97.717134 
L 96.837458 97.717134 
L 96.931243 97.717134 
L 96.931243 93.005071 
L 97.025043 93.005071 
L 102.182749 93.005071 
L 102.182749 97.717134 
L 102.276493 97.717134 
L 102.370258 97.717134 
L 102.370258 93.005071 
L 102.464056 93.005071 
L 281.858415 93.005071 
L 281.858415 97.717134 
L 281.952153 97.717134 
L 296.299964 97.717134 
L 296.299964 93.005071 
L 296.393722 93.005071 
L 303.005 93.005071 
L 303.005 93.005071 
" style="fill:none;stroke:#e7298a;stroke-dasharray:4.5,1.5;stroke-dashoffset:0;stroke-width:1.5;"/>
   </g>
   <g id="line2d_32">
    <path clip-path="url(#p8245ced7dc)" d="M 140.115283 210.806645 
L 141.756358 210.806645 
L 141.756358 206.094582 
L 141.850167 206.094582 
L 147.382984 206.094582 
L 147.382984 201.382519 
L 147.476733 201.382519 
L 150.196287 201.382519 
L 150.196287 182.534267 
L 150.290028 182.534267 
L 150.571342 182.534267 
L 150.571342 173.110142 
L 150.665165 173.110142 
L 150.946461 173.110142 
L 150.946461 158.973953 
L 151.040255 158.973953 
L 151.321561 158.973953 
L 151.321561 154.26189 
L 151.415374 154.26189 
L 155.072658 154.26189 
L 155.072658 149.549827 
L 155.166432 149.549827 
L 156.010411 149.549827 
L 156.010411 144.837764 
L 156.104181 144.837764 
L 156.385497 144.837764 
L 156.385497 140.125701 
L 156.479311 140.125701 
L 156.760605 140.125701 
L 156.760605 135.413638 
L 156.854378 135.413638 
L 156.948164 135.413638 
L 156.948164 130.701575 
L 157.041921 130.701575 
L 159.573917 130.701575 
L 159.573917 125.989512 
L 159.667697 125.989512 
L 161.261862 125.989512 
L 161.261862 121.277449 
L 161.355671 121.277449 
L 164.450259 121.277449 
L 164.450259 116.565386 
L 164.544062 116.565386 
L 221.841449 116.565386 
L 221.841449 121.277449 
L 221.93523 121.277449 
L 222.779203 121.277449 
L 222.779203 116.565386 
L 222.873015 116.565386 
L 254.288125 116.565386 
L 254.288125 111.853323 
L 254.381915 111.853323 
L 254.663194 111.853323 
L 254.663194 107.14126 
L 254.757016 107.14126 
L 256.163645 107.14126 
L 256.163645 102.429197 
L 256.2574 102.429197 
L 281.670825 102.429197 
L 281.670825 97.717134 
L 281.764609 97.717134 
L 303.005 97.717134 
L 303.005 97.717134 
" style="fill:none;stroke:#66a61e;stroke-dasharray:4.5,1.5;stroke-dashoffset:0;stroke-width:1.5;"/>
   </g>
   <g id="line2d_33">
    <path clip-path="url(#p8245ced7dc)" d="M 55.905 206.094582 
L 64.672164 206.094582 
L 64.672164 201.382519 
L 64.765905 201.382519 
L 64.859709 201.382519 
L 64.859709 196.670456 
L 64.953484 196.670456 
L 65.609902 196.670456 
L 65.609902 187.24633 
L 65.703666 187.24633 
L 69.173415 187.24633 
L 69.173415 182.534267 
L 69.267188 182.534267 
L 70.111178 182.534267 
L 70.111178 177.822204 
L 70.204965 177.822204 
L 70.298729 177.822204 
L 70.298729 173.110142 
L 70.392492 173.110142 
L 70.486277 173.110142 
L 70.486277 168.398079 
L 70.580075 168.398079 
L 87.553599 168.398079 
L 87.553599 163.686016 
L 87.647346 163.686016 
L 87.741163 163.686016 
L 87.741163 158.973953 
L 87.834919 158.973953 
L 87.928696 158.973953 
L 87.928696 149.549827 
L 88.022463 149.549827 
L 92.617529 149.549827 
L 92.617529 144.837764 
L 92.711308 144.837764 
L 92.805084 144.837764 
L 92.805084 140.125701 
L 92.898866 140.125701 
L 95.99345 140.125701 
L 95.99345 144.837764 
L 96.087383 144.837764 
L 96.556108 144.837764 
L 96.556108 135.413638 
L 96.649894 135.413638 
L 96.74368 135.413638 
L 96.74368 140.125701 
L 96.837458 140.125701 
L 96.931243 140.125701 
L 96.931243 135.413638 
L 97.025043 135.413638 
L 97.306355 135.413638 
L 97.306355 125.989512 
L 97.400144 125.989512 
L 97.493881 125.989512 
L 97.493881 121.277449 
L 97.587689 121.277449 
L 106.308864 121.277449 
L 106.308864 116.565386 
L 106.402683 116.565386 
L 106.871556 116.565386 
L 106.871556 111.853323 
L 106.96532 111.853323 
L 115.874067 111.853323 
L 115.874067 107.14126 
L 115.967845 107.14126 
L 132.941383 107.14126 
L 132.941383 102.429197 
L 133.035173 102.429197 
L 133.691593 102.429197 
L 133.691593 97.717134 
L 133.785414 97.717134 
L 137.442681 97.717134 
L 137.442681 93.005071 
L 137.536463 93.005071 
L 152.259369 93.005071 
L 152.259369 88.293008 
L 152.353111 88.293008 
L 264.040841 88.293008 
L 264.040841 93.005071 
L 264.134662 93.005071 
L 268.354584 93.005071 
L 268.354584 97.717134 
L 268.448399 97.717134 
L 303.005 97.717134 
L 303.005 97.717134 
" style="fill:none;stroke:#e6ab02;stroke-dasharray:4.5,1.5;stroke-dashoffset:0;stroke-width:1.5;"/>
   </g>
   <g id="line2d_34">
    <path clip-path="url(#p8245ced7dc)" d="M 55.905 206.094582 
L 65.234795 206.094582 
L 65.234795 196.670456 
L 65.328582 196.670456 
L 69.360947 196.670456 
L 69.360947 187.24633 
L 69.454721 187.24633 
L 69.54849 187.24633 
L 69.54849 182.534267 
L 69.64229 182.534267 
L 70.298729 182.534267 
L 70.298729 177.822204 
L 70.392492 177.822204 
L 70.486277 177.822204 
L 70.486277 173.110142 
L 70.580075 173.110142 
L 87.928696 173.110142 
L 87.928696 168.398079 
L 88.022463 168.398079 
L 88.116268 168.398079 
L 88.116268 163.686016 
L 88.210023 163.686016 
L 88.303824 163.686016 
L 88.303824 158.973953 
L 88.397575 158.973953 
L 88.866441 158.973953 
L 88.866441 154.26189 
L 88.96026 154.26189 
L 89.054047 154.26189 
L 89.054047 158.973953 
L 89.147808 158.973953 
L 91.679751 158.973953 
L 91.679751 140.125701 
L 91.773526 140.125701 
L 92.054866 140.125701 
L 92.054866 130.701575 
L 92.148638 130.701575 
L 92.242406 130.701575 
L 92.242406 125.989512 
L 92.336177 125.989512 
L 92.429939 125.989512 
L 92.429939 116.565386 
L 92.523764 116.565386 
L 303.005 116.565386 
L 303.005 116.565386 
" style="fill:none;stroke:#a6761d;stroke-dasharray:4.5,1.5;stroke-dashoffset:0;stroke-width:1.5;"/>
   </g>
   <g id="line2d_35">
    <path clip-path="url(#p8245ced7dc)" d="M 55.905 210.806645 
L 65.609902 210.806645 
L 65.609902 206.094582 
L 65.703666 206.094582 
L 65.797483 206.094582 
L 65.797483 201.382519 
L 65.891255 201.382519 
L 69.54849 201.382519 
L 69.54849 196.670456 
L 69.64229 196.670456 
L 70.486277 196.670456 
L 70.486277 191.958393 
L 70.580075 191.958393 
L 70.861383 191.958393 
L 70.861383 187.24633 
L 70.955181 187.24633 
L 71.236508 187.24633 
L 71.236508 182.534267 
L 71.330293 182.534267 
L 74.049808 182.534267 
L 74.049808 187.24633 
L 74.143575 187.24633 
L 87.366064 187.24633 
L 87.366064 182.534267 
L 87.459794 182.534267 
L 88.491349 182.534267 
L 88.491349 173.110142 
L 88.585117 173.110142 
L 91.8673 173.110142 
L 91.8673 168.398079 
L 91.961105 168.398079 
L 92.617529 168.398079 
L 92.617529 149.549827 
L 92.711308 149.549827 
L 92.805084 149.549827 
L 92.805084 144.837764 
L 92.898866 144.837764 
L 92.992634 144.837764 
L 92.992634 140.125701 
L 93.086407 140.125701 
L 150.571342 140.125701 
L 150.571342 144.837764 
L 150.665165 144.837764 
L 150.758924 144.837764 
L 150.758924 140.125701 
L 150.852722 140.125701 
L 264.040841 140.125701 
L 264.040841 135.413638 
L 264.134662 135.413638 
L 273.41853 135.413638 
L 273.41853 130.701575 
L 273.512331 130.701575 
L 287.297425 130.701575 
L 287.297425 125.989512 
L 287.391235 125.989512 
L 289.923192 125.989512 
L 289.923192 121.277449 
L 290.016965 121.277449 
L 290.673396 121.277449 
L 290.673396 116.565386 
L 290.767156 116.565386 
L 303.005 116.565386 
L 303.005 116.565386 
" style="fill:none;stroke:#666666;stroke-dasharray:4.5,1.5;stroke-dashoffset:0;stroke-width:1.5;"/>
   </g>
   <g id="line2d_36"/>
   <g id="line2d_37"/>
   <g id="line2d_38"/>
   <g id="line2d_39"/>
   <g id="line2d_40"/>
   <g id="line2d_41"/>
   <g id="line2d_42"/>
   <g id="line2d_43"/>
   <g id="line2d_44"/>
   <g id="line2d_45"/>
   <g id="line2d_46"/>
   <g id="line2d_47"/>
   <g id="line2d_48"/>
   <g id="line2d_49"/>
   <g id="line2d_50"/>
   <g id="line2d_51"/>
   <g id="line2d_52"/>
   <g id="patch_3">
    <path d="M 43.55 220.230771 
L 43.55 12.9 
" style="fill:none;stroke:#000000;stroke-linecap:square;stroke-linejoin:miter;stroke-width:0.8;"/>
   </g>
   <g id="patch_4">
    <path d="M 315.36 220.230771 
L 315.36 12.9 
" style="fill:none;stroke:#000000;stroke-linecap:square;stroke-linejoin:miter;stroke-width:0.8;"/>
   </g>
   <g id="patch_5">
    <path d="M 43.55 220.230771 
L 315.36 220.230771 
" style="fill:none;stroke:#000000;stroke-linecap:square;stroke-linejoin:miter;stroke-width:0.8;"/>
   </g>
   <g id="patch_6">
    <path d="M 43.55 12.9 
L 315.36 12.9 
" style="fill:none;stroke:#000000;stroke-linecap:square;stroke-linejoin:miter;stroke-width:0.8;"/>
   </g>
  </g>
  <g id="legend_1">
   <g id="patch_7">
    <path d="M 331.8625 262.528125 
L 420 262.528125 
Q 422 262.528125 422 260.528125 
L 422 12 
Q 422 10 420 10 
L 331.8625 10 
Q 329.8625 10 329.8625 12 
L 329.8625 260.528125 
Q 329.8625 262.528125 331.8625 262.528125 
z
" style="fill:#ffffff;opacity:0.8;stroke:#cccccc;stroke-linejoin:miter;"/>
   </g>
   <g id="text_22">
    <!-- 494/610 Reg. -->
    <defs>
     <path d="M 25.390625 72.90625 
L 33.6875 72.90625 
L 8.296875 -9.28125 
L 0 -9.28125 
z
" id="DejaVuSans-47"/>
     <path d="M 33.015625 40.375 
Q 26.375 40.375 22.484375 35.828125 
Q 18.609375 31.296875 18.609375 23.390625 
Q 18.609375 15.53125 22.484375 10.953125 
Q 26.375 6.390625 33.015625 6.390625 
Q 39.65625 6.390625 43.53125 10.953125 
Q 47.40625 15.53125 47.40625 23.390625 
Q 47.40625 31.296875 43.53125 35.828125 
Q 39.65625 40.375 33.015625 40.375 
z
M 52.59375 71.296875 
L 52.59375 62.3125 
Q 48.875 64.0625 45.09375 64.984375 
Q 41.3125 65.921875 37.59375 65.921875 
Q 27.828125 65.921875 22.671875 59.328125 
Q 17.53125 52.734375 16.796875 39.40625 
Q 19.671875 43.65625 24.015625 45.921875 
Q 28.375 48.1875 33.59375 48.1875 
Q 44.578125 48.1875 50.953125 41.515625 
Q 57.328125 34.859375 57.328125 23.390625 
Q 57.328125 12.15625 50.6875 5.359375 
Q 44.046875 -1.421875 33.015625 -1.421875 
Q 20.359375 -1.421875 13.671875 8.265625 
Q 6.984375 17.96875 6.984375 36.375 
Q 6.984375 53.65625 15.1875 63.9375 
Q 23.390625 74.21875 37.203125 74.21875 
Q 40.921875 74.21875 44.703125 73.484375 
Q 48.484375 72.75 52.59375 71.296875 
z
" id="DejaVuSans-54"/>
     <path d="M 10.6875 12.40625 
L 21 12.40625 
L 21 0 
L 10.6875 0 
z
" id="DejaVuSans-46"/>
    </defs>
    <g transform="translate(342.259375 21.598437)scale(0.1 -0.1)">
     <use xlink:href="#DejaVuSans-52"/>
     <use x="63.623047" xlink:href="#DejaVuSans-57"/>
     <use x="127.246094" xlink:href="#DejaVuSans-52"/>
     <use x="190.869141" xlink:href="#DejaVuSans-47"/>
     <use x="224.560547" xlink:href="#DejaVuSans-54"/>
     <use x="288.183594" xlink:href="#DejaVuSans-49"/>
     <use x="351.806641" xlink:href="#DejaVuSans-48"/>
     <use x="415.429688" xlink:href="#DejaVuSans-32"/>
     <use x="447.216797" xlink:href="#DejaVuSans-82"/>
     <use x="516.636719" xlink:href="#DejaVuSans-101"/>
     <use x="578.160156" xlink:href="#DejaVuSans-103"/>
     <use x="641.636719" xlink:href="#DejaVuSans-46"/>
    </g>
   </g>
   <g id="line2d_53">
    <path d="M 333.8625 32.776562 
L 353.8625 32.776562 
" style="fill:none;stroke:#1b9e77;stroke-linecap:square;stroke-width:1.5;"/>
   </g>
   <g id="line2d_54"/>
   <g id="text_23">
    <!-- AS (40) -->
    <defs>
     <path d="M 34.1875 63.1875 
L 20.796875 26.90625 
L 47.609375 26.90625 
z
M 28.609375 72.90625 
L 39.796875 72.90625 
L 67.578125 0 
L 57.328125 0 
L 50.6875 18.703125 
L 17.828125 18.703125 
L 11.1875 0 
L 0.78125 0 
z
" id="DejaVuSans-65"/>
     <path d="M 31 75.875 
Q 24.46875 64.65625 21.28125 53.65625 
Q 18.109375 42.671875 18.109375 31.390625 
Q 18.109375 20.125 21.3125 9.0625 
Q 24.515625 -2 31 -13.1875 
L 23.1875 -13.1875 
Q 15.875 -1.703125 12.234375 9.375 
Q 8.59375 20.453125 8.59375 31.390625 
Q 8.59375 42.28125 12.203125 53.3125 
Q 15.828125 64.359375 23.1875 75.875 
z
" id="DejaVuSans-40"/>
     <path d="M 8.015625 75.875 
L 15.828125 75.875 
Q 23.140625 64.359375 26.78125 53.3125 
Q 30.421875 42.28125 30.421875 31.390625 
Q 30.421875 20.453125 26.78125 9.375 
Q 23.140625 -1.703125 15.828125 -13.1875 
L 8.015625 -13.1875 
Q 14.5 -2 17.703125 9.0625 
Q 20.90625 20.125 20.90625 31.390625 
Q 20.90625 42.671875 17.703125 53.65625 
Q 14.5 64.65625 8.015625 75.875 
z
" id="DejaVuSans-41"/>
    </defs>
    <g transform="translate(361.8625 36.276562)scale(0.1 -0.1)">
     <use xlink:href="#DejaVuSans-65"/>
     <use x="68.408203" xlink:href="#DejaVuSans-83"/>
     <use x="131.884766" xlink:href="#DejaVuSans-32"/>
     <use x="163.671875" xlink:href="#DejaVuSans-40"/>
     <use x="202.685547" xlink:href="#DejaVuSans-52"/>
     <use x="266.308594" xlink:href="#DejaVuSans-48"/>
     <use x="329.931641" xlink:href="#DejaVuSans-41"/>
    </g>
   </g>
   <g id="line2d_55">
    <path d="M 333.8625 47.454688 
L 353.8625 47.454688 
" style="fill:none;stroke:#d95f02;stroke-linecap:square;stroke-width:1.5;"/>
   </g>
   <g id="line2d_56"/>
   <g id="text_24">
    <!-- AUS (40) -->
    <defs>
     <path d="M 8.6875 72.90625 
L 18.609375 72.90625 
L 18.609375 28.609375 
Q 18.609375 16.890625 22.84375 11.734375 
Q 27.09375 6.59375 36.625 6.59375 
Q 46.09375 6.59375 50.34375 11.734375 
Q 54.59375 16.890625 54.59375 28.609375 
L 54.59375 72.90625 
L 64.5 72.90625 
L 64.5 27.390625 
Q 64.5 13.140625 57.4375 5.859375 
Q 50.390625 -1.421875 36.625 -1.421875 
Q 22.796875 -1.421875 15.734375 5.859375 
Q 8.6875 13.140625 8.6875 27.390625 
z
" id="DejaVuSans-85"/>
    </defs>
    <g transform="translate(361.8625 50.954688)scale(0.1 -0.1)">
     <use xlink:href="#DejaVuSans-65"/>
     <use x="68.408203" xlink:href="#DejaVuSans-85"/>
     <use x="141.601562" xlink:href="#DejaVuSans-83"/>
     <use x="205.078125" xlink:href="#DejaVuSans-32"/>
     <use x="236.865234" xlink:href="#DejaVuSans-40"/>
     <use x="275.878906" xlink:href="#DejaVuSans-52"/>
     <use x="339.501953" xlink:href="#DejaVuSans-48"/>
     <use x="403.125" xlink:href="#DejaVuSans-41"/>
    </g>
   </g>
   <g id="line2d_57">
    <path d="M 333.8625 62.132812 
L 353.8625 62.132812 
" style="fill:none;stroke:#7570b3;stroke-linecap:square;stroke-width:1.5;"/>
   </g>
   <g id="line2d_58"/>
   <g id="text_25">
    <!-- COML (40) -->
    <defs>
     <path d="M 64.40625 67.28125 
L 64.40625 56.890625 
Q 59.421875 61.53125 53.78125 63.8125 
Q 48.140625 66.109375 41.796875 66.109375 
Q 29.296875 66.109375 22.65625 58.46875 
Q 16.015625 50.828125 16.015625 36.375 
Q 16.015625 21.96875 22.65625 14.328125 
Q 29.296875 6.6875 41.796875 6.6875 
Q 48.140625 6.6875 53.78125 8.984375 
Q 59.421875 11.28125 64.40625 15.921875 
L 64.40625 5.609375 
Q 59.234375 2.09375 53.4375 0.328125 
Q 47.65625 -1.421875 41.21875 -1.421875 
Q 24.65625 -1.421875 15.125 8.703125 
Q 5.609375 18.84375 5.609375 36.375 
Q 5.609375 53.953125 15.125 64.078125 
Q 24.65625 74.21875 41.21875 74.21875 
Q 47.75 74.21875 53.53125 72.484375 
Q 59.328125 70.75 64.40625 67.28125 
z
" id="DejaVuSans-67"/>
     <path d="M 39.40625 66.21875 
Q 28.65625 66.21875 22.328125 58.203125 
Q 16.015625 50.203125 16.015625 36.375 
Q 16.015625 22.609375 22.328125 14.59375 
Q 28.65625 6.59375 39.40625 6.59375 
Q 50.140625 6.59375 56.421875 14.59375 
Q 62.703125 22.609375 62.703125 36.375 
Q 62.703125 50.203125 56.421875 58.203125 
Q 50.140625 66.21875 39.40625 66.21875 
z
M 39.40625 74.21875 
Q 54.734375 74.21875 63.90625 63.9375 
Q 73.09375 53.65625 73.09375 36.375 
Q 73.09375 19.140625 63.90625 8.859375 
Q 54.734375 -1.421875 39.40625 -1.421875 
Q 24.03125 -1.421875 14.8125 8.828125 
Q 5.609375 19.09375 5.609375 36.375 
Q 5.609375 53.65625 14.8125 63.9375 
Q 24.03125 74.21875 39.40625 74.21875 
z
" id="DejaVuSans-79"/>
     <path d="M 9.8125 72.90625 
L 24.515625 72.90625 
L 43.109375 23.296875 
L 61.8125 72.90625 
L 76.515625 72.90625 
L 76.515625 0 
L 66.890625 0 
L 66.890625 64.015625 
L 48.09375 14.015625 
L 38.1875 14.015625 
L 19.390625 64.015625 
L 19.390625 0 
L 9.8125 0 
z
" id="DejaVuSans-77"/>
     <path d="M 9.8125 72.90625 
L 19.671875 72.90625 
L 19.671875 8.296875 
L 55.171875 8.296875 
L 55.171875 0 
L 9.8125 0 
z
" id="DejaVuSans-76"/>
    </defs>
    <g transform="translate(361.8625 65.632812)scale(0.1 -0.1)">
     <use xlink:href="#DejaVuSans-67"/>
     <use x="69.824219" xlink:href="#DejaVuSans-79"/>
     <use x="148.535156" xlink:href="#DejaVuSans-77"/>
     <use x="234.814453" xlink:href="#DejaVuSans-76"/>
     <use x="290.527344" xlink:href="#DejaVuSans-32"/>
     <use x="322.314453" xlink:href="#DejaVuSans-40"/>
     <use x="361.328125" xlink:href="#DejaVuSans-52"/>
     <use x="424.951172" xlink:href="#DejaVuSans-48"/>
     <use x="488.574219" xlink:href="#DejaVuSans-41"/>
    </g>
   </g>
   <g id="line2d_59">
    <path d="M 333.8625 76.810937 
L 353.8625 76.810937 
" style="fill:none;stroke:#e7298a;stroke-linecap:square;stroke-width:1.5;"/>
   </g>
   <g id="line2d_60"/>
   <g id="text_26">
    <!-- GDD (40) -->
    <defs>
     <path d="M 59.515625 10.40625 
L 59.515625 29.984375 
L 43.40625 29.984375 
L 43.40625 38.09375 
L 69.28125 38.09375 
L 69.28125 6.78125 
Q 63.578125 2.734375 56.6875 0.65625 
Q 49.8125 -1.421875 42 -1.421875 
Q 24.90625 -1.421875 15.25 8.5625 
Q 5.609375 18.5625 5.609375 36.375 
Q 5.609375 54.25 15.25 64.234375 
Q 24.90625 74.21875 42 74.21875 
Q 49.125 74.21875 55.546875 72.453125 
Q 61.96875 70.703125 67.390625 67.28125 
L 67.390625 56.78125 
Q 61.921875 61.421875 55.765625 63.765625 
Q 49.609375 66.109375 42.828125 66.109375 
Q 29.4375 66.109375 22.71875 58.640625 
Q 16.015625 51.171875 16.015625 36.375 
Q 16.015625 21.625 22.71875 14.15625 
Q 29.4375 6.6875 42.828125 6.6875 
Q 48.046875 6.6875 52.140625 7.59375 
Q 56.25 8.5 59.515625 10.40625 
z
" id="DejaVuSans-71"/>
    </defs>
    <g transform="translate(361.8625 80.310937)scale(0.1 -0.1)">
     <use xlink:href="#DejaVuSans-71"/>
     <use x="77.490234" xlink:href="#DejaVuSans-68"/>
     <use x="154.492188" xlink:href="#DejaVuSans-68"/>
     <use x="231.494141" xlink:href="#DejaVuSans-32"/>
     <use x="263.28125" xlink:href="#DejaVuSans-40"/>
     <use x="302.294922" xlink:href="#DejaVuSans-52"/>
     <use x="365.917969" xlink:href="#DejaVuSans-48"/>
     <use x="429.541016" xlink:href="#DejaVuSans-41"/>
    </g>
   </g>
   <g id="line2d_61">
    <path d="M 333.8625 91.489062 
L 353.8625 91.489062 
" style="fill:none;stroke:#66a61e;stroke-linecap:square;stroke-width:1.5;"/>
   </g>
   <g id="line2d_62"/>
   <g id="text_27">
    <!-- SA (39) -->
    <g transform="translate(361.8625 94.989062)scale(0.1 -0.1)">
     <use xlink:href="#DejaVuSans-83"/>
     <use x="63.492188" xlink:href="#DejaVuSans-65"/>
     <use x="131.900391" xlink:href="#DejaVuSans-32"/>
     <use x="163.6875" xlink:href="#DejaVuSans-40"/>
     <use x="202.701172" xlink:href="#DejaVuSans-51"/>
     <use x="266.324219" xlink:href="#DejaVuSans-57"/>
     <use x="329.947266" xlink:href="#DejaVuSans-41"/>
    </g>
   </g>
   <g id="line2d_63">
    <path d="M 333.8625 106.167188 
L 353.8625 106.167188 
" style="fill:none;stroke:#e6ab02;stroke-linecap:square;stroke-width:1.5;"/>
   </g>
   <g id="line2d_64"/>
   <g id="text_28">
    <!-- MD (38) -->
    <g transform="translate(361.8625 109.667188)scale(0.1 -0.1)">
     <use xlink:href="#DejaVuSans-77"/>
     <use x="86.279297" xlink:href="#DejaVuSans-68"/>
     <use x="163.28125" xlink:href="#DejaVuSans-32"/>
     <use x="195.068359" xlink:href="#DejaVuSans-40"/>
     <use x="234.082031" xlink:href="#DejaVuSans-51"/>
     <use x="297.705078" xlink:href="#DejaVuSans-56"/>
     <use x="361.328125" xlink:href="#DejaVuSans-41"/>
    </g>
   </g>
   <g id="line2d_65">
    <path d="M 333.8625 120.845312 
L 353.8625 120.845312 
" style="fill:none;stroke:#a6761d;stroke-linecap:square;stroke-width:1.5;"/>
   </g>
   <g id="line2d_66"/>
   <g id="text_29">
    <!-- HPI (38) -->
    <defs>
     <path d="M 9.8125 72.90625 
L 19.671875 72.90625 
L 19.671875 43.015625 
L 55.515625 43.015625 
L 55.515625 72.90625 
L 65.375 72.90625 
L 65.375 0 
L 55.515625 0 
L 55.515625 34.71875 
L 19.671875 34.71875 
L 19.671875 0 
L 9.8125 0 
z
" id="DejaVuSans-72"/>
     <path d="M 19.671875 64.796875 
L 19.671875 37.40625 
L 32.078125 37.40625 
Q 38.96875 37.40625 42.71875 40.96875 
Q 46.484375 44.53125 46.484375 51.125 
Q 46.484375 57.671875 42.71875 61.234375 
Q 38.96875 64.796875 32.078125 64.796875 
z
M 9.8125 72.90625 
L 32.078125 72.90625 
Q 44.34375 72.90625 50.609375 67.359375 
Q 56.890625 61.8125 56.890625 51.125 
Q 56.890625 40.328125 50.609375 34.8125 
Q 44.34375 29.296875 32.078125 29.296875 
L 19.671875 29.296875 
L 19.671875 0 
L 9.8125 0 
z
" id="DejaVuSans-80"/>
     <path d="M 9.8125 72.90625 
L 19.671875 72.90625 
L 19.671875 0 
L 9.8125 0 
z
" id="DejaVuSans-73"/>
    </defs>
    <g transform="translate(361.8625 124.345312)scale(0.1 -0.1)">
     <use xlink:href="#DejaVuSans-72"/>
     <use x="75.195312" xlink:href="#DejaVuSans-80"/>
     <use x="135.498047" xlink:href="#DejaVuSans-73"/>
     <use x="164.990234" xlink:href="#DejaVuSans-32"/>
     <use x="196.777344" xlink:href="#DejaVuSans-40"/>
     <use x="235.791016" xlink:href="#DejaVuSans-51"/>
     <use x="299.414062" xlink:href="#DejaVuSans-56"/>
     <use x="363.037109" xlink:href="#DejaVuSans-41"/>
    </g>
   </g>
   <g id="line2d_67">
    <path d="M 333.8625 135.523438 
L 353.8625 135.523438 
" style="fill:none;stroke:#666666;stroke-linecap:square;stroke-width:1.5;"/>
   </g>
   <g id="line2d_68"/>
   <g id="text_30">
    <!-- FIT (29) -->
    <defs>
     <path d="M 9.8125 72.90625 
L 51.703125 72.90625 
L 51.703125 64.59375 
L 19.671875 64.59375 
L 19.671875 43.109375 
L 48.578125 43.109375 
L 48.578125 34.8125 
L 19.671875 34.8125 
L 19.671875 0 
L 9.8125 0 
z
" id="DejaVuSans-70"/>
     <path d="M -0.296875 72.90625 
L 61.375 72.90625 
L 61.375 64.59375 
L 35.5 64.59375 
L 35.5 0 
L 25.59375 0 
L 25.59375 64.59375 
L -0.296875 64.59375 
z
" id="DejaVuSans-84"/>
    </defs>
    <g transform="translate(361.8625 139.023438)scale(0.1 -0.1)">
     <use xlink:href="#DejaVuSans-70"/>
     <use x="57.519531" xlink:href="#DejaVuSans-73"/>
     <use x="87.011719" xlink:href="#DejaVuSans-84"/>
     <use x="148.095703" xlink:href="#DejaVuSans-32"/>
     <use x="179.882812" xlink:href="#DejaVuSans-40"/>
     <use x="218.896484" xlink:href="#DejaVuSans-50"/>
     <use x="282.519531" xlink:href="#DejaVuSans-57"/>
     <use x="346.142578" xlink:href="#DejaVuSans-41"/>
    </g>
   </g>
   <g id="line2d_69">
    <path d="M 333.8625 150.201562 
L 353.8625 150.201562 
" style="fill:none;stroke:#1b9e77;stroke-dasharray:4.5,1.5;stroke-dashoffset:0;stroke-width:1.5;"/>
   </g>
   <g id="line2d_70"/>
   <g id="text_31">
    <!-- SPD (27) -->
    <defs>
     <path d="M 8.203125 72.90625 
L 55.078125 72.90625 
L 55.078125 68.703125 
L 28.609375 0 
L 18.3125 0 
L 43.21875 64.59375 
L 8.203125 64.59375 
z
" id="DejaVuSans-55"/>
    </defs>
    <g transform="translate(361.8625 153.701562)scale(0.1 -0.1)">
     <use xlink:href="#DejaVuSans-83"/>
     <use x="63.476562" xlink:href="#DejaVuSans-80"/>
     <use x="123.779297" xlink:href="#DejaVuSans-68"/>
     <use x="200.78125" xlink:href="#DejaVuSans-32"/>
     <use x="232.568359" xlink:href="#DejaVuSans-40"/>
     <use x="271.582031" xlink:href="#DejaVuSans-50"/>
     <use x="335.205078" xlink:href="#DejaVuSans-55"/>
     <use x="398.828125" xlink:href="#DejaVuSans-41"/>
    </g>
   </g>
   <g id="line2d_71">
    <path d="M 333.8625 164.879687 
L 353.8625 164.879687 
" style="fill:none;stroke:#d95f02;stroke-dasharray:4.5,1.5;stroke-dashoffset:0;stroke-width:1.5;"/>
   </g>
   <g id="line2d_72"/>
   <g id="text_32">
    <!-- TBI (25) -->
    <defs>
     <path d="M 19.671875 34.8125 
L 19.671875 8.109375 
L 35.5 8.109375 
Q 43.453125 8.109375 47.28125 11.40625 
Q 51.125 14.703125 51.125 21.484375 
Q 51.125 28.328125 47.28125 31.5625 
Q 43.453125 34.8125 35.5 34.8125 
z
M 19.671875 64.796875 
L 19.671875 42.828125 
L 34.28125 42.828125 
Q 41.5 42.828125 45.03125 45.53125 
Q 48.578125 48.25 48.578125 53.8125 
Q 48.578125 59.328125 45.03125 62.0625 
Q 41.5 64.796875 34.28125 64.796875 
z
M 9.8125 72.90625 
L 35.015625 72.90625 
Q 46.296875 72.90625 52.390625 68.21875 
Q 58.5 63.53125 58.5 54.890625 
Q 58.5 48.1875 55.375 44.234375 
Q 52.25 40.28125 46.1875 39.3125 
Q 53.46875 37.75 57.5 32.78125 
Q 61.53125 27.828125 61.53125 20.40625 
Q 61.53125 10.640625 54.890625 5.3125 
Q 48.25 0 35.984375 0 
L 9.8125 0 
z
" id="DejaVuSans-66"/>
    </defs>
    <g transform="translate(361.8625 168.379687)scale(0.1 -0.1)">
     <use xlink:href="#DejaVuSans-84"/>
     <use x="61.083984" xlink:href="#DejaVuSans-66"/>
     <use x="129.6875" xlink:href="#DejaVuSans-73"/>
     <use x="159.179688" xlink:href="#DejaVuSans-32"/>
     <use x="190.966797" xlink:href="#DejaVuSans-40"/>
     <use x="229.980469" xlink:href="#DejaVuSans-50"/>
     <use x="293.603516" xlink:href="#DejaVuSans-53"/>
     <use x="357.226562" xlink:href="#DejaVuSans-41"/>
    </g>
   </g>
   <g id="line2d_73">
    <path d="M 333.8625 179.557812 
L 353.8625 179.557812 
" style="fill:none;stroke:#7570b3;stroke-dasharray:4.5,1.5;stroke-dashoffset:0;stroke-width:1.5;"/>
   </g>
   <g id="line2d_74"/>
   <g id="text_33">
    <!-- CB (25) -->
    <g transform="translate(361.8625 183.057812)scale(0.1 -0.1)">
     <use xlink:href="#DejaVuSans-67"/>
     <use x="69.824219" xlink:href="#DejaVuSans-66"/>
     <use x="138.427734" xlink:href="#DejaVuSans-32"/>
     <use x="170.214844" xlink:href="#DejaVuSans-40"/>
     <use x="209.228516" xlink:href="#DejaVuSans-50"/>
     <use x="272.851562" xlink:href="#DejaVuSans-53"/>
     <use x="336.474609" xlink:href="#DejaVuSans-41"/>
    </g>
   </g>
   <g id="line2d_75">
    <path d="M 333.8625 194.235937 
L 353.8625 194.235937 
" style="fill:none;stroke:#e7298a;stroke-dasharray:4.5,1.5;stroke-dashoffset:0;stroke-width:1.5;"/>
   </g>
   <g id="line2d_76"/>
   <g id="text_34">
    <!-- CC (25) -->
    <g transform="translate(361.8625 197.735937)scale(0.1 -0.1)">
     <use xlink:href="#DejaVuSans-67"/>
     <use x="69.824219" xlink:href="#DejaVuSans-67"/>
     <use x="139.648438" xlink:href="#DejaVuSans-32"/>
     <use x="171.435547" xlink:href="#DejaVuSans-40"/>
     <use x="210.449219" xlink:href="#DejaVuSans-50"/>
     <use x="274.072266" xlink:href="#DejaVuSans-53"/>
     <use x="337.695312" xlink:href="#DejaVuSans-41"/>
    </g>
   </g>
   <g id="line2d_77">
    <path d="M 333.8625 208.914062 
L 353.8625 208.914062 
" style="fill:none;stroke:#66a61e;stroke-dasharray:4.5,1.5;stroke-dashoffset:0;stroke-width:1.5;"/>
   </g>
   <g id="line2d_78"/>
   <g id="text_35">
    <!-- RJPH (24) -->
    <defs>
     <path d="M 9.8125 72.90625 
L 19.671875 72.90625 
L 19.671875 5.078125 
Q 19.671875 -8.109375 14.671875 -14.0625 
Q 9.671875 -20.015625 -1.421875 -20.015625 
L -5.171875 -20.015625 
L -5.171875 -11.71875 
L -2.09375 -11.71875 
Q 4.4375 -11.71875 7.125 -8.046875 
Q 9.8125 -4.390625 9.8125 5.078125 
z
" id="DejaVuSans-74"/>
    </defs>
    <g transform="translate(361.8625 212.414062)scale(0.1 -0.1)">
     <use xlink:href="#DejaVuSans-82"/>
     <use x="69.482422" xlink:href="#DejaVuSans-74"/>
     <use x="98.974609" xlink:href="#DejaVuSans-80"/>
     <use x="159.277344" xlink:href="#DejaVuSans-72"/>
     <use x="234.472656" xlink:href="#DejaVuSans-32"/>
     <use x="266.259766" xlink:href="#DejaVuSans-40"/>
     <use x="305.273438" xlink:href="#DejaVuSans-50"/>
     <use x="368.896484" xlink:href="#DejaVuSans-52"/>
     <use x="432.519531" xlink:href="#DejaVuSans-41"/>
    </g>
   </g>
   <g id="line2d_79">
    <path d="M 333.8625 223.592187 
L 353.8625 223.592187 
" style="fill:none;stroke:#e6ab02;stroke-dasharray:4.5,1.5;stroke-dashoffset:0;stroke-width:1.5;"/>
   </g>
   <g id="line2d_80"/>
   <g id="text_36">
    <!-- BP (24) -->
    <g transform="translate(361.8625 227.092187)scale(0.1 -0.1)">
     <use xlink:href="#DejaVuSans-66"/>
     <use x="68.603516" xlink:href="#DejaVuSans-80"/>
     <use x="128.90625" xlink:href="#DejaVuSans-32"/>
     <use x="160.693359" xlink:href="#DejaVuSans-40"/>
     <use x="199.707031" xlink:href="#DejaVuSans-50"/>
     <use x="263.330078" xlink:href="#DejaVuSans-52"/>
     <use x="326.953125" xlink:href="#DejaVuSans-41"/>
    </g>
   </g>
   <g id="line2d_81">
    <path d="M 333.8625 238.270312 
L 353.8625 238.270312 
" style="fill:none;stroke:#a6761d;stroke-dasharray:4.5,1.5;stroke-dashoffset:0;stroke-width:1.5;"/>
   </g>
   <g id="line2d_82"/>
   <g id="text_37">
    <!-- AHR-H (20) -->
    <g transform="translate(361.8625 241.770312)scale(0.1 -0.1)">
     <use xlink:href="#DejaVuSans-65"/>
     <use x="68.408203" xlink:href="#DejaVuSans-72"/>
     <use x="143.603516" xlink:href="#DejaVuSans-82"/>
     <use x="213.023438" xlink:href="#DejaVuSans-45"/>
     <use x="249.107422" xlink:href="#DejaVuSans-72"/>
     <use x="324.302734" xlink:href="#DejaVuSans-32"/>
     <use x="356.089844" xlink:href="#DejaVuSans-40"/>
     <use x="395.103516" xlink:href="#DejaVuSans-50"/>
     <use x="458.726562" xlink:href="#DejaVuSans-48"/>
     <use x="522.349609" xlink:href="#DejaVuSans-41"/>
    </g>
   </g>
   <g id="line2d_83">
    <path d="M 333.8625 252.948437 
L 353.8625 252.948437 
" style="fill:none;stroke:#666666;stroke-dasharray:4.5,1.5;stroke-dashoffset:0;stroke-width:1.5;"/>
   </g>
   <g id="line2d_84"/>
   <g id="text_38">
    <!-- AHR-A (20) -->
    <g transform="translate(361.8625 256.448437)scale(0.1 -0.1)">
     <use xlink:href="#DejaVuSans-65"/>
     <use x="68.408203" xlink:href="#DejaVuSans-72"/>
     <use x="143.603516" xlink:href="#DejaVuSans-82"/>
     <use x="213.023438" xlink:href="#DejaVuSans-45"/>
     <use x="249.076172" xlink:href="#DejaVuSans-65"/>
     <use x="317.484375" xlink:href="#DejaVuSans-32"/>
     <use x="349.271484" xlink:href="#DejaVuSans-40"/>
     <use x="388.285156" xlink:href="#DejaVuSans-50"/>
     <use x="451.908203" xlink:href="#DejaVuSans-48"/>
     <use x="515.53125" xlink:href="#DejaVuSans-41"/>
    </g>
   </g>
  </g>
 </g>
 <defs>
  <clipPath id="p8245ced7dc">
   <rect height="207.330771" width="271.81" x="43.55" y="12.9"/>
  </clipPath>
 </defs>
</svg>
