<?xml version="1.0" encoding="utf-8" standalone="no"?>
<!DOCTYPE svg PUBLIC "-//W3C//DTD SVG 1.1//EN"
  "http://www.w3.org/Graphics/SVG/1.1/DTD/svg11.dtd">
<!-- Created with matplotlib (https://matplotlib.org/) -->
<svg height="288pt" version="1.1" viewBox="0 0 432 288" width="432pt" xmlns="http://www.w3.org/2000/svg" xmlns:xlink="http://www.w3.org/1999/xlink">
 <defs>
  <style type="text/css">
*{stroke-linecap:butt;stroke-linejoin:round;}
  </style>
 </defs>
 <g id="figure_1">
  <g id="patch_1">
   <path d="M 0 288 
L 432 288 
L 432 0 
L 0 0 
z
" style="fill:#ffffff;"/>
  </g>
  <g id="axes_1">
   <g id="patch_2">
    <path d="M 43.55 220.230771 
L 315.36 220.230771 
L 315.36 12.9 
L 43.55 12.9 
z
" style="fill:#ffffff;"/>
   </g>
   <g id="matplotlib.axis_1">
    <g id="xtick_1">
     <g id="line2d_1">
      <defs>
       <path d="M 0 0 
L 0 3.5 
" id="m25cddd0116" style="stroke:#000000;stroke-width:0.8;"/>
      </defs>
      <g>
       <use style="stroke:#000000;stroke-width:0.8;" x="49.628" xlink:href="#m25cddd0116" y="220.230771"/>
      </g>
     </g>
     <g id="text_1">
      <!-- 2020-11-29 -->
      <defs>
       <path d="M 19.1875 8.296875 
L 53.609375 8.296875 
L 53.609375 0 
L 7.328125 0 
L 7.328125 8.296875 
Q 12.9375 14.109375 22.625 23.890625 
Q 32.328125 33.6875 34.8125 36.53125 
Q 39.546875 41.84375 41.421875 45.53125 
Q 43.3125 49.21875 43.3125 52.78125 
Q 43.3125 58.59375 39.234375 62.25 
Q 35.15625 65.921875 28.609375 65.921875 
Q 23.96875 65.921875 18.8125 64.3125 
Q 13.671875 62.703125 7.8125 59.421875 
L 7.8125 69.390625 
Q 13.765625 71.78125 18.9375 73 
Q 24.125 74.21875 28.421875 74.21875 
Q 39.75 74.21875 46.484375 68.546875 
Q 53.21875 62.890625 53.21875 53.421875 
Q 53.21875 48.921875 51.53125 44.890625 
Q 49.859375 40.875 45.40625 35.40625 
Q 44.1875 33.984375 37.640625 27.21875 
Q 31.109375 20.453125 19.1875 8.296875 
z
" id="DejaVuSans-50"/>
       <path d="M 31.78125 66.40625 
Q 24.171875 66.40625 20.328125 58.90625 
Q 16.5 51.421875 16.5 36.375 
Q 16.5 21.390625 20.328125 13.890625 
Q 24.171875 6.390625 31.78125 6.390625 
Q 39.453125 6.390625 43.28125 13.890625 
Q 47.125 21.390625 47.125 36.375 
Q 47.125 51.421875 43.28125 58.90625 
Q 39.453125 66.40625 31.78125 66.40625 
z
M 31.78125 74.21875 
Q 44.046875 74.21875 50.515625 64.515625 
Q 56.984375 54.828125 56.984375 36.375 
Q 56.984375 17.96875 50.515625 8.265625 
Q 44.046875 -1.421875 31.78125 -1.421875 
Q 19.53125 -1.421875 13.0625 8.265625 
Q 6.59375 17.96875 6.59375 36.375 
Q 6.59375 54.828125 13.0625 64.515625 
Q 19.53125 74.21875 31.78125 74.21875 
z
" id="DejaVuSans-48"/>
       <path d="M 4.890625 31.390625 
L 31.203125 31.390625 
L 31.203125 23.390625 
L 4.890625 23.390625 
z
" id="DejaVuSans-45"/>
       <path d="M 12.40625 8.296875 
L 28.515625 8.296875 
L 28.515625 63.921875 
L 10.984375 60.40625 
L 10.984375 69.390625 
L 28.421875 72.90625 
L 38.28125 72.90625 
L 38.28125 8.296875 
L 54.390625 8.296875 
L 54.390625 0 
L 12.40625 0 
z
" id="DejaVuSans-49"/>
       <path d="M 10.984375 1.515625 
L 10.984375 10.5 
Q 14.703125 8.734375 18.5 7.8125 
Q 22.3125 6.890625 25.984375 6.890625 
Q 35.75 6.890625 40.890625 13.453125 
Q 46.046875 20.015625 46.78125 33.40625 
Q 43.953125 29.203125 39.59375 26.953125 
Q 35.25 24.703125 29.984375 24.703125 
Q 19.046875 24.703125 12.671875 31.3125 
Q 6.296875 37.9375 6.296875 49.421875 
Q 6.296875 60.640625 12.9375 67.421875 
Q 19.578125 74.21875 30.609375 74.21875 
Q 43.265625 74.21875 49.921875 64.515625 
Q 56.59375 54.828125 56.59375 36.375 
Q 56.59375 19.140625 48.40625 8.859375 
Q 40.234375 -1.421875 26.421875 -1.421875 
Q 22.703125 -1.421875 18.890625 -0.6875 
Q 15.09375 0.046875 10.984375 1.515625 
z
M 30.609375 32.421875 
Q 37.25 32.421875 41.125 36.953125 
Q 45.015625 41.5 45.015625 49.421875 
Q 45.015625 57.28125 41.125 61.84375 
Q 37.25 66.40625 30.609375 66.40625 
Q 23.96875 66.40625 20.09375 61.84375 
Q 16.21875 57.28125 16.21875 49.421875 
Q 16.21875 41.5 20.09375 36.953125 
Q 23.96875 32.421875 30.609375 32.421875 
z
" id="DejaVuSans-57"/>
      </defs>
      <g transform="translate(25.842884 262.869024)rotate(-30)scale(0.1 -0.1)">
       <use xlink:href="#DejaVuSans-50"/>
       <use x="63.623047" xlink:href="#DejaVuSans-48"/>
       <use x="127.246094" xlink:href="#DejaVuSans-50"/>
       <use x="190.869141" xlink:href="#DejaVuSans-48"/>
       <use x="254.492188" xlink:href="#DejaVuSans-45"/>
       <use x="290.576172" xlink:href="#DejaVuSans-49"/>
       <use x="354.199219" xlink:href="#DejaVuSans-49"/>
       <use x="417.822266" xlink:href="#DejaVuSans-45"/>
       <use x="453.90625" xlink:href="#DejaVuSans-50"/>
       <use x="517.529297" xlink:href="#DejaVuSans-57"/>
      </g>
     </g>
    </g>
    <g id="xtick_2">
     <g id="line2d_2">
      <g>
       <use style="stroke:#000000;stroke-width:0.8;" x="58.296623" xlink:href="#m25cddd0116" y="220.230771"/>
      </g>
     </g>
     <g id="text_2">
      <!-- 2020-12-01 -->
      <g transform="translate(34.511507 262.869024)rotate(-30)scale(0.1 -0.1)">
       <use xlink:href="#DejaVuSans-50"/>
       <use x="63.623047" xlink:href="#DejaVuSans-48"/>
       <use x="127.246094" xlink:href="#DejaVuSans-50"/>
       <use x="190.869141" xlink:href="#DejaVuSans-48"/>
       <use x="254.492188" xlink:href="#DejaVuSans-45"/>
       <use x="290.576172" xlink:href="#DejaVuSans-49"/>
       <use x="354.199219" xlink:href="#DejaVuSans-50"/>
       <use x="417.822266" xlink:href="#DejaVuSans-45"/>
       <use x="453.90625" xlink:href="#DejaVuSans-48"/>
       <use x="517.529297" xlink:href="#DejaVuSans-49"/>
      </g>
     </g>
    </g>
    <g id="xtick_3">
     <g id="line2d_3">
      <g>
       <use style="stroke:#000000;stroke-width:0.8;" x="88.636805" xlink:href="#m25cddd0116" y="220.230771"/>
      </g>
     </g>
     <g id="text_3">
      <!-- 2020-12-08 -->
      <defs>
       <path d="M 31.78125 34.625 
Q 24.75 34.625 20.71875 30.859375 
Q 16.703125 27.09375 16.703125 20.515625 
Q 16.703125 13.921875 20.71875 10.15625 
Q 24.75 6.390625 31.78125 6.390625 
Q 38.8125 6.390625 42.859375 10.171875 
Q 46.921875 13.96875 46.921875 20.515625 
Q 46.921875 27.09375 42.890625 30.859375 
Q 38.875 34.625 31.78125 34.625 
z
M 21.921875 38.8125 
Q 15.578125 40.375 12.03125 44.71875 
Q 8.5 49.078125 8.5 55.328125 
Q 8.5 64.0625 14.71875 69.140625 
Q 20.953125 74.21875 31.78125 74.21875 
Q 42.671875 74.21875 48.875 69.140625 
Q 55.078125 64.0625 55.078125 55.328125 
Q 55.078125 49.078125 51.53125 44.71875 
Q 48 40.375 41.703125 38.8125 
Q 48.828125 37.15625 52.796875 32.3125 
Q 56.78125 27.484375 56.78125 20.515625 
Q 56.78125 9.90625 50.3125 4.234375 
Q 43.84375 -1.421875 31.78125 -1.421875 
Q 19.734375 -1.421875 13.25 4.234375 
Q 6.78125 9.90625 6.78125 20.515625 
Q 6.78125 27.484375 10.78125 32.3125 
Q 14.796875 37.15625 21.921875 38.8125 
z
M 18.3125 54.390625 
Q 18.3125 48.734375 21.84375 45.5625 
Q 25.390625 42.390625 31.78125 42.390625 
Q 38.140625 42.390625 41.71875 45.5625 
Q 45.3125 48.734375 45.3125 54.390625 
Q 45.3125 60.0625 41.71875 63.234375 
Q 38.140625 66.40625 31.78125 66.40625 
Q 25.390625 66.40625 21.84375 63.234375 
Q 18.3125 60.0625 18.3125 54.390625 
z
" id="DejaVuSans-56"/>
      </defs>
      <g transform="translate(64.851688 262.869024)rotate(-30)scale(0.1 -0.1)">
       <use xlink:href="#DejaVuSans-50"/>
       <use x="63.623047" xlink:href="#DejaVuSans-48"/>
       <use x="127.246094" xlink:href="#DejaVuSans-50"/>
       <use x="190.869141" xlink:href="#DejaVuSans-48"/>
       <use x="254.492188" xlink:href="#DejaVuSans-45"/>
       <use x="290.576172" xlink:href="#DejaVuSans-49"/>
       <use x="354.199219" xlink:href="#DejaVuSans-50"/>
       <use x="417.822266" xlink:href="#DejaVuSans-45"/>
       <use x="453.90625" xlink:href="#DejaVuSans-48"/>
       <use x="517.529297" xlink:href="#DejaVuSans-56"/>
      </g>
     </g>
    </g>
    <g id="xtick_4">
     <g id="line2d_4">
      <g>
       <use style="stroke:#000000;stroke-width:0.8;" x="118.976986" xlink:href="#m25cddd0116" y="220.230771"/>
      </g>
     </g>
     <g id="text_4">
      <!-- 2020-12-15 -->
      <defs>
       <path d="M 10.796875 72.90625 
L 49.515625 72.90625 
L 49.515625 64.59375 
L 19.828125 64.59375 
L 19.828125 46.734375 
Q 21.96875 47.46875 24.109375 47.828125 
Q 26.265625 48.1875 28.421875 48.1875 
Q 40.625 48.1875 47.75 41.5 
Q 54.890625 34.8125 54.890625 23.390625 
Q 54.890625 11.625 47.5625 5.09375 
Q 40.234375 -1.421875 26.90625 -1.421875 
Q 22.3125 -1.421875 17.546875 -0.640625 
Q 12.796875 0.140625 7.71875 1.703125 
L 7.71875 11.625 
Q 12.109375 9.234375 16.796875 8.0625 
Q 21.484375 6.890625 26.703125 6.890625 
Q 35.15625 6.890625 40.078125 11.328125 
Q 45.015625 15.765625 45.015625 23.390625 
Q 45.015625 31 40.078125 35.4375 
Q 35.15625 39.890625 26.703125 39.890625 
Q 22.75 39.890625 18.8125 39.015625 
Q 14.890625 38.140625 10.796875 36.28125 
z
" id="DejaVuSans-53"/>
      </defs>
      <g transform="translate(95.19187 262.869024)rotate(-30)scale(0.1 -0.1)">
       <use xlink:href="#DejaVuSans-50"/>
       <use x="63.623047" xlink:href="#DejaVuSans-48"/>
       <use x="127.246094" xlink:href="#DejaVuSans-50"/>
       <use x="190.869141" xlink:href="#DejaVuSans-48"/>
       <use x="254.492188" xlink:href="#DejaVuSans-45"/>
       <use x="290.576172" xlink:href="#DejaVuSans-49"/>
       <use x="354.199219" xlink:href="#DejaVuSans-50"/>
       <use x="417.822266" xlink:href="#DejaVuSans-45"/>
       <use x="453.90625" xlink:href="#DejaVuSans-49"/>
       <use x="517.529297" xlink:href="#DejaVuSans-53"/>
      </g>
     </g>
    </g>
    <g id="xtick_5">
     <g id="line2d_5">
      <g>
       <use style="stroke:#000000;stroke-width:0.8;" x="149.317167" xlink:href="#m25cddd0116" y="220.230771"/>
      </g>
     </g>
     <g id="text_5">
      <!-- 2020-12-22 -->
      <g transform="translate(125.532051 262.869024)rotate(-30)scale(0.1 -0.1)">
       <use xlink:href="#DejaVuSans-50"/>
       <use x="63.623047" xlink:href="#DejaVuSans-48"/>
       <use x="127.246094" xlink:href="#DejaVuSans-50"/>
       <use x="190.869141" xlink:href="#DejaVuSans-48"/>
       <use x="254.492188" xlink:href="#DejaVuSans-45"/>
       <use x="290.576172" xlink:href="#DejaVuSans-49"/>
       <use x="354.199219" xlink:href="#DejaVuSans-50"/>
       <use x="417.822266" xlink:href="#DejaVuSans-45"/>
       <use x="453.90625" xlink:href="#DejaVuSans-50"/>
       <use x="517.529297" xlink:href="#DejaVuSans-50"/>
      </g>
     </g>
    </g>
    <g id="xtick_6">
     <g id="line2d_6">
      <g>
       <use style="stroke:#000000;stroke-width:0.8;" x="179.657349" xlink:href="#m25cddd0116" y="220.230771"/>
      </g>
     </g>
     <g id="text_6">
      <!-- 2020-12-29 -->
      <g transform="translate(155.872233 262.869024)rotate(-30)scale(0.1 -0.1)">
       <use xlink:href="#DejaVuSans-50"/>
       <use x="63.623047" xlink:href="#DejaVuSans-48"/>
       <use x="127.246094" xlink:href="#DejaVuSans-50"/>
       <use x="190.869141" xlink:href="#DejaVuSans-48"/>
       <use x="254.492188" xlink:href="#DejaVuSans-45"/>
       <use x="290.576172" xlink:href="#DejaVuSans-49"/>
       <use x="354.199219" xlink:href="#DejaVuSans-50"/>
       <use x="417.822266" xlink:href="#DejaVuSans-45"/>
       <use x="453.90625" xlink:href="#DejaVuSans-50"/>
       <use x="517.529297" xlink:href="#DejaVuSans-57"/>
      </g>
     </g>
    </g>
    <g id="xtick_7">
     <g id="line2d_7">
      <g>
       <use style="stroke:#000000;stroke-width:0.8;" x="192.660284" xlink:href="#m25cddd0116" y="220.230771"/>
      </g>
     </g>
     <g id="text_7">
      <!-- 2021-01-01 -->
      <g transform="translate(168.875167 262.869024)rotate(-30)scale(0.1 -0.1)">
       <use xlink:href="#DejaVuSans-50"/>
       <use x="63.623047" xlink:href="#DejaVuSans-48"/>
       <use x="127.246094" xlink:href="#DejaVuSans-50"/>
       <use x="190.869141" xlink:href="#DejaVuSans-49"/>
       <use x="254.492188" xlink:href="#DejaVuSans-45"/>
       <use x="290.576172" xlink:href="#DejaVuSans-48"/>
       <use x="354.199219" xlink:href="#DejaVuSans-49"/>
       <use x="417.822266" xlink:href="#DejaVuSans-45"/>
       <use x="453.90625" xlink:href="#DejaVuSans-48"/>
       <use x="517.529297" xlink:href="#DejaVuSans-49"/>
      </g>
     </g>
    </g>
    <g id="xtick_8">
     <g id="line2d_8">
      <g>
       <use style="stroke:#000000;stroke-width:0.8;" x="223.000465" xlink:href="#m25cddd0116" y="220.230771"/>
      </g>
     </g>
     <g id="text_8">
      <!-- 2021-01-08 -->
      <g transform="translate(199.215349 262.869024)rotate(-30)scale(0.1 -0.1)">
       <use xlink:href="#DejaVuSans-50"/>
       <use x="63.623047" xlink:href="#DejaVuSans-48"/>
       <use x="127.246094" xlink:href="#DejaVuSans-50"/>
       <use x="190.869141" xlink:href="#DejaVuSans-49"/>
       <use x="254.492188" xlink:href="#DejaVuSans-45"/>
       <use x="290.576172" xlink:href="#DejaVuSans-48"/>
       <use x="354.199219" xlink:href="#DejaVuSans-49"/>
       <use x="417.822266" xlink:href="#DejaVuSans-45"/>
       <use x="453.90625" xlink:href="#DejaVuSans-48"/>
       <use x="517.529297" xlink:href="#DejaVuSans-56"/>
      </g>
     </g>
    </g>
    <g id="xtick_9">
     <g id="line2d_9">
      <g>
       <use style="stroke:#000000;stroke-width:0.8;" x="253.340646" xlink:href="#m25cddd0116" y="220.230771"/>
      </g>
     </g>
     <g id="text_9">
      <!-- 2021-01-15 -->
      <g transform="translate(229.55553 262.869024)rotate(-30)scale(0.1 -0.1)">
       <use xlink:href="#DejaVuSans-50"/>
       <use x="63.623047" xlink:href="#DejaVuSans-48"/>
       <use x="127.246094" xlink:href="#DejaVuSans-50"/>
       <use x="190.869141" xlink:href="#DejaVuSans-49"/>
       <use x="254.492188" xlink:href="#DejaVuSans-45"/>
       <use x="290.576172" xlink:href="#DejaVuSans-48"/>
       <use x="354.199219" xlink:href="#DejaVuSans-49"/>
       <use x="417.822266" xlink:href="#DejaVuSans-45"/>
       <use x="453.90625" xlink:href="#DejaVuSans-49"/>
       <use x="517.529297" xlink:href="#DejaVuSans-53"/>
      </g>
     </g>
    </g>
    <g id="xtick_10">
     <g id="line2d_10">
      <g>
       <use style="stroke:#000000;stroke-width:0.8;" x="283.680828" xlink:href="#m25cddd0116" y="220.230771"/>
      </g>
     </g>
     <g id="text_10">
      <!-- 2021-01-22 -->
      <g transform="translate(259.895712 262.869024)rotate(-30)scale(0.1 -0.1)">
       <use xlink:href="#DejaVuSans-50"/>
       <use x="63.623047" xlink:href="#DejaVuSans-48"/>
       <use x="127.246094" xlink:href="#DejaVuSans-50"/>
       <use x="190.869141" xlink:href="#DejaVuSans-49"/>
       <use x="254.492188" xlink:href="#DejaVuSans-45"/>
       <use x="290.576172" xlink:href="#DejaVuSans-48"/>
       <use x="354.199219" xlink:href="#DejaVuSans-49"/>
       <use x="417.822266" xlink:href="#DejaVuSans-45"/>
       <use x="453.90625" xlink:href="#DejaVuSans-50"/>
       <use x="517.529297" xlink:href="#DejaVuSans-50"/>
      </g>
     </g>
    </g>
    <g id="xtick_11">
     <g id="line2d_11">
      <g>
       <use style="stroke:#000000;stroke-width:0.8;" x="314.021009" xlink:href="#m25cddd0116" y="220.230771"/>
      </g>
     </g>
     <g id="text_11">
      <!-- 2021-01-29 -->
      <g transform="translate(290.235893 262.869024)rotate(-30)scale(0.1 -0.1)">
       <use xlink:href="#DejaVuSans-50"/>
       <use x="63.623047" xlink:href="#DejaVuSans-48"/>
       <use x="127.246094" xlink:href="#DejaVuSans-50"/>
       <use x="190.869141" xlink:href="#DejaVuSans-49"/>
       <use x="254.492188" xlink:href="#DejaVuSans-45"/>
       <use x="290.576172" xlink:href="#DejaVuSans-48"/>
       <use x="354.199219" xlink:href="#DejaVuSans-49"/>
       <use x="417.822266" xlink:href="#DejaVuSans-45"/>
       <use x="453.90625" xlink:href="#DejaVuSans-50"/>
       <use x="517.529297" xlink:href="#DejaVuSans-57"/>
      </g>
     </g>
    </g>
    <g id="text_12">
     <!-- Date -->
     <defs>
      <path d="M 19.671875 64.796875 
L 19.671875 8.109375 
L 31.59375 8.109375 
Q 46.6875 8.109375 53.6875 14.9375 
Q 60.6875 21.78125 60.6875 36.53125 
Q 60.6875 51.171875 53.6875 57.984375 
Q 46.6875 64.796875 31.59375 64.796875 
z
M 9.8125 72.90625 
L 30.078125 72.90625 
Q 51.265625 72.90625 61.171875 64.09375 
Q 71.09375 55.28125 71.09375 36.53125 
Q 71.09375 17.671875 61.125 8.828125 
Q 51.171875 0 30.078125 0 
L 9.8125 0 
z
" id="DejaVuSans-68"/>
      <path d="M 34.28125 27.484375 
Q 23.390625 27.484375 19.1875 25 
Q 14.984375 22.515625 14.984375 16.5 
Q 14.984375 11.71875 18.140625 8.90625 
Q 21.296875 6.109375 26.703125 6.109375 
Q 34.1875 6.109375 38.703125 11.40625 
Q 43.21875 16.703125 43.21875 25.484375 
L 43.21875 27.484375 
z
M 52.203125 31.203125 
L 52.203125 0 
L 43.21875 0 
L 43.21875 8.296875 
Q 40.140625 3.328125 35.546875 0.953125 
Q 30.953125 -1.421875 24.3125 -1.421875 
Q 15.921875 -1.421875 10.953125 3.296875 
Q 6 8.015625 6 15.921875 
Q 6 25.140625 12.171875 29.828125 
Q 18.359375 34.515625 30.609375 34.515625 
L 43.21875 34.515625 
L 43.21875 35.40625 
Q 43.21875 41.609375 39.140625 45 
Q 35.0625 48.390625 27.6875 48.390625 
Q 23 48.390625 18.546875 47.265625 
Q 14.109375 46.140625 10.015625 43.890625 
L 10.015625 52.203125 
Q 14.9375 54.109375 19.578125 55.046875 
Q 24.21875 56 28.609375 56 
Q 40.484375 56 46.34375 49.84375 
Q 52.203125 43.703125 52.203125 31.203125 
z
" id="DejaVuSans-97"/>
      <path d="M 18.3125 70.21875 
L 18.3125 54.6875 
L 36.8125 54.6875 
L 36.8125 47.703125 
L 18.3125 47.703125 
L 18.3125 18.015625 
Q 18.3125 11.328125 20.140625 9.421875 
Q 21.96875 7.515625 27.59375 7.515625 
L 36.8125 7.515625 
L 36.8125 0 
L 27.59375 0 
Q 17.1875 0 13.234375 3.875 
Q 9.28125 7.765625 9.28125 18.015625 
L 9.28125 47.703125 
L 2.6875 47.703125 
L 2.6875 54.6875 
L 9.28125 54.6875 
L 9.28125 70.21875 
z
" id="DejaVuSans-116"/>
      <path d="M 56.203125 29.59375 
L 56.203125 25.203125 
L 14.890625 25.203125 
Q 15.484375 15.921875 20.484375 11.0625 
Q 25.484375 6.203125 34.421875 6.203125 
Q 39.59375 6.203125 44.453125 7.46875 
Q 49.3125 8.734375 54.109375 11.28125 
L 54.109375 2.78125 
Q 49.265625 0.734375 44.1875 -0.34375 
Q 39.109375 -1.421875 33.890625 -1.421875 
Q 20.796875 -1.421875 13.15625 6.1875 
Q 5.515625 13.8125 5.515625 26.8125 
Q 5.515625 40.234375 12.765625 48.109375 
Q 20.015625 56 32.328125 56 
Q 43.359375 56 49.78125 48.890625 
Q 56.203125 41.796875 56.203125 29.59375 
z
M 47.21875 32.234375 
Q 47.125 39.59375 43.09375 43.984375 
Q 39.0625 48.390625 32.421875 48.390625 
Q 24.90625 48.390625 20.390625 44.140625 
Q 15.875 39.890625 15.1875 32.171875 
z
" id="DejaVuSans-101"/>
     </defs>
     <g transform="translate(167.504219 276.268523)scale(0.1 -0.1)">
      <use xlink:href="#DejaVuSans-68"/>
      <use x="77.001953" xlink:href="#DejaVuSans-97"/>
      <use x="138.28125" xlink:href="#DejaVuSans-116"/>
      <use x="177.490234" xlink:href="#DejaVuSans-101"/>
     </g>
    </g>
   </g>
   <g id="matplotlib.axis_2">
    <g id="ytick_1">
     <g id="line2d_12">
      <defs>
       <path d="M 0 0 
L -3.5 0 
" id="m901957993b" style="stroke:#000000;stroke-width:0.8;"/>
      </defs>
      <g>
       <use style="stroke:#000000;stroke-width:0.8;" x="43.55" xlink:href="#m901957993b" y="210.806645"/>
      </g>
     </g>
     <g id="text_13">
      <!-- 0 -->
      <g transform="translate(30.1875 214.605864)scale(0.1 -0.1)">
       <use xlink:href="#DejaVuSans-48"/>
      </g>
     </g>
    </g>
    <g id="ytick_2">
     <g id="line2d_13">
      <g>
       <use style="stroke:#000000;stroke-width:0.8;" x="43.55" xlink:href="#m901957993b" y="187.24633"/>
      </g>
     </g>
     <g id="text_14">
      <!-- 5 -->
      <g transform="translate(30.1875 191.045549)scale(0.1 -0.1)">
       <use xlink:href="#DejaVuSans-53"/>
      </g>
     </g>
    </g>
    <g id="ytick_3">
     <g id="line2d_14">
      <g>
       <use style="stroke:#000000;stroke-width:0.8;" x="43.55" xlink:href="#m901957993b" y="163.686016"/>
      </g>
     </g>
     <g id="text_15">
      <!-- 10 -->
      <g transform="translate(23.825 167.485234)scale(0.1 -0.1)">
       <use xlink:href="#DejaVuSans-49"/>
       <use x="63.623047" xlink:href="#DejaVuSans-48"/>
      </g>
     </g>
    </g>
    <g id="ytick_4">
     <g id="line2d_15">
      <g>
       <use style="stroke:#000000;stroke-width:0.8;" x="43.55" xlink:href="#m901957993b" y="140.125701"/>
      </g>
     </g>
     <g id="text_16">
      <!-- 15 -->
      <g transform="translate(23.825 143.924919)scale(0.1 -0.1)">
       <use xlink:href="#DejaVuSans-49"/>
       <use x="63.623047" xlink:href="#DejaVuSans-53"/>
      </g>
     </g>
    </g>
    <g id="ytick_5">
     <g id="line2d_16">
      <g>
       <use style="stroke:#000000;stroke-width:0.8;" x="43.55" xlink:href="#m901957993b" y="116.565386"/>
      </g>
     </g>
     <g id="text_17">
      <!-- 20 -->
      <g transform="translate(23.825 120.364604)scale(0.1 -0.1)">
       <use xlink:href="#DejaVuSans-50"/>
       <use x="63.623047" xlink:href="#DejaVuSans-48"/>
      </g>
     </g>
    </g>
    <g id="ytick_6">
     <g id="line2d_17">
      <g>
       <use style="stroke:#000000;stroke-width:0.8;" x="43.55" xlink:href="#m901957993b" y="93.005071"/>
      </g>
     </g>
     <g id="text_18">
      <!-- 25 -->
      <g transform="translate(23.825 96.80429)scale(0.1 -0.1)">
       <use xlink:href="#DejaVuSans-50"/>
       <use x="63.623047" xlink:href="#DejaVuSans-53"/>
      </g>
     </g>
    </g>
    <g id="ytick_7">
     <g id="line2d_18">
      <g>
       <use style="stroke:#000000;stroke-width:0.8;" x="43.55" xlink:href="#m901957993b" y="69.444756"/>
      </g>
     </g>
     <g id="text_19">
      <!-- 30 -->
      <defs>
       <path d="M 40.578125 39.3125 
Q 47.65625 37.796875 51.625 33 
Q 55.609375 28.21875 55.609375 21.1875 
Q 55.609375 10.40625 48.1875 4.484375 
Q 40.765625 -1.421875 27.09375 -1.421875 
Q 22.515625 -1.421875 17.65625 -0.515625 
Q 12.796875 0.390625 7.625 2.203125 
L 7.625 11.71875 
Q 11.71875 9.328125 16.59375 8.109375 
Q 21.484375 6.890625 26.8125 6.890625 
Q 36.078125 6.890625 40.9375 10.546875 
Q 45.796875 14.203125 45.796875 21.1875 
Q 45.796875 27.640625 41.28125 31.265625 
Q 36.765625 34.90625 28.71875 34.90625 
L 20.21875 34.90625 
L 20.21875 43.015625 
L 29.109375 43.015625 
Q 36.375 43.015625 40.234375 45.921875 
Q 44.09375 48.828125 44.09375 54.296875 
Q 44.09375 59.90625 40.109375 62.90625 
Q 36.140625 65.921875 28.71875 65.921875 
Q 24.65625 65.921875 20.015625 65.03125 
Q 15.375 64.15625 9.8125 62.3125 
L 9.8125 71.09375 
Q 15.4375 72.65625 20.34375 73.4375 
Q 25.25 74.21875 29.59375 74.21875 
Q 40.828125 74.21875 47.359375 69.109375 
Q 53.90625 64.015625 53.90625 55.328125 
Q 53.90625 49.265625 50.4375 45.09375 
Q 46.96875 40.921875 40.578125 39.3125 
z
" id="DejaVuSans-51"/>
      </defs>
      <g transform="translate(23.825 73.243975)scale(0.1 -0.1)">
       <use xlink:href="#DejaVuSans-51"/>
       <use x="63.623047" xlink:href="#DejaVuSans-48"/>
      </g>
     </g>
    </g>
    <g id="ytick_8">
     <g id="line2d_19">
      <g>
       <use style="stroke:#000000;stroke-width:0.8;" x="43.55" xlink:href="#m901957993b" y="45.884441"/>
      </g>
     </g>
     <g id="text_20">
      <!-- 35 -->
      <g transform="translate(23.825 49.68366)scale(0.1 -0.1)">
       <use xlink:href="#DejaVuSans-51"/>
       <use x="63.623047" xlink:href="#DejaVuSans-53"/>
      </g>
     </g>
    </g>
    <g id="ytick_9">
     <g id="line2d_20">
      <g>
       <use style="stroke:#000000;stroke-width:0.8;" x="43.55" xlink:href="#m901957993b" y="22.324126"/>
      </g>
     </g>
     <g id="text_21">
      <!-- 40 -->
      <defs>
       <path d="M 37.796875 64.3125 
L 12.890625 25.390625 
L 37.796875 25.390625 
z
M 35.203125 72.90625 
L 47.609375 72.90625 
L 47.609375 25.390625 
L 58.015625 25.390625 
L 58.015625 17.1875 
L 47.609375 17.1875 
L 47.609375 0 
L 37.796875 0 
L 37.796875 17.1875 
L 4.890625 17.1875 
L 4.890625 26.703125 
z
" id="DejaVuSans-52"/>
      </defs>
      <g transform="translate(23.825 26.123345)scale(0.1 -0.1)">
       <use xlink:href="#DejaVuSans-52"/>
       <use x="63.623047" xlink:href="#DejaVuSans-48"/>
      </g>
     </g>
    </g>
    <g id="text_22">
     <!-- Students Registered -->
     <defs>
      <path d="M 53.515625 70.515625 
L 53.515625 60.890625 
Q 47.90625 63.578125 42.921875 64.890625 
Q 37.9375 66.21875 33.296875 66.21875 
Q 25.25 66.21875 20.875 63.09375 
Q 16.5 59.96875 16.5 54.203125 
Q 16.5 49.359375 19.40625 46.890625 
Q 22.3125 44.4375 30.421875 42.921875 
L 36.375 41.703125 
Q 47.40625 39.59375 52.65625 34.296875 
Q 57.90625 29 57.90625 20.125 
Q 57.90625 9.515625 50.796875 4.046875 
Q 43.703125 -1.421875 29.984375 -1.421875 
Q 24.8125 -1.421875 18.96875 -0.25 
Q 13.140625 0.921875 6.890625 3.21875 
L 6.890625 13.375 
Q 12.890625 10.015625 18.65625 8.296875 
Q 24.421875 6.59375 29.984375 6.59375 
Q 38.421875 6.59375 43.015625 9.90625 
Q 47.609375 13.234375 47.609375 19.390625 
Q 47.609375 24.75 44.3125 27.78125 
Q 41.015625 30.8125 33.5 32.328125 
L 27.484375 33.5 
Q 16.453125 35.6875 11.515625 40.375 
Q 6.59375 45.0625 6.59375 53.421875 
Q 6.59375 63.09375 13.40625 68.65625 
Q 20.21875 74.21875 32.171875 74.21875 
Q 37.3125 74.21875 42.625 73.28125 
Q 47.953125 72.359375 53.515625 70.515625 
z
" id="DejaVuSans-83"/>
      <path d="M 8.5 21.578125 
L 8.5 54.6875 
L 17.484375 54.6875 
L 17.484375 21.921875 
Q 17.484375 14.15625 20.5 10.265625 
Q 23.53125 6.390625 29.59375 6.390625 
Q 36.859375 6.390625 41.078125 11.03125 
Q 45.3125 15.671875 45.3125 23.6875 
L 45.3125 54.6875 
L 54.296875 54.6875 
L 54.296875 0 
L 45.3125 0 
L 45.3125 8.40625 
Q 42.046875 3.421875 37.71875 1 
Q 33.40625 -1.421875 27.6875 -1.421875 
Q 18.265625 -1.421875 13.375 4.4375 
Q 8.5 10.296875 8.5 21.578125 
z
M 31.109375 56 
z
" id="DejaVuSans-117"/>
      <path d="M 45.40625 46.390625 
L 45.40625 75.984375 
L 54.390625 75.984375 
L 54.390625 0 
L 45.40625 0 
L 45.40625 8.203125 
Q 42.578125 3.328125 38.25 0.953125 
Q 33.9375 -1.421875 27.875 -1.421875 
Q 17.96875 -1.421875 11.734375 6.484375 
Q 5.515625 14.40625 5.515625 27.296875 
Q 5.515625 40.1875 11.734375 48.09375 
Q 17.96875 56 27.875 56 
Q 33.9375 56 38.25 53.625 
Q 42.578125 51.265625 45.40625 46.390625 
z
M 14.796875 27.296875 
Q 14.796875 17.390625 18.875 11.75 
Q 22.953125 6.109375 30.078125 6.109375 
Q 37.203125 6.109375 41.296875 11.75 
Q 45.40625 17.390625 45.40625 27.296875 
Q 45.40625 37.203125 41.296875 42.84375 
Q 37.203125 48.484375 30.078125 48.484375 
Q 22.953125 48.484375 18.875 42.84375 
Q 14.796875 37.203125 14.796875 27.296875 
z
" id="DejaVuSans-100"/>
      <path d="M 54.890625 33.015625 
L 54.890625 0 
L 45.90625 0 
L 45.90625 32.71875 
Q 45.90625 40.484375 42.875 44.328125 
Q 39.84375 48.1875 33.796875 48.1875 
Q 26.515625 48.1875 22.3125 43.546875 
Q 18.109375 38.921875 18.109375 30.90625 
L 18.109375 0 
L 9.078125 0 
L 9.078125 54.6875 
L 18.109375 54.6875 
L 18.109375 46.1875 
Q 21.34375 51.125 25.703125 53.5625 
Q 30.078125 56 35.796875 56 
Q 45.21875 56 50.046875 50.171875 
Q 54.890625 44.34375 54.890625 33.015625 
z
" id="DejaVuSans-110"/>
      <path d="M 44.28125 53.078125 
L 44.28125 44.578125 
Q 40.484375 46.53125 36.375 47.5 
Q 32.28125 48.484375 27.875 48.484375 
Q 21.1875 48.484375 17.84375 46.4375 
Q 14.5 44.390625 14.5 40.28125 
Q 14.5 37.15625 16.890625 35.375 
Q 19.28125 33.59375 26.515625 31.984375 
L 29.59375 31.296875 
Q 39.15625 29.25 43.1875 25.515625 
Q 47.21875 21.78125 47.21875 15.09375 
Q 47.21875 7.46875 41.1875 3.015625 
Q 35.15625 -1.421875 24.609375 -1.421875 
Q 20.21875 -1.421875 15.453125 -0.5625 
Q 10.6875 0.296875 5.421875 2 
L 5.421875 11.28125 
Q 10.40625 8.6875 15.234375 7.390625 
Q 20.0625 6.109375 24.8125 6.109375 
Q 31.15625 6.109375 34.5625 8.28125 
Q 37.984375 10.453125 37.984375 14.40625 
Q 37.984375 18.0625 35.515625 20.015625 
Q 33.0625 21.96875 24.703125 23.78125 
L 21.578125 24.515625 
Q 13.234375 26.265625 9.515625 29.90625 
Q 5.8125 33.546875 5.8125 39.890625 
Q 5.8125 47.609375 11.28125 51.796875 
Q 16.75 56 26.8125 56 
Q 31.78125 56 36.171875 55.265625 
Q 40.578125 54.546875 44.28125 53.078125 
z
" id="DejaVuSans-115"/>
      <path id="DejaVuSans-32"/>
      <path d="M 44.390625 34.1875 
Q 47.5625 33.109375 50.5625 29.59375 
Q 53.5625 26.078125 56.59375 19.921875 
L 66.609375 0 
L 56 0 
L 46.6875 18.703125 
Q 43.0625 26.03125 39.671875 28.421875 
Q 36.28125 30.8125 30.421875 30.8125 
L 19.671875 30.8125 
L 19.671875 0 
L 9.8125 0 
L 9.8125 72.90625 
L 32.078125 72.90625 
Q 44.578125 72.90625 50.734375 67.671875 
Q 56.890625 62.453125 56.890625 51.90625 
Q 56.890625 45.015625 53.6875 40.46875 
Q 50.484375 35.9375 44.390625 34.1875 
z
M 19.671875 64.796875 
L 19.671875 38.921875 
L 32.078125 38.921875 
Q 39.203125 38.921875 42.84375 42.21875 
Q 46.484375 45.515625 46.484375 51.90625 
Q 46.484375 58.296875 42.84375 61.546875 
Q 39.203125 64.796875 32.078125 64.796875 
z
" id="DejaVuSans-82"/>
      <path d="M 45.40625 27.984375 
Q 45.40625 37.75 41.375 43.109375 
Q 37.359375 48.484375 30.078125 48.484375 
Q 22.859375 48.484375 18.828125 43.109375 
Q 14.796875 37.75 14.796875 27.984375 
Q 14.796875 18.265625 18.828125 12.890625 
Q 22.859375 7.515625 30.078125 7.515625 
Q 37.359375 7.515625 41.375 12.890625 
Q 45.40625 18.265625 45.40625 27.984375 
z
M 54.390625 6.78125 
Q 54.390625 -7.171875 48.1875 -13.984375 
Q 42 -20.796875 29.203125 -20.796875 
Q 24.46875 -20.796875 20.265625 -20.09375 
Q 16.0625 -19.390625 12.109375 -17.921875 
L 12.109375 -9.1875 
Q 16.0625 -11.328125 19.921875 -12.34375 
Q 23.78125 -13.375 27.78125 -13.375 
Q 36.625 -13.375 41.015625 -8.765625 
Q 45.40625 -4.15625 45.40625 5.171875 
L 45.40625 9.625 
Q 42.625 4.78125 38.28125 2.390625 
Q 33.9375 0 27.875 0 
Q 17.828125 0 11.671875 7.65625 
Q 5.515625 15.328125 5.515625 27.984375 
Q 5.515625 40.671875 11.671875 48.328125 
Q 17.828125 56 27.875 56 
Q 33.9375 56 38.28125 53.609375 
Q 42.625 51.21875 45.40625 46.390625 
L 45.40625 54.6875 
L 54.390625 54.6875 
z
" id="DejaVuSans-103"/>
      <path d="M 9.421875 54.6875 
L 18.40625 54.6875 
L 18.40625 0 
L 9.421875 0 
z
M 9.421875 75.984375 
L 18.40625 75.984375 
L 18.40625 64.59375 
L 9.421875 64.59375 
z
" id="DejaVuSans-105"/>
      <path d="M 41.109375 46.296875 
Q 39.59375 47.171875 37.8125 47.578125 
Q 36.03125 48 33.890625 48 
Q 26.265625 48 22.1875 43.046875 
Q 18.109375 38.09375 18.109375 28.8125 
L 18.109375 0 
L 9.078125 0 
L 9.078125 54.6875 
L 18.109375 54.6875 
L 18.109375 46.1875 
Q 20.953125 51.171875 25.484375 53.578125 
Q 30.03125 56 36.53125 56 
Q 37.453125 56 38.578125 55.875 
Q 39.703125 55.765625 41.0625 55.515625 
z
" id="DejaVuSans-114"/>
     </defs>
     <g transform="translate(17.745313 167.498979)rotate(-90)scale(0.1 -0.1)">
      <use xlink:href="#DejaVuSans-83"/>
      <use x="63.476562" xlink:href="#DejaVuSans-116"/>
      <use x="102.685547" xlink:href="#DejaVuSans-117"/>
      <use x="166.064453" xlink:href="#DejaVuSans-100"/>
      <use x="229.541016" xlink:href="#DejaVuSans-101"/>
      <use x="291.064453" xlink:href="#DejaVuSans-110"/>
      <use x="354.443359" xlink:href="#DejaVuSans-116"/>
      <use x="393.652344" xlink:href="#DejaVuSans-115"/>
      <use x="445.751953" xlink:href="#DejaVuSans-32"/>
      <use x="477.539062" xlink:href="#DejaVuSans-82"/>
      <use x="546.958984" xlink:href="#DejaVuSans-101"/>
      <use x="608.482422" xlink:href="#DejaVuSans-103"/>
      <use x="671.958984" xlink:href="#DejaVuSans-105"/>
      <use x="699.742188" xlink:href="#DejaVuSans-115"/>
      <use x="751.841797" xlink:href="#DejaVuSans-116"/>
      <use x="791.050781" xlink:href="#DejaVuSans-101"/>
      <use x="852.574219" xlink:href="#DejaVuSans-114"/>
      <use x="893.65625" xlink:href="#DejaVuSans-101"/>
      <use x="955.179688" xlink:href="#DejaVuSans-100"/>
     </g>
    </g>
   </g>
   <g id="line2d_21">
    <path clip-path="url(#p2d6e9405e2)" d="M 55.905 210.806645 
L 56.09528 210.806645 
L 56.09528 201.382519 
L 56.205073 201.382519 
L 56.942512 201.382519 
L 56.942512 196.670456 
L 57.029767 196.670456 
L 61.096209 196.670456 
L 61.096209 191.958393 
L 61.186504 191.958393 
L 64.527567 191.958393 
L 64.527567 177.822204 
L 64.617864 177.822204 
L 64.708146 177.822204 
L 64.708146 173.110142 
L 64.798459 173.110142 
L 64.888741 173.110142 
L 64.888741 154.26189 
L 64.97905 154.26189 
L 65.069336 154.26189 
L 65.069336 149.549827 
L 65.159633 149.549827 
L 65.249935 149.549827 
L 65.249935 140.125701 
L 65.340221 140.125701 
L 65.430558 140.125701 
L 65.430558 125.989512 
L 65.520852 125.989512 
L 68.681273 125.989512 
L 68.681273 121.277449 
L 68.771568 121.277449 
L 68.861849 121.277449 
L 68.861849 116.565386 
L 68.952145 116.565386 
L 69.403651 116.565386 
L 69.403651 111.853323 
L 69.493957 111.853323 
L 69.764848 111.853323 
L 69.764848 97.717134 
L 69.855133 97.717134 
L 69.945439 97.717134 
L 69.945439 93.005071 
L 70.035758 93.005071 
L 73.557359 93.005071 
L 73.557359 88.293008 
L 73.647676 88.293008 
L 73.737949 88.293008 
L 73.737949 83.580945 
L 73.828274 83.580945 
L 74.099167 83.580945 
L 74.099167 78.868882 
L 74.189456 78.868882 
L 74.640945 78.868882 
L 74.640945 74.156819 
L 74.731234 74.156819 
L 77.711108 74.156819 
L 77.711108 69.444756 
L 77.801373 69.444756 
L 86.199134 69.444756 
L 86.199134 45.884441 
L 86.289387 45.884441 
L 86.379712 45.884441 
L 86.379712 36.460315 
L 86.469982 36.460315 
L 86.56032 36.460315 
L 86.56032 31.748252 
L 86.650598 31.748252 
L 147.421253 31.748252 
L 147.421253 36.460315 
L 147.511568 36.460315 
L 147.601843 36.460315 
L 147.601843 31.748252 
L 147.692143 31.748252 
L 157.354043 31.748252 
L 157.354043 36.460315 
L 157.444372 36.460315 
L 157.534652 36.460315 
L 157.534652 31.748252 
L 157.624945 31.748252 
L 246.749258 31.748252 
L 246.749258 22.324126 
L 246.839521 22.324126 
L 303.005 22.324126 
L 303.005 22.324126 
" style="fill:none;stroke:#1b9e77;stroke-linecap:square;stroke-width:1.5;"/>
   </g>
   <g id="line2d_22">
    <path clip-path="url(#p2d6e9405e2)" d="M 93.603578 196.670456 
L 94.506519 196.670456 
L 94.506519 182.534267 
L 94.596968 182.534267 
L 94.68712 182.534267 
L 94.68712 177.822204 
L 94.777455 177.822204 
L 94.867712 177.822204 
L 94.867712 158.973953 
L 94.958047 158.973953 
L 95.228922 158.973953 
L 95.228922 144.837764 
L 95.319221 144.837764 
L 95.590107 144.837764 
L 95.590107 116.565386 
L 95.680423 116.565386 
L 95.951297 116.565386 
L 95.951297 107.14126 
L 96.041626 107.14126 
L 96.131917 107.14126 
L 96.131917 102.429197 
L 96.222234 102.429197 
L 96.312498 102.429197 
L 96.312498 97.717134 
L 96.402827 97.717134 
L 96.67372 97.717134 
L 96.67372 93.005071 
L 96.763976 93.005071 
L 99.202029 93.005071 
L 99.202029 74.156819 
L 99.292358 74.156819 
L 99.563234 74.156819 
L 99.563234 69.444756 
L 99.653517 69.444756 
L 99.924454 69.444756 
L 99.924454 60.02063 
L 100.014733 60.02063 
L 100.105051 60.02063 
L 100.105051 55.308567 
L 100.195326 55.308567 
L 100.466249 55.308567 
L 100.466249 50.596504 
L 100.556516 50.596504 
L 104.258756 50.596504 
L 104.258756 45.884441 
L 104.349036 45.884441 
L 104.439321 45.884441 
L 104.439321 41.172378 
L 104.52966 41.172378 
L 104.619927 41.172378 
L 104.619927 36.460315 
L 104.710246 36.460315 
L 105.16174 36.460315 
L 105.16174 31.748252 
L 105.252041 31.748252 
L 116.719877 31.748252 
L 116.719877 22.324126 
L 116.810198 22.324126 
L 138.933228 22.324126 
L 138.933228 27.036189 
L 139.023537 27.036189 
L 140.016805 27.036189 
L 140.016805 22.324126 
L 140.107107 22.324126 
L 155.728706 22.324126 
L 155.728706 27.036189 
L 155.819008 27.036189 
L 157.173469 27.036189 
L 157.173469 22.324126 
L 157.263778 22.324126 
L 274.019307 22.324126 
L 274.019307 27.036189 
L 274.109595 27.036189 
L 279.075993 27.036189 
L 279.075993 22.324126 
L 279.16628 22.324126 
L 303.005 22.324126 
L 303.005 22.324126 
" style="fill:none;stroke:#d95f02;stroke-linecap:square;stroke-width:1.5;"/>
   </g>
   <g id="line2d_23">
    <path clip-path="url(#p2d6e9405e2)" d="M 55.905 182.534267 
L 56.09528 182.534267 
L 56.09528 177.822204 
L 56.205073 177.822204 
L 57.029767 177.822204 
L 57.029767 173.110142 
L 59.919341 173.110142 
L 59.919341 168.398079 
L 60.193252 168.398079 
L 60.193252 163.686016 
L 60.283561 163.686016 
L 60.373838 163.686016 
L 60.373838 158.973953 
L 60.464152 158.973953 
L 60.915651 158.973953 
L 60.915651 144.837764 
L 61.005968 144.837764 
L 61.096209 144.837764 
L 61.096209 140.125701 
L 61.186504 140.125701 
L 64.708146 140.125701 
L 64.708146 130.701575 
L 64.798459 130.701575 
L 64.888741 130.701575 
L 64.888741 125.989512 
L 64.97905 125.989512 
L 65.069336 125.989512 
L 65.069336 130.701575 
L 65.159633 130.701575 
L 65.430558 130.701575 
L 65.430558 125.989512 
L 65.520852 125.989512 
L 65.611118 125.989512 
L 65.611118 116.565386 
L 65.701411 116.565386 
L 66.514122 116.565386 
L 66.514122 107.14126 
L 66.60443 107.14126 
L 68.50068 107.14126 
L 68.50068 102.429197 
L 68.590969 102.429197 
L 68.681273 102.429197 
L 68.681273 83.580945 
L 68.771568 83.580945 
L 68.861849 83.580945 
L 68.861849 74.156819 
L 68.952145 74.156819 
L 69.223061 74.156819 
L 69.223061 69.444756 
L 69.313361 69.444756 
L 69.403651 69.444756 
L 69.403651 64.732693 
L 69.493957 64.732693 
L 69.584253 64.732693 
L 69.584253 60.02063 
L 69.674561 60.02063 
L 69.764848 60.02063 
L 69.764848 45.884441 
L 69.855133 45.884441 
L 69.945439 45.884441 
L 69.945439 41.172378 
L 70.035758 41.172378 
L 70.126046 41.172378 
L 70.126046 36.460315 
L 70.216328 36.460315 
L 73.196159 36.460315 
L 73.196159 27.036189 
L 73.286471 27.036189 
L 73.376795 27.036189 
L 73.376795 22.324126 
L 73.467083 22.324126 
L 94.68712 22.324126 
L 94.68712 27.036189 
L 94.777455 27.036189 
L 94.867712 27.036189 
L 94.867712 22.324126 
L 94.958047 22.324126 
L 273.838682 22.324126 
L 273.838682 27.036189 
L 273.928987 27.036189 
L 274.019307 27.036189 
L 274.019307 22.324126 
L 274.109595 22.324126 
L 303.005 22.324126 
L 303.005 22.324126 
" style="fill:none;stroke:#7570b3;stroke-linecap:square;stroke-width:1.5;"/>
   </g>
   <g id="line2d_24">
    <path clip-path="url(#p2d6e9405e2)" d="M 55.905 201.382519 
L 60.735064 201.382519 
L 60.735064 196.670456 
L 60.825335 196.670456 
L 64.346978 196.670456 
L 64.346978 191.958393 
L 64.437243 191.958393 
L 64.527567 191.958393 
L 64.527567 187.24633 
L 64.617864 187.24633 
L 64.708146 187.24633 
L 64.708146 177.822204 
L 64.798459 177.822204 
L 64.888741 177.822204 
L 64.888741 173.110142 
L 64.97905 173.110142 
L 65.069336 173.110142 
L 65.069336 168.398079 
L 65.159633 168.398079 
L 65.249935 168.398079 
L 65.249935 163.686016 
L 65.340221 163.686016 
L 65.611118 163.686016 
L 65.611118 158.973953 
L 65.701411 158.973953 
L 68.681273 158.973953 
L 68.681273 149.549827 
L 68.771568 149.549827 
L 68.861849 149.549827 
L 68.861849 144.837764 
L 68.952145 144.837764 
L 69.584253 144.837764 
L 69.584253 140.125701 
L 69.674561 140.125701 
L 69.764848 140.125701 
L 69.764848 130.701575 
L 69.855133 130.701575 
L 86.199134 130.701575 
L 86.199134 125.989512 
L 86.289387 125.989512 
L 86.379712 125.989512 
L 86.379712 121.277449 
L 86.469982 121.277449 
L 86.56032 121.277449 
L 86.56032 116.565386 
L 86.650598 116.565386 
L 86.740896 116.565386 
L 86.740896 111.853323 
L 86.831186 111.853323 
L 86.921512 111.853323 
L 86.921512 102.429197 
L 87.011789 102.429197 
L 87.10211 102.429197 
L 87.10211 97.717134 
L 87.192385 97.717134 
L 90.35282 97.717134 
L 90.397972 83.580945 
L 90.443117 83.580945 
L 90.714022 83.580945 
L 90.714022 74.156819 
L 90.804316 74.156819 
L 91.255815 74.156819 
L 91.255815 69.444756 
L 91.346116 69.444756 
L 91.436413 69.444756 
L 91.436413 60.02063 
L 91.526716 60.02063 
L 91.617007 60.02063 
L 91.617007 36.460315 
L 91.707302 36.460315 
L 91.797576 36.460315 
L 91.797576 22.324126 
L 91.887957 22.324126 
L 94.506519 22.324126 
L 94.506519 27.036189 
L 94.596968 27.036189 
L 94.867712 27.036189 
L 94.867712 22.324126 
L 94.958047 22.324126 
L 138.572022 22.324126 
L 138.572022 27.036189 
L 138.662352 27.036189 
L 138.752657 27.036189 
L 138.752657 22.324126 
L 138.842918 22.324126 
L 146.698905 22.324126 
L 146.698905 27.036189 
L 146.789168 27.036189 
L 147.060048 27.036189 
L 147.060048 22.324126 
L 147.150391 22.324126 
L 147.421253 22.324126 
L 147.421253 27.036189 
L 147.511568 27.036189 
L 148.143677 27.036189 
L 148.143677 22.324126 
L 148.233951 22.324126 
L 303.005 22.324126 
L 303.005 22.324126 
" style="fill:none;stroke:#e7298a;stroke-linecap:square;stroke-width:1.5;"/>
   </g>
   <g id="line2d_25">
    <path clip-path="url(#p2d6e9405e2)" d="M 55.905 201.382519 
L 61.096209 201.382519 
L 61.096209 196.670456 
L 61.186504 196.670456 
L 64.527567 196.670456 
L 64.527567 191.958393 
L 64.617864 191.958393 
L 65.249935 191.958393 
L 65.249935 187.24633 
L 65.340221 187.24633 
L 69.042436 187.24633 
L 69.042436 177.822204 
L 69.132756 177.822204 
L 69.403651 177.822204 
L 69.403651 173.110142 
L 69.493957 173.110142 
L 69.764848 173.110142 
L 69.764848 168.398079 
L 69.855133 168.398079 
L 69.945439 168.398079 
L 69.945439 163.686016 
L 70.035758 163.686016 
L 74.099167 163.686016 
L 74.099167 158.973953 
L 74.189456 158.973953 
L 78.252879 158.973953 
L 78.252879 154.26189 
L 78.34319 154.26189 
L 86.199134 154.26189 
L 86.199134 144.837764 
L 86.289387 144.837764 
L 86.56032 144.837764 
L 86.56032 140.125701 
L 86.650598 140.125701 
L 87.463299 140.125701 
L 87.463299 135.413638 
L 87.553583 135.413638 
L 90.35282 135.413638 
L 90.35282 130.701575 
L 90.443117 130.701575 
L 91.255815 130.701575 
L 91.255815 125.989512 
L 91.346116 125.989512 
L 91.436413 125.989512 
L 91.436413 121.277449 
L 91.526716 121.277449 
L 91.617007 121.277449 
L 91.66215 107.14126 
L 91.707302 107.14126 
L 94.68712 107.14126 
L 94.68712 102.429197 
L 94.777455 102.429197 
L 94.867712 102.429197 
L 94.867712 93.005071 
L 94.958047 93.005071 
L 95.048307 93.005071 
L 95.048307 88.293008 
L 95.138615 88.293008 
L 95.228922 88.293008 
L 95.274068 74.156819 
L 95.319221 74.156819 
L 95.590107 74.156819 
L 95.590107 60.02063 
L 95.680423 60.02063 
L 95.770727 60.02063 
L 95.770727 50.596504 
L 95.861037 50.596504 
L 95.951297 50.596504 
L 95.951297 31.748252 
L 96.041626 31.748252 
L 96.131917 31.748252 
L 96.131917 27.036189 
L 96.222234 27.036189 
L 97.034906 27.036189 
L 97.034906 22.324126 
L 97.125209 22.324126 
L 146.698905 22.324126 
L 146.698905 27.036189 
L 146.789168 27.036189 
L 146.879499 27.036189 
L 146.879499 22.324126 
L 146.969792 22.324126 
L 147.240672 22.324126 
L 147.240672 27.036189 
L 147.330991 27.036189 
L 147.78244 27.036189 
L 147.78244 31.748252 
L 147.872774 31.748252 
L 148.143677 31.748252 
L 148.143677 36.460315 
L 148.233951 36.460315 
L 153.019743 36.460315 
L 153.019743 41.172378 
L 153.110038 41.172378 
L 163.674945 41.172378 
L 163.674945 36.460315 
L 163.765246 36.460315 
L 183.72111 36.460315 
L 183.72111 41.172378 
L 183.811434 41.172378 
L 190.764385 41.172378 
L 190.764385 36.460315 
L 190.854677 36.460315 
L 212.797163 36.460315 
L 212.797163 31.748252 
L 212.887455 31.748252 
L 215.686657 31.748252 
L 215.686657 27.036189 
L 215.776959 27.036189 
L 220.743377 27.036189 
L 220.743377 22.324126 
L 246.749258 22.324126 
L 246.749258 31.748252 
L 246.839521 31.748252 
L 247.291002 31.748252 
L 247.291002 36.460315 
L 247.381343 36.460315 
L 278.714788 36.460315 
L 278.714788 41.172378 
L 278.805119 41.172378 
L 285.216263 41.172378 
L 285.216263 36.460315 
L 285.306549 36.460315 
L 289.550585 36.460315 
L 289.550585 31.748252 
L 289.640857 31.748252 
L 290.814715 31.748252 
L 290.814715 27.036189 
L 290.90506 27.036189 
L 303.005 27.036189 
L 303.005 27.036189 
" style="fill:none;stroke:#66a61e;stroke-linecap:square;stroke-width:1.5;"/>
   </g>
   <g id="line2d_26">
    <path clip-path="url(#p2d6e9405e2)" d="M 55.905 191.958393 
L 64.527567 191.958393 
L 64.527567 187.24633 
L 64.617864 187.24633 
L 65.430558 187.24633 
L 65.430558 182.534267 
L 65.520852 182.534267 
L 65.791739 182.534267 
L 65.791739 177.822204 
L 65.882048 177.822204 
L 69.223061 177.822204 
L 69.223061 173.110142 
L 69.313361 173.110142 
L 69.584253 173.110142 
L 69.584253 168.398079 
L 69.674561 168.398079 
L 73.196159 168.398079 
L 73.196159 163.686016 
L 73.286471 163.686016 
L 86.018512 163.686016 
L 86.018512 154.26189 
L 86.108792 154.26189 
L 86.199134 154.26189 
L 86.199134 144.837764 
L 86.289387 144.837764 
L 86.740896 144.837764 
L 86.740896 140.125701 
L 86.831186 140.125701 
L 87.463299 140.125701 
L 87.463299 135.413638 
L 87.553583 135.413638 
L 90.714022 135.413638 
L 90.714022 130.701575 
L 90.804316 130.701575 
L 91.075183 130.701575 
L 91.075183 121.277449 
L 91.165528 121.277449 
L 91.436413 121.277449 
L 91.436413 116.565386 
L 91.526716 116.565386 
L 92.519993 116.565386 
L 92.519993 111.853323 
L 92.61028 111.853323 
L 94.506519 111.853323 
L 94.506519 107.14126 
L 94.596968 107.14126 
L 94.867712 107.14126 
L 94.867712 102.429197 
L 94.958047 102.429197 
L 95.048307 102.429197 
L 95.048307 93.005071 
L 95.138615 93.005071 
L 95.409528 93.005071 
L 95.409528 88.293008 
L 95.499849 88.293008 
L 95.590107 88.293008 
L 95.635274 74.156819 
L 95.680423 74.156819 
L 95.770727 74.156819 
L 95.770727 64.732693 
L 95.861037 64.732693 
L 96.493084 64.732693 
L 96.493084 69.444756 
L 96.583422 69.444756 
L 99.202029 69.444756 
L 99.202029 60.02063 
L 99.292358 60.02063 
L 99.382669 60.02063 
L 99.382669 55.308567 
L 99.472966 55.308567 
L 99.743837 55.308567 
L 99.743837 50.596504 
L 99.834137 50.596504 
L 99.924454 50.596504 
L 99.924454 41.172378 
L 100.014733 41.172378 
L 100.105051 41.172378 
L 100.105051 36.460315 
L 100.195326 36.460315 
L 100.466249 36.460315 
L 100.466249 31.748252 
L 100.556516 31.748252 
L 248.735799 31.748252 
L 248.735799 36.460315 
L 248.826077 36.460315 
L 252.889493 36.460315 
L 252.889493 31.748252 
L 252.979815 31.748252 
L 303.005 31.748252 
L 303.005 31.748252 
" style="fill:none;stroke:#e6ab02;stroke-linecap:square;stroke-width:1.5;"/>
   </g>
   <g id="line2d_27">
    <path clip-path="url(#p2d6e9405e2)" d="M 55.905 196.670456 
L 60.735064 196.670456 
L 60.735064 191.958393 
L 60.825335 191.958393 
L 64.346978 191.958393 
L 64.346978 187.24633 
L 64.437243 187.24633 
L 64.527567 187.24633 
L 64.527567 182.534267 
L 64.617864 182.534267 
L 64.888741 182.534267 
L 64.888741 177.822204 
L 64.97905 177.822204 
L 65.069336 177.822204 
L 65.069336 173.110142 
L 65.159633 173.110142 
L 65.249935 173.110142 
L 65.249935 163.686016 
L 65.340221 163.686016 
L 65.430558 163.686016 
L 65.430558 158.973953 
L 65.520852 158.973953 
L 65.611118 158.973953 
L 65.611118 154.26189 
L 65.701411 154.26189 
L 68.50068 154.26189 
L 68.50068 149.549827 
L 68.590969 149.549827 
L 68.681273 149.549827 
L 68.681273 140.125701 
L 68.771568 140.125701 
L 69.042436 140.125701 
L 69.042436 135.413638 
L 69.132756 135.413638 
L 69.223061 135.413638 
L 69.223061 125.989512 
L 69.313361 125.989512 
L 69.584253 125.989512 
L 69.584253 121.277449 
L 69.674561 121.277449 
L 69.945439 121.277449 
L 69.945439 116.565386 
L 70.035758 116.565386 
L 70.126046 116.565386 
L 70.126046 111.853323 
L 70.216328 111.853323 
L 73.376795 111.853323 
L 73.376795 107.14126 
L 73.467083 107.14126 
L 74.099167 107.14126 
L 74.099167 102.429197 
L 74.189456 102.429197 
L 78.794642 102.429197 
L 78.794642 97.717134 
L 78.884959 97.717134 
L 86.018512 97.717134 
L 86.018512 93.005071 
L 86.108792 93.005071 
L 86.56032 93.005071 
L 86.56032 78.868882 
L 86.650598 78.868882 
L 86.740896 78.868882 
L 86.740896 69.444756 
L 86.831186 69.444756 
L 86.921512 69.444756 
L 86.921512 60.02063 
L 87.011789 60.02063 
L 87.463299 60.02063 
L 87.463299 55.308567 
L 87.553583 55.308567 
L 89.991636 55.308567 
L 89.991636 50.596504 
L 90.081928 50.596504 
L 90.533413 50.596504 
L 90.533413 45.884441 
L 90.623738 45.884441 
L 90.714022 45.884441 
L 90.714022 41.172378 
L 90.804316 41.172378 
L 90.894606 41.172378 
L 90.894606 36.460315 
L 90.984899 36.460315 
L 91.436413 36.460315 
L 91.436413 31.748252 
L 91.526716 31.748252 
L 303.005 31.748252 
L 303.005 31.748252 
" style="fill:none;stroke:#a6761d;stroke-linecap:square;stroke-width:1.5;"/>
   </g>
   <g id="line2d_28">
    <path clip-path="url(#p2d6e9405e2)" d="M 55.905 201.382519 
L 64.708146 201.382519 
L 64.708146 196.670456 
L 64.798459 196.670456 
L 65.249935 196.670456 
L 65.249935 191.958393 
L 65.340221 191.958393 
L 69.223061 191.958393 
L 69.223061 187.24633 
L 69.313361 187.24633 
L 69.584253 187.24633 
L 69.584253 191.958393 
L 69.674561 191.958393 
L 69.764848 191.958393 
L 69.764848 182.534267 
L 69.855133 182.534267 
L 86.199134 182.534267 
L 86.199134 177.822204 
L 86.289387 177.822204 
L 86.56032 177.822204 
L 86.56032 173.110142 
L 86.650598 173.110142 
L 86.921512 173.110142 
L 86.921512 168.398079 
L 87.011789 168.398079 
L 87.10211 168.398079 
L 87.10211 163.686016 
L 87.192385 163.686016 
L 88.005063 163.686016 
L 88.005063 158.973953 
L 88.095397 158.973953 
L 90.894606 158.973953 
L 90.894606 154.26189 
L 90.984899 154.26189 
L 91.436413 154.26189 
L 91.436413 149.549827 
L 91.526716 149.549827 
L 91.617007 149.549827 
L 91.617007 144.837764 
L 91.707302 144.837764 
L 94.68712 144.837764 
L 94.68712 135.413638 
L 94.777455 135.413638 
L 94.867712 135.413638 
L 94.867712 130.701575 
L 94.958047 130.701575 
L 95.048307 130.701575 
L 95.09346 116.565386 
L 95.138615 116.565386 
L 95.770727 116.565386 
L 95.770727 111.853323 
L 95.861037 111.853323 
L 95.951297 111.853323 
L 95.951297 107.14126 
L 96.041626 107.14126 
L 96.131917 107.14126 
L 96.131917 111.853323 
L 96.222234 111.853323 
L 96.312498 111.853323 
L 96.312498 107.14126 
L 96.402827 107.14126 
L 96.493084 107.14126 
L 96.493084 102.429197 
L 96.583422 102.429197 
L 98.660268 102.429197 
L 98.660268 107.14126 
L 98.75054 107.14126 
L 99.202029 107.14126 
L 99.202029 93.005071 
L 99.292358 93.005071 
L 99.563234 93.005071 
L 99.563234 88.293008 
L 99.653517 88.293008 
L 99.924454 88.293008 
L 99.924454 69.444756 
L 100.014733 69.444756 
L 100.105051 69.444756 
L 100.105051 64.732693 
L 100.195326 64.732693 
L 104.078135 64.732693 
L 104.078135 60.02063 
L 104.168427 60.02063 
L 118.706473 60.02063 
L 118.706473 55.308567 
L 118.796771 55.308567 
L 121.596006 55.308567 
L 121.596006 50.596504 
L 121.68628 50.596504 
L 121.776581 50.596504 
L 121.776581 55.308567 
L 121.8669 55.308567 
L 122.137776 55.308567 
L 122.137776 50.596504 
L 122.228095 50.596504 
L 126.472117 50.596504 
L 126.472117 45.884441 
L 126.562402 45.884441 
L 133.876522 45.884441 
L 133.876522 50.596504 
L 133.966828 50.596504 
L 138.933228 50.596504 
L 138.933228 45.884441 
L 139.023537 45.884441 
L 146.698905 45.884441 
L 146.698905 50.596504 
L 146.789168 50.596504 
L 147.060048 50.596504 
L 147.060048 55.308567 
L 147.150391 55.308567 
L 147.601843 55.308567 
L 147.601843 60.02063 
L 147.692143 60.02063 
L 152.658549 60.02063 
L 152.658549 64.732693 
L 152.748883 64.732693 
L 160.424178 64.732693 
L 160.424178 69.444756 
L 160.514502 69.444756 
L 178.483852 69.444756 
L 178.483852 74.156819 
L 178.574131 74.156819 
L 260.47456 74.156819 
L 260.47456 69.444756 
L 260.564896 69.444756 
L 265.350679 69.444756 
L 265.350679 74.156819 
L 265.441 74.156819 
L 303.005 74.156819 
L 303.005 74.156819 
" style="fill:none;stroke:#666666;stroke-linecap:square;stroke-width:1.5;"/>
   </g>
   <g id="line2d_29">
    <path clip-path="url(#p2d6e9405e2)" d="M 55.905 196.670456 
L 59.919341 196.670456 
L 59.919341 191.958393 
L 65.249935 191.958393 
L 65.249935 187.24633 
L 65.340221 187.24633 
L 68.861849 187.24633 
L 68.861849 182.534267 
L 68.952145 182.534267 
L 69.223061 182.534267 
L 69.223061 177.822204 
L 69.313361 177.822204 
L 69.764848 177.822204 
L 69.764848 173.110142 
L 69.855133 173.110142 
L 69.945439 173.110142 
L 69.945439 168.398079 
L 70.035758 168.398079 
L 71.029025 168.398079 
L 71.029025 163.686016 
L 71.119341 163.686016 
L 86.56032 163.686016 
L 86.56032 154.26189 
L 86.650598 154.26189 
L 90.714022 154.26189 
L 90.714022 149.549827 
L 90.804316 149.549827 
L 91.617007 149.549827 
L 91.617007 144.837764 
L 91.707302 144.837764 
L 92.158811 144.837764 
L 92.158811 140.125701 
L 92.249099 140.125701 
L 94.867712 140.125701 
L 94.867712 135.413638 
L 94.958047 135.413638 
L 95.048307 135.413638 
L 95.048307 125.989512 
L 95.138615 125.989512 
L 95.590107 125.989512 
L 95.590107 116.565386 
L 95.680423 116.565386 
L 99.563234 116.565386 
L 99.563234 111.853323 
L 99.653517 111.853323 
L 100.105051 111.853323 
L 100.105051 107.14126 
L 100.195326 107.14126 
L 100.646803 107.14126 
L 100.646803 102.429197 
L 100.737122 102.429197 
L 105.16174 102.429197 
L 105.16174 97.717134 
L 105.252041 97.717134 
L 117.622879 97.717134 
L 117.622879 93.005071 
L 117.713189 93.005071 
L 121.776581 93.005071 
L 121.776581 88.293008 
L 121.8669 88.293008 
L 126.472117 88.293008 
L 126.472117 93.005071 
L 126.562402 93.005071 
L 147.240672 93.005071 
L 147.240672 88.293008 
L 147.330991 88.293008 
L 147.421253 88.293008 
L 147.421253 93.005071 
L 147.511568 93.005071 
L 151.936179 93.005071 
L 151.936179 88.293008 
L 152.026499 88.293008 
L 183.72111 88.293008 
L 183.72111 83.580945 
L 183.811434 83.580945 
L 212.616529 83.580945 
L 212.616529 78.868882 
L 212.706826 78.868882 
L 221.826961 78.868882 
L 221.826961 83.580945 
L 221.917249 83.580945 
L 279.075993 83.580945 
L 279.075993 88.293008 
L 279.16628 88.293008 
L 281.243162 88.293008 
L 281.243162 93.005071 
L 281.333457 93.005071 
L 296.413252 93.005071 
L 296.413252 88.293008 
L 296.503532 88.293008 
L 298.941597 88.293008 
L 298.941597 83.580945 
L 299.031901 83.580945 
L 302.553489 83.580945 
L 302.553489 78.868882 
L 302.643825 78.868882 
L 303.005 78.868882 
L 303.005 78.868882 
" style="fill:none;stroke:#1b9e77;stroke-dasharray:4.5,1.5;stroke-dashoffset:0;stroke-width:1.5;"/>
   </g>
   <g id="line2d_30">
    <path clip-path="url(#p2d6e9405e2)" d="M 55.905 206.094582 
L 64.346978 206.094582 
L 64.346978 201.382519 
L 64.437243 201.382519 
L 64.527567 201.382519 
L 64.527567 196.670456 
L 64.617864 196.670456 
L 65.249935 196.670456 
L 65.249935 187.24633 
L 65.340221 187.24633 
L 68.681273 187.24633 
L 68.681273 182.534267 
L 68.771568 182.534267 
L 69.584253 182.534267 
L 69.584253 177.822204 
L 69.674561 177.822204 
L 69.764848 177.822204 
L 69.764848 173.110142 
L 69.855133 173.110142 
L 69.945439 173.110142 
L 69.945439 168.398079 
L 70.035758 168.398079 
L 86.379712 168.398079 
L 86.379712 163.686016 
L 86.469982 163.686016 
L 86.56032 163.686016 
L 86.56032 158.973953 
L 86.650598 158.973953 
L 86.740896 158.973953 
L 86.740896 149.549827 
L 86.831186 149.549827 
L 91.255815 149.549827 
L 91.255815 144.837764 
L 91.346116 144.837764 
L 91.436413 144.837764 
L 91.436413 140.125701 
L 91.526716 140.125701 
L 94.506519 140.125701 
L 94.506519 144.837764 
L 94.596968 144.837764 
L 95.048307 144.837764 
L 95.048307 135.413638 
L 95.138615 135.413638 
L 95.228922 135.413638 
L 95.228922 140.125701 
L 95.319221 140.125701 
L 95.409528 140.125701 
L 95.409528 135.413638 
L 95.499849 135.413638 
L 95.770727 135.413638 
L 95.770727 125.989512 
L 95.861037 125.989512 
L 95.951297 125.989512 
L 95.951297 121.277449 
L 96.041626 121.277449 
L 104.439321 121.277449 
L 104.439321 116.565386 
L 104.52966 116.565386 
L 104.981142 116.565386 
L 104.981142 111.853323 
L 105.071428 111.853323 
L 113.649739 111.853323 
L 113.649739 107.14126 
L 113.740039 107.14126 
L 130.084006 107.14126 
L 130.084006 102.429197 
L 130.174318 102.429197 
L 130.80639 102.429197 
L 130.80639 97.717134 
L 130.896732 97.717134 
L 134.418345 97.717134 
L 134.418345 93.005071 
L 134.508649 93.005071 
L 148.685463 93.005071 
L 148.685463 88.293008 
L 148.775729 88.293008 
L 256.32082 88.293008 
L 256.32082 93.005071 
L 256.411161 93.005071 
L 260.47456 93.005071 
L 260.47456 97.717134 
L 260.564896 97.717134 
L 298.760991 97.717134 
L 298.760991 93.005071 
L 298.851263 93.005071 
L 299.483352 93.005071 
L 299.483352 88.293008 
L 299.573661 88.293008 
L 303.005 88.293008 
L 303.005 88.293008 
" style="fill:none;stroke:#d95f02;stroke-dasharray:4.5,1.5;stroke-dashoffset:0;stroke-width:1.5;"/>
   </g>
   <g id="line2d_31">
    <path clip-path="url(#p2d6e9405e2)" d="M 55.905 206.094582 
L 64.708146 206.094582 
L 64.708146 201.382519 
L 64.798459 201.382519 
L 69.584253 201.382519 
L 69.584253 191.958393 
L 69.674561 191.958393 
L 86.018512 191.958393 
L 86.018512 187.24633 
L 86.108792 187.24633 
L 86.379712 187.24633 
L 86.379712 182.534267 
L 86.469982 182.534267 
L 86.921512 182.534267 
L 86.921512 177.822204 
L 87.011789 177.822204 
L 90.35282 177.822204 
L 90.35282 173.110142 
L 90.443117 173.110142 
L 90.533413 173.110142 
L 90.533413 163.686016 
L 90.623738 163.686016 
L 90.714022 163.686016 
L 90.714022 158.973953 
L 90.804316 158.973953 
L 91.075183 158.973953 
L 91.075183 154.26189 
L 91.165528 154.26189 
L 91.255815 154.26189 
L 91.255815 144.837764 
L 91.346116 144.837764 
L 91.436413 144.837764 
L 91.436413 135.413638 
L 91.526716 135.413638 
L 92.158811 135.413638 
L 92.158811 130.701575 
L 92.249099 130.701575 
L 92.519993 130.701575 
L 92.519993 125.989512 
L 92.61028 125.989512 
L 92.700556 125.989512 
L 92.700556 130.701575 
L 92.790901 130.701575 
L 94.325941 130.701575 
L 94.325941 135.413638 
L 94.416262 135.413638 
L 94.506519 135.413638 
L 94.506519 140.125701 
L 94.596968 140.125701 
L 94.68712 140.125701 
L 94.68712 135.413638 
L 94.777455 135.413638 
L 94.867712 135.413638 
L 94.867712 140.125701 
L 94.958047 140.125701 
L 95.048307 140.125701 
L 95.048307 135.413638 
L 95.138615 135.413638 
L 95.228922 135.413638 
L 95.228922 130.701575 
L 95.319221 130.701575 
L 95.590107 130.701575 
L 95.590107 135.413638 
L 95.680423 135.413638 
L 99.743837 135.413638 
L 99.743837 130.701575 
L 99.834137 130.701575 
L 100.105051 130.701575 
L 100.105051 125.989512 
L 100.195326 125.989512 
L 104.258756 125.989512 
L 104.258756 121.277449 
L 104.349036 121.277449 
L 105.522915 121.277449 
L 105.522915 116.565386 
L 105.613197 116.565386 
L 117.081084 116.565386 
L 117.081084 111.853323 
L 117.171397 111.853323 
L 117.261678 111.853323 
L 117.261678 107.14126 
L 117.351982 107.14126 
L 117.984045 107.14126 
L 117.984045 102.429197 
L 118.074373 102.429197 
L 126.472117 102.429197 
L 126.472117 97.717134 
L 126.562402 97.717134 
L 127.013858 97.717134 
L 127.013858 93.005071 
L 127.104192 93.005071 
L 136.043704 93.005071 
L 136.043704 88.293008 
L 136.133978 88.293008 
L 140.016805 88.293008 
L 140.016805 93.005071 
L 140.107107 93.005071 
L 147.060048 93.005071 
L 147.060048 97.717134 
L 147.150391 97.717134 
L 178.12265 97.717134 
L 178.12265 93.005071 
L 178.212962 93.005071 
L 208.643446 93.005071 
L 208.643446 88.293008 
L 208.733725 88.293008 
L 212.074764 88.293008 
L 212.074764 83.580945 
L 212.165034 83.580945 
L 224.535891 83.580945 
L 224.535891 78.868882 
L 224.626202 78.868882 
L 250.902986 78.868882 
L 250.902986 83.580945 
L 250.993282 83.580945 
L 251.083537 83.580945 
L 251.083537 78.868882 
L 251.173834 78.868882 
L 287.383411 78.868882 
L 287.383411 83.580945 
L 287.473692 83.580945 
L 295.690847 83.580945 
L 295.690847 88.293008 
L 295.781127 88.293008 
L 303.005 88.293008 
L 303.005 88.293008 
" style="fill:none;stroke:#7570b3;stroke-dasharray:4.5,1.5;stroke-dashoffset:0;stroke-width:1.5;"/>
   </g>
   <g id="line2d_32">
    <path clip-path="url(#p2d6e9405e2)" d="M 55.905 210.806645 
L 61.276801 210.806645 
L 61.276801 206.094582 
L 61.367104 206.094582 
L 61.999222 206.094582 
L 61.999222 201.382519 
L 62.089511 201.382519 
L 73.376795 201.382519 
L 73.376795 196.670456 
L 73.467083 196.670456 
L 86.018512 196.670456 
L 86.018512 191.958393 
L 86.108792 191.958393 
L 87.28268 191.958393 
L 87.28268 182.534267 
L 87.37297 182.534267 
L 90.714022 182.534267 
L 90.714022 177.822204 
L 90.804316 177.822204 
L 90.894606 177.822204 
L 90.894606 173.110142 
L 90.984899 173.110142 
L 91.436413 173.110142 
L 91.436413 163.686016 
L 91.526716 163.686016 
L 91.617007 163.686016 
L 91.617007 158.973953 
L 91.707302 158.973953 
L 92.700556 158.973953 
L 92.700556 154.26189 
L 92.790901 154.26189 
L 94.867712 154.26189 
L 94.867712 158.973953 
L 94.958047 158.973953 
L 95.228922 158.973953 
L 95.228922 154.26189 
L 95.319221 154.26189 
L 95.409528 154.26189 
L 95.409528 149.549827 
L 95.499849 149.549827 
L 95.770727 149.549827 
L 95.770727 144.837764 
L 95.861037 144.837764 
L 95.951297 144.837764 
L 95.951297 149.549827 
L 96.041626 149.549827 
L 96.131917 149.549827 
L 96.131917 144.837764 
L 96.222234 144.837764 
L 99.202029 144.837764 
L 99.202029 140.125701 
L 99.292358 140.125701 
L 104.981142 140.125701 
L 104.981142 135.413638 
L 105.071428 135.413638 
L 117.081084 135.413638 
L 117.081084 130.701575 
L 117.171397 130.701575 
L 134.237724 130.701575 
L 134.237724 125.989512 
L 134.328062 125.989512 
L 155.728706 125.989512 
L 155.728706 121.277449 
L 155.819008 121.277449 
L 178.483852 121.277449 
L 178.483852 116.565386 
L 178.574131 116.565386 
L 220.743377 116.565386 
L 220.743377 111.853323 
L 238.08061 111.853323 
L 238.08061 107.14126 
L 238.170929 107.14126 
L 273.838682 107.14126 
L 273.838682 102.429197 
L 273.928987 102.429197 
L 278.895381 102.429197 
L 278.895381 97.717134 
L 278.985683 97.717134 
L 285.577432 97.717134 
L 285.577432 93.005071 
L 285.667754 93.005071 
L 303.005 93.005071 
L 303.005 93.005071 
" style="fill:none;stroke:#e7298a;stroke-dasharray:4.5,1.5;stroke-dashoffset:0;stroke-width:1.5;"/>
   </g>
   <g id="line2d_33">
    <path clip-path="url(#p2d6e9405e2)" d="M 55.905 210.806645 
L 60.554607 210.806645 
L 60.554607 206.094582 
L 60.64475 206.094582 
L 60.915651 206.094582 
L 60.915651 201.382519 
L 61.005968 201.382519 
L 65.069336 201.382519 
L 65.069336 196.670456 
L 65.159633 196.670456 
L 69.764848 196.670456 
L 69.764848 191.958393 
L 69.855133 191.958393 
L 72.654396 191.958393 
L 72.654396 187.24633 
L 72.744721 187.24633 
L 73.557359 187.24633 
L 73.557359 182.534267 
L 73.647676 182.534267 
L 73.918567 182.534267 
L 73.918567 177.822204 
L 74.008849 177.822204 
L 86.018512 177.822204 
L 86.018512 168.398079 
L 86.108792 168.398079 
L 86.379712 168.398079 
L 86.379712 163.686016 
L 86.469982 163.686016 
L 86.56032 163.686016 
L 86.56032 158.973953 
L 86.650598 158.973953 
L 86.740896 158.973953 
L 86.740896 154.26189 
L 86.831186 154.26189 
L 86.921512 154.26189 
L 86.921512 144.837764 
L 87.011789 144.837764 
L 87.10211 144.837764 
L 87.10211 140.125701 
L 87.192385 140.125701 
L 87.463299 140.125701 
L 87.463299 135.413638 
L 87.553583 135.413638 
L 87.824507 135.413638 
L 87.824507 130.701575 
L 87.91479 130.701575 
L 88.366247 130.701575 
L 88.366247 125.989512 
L 88.456588 125.989512 
L 90.35282 125.989512 
L 90.35282 121.277449 
L 90.443117 121.277449 
L 90.533413 121.277449 
L 90.533413 116.565386 
L 90.623738 116.565386 
L 90.714022 116.565386 
L 90.714022 102.429197 
L 90.804316 102.429197 
L 90.894606 102.429197 
L 90.894606 97.717134 
L 90.984899 97.717134 
L 91.075183 97.717134 
L 91.075183 93.005071 
L 91.165528 93.005071 
L 92.700556 93.005071 
L 92.700556 97.717134 
L 92.790901 97.717134 
L 95.048307 97.717134 
L 95.048307 93.005071 
L 95.138615 93.005071 
L 95.228922 93.005071 
L 95.228922 97.717134 
L 95.319221 97.717134 
L 95.409528 97.717134 
L 95.409528 93.005071 
L 95.499849 93.005071 
L 100.466249 93.005071 
L 100.466249 97.717134 
L 100.556516 97.717134 
L 100.646803 97.717134 
L 100.646803 93.005071 
L 100.737122 93.005071 
L 273.477518 93.005071 
L 273.477518 97.717134 
L 273.567779 97.717134 
L 287.383411 97.717134 
L 287.383411 93.005071 
L 287.473692 93.005071 
L 303.005 93.005071 
L 303.005 93.005071 
" style="fill:none;stroke:#66a61e;stroke-dasharray:4.5,1.5;stroke-dashoffset:0;stroke-width:1.5;"/>
   </g>
   <g id="line2d_34">
    <path clip-path="url(#p2d6e9405e2)" d="M 136.991818 210.806645 
L 138.572022 210.806645 
L 138.572022 206.094582 
L 138.662352 206.094582 
L 143.98995 206.094582 
L 143.98995 201.382519 
L 144.080222 201.382519 
L 146.698905 201.382519 
L 146.698905 182.534267 
L 146.789168 182.534267 
L 147.060048 182.534267 
L 147.060048 173.110142 
L 147.150391 173.110142 
L 147.421253 173.110142 
L 147.421253 158.973953 
L 147.511568 158.973953 
L 147.78244 158.973953 
L 147.78244 154.26189 
L 147.872774 154.26189 
L 151.394404 154.26189 
L 151.394404 149.549827 
L 151.484701 149.549827 
L 152.297375 149.549827 
L 152.297375 144.837764 
L 152.387667 144.837764 
L 152.658549 144.837764 
L 152.658549 140.125701 
L 152.748883 140.125701 
L 153.019743 140.125701 
L 153.019743 135.413638 
L 153.110038 135.413638 
L 153.200346 135.413638 
L 153.200346 130.701575 
L 153.290625 130.701575 
L 155.728706 130.701575 
L 155.728706 125.989512 
L 155.819008 125.989512 
L 157.354043 125.989512 
L 157.354043 121.277449 
L 157.444372 121.277449 
L 160.424178 121.277449 
L 160.424178 116.565386 
L 160.514502 116.565386 
L 215.686657 116.565386 
L 215.686657 121.277449 
L 215.776959 121.277449 
L 216.589628 121.277449 
L 216.589628 116.565386 
L 216.67996 116.565386 
L 246.929845 116.565386 
L 246.929845 111.853323 
L 247.020156 111.853323 
L 247.291002 111.853323 
L 247.291002 107.14126 
L 247.381343 107.14126 
L 248.735799 107.14126 
L 248.735799 102.429197 
L 248.826077 102.429197 
L 273.296885 102.429197 
L 273.296885 97.717134 
L 273.387191 97.717134 
L 303.005 97.717134 
L 303.005 97.717134 
" style="fill:none;stroke:#e6ab02;stroke-dasharray:4.5,1.5;stroke-dashoffset:0;stroke-width:1.5;"/>
   </g>
   <g id="line2d_35">
    <path clip-path="url(#p2d6e9405e2)" d="M 55.905 206.094582 
L 64.888741 206.094582 
L 64.888741 196.670456 
L 64.97905 196.670456 
L 68.861849 196.670456 
L 68.861849 187.24633 
L 68.952145 187.24633 
L 69.042436 187.24633 
L 69.042436 182.534267 
L 69.132756 182.534267 
L 69.764848 182.534267 
L 69.764848 177.822204 
L 69.855133 177.822204 
L 69.945439 177.822204 
L 69.945439 173.110142 
L 70.035758 173.110142 
L 86.740896 173.110142 
L 86.740896 168.398079 
L 86.831186 168.398079 
L 86.921512 168.398079 
L 86.921512 163.686016 
L 87.011789 163.686016 
L 87.10211 163.686016 
L 87.10211 158.973953 
L 87.192385 158.973953 
L 87.64386 158.973953 
L 87.64386 154.26189 
L 87.734199 154.26189 
L 87.824507 154.26189 
L 87.824507 158.973953 
L 87.91479 158.973953 
L 90.35282 158.973953 
L 90.35282 140.125701 
L 90.443117 140.125701 
L 90.714022 140.125701 
L 90.714022 130.701575 
L 90.804316 130.701575 
L 90.894606 130.701575 
L 90.894606 125.989512 
L 90.984899 125.989512 
L 91.075183 125.989512 
L 91.075183 116.565386 
L 91.165528 116.565386 
L 303.005 116.565386 
L 303.005 116.565386 
" style="fill:none;stroke:#a6761d;stroke-dasharray:4.5,1.5;stroke-dashoffset:0;stroke-width:1.5;"/>
   </g>
   <g id="line2d_36">
    <path clip-path="url(#p2d6e9405e2)" d="M 55.905 210.806645 
L 65.249935 210.806645 
L 65.249935 206.094582 
L 65.340221 206.094582 
L 65.430558 206.094582 
L 65.430558 201.382519 
L 65.520852 201.382519 
L 69.042436 201.382519 
L 69.042436 196.670456 
L 69.132756 196.670456 
L 69.945439 196.670456 
L 69.945439 191.958393 
L 70.035758 191.958393 
L 70.306632 191.958393 
L 70.306632 187.24633 
L 70.39695 187.24633 
L 70.667843 187.24633 
L 70.667843 182.534267 
L 70.758149 182.534267 
L 73.376795 182.534267 
L 73.376795 187.24633 
L 73.467083 187.24633 
L 86.199134 187.24633 
L 86.199134 182.534267 
L 86.289387 182.534267 
L 87.28268 182.534267 
L 87.28268 173.110142 
L 87.37297 173.110142 
L 90.533413 173.110142 
L 90.533413 168.398079 
L 90.623738 168.398079 
L 91.255815 168.398079 
L 91.255815 149.549827 
L 91.346116 149.549827 
L 91.436413 149.549827 
L 91.436413 144.837764 
L 91.526716 144.837764 
L 91.617007 144.837764 
L 91.617007 140.125701 
L 91.707302 140.125701 
L 147.060048 140.125701 
L 147.060048 144.837764 
L 147.150391 144.837764 
L 147.240672 144.837764 
L 147.240672 140.125701 
L 147.330991 140.125701 
L 256.32082 140.125701 
L 256.32082 135.413638 
L 256.411161 135.413638 
L 265.350679 135.413638 
L 265.350679 130.701575 
L 265.441 130.701575 
L 278.714788 130.701575 
L 278.714788 125.989512 
L 278.805119 125.989512 
L 281.243162 125.989512 
L 281.243162 121.277449 
L 281.333457 121.277449 
L 281.96554 121.277449 
L 281.96554 116.565386 
L 282.055823 116.565386 
L 303.005 116.565386 
L 303.005 116.565386 
" style="fill:none;stroke:#666666;stroke-dasharray:4.5,1.5;stroke-dashoffset:0;stroke-width:1.5;"/>
   </g>
   <g id="line2d_37"/>
   <g id="line2d_38"/>
   <g id="line2d_39"/>
   <g id="line2d_40"/>
   <g id="line2d_41"/>
   <g id="line2d_42"/>
   <g id="line2d_43"/>
   <g id="line2d_44"/>
   <g id="line2d_45"/>
   <g id="line2d_46"/>
   <g id="line2d_47"/>
   <g id="line2d_48"/>
   <g id="line2d_49"/>
   <g id="line2d_50"/>
   <g id="line2d_51"/>
   <g id="line2d_52"/>
   <g id="line2d_53"/>
   <g id="patch_3">
    <path d="M 43.55 220.230771 
L 43.55 12.9 
" style="fill:none;stroke:#000000;stroke-linecap:square;stroke-linejoin:miter;stroke-width:0.8;"/>
   </g>
   <g id="patch_4">
    <path d="M 315.36 220.230771 
L 315.36 12.9 
" style="fill:none;stroke:#000000;stroke-linecap:square;stroke-linejoin:miter;stroke-width:0.8;"/>
   </g>
   <g id="patch_5">
    <path d="M 43.55 220.230771 
L 315.36 220.230771 
" style="fill:none;stroke:#000000;stroke-linecap:square;stroke-linejoin:miter;stroke-width:0.8;"/>
   </g>
   <g id="patch_6">
    <path d="M 43.55 12.9 
L 315.36 12.9 
" style="fill:none;stroke:#000000;stroke-linecap:square;stroke-linejoin:miter;stroke-width:0.8;"/>
   </g>
  </g>
  <g id="legend_1">
   <g id="patch_7">
    <path d="M 331.8625 262.528125 
L 420 262.528125 
Q 422 262.528125 422 260.528125 
L 422 12 
Q 422 10 420 10 
L 331.8625 10 
Q 329.8625 10 329.8625 12 
L 329.8625 260.528125 
Q 329.8625 262.528125 331.8625 262.528125 
z
" style="fill:#ffffff;opacity:0.8;stroke:#cccccc;stroke-linejoin:miter;"/>
   </g>
   <g id="text_23">
    <!-- 498/610 Reg. -->
    <defs>
     <path d="M 25.390625 72.90625 
L 33.6875 72.90625 
L 8.296875 -9.28125 
L 0 -9.28125 
z
" id="DejaVuSans-47"/>
     <path d="M 33.015625 40.375 
Q 26.375 40.375 22.484375 35.828125 
Q 18.609375 31.296875 18.609375 23.390625 
Q 18.609375 15.53125 22.484375 10.953125 
Q 26.375 6.390625 33.015625 6.390625 
Q 39.65625 6.390625 43.53125 10.953125 
Q 47.40625 15.53125 47.40625 23.390625 
Q 47.40625 31.296875 43.53125 35.828125 
Q 39.65625 40.375 33.015625 40.375 
z
M 52.59375 71.296875 
L 52.59375 62.3125 
Q 48.875 64.0625 45.09375 64.984375 
Q 41.3125 65.921875 37.59375 65.921875 
Q 27.828125 65.921875 22.671875 59.328125 
Q 17.53125 52.734375 16.796875 39.40625 
Q 19.671875 43.65625 24.015625 45.921875 
Q 28.375 48.1875 33.59375 48.1875 
Q 44.578125 48.1875 50.953125 41.515625 
Q 57.328125 34.859375 57.328125 23.390625 
Q 57.328125 12.15625 50.6875 5.359375 
Q 44.046875 -1.421875 33.015625 -1.421875 
Q 20.359375 -1.421875 13.671875 8.265625 
Q 6.984375 17.96875 6.984375 36.375 
Q 6.984375 53.65625 15.1875 63.9375 
Q 23.390625 74.21875 37.203125 74.21875 
Q 40.921875 74.21875 44.703125 73.484375 
Q 48.484375 72.75 52.59375 71.296875 
z
" id="DejaVuSans-54"/>
     <path d="M 10.6875 12.40625 
L 21 12.40625 
L 21 0 
L 10.6875 0 
z
" id="DejaVuSans-46"/>
    </defs>
    <g transform="translate(342.259375 21.598437)scale(0.1 -0.1)">
     <use xlink:href="#DejaVuSans-52"/>
     <use x="63.623047" xlink:href="#DejaVuSans-57"/>
     <use x="127.246094" xlink:href="#DejaVuSans-56"/>
     <use x="190.869141" xlink:href="#DejaVuSans-47"/>
     <use x="224.560547" xlink:href="#DejaVuSans-54"/>
     <use x="288.183594" xlink:href="#DejaVuSans-49"/>
     <use x="351.806641" xlink:href="#DejaVuSans-48"/>
     <use x="415.429688" xlink:href="#DejaVuSans-32"/>
     <use x="447.216797" xlink:href="#DejaVuSans-82"/>
     <use x="516.636719" xlink:href="#DejaVuSans-101"/>
     <use x="578.160156" xlink:href="#DejaVuSans-103"/>
     <use x="641.636719" xlink:href="#DejaVuSans-46"/>
    </g>
   </g>
   <g id="line2d_54">
    <path d="M 333.8625 32.776562 
L 353.8625 32.776562 
" style="fill:none;stroke:#1b9e77;stroke-linecap:square;stroke-width:1.5;"/>
   </g>
   <g id="line2d_55"/>
   <g id="text_24">
    <!-- AS (40) -->
    <defs>
     <path d="M 34.1875 63.1875 
L 20.796875 26.90625 
L 47.609375 26.90625 
z
M 28.609375 72.90625 
L 39.796875 72.90625 
L 67.578125 0 
L 57.328125 0 
L 50.6875 18.703125 
L 17.828125 18.703125 
L 11.1875 0 
L 0.78125 0 
z
" id="DejaVuSans-65"/>
     <path d="M 31 75.875 
Q 24.46875 64.65625 21.28125 53.65625 
Q 18.109375 42.671875 18.109375 31.390625 
Q 18.109375 20.125 21.3125 9.0625 
Q 24.515625 -2 31 -13.1875 
L 23.1875 -13.1875 
Q 15.875 -1.703125 12.234375 9.375 
Q 8.59375 20.453125 8.59375 31.390625 
Q 8.59375 42.28125 12.203125 53.3125 
Q 15.828125 64.359375 23.1875 75.875 
z
" id="DejaVuSans-40"/>
     <path d="M 8.015625 75.875 
L 15.828125 75.875 
Q 23.140625 64.359375 26.78125 53.3125 
Q 30.421875 42.28125 30.421875 31.390625 
Q 30.421875 20.453125 26.78125 9.375 
Q 23.140625 -1.703125 15.828125 -13.1875 
L 8.015625 -13.1875 
Q 14.5 -2 17.703125 9.0625 
Q 20.90625 20.125 20.90625 31.390625 
Q 20.90625 42.671875 17.703125 53.65625 
Q 14.5 64.65625 8.015625 75.875 
z
" id="DejaVuSans-41"/>
    </defs>
    <g transform="translate(361.8625 36.276562)scale(0.1 -0.1)">
     <use xlink:href="#DejaVuSans-65"/>
     <use x="68.408203" xlink:href="#DejaVuSans-83"/>
     <use x="131.884766" xlink:href="#DejaVuSans-32"/>
     <use x="163.671875" xlink:href="#DejaVuSans-40"/>
     <use x="202.685547" xlink:href="#DejaVuSans-52"/>
     <use x="266.308594" xlink:href="#DejaVuSans-48"/>
     <use x="329.931641" xlink:href="#DejaVuSans-41"/>
    </g>
   </g>
   <g id="line2d_56">
    <path d="M 333.8625 47.454688 
L 353.8625 47.454688 
" style="fill:none;stroke:#d95f02;stroke-linecap:square;stroke-width:1.5;"/>
   </g>
   <g id="line2d_57"/>
   <g id="text_25">
    <!-- AUS (40) -->
    <defs>
     <path d="M 8.6875 72.90625 
L 18.609375 72.90625 
L 18.609375 28.609375 
Q 18.609375 16.890625 22.84375 11.734375 
Q 27.09375 6.59375 36.625 6.59375 
Q 46.09375 6.59375 50.34375 11.734375 
Q 54.59375 16.890625 54.59375 28.609375 
L 54.59375 72.90625 
L 64.5 72.90625 
L 64.5 27.390625 
Q 64.5 13.140625 57.4375 5.859375 
Q 50.390625 -1.421875 36.625 -1.421875 
Q 22.796875 -1.421875 15.734375 5.859375 
Q 8.6875 13.140625 8.6875 27.390625 
z
" id="DejaVuSans-85"/>
    </defs>
    <g transform="translate(361.8625 50.954688)scale(0.1 -0.1)">
     <use xlink:href="#DejaVuSans-65"/>
     <use x="68.408203" xlink:href="#DejaVuSans-85"/>
     <use x="141.601562" xlink:href="#DejaVuSans-83"/>
     <use x="205.078125" xlink:href="#DejaVuSans-32"/>
     <use x="236.865234" xlink:href="#DejaVuSans-40"/>
     <use x="275.878906" xlink:href="#DejaVuSans-52"/>
     <use x="339.501953" xlink:href="#DejaVuSans-48"/>
     <use x="403.125" xlink:href="#DejaVuSans-41"/>
    </g>
   </g>
   <g id="line2d_58">
    <path d="M 333.8625 62.132812 
L 353.8625 62.132812 
" style="fill:none;stroke:#7570b3;stroke-linecap:square;stroke-width:1.5;"/>
   </g>
   <g id="line2d_59"/>
   <g id="text_26">
    <!-- COML (40) -->
    <defs>
     <path d="M 64.40625 67.28125 
L 64.40625 56.890625 
Q 59.421875 61.53125 53.78125 63.8125 
Q 48.140625 66.109375 41.796875 66.109375 
Q 29.296875 66.109375 22.65625 58.46875 
Q 16.015625 50.828125 16.015625 36.375 
Q 16.015625 21.96875 22.65625 14.328125 
Q 29.296875 6.6875 41.796875 6.6875 
Q 48.140625 6.6875 53.78125 8.984375 
Q 59.421875 11.28125 64.40625 15.921875 
L 64.40625 5.609375 
Q 59.234375 2.09375 53.4375 0.328125 
Q 47.65625 -1.421875 41.21875 -1.421875 
Q 24.65625 -1.421875 15.125 8.703125 
Q 5.609375 18.84375 5.609375 36.375 
Q 5.609375 53.953125 15.125 64.078125 
Q 24.65625 74.21875 41.21875 74.21875 
Q 47.75 74.21875 53.53125 72.484375 
Q 59.328125 70.75 64.40625 67.28125 
z
" id="DejaVuSans-67"/>
     <path d="M 39.40625 66.21875 
Q 28.65625 66.21875 22.328125 58.203125 
Q 16.015625 50.203125 16.015625 36.375 
Q 16.015625 22.609375 22.328125 14.59375 
Q 28.65625 6.59375 39.40625 6.59375 
Q 50.140625 6.59375 56.421875 14.59375 
Q 62.703125 22.609375 62.703125 36.375 
Q 62.703125 50.203125 56.421875 58.203125 
Q 50.140625 66.21875 39.40625 66.21875 
z
M 39.40625 74.21875 
Q 54.734375 74.21875 63.90625 63.9375 
Q 73.09375 53.65625 73.09375 36.375 
Q 73.09375 19.140625 63.90625 8.859375 
Q 54.734375 -1.421875 39.40625 -1.421875 
Q 24.03125 -1.421875 14.8125 8.828125 
Q 5.609375 19.09375 5.609375 36.375 
Q 5.609375 53.65625 14.8125 63.9375 
Q 24.03125 74.21875 39.40625 74.21875 
z
" id="DejaVuSans-79"/>
     <path d="M 9.8125 72.90625 
L 24.515625 72.90625 
L 43.109375 23.296875 
L 61.8125 72.90625 
L 76.515625 72.90625 
L 76.515625 0 
L 66.890625 0 
L 66.890625 64.015625 
L 48.09375 14.015625 
L 38.1875 14.015625 
L 19.390625 64.015625 
L 19.390625 0 
L 9.8125 0 
z
" id="DejaVuSans-77"/>
     <path d="M 9.8125 72.90625 
L 19.671875 72.90625 
L 19.671875 8.296875 
L 55.171875 8.296875 
L 55.171875 0 
L 9.8125 0 
z
" id="DejaVuSans-76"/>
    </defs>
    <g transform="translate(361.8625 65.632812)scale(0.1 -0.1)">
     <use xlink:href="#DejaVuSans-67"/>
     <use x="69.824219" xlink:href="#DejaVuSans-79"/>
     <use x="148.535156" xlink:href="#DejaVuSans-77"/>
     <use x="234.814453" xlink:href="#DejaVuSans-76"/>
     <use x="290.527344" xlink:href="#DejaVuSans-32"/>
     <use x="322.314453" xlink:href="#DejaVuSans-40"/>
     <use x="361.328125" xlink:href="#DejaVuSans-52"/>
     <use x="424.951172" xlink:href="#DejaVuSans-48"/>
     <use x="488.574219" xlink:href="#DejaVuSans-41"/>
    </g>
   </g>
   <g id="line2d_60">
    <path d="M 333.8625 76.810937 
L 353.8625 76.810937 
" style="fill:none;stroke:#e7298a;stroke-linecap:square;stroke-width:1.5;"/>
   </g>
   <g id="line2d_61"/>
   <g id="text_27">
    <!-- GDD (40) -->
    <defs>
     <path d="M 59.515625 10.40625 
L 59.515625 29.984375 
L 43.40625 29.984375 
L 43.40625 38.09375 
L 69.28125 38.09375 
L 69.28125 6.78125 
Q 63.578125 2.734375 56.6875 0.65625 
Q 49.8125 -1.421875 42 -1.421875 
Q 24.90625 -1.421875 15.25 8.5625 
Q 5.609375 18.5625 5.609375 36.375 
Q 5.609375 54.25 15.25 64.234375 
Q 24.90625 74.21875 42 74.21875 
Q 49.125 74.21875 55.546875 72.453125 
Q 61.96875 70.703125 67.390625 67.28125 
L 67.390625 56.78125 
Q 61.921875 61.421875 55.765625 63.765625 
Q 49.609375 66.109375 42.828125 66.109375 
Q 29.4375 66.109375 22.71875 58.640625 
Q 16.015625 51.171875 16.015625 36.375 
Q 16.015625 21.625 22.71875 14.15625 
Q 29.4375 6.6875 42.828125 6.6875 
Q 48.046875 6.6875 52.140625 7.59375 
Q 56.25 8.5 59.515625 10.40625 
z
" id="DejaVuSans-71"/>
    </defs>
    <g transform="translate(361.8625 80.310937)scale(0.1 -0.1)">
     <use xlink:href="#DejaVuSans-71"/>
     <use x="77.490234" xlink:href="#DejaVuSans-68"/>
     <use x="154.492188" xlink:href="#DejaVuSans-68"/>
     <use x="231.494141" xlink:href="#DejaVuSans-32"/>
     <use x="263.28125" xlink:href="#DejaVuSans-40"/>
     <use x="302.294922" xlink:href="#DejaVuSans-52"/>
     <use x="365.917969" xlink:href="#DejaVuSans-48"/>
     <use x="429.541016" xlink:href="#DejaVuSans-41"/>
    </g>
   </g>
   <g id="line2d_62">
    <path d="M 333.8625 91.489062 
L 353.8625 91.489062 
" style="fill:none;stroke:#66a61e;stroke-linecap:square;stroke-width:1.5;"/>
   </g>
   <g id="line2d_63"/>
   <g id="text_28">
    <!-- SA (39) -->
    <g transform="translate(361.8625 94.989062)scale(0.1 -0.1)">
     <use xlink:href="#DejaVuSans-83"/>
     <use x="63.492188" xlink:href="#DejaVuSans-65"/>
     <use x="131.900391" xlink:href="#DejaVuSans-32"/>
     <use x="163.6875" xlink:href="#DejaVuSans-40"/>
     <use x="202.701172" xlink:href="#DejaVuSans-51"/>
     <use x="266.324219" xlink:href="#DejaVuSans-57"/>
     <use x="329.947266" xlink:href="#DejaVuSans-41"/>
    </g>
   </g>
   <g id="line2d_64">
    <path d="M 333.8625 106.167188 
L 353.8625 106.167188 
" style="fill:none;stroke:#e6ab02;stroke-linecap:square;stroke-width:1.5;"/>
   </g>
   <g id="line2d_65"/>
   <g id="text_29">
    <!-- MD (38) -->
    <g transform="translate(361.8625 109.667188)scale(0.1 -0.1)">
     <use xlink:href="#DejaVuSans-77"/>
     <use x="86.279297" xlink:href="#DejaVuSans-68"/>
     <use x="163.28125" xlink:href="#DejaVuSans-32"/>
     <use x="195.068359" xlink:href="#DejaVuSans-40"/>
     <use x="234.082031" xlink:href="#DejaVuSans-51"/>
     <use x="297.705078" xlink:href="#DejaVuSans-56"/>
     <use x="361.328125" xlink:href="#DejaVuSans-41"/>
    </g>
   </g>
   <g id="line2d_66">
    <path d="M 333.8625 120.845312 
L 353.8625 120.845312 
" style="fill:none;stroke:#a6761d;stroke-linecap:square;stroke-width:1.5;"/>
   </g>
   <g id="line2d_67"/>
   <g id="text_30">
    <!-- HPI (38) -->
    <defs>
     <path d="M 9.8125 72.90625 
L 19.671875 72.90625 
L 19.671875 43.015625 
L 55.515625 43.015625 
L 55.515625 72.90625 
L 65.375 72.90625 
L 65.375 0 
L 55.515625 0 
L 55.515625 34.71875 
L 19.671875 34.71875 
L 19.671875 0 
L 9.8125 0 
z
" id="DejaVuSans-72"/>
     <path d="M 19.671875 64.796875 
L 19.671875 37.40625 
L 32.078125 37.40625 
Q 38.96875 37.40625 42.71875 40.96875 
Q 46.484375 44.53125 46.484375 51.125 
Q 46.484375 57.671875 42.71875 61.234375 
Q 38.96875 64.796875 32.078125 64.796875 
z
M 9.8125 72.90625 
L 32.078125 72.90625 
Q 44.34375 72.90625 50.609375 67.359375 
Q 56.890625 61.8125 56.890625 51.125 
Q 56.890625 40.328125 50.609375 34.8125 
Q 44.34375 29.296875 32.078125 29.296875 
L 19.671875 29.296875 
L 19.671875 0 
L 9.8125 0 
z
" id="DejaVuSans-80"/>
     <path d="M 9.8125 72.90625 
L 19.671875 72.90625 
L 19.671875 0 
L 9.8125 0 
z
" id="DejaVuSans-73"/>
    </defs>
    <g transform="translate(361.8625 124.345312)scale(0.1 -0.1)">
     <use xlink:href="#DejaVuSans-72"/>
     <use x="75.195312" xlink:href="#DejaVuSans-80"/>
     <use x="135.498047" xlink:href="#DejaVuSans-73"/>
     <use x="164.990234" xlink:href="#DejaVuSans-32"/>
     <use x="196.777344" xlink:href="#DejaVuSans-40"/>
     <use x="235.791016" xlink:href="#DejaVuSans-51"/>
     <use x="299.414062" xlink:href="#DejaVuSans-56"/>
     <use x="363.037109" xlink:href="#DejaVuSans-41"/>
    </g>
   </g>
   <g id="line2d_68">
    <path d="M 333.8625 135.523438 
L 353.8625 135.523438 
" style="fill:none;stroke:#666666;stroke-linecap:square;stroke-width:1.5;"/>
   </g>
   <g id="line2d_69"/>
   <g id="text_31">
    <!-- FIT (29) -->
    <defs>
     <path d="M 9.8125 72.90625 
L 51.703125 72.90625 
L 51.703125 64.59375 
L 19.671875 64.59375 
L 19.671875 43.109375 
L 48.578125 43.109375 
L 48.578125 34.8125 
L 19.671875 34.8125 
L 19.671875 0 
L 9.8125 0 
z
" id="DejaVuSans-70"/>
     <path d="M -0.296875 72.90625 
L 61.375 72.90625 
L 61.375 64.59375 
L 35.5 64.59375 
L 35.5 0 
L 25.59375 0 
L 25.59375 64.59375 
L -0.296875 64.59375 
z
" id="DejaVuSans-84"/>
    </defs>
    <g transform="translate(361.8625 139.023438)scale(0.1 -0.1)">
     <use xlink:href="#DejaVuSans-70"/>
     <use x="57.519531" xlink:href="#DejaVuSans-73"/>
     <use x="87.011719" xlink:href="#DejaVuSans-84"/>
     <use x="148.095703" xlink:href="#DejaVuSans-32"/>
     <use x="179.882812" xlink:href="#DejaVuSans-40"/>
     <use x="218.896484" xlink:href="#DejaVuSans-50"/>
     <use x="282.519531" xlink:href="#DejaVuSans-57"/>
     <use x="346.142578" xlink:href="#DejaVuSans-41"/>
    </g>
   </g>
   <g id="line2d_70">
    <path d="M 333.8625 150.201562 
L 353.8625 150.201562 
" style="fill:none;stroke:#1b9e77;stroke-dasharray:4.5,1.5;stroke-dashoffset:0;stroke-width:1.5;"/>
   </g>
   <g id="line2d_71"/>
   <g id="text_32">
    <!-- TBI (28) -->
    <defs>
     <path d="M 19.671875 34.8125 
L 19.671875 8.109375 
L 35.5 8.109375 
Q 43.453125 8.109375 47.28125 11.40625 
Q 51.125 14.703125 51.125 21.484375 
Q 51.125 28.328125 47.28125 31.5625 
Q 43.453125 34.8125 35.5 34.8125 
z
M 19.671875 64.796875 
L 19.671875 42.828125 
L 34.28125 42.828125 
Q 41.5 42.828125 45.03125 45.53125 
Q 48.578125 48.25 48.578125 53.8125 
Q 48.578125 59.328125 45.03125 62.0625 
Q 41.5 64.796875 34.28125 64.796875 
z
M 9.8125 72.90625 
L 35.015625 72.90625 
Q 46.296875 72.90625 52.390625 68.21875 
Q 58.5 63.53125 58.5 54.890625 
Q 58.5 48.1875 55.375 44.234375 
Q 52.25 40.28125 46.1875 39.3125 
Q 53.46875 37.75 57.5 32.78125 
Q 61.53125 27.828125 61.53125 20.40625 
Q 61.53125 10.640625 54.890625 5.3125 
Q 48.25 0 35.984375 0 
L 9.8125 0 
z
" id="DejaVuSans-66"/>
    </defs>
    <g transform="translate(361.8625 153.701562)scale(0.1 -0.1)">
     <use xlink:href="#DejaVuSans-84"/>
     <use x="61.083984" xlink:href="#DejaVuSans-66"/>
     <use x="129.6875" xlink:href="#DejaVuSans-73"/>
     <use x="159.179688" xlink:href="#DejaVuSans-32"/>
     <use x="190.966797" xlink:href="#DejaVuSans-40"/>
     <use x="229.980469" xlink:href="#DejaVuSans-50"/>
     <use x="293.603516" xlink:href="#DejaVuSans-56"/>
     <use x="357.226562" xlink:href="#DejaVuSans-41"/>
    </g>
   </g>
   <g id="line2d_72">
    <path d="M 333.8625 164.879687 
L 353.8625 164.879687 
" style="fill:none;stroke:#d95f02;stroke-dasharray:4.5,1.5;stroke-dashoffset:0;stroke-width:1.5;"/>
   </g>
   <g id="line2d_73"/>
   <g id="text_33">
    <!-- BP (26) -->
    <g transform="translate(361.8625 168.379687)scale(0.1 -0.1)">
     <use xlink:href="#DejaVuSans-66"/>
     <use x="68.603516" xlink:href="#DejaVuSans-80"/>
     <use x="128.90625" xlink:href="#DejaVuSans-32"/>
     <use x="160.693359" xlink:href="#DejaVuSans-40"/>
     <use x="199.707031" xlink:href="#DejaVuSans-50"/>
     <use x="263.330078" xlink:href="#DejaVuSans-54"/>
     <use x="326.953125" xlink:href="#DejaVuSans-41"/>
    </g>
   </g>
   <g id="line2d_74">
    <path d="M 333.8625 179.557812 
L 353.8625 179.557812 
" style="fill:none;stroke:#7570b3;stroke-dasharray:4.5,1.5;stroke-dashoffset:0;stroke-width:1.5;"/>
   </g>
   <g id="line2d_75"/>
   <g id="text_34">
    <!-- SPD (26) -->
    <g transform="translate(361.8625 183.057812)scale(0.1 -0.1)">
     <use xlink:href="#DejaVuSans-83"/>
     <use x="63.476562" xlink:href="#DejaVuSans-80"/>
     <use x="123.779297" xlink:href="#DejaVuSans-68"/>
     <use x="200.78125" xlink:href="#DejaVuSans-32"/>
     <use x="232.568359" xlink:href="#DejaVuSans-40"/>
     <use x="271.582031" xlink:href="#DejaVuSans-50"/>
     <use x="335.205078" xlink:href="#DejaVuSans-54"/>
     <use x="398.828125" xlink:href="#DejaVuSans-41"/>
    </g>
   </g>
   <g id="line2d_76">
    <path d="M 333.8625 194.235937 
L 353.8625 194.235937 
" style="fill:none;stroke:#e7298a;stroke-dasharray:4.5,1.5;stroke-dashoffset:0;stroke-width:1.5;"/>
   </g>
   <g id="line2d_77"/>
   <g id="text_35">
    <!-- CB (25) -->
    <g transform="translate(361.8625 197.735937)scale(0.1 -0.1)">
     <use xlink:href="#DejaVuSans-67"/>
     <use x="69.824219" xlink:href="#DejaVuSans-66"/>
     <use x="138.427734" xlink:href="#DejaVuSans-32"/>
     <use x="170.214844" xlink:href="#DejaVuSans-40"/>
     <use x="209.228516" xlink:href="#DejaVuSans-50"/>
     <use x="272.851562" xlink:href="#DejaVuSans-53"/>
     <use x="336.474609" xlink:href="#DejaVuSans-41"/>
    </g>
   </g>
   <g id="line2d_78">
    <path d="M 333.8625 208.914062 
L 353.8625 208.914062 
" style="fill:none;stroke:#66a61e;stroke-dasharray:4.5,1.5;stroke-dashoffset:0;stroke-width:1.5;"/>
   </g>
   <g id="line2d_79"/>
   <g id="text_36">
    <!-- CC (25) -->
    <g transform="translate(361.8625 212.414062)scale(0.1 -0.1)">
     <use xlink:href="#DejaVuSans-67"/>
     <use x="69.824219" xlink:href="#DejaVuSans-67"/>
     <use x="139.648438" xlink:href="#DejaVuSans-32"/>
     <use x="171.435547" xlink:href="#DejaVuSans-40"/>
     <use x="210.449219" xlink:href="#DejaVuSans-50"/>
     <use x="274.072266" xlink:href="#DejaVuSans-53"/>
     <use x="337.695312" xlink:href="#DejaVuSans-41"/>
    </g>
   </g>
   <g id="line2d_80">
    <path d="M 333.8625 223.592187 
L 353.8625 223.592187 
" style="fill:none;stroke:#e6ab02;stroke-dasharray:4.5,1.5;stroke-dashoffset:0;stroke-width:1.5;"/>
   </g>
   <g id="line2d_81"/>
   <g id="text_37">
    <!-- RJPH (24) -->
    <defs>
     <path d="M 9.8125 72.90625 
L 19.671875 72.90625 
L 19.671875 5.078125 
Q 19.671875 -8.109375 14.671875 -14.0625 
Q 9.671875 -20.015625 -1.421875 -20.015625 
L -5.171875 -20.015625 
L -5.171875 -11.71875 
L -2.09375 -11.71875 
Q 4.4375 -11.71875 7.125 -8.046875 
Q 9.8125 -4.390625 9.8125 5.078125 
z
" id="DejaVuSans-74"/>
    </defs>
    <g transform="translate(361.8625 227.092187)scale(0.1 -0.1)">
     <use xlink:href="#DejaVuSans-82"/>
     <use x="69.482422" xlink:href="#DejaVuSans-74"/>
     <use x="98.974609" xlink:href="#DejaVuSans-80"/>
     <use x="159.277344" xlink:href="#DejaVuSans-72"/>
     <use x="234.472656" xlink:href="#DejaVuSans-32"/>
     <use x="266.259766" xlink:href="#DejaVuSans-40"/>
     <use x="305.273438" xlink:href="#DejaVuSans-50"/>
     <use x="368.896484" xlink:href="#DejaVuSans-52"/>
     <use x="432.519531" xlink:href="#DejaVuSans-41"/>
    </g>
   </g>
   <g id="line2d_82">
    <path d="M 333.8625 238.270312 
L 353.8625 238.270312 
" style="fill:none;stroke:#a6761d;stroke-dasharray:4.5,1.5;stroke-dashoffset:0;stroke-width:1.5;"/>
   </g>
   <g id="line2d_83"/>
   <g id="text_38">
    <!-- AHR-H (20) -->
    <g transform="translate(361.8625 241.770312)scale(0.1 -0.1)">
     <use xlink:href="#DejaVuSans-65"/>
     <use x="68.408203" xlink:href="#DejaVuSans-72"/>
     <use x="143.603516" xlink:href="#DejaVuSans-82"/>
     <use x="213.023438" xlink:href="#DejaVuSans-45"/>
     <use x="249.107422" xlink:href="#DejaVuSans-72"/>
     <use x="324.302734" xlink:href="#DejaVuSans-32"/>
     <use x="356.089844" xlink:href="#DejaVuSans-40"/>
     <use x="395.103516" xlink:href="#DejaVuSans-50"/>
     <use x="458.726562" xlink:href="#DejaVuSans-48"/>
     <use x="522.349609" xlink:href="#DejaVuSans-41"/>
    </g>
   </g>
   <g id="line2d_84">
    <path d="M 333.8625 252.948437 
L 353.8625 252.948437 
" style="fill:none;stroke:#666666;stroke-dasharray:4.5,1.5;stroke-dashoffset:0;stroke-width:1.5;"/>
   </g>
   <g id="line2d_85"/>
   <g id="text_39">
    <!-- AHR-A (20) -->
    <g transform="translate(361.8625 256.448437)scale(0.1 -0.1)">
     <use xlink:href="#DejaVuSans-65"/>
     <use x="68.408203" xlink:href="#DejaVuSans-72"/>
     <use x="143.603516" xlink:href="#DejaVuSans-82"/>
     <use x="213.023438" xlink:href="#DejaVuSans-45"/>
     <use x="249.076172" xlink:href="#DejaVuSans-65"/>
     <use x="317.484375" xlink:href="#DejaVuSans-32"/>
     <use x="349.271484" xlink:href="#DejaVuSans-40"/>
     <use x="388.285156" xlink:href="#DejaVuSans-50"/>
     <use x="451.908203" xlink:href="#DejaVuSans-48"/>
     <use x="515.53125" xlink:href="#DejaVuSans-41"/>
    </g>
   </g>
  </g>
 </g>
 <defs>
  <clipPath id="p2d6e9405e2">
   <rect height="207.330771" width="271.81" x="43.55" y="12.9"/>
  </clipPath>
 </defs>
</svg>
