<?xml version="1.0" encoding="utf-8" standalone="no"?>
<!DOCTYPE svg PUBLIC "-//W3C//DTD SVG 1.1//EN"
  "http://www.w3.org/Graphics/SVG/1.1/DTD/svg11.dtd">
<!-- Created with matplotlib (https://matplotlib.org/) -->
<svg height="288pt" version="1.1" viewBox="0 0 432 288" width="432pt" xmlns="http://www.w3.org/2000/svg" xmlns:xlink="http://www.w3.org/1999/xlink">
 <defs>
  <style type="text/css">
*{stroke-linecap:butt;stroke-linejoin:round;}
  </style>
 </defs>
 <g id="figure_1">
  <g id="patch_1">
   <path d="M 0 288 
L 432 288 
L 432 0 
L 0 0 
z
" style="fill:#ffffff;"/>
  </g>
  <g id="axes_1">
   <g id="patch_2">
    <path d="M 43.55 220.230771 
L 315.36 220.230771 
L 315.36 12.9 
L 43.55 12.9 
z
" style="fill:#ffffff;"/>
   </g>
   <g id="matplotlib.axis_1">
    <g id="xtick_1">
     <g id="line2d_1">
      <defs>
       <path d="M 0 0 
L 0 3.5 
" id="me9bc37e081" style="stroke:#000000;stroke-width:0.8;"/>
      </defs>
      <g>
       <use style="stroke:#000000;stroke-width:0.8;" x="48.331357" xlink:href="#me9bc37e081" y="220.230771"/>
      </g>
     </g>
     <g id="text_1">
      <!-- 2020-11-29 -->
      <defs>
       <path d="M 19.1875 8.296875 
L 53.609375 8.296875 
L 53.609375 0 
L 7.328125 0 
L 7.328125 8.296875 
Q 12.9375 14.109375 22.625 23.890625 
Q 32.328125 33.6875 34.8125 36.53125 
Q 39.546875 41.84375 41.421875 45.53125 
Q 43.3125 49.21875 43.3125 52.78125 
Q 43.3125 58.59375 39.234375 62.25 
Q 35.15625 65.921875 28.609375 65.921875 
Q 23.96875 65.921875 18.8125 64.3125 
Q 13.671875 62.703125 7.8125 59.421875 
L 7.8125 69.390625 
Q 13.765625 71.78125 18.9375 73 
Q 24.125 74.21875 28.421875 74.21875 
Q 39.75 74.21875 46.484375 68.546875 
Q 53.21875 62.890625 53.21875 53.421875 
Q 53.21875 48.921875 51.53125 44.890625 
Q 49.859375 40.875 45.40625 35.40625 
Q 44.1875 33.984375 37.640625 27.21875 
Q 31.109375 20.453125 19.1875 8.296875 
z
" id="DejaVuSans-50"/>
       <path d="M 31.78125 66.40625 
Q 24.171875 66.40625 20.328125 58.90625 
Q 16.5 51.421875 16.5 36.375 
Q 16.5 21.390625 20.328125 13.890625 
Q 24.171875 6.390625 31.78125 6.390625 
Q 39.453125 6.390625 43.28125 13.890625 
Q 47.125 21.390625 47.125 36.375 
Q 47.125 51.421875 43.28125 58.90625 
Q 39.453125 66.40625 31.78125 66.40625 
z
M 31.78125 74.21875 
Q 44.046875 74.21875 50.515625 64.515625 
Q 56.984375 54.828125 56.984375 36.375 
Q 56.984375 17.96875 50.515625 8.265625 
Q 44.046875 -1.421875 31.78125 -1.421875 
Q 19.53125 -1.421875 13.0625 8.265625 
Q 6.59375 17.96875 6.59375 36.375 
Q 6.59375 54.828125 13.0625 64.515625 
Q 19.53125 74.21875 31.78125 74.21875 
z
" id="DejaVuSans-48"/>
       <path d="M 4.890625 31.390625 
L 31.203125 31.390625 
L 31.203125 23.390625 
L 4.890625 23.390625 
z
" id="DejaVuSans-45"/>
       <path d="M 12.40625 8.296875 
L 28.515625 8.296875 
L 28.515625 63.921875 
L 10.984375 60.40625 
L 10.984375 69.390625 
L 28.421875 72.90625 
L 38.28125 72.90625 
L 38.28125 8.296875 
L 54.390625 8.296875 
L 54.390625 0 
L 12.40625 0 
z
" id="DejaVuSans-49"/>
       <path d="M 10.984375 1.515625 
L 10.984375 10.5 
Q 14.703125 8.734375 18.5 7.8125 
Q 22.3125 6.890625 25.984375 6.890625 
Q 35.75 6.890625 40.890625 13.453125 
Q 46.046875 20.015625 46.78125 33.40625 
Q 43.953125 29.203125 39.59375 26.953125 
Q 35.25 24.703125 29.984375 24.703125 
Q 19.046875 24.703125 12.671875 31.3125 
Q 6.296875 37.9375 6.296875 49.421875 
Q 6.296875 60.640625 12.9375 67.421875 
Q 19.578125 74.21875 30.609375 74.21875 
Q 43.265625 74.21875 49.921875 64.515625 
Q 56.59375 54.828125 56.59375 36.375 
Q 56.59375 19.140625 48.40625 8.859375 
Q 40.234375 -1.421875 26.421875 -1.421875 
Q 22.703125 -1.421875 18.890625 -0.6875 
Q 15.09375 0.046875 10.984375 1.515625 
z
M 30.609375 32.421875 
Q 37.25 32.421875 41.125 36.953125 
Q 45.015625 41.5 45.015625 49.421875 
Q 45.015625 57.28125 41.125 61.84375 
Q 37.25 66.40625 30.609375 66.40625 
Q 23.96875 66.40625 20.09375 61.84375 
Q 16.21875 57.28125 16.21875 49.421875 
Q 16.21875 41.5 20.09375 36.953125 
Q 23.96875 32.421875 30.609375 32.421875 
z
" id="DejaVuSans-57"/>
      </defs>
      <g transform="translate(24.54624 262.869024)rotate(-30)scale(0.1 -0.1)">
       <use xlink:href="#DejaVuSans-50"/>
       <use x="63.623047" xlink:href="#DejaVuSans-48"/>
       <use x="127.246094" xlink:href="#DejaVuSans-50"/>
       <use x="190.869141" xlink:href="#DejaVuSans-48"/>
       <use x="254.492188" xlink:href="#DejaVuSans-45"/>
       <use x="290.576172" xlink:href="#DejaVuSans-49"/>
       <use x="354.199219" xlink:href="#DejaVuSans-49"/>
       <use x="417.822266" xlink:href="#DejaVuSans-45"/>
       <use x="453.90625" xlink:href="#DejaVuSans-50"/>
       <use x="517.529297" xlink:href="#DejaVuSans-57"/>
      </g>
     </g>
    </g>
    <g id="xtick_2">
     <g id="line2d_2">
      <g>
       <use style="stroke:#000000;stroke-width:0.8;" x="58.790662" xlink:href="#me9bc37e081" y="220.230771"/>
      </g>
     </g>
     <g id="text_2">
      <!-- 2020-12-01 -->
      <g transform="translate(35.005546 262.869024)rotate(-30)scale(0.1 -0.1)">
       <use xlink:href="#DejaVuSans-50"/>
       <use x="63.623047" xlink:href="#DejaVuSans-48"/>
       <use x="127.246094" xlink:href="#DejaVuSans-50"/>
       <use x="190.869141" xlink:href="#DejaVuSans-48"/>
       <use x="254.492188" xlink:href="#DejaVuSans-45"/>
       <use x="290.576172" xlink:href="#DejaVuSans-49"/>
       <use x="354.199219" xlink:href="#DejaVuSans-50"/>
       <use x="417.822266" xlink:href="#DejaVuSans-45"/>
       <use x="453.90625" xlink:href="#DejaVuSans-48"/>
       <use x="517.529297" xlink:href="#DejaVuSans-49"/>
      </g>
     </g>
    </g>
    <g id="xtick_3">
     <g id="line2d_3">
      <g>
       <use style="stroke:#000000;stroke-width:0.8;" x="95.398232" xlink:href="#me9bc37e081" y="220.230771"/>
      </g>
     </g>
     <g id="text_3">
      <!-- 2020-12-08 -->
      <defs>
       <path d="M 31.78125 34.625 
Q 24.75 34.625 20.71875 30.859375 
Q 16.703125 27.09375 16.703125 20.515625 
Q 16.703125 13.921875 20.71875 10.15625 
Q 24.75 6.390625 31.78125 6.390625 
Q 38.8125 6.390625 42.859375 10.171875 
Q 46.921875 13.96875 46.921875 20.515625 
Q 46.921875 27.09375 42.890625 30.859375 
Q 38.875 34.625 31.78125 34.625 
z
M 21.921875 38.8125 
Q 15.578125 40.375 12.03125 44.71875 
Q 8.5 49.078125 8.5 55.328125 
Q 8.5 64.0625 14.71875 69.140625 
Q 20.953125 74.21875 31.78125 74.21875 
Q 42.671875 74.21875 48.875 69.140625 
Q 55.078125 64.0625 55.078125 55.328125 
Q 55.078125 49.078125 51.53125 44.71875 
Q 48 40.375 41.703125 38.8125 
Q 48.828125 37.15625 52.796875 32.3125 
Q 56.78125 27.484375 56.78125 20.515625 
Q 56.78125 9.90625 50.3125 4.234375 
Q 43.84375 -1.421875 31.78125 -1.421875 
Q 19.734375 -1.421875 13.25 4.234375 
Q 6.78125 9.90625 6.78125 20.515625 
Q 6.78125 27.484375 10.78125 32.3125 
Q 14.796875 37.15625 21.921875 38.8125 
z
M 18.3125 54.390625 
Q 18.3125 48.734375 21.84375 45.5625 
Q 25.390625 42.390625 31.78125 42.390625 
Q 38.140625 42.390625 41.71875 45.5625 
Q 45.3125 48.734375 45.3125 54.390625 
Q 45.3125 60.0625 41.71875 63.234375 
Q 38.140625 66.40625 31.78125 66.40625 
Q 25.390625 66.40625 21.84375 63.234375 
Q 18.3125 60.0625 18.3125 54.390625 
z
" id="DejaVuSans-56"/>
      </defs>
      <g transform="translate(71.613116 262.869024)rotate(-30)scale(0.1 -0.1)">
       <use xlink:href="#DejaVuSans-50"/>
       <use x="63.623047" xlink:href="#DejaVuSans-48"/>
       <use x="127.246094" xlink:href="#DejaVuSans-50"/>
       <use x="190.869141" xlink:href="#DejaVuSans-48"/>
       <use x="254.492188" xlink:href="#DejaVuSans-45"/>
       <use x="290.576172" xlink:href="#DejaVuSans-49"/>
       <use x="354.199219" xlink:href="#DejaVuSans-50"/>
       <use x="417.822266" xlink:href="#DejaVuSans-45"/>
       <use x="453.90625" xlink:href="#DejaVuSans-48"/>
       <use x="517.529297" xlink:href="#DejaVuSans-56"/>
      </g>
     </g>
    </g>
    <g id="xtick_4">
     <g id="line2d_4">
      <g>
       <use style="stroke:#000000;stroke-width:0.8;" x="132.005802" xlink:href="#me9bc37e081" y="220.230771"/>
      </g>
     </g>
     <g id="text_4">
      <!-- 2020-12-15 -->
      <defs>
       <path d="M 10.796875 72.90625 
L 49.515625 72.90625 
L 49.515625 64.59375 
L 19.828125 64.59375 
L 19.828125 46.734375 
Q 21.96875 47.46875 24.109375 47.828125 
Q 26.265625 48.1875 28.421875 48.1875 
Q 40.625 48.1875 47.75 41.5 
Q 54.890625 34.8125 54.890625 23.390625 
Q 54.890625 11.625 47.5625 5.09375 
Q 40.234375 -1.421875 26.90625 -1.421875 
Q 22.3125 -1.421875 17.546875 -0.640625 
Q 12.796875 0.140625 7.71875 1.703125 
L 7.71875 11.625 
Q 12.109375 9.234375 16.796875 8.0625 
Q 21.484375 6.890625 26.703125 6.890625 
Q 35.15625 6.890625 40.078125 11.328125 
Q 45.015625 15.765625 45.015625 23.390625 
Q 45.015625 31 40.078125 35.4375 
Q 35.15625 39.890625 26.703125 39.890625 
Q 22.75 39.890625 18.8125 39.015625 
Q 14.890625 38.140625 10.796875 36.28125 
z
" id="DejaVuSans-53"/>
      </defs>
      <g transform="translate(108.220686 262.869024)rotate(-30)scale(0.1 -0.1)">
       <use xlink:href="#DejaVuSans-50"/>
       <use x="63.623047" xlink:href="#DejaVuSans-48"/>
       <use x="127.246094" xlink:href="#DejaVuSans-50"/>
       <use x="190.869141" xlink:href="#DejaVuSans-48"/>
       <use x="254.492188" xlink:href="#DejaVuSans-45"/>
       <use x="290.576172" xlink:href="#DejaVuSans-49"/>
       <use x="354.199219" xlink:href="#DejaVuSans-50"/>
       <use x="417.822266" xlink:href="#DejaVuSans-45"/>
       <use x="453.90625" xlink:href="#DejaVuSans-49"/>
       <use x="517.529297" xlink:href="#DejaVuSans-53"/>
      </g>
     </g>
    </g>
    <g id="xtick_5">
     <g id="line2d_5">
      <g>
       <use style="stroke:#000000;stroke-width:0.8;" x="168.613372" xlink:href="#me9bc37e081" y="220.230771"/>
      </g>
     </g>
     <g id="text_5">
      <!-- 2020-12-22 -->
      <g transform="translate(144.828256 262.869024)rotate(-30)scale(0.1 -0.1)">
       <use xlink:href="#DejaVuSans-50"/>
       <use x="63.623047" xlink:href="#DejaVuSans-48"/>
       <use x="127.246094" xlink:href="#DejaVuSans-50"/>
       <use x="190.869141" xlink:href="#DejaVuSans-48"/>
       <use x="254.492188" xlink:href="#DejaVuSans-45"/>
       <use x="290.576172" xlink:href="#DejaVuSans-49"/>
       <use x="354.199219" xlink:href="#DejaVuSans-50"/>
       <use x="417.822266" xlink:href="#DejaVuSans-45"/>
       <use x="453.90625" xlink:href="#DejaVuSans-50"/>
       <use x="517.529297" xlink:href="#DejaVuSans-50"/>
      </g>
     </g>
    </g>
    <g id="xtick_6">
     <g id="line2d_6">
      <g>
       <use style="stroke:#000000;stroke-width:0.8;" x="205.220942" xlink:href="#me9bc37e081" y="220.230771"/>
      </g>
     </g>
     <g id="text_6">
      <!-- 2020-12-29 -->
      <g transform="translate(181.435825 262.869024)rotate(-30)scale(0.1 -0.1)">
       <use xlink:href="#DejaVuSans-50"/>
       <use x="63.623047" xlink:href="#DejaVuSans-48"/>
       <use x="127.246094" xlink:href="#DejaVuSans-50"/>
       <use x="190.869141" xlink:href="#DejaVuSans-48"/>
       <use x="254.492188" xlink:href="#DejaVuSans-45"/>
       <use x="290.576172" xlink:href="#DejaVuSans-49"/>
       <use x="354.199219" xlink:href="#DejaVuSans-50"/>
       <use x="417.822266" xlink:href="#DejaVuSans-45"/>
       <use x="453.90625" xlink:href="#DejaVuSans-50"/>
       <use x="517.529297" xlink:href="#DejaVuSans-57"/>
      </g>
     </g>
    </g>
    <g id="xtick_7">
     <g id="line2d_7">
      <g>
       <use style="stroke:#000000;stroke-width:0.8;" x="220.9099" xlink:href="#me9bc37e081" y="220.230771"/>
      </g>
     </g>
     <g id="text_7">
      <!-- 2021-01-01 -->
      <g transform="translate(197.124784 262.869024)rotate(-30)scale(0.1 -0.1)">
       <use xlink:href="#DejaVuSans-50"/>
       <use x="63.623047" xlink:href="#DejaVuSans-48"/>
       <use x="127.246094" xlink:href="#DejaVuSans-50"/>
       <use x="190.869141" xlink:href="#DejaVuSans-49"/>
       <use x="254.492188" xlink:href="#DejaVuSans-45"/>
       <use x="290.576172" xlink:href="#DejaVuSans-48"/>
       <use x="354.199219" xlink:href="#DejaVuSans-49"/>
       <use x="417.822266" xlink:href="#DejaVuSans-45"/>
       <use x="453.90625" xlink:href="#DejaVuSans-48"/>
       <use x="517.529297" xlink:href="#DejaVuSans-49"/>
      </g>
     </g>
    </g>
    <g id="xtick_8">
     <g id="line2d_8">
      <g>
       <use style="stroke:#000000;stroke-width:0.8;" x="257.51747" xlink:href="#me9bc37e081" y="220.230771"/>
      </g>
     </g>
     <g id="text_8">
      <!-- 2021-01-08 -->
      <g transform="translate(233.732354 262.869024)rotate(-30)scale(0.1 -0.1)">
       <use xlink:href="#DejaVuSans-50"/>
       <use x="63.623047" xlink:href="#DejaVuSans-48"/>
       <use x="127.246094" xlink:href="#DejaVuSans-50"/>
       <use x="190.869141" xlink:href="#DejaVuSans-49"/>
       <use x="254.492188" xlink:href="#DejaVuSans-45"/>
       <use x="290.576172" xlink:href="#DejaVuSans-48"/>
       <use x="354.199219" xlink:href="#DejaVuSans-49"/>
       <use x="417.822266" xlink:href="#DejaVuSans-45"/>
       <use x="453.90625" xlink:href="#DejaVuSans-48"/>
       <use x="517.529297" xlink:href="#DejaVuSans-56"/>
      </g>
     </g>
    </g>
    <g id="xtick_9">
     <g id="line2d_9">
      <g>
       <use style="stroke:#000000;stroke-width:0.8;" x="294.12504" xlink:href="#me9bc37e081" y="220.230771"/>
      </g>
     </g>
     <g id="text_9">
      <!-- 2021-01-15 -->
      <g transform="translate(270.339923 262.869024)rotate(-30)scale(0.1 -0.1)">
       <use xlink:href="#DejaVuSans-50"/>
       <use x="63.623047" xlink:href="#DejaVuSans-48"/>
       <use x="127.246094" xlink:href="#DejaVuSans-50"/>
       <use x="190.869141" xlink:href="#DejaVuSans-49"/>
       <use x="254.492188" xlink:href="#DejaVuSans-45"/>
       <use x="290.576172" xlink:href="#DejaVuSans-48"/>
       <use x="354.199219" xlink:href="#DejaVuSans-49"/>
       <use x="417.822266" xlink:href="#DejaVuSans-45"/>
       <use x="453.90625" xlink:href="#DejaVuSans-49"/>
       <use x="517.529297" xlink:href="#DejaVuSans-53"/>
      </g>
     </g>
    </g>
    <g id="text_10">
     <!-- Date -->
     <defs>
      <path d="M 19.671875 64.796875 
L 19.671875 8.109375 
L 31.59375 8.109375 
Q 46.6875 8.109375 53.6875 14.9375 
Q 60.6875 21.78125 60.6875 36.53125 
Q 60.6875 51.171875 53.6875 57.984375 
Q 46.6875 64.796875 31.59375 64.796875 
z
M 9.8125 72.90625 
L 30.078125 72.90625 
Q 51.265625 72.90625 61.171875 64.09375 
Q 71.09375 55.28125 71.09375 36.53125 
Q 71.09375 17.671875 61.125 8.828125 
Q 51.171875 0 30.078125 0 
L 9.8125 0 
z
" id="DejaVuSans-68"/>
      <path d="M 34.28125 27.484375 
Q 23.390625 27.484375 19.1875 25 
Q 14.984375 22.515625 14.984375 16.5 
Q 14.984375 11.71875 18.140625 8.90625 
Q 21.296875 6.109375 26.703125 6.109375 
Q 34.1875 6.109375 38.703125 11.40625 
Q 43.21875 16.703125 43.21875 25.484375 
L 43.21875 27.484375 
z
M 52.203125 31.203125 
L 52.203125 0 
L 43.21875 0 
L 43.21875 8.296875 
Q 40.140625 3.328125 35.546875 0.953125 
Q 30.953125 -1.421875 24.3125 -1.421875 
Q 15.921875 -1.421875 10.953125 3.296875 
Q 6 8.015625 6 15.921875 
Q 6 25.140625 12.171875 29.828125 
Q 18.359375 34.515625 30.609375 34.515625 
L 43.21875 34.515625 
L 43.21875 35.40625 
Q 43.21875 41.609375 39.140625 45 
Q 35.0625 48.390625 27.6875 48.390625 
Q 23 48.390625 18.546875 47.265625 
Q 14.109375 46.140625 10.015625 43.890625 
L 10.015625 52.203125 
Q 14.9375 54.109375 19.578125 55.046875 
Q 24.21875 56 28.609375 56 
Q 40.484375 56 46.34375 49.84375 
Q 52.203125 43.703125 52.203125 31.203125 
z
" id="DejaVuSans-97"/>
      <path d="M 18.3125 70.21875 
L 18.3125 54.6875 
L 36.8125 54.6875 
L 36.8125 47.703125 
L 18.3125 47.703125 
L 18.3125 18.015625 
Q 18.3125 11.328125 20.140625 9.421875 
Q 21.96875 7.515625 27.59375 7.515625 
L 36.8125 7.515625 
L 36.8125 0 
L 27.59375 0 
Q 17.1875 0 13.234375 3.875 
Q 9.28125 7.765625 9.28125 18.015625 
L 9.28125 47.703125 
L 2.6875 47.703125 
L 2.6875 54.6875 
L 9.28125 54.6875 
L 9.28125 70.21875 
z
" id="DejaVuSans-116"/>
      <path d="M 56.203125 29.59375 
L 56.203125 25.203125 
L 14.890625 25.203125 
Q 15.484375 15.921875 20.484375 11.0625 
Q 25.484375 6.203125 34.421875 6.203125 
Q 39.59375 6.203125 44.453125 7.46875 
Q 49.3125 8.734375 54.109375 11.28125 
L 54.109375 2.78125 
Q 49.265625 0.734375 44.1875 -0.34375 
Q 39.109375 -1.421875 33.890625 -1.421875 
Q 20.796875 -1.421875 13.15625 6.1875 
Q 5.515625 13.8125 5.515625 26.8125 
Q 5.515625 40.234375 12.765625 48.109375 
Q 20.015625 56 32.328125 56 
Q 43.359375 56 49.78125 48.890625 
Q 56.203125 41.796875 56.203125 29.59375 
z
M 47.21875 32.234375 
Q 47.125 39.59375 43.09375 43.984375 
Q 39.0625 48.390625 32.421875 48.390625 
Q 24.90625 48.390625 20.390625 44.140625 
Q 15.875 39.890625 15.1875 32.171875 
z
" id="DejaVuSans-101"/>
     </defs>
     <g transform="translate(167.504219 276.268523)scale(0.1 -0.1)">
      <use xlink:href="#DejaVuSans-68"/>
      <use x="77.001953" xlink:href="#DejaVuSans-97"/>
      <use x="138.28125" xlink:href="#DejaVuSans-116"/>
      <use x="177.490234" xlink:href="#DejaVuSans-101"/>
     </g>
    </g>
   </g>
   <g id="matplotlib.axis_2">
    <g id="ytick_1">
     <g id="line2d_10">
      <defs>
       <path d="M 0 0 
L -3.5 0 
" id="m31ba05e718" style="stroke:#000000;stroke-width:0.8;"/>
      </defs>
      <g>
       <use style="stroke:#000000;stroke-width:0.8;" x="43.55" xlink:href="#m31ba05e718" y="210.806645"/>
      </g>
     </g>
     <g id="text_11">
      <!-- 0 -->
      <g transform="translate(30.1875 214.605864)scale(0.1 -0.1)">
       <use xlink:href="#DejaVuSans-48"/>
      </g>
     </g>
    </g>
    <g id="ytick_2">
     <g id="line2d_11">
      <g>
       <use style="stroke:#000000;stroke-width:0.8;" x="43.55" xlink:href="#m31ba05e718" y="187.24633"/>
      </g>
     </g>
     <g id="text_12">
      <!-- 5 -->
      <g transform="translate(30.1875 191.045549)scale(0.1 -0.1)">
       <use xlink:href="#DejaVuSans-53"/>
      </g>
     </g>
    </g>
    <g id="ytick_3">
     <g id="line2d_12">
      <g>
       <use style="stroke:#000000;stroke-width:0.8;" x="43.55" xlink:href="#m31ba05e718" y="163.686016"/>
      </g>
     </g>
     <g id="text_13">
      <!-- 10 -->
      <g transform="translate(23.825 167.485234)scale(0.1 -0.1)">
       <use xlink:href="#DejaVuSans-49"/>
       <use x="63.623047" xlink:href="#DejaVuSans-48"/>
      </g>
     </g>
    </g>
    <g id="ytick_4">
     <g id="line2d_13">
      <g>
       <use style="stroke:#000000;stroke-width:0.8;" x="43.55" xlink:href="#m31ba05e718" y="140.125701"/>
      </g>
     </g>
     <g id="text_14">
      <!-- 15 -->
      <g transform="translate(23.825 143.924919)scale(0.1 -0.1)">
       <use xlink:href="#DejaVuSans-49"/>
       <use x="63.623047" xlink:href="#DejaVuSans-53"/>
      </g>
     </g>
    </g>
    <g id="ytick_5">
     <g id="line2d_14">
      <g>
       <use style="stroke:#000000;stroke-width:0.8;" x="43.55" xlink:href="#m31ba05e718" y="116.565386"/>
      </g>
     </g>
     <g id="text_15">
      <!-- 20 -->
      <g transform="translate(23.825 120.364604)scale(0.1 -0.1)">
       <use xlink:href="#DejaVuSans-50"/>
       <use x="63.623047" xlink:href="#DejaVuSans-48"/>
      </g>
     </g>
    </g>
    <g id="ytick_6">
     <g id="line2d_15">
      <g>
       <use style="stroke:#000000;stroke-width:0.8;" x="43.55" xlink:href="#m31ba05e718" y="93.005071"/>
      </g>
     </g>
     <g id="text_16">
      <!-- 25 -->
      <g transform="translate(23.825 96.80429)scale(0.1 -0.1)">
       <use xlink:href="#DejaVuSans-50"/>
       <use x="63.623047" xlink:href="#DejaVuSans-53"/>
      </g>
     </g>
    </g>
    <g id="ytick_7">
     <g id="line2d_16">
      <g>
       <use style="stroke:#000000;stroke-width:0.8;" x="43.55" xlink:href="#m31ba05e718" y="69.444756"/>
      </g>
     </g>
     <g id="text_17">
      <!-- 30 -->
      <defs>
       <path d="M 40.578125 39.3125 
Q 47.65625 37.796875 51.625 33 
Q 55.609375 28.21875 55.609375 21.1875 
Q 55.609375 10.40625 48.1875 4.484375 
Q 40.765625 -1.421875 27.09375 -1.421875 
Q 22.515625 -1.421875 17.65625 -0.515625 
Q 12.796875 0.390625 7.625 2.203125 
L 7.625 11.71875 
Q 11.71875 9.328125 16.59375 8.109375 
Q 21.484375 6.890625 26.8125 6.890625 
Q 36.078125 6.890625 40.9375 10.546875 
Q 45.796875 14.203125 45.796875 21.1875 
Q 45.796875 27.640625 41.28125 31.265625 
Q 36.765625 34.90625 28.71875 34.90625 
L 20.21875 34.90625 
L 20.21875 43.015625 
L 29.109375 43.015625 
Q 36.375 43.015625 40.234375 45.921875 
Q 44.09375 48.828125 44.09375 54.296875 
Q 44.09375 59.90625 40.109375 62.90625 
Q 36.140625 65.921875 28.71875 65.921875 
Q 24.65625 65.921875 20.015625 65.03125 
Q 15.375 64.15625 9.8125 62.3125 
L 9.8125 71.09375 
Q 15.4375 72.65625 20.34375 73.4375 
Q 25.25 74.21875 29.59375 74.21875 
Q 40.828125 74.21875 47.359375 69.109375 
Q 53.90625 64.015625 53.90625 55.328125 
Q 53.90625 49.265625 50.4375 45.09375 
Q 46.96875 40.921875 40.578125 39.3125 
z
" id="DejaVuSans-51"/>
      </defs>
      <g transform="translate(23.825 73.243975)scale(0.1 -0.1)">
       <use xlink:href="#DejaVuSans-51"/>
       <use x="63.623047" xlink:href="#DejaVuSans-48"/>
      </g>
     </g>
    </g>
    <g id="ytick_8">
     <g id="line2d_17">
      <g>
       <use style="stroke:#000000;stroke-width:0.8;" x="43.55" xlink:href="#m31ba05e718" y="45.884441"/>
      </g>
     </g>
     <g id="text_18">
      <!-- 35 -->
      <g transform="translate(23.825 49.68366)scale(0.1 -0.1)">
       <use xlink:href="#DejaVuSans-51"/>
       <use x="63.623047" xlink:href="#DejaVuSans-53"/>
      </g>
     </g>
    </g>
    <g id="ytick_9">
     <g id="line2d_18">
      <g>
       <use style="stroke:#000000;stroke-width:0.8;" x="43.55" xlink:href="#m31ba05e718" y="22.324126"/>
      </g>
     </g>
     <g id="text_19">
      <!-- 40 -->
      <defs>
       <path d="M 37.796875 64.3125 
L 12.890625 25.390625 
L 37.796875 25.390625 
z
M 35.203125 72.90625 
L 47.609375 72.90625 
L 47.609375 25.390625 
L 58.015625 25.390625 
L 58.015625 17.1875 
L 47.609375 17.1875 
L 47.609375 0 
L 37.796875 0 
L 37.796875 17.1875 
L 4.890625 17.1875 
L 4.890625 26.703125 
z
" id="DejaVuSans-52"/>
      </defs>
      <g transform="translate(23.825 26.123345)scale(0.1 -0.1)">
       <use xlink:href="#DejaVuSans-52"/>
       <use x="63.623047" xlink:href="#DejaVuSans-48"/>
      </g>
     </g>
    </g>
    <g id="text_20">
     <!-- Students Registered -->
     <defs>
      <path d="M 53.515625 70.515625 
L 53.515625 60.890625 
Q 47.90625 63.578125 42.921875 64.890625 
Q 37.9375 66.21875 33.296875 66.21875 
Q 25.25 66.21875 20.875 63.09375 
Q 16.5 59.96875 16.5 54.203125 
Q 16.5 49.359375 19.40625 46.890625 
Q 22.3125 44.4375 30.421875 42.921875 
L 36.375 41.703125 
Q 47.40625 39.59375 52.65625 34.296875 
Q 57.90625 29 57.90625 20.125 
Q 57.90625 9.515625 50.796875 4.046875 
Q 43.703125 -1.421875 29.984375 -1.421875 
Q 24.8125 -1.421875 18.96875 -0.25 
Q 13.140625 0.921875 6.890625 3.21875 
L 6.890625 13.375 
Q 12.890625 10.015625 18.65625 8.296875 
Q 24.421875 6.59375 29.984375 6.59375 
Q 38.421875 6.59375 43.015625 9.90625 
Q 47.609375 13.234375 47.609375 19.390625 
Q 47.609375 24.75 44.3125 27.78125 
Q 41.015625 30.8125 33.5 32.328125 
L 27.484375 33.5 
Q 16.453125 35.6875 11.515625 40.375 
Q 6.59375 45.0625 6.59375 53.421875 
Q 6.59375 63.09375 13.40625 68.65625 
Q 20.21875 74.21875 32.171875 74.21875 
Q 37.3125 74.21875 42.625 73.28125 
Q 47.953125 72.359375 53.515625 70.515625 
z
" id="DejaVuSans-83"/>
      <path d="M 8.5 21.578125 
L 8.5 54.6875 
L 17.484375 54.6875 
L 17.484375 21.921875 
Q 17.484375 14.15625 20.5 10.265625 
Q 23.53125 6.390625 29.59375 6.390625 
Q 36.859375 6.390625 41.078125 11.03125 
Q 45.3125 15.671875 45.3125 23.6875 
L 45.3125 54.6875 
L 54.296875 54.6875 
L 54.296875 0 
L 45.3125 0 
L 45.3125 8.40625 
Q 42.046875 3.421875 37.71875 1 
Q 33.40625 -1.421875 27.6875 -1.421875 
Q 18.265625 -1.421875 13.375 4.4375 
Q 8.5 10.296875 8.5 21.578125 
z
M 31.109375 56 
z
" id="DejaVuSans-117"/>
      <path d="M 45.40625 46.390625 
L 45.40625 75.984375 
L 54.390625 75.984375 
L 54.390625 0 
L 45.40625 0 
L 45.40625 8.203125 
Q 42.578125 3.328125 38.25 0.953125 
Q 33.9375 -1.421875 27.875 -1.421875 
Q 17.96875 -1.421875 11.734375 6.484375 
Q 5.515625 14.40625 5.515625 27.296875 
Q 5.515625 40.1875 11.734375 48.09375 
Q 17.96875 56 27.875 56 
Q 33.9375 56 38.25 53.625 
Q 42.578125 51.265625 45.40625 46.390625 
z
M 14.796875 27.296875 
Q 14.796875 17.390625 18.875 11.75 
Q 22.953125 6.109375 30.078125 6.109375 
Q 37.203125 6.109375 41.296875 11.75 
Q 45.40625 17.390625 45.40625 27.296875 
Q 45.40625 37.203125 41.296875 42.84375 
Q 37.203125 48.484375 30.078125 48.484375 
Q 22.953125 48.484375 18.875 42.84375 
Q 14.796875 37.203125 14.796875 27.296875 
z
" id="DejaVuSans-100"/>
      <path d="M 54.890625 33.015625 
L 54.890625 0 
L 45.90625 0 
L 45.90625 32.71875 
Q 45.90625 40.484375 42.875 44.328125 
Q 39.84375 48.1875 33.796875 48.1875 
Q 26.515625 48.1875 22.3125 43.546875 
Q 18.109375 38.921875 18.109375 30.90625 
L 18.109375 0 
L 9.078125 0 
L 9.078125 54.6875 
L 18.109375 54.6875 
L 18.109375 46.1875 
Q 21.34375 51.125 25.703125 53.5625 
Q 30.078125 56 35.796875 56 
Q 45.21875 56 50.046875 50.171875 
Q 54.890625 44.34375 54.890625 33.015625 
z
" id="DejaVuSans-110"/>
      <path d="M 44.28125 53.078125 
L 44.28125 44.578125 
Q 40.484375 46.53125 36.375 47.5 
Q 32.28125 48.484375 27.875 48.484375 
Q 21.1875 48.484375 17.84375 46.4375 
Q 14.5 44.390625 14.5 40.28125 
Q 14.5 37.15625 16.890625 35.375 
Q 19.28125 33.59375 26.515625 31.984375 
L 29.59375 31.296875 
Q 39.15625 29.25 43.1875 25.515625 
Q 47.21875 21.78125 47.21875 15.09375 
Q 47.21875 7.46875 41.1875 3.015625 
Q 35.15625 -1.421875 24.609375 -1.421875 
Q 20.21875 -1.421875 15.453125 -0.5625 
Q 10.6875 0.296875 5.421875 2 
L 5.421875 11.28125 
Q 10.40625 8.6875 15.234375 7.390625 
Q 20.0625 6.109375 24.8125 6.109375 
Q 31.15625 6.109375 34.5625 8.28125 
Q 37.984375 10.453125 37.984375 14.40625 
Q 37.984375 18.0625 35.515625 20.015625 
Q 33.0625 21.96875 24.703125 23.78125 
L 21.578125 24.515625 
Q 13.234375 26.265625 9.515625 29.90625 
Q 5.8125 33.546875 5.8125 39.890625 
Q 5.8125 47.609375 11.28125 51.796875 
Q 16.75 56 26.8125 56 
Q 31.78125 56 36.171875 55.265625 
Q 40.578125 54.546875 44.28125 53.078125 
z
" id="DejaVuSans-115"/>
      <path id="DejaVuSans-32"/>
      <path d="M 44.390625 34.1875 
Q 47.5625 33.109375 50.5625 29.59375 
Q 53.5625 26.078125 56.59375 19.921875 
L 66.609375 0 
L 56 0 
L 46.6875 18.703125 
Q 43.0625 26.03125 39.671875 28.421875 
Q 36.28125 30.8125 30.421875 30.8125 
L 19.671875 30.8125 
L 19.671875 0 
L 9.8125 0 
L 9.8125 72.90625 
L 32.078125 72.90625 
Q 44.578125 72.90625 50.734375 67.671875 
Q 56.890625 62.453125 56.890625 51.90625 
Q 56.890625 45.015625 53.6875 40.46875 
Q 50.484375 35.9375 44.390625 34.1875 
z
M 19.671875 64.796875 
L 19.671875 38.921875 
L 32.078125 38.921875 
Q 39.203125 38.921875 42.84375 42.21875 
Q 46.484375 45.515625 46.484375 51.90625 
Q 46.484375 58.296875 42.84375 61.546875 
Q 39.203125 64.796875 32.078125 64.796875 
z
" id="DejaVuSans-82"/>
      <path d="M 45.40625 27.984375 
Q 45.40625 37.75 41.375 43.109375 
Q 37.359375 48.484375 30.078125 48.484375 
Q 22.859375 48.484375 18.828125 43.109375 
Q 14.796875 37.75 14.796875 27.984375 
Q 14.796875 18.265625 18.828125 12.890625 
Q 22.859375 7.515625 30.078125 7.515625 
Q 37.359375 7.515625 41.375 12.890625 
Q 45.40625 18.265625 45.40625 27.984375 
z
M 54.390625 6.78125 
Q 54.390625 -7.171875 48.1875 -13.984375 
Q 42 -20.796875 29.203125 -20.796875 
Q 24.46875 -20.796875 20.265625 -20.09375 
Q 16.0625 -19.390625 12.109375 -17.921875 
L 12.109375 -9.1875 
Q 16.0625 -11.328125 19.921875 -12.34375 
Q 23.78125 -13.375 27.78125 -13.375 
Q 36.625 -13.375 41.015625 -8.765625 
Q 45.40625 -4.15625 45.40625 5.171875 
L 45.40625 9.625 
Q 42.625 4.78125 38.28125 2.390625 
Q 33.9375 0 27.875 0 
Q 17.828125 0 11.671875 7.65625 
Q 5.515625 15.328125 5.515625 27.984375 
Q 5.515625 40.671875 11.671875 48.328125 
Q 17.828125 56 27.875 56 
Q 33.9375 56 38.28125 53.609375 
Q 42.625 51.21875 45.40625 46.390625 
L 45.40625 54.6875 
L 54.390625 54.6875 
z
" id="DejaVuSans-103"/>
      <path d="M 9.421875 54.6875 
L 18.40625 54.6875 
L 18.40625 0 
L 9.421875 0 
z
M 9.421875 75.984375 
L 18.40625 75.984375 
L 18.40625 64.59375 
L 9.421875 64.59375 
z
" id="DejaVuSans-105"/>
      <path d="M 41.109375 46.296875 
Q 39.59375 47.171875 37.8125 47.578125 
Q 36.03125 48 33.890625 48 
Q 26.265625 48 22.1875 43.046875 
Q 18.109375 38.09375 18.109375 28.8125 
L 18.109375 0 
L 9.078125 0 
L 9.078125 54.6875 
L 18.109375 54.6875 
L 18.109375 46.1875 
Q 20.953125 51.171875 25.484375 53.578125 
Q 30.03125 56 36.53125 56 
Q 37.453125 56 38.578125 55.875 
Q 39.703125 55.765625 41.0625 55.515625 
z
" id="DejaVuSans-114"/>
     </defs>
     <g transform="translate(17.745313 167.498979)rotate(-90)scale(0.1 -0.1)">
      <use xlink:href="#DejaVuSans-83"/>
      <use x="63.476562" xlink:href="#DejaVuSans-116"/>
      <use x="102.685547" xlink:href="#DejaVuSans-117"/>
      <use x="166.064453" xlink:href="#DejaVuSans-100"/>
      <use x="229.541016" xlink:href="#DejaVuSans-101"/>
      <use x="291.064453" xlink:href="#DejaVuSans-110"/>
      <use x="354.443359" xlink:href="#DejaVuSans-116"/>
      <use x="393.652344" xlink:href="#DejaVuSans-115"/>
      <use x="445.751953" xlink:href="#DejaVuSans-32"/>
      <use x="477.539062" xlink:href="#DejaVuSans-82"/>
      <use x="546.958984" xlink:href="#DejaVuSans-101"/>
      <use x="608.482422" xlink:href="#DejaVuSans-103"/>
      <use x="671.958984" xlink:href="#DejaVuSans-105"/>
      <use x="699.742188" xlink:href="#DejaVuSans-115"/>
      <use x="751.841797" xlink:href="#DejaVuSans-116"/>
      <use x="791.050781" xlink:href="#DejaVuSans-101"/>
      <use x="852.574219" xlink:href="#DejaVuSans-114"/>
      <use x="893.65625" xlink:href="#DejaVuSans-101"/>
      <use x="955.179688" xlink:href="#DejaVuSans-100"/>
     </g>
    </g>
   </g>
   <g id="line2d_19">
    <path clip-path="url(#p7da425bb6d)" d="M 55.905 210.806645 
L 56.134586 210.806645 
L 56.134586 201.382519 
L 56.245237 201.382519 
L 57.156832 201.382519 
L 57.156832 196.670456 
L 57.262111 196.670456 
L 62.168559 196.670456 
L 62.168559 191.958393 
L 62.277507 191.958393 
L 66.308736 191.958393 
L 66.308736 177.822204 
L 66.417685 177.822204 
L 66.526617 177.822204 
L 66.526617 173.110142 
L 66.635585 173.110142 
L 66.744518 173.110142 
L 66.744518 154.26189 
L 66.853481 154.26189 
L 66.962419 154.26189 
L 66.962419 149.549827 
L 67.071368 149.549827 
L 67.180324 149.549827 
L 67.180324 140.125701 
L 67.28926 140.125701 
L 67.398258 140.125701 
L 67.398258 125.989512 
L 67.507204 125.989512 
L 71.320475 125.989512 
L 71.320475 121.277449 
L 71.429422 121.277449 
L 71.538352 121.277449 
L 71.538352 116.565386 
L 71.647301 116.565386 
L 72.192075 116.565386 
L 72.192075 111.853323 
L 72.301035 111.853323 
L 72.627885 111.853323 
L 72.627885 97.717134 
L 72.73682 97.717134 
L 72.845781 97.717134 
L 72.845781 93.005071 
L 72.954757 93.005071 
L 77.203816 93.005071 
L 77.203816 88.293008 
L 77.312791 88.293008 
L 77.421711 88.293008 
L 77.421711 83.580945 
L 77.530694 83.580945 
L 77.857546 83.580945 
L 77.857546 78.868882 
L 77.966487 78.868882 
L 78.51124 78.868882 
L 78.51124 74.156819 
L 78.62018 74.156819 
L 82.215608 74.156819 
L 82.215608 69.444756 
L 82.32452 69.444756 
L 92.45701 69.444756 
L 92.45701 45.884441 
L 92.565907 45.884441 
L 92.674891 45.884441 
L 92.674891 36.460315 
L 92.783808 36.460315 
L 92.892806 36.460315 
L 92.892806 31.748252 
L 93.001734 31.748252 
L 166.325817 31.748252 
L 166.325817 36.460315 
L 166.434789 36.460315 
L 166.543712 36.460315 
L 166.543712 31.748252 
L 166.652665 31.748252 
L 178.310429 31.748252 
L 178.310429 36.460315 
L 178.419418 36.460315 
L 178.528347 36.460315 
L 178.528347 31.748252 
L 178.637292 31.748252 
L 286.172064 31.748252 
L 286.172064 22.324126 
L 286.280973 22.324126 
L 303.005 22.324126 
L 303.005 22.324126 
" style="fill:none;stroke:#1b9e77;stroke-linecap:square;stroke-width:1.5;"/>
   </g>
   <g id="line2d_20">
    <path clip-path="url(#p7da425bb6d)" d="M 101.390994 196.670456 
L 102.480457 196.670456 
L 102.480457 182.534267 
L 102.589589 182.534267 
L 102.698365 182.534267 
L 102.698365 177.822204 
L 102.80736 177.822204 
L 102.916262 177.822204 
L 102.916262 158.973953 
L 103.025258 158.973953 
L 103.352087 158.973953 
L 103.352087 144.837764 
L 103.461039 144.837764 
L 103.787882 144.837764 
L 103.787882 116.565386 
L 103.896855 116.565386 
L 104.223683 116.565386 
L 104.223683 107.14126 
L 104.332671 107.14126 
L 104.441614 107.14126 
L 104.441614 102.429197 
L 104.550588 102.429197 
L 104.659498 102.429197 
L 104.659498 97.717134 
L 104.768486 97.717134 
L 105.095338 97.717134 
L 105.095338 93.005071 
L 105.204238 93.005071 
L 108.145921 93.005071 
L 108.145921 74.156819 
L 108.254909 74.156819 
L 108.58174 74.156819 
L 108.58174 69.444756 
L 108.690673 69.444756 
L 109.017577 69.444756 
L 109.017577 60.02063 
L 109.126506 60.02063 
L 109.23548 60.02063 
L 109.23548 55.308567 
L 109.344403 55.308567 
L 109.671291 55.308567 
L 109.671291 50.596504 
L 109.780205 50.596504 
L 114.247218 50.596504 
L 114.247218 45.884441 
L 114.356147 45.884441 
L 114.465083 45.884441 
L 114.465083 41.172378 
L 114.574084 41.172378 
L 114.682997 41.172378 
L 114.682997 36.460315 
L 114.791974 36.460315 
L 115.336733 36.460315 
L 115.336733 31.748252 
L 115.445687 31.748252 
L 129.282441 31.748252 
L 129.282441 22.324126 
L 129.391419 22.324126 
L 156.084416 22.324126 
L 156.084416 27.036189 
L 156.193381 27.036189 
L 157.391828 27.036189 
L 157.391828 22.324126 
L 157.500784 22.324126 
L 176.349345 22.324126 
L 176.349345 27.036189 
L 176.458301 27.036189 
L 178.092554 27.036189 
L 178.092554 22.324126 
L 178.201518 22.324126 
L 303.005 22.324126 
L 303.005 22.324126 
" style="fill:none;stroke:#d95f02;stroke-linecap:square;stroke-width:1.5;"/>
   </g>
   <g id="line2d_21">
    <path clip-path="url(#p7da425bb6d)" d="M 55.905 182.534267 
L 56.134586 182.534267 
L 56.134586 177.822204 
L 56.245237 177.822204 
L 57.262111 177.822204 
L 57.262111 173.110142 
L 60.748586 173.110142 
L 60.748586 168.398079 
L 61.079079 168.398079 
L 61.079079 163.686016 
L 61.188042 163.686016 
L 61.296968 163.686016 
L 61.296968 158.973953 
L 61.405939 158.973953 
L 61.950704 158.973953 
L 61.950704 144.837764 
L 62.059678 144.837764 
L 62.168559 144.837764 
L 62.168559 140.125701 
L 62.277507 140.125701 
L 66.526617 140.125701 
L 66.526617 130.701575 
L 66.635585 130.701575 
L 66.744518 130.701575 
L 66.744518 125.989512 
L 66.853481 125.989512 
L 66.962419 125.989512 
L 66.962419 130.701575 
L 67.071368 130.701575 
L 67.398258 130.701575 
L 67.398258 125.989512 
L 67.507204 125.989512 
L 67.616116 125.989512 
L 67.616116 116.565386 
L 67.725061 116.565386 
L 68.705654 116.565386 
L 68.705654 107.14126 
L 68.814617 107.14126 
L 71.102577 107.14126 
L 71.102577 102.429197 
L 71.211517 102.429197 
L 71.320475 102.429197 
L 71.320475 83.580945 
L 71.429422 83.580945 
L 71.538352 83.580945 
L 71.538352 74.156819 
L 71.647301 74.156819 
L 71.97418 74.156819 
L 71.97418 69.444756 
L 72.083134 69.444756 
L 72.192075 69.444756 
L 72.192075 64.732693 
L 72.301035 64.732693 
L 72.409984 64.732693 
L 72.409984 60.02063 
L 72.518947 60.02063 
L 72.627885 60.02063 
L 72.627885 45.884441 
L 72.73682 45.884441 
L 72.845781 45.884441 
L 72.845781 41.172378 
L 72.954757 41.172378 
L 73.063696 41.172378 
L 73.063696 36.460315 
L 73.172627 36.460315 
L 76.768003 36.460315 
L 76.768003 27.036189 
L 76.876972 27.036189 
L 76.985953 27.036189 
L 76.985953 22.324126 
L 77.094893 22.324126 
L 102.698365 22.324126 
L 102.698365 27.036189 
L 102.80736 27.036189 
L 102.916262 27.036189 
L 102.916262 22.324126 
L 103.025258 22.324126 
L 303.005 22.324126 
L 303.005 22.324126 
" style="fill:none;stroke:#7570b3;stroke-linecap:square;stroke-width:1.5;"/>
   </g>
   <g id="line2d_22">
    <path clip-path="url(#p7da425bb6d)" d="M 55.905 201.382519 
L 61.732813 201.382519 
L 61.732813 196.670456 
L 61.841731 196.670456 
L 66.090843 196.670456 
L 66.090843 191.958393 
L 66.199753 191.958393 
L 66.308736 191.958393 
L 66.308736 187.24633 
L 66.417685 187.24633 
L 66.526617 187.24633 
L 66.526617 177.822204 
L 66.635585 177.822204 
L 66.744518 177.822204 
L 66.744518 173.110142 
L 66.853481 173.110142 
L 66.962419 173.110142 
L 66.962419 168.398079 
L 67.071368 168.398079 
L 67.180324 168.398079 
L 67.180324 163.686016 
L 67.28926 163.686016 
L 67.616116 163.686016 
L 67.616116 158.973953 
L 67.725061 158.973953 
L 71.320475 158.973953 
L 71.320475 149.549827 
L 71.429422 149.549827 
L 71.538352 149.549827 
L 71.538352 144.837764 
L 71.647301 144.837764 
L 72.409984 144.837764 
L 72.409984 140.125701 
L 72.518947 140.125701 
L 72.627885 140.125701 
L 72.627885 130.701575 
L 72.73682 130.701575 
L 92.45701 130.701575 
L 92.45701 125.989512 
L 92.565907 125.989512 
L 92.674891 125.989512 
L 92.674891 121.277449 
L 92.783808 121.277449 
L 92.892806 121.277449 
L 92.892806 116.565386 
L 93.001734 116.565386 
L 93.110685 116.565386 
L 93.110685 111.853323 
L 93.219625 111.853323 
L 93.32861 111.853323 
L 93.32861 102.429197 
L 93.437536 102.429197 
L 93.546515 102.429197 
L 93.546515 97.717134 
L 93.655438 97.717134 
L 97.468726 97.717134 
L 97.523205 83.580945 
L 97.577675 83.580945 
L 97.904541 83.580945 
L 97.904541 74.156819 
L 98.013488 74.156819 
L 98.558253 74.156819 
L 98.558253 69.444756 
L 98.667207 69.444756 
L 98.776157 69.444756 
L 98.776157 60.02063 
L 98.885115 60.02063 
L 98.994057 60.02063 
L 98.994057 36.460315 
L 99.103004 36.460315 
L 99.211926 36.460315 
L 99.211926 22.324126 
L 99.320977 22.324126 
L 102.480457 22.324126 
L 102.480457 27.036189 
L 102.589589 27.036189 
L 102.916262 27.036189 
L 102.916262 22.324126 
L 103.025258 22.324126 
L 155.648596 22.324126 
L 155.648596 27.036189 
L 155.757585 27.036189 
L 155.866544 27.036189 
L 155.866544 22.324126 
L 155.975451 22.324126 
L 165.454253 22.324126 
L 165.454253 27.036189 
L 165.563163 27.036189 
L 165.889998 27.036189 
L 165.889998 22.324126 
L 165.999003 22.324126 
L 166.325817 22.324126 
L 166.325817 27.036189 
L 166.434789 27.036189 
L 167.197473 27.036189 
L 167.197473 22.324126 
L 167.306395 22.324126 
L 303.005 22.324126 
L 303.005 22.324126 
" style="fill:none;stroke:#e7298a;stroke-linecap:square;stroke-width:1.5;"/>
   </g>
   <g id="line2d_23">
    <path clip-path="url(#p7da425bb6d)" d="M 55.905 191.958393 
L 66.308736 191.958393 
L 66.308736 187.24633 
L 66.417685 187.24633 
L 67.398258 187.24633 
L 67.398258 182.534267 
L 67.507204 182.534267 
L 67.834048 182.534267 
L 67.834048 177.822204 
L 67.943013 177.822204 
L 71.97418 177.822204 
L 71.97418 173.110142 
L 72.083134 173.110142 
L 72.409984 173.110142 
L 72.409984 168.398079 
L 72.518947 168.398079 
L 76.768003 168.398079 
L 76.768003 163.686016 
L 76.876972 163.686016 
L 92.239077 163.686016 
L 92.239077 154.26189 
L 92.348006 154.26189 
L 92.45701 154.26189 
L 92.45701 144.837764 
L 92.565907 144.837764 
L 93.110685 144.837764 
L 93.110685 140.125701 
L 93.219625 140.125701 
L 93.982315 140.125701 
L 93.982315 135.413638 
L 94.091249 135.413638 
L 97.904541 135.413638 
L 97.904541 130.701575 
L 98.013488 130.701575 
L 98.340308 130.701575 
L 98.340308 121.277449 
L 98.449315 121.277449 
L 98.776157 121.277449 
L 98.776157 116.565386 
L 98.885115 116.565386 
L 100.083573 116.565386 
L 100.083573 111.853323 
L 100.192511 111.853323 
L 102.480457 111.853323 
L 102.480457 107.14126 
L 102.589589 107.14126 
L 102.916262 107.14126 
L 102.916262 102.429197 
L 103.025258 102.429197 
L 103.134162 102.429197 
L 103.134162 93.005071 
L 103.243125 93.005071 
L 103.570001 93.005071 
L 103.570001 88.293008 
L 103.678979 88.293008 
L 103.787882 88.293008 
L 103.842379 74.156819 
L 103.896855 74.156819 
L 104.005812 74.156819 
L 104.005812 64.732693 
L 104.114778 64.732693 
L 104.877387 64.732693 
L 104.877387 69.444756 
L 104.986387 69.444756 
L 108.145921 69.444756 
L 108.145921 60.02063 
L 108.254909 60.02063 
L 108.363876 60.02063 
L 108.363876 55.308567 
L 108.472826 55.308567 
L 108.79965 55.308567 
L 108.79965 50.596504 
L 108.908604 50.596504 
L 109.017577 50.596504 
L 109.017577 41.172378 
L 109.126506 41.172378 
L 109.23548 41.172378 
L 109.23548 36.460315 
L 109.344403 36.460315 
L 109.671291 36.460315 
L 109.671291 31.748252 
L 109.780205 31.748252 
L 288.568967 31.748252 
L 288.568967 36.460315 
L 288.677893 36.460315 
L 293.580691 36.460315 
L 293.580691 31.748252 
L 293.689671 31.748252 
L 303.005 31.748252 
L 303.005 31.748252 
" style="fill:none;stroke:#66a61e;stroke-linecap:square;stroke-width:1.5;"/>
   </g>
   <g id="line2d_24">
    <path clip-path="url(#p7da425bb6d)" d="M 55.905 196.670456 
L 61.732813 196.670456 
L 61.732813 191.958393 
L 61.841731 191.958393 
L 66.090843 191.958393 
L 66.090843 187.24633 
L 66.199753 187.24633 
L 66.308736 187.24633 
L 66.308736 182.534267 
L 66.417685 182.534267 
L 66.744518 182.534267 
L 66.744518 177.822204 
L 66.853481 177.822204 
L 66.962419 177.822204 
L 66.962419 173.110142 
L 67.071368 173.110142 
L 67.180324 173.110142 
L 67.180324 163.686016 
L 67.28926 163.686016 
L 67.398258 163.686016 
L 67.398258 158.973953 
L 67.507204 158.973953 
L 67.616116 158.973953 
L 67.616116 154.26189 
L 67.725061 154.26189 
L 71.102577 154.26189 
L 71.102577 149.549827 
L 71.211517 149.549827 
L 71.320475 149.549827 
L 71.320475 140.125701 
L 71.429422 140.125701 
L 71.756243 140.125701 
L 71.756243 135.413638 
L 71.865221 135.413638 
L 71.97418 135.413638 
L 71.97418 125.989512 
L 72.083134 125.989512 
L 72.409984 125.989512 
L 72.409984 121.277449 
L 72.518947 121.277449 
L 72.845781 121.277449 
L 72.845781 116.565386 
L 72.954757 116.565386 
L 73.063696 116.565386 
L 73.063696 111.853323 
L 73.172627 111.853323 
L 76.985953 111.853323 
L 76.985953 107.14126 
L 77.094893 107.14126 
L 77.857546 107.14126 
L 77.857546 102.429197 
L 77.966487 102.429197 
L 83.522968 102.429197 
L 83.522968 97.717134 
L 83.631942 97.717134 
L 92.239077 97.717134 
L 92.239077 93.005071 
L 92.348006 93.005071 
L 92.892806 93.005071 
L 92.892806 78.868882 
L 93.001734 78.868882 
L 93.110685 78.868882 
L 93.110685 69.444756 
L 93.219625 69.444756 
L 93.32861 69.444756 
L 93.32861 60.02063 
L 93.437536 60.02063 
L 93.982315 60.02063 
L 93.982315 55.308567 
L 94.091249 55.308567 
L 97.032931 55.308567 
L 97.032931 50.596504 
L 97.141876 50.596504 
L 97.686624 50.596504 
L 97.686624 45.884441 
L 97.795608 45.884441 
L 97.904541 45.884441 
L 97.904541 41.172378 
L 98.013488 41.172378 
L 98.122429 41.172378 
L 98.122429 36.460315 
L 98.231373 36.460315 
L 98.776157 36.460315 
L 98.776157 31.748252 
L 98.885115 31.748252 
L 303.005 31.748252 
L 303.005 31.748252 
" style="fill:none;stroke:#e6ab02;stroke-linecap:square;stroke-width:1.5;"/>
   </g>
   <g id="line2d_25">
    <path clip-path="url(#p7da425bb6d)" d="M 55.905 201.382519 
L 62.168559 201.382519 
L 62.168559 196.670456 
L 62.277507 196.670456 
L 66.308736 196.670456 
L 66.308736 191.958393 
L 66.417685 191.958393 
L 67.180324 191.958393 
L 67.180324 187.24633 
L 67.28926 187.24633 
L 71.756243 187.24633 
L 71.756243 177.822204 
L 71.865221 177.822204 
L 72.192075 177.822204 
L 72.192075 173.110142 
L 72.301035 173.110142 
L 72.627885 173.110142 
L 72.627885 168.398079 
L 72.73682 168.398079 
L 72.845781 168.398079 
L 72.845781 163.686016 
L 72.954757 163.686016 
L 77.857546 163.686016 
L 77.857546 158.973953 
L 77.966487 158.973953 
L 82.869294 158.973953 
L 82.869294 154.26189 
L 82.978259 154.26189 
L 92.45701 154.26189 
L 92.45701 144.837764 
L 92.565907 144.837764 
L 92.892806 144.837764 
L 92.892806 140.125701 
L 93.001734 140.125701 
L 93.982315 140.125701 
L 93.982315 135.413638 
L 94.091249 135.413638 
L 97.468726 135.413638 
L 97.468726 130.701575 
L 97.577675 130.701575 
L 98.558253 130.701575 
L 98.558253 125.989512 
L 98.667207 125.989512 
L 98.776157 125.989512 
L 98.776157 121.277449 
L 98.885115 121.277449 
L 98.994057 121.277449 
L 99.048525 107.14126 
L 99.103004 107.14126 
L 102.698365 107.14126 
L 102.698365 102.429197 
L 102.80736 102.429197 
L 102.916262 102.429197 
L 102.916262 93.005071 
L 103.025258 93.005071 
L 103.134162 93.005071 
L 103.134162 88.293008 
L 103.243125 88.293008 
L 103.352087 88.293008 
L 103.406559 74.156819 
L 103.461039 74.156819 
L 103.787882 74.156819 
L 103.787882 60.02063 
L 103.896855 60.02063 
L 104.005812 60.02063 
L 104.005812 50.596504 
L 104.114778 50.596504 
L 104.223683 50.596504 
L 104.223683 31.748252 
L 104.332671 31.748252 
L 104.441614 31.748252 
L 104.441614 27.036189 
L 104.550588 27.036189 
L 105.531134 27.036189 
L 105.531134 22.324126 
L 105.64009 22.324126 
L 165.454253 22.324126 
L 165.454253 27.036189 
L 165.563163 27.036189 
L 165.672153 27.036189 
L 165.672153 22.324126 
L 165.781098 22.324126 
L 166.107933 22.324126 
L 166.107933 27.036189 
L 166.21691 27.036189 
L 166.761615 27.036189 
L 166.761615 31.748252 
L 166.870609 31.748252 
L 167.197473 31.748252 
L 167.197473 36.460315 
L 167.306395 36.460315 
L 173.08079 36.460315 
L 173.08079 41.172378 
L 173.189738 41.172378 
L 185.937044 41.172378 
L 185.937044 36.460315 
L 186.045998 36.460315 
L 210.124156 36.460315 
L 210.124156 41.172378 
L 210.233139 41.172378 
L 218.622365 41.172378 
L 218.622365 36.460315 
L 218.731309 36.460315 
L 245.206466 36.460315 
L 245.206466 31.748252 
L 245.31541 31.748252 
L 248.692844 31.748252 
L 248.692844 27.036189 
L 248.801801 27.036189 
L 254.794133 27.036189 
L 254.794133 22.324126 
L 286.172064 22.324126 
L 286.172064 31.748252 
L 286.280973 31.748252 
L 286.825717 31.748252 
L 286.825717 36.460315 
L 286.93472 36.460315 
L 303.005 36.460315 
L 303.005 36.460315 
" style="fill:none;stroke:#a6761d;stroke-linecap:square;stroke-width:1.5;"/>
   </g>
   <g id="line2d_26">
    <path clip-path="url(#p7da425bb6d)" d="M 55.905 201.382519 
L 66.526617 201.382519 
L 66.526617 196.670456 
L 66.635585 196.670456 
L 67.180324 196.670456 
L 67.180324 191.958393 
L 67.28926 191.958393 
L 71.97418 191.958393 
L 71.97418 187.24633 
L 72.083134 187.24633 
L 72.409984 187.24633 
L 72.409984 191.958393 
L 72.518947 191.958393 
L 72.627885 191.958393 
L 72.627885 182.534267 
L 72.73682 182.534267 
L 92.45701 182.534267 
L 92.45701 177.822204 
L 92.565907 177.822204 
L 92.892806 177.822204 
L 92.892806 173.110142 
L 93.001734 173.110142 
L 93.32861 173.110142 
L 93.32861 168.398079 
L 93.437536 168.398079 
L 93.546515 168.398079 
L 93.546515 163.686016 
L 93.655438 163.686016 
L 94.635991 163.686016 
L 94.635991 158.973953 
L 94.744985 158.973953 
L 98.122429 158.973953 
L 98.122429 154.26189 
L 98.231373 154.26189 
L 98.776157 154.26189 
L 98.776157 149.549827 
L 98.885115 149.549827 
L 98.994057 149.549827 
L 98.994057 144.837764 
L 99.103004 144.837764 
L 102.698365 144.837764 
L 102.698365 135.413638 
L 102.80736 135.413638 
L 102.916262 135.413638 
L 102.916262 130.701575 
L 103.025258 130.701575 
L 103.134162 130.701575 
L 103.188642 116.565386 
L 103.243125 116.565386 
L 104.005812 116.565386 
L 104.005812 111.853323 
L 104.114778 111.853323 
L 104.223683 111.853323 
L 104.223683 107.14126 
L 104.332671 107.14126 
L 104.441614 107.14126 
L 104.441614 111.853323 
L 104.550588 111.853323 
L 104.659498 111.853323 
L 104.659498 107.14126 
L 104.768486 107.14126 
L 104.877387 107.14126 
L 104.877387 102.429197 
L 104.986387 102.429197 
L 107.492248 102.429197 
L 107.492248 107.14126 
L 107.601168 107.14126 
L 108.145921 107.14126 
L 108.145921 93.005071 
L 108.254909 93.005071 
L 108.58174 93.005071 
L 108.58174 88.293008 
L 108.690673 88.293008 
L 109.017577 88.293008 
L 109.017577 69.444756 
L 109.126506 69.444756 
L 109.23548 69.444756 
L 109.23548 64.732693 
L 109.344403 64.732693 
L 114.029287 64.732693 
L 114.029287 60.02063 
L 114.138231 60.02063 
L 131.679409 60.02063 
L 131.679409 55.308567 
L 131.78836 55.308567 
L 135.165835 55.308567 
L 135.165835 50.596504 
L 135.274756 50.596504 
L 135.383711 50.596504 
L 135.383711 55.308567 
L 135.492687 55.308567 
L 135.819518 55.308567 
L 135.819518 50.596504 
L 135.928494 50.596504 
L 141.049206 50.596504 
L 141.049206 45.884441 
L 141.158142 45.884441 
L 149.983143 45.884441 
L 149.983143 50.596504 
L 150.092104 50.596504 
L 156.084416 50.596504 
L 156.084416 45.884441 
L 156.193381 45.884441 
L 165.454253 45.884441 
L 165.454253 50.596504 
L 165.563163 50.596504 
L 165.889998 50.596504 
L 165.889998 55.308567 
L 165.999003 55.308567 
L 166.543712 55.308567 
L 166.543712 60.02063 
L 166.652665 60.02063 
L 172.644984 60.02063 
L 172.644984 64.732693 
L 172.753979 64.732693 
L 182.014764 64.732693 
L 182.014764 69.444756 
L 182.123747 69.444756 
L 203.805035 69.444756 
L 203.805035 74.156819 
L 203.913962 74.156819 
L 302.73261 74.156819 
L 302.73261 69.444756 
L 302.841606 69.444756 
L 303.005 69.444756 
L 303.005 69.444756 
" style="fill:none;stroke:#666666;stroke-linecap:square;stroke-width:1.5;"/>
   </g>
   <g id="line2d_27">
    <path clip-path="url(#p7da425bb6d)" d="M 55.905 206.094582 
L 66.526617 206.094582 
L 66.526617 201.382519 
L 66.635585 201.382519 
L 72.409984 201.382519 
L 72.409984 191.958393 
L 72.518947 191.958393 
L 92.239077 191.958393 
L 92.239077 187.24633 
L 92.348006 187.24633 
L 92.674891 187.24633 
L 92.674891 182.534267 
L 92.783808 182.534267 
L 93.32861 182.534267 
L 93.32861 177.822204 
L 93.437536 177.822204 
L 97.468726 177.822204 
L 97.468726 173.110142 
L 97.577675 173.110142 
L 97.686624 173.110142 
L 97.686624 163.686016 
L 97.795608 163.686016 
L 97.904541 163.686016 
L 97.904541 158.973953 
L 98.013488 158.973953 
L 98.340308 158.973953 
L 98.340308 154.26189 
L 98.449315 154.26189 
L 98.558253 154.26189 
L 98.558253 144.837764 
L 98.667207 144.837764 
L 98.776157 144.837764 
L 98.776157 135.413638 
L 98.885115 135.413638 
L 99.647782 135.413638 
L 99.647782 130.701575 
L 99.75672 130.701575 
L 100.083573 130.701575 
L 100.083573 125.989512 
L 100.192511 125.989512 
L 100.301435 125.989512 
L 100.301435 130.701575 
L 100.410442 130.701575 
L 102.262577 130.701575 
L 102.262577 135.413638 
L 102.371555 135.413638 
L 102.480457 135.413638 
L 102.480457 140.125701 
L 102.589589 140.125701 
L 102.698365 140.125701 
L 102.698365 135.413638 
L 102.80736 135.413638 
L 102.916262 135.413638 
L 102.916262 140.125701 
L 103.025258 140.125701 
L 103.134162 140.125701 
L 103.134162 135.413638 
L 103.243125 135.413638 
L 103.352087 135.413638 
L 103.352087 130.701575 
L 103.461039 130.701575 
L 103.787882 130.701575 
L 103.787882 135.413638 
L 103.896855 135.413638 
L 108.79965 135.413638 
L 108.79965 130.701575 
L 108.908604 130.701575 
L 109.23548 130.701575 
L 109.23548 125.989512 
L 109.344403 125.989512 
L 114.247218 125.989512 
L 114.247218 121.277449 
L 114.356147 121.277449 
L 115.772516 121.277449 
L 115.772516 116.565386 
L 115.881448 116.565386 
L 129.718262 116.565386 
L 129.718262 111.853323 
L 129.827231 111.853323 
L 129.936161 111.853323 
L 129.936161 107.14126 
L 130.04512 107.14126 
L 130.807748 107.14126 
L 130.807748 102.429197 
L 130.916736 102.429197 
L 141.049206 102.429197 
L 141.049206 97.717134 
L 141.158142 97.717134 
L 141.702855 97.717134 
L 141.702855 93.005071 
L 141.81185 93.005071 
L 152.598002 93.005071 
L 152.598002 88.293008 
L 152.706923 88.293008 
L 157.391828 88.293008 
L 157.391828 93.005071 
L 157.500784 93.005071 
L 165.889998 93.005071 
L 165.889998 97.717134 
L 165.999003 97.717134 
L 203.36922 97.717134 
L 203.36922 93.005071 
L 203.478187 93.005071 
L 240.194714 93.005071 
L 240.194714 88.293008 
L 240.303641 88.293008 
L 244.334841 88.293008 
L 244.334841 83.580945 
L 244.443758 83.580945 
L 259.370069 83.580945 
L 259.370069 78.868882 
L 259.479036 78.868882 
L 291.183831 78.868882 
L 291.183831 83.580945 
L 291.292779 83.580945 
L 291.401678 83.580945 
L 291.401678 78.868882 
L 291.510628 78.868882 
L 303.005 78.868882 
L 303.005 78.868882 
" style="fill:none;stroke:#1b9e77;stroke-dasharray:4.5,1.5;stroke-dashoffset:0;stroke-width:1.5;"/>
   </g>
   <g id="line2d_28">
    <path clip-path="url(#p7da425bb6d)" d="M 55.905 196.670456 
L 60.748586 196.670456 
L 60.748586 191.958393 
L 67.180324 191.958393 
L 67.180324 187.24633 
L 67.28926 187.24633 
L 71.538352 187.24633 
L 71.538352 182.534267 
L 71.647301 182.534267 
L 71.97418 182.534267 
L 71.97418 177.822204 
L 72.083134 177.822204 
L 72.627885 177.822204 
L 72.627885 173.110142 
L 72.73682 173.110142 
L 72.845781 173.110142 
L 72.845781 168.398079 
L 72.954757 168.398079 
L 74.153204 168.398079 
L 74.153204 163.686016 
L 74.262176 163.686016 
L 92.892806 163.686016 
L 92.892806 154.26189 
L 93.001734 154.26189 
L 97.904541 154.26189 
L 97.904541 149.549827 
L 98.013488 149.549827 
L 98.994057 149.549827 
L 98.994057 144.837764 
L 99.103004 144.837764 
L 99.647782 144.837764 
L 99.647782 140.125701 
L 99.75672 140.125701 
L 102.916262 140.125701 
L 102.916262 135.413638 
L 103.025258 135.413638 
L 103.134162 135.413638 
L 103.134162 125.989512 
L 103.243125 125.989512 
L 103.787882 125.989512 
L 103.787882 116.565386 
L 103.896855 116.565386 
L 108.58174 116.565386 
L 108.58174 111.853323 
L 108.690673 111.853323 
L 109.23548 111.853323 
L 109.23548 107.14126 
L 109.344403 107.14126 
L 109.889143 107.14126 
L 109.889143 102.429197 
L 109.998118 102.429197 
L 115.336733 102.429197 
L 115.336733 97.717134 
L 115.445687 97.717134 
L 130.371976 97.717134 
L 130.371976 93.005071 
L 130.480941 93.005071 
L 135.383711 93.005071 
L 135.383711 88.293008 
L 135.492687 88.293008 
L 141.049206 88.293008 
L 141.049206 93.005071 
L 141.158142 93.005071 
L 166.107933 93.005071 
L 166.107933 88.293008 
L 166.21691 88.293008 
L 166.325817 88.293008 
L 166.325817 93.005071 
L 166.434789 93.005071 
L 171.773394 93.005071 
L 171.773394 88.293008 
L 171.882371 88.293008 
L 210.124156 88.293008 
L 210.124156 83.580945 
L 210.233139 83.580945 
L 244.988519 83.580945 
L 244.988519 78.868882 
L 245.097468 78.868882 
L 256.101554 78.868882 
L 256.101554 83.580945 
L 256.210494 83.580945 
L 303.005 83.580945 
L 303.005 83.580945 
" style="fill:none;stroke:#d95f02;stroke-dasharray:4.5,1.5;stroke-dashoffset:0;stroke-width:1.5;"/>
   </g>
   <g id="line2d_29">
    <path clip-path="url(#p7da425bb6d)" d="M 55.905 210.806645 
L 61.515079 210.806645 
L 61.515079 206.094582 
L 61.623843 206.094582 
L 61.950704 206.094582 
L 61.950704 201.382519 
L 62.059678 201.382519 
L 66.962419 201.382519 
L 66.962419 196.670456 
L 67.071368 196.670456 
L 72.627885 196.670456 
L 72.627885 191.958393 
L 72.73682 191.958393 
L 76.114328 191.958393 
L 76.114328 187.24633 
L 76.223312 187.24633 
L 77.203816 187.24633 
L 77.203816 182.534267 
L 77.312791 182.534267 
L 77.63964 182.534267 
L 77.63964 177.822204 
L 77.748571 177.822204 
L 92.239077 177.822204 
L 92.239077 168.398079 
L 92.348006 168.398079 
L 92.674891 168.398079 
L 92.674891 163.686016 
L 92.783808 163.686016 
L 92.892806 163.686016 
L 92.892806 158.973953 
L 93.001734 158.973953 
L 93.110685 158.973953 
L 93.110685 154.26189 
L 93.219625 154.26189 
L 93.32861 154.26189 
L 93.32861 144.837764 
L 93.437536 144.837764 
L 93.546515 144.837764 
L 93.546515 140.125701 
L 93.655438 140.125701 
L 93.982315 140.125701 
L 93.982315 135.413638 
L 94.091249 135.413638 
L 94.418138 135.413638 
L 94.418138 130.701575 
L 94.527071 130.701575 
L 95.071786 130.701575 
L 95.071786 125.989512 
L 95.180789 125.989512 
L 97.468726 125.989512 
L 97.468726 121.277449 
L 97.577675 121.277449 
L 97.686624 121.277449 
L 97.686624 116.565386 
L 97.795608 116.565386 
L 97.904541 116.565386 
L 97.904541 102.429197 
L 98.013488 102.429197 
L 98.122429 102.429197 
L 98.122429 97.717134 
L 98.231373 97.717134 
L 98.340308 97.717134 
L 98.340308 93.005071 
L 98.449315 93.005071 
L 100.301435 93.005071 
L 100.301435 97.717134 
L 100.410442 97.717134 
L 103.134162 97.717134 
L 103.134162 93.005071 
L 103.243125 93.005071 
L 103.352087 93.005071 
L 103.352087 97.717134 
L 103.461039 97.717134 
L 103.570001 97.717134 
L 103.570001 93.005071 
L 103.678979 93.005071 
L 109.671291 93.005071 
L 109.671291 97.717134 
L 109.780205 97.717134 
L 109.889143 97.717134 
L 109.889143 93.005071 
L 109.998118 93.005071 
L 303.005 93.005071 
L 303.005 93.005071 
" style="fill:none;stroke:#7570b3;stroke-dasharray:4.5,1.5;stroke-dashoffset:0;stroke-width:1.5;"/>
   </g>
   <g id="line2d_30">
    <path clip-path="url(#p7da425bb6d)" d="M 55.905 206.094582 
L 66.090843 206.094582 
L 66.090843 201.382519 
L 66.199753 201.382519 
L 66.308736 201.382519 
L 66.308736 196.670456 
L 66.417685 196.670456 
L 67.180324 196.670456 
L 67.180324 187.24633 
L 67.28926 187.24633 
L 71.320475 187.24633 
L 71.320475 182.534267 
L 71.429422 182.534267 
L 72.409984 182.534267 
L 72.409984 177.822204 
L 72.518947 177.822204 
L 72.627885 177.822204 
L 72.627885 173.110142 
L 72.73682 173.110142 
L 72.845781 173.110142 
L 72.845781 168.398079 
L 72.954757 168.398079 
L 92.674891 168.398079 
L 92.674891 163.686016 
L 92.783808 163.686016 
L 92.892806 163.686016 
L 92.892806 158.973953 
L 93.001734 158.973953 
L 93.110685 158.973953 
L 93.110685 149.549827 
L 93.219625 149.549827 
L 98.558253 149.549827 
L 98.558253 144.837764 
L 98.667207 144.837764 
L 98.776157 144.837764 
L 98.776157 140.125701 
L 98.885115 140.125701 
L 102.480457 140.125701 
L 102.480457 144.837764 
L 102.589589 144.837764 
L 103.134162 144.837764 
L 103.134162 135.413638 
L 103.243125 135.413638 
L 103.352087 135.413638 
L 103.352087 140.125701 
L 103.461039 140.125701 
L 103.570001 140.125701 
L 103.570001 135.413638 
L 103.678979 135.413638 
L 104.005812 135.413638 
L 104.005812 125.989512 
L 104.114778 125.989512 
L 104.223683 125.989512 
L 104.223683 121.277449 
L 104.332671 121.277449 
L 114.465083 121.277449 
L 114.465083 116.565386 
L 114.574084 116.565386 
L 115.118828 116.565386 
L 115.118828 111.853323 
L 115.227765 111.853323 
L 125.578102 111.853323 
L 125.578102 107.14126 
L 125.687055 107.14126 
L 145.407205 107.14126 
L 145.407205 102.429197 
L 145.516173 102.429197 
L 146.278813 102.429197 
L 146.278813 97.717134 
L 146.387816 97.717134 
L 150.636892 97.717134 
L 150.636892 93.005071 
L 150.745849 93.005071 
L 167.851176 93.005071 
L 167.851176 88.293008 
L 167.960088 88.293008 
L 297.72083 88.293008 
L 297.72083 93.005071 
L 297.829832 93.005071 
L 302.73261 93.005071 
L 302.73261 97.717134 
L 302.841606 97.717134 
L 303.005 97.717134 
L 303.005 97.717134 
" style="fill:none;stroke:#e7298a;stroke-dasharray:4.5,1.5;stroke-dashoffset:0;stroke-width:1.5;"/>
   </g>
   <g id="line2d_31">
    <path clip-path="url(#p7da425bb6d)" d="M 153.741967 210.806645 
L 155.648596 210.806645 
L 155.648596 206.094582 
L 155.757585 206.094582 
L 162.185708 206.094582 
L 162.185708 201.382519 
L 162.294628 201.382519 
L 165.454253 201.382519 
L 165.454253 182.534267 
L 165.563163 182.534267 
L 165.889998 182.534267 
L 165.889998 173.110142 
L 165.999003 173.110142 
L 166.325817 173.110142 
L 166.325817 158.973953 
L 166.434789 158.973953 
L 166.761615 158.973953 
L 166.761615 154.26189 
L 166.870609 154.26189 
L 171.119705 154.26189 
L 171.119705 149.549827 
L 171.228654 149.549827 
L 172.209203 149.549827 
L 172.209203 144.837764 
L 172.318146 144.837764 
L 172.644984 144.837764 
L 172.644984 140.125701 
L 172.753979 140.125701 
L 173.08079 140.125701 
L 173.08079 135.413638 
L 173.189738 135.413638 
L 173.2987 135.413638 
L 173.2987 130.701575 
L 173.407629 130.701575 
L 176.349345 130.701575 
L 176.349345 125.989512 
L 176.458301 125.989512 
L 178.310429 125.989512 
L 178.310429 121.277449 
L 178.419418 121.277449 
L 182.014764 121.277449 
L 182.014764 116.565386 
L 182.123747 116.565386 
L 248.692844 116.565386 
L 248.692844 121.277449 
L 248.801801 121.277449 
L 249.782343 121.277449 
L 249.782343 116.565386 
L 249.891335 116.565386 
L 286.389955 116.565386 
L 286.389955 111.853323 
L 286.498922 111.853323 
L 286.825717 111.853323 
L 286.825717 107.14126 
L 286.93472 107.14126 
L 288.568967 107.14126 
L 288.568967 102.429197 
L 288.677893 102.429197 
L 303.005 102.429197 
L 303.005 102.429197 
" style="fill:none;stroke:#66a61e;stroke-dasharray:4.5,1.5;stroke-dashoffset:0;stroke-width:1.5;"/>
   </g>
   <g id="line2d_32">
    <path clip-path="url(#p7da425bb6d)" d="M 55.905 210.806645 
L 62.386457 210.806645 
L 62.386457 206.094582 
L 62.495414 206.094582 
L 63.258109 206.094582 
L 63.258109 201.382519 
L 63.367049 201.382519 
L 76.985953 201.382519 
L 76.985953 196.670456 
L 77.094893 196.670456 
L 92.239077 196.670456 
L 92.239077 191.958393 
L 92.348006 191.958393 
L 93.764385 191.958393 
L 93.764385 182.534267 
L 93.873327 182.534267 
L 97.904541 182.534267 
L 97.904541 177.822204 
L 98.013488 177.822204 
L 98.122429 177.822204 
L 98.122429 173.110142 
L 98.231373 173.110142 
L 98.776157 173.110142 
L 98.776157 163.686016 
L 98.885115 163.686016 
L 98.994057 163.686016 
L 98.994057 158.973953 
L 99.103004 158.973953 
L 100.301435 158.973953 
L 100.301435 154.26189 
L 100.410442 154.26189 
L 102.916262 154.26189 
L 102.916262 158.973953 
L 103.025258 158.973953 
L 103.352087 158.973953 
L 103.352087 154.26189 
L 103.461039 154.26189 
L 103.570001 154.26189 
L 103.570001 149.549827 
L 103.678979 149.549827 
L 104.005812 149.549827 
L 104.005812 144.837764 
L 104.114778 144.837764 
L 104.223683 144.837764 
L 104.223683 149.549827 
L 104.332671 149.549827 
L 104.441614 149.549827 
L 104.441614 144.837764 
L 104.550588 144.837764 
L 108.145921 144.837764 
L 108.145921 140.125701 
L 108.254909 140.125701 
L 115.118828 140.125701 
L 115.118828 135.413638 
L 115.227765 135.413638 
L 129.718262 135.413638 
L 129.718262 130.701575 
L 129.827231 130.701575 
L 150.418959 130.701575 
L 150.418959 125.989512 
L 150.527959 125.989512 
L 176.349345 125.989512 
L 176.349345 121.277449 
L 176.458301 121.277449 
L 203.805035 121.277449 
L 203.805035 116.565386 
L 203.913962 116.565386 
L 254.794133 116.565386 
L 254.794133 111.853323 
L 275.712729 111.853323 
L 275.712729 107.14126 
L 275.821705 107.14126 
L 303.005 107.14126 
L 303.005 107.14126 
" style="fill:none;stroke:#e6ab02;stroke-dasharray:4.5,1.5;stroke-dashoffset:0;stroke-width:1.5;"/>
   </g>
   <g id="line2d_33">
    <path clip-path="url(#p7da425bb6d)" d="M 55.905 206.094582 
L 66.744518 206.094582 
L 66.744518 196.670456 
L 66.853481 196.670456 
L 71.538352 196.670456 
L 71.538352 187.24633 
L 71.647301 187.24633 
L 71.756243 187.24633 
L 71.756243 182.534267 
L 71.865221 182.534267 
L 72.627885 182.534267 
L 72.627885 177.822204 
L 72.73682 177.822204 
L 72.845781 177.822204 
L 72.845781 173.110142 
L 72.954757 173.110142 
L 93.110685 173.110142 
L 93.110685 168.398079 
L 93.219625 168.398079 
L 93.32861 168.398079 
L 93.32861 163.686016 
L 93.437536 163.686016 
L 93.546515 163.686016 
L 93.546515 158.973953 
L 93.655438 158.973953 
L 94.200174 158.973953 
L 94.200174 154.26189 
L 94.309175 154.26189 
L 94.418138 154.26189 
L 94.418138 158.973953 
L 94.527071 158.973953 
L 97.468726 158.973953 
L 97.468726 140.125701 
L 97.577675 140.125701 
L 97.904541 140.125701 
L 97.904541 130.701575 
L 98.013488 130.701575 
L 98.122429 130.701575 
L 98.122429 125.989512 
L 98.231373 125.989512 
L 98.340308 125.989512 
L 98.340308 116.565386 
L 98.449315 116.565386 
L 303.005 116.565386 
L 303.005 116.565386 
" style="fill:none;stroke:#a6761d;stroke-dasharray:4.5,1.5;stroke-dashoffset:0;stroke-width:1.5;"/>
   </g>
   <g id="line2d_34">
    <path clip-path="url(#p7da425bb6d)" d="M 55.905 210.806645 
L 67.180324 210.806645 
L 67.180324 206.094582 
L 67.28926 206.094582 
L 67.398258 206.094582 
L 67.398258 201.382519 
L 67.507204 201.382519 
L 71.756243 201.382519 
L 71.756243 196.670456 
L 71.865221 196.670456 
L 72.845781 196.670456 
L 72.845781 191.958393 
L 72.954757 191.958393 
L 73.281585 191.958393 
L 73.281585 187.24633 
L 73.390561 187.24633 
L 73.717412 187.24633 
L 73.717412 182.534267 
L 73.826372 182.534267 
L 76.985953 182.534267 
L 76.985953 187.24633 
L 77.094893 187.24633 
L 92.45701 187.24633 
L 92.45701 182.534267 
L 92.565907 182.534267 
L 93.764385 182.534267 
L 93.764385 173.110142 
L 93.873327 173.110142 
L 97.686624 173.110142 
L 97.686624 168.398079 
L 97.795608 168.398079 
L 98.558253 168.398079 
L 98.558253 149.549827 
L 98.667207 149.549827 
L 98.776157 149.549827 
L 98.776157 144.837764 
L 98.885115 144.837764 
L 98.994057 144.837764 
L 98.994057 140.125701 
L 99.103004 140.125701 
L 165.889998 140.125701 
L 165.889998 144.837764 
L 165.999003 144.837764 
L 166.107933 144.837764 
L 166.107933 140.125701 
L 166.21691 140.125701 
L 297.72083 140.125701 
L 297.72083 135.413638 
L 297.829832 135.413638 
L 303.005 135.413638 
L 303.005 135.413638 
" style="fill:none;stroke:#666666;stroke-dasharray:4.5,1.5;stroke-dashoffset:0;stroke-width:1.5;"/>
   </g>
   <g id="line2d_35"/>
   <g id="line2d_36"/>
   <g id="line2d_37"/>
   <g id="line2d_38"/>
   <g id="line2d_39"/>
   <g id="line2d_40"/>
   <g id="line2d_41"/>
   <g id="line2d_42"/>
   <g id="line2d_43"/>
   <g id="line2d_44"/>
   <g id="line2d_45"/>
   <g id="line2d_46"/>
   <g id="line2d_47"/>
   <g id="line2d_48"/>
   <g id="line2d_49"/>
   <g id="line2d_50"/>
   <g id="line2d_51"/>
   <g id="patch_3">
    <path d="M 43.55 220.230771 
L 43.55 12.9 
" style="fill:none;stroke:#000000;stroke-linecap:square;stroke-linejoin:miter;stroke-width:0.8;"/>
   </g>
   <g id="patch_4">
    <path d="M 315.36 220.230771 
L 315.36 12.9 
" style="fill:none;stroke:#000000;stroke-linecap:square;stroke-linejoin:miter;stroke-width:0.8;"/>
   </g>
   <g id="patch_5">
    <path d="M 43.55 220.230771 
L 315.36 220.230771 
" style="fill:none;stroke:#000000;stroke-linecap:square;stroke-linejoin:miter;stroke-width:0.8;"/>
   </g>
   <g id="patch_6">
    <path d="M 43.55 12.9 
L 315.36 12.9 
" style="fill:none;stroke:#000000;stroke-linecap:square;stroke-linejoin:miter;stroke-width:0.8;"/>
   </g>
  </g>
  <g id="legend_1">
   <g id="patch_7">
    <path d="M 331.8625 262.528125 
L 420 262.528125 
Q 422 262.528125 422 260.528125 
L 422 12 
Q 422 10 420 10 
L 331.8625 10 
Q 329.8625 10 329.8625 12 
L 329.8625 260.528125 
Q 329.8625 262.528125 331.8625 262.528125 
z
" style="fill:#ffffff;opacity:0.8;stroke:#cccccc;stroke-linejoin:miter;"/>
   </g>
   <g id="text_21">
    <!-- 488/610 Reg. -->
    <defs>
     <path d="M 25.390625 72.90625 
L 33.6875 72.90625 
L 8.296875 -9.28125 
L 0 -9.28125 
z
" id="DejaVuSans-47"/>
     <path d="M 33.015625 40.375 
Q 26.375 40.375 22.484375 35.828125 
Q 18.609375 31.296875 18.609375 23.390625 
Q 18.609375 15.53125 22.484375 10.953125 
Q 26.375 6.390625 33.015625 6.390625 
Q 39.65625 6.390625 43.53125 10.953125 
Q 47.40625 15.53125 47.40625 23.390625 
Q 47.40625 31.296875 43.53125 35.828125 
Q 39.65625 40.375 33.015625 40.375 
z
M 52.59375 71.296875 
L 52.59375 62.3125 
Q 48.875 64.0625 45.09375 64.984375 
Q 41.3125 65.921875 37.59375 65.921875 
Q 27.828125 65.921875 22.671875 59.328125 
Q 17.53125 52.734375 16.796875 39.40625 
Q 19.671875 43.65625 24.015625 45.921875 
Q 28.375 48.1875 33.59375 48.1875 
Q 44.578125 48.1875 50.953125 41.515625 
Q 57.328125 34.859375 57.328125 23.390625 
Q 57.328125 12.15625 50.6875 5.359375 
Q 44.046875 -1.421875 33.015625 -1.421875 
Q 20.359375 -1.421875 13.671875 8.265625 
Q 6.984375 17.96875 6.984375 36.375 
Q 6.984375 53.65625 15.1875 63.9375 
Q 23.390625 74.21875 37.203125 74.21875 
Q 40.921875 74.21875 44.703125 73.484375 
Q 48.484375 72.75 52.59375 71.296875 
z
" id="DejaVuSans-54"/>
     <path d="M 10.6875 12.40625 
L 21 12.40625 
L 21 0 
L 10.6875 0 
z
" id="DejaVuSans-46"/>
    </defs>
    <g transform="translate(342.259375 21.598437)scale(0.1 -0.1)">
     <use xlink:href="#DejaVuSans-52"/>
     <use x="63.623047" xlink:href="#DejaVuSans-56"/>
     <use x="127.246094" xlink:href="#DejaVuSans-56"/>
     <use x="190.869141" xlink:href="#DejaVuSans-47"/>
     <use x="224.560547" xlink:href="#DejaVuSans-54"/>
     <use x="288.183594" xlink:href="#DejaVuSans-49"/>
     <use x="351.806641" xlink:href="#DejaVuSans-48"/>
     <use x="415.429688" xlink:href="#DejaVuSans-32"/>
     <use x="447.216797" xlink:href="#DejaVuSans-82"/>
     <use x="516.636719" xlink:href="#DejaVuSans-101"/>
     <use x="578.160156" xlink:href="#DejaVuSans-103"/>
     <use x="641.636719" xlink:href="#DejaVuSans-46"/>
    </g>
   </g>
   <g id="line2d_52">
    <path d="M 333.8625 32.776562 
L 353.8625 32.776562 
" style="fill:none;stroke:#1b9e77;stroke-linecap:square;stroke-width:1.5;"/>
   </g>
   <g id="line2d_53"/>
   <g id="text_22">
    <!-- AS (40) -->
    <defs>
     <path d="M 34.1875 63.1875 
L 20.796875 26.90625 
L 47.609375 26.90625 
z
M 28.609375 72.90625 
L 39.796875 72.90625 
L 67.578125 0 
L 57.328125 0 
L 50.6875 18.703125 
L 17.828125 18.703125 
L 11.1875 0 
L 0.78125 0 
z
" id="DejaVuSans-65"/>
     <path d="M 31 75.875 
Q 24.46875 64.65625 21.28125 53.65625 
Q 18.109375 42.671875 18.109375 31.390625 
Q 18.109375 20.125 21.3125 9.0625 
Q 24.515625 -2 31 -13.1875 
L 23.1875 -13.1875 
Q 15.875 -1.703125 12.234375 9.375 
Q 8.59375 20.453125 8.59375 31.390625 
Q 8.59375 42.28125 12.203125 53.3125 
Q 15.828125 64.359375 23.1875 75.875 
z
" id="DejaVuSans-40"/>
     <path d="M 8.015625 75.875 
L 15.828125 75.875 
Q 23.140625 64.359375 26.78125 53.3125 
Q 30.421875 42.28125 30.421875 31.390625 
Q 30.421875 20.453125 26.78125 9.375 
Q 23.140625 -1.703125 15.828125 -13.1875 
L 8.015625 -13.1875 
Q 14.5 -2 17.703125 9.0625 
Q 20.90625 20.125 20.90625 31.390625 
Q 20.90625 42.671875 17.703125 53.65625 
Q 14.5 64.65625 8.015625 75.875 
z
" id="DejaVuSans-41"/>
    </defs>
    <g transform="translate(361.8625 36.276562)scale(0.1 -0.1)">
     <use xlink:href="#DejaVuSans-65"/>
     <use x="68.408203" xlink:href="#DejaVuSans-83"/>
     <use x="131.884766" xlink:href="#DejaVuSans-32"/>
     <use x="163.671875" xlink:href="#DejaVuSans-40"/>
     <use x="202.685547" xlink:href="#DejaVuSans-52"/>
     <use x="266.308594" xlink:href="#DejaVuSans-48"/>
     <use x="329.931641" xlink:href="#DejaVuSans-41"/>
    </g>
   </g>
   <g id="line2d_54">
    <path d="M 333.8625 47.454688 
L 353.8625 47.454688 
" style="fill:none;stroke:#d95f02;stroke-linecap:square;stroke-width:1.5;"/>
   </g>
   <g id="line2d_55"/>
   <g id="text_23">
    <!-- AUS (40) -->
    <defs>
     <path d="M 8.6875 72.90625 
L 18.609375 72.90625 
L 18.609375 28.609375 
Q 18.609375 16.890625 22.84375 11.734375 
Q 27.09375 6.59375 36.625 6.59375 
Q 46.09375 6.59375 50.34375 11.734375 
Q 54.59375 16.890625 54.59375 28.609375 
L 54.59375 72.90625 
L 64.5 72.90625 
L 64.5 27.390625 
Q 64.5 13.140625 57.4375 5.859375 
Q 50.390625 -1.421875 36.625 -1.421875 
Q 22.796875 -1.421875 15.734375 5.859375 
Q 8.6875 13.140625 8.6875 27.390625 
z
" id="DejaVuSans-85"/>
    </defs>
    <g transform="translate(361.8625 50.954688)scale(0.1 -0.1)">
     <use xlink:href="#DejaVuSans-65"/>
     <use x="68.408203" xlink:href="#DejaVuSans-85"/>
     <use x="141.601562" xlink:href="#DejaVuSans-83"/>
     <use x="205.078125" xlink:href="#DejaVuSans-32"/>
     <use x="236.865234" xlink:href="#DejaVuSans-40"/>
     <use x="275.878906" xlink:href="#DejaVuSans-52"/>
     <use x="339.501953" xlink:href="#DejaVuSans-48"/>
     <use x="403.125" xlink:href="#DejaVuSans-41"/>
    </g>
   </g>
   <g id="line2d_56">
    <path d="M 333.8625 62.132812 
L 353.8625 62.132812 
" style="fill:none;stroke:#7570b3;stroke-linecap:square;stroke-width:1.5;"/>
   </g>
   <g id="line2d_57"/>
   <g id="text_24">
    <!-- COML (40) -->
    <defs>
     <path d="M 64.40625 67.28125 
L 64.40625 56.890625 
Q 59.421875 61.53125 53.78125 63.8125 
Q 48.140625 66.109375 41.796875 66.109375 
Q 29.296875 66.109375 22.65625 58.46875 
Q 16.015625 50.828125 16.015625 36.375 
Q 16.015625 21.96875 22.65625 14.328125 
Q 29.296875 6.6875 41.796875 6.6875 
Q 48.140625 6.6875 53.78125 8.984375 
Q 59.421875 11.28125 64.40625 15.921875 
L 64.40625 5.609375 
Q 59.234375 2.09375 53.4375 0.328125 
Q 47.65625 -1.421875 41.21875 -1.421875 
Q 24.65625 -1.421875 15.125 8.703125 
Q 5.609375 18.84375 5.609375 36.375 
Q 5.609375 53.953125 15.125 64.078125 
Q 24.65625 74.21875 41.21875 74.21875 
Q 47.75 74.21875 53.53125 72.484375 
Q 59.328125 70.75 64.40625 67.28125 
z
" id="DejaVuSans-67"/>
     <path d="M 39.40625 66.21875 
Q 28.65625 66.21875 22.328125 58.203125 
Q 16.015625 50.203125 16.015625 36.375 
Q 16.015625 22.609375 22.328125 14.59375 
Q 28.65625 6.59375 39.40625 6.59375 
Q 50.140625 6.59375 56.421875 14.59375 
Q 62.703125 22.609375 62.703125 36.375 
Q 62.703125 50.203125 56.421875 58.203125 
Q 50.140625 66.21875 39.40625 66.21875 
z
M 39.40625 74.21875 
Q 54.734375 74.21875 63.90625 63.9375 
Q 73.09375 53.65625 73.09375 36.375 
Q 73.09375 19.140625 63.90625 8.859375 
Q 54.734375 -1.421875 39.40625 -1.421875 
Q 24.03125 -1.421875 14.8125 8.828125 
Q 5.609375 19.09375 5.609375 36.375 
Q 5.609375 53.65625 14.8125 63.9375 
Q 24.03125 74.21875 39.40625 74.21875 
z
" id="DejaVuSans-79"/>
     <path d="M 9.8125 72.90625 
L 24.515625 72.90625 
L 43.109375 23.296875 
L 61.8125 72.90625 
L 76.515625 72.90625 
L 76.515625 0 
L 66.890625 0 
L 66.890625 64.015625 
L 48.09375 14.015625 
L 38.1875 14.015625 
L 19.390625 64.015625 
L 19.390625 0 
L 9.8125 0 
z
" id="DejaVuSans-77"/>
     <path d="M 9.8125 72.90625 
L 19.671875 72.90625 
L 19.671875 8.296875 
L 55.171875 8.296875 
L 55.171875 0 
L 9.8125 0 
z
" id="DejaVuSans-76"/>
    </defs>
    <g transform="translate(361.8625 65.632812)scale(0.1 -0.1)">
     <use xlink:href="#DejaVuSans-67"/>
     <use x="69.824219" xlink:href="#DejaVuSans-79"/>
     <use x="148.535156" xlink:href="#DejaVuSans-77"/>
     <use x="234.814453" xlink:href="#DejaVuSans-76"/>
     <use x="290.527344" xlink:href="#DejaVuSans-32"/>
     <use x="322.314453" xlink:href="#DejaVuSans-40"/>
     <use x="361.328125" xlink:href="#DejaVuSans-52"/>
     <use x="424.951172" xlink:href="#DejaVuSans-48"/>
     <use x="488.574219" xlink:href="#DejaVuSans-41"/>
    </g>
   </g>
   <g id="line2d_58">
    <path d="M 333.8625 76.810937 
L 353.8625 76.810937 
" style="fill:none;stroke:#e7298a;stroke-linecap:square;stroke-width:1.5;"/>
   </g>
   <g id="line2d_59"/>
   <g id="text_25">
    <!-- GDD (40) -->
    <defs>
     <path d="M 59.515625 10.40625 
L 59.515625 29.984375 
L 43.40625 29.984375 
L 43.40625 38.09375 
L 69.28125 38.09375 
L 69.28125 6.78125 
Q 63.578125 2.734375 56.6875 0.65625 
Q 49.8125 -1.421875 42 -1.421875 
Q 24.90625 -1.421875 15.25 8.5625 
Q 5.609375 18.5625 5.609375 36.375 
Q 5.609375 54.25 15.25 64.234375 
Q 24.90625 74.21875 42 74.21875 
Q 49.125 74.21875 55.546875 72.453125 
Q 61.96875 70.703125 67.390625 67.28125 
L 67.390625 56.78125 
Q 61.921875 61.421875 55.765625 63.765625 
Q 49.609375 66.109375 42.828125 66.109375 
Q 29.4375 66.109375 22.71875 58.640625 
Q 16.015625 51.171875 16.015625 36.375 
Q 16.015625 21.625 22.71875 14.15625 
Q 29.4375 6.6875 42.828125 6.6875 
Q 48.046875 6.6875 52.140625 7.59375 
Q 56.25 8.5 59.515625 10.40625 
z
" id="DejaVuSans-71"/>
    </defs>
    <g transform="translate(361.8625 80.310937)scale(0.1 -0.1)">
     <use xlink:href="#DejaVuSans-71"/>
     <use x="77.490234" xlink:href="#DejaVuSans-68"/>
     <use x="154.492188" xlink:href="#DejaVuSans-68"/>
     <use x="231.494141" xlink:href="#DejaVuSans-32"/>
     <use x="263.28125" xlink:href="#DejaVuSans-40"/>
     <use x="302.294922" xlink:href="#DejaVuSans-52"/>
     <use x="365.917969" xlink:href="#DejaVuSans-48"/>
     <use x="429.541016" xlink:href="#DejaVuSans-41"/>
    </g>
   </g>
   <g id="line2d_60">
    <path d="M 333.8625 91.489062 
L 353.8625 91.489062 
" style="fill:none;stroke:#66a61e;stroke-linecap:square;stroke-width:1.5;"/>
   </g>
   <g id="line2d_61"/>
   <g id="text_26">
    <!-- MD (38) -->
    <g transform="translate(361.8625 94.989062)scale(0.1 -0.1)">
     <use xlink:href="#DejaVuSans-77"/>
     <use x="86.279297" xlink:href="#DejaVuSans-68"/>
     <use x="163.28125" xlink:href="#DejaVuSans-32"/>
     <use x="195.068359" xlink:href="#DejaVuSans-40"/>
     <use x="234.082031" xlink:href="#DejaVuSans-51"/>
     <use x="297.705078" xlink:href="#DejaVuSans-56"/>
     <use x="361.328125" xlink:href="#DejaVuSans-41"/>
    </g>
   </g>
   <g id="line2d_62">
    <path d="M 333.8625 106.167188 
L 353.8625 106.167188 
" style="fill:none;stroke:#e6ab02;stroke-linecap:square;stroke-width:1.5;"/>
   </g>
   <g id="line2d_63"/>
   <g id="text_27">
    <!-- HPI (38) -->
    <defs>
     <path d="M 9.8125 72.90625 
L 19.671875 72.90625 
L 19.671875 43.015625 
L 55.515625 43.015625 
L 55.515625 72.90625 
L 65.375 72.90625 
L 65.375 0 
L 55.515625 0 
L 55.515625 34.71875 
L 19.671875 34.71875 
L 19.671875 0 
L 9.8125 0 
z
" id="DejaVuSans-72"/>
     <path d="M 19.671875 64.796875 
L 19.671875 37.40625 
L 32.078125 37.40625 
Q 38.96875 37.40625 42.71875 40.96875 
Q 46.484375 44.53125 46.484375 51.125 
Q 46.484375 57.671875 42.71875 61.234375 
Q 38.96875 64.796875 32.078125 64.796875 
z
M 9.8125 72.90625 
L 32.078125 72.90625 
Q 44.34375 72.90625 50.609375 67.359375 
Q 56.890625 61.8125 56.890625 51.125 
Q 56.890625 40.328125 50.609375 34.8125 
Q 44.34375 29.296875 32.078125 29.296875 
L 19.671875 29.296875 
L 19.671875 0 
L 9.8125 0 
z
" id="DejaVuSans-80"/>
     <path d="M 9.8125 72.90625 
L 19.671875 72.90625 
L 19.671875 0 
L 9.8125 0 
z
" id="DejaVuSans-73"/>
    </defs>
    <g transform="translate(361.8625 109.667188)scale(0.1 -0.1)">
     <use xlink:href="#DejaVuSans-72"/>
     <use x="75.195312" xlink:href="#DejaVuSans-80"/>
     <use x="135.498047" xlink:href="#DejaVuSans-73"/>
     <use x="164.990234" xlink:href="#DejaVuSans-32"/>
     <use x="196.777344" xlink:href="#DejaVuSans-40"/>
     <use x="235.791016" xlink:href="#DejaVuSans-51"/>
     <use x="299.414062" xlink:href="#DejaVuSans-56"/>
     <use x="363.037109" xlink:href="#DejaVuSans-41"/>
    </g>
   </g>
   <g id="line2d_64">
    <path d="M 333.8625 120.845312 
L 353.8625 120.845312 
" style="fill:none;stroke:#a6761d;stroke-linecap:square;stroke-width:1.5;"/>
   </g>
   <g id="line2d_65"/>
   <g id="text_28">
    <!-- SA (37) -->
    <defs>
     <path d="M 8.203125 72.90625 
L 55.078125 72.90625 
L 55.078125 68.703125 
L 28.609375 0 
L 18.3125 0 
L 43.21875 64.59375 
L 8.203125 64.59375 
z
" id="DejaVuSans-55"/>
    </defs>
    <g transform="translate(361.8625 124.345312)scale(0.1 -0.1)">
     <use xlink:href="#DejaVuSans-83"/>
     <use x="63.492188" xlink:href="#DejaVuSans-65"/>
     <use x="131.900391" xlink:href="#DejaVuSans-32"/>
     <use x="163.6875" xlink:href="#DejaVuSans-40"/>
     <use x="202.701172" xlink:href="#DejaVuSans-51"/>
     <use x="266.324219" xlink:href="#DejaVuSans-55"/>
     <use x="329.947266" xlink:href="#DejaVuSans-41"/>
    </g>
   </g>
   <g id="line2d_66">
    <path d="M 333.8625 135.523438 
L 353.8625 135.523438 
" style="fill:none;stroke:#666666;stroke-linecap:square;stroke-width:1.5;"/>
   </g>
   <g id="line2d_67"/>
   <g id="text_29">
    <!-- FIT (30) -->
    <defs>
     <path d="M 9.8125 72.90625 
L 51.703125 72.90625 
L 51.703125 64.59375 
L 19.671875 64.59375 
L 19.671875 43.109375 
L 48.578125 43.109375 
L 48.578125 34.8125 
L 19.671875 34.8125 
L 19.671875 0 
L 9.8125 0 
z
" id="DejaVuSans-70"/>
     <path d="M -0.296875 72.90625 
L 61.375 72.90625 
L 61.375 64.59375 
L 35.5 64.59375 
L 35.5 0 
L 25.59375 0 
L 25.59375 64.59375 
L -0.296875 64.59375 
z
" id="DejaVuSans-84"/>
    </defs>
    <g transform="translate(361.8625 139.023438)scale(0.1 -0.1)">
     <use xlink:href="#DejaVuSans-70"/>
     <use x="57.519531" xlink:href="#DejaVuSans-73"/>
     <use x="87.011719" xlink:href="#DejaVuSans-84"/>
     <use x="148.095703" xlink:href="#DejaVuSans-32"/>
     <use x="179.882812" xlink:href="#DejaVuSans-40"/>
     <use x="218.896484" xlink:href="#DejaVuSans-51"/>
     <use x="282.519531" xlink:href="#DejaVuSans-48"/>
     <use x="346.142578" xlink:href="#DejaVuSans-41"/>
    </g>
   </g>
   <g id="line2d_68">
    <path d="M 333.8625 150.201562 
L 353.8625 150.201562 
" style="fill:none;stroke:#1b9e77;stroke-dasharray:4.5,1.5;stroke-dashoffset:0;stroke-width:1.5;"/>
   </g>
   <g id="line2d_69"/>
   <g id="text_30">
    <!-- SPD (28) -->
    <g transform="translate(361.8625 153.701562)scale(0.1 -0.1)">
     <use xlink:href="#DejaVuSans-83"/>
     <use x="63.476562" xlink:href="#DejaVuSans-80"/>
     <use x="123.779297" xlink:href="#DejaVuSans-68"/>
     <use x="200.78125" xlink:href="#DejaVuSans-32"/>
     <use x="232.568359" xlink:href="#DejaVuSans-40"/>
     <use x="271.582031" xlink:href="#DejaVuSans-50"/>
     <use x="335.205078" xlink:href="#DejaVuSans-56"/>
     <use x="398.828125" xlink:href="#DejaVuSans-41"/>
    </g>
   </g>
   <g id="line2d_70">
    <path d="M 333.8625 164.879687 
L 353.8625 164.879687 
" style="fill:none;stroke:#d95f02;stroke-dasharray:4.5,1.5;stroke-dashoffset:0;stroke-width:1.5;"/>
   </g>
   <g id="line2d_71"/>
   <g id="text_31">
    <!-- TBI (27) -->
    <defs>
     <path d="M 19.671875 34.8125 
L 19.671875 8.109375 
L 35.5 8.109375 
Q 43.453125 8.109375 47.28125 11.40625 
Q 51.125 14.703125 51.125 21.484375 
Q 51.125 28.328125 47.28125 31.5625 
Q 43.453125 34.8125 35.5 34.8125 
z
M 19.671875 64.796875 
L 19.671875 42.828125 
L 34.28125 42.828125 
Q 41.5 42.828125 45.03125 45.53125 
Q 48.578125 48.25 48.578125 53.8125 
Q 48.578125 59.328125 45.03125 62.0625 
Q 41.5 64.796875 34.28125 64.796875 
z
M 9.8125 72.90625 
L 35.015625 72.90625 
Q 46.296875 72.90625 52.390625 68.21875 
Q 58.5 63.53125 58.5 54.890625 
Q 58.5 48.1875 55.375 44.234375 
Q 52.25 40.28125 46.1875 39.3125 
Q 53.46875 37.75 57.5 32.78125 
Q 61.53125 27.828125 61.53125 20.40625 
Q 61.53125 10.640625 54.890625 5.3125 
Q 48.25 0 35.984375 0 
L 9.8125 0 
z
" id="DejaVuSans-66"/>
    </defs>
    <g transform="translate(361.8625 168.379687)scale(0.1 -0.1)">
     <use xlink:href="#DejaVuSans-84"/>
     <use x="61.083984" xlink:href="#DejaVuSans-66"/>
     <use x="129.6875" xlink:href="#DejaVuSans-73"/>
     <use x="159.179688" xlink:href="#DejaVuSans-32"/>
     <use x="190.966797" xlink:href="#DejaVuSans-40"/>
     <use x="229.980469" xlink:href="#DejaVuSans-50"/>
     <use x="293.603516" xlink:href="#DejaVuSans-55"/>
     <use x="357.226562" xlink:href="#DejaVuSans-41"/>
    </g>
   </g>
   <g id="line2d_72">
    <path d="M 333.8625 179.557812 
L 353.8625 179.557812 
" style="fill:none;stroke:#7570b3;stroke-dasharray:4.5,1.5;stroke-dashoffset:0;stroke-width:1.5;"/>
   </g>
   <g id="line2d_73"/>
   <g id="text_32">
    <!-- CC (25) -->
    <g transform="translate(361.8625 183.057812)scale(0.1 -0.1)">
     <use xlink:href="#DejaVuSans-67"/>
     <use x="69.824219" xlink:href="#DejaVuSans-67"/>
     <use x="139.648438" xlink:href="#DejaVuSans-32"/>
     <use x="171.435547" xlink:href="#DejaVuSans-40"/>
     <use x="210.449219" xlink:href="#DejaVuSans-50"/>
     <use x="274.072266" xlink:href="#DejaVuSans-53"/>
     <use x="337.695312" xlink:href="#DejaVuSans-41"/>
    </g>
   </g>
   <g id="line2d_74">
    <path d="M 333.8625 194.235937 
L 353.8625 194.235937 
" style="fill:none;stroke:#e7298a;stroke-dasharray:4.5,1.5;stroke-dashoffset:0;stroke-width:1.5;"/>
   </g>
   <g id="line2d_75"/>
   <g id="text_33">
    <!-- BP (24) -->
    <g transform="translate(361.8625 197.735937)scale(0.1 -0.1)">
     <use xlink:href="#DejaVuSans-66"/>
     <use x="68.603516" xlink:href="#DejaVuSans-80"/>
     <use x="128.90625" xlink:href="#DejaVuSans-32"/>
     <use x="160.693359" xlink:href="#DejaVuSans-40"/>
     <use x="199.707031" xlink:href="#DejaVuSans-50"/>
     <use x="263.330078" xlink:href="#DejaVuSans-52"/>
     <use x="326.953125" xlink:href="#DejaVuSans-41"/>
    </g>
   </g>
   <g id="line2d_76">
    <path d="M 333.8625 208.914062 
L 353.8625 208.914062 
" style="fill:none;stroke:#66a61e;stroke-dasharray:4.5,1.5;stroke-dashoffset:0;stroke-width:1.5;"/>
   </g>
   <g id="line2d_77"/>
   <g id="text_34">
    <!-- RJPH (23) -->
    <defs>
     <path d="M 9.8125 72.90625 
L 19.671875 72.90625 
L 19.671875 5.078125 
Q 19.671875 -8.109375 14.671875 -14.0625 
Q 9.671875 -20.015625 -1.421875 -20.015625 
L -5.171875 -20.015625 
L -5.171875 -11.71875 
L -2.09375 -11.71875 
Q 4.4375 -11.71875 7.125 -8.046875 
Q 9.8125 -4.390625 9.8125 5.078125 
z
" id="DejaVuSans-74"/>
    </defs>
    <g transform="translate(361.8625 212.414062)scale(0.1 -0.1)">
     <use xlink:href="#DejaVuSans-82"/>
     <use x="69.482422" xlink:href="#DejaVuSans-74"/>
     <use x="98.974609" xlink:href="#DejaVuSans-80"/>
     <use x="159.277344" xlink:href="#DejaVuSans-72"/>
     <use x="234.472656" xlink:href="#DejaVuSans-32"/>
     <use x="266.259766" xlink:href="#DejaVuSans-40"/>
     <use x="305.273438" xlink:href="#DejaVuSans-50"/>
     <use x="368.896484" xlink:href="#DejaVuSans-51"/>
     <use x="432.519531" xlink:href="#DejaVuSans-41"/>
    </g>
   </g>
   <g id="line2d_78">
    <path d="M 333.8625 223.592187 
L 353.8625 223.592187 
" style="fill:none;stroke:#e6ab02;stroke-dasharray:4.5,1.5;stroke-dashoffset:0;stroke-width:1.5;"/>
   </g>
   <g id="line2d_79"/>
   <g id="text_35">
    <!-- CB (22) -->
    <g transform="translate(361.8625 227.092187)scale(0.1 -0.1)">
     <use xlink:href="#DejaVuSans-67"/>
     <use x="69.824219" xlink:href="#DejaVuSans-66"/>
     <use x="138.427734" xlink:href="#DejaVuSans-32"/>
     <use x="170.214844" xlink:href="#DejaVuSans-40"/>
     <use x="209.228516" xlink:href="#DejaVuSans-50"/>
     <use x="272.851562" xlink:href="#DejaVuSans-50"/>
     <use x="336.474609" xlink:href="#DejaVuSans-41"/>
    </g>
   </g>
   <g id="line2d_80">
    <path d="M 333.8625 238.270312 
L 353.8625 238.270312 
" style="fill:none;stroke:#a6761d;stroke-dasharray:4.5,1.5;stroke-dashoffset:0;stroke-width:1.5;"/>
   </g>
   <g id="line2d_81"/>
   <g id="text_36">
    <!-- AHR-H (20) -->
    <g transform="translate(361.8625 241.770312)scale(0.1 -0.1)">
     <use xlink:href="#DejaVuSans-65"/>
     <use x="68.408203" xlink:href="#DejaVuSans-72"/>
     <use x="143.603516" xlink:href="#DejaVuSans-82"/>
     <use x="213.023438" xlink:href="#DejaVuSans-45"/>
     <use x="249.107422" xlink:href="#DejaVuSans-72"/>
     <use x="324.302734" xlink:href="#DejaVuSans-32"/>
     <use x="356.089844" xlink:href="#DejaVuSans-40"/>
     <use x="395.103516" xlink:href="#DejaVuSans-50"/>
     <use x="458.726562" xlink:href="#DejaVuSans-48"/>
     <use x="522.349609" xlink:href="#DejaVuSans-41"/>
    </g>
   </g>
   <g id="line2d_82">
    <path d="M 333.8625 252.948437 
L 353.8625 252.948437 
" style="fill:none;stroke:#666666;stroke-dasharray:4.5,1.5;stroke-dashoffset:0;stroke-width:1.5;"/>
   </g>
   <g id="line2d_83"/>
   <g id="text_37">
    <!-- AHR-A (16) -->
    <g transform="translate(361.8625 256.448437)scale(0.1 -0.1)">
     <use xlink:href="#DejaVuSans-65"/>
     <use x="68.408203" xlink:href="#DejaVuSans-72"/>
     <use x="143.603516" xlink:href="#DejaVuSans-82"/>
     <use x="213.023438" xlink:href="#DejaVuSans-45"/>
     <use x="249.076172" xlink:href="#DejaVuSans-65"/>
     <use x="317.484375" xlink:href="#DejaVuSans-32"/>
     <use x="349.271484" xlink:href="#DejaVuSans-40"/>
     <use x="388.285156" xlink:href="#DejaVuSans-49"/>
     <use x="451.908203" xlink:href="#DejaVuSans-54"/>
     <use x="515.53125" xlink:href="#DejaVuSans-41"/>
    </g>
   </g>
  </g>
 </g>
 <defs>
  <clipPath id="p7da425bb6d">
   <rect height="207.330771" width="271.81" x="43.55" y="12.9"/>
  </clipPath>
 </defs>
</svg>
