<?xml version="1.0" encoding="utf-8" standalone="no"?>
<!DOCTYPE svg PUBLIC "-//W3C//DTD SVG 1.1//EN"
  "http://www.w3.org/Graphics/SVG/1.1/DTD/svg11.dtd">
<!-- Created with matplotlib (https://matplotlib.org/) -->
<svg height="288pt" version="1.1" viewBox="0 0 432 288" width="432pt" xmlns="http://www.w3.org/2000/svg" xmlns:xlink="http://www.w3.org/1999/xlink">
 <defs>
  <style type="text/css">
*{stroke-linecap:butt;stroke-linejoin:round;}
  </style>
 </defs>
 <g id="figure_1">
  <g id="patch_1">
   <path d="M 0 288 
L 432 288 
L 432 0 
L 0 0 
z
" style="fill:#ffffff;"/>
  </g>
  <g id="axes_1">
   <g id="patch_2">
    <path d="M 43.55 220.230771 
L 315.36 220.230771 
L 315.36 12.9 
L 43.55 12.9 
z
" style="fill:#ffffff;"/>
   </g>
   <g id="matplotlib.axis_1">
    <g id="xtick_1">
     <g id="line2d_1">
      <defs>
       <path d="M 0 0 
L 0 3.5 
" id="m83b2beb69c" style="stroke:#000000;stroke-width:0.8;"/>
      </defs>
      <g>
       <use style="stroke:#000000;stroke-width:0.8;" x="49.258834" xlink:href="#m83b2beb69c" y="220.230771"/>
      </g>
     </g>
     <g id="text_1">
      <!-- 2020-11-29 -->
      <defs>
       <path d="M 19.1875 8.296875 
L 53.609375 8.296875 
L 53.609375 0 
L 7.328125 0 
L 7.328125 8.296875 
Q 12.9375 14.109375 22.625 23.890625 
Q 32.328125 33.6875 34.8125 36.53125 
Q 39.546875 41.84375 41.421875 45.53125 
Q 43.3125 49.21875 43.3125 52.78125 
Q 43.3125 58.59375 39.234375 62.25 
Q 35.15625 65.921875 28.609375 65.921875 
Q 23.96875 65.921875 18.8125 64.3125 
Q 13.671875 62.703125 7.8125 59.421875 
L 7.8125 69.390625 
Q 13.765625 71.78125 18.9375 73 
Q 24.125 74.21875 28.421875 74.21875 
Q 39.75 74.21875 46.484375 68.546875 
Q 53.21875 62.890625 53.21875 53.421875 
Q 53.21875 48.921875 51.53125 44.890625 
Q 49.859375 40.875 45.40625 35.40625 
Q 44.1875 33.984375 37.640625 27.21875 
Q 31.109375 20.453125 19.1875 8.296875 
z
" id="DejaVuSans-50"/>
       <path d="M 31.78125 66.40625 
Q 24.171875 66.40625 20.328125 58.90625 
Q 16.5 51.421875 16.5 36.375 
Q 16.5 21.390625 20.328125 13.890625 
Q 24.171875 6.390625 31.78125 6.390625 
Q 39.453125 6.390625 43.28125 13.890625 
Q 47.125 21.390625 47.125 36.375 
Q 47.125 51.421875 43.28125 58.90625 
Q 39.453125 66.40625 31.78125 66.40625 
z
M 31.78125 74.21875 
Q 44.046875 74.21875 50.515625 64.515625 
Q 56.984375 54.828125 56.984375 36.375 
Q 56.984375 17.96875 50.515625 8.265625 
Q 44.046875 -1.421875 31.78125 -1.421875 
Q 19.53125 -1.421875 13.0625 8.265625 
Q 6.59375 17.96875 6.59375 36.375 
Q 6.59375 54.828125 13.0625 64.515625 
Q 19.53125 74.21875 31.78125 74.21875 
z
" id="DejaVuSans-48"/>
       <path d="M 4.890625 31.390625 
L 31.203125 31.390625 
L 31.203125 23.390625 
L 4.890625 23.390625 
z
" id="DejaVuSans-45"/>
       <path d="M 12.40625 8.296875 
L 28.515625 8.296875 
L 28.515625 63.921875 
L 10.984375 60.40625 
L 10.984375 69.390625 
L 28.421875 72.90625 
L 38.28125 72.90625 
L 38.28125 8.296875 
L 54.390625 8.296875 
L 54.390625 0 
L 12.40625 0 
z
" id="DejaVuSans-49"/>
       <path d="M 10.984375 1.515625 
L 10.984375 10.5 
Q 14.703125 8.734375 18.5 7.8125 
Q 22.3125 6.890625 25.984375 6.890625 
Q 35.75 6.890625 40.890625 13.453125 
Q 46.046875 20.015625 46.78125 33.40625 
Q 43.953125 29.203125 39.59375 26.953125 
Q 35.25 24.703125 29.984375 24.703125 
Q 19.046875 24.703125 12.671875 31.3125 
Q 6.296875 37.9375 6.296875 49.421875 
Q 6.296875 60.640625 12.9375 67.421875 
Q 19.578125 74.21875 30.609375 74.21875 
Q 43.265625 74.21875 49.921875 64.515625 
Q 56.59375 54.828125 56.59375 36.375 
Q 56.59375 19.140625 48.40625 8.859375 
Q 40.234375 -1.421875 26.421875 -1.421875 
Q 22.703125 -1.421875 18.890625 -0.6875 
Q 15.09375 0.046875 10.984375 1.515625 
z
M 30.609375 32.421875 
Q 37.25 32.421875 41.125 36.953125 
Q 45.015625 41.5 45.015625 49.421875 
Q 45.015625 57.28125 41.125 61.84375 
Q 37.25 66.40625 30.609375 66.40625 
Q 23.96875 66.40625 20.09375 61.84375 
Q 16.21875 57.28125 16.21875 49.421875 
Q 16.21875 41.5 20.09375 36.953125 
Q 23.96875 32.421875 30.609375 32.421875 
z
" id="DejaVuSans-57"/>
      </defs>
      <g transform="translate(25.473718 262.869024)rotate(-30)scale(0.1 -0.1)">
       <use xlink:href="#DejaVuSans-50"/>
       <use x="63.623047" xlink:href="#DejaVuSans-48"/>
       <use x="127.246094" xlink:href="#DejaVuSans-50"/>
       <use x="190.869141" xlink:href="#DejaVuSans-48"/>
       <use x="254.492188" xlink:href="#DejaVuSans-45"/>
       <use x="290.576172" xlink:href="#DejaVuSans-49"/>
       <use x="354.199219" xlink:href="#DejaVuSans-49"/>
       <use x="417.822266" xlink:href="#DejaVuSans-45"/>
       <use x="453.90625" xlink:href="#DejaVuSans-50"/>
       <use x="517.529297" xlink:href="#DejaVuSans-57"/>
      </g>
     </g>
    </g>
    <g id="xtick_2">
     <g id="line2d_2">
      <g>
       <use style="stroke:#000000;stroke-width:0.8;" x="58.437281" xlink:href="#m83b2beb69c" y="220.230771"/>
      </g>
     </g>
     <g id="text_2">
      <!-- 2020-12-01 -->
      <g transform="translate(34.652164 262.869024)rotate(-30)scale(0.1 -0.1)">
       <use xlink:href="#DejaVuSans-50"/>
       <use x="63.623047" xlink:href="#DejaVuSans-48"/>
       <use x="127.246094" xlink:href="#DejaVuSans-50"/>
       <use x="190.869141" xlink:href="#DejaVuSans-48"/>
       <use x="254.492188" xlink:href="#DejaVuSans-45"/>
       <use x="290.576172" xlink:href="#DejaVuSans-49"/>
       <use x="354.199219" xlink:href="#DejaVuSans-50"/>
       <use x="417.822266" xlink:href="#DejaVuSans-45"/>
       <use x="453.90625" xlink:href="#DejaVuSans-48"/>
       <use x="517.529297" xlink:href="#DejaVuSans-49"/>
      </g>
     </g>
    </g>
    <g id="xtick_3">
     <g id="line2d_3">
      <g>
       <use style="stroke:#000000;stroke-width:0.8;" x="90.561844" xlink:href="#m83b2beb69c" y="220.230771"/>
      </g>
     </g>
     <g id="text_3">
      <!-- 2020-12-08 -->
      <defs>
       <path d="M 31.78125 34.625 
Q 24.75 34.625 20.71875 30.859375 
Q 16.703125 27.09375 16.703125 20.515625 
Q 16.703125 13.921875 20.71875 10.15625 
Q 24.75 6.390625 31.78125 6.390625 
Q 38.8125 6.390625 42.859375 10.171875 
Q 46.921875 13.96875 46.921875 20.515625 
Q 46.921875 27.09375 42.890625 30.859375 
Q 38.875 34.625 31.78125 34.625 
z
M 21.921875 38.8125 
Q 15.578125 40.375 12.03125 44.71875 
Q 8.5 49.078125 8.5 55.328125 
Q 8.5 64.0625 14.71875 69.140625 
Q 20.953125 74.21875 31.78125 74.21875 
Q 42.671875 74.21875 48.875 69.140625 
Q 55.078125 64.0625 55.078125 55.328125 
Q 55.078125 49.078125 51.53125 44.71875 
Q 48 40.375 41.703125 38.8125 
Q 48.828125 37.15625 52.796875 32.3125 
Q 56.78125 27.484375 56.78125 20.515625 
Q 56.78125 9.90625 50.3125 4.234375 
Q 43.84375 -1.421875 31.78125 -1.421875 
Q 19.734375 -1.421875 13.25 4.234375 
Q 6.78125 9.90625 6.78125 20.515625 
Q 6.78125 27.484375 10.78125 32.3125 
Q 14.796875 37.15625 21.921875 38.8125 
z
M 18.3125 54.390625 
Q 18.3125 48.734375 21.84375 45.5625 
Q 25.390625 42.390625 31.78125 42.390625 
Q 38.140625 42.390625 41.71875 45.5625 
Q 45.3125 48.734375 45.3125 54.390625 
Q 45.3125 60.0625 41.71875 63.234375 
Q 38.140625 66.40625 31.78125 66.40625 
Q 25.390625 66.40625 21.84375 63.234375 
Q 18.3125 60.0625 18.3125 54.390625 
z
" id="DejaVuSans-56"/>
      </defs>
      <g transform="translate(66.776728 262.869024)rotate(-30)scale(0.1 -0.1)">
       <use xlink:href="#DejaVuSans-50"/>
       <use x="63.623047" xlink:href="#DejaVuSans-48"/>
       <use x="127.246094" xlink:href="#DejaVuSans-50"/>
       <use x="190.869141" xlink:href="#DejaVuSans-48"/>
       <use x="254.492188" xlink:href="#DejaVuSans-45"/>
       <use x="290.576172" xlink:href="#DejaVuSans-49"/>
       <use x="354.199219" xlink:href="#DejaVuSans-50"/>
       <use x="417.822266" xlink:href="#DejaVuSans-45"/>
       <use x="453.90625" xlink:href="#DejaVuSans-48"/>
       <use x="517.529297" xlink:href="#DejaVuSans-56"/>
      </g>
     </g>
    </g>
    <g id="xtick_4">
     <g id="line2d_4">
      <g>
       <use style="stroke:#000000;stroke-width:0.8;" x="122.686407" xlink:href="#m83b2beb69c" y="220.230771"/>
      </g>
     </g>
     <g id="text_4">
      <!-- 2020-12-15 -->
      <defs>
       <path d="M 10.796875 72.90625 
L 49.515625 72.90625 
L 49.515625 64.59375 
L 19.828125 64.59375 
L 19.828125 46.734375 
Q 21.96875 47.46875 24.109375 47.828125 
Q 26.265625 48.1875 28.421875 48.1875 
Q 40.625 48.1875 47.75 41.5 
Q 54.890625 34.8125 54.890625 23.390625 
Q 54.890625 11.625 47.5625 5.09375 
Q 40.234375 -1.421875 26.90625 -1.421875 
Q 22.3125 -1.421875 17.546875 -0.640625 
Q 12.796875 0.140625 7.71875 1.703125 
L 7.71875 11.625 
Q 12.109375 9.234375 16.796875 8.0625 
Q 21.484375 6.890625 26.703125 6.890625 
Q 35.15625 6.890625 40.078125 11.328125 
Q 45.015625 15.765625 45.015625 23.390625 
Q 45.015625 31 40.078125 35.4375 
Q 35.15625 39.890625 26.703125 39.890625 
Q 22.75 39.890625 18.8125 39.015625 
Q 14.890625 38.140625 10.796875 36.28125 
z
" id="DejaVuSans-53"/>
      </defs>
      <g transform="translate(98.901291 262.869024)rotate(-30)scale(0.1 -0.1)">
       <use xlink:href="#DejaVuSans-50"/>
       <use x="63.623047" xlink:href="#DejaVuSans-48"/>
       <use x="127.246094" xlink:href="#DejaVuSans-50"/>
       <use x="190.869141" xlink:href="#DejaVuSans-48"/>
       <use x="254.492188" xlink:href="#DejaVuSans-45"/>
       <use x="290.576172" xlink:href="#DejaVuSans-49"/>
       <use x="354.199219" xlink:href="#DejaVuSans-50"/>
       <use x="417.822266" xlink:href="#DejaVuSans-45"/>
       <use x="453.90625" xlink:href="#DejaVuSans-49"/>
       <use x="517.529297" xlink:href="#DejaVuSans-53"/>
      </g>
     </g>
    </g>
    <g id="xtick_5">
     <g id="line2d_5">
      <g>
       <use style="stroke:#000000;stroke-width:0.8;" x="154.810971" xlink:href="#m83b2beb69c" y="220.230771"/>
      </g>
     </g>
     <g id="text_5">
      <!-- 2020-12-22 -->
      <g transform="translate(131.025854 262.869024)rotate(-30)scale(0.1 -0.1)">
       <use xlink:href="#DejaVuSans-50"/>
       <use x="63.623047" xlink:href="#DejaVuSans-48"/>
       <use x="127.246094" xlink:href="#DejaVuSans-50"/>
       <use x="190.869141" xlink:href="#DejaVuSans-48"/>
       <use x="254.492188" xlink:href="#DejaVuSans-45"/>
       <use x="290.576172" xlink:href="#DejaVuSans-49"/>
       <use x="354.199219" xlink:href="#DejaVuSans-50"/>
       <use x="417.822266" xlink:href="#DejaVuSans-45"/>
       <use x="453.90625" xlink:href="#DejaVuSans-50"/>
       <use x="517.529297" xlink:href="#DejaVuSans-50"/>
      </g>
     </g>
    </g>
    <g id="xtick_6">
     <g id="line2d_6">
      <g>
       <use style="stroke:#000000;stroke-width:0.8;" x="186.935534" xlink:href="#m83b2beb69c" y="220.230771"/>
      </g>
     </g>
     <g id="text_6">
      <!-- 2020-12-29 -->
      <g transform="translate(163.150418 262.869024)rotate(-30)scale(0.1 -0.1)">
       <use xlink:href="#DejaVuSans-50"/>
       <use x="63.623047" xlink:href="#DejaVuSans-48"/>
       <use x="127.246094" xlink:href="#DejaVuSans-50"/>
       <use x="190.869141" xlink:href="#DejaVuSans-48"/>
       <use x="254.492188" xlink:href="#DejaVuSans-45"/>
       <use x="290.576172" xlink:href="#DejaVuSans-49"/>
       <use x="354.199219" xlink:href="#DejaVuSans-50"/>
       <use x="417.822266" xlink:href="#DejaVuSans-45"/>
       <use x="453.90625" xlink:href="#DejaVuSans-50"/>
       <use x="517.529297" xlink:href="#DejaVuSans-57"/>
      </g>
     </g>
    </g>
    <g id="xtick_7">
     <g id="line2d_7">
      <g>
       <use style="stroke:#000000;stroke-width:0.8;" x="200.703204" xlink:href="#m83b2beb69c" y="220.230771"/>
      </g>
     </g>
     <g id="text_7">
      <!-- 2021-01-01 -->
      <g transform="translate(176.918088 262.869024)rotate(-30)scale(0.1 -0.1)">
       <use xlink:href="#DejaVuSans-50"/>
       <use x="63.623047" xlink:href="#DejaVuSans-48"/>
       <use x="127.246094" xlink:href="#DejaVuSans-50"/>
       <use x="190.869141" xlink:href="#DejaVuSans-49"/>
       <use x="254.492188" xlink:href="#DejaVuSans-45"/>
       <use x="290.576172" xlink:href="#DejaVuSans-48"/>
       <use x="354.199219" xlink:href="#DejaVuSans-49"/>
       <use x="417.822266" xlink:href="#DejaVuSans-45"/>
       <use x="453.90625" xlink:href="#DejaVuSans-48"/>
       <use x="517.529297" xlink:href="#DejaVuSans-49"/>
      </g>
     </g>
    </g>
    <g id="xtick_8">
     <g id="line2d_8">
      <g>
       <use style="stroke:#000000;stroke-width:0.8;" x="232.827767" xlink:href="#m83b2beb69c" y="220.230771"/>
      </g>
     </g>
     <g id="text_8">
      <!-- 2021-01-08 -->
      <g transform="translate(209.042651 262.869024)rotate(-30)scale(0.1 -0.1)">
       <use xlink:href="#DejaVuSans-50"/>
       <use x="63.623047" xlink:href="#DejaVuSans-48"/>
       <use x="127.246094" xlink:href="#DejaVuSans-50"/>
       <use x="190.869141" xlink:href="#DejaVuSans-49"/>
       <use x="254.492188" xlink:href="#DejaVuSans-45"/>
       <use x="290.576172" xlink:href="#DejaVuSans-48"/>
       <use x="354.199219" xlink:href="#DejaVuSans-49"/>
       <use x="417.822266" xlink:href="#DejaVuSans-45"/>
       <use x="453.90625" xlink:href="#DejaVuSans-48"/>
       <use x="517.529297" xlink:href="#DejaVuSans-56"/>
      </g>
     </g>
    </g>
    <g id="xtick_9">
     <g id="line2d_9">
      <g>
       <use style="stroke:#000000;stroke-width:0.8;" x="264.952331" xlink:href="#m83b2beb69c" y="220.230771"/>
      </g>
     </g>
     <g id="text_9">
      <!-- 2021-01-15 -->
      <g transform="translate(241.167214 262.869024)rotate(-30)scale(0.1 -0.1)">
       <use xlink:href="#DejaVuSans-50"/>
       <use x="63.623047" xlink:href="#DejaVuSans-48"/>
       <use x="127.246094" xlink:href="#DejaVuSans-50"/>
       <use x="190.869141" xlink:href="#DejaVuSans-49"/>
       <use x="254.492188" xlink:href="#DejaVuSans-45"/>
       <use x="290.576172" xlink:href="#DejaVuSans-48"/>
       <use x="354.199219" xlink:href="#DejaVuSans-49"/>
       <use x="417.822266" xlink:href="#DejaVuSans-45"/>
       <use x="453.90625" xlink:href="#DejaVuSans-49"/>
       <use x="517.529297" xlink:href="#DejaVuSans-53"/>
      </g>
     </g>
    </g>
    <g id="xtick_10">
     <g id="line2d_10">
      <g>
       <use style="stroke:#000000;stroke-width:0.8;" x="297.076894" xlink:href="#m83b2beb69c" y="220.230771"/>
      </g>
     </g>
     <g id="text_10">
      <!-- 2021-01-22 -->
      <g transform="translate(273.291778 262.869024)rotate(-30)scale(0.1 -0.1)">
       <use xlink:href="#DejaVuSans-50"/>
       <use x="63.623047" xlink:href="#DejaVuSans-48"/>
       <use x="127.246094" xlink:href="#DejaVuSans-50"/>
       <use x="190.869141" xlink:href="#DejaVuSans-49"/>
       <use x="254.492188" xlink:href="#DejaVuSans-45"/>
       <use x="290.576172" xlink:href="#DejaVuSans-48"/>
       <use x="354.199219" xlink:href="#DejaVuSans-49"/>
       <use x="417.822266" xlink:href="#DejaVuSans-45"/>
       <use x="453.90625" xlink:href="#DejaVuSans-50"/>
       <use x="517.529297" xlink:href="#DejaVuSans-50"/>
      </g>
     </g>
    </g>
    <g id="text_11">
     <!-- Date -->
     <defs>
      <path d="M 19.671875 64.796875 
L 19.671875 8.109375 
L 31.59375 8.109375 
Q 46.6875 8.109375 53.6875 14.9375 
Q 60.6875 21.78125 60.6875 36.53125 
Q 60.6875 51.171875 53.6875 57.984375 
Q 46.6875 64.796875 31.59375 64.796875 
z
M 9.8125 72.90625 
L 30.078125 72.90625 
Q 51.265625 72.90625 61.171875 64.09375 
Q 71.09375 55.28125 71.09375 36.53125 
Q 71.09375 17.671875 61.125 8.828125 
Q 51.171875 0 30.078125 0 
L 9.8125 0 
z
" id="DejaVuSans-68"/>
      <path d="M 34.28125 27.484375 
Q 23.390625 27.484375 19.1875 25 
Q 14.984375 22.515625 14.984375 16.5 
Q 14.984375 11.71875 18.140625 8.90625 
Q 21.296875 6.109375 26.703125 6.109375 
Q 34.1875 6.109375 38.703125 11.40625 
Q 43.21875 16.703125 43.21875 25.484375 
L 43.21875 27.484375 
z
M 52.203125 31.203125 
L 52.203125 0 
L 43.21875 0 
L 43.21875 8.296875 
Q 40.140625 3.328125 35.546875 0.953125 
Q 30.953125 -1.421875 24.3125 -1.421875 
Q 15.921875 -1.421875 10.953125 3.296875 
Q 6 8.015625 6 15.921875 
Q 6 25.140625 12.171875 29.828125 
Q 18.359375 34.515625 30.609375 34.515625 
L 43.21875 34.515625 
L 43.21875 35.40625 
Q 43.21875 41.609375 39.140625 45 
Q 35.0625 48.390625 27.6875 48.390625 
Q 23 48.390625 18.546875 47.265625 
Q 14.109375 46.140625 10.015625 43.890625 
L 10.015625 52.203125 
Q 14.9375 54.109375 19.578125 55.046875 
Q 24.21875 56 28.609375 56 
Q 40.484375 56 46.34375 49.84375 
Q 52.203125 43.703125 52.203125 31.203125 
z
" id="DejaVuSans-97"/>
      <path d="M 18.3125 70.21875 
L 18.3125 54.6875 
L 36.8125 54.6875 
L 36.8125 47.703125 
L 18.3125 47.703125 
L 18.3125 18.015625 
Q 18.3125 11.328125 20.140625 9.421875 
Q 21.96875 7.515625 27.59375 7.515625 
L 36.8125 7.515625 
L 36.8125 0 
L 27.59375 0 
Q 17.1875 0 13.234375 3.875 
Q 9.28125 7.765625 9.28125 18.015625 
L 9.28125 47.703125 
L 2.6875 47.703125 
L 2.6875 54.6875 
L 9.28125 54.6875 
L 9.28125 70.21875 
z
" id="DejaVuSans-116"/>
      <path d="M 56.203125 29.59375 
L 56.203125 25.203125 
L 14.890625 25.203125 
Q 15.484375 15.921875 20.484375 11.0625 
Q 25.484375 6.203125 34.421875 6.203125 
Q 39.59375 6.203125 44.453125 7.46875 
Q 49.3125 8.734375 54.109375 11.28125 
L 54.109375 2.78125 
Q 49.265625 0.734375 44.1875 -0.34375 
Q 39.109375 -1.421875 33.890625 -1.421875 
Q 20.796875 -1.421875 13.15625 6.1875 
Q 5.515625 13.8125 5.515625 26.8125 
Q 5.515625 40.234375 12.765625 48.109375 
Q 20.015625 56 32.328125 56 
Q 43.359375 56 49.78125 48.890625 
Q 56.203125 41.796875 56.203125 29.59375 
z
M 47.21875 32.234375 
Q 47.125 39.59375 43.09375 43.984375 
Q 39.0625 48.390625 32.421875 48.390625 
Q 24.90625 48.390625 20.390625 44.140625 
Q 15.875 39.890625 15.1875 32.171875 
z
" id="DejaVuSans-101"/>
     </defs>
     <g transform="translate(167.504219 276.268523)scale(0.1 -0.1)">
      <use xlink:href="#DejaVuSans-68"/>
      <use x="77.001953" xlink:href="#DejaVuSans-97"/>
      <use x="138.28125" xlink:href="#DejaVuSans-116"/>
      <use x="177.490234" xlink:href="#DejaVuSans-101"/>
     </g>
    </g>
   </g>
   <g id="matplotlib.axis_2">
    <g id="ytick_1">
     <g id="line2d_11">
      <defs>
       <path d="M 0 0 
L -3.5 0 
" id="m5c9291481a" style="stroke:#000000;stroke-width:0.8;"/>
      </defs>
      <g>
       <use style="stroke:#000000;stroke-width:0.8;" x="43.55" xlink:href="#m5c9291481a" y="210.806645"/>
      </g>
     </g>
     <g id="text_12">
      <!-- 0 -->
      <g transform="translate(30.1875 214.605864)scale(0.1 -0.1)">
       <use xlink:href="#DejaVuSans-48"/>
      </g>
     </g>
    </g>
    <g id="ytick_2">
     <g id="line2d_12">
      <g>
       <use style="stroke:#000000;stroke-width:0.8;" x="43.55" xlink:href="#m5c9291481a" y="187.24633"/>
      </g>
     </g>
     <g id="text_13">
      <!-- 5 -->
      <g transform="translate(30.1875 191.045549)scale(0.1 -0.1)">
       <use xlink:href="#DejaVuSans-53"/>
      </g>
     </g>
    </g>
    <g id="ytick_3">
     <g id="line2d_13">
      <g>
       <use style="stroke:#000000;stroke-width:0.8;" x="43.55" xlink:href="#m5c9291481a" y="163.686016"/>
      </g>
     </g>
     <g id="text_14">
      <!-- 10 -->
      <g transform="translate(23.825 167.485234)scale(0.1 -0.1)">
       <use xlink:href="#DejaVuSans-49"/>
       <use x="63.623047" xlink:href="#DejaVuSans-48"/>
      </g>
     </g>
    </g>
    <g id="ytick_4">
     <g id="line2d_14">
      <g>
       <use style="stroke:#000000;stroke-width:0.8;" x="43.55" xlink:href="#m5c9291481a" y="140.125701"/>
      </g>
     </g>
     <g id="text_15">
      <!-- 15 -->
      <g transform="translate(23.825 143.924919)scale(0.1 -0.1)">
       <use xlink:href="#DejaVuSans-49"/>
       <use x="63.623047" xlink:href="#DejaVuSans-53"/>
      </g>
     </g>
    </g>
    <g id="ytick_5">
     <g id="line2d_15">
      <g>
       <use style="stroke:#000000;stroke-width:0.8;" x="43.55" xlink:href="#m5c9291481a" y="116.565386"/>
      </g>
     </g>
     <g id="text_16">
      <!-- 20 -->
      <g transform="translate(23.825 120.364604)scale(0.1 -0.1)">
       <use xlink:href="#DejaVuSans-50"/>
       <use x="63.623047" xlink:href="#DejaVuSans-48"/>
      </g>
     </g>
    </g>
    <g id="ytick_6">
     <g id="line2d_16">
      <g>
       <use style="stroke:#000000;stroke-width:0.8;" x="43.55" xlink:href="#m5c9291481a" y="93.005071"/>
      </g>
     </g>
     <g id="text_17">
      <!-- 25 -->
      <g transform="translate(23.825 96.80429)scale(0.1 -0.1)">
       <use xlink:href="#DejaVuSans-50"/>
       <use x="63.623047" xlink:href="#DejaVuSans-53"/>
      </g>
     </g>
    </g>
    <g id="ytick_7">
     <g id="line2d_17">
      <g>
       <use style="stroke:#000000;stroke-width:0.8;" x="43.55" xlink:href="#m5c9291481a" y="69.444756"/>
      </g>
     </g>
     <g id="text_18">
      <!-- 30 -->
      <defs>
       <path d="M 40.578125 39.3125 
Q 47.65625 37.796875 51.625 33 
Q 55.609375 28.21875 55.609375 21.1875 
Q 55.609375 10.40625 48.1875 4.484375 
Q 40.765625 -1.421875 27.09375 -1.421875 
Q 22.515625 -1.421875 17.65625 -0.515625 
Q 12.796875 0.390625 7.625 2.203125 
L 7.625 11.71875 
Q 11.71875 9.328125 16.59375 8.109375 
Q 21.484375 6.890625 26.8125 6.890625 
Q 36.078125 6.890625 40.9375 10.546875 
Q 45.796875 14.203125 45.796875 21.1875 
Q 45.796875 27.640625 41.28125 31.265625 
Q 36.765625 34.90625 28.71875 34.90625 
L 20.21875 34.90625 
L 20.21875 43.015625 
L 29.109375 43.015625 
Q 36.375 43.015625 40.234375 45.921875 
Q 44.09375 48.828125 44.09375 54.296875 
Q 44.09375 59.90625 40.109375 62.90625 
Q 36.140625 65.921875 28.71875 65.921875 
Q 24.65625 65.921875 20.015625 65.03125 
Q 15.375 64.15625 9.8125 62.3125 
L 9.8125 71.09375 
Q 15.4375 72.65625 20.34375 73.4375 
Q 25.25 74.21875 29.59375 74.21875 
Q 40.828125 74.21875 47.359375 69.109375 
Q 53.90625 64.015625 53.90625 55.328125 
Q 53.90625 49.265625 50.4375 45.09375 
Q 46.96875 40.921875 40.578125 39.3125 
z
" id="DejaVuSans-51"/>
      </defs>
      <g transform="translate(23.825 73.243975)scale(0.1 -0.1)">
       <use xlink:href="#DejaVuSans-51"/>
       <use x="63.623047" xlink:href="#DejaVuSans-48"/>
      </g>
     </g>
    </g>
    <g id="ytick_8">
     <g id="line2d_18">
      <g>
       <use style="stroke:#000000;stroke-width:0.8;" x="43.55" xlink:href="#m5c9291481a" y="45.884441"/>
      </g>
     </g>
     <g id="text_19">
      <!-- 35 -->
      <g transform="translate(23.825 49.68366)scale(0.1 -0.1)">
       <use xlink:href="#DejaVuSans-51"/>
       <use x="63.623047" xlink:href="#DejaVuSans-53"/>
      </g>
     </g>
    </g>
    <g id="ytick_9">
     <g id="line2d_19">
      <g>
       <use style="stroke:#000000;stroke-width:0.8;" x="43.55" xlink:href="#m5c9291481a" y="22.324126"/>
      </g>
     </g>
     <g id="text_20">
      <!-- 40 -->
      <defs>
       <path d="M 37.796875 64.3125 
L 12.890625 25.390625 
L 37.796875 25.390625 
z
M 35.203125 72.90625 
L 47.609375 72.90625 
L 47.609375 25.390625 
L 58.015625 25.390625 
L 58.015625 17.1875 
L 47.609375 17.1875 
L 47.609375 0 
L 37.796875 0 
L 37.796875 17.1875 
L 4.890625 17.1875 
L 4.890625 26.703125 
z
" id="DejaVuSans-52"/>
      </defs>
      <g transform="translate(23.825 26.123345)scale(0.1 -0.1)">
       <use xlink:href="#DejaVuSans-52"/>
       <use x="63.623047" xlink:href="#DejaVuSans-48"/>
      </g>
     </g>
    </g>
    <g id="text_21">
     <!-- Students Registered -->
     <defs>
      <path d="M 53.515625 70.515625 
L 53.515625 60.890625 
Q 47.90625 63.578125 42.921875 64.890625 
Q 37.9375 66.21875 33.296875 66.21875 
Q 25.25 66.21875 20.875 63.09375 
Q 16.5 59.96875 16.5 54.203125 
Q 16.5 49.359375 19.40625 46.890625 
Q 22.3125 44.4375 30.421875 42.921875 
L 36.375 41.703125 
Q 47.40625 39.59375 52.65625 34.296875 
Q 57.90625 29 57.90625 20.125 
Q 57.90625 9.515625 50.796875 4.046875 
Q 43.703125 -1.421875 29.984375 -1.421875 
Q 24.8125 -1.421875 18.96875 -0.25 
Q 13.140625 0.921875 6.890625 3.21875 
L 6.890625 13.375 
Q 12.890625 10.015625 18.65625 8.296875 
Q 24.421875 6.59375 29.984375 6.59375 
Q 38.421875 6.59375 43.015625 9.90625 
Q 47.609375 13.234375 47.609375 19.390625 
Q 47.609375 24.75 44.3125 27.78125 
Q 41.015625 30.8125 33.5 32.328125 
L 27.484375 33.5 
Q 16.453125 35.6875 11.515625 40.375 
Q 6.59375 45.0625 6.59375 53.421875 
Q 6.59375 63.09375 13.40625 68.65625 
Q 20.21875 74.21875 32.171875 74.21875 
Q 37.3125 74.21875 42.625 73.28125 
Q 47.953125 72.359375 53.515625 70.515625 
z
" id="DejaVuSans-83"/>
      <path d="M 8.5 21.578125 
L 8.5 54.6875 
L 17.484375 54.6875 
L 17.484375 21.921875 
Q 17.484375 14.15625 20.5 10.265625 
Q 23.53125 6.390625 29.59375 6.390625 
Q 36.859375 6.390625 41.078125 11.03125 
Q 45.3125 15.671875 45.3125 23.6875 
L 45.3125 54.6875 
L 54.296875 54.6875 
L 54.296875 0 
L 45.3125 0 
L 45.3125 8.40625 
Q 42.046875 3.421875 37.71875 1 
Q 33.40625 -1.421875 27.6875 -1.421875 
Q 18.265625 -1.421875 13.375 4.4375 
Q 8.5 10.296875 8.5 21.578125 
z
M 31.109375 56 
z
" id="DejaVuSans-117"/>
      <path d="M 45.40625 46.390625 
L 45.40625 75.984375 
L 54.390625 75.984375 
L 54.390625 0 
L 45.40625 0 
L 45.40625 8.203125 
Q 42.578125 3.328125 38.25 0.953125 
Q 33.9375 -1.421875 27.875 -1.421875 
Q 17.96875 -1.421875 11.734375 6.484375 
Q 5.515625 14.40625 5.515625 27.296875 
Q 5.515625 40.1875 11.734375 48.09375 
Q 17.96875 56 27.875 56 
Q 33.9375 56 38.25 53.625 
Q 42.578125 51.265625 45.40625 46.390625 
z
M 14.796875 27.296875 
Q 14.796875 17.390625 18.875 11.75 
Q 22.953125 6.109375 30.078125 6.109375 
Q 37.203125 6.109375 41.296875 11.75 
Q 45.40625 17.390625 45.40625 27.296875 
Q 45.40625 37.203125 41.296875 42.84375 
Q 37.203125 48.484375 30.078125 48.484375 
Q 22.953125 48.484375 18.875 42.84375 
Q 14.796875 37.203125 14.796875 27.296875 
z
" id="DejaVuSans-100"/>
      <path d="M 54.890625 33.015625 
L 54.890625 0 
L 45.90625 0 
L 45.90625 32.71875 
Q 45.90625 40.484375 42.875 44.328125 
Q 39.84375 48.1875 33.796875 48.1875 
Q 26.515625 48.1875 22.3125 43.546875 
Q 18.109375 38.921875 18.109375 30.90625 
L 18.109375 0 
L 9.078125 0 
L 9.078125 54.6875 
L 18.109375 54.6875 
L 18.109375 46.1875 
Q 21.34375 51.125 25.703125 53.5625 
Q 30.078125 56 35.796875 56 
Q 45.21875 56 50.046875 50.171875 
Q 54.890625 44.34375 54.890625 33.015625 
z
" id="DejaVuSans-110"/>
      <path d="M 44.28125 53.078125 
L 44.28125 44.578125 
Q 40.484375 46.53125 36.375 47.5 
Q 32.28125 48.484375 27.875 48.484375 
Q 21.1875 48.484375 17.84375 46.4375 
Q 14.5 44.390625 14.5 40.28125 
Q 14.5 37.15625 16.890625 35.375 
Q 19.28125 33.59375 26.515625 31.984375 
L 29.59375 31.296875 
Q 39.15625 29.25 43.1875 25.515625 
Q 47.21875 21.78125 47.21875 15.09375 
Q 47.21875 7.46875 41.1875 3.015625 
Q 35.15625 -1.421875 24.609375 -1.421875 
Q 20.21875 -1.421875 15.453125 -0.5625 
Q 10.6875 0.296875 5.421875 2 
L 5.421875 11.28125 
Q 10.40625 8.6875 15.234375 7.390625 
Q 20.0625 6.109375 24.8125 6.109375 
Q 31.15625 6.109375 34.5625 8.28125 
Q 37.984375 10.453125 37.984375 14.40625 
Q 37.984375 18.0625 35.515625 20.015625 
Q 33.0625 21.96875 24.703125 23.78125 
L 21.578125 24.515625 
Q 13.234375 26.265625 9.515625 29.90625 
Q 5.8125 33.546875 5.8125 39.890625 
Q 5.8125 47.609375 11.28125 51.796875 
Q 16.75 56 26.8125 56 
Q 31.78125 56 36.171875 55.265625 
Q 40.578125 54.546875 44.28125 53.078125 
z
" id="DejaVuSans-115"/>
      <path id="DejaVuSans-32"/>
      <path d="M 44.390625 34.1875 
Q 47.5625 33.109375 50.5625 29.59375 
Q 53.5625 26.078125 56.59375 19.921875 
L 66.609375 0 
L 56 0 
L 46.6875 18.703125 
Q 43.0625 26.03125 39.671875 28.421875 
Q 36.28125 30.8125 30.421875 30.8125 
L 19.671875 30.8125 
L 19.671875 0 
L 9.8125 0 
L 9.8125 72.90625 
L 32.078125 72.90625 
Q 44.578125 72.90625 50.734375 67.671875 
Q 56.890625 62.453125 56.890625 51.90625 
Q 56.890625 45.015625 53.6875 40.46875 
Q 50.484375 35.9375 44.390625 34.1875 
z
M 19.671875 64.796875 
L 19.671875 38.921875 
L 32.078125 38.921875 
Q 39.203125 38.921875 42.84375 42.21875 
Q 46.484375 45.515625 46.484375 51.90625 
Q 46.484375 58.296875 42.84375 61.546875 
Q 39.203125 64.796875 32.078125 64.796875 
z
" id="DejaVuSans-82"/>
      <path d="M 45.40625 27.984375 
Q 45.40625 37.75 41.375 43.109375 
Q 37.359375 48.484375 30.078125 48.484375 
Q 22.859375 48.484375 18.828125 43.109375 
Q 14.796875 37.75 14.796875 27.984375 
Q 14.796875 18.265625 18.828125 12.890625 
Q 22.859375 7.515625 30.078125 7.515625 
Q 37.359375 7.515625 41.375 12.890625 
Q 45.40625 18.265625 45.40625 27.984375 
z
M 54.390625 6.78125 
Q 54.390625 -7.171875 48.1875 -13.984375 
Q 42 -20.796875 29.203125 -20.796875 
Q 24.46875 -20.796875 20.265625 -20.09375 
Q 16.0625 -19.390625 12.109375 -17.921875 
L 12.109375 -9.1875 
Q 16.0625 -11.328125 19.921875 -12.34375 
Q 23.78125 -13.375 27.78125 -13.375 
Q 36.625 -13.375 41.015625 -8.765625 
Q 45.40625 -4.15625 45.40625 5.171875 
L 45.40625 9.625 
Q 42.625 4.78125 38.28125 2.390625 
Q 33.9375 0 27.875 0 
Q 17.828125 0 11.671875 7.65625 
Q 5.515625 15.328125 5.515625 27.984375 
Q 5.515625 40.671875 11.671875 48.328125 
Q 17.828125 56 27.875 56 
Q 33.9375 56 38.28125 53.609375 
Q 42.625 51.21875 45.40625 46.390625 
L 45.40625 54.6875 
L 54.390625 54.6875 
z
" id="DejaVuSans-103"/>
      <path d="M 9.421875 54.6875 
L 18.40625 54.6875 
L 18.40625 0 
L 9.421875 0 
z
M 9.421875 75.984375 
L 18.40625 75.984375 
L 18.40625 64.59375 
L 9.421875 64.59375 
z
" id="DejaVuSans-105"/>
      <path d="M 41.109375 46.296875 
Q 39.59375 47.171875 37.8125 47.578125 
Q 36.03125 48 33.890625 48 
Q 26.265625 48 22.1875 43.046875 
Q 18.109375 38.09375 18.109375 28.8125 
L 18.109375 0 
L 9.078125 0 
L 9.078125 54.6875 
L 18.109375 54.6875 
L 18.109375 46.1875 
Q 20.953125 51.171875 25.484375 53.578125 
Q 30.03125 56 36.53125 56 
Q 37.453125 56 38.578125 55.875 
Q 39.703125 55.765625 41.0625 55.515625 
z
" id="DejaVuSans-114"/>
     </defs>
     <g transform="translate(17.745313 167.498979)rotate(-90)scale(0.1 -0.1)">
      <use xlink:href="#DejaVuSans-83"/>
      <use x="63.476562" xlink:href="#DejaVuSans-116"/>
      <use x="102.685547" xlink:href="#DejaVuSans-117"/>
      <use x="166.064453" xlink:href="#DejaVuSans-100"/>
      <use x="229.541016" xlink:href="#DejaVuSans-101"/>
      <use x="291.064453" xlink:href="#DejaVuSans-110"/>
      <use x="354.443359" xlink:href="#DejaVuSans-116"/>
      <use x="393.652344" xlink:href="#DejaVuSans-115"/>
      <use x="445.751953" xlink:href="#DejaVuSans-32"/>
      <use x="477.539062" xlink:href="#DejaVuSans-82"/>
      <use x="546.958984" xlink:href="#DejaVuSans-101"/>
      <use x="608.482422" xlink:href="#DejaVuSans-103"/>
      <use x="671.958984" xlink:href="#DejaVuSans-105"/>
      <use x="699.742188" xlink:href="#DejaVuSans-115"/>
      <use x="751.841797" xlink:href="#DejaVuSans-116"/>
      <use x="791.050781" xlink:href="#DejaVuSans-101"/>
      <use x="852.574219" xlink:href="#DejaVuSans-114"/>
      <use x="893.65625" xlink:href="#DejaVuSans-101"/>
      <use x="955.179688" xlink:href="#DejaVuSans-100"/>
     </g>
    </g>
   </g>
   <g id="line2d_20">
    <path clip-path="url(#p2bdcc88db1)" d="M 55.905 210.806645 
L 56.106471 210.806645 
L 56.106471 201.382519 
L 56.216341 201.382519 
L 57.003531 201.382519 
L 57.003531 196.670456 
L 57.095917 196.670456 
L 61.401517 196.670456 
L 61.401517 191.958393 
L 61.497122 191.958393 
L 65.034682 191.958393 
L 65.034682 177.822204 
L 65.130289 177.822204 
L 65.225881 177.822204 
L 65.225881 173.110142 
L 65.321505 173.110142 
L 65.417098 173.110142 
L 65.417098 154.26189 
L 65.512717 154.26189 
L 65.608314 154.26189 
L 65.608314 149.549827 
L 65.703921 149.549827 
L 65.799534 149.549827 
L 65.799534 140.125701 
L 65.89513 140.125701 
L 65.99078 140.125701 
L 65.99078 125.989512 
L 66.086385 125.989512 
L 69.432678 125.989512 
L 69.432678 121.277449 
L 69.528283 121.277449 
L 69.623873 121.277449 
L 69.623873 116.565386 
L 69.71948 116.565386 
L 70.197541 116.565386 
L 70.197541 111.853323 
L 70.293157 111.853323 
L 70.57998 111.853323 
L 70.57998 97.717134 
L 70.675575 97.717134 
L 70.771193 97.717134 
L 70.771193 93.005071 
L 70.866823 93.005071 
L 74.595538 93.005071 
L 74.595538 88.293008 
L 74.691167 88.293008 
L 74.786749 88.293008 
L 74.786749 83.580945 
L 74.882386 83.580945 
L 75.169212 83.580945 
L 75.169212 78.868882 
L 75.264811 78.868882 
L 75.742853 78.868882 
L 75.742853 74.156819 
L 75.838452 74.156819 
L 78.99358 74.156819 
L 78.99358 69.444756 
L 79.089154 69.444756 
L 87.980808 69.444756 
L 87.980808 45.884441 
L 88.076369 45.884441 
L 88.172006 45.884441 
L 88.172006 36.460315 
L 88.267586 36.460315 
L 88.363236 36.460315 
L 88.363236 31.748252 
L 88.458824 31.748252 
L 152.803553 31.748252 
L 152.803553 36.460315 
L 152.89918 36.460315 
L 152.994764 36.460315 
L 152.994764 31.748252 
L 153.090374 31.748252 
L 163.320515 31.748252 
L 163.320515 36.460315 
L 163.416157 36.460315 
L 163.511747 36.460315 
L 163.511747 31.748252 
L 163.60735 31.748252 
L 257.973286 31.748252 
L 257.973286 22.324126 
L 258.068858 22.324126 
L 303.005 22.324126 
L 303.005 22.324126 
" style="fill:none;stroke:#1b9e77;stroke-linecap:square;stroke-width:1.5;"/>
   </g>
   <g id="line2d_21">
    <path clip-path="url(#p2bdcc88db1)" d="M 95.820725 196.670456 
L 96.776771 196.670456 
L 96.776771 182.534267 
L 96.872539 182.534267 
L 96.967994 182.534267 
L 96.967994 177.822204 
L 97.063641 177.822204 
L 97.159207 177.822204 
L 97.159207 158.973953 
L 97.254855 158.973953 
L 97.54166 158.973953 
L 97.54166 144.837764 
L 97.63727 144.837764 
L 97.924088 144.837764 
L 97.924088 116.565386 
L 98.019716 116.565386 
L 98.30652 116.565386 
L 98.30652 107.14126 
L 98.402161 107.14126 
L 98.497763 107.14126 
L 98.497763 102.429197 
L 98.593392 102.429197 
L 98.688964 102.429197 
L 98.688964 97.717134 
L 98.784606 97.717134 
L 99.071431 97.717134 
L 99.071431 93.005071 
L 99.166994 93.005071 
L 101.748435 93.005071 
L 101.748435 74.156819 
L 101.844077 74.156819 
L 102.130884 74.156819 
L 102.130884 69.444756 
L 102.226477 69.444756 
L 102.513348 69.444756 
L 102.513348 60.02063 
L 102.608937 60.02063 
L 102.704566 60.02063 
L 102.704566 55.308567 
L 102.800151 55.308567 
L 103.087007 55.308567 
L 103.087007 50.596504 
L 103.182583 50.596504 
L 107.102561 50.596504 
L 107.102561 45.884441 
L 107.19815 45.884441 
L 107.293746 45.884441 
L 107.293746 41.172378 
L 107.389398 41.172378 
L 107.484973 41.172378 
L 107.484973 36.460315 
L 107.580605 36.460315 
L 108.058653 36.460315 
L 108.058653 31.748252 
L 108.154264 31.748252 
L 120.296552 31.748252 
L 120.296552 22.324126 
L 120.392185 22.324126 
L 143.816326 22.324126 
L 143.816326 27.036189 
L 143.911946 27.036189 
L 144.963631 27.036189 
L 144.963631 22.324126 
L 145.059243 22.324126 
L 161.599588 22.324126 
L 161.599588 27.036189 
L 161.6952 27.036189 
L 163.129321 27.036189 
L 163.129321 22.324126 
L 163.224941 22.324126 
L 286.847155 22.324126 
L 286.847155 27.036189 
L 286.942753 27.036189 
L 292.201237 27.036189 
L 292.201237 22.324126 
L 292.296835 22.324126 
L 303.005 22.324126 
L 303.005 22.324126 
" style="fill:none;stroke:#d95f02;stroke-linecap:square;stroke-width:1.5;"/>
   </g>
   <g id="line2d_22">
    <path clip-path="url(#p2bdcc88db1)" d="M 55.905 182.534267 
L 56.106471 182.534267 
L 56.106471 177.822204 
L 56.216341 177.822204 
L 57.095917 177.822204 
L 57.095917 173.110142 
L 60.155435 173.110142 
L 60.155435 168.398079 
L 60.445455 168.398079 
L 60.445455 163.686016 
L 60.541075 163.686016 
L 60.636661 163.686016 
L 60.636661 158.973953 
L 60.732287 158.973953 
L 61.21034 158.973953 
L 61.21034 144.837764 
L 61.305969 144.837764 
L 61.401517 144.837764 
L 61.401517 140.125701 
L 61.497122 140.125701 
L 65.225881 140.125701 
L 65.225881 130.701575 
L 65.321505 130.701575 
L 65.417098 130.701575 
L 65.417098 125.989512 
L 65.512717 125.989512 
L 65.608314 125.989512 
L 65.608314 130.701575 
L 65.703921 130.701575 
L 65.99078 130.701575 
L 65.99078 125.989512 
L 66.086385 125.989512 
L 66.181959 125.989512 
L 66.181959 116.565386 
L 66.277562 116.565386 
L 67.138071 116.565386 
L 67.138071 107.14126 
L 67.23369 107.14126 
L 69.241464 107.14126 
L 69.241464 102.429197 
L 69.337063 102.429197 
L 69.432678 102.429197 
L 69.432678 83.580945 
L 69.528283 83.580945 
L 69.623873 83.580945 
L 69.623873 74.156819 
L 69.71948 74.156819 
L 70.006329 74.156819 
L 70.006329 69.444756 
L 70.10194 69.444756 
L 70.197541 69.444756 
L 70.197541 64.732693 
L 70.293157 64.732693 
L 70.388764 64.732693 
L 70.388764 60.02063 
L 70.484384 60.02063 
L 70.57998 60.02063 
L 70.57998 45.884441 
L 70.675575 45.884441 
L 70.771193 45.884441 
L 70.771193 41.172378 
L 70.866823 41.172378 
L 70.962421 41.172378 
L 70.962421 36.460315 
L 71.058013 36.460315 
L 74.213095 36.460315 
L 74.213095 27.036189 
L 74.308719 27.036189 
L 74.404354 27.036189 
L 74.404354 22.324126 
L 74.499953 22.324126 
L 96.967994 22.324126 
L 96.967994 27.036189 
L 97.063641 27.036189 
L 97.159207 27.036189 
L 97.159207 22.324126 
L 97.254855 22.324126 
L 286.655907 22.324126 
L 286.655907 27.036189 
L 286.751523 27.036189 
L 286.847155 27.036189 
L 286.847155 22.324126 
L 286.942753 22.324126 
L 303.005 22.324126 
L 303.005 22.324126 
" style="fill:none;stroke:#7570b3;stroke-linecap:square;stroke-width:1.5;"/>
   </g>
   <g id="line2d_23">
    <path clip-path="url(#p2bdcc88db1)" d="M 55.905 201.382519 
L 61.019132 201.382519 
L 61.019132 196.670456 
L 61.114712 196.670456 
L 64.843472 196.670456 
L 64.843472 191.958393 
L 64.939045 191.958393 
L 65.034682 191.958393 
L 65.034682 187.24633 
L 65.130289 187.24633 
L 65.225881 187.24633 
L 65.225881 177.822204 
L 65.321505 177.822204 
L 65.417098 177.822204 
L 65.417098 173.110142 
L 65.512717 173.110142 
L 65.608314 173.110142 
L 65.608314 168.398079 
L 65.703921 168.398079 
L 65.799534 168.398079 
L 65.799534 163.686016 
L 65.89513 163.686016 
L 66.181959 163.686016 
L 66.181959 158.973953 
L 66.277562 158.973953 
L 69.432678 158.973953 
L 69.432678 149.549827 
L 69.528283 149.549827 
L 69.623873 149.549827 
L 69.623873 144.837764 
L 69.71948 144.837764 
L 70.388764 144.837764 
L 70.388764 140.125701 
L 70.484384 140.125701 
L 70.57998 140.125701 
L 70.57998 130.701575 
L 70.675575 130.701575 
L 87.980808 130.701575 
L 87.980808 125.989512 
L 88.076369 125.989512 
L 88.172006 125.989512 
L 88.172006 121.277449 
L 88.267586 121.277449 
L 88.363236 121.277449 
L 88.363236 116.565386 
L 88.458824 116.565386 
L 88.554433 116.565386 
L 88.554433 111.853323 
L 88.650032 111.853323 
L 88.74567 111.853323 
L 88.74567 102.429197 
L 88.841257 102.429197 
L 88.936891 102.429197 
L 88.936891 97.717134 
L 89.032474 97.717134 
L 92.378783 97.717134 
L 92.42659 83.580945 
L 92.47439 83.580945 
L 92.761227 83.580945 
L 92.761227 74.156819 
L 92.856832 74.156819 
L 93.334885 74.156819 
L 93.334885 69.444756 
L 93.430496 69.444756 
L 93.526104 69.444756 
L 93.526104 60.02063 
L 93.621719 60.02063 
L 93.71732 60.02063 
L 93.71732 36.460315 
L 93.812925 36.460315 
L 93.908509 36.460315 
L 93.908509 22.324126 
L 94.004205 22.324126 
L 96.776771 22.324126 
L 96.776771 27.036189 
L 96.872539 27.036189 
L 97.159207 27.036189 
L 97.159207 22.324126 
L 97.254855 22.324126 
L 143.433877 22.324126 
L 143.433877 27.036189 
L 143.529519 27.036189 
L 143.625135 27.036189 
L 143.625135 22.324126 
L 143.720705 22.324126 
L 152.038721 22.324126 
L 152.038721 27.036189 
L 152.134294 27.036189 
L 152.421104 27.036189 
L 152.421104 22.324126 
L 152.516761 22.324126 
L 152.803553 22.324126 
L 152.803553 27.036189 
L 152.89918 27.036189 
L 153.568464 27.036189 
L 153.568464 22.324126 
L 153.664048 22.324126 
L 303.005 22.324126 
L 303.005 22.324126 
" style="fill:none;stroke:#e7298a;stroke-linecap:square;stroke-width:1.5;"/>
   </g>
   <g id="line2d_24">
    <path clip-path="url(#p2bdcc88db1)" d="M 55.905 191.958393 
L 65.034682 191.958393 
L 65.034682 187.24633 
L 65.130289 187.24633 
L 65.99078 187.24633 
L 65.99078 182.534267 
L 66.086385 182.534267 
L 66.373203 182.534267 
L 66.373203 177.822204 
L 66.468823 177.822204 
L 70.006329 177.822204 
L 70.006329 173.110142 
L 70.10194 173.110142 
L 70.388764 173.110142 
L 70.388764 168.398079 
L 70.484384 168.398079 
L 74.213095 168.398079 
L 74.213095 163.686016 
L 74.308719 163.686016 
L 87.789563 163.686016 
L 87.789563 154.26189 
L 87.885152 154.26189 
L 87.980808 154.26189 
L 87.980808 144.837764 
L 88.076369 144.837764 
L 88.554433 144.837764 
L 88.554433 140.125701 
L 88.650032 140.125701 
L 89.319321 140.125701 
L 89.319321 135.413638 
L 89.414915 135.413638 
L 92.761227 135.413638 
L 92.761227 130.701575 
L 92.856832 130.701575 
L 93.143629 130.701575 
L 93.143629 121.277449 
L 93.239288 121.277449 
L 93.526104 121.277449 
L 93.526104 116.565386 
L 93.621719 116.565386 
L 94.673412 116.565386 
L 94.673412 111.853323 
L 94.76901 111.853323 
L 96.776771 111.853323 
L 96.776771 107.14126 
L 96.872539 107.14126 
L 97.159207 107.14126 
L 97.159207 102.429197 
L 97.254855 102.429197 
L 97.350423 102.429197 
L 97.350423 93.005071 
L 97.446042 93.005071 
L 97.732888 93.005071 
L 97.732888 88.293008 
L 97.828521 88.293008 
L 97.924088 88.293008 
L 97.97191 74.156819 
L 98.019716 74.156819 
L 98.11533 74.156819 
L 98.11533 64.732693 
L 98.210951 64.732693 
L 98.88017 64.732693 
L 98.88017 69.444756 
L 98.975822 69.444756 
L 101.748435 69.444756 
L 101.748435 60.02063 
L 101.844077 60.02063 
L 101.9397 60.02063 
L 101.9397 55.308567 
L 102.035308 55.308567 
L 102.322108 55.308567 
L 102.322108 50.596504 
L 102.41772 50.596504 
L 102.513348 50.596504 
L 102.513348 41.172378 
L 102.608937 41.172378 
L 102.704566 41.172378 
L 102.704566 36.460315 
L 102.800151 36.460315 
L 103.087007 36.460315 
L 103.087007 31.748252 
L 103.182583 31.748252 
L 260.076661 31.748252 
L 260.076661 36.460315 
L 260.172248 36.460315 
L 264.474643 36.460315 
L 264.474643 31.748252 
L 264.570278 31.748252 
L 303.005 31.748252 
L 303.005 31.748252 
" style="fill:none;stroke:#66a61e;stroke-linecap:square;stroke-width:1.5;"/>
   </g>
   <g id="line2d_25">
    <path clip-path="url(#p2bdcc88db1)" d="M 55.905 196.670456 
L 61.019132 196.670456 
L 61.019132 191.958393 
L 61.114712 191.958393 
L 64.843472 191.958393 
L 64.843472 187.24633 
L 64.939045 187.24633 
L 65.034682 187.24633 
L 65.034682 182.534267 
L 65.130289 182.534267 
L 65.417098 182.534267 
L 65.417098 177.822204 
L 65.512717 177.822204 
L 65.608314 177.822204 
L 65.608314 173.110142 
L 65.703921 173.110142 
L 65.799534 173.110142 
L 65.799534 163.686016 
L 65.89513 163.686016 
L 65.99078 163.686016 
L 65.99078 158.973953 
L 66.086385 158.973953 
L 66.181959 158.973953 
L 66.181959 154.26189 
L 66.277562 154.26189 
L 69.241464 154.26189 
L 69.241464 149.549827 
L 69.337063 149.549827 
L 69.432678 149.549827 
L 69.432678 140.125701 
L 69.528283 140.125701 
L 69.815081 140.125701 
L 69.815081 135.413638 
L 69.910714 135.413638 
L 70.006329 135.413638 
L 70.006329 125.989512 
L 70.10194 125.989512 
L 70.388764 125.989512 
L 70.388764 121.277449 
L 70.484384 121.277449 
L 70.771193 121.277449 
L 70.771193 116.565386 
L 70.866823 116.565386 
L 70.962421 116.565386 
L 70.962421 111.853323 
L 71.058013 111.853323 
L 74.404354 111.853323 
L 74.404354 107.14126 
L 74.499953 107.14126 
L 75.169212 107.14126 
L 75.169212 102.429197 
L 75.264811 102.429197 
L 80.140839 102.429197 
L 80.140839 97.717134 
L 80.236468 97.717134 
L 87.789563 97.717134 
L 87.789563 93.005071 
L 87.885152 93.005071 
L 88.363236 93.005071 
L 88.363236 78.868882 
L 88.458824 78.868882 
L 88.554433 78.868882 
L 88.554433 69.444756 
L 88.650032 69.444756 
L 88.74567 69.444756 
L 88.74567 60.02063 
L 88.841257 60.02063 
L 89.319321 60.02063 
L 89.319321 55.308567 
L 89.414915 55.308567 
L 91.996356 55.308567 
L 91.996356 50.596504 
L 92.091959 50.596504 
L 92.569996 50.596504 
L 92.569996 45.884441 
L 92.665634 45.884441 
L 92.761227 45.884441 
L 92.761227 41.172378 
L 92.856832 41.172378 
L 92.952432 41.172378 
L 92.952432 36.460315 
L 93.048035 36.460315 
L 93.526104 36.460315 
L 93.526104 31.748252 
L 93.621719 31.748252 
L 303.005 31.748252 
L 303.005 31.748252 
" style="fill:none;stroke:#e6ab02;stroke-linecap:square;stroke-width:1.5;"/>
   </g>
   <g id="line2d_26">
    <path clip-path="url(#p2bdcc88db1)" d="M 55.905 201.382519 
L 61.401517 201.382519 
L 61.401517 196.670456 
L 61.497122 196.670456 
L 65.034682 196.670456 
L 65.034682 191.958393 
L 65.130289 191.958393 
L 65.799534 191.958393 
L 65.799534 187.24633 
L 65.89513 187.24633 
L 69.815081 187.24633 
L 69.815081 177.822204 
L 69.910714 177.822204 
L 70.197541 177.822204 
L 70.197541 173.110142 
L 70.293157 173.110142 
L 70.57998 173.110142 
L 70.57998 168.398079 
L 70.675575 168.398079 
L 70.771193 168.398079 
L 70.771193 163.686016 
L 70.866823 163.686016 
L 75.169212 163.686016 
L 75.169212 158.973953 
L 75.264811 158.973953 
L 79.567214 158.973953 
L 79.567214 154.26189 
L 79.662836 154.26189 
L 87.980808 154.26189 
L 87.980808 144.837764 
L 88.076369 144.837764 
L 88.363236 144.837764 
L 88.363236 140.125701 
L 88.458824 140.125701 
L 89.319321 140.125701 
L 89.319321 135.413638 
L 89.414915 135.413638 
L 92.378783 135.413638 
L 92.378783 130.701575 
L 92.47439 130.701575 
L 93.334885 130.701575 
L 93.334885 125.989512 
L 93.430496 125.989512 
L 93.526104 125.989512 
L 93.526104 121.277449 
L 93.621719 121.277449 
L 93.71732 121.277449 
L 93.765118 107.14126 
L 93.812925 107.14126 
L 96.967994 107.14126 
L 96.967994 102.429197 
L 97.063641 102.429197 
L 97.159207 102.429197 
L 97.159207 93.005071 
L 97.254855 93.005071 
L 97.350423 93.005071 
L 97.350423 88.293008 
L 97.446042 88.293008 
L 97.54166 88.293008 
L 97.589462 74.156819 
L 97.63727 74.156819 
L 97.924088 74.156819 
L 97.924088 60.02063 
L 98.019716 60.02063 
L 98.11533 60.02063 
L 98.11533 50.596504 
L 98.210951 50.596504 
L 98.30652 50.596504 
L 98.30652 31.748252 
L 98.402161 31.748252 
L 98.497763 31.748252 
L 98.497763 27.036189 
L 98.593392 27.036189 
L 99.453859 27.036189 
L 99.453859 22.324126 
L 99.549472 22.324126 
L 152.038721 22.324126 
L 152.038721 27.036189 
L 152.134294 27.036189 
L 152.229937 27.036189 
L 152.229937 22.324126 
L 152.325541 22.324126 
L 152.612351 22.324126 
L 152.612351 27.036189 
L 152.707982 27.036189 
L 153.185982 27.036189 
L 153.185982 31.748252 
L 153.281629 31.748252 
L 153.568464 31.748252 
L 153.568464 36.460315 
L 153.664048 36.460315 
L 158.731304 36.460315 
L 158.731304 41.172378 
L 158.82691 41.172378 
L 170.013165 41.172378 
L 170.013165 36.460315 
L 170.108777 36.460315 
L 191.238295 36.460315 
L 191.238295 41.172378 
L 191.333932 41.172378 
L 198.695803 41.172378 
L 198.695803 36.460315 
L 198.791406 36.460315 
L 222.024383 36.460315 
L 222.024383 31.748252 
L 222.119986 31.748252 
L 225.083815 31.748252 
L 225.083815 27.036189 
L 225.179429 27.036189 
L 230.437934 27.036189 
L 230.437934 22.324126 
L 257.973286 22.324126 
L 257.973286 31.748252 
L 258.068858 31.748252 
L 258.546892 31.748252 
L 258.546892 36.460315 
L 258.642546 36.460315 
L 291.818789 36.460315 
L 291.818789 41.172378 
L 291.914432 41.172378 
L 298.702632 41.172378 
L 298.702632 36.460315 
L 298.798228 36.460315 
L 303.005 36.460315 
L 303.005 36.460315 
" style="fill:none;stroke:#a6761d;stroke-linecap:square;stroke-width:1.5;"/>
   </g>
   <g id="line2d_27">
    <path clip-path="url(#p2bdcc88db1)" d="M 55.905 201.382519 
L 65.225881 201.382519 
L 65.225881 196.670456 
L 65.321505 196.670456 
L 65.799534 196.670456 
L 65.799534 191.958393 
L 65.89513 191.958393 
L 70.006329 191.958393 
L 70.006329 187.24633 
L 70.10194 187.24633 
L 70.388764 187.24633 
L 70.388764 191.958393 
L 70.484384 191.958393 
L 70.57998 191.958393 
L 70.57998 182.534267 
L 70.675575 182.534267 
L 87.980808 182.534267 
L 87.980808 177.822204 
L 88.076369 177.822204 
L 88.363236 177.822204 
L 88.363236 173.110142 
L 88.458824 173.110142 
L 88.74567 173.110142 
L 88.74567 168.398079 
L 88.841257 168.398079 
L 88.936891 168.398079 
L 88.936891 163.686016 
L 89.032474 163.686016 
L 89.892948 163.686016 
L 89.892948 158.973953 
L 89.988594 158.973953 
L 92.952432 158.973953 
L 92.952432 154.26189 
L 93.048035 154.26189 
L 93.526104 154.26189 
L 93.526104 149.549827 
L 93.621719 149.549827 
L 93.71732 149.549827 
L 93.71732 144.837764 
L 93.812925 144.837764 
L 96.967994 144.837764 
L 96.967994 135.413638 
L 97.063641 135.413638 
L 97.159207 135.413638 
L 97.159207 130.701575 
L 97.254855 130.701575 
L 97.350423 130.701575 
L 97.398231 116.565386 
L 97.446042 116.565386 
L 98.11533 116.565386 
L 98.11533 111.853323 
L 98.210951 111.853323 
L 98.30652 111.853323 
L 98.30652 107.14126 
L 98.402161 107.14126 
L 98.497763 107.14126 
L 98.497763 111.853323 
L 98.593392 111.853323 
L 98.688964 111.853323 
L 98.688964 107.14126 
L 98.784606 107.14126 
L 98.88017 107.14126 
L 98.88017 102.429197 
L 98.975822 102.429197 
L 101.174813 102.429197 
L 101.174813 107.14126 
L 101.270394 107.14126 
L 101.748435 107.14126 
L 101.748435 93.005071 
L 101.844077 93.005071 
L 102.130884 93.005071 
L 102.130884 88.293008 
L 102.226477 88.293008 
L 102.513348 88.293008 
L 102.513348 69.444756 
L 102.608937 69.444756 
L 102.704566 69.444756 
L 102.704566 64.732693 
L 102.800151 64.732693 
L 106.911318 64.732693 
L 106.911318 60.02063 
L 107.00692 60.02063 
L 122.399985 60.02063 
L 122.399985 55.308567 
L 122.495593 55.308567 
L 125.459459 55.308567 
L 125.459459 50.596504 
L 125.555041 50.596504 
L 125.650654 50.596504 
L 125.650654 55.308567 
L 125.746284 55.308567 
L 126.033091 55.308567 
L 126.033091 50.596504 
L 126.128722 50.596504 
L 130.622345 50.596504 
L 130.622345 45.884441 
L 130.717941 45.884441 
L 138.462222 45.884441 
L 138.462222 50.596504 
L 138.55784 50.596504 
L 143.816326 50.596504 
L 143.816326 45.884441 
L 143.911946 45.884441 
L 152.038721 45.884441 
L 152.038721 50.596504 
L 152.134294 50.596504 
L 152.421104 50.596504 
L 152.421104 55.308567 
L 152.516761 55.308567 
L 152.994764 55.308567 
L 152.994764 60.02063 
L 153.090374 60.02063 
L 158.348867 60.02063 
L 158.348867 64.732693 
L 158.444514 64.732693 
L 166.571213 64.732693 
L 166.571213 69.444756 
L 166.666849 69.444756 
L 185.693021 69.444756 
L 185.693021 74.156819 
L 185.788609 74.156819 
L 272.505808 74.156819 
L 272.505808 69.444756 
L 272.601456 69.444756 
L 277.668703 69.444756 
L 277.668703 74.156819 
L 277.764337 74.156819 
L 303.005 74.156819 
L 303.005 74.156819 
" style="fill:none;stroke:#666666;stroke-linecap:square;stroke-width:1.5;"/>
   </g>
   <g id="line2d_28">
    <path clip-path="url(#p2bdcc88db1)" d="M 55.905 206.094582 
L 65.225881 206.094582 
L 65.225881 201.382519 
L 65.321505 201.382519 
L 70.388764 201.382519 
L 70.388764 191.958393 
L 70.484384 191.958393 
L 87.789563 191.958393 
L 87.789563 187.24633 
L 87.885152 187.24633 
L 88.172006 187.24633 
L 88.172006 182.534267 
L 88.267586 182.534267 
L 88.74567 182.534267 
L 88.74567 177.822204 
L 88.841257 177.822204 
L 92.378783 177.822204 
L 92.378783 173.110142 
L 92.47439 173.110142 
L 92.569996 173.110142 
L 92.569996 163.686016 
L 92.665634 163.686016 
L 92.761227 163.686016 
L 92.761227 158.973953 
L 92.856832 158.973953 
L 93.143629 158.973953 
L 93.143629 154.26189 
L 93.239288 154.26189 
L 93.334885 154.26189 
L 93.334885 144.837764 
L 93.430496 144.837764 
L 93.526104 144.837764 
L 93.526104 135.413638 
L 93.621719 135.413638 
L 94.290989 135.413638 
L 94.290989 130.701575 
L 94.386586 130.701575 
L 94.673412 130.701575 
L 94.673412 125.989512 
L 94.76901 125.989512 
L 94.864594 125.989512 
L 94.864594 130.701575 
L 94.960253 130.701575 
L 96.585573 130.701575 
L 96.585573 135.413638 
L 96.681206 135.413638 
L 96.776771 135.413638 
L 96.776771 140.125701 
L 96.872539 140.125701 
L 96.967994 140.125701 
L 96.967994 135.413638 
L 97.063641 135.413638 
L 97.159207 135.413638 
L 97.159207 140.125701 
L 97.254855 140.125701 
L 97.350423 140.125701 
L 97.350423 135.413638 
L 97.446042 135.413638 
L 97.54166 135.413638 
L 97.54166 130.701575 
L 97.63727 130.701575 
L 97.924088 130.701575 
L 97.924088 135.413638 
L 98.019716 135.413638 
L 102.322108 135.413638 
L 102.322108 130.701575 
L 102.41772 130.701575 
L 102.704566 130.701575 
L 102.704566 125.989512 
L 102.800151 125.989512 
L 107.102561 125.989512 
L 107.102561 121.277449 
L 107.19815 121.277449 
L 108.441069 121.277449 
L 108.441069 116.565386 
L 108.536661 116.565386 
L 120.679002 116.565386 
L 120.679002 111.853323 
L 120.774627 111.853323 
L 120.870218 111.853323 
L 120.870218 107.14126 
L 120.965833 107.14126 
L 121.635069 107.14126 
L 121.635069 102.429197 
L 121.730709 102.429197 
L 130.622345 102.429197 
L 130.622345 97.717134 
L 130.717941 97.717134 
L 131.195948 97.717134 
L 131.195948 93.005071 
L 131.291595 93.005071 
L 140.756862 93.005071 
L 140.756862 88.293008 
L 140.852445 88.293008 
L 144.963631 88.293008 
L 144.963631 93.005071 
L 145.059243 93.005071 
L 152.421104 93.005071 
L 152.421104 97.717134 
L 152.516761 97.717134 
L 185.310576 97.717134 
L 185.310576 93.005071 
L 185.406199 93.005071 
L 217.626376 93.005071 
L 217.626376 88.293008 
L 217.721964 88.293008 
L 221.259499 88.293008 
L 221.259499 83.580945 
L 221.355078 83.580945 
L 234.453495 83.580945 
L 234.453495 78.868882 
L 234.549118 78.868882 
L 262.371306 78.868882 
L 262.371306 83.580945 
L 262.466912 83.580945 
L 262.562475 83.580945 
L 262.562475 78.868882 
L 262.658083 78.868882 
L 300.997235 78.868882 
L 300.997235 83.580945 
L 301.092826 83.580945 
L 303.005 83.580945 
L 303.005 83.580945 
" style="fill:none;stroke:#1b9e77;stroke-dasharray:4.5,1.5;stroke-dashoffset:0;stroke-width:1.5;"/>
   </g>
   <g id="line2d_29">
    <path clip-path="url(#p2bdcc88db1)" d="M 55.905 196.670456 
L 60.155435 196.670456 
L 60.155435 191.958393 
L 65.799534 191.958393 
L 65.799534 187.24633 
L 65.89513 187.24633 
L 69.623873 187.24633 
L 69.623873 182.534267 
L 69.71948 182.534267 
L 70.006329 182.534267 
L 70.006329 177.822204 
L 70.10194 177.822204 
L 70.57998 177.822204 
L 70.57998 173.110142 
L 70.675575 173.110142 
L 70.771193 173.110142 
L 70.771193 168.398079 
L 70.866823 168.398079 
L 71.918507 168.398079 
L 71.918507 163.686016 
L 72.014134 163.686016 
L 88.363236 163.686016 
L 88.363236 154.26189 
L 88.458824 154.26189 
L 92.761227 154.26189 
L 92.761227 149.549827 
L 92.856832 149.549827 
L 93.71732 149.549827 
L 93.71732 144.837764 
L 93.812925 144.837764 
L 94.290989 144.837764 
L 94.290989 140.125701 
L 94.386586 140.125701 
L 97.159207 140.125701 
L 97.159207 135.413638 
L 97.254855 135.413638 
L 97.350423 135.413638 
L 97.350423 125.989512 
L 97.446042 125.989512 
L 97.924088 125.989512 
L 97.924088 116.565386 
L 98.019716 116.565386 
L 102.130884 116.565386 
L 102.130884 111.853323 
L 102.226477 111.853323 
L 102.704566 111.853323 
L 102.704566 107.14126 
L 102.800151 107.14126 
L 103.27818 107.14126 
L 103.27818 102.429197 
L 103.373811 102.429197 
L 108.058653 102.429197 
L 108.058653 97.717134 
L 108.154264 97.717134 
L 121.252661 97.717134 
L 121.252661 93.005071 
L 121.348283 93.005071 
L 125.650654 93.005071 
L 125.650654 88.293008 
L 125.746284 88.293008 
L 130.622345 88.293008 
L 130.622345 93.005071 
L 130.717941 93.005071 
L 152.612351 93.005071 
L 152.612351 88.293008 
L 152.707982 88.293008 
L 152.803553 88.293008 
L 152.803553 93.005071 
L 152.89918 93.005071 
L 157.584013 93.005071 
L 157.584013 88.293008 
L 157.679644 88.293008 
L 191.238295 88.293008 
L 191.238295 83.580945 
L 191.333932 83.580945 
L 221.833126 83.580945 
L 221.833126 78.868882 
L 221.928734 78.868882 
L 231.585246 78.868882 
L 231.585246 83.580945 
L 231.680845 83.580945 
L 292.201237 83.580945 
L 292.201237 88.293008 
L 292.296835 88.293008 
L 294.495862 88.293008 
L 294.495862 93.005071 
L 294.591469 93.005071 
L 303.005 93.005071 
L 303.005 93.005071 
" style="fill:none;stroke:#d95f02;stroke-dasharray:4.5,1.5;stroke-dashoffset:0;stroke-width:1.5;"/>
   </g>
   <g id="line2d_30">
    <path clip-path="url(#p2bdcc88db1)" d="M 55.905 210.806645 
L 61.59273 210.806645 
L 61.59273 206.094582 
L 61.688344 206.094582 
L 62.357638 206.094582 
L 62.357638 201.382519 
L 62.453237 201.382519 
L 74.404354 201.382519 
L 74.404354 196.670456 
L 74.499953 196.670456 
L 87.789563 196.670456 
L 87.789563 191.958393 
L 87.885152 191.958393 
L 89.12808 191.958393 
L 89.12808 182.534267 
L 89.22368 182.534267 
L 92.761227 182.534267 
L 92.761227 177.822204 
L 92.856832 177.822204 
L 92.952432 177.822204 
L 92.952432 173.110142 
L 93.048035 173.110142 
L 93.526104 173.110142 
L 93.526104 163.686016 
L 93.621719 163.686016 
L 93.71732 163.686016 
L 93.71732 158.973953 
L 93.812925 158.973953 
L 94.864594 158.973953 
L 94.864594 154.26189 
L 94.960253 154.26189 
L 97.159207 154.26189 
L 97.159207 158.973953 
L 97.254855 158.973953 
L 97.54166 158.973953 
L 97.54166 154.26189 
L 97.63727 154.26189 
L 97.732888 154.26189 
L 97.732888 149.549827 
L 97.828521 149.549827 
L 98.11533 149.549827 
L 98.11533 144.837764 
L 98.210951 144.837764 
L 98.30652 144.837764 
L 98.30652 149.549827 
L 98.402161 149.549827 
L 98.497763 149.549827 
L 98.497763 144.837764 
L 98.593392 144.837764 
L 101.748435 144.837764 
L 101.748435 140.125701 
L 101.844077 140.125701 
L 107.867433 140.125701 
L 107.867433 135.413638 
L 107.963028 135.413638 
L 120.679002 135.413638 
L 120.679002 130.701575 
L 120.774627 130.701575 
L 138.844667 130.701575 
L 138.844667 125.989512 
L 138.940319 125.989512 
L 161.599588 125.989512 
L 161.599588 121.277449 
L 161.6952 121.277449 
L 185.693021 121.277449 
L 185.693021 116.565386 
L 185.788609 116.565386 
L 230.437934 116.565386 
L 230.437934 111.853323 
L 248.794814 111.853323 
L 248.794814 107.14126 
L 248.890444 107.14126 
L 286.655907 107.14126 
L 286.655907 102.429197 
L 286.751523 102.429197 
L 292.010003 102.429197 
L 292.010003 97.717134 
L 292.105616 97.717134 
L 299.085042 97.717134 
L 299.085042 93.005071 
L 299.180677 93.005071 
L 303.005 93.005071 
L 303.005 93.005071 
" style="fill:none;stroke:#7570b3;stroke-dasharray:4.5,1.5;stroke-dashoffset:0;stroke-width:1.5;"/>
   </g>
   <g id="line2d_31">
    <path clip-path="url(#p2bdcc88db1)" d="M 55.905 210.806645 
L 60.828062 210.806645 
L 60.828062 206.094582 
L 60.923507 206.094582 
L 61.21034 206.094582 
L 61.21034 201.382519 
L 61.305969 201.382519 
L 65.608314 201.382519 
L 65.608314 196.670456 
L 65.703921 196.670456 
L 70.57998 196.670456 
L 70.57998 191.958393 
L 70.675575 191.958393 
L 73.63947 191.958393 
L 73.63947 187.24633 
L 73.735107 187.24633 
L 74.595538 187.24633 
L 74.595538 182.534267 
L 74.691167 182.534267 
L 74.97799 182.534267 
L 74.97799 177.822204 
L 75.073581 177.822204 
L 87.789563 177.822204 
L 87.789563 168.398079 
L 87.885152 168.398079 
L 88.172006 168.398079 
L 88.172006 163.686016 
L 88.267586 163.686016 
L 88.363236 163.686016 
L 88.363236 158.973953 
L 88.458824 158.973953 
L 88.554433 158.973953 
L 88.554433 154.26189 
L 88.650032 154.26189 
L 88.74567 154.26189 
L 88.74567 144.837764 
L 88.841257 144.837764 
L 88.936891 144.837764 
L 88.936891 140.125701 
L 89.032474 140.125701 
L 89.319321 140.125701 
L 89.319321 135.413638 
L 89.414915 135.413638 
L 89.701773 135.413638 
L 89.701773 130.701575 
L 89.797366 130.701575 
L 90.275374 130.701575 
L 90.275374 125.989512 
L 90.371029 125.989512 
L 92.378783 125.989512 
L 92.378783 121.277449 
L 92.47439 121.277449 
L 92.569996 121.277449 
L 92.569996 116.565386 
L 92.665634 116.565386 
L 92.761227 116.565386 
L 92.761227 102.429197 
L 92.856832 102.429197 
L 92.952432 102.429197 
L 92.952432 97.717134 
L 93.048035 97.717134 
L 93.143629 97.717134 
L 93.143629 93.005071 
L 93.239288 93.005071 
L 94.864594 93.005071 
L 94.864594 97.717134 
L 94.960253 97.717134 
L 97.350423 97.717134 
L 97.350423 93.005071 
L 97.446042 93.005071 
L 97.54166 93.005071 
L 97.54166 97.717134 
L 97.63727 97.717134 
L 97.732888 97.717134 
L 97.732888 93.005071 
L 97.828521 93.005071 
L 103.087007 93.005071 
L 103.087007 97.717134 
L 103.182583 97.717134 
L 103.27818 97.717134 
L 103.27818 93.005071 
L 103.373811 93.005071 
L 286.273502 93.005071 
L 286.273502 97.717134 
L 286.369072 97.717134 
L 300.997235 97.717134 
L 300.997235 93.005071 
L 301.092826 93.005071 
L 303.005 93.005071 
L 303.005 93.005071 
" style="fill:none;stroke:#e7298a;stroke-dasharray:4.5,1.5;stroke-dashoffset:0;stroke-width:1.5;"/>
   </g>
   <g id="line2d_32">
    <path clip-path="url(#p2bdcc88db1)" d="M 141.760736 210.806645 
L 143.433877 210.806645 
L 143.433877 206.094582 
L 143.529519 206.094582 
L 149.170446 206.094582 
L 149.170446 201.382519 
L 149.266027 201.382519 
L 152.038721 201.382519 
L 152.038721 182.534267 
L 152.134294 182.534267 
L 152.421104 182.534267 
L 152.421104 173.110142 
L 152.516761 173.110142 
L 152.803553 173.110142 
L 152.803553 158.973953 
L 152.89918 158.973953 
L 153.185982 158.973953 
L 153.185982 154.26189 
L 153.281629 154.26189 
L 157.010375 154.26189 
L 157.010375 149.549827 
L 157.105982 149.549827 
L 157.966452 149.549827 
L 157.966452 144.837764 
L 158.062054 144.837764 
L 158.348867 144.837764 
L 158.348867 140.125701 
L 158.444514 140.125701 
L 158.731304 140.125701 
L 158.731304 135.413638 
L 158.82691 135.413638 
L 158.922528 135.413638 
L 158.922528 130.701575 
L 159.018117 130.701575 
L 161.599588 130.701575 
L 161.599588 125.989512 
L 161.6952 125.989512 
L 163.320515 125.989512 
L 163.320515 121.277449 
L 163.416157 121.277449 
L 166.571213 121.277449 
L 166.571213 116.565386 
L 166.666849 116.565386 
L 225.083815 116.565386 
L 225.083815 121.277449 
L 225.179429 121.277449 
L 226.039893 121.277449 
L 226.039893 116.565386 
L 226.135538 116.565386 
L 258.164494 116.565386 
L 258.164494 111.853323 
L 258.260116 111.853323 
L 258.546892 111.853323 
L 258.546892 107.14126 
L 258.642546 107.14126 
L 260.076661 107.14126 
L 260.076661 102.429197 
L 260.172248 102.429197 
L 286.082246 102.429197 
L 286.082246 97.717134 
L 286.177863 97.717134 
L 303.005 97.717134 
L 303.005 97.717134 
" style="fill:none;stroke:#66a61e;stroke-dasharray:4.5,1.5;stroke-dashoffset:0;stroke-width:1.5;"/>
   </g>
   <g id="line2d_33">
    <path clip-path="url(#p2bdcc88db1)" d="M 55.905 206.094582 
L 64.843472 206.094582 
L 64.843472 201.382519 
L 64.939045 201.382519 
L 65.034682 201.382519 
L 65.034682 196.670456 
L 65.130289 196.670456 
L 65.799534 196.670456 
L 65.799534 187.24633 
L 65.89513 187.24633 
L 69.432678 187.24633 
L 69.432678 182.534267 
L 69.528283 182.534267 
L 70.388764 182.534267 
L 70.388764 177.822204 
L 70.484384 177.822204 
L 70.57998 177.822204 
L 70.57998 173.110142 
L 70.675575 173.110142 
L 70.771193 173.110142 
L 70.771193 168.398079 
L 70.866823 168.398079 
L 88.172006 168.398079 
L 88.172006 163.686016 
L 88.267586 163.686016 
L 88.363236 163.686016 
L 88.363236 158.973953 
L 88.458824 158.973953 
L 88.554433 158.973953 
L 88.554433 149.549827 
L 88.650032 149.549827 
L 93.334885 149.549827 
L 93.334885 144.837764 
L 93.430496 144.837764 
L 93.526104 144.837764 
L 93.526104 140.125701 
L 93.621719 140.125701 
L 96.776771 140.125701 
L 96.776771 144.837764 
L 96.872539 144.837764 
L 97.350423 144.837764 
L 97.350423 135.413638 
L 97.446042 135.413638 
L 97.54166 135.413638 
L 97.54166 140.125701 
L 97.63727 140.125701 
L 97.732888 140.125701 
L 97.732888 135.413638 
L 97.828521 135.413638 
L 98.11533 135.413638 
L 98.11533 125.989512 
L 98.210951 125.989512 
L 98.30652 125.989512 
L 98.30652 121.277449 
L 98.402161 121.277449 
L 107.293746 121.277449 
L 107.293746 116.565386 
L 107.389398 116.565386 
L 107.867433 116.565386 
L 107.867433 111.853323 
L 107.963028 111.853323 
L 117.045852 111.853323 
L 117.045852 107.14126 
L 117.141462 107.14126 
L 134.446659 107.14126 
L 134.446659 102.429197 
L 134.542282 102.429197 
L 135.211529 102.429197 
L 135.211529 97.717134 
L 135.307183 97.717134 
L 139.035912 97.717134 
L 139.035912 93.005071 
L 139.131526 93.005071 
L 154.142115 93.005071 
L 154.142115 88.293008 
L 154.237689 88.293008 
L 268.107776 88.293008 
L 268.107776 93.005071 
L 268.20343 93.005071 
L 272.505808 93.005071 
L 272.505808 97.717134 
L 272.601456 97.717134 
L 303.005 97.717134 
L 303.005 97.717134 
" style="fill:none;stroke:#e6ab02;stroke-dasharray:4.5,1.5;stroke-dashoffset:0;stroke-width:1.5;"/>
   </g>
   <g id="line2d_34">
    <path clip-path="url(#p2bdcc88db1)" d="M 55.905 206.094582 
L 65.417098 206.094582 
L 65.417098 196.670456 
L 65.512717 196.670456 
L 69.623873 196.670456 
L 69.623873 187.24633 
L 69.71948 187.24633 
L 69.815081 187.24633 
L 69.815081 182.534267 
L 69.910714 182.534267 
L 70.57998 182.534267 
L 70.57998 177.822204 
L 70.675575 177.822204 
L 70.771193 177.822204 
L 70.771193 173.110142 
L 70.866823 173.110142 
L 88.554433 173.110142 
L 88.554433 168.398079 
L 88.650032 168.398079 
L 88.74567 168.398079 
L 88.74567 163.686016 
L 88.841257 163.686016 
L 88.936891 163.686016 
L 88.936891 158.973953 
L 89.032474 158.973953 
L 89.510501 158.973953 
L 89.510501 154.26189 
L 89.606154 154.26189 
L 89.701773 154.26189 
L 89.701773 158.973953 
L 89.797366 158.973953 
L 92.378783 158.973953 
L 92.378783 140.125701 
L 92.47439 140.125701 
L 92.761227 140.125701 
L 92.761227 130.701575 
L 92.856832 130.701575 
L 92.952432 130.701575 
L 92.952432 125.989512 
L 93.048035 125.989512 
L 93.143629 125.989512 
L 93.143629 116.565386 
L 93.239288 116.565386 
L 303.005 116.565386 
L 303.005 116.565386 
" style="fill:none;stroke:#a6761d;stroke-dasharray:4.5,1.5;stroke-dashoffset:0;stroke-width:1.5;"/>
   </g>
   <g id="line2d_35">
    <path clip-path="url(#p2bdcc88db1)" d="M 55.905 210.806645 
L 65.799534 210.806645 
L 65.799534 206.094582 
L 65.89513 206.094582 
L 65.99078 206.094582 
L 65.99078 201.382519 
L 66.086385 201.382519 
L 69.815081 201.382519 
L 69.815081 196.670456 
L 69.910714 196.670456 
L 70.771193 196.670456 
L 70.771193 191.958393 
L 70.866823 191.958393 
L 71.153628 191.958393 
L 71.153628 187.24633 
L 71.249258 187.24633 
L 71.536083 187.24633 
L 71.536083 182.534267 
L 71.6317 182.534267 
L 74.404354 182.534267 
L 74.404354 187.24633 
L 74.499953 187.24633 
L 87.980808 187.24633 
L 87.980808 182.534267 
L 88.076369 182.534267 
L 89.12808 182.534267 
L 89.12808 173.110142 
L 89.22368 173.110142 
L 92.569996 173.110142 
L 92.569996 168.398079 
L 92.665634 168.398079 
L 93.334885 168.398079 
L 93.334885 149.549827 
L 93.430496 149.549827 
L 93.526104 149.549827 
L 93.526104 144.837764 
L 93.621719 144.837764 
L 93.71732 144.837764 
L 93.71732 140.125701 
L 93.812925 140.125701 
L 152.421104 140.125701 
L 152.421104 144.837764 
L 152.516761 144.837764 
L 152.612351 144.837764 
L 152.612351 140.125701 
L 152.707982 140.125701 
L 268.107776 140.125701 
L 268.107776 135.413638 
L 268.20343 135.413638 
L 277.668703 135.413638 
L 277.668703 130.701575 
L 277.764337 130.701575 
L 291.818789 130.701575 
L 291.818789 125.989512 
L 291.914432 125.989512 
L 294.495862 125.989512 
L 294.495862 121.277449 
L 294.591469 121.277449 
L 295.260725 121.277449 
L 295.260725 116.565386 
L 295.356318 116.565386 
L 303.005 116.565386 
L 303.005 116.565386 
" style="fill:none;stroke:#666666;stroke-dasharray:4.5,1.5;stroke-dashoffset:0;stroke-width:1.5;"/>
   </g>
   <g id="line2d_36"/>
   <g id="line2d_37"/>
   <g id="line2d_38"/>
   <g id="line2d_39"/>
   <g id="line2d_40"/>
   <g id="line2d_41"/>
   <g id="line2d_42"/>
   <g id="line2d_43"/>
   <g id="line2d_44"/>
   <g id="line2d_45"/>
   <g id="line2d_46"/>
   <g id="line2d_47"/>
   <g id="line2d_48"/>
   <g id="line2d_49"/>
   <g id="line2d_50"/>
   <g id="line2d_51"/>
   <g id="line2d_52"/>
   <g id="patch_3">
    <path d="M 43.55 220.230771 
L 43.55 12.9 
" style="fill:none;stroke:#000000;stroke-linecap:square;stroke-linejoin:miter;stroke-width:0.8;"/>
   </g>
   <g id="patch_4">
    <path d="M 315.36 220.230771 
L 315.36 12.9 
" style="fill:none;stroke:#000000;stroke-linecap:square;stroke-linejoin:miter;stroke-width:0.8;"/>
   </g>
   <g id="patch_5">
    <path d="M 43.55 220.230771 
L 315.36 220.230771 
" style="fill:none;stroke:#000000;stroke-linecap:square;stroke-linejoin:miter;stroke-width:0.8;"/>
   </g>
   <g id="patch_6">
    <path d="M 43.55 12.9 
L 315.36 12.9 
" style="fill:none;stroke:#000000;stroke-linecap:square;stroke-linejoin:miter;stroke-width:0.8;"/>
   </g>
  </g>
  <g id="legend_1">
   <g id="patch_7">
    <path d="M 331.8625 262.528125 
L 420 262.528125 
Q 422 262.528125 422 260.528125 
L 422 12 
Q 422 10 420 10 
L 331.8625 10 
Q 329.8625 10 329.8625 12 
L 329.8625 260.528125 
Q 329.8625 262.528125 331.8625 262.528125 
z
" style="fill:#ffffff;opacity:0.8;stroke:#cccccc;stroke-linejoin:miter;"/>
   </g>
   <g id="text_22">
    <!-- 492/610 Reg. -->
    <defs>
     <path d="M 25.390625 72.90625 
L 33.6875 72.90625 
L 8.296875 -9.28125 
L 0 -9.28125 
z
" id="DejaVuSans-47"/>
     <path d="M 33.015625 40.375 
Q 26.375 40.375 22.484375 35.828125 
Q 18.609375 31.296875 18.609375 23.390625 
Q 18.609375 15.53125 22.484375 10.953125 
Q 26.375 6.390625 33.015625 6.390625 
Q 39.65625 6.390625 43.53125 10.953125 
Q 47.40625 15.53125 47.40625 23.390625 
Q 47.40625 31.296875 43.53125 35.828125 
Q 39.65625 40.375 33.015625 40.375 
z
M 52.59375 71.296875 
L 52.59375 62.3125 
Q 48.875 64.0625 45.09375 64.984375 
Q 41.3125 65.921875 37.59375 65.921875 
Q 27.828125 65.921875 22.671875 59.328125 
Q 17.53125 52.734375 16.796875 39.40625 
Q 19.671875 43.65625 24.015625 45.921875 
Q 28.375 48.1875 33.59375 48.1875 
Q 44.578125 48.1875 50.953125 41.515625 
Q 57.328125 34.859375 57.328125 23.390625 
Q 57.328125 12.15625 50.6875 5.359375 
Q 44.046875 -1.421875 33.015625 -1.421875 
Q 20.359375 -1.421875 13.671875 8.265625 
Q 6.984375 17.96875 6.984375 36.375 
Q 6.984375 53.65625 15.1875 63.9375 
Q 23.390625 74.21875 37.203125 74.21875 
Q 40.921875 74.21875 44.703125 73.484375 
Q 48.484375 72.75 52.59375 71.296875 
z
" id="DejaVuSans-54"/>
     <path d="M 10.6875 12.40625 
L 21 12.40625 
L 21 0 
L 10.6875 0 
z
" id="DejaVuSans-46"/>
    </defs>
    <g transform="translate(342.259375 21.598437)scale(0.1 -0.1)">
     <use xlink:href="#DejaVuSans-52"/>
     <use x="63.623047" xlink:href="#DejaVuSans-57"/>
     <use x="127.246094" xlink:href="#DejaVuSans-50"/>
     <use x="190.869141" xlink:href="#DejaVuSans-47"/>
     <use x="224.560547" xlink:href="#DejaVuSans-54"/>
     <use x="288.183594" xlink:href="#DejaVuSans-49"/>
     <use x="351.806641" xlink:href="#DejaVuSans-48"/>
     <use x="415.429688" xlink:href="#DejaVuSans-32"/>
     <use x="447.216797" xlink:href="#DejaVuSans-82"/>
     <use x="516.636719" xlink:href="#DejaVuSans-101"/>
     <use x="578.160156" xlink:href="#DejaVuSans-103"/>
     <use x="641.636719" xlink:href="#DejaVuSans-46"/>
    </g>
   </g>
   <g id="line2d_53">
    <path d="M 333.8625 32.776562 
L 353.8625 32.776562 
" style="fill:none;stroke:#1b9e77;stroke-linecap:square;stroke-width:1.5;"/>
   </g>
   <g id="line2d_54"/>
   <g id="text_23">
    <!-- AS (40) -->
    <defs>
     <path d="M 34.1875 63.1875 
L 20.796875 26.90625 
L 47.609375 26.90625 
z
M 28.609375 72.90625 
L 39.796875 72.90625 
L 67.578125 0 
L 57.328125 0 
L 50.6875 18.703125 
L 17.828125 18.703125 
L 11.1875 0 
L 0.78125 0 
z
" id="DejaVuSans-65"/>
     <path d="M 31 75.875 
Q 24.46875 64.65625 21.28125 53.65625 
Q 18.109375 42.671875 18.109375 31.390625 
Q 18.109375 20.125 21.3125 9.0625 
Q 24.515625 -2 31 -13.1875 
L 23.1875 -13.1875 
Q 15.875 -1.703125 12.234375 9.375 
Q 8.59375 20.453125 8.59375 31.390625 
Q 8.59375 42.28125 12.203125 53.3125 
Q 15.828125 64.359375 23.1875 75.875 
z
" id="DejaVuSans-40"/>
     <path d="M 8.015625 75.875 
L 15.828125 75.875 
Q 23.140625 64.359375 26.78125 53.3125 
Q 30.421875 42.28125 30.421875 31.390625 
Q 30.421875 20.453125 26.78125 9.375 
Q 23.140625 -1.703125 15.828125 -13.1875 
L 8.015625 -13.1875 
Q 14.5 -2 17.703125 9.0625 
Q 20.90625 20.125 20.90625 31.390625 
Q 20.90625 42.671875 17.703125 53.65625 
Q 14.5 64.65625 8.015625 75.875 
z
" id="DejaVuSans-41"/>
    </defs>
    <g transform="translate(361.8625 36.276562)scale(0.1 -0.1)">
     <use xlink:href="#DejaVuSans-65"/>
     <use x="68.408203" xlink:href="#DejaVuSans-83"/>
     <use x="131.884766" xlink:href="#DejaVuSans-32"/>
     <use x="163.671875" xlink:href="#DejaVuSans-40"/>
     <use x="202.685547" xlink:href="#DejaVuSans-52"/>
     <use x="266.308594" xlink:href="#DejaVuSans-48"/>
     <use x="329.931641" xlink:href="#DejaVuSans-41"/>
    </g>
   </g>
   <g id="line2d_55">
    <path d="M 333.8625 47.454688 
L 353.8625 47.454688 
" style="fill:none;stroke:#d95f02;stroke-linecap:square;stroke-width:1.5;"/>
   </g>
   <g id="line2d_56"/>
   <g id="text_24">
    <!-- AUS (40) -->
    <defs>
     <path d="M 8.6875 72.90625 
L 18.609375 72.90625 
L 18.609375 28.609375 
Q 18.609375 16.890625 22.84375 11.734375 
Q 27.09375 6.59375 36.625 6.59375 
Q 46.09375 6.59375 50.34375 11.734375 
Q 54.59375 16.890625 54.59375 28.609375 
L 54.59375 72.90625 
L 64.5 72.90625 
L 64.5 27.390625 
Q 64.5 13.140625 57.4375 5.859375 
Q 50.390625 -1.421875 36.625 -1.421875 
Q 22.796875 -1.421875 15.734375 5.859375 
Q 8.6875 13.140625 8.6875 27.390625 
z
" id="DejaVuSans-85"/>
    </defs>
    <g transform="translate(361.8625 50.954688)scale(0.1 -0.1)">
     <use xlink:href="#DejaVuSans-65"/>
     <use x="68.408203" xlink:href="#DejaVuSans-85"/>
     <use x="141.601562" xlink:href="#DejaVuSans-83"/>
     <use x="205.078125" xlink:href="#DejaVuSans-32"/>
     <use x="236.865234" xlink:href="#DejaVuSans-40"/>
     <use x="275.878906" xlink:href="#DejaVuSans-52"/>
     <use x="339.501953" xlink:href="#DejaVuSans-48"/>
     <use x="403.125" xlink:href="#DejaVuSans-41"/>
    </g>
   </g>
   <g id="line2d_57">
    <path d="M 333.8625 62.132812 
L 353.8625 62.132812 
" style="fill:none;stroke:#7570b3;stroke-linecap:square;stroke-width:1.5;"/>
   </g>
   <g id="line2d_58"/>
   <g id="text_25">
    <!-- COML (40) -->
    <defs>
     <path d="M 64.40625 67.28125 
L 64.40625 56.890625 
Q 59.421875 61.53125 53.78125 63.8125 
Q 48.140625 66.109375 41.796875 66.109375 
Q 29.296875 66.109375 22.65625 58.46875 
Q 16.015625 50.828125 16.015625 36.375 
Q 16.015625 21.96875 22.65625 14.328125 
Q 29.296875 6.6875 41.796875 6.6875 
Q 48.140625 6.6875 53.78125 8.984375 
Q 59.421875 11.28125 64.40625 15.921875 
L 64.40625 5.609375 
Q 59.234375 2.09375 53.4375 0.328125 
Q 47.65625 -1.421875 41.21875 -1.421875 
Q 24.65625 -1.421875 15.125 8.703125 
Q 5.609375 18.84375 5.609375 36.375 
Q 5.609375 53.953125 15.125 64.078125 
Q 24.65625 74.21875 41.21875 74.21875 
Q 47.75 74.21875 53.53125 72.484375 
Q 59.328125 70.75 64.40625 67.28125 
z
" id="DejaVuSans-67"/>
     <path d="M 39.40625 66.21875 
Q 28.65625 66.21875 22.328125 58.203125 
Q 16.015625 50.203125 16.015625 36.375 
Q 16.015625 22.609375 22.328125 14.59375 
Q 28.65625 6.59375 39.40625 6.59375 
Q 50.140625 6.59375 56.421875 14.59375 
Q 62.703125 22.609375 62.703125 36.375 
Q 62.703125 50.203125 56.421875 58.203125 
Q 50.140625 66.21875 39.40625 66.21875 
z
M 39.40625 74.21875 
Q 54.734375 74.21875 63.90625 63.9375 
Q 73.09375 53.65625 73.09375 36.375 
Q 73.09375 19.140625 63.90625 8.859375 
Q 54.734375 -1.421875 39.40625 -1.421875 
Q 24.03125 -1.421875 14.8125 8.828125 
Q 5.609375 19.09375 5.609375 36.375 
Q 5.609375 53.65625 14.8125 63.9375 
Q 24.03125 74.21875 39.40625 74.21875 
z
" id="DejaVuSans-79"/>
     <path d="M 9.8125 72.90625 
L 24.515625 72.90625 
L 43.109375 23.296875 
L 61.8125 72.90625 
L 76.515625 72.90625 
L 76.515625 0 
L 66.890625 0 
L 66.890625 64.015625 
L 48.09375 14.015625 
L 38.1875 14.015625 
L 19.390625 64.015625 
L 19.390625 0 
L 9.8125 0 
z
" id="DejaVuSans-77"/>
     <path d="M 9.8125 72.90625 
L 19.671875 72.90625 
L 19.671875 8.296875 
L 55.171875 8.296875 
L 55.171875 0 
L 9.8125 0 
z
" id="DejaVuSans-76"/>
    </defs>
    <g transform="translate(361.8625 65.632812)scale(0.1 -0.1)">
     <use xlink:href="#DejaVuSans-67"/>
     <use x="69.824219" xlink:href="#DejaVuSans-79"/>
     <use x="148.535156" xlink:href="#DejaVuSans-77"/>
     <use x="234.814453" xlink:href="#DejaVuSans-76"/>
     <use x="290.527344" xlink:href="#DejaVuSans-32"/>
     <use x="322.314453" xlink:href="#DejaVuSans-40"/>
     <use x="361.328125" xlink:href="#DejaVuSans-52"/>
     <use x="424.951172" xlink:href="#DejaVuSans-48"/>
     <use x="488.574219" xlink:href="#DejaVuSans-41"/>
    </g>
   </g>
   <g id="line2d_59">
    <path d="M 333.8625 76.810937 
L 353.8625 76.810937 
" style="fill:none;stroke:#e7298a;stroke-linecap:square;stroke-width:1.5;"/>
   </g>
   <g id="line2d_60"/>
   <g id="text_26">
    <!-- GDD (40) -->
    <defs>
     <path d="M 59.515625 10.40625 
L 59.515625 29.984375 
L 43.40625 29.984375 
L 43.40625 38.09375 
L 69.28125 38.09375 
L 69.28125 6.78125 
Q 63.578125 2.734375 56.6875 0.65625 
Q 49.8125 -1.421875 42 -1.421875 
Q 24.90625 -1.421875 15.25 8.5625 
Q 5.609375 18.5625 5.609375 36.375 
Q 5.609375 54.25 15.25 64.234375 
Q 24.90625 74.21875 42 74.21875 
Q 49.125 74.21875 55.546875 72.453125 
Q 61.96875 70.703125 67.390625 67.28125 
L 67.390625 56.78125 
Q 61.921875 61.421875 55.765625 63.765625 
Q 49.609375 66.109375 42.828125 66.109375 
Q 29.4375 66.109375 22.71875 58.640625 
Q 16.015625 51.171875 16.015625 36.375 
Q 16.015625 21.625 22.71875 14.15625 
Q 29.4375 6.6875 42.828125 6.6875 
Q 48.046875 6.6875 52.140625 7.59375 
Q 56.25 8.5 59.515625 10.40625 
z
" id="DejaVuSans-71"/>
    </defs>
    <g transform="translate(361.8625 80.310937)scale(0.1 -0.1)">
     <use xlink:href="#DejaVuSans-71"/>
     <use x="77.490234" xlink:href="#DejaVuSans-68"/>
     <use x="154.492188" xlink:href="#DejaVuSans-68"/>
     <use x="231.494141" xlink:href="#DejaVuSans-32"/>
     <use x="263.28125" xlink:href="#DejaVuSans-40"/>
     <use x="302.294922" xlink:href="#DejaVuSans-52"/>
     <use x="365.917969" xlink:href="#DejaVuSans-48"/>
     <use x="429.541016" xlink:href="#DejaVuSans-41"/>
    </g>
   </g>
   <g id="line2d_61">
    <path d="M 333.8625 91.489062 
L 353.8625 91.489062 
" style="fill:none;stroke:#66a61e;stroke-linecap:square;stroke-width:1.5;"/>
   </g>
   <g id="line2d_62"/>
   <g id="text_27">
    <!-- MD (38) -->
    <g transform="translate(361.8625 94.989062)scale(0.1 -0.1)">
     <use xlink:href="#DejaVuSans-77"/>
     <use x="86.279297" xlink:href="#DejaVuSans-68"/>
     <use x="163.28125" xlink:href="#DejaVuSans-32"/>
     <use x="195.068359" xlink:href="#DejaVuSans-40"/>
     <use x="234.082031" xlink:href="#DejaVuSans-51"/>
     <use x="297.705078" xlink:href="#DejaVuSans-56"/>
     <use x="361.328125" xlink:href="#DejaVuSans-41"/>
    </g>
   </g>
   <g id="line2d_63">
    <path d="M 333.8625 106.167188 
L 353.8625 106.167188 
" style="fill:none;stroke:#e6ab02;stroke-linecap:square;stroke-width:1.5;"/>
   </g>
   <g id="line2d_64"/>
   <g id="text_28">
    <!-- HPI (38) -->
    <defs>
     <path d="M 9.8125 72.90625 
L 19.671875 72.90625 
L 19.671875 43.015625 
L 55.515625 43.015625 
L 55.515625 72.90625 
L 65.375 72.90625 
L 65.375 0 
L 55.515625 0 
L 55.515625 34.71875 
L 19.671875 34.71875 
L 19.671875 0 
L 9.8125 0 
z
" id="DejaVuSans-72"/>
     <path d="M 19.671875 64.796875 
L 19.671875 37.40625 
L 32.078125 37.40625 
Q 38.96875 37.40625 42.71875 40.96875 
Q 46.484375 44.53125 46.484375 51.125 
Q 46.484375 57.671875 42.71875 61.234375 
Q 38.96875 64.796875 32.078125 64.796875 
z
M 9.8125 72.90625 
L 32.078125 72.90625 
Q 44.34375 72.90625 50.609375 67.359375 
Q 56.890625 61.8125 56.890625 51.125 
Q 56.890625 40.328125 50.609375 34.8125 
Q 44.34375 29.296875 32.078125 29.296875 
L 19.671875 29.296875 
L 19.671875 0 
L 9.8125 0 
z
" id="DejaVuSans-80"/>
     <path d="M 9.8125 72.90625 
L 19.671875 72.90625 
L 19.671875 0 
L 9.8125 0 
z
" id="DejaVuSans-73"/>
    </defs>
    <g transform="translate(361.8625 109.667188)scale(0.1 -0.1)">
     <use xlink:href="#DejaVuSans-72"/>
     <use x="75.195312" xlink:href="#DejaVuSans-80"/>
     <use x="135.498047" xlink:href="#DejaVuSans-73"/>
     <use x="164.990234" xlink:href="#DejaVuSans-32"/>
     <use x="196.777344" xlink:href="#DejaVuSans-40"/>
     <use x="235.791016" xlink:href="#DejaVuSans-51"/>
     <use x="299.414062" xlink:href="#DejaVuSans-56"/>
     <use x="363.037109" xlink:href="#DejaVuSans-41"/>
    </g>
   </g>
   <g id="line2d_65">
    <path d="M 333.8625 120.845312 
L 353.8625 120.845312 
" style="fill:none;stroke:#a6761d;stroke-linecap:square;stroke-width:1.5;"/>
   </g>
   <g id="line2d_66"/>
   <g id="text_29">
    <!-- SA (37) -->
    <defs>
     <path d="M 8.203125 72.90625 
L 55.078125 72.90625 
L 55.078125 68.703125 
L 28.609375 0 
L 18.3125 0 
L 43.21875 64.59375 
L 8.203125 64.59375 
z
" id="DejaVuSans-55"/>
    </defs>
    <g transform="translate(361.8625 124.345312)scale(0.1 -0.1)">
     <use xlink:href="#DejaVuSans-83"/>
     <use x="63.492188" xlink:href="#DejaVuSans-65"/>
     <use x="131.900391" xlink:href="#DejaVuSans-32"/>
     <use x="163.6875" xlink:href="#DejaVuSans-40"/>
     <use x="202.701172" xlink:href="#DejaVuSans-51"/>
     <use x="266.324219" xlink:href="#DejaVuSans-55"/>
     <use x="329.947266" xlink:href="#DejaVuSans-41"/>
    </g>
   </g>
   <g id="line2d_67">
    <path d="M 333.8625 135.523438 
L 353.8625 135.523438 
" style="fill:none;stroke:#666666;stroke-linecap:square;stroke-width:1.5;"/>
   </g>
   <g id="line2d_68"/>
   <g id="text_30">
    <!-- FIT (29) -->
    <defs>
     <path d="M 9.8125 72.90625 
L 51.703125 72.90625 
L 51.703125 64.59375 
L 19.671875 64.59375 
L 19.671875 43.109375 
L 48.578125 43.109375 
L 48.578125 34.8125 
L 19.671875 34.8125 
L 19.671875 0 
L 9.8125 0 
z
" id="DejaVuSans-70"/>
     <path d="M -0.296875 72.90625 
L 61.375 72.90625 
L 61.375 64.59375 
L 35.5 64.59375 
L 35.5 0 
L 25.59375 0 
L 25.59375 64.59375 
L -0.296875 64.59375 
z
" id="DejaVuSans-84"/>
    </defs>
    <g transform="translate(361.8625 139.023438)scale(0.1 -0.1)">
     <use xlink:href="#DejaVuSans-70"/>
     <use x="57.519531" xlink:href="#DejaVuSans-73"/>
     <use x="87.011719" xlink:href="#DejaVuSans-84"/>
     <use x="148.095703" xlink:href="#DejaVuSans-32"/>
     <use x="179.882812" xlink:href="#DejaVuSans-40"/>
     <use x="218.896484" xlink:href="#DejaVuSans-50"/>
     <use x="282.519531" xlink:href="#DejaVuSans-57"/>
     <use x="346.142578" xlink:href="#DejaVuSans-41"/>
    </g>
   </g>
   <g id="line2d_69">
    <path d="M 333.8625 150.201562 
L 353.8625 150.201562 
" style="fill:none;stroke:#1b9e77;stroke-dasharray:4.5,1.5;stroke-dashoffset:0;stroke-width:1.5;"/>
   </g>
   <g id="line2d_70"/>
   <g id="text_31">
    <!-- SPD (27) -->
    <g transform="translate(361.8625 153.701562)scale(0.1 -0.1)">
     <use xlink:href="#DejaVuSans-83"/>
     <use x="63.476562" xlink:href="#DejaVuSans-80"/>
     <use x="123.779297" xlink:href="#DejaVuSans-68"/>
     <use x="200.78125" xlink:href="#DejaVuSans-32"/>
     <use x="232.568359" xlink:href="#DejaVuSans-40"/>
     <use x="271.582031" xlink:href="#DejaVuSans-50"/>
     <use x="335.205078" xlink:href="#DejaVuSans-55"/>
     <use x="398.828125" xlink:href="#DejaVuSans-41"/>
    </g>
   </g>
   <g id="line2d_71">
    <path d="M 333.8625 164.879687 
L 353.8625 164.879687 
" style="fill:none;stroke:#d95f02;stroke-dasharray:4.5,1.5;stroke-dashoffset:0;stroke-width:1.5;"/>
   </g>
   <g id="line2d_72"/>
   <g id="text_32">
    <!-- TBI (25) -->
    <defs>
     <path d="M 19.671875 34.8125 
L 19.671875 8.109375 
L 35.5 8.109375 
Q 43.453125 8.109375 47.28125 11.40625 
Q 51.125 14.703125 51.125 21.484375 
Q 51.125 28.328125 47.28125 31.5625 
Q 43.453125 34.8125 35.5 34.8125 
z
M 19.671875 64.796875 
L 19.671875 42.828125 
L 34.28125 42.828125 
Q 41.5 42.828125 45.03125 45.53125 
Q 48.578125 48.25 48.578125 53.8125 
Q 48.578125 59.328125 45.03125 62.0625 
Q 41.5 64.796875 34.28125 64.796875 
z
M 9.8125 72.90625 
L 35.015625 72.90625 
Q 46.296875 72.90625 52.390625 68.21875 
Q 58.5 63.53125 58.5 54.890625 
Q 58.5 48.1875 55.375 44.234375 
Q 52.25 40.28125 46.1875 39.3125 
Q 53.46875 37.75 57.5 32.78125 
Q 61.53125 27.828125 61.53125 20.40625 
Q 61.53125 10.640625 54.890625 5.3125 
Q 48.25 0 35.984375 0 
L 9.8125 0 
z
" id="DejaVuSans-66"/>
    </defs>
    <g transform="translate(361.8625 168.379687)scale(0.1 -0.1)">
     <use xlink:href="#DejaVuSans-84"/>
     <use x="61.083984" xlink:href="#DejaVuSans-66"/>
     <use x="129.6875" xlink:href="#DejaVuSans-73"/>
     <use x="159.179688" xlink:href="#DejaVuSans-32"/>
     <use x="190.966797" xlink:href="#DejaVuSans-40"/>
     <use x="229.980469" xlink:href="#DejaVuSans-50"/>
     <use x="293.603516" xlink:href="#DejaVuSans-53"/>
     <use x="357.226562" xlink:href="#DejaVuSans-41"/>
    </g>
   </g>
   <g id="line2d_73">
    <path d="M 333.8625 179.557812 
L 353.8625 179.557812 
" style="fill:none;stroke:#7570b3;stroke-dasharray:4.5,1.5;stroke-dashoffset:0;stroke-width:1.5;"/>
   </g>
   <g id="line2d_74"/>
   <g id="text_33">
    <!-- CB (25) -->
    <g transform="translate(361.8625 183.057812)scale(0.1 -0.1)">
     <use xlink:href="#DejaVuSans-67"/>
     <use x="69.824219" xlink:href="#DejaVuSans-66"/>
     <use x="138.427734" xlink:href="#DejaVuSans-32"/>
     <use x="170.214844" xlink:href="#DejaVuSans-40"/>
     <use x="209.228516" xlink:href="#DejaVuSans-50"/>
     <use x="272.851562" xlink:href="#DejaVuSans-53"/>
     <use x="336.474609" xlink:href="#DejaVuSans-41"/>
    </g>
   </g>
   <g id="line2d_75">
    <path d="M 333.8625 194.235937 
L 353.8625 194.235937 
" style="fill:none;stroke:#e7298a;stroke-dasharray:4.5,1.5;stroke-dashoffset:0;stroke-width:1.5;"/>
   </g>
   <g id="line2d_76"/>
   <g id="text_34">
    <!-- CC (25) -->
    <g transform="translate(361.8625 197.735937)scale(0.1 -0.1)">
     <use xlink:href="#DejaVuSans-67"/>
     <use x="69.824219" xlink:href="#DejaVuSans-67"/>
     <use x="139.648438" xlink:href="#DejaVuSans-32"/>
     <use x="171.435547" xlink:href="#DejaVuSans-40"/>
     <use x="210.449219" xlink:href="#DejaVuSans-50"/>
     <use x="274.072266" xlink:href="#DejaVuSans-53"/>
     <use x="337.695312" xlink:href="#DejaVuSans-41"/>
    </g>
   </g>
   <g id="line2d_77">
    <path d="M 333.8625 208.914062 
L 353.8625 208.914062 
" style="fill:none;stroke:#66a61e;stroke-dasharray:4.5,1.5;stroke-dashoffset:0;stroke-width:1.5;"/>
   </g>
   <g id="line2d_78"/>
   <g id="text_35">
    <!-- RJPH (24) -->
    <defs>
     <path d="M 9.8125 72.90625 
L 19.671875 72.90625 
L 19.671875 5.078125 
Q 19.671875 -8.109375 14.671875 -14.0625 
Q 9.671875 -20.015625 -1.421875 -20.015625 
L -5.171875 -20.015625 
L -5.171875 -11.71875 
L -2.09375 -11.71875 
Q 4.4375 -11.71875 7.125 -8.046875 
Q 9.8125 -4.390625 9.8125 5.078125 
z
" id="DejaVuSans-74"/>
    </defs>
    <g transform="translate(361.8625 212.414062)scale(0.1 -0.1)">
     <use xlink:href="#DejaVuSans-82"/>
     <use x="69.482422" xlink:href="#DejaVuSans-74"/>
     <use x="98.974609" xlink:href="#DejaVuSans-80"/>
     <use x="159.277344" xlink:href="#DejaVuSans-72"/>
     <use x="234.472656" xlink:href="#DejaVuSans-32"/>
     <use x="266.259766" xlink:href="#DejaVuSans-40"/>
     <use x="305.273438" xlink:href="#DejaVuSans-50"/>
     <use x="368.896484" xlink:href="#DejaVuSans-52"/>
     <use x="432.519531" xlink:href="#DejaVuSans-41"/>
    </g>
   </g>
   <g id="line2d_79">
    <path d="M 333.8625 223.592187 
L 353.8625 223.592187 
" style="fill:none;stroke:#e6ab02;stroke-dasharray:4.5,1.5;stroke-dashoffset:0;stroke-width:1.5;"/>
   </g>
   <g id="line2d_80"/>
   <g id="text_36">
    <!-- BP (24) -->
    <g transform="translate(361.8625 227.092187)scale(0.1 -0.1)">
     <use xlink:href="#DejaVuSans-66"/>
     <use x="68.603516" xlink:href="#DejaVuSans-80"/>
     <use x="128.90625" xlink:href="#DejaVuSans-32"/>
     <use x="160.693359" xlink:href="#DejaVuSans-40"/>
     <use x="199.707031" xlink:href="#DejaVuSans-50"/>
     <use x="263.330078" xlink:href="#DejaVuSans-52"/>
     <use x="326.953125" xlink:href="#DejaVuSans-41"/>
    </g>
   </g>
   <g id="line2d_81">
    <path d="M 333.8625 238.270312 
L 353.8625 238.270312 
" style="fill:none;stroke:#a6761d;stroke-dasharray:4.5,1.5;stroke-dashoffset:0;stroke-width:1.5;"/>
   </g>
   <g id="line2d_82"/>
   <g id="text_37">
    <!-- AHR-H (20) -->
    <g transform="translate(361.8625 241.770312)scale(0.1 -0.1)">
     <use xlink:href="#DejaVuSans-65"/>
     <use x="68.408203" xlink:href="#DejaVuSans-72"/>
     <use x="143.603516" xlink:href="#DejaVuSans-82"/>
     <use x="213.023438" xlink:href="#DejaVuSans-45"/>
     <use x="249.107422" xlink:href="#DejaVuSans-72"/>
     <use x="324.302734" xlink:href="#DejaVuSans-32"/>
     <use x="356.089844" xlink:href="#DejaVuSans-40"/>
     <use x="395.103516" xlink:href="#DejaVuSans-50"/>
     <use x="458.726562" xlink:href="#DejaVuSans-48"/>
     <use x="522.349609" xlink:href="#DejaVuSans-41"/>
    </g>
   </g>
   <g id="line2d_83">
    <path d="M 333.8625 252.948437 
L 353.8625 252.948437 
" style="fill:none;stroke:#666666;stroke-dasharray:4.5,1.5;stroke-dashoffset:0;stroke-width:1.5;"/>
   </g>
   <g id="line2d_84"/>
   <g id="text_38">
    <!-- AHR-A (20) -->
    <g transform="translate(361.8625 256.448437)scale(0.1 -0.1)">
     <use xlink:href="#DejaVuSans-65"/>
     <use x="68.408203" xlink:href="#DejaVuSans-72"/>
     <use x="143.603516" xlink:href="#DejaVuSans-82"/>
     <use x="213.023438" xlink:href="#DejaVuSans-45"/>
     <use x="249.076172" xlink:href="#DejaVuSans-65"/>
     <use x="317.484375" xlink:href="#DejaVuSans-32"/>
     <use x="349.271484" xlink:href="#DejaVuSans-40"/>
     <use x="388.285156" xlink:href="#DejaVuSans-50"/>
     <use x="451.908203" xlink:href="#DejaVuSans-48"/>
     <use x="515.53125" xlink:href="#DejaVuSans-41"/>
    </g>
   </g>
  </g>
 </g>
 <defs>
  <clipPath id="p2bdcc88db1">
   <rect height="207.330771" width="271.81" x="43.55" y="12.9"/>
  </clipPath>
 </defs>
</svg>
