<?xml version="1.0" encoding="utf-8" standalone="no"?>
<!DOCTYPE svg PUBLIC "-//W3C//DTD SVG 1.1//EN"
  "http://www.w3.org/Graphics/SVG/1.1/DTD/svg11.dtd">
<!-- Created with matplotlib (https://matplotlib.org/) -->
<svg height="288pt" version="1.1" viewBox="0 0 432 288" width="432pt" xmlns="http://www.w3.org/2000/svg" xmlns:xlink="http://www.w3.org/1999/xlink">
 <defs>
  <style type="text/css">
*{stroke-linecap:butt;stroke-linejoin:round;}
  </style>
 </defs>
 <g id="figure_1">
  <g id="patch_1">
   <path d="M 0 288 
L 432 288 
L 432 0 
L 0 0 
z
" style="fill:#ffffff;"/>
  </g>
  <g id="axes_1">
   <g id="patch_2">
    <path d="M 43.55 220.230771 
L 315.36 220.230771 
L 315.36 12.9 
L 43.55 12.9 
z
" style="fill:#ffffff;"/>
   </g>
   <g id="matplotlib.axis_1">
    <g id="xtick_1">
     <g id="line2d_1">
      <defs>
       <path d="M 0 0 
L 0 3.5 
" id="m749d62796d" style="stroke:#000000;stroke-width:0.8;"/>
      </defs>
      <g>
       <use style="stroke:#000000;stroke-width:0.8;" x="49.504027" xlink:href="#m749d62796d" y="220.230771"/>
      </g>
     </g>
     <g id="text_1">
      <!-- 2020-11-29 -->
      <defs>
       <path d="M 19.1875 8.296875 
L 53.609375 8.296875 
L 53.609375 0 
L 7.328125 0 
L 7.328125 8.296875 
Q 12.9375 14.109375 22.625 23.890625 
Q 32.328125 33.6875 34.8125 36.53125 
Q 39.546875 41.84375 41.421875 45.53125 
Q 43.3125 49.21875 43.3125 52.78125 
Q 43.3125 58.59375 39.234375 62.25 
Q 35.15625 65.921875 28.609375 65.921875 
Q 23.96875 65.921875 18.8125 64.3125 
Q 13.671875 62.703125 7.8125 59.421875 
L 7.8125 69.390625 
Q 13.765625 71.78125 18.9375 73 
Q 24.125 74.21875 28.421875 74.21875 
Q 39.75 74.21875 46.484375 68.546875 
Q 53.21875 62.890625 53.21875 53.421875 
Q 53.21875 48.921875 51.53125 44.890625 
Q 49.859375 40.875 45.40625 35.40625 
Q 44.1875 33.984375 37.640625 27.21875 
Q 31.109375 20.453125 19.1875 8.296875 
z
" id="DejaVuSans-50"/>
       <path d="M 31.78125 66.40625 
Q 24.171875 66.40625 20.328125 58.90625 
Q 16.5 51.421875 16.5 36.375 
Q 16.5 21.390625 20.328125 13.890625 
Q 24.171875 6.390625 31.78125 6.390625 
Q 39.453125 6.390625 43.28125 13.890625 
Q 47.125 21.390625 47.125 36.375 
Q 47.125 51.421875 43.28125 58.90625 
Q 39.453125 66.40625 31.78125 66.40625 
z
M 31.78125 74.21875 
Q 44.046875 74.21875 50.515625 64.515625 
Q 56.984375 54.828125 56.984375 36.375 
Q 56.984375 17.96875 50.515625 8.265625 
Q 44.046875 -1.421875 31.78125 -1.421875 
Q 19.53125 -1.421875 13.0625 8.265625 
Q 6.59375 17.96875 6.59375 36.375 
Q 6.59375 54.828125 13.0625 64.515625 
Q 19.53125 74.21875 31.78125 74.21875 
z
" id="DejaVuSans-48"/>
       <path d="M 4.890625 31.390625 
L 31.203125 31.390625 
L 31.203125 23.390625 
L 4.890625 23.390625 
z
" id="DejaVuSans-45"/>
       <path d="M 12.40625 8.296875 
L 28.515625 8.296875 
L 28.515625 63.921875 
L 10.984375 60.40625 
L 10.984375 69.390625 
L 28.421875 72.90625 
L 38.28125 72.90625 
L 38.28125 8.296875 
L 54.390625 8.296875 
L 54.390625 0 
L 12.40625 0 
z
" id="DejaVuSans-49"/>
       <path d="M 10.984375 1.515625 
L 10.984375 10.5 
Q 14.703125 8.734375 18.5 7.8125 
Q 22.3125 6.890625 25.984375 6.890625 
Q 35.75 6.890625 40.890625 13.453125 
Q 46.046875 20.015625 46.78125 33.40625 
Q 43.953125 29.203125 39.59375 26.953125 
Q 35.25 24.703125 29.984375 24.703125 
Q 19.046875 24.703125 12.671875 31.3125 
Q 6.296875 37.9375 6.296875 49.421875 
Q 6.296875 60.640625 12.9375 67.421875 
Q 19.578125 74.21875 30.609375 74.21875 
Q 43.265625 74.21875 49.921875 64.515625 
Q 56.59375 54.828125 56.59375 36.375 
Q 56.59375 19.140625 48.40625 8.859375 
Q 40.234375 -1.421875 26.421875 -1.421875 
Q 22.703125 -1.421875 18.890625 -0.6875 
Q 15.09375 0.046875 10.984375 1.515625 
z
M 30.609375 32.421875 
Q 37.25 32.421875 41.125 36.953125 
Q 45.015625 41.5 45.015625 49.421875 
Q 45.015625 57.28125 41.125 61.84375 
Q 37.25 66.40625 30.609375 66.40625 
Q 23.96875 66.40625 20.09375 61.84375 
Q 16.21875 57.28125 16.21875 49.421875 
Q 16.21875 41.5 20.09375 36.953125 
Q 23.96875 32.421875 30.609375 32.421875 
z
" id="DejaVuSans-57"/>
      </defs>
      <g transform="translate(25.718911 262.869024)rotate(-30)scale(0.1 -0.1)">
       <use xlink:href="#DejaVuSans-50"/>
       <use x="63.623047" xlink:href="#DejaVuSans-48"/>
       <use x="127.246094" xlink:href="#DejaVuSans-50"/>
       <use x="190.869141" xlink:href="#DejaVuSans-48"/>
       <use x="254.492188" xlink:href="#DejaVuSans-45"/>
       <use x="290.576172" xlink:href="#DejaVuSans-49"/>
       <use x="354.199219" xlink:href="#DejaVuSans-49"/>
       <use x="417.822266" xlink:href="#DejaVuSans-45"/>
       <use x="453.90625" xlink:href="#DejaVuSans-50"/>
       <use x="517.529297" xlink:href="#DejaVuSans-57"/>
      </g>
     </g>
    </g>
    <g id="xtick_2">
     <g id="line2d_2">
      <g>
       <use style="stroke:#000000;stroke-width:0.8;" x="58.343859" xlink:href="#m749d62796d" y="220.230771"/>
      </g>
     </g>
     <g id="text_2">
      <!-- 2020-12-01 -->
      <g transform="translate(34.558742 262.869024)rotate(-30)scale(0.1 -0.1)">
       <use xlink:href="#DejaVuSans-50"/>
       <use x="63.623047" xlink:href="#DejaVuSans-48"/>
       <use x="127.246094" xlink:href="#DejaVuSans-50"/>
       <use x="190.869141" xlink:href="#DejaVuSans-48"/>
       <use x="254.492188" xlink:href="#DejaVuSans-45"/>
       <use x="290.576172" xlink:href="#DejaVuSans-49"/>
       <use x="354.199219" xlink:href="#DejaVuSans-50"/>
       <use x="417.822266" xlink:href="#DejaVuSans-45"/>
       <use x="453.90625" xlink:href="#DejaVuSans-48"/>
       <use x="517.529297" xlink:href="#DejaVuSans-49"/>
      </g>
     </g>
    </g>
    <g id="xtick_3">
     <g id="line2d_3">
      <g>
       <use style="stroke:#000000;stroke-width:0.8;" x="89.283268" xlink:href="#m749d62796d" y="220.230771"/>
      </g>
     </g>
     <g id="text_3">
      <!-- 2020-12-08 -->
      <defs>
       <path d="M 31.78125 34.625 
Q 24.75 34.625 20.71875 30.859375 
Q 16.703125 27.09375 16.703125 20.515625 
Q 16.703125 13.921875 20.71875 10.15625 
Q 24.75 6.390625 31.78125 6.390625 
Q 38.8125 6.390625 42.859375 10.171875 
Q 46.921875 13.96875 46.921875 20.515625 
Q 46.921875 27.09375 42.890625 30.859375 
Q 38.875 34.625 31.78125 34.625 
z
M 21.921875 38.8125 
Q 15.578125 40.375 12.03125 44.71875 
Q 8.5 49.078125 8.5 55.328125 
Q 8.5 64.0625 14.71875 69.140625 
Q 20.953125 74.21875 31.78125 74.21875 
Q 42.671875 74.21875 48.875 69.140625 
Q 55.078125 64.0625 55.078125 55.328125 
Q 55.078125 49.078125 51.53125 44.71875 
Q 48 40.375 41.703125 38.8125 
Q 48.828125 37.15625 52.796875 32.3125 
Q 56.78125 27.484375 56.78125 20.515625 
Q 56.78125 9.90625 50.3125 4.234375 
Q 43.84375 -1.421875 31.78125 -1.421875 
Q 19.734375 -1.421875 13.25 4.234375 
Q 6.78125 9.90625 6.78125 20.515625 
Q 6.78125 27.484375 10.78125 32.3125 
Q 14.796875 37.15625 21.921875 38.8125 
z
M 18.3125 54.390625 
Q 18.3125 48.734375 21.84375 45.5625 
Q 25.390625 42.390625 31.78125 42.390625 
Q 38.140625 42.390625 41.71875 45.5625 
Q 45.3125 48.734375 45.3125 54.390625 
Q 45.3125 60.0625 41.71875 63.234375 
Q 38.140625 66.40625 31.78125 66.40625 
Q 25.390625 66.40625 21.84375 63.234375 
Q 18.3125 60.0625 18.3125 54.390625 
z
" id="DejaVuSans-56"/>
      </defs>
      <g transform="translate(65.498152 262.869024)rotate(-30)scale(0.1 -0.1)">
       <use xlink:href="#DejaVuSans-50"/>
       <use x="63.623047" xlink:href="#DejaVuSans-48"/>
       <use x="127.246094" xlink:href="#DejaVuSans-50"/>
       <use x="190.869141" xlink:href="#DejaVuSans-48"/>
       <use x="254.492188" xlink:href="#DejaVuSans-45"/>
       <use x="290.576172" xlink:href="#DejaVuSans-49"/>
       <use x="354.199219" xlink:href="#DejaVuSans-50"/>
       <use x="417.822266" xlink:href="#DejaVuSans-45"/>
       <use x="453.90625" xlink:href="#DejaVuSans-48"/>
       <use x="517.529297" xlink:href="#DejaVuSans-56"/>
      </g>
     </g>
    </g>
    <g id="xtick_4">
     <g id="line2d_4">
      <g>
       <use style="stroke:#000000;stroke-width:0.8;" x="120.222677" xlink:href="#m749d62796d" y="220.230771"/>
      </g>
     </g>
     <g id="text_4">
      <!-- 2020-12-15 -->
      <defs>
       <path d="M 10.796875 72.90625 
L 49.515625 72.90625 
L 49.515625 64.59375 
L 19.828125 64.59375 
L 19.828125 46.734375 
Q 21.96875 47.46875 24.109375 47.828125 
Q 26.265625 48.1875 28.421875 48.1875 
Q 40.625 48.1875 47.75 41.5 
Q 54.890625 34.8125 54.890625 23.390625 
Q 54.890625 11.625 47.5625 5.09375 
Q 40.234375 -1.421875 26.90625 -1.421875 
Q 22.3125 -1.421875 17.546875 -0.640625 
Q 12.796875 0.140625 7.71875 1.703125 
L 7.71875 11.625 
Q 12.109375 9.234375 16.796875 8.0625 
Q 21.484375 6.890625 26.703125 6.890625 
Q 35.15625 6.890625 40.078125 11.328125 
Q 45.015625 15.765625 45.015625 23.390625 
Q 45.015625 31 40.078125 35.4375 
Q 35.15625 39.890625 26.703125 39.890625 
Q 22.75 39.890625 18.8125 39.015625 
Q 14.890625 38.140625 10.796875 36.28125 
z
" id="DejaVuSans-53"/>
      </defs>
      <g transform="translate(96.437561 262.869024)rotate(-30)scale(0.1 -0.1)">
       <use xlink:href="#DejaVuSans-50"/>
       <use x="63.623047" xlink:href="#DejaVuSans-48"/>
       <use x="127.246094" xlink:href="#DejaVuSans-50"/>
       <use x="190.869141" xlink:href="#DejaVuSans-48"/>
       <use x="254.492188" xlink:href="#DejaVuSans-45"/>
       <use x="290.576172" xlink:href="#DejaVuSans-49"/>
       <use x="354.199219" xlink:href="#DejaVuSans-50"/>
       <use x="417.822266" xlink:href="#DejaVuSans-45"/>
       <use x="453.90625" xlink:href="#DejaVuSans-49"/>
       <use x="517.529297" xlink:href="#DejaVuSans-53"/>
      </g>
     </g>
    </g>
    <g id="xtick_5">
     <g id="line2d_5">
      <g>
       <use style="stroke:#000000;stroke-width:0.8;" x="151.162087" xlink:href="#m749d62796d" y="220.230771"/>
      </g>
     </g>
     <g id="text_5">
      <!-- 2020-12-22 -->
      <g transform="translate(127.37697 262.869024)rotate(-30)scale(0.1 -0.1)">
       <use xlink:href="#DejaVuSans-50"/>
       <use x="63.623047" xlink:href="#DejaVuSans-48"/>
       <use x="127.246094" xlink:href="#DejaVuSans-50"/>
       <use x="190.869141" xlink:href="#DejaVuSans-48"/>
       <use x="254.492188" xlink:href="#DejaVuSans-45"/>
       <use x="290.576172" xlink:href="#DejaVuSans-49"/>
       <use x="354.199219" xlink:href="#DejaVuSans-50"/>
       <use x="417.822266" xlink:href="#DejaVuSans-45"/>
       <use x="453.90625" xlink:href="#DejaVuSans-50"/>
       <use x="517.529297" xlink:href="#DejaVuSans-50"/>
      </g>
     </g>
    </g>
    <g id="xtick_6">
     <g id="line2d_6">
      <g>
       <use style="stroke:#000000;stroke-width:0.8;" x="182.101496" xlink:href="#m749d62796d" y="220.230771"/>
      </g>
     </g>
     <g id="text_6">
      <!-- 2020-12-29 -->
      <g transform="translate(158.31638 262.869024)rotate(-30)scale(0.1 -0.1)">
       <use xlink:href="#DejaVuSans-50"/>
       <use x="63.623047" xlink:href="#DejaVuSans-48"/>
       <use x="127.246094" xlink:href="#DejaVuSans-50"/>
       <use x="190.869141" xlink:href="#DejaVuSans-48"/>
       <use x="254.492188" xlink:href="#DejaVuSans-45"/>
       <use x="290.576172" xlink:href="#DejaVuSans-49"/>
       <use x="354.199219" xlink:href="#DejaVuSans-50"/>
       <use x="417.822266" xlink:href="#DejaVuSans-45"/>
       <use x="453.90625" xlink:href="#DejaVuSans-50"/>
       <use x="517.529297" xlink:href="#DejaVuSans-57"/>
      </g>
     </g>
    </g>
    <g id="xtick_7">
     <g id="line2d_7">
      <g>
       <use style="stroke:#000000;stroke-width:0.8;" x="195.361243" xlink:href="#m749d62796d" y="220.230771"/>
      </g>
     </g>
     <g id="text_7">
      <!-- 2021-01-01 -->
      <g transform="translate(171.576126 262.869024)rotate(-30)scale(0.1 -0.1)">
       <use xlink:href="#DejaVuSans-50"/>
       <use x="63.623047" xlink:href="#DejaVuSans-48"/>
       <use x="127.246094" xlink:href="#DejaVuSans-50"/>
       <use x="190.869141" xlink:href="#DejaVuSans-49"/>
       <use x="254.492188" xlink:href="#DejaVuSans-45"/>
       <use x="290.576172" xlink:href="#DejaVuSans-48"/>
       <use x="354.199219" xlink:href="#DejaVuSans-49"/>
       <use x="417.822266" xlink:href="#DejaVuSans-45"/>
       <use x="453.90625" xlink:href="#DejaVuSans-48"/>
       <use x="517.529297" xlink:href="#DejaVuSans-49"/>
      </g>
     </g>
    </g>
    <g id="xtick_8">
     <g id="line2d_8">
      <g>
       <use style="stroke:#000000;stroke-width:0.8;" x="226.300652" xlink:href="#m749d62796d" y="220.230771"/>
      </g>
     </g>
     <g id="text_8">
      <!-- 2021-01-08 -->
      <g transform="translate(202.515536 262.869024)rotate(-30)scale(0.1 -0.1)">
       <use xlink:href="#DejaVuSans-50"/>
       <use x="63.623047" xlink:href="#DejaVuSans-48"/>
       <use x="127.246094" xlink:href="#DejaVuSans-50"/>
       <use x="190.869141" xlink:href="#DejaVuSans-49"/>
       <use x="254.492188" xlink:href="#DejaVuSans-45"/>
       <use x="290.576172" xlink:href="#DejaVuSans-48"/>
       <use x="354.199219" xlink:href="#DejaVuSans-49"/>
       <use x="417.822266" xlink:href="#DejaVuSans-45"/>
       <use x="453.90625" xlink:href="#DejaVuSans-48"/>
       <use x="517.529297" xlink:href="#DejaVuSans-56"/>
      </g>
     </g>
    </g>
    <g id="xtick_9">
     <g id="line2d_9">
      <g>
       <use style="stroke:#000000;stroke-width:0.8;" x="257.240061" xlink:href="#m749d62796d" y="220.230771"/>
      </g>
     </g>
     <g id="text_9">
      <!-- 2021-01-15 -->
      <g transform="translate(233.454945 262.869024)rotate(-30)scale(0.1 -0.1)">
       <use xlink:href="#DejaVuSans-50"/>
       <use x="63.623047" xlink:href="#DejaVuSans-48"/>
       <use x="127.246094" xlink:href="#DejaVuSans-50"/>
       <use x="190.869141" xlink:href="#DejaVuSans-49"/>
       <use x="254.492188" xlink:href="#DejaVuSans-45"/>
       <use x="290.576172" xlink:href="#DejaVuSans-48"/>
       <use x="354.199219" xlink:href="#DejaVuSans-49"/>
       <use x="417.822266" xlink:href="#DejaVuSans-45"/>
       <use x="453.90625" xlink:href="#DejaVuSans-49"/>
       <use x="517.529297" xlink:href="#DejaVuSans-53"/>
      </g>
     </g>
    </g>
    <g id="xtick_10">
     <g id="line2d_10">
      <g>
       <use style="stroke:#000000;stroke-width:0.8;" x="288.179471" xlink:href="#m749d62796d" y="220.230771"/>
      </g>
     </g>
     <g id="text_10">
      <!-- 2021-01-22 -->
      <g transform="translate(264.394354 262.869024)rotate(-30)scale(0.1 -0.1)">
       <use xlink:href="#DejaVuSans-50"/>
       <use x="63.623047" xlink:href="#DejaVuSans-48"/>
       <use x="127.246094" xlink:href="#DejaVuSans-50"/>
       <use x="190.869141" xlink:href="#DejaVuSans-49"/>
       <use x="254.492188" xlink:href="#DejaVuSans-45"/>
       <use x="290.576172" xlink:href="#DejaVuSans-48"/>
       <use x="354.199219" xlink:href="#DejaVuSans-49"/>
       <use x="417.822266" xlink:href="#DejaVuSans-45"/>
       <use x="453.90625" xlink:href="#DejaVuSans-50"/>
       <use x="517.529297" xlink:href="#DejaVuSans-50"/>
      </g>
     </g>
    </g>
    <g id="text_11">
     <!-- Date -->
     <defs>
      <path d="M 19.671875 64.796875 
L 19.671875 8.109375 
L 31.59375 8.109375 
Q 46.6875 8.109375 53.6875 14.9375 
Q 60.6875 21.78125 60.6875 36.53125 
Q 60.6875 51.171875 53.6875 57.984375 
Q 46.6875 64.796875 31.59375 64.796875 
z
M 9.8125 72.90625 
L 30.078125 72.90625 
Q 51.265625 72.90625 61.171875 64.09375 
Q 71.09375 55.28125 71.09375 36.53125 
Q 71.09375 17.671875 61.125 8.828125 
Q 51.171875 0 30.078125 0 
L 9.8125 0 
z
" id="DejaVuSans-68"/>
      <path d="M 34.28125 27.484375 
Q 23.390625 27.484375 19.1875 25 
Q 14.984375 22.515625 14.984375 16.5 
Q 14.984375 11.71875 18.140625 8.90625 
Q 21.296875 6.109375 26.703125 6.109375 
Q 34.1875 6.109375 38.703125 11.40625 
Q 43.21875 16.703125 43.21875 25.484375 
L 43.21875 27.484375 
z
M 52.203125 31.203125 
L 52.203125 0 
L 43.21875 0 
L 43.21875 8.296875 
Q 40.140625 3.328125 35.546875 0.953125 
Q 30.953125 -1.421875 24.3125 -1.421875 
Q 15.921875 -1.421875 10.953125 3.296875 
Q 6 8.015625 6 15.921875 
Q 6 25.140625 12.171875 29.828125 
Q 18.359375 34.515625 30.609375 34.515625 
L 43.21875 34.515625 
L 43.21875 35.40625 
Q 43.21875 41.609375 39.140625 45 
Q 35.0625 48.390625 27.6875 48.390625 
Q 23 48.390625 18.546875 47.265625 
Q 14.109375 46.140625 10.015625 43.890625 
L 10.015625 52.203125 
Q 14.9375 54.109375 19.578125 55.046875 
Q 24.21875 56 28.609375 56 
Q 40.484375 56 46.34375 49.84375 
Q 52.203125 43.703125 52.203125 31.203125 
z
" id="DejaVuSans-97"/>
      <path d="M 18.3125 70.21875 
L 18.3125 54.6875 
L 36.8125 54.6875 
L 36.8125 47.703125 
L 18.3125 47.703125 
L 18.3125 18.015625 
Q 18.3125 11.328125 20.140625 9.421875 
Q 21.96875 7.515625 27.59375 7.515625 
L 36.8125 7.515625 
L 36.8125 0 
L 27.59375 0 
Q 17.1875 0 13.234375 3.875 
Q 9.28125 7.765625 9.28125 18.015625 
L 9.28125 47.703125 
L 2.6875 47.703125 
L 2.6875 54.6875 
L 9.28125 54.6875 
L 9.28125 70.21875 
z
" id="DejaVuSans-116"/>
      <path d="M 56.203125 29.59375 
L 56.203125 25.203125 
L 14.890625 25.203125 
Q 15.484375 15.921875 20.484375 11.0625 
Q 25.484375 6.203125 34.421875 6.203125 
Q 39.59375 6.203125 44.453125 7.46875 
Q 49.3125 8.734375 54.109375 11.28125 
L 54.109375 2.78125 
Q 49.265625 0.734375 44.1875 -0.34375 
Q 39.109375 -1.421875 33.890625 -1.421875 
Q 20.796875 -1.421875 13.15625 6.1875 
Q 5.515625 13.8125 5.515625 26.8125 
Q 5.515625 40.234375 12.765625 48.109375 
Q 20.015625 56 32.328125 56 
Q 43.359375 56 49.78125 48.890625 
Q 56.203125 41.796875 56.203125 29.59375 
z
M 47.21875 32.234375 
Q 47.125 39.59375 43.09375 43.984375 
Q 39.0625 48.390625 32.421875 48.390625 
Q 24.90625 48.390625 20.390625 44.140625 
Q 15.875 39.890625 15.1875 32.171875 
z
" id="DejaVuSans-101"/>
     </defs>
     <g transform="translate(167.504219 276.268523)scale(0.1 -0.1)">
      <use xlink:href="#DejaVuSans-68"/>
      <use x="77.001953" xlink:href="#DejaVuSans-97"/>
      <use x="138.28125" xlink:href="#DejaVuSans-116"/>
      <use x="177.490234" xlink:href="#DejaVuSans-101"/>
     </g>
    </g>
   </g>
   <g id="matplotlib.axis_2">
    <g id="ytick_1">
     <g id="line2d_11">
      <defs>
       <path d="M 0 0 
L -3.5 0 
" id="md0971954e8" style="stroke:#000000;stroke-width:0.8;"/>
      </defs>
      <g>
       <use style="stroke:#000000;stroke-width:0.8;" x="43.55" xlink:href="#md0971954e8" y="210.806645"/>
      </g>
     </g>
     <g id="text_12">
      <!-- 0 -->
      <g transform="translate(30.1875 214.605864)scale(0.1 -0.1)">
       <use xlink:href="#DejaVuSans-48"/>
      </g>
     </g>
    </g>
    <g id="ytick_2">
     <g id="line2d_12">
      <g>
       <use style="stroke:#000000;stroke-width:0.8;" x="43.55" xlink:href="#md0971954e8" y="187.24633"/>
      </g>
     </g>
     <g id="text_13">
      <!-- 5 -->
      <g transform="translate(30.1875 191.045549)scale(0.1 -0.1)">
       <use xlink:href="#DejaVuSans-53"/>
      </g>
     </g>
    </g>
    <g id="ytick_3">
     <g id="line2d_13">
      <g>
       <use style="stroke:#000000;stroke-width:0.8;" x="43.55" xlink:href="#md0971954e8" y="163.686016"/>
      </g>
     </g>
     <g id="text_14">
      <!-- 10 -->
      <g transform="translate(23.825 167.485234)scale(0.1 -0.1)">
       <use xlink:href="#DejaVuSans-49"/>
       <use x="63.623047" xlink:href="#DejaVuSans-48"/>
      </g>
     </g>
    </g>
    <g id="ytick_4">
     <g id="line2d_14">
      <g>
       <use style="stroke:#000000;stroke-width:0.8;" x="43.55" xlink:href="#md0971954e8" y="140.125701"/>
      </g>
     </g>
     <g id="text_15">
      <!-- 15 -->
      <g transform="translate(23.825 143.924919)scale(0.1 -0.1)">
       <use xlink:href="#DejaVuSans-49"/>
       <use x="63.623047" xlink:href="#DejaVuSans-53"/>
      </g>
     </g>
    </g>
    <g id="ytick_5">
     <g id="line2d_15">
      <g>
       <use style="stroke:#000000;stroke-width:0.8;" x="43.55" xlink:href="#md0971954e8" y="116.565386"/>
      </g>
     </g>
     <g id="text_16">
      <!-- 20 -->
      <g transform="translate(23.825 120.364604)scale(0.1 -0.1)">
       <use xlink:href="#DejaVuSans-50"/>
       <use x="63.623047" xlink:href="#DejaVuSans-48"/>
      </g>
     </g>
    </g>
    <g id="ytick_6">
     <g id="line2d_16">
      <g>
       <use style="stroke:#000000;stroke-width:0.8;" x="43.55" xlink:href="#md0971954e8" y="93.005071"/>
      </g>
     </g>
     <g id="text_17">
      <!-- 25 -->
      <g transform="translate(23.825 96.80429)scale(0.1 -0.1)">
       <use xlink:href="#DejaVuSans-50"/>
       <use x="63.623047" xlink:href="#DejaVuSans-53"/>
      </g>
     </g>
    </g>
    <g id="ytick_7">
     <g id="line2d_17">
      <g>
       <use style="stroke:#000000;stroke-width:0.8;" x="43.55" xlink:href="#md0971954e8" y="69.444756"/>
      </g>
     </g>
     <g id="text_18">
      <!-- 30 -->
      <defs>
       <path d="M 40.578125 39.3125 
Q 47.65625 37.796875 51.625 33 
Q 55.609375 28.21875 55.609375 21.1875 
Q 55.609375 10.40625 48.1875 4.484375 
Q 40.765625 -1.421875 27.09375 -1.421875 
Q 22.515625 -1.421875 17.65625 -0.515625 
Q 12.796875 0.390625 7.625 2.203125 
L 7.625 11.71875 
Q 11.71875 9.328125 16.59375 8.109375 
Q 21.484375 6.890625 26.8125 6.890625 
Q 36.078125 6.890625 40.9375 10.546875 
Q 45.796875 14.203125 45.796875 21.1875 
Q 45.796875 27.640625 41.28125 31.265625 
Q 36.765625 34.90625 28.71875 34.90625 
L 20.21875 34.90625 
L 20.21875 43.015625 
L 29.109375 43.015625 
Q 36.375 43.015625 40.234375 45.921875 
Q 44.09375 48.828125 44.09375 54.296875 
Q 44.09375 59.90625 40.109375 62.90625 
Q 36.140625 65.921875 28.71875 65.921875 
Q 24.65625 65.921875 20.015625 65.03125 
Q 15.375 64.15625 9.8125 62.3125 
L 9.8125 71.09375 
Q 15.4375 72.65625 20.34375 73.4375 
Q 25.25 74.21875 29.59375 74.21875 
Q 40.828125 74.21875 47.359375 69.109375 
Q 53.90625 64.015625 53.90625 55.328125 
Q 53.90625 49.265625 50.4375 45.09375 
Q 46.96875 40.921875 40.578125 39.3125 
z
" id="DejaVuSans-51"/>
      </defs>
      <g transform="translate(23.825 73.243975)scale(0.1 -0.1)">
       <use xlink:href="#DejaVuSans-51"/>
       <use x="63.623047" xlink:href="#DejaVuSans-48"/>
      </g>
     </g>
    </g>
    <g id="ytick_8">
     <g id="line2d_18">
      <g>
       <use style="stroke:#000000;stroke-width:0.8;" x="43.55" xlink:href="#md0971954e8" y="45.884441"/>
      </g>
     </g>
     <g id="text_19">
      <!-- 35 -->
      <g transform="translate(23.825 49.68366)scale(0.1 -0.1)">
       <use xlink:href="#DejaVuSans-51"/>
       <use x="63.623047" xlink:href="#DejaVuSans-53"/>
      </g>
     </g>
    </g>
    <g id="ytick_9">
     <g id="line2d_19">
      <g>
       <use style="stroke:#000000;stroke-width:0.8;" x="43.55" xlink:href="#md0971954e8" y="22.324126"/>
      </g>
     </g>
     <g id="text_20">
      <!-- 40 -->
      <defs>
       <path d="M 37.796875 64.3125 
L 12.890625 25.390625 
L 37.796875 25.390625 
z
M 35.203125 72.90625 
L 47.609375 72.90625 
L 47.609375 25.390625 
L 58.015625 25.390625 
L 58.015625 17.1875 
L 47.609375 17.1875 
L 47.609375 0 
L 37.796875 0 
L 37.796875 17.1875 
L 4.890625 17.1875 
L 4.890625 26.703125 
z
" id="DejaVuSans-52"/>
      </defs>
      <g transform="translate(23.825 26.123345)scale(0.1 -0.1)">
       <use xlink:href="#DejaVuSans-52"/>
       <use x="63.623047" xlink:href="#DejaVuSans-48"/>
      </g>
     </g>
    </g>
    <g id="text_21">
     <!-- Students Registered -->
     <defs>
      <path d="M 53.515625 70.515625 
L 53.515625 60.890625 
Q 47.90625 63.578125 42.921875 64.890625 
Q 37.9375 66.21875 33.296875 66.21875 
Q 25.25 66.21875 20.875 63.09375 
Q 16.5 59.96875 16.5 54.203125 
Q 16.5 49.359375 19.40625 46.890625 
Q 22.3125 44.4375 30.421875 42.921875 
L 36.375 41.703125 
Q 47.40625 39.59375 52.65625 34.296875 
Q 57.90625 29 57.90625 20.125 
Q 57.90625 9.515625 50.796875 4.046875 
Q 43.703125 -1.421875 29.984375 -1.421875 
Q 24.8125 -1.421875 18.96875 -0.25 
Q 13.140625 0.921875 6.890625 3.21875 
L 6.890625 13.375 
Q 12.890625 10.015625 18.65625 8.296875 
Q 24.421875 6.59375 29.984375 6.59375 
Q 38.421875 6.59375 43.015625 9.90625 
Q 47.609375 13.234375 47.609375 19.390625 
Q 47.609375 24.75 44.3125 27.78125 
Q 41.015625 30.8125 33.5 32.328125 
L 27.484375 33.5 
Q 16.453125 35.6875 11.515625 40.375 
Q 6.59375 45.0625 6.59375 53.421875 
Q 6.59375 63.09375 13.40625 68.65625 
Q 20.21875 74.21875 32.171875 74.21875 
Q 37.3125 74.21875 42.625 73.28125 
Q 47.953125 72.359375 53.515625 70.515625 
z
" id="DejaVuSans-83"/>
      <path d="M 8.5 21.578125 
L 8.5 54.6875 
L 17.484375 54.6875 
L 17.484375 21.921875 
Q 17.484375 14.15625 20.5 10.265625 
Q 23.53125 6.390625 29.59375 6.390625 
Q 36.859375 6.390625 41.078125 11.03125 
Q 45.3125 15.671875 45.3125 23.6875 
L 45.3125 54.6875 
L 54.296875 54.6875 
L 54.296875 0 
L 45.3125 0 
L 45.3125 8.40625 
Q 42.046875 3.421875 37.71875 1 
Q 33.40625 -1.421875 27.6875 -1.421875 
Q 18.265625 -1.421875 13.375 4.4375 
Q 8.5 10.296875 8.5 21.578125 
z
M 31.109375 56 
z
" id="DejaVuSans-117"/>
      <path d="M 45.40625 46.390625 
L 45.40625 75.984375 
L 54.390625 75.984375 
L 54.390625 0 
L 45.40625 0 
L 45.40625 8.203125 
Q 42.578125 3.328125 38.25 0.953125 
Q 33.9375 -1.421875 27.875 -1.421875 
Q 17.96875 -1.421875 11.734375 6.484375 
Q 5.515625 14.40625 5.515625 27.296875 
Q 5.515625 40.1875 11.734375 48.09375 
Q 17.96875 56 27.875 56 
Q 33.9375 56 38.25 53.625 
Q 42.578125 51.265625 45.40625 46.390625 
z
M 14.796875 27.296875 
Q 14.796875 17.390625 18.875 11.75 
Q 22.953125 6.109375 30.078125 6.109375 
Q 37.203125 6.109375 41.296875 11.75 
Q 45.40625 17.390625 45.40625 27.296875 
Q 45.40625 37.203125 41.296875 42.84375 
Q 37.203125 48.484375 30.078125 48.484375 
Q 22.953125 48.484375 18.875 42.84375 
Q 14.796875 37.203125 14.796875 27.296875 
z
" id="DejaVuSans-100"/>
      <path d="M 54.890625 33.015625 
L 54.890625 0 
L 45.90625 0 
L 45.90625 32.71875 
Q 45.90625 40.484375 42.875 44.328125 
Q 39.84375 48.1875 33.796875 48.1875 
Q 26.515625 48.1875 22.3125 43.546875 
Q 18.109375 38.921875 18.109375 30.90625 
L 18.109375 0 
L 9.078125 0 
L 9.078125 54.6875 
L 18.109375 54.6875 
L 18.109375 46.1875 
Q 21.34375 51.125 25.703125 53.5625 
Q 30.078125 56 35.796875 56 
Q 45.21875 56 50.046875 50.171875 
Q 54.890625 44.34375 54.890625 33.015625 
z
" id="DejaVuSans-110"/>
      <path d="M 44.28125 53.078125 
L 44.28125 44.578125 
Q 40.484375 46.53125 36.375 47.5 
Q 32.28125 48.484375 27.875 48.484375 
Q 21.1875 48.484375 17.84375 46.4375 
Q 14.5 44.390625 14.5 40.28125 
Q 14.5 37.15625 16.890625 35.375 
Q 19.28125 33.59375 26.515625 31.984375 
L 29.59375 31.296875 
Q 39.15625 29.25 43.1875 25.515625 
Q 47.21875 21.78125 47.21875 15.09375 
Q 47.21875 7.46875 41.1875 3.015625 
Q 35.15625 -1.421875 24.609375 -1.421875 
Q 20.21875 -1.421875 15.453125 -0.5625 
Q 10.6875 0.296875 5.421875 2 
L 5.421875 11.28125 
Q 10.40625 8.6875 15.234375 7.390625 
Q 20.0625 6.109375 24.8125 6.109375 
Q 31.15625 6.109375 34.5625 8.28125 
Q 37.984375 10.453125 37.984375 14.40625 
Q 37.984375 18.0625 35.515625 20.015625 
Q 33.0625 21.96875 24.703125 23.78125 
L 21.578125 24.515625 
Q 13.234375 26.265625 9.515625 29.90625 
Q 5.8125 33.546875 5.8125 39.890625 
Q 5.8125 47.609375 11.28125 51.796875 
Q 16.75 56 26.8125 56 
Q 31.78125 56 36.171875 55.265625 
Q 40.578125 54.546875 44.28125 53.078125 
z
" id="DejaVuSans-115"/>
      <path id="DejaVuSans-32"/>
      <path d="M 44.390625 34.1875 
Q 47.5625 33.109375 50.5625 29.59375 
Q 53.5625 26.078125 56.59375 19.921875 
L 66.609375 0 
L 56 0 
L 46.6875 18.703125 
Q 43.0625 26.03125 39.671875 28.421875 
Q 36.28125 30.8125 30.421875 30.8125 
L 19.671875 30.8125 
L 19.671875 0 
L 9.8125 0 
L 9.8125 72.90625 
L 32.078125 72.90625 
Q 44.578125 72.90625 50.734375 67.671875 
Q 56.890625 62.453125 56.890625 51.90625 
Q 56.890625 45.015625 53.6875 40.46875 
Q 50.484375 35.9375 44.390625 34.1875 
z
M 19.671875 64.796875 
L 19.671875 38.921875 
L 32.078125 38.921875 
Q 39.203125 38.921875 42.84375 42.21875 
Q 46.484375 45.515625 46.484375 51.90625 
Q 46.484375 58.296875 42.84375 61.546875 
Q 39.203125 64.796875 32.078125 64.796875 
z
" id="DejaVuSans-82"/>
      <path d="M 45.40625 27.984375 
Q 45.40625 37.75 41.375 43.109375 
Q 37.359375 48.484375 30.078125 48.484375 
Q 22.859375 48.484375 18.828125 43.109375 
Q 14.796875 37.75 14.796875 27.984375 
Q 14.796875 18.265625 18.828125 12.890625 
Q 22.859375 7.515625 30.078125 7.515625 
Q 37.359375 7.515625 41.375 12.890625 
Q 45.40625 18.265625 45.40625 27.984375 
z
M 54.390625 6.78125 
Q 54.390625 -7.171875 48.1875 -13.984375 
Q 42 -20.796875 29.203125 -20.796875 
Q 24.46875 -20.796875 20.265625 -20.09375 
Q 16.0625 -19.390625 12.109375 -17.921875 
L 12.109375 -9.1875 
Q 16.0625 -11.328125 19.921875 -12.34375 
Q 23.78125 -13.375 27.78125 -13.375 
Q 36.625 -13.375 41.015625 -8.765625 
Q 45.40625 -4.15625 45.40625 5.171875 
L 45.40625 9.625 
Q 42.625 4.78125 38.28125 2.390625 
Q 33.9375 0 27.875 0 
Q 17.828125 0 11.671875 7.65625 
Q 5.515625 15.328125 5.515625 27.984375 
Q 5.515625 40.671875 11.671875 48.328125 
Q 17.828125 56 27.875 56 
Q 33.9375 56 38.28125 53.609375 
Q 42.625 51.21875 45.40625 46.390625 
L 45.40625 54.6875 
L 54.390625 54.6875 
z
" id="DejaVuSans-103"/>
      <path d="M 9.421875 54.6875 
L 18.40625 54.6875 
L 18.40625 0 
L 9.421875 0 
z
M 9.421875 75.984375 
L 18.40625 75.984375 
L 18.40625 64.59375 
L 9.421875 64.59375 
z
" id="DejaVuSans-105"/>
      <path d="M 41.109375 46.296875 
Q 39.59375 47.171875 37.8125 47.578125 
Q 36.03125 48 33.890625 48 
Q 26.265625 48 22.1875 43.046875 
Q 18.109375 38.09375 18.109375 28.8125 
L 18.109375 0 
L 9.078125 0 
L 9.078125 54.6875 
L 18.109375 54.6875 
L 18.109375 46.1875 
Q 20.953125 51.171875 25.484375 53.578125 
Q 30.03125 56 36.53125 56 
Q 37.453125 56 38.578125 55.875 
Q 39.703125 55.765625 41.0625 55.515625 
z
" id="DejaVuSans-114"/>
     </defs>
     <g transform="translate(17.745313 167.498979)rotate(-90)scale(0.1 -0.1)">
      <use xlink:href="#DejaVuSans-83"/>
      <use x="63.476562" xlink:href="#DejaVuSans-116"/>
      <use x="102.685547" xlink:href="#DejaVuSans-117"/>
      <use x="166.064453" xlink:href="#DejaVuSans-100"/>
      <use x="229.541016" xlink:href="#DejaVuSans-101"/>
      <use x="291.064453" xlink:href="#DejaVuSans-110"/>
      <use x="354.443359" xlink:href="#DejaVuSans-116"/>
      <use x="393.652344" xlink:href="#DejaVuSans-115"/>
      <use x="445.751953" xlink:href="#DejaVuSans-32"/>
      <use x="477.539062" xlink:href="#DejaVuSans-82"/>
      <use x="546.958984" xlink:href="#DejaVuSans-101"/>
      <use x="608.482422" xlink:href="#DejaVuSans-103"/>
      <use x="671.958984" xlink:href="#DejaVuSans-105"/>
      <use x="699.742188" xlink:href="#DejaVuSans-115"/>
      <use x="751.841797" xlink:href="#DejaVuSans-116"/>
      <use x="791.050781" xlink:href="#DejaVuSans-101"/>
      <use x="852.574219" xlink:href="#DejaVuSans-114"/>
      <use x="893.65625" xlink:href="#DejaVuSans-101"/>
      <use x="955.179688" xlink:href="#DejaVuSans-100"/>
     </g>
    </g>
   </g>
   <g id="line2d_20">
    <path clip-path="url(#paaefeeff70)" d="M 55.905 210.806645 
L 56.099038 210.806645 
L 56.099038 201.382519 
L 56.207929 201.382519 
L 56.963003 201.382519 
L 56.963003 196.670456 
L 57.051981 196.670456 
L 61.198737 196.670456 
L 61.198737 191.958393 
L 61.290815 191.958393 
L 64.697866 191.958393 
L 64.697866 177.822204 
L 64.789946 177.822204 
L 64.882011 177.822204 
L 64.882011 173.110142 
L 64.974107 173.110142 
L 65.066173 173.110142 
L 65.066173 154.26189 
L 65.158265 154.26189 
L 65.250335 154.26189 
L 65.250335 149.549827 
L 65.342415 149.549827 
L 65.4345 149.549827 
L 65.4345 140.125701 
L 65.526569 140.125701 
L 65.618691 140.125701 
L 65.618691 125.989512 
L 65.710768 125.989512 
L 68.933608 125.989512 
L 68.933608 121.277449 
L 69.025687 121.277449 
L 69.11775 121.277449 
L 69.11775 116.565386 
L 69.20983 116.565386 
L 69.670254 116.565386 
L 69.670254 111.853323 
L 69.762343 111.853323 
L 70.038584 111.853323 
L 70.038584 97.717134 
L 70.130652 97.717134 
L 70.222742 97.717134 
L 70.222742 93.005071 
L 70.314845 93.005071 
L 73.905998 93.005071 
L 73.905998 88.293008 
L 73.998099 88.293008 
L 74.090155 88.293008 
L 74.090155 83.580945 
L 74.182264 83.580945 
L 74.458507 83.580945 
L 74.458507 78.868882 
L 74.55058 78.868882 
L 75.010986 78.868882 
L 75.010986 74.156819 
L 75.103058 74.156819 
L 78.141786 74.156819 
L 78.141786 69.444756 
L 78.233833 69.444756 
L 86.797452 69.444756 
L 86.797452 45.884441 
L 86.889488 45.884441 
L 86.981597 45.884441 
L 86.981597 36.460315 
L 87.07365 36.460315 
L 87.165772 36.460315 
L 87.165772 31.748252 
L 87.257833 31.748252 
L 149.228727 31.748252 
L 149.228727 36.460315 
L 149.320826 36.460315 
L 149.412884 36.460315 
L 149.412884 31.748252 
L 149.504967 31.748252 
L 159.357693 31.748252 
L 159.357693 36.460315 
L 159.449806 36.460315 
L 159.541869 36.460315 
L 159.541869 31.748252 
L 159.633946 31.748252 
L 250.518491 31.748252 
L 250.518491 22.324126 
L 250.610537 22.324126 
L 303.005 22.324126 
L 303.005 22.324126 
" style="fill:none;stroke:#1b9e77;stroke-linecap:square;stroke-width:1.5;"/>
   </g>
   <g id="line2d_21">
    <path clip-path="url(#paaefeeff70)" d="M 94.348136 196.670456 
L 95.268911 196.670456 
L 95.268911 182.534267 
L 95.361146 182.534267 
L 95.453079 182.534267 
L 95.453079 177.822204 
L 95.545198 177.822204 
L 95.637238 177.822204 
L 95.637238 158.973953 
L 95.729357 158.973953 
L 96.005581 158.973953 
L 96.005581 144.837764 
L 96.097664 144.837764 
L 96.3739 144.837764 
L 96.3739 116.565386 
L 96.466 116.565386 
L 96.742224 116.565386 
L 96.742224 107.14126 
L 96.834337 107.14126 
L 96.926411 107.14126 
L 96.926411 102.429197 
L 97.018512 102.429197 
L 97.110558 102.429197 
L 97.110558 97.717134 
L 97.202672 97.717134 
L 97.478915 97.717134 
L 97.478915 93.005071 
L 97.570953 93.005071 
L 100.057158 93.005071 
L 100.057158 74.156819 
L 100.149272 74.156819 
L 100.425497 74.156819 
L 100.425497 69.444756 
L 100.517564 69.444756 
L 100.793852 69.444756 
L 100.793852 60.02063 
L 100.885914 60.02063 
L 100.978015 60.02063 
L 100.978015 55.308567 
L 101.070073 55.308567 
L 101.346347 55.308567 
L 101.346347 50.596504 
L 101.438397 50.596504 
L 105.213757 50.596504 
L 105.213757 45.884441 
L 105.30582 45.884441 
L 105.397889 45.884441 
L 105.397889 41.172378 
L 105.490012 41.172378 
L 105.582062 41.172378 
L 105.582062 36.460315 
L 105.674165 36.460315 
L 106.134576 36.460315 
L 106.134576 31.748252 
L 106.22666 31.748252 
L 117.92099 31.748252 
L 117.92099 22.324126 
L 118.013094 22.324126 
L 140.573061 22.324126 
L 140.573061 27.036189 
L 140.665154 27.036189 
L 141.678039 27.036189 
L 141.678039 22.324126 
L 141.770124 22.324126 
L 157.700255 22.324126 
L 157.700255 27.036189 
L 157.79234 27.036189 
L 159.173552 27.036189 
L 159.173552 22.324126 
L 159.265645 22.324126 
L 278.327132 22.324126 
L 278.327132 27.036189 
L 278.419203 27.036189 
L 283.483689 27.036189 
L 283.483689 22.324126 
L 283.575759 22.324126 
L 303.005 22.324126 
L 303.005 22.324126 
" style="fill:none;stroke:#d95f02;stroke-linecap:square;stroke-width:1.5;"/>
   </g>
   <g id="line2d_22">
    <path clip-path="url(#paaefeeff70)" d="M 55.905 182.534267 
L 56.099038 182.534267 
L 56.099038 177.822204 
L 56.207929 177.822204 
L 57.051981 177.822204 
L 57.051981 173.110142 
L 59.998626 173.110142 
L 59.998626 168.398079 
L 60.277946 168.398079 
L 60.277946 163.686016 
L 60.370038 163.686016 
L 60.462099 163.686016 
L 60.462099 158.973953 
L 60.554197 158.973953 
L 61.014613 158.973953 
L 61.014613 144.837764 
L 61.106714 144.837764 
L 61.198737 144.837764 
L 61.198737 140.125701 
L 61.290815 140.125701 
L 64.882011 140.125701 
L 64.882011 130.701575 
L 64.974107 130.701575 
L 65.066173 130.701575 
L 65.066173 125.989512 
L 65.158265 125.989512 
L 65.250335 125.989512 
L 65.250335 130.701575 
L 65.342415 130.701575 
L 65.618691 130.701575 
L 65.618691 125.989512 
L 65.710768 125.989512 
L 65.802817 125.989512 
L 65.802817 116.565386 
L 65.894893 116.565386 
L 66.723655 116.565386 
L 66.723655 107.14126 
L 66.815747 107.14126 
L 68.749449 107.14126 
L 68.749449 102.429197 
L 68.841521 102.429197 
L 68.933608 102.429197 
L 68.933608 83.580945 
L 69.025687 83.580945 
L 69.11775 83.580945 
L 69.11775 74.156819 
L 69.20983 74.156819 
L 69.486097 74.156819 
L 69.486097 69.444756 
L 69.57818 69.444756 
L 69.670254 69.444756 
L 69.670254 64.732693 
L 69.762343 64.732693 
L 69.854422 64.732693 
L 69.854422 60.02063 
L 69.946514 60.02063 
L 70.038584 60.02063 
L 70.038584 45.884441 
L 70.130652 45.884441 
L 70.222742 45.884441 
L 70.222742 41.172378 
L 70.314845 41.172378 
L 70.406916 41.172378 
L 70.406916 36.460315 
L 70.498981 36.460315 
L 73.537665 36.460315 
L 73.537665 27.036189 
L 73.629761 27.036189 
L 73.721868 27.036189 
L 73.721868 22.324126 
L 73.81394 22.324126 
L 95.453079 22.324126 
L 95.453079 27.036189 
L 95.545198 27.036189 
L 95.637238 27.036189 
L 95.637238 22.324126 
L 95.729357 22.324126 
L 278.142939 22.324126 
L 278.142939 27.036189 
L 278.235028 27.036189 
L 278.327132 27.036189 
L 278.327132 22.324126 
L 278.419203 22.324126 
L 303.005 22.324126 
L 303.005 22.324126 
" style="fill:none;stroke:#7570b3;stroke-linecap:square;stroke-width:1.5;"/>
   </g>
   <g id="line2d_23">
    <path clip-path="url(#paaefeeff70)" d="M 55.905 201.382519 
L 60.83046 201.382519 
L 60.83046 196.670456 
L 60.922513 196.670456 
L 64.51371 196.670456 
L 64.51371 191.958393 
L 64.605757 191.958393 
L 64.697866 191.958393 
L 64.697866 187.24633 
L 64.789946 187.24633 
L 64.882011 187.24633 
L 64.882011 177.822204 
L 64.974107 177.822204 
L 65.066173 177.822204 
L 65.066173 173.110142 
L 65.158265 173.110142 
L 65.250335 173.110142 
L 65.250335 168.398079 
L 65.342415 168.398079 
L 65.4345 168.398079 
L 65.4345 163.686016 
L 65.526569 163.686016 
L 65.802817 163.686016 
L 65.802817 158.973953 
L 65.894893 158.973953 
L 68.933608 158.973953 
L 68.933608 149.549827 
L 69.025687 149.549827 
L 69.11775 149.549827 
L 69.11775 144.837764 
L 69.20983 144.837764 
L 69.854422 144.837764 
L 69.854422 140.125701 
L 69.946514 140.125701 
L 70.038584 140.125701 
L 70.038584 130.701575 
L 70.130652 130.701575 
L 86.797452 130.701575 
L 86.797452 125.989512 
L 86.889488 125.989512 
L 86.981597 125.989512 
L 86.981597 121.277449 
L 87.07365 121.277449 
L 87.165772 121.277449 
L 87.165772 116.565386 
L 87.257833 116.565386 
L 87.349915 116.565386 
L 87.349915 111.853323 
L 87.441987 111.853323 
L 87.534097 111.853323 
L 87.534097 102.429197 
L 87.626157 102.429197 
L 87.718263 102.429197 
L 87.718263 97.717134 
L 87.81032 97.717134 
L 91.033175 97.717134 
L 91.079219 83.580945 
L 91.125255 83.580945 
L 91.40151 83.580945 
L 91.40151 74.156819 
L 91.493588 74.156819 
L 91.954005 74.156819 
L 91.954005 69.444756 
L 92.046089 69.444756 
L 92.138169 69.444756 
L 92.138169 60.02063 
L 92.230256 60.02063 
L 92.32233 60.02063 
L 92.32233 36.460315 
L 92.414409 36.460315 
L 92.506466 36.460315 
L 92.506466 22.324126 
L 92.598632 22.324126 
L 95.268911 22.324126 
L 95.268911 27.036189 
L 95.361146 27.036189 
L 95.637238 27.036189 
L 95.637238 22.324126 
L 95.729357 22.324126 
L 140.204722 22.324126 
L 140.204722 27.036189 
L 140.296835 27.036189 
L 140.388923 27.036189 
L 140.388923 22.324126 
L 140.480968 22.324126 
L 148.492112 22.324126 
L 148.492112 27.036189 
L 148.584159 27.036189 
L 148.860388 27.036189 
L 148.860388 22.324126 
L 148.952516 22.324126 
L 149.228727 22.324126 
L 149.228727 27.036189 
L 149.320826 27.036189 
L 149.965419 27.036189 
L 149.965419 22.324126 
L 150.057477 22.324126 
L 303.005 22.324126 
L 303.005 22.324126 
" style="fill:none;stroke:#e7298a;stroke-linecap:square;stroke-width:1.5;"/>
   </g>
   <g id="line2d_24">
    <path clip-path="url(#paaefeeff70)" d="M 55.905 201.382519 
L 61.198737 201.382519 
L 61.198737 196.670456 
L 61.290815 196.670456 
L 64.697866 196.670456 
L 64.697866 191.958393 
L 64.789946 191.958393 
L 65.4345 191.958393 
L 65.4345 187.24633 
L 65.526569 187.24633 
L 69.301904 187.24633 
L 69.301904 177.822204 
L 69.394008 177.822204 
L 69.670254 177.822204 
L 69.670254 173.110142 
L 69.762343 173.110142 
L 70.038584 173.110142 
L 70.038584 168.398079 
L 70.130652 168.398079 
L 70.222742 168.398079 
L 70.222742 163.686016 
L 70.314845 163.686016 
L 74.458507 163.686016 
L 74.458507 158.973953 
L 74.55058 158.973953 
L 78.694257 158.973953 
L 78.694257 154.26189 
L 78.786351 154.26189 
L 86.797452 154.26189 
L 86.797452 144.837764 
L 86.889488 144.837764 
L 87.165772 144.837764 
L 87.165772 140.125701 
L 87.257833 140.125701 
L 88.086585 140.125701 
L 88.086585 135.413638 
L 88.178652 135.413638 
L 91.033175 135.413638 
L 91.033175 130.701575 
L 91.125255 130.701575 
L 91.954005 130.701575 
L 91.954005 125.989512 
L 92.046089 125.989512 
L 92.138169 125.989512 
L 92.138169 121.277449 
L 92.230256 121.277449 
L 92.32233 121.277449 
L 92.368365 107.14126 
L 92.414409 107.14126 
L 95.453079 107.14126 
L 95.453079 102.429197 
L 95.545198 102.429197 
L 95.637238 102.429197 
L 95.637238 93.005071 
L 95.729357 93.005071 
L 95.821399 93.005071 
L 95.821399 88.293008 
L 95.913491 88.293008 
L 96.005581 88.293008 
L 96.051619 74.156819 
L 96.097664 74.156819 
L 96.3739 74.156819 
L 96.3739 60.02063 
L 96.466 60.02063 
L 96.558087 60.02063 
L 96.558087 50.596504 
L 96.650181 50.596504 
L 96.742224 50.596504 
L 96.742224 31.748252 
L 96.834337 31.748252 
L 96.926411 31.748252 
L 96.926411 27.036189 
L 97.018512 27.036189 
L 97.847235 27.036189 
L 97.847235 22.324126 
L 97.93932 22.324126 
L 148.492112 22.324126 
L 148.492112 27.036189 
L 148.584159 27.036189 
L 148.676274 27.036189 
L 148.676274 22.324126 
L 148.76835 22.324126 
L 149.04458 22.324126 
L 149.04458 27.036189 
L 149.136682 27.036189 
L 149.597048 27.036189 
L 149.597048 31.748252 
L 149.689166 31.748252 
L 149.965419 31.748252 
L 149.965419 36.460315 
L 150.057477 36.460315 
L 154.937789 36.460315 
L 154.937789 41.172378 
L 155.029868 41.172378 
L 165.803435 41.172378 
L 165.803435 36.460315 
L 165.895519 36.460315 
L 186.245518 36.460315 
L 186.245518 41.172378 
L 186.337626 41.172378 
L 193.4279 41.172378 
L 193.4279 36.460315 
L 193.519975 36.460315 
L 215.895832 36.460315 
L 215.895832 31.748252 
L 215.987907 31.748252 
L 218.842394 31.748252 
L 218.842394 27.036189 
L 218.93448 27.036189 
L 223.998985 27.036189 
L 223.998985 22.324126 
L 250.518491 22.324126 
L 250.518491 31.748252 
L 250.610537 31.748252 
L 251.070935 31.748252 
L 251.070935 36.460315 
L 251.16306 36.460315 
L 283.11535 36.460315 
L 283.11535 41.172378 
L 283.207465 41.172378 
L 289.745231 41.172378 
L 289.745231 36.460315 
L 289.837301 36.460315 
L 294.165157 36.460315 
L 294.165157 31.748252 
L 294.257212 31.748252 
L 295.454255 31.748252 
L 295.454255 27.036189 
L 295.546383 27.036189 
L 303.005 27.036189 
L 303.005 27.036189 
" style="fill:none;stroke:#66a61e;stroke-linecap:square;stroke-width:1.5;"/>
   </g>
   <g id="line2d_25">
    <path clip-path="url(#paaefeeff70)" d="M 55.905 191.958393 
L 64.697866 191.958393 
L 64.697866 187.24633 
L 64.789946 187.24633 
L 65.618691 187.24633 
L 65.618691 182.534267 
L 65.710768 182.534267 
L 65.987005 182.534267 
L 65.987005 177.822204 
L 66.079098 177.822204 
L 69.486097 177.822204 
L 69.486097 173.110142 
L 69.57818 173.110142 
L 69.854422 173.110142 
L 69.854422 168.398079 
L 69.946514 168.398079 
L 73.537665 168.398079 
L 73.537665 163.686016 
L 73.629761 163.686016 
L 86.613263 163.686016 
L 86.613263 154.26189 
L 86.705326 154.26189 
L 86.797452 154.26189 
L 86.797452 144.837764 
L 86.889488 144.837764 
L 87.349915 144.837764 
L 87.349915 140.125701 
L 87.441987 140.125701 
L 88.086585 140.125701 
L 88.086585 135.413638 
L 88.178652 135.413638 
L 91.40151 135.413638 
L 91.40151 130.701575 
L 91.493588 130.701575 
L 91.769805 130.701575 
L 91.769805 121.277449 
L 91.861934 121.277449 
L 92.138169 121.277449 
L 92.138169 116.565386 
L 92.230256 116.565386 
L 93.24315 116.565386 
L 93.24315 111.853323 
L 93.335221 111.853323 
L 95.268911 111.853323 
L 95.268911 107.14126 
L 95.361146 107.14126 
L 95.637238 107.14126 
L 95.637238 102.429197 
L 95.729357 102.429197 
L 95.821399 102.429197 
L 95.821399 93.005071 
L 95.913491 93.005071 
L 96.189755 93.005071 
L 96.189755 88.293008 
L 96.281859 88.293008 
L 96.3739 88.293008 
L 96.419959 74.156819 
L 96.466 74.156819 
L 96.558087 74.156819 
L 96.558087 64.732693 
L 96.650181 64.732693 
L 97.294711 64.732693 
L 97.294711 69.444756 
L 97.386833 69.444756 
L 100.057158 69.444756 
L 100.057158 60.02063 
L 100.149272 60.02063 
L 100.241367 60.02063 
L 100.241367 55.308567 
L 100.333447 55.308567 
L 100.609667 55.308567 
L 100.609667 50.596504 
L 100.701751 50.596504 
L 100.793852 50.596504 
L 100.793852 41.172378 
L 100.885914 41.172378 
L 100.978015 41.172378 
L 100.978015 36.460315 
L 101.070073 36.460315 
L 101.346347 36.460315 
L 101.346347 31.748252 
L 101.438397 31.748252 
L 252.544267 31.748252 
L 252.544267 36.460315 
L 252.636328 36.460315 
L 256.779997 36.460315 
L 256.779997 31.748252 
L 256.872104 31.748252 
L 303.005 31.748252 
L 303.005 31.748252 
" style="fill:none;stroke:#e6ab02;stroke-linecap:square;stroke-width:1.5;"/>
   </g>
   <g id="line2d_26">
    <path clip-path="url(#paaefeeff70)" d="M 55.905 196.670456 
L 60.83046 196.670456 
L 60.83046 191.958393 
L 60.922513 191.958393 
L 64.51371 191.958393 
L 64.51371 187.24633 
L 64.605757 187.24633 
L 64.697866 187.24633 
L 64.697866 182.534267 
L 64.789946 182.534267 
L 65.066173 182.534267 
L 65.066173 177.822204 
L 65.158265 177.822204 
L 65.250335 177.822204 
L 65.250335 173.110142 
L 65.342415 173.110142 
L 65.4345 173.110142 
L 65.4345 163.686016 
L 65.526569 163.686016 
L 65.618691 163.686016 
L 65.618691 158.973953 
L 65.710768 158.973953 
L 65.802817 158.973953 
L 65.802817 154.26189 
L 65.894893 154.26189 
L 68.749449 154.26189 
L 68.749449 149.549827 
L 68.841521 149.549827 
L 68.933608 149.549827 
L 68.933608 140.125701 
L 69.025687 140.125701 
L 69.301904 140.125701 
L 69.301904 135.413638 
L 69.394008 135.413638 
L 69.486097 135.413638 
L 69.486097 125.989512 
L 69.57818 125.989512 
L 69.854422 125.989512 
L 69.854422 121.277449 
L 69.946514 121.277449 
L 70.222742 121.277449 
L 70.222742 116.565386 
L 70.314845 116.565386 
L 70.406916 116.565386 
L 70.406916 111.853323 
L 70.498981 111.853323 
L 73.721868 111.853323 
L 73.721868 107.14126 
L 73.81394 107.14126 
L 74.458507 107.14126 
L 74.458507 102.429197 
L 74.55058 102.429197 
L 79.246719 102.429197 
L 79.246719 97.717134 
L 79.33882 97.717134 
L 86.613263 97.717134 
L 86.613263 93.005071 
L 86.705326 93.005071 
L 87.165772 93.005071 
L 87.165772 78.868882 
L 87.257833 78.868882 
L 87.349915 78.868882 
L 87.349915 69.444756 
L 87.441987 69.444756 
L 87.534097 69.444756 
L 87.534097 60.02063 
L 87.626157 60.02063 
L 88.086585 60.02063 
L 88.086585 55.308567 
L 88.178652 55.308567 
L 90.664857 55.308567 
L 90.664857 50.596504 
L 90.756933 50.596504 
L 91.217335 50.596504 
L 91.217335 45.884441 
L 91.309444 45.884441 
L 91.40151 45.884441 
L 91.40151 41.172378 
L 91.493588 41.172378 
L 91.585662 41.172378 
L 91.585662 36.460315 
L 91.677738 36.460315 
L 92.138169 36.460315 
L 92.138169 31.748252 
L 92.230256 31.748252 
L 303.005 31.748252 
L 303.005 31.748252 
" style="fill:none;stroke:#a6761d;stroke-linecap:square;stroke-width:1.5;"/>
   </g>
   <g id="line2d_27">
    <path clip-path="url(#paaefeeff70)" d="M 55.905 201.382519 
L 64.882011 201.382519 
L 64.882011 196.670456 
L 64.974107 196.670456 
L 65.4345 196.670456 
L 65.4345 191.958393 
L 65.526569 191.958393 
L 69.486097 191.958393 
L 69.486097 187.24633 
L 69.57818 187.24633 
L 69.854422 187.24633 
L 69.854422 191.958393 
L 69.946514 191.958393 
L 70.038584 191.958393 
L 70.038584 182.534267 
L 70.130652 182.534267 
L 86.797452 182.534267 
L 86.797452 177.822204 
L 86.889488 177.822204 
L 87.165772 177.822204 
L 87.165772 173.110142 
L 87.257833 173.110142 
L 87.534097 173.110142 
L 87.534097 168.398079 
L 87.626157 168.398079 
L 87.718263 168.398079 
L 87.718263 163.686016 
L 87.81032 163.686016 
L 88.639049 163.686016 
L 88.639049 158.973953 
L 88.731167 158.973953 
L 91.585662 158.973953 
L 91.585662 154.26189 
L 91.677738 154.26189 
L 92.138169 154.26189 
L 92.138169 149.549827 
L 92.230256 149.549827 
L 92.32233 149.549827 
L 92.32233 144.837764 
L 92.414409 144.837764 
L 95.453079 144.837764 
L 95.453079 135.413638 
L 95.545198 135.413638 
L 95.637238 135.413638 
L 95.637238 130.701575 
L 95.729357 130.701575 
L 95.821399 130.701575 
L 95.867444 116.565386 
L 95.913491 116.565386 
L 96.558087 116.565386 
L 96.558087 111.853323 
L 96.650181 111.853323 
L 96.742224 111.853323 
L 96.742224 107.14126 
L 96.834337 107.14126 
L 96.926411 107.14126 
L 96.926411 111.853323 
L 97.018512 111.853323 
L 97.110558 111.853323 
L 97.110558 107.14126 
L 97.202672 107.14126 
L 97.294711 107.14126 
L 97.294711 102.429197 
L 97.386833 102.429197 
L 99.504698 102.429197 
L 99.504698 107.14126 
L 99.596753 107.14126 
L 100.057158 107.14126 
L 100.057158 93.005071 
L 100.149272 93.005071 
L 100.425497 93.005071 
L 100.425497 88.293008 
L 100.517564 88.293008 
L 100.793852 88.293008 
L 100.793852 69.444756 
L 100.885914 69.444756 
L 100.978015 69.444756 
L 100.978015 64.732693 
L 101.070073 64.732693 
L 105.02957 64.732693 
L 105.02957 60.02063 
L 105.121645 60.02063 
L 119.946822 60.02063 
L 119.946822 55.308567 
L 120.038903 55.308567 
L 122.893424 55.308567 
L 122.893424 50.596504 
L 122.98548 50.596504 
L 123.077565 50.596504 
L 123.077565 55.308567 
L 123.169668 55.308567 
L 123.445893 55.308567 
L 123.445893 50.596504 
L 123.537997 50.596504 
L 127.865839 50.596504 
L 127.865839 45.884441 
L 127.957908 45.884441 
L 135.416483 45.884441 
L 135.416483 50.596504 
L 135.508574 50.596504 
L 140.573061 50.596504 
L 140.573061 45.884441 
L 140.665154 45.884441 
L 148.492112 45.884441 
L 148.492112 50.596504 
L 148.584159 50.596504 
L 148.860388 50.596504 
L 148.860388 55.308567 
L 148.952516 55.308567 
L 149.412884 55.308567 
L 149.412884 60.02063 
L 149.504967 60.02063 
L 154.569461 60.02063 
L 154.569461 64.732693 
L 154.66158 64.732693 
L 162.488464 64.732693 
L 162.488464 69.444756 
L 162.580572 69.444756 
L 180.904822 69.444756 
L 180.904822 74.156819 
L 180.996884 74.156819 
L 264.514872 74.156819 
L 264.514872 69.444756 
L 264.606992 69.444756 
L 269.487296 69.444756 
L 269.487296 74.156819 
L 269.579401 74.156819 
L 303.005 74.156819 
L 303.005 74.156819 
" style="fill:none;stroke:#666666;stroke-linecap:square;stroke-width:1.5;"/>
   </g>
   <g id="line2d_28">
    <path clip-path="url(#paaefeeff70)" d="M 55.905 196.670456 
L 59.998626 196.670456 
L 59.998626 191.958393 
L 65.4345 191.958393 
L 65.4345 187.24633 
L 65.526569 187.24633 
L 69.11775 187.24633 
L 69.11775 182.534267 
L 69.20983 182.534267 
L 69.486097 182.534267 
L 69.486097 177.822204 
L 69.57818 177.822204 
L 70.038584 177.822204 
L 70.038584 173.110142 
L 70.130652 173.110142 
L 70.222742 173.110142 
L 70.222742 168.398079 
L 70.314845 168.398079 
L 71.327729 168.398079 
L 71.327729 163.686016 
L 71.419829 163.686016 
L 87.165772 163.686016 
L 87.165772 154.26189 
L 87.257833 154.26189 
L 91.40151 154.26189 
L 91.40151 149.549827 
L 91.493588 149.549827 
L 92.32233 149.549827 
L 92.32233 144.837764 
L 92.414409 144.837764 
L 92.874835 144.837764 
L 92.874835 140.125701 
L 92.966906 140.125701 
L 95.637238 140.125701 
L 95.637238 135.413638 
L 95.729357 135.413638 
L 95.821399 135.413638 
L 95.821399 125.989512 
L 95.913491 125.989512 
L 96.3739 125.989512 
L 96.3739 116.565386 
L 96.466 116.565386 
L 100.425497 116.565386 
L 100.425497 111.853323 
L 100.517564 111.853323 
L 100.978015 111.853323 
L 100.978015 107.14126 
L 101.070073 107.14126 
L 101.530467 107.14126 
L 101.530467 102.429197 
L 101.62257 102.429197 
L 106.134576 102.429197 
L 106.134576 97.717134 
L 106.22666 97.717134 
L 118.841826 97.717134 
L 118.841826 93.005071 
L 118.93392 93.005071 
L 123.077565 93.005071 
L 123.077565 88.293008 
L 123.169668 88.293008 
L 127.865839 88.293008 
L 127.865839 93.005071 
L 127.957908 93.005071 
L 149.04458 93.005071 
L 149.04458 88.293008 
L 149.136682 88.293008 
L 149.228727 88.293008 
L 149.228727 93.005071 
L 149.320826 93.005071 
L 153.832825 93.005071 
L 153.832825 88.293008 
L 153.924928 88.293008 
L 186.245518 88.293008 
L 186.245518 83.580945 
L 186.337626 83.580945 
L 215.71163 83.580945 
L 215.71163 78.868882 
L 215.80371 78.868882 
L 225.10397 78.868882 
L 225.10397 83.580945 
L 225.196043 83.580945 
L 283.483689 83.580945 
L 283.483689 88.293008 
L 283.575759 88.293008 
L 285.69366 88.293008 
L 285.69366 93.005071 
L 285.785739 93.005071 
L 301.163364 93.005071 
L 301.163364 88.293008 
L 301.255427 88.293008 
L 303.005 88.293008 
L 303.005 88.293008 
" style="fill:none;stroke:#1b9e77;stroke-dasharray:4.5,1.5;stroke-dashoffset:0;stroke-width:1.5;"/>
   </g>
   <g id="line2d_29">
    <path clip-path="url(#paaefeeff70)" d="M 55.905 206.094582 
L 64.882011 206.094582 
L 64.882011 201.382519 
L 64.974107 201.382519 
L 69.854422 201.382519 
L 69.854422 191.958393 
L 69.946514 191.958393 
L 86.613263 191.958393 
L 86.613263 187.24633 
L 86.705326 187.24633 
L 86.981597 187.24633 
L 86.981597 182.534267 
L 87.07365 182.534267 
L 87.534097 182.534267 
L 87.534097 177.822204 
L 87.626157 177.822204 
L 91.033175 177.822204 
L 91.033175 173.110142 
L 91.125255 173.110142 
L 91.217335 173.110142 
L 91.217335 163.686016 
L 91.309444 163.686016 
L 91.40151 163.686016 
L 91.40151 158.973953 
L 91.493588 158.973953 
L 91.769805 158.973953 
L 91.769805 154.26189 
L 91.861934 154.26189 
L 91.954005 154.26189 
L 91.954005 144.837764 
L 92.046089 144.837764 
L 92.138169 144.837764 
L 92.138169 135.413638 
L 92.230256 135.413638 
L 92.874835 135.413638 
L 92.874835 130.701575 
L 92.966906 130.701575 
L 93.24315 130.701575 
L 93.24315 125.989512 
L 93.335221 125.989512 
L 93.427279 125.989512 
L 93.427279 130.701575 
L 93.519409 130.701575 
L 95.084767 130.701575 
L 95.084767 135.413638 
L 95.176871 135.413638 
L 95.268911 135.413638 
L 95.268911 140.125701 
L 95.361146 140.125701 
L 95.453079 140.125701 
L 95.453079 135.413638 
L 95.545198 135.413638 
L 95.637238 135.413638 
L 95.637238 140.125701 
L 95.729357 140.125701 
L 95.821399 140.125701 
L 95.821399 135.413638 
L 95.913491 135.413638 
L 96.005581 135.413638 
L 96.005581 130.701575 
L 96.097664 130.701575 
L 96.3739 130.701575 
L 96.3739 135.413638 
L 96.466 135.413638 
L 100.609667 135.413638 
L 100.609667 130.701575 
L 100.701751 130.701575 
L 100.978015 130.701575 
L 100.978015 125.989512 
L 101.070073 125.989512 
L 105.213757 125.989512 
L 105.213757 121.277449 
L 105.30582 121.277449 
L 106.502884 121.277449 
L 106.502884 116.565386 
L 106.59495 116.565386 
L 118.28933 116.565386 
L 118.28933 111.853323 
L 118.381427 111.853323 
L 118.473491 111.853323 
L 118.473491 107.14126 
L 118.565579 107.14126 
L 119.210125 107.14126 
L 119.210125 102.429197 
L 119.302237 102.429197 
L 127.865839 102.429197 
L 127.865839 97.717134 
L 127.957908 97.717134 
L 128.41828 97.717134 
L 128.41828 93.005071 
L 128.510398 93.005071 
L 137.626468 93.005071 
L 137.626468 88.293008 
L 137.718525 88.293008 
L 141.678039 88.293008 
L 141.678039 93.005071 
L 141.770124 93.005071 
L 148.860388 93.005071 
L 148.860388 97.717134 
L 148.952516 97.717134 
L 180.536487 97.717134 
L 180.536487 93.005071 
L 180.628582 93.005071 
L 211.660078 93.005071 
L 211.660078 88.293008 
L 211.752139 88.293008 
L 215.159165 88.293008 
L 215.159165 83.580945 
L 215.251218 83.580945 
L 227.866403 83.580945 
L 227.866403 78.868882 
L 227.958498 78.868882 
L 254.754257 78.868882 
L 254.754257 83.580945 
L 254.846336 83.580945 
L 254.938374 83.580945 
L 254.938374 78.868882 
L 255.030454 78.868882 
L 291.955181 78.868882 
L 291.955181 83.580945 
L 292.047245 83.580945 
L 300.426692 83.580945 
L 300.426692 88.293008 
L 300.518754 88.293008 
L 303.005 88.293008 
L 303.005 88.293008 
" style="fill:none;stroke:#d95f02;stroke-dasharray:4.5,1.5;stroke-dashoffset:0;stroke-width:1.5;"/>
   </g>
   <g id="line2d_30">
    <path clip-path="url(#paaefeeff70)" d="M 55.905 210.806645 
L 61.382896 210.806645 
L 61.382896 206.094582 
L 61.474982 206.094582 
L 62.119585 206.094582 
L 62.119585 201.382519 
L 62.211657 201.382519 
L 73.721868 201.382519 
L 73.721868 196.670456 
L 73.81394 196.670456 
L 86.613263 196.670456 
L 86.613263 191.958393 
L 86.705326 191.958393 
L 87.902399 191.958393 
L 87.902399 182.534267 
L 87.994472 182.534267 
L 91.40151 182.534267 
L 91.40151 177.822204 
L 91.493588 177.822204 
L 91.585662 177.822204 
L 91.585662 173.110142 
L 91.677738 173.110142 
L 92.138169 173.110142 
L 92.138169 163.686016 
L 92.230256 163.686016 
L 92.32233 163.686016 
L 92.32233 158.973953 
L 92.414409 158.973953 
L 93.427279 158.973953 
L 93.427279 154.26189 
L 93.519409 154.26189 
L 95.637238 154.26189 
L 95.637238 158.973953 
L 95.729357 158.973953 
L 96.005581 158.973953 
L 96.005581 154.26189 
L 96.097664 154.26189 
L 96.189755 154.26189 
L 96.189755 149.549827 
L 96.281859 149.549827 
L 96.558087 149.549827 
L 96.558087 144.837764 
L 96.650181 144.837764 
L 96.742224 144.837764 
L 96.742224 149.549827 
L 96.834337 149.549827 
L 96.926411 149.549827 
L 96.926411 144.837764 
L 97.018512 144.837764 
L 100.057158 144.837764 
L 100.057158 140.125701 
L 100.149272 140.125701 
L 105.950411 140.125701 
L 105.950411 135.413638 
L 106.04248 135.413638 
L 118.28933 135.413638 
L 118.28933 130.701575 
L 118.381427 130.701575 
L 135.784819 130.701575 
L 135.784819 125.989512 
L 135.876942 125.989512 
L 157.700255 125.989512 
L 157.700255 121.277449 
L 157.79234 121.277449 
L 180.904822 121.277449 
L 180.904822 116.565386 
L 180.996884 116.565386 
L 223.998985 116.565386 
L 223.998985 111.853323 
L 241.678635 111.853323 
L 241.678635 107.14126 
L 241.770738 107.14126 
L 278.142939 107.14126 
L 278.142939 102.429197 
L 278.235028 102.429197 
L 283.29951 102.429197 
L 283.29951 97.717134 
L 283.391595 97.717134 
L 290.113534 97.717134 
L 290.113534 93.005071 
L 290.20564 93.005071 
L 303.005 93.005071 
L 303.005 93.005071 
" style="fill:none;stroke:#7570b3;stroke-dasharray:4.5,1.5;stroke-dashoffset:0;stroke-width:1.5;"/>
   </g>
   <g id="line2d_31">
    <path clip-path="url(#paaefeeff70)" d="M 55.905 210.806645 
L 60.646439 210.806645 
L 60.646439 206.094582 
L 60.738362 206.094582 
L 61.014613 206.094582 
L 61.014613 201.382519 
L 61.106714 201.382519 
L 65.250335 201.382519 
L 65.250335 196.670456 
L 65.342415 196.670456 
L 70.038584 196.670456 
L 70.038584 191.958393 
L 70.130652 191.958393 
L 72.985202 191.958393 
L 72.985202 187.24633 
L 73.077311 187.24633 
L 73.905998 187.24633 
L 73.905998 182.534267 
L 73.998099 182.534267 
L 74.274341 182.534267 
L 74.274341 177.822204 
L 74.366405 177.822204 
L 86.613263 177.822204 
L 86.613263 168.398079 
L 86.705326 168.398079 
L 86.981597 168.398079 
L 86.981597 163.686016 
L 87.07365 163.686016 
L 87.165772 163.686016 
L 87.165772 158.973953 
L 87.257833 158.973953 
L 87.349915 158.973953 
L 87.349915 154.26189 
L 87.441987 154.26189 
L 87.534097 154.26189 
L 87.534097 144.837764 
L 87.626157 144.837764 
L 87.718263 144.837764 
L 87.718263 140.125701 
L 87.81032 140.125701 
L 88.086585 140.125701 
L 88.086585 135.413638 
L 88.178652 135.413638 
L 88.454927 135.413638 
L 88.454927 130.701575 
L 88.546993 130.701575 
L 89.007367 130.701575 
L 89.007367 125.989512 
L 89.099492 125.989512 
L 91.033175 125.989512 
L 91.033175 121.277449 
L 91.125255 121.277449 
L 91.217335 121.277449 
L 91.217335 116.565386 
L 91.309444 116.565386 
L 91.40151 116.565386 
L 91.40151 102.429197 
L 91.493588 102.429197 
L 91.585662 102.429197 
L 91.585662 97.717134 
L 91.677738 97.717134 
L 91.769805 97.717134 
L 91.769805 93.005071 
L 91.861934 93.005071 
L 93.427279 93.005071 
L 93.427279 97.717134 
L 93.519409 97.717134 
L 95.821399 97.717134 
L 95.821399 93.005071 
L 95.913491 93.005071 
L 96.005581 93.005071 
L 96.005581 97.717134 
L 96.097664 97.717134 
L 96.189755 97.717134 
L 96.189755 93.005071 
L 96.281859 93.005071 
L 101.346347 93.005071 
L 101.346347 97.717134 
L 101.438397 97.717134 
L 101.530467 97.717134 
L 101.530467 93.005071 
L 101.62257 93.005071 
L 277.774642 93.005071 
L 277.774642 97.717134 
L 277.866686 97.717134 
L 291.955181 97.717134 
L 291.955181 93.005071 
L 292.047245 93.005071 
L 303.005 93.005071 
L 303.005 93.005071 
" style="fill:none;stroke:#e7298a;stroke-dasharray:4.5,1.5;stroke-dashoffset:0;stroke-width:1.5;"/>
   </g>
   <g id="line2d_32">
    <path clip-path="url(#paaefeeff70)" d="M 138.593307 210.806645 
L 140.204722 210.806645 
L 140.204722 206.094582 
L 140.296835 206.094582 
L 145.729655 206.094582 
L 145.729655 201.382519 
L 145.82171 201.382519 
L 148.492112 201.382519 
L 148.492112 182.534267 
L 148.584159 182.534267 
L 148.860388 182.534267 
L 148.860388 173.110142 
L 148.952516 173.110142 
L 149.228727 173.110142 
L 149.228727 158.973953 
L 149.320826 158.973953 
L 149.597048 158.973953 
L 149.597048 154.26189 
L 149.689166 154.26189 
L 153.280349 154.26189 
L 153.280349 149.549827 
L 153.372429 149.549827 
L 154.201154 149.549827 
L 154.201154 144.837764 
L 154.29323 144.837764 
L 154.569461 144.837764 
L 154.569461 140.125701 
L 154.66158 140.125701 
L 154.937789 140.125701 
L 154.937789 135.413638 
L 155.029868 135.413638 
L 155.121959 135.413638 
L 155.121959 130.701575 
L 155.214021 130.701575 
L 157.700255 130.701575 
L 157.700255 125.989512 
L 157.79234 125.989512 
L 159.357693 125.989512 
L 159.357693 121.277449 
L 159.449806 121.277449 
L 162.488464 121.277449 
L 162.488464 116.565386 
L 162.580572 116.565386 
L 218.842394 116.565386 
L 218.842394 121.277449 
L 218.93448 121.277449 
L 219.763199 121.277449 
L 219.763199 116.565386 
L 219.855316 116.565386 
L 250.702644 116.565386 
L 250.702644 111.853323 
L 250.794739 111.853323 
L 251.070935 111.853323 
L 251.070935 107.14126 
L 251.16306 107.14126 
L 252.544267 107.14126 
L 252.544267 102.429197 
L 252.636328 102.429197 
L 277.590442 102.429197 
L 277.590442 97.717134 
L 277.682531 97.717134 
L 303.005 97.717134 
L 303.005 97.717134 
" style="fill:none;stroke:#66a61e;stroke-dasharray:4.5,1.5;stroke-dashoffset:0;stroke-width:1.5;"/>
   </g>
   <g id="line2d_33">
    <path clip-path="url(#paaefeeff70)" d="M 55.905 206.094582 
L 64.51371 206.094582 
L 64.51371 201.382519 
L 64.605757 201.382519 
L 64.697866 201.382519 
L 64.697866 196.670456 
L 64.789946 196.670456 
L 65.4345 196.670456 
L 65.4345 187.24633 
L 65.526569 187.24633 
L 68.933608 187.24633 
L 68.933608 182.534267 
L 69.025687 182.534267 
L 69.854422 182.534267 
L 69.854422 177.822204 
L 69.946514 177.822204 
L 70.038584 177.822204 
L 70.038584 173.110142 
L 70.130652 173.110142 
L 70.222742 173.110142 
L 70.222742 168.398079 
L 70.314845 168.398079 
L 86.981597 168.398079 
L 86.981597 163.686016 
L 87.07365 163.686016 
L 87.165772 163.686016 
L 87.165772 158.973953 
L 87.257833 158.973953 
L 87.349915 158.973953 
L 87.349915 149.549827 
L 87.441987 149.549827 
L 91.954005 149.549827 
L 91.954005 144.837764 
L 92.046089 144.837764 
L 92.138169 144.837764 
L 92.138169 140.125701 
L 92.230256 140.125701 
L 95.268911 140.125701 
L 95.268911 144.837764 
L 95.361146 144.837764 
L 95.821399 144.837764 
L 95.821399 135.413638 
L 95.913491 135.413638 
L 96.005581 135.413638 
L 96.005581 140.125701 
L 96.097664 140.125701 
L 96.189755 140.125701 
L 96.189755 135.413638 
L 96.281859 135.413638 
L 96.558087 135.413638 
L 96.558087 125.989512 
L 96.650181 125.989512 
L 96.742224 125.989512 
L 96.742224 121.277449 
L 96.834337 121.277449 
L 105.397889 121.277449 
L 105.397889 116.565386 
L 105.490012 116.565386 
L 105.950411 116.565386 
L 105.950411 111.853323 
L 106.04248 111.853323 
L 114.790215 111.853323 
L 114.790215 107.14126 
L 114.882299 107.14126 
L 131.549064 107.14126 
L 131.549064 102.429197 
L 131.64116 102.429197 
L 132.285716 102.429197 
L 132.285716 97.717134 
L 132.377841 97.717134 
L 135.969008 97.717134 
L 135.969008 93.005071 
L 136.061095 93.005071 
L 150.517906 93.005071 
L 150.517906 88.293008 
L 150.609955 88.293008 
L 260.279095 88.293008 
L 260.279095 93.005071 
L 260.371219 93.005071 
L 264.514872 93.005071 
L 264.514872 97.717134 
L 264.606992 97.717134 
L 303.005 97.717134 
L 303.005 97.717134 
" style="fill:none;stroke:#e6ab02;stroke-dasharray:4.5,1.5;stroke-dashoffset:0;stroke-width:1.5;"/>
   </g>
   <g id="line2d_34">
    <path clip-path="url(#paaefeeff70)" d="M 55.905 206.094582 
L 65.066173 206.094582 
L 65.066173 196.670456 
L 65.158265 196.670456 
L 69.11775 196.670456 
L 69.11775 187.24633 
L 69.20983 187.24633 
L 69.301904 187.24633 
L 69.301904 182.534267 
L 69.394008 182.534267 
L 70.038584 182.534267 
L 70.038584 177.822204 
L 70.130652 177.822204 
L 70.222742 177.822204 
L 70.222742 173.110142 
L 70.314845 173.110142 
L 87.349915 173.110142 
L 87.349915 168.398079 
L 87.441987 168.398079 
L 87.534097 168.398079 
L 87.534097 163.686016 
L 87.626157 163.686016 
L 87.718263 163.686016 
L 87.718263 158.973953 
L 87.81032 158.973953 
L 88.270712 158.973953 
L 88.270712 154.26189 
L 88.362836 154.26189 
L 88.454927 154.26189 
L 88.454927 158.973953 
L 88.546993 158.973953 
L 91.033175 158.973953 
L 91.033175 140.125701 
L 91.125255 140.125701 
L 91.40151 140.125701 
L 91.40151 130.701575 
L 91.493588 130.701575 
L 91.585662 130.701575 
L 91.585662 125.989512 
L 91.677738 125.989512 
L 91.769805 125.989512 
L 91.769805 116.565386 
L 91.861934 116.565386 
L 303.005 116.565386 
L 303.005 116.565386 
" style="fill:none;stroke:#a6761d;stroke-dasharray:4.5,1.5;stroke-dashoffset:0;stroke-width:1.5;"/>
   </g>
   <g id="line2d_35">
    <path clip-path="url(#paaefeeff70)" d="M 55.905 210.806645 
L 65.4345 210.806645 
L 65.4345 206.094582 
L 65.526569 206.094582 
L 65.618691 206.094582 
L 65.618691 201.382519 
L 65.710768 201.382519 
L 69.301904 201.382519 
L 69.301904 196.670456 
L 69.394008 196.670456 
L 70.222742 196.670456 
L 70.222742 191.958393 
L 70.314845 191.958393 
L 70.591069 191.958393 
L 70.591069 187.24633 
L 70.683171 187.24633 
L 70.959414 187.24633 
L 70.959414 182.534267 
L 71.051503 182.534267 
L 73.721868 182.534267 
L 73.721868 187.24633 
L 73.81394 187.24633 
L 86.797452 187.24633 
L 86.797452 182.534267 
L 86.889488 182.534267 
L 87.902399 182.534267 
L 87.902399 173.110142 
L 87.994472 173.110142 
L 91.217335 173.110142 
L 91.217335 168.398079 
L 91.309444 168.398079 
L 91.954005 168.398079 
L 91.954005 149.549827 
L 92.046089 149.549827 
L 92.138169 149.549827 
L 92.138169 144.837764 
L 92.230256 144.837764 
L 92.32233 144.837764 
L 92.32233 140.125701 
L 92.414409 140.125701 
L 148.860388 140.125701 
L 148.860388 144.837764 
L 148.952516 144.837764 
L 149.04458 144.837764 
L 149.04458 140.125701 
L 149.136682 140.125701 
L 260.279095 140.125701 
L 260.279095 135.413638 
L 260.371219 135.413638 
L 269.487296 135.413638 
L 269.487296 130.701575 
L 269.579401 130.701575 
L 283.11535 130.701575 
L 283.11535 125.989512 
L 283.207465 125.989512 
L 285.69366 125.989512 
L 285.69366 121.277449 
L 285.785739 121.277449 
L 286.430305 121.277449 
L 286.430305 116.565386 
L 286.522371 116.565386 
L 303.005 116.565386 
L 303.005 116.565386 
" style="fill:none;stroke:#666666;stroke-dasharray:4.5,1.5;stroke-dashoffset:0;stroke-width:1.5;"/>
   </g>
   <g id="line2d_36"/>
   <g id="line2d_37"/>
   <g id="line2d_38"/>
   <g id="line2d_39"/>
   <g id="line2d_40"/>
   <g id="line2d_41"/>
   <g id="line2d_42"/>
   <g id="line2d_43"/>
   <g id="line2d_44"/>
   <g id="line2d_45"/>
   <g id="line2d_46"/>
   <g id="line2d_47"/>
   <g id="line2d_48"/>
   <g id="line2d_49"/>
   <g id="line2d_50"/>
   <g id="line2d_51"/>
   <g id="line2d_52"/>
   <g id="patch_3">
    <path d="M 43.55 220.230771 
L 43.55 12.9 
" style="fill:none;stroke:#000000;stroke-linecap:square;stroke-linejoin:miter;stroke-width:0.8;"/>
   </g>
   <g id="patch_4">
    <path d="M 315.36 220.230771 
L 315.36 12.9 
" style="fill:none;stroke:#000000;stroke-linecap:square;stroke-linejoin:miter;stroke-width:0.8;"/>
   </g>
   <g id="patch_5">
    <path d="M 43.55 220.230771 
L 315.36 220.230771 
" style="fill:none;stroke:#000000;stroke-linecap:square;stroke-linejoin:miter;stroke-width:0.8;"/>
   </g>
   <g id="patch_6">
    <path d="M 43.55 12.9 
L 315.36 12.9 
" style="fill:none;stroke:#000000;stroke-linecap:square;stroke-linejoin:miter;stroke-width:0.8;"/>
   </g>
  </g>
  <g id="legend_1">
   <g id="patch_7">
    <path d="M 331.8625 262.528125 
L 420 262.528125 
Q 422 262.528125 422 260.528125 
L 422 12 
Q 422 10 420 10 
L 331.8625 10 
Q 329.8625 10 329.8625 12 
L 329.8625 260.528125 
Q 329.8625 262.528125 331.8625 262.528125 
z
" style="fill:#ffffff;opacity:0.8;stroke:#cccccc;stroke-linejoin:miter;"/>
   </g>
   <g id="text_22">
    <!-- 494/610 Reg. -->
    <defs>
     <path d="M 25.390625 72.90625 
L 33.6875 72.90625 
L 8.296875 -9.28125 
L 0 -9.28125 
z
" id="DejaVuSans-47"/>
     <path d="M 33.015625 40.375 
Q 26.375 40.375 22.484375 35.828125 
Q 18.609375 31.296875 18.609375 23.390625 
Q 18.609375 15.53125 22.484375 10.953125 
Q 26.375 6.390625 33.015625 6.390625 
Q 39.65625 6.390625 43.53125 10.953125 
Q 47.40625 15.53125 47.40625 23.390625 
Q 47.40625 31.296875 43.53125 35.828125 
Q 39.65625 40.375 33.015625 40.375 
z
M 52.59375 71.296875 
L 52.59375 62.3125 
Q 48.875 64.0625 45.09375 64.984375 
Q 41.3125 65.921875 37.59375 65.921875 
Q 27.828125 65.921875 22.671875 59.328125 
Q 17.53125 52.734375 16.796875 39.40625 
Q 19.671875 43.65625 24.015625 45.921875 
Q 28.375 48.1875 33.59375 48.1875 
Q 44.578125 48.1875 50.953125 41.515625 
Q 57.328125 34.859375 57.328125 23.390625 
Q 57.328125 12.15625 50.6875 5.359375 
Q 44.046875 -1.421875 33.015625 -1.421875 
Q 20.359375 -1.421875 13.671875 8.265625 
Q 6.984375 17.96875 6.984375 36.375 
Q 6.984375 53.65625 15.1875 63.9375 
Q 23.390625 74.21875 37.203125 74.21875 
Q 40.921875 74.21875 44.703125 73.484375 
Q 48.484375 72.75 52.59375 71.296875 
z
" id="DejaVuSans-54"/>
     <path d="M 10.6875 12.40625 
L 21 12.40625 
L 21 0 
L 10.6875 0 
z
" id="DejaVuSans-46"/>
    </defs>
    <g transform="translate(342.259375 21.598437)scale(0.1 -0.1)">
     <use xlink:href="#DejaVuSans-52"/>
     <use x="63.623047" xlink:href="#DejaVuSans-57"/>
     <use x="127.246094" xlink:href="#DejaVuSans-52"/>
     <use x="190.869141" xlink:href="#DejaVuSans-47"/>
     <use x="224.560547" xlink:href="#DejaVuSans-54"/>
     <use x="288.183594" xlink:href="#DejaVuSans-49"/>
     <use x="351.806641" xlink:href="#DejaVuSans-48"/>
     <use x="415.429688" xlink:href="#DejaVuSans-32"/>
     <use x="447.216797" xlink:href="#DejaVuSans-82"/>
     <use x="516.636719" xlink:href="#DejaVuSans-101"/>
     <use x="578.160156" xlink:href="#DejaVuSans-103"/>
     <use x="641.636719" xlink:href="#DejaVuSans-46"/>
    </g>
   </g>
   <g id="line2d_53">
    <path d="M 333.8625 32.776562 
L 353.8625 32.776562 
" style="fill:none;stroke:#1b9e77;stroke-linecap:square;stroke-width:1.5;"/>
   </g>
   <g id="line2d_54"/>
   <g id="text_23">
    <!-- AS (40) -->
    <defs>
     <path d="M 34.1875 63.1875 
L 20.796875 26.90625 
L 47.609375 26.90625 
z
M 28.609375 72.90625 
L 39.796875 72.90625 
L 67.578125 0 
L 57.328125 0 
L 50.6875 18.703125 
L 17.828125 18.703125 
L 11.1875 0 
L 0.78125 0 
z
" id="DejaVuSans-65"/>
     <path d="M 31 75.875 
Q 24.46875 64.65625 21.28125 53.65625 
Q 18.109375 42.671875 18.109375 31.390625 
Q 18.109375 20.125 21.3125 9.0625 
Q 24.515625 -2 31 -13.1875 
L 23.1875 -13.1875 
Q 15.875 -1.703125 12.234375 9.375 
Q 8.59375 20.453125 8.59375 31.390625 
Q 8.59375 42.28125 12.203125 53.3125 
Q 15.828125 64.359375 23.1875 75.875 
z
" id="DejaVuSans-40"/>
     <path d="M 8.015625 75.875 
L 15.828125 75.875 
Q 23.140625 64.359375 26.78125 53.3125 
Q 30.421875 42.28125 30.421875 31.390625 
Q 30.421875 20.453125 26.78125 9.375 
Q 23.140625 -1.703125 15.828125 -13.1875 
L 8.015625 -13.1875 
Q 14.5 -2 17.703125 9.0625 
Q 20.90625 20.125 20.90625 31.390625 
Q 20.90625 42.671875 17.703125 53.65625 
Q 14.5 64.65625 8.015625 75.875 
z
" id="DejaVuSans-41"/>
    </defs>
    <g transform="translate(361.8625 36.276562)scale(0.1 -0.1)">
     <use xlink:href="#DejaVuSans-65"/>
     <use x="68.408203" xlink:href="#DejaVuSans-83"/>
     <use x="131.884766" xlink:href="#DejaVuSans-32"/>
     <use x="163.671875" xlink:href="#DejaVuSans-40"/>
     <use x="202.685547" xlink:href="#DejaVuSans-52"/>
     <use x="266.308594" xlink:href="#DejaVuSans-48"/>
     <use x="329.931641" xlink:href="#DejaVuSans-41"/>
    </g>
   </g>
   <g id="line2d_55">
    <path d="M 333.8625 47.454688 
L 353.8625 47.454688 
" style="fill:none;stroke:#d95f02;stroke-linecap:square;stroke-width:1.5;"/>
   </g>
   <g id="line2d_56"/>
   <g id="text_24">
    <!-- AUS (40) -->
    <defs>
     <path d="M 8.6875 72.90625 
L 18.609375 72.90625 
L 18.609375 28.609375 
Q 18.609375 16.890625 22.84375 11.734375 
Q 27.09375 6.59375 36.625 6.59375 
Q 46.09375 6.59375 50.34375 11.734375 
Q 54.59375 16.890625 54.59375 28.609375 
L 54.59375 72.90625 
L 64.5 72.90625 
L 64.5 27.390625 
Q 64.5 13.140625 57.4375 5.859375 
Q 50.390625 -1.421875 36.625 -1.421875 
Q 22.796875 -1.421875 15.734375 5.859375 
Q 8.6875 13.140625 8.6875 27.390625 
z
" id="DejaVuSans-85"/>
    </defs>
    <g transform="translate(361.8625 50.954688)scale(0.1 -0.1)">
     <use xlink:href="#DejaVuSans-65"/>
     <use x="68.408203" xlink:href="#DejaVuSans-85"/>
     <use x="141.601562" xlink:href="#DejaVuSans-83"/>
     <use x="205.078125" xlink:href="#DejaVuSans-32"/>
     <use x="236.865234" xlink:href="#DejaVuSans-40"/>
     <use x="275.878906" xlink:href="#DejaVuSans-52"/>
     <use x="339.501953" xlink:href="#DejaVuSans-48"/>
     <use x="403.125" xlink:href="#DejaVuSans-41"/>
    </g>
   </g>
   <g id="line2d_57">
    <path d="M 333.8625 62.132812 
L 353.8625 62.132812 
" style="fill:none;stroke:#7570b3;stroke-linecap:square;stroke-width:1.5;"/>
   </g>
   <g id="line2d_58"/>
   <g id="text_25">
    <!-- COML (40) -->
    <defs>
     <path d="M 64.40625 67.28125 
L 64.40625 56.890625 
Q 59.421875 61.53125 53.78125 63.8125 
Q 48.140625 66.109375 41.796875 66.109375 
Q 29.296875 66.109375 22.65625 58.46875 
Q 16.015625 50.828125 16.015625 36.375 
Q 16.015625 21.96875 22.65625 14.328125 
Q 29.296875 6.6875 41.796875 6.6875 
Q 48.140625 6.6875 53.78125 8.984375 
Q 59.421875 11.28125 64.40625 15.921875 
L 64.40625 5.609375 
Q 59.234375 2.09375 53.4375 0.328125 
Q 47.65625 -1.421875 41.21875 -1.421875 
Q 24.65625 -1.421875 15.125 8.703125 
Q 5.609375 18.84375 5.609375 36.375 
Q 5.609375 53.953125 15.125 64.078125 
Q 24.65625 74.21875 41.21875 74.21875 
Q 47.75 74.21875 53.53125 72.484375 
Q 59.328125 70.75 64.40625 67.28125 
z
" id="DejaVuSans-67"/>
     <path d="M 39.40625 66.21875 
Q 28.65625 66.21875 22.328125 58.203125 
Q 16.015625 50.203125 16.015625 36.375 
Q 16.015625 22.609375 22.328125 14.59375 
Q 28.65625 6.59375 39.40625 6.59375 
Q 50.140625 6.59375 56.421875 14.59375 
Q 62.703125 22.609375 62.703125 36.375 
Q 62.703125 50.203125 56.421875 58.203125 
Q 50.140625 66.21875 39.40625 66.21875 
z
M 39.40625 74.21875 
Q 54.734375 74.21875 63.90625 63.9375 
Q 73.09375 53.65625 73.09375 36.375 
Q 73.09375 19.140625 63.90625 8.859375 
Q 54.734375 -1.421875 39.40625 -1.421875 
Q 24.03125 -1.421875 14.8125 8.828125 
Q 5.609375 19.09375 5.609375 36.375 
Q 5.609375 53.65625 14.8125 63.9375 
Q 24.03125 74.21875 39.40625 74.21875 
z
" id="DejaVuSans-79"/>
     <path d="M 9.8125 72.90625 
L 24.515625 72.90625 
L 43.109375 23.296875 
L 61.8125 72.90625 
L 76.515625 72.90625 
L 76.515625 0 
L 66.890625 0 
L 66.890625 64.015625 
L 48.09375 14.015625 
L 38.1875 14.015625 
L 19.390625 64.015625 
L 19.390625 0 
L 9.8125 0 
z
" id="DejaVuSans-77"/>
     <path d="M 9.8125 72.90625 
L 19.671875 72.90625 
L 19.671875 8.296875 
L 55.171875 8.296875 
L 55.171875 0 
L 9.8125 0 
z
" id="DejaVuSans-76"/>
    </defs>
    <g transform="translate(361.8625 65.632812)scale(0.1 -0.1)">
     <use xlink:href="#DejaVuSans-67"/>
     <use x="69.824219" xlink:href="#DejaVuSans-79"/>
     <use x="148.535156" xlink:href="#DejaVuSans-77"/>
     <use x="234.814453" xlink:href="#DejaVuSans-76"/>
     <use x="290.527344" xlink:href="#DejaVuSans-32"/>
     <use x="322.314453" xlink:href="#DejaVuSans-40"/>
     <use x="361.328125" xlink:href="#DejaVuSans-52"/>
     <use x="424.951172" xlink:href="#DejaVuSans-48"/>
     <use x="488.574219" xlink:href="#DejaVuSans-41"/>
    </g>
   </g>
   <g id="line2d_59">
    <path d="M 333.8625 76.810937 
L 353.8625 76.810937 
" style="fill:none;stroke:#e7298a;stroke-linecap:square;stroke-width:1.5;"/>
   </g>
   <g id="line2d_60"/>
   <g id="text_26">
    <!-- GDD (40) -->
    <defs>
     <path d="M 59.515625 10.40625 
L 59.515625 29.984375 
L 43.40625 29.984375 
L 43.40625 38.09375 
L 69.28125 38.09375 
L 69.28125 6.78125 
Q 63.578125 2.734375 56.6875 0.65625 
Q 49.8125 -1.421875 42 -1.421875 
Q 24.90625 -1.421875 15.25 8.5625 
Q 5.609375 18.5625 5.609375 36.375 
Q 5.609375 54.25 15.25 64.234375 
Q 24.90625 74.21875 42 74.21875 
Q 49.125 74.21875 55.546875 72.453125 
Q 61.96875 70.703125 67.390625 67.28125 
L 67.390625 56.78125 
Q 61.921875 61.421875 55.765625 63.765625 
Q 49.609375 66.109375 42.828125 66.109375 
Q 29.4375 66.109375 22.71875 58.640625 
Q 16.015625 51.171875 16.015625 36.375 
Q 16.015625 21.625 22.71875 14.15625 
Q 29.4375 6.6875 42.828125 6.6875 
Q 48.046875 6.6875 52.140625 7.59375 
Q 56.25 8.5 59.515625 10.40625 
z
" id="DejaVuSans-71"/>
    </defs>
    <g transform="translate(361.8625 80.310937)scale(0.1 -0.1)">
     <use xlink:href="#DejaVuSans-71"/>
     <use x="77.490234" xlink:href="#DejaVuSans-68"/>
     <use x="154.492188" xlink:href="#DejaVuSans-68"/>
     <use x="231.494141" xlink:href="#DejaVuSans-32"/>
     <use x="263.28125" xlink:href="#DejaVuSans-40"/>
     <use x="302.294922" xlink:href="#DejaVuSans-52"/>
     <use x="365.917969" xlink:href="#DejaVuSans-48"/>
     <use x="429.541016" xlink:href="#DejaVuSans-41"/>
    </g>
   </g>
   <g id="line2d_61">
    <path d="M 333.8625 91.489062 
L 353.8625 91.489062 
" style="fill:none;stroke:#66a61e;stroke-linecap:square;stroke-width:1.5;"/>
   </g>
   <g id="line2d_62"/>
   <g id="text_27">
    <!-- SA (39) -->
    <g transform="translate(361.8625 94.989062)scale(0.1 -0.1)">
     <use xlink:href="#DejaVuSans-83"/>
     <use x="63.492188" xlink:href="#DejaVuSans-65"/>
     <use x="131.900391" xlink:href="#DejaVuSans-32"/>
     <use x="163.6875" xlink:href="#DejaVuSans-40"/>
     <use x="202.701172" xlink:href="#DejaVuSans-51"/>
     <use x="266.324219" xlink:href="#DejaVuSans-57"/>
     <use x="329.947266" xlink:href="#DejaVuSans-41"/>
    </g>
   </g>
   <g id="line2d_63">
    <path d="M 333.8625 106.167188 
L 353.8625 106.167188 
" style="fill:none;stroke:#e6ab02;stroke-linecap:square;stroke-width:1.5;"/>
   </g>
   <g id="line2d_64"/>
   <g id="text_28">
    <!-- MD (38) -->
    <g transform="translate(361.8625 109.667188)scale(0.1 -0.1)">
     <use xlink:href="#DejaVuSans-77"/>
     <use x="86.279297" xlink:href="#DejaVuSans-68"/>
     <use x="163.28125" xlink:href="#DejaVuSans-32"/>
     <use x="195.068359" xlink:href="#DejaVuSans-40"/>
     <use x="234.082031" xlink:href="#DejaVuSans-51"/>
     <use x="297.705078" xlink:href="#DejaVuSans-56"/>
     <use x="361.328125" xlink:href="#DejaVuSans-41"/>
    </g>
   </g>
   <g id="line2d_65">
    <path d="M 333.8625 120.845312 
L 353.8625 120.845312 
" style="fill:none;stroke:#a6761d;stroke-linecap:square;stroke-width:1.5;"/>
   </g>
   <g id="line2d_66"/>
   <g id="text_29">
    <!-- HPI (38) -->
    <defs>
     <path d="M 9.8125 72.90625 
L 19.671875 72.90625 
L 19.671875 43.015625 
L 55.515625 43.015625 
L 55.515625 72.90625 
L 65.375 72.90625 
L 65.375 0 
L 55.515625 0 
L 55.515625 34.71875 
L 19.671875 34.71875 
L 19.671875 0 
L 9.8125 0 
z
" id="DejaVuSans-72"/>
     <path d="M 19.671875 64.796875 
L 19.671875 37.40625 
L 32.078125 37.40625 
Q 38.96875 37.40625 42.71875 40.96875 
Q 46.484375 44.53125 46.484375 51.125 
Q 46.484375 57.671875 42.71875 61.234375 
Q 38.96875 64.796875 32.078125 64.796875 
z
M 9.8125 72.90625 
L 32.078125 72.90625 
Q 44.34375 72.90625 50.609375 67.359375 
Q 56.890625 61.8125 56.890625 51.125 
Q 56.890625 40.328125 50.609375 34.8125 
Q 44.34375 29.296875 32.078125 29.296875 
L 19.671875 29.296875 
L 19.671875 0 
L 9.8125 0 
z
" id="DejaVuSans-80"/>
     <path d="M 9.8125 72.90625 
L 19.671875 72.90625 
L 19.671875 0 
L 9.8125 0 
z
" id="DejaVuSans-73"/>
    </defs>
    <g transform="translate(361.8625 124.345312)scale(0.1 -0.1)">
     <use xlink:href="#DejaVuSans-72"/>
     <use x="75.195312" xlink:href="#DejaVuSans-80"/>
     <use x="135.498047" xlink:href="#DejaVuSans-73"/>
     <use x="164.990234" xlink:href="#DejaVuSans-32"/>
     <use x="196.777344" xlink:href="#DejaVuSans-40"/>
     <use x="235.791016" xlink:href="#DejaVuSans-51"/>
     <use x="299.414062" xlink:href="#DejaVuSans-56"/>
     <use x="363.037109" xlink:href="#DejaVuSans-41"/>
    </g>
   </g>
   <g id="line2d_67">
    <path d="M 333.8625 135.523438 
L 353.8625 135.523438 
" style="fill:none;stroke:#666666;stroke-linecap:square;stroke-width:1.5;"/>
   </g>
   <g id="line2d_68"/>
   <g id="text_30">
    <!-- FIT (29) -->
    <defs>
     <path d="M 9.8125 72.90625 
L 51.703125 72.90625 
L 51.703125 64.59375 
L 19.671875 64.59375 
L 19.671875 43.109375 
L 48.578125 43.109375 
L 48.578125 34.8125 
L 19.671875 34.8125 
L 19.671875 0 
L 9.8125 0 
z
" id="DejaVuSans-70"/>
     <path d="M -0.296875 72.90625 
L 61.375 72.90625 
L 61.375 64.59375 
L 35.5 64.59375 
L 35.5 0 
L 25.59375 0 
L 25.59375 64.59375 
L -0.296875 64.59375 
z
" id="DejaVuSans-84"/>
    </defs>
    <g transform="translate(361.8625 139.023438)scale(0.1 -0.1)">
     <use xlink:href="#DejaVuSans-70"/>
     <use x="57.519531" xlink:href="#DejaVuSans-73"/>
     <use x="87.011719" xlink:href="#DejaVuSans-84"/>
     <use x="148.095703" xlink:href="#DejaVuSans-32"/>
     <use x="179.882812" xlink:href="#DejaVuSans-40"/>
     <use x="218.896484" xlink:href="#DejaVuSans-50"/>
     <use x="282.519531" xlink:href="#DejaVuSans-57"/>
     <use x="346.142578" xlink:href="#DejaVuSans-41"/>
    </g>
   </g>
   <g id="line2d_69">
    <path d="M 333.8625 150.201562 
L 353.8625 150.201562 
" style="fill:none;stroke:#1b9e77;stroke-dasharray:4.5,1.5;stroke-dashoffset:0;stroke-width:1.5;"/>
   </g>
   <g id="line2d_70"/>
   <g id="text_31">
    <!-- TBI (26) -->
    <defs>
     <path d="M 19.671875 34.8125 
L 19.671875 8.109375 
L 35.5 8.109375 
Q 43.453125 8.109375 47.28125 11.40625 
Q 51.125 14.703125 51.125 21.484375 
Q 51.125 28.328125 47.28125 31.5625 
Q 43.453125 34.8125 35.5 34.8125 
z
M 19.671875 64.796875 
L 19.671875 42.828125 
L 34.28125 42.828125 
Q 41.5 42.828125 45.03125 45.53125 
Q 48.578125 48.25 48.578125 53.8125 
Q 48.578125 59.328125 45.03125 62.0625 
Q 41.5 64.796875 34.28125 64.796875 
z
M 9.8125 72.90625 
L 35.015625 72.90625 
Q 46.296875 72.90625 52.390625 68.21875 
Q 58.5 63.53125 58.5 54.890625 
Q 58.5 48.1875 55.375 44.234375 
Q 52.25 40.28125 46.1875 39.3125 
Q 53.46875 37.75 57.5 32.78125 
Q 61.53125 27.828125 61.53125 20.40625 
Q 61.53125 10.640625 54.890625 5.3125 
Q 48.25 0 35.984375 0 
L 9.8125 0 
z
" id="DejaVuSans-66"/>
    </defs>
    <g transform="translate(361.8625 153.701562)scale(0.1 -0.1)">
     <use xlink:href="#DejaVuSans-84"/>
     <use x="61.083984" xlink:href="#DejaVuSans-66"/>
     <use x="129.6875" xlink:href="#DejaVuSans-73"/>
     <use x="159.179688" xlink:href="#DejaVuSans-32"/>
     <use x="190.966797" xlink:href="#DejaVuSans-40"/>
     <use x="229.980469" xlink:href="#DejaVuSans-50"/>
     <use x="293.603516" xlink:href="#DejaVuSans-54"/>
     <use x="357.226562" xlink:href="#DejaVuSans-41"/>
    </g>
   </g>
   <g id="line2d_71">
    <path d="M 333.8625 164.879687 
L 353.8625 164.879687 
" style="fill:none;stroke:#d95f02;stroke-dasharray:4.5,1.5;stroke-dashoffset:0;stroke-width:1.5;"/>
   </g>
   <g id="line2d_72"/>
   <g id="text_32">
    <!-- SPD (26) -->
    <g transform="translate(361.8625 168.379687)scale(0.1 -0.1)">
     <use xlink:href="#DejaVuSans-83"/>
     <use x="63.476562" xlink:href="#DejaVuSans-80"/>
     <use x="123.779297" xlink:href="#DejaVuSans-68"/>
     <use x="200.78125" xlink:href="#DejaVuSans-32"/>
     <use x="232.568359" xlink:href="#DejaVuSans-40"/>
     <use x="271.582031" xlink:href="#DejaVuSans-50"/>
     <use x="335.205078" xlink:href="#DejaVuSans-54"/>
     <use x="398.828125" xlink:href="#DejaVuSans-41"/>
    </g>
   </g>
   <g id="line2d_73">
    <path d="M 333.8625 179.557812 
L 353.8625 179.557812 
" style="fill:none;stroke:#7570b3;stroke-dasharray:4.5,1.5;stroke-dashoffset:0;stroke-width:1.5;"/>
   </g>
   <g id="line2d_74"/>
   <g id="text_33">
    <!-- CB (25) -->
    <g transform="translate(361.8625 183.057812)scale(0.1 -0.1)">
     <use xlink:href="#DejaVuSans-67"/>
     <use x="69.824219" xlink:href="#DejaVuSans-66"/>
     <use x="138.427734" xlink:href="#DejaVuSans-32"/>
     <use x="170.214844" xlink:href="#DejaVuSans-40"/>
     <use x="209.228516" xlink:href="#DejaVuSans-50"/>
     <use x="272.851562" xlink:href="#DejaVuSans-53"/>
     <use x="336.474609" xlink:href="#DejaVuSans-41"/>
    </g>
   </g>
   <g id="line2d_75">
    <path d="M 333.8625 194.235937 
L 353.8625 194.235937 
" style="fill:none;stroke:#e7298a;stroke-dasharray:4.5,1.5;stroke-dashoffset:0;stroke-width:1.5;"/>
   </g>
   <g id="line2d_76"/>
   <g id="text_34">
    <!-- CC (25) -->
    <g transform="translate(361.8625 197.735937)scale(0.1 -0.1)">
     <use xlink:href="#DejaVuSans-67"/>
     <use x="69.824219" xlink:href="#DejaVuSans-67"/>
     <use x="139.648438" xlink:href="#DejaVuSans-32"/>
     <use x="171.435547" xlink:href="#DejaVuSans-40"/>
     <use x="210.449219" xlink:href="#DejaVuSans-50"/>
     <use x="274.072266" xlink:href="#DejaVuSans-53"/>
     <use x="337.695312" xlink:href="#DejaVuSans-41"/>
    </g>
   </g>
   <g id="line2d_77">
    <path d="M 333.8625 208.914062 
L 353.8625 208.914062 
" style="fill:none;stroke:#66a61e;stroke-dasharray:4.5,1.5;stroke-dashoffset:0;stroke-width:1.5;"/>
   </g>
   <g id="line2d_78"/>
   <g id="text_35">
    <!-- RJPH (24) -->
    <defs>
     <path d="M 9.8125 72.90625 
L 19.671875 72.90625 
L 19.671875 5.078125 
Q 19.671875 -8.109375 14.671875 -14.0625 
Q 9.671875 -20.015625 -1.421875 -20.015625 
L -5.171875 -20.015625 
L -5.171875 -11.71875 
L -2.09375 -11.71875 
Q 4.4375 -11.71875 7.125 -8.046875 
Q 9.8125 -4.390625 9.8125 5.078125 
z
" id="DejaVuSans-74"/>
    </defs>
    <g transform="translate(361.8625 212.414062)scale(0.1 -0.1)">
     <use xlink:href="#DejaVuSans-82"/>
     <use x="69.482422" xlink:href="#DejaVuSans-74"/>
     <use x="98.974609" xlink:href="#DejaVuSans-80"/>
     <use x="159.277344" xlink:href="#DejaVuSans-72"/>
     <use x="234.472656" xlink:href="#DejaVuSans-32"/>
     <use x="266.259766" xlink:href="#DejaVuSans-40"/>
     <use x="305.273438" xlink:href="#DejaVuSans-50"/>
     <use x="368.896484" xlink:href="#DejaVuSans-52"/>
     <use x="432.519531" xlink:href="#DejaVuSans-41"/>
    </g>
   </g>
   <g id="line2d_79">
    <path d="M 333.8625 223.592187 
L 353.8625 223.592187 
" style="fill:none;stroke:#e6ab02;stroke-dasharray:4.5,1.5;stroke-dashoffset:0;stroke-width:1.5;"/>
   </g>
   <g id="line2d_80"/>
   <g id="text_36">
    <!-- BP (24) -->
    <g transform="translate(361.8625 227.092187)scale(0.1 -0.1)">
     <use xlink:href="#DejaVuSans-66"/>
     <use x="68.603516" xlink:href="#DejaVuSans-80"/>
     <use x="128.90625" xlink:href="#DejaVuSans-32"/>
     <use x="160.693359" xlink:href="#DejaVuSans-40"/>
     <use x="199.707031" xlink:href="#DejaVuSans-50"/>
     <use x="263.330078" xlink:href="#DejaVuSans-52"/>
     <use x="326.953125" xlink:href="#DejaVuSans-41"/>
    </g>
   </g>
   <g id="line2d_81">
    <path d="M 333.8625 238.270312 
L 353.8625 238.270312 
" style="fill:none;stroke:#a6761d;stroke-dasharray:4.5,1.5;stroke-dashoffset:0;stroke-width:1.5;"/>
   </g>
   <g id="line2d_82"/>
   <g id="text_37">
    <!-- AHR-H (20) -->
    <g transform="translate(361.8625 241.770312)scale(0.1 -0.1)">
     <use xlink:href="#DejaVuSans-65"/>
     <use x="68.408203" xlink:href="#DejaVuSans-72"/>
     <use x="143.603516" xlink:href="#DejaVuSans-82"/>
     <use x="213.023438" xlink:href="#DejaVuSans-45"/>
     <use x="249.107422" xlink:href="#DejaVuSans-72"/>
     <use x="324.302734" xlink:href="#DejaVuSans-32"/>
     <use x="356.089844" xlink:href="#DejaVuSans-40"/>
     <use x="395.103516" xlink:href="#DejaVuSans-50"/>
     <use x="458.726562" xlink:href="#DejaVuSans-48"/>
     <use x="522.349609" xlink:href="#DejaVuSans-41"/>
    </g>
   </g>
   <g id="line2d_83">
    <path d="M 333.8625 252.948437 
L 353.8625 252.948437 
" style="fill:none;stroke:#666666;stroke-dasharray:4.5,1.5;stroke-dashoffset:0;stroke-width:1.5;"/>
   </g>
   <g id="line2d_84"/>
   <g id="text_38">
    <!-- AHR-A (20) -->
    <g transform="translate(361.8625 256.448437)scale(0.1 -0.1)">
     <use xlink:href="#DejaVuSans-65"/>
     <use x="68.408203" xlink:href="#DejaVuSans-72"/>
     <use x="143.603516" xlink:href="#DejaVuSans-82"/>
     <use x="213.023438" xlink:href="#DejaVuSans-45"/>
     <use x="249.076172" xlink:href="#DejaVuSans-65"/>
     <use x="317.484375" xlink:href="#DejaVuSans-32"/>
     <use x="349.271484" xlink:href="#DejaVuSans-40"/>
     <use x="388.285156" xlink:href="#DejaVuSans-50"/>
     <use x="451.908203" xlink:href="#DejaVuSans-48"/>
     <use x="515.53125" xlink:href="#DejaVuSans-41"/>
    </g>
   </g>
  </g>
 </g>
 <defs>
  <clipPath id="paaefeeff70">
   <rect height="207.330771" width="271.81" x="43.55" y="12.9"/>
  </clipPath>
 </defs>
</svg>
