<?xml version="1.0" encoding="utf-8" standalone="no"?>
<!DOCTYPE svg PUBLIC "-//W3C//DTD SVG 1.1//EN"
  "http://www.w3.org/Graphics/SVG/1.1/DTD/svg11.dtd">
<!-- Created with matplotlib (https://matplotlib.org/) -->
<svg height="288pt" version="1.1" viewBox="0 0 432 288" width="432pt" xmlns="http://www.w3.org/2000/svg" xmlns:xlink="http://www.w3.org/1999/xlink">
 <defs>
  <style type="text/css">
*{stroke-linecap:butt;stroke-linejoin:round;}
  </style>
 </defs>
 <g id="figure_1">
  <g id="patch_1">
   <path d="M 0 288 
L 432 288 
L 432 0 
L 0 0 
z
" style="fill:#ffffff;"/>
  </g>
  <g id="axes_1">
   <g id="patch_2">
    <path d="M 43.55 220.230771 
L 315.36 220.230771 
L 315.36 12.9 
L 43.55 12.9 
z
" style="fill:#ffffff;"/>
   </g>
   <g id="matplotlib.axis_1">
    <g id="xtick_1">
     <g id="line2d_1">
      <defs>
       <path d="M 0 0 
L 0 3.5 
" id="mca23db6028" style="stroke:#000000;stroke-width:0.8;"/>
      </defs>
      <g>
       <use style="stroke:#000000;stroke-width:0.8;" x="43.87624" xlink:href="#mca23db6028" y="220.230771"/>
      </g>
     </g>
     <g id="text_1">
      <!-- 2020-11-29 -->
      <defs>
       <path d="M 19.1875 8.296875 
L 53.609375 8.296875 
L 53.609375 0 
L 7.328125 0 
L 7.328125 8.296875 
Q 12.9375 14.109375 22.625 23.890625 
Q 32.328125 33.6875 34.8125 36.53125 
Q 39.546875 41.84375 41.421875 45.53125 
Q 43.3125 49.21875 43.3125 52.78125 
Q 43.3125 58.59375 39.234375 62.25 
Q 35.15625 65.921875 28.609375 65.921875 
Q 23.96875 65.921875 18.8125 64.3125 
Q 13.671875 62.703125 7.8125 59.421875 
L 7.8125 69.390625 
Q 13.765625 71.78125 18.9375 73 
Q 24.125 74.21875 28.421875 74.21875 
Q 39.75 74.21875 46.484375 68.546875 
Q 53.21875 62.890625 53.21875 53.421875 
Q 53.21875 48.921875 51.53125 44.890625 
Q 49.859375 40.875 45.40625 35.40625 
Q 44.1875 33.984375 37.640625 27.21875 
Q 31.109375 20.453125 19.1875 8.296875 
z
" id="DejaVuSans-50"/>
       <path d="M 31.78125 66.40625 
Q 24.171875 66.40625 20.328125 58.90625 
Q 16.5 51.421875 16.5 36.375 
Q 16.5 21.390625 20.328125 13.890625 
Q 24.171875 6.390625 31.78125 6.390625 
Q 39.453125 6.390625 43.28125 13.890625 
Q 47.125 21.390625 47.125 36.375 
Q 47.125 51.421875 43.28125 58.90625 
Q 39.453125 66.40625 31.78125 66.40625 
z
M 31.78125 74.21875 
Q 44.046875 74.21875 50.515625 64.515625 
Q 56.984375 54.828125 56.984375 36.375 
Q 56.984375 17.96875 50.515625 8.265625 
Q 44.046875 -1.421875 31.78125 -1.421875 
Q 19.53125 -1.421875 13.0625 8.265625 
Q 6.59375 17.96875 6.59375 36.375 
Q 6.59375 54.828125 13.0625 64.515625 
Q 19.53125 74.21875 31.78125 74.21875 
z
" id="DejaVuSans-48"/>
       <path d="M 4.890625 31.390625 
L 31.203125 31.390625 
L 31.203125 23.390625 
L 4.890625 23.390625 
z
" id="DejaVuSans-45"/>
       <path d="M 12.40625 8.296875 
L 28.515625 8.296875 
L 28.515625 63.921875 
L 10.984375 60.40625 
L 10.984375 69.390625 
L 28.421875 72.90625 
L 38.28125 72.90625 
L 38.28125 8.296875 
L 54.390625 8.296875 
L 54.390625 0 
L 12.40625 0 
z
" id="DejaVuSans-49"/>
       <path d="M 10.984375 1.515625 
L 10.984375 10.5 
Q 14.703125 8.734375 18.5 7.8125 
Q 22.3125 6.890625 25.984375 6.890625 
Q 35.75 6.890625 40.890625 13.453125 
Q 46.046875 20.015625 46.78125 33.40625 
Q 43.953125 29.203125 39.59375 26.953125 
Q 35.25 24.703125 29.984375 24.703125 
Q 19.046875 24.703125 12.671875 31.3125 
Q 6.296875 37.9375 6.296875 49.421875 
Q 6.296875 60.640625 12.9375 67.421875 
Q 19.578125 74.21875 30.609375 74.21875 
Q 43.265625 74.21875 49.921875 64.515625 
Q 56.59375 54.828125 56.59375 36.375 
Q 56.59375 19.140625 48.40625 8.859375 
Q 40.234375 -1.421875 26.421875 -1.421875 
Q 22.703125 -1.421875 18.890625 -0.6875 
Q 15.09375 0.046875 10.984375 1.515625 
z
M 30.609375 32.421875 
Q 37.25 32.421875 41.125 36.953125 
Q 45.015625 41.5 45.015625 49.421875 
Q 45.015625 57.28125 41.125 61.84375 
Q 37.25 66.40625 30.609375 66.40625 
Q 23.96875 66.40625 20.09375 61.84375 
Q 16.21875 57.28125 16.21875 49.421875 
Q 16.21875 41.5 20.09375 36.953125 
Q 23.96875 32.421875 30.609375 32.421875 
z
" id="DejaVuSans-57"/>
      </defs>
      <g transform="translate(20.091124 262.869024)rotate(-30)scale(0.1 -0.1)">
       <use xlink:href="#DejaVuSans-50"/>
       <use x="63.623047" xlink:href="#DejaVuSans-48"/>
       <use x="127.246094" xlink:href="#DejaVuSans-50"/>
       <use x="190.869141" xlink:href="#DejaVuSans-48"/>
       <use x="254.492188" xlink:href="#DejaVuSans-45"/>
       <use x="290.576172" xlink:href="#DejaVuSans-49"/>
       <use x="354.199219" xlink:href="#DejaVuSans-49"/>
       <use x="417.822266" xlink:href="#DejaVuSans-45"/>
       <use x="453.90625" xlink:href="#DejaVuSans-50"/>
       <use x="517.529297" xlink:href="#DejaVuSans-57"/>
      </g>
     </g>
    </g>
    <g id="xtick_2">
     <g id="line2d_2">
      <g>
       <use style="stroke:#000000;stroke-width:0.8;" x="60.488123" xlink:href="#mca23db6028" y="220.230771"/>
      </g>
     </g>
     <g id="text_2">
      <!-- 2020-12-01 -->
      <g transform="translate(36.703007 262.869024)rotate(-30)scale(0.1 -0.1)">
       <use xlink:href="#DejaVuSans-50"/>
       <use x="63.623047" xlink:href="#DejaVuSans-48"/>
       <use x="127.246094" xlink:href="#DejaVuSans-50"/>
       <use x="190.869141" xlink:href="#DejaVuSans-48"/>
       <use x="254.492188" xlink:href="#DejaVuSans-45"/>
       <use x="290.576172" xlink:href="#DejaVuSans-49"/>
       <use x="354.199219" xlink:href="#DejaVuSans-50"/>
       <use x="417.822266" xlink:href="#DejaVuSans-45"/>
       <use x="453.90625" xlink:href="#DejaVuSans-48"/>
       <use x="517.529297" xlink:href="#DejaVuSans-49"/>
      </g>
     </g>
    </g>
    <g id="xtick_3">
     <g id="line2d_3">
      <g>
       <use style="stroke:#000000;stroke-width:0.8;" x="93.71189" xlink:href="#mca23db6028" y="220.230771"/>
      </g>
     </g>
     <g id="text_3">
      <!-- 2020-12-05 -->
      <defs>
       <path d="M 10.796875 72.90625 
L 49.515625 72.90625 
L 49.515625 64.59375 
L 19.828125 64.59375 
L 19.828125 46.734375 
Q 21.96875 47.46875 24.109375 47.828125 
Q 26.265625 48.1875 28.421875 48.1875 
Q 40.625 48.1875 47.75 41.5 
Q 54.890625 34.8125 54.890625 23.390625 
Q 54.890625 11.625 47.5625 5.09375 
Q 40.234375 -1.421875 26.90625 -1.421875 
Q 22.3125 -1.421875 17.546875 -0.640625 
Q 12.796875 0.140625 7.71875 1.703125 
L 7.71875 11.625 
Q 12.109375 9.234375 16.796875 8.0625 
Q 21.484375 6.890625 26.703125 6.890625 
Q 35.15625 6.890625 40.078125 11.328125 
Q 45.015625 15.765625 45.015625 23.390625 
Q 45.015625 31 40.078125 35.4375 
Q 35.15625 39.890625 26.703125 39.890625 
Q 22.75 39.890625 18.8125 39.015625 
Q 14.890625 38.140625 10.796875 36.28125 
z
" id="DejaVuSans-53"/>
      </defs>
      <g transform="translate(69.926774 262.869024)rotate(-30)scale(0.1 -0.1)">
       <use xlink:href="#DejaVuSans-50"/>
       <use x="63.623047" xlink:href="#DejaVuSans-48"/>
       <use x="127.246094" xlink:href="#DejaVuSans-50"/>
       <use x="190.869141" xlink:href="#DejaVuSans-48"/>
       <use x="254.492188" xlink:href="#DejaVuSans-45"/>
       <use x="290.576172" xlink:href="#DejaVuSans-49"/>
       <use x="354.199219" xlink:href="#DejaVuSans-50"/>
       <use x="417.822266" xlink:href="#DejaVuSans-45"/>
       <use x="453.90625" xlink:href="#DejaVuSans-48"/>
       <use x="517.529297" xlink:href="#DejaVuSans-53"/>
      </g>
     </g>
    </g>
    <g id="xtick_4">
     <g id="line2d_4">
      <g>
       <use style="stroke:#000000;stroke-width:0.8;" x="126.935656" xlink:href="#mca23db6028" y="220.230771"/>
      </g>
     </g>
     <g id="text_4">
      <!-- 2020-12-09 -->
      <g transform="translate(103.15054 262.869024)rotate(-30)scale(0.1 -0.1)">
       <use xlink:href="#DejaVuSans-50"/>
       <use x="63.623047" xlink:href="#DejaVuSans-48"/>
       <use x="127.246094" xlink:href="#DejaVuSans-50"/>
       <use x="190.869141" xlink:href="#DejaVuSans-48"/>
       <use x="254.492188" xlink:href="#DejaVuSans-45"/>
       <use x="290.576172" xlink:href="#DejaVuSans-49"/>
       <use x="354.199219" xlink:href="#DejaVuSans-50"/>
       <use x="417.822266" xlink:href="#DejaVuSans-45"/>
       <use x="453.90625" xlink:href="#DejaVuSans-48"/>
       <use x="517.529297" xlink:href="#DejaVuSans-57"/>
      </g>
     </g>
    </g>
    <g id="xtick_5">
     <g id="line2d_5">
      <g>
       <use style="stroke:#000000;stroke-width:0.8;" x="160.159423" xlink:href="#mca23db6028" y="220.230771"/>
      </g>
     </g>
     <g id="text_5">
      <!-- 2020-12-13 -->
      <defs>
       <path d="M 40.578125 39.3125 
Q 47.65625 37.796875 51.625 33 
Q 55.609375 28.21875 55.609375 21.1875 
Q 55.609375 10.40625 48.1875 4.484375 
Q 40.765625 -1.421875 27.09375 -1.421875 
Q 22.515625 -1.421875 17.65625 -0.515625 
Q 12.796875 0.390625 7.625 2.203125 
L 7.625 11.71875 
Q 11.71875 9.328125 16.59375 8.109375 
Q 21.484375 6.890625 26.8125 6.890625 
Q 36.078125 6.890625 40.9375 10.546875 
Q 45.796875 14.203125 45.796875 21.1875 
Q 45.796875 27.640625 41.28125 31.265625 
Q 36.765625 34.90625 28.71875 34.90625 
L 20.21875 34.90625 
L 20.21875 43.015625 
L 29.109375 43.015625 
Q 36.375 43.015625 40.234375 45.921875 
Q 44.09375 48.828125 44.09375 54.296875 
Q 44.09375 59.90625 40.109375 62.90625 
Q 36.140625 65.921875 28.71875 65.921875 
Q 24.65625 65.921875 20.015625 65.03125 
Q 15.375 64.15625 9.8125 62.3125 
L 9.8125 71.09375 
Q 15.4375 72.65625 20.34375 73.4375 
Q 25.25 74.21875 29.59375 74.21875 
Q 40.828125 74.21875 47.359375 69.109375 
Q 53.90625 64.015625 53.90625 55.328125 
Q 53.90625 49.265625 50.4375 45.09375 
Q 46.96875 40.921875 40.578125 39.3125 
z
" id="DejaVuSans-51"/>
      </defs>
      <g transform="translate(136.374307 262.869024)rotate(-30)scale(0.1 -0.1)">
       <use xlink:href="#DejaVuSans-50"/>
       <use x="63.623047" xlink:href="#DejaVuSans-48"/>
       <use x="127.246094" xlink:href="#DejaVuSans-50"/>
       <use x="190.869141" xlink:href="#DejaVuSans-48"/>
       <use x="254.492188" xlink:href="#DejaVuSans-45"/>
       <use x="290.576172" xlink:href="#DejaVuSans-49"/>
       <use x="354.199219" xlink:href="#DejaVuSans-50"/>
       <use x="417.822266" xlink:href="#DejaVuSans-45"/>
       <use x="453.90625" xlink:href="#DejaVuSans-49"/>
       <use x="517.529297" xlink:href="#DejaVuSans-51"/>
      </g>
     </g>
    </g>
    <g id="xtick_6">
     <g id="line2d_6">
      <g>
       <use style="stroke:#000000;stroke-width:0.8;" x="193.38319" xlink:href="#mca23db6028" y="220.230771"/>
      </g>
     </g>
     <g id="text_6">
      <!-- 2020-12-17 -->
      <defs>
       <path d="M 8.203125 72.90625 
L 55.078125 72.90625 
L 55.078125 68.703125 
L 28.609375 0 
L 18.3125 0 
L 43.21875 64.59375 
L 8.203125 64.59375 
z
" id="DejaVuSans-55"/>
      </defs>
      <g transform="translate(169.598073 262.869024)rotate(-30)scale(0.1 -0.1)">
       <use xlink:href="#DejaVuSans-50"/>
       <use x="63.623047" xlink:href="#DejaVuSans-48"/>
       <use x="127.246094" xlink:href="#DejaVuSans-50"/>
       <use x="190.869141" xlink:href="#DejaVuSans-48"/>
       <use x="254.492188" xlink:href="#DejaVuSans-45"/>
       <use x="290.576172" xlink:href="#DejaVuSans-49"/>
       <use x="354.199219" xlink:href="#DejaVuSans-50"/>
       <use x="417.822266" xlink:href="#DejaVuSans-45"/>
       <use x="453.90625" xlink:href="#DejaVuSans-49"/>
       <use x="517.529297" xlink:href="#DejaVuSans-55"/>
      </g>
     </g>
    </g>
    <g id="xtick_7">
     <g id="line2d_7">
      <g>
       <use style="stroke:#000000;stroke-width:0.8;" x="226.606956" xlink:href="#mca23db6028" y="220.230771"/>
      </g>
     </g>
     <g id="text_7">
      <!-- 2020-12-21 -->
      <g transform="translate(202.82184 262.869024)rotate(-30)scale(0.1 -0.1)">
       <use xlink:href="#DejaVuSans-50"/>
       <use x="63.623047" xlink:href="#DejaVuSans-48"/>
       <use x="127.246094" xlink:href="#DejaVuSans-50"/>
       <use x="190.869141" xlink:href="#DejaVuSans-48"/>
       <use x="254.492188" xlink:href="#DejaVuSans-45"/>
       <use x="290.576172" xlink:href="#DejaVuSans-49"/>
       <use x="354.199219" xlink:href="#DejaVuSans-50"/>
       <use x="417.822266" xlink:href="#DejaVuSans-45"/>
       <use x="453.90625" xlink:href="#DejaVuSans-50"/>
       <use x="517.529297" xlink:href="#DejaVuSans-49"/>
      </g>
     </g>
    </g>
    <g id="xtick_8">
     <g id="line2d_8">
      <g>
       <use style="stroke:#000000;stroke-width:0.8;" x="259.830723" xlink:href="#mca23db6028" y="220.230771"/>
      </g>
     </g>
     <g id="text_8">
      <!-- 2020-12-25 -->
      <g transform="translate(236.045606 262.869024)rotate(-30)scale(0.1 -0.1)">
       <use xlink:href="#DejaVuSans-50"/>
       <use x="63.623047" xlink:href="#DejaVuSans-48"/>
       <use x="127.246094" xlink:href="#DejaVuSans-50"/>
       <use x="190.869141" xlink:href="#DejaVuSans-48"/>
       <use x="254.492188" xlink:href="#DejaVuSans-45"/>
       <use x="290.576172" xlink:href="#DejaVuSans-49"/>
       <use x="354.199219" xlink:href="#DejaVuSans-50"/>
       <use x="417.822266" xlink:href="#DejaVuSans-45"/>
       <use x="453.90625" xlink:href="#DejaVuSans-50"/>
       <use x="517.529297" xlink:href="#DejaVuSans-53"/>
      </g>
     </g>
    </g>
    <g id="xtick_9">
     <g id="line2d_9">
      <g>
       <use style="stroke:#000000;stroke-width:0.8;" x="293.054489" xlink:href="#mca23db6028" y="220.230771"/>
      </g>
     </g>
     <g id="text_9">
      <!-- 2020-12-29 -->
      <g transform="translate(269.269373 262.869024)rotate(-30)scale(0.1 -0.1)">
       <use xlink:href="#DejaVuSans-50"/>
       <use x="63.623047" xlink:href="#DejaVuSans-48"/>
       <use x="127.246094" xlink:href="#DejaVuSans-50"/>
       <use x="190.869141" xlink:href="#DejaVuSans-48"/>
       <use x="254.492188" xlink:href="#DejaVuSans-45"/>
       <use x="290.576172" xlink:href="#DejaVuSans-49"/>
       <use x="354.199219" xlink:href="#DejaVuSans-50"/>
       <use x="417.822266" xlink:href="#DejaVuSans-45"/>
       <use x="453.90625" xlink:href="#DejaVuSans-50"/>
       <use x="517.529297" xlink:href="#DejaVuSans-57"/>
      </g>
     </g>
    </g>
    <g id="text_10">
     <!-- Date -->
     <defs>
      <path d="M 19.671875 64.796875 
L 19.671875 8.109375 
L 31.59375 8.109375 
Q 46.6875 8.109375 53.6875 14.9375 
Q 60.6875 21.78125 60.6875 36.53125 
Q 60.6875 51.171875 53.6875 57.984375 
Q 46.6875 64.796875 31.59375 64.796875 
z
M 9.8125 72.90625 
L 30.078125 72.90625 
Q 51.265625 72.90625 61.171875 64.09375 
Q 71.09375 55.28125 71.09375 36.53125 
Q 71.09375 17.671875 61.125 8.828125 
Q 51.171875 0 30.078125 0 
L 9.8125 0 
z
" id="DejaVuSans-68"/>
      <path d="M 34.28125 27.484375 
Q 23.390625 27.484375 19.1875 25 
Q 14.984375 22.515625 14.984375 16.5 
Q 14.984375 11.71875 18.140625 8.90625 
Q 21.296875 6.109375 26.703125 6.109375 
Q 34.1875 6.109375 38.703125 11.40625 
Q 43.21875 16.703125 43.21875 25.484375 
L 43.21875 27.484375 
z
M 52.203125 31.203125 
L 52.203125 0 
L 43.21875 0 
L 43.21875 8.296875 
Q 40.140625 3.328125 35.546875 0.953125 
Q 30.953125 -1.421875 24.3125 -1.421875 
Q 15.921875 -1.421875 10.953125 3.296875 
Q 6 8.015625 6 15.921875 
Q 6 25.140625 12.171875 29.828125 
Q 18.359375 34.515625 30.609375 34.515625 
L 43.21875 34.515625 
L 43.21875 35.40625 
Q 43.21875 41.609375 39.140625 45 
Q 35.0625 48.390625 27.6875 48.390625 
Q 23 48.390625 18.546875 47.265625 
Q 14.109375 46.140625 10.015625 43.890625 
L 10.015625 52.203125 
Q 14.9375 54.109375 19.578125 55.046875 
Q 24.21875 56 28.609375 56 
Q 40.484375 56 46.34375 49.84375 
Q 52.203125 43.703125 52.203125 31.203125 
z
" id="DejaVuSans-97"/>
      <path d="M 18.3125 70.21875 
L 18.3125 54.6875 
L 36.8125 54.6875 
L 36.8125 47.703125 
L 18.3125 47.703125 
L 18.3125 18.015625 
Q 18.3125 11.328125 20.140625 9.421875 
Q 21.96875 7.515625 27.59375 7.515625 
L 36.8125 7.515625 
L 36.8125 0 
L 27.59375 0 
Q 17.1875 0 13.234375 3.875 
Q 9.28125 7.765625 9.28125 18.015625 
L 9.28125 47.703125 
L 2.6875 47.703125 
L 2.6875 54.6875 
L 9.28125 54.6875 
L 9.28125 70.21875 
z
" id="DejaVuSans-116"/>
      <path d="M 56.203125 29.59375 
L 56.203125 25.203125 
L 14.890625 25.203125 
Q 15.484375 15.921875 20.484375 11.0625 
Q 25.484375 6.203125 34.421875 6.203125 
Q 39.59375 6.203125 44.453125 7.46875 
Q 49.3125 8.734375 54.109375 11.28125 
L 54.109375 2.78125 
Q 49.265625 0.734375 44.1875 -0.34375 
Q 39.109375 -1.421875 33.890625 -1.421875 
Q 20.796875 -1.421875 13.15625 6.1875 
Q 5.515625 13.8125 5.515625 26.8125 
Q 5.515625 40.234375 12.765625 48.109375 
Q 20.015625 56 32.328125 56 
Q 43.359375 56 49.78125 48.890625 
Q 56.203125 41.796875 56.203125 29.59375 
z
M 47.21875 32.234375 
Q 47.125 39.59375 43.09375 43.984375 
Q 39.0625 48.390625 32.421875 48.390625 
Q 24.90625 48.390625 20.390625 44.140625 
Q 15.875 39.890625 15.1875 32.171875 
z
" id="DejaVuSans-101"/>
     </defs>
     <g transform="translate(167.504219 276.268523)scale(0.1 -0.1)">
      <use xlink:href="#DejaVuSans-68"/>
      <use x="77.001953" xlink:href="#DejaVuSans-97"/>
      <use x="138.28125" xlink:href="#DejaVuSans-116"/>
      <use x="177.490234" xlink:href="#DejaVuSans-101"/>
     </g>
    </g>
   </g>
   <g id="matplotlib.axis_2">
    <g id="ytick_1">
     <g id="line2d_10">
      <defs>
       <path d="M 0 0 
L -3.5 0 
" id="m660d70d77f" style="stroke:#000000;stroke-width:0.8;"/>
      </defs>
      <g>
       <use style="stroke:#000000;stroke-width:0.8;" x="43.55" xlink:href="#m660d70d77f" y="210.806645"/>
      </g>
     </g>
     <g id="text_11">
      <!-- 0 -->
      <g transform="translate(30.1875 214.605864)scale(0.1 -0.1)">
       <use xlink:href="#DejaVuSans-48"/>
      </g>
     </g>
    </g>
    <g id="ytick_2">
     <g id="line2d_11">
      <g>
       <use style="stroke:#000000;stroke-width:0.8;" x="43.55" xlink:href="#m660d70d77f" y="187.24633"/>
      </g>
     </g>
     <g id="text_12">
      <!-- 5 -->
      <g transform="translate(30.1875 191.045549)scale(0.1 -0.1)">
       <use xlink:href="#DejaVuSans-53"/>
      </g>
     </g>
    </g>
    <g id="ytick_3">
     <g id="line2d_12">
      <g>
       <use style="stroke:#000000;stroke-width:0.8;" x="43.55" xlink:href="#m660d70d77f" y="163.686016"/>
      </g>
     </g>
     <g id="text_13">
      <!-- 10 -->
      <g transform="translate(23.825 167.485234)scale(0.1 -0.1)">
       <use xlink:href="#DejaVuSans-49"/>
       <use x="63.623047" xlink:href="#DejaVuSans-48"/>
      </g>
     </g>
    </g>
    <g id="ytick_4">
     <g id="line2d_13">
      <g>
       <use style="stroke:#000000;stroke-width:0.8;" x="43.55" xlink:href="#m660d70d77f" y="140.125701"/>
      </g>
     </g>
     <g id="text_14">
      <!-- 15 -->
      <g transform="translate(23.825 143.924919)scale(0.1 -0.1)">
       <use xlink:href="#DejaVuSans-49"/>
       <use x="63.623047" xlink:href="#DejaVuSans-53"/>
      </g>
     </g>
    </g>
    <g id="ytick_5">
     <g id="line2d_14">
      <g>
       <use style="stroke:#000000;stroke-width:0.8;" x="43.55" xlink:href="#m660d70d77f" y="116.565386"/>
      </g>
     </g>
     <g id="text_15">
      <!-- 20 -->
      <g transform="translate(23.825 120.364604)scale(0.1 -0.1)">
       <use xlink:href="#DejaVuSans-50"/>
       <use x="63.623047" xlink:href="#DejaVuSans-48"/>
      </g>
     </g>
    </g>
    <g id="ytick_6">
     <g id="line2d_15">
      <g>
       <use style="stroke:#000000;stroke-width:0.8;" x="43.55" xlink:href="#m660d70d77f" y="93.005071"/>
      </g>
     </g>
     <g id="text_16">
      <!-- 25 -->
      <g transform="translate(23.825 96.80429)scale(0.1 -0.1)">
       <use xlink:href="#DejaVuSans-50"/>
       <use x="63.623047" xlink:href="#DejaVuSans-53"/>
      </g>
     </g>
    </g>
    <g id="ytick_7">
     <g id="line2d_16">
      <g>
       <use style="stroke:#000000;stroke-width:0.8;" x="43.55" xlink:href="#m660d70d77f" y="69.444756"/>
      </g>
     </g>
     <g id="text_17">
      <!-- 30 -->
      <g transform="translate(23.825 73.243975)scale(0.1 -0.1)">
       <use xlink:href="#DejaVuSans-51"/>
       <use x="63.623047" xlink:href="#DejaVuSans-48"/>
      </g>
     </g>
    </g>
    <g id="ytick_8">
     <g id="line2d_17">
      <g>
       <use style="stroke:#000000;stroke-width:0.8;" x="43.55" xlink:href="#m660d70d77f" y="45.884441"/>
      </g>
     </g>
     <g id="text_18">
      <!-- 35 -->
      <g transform="translate(23.825 49.68366)scale(0.1 -0.1)">
       <use xlink:href="#DejaVuSans-51"/>
       <use x="63.623047" xlink:href="#DejaVuSans-53"/>
      </g>
     </g>
    </g>
    <g id="ytick_9">
     <g id="line2d_18">
      <g>
       <use style="stroke:#000000;stroke-width:0.8;" x="43.55" xlink:href="#m660d70d77f" y="22.324126"/>
      </g>
     </g>
     <g id="text_19">
      <!-- 40 -->
      <defs>
       <path d="M 37.796875 64.3125 
L 12.890625 25.390625 
L 37.796875 25.390625 
z
M 35.203125 72.90625 
L 47.609375 72.90625 
L 47.609375 25.390625 
L 58.015625 25.390625 
L 58.015625 17.1875 
L 47.609375 17.1875 
L 47.609375 0 
L 37.796875 0 
L 37.796875 17.1875 
L 4.890625 17.1875 
L 4.890625 26.703125 
z
" id="DejaVuSans-52"/>
      </defs>
      <g transform="translate(23.825 26.123345)scale(0.1 -0.1)">
       <use xlink:href="#DejaVuSans-52"/>
       <use x="63.623047" xlink:href="#DejaVuSans-48"/>
      </g>
     </g>
    </g>
    <g id="text_20">
     <!-- Students Registered -->
     <defs>
      <path d="M 53.515625 70.515625 
L 53.515625 60.890625 
Q 47.90625 63.578125 42.921875 64.890625 
Q 37.9375 66.21875 33.296875 66.21875 
Q 25.25 66.21875 20.875 63.09375 
Q 16.5 59.96875 16.5 54.203125 
Q 16.5 49.359375 19.40625 46.890625 
Q 22.3125 44.4375 30.421875 42.921875 
L 36.375 41.703125 
Q 47.40625 39.59375 52.65625 34.296875 
Q 57.90625 29 57.90625 20.125 
Q 57.90625 9.515625 50.796875 4.046875 
Q 43.703125 -1.421875 29.984375 -1.421875 
Q 24.8125 -1.421875 18.96875 -0.25 
Q 13.140625 0.921875 6.890625 3.21875 
L 6.890625 13.375 
Q 12.890625 10.015625 18.65625 8.296875 
Q 24.421875 6.59375 29.984375 6.59375 
Q 38.421875 6.59375 43.015625 9.90625 
Q 47.609375 13.234375 47.609375 19.390625 
Q 47.609375 24.75 44.3125 27.78125 
Q 41.015625 30.8125 33.5 32.328125 
L 27.484375 33.5 
Q 16.453125 35.6875 11.515625 40.375 
Q 6.59375 45.0625 6.59375 53.421875 
Q 6.59375 63.09375 13.40625 68.65625 
Q 20.21875 74.21875 32.171875 74.21875 
Q 37.3125 74.21875 42.625 73.28125 
Q 47.953125 72.359375 53.515625 70.515625 
z
" id="DejaVuSans-83"/>
      <path d="M 8.5 21.578125 
L 8.5 54.6875 
L 17.484375 54.6875 
L 17.484375 21.921875 
Q 17.484375 14.15625 20.5 10.265625 
Q 23.53125 6.390625 29.59375 6.390625 
Q 36.859375 6.390625 41.078125 11.03125 
Q 45.3125 15.671875 45.3125 23.6875 
L 45.3125 54.6875 
L 54.296875 54.6875 
L 54.296875 0 
L 45.3125 0 
L 45.3125 8.40625 
Q 42.046875 3.421875 37.71875 1 
Q 33.40625 -1.421875 27.6875 -1.421875 
Q 18.265625 -1.421875 13.375 4.4375 
Q 8.5 10.296875 8.5 21.578125 
z
M 31.109375 56 
z
" id="DejaVuSans-117"/>
      <path d="M 45.40625 46.390625 
L 45.40625 75.984375 
L 54.390625 75.984375 
L 54.390625 0 
L 45.40625 0 
L 45.40625 8.203125 
Q 42.578125 3.328125 38.25 0.953125 
Q 33.9375 -1.421875 27.875 -1.421875 
Q 17.96875 -1.421875 11.734375 6.484375 
Q 5.515625 14.40625 5.515625 27.296875 
Q 5.515625 40.1875 11.734375 48.09375 
Q 17.96875 56 27.875 56 
Q 33.9375 56 38.25 53.625 
Q 42.578125 51.265625 45.40625 46.390625 
z
M 14.796875 27.296875 
Q 14.796875 17.390625 18.875 11.75 
Q 22.953125 6.109375 30.078125 6.109375 
Q 37.203125 6.109375 41.296875 11.75 
Q 45.40625 17.390625 45.40625 27.296875 
Q 45.40625 37.203125 41.296875 42.84375 
Q 37.203125 48.484375 30.078125 48.484375 
Q 22.953125 48.484375 18.875 42.84375 
Q 14.796875 37.203125 14.796875 27.296875 
z
" id="DejaVuSans-100"/>
      <path d="M 54.890625 33.015625 
L 54.890625 0 
L 45.90625 0 
L 45.90625 32.71875 
Q 45.90625 40.484375 42.875 44.328125 
Q 39.84375 48.1875 33.796875 48.1875 
Q 26.515625 48.1875 22.3125 43.546875 
Q 18.109375 38.921875 18.109375 30.90625 
L 18.109375 0 
L 9.078125 0 
L 9.078125 54.6875 
L 18.109375 54.6875 
L 18.109375 46.1875 
Q 21.34375 51.125 25.703125 53.5625 
Q 30.078125 56 35.796875 56 
Q 45.21875 56 50.046875 50.171875 
Q 54.890625 44.34375 54.890625 33.015625 
z
" id="DejaVuSans-110"/>
      <path d="M 44.28125 53.078125 
L 44.28125 44.578125 
Q 40.484375 46.53125 36.375 47.5 
Q 32.28125 48.484375 27.875 48.484375 
Q 21.1875 48.484375 17.84375 46.4375 
Q 14.5 44.390625 14.5 40.28125 
Q 14.5 37.15625 16.890625 35.375 
Q 19.28125 33.59375 26.515625 31.984375 
L 29.59375 31.296875 
Q 39.15625 29.25 43.1875 25.515625 
Q 47.21875 21.78125 47.21875 15.09375 
Q 47.21875 7.46875 41.1875 3.015625 
Q 35.15625 -1.421875 24.609375 -1.421875 
Q 20.21875 -1.421875 15.453125 -0.5625 
Q 10.6875 0.296875 5.421875 2 
L 5.421875 11.28125 
Q 10.40625 8.6875 15.234375 7.390625 
Q 20.0625 6.109375 24.8125 6.109375 
Q 31.15625 6.109375 34.5625 8.28125 
Q 37.984375 10.453125 37.984375 14.40625 
Q 37.984375 18.0625 35.515625 20.015625 
Q 33.0625 21.96875 24.703125 23.78125 
L 21.578125 24.515625 
Q 13.234375 26.265625 9.515625 29.90625 
Q 5.8125 33.546875 5.8125 39.890625 
Q 5.8125 47.609375 11.28125 51.796875 
Q 16.75 56 26.8125 56 
Q 31.78125 56 36.171875 55.265625 
Q 40.578125 54.546875 44.28125 53.078125 
z
" id="DejaVuSans-115"/>
      <path id="DejaVuSans-32"/>
      <path d="M 44.390625 34.1875 
Q 47.5625 33.109375 50.5625 29.59375 
Q 53.5625 26.078125 56.59375 19.921875 
L 66.609375 0 
L 56 0 
L 46.6875 18.703125 
Q 43.0625 26.03125 39.671875 28.421875 
Q 36.28125 30.8125 30.421875 30.8125 
L 19.671875 30.8125 
L 19.671875 0 
L 9.8125 0 
L 9.8125 72.90625 
L 32.078125 72.90625 
Q 44.578125 72.90625 50.734375 67.671875 
Q 56.890625 62.453125 56.890625 51.90625 
Q 56.890625 45.015625 53.6875 40.46875 
Q 50.484375 35.9375 44.390625 34.1875 
z
M 19.671875 64.796875 
L 19.671875 38.921875 
L 32.078125 38.921875 
Q 39.203125 38.921875 42.84375 42.21875 
Q 46.484375 45.515625 46.484375 51.90625 
Q 46.484375 58.296875 42.84375 61.546875 
Q 39.203125 64.796875 32.078125 64.796875 
z
" id="DejaVuSans-82"/>
      <path d="M 45.40625 27.984375 
Q 45.40625 37.75 41.375 43.109375 
Q 37.359375 48.484375 30.078125 48.484375 
Q 22.859375 48.484375 18.828125 43.109375 
Q 14.796875 37.75 14.796875 27.984375 
Q 14.796875 18.265625 18.828125 12.890625 
Q 22.859375 7.515625 30.078125 7.515625 
Q 37.359375 7.515625 41.375 12.890625 
Q 45.40625 18.265625 45.40625 27.984375 
z
M 54.390625 6.78125 
Q 54.390625 -7.171875 48.1875 -13.984375 
Q 42 -20.796875 29.203125 -20.796875 
Q 24.46875 -20.796875 20.265625 -20.09375 
Q 16.0625 -19.390625 12.109375 -17.921875 
L 12.109375 -9.1875 
Q 16.0625 -11.328125 19.921875 -12.34375 
Q 23.78125 -13.375 27.78125 -13.375 
Q 36.625 -13.375 41.015625 -8.765625 
Q 45.40625 -4.15625 45.40625 5.171875 
L 45.40625 9.625 
Q 42.625 4.78125 38.28125 2.390625 
Q 33.9375 0 27.875 0 
Q 17.828125 0 11.671875 7.65625 
Q 5.515625 15.328125 5.515625 27.984375 
Q 5.515625 40.671875 11.671875 48.328125 
Q 17.828125 56 27.875 56 
Q 33.9375 56 38.28125 53.609375 
Q 42.625 51.21875 45.40625 46.390625 
L 45.40625 54.6875 
L 54.390625 54.6875 
z
" id="DejaVuSans-103"/>
      <path d="M 9.421875 54.6875 
L 18.40625 54.6875 
L 18.40625 0 
L 9.421875 0 
z
M 9.421875 75.984375 
L 18.40625 75.984375 
L 18.40625 64.59375 
L 9.421875 64.59375 
z
" id="DejaVuSans-105"/>
      <path d="M 41.109375 46.296875 
Q 39.59375 47.171875 37.8125 47.578125 
Q 36.03125 48 33.890625 48 
Q 26.265625 48 22.1875 43.046875 
Q 18.109375 38.09375 18.109375 28.8125 
L 18.109375 0 
L 9.078125 0 
L 9.078125 54.6875 
L 18.109375 54.6875 
L 18.109375 46.1875 
Q 20.953125 51.171875 25.484375 53.578125 
Q 30.03125 56 36.53125 56 
Q 37.453125 56 38.578125 55.875 
Q 39.703125 55.765625 41.0625 55.515625 
z
" id="DejaVuSans-114"/>
     </defs>
     <g transform="translate(17.745313 167.498979)rotate(-90)scale(0.1 -0.1)">
      <use xlink:href="#DejaVuSans-83"/>
      <use x="63.476562" xlink:href="#DejaVuSans-116"/>
      <use x="102.685547" xlink:href="#DejaVuSans-117"/>
      <use x="166.064453" xlink:href="#DejaVuSans-100"/>
      <use x="229.541016" xlink:href="#DejaVuSans-101"/>
      <use x="291.064453" xlink:href="#DejaVuSans-110"/>
      <use x="354.443359" xlink:href="#DejaVuSans-116"/>
      <use x="393.652344" xlink:href="#DejaVuSans-115"/>
      <use x="445.751953" xlink:href="#DejaVuSans-32"/>
      <use x="477.539062" xlink:href="#DejaVuSans-82"/>
      <use x="546.958984" xlink:href="#DejaVuSans-101"/>
      <use x="608.482422" xlink:href="#DejaVuSans-103"/>
      <use x="671.958984" xlink:href="#DejaVuSans-105"/>
      <use x="699.742188" xlink:href="#DejaVuSans-115"/>
      <use x="751.841797" xlink:href="#DejaVuSans-116"/>
      <use x="791.050781" xlink:href="#DejaVuSans-101"/>
      <use x="852.574219" xlink:href="#DejaVuSans-114"/>
      <use x="893.65625" xlink:href="#DejaVuSans-101"/>
      <use x="955.179688" xlink:href="#DejaVuSans-100"/>
     </g>
    </g>
   </g>
   <g id="line2d_19">
    <path clip-path="url(#p54688ee5c0)" d="M 128.147657 196.670456 
L 129.877984 196.670456 
L 129.877984 182.534267 
L 129.964518 182.534267 
L 130.224074 182.534267 
L 130.224074 177.822204 
L 130.31062 177.822204 
L 130.570147 177.822204 
L 130.570147 158.973953 
L 130.656669 158.973953 
L 131.262341 158.973953 
L 131.262341 144.837764 
L 131.348856 144.837764 
L 131.954489 144.837764 
L 131.954489 116.565386 
L 132.041043 116.565386 
L 132.646645 116.565386 
L 132.646645 107.14126 
L 132.733166 107.14126 
L 132.992772 107.14126 
L 132.992772 102.429197 
L 133.07929 102.429197 
L 133.338823 102.429197 
L 133.338823 97.717134 
L 133.425364 97.717134 
L 134.031042 97.717134 
L 134.031042 93.005071 
L 134.117563 93.005071 
L 138.876098 93.005071 
L 138.876098 74.156819 
L 138.962643 74.156819 
L 139.568284 74.156819 
L 139.568284 69.444756 
L 139.654846 69.444756 
L 140.260498 69.444756 
L 140.260498 60.02063 
L 140.346945 60.02063 
L 140.60658 60.02063 
L 140.60658 55.308567 
L 140.693024 55.308567 
L 141.298752 55.308567 
L 141.298752 50.596504 
L 141.385192 50.596504 
L 148.566421 50.596504 
L 148.566421 45.884441 
L 148.652881 45.884441 
L 148.912442 45.884441 
L 148.912442 41.172378 
L 148.999007 41.172378 
L 149.258541 41.172378 
L 149.258541 36.460315 
L 149.345089 36.460315 
L 150.296831 36.460315 
L 150.296831 31.748252 
L 150.38327 31.748252 
L 172.445956 31.748252 
L 172.445956 22.324126 
L 172.532537 22.324126 
L 215.013914 22.324126 
L 215.013914 27.036189 
L 215.100439 27.036189 
L 217.090398 27.036189 
L 217.090398 22.324126 
L 217.176973 22.324126 
L 247.199477 22.324126 
L 247.199477 27.036189 
L 247.285957 27.036189 
L 249.96811 27.036189 
L 249.96811 22.324126 
L 250.054594 22.324126 
L 303.005 22.324126 
L 303.005 22.324126 
" style="fill:none;stroke:#1b9e77;stroke-linecap:square;stroke-width:1.5;"/>
   </g>
   <g id="line2d_20">
    <path clip-path="url(#p54688ee5c0)" d="M 55.905 182.534267 
L 56.269638 182.534267 
L 56.269638 177.822204 
L 56.376219 177.822204 
L 58.060417 177.822204 
L 58.060417 173.110142 
L 63.597775 173.110142 
L 63.597775 168.398079 
L 64.122677 168.398079 
L 64.122677 163.686016 
L 64.209141 163.686016 
L 64.468737 163.686016 
L 64.468737 158.973953 
L 64.555299 158.973953 
L 65.507027 158.973953 
L 65.507027 144.837764 
L 65.593509 144.837764 
L 65.853033 144.837764 
L 65.853033 140.125701 
L 65.939615 140.125701 
L 72.774672 140.125701 
L 72.774672 130.701575 
L 72.861243 130.701575 
L 73.120752 130.701575 
L 73.120752 125.989512 
L 73.207236 125.989512 
L 73.46683 125.989512 
L 73.46683 130.701575 
L 73.553376 130.701575 
L 74.159048 130.701575 
L 74.159048 125.989512 
L 74.245545 125.989512 
L 74.505059 125.989512 
L 74.505059 116.565386 
L 74.591675 116.565386 
L 76.235506 116.565386 
L 76.235506 107.14126 
L 76.321996 107.14126 
L 80.042394 107.14126 
L 80.042394 102.429197 
L 80.12889 102.429197 
L 80.388467 102.429197 
L 80.388467 83.580945 
L 80.474975 83.580945 
L 80.734509 83.580945 
L 80.734509 74.156819 
L 80.821027 74.156819 
L 81.426708 74.156819 
L 81.426708 69.444756 
L 81.513235 69.444756 
L 81.772778 69.444756 
L 81.772778 64.732693 
L 81.859331 64.732693 
L 82.118868 64.732693 
L 82.118868 60.02063 
L 82.205398 60.02063 
L 82.464947 60.02063 
L 82.464947 45.884441 
L 82.551514 45.884441 
L 82.811019 45.884441 
L 82.811019 41.172378 
L 82.897572 41.172378 
L 83.15712 41.172378 
L 83.15712 36.460315 
L 83.243654 36.460315 
L 89.040448 36.460315 
L 89.040448 27.036189 
L 89.12697 27.036189 
L 89.386604 27.036189 
L 89.386604 22.324126 
L 89.473069 22.324126 
L 130.224074 22.324126 
L 130.224074 27.036189 
L 130.31062 27.036189 
L 130.570147 27.036189 
L 130.570147 22.324126 
L 130.656669 22.324126 
L 303.005 22.324126 
L 303.005 22.324126 
" style="fill:none;stroke:#d95f02;stroke-linecap:square;stroke-width:1.5;"/>
   </g>
   <g id="line2d_21">
    <path clip-path="url(#p54688ee5c0)" d="M 55.905 201.382519 
L 65.160964 201.382519 
L 65.160964 196.670456 
L 65.247419 196.670456 
L 72.082559 196.670456 
L 72.082559 191.958393 
L 72.169085 191.958393 
L 72.428626 191.958393 
L 72.428626 187.24633 
L 72.515149 187.24633 
L 72.774672 187.24633 
L 72.774672 177.822204 
L 72.861243 177.822204 
L 73.120752 177.822204 
L 73.120752 173.110142 
L 73.207236 173.110142 
L 73.46683 173.110142 
L 73.46683 168.398079 
L 73.553376 168.398079 
L 73.812915 168.398079 
L 73.812915 163.686016 
L 73.899417 163.686016 
L 74.505059 163.686016 
L 74.505059 158.973953 
L 74.591675 158.973953 
L 80.388467 158.973953 
L 80.388467 149.549827 
L 80.474975 149.549827 
L 80.734509 149.549827 
L 80.734509 144.837764 
L 80.821027 144.837764 
L 82.118868 144.837764 
L 82.118868 140.125701 
L 82.205398 140.125701 
L 82.464947 140.125701 
L 82.464947 130.701575 
L 82.551514 130.701575 
L 113.958349 130.701575 
L 113.958349 125.989512 
L 114.044783 125.989512 
L 114.304396 125.989512 
L 114.304396 121.277449 
L 114.390871 121.277449 
L 114.650498 121.277449 
L 114.650498 116.565386 
L 114.73699 116.565386 
L 114.996542 116.565386 
L 114.996542 111.853323 
L 115.083056 111.853323 
L 115.342659 111.853323 
L 115.342659 102.429197 
L 115.429157 102.429197 
L 115.688745 102.429197 
L 115.688745 97.717134 
L 115.775252 97.717134 
L 121.918155 97.717134 
L 122.004681 83.580945 
L 122.004681 83.580945 
L 122.610333 83.580945 
L 122.610333 74.156819 
L 122.696842 74.156819 
L 123.648585 74.156819 
L 123.648585 69.444756 
L 123.735092 69.444756 
L 123.994669 69.444756 
L 123.994669 60.02063 
L 124.081194 60.02063 
L 124.340746 60.02063 
L 124.340746 36.460315 
L 124.427254 36.460315 
L 124.686775 36.460315 
L 124.686775 22.324126 
L 124.773377 22.324126 
L 129.877984 22.324126 
L 129.877984 27.036189 
L 129.964518 27.036189 
L 130.570147 27.036189 
L 130.570147 22.324126 
L 130.656669 22.324126 
L 214.321728 22.324126 
L 214.321728 27.036189 
L 214.408309 27.036189 
L 214.667881 27.036189 
L 214.667881 22.324126 
L 214.754415 22.324126 
L 229.89546 22.324126 
L 229.89546 27.036189 
L 229.981893 27.036189 
L 230.587527 27.036189 
L 230.587527 22.324126 
L 230.674047 22.324126 
L 231.279713 22.324126 
L 231.279713 27.036189 
L 231.366246 27.036189 
L 232.664111 27.036189 
L 232.664111 22.324126 
L 232.750579 22.324126 
L 303.005 22.324126 
L 303.005 22.324126 
" style="fill:none;stroke:#7570b3;stroke-linecap:square;stroke-width:1.5;"/>
   </g>
   <g id="line2d_22">
    <path clip-path="url(#p54688ee5c0)" d="M 55.905 210.806645 
L 56.269638 210.806645 
L 56.269638 201.382519 
L 56.376219 201.382519 
L 57.893209 201.382519 
L 57.893209 196.670456 
L 58.00279 196.670456 
L 65.853033 196.670456 
L 65.853033 191.958393 
L 65.939615 191.958393 
L 72.428626 191.958393 
L 72.428626 177.822204 
L 72.515149 177.822204 
L 72.774672 177.822204 
L 72.774672 173.110142 
L 72.861243 173.110142 
L 73.120752 173.110142 
L 73.120752 154.26189 
L 73.207236 154.26189 
L 73.46683 154.26189 
L 73.46683 149.549827 
L 73.553376 149.549827 
L 73.812915 149.549827 
L 73.812915 140.125701 
L 73.899417 140.125701 
L 74.159048 140.125701 
L 74.159048 125.989512 
L 74.245545 125.989512 
L 80.388467 125.989512 
L 80.388467 121.277449 
L 80.474975 121.277449 
L 80.734509 121.277449 
L 80.734509 116.565386 
L 80.821027 116.565386 
L 81.772778 116.565386 
L 81.772778 111.853323 
L 81.859331 111.853323 
L 82.464947 111.853323 
L 82.464947 97.717134 
L 82.551514 97.717134 
L 82.811019 97.717134 
L 82.811019 93.005071 
L 82.897572 93.005071 
L 89.732623 93.005071 
L 89.732623 88.293008 
L 89.819157 88.293008 
L 90.078693 88.293008 
L 90.078693 83.580945 
L 90.165248 83.580945 
L 90.770903 83.580945 
L 90.770903 78.868882 
L 90.857373 78.868882 
L 91.809126 78.868882 
L 91.809126 74.156819 
L 91.895692 74.156819 
L 97.69255 74.156819 
L 97.69255 69.444756 
L 97.77903 69.444756 
L 113.958349 69.444756 
L 113.958349 45.884441 
L 114.044783 45.884441 
L 114.304396 45.884441 
L 114.304396 36.460315 
L 114.390871 36.460315 
L 114.650498 36.460315 
L 114.650498 31.748252 
L 114.73699 31.748252 
L 231.279713 31.748252 
L 231.279713 36.460315 
L 231.366246 36.460315 
L 231.625783 36.460315 
L 231.625783 31.748252 
L 231.712302 31.748252 
L 250.314149 31.748252 
L 250.314149 36.460315 
L 250.400729 36.460315 
L 250.660254 36.460315 
L 250.660254 31.748252 
L 250.746803 31.748252 
L 303.005 31.748252 
L 303.005 31.748252 
" style="fill:none;stroke:#e7298a;stroke-linecap:square;stroke-width:1.5;"/>
   </g>
   <g id="line2d_23">
    <path clip-path="url(#p54688ee5c0)" d="M 55.905 191.958393 
L 72.428626 191.958393 
L 72.428626 187.24633 
L 72.515149 187.24633 
L 74.159048 187.24633 
L 74.159048 182.534267 
L 74.245545 182.534267 
L 74.851186 182.534267 
L 74.851186 177.822204 
L 74.937673 177.822204 
L 81.426708 177.822204 
L 81.426708 173.110142 
L 81.513235 173.110142 
L 82.118868 173.110142 
L 82.118868 168.398079 
L 82.205398 168.398079 
L 89.040448 168.398079 
L 89.040448 163.686016 
L 89.12697 163.686016 
L 113.612219 163.686016 
L 113.612219 154.26189 
L 113.698788 154.26189 
L 113.958349 154.26189 
L 113.958349 144.837764 
L 114.044783 144.837764 
L 114.996542 144.837764 
L 114.996542 140.125701 
L 115.083056 140.125701 
L 116.380898 140.125701 
L 116.380898 135.413638 
L 116.467399 135.413638 
L 122.610333 135.413638 
L 122.610333 130.701575 
L 122.696842 130.701575 
L 123.302435 130.701575 
L 123.302435 121.277449 
L 123.389033 121.277449 
L 123.994669 121.277449 
L 123.994669 116.565386 
L 124.081194 116.565386 
L 126.071158 116.565386 
L 126.071158 111.853323 
L 126.157662 111.853323 
L 129.877984 111.853323 
L 129.877984 107.14126 
L 129.964518 107.14126 
L 130.570147 107.14126 
L 130.570147 102.429197 
L 130.656669 102.429197 
L 130.916225 102.429197 
L 130.916225 93.005071 
L 131.002752 93.005071 
L 131.608442 93.005071 
L 131.608442 88.293008 
L 131.694965 88.293008 
L 131.954489 88.293008 
L 132.041043 74.156819 
L 132.041043 74.156819 
L 132.300614 74.156819 
L 132.300614 64.732693 
L 132.387147 64.732693 
L 133.684884 64.732693 
L 133.684884 69.444756 
L 133.771392 69.444756 
L 138.876098 69.444756 
L 138.876098 60.02063 
L 138.962643 60.02063 
L 139.222264 60.02063 
L 139.222264 55.308567 
L 139.308697 55.308567 
L 139.914377 55.308567 
L 139.914377 50.596504 
L 140.00091 50.596504 
L 140.260498 50.596504 
L 140.260498 41.172378 
L 140.346945 41.172378 
L 140.60658 41.172378 
L 140.60658 36.460315 
L 140.693024 36.460315 
L 141.298752 36.460315 
L 141.298752 31.748252 
L 141.385192 31.748252 
L 303.005 31.748252 
L 303.005 31.748252 
" style="fill:none;stroke:#66a61e;stroke-linecap:square;stroke-width:1.5;"/>
   </g>
   <g id="line2d_24">
    <path clip-path="url(#p54688ee5c0)" d="M 55.905 196.670456 
L 65.160964 196.670456 
L 65.160964 191.958393 
L 65.247419 191.958393 
L 72.082559 191.958393 
L 72.082559 187.24633 
L 72.169085 187.24633 
L 72.428626 187.24633 
L 72.428626 182.534267 
L 72.515149 182.534267 
L 73.120752 182.534267 
L 73.120752 177.822204 
L 73.207236 177.822204 
L 73.46683 177.822204 
L 73.46683 173.110142 
L 73.553376 173.110142 
L 73.812915 173.110142 
L 73.812915 163.686016 
L 73.899417 163.686016 
L 74.159048 163.686016 
L 74.159048 158.973953 
L 74.245545 158.973953 
L 74.505059 158.973953 
L 74.505059 154.26189 
L 74.591675 154.26189 
L 80.042394 154.26189 
L 80.042394 149.549827 
L 80.12889 149.549827 
L 80.388467 149.549827 
L 80.388467 140.125701 
L 80.474975 140.125701 
L 81.080572 140.125701 
L 81.080572 135.413638 
L 81.167099 135.413638 
L 81.426708 135.413638 
L 81.426708 125.989512 
L 81.513235 125.989512 
L 82.118868 125.989512 
L 82.118868 121.277449 
L 82.205398 121.277449 
L 82.811019 121.277449 
L 82.811019 116.565386 
L 82.897572 116.565386 
L 83.15712 116.565386 
L 83.15712 111.853323 
L 83.243654 111.853323 
L 89.386604 111.853323 
L 89.386604 107.14126 
L 89.473069 107.14126 
L 90.770903 107.14126 
L 90.770903 102.429197 
L 90.857373 102.429197 
L 99.76895 102.429197 
L 99.76895 97.717134 
L 99.85548 97.717134 
L 113.612219 97.717134 
L 113.612219 93.005071 
L 113.698788 93.005071 
L 114.650498 93.005071 
L 114.650498 78.868882 
L 114.73699 78.868882 
L 114.996542 78.868882 
L 114.996542 69.444756 
L 115.083056 69.444756 
L 115.342659 69.444756 
L 115.342659 60.02063 
L 115.429157 60.02063 
L 116.380898 60.02063 
L 116.380898 55.308567 
L 116.467399 55.308567 
L 121.226008 55.308567 
L 121.226008 50.596504 
L 121.312524 50.596504 
L 122.264229 50.596504 
L 122.264229 45.884441 
L 122.350733 45.884441 
L 122.610333 45.884441 
L 122.610333 41.172378 
L 122.696842 41.172378 
L 122.956392 41.172378 
L 122.956392 36.460315 
L 123.042921 36.460315 
L 123.994669 36.460315 
L 123.994669 31.748252 
L 124.081194 31.748252 
L 303.005 31.748252 
L 303.005 31.748252 
" style="fill:none;stroke:#e6ab02;stroke-linecap:square;stroke-width:1.5;"/>
   </g>
   <g id="line2d_25">
    <path clip-path="url(#p54688ee5c0)" d="M 55.905 201.382519 
L 65.853033 201.382519 
L 65.853033 196.670456 
L 65.939615 196.670456 
L 72.428626 196.670456 
L 72.428626 191.958393 
L 72.515149 191.958393 
L 73.812915 191.958393 
L 73.812915 187.24633 
L 73.899417 187.24633 
L 81.080572 187.24633 
L 81.080572 177.822204 
L 81.167099 177.822204 
L 81.772778 177.822204 
L 81.772778 173.110142 
L 81.859331 173.110142 
L 82.464947 173.110142 
L 82.464947 168.398079 
L 82.551514 168.398079 
L 82.811019 168.398079 
L 82.811019 163.686016 
L 82.897572 163.686016 
L 90.770903 163.686016 
L 90.770903 158.973953 
L 90.857373 158.973953 
L 98.730759 158.973953 
L 98.730759 154.26189 
L 98.81724 154.26189 
L 113.958349 154.26189 
L 113.958349 144.837764 
L 114.044783 144.837764 
L 114.650498 144.837764 
L 114.650498 140.125701 
L 114.73699 140.125701 
L 116.380898 140.125701 
L 116.380898 135.413638 
L 116.467399 135.413638 
L 121.918155 135.413638 
L 121.918155 130.701575 
L 122.004681 130.701575 
L 123.648585 130.701575 
L 123.648585 125.989512 
L 123.735092 125.989512 
L 123.994669 125.989512 
L 123.994669 121.277449 
L 124.081194 121.277449 
L 124.340746 121.277449 
L 124.427254 107.14126 
L 124.427254 107.14126 
L 130.224074 107.14126 
L 130.224074 102.429197 
L 130.31062 102.429197 
L 130.570147 102.429197 
L 130.570147 93.005071 
L 130.656669 93.005071 
L 130.916225 93.005071 
L 130.916225 88.293008 
L 131.002752 88.293008 
L 131.262341 88.293008 
L 131.348856 74.156819 
L 131.348856 74.156819 
L 131.954489 74.156819 
L 131.954489 60.02063 
L 132.041043 60.02063 
L 132.300614 60.02063 
L 132.300614 50.596504 
L 132.387147 50.596504 
L 132.646645 50.596504 
L 132.646645 31.748252 
L 132.733166 31.748252 
L 132.992772 31.748252 
L 132.992772 27.036189 
L 133.07929 27.036189 
L 134.723191 27.036189 
L 134.723191 22.324126 
L 134.809712 22.324126 
L 229.89546 22.324126 
L 229.89546 27.036189 
L 229.981893 27.036189 
L 230.241538 27.036189 
L 230.241538 22.324126 
L 230.328053 22.324126 
L 230.933661 22.324126 
L 230.933661 27.036189 
L 231.020216 27.036189 
L 231.971864 27.036189 
L 231.971864 31.748252 
L 232.058456 31.748252 
L 232.664111 31.748252 
L 232.664111 36.460315 
L 232.750579 36.460315 
L 242.008229 36.460315 
L 242.008229 41.172378 
L 242.094792 41.172378 
L 262.427039 41.172378 
L 262.427039 36.460315 
L 262.513569 36.460315 
L 300.841969 36.460315 
L 300.841969 41.172378 
L 300.928561 41.172378 
L 303.005 41.172378 
L 303.005 41.172378 
" style="fill:none;stroke:#a6761d;stroke-linecap:square;stroke-width:1.5;"/>
   </g>
   <g id="line2d_26">
    <path clip-path="url(#p54688ee5c0)" d="M 55.905 201.382519 
L 72.774672 201.382519 
L 72.774672 196.670456 
L 72.861243 196.670456 
L 73.812915 196.670456 
L 73.812915 191.958393 
L 73.899417 191.958393 
L 81.426708 191.958393 
L 81.426708 187.24633 
L 81.513235 187.24633 
L 82.118868 187.24633 
L 82.118868 191.958393 
L 82.205398 191.958393 
L 82.464947 191.958393 
L 82.464947 182.534267 
L 82.551514 182.534267 
L 113.958349 182.534267 
L 113.958349 177.822204 
L 114.044783 177.822204 
L 114.650498 177.822204 
L 114.650498 173.110142 
L 114.73699 173.110142 
L 115.342659 173.110142 
L 115.342659 168.398079 
L 115.429157 168.398079 
L 115.688745 168.398079 
L 115.688745 163.686016 
L 115.775252 163.686016 
L 117.419093 163.686016 
L 117.419093 158.973953 
L 117.505591 158.973953 
L 122.956392 158.973953 
L 122.956392 154.26189 
L 123.042921 154.26189 
L 123.994669 154.26189 
L 123.994669 149.549827 
L 124.081194 149.549827 
L 124.340746 149.549827 
L 124.340746 144.837764 
L 124.427254 144.837764 
L 130.224074 144.837764 
L 130.224074 135.413638 
L 130.31062 135.413638 
L 130.570147 135.413638 
L 130.570147 130.701575 
L 130.656669 130.701575 
L 130.916225 130.701575 
L 131.002752 116.565386 
L 131.002752 116.565386 
L 132.300614 116.565386 
L 132.300614 111.853323 
L 132.387147 111.853323 
L 132.646645 111.853323 
L 132.646645 107.14126 
L 132.733166 107.14126 
L 132.992772 107.14126 
L 132.992772 111.853323 
L 133.07929 111.853323 
L 133.338823 111.853323 
L 133.338823 107.14126 
L 133.425364 107.14126 
L 133.684884 107.14126 
L 133.684884 102.429197 
L 133.771392 102.429197 
L 137.83791 102.429197 
L 137.83791 107.14126 
L 137.924364 107.14126 
L 138.876098 107.14126 
L 138.876098 93.005071 
L 138.962643 93.005071 
L 139.568284 93.005071 
L 139.568284 88.293008 
L 139.654846 88.293008 
L 140.260498 88.293008 
L 140.260498 69.444756 
L 140.346945 69.444756 
L 140.60658 69.444756 
L 140.60658 64.732693 
L 140.693024 64.732693 
L 148.220294 64.732693 
L 148.220294 60.02063 
L 148.306849 60.02063 
L 176.252916 60.02063 
L 176.252916 55.308567 
L 176.339383 55.308567 
L 181.790195 55.308567 
L 181.790195 50.596504 
L 181.876698 50.596504 
L 182.136235 50.596504 
L 182.136235 55.308567 
L 182.22274 55.308567 
L 182.828401 55.308567 
L 182.828401 50.596504 
L 182.914894 50.596504 
L 191.134398 50.596504 
L 191.134398 45.884441 
L 191.22101 45.884441 
L 205.323631 45.884441 
L 205.323631 50.596504 
L 205.410162 50.596504 
L 215.013914 50.596504 
L 215.013914 45.884441 
L 215.100439 45.884441 
L 229.89546 45.884441 
L 229.89546 50.596504 
L 229.981893 50.596504 
L 230.587527 50.596504 
L 230.587527 55.308567 
L 230.674047 55.308567 
L 231.625783 55.308567 
L 231.625783 60.02063 
L 231.712302 60.02063 
L 241.316064 60.02063 
L 241.316064 64.732693 
L 241.40256 64.732693 
L 256.19752 64.732693 
L 256.19752 69.444756 
L 256.284114 69.444756 
L 290.80569 69.444756 
L 290.80569 74.156819 
L 290.89219 74.156819 
L 303.005 74.156819 
L 303.005 74.156819 
" style="fill:none;stroke:#666666;stroke-linecap:square;stroke-width:1.5;"/>
   </g>
   <g id="line2d_27">
    <path clip-path="url(#p54688ee5c0)" d="M 55.905 196.670456 
L 63.597775 196.670456 
L 63.597775 191.958393 
L 73.812915 191.958393 
L 73.812915 187.24633 
L 73.899417 187.24633 
L 80.734509 187.24633 
L 80.734509 182.534267 
L 80.821027 182.534267 
L 81.426708 182.534267 
L 81.426708 177.822204 
L 81.513235 177.822204 
L 82.464947 177.822204 
L 82.464947 173.110142 
L 82.551514 173.110142 
L 82.811019 173.110142 
L 82.811019 168.398079 
L 82.897572 168.398079 
L 84.887519 168.398079 
L 84.887519 163.686016 
L 84.974048 163.686016 
L 114.650498 163.686016 
L 114.650498 154.26189 
L 114.73699 154.26189 
L 122.610333 154.26189 
L 122.610333 149.549827 
L 122.696842 149.549827 
L 124.340746 149.549827 
L 124.340746 144.837764 
L 124.427254 144.837764 
L 125.379018 144.837764 
L 125.379018 140.125701 
L 125.46553 140.125701 
L 130.570147 140.125701 
L 130.570147 135.413638 
L 130.656669 135.413638 
L 130.916225 135.413638 
L 130.916225 125.989512 
L 131.002752 125.989512 
L 131.954489 125.989512 
L 131.954489 116.565386 
L 132.041043 116.565386 
L 139.568284 116.565386 
L 139.568284 111.853323 
L 139.654846 111.853323 
L 140.60658 111.853323 
L 140.60658 107.14126 
L 140.693024 107.14126 
L 141.644752 107.14126 
L 141.644752 102.429197 
L 141.731285 102.429197 
L 150.296831 102.429197 
L 150.296831 97.717134 
L 150.38327 97.717134 
L 174.176399 97.717134 
L 174.176399 93.005071 
L 174.262883 93.005071 
L 182.136235 93.005071 
L 182.136235 88.293008 
L 182.22274 88.293008 
L 191.134398 88.293008 
L 191.134398 93.005071 
L 191.22101 93.005071 
L 230.933661 93.005071 
L 230.933661 88.293008 
L 231.020216 88.293008 
L 231.279713 88.293008 
L 231.279713 93.005071 
L 231.366246 93.005071 
L 239.931771 93.005071 
L 239.931771 88.293008 
L 240.0183 88.293008 
L 300.841969 88.293008 
L 300.841969 83.580945 
L 300.928561 83.580945 
L 303.005 83.580945 
L 303.005 83.580945 
" style="fill:none;stroke:#1b9e77;stroke-dasharray:4.5,1.5;stroke-dashoffset:0;stroke-width:1.5;"/>
   </g>
   <g id="line2d_28">
    <path clip-path="url(#p54688ee5c0)" d="M 55.905 206.094582 
L 72.082559 206.094582 
L 72.082559 201.382519 
L 72.169085 201.382519 
L 72.428626 201.382519 
L 72.428626 196.670456 
L 72.515149 196.670456 
L 73.812915 196.670456 
L 73.812915 187.24633 
L 73.899417 187.24633 
L 80.388467 187.24633 
L 80.388467 182.534267 
L 80.474975 182.534267 
L 82.118868 182.534267 
L 82.118868 177.822204 
L 82.205398 177.822204 
L 82.464947 177.822204 
L 82.464947 173.110142 
L 82.551514 173.110142 
L 82.811019 173.110142 
L 82.811019 168.398079 
L 82.897572 168.398079 
L 114.304396 168.398079 
L 114.304396 163.686016 
L 114.390871 163.686016 
L 114.650498 163.686016 
L 114.650498 158.973953 
L 114.73699 158.973953 
L 114.996542 158.973953 
L 114.996542 149.549827 
L 115.083056 149.549827 
L 123.648585 149.549827 
L 123.648585 144.837764 
L 123.735092 144.837764 
L 123.994669 144.837764 
L 123.994669 140.125701 
L 124.081194 140.125701 
L 129.877984 140.125701 
L 129.877984 144.837764 
L 129.964518 144.837764 
L 130.916225 144.837764 
L 130.916225 135.413638 
L 131.002752 135.413638 
L 131.262341 135.413638 
L 131.262341 140.125701 
L 131.348856 140.125701 
L 131.608442 140.125701 
L 131.608442 135.413638 
L 131.694965 135.413638 
L 132.300614 135.413638 
L 132.300614 125.989512 
L 132.387147 125.989512 
L 132.646645 125.989512 
L 132.646645 121.277449 
L 132.733166 121.277449 
L 148.912442 121.277449 
L 148.912442 116.565386 
L 148.999007 116.565386 
L 149.950746 116.565386 
L 149.950746 111.853323 
L 150.037282 111.853323 
L 166.562579 111.853323 
L 166.562579 107.14126 
L 166.64914 107.14126 
L 198.055946 107.14126 
L 198.055946 102.429197 
L 198.142496 102.429197 
L 199.440267 102.429197 
L 199.440267 97.717134 
L 199.526815 97.717134 
L 206.36194 97.717134 
L 206.36194 93.005071 
L 206.44842 93.005071 
L 233.702349 93.005071 
L 233.702349 88.293008 
L 233.788848 88.293008 
L 303.005 88.293008 
L 303.005 88.293008 
" style="fill:none;stroke:#d95f02;stroke-dasharray:4.5,1.5;stroke-dashoffset:0;stroke-width:1.5;"/>
   </g>
   <g id="line2d_29">
    <path clip-path="url(#p54688ee5c0)" d="M 55.905 206.094582 
L 72.774672 206.094582 
L 72.774672 201.382519 
L 72.861243 201.382519 
L 82.118868 201.382519 
L 82.118868 191.958393 
L 82.205398 191.958393 
L 113.612219 191.958393 
L 113.612219 187.24633 
L 113.698788 187.24633 
L 114.304396 187.24633 
L 114.304396 182.534267 
L 114.390871 182.534267 
L 115.342659 182.534267 
L 115.342659 177.822204 
L 115.429157 177.822204 
L 121.918155 177.822204 
L 121.918155 173.110142 
L 122.004681 173.110142 
L 122.264229 173.110142 
L 122.264229 163.686016 
L 122.350733 163.686016 
L 122.610333 163.686016 
L 122.610333 158.973953 
L 122.696842 158.973953 
L 123.302435 158.973953 
L 123.302435 154.26189 
L 123.389033 154.26189 
L 123.648585 154.26189 
L 123.648585 144.837764 
L 123.735092 144.837764 
L 123.994669 144.837764 
L 123.994669 135.413638 
L 124.081194 135.413638 
L 125.379018 135.413638 
L 125.379018 130.701575 
L 125.46553 130.701575 
L 126.071158 130.701575 
L 126.071158 125.989512 
L 126.157662 125.989512 
L 126.417175 125.989512 
L 126.417175 130.701575 
L 126.503785 130.701575 
L 129.531939 130.701575 
L 129.531939 135.413638 
L 129.618488 135.413638 
L 129.877984 135.413638 
L 129.877984 140.125701 
L 129.964518 140.125701 
L 130.224074 140.125701 
L 130.224074 135.413638 
L 130.31062 135.413638 
L 130.570147 135.413638 
L 130.570147 140.125701 
L 130.656669 140.125701 
L 130.916225 140.125701 
L 130.916225 135.413638 
L 131.002752 135.413638 
L 131.262341 135.413638 
L 131.262341 130.701575 
L 131.348856 130.701575 
L 131.954489 130.701575 
L 131.954489 135.413638 
L 132.041043 135.413638 
L 139.914377 135.413638 
L 139.914377 130.701575 
L 140.00091 130.701575 
L 140.60658 130.701575 
L 140.60658 125.989512 
L 140.693024 125.989512 
L 148.566421 125.989512 
L 148.566421 121.277449 
L 148.652881 121.277449 
L 150.988959 121.277449 
L 150.988959 116.565386 
L 151.075517 116.565386 
L 173.138145 116.565386 
L 173.138145 111.853323 
L 173.224617 111.853323 
L 173.484221 111.853323 
L 173.484221 107.14126 
L 173.570698 107.14126 
L 174.86851 107.14126 
L 174.86851 102.429197 
L 174.955134 102.429197 
L 191.134398 102.429197 
L 191.134398 97.717134 
L 191.22101 97.717134 
L 192.17255 97.717134 
L 192.17255 93.005071 
L 192.259155 93.005071 
L 209.476653 93.005071 
L 209.476653 88.293008 
L 209.563118 88.293008 
L 217.090398 88.293008 
L 217.090398 93.005071 
L 217.176973 93.005071 
L 230.587527 93.005071 
L 230.587527 97.717134 
L 230.674047 97.717134 
L 290.113511 97.717134 
L 290.113511 93.005071 
L 290.200003 93.005071 
L 303.005 93.005071 
L 303.005 93.005071 
" style="fill:none;stroke:#7570b3;stroke-dasharray:4.5,1.5;stroke-dashoffset:0;stroke-width:1.5;"/>
   </g>
   <g id="line2d_30">
    <path clip-path="url(#p54688ee5c0)" d="M 55.905 210.806645 
L 64.81515 210.806645 
L 64.81515 206.094582 
L 64.901352 206.094582 
L 65.507027 206.094582 
L 65.507027 201.382519 
L 65.593509 201.382519 
L 73.46683 201.382519 
L 73.46683 196.670456 
L 73.553376 196.670456 
L 82.464947 196.670456 
L 82.464947 191.958393 
L 82.551514 191.958393 
L 88.002255 191.958393 
L 88.002255 187.24633 
L 88.088851 187.24633 
L 89.732623 187.24633 
L 89.732623 182.534267 
L 89.819157 182.534267 
L 90.424816 182.534267 
L 90.424816 177.822204 
L 90.511355 177.822204 
L 113.612219 177.822204 
L 113.612219 168.398079 
L 113.698788 168.398079 
L 114.304396 168.398079 
L 114.304396 163.686016 
L 114.390871 163.686016 
L 114.650498 163.686016 
L 114.650498 158.973953 
L 114.73699 158.973953 
L 114.996542 158.973953 
L 114.996542 154.26189 
L 115.083056 154.26189 
L 115.342659 154.26189 
L 115.342659 144.837764 
L 115.429157 144.837764 
L 115.688745 144.837764 
L 115.688745 140.125701 
L 115.775252 140.125701 
L 116.380898 140.125701 
L 116.380898 135.413638 
L 116.467399 135.413638 
L 117.07309 135.413638 
L 117.07309 130.701575 
L 117.159504 130.701575 
L 118.111239 130.701575 
L 118.111239 125.989512 
L 118.197761 125.989512 
L 121.918155 125.989512 
L 121.918155 121.277449 
L 122.004681 121.277449 
L 122.264229 121.277449 
L 122.264229 116.565386 
L 122.350733 116.565386 
L 122.610333 116.565386 
L 122.610333 102.429197 
L 122.696842 102.429197 
L 122.956392 102.429197 
L 122.956392 97.717134 
L 123.042921 97.717134 
L 123.302435 97.717134 
L 123.302435 93.005071 
L 123.389033 93.005071 
L 126.417175 93.005071 
L 126.417175 97.717134 
L 126.503785 97.717134 
L 130.916225 97.717134 
L 130.916225 93.005071 
L 131.002752 93.005071 
L 131.262341 93.005071 
L 131.262341 97.717134 
L 131.348856 97.717134 
L 131.608442 97.717134 
L 131.608442 93.005071 
L 131.694965 93.005071 
L 141.298752 93.005071 
L 141.298752 97.717134 
L 141.385192 97.717134 
L 141.644752 97.717134 
L 141.644752 93.005071 
L 141.731285 93.005071 
L 303.005 93.005071 
L 303.005 93.005071 
" style="fill:none;stroke:#e7298a;stroke-dasharray:4.5,1.5;stroke-dashoffset:0;stroke-width:1.5;"/>
   </g>
   <g id="line2d_31">
    <path clip-path="url(#p54688ee5c0)" d="M 211.293545 210.806645 
L 214.321728 210.806645 
L 214.321728 206.094582 
L 214.408309 206.094582 
L 224.704228 206.094582 
L 224.704228 201.382519 
L 224.790721 201.382519 
L 229.89546 201.382519 
L 229.89546 182.534267 
L 229.981893 182.534267 
L 230.587527 182.534267 
L 230.587527 173.110142 
L 230.674047 173.110142 
L 231.279713 173.110142 
L 231.279713 158.973953 
L 231.366246 158.973953 
L 231.971864 158.973953 
L 231.971864 154.26189 
L 232.058456 154.26189 
L 238.893555 154.26189 
L 238.893555 149.549827 
L 238.980021 149.549827 
L 240.623939 149.549827 
L 240.623939 144.837764 
L 240.710404 144.837764 
L 241.316064 144.837764 
L 241.316064 140.125701 
L 241.40256 140.125701 
L 242.008229 140.125701 
L 242.008229 135.413638 
L 242.094792 135.413638 
L 242.354322 135.413638 
L 242.354322 130.701575 
L 242.440786 130.701575 
L 247.199477 130.701575 
L 247.199477 125.989512 
L 247.285957 125.989512 
L 250.314149 125.989512 
L 250.314149 121.277449 
L 250.400729 121.277449 
L 256.19752 121.277449 
L 256.19752 116.565386 
L 256.284114 116.565386 
L 303.005 116.565386 
L 303.005 116.565386 
" style="fill:none;stroke:#66a61e;stroke-dasharray:4.5,1.5;stroke-dashoffset:0;stroke-width:1.5;"/>
   </g>
   <g id="line2d_32">
    <path clip-path="url(#p54688ee5c0)" d="M 55.905 206.094582 
L 73.120752 206.094582 
L 73.120752 196.670456 
L 73.207236 196.670456 
L 80.734509 196.670456 
L 80.734509 187.24633 
L 80.821027 187.24633 
L 81.080572 187.24633 
L 81.080572 182.534267 
L 81.167099 182.534267 
L 82.464947 182.534267 
L 82.464947 177.822204 
L 82.551514 177.822204 
L 82.811019 177.822204 
L 82.811019 173.110142 
L 82.897572 173.110142 
L 114.996542 173.110142 
L 114.996542 168.398079 
L 115.083056 168.398079 
L 115.342659 168.398079 
L 115.342659 163.686016 
L 115.429157 163.686016 
L 115.688745 163.686016 
L 115.688745 158.973953 
L 115.775252 158.973953 
L 116.726911 158.973953 
L 116.726911 154.26189 
L 116.813509 154.26189 
L 117.07309 154.26189 
L 117.07309 158.973953 
L 117.159504 158.973953 
L 121.918155 158.973953 
L 121.918155 140.125701 
L 122.004681 140.125701 
L 122.610333 140.125701 
L 122.610333 130.701575 
L 122.696842 130.701575 
L 122.956392 130.701575 
L 122.956392 125.989512 
L 123.042921 125.989512 
L 123.302435 125.989512 
L 123.302435 116.565386 
L 123.389033 116.565386 
L 303.005 116.565386 
L 303.005 116.565386 
" style="fill:none;stroke:#e6ab02;stroke-dasharray:4.5,1.5;stroke-dashoffset:0;stroke-width:1.5;"/>
   </g>
   <g id="line2d_33">
    <path clip-path="url(#p54688ee5c0)" d="M 55.905 210.806645 
L 66.199107 210.806645 
L 66.199107 206.094582 
L 66.285665 206.094582 
L 67.583499 206.094582 
L 67.583499 201.382519 
L 67.669969 201.382519 
L 89.386604 201.382519 
L 89.386604 196.670456 
L 89.473069 196.670456 
L 113.612219 196.670456 
L 113.612219 191.958393 
L 113.698788 191.958393 
L 116.034774 191.958393 
L 116.034774 182.534267 
L 116.121277 182.534267 
L 122.610333 182.534267 
L 122.610333 177.822204 
L 122.696842 177.822204 
L 122.956392 177.822204 
L 122.956392 173.110142 
L 123.042921 173.110142 
L 123.994669 173.110142 
L 123.994669 163.686016 
L 124.081194 163.686016 
L 124.340746 163.686016 
L 124.340746 158.973953 
L 124.427254 158.973953 
L 126.417175 158.973953 
L 126.417175 154.26189 
L 126.503785 154.26189 
L 130.570147 154.26189 
L 130.570147 158.973953 
L 130.656669 158.973953 
L 131.262341 158.973953 
L 131.262341 154.26189 
L 131.348856 154.26189 
L 131.608442 154.26189 
L 131.608442 149.549827 
L 131.694965 149.549827 
L 132.300614 149.549827 
L 132.300614 144.837764 
L 132.387147 144.837764 
L 132.646645 144.837764 
L 132.646645 149.549827 
L 132.733166 149.549827 
L 132.992772 149.549827 
L 132.992772 144.837764 
L 133.07929 144.837764 
L 138.876098 144.837764 
L 138.876098 140.125701 
L 138.962643 140.125701 
L 149.950746 140.125701 
L 149.950746 135.413638 
L 150.037282 135.413638 
L 173.138145 135.413638 
L 173.138145 130.701575 
L 173.224617 130.701575 
L 206.015811 130.701575 
L 206.015811 125.989512 
L 206.102392 125.989512 
L 247.199477 125.989512 
L 247.199477 121.277449 
L 247.285957 121.277449 
L 290.80569 121.277449 
L 290.80569 116.565386 
L 290.89219 116.565386 
L 303.005 116.565386 
L 303.005 116.565386 
" style="fill:none;stroke:#a6761d;stroke-dasharray:4.5,1.5;stroke-dashoffset:0;stroke-width:1.5;"/>
   </g>
   <g id="line2d_34">
    <path clip-path="url(#p54688ee5c0)" d="M 55.905 210.806645 
L 73.812915 210.806645 
L 73.812915 206.094582 
L 73.899417 206.094582 
L 74.159048 206.094582 
L 74.159048 201.382519 
L 74.245545 201.382519 
L 81.080572 201.382519 
L 81.080572 196.670456 
L 81.167099 196.670456 
L 82.811019 196.670456 
L 82.811019 191.958393 
L 82.897572 191.958393 
L 83.503181 191.958393 
L 83.503181 187.24633 
L 83.589719 187.24633 
L 84.195378 187.24633 
L 84.195378 182.534267 
L 84.281904 182.534267 
L 89.386604 182.534267 
L 89.386604 187.24633 
L 89.473069 187.24633 
L 113.958349 187.24633 
L 113.958349 182.534267 
L 114.044783 182.534267 
L 116.034774 182.534267 
L 116.034774 173.110142 
L 116.121277 173.110142 
L 122.264229 173.110142 
L 122.264229 168.398079 
L 122.350733 168.398079 
L 123.648585 168.398079 
L 123.648585 149.549827 
L 123.735092 149.549827 
L 123.994669 149.549827 
L 123.994669 144.837764 
L 124.081194 144.837764 
L 124.340746 144.837764 
L 124.340746 140.125701 
L 124.427254 140.125701 
L 230.587527 140.125701 
L 230.587527 144.837764 
L 230.674047 144.837764 
L 230.933661 144.837764 
L 230.933661 140.125701 
L 231.020216 140.125701 
L 303.005 140.125701 
L 303.005 140.125701 
" style="fill:none;stroke:#666666;stroke-dasharray:4.5,1.5;stroke-dashoffset:0;stroke-width:1.5;"/>
   </g>
   <g id="line2d_35"/>
   <g id="line2d_36"/>
   <g id="line2d_37"/>
   <g id="line2d_38"/>
   <g id="line2d_39"/>
   <g id="line2d_40"/>
   <g id="line2d_41"/>
   <g id="line2d_42"/>
   <g id="line2d_43"/>
   <g id="line2d_44"/>
   <g id="line2d_45"/>
   <g id="line2d_46"/>
   <g id="line2d_47"/>
   <g id="line2d_48"/>
   <g id="line2d_49"/>
   <g id="line2d_50"/>
   <g id="line2d_51"/>
   <g id="patch_3">
    <path d="M 43.55 220.230771 
L 43.55 12.9 
" style="fill:none;stroke:#000000;stroke-linecap:square;stroke-linejoin:miter;stroke-width:0.8;"/>
   </g>
   <g id="patch_4">
    <path d="M 315.36 220.230771 
L 315.36 12.9 
" style="fill:none;stroke:#000000;stroke-linecap:square;stroke-linejoin:miter;stroke-width:0.8;"/>
   </g>
   <g id="patch_5">
    <path d="M 43.55 220.230771 
L 315.36 220.230771 
" style="fill:none;stroke:#000000;stroke-linecap:square;stroke-linejoin:miter;stroke-width:0.8;"/>
   </g>
   <g id="patch_6">
    <path d="M 43.55 12.9 
L 315.36 12.9 
" style="fill:none;stroke:#000000;stroke-linecap:square;stroke-linejoin:miter;stroke-width:0.8;"/>
   </g>
  </g>
  <g id="legend_1">
   <g id="patch_7">
    <path d="M 331.8625 262.528125 
L 420 262.528125 
Q 422 262.528125 422 260.528125 
L 422 12 
Q 422 10 420 10 
L 331.8625 10 
Q 329.8625 10 329.8625 12 
L 329.8625 260.528125 
Q 329.8625 262.528125 331.8625 262.528125 
z
" style="fill:#ffffff;opacity:0.8;stroke:#cccccc;stroke-linejoin:miter;"/>
   </g>
   <g id="text_21">
    <!-- 477/610 Reg. -->
    <defs>
     <path d="M 25.390625 72.90625 
L 33.6875 72.90625 
L 8.296875 -9.28125 
L 0 -9.28125 
z
" id="DejaVuSans-47"/>
     <path d="M 33.015625 40.375 
Q 26.375 40.375 22.484375 35.828125 
Q 18.609375 31.296875 18.609375 23.390625 
Q 18.609375 15.53125 22.484375 10.953125 
Q 26.375 6.390625 33.015625 6.390625 
Q 39.65625 6.390625 43.53125 10.953125 
Q 47.40625 15.53125 47.40625 23.390625 
Q 47.40625 31.296875 43.53125 35.828125 
Q 39.65625 40.375 33.015625 40.375 
z
M 52.59375 71.296875 
L 52.59375 62.3125 
Q 48.875 64.0625 45.09375 64.984375 
Q 41.3125 65.921875 37.59375 65.921875 
Q 27.828125 65.921875 22.671875 59.328125 
Q 17.53125 52.734375 16.796875 39.40625 
Q 19.671875 43.65625 24.015625 45.921875 
Q 28.375 48.1875 33.59375 48.1875 
Q 44.578125 48.1875 50.953125 41.515625 
Q 57.328125 34.859375 57.328125 23.390625 
Q 57.328125 12.15625 50.6875 5.359375 
Q 44.046875 -1.421875 33.015625 -1.421875 
Q 20.359375 -1.421875 13.671875 8.265625 
Q 6.984375 17.96875 6.984375 36.375 
Q 6.984375 53.65625 15.1875 63.9375 
Q 23.390625 74.21875 37.203125 74.21875 
Q 40.921875 74.21875 44.703125 73.484375 
Q 48.484375 72.75 52.59375 71.296875 
z
" id="DejaVuSans-54"/>
     <path d="M 10.6875 12.40625 
L 21 12.40625 
L 21 0 
L 10.6875 0 
z
" id="DejaVuSans-46"/>
    </defs>
    <g transform="translate(342.259375 21.598437)scale(0.1 -0.1)">
     <use xlink:href="#DejaVuSans-52"/>
     <use x="63.623047" xlink:href="#DejaVuSans-55"/>
     <use x="127.246094" xlink:href="#DejaVuSans-55"/>
     <use x="190.869141" xlink:href="#DejaVuSans-47"/>
     <use x="224.560547" xlink:href="#DejaVuSans-54"/>
     <use x="288.183594" xlink:href="#DejaVuSans-49"/>
     <use x="351.806641" xlink:href="#DejaVuSans-48"/>
     <use x="415.429688" xlink:href="#DejaVuSans-32"/>
     <use x="447.216797" xlink:href="#DejaVuSans-82"/>
     <use x="516.636719" xlink:href="#DejaVuSans-101"/>
     <use x="578.160156" xlink:href="#DejaVuSans-103"/>
     <use x="641.636719" xlink:href="#DejaVuSans-46"/>
    </g>
   </g>
   <g id="line2d_52">
    <path d="M 333.8625 32.776562 
L 353.8625 32.776562 
" style="fill:none;stroke:#1b9e77;stroke-linecap:square;stroke-width:1.5;"/>
   </g>
   <g id="line2d_53"/>
   <g id="text_22">
    <!-- AUS (40) -->
    <defs>
     <path d="M 34.1875 63.1875 
L 20.796875 26.90625 
L 47.609375 26.90625 
z
M 28.609375 72.90625 
L 39.796875 72.90625 
L 67.578125 0 
L 57.328125 0 
L 50.6875 18.703125 
L 17.828125 18.703125 
L 11.1875 0 
L 0.78125 0 
z
" id="DejaVuSans-65"/>
     <path d="M 8.6875 72.90625 
L 18.609375 72.90625 
L 18.609375 28.609375 
Q 18.609375 16.890625 22.84375 11.734375 
Q 27.09375 6.59375 36.625 6.59375 
Q 46.09375 6.59375 50.34375 11.734375 
Q 54.59375 16.890625 54.59375 28.609375 
L 54.59375 72.90625 
L 64.5 72.90625 
L 64.5 27.390625 
Q 64.5 13.140625 57.4375 5.859375 
Q 50.390625 -1.421875 36.625 -1.421875 
Q 22.796875 -1.421875 15.734375 5.859375 
Q 8.6875 13.140625 8.6875 27.390625 
z
" id="DejaVuSans-85"/>
     <path d="M 31 75.875 
Q 24.46875 64.65625 21.28125 53.65625 
Q 18.109375 42.671875 18.109375 31.390625 
Q 18.109375 20.125 21.3125 9.0625 
Q 24.515625 -2 31 -13.1875 
L 23.1875 -13.1875 
Q 15.875 -1.703125 12.234375 9.375 
Q 8.59375 20.453125 8.59375 31.390625 
Q 8.59375 42.28125 12.203125 53.3125 
Q 15.828125 64.359375 23.1875 75.875 
z
" id="DejaVuSans-40"/>
     <path d="M 8.015625 75.875 
L 15.828125 75.875 
Q 23.140625 64.359375 26.78125 53.3125 
Q 30.421875 42.28125 30.421875 31.390625 
Q 30.421875 20.453125 26.78125 9.375 
Q 23.140625 -1.703125 15.828125 -13.1875 
L 8.015625 -13.1875 
Q 14.5 -2 17.703125 9.0625 
Q 20.90625 20.125 20.90625 31.390625 
Q 20.90625 42.671875 17.703125 53.65625 
Q 14.5 64.65625 8.015625 75.875 
z
" id="DejaVuSans-41"/>
    </defs>
    <g transform="translate(361.8625 36.276562)scale(0.1 -0.1)">
     <use xlink:href="#DejaVuSans-65"/>
     <use x="68.408203" xlink:href="#DejaVuSans-85"/>
     <use x="141.601562" xlink:href="#DejaVuSans-83"/>
     <use x="205.078125" xlink:href="#DejaVuSans-32"/>
     <use x="236.865234" xlink:href="#DejaVuSans-40"/>
     <use x="275.878906" xlink:href="#DejaVuSans-52"/>
     <use x="339.501953" xlink:href="#DejaVuSans-48"/>
     <use x="403.125" xlink:href="#DejaVuSans-41"/>
    </g>
   </g>
   <g id="line2d_54">
    <path d="M 333.8625 47.454688 
L 353.8625 47.454688 
" style="fill:none;stroke:#d95f02;stroke-linecap:square;stroke-width:1.5;"/>
   </g>
   <g id="line2d_55"/>
   <g id="text_23">
    <!-- COML (40) -->
    <defs>
     <path d="M 64.40625 67.28125 
L 64.40625 56.890625 
Q 59.421875 61.53125 53.78125 63.8125 
Q 48.140625 66.109375 41.796875 66.109375 
Q 29.296875 66.109375 22.65625 58.46875 
Q 16.015625 50.828125 16.015625 36.375 
Q 16.015625 21.96875 22.65625 14.328125 
Q 29.296875 6.6875 41.796875 6.6875 
Q 48.140625 6.6875 53.78125 8.984375 
Q 59.421875 11.28125 64.40625 15.921875 
L 64.40625 5.609375 
Q 59.234375 2.09375 53.4375 0.328125 
Q 47.65625 -1.421875 41.21875 -1.421875 
Q 24.65625 -1.421875 15.125 8.703125 
Q 5.609375 18.84375 5.609375 36.375 
Q 5.609375 53.953125 15.125 64.078125 
Q 24.65625 74.21875 41.21875 74.21875 
Q 47.75 74.21875 53.53125 72.484375 
Q 59.328125 70.75 64.40625 67.28125 
z
" id="DejaVuSans-67"/>
     <path d="M 39.40625 66.21875 
Q 28.65625 66.21875 22.328125 58.203125 
Q 16.015625 50.203125 16.015625 36.375 
Q 16.015625 22.609375 22.328125 14.59375 
Q 28.65625 6.59375 39.40625 6.59375 
Q 50.140625 6.59375 56.421875 14.59375 
Q 62.703125 22.609375 62.703125 36.375 
Q 62.703125 50.203125 56.421875 58.203125 
Q 50.140625 66.21875 39.40625 66.21875 
z
M 39.40625 74.21875 
Q 54.734375 74.21875 63.90625 63.9375 
Q 73.09375 53.65625 73.09375 36.375 
Q 73.09375 19.140625 63.90625 8.859375 
Q 54.734375 -1.421875 39.40625 -1.421875 
Q 24.03125 -1.421875 14.8125 8.828125 
Q 5.609375 19.09375 5.609375 36.375 
Q 5.609375 53.65625 14.8125 63.9375 
Q 24.03125 74.21875 39.40625 74.21875 
z
" id="DejaVuSans-79"/>
     <path d="M 9.8125 72.90625 
L 24.515625 72.90625 
L 43.109375 23.296875 
L 61.8125 72.90625 
L 76.515625 72.90625 
L 76.515625 0 
L 66.890625 0 
L 66.890625 64.015625 
L 48.09375 14.015625 
L 38.1875 14.015625 
L 19.390625 64.015625 
L 19.390625 0 
L 9.8125 0 
z
" id="DejaVuSans-77"/>
     <path d="M 9.8125 72.90625 
L 19.671875 72.90625 
L 19.671875 8.296875 
L 55.171875 8.296875 
L 55.171875 0 
L 9.8125 0 
z
" id="DejaVuSans-76"/>
    </defs>
    <g transform="translate(361.8625 50.954688)scale(0.1 -0.1)">
     <use xlink:href="#DejaVuSans-67"/>
     <use x="69.824219" xlink:href="#DejaVuSans-79"/>
     <use x="148.535156" xlink:href="#DejaVuSans-77"/>
     <use x="234.814453" xlink:href="#DejaVuSans-76"/>
     <use x="290.527344" xlink:href="#DejaVuSans-32"/>
     <use x="322.314453" xlink:href="#DejaVuSans-40"/>
     <use x="361.328125" xlink:href="#DejaVuSans-52"/>
     <use x="424.951172" xlink:href="#DejaVuSans-48"/>
     <use x="488.574219" xlink:href="#DejaVuSans-41"/>
    </g>
   </g>
   <g id="line2d_56">
    <path d="M 333.8625 62.132812 
L 353.8625 62.132812 
" style="fill:none;stroke:#7570b3;stroke-linecap:square;stroke-width:1.5;"/>
   </g>
   <g id="line2d_57"/>
   <g id="text_24">
    <!-- GDD (40) -->
    <defs>
     <path d="M 59.515625 10.40625 
L 59.515625 29.984375 
L 43.40625 29.984375 
L 43.40625 38.09375 
L 69.28125 38.09375 
L 69.28125 6.78125 
Q 63.578125 2.734375 56.6875 0.65625 
Q 49.8125 -1.421875 42 -1.421875 
Q 24.90625 -1.421875 15.25 8.5625 
Q 5.609375 18.5625 5.609375 36.375 
Q 5.609375 54.25 15.25 64.234375 
Q 24.90625 74.21875 42 74.21875 
Q 49.125 74.21875 55.546875 72.453125 
Q 61.96875 70.703125 67.390625 67.28125 
L 67.390625 56.78125 
Q 61.921875 61.421875 55.765625 63.765625 
Q 49.609375 66.109375 42.828125 66.109375 
Q 29.4375 66.109375 22.71875 58.640625 
Q 16.015625 51.171875 16.015625 36.375 
Q 16.015625 21.625 22.71875 14.15625 
Q 29.4375 6.6875 42.828125 6.6875 
Q 48.046875 6.6875 52.140625 7.59375 
Q 56.25 8.5 59.515625 10.40625 
z
" id="DejaVuSans-71"/>
    </defs>
    <g transform="translate(361.8625 65.632812)scale(0.1 -0.1)">
     <use xlink:href="#DejaVuSans-71"/>
     <use x="77.490234" xlink:href="#DejaVuSans-68"/>
     <use x="154.492188" xlink:href="#DejaVuSans-68"/>
     <use x="231.494141" xlink:href="#DejaVuSans-32"/>
     <use x="263.28125" xlink:href="#DejaVuSans-40"/>
     <use x="302.294922" xlink:href="#DejaVuSans-52"/>
     <use x="365.917969" xlink:href="#DejaVuSans-48"/>
     <use x="429.541016" xlink:href="#DejaVuSans-41"/>
    </g>
   </g>
   <g id="line2d_58">
    <path d="M 333.8625 76.810937 
L 353.8625 76.810937 
" style="fill:none;stroke:#e7298a;stroke-linecap:square;stroke-width:1.5;"/>
   </g>
   <g id="line2d_59"/>
   <g id="text_25">
    <!-- AS (38) -->
    <defs>
     <path d="M 31.78125 34.625 
Q 24.75 34.625 20.71875 30.859375 
Q 16.703125 27.09375 16.703125 20.515625 
Q 16.703125 13.921875 20.71875 10.15625 
Q 24.75 6.390625 31.78125 6.390625 
Q 38.8125 6.390625 42.859375 10.171875 
Q 46.921875 13.96875 46.921875 20.515625 
Q 46.921875 27.09375 42.890625 30.859375 
Q 38.875 34.625 31.78125 34.625 
z
M 21.921875 38.8125 
Q 15.578125 40.375 12.03125 44.71875 
Q 8.5 49.078125 8.5 55.328125 
Q 8.5 64.0625 14.71875 69.140625 
Q 20.953125 74.21875 31.78125 74.21875 
Q 42.671875 74.21875 48.875 69.140625 
Q 55.078125 64.0625 55.078125 55.328125 
Q 55.078125 49.078125 51.53125 44.71875 
Q 48 40.375 41.703125 38.8125 
Q 48.828125 37.15625 52.796875 32.3125 
Q 56.78125 27.484375 56.78125 20.515625 
Q 56.78125 9.90625 50.3125 4.234375 
Q 43.84375 -1.421875 31.78125 -1.421875 
Q 19.734375 -1.421875 13.25 4.234375 
Q 6.78125 9.90625 6.78125 20.515625 
Q 6.78125 27.484375 10.78125 32.3125 
Q 14.796875 37.15625 21.921875 38.8125 
z
M 18.3125 54.390625 
Q 18.3125 48.734375 21.84375 45.5625 
Q 25.390625 42.390625 31.78125 42.390625 
Q 38.140625 42.390625 41.71875 45.5625 
Q 45.3125 48.734375 45.3125 54.390625 
Q 45.3125 60.0625 41.71875 63.234375 
Q 38.140625 66.40625 31.78125 66.40625 
Q 25.390625 66.40625 21.84375 63.234375 
Q 18.3125 60.0625 18.3125 54.390625 
z
" id="DejaVuSans-56"/>
    </defs>
    <g transform="translate(361.8625 80.310937)scale(0.1 -0.1)">
     <use xlink:href="#DejaVuSans-65"/>
     <use x="68.408203" xlink:href="#DejaVuSans-83"/>
     <use x="131.884766" xlink:href="#DejaVuSans-32"/>
     <use x="163.671875" xlink:href="#DejaVuSans-40"/>
     <use x="202.685547" xlink:href="#DejaVuSans-51"/>
     <use x="266.308594" xlink:href="#DejaVuSans-56"/>
     <use x="329.931641" xlink:href="#DejaVuSans-41"/>
    </g>
   </g>
   <g id="line2d_60">
    <path d="M 333.8625 91.489062 
L 353.8625 91.489062 
" style="fill:none;stroke:#66a61e;stroke-linecap:square;stroke-width:1.5;"/>
   </g>
   <g id="line2d_61"/>
   <g id="text_26">
    <!-- MD (38) -->
    <g transform="translate(361.8625 94.989062)scale(0.1 -0.1)">
     <use xlink:href="#DejaVuSans-77"/>
     <use x="86.279297" xlink:href="#DejaVuSans-68"/>
     <use x="163.28125" xlink:href="#DejaVuSans-32"/>
     <use x="195.068359" xlink:href="#DejaVuSans-40"/>
     <use x="234.082031" xlink:href="#DejaVuSans-51"/>
     <use x="297.705078" xlink:href="#DejaVuSans-56"/>
     <use x="361.328125" xlink:href="#DejaVuSans-41"/>
    </g>
   </g>
   <g id="line2d_62">
    <path d="M 333.8625 106.167188 
L 353.8625 106.167188 
" style="fill:none;stroke:#e6ab02;stroke-linecap:square;stroke-width:1.5;"/>
   </g>
   <g id="line2d_63"/>
   <g id="text_27">
    <!-- HPI (38) -->
    <defs>
     <path d="M 9.8125 72.90625 
L 19.671875 72.90625 
L 19.671875 43.015625 
L 55.515625 43.015625 
L 55.515625 72.90625 
L 65.375 72.90625 
L 65.375 0 
L 55.515625 0 
L 55.515625 34.71875 
L 19.671875 34.71875 
L 19.671875 0 
L 9.8125 0 
z
" id="DejaVuSans-72"/>
     <path d="M 19.671875 64.796875 
L 19.671875 37.40625 
L 32.078125 37.40625 
Q 38.96875 37.40625 42.71875 40.96875 
Q 46.484375 44.53125 46.484375 51.125 
Q 46.484375 57.671875 42.71875 61.234375 
Q 38.96875 64.796875 32.078125 64.796875 
z
M 9.8125 72.90625 
L 32.078125 72.90625 
Q 44.34375 72.90625 50.609375 67.359375 
Q 56.890625 61.8125 56.890625 51.125 
Q 56.890625 40.328125 50.609375 34.8125 
Q 44.34375 29.296875 32.078125 29.296875 
L 19.671875 29.296875 
L 19.671875 0 
L 9.8125 0 
z
" id="DejaVuSans-80"/>
     <path d="M 9.8125 72.90625 
L 19.671875 72.90625 
L 19.671875 0 
L 9.8125 0 
z
" id="DejaVuSans-73"/>
    </defs>
    <g transform="translate(361.8625 109.667188)scale(0.1 -0.1)">
     <use xlink:href="#DejaVuSans-72"/>
     <use x="75.195312" xlink:href="#DejaVuSans-80"/>
     <use x="135.498047" xlink:href="#DejaVuSans-73"/>
     <use x="164.990234" xlink:href="#DejaVuSans-32"/>
     <use x="196.777344" xlink:href="#DejaVuSans-40"/>
     <use x="235.791016" xlink:href="#DejaVuSans-51"/>
     <use x="299.414062" xlink:href="#DejaVuSans-56"/>
     <use x="363.037109" xlink:href="#DejaVuSans-41"/>
    </g>
   </g>
   <g id="line2d_64">
    <path d="M 333.8625 120.845312 
L 353.8625 120.845312 
" style="fill:none;stroke:#a6761d;stroke-linecap:square;stroke-width:1.5;"/>
   </g>
   <g id="line2d_65"/>
   <g id="text_28">
    <!-- SA (36) -->
    <g transform="translate(361.8625 124.345312)scale(0.1 -0.1)">
     <use xlink:href="#DejaVuSans-83"/>
     <use x="63.492188" xlink:href="#DejaVuSans-65"/>
     <use x="131.900391" xlink:href="#DejaVuSans-32"/>
     <use x="163.6875" xlink:href="#DejaVuSans-40"/>
     <use x="202.701172" xlink:href="#DejaVuSans-51"/>
     <use x="266.324219" xlink:href="#DejaVuSans-54"/>
     <use x="329.947266" xlink:href="#DejaVuSans-41"/>
    </g>
   </g>
   <g id="line2d_66">
    <path d="M 333.8625 135.523438 
L 353.8625 135.523438 
" style="fill:none;stroke:#666666;stroke-linecap:square;stroke-width:1.5;"/>
   </g>
   <g id="line2d_67"/>
   <g id="text_29">
    <!-- FIT (29) -->
    <defs>
     <path d="M 9.8125 72.90625 
L 51.703125 72.90625 
L 51.703125 64.59375 
L 19.671875 64.59375 
L 19.671875 43.109375 
L 48.578125 43.109375 
L 48.578125 34.8125 
L 19.671875 34.8125 
L 19.671875 0 
L 9.8125 0 
z
" id="DejaVuSans-70"/>
     <path d="M -0.296875 72.90625 
L 61.375 72.90625 
L 61.375 64.59375 
L 35.5 64.59375 
L 35.5 0 
L 25.59375 0 
L 25.59375 64.59375 
L -0.296875 64.59375 
z
" id="DejaVuSans-84"/>
    </defs>
    <g transform="translate(361.8625 139.023438)scale(0.1 -0.1)">
     <use xlink:href="#DejaVuSans-70"/>
     <use x="57.519531" xlink:href="#DejaVuSans-73"/>
     <use x="87.011719" xlink:href="#DejaVuSans-84"/>
     <use x="148.095703" xlink:href="#DejaVuSans-32"/>
     <use x="179.882812" xlink:href="#DejaVuSans-40"/>
     <use x="218.896484" xlink:href="#DejaVuSans-50"/>
     <use x="282.519531" xlink:href="#DejaVuSans-57"/>
     <use x="346.142578" xlink:href="#DejaVuSans-41"/>
    </g>
   </g>
   <g id="line2d_68">
    <path d="M 333.8625 150.201562 
L 353.8625 150.201562 
" style="fill:none;stroke:#1b9e77;stroke-dasharray:4.5,1.5;stroke-dashoffset:0;stroke-width:1.5;"/>
   </g>
   <g id="line2d_69"/>
   <g id="text_30">
    <!-- TBI (27) -->
    <defs>
     <path d="M 19.671875 34.8125 
L 19.671875 8.109375 
L 35.5 8.109375 
Q 43.453125 8.109375 47.28125 11.40625 
Q 51.125 14.703125 51.125 21.484375 
Q 51.125 28.328125 47.28125 31.5625 
Q 43.453125 34.8125 35.5 34.8125 
z
M 19.671875 64.796875 
L 19.671875 42.828125 
L 34.28125 42.828125 
Q 41.5 42.828125 45.03125 45.53125 
Q 48.578125 48.25 48.578125 53.8125 
Q 48.578125 59.328125 45.03125 62.0625 
Q 41.5 64.796875 34.28125 64.796875 
z
M 9.8125 72.90625 
L 35.015625 72.90625 
Q 46.296875 72.90625 52.390625 68.21875 
Q 58.5 63.53125 58.5 54.890625 
Q 58.5 48.1875 55.375 44.234375 
Q 52.25 40.28125 46.1875 39.3125 
Q 53.46875 37.75 57.5 32.78125 
Q 61.53125 27.828125 61.53125 20.40625 
Q 61.53125 10.640625 54.890625 5.3125 
Q 48.25 0 35.984375 0 
L 9.8125 0 
z
" id="DejaVuSans-66"/>
    </defs>
    <g transform="translate(361.8625 153.701562)scale(0.1 -0.1)">
     <use xlink:href="#DejaVuSans-84"/>
     <use x="61.083984" xlink:href="#DejaVuSans-66"/>
     <use x="129.6875" xlink:href="#DejaVuSans-73"/>
     <use x="159.179688" xlink:href="#DejaVuSans-32"/>
     <use x="190.966797" xlink:href="#DejaVuSans-40"/>
     <use x="229.980469" xlink:href="#DejaVuSans-50"/>
     <use x="293.603516" xlink:href="#DejaVuSans-55"/>
     <use x="357.226562" xlink:href="#DejaVuSans-41"/>
    </g>
   </g>
   <g id="line2d_70">
    <path d="M 333.8625 164.879687 
L 353.8625 164.879687 
" style="fill:none;stroke:#d95f02;stroke-dasharray:4.5,1.5;stroke-dashoffset:0;stroke-width:1.5;"/>
   </g>
   <g id="line2d_71"/>
   <g id="text_31">
    <!-- BP (26) -->
    <g transform="translate(361.8625 168.379687)scale(0.1 -0.1)">
     <use xlink:href="#DejaVuSans-66"/>
     <use x="68.603516" xlink:href="#DejaVuSans-80"/>
     <use x="128.90625" xlink:href="#DejaVuSans-32"/>
     <use x="160.693359" xlink:href="#DejaVuSans-40"/>
     <use x="199.707031" xlink:href="#DejaVuSans-50"/>
     <use x="263.330078" xlink:href="#DejaVuSans-54"/>
     <use x="326.953125" xlink:href="#DejaVuSans-41"/>
    </g>
   </g>
   <g id="line2d_72">
    <path d="M 333.8625 179.557812 
L 353.8625 179.557812 
" style="fill:none;stroke:#7570b3;stroke-dasharray:4.5,1.5;stroke-dashoffset:0;stroke-width:1.5;"/>
   </g>
   <g id="line2d_73"/>
   <g id="text_32">
    <!-- SPD (25) -->
    <g transform="translate(361.8625 183.057812)scale(0.1 -0.1)">
     <use xlink:href="#DejaVuSans-83"/>
     <use x="63.476562" xlink:href="#DejaVuSans-80"/>
     <use x="123.779297" xlink:href="#DejaVuSans-68"/>
     <use x="200.78125" xlink:href="#DejaVuSans-32"/>
     <use x="232.568359" xlink:href="#DejaVuSans-40"/>
     <use x="271.582031" xlink:href="#DejaVuSans-50"/>
     <use x="335.205078" xlink:href="#DejaVuSans-53"/>
     <use x="398.828125" xlink:href="#DejaVuSans-41"/>
    </g>
   </g>
   <g id="line2d_74">
    <path d="M 333.8625 194.235937 
L 353.8625 194.235937 
" style="fill:none;stroke:#e7298a;stroke-dasharray:4.5,1.5;stroke-dashoffset:0;stroke-width:1.5;"/>
   </g>
   <g id="line2d_75"/>
   <g id="text_33">
    <!-- CC (25) -->
    <g transform="translate(361.8625 197.735937)scale(0.1 -0.1)">
     <use xlink:href="#DejaVuSans-67"/>
     <use x="69.824219" xlink:href="#DejaVuSans-67"/>
     <use x="139.648438" xlink:href="#DejaVuSans-32"/>
     <use x="171.435547" xlink:href="#DejaVuSans-40"/>
     <use x="210.449219" xlink:href="#DejaVuSans-50"/>
     <use x="274.072266" xlink:href="#DejaVuSans-53"/>
     <use x="337.695312" xlink:href="#DejaVuSans-41"/>
    </g>
   </g>
   <g id="line2d_76">
    <path d="M 333.8625 208.914062 
L 353.8625 208.914062 
" style="fill:none;stroke:#66a61e;stroke-dasharray:4.5,1.5;stroke-dashoffset:0;stroke-width:1.5;"/>
   </g>
   <g id="line2d_77"/>
   <g id="text_34">
    <!-- RJPH (20) -->
    <defs>
     <path d="M 9.8125 72.90625 
L 19.671875 72.90625 
L 19.671875 5.078125 
Q 19.671875 -8.109375 14.671875 -14.0625 
Q 9.671875 -20.015625 -1.421875 -20.015625 
L -5.171875 -20.015625 
L -5.171875 -11.71875 
L -2.09375 -11.71875 
Q 4.4375 -11.71875 7.125 -8.046875 
Q 9.8125 -4.390625 9.8125 5.078125 
z
" id="DejaVuSans-74"/>
    </defs>
    <g transform="translate(361.8625 212.414062)scale(0.1 -0.1)">
     <use xlink:href="#DejaVuSans-82"/>
     <use x="69.482422" xlink:href="#DejaVuSans-74"/>
     <use x="98.974609" xlink:href="#DejaVuSans-80"/>
     <use x="159.277344" xlink:href="#DejaVuSans-72"/>
     <use x="234.472656" xlink:href="#DejaVuSans-32"/>
     <use x="266.259766" xlink:href="#DejaVuSans-40"/>
     <use x="305.273438" xlink:href="#DejaVuSans-50"/>
     <use x="368.896484" xlink:href="#DejaVuSans-48"/>
     <use x="432.519531" xlink:href="#DejaVuSans-41"/>
    </g>
   </g>
   <g id="line2d_78">
    <path d="M 333.8625 223.592187 
L 353.8625 223.592187 
" style="fill:none;stroke:#e6ab02;stroke-dasharray:4.5,1.5;stroke-dashoffset:0;stroke-width:1.5;"/>
   </g>
   <g id="line2d_79"/>
   <g id="text_35">
    <!-- AHR-H (20) -->
    <g transform="translate(361.8625 227.092187)scale(0.1 -0.1)">
     <use xlink:href="#DejaVuSans-65"/>
     <use x="68.408203" xlink:href="#DejaVuSans-72"/>
     <use x="143.603516" xlink:href="#DejaVuSans-82"/>
     <use x="213.023438" xlink:href="#DejaVuSans-45"/>
     <use x="249.107422" xlink:href="#DejaVuSans-72"/>
     <use x="324.302734" xlink:href="#DejaVuSans-32"/>
     <use x="356.089844" xlink:href="#DejaVuSans-40"/>
     <use x="395.103516" xlink:href="#DejaVuSans-50"/>
     <use x="458.726562" xlink:href="#DejaVuSans-48"/>
     <use x="522.349609" xlink:href="#DejaVuSans-41"/>
    </g>
   </g>
   <g id="line2d_80">
    <path d="M 333.8625 238.270312 
L 353.8625 238.270312 
" style="fill:none;stroke:#a6761d;stroke-dasharray:4.5,1.5;stroke-dashoffset:0;stroke-width:1.5;"/>
   </g>
   <g id="line2d_81"/>
   <g id="text_36">
    <!-- CB (20) -->
    <g transform="translate(361.8625 241.770312)scale(0.1 -0.1)">
     <use xlink:href="#DejaVuSans-67"/>
     <use x="69.824219" xlink:href="#DejaVuSans-66"/>
     <use x="138.427734" xlink:href="#DejaVuSans-32"/>
     <use x="170.214844" xlink:href="#DejaVuSans-40"/>
     <use x="209.228516" xlink:href="#DejaVuSans-50"/>
     <use x="272.851562" xlink:href="#DejaVuSans-48"/>
     <use x="336.474609" xlink:href="#DejaVuSans-41"/>
    </g>
   </g>
   <g id="line2d_82">
    <path d="M 333.8625 252.948437 
L 353.8625 252.948437 
" style="fill:none;stroke:#666666;stroke-dasharray:4.5,1.5;stroke-dashoffset:0;stroke-width:1.5;"/>
   </g>
   <g id="line2d_83"/>
   <g id="text_37">
    <!-- AHR-A (15) -->
    <g transform="translate(361.8625 256.448437)scale(0.1 -0.1)">
     <use xlink:href="#DejaVuSans-65"/>
     <use x="68.408203" xlink:href="#DejaVuSans-72"/>
     <use x="143.603516" xlink:href="#DejaVuSans-82"/>
     <use x="213.023438" xlink:href="#DejaVuSans-45"/>
     <use x="249.076172" xlink:href="#DejaVuSans-65"/>
     <use x="317.484375" xlink:href="#DejaVuSans-32"/>
     <use x="349.271484" xlink:href="#DejaVuSans-40"/>
     <use x="388.285156" xlink:href="#DejaVuSans-49"/>
     <use x="451.908203" xlink:href="#DejaVuSans-53"/>
     <use x="515.53125" xlink:href="#DejaVuSans-41"/>
    </g>
   </g>
  </g>
 </g>
 <defs>
  <clipPath id="p54688ee5c0">
   <rect height="207.330771" width="271.81" x="43.55" y="12.9"/>
  </clipPath>
 </defs>
</svg>
