<?xml version="1.0" encoding="utf-8" standalone="no"?>
<!DOCTYPE svg PUBLIC "-//W3C//DTD SVG 1.1//EN"
  "http://www.w3.org/Graphics/SVG/1.1/DTD/svg11.dtd">
<!-- Created with matplotlib (https://matplotlib.org/) -->
<svg height="288pt" version="1.1" viewBox="0 0 432 288" width="432pt" xmlns="http://www.w3.org/2000/svg" xmlns:xlink="http://www.w3.org/1999/xlink">
 <defs>
  <style type="text/css">
*{stroke-linecap:butt;stroke-linejoin:round;}
  </style>
 </defs>
 <g id="figure_1">
  <g id="patch_1">
   <path d="M 0 288 
L 432 288 
L 432 0 
L 0 0 
z
" style="fill:#ffffff;"/>
  </g>
  <g id="axes_1">
   <g id="patch_2">
    <path d="M 43.55 220.230771 
L 315.36 220.230771 
L 315.36 12.9 
L 43.55 12.9 
z
" style="fill:#ffffff;"/>
   </g>
   <g id="matplotlib.axis_1">
    <g id="xtick_1">
     <g id="line2d_1">
      <defs>
       <path d="M 0 0 
L 0 3.5 
" id="mb2c2816f16" style="stroke:#000000;stroke-width:0.8;"/>
      </defs>
      <g>
       <use style="stroke:#000000;stroke-width:0.8;" x="61.02005" xlink:href="#mb2c2816f16" y="220.230771"/>
      </g>
     </g>
     <g id="text_1">
      <!-- 2020-12-01 -->
      <defs>
       <path d="M 19.1875 8.296875 
L 53.609375 8.296875 
L 53.609375 0 
L 7.328125 0 
L 7.328125 8.296875 
Q 12.9375 14.109375 22.625 23.890625 
Q 32.328125 33.6875 34.8125 36.53125 
Q 39.546875 41.84375 41.421875 45.53125 
Q 43.3125 49.21875 43.3125 52.78125 
Q 43.3125 58.59375 39.234375 62.25 
Q 35.15625 65.921875 28.609375 65.921875 
Q 23.96875 65.921875 18.8125 64.3125 
Q 13.671875 62.703125 7.8125 59.421875 
L 7.8125 69.390625 
Q 13.765625 71.78125 18.9375 73 
Q 24.125 74.21875 28.421875 74.21875 
Q 39.75 74.21875 46.484375 68.546875 
Q 53.21875 62.890625 53.21875 53.421875 
Q 53.21875 48.921875 51.53125 44.890625 
Q 49.859375 40.875 45.40625 35.40625 
Q 44.1875 33.984375 37.640625 27.21875 
Q 31.109375 20.453125 19.1875 8.296875 
z
" id="DejaVuSans-50"/>
       <path d="M 31.78125 66.40625 
Q 24.171875 66.40625 20.328125 58.90625 
Q 16.5 51.421875 16.5 36.375 
Q 16.5 21.390625 20.328125 13.890625 
Q 24.171875 6.390625 31.78125 6.390625 
Q 39.453125 6.390625 43.28125 13.890625 
Q 47.125 21.390625 47.125 36.375 
Q 47.125 51.421875 43.28125 58.90625 
Q 39.453125 66.40625 31.78125 66.40625 
z
M 31.78125 74.21875 
Q 44.046875 74.21875 50.515625 64.515625 
Q 56.984375 54.828125 56.984375 36.375 
Q 56.984375 17.96875 50.515625 8.265625 
Q 44.046875 -1.421875 31.78125 -1.421875 
Q 19.53125 -1.421875 13.0625 8.265625 
Q 6.59375 17.96875 6.59375 36.375 
Q 6.59375 54.828125 13.0625 64.515625 
Q 19.53125 74.21875 31.78125 74.21875 
z
" id="DejaVuSans-48"/>
       <path d="M 4.890625 31.390625 
L 31.203125 31.390625 
L 31.203125 23.390625 
L 4.890625 23.390625 
z
" id="DejaVuSans-45"/>
       <path d="M 12.40625 8.296875 
L 28.515625 8.296875 
L 28.515625 63.921875 
L 10.984375 60.40625 
L 10.984375 69.390625 
L 28.421875 72.90625 
L 38.28125 72.90625 
L 38.28125 8.296875 
L 54.390625 8.296875 
L 54.390625 0 
L 12.40625 0 
z
" id="DejaVuSans-49"/>
      </defs>
      <g transform="translate(37.234934 262.869024)rotate(-30)scale(0.1 -0.1)">
       <use xlink:href="#DejaVuSans-50"/>
       <use x="63.623047" xlink:href="#DejaVuSans-48"/>
       <use x="127.246094" xlink:href="#DejaVuSans-50"/>
       <use x="190.869141" xlink:href="#DejaVuSans-48"/>
       <use x="254.492188" xlink:href="#DejaVuSans-45"/>
       <use x="290.576172" xlink:href="#DejaVuSans-49"/>
       <use x="354.199219" xlink:href="#DejaVuSans-50"/>
       <use x="417.822266" xlink:href="#DejaVuSans-45"/>
       <use x="453.90625" xlink:href="#DejaVuSans-48"/>
       <use x="517.529297" xlink:href="#DejaVuSans-49"/>
      </g>
     </g>
    </g>
    <g id="xtick_2">
     <g id="line2d_2">
      <g>
       <use style="stroke:#000000;stroke-width:0.8;" x="98.099836" xlink:href="#mb2c2816f16" y="220.230771"/>
      </g>
     </g>
     <g id="text_2">
      <!-- 2020-12-05 -->
      <defs>
       <path d="M 10.796875 72.90625 
L 49.515625 72.90625 
L 49.515625 64.59375 
L 19.828125 64.59375 
L 19.828125 46.734375 
Q 21.96875 47.46875 24.109375 47.828125 
Q 26.265625 48.1875 28.421875 48.1875 
Q 40.625 48.1875 47.75 41.5 
Q 54.890625 34.8125 54.890625 23.390625 
Q 54.890625 11.625 47.5625 5.09375 
Q 40.234375 -1.421875 26.90625 -1.421875 
Q 22.3125 -1.421875 17.546875 -0.640625 
Q 12.796875 0.140625 7.71875 1.703125 
L 7.71875 11.625 
Q 12.109375 9.234375 16.796875 8.0625 
Q 21.484375 6.890625 26.703125 6.890625 
Q 35.15625 6.890625 40.078125 11.328125 
Q 45.015625 15.765625 45.015625 23.390625 
Q 45.015625 31 40.078125 35.4375 
Q 35.15625 39.890625 26.703125 39.890625 
Q 22.75 39.890625 18.8125 39.015625 
Q 14.890625 38.140625 10.796875 36.28125 
z
" id="DejaVuSans-53"/>
      </defs>
      <g transform="translate(74.31472 262.869024)rotate(-30)scale(0.1 -0.1)">
       <use xlink:href="#DejaVuSans-50"/>
       <use x="63.623047" xlink:href="#DejaVuSans-48"/>
       <use x="127.246094" xlink:href="#DejaVuSans-50"/>
       <use x="190.869141" xlink:href="#DejaVuSans-48"/>
       <use x="254.492188" xlink:href="#DejaVuSans-45"/>
       <use x="290.576172" xlink:href="#DejaVuSans-49"/>
       <use x="354.199219" xlink:href="#DejaVuSans-50"/>
       <use x="417.822266" xlink:href="#DejaVuSans-45"/>
       <use x="453.90625" xlink:href="#DejaVuSans-48"/>
       <use x="517.529297" xlink:href="#DejaVuSans-53"/>
      </g>
     </g>
    </g>
    <g id="xtick_3">
     <g id="line2d_3">
      <g>
       <use style="stroke:#000000;stroke-width:0.8;" x="135.179622" xlink:href="#mb2c2816f16" y="220.230771"/>
      </g>
     </g>
     <g id="text_3">
      <!-- 2020-12-09 -->
      <defs>
       <path d="M 10.984375 1.515625 
L 10.984375 10.5 
Q 14.703125 8.734375 18.5 7.8125 
Q 22.3125 6.890625 25.984375 6.890625 
Q 35.75 6.890625 40.890625 13.453125 
Q 46.046875 20.015625 46.78125 33.40625 
Q 43.953125 29.203125 39.59375 26.953125 
Q 35.25 24.703125 29.984375 24.703125 
Q 19.046875 24.703125 12.671875 31.3125 
Q 6.296875 37.9375 6.296875 49.421875 
Q 6.296875 60.640625 12.9375 67.421875 
Q 19.578125 74.21875 30.609375 74.21875 
Q 43.265625 74.21875 49.921875 64.515625 
Q 56.59375 54.828125 56.59375 36.375 
Q 56.59375 19.140625 48.40625 8.859375 
Q 40.234375 -1.421875 26.421875 -1.421875 
Q 22.703125 -1.421875 18.890625 -0.6875 
Q 15.09375 0.046875 10.984375 1.515625 
z
M 30.609375 32.421875 
Q 37.25 32.421875 41.125 36.953125 
Q 45.015625 41.5 45.015625 49.421875 
Q 45.015625 57.28125 41.125 61.84375 
Q 37.25 66.40625 30.609375 66.40625 
Q 23.96875 66.40625 20.09375 61.84375 
Q 16.21875 57.28125 16.21875 49.421875 
Q 16.21875 41.5 20.09375 36.953125 
Q 23.96875 32.421875 30.609375 32.421875 
z
" id="DejaVuSans-57"/>
      </defs>
      <g transform="translate(111.394506 262.869024)rotate(-30)scale(0.1 -0.1)">
       <use xlink:href="#DejaVuSans-50"/>
       <use x="63.623047" xlink:href="#DejaVuSans-48"/>
       <use x="127.246094" xlink:href="#DejaVuSans-50"/>
       <use x="190.869141" xlink:href="#DejaVuSans-48"/>
       <use x="254.492188" xlink:href="#DejaVuSans-45"/>
       <use x="290.576172" xlink:href="#DejaVuSans-49"/>
       <use x="354.199219" xlink:href="#DejaVuSans-50"/>
       <use x="417.822266" xlink:href="#DejaVuSans-45"/>
       <use x="453.90625" xlink:href="#DejaVuSans-48"/>
       <use x="517.529297" xlink:href="#DejaVuSans-57"/>
      </g>
     </g>
    </g>
    <g id="xtick_4">
     <g id="line2d_4">
      <g>
       <use style="stroke:#000000;stroke-width:0.8;" x="172.259408" xlink:href="#mb2c2816f16" y="220.230771"/>
      </g>
     </g>
     <g id="text_4">
      <!-- 2020-12-13 -->
      <defs>
       <path d="M 40.578125 39.3125 
Q 47.65625 37.796875 51.625 33 
Q 55.609375 28.21875 55.609375 21.1875 
Q 55.609375 10.40625 48.1875 4.484375 
Q 40.765625 -1.421875 27.09375 -1.421875 
Q 22.515625 -1.421875 17.65625 -0.515625 
Q 12.796875 0.390625 7.625 2.203125 
L 7.625 11.71875 
Q 11.71875 9.328125 16.59375 8.109375 
Q 21.484375 6.890625 26.8125 6.890625 
Q 36.078125 6.890625 40.9375 10.546875 
Q 45.796875 14.203125 45.796875 21.1875 
Q 45.796875 27.640625 41.28125 31.265625 
Q 36.765625 34.90625 28.71875 34.90625 
L 20.21875 34.90625 
L 20.21875 43.015625 
L 29.109375 43.015625 
Q 36.375 43.015625 40.234375 45.921875 
Q 44.09375 48.828125 44.09375 54.296875 
Q 44.09375 59.90625 40.109375 62.90625 
Q 36.140625 65.921875 28.71875 65.921875 
Q 24.65625 65.921875 20.015625 65.03125 
Q 15.375 64.15625 9.8125 62.3125 
L 9.8125 71.09375 
Q 15.4375 72.65625 20.34375 73.4375 
Q 25.25 74.21875 29.59375 74.21875 
Q 40.828125 74.21875 47.359375 69.109375 
Q 53.90625 64.015625 53.90625 55.328125 
Q 53.90625 49.265625 50.4375 45.09375 
Q 46.96875 40.921875 40.578125 39.3125 
z
" id="DejaVuSans-51"/>
      </defs>
      <g transform="translate(148.474292 262.869024)rotate(-30)scale(0.1 -0.1)">
       <use xlink:href="#DejaVuSans-50"/>
       <use x="63.623047" xlink:href="#DejaVuSans-48"/>
       <use x="127.246094" xlink:href="#DejaVuSans-50"/>
       <use x="190.869141" xlink:href="#DejaVuSans-48"/>
       <use x="254.492188" xlink:href="#DejaVuSans-45"/>
       <use x="290.576172" xlink:href="#DejaVuSans-49"/>
       <use x="354.199219" xlink:href="#DejaVuSans-50"/>
       <use x="417.822266" xlink:href="#DejaVuSans-45"/>
       <use x="453.90625" xlink:href="#DejaVuSans-49"/>
       <use x="517.529297" xlink:href="#DejaVuSans-51"/>
      </g>
     </g>
    </g>
    <g id="xtick_5">
     <g id="line2d_5">
      <g>
       <use style="stroke:#000000;stroke-width:0.8;" x="209.339194" xlink:href="#mb2c2816f16" y="220.230771"/>
      </g>
     </g>
     <g id="text_5">
      <!-- 2020-12-17 -->
      <defs>
       <path d="M 8.203125 72.90625 
L 55.078125 72.90625 
L 55.078125 68.703125 
L 28.609375 0 
L 18.3125 0 
L 43.21875 64.59375 
L 8.203125 64.59375 
z
" id="DejaVuSans-55"/>
      </defs>
      <g transform="translate(185.554078 262.869024)rotate(-30)scale(0.1 -0.1)">
       <use xlink:href="#DejaVuSans-50"/>
       <use x="63.623047" xlink:href="#DejaVuSans-48"/>
       <use x="127.246094" xlink:href="#DejaVuSans-50"/>
       <use x="190.869141" xlink:href="#DejaVuSans-48"/>
       <use x="254.492188" xlink:href="#DejaVuSans-45"/>
       <use x="290.576172" xlink:href="#DejaVuSans-49"/>
       <use x="354.199219" xlink:href="#DejaVuSans-50"/>
       <use x="417.822266" xlink:href="#DejaVuSans-45"/>
       <use x="453.90625" xlink:href="#DejaVuSans-49"/>
       <use x="517.529297" xlink:href="#DejaVuSans-55"/>
      </g>
     </g>
    </g>
    <g id="xtick_6">
     <g id="line2d_6">
      <g>
       <use style="stroke:#000000;stroke-width:0.8;" x="246.418981" xlink:href="#mb2c2816f16" y="220.230771"/>
      </g>
     </g>
     <g id="text_6">
      <!-- 2020-12-21 -->
      <g transform="translate(222.633864 262.869024)rotate(-30)scale(0.1 -0.1)">
       <use xlink:href="#DejaVuSans-50"/>
       <use x="63.623047" xlink:href="#DejaVuSans-48"/>
       <use x="127.246094" xlink:href="#DejaVuSans-50"/>
       <use x="190.869141" xlink:href="#DejaVuSans-48"/>
       <use x="254.492188" xlink:href="#DejaVuSans-45"/>
       <use x="290.576172" xlink:href="#DejaVuSans-49"/>
       <use x="354.199219" xlink:href="#DejaVuSans-50"/>
       <use x="417.822266" xlink:href="#DejaVuSans-45"/>
       <use x="453.90625" xlink:href="#DejaVuSans-50"/>
       <use x="517.529297" xlink:href="#DejaVuSans-49"/>
      </g>
     </g>
    </g>
    <g id="xtick_7">
     <g id="line2d_7">
      <g>
       <use style="stroke:#000000;stroke-width:0.8;" x="283.498767" xlink:href="#mb2c2816f16" y="220.230771"/>
      </g>
     </g>
     <g id="text_7">
      <!-- 2020-12-25 -->
      <g transform="translate(259.71365 262.869024)rotate(-30)scale(0.1 -0.1)">
       <use xlink:href="#DejaVuSans-50"/>
       <use x="63.623047" xlink:href="#DejaVuSans-48"/>
       <use x="127.246094" xlink:href="#DejaVuSans-50"/>
       <use x="190.869141" xlink:href="#DejaVuSans-48"/>
       <use x="254.492188" xlink:href="#DejaVuSans-45"/>
       <use x="290.576172" xlink:href="#DejaVuSans-49"/>
       <use x="354.199219" xlink:href="#DejaVuSans-50"/>
       <use x="417.822266" xlink:href="#DejaVuSans-45"/>
       <use x="453.90625" xlink:href="#DejaVuSans-50"/>
       <use x="517.529297" xlink:href="#DejaVuSans-53"/>
      </g>
     </g>
    </g>
    <g id="text_8">
     <!-- Date -->
     <defs>
      <path d="M 19.671875 64.796875 
L 19.671875 8.109375 
L 31.59375 8.109375 
Q 46.6875 8.109375 53.6875 14.9375 
Q 60.6875 21.78125 60.6875 36.53125 
Q 60.6875 51.171875 53.6875 57.984375 
Q 46.6875 64.796875 31.59375 64.796875 
z
M 9.8125 72.90625 
L 30.078125 72.90625 
Q 51.265625 72.90625 61.171875 64.09375 
Q 71.09375 55.28125 71.09375 36.53125 
Q 71.09375 17.671875 61.125 8.828125 
Q 51.171875 0 30.078125 0 
L 9.8125 0 
z
" id="DejaVuSans-68"/>
      <path d="M 34.28125 27.484375 
Q 23.390625 27.484375 19.1875 25 
Q 14.984375 22.515625 14.984375 16.5 
Q 14.984375 11.71875 18.140625 8.90625 
Q 21.296875 6.109375 26.703125 6.109375 
Q 34.1875 6.109375 38.703125 11.40625 
Q 43.21875 16.703125 43.21875 25.484375 
L 43.21875 27.484375 
z
M 52.203125 31.203125 
L 52.203125 0 
L 43.21875 0 
L 43.21875 8.296875 
Q 40.140625 3.328125 35.546875 0.953125 
Q 30.953125 -1.421875 24.3125 -1.421875 
Q 15.921875 -1.421875 10.953125 3.296875 
Q 6 8.015625 6 15.921875 
Q 6 25.140625 12.171875 29.828125 
Q 18.359375 34.515625 30.609375 34.515625 
L 43.21875 34.515625 
L 43.21875 35.40625 
Q 43.21875 41.609375 39.140625 45 
Q 35.0625 48.390625 27.6875 48.390625 
Q 23 48.390625 18.546875 47.265625 
Q 14.109375 46.140625 10.015625 43.890625 
L 10.015625 52.203125 
Q 14.9375 54.109375 19.578125 55.046875 
Q 24.21875 56 28.609375 56 
Q 40.484375 56 46.34375 49.84375 
Q 52.203125 43.703125 52.203125 31.203125 
z
" id="DejaVuSans-97"/>
      <path d="M 18.3125 70.21875 
L 18.3125 54.6875 
L 36.8125 54.6875 
L 36.8125 47.703125 
L 18.3125 47.703125 
L 18.3125 18.015625 
Q 18.3125 11.328125 20.140625 9.421875 
Q 21.96875 7.515625 27.59375 7.515625 
L 36.8125 7.515625 
L 36.8125 0 
L 27.59375 0 
Q 17.1875 0 13.234375 3.875 
Q 9.28125 7.765625 9.28125 18.015625 
L 9.28125 47.703125 
L 2.6875 47.703125 
L 2.6875 54.6875 
L 9.28125 54.6875 
L 9.28125 70.21875 
z
" id="DejaVuSans-116"/>
      <path d="M 56.203125 29.59375 
L 56.203125 25.203125 
L 14.890625 25.203125 
Q 15.484375 15.921875 20.484375 11.0625 
Q 25.484375 6.203125 34.421875 6.203125 
Q 39.59375 6.203125 44.453125 7.46875 
Q 49.3125 8.734375 54.109375 11.28125 
L 54.109375 2.78125 
Q 49.265625 0.734375 44.1875 -0.34375 
Q 39.109375 -1.421875 33.890625 -1.421875 
Q 20.796875 -1.421875 13.15625 6.1875 
Q 5.515625 13.8125 5.515625 26.8125 
Q 5.515625 40.234375 12.765625 48.109375 
Q 20.015625 56 32.328125 56 
Q 43.359375 56 49.78125 48.890625 
Q 56.203125 41.796875 56.203125 29.59375 
z
M 47.21875 32.234375 
Q 47.125 39.59375 43.09375 43.984375 
Q 39.0625 48.390625 32.421875 48.390625 
Q 24.90625 48.390625 20.390625 44.140625 
Q 15.875 39.890625 15.1875 32.171875 
z
" id="DejaVuSans-101"/>
     </defs>
     <g transform="translate(167.504219 276.268523)scale(0.1 -0.1)">
      <use xlink:href="#DejaVuSans-68"/>
      <use x="77.001953" xlink:href="#DejaVuSans-97"/>
      <use x="138.28125" xlink:href="#DejaVuSans-116"/>
      <use x="177.490234" xlink:href="#DejaVuSans-101"/>
     </g>
    </g>
   </g>
   <g id="matplotlib.axis_2">
    <g id="ytick_1">
     <g id="line2d_8">
      <defs>
       <path d="M 0 0 
L -3.5 0 
" id="m0d0f296670" style="stroke:#000000;stroke-width:0.8;"/>
      </defs>
      <g>
       <use style="stroke:#000000;stroke-width:0.8;" x="43.55" xlink:href="#m0d0f296670" y="210.806645"/>
      </g>
     </g>
     <g id="text_9">
      <!-- 0 -->
      <g transform="translate(30.1875 214.605864)scale(0.1 -0.1)">
       <use xlink:href="#DejaVuSans-48"/>
      </g>
     </g>
    </g>
    <g id="ytick_2">
     <g id="line2d_9">
      <g>
       <use style="stroke:#000000;stroke-width:0.8;" x="43.55" xlink:href="#m0d0f296670" y="187.24633"/>
      </g>
     </g>
     <g id="text_10">
      <!-- 5 -->
      <g transform="translate(30.1875 191.045549)scale(0.1 -0.1)">
       <use xlink:href="#DejaVuSans-53"/>
      </g>
     </g>
    </g>
    <g id="ytick_3">
     <g id="line2d_10">
      <g>
       <use style="stroke:#000000;stroke-width:0.8;" x="43.55" xlink:href="#m0d0f296670" y="163.686016"/>
      </g>
     </g>
     <g id="text_11">
      <!-- 10 -->
      <g transform="translate(23.825 167.485234)scale(0.1 -0.1)">
       <use xlink:href="#DejaVuSans-49"/>
       <use x="63.623047" xlink:href="#DejaVuSans-48"/>
      </g>
     </g>
    </g>
    <g id="ytick_4">
     <g id="line2d_11">
      <g>
       <use style="stroke:#000000;stroke-width:0.8;" x="43.55" xlink:href="#m0d0f296670" y="140.125701"/>
      </g>
     </g>
     <g id="text_12">
      <!-- 15 -->
      <g transform="translate(23.825 143.924919)scale(0.1 -0.1)">
       <use xlink:href="#DejaVuSans-49"/>
       <use x="63.623047" xlink:href="#DejaVuSans-53"/>
      </g>
     </g>
    </g>
    <g id="ytick_5">
     <g id="line2d_12">
      <g>
       <use style="stroke:#000000;stroke-width:0.8;" x="43.55" xlink:href="#m0d0f296670" y="116.565386"/>
      </g>
     </g>
     <g id="text_13">
      <!-- 20 -->
      <g transform="translate(23.825 120.364604)scale(0.1 -0.1)">
       <use xlink:href="#DejaVuSans-50"/>
       <use x="63.623047" xlink:href="#DejaVuSans-48"/>
      </g>
     </g>
    </g>
    <g id="ytick_6">
     <g id="line2d_13">
      <g>
       <use style="stroke:#000000;stroke-width:0.8;" x="43.55" xlink:href="#m0d0f296670" y="93.005071"/>
      </g>
     </g>
     <g id="text_14">
      <!-- 25 -->
      <g transform="translate(23.825 96.80429)scale(0.1 -0.1)">
       <use xlink:href="#DejaVuSans-50"/>
       <use x="63.623047" xlink:href="#DejaVuSans-53"/>
      </g>
     </g>
    </g>
    <g id="ytick_7">
     <g id="line2d_14">
      <g>
       <use style="stroke:#000000;stroke-width:0.8;" x="43.55" xlink:href="#m0d0f296670" y="69.444756"/>
      </g>
     </g>
     <g id="text_15">
      <!-- 30 -->
      <g transform="translate(23.825 73.243975)scale(0.1 -0.1)">
       <use xlink:href="#DejaVuSans-51"/>
       <use x="63.623047" xlink:href="#DejaVuSans-48"/>
      </g>
     </g>
    </g>
    <g id="ytick_8">
     <g id="line2d_15">
      <g>
       <use style="stroke:#000000;stroke-width:0.8;" x="43.55" xlink:href="#m0d0f296670" y="45.884441"/>
      </g>
     </g>
     <g id="text_16">
      <!-- 35 -->
      <g transform="translate(23.825 49.68366)scale(0.1 -0.1)">
       <use xlink:href="#DejaVuSans-51"/>
       <use x="63.623047" xlink:href="#DejaVuSans-53"/>
      </g>
     </g>
    </g>
    <g id="ytick_9">
     <g id="line2d_16">
      <g>
       <use style="stroke:#000000;stroke-width:0.8;" x="43.55" xlink:href="#m0d0f296670" y="22.324126"/>
      </g>
     </g>
     <g id="text_17">
      <!-- 40 -->
      <defs>
       <path d="M 37.796875 64.3125 
L 12.890625 25.390625 
L 37.796875 25.390625 
z
M 35.203125 72.90625 
L 47.609375 72.90625 
L 47.609375 25.390625 
L 58.015625 25.390625 
L 58.015625 17.1875 
L 47.609375 17.1875 
L 47.609375 0 
L 37.796875 0 
L 37.796875 17.1875 
L 4.890625 17.1875 
L 4.890625 26.703125 
z
" id="DejaVuSans-52"/>
      </defs>
      <g transform="translate(23.825 26.123345)scale(0.1 -0.1)">
       <use xlink:href="#DejaVuSans-52"/>
       <use x="63.623047" xlink:href="#DejaVuSans-48"/>
      </g>
     </g>
    </g>
    <g id="text_18">
     <!-- Students Registered -->
     <defs>
      <path d="M 53.515625 70.515625 
L 53.515625 60.890625 
Q 47.90625 63.578125 42.921875 64.890625 
Q 37.9375 66.21875 33.296875 66.21875 
Q 25.25 66.21875 20.875 63.09375 
Q 16.5 59.96875 16.5 54.203125 
Q 16.5 49.359375 19.40625 46.890625 
Q 22.3125 44.4375 30.421875 42.921875 
L 36.375 41.703125 
Q 47.40625 39.59375 52.65625 34.296875 
Q 57.90625 29 57.90625 20.125 
Q 57.90625 9.515625 50.796875 4.046875 
Q 43.703125 -1.421875 29.984375 -1.421875 
Q 24.8125 -1.421875 18.96875 -0.25 
Q 13.140625 0.921875 6.890625 3.21875 
L 6.890625 13.375 
Q 12.890625 10.015625 18.65625 8.296875 
Q 24.421875 6.59375 29.984375 6.59375 
Q 38.421875 6.59375 43.015625 9.90625 
Q 47.609375 13.234375 47.609375 19.390625 
Q 47.609375 24.75 44.3125 27.78125 
Q 41.015625 30.8125 33.5 32.328125 
L 27.484375 33.5 
Q 16.453125 35.6875 11.515625 40.375 
Q 6.59375 45.0625 6.59375 53.421875 
Q 6.59375 63.09375 13.40625 68.65625 
Q 20.21875 74.21875 32.171875 74.21875 
Q 37.3125 74.21875 42.625 73.28125 
Q 47.953125 72.359375 53.515625 70.515625 
z
" id="DejaVuSans-83"/>
      <path d="M 8.5 21.578125 
L 8.5 54.6875 
L 17.484375 54.6875 
L 17.484375 21.921875 
Q 17.484375 14.15625 20.5 10.265625 
Q 23.53125 6.390625 29.59375 6.390625 
Q 36.859375 6.390625 41.078125 11.03125 
Q 45.3125 15.671875 45.3125 23.6875 
L 45.3125 54.6875 
L 54.296875 54.6875 
L 54.296875 0 
L 45.3125 0 
L 45.3125 8.40625 
Q 42.046875 3.421875 37.71875 1 
Q 33.40625 -1.421875 27.6875 -1.421875 
Q 18.265625 -1.421875 13.375 4.4375 
Q 8.5 10.296875 8.5 21.578125 
z
M 31.109375 56 
z
" id="DejaVuSans-117"/>
      <path d="M 45.40625 46.390625 
L 45.40625 75.984375 
L 54.390625 75.984375 
L 54.390625 0 
L 45.40625 0 
L 45.40625 8.203125 
Q 42.578125 3.328125 38.25 0.953125 
Q 33.9375 -1.421875 27.875 -1.421875 
Q 17.96875 -1.421875 11.734375 6.484375 
Q 5.515625 14.40625 5.515625 27.296875 
Q 5.515625 40.1875 11.734375 48.09375 
Q 17.96875 56 27.875 56 
Q 33.9375 56 38.25 53.625 
Q 42.578125 51.265625 45.40625 46.390625 
z
M 14.796875 27.296875 
Q 14.796875 17.390625 18.875 11.75 
Q 22.953125 6.109375 30.078125 6.109375 
Q 37.203125 6.109375 41.296875 11.75 
Q 45.40625 17.390625 45.40625 27.296875 
Q 45.40625 37.203125 41.296875 42.84375 
Q 37.203125 48.484375 30.078125 48.484375 
Q 22.953125 48.484375 18.875 42.84375 
Q 14.796875 37.203125 14.796875 27.296875 
z
" id="DejaVuSans-100"/>
      <path d="M 54.890625 33.015625 
L 54.890625 0 
L 45.90625 0 
L 45.90625 32.71875 
Q 45.90625 40.484375 42.875 44.328125 
Q 39.84375 48.1875 33.796875 48.1875 
Q 26.515625 48.1875 22.3125 43.546875 
Q 18.109375 38.921875 18.109375 30.90625 
L 18.109375 0 
L 9.078125 0 
L 9.078125 54.6875 
L 18.109375 54.6875 
L 18.109375 46.1875 
Q 21.34375 51.125 25.703125 53.5625 
Q 30.078125 56 35.796875 56 
Q 45.21875 56 50.046875 50.171875 
Q 54.890625 44.34375 54.890625 33.015625 
z
" id="DejaVuSans-110"/>
      <path d="M 44.28125 53.078125 
L 44.28125 44.578125 
Q 40.484375 46.53125 36.375 47.5 
Q 32.28125 48.484375 27.875 48.484375 
Q 21.1875 48.484375 17.84375 46.4375 
Q 14.5 44.390625 14.5 40.28125 
Q 14.5 37.15625 16.890625 35.375 
Q 19.28125 33.59375 26.515625 31.984375 
L 29.59375 31.296875 
Q 39.15625 29.25 43.1875 25.515625 
Q 47.21875 21.78125 47.21875 15.09375 
Q 47.21875 7.46875 41.1875 3.015625 
Q 35.15625 -1.421875 24.609375 -1.421875 
Q 20.21875 -1.421875 15.453125 -0.5625 
Q 10.6875 0.296875 5.421875 2 
L 5.421875 11.28125 
Q 10.40625 8.6875 15.234375 7.390625 
Q 20.0625 6.109375 24.8125 6.109375 
Q 31.15625 6.109375 34.5625 8.28125 
Q 37.984375 10.453125 37.984375 14.40625 
Q 37.984375 18.0625 35.515625 20.015625 
Q 33.0625 21.96875 24.703125 23.78125 
L 21.578125 24.515625 
Q 13.234375 26.265625 9.515625 29.90625 
Q 5.8125 33.546875 5.8125 39.890625 
Q 5.8125 47.609375 11.28125 51.796875 
Q 16.75 56 26.8125 56 
Q 31.78125 56 36.171875 55.265625 
Q 40.578125 54.546875 44.28125 53.078125 
z
" id="DejaVuSans-115"/>
      <path id="DejaVuSans-32"/>
      <path d="M 44.390625 34.1875 
Q 47.5625 33.109375 50.5625 29.59375 
Q 53.5625 26.078125 56.59375 19.921875 
L 66.609375 0 
L 56 0 
L 46.6875 18.703125 
Q 43.0625 26.03125 39.671875 28.421875 
Q 36.28125 30.8125 30.421875 30.8125 
L 19.671875 30.8125 
L 19.671875 0 
L 9.8125 0 
L 9.8125 72.90625 
L 32.078125 72.90625 
Q 44.578125 72.90625 50.734375 67.671875 
Q 56.890625 62.453125 56.890625 51.90625 
Q 56.890625 45.015625 53.6875 40.46875 
Q 50.484375 35.9375 44.390625 34.1875 
z
M 19.671875 64.796875 
L 19.671875 38.921875 
L 32.078125 38.921875 
Q 39.203125 38.921875 42.84375 42.21875 
Q 46.484375 45.515625 46.484375 51.90625 
Q 46.484375 58.296875 42.84375 61.546875 
Q 39.203125 64.796875 32.078125 64.796875 
z
" id="DejaVuSans-82"/>
      <path d="M 45.40625 27.984375 
Q 45.40625 37.75 41.375 43.109375 
Q 37.359375 48.484375 30.078125 48.484375 
Q 22.859375 48.484375 18.828125 43.109375 
Q 14.796875 37.75 14.796875 27.984375 
Q 14.796875 18.265625 18.828125 12.890625 
Q 22.859375 7.515625 30.078125 7.515625 
Q 37.359375 7.515625 41.375 12.890625 
Q 45.40625 18.265625 45.40625 27.984375 
z
M 54.390625 6.78125 
Q 54.390625 -7.171875 48.1875 -13.984375 
Q 42 -20.796875 29.203125 -20.796875 
Q 24.46875 -20.796875 20.265625 -20.09375 
Q 16.0625 -19.390625 12.109375 -17.921875 
L 12.109375 -9.1875 
Q 16.0625 -11.328125 19.921875 -12.34375 
Q 23.78125 -13.375 27.78125 -13.375 
Q 36.625 -13.375 41.015625 -8.765625 
Q 45.40625 -4.15625 45.40625 5.171875 
L 45.40625 9.625 
Q 42.625 4.78125 38.28125 2.390625 
Q 33.9375 0 27.875 0 
Q 17.828125 0 11.671875 7.65625 
Q 5.515625 15.328125 5.515625 27.984375 
Q 5.515625 40.671875 11.671875 48.328125 
Q 17.828125 56 27.875 56 
Q 33.9375 56 38.28125 53.609375 
Q 42.625 51.21875 45.40625 46.390625 
L 45.40625 54.6875 
L 54.390625 54.6875 
z
" id="DejaVuSans-103"/>
      <path d="M 9.421875 54.6875 
L 18.40625 54.6875 
L 18.40625 0 
L 9.421875 0 
z
M 9.421875 75.984375 
L 18.40625 75.984375 
L 18.40625 64.59375 
L 9.421875 64.59375 
z
" id="DejaVuSans-105"/>
      <path d="M 41.109375 46.296875 
Q 39.59375 47.171875 37.8125 47.578125 
Q 36.03125 48 33.890625 48 
Q 26.265625 48 22.1875 43.046875 
Q 18.109375 38.09375 18.109375 28.8125 
L 18.109375 0 
L 9.078125 0 
L 9.078125 54.6875 
L 18.109375 54.6875 
L 18.109375 46.1875 
Q 20.953125 51.171875 25.484375 53.578125 
Q 30.03125 56 36.53125 56 
Q 37.453125 56 38.578125 55.875 
Q 39.703125 55.765625 41.0625 55.515625 
z
" id="DejaVuSans-114"/>
     </defs>
     <g transform="translate(17.745313 167.498979)rotate(-90)scale(0.1 -0.1)">
      <use xlink:href="#DejaVuSans-83"/>
      <use x="63.476562" xlink:href="#DejaVuSans-116"/>
      <use x="102.685547" xlink:href="#DejaVuSans-117"/>
      <use x="166.064453" xlink:href="#DejaVuSans-100"/>
      <use x="229.541016" xlink:href="#DejaVuSans-101"/>
      <use x="291.064453" xlink:href="#DejaVuSans-110"/>
      <use x="354.443359" xlink:href="#DejaVuSans-116"/>
      <use x="393.652344" xlink:href="#DejaVuSans-115"/>
      <use x="445.751953" xlink:href="#DejaVuSans-32"/>
      <use x="477.539062" xlink:href="#DejaVuSans-82"/>
      <use x="546.958984" xlink:href="#DejaVuSans-101"/>
      <use x="608.482422" xlink:href="#DejaVuSans-103"/>
      <use x="671.958984" xlink:href="#DejaVuSans-105"/>
      <use x="699.742188" xlink:href="#DejaVuSans-115"/>
      <use x="751.841797" xlink:href="#DejaVuSans-116"/>
      <use x="791.050781" xlink:href="#DejaVuSans-101"/>
      <use x="852.574219" xlink:href="#DejaVuSans-114"/>
      <use x="893.65625" xlink:href="#DejaVuSans-101"/>
      <use x="955.179688" xlink:href="#DejaVuSans-100"/>
     </g>
    </g>
   </g>
   <g id="line2d_17">
    <path clip-path="url(#p8b23e9d9f7)" d="M 136.53229 196.670456 
L 138.463443 196.670456 
L 138.463443 182.534267 
L 138.56002 182.534267 
L 138.849701 182.534267 
L 138.849701 177.822204 
L 138.946291 177.822204 
L 139.235939 177.822204 
L 139.235939 158.973953 
L 139.332503 158.973953 
L 140.008471 158.973953 
L 140.008471 144.837764 
L 140.105027 144.837764 
L 140.780951 144.837764 
L 140.780951 116.565386 
L 140.87755 116.565386 
L 141.553441 116.565386 
L 141.553441 107.14126 
L 141.650003 107.14126 
L 141.93974 107.14126 
L 141.93974 102.429197 
L 142.036298 102.429197 
L 142.325954 102.429197 
L 142.325954 97.717134 
L 142.422538 97.717134 
L 143.098513 97.717134 
L 143.098513 93.005071 
L 143.195076 93.005071 
L 148.505896 93.005071 
L 148.505896 74.156819 
L 148.602486 74.156819 
L 149.278419 74.156819 
L 149.278419 69.444756 
L 149.375028 69.444756 
L 150.050973 69.444756 
L 150.050973 60.02063 
L 150.147452 60.02063 
L 150.437221 60.02063 
L 150.437221 55.308567 
L 150.533699 55.308567 
L 151.209728 55.308567 
L 151.209728 50.596504 
L 151.306201 50.596504 
L 159.320898 50.596504 
L 159.320898 45.884441 
L 159.417393 45.884441 
L 159.70708 45.884441 
L 159.70708 41.172378 
L 159.803691 41.172378 
L 160.093348 41.172378 
L 160.093348 36.460315 
L 160.189941 36.460315 
L 161.252144 36.460315 
L 161.252144 31.748252 
L 161.348615 31.748252 
L 185.971942 31.748252 
L 185.971942 22.324126 
L 186.068571 22.324126 
L 233.480426 22.324126 
L 233.480426 27.036189 
L 233.576993 27.036189 
L 235.797911 27.036189 
L 235.797911 22.324126 
L 235.894534 22.324126 
L 269.401512 22.324126 
L 269.401512 27.036189 
L 269.498029 27.036189 
L 272.491478 27.036189 
L 272.491478 22.324126 
L 272.588 22.324126 
L 303.005 22.324126 
L 303.005 22.324126 
" style="fill:none;stroke:#1b9e77;stroke-linecap:square;stroke-width:1.5;"/>
   </g>
   <g id="line2d_18">
    <path clip-path="url(#p8b23e9d9f7)" d="M 55.905 182.534267 
L 56.311959 182.534267 
L 56.311959 177.822204 
L 56.418029 177.822204 
L 58.310579 177.822204 
L 58.310579 173.110142 
L 64.490615 173.110142 
L 64.490615 168.398079 
L 65.076437 168.398079 
L 65.076437 163.686016 
L 65.172937 163.686016 
L 65.462663 163.686016 
L 65.462663 158.973953 
L 65.559271 158.973953 
L 66.621458 158.973953 
L 66.621458 144.837764 
L 66.717978 144.837764 
L 67.007623 144.837764 
L 67.007623 140.125701 
L 67.104254 140.125701 
L 74.732602 140.125701 
L 74.732602 130.701575 
L 74.82922 130.701575 
L 75.118847 130.701575 
L 75.118847 125.989512 
L 75.215369 125.989512 
L 75.505092 125.989512 
L 75.505092 130.701575 
L 75.601683 130.701575 
L 76.27765 130.701575 
L 76.27765 125.989512 
L 76.374187 125.989512 
L 76.66382 125.989512 
L 76.66382 116.565386 
L 76.760489 116.565386 
L 78.595107 116.565386 
L 78.595107 107.14126 
L 78.691636 107.14126 
L 82.84383 107.14126 
L 82.84383 102.429197 
L 82.940366 102.429197 
L 83.23007 102.429197 
L 83.23007 83.580945 
L 83.326617 83.580945 
L 83.616273 83.580945 
L 83.616273 74.156819 
L 83.712833 74.156819 
L 84.388811 74.156819 
L 84.388811 69.444756 
L 84.48538 69.444756 
L 84.775046 69.444756 
L 84.775046 64.732693 
L 84.871644 64.732693 
L 85.161304 64.732693 
L 85.161304 60.02063 
L 85.257877 60.02063 
L 85.54755 60.02063 
L 85.54755 45.884441 
L 85.644164 45.884441 
L 85.933787 45.884441 
L 85.933787 41.172378 
L 86.030386 41.172378 
L 86.320057 41.172378 
L 86.320057 36.460315 
L 86.416635 36.460315 
L 92.886217 36.460315 
L 92.886217 27.036189 
L 92.982781 27.036189 
L 93.272549 27.036189 
L 93.272549 22.324126 
L 93.369049 22.324126 
L 138.849701 22.324126 
L 138.849701 27.036189 
L 138.946291 27.036189 
L 139.235939 27.036189 
L 139.235939 22.324126 
L 139.332503 22.324126 
L 303.005 22.324126 
L 303.005 22.324126 
" style="fill:none;stroke:#d95f02;stroke-linecap:square;stroke-width:1.5;"/>
   </g>
   <g id="line2d_19">
    <path clip-path="url(#p8b23e9d9f7)" d="M 55.905 201.382519 
L 66.23523 201.382519 
L 66.23523 196.670456 
L 66.331719 196.670456 
L 73.96016 196.670456 
L 73.96016 191.958393 
L 74.056729 191.958393 
L 74.346392 191.958393 
L 74.346392 187.24633 
L 74.442957 187.24633 
L 74.732602 187.24633 
L 74.732602 177.822204 
L 74.82922 177.822204 
L 75.118847 177.822204 
L 75.118847 173.110142 
L 75.215369 173.110142 
L 75.505092 173.110142 
L 75.505092 168.398079 
L 75.601683 168.398079 
L 75.891345 168.398079 
L 75.891345 163.686016 
L 75.987887 163.686016 
L 76.66382 163.686016 
L 76.66382 158.973953 
L 76.760489 158.973953 
L 83.23007 158.973953 
L 83.23007 149.549827 
L 83.326617 149.549827 
L 83.616273 149.549827 
L 83.616273 144.837764 
L 83.712833 144.837764 
L 85.161304 144.837764 
L 85.161304 140.125701 
L 85.257877 140.125701 
L 85.54755 140.125701 
L 85.54755 130.701575 
L 85.644164 130.701575 
L 120.696142 130.701575 
L 120.696142 125.989512 
L 120.792607 125.989512 
L 121.082352 125.989512 
L 121.082352 121.277449 
L 121.178863 121.277449 
L 121.468623 121.277449 
L 121.468623 116.565386 
L 121.565154 116.565386 
L 121.854829 116.565386 
L 121.854829 111.853323 
L 121.951385 111.853323 
L 122.241117 111.853323 
L 122.241117 102.429197 
L 122.337655 102.429197 
L 122.62737 102.429197 
L 122.62737 97.717134 
L 122.723918 97.717134 
L 129.579779 97.717134 
L 129.676347 83.580945 
L 129.676347 83.580945 
L 130.352293 83.580945 
L 130.352293 74.156819 
L 130.448842 74.156819 
L 131.511047 74.156819 
L 131.511047 69.444756 
L 131.607593 69.444756 
L 131.897297 69.444756 
L 131.897297 60.02063 
L 131.993865 60.02063 
L 132.283541 60.02063 
L 132.283541 36.460315 
L 132.38009 36.460315 
L 132.669731 36.460315 
L 132.669731 22.324126 
L 132.766384 22.324126 
L 138.463443 22.324126 
L 138.463443 27.036189 
L 138.56002 27.036189 
L 139.235939 27.036189 
L 139.235939 22.324126 
L 139.332503 22.324126 
L 232.707903 22.324126 
L 232.707903 27.036189 
L 232.804533 27.036189 
L 233.094232 27.036189 
L 233.094232 22.324126 
L 233.190809 22.324126 
L 250.089155 22.324126 
L 250.089155 27.036189 
L 250.18562 27.036189 
L 250.861545 27.036189 
L 250.861545 22.324126 
L 250.958107 22.324126 
L 251.634068 22.324126 
L 251.634068 27.036189 
L 251.730643 27.036189 
L 253.179141 27.036189 
L 253.179141 22.324126 
L 253.275645 22.324126 
L 303.005 22.324126 
L 303.005 22.324126 
" style="fill:none;stroke:#7570b3;stroke-linecap:square;stroke-width:1.5;"/>
   </g>
   <g id="line2d_20">
    <path clip-path="url(#p8b23e9d9f7)" d="M 55.905 210.806645 
L 56.311959 210.806645 
L 56.311959 201.382519 
L 56.418029 201.382519 
L 58.123964 201.382519 
L 58.123964 196.670456 
L 58.233377 196.670456 
L 67.007623 196.670456 
L 67.007623 191.958393 
L 67.104254 191.958393 
L 74.346392 191.958393 
L 74.346392 177.822204 
L 74.442957 177.822204 
L 74.732602 177.822204 
L 74.732602 173.110142 
L 74.82922 173.110142 
L 75.118847 173.110142 
L 75.118847 154.26189 
L 75.215369 154.26189 
L 75.505092 154.26189 
L 75.505092 149.549827 
L 75.601683 149.549827 
L 75.891345 149.549827 
L 75.891345 140.125701 
L 75.987887 140.125701 
L 76.27765 140.125701 
L 76.27765 125.989512 
L 76.374187 125.989512 
L 83.23007 125.989512 
L 83.23007 121.277449 
L 83.326617 121.277449 
L 83.616273 121.277449 
L 83.616273 116.565386 
L 83.712833 116.565386 
L 84.775046 116.565386 
L 84.775046 111.853323 
L 84.871644 111.853323 
L 85.54755 111.853323 
L 85.54755 97.717134 
L 85.644164 97.717134 
L 85.933787 97.717134 
L 85.933787 93.005071 
L 86.030386 93.005071 
L 93.658728 93.005071 
L 93.658728 88.293008 
L 93.755305 88.293008 
L 94.044963 88.293008 
L 94.044963 83.580945 
L 94.141563 83.580945 
L 94.817513 83.580945 
L 94.817513 78.868882 
L 94.914018 78.868882 
L 95.976233 78.868882 
L 95.976233 74.156819 
L 96.072847 74.156819 
L 102.5425 74.156819 
L 102.5425 69.444756 
L 102.639017 69.444756 
L 120.696142 69.444756 
L 120.696142 45.884441 
L 120.792607 45.884441 
L 121.082352 45.884441 
L 121.082352 36.460315 
L 121.178863 36.460315 
L 121.468623 36.460315 
L 121.468623 31.748252 
L 121.565154 31.748252 
L 251.634068 31.748252 
L 251.634068 36.460315 
L 251.730643 36.460315 
L 252.020302 36.460315 
L 252.020302 31.748252 
L 252.116864 31.748252 
L 272.877679 31.748252 
L 272.877679 36.460315 
L 272.974308 36.460315 
L 273.263955 36.460315 
L 273.263955 31.748252 
L 273.360549 31.748252 
L 303.005 31.748252 
L 303.005 31.748252 
" style="fill:none;stroke:#e7298a;stroke-linecap:square;stroke-width:1.5;"/>
   </g>
   <g id="line2d_21">
    <path clip-path="url(#p8b23e9d9f7)" d="M 55.905 191.958393 
L 74.346392 191.958393 
L 74.346392 187.24633 
L 74.442957 187.24633 
L 76.27765 187.24633 
L 76.27765 182.534267 
L 76.374187 182.534267 
L 77.05012 182.534267 
L 77.05012 177.822204 
L 77.146645 177.822204 
L 84.388811 177.822204 
L 84.388811 173.110142 
L 84.48538 173.110142 
L 85.161304 173.110142 
L 85.161304 168.398079 
L 85.257877 168.398079 
L 92.886217 168.398079 
L 92.886217 163.686016 
L 92.982781 163.686016 
L 120.309839 163.686016 
L 120.309839 154.26189 
L 120.406456 154.26189 
L 120.696142 154.26189 
L 120.696142 144.837764 
L 120.792607 144.837764 
L 121.854829 144.837764 
L 121.854829 140.125701 
L 121.951385 140.125701 
L 123.399857 140.125701 
L 123.399857 135.413638 
L 123.496397 135.413638 
L 130.352293 135.413638 
L 130.352293 130.701575 
L 130.448842 130.701575 
L 131.124722 130.701575 
L 131.124722 121.277449 
L 131.22137 121.277449 
L 131.897297 121.277449 
L 131.897297 116.565386 
L 131.993865 116.565386 
L 134.214788 116.565386 
L 134.214788 111.853323 
L 134.311332 111.853323 
L 138.463443 111.853323 
L 138.463443 107.14126 
L 138.56002 107.14126 
L 139.235939 107.14126 
L 139.235939 102.429197 
L 139.332503 102.429197 
L 139.622184 102.429197 
L 139.622184 93.005071 
L 139.718753 93.005071 
L 140.394741 93.005071 
L 140.394741 88.293008 
L 140.491307 88.293008 
L 140.780951 88.293008 
L 140.87755 74.156819 
L 140.87755 74.156819 
L 141.167248 74.156819 
L 141.167248 64.732693 
L 141.263824 64.732693 
L 142.712179 64.732693 
L 142.712179 69.444756 
L 142.808728 69.444756 
L 148.505896 69.444756 
L 148.505896 60.02063 
L 148.602486 60.02063 
L 148.892239 60.02063 
L 148.892239 55.308567 
L 148.988704 55.308567 
L 149.66468 55.308567 
L 149.66468 50.596504 
L 149.761257 50.596504 
L 150.050973 50.596504 
L 150.050973 41.172378 
L 150.147452 41.172378 
L 150.437221 41.172378 
L 150.437221 36.460315 
L 150.533699 36.460315 
L 151.209728 36.460315 
L 151.209728 31.748252 
L 151.306201 31.748252 
L 303.005 31.748252 
L 303.005 31.748252 
" style="fill:none;stroke:#66a61e;stroke-linecap:square;stroke-width:1.5;"/>
   </g>
   <g id="line2d_22">
    <path clip-path="url(#p8b23e9d9f7)" d="M 55.905 196.670456 
L 66.23523 196.670456 
L 66.23523 191.958393 
L 66.331719 191.958393 
L 73.96016 191.958393 
L 73.96016 187.24633 
L 74.056729 187.24633 
L 74.346392 187.24633 
L 74.346392 182.534267 
L 74.442957 182.534267 
L 75.118847 182.534267 
L 75.118847 177.822204 
L 75.215369 177.822204 
L 75.505092 177.822204 
L 75.505092 173.110142 
L 75.601683 173.110142 
L 75.891345 173.110142 
L 75.891345 163.686016 
L 75.987887 163.686016 
L 76.27765 163.686016 
L 76.27765 158.973953 
L 76.374187 158.973953 
L 76.66382 158.973953 
L 76.66382 154.26189 
L 76.760489 154.26189 
L 82.84383 154.26189 
L 82.84383 149.549827 
L 82.940366 149.549827 
L 83.23007 149.549827 
L 83.23007 140.125701 
L 83.326617 140.125701 
L 84.002502 140.125701 
L 84.002502 135.413638 
L 84.099071 135.413638 
L 84.388811 135.413638 
L 84.388811 125.989512 
L 84.48538 125.989512 
L 85.161304 125.989512 
L 85.161304 121.277449 
L 85.257877 121.277449 
L 85.933787 121.277449 
L 85.933787 116.565386 
L 86.030386 116.565386 
L 86.320057 116.565386 
L 86.320057 111.853323 
L 86.416635 111.853323 
L 93.272549 111.853323 
L 93.272549 107.14126 
L 93.369049 107.14126 
L 94.817513 107.14126 
L 94.817513 102.429197 
L 94.914018 102.429197 
L 104.859892 102.429197 
L 104.859892 97.717134 
L 104.956464 97.717134 
L 120.309839 97.717134 
L 120.309839 93.005071 
L 120.406456 93.005071 
L 121.468623 93.005071 
L 121.468623 78.868882 
L 121.565154 78.868882 
L 121.854829 78.868882 
L 121.854829 69.444756 
L 121.951385 69.444756 
L 122.241117 69.444756 
L 122.241117 60.02063 
L 122.337655 60.02063 
L 123.399857 60.02063 
L 123.399857 55.308567 
L 123.496397 55.308567 
L 128.807301 55.308567 
L 128.807301 50.596504 
L 128.903858 50.596504 
L 129.966019 50.596504 
L 129.966019 45.884441 
L 130.062563 45.884441 
L 130.352293 45.884441 
L 130.352293 41.172378 
L 130.448842 41.172378 
L 130.738516 41.172378 
L 130.738516 36.460315 
L 130.835088 36.460315 
L 131.897297 36.460315 
L 131.897297 31.748252 
L 131.993865 31.748252 
L 303.005 31.748252 
L 303.005 31.748252 
" style="fill:none;stroke:#e6ab02;stroke-linecap:square;stroke-width:1.5;"/>
   </g>
   <g id="line2d_23">
    <path clip-path="url(#p8b23e9d9f7)" d="M 55.905 201.382519 
L 67.007623 201.382519 
L 67.007623 196.670456 
L 67.104254 196.670456 
L 74.346392 196.670456 
L 74.346392 191.958393 
L 74.442957 191.958393 
L 75.891345 191.958393 
L 75.891345 187.24633 
L 75.987887 187.24633 
L 84.002502 187.24633 
L 84.002502 177.822204 
L 84.099071 177.822204 
L 84.775046 177.822204 
L 84.775046 173.110142 
L 84.871644 173.110142 
L 85.54755 173.110142 
L 85.54755 168.398079 
L 85.644164 168.398079 
L 85.933787 168.398079 
L 85.933787 163.686016 
L 86.030386 163.686016 
L 94.817513 163.686016 
L 94.817513 158.973953 
L 94.914018 158.973953 
L 103.701205 158.973953 
L 103.701205 154.26189 
L 103.797723 154.26189 
L 120.696142 154.26189 
L 120.696142 144.837764 
L 120.792607 144.837764 
L 121.468623 144.837764 
L 121.468623 140.125701 
L 121.565154 140.125701 
L 123.399857 140.125701 
L 123.399857 135.413638 
L 123.496397 135.413638 
L 129.579779 135.413638 
L 129.579779 130.701575 
L 129.676347 130.701575 
L 131.511047 130.701575 
L 131.511047 125.989512 
L 131.607593 125.989512 
L 131.897297 125.989512 
L 131.897297 121.277449 
L 131.993865 121.277449 
L 132.283541 121.277449 
L 132.38009 107.14126 
L 132.38009 107.14126 
L 138.849701 107.14126 
L 138.849701 102.429197 
L 138.946291 102.429197 
L 139.235939 102.429197 
L 139.235939 93.005071 
L 139.332503 93.005071 
L 139.622184 93.005071 
L 139.622184 88.293008 
L 139.718753 88.293008 
L 140.008471 88.293008 
L 140.105027 74.156819 
L 140.105027 74.156819 
L 140.780951 74.156819 
L 140.780951 60.02063 
L 140.87755 60.02063 
L 141.167248 60.02063 
L 141.167248 50.596504 
L 141.263824 50.596504 
L 141.553441 50.596504 
L 141.553441 31.748252 
L 141.650003 31.748252 
L 141.93974 31.748252 
L 141.93974 27.036189 
L 142.036298 27.036189 
L 143.870994 27.036189 
L 143.870994 22.324126 
L 143.967557 22.324126 
L 250.089155 22.324126 
L 250.089155 27.036189 
L 250.18562 27.036189 
L 250.475399 27.036189 
L 250.475399 22.324126 
L 250.571955 22.324126 
L 251.247852 22.324126 
L 251.247852 27.036189 
L 251.344452 27.036189 
L 252.406551 27.036189 
L 252.406551 31.748252 
L 252.503193 31.748252 
L 253.179141 31.748252 
L 253.179141 36.460315 
L 253.275645 36.460315 
L 263.607757 36.460315 
L 263.607757 41.172378 
L 263.704367 41.172378 
L 286.396417 41.172378 
L 286.396417 36.460315 
L 286.49299 36.460315 
L 303.005 36.460315 
L 303.005 36.460315 
" style="fill:none;stroke:#a6761d;stroke-linecap:square;stroke-width:1.5;"/>
   </g>
   <g id="line2d_24">
    <path clip-path="url(#p8b23e9d9f7)" d="M 55.905 201.382519 
L 74.732602 201.382519 
L 74.732602 196.670456 
L 74.82922 196.670456 
L 75.891345 196.670456 
L 75.891345 191.958393 
L 75.987887 191.958393 
L 84.388811 191.958393 
L 84.388811 187.24633 
L 84.48538 187.24633 
L 85.161304 187.24633 
L 85.161304 191.958393 
L 85.257877 191.958393 
L 85.54755 191.958393 
L 85.54755 182.534267 
L 85.644164 182.534267 
L 120.696142 182.534267 
L 120.696142 177.822204 
L 120.792607 177.822204 
L 121.468623 177.822204 
L 121.468623 173.110142 
L 121.565154 173.110142 
L 122.241117 173.110142 
L 122.241117 168.398079 
L 122.337655 168.398079 
L 122.62737 168.398079 
L 122.62737 163.686016 
L 122.723918 163.686016 
L 124.558546 163.686016 
L 124.558546 158.973953 
L 124.655083 158.973953 
L 130.738516 158.973953 
L 130.738516 154.26189 
L 130.835088 154.26189 
L 131.897297 154.26189 
L 131.897297 149.549827 
L 131.993865 149.549827 
L 132.283541 149.549827 
L 132.283541 144.837764 
L 132.38009 144.837764 
L 138.849701 144.837764 
L 138.849701 135.413638 
L 138.946291 135.413638 
L 139.235939 135.413638 
L 139.235939 130.701575 
L 139.332503 130.701575 
L 139.622184 130.701575 
L 139.718753 116.565386 
L 139.718753 116.565386 
L 141.167248 116.565386 
L 141.167248 111.853323 
L 141.263824 111.853323 
L 141.553441 111.853323 
L 141.553441 107.14126 
L 141.650003 107.14126 
L 141.93974 107.14126 
L 141.93974 111.853323 
L 142.036298 111.853323 
L 142.325954 111.853323 
L 142.325954 107.14126 
L 142.422538 107.14126 
L 142.712179 107.14126 
L 142.712179 102.429197 
L 142.808728 102.429197 
L 147.347214 102.429197 
L 147.347214 107.14126 
L 147.443702 107.14126 
L 148.505896 107.14126 
L 148.505896 93.005071 
L 148.602486 93.005071 
L 149.278419 93.005071 
L 149.278419 88.293008 
L 149.375028 88.293008 
L 150.050973 88.293008 
L 150.050973 69.444756 
L 150.147452 69.444756 
L 150.437221 69.444756 
L 150.437221 64.732693 
L 150.533699 64.732693 
L 158.934599 64.732693 
L 158.934599 60.02063 
L 159.0312 60.02063 
L 190.220746 60.02063 
L 190.220746 55.308567 
L 190.317249 55.308567 
L 196.400693 55.308567 
L 196.400693 50.596504 
L 196.497235 50.596504 
L 196.786895 50.596504 
L 196.786895 55.308567 
L 196.883439 55.308567 
L 197.559395 55.308567 
L 197.559395 50.596504 
L 197.655926 50.596504 
L 206.829404 50.596504 
L 206.829404 45.884441 
L 206.926068 45.884441 
L 222.665468 45.884441 
L 222.665468 50.596504 
L 222.762042 50.596504 
L 233.480426 50.596504 
L 233.480426 45.884441 
L 233.576993 45.884441 
L 250.089155 45.884441 
L 250.089155 50.596504 
L 250.18562 50.596504 
L 250.861545 50.596504 
L 250.861545 55.308567 
L 250.958107 55.308567 
L 252.020302 55.308567 
L 252.020302 60.02063 
L 252.116864 60.02063 
L 262.835258 60.02063 
L 262.835258 64.732693 
L 262.931793 64.732693 
L 279.443886 64.732693 
L 279.443886 69.444756 
L 279.540531 69.444756 
L 303.005 69.444756 
L 303.005 69.444756 
" style="fill:none;stroke:#666666;stroke-linecap:square;stroke-width:1.5;"/>
   </g>
   <g id="line2d_25">
    <path clip-path="url(#p8b23e9d9f7)" d="M 55.905 196.670456 
L 64.490615 196.670456 
L 64.490615 191.958393 
L 75.891345 191.958393 
L 75.891345 187.24633 
L 75.987887 187.24633 
L 83.616273 187.24633 
L 83.616273 182.534267 
L 83.712833 182.534267 
L 84.388811 182.534267 
L 84.388811 177.822204 
L 84.48538 177.822204 
L 85.54755 177.822204 
L 85.54755 173.110142 
L 85.644164 173.110142 
L 85.933787 173.110142 
L 85.933787 168.398079 
L 86.030386 168.398079 
L 88.251291 168.398079 
L 88.251291 163.686016 
L 88.347862 163.686016 
L 121.468623 163.686016 
L 121.468623 154.26189 
L 121.565154 154.26189 
L 130.352293 154.26189 
L 130.352293 149.549827 
L 130.448842 149.549827 
L 132.283541 149.549827 
L 132.283541 144.837764 
L 132.38009 144.837764 
L 133.442317 144.837764 
L 133.442317 140.125701 
L 133.53887 140.125701 
L 139.235939 140.125701 
L 139.235939 135.413638 
L 139.332503 135.413638 
L 139.622184 135.413638 
L 139.622184 125.989512 
L 139.718753 125.989512 
L 140.780951 125.989512 
L 140.780951 116.565386 
L 140.87755 116.565386 
L 149.278419 116.565386 
L 149.278419 111.853323 
L 149.375028 111.853323 
L 150.437221 111.853323 
L 150.437221 107.14126 
L 150.533699 107.14126 
L 151.595886 107.14126 
L 151.595886 102.429197 
L 151.692462 102.429197 
L 161.252144 102.429197 
L 161.252144 97.717134 
L 161.348615 97.717134 
L 187.903223 97.717134 
L 187.903223 93.005071 
L 187.999746 93.005071 
L 196.786895 93.005071 
L 196.786895 88.293008 
L 196.883439 88.293008 
L 206.829404 88.293008 
L 206.829404 93.005071 
L 206.926068 93.005071 
L 251.247852 93.005071 
L 251.247852 88.293008 
L 251.344452 88.293008 
L 251.634068 88.293008 
L 251.634068 93.005071 
L 251.730643 93.005071 
L 261.290301 93.005071 
L 261.290301 88.293008 
L 261.386873 88.293008 
L 303.005 88.293008 
L 303.005 88.293008 
" style="fill:none;stroke:#1b9e77;stroke-dasharray:4.5,1.5;stroke-dashoffset:0;stroke-width:1.5;"/>
   </g>
   <g id="line2d_26">
    <path clip-path="url(#p8b23e9d9f7)" d="M 55.905 206.094582 
L 73.96016 206.094582 
L 73.96016 201.382519 
L 74.056729 201.382519 
L 74.346392 201.382519 
L 74.346392 196.670456 
L 74.442957 196.670456 
L 75.891345 196.670456 
L 75.891345 187.24633 
L 75.987887 187.24633 
L 83.23007 187.24633 
L 83.23007 182.534267 
L 83.326617 182.534267 
L 85.161304 182.534267 
L 85.161304 177.822204 
L 85.257877 177.822204 
L 85.54755 177.822204 
L 85.54755 173.110142 
L 85.644164 173.110142 
L 85.933787 173.110142 
L 85.933787 168.398079 
L 86.030386 168.398079 
L 121.082352 168.398079 
L 121.082352 163.686016 
L 121.178863 163.686016 
L 121.468623 163.686016 
L 121.468623 158.973953 
L 121.565154 158.973953 
L 121.854829 158.973953 
L 121.854829 149.549827 
L 121.951385 149.549827 
L 131.511047 149.549827 
L 131.511047 144.837764 
L 131.607593 144.837764 
L 131.897297 144.837764 
L 131.897297 140.125701 
L 131.993865 140.125701 
L 138.463443 140.125701 
L 138.463443 144.837764 
L 138.56002 144.837764 
L 139.622184 144.837764 
L 139.622184 135.413638 
L 139.718753 135.413638 
L 140.008471 135.413638 
L 140.008471 140.125701 
L 140.105027 140.125701 
L 140.394741 140.125701 
L 140.394741 135.413638 
L 140.491307 135.413638 
L 141.167248 135.413638 
L 141.167248 125.989512 
L 141.263824 125.989512 
L 141.553441 125.989512 
L 141.553441 121.277449 
L 141.650003 121.277449 
L 159.70708 121.277449 
L 159.70708 116.565386 
L 159.803691 116.565386 
L 160.865891 116.565386 
L 160.865891 111.853323 
L 160.962471 111.853323 
L 179.405728 111.853323 
L 179.405728 107.14126 
L 179.502335 107.14126 
L 214.55428 107.14126 
L 214.55428 102.429197 
L 214.650876 102.429197 
L 216.099269 102.429197 
L 216.099269 97.717134 
L 216.195861 97.717134 
L 223.824286 97.717134 
L 223.824286 93.005071 
L 223.920802 93.005071 
L 254.337879 93.005071 
L 254.337879 88.293008 
L 254.434418 88.293008 
L 303.005 88.293008 
L 303.005 88.293008 
" style="fill:none;stroke:#d95f02;stroke-dasharray:4.5,1.5;stroke-dashoffset:0;stroke-width:1.5;"/>
   </g>
   <g id="line2d_27">
    <path clip-path="url(#p8b23e9d9f7)" d="M 55.905 210.806645 
L 65.849281 210.806645 
L 65.849281 206.094582 
L 65.945488 206.094582 
L 66.621458 206.094582 
L 66.621458 201.382519 
L 66.717978 201.382519 
L 75.505092 201.382519 
L 75.505092 196.670456 
L 75.601683 196.670456 
L 85.54755 196.670456 
L 85.54755 191.958393 
L 85.644164 191.958393 
L 91.727529 191.958393 
L 91.727529 187.24633 
L 91.824176 187.24633 
L 93.658728 187.24633 
L 93.658728 182.534267 
L 93.755305 182.534267 
L 94.431258 182.534267 
L 94.431258 177.822204 
L 94.52784 177.822204 
L 120.309839 177.822204 
L 120.309839 168.398079 
L 120.406456 168.398079 
L 121.082352 168.398079 
L 121.082352 163.686016 
L 121.178863 163.686016 
L 121.468623 163.686016 
L 121.468623 158.973953 
L 121.565154 158.973953 
L 121.854829 158.973953 
L 121.854829 154.26189 
L 121.951385 154.26189 
L 122.241117 154.26189 
L 122.241117 144.837764 
L 122.337655 144.837764 
L 122.62737 144.837764 
L 122.62737 140.125701 
L 122.723918 140.125701 
L 123.399857 140.125701 
L 123.399857 135.413638 
L 123.496397 135.413638 
L 124.172386 135.413638 
L 124.172386 130.701575 
L 124.26883 130.701575 
L 125.331025 130.701575 
L 125.331025 125.989512 
L 125.427589 125.989512 
L 129.579779 125.989512 
L 129.579779 121.277449 
L 129.676347 121.277449 
L 129.966019 121.277449 
L 129.966019 116.565386 
L 130.062563 116.565386 
L 130.352293 116.565386 
L 130.352293 102.429197 
L 130.448842 102.429197 
L 130.738516 102.429197 
L 130.738516 97.717134 
L 130.835088 97.717134 
L 131.124722 97.717134 
L 131.124722 93.005071 
L 131.22137 93.005071 
L 134.600965 93.005071 
L 134.600965 97.717134 
L 134.697627 97.717134 
L 139.622184 97.717134 
L 139.622184 93.005071 
L 139.718753 93.005071 
L 140.008471 93.005071 
L 140.008471 97.717134 
L 140.105027 97.717134 
L 140.394741 97.717134 
L 140.394741 93.005071 
L 140.491307 93.005071 
L 151.209728 93.005071 
L 151.209728 97.717134 
L 151.306201 97.717134 
L 151.595886 97.717134 
L 151.595886 93.005071 
L 151.692462 93.005071 
L 303.005 93.005071 
L 303.005 93.005071 
" style="fill:none;stroke:#7570b3;stroke-dasharray:4.5,1.5;stroke-dashoffset:0;stroke-width:1.5;"/>
   </g>
   <g id="line2d_28">
    <path clip-path="url(#p8b23e9d9f7)" d="M 55.905 206.094582 
L 74.732602 206.094582 
L 74.732602 201.382519 
L 74.82922 201.382519 
L 85.161304 201.382519 
L 85.161304 191.958393 
L 85.257877 191.958393 
L 120.309839 191.958393 
L 120.309839 187.24633 
L 120.406456 187.24633 
L 121.082352 187.24633 
L 121.082352 182.534267 
L 121.178863 182.534267 
L 122.241117 182.534267 
L 122.241117 177.822204 
L 122.337655 177.822204 
L 129.579779 177.822204 
L 129.579779 173.110142 
L 129.676347 173.110142 
L 129.966019 173.110142 
L 129.966019 163.686016 
L 130.062563 163.686016 
L 130.352293 163.686016 
L 130.352293 158.973953 
L 130.448842 158.973953 
L 131.124722 158.973953 
L 131.124722 154.26189 
L 131.22137 154.26189 
L 131.511047 154.26189 
L 131.511047 144.837764 
L 131.607593 144.837764 
L 131.897297 144.837764 
L 131.897297 135.413638 
L 131.993865 135.413638 
L 133.442317 135.413638 
L 133.442317 130.701575 
L 133.53887 130.701575 
L 134.214788 130.701575 
L 134.214788 125.989512 
L 134.311332 125.989512 
L 134.600965 125.989512 
L 134.600965 130.701575 
L 134.697627 130.701575 
L 138.077235 130.701575 
L 138.077235 135.413638 
L 138.173828 135.413638 
L 138.463443 135.413638 
L 138.463443 140.125701 
L 138.56002 140.125701 
L 138.849701 140.125701 
L 138.849701 135.413638 
L 138.946291 135.413638 
L 139.235939 135.413638 
L 139.235939 140.125701 
L 139.332503 140.125701 
L 139.622184 140.125701 
L 139.622184 135.413638 
L 139.718753 135.413638 
L 140.008471 135.413638 
L 140.008471 130.701575 
L 140.105027 130.701575 
L 140.780951 130.701575 
L 140.780951 135.413638 
L 140.87755 135.413638 
L 149.66468 135.413638 
L 149.66468 130.701575 
L 149.761257 130.701575 
L 150.437221 130.701575 
L 150.437221 125.989512 
L 150.533699 125.989512 
L 159.320898 125.989512 
L 159.320898 121.277449 
L 159.417393 121.277449 
L 162.024601 121.277449 
L 162.024601 116.565386 
L 162.121205 116.565386 
L 186.744468 116.565386 
L 186.744468 111.853323 
L 186.840976 111.853323 
L 187.13071 111.853323 
L 187.13071 107.14126 
L 187.227224 107.14126 
L 188.675663 107.14126 
L 188.675663 102.429197 
L 188.77234 102.429197 
L 206.829404 102.429197 
L 206.829404 97.717134 
L 206.926068 97.717134 
L 207.988046 97.717134 
L 207.988046 93.005071 
L 208.084702 93.005071 
L 227.300499 93.005071 
L 227.300499 88.293008 
L 227.396999 88.293008 
L 235.797911 88.293008 
L 235.797911 93.005071 
L 235.894534 93.005071 
L 250.861545 93.005071 
L 250.861545 97.717134 
L 250.958107 97.717134 
L 303.005 97.717134 
L 303.005 97.717134 
" style="fill:none;stroke:#e7298a;stroke-dasharray:4.5,1.5;stroke-dashoffset:0;stroke-width:1.5;"/>
   </g>
   <g id="line2d_29">
    <path clip-path="url(#p8b23e9d9f7)" d="M 229.328262 210.806645 
L 232.707903 210.806645 
L 232.707903 206.094582 
L 232.804533 206.094582 
L 244.295417 206.094582 
L 244.295417 201.382519 
L 244.391949 201.382519 
L 250.089155 201.382519 
L 250.089155 182.534267 
L 250.18562 182.534267 
L 250.861545 182.534267 
L 250.861545 173.110142 
L 250.958107 173.110142 
L 251.634068 173.110142 
L 251.634068 158.973953 
L 251.730643 158.973953 
L 252.406551 158.973953 
L 252.406551 154.26189 
L 252.503193 154.26189 
L 260.131587 154.26189 
L 260.131587 149.549827 
L 260.228089 149.549827 
L 262.062803 149.549827 
L 262.062803 144.837764 
L 262.159304 144.837764 
L 262.835258 144.837764 
L 262.835258 140.125701 
L 262.931793 140.125701 
L 263.607757 140.125701 
L 263.607757 135.413638 
L 263.704367 135.413638 
L 263.994018 135.413638 
L 263.994018 130.701575 
L 264.090517 130.701575 
L 269.401512 130.701575 
L 269.401512 125.989512 
L 269.498029 125.989512 
L 272.877679 125.989512 
L 272.877679 121.277449 
L 272.974308 121.277449 
L 279.443886 121.277449 
L 279.443886 116.565386 
L 279.540531 116.565386 
L 303.005 116.565386 
L 303.005 116.565386 
" style="fill:none;stroke:#66a61e;stroke-dasharray:4.5,1.5;stroke-dashoffset:0;stroke-width:1.5;"/>
   </g>
   <g id="line2d_30">
    <path clip-path="url(#p8b23e9d9f7)" d="M 55.905 206.094582 
L 75.118847 206.094582 
L 75.118847 196.670456 
L 75.215369 196.670456 
L 83.616273 196.670456 
L 83.616273 187.24633 
L 83.712833 187.24633 
L 84.002502 187.24633 
L 84.002502 182.534267 
L 84.099071 182.534267 
L 85.54755 182.534267 
L 85.54755 177.822204 
L 85.644164 177.822204 
L 85.933787 177.822204 
L 85.933787 173.110142 
L 86.030386 173.110142 
L 121.854829 173.110142 
L 121.854829 168.398079 
L 121.951385 168.398079 
L 122.241117 168.398079 
L 122.241117 163.686016 
L 122.337655 163.686016 
L 122.62737 163.686016 
L 122.62737 158.973953 
L 122.723918 158.973953 
L 123.786029 158.973953 
L 123.786029 154.26189 
L 123.882677 154.26189 
L 124.172386 154.26189 
L 124.172386 158.973953 
L 124.26883 158.973953 
L 129.579779 158.973953 
L 129.579779 140.125701 
L 129.676347 140.125701 
L 130.352293 140.125701 
L 130.352293 130.701575 
L 130.448842 130.701575 
L 130.738516 130.701575 
L 130.738516 125.989512 
L 130.835088 125.989512 
L 131.124722 125.989512 
L 131.124722 116.565386 
L 131.22137 116.565386 
L 303.005 116.565386 
L 303.005 116.565386 
" style="fill:none;stroke:#e6ab02;stroke-dasharray:4.5,1.5;stroke-dashoffset:0;stroke-width:1.5;"/>
   </g>
   <g id="line2d_31">
    <path clip-path="url(#p8b23e9d9f7)" d="M 55.905 210.806645 
L 67.393862 210.806645 
L 67.393862 206.094582 
L 67.490467 206.094582 
L 68.93893 206.094582 
L 68.93893 201.382519 
L 69.035436 201.382519 
L 93.272549 201.382519 
L 93.272549 196.670456 
L 93.369049 196.670456 
L 120.309839 196.670456 
L 120.309839 191.958393 
L 120.406456 191.958393 
L 123.01356 191.958393 
L 123.01356 182.534267 
L 123.110103 182.534267 
L 130.352293 182.534267 
L 130.352293 177.822204 
L 130.448842 177.822204 
L 130.738516 177.822204 
L 130.738516 173.110142 
L 130.835088 173.110142 
L 131.897297 173.110142 
L 131.897297 163.686016 
L 131.993865 163.686016 
L 132.283541 163.686016 
L 132.283541 158.973953 
L 132.38009 158.973953 
L 134.600965 158.973953 
L 134.600965 154.26189 
L 134.697627 154.26189 
L 139.235939 154.26189 
L 139.235939 158.973953 
L 139.332503 158.973953 
L 140.008471 158.973953 
L 140.008471 154.26189 
L 140.105027 154.26189 
L 140.394741 154.26189 
L 140.394741 149.549827 
L 140.491307 149.549827 
L 141.167248 149.549827 
L 141.167248 144.837764 
L 141.263824 144.837764 
L 141.553441 144.837764 
L 141.553441 149.549827 
L 141.650003 149.549827 
L 141.93974 149.549827 
L 141.93974 144.837764 
L 142.036298 144.837764 
L 148.505896 144.837764 
L 148.505896 140.125701 
L 148.602486 140.125701 
L 160.865891 140.125701 
L 160.865891 135.413638 
L 160.962471 135.413638 
L 186.744468 135.413638 
L 186.744468 130.701575 
L 186.840976 130.701575 
L 223.437984 130.701575 
L 223.437984 125.989512 
L 223.534613 125.989512 
L 269.401512 125.989512 
L 269.401512 121.277449 
L 269.498029 121.277449 
L 303.005 121.277449 
L 303.005 121.277449 
" style="fill:none;stroke:#a6761d;stroke-dasharray:4.5,1.5;stroke-dashoffset:0;stroke-width:1.5;"/>
   </g>
   <g id="line2d_32">
    <path clip-path="url(#p8b23e9d9f7)" d="M 55.905 210.806645 
L 75.891345 210.806645 
L 75.891345 206.094582 
L 75.987887 206.094582 
L 76.27765 206.094582 
L 76.27765 201.382519 
L 76.374187 201.382519 
L 84.002502 201.382519 
L 84.002502 196.670456 
L 84.099071 196.670456 
L 85.933787 196.670456 
L 85.933787 191.958393 
L 86.030386 191.958393 
L 86.706283 191.958393 
L 86.706283 187.24633 
L 86.802865 187.24633 
L 87.478818 187.24633 
L 87.478818 182.534267 
L 87.575386 182.534267 
L 93.272549 182.534267 
L 93.272549 187.24633 
L 93.369049 187.24633 
L 120.696142 187.24633 
L 120.696142 182.534267 
L 120.792607 182.534267 
L 123.01356 182.534267 
L 123.01356 173.110142 
L 123.110103 173.110142 
L 129.966019 173.110142 
L 129.966019 168.398079 
L 130.062563 168.398079 
L 131.511047 168.398079 
L 131.511047 149.549827 
L 131.607593 149.549827 
L 131.897297 149.549827 
L 131.897297 144.837764 
L 131.993865 144.837764 
L 132.283541 144.837764 
L 132.283541 140.125701 
L 132.38009 140.125701 
L 250.861545 140.125701 
L 250.861545 144.837764 
L 250.958107 144.837764 
L 251.247852 144.837764 
L 251.247852 140.125701 
L 251.344452 140.125701 
L 303.005 140.125701 
L 303.005 140.125701 
" style="fill:none;stroke:#666666;stroke-dasharray:4.5,1.5;stroke-dashoffset:0;stroke-width:1.5;"/>
   </g>
   <g id="line2d_33"/>
   <g id="line2d_34"/>
   <g id="line2d_35"/>
   <g id="line2d_36"/>
   <g id="line2d_37"/>
   <g id="line2d_38"/>
   <g id="line2d_39"/>
   <g id="line2d_40"/>
   <g id="line2d_41"/>
   <g id="line2d_42"/>
   <g id="line2d_43"/>
   <g id="line2d_44"/>
   <g id="line2d_45"/>
   <g id="line2d_46"/>
   <g id="line2d_47"/>
   <g id="line2d_48"/>
   <g id="line2d_49"/>
   <g id="patch_3">
    <path d="M 43.55 220.230771 
L 43.55 12.9 
" style="fill:none;stroke:#000000;stroke-linecap:square;stroke-linejoin:miter;stroke-width:0.8;"/>
   </g>
   <g id="patch_4">
    <path d="M 315.36 220.230771 
L 315.36 12.9 
" style="fill:none;stroke:#000000;stroke-linecap:square;stroke-linejoin:miter;stroke-width:0.8;"/>
   </g>
   <g id="patch_5">
    <path d="M 43.55 220.230771 
L 315.36 220.230771 
" style="fill:none;stroke:#000000;stroke-linecap:square;stroke-linejoin:miter;stroke-width:0.8;"/>
   </g>
   <g id="patch_6">
    <path d="M 43.55 12.9 
L 315.36 12.9 
" style="fill:none;stroke:#000000;stroke-linecap:square;stroke-linejoin:miter;stroke-width:0.8;"/>
   </g>
  </g>
  <g id="legend_1">
   <g id="patch_7">
    <path d="M 331.8625 262.528125 
L 420 262.528125 
Q 422 262.528125 422 260.528125 
L 422 12 
Q 422 10 420 10 
L 331.8625 10 
Q 329.8625 10 329.8625 12 
L 329.8625 260.528125 
Q 329.8625 262.528125 331.8625 262.528125 
z
" style="fill:#ffffff;opacity:0.8;stroke:#cccccc;stroke-linejoin:miter;"/>
   </g>
   <g id="text_19">
    <!-- 476/610 Reg. -->
    <defs>
     <path d="M 33.015625 40.375 
Q 26.375 40.375 22.484375 35.828125 
Q 18.609375 31.296875 18.609375 23.390625 
Q 18.609375 15.53125 22.484375 10.953125 
Q 26.375 6.390625 33.015625 6.390625 
Q 39.65625 6.390625 43.53125 10.953125 
Q 47.40625 15.53125 47.40625 23.390625 
Q 47.40625 31.296875 43.53125 35.828125 
Q 39.65625 40.375 33.015625 40.375 
z
M 52.59375 71.296875 
L 52.59375 62.3125 
Q 48.875 64.0625 45.09375 64.984375 
Q 41.3125 65.921875 37.59375 65.921875 
Q 27.828125 65.921875 22.671875 59.328125 
Q 17.53125 52.734375 16.796875 39.40625 
Q 19.671875 43.65625 24.015625 45.921875 
Q 28.375 48.1875 33.59375 48.1875 
Q 44.578125 48.1875 50.953125 41.515625 
Q 57.328125 34.859375 57.328125 23.390625 
Q 57.328125 12.15625 50.6875 5.359375 
Q 44.046875 -1.421875 33.015625 -1.421875 
Q 20.359375 -1.421875 13.671875 8.265625 
Q 6.984375 17.96875 6.984375 36.375 
Q 6.984375 53.65625 15.1875 63.9375 
Q 23.390625 74.21875 37.203125 74.21875 
Q 40.921875 74.21875 44.703125 73.484375 
Q 48.484375 72.75 52.59375 71.296875 
z
" id="DejaVuSans-54"/>
     <path d="M 25.390625 72.90625 
L 33.6875 72.90625 
L 8.296875 -9.28125 
L 0 -9.28125 
z
" id="DejaVuSans-47"/>
     <path d="M 10.6875 12.40625 
L 21 12.40625 
L 21 0 
L 10.6875 0 
z
" id="DejaVuSans-46"/>
    </defs>
    <g transform="translate(342.259375 21.598437)scale(0.1 -0.1)">
     <use xlink:href="#DejaVuSans-52"/>
     <use x="63.623047" xlink:href="#DejaVuSans-55"/>
     <use x="127.246094" xlink:href="#DejaVuSans-54"/>
     <use x="190.869141" xlink:href="#DejaVuSans-47"/>
     <use x="224.560547" xlink:href="#DejaVuSans-54"/>
     <use x="288.183594" xlink:href="#DejaVuSans-49"/>
     <use x="351.806641" xlink:href="#DejaVuSans-48"/>
     <use x="415.429688" xlink:href="#DejaVuSans-32"/>
     <use x="447.216797" xlink:href="#DejaVuSans-82"/>
     <use x="516.636719" xlink:href="#DejaVuSans-101"/>
     <use x="578.160156" xlink:href="#DejaVuSans-103"/>
     <use x="641.636719" xlink:href="#DejaVuSans-46"/>
    </g>
   </g>
   <g id="line2d_50">
    <path d="M 333.8625 32.776562 
L 353.8625 32.776562 
" style="fill:none;stroke:#1b9e77;stroke-linecap:square;stroke-width:1.5;"/>
   </g>
   <g id="line2d_51"/>
   <g id="text_20">
    <!-- AUS (40) -->
    <defs>
     <path d="M 34.1875 63.1875 
L 20.796875 26.90625 
L 47.609375 26.90625 
z
M 28.609375 72.90625 
L 39.796875 72.90625 
L 67.578125 0 
L 57.328125 0 
L 50.6875 18.703125 
L 17.828125 18.703125 
L 11.1875 0 
L 0.78125 0 
z
" id="DejaVuSans-65"/>
     <path d="M 8.6875 72.90625 
L 18.609375 72.90625 
L 18.609375 28.609375 
Q 18.609375 16.890625 22.84375 11.734375 
Q 27.09375 6.59375 36.625 6.59375 
Q 46.09375 6.59375 50.34375 11.734375 
Q 54.59375 16.890625 54.59375 28.609375 
L 54.59375 72.90625 
L 64.5 72.90625 
L 64.5 27.390625 
Q 64.5 13.140625 57.4375 5.859375 
Q 50.390625 -1.421875 36.625 -1.421875 
Q 22.796875 -1.421875 15.734375 5.859375 
Q 8.6875 13.140625 8.6875 27.390625 
z
" id="DejaVuSans-85"/>
     <path d="M 31 75.875 
Q 24.46875 64.65625 21.28125 53.65625 
Q 18.109375 42.671875 18.109375 31.390625 
Q 18.109375 20.125 21.3125 9.0625 
Q 24.515625 -2 31 -13.1875 
L 23.1875 -13.1875 
Q 15.875 -1.703125 12.234375 9.375 
Q 8.59375 20.453125 8.59375 31.390625 
Q 8.59375 42.28125 12.203125 53.3125 
Q 15.828125 64.359375 23.1875 75.875 
z
" id="DejaVuSans-40"/>
     <path d="M 8.015625 75.875 
L 15.828125 75.875 
Q 23.140625 64.359375 26.78125 53.3125 
Q 30.421875 42.28125 30.421875 31.390625 
Q 30.421875 20.453125 26.78125 9.375 
Q 23.140625 -1.703125 15.828125 -13.1875 
L 8.015625 -13.1875 
Q 14.5 -2 17.703125 9.0625 
Q 20.90625 20.125 20.90625 31.390625 
Q 20.90625 42.671875 17.703125 53.65625 
Q 14.5 64.65625 8.015625 75.875 
z
" id="DejaVuSans-41"/>
    </defs>
    <g transform="translate(361.8625 36.276562)scale(0.1 -0.1)">
     <use xlink:href="#DejaVuSans-65"/>
     <use x="68.408203" xlink:href="#DejaVuSans-85"/>
     <use x="141.601562" xlink:href="#DejaVuSans-83"/>
     <use x="205.078125" xlink:href="#DejaVuSans-32"/>
     <use x="236.865234" xlink:href="#DejaVuSans-40"/>
     <use x="275.878906" xlink:href="#DejaVuSans-52"/>
     <use x="339.501953" xlink:href="#DejaVuSans-48"/>
     <use x="403.125" xlink:href="#DejaVuSans-41"/>
    </g>
   </g>
   <g id="line2d_52">
    <path d="M 333.8625 47.454688 
L 353.8625 47.454688 
" style="fill:none;stroke:#d95f02;stroke-linecap:square;stroke-width:1.5;"/>
   </g>
   <g id="line2d_53"/>
   <g id="text_21">
    <!-- COML (40) -->
    <defs>
     <path d="M 64.40625 67.28125 
L 64.40625 56.890625 
Q 59.421875 61.53125 53.78125 63.8125 
Q 48.140625 66.109375 41.796875 66.109375 
Q 29.296875 66.109375 22.65625 58.46875 
Q 16.015625 50.828125 16.015625 36.375 
Q 16.015625 21.96875 22.65625 14.328125 
Q 29.296875 6.6875 41.796875 6.6875 
Q 48.140625 6.6875 53.78125 8.984375 
Q 59.421875 11.28125 64.40625 15.921875 
L 64.40625 5.609375 
Q 59.234375 2.09375 53.4375 0.328125 
Q 47.65625 -1.421875 41.21875 -1.421875 
Q 24.65625 -1.421875 15.125 8.703125 
Q 5.609375 18.84375 5.609375 36.375 
Q 5.609375 53.953125 15.125 64.078125 
Q 24.65625 74.21875 41.21875 74.21875 
Q 47.75 74.21875 53.53125 72.484375 
Q 59.328125 70.75 64.40625 67.28125 
z
" id="DejaVuSans-67"/>
     <path d="M 39.40625 66.21875 
Q 28.65625 66.21875 22.328125 58.203125 
Q 16.015625 50.203125 16.015625 36.375 
Q 16.015625 22.609375 22.328125 14.59375 
Q 28.65625 6.59375 39.40625 6.59375 
Q 50.140625 6.59375 56.421875 14.59375 
Q 62.703125 22.609375 62.703125 36.375 
Q 62.703125 50.203125 56.421875 58.203125 
Q 50.140625 66.21875 39.40625 66.21875 
z
M 39.40625 74.21875 
Q 54.734375 74.21875 63.90625 63.9375 
Q 73.09375 53.65625 73.09375 36.375 
Q 73.09375 19.140625 63.90625 8.859375 
Q 54.734375 -1.421875 39.40625 -1.421875 
Q 24.03125 -1.421875 14.8125 8.828125 
Q 5.609375 19.09375 5.609375 36.375 
Q 5.609375 53.65625 14.8125 63.9375 
Q 24.03125 74.21875 39.40625 74.21875 
z
" id="DejaVuSans-79"/>
     <path d="M 9.8125 72.90625 
L 24.515625 72.90625 
L 43.109375 23.296875 
L 61.8125 72.90625 
L 76.515625 72.90625 
L 76.515625 0 
L 66.890625 0 
L 66.890625 64.015625 
L 48.09375 14.015625 
L 38.1875 14.015625 
L 19.390625 64.015625 
L 19.390625 0 
L 9.8125 0 
z
" id="DejaVuSans-77"/>
     <path d="M 9.8125 72.90625 
L 19.671875 72.90625 
L 19.671875 8.296875 
L 55.171875 8.296875 
L 55.171875 0 
L 9.8125 0 
z
" id="DejaVuSans-76"/>
    </defs>
    <g transform="translate(361.8625 50.954688)scale(0.1 -0.1)">
     <use xlink:href="#DejaVuSans-67"/>
     <use x="69.824219" xlink:href="#DejaVuSans-79"/>
     <use x="148.535156" xlink:href="#DejaVuSans-77"/>
     <use x="234.814453" xlink:href="#DejaVuSans-76"/>
     <use x="290.527344" xlink:href="#DejaVuSans-32"/>
     <use x="322.314453" xlink:href="#DejaVuSans-40"/>
     <use x="361.328125" xlink:href="#DejaVuSans-52"/>
     <use x="424.951172" xlink:href="#DejaVuSans-48"/>
     <use x="488.574219" xlink:href="#DejaVuSans-41"/>
    </g>
   </g>
   <g id="line2d_54">
    <path d="M 333.8625 62.132812 
L 353.8625 62.132812 
" style="fill:none;stroke:#7570b3;stroke-linecap:square;stroke-width:1.5;"/>
   </g>
   <g id="line2d_55"/>
   <g id="text_22">
    <!-- GDD (40) -->
    <defs>
     <path d="M 59.515625 10.40625 
L 59.515625 29.984375 
L 43.40625 29.984375 
L 43.40625 38.09375 
L 69.28125 38.09375 
L 69.28125 6.78125 
Q 63.578125 2.734375 56.6875 0.65625 
Q 49.8125 -1.421875 42 -1.421875 
Q 24.90625 -1.421875 15.25 8.5625 
Q 5.609375 18.5625 5.609375 36.375 
Q 5.609375 54.25 15.25 64.234375 
Q 24.90625 74.21875 42 74.21875 
Q 49.125 74.21875 55.546875 72.453125 
Q 61.96875 70.703125 67.390625 67.28125 
L 67.390625 56.78125 
Q 61.921875 61.421875 55.765625 63.765625 
Q 49.609375 66.109375 42.828125 66.109375 
Q 29.4375 66.109375 22.71875 58.640625 
Q 16.015625 51.171875 16.015625 36.375 
Q 16.015625 21.625 22.71875 14.15625 
Q 29.4375 6.6875 42.828125 6.6875 
Q 48.046875 6.6875 52.140625 7.59375 
Q 56.25 8.5 59.515625 10.40625 
z
" id="DejaVuSans-71"/>
    </defs>
    <g transform="translate(361.8625 65.632812)scale(0.1 -0.1)">
     <use xlink:href="#DejaVuSans-71"/>
     <use x="77.490234" xlink:href="#DejaVuSans-68"/>
     <use x="154.492188" xlink:href="#DejaVuSans-68"/>
     <use x="231.494141" xlink:href="#DejaVuSans-32"/>
     <use x="263.28125" xlink:href="#DejaVuSans-40"/>
     <use x="302.294922" xlink:href="#DejaVuSans-52"/>
     <use x="365.917969" xlink:href="#DejaVuSans-48"/>
     <use x="429.541016" xlink:href="#DejaVuSans-41"/>
    </g>
   </g>
   <g id="line2d_56">
    <path d="M 333.8625 76.810937 
L 353.8625 76.810937 
" style="fill:none;stroke:#e7298a;stroke-linecap:square;stroke-width:1.5;"/>
   </g>
   <g id="line2d_57"/>
   <g id="text_23">
    <!-- AS (38) -->
    <defs>
     <path d="M 31.78125 34.625 
Q 24.75 34.625 20.71875 30.859375 
Q 16.703125 27.09375 16.703125 20.515625 
Q 16.703125 13.921875 20.71875 10.15625 
Q 24.75 6.390625 31.78125 6.390625 
Q 38.8125 6.390625 42.859375 10.171875 
Q 46.921875 13.96875 46.921875 20.515625 
Q 46.921875 27.09375 42.890625 30.859375 
Q 38.875 34.625 31.78125 34.625 
z
M 21.921875 38.8125 
Q 15.578125 40.375 12.03125 44.71875 
Q 8.5 49.078125 8.5 55.328125 
Q 8.5 64.0625 14.71875 69.140625 
Q 20.953125 74.21875 31.78125 74.21875 
Q 42.671875 74.21875 48.875 69.140625 
Q 55.078125 64.0625 55.078125 55.328125 
Q 55.078125 49.078125 51.53125 44.71875 
Q 48 40.375 41.703125 38.8125 
Q 48.828125 37.15625 52.796875 32.3125 
Q 56.78125 27.484375 56.78125 20.515625 
Q 56.78125 9.90625 50.3125 4.234375 
Q 43.84375 -1.421875 31.78125 -1.421875 
Q 19.734375 -1.421875 13.25 4.234375 
Q 6.78125 9.90625 6.78125 20.515625 
Q 6.78125 27.484375 10.78125 32.3125 
Q 14.796875 37.15625 21.921875 38.8125 
z
M 18.3125 54.390625 
Q 18.3125 48.734375 21.84375 45.5625 
Q 25.390625 42.390625 31.78125 42.390625 
Q 38.140625 42.390625 41.71875 45.5625 
Q 45.3125 48.734375 45.3125 54.390625 
Q 45.3125 60.0625 41.71875 63.234375 
Q 38.140625 66.40625 31.78125 66.40625 
Q 25.390625 66.40625 21.84375 63.234375 
Q 18.3125 60.0625 18.3125 54.390625 
z
" id="DejaVuSans-56"/>
    </defs>
    <g transform="translate(361.8625 80.310937)scale(0.1 -0.1)">
     <use xlink:href="#DejaVuSans-65"/>
     <use x="68.408203" xlink:href="#DejaVuSans-83"/>
     <use x="131.884766" xlink:href="#DejaVuSans-32"/>
     <use x="163.671875" xlink:href="#DejaVuSans-40"/>
     <use x="202.685547" xlink:href="#DejaVuSans-51"/>
     <use x="266.308594" xlink:href="#DejaVuSans-56"/>
     <use x="329.931641" xlink:href="#DejaVuSans-41"/>
    </g>
   </g>
   <g id="line2d_58">
    <path d="M 333.8625 91.489062 
L 353.8625 91.489062 
" style="fill:none;stroke:#66a61e;stroke-linecap:square;stroke-width:1.5;"/>
   </g>
   <g id="line2d_59"/>
   <g id="text_24">
    <!-- MD (38) -->
    <g transform="translate(361.8625 94.989062)scale(0.1 -0.1)">
     <use xlink:href="#DejaVuSans-77"/>
     <use x="86.279297" xlink:href="#DejaVuSans-68"/>
     <use x="163.28125" xlink:href="#DejaVuSans-32"/>
     <use x="195.068359" xlink:href="#DejaVuSans-40"/>
     <use x="234.082031" xlink:href="#DejaVuSans-51"/>
     <use x="297.705078" xlink:href="#DejaVuSans-56"/>
     <use x="361.328125" xlink:href="#DejaVuSans-41"/>
    </g>
   </g>
   <g id="line2d_60">
    <path d="M 333.8625 106.167188 
L 353.8625 106.167188 
" style="fill:none;stroke:#e6ab02;stroke-linecap:square;stroke-width:1.5;"/>
   </g>
   <g id="line2d_61"/>
   <g id="text_25">
    <!-- HPI (38) -->
    <defs>
     <path d="M 9.8125 72.90625 
L 19.671875 72.90625 
L 19.671875 43.015625 
L 55.515625 43.015625 
L 55.515625 72.90625 
L 65.375 72.90625 
L 65.375 0 
L 55.515625 0 
L 55.515625 34.71875 
L 19.671875 34.71875 
L 19.671875 0 
L 9.8125 0 
z
" id="DejaVuSans-72"/>
     <path d="M 19.671875 64.796875 
L 19.671875 37.40625 
L 32.078125 37.40625 
Q 38.96875 37.40625 42.71875 40.96875 
Q 46.484375 44.53125 46.484375 51.125 
Q 46.484375 57.671875 42.71875 61.234375 
Q 38.96875 64.796875 32.078125 64.796875 
z
M 9.8125 72.90625 
L 32.078125 72.90625 
Q 44.34375 72.90625 50.609375 67.359375 
Q 56.890625 61.8125 56.890625 51.125 
Q 56.890625 40.328125 50.609375 34.8125 
Q 44.34375 29.296875 32.078125 29.296875 
L 19.671875 29.296875 
L 19.671875 0 
L 9.8125 0 
z
" id="DejaVuSans-80"/>
     <path d="M 9.8125 72.90625 
L 19.671875 72.90625 
L 19.671875 0 
L 9.8125 0 
z
" id="DejaVuSans-73"/>
    </defs>
    <g transform="translate(361.8625 109.667188)scale(0.1 -0.1)">
     <use xlink:href="#DejaVuSans-72"/>
     <use x="75.195312" xlink:href="#DejaVuSans-80"/>
     <use x="135.498047" xlink:href="#DejaVuSans-73"/>
     <use x="164.990234" xlink:href="#DejaVuSans-32"/>
     <use x="196.777344" xlink:href="#DejaVuSans-40"/>
     <use x="235.791016" xlink:href="#DejaVuSans-51"/>
     <use x="299.414062" xlink:href="#DejaVuSans-56"/>
     <use x="363.037109" xlink:href="#DejaVuSans-41"/>
    </g>
   </g>
   <g id="line2d_62">
    <path d="M 333.8625 120.845312 
L 353.8625 120.845312 
" style="fill:none;stroke:#a6761d;stroke-linecap:square;stroke-width:1.5;"/>
   </g>
   <g id="line2d_63"/>
   <g id="text_26">
    <!-- SA (37) -->
    <g transform="translate(361.8625 124.345312)scale(0.1 -0.1)">
     <use xlink:href="#DejaVuSans-83"/>
     <use x="63.492188" xlink:href="#DejaVuSans-65"/>
     <use x="131.900391" xlink:href="#DejaVuSans-32"/>
     <use x="163.6875" xlink:href="#DejaVuSans-40"/>
     <use x="202.701172" xlink:href="#DejaVuSans-51"/>
     <use x="266.324219" xlink:href="#DejaVuSans-55"/>
     <use x="329.947266" xlink:href="#DejaVuSans-41"/>
    </g>
   </g>
   <g id="line2d_64">
    <path d="M 333.8625 135.523438 
L 353.8625 135.523438 
" style="fill:none;stroke:#666666;stroke-linecap:square;stroke-width:1.5;"/>
   </g>
   <g id="line2d_65"/>
   <g id="text_27">
    <!-- FIT (30) -->
    <defs>
     <path d="M 9.8125 72.90625 
L 51.703125 72.90625 
L 51.703125 64.59375 
L 19.671875 64.59375 
L 19.671875 43.109375 
L 48.578125 43.109375 
L 48.578125 34.8125 
L 19.671875 34.8125 
L 19.671875 0 
L 9.8125 0 
z
" id="DejaVuSans-70"/>
     <path d="M -0.296875 72.90625 
L 61.375 72.90625 
L 61.375 64.59375 
L 35.5 64.59375 
L 35.5 0 
L 25.59375 0 
L 25.59375 64.59375 
L -0.296875 64.59375 
z
" id="DejaVuSans-84"/>
    </defs>
    <g transform="translate(361.8625 139.023438)scale(0.1 -0.1)">
     <use xlink:href="#DejaVuSans-70"/>
     <use x="57.519531" xlink:href="#DejaVuSans-73"/>
     <use x="87.011719" xlink:href="#DejaVuSans-84"/>
     <use x="148.095703" xlink:href="#DejaVuSans-32"/>
     <use x="179.882812" xlink:href="#DejaVuSans-40"/>
     <use x="218.896484" xlink:href="#DejaVuSans-51"/>
     <use x="282.519531" xlink:href="#DejaVuSans-48"/>
     <use x="346.142578" xlink:href="#DejaVuSans-41"/>
    </g>
   </g>
   <g id="line2d_66">
    <path d="M 333.8625 150.201562 
L 353.8625 150.201562 
" style="fill:none;stroke:#1b9e77;stroke-dasharray:4.5,1.5;stroke-dashoffset:0;stroke-width:1.5;"/>
   </g>
   <g id="line2d_67"/>
   <g id="text_28">
    <!-- TBI (26) -->
    <defs>
     <path d="M 19.671875 34.8125 
L 19.671875 8.109375 
L 35.5 8.109375 
Q 43.453125 8.109375 47.28125 11.40625 
Q 51.125 14.703125 51.125 21.484375 
Q 51.125 28.328125 47.28125 31.5625 
Q 43.453125 34.8125 35.5 34.8125 
z
M 19.671875 64.796875 
L 19.671875 42.828125 
L 34.28125 42.828125 
Q 41.5 42.828125 45.03125 45.53125 
Q 48.578125 48.25 48.578125 53.8125 
Q 48.578125 59.328125 45.03125 62.0625 
Q 41.5 64.796875 34.28125 64.796875 
z
M 9.8125 72.90625 
L 35.015625 72.90625 
Q 46.296875 72.90625 52.390625 68.21875 
Q 58.5 63.53125 58.5 54.890625 
Q 58.5 48.1875 55.375 44.234375 
Q 52.25 40.28125 46.1875 39.3125 
Q 53.46875 37.75 57.5 32.78125 
Q 61.53125 27.828125 61.53125 20.40625 
Q 61.53125 10.640625 54.890625 5.3125 
Q 48.25 0 35.984375 0 
L 9.8125 0 
z
" id="DejaVuSans-66"/>
    </defs>
    <g transform="translate(361.8625 153.701562)scale(0.1 -0.1)">
     <use xlink:href="#DejaVuSans-84"/>
     <use x="61.083984" xlink:href="#DejaVuSans-66"/>
     <use x="129.6875" xlink:href="#DejaVuSans-73"/>
     <use x="159.179688" xlink:href="#DejaVuSans-32"/>
     <use x="190.966797" xlink:href="#DejaVuSans-40"/>
     <use x="229.980469" xlink:href="#DejaVuSans-50"/>
     <use x="293.603516" xlink:href="#DejaVuSans-54"/>
     <use x="357.226562" xlink:href="#DejaVuSans-41"/>
    </g>
   </g>
   <g id="line2d_68">
    <path d="M 333.8625 164.879687 
L 353.8625 164.879687 
" style="fill:none;stroke:#d95f02;stroke-dasharray:4.5,1.5;stroke-dashoffset:0;stroke-width:1.5;"/>
   </g>
   <g id="line2d_69"/>
   <g id="text_29">
    <!-- BP (26) -->
    <g transform="translate(361.8625 168.379687)scale(0.1 -0.1)">
     <use xlink:href="#DejaVuSans-66"/>
     <use x="68.603516" xlink:href="#DejaVuSans-80"/>
     <use x="128.90625" xlink:href="#DejaVuSans-32"/>
     <use x="160.693359" xlink:href="#DejaVuSans-40"/>
     <use x="199.707031" xlink:href="#DejaVuSans-50"/>
     <use x="263.330078" xlink:href="#DejaVuSans-54"/>
     <use x="326.953125" xlink:href="#DejaVuSans-41"/>
    </g>
   </g>
   <g id="line2d_70">
    <path d="M 333.8625 179.557812 
L 353.8625 179.557812 
" style="fill:none;stroke:#7570b3;stroke-dasharray:4.5,1.5;stroke-dashoffset:0;stroke-width:1.5;"/>
   </g>
   <g id="line2d_71"/>
   <g id="text_30">
    <!-- CC (25) -->
    <g transform="translate(361.8625 183.057812)scale(0.1 -0.1)">
     <use xlink:href="#DejaVuSans-67"/>
     <use x="69.824219" xlink:href="#DejaVuSans-67"/>
     <use x="139.648438" xlink:href="#DejaVuSans-32"/>
     <use x="171.435547" xlink:href="#DejaVuSans-40"/>
     <use x="210.449219" xlink:href="#DejaVuSans-50"/>
     <use x="274.072266" xlink:href="#DejaVuSans-53"/>
     <use x="337.695312" xlink:href="#DejaVuSans-41"/>
    </g>
   </g>
   <g id="line2d_72">
    <path d="M 333.8625 194.235937 
L 353.8625 194.235937 
" style="fill:none;stroke:#e7298a;stroke-dasharray:4.5,1.5;stroke-dashoffset:0;stroke-width:1.5;"/>
   </g>
   <g id="line2d_73"/>
   <g id="text_31">
    <!-- SPD (24) -->
    <g transform="translate(361.8625 197.735937)scale(0.1 -0.1)">
     <use xlink:href="#DejaVuSans-83"/>
     <use x="63.476562" xlink:href="#DejaVuSans-80"/>
     <use x="123.779297" xlink:href="#DejaVuSans-68"/>
     <use x="200.78125" xlink:href="#DejaVuSans-32"/>
     <use x="232.568359" xlink:href="#DejaVuSans-40"/>
     <use x="271.582031" xlink:href="#DejaVuSans-50"/>
     <use x="335.205078" xlink:href="#DejaVuSans-52"/>
     <use x="398.828125" xlink:href="#DejaVuSans-41"/>
    </g>
   </g>
   <g id="line2d_74">
    <path d="M 333.8625 208.914062 
L 353.8625 208.914062 
" style="fill:none;stroke:#66a61e;stroke-dasharray:4.5,1.5;stroke-dashoffset:0;stroke-width:1.5;"/>
   </g>
   <g id="line2d_75"/>
   <g id="text_32">
    <!-- RJPH (20) -->
    <defs>
     <path d="M 9.8125 72.90625 
L 19.671875 72.90625 
L 19.671875 5.078125 
Q 19.671875 -8.109375 14.671875 -14.0625 
Q 9.671875 -20.015625 -1.421875 -20.015625 
L -5.171875 -20.015625 
L -5.171875 -11.71875 
L -2.09375 -11.71875 
Q 4.4375 -11.71875 7.125 -8.046875 
Q 9.8125 -4.390625 9.8125 5.078125 
z
" id="DejaVuSans-74"/>
    </defs>
    <g transform="translate(361.8625 212.414062)scale(0.1 -0.1)">
     <use xlink:href="#DejaVuSans-82"/>
     <use x="69.482422" xlink:href="#DejaVuSans-74"/>
     <use x="98.974609" xlink:href="#DejaVuSans-80"/>
     <use x="159.277344" xlink:href="#DejaVuSans-72"/>
     <use x="234.472656" xlink:href="#DejaVuSans-32"/>
     <use x="266.259766" xlink:href="#DejaVuSans-40"/>
     <use x="305.273438" xlink:href="#DejaVuSans-50"/>
     <use x="368.896484" xlink:href="#DejaVuSans-48"/>
     <use x="432.519531" xlink:href="#DejaVuSans-41"/>
    </g>
   </g>
   <g id="line2d_76">
    <path d="M 333.8625 223.592187 
L 353.8625 223.592187 
" style="fill:none;stroke:#e6ab02;stroke-dasharray:4.5,1.5;stroke-dashoffset:0;stroke-width:1.5;"/>
   </g>
   <g id="line2d_77"/>
   <g id="text_33">
    <!-- AHR-H (20) -->
    <g transform="translate(361.8625 227.092187)scale(0.1 -0.1)">
     <use xlink:href="#DejaVuSans-65"/>
     <use x="68.408203" xlink:href="#DejaVuSans-72"/>
     <use x="143.603516" xlink:href="#DejaVuSans-82"/>
     <use x="213.023438" xlink:href="#DejaVuSans-45"/>
     <use x="249.107422" xlink:href="#DejaVuSans-72"/>
     <use x="324.302734" xlink:href="#DejaVuSans-32"/>
     <use x="356.089844" xlink:href="#DejaVuSans-40"/>
     <use x="395.103516" xlink:href="#DejaVuSans-50"/>
     <use x="458.726562" xlink:href="#DejaVuSans-48"/>
     <use x="522.349609" xlink:href="#DejaVuSans-41"/>
    </g>
   </g>
   <g id="line2d_78">
    <path d="M 333.8625 238.270312 
L 353.8625 238.270312 
" style="fill:none;stroke:#a6761d;stroke-dasharray:4.5,1.5;stroke-dashoffset:0;stroke-width:1.5;"/>
   </g>
   <g id="line2d_79"/>
   <g id="text_34">
    <!-- CB (19) -->
    <g transform="translate(361.8625 241.770312)scale(0.1 -0.1)">
     <use xlink:href="#DejaVuSans-67"/>
     <use x="69.824219" xlink:href="#DejaVuSans-66"/>
     <use x="138.427734" xlink:href="#DejaVuSans-32"/>
     <use x="170.214844" xlink:href="#DejaVuSans-40"/>
     <use x="209.228516" xlink:href="#DejaVuSans-49"/>
     <use x="272.851562" xlink:href="#DejaVuSans-57"/>
     <use x="336.474609" xlink:href="#DejaVuSans-41"/>
    </g>
   </g>
   <g id="line2d_80">
    <path d="M 333.8625 252.948437 
L 353.8625 252.948437 
" style="fill:none;stroke:#666666;stroke-dasharray:4.5,1.5;stroke-dashoffset:0;stroke-width:1.5;"/>
   </g>
   <g id="line2d_81"/>
   <g id="text_35">
    <!-- AHR-A (15) -->
    <g transform="translate(361.8625 256.448437)scale(0.1 -0.1)">
     <use xlink:href="#DejaVuSans-65"/>
     <use x="68.408203" xlink:href="#DejaVuSans-72"/>
     <use x="143.603516" xlink:href="#DejaVuSans-82"/>
     <use x="213.023438" xlink:href="#DejaVuSans-45"/>
     <use x="249.076172" xlink:href="#DejaVuSans-65"/>
     <use x="317.484375" xlink:href="#DejaVuSans-32"/>
     <use x="349.271484" xlink:href="#DejaVuSans-40"/>
     <use x="388.285156" xlink:href="#DejaVuSans-49"/>
     <use x="451.908203" xlink:href="#DejaVuSans-53"/>
     <use x="515.53125" xlink:href="#DejaVuSans-41"/>
    </g>
   </g>
  </g>
 </g>
 <defs>
  <clipPath id="p8b23e9d9f7">
   <rect height="207.330771" width="271.81" x="43.55" y="12.9"/>
  </clipPath>
 </defs>
</svg>
