<?xml version="1.0" encoding="utf-8" standalone="no"?>
<!DOCTYPE svg PUBLIC "-//W3C//DTD SVG 1.1//EN"
  "http://www.w3.org/Graphics/SVG/1.1/DTD/svg11.dtd">
<!-- Created with matplotlib (https://matplotlib.org/) -->
<svg height="288pt" version="1.1" viewBox="0 0 432 288" width="432pt" xmlns="http://www.w3.org/2000/svg" xmlns:xlink="http://www.w3.org/1999/xlink">
 <defs>
  <style type="text/css">
*{stroke-linecap:butt;stroke-linejoin:round;}
  </style>
 </defs>
 <g id="figure_1">
  <g id="patch_1">
   <path d="M 0 288 
L 432 288 
L 432 0 
L 0 0 
z
" style="fill:#ffffff;"/>
  </g>
  <g id="axes_1">
   <g id="patch_2">
    <path d="M 43.55 220.230771 
L 315.36 220.230771 
L 315.36 12.9 
L 43.55 12.9 
z
" style="fill:#ffffff;"/>
   </g>
   <g id="matplotlib.axis_1">
    <g id="xtick_1">
     <g id="line2d_1">
      <defs>
       <path d="M 0 0 
L 0 3.5 
" id="md155babab7" style="stroke:#000000;stroke-width:0.8;"/>
      </defs>
      <g>
       <use style="stroke:#000000;stroke-width:0.8;" x="50.518671" xlink:href="#md155babab7" y="220.230771"/>
      </g>
     </g>
     <g id="text_1">
      <!-- 2020-11-29 -->
      <defs>
       <path d="M 19.1875 8.296875 
L 53.609375 8.296875 
L 53.609375 0 
L 7.328125 0 
L 7.328125 8.296875 
Q 12.9375 14.109375 22.625 23.890625 
Q 32.328125 33.6875 34.8125 36.53125 
Q 39.546875 41.84375 41.421875 45.53125 
Q 43.3125 49.21875 43.3125 52.78125 
Q 43.3125 58.59375 39.234375 62.25 
Q 35.15625 65.921875 28.609375 65.921875 
Q 23.96875 65.921875 18.8125 64.3125 
Q 13.671875 62.703125 7.8125 59.421875 
L 7.8125 69.390625 
Q 13.765625 71.78125 18.9375 73 
Q 24.125 74.21875 28.421875 74.21875 
Q 39.75 74.21875 46.484375 68.546875 
Q 53.21875 62.890625 53.21875 53.421875 
Q 53.21875 48.921875 51.53125 44.890625 
Q 49.859375 40.875 45.40625 35.40625 
Q 44.1875 33.984375 37.640625 27.21875 
Q 31.109375 20.453125 19.1875 8.296875 
z
" id="DejaVuSans-50"/>
       <path d="M 31.78125 66.40625 
Q 24.171875 66.40625 20.328125 58.90625 
Q 16.5 51.421875 16.5 36.375 
Q 16.5 21.390625 20.328125 13.890625 
Q 24.171875 6.390625 31.78125 6.390625 
Q 39.453125 6.390625 43.28125 13.890625 
Q 47.125 21.390625 47.125 36.375 
Q 47.125 51.421875 43.28125 58.90625 
Q 39.453125 66.40625 31.78125 66.40625 
z
M 31.78125 74.21875 
Q 44.046875 74.21875 50.515625 64.515625 
Q 56.984375 54.828125 56.984375 36.375 
Q 56.984375 17.96875 50.515625 8.265625 
Q 44.046875 -1.421875 31.78125 -1.421875 
Q 19.53125 -1.421875 13.0625 8.265625 
Q 6.59375 17.96875 6.59375 36.375 
Q 6.59375 54.828125 13.0625 64.515625 
Q 19.53125 74.21875 31.78125 74.21875 
z
" id="DejaVuSans-48"/>
       <path d="M 4.890625 31.390625 
L 31.203125 31.390625 
L 31.203125 23.390625 
L 4.890625 23.390625 
z
" id="DejaVuSans-45"/>
       <path d="M 12.40625 8.296875 
L 28.515625 8.296875 
L 28.515625 63.921875 
L 10.984375 60.40625 
L 10.984375 69.390625 
L 28.421875 72.90625 
L 38.28125 72.90625 
L 38.28125 8.296875 
L 54.390625 8.296875 
L 54.390625 0 
L 12.40625 0 
z
" id="DejaVuSans-49"/>
       <path d="M 10.984375 1.515625 
L 10.984375 10.5 
Q 14.703125 8.734375 18.5 7.8125 
Q 22.3125 6.890625 25.984375 6.890625 
Q 35.75 6.890625 40.890625 13.453125 
Q 46.046875 20.015625 46.78125 33.40625 
Q 43.953125 29.203125 39.59375 26.953125 
Q 35.25 24.703125 29.984375 24.703125 
Q 19.046875 24.703125 12.671875 31.3125 
Q 6.296875 37.9375 6.296875 49.421875 
Q 6.296875 60.640625 12.9375 67.421875 
Q 19.578125 74.21875 30.609375 74.21875 
Q 43.265625 74.21875 49.921875 64.515625 
Q 56.59375 54.828125 56.59375 36.375 
Q 56.59375 19.140625 48.40625 8.859375 
Q 40.234375 -1.421875 26.421875 -1.421875 
Q 22.703125 -1.421875 18.890625 -0.6875 
Q 15.09375 0.046875 10.984375 1.515625 
z
M 30.609375 32.421875 
Q 37.25 32.421875 41.125 36.953125 
Q 45.015625 41.5 45.015625 49.421875 
Q 45.015625 57.28125 41.125 61.84375 
Q 37.25 66.40625 30.609375 66.40625 
Q 23.96875 66.40625 20.09375 61.84375 
Q 16.21875 57.28125 16.21875 49.421875 
Q 16.21875 41.5 20.09375 36.953125 
Q 23.96875 32.421875 30.609375 32.421875 
z
" id="DejaVuSans-57"/>
      </defs>
      <g transform="translate(26.733555 262.869024)rotate(-30)scale(0.1 -0.1)">
       <use xlink:href="#DejaVuSans-50"/>
       <use x="63.623047" xlink:href="#DejaVuSans-48"/>
       <use x="127.246094" xlink:href="#DejaVuSans-50"/>
       <use x="190.869141" xlink:href="#DejaVuSans-48"/>
       <use x="254.492188" xlink:href="#DejaVuSans-45"/>
       <use x="290.576172" xlink:href="#DejaVuSans-49"/>
       <use x="354.199219" xlink:href="#DejaVuSans-49"/>
       <use x="417.822266" xlink:href="#DejaVuSans-45"/>
       <use x="453.90625" xlink:href="#DejaVuSans-50"/>
       <use x="517.529297" xlink:href="#DejaVuSans-57"/>
      </g>
     </g>
    </g>
    <g id="xtick_2">
     <g id="line2d_2">
      <g>
       <use style="stroke:#000000;stroke-width:0.8;" x="57.957265" xlink:href="#md155babab7" y="220.230771"/>
      </g>
     </g>
     <g id="text_2">
      <!-- 2020-12-01 -->
      <g transform="translate(34.172149 262.869024)rotate(-30)scale(0.1 -0.1)">
       <use xlink:href="#DejaVuSans-50"/>
       <use x="63.623047" xlink:href="#DejaVuSans-48"/>
       <use x="127.246094" xlink:href="#DejaVuSans-50"/>
       <use x="190.869141" xlink:href="#DejaVuSans-48"/>
       <use x="254.492188" xlink:href="#DejaVuSans-45"/>
       <use x="290.576172" xlink:href="#DejaVuSans-49"/>
       <use x="354.199219" xlink:href="#DejaVuSans-50"/>
       <use x="417.822266" xlink:href="#DejaVuSans-45"/>
       <use x="453.90625" xlink:href="#DejaVuSans-48"/>
       <use x="517.529297" xlink:href="#DejaVuSans-49"/>
      </g>
     </g>
    </g>
    <g id="xtick_3">
     <g id="line2d_3">
      <g>
       <use style="stroke:#000000;stroke-width:0.8;" x="110.027425" xlink:href="#md155babab7" y="220.230771"/>
      </g>
     </g>
     <g id="text_3">
      <!-- 2020-12-15 -->
      <defs>
       <path d="M 10.796875 72.90625 
L 49.515625 72.90625 
L 49.515625 64.59375 
L 19.828125 64.59375 
L 19.828125 46.734375 
Q 21.96875 47.46875 24.109375 47.828125 
Q 26.265625 48.1875 28.421875 48.1875 
Q 40.625 48.1875 47.75 41.5 
Q 54.890625 34.8125 54.890625 23.390625 
Q 54.890625 11.625 47.5625 5.09375 
Q 40.234375 -1.421875 26.90625 -1.421875 
Q 22.3125 -1.421875 17.546875 -0.640625 
Q 12.796875 0.140625 7.71875 1.703125 
L 7.71875 11.625 
Q 12.109375 9.234375 16.796875 8.0625 
Q 21.484375 6.890625 26.703125 6.890625 
Q 35.15625 6.890625 40.078125 11.328125 
Q 45.015625 15.765625 45.015625 23.390625 
Q 45.015625 31 40.078125 35.4375 
Q 35.15625 39.890625 26.703125 39.890625 
Q 22.75 39.890625 18.8125 39.015625 
Q 14.890625 38.140625 10.796875 36.28125 
z
" id="DejaVuSans-53"/>
      </defs>
      <g transform="translate(86.242309 262.869024)rotate(-30)scale(0.1 -0.1)">
       <use xlink:href="#DejaVuSans-50"/>
       <use x="63.623047" xlink:href="#DejaVuSans-48"/>
       <use x="127.246094" xlink:href="#DejaVuSans-50"/>
       <use x="190.869141" xlink:href="#DejaVuSans-48"/>
       <use x="254.492188" xlink:href="#DejaVuSans-45"/>
       <use x="290.576172" xlink:href="#DejaVuSans-49"/>
       <use x="354.199219" xlink:href="#DejaVuSans-50"/>
       <use x="417.822266" xlink:href="#DejaVuSans-45"/>
       <use x="453.90625" xlink:href="#DejaVuSans-49"/>
       <use x="517.529297" xlink:href="#DejaVuSans-53"/>
      </g>
     </g>
    </g>
    <g id="xtick_4">
     <g id="line2d_4">
      <g>
       <use style="stroke:#000000;stroke-width:0.8;" x="162.097585" xlink:href="#md155babab7" y="220.230771"/>
      </g>
     </g>
     <g id="text_4">
      <!-- 2020-12-29 -->
      <g transform="translate(138.312469 262.869024)rotate(-30)scale(0.1 -0.1)">
       <use xlink:href="#DejaVuSans-50"/>
       <use x="63.623047" xlink:href="#DejaVuSans-48"/>
       <use x="127.246094" xlink:href="#DejaVuSans-50"/>
       <use x="190.869141" xlink:href="#DejaVuSans-48"/>
       <use x="254.492188" xlink:href="#DejaVuSans-45"/>
       <use x="290.576172" xlink:href="#DejaVuSans-49"/>
       <use x="354.199219" xlink:href="#DejaVuSans-50"/>
       <use x="417.822266" xlink:href="#DejaVuSans-45"/>
       <use x="453.90625" xlink:href="#DejaVuSans-50"/>
       <use x="517.529297" xlink:href="#DejaVuSans-57"/>
      </g>
     </g>
    </g>
    <g id="xtick_5">
     <g id="line2d_5">
      <g>
       <use style="stroke:#000000;stroke-width:0.8;" x="173.255476" xlink:href="#md155babab7" y="220.230771"/>
      </g>
     </g>
     <g id="text_5">
      <!-- 2021-01-01 -->
      <g transform="translate(149.47036 262.869024)rotate(-30)scale(0.1 -0.1)">
       <use xlink:href="#DejaVuSans-50"/>
       <use x="63.623047" xlink:href="#DejaVuSans-48"/>
       <use x="127.246094" xlink:href="#DejaVuSans-50"/>
       <use x="190.869141" xlink:href="#DejaVuSans-49"/>
       <use x="254.492188" xlink:href="#DejaVuSans-45"/>
       <use x="290.576172" xlink:href="#DejaVuSans-48"/>
       <use x="354.199219" xlink:href="#DejaVuSans-49"/>
       <use x="417.822266" xlink:href="#DejaVuSans-45"/>
       <use x="453.90625" xlink:href="#DejaVuSans-48"/>
       <use x="517.529297" xlink:href="#DejaVuSans-49"/>
      </g>
     </g>
    </g>
    <g id="xtick_6">
     <g id="line2d_6">
      <g>
       <use style="stroke:#000000;stroke-width:0.8;" x="225.325636" xlink:href="#md155babab7" y="220.230771"/>
      </g>
     </g>
     <g id="text_6">
      <!-- 2021-01-15 -->
      <g transform="translate(201.54052 262.869024)rotate(-30)scale(0.1 -0.1)">
       <use xlink:href="#DejaVuSans-50"/>
       <use x="63.623047" xlink:href="#DejaVuSans-48"/>
       <use x="127.246094" xlink:href="#DejaVuSans-50"/>
       <use x="190.869141" xlink:href="#DejaVuSans-49"/>
       <use x="254.492188" xlink:href="#DejaVuSans-45"/>
       <use x="290.576172" xlink:href="#DejaVuSans-48"/>
       <use x="354.199219" xlink:href="#DejaVuSans-49"/>
       <use x="417.822266" xlink:href="#DejaVuSans-45"/>
       <use x="453.90625" xlink:href="#DejaVuSans-49"/>
       <use x="517.529297" xlink:href="#DejaVuSans-53"/>
      </g>
     </g>
    </g>
    <g id="xtick_7">
     <g id="line2d_7">
      <g>
       <use style="stroke:#000000;stroke-width:0.8;" x="277.395796" xlink:href="#md155babab7" y="220.230771"/>
      </g>
     </g>
     <g id="text_7">
      <!-- 2021-01-29 -->
      <g transform="translate(253.610679 262.869024)rotate(-30)scale(0.1 -0.1)">
       <use xlink:href="#DejaVuSans-50"/>
       <use x="63.623047" xlink:href="#DejaVuSans-48"/>
       <use x="127.246094" xlink:href="#DejaVuSans-50"/>
       <use x="190.869141" xlink:href="#DejaVuSans-49"/>
       <use x="254.492188" xlink:href="#DejaVuSans-45"/>
       <use x="290.576172" xlink:href="#DejaVuSans-48"/>
       <use x="354.199219" xlink:href="#DejaVuSans-49"/>
       <use x="417.822266" xlink:href="#DejaVuSans-45"/>
       <use x="453.90625" xlink:href="#DejaVuSans-50"/>
       <use x="517.529297" xlink:href="#DejaVuSans-57"/>
      </g>
     </g>
    </g>
    <g id="xtick_8">
     <g id="line2d_8">
      <g>
       <use style="stroke:#000000;stroke-width:0.8;" x="288.553687" xlink:href="#md155babab7" y="220.230771"/>
      </g>
     </g>
     <g id="text_8">
      <!-- 2021-02-01 -->
      <g transform="translate(264.768571 262.869024)rotate(-30)scale(0.1 -0.1)">
       <use xlink:href="#DejaVuSans-50"/>
       <use x="63.623047" xlink:href="#DejaVuSans-48"/>
       <use x="127.246094" xlink:href="#DejaVuSans-50"/>
       <use x="190.869141" xlink:href="#DejaVuSans-49"/>
       <use x="254.492188" xlink:href="#DejaVuSans-45"/>
       <use x="290.576172" xlink:href="#DejaVuSans-48"/>
       <use x="354.199219" xlink:href="#DejaVuSans-50"/>
       <use x="417.822266" xlink:href="#DejaVuSans-45"/>
       <use x="453.90625" xlink:href="#DejaVuSans-48"/>
       <use x="517.529297" xlink:href="#DejaVuSans-49"/>
      </g>
     </g>
    </g>
    <g id="text_9">
     <!-- Date -->
     <defs>
      <path d="M 19.671875 64.796875 
L 19.671875 8.109375 
L 31.59375 8.109375 
Q 46.6875 8.109375 53.6875 14.9375 
Q 60.6875 21.78125 60.6875 36.53125 
Q 60.6875 51.171875 53.6875 57.984375 
Q 46.6875 64.796875 31.59375 64.796875 
z
M 9.8125 72.90625 
L 30.078125 72.90625 
Q 51.265625 72.90625 61.171875 64.09375 
Q 71.09375 55.28125 71.09375 36.53125 
Q 71.09375 17.671875 61.125 8.828125 
Q 51.171875 0 30.078125 0 
L 9.8125 0 
z
" id="DejaVuSans-68"/>
      <path d="M 34.28125 27.484375 
Q 23.390625 27.484375 19.1875 25 
Q 14.984375 22.515625 14.984375 16.5 
Q 14.984375 11.71875 18.140625 8.90625 
Q 21.296875 6.109375 26.703125 6.109375 
Q 34.1875 6.109375 38.703125 11.40625 
Q 43.21875 16.703125 43.21875 25.484375 
L 43.21875 27.484375 
z
M 52.203125 31.203125 
L 52.203125 0 
L 43.21875 0 
L 43.21875 8.296875 
Q 40.140625 3.328125 35.546875 0.953125 
Q 30.953125 -1.421875 24.3125 -1.421875 
Q 15.921875 -1.421875 10.953125 3.296875 
Q 6 8.015625 6 15.921875 
Q 6 25.140625 12.171875 29.828125 
Q 18.359375 34.515625 30.609375 34.515625 
L 43.21875 34.515625 
L 43.21875 35.40625 
Q 43.21875 41.609375 39.140625 45 
Q 35.0625 48.390625 27.6875 48.390625 
Q 23 48.390625 18.546875 47.265625 
Q 14.109375 46.140625 10.015625 43.890625 
L 10.015625 52.203125 
Q 14.9375 54.109375 19.578125 55.046875 
Q 24.21875 56 28.609375 56 
Q 40.484375 56 46.34375 49.84375 
Q 52.203125 43.703125 52.203125 31.203125 
z
" id="DejaVuSans-97"/>
      <path d="M 18.3125 70.21875 
L 18.3125 54.6875 
L 36.8125 54.6875 
L 36.8125 47.703125 
L 18.3125 47.703125 
L 18.3125 18.015625 
Q 18.3125 11.328125 20.140625 9.421875 
Q 21.96875 7.515625 27.59375 7.515625 
L 36.8125 7.515625 
L 36.8125 0 
L 27.59375 0 
Q 17.1875 0 13.234375 3.875 
Q 9.28125 7.765625 9.28125 18.015625 
L 9.28125 47.703125 
L 2.6875 47.703125 
L 2.6875 54.6875 
L 9.28125 54.6875 
L 9.28125 70.21875 
z
" id="DejaVuSans-116"/>
      <path d="M 56.203125 29.59375 
L 56.203125 25.203125 
L 14.890625 25.203125 
Q 15.484375 15.921875 20.484375 11.0625 
Q 25.484375 6.203125 34.421875 6.203125 
Q 39.59375 6.203125 44.453125 7.46875 
Q 49.3125 8.734375 54.109375 11.28125 
L 54.109375 2.78125 
Q 49.265625 0.734375 44.1875 -0.34375 
Q 39.109375 -1.421875 33.890625 -1.421875 
Q 20.796875 -1.421875 13.15625 6.1875 
Q 5.515625 13.8125 5.515625 26.8125 
Q 5.515625 40.234375 12.765625 48.109375 
Q 20.015625 56 32.328125 56 
Q 43.359375 56 49.78125 48.890625 
Q 56.203125 41.796875 56.203125 29.59375 
z
M 47.21875 32.234375 
Q 47.125 39.59375 43.09375 43.984375 
Q 39.0625 48.390625 32.421875 48.390625 
Q 24.90625 48.390625 20.390625 44.140625 
Q 15.875 39.890625 15.1875 32.171875 
z
" id="DejaVuSans-101"/>
     </defs>
     <g transform="translate(167.504219 276.268523)scale(0.1 -0.1)">
      <use xlink:href="#DejaVuSans-68"/>
      <use x="77.001953" xlink:href="#DejaVuSans-97"/>
      <use x="138.28125" xlink:href="#DejaVuSans-116"/>
      <use x="177.490234" xlink:href="#DejaVuSans-101"/>
     </g>
    </g>
   </g>
   <g id="matplotlib.axis_2">
    <g id="ytick_1">
     <g id="line2d_9">
      <defs>
       <path d="M 0 0 
L -3.5 0 
" id="m0910cbb08b" style="stroke:#000000;stroke-width:0.8;"/>
      </defs>
      <g>
       <use style="stroke:#000000;stroke-width:0.8;" x="43.55" xlink:href="#m0910cbb08b" y="210.806645"/>
      </g>
     </g>
     <g id="text_10">
      <!-- 0 -->
      <g transform="translate(30.1875 214.605864)scale(0.1 -0.1)">
       <use xlink:href="#DejaVuSans-48"/>
      </g>
     </g>
    </g>
    <g id="ytick_2">
     <g id="line2d_10">
      <g>
       <use style="stroke:#000000;stroke-width:0.8;" x="43.55" xlink:href="#m0910cbb08b" y="187.24633"/>
      </g>
     </g>
     <g id="text_11">
      <!-- 5 -->
      <g transform="translate(30.1875 191.045549)scale(0.1 -0.1)">
       <use xlink:href="#DejaVuSans-53"/>
      </g>
     </g>
    </g>
    <g id="ytick_3">
     <g id="line2d_11">
      <g>
       <use style="stroke:#000000;stroke-width:0.8;" x="43.55" xlink:href="#m0910cbb08b" y="163.686016"/>
      </g>
     </g>
     <g id="text_12">
      <!-- 10 -->
      <g transform="translate(23.825 167.485234)scale(0.1 -0.1)">
       <use xlink:href="#DejaVuSans-49"/>
       <use x="63.623047" xlink:href="#DejaVuSans-48"/>
      </g>
     </g>
    </g>
    <g id="ytick_4">
     <g id="line2d_12">
      <g>
       <use style="stroke:#000000;stroke-width:0.8;" x="43.55" xlink:href="#m0910cbb08b" y="140.125701"/>
      </g>
     </g>
     <g id="text_13">
      <!-- 15 -->
      <g transform="translate(23.825 143.924919)scale(0.1 -0.1)">
       <use xlink:href="#DejaVuSans-49"/>
       <use x="63.623047" xlink:href="#DejaVuSans-53"/>
      </g>
     </g>
    </g>
    <g id="ytick_5">
     <g id="line2d_13">
      <g>
       <use style="stroke:#000000;stroke-width:0.8;" x="43.55" xlink:href="#m0910cbb08b" y="116.565386"/>
      </g>
     </g>
     <g id="text_14">
      <!-- 20 -->
      <g transform="translate(23.825 120.364604)scale(0.1 -0.1)">
       <use xlink:href="#DejaVuSans-50"/>
       <use x="63.623047" xlink:href="#DejaVuSans-48"/>
      </g>
     </g>
    </g>
    <g id="ytick_6">
     <g id="line2d_14">
      <g>
       <use style="stroke:#000000;stroke-width:0.8;" x="43.55" xlink:href="#m0910cbb08b" y="93.005071"/>
      </g>
     </g>
     <g id="text_15">
      <!-- 25 -->
      <g transform="translate(23.825 96.80429)scale(0.1 -0.1)">
       <use xlink:href="#DejaVuSans-50"/>
       <use x="63.623047" xlink:href="#DejaVuSans-53"/>
      </g>
     </g>
    </g>
    <g id="ytick_7">
     <g id="line2d_15">
      <g>
       <use style="stroke:#000000;stroke-width:0.8;" x="43.55" xlink:href="#m0910cbb08b" y="69.444756"/>
      </g>
     </g>
     <g id="text_16">
      <!-- 30 -->
      <defs>
       <path d="M 40.578125 39.3125 
Q 47.65625 37.796875 51.625 33 
Q 55.609375 28.21875 55.609375 21.1875 
Q 55.609375 10.40625 48.1875 4.484375 
Q 40.765625 -1.421875 27.09375 -1.421875 
Q 22.515625 -1.421875 17.65625 -0.515625 
Q 12.796875 0.390625 7.625 2.203125 
L 7.625 11.71875 
Q 11.71875 9.328125 16.59375 8.109375 
Q 21.484375 6.890625 26.8125 6.890625 
Q 36.078125 6.890625 40.9375 10.546875 
Q 45.796875 14.203125 45.796875 21.1875 
Q 45.796875 27.640625 41.28125 31.265625 
Q 36.765625 34.90625 28.71875 34.90625 
L 20.21875 34.90625 
L 20.21875 43.015625 
L 29.109375 43.015625 
Q 36.375 43.015625 40.234375 45.921875 
Q 44.09375 48.828125 44.09375 54.296875 
Q 44.09375 59.90625 40.109375 62.90625 
Q 36.140625 65.921875 28.71875 65.921875 
Q 24.65625 65.921875 20.015625 65.03125 
Q 15.375 64.15625 9.8125 62.3125 
L 9.8125 71.09375 
Q 15.4375 72.65625 20.34375 73.4375 
Q 25.25 74.21875 29.59375 74.21875 
Q 40.828125 74.21875 47.359375 69.109375 
Q 53.90625 64.015625 53.90625 55.328125 
Q 53.90625 49.265625 50.4375 45.09375 
Q 46.96875 40.921875 40.578125 39.3125 
z
" id="DejaVuSans-51"/>
      </defs>
      <g transform="translate(23.825 73.243975)scale(0.1 -0.1)">
       <use xlink:href="#DejaVuSans-51"/>
       <use x="63.623047" xlink:href="#DejaVuSans-48"/>
      </g>
     </g>
    </g>
    <g id="ytick_8">
     <g id="line2d_16">
      <g>
       <use style="stroke:#000000;stroke-width:0.8;" x="43.55" xlink:href="#m0910cbb08b" y="45.884441"/>
      </g>
     </g>
     <g id="text_17">
      <!-- 35 -->
      <g transform="translate(23.825 49.68366)scale(0.1 -0.1)">
       <use xlink:href="#DejaVuSans-51"/>
       <use x="63.623047" xlink:href="#DejaVuSans-53"/>
      </g>
     </g>
    </g>
    <g id="ytick_9">
     <g id="line2d_17">
      <g>
       <use style="stroke:#000000;stroke-width:0.8;" x="43.55" xlink:href="#m0910cbb08b" y="22.324126"/>
      </g>
     </g>
     <g id="text_18">
      <!-- 40 -->
      <defs>
       <path d="M 37.796875 64.3125 
L 12.890625 25.390625 
L 37.796875 25.390625 
z
M 35.203125 72.90625 
L 47.609375 72.90625 
L 47.609375 25.390625 
L 58.015625 25.390625 
L 58.015625 17.1875 
L 47.609375 17.1875 
L 47.609375 0 
L 37.796875 0 
L 37.796875 17.1875 
L 4.890625 17.1875 
L 4.890625 26.703125 
z
" id="DejaVuSans-52"/>
      </defs>
      <g transform="translate(23.825 26.123345)scale(0.1 -0.1)">
       <use xlink:href="#DejaVuSans-52"/>
       <use x="63.623047" xlink:href="#DejaVuSans-48"/>
      </g>
     </g>
    </g>
    <g id="text_19">
     <!-- Students Registered -->
     <defs>
      <path d="M 53.515625 70.515625 
L 53.515625 60.890625 
Q 47.90625 63.578125 42.921875 64.890625 
Q 37.9375 66.21875 33.296875 66.21875 
Q 25.25 66.21875 20.875 63.09375 
Q 16.5 59.96875 16.5 54.203125 
Q 16.5 49.359375 19.40625 46.890625 
Q 22.3125 44.4375 30.421875 42.921875 
L 36.375 41.703125 
Q 47.40625 39.59375 52.65625 34.296875 
Q 57.90625 29 57.90625 20.125 
Q 57.90625 9.515625 50.796875 4.046875 
Q 43.703125 -1.421875 29.984375 -1.421875 
Q 24.8125 -1.421875 18.96875 -0.25 
Q 13.140625 0.921875 6.890625 3.21875 
L 6.890625 13.375 
Q 12.890625 10.015625 18.65625 8.296875 
Q 24.421875 6.59375 29.984375 6.59375 
Q 38.421875 6.59375 43.015625 9.90625 
Q 47.609375 13.234375 47.609375 19.390625 
Q 47.609375 24.75 44.3125 27.78125 
Q 41.015625 30.8125 33.5 32.328125 
L 27.484375 33.5 
Q 16.453125 35.6875 11.515625 40.375 
Q 6.59375 45.0625 6.59375 53.421875 
Q 6.59375 63.09375 13.40625 68.65625 
Q 20.21875 74.21875 32.171875 74.21875 
Q 37.3125 74.21875 42.625 73.28125 
Q 47.953125 72.359375 53.515625 70.515625 
z
" id="DejaVuSans-83"/>
      <path d="M 8.5 21.578125 
L 8.5 54.6875 
L 17.484375 54.6875 
L 17.484375 21.921875 
Q 17.484375 14.15625 20.5 10.265625 
Q 23.53125 6.390625 29.59375 6.390625 
Q 36.859375 6.390625 41.078125 11.03125 
Q 45.3125 15.671875 45.3125 23.6875 
L 45.3125 54.6875 
L 54.296875 54.6875 
L 54.296875 0 
L 45.3125 0 
L 45.3125 8.40625 
Q 42.046875 3.421875 37.71875 1 
Q 33.40625 -1.421875 27.6875 -1.421875 
Q 18.265625 -1.421875 13.375 4.4375 
Q 8.5 10.296875 8.5 21.578125 
z
M 31.109375 56 
z
" id="DejaVuSans-117"/>
      <path d="M 45.40625 46.390625 
L 45.40625 75.984375 
L 54.390625 75.984375 
L 54.390625 0 
L 45.40625 0 
L 45.40625 8.203125 
Q 42.578125 3.328125 38.25 0.953125 
Q 33.9375 -1.421875 27.875 -1.421875 
Q 17.96875 -1.421875 11.734375 6.484375 
Q 5.515625 14.40625 5.515625 27.296875 
Q 5.515625 40.1875 11.734375 48.09375 
Q 17.96875 56 27.875 56 
Q 33.9375 56 38.25 53.625 
Q 42.578125 51.265625 45.40625 46.390625 
z
M 14.796875 27.296875 
Q 14.796875 17.390625 18.875 11.75 
Q 22.953125 6.109375 30.078125 6.109375 
Q 37.203125 6.109375 41.296875 11.75 
Q 45.40625 17.390625 45.40625 27.296875 
Q 45.40625 37.203125 41.296875 42.84375 
Q 37.203125 48.484375 30.078125 48.484375 
Q 22.953125 48.484375 18.875 42.84375 
Q 14.796875 37.203125 14.796875 27.296875 
z
" id="DejaVuSans-100"/>
      <path d="M 54.890625 33.015625 
L 54.890625 0 
L 45.90625 0 
L 45.90625 32.71875 
Q 45.90625 40.484375 42.875 44.328125 
Q 39.84375 48.1875 33.796875 48.1875 
Q 26.515625 48.1875 22.3125 43.546875 
Q 18.109375 38.921875 18.109375 30.90625 
L 18.109375 0 
L 9.078125 0 
L 9.078125 54.6875 
L 18.109375 54.6875 
L 18.109375 46.1875 
Q 21.34375 51.125 25.703125 53.5625 
Q 30.078125 56 35.796875 56 
Q 45.21875 56 50.046875 50.171875 
Q 54.890625 44.34375 54.890625 33.015625 
z
" id="DejaVuSans-110"/>
      <path d="M 44.28125 53.078125 
L 44.28125 44.578125 
Q 40.484375 46.53125 36.375 47.5 
Q 32.28125 48.484375 27.875 48.484375 
Q 21.1875 48.484375 17.84375 46.4375 
Q 14.5 44.390625 14.5 40.28125 
Q 14.5 37.15625 16.890625 35.375 
Q 19.28125 33.59375 26.515625 31.984375 
L 29.59375 31.296875 
Q 39.15625 29.25 43.1875 25.515625 
Q 47.21875 21.78125 47.21875 15.09375 
Q 47.21875 7.46875 41.1875 3.015625 
Q 35.15625 -1.421875 24.609375 -1.421875 
Q 20.21875 -1.421875 15.453125 -0.5625 
Q 10.6875 0.296875 5.421875 2 
L 5.421875 11.28125 
Q 10.40625 8.6875 15.234375 7.390625 
Q 20.0625 6.109375 24.8125 6.109375 
Q 31.15625 6.109375 34.5625 8.28125 
Q 37.984375 10.453125 37.984375 14.40625 
Q 37.984375 18.0625 35.515625 20.015625 
Q 33.0625 21.96875 24.703125 23.78125 
L 21.578125 24.515625 
Q 13.234375 26.265625 9.515625 29.90625 
Q 5.8125 33.546875 5.8125 39.890625 
Q 5.8125 47.609375 11.28125 51.796875 
Q 16.75 56 26.8125 56 
Q 31.78125 56 36.171875 55.265625 
Q 40.578125 54.546875 44.28125 53.078125 
z
" id="DejaVuSans-115"/>
      <path id="DejaVuSans-32"/>
      <path d="M 44.390625 34.1875 
Q 47.5625 33.109375 50.5625 29.59375 
Q 53.5625 26.078125 56.59375 19.921875 
L 66.609375 0 
L 56 0 
L 46.6875 18.703125 
Q 43.0625 26.03125 39.671875 28.421875 
Q 36.28125 30.8125 30.421875 30.8125 
L 19.671875 30.8125 
L 19.671875 0 
L 9.8125 0 
L 9.8125 72.90625 
L 32.078125 72.90625 
Q 44.578125 72.90625 50.734375 67.671875 
Q 56.890625 62.453125 56.890625 51.90625 
Q 56.890625 45.015625 53.6875 40.46875 
Q 50.484375 35.9375 44.390625 34.1875 
z
M 19.671875 64.796875 
L 19.671875 38.921875 
L 32.078125 38.921875 
Q 39.203125 38.921875 42.84375 42.21875 
Q 46.484375 45.515625 46.484375 51.90625 
Q 46.484375 58.296875 42.84375 61.546875 
Q 39.203125 64.796875 32.078125 64.796875 
z
" id="DejaVuSans-82"/>
      <path d="M 45.40625 27.984375 
Q 45.40625 37.75 41.375 43.109375 
Q 37.359375 48.484375 30.078125 48.484375 
Q 22.859375 48.484375 18.828125 43.109375 
Q 14.796875 37.75 14.796875 27.984375 
Q 14.796875 18.265625 18.828125 12.890625 
Q 22.859375 7.515625 30.078125 7.515625 
Q 37.359375 7.515625 41.375 12.890625 
Q 45.40625 18.265625 45.40625 27.984375 
z
M 54.390625 6.78125 
Q 54.390625 -7.171875 48.1875 -13.984375 
Q 42 -20.796875 29.203125 -20.796875 
Q 24.46875 -20.796875 20.265625 -20.09375 
Q 16.0625 -19.390625 12.109375 -17.921875 
L 12.109375 -9.1875 
Q 16.0625 -11.328125 19.921875 -12.34375 
Q 23.78125 -13.375 27.78125 -13.375 
Q 36.625 -13.375 41.015625 -8.765625 
Q 45.40625 -4.15625 45.40625 5.171875 
L 45.40625 9.625 
Q 42.625 4.78125 38.28125 2.390625 
Q 33.9375 0 27.875 0 
Q 17.828125 0 11.671875 7.65625 
Q 5.515625 15.328125 5.515625 27.984375 
Q 5.515625 40.671875 11.671875 48.328125 
Q 17.828125 56 27.875 56 
Q 33.9375 56 38.28125 53.609375 
Q 42.625 51.21875 45.40625 46.390625 
L 45.40625 54.6875 
L 54.390625 54.6875 
z
" id="DejaVuSans-103"/>
      <path d="M 9.421875 54.6875 
L 18.40625 54.6875 
L 18.40625 0 
L 9.421875 0 
z
M 9.421875 75.984375 
L 18.40625 75.984375 
L 18.40625 64.59375 
L 9.421875 64.59375 
z
" id="DejaVuSans-105"/>
      <path d="M 41.109375 46.296875 
Q 39.59375 47.171875 37.8125 47.578125 
Q 36.03125 48 33.890625 48 
Q 26.265625 48 22.1875 43.046875 
Q 18.109375 38.09375 18.109375 28.8125 
L 18.109375 0 
L 9.078125 0 
L 9.078125 54.6875 
L 18.109375 54.6875 
L 18.109375 46.1875 
Q 20.953125 51.171875 25.484375 53.578125 
Q 30.03125 56 36.53125 56 
Q 37.453125 56 38.578125 55.875 
Q 39.703125 55.765625 41.0625 55.515625 
z
" id="DejaVuSans-114"/>
     </defs>
     <g transform="translate(17.745313 167.498979)rotate(-90)scale(0.1 -0.1)">
      <use xlink:href="#DejaVuSans-83"/>
      <use x="63.476562" xlink:href="#DejaVuSans-116"/>
      <use x="102.685547" xlink:href="#DejaVuSans-117"/>
      <use x="166.064453" xlink:href="#DejaVuSans-100"/>
      <use x="229.541016" xlink:href="#DejaVuSans-101"/>
      <use x="291.064453" xlink:href="#DejaVuSans-110"/>
      <use x="354.443359" xlink:href="#DejaVuSans-116"/>
      <use x="393.652344" xlink:href="#DejaVuSans-115"/>
      <use x="445.751953" xlink:href="#DejaVuSans-32"/>
      <use x="477.539062" xlink:href="#DejaVuSans-82"/>
      <use x="546.958984" xlink:href="#DejaVuSans-101"/>
      <use x="608.482422" xlink:href="#DejaVuSans-103"/>
      <use x="671.958984" xlink:href="#DejaVuSans-105"/>
      <use x="699.742188" xlink:href="#DejaVuSans-115"/>
      <use x="751.841797" xlink:href="#DejaVuSans-116"/>
      <use x="791.050781" xlink:href="#DejaVuSans-101"/>
      <use x="852.574219" xlink:href="#DejaVuSans-114"/>
      <use x="893.65625" xlink:href="#DejaVuSans-101"/>
      <use x="955.179688" xlink:href="#DejaVuSans-100"/>
     </g>
    </g>
   </g>
   <g id="line2d_18">
    <path clip-path="url(#p4e84fde3be)" d="M 55.905 210.806645 
L 56.06828 210.806645 
L 56.06828 201.382519 
L 56.178006 201.382519 
L 56.795295 201.382519 
L 56.795295 196.670456 
L 56.870169 196.670456 
L 60.359605 196.670456 
L 60.359605 191.958393 
L 60.437088 191.958393 
L 63.304074 191.958393 
L 63.304074 177.822204 
L 63.381557 177.822204 
L 63.459029 177.822204 
L 63.459029 173.110142 
L 63.536527 173.110142 
L 63.613999 173.110142 
L 63.613999 154.26189 
L 63.691493 154.26189 
L 63.768969 154.26189 
L 63.768969 149.549827 
L 63.846452 149.549827 
L 63.923941 149.549827 
L 63.923941 140.125701 
L 64.001416 140.125701 
L 64.078935 140.125701 
L 64.078935 125.989512 
L 64.156417 125.989512 
L 66.868392 125.989512 
L 66.868392 121.277449 
L 66.945874 121.277449 
L 67.023345 121.277449 
L 67.023345 116.565386 
L 67.100828 116.565386 
L 67.488269 116.565386 
L 67.488269 111.853323 
L 67.56576 111.853323 
L 67.798213 111.853323 
L 67.798213 97.717134 
L 67.875687 97.717134 
L 67.95318 97.717134 
L 67.95318 93.005071 
L 68.030683 93.005071 
L 71.052588 93.005071 
L 71.052588 88.293008 
L 71.13009 88.293008 
L 71.207554 88.293008 
L 71.207554 83.580945 
L 71.285062 83.580945 
L 71.517517 83.580945 
L 71.517517 78.868882 
L 71.594995 78.868882 
L 71.98242 78.868882 
L 71.98242 74.156819 
L 72.059897 74.156819 
L 74.616944 74.156819 
L 74.616944 69.444756 
L 74.694401 69.444756 
L 81.900566 69.444756 
L 81.900566 45.884441 
L 81.978013 45.884441 
L 82.055522 45.884441 
L 82.055522 36.460315 
L 82.132983 36.460315 
L 82.210502 36.460315 
L 82.210502 31.748252 
L 82.28797 31.748252 
L 134.43561 31.748252 
L 134.43561 36.460315 
L 134.51311 36.460315 
L 134.590576 36.460315 
L 134.590576 31.748252 
L 134.668062 31.748252 
L 142.958993 31.748252 
L 142.958993 36.460315 
L 143.036505 36.460315 
L 143.113975 36.460315 
L 143.113975 31.748252 
L 143.191456 31.748252 
L 219.669528 31.748252 
L 219.669528 22.324126 
L 219.746984 22.324126 
L 303.005 22.324126 
L 303.005 22.324126 
" style="fill:none;stroke:#1b9e77;stroke-linecap:square;stroke-width:1.5;"/>
   </g>
   <g id="line2d_19">
    <path clip-path="url(#p4e84fde3be)" d="M 55.905 182.534267 
L 56.06828 182.534267 
L 56.06828 177.822204 
L 56.178006 177.822204 
L 56.870169 177.822204 
L 56.870169 173.110142 
L 59.349729 173.110142 
L 59.349729 168.398079 
L 59.584773 168.398079 
L 59.584773 163.686016 
L 59.662267 163.686016 
L 59.739735 163.686016 
L 59.739735 158.973953 
L 59.817234 158.973953 
L 60.204668 158.973953 
L 60.204668 144.837764 
L 60.282169 144.837764 
L 60.359605 144.837764 
L 60.359605 140.125701 
L 60.437088 140.125701 
L 63.459029 140.125701 
L 63.459029 130.701575 
L 63.536527 130.701575 
L 63.613999 130.701575 
L 63.613999 125.989512 
L 63.691493 125.989512 
L 63.768969 125.989512 
L 63.768969 130.701575 
L 63.846452 130.701575 
L 64.078935 130.701575 
L 64.078935 125.989512 
L 64.156417 125.989512 
L 64.233874 125.989512 
L 64.233874 116.565386 
L 64.311355 116.565386 
L 65.008747 116.565386 
L 65.008747 107.14126 
L 65.086241 107.14126 
L 66.713424 107.14126 
L 66.713424 102.429197 
L 66.790901 102.429197 
L 66.868392 102.429197 
L 66.868392 83.580945 
L 66.945874 83.580945 
L 67.023345 83.580945 
L 67.023345 74.156819 
L 67.100828 74.156819 
L 67.333303 74.156819 
L 67.333303 69.444756 
L 67.41079 69.444756 
L 67.488269 69.444756 
L 67.488269 64.732693 
L 67.56576 64.732693 
L 67.643243 64.732693 
L 67.643243 60.02063 
L 67.720738 60.02063 
L 67.798213 60.02063 
L 67.798213 45.884441 
L 67.875687 45.884441 
L 67.95318 45.884441 
L 67.95318 41.172378 
L 68.030683 41.172378 
L 68.108159 41.172378 
L 68.108159 36.460315 
L 68.185631 36.460315 
L 70.74264 36.460315 
L 70.74264 27.036189 
L 70.820138 27.036189 
L 70.897645 27.036189 
L 70.897645 22.324126 
L 70.975122 22.324126 
L 89.184155 22.324126 
L 89.184155 27.036189 
L 89.261672 27.036189 
L 89.339122 27.036189 
L 89.339122 22.324126 
L 89.416639 22.324126 
L 242.915115 22.324126 
L 242.915115 27.036189 
L 242.992606 27.036189 
L 243.070111 27.036189 
L 243.070111 22.324126 
L 243.147587 22.324126 
L 303.005 22.324126 
L 303.005 22.324126 
" style="fill:none;stroke:#d95f02;stroke-linecap:square;stroke-width:1.5;"/>
   </g>
   <g id="line2d_20">
    <path clip-path="url(#p4e84fde3be)" d="M 55.905 201.382519 
L 60.049705 201.382519 
L 60.049705 196.670456 
L 60.127167 196.670456 
L 63.149109 196.670456 
L 63.149109 191.958393 
L 63.226565 191.958393 
L 63.304074 191.958393 
L 63.304074 187.24633 
L 63.381557 187.24633 
L 63.459029 187.24633 
L 63.459029 177.822204 
L 63.536527 177.822204 
L 63.613999 177.822204 
L 63.613999 173.110142 
L 63.691493 173.110142 
L 63.768969 173.110142 
L 63.768969 168.398079 
L 63.846452 168.398079 
L 63.923941 168.398079 
L 63.923941 163.686016 
L 64.001416 163.686016 
L 64.233874 163.686016 
L 64.233874 158.973953 
L 64.311355 158.973953 
L 66.868392 158.973953 
L 66.868392 149.549827 
L 66.945874 149.549827 
L 67.023345 149.549827 
L 67.023345 144.837764 
L 67.100828 144.837764 
L 67.643243 144.837764 
L 67.643243 140.125701 
L 67.720738 140.125701 
L 67.798213 140.125701 
L 67.798213 130.701575 
L 67.875687 130.701575 
L 81.900566 130.701575 
L 81.900566 125.989512 
L 81.978013 125.989512 
L 82.055522 125.989512 
L 82.055522 121.277449 
L 82.132983 121.277449 
L 82.210502 121.277449 
L 82.210502 116.565386 
L 82.28797 116.565386 
L 82.365456 116.565386 
L 82.365456 111.853323 
L 82.442934 111.853323 
L 82.520443 111.853323 
L 82.520443 102.429197 
L 82.59791 102.429197 
L 82.675416 102.429197 
L 82.675416 97.717134 
L 82.75288 97.717134 
L 85.464868 97.717134 
L 85.503613 83.580945 
L 85.542352 83.580945 
L 85.774817 83.580945 
L 85.774817 74.156819 
L 85.852299 74.156819 
L 86.239733 74.156819 
L 86.239733 69.444756 
L 86.31722 69.444756 
L 86.394705 69.444756 
L 86.394705 60.02063 
L 86.472195 60.02063 
L 86.549674 60.02063 
L 86.549674 36.460315 
L 86.627156 36.460315 
L 86.704621 36.460315 
L 86.704621 22.324126 
L 86.782178 22.324126 
L 89.02918 22.324126 
L 89.02918 27.036189 
L 89.106795 27.036189 
L 89.339122 27.036189 
L 89.339122 22.324126 
L 89.416639 22.324126 
L 126.842036 22.324126 
L 126.842036 27.036189 
L 126.919548 27.036189 
L 126.997039 27.036189 
L 126.997039 22.324126 
L 127.074493 22.324126 
L 133.815759 22.324126 
L 133.815759 27.036189 
L 133.893215 27.036189 
L 134.125658 27.036189 
L 134.125658 22.324126 
L 134.203182 22.324126 
L 134.43561 22.324126 
L 134.43561 27.036189 
L 134.51311 27.036189 
L 135.055526 27.036189 
L 135.055526 22.324126 
L 135.132991 22.324126 
L 303.005 22.324126 
L 303.005 22.324126 
" style="fill:none;stroke:#7570b3;stroke-linecap:square;stroke-width:1.5;"/>
   </g>
   <g id="line2d_21">
    <path clip-path="url(#p4e84fde3be)" d="M 55.905 201.382519 
L 60.359605 201.382519 
L 60.359605 196.670456 
L 60.437088 196.670456 
L 63.304074 196.670456 
L 63.304074 191.958393 
L 63.381557 191.958393 
L 63.923941 191.958393 
L 63.923941 187.24633 
L 64.001416 187.24633 
L 67.178307 187.24633 
L 67.178307 177.822204 
L 67.255812 177.822204 
L 67.488269 177.822204 
L 67.488269 173.110142 
L 67.56576 173.110142 
L 67.798213 173.110142 
L 67.798213 168.398079 
L 67.875687 168.398079 
L 67.95318 168.398079 
L 67.95318 163.686016 
L 68.030683 163.686016 
L 71.517517 163.686016 
L 71.517517 158.973953 
L 71.594995 158.973953 
L 75.081841 158.973953 
L 75.081841 154.26189 
L 75.159337 154.26189 
L 81.900566 154.26189 
L 81.900566 144.837764 
L 81.978013 144.837764 
L 82.210502 144.837764 
L 82.210502 140.125701 
L 82.28797 140.125701 
L 82.985353 140.125701 
L 82.985353 135.413638 
L 83.062827 135.413638 
L 85.464868 135.413638 
L 85.464868 130.701575 
L 85.542352 130.701575 
L 86.239733 130.701575 
L 86.239733 125.989512 
L 86.31722 125.989512 
L 86.394705 125.989512 
L 86.394705 121.277449 
L 86.472195 121.277449 
L 86.549674 121.277449 
L 86.588411 107.14126 
L 86.627156 107.14126 
L 89.184155 107.14126 
L 89.184155 102.429197 
L 89.261672 102.429197 
L 89.339122 102.429197 
L 89.339122 93.005071 
L 89.416639 93.005071 
L 89.494091 93.005071 
L 89.494091 88.293008 
L 89.571585 88.293008 
L 89.649078 88.293008 
L 89.687818 74.156819 
L 89.726564 74.156819 
L 89.959013 74.156819 
L 89.959013 60.02063 
L 90.036514 60.02063 
L 90.114004 60.02063 
L 90.114004 50.596504 
L 90.191499 50.596504 
L 90.268952 50.596504 
L 90.268952 31.748252 
L 90.346464 31.748252 
L 90.423944 31.748252 
L 90.423944 27.036189 
L 90.501445 27.036189 
L 91.198803 27.036189 
L 91.198803 22.324126 
L 91.276292 22.324126 
L 133.815759 22.324126 
L 133.815759 27.036189 
L 133.893215 27.036189 
L 133.970728 27.036189 
L 133.970728 22.324126 
L 134.048209 22.324126 
L 134.280652 22.324126 
L 134.280652 27.036189 
L 134.358156 27.036189 
L 134.745547 27.036189 
L 134.745547 31.748252 
L 134.823063 31.748252 
L 135.055526 31.748252 
L 135.055526 36.460315 
L 135.132991 36.460315 
L 139.239706 36.460315 
L 139.239706 41.172378 
L 139.317189 41.172378 
L 148.382995 41.172378 
L 148.382995 36.460315 
L 148.460482 36.460315 
L 165.584721 36.460315 
L 165.584721 41.172378 
L 165.662229 41.172378 
L 171.628595 41.172378 
L 171.628595 36.460315 
L 171.706075 36.460315 
L 190.535045 36.460315 
L 190.535045 31.748252 
L 190.612526 31.748252 
L 193.014536 31.748252 
L 193.014536 27.036189 
L 193.092025 27.036189 
L 197.353736 27.036189 
L 197.353736 22.324126 
L 219.669528 22.324126 
L 219.669528 31.748252 
L 219.746984 31.748252 
L 220.134402 31.748252 
L 220.134402 36.460315 
L 220.211925 36.460315 
L 247.099329 36.460315 
L 247.099329 41.172378 
L 247.176843 41.172378 
L 252.678281 41.172378 
L 252.678281 36.460315 
L 252.755757 36.460315 
L 256.397587 36.460315 
L 256.397587 31.748252 
L 256.47505 31.748252 
L 257.482345 31.748252 
L 257.482345 27.036189 
L 257.55987 27.036189 
L 268.020392 27.036189 
L 268.020392 22.324126 
L 268.097882 22.324126 
L 288.166552 22.324126 
L 288.166552 27.036189 
L 288.244097 27.036189 
L 303.005 27.036189 
L 303.005 27.036189 
" style="fill:none;stroke:#e7298a;stroke-linecap:square;stroke-width:1.5;"/>
   </g>
   <g id="line2d_22">
    <path clip-path="url(#p4e84fde3be)" d="M 88.254361 196.670456 
L 89.02918 196.670456 
L 89.02918 182.534267 
L 89.106795 182.534267 
L 89.184155 182.534267 
L 89.184155 177.822204 
L 89.261672 177.822204 
L 89.339122 177.822204 
L 89.339122 158.973953 
L 89.416639 158.973953 
L 89.649078 158.973953 
L 89.649078 144.837764 
L 89.726564 144.837764 
L 89.959013 144.837764 
L 89.959013 116.565386 
L 90.036514 116.565386 
L 90.268952 116.565386 
L 90.268952 107.14126 
L 90.346464 107.14126 
L 90.423944 107.14126 
L 90.423944 102.429197 
L 90.501445 102.429197 
L 90.578901 102.429197 
L 90.578901 97.717134 
L 90.656413 97.717134 
L 90.888868 97.717134 
L 90.888868 93.005071 
L 90.966316 93.005071 
L 93.058423 93.005071 
L 93.058423 74.156819 
L 93.135935 74.156819 
L 93.368375 74.156819 
L 93.368375 69.444756 
L 93.445848 69.444756 
L 93.67834 69.444756 
L 93.67834 60.02063 
L 93.75581 60.02063 
L 93.833311 60.02063 
L 93.833311 55.308567 
L 93.910777 55.308567 
L 94.143257 55.308567 
L 94.143257 50.596504 
L 94.220716 50.596504 
L 97.397629 50.596504 
L 97.397629 45.884441 
L 97.475099 45.884441 
L 97.552573 45.884441 
L 97.552573 41.172378 
L 97.630094 41.172378 
L 97.707552 41.172378 
L 97.707552 36.460315 
L 97.785056 36.460315 
L 98.172485 36.460315 
L 98.172485 31.748252 
L 98.249973 31.748252 
L 108.090587 31.748252 
L 108.090587 22.324126 
L 108.168092 22.324126 
L 127.151988 22.324126 
L 127.151988 27.036189 
L 127.229483 27.036189 
L 128.081812 27.036189 
L 128.081812 22.324126 
L 128.1593 22.324126 
L 141.564282 22.324126 
L 141.564282 27.036189 
L 141.641771 27.036189 
L 142.804041 27.036189 
L 142.804041 22.324126 
L 142.881536 22.324126 
L 243.070111 22.324126 
L 243.070111 27.036189 
L 243.147587 27.036189 
L 247.409281 27.036189 
L 247.409281 22.324126 
L 247.486757 22.324126 
L 279.023302 22.324126 
L 279.023302 27.036189 
L 279.1008 27.036189 
L 279.178281 27.036189 
L 279.178281 22.324126 
L 279.255758 22.324126 
L 279.643166 22.324126 
L 279.643166 27.036189 
L 279.72067 27.036189 
L 280.10808 27.036189 
L 280.10808 22.324126 
L 280.185564 22.324126 
L 287.701646 22.324126 
L 287.701646 27.036189 
L 287.779168 27.036189 
L 288.166552 27.036189 
L 288.166552 22.324126 
L 288.244097 22.324126 
L 299.479448 22.324126 
L 299.479448 27.036189 
L 299.556922 27.036189 
L 303.005 27.036189 
L 303.005 27.036189 
" style="fill:none;stroke:#66a61e;stroke-linecap:square;stroke-width:1.5;"/>
   </g>
   <g id="line2d_23">
    <path clip-path="url(#p4e84fde3be)" d="M 55.905 191.958393 
L 63.304074 191.958393 
L 63.304074 187.24633 
L 63.381557 187.24633 
L 64.078935 187.24633 
L 64.078935 182.534267 
L 64.156417 182.534267 
L 64.388866 182.534267 
L 64.388866 177.822204 
L 64.466361 177.822204 
L 67.333303 177.822204 
L 67.333303 173.110142 
L 67.41079 173.110142 
L 67.643243 173.110142 
L 67.643243 168.398079 
L 67.720738 168.398079 
L 70.74264 168.398079 
L 70.74264 163.686016 
L 70.820138 163.686016 
L 81.745573 163.686016 
L 81.745573 154.26189 
L 81.823043 154.26189 
L 81.900566 154.26189 
L 81.900566 144.837764 
L 81.978013 144.837764 
L 82.365456 144.837764 
L 82.365456 140.125701 
L 82.442934 140.125701 
L 82.985353 140.125701 
L 82.985353 135.413638 
L 83.062827 135.413638 
L 85.774817 135.413638 
L 85.774817 130.701575 
L 85.852299 130.701575 
L 86.084731 130.701575 
L 86.084731 121.277449 
L 86.162257 121.277449 
L 86.394705 121.277449 
L 86.394705 116.565386 
L 86.472195 116.565386 
L 87.324531 116.565386 
L 87.324531 111.853323 
L 87.402007 111.853323 
L 89.02918 111.853323 
L 89.02918 107.14126 
L 89.106795 107.14126 
L 89.339122 107.14126 
L 89.339122 102.429197 
L 89.416639 102.429197 
L 89.494091 102.429197 
L 89.494091 93.005071 
L 89.571585 93.005071 
L 89.804057 93.005071 
L 89.804057 88.293008 
L 89.881562 88.293008 
L 89.959013 88.293008 
L 89.997771 74.156819 
L 90.036514 74.156819 
L 90.114004 74.156819 
L 90.114004 64.732693 
L 90.191499 64.732693 
L 90.733862 64.732693 
L 90.733862 69.444756 
L 90.811382 69.444756 
L 93.058423 69.444756 
L 93.058423 60.02063 
L 93.135935 60.02063 
L 93.213432 60.02063 
L 93.213432 55.308567 
L 93.290916 55.308567 
L 93.523352 55.308567 
L 93.523352 50.596504 
L 93.600839 50.596504 
L 93.67834 50.596504 
L 93.67834 41.172378 
L 93.75581 41.172378 
L 93.833311 41.172378 
L 93.833311 36.460315 
L 93.910777 36.460315 
L 94.143257 36.460315 
L 94.143257 31.748252 
L 94.220716 31.748252 
L 221.374191 31.748252 
L 221.374191 36.460315 
L 221.451658 36.460315 
L 224.938498 36.460315 
L 224.938498 31.748252 
L 225.016005 31.748252 
L 303.005 31.748252 
L 303.005 31.748252 
" style="fill:none;stroke:#e6ab02;stroke-linecap:square;stroke-width:1.5;"/>
   </g>
   <g id="line2d_24">
    <path clip-path="url(#p4e84fde3be)" d="M 55.905 196.670456 
L 60.049705 196.670456 
L 60.049705 191.958393 
L 60.127167 191.958393 
L 63.149109 191.958393 
L 63.149109 187.24633 
L 63.226565 187.24633 
L 63.304074 187.24633 
L 63.304074 182.534267 
L 63.381557 182.534267 
L 63.613999 182.534267 
L 63.613999 177.822204 
L 63.691493 177.822204 
L 63.768969 177.822204 
L 63.768969 173.110142 
L 63.846452 173.110142 
L 63.923941 173.110142 
L 63.923941 163.686016 
L 64.001416 163.686016 
L 64.078935 163.686016 
L 64.078935 158.973953 
L 64.156417 158.973953 
L 64.233874 158.973953 
L 64.233874 154.26189 
L 64.311355 154.26189 
L 66.713424 154.26189 
L 66.713424 149.549827 
L 66.790901 149.549827 
L 66.868392 149.549827 
L 66.868392 140.125701 
L 66.945874 140.125701 
L 67.178307 140.125701 
L 67.178307 135.413638 
L 67.255812 135.413638 
L 67.333303 135.413638 
L 67.333303 125.989512 
L 67.41079 125.989512 
L 67.643243 125.989512 
L 67.643243 121.277449 
L 67.720738 121.277449 
L 67.95318 121.277449 
L 67.95318 116.565386 
L 68.030683 116.565386 
L 68.108159 116.565386 
L 68.108159 111.853323 
L 68.185631 111.853323 
L 70.897645 111.853323 
L 70.897645 107.14126 
L 70.975122 107.14126 
L 71.517517 107.14126 
L 71.517517 102.429197 
L 71.594995 102.429197 
L 75.54673 102.429197 
L 75.54673 97.717134 
L 75.624232 97.717134 
L 81.745573 97.717134 
L 81.745573 93.005071 
L 81.823043 93.005071 
L 82.210502 93.005071 
L 82.210502 78.868882 
L 82.28797 78.868882 
L 82.365456 78.868882 
L 82.365456 69.444756 
L 82.442934 69.444756 
L 82.520443 69.444756 
L 82.520443 60.02063 
L 82.59791 60.02063 
L 82.985353 60.02063 
L 82.985353 55.308567 
L 83.062827 55.308567 
L 85.154933 55.308567 
L 85.154933 50.596504 
L 85.232414 50.596504 
L 85.619835 50.596504 
L 85.619835 45.884441 
L 85.697344 45.884441 
L 85.774817 45.884441 
L 85.774817 41.172378 
L 85.852299 41.172378 
L 85.929777 41.172378 
L 85.929777 36.460315 
L 86.007258 36.460315 
L 86.394705 36.460315 
L 86.394705 31.748252 
L 86.472195 31.748252 
L 303.005 31.748252 
L 303.005 31.748252 
" style="fill:none;stroke:#a6761d;stroke-linecap:square;stroke-width:1.5;"/>
   </g>
   <g id="line2d_25">
    <path clip-path="url(#p4e84fde3be)" d="M 55.905 196.670456 
L 59.349729 196.670456 
L 59.349729 191.958393 
L 63.923941 191.958393 
L 63.923941 187.24633 
L 64.001416 187.24633 
L 67.023345 187.24633 
L 67.023345 182.534267 
L 67.100828 182.534267 
L 67.333303 182.534267 
L 67.333303 177.822204 
L 67.41079 177.822204 
L 67.798213 177.822204 
L 67.798213 173.110142 
L 67.875687 173.110142 
L 67.95318 173.110142 
L 67.95318 168.398079 
L 68.030683 168.398079 
L 68.883011 168.398079 
L 68.883011 163.686016 
L 68.960511 163.686016 
L 82.210502 163.686016 
L 82.210502 154.26189 
L 82.28797 154.26189 
L 85.774817 154.26189 
L 85.774817 149.549827 
L 85.852299 149.549827 
L 86.549674 149.549827 
L 86.549674 144.837764 
L 86.627156 144.837764 
L 87.014599 144.837764 
L 87.014599 140.125701 
L 87.092075 140.125701 
L 89.339122 140.125701 
L 89.339122 135.413638 
L 89.416639 135.413638 
L 89.494091 135.413638 
L 89.494091 125.989512 
L 89.571585 125.989512 
L 89.959013 125.989512 
L 89.959013 116.565386 
L 90.036514 116.565386 
L 93.368375 116.565386 
L 93.368375 111.853323 
L 93.445848 111.853323 
L 93.833311 111.853323 
L 93.833311 107.14126 
L 93.910777 107.14126 
L 94.298192 107.14126 
L 94.298192 102.429197 
L 94.375695 102.429197 
L 98.172485 102.429197 
L 98.172485 97.717134 
L 98.249973 97.717134 
L 108.865458 97.717134 
L 108.865458 93.005071 
L 108.942954 93.005071 
L 112.429773 93.005071 
L 112.429773 88.293008 
L 112.507277 88.293008 
L 116.459039 88.293008 
L 116.459039 93.005071 
L 116.536514 93.005071 
L 134.280652 93.005071 
L 134.280652 88.293008 
L 134.358156 88.293008 
L 134.43561 88.293008 
L 134.43561 93.005071 
L 134.51311 93.005071 
L 138.309894 93.005071 
L 138.309894 88.293008 
L 138.387397 88.293008 
L 165.584721 88.293008 
L 165.584721 83.580945 
L 165.662229 83.580945 
L 190.380043 83.580945 
L 190.380043 78.868882 
L 190.457527 78.868882 
L 198.283565 78.868882 
L 198.283565 83.580945 
L 198.361043 83.580945 
L 247.409281 83.580945 
L 247.409281 88.293008 
L 247.486757 88.293008 
L 249.268941 88.293008 
L 249.268941 93.005071 
L 249.346424 93.005071 
L 262.28648 93.005071 
L 262.28648 88.293008 
L 262.36395 88.293008 
L 264.456068 88.293008 
L 264.456068 83.580945 
L 264.533558 83.580945 
L 267.555452 83.580945 
L 267.555452 78.868882 
L 267.63297 78.868882 
L 271.894627 78.868882 
L 271.894627 83.580945 
L 271.972128 83.580945 
L 287.701646 83.580945 
L 287.701646 78.868882 
L 287.779168 78.868882 
L 303.005 78.868882 
L 303.005 78.868882 
" style="fill:none;stroke:#666666;stroke-linecap:square;stroke-width:1.5;"/>
   </g>
   <g id="line2d_26">
    <path clip-path="url(#p4e84fde3be)" d="M 55.905 201.382519 
L 63.459029 201.382519 
L 63.459029 196.670456 
L 63.536527 196.670456 
L 63.923941 196.670456 
L 63.923941 191.958393 
L 64.001416 191.958393 
L 67.333303 191.958393 
L 67.333303 187.24633 
L 67.41079 187.24633 
L 67.643243 187.24633 
L 67.643243 191.958393 
L 67.720738 191.958393 
L 67.798213 191.958393 
L 67.798213 182.534267 
L 67.875687 182.534267 
L 81.900566 182.534267 
L 81.900566 177.822204 
L 81.978013 177.822204 
L 82.210502 177.822204 
L 82.210502 173.110142 
L 82.28797 173.110142 
L 82.520443 173.110142 
L 82.520443 168.398079 
L 82.59791 168.398079 
L 82.675416 168.398079 
L 82.675416 163.686016 
L 82.75288 163.686016 
L 83.450244 163.686016 
L 83.450244 158.973953 
L 83.52776 158.973953 
L 85.929777 158.973953 
L 85.929777 154.26189 
L 86.007258 154.26189 
L 86.394705 154.26189 
L 86.394705 149.549827 
L 86.472195 149.549827 
L 86.549674 149.549827 
L 86.549674 144.837764 
L 86.627156 144.837764 
L 89.184155 144.837764 
L 89.184155 135.413638 
L 89.261672 135.413638 
L 89.339122 135.413638 
L 89.339122 130.701575 
L 89.416639 130.701575 
L 89.494091 130.701575 
L 89.532837 116.565386 
L 89.571585 116.565386 
L 90.114004 116.565386 
L 90.114004 111.853323 
L 90.191499 111.853323 
L 90.268952 111.853323 
L 90.268952 107.14126 
L 90.346464 107.14126 
L 90.423944 107.14126 
L 90.423944 111.853323 
L 90.501445 111.853323 
L 90.578901 111.853323 
L 90.578901 107.14126 
L 90.656413 107.14126 
L 90.733862 107.14126 
L 90.733862 102.429197 
L 90.811382 102.429197 
L 92.593536 102.429197 
L 92.593536 107.14126 
L 92.670999 107.14126 
L 93.058423 107.14126 
L 93.058423 93.005071 
L 93.135935 93.005071 
L 93.368375 93.005071 
L 93.368375 88.293008 
L 93.445848 88.293008 
L 93.67834 88.293008 
L 93.67834 69.444756 
L 93.75581 69.444756 
L 93.833311 69.444756 
L 93.833311 64.732693 
L 93.910777 64.732693 
L 97.242638 64.732693 
L 97.242638 60.02063 
L 97.320118 60.02063 
L 109.795297 60.02063 
L 109.795297 55.308567 
L 109.872782 55.308567 
L 112.274821 55.308567 
L 112.274821 50.596504 
L 112.352285 50.596504 
L 112.429773 50.596504 
L 112.429773 55.308567 
L 112.507277 55.308567 
L 112.739716 55.308567 
L 112.739716 50.596504 
L 112.81722 50.596504 
L 116.459039 50.596504 
L 116.459039 45.884441 
L 116.536514 45.884441 
L 122.8128 45.884441 
L 122.8128 50.596504 
L 122.890293 50.596504 
L 127.151988 50.596504 
L 127.151988 45.884441 
L 127.229483 45.884441 
L 133.815759 45.884441 
L 133.815759 50.596504 
L 133.893215 50.596504 
L 134.125658 50.596504 
L 134.125658 55.308567 
L 134.203182 55.308567 
L 134.590576 55.308567 
L 134.590576 60.02063 
L 134.668062 60.02063 
L 138.929763 60.02063 
L 138.929763 64.732693 
L 139.00728 64.732693 
L 145.593493 64.732693 
L 145.593493 69.444756 
L 145.671001 69.444756 
L 161.0906 69.444756 
L 161.0906 74.156819 
L 161.168069 74.156819 
L 231.447288 74.156819 
L 231.447288 69.444756 
L 231.524805 69.444756 
L 235.631512 69.444756 
L 235.631512 74.156819 
L 235.709018 74.156819 
L 275.613949 74.156819 
L 275.613949 69.444756 
L 275.691421 69.444756 
L 279.178281 69.444756 
L 279.178281 74.156819 
L 279.255758 74.156819 
L 279.33324 74.156819 
L 279.33324 78.868882 
L 279.410727 78.868882 
L 282.277687 78.868882 
L 282.277687 83.580945 
L 282.355186 83.580945 
L 303.005 83.580945 
L 303.005 83.580945 
" style="fill:none;stroke:#1b9e77;stroke-dasharray:4.5,1.5;stroke-dashoffset:0;stroke-width:1.5;"/>
   </g>
   <g id="line2d_27">
    <path clip-path="url(#p4e84fde3be)" d="M 55.905 210.806645 
L 60.514573 210.806645 
L 60.514573 206.094582 
L 60.592062 206.094582 
L 61.134486 206.094582 
L 61.134486 201.382519 
L 61.211963 201.382519 
L 70.897645 201.382519 
L 70.897645 196.670456 
L 70.975122 196.670456 
L 81.745573 196.670456 
L 81.745573 191.958393 
L 81.823043 191.958393 
L 82.830363 191.958393 
L 82.830363 182.534267 
L 82.907842 182.534267 
L 85.774817 182.534267 
L 85.774817 177.822204 
L 85.852299 177.822204 
L 85.929777 177.822204 
L 85.929777 173.110142 
L 86.007258 173.110142 
L 86.394705 173.110142 
L 86.394705 163.686016 
L 86.472195 163.686016 
L 86.549674 163.686016 
L 86.549674 158.973953 
L 86.627156 158.973953 
L 87.479473 158.973953 
L 87.479473 154.26189 
L 87.556998 154.26189 
L 89.339122 154.26189 
L 89.339122 158.973953 
L 89.416639 158.973953 
L 89.649078 158.973953 
L 89.649078 154.26189 
L 89.726564 154.26189 
L 89.804057 154.26189 
L 89.804057 149.549827 
L 89.881562 149.549827 
L 90.114004 149.549827 
L 90.114004 144.837764 
L 90.191499 144.837764 
L 90.268952 144.837764 
L 90.268952 149.549827 
L 90.346464 149.549827 
L 90.423944 149.549827 
L 90.423944 144.837764 
L 90.501445 144.837764 
L 93.058423 144.837764 
L 93.058423 140.125701 
L 93.135935 140.125701 
L 98.017513 140.125701 
L 98.017513 135.413638 
L 98.094988 135.413638 
L 108.400541 135.413638 
L 108.400541 130.701575 
L 108.478039 130.701575 
L 123.12275 130.701575 
L 123.12275 125.989512 
L 123.20027 125.989512 
L 141.564282 125.989512 
L 141.564282 121.277449 
L 141.641771 121.277449 
L 161.0906 121.277449 
L 161.0906 116.565386 
L 161.168069 116.565386 
L 197.353736 116.565386 
L 197.353736 111.853323 
L 212.230913 111.853323 
L 212.230913 107.14126 
L 212.308417 107.14126 
L 242.915115 107.14126 
L 242.915115 102.429197 
L 242.992606 102.429197 
L 247.254297 102.429197 
L 247.254297 97.717134 
L 247.331786 97.717134 
L 252.988203 97.717134 
L 252.988203 93.005071 
L 253.065709 93.005071 
L 276.543782 93.005071 
L 276.543782 88.293008 
L 276.621269 88.293008 
L 279.178281 88.293008 
L 279.178281 83.580945 
L 279.255758 83.580945 
L 280.10808 83.580945 
L 280.10808 88.293008 
L 280.185564 88.293008 
L 303.005 88.293008 
L 303.005 88.293008 
" style="fill:none;stroke:#d95f02;stroke-dasharray:4.5,1.5;stroke-dashoffset:0;stroke-width:1.5;"/>
   </g>
   <g id="line2d_28">
    <path clip-path="url(#p4e84fde3be)" d="M 55.905 206.094582 
L 63.149109 206.094582 
L 63.149109 201.382519 
L 63.226565 201.382519 
L 63.304074 201.382519 
L 63.304074 196.670456 
L 63.381557 196.670456 
L 63.923941 196.670456 
L 63.923941 187.24633 
L 64.001416 187.24633 
L 66.868392 187.24633 
L 66.868392 182.534267 
L 66.945874 182.534267 
L 67.643243 182.534267 
L 67.643243 177.822204 
L 67.720738 177.822204 
L 67.798213 177.822204 
L 67.798213 173.110142 
L 67.875687 173.110142 
L 67.95318 173.110142 
L 67.95318 168.398079 
L 68.030683 168.398079 
L 82.055522 168.398079 
L 82.055522 163.686016 
L 82.132983 163.686016 
L 82.210502 163.686016 
L 82.210502 158.973953 
L 82.28797 158.973953 
L 82.365456 158.973953 
L 82.365456 149.549827 
L 82.442934 149.549827 
L 86.239733 149.549827 
L 86.239733 144.837764 
L 86.31722 144.837764 
L 86.394705 144.837764 
L 86.394705 140.125701 
L 86.472195 140.125701 
L 89.02918 140.125701 
L 89.02918 144.837764 
L 89.106795 144.837764 
L 89.494091 144.837764 
L 89.494091 135.413638 
L 89.571585 135.413638 
L 89.649078 135.413638 
L 89.649078 140.125701 
L 89.726564 140.125701 
L 89.804057 140.125701 
L 89.804057 135.413638 
L 89.881562 135.413638 
L 90.114004 135.413638 
L 90.114004 125.989512 
L 90.191499 125.989512 
L 90.268952 125.989512 
L 90.268952 121.277449 
L 90.346464 121.277449 
L 97.552573 121.277449 
L 97.552573 116.565386 
L 97.630094 116.565386 
L 98.017513 116.565386 
L 98.017513 111.853323 
L 98.094988 111.853323 
L 105.456085 111.853323 
L 105.456085 107.14126 
L 105.533571 107.14126 
L 119.558421 107.14126 
L 119.558421 102.429197 
L 119.635918 102.429197 
L 120.178303 102.429197 
L 120.178303 97.717134 
L 120.255826 97.717134 
L 123.277742 97.717134 
L 123.277742 93.005071 
L 123.355232 93.005071 
L 135.520436 93.005071 
L 135.520436 88.293008 
L 135.597894 88.293008 
L 227.88294 88.293008 
L 227.88294 93.005071 
L 227.960462 93.005071 
L 231.447288 93.005071 
L 231.447288 97.717134 
L 231.524805 97.717134 
L 264.301088 97.717134 
L 264.301088 93.005071 
L 264.378552 93.005071 
L 264.92095 93.005071 
L 264.92095 88.293008 
L 264.998445 88.293008 
L 303.005 88.293008 
L 303.005 88.293008 
" style="fill:none;stroke:#7570b3;stroke-dasharray:4.5,1.5;stroke-dashoffset:0;stroke-width:1.5;"/>
   </g>
   <g id="line2d_29">
    <path clip-path="url(#p4e84fde3be)" d="M 55.905 210.806645 
L 59.894854 210.806645 
L 59.894854 206.094582 
L 59.972206 206.094582 
L 60.204668 206.094582 
L 60.204668 201.382519 
L 60.282169 201.382519 
L 63.768969 201.382519 
L 63.768969 196.670456 
L 63.846452 196.670456 
L 67.798213 196.670456 
L 67.798213 191.958393 
L 67.875687 191.958393 
L 70.277751 191.958393 
L 70.277751 187.24633 
L 70.355259 187.24633 
L 71.052588 187.24633 
L 71.052588 182.534267 
L 71.13009 182.534267 
L 71.362543 182.534267 
L 71.362543 177.822204 
L 71.440014 177.822204 
L 81.745573 177.822204 
L 81.745573 168.398079 
L 81.823043 168.398079 
L 82.055522 168.398079 
L 82.055522 163.686016 
L 82.132983 163.686016 
L 82.210502 163.686016 
L 82.210502 158.973953 
L 82.28797 158.973953 
L 82.365456 158.973953 
L 82.365456 154.26189 
L 82.442934 154.26189 
L 82.520443 154.26189 
L 82.520443 144.837764 
L 82.59791 144.837764 
L 82.675416 144.837764 
L 82.675416 140.125701 
L 82.75288 140.125701 
L 82.985353 140.125701 
L 82.985353 135.413638 
L 83.062827 135.413638 
L 83.295308 135.413638 
L 83.295308 130.701575 
L 83.372781 130.701575 
L 83.760178 130.701575 
L 83.760178 125.989512 
L 83.837701 125.989512 
L 85.464868 125.989512 
L 85.464868 121.277449 
L 85.542352 121.277449 
L 85.619835 121.277449 
L 85.619835 116.565386 
L 85.697344 116.565386 
L 85.774817 116.565386 
L 85.774817 102.429197 
L 85.852299 102.429197 
L 85.929777 102.429197 
L 85.929777 97.717134 
L 86.007258 97.717134 
L 86.084731 97.717134 
L 86.084731 93.005071 
L 86.162257 93.005071 
L 87.479473 93.005071 
L 87.479473 97.717134 
L 87.556998 97.717134 
L 89.494091 97.717134 
L 89.494091 93.005071 
L 89.571585 93.005071 
L 89.649078 93.005071 
L 89.649078 97.717134 
L 89.726564 97.717134 
L 89.804057 97.717134 
L 89.804057 93.005071 
L 89.881562 93.005071 
L 94.143257 93.005071 
L 94.143257 97.717134 
L 94.220716 97.717134 
L 94.298192 97.717134 
L 94.298192 93.005071 
L 94.375695 93.005071 
L 242.605198 93.005071 
L 242.605198 97.717134 
L 242.682652 97.717134 
L 254.537923 97.717134 
L 254.537923 93.005071 
L 254.615394 93.005071 
L 294.985265 93.005071 
L 294.985265 97.717134 
L 295.062789 97.717134 
L 299.479448 97.717134 
L 299.479448 93.005071 
L 299.556922 93.005071 
L 303.005 93.005071 
L 303.005 93.005071 
" style="fill:none;stroke:#e7298a;stroke-dasharray:4.5,1.5;stroke-dashoffset:0;stroke-width:1.5;"/>
   </g>
   <g id="line2d_30">
    <path clip-path="url(#p4e84fde3be)" d="M 125.486053 210.806645 
L 126.842036 210.806645 
L 126.842036 206.094582 
L 126.919548 206.094582 
L 131.49119 206.094582 
L 131.49119 201.382519 
L 131.568653 201.382519 
L 133.815759 201.382519 
L 133.815759 182.534267 
L 133.893215 182.534267 
L 134.125658 182.534267 
L 134.125658 173.110142 
L 134.203182 173.110142 
L 134.43561 173.110142 
L 134.43561 158.973953 
L 134.51311 158.973953 
L 134.745547 158.973953 
L 134.745547 154.26189 
L 134.823063 154.26189 
L 137.844994 154.26189 
L 137.844994 149.549827 
L 137.922477 149.549827 
L 138.619838 149.549827 
L 138.619838 144.837764 
L 138.697318 144.837764 
L 138.929763 144.837764 
L 138.929763 140.125701 
L 139.00728 140.125701 
L 139.239706 140.125701 
L 139.239706 135.413638 
L 139.317189 135.413638 
L 139.394682 135.413638 
L 139.394682 130.701575 
L 139.472151 130.701575 
L 141.564282 130.701575 
L 141.564282 125.989512 
L 141.641771 125.989512 
L 142.958993 125.989512 
L 142.958993 121.277449 
L 143.036505 121.277449 
L 145.593493 121.277449 
L 145.593493 116.565386 
L 145.671001 116.565386 
L 193.014536 116.565386 
L 193.014536 121.277449 
L 193.092025 121.277449 
L 193.789381 121.277449 
L 193.789381 116.565386 
L 193.866896 116.565386 
L 219.824491 116.565386 
L 219.824491 111.853323 
L 219.901988 111.853323 
L 220.134402 111.853323 
L 220.134402 107.14126 
L 220.211925 107.14126 
L 221.374191 107.14126 
L 221.374191 102.429197 
L 221.451658 102.429197 
L 242.450197 102.429197 
L 242.450197 97.717134 
L 242.527688 97.717134 
L 303.005 97.717134 
L 303.005 97.717134 
" style="fill:none;stroke:#66a61e;stroke-dasharray:4.5,1.5;stroke-dashoffset:0;stroke-width:1.5;"/>
   </g>
   <g id="line2d_31">
    <path clip-path="url(#p4e84fde3be)" d="M 55.905 206.094582 
L 63.459029 206.094582 
L 63.459029 201.382519 
L 63.536527 201.382519 
L 67.643243 201.382519 
L 67.643243 191.958393 
L 67.720738 191.958393 
L 81.745573 191.958393 
L 81.745573 187.24633 
L 81.823043 187.24633 
L 82.055522 187.24633 
L 82.055522 182.534267 
L 82.132983 182.534267 
L 82.520443 182.534267 
L 82.520443 177.822204 
L 82.59791 177.822204 
L 85.464868 177.822204 
L 85.464868 173.110142 
L 85.542352 173.110142 
L 85.619835 173.110142 
L 85.619835 163.686016 
L 85.697344 163.686016 
L 85.774817 163.686016 
L 85.774817 158.973953 
L 85.852299 158.973953 
L 86.084731 158.973953 
L 86.084731 154.26189 
L 86.162257 154.26189 
L 86.239733 154.26189 
L 86.239733 144.837764 
L 86.31722 144.837764 
L 86.394705 144.837764 
L 86.394705 135.413638 
L 86.472195 135.413638 
L 87.014599 135.413638 
L 87.014599 130.701575 
L 87.092075 130.701575 
L 87.324531 130.701575 
L 87.324531 125.989512 
L 87.402007 125.989512 
L 87.479473 125.989512 
L 87.479473 130.701575 
L 87.556998 130.701575 
L 88.874225 130.701575 
L 88.874225 135.413638 
L 88.95173 135.413638 
L 89.02918 135.413638 
L 89.02918 140.125701 
L 89.106795 140.125701 
L 89.184155 140.125701 
L 89.184155 135.413638 
L 89.261672 135.413638 
L 89.339122 135.413638 
L 89.339122 140.125701 
L 89.416639 140.125701 
L 89.494091 140.125701 
L 89.494091 135.413638 
L 89.571585 135.413638 
L 89.649078 135.413638 
L 89.649078 130.701575 
L 89.726564 130.701575 
L 89.959013 130.701575 
L 89.959013 135.413638 
L 90.036514 135.413638 
L 93.523352 135.413638 
L 93.523352 130.701575 
L 93.600839 130.701575 
L 93.833311 130.701575 
L 93.833311 125.989512 
L 93.910777 125.989512 
L 97.397629 125.989512 
L 97.397629 121.277449 
L 97.475099 121.277449 
L 98.482411 121.277449 
L 98.482411 116.565386 
L 98.559883 116.565386 
L 108.400541 116.565386 
L 108.400541 111.853323 
L 108.478039 111.853323 
L 108.55551 111.853323 
L 108.55551 107.14126 
L 108.633 107.14126 
L 109.175377 107.14126 
L 109.175377 102.429197 
L 109.252888 102.429197 
L 116.459039 102.429197 
L 116.459039 97.717134 
L 116.536514 97.717134 
L 116.92391 97.717134 
L 116.92391 93.005071 
L 117.001427 93.005071 
L 124.672472 93.005071 
L 124.672472 88.293008 
L 124.749936 88.293008 
L 128.081812 88.293008 
L 128.081812 93.005071 
L 128.1593 93.005071 
L 134.125658 93.005071 
L 134.125658 97.717134 
L 134.203182 97.717134 
L 160.780652 97.717134 
L 160.780652 93.005071 
L 160.858149 93.005071 
L 186.970718 93.005071 
L 186.970718 88.293008 
L 187.048186 88.293008 
L 189.915151 88.293008 
L 189.915151 83.580945 
L 189.992612 83.580945 
L 200.608113 83.580945 
L 200.608113 78.868882 
L 200.68561 78.868882 
L 223.233866 78.868882 
L 223.233866 83.580945 
L 223.311349 83.580945 
L 223.388798 83.580945 
L 223.388798 78.868882 
L 223.466282 78.868882 
L 254.537923 78.868882 
L 254.537923 83.580945 
L 254.615394 83.580945 
L 261.666581 83.580945 
L 261.666581 88.293008 
L 261.744051 88.293008 
L 273.289519 88.293008 
L 273.289519 93.005071 
L 273.36688 93.005071 
L 295.605173 93.005071 
L 295.605173 97.717134 
L 295.682664 97.717134 
L 303.005 97.717134 
L 303.005 97.717134 
" style="fill:none;stroke:#e6ab02;stroke-dasharray:4.5,1.5;stroke-dashoffset:0;stroke-width:1.5;"/>
   </g>
   <g id="line2d_32">
    <path clip-path="url(#p4e84fde3be)" d="M 55.905 206.094582 
L 63.613999 206.094582 
L 63.613999 196.670456 
L 63.691493 196.670456 
L 67.023345 196.670456 
L 67.023345 187.24633 
L 67.100828 187.24633 
L 67.178307 187.24633 
L 67.178307 182.534267 
L 67.255812 182.534267 
L 67.798213 182.534267 
L 67.798213 177.822204 
L 67.875687 177.822204 
L 67.95318 177.822204 
L 67.95318 173.110142 
L 68.030683 173.110142 
L 82.365456 173.110142 
L 82.365456 168.398079 
L 82.442934 168.398079 
L 82.520443 168.398079 
L 82.520443 163.686016 
L 82.59791 163.686016 
L 82.675416 163.686016 
L 82.675416 158.973953 
L 82.75288 158.973953 
L 83.140294 158.973953 
L 83.140294 154.26189 
L 83.217814 154.26189 
L 83.295308 154.26189 
L 83.295308 158.973953 
L 83.372781 158.973953 
L 85.464868 158.973953 
L 85.464868 140.125701 
L 85.542352 140.125701 
L 85.774817 140.125701 
L 85.774817 130.701575 
L 85.852299 130.701575 
L 85.929777 130.701575 
L 85.929777 125.989512 
L 86.007258 125.989512 
L 86.084731 125.989512 
L 86.084731 116.565386 
L 86.162257 116.565386 
L 303.005 116.565386 
L 303.005 116.565386 
" style="fill:none;stroke:#a6761d;stroke-dasharray:4.5,1.5;stroke-dashoffset:0;stroke-width:1.5;"/>
   </g>
   <g id="line2d_33">
    <path clip-path="url(#p4e84fde3be)" d="M 55.905 210.806645 
L 63.923941 210.806645 
L 63.923941 206.094582 
L 64.001416 206.094582 
L 64.078935 206.094582 
L 64.078935 201.382519 
L 64.156417 201.382519 
L 67.178307 201.382519 
L 67.178307 196.670456 
L 67.255812 196.670456 
L 67.95318 196.670456 
L 67.95318 191.958393 
L 68.030683 191.958393 
L 68.263121 191.958393 
L 68.263121 187.24633 
L 68.340624 187.24633 
L 68.573079 187.24633 
L 68.573079 182.534267 
L 68.650571 182.534267 
L 70.897645 182.534267 
L 70.897645 187.24633 
L 70.975122 187.24633 
L 81.900566 187.24633 
L 81.900566 182.534267 
L 81.978013 182.534267 
L 82.830363 182.534267 
L 82.830363 173.110142 
L 82.907842 173.110142 
L 85.619835 173.110142 
L 85.619835 168.398079 
L 85.697344 168.398079 
L 86.239733 168.398079 
L 86.239733 149.549827 
L 86.31722 149.549827 
L 86.394705 149.549827 
L 86.394705 144.837764 
L 86.472195 144.837764 
L 86.549674 144.837764 
L 86.549674 140.125701 
L 86.627156 140.125701 
L 134.125658 140.125701 
L 134.125658 144.837764 
L 134.203182 144.837764 
L 134.280652 144.837764 
L 134.280652 140.125701 
L 134.358156 140.125701 
L 227.88294 140.125701 
L 227.88294 135.413638 
L 227.960462 135.413638 
L 235.631512 135.413638 
L 235.631512 130.701575 
L 235.709018 130.701575 
L 247.099329 130.701575 
L 247.099329 125.989512 
L 247.176843 125.989512 
L 249.268941 125.989512 
L 249.268941 121.277449 
L 249.346424 121.277449 
L 249.888817 121.277449 
L 249.888817 116.565386 
L 249.96629 116.565386 
L 275.613949 116.565386 
L 275.613949 121.277449 
L 275.691421 121.277449 
L 279.33324 121.277449 
L 279.33324 116.565386 
L 279.410727 116.565386 
L 303.005 116.565386 
L 303.005 116.565386 
" style="fill:none;stroke:#666666;stroke-dasharray:4.5,1.5;stroke-dashoffset:0;stroke-width:1.5;"/>
   </g>
   <g id="line2d_34"/>
   <g id="line2d_35"/>
   <g id="line2d_36"/>
   <g id="line2d_37"/>
   <g id="line2d_38"/>
   <g id="line2d_39"/>
   <g id="line2d_40"/>
   <g id="line2d_41"/>
   <g id="line2d_42"/>
   <g id="line2d_43"/>
   <g id="line2d_44"/>
   <g id="line2d_45"/>
   <g id="line2d_46"/>
   <g id="line2d_47"/>
   <g id="line2d_48"/>
   <g id="line2d_49"/>
   <g id="line2d_50"/>
   <g id="patch_3">
    <path d="M 43.55 220.230771 
L 43.55 12.9 
" style="fill:none;stroke:#000000;stroke-linecap:square;stroke-linejoin:miter;stroke-width:0.8;"/>
   </g>
   <g id="patch_4">
    <path d="M 315.36 220.230771 
L 315.36 12.9 
" style="fill:none;stroke:#000000;stroke-linecap:square;stroke-linejoin:miter;stroke-width:0.8;"/>
   </g>
   <g id="patch_5">
    <path d="M 43.55 220.230771 
L 315.36 220.230771 
" style="fill:none;stroke:#000000;stroke-linecap:square;stroke-linejoin:miter;stroke-width:0.8;"/>
   </g>
   <g id="patch_6">
    <path d="M 43.55 12.9 
L 315.36 12.9 
" style="fill:none;stroke:#000000;stroke-linecap:square;stroke-linejoin:miter;stroke-width:0.8;"/>
   </g>
  </g>
  <g id="legend_1">
   <g id="patch_7">
    <path d="M 331.8625 262.528125 
L 420 262.528125 
Q 422 262.528125 422 260.528125 
L 422 12 
Q 422 10 420 10 
L 331.8625 10 
Q 329.8625 10 329.8625 12 
L 329.8625 260.528125 
Q 329.8625 262.528125 331.8625 262.528125 
z
" style="fill:#ffffff;opacity:0.8;stroke:#cccccc;stroke-linejoin:miter;"/>
   </g>
   <g id="text_20">
    <!-- 494/610 Reg. -->
    <defs>
     <path d="M 25.390625 72.90625 
L 33.6875 72.90625 
L 8.296875 -9.28125 
L 0 -9.28125 
z
" id="DejaVuSans-47"/>
     <path d="M 33.015625 40.375 
Q 26.375 40.375 22.484375 35.828125 
Q 18.609375 31.296875 18.609375 23.390625 
Q 18.609375 15.53125 22.484375 10.953125 
Q 26.375 6.390625 33.015625 6.390625 
Q 39.65625 6.390625 43.53125 10.953125 
Q 47.40625 15.53125 47.40625 23.390625 
Q 47.40625 31.296875 43.53125 35.828125 
Q 39.65625 40.375 33.015625 40.375 
z
M 52.59375 71.296875 
L 52.59375 62.3125 
Q 48.875 64.0625 45.09375 64.984375 
Q 41.3125 65.921875 37.59375 65.921875 
Q 27.828125 65.921875 22.671875 59.328125 
Q 17.53125 52.734375 16.796875 39.40625 
Q 19.671875 43.65625 24.015625 45.921875 
Q 28.375 48.1875 33.59375 48.1875 
Q 44.578125 48.1875 50.953125 41.515625 
Q 57.328125 34.859375 57.328125 23.390625 
Q 57.328125 12.15625 50.6875 5.359375 
Q 44.046875 -1.421875 33.015625 -1.421875 
Q 20.359375 -1.421875 13.671875 8.265625 
Q 6.984375 17.96875 6.984375 36.375 
Q 6.984375 53.65625 15.1875 63.9375 
Q 23.390625 74.21875 37.203125 74.21875 
Q 40.921875 74.21875 44.703125 73.484375 
Q 48.484375 72.75 52.59375 71.296875 
z
" id="DejaVuSans-54"/>
     <path d="M 10.6875 12.40625 
L 21 12.40625 
L 21 0 
L 10.6875 0 
z
" id="DejaVuSans-46"/>
    </defs>
    <g transform="translate(342.259375 21.598437)scale(0.1 -0.1)">
     <use xlink:href="#DejaVuSans-52"/>
     <use x="63.623047" xlink:href="#DejaVuSans-57"/>
     <use x="127.246094" xlink:href="#DejaVuSans-52"/>
     <use x="190.869141" xlink:href="#DejaVuSans-47"/>
     <use x="224.560547" xlink:href="#DejaVuSans-54"/>
     <use x="288.183594" xlink:href="#DejaVuSans-49"/>
     <use x="351.806641" xlink:href="#DejaVuSans-48"/>
     <use x="415.429688" xlink:href="#DejaVuSans-32"/>
     <use x="447.216797" xlink:href="#DejaVuSans-82"/>
     <use x="516.636719" xlink:href="#DejaVuSans-101"/>
     <use x="578.160156" xlink:href="#DejaVuSans-103"/>
     <use x="641.636719" xlink:href="#DejaVuSans-46"/>
    </g>
   </g>
   <g id="line2d_51">
    <path d="M 333.8625 32.776562 
L 353.8625 32.776562 
" style="fill:none;stroke:#1b9e77;stroke-linecap:square;stroke-width:1.5;"/>
   </g>
   <g id="line2d_52"/>
   <g id="text_21">
    <!-- AS (40) -->
    <defs>
     <path d="M 34.1875 63.1875 
L 20.796875 26.90625 
L 47.609375 26.90625 
z
M 28.609375 72.90625 
L 39.796875 72.90625 
L 67.578125 0 
L 57.328125 0 
L 50.6875 18.703125 
L 17.828125 18.703125 
L 11.1875 0 
L 0.78125 0 
z
" id="DejaVuSans-65"/>
     <path d="M 31 75.875 
Q 24.46875 64.65625 21.28125 53.65625 
Q 18.109375 42.671875 18.109375 31.390625 
Q 18.109375 20.125 21.3125 9.0625 
Q 24.515625 -2 31 -13.1875 
L 23.1875 -13.1875 
Q 15.875 -1.703125 12.234375 9.375 
Q 8.59375 20.453125 8.59375 31.390625 
Q 8.59375 42.28125 12.203125 53.3125 
Q 15.828125 64.359375 23.1875 75.875 
z
" id="DejaVuSans-40"/>
     <path d="M 8.015625 75.875 
L 15.828125 75.875 
Q 23.140625 64.359375 26.78125 53.3125 
Q 30.421875 42.28125 30.421875 31.390625 
Q 30.421875 20.453125 26.78125 9.375 
Q 23.140625 -1.703125 15.828125 -13.1875 
L 8.015625 -13.1875 
Q 14.5 -2 17.703125 9.0625 
Q 20.90625 20.125 20.90625 31.390625 
Q 20.90625 42.671875 17.703125 53.65625 
Q 14.5 64.65625 8.015625 75.875 
z
" id="DejaVuSans-41"/>
    </defs>
    <g transform="translate(361.8625 36.276562)scale(0.1 -0.1)">
     <use xlink:href="#DejaVuSans-65"/>
     <use x="68.408203" xlink:href="#DejaVuSans-83"/>
     <use x="131.884766" xlink:href="#DejaVuSans-32"/>
     <use x="163.671875" xlink:href="#DejaVuSans-40"/>
     <use x="202.685547" xlink:href="#DejaVuSans-52"/>
     <use x="266.308594" xlink:href="#DejaVuSans-48"/>
     <use x="329.931641" xlink:href="#DejaVuSans-41"/>
    </g>
   </g>
   <g id="line2d_53">
    <path d="M 333.8625 47.454688 
L 353.8625 47.454688 
" style="fill:none;stroke:#d95f02;stroke-linecap:square;stroke-width:1.5;"/>
   </g>
   <g id="line2d_54"/>
   <g id="text_22">
    <!-- COML (40) -->
    <defs>
     <path d="M 64.40625 67.28125 
L 64.40625 56.890625 
Q 59.421875 61.53125 53.78125 63.8125 
Q 48.140625 66.109375 41.796875 66.109375 
Q 29.296875 66.109375 22.65625 58.46875 
Q 16.015625 50.828125 16.015625 36.375 
Q 16.015625 21.96875 22.65625 14.328125 
Q 29.296875 6.6875 41.796875 6.6875 
Q 48.140625 6.6875 53.78125 8.984375 
Q 59.421875 11.28125 64.40625 15.921875 
L 64.40625 5.609375 
Q 59.234375 2.09375 53.4375 0.328125 
Q 47.65625 -1.421875 41.21875 -1.421875 
Q 24.65625 -1.421875 15.125 8.703125 
Q 5.609375 18.84375 5.609375 36.375 
Q 5.609375 53.953125 15.125 64.078125 
Q 24.65625 74.21875 41.21875 74.21875 
Q 47.75 74.21875 53.53125 72.484375 
Q 59.328125 70.75 64.40625 67.28125 
z
" id="DejaVuSans-67"/>
     <path d="M 39.40625 66.21875 
Q 28.65625 66.21875 22.328125 58.203125 
Q 16.015625 50.203125 16.015625 36.375 
Q 16.015625 22.609375 22.328125 14.59375 
Q 28.65625 6.59375 39.40625 6.59375 
Q 50.140625 6.59375 56.421875 14.59375 
Q 62.703125 22.609375 62.703125 36.375 
Q 62.703125 50.203125 56.421875 58.203125 
Q 50.140625 66.21875 39.40625 66.21875 
z
M 39.40625 74.21875 
Q 54.734375 74.21875 63.90625 63.9375 
Q 73.09375 53.65625 73.09375 36.375 
Q 73.09375 19.140625 63.90625 8.859375 
Q 54.734375 -1.421875 39.40625 -1.421875 
Q 24.03125 -1.421875 14.8125 8.828125 
Q 5.609375 19.09375 5.609375 36.375 
Q 5.609375 53.65625 14.8125 63.9375 
Q 24.03125 74.21875 39.40625 74.21875 
z
" id="DejaVuSans-79"/>
     <path d="M 9.8125 72.90625 
L 24.515625 72.90625 
L 43.109375 23.296875 
L 61.8125 72.90625 
L 76.515625 72.90625 
L 76.515625 0 
L 66.890625 0 
L 66.890625 64.015625 
L 48.09375 14.015625 
L 38.1875 14.015625 
L 19.390625 64.015625 
L 19.390625 0 
L 9.8125 0 
z
" id="DejaVuSans-77"/>
     <path d="M 9.8125 72.90625 
L 19.671875 72.90625 
L 19.671875 8.296875 
L 55.171875 8.296875 
L 55.171875 0 
L 9.8125 0 
z
" id="DejaVuSans-76"/>
    </defs>
    <g transform="translate(361.8625 50.954688)scale(0.1 -0.1)">
     <use xlink:href="#DejaVuSans-67"/>
     <use x="69.824219" xlink:href="#DejaVuSans-79"/>
     <use x="148.535156" xlink:href="#DejaVuSans-77"/>
     <use x="234.814453" xlink:href="#DejaVuSans-76"/>
     <use x="290.527344" xlink:href="#DejaVuSans-32"/>
     <use x="322.314453" xlink:href="#DejaVuSans-40"/>
     <use x="361.328125" xlink:href="#DejaVuSans-52"/>
     <use x="424.951172" xlink:href="#DejaVuSans-48"/>
     <use x="488.574219" xlink:href="#DejaVuSans-41"/>
    </g>
   </g>
   <g id="line2d_55">
    <path d="M 333.8625 62.132812 
L 353.8625 62.132812 
" style="fill:none;stroke:#7570b3;stroke-linecap:square;stroke-width:1.5;"/>
   </g>
   <g id="line2d_56"/>
   <g id="text_23">
    <!-- GDD (40) -->
    <defs>
     <path d="M 59.515625 10.40625 
L 59.515625 29.984375 
L 43.40625 29.984375 
L 43.40625 38.09375 
L 69.28125 38.09375 
L 69.28125 6.78125 
Q 63.578125 2.734375 56.6875 0.65625 
Q 49.8125 -1.421875 42 -1.421875 
Q 24.90625 -1.421875 15.25 8.5625 
Q 5.609375 18.5625 5.609375 36.375 
Q 5.609375 54.25 15.25 64.234375 
Q 24.90625 74.21875 42 74.21875 
Q 49.125 74.21875 55.546875 72.453125 
Q 61.96875 70.703125 67.390625 67.28125 
L 67.390625 56.78125 
Q 61.921875 61.421875 55.765625 63.765625 
Q 49.609375 66.109375 42.828125 66.109375 
Q 29.4375 66.109375 22.71875 58.640625 
Q 16.015625 51.171875 16.015625 36.375 
Q 16.015625 21.625 22.71875 14.15625 
Q 29.4375 6.6875 42.828125 6.6875 
Q 48.046875 6.6875 52.140625 7.59375 
Q 56.25 8.5 59.515625 10.40625 
z
" id="DejaVuSans-71"/>
    </defs>
    <g transform="translate(361.8625 65.632812)scale(0.1 -0.1)">
     <use xlink:href="#DejaVuSans-71"/>
     <use x="77.490234" xlink:href="#DejaVuSans-68"/>
     <use x="154.492188" xlink:href="#DejaVuSans-68"/>
     <use x="231.494141" xlink:href="#DejaVuSans-32"/>
     <use x="263.28125" xlink:href="#DejaVuSans-40"/>
     <use x="302.294922" xlink:href="#DejaVuSans-52"/>
     <use x="365.917969" xlink:href="#DejaVuSans-48"/>
     <use x="429.541016" xlink:href="#DejaVuSans-41"/>
    </g>
   </g>
   <g id="line2d_57">
    <path d="M 333.8625 76.810937 
L 353.8625 76.810937 
" style="fill:none;stroke:#e7298a;stroke-linecap:square;stroke-width:1.5;"/>
   </g>
   <g id="line2d_58"/>
   <g id="text_24">
    <!-- SA (39) -->
    <g transform="translate(361.8625 80.310937)scale(0.1 -0.1)">
     <use xlink:href="#DejaVuSans-83"/>
     <use x="63.492188" xlink:href="#DejaVuSans-65"/>
     <use x="131.900391" xlink:href="#DejaVuSans-32"/>
     <use x="163.6875" xlink:href="#DejaVuSans-40"/>
     <use x="202.701172" xlink:href="#DejaVuSans-51"/>
     <use x="266.324219" xlink:href="#DejaVuSans-57"/>
     <use x="329.947266" xlink:href="#DejaVuSans-41"/>
    </g>
   </g>
   <g id="line2d_59">
    <path d="M 333.8625 91.489062 
L 353.8625 91.489062 
" style="fill:none;stroke:#66a61e;stroke-linecap:square;stroke-width:1.5;"/>
   </g>
   <g id="line2d_60"/>
   <g id="text_25">
    <!-- AUS (39) -->
    <defs>
     <path d="M 8.6875 72.90625 
L 18.609375 72.90625 
L 18.609375 28.609375 
Q 18.609375 16.890625 22.84375 11.734375 
Q 27.09375 6.59375 36.625 6.59375 
Q 46.09375 6.59375 50.34375 11.734375 
Q 54.59375 16.890625 54.59375 28.609375 
L 54.59375 72.90625 
L 64.5 72.90625 
L 64.5 27.390625 
Q 64.5 13.140625 57.4375 5.859375 
Q 50.390625 -1.421875 36.625 -1.421875 
Q 22.796875 -1.421875 15.734375 5.859375 
Q 8.6875 13.140625 8.6875 27.390625 
z
" id="DejaVuSans-85"/>
    </defs>
    <g transform="translate(361.8625 94.989062)scale(0.1 -0.1)">
     <use xlink:href="#DejaVuSans-65"/>
     <use x="68.408203" xlink:href="#DejaVuSans-85"/>
     <use x="141.601562" xlink:href="#DejaVuSans-83"/>
     <use x="205.078125" xlink:href="#DejaVuSans-32"/>
     <use x="236.865234" xlink:href="#DejaVuSans-40"/>
     <use x="275.878906" xlink:href="#DejaVuSans-51"/>
     <use x="339.501953" xlink:href="#DejaVuSans-57"/>
     <use x="403.125" xlink:href="#DejaVuSans-41"/>
    </g>
   </g>
   <g id="line2d_61">
    <path d="M 333.8625 106.167188 
L 353.8625 106.167188 
" style="fill:none;stroke:#e6ab02;stroke-linecap:square;stroke-width:1.5;"/>
   </g>
   <g id="line2d_62"/>
   <g id="text_26">
    <!-- MD (38) -->
    <defs>
     <path d="M 31.78125 34.625 
Q 24.75 34.625 20.71875 30.859375 
Q 16.703125 27.09375 16.703125 20.515625 
Q 16.703125 13.921875 20.71875 10.15625 
Q 24.75 6.390625 31.78125 6.390625 
Q 38.8125 6.390625 42.859375 10.171875 
Q 46.921875 13.96875 46.921875 20.515625 
Q 46.921875 27.09375 42.890625 30.859375 
Q 38.875 34.625 31.78125 34.625 
z
M 21.921875 38.8125 
Q 15.578125 40.375 12.03125 44.71875 
Q 8.5 49.078125 8.5 55.328125 
Q 8.5 64.0625 14.71875 69.140625 
Q 20.953125 74.21875 31.78125 74.21875 
Q 42.671875 74.21875 48.875 69.140625 
Q 55.078125 64.0625 55.078125 55.328125 
Q 55.078125 49.078125 51.53125 44.71875 
Q 48 40.375 41.703125 38.8125 
Q 48.828125 37.15625 52.796875 32.3125 
Q 56.78125 27.484375 56.78125 20.515625 
Q 56.78125 9.90625 50.3125 4.234375 
Q 43.84375 -1.421875 31.78125 -1.421875 
Q 19.734375 -1.421875 13.25 4.234375 
Q 6.78125 9.90625 6.78125 20.515625 
Q 6.78125 27.484375 10.78125 32.3125 
Q 14.796875 37.15625 21.921875 38.8125 
z
M 18.3125 54.390625 
Q 18.3125 48.734375 21.84375 45.5625 
Q 25.390625 42.390625 31.78125 42.390625 
Q 38.140625 42.390625 41.71875 45.5625 
Q 45.3125 48.734375 45.3125 54.390625 
Q 45.3125 60.0625 41.71875 63.234375 
Q 38.140625 66.40625 31.78125 66.40625 
Q 25.390625 66.40625 21.84375 63.234375 
Q 18.3125 60.0625 18.3125 54.390625 
z
" id="DejaVuSans-56"/>
    </defs>
    <g transform="translate(361.8625 109.667188)scale(0.1 -0.1)">
     <use xlink:href="#DejaVuSans-77"/>
     <use x="86.279297" xlink:href="#DejaVuSans-68"/>
     <use x="163.28125" xlink:href="#DejaVuSans-32"/>
     <use x="195.068359" xlink:href="#DejaVuSans-40"/>
     <use x="234.082031" xlink:href="#DejaVuSans-51"/>
     <use x="297.705078" xlink:href="#DejaVuSans-56"/>
     <use x="361.328125" xlink:href="#DejaVuSans-41"/>
    </g>
   </g>
   <g id="line2d_63">
    <path d="M 333.8625 120.845312 
L 353.8625 120.845312 
" style="fill:none;stroke:#a6761d;stroke-linecap:square;stroke-width:1.5;"/>
   </g>
   <g id="line2d_64"/>
   <g id="text_27">
    <!-- HPI (38) -->
    <defs>
     <path d="M 9.8125 72.90625 
L 19.671875 72.90625 
L 19.671875 43.015625 
L 55.515625 43.015625 
L 55.515625 72.90625 
L 65.375 72.90625 
L 65.375 0 
L 55.515625 0 
L 55.515625 34.71875 
L 19.671875 34.71875 
L 19.671875 0 
L 9.8125 0 
z
" id="DejaVuSans-72"/>
     <path d="M 19.671875 64.796875 
L 19.671875 37.40625 
L 32.078125 37.40625 
Q 38.96875 37.40625 42.71875 40.96875 
Q 46.484375 44.53125 46.484375 51.125 
Q 46.484375 57.671875 42.71875 61.234375 
Q 38.96875 64.796875 32.078125 64.796875 
z
M 9.8125 72.90625 
L 32.078125 72.90625 
Q 44.34375 72.90625 50.609375 67.359375 
Q 56.890625 61.8125 56.890625 51.125 
Q 56.890625 40.328125 50.609375 34.8125 
Q 44.34375 29.296875 32.078125 29.296875 
L 19.671875 29.296875 
L 19.671875 0 
L 9.8125 0 
z
" id="DejaVuSans-80"/>
     <path d="M 9.8125 72.90625 
L 19.671875 72.90625 
L 19.671875 0 
L 9.8125 0 
z
" id="DejaVuSans-73"/>
    </defs>
    <g transform="translate(361.8625 124.345312)scale(0.1 -0.1)">
     <use xlink:href="#DejaVuSans-72"/>
     <use x="75.195312" xlink:href="#DejaVuSans-80"/>
     <use x="135.498047" xlink:href="#DejaVuSans-73"/>
     <use x="164.990234" xlink:href="#DejaVuSans-32"/>
     <use x="196.777344" xlink:href="#DejaVuSans-40"/>
     <use x="235.791016" xlink:href="#DejaVuSans-51"/>
     <use x="299.414062" xlink:href="#DejaVuSans-56"/>
     <use x="363.037109" xlink:href="#DejaVuSans-41"/>
    </g>
   </g>
   <g id="line2d_65">
    <path d="M 333.8625 135.523438 
L 353.8625 135.523438 
" style="fill:none;stroke:#666666;stroke-linecap:square;stroke-width:1.5;"/>
   </g>
   <g id="line2d_66"/>
   <g id="text_28">
    <!-- TBI (28) -->
    <defs>
     <path d="M -0.296875 72.90625 
L 61.375 72.90625 
L 61.375 64.59375 
L 35.5 64.59375 
L 35.5 0 
L 25.59375 0 
L 25.59375 64.59375 
L -0.296875 64.59375 
z
" id="DejaVuSans-84"/>
     <path d="M 19.671875 34.8125 
L 19.671875 8.109375 
L 35.5 8.109375 
Q 43.453125 8.109375 47.28125 11.40625 
Q 51.125 14.703125 51.125 21.484375 
Q 51.125 28.328125 47.28125 31.5625 
Q 43.453125 34.8125 35.5 34.8125 
z
M 19.671875 64.796875 
L 19.671875 42.828125 
L 34.28125 42.828125 
Q 41.5 42.828125 45.03125 45.53125 
Q 48.578125 48.25 48.578125 53.8125 
Q 48.578125 59.328125 45.03125 62.0625 
Q 41.5 64.796875 34.28125 64.796875 
z
M 9.8125 72.90625 
L 35.015625 72.90625 
Q 46.296875 72.90625 52.390625 68.21875 
Q 58.5 63.53125 58.5 54.890625 
Q 58.5 48.1875 55.375 44.234375 
Q 52.25 40.28125 46.1875 39.3125 
Q 53.46875 37.75 57.5 32.78125 
Q 61.53125 27.828125 61.53125 20.40625 
Q 61.53125 10.640625 54.890625 5.3125 
Q 48.25 0 35.984375 0 
L 9.8125 0 
z
" id="DejaVuSans-66"/>
    </defs>
    <g transform="translate(361.8625 139.023438)scale(0.1 -0.1)">
     <use xlink:href="#DejaVuSans-84"/>
     <use x="61.083984" xlink:href="#DejaVuSans-66"/>
     <use x="129.6875" xlink:href="#DejaVuSans-73"/>
     <use x="159.179688" xlink:href="#DejaVuSans-32"/>
     <use x="190.966797" xlink:href="#DejaVuSans-40"/>
     <use x="229.980469" xlink:href="#DejaVuSans-50"/>
     <use x="293.603516" xlink:href="#DejaVuSans-56"/>
     <use x="357.226562" xlink:href="#DejaVuSans-41"/>
    </g>
   </g>
   <g id="line2d_67">
    <path d="M 333.8625 150.201562 
L 353.8625 150.201562 
" style="fill:none;stroke:#1b9e77;stroke-dasharray:4.5,1.5;stroke-dashoffset:0;stroke-width:1.5;"/>
   </g>
   <g id="line2d_68"/>
   <g id="text_29">
    <!-- FIT (27) -->
    <defs>
     <path d="M 9.8125 72.90625 
L 51.703125 72.90625 
L 51.703125 64.59375 
L 19.671875 64.59375 
L 19.671875 43.109375 
L 48.578125 43.109375 
L 48.578125 34.8125 
L 19.671875 34.8125 
L 19.671875 0 
L 9.8125 0 
z
" id="DejaVuSans-70"/>
     <path d="M 8.203125 72.90625 
L 55.078125 72.90625 
L 55.078125 68.703125 
L 28.609375 0 
L 18.3125 0 
L 43.21875 64.59375 
L 8.203125 64.59375 
z
" id="DejaVuSans-55"/>
    </defs>
    <g transform="translate(361.8625 153.701562)scale(0.1 -0.1)">
     <use xlink:href="#DejaVuSans-70"/>
     <use x="57.519531" xlink:href="#DejaVuSans-73"/>
     <use x="87.011719" xlink:href="#DejaVuSans-84"/>
     <use x="148.095703" xlink:href="#DejaVuSans-32"/>
     <use x="179.882812" xlink:href="#DejaVuSans-40"/>
     <use x="218.896484" xlink:href="#DejaVuSans-50"/>
     <use x="282.519531" xlink:href="#DejaVuSans-55"/>
     <use x="346.142578" xlink:href="#DejaVuSans-41"/>
    </g>
   </g>
   <g id="line2d_69">
    <path d="M 333.8625 164.879687 
L 353.8625 164.879687 
" style="fill:none;stroke:#d95f02;stroke-dasharray:4.5,1.5;stroke-dashoffset:0;stroke-width:1.5;"/>
   </g>
   <g id="line2d_70"/>
   <g id="text_30">
    <!-- CB (26) -->
    <g transform="translate(361.8625 168.379687)scale(0.1 -0.1)">
     <use xlink:href="#DejaVuSans-67"/>
     <use x="69.824219" xlink:href="#DejaVuSans-66"/>
     <use x="138.427734" xlink:href="#DejaVuSans-32"/>
     <use x="170.214844" xlink:href="#DejaVuSans-40"/>
     <use x="209.228516" xlink:href="#DejaVuSans-50"/>
     <use x="272.851562" xlink:href="#DejaVuSans-54"/>
     <use x="336.474609" xlink:href="#DejaVuSans-41"/>
    </g>
   </g>
   <g id="line2d_71">
    <path d="M 333.8625 179.557812 
L 353.8625 179.557812 
" style="fill:none;stroke:#7570b3;stroke-dasharray:4.5,1.5;stroke-dashoffset:0;stroke-width:1.5;"/>
   </g>
   <g id="line2d_72"/>
   <g id="text_31">
    <!-- BP (26) -->
    <g transform="translate(361.8625 183.057812)scale(0.1 -0.1)">
     <use xlink:href="#DejaVuSans-66"/>
     <use x="68.603516" xlink:href="#DejaVuSans-80"/>
     <use x="128.90625" xlink:href="#DejaVuSans-32"/>
     <use x="160.693359" xlink:href="#DejaVuSans-40"/>
     <use x="199.707031" xlink:href="#DejaVuSans-50"/>
     <use x="263.330078" xlink:href="#DejaVuSans-54"/>
     <use x="326.953125" xlink:href="#DejaVuSans-41"/>
    </g>
   </g>
   <g id="line2d_73">
    <path d="M 333.8625 194.235937 
L 353.8625 194.235937 
" style="fill:none;stroke:#e7298a;stroke-dasharray:4.5,1.5;stroke-dashoffset:0;stroke-width:1.5;"/>
   </g>
   <g id="line2d_74"/>
   <g id="text_32">
    <!-- CC (25) -->
    <g transform="translate(361.8625 197.735937)scale(0.1 -0.1)">
     <use xlink:href="#DejaVuSans-67"/>
     <use x="69.824219" xlink:href="#DejaVuSans-67"/>
     <use x="139.648438" xlink:href="#DejaVuSans-32"/>
     <use x="171.435547" xlink:href="#DejaVuSans-40"/>
     <use x="210.449219" xlink:href="#DejaVuSans-50"/>
     <use x="274.072266" xlink:href="#DejaVuSans-53"/>
     <use x="337.695312" xlink:href="#DejaVuSans-41"/>
    </g>
   </g>
   <g id="line2d_75">
    <path d="M 333.8625 208.914062 
L 353.8625 208.914062 
" style="fill:none;stroke:#66a61e;stroke-dasharray:4.5,1.5;stroke-dashoffset:0;stroke-width:1.5;"/>
   </g>
   <g id="line2d_76"/>
   <g id="text_33">
    <!-- RJPH (24) -->
    <defs>
     <path d="M 9.8125 72.90625 
L 19.671875 72.90625 
L 19.671875 5.078125 
Q 19.671875 -8.109375 14.671875 -14.0625 
Q 9.671875 -20.015625 -1.421875 -20.015625 
L -5.171875 -20.015625 
L -5.171875 -11.71875 
L -2.09375 -11.71875 
Q 4.4375 -11.71875 7.125 -8.046875 
Q 9.8125 -4.390625 9.8125 5.078125 
z
" id="DejaVuSans-74"/>
    </defs>
    <g transform="translate(361.8625 212.414062)scale(0.1 -0.1)">
     <use xlink:href="#DejaVuSans-82"/>
     <use x="69.482422" xlink:href="#DejaVuSans-74"/>
     <use x="98.974609" xlink:href="#DejaVuSans-80"/>
     <use x="159.277344" xlink:href="#DejaVuSans-72"/>
     <use x="234.472656" xlink:href="#DejaVuSans-32"/>
     <use x="266.259766" xlink:href="#DejaVuSans-40"/>
     <use x="305.273438" xlink:href="#DejaVuSans-50"/>
     <use x="368.896484" xlink:href="#DejaVuSans-52"/>
     <use x="432.519531" xlink:href="#DejaVuSans-41"/>
    </g>
   </g>
   <g id="line2d_77">
    <path d="M 333.8625 223.592187 
L 353.8625 223.592187 
" style="fill:none;stroke:#e6ab02;stroke-dasharray:4.5,1.5;stroke-dashoffset:0;stroke-width:1.5;"/>
   </g>
   <g id="line2d_78"/>
   <g id="text_34">
    <!-- SPD (24) -->
    <g transform="translate(361.8625 227.092187)scale(0.1 -0.1)">
     <use xlink:href="#DejaVuSans-83"/>
     <use x="63.476562" xlink:href="#DejaVuSans-80"/>
     <use x="123.779297" xlink:href="#DejaVuSans-68"/>
     <use x="200.78125" xlink:href="#DejaVuSans-32"/>
     <use x="232.568359" xlink:href="#DejaVuSans-40"/>
     <use x="271.582031" xlink:href="#DejaVuSans-50"/>
     <use x="335.205078" xlink:href="#DejaVuSans-52"/>
     <use x="398.828125" xlink:href="#DejaVuSans-41"/>
    </g>
   </g>
   <g id="line2d_79">
    <path d="M 333.8625 238.270312 
L 353.8625 238.270312 
" style="fill:none;stroke:#a6761d;stroke-dasharray:4.5,1.5;stroke-dashoffset:0;stroke-width:1.5;"/>
   </g>
   <g id="line2d_80"/>
   <g id="text_35">
    <!-- AHR-H (20) -->
    <g transform="translate(361.8625 241.770312)scale(0.1 -0.1)">
     <use xlink:href="#DejaVuSans-65"/>
     <use x="68.408203" xlink:href="#DejaVuSans-72"/>
     <use x="143.603516" xlink:href="#DejaVuSans-82"/>
     <use x="213.023438" xlink:href="#DejaVuSans-45"/>
     <use x="249.107422" xlink:href="#DejaVuSans-72"/>
     <use x="324.302734" xlink:href="#DejaVuSans-32"/>
     <use x="356.089844" xlink:href="#DejaVuSans-40"/>
     <use x="395.103516" xlink:href="#DejaVuSans-50"/>
     <use x="458.726562" xlink:href="#DejaVuSans-48"/>
     <use x="522.349609" xlink:href="#DejaVuSans-41"/>
    </g>
   </g>
   <g id="line2d_81">
    <path d="M 333.8625 252.948437 
L 353.8625 252.948437 
" style="fill:none;stroke:#666666;stroke-dasharray:4.5,1.5;stroke-dashoffset:0;stroke-width:1.5;"/>
   </g>
   <g id="line2d_82"/>
   <g id="text_36">
    <!-- AHR-A (20) -->
    <g transform="translate(361.8625 256.448437)scale(0.1 -0.1)">
     <use xlink:href="#DejaVuSans-65"/>
     <use x="68.408203" xlink:href="#DejaVuSans-72"/>
     <use x="143.603516" xlink:href="#DejaVuSans-82"/>
     <use x="213.023438" xlink:href="#DejaVuSans-45"/>
     <use x="249.076172" xlink:href="#DejaVuSans-65"/>
     <use x="317.484375" xlink:href="#DejaVuSans-32"/>
     <use x="349.271484" xlink:href="#DejaVuSans-40"/>
     <use x="388.285156" xlink:href="#DejaVuSans-50"/>
     <use x="451.908203" xlink:href="#DejaVuSans-48"/>
     <use x="515.53125" xlink:href="#DejaVuSans-41"/>
    </g>
   </g>
  </g>
 </g>
 <defs>
  <clipPath id="p4e84fde3be">
   <rect height="207.330771" width="271.81" x="43.55" y="12.9"/>
  </clipPath>
 </defs>
</svg>
