<?xml version="1.0" encoding="utf-8" standalone="no"?>
<!DOCTYPE svg PUBLIC "-//W3C//DTD SVG 1.1//EN"
  "http://www.w3.org/Graphics/SVG/1.1/DTD/svg11.dtd">
<!-- Created with matplotlib (https://matplotlib.org/) -->
<svg height="288pt" version="1.1" viewBox="0 0 432 288" width="432pt" xmlns="http://www.w3.org/2000/svg" xmlns:xlink="http://www.w3.org/1999/xlink">
 <defs>
  <style type="text/css">
*{stroke-linecap:butt;stroke-linejoin:round;}
  </style>
 </defs>
 <g id="figure_1">
  <g id="patch_1">
   <path d="M 0 288 
L 432 288 
L 432 0 
L 0 0 
z
" style="fill:#ffffff;"/>
  </g>
  <g id="axes_1">
   <g id="patch_2">
    <path d="M 43.55 220.230771 
L 315.36 220.230771 
L 315.36 12.9 
L 43.55 12.9 
z
" style="fill:#ffffff;"/>
   </g>
   <g id="matplotlib.axis_1">
    <g id="xtick_1">
     <g id="line2d_1">
      <defs>
       <path d="M 0 0 
L 0 3.5 
" id="m2f99b46d83" style="stroke:#000000;stroke-width:0.8;"/>
      </defs>
      <g>
       <use style="stroke:#000000;stroke-width:0.8;" x="45.360461" xlink:href="#m2f99b46d83" y="220.230771"/>
      </g>
     </g>
     <g id="text_1">
      <!-- 2020-11-29 -->
      <defs>
       <path d="M 19.1875 8.296875 
L 53.609375 8.296875 
L 53.609375 0 
L 7.328125 0 
L 7.328125 8.296875 
Q 12.9375 14.109375 22.625 23.890625 
Q 32.328125 33.6875 34.8125 36.53125 
Q 39.546875 41.84375 41.421875 45.53125 
Q 43.3125 49.21875 43.3125 52.78125 
Q 43.3125 58.59375 39.234375 62.25 
Q 35.15625 65.921875 28.609375 65.921875 
Q 23.96875 65.921875 18.8125 64.3125 
Q 13.671875 62.703125 7.8125 59.421875 
L 7.8125 69.390625 
Q 13.765625 71.78125 18.9375 73 
Q 24.125 74.21875 28.421875 74.21875 
Q 39.75 74.21875 46.484375 68.546875 
Q 53.21875 62.890625 53.21875 53.421875 
Q 53.21875 48.921875 51.53125 44.890625 
Q 49.859375 40.875 45.40625 35.40625 
Q 44.1875 33.984375 37.640625 27.21875 
Q 31.109375 20.453125 19.1875 8.296875 
z
" id="DejaVuSans-50"/>
       <path d="M 31.78125 66.40625 
Q 24.171875 66.40625 20.328125 58.90625 
Q 16.5 51.421875 16.5 36.375 
Q 16.5 21.390625 20.328125 13.890625 
Q 24.171875 6.390625 31.78125 6.390625 
Q 39.453125 6.390625 43.28125 13.890625 
Q 47.125 21.390625 47.125 36.375 
Q 47.125 51.421875 43.28125 58.90625 
Q 39.453125 66.40625 31.78125 66.40625 
z
M 31.78125 74.21875 
Q 44.046875 74.21875 50.515625 64.515625 
Q 56.984375 54.828125 56.984375 36.375 
Q 56.984375 17.96875 50.515625 8.265625 
Q 44.046875 -1.421875 31.78125 -1.421875 
Q 19.53125 -1.421875 13.0625 8.265625 
Q 6.59375 17.96875 6.59375 36.375 
Q 6.59375 54.828125 13.0625 64.515625 
Q 19.53125 74.21875 31.78125 74.21875 
z
" id="DejaVuSans-48"/>
       <path d="M 4.890625 31.390625 
L 31.203125 31.390625 
L 31.203125 23.390625 
L 4.890625 23.390625 
z
" id="DejaVuSans-45"/>
       <path d="M 12.40625 8.296875 
L 28.515625 8.296875 
L 28.515625 63.921875 
L 10.984375 60.40625 
L 10.984375 69.390625 
L 28.421875 72.90625 
L 38.28125 72.90625 
L 38.28125 8.296875 
L 54.390625 8.296875 
L 54.390625 0 
L 12.40625 0 
z
" id="DejaVuSans-49"/>
       <path d="M 10.984375 1.515625 
L 10.984375 10.5 
Q 14.703125 8.734375 18.5 7.8125 
Q 22.3125 6.890625 25.984375 6.890625 
Q 35.75 6.890625 40.890625 13.453125 
Q 46.046875 20.015625 46.78125 33.40625 
Q 43.953125 29.203125 39.59375 26.953125 
Q 35.25 24.703125 29.984375 24.703125 
Q 19.046875 24.703125 12.671875 31.3125 
Q 6.296875 37.9375 6.296875 49.421875 
Q 6.296875 60.640625 12.9375 67.421875 
Q 19.578125 74.21875 30.609375 74.21875 
Q 43.265625 74.21875 49.921875 64.515625 
Q 56.59375 54.828125 56.59375 36.375 
Q 56.59375 19.140625 48.40625 8.859375 
Q 40.234375 -1.421875 26.421875 -1.421875 
Q 22.703125 -1.421875 18.890625 -0.6875 
Q 15.09375 0.046875 10.984375 1.515625 
z
M 30.609375 32.421875 
Q 37.25 32.421875 41.125 36.953125 
Q 45.015625 41.5 45.015625 49.421875 
Q 45.015625 57.28125 41.125 61.84375 
Q 37.25 66.40625 30.609375 66.40625 
Q 23.96875 66.40625 20.09375 61.84375 
Q 16.21875 57.28125 16.21875 49.421875 
Q 16.21875 41.5 20.09375 36.953125 
Q 23.96875 32.421875 30.609375 32.421875 
z
" id="DejaVuSans-57"/>
      </defs>
      <g transform="translate(21.575345 262.869024)rotate(-30)scale(0.1 -0.1)">
       <use xlink:href="#DejaVuSans-50"/>
       <use x="63.623047" xlink:href="#DejaVuSans-48"/>
       <use x="127.246094" xlink:href="#DejaVuSans-50"/>
       <use x="190.869141" xlink:href="#DejaVuSans-48"/>
       <use x="254.492188" xlink:href="#DejaVuSans-45"/>
       <use x="290.576172" xlink:href="#DejaVuSans-49"/>
       <use x="354.199219" xlink:href="#DejaVuSans-49"/>
       <use x="417.822266" xlink:href="#DejaVuSans-45"/>
       <use x="453.90625" xlink:href="#DejaVuSans-50"/>
       <use x="517.529297" xlink:href="#DejaVuSans-57"/>
      </g>
     </g>
    </g>
    <g id="xtick_2">
     <g id="line2d_2">
      <g>
       <use style="stroke:#000000;stroke-width:0.8;" x="59.922615" xlink:href="#m2f99b46d83" y="220.230771"/>
      </g>
     </g>
     <g id="text_2">
      <!-- 2020-12-01 -->
      <g transform="translate(36.137498 262.869024)rotate(-30)scale(0.1 -0.1)">
       <use xlink:href="#DejaVuSans-50"/>
       <use x="63.623047" xlink:href="#DejaVuSans-48"/>
       <use x="127.246094" xlink:href="#DejaVuSans-50"/>
       <use x="190.869141" xlink:href="#DejaVuSans-48"/>
       <use x="254.492188" xlink:href="#DejaVuSans-45"/>
       <use x="290.576172" xlink:href="#DejaVuSans-49"/>
       <use x="354.199219" xlink:href="#DejaVuSans-50"/>
       <use x="417.822266" xlink:href="#DejaVuSans-45"/>
       <use x="453.90625" xlink:href="#DejaVuSans-48"/>
       <use x="517.529297" xlink:href="#DejaVuSans-49"/>
      </g>
     </g>
    </g>
    <g id="xtick_3">
     <g id="line2d_3">
      <g>
       <use style="stroke:#000000;stroke-width:0.8;" x="89.046921" xlink:href="#m2f99b46d83" y="220.230771"/>
      </g>
     </g>
     <g id="text_3">
      <!-- 2020-12-05 -->
      <defs>
       <path d="M 10.796875 72.90625 
L 49.515625 72.90625 
L 49.515625 64.59375 
L 19.828125 64.59375 
L 19.828125 46.734375 
Q 21.96875 47.46875 24.109375 47.828125 
Q 26.265625 48.1875 28.421875 48.1875 
Q 40.625 48.1875 47.75 41.5 
Q 54.890625 34.8125 54.890625 23.390625 
Q 54.890625 11.625 47.5625 5.09375 
Q 40.234375 -1.421875 26.90625 -1.421875 
Q 22.3125 -1.421875 17.546875 -0.640625 
Q 12.796875 0.140625 7.71875 1.703125 
L 7.71875 11.625 
Q 12.109375 9.234375 16.796875 8.0625 
Q 21.484375 6.890625 26.703125 6.890625 
Q 35.15625 6.890625 40.078125 11.328125 
Q 45.015625 15.765625 45.015625 23.390625 
Q 45.015625 31 40.078125 35.4375 
Q 35.15625 39.890625 26.703125 39.890625 
Q 22.75 39.890625 18.8125 39.015625 
Q 14.890625 38.140625 10.796875 36.28125 
z
" id="DejaVuSans-53"/>
      </defs>
      <g transform="translate(65.261805 262.869024)rotate(-30)scale(0.1 -0.1)">
       <use xlink:href="#DejaVuSans-50"/>
       <use x="63.623047" xlink:href="#DejaVuSans-48"/>
       <use x="127.246094" xlink:href="#DejaVuSans-50"/>
       <use x="190.869141" xlink:href="#DejaVuSans-48"/>
       <use x="254.492188" xlink:href="#DejaVuSans-45"/>
       <use x="290.576172" xlink:href="#DejaVuSans-49"/>
       <use x="354.199219" xlink:href="#DejaVuSans-50"/>
       <use x="417.822266" xlink:href="#DejaVuSans-45"/>
       <use x="453.90625" xlink:href="#DejaVuSans-48"/>
       <use x="517.529297" xlink:href="#DejaVuSans-53"/>
      </g>
     </g>
    </g>
    <g id="xtick_4">
     <g id="line2d_4">
      <g>
       <use style="stroke:#000000;stroke-width:0.8;" x="118.171228" xlink:href="#m2f99b46d83" y="220.230771"/>
      </g>
     </g>
     <g id="text_4">
      <!-- 2020-12-09 -->
      <g transform="translate(94.386111 262.869024)rotate(-30)scale(0.1 -0.1)">
       <use xlink:href="#DejaVuSans-50"/>
       <use x="63.623047" xlink:href="#DejaVuSans-48"/>
       <use x="127.246094" xlink:href="#DejaVuSans-50"/>
       <use x="190.869141" xlink:href="#DejaVuSans-48"/>
       <use x="254.492188" xlink:href="#DejaVuSans-45"/>
       <use x="290.576172" xlink:href="#DejaVuSans-49"/>
       <use x="354.199219" xlink:href="#DejaVuSans-50"/>
       <use x="417.822266" xlink:href="#DejaVuSans-45"/>
       <use x="453.90625" xlink:href="#DejaVuSans-48"/>
       <use x="517.529297" xlink:href="#DejaVuSans-57"/>
      </g>
     </g>
    </g>
    <g id="xtick_5">
     <g id="line2d_5">
      <g>
       <use style="stroke:#000000;stroke-width:0.8;" x="147.295534" xlink:href="#m2f99b46d83" y="220.230771"/>
      </g>
     </g>
     <g id="text_5">
      <!-- 2020-12-13 -->
      <defs>
       <path d="M 40.578125 39.3125 
Q 47.65625 37.796875 51.625 33 
Q 55.609375 28.21875 55.609375 21.1875 
Q 55.609375 10.40625 48.1875 4.484375 
Q 40.765625 -1.421875 27.09375 -1.421875 
Q 22.515625 -1.421875 17.65625 -0.515625 
Q 12.796875 0.390625 7.625 2.203125 
L 7.625 11.71875 
Q 11.71875 9.328125 16.59375 8.109375 
Q 21.484375 6.890625 26.8125 6.890625 
Q 36.078125 6.890625 40.9375 10.546875 
Q 45.796875 14.203125 45.796875 21.1875 
Q 45.796875 27.640625 41.28125 31.265625 
Q 36.765625 34.90625 28.71875 34.90625 
L 20.21875 34.90625 
L 20.21875 43.015625 
L 29.109375 43.015625 
Q 36.375 43.015625 40.234375 45.921875 
Q 44.09375 48.828125 44.09375 54.296875 
Q 44.09375 59.90625 40.109375 62.90625 
Q 36.140625 65.921875 28.71875 65.921875 
Q 24.65625 65.921875 20.015625 65.03125 
Q 15.375 64.15625 9.8125 62.3125 
L 9.8125 71.09375 
Q 15.4375 72.65625 20.34375 73.4375 
Q 25.25 74.21875 29.59375 74.21875 
Q 40.828125 74.21875 47.359375 69.109375 
Q 53.90625 64.015625 53.90625 55.328125 
Q 53.90625 49.265625 50.4375 45.09375 
Q 46.96875 40.921875 40.578125 39.3125 
z
" id="DejaVuSans-51"/>
      </defs>
      <g transform="translate(123.510418 262.869024)rotate(-30)scale(0.1 -0.1)">
       <use xlink:href="#DejaVuSans-50"/>
       <use x="63.623047" xlink:href="#DejaVuSans-48"/>
       <use x="127.246094" xlink:href="#DejaVuSans-50"/>
       <use x="190.869141" xlink:href="#DejaVuSans-48"/>
       <use x="254.492188" xlink:href="#DejaVuSans-45"/>
       <use x="290.576172" xlink:href="#DejaVuSans-49"/>
       <use x="354.199219" xlink:href="#DejaVuSans-50"/>
       <use x="417.822266" xlink:href="#DejaVuSans-45"/>
       <use x="453.90625" xlink:href="#DejaVuSans-49"/>
       <use x="517.529297" xlink:href="#DejaVuSans-51"/>
      </g>
     </g>
    </g>
    <g id="xtick_6">
     <g id="line2d_6">
      <g>
       <use style="stroke:#000000;stroke-width:0.8;" x="176.419841" xlink:href="#m2f99b46d83" y="220.230771"/>
      </g>
     </g>
     <g id="text_6">
      <!-- 2020-12-17 -->
      <defs>
       <path d="M 8.203125 72.90625 
L 55.078125 72.90625 
L 55.078125 68.703125 
L 28.609375 0 
L 18.3125 0 
L 43.21875 64.59375 
L 8.203125 64.59375 
z
" id="DejaVuSans-55"/>
      </defs>
      <g transform="translate(152.634725 262.869024)rotate(-30)scale(0.1 -0.1)">
       <use xlink:href="#DejaVuSans-50"/>
       <use x="63.623047" xlink:href="#DejaVuSans-48"/>
       <use x="127.246094" xlink:href="#DejaVuSans-50"/>
       <use x="190.869141" xlink:href="#DejaVuSans-48"/>
       <use x="254.492188" xlink:href="#DejaVuSans-45"/>
       <use x="290.576172" xlink:href="#DejaVuSans-49"/>
       <use x="354.199219" xlink:href="#DejaVuSans-50"/>
       <use x="417.822266" xlink:href="#DejaVuSans-45"/>
       <use x="453.90625" xlink:href="#DejaVuSans-49"/>
       <use x="517.529297" xlink:href="#DejaVuSans-55"/>
      </g>
     </g>
    </g>
    <g id="xtick_7">
     <g id="line2d_7">
      <g>
       <use style="stroke:#000000;stroke-width:0.8;" x="205.544147" xlink:href="#m2f99b46d83" y="220.230771"/>
      </g>
     </g>
     <g id="text_7">
      <!-- 2020-12-21 -->
      <g transform="translate(181.759031 262.869024)rotate(-30)scale(0.1 -0.1)">
       <use xlink:href="#DejaVuSans-50"/>
       <use x="63.623047" xlink:href="#DejaVuSans-48"/>
       <use x="127.246094" xlink:href="#DejaVuSans-50"/>
       <use x="190.869141" xlink:href="#DejaVuSans-48"/>
       <use x="254.492188" xlink:href="#DejaVuSans-45"/>
       <use x="290.576172" xlink:href="#DejaVuSans-49"/>
       <use x="354.199219" xlink:href="#DejaVuSans-50"/>
       <use x="417.822266" xlink:href="#DejaVuSans-45"/>
       <use x="453.90625" xlink:href="#DejaVuSans-50"/>
       <use x="517.529297" xlink:href="#DejaVuSans-49"/>
      </g>
     </g>
    </g>
    <g id="xtick_8">
     <g id="line2d_8">
      <g>
       <use style="stroke:#000000;stroke-width:0.8;" x="234.668454" xlink:href="#m2f99b46d83" y="220.230771"/>
      </g>
     </g>
     <g id="text_8">
      <!-- 2020-12-25 -->
      <g transform="translate(210.883338 262.869024)rotate(-30)scale(0.1 -0.1)">
       <use xlink:href="#DejaVuSans-50"/>
       <use x="63.623047" xlink:href="#DejaVuSans-48"/>
       <use x="127.246094" xlink:href="#DejaVuSans-50"/>
       <use x="190.869141" xlink:href="#DejaVuSans-48"/>
       <use x="254.492188" xlink:href="#DejaVuSans-45"/>
       <use x="290.576172" xlink:href="#DejaVuSans-49"/>
       <use x="354.199219" xlink:href="#DejaVuSans-50"/>
       <use x="417.822266" xlink:href="#DejaVuSans-45"/>
       <use x="453.90625" xlink:href="#DejaVuSans-50"/>
       <use x="517.529297" xlink:href="#DejaVuSans-53"/>
      </g>
     </g>
    </g>
    <g id="xtick_9">
     <g id="line2d_9">
      <g>
       <use style="stroke:#000000;stroke-width:0.8;" x="263.792761" xlink:href="#m2f99b46d83" y="220.230771"/>
      </g>
     </g>
     <g id="text_9">
      <!-- 2020-12-29 -->
      <g transform="translate(240.007644 262.869024)rotate(-30)scale(0.1 -0.1)">
       <use xlink:href="#DejaVuSans-50"/>
       <use x="63.623047" xlink:href="#DejaVuSans-48"/>
       <use x="127.246094" xlink:href="#DejaVuSans-50"/>
       <use x="190.869141" xlink:href="#DejaVuSans-48"/>
       <use x="254.492188" xlink:href="#DejaVuSans-45"/>
       <use x="290.576172" xlink:href="#DejaVuSans-49"/>
       <use x="354.199219" xlink:href="#DejaVuSans-50"/>
       <use x="417.822266" xlink:href="#DejaVuSans-45"/>
       <use x="453.90625" xlink:href="#DejaVuSans-50"/>
       <use x="517.529297" xlink:href="#DejaVuSans-57"/>
      </g>
     </g>
    </g>
    <g id="xtick_10">
     <g id="line2d_10">
      <g>
       <use style="stroke:#000000;stroke-width:0.8;" x="285.63599" xlink:href="#m2f99b46d83" y="220.230771"/>
      </g>
     </g>
     <g id="text_10">
      <!-- 2021-01-01 -->
      <g transform="translate(261.850874 262.869024)rotate(-30)scale(0.1 -0.1)">
       <use xlink:href="#DejaVuSans-50"/>
       <use x="63.623047" xlink:href="#DejaVuSans-48"/>
       <use x="127.246094" xlink:href="#DejaVuSans-50"/>
       <use x="190.869141" xlink:href="#DejaVuSans-49"/>
       <use x="254.492188" xlink:href="#DejaVuSans-45"/>
       <use x="290.576172" xlink:href="#DejaVuSans-48"/>
       <use x="354.199219" xlink:href="#DejaVuSans-49"/>
       <use x="417.822266" xlink:href="#DejaVuSans-45"/>
       <use x="453.90625" xlink:href="#DejaVuSans-48"/>
       <use x="517.529297" xlink:href="#DejaVuSans-49"/>
      </g>
     </g>
    </g>
    <g id="xtick_11">
     <g id="line2d_11">
      <g>
       <use style="stroke:#000000;stroke-width:0.8;" x="314.760297" xlink:href="#m2f99b46d83" y="220.230771"/>
      </g>
     </g>
     <g id="text_11">
      <!-- 2021-01-05 -->
      <g transform="translate(290.975181 262.869024)rotate(-30)scale(0.1 -0.1)">
       <use xlink:href="#DejaVuSans-50"/>
       <use x="63.623047" xlink:href="#DejaVuSans-48"/>
       <use x="127.246094" xlink:href="#DejaVuSans-50"/>
       <use x="190.869141" xlink:href="#DejaVuSans-49"/>
       <use x="254.492188" xlink:href="#DejaVuSans-45"/>
       <use x="290.576172" xlink:href="#DejaVuSans-48"/>
       <use x="354.199219" xlink:href="#DejaVuSans-49"/>
       <use x="417.822266" xlink:href="#DejaVuSans-45"/>
       <use x="453.90625" xlink:href="#DejaVuSans-48"/>
       <use x="517.529297" xlink:href="#DejaVuSans-53"/>
      </g>
     </g>
    </g>
    <g id="text_12">
     <!-- Date -->
     <defs>
      <path d="M 19.671875 64.796875 
L 19.671875 8.109375 
L 31.59375 8.109375 
Q 46.6875 8.109375 53.6875 14.9375 
Q 60.6875 21.78125 60.6875 36.53125 
Q 60.6875 51.171875 53.6875 57.984375 
Q 46.6875 64.796875 31.59375 64.796875 
z
M 9.8125 72.90625 
L 30.078125 72.90625 
Q 51.265625 72.90625 61.171875 64.09375 
Q 71.09375 55.28125 71.09375 36.53125 
Q 71.09375 17.671875 61.125 8.828125 
Q 51.171875 0 30.078125 0 
L 9.8125 0 
z
" id="DejaVuSans-68"/>
      <path d="M 34.28125 27.484375 
Q 23.390625 27.484375 19.1875 25 
Q 14.984375 22.515625 14.984375 16.5 
Q 14.984375 11.71875 18.140625 8.90625 
Q 21.296875 6.109375 26.703125 6.109375 
Q 34.1875 6.109375 38.703125 11.40625 
Q 43.21875 16.703125 43.21875 25.484375 
L 43.21875 27.484375 
z
M 52.203125 31.203125 
L 52.203125 0 
L 43.21875 0 
L 43.21875 8.296875 
Q 40.140625 3.328125 35.546875 0.953125 
Q 30.953125 -1.421875 24.3125 -1.421875 
Q 15.921875 -1.421875 10.953125 3.296875 
Q 6 8.015625 6 15.921875 
Q 6 25.140625 12.171875 29.828125 
Q 18.359375 34.515625 30.609375 34.515625 
L 43.21875 34.515625 
L 43.21875 35.40625 
Q 43.21875 41.609375 39.140625 45 
Q 35.0625 48.390625 27.6875 48.390625 
Q 23 48.390625 18.546875 47.265625 
Q 14.109375 46.140625 10.015625 43.890625 
L 10.015625 52.203125 
Q 14.9375 54.109375 19.578125 55.046875 
Q 24.21875 56 28.609375 56 
Q 40.484375 56 46.34375 49.84375 
Q 52.203125 43.703125 52.203125 31.203125 
z
" id="DejaVuSans-97"/>
      <path d="M 18.3125 70.21875 
L 18.3125 54.6875 
L 36.8125 54.6875 
L 36.8125 47.703125 
L 18.3125 47.703125 
L 18.3125 18.015625 
Q 18.3125 11.328125 20.140625 9.421875 
Q 21.96875 7.515625 27.59375 7.515625 
L 36.8125 7.515625 
L 36.8125 0 
L 27.59375 0 
Q 17.1875 0 13.234375 3.875 
Q 9.28125 7.765625 9.28125 18.015625 
L 9.28125 47.703125 
L 2.6875 47.703125 
L 2.6875 54.6875 
L 9.28125 54.6875 
L 9.28125 70.21875 
z
" id="DejaVuSans-116"/>
      <path d="M 56.203125 29.59375 
L 56.203125 25.203125 
L 14.890625 25.203125 
Q 15.484375 15.921875 20.484375 11.0625 
Q 25.484375 6.203125 34.421875 6.203125 
Q 39.59375 6.203125 44.453125 7.46875 
Q 49.3125 8.734375 54.109375 11.28125 
L 54.109375 2.78125 
Q 49.265625 0.734375 44.1875 -0.34375 
Q 39.109375 -1.421875 33.890625 -1.421875 
Q 20.796875 -1.421875 13.15625 6.1875 
Q 5.515625 13.8125 5.515625 26.8125 
Q 5.515625 40.234375 12.765625 48.109375 
Q 20.015625 56 32.328125 56 
Q 43.359375 56 49.78125 48.890625 
Q 56.203125 41.796875 56.203125 29.59375 
z
M 47.21875 32.234375 
Q 47.125 39.59375 43.09375 43.984375 
Q 39.0625 48.390625 32.421875 48.390625 
Q 24.90625 48.390625 20.390625 44.140625 
Q 15.875 39.890625 15.1875 32.171875 
z
" id="DejaVuSans-101"/>
     </defs>
     <g transform="translate(167.504219 276.268523)scale(0.1 -0.1)">
      <use xlink:href="#DejaVuSans-68"/>
      <use x="77.001953" xlink:href="#DejaVuSans-97"/>
      <use x="138.28125" xlink:href="#DejaVuSans-116"/>
      <use x="177.490234" xlink:href="#DejaVuSans-101"/>
     </g>
    </g>
   </g>
   <g id="matplotlib.axis_2">
    <g id="ytick_1">
     <g id="line2d_12">
      <defs>
       <path d="M 0 0 
L -3.5 0 
" id="mac2f5f29f2" style="stroke:#000000;stroke-width:0.8;"/>
      </defs>
      <g>
       <use style="stroke:#000000;stroke-width:0.8;" x="43.55" xlink:href="#mac2f5f29f2" y="210.806645"/>
      </g>
     </g>
     <g id="text_13">
      <!-- 0 -->
      <g transform="translate(30.1875 214.605864)scale(0.1 -0.1)">
       <use xlink:href="#DejaVuSans-48"/>
      </g>
     </g>
    </g>
    <g id="ytick_2">
     <g id="line2d_13">
      <g>
       <use style="stroke:#000000;stroke-width:0.8;" x="43.55" xlink:href="#mac2f5f29f2" y="187.24633"/>
      </g>
     </g>
     <g id="text_14">
      <!-- 5 -->
      <g transform="translate(30.1875 191.045549)scale(0.1 -0.1)">
       <use xlink:href="#DejaVuSans-53"/>
      </g>
     </g>
    </g>
    <g id="ytick_3">
     <g id="line2d_14">
      <g>
       <use style="stroke:#000000;stroke-width:0.8;" x="43.55" xlink:href="#mac2f5f29f2" y="163.686016"/>
      </g>
     </g>
     <g id="text_15">
      <!-- 10 -->
      <g transform="translate(23.825 167.485234)scale(0.1 -0.1)">
       <use xlink:href="#DejaVuSans-49"/>
       <use x="63.623047" xlink:href="#DejaVuSans-48"/>
      </g>
     </g>
    </g>
    <g id="ytick_4">
     <g id="line2d_15">
      <g>
       <use style="stroke:#000000;stroke-width:0.8;" x="43.55" xlink:href="#mac2f5f29f2" y="140.125701"/>
      </g>
     </g>
     <g id="text_16">
      <!-- 15 -->
      <g transform="translate(23.825 143.924919)scale(0.1 -0.1)">
       <use xlink:href="#DejaVuSans-49"/>
       <use x="63.623047" xlink:href="#DejaVuSans-53"/>
      </g>
     </g>
    </g>
    <g id="ytick_5">
     <g id="line2d_16">
      <g>
       <use style="stroke:#000000;stroke-width:0.8;" x="43.55" xlink:href="#mac2f5f29f2" y="116.565386"/>
      </g>
     </g>
     <g id="text_17">
      <!-- 20 -->
      <g transform="translate(23.825 120.364604)scale(0.1 -0.1)">
       <use xlink:href="#DejaVuSans-50"/>
       <use x="63.623047" xlink:href="#DejaVuSans-48"/>
      </g>
     </g>
    </g>
    <g id="ytick_6">
     <g id="line2d_17">
      <g>
       <use style="stroke:#000000;stroke-width:0.8;" x="43.55" xlink:href="#mac2f5f29f2" y="93.005071"/>
      </g>
     </g>
     <g id="text_18">
      <!-- 25 -->
      <g transform="translate(23.825 96.80429)scale(0.1 -0.1)">
       <use xlink:href="#DejaVuSans-50"/>
       <use x="63.623047" xlink:href="#DejaVuSans-53"/>
      </g>
     </g>
    </g>
    <g id="ytick_7">
     <g id="line2d_18">
      <g>
       <use style="stroke:#000000;stroke-width:0.8;" x="43.55" xlink:href="#mac2f5f29f2" y="69.444756"/>
      </g>
     </g>
     <g id="text_19">
      <!-- 30 -->
      <g transform="translate(23.825 73.243975)scale(0.1 -0.1)">
       <use xlink:href="#DejaVuSans-51"/>
       <use x="63.623047" xlink:href="#DejaVuSans-48"/>
      </g>
     </g>
    </g>
    <g id="ytick_8">
     <g id="line2d_19">
      <g>
       <use style="stroke:#000000;stroke-width:0.8;" x="43.55" xlink:href="#mac2f5f29f2" y="45.884441"/>
      </g>
     </g>
     <g id="text_20">
      <!-- 35 -->
      <g transform="translate(23.825 49.68366)scale(0.1 -0.1)">
       <use xlink:href="#DejaVuSans-51"/>
       <use x="63.623047" xlink:href="#DejaVuSans-53"/>
      </g>
     </g>
    </g>
    <g id="ytick_9">
     <g id="line2d_20">
      <g>
       <use style="stroke:#000000;stroke-width:0.8;" x="43.55" xlink:href="#mac2f5f29f2" y="22.324126"/>
      </g>
     </g>
     <g id="text_21">
      <!-- 40 -->
      <defs>
       <path d="M 37.796875 64.3125 
L 12.890625 25.390625 
L 37.796875 25.390625 
z
M 35.203125 72.90625 
L 47.609375 72.90625 
L 47.609375 25.390625 
L 58.015625 25.390625 
L 58.015625 17.1875 
L 47.609375 17.1875 
L 47.609375 0 
L 37.796875 0 
L 37.796875 17.1875 
L 4.890625 17.1875 
L 4.890625 26.703125 
z
" id="DejaVuSans-52"/>
      </defs>
      <g transform="translate(23.825 26.123345)scale(0.1 -0.1)">
       <use xlink:href="#DejaVuSans-52"/>
       <use x="63.623047" xlink:href="#DejaVuSans-48"/>
      </g>
     </g>
    </g>
    <g id="text_22">
     <!-- Students Registered -->
     <defs>
      <path d="M 53.515625 70.515625 
L 53.515625 60.890625 
Q 47.90625 63.578125 42.921875 64.890625 
Q 37.9375 66.21875 33.296875 66.21875 
Q 25.25 66.21875 20.875 63.09375 
Q 16.5 59.96875 16.5 54.203125 
Q 16.5 49.359375 19.40625 46.890625 
Q 22.3125 44.4375 30.421875 42.921875 
L 36.375 41.703125 
Q 47.40625 39.59375 52.65625 34.296875 
Q 57.90625 29 57.90625 20.125 
Q 57.90625 9.515625 50.796875 4.046875 
Q 43.703125 -1.421875 29.984375 -1.421875 
Q 24.8125 -1.421875 18.96875 -0.25 
Q 13.140625 0.921875 6.890625 3.21875 
L 6.890625 13.375 
Q 12.890625 10.015625 18.65625 8.296875 
Q 24.421875 6.59375 29.984375 6.59375 
Q 38.421875 6.59375 43.015625 9.90625 
Q 47.609375 13.234375 47.609375 19.390625 
Q 47.609375 24.75 44.3125 27.78125 
Q 41.015625 30.8125 33.5 32.328125 
L 27.484375 33.5 
Q 16.453125 35.6875 11.515625 40.375 
Q 6.59375 45.0625 6.59375 53.421875 
Q 6.59375 63.09375 13.40625 68.65625 
Q 20.21875 74.21875 32.171875 74.21875 
Q 37.3125 74.21875 42.625 73.28125 
Q 47.953125 72.359375 53.515625 70.515625 
z
" id="DejaVuSans-83"/>
      <path d="M 8.5 21.578125 
L 8.5 54.6875 
L 17.484375 54.6875 
L 17.484375 21.921875 
Q 17.484375 14.15625 20.5 10.265625 
Q 23.53125 6.390625 29.59375 6.390625 
Q 36.859375 6.390625 41.078125 11.03125 
Q 45.3125 15.671875 45.3125 23.6875 
L 45.3125 54.6875 
L 54.296875 54.6875 
L 54.296875 0 
L 45.3125 0 
L 45.3125 8.40625 
Q 42.046875 3.421875 37.71875 1 
Q 33.40625 -1.421875 27.6875 -1.421875 
Q 18.265625 -1.421875 13.375 4.4375 
Q 8.5 10.296875 8.5 21.578125 
z
M 31.109375 56 
z
" id="DejaVuSans-117"/>
      <path d="M 45.40625 46.390625 
L 45.40625 75.984375 
L 54.390625 75.984375 
L 54.390625 0 
L 45.40625 0 
L 45.40625 8.203125 
Q 42.578125 3.328125 38.25 0.953125 
Q 33.9375 -1.421875 27.875 -1.421875 
Q 17.96875 -1.421875 11.734375 6.484375 
Q 5.515625 14.40625 5.515625 27.296875 
Q 5.515625 40.1875 11.734375 48.09375 
Q 17.96875 56 27.875 56 
Q 33.9375 56 38.25 53.625 
Q 42.578125 51.265625 45.40625 46.390625 
z
M 14.796875 27.296875 
Q 14.796875 17.390625 18.875 11.75 
Q 22.953125 6.109375 30.078125 6.109375 
Q 37.203125 6.109375 41.296875 11.75 
Q 45.40625 17.390625 45.40625 27.296875 
Q 45.40625 37.203125 41.296875 42.84375 
Q 37.203125 48.484375 30.078125 48.484375 
Q 22.953125 48.484375 18.875 42.84375 
Q 14.796875 37.203125 14.796875 27.296875 
z
" id="DejaVuSans-100"/>
      <path d="M 54.890625 33.015625 
L 54.890625 0 
L 45.90625 0 
L 45.90625 32.71875 
Q 45.90625 40.484375 42.875 44.328125 
Q 39.84375 48.1875 33.796875 48.1875 
Q 26.515625 48.1875 22.3125 43.546875 
Q 18.109375 38.921875 18.109375 30.90625 
L 18.109375 0 
L 9.078125 0 
L 9.078125 54.6875 
L 18.109375 54.6875 
L 18.109375 46.1875 
Q 21.34375 51.125 25.703125 53.5625 
Q 30.078125 56 35.796875 56 
Q 45.21875 56 50.046875 50.171875 
Q 54.890625 44.34375 54.890625 33.015625 
z
" id="DejaVuSans-110"/>
      <path d="M 44.28125 53.078125 
L 44.28125 44.578125 
Q 40.484375 46.53125 36.375 47.5 
Q 32.28125 48.484375 27.875 48.484375 
Q 21.1875 48.484375 17.84375 46.4375 
Q 14.5 44.390625 14.5 40.28125 
Q 14.5 37.15625 16.890625 35.375 
Q 19.28125 33.59375 26.515625 31.984375 
L 29.59375 31.296875 
Q 39.15625 29.25 43.1875 25.515625 
Q 47.21875 21.78125 47.21875 15.09375 
Q 47.21875 7.46875 41.1875 3.015625 
Q 35.15625 -1.421875 24.609375 -1.421875 
Q 20.21875 -1.421875 15.453125 -0.5625 
Q 10.6875 0.296875 5.421875 2 
L 5.421875 11.28125 
Q 10.40625 8.6875 15.234375 7.390625 
Q 20.0625 6.109375 24.8125 6.109375 
Q 31.15625 6.109375 34.5625 8.28125 
Q 37.984375 10.453125 37.984375 14.40625 
Q 37.984375 18.0625 35.515625 20.015625 
Q 33.0625 21.96875 24.703125 23.78125 
L 21.578125 24.515625 
Q 13.234375 26.265625 9.515625 29.90625 
Q 5.8125 33.546875 5.8125 39.890625 
Q 5.8125 47.609375 11.28125 51.796875 
Q 16.75 56 26.8125 56 
Q 31.78125 56 36.171875 55.265625 
Q 40.578125 54.546875 44.28125 53.078125 
z
" id="DejaVuSans-115"/>
      <path id="DejaVuSans-32"/>
      <path d="M 44.390625 34.1875 
Q 47.5625 33.109375 50.5625 29.59375 
Q 53.5625 26.078125 56.59375 19.921875 
L 66.609375 0 
L 56 0 
L 46.6875 18.703125 
Q 43.0625 26.03125 39.671875 28.421875 
Q 36.28125 30.8125 30.421875 30.8125 
L 19.671875 30.8125 
L 19.671875 0 
L 9.8125 0 
L 9.8125 72.90625 
L 32.078125 72.90625 
Q 44.578125 72.90625 50.734375 67.671875 
Q 56.890625 62.453125 56.890625 51.90625 
Q 56.890625 45.015625 53.6875 40.46875 
Q 50.484375 35.9375 44.390625 34.1875 
z
M 19.671875 64.796875 
L 19.671875 38.921875 
L 32.078125 38.921875 
Q 39.203125 38.921875 42.84375 42.21875 
Q 46.484375 45.515625 46.484375 51.90625 
Q 46.484375 58.296875 42.84375 61.546875 
Q 39.203125 64.796875 32.078125 64.796875 
z
" id="DejaVuSans-82"/>
      <path d="M 45.40625 27.984375 
Q 45.40625 37.75 41.375 43.109375 
Q 37.359375 48.484375 30.078125 48.484375 
Q 22.859375 48.484375 18.828125 43.109375 
Q 14.796875 37.75 14.796875 27.984375 
Q 14.796875 18.265625 18.828125 12.890625 
Q 22.859375 7.515625 30.078125 7.515625 
Q 37.359375 7.515625 41.375 12.890625 
Q 45.40625 18.265625 45.40625 27.984375 
z
M 54.390625 6.78125 
Q 54.390625 -7.171875 48.1875 -13.984375 
Q 42 -20.796875 29.203125 -20.796875 
Q 24.46875 -20.796875 20.265625 -20.09375 
Q 16.0625 -19.390625 12.109375 -17.921875 
L 12.109375 -9.1875 
Q 16.0625 -11.328125 19.921875 -12.34375 
Q 23.78125 -13.375 27.78125 -13.375 
Q 36.625 -13.375 41.015625 -8.765625 
Q 45.40625 -4.15625 45.40625 5.171875 
L 45.40625 9.625 
Q 42.625 4.78125 38.28125 2.390625 
Q 33.9375 0 27.875 0 
Q 17.828125 0 11.671875 7.65625 
Q 5.515625 15.328125 5.515625 27.984375 
Q 5.515625 40.671875 11.671875 48.328125 
Q 17.828125 56 27.875 56 
Q 33.9375 56 38.28125 53.609375 
Q 42.625 51.21875 45.40625 46.390625 
L 45.40625 54.6875 
L 54.390625 54.6875 
z
" id="DejaVuSans-103"/>
      <path d="M 9.421875 54.6875 
L 18.40625 54.6875 
L 18.40625 0 
L 9.421875 0 
z
M 9.421875 75.984375 
L 18.40625 75.984375 
L 18.40625 64.59375 
L 9.421875 64.59375 
z
" id="DejaVuSans-105"/>
      <path d="M 41.109375 46.296875 
Q 39.59375 47.171875 37.8125 47.578125 
Q 36.03125 48 33.890625 48 
Q 26.265625 48 22.1875 43.046875 
Q 18.109375 38.09375 18.109375 28.8125 
L 18.109375 0 
L 9.078125 0 
L 9.078125 54.6875 
L 18.109375 54.6875 
L 18.109375 46.1875 
Q 20.953125 51.171875 25.484375 53.578125 
Q 30.03125 56 36.53125 56 
Q 37.453125 56 38.578125 55.875 
Q 39.703125 55.765625 41.0625 55.515625 
z
" id="DejaVuSans-114"/>
     </defs>
     <g transform="translate(17.745313 167.498979)rotate(-90)scale(0.1 -0.1)">
      <use xlink:href="#DejaVuSans-83"/>
      <use x="63.476562" xlink:href="#DejaVuSans-116"/>
      <use x="102.685547" xlink:href="#DejaVuSans-117"/>
      <use x="166.064453" xlink:href="#DejaVuSans-100"/>
      <use x="229.541016" xlink:href="#DejaVuSans-101"/>
      <use x="291.064453" xlink:href="#DejaVuSans-110"/>
      <use x="354.443359" xlink:href="#DejaVuSans-116"/>
      <use x="393.652344" xlink:href="#DejaVuSans-115"/>
      <use x="445.751953" xlink:href="#DejaVuSans-32"/>
      <use x="477.539062" xlink:href="#DejaVuSans-82"/>
      <use x="546.958984" xlink:href="#DejaVuSans-101"/>
      <use x="608.482422" xlink:href="#DejaVuSans-103"/>
      <use x="671.958984" xlink:href="#DejaVuSans-105"/>
      <use x="699.742188" xlink:href="#DejaVuSans-115"/>
      <use x="751.841797" xlink:href="#DejaVuSans-116"/>
      <use x="791.050781" xlink:href="#DejaVuSans-101"/>
      <use x="852.574219" xlink:href="#DejaVuSans-114"/>
      <use x="893.65625" xlink:href="#DejaVuSans-101"/>
      <use x="955.179688" xlink:href="#DejaVuSans-100"/>
     </g>
    </g>
   </g>
   <g id="line2d_21">
    <path clip-path="url(#p4ed4554470)" d="M 119.23368 196.670456 
L 120.750504 196.670456 
L 120.750504 182.534267 
L 120.82636 182.534267 
L 121.05389 182.534267 
L 121.05389 177.822204 
L 121.129756 177.822204 
L 121.357261 177.822204 
L 121.357261 158.973953 
L 121.433107 158.973953 
L 121.964046 158.973953 
L 121.964046 144.837764 
L 122.039886 144.837764 
L 122.57079 144.837764 
L 122.57079 116.565386 
L 122.646663 116.565386 
L 123.177541 116.565386 
L 123.177541 107.14126 
L 123.253386 107.14126 
L 123.48096 107.14126 
L 123.48096 102.429197 
L 123.556802 102.429197 
L 123.784312 102.429197 
L 123.784312 97.717134 
L 123.860174 97.717134 
L 124.391118 97.717134 
L 124.391118 93.005071 
L 124.466963 93.005071 
L 128.638346 93.005071 
L 128.638346 74.156819 
L 128.714212 74.156819 
L 129.245123 74.156819 
L 129.245123 69.444756 
L 129.321005 69.444756 
L 129.851925 69.444756 
L 129.851925 60.02063 
L 129.927705 60.02063 
L 130.155304 60.02063 
L 130.155304 55.308567 
L 130.231082 55.308567 
L 130.762069 55.308567 
L 130.762069 50.596504 
L 130.837844 50.596504 
L 137.132985 50.596504 
L 137.132985 45.884441 
L 137.208777 45.884441 
L 137.436311 45.884441 
L 137.436311 41.172378 
L 137.512195 41.172378 
L 137.739706 41.172378 
L 137.739706 36.460315 
L 137.815575 36.460315 
L 138.649882 36.460315 
L 138.649882 31.748252 
L 138.725655 31.748252 
L 158.06604 31.748252 
L 158.06604 22.324126 
L 158.141937 22.324126 
L 195.381564 22.324126 
L 195.381564 27.036189 
L 195.457412 27.036189 
L 197.201832 27.036189 
L 197.201832 22.324126 
L 197.277724 22.324126 
L 223.59577 22.324126 
L 223.59577 27.036189 
L 223.671579 27.036189 
L 226.022783 27.036189 
L 226.022783 22.324126 
L 226.098595 22.324126 
L 303.005 22.324126 
L 303.005 22.324126 
" style="fill:none;stroke:#1b9e77;stroke-linecap:square;stroke-width:1.5;"/>
   </g>
   <g id="line2d_22">
    <path clip-path="url(#p4ed4554470)" d="M 55.905 182.534267 
L 56.224646 182.534267 
L 56.224646 177.822204 
L 56.333257 177.822204 
L 57.794461 177.822204 
L 57.794461 173.110142 
L 62.648569 173.110142 
L 62.648569 168.398079 
L 63.108703 168.398079 
L 63.108703 163.686016 
L 63.184498 163.686016 
L 63.412063 163.686016 
L 63.412063 158.973953 
L 63.487944 158.973953 
L 64.322238 158.973953 
L 64.322238 144.837764 
L 64.39805 144.837764 
L 64.625551 144.837764 
L 64.625551 140.125701 
L 64.70145 140.125701 
L 70.693134 140.125701 
L 70.693134 130.701575 
L 70.769023 130.701575 
L 70.996511 130.701575 
L 70.996511 125.989512 
L 71.072324 125.989512 
L 71.299887 125.989512 
L 71.299887 130.701575 
L 71.375754 130.701575 
L 71.906692 130.701575 
L 71.906692 125.989512 
L 71.982517 125.989512 
L 72.210009 125.989512 
L 72.210009 116.565386 
L 72.285937 116.565386 
L 73.726937 116.565386 
L 73.726937 107.14126 
L 73.802756 107.14126 
L 77.064096 107.14126 
L 77.064096 102.429197 
L 77.13992 102.429197 
L 77.367468 102.429197 
L 77.367468 83.580945 
L 77.443301 83.580945 
L 77.670811 83.580945 
L 77.670811 74.156819 
L 77.746654 74.156819 
L 78.2776 74.156819 
L 78.2776 69.444756 
L 78.353451 69.444756 
L 78.580969 69.444756 
L 78.580969 64.732693 
L 78.656842 64.732693 
L 78.884355 64.732693 
L 78.884355 60.02063 
L 78.960209 60.02063 
L 79.187732 60.02063 
L 79.187732 45.884441 
L 79.263617 45.884441 
L 79.491102 45.884441 
L 79.491102 41.172378 
L 79.566975 41.172378 
L 79.794497 41.172378 
L 79.794497 36.460315 
L 79.870354 36.460315 
L 84.951885 36.460315 
L 84.951885 27.036189 
L 85.027732 27.036189 
L 85.25533 27.036189 
L 85.25533 22.324126 
L 85.331126 22.324126 
L 121.05389 22.324126 
L 121.05389 27.036189 
L 121.129756 27.036189 
L 121.357261 27.036189 
L 121.357261 22.324126 
L 121.433107 22.324126 
L 303.005 22.324126 
L 303.005 22.324126 
" style="fill:none;stroke:#d95f02;stroke-linecap:square;stroke-width:1.5;"/>
   </g>
   <g id="line2d_23">
    <path clip-path="url(#p4ed4554470)" d="M 55.905 201.382519 
L 64.018876 201.382519 
L 64.018876 196.670456 
L 64.094663 196.670456 
L 70.08642 196.670456 
L 70.08642 191.958393 
L 70.16227 191.958393 
L 70.389786 191.958393 
L 70.389786 187.24633 
L 70.465633 187.24633 
L 70.693134 187.24633 
L 70.693134 177.822204 
L 70.769023 177.822204 
L 70.996511 177.822204 
L 70.996511 173.110142 
L 71.072324 173.110142 
L 71.299887 173.110142 
L 71.299887 168.398079 
L 71.375754 168.398079 
L 71.603269 168.398079 
L 71.603269 163.686016 
L 71.679097 163.686016 
L 72.210009 163.686016 
L 72.210009 158.973953 
L 72.285937 158.973953 
L 77.367468 158.973953 
L 77.367468 149.549827 
L 77.443301 149.549827 
L 77.670811 149.549827 
L 77.670811 144.837764 
L 77.746654 144.837764 
L 78.884355 144.837764 
L 78.884355 140.125701 
L 78.960209 140.125701 
L 79.187732 140.125701 
L 79.187732 130.701575 
L 79.263617 130.701575 
L 106.795183 130.701575 
L 106.795183 125.989512 
L 106.870951 125.989512 
L 107.098531 125.989512 
L 107.098531 121.277449 
L 107.174335 121.277449 
L 107.401927 121.277449 
L 107.401927 116.565386 
L 107.477748 116.565386 
L 107.705273 116.565386 
L 107.705273 111.853323 
L 107.781113 111.853323 
L 108.008683 111.853323 
L 108.008683 102.429197 
L 108.084508 102.429197 
L 108.312065 102.429197 
L 108.312065 97.717134 
L 108.387898 97.717134 
L 113.772833 97.717134 
L 113.848682 83.580945 
L 113.848682 83.580945 
L 114.379604 83.580945 
L 114.379604 74.156819 
L 114.455438 74.156819 
L 115.289746 74.156819 
L 115.289746 69.444756 
L 115.365578 69.444756 
L 115.593127 69.444756 
L 115.593127 60.02063 
L 115.668976 60.02063 
L 115.896502 60.02063 
L 115.896502 36.460315 
L 115.972336 36.460315 
L 116.199834 36.460315 
L 116.199834 22.324126 
L 116.27575 22.324126 
L 120.750504 22.324126 
L 120.750504 27.036189 
L 120.82636 27.036189 
L 121.357261 27.036189 
L 121.357261 22.324126 
L 121.433107 22.324126 
L 194.774786 22.324126 
L 194.774786 27.036189 
L 194.850684 27.036189 
L 195.078228 27.036189 
L 195.078228 22.324126 
L 195.154084 22.324126 
L 208.426885 22.324126 
L 208.426885 27.036189 
L 208.502653 27.036189 
L 209.033558 27.036189 
L 209.033558 22.324126 
L 209.109403 22.324126 
L 209.640336 22.324126 
L 209.640336 27.036189 
L 209.716191 27.036189 
L 210.853913 27.036189 
L 210.853913 22.324126 
L 210.929712 22.324126 
L 303.005 22.324126 
L 303.005 22.324126 
" style="fill:none;stroke:#7570b3;stroke-linecap:square;stroke-width:1.5;"/>
   </g>
   <g id="line2d_24">
    <path clip-path="url(#p4ed4554470)" d="M 55.905 210.806645 
L 56.224646 210.806645 
L 56.224646 201.382519 
L 56.333257 201.382519 
L 57.647885 201.382519 
L 57.647885 196.670456 
L 57.754069 196.670456 
L 64.625551 196.670456 
L 64.625551 191.958393 
L 64.70145 191.958393 
L 70.389786 191.958393 
L 70.389786 177.822204 
L 70.465633 177.822204 
L 70.693134 177.822204 
L 70.693134 173.110142 
L 70.769023 173.110142 
L 70.996511 173.110142 
L 70.996511 154.26189 
L 71.072324 154.26189 
L 71.299887 154.26189 
L 71.299887 149.549827 
L 71.375754 149.549827 
L 71.603269 149.549827 
L 71.603269 140.125701 
L 71.679097 140.125701 
L 71.906692 140.125701 
L 71.906692 125.989512 
L 71.982517 125.989512 
L 77.367468 125.989512 
L 77.367468 121.277449 
L 77.443301 121.277449 
L 77.670811 121.277449 
L 77.670811 116.565386 
L 77.746654 116.565386 
L 78.580969 116.565386 
L 78.580969 111.853323 
L 78.656842 111.853323 
L 79.187732 111.853323 
L 79.187732 97.717134 
L 79.263617 97.717134 
L 79.491102 97.717134 
L 79.491102 93.005071 
L 79.566975 93.005071 
L 85.558654 93.005071 
L 85.558654 88.293008 
L 85.63451 88.293008 
L 85.862022 88.293008 
L 85.862022 83.580945 
L 85.937897 83.580945 
L 86.468821 83.580945 
L 86.468821 78.868882 
L 86.544621 78.868882 
L 87.378938 78.868882 
L 87.378938 74.156819 
L 87.454823 74.156819 
L 92.53641 74.156819 
L 92.53641 69.444756 
L 92.612219 69.444756 
L 106.795183 69.444756 
L 106.795183 45.884441 
L 106.870951 45.884441 
L 107.098531 45.884441 
L 107.098531 36.460315 
L 107.174335 36.460315 
L 107.401927 36.460315 
L 107.401927 31.748252 
L 107.477748 31.748252 
L 209.640336 31.748252 
L 209.640336 36.460315 
L 209.716191 36.460315 
L 209.943704 36.460315 
L 209.943704 31.748252 
L 210.019548 31.748252 
L 226.326124 31.748252 
L 226.326124 36.460315 
L 226.402021 36.460315 
L 226.629524 36.460315 
L 226.629524 31.748252 
L 226.705394 31.748252 
L 303.005 31.748252 
L 303.005 31.748252 
" style="fill:none;stroke:#e7298a;stroke-linecap:square;stroke-width:1.5;"/>
   </g>
   <g id="line2d_25">
    <path clip-path="url(#p4ed4554470)" d="M 55.905 191.958393 
L 70.389786 191.958393 
L 70.389786 187.24633 
L 70.465633 187.24633 
L 71.906692 187.24633 
L 71.906692 182.534267 
L 71.982517 182.534267 
L 72.513428 182.534267 
L 72.513428 177.822204 
L 72.589243 177.822204 
L 78.2776 177.822204 
L 78.2776 173.110142 
L 78.353451 173.110142 
L 78.884355 173.110142 
L 78.884355 168.398079 
L 78.960209 168.398079 
L 84.951885 168.398079 
L 84.951885 163.686016 
L 85.027732 163.686016 
L 106.491761 163.686016 
L 106.491761 154.26189 
L 106.567649 154.26189 
L 106.795183 154.26189 
L 106.795183 144.837764 
L 106.870951 144.837764 
L 107.705273 144.837764 
L 107.705273 140.125701 
L 107.781113 140.125701 
L 108.918815 140.125701 
L 108.918815 135.413638 
L 108.994642 135.413638 
L 114.379604 135.413638 
L 114.379604 130.701575 
L 114.455438 130.701575 
L 114.986308 130.701575 
L 114.986308 121.277449 
L 115.06222 121.277449 
L 115.593127 121.277449 
L 115.593127 116.565386 
L 115.668976 116.565386 
L 117.413399 116.565386 
L 117.413399 111.853323 
L 117.489229 111.853323 
L 120.750504 111.853323 
L 120.750504 107.14126 
L 120.82636 107.14126 
L 121.357261 107.14126 
L 121.357261 102.429197 
L 121.433107 102.429197 
L 121.660636 102.429197 
L 121.660636 93.005071 
L 121.736487 93.005071 
L 122.267441 93.005071 
L 122.267441 88.293008 
L 122.343288 88.293008 
L 122.57079 88.293008 
L 122.646663 74.156819 
L 122.646663 74.156819 
L 122.874207 74.156819 
L 122.874207 64.732693 
L 122.950062 64.732693 
L 124.087672 64.732693 
L 124.087672 69.444756 
L 124.163506 69.444756 
L 128.638346 69.444756 
L 128.638346 60.02063 
L 128.714212 60.02063 
L 128.941798 60.02063 
L 128.941798 55.308567 
L 129.017566 55.308567 
L 129.548512 55.308567 
L 129.548512 50.596504 
L 129.624368 50.596504 
L 129.851925 50.596504 
L 129.851925 41.172378 
L 129.927705 41.172378 
L 130.155304 41.172378 
L 130.155304 36.460315 
L 130.231082 36.460315 
L 130.762069 36.460315 
L 130.762069 31.748252 
L 130.837844 31.748252 
L 303.005 31.748252 
L 303.005 31.748252 
" style="fill:none;stroke:#66a61e;stroke-linecap:square;stroke-width:1.5;"/>
   </g>
   <g id="line2d_26">
    <path clip-path="url(#p4ed4554470)" d="M 55.905 196.670456 
L 64.018876 196.670456 
L 64.018876 191.958393 
L 64.094663 191.958393 
L 70.08642 191.958393 
L 70.08642 187.24633 
L 70.16227 187.24633 
L 70.389786 187.24633 
L 70.389786 182.534267 
L 70.465633 182.534267 
L 70.996511 182.534267 
L 70.996511 177.822204 
L 71.072324 177.822204 
L 71.299887 177.822204 
L 71.299887 173.110142 
L 71.375754 173.110142 
L 71.603269 173.110142 
L 71.603269 163.686016 
L 71.679097 163.686016 
L 71.906692 163.686016 
L 71.906692 158.973953 
L 71.982517 158.973953 
L 72.210009 158.973953 
L 72.210009 154.26189 
L 72.285937 154.26189 
L 77.064096 154.26189 
L 77.064096 149.549827 
L 77.13992 149.549827 
L 77.367468 149.549827 
L 77.367468 140.125701 
L 77.443301 140.125701 
L 77.974174 140.125701 
L 77.974174 135.413638 
L 78.050025 135.413638 
L 78.2776 135.413638 
L 78.2776 125.989512 
L 78.353451 125.989512 
L 78.884355 125.989512 
L 78.884355 121.277449 
L 78.960209 121.277449 
L 79.491102 121.277449 
L 79.491102 116.565386 
L 79.566975 116.565386 
L 79.794497 116.565386 
L 79.794497 111.853323 
L 79.870354 111.853323 
L 85.25533 111.853323 
L 85.25533 107.14126 
L 85.331126 107.14126 
L 86.468821 107.14126 
L 86.468821 102.429197 
L 86.544621 102.429197 
L 94.356605 102.429197 
L 94.356605 97.717134 
L 94.432457 97.717134 
L 106.491761 97.717134 
L 106.491761 93.005071 
L 106.567649 93.005071 
L 107.401927 93.005071 
L 107.401927 78.868882 
L 107.477748 78.868882 
L 107.705273 78.868882 
L 107.705273 69.444756 
L 107.781113 69.444756 
L 108.008683 69.444756 
L 108.008683 60.02063 
L 108.084508 60.02063 
L 108.918815 60.02063 
L 108.918815 55.308567 
L 108.994642 55.308567 
L 113.16609 55.308567 
L 113.16609 50.596504 
L 113.24193 50.596504 
L 114.076205 50.596504 
L 114.076205 45.884441 
L 114.152035 45.884441 
L 114.379604 45.884441 
L 114.379604 41.172378 
L 114.455438 41.172378 
L 114.682962 41.172378 
L 114.682962 36.460315 
L 114.758815 36.460315 
L 115.593127 36.460315 
L 115.593127 31.748252 
L 115.668976 31.748252 
L 303.005 31.748252 
L 303.005 31.748252 
" style="fill:none;stroke:#e6ab02;stroke-linecap:square;stroke-width:1.5;"/>
   </g>
   <g id="line2d_27">
    <path clip-path="url(#p4ed4554470)" d="M 55.905 201.382519 
L 64.625551 201.382519 
L 64.625551 196.670456 
L 64.70145 196.670456 
L 70.389786 196.670456 
L 70.389786 191.958393 
L 70.465633 191.958393 
L 71.603269 191.958393 
L 71.603269 187.24633 
L 71.679097 187.24633 
L 77.974174 187.24633 
L 77.974174 177.822204 
L 78.050025 177.822204 
L 78.580969 177.822204 
L 78.580969 173.110142 
L 78.656842 173.110142 
L 79.187732 173.110142 
L 79.187732 168.398079 
L 79.263617 168.398079 
L 79.491102 168.398079 
L 79.491102 163.686016 
L 79.566975 163.686016 
L 86.468821 163.686016 
L 86.468821 158.973953 
L 86.544621 158.973953 
L 93.446515 158.973953 
L 93.446515 154.26189 
L 93.522325 154.26189 
L 106.795183 154.26189 
L 106.795183 144.837764 
L 106.870951 144.837764 
L 107.401927 144.837764 
L 107.401927 140.125701 
L 107.477748 140.125701 
L 108.918815 140.125701 
L 108.918815 135.413638 
L 108.994642 135.413638 
L 113.772833 135.413638 
L 113.772833 130.701575 
L 113.848682 130.701575 
L 115.289746 130.701575 
L 115.289746 125.989512 
L 115.365578 125.989512 
L 115.593127 125.989512 
L 115.593127 121.277449 
L 115.668976 121.277449 
L 115.896502 121.277449 
L 115.972336 107.14126 
L 115.972336 107.14126 
L 121.05389 107.14126 
L 121.05389 102.429197 
L 121.129756 102.429197 
L 121.357261 102.429197 
L 121.357261 93.005071 
L 121.433107 93.005071 
L 121.660636 93.005071 
L 121.660636 88.293008 
L 121.736487 88.293008 
L 121.964046 88.293008 
L 122.039886 74.156819 
L 122.039886 74.156819 
L 122.57079 74.156819 
L 122.57079 60.02063 
L 122.646663 60.02063 
L 122.874207 60.02063 
L 122.874207 50.596504 
L 122.950062 50.596504 
L 123.177541 50.596504 
L 123.177541 31.748252 
L 123.253386 31.748252 
L 123.48096 31.748252 
L 123.48096 27.036189 
L 123.556802 27.036189 
L 124.997863 27.036189 
L 124.997863 22.324126 
L 125.073708 22.324126 
L 208.426885 22.324126 
L 208.426885 27.036189 
L 208.502653 27.036189 
L 208.73026 27.036189 
L 208.73026 22.324126 
L 208.8061 22.324126 
L 209.336983 22.324126 
L 209.336983 27.036189 
L 209.412857 27.036189 
L 210.247083 27.036189 
L 210.247083 31.748252 
L 210.32299 31.748252 
L 210.853913 31.748252 
L 210.853913 36.460315 
L 210.929712 36.460315 
L 219.045067 36.460315 
L 219.045067 41.172378 
L 219.120949 41.172378 
L 236.944412 41.172378 
L 236.944412 36.460315 
L 237.020266 36.460315 
L 270.619348 36.460315 
L 270.619348 41.172378 
L 270.695255 41.172378 
L 282.451129 41.172378 
L 282.451129 36.460315 
L 282.526936 36.460315 
L 303.005 36.460315 
L 303.005 36.460315 
" style="fill:none;stroke:#a6761d;stroke-linecap:square;stroke-width:1.5;"/>
   </g>
   <g id="line2d_28">
    <path clip-path="url(#p4ed4554470)" d="M 55.905 201.382519 
L 70.693134 201.382519 
L 70.693134 196.670456 
L 70.769023 196.670456 
L 71.603269 196.670456 
L 71.603269 191.958393 
L 71.679097 191.958393 
L 78.2776 191.958393 
L 78.2776 187.24633 
L 78.353451 187.24633 
L 78.884355 187.24633 
L 78.884355 191.958393 
L 78.960209 191.958393 
L 79.187732 191.958393 
L 79.187732 182.534267 
L 79.263617 182.534267 
L 106.795183 182.534267 
L 106.795183 177.822204 
L 106.870951 177.822204 
L 107.401927 177.822204 
L 107.401927 173.110142 
L 107.477748 173.110142 
L 108.008683 173.110142 
L 108.008683 168.398079 
L 108.084508 168.398079 
L 108.312065 168.398079 
L 108.312065 163.686016 
L 108.387898 163.686016 
L 109.828907 163.686016 
L 109.828907 158.973953 
L 109.904732 158.973953 
L 114.682962 158.973953 
L 114.682962 154.26189 
L 114.758815 154.26189 
L 115.593127 154.26189 
L 115.593127 149.549827 
L 115.668976 149.549827 
L 115.896502 149.549827 
L 115.896502 144.837764 
L 115.972336 144.837764 
L 121.05389 144.837764 
L 121.05389 135.413638 
L 121.129756 135.413638 
L 121.357261 135.413638 
L 121.357261 130.701575 
L 121.433107 130.701575 
L 121.660636 130.701575 
L 121.736487 116.565386 
L 121.736487 116.565386 
L 122.874207 116.565386 
L 122.874207 111.853323 
L 122.950062 111.853323 
L 123.177541 111.853323 
L 123.177541 107.14126 
L 123.253386 107.14126 
L 123.48096 107.14126 
L 123.48096 111.853323 
L 123.556802 111.853323 
L 123.784312 111.853323 
L 123.784312 107.14126 
L 123.860174 107.14126 
L 124.087672 107.14126 
L 124.087672 102.429197 
L 124.163506 102.429197 
L 127.728259 102.429197 
L 127.728259 107.14126 
L 127.804045 107.14126 
L 128.638346 107.14126 
L 128.638346 93.005071 
L 128.714212 93.005071 
L 129.245123 93.005071 
L 129.245123 88.293008 
L 129.321005 88.293008 
L 129.851925 88.293008 
L 129.851925 69.444756 
L 129.927705 69.444756 
L 130.155304 69.444756 
L 130.155304 64.732693 
L 130.231082 64.732693 
L 136.829567 64.732693 
L 136.829567 60.02063 
L 136.905442 60.02063 
L 161.403261 60.02063 
L 161.403261 55.308567 
L 161.479059 55.308567 
L 166.257299 55.308567 
L 166.257299 50.596504 
L 166.333128 50.596504 
L 166.560641 50.596504 
L 166.560641 55.308567 
L 166.636472 55.308567 
L 167.167401 55.308567 
L 167.167401 50.596504 
L 167.243222 50.596504 
L 174.448527 50.596504 
L 174.448527 45.884441 
L 174.524451 45.884441 
L 186.886959 45.884441 
L 186.886959 50.596504 
L 186.962812 50.596504 
L 195.381564 50.596504 
L 195.381564 45.884441 
L 195.457412 45.884441 
L 208.426885 45.884441 
L 208.426885 50.596504 
L 208.502653 50.596504 
L 209.033558 50.596504 
L 209.033558 55.308567 
L 209.109403 55.308567 
L 209.943704 55.308567 
L 209.943704 60.02063 
L 210.019548 60.02063 
L 218.438307 60.02063 
L 218.438307 64.732693 
L 218.514131 64.732693 
L 231.48355 64.732693 
L 231.48355 69.444756 
L 231.559459 69.444756 
L 261.821439 69.444756 
L 261.821439 74.156819 
L 261.897266 74.156819 
L 303.005 74.156819 
L 303.005 74.156819 
" style="fill:none;stroke:#666666;stroke-linecap:square;stroke-width:1.5;"/>
   </g>
   <g id="line2d_29">
    <path clip-path="url(#p4ed4554470)" d="M 55.905 196.670456 
L 62.648569 196.670456 
L 62.648569 191.958393 
L 71.603269 191.958393 
L 71.603269 187.24633 
L 71.679097 187.24633 
L 77.670811 187.24633 
L 77.670811 182.534267 
L 77.746654 182.534267 
L 78.2776 182.534267 
L 78.2776 177.822204 
L 78.353451 177.822204 
L 79.187732 177.822204 
L 79.187732 173.110142 
L 79.263617 173.110142 
L 79.491102 173.110142 
L 79.491102 168.398079 
L 79.566975 168.398079 
L 81.311384 168.398079 
L 81.311384 163.686016 
L 81.387236 163.686016 
L 107.401927 163.686016 
L 107.401927 154.26189 
L 107.477748 154.26189 
L 114.379604 154.26189 
L 114.379604 149.549827 
L 114.455438 149.549827 
L 115.896502 149.549827 
L 115.896502 144.837764 
L 115.972336 144.837764 
L 116.806662 144.837764 
L 116.806662 140.125701 
L 116.882499 140.125701 
L 121.357261 140.125701 
L 121.357261 135.413638 
L 121.433107 135.413638 
L 121.660636 135.413638 
L 121.660636 125.989512 
L 121.736487 125.989512 
L 122.57079 125.989512 
L 122.57079 116.565386 
L 122.646663 116.565386 
L 129.245123 116.565386 
L 129.245123 111.853323 
L 129.321005 111.853323 
L 130.155304 111.853323 
L 130.155304 107.14126 
L 130.231082 107.14126 
L 131.065377 107.14126 
L 131.065377 102.429197 
L 131.141232 102.429197 
L 138.649882 102.429197 
L 138.649882 97.717134 
L 138.725655 97.717134 
L 159.582964 97.717134 
L 159.582964 93.005071 
L 159.658777 93.005071 
L 166.560641 93.005071 
L 166.560641 88.293008 
L 166.636472 88.293008 
L 174.448527 88.293008 
L 174.448527 93.005071 
L 174.524451 93.005071 
L 209.336983 93.005071 
L 209.336983 88.293008 
L 209.412857 88.293008 
L 209.640336 88.293008 
L 209.640336 93.005071 
L 209.716191 93.005071 
L 217.224821 93.005071 
L 217.224821 88.293008 
L 217.300674 88.293008 
L 270.619348 88.293008 
L 270.619348 83.580945 
L 270.695255 83.580945 
L 303.005 83.580945 
L 303.005 83.580945 
" style="fill:none;stroke:#1b9e77;stroke-dasharray:4.5,1.5;stroke-dashoffset:0;stroke-width:1.5;"/>
   </g>
   <g id="line2d_30">
    <path clip-path="url(#p4ed4554470)" d="M 55.905 206.094582 
L 70.08642 206.094582 
L 70.08642 201.382519 
L 70.16227 201.382519 
L 70.389786 201.382519 
L 70.389786 196.670456 
L 70.465633 196.670456 
L 71.603269 196.670456 
L 71.603269 187.24633 
L 71.679097 187.24633 
L 77.367468 187.24633 
L 77.367468 182.534267 
L 77.443301 182.534267 
L 78.884355 182.534267 
L 78.884355 177.822204 
L 78.960209 177.822204 
L 79.187732 177.822204 
L 79.187732 173.110142 
L 79.263617 173.110142 
L 79.491102 173.110142 
L 79.491102 168.398079 
L 79.566975 168.398079 
L 107.098531 168.398079 
L 107.098531 163.686016 
L 107.174335 163.686016 
L 107.401927 163.686016 
L 107.401927 158.973953 
L 107.477748 158.973953 
L 107.705273 158.973953 
L 107.705273 149.549827 
L 107.781113 149.549827 
L 115.289746 149.549827 
L 115.289746 144.837764 
L 115.365578 144.837764 
L 115.593127 144.837764 
L 115.593127 140.125701 
L 115.668976 140.125701 
L 120.750504 140.125701 
L 120.750504 144.837764 
L 120.82636 144.837764 
L 121.660636 144.837764 
L 121.660636 135.413638 
L 121.736487 135.413638 
L 121.964046 135.413638 
L 121.964046 140.125701 
L 122.039886 140.125701 
L 122.267441 140.125701 
L 122.267441 135.413638 
L 122.343288 135.413638 
L 122.874207 135.413638 
L 122.874207 125.989512 
L 122.950062 125.989512 
L 123.177541 125.989512 
L 123.177541 121.277449 
L 123.253386 121.277449 
L 137.436311 121.277449 
L 137.436311 116.565386 
L 137.512195 116.565386 
L 138.3465 116.565386 
L 138.3465 111.853323 
L 138.422358 111.853323 
L 152.908609 111.853323 
L 152.908609 107.14126 
L 152.984489 107.14126 
L 180.516028 107.14126 
L 180.516028 102.429197 
L 180.5919 102.429197 
L 181.72954 102.429197 
L 181.72954 97.717134 
L 181.805408 97.717134 
L 187.797151 97.717134 
L 187.797151 93.005071 
L 187.87296 93.005071 
L 211.764044 93.005071 
L 211.764044 88.293008 
L 211.83987 88.293008 
L 303.005 88.293008 
L 303.005 88.293008 
" style="fill:none;stroke:#d95f02;stroke-dasharray:4.5,1.5;stroke-dashoffset:0;stroke-width:1.5;"/>
   </g>
   <g id="line2d_31">
    <path clip-path="url(#p4ed4554470)" d="M 55.905 206.094582 
L 70.693134 206.094582 
L 70.693134 201.382519 
L 70.769023 201.382519 
L 78.884355 201.382519 
L 78.884355 191.958393 
L 78.960209 191.958393 
L 106.491761 191.958393 
L 106.491761 187.24633 
L 106.567649 187.24633 
L 107.098531 187.24633 
L 107.098531 182.534267 
L 107.174335 182.534267 
L 108.008683 182.534267 
L 108.008683 177.822204 
L 108.084508 177.822204 
L 113.772833 177.822204 
L 113.772833 173.110142 
L 113.848682 173.110142 
L 114.076205 173.110142 
L 114.076205 163.686016 
L 114.152035 163.686016 
L 114.379604 163.686016 
L 114.379604 158.973953 
L 114.455438 158.973953 
L 114.986308 158.973953 
L 114.986308 154.26189 
L 115.06222 154.26189 
L 115.289746 154.26189 
L 115.289746 144.837764 
L 115.365578 144.837764 
L 115.593127 144.837764 
L 115.593127 135.413638 
L 115.668976 135.413638 
L 116.806662 135.413638 
L 116.806662 130.701575 
L 116.882499 130.701575 
L 117.413399 130.701575 
L 117.413399 125.989512 
L 117.489229 125.989512 
L 117.716721 125.989512 
L 117.716721 130.701575 
L 117.792645 130.701575 
L 120.447157 130.701575 
L 120.447157 135.413638 
L 120.523026 135.413638 
L 120.750504 135.413638 
L 120.750504 140.125701 
L 120.82636 140.125701 
L 121.05389 140.125701 
L 121.05389 135.413638 
L 121.129756 135.413638 
L 121.357261 135.413638 
L 121.357261 140.125701 
L 121.433107 140.125701 
L 121.660636 140.125701 
L 121.660636 135.413638 
L 121.736487 135.413638 
L 121.964046 135.413638 
L 121.964046 130.701575 
L 122.039886 130.701575 
L 122.57079 130.701575 
L 122.57079 135.413638 
L 122.646663 135.413638 
L 129.548512 135.413638 
L 129.548512 130.701575 
L 129.624368 130.701575 
L 130.155304 130.701575 
L 130.155304 125.989512 
L 130.231082 125.989512 
L 137.132985 125.989512 
L 137.132985 121.277449 
L 137.208777 121.277449 
L 139.256608 121.277449 
L 139.256608 116.565386 
L 139.332486 116.565386 
L 158.67282 116.565386 
L 158.67282 111.853323 
L 158.748622 111.853323 
L 158.976194 111.853323 
L 158.976194 107.14126 
L 159.052 107.14126 
L 160.189676 107.14126 
L 160.189676 102.429197 
L 160.265612 102.429197 
L 174.448527 102.429197 
L 174.448527 97.717134 
L 174.524451 97.717134 
L 175.358582 97.717134 
L 175.358582 93.005071 
L 175.4345 93.005071 
L 190.527542 93.005071 
L 190.527542 88.293008 
L 190.603338 88.293008 
L 197.201832 88.293008 
L 197.201832 93.005071 
L 197.277724 93.005071 
L 209.033558 93.005071 
L 209.033558 97.717134 
L 209.109403 97.717134 
L 261.214668 97.717134 
L 261.214668 93.005071 
L 261.290488 93.005071 
L 303.005 93.005071 
L 303.005 93.005071 
" style="fill:none;stroke:#7570b3;stroke-dasharray:4.5,1.5;stroke-dashoffset:0;stroke-width:1.5;"/>
   </g>
   <g id="line2d_32">
    <path clip-path="url(#p4ed4554470)" d="M 55.905 210.806645 
L 63.715732 210.806645 
L 63.715732 206.094582 
L 63.791298 206.094582 
L 64.322238 206.094582 
L 64.322238 201.382519 
L 64.39805 201.382519 
L 71.299887 201.382519 
L 71.299887 196.670456 
L 71.375754 196.670456 
L 79.187732 196.670456 
L 79.187732 191.958393 
L 79.263617 191.958393 
L 84.041794 191.958393 
L 84.041794 187.24633 
L 84.117706 187.24633 
L 85.558654 187.24633 
L 85.558654 182.534267 
L 85.63451 182.534267 
L 86.165437 182.534267 
L 86.165437 177.822204 
L 86.241298 177.822204 
L 106.491761 177.822204 
L 106.491761 168.398079 
L 106.567649 168.398079 
L 107.098531 168.398079 
L 107.098531 163.686016 
L 107.174335 163.686016 
L 107.401927 163.686016 
L 107.401927 158.973953 
L 107.477748 158.973953 
L 107.705273 158.973953 
L 107.705273 154.26189 
L 107.781113 154.26189 
L 108.008683 154.26189 
L 108.008683 144.837764 
L 108.084508 144.837764 
L 108.312065 144.837764 
L 108.312065 140.125701 
L 108.387898 140.125701 
L 108.918815 140.125701 
L 108.918815 135.413638 
L 108.994642 135.413638 
L 109.525597 135.413638 
L 109.525597 130.701575 
L 109.601349 130.701575 
L 110.43565 130.701575 
L 110.43565 125.989512 
L 110.511496 125.989512 
L 113.772833 125.989512 
L 113.772833 121.277449 
L 113.848682 121.277449 
L 114.076205 121.277449 
L 114.076205 116.565386 
L 114.152035 116.565386 
L 114.379604 116.565386 
L 114.379604 102.429197 
L 114.455438 102.429197 
L 114.682962 102.429197 
L 114.682962 97.717134 
L 114.758815 97.717134 
L 114.986308 97.717134 
L 114.986308 93.005071 
L 115.06222 93.005071 
L 117.716721 93.005071 
L 117.716721 97.717134 
L 117.792645 97.717134 
L 121.660636 97.717134 
L 121.660636 93.005071 
L 121.736487 93.005071 
L 121.964046 93.005071 
L 121.964046 97.717134 
L 122.039886 97.717134 
L 122.267441 97.717134 
L 122.267441 93.005071 
L 122.343288 93.005071 
L 130.762069 93.005071 
L 130.762069 97.717134 
L 130.837844 97.717134 
L 131.065377 97.717134 
L 131.065377 93.005071 
L 131.141232 93.005071 
L 303.005 93.005071 
L 303.005 93.005071 
" style="fill:none;stroke:#e7298a;stroke-dasharray:4.5,1.5;stroke-dashoffset:0;stroke-width:1.5;"/>
   </g>
   <g id="line2d_33">
    <path clip-path="url(#p4ed4554470)" d="M 192.120248 210.806645 
L 194.774786 210.806645 
L 194.774786 206.094582 
L 194.850684 206.094582 
L 203.876195 206.094582 
L 203.876195 201.382519 
L 203.952016 201.382519 
L 208.426885 201.382519 
L 208.426885 182.534267 
L 208.502653 182.534267 
L 209.033558 182.534267 
L 209.033558 173.110142 
L 209.109403 173.110142 
L 209.640336 173.110142 
L 209.640336 158.973953 
L 209.716191 158.973953 
L 210.247083 158.973953 
L 210.247083 154.26189 
L 210.32299 154.26189 
L 216.31471 154.26189 
L 216.31471 149.549827 
L 216.390507 149.549827 
L 217.831583 149.549827 
L 217.831583 144.837764 
L 217.90738 144.837764 
L 218.438307 144.837764 
L 218.438307 140.125701 
L 218.514131 140.125701 
L 219.045067 140.125701 
L 219.045067 135.413638 
L 219.120949 135.413638 
L 219.348455 135.413638 
L 219.348455 130.701575 
L 219.424251 130.701575 
L 223.59577 130.701575 
L 223.59577 125.989512 
L 223.671579 125.989512 
L 226.326124 125.989512 
L 226.326124 121.277449 
L 226.402021 121.277449 
L 231.48355 121.277449 
L 231.48355 116.565386 
L 231.559459 116.565386 
L 303.005 116.565386 
L 303.005 116.565386 
" style="fill:none;stroke:#66a61e;stroke-dasharray:4.5,1.5;stroke-dashoffset:0;stroke-width:1.5;"/>
   </g>
   <g id="line2d_34">
    <path clip-path="url(#p4ed4554470)" d="M 55.905 206.094582 
L 70.996511 206.094582 
L 70.996511 196.670456 
L 71.072324 196.670456 
L 77.670811 196.670456 
L 77.670811 187.24633 
L 77.746654 187.24633 
L 77.974174 187.24633 
L 77.974174 182.534267 
L 78.050025 182.534267 
L 79.187732 182.534267 
L 79.187732 177.822204 
L 79.263617 177.822204 
L 79.491102 177.822204 
L 79.491102 173.110142 
L 79.566975 173.110142 
L 107.705273 173.110142 
L 107.705273 168.398079 
L 107.781113 168.398079 
L 108.008683 168.398079 
L 108.008683 163.686016 
L 108.084508 163.686016 
L 108.312065 163.686016 
L 108.312065 158.973953 
L 108.387898 158.973953 
L 109.222133 158.973953 
L 109.222133 154.26189 
L 109.298046 154.26189 
L 109.525597 154.26189 
L 109.525597 158.973953 
L 109.601349 158.973953 
L 113.772833 158.973953 
L 113.772833 140.125701 
L 113.848682 140.125701 
L 114.379604 140.125701 
L 114.379604 130.701575 
L 114.455438 130.701575 
L 114.682962 130.701575 
L 114.682962 125.989512 
L 114.758815 125.989512 
L 114.986308 125.989512 
L 114.986308 116.565386 
L 115.06222 116.565386 
L 303.005 116.565386 
L 303.005 116.565386 
" style="fill:none;stroke:#e6ab02;stroke-dasharray:4.5,1.5;stroke-dashoffset:0;stroke-width:1.5;"/>
   </g>
   <g id="line2d_35">
    <path clip-path="url(#p4ed4554470)" d="M 55.905 210.806645 
L 64.928923 210.806645 
L 64.928923 206.094582 
L 65.004801 206.094582 
L 66.142496 206.094582 
L 66.142496 201.382519 
L 66.218297 201.382519 
L 85.25533 201.382519 
L 85.25533 196.670456 
L 85.331126 196.670456 
L 106.491761 196.670456 
L 106.491761 191.958393 
L 106.567649 191.958393 
L 108.615398 191.958393 
L 108.615398 182.534267 
L 108.691227 182.534267 
L 114.379604 182.534267 
L 114.379604 177.822204 
L 114.455438 177.822204 
L 114.682962 177.822204 
L 114.682962 173.110142 
L 114.758815 173.110142 
L 115.593127 173.110142 
L 115.593127 163.686016 
L 115.668976 163.686016 
L 115.896502 163.686016 
L 115.896502 158.973953 
L 115.972336 158.973953 
L 117.716721 158.973953 
L 117.716721 154.26189 
L 117.792645 154.26189 
L 121.357261 154.26189 
L 121.357261 158.973953 
L 121.433107 158.973953 
L 121.964046 158.973953 
L 121.964046 154.26189 
L 122.039886 154.26189 
L 122.267441 154.26189 
L 122.267441 149.549827 
L 122.343288 149.549827 
L 122.874207 149.549827 
L 122.874207 144.837764 
L 122.950062 144.837764 
L 123.177541 144.837764 
L 123.177541 149.549827 
L 123.253386 149.549827 
L 123.48096 149.549827 
L 123.48096 144.837764 
L 123.556802 144.837764 
L 128.638346 144.837764 
L 128.638346 140.125701 
L 128.714212 140.125701 
L 138.3465 140.125701 
L 138.3465 135.413638 
L 138.422358 135.413638 
L 158.67282 135.413638 
L 158.67282 130.701575 
L 158.748622 130.701575 
L 187.493731 130.701575 
L 187.493731 125.989512 
L 187.569628 125.989512 
L 223.59577 125.989512 
L 223.59577 121.277449 
L 223.671579 121.277449 
L 261.821439 121.277449 
L 261.821439 116.565386 
L 261.897266 116.565386 
L 303.005 116.565386 
L 303.005 116.565386 
" style="fill:none;stroke:#a6761d;stroke-dasharray:4.5,1.5;stroke-dashoffset:0;stroke-width:1.5;"/>
   </g>
   <g id="line2d_36">
    <path clip-path="url(#p4ed4554470)" d="M 55.905 210.806645 
L 71.603269 210.806645 
L 71.603269 206.094582 
L 71.679097 206.094582 
L 71.906692 206.094582 
L 71.906692 201.382519 
L 71.982517 201.382519 
L 77.974174 201.382519 
L 77.974174 196.670456 
L 78.050025 196.670456 
L 79.491102 196.670456 
L 79.491102 191.958393 
L 79.566975 191.958393 
L 80.097858 191.958393 
L 80.097858 187.24633 
L 80.173719 187.24633 
L 80.704646 187.24633 
L 80.704646 182.534267 
L 80.780495 182.534267 
L 85.25533 182.534267 
L 85.25533 187.24633 
L 85.331126 187.24633 
L 106.795183 187.24633 
L 106.795183 182.534267 
L 106.870951 182.534267 
L 108.615398 182.534267 
L 108.615398 173.110142 
L 108.691227 173.110142 
L 114.076205 173.110142 
L 114.076205 168.398079 
L 114.152035 168.398079 
L 115.289746 168.398079 
L 115.289746 149.549827 
L 115.365578 149.549827 
L 115.593127 149.549827 
L 115.593127 144.837764 
L 115.668976 144.837764 
L 115.896502 144.837764 
L 115.896502 140.125701 
L 115.972336 140.125701 
L 209.033558 140.125701 
L 209.033558 144.837764 
L 209.109403 144.837764 
L 209.336983 144.837764 
L 209.336983 140.125701 
L 209.412857 140.125701 
L 303.005 140.125701 
L 303.005 140.125701 
" style="fill:none;stroke:#666666;stroke-dasharray:4.5,1.5;stroke-dashoffset:0;stroke-width:1.5;"/>
   </g>
   <g id="line2d_37"/>
   <g id="line2d_38"/>
   <g id="line2d_39"/>
   <g id="line2d_40"/>
   <g id="line2d_41"/>
   <g id="line2d_42"/>
   <g id="line2d_43"/>
   <g id="line2d_44"/>
   <g id="line2d_45"/>
   <g id="line2d_46"/>
   <g id="line2d_47"/>
   <g id="line2d_48"/>
   <g id="line2d_49"/>
   <g id="line2d_50"/>
   <g id="line2d_51"/>
   <g id="line2d_52"/>
   <g id="line2d_53"/>
   <g id="patch_3">
    <path d="M 43.55 220.230771 
L 43.55 12.9 
" style="fill:none;stroke:#000000;stroke-linecap:square;stroke-linejoin:miter;stroke-width:0.8;"/>
   </g>
   <g id="patch_4">
    <path d="M 315.36 220.230771 
L 315.36 12.9 
" style="fill:none;stroke:#000000;stroke-linecap:square;stroke-linejoin:miter;stroke-width:0.8;"/>
   </g>
   <g id="patch_5">
    <path d="M 43.55 220.230771 
L 315.36 220.230771 
" style="fill:none;stroke:#000000;stroke-linecap:square;stroke-linejoin:miter;stroke-width:0.8;"/>
   </g>
   <g id="patch_6">
    <path d="M 43.55 12.9 
L 315.36 12.9 
" style="fill:none;stroke:#000000;stroke-linecap:square;stroke-linejoin:miter;stroke-width:0.8;"/>
   </g>
  </g>
  <g id="legend_1">
   <g id="patch_7">
    <path d="M 331.8625 262.528125 
L 420 262.528125 
Q 422 262.528125 422 260.528125 
L 422 12 
Q 422 10 420 10 
L 331.8625 10 
Q 329.8625 10 329.8625 12 
L 329.8625 260.528125 
Q 329.8625 262.528125 331.8625 262.528125 
z
" style="fill:#ffffff;opacity:0.8;stroke:#cccccc;stroke-linejoin:miter;"/>
   </g>
   <g id="text_23">
    <!-- 478/610 Reg. -->
    <defs>
     <path d="M 31.78125 34.625 
Q 24.75 34.625 20.71875 30.859375 
Q 16.703125 27.09375 16.703125 20.515625 
Q 16.703125 13.921875 20.71875 10.15625 
Q 24.75 6.390625 31.78125 6.390625 
Q 38.8125 6.390625 42.859375 10.171875 
Q 46.921875 13.96875 46.921875 20.515625 
Q 46.921875 27.09375 42.890625 30.859375 
Q 38.875 34.625 31.78125 34.625 
z
M 21.921875 38.8125 
Q 15.578125 40.375 12.03125 44.71875 
Q 8.5 49.078125 8.5 55.328125 
Q 8.5 64.0625 14.71875 69.140625 
Q 20.953125 74.21875 31.78125 74.21875 
Q 42.671875 74.21875 48.875 69.140625 
Q 55.078125 64.0625 55.078125 55.328125 
Q 55.078125 49.078125 51.53125 44.71875 
Q 48 40.375 41.703125 38.8125 
Q 48.828125 37.15625 52.796875 32.3125 
Q 56.78125 27.484375 56.78125 20.515625 
Q 56.78125 9.90625 50.3125 4.234375 
Q 43.84375 -1.421875 31.78125 -1.421875 
Q 19.734375 -1.421875 13.25 4.234375 
Q 6.78125 9.90625 6.78125 20.515625 
Q 6.78125 27.484375 10.78125 32.3125 
Q 14.796875 37.15625 21.921875 38.8125 
z
M 18.3125 54.390625 
Q 18.3125 48.734375 21.84375 45.5625 
Q 25.390625 42.390625 31.78125 42.390625 
Q 38.140625 42.390625 41.71875 45.5625 
Q 45.3125 48.734375 45.3125 54.390625 
Q 45.3125 60.0625 41.71875 63.234375 
Q 38.140625 66.40625 31.78125 66.40625 
Q 25.390625 66.40625 21.84375 63.234375 
Q 18.3125 60.0625 18.3125 54.390625 
z
" id="DejaVuSans-56"/>
     <path d="M 25.390625 72.90625 
L 33.6875 72.90625 
L 8.296875 -9.28125 
L 0 -9.28125 
z
" id="DejaVuSans-47"/>
     <path d="M 33.015625 40.375 
Q 26.375 40.375 22.484375 35.828125 
Q 18.609375 31.296875 18.609375 23.390625 
Q 18.609375 15.53125 22.484375 10.953125 
Q 26.375 6.390625 33.015625 6.390625 
Q 39.65625 6.390625 43.53125 10.953125 
Q 47.40625 15.53125 47.40625 23.390625 
Q 47.40625 31.296875 43.53125 35.828125 
Q 39.65625 40.375 33.015625 40.375 
z
M 52.59375 71.296875 
L 52.59375 62.3125 
Q 48.875 64.0625 45.09375 64.984375 
Q 41.3125 65.921875 37.59375 65.921875 
Q 27.828125 65.921875 22.671875 59.328125 
Q 17.53125 52.734375 16.796875 39.40625 
Q 19.671875 43.65625 24.015625 45.921875 
Q 28.375 48.1875 33.59375 48.1875 
Q 44.578125 48.1875 50.953125 41.515625 
Q 57.328125 34.859375 57.328125 23.390625 
Q 57.328125 12.15625 50.6875 5.359375 
Q 44.046875 -1.421875 33.015625 -1.421875 
Q 20.359375 -1.421875 13.671875 8.265625 
Q 6.984375 17.96875 6.984375 36.375 
Q 6.984375 53.65625 15.1875 63.9375 
Q 23.390625 74.21875 37.203125 74.21875 
Q 40.921875 74.21875 44.703125 73.484375 
Q 48.484375 72.75 52.59375 71.296875 
z
" id="DejaVuSans-54"/>
     <path d="M 10.6875 12.40625 
L 21 12.40625 
L 21 0 
L 10.6875 0 
z
" id="DejaVuSans-46"/>
    </defs>
    <g transform="translate(342.259375 21.598437)scale(0.1 -0.1)">
     <use xlink:href="#DejaVuSans-52"/>
     <use x="63.623047" xlink:href="#DejaVuSans-55"/>
     <use x="127.246094" xlink:href="#DejaVuSans-56"/>
     <use x="190.869141" xlink:href="#DejaVuSans-47"/>
     <use x="224.560547" xlink:href="#DejaVuSans-54"/>
     <use x="288.183594" xlink:href="#DejaVuSans-49"/>
     <use x="351.806641" xlink:href="#DejaVuSans-48"/>
     <use x="415.429688" xlink:href="#DejaVuSans-32"/>
     <use x="447.216797" xlink:href="#DejaVuSans-82"/>
     <use x="516.636719" xlink:href="#DejaVuSans-101"/>
     <use x="578.160156" xlink:href="#DejaVuSans-103"/>
     <use x="641.636719" xlink:href="#DejaVuSans-46"/>
    </g>
   </g>
   <g id="line2d_54">
    <path d="M 333.8625 32.776562 
L 353.8625 32.776562 
" style="fill:none;stroke:#1b9e77;stroke-linecap:square;stroke-width:1.5;"/>
   </g>
   <g id="line2d_55"/>
   <g id="text_24">
    <!-- AUS (40) -->
    <defs>
     <path d="M 34.1875 63.1875 
L 20.796875 26.90625 
L 47.609375 26.90625 
z
M 28.609375 72.90625 
L 39.796875 72.90625 
L 67.578125 0 
L 57.328125 0 
L 50.6875 18.703125 
L 17.828125 18.703125 
L 11.1875 0 
L 0.78125 0 
z
" id="DejaVuSans-65"/>
     <path d="M 8.6875 72.90625 
L 18.609375 72.90625 
L 18.609375 28.609375 
Q 18.609375 16.890625 22.84375 11.734375 
Q 27.09375 6.59375 36.625 6.59375 
Q 46.09375 6.59375 50.34375 11.734375 
Q 54.59375 16.890625 54.59375 28.609375 
L 54.59375 72.90625 
L 64.5 72.90625 
L 64.5 27.390625 
Q 64.5 13.140625 57.4375 5.859375 
Q 50.390625 -1.421875 36.625 -1.421875 
Q 22.796875 -1.421875 15.734375 5.859375 
Q 8.6875 13.140625 8.6875 27.390625 
z
" id="DejaVuSans-85"/>
     <path d="M 31 75.875 
Q 24.46875 64.65625 21.28125 53.65625 
Q 18.109375 42.671875 18.109375 31.390625 
Q 18.109375 20.125 21.3125 9.0625 
Q 24.515625 -2 31 -13.1875 
L 23.1875 -13.1875 
Q 15.875 -1.703125 12.234375 9.375 
Q 8.59375 20.453125 8.59375 31.390625 
Q 8.59375 42.28125 12.203125 53.3125 
Q 15.828125 64.359375 23.1875 75.875 
z
" id="DejaVuSans-40"/>
     <path d="M 8.015625 75.875 
L 15.828125 75.875 
Q 23.140625 64.359375 26.78125 53.3125 
Q 30.421875 42.28125 30.421875 31.390625 
Q 30.421875 20.453125 26.78125 9.375 
Q 23.140625 -1.703125 15.828125 -13.1875 
L 8.015625 -13.1875 
Q 14.5 -2 17.703125 9.0625 
Q 20.90625 20.125 20.90625 31.390625 
Q 20.90625 42.671875 17.703125 53.65625 
Q 14.5 64.65625 8.015625 75.875 
z
" id="DejaVuSans-41"/>
    </defs>
    <g transform="translate(361.8625 36.276562)scale(0.1 -0.1)">
     <use xlink:href="#DejaVuSans-65"/>
     <use x="68.408203" xlink:href="#DejaVuSans-85"/>
     <use x="141.601562" xlink:href="#DejaVuSans-83"/>
     <use x="205.078125" xlink:href="#DejaVuSans-32"/>
     <use x="236.865234" xlink:href="#DejaVuSans-40"/>
     <use x="275.878906" xlink:href="#DejaVuSans-52"/>
     <use x="339.501953" xlink:href="#DejaVuSans-48"/>
     <use x="403.125" xlink:href="#DejaVuSans-41"/>
    </g>
   </g>
   <g id="line2d_56">
    <path d="M 333.8625 47.454688 
L 353.8625 47.454688 
" style="fill:none;stroke:#d95f02;stroke-linecap:square;stroke-width:1.5;"/>
   </g>
   <g id="line2d_57"/>
   <g id="text_25">
    <!-- COML (40) -->
    <defs>
     <path d="M 64.40625 67.28125 
L 64.40625 56.890625 
Q 59.421875 61.53125 53.78125 63.8125 
Q 48.140625 66.109375 41.796875 66.109375 
Q 29.296875 66.109375 22.65625 58.46875 
Q 16.015625 50.828125 16.015625 36.375 
Q 16.015625 21.96875 22.65625 14.328125 
Q 29.296875 6.6875 41.796875 6.6875 
Q 48.140625 6.6875 53.78125 8.984375 
Q 59.421875 11.28125 64.40625 15.921875 
L 64.40625 5.609375 
Q 59.234375 2.09375 53.4375 0.328125 
Q 47.65625 -1.421875 41.21875 -1.421875 
Q 24.65625 -1.421875 15.125 8.703125 
Q 5.609375 18.84375 5.609375 36.375 
Q 5.609375 53.953125 15.125 64.078125 
Q 24.65625 74.21875 41.21875 74.21875 
Q 47.75 74.21875 53.53125 72.484375 
Q 59.328125 70.75 64.40625 67.28125 
z
" id="DejaVuSans-67"/>
     <path d="M 39.40625 66.21875 
Q 28.65625 66.21875 22.328125 58.203125 
Q 16.015625 50.203125 16.015625 36.375 
Q 16.015625 22.609375 22.328125 14.59375 
Q 28.65625 6.59375 39.40625 6.59375 
Q 50.140625 6.59375 56.421875 14.59375 
Q 62.703125 22.609375 62.703125 36.375 
Q 62.703125 50.203125 56.421875 58.203125 
Q 50.140625 66.21875 39.40625 66.21875 
z
M 39.40625 74.21875 
Q 54.734375 74.21875 63.90625 63.9375 
Q 73.09375 53.65625 73.09375 36.375 
Q 73.09375 19.140625 63.90625 8.859375 
Q 54.734375 -1.421875 39.40625 -1.421875 
Q 24.03125 -1.421875 14.8125 8.828125 
Q 5.609375 19.09375 5.609375 36.375 
Q 5.609375 53.65625 14.8125 63.9375 
Q 24.03125 74.21875 39.40625 74.21875 
z
" id="DejaVuSans-79"/>
     <path d="M 9.8125 72.90625 
L 24.515625 72.90625 
L 43.109375 23.296875 
L 61.8125 72.90625 
L 76.515625 72.90625 
L 76.515625 0 
L 66.890625 0 
L 66.890625 64.015625 
L 48.09375 14.015625 
L 38.1875 14.015625 
L 19.390625 64.015625 
L 19.390625 0 
L 9.8125 0 
z
" id="DejaVuSans-77"/>
     <path d="M 9.8125 72.90625 
L 19.671875 72.90625 
L 19.671875 8.296875 
L 55.171875 8.296875 
L 55.171875 0 
L 9.8125 0 
z
" id="DejaVuSans-76"/>
    </defs>
    <g transform="translate(361.8625 50.954688)scale(0.1 -0.1)">
     <use xlink:href="#DejaVuSans-67"/>
     <use x="69.824219" xlink:href="#DejaVuSans-79"/>
     <use x="148.535156" xlink:href="#DejaVuSans-77"/>
     <use x="234.814453" xlink:href="#DejaVuSans-76"/>
     <use x="290.527344" xlink:href="#DejaVuSans-32"/>
     <use x="322.314453" xlink:href="#DejaVuSans-40"/>
     <use x="361.328125" xlink:href="#DejaVuSans-52"/>
     <use x="424.951172" xlink:href="#DejaVuSans-48"/>
     <use x="488.574219" xlink:href="#DejaVuSans-41"/>
    </g>
   </g>
   <g id="line2d_58">
    <path d="M 333.8625 62.132812 
L 353.8625 62.132812 
" style="fill:none;stroke:#7570b3;stroke-linecap:square;stroke-width:1.5;"/>
   </g>
   <g id="line2d_59"/>
   <g id="text_26">
    <!-- GDD (40) -->
    <defs>
     <path d="M 59.515625 10.40625 
L 59.515625 29.984375 
L 43.40625 29.984375 
L 43.40625 38.09375 
L 69.28125 38.09375 
L 69.28125 6.78125 
Q 63.578125 2.734375 56.6875 0.65625 
Q 49.8125 -1.421875 42 -1.421875 
Q 24.90625 -1.421875 15.25 8.5625 
Q 5.609375 18.5625 5.609375 36.375 
Q 5.609375 54.25 15.25 64.234375 
Q 24.90625 74.21875 42 74.21875 
Q 49.125 74.21875 55.546875 72.453125 
Q 61.96875 70.703125 67.390625 67.28125 
L 67.390625 56.78125 
Q 61.921875 61.421875 55.765625 63.765625 
Q 49.609375 66.109375 42.828125 66.109375 
Q 29.4375 66.109375 22.71875 58.640625 
Q 16.015625 51.171875 16.015625 36.375 
Q 16.015625 21.625 22.71875 14.15625 
Q 29.4375 6.6875 42.828125 6.6875 
Q 48.046875 6.6875 52.140625 7.59375 
Q 56.25 8.5 59.515625 10.40625 
z
" id="DejaVuSans-71"/>
    </defs>
    <g transform="translate(361.8625 65.632812)scale(0.1 -0.1)">
     <use xlink:href="#DejaVuSans-71"/>
     <use x="77.490234" xlink:href="#DejaVuSans-68"/>
     <use x="154.492188" xlink:href="#DejaVuSans-68"/>
     <use x="231.494141" xlink:href="#DejaVuSans-32"/>
     <use x="263.28125" xlink:href="#DejaVuSans-40"/>
     <use x="302.294922" xlink:href="#DejaVuSans-52"/>
     <use x="365.917969" xlink:href="#DejaVuSans-48"/>
     <use x="429.541016" xlink:href="#DejaVuSans-41"/>
    </g>
   </g>
   <g id="line2d_60">
    <path d="M 333.8625 76.810937 
L 353.8625 76.810937 
" style="fill:none;stroke:#e7298a;stroke-linecap:square;stroke-width:1.5;"/>
   </g>
   <g id="line2d_61"/>
   <g id="text_27">
    <!-- AS (38) -->
    <g transform="translate(361.8625 80.310937)scale(0.1 -0.1)">
     <use xlink:href="#DejaVuSans-65"/>
     <use x="68.408203" xlink:href="#DejaVuSans-83"/>
     <use x="131.884766" xlink:href="#DejaVuSans-32"/>
     <use x="163.671875" xlink:href="#DejaVuSans-40"/>
     <use x="202.685547" xlink:href="#DejaVuSans-51"/>
     <use x="266.308594" xlink:href="#DejaVuSans-56"/>
     <use x="329.931641" xlink:href="#DejaVuSans-41"/>
    </g>
   </g>
   <g id="line2d_62">
    <path d="M 333.8625 91.489062 
L 353.8625 91.489062 
" style="fill:none;stroke:#66a61e;stroke-linecap:square;stroke-width:1.5;"/>
   </g>
   <g id="line2d_63"/>
   <g id="text_28">
    <!-- MD (38) -->
    <g transform="translate(361.8625 94.989062)scale(0.1 -0.1)">
     <use xlink:href="#DejaVuSans-77"/>
     <use x="86.279297" xlink:href="#DejaVuSans-68"/>
     <use x="163.28125" xlink:href="#DejaVuSans-32"/>
     <use x="195.068359" xlink:href="#DejaVuSans-40"/>
     <use x="234.082031" xlink:href="#DejaVuSans-51"/>
     <use x="297.705078" xlink:href="#DejaVuSans-56"/>
     <use x="361.328125" xlink:href="#DejaVuSans-41"/>
    </g>
   </g>
   <g id="line2d_64">
    <path d="M 333.8625 106.167188 
L 353.8625 106.167188 
" style="fill:none;stroke:#e6ab02;stroke-linecap:square;stroke-width:1.5;"/>
   </g>
   <g id="line2d_65"/>
   <g id="text_29">
    <!-- HPI (38) -->
    <defs>
     <path d="M 9.8125 72.90625 
L 19.671875 72.90625 
L 19.671875 43.015625 
L 55.515625 43.015625 
L 55.515625 72.90625 
L 65.375 72.90625 
L 65.375 0 
L 55.515625 0 
L 55.515625 34.71875 
L 19.671875 34.71875 
L 19.671875 0 
L 9.8125 0 
z
" id="DejaVuSans-72"/>
     <path d="M 19.671875 64.796875 
L 19.671875 37.40625 
L 32.078125 37.40625 
Q 38.96875 37.40625 42.71875 40.96875 
Q 46.484375 44.53125 46.484375 51.125 
Q 46.484375 57.671875 42.71875 61.234375 
Q 38.96875 64.796875 32.078125 64.796875 
z
M 9.8125 72.90625 
L 32.078125 72.90625 
Q 44.34375 72.90625 50.609375 67.359375 
Q 56.890625 61.8125 56.890625 51.125 
Q 56.890625 40.328125 50.609375 34.8125 
Q 44.34375 29.296875 32.078125 29.296875 
L 19.671875 29.296875 
L 19.671875 0 
L 9.8125 0 
z
" id="DejaVuSans-80"/>
     <path d="M 9.8125 72.90625 
L 19.671875 72.90625 
L 19.671875 0 
L 9.8125 0 
z
" id="DejaVuSans-73"/>
    </defs>
    <g transform="translate(361.8625 109.667188)scale(0.1 -0.1)">
     <use xlink:href="#DejaVuSans-72"/>
     <use x="75.195312" xlink:href="#DejaVuSans-80"/>
     <use x="135.498047" xlink:href="#DejaVuSans-73"/>
     <use x="164.990234" xlink:href="#DejaVuSans-32"/>
     <use x="196.777344" xlink:href="#DejaVuSans-40"/>
     <use x="235.791016" xlink:href="#DejaVuSans-51"/>
     <use x="299.414062" xlink:href="#DejaVuSans-56"/>
     <use x="363.037109" xlink:href="#DejaVuSans-41"/>
    </g>
   </g>
   <g id="line2d_66">
    <path d="M 333.8625 120.845312 
L 353.8625 120.845312 
" style="fill:none;stroke:#a6761d;stroke-linecap:square;stroke-width:1.5;"/>
   </g>
   <g id="line2d_67"/>
   <g id="text_30">
    <!-- SA (37) -->
    <g transform="translate(361.8625 124.345312)scale(0.1 -0.1)">
     <use xlink:href="#DejaVuSans-83"/>
     <use x="63.492188" xlink:href="#DejaVuSans-65"/>
     <use x="131.900391" xlink:href="#DejaVuSans-32"/>
     <use x="163.6875" xlink:href="#DejaVuSans-40"/>
     <use x="202.701172" xlink:href="#DejaVuSans-51"/>
     <use x="266.324219" xlink:href="#DejaVuSans-55"/>
     <use x="329.947266" xlink:href="#DejaVuSans-41"/>
    </g>
   </g>
   <g id="line2d_68">
    <path d="M 333.8625 135.523438 
L 353.8625 135.523438 
" style="fill:none;stroke:#666666;stroke-linecap:square;stroke-width:1.5;"/>
   </g>
   <g id="line2d_69"/>
   <g id="text_31">
    <!-- FIT (29) -->
    <defs>
     <path d="M 9.8125 72.90625 
L 51.703125 72.90625 
L 51.703125 64.59375 
L 19.671875 64.59375 
L 19.671875 43.109375 
L 48.578125 43.109375 
L 48.578125 34.8125 
L 19.671875 34.8125 
L 19.671875 0 
L 9.8125 0 
z
" id="DejaVuSans-70"/>
     <path d="M -0.296875 72.90625 
L 61.375 72.90625 
L 61.375 64.59375 
L 35.5 64.59375 
L 35.5 0 
L 25.59375 0 
L 25.59375 64.59375 
L -0.296875 64.59375 
z
" id="DejaVuSans-84"/>
    </defs>
    <g transform="translate(361.8625 139.023438)scale(0.1 -0.1)">
     <use xlink:href="#DejaVuSans-70"/>
     <use x="57.519531" xlink:href="#DejaVuSans-73"/>
     <use x="87.011719" xlink:href="#DejaVuSans-84"/>
     <use x="148.095703" xlink:href="#DejaVuSans-32"/>
     <use x="179.882812" xlink:href="#DejaVuSans-40"/>
     <use x="218.896484" xlink:href="#DejaVuSans-50"/>
     <use x="282.519531" xlink:href="#DejaVuSans-57"/>
     <use x="346.142578" xlink:href="#DejaVuSans-41"/>
    </g>
   </g>
   <g id="line2d_70">
    <path d="M 333.8625 150.201562 
L 353.8625 150.201562 
" style="fill:none;stroke:#1b9e77;stroke-dasharray:4.5,1.5;stroke-dashoffset:0;stroke-width:1.5;"/>
   </g>
   <g id="line2d_71"/>
   <g id="text_32">
    <!-- TBI (27) -->
    <defs>
     <path d="M 19.671875 34.8125 
L 19.671875 8.109375 
L 35.5 8.109375 
Q 43.453125 8.109375 47.28125 11.40625 
Q 51.125 14.703125 51.125 21.484375 
Q 51.125 28.328125 47.28125 31.5625 
Q 43.453125 34.8125 35.5 34.8125 
z
M 19.671875 64.796875 
L 19.671875 42.828125 
L 34.28125 42.828125 
Q 41.5 42.828125 45.03125 45.53125 
Q 48.578125 48.25 48.578125 53.8125 
Q 48.578125 59.328125 45.03125 62.0625 
Q 41.5 64.796875 34.28125 64.796875 
z
M 9.8125 72.90625 
L 35.015625 72.90625 
Q 46.296875 72.90625 52.390625 68.21875 
Q 58.5 63.53125 58.5 54.890625 
Q 58.5 48.1875 55.375 44.234375 
Q 52.25 40.28125 46.1875 39.3125 
Q 53.46875 37.75 57.5 32.78125 
Q 61.53125 27.828125 61.53125 20.40625 
Q 61.53125 10.640625 54.890625 5.3125 
Q 48.25 0 35.984375 0 
L 9.8125 0 
z
" id="DejaVuSans-66"/>
    </defs>
    <g transform="translate(361.8625 153.701562)scale(0.1 -0.1)">
     <use xlink:href="#DejaVuSans-84"/>
     <use x="61.083984" xlink:href="#DejaVuSans-66"/>
     <use x="129.6875" xlink:href="#DejaVuSans-73"/>
     <use x="159.179688" xlink:href="#DejaVuSans-32"/>
     <use x="190.966797" xlink:href="#DejaVuSans-40"/>
     <use x="229.980469" xlink:href="#DejaVuSans-50"/>
     <use x="293.603516" xlink:href="#DejaVuSans-55"/>
     <use x="357.226562" xlink:href="#DejaVuSans-41"/>
    </g>
   </g>
   <g id="line2d_72">
    <path d="M 333.8625 164.879687 
L 353.8625 164.879687 
" style="fill:none;stroke:#d95f02;stroke-dasharray:4.5,1.5;stroke-dashoffset:0;stroke-width:1.5;"/>
   </g>
   <g id="line2d_73"/>
   <g id="text_33">
    <!-- BP (26) -->
    <g transform="translate(361.8625 168.379687)scale(0.1 -0.1)">
     <use xlink:href="#DejaVuSans-66"/>
     <use x="68.603516" xlink:href="#DejaVuSans-80"/>
     <use x="128.90625" xlink:href="#DejaVuSans-32"/>
     <use x="160.693359" xlink:href="#DejaVuSans-40"/>
     <use x="199.707031" xlink:href="#DejaVuSans-50"/>
     <use x="263.330078" xlink:href="#DejaVuSans-54"/>
     <use x="326.953125" xlink:href="#DejaVuSans-41"/>
    </g>
   </g>
   <g id="line2d_74">
    <path d="M 333.8625 179.557812 
L 353.8625 179.557812 
" style="fill:none;stroke:#7570b3;stroke-dasharray:4.5,1.5;stroke-dashoffset:0;stroke-width:1.5;"/>
   </g>
   <g id="line2d_75"/>
   <g id="text_34">
    <!-- SPD (25) -->
    <g transform="translate(361.8625 183.057812)scale(0.1 -0.1)">
     <use xlink:href="#DejaVuSans-83"/>
     <use x="63.476562" xlink:href="#DejaVuSans-80"/>
     <use x="123.779297" xlink:href="#DejaVuSans-68"/>
     <use x="200.78125" xlink:href="#DejaVuSans-32"/>
     <use x="232.568359" xlink:href="#DejaVuSans-40"/>
     <use x="271.582031" xlink:href="#DejaVuSans-50"/>
     <use x="335.205078" xlink:href="#DejaVuSans-53"/>
     <use x="398.828125" xlink:href="#DejaVuSans-41"/>
    </g>
   </g>
   <g id="line2d_76">
    <path d="M 333.8625 194.235937 
L 353.8625 194.235937 
" style="fill:none;stroke:#e7298a;stroke-dasharray:4.5,1.5;stroke-dashoffset:0;stroke-width:1.5;"/>
   </g>
   <g id="line2d_77"/>
   <g id="text_35">
    <!-- CC (25) -->
    <g transform="translate(361.8625 197.735937)scale(0.1 -0.1)">
     <use xlink:href="#DejaVuSans-67"/>
     <use x="69.824219" xlink:href="#DejaVuSans-67"/>
     <use x="139.648438" xlink:href="#DejaVuSans-32"/>
     <use x="171.435547" xlink:href="#DejaVuSans-40"/>
     <use x="210.449219" xlink:href="#DejaVuSans-50"/>
     <use x="274.072266" xlink:href="#DejaVuSans-53"/>
     <use x="337.695312" xlink:href="#DejaVuSans-41"/>
    </g>
   </g>
   <g id="line2d_78">
    <path d="M 333.8625 208.914062 
L 353.8625 208.914062 
" style="fill:none;stroke:#66a61e;stroke-dasharray:4.5,1.5;stroke-dashoffset:0;stroke-width:1.5;"/>
   </g>
   <g id="line2d_79"/>
   <g id="text_36">
    <!-- RJPH (20) -->
    <defs>
     <path d="M 9.8125 72.90625 
L 19.671875 72.90625 
L 19.671875 5.078125 
Q 19.671875 -8.109375 14.671875 -14.0625 
Q 9.671875 -20.015625 -1.421875 -20.015625 
L -5.171875 -20.015625 
L -5.171875 -11.71875 
L -2.09375 -11.71875 
Q 4.4375 -11.71875 7.125 -8.046875 
Q 9.8125 -4.390625 9.8125 5.078125 
z
" id="DejaVuSans-74"/>
    </defs>
    <g transform="translate(361.8625 212.414062)scale(0.1 -0.1)">
     <use xlink:href="#DejaVuSans-82"/>
     <use x="69.482422" xlink:href="#DejaVuSans-74"/>
     <use x="98.974609" xlink:href="#DejaVuSans-80"/>
     <use x="159.277344" xlink:href="#DejaVuSans-72"/>
     <use x="234.472656" xlink:href="#DejaVuSans-32"/>
     <use x="266.259766" xlink:href="#DejaVuSans-40"/>
     <use x="305.273438" xlink:href="#DejaVuSans-50"/>
     <use x="368.896484" xlink:href="#DejaVuSans-48"/>
     <use x="432.519531" xlink:href="#DejaVuSans-41"/>
    </g>
   </g>
   <g id="line2d_80">
    <path d="M 333.8625 223.592187 
L 353.8625 223.592187 
" style="fill:none;stroke:#e6ab02;stroke-dasharray:4.5,1.5;stroke-dashoffset:0;stroke-width:1.5;"/>
   </g>
   <g id="line2d_81"/>
   <g id="text_37">
    <!-- AHR-H (20) -->
    <g transform="translate(361.8625 227.092187)scale(0.1 -0.1)">
     <use xlink:href="#DejaVuSans-65"/>
     <use x="68.408203" xlink:href="#DejaVuSans-72"/>
     <use x="143.603516" xlink:href="#DejaVuSans-82"/>
     <use x="213.023438" xlink:href="#DejaVuSans-45"/>
     <use x="249.107422" xlink:href="#DejaVuSans-72"/>
     <use x="324.302734" xlink:href="#DejaVuSans-32"/>
     <use x="356.089844" xlink:href="#DejaVuSans-40"/>
     <use x="395.103516" xlink:href="#DejaVuSans-50"/>
     <use x="458.726562" xlink:href="#DejaVuSans-48"/>
     <use x="522.349609" xlink:href="#DejaVuSans-41"/>
    </g>
   </g>
   <g id="line2d_82">
    <path d="M 333.8625 238.270312 
L 353.8625 238.270312 
" style="fill:none;stroke:#a6761d;stroke-dasharray:4.5,1.5;stroke-dashoffset:0;stroke-width:1.5;"/>
   </g>
   <g id="line2d_83"/>
   <g id="text_38">
    <!-- CB (20) -->
    <g transform="translate(361.8625 241.770312)scale(0.1 -0.1)">
     <use xlink:href="#DejaVuSans-67"/>
     <use x="69.824219" xlink:href="#DejaVuSans-66"/>
     <use x="138.427734" xlink:href="#DejaVuSans-32"/>
     <use x="170.214844" xlink:href="#DejaVuSans-40"/>
     <use x="209.228516" xlink:href="#DejaVuSans-50"/>
     <use x="272.851562" xlink:href="#DejaVuSans-48"/>
     <use x="336.474609" xlink:href="#DejaVuSans-41"/>
    </g>
   </g>
   <g id="line2d_84">
    <path d="M 333.8625 252.948437 
L 353.8625 252.948437 
" style="fill:none;stroke:#666666;stroke-dasharray:4.5,1.5;stroke-dashoffset:0;stroke-width:1.5;"/>
   </g>
   <g id="line2d_85"/>
   <g id="text_39">
    <!-- AHR-A (15) -->
    <g transform="translate(361.8625 256.448437)scale(0.1 -0.1)">
     <use xlink:href="#DejaVuSans-65"/>
     <use x="68.408203" xlink:href="#DejaVuSans-72"/>
     <use x="143.603516" xlink:href="#DejaVuSans-82"/>
     <use x="213.023438" xlink:href="#DejaVuSans-45"/>
     <use x="249.076172" xlink:href="#DejaVuSans-65"/>
     <use x="317.484375" xlink:href="#DejaVuSans-32"/>
     <use x="349.271484" xlink:href="#DejaVuSans-40"/>
     <use x="388.285156" xlink:href="#DejaVuSans-49"/>
     <use x="451.908203" xlink:href="#DejaVuSans-53"/>
     <use x="515.53125" xlink:href="#DejaVuSans-41"/>
    </g>
   </g>
  </g>
 </g>
 <defs>
  <clipPath id="p4ed4554470">
   <rect height="207.330771" width="271.81" x="43.55" y="12.9"/>
  </clipPath>
 </defs>
</svg>
