<?xml version="1.0" encoding="utf-8" standalone="no"?>
<!DOCTYPE svg PUBLIC "-//W3C//DTD SVG 1.1//EN"
  "http://www.w3.org/Graphics/SVG/1.1/DTD/svg11.dtd">
<!-- Created with matplotlib (https://matplotlib.org/) -->
<svg height="288pt" version="1.1" viewBox="0 0 432 288" width="432pt" xmlns="http://www.w3.org/2000/svg" xmlns:xlink="http://www.w3.org/1999/xlink">
 <defs>
  <style type="text/css">
*{stroke-linecap:butt;stroke-linejoin:round;}
  </style>
 </defs>
 <g id="figure_1">
  <g id="patch_1">
   <path d="M 0 288 
L 432 288 
L 432 0 
L 0 0 
z
" style="fill:#ffffff;"/>
  </g>
  <g id="axes_1">
   <g id="patch_2">
    <path d="M 43.55 220.230771 
L 315.36 220.230771 
L 315.36 12.9 
L 43.55 12.9 
z
" style="fill:#ffffff;"/>
   </g>
   <g id="matplotlib.axis_1">
    <g id="xtick_1">
     <g id="line2d_1">
      <defs>
       <path d="M 0 0 
L 0 3.5 
" id="mb9a47e6712" style="stroke:#000000;stroke-width:0.8;"/>
      </defs>
      <g>
       <use style="stroke:#000000;stroke-width:0.8;" x="47.771936" xlink:href="#mb9a47e6712" y="220.230771"/>
      </g>
     </g>
     <g id="text_1">
      <!-- 2020-11-29 -->
      <defs>
       <path d="M 19.1875 8.296875 
L 53.609375 8.296875 
L 53.609375 0 
L 7.328125 0 
L 7.328125 8.296875 
Q 12.9375 14.109375 22.625 23.890625 
Q 32.328125 33.6875 34.8125 36.53125 
Q 39.546875 41.84375 41.421875 45.53125 
Q 43.3125 49.21875 43.3125 52.78125 
Q 43.3125 58.59375 39.234375 62.25 
Q 35.15625 65.921875 28.609375 65.921875 
Q 23.96875 65.921875 18.8125 64.3125 
Q 13.671875 62.703125 7.8125 59.421875 
L 7.8125 69.390625 
Q 13.765625 71.78125 18.9375 73 
Q 24.125 74.21875 28.421875 74.21875 
Q 39.75 74.21875 46.484375 68.546875 
Q 53.21875 62.890625 53.21875 53.421875 
Q 53.21875 48.921875 51.53125 44.890625 
Q 49.859375 40.875 45.40625 35.40625 
Q 44.1875 33.984375 37.640625 27.21875 
Q 31.109375 20.453125 19.1875 8.296875 
z
" id="DejaVuSans-50"/>
       <path d="M 31.78125 66.40625 
Q 24.171875 66.40625 20.328125 58.90625 
Q 16.5 51.421875 16.5 36.375 
Q 16.5 21.390625 20.328125 13.890625 
Q 24.171875 6.390625 31.78125 6.390625 
Q 39.453125 6.390625 43.28125 13.890625 
Q 47.125 21.390625 47.125 36.375 
Q 47.125 51.421875 43.28125 58.90625 
Q 39.453125 66.40625 31.78125 66.40625 
z
M 31.78125 74.21875 
Q 44.046875 74.21875 50.515625 64.515625 
Q 56.984375 54.828125 56.984375 36.375 
Q 56.984375 17.96875 50.515625 8.265625 
Q 44.046875 -1.421875 31.78125 -1.421875 
Q 19.53125 -1.421875 13.0625 8.265625 
Q 6.59375 17.96875 6.59375 36.375 
Q 6.59375 54.828125 13.0625 64.515625 
Q 19.53125 74.21875 31.78125 74.21875 
z
" id="DejaVuSans-48"/>
       <path d="M 4.890625 31.390625 
L 31.203125 31.390625 
L 31.203125 23.390625 
L 4.890625 23.390625 
z
" id="DejaVuSans-45"/>
       <path d="M 12.40625 8.296875 
L 28.515625 8.296875 
L 28.515625 63.921875 
L 10.984375 60.40625 
L 10.984375 69.390625 
L 28.421875 72.90625 
L 38.28125 72.90625 
L 38.28125 8.296875 
L 54.390625 8.296875 
L 54.390625 0 
L 12.40625 0 
z
" id="DejaVuSans-49"/>
       <path d="M 10.984375 1.515625 
L 10.984375 10.5 
Q 14.703125 8.734375 18.5 7.8125 
Q 22.3125 6.890625 25.984375 6.890625 
Q 35.75 6.890625 40.890625 13.453125 
Q 46.046875 20.015625 46.78125 33.40625 
Q 43.953125 29.203125 39.59375 26.953125 
Q 35.25 24.703125 29.984375 24.703125 
Q 19.046875 24.703125 12.671875 31.3125 
Q 6.296875 37.9375 6.296875 49.421875 
Q 6.296875 60.640625 12.9375 67.421875 
Q 19.578125 74.21875 30.609375 74.21875 
Q 43.265625 74.21875 49.921875 64.515625 
Q 56.59375 54.828125 56.59375 36.375 
Q 56.59375 19.140625 48.40625 8.859375 
Q 40.234375 -1.421875 26.421875 -1.421875 
Q 22.703125 -1.421875 18.890625 -0.6875 
Q 15.09375 0.046875 10.984375 1.515625 
z
M 30.609375 32.421875 
Q 37.25 32.421875 41.125 36.953125 
Q 45.015625 41.5 45.015625 49.421875 
Q 45.015625 57.28125 41.125 61.84375 
Q 37.25 66.40625 30.609375 66.40625 
Q 23.96875 66.40625 20.09375 61.84375 
Q 16.21875 57.28125 16.21875 49.421875 
Q 16.21875 41.5 20.09375 36.953125 
Q 23.96875 32.421875 30.609375 32.421875 
z
" id="DejaVuSans-57"/>
      </defs>
      <g transform="translate(23.98682 262.869024)rotate(-30)scale(0.1 -0.1)">
       <use xlink:href="#DejaVuSans-50"/>
       <use x="63.623047" xlink:href="#DejaVuSans-48"/>
       <use x="127.246094" xlink:href="#DejaVuSans-50"/>
       <use x="190.869141" xlink:href="#DejaVuSans-48"/>
       <use x="254.492188" xlink:href="#DejaVuSans-45"/>
       <use x="290.576172" xlink:href="#DejaVuSans-49"/>
       <use x="354.199219" xlink:href="#DejaVuSans-49"/>
       <use x="417.822266" xlink:href="#DejaVuSans-45"/>
       <use x="453.90625" xlink:href="#DejaVuSans-50"/>
       <use x="517.529297" xlink:href="#DejaVuSans-57"/>
      </g>
     </g>
    </g>
    <g id="xtick_2">
     <g id="line2d_2">
      <g>
       <use style="stroke:#000000;stroke-width:0.8;" x="59.003809" xlink:href="#mb9a47e6712" y="220.230771"/>
      </g>
     </g>
     <g id="text_2">
      <!-- 2020-12-01 -->
      <g transform="translate(35.218693 262.869024)rotate(-30)scale(0.1 -0.1)">
       <use xlink:href="#DejaVuSans-50"/>
       <use x="63.623047" xlink:href="#DejaVuSans-48"/>
       <use x="127.246094" xlink:href="#DejaVuSans-50"/>
       <use x="190.869141" xlink:href="#DejaVuSans-48"/>
       <use x="254.492188" xlink:href="#DejaVuSans-45"/>
       <use x="290.576172" xlink:href="#DejaVuSans-49"/>
       <use x="354.199219" xlink:href="#DejaVuSans-50"/>
       <use x="417.822266" xlink:href="#DejaVuSans-45"/>
       <use x="453.90625" xlink:href="#DejaVuSans-48"/>
       <use x="517.529297" xlink:href="#DejaVuSans-49"/>
      </g>
     </g>
    </g>
    <g id="xtick_3">
     <g id="line2d_3">
      <g>
       <use style="stroke:#000000;stroke-width:0.8;" x="98.315364" xlink:href="#mb9a47e6712" y="220.230771"/>
      </g>
     </g>
     <g id="text_3">
      <!-- 2020-12-08 -->
      <defs>
       <path d="M 31.78125 34.625 
Q 24.75 34.625 20.71875 30.859375 
Q 16.703125 27.09375 16.703125 20.515625 
Q 16.703125 13.921875 20.71875 10.15625 
Q 24.75 6.390625 31.78125 6.390625 
Q 38.8125 6.390625 42.859375 10.171875 
Q 46.921875 13.96875 46.921875 20.515625 
Q 46.921875 27.09375 42.890625 30.859375 
Q 38.875 34.625 31.78125 34.625 
z
M 21.921875 38.8125 
Q 15.578125 40.375 12.03125 44.71875 
Q 8.5 49.078125 8.5 55.328125 
Q 8.5 64.0625 14.71875 69.140625 
Q 20.953125 74.21875 31.78125 74.21875 
Q 42.671875 74.21875 48.875 69.140625 
Q 55.078125 64.0625 55.078125 55.328125 
Q 55.078125 49.078125 51.53125 44.71875 
Q 48 40.375 41.703125 38.8125 
Q 48.828125 37.15625 52.796875 32.3125 
Q 56.78125 27.484375 56.78125 20.515625 
Q 56.78125 9.90625 50.3125 4.234375 
Q 43.84375 -1.421875 31.78125 -1.421875 
Q 19.734375 -1.421875 13.25 4.234375 
Q 6.78125 9.90625 6.78125 20.515625 
Q 6.78125 27.484375 10.78125 32.3125 
Q 14.796875 37.15625 21.921875 38.8125 
z
M 18.3125 54.390625 
Q 18.3125 48.734375 21.84375 45.5625 
Q 25.390625 42.390625 31.78125 42.390625 
Q 38.140625 42.390625 41.71875 45.5625 
Q 45.3125 48.734375 45.3125 54.390625 
Q 45.3125 60.0625 41.71875 63.234375 
Q 38.140625 66.40625 31.78125 66.40625 
Q 25.390625 66.40625 21.84375 63.234375 
Q 18.3125 60.0625 18.3125 54.390625 
z
" id="DejaVuSans-56"/>
      </defs>
      <g transform="translate(74.530247 262.869024)rotate(-30)scale(0.1 -0.1)">
       <use xlink:href="#DejaVuSans-50"/>
       <use x="63.623047" xlink:href="#DejaVuSans-48"/>
       <use x="127.246094" xlink:href="#DejaVuSans-50"/>
       <use x="190.869141" xlink:href="#DejaVuSans-48"/>
       <use x="254.492188" xlink:href="#DejaVuSans-45"/>
       <use x="290.576172" xlink:href="#DejaVuSans-49"/>
       <use x="354.199219" xlink:href="#DejaVuSans-50"/>
       <use x="417.822266" xlink:href="#DejaVuSans-45"/>
       <use x="453.90625" xlink:href="#DejaVuSans-48"/>
       <use x="517.529297" xlink:href="#DejaVuSans-56"/>
      </g>
     </g>
    </g>
    <g id="xtick_4">
     <g id="line2d_4">
      <g>
       <use style="stroke:#000000;stroke-width:0.8;" x="137.626918" xlink:href="#mb9a47e6712" y="220.230771"/>
      </g>
     </g>
     <g id="text_4">
      <!-- 2020-12-15 -->
      <defs>
       <path d="M 10.796875 72.90625 
L 49.515625 72.90625 
L 49.515625 64.59375 
L 19.828125 64.59375 
L 19.828125 46.734375 
Q 21.96875 47.46875 24.109375 47.828125 
Q 26.265625 48.1875 28.421875 48.1875 
Q 40.625 48.1875 47.75 41.5 
Q 54.890625 34.8125 54.890625 23.390625 
Q 54.890625 11.625 47.5625 5.09375 
Q 40.234375 -1.421875 26.90625 -1.421875 
Q 22.3125 -1.421875 17.546875 -0.640625 
Q 12.796875 0.140625 7.71875 1.703125 
L 7.71875 11.625 
Q 12.109375 9.234375 16.796875 8.0625 
Q 21.484375 6.890625 26.703125 6.890625 
Q 35.15625 6.890625 40.078125 11.328125 
Q 45.015625 15.765625 45.015625 23.390625 
Q 45.015625 31 40.078125 35.4375 
Q 35.15625 39.890625 26.703125 39.890625 
Q 22.75 39.890625 18.8125 39.015625 
Q 14.890625 38.140625 10.796875 36.28125 
z
" id="DejaVuSans-53"/>
      </defs>
      <g transform="translate(113.841802 262.869024)rotate(-30)scale(0.1 -0.1)">
       <use xlink:href="#DejaVuSans-50"/>
       <use x="63.623047" xlink:href="#DejaVuSans-48"/>
       <use x="127.246094" xlink:href="#DejaVuSans-50"/>
       <use x="190.869141" xlink:href="#DejaVuSans-48"/>
       <use x="254.492188" xlink:href="#DejaVuSans-45"/>
       <use x="290.576172" xlink:href="#DejaVuSans-49"/>
       <use x="354.199219" xlink:href="#DejaVuSans-50"/>
       <use x="417.822266" xlink:href="#DejaVuSans-45"/>
       <use x="453.90625" xlink:href="#DejaVuSans-49"/>
       <use x="517.529297" xlink:href="#DejaVuSans-53"/>
      </g>
     </g>
    </g>
    <g id="xtick_5">
     <g id="line2d_5">
      <g>
       <use style="stroke:#000000;stroke-width:0.8;" x="176.938473" xlink:href="#mb9a47e6712" y="220.230771"/>
      </g>
     </g>
     <g id="text_5">
      <!-- 2020-12-22 -->
      <g transform="translate(153.153357 262.869024)rotate(-30)scale(0.1 -0.1)">
       <use xlink:href="#DejaVuSans-50"/>
       <use x="63.623047" xlink:href="#DejaVuSans-48"/>
       <use x="127.246094" xlink:href="#DejaVuSans-50"/>
       <use x="190.869141" xlink:href="#DejaVuSans-48"/>
       <use x="254.492188" xlink:href="#DejaVuSans-45"/>
       <use x="290.576172" xlink:href="#DejaVuSans-49"/>
       <use x="354.199219" xlink:href="#DejaVuSans-50"/>
       <use x="417.822266" xlink:href="#DejaVuSans-45"/>
       <use x="453.90625" xlink:href="#DejaVuSans-50"/>
       <use x="517.529297" xlink:href="#DejaVuSans-50"/>
      </g>
     </g>
    </g>
    <g id="xtick_6">
     <g id="line2d_6">
      <g>
       <use style="stroke:#000000;stroke-width:0.8;" x="216.250027" xlink:href="#mb9a47e6712" y="220.230771"/>
      </g>
     </g>
     <g id="text_6">
      <!-- 2020-12-29 -->
      <g transform="translate(192.464911 262.869024)rotate(-30)scale(0.1 -0.1)">
       <use xlink:href="#DejaVuSans-50"/>
       <use x="63.623047" xlink:href="#DejaVuSans-48"/>
       <use x="127.246094" xlink:href="#DejaVuSans-50"/>
       <use x="190.869141" xlink:href="#DejaVuSans-48"/>
       <use x="254.492188" xlink:href="#DejaVuSans-45"/>
       <use x="290.576172" xlink:href="#DejaVuSans-49"/>
       <use x="354.199219" xlink:href="#DejaVuSans-50"/>
       <use x="417.822266" xlink:href="#DejaVuSans-45"/>
       <use x="453.90625" xlink:href="#DejaVuSans-50"/>
       <use x="517.529297" xlink:href="#DejaVuSans-57"/>
      </g>
     </g>
    </g>
    <g id="xtick_7">
     <g id="line2d_7">
      <g>
       <use style="stroke:#000000;stroke-width:0.8;" x="233.097836" xlink:href="#mb9a47e6712" y="220.230771"/>
      </g>
     </g>
     <g id="text_7">
      <!-- 2021-01-01 -->
      <g transform="translate(209.31272 262.869024)rotate(-30)scale(0.1 -0.1)">
       <use xlink:href="#DejaVuSans-50"/>
       <use x="63.623047" xlink:href="#DejaVuSans-48"/>
       <use x="127.246094" xlink:href="#DejaVuSans-50"/>
       <use x="190.869141" xlink:href="#DejaVuSans-49"/>
       <use x="254.492188" xlink:href="#DejaVuSans-45"/>
       <use x="290.576172" xlink:href="#DejaVuSans-48"/>
       <use x="354.199219" xlink:href="#DejaVuSans-49"/>
       <use x="417.822266" xlink:href="#DejaVuSans-45"/>
       <use x="453.90625" xlink:href="#DejaVuSans-48"/>
       <use x="517.529297" xlink:href="#DejaVuSans-49"/>
      </g>
     </g>
    </g>
    <g id="xtick_8">
     <g id="line2d_8">
      <g>
       <use style="stroke:#000000;stroke-width:0.8;" x="272.409391" xlink:href="#mb9a47e6712" y="220.230771"/>
      </g>
     </g>
     <g id="text_8">
      <!-- 2021-01-08 -->
      <g transform="translate(248.624275 262.869024)rotate(-30)scale(0.1 -0.1)">
       <use xlink:href="#DejaVuSans-50"/>
       <use x="63.623047" xlink:href="#DejaVuSans-48"/>
       <use x="127.246094" xlink:href="#DejaVuSans-50"/>
       <use x="190.869141" xlink:href="#DejaVuSans-49"/>
       <use x="254.492188" xlink:href="#DejaVuSans-45"/>
       <use x="290.576172" xlink:href="#DejaVuSans-48"/>
       <use x="354.199219" xlink:href="#DejaVuSans-49"/>
       <use x="417.822266" xlink:href="#DejaVuSans-45"/>
       <use x="453.90625" xlink:href="#DejaVuSans-48"/>
       <use x="517.529297" xlink:href="#DejaVuSans-56"/>
      </g>
     </g>
    </g>
    <g id="xtick_9">
     <g id="line2d_9">
      <g>
       <use style="stroke:#000000;stroke-width:0.8;" x="311.720946" xlink:href="#mb9a47e6712" y="220.230771"/>
      </g>
     </g>
     <g id="text_9">
      <!-- 2021-01-15 -->
      <g transform="translate(287.935829 262.869024)rotate(-30)scale(0.1 -0.1)">
       <use xlink:href="#DejaVuSans-50"/>
       <use x="63.623047" xlink:href="#DejaVuSans-48"/>
       <use x="127.246094" xlink:href="#DejaVuSans-50"/>
       <use x="190.869141" xlink:href="#DejaVuSans-49"/>
       <use x="254.492188" xlink:href="#DejaVuSans-45"/>
       <use x="290.576172" xlink:href="#DejaVuSans-48"/>
       <use x="354.199219" xlink:href="#DejaVuSans-49"/>
       <use x="417.822266" xlink:href="#DejaVuSans-45"/>
       <use x="453.90625" xlink:href="#DejaVuSans-49"/>
       <use x="517.529297" xlink:href="#DejaVuSans-53"/>
      </g>
     </g>
    </g>
    <g id="text_10">
     <!-- Date -->
     <defs>
      <path d="M 19.671875 64.796875 
L 19.671875 8.109375 
L 31.59375 8.109375 
Q 46.6875 8.109375 53.6875 14.9375 
Q 60.6875 21.78125 60.6875 36.53125 
Q 60.6875 51.171875 53.6875 57.984375 
Q 46.6875 64.796875 31.59375 64.796875 
z
M 9.8125 72.90625 
L 30.078125 72.90625 
Q 51.265625 72.90625 61.171875 64.09375 
Q 71.09375 55.28125 71.09375 36.53125 
Q 71.09375 17.671875 61.125 8.828125 
Q 51.171875 0 30.078125 0 
L 9.8125 0 
z
" id="DejaVuSans-68"/>
      <path d="M 34.28125 27.484375 
Q 23.390625 27.484375 19.1875 25 
Q 14.984375 22.515625 14.984375 16.5 
Q 14.984375 11.71875 18.140625 8.90625 
Q 21.296875 6.109375 26.703125 6.109375 
Q 34.1875 6.109375 38.703125 11.40625 
Q 43.21875 16.703125 43.21875 25.484375 
L 43.21875 27.484375 
z
M 52.203125 31.203125 
L 52.203125 0 
L 43.21875 0 
L 43.21875 8.296875 
Q 40.140625 3.328125 35.546875 0.953125 
Q 30.953125 -1.421875 24.3125 -1.421875 
Q 15.921875 -1.421875 10.953125 3.296875 
Q 6 8.015625 6 15.921875 
Q 6 25.140625 12.171875 29.828125 
Q 18.359375 34.515625 30.609375 34.515625 
L 43.21875 34.515625 
L 43.21875 35.40625 
Q 43.21875 41.609375 39.140625 45 
Q 35.0625 48.390625 27.6875 48.390625 
Q 23 48.390625 18.546875 47.265625 
Q 14.109375 46.140625 10.015625 43.890625 
L 10.015625 52.203125 
Q 14.9375 54.109375 19.578125 55.046875 
Q 24.21875 56 28.609375 56 
Q 40.484375 56 46.34375 49.84375 
Q 52.203125 43.703125 52.203125 31.203125 
z
" id="DejaVuSans-97"/>
      <path d="M 18.3125 70.21875 
L 18.3125 54.6875 
L 36.8125 54.6875 
L 36.8125 47.703125 
L 18.3125 47.703125 
L 18.3125 18.015625 
Q 18.3125 11.328125 20.140625 9.421875 
Q 21.96875 7.515625 27.59375 7.515625 
L 36.8125 7.515625 
L 36.8125 0 
L 27.59375 0 
Q 17.1875 0 13.234375 3.875 
Q 9.28125 7.765625 9.28125 18.015625 
L 9.28125 47.703125 
L 2.6875 47.703125 
L 2.6875 54.6875 
L 9.28125 54.6875 
L 9.28125 70.21875 
z
" id="DejaVuSans-116"/>
      <path d="M 56.203125 29.59375 
L 56.203125 25.203125 
L 14.890625 25.203125 
Q 15.484375 15.921875 20.484375 11.0625 
Q 25.484375 6.203125 34.421875 6.203125 
Q 39.59375 6.203125 44.453125 7.46875 
Q 49.3125 8.734375 54.109375 11.28125 
L 54.109375 2.78125 
Q 49.265625 0.734375 44.1875 -0.34375 
Q 39.109375 -1.421875 33.890625 -1.421875 
Q 20.796875 -1.421875 13.15625 6.1875 
Q 5.515625 13.8125 5.515625 26.8125 
Q 5.515625 40.234375 12.765625 48.109375 
Q 20.015625 56 32.328125 56 
Q 43.359375 56 49.78125 48.890625 
Q 56.203125 41.796875 56.203125 29.59375 
z
M 47.21875 32.234375 
Q 47.125 39.59375 43.09375 43.984375 
Q 39.0625 48.390625 32.421875 48.390625 
Q 24.90625 48.390625 20.390625 44.140625 
Q 15.875 39.890625 15.1875 32.171875 
z
" id="DejaVuSans-101"/>
     </defs>
     <g transform="translate(167.504219 276.268523)scale(0.1 -0.1)">
      <use xlink:href="#DejaVuSans-68"/>
      <use x="77.001953" xlink:href="#DejaVuSans-97"/>
      <use x="138.28125" xlink:href="#DejaVuSans-116"/>
      <use x="177.490234" xlink:href="#DejaVuSans-101"/>
     </g>
    </g>
   </g>
   <g id="matplotlib.axis_2">
    <g id="ytick_1">
     <g id="line2d_10">
      <defs>
       <path d="M 0 0 
L -3.5 0 
" id="m64606f7698" style="stroke:#000000;stroke-width:0.8;"/>
      </defs>
      <g>
       <use style="stroke:#000000;stroke-width:0.8;" x="43.55" xlink:href="#m64606f7698" y="210.806645"/>
      </g>
     </g>
     <g id="text_11">
      <!-- 0 -->
      <g transform="translate(30.1875 214.605864)scale(0.1 -0.1)">
       <use xlink:href="#DejaVuSans-48"/>
      </g>
     </g>
    </g>
    <g id="ytick_2">
     <g id="line2d_11">
      <g>
       <use style="stroke:#000000;stroke-width:0.8;" x="43.55" xlink:href="#m64606f7698" y="187.24633"/>
      </g>
     </g>
     <g id="text_12">
      <!-- 5 -->
      <g transform="translate(30.1875 191.045549)scale(0.1 -0.1)">
       <use xlink:href="#DejaVuSans-53"/>
      </g>
     </g>
    </g>
    <g id="ytick_3">
     <g id="line2d_12">
      <g>
       <use style="stroke:#000000;stroke-width:0.8;" x="43.55" xlink:href="#m64606f7698" y="163.686016"/>
      </g>
     </g>
     <g id="text_13">
      <!-- 10 -->
      <g transform="translate(23.825 167.485234)scale(0.1 -0.1)">
       <use xlink:href="#DejaVuSans-49"/>
       <use x="63.623047" xlink:href="#DejaVuSans-48"/>
      </g>
     </g>
    </g>
    <g id="ytick_4">
     <g id="line2d_13">
      <g>
       <use style="stroke:#000000;stroke-width:0.8;" x="43.55" xlink:href="#m64606f7698" y="140.125701"/>
      </g>
     </g>
     <g id="text_14">
      <!-- 15 -->
      <g transform="translate(23.825 143.924919)scale(0.1 -0.1)">
       <use xlink:href="#DejaVuSans-49"/>
       <use x="63.623047" xlink:href="#DejaVuSans-53"/>
      </g>
     </g>
    </g>
    <g id="ytick_5">
     <g id="line2d_14">
      <g>
       <use style="stroke:#000000;stroke-width:0.8;" x="43.55" xlink:href="#m64606f7698" y="116.565386"/>
      </g>
     </g>
     <g id="text_15">
      <!-- 20 -->
      <g transform="translate(23.825 120.364604)scale(0.1 -0.1)">
       <use xlink:href="#DejaVuSans-50"/>
       <use x="63.623047" xlink:href="#DejaVuSans-48"/>
      </g>
     </g>
    </g>
    <g id="ytick_6">
     <g id="line2d_15">
      <g>
       <use style="stroke:#000000;stroke-width:0.8;" x="43.55" xlink:href="#m64606f7698" y="93.005071"/>
      </g>
     </g>
     <g id="text_16">
      <!-- 25 -->
      <g transform="translate(23.825 96.80429)scale(0.1 -0.1)">
       <use xlink:href="#DejaVuSans-50"/>
       <use x="63.623047" xlink:href="#DejaVuSans-53"/>
      </g>
     </g>
    </g>
    <g id="ytick_7">
     <g id="line2d_16">
      <g>
       <use style="stroke:#000000;stroke-width:0.8;" x="43.55" xlink:href="#m64606f7698" y="69.444756"/>
      </g>
     </g>
     <g id="text_17">
      <!-- 30 -->
      <defs>
       <path d="M 40.578125 39.3125 
Q 47.65625 37.796875 51.625 33 
Q 55.609375 28.21875 55.609375 21.1875 
Q 55.609375 10.40625 48.1875 4.484375 
Q 40.765625 -1.421875 27.09375 -1.421875 
Q 22.515625 -1.421875 17.65625 -0.515625 
Q 12.796875 0.390625 7.625 2.203125 
L 7.625 11.71875 
Q 11.71875 9.328125 16.59375 8.109375 
Q 21.484375 6.890625 26.8125 6.890625 
Q 36.078125 6.890625 40.9375 10.546875 
Q 45.796875 14.203125 45.796875 21.1875 
Q 45.796875 27.640625 41.28125 31.265625 
Q 36.765625 34.90625 28.71875 34.90625 
L 20.21875 34.90625 
L 20.21875 43.015625 
L 29.109375 43.015625 
Q 36.375 43.015625 40.234375 45.921875 
Q 44.09375 48.828125 44.09375 54.296875 
Q 44.09375 59.90625 40.109375 62.90625 
Q 36.140625 65.921875 28.71875 65.921875 
Q 24.65625 65.921875 20.015625 65.03125 
Q 15.375 64.15625 9.8125 62.3125 
L 9.8125 71.09375 
Q 15.4375 72.65625 20.34375 73.4375 
Q 25.25 74.21875 29.59375 74.21875 
Q 40.828125 74.21875 47.359375 69.109375 
Q 53.90625 64.015625 53.90625 55.328125 
Q 53.90625 49.265625 50.4375 45.09375 
Q 46.96875 40.921875 40.578125 39.3125 
z
" id="DejaVuSans-51"/>
      </defs>
      <g transform="translate(23.825 73.243975)scale(0.1 -0.1)">
       <use xlink:href="#DejaVuSans-51"/>
       <use x="63.623047" xlink:href="#DejaVuSans-48"/>
      </g>
     </g>
    </g>
    <g id="ytick_8">
     <g id="line2d_17">
      <g>
       <use style="stroke:#000000;stroke-width:0.8;" x="43.55" xlink:href="#m64606f7698" y="45.884441"/>
      </g>
     </g>
     <g id="text_18">
      <!-- 35 -->
      <g transform="translate(23.825 49.68366)scale(0.1 -0.1)">
       <use xlink:href="#DejaVuSans-51"/>
       <use x="63.623047" xlink:href="#DejaVuSans-53"/>
      </g>
     </g>
    </g>
    <g id="ytick_9">
     <g id="line2d_18">
      <g>
       <use style="stroke:#000000;stroke-width:0.8;" x="43.55" xlink:href="#m64606f7698" y="22.324126"/>
      </g>
     </g>
     <g id="text_19">
      <!-- 40 -->
      <defs>
       <path d="M 37.796875 64.3125 
L 12.890625 25.390625 
L 37.796875 25.390625 
z
M 35.203125 72.90625 
L 47.609375 72.90625 
L 47.609375 25.390625 
L 58.015625 25.390625 
L 58.015625 17.1875 
L 47.609375 17.1875 
L 47.609375 0 
L 37.796875 0 
L 37.796875 17.1875 
L 4.890625 17.1875 
L 4.890625 26.703125 
z
" id="DejaVuSans-52"/>
      </defs>
      <g transform="translate(23.825 26.123345)scale(0.1 -0.1)">
       <use xlink:href="#DejaVuSans-52"/>
       <use x="63.623047" xlink:href="#DejaVuSans-48"/>
      </g>
     </g>
    </g>
    <g id="text_20">
     <!-- Students Registered -->
     <defs>
      <path d="M 53.515625 70.515625 
L 53.515625 60.890625 
Q 47.90625 63.578125 42.921875 64.890625 
Q 37.9375 66.21875 33.296875 66.21875 
Q 25.25 66.21875 20.875 63.09375 
Q 16.5 59.96875 16.5 54.203125 
Q 16.5 49.359375 19.40625 46.890625 
Q 22.3125 44.4375 30.421875 42.921875 
L 36.375 41.703125 
Q 47.40625 39.59375 52.65625 34.296875 
Q 57.90625 29 57.90625 20.125 
Q 57.90625 9.515625 50.796875 4.046875 
Q 43.703125 -1.421875 29.984375 -1.421875 
Q 24.8125 -1.421875 18.96875 -0.25 
Q 13.140625 0.921875 6.890625 3.21875 
L 6.890625 13.375 
Q 12.890625 10.015625 18.65625 8.296875 
Q 24.421875 6.59375 29.984375 6.59375 
Q 38.421875 6.59375 43.015625 9.90625 
Q 47.609375 13.234375 47.609375 19.390625 
Q 47.609375 24.75 44.3125 27.78125 
Q 41.015625 30.8125 33.5 32.328125 
L 27.484375 33.5 
Q 16.453125 35.6875 11.515625 40.375 
Q 6.59375 45.0625 6.59375 53.421875 
Q 6.59375 63.09375 13.40625 68.65625 
Q 20.21875 74.21875 32.171875 74.21875 
Q 37.3125 74.21875 42.625 73.28125 
Q 47.953125 72.359375 53.515625 70.515625 
z
" id="DejaVuSans-83"/>
      <path d="M 8.5 21.578125 
L 8.5 54.6875 
L 17.484375 54.6875 
L 17.484375 21.921875 
Q 17.484375 14.15625 20.5 10.265625 
Q 23.53125 6.390625 29.59375 6.390625 
Q 36.859375 6.390625 41.078125 11.03125 
Q 45.3125 15.671875 45.3125 23.6875 
L 45.3125 54.6875 
L 54.296875 54.6875 
L 54.296875 0 
L 45.3125 0 
L 45.3125 8.40625 
Q 42.046875 3.421875 37.71875 1 
Q 33.40625 -1.421875 27.6875 -1.421875 
Q 18.265625 -1.421875 13.375 4.4375 
Q 8.5 10.296875 8.5 21.578125 
z
M 31.109375 56 
z
" id="DejaVuSans-117"/>
      <path d="M 45.40625 46.390625 
L 45.40625 75.984375 
L 54.390625 75.984375 
L 54.390625 0 
L 45.40625 0 
L 45.40625 8.203125 
Q 42.578125 3.328125 38.25 0.953125 
Q 33.9375 -1.421875 27.875 -1.421875 
Q 17.96875 -1.421875 11.734375 6.484375 
Q 5.515625 14.40625 5.515625 27.296875 
Q 5.515625 40.1875 11.734375 48.09375 
Q 17.96875 56 27.875 56 
Q 33.9375 56 38.25 53.625 
Q 42.578125 51.265625 45.40625 46.390625 
z
M 14.796875 27.296875 
Q 14.796875 17.390625 18.875 11.75 
Q 22.953125 6.109375 30.078125 6.109375 
Q 37.203125 6.109375 41.296875 11.75 
Q 45.40625 17.390625 45.40625 27.296875 
Q 45.40625 37.203125 41.296875 42.84375 
Q 37.203125 48.484375 30.078125 48.484375 
Q 22.953125 48.484375 18.875 42.84375 
Q 14.796875 37.203125 14.796875 27.296875 
z
" id="DejaVuSans-100"/>
      <path d="M 54.890625 33.015625 
L 54.890625 0 
L 45.90625 0 
L 45.90625 32.71875 
Q 45.90625 40.484375 42.875 44.328125 
Q 39.84375 48.1875 33.796875 48.1875 
Q 26.515625 48.1875 22.3125 43.546875 
Q 18.109375 38.921875 18.109375 30.90625 
L 18.109375 0 
L 9.078125 0 
L 9.078125 54.6875 
L 18.109375 54.6875 
L 18.109375 46.1875 
Q 21.34375 51.125 25.703125 53.5625 
Q 30.078125 56 35.796875 56 
Q 45.21875 56 50.046875 50.171875 
Q 54.890625 44.34375 54.890625 33.015625 
z
" id="DejaVuSans-110"/>
      <path d="M 44.28125 53.078125 
L 44.28125 44.578125 
Q 40.484375 46.53125 36.375 47.5 
Q 32.28125 48.484375 27.875 48.484375 
Q 21.1875 48.484375 17.84375 46.4375 
Q 14.5 44.390625 14.5 40.28125 
Q 14.5 37.15625 16.890625 35.375 
Q 19.28125 33.59375 26.515625 31.984375 
L 29.59375 31.296875 
Q 39.15625 29.25 43.1875 25.515625 
Q 47.21875 21.78125 47.21875 15.09375 
Q 47.21875 7.46875 41.1875 3.015625 
Q 35.15625 -1.421875 24.609375 -1.421875 
Q 20.21875 -1.421875 15.453125 -0.5625 
Q 10.6875 0.296875 5.421875 2 
L 5.421875 11.28125 
Q 10.40625 8.6875 15.234375 7.390625 
Q 20.0625 6.109375 24.8125 6.109375 
Q 31.15625 6.109375 34.5625 8.28125 
Q 37.984375 10.453125 37.984375 14.40625 
Q 37.984375 18.0625 35.515625 20.015625 
Q 33.0625 21.96875 24.703125 23.78125 
L 21.578125 24.515625 
Q 13.234375 26.265625 9.515625 29.90625 
Q 5.8125 33.546875 5.8125 39.890625 
Q 5.8125 47.609375 11.28125 51.796875 
Q 16.75 56 26.8125 56 
Q 31.78125 56 36.171875 55.265625 
Q 40.578125 54.546875 44.28125 53.078125 
z
" id="DejaVuSans-115"/>
      <path id="DejaVuSans-32"/>
      <path d="M 44.390625 34.1875 
Q 47.5625 33.109375 50.5625 29.59375 
Q 53.5625 26.078125 56.59375 19.921875 
L 66.609375 0 
L 56 0 
L 46.6875 18.703125 
Q 43.0625 26.03125 39.671875 28.421875 
Q 36.28125 30.8125 30.421875 30.8125 
L 19.671875 30.8125 
L 19.671875 0 
L 9.8125 0 
L 9.8125 72.90625 
L 32.078125 72.90625 
Q 44.578125 72.90625 50.734375 67.671875 
Q 56.890625 62.453125 56.890625 51.90625 
Q 56.890625 45.015625 53.6875 40.46875 
Q 50.484375 35.9375 44.390625 34.1875 
z
M 19.671875 64.796875 
L 19.671875 38.921875 
L 32.078125 38.921875 
Q 39.203125 38.921875 42.84375 42.21875 
Q 46.484375 45.515625 46.484375 51.90625 
Q 46.484375 58.296875 42.84375 61.546875 
Q 39.203125 64.796875 32.078125 64.796875 
z
" id="DejaVuSans-82"/>
      <path d="M 45.40625 27.984375 
Q 45.40625 37.75 41.375 43.109375 
Q 37.359375 48.484375 30.078125 48.484375 
Q 22.859375 48.484375 18.828125 43.109375 
Q 14.796875 37.75 14.796875 27.984375 
Q 14.796875 18.265625 18.828125 12.890625 
Q 22.859375 7.515625 30.078125 7.515625 
Q 37.359375 7.515625 41.375 12.890625 
Q 45.40625 18.265625 45.40625 27.984375 
z
M 54.390625 6.78125 
Q 54.390625 -7.171875 48.1875 -13.984375 
Q 42 -20.796875 29.203125 -20.796875 
Q 24.46875 -20.796875 20.265625 -20.09375 
Q 16.0625 -19.390625 12.109375 -17.921875 
L 12.109375 -9.1875 
Q 16.0625 -11.328125 19.921875 -12.34375 
Q 23.78125 -13.375 27.78125 -13.375 
Q 36.625 -13.375 41.015625 -8.765625 
Q 45.40625 -4.15625 45.40625 5.171875 
L 45.40625 9.625 
Q 42.625 4.78125 38.28125 2.390625 
Q 33.9375 0 27.875 0 
Q 17.828125 0 11.671875 7.65625 
Q 5.515625 15.328125 5.515625 27.984375 
Q 5.515625 40.671875 11.671875 48.328125 
Q 17.828125 56 27.875 56 
Q 33.9375 56 38.28125 53.609375 
Q 42.625 51.21875 45.40625 46.390625 
L 45.40625 54.6875 
L 54.390625 54.6875 
z
" id="DejaVuSans-103"/>
      <path d="M 9.421875 54.6875 
L 18.40625 54.6875 
L 18.40625 0 
L 9.421875 0 
z
M 9.421875 75.984375 
L 18.40625 75.984375 
L 18.40625 64.59375 
L 9.421875 64.59375 
z
" id="DejaVuSans-105"/>
      <path d="M 41.109375 46.296875 
Q 39.59375 47.171875 37.8125 47.578125 
Q 36.03125 48 33.890625 48 
Q 26.265625 48 22.1875 43.046875 
Q 18.109375 38.09375 18.109375 28.8125 
L 18.109375 0 
L 9.078125 0 
L 9.078125 54.6875 
L 18.109375 54.6875 
L 18.109375 46.1875 
Q 20.953125 51.171875 25.484375 53.578125 
Q 30.03125 56 36.53125 56 
Q 37.453125 56 38.578125 55.875 
Q 39.703125 55.765625 41.0625 55.515625 
z
" id="DejaVuSans-114"/>
     </defs>
     <g transform="translate(17.745313 167.498979)rotate(-90)scale(0.1 -0.1)">
      <use xlink:href="#DejaVuSans-83"/>
      <use x="63.476562" xlink:href="#DejaVuSans-116"/>
      <use x="102.685547" xlink:href="#DejaVuSans-117"/>
      <use x="166.064453" xlink:href="#DejaVuSans-100"/>
      <use x="229.541016" xlink:href="#DejaVuSans-101"/>
      <use x="291.064453" xlink:href="#DejaVuSans-110"/>
      <use x="354.443359" xlink:href="#DejaVuSans-116"/>
      <use x="393.652344" xlink:href="#DejaVuSans-115"/>
      <use x="445.751953" xlink:href="#DejaVuSans-32"/>
      <use x="477.539062" xlink:href="#DejaVuSans-82"/>
      <use x="546.958984" xlink:href="#DejaVuSans-101"/>
      <use x="608.482422" xlink:href="#DejaVuSans-103"/>
      <use x="671.958984" xlink:href="#DejaVuSans-105"/>
      <use x="699.742188" xlink:href="#DejaVuSans-115"/>
      <use x="751.841797" xlink:href="#DejaVuSans-116"/>
      <use x="791.050781" xlink:href="#DejaVuSans-101"/>
      <use x="852.574219" xlink:href="#DejaVuSans-114"/>
      <use x="893.65625" xlink:href="#DejaVuSans-101"/>
      <use x="955.179688" xlink:href="#DejaVuSans-100"/>
     </g>
    </g>
   </g>
   <g id="line2d_19">
    <path clip-path="url(#p75d23dbca1)" d="M 55.905 201.382519 
L 62.631212 201.382519 
L 62.631212 196.670456 
L 62.689753 196.670456 
L 67.077199 196.670456 
L 67.077199 191.958393 
L 67.1357 191.958393 
L 68.013165 191.958393 
L 68.013165 187.24633 
L 68.071652 187.24633 
L 72.927081 187.24633 
L 72.927081 177.822204 
L 72.985585 177.822204 
L 73.395105 177.822204 
L 73.395105 173.110142 
L 73.453627 173.110142 
L 73.863105 173.110142 
L 73.863105 168.398079 
L 73.921636 168.398079 
L 74.097096 168.398079 
L 74.097096 163.686016 
L 74.155618 163.686016 
L 79.479051 163.686016 
L 79.479051 158.973953 
L 79.537516 158.973953 
L 84.860987 158.973953 
L 84.860987 154.26189 
L 84.919459 154.26189 
L 95.156891 154.26189 
L 95.156891 144.837764 
L 95.215332 144.837764 
L 95.624877 144.837764 
L 95.624877 140.125701 
L 95.683357 140.125701 
L 96.794861 140.125701 
L 96.794861 135.413638 
L 96.853346 135.413638 
L 100.538793 135.413638 
L 100.538793 130.701575 
L 100.597296 130.701575 
L 101.708797 130.701575 
L 101.708797 125.989512 
L 101.767287 125.989512 
L 101.942796 125.989512 
L 101.942796 121.277449 
L 102.001299 121.277449 
L 102.176791 121.277449 
L 102.235282 107.14126 
L 102.235282 107.14126 
L 106.154714 107.14126 
L 106.154714 102.429197 
L 106.21323 102.429197 
L 106.388706 102.429197 
L 106.388706 93.005071 
L 106.447206 93.005071 
L 106.622701 93.005071 
L 106.622701 88.293008 
L 106.681205 88.293008 
L 106.856722 88.293008 
L 106.915218 74.156819 
L 106.915218 74.156819 
L 107.324708 74.156819 
L 107.324708 60.02063 
L 107.38323 60.02063 
L 107.558735 60.02063 
L 107.558735 50.596504 
L 107.617243 50.596504 
L 107.792699 50.596504 
L 107.792699 31.748252 
L 107.851198 31.748252 
L 108.026727 31.748252 
L 108.026727 27.036189 
L 108.085224 27.036189 
L 109.196724 27.036189 
L 109.196724 22.324126 
L 109.255223 22.324126 
L 173.546008 22.324126 
L 173.546008 27.036189 
L 173.604449 27.036189 
L 173.780003 27.036189 
L 173.780003 22.324126 
L 173.838499 22.324126 
L 174.247972 22.324126 
L 174.247972 27.036189 
L 174.306495 27.036189 
L 174.949938 27.036189 
L 174.949938 31.748252 
L 175.008485 31.748252 
L 175.417989 31.748252 
L 175.417989 36.460315 
L 175.476454 36.460315 
L 181.735873 36.460315 
L 181.735873 41.172378 
L 181.794401 41.172378 
L 195.541742 41.172378 
L 195.541742 36.460315 
L 195.600248 36.460315 
L 221.515414 36.460315 
L 221.515414 41.172378 
L 221.573961 41.172378 
L 230.641334 41.172378 
L 230.641334 36.460315 
L 230.699804 36.460315 
L 259.189046 36.460315 
L 259.189046 31.748252 
L 259.247495 31.748252 
L 262.932942 31.748252 
L 262.932942 27.036189 
L 262.991471 27.036189 
L 269.484898 27.036189 
L 269.484898 22.324126 
L 303.005 22.324126 
L 303.005 22.324126 
" style="fill:none;stroke:#1b9e77;stroke-linecap:square;stroke-width:1.5;"/>
   </g>
   <g id="line2d_20">
    <path clip-path="url(#p75d23dbca1)" d="M 104.750776 196.670456 
L 105.92071 196.670456 
L 105.92071 182.534267 
L 105.979219 182.534267 
L 106.154714 182.534267 
L 106.154714 177.822204 
L 106.21323 177.822204 
L 106.388706 177.822204 
L 106.388706 158.973953 
L 106.447206 158.973953 
L 106.856722 158.973953 
L 106.856722 144.837764 
L 106.915218 144.837764 
L 107.324708 144.837764 
L 107.324708 116.565386 
L 107.38323 116.565386 
L 107.792699 116.565386 
L 107.792699 107.14126 
L 107.851198 107.14126 
L 108.026727 107.14126 
L 108.026727 102.429197 
L 108.085224 102.429197 
L 108.260704 102.429197 
L 108.260704 97.717134 
L 108.319217 97.717134 
L 108.728737 97.717134 
L 108.728737 93.005071 
L 108.787237 93.005071 
L 112.004648 93.005071 
L 112.004648 74.156819 
L 112.063164 74.156819 
L 112.472659 74.156819 
L 112.472659 69.444756 
L 112.531187 69.444756 
L 112.94069 69.444756 
L 112.94069 60.02063 
L 112.999139 60.02063 
L 113.174687 60.02063 
L 113.174687 55.308567 
L 113.233135 55.308567 
L 113.642689 55.308567 
L 113.642689 50.596504 
L 113.701134 50.596504 
L 118.556613 50.596504 
L 118.556613 45.884441 
L 118.615072 45.884441 
L 118.79057 45.884441 
L 118.79057 41.172378 
L 118.8491 41.172378 
L 119.02458 41.172378 
L 119.02458 36.460315 
L 119.083098 36.460315 
L 119.726604 36.460315 
L 119.726604 31.748252 
L 119.785048 31.748252 
L 134.702398 31.748252 
L 134.702398 22.324126 
L 134.760939 22.324126 
L 163.484077 22.324126 
L 163.484077 27.036189 
L 163.54258 27.036189 
L 164.88806 27.036189 
L 164.88806 22.324126 
L 164.946597 22.324126 
L 185.245857 22.324126 
L 185.245857 27.036189 
L 185.304329 27.036189 
L 187.117826 27.036189 
L 187.117826 22.324126 
L 187.176301 22.324126 
L 303.005 22.324126 
L 303.005 22.324126 
" style="fill:none;stroke:#d95f02;stroke-linecap:square;stroke-width:1.5;"/>
   </g>
   <g id="line2d_21">
    <path clip-path="url(#p75d23dbca1)" d="M 55.905 182.534267 
L 56.151545 182.534267 
L 56.151545 177.822204 
L 56.262626 177.822204 
L 57.362352 177.822204 
L 57.362352 173.110142 
L 61.106353 173.110142 
L 61.106353 168.398079 
L 61.461257 168.398079 
L 61.461257 163.686016 
L 61.519719 163.686016 
L 61.695241 163.686016 
L 61.695241 158.973953 
L 61.753768 158.973953 
L 62.397265 158.973953 
L 62.397265 144.837764 
L 62.455738 144.837764 
L 62.631212 144.837764 
L 62.631212 140.125701 
L 62.689753 140.125701 
L 67.311173 140.125701 
L 67.311173 130.701575 
L 67.369707 130.701575 
L 67.545169 130.701575 
L 67.545169 125.989512 
L 67.603644 125.989512 
L 67.779165 125.989512 
L 67.779165 130.701575 
L 67.837681 130.701575 
L 68.247197 130.701575 
L 68.247197 125.989512 
L 68.305681 125.989512 
L 68.481147 125.989512 
L 68.481147 116.565386 
L 68.539711 116.565386 
L 69.651163 116.565386 
L 69.651163 107.14126 
L 69.709642 107.14126 
L 72.225132 107.14126 
L 72.225132 102.429197 
L 72.283616 102.429197 
L 72.459125 102.429197 
L 72.459125 83.580945 
L 72.517616 83.580945 
L 72.693095 83.580945 
L 72.693095 74.156819 
L 72.751594 74.156819 
L 73.161115 74.156819 
L 73.161115 69.444756 
L 73.21962 69.444756 
L 73.395105 69.444756 
L 73.395105 64.732693 
L 73.453627 64.732693 
L 73.629109 64.732693 
L 73.629109 60.02063 
L 73.687615 60.02063 
L 73.863105 60.02063 
L 73.863105 45.884441 
L 73.921636 45.884441 
L 74.097096 45.884441 
L 74.097096 41.172378 
L 74.155618 41.172378 
L 74.331107 41.172378 
L 74.331107 36.460315 
L 74.389616 36.460315 
L 78.30903 36.460315 
L 78.30903 27.036189 
L 78.367531 27.036189 
L 78.543078 27.036189 
L 78.543078 22.324126 
L 78.601541 22.324126 
L 106.154714 22.324126 
L 106.154714 27.036189 
L 106.21323 27.036189 
L 106.388706 27.036189 
L 106.388706 22.324126 
L 106.447206 22.324126 
L 303.005 22.324126 
L 303.005 22.324126 
" style="fill:none;stroke:#7570b3;stroke-linecap:square;stroke-width:1.5;"/>
   </g>
   <g id="line2d_22">
    <path clip-path="url(#p75d23dbca1)" d="M 55.905 201.382519 
L 62.163279 201.382519 
L 62.163279 196.670456 
L 62.221735 196.670456 
L 66.843211 196.670456 
L 66.843211 191.958393 
L 66.901714 191.958393 
L 67.077199 191.958393 
L 67.077199 187.24633 
L 67.1357 187.24633 
L 67.311173 187.24633 
L 67.311173 177.822204 
L 67.369707 177.822204 
L 67.545169 177.822204 
L 67.545169 173.110142 
L 67.603644 173.110142 
L 67.779165 173.110142 
L 67.779165 168.398079 
L 67.837681 168.398079 
L 68.013165 168.398079 
L 68.013165 163.686016 
L 68.071652 163.686016 
L 68.481147 163.686016 
L 68.481147 158.973953 
L 68.539711 158.973953 
L 72.459125 158.973953 
L 72.459125 149.549827 
L 72.517616 149.549827 
L 72.693095 149.549827 
L 72.693095 144.837764 
L 72.751594 144.837764 
L 73.629109 144.837764 
L 73.629109 140.125701 
L 73.687615 140.125701 
L 73.863105 140.125701 
L 73.863105 130.701575 
L 73.921636 130.701575 
L 95.156891 130.701575 
L 95.156891 125.989512 
L 95.215332 125.989512 
L 95.390865 125.989512 
L 95.390865 121.277449 
L 95.449334 121.277449 
L 95.624877 121.277449 
L 95.624877 116.565386 
L 95.683357 116.565386 
L 95.858849 116.565386 
L 95.858849 111.853323 
L 95.917345 111.853323 
L 96.092871 111.853323 
L 96.092871 102.429197 
L 96.151355 102.429197 
L 96.326871 102.429197 
L 96.326871 97.717134 
L 96.385362 97.717134 
L 100.538793 97.717134 
L 100.597296 83.580945 
L 100.597296 83.580945 
L 101.006799 83.580945 
L 101.006799 74.156819 
L 101.06529 74.156819 
L 101.708797 74.156819 
L 101.708797 69.444756 
L 101.767287 69.444756 
L 101.942796 69.444756 
L 101.942796 60.02063 
L 102.001299 60.02063 
L 102.176791 60.02063 
L 102.176791 36.460315 
L 102.235282 36.460315 
L 102.410753 36.460315 
L 102.410753 22.324126 
L 102.469308 22.324126 
L 105.92071 22.324126 
L 105.92071 27.036189 
L 105.979219 27.036189 
L 106.388706 27.036189 
L 106.388706 22.324126 
L 106.447206 22.324126 
L 163.016066 22.324126 
L 163.016066 27.036189 
L 163.074607 27.036189 
L 163.250112 27.036189 
L 163.250112 22.324126 
L 163.308621 22.324126 
L 173.546008 22.324126 
L 173.546008 27.036189 
L 173.604449 27.036189 
L 174.013939 27.036189 
L 174.013939 22.324126 
L 174.072439 22.324126 
L 174.48195 22.324126 
L 174.48195 27.036189 
L 174.540458 27.036189 
L 175.417989 27.036189 
L 175.417989 22.324126 
L 175.476454 22.324126 
L 303.005 22.324126 
L 303.005 22.324126 
" style="fill:none;stroke:#e7298a;stroke-linecap:square;stroke-width:1.5;"/>
   </g>
   <g id="line2d_23">
    <path clip-path="url(#p75d23dbca1)" d="M 55.905 210.806645 
L 56.151545 210.806645 
L 56.151545 201.382519 
L 56.262626 201.382519 
L 57.249297 201.382519 
L 57.249297 196.670456 
L 57.358455 196.670456 
L 62.631212 196.670456 
L 62.631212 191.958393 
L 62.689753 191.958393 
L 67.077199 191.958393 
L 67.077199 177.822204 
L 67.1357 177.822204 
L 67.311173 177.822204 
L 67.311173 173.110142 
L 67.369707 173.110142 
L 67.545169 173.110142 
L 67.545169 154.26189 
L 67.603644 154.26189 
L 67.779165 154.26189 
L 67.779165 149.549827 
L 67.837681 149.549827 
L 68.013165 149.549827 
L 68.013165 140.125701 
L 68.071652 140.125701 
L 68.247197 140.125701 
L 68.247197 125.989512 
L 68.305681 125.989512 
L 72.459125 125.989512 
L 72.459125 121.277449 
L 72.517616 121.277449 
L 72.693095 121.277449 
L 72.693095 116.565386 
L 72.751594 116.565386 
L 73.395105 116.565386 
L 73.395105 111.853323 
L 73.453627 111.853323 
L 73.863105 111.853323 
L 73.863105 97.717134 
L 73.921636 97.717134 
L 74.097096 97.717134 
L 74.097096 93.005071 
L 74.155618 93.005071 
L 78.777034 93.005071 
L 78.777034 88.293008 
L 78.835543 88.293008 
L 79.011024 88.293008 
L 79.011024 83.580945 
L 79.069546 83.580945 
L 79.479051 83.580945 
L 79.479051 78.868882 
L 79.537516 78.868882 
L 80.18103 78.868882 
L 80.18103 74.156819 
L 80.23956 74.156819 
L 84.159017 74.156819 
L 84.159017 69.444756 
L 84.217489 69.444756 
L 95.156891 69.444756 
L 95.156891 45.884441 
L 95.215332 45.884441 
L 95.390865 45.884441 
L 95.390865 36.460315 
L 95.449334 36.460315 
L 95.624877 36.460315 
L 95.624877 31.748252 
L 95.683357 31.748252 
L 174.48195 31.748252 
L 174.48195 36.460315 
L 174.540458 36.460315 
L 174.71594 36.460315 
L 174.71594 31.748252 
L 174.774439 31.748252 
L 187.351795 31.748252 
L 187.351795 36.460315 
L 187.410335 36.460315 
L 187.585809 36.460315 
L 187.585809 31.748252 
L 187.644328 31.748252 
L 303.005 31.748252 
L 303.005 31.748252 
" style="fill:none;stroke:#66a61e;stroke-linecap:square;stroke-width:1.5;"/>
   </g>
   <g id="line2d_24">
    <path clip-path="url(#p75d23dbca1)" d="M 55.905 191.958393 
L 67.077199 191.958393 
L 67.077199 187.24633 
L 67.1357 187.24633 
L 68.247197 187.24633 
L 68.247197 182.534267 
L 68.305681 182.534267 
L 68.715176 182.534267 
L 68.715176 177.822204 
L 68.773653 177.822204 
L 73.161115 177.822204 
L 73.161115 173.110142 
L 73.21962 173.110142 
L 73.629109 173.110142 
L 73.629109 168.398079 
L 73.687615 168.398079 
L 78.30903 168.398079 
L 78.30903 163.686016 
L 78.367531 163.686016 
L 94.92286 163.686016 
L 94.92286 154.26189 
L 94.981393 154.26189 
L 95.156891 154.26189 
L 95.156891 144.837764 
L 95.215332 144.837764 
L 95.858849 144.837764 
L 95.858849 140.125701 
L 95.917345 140.125701 
L 96.794861 140.125701 
L 96.794861 135.413638 
L 96.853346 135.413638 
L 101.006799 135.413638 
L 101.006799 130.701575 
L 101.06529 130.701575 
L 101.474753 130.701575 
L 101.474753 121.277449 
L 101.533304 121.277449 
L 101.942796 121.277449 
L 101.942796 116.565386 
L 102.001299 116.565386 
L 103.346783 116.565386 
L 103.346783 111.853323 
L 103.405271 111.853323 
L 105.92071 111.853323 
L 105.92071 107.14126 
L 105.979219 107.14126 
L 106.388706 107.14126 
L 106.388706 102.429197 
L 106.447206 102.429197 
L 106.622701 102.429197 
L 106.622701 93.005071 
L 106.681205 93.005071 
L 107.090733 93.005071 
L 107.090733 88.293008 
L 107.149235 88.293008 
L 107.324708 88.293008 
L 107.38323 74.156819 
L 107.38323 74.156819 
L 107.558735 74.156819 
L 107.558735 64.732693 
L 107.617243 64.732693 
L 108.494688 64.732693 
L 108.494688 69.444756 
L 108.553179 69.444756 
L 112.004648 69.444756 
L 112.004648 60.02063 
L 112.063164 60.02063 
L 112.238703 60.02063 
L 112.238703 55.308567 
L 112.297144 55.308567 
L 112.706665 55.308567 
L 112.706665 50.596504 
L 112.765173 50.596504 
L 112.94069 50.596504 
L 112.94069 41.172378 
L 112.999139 41.172378 
L 113.174687 41.172378 
L 113.174687 36.460315 
L 113.233135 36.460315 
L 113.642689 36.460315 
L 113.642689 31.748252 
L 113.701134 31.748252 
L 303.005 31.748252 
L 303.005 31.748252 
" style="fill:none;stroke:#e6ab02;stroke-linecap:square;stroke-width:1.5;"/>
   </g>
   <g id="line2d_25">
    <path clip-path="url(#p75d23dbca1)" d="M 55.905 196.670456 
L 62.163279 196.670456 
L 62.163279 191.958393 
L 62.221735 191.958393 
L 66.843211 191.958393 
L 66.843211 187.24633 
L 66.901714 187.24633 
L 67.077199 187.24633 
L 67.077199 182.534267 
L 67.1357 182.534267 
L 67.545169 182.534267 
L 67.545169 177.822204 
L 67.603644 177.822204 
L 67.779165 177.822204 
L 67.779165 173.110142 
L 67.837681 173.110142 
L 68.013165 173.110142 
L 68.013165 163.686016 
L 68.071652 163.686016 
L 68.247197 163.686016 
L 68.247197 158.973953 
L 68.305681 158.973953 
L 68.481147 158.973953 
L 68.481147 154.26189 
L 68.539711 154.26189 
L 72.225132 154.26189 
L 72.225132 149.549827 
L 72.283616 149.549827 
L 72.459125 149.549827 
L 72.459125 140.125701 
L 72.517616 140.125701 
L 72.927081 140.125701 
L 72.927081 135.413638 
L 72.985585 135.413638 
L 73.161115 135.413638 
L 73.161115 125.989512 
L 73.21962 125.989512 
L 73.629109 125.989512 
L 73.629109 121.277449 
L 73.687615 121.277449 
L 74.097096 121.277449 
L 74.097096 116.565386 
L 74.155618 116.565386 
L 74.331107 116.565386 
L 74.331107 111.853323 
L 74.389616 111.853323 
L 78.543078 111.853323 
L 78.543078 107.14126 
L 78.601541 107.14126 
L 79.479051 107.14126 
L 79.479051 102.429197 
L 79.537516 102.429197 
L 85.562944 102.429197 
L 85.562944 97.717134 
L 85.62145 97.717134 
L 94.92286 97.717134 
L 94.92286 93.005071 
L 94.981393 93.005071 
L 95.624877 93.005071 
L 95.624877 78.868882 
L 95.683357 78.868882 
L 95.858849 78.868882 
L 95.858849 69.444756 
L 95.917345 69.444756 
L 96.092871 69.444756 
L 96.092871 60.02063 
L 96.151355 60.02063 
L 96.794861 60.02063 
L 96.794861 55.308567 
L 96.853346 55.308567 
L 100.070808 55.308567 
L 100.070808 50.596504 
L 100.129305 50.596504 
L 100.772785 50.596504 
L 100.772785 45.884441 
L 100.831274 45.884441 
L 101.006799 45.884441 
L 101.006799 41.172378 
L 101.06529 41.172378 
L 101.240781 41.172378 
L 101.240781 36.460315 
L 101.299286 36.460315 
L 101.942796 36.460315 
L 101.942796 31.748252 
L 102.001299 31.748252 
L 303.005 31.748252 
L 303.005 31.748252 
" style="fill:none;stroke:#a6761d;stroke-linecap:square;stroke-width:1.5;"/>
   </g>
   <g id="line2d_26">
    <path clip-path="url(#p75d23dbca1)" d="M 55.905 201.382519 
L 67.311173 201.382519 
L 67.311173 196.670456 
L 67.369707 196.670456 
L 68.013165 196.670456 
L 68.013165 191.958393 
L 68.071652 191.958393 
L 73.161115 191.958393 
L 73.161115 187.24633 
L 73.21962 187.24633 
L 73.629109 187.24633 
L 73.629109 191.958393 
L 73.687615 191.958393 
L 73.863105 191.958393 
L 73.863105 182.534267 
L 73.921636 182.534267 
L 95.156891 182.534267 
L 95.156891 177.822204 
L 95.215332 177.822204 
L 95.624877 177.822204 
L 95.624877 173.110142 
L 95.683357 173.110142 
L 96.092871 173.110142 
L 96.092871 168.398079 
L 96.151355 168.398079 
L 96.326871 168.398079 
L 96.326871 163.686016 
L 96.385362 163.686016 
L 97.49682 163.686016 
L 97.49682 158.973953 
L 97.555304 158.973953 
L 101.240781 158.973953 
L 101.240781 154.26189 
L 101.299286 154.26189 
L 101.942796 154.26189 
L 101.942796 149.549827 
L 102.001299 149.549827 
L 102.176791 149.549827 
L 102.176791 144.837764 
L 102.235282 144.837764 
L 106.154714 144.837764 
L 106.154714 135.413638 
L 106.21323 135.413638 
L 106.388706 135.413638 
L 106.388706 130.701575 
L 106.447206 130.701575 
L 106.622701 130.701575 
L 106.681205 116.565386 
L 106.681205 116.565386 
L 107.558735 116.565386 
L 107.558735 111.853323 
L 107.617243 111.853323 
L 107.792699 111.853323 
L 107.792699 107.14126 
L 107.851198 107.14126 
L 108.026727 107.14126 
L 108.026727 111.853323 
L 108.085224 111.853323 
L 108.260704 111.853323 
L 108.260704 107.14126 
L 108.319217 107.14126 
L 108.494688 107.14126 
L 108.494688 102.429197 
L 108.553179 102.429197 
L 111.302693 102.429197 
L 111.302693 107.14126 
L 111.361148 107.14126 
L 112.004648 107.14126 
L 112.004648 93.005071 
L 112.063164 93.005071 
L 112.472659 93.005071 
L 112.472659 88.293008 
L 112.531187 88.293008 
L 112.94069 88.293008 
L 112.94069 69.444756 
L 112.999139 69.444756 
L 113.174687 69.444756 
L 113.174687 64.732693 
L 113.233135 64.732693 
L 118.322585 64.732693 
L 118.322585 60.02063 
L 118.381108 60.02063 
L 137.276417 60.02063 
L 137.276417 55.308567 
L 137.33488 55.308567 
L 141.020364 55.308567 
L 141.020364 50.596504 
L 141.078851 50.596504 
L 141.254333 50.596504 
L 141.254333 55.308567 
L 141.312822 55.308567 
L 141.722331 55.308567 
L 141.722331 50.596504 
L 141.780812 50.596504 
L 147.338305 50.596504 
L 147.338305 45.884441 
L 147.396866 45.884441 
L 156.932139 45.884441 
L 156.932139 50.596504 
L 156.990646 50.596504 
L 163.484077 50.596504 
L 163.484077 45.884441 
L 163.54258 45.884441 
L 173.546008 45.884441 
L 173.546008 50.596504 
L 173.604449 50.596504 
L 174.013939 50.596504 
L 174.013939 55.308567 
L 174.072439 55.308567 
L 174.71594 55.308567 
L 174.71594 60.02063 
L 174.774439 60.02063 
L 181.267876 60.02063 
L 181.267876 64.732693 
L 181.326359 64.732693 
L 191.329747 64.732693 
L 191.329747 69.444756 
L 191.388296 69.444756 
L 214.729536 69.444756 
L 214.729536 74.156819 
L 214.788022 74.156819 
L 303.005 74.156819 
L 303.005 74.156819 
" style="fill:none;stroke:#666666;stroke-linecap:square;stroke-width:1.5;"/>
   </g>
   <g id="line2d_27">
    <path clip-path="url(#p75d23dbca1)" d="M 55.905 206.094582 
L 67.311173 206.094582 
L 67.311173 201.382519 
L 67.369707 201.382519 
L 73.629109 201.382519 
L 73.629109 191.958393 
L 73.687615 191.958393 
L 94.92286 191.958393 
L 94.92286 187.24633 
L 94.981393 187.24633 
L 95.390865 187.24633 
L 95.390865 182.534267 
L 95.449334 182.534267 
L 96.092871 182.534267 
L 96.092871 177.822204 
L 96.151355 177.822204 
L 100.538793 177.822204 
L 100.538793 173.110142 
L 100.597296 173.110142 
L 100.772785 173.110142 
L 100.772785 163.686016 
L 100.831274 163.686016 
L 101.006799 163.686016 
L 101.006799 158.973953 
L 101.06529 158.973953 
L 101.474753 158.973953 
L 101.474753 154.26189 
L 101.533304 154.26189 
L 101.708797 154.26189 
L 101.708797 144.837764 
L 101.767287 144.837764 
L 101.942796 144.837764 
L 101.942796 135.413638 
L 102.001299 135.413638 
L 102.878802 135.413638 
L 102.878802 130.701575 
L 102.937296 130.701575 
L 103.346783 130.701575 
L 103.346783 125.989512 
L 103.405271 125.989512 
L 103.580737 125.989512 
L 103.580737 130.701575 
L 103.639297 130.701575 
L 105.686737 130.701575 
L 105.686737 135.413638 
L 105.745256 135.413638 
L 105.92071 135.413638 
L 105.92071 140.125701 
L 105.979219 140.125701 
L 106.154714 140.125701 
L 106.154714 135.413638 
L 106.21323 135.413638 
L 106.388706 135.413638 
L 106.388706 140.125701 
L 106.447206 140.125701 
L 106.622701 140.125701 
L 106.622701 135.413638 
L 106.681205 135.413638 
L 106.856722 135.413638 
L 106.856722 130.701575 
L 106.915218 130.701575 
L 107.324708 130.701575 
L 107.324708 135.413638 
L 107.38323 135.413638 
L 112.706665 135.413638 
L 112.706665 130.701575 
L 112.765173 130.701575 
L 113.174687 130.701575 
L 113.174687 125.989512 
L 113.233135 125.989512 
L 118.556613 125.989512 
L 118.556613 121.277449 
L 118.615072 121.277449 
L 120.194575 121.277449 
L 120.194575 116.565386 
L 120.253101 116.565386 
L 135.170411 116.565386 
L 135.170411 111.853323 
L 135.228878 111.853323 
L 135.404406 111.853323 
L 135.404406 107.14126 
L 135.462875 107.14126 
L 136.340372 107.14126 
L 136.340372 102.429197 
L 136.398941 102.429197 
L 147.338305 102.429197 
L 147.338305 97.717134 
L 147.396866 97.717134 
L 148.040236 97.717134 
L 148.040236 93.005071 
L 148.098792 93.005071 
L 159.740142 93.005071 
L 159.740142 88.293008 
L 159.798604 88.293008 
L 164.88806 88.293008 
L 164.88806 93.005071 
L 164.946597 93.005071 
L 174.013939 93.005071 
L 174.013939 97.717134 
L 174.072439 97.717134 
L 214.26153 97.717134 
L 214.26153 93.005071 
L 214.32001 93.005071 
L 253.807105 93.005071 
L 253.807105 88.293008 
L 253.865588 88.293008 
L 258.253039 88.293008 
L 258.253039 83.580945 
L 258.311501 83.580945 
L 274.398831 83.580945 
L 274.398831 78.868882 
L 274.457303 78.868882 
L 303.005 78.868882 
L 303.005 78.868882 
" style="fill:none;stroke:#1b9e77;stroke-dasharray:4.5,1.5;stroke-dashoffset:0;stroke-width:1.5;"/>
   </g>
   <g id="line2d_28">
    <path clip-path="url(#p75d23dbca1)" d="M 55.905 196.670456 
L 61.106353 196.670456 
L 61.106353 191.958393 
L 68.013165 191.958393 
L 68.013165 187.24633 
L 68.071652 187.24633 
L 72.693095 187.24633 
L 72.693095 182.534267 
L 72.751594 182.534267 
L 73.161115 182.534267 
L 73.161115 177.822204 
L 73.21962 177.822204 
L 73.863105 177.822204 
L 73.863105 173.110142 
L 73.921636 173.110142 
L 74.097096 173.110142 
L 74.097096 168.398079 
L 74.155618 168.398079 
L 75.50109 168.398079 
L 75.50109 163.686016 
L 75.559595 163.686016 
L 95.624877 163.686016 
L 95.624877 154.26189 
L 95.683357 154.26189 
L 101.006799 154.26189 
L 101.006799 149.549827 
L 101.06529 149.549827 
L 102.176791 149.549827 
L 102.176791 144.837764 
L 102.235282 144.837764 
L 102.878802 144.837764 
L 102.878802 140.125701 
L 102.937296 140.125701 
L 106.388706 140.125701 
L 106.388706 135.413638 
L 106.447206 135.413638 
L 106.622701 135.413638 
L 106.622701 125.989512 
L 106.681205 125.989512 
L 107.324708 125.989512 
L 107.324708 116.565386 
L 107.38323 116.565386 
L 112.472659 116.565386 
L 112.472659 111.853323 
L 112.531187 111.853323 
L 113.174687 111.853323 
L 113.174687 107.14126 
L 113.233135 107.14126 
L 113.876632 107.14126 
L 113.876632 102.429197 
L 113.93514 102.429197 
L 119.726604 102.429197 
L 119.726604 97.717134 
L 119.785048 97.717134 
L 135.872411 97.717134 
L 135.872411 93.005071 
L 135.930886 93.005071 
L 141.254333 93.005071 
L 141.254333 88.293008 
L 141.312822 88.293008 
L 147.338305 88.293008 
L 147.338305 93.005071 
L 147.396866 93.005071 
L 174.247972 93.005071 
L 174.247972 88.293008 
L 174.306495 88.293008 
L 174.48195 88.293008 
L 174.48195 93.005071 
L 174.540458 93.005071 
L 180.331908 93.005071 
L 180.331908 88.293008 
L 180.390413 88.293008 
L 221.515414 88.293008 
L 221.515414 83.580945 
L 221.573961 83.580945 
L 258.955 83.580945 
L 258.955 78.868882 
L 259.013558 78.868882 
L 270.88889 78.868882 
L 270.88889 83.580945 
L 270.947355 83.580945 
L 303.005 83.580945 
L 303.005 83.580945 
" style="fill:none;stroke:#d95f02;stroke-dasharray:4.5,1.5;stroke-dashoffset:0;stroke-width:1.5;"/>
   </g>
   <g id="line2d_29">
    <path clip-path="url(#p75d23dbca1)" d="M 55.905 206.094582 
L 66.843211 206.094582 
L 66.843211 201.382519 
L 66.901714 201.382519 
L 67.077199 201.382519 
L 67.077199 196.670456 
L 67.1357 196.670456 
L 68.013165 196.670456 
L 68.013165 187.24633 
L 68.071652 187.24633 
L 72.459125 187.24633 
L 72.459125 182.534267 
L 72.517616 182.534267 
L 73.629109 182.534267 
L 73.629109 177.822204 
L 73.687615 177.822204 
L 73.863105 177.822204 
L 73.863105 173.110142 
L 73.921636 173.110142 
L 74.097096 173.110142 
L 74.097096 168.398079 
L 74.155618 168.398079 
L 95.390865 168.398079 
L 95.390865 163.686016 
L 95.449334 163.686016 
L 95.624877 163.686016 
L 95.624877 158.973953 
L 95.683357 158.973953 
L 95.858849 158.973953 
L 95.858849 149.549827 
L 95.917345 149.549827 
L 101.708797 149.549827 
L 101.708797 144.837764 
L 101.767287 144.837764 
L 101.942796 144.837764 
L 101.942796 140.125701 
L 102.001299 140.125701 
L 105.92071 140.125701 
L 105.92071 144.837764 
L 105.979219 144.837764 
L 106.622701 144.837764 
L 106.622701 135.413638 
L 106.681205 135.413638 
L 106.856722 135.413638 
L 106.856722 140.125701 
L 106.915218 140.125701 
L 107.090733 140.125701 
L 107.090733 135.413638 
L 107.149235 135.413638 
L 107.558735 135.413638 
L 107.558735 125.989512 
L 107.617243 125.989512 
L 107.792699 125.989512 
L 107.792699 121.277449 
L 107.851198 121.277449 
L 118.79057 121.277449 
L 118.79057 116.565386 
L 118.8491 116.565386 
L 119.492604 116.565386 
L 119.492604 111.853323 
L 119.551114 111.853323 
L 130.724443 111.853323 
L 130.724443 107.14126 
L 130.782969 107.14126 
L 152.018204 107.14126 
L 152.018204 102.429197 
L 152.076724 102.429197 
L 152.954192 102.429197 
L 152.954192 97.717134 
L 153.01271 97.717134 
L 157.634176 97.717134 
L 157.634176 93.005071 
L 157.692648 93.005071 
L 176.119979 93.005071 
L 176.119979 88.293008 
L 176.178464 88.293008 
L 303.005 88.293008 
L 303.005 88.293008 
" style="fill:none;stroke:#7570b3;stroke-dasharray:4.5,1.5;stroke-dashoffset:0;stroke-width:1.5;"/>
   </g>
   <g id="line2d_30">
    <path clip-path="url(#p75d23dbca1)" d="M 55.905 210.806645 
L 61.929463 210.806645 
L 61.929463 206.094582 
L 61.987747 206.094582 
L 62.397265 206.094582 
L 62.397265 201.382519 
L 62.455738 201.382519 
L 67.779165 201.382519 
L 67.779165 196.670456 
L 67.837681 196.670456 
L 73.863105 196.670456 
L 73.863105 191.958393 
L 73.921636 191.958393 
L 77.607072 191.958393 
L 77.607072 187.24633 
L 77.665622 187.24633 
L 78.777034 187.24633 
L 78.777034 182.534267 
L 78.835543 182.534267 
L 79.24505 182.534267 
L 79.24505 177.822204 
L 79.303562 177.822204 
L 94.92286 177.822204 
L 94.92286 168.398079 
L 94.981393 168.398079 
L 95.390865 168.398079 
L 95.390865 163.686016 
L 95.449334 163.686016 
L 95.624877 163.686016 
L 95.624877 158.973953 
L 95.683357 158.973953 
L 95.858849 158.973953 
L 95.858849 154.26189 
L 95.917345 154.26189 
L 96.092871 154.26189 
L 96.092871 144.837764 
L 96.151355 144.837764 
L 96.326871 144.837764 
L 96.326871 140.125701 
L 96.385362 140.125701 
L 96.794861 140.125701 
L 96.794861 135.413638 
L 96.853346 135.413638 
L 97.262876 135.413638 
L 97.262876 130.701575 
L 97.321303 130.701575 
L 97.964804 130.701575 
L 97.964804 125.989512 
L 98.023305 125.989512 
L 100.538793 125.989512 
L 100.538793 121.277449 
L 100.597296 121.277449 
L 100.772785 121.277449 
L 100.772785 116.565386 
L 100.831274 116.565386 
L 101.006799 116.565386 
L 101.006799 102.429197 
L 101.06529 102.429197 
L 101.240781 102.429197 
L 101.240781 97.717134 
L 101.299286 97.717134 
L 101.474753 97.717134 
L 101.474753 93.005071 
L 101.533304 93.005071 
L 103.580737 93.005071 
L 103.580737 97.717134 
L 103.639297 97.717134 
L 106.622701 97.717134 
L 106.622701 93.005071 
L 106.681205 93.005071 
L 106.856722 93.005071 
L 106.856722 97.717134 
L 106.915218 97.717134 
L 107.090733 97.717134 
L 107.090733 93.005071 
L 107.149235 93.005071 
L 113.642689 93.005071 
L 113.642689 97.717134 
L 113.701134 97.717134 
L 113.876632 97.717134 
L 113.876632 93.005071 
L 113.93514 93.005071 
L 303.005 93.005071 
L 303.005 93.005071 
" style="fill:none;stroke:#e7298a;stroke-dasharray:4.5,1.5;stroke-dashoffset:0;stroke-width:1.5;"/>
   </g>
   <g id="line2d_31">
    <path clip-path="url(#p75d23dbca1)" d="M 55.905 210.806645 
L 62.865204 210.806645 
L 62.865204 206.094582 
L 62.923729 206.094582 
L 63.80124 206.094582 
L 63.80124 201.382519 
L 63.859705 201.382519 
L 78.543078 201.382519 
L 78.543078 196.670456 
L 78.601541 196.670456 
L 94.92286 196.670456 
L 94.92286 191.958393 
L 94.981393 191.958393 
L 96.560834 191.958393 
L 96.560834 182.534267 
L 96.619321 182.534267 
L 101.006799 182.534267 
L 101.006799 177.822204 
L 101.06529 177.822204 
L 101.240781 177.822204 
L 101.240781 173.110142 
L 101.299286 173.110142 
L 101.942796 173.110142 
L 101.942796 163.686016 
L 102.001299 163.686016 
L 102.176791 163.686016 
L 102.176791 158.973953 
L 102.235282 158.973953 
L 103.580737 158.973953 
L 103.580737 154.26189 
L 103.639297 154.26189 
L 106.388706 154.26189 
L 106.388706 158.973953 
L 106.447206 158.973953 
L 106.856722 158.973953 
L 106.856722 154.26189 
L 106.915218 154.26189 
L 107.090733 154.26189 
L 107.090733 149.549827 
L 107.149235 149.549827 
L 107.558735 149.549827 
L 107.558735 144.837764 
L 107.617243 144.837764 
L 107.792699 144.837764 
L 107.792699 149.549827 
L 107.851198 149.549827 
L 108.026727 149.549827 
L 108.026727 144.837764 
L 108.085224 144.837764 
L 112.004648 144.837764 
L 112.004648 140.125701 
L 112.063164 140.125701 
L 119.492604 140.125701 
L 119.492604 135.413638 
L 119.551114 135.413638 
L 135.170411 135.413638 
L 135.170411 130.701575 
L 135.228878 130.701575 
L 157.400146 130.701575 
L 157.400146 125.989512 
L 157.458686 125.989512 
L 185.245857 125.989512 
L 185.245857 121.277449 
L 185.304329 121.277449 
L 214.729536 121.277449 
L 214.729536 116.565386 
L 214.788022 116.565386 
L 269.484898 116.565386 
L 269.484898 111.853323 
L 291.948627 111.853323 
L 291.948627 107.14126 
L 292.007152 107.14126 
L 303.005 107.14126 
L 303.005 107.14126 
" style="fill:none;stroke:#66a61e;stroke-dasharray:4.5,1.5;stroke-dashoffset:0;stroke-width:1.5;"/>
   </g>
   <g id="line2d_32">
    <path clip-path="url(#p75d23dbca1)" d="M 160.968606 210.806645 
L 163.016066 210.806645 
L 163.016066 206.094582 
L 163.074607 206.094582 
L 170.036036 206.094582 
L 170.036036 201.382519 
L 170.094517 201.382519 
L 173.546008 201.382519 
L 173.546008 182.534267 
L 173.604449 182.534267 
L 174.013939 182.534267 
L 174.013939 173.110142 
L 174.072439 173.110142 
L 174.48195 173.110142 
L 174.48195 158.973953 
L 174.540458 158.973953 
L 174.949938 158.973953 
L 174.949938 154.26189 
L 175.008485 154.26189 
L 179.629934 154.26189 
L 179.629934 149.549827 
L 179.688396 149.549827 
L 180.799907 149.549827 
L 180.799907 144.837764 
L 180.858369 144.837764 
L 181.267876 144.837764 
L 181.267876 140.125701 
L 181.326359 140.125701 
L 181.735873 140.125701 
L 181.735873 135.413638 
L 181.794401 135.413638 
L 181.969879 135.413638 
L 181.969879 130.701575 
L 182.02834 130.701575 
L 185.245857 130.701575 
L 185.245857 125.989512 
L 185.304329 125.989512 
L 187.351795 125.989512 
L 187.351795 121.277449 
L 187.410335 121.277449 
L 191.329747 121.277449 
L 191.329747 116.565386 
L 191.388296 116.565386 
L 262.932942 116.565386 
L 262.932942 121.277449 
L 262.991471 121.277449 
L 264.102916 121.277449 
L 264.102916 116.565386 
L 264.161436 116.565386 
L 303.005 116.565386 
L 303.005 116.565386 
" style="fill:none;stroke:#e6ab02;stroke-dasharray:4.5,1.5;stroke-dashoffset:0;stroke-width:1.5;"/>
   </g>
   <g id="line2d_33">
    <path clip-path="url(#p75d23dbca1)" d="M 55.905 206.094582 
L 67.545169 206.094582 
L 67.545169 196.670456 
L 67.603644 196.670456 
L 72.693095 196.670456 
L 72.693095 187.24633 
L 72.751594 187.24633 
L 72.927081 187.24633 
L 72.927081 182.534267 
L 72.985585 182.534267 
L 73.863105 182.534267 
L 73.863105 177.822204 
L 73.921636 177.822204 
L 74.097096 177.822204 
L 74.097096 173.110142 
L 74.155618 173.110142 
L 95.858849 173.110142 
L 95.858849 168.398079 
L 95.917345 168.398079 
L 96.092871 168.398079 
L 96.092871 163.686016 
L 96.151355 163.686016 
L 96.326871 163.686016 
L 96.326871 158.973953 
L 96.385362 158.973953 
L 97.028812 158.973953 
L 97.028812 154.26189 
L 97.087364 154.26189 
L 97.262876 154.26189 
L 97.262876 158.973953 
L 97.321303 158.973953 
L 100.538793 158.973953 
L 100.538793 140.125701 
L 100.597296 140.125701 
L 101.006799 140.125701 
L 101.006799 130.701575 
L 101.06529 130.701575 
L 101.240781 130.701575 
L 101.240781 125.989512 
L 101.299286 125.989512 
L 101.474753 125.989512 
L 101.474753 116.565386 
L 101.533304 116.565386 
L 303.005 116.565386 
L 303.005 116.565386 
" style="fill:none;stroke:#a6761d;stroke-dasharray:4.5,1.5;stroke-dashoffset:0;stroke-width:1.5;"/>
   </g>
   <g id="line2d_34">
    <path clip-path="url(#p75d23dbca1)" d="M 55.905 210.806645 
L 68.013165 210.806645 
L 68.013165 206.094582 
L 68.071652 206.094582 
L 68.247197 206.094582 
L 68.247197 201.382519 
L 68.305681 201.382519 
L 72.927081 201.382519 
L 72.927081 196.670456 
L 72.985585 196.670456 
L 74.097096 196.670456 
L 74.097096 191.958393 
L 74.155618 191.958393 
L 74.565091 191.958393 
L 74.565091 187.24633 
L 74.623603 187.24633 
L 75.03311 187.24633 
L 75.03311 182.534267 
L 75.091613 182.534267 
L 78.543078 182.534267 
L 78.543078 187.24633 
L 78.601541 187.24633 
L 95.156891 187.24633 
L 95.156891 182.534267 
L 95.215332 182.534267 
L 96.560834 182.534267 
L 96.560834 173.110142 
L 96.619321 173.110142 
L 100.772785 173.110142 
L 100.772785 168.398079 
L 100.831274 168.398079 
L 101.708797 168.398079 
L 101.708797 149.549827 
L 101.767287 149.549827 
L 101.942796 149.549827 
L 101.942796 144.837764 
L 102.001299 144.837764 
L 102.176791 144.837764 
L 102.176791 140.125701 
L 102.235282 140.125701 
L 174.013939 140.125701 
L 174.013939 144.837764 
L 174.072439 144.837764 
L 174.247972 144.837764 
L 174.247972 140.125701 
L 174.306495 140.125701 
L 303.005 140.125701 
L 303.005 140.125701 
" style="fill:none;stroke:#666666;stroke-dasharray:4.5,1.5;stroke-dashoffset:0;stroke-width:1.5;"/>
   </g>
   <g id="line2d_35"/>
   <g id="line2d_36"/>
   <g id="line2d_37"/>
   <g id="line2d_38"/>
   <g id="line2d_39"/>
   <g id="line2d_40"/>
   <g id="line2d_41"/>
   <g id="line2d_42"/>
   <g id="line2d_43"/>
   <g id="line2d_44"/>
   <g id="line2d_45"/>
   <g id="line2d_46"/>
   <g id="line2d_47"/>
   <g id="line2d_48"/>
   <g id="line2d_49"/>
   <g id="line2d_50"/>
   <g id="line2d_51"/>
   <g id="patch_3">
    <path d="M 43.55 220.230771 
L 43.55 12.9 
" style="fill:none;stroke:#000000;stroke-linecap:square;stroke-linejoin:miter;stroke-width:0.8;"/>
   </g>
   <g id="patch_4">
    <path d="M 315.36 220.230771 
L 315.36 12.9 
" style="fill:none;stroke:#000000;stroke-linecap:square;stroke-linejoin:miter;stroke-width:0.8;"/>
   </g>
   <g id="patch_5">
    <path d="M 43.55 220.230771 
L 315.36 220.230771 
" style="fill:none;stroke:#000000;stroke-linecap:square;stroke-linejoin:miter;stroke-width:0.8;"/>
   </g>
   <g id="patch_6">
    <path d="M 43.55 12.9 
L 315.36 12.9 
" style="fill:none;stroke:#000000;stroke-linecap:square;stroke-linejoin:miter;stroke-width:0.8;"/>
   </g>
  </g>
  <g id="legend_1">
   <g id="patch_7">
    <path d="M 331.8625 262.528125 
L 420 262.528125 
Q 422 262.528125 422 260.528125 
L 422 12 
Q 422 10 420 10 
L 331.8625 10 
Q 329.8625 10 329.8625 12 
L 329.8625 260.528125 
Q 329.8625 262.528125 331.8625 262.528125 
z
" style="fill:#ffffff;opacity:0.8;stroke:#cccccc;stroke-linejoin:miter;"/>
   </g>
   <g id="text_21">
    <!-- 486/610 Reg. -->
    <defs>
     <path d="M 33.015625 40.375 
Q 26.375 40.375 22.484375 35.828125 
Q 18.609375 31.296875 18.609375 23.390625 
Q 18.609375 15.53125 22.484375 10.953125 
Q 26.375 6.390625 33.015625 6.390625 
Q 39.65625 6.390625 43.53125 10.953125 
Q 47.40625 15.53125 47.40625 23.390625 
Q 47.40625 31.296875 43.53125 35.828125 
Q 39.65625 40.375 33.015625 40.375 
z
M 52.59375 71.296875 
L 52.59375 62.3125 
Q 48.875 64.0625 45.09375 64.984375 
Q 41.3125 65.921875 37.59375 65.921875 
Q 27.828125 65.921875 22.671875 59.328125 
Q 17.53125 52.734375 16.796875 39.40625 
Q 19.671875 43.65625 24.015625 45.921875 
Q 28.375 48.1875 33.59375 48.1875 
Q 44.578125 48.1875 50.953125 41.515625 
Q 57.328125 34.859375 57.328125 23.390625 
Q 57.328125 12.15625 50.6875 5.359375 
Q 44.046875 -1.421875 33.015625 -1.421875 
Q 20.359375 -1.421875 13.671875 8.265625 
Q 6.984375 17.96875 6.984375 36.375 
Q 6.984375 53.65625 15.1875 63.9375 
Q 23.390625 74.21875 37.203125 74.21875 
Q 40.921875 74.21875 44.703125 73.484375 
Q 48.484375 72.75 52.59375 71.296875 
z
" id="DejaVuSans-54"/>
     <path d="M 25.390625 72.90625 
L 33.6875 72.90625 
L 8.296875 -9.28125 
L 0 -9.28125 
z
" id="DejaVuSans-47"/>
     <path d="M 10.6875 12.40625 
L 21 12.40625 
L 21 0 
L 10.6875 0 
z
" id="DejaVuSans-46"/>
    </defs>
    <g transform="translate(342.259375 21.598437)scale(0.1 -0.1)">
     <use xlink:href="#DejaVuSans-52"/>
     <use x="63.623047" xlink:href="#DejaVuSans-56"/>
     <use x="127.246094" xlink:href="#DejaVuSans-54"/>
     <use x="190.869141" xlink:href="#DejaVuSans-47"/>
     <use x="224.560547" xlink:href="#DejaVuSans-54"/>
     <use x="288.183594" xlink:href="#DejaVuSans-49"/>
     <use x="351.806641" xlink:href="#DejaVuSans-48"/>
     <use x="415.429688" xlink:href="#DejaVuSans-32"/>
     <use x="447.216797" xlink:href="#DejaVuSans-82"/>
     <use x="516.636719" xlink:href="#DejaVuSans-101"/>
     <use x="578.160156" xlink:href="#DejaVuSans-103"/>
     <use x="641.636719" xlink:href="#DejaVuSans-46"/>
    </g>
   </g>
   <g id="line2d_52">
    <path d="M 333.8625 32.776562 
L 353.8625 32.776562 
" style="fill:none;stroke:#1b9e77;stroke-linecap:square;stroke-width:1.5;"/>
   </g>
   <g id="line2d_53"/>
   <g id="text_22">
    <!-- SA (40) -->
    <defs>
     <path d="M 34.1875 63.1875 
L 20.796875 26.90625 
L 47.609375 26.90625 
z
M 28.609375 72.90625 
L 39.796875 72.90625 
L 67.578125 0 
L 57.328125 0 
L 50.6875 18.703125 
L 17.828125 18.703125 
L 11.1875 0 
L 0.78125 0 
z
" id="DejaVuSans-65"/>
     <path d="M 31 75.875 
Q 24.46875 64.65625 21.28125 53.65625 
Q 18.109375 42.671875 18.109375 31.390625 
Q 18.109375 20.125 21.3125 9.0625 
Q 24.515625 -2 31 -13.1875 
L 23.1875 -13.1875 
Q 15.875 -1.703125 12.234375 9.375 
Q 8.59375 20.453125 8.59375 31.390625 
Q 8.59375 42.28125 12.203125 53.3125 
Q 15.828125 64.359375 23.1875 75.875 
z
" id="DejaVuSans-40"/>
     <path d="M 8.015625 75.875 
L 15.828125 75.875 
Q 23.140625 64.359375 26.78125 53.3125 
Q 30.421875 42.28125 30.421875 31.390625 
Q 30.421875 20.453125 26.78125 9.375 
Q 23.140625 -1.703125 15.828125 -13.1875 
L 8.015625 -13.1875 
Q 14.5 -2 17.703125 9.0625 
Q 20.90625 20.125 20.90625 31.390625 
Q 20.90625 42.671875 17.703125 53.65625 
Q 14.5 64.65625 8.015625 75.875 
z
" id="DejaVuSans-41"/>
    </defs>
    <g transform="translate(361.8625 36.276562)scale(0.1 -0.1)">
     <use xlink:href="#DejaVuSans-83"/>
     <use x="63.492188" xlink:href="#DejaVuSans-65"/>
     <use x="131.900391" xlink:href="#DejaVuSans-32"/>
     <use x="163.6875" xlink:href="#DejaVuSans-40"/>
     <use x="202.701172" xlink:href="#DejaVuSans-52"/>
     <use x="266.324219" xlink:href="#DejaVuSans-48"/>
     <use x="329.947266" xlink:href="#DejaVuSans-41"/>
    </g>
   </g>
   <g id="line2d_54">
    <path d="M 333.8625 47.454688 
L 353.8625 47.454688 
" style="fill:none;stroke:#d95f02;stroke-linecap:square;stroke-width:1.5;"/>
   </g>
   <g id="line2d_55"/>
   <g id="text_23">
    <!-- AUS (40) -->
    <defs>
     <path d="M 8.6875 72.90625 
L 18.609375 72.90625 
L 18.609375 28.609375 
Q 18.609375 16.890625 22.84375 11.734375 
Q 27.09375 6.59375 36.625 6.59375 
Q 46.09375 6.59375 50.34375 11.734375 
Q 54.59375 16.890625 54.59375 28.609375 
L 54.59375 72.90625 
L 64.5 72.90625 
L 64.5 27.390625 
Q 64.5 13.140625 57.4375 5.859375 
Q 50.390625 -1.421875 36.625 -1.421875 
Q 22.796875 -1.421875 15.734375 5.859375 
Q 8.6875 13.140625 8.6875 27.390625 
z
" id="DejaVuSans-85"/>
    </defs>
    <g transform="translate(361.8625 50.954688)scale(0.1 -0.1)">
     <use xlink:href="#DejaVuSans-65"/>
     <use x="68.408203" xlink:href="#DejaVuSans-85"/>
     <use x="141.601562" xlink:href="#DejaVuSans-83"/>
     <use x="205.078125" xlink:href="#DejaVuSans-32"/>
     <use x="236.865234" xlink:href="#DejaVuSans-40"/>
     <use x="275.878906" xlink:href="#DejaVuSans-52"/>
     <use x="339.501953" xlink:href="#DejaVuSans-48"/>
     <use x="403.125" xlink:href="#DejaVuSans-41"/>
    </g>
   </g>
   <g id="line2d_56">
    <path d="M 333.8625 62.132812 
L 353.8625 62.132812 
" style="fill:none;stroke:#7570b3;stroke-linecap:square;stroke-width:1.5;"/>
   </g>
   <g id="line2d_57"/>
   <g id="text_24">
    <!-- COML (40) -->
    <defs>
     <path d="M 64.40625 67.28125 
L 64.40625 56.890625 
Q 59.421875 61.53125 53.78125 63.8125 
Q 48.140625 66.109375 41.796875 66.109375 
Q 29.296875 66.109375 22.65625 58.46875 
Q 16.015625 50.828125 16.015625 36.375 
Q 16.015625 21.96875 22.65625 14.328125 
Q 29.296875 6.6875 41.796875 6.6875 
Q 48.140625 6.6875 53.78125 8.984375 
Q 59.421875 11.28125 64.40625 15.921875 
L 64.40625 5.609375 
Q 59.234375 2.09375 53.4375 0.328125 
Q 47.65625 -1.421875 41.21875 -1.421875 
Q 24.65625 -1.421875 15.125 8.703125 
Q 5.609375 18.84375 5.609375 36.375 
Q 5.609375 53.953125 15.125 64.078125 
Q 24.65625 74.21875 41.21875 74.21875 
Q 47.75 74.21875 53.53125 72.484375 
Q 59.328125 70.75 64.40625 67.28125 
z
" id="DejaVuSans-67"/>
     <path d="M 39.40625 66.21875 
Q 28.65625 66.21875 22.328125 58.203125 
Q 16.015625 50.203125 16.015625 36.375 
Q 16.015625 22.609375 22.328125 14.59375 
Q 28.65625 6.59375 39.40625 6.59375 
Q 50.140625 6.59375 56.421875 14.59375 
Q 62.703125 22.609375 62.703125 36.375 
Q 62.703125 50.203125 56.421875 58.203125 
Q 50.140625 66.21875 39.40625 66.21875 
z
M 39.40625 74.21875 
Q 54.734375 74.21875 63.90625 63.9375 
Q 73.09375 53.65625 73.09375 36.375 
Q 73.09375 19.140625 63.90625 8.859375 
Q 54.734375 -1.421875 39.40625 -1.421875 
Q 24.03125 -1.421875 14.8125 8.828125 
Q 5.609375 19.09375 5.609375 36.375 
Q 5.609375 53.65625 14.8125 63.9375 
Q 24.03125 74.21875 39.40625 74.21875 
z
" id="DejaVuSans-79"/>
     <path d="M 9.8125 72.90625 
L 24.515625 72.90625 
L 43.109375 23.296875 
L 61.8125 72.90625 
L 76.515625 72.90625 
L 76.515625 0 
L 66.890625 0 
L 66.890625 64.015625 
L 48.09375 14.015625 
L 38.1875 14.015625 
L 19.390625 64.015625 
L 19.390625 0 
L 9.8125 0 
z
" id="DejaVuSans-77"/>
     <path d="M 9.8125 72.90625 
L 19.671875 72.90625 
L 19.671875 8.296875 
L 55.171875 8.296875 
L 55.171875 0 
L 9.8125 0 
z
" id="DejaVuSans-76"/>
    </defs>
    <g transform="translate(361.8625 65.632812)scale(0.1 -0.1)">
     <use xlink:href="#DejaVuSans-67"/>
     <use x="69.824219" xlink:href="#DejaVuSans-79"/>
     <use x="148.535156" xlink:href="#DejaVuSans-77"/>
     <use x="234.814453" xlink:href="#DejaVuSans-76"/>
     <use x="290.527344" xlink:href="#DejaVuSans-32"/>
     <use x="322.314453" xlink:href="#DejaVuSans-40"/>
     <use x="361.328125" xlink:href="#DejaVuSans-52"/>
     <use x="424.951172" xlink:href="#DejaVuSans-48"/>
     <use x="488.574219" xlink:href="#DejaVuSans-41"/>
    </g>
   </g>
   <g id="line2d_58">
    <path d="M 333.8625 76.810937 
L 353.8625 76.810937 
" style="fill:none;stroke:#e7298a;stroke-linecap:square;stroke-width:1.5;"/>
   </g>
   <g id="line2d_59"/>
   <g id="text_25">
    <!-- GDD (40) -->
    <defs>
     <path d="M 59.515625 10.40625 
L 59.515625 29.984375 
L 43.40625 29.984375 
L 43.40625 38.09375 
L 69.28125 38.09375 
L 69.28125 6.78125 
Q 63.578125 2.734375 56.6875 0.65625 
Q 49.8125 -1.421875 42 -1.421875 
Q 24.90625 -1.421875 15.25 8.5625 
Q 5.609375 18.5625 5.609375 36.375 
Q 5.609375 54.25 15.25 64.234375 
Q 24.90625 74.21875 42 74.21875 
Q 49.125 74.21875 55.546875 72.453125 
Q 61.96875 70.703125 67.390625 67.28125 
L 67.390625 56.78125 
Q 61.921875 61.421875 55.765625 63.765625 
Q 49.609375 66.109375 42.828125 66.109375 
Q 29.4375 66.109375 22.71875 58.640625 
Q 16.015625 51.171875 16.015625 36.375 
Q 16.015625 21.625 22.71875 14.15625 
Q 29.4375 6.6875 42.828125 6.6875 
Q 48.046875 6.6875 52.140625 7.59375 
Q 56.25 8.5 59.515625 10.40625 
z
" id="DejaVuSans-71"/>
    </defs>
    <g transform="translate(361.8625 80.310937)scale(0.1 -0.1)">
     <use xlink:href="#DejaVuSans-71"/>
     <use x="77.490234" xlink:href="#DejaVuSans-68"/>
     <use x="154.492188" xlink:href="#DejaVuSans-68"/>
     <use x="231.494141" xlink:href="#DejaVuSans-32"/>
     <use x="263.28125" xlink:href="#DejaVuSans-40"/>
     <use x="302.294922" xlink:href="#DejaVuSans-52"/>
     <use x="365.917969" xlink:href="#DejaVuSans-48"/>
     <use x="429.541016" xlink:href="#DejaVuSans-41"/>
    </g>
   </g>
   <g id="line2d_60">
    <path d="M 333.8625 91.489062 
L 353.8625 91.489062 
" style="fill:none;stroke:#66a61e;stroke-linecap:square;stroke-width:1.5;"/>
   </g>
   <g id="line2d_61"/>
   <g id="text_26">
    <!-- AS (38) -->
    <g transform="translate(361.8625 94.989062)scale(0.1 -0.1)">
     <use xlink:href="#DejaVuSans-65"/>
     <use x="68.408203" xlink:href="#DejaVuSans-83"/>
     <use x="131.884766" xlink:href="#DejaVuSans-32"/>
     <use x="163.671875" xlink:href="#DejaVuSans-40"/>
     <use x="202.685547" xlink:href="#DejaVuSans-51"/>
     <use x="266.308594" xlink:href="#DejaVuSans-56"/>
     <use x="329.931641" xlink:href="#DejaVuSans-41"/>
    </g>
   </g>
   <g id="line2d_62">
    <path d="M 333.8625 106.167188 
L 353.8625 106.167188 
" style="fill:none;stroke:#e6ab02;stroke-linecap:square;stroke-width:1.5;"/>
   </g>
   <g id="line2d_63"/>
   <g id="text_27">
    <!-- MD (38) -->
    <g transform="translate(361.8625 109.667188)scale(0.1 -0.1)">
     <use xlink:href="#DejaVuSans-77"/>
     <use x="86.279297" xlink:href="#DejaVuSans-68"/>
     <use x="163.28125" xlink:href="#DejaVuSans-32"/>
     <use x="195.068359" xlink:href="#DejaVuSans-40"/>
     <use x="234.082031" xlink:href="#DejaVuSans-51"/>
     <use x="297.705078" xlink:href="#DejaVuSans-56"/>
     <use x="361.328125" xlink:href="#DejaVuSans-41"/>
    </g>
   </g>
   <g id="line2d_64">
    <path d="M 333.8625 120.845312 
L 353.8625 120.845312 
" style="fill:none;stroke:#a6761d;stroke-linecap:square;stroke-width:1.5;"/>
   </g>
   <g id="line2d_65"/>
   <g id="text_28">
    <!-- HPI (38) -->
    <defs>
     <path d="M 9.8125 72.90625 
L 19.671875 72.90625 
L 19.671875 43.015625 
L 55.515625 43.015625 
L 55.515625 72.90625 
L 65.375 72.90625 
L 65.375 0 
L 55.515625 0 
L 55.515625 34.71875 
L 19.671875 34.71875 
L 19.671875 0 
L 9.8125 0 
z
" id="DejaVuSans-72"/>
     <path d="M 19.671875 64.796875 
L 19.671875 37.40625 
L 32.078125 37.40625 
Q 38.96875 37.40625 42.71875 40.96875 
Q 46.484375 44.53125 46.484375 51.125 
Q 46.484375 57.671875 42.71875 61.234375 
Q 38.96875 64.796875 32.078125 64.796875 
z
M 9.8125 72.90625 
L 32.078125 72.90625 
Q 44.34375 72.90625 50.609375 67.359375 
Q 56.890625 61.8125 56.890625 51.125 
Q 56.890625 40.328125 50.609375 34.8125 
Q 44.34375 29.296875 32.078125 29.296875 
L 19.671875 29.296875 
L 19.671875 0 
L 9.8125 0 
z
" id="DejaVuSans-80"/>
     <path d="M 9.8125 72.90625 
L 19.671875 72.90625 
L 19.671875 0 
L 9.8125 0 
z
" id="DejaVuSans-73"/>
    </defs>
    <g transform="translate(361.8625 124.345312)scale(0.1 -0.1)">
     <use xlink:href="#DejaVuSans-72"/>
     <use x="75.195312" xlink:href="#DejaVuSans-80"/>
     <use x="135.498047" xlink:href="#DejaVuSans-73"/>
     <use x="164.990234" xlink:href="#DejaVuSans-32"/>
     <use x="196.777344" xlink:href="#DejaVuSans-40"/>
     <use x="235.791016" xlink:href="#DejaVuSans-51"/>
     <use x="299.414062" xlink:href="#DejaVuSans-56"/>
     <use x="363.037109" xlink:href="#DejaVuSans-41"/>
    </g>
   </g>
   <g id="line2d_66">
    <path d="M 333.8625 135.523438 
L 353.8625 135.523438 
" style="fill:none;stroke:#666666;stroke-linecap:square;stroke-width:1.5;"/>
   </g>
   <g id="line2d_67"/>
   <g id="text_29">
    <!-- FIT (29) -->
    <defs>
     <path d="M 9.8125 72.90625 
L 51.703125 72.90625 
L 51.703125 64.59375 
L 19.671875 64.59375 
L 19.671875 43.109375 
L 48.578125 43.109375 
L 48.578125 34.8125 
L 19.671875 34.8125 
L 19.671875 0 
L 9.8125 0 
z
" id="DejaVuSans-70"/>
     <path d="M -0.296875 72.90625 
L 61.375 72.90625 
L 61.375 64.59375 
L 35.5 64.59375 
L 35.5 0 
L 25.59375 0 
L 25.59375 64.59375 
L -0.296875 64.59375 
z
" id="DejaVuSans-84"/>
    </defs>
    <g transform="translate(361.8625 139.023438)scale(0.1 -0.1)">
     <use xlink:href="#DejaVuSans-70"/>
     <use x="57.519531" xlink:href="#DejaVuSans-73"/>
     <use x="87.011719" xlink:href="#DejaVuSans-84"/>
     <use x="148.095703" xlink:href="#DejaVuSans-32"/>
     <use x="179.882812" xlink:href="#DejaVuSans-40"/>
     <use x="218.896484" xlink:href="#DejaVuSans-50"/>
     <use x="282.519531" xlink:href="#DejaVuSans-57"/>
     <use x="346.142578" xlink:href="#DejaVuSans-41"/>
    </g>
   </g>
   <g id="line2d_68">
    <path d="M 333.8625 150.201562 
L 353.8625 150.201562 
" style="fill:none;stroke:#1b9e77;stroke-dasharray:4.5,1.5;stroke-dashoffset:0;stroke-width:1.5;"/>
   </g>
   <g id="line2d_69"/>
   <g id="text_30">
    <!-- SPD (28) -->
    <g transform="translate(361.8625 153.701562)scale(0.1 -0.1)">
     <use xlink:href="#DejaVuSans-83"/>
     <use x="63.476562" xlink:href="#DejaVuSans-80"/>
     <use x="123.779297" xlink:href="#DejaVuSans-68"/>
     <use x="200.78125" xlink:href="#DejaVuSans-32"/>
     <use x="232.568359" xlink:href="#DejaVuSans-40"/>
     <use x="271.582031" xlink:href="#DejaVuSans-50"/>
     <use x="335.205078" xlink:href="#DejaVuSans-56"/>
     <use x="398.828125" xlink:href="#DejaVuSans-41"/>
    </g>
   </g>
   <g id="line2d_70">
    <path d="M 333.8625 164.879687 
L 353.8625 164.879687 
" style="fill:none;stroke:#d95f02;stroke-dasharray:4.5,1.5;stroke-dashoffset:0;stroke-width:1.5;"/>
   </g>
   <g id="line2d_71"/>
   <g id="text_31">
    <!-- TBI (27) -->
    <defs>
     <path d="M 19.671875 34.8125 
L 19.671875 8.109375 
L 35.5 8.109375 
Q 43.453125 8.109375 47.28125 11.40625 
Q 51.125 14.703125 51.125 21.484375 
Q 51.125 28.328125 47.28125 31.5625 
Q 43.453125 34.8125 35.5 34.8125 
z
M 19.671875 64.796875 
L 19.671875 42.828125 
L 34.28125 42.828125 
Q 41.5 42.828125 45.03125 45.53125 
Q 48.578125 48.25 48.578125 53.8125 
Q 48.578125 59.328125 45.03125 62.0625 
Q 41.5 64.796875 34.28125 64.796875 
z
M 9.8125 72.90625 
L 35.015625 72.90625 
Q 46.296875 72.90625 52.390625 68.21875 
Q 58.5 63.53125 58.5 54.890625 
Q 58.5 48.1875 55.375 44.234375 
Q 52.25 40.28125 46.1875 39.3125 
Q 53.46875 37.75 57.5 32.78125 
Q 61.53125 27.828125 61.53125 20.40625 
Q 61.53125 10.640625 54.890625 5.3125 
Q 48.25 0 35.984375 0 
L 9.8125 0 
z
" id="DejaVuSans-66"/>
     <path d="M 8.203125 72.90625 
L 55.078125 72.90625 
L 55.078125 68.703125 
L 28.609375 0 
L 18.3125 0 
L 43.21875 64.59375 
L 8.203125 64.59375 
z
" id="DejaVuSans-55"/>
    </defs>
    <g transform="translate(361.8625 168.379687)scale(0.1 -0.1)">
     <use xlink:href="#DejaVuSans-84"/>
     <use x="61.083984" xlink:href="#DejaVuSans-66"/>
     <use x="129.6875" xlink:href="#DejaVuSans-73"/>
     <use x="159.179688" xlink:href="#DejaVuSans-32"/>
     <use x="190.966797" xlink:href="#DejaVuSans-40"/>
     <use x="229.980469" xlink:href="#DejaVuSans-50"/>
     <use x="293.603516" xlink:href="#DejaVuSans-55"/>
     <use x="357.226562" xlink:href="#DejaVuSans-41"/>
    </g>
   </g>
   <g id="line2d_72">
    <path d="M 333.8625 179.557812 
L 353.8625 179.557812 
" style="fill:none;stroke:#7570b3;stroke-dasharray:4.5,1.5;stroke-dashoffset:0;stroke-width:1.5;"/>
   </g>
   <g id="line2d_73"/>
   <g id="text_32">
    <!-- BP (26) -->
    <g transform="translate(361.8625 183.057812)scale(0.1 -0.1)">
     <use xlink:href="#DejaVuSans-66"/>
     <use x="68.603516" xlink:href="#DejaVuSans-80"/>
     <use x="128.90625" xlink:href="#DejaVuSans-32"/>
     <use x="160.693359" xlink:href="#DejaVuSans-40"/>
     <use x="199.707031" xlink:href="#DejaVuSans-50"/>
     <use x="263.330078" xlink:href="#DejaVuSans-54"/>
     <use x="326.953125" xlink:href="#DejaVuSans-41"/>
    </g>
   </g>
   <g id="line2d_74">
    <path d="M 333.8625 194.235937 
L 353.8625 194.235937 
" style="fill:none;stroke:#e7298a;stroke-dasharray:4.5,1.5;stroke-dashoffset:0;stroke-width:1.5;"/>
   </g>
   <g id="line2d_75"/>
   <g id="text_33">
    <!-- CC (25) -->
    <g transform="translate(361.8625 197.735937)scale(0.1 -0.1)">
     <use xlink:href="#DejaVuSans-67"/>
     <use x="69.824219" xlink:href="#DejaVuSans-67"/>
     <use x="139.648438" xlink:href="#DejaVuSans-32"/>
     <use x="171.435547" xlink:href="#DejaVuSans-40"/>
     <use x="210.449219" xlink:href="#DejaVuSans-50"/>
     <use x="274.072266" xlink:href="#DejaVuSans-53"/>
     <use x="337.695312" xlink:href="#DejaVuSans-41"/>
    </g>
   </g>
   <g id="line2d_76">
    <path d="M 333.8625 208.914062 
L 353.8625 208.914062 
" style="fill:none;stroke:#66a61e;stroke-dasharray:4.5,1.5;stroke-dashoffset:0;stroke-width:1.5;"/>
   </g>
   <g id="line2d_77"/>
   <g id="text_34">
    <!-- CB (22) -->
    <g transform="translate(361.8625 212.414062)scale(0.1 -0.1)">
     <use xlink:href="#DejaVuSans-67"/>
     <use x="69.824219" xlink:href="#DejaVuSans-66"/>
     <use x="138.427734" xlink:href="#DejaVuSans-32"/>
     <use x="170.214844" xlink:href="#DejaVuSans-40"/>
     <use x="209.228516" xlink:href="#DejaVuSans-50"/>
     <use x="272.851562" xlink:href="#DejaVuSans-50"/>
     <use x="336.474609" xlink:href="#DejaVuSans-41"/>
    </g>
   </g>
   <g id="line2d_78">
    <path d="M 333.8625 223.592187 
L 353.8625 223.592187 
" style="fill:none;stroke:#e6ab02;stroke-dasharray:4.5,1.5;stroke-dashoffset:0;stroke-width:1.5;"/>
   </g>
   <g id="line2d_79"/>
   <g id="text_35">
    <!-- RJPH (20) -->
    <defs>
     <path d="M 9.8125 72.90625 
L 19.671875 72.90625 
L 19.671875 5.078125 
Q 19.671875 -8.109375 14.671875 -14.0625 
Q 9.671875 -20.015625 -1.421875 -20.015625 
L -5.171875 -20.015625 
L -5.171875 -11.71875 
L -2.09375 -11.71875 
Q 4.4375 -11.71875 7.125 -8.046875 
Q 9.8125 -4.390625 9.8125 5.078125 
z
" id="DejaVuSans-74"/>
    </defs>
    <g transform="translate(361.8625 227.092187)scale(0.1 -0.1)">
     <use xlink:href="#DejaVuSans-82"/>
     <use x="69.482422" xlink:href="#DejaVuSans-74"/>
     <use x="98.974609" xlink:href="#DejaVuSans-80"/>
     <use x="159.277344" xlink:href="#DejaVuSans-72"/>
     <use x="234.472656" xlink:href="#DejaVuSans-32"/>
     <use x="266.259766" xlink:href="#DejaVuSans-40"/>
     <use x="305.273438" xlink:href="#DejaVuSans-50"/>
     <use x="368.896484" xlink:href="#DejaVuSans-48"/>
     <use x="432.519531" xlink:href="#DejaVuSans-41"/>
    </g>
   </g>
   <g id="line2d_80">
    <path d="M 333.8625 238.270312 
L 353.8625 238.270312 
" style="fill:none;stroke:#a6761d;stroke-dasharray:4.5,1.5;stroke-dashoffset:0;stroke-width:1.5;"/>
   </g>
   <g id="line2d_81"/>
   <g id="text_36">
    <!-- AHR-H (20) -->
    <g transform="translate(361.8625 241.770312)scale(0.1 -0.1)">
     <use xlink:href="#DejaVuSans-65"/>
     <use x="68.408203" xlink:href="#DejaVuSans-72"/>
     <use x="143.603516" xlink:href="#DejaVuSans-82"/>
     <use x="213.023438" xlink:href="#DejaVuSans-45"/>
     <use x="249.107422" xlink:href="#DejaVuSans-72"/>
     <use x="324.302734" xlink:href="#DejaVuSans-32"/>
     <use x="356.089844" xlink:href="#DejaVuSans-40"/>
     <use x="395.103516" xlink:href="#DejaVuSans-50"/>
     <use x="458.726562" xlink:href="#DejaVuSans-48"/>
     <use x="522.349609" xlink:href="#DejaVuSans-41"/>
    </g>
   </g>
   <g id="line2d_82">
    <path d="M 333.8625 252.948437 
L 353.8625 252.948437 
" style="fill:none;stroke:#666666;stroke-dasharray:4.5,1.5;stroke-dashoffset:0;stroke-width:1.5;"/>
   </g>
   <g id="line2d_83"/>
   <g id="text_37">
    <!-- AHR-A (15) -->
    <g transform="translate(361.8625 256.448437)scale(0.1 -0.1)">
     <use xlink:href="#DejaVuSans-65"/>
     <use x="68.408203" xlink:href="#DejaVuSans-72"/>
     <use x="143.603516" xlink:href="#DejaVuSans-82"/>
     <use x="213.023438" xlink:href="#DejaVuSans-45"/>
     <use x="249.076172" xlink:href="#DejaVuSans-65"/>
     <use x="317.484375" xlink:href="#DejaVuSans-32"/>
     <use x="349.271484" xlink:href="#DejaVuSans-40"/>
     <use x="388.285156" xlink:href="#DejaVuSans-49"/>
     <use x="451.908203" xlink:href="#DejaVuSans-53"/>
     <use x="515.53125" xlink:href="#DejaVuSans-41"/>
    </g>
   </g>
  </g>
 </g>
 <defs>
  <clipPath id="p75d23dbca1">
   <rect height="207.330771" width="271.81" x="43.55" y="12.9"/>
  </clipPath>
 </defs>
</svg>
