<?xml version="1.0" encoding="utf-8" standalone="no"?>
<!DOCTYPE svg PUBLIC "-//W3C//DTD SVG 1.1//EN"
  "http://www.w3.org/Graphics/SVG/1.1/DTD/svg11.dtd">
<!-- Created with matplotlib (https://matplotlib.org/) -->
<svg height="288pt" version="1.1" viewBox="0 0 432 288" width="432pt" xmlns="http://www.w3.org/2000/svg" xmlns:xlink="http://www.w3.org/1999/xlink">
 <defs>
  <style type="text/css">
*{stroke-linecap:butt;stroke-linejoin:round;}
  </style>
 </defs>
 <g id="figure_1">
  <g id="patch_1">
   <path d="M 0 288 
L 432 288 
L 432 0 
L 0 0 
z
" style="fill:#ffffff;"/>
  </g>
  <g id="axes_1">
   <g id="patch_2">
    <path d="M 43.55 220.230771 
L 315.36 220.230771 
L 315.36 12.9 
L 43.55 12.9 
z
" style="fill:#ffffff;"/>
   </g>
   <g id="matplotlib.axis_1">
    <g id="xtick_1">
     <g id="line2d_1">
      <defs>
       <path d="M 0 0 
L 0 3.5 
" id="m89c6726fb8" style="stroke:#000000;stroke-width:0.8;"/>
      </defs>
      <g>
       <use style="stroke:#000000;stroke-width:0.8;" x="61.02205" xlink:href="#m89c6726fb8" y="220.230771"/>
      </g>
     </g>
     <g id="text_1">
      <!-- 2020-12-01 -->
      <defs>
       <path d="M 19.1875 8.296875 
L 53.609375 8.296875 
L 53.609375 0 
L 7.328125 0 
L 7.328125 8.296875 
Q 12.9375 14.109375 22.625 23.890625 
Q 32.328125 33.6875 34.8125 36.53125 
Q 39.546875 41.84375 41.421875 45.53125 
Q 43.3125 49.21875 43.3125 52.78125 
Q 43.3125 58.59375 39.234375 62.25 
Q 35.15625 65.921875 28.609375 65.921875 
Q 23.96875 65.921875 18.8125 64.3125 
Q 13.671875 62.703125 7.8125 59.421875 
L 7.8125 69.390625 
Q 13.765625 71.78125 18.9375 73 
Q 24.125 74.21875 28.421875 74.21875 
Q 39.75 74.21875 46.484375 68.546875 
Q 53.21875 62.890625 53.21875 53.421875 
Q 53.21875 48.921875 51.53125 44.890625 
Q 49.859375 40.875 45.40625 35.40625 
Q 44.1875 33.984375 37.640625 27.21875 
Q 31.109375 20.453125 19.1875 8.296875 
z
" id="DejaVuSans-50"/>
       <path d="M 31.78125 66.40625 
Q 24.171875 66.40625 20.328125 58.90625 
Q 16.5 51.421875 16.5 36.375 
Q 16.5 21.390625 20.328125 13.890625 
Q 24.171875 6.390625 31.78125 6.390625 
Q 39.453125 6.390625 43.28125 13.890625 
Q 47.125 21.390625 47.125 36.375 
Q 47.125 51.421875 43.28125 58.90625 
Q 39.453125 66.40625 31.78125 66.40625 
z
M 31.78125 74.21875 
Q 44.046875 74.21875 50.515625 64.515625 
Q 56.984375 54.828125 56.984375 36.375 
Q 56.984375 17.96875 50.515625 8.265625 
Q 44.046875 -1.421875 31.78125 -1.421875 
Q 19.53125 -1.421875 13.0625 8.265625 
Q 6.59375 17.96875 6.59375 36.375 
Q 6.59375 54.828125 13.0625 64.515625 
Q 19.53125 74.21875 31.78125 74.21875 
z
" id="DejaVuSans-48"/>
       <path d="M 4.890625 31.390625 
L 31.203125 31.390625 
L 31.203125 23.390625 
L 4.890625 23.390625 
z
" id="DejaVuSans-45"/>
       <path d="M 12.40625 8.296875 
L 28.515625 8.296875 
L 28.515625 63.921875 
L 10.984375 60.40625 
L 10.984375 69.390625 
L 28.421875 72.90625 
L 38.28125 72.90625 
L 38.28125 8.296875 
L 54.390625 8.296875 
L 54.390625 0 
L 12.40625 0 
z
" id="DejaVuSans-49"/>
      </defs>
      <g transform="translate(37.236933 262.869024)rotate(-30)scale(0.1 -0.1)">
       <use xlink:href="#DejaVuSans-50"/>
       <use x="63.623047" xlink:href="#DejaVuSans-48"/>
       <use x="127.246094" xlink:href="#DejaVuSans-50"/>
       <use x="190.869141" xlink:href="#DejaVuSans-48"/>
       <use x="254.492188" xlink:href="#DejaVuSans-45"/>
       <use x="290.576172" xlink:href="#DejaVuSans-49"/>
       <use x="354.199219" xlink:href="#DejaVuSans-50"/>
       <use x="417.822266" xlink:href="#DejaVuSans-45"/>
       <use x="453.90625" xlink:href="#DejaVuSans-48"/>
       <use x="517.529297" xlink:href="#DejaVuSans-49"/>
      </g>
     </g>
    </g>
    <g id="xtick_2">
     <g id="line2d_2">
      <g>
       <use style="stroke:#000000;stroke-width:0.8;" x="98.116332" xlink:href="#m89c6726fb8" y="220.230771"/>
      </g>
     </g>
     <g id="text_2">
      <!-- 2020-12-05 -->
      <defs>
       <path d="M 10.796875 72.90625 
L 49.515625 72.90625 
L 49.515625 64.59375 
L 19.828125 64.59375 
L 19.828125 46.734375 
Q 21.96875 47.46875 24.109375 47.828125 
Q 26.265625 48.1875 28.421875 48.1875 
Q 40.625 48.1875 47.75 41.5 
Q 54.890625 34.8125 54.890625 23.390625 
Q 54.890625 11.625 47.5625 5.09375 
Q 40.234375 -1.421875 26.90625 -1.421875 
Q 22.3125 -1.421875 17.546875 -0.640625 
Q 12.796875 0.140625 7.71875 1.703125 
L 7.71875 11.625 
Q 12.109375 9.234375 16.796875 8.0625 
Q 21.484375 6.890625 26.703125 6.890625 
Q 35.15625 6.890625 40.078125 11.328125 
Q 45.015625 15.765625 45.015625 23.390625 
Q 45.015625 31 40.078125 35.4375 
Q 35.15625 39.890625 26.703125 39.890625 
Q 22.75 39.890625 18.8125 39.015625 
Q 14.890625 38.140625 10.796875 36.28125 
z
" id="DejaVuSans-53"/>
      </defs>
      <g transform="translate(74.331215 262.869024)rotate(-30)scale(0.1 -0.1)">
       <use xlink:href="#DejaVuSans-50"/>
       <use x="63.623047" xlink:href="#DejaVuSans-48"/>
       <use x="127.246094" xlink:href="#DejaVuSans-50"/>
       <use x="190.869141" xlink:href="#DejaVuSans-48"/>
       <use x="254.492188" xlink:href="#DejaVuSans-45"/>
       <use x="290.576172" xlink:href="#DejaVuSans-49"/>
       <use x="354.199219" xlink:href="#DejaVuSans-50"/>
       <use x="417.822266" xlink:href="#DejaVuSans-45"/>
       <use x="453.90625" xlink:href="#DejaVuSans-48"/>
       <use x="517.529297" xlink:href="#DejaVuSans-53"/>
      </g>
     </g>
    </g>
    <g id="xtick_3">
     <g id="line2d_3">
      <g>
       <use style="stroke:#000000;stroke-width:0.8;" x="135.210613" xlink:href="#m89c6726fb8" y="220.230771"/>
      </g>
     </g>
     <g id="text_3">
      <!-- 2020-12-09 -->
      <defs>
       <path d="M 10.984375 1.515625 
L 10.984375 10.5 
Q 14.703125 8.734375 18.5 7.8125 
Q 22.3125 6.890625 25.984375 6.890625 
Q 35.75 6.890625 40.890625 13.453125 
Q 46.046875 20.015625 46.78125 33.40625 
Q 43.953125 29.203125 39.59375 26.953125 
Q 35.25 24.703125 29.984375 24.703125 
Q 19.046875 24.703125 12.671875 31.3125 
Q 6.296875 37.9375 6.296875 49.421875 
Q 6.296875 60.640625 12.9375 67.421875 
Q 19.578125 74.21875 30.609375 74.21875 
Q 43.265625 74.21875 49.921875 64.515625 
Q 56.59375 54.828125 56.59375 36.375 
Q 56.59375 19.140625 48.40625 8.859375 
Q 40.234375 -1.421875 26.421875 -1.421875 
Q 22.703125 -1.421875 18.890625 -0.6875 
Q 15.09375 0.046875 10.984375 1.515625 
z
M 30.609375 32.421875 
Q 37.25 32.421875 41.125 36.953125 
Q 45.015625 41.5 45.015625 49.421875 
Q 45.015625 57.28125 41.125 61.84375 
Q 37.25 66.40625 30.609375 66.40625 
Q 23.96875 66.40625 20.09375 61.84375 
Q 16.21875 57.28125 16.21875 49.421875 
Q 16.21875 41.5 20.09375 36.953125 
Q 23.96875 32.421875 30.609375 32.421875 
z
" id="DejaVuSans-57"/>
      </defs>
      <g transform="translate(111.425497 262.869024)rotate(-30)scale(0.1 -0.1)">
       <use xlink:href="#DejaVuSans-50"/>
       <use x="63.623047" xlink:href="#DejaVuSans-48"/>
       <use x="127.246094" xlink:href="#DejaVuSans-50"/>
       <use x="190.869141" xlink:href="#DejaVuSans-48"/>
       <use x="254.492188" xlink:href="#DejaVuSans-45"/>
       <use x="290.576172" xlink:href="#DejaVuSans-49"/>
       <use x="354.199219" xlink:href="#DejaVuSans-50"/>
       <use x="417.822266" xlink:href="#DejaVuSans-45"/>
       <use x="453.90625" xlink:href="#DejaVuSans-48"/>
       <use x="517.529297" xlink:href="#DejaVuSans-57"/>
      </g>
     </g>
    </g>
    <g id="xtick_4">
     <g id="line2d_4">
      <g>
       <use style="stroke:#000000;stroke-width:0.8;" x="172.304895" xlink:href="#m89c6726fb8" y="220.230771"/>
      </g>
     </g>
     <g id="text_4">
      <!-- 2020-12-13 -->
      <defs>
       <path d="M 40.578125 39.3125 
Q 47.65625 37.796875 51.625 33 
Q 55.609375 28.21875 55.609375 21.1875 
Q 55.609375 10.40625 48.1875 4.484375 
Q 40.765625 -1.421875 27.09375 -1.421875 
Q 22.515625 -1.421875 17.65625 -0.515625 
Q 12.796875 0.390625 7.625 2.203125 
L 7.625 11.71875 
Q 11.71875 9.328125 16.59375 8.109375 
Q 21.484375 6.890625 26.8125 6.890625 
Q 36.078125 6.890625 40.9375 10.546875 
Q 45.796875 14.203125 45.796875 21.1875 
Q 45.796875 27.640625 41.28125 31.265625 
Q 36.765625 34.90625 28.71875 34.90625 
L 20.21875 34.90625 
L 20.21875 43.015625 
L 29.109375 43.015625 
Q 36.375 43.015625 40.234375 45.921875 
Q 44.09375 48.828125 44.09375 54.296875 
Q 44.09375 59.90625 40.109375 62.90625 
Q 36.140625 65.921875 28.71875 65.921875 
Q 24.65625 65.921875 20.015625 65.03125 
Q 15.375 64.15625 9.8125 62.3125 
L 9.8125 71.09375 
Q 15.4375 72.65625 20.34375 73.4375 
Q 25.25 74.21875 29.59375 74.21875 
Q 40.828125 74.21875 47.359375 69.109375 
Q 53.90625 64.015625 53.90625 55.328125 
Q 53.90625 49.265625 50.4375 45.09375 
Q 46.96875 40.921875 40.578125 39.3125 
z
" id="DejaVuSans-51"/>
      </defs>
      <g transform="translate(148.519779 262.869024)rotate(-30)scale(0.1 -0.1)">
       <use xlink:href="#DejaVuSans-50"/>
       <use x="63.623047" xlink:href="#DejaVuSans-48"/>
       <use x="127.246094" xlink:href="#DejaVuSans-50"/>
       <use x="190.869141" xlink:href="#DejaVuSans-48"/>
       <use x="254.492188" xlink:href="#DejaVuSans-45"/>
       <use x="290.576172" xlink:href="#DejaVuSans-49"/>
       <use x="354.199219" xlink:href="#DejaVuSans-50"/>
       <use x="417.822266" xlink:href="#DejaVuSans-45"/>
       <use x="453.90625" xlink:href="#DejaVuSans-49"/>
       <use x="517.529297" xlink:href="#DejaVuSans-51"/>
      </g>
     </g>
    </g>
    <g id="xtick_5">
     <g id="line2d_5">
      <g>
       <use style="stroke:#000000;stroke-width:0.8;" x="209.399177" xlink:href="#m89c6726fb8" y="220.230771"/>
      </g>
     </g>
     <g id="text_5">
      <!-- 2020-12-17 -->
      <defs>
       <path d="M 8.203125 72.90625 
L 55.078125 72.90625 
L 55.078125 68.703125 
L 28.609375 0 
L 18.3125 0 
L 43.21875 64.59375 
L 8.203125 64.59375 
z
" id="DejaVuSans-55"/>
      </defs>
      <g transform="translate(185.614061 262.869024)rotate(-30)scale(0.1 -0.1)">
       <use xlink:href="#DejaVuSans-50"/>
       <use x="63.623047" xlink:href="#DejaVuSans-48"/>
       <use x="127.246094" xlink:href="#DejaVuSans-50"/>
       <use x="190.869141" xlink:href="#DejaVuSans-48"/>
       <use x="254.492188" xlink:href="#DejaVuSans-45"/>
       <use x="290.576172" xlink:href="#DejaVuSans-49"/>
       <use x="354.199219" xlink:href="#DejaVuSans-50"/>
       <use x="417.822266" xlink:href="#DejaVuSans-45"/>
       <use x="453.90625" xlink:href="#DejaVuSans-49"/>
       <use x="517.529297" xlink:href="#DejaVuSans-55"/>
      </g>
     </g>
    </g>
    <g id="xtick_6">
     <g id="line2d_6">
      <g>
       <use style="stroke:#000000;stroke-width:0.8;" x="246.493459" xlink:href="#m89c6726fb8" y="220.230771"/>
      </g>
     </g>
     <g id="text_6">
      <!-- 2020-12-21 -->
      <g transform="translate(222.708343 262.869024)rotate(-30)scale(0.1 -0.1)">
       <use xlink:href="#DejaVuSans-50"/>
       <use x="63.623047" xlink:href="#DejaVuSans-48"/>
       <use x="127.246094" xlink:href="#DejaVuSans-50"/>
       <use x="190.869141" xlink:href="#DejaVuSans-48"/>
       <use x="254.492188" xlink:href="#DejaVuSans-45"/>
       <use x="290.576172" xlink:href="#DejaVuSans-49"/>
       <use x="354.199219" xlink:href="#DejaVuSans-50"/>
       <use x="417.822266" xlink:href="#DejaVuSans-45"/>
       <use x="453.90625" xlink:href="#DejaVuSans-50"/>
       <use x="517.529297" xlink:href="#DejaVuSans-49"/>
      </g>
     </g>
    </g>
    <g id="xtick_7">
     <g id="line2d_7">
      <g>
       <use style="stroke:#000000;stroke-width:0.8;" x="283.587741" xlink:href="#m89c6726fb8" y="220.230771"/>
      </g>
     </g>
     <g id="text_7">
      <!-- 2020-12-25 -->
      <g transform="translate(259.802625 262.869024)rotate(-30)scale(0.1 -0.1)">
       <use xlink:href="#DejaVuSans-50"/>
       <use x="63.623047" xlink:href="#DejaVuSans-48"/>
       <use x="127.246094" xlink:href="#DejaVuSans-50"/>
       <use x="190.869141" xlink:href="#DejaVuSans-48"/>
       <use x="254.492188" xlink:href="#DejaVuSans-45"/>
       <use x="290.576172" xlink:href="#DejaVuSans-49"/>
       <use x="354.199219" xlink:href="#DejaVuSans-50"/>
       <use x="417.822266" xlink:href="#DejaVuSans-45"/>
       <use x="453.90625" xlink:href="#DejaVuSans-50"/>
       <use x="517.529297" xlink:href="#DejaVuSans-53"/>
      </g>
     </g>
    </g>
    <g id="text_8">
     <!-- Date -->
     <defs>
      <path d="M 19.671875 64.796875 
L 19.671875 8.109375 
L 31.59375 8.109375 
Q 46.6875 8.109375 53.6875 14.9375 
Q 60.6875 21.78125 60.6875 36.53125 
Q 60.6875 51.171875 53.6875 57.984375 
Q 46.6875 64.796875 31.59375 64.796875 
z
M 9.8125 72.90625 
L 30.078125 72.90625 
Q 51.265625 72.90625 61.171875 64.09375 
Q 71.09375 55.28125 71.09375 36.53125 
Q 71.09375 17.671875 61.125 8.828125 
Q 51.171875 0 30.078125 0 
L 9.8125 0 
z
" id="DejaVuSans-68"/>
      <path d="M 34.28125 27.484375 
Q 23.390625 27.484375 19.1875 25 
Q 14.984375 22.515625 14.984375 16.5 
Q 14.984375 11.71875 18.140625 8.90625 
Q 21.296875 6.109375 26.703125 6.109375 
Q 34.1875 6.109375 38.703125 11.40625 
Q 43.21875 16.703125 43.21875 25.484375 
L 43.21875 27.484375 
z
M 52.203125 31.203125 
L 52.203125 0 
L 43.21875 0 
L 43.21875 8.296875 
Q 40.140625 3.328125 35.546875 0.953125 
Q 30.953125 -1.421875 24.3125 -1.421875 
Q 15.921875 -1.421875 10.953125 3.296875 
Q 6 8.015625 6 15.921875 
Q 6 25.140625 12.171875 29.828125 
Q 18.359375 34.515625 30.609375 34.515625 
L 43.21875 34.515625 
L 43.21875 35.40625 
Q 43.21875 41.609375 39.140625 45 
Q 35.0625 48.390625 27.6875 48.390625 
Q 23 48.390625 18.546875 47.265625 
Q 14.109375 46.140625 10.015625 43.890625 
L 10.015625 52.203125 
Q 14.9375 54.109375 19.578125 55.046875 
Q 24.21875 56 28.609375 56 
Q 40.484375 56 46.34375 49.84375 
Q 52.203125 43.703125 52.203125 31.203125 
z
" id="DejaVuSans-97"/>
      <path d="M 18.3125 70.21875 
L 18.3125 54.6875 
L 36.8125 54.6875 
L 36.8125 47.703125 
L 18.3125 47.703125 
L 18.3125 18.015625 
Q 18.3125 11.328125 20.140625 9.421875 
Q 21.96875 7.515625 27.59375 7.515625 
L 36.8125 7.515625 
L 36.8125 0 
L 27.59375 0 
Q 17.1875 0 13.234375 3.875 
Q 9.28125 7.765625 9.28125 18.015625 
L 9.28125 47.703125 
L 2.6875 47.703125 
L 2.6875 54.6875 
L 9.28125 54.6875 
L 9.28125 70.21875 
z
" id="DejaVuSans-116"/>
      <path d="M 56.203125 29.59375 
L 56.203125 25.203125 
L 14.890625 25.203125 
Q 15.484375 15.921875 20.484375 11.0625 
Q 25.484375 6.203125 34.421875 6.203125 
Q 39.59375 6.203125 44.453125 7.46875 
Q 49.3125 8.734375 54.109375 11.28125 
L 54.109375 2.78125 
Q 49.265625 0.734375 44.1875 -0.34375 
Q 39.109375 -1.421875 33.890625 -1.421875 
Q 20.796875 -1.421875 13.15625 6.1875 
Q 5.515625 13.8125 5.515625 26.8125 
Q 5.515625 40.234375 12.765625 48.109375 
Q 20.015625 56 32.328125 56 
Q 43.359375 56 49.78125 48.890625 
Q 56.203125 41.796875 56.203125 29.59375 
z
M 47.21875 32.234375 
Q 47.125 39.59375 43.09375 43.984375 
Q 39.0625 48.390625 32.421875 48.390625 
Q 24.90625 48.390625 20.390625 44.140625 
Q 15.875 39.890625 15.1875 32.171875 
z
" id="DejaVuSans-101"/>
     </defs>
     <g transform="translate(167.504219 276.268523)scale(0.1 -0.1)">
      <use xlink:href="#DejaVuSans-68"/>
      <use x="77.001953" xlink:href="#DejaVuSans-97"/>
      <use x="138.28125" xlink:href="#DejaVuSans-116"/>
      <use x="177.490234" xlink:href="#DejaVuSans-101"/>
     </g>
    </g>
   </g>
   <g id="matplotlib.axis_2">
    <g id="ytick_1">
     <g id="line2d_8">
      <defs>
       <path d="M 0 0 
L -3.5 0 
" id="m05c8689e28" style="stroke:#000000;stroke-width:0.8;"/>
      </defs>
      <g>
       <use style="stroke:#000000;stroke-width:0.8;" x="43.55" xlink:href="#m05c8689e28" y="210.806645"/>
      </g>
     </g>
     <g id="text_9">
      <!-- 0 -->
      <g transform="translate(30.1875 214.605864)scale(0.1 -0.1)">
       <use xlink:href="#DejaVuSans-48"/>
      </g>
     </g>
    </g>
    <g id="ytick_2">
     <g id="line2d_9">
      <g>
       <use style="stroke:#000000;stroke-width:0.8;" x="43.55" xlink:href="#m05c8689e28" y="187.24633"/>
      </g>
     </g>
     <g id="text_10">
      <!-- 5 -->
      <g transform="translate(30.1875 191.045549)scale(0.1 -0.1)">
       <use xlink:href="#DejaVuSans-53"/>
      </g>
     </g>
    </g>
    <g id="ytick_3">
     <g id="line2d_10">
      <g>
       <use style="stroke:#000000;stroke-width:0.8;" x="43.55" xlink:href="#m05c8689e28" y="163.686016"/>
      </g>
     </g>
     <g id="text_11">
      <!-- 10 -->
      <g transform="translate(23.825 167.485234)scale(0.1 -0.1)">
       <use xlink:href="#DejaVuSans-49"/>
       <use x="63.623047" xlink:href="#DejaVuSans-48"/>
      </g>
     </g>
    </g>
    <g id="ytick_4">
     <g id="line2d_11">
      <g>
       <use style="stroke:#000000;stroke-width:0.8;" x="43.55" xlink:href="#m05c8689e28" y="140.125701"/>
      </g>
     </g>
     <g id="text_12">
      <!-- 15 -->
      <g transform="translate(23.825 143.924919)scale(0.1 -0.1)">
       <use xlink:href="#DejaVuSans-49"/>
       <use x="63.623047" xlink:href="#DejaVuSans-53"/>
      </g>
     </g>
    </g>
    <g id="ytick_5">
     <g id="line2d_12">
      <g>
       <use style="stroke:#000000;stroke-width:0.8;" x="43.55" xlink:href="#m05c8689e28" y="116.565386"/>
      </g>
     </g>
     <g id="text_13">
      <!-- 20 -->
      <g transform="translate(23.825 120.364604)scale(0.1 -0.1)">
       <use xlink:href="#DejaVuSans-50"/>
       <use x="63.623047" xlink:href="#DejaVuSans-48"/>
      </g>
     </g>
    </g>
    <g id="ytick_6">
     <g id="line2d_13">
      <g>
       <use style="stroke:#000000;stroke-width:0.8;" x="43.55" xlink:href="#m05c8689e28" y="93.005071"/>
      </g>
     </g>
     <g id="text_14">
      <!-- 25 -->
      <g transform="translate(23.825 96.80429)scale(0.1 -0.1)">
       <use xlink:href="#DejaVuSans-50"/>
       <use x="63.623047" xlink:href="#DejaVuSans-53"/>
      </g>
     </g>
    </g>
    <g id="ytick_7">
     <g id="line2d_14">
      <g>
       <use style="stroke:#000000;stroke-width:0.8;" x="43.55" xlink:href="#m05c8689e28" y="69.444756"/>
      </g>
     </g>
     <g id="text_15">
      <!-- 30 -->
      <g transform="translate(23.825 73.243975)scale(0.1 -0.1)">
       <use xlink:href="#DejaVuSans-51"/>
       <use x="63.623047" xlink:href="#DejaVuSans-48"/>
      </g>
     </g>
    </g>
    <g id="ytick_8">
     <g id="line2d_15">
      <g>
       <use style="stroke:#000000;stroke-width:0.8;" x="43.55" xlink:href="#m05c8689e28" y="45.884441"/>
      </g>
     </g>
     <g id="text_16">
      <!-- 35 -->
      <g transform="translate(23.825 49.68366)scale(0.1 -0.1)">
       <use xlink:href="#DejaVuSans-51"/>
       <use x="63.623047" xlink:href="#DejaVuSans-53"/>
      </g>
     </g>
    </g>
    <g id="ytick_9">
     <g id="line2d_16">
      <g>
       <use style="stroke:#000000;stroke-width:0.8;" x="43.55" xlink:href="#m05c8689e28" y="22.324126"/>
      </g>
     </g>
     <g id="text_17">
      <!-- 40 -->
      <defs>
       <path d="M 37.796875 64.3125 
L 12.890625 25.390625 
L 37.796875 25.390625 
z
M 35.203125 72.90625 
L 47.609375 72.90625 
L 47.609375 25.390625 
L 58.015625 25.390625 
L 58.015625 17.1875 
L 47.609375 17.1875 
L 47.609375 0 
L 37.796875 0 
L 37.796875 17.1875 
L 4.890625 17.1875 
L 4.890625 26.703125 
z
" id="DejaVuSans-52"/>
      </defs>
      <g transform="translate(23.825 26.123345)scale(0.1 -0.1)">
       <use xlink:href="#DejaVuSans-52"/>
       <use x="63.623047" xlink:href="#DejaVuSans-48"/>
      </g>
     </g>
    </g>
    <g id="text_18">
     <!-- Students Registered -->
     <defs>
      <path d="M 53.515625 70.515625 
L 53.515625 60.890625 
Q 47.90625 63.578125 42.921875 64.890625 
Q 37.9375 66.21875 33.296875 66.21875 
Q 25.25 66.21875 20.875 63.09375 
Q 16.5 59.96875 16.5 54.203125 
Q 16.5 49.359375 19.40625 46.890625 
Q 22.3125 44.4375 30.421875 42.921875 
L 36.375 41.703125 
Q 47.40625 39.59375 52.65625 34.296875 
Q 57.90625 29 57.90625 20.125 
Q 57.90625 9.515625 50.796875 4.046875 
Q 43.703125 -1.421875 29.984375 -1.421875 
Q 24.8125 -1.421875 18.96875 -0.25 
Q 13.140625 0.921875 6.890625 3.21875 
L 6.890625 13.375 
Q 12.890625 10.015625 18.65625 8.296875 
Q 24.421875 6.59375 29.984375 6.59375 
Q 38.421875 6.59375 43.015625 9.90625 
Q 47.609375 13.234375 47.609375 19.390625 
Q 47.609375 24.75 44.3125 27.78125 
Q 41.015625 30.8125 33.5 32.328125 
L 27.484375 33.5 
Q 16.453125 35.6875 11.515625 40.375 
Q 6.59375 45.0625 6.59375 53.421875 
Q 6.59375 63.09375 13.40625 68.65625 
Q 20.21875 74.21875 32.171875 74.21875 
Q 37.3125 74.21875 42.625 73.28125 
Q 47.953125 72.359375 53.515625 70.515625 
z
" id="DejaVuSans-83"/>
      <path d="M 8.5 21.578125 
L 8.5 54.6875 
L 17.484375 54.6875 
L 17.484375 21.921875 
Q 17.484375 14.15625 20.5 10.265625 
Q 23.53125 6.390625 29.59375 6.390625 
Q 36.859375 6.390625 41.078125 11.03125 
Q 45.3125 15.671875 45.3125 23.6875 
L 45.3125 54.6875 
L 54.296875 54.6875 
L 54.296875 0 
L 45.3125 0 
L 45.3125 8.40625 
Q 42.046875 3.421875 37.71875 1 
Q 33.40625 -1.421875 27.6875 -1.421875 
Q 18.265625 -1.421875 13.375 4.4375 
Q 8.5 10.296875 8.5 21.578125 
z
M 31.109375 56 
z
" id="DejaVuSans-117"/>
      <path d="M 45.40625 46.390625 
L 45.40625 75.984375 
L 54.390625 75.984375 
L 54.390625 0 
L 45.40625 0 
L 45.40625 8.203125 
Q 42.578125 3.328125 38.25 0.953125 
Q 33.9375 -1.421875 27.875 -1.421875 
Q 17.96875 -1.421875 11.734375 6.484375 
Q 5.515625 14.40625 5.515625 27.296875 
Q 5.515625 40.1875 11.734375 48.09375 
Q 17.96875 56 27.875 56 
Q 33.9375 56 38.25 53.625 
Q 42.578125 51.265625 45.40625 46.390625 
z
M 14.796875 27.296875 
Q 14.796875 17.390625 18.875 11.75 
Q 22.953125 6.109375 30.078125 6.109375 
Q 37.203125 6.109375 41.296875 11.75 
Q 45.40625 17.390625 45.40625 27.296875 
Q 45.40625 37.203125 41.296875 42.84375 
Q 37.203125 48.484375 30.078125 48.484375 
Q 22.953125 48.484375 18.875 42.84375 
Q 14.796875 37.203125 14.796875 27.296875 
z
" id="DejaVuSans-100"/>
      <path d="M 54.890625 33.015625 
L 54.890625 0 
L 45.90625 0 
L 45.90625 32.71875 
Q 45.90625 40.484375 42.875 44.328125 
Q 39.84375 48.1875 33.796875 48.1875 
Q 26.515625 48.1875 22.3125 43.546875 
Q 18.109375 38.921875 18.109375 30.90625 
L 18.109375 0 
L 9.078125 0 
L 9.078125 54.6875 
L 18.109375 54.6875 
L 18.109375 46.1875 
Q 21.34375 51.125 25.703125 53.5625 
Q 30.078125 56 35.796875 56 
Q 45.21875 56 50.046875 50.171875 
Q 54.890625 44.34375 54.890625 33.015625 
z
" id="DejaVuSans-110"/>
      <path d="M 44.28125 53.078125 
L 44.28125 44.578125 
Q 40.484375 46.53125 36.375 47.5 
Q 32.28125 48.484375 27.875 48.484375 
Q 21.1875 48.484375 17.84375 46.4375 
Q 14.5 44.390625 14.5 40.28125 
Q 14.5 37.15625 16.890625 35.375 
Q 19.28125 33.59375 26.515625 31.984375 
L 29.59375 31.296875 
Q 39.15625 29.25 43.1875 25.515625 
Q 47.21875 21.78125 47.21875 15.09375 
Q 47.21875 7.46875 41.1875 3.015625 
Q 35.15625 -1.421875 24.609375 -1.421875 
Q 20.21875 -1.421875 15.453125 -0.5625 
Q 10.6875 0.296875 5.421875 2 
L 5.421875 11.28125 
Q 10.40625 8.6875 15.234375 7.390625 
Q 20.0625 6.109375 24.8125 6.109375 
Q 31.15625 6.109375 34.5625 8.28125 
Q 37.984375 10.453125 37.984375 14.40625 
Q 37.984375 18.0625 35.515625 20.015625 
Q 33.0625 21.96875 24.703125 23.78125 
L 21.578125 24.515625 
Q 13.234375 26.265625 9.515625 29.90625 
Q 5.8125 33.546875 5.8125 39.890625 
Q 5.8125 47.609375 11.28125 51.796875 
Q 16.75 56 26.8125 56 
Q 31.78125 56 36.171875 55.265625 
Q 40.578125 54.546875 44.28125 53.078125 
z
" id="DejaVuSans-115"/>
      <path id="DejaVuSans-32"/>
      <path d="M 44.390625 34.1875 
Q 47.5625 33.109375 50.5625 29.59375 
Q 53.5625 26.078125 56.59375 19.921875 
L 66.609375 0 
L 56 0 
L 46.6875 18.703125 
Q 43.0625 26.03125 39.671875 28.421875 
Q 36.28125 30.8125 30.421875 30.8125 
L 19.671875 30.8125 
L 19.671875 0 
L 9.8125 0 
L 9.8125 72.90625 
L 32.078125 72.90625 
Q 44.578125 72.90625 50.734375 67.671875 
Q 56.890625 62.453125 56.890625 51.90625 
Q 56.890625 45.015625 53.6875 40.46875 
Q 50.484375 35.9375 44.390625 34.1875 
z
M 19.671875 64.796875 
L 19.671875 38.921875 
L 32.078125 38.921875 
Q 39.203125 38.921875 42.84375 42.21875 
Q 46.484375 45.515625 46.484375 51.90625 
Q 46.484375 58.296875 42.84375 61.546875 
Q 39.203125 64.796875 32.078125 64.796875 
z
" id="DejaVuSans-82"/>
      <path d="M 45.40625 27.984375 
Q 45.40625 37.75 41.375 43.109375 
Q 37.359375 48.484375 30.078125 48.484375 
Q 22.859375 48.484375 18.828125 43.109375 
Q 14.796875 37.75 14.796875 27.984375 
Q 14.796875 18.265625 18.828125 12.890625 
Q 22.859375 7.515625 30.078125 7.515625 
Q 37.359375 7.515625 41.375 12.890625 
Q 45.40625 18.265625 45.40625 27.984375 
z
M 54.390625 6.78125 
Q 54.390625 -7.171875 48.1875 -13.984375 
Q 42 -20.796875 29.203125 -20.796875 
Q 24.46875 -20.796875 20.265625 -20.09375 
Q 16.0625 -19.390625 12.109375 -17.921875 
L 12.109375 -9.1875 
Q 16.0625 -11.328125 19.921875 -12.34375 
Q 23.78125 -13.375 27.78125 -13.375 
Q 36.625 -13.375 41.015625 -8.765625 
Q 45.40625 -4.15625 45.40625 5.171875 
L 45.40625 9.625 
Q 42.625 4.78125 38.28125 2.390625 
Q 33.9375 0 27.875 0 
Q 17.828125 0 11.671875 7.65625 
Q 5.515625 15.328125 5.515625 27.984375 
Q 5.515625 40.671875 11.671875 48.328125 
Q 17.828125 56 27.875 56 
Q 33.9375 56 38.28125 53.609375 
Q 42.625 51.21875 45.40625 46.390625 
L 45.40625 54.6875 
L 54.390625 54.6875 
z
" id="DejaVuSans-103"/>
      <path d="M 9.421875 54.6875 
L 18.40625 54.6875 
L 18.40625 0 
L 9.421875 0 
z
M 9.421875 75.984375 
L 18.40625 75.984375 
L 18.40625 64.59375 
L 9.421875 64.59375 
z
" id="DejaVuSans-105"/>
      <path d="M 41.109375 46.296875 
Q 39.59375 47.171875 37.8125 47.578125 
Q 36.03125 48 33.890625 48 
Q 26.265625 48 22.1875 43.046875 
Q 18.109375 38.09375 18.109375 28.8125 
L 18.109375 0 
L 9.078125 0 
L 9.078125 54.6875 
L 18.109375 54.6875 
L 18.109375 46.1875 
Q 20.953125 51.171875 25.484375 53.578125 
Q 30.03125 56 36.53125 56 
Q 37.453125 56 38.578125 55.875 
Q 39.703125 55.765625 41.0625 55.515625 
z
" id="DejaVuSans-114"/>
     </defs>
     <g transform="translate(17.745313 167.498979)rotate(-90)scale(0.1 -0.1)">
      <use xlink:href="#DejaVuSans-83"/>
      <use x="63.476562" xlink:href="#DejaVuSans-116"/>
      <use x="102.685547" xlink:href="#DejaVuSans-117"/>
      <use x="166.064453" xlink:href="#DejaVuSans-100"/>
      <use x="229.541016" xlink:href="#DejaVuSans-101"/>
      <use x="291.064453" xlink:href="#DejaVuSans-110"/>
      <use x="354.443359" xlink:href="#DejaVuSans-116"/>
      <use x="393.652344" xlink:href="#DejaVuSans-115"/>
      <use x="445.751953" xlink:href="#DejaVuSans-32"/>
      <use x="477.539062" xlink:href="#DejaVuSans-82"/>
      <use x="546.958984" xlink:href="#DejaVuSans-101"/>
      <use x="608.482422" xlink:href="#DejaVuSans-103"/>
      <use x="671.958984" xlink:href="#DejaVuSans-105"/>
      <use x="699.742188" xlink:href="#DejaVuSans-115"/>
      <use x="751.841797" xlink:href="#DejaVuSans-116"/>
      <use x="791.050781" xlink:href="#DejaVuSans-101"/>
      <use x="852.574219" xlink:href="#DejaVuSans-114"/>
      <use x="893.65625" xlink:href="#DejaVuSans-101"/>
      <use x="955.179688" xlink:href="#DejaVuSans-100"/>
     </g>
    </g>
   </g>
   <g id="line2d_17">
    <path clip-path="url(#p1b39805a70)" d="M 136.56381 196.670456 
L 138.495718 196.670456 
L 138.495718 182.534267 
L 138.592333 182.534267 
L 138.882127 182.534267 
L 138.882127 177.822204 
L 138.978755 177.822204 
L 139.268516 177.822204 
L 139.268516 158.973953 
L 139.365118 158.973953 
L 140.04135 158.973953 
L 140.04135 144.837764 
L 140.137944 144.837764 
L 140.814132 144.837764 
L 140.814132 116.565386 
L 140.910769 116.565386 
L 141.586924 116.565386 
L 141.586924 107.14126 
L 141.683524 107.14126 
L 141.973374 107.14126 
L 141.973374 102.429197 
L 142.06997 102.429197 
L 142.359739 102.429197 
L 142.359739 97.717134 
L 142.456361 97.717134 
L 143.1326 97.717134 
L 143.1326 93.005071 
L 143.229201 93.005071 
L 148.542097 93.005071 
L 148.542097 74.156819 
L 148.638724 74.156819 
L 149.314921 74.156819 
L 149.314921 69.444756 
L 149.411568 69.444756 
L 150.087778 69.444756 
L 150.087778 60.02063 
L 150.184295 60.02063 
L 150.474177 60.02063 
L 150.474177 55.308567 
L 150.570692 55.308567 
L 151.246986 55.308567 
L 151.246986 50.596504 
L 151.343496 50.596504 
L 159.361327 50.596504 
L 159.361327 45.884441 
L 159.457859 45.884441 
L 159.747659 45.884441 
L 159.747659 41.172378 
L 159.844309 41.172378 
L 160.134078 41.172378 
L 160.134078 36.460315 
L 160.230709 36.460315 
L 161.293328 36.460315 
L 161.293328 31.748252 
L 161.389837 31.748252 
L 186.02279 31.748252 
L 186.02279 22.324126 
L 186.119457 22.324126 
L 233.549846 22.324126 
L 233.549846 27.036189 
L 233.646451 27.036189 
L 235.868237 27.036189 
L 235.868237 22.324126 
L 235.964898 22.324126 
L 269.484975 22.324126 
L 269.484975 27.036189 
L 269.58153 27.036189 
L 272.576149 27.036189 
L 272.576149 22.324126 
L 272.672708 22.324126 
L 303.005 22.324126 
L 303.005 22.324126 
" style="fill:none;stroke:#1b9e77;stroke-linecap:square;stroke-width:1.5;"/>
   </g>
   <g id="line2d_18">
    <path clip-path="url(#p1b39805a70)" d="M 55.905 182.534267 
L 56.312118 182.534267 
L 56.312118 177.822204 
L 56.41823 177.822204 
L 58.31152 177.822204 
L 58.31152 173.110142 
L 64.493971 173.110142 
L 64.493971 168.398079 
L 65.080023 168.398079 
L 65.080023 163.686016 
L 65.17656 163.686016 
L 65.466399 163.686016 
L 65.466399 158.973953 
L 65.563045 158.973953 
L 66.625647 158.973953 
L 66.625647 144.837764 
L 66.722205 144.837764 
L 67.011963 144.837764 
L 67.011963 140.125701 
L 67.108632 140.125701 
L 74.739962 140.125701 
L 74.739962 130.701575 
L 74.836618 130.701575 
L 75.126359 130.701575 
L 75.126359 125.989512 
L 75.222918 125.989512 
L 75.512755 125.989512 
L 75.512755 130.701575 
L 75.609383 130.701575 
L 76.285615 130.701575 
L 76.285615 125.989512 
L 76.382189 125.989512 
L 76.671935 125.989512 
L 76.671935 116.565386 
L 76.768642 116.565386 
L 78.603977 116.565386 
L 78.603977 107.14126 
L 78.700544 107.14126 
L 82.854361 107.14126 
L 82.854361 102.429197 
L 82.950935 102.429197 
L 83.240752 102.429197 
L 83.240752 83.580945 
L 83.337337 83.580945 
L 83.627107 83.580945 
L 83.627107 74.156819 
L 83.723704 74.156819 
L 84.399946 74.156819 
L 84.399946 69.444756 
L 84.496553 69.444756 
L 84.786332 69.444756 
L 84.786332 64.732693 
L 84.882968 64.732693 
L 85.172742 64.732693 
L 85.172742 60.02063 
L 85.269352 60.02063 
L 85.559138 60.02063 
L 85.559138 45.884441 
L 85.65579 45.884441 
L 85.945527 45.884441 
L 85.945527 41.172378 
L 86.042163 41.172378 
L 86.331948 41.172378 
L 86.331948 36.460315 
L 86.428563 36.460315 
L 92.900674 36.460315 
L 92.900674 27.036189 
L 92.997276 27.036189 
L 93.287157 27.036189 
L 93.287157 22.324126 
L 93.383695 22.324126 
L 138.882127 22.324126 
L 138.882127 27.036189 
L 138.978755 27.036189 
L 139.268516 27.036189 
L 139.268516 22.324126 
L 139.365118 22.324126 
L 303.005 22.324126 
L 303.005 22.324126 
" style="fill:none;stroke:#d95f02;stroke-linecap:square;stroke-width:1.5;"/>
   </g>
   <g id="line2d_19">
    <path clip-path="url(#p1b39805a70)" d="M 55.905 201.382519 
L 66.239269 201.382519 
L 66.239269 196.670456 
L 66.335795 196.670456 
L 73.967218 196.670456 
L 73.967218 191.958393 
L 74.063825 191.958393 
L 74.353601 191.958393 
L 74.353601 187.24633 
L 74.450204 187.24633 
L 74.739962 187.24633 
L 74.739962 177.822204 
L 74.836618 177.822204 
L 75.126359 177.822204 
L 75.126359 173.110142 
L 75.222918 173.110142 
L 75.512755 173.110142 
L 75.512755 168.398079 
L 75.609383 168.398079 
L 75.899158 168.398079 
L 75.899158 163.686016 
L 75.995738 163.686016 
L 76.671935 163.686016 
L 76.671935 158.973953 
L 76.768642 158.973953 
L 83.240752 158.973953 
L 83.240752 149.549827 
L 83.337337 149.549827 
L 83.627107 149.549827 
L 83.627107 144.837764 
L 83.723704 144.837764 
L 85.172742 144.837764 
L 85.172742 140.125701 
L 85.269352 140.125701 
L 85.559138 140.125701 
L 85.559138 130.701575 
L 85.65579 130.701575 
L 120.721471 130.701575 
L 120.721471 125.989512 
L 120.817974 125.989512 
L 121.107832 125.989512 
L 121.107832 121.277449 
L 121.20438 121.277449 
L 121.494254 121.277449 
L 121.494254 116.565386 
L 121.590823 116.565386 
L 121.880611 116.565386 
L 121.880611 111.853323 
L 121.977205 111.853323 
L 122.26705 111.853323 
L 122.26705 102.429197 
L 122.363626 102.429197 
L 122.653454 102.429197 
L 122.653454 97.717134 
L 122.750039 97.717134 
L 129.608581 97.717134 
L 129.705187 83.580945 
L 129.705187 83.580945 
L 130.381397 83.580945 
L 130.381397 74.156819 
L 130.477983 74.156819 
L 131.540604 74.156819 
L 131.540604 69.444756 
L 131.637188 69.444756 
L 131.927005 69.444756 
L 131.927005 60.02063 
L 132.023611 60.02063 
L 132.3134 60.02063 
L 132.3134 36.460315 
L 132.409987 36.460315 
L 132.699741 36.460315 
L 132.699741 22.324126 
L 132.796432 22.324126 
L 138.495718 22.324126 
L 138.495718 27.036189 
L 138.592333 27.036189 
L 139.268516 27.036189 
L 139.268516 22.324126 
L 139.365118 22.324126 
L 232.777021 22.324126 
L 232.777021 27.036189 
L 232.87369 27.036189 
L 233.163501 27.036189 
L 233.163501 22.324126 
L 233.260116 22.324126 
L 250.165068 22.324126 
L 250.165068 27.036189 
L 250.261571 27.036189 
L 250.93776 27.036189 
L 250.93776 22.324126 
L 251.03436 22.324126 
L 251.710585 22.324126 
L 251.710585 27.036189 
L 251.807198 27.036189 
L 253.256262 27.036189 
L 253.256262 22.324126 
L 253.352804 22.324126 
L 303.005 22.324126 
L 303.005 22.324126 
" style="fill:none;stroke:#7570b3;stroke-linecap:square;stroke-width:1.5;"/>
   </g>
   <g id="line2d_20">
    <path clip-path="url(#p1b39805a70)" d="M 55.905 210.806645 
L 56.312118 210.806645 
L 56.312118 201.382519 
L 56.41823 201.382519 
L 58.124832 201.382519 
L 58.124832 196.670456 
L 58.234287 196.670456 
L 67.011963 196.670456 
L 67.011963 191.958393 
L 67.108632 191.958393 
L 74.353601 191.958393 
L 74.353601 177.822204 
L 74.450204 177.822204 
L 74.739962 177.822204 
L 74.739962 173.110142 
L 74.836618 173.110142 
L 75.126359 173.110142 
L 75.126359 154.26189 
L 75.222918 154.26189 
L 75.512755 154.26189 
L 75.512755 149.549827 
L 75.609383 149.549827 
L 75.899158 149.549827 
L 75.899158 140.125701 
L 75.995738 140.125701 
L 76.285615 140.125701 
L 76.285615 125.989512 
L 76.382189 125.989512 
L 83.240752 125.989512 
L 83.240752 121.277449 
L 83.337337 121.277449 
L 83.627107 121.277449 
L 83.627107 116.565386 
L 83.723704 116.565386 
L 84.786332 116.565386 
L 84.786332 111.853323 
L 84.882968 111.853323 
L 85.559138 111.853323 
L 85.559138 97.717134 
L 85.65579 97.717134 
L 85.945527 97.717134 
L 85.945527 93.005071 
L 86.042163 93.005071 
L 93.673487 93.005071 
L 93.673487 88.293008 
L 93.770102 88.293008 
L 94.059873 88.293008 
L 94.059873 83.580945 
L 94.156511 83.580945 
L 94.832725 83.580945 
L 94.832725 78.868882 
L 94.929268 78.868882 
L 95.991899 78.868882 
L 95.991899 74.156819 
L 96.08855 74.156819 
L 102.560732 74.156819 
L 102.560732 69.444756 
L 102.657286 69.444756 
L 120.721471 69.444756 
L 120.721471 45.884441 
L 120.817974 45.884441 
L 121.107832 45.884441 
L 121.107832 36.460315 
L 121.20438 36.460315 
L 121.494254 36.460315 
L 121.494254 31.748252 
L 121.590823 31.748252 
L 251.710585 31.748252 
L 251.710585 36.460315 
L 251.807198 36.460315 
L 252.096971 36.460315 
L 252.096971 31.748252 
L 252.19357 31.748252 
L 272.962501 31.748252 
L 272.962501 36.460315 
L 273.059168 36.460315 
L 273.348928 36.460315 
L 273.348928 31.748252 
L 273.44556 31.748252 
L 303.005 31.748252 
L 303.005 31.748252 
" style="fill:none;stroke:#e7298a;stroke-linecap:square;stroke-width:1.5;"/>
   </g>
   <g id="line2d_21">
    <path clip-path="url(#p1b39805a70)" d="M 55.905 191.958393 
L 74.353601 191.958393 
L 74.353601 187.24633 
L 74.450204 187.24633 
L 76.285615 187.24633 
L 76.285615 182.534267 
L 76.382189 182.534267 
L 77.058387 182.534267 
L 77.058387 177.822204 
L 77.154949 177.822204 
L 84.399946 177.822204 
L 84.399946 173.110142 
L 84.496553 173.110142 
L 85.172742 173.110142 
L 85.172742 168.398079 
L 85.269352 168.398079 
L 92.900674 168.398079 
L 92.900674 163.686016 
L 92.997276 163.686016 
L 120.335017 163.686016 
L 120.335017 154.26189 
L 120.431672 154.26189 
L 120.721471 154.26189 
L 120.721471 144.837764 
L 120.817974 144.837764 
L 121.880611 144.837764 
L 121.880611 140.125701 
L 121.977205 140.125701 
L 123.426243 140.125701 
L 123.426243 135.413638 
L 123.52282 135.413638 
L 130.381397 135.413638 
L 130.381397 130.701575 
L 130.477983 130.701575 
L 131.154128 130.701575 
L 131.154128 121.277449 
L 131.250814 121.277449 
L 131.927005 121.277449 
L 131.927005 116.565386 
L 132.023611 116.565386 
L 134.245402 116.565386 
L 134.245402 111.853323 
L 134.341984 111.853323 
L 138.495718 111.853323 
L 138.495718 107.14126 
L 138.592333 107.14126 
L 139.268516 107.14126 
L 139.268516 102.429197 
L 139.365118 102.429197 
L 139.654912 102.429197 
L 139.654912 93.005071 
L 139.751519 93.005071 
L 140.427771 93.005071 
L 140.427771 88.293008 
L 140.524374 88.293008 
L 140.814132 88.293008 
L 140.910769 74.156819 
L 140.910769 74.156819 
L 141.20058 74.156819 
L 141.20058 64.732693 
L 141.297194 64.732693 
L 142.746115 64.732693 
L 142.746115 69.444756 
L 142.842701 69.444756 
L 148.542097 69.444756 
L 148.542097 60.02063 
L 148.638724 60.02063 
L 148.928591 60.02063 
L 148.928591 55.308567 
L 149.025093 55.308567 
L 149.701334 55.308567 
L 149.701334 50.596504 
L 149.797949 50.596504 
L 150.087778 50.596504 
L 150.087778 41.172378 
L 150.184295 41.172378 
L 150.474177 41.172378 
L 150.474177 36.460315 
L 150.570692 36.460315 
L 151.246986 36.460315 
L 151.246986 31.748252 
L 151.343496 31.748252 
L 303.005 31.748252 
L 303.005 31.748252 
" style="fill:none;stroke:#66a61e;stroke-linecap:square;stroke-width:1.5;"/>
   </g>
   <g id="line2d_22">
    <path clip-path="url(#p1b39805a70)" d="M 55.905 196.670456 
L 66.239269 196.670456 
L 66.239269 191.958393 
L 66.335795 191.958393 
L 73.967218 191.958393 
L 73.967218 187.24633 
L 74.063825 187.24633 
L 74.353601 187.24633 
L 74.353601 182.534267 
L 74.450204 182.534267 
L 75.126359 182.534267 
L 75.126359 177.822204 
L 75.222918 177.822204 
L 75.512755 177.822204 
L 75.512755 173.110142 
L 75.609383 173.110142 
L 75.899158 173.110142 
L 75.899158 163.686016 
L 75.995738 163.686016 
L 76.285615 163.686016 
L 76.285615 158.973953 
L 76.382189 158.973953 
L 76.671935 158.973953 
L 76.671935 154.26189 
L 76.768642 154.26189 
L 82.854361 154.26189 
L 82.854361 149.549827 
L 82.950935 149.549827 
L 83.240752 149.549827 
L 83.240752 140.125701 
L 83.337337 140.125701 
L 84.013486 140.125701 
L 84.013486 135.413638 
L 84.110093 135.413638 
L 84.399946 135.413638 
L 84.399946 125.989512 
L 84.496553 125.989512 
L 85.172742 125.989512 
L 85.172742 121.277449 
L 85.269352 121.277449 
L 85.945527 121.277449 
L 85.945527 116.565386 
L 86.042163 116.565386 
L 86.331948 116.565386 
L 86.331948 111.853323 
L 86.428563 111.853323 
L 93.287157 111.853323 
L 93.287157 107.14126 
L 93.383695 107.14126 
L 94.832725 107.14126 
L 94.832725 102.429197 
L 94.929268 102.429197 
L 104.87903 102.429197 
L 104.87903 97.717134 
L 104.97564 97.717134 
L 120.335017 97.717134 
L 120.335017 93.005071 
L 120.431672 93.005071 
L 121.494254 93.005071 
L 121.494254 78.868882 
L 121.590823 78.868882 
L 121.880611 78.868882 
L 121.880611 69.444756 
L 121.977205 69.444756 
L 122.26705 69.444756 
L 122.26705 60.02063 
L 122.363626 60.02063 
L 123.426243 60.02063 
L 123.426243 55.308567 
L 123.52282 55.308567 
L 128.835801 55.308567 
L 128.835801 50.596504 
L 128.932396 50.596504 
L 129.994972 50.596504 
L 129.994972 45.884441 
L 130.091553 45.884441 
L 130.381397 45.884441 
L 130.381397 41.172378 
L 130.477983 41.172378 
L 130.767771 41.172378 
L 130.767771 36.460315 
L 130.864381 36.460315 
L 131.927005 36.460315 
L 131.927005 31.748252 
L 132.023611 31.748252 
L 303.005 31.748252 
L 303.005 31.748252 
" style="fill:none;stroke:#e6ab02;stroke-linecap:square;stroke-width:1.5;"/>
   </g>
   <g id="line2d_23">
    <path clip-path="url(#p1b39805a70)" d="M 55.905 201.382519 
L 67.011963 201.382519 
L 67.011963 196.670456 
L 67.108632 196.670456 
L 74.353601 196.670456 
L 74.353601 191.958393 
L 74.450204 191.958393 
L 75.899158 191.958393 
L 75.899158 187.24633 
L 75.995738 187.24633 
L 84.013486 187.24633 
L 84.013486 177.822204 
L 84.110093 177.822204 
L 84.786332 177.822204 
L 84.786332 173.110142 
L 84.882968 173.110142 
L 85.559138 173.110142 
L 85.559138 168.398079 
L 85.65579 168.398079 
L 85.945527 168.398079 
L 85.945527 163.686016 
L 86.042163 163.686016 
L 94.832725 163.686016 
L 94.832725 158.973953 
L 94.929268 158.973953 
L 103.71989 158.973953 
L 103.71989 154.26189 
L 103.816446 154.26189 
L 120.721471 154.26189 
L 120.721471 144.837764 
L 120.817974 144.837764 
L 121.494254 144.837764 
L 121.494254 140.125701 
L 121.590823 140.125701 
L 123.426243 140.125701 
L 123.426243 135.413638 
L 123.52282 135.413638 
L 129.608581 135.413638 
L 129.608581 130.701575 
L 129.705187 130.701575 
L 131.540604 130.701575 
L 131.540604 125.989512 
L 131.637188 125.989512 
L 131.927005 125.989512 
L 131.927005 121.277449 
L 132.023611 121.277449 
L 132.3134 121.277449 
L 132.409987 107.14126 
L 132.409987 107.14126 
L 138.882127 107.14126 
L 138.882127 102.429197 
L 138.978755 102.429197 
L 139.268516 102.429197 
L 139.268516 93.005071 
L 139.365118 93.005071 
L 139.654912 93.005071 
L 139.654912 88.293008 
L 139.751519 88.293008 
L 140.04135 88.293008 
L 140.137944 74.156819 
L 140.137944 74.156819 
L 140.814132 74.156819 
L 140.814132 60.02063 
L 140.910769 60.02063 
L 141.20058 60.02063 
L 141.20058 50.596504 
L 141.297194 50.596504 
L 141.586924 50.596504 
L 141.586924 31.748252 
L 141.683524 31.748252 
L 141.973374 31.748252 
L 141.973374 27.036189 
L 142.06997 27.036189 
L 143.905383 27.036189 
L 143.905383 22.324126 
L 144.001983 22.324126 
L 250.165068 22.324126 
L 250.165068 27.036189 
L 250.261571 27.036189 
L 250.551463 27.036189 
L 250.551463 22.324126 
L 250.648057 22.324126 
L 251.324218 22.324126 
L 251.324218 27.036189 
L 251.420856 27.036189 
L 252.48337 27.036189 
L 252.48337 31.748252 
L 252.58005 31.748252 
L 253.256262 31.748252 
L 253.256262 36.460315 
L 253.352804 36.460315 
L 263.688955 36.460315 
L 263.688955 41.172378 
L 263.785603 41.172378 
L 286.486524 41.172378 
L 286.486524 36.460315 
L 286.583134 36.460315 
L 303.005 36.460315 
L 303.005 36.460315 
" style="fill:none;stroke:#a6761d;stroke-linecap:square;stroke-width:1.5;"/>
   </g>
   <g id="line2d_24">
    <path clip-path="url(#p1b39805a70)" d="M 55.905 201.382519 
L 74.739962 201.382519 
L 74.739962 196.670456 
L 74.836618 196.670456 
L 75.899158 196.670456 
L 75.899158 191.958393 
L 75.995738 191.958393 
L 84.399946 191.958393 
L 84.399946 187.24633 
L 84.496553 187.24633 
L 85.172742 187.24633 
L 85.172742 191.958393 
L 85.269352 191.958393 
L 85.559138 191.958393 
L 85.559138 182.534267 
L 85.65579 182.534267 
L 120.721471 182.534267 
L 120.721471 177.822204 
L 120.817974 177.822204 
L 121.494254 177.822204 
L 121.494254 173.110142 
L 121.590823 173.110142 
L 122.26705 173.110142 
L 122.26705 168.398079 
L 122.363626 168.398079 
L 122.653454 168.398079 
L 122.653454 163.686016 
L 122.750039 163.686016 
L 124.585385 163.686016 
L 124.585385 158.973953 
L 124.68196 158.973953 
L 130.767771 158.973953 
L 130.767771 154.26189 
L 130.864381 154.26189 
L 131.927005 154.26189 
L 131.927005 149.549827 
L 132.023611 149.549827 
L 132.3134 149.549827 
L 132.3134 144.837764 
L 132.409987 144.837764 
L 138.882127 144.837764 
L 138.882127 135.413638 
L 138.978755 135.413638 
L 139.268516 135.413638 
L 139.268516 130.701575 
L 139.365118 130.701575 
L 139.654912 130.701575 
L 139.751519 116.565386 
L 139.751519 116.565386 
L 141.20058 116.565386 
L 141.20058 111.853323 
L 141.297194 111.853323 
L 141.586924 111.853323 
L 141.586924 107.14126 
L 141.683524 107.14126 
L 141.973374 107.14126 
L 141.973374 111.853323 
L 142.06997 111.853323 
L 142.359739 111.853323 
L 142.359739 107.14126 
L 142.456361 107.14126 
L 142.746115 107.14126 
L 142.746115 102.429197 
L 142.842701 102.429197 
L 147.382962 102.429197 
L 147.382962 107.14126 
L 147.479488 107.14126 
L 148.542097 107.14126 
L 148.542097 93.005071 
L 148.638724 93.005071 
L 149.314921 93.005071 
L 149.314921 88.293008 
L 149.411568 88.293008 
L 150.087778 88.293008 
L 150.087778 69.444756 
L 150.184295 69.444756 
L 150.474177 69.444756 
L 150.474177 64.732693 
L 150.570692 64.732693 
L 158.974877 64.732693 
L 158.974877 60.02063 
L 159.071515 60.02063 
L 190.273255 60.02063 
L 190.273255 55.308567 
L 190.369795 55.308567 
L 196.455618 55.308567 
L 196.455618 50.596504 
L 196.552198 50.596504 
L 196.84197 50.596504 
L 196.84197 55.308567 
L 196.938553 55.308567 
L 197.614772 55.308567 
L 197.614772 50.596504 
L 197.711342 50.596504 
L 206.888405 50.596504 
L 206.888405 45.884441 
L 206.985107 45.884441 
L 222.730661 45.884441 
L 222.730661 50.596504 
L 222.827272 50.596504 
L 233.549846 50.596504 
L 233.549846 45.884441 
L 233.646451 45.884441 
L 250.165068 45.884441 
L 250.165068 50.596504 
L 250.261571 50.596504 
L 250.93776 50.596504 
L 250.93776 55.308567 
L 251.03436 55.308567 
L 252.096971 55.308567 
L 252.096971 60.02063 
L 252.19357 60.02063 
L 262.916154 60.02063 
L 262.916154 64.732693 
L 263.012727 64.732693 
L 279.531275 64.732693 
L 279.531275 69.444756 
L 279.627958 69.444756 
L 303.005 69.444756 
L 303.005 69.444756 
" style="fill:none;stroke:#666666;stroke-linecap:square;stroke-width:1.5;"/>
   </g>
   <g id="line2d_25">
    <path clip-path="url(#p1b39805a70)" d="M 55.905 196.670456 
L 64.493971 196.670456 
L 64.493971 191.958393 
L 75.899158 191.958393 
L 75.899158 187.24633 
L 75.995738 187.24633 
L 83.627107 187.24633 
L 83.627107 182.534267 
L 83.723704 182.534267 
L 84.399946 182.534267 
L 84.399946 177.822204 
L 84.496553 177.822204 
L 85.559138 177.822204 
L 85.559138 173.110142 
L 85.65579 173.110142 
L 85.945527 173.110142 
L 85.945527 168.398079 
L 86.042163 168.398079 
L 88.263936 168.398079 
L 88.263936 163.686016 
L 88.360545 163.686016 
L 121.494254 163.686016 
L 121.494254 154.26189 
L 121.590823 154.26189 
L 130.381397 154.26189 
L 130.381397 149.549827 
L 130.477983 149.549827 
L 132.3134 149.549827 
L 132.3134 144.837764 
L 132.409987 144.837764 
L 133.472629 144.837764 
L 133.472629 140.125701 
L 133.569219 140.125701 
L 139.268516 140.125701 
L 139.268516 135.413638 
L 139.365118 135.413638 
L 139.654912 135.413638 
L 139.654912 125.989512 
L 139.751519 125.989512 
L 140.814132 125.989512 
L 140.814132 116.565386 
L 140.910769 116.565386 
L 149.314921 116.565386 
L 149.314921 111.853323 
L 149.411568 111.853323 
L 150.474177 111.853323 
L 150.474177 107.14126 
L 150.570692 107.14126 
L 151.633295 107.14126 
L 151.633295 102.429197 
L 151.729908 102.429197 
L 161.293328 102.429197 
L 161.293328 97.717134 
L 161.389837 97.717134 
L 187.954826 97.717134 
L 187.954826 93.005071 
L 188.051386 93.005071 
L 196.84197 93.005071 
L 196.84197 88.293008 
L 196.938553 88.293008 
L 206.888405 88.293008 
L 206.888405 93.005071 
L 206.985107 93.005071 
L 251.324218 93.005071 
L 251.324218 88.293008 
L 251.420856 88.293008 
L 251.710585 88.293008 
L 251.710585 93.005071 
L 251.807198 93.005071 
L 261.370593 93.005071 
L 261.370593 88.293008 
L 261.467203 88.293008 
L 303.005 88.293008 
L 303.005 88.293008 
" style="fill:none;stroke:#1b9e77;stroke-dasharray:4.5,1.5;stroke-dashoffset:0;stroke-width:1.5;"/>
   </g>
   <g id="line2d_26">
    <path clip-path="url(#p1b39805a70)" d="M 55.905 206.094582 
L 73.967218 206.094582 
L 73.967218 201.382519 
L 74.063825 201.382519 
L 74.353601 201.382519 
L 74.353601 196.670456 
L 74.450204 196.670456 
L 75.899158 196.670456 
L 75.899158 187.24633 
L 75.995738 187.24633 
L 83.240752 187.24633 
L 83.240752 182.534267 
L 83.337337 182.534267 
L 85.172742 182.534267 
L 85.172742 177.822204 
L 85.269352 177.822204 
L 85.559138 177.822204 
L 85.559138 173.110142 
L 85.65579 173.110142 
L 85.945527 173.110142 
L 85.945527 168.398079 
L 86.042163 168.398079 
L 121.107832 168.398079 
L 121.107832 163.686016 
L 121.20438 163.686016 
L 121.494254 163.686016 
L 121.494254 158.973953 
L 121.590823 158.973953 
L 121.880611 158.973953 
L 121.880611 149.549827 
L 121.977205 149.549827 
L 131.540604 149.549827 
L 131.540604 144.837764 
L 131.637188 144.837764 
L 131.927005 144.837764 
L 131.927005 140.125701 
L 132.023611 140.125701 
L 138.495718 140.125701 
L 138.495718 144.837764 
L 138.592333 144.837764 
L 139.654912 144.837764 
L 139.654912 135.413638 
L 139.751519 135.413638 
L 140.04135 135.413638 
L 140.04135 140.125701 
L 140.137944 140.125701 
L 140.427771 140.125701 
L 140.427771 135.413638 
L 140.524374 135.413638 
L 141.20058 135.413638 
L 141.20058 125.989512 
L 141.297194 125.989512 
L 141.586924 125.989512 
L 141.586924 121.277449 
L 141.683524 121.277449 
L 159.747659 121.277449 
L 159.747659 116.565386 
L 159.844309 116.565386 
L 160.906924 116.565386 
L 160.906924 111.853323 
L 161.003542 111.853323 
L 179.454009 111.853323 
L 179.454009 107.14126 
L 179.550653 107.14126 
L 214.616302 107.14126 
L 214.616302 102.429197 
L 214.712935 102.429197 
L 216.161895 102.429197 
L 216.161895 97.717134 
L 216.258525 97.717134 
L 223.889931 97.717134 
L 223.889931 93.005071 
L 223.986485 93.005071 
L 254.415453 93.005071 
L 254.415453 88.293008 
L 254.51203 88.293008 
L 303.005 88.293008 
L 303.005 88.293008 
" style="fill:none;stroke:#d95f02;stroke-dasharray:4.5,1.5;stroke-dashoffset:0;stroke-width:1.5;"/>
   </g>
   <g id="line2d_27">
    <path clip-path="url(#p1b39805a70)" d="M 55.905 210.806645 
L 65.853168 210.806645 
L 65.853168 206.094582 
L 65.949413 206.094582 
L 66.625647 206.094582 
L 66.625647 201.382519 
L 66.722205 201.382519 
L 75.512755 201.382519 
L 75.512755 196.670456 
L 75.609383 196.670456 
L 85.559138 196.670456 
L 85.559138 191.958393 
L 85.65579 191.958393 
L 91.741533 191.958393 
L 91.741533 187.24633 
L 91.838218 187.24633 
L 93.673487 187.24633 
L 93.673487 182.534267 
L 93.770102 182.534267 
L 94.446319 182.534267 
L 94.446319 177.822204 
L 94.542939 177.822204 
L 120.335017 177.822204 
L 120.335017 168.398079 
L 120.431672 168.398079 
L 121.107832 168.398079 
L 121.107832 163.686016 
L 121.20438 163.686016 
L 121.494254 163.686016 
L 121.494254 158.973953 
L 121.590823 158.973953 
L 121.880611 158.973953 
L 121.880611 154.26189 
L 121.977205 154.26189 
L 122.26705 154.26189 
L 122.26705 144.837764 
L 122.363626 144.837764 
L 122.653454 144.837764 
L 122.653454 140.125701 
L 122.750039 140.125701 
L 123.426243 140.125701 
L 123.426243 135.413638 
L 123.52282 135.413638 
L 124.199074 135.413638 
L 124.199074 130.701575 
L 124.295556 130.701575 
L 125.358166 130.701575 
L 125.358166 125.989512 
L 125.454768 125.989512 
L 129.608581 125.989512 
L 129.608581 121.277449 
L 129.705187 121.277449 
L 129.994972 121.277449 
L 129.994972 116.565386 
L 130.091553 116.565386 
L 130.381397 116.565386 
L 130.381397 102.429197 
L 130.477983 102.429197 
L 130.767771 102.429197 
L 130.767771 97.717134 
L 130.864381 97.717134 
L 131.154128 97.717134 
L 131.154128 93.005071 
L 131.250814 93.005071 
L 134.63173 93.005071 
L 134.63173 97.717134 
L 134.72843 97.717134 
L 139.654912 97.717134 
L 139.654912 93.005071 
L 139.751519 93.005071 
L 140.04135 93.005071 
L 140.04135 97.717134 
L 140.137944 97.717134 
L 140.427771 97.717134 
L 140.427771 93.005071 
L 140.524374 93.005071 
L 151.246986 93.005071 
L 151.246986 97.717134 
L 151.343496 97.717134 
L 151.633295 97.717134 
L 151.633295 93.005071 
L 151.729908 93.005071 
L 303.005 93.005071 
L 303.005 93.005071 
" style="fill:none;stroke:#7570b3;stroke-dasharray:4.5,1.5;stroke-dashoffset:0;stroke-width:1.5;"/>
   </g>
   <g id="line2d_28">
    <path clip-path="url(#p1b39805a70)" d="M 55.905 206.094582 
L 74.739962 206.094582 
L 74.739962 201.382519 
L 74.836618 201.382519 
L 85.172742 201.382519 
L 85.172742 191.958393 
L 85.269352 191.958393 
L 120.335017 191.958393 
L 120.335017 187.24633 
L 120.431672 187.24633 
L 121.107832 187.24633 
L 121.107832 182.534267 
L 121.20438 182.534267 
L 122.26705 182.534267 
L 122.26705 177.822204 
L 122.363626 177.822204 
L 129.608581 177.822204 
L 129.608581 173.110142 
L 129.705187 173.110142 
L 129.994972 173.110142 
L 129.994972 163.686016 
L 130.091553 163.686016 
L 130.381397 163.686016 
L 130.381397 158.973953 
L 130.477983 158.973953 
L 131.154128 158.973953 
L 131.154128 154.26189 
L 131.250814 154.26189 
L 131.540604 154.26189 
L 131.540604 144.837764 
L 131.637188 144.837764 
L 131.927005 144.837764 
L 131.927005 135.413638 
L 132.023611 135.413638 
L 133.472629 135.413638 
L 133.472629 130.701575 
L 133.569219 130.701575 
L 134.245402 130.701575 
L 134.245402 125.989512 
L 134.341984 125.989512 
L 134.63173 125.989512 
L 134.63173 130.701575 
L 134.72843 130.701575 
L 138.109359 130.701575 
L 138.109359 135.413638 
L 138.20599 135.413638 
L 138.495718 135.413638 
L 138.495718 140.125701 
L 138.592333 140.125701 
L 138.882127 140.125701 
L 138.882127 135.413638 
L 138.978755 135.413638 
L 139.268516 135.413638 
L 139.268516 140.125701 
L 139.365118 140.125701 
L 139.654912 140.125701 
L 139.654912 135.413638 
L 139.751519 135.413638 
L 140.04135 135.413638 
L 140.04135 130.701575 
L 140.137944 130.701575 
L 140.814132 130.701575 
L 140.814132 135.413638 
L 140.910769 135.413638 
L 149.701334 135.413638 
L 149.701334 130.701575 
L 149.797949 130.701575 
L 150.474177 130.701575 
L 150.474177 125.989512 
L 150.570692 125.989512 
L 159.361327 125.989512 
L 159.361327 121.277449 
L 159.457859 121.277449 
L 162.066087 121.277449 
L 162.066087 116.565386 
L 162.162729 116.565386 
L 186.795617 116.565386 
L 186.795617 111.853323 
L 186.892164 111.853323 
L 187.182011 111.853323 
L 187.182011 107.14126 
L 187.278562 107.14126 
L 188.727567 107.14126 
L 188.727567 102.429197 
L 188.824283 102.429197 
L 206.888405 102.429197 
L 206.888405 97.717134 
L 206.985107 97.717134 
L 208.0475 97.717134 
L 208.0475 93.005071 
L 208.144194 93.005071 
L 227.367503 93.005071 
L 227.367503 88.293008 
L 227.464041 88.293008 
L 235.868237 88.293008 
L 235.868237 93.005071 
L 235.964898 93.005071 
L 250.93776 93.005071 
L 250.93776 97.717134 
L 251.03436 97.717134 
L 303.005 97.717134 
L 303.005 97.717134 
" style="fill:none;stroke:#e7298a;stroke-dasharray:4.5,1.5;stroke-dashoffset:0;stroke-width:1.5;"/>
   </g>
   <g id="line2d_29">
    <path clip-path="url(#p1b39805a70)" d="M 229.39606 210.806645 
L 232.777021 210.806645 
L 232.777021 206.094582 
L 232.87369 206.094582 
L 244.369066 206.094582 
L 244.369066 201.382519 
L 244.465635 201.382519 
L 250.165068 201.382519 
L 250.165068 182.534267 
L 250.261571 182.534267 
L 250.93776 182.534267 
L 250.93776 173.110142 
L 251.03436 173.110142 
L 251.710585 173.110142 
L 251.710585 158.973953 
L 251.807198 158.973953 
L 252.48337 158.973953 
L 252.48337 154.26189 
L 252.58005 154.26189 
L 260.211426 154.26189 
L 260.211426 149.549827 
L 260.307966 149.549827 
L 262.143398 149.549827 
L 262.143398 144.837764 
L 262.239936 144.837764 
L 262.916154 144.837764 
L 262.916154 140.125701 
L 263.012727 140.125701 
L 263.688955 140.125701 
L 263.688955 135.413638 
L 263.785603 135.413638 
L 264.075367 135.413638 
L 264.075367 130.701575 
L 264.171904 130.701575 
L 269.484975 130.701575 
L 269.484975 125.989512 
L 269.58153 125.989512 
L 272.962501 125.989512 
L 272.962501 121.277449 
L 273.059168 121.277449 
L 279.531275 121.277449 
L 279.531275 116.565386 
L 279.627958 116.565386 
L 303.005 116.565386 
L 303.005 116.565386 
" style="fill:none;stroke:#66a61e;stroke-dasharray:4.5,1.5;stroke-dashoffset:0;stroke-width:1.5;"/>
   </g>
   <g id="line2d_30">
    <path clip-path="url(#p1b39805a70)" d="M 55.905 206.094582 
L 75.126359 206.094582 
L 75.126359 196.670456 
L 75.222918 196.670456 
L 83.627107 196.670456 
L 83.627107 187.24633 
L 83.723704 187.24633 
L 84.013486 187.24633 
L 84.013486 182.534267 
L 84.110093 182.534267 
L 85.559138 182.534267 
L 85.559138 177.822204 
L 85.65579 177.822204 
L 85.945527 177.822204 
L 85.945527 173.110142 
L 86.042163 173.110142 
L 121.880611 173.110142 
L 121.880611 168.398079 
L 121.977205 168.398079 
L 122.26705 168.398079 
L 122.26705 163.686016 
L 122.363626 163.686016 
L 122.653454 163.686016 
L 122.653454 158.973953 
L 122.750039 158.973953 
L 123.812566 158.973953 
L 123.812566 154.26189 
L 123.909252 154.26189 
L 124.199074 154.26189 
L 124.199074 158.973953 
L 124.295556 158.973953 
L 129.608581 158.973953 
L 129.608581 140.125701 
L 129.705187 140.125701 
L 130.381397 140.125701 
L 130.381397 130.701575 
L 130.477983 130.701575 
L 130.767771 130.701575 
L 130.767771 125.989512 
L 130.864381 125.989512 
L 131.154128 125.989512 
L 131.154128 116.565386 
L 131.250814 116.565386 
L 303.005 116.565386 
L 303.005 116.565386 
" style="fill:none;stroke:#e6ab02;stroke-dasharray:4.5,1.5;stroke-dashoffset:0;stroke-width:1.5;"/>
   </g>
   <g id="line2d_31">
    <path clip-path="url(#p1b39805a70)" d="M 55.905 210.806645 
L 67.398354 210.806645 
L 67.398354 206.094582 
L 67.494996 206.094582 
L 68.944025 206.094582 
L 68.944025 201.382519 
L 69.040569 201.382519 
L 93.287157 201.382519 
L 93.287157 196.670456 
L 93.383695 196.670456 
L 120.335017 196.670456 
L 120.335017 191.958393 
L 120.431672 191.958393 
L 123.039796 191.958393 
L 123.039796 182.534267 
L 123.136376 182.534267 
L 130.381397 182.534267 
L 130.381397 177.822204 
L 130.477983 177.822204 
L 130.767771 177.822204 
L 130.767771 173.110142 
L 130.864381 173.110142 
L 131.927005 173.110142 
L 131.927005 163.686016 
L 132.023611 163.686016 
L 132.3134 163.686016 
L 132.3134 158.973953 
L 132.409987 158.973953 
L 134.63173 158.973953 
L 134.63173 154.26189 
L 134.72843 154.26189 
L 139.268516 154.26189 
L 139.268516 158.973953 
L 139.365118 158.973953 
L 140.04135 158.973953 
L 140.04135 154.26189 
L 140.137944 154.26189 
L 140.427771 154.26189 
L 140.427771 149.549827 
L 140.524374 149.549827 
L 141.20058 149.549827 
L 141.20058 144.837764 
L 141.297194 144.837764 
L 141.586924 144.837764 
L 141.586924 149.549827 
L 141.683524 149.549827 
L 141.973374 149.549827 
L 141.973374 144.837764 
L 142.06997 144.837764 
L 148.542097 144.837764 
L 148.542097 140.125701 
L 148.638724 140.125701 
L 160.906924 140.125701 
L 160.906924 135.413638 
L 161.003542 135.413638 
L 186.795617 135.413638 
L 186.795617 130.701575 
L 186.892164 130.701575 
L 223.503479 130.701575 
L 223.503479 125.989512 
L 223.600146 125.989512 
L 269.484975 125.989512 
L 269.484975 121.277449 
L 269.58153 121.277449 
L 303.005 121.277449 
L 303.005 121.277449 
" style="fill:none;stroke:#a6761d;stroke-dasharray:4.5,1.5;stroke-dashoffset:0;stroke-width:1.5;"/>
   </g>
   <g id="line2d_32">
    <path clip-path="url(#p1b39805a70)" d="M 55.905 210.806645 
L 75.899158 210.806645 
L 75.899158 206.094582 
L 75.995738 206.094582 
L 76.285615 206.094582 
L 76.285615 201.382519 
L 76.382189 201.382519 
L 84.013486 201.382519 
L 84.013486 196.670456 
L 84.110093 196.670456 
L 85.945527 196.670456 
L 85.945527 191.958393 
L 86.042163 191.958393 
L 86.718324 191.958393 
L 86.718324 187.24633 
L 86.814944 187.24633 
L 87.491162 187.24633 
L 87.491162 182.534267 
L 87.587767 182.534267 
L 93.287157 182.534267 
L 93.287157 187.24633 
L 93.383695 187.24633 
L 120.721471 187.24633 
L 120.721471 182.534267 
L 120.817974 182.534267 
L 123.039796 182.534267 
L 123.039796 173.110142 
L 123.136376 173.110142 
L 129.994972 173.110142 
L 129.994972 168.398079 
L 130.091553 168.398079 
L 131.540604 168.398079 
L 131.540604 149.549827 
L 131.637188 149.549827 
L 131.927005 149.549827 
L 131.927005 144.837764 
L 132.023611 144.837764 
L 132.3134 144.837764 
L 132.3134 140.125701 
L 132.409987 140.125701 
L 250.93776 140.125701 
L 250.93776 144.837764 
L 251.03436 144.837764 
L 251.324218 144.837764 
L 251.324218 140.125701 
L 251.420856 140.125701 
L 303.005 140.125701 
L 303.005 140.125701 
" style="fill:none;stroke:#666666;stroke-dasharray:4.5,1.5;stroke-dashoffset:0;stroke-width:1.5;"/>
   </g>
   <g id="line2d_33"/>
   <g id="line2d_34"/>
   <g id="line2d_35"/>
   <g id="line2d_36"/>
   <g id="line2d_37"/>
   <g id="line2d_38"/>
   <g id="line2d_39"/>
   <g id="line2d_40"/>
   <g id="line2d_41"/>
   <g id="line2d_42"/>
   <g id="line2d_43"/>
   <g id="line2d_44"/>
   <g id="line2d_45"/>
   <g id="line2d_46"/>
   <g id="line2d_47"/>
   <g id="line2d_48"/>
   <g id="line2d_49"/>
   <g id="patch_3">
    <path d="M 43.55 220.230771 
L 43.55 12.9 
" style="fill:none;stroke:#000000;stroke-linecap:square;stroke-linejoin:miter;stroke-width:0.8;"/>
   </g>
   <g id="patch_4">
    <path d="M 315.36 220.230771 
L 315.36 12.9 
" style="fill:none;stroke:#000000;stroke-linecap:square;stroke-linejoin:miter;stroke-width:0.8;"/>
   </g>
   <g id="patch_5">
    <path d="M 43.55 220.230771 
L 315.36 220.230771 
" style="fill:none;stroke:#000000;stroke-linecap:square;stroke-linejoin:miter;stroke-width:0.8;"/>
   </g>
   <g id="patch_6">
    <path d="M 43.55 12.9 
L 315.36 12.9 
" style="fill:none;stroke:#000000;stroke-linecap:square;stroke-linejoin:miter;stroke-width:0.8;"/>
   </g>
  </g>
  <g id="legend_1">
   <g id="patch_7">
    <path d="M 331.8625 262.528125 
L 420 262.528125 
Q 422 262.528125 422 260.528125 
L 422 12 
Q 422 10 420 10 
L 331.8625 10 
Q 329.8625 10 329.8625 12 
L 329.8625 260.528125 
Q 329.8625 262.528125 331.8625 262.528125 
z
" style="fill:#ffffff;opacity:0.8;stroke:#cccccc;stroke-linejoin:miter;"/>
   </g>
   <g id="text_19">
    <!-- 476/610 Reg. -->
    <defs>
     <path d="M 33.015625 40.375 
Q 26.375 40.375 22.484375 35.828125 
Q 18.609375 31.296875 18.609375 23.390625 
Q 18.609375 15.53125 22.484375 10.953125 
Q 26.375 6.390625 33.015625 6.390625 
Q 39.65625 6.390625 43.53125 10.953125 
Q 47.40625 15.53125 47.40625 23.390625 
Q 47.40625 31.296875 43.53125 35.828125 
Q 39.65625 40.375 33.015625 40.375 
z
M 52.59375 71.296875 
L 52.59375 62.3125 
Q 48.875 64.0625 45.09375 64.984375 
Q 41.3125 65.921875 37.59375 65.921875 
Q 27.828125 65.921875 22.671875 59.328125 
Q 17.53125 52.734375 16.796875 39.40625 
Q 19.671875 43.65625 24.015625 45.921875 
Q 28.375 48.1875 33.59375 48.1875 
Q 44.578125 48.1875 50.953125 41.515625 
Q 57.328125 34.859375 57.328125 23.390625 
Q 57.328125 12.15625 50.6875 5.359375 
Q 44.046875 -1.421875 33.015625 -1.421875 
Q 20.359375 -1.421875 13.671875 8.265625 
Q 6.984375 17.96875 6.984375 36.375 
Q 6.984375 53.65625 15.1875 63.9375 
Q 23.390625 74.21875 37.203125 74.21875 
Q 40.921875 74.21875 44.703125 73.484375 
Q 48.484375 72.75 52.59375 71.296875 
z
" id="DejaVuSans-54"/>
     <path d="M 25.390625 72.90625 
L 33.6875 72.90625 
L 8.296875 -9.28125 
L 0 -9.28125 
z
" id="DejaVuSans-47"/>
     <path d="M 10.6875 12.40625 
L 21 12.40625 
L 21 0 
L 10.6875 0 
z
" id="DejaVuSans-46"/>
    </defs>
    <g transform="translate(342.259375 21.598437)scale(0.1 -0.1)">
     <use xlink:href="#DejaVuSans-52"/>
     <use x="63.623047" xlink:href="#DejaVuSans-55"/>
     <use x="127.246094" xlink:href="#DejaVuSans-54"/>
     <use x="190.869141" xlink:href="#DejaVuSans-47"/>
     <use x="224.560547" xlink:href="#DejaVuSans-54"/>
     <use x="288.183594" xlink:href="#DejaVuSans-49"/>
     <use x="351.806641" xlink:href="#DejaVuSans-48"/>
     <use x="415.429688" xlink:href="#DejaVuSans-32"/>
     <use x="447.216797" xlink:href="#DejaVuSans-82"/>
     <use x="516.636719" xlink:href="#DejaVuSans-101"/>
     <use x="578.160156" xlink:href="#DejaVuSans-103"/>
     <use x="641.636719" xlink:href="#DejaVuSans-46"/>
    </g>
   </g>
   <g id="line2d_50">
    <path d="M 333.8625 32.776562 
L 353.8625 32.776562 
" style="fill:none;stroke:#1b9e77;stroke-linecap:square;stroke-width:1.5;"/>
   </g>
   <g id="line2d_51"/>
   <g id="text_20">
    <!-- AUS (40) -->
    <defs>
     <path d="M 34.1875 63.1875 
L 20.796875 26.90625 
L 47.609375 26.90625 
z
M 28.609375 72.90625 
L 39.796875 72.90625 
L 67.578125 0 
L 57.328125 0 
L 50.6875 18.703125 
L 17.828125 18.703125 
L 11.1875 0 
L 0.78125 0 
z
" id="DejaVuSans-65"/>
     <path d="M 8.6875 72.90625 
L 18.609375 72.90625 
L 18.609375 28.609375 
Q 18.609375 16.890625 22.84375 11.734375 
Q 27.09375 6.59375 36.625 6.59375 
Q 46.09375 6.59375 50.34375 11.734375 
Q 54.59375 16.890625 54.59375 28.609375 
L 54.59375 72.90625 
L 64.5 72.90625 
L 64.5 27.390625 
Q 64.5 13.140625 57.4375 5.859375 
Q 50.390625 -1.421875 36.625 -1.421875 
Q 22.796875 -1.421875 15.734375 5.859375 
Q 8.6875 13.140625 8.6875 27.390625 
z
" id="DejaVuSans-85"/>
     <path d="M 31 75.875 
Q 24.46875 64.65625 21.28125 53.65625 
Q 18.109375 42.671875 18.109375 31.390625 
Q 18.109375 20.125 21.3125 9.0625 
Q 24.515625 -2 31 -13.1875 
L 23.1875 -13.1875 
Q 15.875 -1.703125 12.234375 9.375 
Q 8.59375 20.453125 8.59375 31.390625 
Q 8.59375 42.28125 12.203125 53.3125 
Q 15.828125 64.359375 23.1875 75.875 
z
" id="DejaVuSans-40"/>
     <path d="M 8.015625 75.875 
L 15.828125 75.875 
Q 23.140625 64.359375 26.78125 53.3125 
Q 30.421875 42.28125 30.421875 31.390625 
Q 30.421875 20.453125 26.78125 9.375 
Q 23.140625 -1.703125 15.828125 -13.1875 
L 8.015625 -13.1875 
Q 14.5 -2 17.703125 9.0625 
Q 20.90625 20.125 20.90625 31.390625 
Q 20.90625 42.671875 17.703125 53.65625 
Q 14.5 64.65625 8.015625 75.875 
z
" id="DejaVuSans-41"/>
    </defs>
    <g transform="translate(361.8625 36.276562)scale(0.1 -0.1)">
     <use xlink:href="#DejaVuSans-65"/>
     <use x="68.408203" xlink:href="#DejaVuSans-85"/>
     <use x="141.601562" xlink:href="#DejaVuSans-83"/>
     <use x="205.078125" xlink:href="#DejaVuSans-32"/>
     <use x="236.865234" xlink:href="#DejaVuSans-40"/>
     <use x="275.878906" xlink:href="#DejaVuSans-52"/>
     <use x="339.501953" xlink:href="#DejaVuSans-48"/>
     <use x="403.125" xlink:href="#DejaVuSans-41"/>
    </g>
   </g>
   <g id="line2d_52">
    <path d="M 333.8625 47.454688 
L 353.8625 47.454688 
" style="fill:none;stroke:#d95f02;stroke-linecap:square;stroke-width:1.5;"/>
   </g>
   <g id="line2d_53"/>
   <g id="text_21">
    <!-- COML (40) -->
    <defs>
     <path d="M 64.40625 67.28125 
L 64.40625 56.890625 
Q 59.421875 61.53125 53.78125 63.8125 
Q 48.140625 66.109375 41.796875 66.109375 
Q 29.296875 66.109375 22.65625 58.46875 
Q 16.015625 50.828125 16.015625 36.375 
Q 16.015625 21.96875 22.65625 14.328125 
Q 29.296875 6.6875 41.796875 6.6875 
Q 48.140625 6.6875 53.78125 8.984375 
Q 59.421875 11.28125 64.40625 15.921875 
L 64.40625 5.609375 
Q 59.234375 2.09375 53.4375 0.328125 
Q 47.65625 -1.421875 41.21875 -1.421875 
Q 24.65625 -1.421875 15.125 8.703125 
Q 5.609375 18.84375 5.609375 36.375 
Q 5.609375 53.953125 15.125 64.078125 
Q 24.65625 74.21875 41.21875 74.21875 
Q 47.75 74.21875 53.53125 72.484375 
Q 59.328125 70.75 64.40625 67.28125 
z
" id="DejaVuSans-67"/>
     <path d="M 39.40625 66.21875 
Q 28.65625 66.21875 22.328125 58.203125 
Q 16.015625 50.203125 16.015625 36.375 
Q 16.015625 22.609375 22.328125 14.59375 
Q 28.65625 6.59375 39.40625 6.59375 
Q 50.140625 6.59375 56.421875 14.59375 
Q 62.703125 22.609375 62.703125 36.375 
Q 62.703125 50.203125 56.421875 58.203125 
Q 50.140625 66.21875 39.40625 66.21875 
z
M 39.40625 74.21875 
Q 54.734375 74.21875 63.90625 63.9375 
Q 73.09375 53.65625 73.09375 36.375 
Q 73.09375 19.140625 63.90625 8.859375 
Q 54.734375 -1.421875 39.40625 -1.421875 
Q 24.03125 -1.421875 14.8125 8.828125 
Q 5.609375 19.09375 5.609375 36.375 
Q 5.609375 53.65625 14.8125 63.9375 
Q 24.03125 74.21875 39.40625 74.21875 
z
" id="DejaVuSans-79"/>
     <path d="M 9.8125 72.90625 
L 24.515625 72.90625 
L 43.109375 23.296875 
L 61.8125 72.90625 
L 76.515625 72.90625 
L 76.515625 0 
L 66.890625 0 
L 66.890625 64.015625 
L 48.09375 14.015625 
L 38.1875 14.015625 
L 19.390625 64.015625 
L 19.390625 0 
L 9.8125 0 
z
" id="DejaVuSans-77"/>
     <path d="M 9.8125 72.90625 
L 19.671875 72.90625 
L 19.671875 8.296875 
L 55.171875 8.296875 
L 55.171875 0 
L 9.8125 0 
z
" id="DejaVuSans-76"/>
    </defs>
    <g transform="translate(361.8625 50.954688)scale(0.1 -0.1)">
     <use xlink:href="#DejaVuSans-67"/>
     <use x="69.824219" xlink:href="#DejaVuSans-79"/>
     <use x="148.535156" xlink:href="#DejaVuSans-77"/>
     <use x="234.814453" xlink:href="#DejaVuSans-76"/>
     <use x="290.527344" xlink:href="#DejaVuSans-32"/>
     <use x="322.314453" xlink:href="#DejaVuSans-40"/>
     <use x="361.328125" xlink:href="#DejaVuSans-52"/>
     <use x="424.951172" xlink:href="#DejaVuSans-48"/>
     <use x="488.574219" xlink:href="#DejaVuSans-41"/>
    </g>
   </g>
   <g id="line2d_54">
    <path d="M 333.8625 62.132812 
L 353.8625 62.132812 
" style="fill:none;stroke:#7570b3;stroke-linecap:square;stroke-width:1.5;"/>
   </g>
   <g id="line2d_55"/>
   <g id="text_22">
    <!-- GDD (40) -->
    <defs>
     <path d="M 59.515625 10.40625 
L 59.515625 29.984375 
L 43.40625 29.984375 
L 43.40625 38.09375 
L 69.28125 38.09375 
L 69.28125 6.78125 
Q 63.578125 2.734375 56.6875 0.65625 
Q 49.8125 -1.421875 42 -1.421875 
Q 24.90625 -1.421875 15.25 8.5625 
Q 5.609375 18.5625 5.609375 36.375 
Q 5.609375 54.25 15.25 64.234375 
Q 24.90625 74.21875 42 74.21875 
Q 49.125 74.21875 55.546875 72.453125 
Q 61.96875 70.703125 67.390625 67.28125 
L 67.390625 56.78125 
Q 61.921875 61.421875 55.765625 63.765625 
Q 49.609375 66.109375 42.828125 66.109375 
Q 29.4375 66.109375 22.71875 58.640625 
Q 16.015625 51.171875 16.015625 36.375 
Q 16.015625 21.625 22.71875 14.15625 
Q 29.4375 6.6875 42.828125 6.6875 
Q 48.046875 6.6875 52.140625 7.59375 
Q 56.25 8.5 59.515625 10.40625 
z
" id="DejaVuSans-71"/>
    </defs>
    <g transform="translate(361.8625 65.632812)scale(0.1 -0.1)">
     <use xlink:href="#DejaVuSans-71"/>
     <use x="77.490234" xlink:href="#DejaVuSans-68"/>
     <use x="154.492188" xlink:href="#DejaVuSans-68"/>
     <use x="231.494141" xlink:href="#DejaVuSans-32"/>
     <use x="263.28125" xlink:href="#DejaVuSans-40"/>
     <use x="302.294922" xlink:href="#DejaVuSans-52"/>
     <use x="365.917969" xlink:href="#DejaVuSans-48"/>
     <use x="429.541016" xlink:href="#DejaVuSans-41"/>
    </g>
   </g>
   <g id="line2d_56">
    <path d="M 333.8625 76.810937 
L 353.8625 76.810937 
" style="fill:none;stroke:#e7298a;stroke-linecap:square;stroke-width:1.5;"/>
   </g>
   <g id="line2d_57"/>
   <g id="text_23">
    <!-- AS (38) -->
    <defs>
     <path d="M 31.78125 34.625 
Q 24.75 34.625 20.71875 30.859375 
Q 16.703125 27.09375 16.703125 20.515625 
Q 16.703125 13.921875 20.71875 10.15625 
Q 24.75 6.390625 31.78125 6.390625 
Q 38.8125 6.390625 42.859375 10.171875 
Q 46.921875 13.96875 46.921875 20.515625 
Q 46.921875 27.09375 42.890625 30.859375 
Q 38.875 34.625 31.78125 34.625 
z
M 21.921875 38.8125 
Q 15.578125 40.375 12.03125 44.71875 
Q 8.5 49.078125 8.5 55.328125 
Q 8.5 64.0625 14.71875 69.140625 
Q 20.953125 74.21875 31.78125 74.21875 
Q 42.671875 74.21875 48.875 69.140625 
Q 55.078125 64.0625 55.078125 55.328125 
Q 55.078125 49.078125 51.53125 44.71875 
Q 48 40.375 41.703125 38.8125 
Q 48.828125 37.15625 52.796875 32.3125 
Q 56.78125 27.484375 56.78125 20.515625 
Q 56.78125 9.90625 50.3125 4.234375 
Q 43.84375 -1.421875 31.78125 -1.421875 
Q 19.734375 -1.421875 13.25 4.234375 
Q 6.78125 9.90625 6.78125 20.515625 
Q 6.78125 27.484375 10.78125 32.3125 
Q 14.796875 37.15625 21.921875 38.8125 
z
M 18.3125 54.390625 
Q 18.3125 48.734375 21.84375 45.5625 
Q 25.390625 42.390625 31.78125 42.390625 
Q 38.140625 42.390625 41.71875 45.5625 
Q 45.3125 48.734375 45.3125 54.390625 
Q 45.3125 60.0625 41.71875 63.234375 
Q 38.140625 66.40625 31.78125 66.40625 
Q 25.390625 66.40625 21.84375 63.234375 
Q 18.3125 60.0625 18.3125 54.390625 
z
" id="DejaVuSans-56"/>
    </defs>
    <g transform="translate(361.8625 80.310937)scale(0.1 -0.1)">
     <use xlink:href="#DejaVuSans-65"/>
     <use x="68.408203" xlink:href="#DejaVuSans-83"/>
     <use x="131.884766" xlink:href="#DejaVuSans-32"/>
     <use x="163.671875" xlink:href="#DejaVuSans-40"/>
     <use x="202.685547" xlink:href="#DejaVuSans-51"/>
     <use x="266.308594" xlink:href="#DejaVuSans-56"/>
     <use x="329.931641" xlink:href="#DejaVuSans-41"/>
    </g>
   </g>
   <g id="line2d_58">
    <path d="M 333.8625 91.489062 
L 353.8625 91.489062 
" style="fill:none;stroke:#66a61e;stroke-linecap:square;stroke-width:1.5;"/>
   </g>
   <g id="line2d_59"/>
   <g id="text_24">
    <!-- MD (38) -->
    <g transform="translate(361.8625 94.989062)scale(0.1 -0.1)">
     <use xlink:href="#DejaVuSans-77"/>
     <use x="86.279297" xlink:href="#DejaVuSans-68"/>
     <use x="163.28125" xlink:href="#DejaVuSans-32"/>
     <use x="195.068359" xlink:href="#DejaVuSans-40"/>
     <use x="234.082031" xlink:href="#DejaVuSans-51"/>
     <use x="297.705078" xlink:href="#DejaVuSans-56"/>
     <use x="361.328125" xlink:href="#DejaVuSans-41"/>
    </g>
   </g>
   <g id="line2d_60">
    <path d="M 333.8625 106.167188 
L 353.8625 106.167188 
" style="fill:none;stroke:#e6ab02;stroke-linecap:square;stroke-width:1.5;"/>
   </g>
   <g id="line2d_61"/>
   <g id="text_25">
    <!-- HPI (38) -->
    <defs>
     <path d="M 9.8125 72.90625 
L 19.671875 72.90625 
L 19.671875 43.015625 
L 55.515625 43.015625 
L 55.515625 72.90625 
L 65.375 72.90625 
L 65.375 0 
L 55.515625 0 
L 55.515625 34.71875 
L 19.671875 34.71875 
L 19.671875 0 
L 9.8125 0 
z
" id="DejaVuSans-72"/>
     <path d="M 19.671875 64.796875 
L 19.671875 37.40625 
L 32.078125 37.40625 
Q 38.96875 37.40625 42.71875 40.96875 
Q 46.484375 44.53125 46.484375 51.125 
Q 46.484375 57.671875 42.71875 61.234375 
Q 38.96875 64.796875 32.078125 64.796875 
z
M 9.8125 72.90625 
L 32.078125 72.90625 
Q 44.34375 72.90625 50.609375 67.359375 
Q 56.890625 61.8125 56.890625 51.125 
Q 56.890625 40.328125 50.609375 34.8125 
Q 44.34375 29.296875 32.078125 29.296875 
L 19.671875 29.296875 
L 19.671875 0 
L 9.8125 0 
z
" id="DejaVuSans-80"/>
     <path d="M 9.8125 72.90625 
L 19.671875 72.90625 
L 19.671875 0 
L 9.8125 0 
z
" id="DejaVuSans-73"/>
    </defs>
    <g transform="translate(361.8625 109.667188)scale(0.1 -0.1)">
     <use xlink:href="#DejaVuSans-72"/>
     <use x="75.195312" xlink:href="#DejaVuSans-80"/>
     <use x="135.498047" xlink:href="#DejaVuSans-73"/>
     <use x="164.990234" xlink:href="#DejaVuSans-32"/>
     <use x="196.777344" xlink:href="#DejaVuSans-40"/>
     <use x="235.791016" xlink:href="#DejaVuSans-51"/>
     <use x="299.414062" xlink:href="#DejaVuSans-56"/>
     <use x="363.037109" xlink:href="#DejaVuSans-41"/>
    </g>
   </g>
   <g id="line2d_62">
    <path d="M 333.8625 120.845312 
L 353.8625 120.845312 
" style="fill:none;stroke:#a6761d;stroke-linecap:square;stroke-width:1.5;"/>
   </g>
   <g id="line2d_63"/>
   <g id="text_26">
    <!-- SA (37) -->
    <g transform="translate(361.8625 124.345312)scale(0.1 -0.1)">
     <use xlink:href="#DejaVuSans-83"/>
     <use x="63.492188" xlink:href="#DejaVuSans-65"/>
     <use x="131.900391" xlink:href="#DejaVuSans-32"/>
     <use x="163.6875" xlink:href="#DejaVuSans-40"/>
     <use x="202.701172" xlink:href="#DejaVuSans-51"/>
     <use x="266.324219" xlink:href="#DejaVuSans-55"/>
     <use x="329.947266" xlink:href="#DejaVuSans-41"/>
    </g>
   </g>
   <g id="line2d_64">
    <path d="M 333.8625 135.523438 
L 353.8625 135.523438 
" style="fill:none;stroke:#666666;stroke-linecap:square;stroke-width:1.5;"/>
   </g>
   <g id="line2d_65"/>
   <g id="text_27">
    <!-- FIT (30) -->
    <defs>
     <path d="M 9.8125 72.90625 
L 51.703125 72.90625 
L 51.703125 64.59375 
L 19.671875 64.59375 
L 19.671875 43.109375 
L 48.578125 43.109375 
L 48.578125 34.8125 
L 19.671875 34.8125 
L 19.671875 0 
L 9.8125 0 
z
" id="DejaVuSans-70"/>
     <path d="M -0.296875 72.90625 
L 61.375 72.90625 
L 61.375 64.59375 
L 35.5 64.59375 
L 35.5 0 
L 25.59375 0 
L 25.59375 64.59375 
L -0.296875 64.59375 
z
" id="DejaVuSans-84"/>
    </defs>
    <g transform="translate(361.8625 139.023438)scale(0.1 -0.1)">
     <use xlink:href="#DejaVuSans-70"/>
     <use x="57.519531" xlink:href="#DejaVuSans-73"/>
     <use x="87.011719" xlink:href="#DejaVuSans-84"/>
     <use x="148.095703" xlink:href="#DejaVuSans-32"/>
     <use x="179.882812" xlink:href="#DejaVuSans-40"/>
     <use x="218.896484" xlink:href="#DejaVuSans-51"/>
     <use x="282.519531" xlink:href="#DejaVuSans-48"/>
     <use x="346.142578" xlink:href="#DejaVuSans-41"/>
    </g>
   </g>
   <g id="line2d_66">
    <path d="M 333.8625 150.201562 
L 353.8625 150.201562 
" style="fill:none;stroke:#1b9e77;stroke-dasharray:4.5,1.5;stroke-dashoffset:0;stroke-width:1.5;"/>
   </g>
   <g id="line2d_67"/>
   <g id="text_28">
    <!-- TBI (26) -->
    <defs>
     <path d="M 19.671875 34.8125 
L 19.671875 8.109375 
L 35.5 8.109375 
Q 43.453125 8.109375 47.28125 11.40625 
Q 51.125 14.703125 51.125 21.484375 
Q 51.125 28.328125 47.28125 31.5625 
Q 43.453125 34.8125 35.5 34.8125 
z
M 19.671875 64.796875 
L 19.671875 42.828125 
L 34.28125 42.828125 
Q 41.5 42.828125 45.03125 45.53125 
Q 48.578125 48.25 48.578125 53.8125 
Q 48.578125 59.328125 45.03125 62.0625 
Q 41.5 64.796875 34.28125 64.796875 
z
M 9.8125 72.90625 
L 35.015625 72.90625 
Q 46.296875 72.90625 52.390625 68.21875 
Q 58.5 63.53125 58.5 54.890625 
Q 58.5 48.1875 55.375 44.234375 
Q 52.25 40.28125 46.1875 39.3125 
Q 53.46875 37.75 57.5 32.78125 
Q 61.53125 27.828125 61.53125 20.40625 
Q 61.53125 10.640625 54.890625 5.3125 
Q 48.25 0 35.984375 0 
L 9.8125 0 
z
" id="DejaVuSans-66"/>
    </defs>
    <g transform="translate(361.8625 153.701562)scale(0.1 -0.1)">
     <use xlink:href="#DejaVuSans-84"/>
     <use x="61.083984" xlink:href="#DejaVuSans-66"/>
     <use x="129.6875" xlink:href="#DejaVuSans-73"/>
     <use x="159.179688" xlink:href="#DejaVuSans-32"/>
     <use x="190.966797" xlink:href="#DejaVuSans-40"/>
     <use x="229.980469" xlink:href="#DejaVuSans-50"/>
     <use x="293.603516" xlink:href="#DejaVuSans-54"/>
     <use x="357.226562" xlink:href="#DejaVuSans-41"/>
    </g>
   </g>
   <g id="line2d_68">
    <path d="M 333.8625 164.879687 
L 353.8625 164.879687 
" style="fill:none;stroke:#d95f02;stroke-dasharray:4.5,1.5;stroke-dashoffset:0;stroke-width:1.5;"/>
   </g>
   <g id="line2d_69"/>
   <g id="text_29">
    <!-- BP (26) -->
    <g transform="translate(361.8625 168.379687)scale(0.1 -0.1)">
     <use xlink:href="#DejaVuSans-66"/>
     <use x="68.603516" xlink:href="#DejaVuSans-80"/>
     <use x="128.90625" xlink:href="#DejaVuSans-32"/>
     <use x="160.693359" xlink:href="#DejaVuSans-40"/>
     <use x="199.707031" xlink:href="#DejaVuSans-50"/>
     <use x="263.330078" xlink:href="#DejaVuSans-54"/>
     <use x="326.953125" xlink:href="#DejaVuSans-41"/>
    </g>
   </g>
   <g id="line2d_70">
    <path d="M 333.8625 179.557812 
L 353.8625 179.557812 
" style="fill:none;stroke:#7570b3;stroke-dasharray:4.5,1.5;stroke-dashoffset:0;stroke-width:1.5;"/>
   </g>
   <g id="line2d_71"/>
   <g id="text_30">
    <!-- CC (25) -->
    <g transform="translate(361.8625 183.057812)scale(0.1 -0.1)">
     <use xlink:href="#DejaVuSans-67"/>
     <use x="69.824219" xlink:href="#DejaVuSans-67"/>
     <use x="139.648438" xlink:href="#DejaVuSans-32"/>
     <use x="171.435547" xlink:href="#DejaVuSans-40"/>
     <use x="210.449219" xlink:href="#DejaVuSans-50"/>
     <use x="274.072266" xlink:href="#DejaVuSans-53"/>
     <use x="337.695312" xlink:href="#DejaVuSans-41"/>
    </g>
   </g>
   <g id="line2d_72">
    <path d="M 333.8625 194.235937 
L 353.8625 194.235937 
" style="fill:none;stroke:#e7298a;stroke-dasharray:4.5,1.5;stroke-dashoffset:0;stroke-width:1.5;"/>
   </g>
   <g id="line2d_73"/>
   <g id="text_31">
    <!-- SPD (24) -->
    <g transform="translate(361.8625 197.735937)scale(0.1 -0.1)">
     <use xlink:href="#DejaVuSans-83"/>
     <use x="63.476562" xlink:href="#DejaVuSans-80"/>
     <use x="123.779297" xlink:href="#DejaVuSans-68"/>
     <use x="200.78125" xlink:href="#DejaVuSans-32"/>
     <use x="232.568359" xlink:href="#DejaVuSans-40"/>
     <use x="271.582031" xlink:href="#DejaVuSans-50"/>
     <use x="335.205078" xlink:href="#DejaVuSans-52"/>
     <use x="398.828125" xlink:href="#DejaVuSans-41"/>
    </g>
   </g>
   <g id="line2d_74">
    <path d="M 333.8625 208.914062 
L 353.8625 208.914062 
" style="fill:none;stroke:#66a61e;stroke-dasharray:4.5,1.5;stroke-dashoffset:0;stroke-width:1.5;"/>
   </g>
   <g id="line2d_75"/>
   <g id="text_32">
    <!-- RJPH (20) -->
    <defs>
     <path d="M 9.8125 72.90625 
L 19.671875 72.90625 
L 19.671875 5.078125 
Q 19.671875 -8.109375 14.671875 -14.0625 
Q 9.671875 -20.015625 -1.421875 -20.015625 
L -5.171875 -20.015625 
L -5.171875 -11.71875 
L -2.09375 -11.71875 
Q 4.4375 -11.71875 7.125 -8.046875 
Q 9.8125 -4.390625 9.8125 5.078125 
z
" id="DejaVuSans-74"/>
    </defs>
    <g transform="translate(361.8625 212.414062)scale(0.1 -0.1)">
     <use xlink:href="#DejaVuSans-82"/>
     <use x="69.482422" xlink:href="#DejaVuSans-74"/>
     <use x="98.974609" xlink:href="#DejaVuSans-80"/>
     <use x="159.277344" xlink:href="#DejaVuSans-72"/>
     <use x="234.472656" xlink:href="#DejaVuSans-32"/>
     <use x="266.259766" xlink:href="#DejaVuSans-40"/>
     <use x="305.273438" xlink:href="#DejaVuSans-50"/>
     <use x="368.896484" xlink:href="#DejaVuSans-48"/>
     <use x="432.519531" xlink:href="#DejaVuSans-41"/>
    </g>
   </g>
   <g id="line2d_76">
    <path d="M 333.8625 223.592187 
L 353.8625 223.592187 
" style="fill:none;stroke:#e6ab02;stroke-dasharray:4.5,1.5;stroke-dashoffset:0;stroke-width:1.5;"/>
   </g>
   <g id="line2d_77"/>
   <g id="text_33">
    <!-- AHR-H (20) -->
    <g transform="translate(361.8625 227.092187)scale(0.1 -0.1)">
     <use xlink:href="#DejaVuSans-65"/>
     <use x="68.408203" xlink:href="#DejaVuSans-72"/>
     <use x="143.603516" xlink:href="#DejaVuSans-82"/>
     <use x="213.023438" xlink:href="#DejaVuSans-45"/>
     <use x="249.107422" xlink:href="#DejaVuSans-72"/>
     <use x="324.302734" xlink:href="#DejaVuSans-32"/>
     <use x="356.089844" xlink:href="#DejaVuSans-40"/>
     <use x="395.103516" xlink:href="#DejaVuSans-50"/>
     <use x="458.726562" xlink:href="#DejaVuSans-48"/>
     <use x="522.349609" xlink:href="#DejaVuSans-41"/>
    </g>
   </g>
   <g id="line2d_78">
    <path d="M 333.8625 238.270312 
L 353.8625 238.270312 
" style="fill:none;stroke:#a6761d;stroke-dasharray:4.5,1.5;stroke-dashoffset:0;stroke-width:1.5;"/>
   </g>
   <g id="line2d_79"/>
   <g id="text_34">
    <!-- CB (19) -->
    <g transform="translate(361.8625 241.770312)scale(0.1 -0.1)">
     <use xlink:href="#DejaVuSans-67"/>
     <use x="69.824219" xlink:href="#DejaVuSans-66"/>
     <use x="138.427734" xlink:href="#DejaVuSans-32"/>
     <use x="170.214844" xlink:href="#DejaVuSans-40"/>
     <use x="209.228516" xlink:href="#DejaVuSans-49"/>
     <use x="272.851562" xlink:href="#DejaVuSans-57"/>
     <use x="336.474609" xlink:href="#DejaVuSans-41"/>
    </g>
   </g>
   <g id="line2d_80">
    <path d="M 333.8625 252.948437 
L 353.8625 252.948437 
" style="fill:none;stroke:#666666;stroke-dasharray:4.5,1.5;stroke-dashoffset:0;stroke-width:1.5;"/>
   </g>
   <g id="line2d_81"/>
   <g id="text_35">
    <!-- AHR-A (15) -->
    <g transform="translate(361.8625 256.448437)scale(0.1 -0.1)">
     <use xlink:href="#DejaVuSans-65"/>
     <use x="68.408203" xlink:href="#DejaVuSans-72"/>
     <use x="143.603516" xlink:href="#DejaVuSans-82"/>
     <use x="213.023438" xlink:href="#DejaVuSans-45"/>
     <use x="249.076172" xlink:href="#DejaVuSans-65"/>
     <use x="317.484375" xlink:href="#DejaVuSans-32"/>
     <use x="349.271484" xlink:href="#DejaVuSans-40"/>
     <use x="388.285156" xlink:href="#DejaVuSans-49"/>
     <use x="451.908203" xlink:href="#DejaVuSans-53"/>
     <use x="515.53125" xlink:href="#DejaVuSans-41"/>
    </g>
   </g>
  </g>
 </g>
 <defs>
  <clipPath id="p1b39805a70">
   <rect height="207.330771" width="271.81" x="43.55" y="12.9"/>
  </clipPath>
 </defs>
</svg>
