<?xml version="1.0" encoding="utf-8" standalone="no"?>
<!DOCTYPE svg PUBLIC "-//W3C//DTD SVG 1.1//EN"
  "http://www.w3.org/Graphics/SVG/1.1/DTD/svg11.dtd">
<!-- Created with matplotlib (https://matplotlib.org/) -->
<svg height="288pt" version="1.1" viewBox="0 0 432 288" width="432pt" xmlns="http://www.w3.org/2000/svg" xmlns:xlink="http://www.w3.org/1999/xlink">
 <defs>
  <style type="text/css">
*{stroke-linecap:butt;stroke-linejoin:round;}
  </style>
 </defs>
 <g id="figure_1">
  <g id="patch_1">
   <path d="M 0 288 
L 432 288 
L 432 0 
L 0 0 
z
" style="fill:#ffffff;"/>
  </g>
  <g id="axes_1">
   <g id="patch_2">
    <path d="M 43.55 220.230771 
L 315.36 220.230771 
L 315.36 12.9 
L 43.55 12.9 
z
" style="fill:#ffffff;"/>
   </g>
   <g id="matplotlib.axis_1">
    <g id="xtick_1">
     <g id="line2d_1">
      <defs>
       <path d="M 0 0 
L 0 3.5 
" id="m87309c5ad4" style="stroke:#000000;stroke-width:0.8;"/>
      </defs>
      <g>
       <use style="stroke:#000000;stroke-width:0.8;" x="50.080312" xlink:href="#m87309c5ad4" y="220.230771"/>
      </g>
     </g>
     <g id="text_1">
      <!-- 2020-11-29 -->
      <defs>
       <path d="M 19.1875 8.296875 
L 53.609375 8.296875 
L 53.609375 0 
L 7.328125 0 
L 7.328125 8.296875 
Q 12.9375 14.109375 22.625 23.890625 
Q 32.328125 33.6875 34.8125 36.53125 
Q 39.546875 41.84375 41.421875 45.53125 
Q 43.3125 49.21875 43.3125 52.78125 
Q 43.3125 58.59375 39.234375 62.25 
Q 35.15625 65.921875 28.609375 65.921875 
Q 23.96875 65.921875 18.8125 64.3125 
Q 13.671875 62.703125 7.8125 59.421875 
L 7.8125 69.390625 
Q 13.765625 71.78125 18.9375 73 
Q 24.125 74.21875 28.421875 74.21875 
Q 39.75 74.21875 46.484375 68.546875 
Q 53.21875 62.890625 53.21875 53.421875 
Q 53.21875 48.921875 51.53125 44.890625 
Q 49.859375 40.875 45.40625 35.40625 
Q 44.1875 33.984375 37.640625 27.21875 
Q 31.109375 20.453125 19.1875 8.296875 
z
" id="DejaVuSans-50"/>
       <path d="M 31.78125 66.40625 
Q 24.171875 66.40625 20.328125 58.90625 
Q 16.5 51.421875 16.5 36.375 
Q 16.5 21.390625 20.328125 13.890625 
Q 24.171875 6.390625 31.78125 6.390625 
Q 39.453125 6.390625 43.28125 13.890625 
Q 47.125 21.390625 47.125 36.375 
Q 47.125 51.421875 43.28125 58.90625 
Q 39.453125 66.40625 31.78125 66.40625 
z
M 31.78125 74.21875 
Q 44.046875 74.21875 50.515625 64.515625 
Q 56.984375 54.828125 56.984375 36.375 
Q 56.984375 17.96875 50.515625 8.265625 
Q 44.046875 -1.421875 31.78125 -1.421875 
Q 19.53125 -1.421875 13.0625 8.265625 
Q 6.59375 17.96875 6.59375 36.375 
Q 6.59375 54.828125 13.0625 64.515625 
Q 19.53125 74.21875 31.78125 74.21875 
z
" id="DejaVuSans-48"/>
       <path d="M 4.890625 31.390625 
L 31.203125 31.390625 
L 31.203125 23.390625 
L 4.890625 23.390625 
z
" id="DejaVuSans-45"/>
       <path d="M 12.40625 8.296875 
L 28.515625 8.296875 
L 28.515625 63.921875 
L 10.984375 60.40625 
L 10.984375 69.390625 
L 28.421875 72.90625 
L 38.28125 72.90625 
L 38.28125 8.296875 
L 54.390625 8.296875 
L 54.390625 0 
L 12.40625 0 
z
" id="DejaVuSans-49"/>
       <path d="M 10.984375 1.515625 
L 10.984375 10.5 
Q 14.703125 8.734375 18.5 7.8125 
Q 22.3125 6.890625 25.984375 6.890625 
Q 35.75 6.890625 40.890625 13.453125 
Q 46.046875 20.015625 46.78125 33.40625 
Q 43.953125 29.203125 39.59375 26.953125 
Q 35.25 24.703125 29.984375 24.703125 
Q 19.046875 24.703125 12.671875 31.3125 
Q 6.296875 37.9375 6.296875 49.421875 
Q 6.296875 60.640625 12.9375 67.421875 
Q 19.578125 74.21875 30.609375 74.21875 
Q 43.265625 74.21875 49.921875 64.515625 
Q 56.59375 54.828125 56.59375 36.375 
Q 56.59375 19.140625 48.40625 8.859375 
Q 40.234375 -1.421875 26.421875 -1.421875 
Q 22.703125 -1.421875 18.890625 -0.6875 
Q 15.09375 0.046875 10.984375 1.515625 
z
M 30.609375 32.421875 
Q 37.25 32.421875 41.125 36.953125 
Q 45.015625 41.5 45.015625 49.421875 
Q 45.015625 57.28125 41.125 61.84375 
Q 37.25 66.40625 30.609375 66.40625 
Q 23.96875 66.40625 20.09375 61.84375 
Q 16.21875 57.28125 16.21875 49.421875 
Q 16.21875 41.5 20.09375 36.953125 
Q 23.96875 32.421875 30.609375 32.421875 
z
" id="DejaVuSans-57"/>
      </defs>
      <g transform="translate(26.295196 262.869024)rotate(-30)scale(0.1 -0.1)">
       <use xlink:href="#DejaVuSans-50"/>
       <use x="63.623047" xlink:href="#DejaVuSans-48"/>
       <use x="127.246094" xlink:href="#DejaVuSans-50"/>
       <use x="190.869141" xlink:href="#DejaVuSans-48"/>
       <use x="254.492188" xlink:href="#DejaVuSans-45"/>
       <use x="290.576172" xlink:href="#DejaVuSans-49"/>
       <use x="354.199219" xlink:href="#DejaVuSans-49"/>
       <use x="417.822266" xlink:href="#DejaVuSans-45"/>
       <use x="453.90625" xlink:href="#DejaVuSans-50"/>
       <use x="517.529297" xlink:href="#DejaVuSans-57"/>
      </g>
     </g>
    </g>
    <g id="xtick_2">
     <g id="line2d_2">
      <g>
       <use style="stroke:#000000;stroke-width:0.8;" x="58.124286" xlink:href="#m87309c5ad4" y="220.230771"/>
      </g>
     </g>
     <g id="text_2">
      <!-- 2020-12-01 -->
      <g transform="translate(34.33917 262.869024)rotate(-30)scale(0.1 -0.1)">
       <use xlink:href="#DejaVuSans-50"/>
       <use x="63.623047" xlink:href="#DejaVuSans-48"/>
       <use x="127.246094" xlink:href="#DejaVuSans-50"/>
       <use x="190.869141" xlink:href="#DejaVuSans-48"/>
       <use x="254.492188" xlink:href="#DejaVuSans-45"/>
       <use x="290.576172" xlink:href="#DejaVuSans-49"/>
       <use x="354.199219" xlink:href="#DejaVuSans-50"/>
       <use x="417.822266" xlink:href="#DejaVuSans-45"/>
       <use x="453.90625" xlink:href="#DejaVuSans-48"/>
       <use x="517.529297" xlink:href="#DejaVuSans-49"/>
      </g>
     </g>
    </g>
    <g id="xtick_3">
     <g id="line2d_3">
      <g>
       <use style="stroke:#000000;stroke-width:0.8;" x="86.278197" xlink:href="#m87309c5ad4" y="220.230771"/>
      </g>
     </g>
     <g id="text_3">
      <!-- 2020-12-08 -->
      <defs>
       <path d="M 31.78125 34.625 
Q 24.75 34.625 20.71875 30.859375 
Q 16.703125 27.09375 16.703125 20.515625 
Q 16.703125 13.921875 20.71875 10.15625 
Q 24.75 6.390625 31.78125 6.390625 
Q 38.8125 6.390625 42.859375 10.171875 
Q 46.921875 13.96875 46.921875 20.515625 
Q 46.921875 27.09375 42.890625 30.859375 
Q 38.875 34.625 31.78125 34.625 
z
M 21.921875 38.8125 
Q 15.578125 40.375 12.03125 44.71875 
Q 8.5 49.078125 8.5 55.328125 
Q 8.5 64.0625 14.71875 69.140625 
Q 20.953125 74.21875 31.78125 74.21875 
Q 42.671875 74.21875 48.875 69.140625 
Q 55.078125 64.0625 55.078125 55.328125 
Q 55.078125 49.078125 51.53125 44.71875 
Q 48 40.375 41.703125 38.8125 
Q 48.828125 37.15625 52.796875 32.3125 
Q 56.78125 27.484375 56.78125 20.515625 
Q 56.78125 9.90625 50.3125 4.234375 
Q 43.84375 -1.421875 31.78125 -1.421875 
Q 19.734375 -1.421875 13.25 4.234375 
Q 6.78125 9.90625 6.78125 20.515625 
Q 6.78125 27.484375 10.78125 32.3125 
Q 14.796875 37.15625 21.921875 38.8125 
z
M 18.3125 54.390625 
Q 18.3125 48.734375 21.84375 45.5625 
Q 25.390625 42.390625 31.78125 42.390625 
Q 38.140625 42.390625 41.71875 45.5625 
Q 45.3125 48.734375 45.3125 54.390625 
Q 45.3125 60.0625 41.71875 63.234375 
Q 38.140625 66.40625 31.78125 66.40625 
Q 25.390625 66.40625 21.84375 63.234375 
Q 18.3125 60.0625 18.3125 54.390625 
z
" id="DejaVuSans-56"/>
      </defs>
      <g transform="translate(62.49308 262.869024)rotate(-30)scale(0.1 -0.1)">
       <use xlink:href="#DejaVuSans-50"/>
       <use x="63.623047" xlink:href="#DejaVuSans-48"/>
       <use x="127.246094" xlink:href="#DejaVuSans-50"/>
       <use x="190.869141" xlink:href="#DejaVuSans-48"/>
       <use x="254.492188" xlink:href="#DejaVuSans-45"/>
       <use x="290.576172" xlink:href="#DejaVuSans-49"/>
       <use x="354.199219" xlink:href="#DejaVuSans-50"/>
       <use x="417.822266" xlink:href="#DejaVuSans-45"/>
       <use x="453.90625" xlink:href="#DejaVuSans-48"/>
       <use x="517.529297" xlink:href="#DejaVuSans-56"/>
      </g>
     </g>
    </g>
    <g id="xtick_4">
     <g id="line2d_4">
      <g>
       <use style="stroke:#000000;stroke-width:0.8;" x="114.432107" xlink:href="#m87309c5ad4" y="220.230771"/>
      </g>
     </g>
     <g id="text_4">
      <!-- 2020-12-15 -->
      <defs>
       <path d="M 10.796875 72.90625 
L 49.515625 72.90625 
L 49.515625 64.59375 
L 19.828125 64.59375 
L 19.828125 46.734375 
Q 21.96875 47.46875 24.109375 47.828125 
Q 26.265625 48.1875 28.421875 48.1875 
Q 40.625 48.1875 47.75 41.5 
Q 54.890625 34.8125 54.890625 23.390625 
Q 54.890625 11.625 47.5625 5.09375 
Q 40.234375 -1.421875 26.90625 -1.421875 
Q 22.3125 -1.421875 17.546875 -0.640625 
Q 12.796875 0.140625 7.71875 1.703125 
L 7.71875 11.625 
Q 12.109375 9.234375 16.796875 8.0625 
Q 21.484375 6.890625 26.703125 6.890625 
Q 35.15625 6.890625 40.078125 11.328125 
Q 45.015625 15.765625 45.015625 23.390625 
Q 45.015625 31 40.078125 35.4375 
Q 35.15625 39.890625 26.703125 39.890625 
Q 22.75 39.890625 18.8125 39.015625 
Q 14.890625 38.140625 10.796875 36.28125 
z
" id="DejaVuSans-53"/>
      </defs>
      <g transform="translate(90.646991 262.869024)rotate(-30)scale(0.1 -0.1)">
       <use xlink:href="#DejaVuSans-50"/>
       <use x="63.623047" xlink:href="#DejaVuSans-48"/>
       <use x="127.246094" xlink:href="#DejaVuSans-50"/>
       <use x="190.869141" xlink:href="#DejaVuSans-48"/>
       <use x="254.492188" xlink:href="#DejaVuSans-45"/>
       <use x="290.576172" xlink:href="#DejaVuSans-49"/>
       <use x="354.199219" xlink:href="#DejaVuSans-50"/>
       <use x="417.822266" xlink:href="#DejaVuSans-45"/>
       <use x="453.90625" xlink:href="#DejaVuSans-49"/>
       <use x="517.529297" xlink:href="#DejaVuSans-53"/>
      </g>
     </g>
    </g>
    <g id="xtick_5">
     <g id="line2d_5">
      <g>
       <use style="stroke:#000000;stroke-width:0.8;" x="142.586017" xlink:href="#m87309c5ad4" y="220.230771"/>
      </g>
     </g>
     <g id="text_5">
      <!-- 2020-12-22 -->
      <g transform="translate(118.800901 262.869024)rotate(-30)scale(0.1 -0.1)">
       <use xlink:href="#DejaVuSans-50"/>
       <use x="63.623047" xlink:href="#DejaVuSans-48"/>
       <use x="127.246094" xlink:href="#DejaVuSans-50"/>
       <use x="190.869141" xlink:href="#DejaVuSans-48"/>
       <use x="254.492188" xlink:href="#DejaVuSans-45"/>
       <use x="290.576172" xlink:href="#DejaVuSans-49"/>
       <use x="354.199219" xlink:href="#DejaVuSans-50"/>
       <use x="417.822266" xlink:href="#DejaVuSans-45"/>
       <use x="453.90625" xlink:href="#DejaVuSans-50"/>
       <use x="517.529297" xlink:href="#DejaVuSans-50"/>
      </g>
     </g>
    </g>
    <g id="xtick_6">
     <g id="line2d_6">
      <g>
       <use style="stroke:#000000;stroke-width:0.8;" x="170.739928" xlink:href="#m87309c5ad4" y="220.230771"/>
      </g>
     </g>
     <g id="text_6">
      <!-- 2020-12-29 -->
      <g transform="translate(146.954811 262.869024)rotate(-30)scale(0.1 -0.1)">
       <use xlink:href="#DejaVuSans-50"/>
       <use x="63.623047" xlink:href="#DejaVuSans-48"/>
       <use x="127.246094" xlink:href="#DejaVuSans-50"/>
       <use x="190.869141" xlink:href="#DejaVuSans-48"/>
       <use x="254.492188" xlink:href="#DejaVuSans-45"/>
       <use x="290.576172" xlink:href="#DejaVuSans-49"/>
       <use x="354.199219" xlink:href="#DejaVuSans-50"/>
       <use x="417.822266" xlink:href="#DejaVuSans-45"/>
       <use x="453.90625" xlink:href="#DejaVuSans-50"/>
       <use x="517.529297" xlink:href="#DejaVuSans-57"/>
      </g>
     </g>
    </g>
    <g id="xtick_7">
     <g id="line2d_7">
      <g>
       <use style="stroke:#000000;stroke-width:0.8;" x="182.805889" xlink:href="#m87309c5ad4" y="220.230771"/>
      </g>
     </g>
     <g id="text_7">
      <!-- 2021-01-01 -->
      <g transform="translate(159.020773 262.869024)rotate(-30)scale(0.1 -0.1)">
       <use xlink:href="#DejaVuSans-50"/>
       <use x="63.623047" xlink:href="#DejaVuSans-48"/>
       <use x="127.246094" xlink:href="#DejaVuSans-50"/>
       <use x="190.869141" xlink:href="#DejaVuSans-49"/>
       <use x="254.492188" xlink:href="#DejaVuSans-45"/>
       <use x="290.576172" xlink:href="#DejaVuSans-48"/>
       <use x="354.199219" xlink:href="#DejaVuSans-49"/>
       <use x="417.822266" xlink:href="#DejaVuSans-45"/>
       <use x="453.90625" xlink:href="#DejaVuSans-48"/>
       <use x="517.529297" xlink:href="#DejaVuSans-49"/>
      </g>
     </g>
    </g>
    <g id="xtick_8">
     <g id="line2d_8">
      <g>
       <use style="stroke:#000000;stroke-width:0.8;" x="210.9598" xlink:href="#m87309c5ad4" y="220.230771"/>
      </g>
     </g>
     <g id="text_8">
      <!-- 2021-01-08 -->
      <g transform="translate(187.174683 262.869024)rotate(-30)scale(0.1 -0.1)">
       <use xlink:href="#DejaVuSans-50"/>
       <use x="63.623047" xlink:href="#DejaVuSans-48"/>
       <use x="127.246094" xlink:href="#DejaVuSans-50"/>
       <use x="190.869141" xlink:href="#DejaVuSans-49"/>
       <use x="254.492188" xlink:href="#DejaVuSans-45"/>
       <use x="290.576172" xlink:href="#DejaVuSans-48"/>
       <use x="354.199219" xlink:href="#DejaVuSans-49"/>
       <use x="417.822266" xlink:href="#DejaVuSans-45"/>
       <use x="453.90625" xlink:href="#DejaVuSans-48"/>
       <use x="517.529297" xlink:href="#DejaVuSans-56"/>
      </g>
     </g>
    </g>
    <g id="xtick_9">
     <g id="line2d_9">
      <g>
       <use style="stroke:#000000;stroke-width:0.8;" x="239.11371" xlink:href="#m87309c5ad4" y="220.230771"/>
      </g>
     </g>
     <g id="text_9">
      <!-- 2021-01-15 -->
      <g transform="translate(215.328594 262.869024)rotate(-30)scale(0.1 -0.1)">
       <use xlink:href="#DejaVuSans-50"/>
       <use x="63.623047" xlink:href="#DejaVuSans-48"/>
       <use x="127.246094" xlink:href="#DejaVuSans-50"/>
       <use x="190.869141" xlink:href="#DejaVuSans-49"/>
       <use x="254.492188" xlink:href="#DejaVuSans-45"/>
       <use x="290.576172" xlink:href="#DejaVuSans-48"/>
       <use x="354.199219" xlink:href="#DejaVuSans-49"/>
       <use x="417.822266" xlink:href="#DejaVuSans-45"/>
       <use x="453.90625" xlink:href="#DejaVuSans-49"/>
       <use x="517.529297" xlink:href="#DejaVuSans-53"/>
      </g>
     </g>
    </g>
    <g id="xtick_10">
     <g id="line2d_10">
      <g>
       <use style="stroke:#000000;stroke-width:0.8;" x="267.26762" xlink:href="#m87309c5ad4" y="220.230771"/>
      </g>
     </g>
     <g id="text_10">
      <!-- 2021-01-22 -->
      <g transform="translate(243.482504 262.869024)rotate(-30)scale(0.1 -0.1)">
       <use xlink:href="#DejaVuSans-50"/>
       <use x="63.623047" xlink:href="#DejaVuSans-48"/>
       <use x="127.246094" xlink:href="#DejaVuSans-50"/>
       <use x="190.869141" xlink:href="#DejaVuSans-49"/>
       <use x="254.492188" xlink:href="#DejaVuSans-45"/>
       <use x="290.576172" xlink:href="#DejaVuSans-48"/>
       <use x="354.199219" xlink:href="#DejaVuSans-49"/>
       <use x="417.822266" xlink:href="#DejaVuSans-45"/>
       <use x="453.90625" xlink:href="#DejaVuSans-50"/>
       <use x="517.529297" xlink:href="#DejaVuSans-50"/>
      </g>
     </g>
    </g>
    <g id="xtick_11">
     <g id="line2d_11">
      <g>
       <use style="stroke:#000000;stroke-width:0.8;" x="295.42153" xlink:href="#m87309c5ad4" y="220.230771"/>
      </g>
     </g>
     <g id="text_11">
      <!-- 2021-01-29 -->
      <g transform="translate(271.636414 262.869024)rotate(-30)scale(0.1 -0.1)">
       <use xlink:href="#DejaVuSans-50"/>
       <use x="63.623047" xlink:href="#DejaVuSans-48"/>
       <use x="127.246094" xlink:href="#DejaVuSans-50"/>
       <use x="190.869141" xlink:href="#DejaVuSans-49"/>
       <use x="254.492188" xlink:href="#DejaVuSans-45"/>
       <use x="290.576172" xlink:href="#DejaVuSans-48"/>
       <use x="354.199219" xlink:href="#DejaVuSans-49"/>
       <use x="417.822266" xlink:href="#DejaVuSans-45"/>
       <use x="453.90625" xlink:href="#DejaVuSans-50"/>
       <use x="517.529297" xlink:href="#DejaVuSans-57"/>
      </g>
     </g>
    </g>
    <g id="xtick_12">
     <g id="line2d_12">
      <g>
       <use style="stroke:#000000;stroke-width:0.8;" x="307.487492" xlink:href="#m87309c5ad4" y="220.230771"/>
      </g>
     </g>
     <g id="text_12">
      <!-- 2021-02-01 -->
      <g transform="translate(283.702376 262.869024)rotate(-30)scale(0.1 -0.1)">
       <use xlink:href="#DejaVuSans-50"/>
       <use x="63.623047" xlink:href="#DejaVuSans-48"/>
       <use x="127.246094" xlink:href="#DejaVuSans-50"/>
       <use x="190.869141" xlink:href="#DejaVuSans-49"/>
       <use x="254.492188" xlink:href="#DejaVuSans-45"/>
       <use x="290.576172" xlink:href="#DejaVuSans-48"/>
       <use x="354.199219" xlink:href="#DejaVuSans-50"/>
       <use x="417.822266" xlink:href="#DejaVuSans-45"/>
       <use x="453.90625" xlink:href="#DejaVuSans-48"/>
       <use x="517.529297" xlink:href="#DejaVuSans-49"/>
      </g>
     </g>
    </g>
    <g id="text_13">
     <!-- Date -->
     <defs>
      <path d="M 19.671875 64.796875 
L 19.671875 8.109375 
L 31.59375 8.109375 
Q 46.6875 8.109375 53.6875 14.9375 
Q 60.6875 21.78125 60.6875 36.53125 
Q 60.6875 51.171875 53.6875 57.984375 
Q 46.6875 64.796875 31.59375 64.796875 
z
M 9.8125 72.90625 
L 30.078125 72.90625 
Q 51.265625 72.90625 61.171875 64.09375 
Q 71.09375 55.28125 71.09375 36.53125 
Q 71.09375 17.671875 61.125 8.828125 
Q 51.171875 0 30.078125 0 
L 9.8125 0 
z
" id="DejaVuSans-68"/>
      <path d="M 34.28125 27.484375 
Q 23.390625 27.484375 19.1875 25 
Q 14.984375 22.515625 14.984375 16.5 
Q 14.984375 11.71875 18.140625 8.90625 
Q 21.296875 6.109375 26.703125 6.109375 
Q 34.1875 6.109375 38.703125 11.40625 
Q 43.21875 16.703125 43.21875 25.484375 
L 43.21875 27.484375 
z
M 52.203125 31.203125 
L 52.203125 0 
L 43.21875 0 
L 43.21875 8.296875 
Q 40.140625 3.328125 35.546875 0.953125 
Q 30.953125 -1.421875 24.3125 -1.421875 
Q 15.921875 -1.421875 10.953125 3.296875 
Q 6 8.015625 6 15.921875 
Q 6 25.140625 12.171875 29.828125 
Q 18.359375 34.515625 30.609375 34.515625 
L 43.21875 34.515625 
L 43.21875 35.40625 
Q 43.21875 41.609375 39.140625 45 
Q 35.0625 48.390625 27.6875 48.390625 
Q 23 48.390625 18.546875 47.265625 
Q 14.109375 46.140625 10.015625 43.890625 
L 10.015625 52.203125 
Q 14.9375 54.109375 19.578125 55.046875 
Q 24.21875 56 28.609375 56 
Q 40.484375 56 46.34375 49.84375 
Q 52.203125 43.703125 52.203125 31.203125 
z
" id="DejaVuSans-97"/>
      <path d="M 18.3125 70.21875 
L 18.3125 54.6875 
L 36.8125 54.6875 
L 36.8125 47.703125 
L 18.3125 47.703125 
L 18.3125 18.015625 
Q 18.3125 11.328125 20.140625 9.421875 
Q 21.96875 7.515625 27.59375 7.515625 
L 36.8125 7.515625 
L 36.8125 0 
L 27.59375 0 
Q 17.1875 0 13.234375 3.875 
Q 9.28125 7.765625 9.28125 18.015625 
L 9.28125 47.703125 
L 2.6875 47.703125 
L 2.6875 54.6875 
L 9.28125 54.6875 
L 9.28125 70.21875 
z
" id="DejaVuSans-116"/>
      <path d="M 56.203125 29.59375 
L 56.203125 25.203125 
L 14.890625 25.203125 
Q 15.484375 15.921875 20.484375 11.0625 
Q 25.484375 6.203125 34.421875 6.203125 
Q 39.59375 6.203125 44.453125 7.46875 
Q 49.3125 8.734375 54.109375 11.28125 
L 54.109375 2.78125 
Q 49.265625 0.734375 44.1875 -0.34375 
Q 39.109375 -1.421875 33.890625 -1.421875 
Q 20.796875 -1.421875 13.15625 6.1875 
Q 5.515625 13.8125 5.515625 26.8125 
Q 5.515625 40.234375 12.765625 48.109375 
Q 20.015625 56 32.328125 56 
Q 43.359375 56 49.78125 48.890625 
Q 56.203125 41.796875 56.203125 29.59375 
z
M 47.21875 32.234375 
Q 47.125 39.59375 43.09375 43.984375 
Q 39.0625 48.390625 32.421875 48.390625 
Q 24.90625 48.390625 20.390625 44.140625 
Q 15.875 39.890625 15.1875 32.171875 
z
" id="DejaVuSans-101"/>
     </defs>
     <g transform="translate(167.504219 276.268523)scale(0.1 -0.1)">
      <use xlink:href="#DejaVuSans-68"/>
      <use x="77.001953" xlink:href="#DejaVuSans-97"/>
      <use x="138.28125" xlink:href="#DejaVuSans-116"/>
      <use x="177.490234" xlink:href="#DejaVuSans-101"/>
     </g>
    </g>
   </g>
   <g id="matplotlib.axis_2">
    <g id="ytick_1">
     <g id="line2d_13">
      <defs>
       <path d="M 0 0 
L -3.5 0 
" id="me79dbe979c" style="stroke:#000000;stroke-width:0.8;"/>
      </defs>
      <g>
       <use style="stroke:#000000;stroke-width:0.8;" x="43.55" xlink:href="#me79dbe979c" y="210.806645"/>
      </g>
     </g>
     <g id="text_14">
      <!-- 0 -->
      <g transform="translate(30.1875 214.605864)scale(0.1 -0.1)">
       <use xlink:href="#DejaVuSans-48"/>
      </g>
     </g>
    </g>
    <g id="ytick_2">
     <g id="line2d_14">
      <g>
       <use style="stroke:#000000;stroke-width:0.8;" x="43.55" xlink:href="#me79dbe979c" y="187.24633"/>
      </g>
     </g>
     <g id="text_15">
      <!-- 5 -->
      <g transform="translate(30.1875 191.045549)scale(0.1 -0.1)">
       <use xlink:href="#DejaVuSans-53"/>
      </g>
     </g>
    </g>
    <g id="ytick_3">
     <g id="line2d_15">
      <g>
       <use style="stroke:#000000;stroke-width:0.8;" x="43.55" xlink:href="#me79dbe979c" y="163.686016"/>
      </g>
     </g>
     <g id="text_16">
      <!-- 10 -->
      <g transform="translate(23.825 167.485234)scale(0.1 -0.1)">
       <use xlink:href="#DejaVuSans-49"/>
       <use x="63.623047" xlink:href="#DejaVuSans-48"/>
      </g>
     </g>
    </g>
    <g id="ytick_4">
     <g id="line2d_16">
      <g>
       <use style="stroke:#000000;stroke-width:0.8;" x="43.55" xlink:href="#me79dbe979c" y="140.125701"/>
      </g>
     </g>
     <g id="text_17">
      <!-- 15 -->
      <g transform="translate(23.825 143.924919)scale(0.1 -0.1)">
       <use xlink:href="#DejaVuSans-49"/>
       <use x="63.623047" xlink:href="#DejaVuSans-53"/>
      </g>
     </g>
    </g>
    <g id="ytick_5">
     <g id="line2d_17">
      <g>
       <use style="stroke:#000000;stroke-width:0.8;" x="43.55" xlink:href="#me79dbe979c" y="116.565386"/>
      </g>
     </g>
     <g id="text_18">
      <!-- 20 -->
      <g transform="translate(23.825 120.364604)scale(0.1 -0.1)">
       <use xlink:href="#DejaVuSans-50"/>
       <use x="63.623047" xlink:href="#DejaVuSans-48"/>
      </g>
     </g>
    </g>
    <g id="ytick_6">
     <g id="line2d_18">
      <g>
       <use style="stroke:#000000;stroke-width:0.8;" x="43.55" xlink:href="#me79dbe979c" y="93.005071"/>
      </g>
     </g>
     <g id="text_19">
      <!-- 25 -->
      <g transform="translate(23.825 96.80429)scale(0.1 -0.1)">
       <use xlink:href="#DejaVuSans-50"/>
       <use x="63.623047" xlink:href="#DejaVuSans-53"/>
      </g>
     </g>
    </g>
    <g id="ytick_7">
     <g id="line2d_19">
      <g>
       <use style="stroke:#000000;stroke-width:0.8;" x="43.55" xlink:href="#me79dbe979c" y="69.444756"/>
      </g>
     </g>
     <g id="text_20">
      <!-- 30 -->
      <defs>
       <path d="M 40.578125 39.3125 
Q 47.65625 37.796875 51.625 33 
Q 55.609375 28.21875 55.609375 21.1875 
Q 55.609375 10.40625 48.1875 4.484375 
Q 40.765625 -1.421875 27.09375 -1.421875 
Q 22.515625 -1.421875 17.65625 -0.515625 
Q 12.796875 0.390625 7.625 2.203125 
L 7.625 11.71875 
Q 11.71875 9.328125 16.59375 8.109375 
Q 21.484375 6.890625 26.8125 6.890625 
Q 36.078125 6.890625 40.9375 10.546875 
Q 45.796875 14.203125 45.796875 21.1875 
Q 45.796875 27.640625 41.28125 31.265625 
Q 36.765625 34.90625 28.71875 34.90625 
L 20.21875 34.90625 
L 20.21875 43.015625 
L 29.109375 43.015625 
Q 36.375 43.015625 40.234375 45.921875 
Q 44.09375 48.828125 44.09375 54.296875 
Q 44.09375 59.90625 40.109375 62.90625 
Q 36.140625 65.921875 28.71875 65.921875 
Q 24.65625 65.921875 20.015625 65.03125 
Q 15.375 64.15625 9.8125 62.3125 
L 9.8125 71.09375 
Q 15.4375 72.65625 20.34375 73.4375 
Q 25.25 74.21875 29.59375 74.21875 
Q 40.828125 74.21875 47.359375 69.109375 
Q 53.90625 64.015625 53.90625 55.328125 
Q 53.90625 49.265625 50.4375 45.09375 
Q 46.96875 40.921875 40.578125 39.3125 
z
" id="DejaVuSans-51"/>
      </defs>
      <g transform="translate(23.825 73.243975)scale(0.1 -0.1)">
       <use xlink:href="#DejaVuSans-51"/>
       <use x="63.623047" xlink:href="#DejaVuSans-48"/>
      </g>
     </g>
    </g>
    <g id="ytick_8">
     <g id="line2d_20">
      <g>
       <use style="stroke:#000000;stroke-width:0.8;" x="43.55" xlink:href="#me79dbe979c" y="45.884441"/>
      </g>
     </g>
     <g id="text_21">
      <!-- 35 -->
      <g transform="translate(23.825 49.68366)scale(0.1 -0.1)">
       <use xlink:href="#DejaVuSans-51"/>
       <use x="63.623047" xlink:href="#DejaVuSans-53"/>
      </g>
     </g>
    </g>
    <g id="ytick_9">
     <g id="line2d_21">
      <g>
       <use style="stroke:#000000;stroke-width:0.8;" x="43.55" xlink:href="#me79dbe979c" y="22.324126"/>
      </g>
     </g>
     <g id="text_22">
      <!-- 40 -->
      <defs>
       <path d="M 37.796875 64.3125 
L 12.890625 25.390625 
L 37.796875 25.390625 
z
M 35.203125 72.90625 
L 47.609375 72.90625 
L 47.609375 25.390625 
L 58.015625 25.390625 
L 58.015625 17.1875 
L 47.609375 17.1875 
L 47.609375 0 
L 37.796875 0 
L 37.796875 17.1875 
L 4.890625 17.1875 
L 4.890625 26.703125 
z
" id="DejaVuSans-52"/>
      </defs>
      <g transform="translate(23.825 26.123345)scale(0.1 -0.1)">
       <use xlink:href="#DejaVuSans-52"/>
       <use x="63.623047" xlink:href="#DejaVuSans-48"/>
      </g>
     </g>
    </g>
    <g id="text_23">
     <!-- Students Registered -->
     <defs>
      <path d="M 53.515625 70.515625 
L 53.515625 60.890625 
Q 47.90625 63.578125 42.921875 64.890625 
Q 37.9375 66.21875 33.296875 66.21875 
Q 25.25 66.21875 20.875 63.09375 
Q 16.5 59.96875 16.5 54.203125 
Q 16.5 49.359375 19.40625 46.890625 
Q 22.3125 44.4375 30.421875 42.921875 
L 36.375 41.703125 
Q 47.40625 39.59375 52.65625 34.296875 
Q 57.90625 29 57.90625 20.125 
Q 57.90625 9.515625 50.796875 4.046875 
Q 43.703125 -1.421875 29.984375 -1.421875 
Q 24.8125 -1.421875 18.96875 -0.25 
Q 13.140625 0.921875 6.890625 3.21875 
L 6.890625 13.375 
Q 12.890625 10.015625 18.65625 8.296875 
Q 24.421875 6.59375 29.984375 6.59375 
Q 38.421875 6.59375 43.015625 9.90625 
Q 47.609375 13.234375 47.609375 19.390625 
Q 47.609375 24.75 44.3125 27.78125 
Q 41.015625 30.8125 33.5 32.328125 
L 27.484375 33.5 
Q 16.453125 35.6875 11.515625 40.375 
Q 6.59375 45.0625 6.59375 53.421875 
Q 6.59375 63.09375 13.40625 68.65625 
Q 20.21875 74.21875 32.171875 74.21875 
Q 37.3125 74.21875 42.625 73.28125 
Q 47.953125 72.359375 53.515625 70.515625 
z
" id="DejaVuSans-83"/>
      <path d="M 8.5 21.578125 
L 8.5 54.6875 
L 17.484375 54.6875 
L 17.484375 21.921875 
Q 17.484375 14.15625 20.5 10.265625 
Q 23.53125 6.390625 29.59375 6.390625 
Q 36.859375 6.390625 41.078125 11.03125 
Q 45.3125 15.671875 45.3125 23.6875 
L 45.3125 54.6875 
L 54.296875 54.6875 
L 54.296875 0 
L 45.3125 0 
L 45.3125 8.40625 
Q 42.046875 3.421875 37.71875 1 
Q 33.40625 -1.421875 27.6875 -1.421875 
Q 18.265625 -1.421875 13.375 4.4375 
Q 8.5 10.296875 8.5 21.578125 
z
M 31.109375 56 
z
" id="DejaVuSans-117"/>
      <path d="M 45.40625 46.390625 
L 45.40625 75.984375 
L 54.390625 75.984375 
L 54.390625 0 
L 45.40625 0 
L 45.40625 8.203125 
Q 42.578125 3.328125 38.25 0.953125 
Q 33.9375 -1.421875 27.875 -1.421875 
Q 17.96875 -1.421875 11.734375 6.484375 
Q 5.515625 14.40625 5.515625 27.296875 
Q 5.515625 40.1875 11.734375 48.09375 
Q 17.96875 56 27.875 56 
Q 33.9375 56 38.25 53.625 
Q 42.578125 51.265625 45.40625 46.390625 
z
M 14.796875 27.296875 
Q 14.796875 17.390625 18.875 11.75 
Q 22.953125 6.109375 30.078125 6.109375 
Q 37.203125 6.109375 41.296875 11.75 
Q 45.40625 17.390625 45.40625 27.296875 
Q 45.40625 37.203125 41.296875 42.84375 
Q 37.203125 48.484375 30.078125 48.484375 
Q 22.953125 48.484375 18.875 42.84375 
Q 14.796875 37.203125 14.796875 27.296875 
z
" id="DejaVuSans-100"/>
      <path d="M 54.890625 33.015625 
L 54.890625 0 
L 45.90625 0 
L 45.90625 32.71875 
Q 45.90625 40.484375 42.875 44.328125 
Q 39.84375 48.1875 33.796875 48.1875 
Q 26.515625 48.1875 22.3125 43.546875 
Q 18.109375 38.921875 18.109375 30.90625 
L 18.109375 0 
L 9.078125 0 
L 9.078125 54.6875 
L 18.109375 54.6875 
L 18.109375 46.1875 
Q 21.34375 51.125 25.703125 53.5625 
Q 30.078125 56 35.796875 56 
Q 45.21875 56 50.046875 50.171875 
Q 54.890625 44.34375 54.890625 33.015625 
z
" id="DejaVuSans-110"/>
      <path d="M 44.28125 53.078125 
L 44.28125 44.578125 
Q 40.484375 46.53125 36.375 47.5 
Q 32.28125 48.484375 27.875 48.484375 
Q 21.1875 48.484375 17.84375 46.4375 
Q 14.5 44.390625 14.5 40.28125 
Q 14.5 37.15625 16.890625 35.375 
Q 19.28125 33.59375 26.515625 31.984375 
L 29.59375 31.296875 
Q 39.15625 29.25 43.1875 25.515625 
Q 47.21875 21.78125 47.21875 15.09375 
Q 47.21875 7.46875 41.1875 3.015625 
Q 35.15625 -1.421875 24.609375 -1.421875 
Q 20.21875 -1.421875 15.453125 -0.5625 
Q 10.6875 0.296875 5.421875 2 
L 5.421875 11.28125 
Q 10.40625 8.6875 15.234375 7.390625 
Q 20.0625 6.109375 24.8125 6.109375 
Q 31.15625 6.109375 34.5625 8.28125 
Q 37.984375 10.453125 37.984375 14.40625 
Q 37.984375 18.0625 35.515625 20.015625 
Q 33.0625 21.96875 24.703125 23.78125 
L 21.578125 24.515625 
Q 13.234375 26.265625 9.515625 29.90625 
Q 5.8125 33.546875 5.8125 39.890625 
Q 5.8125 47.609375 11.28125 51.796875 
Q 16.75 56 26.8125 56 
Q 31.78125 56 36.171875 55.265625 
Q 40.578125 54.546875 44.28125 53.078125 
z
" id="DejaVuSans-115"/>
      <path id="DejaVuSans-32"/>
      <path d="M 44.390625 34.1875 
Q 47.5625 33.109375 50.5625 29.59375 
Q 53.5625 26.078125 56.59375 19.921875 
L 66.609375 0 
L 56 0 
L 46.6875 18.703125 
Q 43.0625 26.03125 39.671875 28.421875 
Q 36.28125 30.8125 30.421875 30.8125 
L 19.671875 30.8125 
L 19.671875 0 
L 9.8125 0 
L 9.8125 72.90625 
L 32.078125 72.90625 
Q 44.578125 72.90625 50.734375 67.671875 
Q 56.890625 62.453125 56.890625 51.90625 
Q 56.890625 45.015625 53.6875 40.46875 
Q 50.484375 35.9375 44.390625 34.1875 
z
M 19.671875 64.796875 
L 19.671875 38.921875 
L 32.078125 38.921875 
Q 39.203125 38.921875 42.84375 42.21875 
Q 46.484375 45.515625 46.484375 51.90625 
Q 46.484375 58.296875 42.84375 61.546875 
Q 39.203125 64.796875 32.078125 64.796875 
z
" id="DejaVuSans-82"/>
      <path d="M 45.40625 27.984375 
Q 45.40625 37.75 41.375 43.109375 
Q 37.359375 48.484375 30.078125 48.484375 
Q 22.859375 48.484375 18.828125 43.109375 
Q 14.796875 37.75 14.796875 27.984375 
Q 14.796875 18.265625 18.828125 12.890625 
Q 22.859375 7.515625 30.078125 7.515625 
Q 37.359375 7.515625 41.375 12.890625 
Q 45.40625 18.265625 45.40625 27.984375 
z
M 54.390625 6.78125 
Q 54.390625 -7.171875 48.1875 -13.984375 
Q 42 -20.796875 29.203125 -20.796875 
Q 24.46875 -20.796875 20.265625 -20.09375 
Q 16.0625 -19.390625 12.109375 -17.921875 
L 12.109375 -9.1875 
Q 16.0625 -11.328125 19.921875 -12.34375 
Q 23.78125 -13.375 27.78125 -13.375 
Q 36.625 -13.375 41.015625 -8.765625 
Q 45.40625 -4.15625 45.40625 5.171875 
L 45.40625 9.625 
Q 42.625 4.78125 38.28125 2.390625 
Q 33.9375 0 27.875 0 
Q 17.828125 0 11.671875 7.65625 
Q 5.515625 15.328125 5.515625 27.984375 
Q 5.515625 40.671875 11.671875 48.328125 
Q 17.828125 56 27.875 56 
Q 33.9375 56 38.28125 53.609375 
Q 42.625 51.21875 45.40625 46.390625 
L 45.40625 54.6875 
L 54.390625 54.6875 
z
" id="DejaVuSans-103"/>
      <path d="M 9.421875 54.6875 
L 18.40625 54.6875 
L 18.40625 0 
L 9.421875 0 
z
M 9.421875 75.984375 
L 18.40625 75.984375 
L 18.40625 64.59375 
L 9.421875 64.59375 
z
" id="DejaVuSans-105"/>
      <path d="M 41.109375 46.296875 
Q 39.59375 47.171875 37.8125 47.578125 
Q 36.03125 48 33.890625 48 
Q 26.265625 48 22.1875 43.046875 
Q 18.109375 38.09375 18.109375 28.8125 
L 18.109375 0 
L 9.078125 0 
L 9.078125 54.6875 
L 18.109375 54.6875 
L 18.109375 46.1875 
Q 20.953125 51.171875 25.484375 53.578125 
Q 30.03125 56 36.53125 56 
Q 37.453125 56 38.578125 55.875 
Q 39.703125 55.765625 41.0625 55.515625 
z
" id="DejaVuSans-114"/>
     </defs>
     <g transform="translate(17.745313 167.498979)rotate(-90)scale(0.1 -0.1)">
      <use xlink:href="#DejaVuSans-83"/>
      <use x="63.476562" xlink:href="#DejaVuSans-116"/>
      <use x="102.685547" xlink:href="#DejaVuSans-117"/>
      <use x="166.064453" xlink:href="#DejaVuSans-100"/>
      <use x="229.541016" xlink:href="#DejaVuSans-101"/>
      <use x="291.064453" xlink:href="#DejaVuSans-110"/>
      <use x="354.443359" xlink:href="#DejaVuSans-116"/>
      <use x="393.652344" xlink:href="#DejaVuSans-115"/>
      <use x="445.751953" xlink:href="#DejaVuSans-32"/>
      <use x="477.539062" xlink:href="#DejaVuSans-82"/>
      <use x="546.958984" xlink:href="#DejaVuSans-101"/>
      <use x="608.482422" xlink:href="#DejaVuSans-103"/>
      <use x="671.958984" xlink:href="#DejaVuSans-105"/>
      <use x="699.742188" xlink:href="#DejaVuSans-115"/>
      <use x="751.841797" xlink:href="#DejaVuSans-116"/>
      <use x="791.050781" xlink:href="#DejaVuSans-101"/>
      <use x="852.574219" xlink:href="#DejaVuSans-114"/>
      <use x="893.65625" xlink:href="#DejaVuSans-101"/>
      <use x="955.179688" xlink:href="#DejaVuSans-100"/>
     </g>
    </g>
   </g>
   <g id="line2d_22">
    <path clip-path="url(#p8d06eeb0fe)" d="M 55.905 201.382519 
L 60.722137 201.382519 
L 60.722137 196.670456 
L 60.805926 196.670456 
L 63.906237 196.670456 
L 63.906237 191.958393 
L 63.990027 191.958393 
L 64.576552 191.958393 
L 64.576552 187.24633 
L 64.660332 187.24633 
L 68.095771 187.24633 
L 68.095771 177.822204 
L 68.179583 177.822204 
L 68.430957 177.822204 
L 68.430957 173.110142 
L 68.514756 173.110142 
L 68.766127 173.110142 
L 68.766127 168.398079 
L 68.849906 168.398079 
L 68.933705 168.398079 
L 68.933705 163.686016 
L 69.017516 163.686016 
L 72.788121 163.686016 
L 72.788121 158.973953 
L 72.871904 158.973953 
L 76.642523 158.973953 
L 76.642523 154.26189 
L 76.726325 154.26189 
L 84.016181 154.26189 
L 84.016181 144.837764 
L 84.099931 144.837764 
L 84.35134 144.837764 
L 84.35134 140.125701 
L 84.435113 140.125701 
L 85.189252 140.125701 
L 85.189252 135.413638 
L 85.27303 135.413638 
L 87.870558 135.413638 
L 87.870558 130.701575 
L 87.954349 130.701575 
L 88.708485 130.701575 
L 88.708485 125.989512 
L 88.792278 125.989512 
L 88.876069 125.989512 
L 88.876069 121.277449 
L 88.959865 121.277449 
L 89.04365 121.277449 
L 89.08554 107.14126 
L 89.127438 107.14126 
L 91.892535 107.14126 
L 91.892535 102.429197 
L 91.97636 102.429197 
L 92.060114 102.429197 
L 92.060114 93.005071 
L 92.143939 93.005071 
L 92.227695 93.005071 
L 92.227695 88.293008 
L 92.311495 88.293008 
L 92.395295 88.293008 
L 92.437188 74.156819 
L 92.479087 74.156819 
L 92.730454 74.156819 
L 92.730454 60.02063 
L 92.814262 60.02063 
L 92.898058 60.02063 
L 92.898058 50.596504 
L 92.981861 50.596504 
L 93.065617 50.596504 
L 93.065617 31.748252 
L 93.149437 31.748252 
L 93.233222 31.748252 
L 93.233222 27.036189 
L 93.317031 27.036189 
L 94.071143 27.036189 
L 94.071143 22.324126 
L 94.154938 22.324126 
L 140.156423 22.324126 
L 140.156423 27.036189 
L 140.240182 27.036189 
L 140.324004 27.036189 
L 140.324004 22.324126 
L 140.407791 22.324126 
L 140.659151 22.324126 
L 140.659151 27.036189 
L 140.742962 27.036189 
L 141.16188 27.036189 
L 141.16188 31.748252 
L 141.245705 31.748252 
L 141.497087 31.748252 
L 141.497087 36.460315 
L 141.580856 36.460315 
L 146.02179 36.460315 
L 146.02179 41.172378 
L 146.105579 41.172378 
L 155.909193 41.172378 
L 155.909193 36.460315 
L 155.992988 36.460315 
L 174.51086 36.460315 
L 174.51086 41.172378 
L 174.594675 41.172378 
L 181.046606 41.172378 
L 181.046606 36.460315 
L 181.130392 36.460315 
L 201.491733 36.460315 
L 201.491733 31.748252 
L 201.575519 31.748252 
L 204.173014 31.748252 
L 204.173014 27.036189 
L 204.25681 27.036189 
L 208.865354 27.036189 
L 208.865354 22.324126 
L 232.997287 22.324126 
L 232.997287 31.748252 
L 233.081047 31.748252 
L 233.499994 31.748252 
L 233.499994 36.460315 
L 233.583826 36.460315 
L 262.659426 36.460315 
L 262.659426 41.172378 
L 262.743248 41.172378 
L 268.692414 41.172378 
L 268.692414 36.460315 
L 268.776194 36.460315 
L 272.714411 36.460315 
L 272.714411 31.748252 
L 272.798178 31.748252 
L 273.88745 31.748252 
L 273.88745 27.036189 
L 273.971284 27.036189 
L 285.283122 27.036189 
L 285.283122 22.324126 
L 285.366919 22.324126 
L 303.005 22.324126 
L 303.005 22.324126 
" style="fill:none;stroke:#1b9e77;stroke-linecap:square;stroke-width:1.5;"/>
   </g>
   <g id="line2d_23">
    <path clip-path="url(#p8d06eeb0fe)" d="M 55.905 210.806645 
L 56.081569 210.806645 
L 56.081569 201.382519 
L 56.191838 201.382519 
L 56.867751 201.382519 
L 56.867751 196.670456 
L 56.948718 196.670456 
L 60.722137 196.670456 
L 60.722137 191.958393 
L 60.805926 191.958393 
L 63.906237 191.958393 
L 63.906237 177.822204 
L 63.990027 177.822204 
L 64.073804 177.822204 
L 64.073804 173.110142 
L 64.157608 173.110142 
L 64.241386 173.110142 
L 64.241386 154.26189 
L 64.325186 154.26189 
L 64.408967 154.26189 
L 64.408967 149.549827 
L 64.492757 149.549827 
L 64.576552 149.549827 
L 64.576552 140.125701 
L 64.660332 140.125701 
L 64.74416 140.125701 
L 64.74416 125.989512 
L 64.827947 125.989512 
L 67.760633 125.989512 
L 67.760633 121.277449 
L 67.844421 121.277449 
L 67.928196 121.277449 
L 67.928196 116.565386 
L 68.011986 116.565386 
L 68.430957 116.565386 
L 68.430957 111.853323 
L 68.514756 111.853323 
L 68.766127 111.853323 
L 68.766127 97.717134 
L 68.849906 97.717134 
L 68.933705 97.717134 
L 68.933705 93.005071 
L 69.017516 93.005071 
L 72.285354 93.005071 
L 72.285354 88.293008 
L 72.369164 88.293008 
L 72.452932 88.293008 
L 72.452932 83.580945 
L 72.536748 83.580945 
L 72.788121 83.580945 
L 72.788121 78.868882 
L 72.871904 78.868882 
L 73.290859 78.868882 
L 73.290859 74.156819 
L 73.374642 74.156819 
L 76.139791 74.156819 
L 76.139791 69.444756 
L 76.223551 69.444756 
L 84.016181 69.444756 
L 84.016181 45.884441 
L 84.099931 45.884441 
L 84.183747 45.884441 
L 84.183747 36.460315 
L 84.267513 36.460315 
L 84.35134 36.460315 
L 84.35134 31.748252 
L 84.435113 31.748252 
L 140.82672 31.748252 
L 140.82672 36.460315 
L 140.910527 36.460315 
L 140.994297 36.460315 
L 140.994297 31.748252 
L 141.07809 31.748252 
L 150.043767 31.748252 
L 150.043767 36.460315 
L 150.127587 36.460315 
L 150.211362 36.460315 
L 150.211362 31.748252 
L 150.295148 31.748252 
L 232.997287 31.748252 
L 232.997287 22.324126 
L 233.081047 22.324126 
L 303.005 22.324126 
L 303.005 22.324126 
" style="fill:none;stroke:#d95f02;stroke-linecap:square;stroke-width:1.5;"/>
   </g>
   <g id="line2d_24">
    <path clip-path="url(#p8d06eeb0fe)" d="M 90.887071 196.670456 
L 91.724948 196.670456 
L 91.724948 182.534267 
L 91.808879 182.534267 
L 91.892535 182.534267 
L 91.892535 177.822204 
L 91.97636 177.822204 
L 92.060114 177.822204 
L 92.060114 158.973953 
L 92.143939 158.973953 
L 92.395295 158.973953 
L 92.395295 144.837764 
L 92.479087 144.837764 
L 92.730454 144.837764 
L 92.730454 116.565386 
L 92.814262 116.565386 
L 93.065617 116.565386 
L 93.065617 107.14126 
L 93.149437 107.14126 
L 93.233222 107.14126 
L 93.233222 102.429197 
L 93.317031 102.429197 
L 93.40079 102.429197 
L 93.40079 97.717134 
L 93.48461 97.717134 
L 93.735983 97.717134 
L 93.735983 93.005071 
L 93.819735 93.005071 
L 96.082105 93.005071 
L 96.082105 74.156819 
L 96.165926 74.156819 
L 96.417283 74.156819 
L 96.417283 69.444756 
L 96.50106 69.444756 
L 96.752474 69.444756 
L 96.752474 60.02063 
L 96.836248 60.02063 
L 96.920057 60.02063 
L 96.920057 55.308567 
L 97.003827 55.308567 
L 97.255227 55.308567 
L 97.255227 50.596504 
L 97.33899 50.596504 
L 100.774452 50.596504 
L 100.774452 45.884441 
L 100.858226 45.884441 
L 100.942006 45.884441 
L 100.942006 41.172378 
L 101.025835 41.172378 
L 101.109597 41.172378 
L 101.109597 36.460315 
L 101.193409 36.460315 
L 101.612369 36.460315 
L 101.612369 31.748252 
L 101.696162 31.748252 
L 112.337642 31.748252 
L 112.337642 22.324126 
L 112.421454 22.324126 
L 132.95033 22.324126 
L 132.95033 27.036189 
L 133.034132 27.036189 
L 133.955826 27.036189 
L 133.955826 22.324126 
L 134.039621 22.324126 
L 148.535549 22.324126 
L 148.535549 27.036189 
L 148.619344 27.036189 
L 149.876204 27.036189 
L 149.876204 22.324126 
L 149.960006 22.324126 
L 258.302295 22.324126 
L 258.302295 27.036189 
L 258.386077 27.036189 
L 262.994603 27.036189 
L 262.994603 22.324126 
L 263.078385 22.324126 
L 297.181489 22.324126 
L 297.181489 27.036189 
L 297.265294 27.036189 
L 297.349081 27.036189 
L 297.349081 22.324126 
L 297.432864 22.324126 
L 297.8518 22.324126 
L 297.8518 27.036189 
L 297.935611 27.036189 
L 298.35455 27.036189 
L 298.35455 22.324126 
L 298.43834 22.324126 
L 303.005 22.324126 
L 303.005 22.324126 
" style="fill:none;stroke:#7570b3;stroke-linecap:square;stroke-width:1.5;"/>
   </g>
   <g id="line2d_25">
    <path clip-path="url(#p8d06eeb0fe)" d="M 55.905 182.534267 
L 56.081569 182.534267 
L 56.081569 177.822204 
L 56.191838 177.822204 
L 56.948718 177.822204 
L 56.948718 173.110142 
L 59.630074 173.110142 
L 59.630074 168.398079 
L 59.884247 168.398079 
L 59.884247 163.686016 
L 59.968048 163.686016 
L 60.05182 163.686016 
L 60.05182 158.973953 
L 60.135626 158.973953 
L 60.554591 158.973953 
L 60.554591 144.837764 
L 60.638399 144.837764 
L 60.722137 144.837764 
L 60.722137 140.125701 
L 60.805926 140.125701 
L 64.073804 140.125701 
L 64.073804 130.701575 
L 64.157608 130.701575 
L 64.241386 130.701575 
L 64.241386 125.989512 
L 64.325186 125.989512 
L 64.408967 125.989512 
L 64.408967 130.701575 
L 64.492757 130.701575 
L 64.74416 130.701575 
L 64.74416 125.989512 
L 64.827947 125.989512 
L 64.911709 125.989512 
L 64.911709 116.565386 
L 64.995495 116.565386 
L 65.749643 116.565386 
L 65.749643 107.14126 
L 65.833444 107.14126 
L 67.593053 107.14126 
L 67.593053 102.429197 
L 67.676836 102.429197 
L 67.760633 102.429197 
L 67.760633 83.580945 
L 67.844421 83.580945 
L 67.928196 83.580945 
L 67.928196 74.156819 
L 68.011986 74.156819 
L 68.26338 74.156819 
L 68.26338 69.444756 
L 68.347173 69.444756 
L 68.430957 69.444756 
L 68.430957 64.732693 
L 68.514756 64.732693 
L 68.598545 64.732693 
L 68.598545 60.02063 
L 68.682346 60.02063 
L 68.766127 60.02063 
L 68.766127 45.884441 
L 68.849906 45.884441 
L 68.933705 45.884441 
L 68.933705 41.172378 
L 69.017516 41.172378 
L 69.101297 41.172378 
L 69.101297 36.460315 
L 69.185074 36.460315 
L 71.950182 36.460315 
L 71.950182 27.036189 
L 72.033987 27.036189 
L 72.117801 27.036189 
L 72.117801 22.324126 
L 72.201584 22.324126 
L 91.892535 22.324126 
L 91.892535 27.036189 
L 91.97636 27.036189 
L 92.060114 27.036189 
L 92.060114 22.324126 
L 92.143939 22.324126 
L 258.134685 22.324126 
L 258.134685 27.036189 
L 258.218483 27.036189 
L 258.302295 27.036189 
L 258.302295 22.324126 
L 258.386077 22.324126 
L 303.005 22.324126 
L 303.005 22.324126 
" style="fill:none;stroke:#e7298a;stroke-linecap:square;stroke-width:1.5;"/>
   </g>
   <g id="line2d_26">
    <path clip-path="url(#p8d06eeb0fe)" d="M 55.905 201.382519 
L 60.387017 201.382519 
L 60.387017 196.670456 
L 60.470782 196.670456 
L 63.738661 196.670456 
L 63.738661 191.958393 
L 63.822421 191.958393 
L 63.906237 191.958393 
L 63.906237 187.24633 
L 63.990027 187.24633 
L 64.073804 187.24633 
L 64.073804 177.822204 
L 64.157608 177.822204 
L 64.241386 177.822204 
L 64.241386 173.110142 
L 64.325186 173.110142 
L 64.408967 173.110142 
L 64.408967 168.398079 
L 64.492757 168.398079 
L 64.576552 168.398079 
L 64.576552 163.686016 
L 64.660332 163.686016 
L 64.911709 163.686016 
L 64.911709 158.973953 
L 64.995495 158.973953 
L 67.760633 158.973953 
L 67.760633 149.549827 
L 67.844421 149.549827 
L 67.928196 149.549827 
L 67.928196 144.837764 
L 68.011986 144.837764 
L 68.598545 144.837764 
L 68.598545 140.125701 
L 68.682346 140.125701 
L 68.766127 140.125701 
L 68.766127 130.701575 
L 68.849906 130.701575 
L 84.016181 130.701575 
L 84.016181 125.989512 
L 84.099931 125.989512 
L 84.183747 125.989512 
L 84.183747 121.277449 
L 84.267513 121.277449 
L 84.35134 121.277449 
L 84.35134 116.565386 
L 84.435113 116.565386 
L 84.518905 116.565386 
L 84.518905 111.853323 
L 84.602688 111.853323 
L 84.686505 111.853323 
L 84.686505 102.429197 
L 84.770277 102.429197 
L 84.85409 102.429197 
L 84.85409 97.717134 
L 84.93786 97.717134 
L 87.870558 97.717134 
L 87.912457 83.580945 
L 87.954349 83.580945 
L 88.205732 83.580945 
L 88.205732 74.156819 
L 88.28952 74.156819 
L 88.708485 74.156819 
L 88.708485 69.444756 
L 88.792278 69.444756 
L 88.876069 69.444756 
L 88.876069 60.02063 
L 88.959865 60.02063 
L 89.04365 60.02063 
L 89.04365 36.460315 
L 89.127438 36.460315 
L 89.211208 36.460315 
L 89.211208 22.324126 
L 89.295076 22.324126 
L 91.724948 22.324126 
L 91.724948 27.036189 
L 91.808879 27.036189 
L 92.060114 27.036189 
L 92.060114 22.324126 
L 92.143939 22.324126 
L 132.615152 22.324126 
L 132.615152 27.036189 
L 132.698973 27.036189 
L 132.78277 27.036189 
L 132.78277 22.324126 
L 132.866528 22.324126 
L 140.156423 22.324126 
L 140.156423 27.036189 
L 140.240182 27.036189 
L 140.491543 27.036189 
L 140.491543 22.324126 
L 140.575376 22.324126 
L 140.82672 22.324126 
L 140.82672 27.036189 
L 140.910527 27.036189 
L 141.497087 27.036189 
L 141.497087 22.324126 
L 141.580856 22.324126 
L 303.005 22.324126 
L 303.005 22.324126 
" style="fill:none;stroke:#66a61e;stroke-linecap:square;stroke-width:1.5;"/>
   </g>
   <g id="line2d_27">
    <path clip-path="url(#p8d06eeb0fe)" d="M 55.905 191.958393 
L 63.906237 191.958393 
L 63.906237 187.24633 
L 63.990027 187.24633 
L 64.74416 187.24633 
L 64.74416 182.534267 
L 64.827947 182.534267 
L 65.079314 182.534267 
L 65.079314 177.822204 
L 65.163116 177.822204 
L 68.26338 177.822204 
L 68.26338 173.110142 
L 68.347173 173.110142 
L 68.598545 173.110142 
L 68.598545 168.398079 
L 68.682346 168.398079 
L 71.950182 168.398079 
L 71.950182 163.686016 
L 72.033987 163.686016 
L 83.848574 163.686016 
L 83.848574 154.26189 
L 83.932349 154.26189 
L 84.016181 154.26189 
L 84.016181 144.837764 
L 84.099931 144.837764 
L 84.518905 144.837764 
L 84.518905 140.125701 
L 84.602688 140.125701 
L 85.189252 140.125701 
L 85.189252 135.413638 
L 85.27303 135.413638 
L 88.205732 135.413638 
L 88.205732 130.701575 
L 88.28952 130.701575 
L 88.540869 130.701575 
L 88.540869 121.277449 
L 88.624704 121.277449 
L 88.876069 121.277449 
L 88.876069 116.565386 
L 88.959865 116.565386 
L 89.881568 116.565386 
L 89.881568 111.853323 
L 89.965349 111.853323 
L 91.724948 111.853323 
L 91.724948 107.14126 
L 91.808879 107.14126 
L 92.060114 107.14126 
L 92.060114 102.429197 
L 92.143939 102.429197 
L 92.227695 102.429197 
L 92.227695 93.005071 
L 92.311495 93.005071 
L 92.562887 93.005071 
L 92.562887 88.293008 
L 92.646699 88.293008 
L 92.730454 88.293008 
L 92.772366 74.156819 
L 92.814262 74.156819 
L 92.898058 74.156819 
L 92.898058 64.732693 
L 92.981861 64.732693 
L 93.568363 64.732693 
L 93.568363 69.444756 
L 93.652192 69.444756 
L 96.082105 69.444756 
L 96.082105 60.02063 
L 96.165926 60.02063 
L 96.249729 60.02063 
L 96.249729 55.308567 
L 96.33352 55.308567 
L 96.584871 55.308567 
L 96.584871 50.596504 
L 96.668665 50.596504 
L 96.752474 50.596504 
L 96.752474 41.172378 
L 96.836248 41.172378 
L 96.920057 41.172378 
L 96.920057 36.460315 
L 97.003827 36.460315 
L 97.255227 36.460315 
L 97.255227 31.748252 
L 97.33899 31.748252 
L 234.840682 31.748252 
L 234.840682 36.460315 
L 234.924454 36.460315 
L 238.695065 36.460315 
L 238.695065 31.748252 
L 238.77888 31.748252 
L 303.005 31.748252 
L 303.005 31.748252 
" style="fill:none;stroke:#e6ab02;stroke-linecap:square;stroke-width:1.5;"/>
   </g>
   <g id="line2d_28">
    <path clip-path="url(#p8d06eeb0fe)" d="M 55.905 196.670456 
L 60.387017 196.670456 
L 60.387017 191.958393 
L 60.470782 191.958393 
L 63.738661 191.958393 
L 63.738661 187.24633 
L 63.822421 187.24633 
L 63.906237 187.24633 
L 63.906237 182.534267 
L 63.990027 182.534267 
L 64.241386 182.534267 
L 64.241386 177.822204 
L 64.325186 177.822204 
L 64.408967 177.822204 
L 64.408967 173.110142 
L 64.492757 173.110142 
L 64.576552 173.110142 
L 64.576552 163.686016 
L 64.660332 163.686016 
L 64.74416 163.686016 
L 64.74416 158.973953 
L 64.827947 158.973953 
L 64.911709 158.973953 
L 64.911709 154.26189 
L 64.995495 154.26189 
L 67.593053 154.26189 
L 67.593053 149.549827 
L 67.676836 149.549827 
L 67.760633 149.549827 
L 67.760633 140.125701 
L 67.844421 140.125701 
L 68.095771 140.125701 
L 68.095771 135.413638 
L 68.179583 135.413638 
L 68.26338 135.413638 
L 68.26338 125.989512 
L 68.347173 125.989512 
L 68.598545 125.989512 
L 68.598545 121.277449 
L 68.682346 121.277449 
L 68.933705 121.277449 
L 68.933705 116.565386 
L 69.017516 116.565386 
L 69.101297 116.565386 
L 69.101297 111.853323 
L 69.185074 111.853323 
L 72.117801 111.853323 
L 72.117801 107.14126 
L 72.201584 107.14126 
L 72.788121 107.14126 
L 72.788121 102.429197 
L 72.871904 102.429197 
L 77.145246 102.429197 
L 77.145246 97.717134 
L 77.229055 97.717134 
L 83.848574 97.717134 
L 83.848574 93.005071 
L 83.932349 93.005071 
L 84.35134 93.005071 
L 84.35134 78.868882 
L 84.435113 78.868882 
L 84.518905 78.868882 
L 84.518905 69.444756 
L 84.602688 69.444756 
L 84.686505 69.444756 
L 84.686505 60.02063 
L 84.770277 60.02063 
L 85.189252 60.02063 
L 85.189252 55.308567 
L 85.27303 55.308567 
L 87.5354 55.308567 
L 87.5354 50.596504 
L 87.619187 50.596504 
L 88.038138 50.596504 
L 88.038138 45.884441 
L 88.121955 45.884441 
L 88.205732 45.884441 
L 88.205732 41.172378 
L 88.28952 41.172378 
L 88.373304 41.172378 
L 88.373304 36.460315 
L 88.45709 36.460315 
L 88.876069 36.460315 
L 88.876069 31.748252 
L 88.959865 31.748252 
L 303.005 31.748252 
L 303.005 31.748252 
" style="fill:none;stroke:#a6761d;stroke-linecap:square;stroke-width:1.5;"/>
   </g>
   <g id="line2d_29">
    <path clip-path="url(#p8d06eeb0fe)" d="M 55.905 201.382519 
L 64.073804 201.382519 
L 64.073804 196.670456 
L 64.157608 196.670456 
L 64.576552 196.670456 
L 64.576552 191.958393 
L 64.660332 191.958393 
L 68.26338 191.958393 
L 68.26338 187.24633 
L 68.347173 187.24633 
L 68.598545 187.24633 
L 68.598545 191.958393 
L 68.682346 191.958393 
L 68.766127 191.958393 
L 68.766127 182.534267 
L 68.849906 182.534267 
L 84.016181 182.534267 
L 84.016181 177.822204 
L 84.099931 177.822204 
L 84.35134 177.822204 
L 84.35134 173.110142 
L 84.435113 173.110142 
L 84.686505 173.110142 
L 84.686505 168.398079 
L 84.770277 168.398079 
L 84.85409 168.398079 
L 84.85409 163.686016 
L 84.93786 163.686016 
L 85.691977 163.686016 
L 85.691977 158.973953 
L 85.775802 158.973953 
L 88.373304 158.973953 
L 88.373304 154.26189 
L 88.45709 154.26189 
L 88.876069 154.26189 
L 88.876069 149.549827 
L 88.959865 149.549827 
L 89.04365 149.549827 
L 89.04365 144.837764 
L 89.127438 144.837764 
L 91.892535 144.837764 
L 91.892535 135.413638 
L 91.97636 135.413638 
L 92.060114 135.413638 
L 92.060114 130.701575 
L 92.143939 130.701575 
L 92.227695 130.701575 
L 92.269594 116.565386 
L 92.311495 116.565386 
L 92.898058 116.565386 
L 92.898058 111.853323 
L 92.981861 111.853323 
L 93.065617 111.853323 
L 93.065617 107.14126 
L 93.149437 107.14126 
L 93.233222 107.14126 
L 93.233222 111.853323 
L 93.317031 111.853323 
L 93.40079 111.853323 
L 93.40079 107.14126 
L 93.48461 107.14126 
L 93.568363 107.14126 
L 93.568363 102.429197 
L 93.652192 102.429197 
L 95.579383 102.429197 
L 95.579383 107.14126 
L 95.663151 107.14126 
L 96.082105 107.14126 
L 96.082105 93.005071 
L 96.165926 93.005071 
L 96.417283 93.005071 
L 96.417283 88.293008 
L 96.50106 88.293008 
L 96.752474 88.293008 
L 96.752474 69.444756 
L 96.836248 69.444756 
L 96.920057 69.444756 
L 96.920057 64.732693 
L 97.003827 64.732693 
L 100.606847 64.732693 
L 100.606847 60.02063 
L 100.690632 60.02063 
L 114.181087 60.02063 
L 114.181087 55.308567 
L 114.264878 55.308567 
L 116.862404 55.308567 
L 116.862404 50.596504 
L 116.946173 50.596504 
L 117.029967 50.596504 
L 117.029967 55.308567 
L 117.113778 55.308567 
L 117.365135 55.308567 
L 117.365135 50.596504 
L 117.448945 50.596504 
L 121.387149 50.596504 
L 121.387149 45.884441 
L 121.470929 45.884441 
L 128.258003 45.884441 
L 128.258003 50.596504 
L 128.341802 50.596504 
L 132.95033 50.596504 
L 132.95033 45.884441 
L 133.034132 45.884441 
L 140.156423 45.884441 
L 140.156423 50.596504 
L 140.240182 50.596504 
L 140.491543 50.596504 
L 140.491543 55.308567 
L 140.575376 55.308567 
L 140.994297 55.308567 
L 140.994297 60.02063 
L 141.07809 60.02063 
L 145.686623 60.02063 
L 145.686623 64.732693 
L 145.770448 64.732693 
L 152.892672 64.732693 
L 152.892672 69.444756 
L 152.976488 69.444756 
L 169.650991 69.444756 
L 169.650991 74.156819 
L 169.734765 74.156819 
L 245.733564 74.156819 
L 245.733564 69.444756 
L 245.81739 69.444756 
L 250.258316 69.444756 
L 250.258316 74.156819 
L 250.342129 74.156819 
L 293.49467 74.156819 
L 293.49467 69.444756 
L 293.578448 69.444756 
L 297.349081 69.444756 
L 297.349081 74.156819 
L 297.432864 74.156819 
L 297.51665 74.156819 
L 297.51665 78.868882 
L 297.600444 78.868882 
L 300.700728 78.868882 
L 300.700728 83.580945 
L 300.784534 83.580945 
L 303.005 83.580945 
L 303.005 83.580945 
" style="fill:none;stroke:#666666;stroke-linecap:square;stroke-width:1.5;"/>
   </g>
   <g id="line2d_30">
    <path clip-path="url(#p8d06eeb0fe)" d="M 55.905 196.670456 
L 59.630074 196.670456 
L 59.630074 191.958393 
L 64.576552 191.958393 
L 64.576552 187.24633 
L 64.660332 187.24633 
L 67.928196 187.24633 
L 67.928196 182.534267 
L 68.011986 182.534267 
L 68.26338 182.534267 
L 68.26338 177.822204 
L 68.347173 177.822204 
L 68.766127 177.822204 
L 68.766127 173.110142 
L 68.849906 173.110142 
L 68.933705 173.110142 
L 68.933705 168.398079 
L 69.017516 168.398079 
L 69.939209 168.398079 
L 69.939209 163.686016 
L 70.023017 163.686016 
L 84.35134 163.686016 
L 84.35134 154.26189 
L 84.435113 154.26189 
L 88.205732 154.26189 
L 88.205732 149.549827 
L 88.28952 149.549827 
L 89.04365 149.549827 
L 89.04365 144.837764 
L 89.127438 144.837764 
L 89.546412 144.837764 
L 89.546412 140.125701 
L 89.630194 140.125701 
L 92.060114 140.125701 
L 92.060114 135.413638 
L 92.143939 135.413638 
L 92.227695 135.413638 
L 92.227695 125.989512 
L 92.311495 125.989512 
L 92.730454 125.989512 
L 92.730454 116.565386 
L 92.814262 116.565386 
L 96.417283 116.565386 
L 96.417283 111.853323 
L 96.50106 111.853323 
L 96.920057 111.853323 
L 96.920057 107.14126 
L 97.003827 107.14126 
L 97.422771 107.14126 
L 97.422771 102.429197 
L 97.506582 102.429197 
L 101.612369 102.429197 
L 101.612369 97.717134 
L 101.696162 97.717134 
L 113.175574 97.717134 
L 113.175574 93.005071 
L 113.259377 93.005071 
L 117.029967 93.005071 
L 117.029967 88.293008 
L 117.113778 88.293008 
L 121.387149 88.293008 
L 121.387149 93.005071 
L 121.470929 93.005071 
L 140.659151 93.005071 
L 140.659151 88.293008 
L 140.742962 88.293008 
L 140.82672 88.293008 
L 140.82672 93.005071 
L 140.910527 93.005071 
L 145.016307 93.005071 
L 145.016307 88.293008 
L 145.100118 88.293008 
L 174.51086 88.293008 
L 174.51086 83.580945 
L 174.594675 83.580945 
L 201.324116 83.580945 
L 201.324116 78.868882 
L 201.407906 78.868882 
L 209.870856 78.868882 
L 209.870856 83.580945 
L 209.954639 83.580945 
L 262.994603 83.580945 
L 262.994603 88.293008 
L 263.078385 88.293008 
L 265.005609 88.293008 
L 265.005609 93.005071 
L 265.089398 93.005071 
L 279.082563 93.005071 
L 279.082563 88.293008 
L 279.166338 88.293008 
L 281.42872 88.293008 
L 281.42872 83.580945 
L 281.512516 83.580945 
L 284.780343 83.580945 
L 284.780343 78.868882 
L 284.86417 78.868882 
L 289.472656 78.868882 
L 289.472656 83.580945 
L 289.556465 83.580945 
L 303.005 83.580945 
L 303.005 83.580945 
" style="fill:none;stroke:#1b9e77;stroke-dasharray:4.5,1.5;stroke-dashoffset:0;stroke-width:1.5;"/>
   </g>
   <g id="line2d_31">
    <path clip-path="url(#p8d06eeb0fe)" d="M 55.905 210.806645 
L 60.889717 210.806645 
L 60.889717 206.094582 
L 60.973513 206.094582 
L 61.560081 206.094582 
L 61.560081 201.382519 
L 61.643864 201.382519 
L 72.117801 201.382519 
L 72.117801 196.670456 
L 72.201584 196.670456 
L 83.848574 196.670456 
L 83.848574 191.958393 
L 83.932349 191.958393 
L 85.021648 191.958393 
L 85.021648 182.534267 
L 85.105432 182.534267 
L 88.205732 182.534267 
L 88.205732 177.822204 
L 88.28952 177.822204 
L 88.373304 177.822204 
L 88.373304 173.110142 
L 88.45709 173.110142 
L 88.876069 173.110142 
L 88.876069 163.686016 
L 88.959865 163.686016 
L 89.04365 163.686016 
L 89.04365 158.973953 
L 89.127438 158.973953 
L 90.049119 158.973953 
L 90.049119 154.26189 
L 90.132954 154.26189 
L 92.060114 154.26189 
L 92.060114 158.973953 
L 92.143939 158.973953 
L 92.395295 158.973953 
L 92.395295 154.26189 
L 92.479087 154.26189 
L 92.562887 154.26189 
L 92.562887 149.549827 
L 92.646699 149.549827 
L 92.898058 149.549827 
L 92.898058 144.837764 
L 92.981861 144.837764 
L 93.065617 144.837764 
L 93.065617 149.549827 
L 93.149437 149.549827 
L 93.233222 149.549827 
L 93.233222 144.837764 
L 93.317031 144.837764 
L 96.082105 144.837764 
L 96.082105 140.125701 
L 96.165926 140.125701 
L 101.444784 140.125701 
L 101.444784 135.413638 
L 101.528564 135.413638 
L 112.672821 135.413638 
L 112.672821 130.701575 
L 112.756626 130.701575 
L 128.593177 130.701575 
L 128.593177 125.989512 
L 128.677006 125.989512 
L 148.535549 125.989512 
L 148.535549 121.277449 
L 148.619344 121.277449 
L 169.650991 121.277449 
L 169.650991 116.565386 
L 169.734765 116.565386 
L 208.865354 116.565386 
L 208.865354 111.853323 
L 224.95329 111.853323 
L 224.95329 107.14126 
L 225.037101 107.14126 
L 258.134685 107.14126 
L 258.134685 102.429197 
L 258.218483 102.429197 
L 262.827006 102.429197 
L 262.827006 97.717134 
L 262.910801 97.717134 
L 269.027558 97.717134 
L 269.027558 93.005071 
L 269.111372 93.005071 
L 294.500177 93.005071 
L 294.500177 88.293008 
L 294.58397 88.293008 
L 297.349081 88.293008 
L 297.349081 83.580945 
L 297.432864 83.580945 
L 298.35455 83.580945 
L 298.35455 88.293008 
L 298.43834 88.293008 
L 303.005 88.293008 
L 303.005 88.293008 
" style="fill:none;stroke:#d95f02;stroke-dasharray:4.5,1.5;stroke-dashoffset:0;stroke-width:1.5;"/>
   </g>
   <g id="line2d_32">
    <path clip-path="url(#p8d06eeb0fe)" d="M 55.905 206.094582 
L 63.738661 206.094582 
L 63.738661 201.382519 
L 63.822421 201.382519 
L 63.906237 201.382519 
L 63.906237 196.670456 
L 63.990027 196.670456 
L 64.576552 196.670456 
L 64.576552 187.24633 
L 64.660332 187.24633 
L 67.760633 187.24633 
L 67.760633 182.534267 
L 67.844421 182.534267 
L 68.598545 182.534267 
L 68.598545 177.822204 
L 68.682346 177.822204 
L 68.766127 177.822204 
L 68.766127 173.110142 
L 68.849906 173.110142 
L 68.933705 173.110142 
L 68.933705 168.398079 
L 69.017516 168.398079 
L 84.183747 168.398079 
L 84.183747 163.686016 
L 84.267513 163.686016 
L 84.35134 163.686016 
L 84.35134 158.973953 
L 84.435113 158.973953 
L 84.518905 158.973953 
L 84.518905 149.549827 
L 84.602688 149.549827 
L 88.708485 149.549827 
L 88.708485 144.837764 
L 88.792278 144.837764 
L 88.876069 144.837764 
L 88.876069 140.125701 
L 88.959865 140.125701 
L 91.724948 140.125701 
L 91.724948 144.837764 
L 91.808879 144.837764 
L 92.227695 144.837764 
L 92.227695 135.413638 
L 92.311495 135.413638 
L 92.395295 135.413638 
L 92.395295 140.125701 
L 92.479087 140.125701 
L 92.562887 140.125701 
L 92.562887 135.413638 
L 92.646699 135.413638 
L 92.898058 135.413638 
L 92.898058 125.989512 
L 92.981861 125.989512 
L 93.065617 125.989512 
L 93.065617 121.277449 
L 93.149437 121.277449 
L 100.942006 121.277449 
L 100.942006 116.565386 
L 101.025835 116.565386 
L 101.444784 116.565386 
L 101.444784 111.853323 
L 101.528564 111.853323 
L 109.488734 111.853323 
L 109.488734 107.14126 
L 109.572527 107.14126 
L 124.738771 107.14126 
L 124.738771 102.429197 
L 124.822575 102.429197 
L 125.409101 102.429197 
L 125.409101 97.717134 
L 125.492932 97.717134 
L 128.760783 97.717134 
L 128.760783 93.005071 
L 128.84458 93.005071 
L 141.999833 93.005071 
L 141.999833 88.293008 
L 142.083594 88.293008 
L 241.879136 88.293008 
L 241.879136 93.005071 
L 241.962967 93.005071 
L 245.733564 93.005071 
L 245.733564 97.717134 
L 245.81739 97.717134 
L 281.261127 97.717134 
L 281.261127 93.005071 
L 281.344895 93.005071 
L 281.931436 93.005071 
L 281.931436 88.293008 
L 282.015238 88.293008 
L 303.005 88.293008 
L 303.005 88.293008 
" style="fill:none;stroke:#7570b3;stroke-dasharray:4.5,1.5;stroke-dashoffset:0;stroke-width:1.5;"/>
   </g>
   <g id="line2d_33">
    <path clip-path="url(#p8d06eeb0fe)" d="M 55.905 206.094582 
L 64.073804 206.094582 
L 64.073804 201.382519 
L 64.157608 201.382519 
L 68.598545 201.382519 
L 68.598545 191.958393 
L 68.682346 191.958393 
L 83.848574 191.958393 
L 83.848574 187.24633 
L 83.932349 187.24633 
L 84.183747 187.24633 
L 84.183747 182.534267 
L 84.267513 182.534267 
L 84.686505 182.534267 
L 84.686505 177.822204 
L 84.770277 177.822204 
L 87.870558 177.822204 
L 87.870558 173.110142 
L 87.954349 173.110142 
L 88.038138 173.110142 
L 88.038138 163.686016 
L 88.121955 163.686016 
L 88.205732 163.686016 
L 88.205732 158.973953 
L 88.28952 158.973953 
L 88.540869 158.973953 
L 88.540869 154.26189 
L 88.624704 154.26189 
L 88.708485 154.26189 
L 88.708485 144.837764 
L 88.792278 144.837764 
L 88.876069 144.837764 
L 88.876069 135.413638 
L 88.959865 135.413638 
L 89.546412 135.413638 
L 89.546412 130.701575 
L 89.630194 130.701575 
L 89.881568 130.701575 
L 89.881568 125.989512 
L 89.965349 125.989512 
L 90.049119 125.989512 
L 90.049119 130.701575 
L 90.132954 130.701575 
L 91.557382 130.701575 
L 91.557382 135.413638 
L 91.641194 135.413638 
L 91.724948 135.413638 
L 91.724948 140.125701 
L 91.808879 140.125701 
L 91.892535 140.125701 
L 91.892535 135.413638 
L 91.97636 135.413638 
L 92.060114 135.413638 
L 92.060114 140.125701 
L 92.143939 140.125701 
L 92.227695 140.125701 
L 92.227695 135.413638 
L 92.311495 135.413638 
L 92.395295 135.413638 
L 92.395295 130.701575 
L 92.479087 130.701575 
L 92.730454 130.701575 
L 92.730454 135.413638 
L 92.814262 135.413638 
L 96.584871 135.413638 
L 96.584871 130.701575 
L 96.668665 130.701575 
L 96.920057 130.701575 
L 96.920057 125.989512 
L 97.003827 125.989512 
L 100.774452 125.989512 
L 100.774452 121.277449 
L 100.858226 121.277449 
L 101.947518 121.277449 
L 101.947518 116.565386 
L 102.031294 116.565386 
L 112.672821 116.565386 
L 112.672821 111.853323 
L 112.756626 111.853323 
L 112.840401 111.853323 
L 112.840401 107.14126 
L 112.924199 107.14126 
L 113.510716 107.14126 
L 113.510716 102.429197 
L 113.594535 102.429197 
L 121.387149 102.429197 
L 121.387149 97.717134 
L 121.470929 97.717134 
L 121.889853 97.717134 
L 121.889853 93.005071 
L 121.973678 93.005071 
L 130.269021 93.005071 
L 130.269021 88.293008 
L 130.35279 88.293008 
L 133.955826 88.293008 
L 133.955826 93.005071 
L 134.039621 93.005071 
L 140.491543 93.005071 
L 140.491543 97.717134 
L 140.575376 97.717134 
L 169.315817 97.717134 
L 169.315817 93.005071 
L 169.399621 93.005071 
L 197.637327 93.005071 
L 197.637327 88.293008 
L 197.7211 88.293008 
L 200.821389 88.293008 
L 200.821389 83.580945 
L 200.905155 83.580945 
L 212.384584 83.580945 
L 212.384584 78.868882 
L 212.468388 78.868882 
L 236.851704 78.868882 
L 236.851704 83.580945 
L 236.935493 83.580945 
L 237.019245 83.580945 
L 237.019245 78.868882 
L 237.103035 78.868882 
L 270.7034 78.868882 
L 270.7034 83.580945 
L 270.787176 83.580945 
L 278.412214 83.580945 
L 278.412214 88.293008 
L 278.495989 88.293008 
L 290.981069 88.293008 
L 290.981069 93.005071 
L 291.064726 93.005071 
L 303.005 93.005071 
L 303.005 93.005071 
" style="fill:none;stroke:#e7298a;stroke-dasharray:4.5,1.5;stroke-dashoffset:0;stroke-width:1.5;"/>
   </g>
   <g id="line2d_34">
    <path clip-path="url(#p8d06eeb0fe)" d="M 55.905 210.806645 
L 60.219563 210.806645 
L 60.219563 206.094582 
L 60.30321 206.094582 
L 60.554591 206.094582 
L 60.554591 201.382519 
L 60.638399 201.382519 
L 64.408967 201.382519 
L 64.408967 196.670456 
L 64.492757 196.670456 
L 68.766127 196.670456 
L 68.766127 191.958393 
L 68.849906 191.958393 
L 71.447458 191.958393 
L 71.447458 187.24633 
L 71.531274 187.24633 
L 72.285354 187.24633 
L 72.285354 182.534267 
L 72.369164 182.534267 
L 72.620535 182.534267 
L 72.620535 177.822204 
L 72.704311 177.822204 
L 83.848574 177.822204 
L 83.848574 168.398079 
L 83.932349 168.398079 
L 84.183747 168.398079 
L 84.183747 163.686016 
L 84.267513 163.686016 
L 84.35134 163.686016 
L 84.35134 158.973953 
L 84.435113 158.973953 
L 84.518905 158.973953 
L 84.518905 154.26189 
L 84.602688 154.26189 
L 84.686505 154.26189 
L 84.686505 144.837764 
L 84.770277 144.837764 
L 84.85409 144.837764 
L 84.85409 140.125701 
L 84.93786 140.125701 
L 85.189252 140.125701 
L 85.189252 135.413638 
L 85.27303 135.413638 
L 85.524432 135.413638 
L 85.524432 130.701575 
L 85.608209 130.701575 
L 86.027135 130.701575 
L 86.027135 125.989512 
L 86.110967 125.989512 
L 87.870558 125.989512 
L 87.870558 121.277449 
L 87.954349 121.277449 
L 88.038138 121.277449 
L 88.038138 116.565386 
L 88.121955 116.565386 
L 88.205732 116.565386 
L 88.205732 102.429197 
L 88.28952 102.429197 
L 88.373304 102.429197 
L 88.373304 97.717134 
L 88.45709 97.717134 
L 88.540869 97.717134 
L 88.540869 93.005071 
L 88.624704 93.005071 
L 90.049119 93.005071 
L 90.049119 97.717134 
L 90.132954 97.717134 
L 92.227695 97.717134 
L 92.227695 93.005071 
L 92.311495 93.005071 
L 92.395295 93.005071 
L 92.395295 97.717134 
L 92.479087 97.717134 
L 92.562887 97.717134 
L 92.562887 93.005071 
L 92.646699 93.005071 
L 97.255227 93.005071 
L 97.255227 97.717134 
L 97.33899 97.717134 
L 97.422771 97.717134 
L 97.422771 93.005071 
L 97.506582 93.005071 
L 257.799546 93.005071 
L 257.799546 97.717134 
L 257.883304 97.717134 
L 270.7034 97.717134 
L 270.7034 93.005071 
L 270.787176 93.005071 
L 303.005 93.005071 
L 303.005 93.005071 
" style="fill:none;stroke:#66a61e;stroke-dasharray:4.5,1.5;stroke-dashoffset:0;stroke-width:1.5;"/>
   </g>
   <g id="line2d_35">
    <path clip-path="url(#p8d06eeb0fe)" d="M 131.148815 210.806645 
L 132.615152 210.806645 
L 132.615152 206.094582 
L 132.698973 206.094582 
L 137.642672 206.094582 
L 137.642672 201.382519 
L 137.726439 201.382519 
L 140.156423 201.382519 
L 140.156423 182.534267 
L 140.240182 182.534267 
L 140.491543 182.534267 
L 140.491543 173.110142 
L 140.575376 173.110142 
L 140.82672 173.110142 
L 140.82672 158.973953 
L 140.910527 158.973953 
L 141.16188 158.973953 
L 141.16188 154.26189 
L 141.245705 154.26189 
L 144.513571 154.26189 
L 144.513571 149.549827 
L 144.597361 149.549827 
L 145.351475 149.549827 
L 145.351475 144.837764 
L 145.435261 144.837764 
L 145.686623 144.837764 
L 145.686623 140.125701 
L 145.770448 140.125701 
L 146.02179 140.125701 
L 146.02179 135.413638 
L 146.105579 135.413638 
L 146.189379 135.413638 
L 146.189379 130.701575 
L 146.273153 130.701575 
L 148.535549 130.701575 
L 148.535549 125.989512 
L 148.619344 125.989512 
L 150.043767 125.989512 
L 150.043767 121.277449 
L 150.127587 121.277449 
L 152.892672 121.277449 
L 152.892672 116.565386 
L 152.976488 116.565386 
L 204.173014 116.565386 
L 204.173014 121.277449 
L 204.25681 121.277449 
L 205.010918 121.277449 
L 205.010918 116.565386 
L 205.094742 116.565386 
L 233.164861 116.565386 
L 233.164861 111.853323 
L 233.248665 111.853323 
L 233.499994 111.853323 
L 233.499994 107.14126 
L 233.583826 107.14126 
L 234.840682 107.14126 
L 234.840682 102.429197 
L 234.924454 102.429197 
L 257.63193 102.429197 
L 257.63193 97.717134 
L 257.715728 97.717134 
L 303.005 97.717134 
L 303.005 97.717134 
" style="fill:none;stroke:#e6ab02;stroke-dasharray:4.5,1.5;stroke-dashoffset:0;stroke-width:1.5;"/>
   </g>
   <g id="line2d_36">
    <path clip-path="url(#p8d06eeb0fe)" d="M 55.905 206.094582 
L 64.241386 206.094582 
L 64.241386 196.670456 
L 64.325186 196.670456 
L 67.928196 196.670456 
L 67.928196 187.24633 
L 68.011986 187.24633 
L 68.095771 187.24633 
L 68.095771 182.534267 
L 68.179583 182.534267 
L 68.766127 182.534267 
L 68.766127 177.822204 
L 68.849906 177.822204 
L 68.933705 177.822204 
L 68.933705 173.110142 
L 69.017516 173.110142 
L 84.518905 173.110142 
L 84.518905 168.398079 
L 84.602688 168.398079 
L 84.686505 168.398079 
L 84.686505 163.686016 
L 84.770277 163.686016 
L 84.85409 163.686016 
L 84.85409 158.973953 
L 84.93786 158.973953 
L 85.356802 158.973953 
L 85.356802 154.26189 
L 85.440632 154.26189 
L 85.524432 154.26189 
L 85.524432 158.973953 
L 85.608209 158.973953 
L 87.870558 158.973953 
L 87.870558 140.125701 
L 87.954349 140.125701 
L 88.205732 140.125701 
L 88.205732 130.701575 
L 88.28952 130.701575 
L 88.373304 130.701575 
L 88.373304 125.989512 
L 88.45709 125.989512 
L 88.540869 125.989512 
L 88.540869 116.565386 
L 88.624704 116.565386 
L 303.005 116.565386 
L 303.005 116.565386 
" style="fill:none;stroke:#a6761d;stroke-dasharray:4.5,1.5;stroke-dashoffset:0;stroke-width:1.5;"/>
   </g>
   <g id="line2d_37">
    <path clip-path="url(#p8d06eeb0fe)" d="M 55.905 210.806645 
L 64.576552 210.806645 
L 64.576552 206.094582 
L 64.660332 206.094582 
L 64.74416 206.094582 
L 64.74416 201.382519 
L 64.827947 201.382519 
L 68.095771 201.382519 
L 68.095771 196.670456 
L 68.179583 196.670456 
L 68.933705 196.670456 
L 68.933705 191.958393 
L 69.017516 191.958393 
L 69.268871 191.958393 
L 69.268871 187.24633 
L 69.352681 187.24633 
L 69.604053 187.24633 
L 69.604053 182.534267 
L 69.687852 182.534267 
L 72.117801 182.534267 
L 72.117801 187.24633 
L 72.201584 187.24633 
L 84.016181 187.24633 
L 84.016181 182.534267 
L 84.099931 182.534267 
L 85.021648 182.534267 
L 85.021648 173.110142 
L 85.105432 173.110142 
L 88.038138 173.110142 
L 88.038138 168.398079 
L 88.121955 168.398079 
L 88.708485 168.398079 
L 88.708485 149.549827 
L 88.792278 149.549827 
L 88.876069 149.549827 
L 88.876069 144.837764 
L 88.959865 144.837764 
L 89.04365 144.837764 
L 89.04365 140.125701 
L 89.127438 140.125701 
L 140.491543 140.125701 
L 140.491543 144.837764 
L 140.575376 144.837764 
L 140.659151 144.837764 
L 140.659151 140.125701 
L 140.742962 140.125701 
L 241.879136 140.125701 
L 241.879136 135.413638 
L 241.962967 135.413638 
L 250.258316 135.413638 
L 250.258316 130.701575 
L 250.342129 130.701575 
L 262.659426 130.701575 
L 262.659426 125.989512 
L 262.743248 125.989512 
L 265.005609 125.989512 
L 265.005609 121.277449 
L 265.089398 121.277449 
L 265.675933 121.277449 
L 265.675933 116.565386 
L 265.759711 116.565386 
L 293.49467 116.565386 
L 293.49467 121.277449 
L 293.578448 121.277449 
L 297.51665 121.277449 
L 297.51665 116.565386 
L 297.600444 116.565386 
L 303.005 116.565386 
L 303.005 116.565386 
" style="fill:none;stroke:#666666;stroke-dasharray:4.5,1.5;stroke-dashoffset:0;stroke-width:1.5;"/>
   </g>
   <g id="line2d_38"/>
   <g id="line2d_39"/>
   <g id="line2d_40"/>
   <g id="line2d_41"/>
   <g id="line2d_42"/>
   <g id="line2d_43"/>
   <g id="line2d_44"/>
   <g id="line2d_45"/>
   <g id="line2d_46"/>
   <g id="line2d_47"/>
   <g id="line2d_48"/>
   <g id="line2d_49"/>
   <g id="line2d_50"/>
   <g id="line2d_51"/>
   <g id="line2d_52"/>
   <g id="line2d_53"/>
   <g id="line2d_54"/>
   <g id="patch_3">
    <path d="M 43.55 220.230771 
L 43.55 12.9 
" style="fill:none;stroke:#000000;stroke-linecap:square;stroke-linejoin:miter;stroke-width:0.8;"/>
   </g>
   <g id="patch_4">
    <path d="M 315.36 220.230771 
L 315.36 12.9 
" style="fill:none;stroke:#000000;stroke-linecap:square;stroke-linejoin:miter;stroke-width:0.8;"/>
   </g>
   <g id="patch_5">
    <path d="M 43.55 220.230771 
L 315.36 220.230771 
" style="fill:none;stroke:#000000;stroke-linecap:square;stroke-linejoin:miter;stroke-width:0.8;"/>
   </g>
   <g id="patch_6">
    <path d="M 43.55 12.9 
L 315.36 12.9 
" style="fill:none;stroke:#000000;stroke-linecap:square;stroke-linejoin:miter;stroke-width:0.8;"/>
   </g>
  </g>
  <g id="legend_1">
   <g id="patch_7">
    <path d="M 331.8625 262.528125 
L 420 262.528125 
Q 422 262.528125 422 260.528125 
L 422 12 
Q 422 10 420 10 
L 331.8625 10 
Q 329.8625 10 329.8625 12 
L 329.8625 260.528125 
Q 329.8625 262.528125 331.8625 262.528125 
z
" style="fill:#ffffff;opacity:0.8;stroke:#cccccc;stroke-linejoin:miter;"/>
   </g>
   <g id="text_24">
    <!-- 496/610 Reg. -->
    <defs>
     <path d="M 33.015625 40.375 
Q 26.375 40.375 22.484375 35.828125 
Q 18.609375 31.296875 18.609375 23.390625 
Q 18.609375 15.53125 22.484375 10.953125 
Q 26.375 6.390625 33.015625 6.390625 
Q 39.65625 6.390625 43.53125 10.953125 
Q 47.40625 15.53125 47.40625 23.390625 
Q 47.40625 31.296875 43.53125 35.828125 
Q 39.65625 40.375 33.015625 40.375 
z
M 52.59375 71.296875 
L 52.59375 62.3125 
Q 48.875 64.0625 45.09375 64.984375 
Q 41.3125 65.921875 37.59375 65.921875 
Q 27.828125 65.921875 22.671875 59.328125 
Q 17.53125 52.734375 16.796875 39.40625 
Q 19.671875 43.65625 24.015625 45.921875 
Q 28.375 48.1875 33.59375 48.1875 
Q 44.578125 48.1875 50.953125 41.515625 
Q 57.328125 34.859375 57.328125 23.390625 
Q 57.328125 12.15625 50.6875 5.359375 
Q 44.046875 -1.421875 33.015625 -1.421875 
Q 20.359375 -1.421875 13.671875 8.265625 
Q 6.984375 17.96875 6.984375 36.375 
Q 6.984375 53.65625 15.1875 63.9375 
Q 23.390625 74.21875 37.203125 74.21875 
Q 40.921875 74.21875 44.703125 73.484375 
Q 48.484375 72.75 52.59375 71.296875 
z
" id="DejaVuSans-54"/>
     <path d="M 25.390625 72.90625 
L 33.6875 72.90625 
L 8.296875 -9.28125 
L 0 -9.28125 
z
" id="DejaVuSans-47"/>
     <path d="M 10.6875 12.40625 
L 21 12.40625 
L 21 0 
L 10.6875 0 
z
" id="DejaVuSans-46"/>
    </defs>
    <g transform="translate(342.259375 21.598437)scale(0.1 -0.1)">
     <use xlink:href="#DejaVuSans-52"/>
     <use x="63.623047" xlink:href="#DejaVuSans-57"/>
     <use x="127.246094" xlink:href="#DejaVuSans-54"/>
     <use x="190.869141" xlink:href="#DejaVuSans-47"/>
     <use x="224.560547" xlink:href="#DejaVuSans-54"/>
     <use x="288.183594" xlink:href="#DejaVuSans-49"/>
     <use x="351.806641" xlink:href="#DejaVuSans-48"/>
     <use x="415.429688" xlink:href="#DejaVuSans-32"/>
     <use x="447.216797" xlink:href="#DejaVuSans-82"/>
     <use x="516.636719" xlink:href="#DejaVuSans-101"/>
     <use x="578.160156" xlink:href="#DejaVuSans-103"/>
     <use x="641.636719" xlink:href="#DejaVuSans-46"/>
    </g>
   </g>
   <g id="line2d_55">
    <path d="M 333.8625 32.776562 
L 353.8625 32.776562 
" style="fill:none;stroke:#1b9e77;stroke-linecap:square;stroke-width:1.5;"/>
   </g>
   <g id="line2d_56"/>
   <g id="text_25">
    <!-- SA (40) -->
    <defs>
     <path d="M 34.1875 63.1875 
L 20.796875 26.90625 
L 47.609375 26.90625 
z
M 28.609375 72.90625 
L 39.796875 72.90625 
L 67.578125 0 
L 57.328125 0 
L 50.6875 18.703125 
L 17.828125 18.703125 
L 11.1875 0 
L 0.78125 0 
z
" id="DejaVuSans-65"/>
     <path d="M 31 75.875 
Q 24.46875 64.65625 21.28125 53.65625 
Q 18.109375 42.671875 18.109375 31.390625 
Q 18.109375 20.125 21.3125 9.0625 
Q 24.515625 -2 31 -13.1875 
L 23.1875 -13.1875 
Q 15.875 -1.703125 12.234375 9.375 
Q 8.59375 20.453125 8.59375 31.390625 
Q 8.59375 42.28125 12.203125 53.3125 
Q 15.828125 64.359375 23.1875 75.875 
z
" id="DejaVuSans-40"/>
     <path d="M 8.015625 75.875 
L 15.828125 75.875 
Q 23.140625 64.359375 26.78125 53.3125 
Q 30.421875 42.28125 30.421875 31.390625 
Q 30.421875 20.453125 26.78125 9.375 
Q 23.140625 -1.703125 15.828125 -13.1875 
L 8.015625 -13.1875 
Q 14.5 -2 17.703125 9.0625 
Q 20.90625 20.125 20.90625 31.390625 
Q 20.90625 42.671875 17.703125 53.65625 
Q 14.5 64.65625 8.015625 75.875 
z
" id="DejaVuSans-41"/>
    </defs>
    <g transform="translate(361.8625 36.276562)scale(0.1 -0.1)">
     <use xlink:href="#DejaVuSans-83"/>
     <use x="63.492188" xlink:href="#DejaVuSans-65"/>
     <use x="131.900391" xlink:href="#DejaVuSans-32"/>
     <use x="163.6875" xlink:href="#DejaVuSans-40"/>
     <use x="202.701172" xlink:href="#DejaVuSans-52"/>
     <use x="266.324219" xlink:href="#DejaVuSans-48"/>
     <use x="329.947266" xlink:href="#DejaVuSans-41"/>
    </g>
   </g>
   <g id="line2d_57">
    <path d="M 333.8625 47.454688 
L 353.8625 47.454688 
" style="fill:none;stroke:#d95f02;stroke-linecap:square;stroke-width:1.5;"/>
   </g>
   <g id="line2d_58"/>
   <g id="text_26">
    <!-- AS (40) -->
    <g transform="translate(361.8625 50.954688)scale(0.1 -0.1)">
     <use xlink:href="#DejaVuSans-65"/>
     <use x="68.408203" xlink:href="#DejaVuSans-83"/>
     <use x="131.884766" xlink:href="#DejaVuSans-32"/>
     <use x="163.671875" xlink:href="#DejaVuSans-40"/>
     <use x="202.685547" xlink:href="#DejaVuSans-52"/>
     <use x="266.308594" xlink:href="#DejaVuSans-48"/>
     <use x="329.931641" xlink:href="#DejaVuSans-41"/>
    </g>
   </g>
   <g id="line2d_59">
    <path d="M 333.8625 62.132812 
L 353.8625 62.132812 
" style="fill:none;stroke:#7570b3;stroke-linecap:square;stroke-width:1.5;"/>
   </g>
   <g id="line2d_60"/>
   <g id="text_27">
    <!-- AUS (40) -->
    <defs>
     <path d="M 8.6875 72.90625 
L 18.609375 72.90625 
L 18.609375 28.609375 
Q 18.609375 16.890625 22.84375 11.734375 
Q 27.09375 6.59375 36.625 6.59375 
Q 46.09375 6.59375 50.34375 11.734375 
Q 54.59375 16.890625 54.59375 28.609375 
L 54.59375 72.90625 
L 64.5 72.90625 
L 64.5 27.390625 
Q 64.5 13.140625 57.4375 5.859375 
Q 50.390625 -1.421875 36.625 -1.421875 
Q 22.796875 -1.421875 15.734375 5.859375 
Q 8.6875 13.140625 8.6875 27.390625 
z
" id="DejaVuSans-85"/>
    </defs>
    <g transform="translate(361.8625 65.632812)scale(0.1 -0.1)">
     <use xlink:href="#DejaVuSans-65"/>
     <use x="68.408203" xlink:href="#DejaVuSans-85"/>
     <use x="141.601562" xlink:href="#DejaVuSans-83"/>
     <use x="205.078125" xlink:href="#DejaVuSans-32"/>
     <use x="236.865234" xlink:href="#DejaVuSans-40"/>
     <use x="275.878906" xlink:href="#DejaVuSans-52"/>
     <use x="339.501953" xlink:href="#DejaVuSans-48"/>
     <use x="403.125" xlink:href="#DejaVuSans-41"/>
    </g>
   </g>
   <g id="line2d_61">
    <path d="M 333.8625 76.810937 
L 353.8625 76.810937 
" style="fill:none;stroke:#e7298a;stroke-linecap:square;stroke-width:1.5;"/>
   </g>
   <g id="line2d_62"/>
   <g id="text_28">
    <!-- COML (40) -->
    <defs>
     <path d="M 64.40625 67.28125 
L 64.40625 56.890625 
Q 59.421875 61.53125 53.78125 63.8125 
Q 48.140625 66.109375 41.796875 66.109375 
Q 29.296875 66.109375 22.65625 58.46875 
Q 16.015625 50.828125 16.015625 36.375 
Q 16.015625 21.96875 22.65625 14.328125 
Q 29.296875 6.6875 41.796875 6.6875 
Q 48.140625 6.6875 53.78125 8.984375 
Q 59.421875 11.28125 64.40625 15.921875 
L 64.40625 5.609375 
Q 59.234375 2.09375 53.4375 0.328125 
Q 47.65625 -1.421875 41.21875 -1.421875 
Q 24.65625 -1.421875 15.125 8.703125 
Q 5.609375 18.84375 5.609375 36.375 
Q 5.609375 53.953125 15.125 64.078125 
Q 24.65625 74.21875 41.21875 74.21875 
Q 47.75 74.21875 53.53125 72.484375 
Q 59.328125 70.75 64.40625 67.28125 
z
" id="DejaVuSans-67"/>
     <path d="M 39.40625 66.21875 
Q 28.65625 66.21875 22.328125 58.203125 
Q 16.015625 50.203125 16.015625 36.375 
Q 16.015625 22.609375 22.328125 14.59375 
Q 28.65625 6.59375 39.40625 6.59375 
Q 50.140625 6.59375 56.421875 14.59375 
Q 62.703125 22.609375 62.703125 36.375 
Q 62.703125 50.203125 56.421875 58.203125 
Q 50.140625 66.21875 39.40625 66.21875 
z
M 39.40625 74.21875 
Q 54.734375 74.21875 63.90625 63.9375 
Q 73.09375 53.65625 73.09375 36.375 
Q 73.09375 19.140625 63.90625 8.859375 
Q 54.734375 -1.421875 39.40625 -1.421875 
Q 24.03125 -1.421875 14.8125 8.828125 
Q 5.609375 19.09375 5.609375 36.375 
Q 5.609375 53.65625 14.8125 63.9375 
Q 24.03125 74.21875 39.40625 74.21875 
z
" id="DejaVuSans-79"/>
     <path d="M 9.8125 72.90625 
L 24.515625 72.90625 
L 43.109375 23.296875 
L 61.8125 72.90625 
L 76.515625 72.90625 
L 76.515625 0 
L 66.890625 0 
L 66.890625 64.015625 
L 48.09375 14.015625 
L 38.1875 14.015625 
L 19.390625 64.015625 
L 19.390625 0 
L 9.8125 0 
z
" id="DejaVuSans-77"/>
     <path d="M 9.8125 72.90625 
L 19.671875 72.90625 
L 19.671875 8.296875 
L 55.171875 8.296875 
L 55.171875 0 
L 9.8125 0 
z
" id="DejaVuSans-76"/>
    </defs>
    <g transform="translate(361.8625 80.310937)scale(0.1 -0.1)">
     <use xlink:href="#DejaVuSans-67"/>
     <use x="69.824219" xlink:href="#DejaVuSans-79"/>
     <use x="148.535156" xlink:href="#DejaVuSans-77"/>
     <use x="234.814453" xlink:href="#DejaVuSans-76"/>
     <use x="290.527344" xlink:href="#DejaVuSans-32"/>
     <use x="322.314453" xlink:href="#DejaVuSans-40"/>
     <use x="361.328125" xlink:href="#DejaVuSans-52"/>
     <use x="424.951172" xlink:href="#DejaVuSans-48"/>
     <use x="488.574219" xlink:href="#DejaVuSans-41"/>
    </g>
   </g>
   <g id="line2d_63">
    <path d="M 333.8625 91.489062 
L 353.8625 91.489062 
" style="fill:none;stroke:#66a61e;stroke-linecap:square;stroke-width:1.5;"/>
   </g>
   <g id="line2d_64"/>
   <g id="text_29">
    <!-- GDD (40) -->
    <defs>
     <path d="M 59.515625 10.40625 
L 59.515625 29.984375 
L 43.40625 29.984375 
L 43.40625 38.09375 
L 69.28125 38.09375 
L 69.28125 6.78125 
Q 63.578125 2.734375 56.6875 0.65625 
Q 49.8125 -1.421875 42 -1.421875 
Q 24.90625 -1.421875 15.25 8.5625 
Q 5.609375 18.5625 5.609375 36.375 
Q 5.609375 54.25 15.25 64.234375 
Q 24.90625 74.21875 42 74.21875 
Q 49.125 74.21875 55.546875 72.453125 
Q 61.96875 70.703125 67.390625 67.28125 
L 67.390625 56.78125 
Q 61.921875 61.421875 55.765625 63.765625 
Q 49.609375 66.109375 42.828125 66.109375 
Q 29.4375 66.109375 22.71875 58.640625 
Q 16.015625 51.171875 16.015625 36.375 
Q 16.015625 21.625 22.71875 14.15625 
Q 29.4375 6.6875 42.828125 6.6875 
Q 48.046875 6.6875 52.140625 7.59375 
Q 56.25 8.5 59.515625 10.40625 
z
" id="DejaVuSans-71"/>
    </defs>
    <g transform="translate(361.8625 94.989062)scale(0.1 -0.1)">
     <use xlink:href="#DejaVuSans-71"/>
     <use x="77.490234" xlink:href="#DejaVuSans-68"/>
     <use x="154.492188" xlink:href="#DejaVuSans-68"/>
     <use x="231.494141" xlink:href="#DejaVuSans-32"/>
     <use x="263.28125" xlink:href="#DejaVuSans-40"/>
     <use x="302.294922" xlink:href="#DejaVuSans-52"/>
     <use x="365.917969" xlink:href="#DejaVuSans-48"/>
     <use x="429.541016" xlink:href="#DejaVuSans-41"/>
    </g>
   </g>
   <g id="line2d_65">
    <path d="M 333.8625 106.167188 
L 353.8625 106.167188 
" style="fill:none;stroke:#e6ab02;stroke-linecap:square;stroke-width:1.5;"/>
   </g>
   <g id="line2d_66"/>
   <g id="text_30">
    <!-- MD (38) -->
    <g transform="translate(361.8625 109.667188)scale(0.1 -0.1)">
     <use xlink:href="#DejaVuSans-77"/>
     <use x="86.279297" xlink:href="#DejaVuSans-68"/>
     <use x="163.28125" xlink:href="#DejaVuSans-32"/>
     <use x="195.068359" xlink:href="#DejaVuSans-40"/>
     <use x="234.082031" xlink:href="#DejaVuSans-51"/>
     <use x="297.705078" xlink:href="#DejaVuSans-56"/>
     <use x="361.328125" xlink:href="#DejaVuSans-41"/>
    </g>
   </g>
   <g id="line2d_67">
    <path d="M 333.8625 120.845312 
L 353.8625 120.845312 
" style="fill:none;stroke:#a6761d;stroke-linecap:square;stroke-width:1.5;"/>
   </g>
   <g id="line2d_68"/>
   <g id="text_31">
    <!-- HPI (38) -->
    <defs>
     <path d="M 9.8125 72.90625 
L 19.671875 72.90625 
L 19.671875 43.015625 
L 55.515625 43.015625 
L 55.515625 72.90625 
L 65.375 72.90625 
L 65.375 0 
L 55.515625 0 
L 55.515625 34.71875 
L 19.671875 34.71875 
L 19.671875 0 
L 9.8125 0 
z
" id="DejaVuSans-72"/>
     <path d="M 19.671875 64.796875 
L 19.671875 37.40625 
L 32.078125 37.40625 
Q 38.96875 37.40625 42.71875 40.96875 
Q 46.484375 44.53125 46.484375 51.125 
Q 46.484375 57.671875 42.71875 61.234375 
Q 38.96875 64.796875 32.078125 64.796875 
z
M 9.8125 72.90625 
L 32.078125 72.90625 
Q 44.34375 72.90625 50.609375 67.359375 
Q 56.890625 61.8125 56.890625 51.125 
Q 56.890625 40.328125 50.609375 34.8125 
Q 44.34375 29.296875 32.078125 29.296875 
L 19.671875 29.296875 
L 19.671875 0 
L 9.8125 0 
z
" id="DejaVuSans-80"/>
     <path d="M 9.8125 72.90625 
L 19.671875 72.90625 
L 19.671875 0 
L 9.8125 0 
z
" id="DejaVuSans-73"/>
    </defs>
    <g transform="translate(361.8625 124.345312)scale(0.1 -0.1)">
     <use xlink:href="#DejaVuSans-72"/>
     <use x="75.195312" xlink:href="#DejaVuSans-80"/>
     <use x="135.498047" xlink:href="#DejaVuSans-73"/>
     <use x="164.990234" xlink:href="#DejaVuSans-32"/>
     <use x="196.777344" xlink:href="#DejaVuSans-40"/>
     <use x="235.791016" xlink:href="#DejaVuSans-51"/>
     <use x="299.414062" xlink:href="#DejaVuSans-56"/>
     <use x="363.037109" xlink:href="#DejaVuSans-41"/>
    </g>
   </g>
   <g id="line2d_69">
    <path d="M 333.8625 135.523438 
L 353.8625 135.523438 
" style="fill:none;stroke:#666666;stroke-linecap:square;stroke-width:1.5;"/>
   </g>
   <g id="line2d_70"/>
   <g id="text_32">
    <!-- FIT (27) -->
    <defs>
     <path d="M 9.8125 72.90625 
L 51.703125 72.90625 
L 51.703125 64.59375 
L 19.671875 64.59375 
L 19.671875 43.109375 
L 48.578125 43.109375 
L 48.578125 34.8125 
L 19.671875 34.8125 
L 19.671875 0 
L 9.8125 0 
z
" id="DejaVuSans-70"/>
     <path d="M -0.296875 72.90625 
L 61.375 72.90625 
L 61.375 64.59375 
L 35.5 64.59375 
L 35.5 0 
L 25.59375 0 
L 25.59375 64.59375 
L -0.296875 64.59375 
z
" id="DejaVuSans-84"/>
     <path d="M 8.203125 72.90625 
L 55.078125 72.90625 
L 55.078125 68.703125 
L 28.609375 0 
L 18.3125 0 
L 43.21875 64.59375 
L 8.203125 64.59375 
z
" id="DejaVuSans-55"/>
    </defs>
    <g transform="translate(361.8625 139.023438)scale(0.1 -0.1)">
     <use xlink:href="#DejaVuSans-70"/>
     <use x="57.519531" xlink:href="#DejaVuSans-73"/>
     <use x="87.011719" xlink:href="#DejaVuSans-84"/>
     <use x="148.095703" xlink:href="#DejaVuSans-32"/>
     <use x="179.882812" xlink:href="#DejaVuSans-40"/>
     <use x="218.896484" xlink:href="#DejaVuSans-50"/>
     <use x="282.519531" xlink:href="#DejaVuSans-55"/>
     <use x="346.142578" xlink:href="#DejaVuSans-41"/>
    </g>
   </g>
   <g id="line2d_71">
    <path d="M 333.8625 150.201562 
L 353.8625 150.201562 
" style="fill:none;stroke:#1b9e77;stroke-dasharray:4.5,1.5;stroke-dashoffset:0;stroke-width:1.5;"/>
   </g>
   <g id="line2d_72"/>
   <g id="text_33">
    <!-- TBI (27) -->
    <defs>
     <path d="M 19.671875 34.8125 
L 19.671875 8.109375 
L 35.5 8.109375 
Q 43.453125 8.109375 47.28125 11.40625 
Q 51.125 14.703125 51.125 21.484375 
Q 51.125 28.328125 47.28125 31.5625 
Q 43.453125 34.8125 35.5 34.8125 
z
M 19.671875 64.796875 
L 19.671875 42.828125 
L 34.28125 42.828125 
Q 41.5 42.828125 45.03125 45.53125 
Q 48.578125 48.25 48.578125 53.8125 
Q 48.578125 59.328125 45.03125 62.0625 
Q 41.5 64.796875 34.28125 64.796875 
z
M 9.8125 72.90625 
L 35.015625 72.90625 
Q 46.296875 72.90625 52.390625 68.21875 
Q 58.5 63.53125 58.5 54.890625 
Q 58.5 48.1875 55.375 44.234375 
Q 52.25 40.28125 46.1875 39.3125 
Q 53.46875 37.75 57.5 32.78125 
Q 61.53125 27.828125 61.53125 20.40625 
Q 61.53125 10.640625 54.890625 5.3125 
Q 48.25 0 35.984375 0 
L 9.8125 0 
z
" id="DejaVuSans-66"/>
    </defs>
    <g transform="translate(361.8625 153.701562)scale(0.1 -0.1)">
     <use xlink:href="#DejaVuSans-84"/>
     <use x="61.083984" xlink:href="#DejaVuSans-66"/>
     <use x="129.6875" xlink:href="#DejaVuSans-73"/>
     <use x="159.179688" xlink:href="#DejaVuSans-32"/>
     <use x="190.966797" xlink:href="#DejaVuSans-40"/>
     <use x="229.980469" xlink:href="#DejaVuSans-50"/>
     <use x="293.603516" xlink:href="#DejaVuSans-55"/>
     <use x="357.226562" xlink:href="#DejaVuSans-41"/>
    </g>
   </g>
   <g id="line2d_73">
    <path d="M 333.8625 164.879687 
L 353.8625 164.879687 
" style="fill:none;stroke:#d95f02;stroke-dasharray:4.5,1.5;stroke-dashoffset:0;stroke-width:1.5;"/>
   </g>
   <g id="line2d_74"/>
   <g id="text_34">
    <!-- CB (26) -->
    <g transform="translate(361.8625 168.379687)scale(0.1 -0.1)">
     <use xlink:href="#DejaVuSans-67"/>
     <use x="69.824219" xlink:href="#DejaVuSans-66"/>
     <use x="138.427734" xlink:href="#DejaVuSans-32"/>
     <use x="170.214844" xlink:href="#DejaVuSans-40"/>
     <use x="209.228516" xlink:href="#DejaVuSans-50"/>
     <use x="272.851562" xlink:href="#DejaVuSans-54"/>
     <use x="336.474609" xlink:href="#DejaVuSans-41"/>
    </g>
   </g>
   <g id="line2d_75">
    <path d="M 333.8625 179.557812 
L 353.8625 179.557812 
" style="fill:none;stroke:#7570b3;stroke-dasharray:4.5,1.5;stroke-dashoffset:0;stroke-width:1.5;"/>
   </g>
   <g id="line2d_76"/>
   <g id="text_35">
    <!-- BP (26) -->
    <g transform="translate(361.8625 183.057812)scale(0.1 -0.1)">
     <use xlink:href="#DejaVuSans-66"/>
     <use x="68.603516" xlink:href="#DejaVuSans-80"/>
     <use x="128.90625" xlink:href="#DejaVuSans-32"/>
     <use x="160.693359" xlink:href="#DejaVuSans-40"/>
     <use x="199.707031" xlink:href="#DejaVuSans-50"/>
     <use x="263.330078" xlink:href="#DejaVuSans-54"/>
     <use x="326.953125" xlink:href="#DejaVuSans-41"/>
    </g>
   </g>
   <g id="line2d_77">
    <path d="M 333.8625 194.235937 
L 353.8625 194.235937 
" style="fill:none;stroke:#e7298a;stroke-dasharray:4.5,1.5;stroke-dashoffset:0;stroke-width:1.5;"/>
   </g>
   <g id="line2d_78"/>
   <g id="text_36">
    <!-- SPD (25) -->
    <g transform="translate(361.8625 197.735937)scale(0.1 -0.1)">
     <use xlink:href="#DejaVuSans-83"/>
     <use x="63.476562" xlink:href="#DejaVuSans-80"/>
     <use x="123.779297" xlink:href="#DejaVuSans-68"/>
     <use x="200.78125" xlink:href="#DejaVuSans-32"/>
     <use x="232.568359" xlink:href="#DejaVuSans-40"/>
     <use x="271.582031" xlink:href="#DejaVuSans-50"/>
     <use x="335.205078" xlink:href="#DejaVuSans-53"/>
     <use x="398.828125" xlink:href="#DejaVuSans-41"/>
    </g>
   </g>
   <g id="line2d_79">
    <path d="M 333.8625 208.914062 
L 353.8625 208.914062 
" style="fill:none;stroke:#66a61e;stroke-dasharray:4.5,1.5;stroke-dashoffset:0;stroke-width:1.5;"/>
   </g>
   <g id="line2d_80"/>
   <g id="text_37">
    <!-- CC (25) -->
    <g transform="translate(361.8625 212.414062)scale(0.1 -0.1)">
     <use xlink:href="#DejaVuSans-67"/>
     <use x="69.824219" xlink:href="#DejaVuSans-67"/>
     <use x="139.648438" xlink:href="#DejaVuSans-32"/>
     <use x="171.435547" xlink:href="#DejaVuSans-40"/>
     <use x="210.449219" xlink:href="#DejaVuSans-50"/>
     <use x="274.072266" xlink:href="#DejaVuSans-53"/>
     <use x="337.695312" xlink:href="#DejaVuSans-41"/>
    </g>
   </g>
   <g id="line2d_81">
    <path d="M 333.8625 223.592187 
L 353.8625 223.592187 
" style="fill:none;stroke:#e6ab02;stroke-dasharray:4.5,1.5;stroke-dashoffset:0;stroke-width:1.5;"/>
   </g>
   <g id="line2d_82"/>
   <g id="text_38">
    <!-- RJPH (24) -->
    <defs>
     <path d="M 9.8125 72.90625 
L 19.671875 72.90625 
L 19.671875 5.078125 
Q 19.671875 -8.109375 14.671875 -14.0625 
Q 9.671875 -20.015625 -1.421875 -20.015625 
L -5.171875 -20.015625 
L -5.171875 -11.71875 
L -2.09375 -11.71875 
Q 4.4375 -11.71875 7.125 -8.046875 
Q 9.8125 -4.390625 9.8125 5.078125 
z
" id="DejaVuSans-74"/>
    </defs>
    <g transform="translate(361.8625 227.092187)scale(0.1 -0.1)">
     <use xlink:href="#DejaVuSans-82"/>
     <use x="69.482422" xlink:href="#DejaVuSans-74"/>
     <use x="98.974609" xlink:href="#DejaVuSans-80"/>
     <use x="159.277344" xlink:href="#DejaVuSans-72"/>
     <use x="234.472656" xlink:href="#DejaVuSans-32"/>
     <use x="266.259766" xlink:href="#DejaVuSans-40"/>
     <use x="305.273438" xlink:href="#DejaVuSans-50"/>
     <use x="368.896484" xlink:href="#DejaVuSans-52"/>
     <use x="432.519531" xlink:href="#DejaVuSans-41"/>
    </g>
   </g>
   <g id="line2d_83">
    <path d="M 333.8625 238.270312 
L 353.8625 238.270312 
" style="fill:none;stroke:#a6761d;stroke-dasharray:4.5,1.5;stroke-dashoffset:0;stroke-width:1.5;"/>
   </g>
   <g id="line2d_84"/>
   <g id="text_39">
    <!-- AHR-H (20) -->
    <g transform="translate(361.8625 241.770312)scale(0.1 -0.1)">
     <use xlink:href="#DejaVuSans-65"/>
     <use x="68.408203" xlink:href="#DejaVuSans-72"/>
     <use x="143.603516" xlink:href="#DejaVuSans-82"/>
     <use x="213.023438" xlink:href="#DejaVuSans-45"/>
     <use x="249.107422" xlink:href="#DejaVuSans-72"/>
     <use x="324.302734" xlink:href="#DejaVuSans-32"/>
     <use x="356.089844" xlink:href="#DejaVuSans-40"/>
     <use x="395.103516" xlink:href="#DejaVuSans-50"/>
     <use x="458.726562" xlink:href="#DejaVuSans-48"/>
     <use x="522.349609" xlink:href="#DejaVuSans-41"/>
    </g>
   </g>
   <g id="line2d_85">
    <path d="M 333.8625 252.948437 
L 353.8625 252.948437 
" style="fill:none;stroke:#666666;stroke-dasharray:4.5,1.5;stroke-dashoffset:0;stroke-width:1.5;"/>
   </g>
   <g id="line2d_86"/>
   <g id="text_40">
    <!-- AHR-A (20) -->
    <g transform="translate(361.8625 256.448437)scale(0.1 -0.1)">
     <use xlink:href="#DejaVuSans-65"/>
     <use x="68.408203" xlink:href="#DejaVuSans-72"/>
     <use x="143.603516" xlink:href="#DejaVuSans-82"/>
     <use x="213.023438" xlink:href="#DejaVuSans-45"/>
     <use x="249.076172" xlink:href="#DejaVuSans-65"/>
     <use x="317.484375" xlink:href="#DejaVuSans-32"/>
     <use x="349.271484" xlink:href="#DejaVuSans-40"/>
     <use x="388.285156" xlink:href="#DejaVuSans-50"/>
     <use x="451.908203" xlink:href="#DejaVuSans-48"/>
     <use x="515.53125" xlink:href="#DejaVuSans-41"/>
    </g>
   </g>
  </g>
 </g>
 <defs>
  <clipPath id="p8d06eeb0fe">
   <rect height="207.330771" width="271.81" x="43.55" y="12.9"/>
  </clipPath>
 </defs>
</svg>
