<?xml version="1.0" encoding="utf-8" standalone="no"?>
<!DOCTYPE svg PUBLIC "-//W3C//DTD SVG 1.1//EN"
  "http://www.w3.org/Graphics/SVG/1.1/DTD/svg11.dtd">
<!-- Created with matplotlib (https://matplotlib.org/) -->
<svg height="288pt" version="1.1" viewBox="0 0 432 288" width="432pt" xmlns="http://www.w3.org/2000/svg" xmlns:xlink="http://www.w3.org/1999/xlink">
 <defs>
  <style type="text/css">
*{stroke-linecap:butt;stroke-linejoin:round;}
  </style>
 </defs>
 <g id="figure_1">
  <g id="patch_1">
   <path d="M 0 288 
L 432 288 
L 432 0 
L 0 0 
z
" style="fill:#ffffff;"/>
  </g>
  <g id="axes_1">
   <g id="patch_2">
    <path d="M 43.55 220.230771 
L 315.36 220.230771 
L 315.36 12.9 
L 43.55 12.9 
z
" style="fill:#ffffff;"/>
   </g>
   <g id="matplotlib.axis_1">
    <g id="xtick_1">
     <g id="line2d_1">
      <defs>
       <path d="M 0 0 
L 0 3.5 
" id="mdec34e3826" style="stroke:#000000;stroke-width:0.8;"/>
      </defs>
      <g>
       <use style="stroke:#000000;stroke-width:0.8;" x="48.195384" xlink:href="#mdec34e3826" y="220.230771"/>
      </g>
     </g>
     <g id="text_1">
      <!-- 2020-11-29 -->
      <defs>
       <path d="M 19.1875 8.296875 
L 53.609375 8.296875 
L 53.609375 0 
L 7.328125 0 
L 7.328125 8.296875 
Q 12.9375 14.109375 22.625 23.890625 
Q 32.328125 33.6875 34.8125 36.53125 
Q 39.546875 41.84375 41.421875 45.53125 
Q 43.3125 49.21875 43.3125 52.78125 
Q 43.3125 58.59375 39.234375 62.25 
Q 35.15625 65.921875 28.609375 65.921875 
Q 23.96875 65.921875 18.8125 64.3125 
Q 13.671875 62.703125 7.8125 59.421875 
L 7.8125 69.390625 
Q 13.765625 71.78125 18.9375 73 
Q 24.125 74.21875 28.421875 74.21875 
Q 39.75 74.21875 46.484375 68.546875 
Q 53.21875 62.890625 53.21875 53.421875 
Q 53.21875 48.921875 51.53125 44.890625 
Q 49.859375 40.875 45.40625 35.40625 
Q 44.1875 33.984375 37.640625 27.21875 
Q 31.109375 20.453125 19.1875 8.296875 
z
" id="DejaVuSans-50"/>
       <path d="M 31.78125 66.40625 
Q 24.171875 66.40625 20.328125 58.90625 
Q 16.5 51.421875 16.5 36.375 
Q 16.5 21.390625 20.328125 13.890625 
Q 24.171875 6.390625 31.78125 6.390625 
Q 39.453125 6.390625 43.28125 13.890625 
Q 47.125 21.390625 47.125 36.375 
Q 47.125 51.421875 43.28125 58.90625 
Q 39.453125 66.40625 31.78125 66.40625 
z
M 31.78125 74.21875 
Q 44.046875 74.21875 50.515625 64.515625 
Q 56.984375 54.828125 56.984375 36.375 
Q 56.984375 17.96875 50.515625 8.265625 
Q 44.046875 -1.421875 31.78125 -1.421875 
Q 19.53125 -1.421875 13.0625 8.265625 
Q 6.59375 17.96875 6.59375 36.375 
Q 6.59375 54.828125 13.0625 64.515625 
Q 19.53125 74.21875 31.78125 74.21875 
z
" id="DejaVuSans-48"/>
       <path d="M 4.890625 31.390625 
L 31.203125 31.390625 
L 31.203125 23.390625 
L 4.890625 23.390625 
z
" id="DejaVuSans-45"/>
       <path d="M 12.40625 8.296875 
L 28.515625 8.296875 
L 28.515625 63.921875 
L 10.984375 60.40625 
L 10.984375 69.390625 
L 28.421875 72.90625 
L 38.28125 72.90625 
L 38.28125 8.296875 
L 54.390625 8.296875 
L 54.390625 0 
L 12.40625 0 
z
" id="DejaVuSans-49"/>
       <path d="M 10.984375 1.515625 
L 10.984375 10.5 
Q 14.703125 8.734375 18.5 7.8125 
Q 22.3125 6.890625 25.984375 6.890625 
Q 35.75 6.890625 40.890625 13.453125 
Q 46.046875 20.015625 46.78125 33.40625 
Q 43.953125 29.203125 39.59375 26.953125 
Q 35.25 24.703125 29.984375 24.703125 
Q 19.046875 24.703125 12.671875 31.3125 
Q 6.296875 37.9375 6.296875 49.421875 
Q 6.296875 60.640625 12.9375 67.421875 
Q 19.578125 74.21875 30.609375 74.21875 
Q 43.265625 74.21875 49.921875 64.515625 
Q 56.59375 54.828125 56.59375 36.375 
Q 56.59375 19.140625 48.40625 8.859375 
Q 40.234375 -1.421875 26.421875 -1.421875 
Q 22.703125 -1.421875 18.890625 -0.6875 
Q 15.09375 0.046875 10.984375 1.515625 
z
M 30.609375 32.421875 
Q 37.25 32.421875 41.125 36.953125 
Q 45.015625 41.5 45.015625 49.421875 
Q 45.015625 57.28125 41.125 61.84375 
Q 37.25 66.40625 30.609375 66.40625 
Q 23.96875 66.40625 20.09375 61.84375 
Q 16.21875 57.28125 16.21875 49.421875 
Q 16.21875 41.5 20.09375 36.953125 
Q 23.96875 32.421875 30.609375 32.421875 
z
" id="DejaVuSans-57"/>
      </defs>
      <g transform="translate(24.410267 262.869024)rotate(-30)scale(0.1 -0.1)">
       <use xlink:href="#DejaVuSans-50"/>
       <use x="63.623047" xlink:href="#DejaVuSans-48"/>
       <use x="127.246094" xlink:href="#DejaVuSans-50"/>
       <use x="190.869141" xlink:href="#DejaVuSans-48"/>
       <use x="254.492188" xlink:href="#DejaVuSans-45"/>
       <use x="290.576172" xlink:href="#DejaVuSans-49"/>
       <use x="354.199219" xlink:href="#DejaVuSans-49"/>
       <use x="417.822266" xlink:href="#DejaVuSans-45"/>
       <use x="453.90625" xlink:href="#DejaVuSans-50"/>
       <use x="517.529297" xlink:href="#DejaVuSans-57"/>
      </g>
     </g>
    </g>
    <g id="xtick_2">
     <g id="line2d_2">
      <g>
       <use style="stroke:#000000;stroke-width:0.8;" x="58.84247" xlink:href="#mdec34e3826" y="220.230771"/>
      </g>
     </g>
     <g id="text_2">
      <!-- 2020-12-01 -->
      <g transform="translate(35.057354 262.869024)rotate(-30)scale(0.1 -0.1)">
       <use xlink:href="#DejaVuSans-50"/>
       <use x="63.623047" xlink:href="#DejaVuSans-48"/>
       <use x="127.246094" xlink:href="#DejaVuSans-50"/>
       <use x="190.869141" xlink:href="#DejaVuSans-48"/>
       <use x="254.492188" xlink:href="#DejaVuSans-45"/>
       <use x="290.576172" xlink:href="#DejaVuSans-49"/>
       <use x="354.199219" xlink:href="#DejaVuSans-50"/>
       <use x="417.822266" xlink:href="#DejaVuSans-45"/>
       <use x="453.90625" xlink:href="#DejaVuSans-48"/>
       <use x="517.529297" xlink:href="#DejaVuSans-49"/>
      </g>
     </g>
    </g>
    <g id="xtick_3">
     <g id="line2d_3">
      <g>
       <use style="stroke:#000000;stroke-width:0.8;" x="96.107273" xlink:href="#mdec34e3826" y="220.230771"/>
      </g>
     </g>
     <g id="text_3">
      <!-- 2020-12-08 -->
      <defs>
       <path d="M 31.78125 34.625 
Q 24.75 34.625 20.71875 30.859375 
Q 16.703125 27.09375 16.703125 20.515625 
Q 16.703125 13.921875 20.71875 10.15625 
Q 24.75 6.390625 31.78125 6.390625 
Q 38.8125 6.390625 42.859375 10.171875 
Q 46.921875 13.96875 46.921875 20.515625 
Q 46.921875 27.09375 42.890625 30.859375 
Q 38.875 34.625 31.78125 34.625 
z
M 21.921875 38.8125 
Q 15.578125 40.375 12.03125 44.71875 
Q 8.5 49.078125 8.5 55.328125 
Q 8.5 64.0625 14.71875 69.140625 
Q 20.953125 74.21875 31.78125 74.21875 
Q 42.671875 74.21875 48.875 69.140625 
Q 55.078125 64.0625 55.078125 55.328125 
Q 55.078125 49.078125 51.53125 44.71875 
Q 48 40.375 41.703125 38.8125 
Q 48.828125 37.15625 52.796875 32.3125 
Q 56.78125 27.484375 56.78125 20.515625 
Q 56.78125 9.90625 50.3125 4.234375 
Q 43.84375 -1.421875 31.78125 -1.421875 
Q 19.734375 -1.421875 13.25 4.234375 
Q 6.78125 9.90625 6.78125 20.515625 
Q 6.78125 27.484375 10.78125 32.3125 
Q 14.796875 37.15625 21.921875 38.8125 
z
M 18.3125 54.390625 
Q 18.3125 48.734375 21.84375 45.5625 
Q 25.390625 42.390625 31.78125 42.390625 
Q 38.140625 42.390625 41.71875 45.5625 
Q 45.3125 48.734375 45.3125 54.390625 
Q 45.3125 60.0625 41.71875 63.234375 
Q 38.140625 66.40625 31.78125 66.40625 
Q 25.390625 66.40625 21.84375 63.234375 
Q 18.3125 60.0625 18.3125 54.390625 
z
" id="DejaVuSans-56"/>
      </defs>
      <g transform="translate(72.322156 262.869024)rotate(-30)scale(0.1 -0.1)">
       <use xlink:href="#DejaVuSans-50"/>
       <use x="63.623047" xlink:href="#DejaVuSans-48"/>
       <use x="127.246094" xlink:href="#DejaVuSans-50"/>
       <use x="190.869141" xlink:href="#DejaVuSans-48"/>
       <use x="254.492188" xlink:href="#DejaVuSans-45"/>
       <use x="290.576172" xlink:href="#DejaVuSans-49"/>
       <use x="354.199219" xlink:href="#DejaVuSans-50"/>
       <use x="417.822266" xlink:href="#DejaVuSans-45"/>
       <use x="453.90625" xlink:href="#DejaVuSans-48"/>
       <use x="517.529297" xlink:href="#DejaVuSans-56"/>
      </g>
     </g>
    </g>
    <g id="xtick_4">
     <g id="line2d_4">
      <g>
       <use style="stroke:#000000;stroke-width:0.8;" x="133.372075" xlink:href="#mdec34e3826" y="220.230771"/>
      </g>
     </g>
     <g id="text_4">
      <!-- 2020-12-15 -->
      <defs>
       <path d="M 10.796875 72.90625 
L 49.515625 72.90625 
L 49.515625 64.59375 
L 19.828125 64.59375 
L 19.828125 46.734375 
Q 21.96875 47.46875 24.109375 47.828125 
Q 26.265625 48.1875 28.421875 48.1875 
Q 40.625 48.1875 47.75 41.5 
Q 54.890625 34.8125 54.890625 23.390625 
Q 54.890625 11.625 47.5625 5.09375 
Q 40.234375 -1.421875 26.90625 -1.421875 
Q 22.3125 -1.421875 17.546875 -0.640625 
Q 12.796875 0.140625 7.71875 1.703125 
L 7.71875 11.625 
Q 12.109375 9.234375 16.796875 8.0625 
Q 21.484375 6.890625 26.703125 6.890625 
Q 35.15625 6.890625 40.078125 11.328125 
Q 45.015625 15.765625 45.015625 23.390625 
Q 45.015625 31 40.078125 35.4375 
Q 35.15625 39.890625 26.703125 39.890625 
Q 22.75 39.890625 18.8125 39.015625 
Q 14.890625 38.140625 10.796875 36.28125 
z
" id="DejaVuSans-53"/>
      </defs>
      <g transform="translate(109.586959 262.869024)rotate(-30)scale(0.1 -0.1)">
       <use xlink:href="#DejaVuSans-50"/>
       <use x="63.623047" xlink:href="#DejaVuSans-48"/>
       <use x="127.246094" xlink:href="#DejaVuSans-50"/>
       <use x="190.869141" xlink:href="#DejaVuSans-48"/>
       <use x="254.492188" xlink:href="#DejaVuSans-45"/>
       <use x="290.576172" xlink:href="#DejaVuSans-49"/>
       <use x="354.199219" xlink:href="#DejaVuSans-50"/>
       <use x="417.822266" xlink:href="#DejaVuSans-45"/>
       <use x="453.90625" xlink:href="#DejaVuSans-49"/>
       <use x="517.529297" xlink:href="#DejaVuSans-53"/>
      </g>
     </g>
    </g>
    <g id="xtick_5">
     <g id="line2d_5">
      <g>
       <use style="stroke:#000000;stroke-width:0.8;" x="170.636878" xlink:href="#mdec34e3826" y="220.230771"/>
      </g>
     </g>
     <g id="text_5">
      <!-- 2020-12-22 -->
      <g transform="translate(146.851762 262.869024)rotate(-30)scale(0.1 -0.1)">
       <use xlink:href="#DejaVuSans-50"/>
       <use x="63.623047" xlink:href="#DejaVuSans-48"/>
       <use x="127.246094" xlink:href="#DejaVuSans-50"/>
       <use x="190.869141" xlink:href="#DejaVuSans-48"/>
       <use x="254.492188" xlink:href="#DejaVuSans-45"/>
       <use x="290.576172" xlink:href="#DejaVuSans-49"/>
       <use x="354.199219" xlink:href="#DejaVuSans-50"/>
       <use x="417.822266" xlink:href="#DejaVuSans-45"/>
       <use x="453.90625" xlink:href="#DejaVuSans-50"/>
       <use x="517.529297" xlink:href="#DejaVuSans-50"/>
      </g>
     </g>
    </g>
    <g id="xtick_6">
     <g id="line2d_6">
      <g>
       <use style="stroke:#000000;stroke-width:0.8;" x="207.901681" xlink:href="#mdec34e3826" y="220.230771"/>
      </g>
     </g>
     <g id="text_6">
      <!-- 2020-12-29 -->
      <g transform="translate(184.116564 262.869024)rotate(-30)scale(0.1 -0.1)">
       <use xlink:href="#DejaVuSans-50"/>
       <use x="63.623047" xlink:href="#DejaVuSans-48"/>
       <use x="127.246094" xlink:href="#DejaVuSans-50"/>
       <use x="190.869141" xlink:href="#DejaVuSans-48"/>
       <use x="254.492188" xlink:href="#DejaVuSans-45"/>
       <use x="290.576172" xlink:href="#DejaVuSans-49"/>
       <use x="354.199219" xlink:href="#DejaVuSans-50"/>
       <use x="417.822266" xlink:href="#DejaVuSans-45"/>
       <use x="453.90625" xlink:href="#DejaVuSans-50"/>
       <use x="517.529297" xlink:href="#DejaVuSans-57"/>
      </g>
     </g>
    </g>
    <g id="xtick_7">
     <g id="line2d_7">
      <g>
       <use style="stroke:#000000;stroke-width:0.8;" x="223.87231" xlink:href="#mdec34e3826" y="220.230771"/>
      </g>
     </g>
     <g id="text_7">
      <!-- 2021-01-01 -->
      <g transform="translate(200.087194 262.869024)rotate(-30)scale(0.1 -0.1)">
       <use xlink:href="#DejaVuSans-50"/>
       <use x="63.623047" xlink:href="#DejaVuSans-48"/>
       <use x="127.246094" xlink:href="#DejaVuSans-50"/>
       <use x="190.869141" xlink:href="#DejaVuSans-49"/>
       <use x="254.492188" xlink:href="#DejaVuSans-45"/>
       <use x="290.576172" xlink:href="#DejaVuSans-48"/>
       <use x="354.199219" xlink:href="#DejaVuSans-49"/>
       <use x="417.822266" xlink:href="#DejaVuSans-45"/>
       <use x="453.90625" xlink:href="#DejaVuSans-48"/>
       <use x="517.529297" xlink:href="#DejaVuSans-49"/>
      </g>
     </g>
    </g>
    <g id="xtick_8">
     <g id="line2d_8">
      <g>
       <use style="stroke:#000000;stroke-width:0.8;" x="261.137113" xlink:href="#mdec34e3826" y="220.230771"/>
      </g>
     </g>
     <g id="text_8">
      <!-- 2021-01-08 -->
      <g transform="translate(237.351997 262.869024)rotate(-30)scale(0.1 -0.1)">
       <use xlink:href="#DejaVuSans-50"/>
       <use x="63.623047" xlink:href="#DejaVuSans-48"/>
       <use x="127.246094" xlink:href="#DejaVuSans-50"/>
       <use x="190.869141" xlink:href="#DejaVuSans-49"/>
       <use x="254.492188" xlink:href="#DejaVuSans-45"/>
       <use x="290.576172" xlink:href="#DejaVuSans-48"/>
       <use x="354.199219" xlink:href="#DejaVuSans-49"/>
       <use x="417.822266" xlink:href="#DejaVuSans-45"/>
       <use x="453.90625" xlink:href="#DejaVuSans-48"/>
       <use x="517.529297" xlink:href="#DejaVuSans-56"/>
      </g>
     </g>
    </g>
    <g id="xtick_9">
     <g id="line2d_9">
      <g>
       <use style="stroke:#000000;stroke-width:0.8;" x="298.401916" xlink:href="#mdec34e3826" y="220.230771"/>
      </g>
     </g>
     <g id="text_9">
      <!-- 2021-01-15 -->
      <g transform="translate(274.616799 262.869024)rotate(-30)scale(0.1 -0.1)">
       <use xlink:href="#DejaVuSans-50"/>
       <use x="63.623047" xlink:href="#DejaVuSans-48"/>
       <use x="127.246094" xlink:href="#DejaVuSans-50"/>
       <use x="190.869141" xlink:href="#DejaVuSans-49"/>
       <use x="254.492188" xlink:href="#DejaVuSans-45"/>
       <use x="290.576172" xlink:href="#DejaVuSans-48"/>
       <use x="354.199219" xlink:href="#DejaVuSans-49"/>
       <use x="417.822266" xlink:href="#DejaVuSans-45"/>
       <use x="453.90625" xlink:href="#DejaVuSans-49"/>
       <use x="517.529297" xlink:href="#DejaVuSans-53"/>
      </g>
     </g>
    </g>
    <g id="text_10">
     <!-- Date -->
     <defs>
      <path d="M 19.671875 64.796875 
L 19.671875 8.109375 
L 31.59375 8.109375 
Q 46.6875 8.109375 53.6875 14.9375 
Q 60.6875 21.78125 60.6875 36.53125 
Q 60.6875 51.171875 53.6875 57.984375 
Q 46.6875 64.796875 31.59375 64.796875 
z
M 9.8125 72.90625 
L 30.078125 72.90625 
Q 51.265625 72.90625 61.171875 64.09375 
Q 71.09375 55.28125 71.09375 36.53125 
Q 71.09375 17.671875 61.125 8.828125 
Q 51.171875 0 30.078125 0 
L 9.8125 0 
z
" id="DejaVuSans-68"/>
      <path d="M 34.28125 27.484375 
Q 23.390625 27.484375 19.1875 25 
Q 14.984375 22.515625 14.984375 16.5 
Q 14.984375 11.71875 18.140625 8.90625 
Q 21.296875 6.109375 26.703125 6.109375 
Q 34.1875 6.109375 38.703125 11.40625 
Q 43.21875 16.703125 43.21875 25.484375 
L 43.21875 27.484375 
z
M 52.203125 31.203125 
L 52.203125 0 
L 43.21875 0 
L 43.21875 8.296875 
Q 40.140625 3.328125 35.546875 0.953125 
Q 30.953125 -1.421875 24.3125 -1.421875 
Q 15.921875 -1.421875 10.953125 3.296875 
Q 6 8.015625 6 15.921875 
Q 6 25.140625 12.171875 29.828125 
Q 18.359375 34.515625 30.609375 34.515625 
L 43.21875 34.515625 
L 43.21875 35.40625 
Q 43.21875 41.609375 39.140625 45 
Q 35.0625 48.390625 27.6875 48.390625 
Q 23 48.390625 18.546875 47.265625 
Q 14.109375 46.140625 10.015625 43.890625 
L 10.015625 52.203125 
Q 14.9375 54.109375 19.578125 55.046875 
Q 24.21875 56 28.609375 56 
Q 40.484375 56 46.34375 49.84375 
Q 52.203125 43.703125 52.203125 31.203125 
z
" id="DejaVuSans-97"/>
      <path d="M 18.3125 70.21875 
L 18.3125 54.6875 
L 36.8125 54.6875 
L 36.8125 47.703125 
L 18.3125 47.703125 
L 18.3125 18.015625 
Q 18.3125 11.328125 20.140625 9.421875 
Q 21.96875 7.515625 27.59375 7.515625 
L 36.8125 7.515625 
L 36.8125 0 
L 27.59375 0 
Q 17.1875 0 13.234375 3.875 
Q 9.28125 7.765625 9.28125 18.015625 
L 9.28125 47.703125 
L 2.6875 47.703125 
L 2.6875 54.6875 
L 9.28125 54.6875 
L 9.28125 70.21875 
z
" id="DejaVuSans-116"/>
      <path d="M 56.203125 29.59375 
L 56.203125 25.203125 
L 14.890625 25.203125 
Q 15.484375 15.921875 20.484375 11.0625 
Q 25.484375 6.203125 34.421875 6.203125 
Q 39.59375 6.203125 44.453125 7.46875 
Q 49.3125 8.734375 54.109375 11.28125 
L 54.109375 2.78125 
Q 49.265625 0.734375 44.1875 -0.34375 
Q 39.109375 -1.421875 33.890625 -1.421875 
Q 20.796875 -1.421875 13.15625 6.1875 
Q 5.515625 13.8125 5.515625 26.8125 
Q 5.515625 40.234375 12.765625 48.109375 
Q 20.015625 56 32.328125 56 
Q 43.359375 56 49.78125 48.890625 
Q 56.203125 41.796875 56.203125 29.59375 
z
M 47.21875 32.234375 
Q 47.125 39.59375 43.09375 43.984375 
Q 39.0625 48.390625 32.421875 48.390625 
Q 24.90625 48.390625 20.390625 44.140625 
Q 15.875 39.890625 15.1875 32.171875 
z
" id="DejaVuSans-101"/>
     </defs>
     <g transform="translate(167.504219 276.268523)scale(0.1 -0.1)">
      <use xlink:href="#DejaVuSans-68"/>
      <use x="77.001953" xlink:href="#DejaVuSans-97"/>
      <use x="138.28125" xlink:href="#DejaVuSans-116"/>
      <use x="177.490234" xlink:href="#DejaVuSans-101"/>
     </g>
    </g>
   </g>
   <g id="matplotlib.axis_2">
    <g id="ytick_1">
     <g id="line2d_10">
      <defs>
       <path d="M 0 0 
L -3.5 0 
" id="m3e43f249ad" style="stroke:#000000;stroke-width:0.8;"/>
      </defs>
      <g>
       <use style="stroke:#000000;stroke-width:0.8;" x="43.55" xlink:href="#m3e43f249ad" y="210.806645"/>
      </g>
     </g>
     <g id="text_11">
      <!-- 0 -->
      <g transform="translate(30.1875 214.605864)scale(0.1 -0.1)">
       <use xlink:href="#DejaVuSans-48"/>
      </g>
     </g>
    </g>
    <g id="ytick_2">
     <g id="line2d_11">
      <g>
       <use style="stroke:#000000;stroke-width:0.8;" x="43.55" xlink:href="#m3e43f249ad" y="187.24633"/>
      </g>
     </g>
     <g id="text_12">
      <!-- 5 -->
      <g transform="translate(30.1875 191.045549)scale(0.1 -0.1)">
       <use xlink:href="#DejaVuSans-53"/>
      </g>
     </g>
    </g>
    <g id="ytick_3">
     <g id="line2d_12">
      <g>
       <use style="stroke:#000000;stroke-width:0.8;" x="43.55" xlink:href="#m3e43f249ad" y="163.686016"/>
      </g>
     </g>
     <g id="text_13">
      <!-- 10 -->
      <g transform="translate(23.825 167.485234)scale(0.1 -0.1)">
       <use xlink:href="#DejaVuSans-49"/>
       <use x="63.623047" xlink:href="#DejaVuSans-48"/>
      </g>
     </g>
    </g>
    <g id="ytick_4">
     <g id="line2d_13">
      <g>
       <use style="stroke:#000000;stroke-width:0.8;" x="43.55" xlink:href="#m3e43f249ad" y="140.125701"/>
      </g>
     </g>
     <g id="text_14">
      <!-- 15 -->
      <g transform="translate(23.825 143.924919)scale(0.1 -0.1)">
       <use xlink:href="#DejaVuSans-49"/>
       <use x="63.623047" xlink:href="#DejaVuSans-53"/>
      </g>
     </g>
    </g>
    <g id="ytick_5">
     <g id="line2d_14">
      <g>
       <use style="stroke:#000000;stroke-width:0.8;" x="43.55" xlink:href="#m3e43f249ad" y="116.565386"/>
      </g>
     </g>
     <g id="text_15">
      <!-- 20 -->
      <g transform="translate(23.825 120.364604)scale(0.1 -0.1)">
       <use xlink:href="#DejaVuSans-50"/>
       <use x="63.623047" xlink:href="#DejaVuSans-48"/>
      </g>
     </g>
    </g>
    <g id="ytick_6">
     <g id="line2d_15">
      <g>
       <use style="stroke:#000000;stroke-width:0.8;" x="43.55" xlink:href="#m3e43f249ad" y="93.005071"/>
      </g>
     </g>
     <g id="text_16">
      <!-- 25 -->
      <g transform="translate(23.825 96.80429)scale(0.1 -0.1)">
       <use xlink:href="#DejaVuSans-50"/>
       <use x="63.623047" xlink:href="#DejaVuSans-53"/>
      </g>
     </g>
    </g>
    <g id="ytick_7">
     <g id="line2d_16">
      <g>
       <use style="stroke:#000000;stroke-width:0.8;" x="43.55" xlink:href="#m3e43f249ad" y="69.444756"/>
      </g>
     </g>
     <g id="text_17">
      <!-- 30 -->
      <defs>
       <path d="M 40.578125 39.3125 
Q 47.65625 37.796875 51.625 33 
Q 55.609375 28.21875 55.609375 21.1875 
Q 55.609375 10.40625 48.1875 4.484375 
Q 40.765625 -1.421875 27.09375 -1.421875 
Q 22.515625 -1.421875 17.65625 -0.515625 
Q 12.796875 0.390625 7.625 2.203125 
L 7.625 11.71875 
Q 11.71875 9.328125 16.59375 8.109375 
Q 21.484375 6.890625 26.8125 6.890625 
Q 36.078125 6.890625 40.9375 10.546875 
Q 45.796875 14.203125 45.796875 21.1875 
Q 45.796875 27.640625 41.28125 31.265625 
Q 36.765625 34.90625 28.71875 34.90625 
L 20.21875 34.90625 
L 20.21875 43.015625 
L 29.109375 43.015625 
Q 36.375 43.015625 40.234375 45.921875 
Q 44.09375 48.828125 44.09375 54.296875 
Q 44.09375 59.90625 40.109375 62.90625 
Q 36.140625 65.921875 28.71875 65.921875 
Q 24.65625 65.921875 20.015625 65.03125 
Q 15.375 64.15625 9.8125 62.3125 
L 9.8125 71.09375 
Q 15.4375 72.65625 20.34375 73.4375 
Q 25.25 74.21875 29.59375 74.21875 
Q 40.828125 74.21875 47.359375 69.109375 
Q 53.90625 64.015625 53.90625 55.328125 
Q 53.90625 49.265625 50.4375 45.09375 
Q 46.96875 40.921875 40.578125 39.3125 
z
" id="DejaVuSans-51"/>
      </defs>
      <g transform="translate(23.825 73.243975)scale(0.1 -0.1)">
       <use xlink:href="#DejaVuSans-51"/>
       <use x="63.623047" xlink:href="#DejaVuSans-48"/>
      </g>
     </g>
    </g>
    <g id="ytick_8">
     <g id="line2d_17">
      <g>
       <use style="stroke:#000000;stroke-width:0.8;" x="43.55" xlink:href="#m3e43f249ad" y="45.884441"/>
      </g>
     </g>
     <g id="text_18">
      <!-- 35 -->
      <g transform="translate(23.825 49.68366)scale(0.1 -0.1)">
       <use xlink:href="#DejaVuSans-51"/>
       <use x="63.623047" xlink:href="#DejaVuSans-53"/>
      </g>
     </g>
    </g>
    <g id="ytick_9">
     <g id="line2d_18">
      <g>
       <use style="stroke:#000000;stroke-width:0.8;" x="43.55" xlink:href="#m3e43f249ad" y="22.324126"/>
      </g>
     </g>
     <g id="text_19">
      <!-- 40 -->
      <defs>
       <path d="M 37.796875 64.3125 
L 12.890625 25.390625 
L 37.796875 25.390625 
z
M 35.203125 72.90625 
L 47.609375 72.90625 
L 47.609375 25.390625 
L 58.015625 25.390625 
L 58.015625 17.1875 
L 47.609375 17.1875 
L 47.609375 0 
L 37.796875 0 
L 37.796875 17.1875 
L 4.890625 17.1875 
L 4.890625 26.703125 
z
" id="DejaVuSans-52"/>
      </defs>
      <g transform="translate(23.825 26.123345)scale(0.1 -0.1)">
       <use xlink:href="#DejaVuSans-52"/>
       <use x="63.623047" xlink:href="#DejaVuSans-48"/>
      </g>
     </g>
    </g>
    <g id="text_20">
     <!-- Students Registered -->
     <defs>
      <path d="M 53.515625 70.515625 
L 53.515625 60.890625 
Q 47.90625 63.578125 42.921875 64.890625 
Q 37.9375 66.21875 33.296875 66.21875 
Q 25.25 66.21875 20.875 63.09375 
Q 16.5 59.96875 16.5 54.203125 
Q 16.5 49.359375 19.40625 46.890625 
Q 22.3125 44.4375 30.421875 42.921875 
L 36.375 41.703125 
Q 47.40625 39.59375 52.65625 34.296875 
Q 57.90625 29 57.90625 20.125 
Q 57.90625 9.515625 50.796875 4.046875 
Q 43.703125 -1.421875 29.984375 -1.421875 
Q 24.8125 -1.421875 18.96875 -0.25 
Q 13.140625 0.921875 6.890625 3.21875 
L 6.890625 13.375 
Q 12.890625 10.015625 18.65625 8.296875 
Q 24.421875 6.59375 29.984375 6.59375 
Q 38.421875 6.59375 43.015625 9.90625 
Q 47.609375 13.234375 47.609375 19.390625 
Q 47.609375 24.75 44.3125 27.78125 
Q 41.015625 30.8125 33.5 32.328125 
L 27.484375 33.5 
Q 16.453125 35.6875 11.515625 40.375 
Q 6.59375 45.0625 6.59375 53.421875 
Q 6.59375 63.09375 13.40625 68.65625 
Q 20.21875 74.21875 32.171875 74.21875 
Q 37.3125 74.21875 42.625 73.28125 
Q 47.953125 72.359375 53.515625 70.515625 
z
" id="DejaVuSans-83"/>
      <path d="M 8.5 21.578125 
L 8.5 54.6875 
L 17.484375 54.6875 
L 17.484375 21.921875 
Q 17.484375 14.15625 20.5 10.265625 
Q 23.53125 6.390625 29.59375 6.390625 
Q 36.859375 6.390625 41.078125 11.03125 
Q 45.3125 15.671875 45.3125 23.6875 
L 45.3125 54.6875 
L 54.296875 54.6875 
L 54.296875 0 
L 45.3125 0 
L 45.3125 8.40625 
Q 42.046875 3.421875 37.71875 1 
Q 33.40625 -1.421875 27.6875 -1.421875 
Q 18.265625 -1.421875 13.375 4.4375 
Q 8.5 10.296875 8.5 21.578125 
z
M 31.109375 56 
z
" id="DejaVuSans-117"/>
      <path d="M 45.40625 46.390625 
L 45.40625 75.984375 
L 54.390625 75.984375 
L 54.390625 0 
L 45.40625 0 
L 45.40625 8.203125 
Q 42.578125 3.328125 38.25 0.953125 
Q 33.9375 -1.421875 27.875 -1.421875 
Q 17.96875 -1.421875 11.734375 6.484375 
Q 5.515625 14.40625 5.515625 27.296875 
Q 5.515625 40.1875 11.734375 48.09375 
Q 17.96875 56 27.875 56 
Q 33.9375 56 38.25 53.625 
Q 42.578125 51.265625 45.40625 46.390625 
z
M 14.796875 27.296875 
Q 14.796875 17.390625 18.875 11.75 
Q 22.953125 6.109375 30.078125 6.109375 
Q 37.203125 6.109375 41.296875 11.75 
Q 45.40625 17.390625 45.40625 27.296875 
Q 45.40625 37.203125 41.296875 42.84375 
Q 37.203125 48.484375 30.078125 48.484375 
Q 22.953125 48.484375 18.875 42.84375 
Q 14.796875 37.203125 14.796875 27.296875 
z
" id="DejaVuSans-100"/>
      <path d="M 54.890625 33.015625 
L 54.890625 0 
L 45.90625 0 
L 45.90625 32.71875 
Q 45.90625 40.484375 42.875 44.328125 
Q 39.84375 48.1875 33.796875 48.1875 
Q 26.515625 48.1875 22.3125 43.546875 
Q 18.109375 38.921875 18.109375 30.90625 
L 18.109375 0 
L 9.078125 0 
L 9.078125 54.6875 
L 18.109375 54.6875 
L 18.109375 46.1875 
Q 21.34375 51.125 25.703125 53.5625 
Q 30.078125 56 35.796875 56 
Q 45.21875 56 50.046875 50.171875 
Q 54.890625 44.34375 54.890625 33.015625 
z
" id="DejaVuSans-110"/>
      <path d="M 44.28125 53.078125 
L 44.28125 44.578125 
Q 40.484375 46.53125 36.375 47.5 
Q 32.28125 48.484375 27.875 48.484375 
Q 21.1875 48.484375 17.84375 46.4375 
Q 14.5 44.390625 14.5 40.28125 
Q 14.5 37.15625 16.890625 35.375 
Q 19.28125 33.59375 26.515625 31.984375 
L 29.59375 31.296875 
Q 39.15625 29.25 43.1875 25.515625 
Q 47.21875 21.78125 47.21875 15.09375 
Q 47.21875 7.46875 41.1875 3.015625 
Q 35.15625 -1.421875 24.609375 -1.421875 
Q 20.21875 -1.421875 15.453125 -0.5625 
Q 10.6875 0.296875 5.421875 2 
L 5.421875 11.28125 
Q 10.40625 8.6875 15.234375 7.390625 
Q 20.0625 6.109375 24.8125 6.109375 
Q 31.15625 6.109375 34.5625 8.28125 
Q 37.984375 10.453125 37.984375 14.40625 
Q 37.984375 18.0625 35.515625 20.015625 
Q 33.0625 21.96875 24.703125 23.78125 
L 21.578125 24.515625 
Q 13.234375 26.265625 9.515625 29.90625 
Q 5.8125 33.546875 5.8125 39.890625 
Q 5.8125 47.609375 11.28125 51.796875 
Q 16.75 56 26.8125 56 
Q 31.78125 56 36.171875 55.265625 
Q 40.578125 54.546875 44.28125 53.078125 
z
" id="DejaVuSans-115"/>
      <path id="DejaVuSans-32"/>
      <path d="M 44.390625 34.1875 
Q 47.5625 33.109375 50.5625 29.59375 
Q 53.5625 26.078125 56.59375 19.921875 
L 66.609375 0 
L 56 0 
L 46.6875 18.703125 
Q 43.0625 26.03125 39.671875 28.421875 
Q 36.28125 30.8125 30.421875 30.8125 
L 19.671875 30.8125 
L 19.671875 0 
L 9.8125 0 
L 9.8125 72.90625 
L 32.078125 72.90625 
Q 44.578125 72.90625 50.734375 67.671875 
Q 56.890625 62.453125 56.890625 51.90625 
Q 56.890625 45.015625 53.6875 40.46875 
Q 50.484375 35.9375 44.390625 34.1875 
z
M 19.671875 64.796875 
L 19.671875 38.921875 
L 32.078125 38.921875 
Q 39.203125 38.921875 42.84375 42.21875 
Q 46.484375 45.515625 46.484375 51.90625 
Q 46.484375 58.296875 42.84375 61.546875 
Q 39.203125 64.796875 32.078125 64.796875 
z
" id="DejaVuSans-82"/>
      <path d="M 45.40625 27.984375 
Q 45.40625 37.75 41.375 43.109375 
Q 37.359375 48.484375 30.078125 48.484375 
Q 22.859375 48.484375 18.828125 43.109375 
Q 14.796875 37.75 14.796875 27.984375 
Q 14.796875 18.265625 18.828125 12.890625 
Q 22.859375 7.515625 30.078125 7.515625 
Q 37.359375 7.515625 41.375 12.890625 
Q 45.40625 18.265625 45.40625 27.984375 
z
M 54.390625 6.78125 
Q 54.390625 -7.171875 48.1875 -13.984375 
Q 42 -20.796875 29.203125 -20.796875 
Q 24.46875 -20.796875 20.265625 -20.09375 
Q 16.0625 -19.390625 12.109375 -17.921875 
L 12.109375 -9.1875 
Q 16.0625 -11.328125 19.921875 -12.34375 
Q 23.78125 -13.375 27.78125 -13.375 
Q 36.625 -13.375 41.015625 -8.765625 
Q 45.40625 -4.15625 45.40625 5.171875 
L 45.40625 9.625 
Q 42.625 4.78125 38.28125 2.390625 
Q 33.9375 0 27.875 0 
Q 17.828125 0 11.671875 7.65625 
Q 5.515625 15.328125 5.515625 27.984375 
Q 5.515625 40.671875 11.671875 48.328125 
Q 17.828125 56 27.875 56 
Q 33.9375 56 38.28125 53.609375 
Q 42.625 51.21875 45.40625 46.390625 
L 45.40625 54.6875 
L 54.390625 54.6875 
z
" id="DejaVuSans-103"/>
      <path d="M 9.421875 54.6875 
L 18.40625 54.6875 
L 18.40625 0 
L 9.421875 0 
z
M 9.421875 75.984375 
L 18.40625 75.984375 
L 18.40625 64.59375 
L 9.421875 64.59375 
z
" id="DejaVuSans-105"/>
      <path d="M 41.109375 46.296875 
Q 39.59375 47.171875 37.8125 47.578125 
Q 36.03125 48 33.890625 48 
Q 26.265625 48 22.1875 43.046875 
Q 18.109375 38.09375 18.109375 28.8125 
L 18.109375 0 
L 9.078125 0 
L 9.078125 54.6875 
L 18.109375 54.6875 
L 18.109375 46.1875 
Q 20.953125 51.171875 25.484375 53.578125 
Q 30.03125 56 36.53125 56 
Q 37.453125 56 38.578125 55.875 
Q 39.703125 55.765625 41.0625 55.515625 
z
" id="DejaVuSans-114"/>
     </defs>
     <g transform="translate(17.745313 167.498979)rotate(-90)scale(0.1 -0.1)">
      <use xlink:href="#DejaVuSans-83"/>
      <use x="63.476562" xlink:href="#DejaVuSans-116"/>
      <use x="102.685547" xlink:href="#DejaVuSans-117"/>
      <use x="166.064453" xlink:href="#DejaVuSans-100"/>
      <use x="229.541016" xlink:href="#DejaVuSans-101"/>
      <use x="291.064453" xlink:href="#DejaVuSans-110"/>
      <use x="354.443359" xlink:href="#DejaVuSans-116"/>
      <use x="393.652344" xlink:href="#DejaVuSans-115"/>
      <use x="445.751953" xlink:href="#DejaVuSans-32"/>
      <use x="477.539062" xlink:href="#DejaVuSans-82"/>
      <use x="546.958984" xlink:href="#DejaVuSans-101"/>
      <use x="608.482422" xlink:href="#DejaVuSans-103"/>
      <use x="671.958984" xlink:href="#DejaVuSans-105"/>
      <use x="699.742188" xlink:href="#DejaVuSans-115"/>
      <use x="751.841797" xlink:href="#DejaVuSans-116"/>
      <use x="791.050781" xlink:href="#DejaVuSans-101"/>
      <use x="852.574219" xlink:href="#DejaVuSans-114"/>
      <use x="893.65625" xlink:href="#DejaVuSans-101"/>
      <use x="955.179688" xlink:href="#DejaVuSans-100"/>
     </g>
    </g>
   </g>
   <g id="line2d_19">
    <path clip-path="url(#p54b6dc73c8)" d="M 55.905 210.806645 
L 56.138708 210.806645 
L 56.138708 201.382519 
L 56.247707 201.382519 
L 57.179306 201.382519 
L 57.179306 196.670456 
L 57.286476 196.670456 
L 62.281012 196.670456 
L 62.281012 191.958393 
L 62.391916 191.958393 
L 66.495519 191.958393 
L 66.495519 177.822204 
L 66.606424 177.822204 
L 66.717312 177.822204 
L 66.717312 173.110142 
L 66.828236 173.110142 
L 66.939125 173.110142 
L 66.939125 154.26189 
L 67.050045 154.26189 
L 67.160938 154.26189 
L 67.160938 149.549827 
L 67.271843 149.549827 
L 67.382755 149.549827 
L 67.382755 140.125701 
L 67.493647 140.125701 
L 67.604602 140.125701 
L 67.604602 125.989512 
L 67.715504 125.989512 
L 71.597236 125.989512 
L 71.597236 121.277449 
L 71.708139 121.277449 
L 71.819025 121.277449 
L 71.819025 116.565386 
L 71.929929 116.565386 
L 72.484485 116.565386 
L 72.484485 111.853323 
L 72.595401 111.853323 
L 72.928118 111.853323 
L 72.928118 97.717134 
L 73.039009 97.717134 
L 73.149927 97.717134 
L 73.149927 93.005071 
L 73.260859 93.005071 
L 77.586204 93.005071 
L 77.586204 88.293008 
L 77.697135 88.293008 
L 77.808011 88.293008 
L 77.808011 83.580945 
L 77.918951 83.580945 
L 78.251671 83.580945 
L 78.251671 78.868882 
L 78.362567 78.868882 
L 78.917101 78.868882 
L 78.917101 74.156819 
L 79.027997 74.156819 
L 82.687975 74.156819 
L 82.687975 69.444756 
L 82.798842 69.444756 
L 93.113245 69.444756 
L 93.113245 45.884441 
L 93.224098 45.884441 
L 93.335038 45.884441 
L 93.335038 36.460315 
L 93.445911 36.460315 
L 93.556866 36.460315 
L 93.556866 31.748252 
L 93.667749 31.748252 
L 168.308254 31.748252 
L 168.308254 36.460315 
L 168.419182 36.460315 
L 168.530061 36.460315 
L 168.530061 31.748252 
L 168.640969 31.748252 
L 180.508031 31.748252 
L 180.508031 36.460315 
L 180.618977 36.460315 
L 180.729862 36.460315 
L 180.729862 31.748252 
L 180.840762 31.748252 
L 290.306156 31.748252 
L 290.306156 22.324126 
L 290.417021 22.324126 
L 303.005 22.324126 
L 303.005 22.324126 
" style="fill:none;stroke:#1b9e77;stroke-linecap:square;stroke-width:1.5;"/>
   </g>
   <g id="line2d_20">
    <path clip-path="url(#p54b6dc73c8)" d="M 102.207626 196.670456 
L 103.316648 196.670456 
L 103.316648 182.534267 
L 103.42774 182.534267 
L 103.538468 182.534267 
L 103.538468 177.822204 
L 103.64942 177.822204 
L 103.760277 177.822204 
L 103.760277 158.973953 
L 103.87123 158.973953 
L 104.203926 158.973953 
L 104.203926 144.837764 
L 104.314835 144.837764 
L 104.647546 144.837764 
L 104.647546 116.565386 
L 104.758475 116.565386 
L 105.091171 116.565386 
L 105.091171 107.14126 
L 105.202116 107.14126 
L 105.313015 107.14126 
L 105.313015 102.429197 
L 105.423945 102.429197 
L 105.53481 102.429197 
L 105.53481 97.717134 
L 105.645755 97.717134 
L 105.978475 97.717134 
L 105.978475 93.005071 
L 106.08933 93.005071 
L 109.083826 93.005071 
L 109.083826 74.156819 
L 109.194772 74.156819 
L 109.52747 74.156819 
L 109.52747 69.444756 
L 109.638359 69.444756 
L 109.971132 69.444756 
L 109.971132 60.02063 
L 110.082017 60.02063 
L 110.192947 60.02063 
L 110.192947 55.308567 
L 110.303826 55.308567 
L 110.636582 55.308567 
L 110.636582 50.596504 
L 110.747451 50.596504 
L 115.294663 50.596504 
L 115.294663 45.884441 
L 115.405548 45.884441 
L 115.51644 45.884441 
L 115.51644 41.172378 
L 115.627397 41.172378 
L 115.738266 41.172378 
L 115.738266 36.460315 
L 115.849199 36.460315 
L 116.403739 36.460315 
L 116.403739 31.748252 
L 116.514649 31.748252 
L 130.59982 31.748252 
L 130.59982 22.324126 
L 130.710755 22.324126 
L 157.882984 22.324126 
L 157.882984 27.036189 
L 157.993905 27.036189 
L 159.213869 27.036189 
L 159.213869 22.324126 
L 159.32478 22.324126 
L 178.511739 22.324126 
L 178.511739 27.036189 
L 178.622651 27.036189 
L 180.286244 27.036189 
L 180.286244 22.324126 
L 180.397165 22.324126 
L 303.005 22.324126 
L 303.005 22.324126 
" style="fill:none;stroke:#d95f02;stroke-linecap:square;stroke-width:1.5;"/>
   </g>
   <g id="line2d_21">
    <path clip-path="url(#p54b6dc73c8)" d="M 55.905 182.534267 
L 56.138708 182.534267 
L 56.138708 177.822204 
L 56.247707 177.822204 
L 57.286476 177.822204 
L 57.286476 173.110142 
L 60.835545 173.110142 
L 60.835545 168.398079 
L 61.171971 168.398079 
L 61.171971 163.686016 
L 61.282891 163.686016 
L 61.393773 163.686016 
L 61.393773 158.973953 
L 61.504699 158.973953 
L 62.059245 158.973953 
L 62.059245 144.837764 
L 62.170176 144.837764 
L 62.281012 144.837764 
L 62.281012 140.125701 
L 62.391916 140.125701 
L 66.717312 140.125701 
L 66.717312 130.701575 
L 66.828236 130.701575 
L 66.939125 130.701575 
L 66.939125 125.989512 
L 67.050045 125.989512 
L 67.160938 125.989512 
L 67.160938 130.701575 
L 67.271843 130.701575 
L 67.604602 130.701575 
L 67.604602 125.989512 
L 67.715504 125.989512 
L 67.826371 125.989512 
L 67.826371 116.565386 
L 67.937272 116.565386 
L 68.93547 116.565386 
L 68.93547 107.14126 
L 69.04639 107.14126 
L 71.375426 107.14126 
L 71.375426 102.429197 
L 71.486322 102.429197 
L 71.597236 102.429197 
L 71.597236 83.580945 
L 71.708139 83.580945 
L 71.819025 83.580945 
L 71.819025 74.156819 
L 71.929929 74.156819 
L 72.262678 74.156819 
L 72.262678 69.444756 
L 72.373587 69.444756 
L 72.484485 69.444756 
L 72.484485 64.732693 
L 72.595401 64.732693 
L 72.706305 64.732693 
L 72.706305 60.02063 
L 72.817225 60.02063 
L 72.928118 60.02063 
L 72.928118 45.884441 
L 73.039009 45.884441 
L 73.149927 45.884441 
L 73.149927 41.172378 
L 73.260859 41.172378 
L 73.371754 41.172378 
L 73.371754 36.460315 
L 73.482641 36.460315 
L 77.142567 36.460315 
L 77.142567 27.036189 
L 77.253491 27.036189 
L 77.364429 27.036189 
L 77.364429 22.324126 
L 77.475325 22.324126 
L 103.538468 22.324126 
L 103.538468 27.036189 
L 103.64942 27.036189 
L 103.760277 27.036189 
L 103.760277 22.324126 
L 103.87123 22.324126 
L 303.005 22.324126 
L 303.005 22.324126 
" style="fill:none;stroke:#7570b3;stroke-linecap:square;stroke-width:1.5;"/>
   </g>
   <g id="line2d_22">
    <path clip-path="url(#p54b6dc73c8)" d="M 55.905 201.382519 
L 61.837443 201.382519 
L 61.837443 196.670456 
L 61.948316 196.670456 
L 66.273714 196.670456 
L 66.273714 191.958393 
L 66.38458 191.958393 
L 66.495519 191.958393 
L 66.495519 187.24633 
L 66.606424 187.24633 
L 66.717312 187.24633 
L 66.717312 177.822204 
L 66.828236 177.822204 
L 66.939125 177.822204 
L 66.939125 173.110142 
L 67.050045 173.110142 
L 67.160938 173.110142 
L 67.160938 168.398079 
L 67.271843 168.398079 
L 67.382755 168.398079 
L 67.382755 163.686016 
L 67.493647 163.686016 
L 67.826371 163.686016 
L 67.826371 158.973953 
L 67.937272 158.973953 
L 71.597236 158.973953 
L 71.597236 149.549827 
L 71.708139 149.549827 
L 71.819025 149.549827 
L 71.819025 144.837764 
L 71.929929 144.837764 
L 72.706305 144.837764 
L 72.706305 140.125701 
L 72.817225 140.125701 
L 72.928118 140.125701 
L 72.928118 130.701575 
L 73.039009 130.701575 
L 93.113245 130.701575 
L 93.113245 125.989512 
L 93.224098 125.989512 
L 93.335038 125.989512 
L 93.335038 121.277449 
L 93.445911 121.277449 
L 93.556866 121.277449 
L 93.556866 116.565386 
L 93.667749 116.565386 
L 93.778656 116.565386 
L 93.778656 111.853323 
L 93.889552 111.853323 
L 94.000494 111.853323 
L 94.000494 102.429197 
L 94.111375 102.429197 
L 94.222311 102.429197 
L 94.222311 97.717134 
L 94.333189 97.717134 
L 98.214939 97.717134 
L 98.270396 83.580945 
L 98.325844 83.580945 
L 98.658578 83.580945 
L 98.658578 74.156819 
L 98.769481 74.156819 
L 99.324027 74.156819 
L 99.324027 69.444756 
L 99.434937 69.444756 
L 99.545843 69.444756 
L 99.545843 60.02063 
L 99.656757 60.02063 
L 99.767655 60.02063 
L 99.767655 36.460315 
L 99.878558 36.460315 
L 99.989436 36.460315 
L 99.989436 22.324126 
L 100.100444 22.324126 
L 103.316648 22.324126 
L 103.316648 27.036189 
L 103.42774 27.036189 
L 103.760277 27.036189 
L 103.760277 22.324126 
L 103.87123 22.324126 
L 157.43934 22.324126 
L 157.43934 27.036189 
L 157.550285 27.036189 
L 157.6612 27.036189 
L 157.6612 22.324126 
L 157.772063 22.324126 
L 167.421042 22.324126 
L 167.421042 27.036189 
L 167.531907 27.036189 
L 167.86461 27.036189 
L 167.86461 22.324126 
L 167.975572 22.324126 
L 168.308254 22.324126 
L 168.308254 27.036189 
L 168.419182 27.036189 
L 169.195558 27.036189 
L 169.195558 22.324126 
L 169.306437 22.324126 
L 303.005 22.324126 
L 303.005 22.324126 
" style="fill:none;stroke:#e7298a;stroke-linecap:square;stroke-width:1.5;"/>
   </g>
   <g id="line2d_23">
    <path clip-path="url(#p54b6dc73c8)" d="M 55.905 191.958393 
L 66.495519 191.958393 
L 66.495519 187.24633 
L 66.606424 187.24633 
L 67.604602 187.24633 
L 67.604602 182.534267 
L 67.715504 182.534267 
L 68.048216 182.534267 
L 68.048216 177.822204 
L 68.159137 177.822204 
L 72.262678 177.822204 
L 72.262678 173.110142 
L 72.373587 173.110142 
L 72.706305 173.110142 
L 72.706305 168.398079 
L 72.817225 168.398079 
L 77.142567 168.398079 
L 77.142567 163.686016 
L 77.253491 163.686016 
L 92.8914 163.686016 
L 92.8914 154.26189 
L 93.002284 154.26189 
L 93.113245 154.26189 
L 93.113245 144.837764 
L 93.224098 144.837764 
L 93.778656 144.837764 
L 93.778656 140.125701 
L 93.889552 140.125701 
L 94.665934 140.125701 
L 94.665934 135.413638 
L 94.776824 135.413638 
L 98.658578 135.413638 
L 98.658578 130.701575 
L 98.769481 130.701575 
L 99.102169 130.701575 
L 99.102169 121.277449 
L 99.213133 121.277449 
L 99.545843 121.277449 
L 99.545843 116.565386 
L 99.656757 116.565386 
L 100.876731 116.565386 
L 100.876731 111.853323 
L 100.987625 111.853323 
L 103.316648 111.853323 
L 103.316648 107.14126 
L 103.42774 107.14126 
L 103.760277 107.14126 
L 103.760277 102.429197 
L 103.87123 102.429197 
L 103.982089 102.429197 
L 103.982089 93.005071 
L 104.093008 93.005071 
L 104.425753 93.005071 
L 104.425753 88.293008 
L 104.536687 88.293008 
L 104.647546 88.293008 
L 104.703021 74.156819 
L 104.758475 74.156819 
L 104.869389 74.156819 
L 104.869389 64.732693 
L 104.980311 64.732693 
L 105.756611 64.732693 
L 105.756611 69.444756 
L 105.867568 69.444756 
L 109.083826 69.444756 
L 109.083826 60.02063 
L 109.194772 60.02063 
L 109.305695 60.02063 
L 109.305695 55.308567 
L 109.416601 55.308567 
L 109.749292 55.308567 
L 109.749292 50.596504 
L 109.860202 50.596504 
L 109.971132 50.596504 
L 109.971132 41.172378 
L 110.082017 41.172378 
L 110.192947 41.172378 
L 110.192947 36.460315 
L 110.303826 36.460315 
L 110.636582 36.460315 
L 110.636582 31.748252 
L 110.747451 31.748252 
L 292.746092 31.748252 
L 292.746092 36.460315 
L 292.856973 36.460315 
L 297.847794 36.460315 
L 297.847794 31.748252 
L 297.958731 31.748252 
L 303.005 31.748252 
L 303.005 31.748252 
" style="fill:none;stroke:#66a61e;stroke-linecap:square;stroke-width:1.5;"/>
   </g>
   <g id="line2d_24">
    <path clip-path="url(#p54b6dc73c8)" d="M 55.905 196.670456 
L 61.837443 196.670456 
L 61.837443 191.958393 
L 61.948316 191.958393 
L 66.273714 191.958393 
L 66.273714 187.24633 
L 66.38458 187.24633 
L 66.495519 187.24633 
L 66.495519 182.534267 
L 66.606424 182.534267 
L 66.939125 182.534267 
L 66.939125 177.822204 
L 67.050045 177.822204 
L 67.160938 177.822204 
L 67.160938 173.110142 
L 67.271843 173.110142 
L 67.382755 173.110142 
L 67.382755 163.686016 
L 67.493647 163.686016 
L 67.604602 163.686016 
L 67.604602 158.973953 
L 67.715504 158.973953 
L 67.826371 158.973953 
L 67.826371 154.26189 
L 67.937272 154.26189 
L 71.375426 154.26189 
L 71.375426 149.549827 
L 71.486322 149.549827 
L 71.597236 149.549827 
L 71.597236 140.125701 
L 71.708139 140.125701 
L 72.040828 140.125701 
L 72.040828 135.413638 
L 72.151763 135.413638 
L 72.262678 135.413638 
L 72.262678 125.989512 
L 72.373587 125.989512 
L 72.706305 125.989512 
L 72.706305 121.277449 
L 72.817225 121.277449 
L 73.149927 121.277449 
L 73.149927 116.565386 
L 73.260859 116.565386 
L 73.371754 116.565386 
L 73.371754 111.853323 
L 73.482641 111.853323 
L 77.364429 111.853323 
L 77.364429 107.14126 
L 77.475325 107.14126 
L 78.251671 107.14126 
L 78.251671 102.429197 
L 78.362567 102.429197 
L 84.018806 102.429197 
L 84.018806 97.717134 
L 84.129737 97.717134 
L 92.8914 97.717134 
L 92.8914 93.005071 
L 93.002284 93.005071 
L 93.556866 93.005071 
L 93.556866 78.868882 
L 93.667749 78.868882 
L 93.778656 78.868882 
L 93.778656 69.444756 
L 93.889552 69.444756 
L 94.000494 69.444756 
L 94.000494 60.02063 
L 94.111375 60.02063 
L 94.665934 60.02063 
L 94.665934 55.308567 
L 94.776824 55.308567 
L 97.77132 55.308567 
L 97.77132 50.596504 
L 97.882221 50.596504 
L 98.436749 50.596504 
L 98.436749 45.884441 
L 98.547689 45.884441 
L 98.658578 45.884441 
L 98.658578 41.172378 
L 98.769481 41.172378 
L 98.880378 41.172378 
L 98.880378 36.460315 
L 98.991278 36.460315 
L 99.545843 36.460315 
L 99.545843 31.748252 
L 99.656757 31.748252 
L 303.005 31.748252 
L 303.005 31.748252 
" style="fill:none;stroke:#e6ab02;stroke-linecap:square;stroke-width:1.5;"/>
   </g>
   <g id="line2d_25">
    <path clip-path="url(#p54b6dc73c8)" d="M 55.905 201.382519 
L 62.281012 201.382519 
L 62.281012 196.670456 
L 62.391916 196.670456 
L 66.495519 196.670456 
L 66.495519 191.958393 
L 66.606424 191.958393 
L 67.382755 191.958393 
L 67.382755 187.24633 
L 67.493647 187.24633 
L 72.040828 187.24633 
L 72.040828 177.822204 
L 72.151763 177.822204 
L 72.484485 177.822204 
L 72.484485 173.110142 
L 72.595401 173.110142 
L 72.928118 173.110142 
L 72.928118 168.398079 
L 73.039009 168.398079 
L 73.149927 168.398079 
L 73.149927 163.686016 
L 73.260859 163.686016 
L 78.251671 163.686016 
L 78.251671 158.973953 
L 78.362567 158.973953 
L 83.353396 158.973953 
L 83.353396 154.26189 
L 83.464318 154.26189 
L 93.113245 154.26189 
L 93.113245 144.837764 
L 93.224098 144.837764 
L 93.556866 144.837764 
L 93.556866 140.125701 
L 93.667749 140.125701 
L 94.665934 140.125701 
L 94.665934 135.413638 
L 94.776824 135.413638 
L 98.214939 135.413638 
L 98.214939 130.701575 
L 98.325844 130.701575 
L 99.324027 130.701575 
L 99.324027 125.989512 
L 99.434937 125.989512 
L 99.545843 125.989512 
L 99.545843 121.277449 
L 99.656757 121.277449 
L 99.767655 121.277449 
L 99.823101 107.14126 
L 99.878558 107.14126 
L 103.538468 107.14126 
L 103.538468 102.429197 
L 103.64942 102.429197 
L 103.760277 102.429197 
L 103.760277 93.005071 
L 103.87123 93.005071 
L 103.982089 93.005071 
L 103.982089 88.293008 
L 104.093008 88.293008 
L 104.203926 88.293008 
L 104.259377 74.156819 
L 104.314835 74.156819 
L 104.647546 74.156819 
L 104.647546 60.02063 
L 104.758475 60.02063 
L 104.869389 60.02063 
L 104.869389 50.596504 
L 104.980311 50.596504 
L 105.091171 50.596504 
L 105.091171 31.748252 
L 105.202116 31.748252 
L 105.313015 31.748252 
L 105.313015 27.036189 
L 105.423945 27.036189 
L 106.422096 27.036189 
L 106.422096 22.324126 
L 106.533008 22.324126 
L 167.421042 22.324126 
L 167.421042 27.036189 
L 167.531907 27.036189 
L 167.642854 27.036189 
L 167.642854 22.324126 
L 167.753755 22.324126 
L 168.086458 22.324126 
L 168.086458 27.036189 
L 168.197391 27.036189 
L 168.751876 27.036189 
L 168.751876 31.748252 
L 168.862826 31.748252 
L 169.195558 31.748252 
L 169.195558 36.460315 
L 169.306437 36.460315 
L 175.184502 36.460315 
L 175.184502 41.172378 
L 175.295406 41.172378 
L 188.27157 41.172378 
L 188.27157 36.460315 
L 188.38248 36.460315 
L 212.892925 36.460315 
L 212.892925 41.172378 
L 213.003864 41.172378 
L 221.543706 41.172378 
L 221.543706 36.460315 
L 221.654606 36.460315 
L 248.605084 36.460315 
L 248.605084 31.748252 
L 248.715984 31.748252 
L 252.154054 31.748252 
L 252.154054 27.036189 
L 252.264967 27.036189 
L 258.364883 27.036189 
L 258.364883 22.324126 
L 290.306156 22.324126 
L 290.306156 31.748252 
L 290.417021 31.748252 
L 290.971545 31.748252 
L 290.971545 36.460315 
L 291.082505 36.460315 
L 303.005 36.460315 
L 303.005 36.460315 
" style="fill:none;stroke:#a6761d;stroke-linecap:square;stroke-width:1.5;"/>
   </g>
   <g id="line2d_26">
    <path clip-path="url(#p54b6dc73c8)" d="M 55.905 201.382519 
L 66.717312 201.382519 
L 66.717312 196.670456 
L 66.828236 196.670456 
L 67.382755 196.670456 
L 67.382755 191.958393 
L 67.493647 191.958393 
L 72.262678 191.958393 
L 72.262678 187.24633 
L 72.373587 187.24633 
L 72.706305 187.24633 
L 72.706305 191.958393 
L 72.817225 191.958393 
L 72.928118 191.958393 
L 72.928118 182.534267 
L 73.039009 182.534267 
L 93.113245 182.534267 
L 93.113245 177.822204 
L 93.224098 177.822204 
L 93.556866 177.822204 
L 93.556866 173.110142 
L 93.667749 173.110142 
L 94.000494 173.110142 
L 94.000494 168.398079 
L 94.111375 168.398079 
L 94.222311 168.398079 
L 94.222311 163.686016 
L 94.333189 163.686016 
L 95.331346 163.686016 
L 95.331346 158.973953 
L 95.442298 158.973953 
L 98.880378 158.973953 
L 98.880378 154.26189 
L 98.991278 154.26189 
L 99.545843 154.26189 
L 99.545843 149.549827 
L 99.656757 149.549827 
L 99.767655 149.549827 
L 99.767655 144.837764 
L 99.878558 144.837764 
L 103.538468 144.837764 
L 103.538468 135.413638 
L 103.64942 135.413638 
L 103.760277 135.413638 
L 103.760277 130.701575 
L 103.87123 130.701575 
L 103.982089 130.701575 
L 104.037547 116.565386 
L 104.093008 116.565386 
L 104.869389 116.565386 
L 104.869389 111.853323 
L 104.980311 111.853323 
L 105.091171 111.853323 
L 105.091171 107.14126 
L 105.202116 107.14126 
L 105.313015 107.14126 
L 105.313015 111.853323 
L 105.423945 111.853323 
L 105.53481 111.853323 
L 105.53481 107.14126 
L 105.645755 107.14126 
L 105.756611 107.14126 
L 105.756611 102.429197 
L 105.867568 102.429197 
L 108.418418 102.429197 
L 108.418418 107.14126 
L 108.529293 107.14126 
L 109.083826 107.14126 
L 109.083826 93.005071 
L 109.194772 93.005071 
L 109.52747 93.005071 
L 109.52747 88.293008 
L 109.638359 88.293008 
L 109.971132 88.293008 
L 109.971132 69.444756 
L 110.082017 69.444756 
L 110.192947 69.444756 
L 110.192947 64.732693 
L 110.303826 64.732693 
L 115.07282 64.732693 
L 115.07282 60.02063 
L 115.183719 60.02063 
L 133.039823 60.02063 
L 133.039823 55.308567 
L 133.150729 55.308567 
L 136.588842 55.308567 
L 136.588842 50.596504 
L 136.699718 50.596504 
L 136.810629 50.596504 
L 136.810629 55.308567 
L 136.921562 55.308567 
L 137.25426 55.308567 
L 137.25426 50.596504 
L 137.365193 50.596504 
L 142.57784 50.596504 
L 142.57784 45.884441 
L 142.688732 45.884441 
L 151.672172 45.884441 
L 151.672172 50.596504 
L 151.78309 50.596504 
L 157.882984 50.596504 
L 157.882984 45.884441 
L 157.993905 45.884441 
L 167.421042 45.884441 
L 167.421042 50.596504 
L 167.531907 50.596504 
L 167.86461 50.596504 
L 167.86461 55.308567 
L 167.975572 55.308567 
L 168.530061 55.308567 
L 168.530061 60.02063 
L 168.640969 60.02063 
L 174.740871 60.02063 
L 174.740871 64.732693 
L 174.851823 64.732693 
L 184.278872 64.732693 
L 184.278872 69.444756 
L 184.389811 69.444756 
L 206.460353 69.444756 
L 206.460353 74.156819 
L 206.571236 74.156819 
L 303.005 74.156819 
L 303.005 74.156819 
" style="fill:none;stroke:#666666;stroke-linecap:square;stroke-width:1.5;"/>
   </g>
   <g id="line2d_27">
    <path clip-path="url(#p54b6dc73c8)" d="M 55.905 206.094582 
L 66.717312 206.094582 
L 66.717312 201.382519 
L 66.828236 201.382519 
L 72.706305 201.382519 
L 72.706305 191.958393 
L 72.817225 191.958393 
L 92.8914 191.958393 
L 92.8914 187.24633 
L 93.002284 187.24633 
L 93.335038 187.24633 
L 93.335038 182.534267 
L 93.445911 182.534267 
L 94.000494 182.534267 
L 94.000494 177.822204 
L 94.111375 177.822204 
L 98.214939 177.822204 
L 98.214939 173.110142 
L 98.325844 173.110142 
L 98.436749 173.110142 
L 98.436749 163.686016 
L 98.547689 163.686016 
L 98.658578 163.686016 
L 98.658578 158.973953 
L 98.769481 158.973953 
L 99.102169 158.973953 
L 99.102169 154.26189 
L 99.213133 154.26189 
L 99.324027 154.26189 
L 99.324027 144.837764 
L 99.434937 144.837764 
L 99.545843 144.837764 
L 99.545843 135.413638 
L 99.656757 135.413638 
L 100.433116 135.413638 
L 100.433116 130.701575 
L 100.54401 130.701575 
L 100.876731 130.701575 
L 100.876731 125.989512 
L 100.987625 125.989512 
L 101.098505 125.989512 
L 101.098505 130.701575 
L 101.209469 130.701575 
L 103.094856 130.701575 
L 103.094856 135.413638 
L 103.205791 135.413638 
L 103.316648 135.413638 
L 103.316648 140.125701 
L 103.42774 140.125701 
L 103.538468 140.125701 
L 103.538468 135.413638 
L 103.64942 135.413638 
L 103.760277 135.413638 
L 103.760277 140.125701 
L 103.87123 140.125701 
L 103.982089 140.125701 
L 103.982089 135.413638 
L 104.093008 135.413638 
L 104.203926 135.413638 
L 104.203926 130.701575 
L 104.314835 130.701575 
L 104.647546 130.701575 
L 104.647546 135.413638 
L 104.758475 135.413638 
L 109.749292 135.413638 
L 109.749292 130.701575 
L 109.860202 130.701575 
L 110.192947 130.701575 
L 110.192947 125.989512 
L 110.303826 125.989512 
L 115.294663 125.989512 
L 115.294663 121.277449 
L 115.405548 121.277449 
L 116.847346 121.277449 
L 116.847346 116.565386 
L 116.958233 116.565386 
L 131.043466 116.565386 
L 131.043466 111.853323 
L 131.154392 111.853323 
L 131.265278 111.853323 
L 131.265278 107.14126 
L 131.376192 107.14126 
L 132.152512 107.14126 
L 132.152512 102.429197 
L 132.263456 102.429197 
L 142.57784 102.429197 
L 142.57784 97.717134 
L 142.688732 97.717134 
L 143.243224 97.717134 
L 143.243224 93.005071 
L 143.354176 93.005071 
L 154.333976 93.005071 
L 154.333976 88.293008 
L 154.444854 88.293008 
L 159.213869 88.293008 
L 159.213869 93.005071 
L 159.32478 93.005071 
L 167.86461 93.005071 
L 167.86461 97.717134 
L 167.975572 97.717134 
L 206.016714 97.717134 
L 206.016714 93.005071 
L 206.127638 93.005071 
L 243.503353 93.005071 
L 243.503353 88.293008 
L 243.614236 88.293008 
L 247.71781 88.293008 
L 247.71781 83.580945 
L 247.828682 83.580945 
L 263.022973 83.580945 
L 263.022973 78.868882 
L 263.133896 78.868882 
L 295.407902 78.868882 
L 295.407902 83.580945 
L 295.518806 83.580945 
L 295.62966 83.580945 
L 295.62966 78.868882 
L 295.740566 78.868882 
L 303.005 78.868882 
L 303.005 78.868882 
" style="fill:none;stroke:#1b9e77;stroke-dasharray:4.5,1.5;stroke-dashoffset:0;stroke-width:1.5;"/>
   </g>
   <g id="line2d_28">
    <path clip-path="url(#p54b6dc73c8)" d="M 55.905 196.670456 
L 60.835545 196.670456 
L 60.835545 191.958393 
L 67.382755 191.958393 
L 67.382755 187.24633 
L 67.493647 187.24633 
L 71.819025 187.24633 
L 71.819025 182.534267 
L 71.929929 182.534267 
L 72.262678 182.534267 
L 72.262678 177.822204 
L 72.373587 177.822204 
L 72.928118 177.822204 
L 72.928118 173.110142 
L 73.039009 173.110142 
L 73.149927 173.110142 
L 73.149927 168.398079 
L 73.260859 168.398079 
L 74.480822 168.398079 
L 74.480822 163.686016 
L 74.591751 163.686016 
L 93.556866 163.686016 
L 93.556866 154.26189 
L 93.667749 154.26189 
L 98.658578 154.26189 
L 98.658578 149.549827 
L 98.769481 149.549827 
L 99.767655 149.549827 
L 99.767655 144.837764 
L 99.878558 144.837764 
L 100.433116 144.837764 
L 100.433116 140.125701 
L 100.54401 140.125701 
L 103.760277 140.125701 
L 103.760277 135.413638 
L 103.87123 135.413638 
L 103.982089 135.413638 
L 103.982089 125.989512 
L 104.093008 125.989512 
L 104.647546 125.989512 
L 104.647546 116.565386 
L 104.758475 116.565386 
L 109.52747 116.565386 
L 109.52747 111.853323 
L 109.638359 111.853323 
L 110.192947 111.853323 
L 110.192947 107.14126 
L 110.303826 107.14126 
L 110.858345 107.14126 
L 110.858345 102.429197 
L 110.969277 102.429197 
L 116.403739 102.429197 
L 116.403739 97.717134 
L 116.514649 97.717134 
L 131.708916 97.717134 
L 131.708916 93.005071 
L 131.819838 93.005071 
L 136.810629 93.005071 
L 136.810629 88.293008 
L 136.921562 88.293008 
L 142.57784 88.293008 
L 142.57784 93.005071 
L 142.688732 93.005071 
L 168.086458 93.005071 
L 168.086458 88.293008 
L 168.197391 88.293008 
L 168.308254 88.293008 
L 168.308254 93.005071 
L 168.419182 93.005071 
L 173.853634 93.005071 
L 173.853634 88.293008 
L 173.964567 88.293008 
L 212.892925 88.293008 
L 212.892925 83.580945 
L 213.003864 83.580945 
L 248.383223 83.580945 
L 248.383223 78.868882 
L 248.494129 78.868882 
L 259.695776 78.868882 
L 259.695776 83.580945 
L 259.806672 83.580945 
L 303.005 83.580945 
L 303.005 83.580945 
" style="fill:none;stroke:#d95f02;stroke-dasharray:4.5,1.5;stroke-dashoffset:0;stroke-width:1.5;"/>
   </g>
   <g id="line2d_29">
    <path clip-path="url(#p54b6dc73c8)" d="M 55.905 206.094582 
L 66.273714 206.094582 
L 66.273714 201.382519 
L 66.38458 201.382519 
L 66.495519 201.382519 
L 66.495519 196.670456 
L 66.606424 196.670456 
L 67.382755 196.670456 
L 67.382755 187.24633 
L 67.493647 187.24633 
L 71.597236 187.24633 
L 71.597236 182.534267 
L 71.708139 182.534267 
L 72.706305 182.534267 
L 72.706305 177.822204 
L 72.817225 177.822204 
L 72.928118 177.822204 
L 72.928118 173.110142 
L 73.039009 173.110142 
L 73.149927 173.110142 
L 73.149927 168.398079 
L 73.260859 168.398079 
L 93.335038 168.398079 
L 93.335038 163.686016 
L 93.445911 163.686016 
L 93.556866 163.686016 
L 93.556866 158.973953 
L 93.667749 158.973953 
L 93.778656 158.973953 
L 93.778656 149.549827 
L 93.889552 149.549827 
L 99.324027 149.549827 
L 99.324027 144.837764 
L 99.434937 144.837764 
L 99.545843 144.837764 
L 99.545843 140.125701 
L 99.656757 140.125701 
L 103.316648 140.125701 
L 103.316648 144.837764 
L 103.42774 144.837764 
L 103.982089 144.837764 
L 103.982089 135.413638 
L 104.093008 135.413638 
L 104.203926 135.413638 
L 104.203926 140.125701 
L 104.314835 140.125701 
L 104.425753 140.125701 
L 104.425753 135.413638 
L 104.536687 135.413638 
L 104.869389 135.413638 
L 104.869389 125.989512 
L 104.980311 125.989512 
L 105.091171 125.989512 
L 105.091171 121.277449 
L 105.202116 121.277449 
L 115.51644 121.277449 
L 115.51644 116.565386 
L 115.627397 116.565386 
L 116.181922 116.565386 
L 116.181922 111.853323 
L 116.292814 111.853323 
L 126.828976 111.853323 
L 126.828976 107.14126 
L 126.939885 107.14126 
L 147.01408 107.14126 
L 147.01408 102.429197 
L 147.125004 102.429197 
L 147.901336 102.429197 
L 147.901336 97.717134 
L 148.012296 97.717134 
L 152.337657 97.717134 
L 152.337657 93.005071 
L 152.448571 93.005071 
L 169.860998 93.005071 
L 169.860998 88.293008 
L 169.971866 88.293008 
L 302.062262 88.293008 
L 302.062262 93.005071 
L 302.173222 93.005071 
L 303.005 93.005071 
L 303.005 93.005071 
" style="fill:none;stroke:#7570b3;stroke-dasharray:4.5,1.5;stroke-dashoffset:0;stroke-width:1.5;"/>
   </g>
   <g id="line2d_30">
    <path clip-path="url(#p54b6dc73c8)" d="M 55.905 210.806645 
L 61.6158 210.806645 
L 61.6158 206.094582 
L 61.726516 206.094582 
L 62.059245 206.094582 
L 62.059245 201.382519 
L 62.170176 201.382519 
L 67.160938 201.382519 
L 67.160938 196.670456 
L 67.271843 196.670456 
L 72.928118 196.670456 
L 72.928118 191.958393 
L 73.039009 191.958393 
L 76.477156 191.958393 
L 76.477156 187.24633 
L 76.588096 187.24633 
L 77.586204 187.24633 
L 77.586204 182.534267 
L 77.697135 182.534267 
L 78.029852 182.534267 
L 78.029852 177.822204 
L 78.140739 177.822204 
L 92.8914 177.822204 
L 92.8914 168.398079 
L 93.002284 168.398079 
L 93.335038 168.398079 
L 93.335038 163.686016 
L 93.445911 163.686016 
L 93.556866 163.686016 
L 93.556866 158.973953 
L 93.667749 158.973953 
L 93.778656 158.973953 
L 93.778656 154.26189 
L 93.889552 154.26189 
L 94.000494 154.26189 
L 94.000494 144.837764 
L 94.111375 144.837764 
L 94.222311 144.837764 
L 94.222311 140.125701 
L 94.333189 140.125701 
L 94.665934 140.125701 
L 94.665934 135.413638 
L 94.776824 135.413638 
L 95.109582 135.413638 
L 95.109582 130.701575 
L 95.220471 130.701575 
L 95.774965 130.701575 
L 95.774965 125.989512 
L 95.885925 125.989512 
L 98.214939 125.989512 
L 98.214939 121.277449 
L 98.325844 121.277449 
L 98.436749 121.277449 
L 98.436749 116.565386 
L 98.547689 116.565386 
L 98.658578 116.565386 
L 98.658578 102.429197 
L 98.769481 102.429197 
L 98.880378 102.429197 
L 98.880378 97.717134 
L 98.991278 97.717134 
L 99.102169 97.717134 
L 99.102169 93.005071 
L 99.213133 93.005071 
L 101.098505 93.005071 
L 101.098505 97.717134 
L 101.209469 97.717134 
L 103.982089 97.717134 
L 103.982089 93.005071 
L 104.093008 93.005071 
L 104.203926 93.005071 
L 104.203926 97.717134 
L 104.314835 97.717134 
L 104.425753 97.717134 
L 104.425753 93.005071 
L 104.536687 93.005071 
L 110.636582 93.005071 
L 110.636582 97.717134 
L 110.747451 97.717134 
L 110.858345 97.717134 
L 110.858345 93.005071 
L 110.969277 93.005071 
L 303.005 93.005071 
L 303.005 93.005071 
" style="fill:none;stroke:#e7298a;stroke-dasharray:4.5,1.5;stroke-dashoffset:0;stroke-width:1.5;"/>
   </g>
   <g id="line2d_31">
    <path clip-path="url(#p54b6dc73c8)" d="M 155.49848 210.806645 
L 157.43934 210.806645 
L 157.43934 206.094582 
L 157.550285 206.094582 
L 164.093815 206.094582 
L 164.093815 201.382519 
L 164.20469 201.382519 
L 167.421042 201.382519 
L 167.421042 182.534267 
L 167.531907 182.534267 
L 167.86461 182.534267 
L 167.86461 173.110142 
L 167.975572 173.110142 
L 168.308254 173.110142 
L 168.308254 158.973953 
L 168.419182 158.973953 
L 168.751876 158.973953 
L 168.751876 154.26189 
L 168.862826 154.26189 
L 173.188208 154.26189 
L 173.188208 149.549827 
L 173.299113 149.549827 
L 174.297267 149.549827 
L 174.297267 144.837764 
L 174.408166 144.837764 
L 174.740871 144.837764 
L 174.740871 140.125701 
L 174.851823 140.125701 
L 175.184502 140.125701 
L 175.184502 135.413638 
L 175.295406 135.413638 
L 175.406324 135.413638 
L 175.406324 130.701575 
L 175.517208 130.701575 
L 178.511739 130.701575 
L 178.511739 125.989512 
L 178.622651 125.989512 
L 180.508031 125.989512 
L 180.508031 121.277449 
L 180.618977 121.277449 
L 184.278872 121.277449 
L 184.278872 116.565386 
L 184.389811 116.565386 
L 252.154054 116.565386 
L 252.154054 121.277449 
L 252.264967 121.277449 
L 253.263113 121.277449 
L 253.263113 116.565386 
L 253.374062 116.565386 
L 290.527959 116.565386 
L 290.527959 111.853323 
L 290.638882 111.853323 
L 290.971545 111.853323 
L 290.971545 107.14126 
L 291.082505 107.14126 
L 292.746092 107.14126 
L 292.746092 102.429197 
L 292.856973 102.429197 
L 303.005 102.429197 
L 303.005 102.429197 
" style="fill:none;stroke:#66a61e;stroke-dasharray:4.5,1.5;stroke-dashoffset:0;stroke-width:1.5;"/>
   </g>
   <g id="line2d_32">
    <path clip-path="url(#p54b6dc73c8)" d="M 55.905 210.806645 
L 62.502822 210.806645 
L 62.502822 206.094582 
L 62.613735 206.094582 
L 63.390123 206.094582 
L 63.390123 201.382519 
L 63.501018 201.382519 
L 77.364429 201.382519 
L 77.364429 196.670456 
L 77.475325 196.670456 
L 92.8914 196.670456 
L 92.8914 191.958393 
L 93.002284 191.958393 
L 94.444092 191.958393 
L 94.444092 182.534267 
L 94.55499 182.534267 
L 98.658578 182.534267 
L 98.658578 177.822204 
L 98.769481 177.822204 
L 98.880378 177.822204 
L 98.880378 173.110142 
L 98.991278 173.110142 
L 99.545843 173.110142 
L 99.545843 163.686016 
L 99.656757 163.686016 
L 99.767655 163.686016 
L 99.767655 158.973953 
L 99.878558 158.973953 
L 101.098505 158.973953 
L 101.098505 154.26189 
L 101.209469 154.26189 
L 103.760277 154.26189 
L 103.760277 158.973953 
L 103.87123 158.973953 
L 104.203926 158.973953 
L 104.203926 154.26189 
L 104.314835 154.26189 
L 104.425753 154.26189 
L 104.425753 149.549827 
L 104.536687 149.549827 
L 104.869389 149.549827 
L 104.869389 144.837764 
L 104.980311 144.837764 
L 105.091171 144.837764 
L 105.091171 149.549827 
L 105.202116 149.549827 
L 105.313015 149.549827 
L 105.313015 144.837764 
L 105.423945 144.837764 
L 109.083826 144.837764 
L 109.083826 140.125701 
L 109.194772 140.125701 
L 116.181922 140.125701 
L 116.181922 135.413638 
L 116.292814 135.413638 
L 131.043466 135.413638 
L 131.043466 130.701575 
L 131.154392 130.701575 
L 152.115812 130.701575 
L 152.115812 125.989512 
L 152.226769 125.989512 
L 178.511739 125.989512 
L 178.511739 121.277449 
L 178.622651 121.277449 
L 206.460353 121.277449 
L 206.460353 116.565386 
L 206.571236 116.565386 
L 258.364883 116.565386 
L 258.364883 111.853323 
L 279.65904 111.853323 
L 279.65904 107.14126 
L 279.769973 107.14126 
L 303.005 107.14126 
L 303.005 107.14126 
" style="fill:none;stroke:#e6ab02;stroke-dasharray:4.5,1.5;stroke-dashoffset:0;stroke-width:1.5;"/>
   </g>
   <g id="line2d_33">
    <path clip-path="url(#p54b6dc73c8)" d="M 55.905 206.094582 
L 66.939125 206.094582 
L 66.939125 196.670456 
L 67.050045 196.670456 
L 71.819025 196.670456 
L 71.819025 187.24633 
L 71.929929 187.24633 
L 72.040828 187.24633 
L 72.040828 182.534267 
L 72.151763 182.534267 
L 72.928118 182.534267 
L 72.928118 177.822204 
L 73.039009 177.822204 
L 73.149927 177.822204 
L 73.149927 173.110142 
L 73.260859 173.110142 
L 93.778656 173.110142 
L 93.778656 168.398079 
L 93.889552 168.398079 
L 94.000494 168.398079 
L 94.000494 163.686016 
L 94.111375 163.686016 
L 94.222311 163.686016 
L 94.222311 158.973953 
L 94.333189 158.973953 
L 94.887705 158.973953 
L 94.887705 154.26189 
L 94.998663 154.26189 
L 95.109582 154.26189 
L 95.109582 158.973953 
L 95.220471 158.973953 
L 98.214939 158.973953 
L 98.214939 140.125701 
L 98.325844 140.125701 
L 98.658578 140.125701 
L 98.658578 130.701575 
L 98.769481 130.701575 
L 98.880378 130.701575 
L 98.880378 125.989512 
L 98.991278 125.989512 
L 99.102169 125.989512 
L 99.102169 116.565386 
L 99.213133 116.565386 
L 303.005 116.565386 
L 303.005 116.565386 
" style="fill:none;stroke:#a6761d;stroke-dasharray:4.5,1.5;stroke-dashoffset:0;stroke-width:1.5;"/>
   </g>
   <g id="line2d_34">
    <path clip-path="url(#p54b6dc73c8)" d="M 55.905 210.806645 
L 67.382755 210.806645 
L 67.382755 206.094582 
L 67.493647 206.094582 
L 67.604602 206.094582 
L 67.604602 201.382519 
L 67.715504 201.382519 
L 72.040828 201.382519 
L 72.040828 196.670456 
L 72.151763 196.670456 
L 73.149927 196.670456 
L 73.149927 191.958393 
L 73.260859 191.958393 
L 73.593555 191.958393 
L 73.593555 187.24633 
L 73.704487 187.24633 
L 74.037207 187.24633 
L 74.037207 182.534267 
L 74.148123 182.534267 
L 77.364429 182.534267 
L 77.364429 187.24633 
L 77.475325 187.24633 
L 93.113245 187.24633 
L 93.113245 182.534267 
L 93.224098 182.534267 
L 94.444092 182.534267 
L 94.444092 173.110142 
L 94.55499 173.110142 
L 98.436749 173.110142 
L 98.436749 168.398079 
L 98.547689 168.398079 
L 99.324027 168.398079 
L 99.324027 149.549827 
L 99.434937 149.549827 
L 99.545843 149.549827 
L 99.545843 144.837764 
L 99.656757 144.837764 
L 99.767655 144.837764 
L 99.767655 140.125701 
L 99.878558 140.125701 
L 167.86461 140.125701 
L 167.86461 144.837764 
L 167.975572 144.837764 
L 168.086458 144.837764 
L 168.086458 140.125701 
L 168.197391 140.125701 
L 302.062262 140.125701 
L 302.062262 135.413638 
L 302.173222 135.413638 
L 303.005 135.413638 
L 303.005 135.413638 
" style="fill:none;stroke:#666666;stroke-dasharray:4.5,1.5;stroke-dashoffset:0;stroke-width:1.5;"/>
   </g>
   <g id="line2d_35"/>
   <g id="line2d_36"/>
   <g id="line2d_37"/>
   <g id="line2d_38"/>
   <g id="line2d_39"/>
   <g id="line2d_40"/>
   <g id="line2d_41"/>
   <g id="line2d_42"/>
   <g id="line2d_43"/>
   <g id="line2d_44"/>
   <g id="line2d_45"/>
   <g id="line2d_46"/>
   <g id="line2d_47"/>
   <g id="line2d_48"/>
   <g id="line2d_49"/>
   <g id="line2d_50"/>
   <g id="line2d_51"/>
   <g id="patch_3">
    <path d="M 43.55 220.230771 
L 43.55 12.9 
" style="fill:none;stroke:#000000;stroke-linecap:square;stroke-linejoin:miter;stroke-width:0.8;"/>
   </g>
   <g id="patch_4">
    <path d="M 315.36 220.230771 
L 315.36 12.9 
" style="fill:none;stroke:#000000;stroke-linecap:square;stroke-linejoin:miter;stroke-width:0.8;"/>
   </g>
   <g id="patch_5">
    <path d="M 43.55 220.230771 
L 315.36 220.230771 
" style="fill:none;stroke:#000000;stroke-linecap:square;stroke-linejoin:miter;stroke-width:0.8;"/>
   </g>
   <g id="patch_6">
    <path d="M 43.55 12.9 
L 315.36 12.9 
" style="fill:none;stroke:#000000;stroke-linecap:square;stroke-linejoin:miter;stroke-width:0.8;"/>
   </g>
  </g>
  <g id="legend_1">
   <g id="patch_7">
    <path d="M 331.8625 262.528125 
L 420 262.528125 
Q 422 262.528125 422 260.528125 
L 422 12 
Q 422 10 420 10 
L 331.8625 10 
Q 329.8625 10 329.8625 12 
L 329.8625 260.528125 
Q 329.8625 262.528125 331.8625 262.528125 
z
" style="fill:#ffffff;opacity:0.8;stroke:#cccccc;stroke-linejoin:miter;"/>
   </g>
   <g id="text_21">
    <!-- 488/610 Reg. -->
    <defs>
     <path d="M 25.390625 72.90625 
L 33.6875 72.90625 
L 8.296875 -9.28125 
L 0 -9.28125 
z
" id="DejaVuSans-47"/>
     <path d="M 33.015625 40.375 
Q 26.375 40.375 22.484375 35.828125 
Q 18.609375 31.296875 18.609375 23.390625 
Q 18.609375 15.53125 22.484375 10.953125 
Q 26.375 6.390625 33.015625 6.390625 
Q 39.65625 6.390625 43.53125 10.953125 
Q 47.40625 15.53125 47.40625 23.390625 
Q 47.40625 31.296875 43.53125 35.828125 
Q 39.65625 40.375 33.015625 40.375 
z
M 52.59375 71.296875 
L 52.59375 62.3125 
Q 48.875 64.0625 45.09375 64.984375 
Q 41.3125 65.921875 37.59375 65.921875 
Q 27.828125 65.921875 22.671875 59.328125 
Q 17.53125 52.734375 16.796875 39.40625 
Q 19.671875 43.65625 24.015625 45.921875 
Q 28.375 48.1875 33.59375 48.1875 
Q 44.578125 48.1875 50.953125 41.515625 
Q 57.328125 34.859375 57.328125 23.390625 
Q 57.328125 12.15625 50.6875 5.359375 
Q 44.046875 -1.421875 33.015625 -1.421875 
Q 20.359375 -1.421875 13.671875 8.265625 
Q 6.984375 17.96875 6.984375 36.375 
Q 6.984375 53.65625 15.1875 63.9375 
Q 23.390625 74.21875 37.203125 74.21875 
Q 40.921875 74.21875 44.703125 73.484375 
Q 48.484375 72.75 52.59375 71.296875 
z
" id="DejaVuSans-54"/>
     <path d="M 10.6875 12.40625 
L 21 12.40625 
L 21 0 
L 10.6875 0 
z
" id="DejaVuSans-46"/>
    </defs>
    <g transform="translate(342.259375 21.598437)scale(0.1 -0.1)">
     <use xlink:href="#DejaVuSans-52"/>
     <use x="63.623047" xlink:href="#DejaVuSans-56"/>
     <use x="127.246094" xlink:href="#DejaVuSans-56"/>
     <use x="190.869141" xlink:href="#DejaVuSans-47"/>
     <use x="224.560547" xlink:href="#DejaVuSans-54"/>
     <use x="288.183594" xlink:href="#DejaVuSans-49"/>
     <use x="351.806641" xlink:href="#DejaVuSans-48"/>
     <use x="415.429688" xlink:href="#DejaVuSans-32"/>
     <use x="447.216797" xlink:href="#DejaVuSans-82"/>
     <use x="516.636719" xlink:href="#DejaVuSans-101"/>
     <use x="578.160156" xlink:href="#DejaVuSans-103"/>
     <use x="641.636719" xlink:href="#DejaVuSans-46"/>
    </g>
   </g>
   <g id="line2d_52">
    <path d="M 333.8625 32.776562 
L 353.8625 32.776562 
" style="fill:none;stroke:#1b9e77;stroke-linecap:square;stroke-width:1.5;"/>
   </g>
   <g id="line2d_53"/>
   <g id="text_22">
    <!-- AS (40) -->
    <defs>
     <path d="M 34.1875 63.1875 
L 20.796875 26.90625 
L 47.609375 26.90625 
z
M 28.609375 72.90625 
L 39.796875 72.90625 
L 67.578125 0 
L 57.328125 0 
L 50.6875 18.703125 
L 17.828125 18.703125 
L 11.1875 0 
L 0.78125 0 
z
" id="DejaVuSans-65"/>
     <path d="M 31 75.875 
Q 24.46875 64.65625 21.28125 53.65625 
Q 18.109375 42.671875 18.109375 31.390625 
Q 18.109375 20.125 21.3125 9.0625 
Q 24.515625 -2 31 -13.1875 
L 23.1875 -13.1875 
Q 15.875 -1.703125 12.234375 9.375 
Q 8.59375 20.453125 8.59375 31.390625 
Q 8.59375 42.28125 12.203125 53.3125 
Q 15.828125 64.359375 23.1875 75.875 
z
" id="DejaVuSans-40"/>
     <path d="M 8.015625 75.875 
L 15.828125 75.875 
Q 23.140625 64.359375 26.78125 53.3125 
Q 30.421875 42.28125 30.421875 31.390625 
Q 30.421875 20.453125 26.78125 9.375 
Q 23.140625 -1.703125 15.828125 -13.1875 
L 8.015625 -13.1875 
Q 14.5 -2 17.703125 9.0625 
Q 20.90625 20.125 20.90625 31.390625 
Q 20.90625 42.671875 17.703125 53.65625 
Q 14.5 64.65625 8.015625 75.875 
z
" id="DejaVuSans-41"/>
    </defs>
    <g transform="translate(361.8625 36.276562)scale(0.1 -0.1)">
     <use xlink:href="#DejaVuSans-65"/>
     <use x="68.408203" xlink:href="#DejaVuSans-83"/>
     <use x="131.884766" xlink:href="#DejaVuSans-32"/>
     <use x="163.671875" xlink:href="#DejaVuSans-40"/>
     <use x="202.685547" xlink:href="#DejaVuSans-52"/>
     <use x="266.308594" xlink:href="#DejaVuSans-48"/>
     <use x="329.931641" xlink:href="#DejaVuSans-41"/>
    </g>
   </g>
   <g id="line2d_54">
    <path d="M 333.8625 47.454688 
L 353.8625 47.454688 
" style="fill:none;stroke:#d95f02;stroke-linecap:square;stroke-width:1.5;"/>
   </g>
   <g id="line2d_55"/>
   <g id="text_23">
    <!-- AUS (40) -->
    <defs>
     <path d="M 8.6875 72.90625 
L 18.609375 72.90625 
L 18.609375 28.609375 
Q 18.609375 16.890625 22.84375 11.734375 
Q 27.09375 6.59375 36.625 6.59375 
Q 46.09375 6.59375 50.34375 11.734375 
Q 54.59375 16.890625 54.59375 28.609375 
L 54.59375 72.90625 
L 64.5 72.90625 
L 64.5 27.390625 
Q 64.5 13.140625 57.4375 5.859375 
Q 50.390625 -1.421875 36.625 -1.421875 
Q 22.796875 -1.421875 15.734375 5.859375 
Q 8.6875 13.140625 8.6875 27.390625 
z
" id="DejaVuSans-85"/>
    </defs>
    <g transform="translate(361.8625 50.954688)scale(0.1 -0.1)">
     <use xlink:href="#DejaVuSans-65"/>
     <use x="68.408203" xlink:href="#DejaVuSans-85"/>
     <use x="141.601562" xlink:href="#DejaVuSans-83"/>
     <use x="205.078125" xlink:href="#DejaVuSans-32"/>
     <use x="236.865234" xlink:href="#DejaVuSans-40"/>
     <use x="275.878906" xlink:href="#DejaVuSans-52"/>
     <use x="339.501953" xlink:href="#DejaVuSans-48"/>
     <use x="403.125" xlink:href="#DejaVuSans-41"/>
    </g>
   </g>
   <g id="line2d_56">
    <path d="M 333.8625 62.132812 
L 353.8625 62.132812 
" style="fill:none;stroke:#7570b3;stroke-linecap:square;stroke-width:1.5;"/>
   </g>
   <g id="line2d_57"/>
   <g id="text_24">
    <!-- COML (40) -->
    <defs>
     <path d="M 64.40625 67.28125 
L 64.40625 56.890625 
Q 59.421875 61.53125 53.78125 63.8125 
Q 48.140625 66.109375 41.796875 66.109375 
Q 29.296875 66.109375 22.65625 58.46875 
Q 16.015625 50.828125 16.015625 36.375 
Q 16.015625 21.96875 22.65625 14.328125 
Q 29.296875 6.6875 41.796875 6.6875 
Q 48.140625 6.6875 53.78125 8.984375 
Q 59.421875 11.28125 64.40625 15.921875 
L 64.40625 5.609375 
Q 59.234375 2.09375 53.4375 0.328125 
Q 47.65625 -1.421875 41.21875 -1.421875 
Q 24.65625 -1.421875 15.125 8.703125 
Q 5.609375 18.84375 5.609375 36.375 
Q 5.609375 53.953125 15.125 64.078125 
Q 24.65625 74.21875 41.21875 74.21875 
Q 47.75 74.21875 53.53125 72.484375 
Q 59.328125 70.75 64.40625 67.28125 
z
" id="DejaVuSans-67"/>
     <path d="M 39.40625 66.21875 
Q 28.65625 66.21875 22.328125 58.203125 
Q 16.015625 50.203125 16.015625 36.375 
Q 16.015625 22.609375 22.328125 14.59375 
Q 28.65625 6.59375 39.40625 6.59375 
Q 50.140625 6.59375 56.421875 14.59375 
Q 62.703125 22.609375 62.703125 36.375 
Q 62.703125 50.203125 56.421875 58.203125 
Q 50.140625 66.21875 39.40625 66.21875 
z
M 39.40625 74.21875 
Q 54.734375 74.21875 63.90625 63.9375 
Q 73.09375 53.65625 73.09375 36.375 
Q 73.09375 19.140625 63.90625 8.859375 
Q 54.734375 -1.421875 39.40625 -1.421875 
Q 24.03125 -1.421875 14.8125 8.828125 
Q 5.609375 19.09375 5.609375 36.375 
Q 5.609375 53.65625 14.8125 63.9375 
Q 24.03125 74.21875 39.40625 74.21875 
z
" id="DejaVuSans-79"/>
     <path d="M 9.8125 72.90625 
L 24.515625 72.90625 
L 43.109375 23.296875 
L 61.8125 72.90625 
L 76.515625 72.90625 
L 76.515625 0 
L 66.890625 0 
L 66.890625 64.015625 
L 48.09375 14.015625 
L 38.1875 14.015625 
L 19.390625 64.015625 
L 19.390625 0 
L 9.8125 0 
z
" id="DejaVuSans-77"/>
     <path d="M 9.8125 72.90625 
L 19.671875 72.90625 
L 19.671875 8.296875 
L 55.171875 8.296875 
L 55.171875 0 
L 9.8125 0 
z
" id="DejaVuSans-76"/>
    </defs>
    <g transform="translate(361.8625 65.632812)scale(0.1 -0.1)">
     <use xlink:href="#DejaVuSans-67"/>
     <use x="69.824219" xlink:href="#DejaVuSans-79"/>
     <use x="148.535156" xlink:href="#DejaVuSans-77"/>
     <use x="234.814453" xlink:href="#DejaVuSans-76"/>
     <use x="290.527344" xlink:href="#DejaVuSans-32"/>
     <use x="322.314453" xlink:href="#DejaVuSans-40"/>
     <use x="361.328125" xlink:href="#DejaVuSans-52"/>
     <use x="424.951172" xlink:href="#DejaVuSans-48"/>
     <use x="488.574219" xlink:href="#DejaVuSans-41"/>
    </g>
   </g>
   <g id="line2d_58">
    <path d="M 333.8625 76.810937 
L 353.8625 76.810937 
" style="fill:none;stroke:#e7298a;stroke-linecap:square;stroke-width:1.5;"/>
   </g>
   <g id="line2d_59"/>
   <g id="text_25">
    <!-- GDD (40) -->
    <defs>
     <path d="M 59.515625 10.40625 
L 59.515625 29.984375 
L 43.40625 29.984375 
L 43.40625 38.09375 
L 69.28125 38.09375 
L 69.28125 6.78125 
Q 63.578125 2.734375 56.6875 0.65625 
Q 49.8125 -1.421875 42 -1.421875 
Q 24.90625 -1.421875 15.25 8.5625 
Q 5.609375 18.5625 5.609375 36.375 
Q 5.609375 54.25 15.25 64.234375 
Q 24.90625 74.21875 42 74.21875 
Q 49.125 74.21875 55.546875 72.453125 
Q 61.96875 70.703125 67.390625 67.28125 
L 67.390625 56.78125 
Q 61.921875 61.421875 55.765625 63.765625 
Q 49.609375 66.109375 42.828125 66.109375 
Q 29.4375 66.109375 22.71875 58.640625 
Q 16.015625 51.171875 16.015625 36.375 
Q 16.015625 21.625 22.71875 14.15625 
Q 29.4375 6.6875 42.828125 6.6875 
Q 48.046875 6.6875 52.140625 7.59375 
Q 56.25 8.5 59.515625 10.40625 
z
" id="DejaVuSans-71"/>
    </defs>
    <g transform="translate(361.8625 80.310937)scale(0.1 -0.1)">
     <use xlink:href="#DejaVuSans-71"/>
     <use x="77.490234" xlink:href="#DejaVuSans-68"/>
     <use x="154.492188" xlink:href="#DejaVuSans-68"/>
     <use x="231.494141" xlink:href="#DejaVuSans-32"/>
     <use x="263.28125" xlink:href="#DejaVuSans-40"/>
     <use x="302.294922" xlink:href="#DejaVuSans-52"/>
     <use x="365.917969" xlink:href="#DejaVuSans-48"/>
     <use x="429.541016" xlink:href="#DejaVuSans-41"/>
    </g>
   </g>
   <g id="line2d_60">
    <path d="M 333.8625 91.489062 
L 353.8625 91.489062 
" style="fill:none;stroke:#66a61e;stroke-linecap:square;stroke-width:1.5;"/>
   </g>
   <g id="line2d_61"/>
   <g id="text_26">
    <!-- MD (38) -->
    <g transform="translate(361.8625 94.989062)scale(0.1 -0.1)">
     <use xlink:href="#DejaVuSans-77"/>
     <use x="86.279297" xlink:href="#DejaVuSans-68"/>
     <use x="163.28125" xlink:href="#DejaVuSans-32"/>
     <use x="195.068359" xlink:href="#DejaVuSans-40"/>
     <use x="234.082031" xlink:href="#DejaVuSans-51"/>
     <use x="297.705078" xlink:href="#DejaVuSans-56"/>
     <use x="361.328125" xlink:href="#DejaVuSans-41"/>
    </g>
   </g>
   <g id="line2d_62">
    <path d="M 333.8625 106.167188 
L 353.8625 106.167188 
" style="fill:none;stroke:#e6ab02;stroke-linecap:square;stroke-width:1.5;"/>
   </g>
   <g id="line2d_63"/>
   <g id="text_27">
    <!-- HPI (38) -->
    <defs>
     <path d="M 9.8125 72.90625 
L 19.671875 72.90625 
L 19.671875 43.015625 
L 55.515625 43.015625 
L 55.515625 72.90625 
L 65.375 72.90625 
L 65.375 0 
L 55.515625 0 
L 55.515625 34.71875 
L 19.671875 34.71875 
L 19.671875 0 
L 9.8125 0 
z
" id="DejaVuSans-72"/>
     <path d="M 19.671875 64.796875 
L 19.671875 37.40625 
L 32.078125 37.40625 
Q 38.96875 37.40625 42.71875 40.96875 
Q 46.484375 44.53125 46.484375 51.125 
Q 46.484375 57.671875 42.71875 61.234375 
Q 38.96875 64.796875 32.078125 64.796875 
z
M 9.8125 72.90625 
L 32.078125 72.90625 
Q 44.34375 72.90625 50.609375 67.359375 
Q 56.890625 61.8125 56.890625 51.125 
Q 56.890625 40.328125 50.609375 34.8125 
Q 44.34375 29.296875 32.078125 29.296875 
L 19.671875 29.296875 
L 19.671875 0 
L 9.8125 0 
z
" id="DejaVuSans-80"/>
     <path d="M 9.8125 72.90625 
L 19.671875 72.90625 
L 19.671875 0 
L 9.8125 0 
z
" id="DejaVuSans-73"/>
    </defs>
    <g transform="translate(361.8625 109.667188)scale(0.1 -0.1)">
     <use xlink:href="#DejaVuSans-72"/>
     <use x="75.195312" xlink:href="#DejaVuSans-80"/>
     <use x="135.498047" xlink:href="#DejaVuSans-73"/>
     <use x="164.990234" xlink:href="#DejaVuSans-32"/>
     <use x="196.777344" xlink:href="#DejaVuSans-40"/>
     <use x="235.791016" xlink:href="#DejaVuSans-51"/>
     <use x="299.414062" xlink:href="#DejaVuSans-56"/>
     <use x="363.037109" xlink:href="#DejaVuSans-41"/>
    </g>
   </g>
   <g id="line2d_64">
    <path d="M 333.8625 120.845312 
L 353.8625 120.845312 
" style="fill:none;stroke:#a6761d;stroke-linecap:square;stroke-width:1.5;"/>
   </g>
   <g id="line2d_65"/>
   <g id="text_28">
    <!-- SA (37) -->
    <defs>
     <path d="M 8.203125 72.90625 
L 55.078125 72.90625 
L 55.078125 68.703125 
L 28.609375 0 
L 18.3125 0 
L 43.21875 64.59375 
L 8.203125 64.59375 
z
" id="DejaVuSans-55"/>
    </defs>
    <g transform="translate(361.8625 124.345312)scale(0.1 -0.1)">
     <use xlink:href="#DejaVuSans-83"/>
     <use x="63.492188" xlink:href="#DejaVuSans-65"/>
     <use x="131.900391" xlink:href="#DejaVuSans-32"/>
     <use x="163.6875" xlink:href="#DejaVuSans-40"/>
     <use x="202.701172" xlink:href="#DejaVuSans-51"/>
     <use x="266.324219" xlink:href="#DejaVuSans-55"/>
     <use x="329.947266" xlink:href="#DejaVuSans-41"/>
    </g>
   </g>
   <g id="line2d_66">
    <path d="M 333.8625 135.523438 
L 353.8625 135.523438 
" style="fill:none;stroke:#666666;stroke-linecap:square;stroke-width:1.5;"/>
   </g>
   <g id="line2d_67"/>
   <g id="text_29">
    <!-- FIT (29) -->
    <defs>
     <path d="M 9.8125 72.90625 
L 51.703125 72.90625 
L 51.703125 64.59375 
L 19.671875 64.59375 
L 19.671875 43.109375 
L 48.578125 43.109375 
L 48.578125 34.8125 
L 19.671875 34.8125 
L 19.671875 0 
L 9.8125 0 
z
" id="DejaVuSans-70"/>
     <path d="M -0.296875 72.90625 
L 61.375 72.90625 
L 61.375 64.59375 
L 35.5 64.59375 
L 35.5 0 
L 25.59375 0 
L 25.59375 64.59375 
L -0.296875 64.59375 
z
" id="DejaVuSans-84"/>
    </defs>
    <g transform="translate(361.8625 139.023438)scale(0.1 -0.1)">
     <use xlink:href="#DejaVuSans-70"/>
     <use x="57.519531" xlink:href="#DejaVuSans-73"/>
     <use x="87.011719" xlink:href="#DejaVuSans-84"/>
     <use x="148.095703" xlink:href="#DejaVuSans-32"/>
     <use x="179.882812" xlink:href="#DejaVuSans-40"/>
     <use x="218.896484" xlink:href="#DejaVuSans-50"/>
     <use x="282.519531" xlink:href="#DejaVuSans-57"/>
     <use x="346.142578" xlink:href="#DejaVuSans-41"/>
    </g>
   </g>
   <g id="line2d_68">
    <path d="M 333.8625 150.201562 
L 353.8625 150.201562 
" style="fill:none;stroke:#1b9e77;stroke-dasharray:4.5,1.5;stroke-dashoffset:0;stroke-width:1.5;"/>
   </g>
   <g id="line2d_69"/>
   <g id="text_30">
    <!-- SPD (28) -->
    <g transform="translate(361.8625 153.701562)scale(0.1 -0.1)">
     <use xlink:href="#DejaVuSans-83"/>
     <use x="63.476562" xlink:href="#DejaVuSans-80"/>
     <use x="123.779297" xlink:href="#DejaVuSans-68"/>
     <use x="200.78125" xlink:href="#DejaVuSans-32"/>
     <use x="232.568359" xlink:href="#DejaVuSans-40"/>
     <use x="271.582031" xlink:href="#DejaVuSans-50"/>
     <use x="335.205078" xlink:href="#DejaVuSans-56"/>
     <use x="398.828125" xlink:href="#DejaVuSans-41"/>
    </g>
   </g>
   <g id="line2d_70">
    <path d="M 333.8625 164.879687 
L 353.8625 164.879687 
" style="fill:none;stroke:#d95f02;stroke-dasharray:4.5,1.5;stroke-dashoffset:0;stroke-width:1.5;"/>
   </g>
   <g id="line2d_71"/>
   <g id="text_31">
    <!-- TBI (27) -->
    <defs>
     <path d="M 19.671875 34.8125 
L 19.671875 8.109375 
L 35.5 8.109375 
Q 43.453125 8.109375 47.28125 11.40625 
Q 51.125 14.703125 51.125 21.484375 
Q 51.125 28.328125 47.28125 31.5625 
Q 43.453125 34.8125 35.5 34.8125 
z
M 19.671875 64.796875 
L 19.671875 42.828125 
L 34.28125 42.828125 
Q 41.5 42.828125 45.03125 45.53125 
Q 48.578125 48.25 48.578125 53.8125 
Q 48.578125 59.328125 45.03125 62.0625 
Q 41.5 64.796875 34.28125 64.796875 
z
M 9.8125 72.90625 
L 35.015625 72.90625 
Q 46.296875 72.90625 52.390625 68.21875 
Q 58.5 63.53125 58.5 54.890625 
Q 58.5 48.1875 55.375 44.234375 
Q 52.25 40.28125 46.1875 39.3125 
Q 53.46875 37.75 57.5 32.78125 
Q 61.53125 27.828125 61.53125 20.40625 
Q 61.53125 10.640625 54.890625 5.3125 
Q 48.25 0 35.984375 0 
L 9.8125 0 
z
" id="DejaVuSans-66"/>
    </defs>
    <g transform="translate(361.8625 168.379687)scale(0.1 -0.1)">
     <use xlink:href="#DejaVuSans-84"/>
     <use x="61.083984" xlink:href="#DejaVuSans-66"/>
     <use x="129.6875" xlink:href="#DejaVuSans-73"/>
     <use x="159.179688" xlink:href="#DejaVuSans-32"/>
     <use x="190.966797" xlink:href="#DejaVuSans-40"/>
     <use x="229.980469" xlink:href="#DejaVuSans-50"/>
     <use x="293.603516" xlink:href="#DejaVuSans-55"/>
     <use x="357.226562" xlink:href="#DejaVuSans-41"/>
    </g>
   </g>
   <g id="line2d_72">
    <path d="M 333.8625 179.557812 
L 353.8625 179.557812 
" style="fill:none;stroke:#7570b3;stroke-dasharray:4.5,1.5;stroke-dashoffset:0;stroke-width:1.5;"/>
   </g>
   <g id="line2d_73"/>
   <g id="text_32">
    <!-- BP (25) -->
    <g transform="translate(361.8625 183.057812)scale(0.1 -0.1)">
     <use xlink:href="#DejaVuSans-66"/>
     <use x="68.603516" xlink:href="#DejaVuSans-80"/>
     <use x="128.90625" xlink:href="#DejaVuSans-32"/>
     <use x="160.693359" xlink:href="#DejaVuSans-40"/>
     <use x="199.707031" xlink:href="#DejaVuSans-50"/>
     <use x="263.330078" xlink:href="#DejaVuSans-53"/>
     <use x="326.953125" xlink:href="#DejaVuSans-41"/>
    </g>
   </g>
   <g id="line2d_74">
    <path d="M 333.8625 194.235937 
L 353.8625 194.235937 
" style="fill:none;stroke:#e7298a;stroke-dasharray:4.5,1.5;stroke-dashoffset:0;stroke-width:1.5;"/>
   </g>
   <g id="line2d_75"/>
   <g id="text_33">
    <!-- CC (25) -->
    <g transform="translate(361.8625 197.735937)scale(0.1 -0.1)">
     <use xlink:href="#DejaVuSans-67"/>
     <use x="69.824219" xlink:href="#DejaVuSans-67"/>
     <use x="139.648438" xlink:href="#DejaVuSans-32"/>
     <use x="171.435547" xlink:href="#DejaVuSans-40"/>
     <use x="210.449219" xlink:href="#DejaVuSans-50"/>
     <use x="274.072266" xlink:href="#DejaVuSans-53"/>
     <use x="337.695312" xlink:href="#DejaVuSans-41"/>
    </g>
   </g>
   <g id="line2d_76">
    <path d="M 333.8625 208.914062 
L 353.8625 208.914062 
" style="fill:none;stroke:#66a61e;stroke-dasharray:4.5,1.5;stroke-dashoffset:0;stroke-width:1.5;"/>
   </g>
   <g id="line2d_77"/>
   <g id="text_34">
    <!-- RJPH (23) -->
    <defs>
     <path d="M 9.8125 72.90625 
L 19.671875 72.90625 
L 19.671875 5.078125 
Q 19.671875 -8.109375 14.671875 -14.0625 
Q 9.671875 -20.015625 -1.421875 -20.015625 
L -5.171875 -20.015625 
L -5.171875 -11.71875 
L -2.09375 -11.71875 
Q 4.4375 -11.71875 7.125 -8.046875 
Q 9.8125 -4.390625 9.8125 5.078125 
z
" id="DejaVuSans-74"/>
    </defs>
    <g transform="translate(361.8625 212.414062)scale(0.1 -0.1)">
     <use xlink:href="#DejaVuSans-82"/>
     <use x="69.482422" xlink:href="#DejaVuSans-74"/>
     <use x="98.974609" xlink:href="#DejaVuSans-80"/>
     <use x="159.277344" xlink:href="#DejaVuSans-72"/>
     <use x="234.472656" xlink:href="#DejaVuSans-32"/>
     <use x="266.259766" xlink:href="#DejaVuSans-40"/>
     <use x="305.273438" xlink:href="#DejaVuSans-50"/>
     <use x="368.896484" xlink:href="#DejaVuSans-51"/>
     <use x="432.519531" xlink:href="#DejaVuSans-41"/>
    </g>
   </g>
   <g id="line2d_78">
    <path d="M 333.8625 223.592187 
L 353.8625 223.592187 
" style="fill:none;stroke:#e6ab02;stroke-dasharray:4.5,1.5;stroke-dashoffset:0;stroke-width:1.5;"/>
   </g>
   <g id="line2d_79"/>
   <g id="text_35">
    <!-- CB (22) -->
    <g transform="translate(361.8625 227.092187)scale(0.1 -0.1)">
     <use xlink:href="#DejaVuSans-67"/>
     <use x="69.824219" xlink:href="#DejaVuSans-66"/>
     <use x="138.427734" xlink:href="#DejaVuSans-32"/>
     <use x="170.214844" xlink:href="#DejaVuSans-40"/>
     <use x="209.228516" xlink:href="#DejaVuSans-50"/>
     <use x="272.851562" xlink:href="#DejaVuSans-50"/>
     <use x="336.474609" xlink:href="#DejaVuSans-41"/>
    </g>
   </g>
   <g id="line2d_80">
    <path d="M 333.8625 238.270312 
L 353.8625 238.270312 
" style="fill:none;stroke:#a6761d;stroke-dasharray:4.5,1.5;stroke-dashoffset:0;stroke-width:1.5;"/>
   </g>
   <g id="line2d_81"/>
   <g id="text_36">
    <!-- AHR-H (20) -->
    <g transform="translate(361.8625 241.770312)scale(0.1 -0.1)">
     <use xlink:href="#DejaVuSans-65"/>
     <use x="68.408203" xlink:href="#DejaVuSans-72"/>
     <use x="143.603516" xlink:href="#DejaVuSans-82"/>
     <use x="213.023438" xlink:href="#DejaVuSans-45"/>
     <use x="249.107422" xlink:href="#DejaVuSans-72"/>
     <use x="324.302734" xlink:href="#DejaVuSans-32"/>
     <use x="356.089844" xlink:href="#DejaVuSans-40"/>
     <use x="395.103516" xlink:href="#DejaVuSans-50"/>
     <use x="458.726562" xlink:href="#DejaVuSans-48"/>
     <use x="522.349609" xlink:href="#DejaVuSans-41"/>
    </g>
   </g>
   <g id="line2d_82">
    <path d="M 333.8625 252.948437 
L 353.8625 252.948437 
" style="fill:none;stroke:#666666;stroke-dasharray:4.5,1.5;stroke-dashoffset:0;stroke-width:1.5;"/>
   </g>
   <g id="line2d_83"/>
   <g id="text_37">
    <!-- AHR-A (16) -->
    <g transform="translate(361.8625 256.448437)scale(0.1 -0.1)">
     <use xlink:href="#DejaVuSans-65"/>
     <use x="68.408203" xlink:href="#DejaVuSans-72"/>
     <use x="143.603516" xlink:href="#DejaVuSans-82"/>
     <use x="213.023438" xlink:href="#DejaVuSans-45"/>
     <use x="249.076172" xlink:href="#DejaVuSans-65"/>
     <use x="317.484375" xlink:href="#DejaVuSans-32"/>
     <use x="349.271484" xlink:href="#DejaVuSans-40"/>
     <use x="388.285156" xlink:href="#DejaVuSans-49"/>
     <use x="451.908203" xlink:href="#DejaVuSans-54"/>
     <use x="515.53125" xlink:href="#DejaVuSans-41"/>
    </g>
   </g>
  </g>
 </g>
 <defs>
  <clipPath id="p54b6dc73c8">
   <rect height="207.330771" width="271.81" x="43.55" y="12.9"/>
  </clipPath>
 </defs>
</svg>
