<?xml version="1.0" encoding="utf-8" standalone="no"?>
<!DOCTYPE svg PUBLIC "-//W3C//DTD SVG 1.1//EN"
  "http://www.w3.org/Graphics/SVG/1.1/DTD/svg11.dtd">
<!-- Created with matplotlib (https://matplotlib.org/) -->
<svg height="288pt" version="1.1" viewBox="0 0 432 288" width="432pt" xmlns="http://www.w3.org/2000/svg" xmlns:xlink="http://www.w3.org/1999/xlink">
 <defs>
  <style type="text/css">
*{stroke-linecap:butt;stroke-linejoin:round;}
  </style>
 </defs>
 <g id="figure_1">
  <g id="patch_1">
   <path d="M 0 288 
L 432 288 
L 432 0 
L 0 0 
z
" style="fill:#ffffff;"/>
  </g>
  <g id="axes_1">
   <g id="patch_2">
    <path d="M 43.55 220.230771 
L 315.36 220.230771 
L 315.36 12.9 
L 43.55 12.9 
z
" style="fill:#ffffff;"/>
   </g>
   <g id="matplotlib.axis_1">
    <g id="xtick_1">
     <g id="line2d_1">
      <defs>
       <path d="M 0 0 
L 0 3.5 
" id="m618d704469" style="stroke:#000000;stroke-width:0.8;"/>
      </defs>
      <g>
       <use style="stroke:#000000;stroke-width:0.8;" x="49.864203" xlink:href="#m618d704469" y="220.230771"/>
      </g>
     </g>
     <g id="text_1">
      <!-- 2020-11-29 -->
      <defs>
       <path d="M 19.1875 8.296875 
L 53.609375 8.296875 
L 53.609375 0 
L 7.328125 0 
L 7.328125 8.296875 
Q 12.9375 14.109375 22.625 23.890625 
Q 32.328125 33.6875 34.8125 36.53125 
Q 39.546875 41.84375 41.421875 45.53125 
Q 43.3125 49.21875 43.3125 52.78125 
Q 43.3125 58.59375 39.234375 62.25 
Q 35.15625 65.921875 28.609375 65.921875 
Q 23.96875 65.921875 18.8125 64.3125 
Q 13.671875 62.703125 7.8125 59.421875 
L 7.8125 69.390625 
Q 13.765625 71.78125 18.9375 73 
Q 24.125 74.21875 28.421875 74.21875 
Q 39.75 74.21875 46.484375 68.546875 
Q 53.21875 62.890625 53.21875 53.421875 
Q 53.21875 48.921875 51.53125 44.890625 
Q 49.859375 40.875 45.40625 35.40625 
Q 44.1875 33.984375 37.640625 27.21875 
Q 31.109375 20.453125 19.1875 8.296875 
z
" id="DejaVuSans-50"/>
       <path d="M 31.78125 66.40625 
Q 24.171875 66.40625 20.328125 58.90625 
Q 16.5 51.421875 16.5 36.375 
Q 16.5 21.390625 20.328125 13.890625 
Q 24.171875 6.390625 31.78125 6.390625 
Q 39.453125 6.390625 43.28125 13.890625 
Q 47.125 21.390625 47.125 36.375 
Q 47.125 51.421875 43.28125 58.90625 
Q 39.453125 66.40625 31.78125 66.40625 
z
M 31.78125 74.21875 
Q 44.046875 74.21875 50.515625 64.515625 
Q 56.984375 54.828125 56.984375 36.375 
Q 56.984375 17.96875 50.515625 8.265625 
Q 44.046875 -1.421875 31.78125 -1.421875 
Q 19.53125 -1.421875 13.0625 8.265625 
Q 6.59375 17.96875 6.59375 36.375 
Q 6.59375 54.828125 13.0625 64.515625 
Q 19.53125 74.21875 31.78125 74.21875 
z
" id="DejaVuSans-48"/>
       <path d="M 4.890625 31.390625 
L 31.203125 31.390625 
L 31.203125 23.390625 
L 4.890625 23.390625 
z
" id="DejaVuSans-45"/>
       <path d="M 12.40625 8.296875 
L 28.515625 8.296875 
L 28.515625 63.921875 
L 10.984375 60.40625 
L 10.984375 69.390625 
L 28.421875 72.90625 
L 38.28125 72.90625 
L 38.28125 8.296875 
L 54.390625 8.296875 
L 54.390625 0 
L 12.40625 0 
z
" id="DejaVuSans-49"/>
       <path d="M 10.984375 1.515625 
L 10.984375 10.5 
Q 14.703125 8.734375 18.5 7.8125 
Q 22.3125 6.890625 25.984375 6.890625 
Q 35.75 6.890625 40.890625 13.453125 
Q 46.046875 20.015625 46.78125 33.40625 
Q 43.953125 29.203125 39.59375 26.953125 
Q 35.25 24.703125 29.984375 24.703125 
Q 19.046875 24.703125 12.671875 31.3125 
Q 6.296875 37.9375 6.296875 49.421875 
Q 6.296875 60.640625 12.9375 67.421875 
Q 19.578125 74.21875 30.609375 74.21875 
Q 43.265625 74.21875 49.921875 64.515625 
Q 56.59375 54.828125 56.59375 36.375 
Q 56.59375 19.140625 48.40625 8.859375 
Q 40.234375 -1.421875 26.421875 -1.421875 
Q 22.703125 -1.421875 18.890625 -0.6875 
Q 15.09375 0.046875 10.984375 1.515625 
z
M 30.609375 32.421875 
Q 37.25 32.421875 41.125 36.953125 
Q 45.015625 41.5 45.015625 49.421875 
Q 45.015625 57.28125 41.125 61.84375 
Q 37.25 66.40625 30.609375 66.40625 
Q 23.96875 66.40625 20.09375 61.84375 
Q 16.21875 57.28125 16.21875 49.421875 
Q 16.21875 41.5 20.09375 36.953125 
Q 23.96875 32.421875 30.609375 32.421875 
z
" id="DejaVuSans-57"/>
      </defs>
      <g transform="translate(26.079087 262.869024)rotate(-30)scale(0.1 -0.1)">
       <use xlink:href="#DejaVuSans-50"/>
       <use x="63.623047" xlink:href="#DejaVuSans-48"/>
       <use x="127.246094" xlink:href="#DejaVuSans-50"/>
       <use x="190.869141" xlink:href="#DejaVuSans-48"/>
       <use x="254.492188" xlink:href="#DejaVuSans-45"/>
       <use x="290.576172" xlink:href="#DejaVuSans-49"/>
       <use x="354.199219" xlink:href="#DejaVuSans-49"/>
       <use x="417.822266" xlink:href="#DejaVuSans-45"/>
       <use x="453.90625" xlink:href="#DejaVuSans-50"/>
       <use x="517.529297" xlink:href="#DejaVuSans-57"/>
      </g>
     </g>
    </g>
    <g id="xtick_2">
     <g id="line2d_2">
      <g>
       <use style="stroke:#000000;stroke-width:0.8;" x="58.206627" xlink:href="#m618d704469" y="220.230771"/>
      </g>
     </g>
     <g id="text_2">
      <!-- 2020-12-01 -->
      <g transform="translate(34.421511 262.869024)rotate(-30)scale(0.1 -0.1)">
       <use xlink:href="#DejaVuSans-50"/>
       <use x="63.623047" xlink:href="#DejaVuSans-48"/>
       <use x="127.246094" xlink:href="#DejaVuSans-50"/>
       <use x="190.869141" xlink:href="#DejaVuSans-48"/>
       <use x="254.492188" xlink:href="#DejaVuSans-45"/>
       <use x="290.576172" xlink:href="#DejaVuSans-49"/>
       <use x="354.199219" xlink:href="#DejaVuSans-50"/>
       <use x="417.822266" xlink:href="#DejaVuSans-45"/>
       <use x="453.90625" xlink:href="#DejaVuSans-48"/>
       <use x="517.529297" xlink:href="#DejaVuSans-49"/>
      </g>
     </g>
    </g>
    <g id="xtick_3">
     <g id="line2d_3">
      <g>
       <use style="stroke:#000000;stroke-width:0.8;" x="87.40511" xlink:href="#m618d704469" y="220.230771"/>
      </g>
     </g>
     <g id="text_3">
      <!-- 2020-12-08 -->
      <defs>
       <path d="M 31.78125 34.625 
Q 24.75 34.625 20.71875 30.859375 
Q 16.703125 27.09375 16.703125 20.515625 
Q 16.703125 13.921875 20.71875 10.15625 
Q 24.75 6.390625 31.78125 6.390625 
Q 38.8125 6.390625 42.859375 10.171875 
Q 46.921875 13.96875 46.921875 20.515625 
Q 46.921875 27.09375 42.890625 30.859375 
Q 38.875 34.625 31.78125 34.625 
z
M 21.921875 38.8125 
Q 15.578125 40.375 12.03125 44.71875 
Q 8.5 49.078125 8.5 55.328125 
Q 8.5 64.0625 14.71875 69.140625 
Q 20.953125 74.21875 31.78125 74.21875 
Q 42.671875 74.21875 48.875 69.140625 
Q 55.078125 64.0625 55.078125 55.328125 
Q 55.078125 49.078125 51.53125 44.71875 
Q 48 40.375 41.703125 38.8125 
Q 48.828125 37.15625 52.796875 32.3125 
Q 56.78125 27.484375 56.78125 20.515625 
Q 56.78125 9.90625 50.3125 4.234375 
Q 43.84375 -1.421875 31.78125 -1.421875 
Q 19.734375 -1.421875 13.25 4.234375 
Q 6.78125 9.90625 6.78125 20.515625 
Q 6.78125 27.484375 10.78125 32.3125 
Q 14.796875 37.15625 21.921875 38.8125 
z
M 18.3125 54.390625 
Q 18.3125 48.734375 21.84375 45.5625 
Q 25.390625 42.390625 31.78125 42.390625 
Q 38.140625 42.390625 41.71875 45.5625 
Q 45.3125 48.734375 45.3125 54.390625 
Q 45.3125 60.0625 41.71875 63.234375 
Q 38.140625 66.40625 31.78125 66.40625 
Q 25.390625 66.40625 21.84375 63.234375 
Q 18.3125 60.0625 18.3125 54.390625 
z
" id="DejaVuSans-56"/>
      </defs>
      <g transform="translate(63.619994 262.869024)rotate(-30)scale(0.1 -0.1)">
       <use xlink:href="#DejaVuSans-50"/>
       <use x="63.623047" xlink:href="#DejaVuSans-48"/>
       <use x="127.246094" xlink:href="#DejaVuSans-50"/>
       <use x="190.869141" xlink:href="#DejaVuSans-48"/>
       <use x="254.492188" xlink:href="#DejaVuSans-45"/>
       <use x="290.576172" xlink:href="#DejaVuSans-49"/>
       <use x="354.199219" xlink:href="#DejaVuSans-50"/>
       <use x="417.822266" xlink:href="#DejaVuSans-45"/>
       <use x="453.90625" xlink:href="#DejaVuSans-48"/>
       <use x="517.529297" xlink:href="#DejaVuSans-56"/>
      </g>
     </g>
    </g>
    <g id="xtick_4">
     <g id="line2d_4">
      <g>
       <use style="stroke:#000000;stroke-width:0.8;" x="116.603593" xlink:href="#m618d704469" y="220.230771"/>
      </g>
     </g>
     <g id="text_4">
      <!-- 2020-12-15 -->
      <defs>
       <path d="M 10.796875 72.90625 
L 49.515625 72.90625 
L 49.515625 64.59375 
L 19.828125 64.59375 
L 19.828125 46.734375 
Q 21.96875 47.46875 24.109375 47.828125 
Q 26.265625 48.1875 28.421875 48.1875 
Q 40.625 48.1875 47.75 41.5 
Q 54.890625 34.8125 54.890625 23.390625 
Q 54.890625 11.625 47.5625 5.09375 
Q 40.234375 -1.421875 26.90625 -1.421875 
Q 22.3125 -1.421875 17.546875 -0.640625 
Q 12.796875 0.140625 7.71875 1.703125 
L 7.71875 11.625 
Q 12.109375 9.234375 16.796875 8.0625 
Q 21.484375 6.890625 26.703125 6.890625 
Q 35.15625 6.890625 40.078125 11.328125 
Q 45.015625 15.765625 45.015625 23.390625 
Q 45.015625 31 40.078125 35.4375 
Q 35.15625 39.890625 26.703125 39.890625 
Q 22.75 39.890625 18.8125 39.015625 
Q 14.890625 38.140625 10.796875 36.28125 
z
" id="DejaVuSans-53"/>
      </defs>
      <g transform="translate(92.818477 262.869024)rotate(-30)scale(0.1 -0.1)">
       <use xlink:href="#DejaVuSans-50"/>
       <use x="63.623047" xlink:href="#DejaVuSans-48"/>
       <use x="127.246094" xlink:href="#DejaVuSans-50"/>
       <use x="190.869141" xlink:href="#DejaVuSans-48"/>
       <use x="254.492188" xlink:href="#DejaVuSans-45"/>
       <use x="290.576172" xlink:href="#DejaVuSans-49"/>
       <use x="354.199219" xlink:href="#DejaVuSans-50"/>
       <use x="417.822266" xlink:href="#DejaVuSans-45"/>
       <use x="453.90625" xlink:href="#DejaVuSans-49"/>
       <use x="517.529297" xlink:href="#DejaVuSans-53"/>
      </g>
     </g>
    </g>
    <g id="xtick_5">
     <g id="line2d_5">
      <g>
       <use style="stroke:#000000;stroke-width:0.8;" x="145.802077" xlink:href="#m618d704469" y="220.230771"/>
      </g>
     </g>
     <g id="text_5">
      <!-- 2020-12-22 -->
      <g transform="translate(122.01696 262.869024)rotate(-30)scale(0.1 -0.1)">
       <use xlink:href="#DejaVuSans-50"/>
       <use x="63.623047" xlink:href="#DejaVuSans-48"/>
       <use x="127.246094" xlink:href="#DejaVuSans-50"/>
       <use x="190.869141" xlink:href="#DejaVuSans-48"/>
       <use x="254.492188" xlink:href="#DejaVuSans-45"/>
       <use x="290.576172" xlink:href="#DejaVuSans-49"/>
       <use x="354.199219" xlink:href="#DejaVuSans-50"/>
       <use x="417.822266" xlink:href="#DejaVuSans-45"/>
       <use x="453.90625" xlink:href="#DejaVuSans-50"/>
       <use x="517.529297" xlink:href="#DejaVuSans-50"/>
      </g>
     </g>
    </g>
    <g id="xtick_6">
     <g id="line2d_6">
      <g>
       <use style="stroke:#000000;stroke-width:0.8;" x="175.00056" xlink:href="#m618d704469" y="220.230771"/>
      </g>
     </g>
     <g id="text_6">
      <!-- 2020-12-29 -->
      <g transform="translate(151.215444 262.869024)rotate(-30)scale(0.1 -0.1)">
       <use xlink:href="#DejaVuSans-50"/>
       <use x="63.623047" xlink:href="#DejaVuSans-48"/>
       <use x="127.246094" xlink:href="#DejaVuSans-50"/>
       <use x="190.869141" xlink:href="#DejaVuSans-48"/>
       <use x="254.492188" xlink:href="#DejaVuSans-45"/>
       <use x="290.576172" xlink:href="#DejaVuSans-49"/>
       <use x="354.199219" xlink:href="#DejaVuSans-50"/>
       <use x="417.822266" xlink:href="#DejaVuSans-45"/>
       <use x="453.90625" xlink:href="#DejaVuSans-50"/>
       <use x="517.529297" xlink:href="#DejaVuSans-57"/>
      </g>
     </g>
    </g>
    <g id="xtick_7">
     <g id="line2d_7">
      <g>
       <use style="stroke:#000000;stroke-width:0.8;" x="187.514196" xlink:href="#m618d704469" y="220.230771"/>
      </g>
     </g>
     <g id="text_7">
      <!-- 2021-01-01 -->
      <g transform="translate(163.729079 262.869024)rotate(-30)scale(0.1 -0.1)">
       <use xlink:href="#DejaVuSans-50"/>
       <use x="63.623047" xlink:href="#DejaVuSans-48"/>
       <use x="127.246094" xlink:href="#DejaVuSans-50"/>
       <use x="190.869141" xlink:href="#DejaVuSans-49"/>
       <use x="254.492188" xlink:href="#DejaVuSans-45"/>
       <use x="290.576172" xlink:href="#DejaVuSans-48"/>
       <use x="354.199219" xlink:href="#DejaVuSans-49"/>
       <use x="417.822266" xlink:href="#DejaVuSans-45"/>
       <use x="453.90625" xlink:href="#DejaVuSans-48"/>
       <use x="517.529297" xlink:href="#DejaVuSans-49"/>
      </g>
     </g>
    </g>
    <g id="xtick_8">
     <g id="line2d_8">
      <g>
       <use style="stroke:#000000;stroke-width:0.8;" x="216.712679" xlink:href="#m618d704469" y="220.230771"/>
      </g>
     </g>
     <g id="text_8">
      <!-- 2021-01-08 -->
      <g transform="translate(192.927563 262.869024)rotate(-30)scale(0.1 -0.1)">
       <use xlink:href="#DejaVuSans-50"/>
       <use x="63.623047" xlink:href="#DejaVuSans-48"/>
       <use x="127.246094" xlink:href="#DejaVuSans-50"/>
       <use x="190.869141" xlink:href="#DejaVuSans-49"/>
       <use x="254.492188" xlink:href="#DejaVuSans-45"/>
       <use x="290.576172" xlink:href="#DejaVuSans-48"/>
       <use x="354.199219" xlink:href="#DejaVuSans-49"/>
       <use x="417.822266" xlink:href="#DejaVuSans-45"/>
       <use x="453.90625" xlink:href="#DejaVuSans-48"/>
       <use x="517.529297" xlink:href="#DejaVuSans-56"/>
      </g>
     </g>
    </g>
    <g id="xtick_9">
     <g id="line2d_9">
      <g>
       <use style="stroke:#000000;stroke-width:0.8;" x="245.911162" xlink:href="#m618d704469" y="220.230771"/>
      </g>
     </g>
     <g id="text_9">
      <!-- 2021-01-15 -->
      <g transform="translate(222.126046 262.869024)rotate(-30)scale(0.1 -0.1)">
       <use xlink:href="#DejaVuSans-50"/>
       <use x="63.623047" xlink:href="#DejaVuSans-48"/>
       <use x="127.246094" xlink:href="#DejaVuSans-50"/>
       <use x="190.869141" xlink:href="#DejaVuSans-49"/>
       <use x="254.492188" xlink:href="#DejaVuSans-45"/>
       <use x="290.576172" xlink:href="#DejaVuSans-48"/>
       <use x="354.199219" xlink:href="#DejaVuSans-49"/>
       <use x="417.822266" xlink:href="#DejaVuSans-45"/>
       <use x="453.90625" xlink:href="#DejaVuSans-49"/>
       <use x="517.529297" xlink:href="#DejaVuSans-53"/>
      </g>
     </g>
    </g>
    <g id="xtick_10">
     <g id="line2d_10">
      <g>
       <use style="stroke:#000000;stroke-width:0.8;" x="275.109645" xlink:href="#m618d704469" y="220.230771"/>
      </g>
     </g>
     <g id="text_10">
      <!-- 2021-01-22 -->
      <g transform="translate(251.324529 262.869024)rotate(-30)scale(0.1 -0.1)">
       <use xlink:href="#DejaVuSans-50"/>
       <use x="63.623047" xlink:href="#DejaVuSans-48"/>
       <use x="127.246094" xlink:href="#DejaVuSans-50"/>
       <use x="190.869141" xlink:href="#DejaVuSans-49"/>
       <use x="254.492188" xlink:href="#DejaVuSans-45"/>
       <use x="290.576172" xlink:href="#DejaVuSans-48"/>
       <use x="354.199219" xlink:href="#DejaVuSans-49"/>
       <use x="417.822266" xlink:href="#DejaVuSans-45"/>
       <use x="453.90625" xlink:href="#DejaVuSans-50"/>
       <use x="517.529297" xlink:href="#DejaVuSans-50"/>
      </g>
     </g>
    </g>
    <g id="xtick_11">
     <g id="line2d_11">
      <g>
       <use style="stroke:#000000;stroke-width:0.8;" x="304.308129" xlink:href="#m618d704469" y="220.230771"/>
      </g>
     </g>
     <g id="text_11">
      <!-- 2021-01-29 -->
      <g transform="translate(280.523012 262.869024)rotate(-30)scale(0.1 -0.1)">
       <use xlink:href="#DejaVuSans-50"/>
       <use x="63.623047" xlink:href="#DejaVuSans-48"/>
       <use x="127.246094" xlink:href="#DejaVuSans-50"/>
       <use x="190.869141" xlink:href="#DejaVuSans-49"/>
       <use x="254.492188" xlink:href="#DejaVuSans-45"/>
       <use x="290.576172" xlink:href="#DejaVuSans-48"/>
       <use x="354.199219" xlink:href="#DejaVuSans-49"/>
       <use x="417.822266" xlink:href="#DejaVuSans-45"/>
       <use x="453.90625" xlink:href="#DejaVuSans-50"/>
       <use x="517.529297" xlink:href="#DejaVuSans-57"/>
      </g>
     </g>
    </g>
    <g id="text_12">
     <!-- Date -->
     <defs>
      <path d="M 19.671875 64.796875 
L 19.671875 8.109375 
L 31.59375 8.109375 
Q 46.6875 8.109375 53.6875 14.9375 
Q 60.6875 21.78125 60.6875 36.53125 
Q 60.6875 51.171875 53.6875 57.984375 
Q 46.6875 64.796875 31.59375 64.796875 
z
M 9.8125 72.90625 
L 30.078125 72.90625 
Q 51.265625 72.90625 61.171875 64.09375 
Q 71.09375 55.28125 71.09375 36.53125 
Q 71.09375 17.671875 61.125 8.828125 
Q 51.171875 0 30.078125 0 
L 9.8125 0 
z
" id="DejaVuSans-68"/>
      <path d="M 34.28125 27.484375 
Q 23.390625 27.484375 19.1875 25 
Q 14.984375 22.515625 14.984375 16.5 
Q 14.984375 11.71875 18.140625 8.90625 
Q 21.296875 6.109375 26.703125 6.109375 
Q 34.1875 6.109375 38.703125 11.40625 
Q 43.21875 16.703125 43.21875 25.484375 
L 43.21875 27.484375 
z
M 52.203125 31.203125 
L 52.203125 0 
L 43.21875 0 
L 43.21875 8.296875 
Q 40.140625 3.328125 35.546875 0.953125 
Q 30.953125 -1.421875 24.3125 -1.421875 
Q 15.921875 -1.421875 10.953125 3.296875 
Q 6 8.015625 6 15.921875 
Q 6 25.140625 12.171875 29.828125 
Q 18.359375 34.515625 30.609375 34.515625 
L 43.21875 34.515625 
L 43.21875 35.40625 
Q 43.21875 41.609375 39.140625 45 
Q 35.0625 48.390625 27.6875 48.390625 
Q 23 48.390625 18.546875 47.265625 
Q 14.109375 46.140625 10.015625 43.890625 
L 10.015625 52.203125 
Q 14.9375 54.109375 19.578125 55.046875 
Q 24.21875 56 28.609375 56 
Q 40.484375 56 46.34375 49.84375 
Q 52.203125 43.703125 52.203125 31.203125 
z
" id="DejaVuSans-97"/>
      <path d="M 18.3125 70.21875 
L 18.3125 54.6875 
L 36.8125 54.6875 
L 36.8125 47.703125 
L 18.3125 47.703125 
L 18.3125 18.015625 
Q 18.3125 11.328125 20.140625 9.421875 
Q 21.96875 7.515625 27.59375 7.515625 
L 36.8125 7.515625 
L 36.8125 0 
L 27.59375 0 
Q 17.1875 0 13.234375 3.875 
Q 9.28125 7.765625 9.28125 18.015625 
L 9.28125 47.703125 
L 2.6875 47.703125 
L 2.6875 54.6875 
L 9.28125 54.6875 
L 9.28125 70.21875 
z
" id="DejaVuSans-116"/>
      <path d="M 56.203125 29.59375 
L 56.203125 25.203125 
L 14.890625 25.203125 
Q 15.484375 15.921875 20.484375 11.0625 
Q 25.484375 6.203125 34.421875 6.203125 
Q 39.59375 6.203125 44.453125 7.46875 
Q 49.3125 8.734375 54.109375 11.28125 
L 54.109375 2.78125 
Q 49.265625 0.734375 44.1875 -0.34375 
Q 39.109375 -1.421875 33.890625 -1.421875 
Q 20.796875 -1.421875 13.15625 6.1875 
Q 5.515625 13.8125 5.515625 26.8125 
Q 5.515625 40.234375 12.765625 48.109375 
Q 20.015625 56 32.328125 56 
Q 43.359375 56 49.78125 48.890625 
Q 56.203125 41.796875 56.203125 29.59375 
z
M 47.21875 32.234375 
Q 47.125 39.59375 43.09375 43.984375 
Q 39.0625 48.390625 32.421875 48.390625 
Q 24.90625 48.390625 20.390625 44.140625 
Q 15.875 39.890625 15.1875 32.171875 
z
" id="DejaVuSans-101"/>
     </defs>
     <g transform="translate(167.504219 276.268523)scale(0.1 -0.1)">
      <use xlink:href="#DejaVuSans-68"/>
      <use x="77.001953" xlink:href="#DejaVuSans-97"/>
      <use x="138.28125" xlink:href="#DejaVuSans-116"/>
      <use x="177.490234" xlink:href="#DejaVuSans-101"/>
     </g>
    </g>
   </g>
   <g id="matplotlib.axis_2">
    <g id="ytick_1">
     <g id="line2d_12">
      <defs>
       <path d="M 0 0 
L -3.5 0 
" id="m372e59f20e" style="stroke:#000000;stroke-width:0.8;"/>
      </defs>
      <g>
       <use style="stroke:#000000;stroke-width:0.8;" x="43.55" xlink:href="#m372e59f20e" y="210.806645"/>
      </g>
     </g>
     <g id="text_13">
      <!-- 0 -->
      <g transform="translate(30.1875 214.605864)scale(0.1 -0.1)">
       <use xlink:href="#DejaVuSans-48"/>
      </g>
     </g>
    </g>
    <g id="ytick_2">
     <g id="line2d_13">
      <g>
       <use style="stroke:#000000;stroke-width:0.8;" x="43.55" xlink:href="#m372e59f20e" y="187.24633"/>
      </g>
     </g>
     <g id="text_14">
      <!-- 5 -->
      <g transform="translate(30.1875 191.045549)scale(0.1 -0.1)">
       <use xlink:href="#DejaVuSans-53"/>
      </g>
     </g>
    </g>
    <g id="ytick_3">
     <g id="line2d_14">
      <g>
       <use style="stroke:#000000;stroke-width:0.8;" x="43.55" xlink:href="#m372e59f20e" y="163.686016"/>
      </g>
     </g>
     <g id="text_15">
      <!-- 10 -->
      <g transform="translate(23.825 167.485234)scale(0.1 -0.1)">
       <use xlink:href="#DejaVuSans-49"/>
       <use x="63.623047" xlink:href="#DejaVuSans-48"/>
      </g>
     </g>
    </g>
    <g id="ytick_4">
     <g id="line2d_15">
      <g>
       <use style="stroke:#000000;stroke-width:0.8;" x="43.55" xlink:href="#m372e59f20e" y="140.125701"/>
      </g>
     </g>
     <g id="text_16">
      <!-- 15 -->
      <g transform="translate(23.825 143.924919)scale(0.1 -0.1)">
       <use xlink:href="#DejaVuSans-49"/>
       <use x="63.623047" xlink:href="#DejaVuSans-53"/>
      </g>
     </g>
    </g>
    <g id="ytick_5">
     <g id="line2d_16">
      <g>
       <use style="stroke:#000000;stroke-width:0.8;" x="43.55" xlink:href="#m372e59f20e" y="116.565386"/>
      </g>
     </g>
     <g id="text_17">
      <!-- 20 -->
      <g transform="translate(23.825 120.364604)scale(0.1 -0.1)">
       <use xlink:href="#DejaVuSans-50"/>
       <use x="63.623047" xlink:href="#DejaVuSans-48"/>
      </g>
     </g>
    </g>
    <g id="ytick_6">
     <g id="line2d_17">
      <g>
       <use style="stroke:#000000;stroke-width:0.8;" x="43.55" xlink:href="#m372e59f20e" y="93.005071"/>
      </g>
     </g>
     <g id="text_18">
      <!-- 25 -->
      <g transform="translate(23.825 96.80429)scale(0.1 -0.1)">
       <use xlink:href="#DejaVuSans-50"/>
       <use x="63.623047" xlink:href="#DejaVuSans-53"/>
      </g>
     </g>
    </g>
    <g id="ytick_7">
     <g id="line2d_18">
      <g>
       <use style="stroke:#000000;stroke-width:0.8;" x="43.55" xlink:href="#m372e59f20e" y="69.444756"/>
      </g>
     </g>
     <g id="text_19">
      <!-- 30 -->
      <defs>
       <path d="M 40.578125 39.3125 
Q 47.65625 37.796875 51.625 33 
Q 55.609375 28.21875 55.609375 21.1875 
Q 55.609375 10.40625 48.1875 4.484375 
Q 40.765625 -1.421875 27.09375 -1.421875 
Q 22.515625 -1.421875 17.65625 -0.515625 
Q 12.796875 0.390625 7.625 2.203125 
L 7.625 11.71875 
Q 11.71875 9.328125 16.59375 8.109375 
Q 21.484375 6.890625 26.8125 6.890625 
Q 36.078125 6.890625 40.9375 10.546875 
Q 45.796875 14.203125 45.796875 21.1875 
Q 45.796875 27.640625 41.28125 31.265625 
Q 36.765625 34.90625 28.71875 34.90625 
L 20.21875 34.90625 
L 20.21875 43.015625 
L 29.109375 43.015625 
Q 36.375 43.015625 40.234375 45.921875 
Q 44.09375 48.828125 44.09375 54.296875 
Q 44.09375 59.90625 40.109375 62.90625 
Q 36.140625 65.921875 28.71875 65.921875 
Q 24.65625 65.921875 20.015625 65.03125 
Q 15.375 64.15625 9.8125 62.3125 
L 9.8125 71.09375 
Q 15.4375 72.65625 20.34375 73.4375 
Q 25.25 74.21875 29.59375 74.21875 
Q 40.828125 74.21875 47.359375 69.109375 
Q 53.90625 64.015625 53.90625 55.328125 
Q 53.90625 49.265625 50.4375 45.09375 
Q 46.96875 40.921875 40.578125 39.3125 
z
" id="DejaVuSans-51"/>
      </defs>
      <g transform="translate(23.825 73.243975)scale(0.1 -0.1)">
       <use xlink:href="#DejaVuSans-51"/>
       <use x="63.623047" xlink:href="#DejaVuSans-48"/>
      </g>
     </g>
    </g>
    <g id="ytick_8">
     <g id="line2d_19">
      <g>
       <use style="stroke:#000000;stroke-width:0.8;" x="43.55" xlink:href="#m372e59f20e" y="45.884441"/>
      </g>
     </g>
     <g id="text_20">
      <!-- 35 -->
      <g transform="translate(23.825 49.68366)scale(0.1 -0.1)">
       <use xlink:href="#DejaVuSans-51"/>
       <use x="63.623047" xlink:href="#DejaVuSans-53"/>
      </g>
     </g>
    </g>
    <g id="ytick_9">
     <g id="line2d_20">
      <g>
       <use style="stroke:#000000;stroke-width:0.8;" x="43.55" xlink:href="#m372e59f20e" y="22.324126"/>
      </g>
     </g>
     <g id="text_21">
      <!-- 40 -->
      <defs>
       <path d="M 37.796875 64.3125 
L 12.890625 25.390625 
L 37.796875 25.390625 
z
M 35.203125 72.90625 
L 47.609375 72.90625 
L 47.609375 25.390625 
L 58.015625 25.390625 
L 58.015625 17.1875 
L 47.609375 17.1875 
L 47.609375 0 
L 37.796875 0 
L 37.796875 17.1875 
L 4.890625 17.1875 
L 4.890625 26.703125 
z
" id="DejaVuSans-52"/>
      </defs>
      <g transform="translate(23.825 26.123345)scale(0.1 -0.1)">
       <use xlink:href="#DejaVuSans-52"/>
       <use x="63.623047" xlink:href="#DejaVuSans-48"/>
      </g>
     </g>
    </g>
    <g id="text_22">
     <!-- Students Registered -->
     <defs>
      <path d="M 53.515625 70.515625 
L 53.515625 60.890625 
Q 47.90625 63.578125 42.921875 64.890625 
Q 37.9375 66.21875 33.296875 66.21875 
Q 25.25 66.21875 20.875 63.09375 
Q 16.5 59.96875 16.5 54.203125 
Q 16.5 49.359375 19.40625 46.890625 
Q 22.3125 44.4375 30.421875 42.921875 
L 36.375 41.703125 
Q 47.40625 39.59375 52.65625 34.296875 
Q 57.90625 29 57.90625 20.125 
Q 57.90625 9.515625 50.796875 4.046875 
Q 43.703125 -1.421875 29.984375 -1.421875 
Q 24.8125 -1.421875 18.96875 -0.25 
Q 13.140625 0.921875 6.890625 3.21875 
L 6.890625 13.375 
Q 12.890625 10.015625 18.65625 8.296875 
Q 24.421875 6.59375 29.984375 6.59375 
Q 38.421875 6.59375 43.015625 9.90625 
Q 47.609375 13.234375 47.609375 19.390625 
Q 47.609375 24.75 44.3125 27.78125 
Q 41.015625 30.8125 33.5 32.328125 
L 27.484375 33.5 
Q 16.453125 35.6875 11.515625 40.375 
Q 6.59375 45.0625 6.59375 53.421875 
Q 6.59375 63.09375 13.40625 68.65625 
Q 20.21875 74.21875 32.171875 74.21875 
Q 37.3125 74.21875 42.625 73.28125 
Q 47.953125 72.359375 53.515625 70.515625 
z
" id="DejaVuSans-83"/>
      <path d="M 8.5 21.578125 
L 8.5 54.6875 
L 17.484375 54.6875 
L 17.484375 21.921875 
Q 17.484375 14.15625 20.5 10.265625 
Q 23.53125 6.390625 29.59375 6.390625 
Q 36.859375 6.390625 41.078125 11.03125 
Q 45.3125 15.671875 45.3125 23.6875 
L 45.3125 54.6875 
L 54.296875 54.6875 
L 54.296875 0 
L 45.3125 0 
L 45.3125 8.40625 
Q 42.046875 3.421875 37.71875 1 
Q 33.40625 -1.421875 27.6875 -1.421875 
Q 18.265625 -1.421875 13.375 4.4375 
Q 8.5 10.296875 8.5 21.578125 
z
M 31.109375 56 
z
" id="DejaVuSans-117"/>
      <path d="M 45.40625 46.390625 
L 45.40625 75.984375 
L 54.390625 75.984375 
L 54.390625 0 
L 45.40625 0 
L 45.40625 8.203125 
Q 42.578125 3.328125 38.25 0.953125 
Q 33.9375 -1.421875 27.875 -1.421875 
Q 17.96875 -1.421875 11.734375 6.484375 
Q 5.515625 14.40625 5.515625 27.296875 
Q 5.515625 40.1875 11.734375 48.09375 
Q 17.96875 56 27.875 56 
Q 33.9375 56 38.25 53.625 
Q 42.578125 51.265625 45.40625 46.390625 
z
M 14.796875 27.296875 
Q 14.796875 17.390625 18.875 11.75 
Q 22.953125 6.109375 30.078125 6.109375 
Q 37.203125 6.109375 41.296875 11.75 
Q 45.40625 17.390625 45.40625 27.296875 
Q 45.40625 37.203125 41.296875 42.84375 
Q 37.203125 48.484375 30.078125 48.484375 
Q 22.953125 48.484375 18.875 42.84375 
Q 14.796875 37.203125 14.796875 27.296875 
z
" id="DejaVuSans-100"/>
      <path d="M 54.890625 33.015625 
L 54.890625 0 
L 45.90625 0 
L 45.90625 32.71875 
Q 45.90625 40.484375 42.875 44.328125 
Q 39.84375 48.1875 33.796875 48.1875 
Q 26.515625 48.1875 22.3125 43.546875 
Q 18.109375 38.921875 18.109375 30.90625 
L 18.109375 0 
L 9.078125 0 
L 9.078125 54.6875 
L 18.109375 54.6875 
L 18.109375 46.1875 
Q 21.34375 51.125 25.703125 53.5625 
Q 30.078125 56 35.796875 56 
Q 45.21875 56 50.046875 50.171875 
Q 54.890625 44.34375 54.890625 33.015625 
z
" id="DejaVuSans-110"/>
      <path d="M 44.28125 53.078125 
L 44.28125 44.578125 
Q 40.484375 46.53125 36.375 47.5 
Q 32.28125 48.484375 27.875 48.484375 
Q 21.1875 48.484375 17.84375 46.4375 
Q 14.5 44.390625 14.5 40.28125 
Q 14.5 37.15625 16.890625 35.375 
Q 19.28125 33.59375 26.515625 31.984375 
L 29.59375 31.296875 
Q 39.15625 29.25 43.1875 25.515625 
Q 47.21875 21.78125 47.21875 15.09375 
Q 47.21875 7.46875 41.1875 3.015625 
Q 35.15625 -1.421875 24.609375 -1.421875 
Q 20.21875 -1.421875 15.453125 -0.5625 
Q 10.6875 0.296875 5.421875 2 
L 5.421875 11.28125 
Q 10.40625 8.6875 15.234375 7.390625 
Q 20.0625 6.109375 24.8125 6.109375 
Q 31.15625 6.109375 34.5625 8.28125 
Q 37.984375 10.453125 37.984375 14.40625 
Q 37.984375 18.0625 35.515625 20.015625 
Q 33.0625 21.96875 24.703125 23.78125 
L 21.578125 24.515625 
Q 13.234375 26.265625 9.515625 29.90625 
Q 5.8125 33.546875 5.8125 39.890625 
Q 5.8125 47.609375 11.28125 51.796875 
Q 16.75 56 26.8125 56 
Q 31.78125 56 36.171875 55.265625 
Q 40.578125 54.546875 44.28125 53.078125 
z
" id="DejaVuSans-115"/>
      <path id="DejaVuSans-32"/>
      <path d="M 44.390625 34.1875 
Q 47.5625 33.109375 50.5625 29.59375 
Q 53.5625 26.078125 56.59375 19.921875 
L 66.609375 0 
L 56 0 
L 46.6875 18.703125 
Q 43.0625 26.03125 39.671875 28.421875 
Q 36.28125 30.8125 30.421875 30.8125 
L 19.671875 30.8125 
L 19.671875 0 
L 9.8125 0 
L 9.8125 72.90625 
L 32.078125 72.90625 
Q 44.578125 72.90625 50.734375 67.671875 
Q 56.890625 62.453125 56.890625 51.90625 
Q 56.890625 45.015625 53.6875 40.46875 
Q 50.484375 35.9375 44.390625 34.1875 
z
M 19.671875 64.796875 
L 19.671875 38.921875 
L 32.078125 38.921875 
Q 39.203125 38.921875 42.84375 42.21875 
Q 46.484375 45.515625 46.484375 51.90625 
Q 46.484375 58.296875 42.84375 61.546875 
Q 39.203125 64.796875 32.078125 64.796875 
z
" id="DejaVuSans-82"/>
      <path d="M 45.40625 27.984375 
Q 45.40625 37.75 41.375 43.109375 
Q 37.359375 48.484375 30.078125 48.484375 
Q 22.859375 48.484375 18.828125 43.109375 
Q 14.796875 37.75 14.796875 27.984375 
Q 14.796875 18.265625 18.828125 12.890625 
Q 22.859375 7.515625 30.078125 7.515625 
Q 37.359375 7.515625 41.375 12.890625 
Q 45.40625 18.265625 45.40625 27.984375 
z
M 54.390625 6.78125 
Q 54.390625 -7.171875 48.1875 -13.984375 
Q 42 -20.796875 29.203125 -20.796875 
Q 24.46875 -20.796875 20.265625 -20.09375 
Q 16.0625 -19.390625 12.109375 -17.921875 
L 12.109375 -9.1875 
Q 16.0625 -11.328125 19.921875 -12.34375 
Q 23.78125 -13.375 27.78125 -13.375 
Q 36.625 -13.375 41.015625 -8.765625 
Q 45.40625 -4.15625 45.40625 5.171875 
L 45.40625 9.625 
Q 42.625 4.78125 38.28125 2.390625 
Q 33.9375 0 27.875 0 
Q 17.828125 0 11.671875 7.65625 
Q 5.515625 15.328125 5.515625 27.984375 
Q 5.515625 40.671875 11.671875 48.328125 
Q 17.828125 56 27.875 56 
Q 33.9375 56 38.28125 53.609375 
Q 42.625 51.21875 45.40625 46.390625 
L 45.40625 54.6875 
L 54.390625 54.6875 
z
" id="DejaVuSans-103"/>
      <path d="M 9.421875 54.6875 
L 18.40625 54.6875 
L 18.40625 0 
L 9.421875 0 
z
M 9.421875 75.984375 
L 18.40625 75.984375 
L 18.40625 64.59375 
L 9.421875 64.59375 
z
" id="DejaVuSans-105"/>
      <path d="M 41.109375 46.296875 
Q 39.59375 47.171875 37.8125 47.578125 
Q 36.03125 48 33.890625 48 
Q 26.265625 48 22.1875 43.046875 
Q 18.109375 38.09375 18.109375 28.8125 
L 18.109375 0 
L 9.078125 0 
L 9.078125 54.6875 
L 18.109375 54.6875 
L 18.109375 46.1875 
Q 20.953125 51.171875 25.484375 53.578125 
Q 30.03125 56 36.53125 56 
Q 37.453125 56 38.578125 55.875 
Q 39.703125 55.765625 41.0625 55.515625 
z
" id="DejaVuSans-114"/>
     </defs>
     <g transform="translate(17.745313 167.498979)rotate(-90)scale(0.1 -0.1)">
      <use xlink:href="#DejaVuSans-83"/>
      <use x="63.476562" xlink:href="#DejaVuSans-116"/>
      <use x="102.685547" xlink:href="#DejaVuSans-117"/>
      <use x="166.064453" xlink:href="#DejaVuSans-100"/>
      <use x="229.541016" xlink:href="#DejaVuSans-101"/>
      <use x="291.064453" xlink:href="#DejaVuSans-110"/>
      <use x="354.443359" xlink:href="#DejaVuSans-116"/>
      <use x="393.652344" xlink:href="#DejaVuSans-115"/>
      <use x="445.751953" xlink:href="#DejaVuSans-32"/>
      <use x="477.539062" xlink:href="#DejaVuSans-82"/>
      <use x="546.958984" xlink:href="#DejaVuSans-101"/>
      <use x="608.482422" xlink:href="#DejaVuSans-103"/>
      <use x="671.958984" xlink:href="#DejaVuSans-105"/>
      <use x="699.742188" xlink:href="#DejaVuSans-115"/>
      <use x="751.841797" xlink:href="#DejaVuSans-116"/>
      <use x="791.050781" xlink:href="#DejaVuSans-101"/>
      <use x="852.574219" xlink:href="#DejaVuSans-114"/>
      <use x="893.65625" xlink:href="#DejaVuSans-101"/>
      <use x="955.179688" xlink:href="#DejaVuSans-100"/>
     </g>
    </g>
   </g>
   <g id="line2d_21">
    <path clip-path="url(#p7a88b0b809)" d="M 55.905 201.382519 
L 60.900864 201.382519 
L 60.900864 196.670456 
L 60.987761 196.670456 
L 64.203101 196.670456 
L 64.203101 191.958393 
L 64.29 191.958393 
L 64.898286 191.958393 
L 64.898286 187.24633 
L 64.985174 187.24633 
L 68.548075 187.24633 
L 68.548075 177.822204 
L 68.634997 177.822204 
L 68.895698 177.822204 
L 68.895698 173.110142 
L 68.982606 173.110142 
L 69.243303 173.110142 
L 69.243303 168.398079 
L 69.330191 168.398079 
L 69.417099 168.398079 
L 69.417099 163.686016 
L 69.504019 163.686016 
L 73.414522 163.686016 
L 73.414522 158.973953 
L 73.501414 158.973953 
L 77.411931 158.973953 
L 77.411931 154.26189 
L 77.498843 154.26189 
L 85.059168 154.26189 
L 85.059168 144.837764 
L 85.146026 144.837764 
L 85.406763 144.837764 
L 85.406763 140.125701 
L 85.493644 140.125701 
L 86.275763 140.125701 
L 86.275763 135.413638 
L 86.36265 135.413638 
L 89.056552 135.413638 
L 89.056552 130.701575 
L 89.143451 130.701575 
L 89.925567 130.701575 
L 89.925567 125.989512 
L 90.01247 125.989512 
L 90.099369 125.989512 
L 90.099369 121.277449 
L 90.186275 121.277449 
L 90.273168 121.277449 
L 90.316612 107.14126 
L 90.360065 107.14126 
L 93.227753 107.14126 
L 93.227753 102.429197 
L 93.314688 102.429197 
L 93.401549 102.429197 
L 93.401549 93.005071 
L 93.488485 93.005071 
L 93.575348 93.005071 
L 93.575348 88.293008 
L 93.662258 88.293008 
L 93.749166 88.293008 
L 93.792614 74.156819 
L 93.836068 74.156819 
L 94.09676 74.156819 
L 94.09676 60.02063 
L 94.183678 60.02063 
L 94.270583 60.02063 
L 94.270583 50.596504 
L 94.357495 50.596504 
L 94.444359 50.596504 
L 94.444359 31.748252 
L 94.531288 31.748252 
L 94.618182 31.748252 
L 94.618182 27.036189 
L 94.705101 27.036189 
L 95.487192 27.036189 
L 95.487192 22.324126 
L 95.574096 22.324126 
L 143.282339 22.324126 
L 143.282339 27.036189 
L 143.369206 27.036189 
L 143.456138 27.036189 
L 143.456138 22.324126 
L 143.543033 22.324126 
L 143.803719 22.324126 
L 143.803719 27.036189 
L 143.89064 27.036189 
L 144.325101 27.036189 
L 144.325101 31.748252 
L 144.412035 31.748252 
L 144.672744 31.748252 
L 144.672744 36.460315 
L 144.759622 36.460315 
L 149.365325 36.460315 
L 149.365325 41.172378 
L 149.452222 41.172378 
L 159.619572 41.172378 
L 159.619572 36.460315 
L 159.706475 36.460315 
L 178.911402 36.460315 
L 178.911402 41.172378 
L 178.998327 41.172378 
L 185.68964 41.172378 
L 185.68964 36.460315 
L 185.776534 36.460315 
L 206.893326 36.460315 
L 206.893326 31.748252 
L 206.980221 31.748252 
L 209.674088 31.748252 
L 209.674088 27.036189 
L 209.760993 27.036189 
L 214.540524 27.036189 
L 214.540524 22.324126 
L 239.567807 22.324126 
L 239.567807 31.748252 
L 239.654674 31.748252 
L 240.089165 31.748252 
L 240.089165 36.460315 
L 240.176107 36.460315 
L 270.330477 36.460315 
L 270.330477 41.172378 
L 270.417409 41.172378 
L 276.587302 41.172378 
L 276.587302 36.460315 
L 276.674191 36.460315 
L 280.758524 36.460315 
L 280.758524 31.748252 
L 280.845399 31.748252 
L 281.975086 31.748252 
L 281.975086 27.036189 
L 282.06203 27.036189 
L 293.793562 27.036189 
L 293.793562 22.324126 
L 293.880468 22.324126 
L 303.005 22.324126 
L 303.005 22.324126 
" style="fill:none;stroke:#1b9e77;stroke-linecap:square;stroke-width:1.5;"/>
   </g>
   <g id="line2d_22">
    <path clip-path="url(#p7a88b0b809)" d="M 55.905 210.806645 
L 56.08812 210.806645 
L 56.08812 201.382519 
L 56.196682 201.382519 
L 56.903471 201.382519 
L 56.903471 196.670456 
L 56.987442 196.670456 
L 60.900864 196.670456 
L 60.900864 191.958393 
L 60.987761 191.958393 
L 64.203101 191.958393 
L 64.203101 177.822204 
L 64.29 177.822204 
L 64.376885 177.822204 
L 64.376885 173.110142 
L 64.463799 173.110142 
L 64.550684 173.110142 
L 64.550684 154.26189 
L 64.637594 154.26189 
L 64.724483 154.26189 
L 64.724483 149.549827 
L 64.811382 149.549827 
L 64.898286 149.549827 
L 64.898286 140.125701 
L 64.985174 140.125701 
L 65.072112 140.125701 
L 65.072112 125.989512 
L 65.159009 125.989512 
L 68.200503 125.989512 
L 68.200503 121.277449 
L 68.2874 121.277449 
L 68.374284 121.277449 
L 68.374284 116.565386 
L 68.461182 116.565386 
L 68.895698 116.565386 
L 68.895698 111.853323 
L 68.982606 111.853323 
L 69.243303 111.853323 
L 69.243303 97.717134 
L 69.330191 97.717134 
L 69.417099 97.717134 
L 69.417099 93.005071 
L 69.504019 93.005071 
L 72.893102 93.005071 
L 72.893102 88.293008 
L 72.980021 88.293008 
L 73.066897 88.293008 
L 73.066897 83.580945 
L 73.153823 83.580945 
L 73.414522 83.580945 
L 73.414522 78.868882 
L 73.501414 78.868882 
L 73.935914 78.868882 
L 73.935914 74.156819 
L 74.022805 74.156819 
L 76.890546 74.156819 
L 76.890546 69.444756 
L 76.977415 69.444756 
L 85.059168 69.444756 
L 85.059168 45.884441 
L 85.146026 45.884441 
L 85.232952 45.884441 
L 85.232952 36.460315 
L 85.319825 36.460315 
L 85.406763 36.460315 
L 85.406763 31.748252 
L 85.493644 31.748252 
L 143.977505 31.748252 
L 143.977505 36.460315 
L 144.064422 36.460315 
L 144.1513 36.460315 
L 144.1513 31.748252 
L 144.238201 31.748252 
L 153.536525 31.748252 
L 153.536525 36.460315 
L 153.623456 36.460315 
L 153.710338 36.460315 
L 153.710338 31.748252 
L 153.797234 31.748252 
L 239.567807 31.748252 
L 239.567807 22.324126 
L 239.654674 22.324126 
L 303.005 22.324126 
L 303.005 22.324126 
" style="fill:none;stroke:#d95f02;stroke-linecap:square;stroke-width:1.5;"/>
   </g>
   <g id="line2d_23">
    <path clip-path="url(#p7a88b0b809)" d="M 92.184984 196.670456 
L 93.053948 196.670456 
L 93.053948 182.534267 
L 93.140993 182.534267 
L 93.227753 182.534267 
L 93.227753 177.822204 
L 93.314688 177.822204 
L 93.401549 177.822204 
L 93.401549 158.973953 
L 93.488485 158.973953 
L 93.749166 158.973953 
L 93.749166 144.837764 
L 93.836068 144.837764 
L 94.09676 144.837764 
L 94.09676 116.565386 
L 94.183678 116.565386 
L 94.444359 116.565386 
L 94.444359 107.14126 
L 94.531288 107.14126 
L 94.618182 107.14126 
L 94.618182 102.429197 
L 94.705101 102.429197 
L 94.791968 102.429197 
L 94.791968 97.717134 
L 94.878898 97.717134 
L 95.139597 97.717134 
L 95.139597 93.005071 
L 95.226456 93.005071 
L 97.572766 93.005071 
L 97.572766 74.156819 
L 97.659696 74.156819 
L 97.920379 74.156819 
L 97.920379 69.444756 
L 98.007265 69.444756 
L 98.268006 69.444756 
L 98.268006 60.02063 
L 98.354888 60.02063 
L 98.441807 60.02063 
L 98.441807 55.308567 
L 98.528685 55.308567 
L 98.789413 55.308567 
L 98.789413 50.596504 
L 98.876284 50.596504 
L 102.439208 50.596504 
L 102.439208 45.884441 
L 102.526091 45.884441 
L 102.612979 45.884441 
L 102.612979 41.172378 
L 102.699919 41.172378 
L 102.786789 41.172378 
L 102.786789 36.460315 
L 102.87371 36.460315 
L 103.308214 36.460315 
L 103.308214 31.748252 
L 103.395117 31.748252 
L 114.431419 31.748252 
L 114.431419 22.324126 
L 114.518341 22.324126 
L 135.808884 22.324126 
L 135.808884 27.036189 
L 135.895795 27.036189 
L 136.851686 27.036189 
L 136.851686 22.324126 
L 136.93859 22.324126 
L 151.972349 22.324126 
L 151.972349 27.036189 
L 152.059253 27.036189 
L 153.362746 27.036189 
L 153.362746 22.324126 
L 153.449657 22.324126 
L 265.811687 22.324126 
L 265.811687 27.036189 
L 265.898577 27.036189 
L 270.67809 27.036189 
L 270.67809 22.324126 
L 270.76498 22.324126 
L 303.005 22.324126 
L 303.005 22.324126 
" style="fill:none;stroke:#7570b3;stroke-linecap:square;stroke-width:1.5;"/>
   </g>
   <g id="line2d_24">
    <path clip-path="url(#p7a88b0b809)" d="M 55.905 182.534267 
L 56.08812 182.534267 
L 56.08812 177.822204 
L 56.196682 177.822204 
L 56.987442 177.822204 
L 56.987442 173.110142 
L 59.768282 173.110142 
L 59.768282 168.398079 
L 60.031886 168.398079 
L 60.031886 163.686016 
L 60.118796 163.686016 
L 60.205676 163.686016 
L 60.205676 158.973953 
L 60.292592 158.973953 
L 60.727101 158.973953 
L 60.727101 144.837764 
L 60.814019 144.837764 
L 60.900864 144.837764 
L 60.900864 140.125701 
L 60.987761 140.125701 
L 64.376885 140.125701 
L 64.376885 130.701575 
L 64.463799 130.701575 
L 64.550684 130.701575 
L 64.550684 125.989512 
L 64.637594 125.989512 
L 64.724483 125.989512 
L 64.724483 130.701575 
L 64.811382 130.701575 
L 65.072112 130.701575 
L 65.072112 125.989512 
L 65.159009 125.989512 
L 65.245878 125.989512 
L 65.245878 116.565386 
L 65.332773 116.565386 
L 66.114902 116.565386 
L 66.114902 107.14126 
L 66.201812 107.14126 
L 68.026706 107.14126 
L 68.026706 102.429197 
L 68.113597 102.429197 
L 68.200503 102.429197 
L 68.200503 83.580945 
L 68.2874 83.580945 
L 68.374284 83.580945 
L 68.374284 74.156819 
L 68.461182 74.156819 
L 68.721903 74.156819 
L 68.721903 69.444756 
L 68.808806 69.444756 
L 68.895698 69.444756 
L 68.895698 64.732693 
L 68.982606 64.732693 
L 69.069504 64.732693 
L 69.069504 60.02063 
L 69.156414 60.02063 
L 69.243303 60.02063 
L 69.243303 45.884441 
L 69.330191 45.884441 
L 69.417099 45.884441 
L 69.417099 41.172378 
L 69.504019 41.172378 
L 69.590909 41.172378 
L 69.590909 36.460315 
L 69.677794 36.460315 
L 72.545494 36.460315 
L 72.545494 27.036189 
L 72.632408 27.036189 
L 72.719333 27.036189 
L 72.719333 22.324126 
L 72.806224 22.324126 
L 93.227753 22.324126 
L 93.227753 27.036189 
L 93.314688 27.036189 
L 93.401549 27.036189 
L 93.401549 22.324126 
L 93.488485 22.324126 
L 265.637858 22.324126 
L 265.637858 27.036189 
L 265.724765 27.036189 
L 265.811687 27.036189 
L 265.811687 22.324126 
L 265.898577 22.324126 
L 303.005 22.324126 
L 303.005 22.324126 
" style="fill:none;stroke:#e7298a;stroke-linecap:square;stroke-width:1.5;"/>
   </g>
   <g id="line2d_25">
    <path clip-path="url(#p7a88b0b809)" d="M 55.905 201.382519 
L 60.553309 201.382519 
L 60.553309 196.670456 
L 60.640183 196.670456 
L 64.029308 196.670456 
L 64.029308 191.958393 
L 64.116175 191.958393 
L 64.203101 191.958393 
L 64.203101 187.24633 
L 64.29 187.24633 
L 64.376885 187.24633 
L 64.376885 177.822204 
L 64.463799 177.822204 
L 64.550684 177.822204 
L 64.550684 173.110142 
L 64.637594 173.110142 
L 64.724483 173.110142 
L 64.724483 168.398079 
L 64.811382 168.398079 
L 64.898286 168.398079 
L 64.898286 163.686016 
L 64.985174 163.686016 
L 65.245878 163.686016 
L 65.245878 158.973953 
L 65.332773 158.973953 
L 68.200503 158.973953 
L 68.200503 149.549827 
L 68.2874 149.549827 
L 68.374284 149.549827 
L 68.374284 144.837764 
L 68.461182 144.837764 
L 69.069504 144.837764 
L 69.069504 140.125701 
L 69.156414 140.125701 
L 69.243303 140.125701 
L 69.243303 130.701575 
L 69.330191 130.701575 
L 85.059168 130.701575 
L 85.059168 125.989512 
L 85.146026 125.989512 
L 85.232952 125.989512 
L 85.232952 121.277449 
L 85.319825 121.277449 
L 85.406763 121.277449 
L 85.406763 116.565386 
L 85.493644 116.565386 
L 85.580545 116.565386 
L 85.580545 111.853323 
L 85.667436 111.853323 
L 85.754363 111.853323 
L 85.754363 102.429197 
L 85.841243 102.429197 
L 85.928166 102.429197 
L 85.928166 97.717134 
L 86.015044 97.717134 
L 89.056552 97.717134 
L 89.100005 83.580945 
L 89.143451 83.580945 
L 89.404161 83.580945 
L 89.404161 74.156819 
L 89.491058 74.156819 
L 89.925567 74.156819 
L 89.925567 69.444756 
L 90.01247 69.444756 
L 90.099369 69.444756 
L 90.099369 60.02063 
L 90.186275 60.02063 
L 90.273168 60.02063 
L 90.273168 36.460315 
L 90.360065 36.460315 
L 90.446942 36.460315 
L 90.446942 22.324126 
L 90.533922 22.324126 
L 93.053948 22.324126 
L 93.053948 27.036189 
L 93.140993 27.036189 
L 93.401549 27.036189 
L 93.401549 22.324126 
L 93.488485 22.324126 
L 135.46127 22.324126 
L 135.46127 27.036189 
L 135.548201 27.036189 
L 135.635107 27.036189 
L 135.635107 22.324126 
L 135.721972 22.324126 
L 143.282339 22.324126 
L 143.282339 27.036189 
L 143.369206 27.036189 
L 143.629892 27.036189 
L 143.629892 22.324126 
L 143.716836 22.324126 
L 143.977505 22.324126 
L 143.977505 27.036189 
L 144.064422 27.036189 
L 144.672744 27.036189 
L 144.672744 22.324126 
L 144.759622 22.324126 
L 303.005 22.324126 
L 303.005 22.324126 
" style="fill:none;stroke:#66a61e;stroke-linecap:square;stroke-width:1.5;"/>
   </g>
   <g id="line2d_26">
    <path clip-path="url(#p7a88b0b809)" d="M 55.905 191.958393 
L 64.203101 191.958393 
L 64.203101 187.24633 
L 64.29 187.24633 
L 65.072112 187.24633 
L 65.072112 182.534267 
L 65.159009 182.534267 
L 65.419702 182.534267 
L 65.419702 177.822204 
L 65.506613 177.822204 
L 68.721903 177.822204 
L 68.721903 173.110142 
L 68.808806 173.110142 
L 69.069504 173.110142 
L 69.069504 168.398079 
L 69.156414 168.398079 
L 72.545494 168.398079 
L 72.545494 163.686016 
L 72.632408 163.686016 
L 84.885343 163.686016 
L 84.885343 154.26189 
L 84.972226 154.26189 
L 85.059168 154.26189 
L 85.059168 144.837764 
L 85.146026 144.837764 
L 85.580545 144.837764 
L 85.580545 140.125701 
L 85.667436 140.125701 
L 86.275763 140.125701 
L 86.275763 135.413638 
L 86.36265 135.413638 
L 89.404161 135.413638 
L 89.404161 130.701575 
L 89.491058 130.701575 
L 89.751732 130.701575 
L 89.751732 121.277449 
L 89.838678 121.277449 
L 90.099369 121.277449 
L 90.099369 116.565386 
L 90.186275 116.565386 
L 91.142174 116.565386 
L 91.142174 111.853323 
L 91.229064 111.853323 
L 93.053948 111.853323 
L 93.053948 107.14126 
L 93.140993 107.14126 
L 93.401549 107.14126 
L 93.401549 102.429197 
L 93.488485 102.429197 
L 93.575348 102.429197 
L 93.575348 93.005071 
L 93.662258 93.005071 
L 93.922977 93.005071 
L 93.922977 88.293008 
L 94.009898 88.293008 
L 94.09676 88.293008 
L 94.140227 74.156819 
L 94.183678 74.156819 
L 94.270583 74.156819 
L 94.270583 64.732693 
L 94.357495 64.732693 
L 94.965758 64.732693 
L 94.965758 69.444756 
L 95.052697 69.444756 
L 97.572766 69.444756 
L 97.572766 60.02063 
L 97.659696 60.02063 
L 97.746609 60.02063 
L 97.746609 55.308567 
L 97.833508 55.308567 
L 98.094185 55.308567 
L 98.094185 50.596504 
L 98.181088 50.596504 
L 98.268006 50.596504 
L 98.268006 41.172378 
L 98.354888 41.172378 
L 98.441807 41.172378 
L 98.441807 36.460315 
L 98.528685 36.460315 
L 98.789413 36.460315 
L 98.789413 31.748252 
L 98.876284 31.748252 
L 241.479595 31.748252 
L 241.479595 36.460315 
L 241.566475 36.460315 
L 245.476985 36.460315 
L 245.476985 31.748252 
L 245.563909 31.748252 
L 303.005 31.748252 
L 303.005 31.748252 
" style="fill:none;stroke:#e6ab02;stroke-linecap:square;stroke-width:1.5;"/>
   </g>
   <g id="line2d_27">
    <path clip-path="url(#p7a88b0b809)" d="M 55.905 196.670456 
L 60.553309 196.670456 
L 60.553309 191.958393 
L 60.640183 191.958393 
L 64.029308 191.958393 
L 64.029308 187.24633 
L 64.116175 187.24633 
L 64.203101 187.24633 
L 64.203101 182.534267 
L 64.29 182.534267 
L 64.550684 182.534267 
L 64.550684 177.822204 
L 64.637594 177.822204 
L 64.724483 177.822204 
L 64.724483 173.110142 
L 64.811382 173.110142 
L 64.898286 173.110142 
L 64.898286 163.686016 
L 64.985174 163.686016 
L 65.072112 163.686016 
L 65.072112 158.973953 
L 65.159009 158.973953 
L 65.245878 158.973953 
L 65.245878 154.26189 
L 65.332773 154.26189 
L 68.026706 154.26189 
L 68.026706 149.549827 
L 68.113597 149.549827 
L 68.200503 149.549827 
L 68.200503 140.125701 
L 68.2874 140.125701 
L 68.548075 140.125701 
L 68.548075 135.413638 
L 68.634997 135.413638 
L 68.721903 135.413638 
L 68.721903 125.989512 
L 68.808806 125.989512 
L 69.069504 125.989512 
L 69.069504 121.277449 
L 69.156414 121.277449 
L 69.417099 121.277449 
L 69.417099 116.565386 
L 69.504019 116.565386 
L 69.590909 116.565386 
L 69.590909 111.853323 
L 69.677794 111.853323 
L 72.719333 111.853323 
L 72.719333 107.14126 
L 72.806224 107.14126 
L 73.414522 107.14126 
L 73.414522 102.429197 
L 73.501414 102.429197 
L 77.933307 102.429197 
L 77.933307 97.717134 
L 78.020225 97.717134 
L 84.885343 97.717134 
L 84.885343 93.005071 
L 84.972226 93.005071 
L 85.406763 93.005071 
L 85.406763 78.868882 
L 85.493644 78.868882 
L 85.580545 78.868882 
L 85.580545 69.444756 
L 85.667436 69.444756 
L 85.754363 69.444756 
L 85.754363 60.02063 
L 85.841243 60.02063 
L 86.275763 60.02063 
L 86.275763 55.308567 
L 86.36265 55.308567 
L 88.708959 55.308567 
L 88.708959 50.596504 
L 88.795854 50.596504 
L 89.230349 50.596504 
L 89.230349 45.884441 
L 89.317276 45.884441 
L 89.404161 45.884441 
L 89.404161 41.172378 
L 89.491058 41.172378 
L 89.577951 41.172378 
L 89.577951 36.460315 
L 89.664845 36.460315 
L 90.099369 36.460315 
L 90.099369 31.748252 
L 90.186275 31.748252 
L 303.005 31.748252 
L 303.005 31.748252 
" style="fill:none;stroke:#a6761d;stroke-linecap:square;stroke-width:1.5;"/>
   </g>
   <g id="line2d_28">
    <path clip-path="url(#p7a88b0b809)" d="M 55.905 201.382519 
L 64.376885 201.382519 
L 64.376885 196.670456 
L 64.463799 196.670456 
L 64.898286 196.670456 
L 64.898286 191.958393 
L 64.985174 191.958393 
L 68.721903 191.958393 
L 68.721903 187.24633 
L 68.808806 187.24633 
L 69.069504 187.24633 
L 69.069504 191.958393 
L 69.156414 191.958393 
L 69.243303 191.958393 
L 69.243303 182.534267 
L 69.330191 182.534267 
L 85.059168 182.534267 
L 85.059168 177.822204 
L 85.146026 177.822204 
L 85.406763 177.822204 
L 85.406763 173.110142 
L 85.493644 173.110142 
L 85.754363 173.110142 
L 85.754363 168.398079 
L 85.841243 168.398079 
L 85.928166 168.398079 
L 85.928166 163.686016 
L 86.015044 163.686016 
L 86.79714 163.686016 
L 86.79714 158.973953 
L 86.884075 158.973953 
L 89.577951 158.973953 
L 89.577951 154.26189 
L 89.664845 154.26189 
L 90.099369 154.26189 
L 90.099369 149.549827 
L 90.186275 149.549827 
L 90.273168 149.549827 
L 90.273168 144.837764 
L 90.360065 144.837764 
L 93.227753 144.837764 
L 93.227753 135.413638 
L 93.314688 135.413638 
L 93.401549 135.413638 
L 93.401549 130.701575 
L 93.488485 130.701575 
L 93.575348 130.701575 
L 93.618802 116.565386 
L 93.662258 116.565386 
L 94.270583 116.565386 
L 94.270583 111.853323 
L 94.357495 111.853323 
L 94.444359 111.853323 
L 94.444359 107.14126 
L 94.531288 107.14126 
L 94.618182 107.14126 
L 94.618182 111.853323 
L 94.705101 111.853323 
L 94.791968 111.853323 
L 94.791968 107.14126 
L 94.878898 107.14126 
L 94.965758 107.14126 
L 94.965758 102.429197 
L 95.052697 102.429197 
L 97.051392 102.429197 
L 97.051392 107.14126 
L 97.138267 107.14126 
L 97.572766 107.14126 
L 97.572766 93.005071 
L 97.659696 93.005071 
L 97.920379 93.005071 
L 97.920379 88.293008 
L 98.007265 88.293008 
L 98.268006 88.293008 
L 98.268006 69.444756 
L 98.354888 69.444756 
L 98.441807 69.444756 
L 98.441807 64.732693 
L 98.528685 64.732693 
L 102.265385 64.732693 
L 102.265385 60.02063 
L 102.352279 60.02063 
L 116.34326 60.02063 
L 116.34326 55.308567 
L 116.43016 55.308567 
L 119.12406 55.308567 
L 119.12406 50.596504 
L 119.210936 50.596504 
L 119.29784 50.596504 
L 119.29784 55.308567 
L 119.38476 55.308567 
L 119.645443 55.308567 
L 119.645443 50.596504 
L 119.732363 50.596504 
L 123.816683 50.596504 
L 123.816683 45.884441 
L 123.903571 45.884441 
L 130.942461 45.884441 
L 130.942461 50.596504 
L 131.029369 50.596504 
L 135.808884 50.596504 
L 135.808884 45.884441 
L 135.895795 45.884441 
L 143.282339 45.884441 
L 143.282339 50.596504 
L 143.369206 50.596504 
L 143.629892 50.596504 
L 143.629892 55.308567 
L 143.716836 55.308567 
L 144.1513 55.308567 
L 144.1513 60.02063 
L 144.238201 60.02063 
L 149.017722 60.02063 
L 149.017722 64.732693 
L 149.104657 64.732693 
L 156.491132 64.732693 
L 156.491132 69.444756 
L 156.578057 69.444756 
L 173.871221 69.444756 
L 173.871221 74.156819 
L 173.958103 74.156819 
L 252.776628 74.156819 
L 252.776628 69.444756 
L 252.863564 69.444756 
L 257.469258 69.444756 
L 257.469258 74.156819 
L 257.556181 74.156819 
L 302.309777 74.156819 
L 302.309777 69.444756 
L 302.396664 69.444756 
L 303.005 69.444756 
L 303.005 69.444756 
" style="fill:none;stroke:#666666;stroke-linecap:square;stroke-width:1.5;"/>
   </g>
   <g id="line2d_29">
    <path clip-path="url(#p7a88b0b809)" d="M 55.905 196.670456 
L 59.768282 196.670456 
L 59.768282 191.958393 
L 64.898286 191.958393 
L 64.898286 187.24633 
L 64.985174 187.24633 
L 68.374284 187.24633 
L 68.374284 182.534267 
L 68.461182 182.534267 
L 68.721903 182.534267 
L 68.721903 177.822204 
L 68.808806 177.822204 
L 69.243303 177.822204 
L 69.243303 173.110142 
L 69.330191 173.110142 
L 69.417099 173.110142 
L 69.417099 168.398079 
L 69.504019 168.398079 
L 70.459909 168.398079 
L 70.459909 163.686016 
L 70.546827 163.686016 
L 85.406763 163.686016 
L 85.406763 154.26189 
L 85.493644 154.26189 
L 89.404161 154.26189 
L 89.404161 149.549827 
L 89.491058 149.549827 
L 90.273168 149.549827 
L 90.273168 144.837764 
L 90.360065 144.837764 
L 90.794584 144.837764 
L 90.794584 140.125701 
L 90.881474 140.125701 
L 93.401549 140.125701 
L 93.401549 135.413638 
L 93.488485 135.413638 
L 93.575348 135.413638 
L 93.575348 125.989512 
L 93.662258 125.989512 
L 94.09676 125.989512 
L 94.09676 116.565386 
L 94.183678 116.565386 
L 97.920379 116.565386 
L 97.920379 111.853323 
L 98.007265 111.853323 
L 98.441807 111.853323 
L 98.441807 107.14126 
L 98.528685 107.14126 
L 98.963173 107.14126 
L 98.963173 102.429197 
L 99.050093 102.429197 
L 103.308214 102.429197 
L 103.308214 97.717134 
L 103.395117 97.717134 
L 115.300441 97.717134 
L 115.300441 93.005071 
L 115.387353 93.005071 
L 119.29784 93.005071 
L 119.29784 88.293008 
L 119.38476 88.293008 
L 123.816683 88.293008 
L 123.816683 93.005071 
L 123.903571 93.005071 
L 143.803719 93.005071 
L 143.803719 88.293008 
L 143.89064 88.293008 
L 143.977505 88.293008 
L 143.977505 93.005071 
L 144.064422 93.005071 
L 148.322535 93.005071 
L 148.322535 88.293008 
L 148.409456 88.293008 
L 178.911402 88.293008 
L 178.911402 83.580945 
L 178.998327 83.580945 
L 206.71949 83.580945 
L 206.71949 78.868882 
L 206.806388 78.868882 
L 215.583333 78.868882 
L 215.583333 83.580945 
L 215.670225 83.580945 
L 270.67809 83.580945 
L 270.67809 88.293008 
L 270.76498 88.293008 
L 272.763708 88.293008 
L 272.763708 93.005071 
L 272.850606 93.005071 
L 287.36295 93.005071 
L 287.36295 88.293008 
L 287.449832 88.293008 
L 289.796154 88.293008 
L 289.796154 83.580945 
L 289.883059 83.580945 
L 293.27213 83.580945 
L 293.27213 78.868882 
L 293.359067 78.868882 
L 298.138538 78.868882 
L 298.138538 83.580945 
L 298.225456 83.580945 
L 303.005 83.580945 
L 303.005 83.580945 
" style="fill:none;stroke:#1b9e77;stroke-dasharray:4.5,1.5;stroke-dashoffset:0;stroke-width:1.5;"/>
   </g>
   <g id="line2d_30">
    <path clip-path="url(#p7a88b0b809)" d="M 55.905 206.094582 
L 64.029308 206.094582 
L 64.029308 201.382519 
L 64.116175 201.382519 
L 64.203101 201.382519 
L 64.203101 196.670456 
L 64.29 196.670456 
L 64.898286 196.670456 
L 64.898286 187.24633 
L 64.985174 187.24633 
L 68.200503 187.24633 
L 68.200503 182.534267 
L 68.2874 182.534267 
L 69.069504 182.534267 
L 69.069504 177.822204 
L 69.156414 177.822204 
L 69.243303 177.822204 
L 69.243303 173.110142 
L 69.330191 173.110142 
L 69.417099 173.110142 
L 69.417099 168.398079 
L 69.504019 168.398079 
L 85.232952 168.398079 
L 85.232952 163.686016 
L 85.319825 163.686016 
L 85.406763 163.686016 
L 85.406763 158.973953 
L 85.493644 158.973953 
L 85.580545 158.973953 
L 85.580545 149.549827 
L 85.667436 149.549827 
L 89.925567 149.549827 
L 89.925567 144.837764 
L 90.01247 144.837764 
L 90.099369 144.837764 
L 90.099369 140.125701 
L 90.186275 140.125701 
L 93.053948 140.125701 
L 93.053948 144.837764 
L 93.140993 144.837764 
L 93.575348 144.837764 
L 93.575348 135.413638 
L 93.662258 135.413638 
L 93.749166 135.413638 
L 93.749166 140.125701 
L 93.836068 140.125701 
L 93.922977 140.125701 
L 93.922977 135.413638 
L 94.009898 135.413638 
L 94.270583 135.413638 
L 94.270583 125.989512 
L 94.357495 125.989512 
L 94.444359 125.989512 
L 94.444359 121.277449 
L 94.531288 121.277449 
L 102.612979 121.277449 
L 102.612979 116.565386 
L 102.699919 116.565386 
L 103.134411 116.565386 
L 103.134411 111.853323 
L 103.2213 111.853323 
L 111.47681 111.853323 
L 111.47681 107.14126 
L 111.563712 107.14126 
L 127.292657 107.14126 
L 127.292657 102.429197 
L 127.379571 102.429197 
L 127.987858 102.429197 
L 127.987858 97.717134 
L 128.0748 97.717134 
L 131.463896 97.717134 
L 131.463896 93.005071 
L 131.550801 93.005071 
L 145.194144 93.005071 
L 145.194144 88.293008 
L 145.281013 88.293008 
L 248.779192 88.293008 
L 248.779192 93.005071 
L 248.866133 93.005071 
L 252.776628 93.005071 
L 252.776628 97.717134 
L 252.863564 97.717134 
L 289.622343 97.717134 
L 289.622343 93.005071 
L 289.709219 93.005071 
L 290.317522 93.005071 
L 290.317522 88.293008 
L 290.404432 88.293008 
L 303.005 88.293008 
L 303.005 88.293008 
" style="fill:none;stroke:#d95f02;stroke-dasharray:4.5,1.5;stroke-dashoffset:0;stroke-width:1.5;"/>
   </g>
   <g id="line2d_31">
    <path clip-path="url(#p7a88b0b809)" d="M 55.905 210.806645 
L 61.074661 210.806645 
L 61.074661 206.094582 
L 61.161566 206.094582 
L 61.769897 206.094582 
L 61.769897 201.382519 
L 61.856788 201.382519 
L 72.719333 201.382519 
L 72.719333 196.670456 
L 72.806224 196.670456 
L 84.885343 196.670456 
L 84.885343 191.958393 
L 84.972226 191.958393 
L 86.101941 191.958393 
L 86.101941 182.534267 
L 86.188834 182.534267 
L 89.404161 182.534267 
L 89.404161 177.822204 
L 89.491058 177.822204 
L 89.577951 177.822204 
L 89.577951 173.110142 
L 89.664845 173.110142 
L 90.099369 173.110142 
L 90.099369 163.686016 
L 90.186275 163.686016 
L 90.273168 163.686016 
L 90.273168 158.973953 
L 90.360065 158.973953 
L 91.315943 158.973953 
L 91.315943 154.26189 
L 91.402888 154.26189 
L 93.401549 154.26189 
L 93.401549 158.973953 
L 93.488485 158.973953 
L 93.749166 158.973953 
L 93.749166 154.26189 
L 93.836068 154.26189 
L 93.922977 154.26189 
L 93.922977 149.549827 
L 94.009898 149.549827 
L 94.270583 149.549827 
L 94.270583 144.837764 
L 94.357495 144.837764 
L 94.444359 144.837764 
L 94.444359 149.549827 
L 94.531288 149.549827 
L 94.618182 149.549827 
L 94.618182 144.837764 
L 94.705101 144.837764 
L 97.572766 144.837764 
L 97.572766 140.125701 
L 97.659696 140.125701 
L 103.134411 140.125701 
L 103.134411 135.413638 
L 103.2213 135.413638 
L 114.779034 135.413638 
L 114.779034 130.701575 
L 114.865949 130.701575 
L 131.290071 130.701575 
L 131.290071 125.989512 
L 131.37701 125.989512 
L 151.972349 125.989512 
L 151.972349 121.277449 
L 152.059253 121.277449 
L 173.871221 121.277449 
L 173.871221 116.565386 
L 173.958103 116.565386 
L 214.540524 116.565386 
L 214.540524 111.853323 
L 231.22536 111.853323 
L 231.22536 107.14126 
L 231.31228 107.14126 
L 265.637858 107.14126 
L 265.637858 102.429197 
L 265.724765 102.429197 
L 270.504275 102.429197 
L 270.504275 97.717134 
L 270.591179 97.717134 
L 276.934881 97.717134 
L 276.934881 93.005071 
L 277.021804 93.005071 
L 303.005 93.005071 
L 303.005 93.005071 
" style="fill:none;stroke:#7570b3;stroke-dasharray:4.5,1.5;stroke-dashoffset:0;stroke-width:1.5;"/>
   </g>
   <g id="line2d_32">
    <path clip-path="url(#p7a88b0b809)" d="M 55.905 206.094582 
L 64.376885 206.094582 
L 64.376885 201.382519 
L 64.463799 201.382519 
L 69.069504 201.382519 
L 69.069504 191.958393 
L 69.156414 191.958393 
L 84.885343 191.958393 
L 84.885343 187.24633 
L 84.972226 187.24633 
L 85.232952 187.24633 
L 85.232952 182.534267 
L 85.319825 182.534267 
L 85.754363 182.534267 
L 85.754363 177.822204 
L 85.841243 177.822204 
L 89.056552 177.822204 
L 89.056552 173.110142 
L 89.143451 173.110142 
L 89.230349 173.110142 
L 89.230349 163.686016 
L 89.317276 163.686016 
L 89.404161 163.686016 
L 89.404161 158.973953 
L 89.491058 158.973953 
L 89.751732 158.973953 
L 89.751732 154.26189 
L 89.838678 154.26189 
L 89.925567 154.26189 
L 89.925567 144.837764 
L 90.01247 144.837764 
L 90.099369 144.837764 
L 90.099369 135.413638 
L 90.186275 135.413638 
L 90.794584 135.413638 
L 90.794584 130.701575 
L 90.881474 130.701575 
L 91.142174 130.701575 
L 91.142174 125.989512 
L 91.229064 125.989512 
L 91.315943 125.989512 
L 91.315943 130.701575 
L 91.402888 130.701575 
L 92.880165 130.701575 
L 92.880165 135.413638 
L 92.967087 135.413638 
L 93.053948 135.413638 
L 93.053948 140.125701 
L 93.140993 140.125701 
L 93.227753 140.125701 
L 93.227753 135.413638 
L 93.314688 135.413638 
L 93.401549 135.413638 
L 93.401549 140.125701 
L 93.488485 140.125701 
L 93.575348 140.125701 
L 93.575348 135.413638 
L 93.662258 135.413638 
L 93.749166 135.413638 
L 93.749166 130.701575 
L 93.836068 130.701575 
L 94.09676 130.701575 
L 94.09676 135.413638 
L 94.183678 135.413638 
L 98.094185 135.413638 
L 98.094185 130.701575 
L 98.181088 130.701575 
L 98.441807 130.701575 
L 98.441807 125.989512 
L 98.528685 125.989512 
L 102.439208 125.989512 
L 102.439208 121.277449 
L 102.526091 121.277449 
L 103.655798 121.277449 
L 103.655798 116.565386 
L 103.742683 116.565386 
L 114.779034 116.565386 
L 114.779034 111.853323 
L 114.865949 111.853323 
L 114.952832 111.853323 
L 114.952832 107.14126 
L 115.039738 107.14126 
L 115.648016 107.14126 
L 115.648016 102.429197 
L 115.734945 102.429197 
L 123.816683 102.429197 
L 123.816683 97.717134 
L 123.903571 97.717134 
L 124.338039 97.717134 
L 124.338039 93.005071 
L 124.424974 93.005071 
L 133.028093 93.005071 
L 133.028093 88.293008 
L 133.114969 88.293008 
L 136.851686 88.293008 
L 136.851686 93.005071 
L 136.93859 93.005071 
L 143.629892 93.005071 
L 143.629892 97.717134 
L 143.716836 97.717134 
L 173.523612 97.717134 
L 173.523612 93.005071 
L 173.610525 93.005071 
L 202.895913 93.005071 
L 202.895913 88.293008 
L 202.982794 88.293008 
L 206.198111 88.293008 
L 206.198111 83.580945 
L 206.284984 83.580945 
L 218.190326 83.580945 
L 218.190326 78.868882 
L 218.277239 78.868882 
L 243.565231 78.868882 
L 243.565231 83.580945 
L 243.652129 83.580945 
L 243.738988 83.580945 
L 243.738988 78.868882 
L 243.825887 78.868882 
L 278.672901 78.868882 
L 278.672901 83.580945 
L 278.759785 83.580945 
L 286.667729 83.580945 
L 286.667729 88.293008 
L 286.754611 88.293008 
L 299.702916 88.293008 
L 299.702916 93.005071 
L 299.789677 93.005071 
L 303.005 93.005071 
L 303.005 93.005071 
" style="fill:none;stroke:#e7298a;stroke-dasharray:4.5,1.5;stroke-dashoffset:0;stroke-width:1.5;"/>
   </g>
   <g id="line2d_33">
    <path clip-path="url(#p7a88b0b809)" d="M 55.905 210.806645 
L 60.379643 210.806645 
L 60.379643 206.094582 
L 60.466394 206.094582 
L 60.727101 206.094582 
L 60.727101 201.382519 
L 60.814019 201.382519 
L 64.724483 201.382519 
L 64.724483 196.670456 
L 64.811382 196.670456 
L 69.243303 196.670456 
L 69.243303 191.958393 
L 69.330191 191.958393 
L 72.024118 191.958393 
L 72.024118 187.24633 
L 72.111044 187.24633 
L 72.893102 187.24633 
L 72.893102 182.534267 
L 72.980021 182.534267 
L 73.240719 182.534267 
L 73.240719 177.822204 
L 73.327603 177.822204 
L 84.885343 177.822204 
L 84.885343 168.398079 
L 84.972226 168.398079 
L 85.232952 168.398079 
L 85.232952 163.686016 
L 85.319825 163.686016 
L 85.406763 163.686016 
L 85.406763 158.973953 
L 85.493644 158.973953 
L 85.580545 158.973953 
L 85.580545 154.26189 
L 85.667436 154.26189 
L 85.754363 154.26189 
L 85.754363 144.837764 
L 85.841243 144.837764 
L 85.928166 144.837764 
L 85.928166 140.125701 
L 86.015044 140.125701 
L 86.275763 140.125701 
L 86.275763 135.413638 
L 86.36265 135.413638 
L 86.623379 135.413638 
L 86.623379 130.701575 
L 86.710265 130.701575 
L 87.144734 130.701575 
L 87.144734 125.989512 
L 87.231675 125.989512 
L 89.056552 125.989512 
L 89.056552 121.277449 
L 89.143451 121.277449 
L 89.230349 121.277449 
L 89.230349 116.565386 
L 89.317276 116.565386 
L 89.404161 116.565386 
L 89.404161 102.429197 
L 89.491058 102.429197 
L 89.577951 102.429197 
L 89.577951 97.717134 
L 89.664845 97.717134 
L 89.751732 97.717134 
L 89.751732 93.005071 
L 89.838678 93.005071 
L 91.315943 93.005071 
L 91.315943 97.717134 
L 91.402888 97.717134 
L 93.575348 97.717134 
L 93.575348 93.005071 
L 93.662258 93.005071 
L 93.749166 93.005071 
L 93.749166 97.717134 
L 93.836068 97.717134 
L 93.922977 97.717134 
L 93.922977 93.005071 
L 94.009898 93.005071 
L 98.789413 93.005071 
L 98.789413 97.717134 
L 98.876284 97.717134 
L 98.963173 97.717134 
L 98.963173 93.005071 
L 99.050093 93.005071 
L 265.290285 93.005071 
L 265.290285 97.717134 
L 265.37715 97.717134 
L 278.672901 97.717134 
L 278.672901 93.005071 
L 278.759785 93.005071 
L 303.005 93.005071 
L 303.005 93.005071 
" style="fill:none;stroke:#66a61e;stroke-dasharray:4.5,1.5;stroke-dashoffset:0;stroke-width:1.5;"/>
   </g>
   <g id="line2d_34">
    <path clip-path="url(#p7a88b0b809)" d="M 133.940528 210.806645 
L 135.46127 210.806645 
L 135.46127 206.094582 
L 135.548201 206.094582 
L 140.675322 206.094582 
L 140.675322 201.382519 
L 140.762197 201.382519 
L 143.282339 201.382519 
L 143.282339 182.534267 
L 143.369206 182.534267 
L 143.629892 182.534267 
L 143.629892 173.110142 
L 143.716836 173.110142 
L 143.977505 173.110142 
L 143.977505 158.973953 
L 144.064422 158.973953 
L 144.325101 158.973953 
L 144.325101 154.26189 
L 144.412035 154.26189 
L 147.801147 154.26189 
L 147.801147 149.549827 
L 147.888046 149.549827 
L 148.670139 149.549827 
L 148.670139 144.837764 
L 148.757034 144.837764 
L 149.017722 144.837764 
L 149.017722 140.125701 
L 149.104657 140.125701 
L 149.365325 140.125701 
L 149.365325 135.413638 
L 149.452222 135.413638 
L 149.539131 135.413638 
L 149.539131 130.701575 
L 149.626013 130.701575 
L 151.972349 130.701575 
L 151.972349 125.989512 
L 152.059253 125.989512 
L 153.536525 125.989512 
L 153.536525 121.277449 
L 153.623456 121.277449 
L 156.491132 121.277449 
L 156.491132 116.565386 
L 156.578057 116.565386 
L 209.674088 116.565386 
L 209.674088 121.277449 
L 209.760993 121.277449 
L 210.543081 121.277449 
L 210.543081 116.565386 
L 210.630014 116.565386 
L 239.741598 116.565386 
L 239.741598 111.853323 
L 239.828511 111.853323 
L 240.089165 111.853323 
L 240.089165 107.14126 
L 240.176107 107.14126 
L 241.479595 107.14126 
L 241.479595 102.429197 
L 241.566475 102.429197 
L 265.11645 102.429197 
L 265.11645 97.717134 
L 265.203357 97.717134 
L 303.005 97.717134 
L 303.005 97.717134 
" style="fill:none;stroke:#e6ab02;stroke-dasharray:4.5,1.5;stroke-dashoffset:0;stroke-width:1.5;"/>
   </g>
   <g id="line2d_35">
    <path clip-path="url(#p7a88b0b809)" d="M 55.905 206.094582 
L 64.550684 206.094582 
L 64.550684 196.670456 
L 64.637594 196.670456 
L 68.374284 196.670456 
L 68.374284 187.24633 
L 68.461182 187.24633 
L 68.548075 187.24633 
L 68.548075 182.534267 
L 68.634997 182.534267 
L 69.243303 182.534267 
L 69.243303 177.822204 
L 69.330191 177.822204 
L 69.417099 177.822204 
L 69.417099 173.110142 
L 69.504019 173.110142 
L 85.580545 173.110142 
L 85.580545 168.398079 
L 85.667436 168.398079 
L 85.754363 168.398079 
L 85.754363 163.686016 
L 85.841243 163.686016 
L 85.928166 163.686016 
L 85.928166 158.973953 
L 86.015044 158.973953 
L 86.449529 158.973953 
L 86.449529 154.26189 
L 86.536469 154.26189 
L 86.623379 154.26189 
L 86.623379 158.973953 
L 86.710265 158.973953 
L 89.056552 158.973953 
L 89.056552 140.125701 
L 89.143451 140.125701 
L 89.404161 140.125701 
L 89.404161 130.701575 
L 89.491058 130.701575 
L 89.577951 130.701575 
L 89.577951 125.989512 
L 89.664845 125.989512 
L 89.751732 125.989512 
L 89.751732 116.565386 
L 89.838678 116.565386 
L 303.005 116.565386 
L 303.005 116.565386 
" style="fill:none;stroke:#a6761d;stroke-dasharray:4.5,1.5;stroke-dashoffset:0;stroke-width:1.5;"/>
   </g>
   <g id="line2d_36">
    <path clip-path="url(#p7a88b0b809)" d="M 55.905 210.806645 
L 64.898286 210.806645 
L 64.898286 206.094582 
L 64.985174 206.094582 
L 65.072112 206.094582 
L 65.072112 201.382519 
L 65.159009 201.382519 
L 68.548075 201.382519 
L 68.548075 196.670456 
L 68.634997 196.670456 
L 69.417099 196.670456 
L 69.417099 191.958393 
L 69.504019 191.958393 
L 69.7647 191.958393 
L 69.7647 187.24633 
L 69.85162 187.24633 
L 70.112319 187.24633 
L 70.112319 182.534267 
L 70.199227 182.534267 
L 72.719333 182.534267 
L 72.719333 187.24633 
L 72.806224 187.24633 
L 85.059168 187.24633 
L 85.059168 182.534267 
L 85.146026 182.534267 
L 86.101941 182.534267 
L 86.101941 173.110142 
L 86.188834 173.110142 
L 89.230349 173.110142 
L 89.230349 168.398079 
L 89.317276 168.398079 
L 89.925567 168.398079 
L 89.925567 149.549827 
L 90.01247 149.549827 
L 90.099369 149.549827 
L 90.099369 144.837764 
L 90.186275 144.837764 
L 90.273168 144.837764 
L 90.273168 140.125701 
L 90.360065 140.125701 
L 143.629892 140.125701 
L 143.629892 144.837764 
L 143.716836 144.837764 
L 143.803719 144.837764 
L 143.803719 140.125701 
L 143.89064 140.125701 
L 248.779192 140.125701 
L 248.779192 135.413638 
L 248.866133 135.413638 
L 257.469258 135.413638 
L 257.469258 130.701575 
L 257.556181 130.701575 
L 270.330477 130.701575 
L 270.330477 125.989512 
L 270.417409 125.989512 
L 272.763708 125.989512 
L 272.763708 121.277449 
L 272.850606 121.277449 
L 273.458903 121.277449 
L 273.458903 116.565386 
L 273.545789 116.565386 
L 302.309777 116.565386 
L 302.309777 121.277449 
L 302.396664 121.277449 
L 303.005 121.277449 
L 303.005 121.277449 
" style="fill:none;stroke:#666666;stroke-dasharray:4.5,1.5;stroke-dashoffset:0;stroke-width:1.5;"/>
   </g>
   <g id="line2d_37"/>
   <g id="line2d_38"/>
   <g id="line2d_39"/>
   <g id="line2d_40"/>
   <g id="line2d_41"/>
   <g id="line2d_42"/>
   <g id="line2d_43"/>
   <g id="line2d_44"/>
   <g id="line2d_45"/>
   <g id="line2d_46"/>
   <g id="line2d_47"/>
   <g id="line2d_48"/>
   <g id="line2d_49"/>
   <g id="line2d_50"/>
   <g id="line2d_51"/>
   <g id="line2d_52"/>
   <g id="line2d_53"/>
   <g id="patch_3">
    <path d="M 43.55 220.230771 
L 43.55 12.9 
" style="fill:none;stroke:#000000;stroke-linecap:square;stroke-linejoin:miter;stroke-width:0.8;"/>
   </g>
   <g id="patch_4">
    <path d="M 315.36 220.230771 
L 315.36 12.9 
" style="fill:none;stroke:#000000;stroke-linecap:square;stroke-linejoin:miter;stroke-width:0.8;"/>
   </g>
   <g id="patch_5">
    <path d="M 43.55 220.230771 
L 315.36 220.230771 
" style="fill:none;stroke:#000000;stroke-linecap:square;stroke-linejoin:miter;stroke-width:0.8;"/>
   </g>
   <g id="patch_6">
    <path d="M 43.55 12.9 
L 315.36 12.9 
" style="fill:none;stroke:#000000;stroke-linecap:square;stroke-linejoin:miter;stroke-width:0.8;"/>
   </g>
  </g>
  <g id="legend_1">
   <g id="patch_7">
    <path d="M 331.8625 262.528125 
L 420 262.528125 
Q 422 262.528125 422 260.528125 
L 422 12 
Q 422 10 420 10 
L 331.8625 10 
Q 329.8625 10 329.8625 12 
L 329.8625 260.528125 
Q 329.8625 262.528125 331.8625 262.528125 
z
" style="fill:#ffffff;opacity:0.8;stroke:#cccccc;stroke-linejoin:miter;"/>
   </g>
   <g id="text_23">
    <!-- 497/610 Reg. -->
    <defs>
     <path d="M 8.203125 72.90625 
L 55.078125 72.90625 
L 55.078125 68.703125 
L 28.609375 0 
L 18.3125 0 
L 43.21875 64.59375 
L 8.203125 64.59375 
z
" id="DejaVuSans-55"/>
     <path d="M 25.390625 72.90625 
L 33.6875 72.90625 
L 8.296875 -9.28125 
L 0 -9.28125 
z
" id="DejaVuSans-47"/>
     <path d="M 33.015625 40.375 
Q 26.375 40.375 22.484375 35.828125 
Q 18.609375 31.296875 18.609375 23.390625 
Q 18.609375 15.53125 22.484375 10.953125 
Q 26.375 6.390625 33.015625 6.390625 
Q 39.65625 6.390625 43.53125 10.953125 
Q 47.40625 15.53125 47.40625 23.390625 
Q 47.40625 31.296875 43.53125 35.828125 
Q 39.65625 40.375 33.015625 40.375 
z
M 52.59375 71.296875 
L 52.59375 62.3125 
Q 48.875 64.0625 45.09375 64.984375 
Q 41.3125 65.921875 37.59375 65.921875 
Q 27.828125 65.921875 22.671875 59.328125 
Q 17.53125 52.734375 16.796875 39.40625 
Q 19.671875 43.65625 24.015625 45.921875 
Q 28.375 48.1875 33.59375 48.1875 
Q 44.578125 48.1875 50.953125 41.515625 
Q 57.328125 34.859375 57.328125 23.390625 
Q 57.328125 12.15625 50.6875 5.359375 
Q 44.046875 -1.421875 33.015625 -1.421875 
Q 20.359375 -1.421875 13.671875 8.265625 
Q 6.984375 17.96875 6.984375 36.375 
Q 6.984375 53.65625 15.1875 63.9375 
Q 23.390625 74.21875 37.203125 74.21875 
Q 40.921875 74.21875 44.703125 73.484375 
Q 48.484375 72.75 52.59375 71.296875 
z
" id="DejaVuSans-54"/>
     <path d="M 10.6875 12.40625 
L 21 12.40625 
L 21 0 
L 10.6875 0 
z
" id="DejaVuSans-46"/>
    </defs>
    <g transform="translate(342.259375 21.598437)scale(0.1 -0.1)">
     <use xlink:href="#DejaVuSans-52"/>
     <use x="63.623047" xlink:href="#DejaVuSans-57"/>
     <use x="127.246094" xlink:href="#DejaVuSans-55"/>
     <use x="190.869141" xlink:href="#DejaVuSans-47"/>
     <use x="224.560547" xlink:href="#DejaVuSans-54"/>
     <use x="288.183594" xlink:href="#DejaVuSans-49"/>
     <use x="351.806641" xlink:href="#DejaVuSans-48"/>
     <use x="415.429688" xlink:href="#DejaVuSans-32"/>
     <use x="447.216797" xlink:href="#DejaVuSans-82"/>
     <use x="516.636719" xlink:href="#DejaVuSans-101"/>
     <use x="578.160156" xlink:href="#DejaVuSans-103"/>
     <use x="641.636719" xlink:href="#DejaVuSans-46"/>
    </g>
   </g>
   <g id="line2d_54">
    <path d="M 333.8625 32.776562 
L 353.8625 32.776562 
" style="fill:none;stroke:#1b9e77;stroke-linecap:square;stroke-width:1.5;"/>
   </g>
   <g id="line2d_55"/>
   <g id="text_24">
    <!-- SA (40) -->
    <defs>
     <path d="M 34.1875 63.1875 
L 20.796875 26.90625 
L 47.609375 26.90625 
z
M 28.609375 72.90625 
L 39.796875 72.90625 
L 67.578125 0 
L 57.328125 0 
L 50.6875 18.703125 
L 17.828125 18.703125 
L 11.1875 0 
L 0.78125 0 
z
" id="DejaVuSans-65"/>
     <path d="M 31 75.875 
Q 24.46875 64.65625 21.28125 53.65625 
Q 18.109375 42.671875 18.109375 31.390625 
Q 18.109375 20.125 21.3125 9.0625 
Q 24.515625 -2 31 -13.1875 
L 23.1875 -13.1875 
Q 15.875 -1.703125 12.234375 9.375 
Q 8.59375 20.453125 8.59375 31.390625 
Q 8.59375 42.28125 12.203125 53.3125 
Q 15.828125 64.359375 23.1875 75.875 
z
" id="DejaVuSans-40"/>
     <path d="M 8.015625 75.875 
L 15.828125 75.875 
Q 23.140625 64.359375 26.78125 53.3125 
Q 30.421875 42.28125 30.421875 31.390625 
Q 30.421875 20.453125 26.78125 9.375 
Q 23.140625 -1.703125 15.828125 -13.1875 
L 8.015625 -13.1875 
Q 14.5 -2 17.703125 9.0625 
Q 20.90625 20.125 20.90625 31.390625 
Q 20.90625 42.671875 17.703125 53.65625 
Q 14.5 64.65625 8.015625 75.875 
z
" id="DejaVuSans-41"/>
    </defs>
    <g transform="translate(361.8625 36.276562)scale(0.1 -0.1)">
     <use xlink:href="#DejaVuSans-83"/>
     <use x="63.492188" xlink:href="#DejaVuSans-65"/>
     <use x="131.900391" xlink:href="#DejaVuSans-32"/>
     <use x="163.6875" xlink:href="#DejaVuSans-40"/>
     <use x="202.701172" xlink:href="#DejaVuSans-52"/>
     <use x="266.324219" xlink:href="#DejaVuSans-48"/>
     <use x="329.947266" xlink:href="#DejaVuSans-41"/>
    </g>
   </g>
   <g id="line2d_56">
    <path d="M 333.8625 47.454688 
L 353.8625 47.454688 
" style="fill:none;stroke:#d95f02;stroke-linecap:square;stroke-width:1.5;"/>
   </g>
   <g id="line2d_57"/>
   <g id="text_25">
    <!-- AS (40) -->
    <g transform="translate(361.8625 50.954688)scale(0.1 -0.1)">
     <use xlink:href="#DejaVuSans-65"/>
     <use x="68.408203" xlink:href="#DejaVuSans-83"/>
     <use x="131.884766" xlink:href="#DejaVuSans-32"/>
     <use x="163.671875" xlink:href="#DejaVuSans-40"/>
     <use x="202.685547" xlink:href="#DejaVuSans-52"/>
     <use x="266.308594" xlink:href="#DejaVuSans-48"/>
     <use x="329.931641" xlink:href="#DejaVuSans-41"/>
    </g>
   </g>
   <g id="line2d_58">
    <path d="M 333.8625 62.132812 
L 353.8625 62.132812 
" style="fill:none;stroke:#7570b3;stroke-linecap:square;stroke-width:1.5;"/>
   </g>
   <g id="line2d_59"/>
   <g id="text_26">
    <!-- AUS (40) -->
    <defs>
     <path d="M 8.6875 72.90625 
L 18.609375 72.90625 
L 18.609375 28.609375 
Q 18.609375 16.890625 22.84375 11.734375 
Q 27.09375 6.59375 36.625 6.59375 
Q 46.09375 6.59375 50.34375 11.734375 
Q 54.59375 16.890625 54.59375 28.609375 
L 54.59375 72.90625 
L 64.5 72.90625 
L 64.5 27.390625 
Q 64.5 13.140625 57.4375 5.859375 
Q 50.390625 -1.421875 36.625 -1.421875 
Q 22.796875 -1.421875 15.734375 5.859375 
Q 8.6875 13.140625 8.6875 27.390625 
z
" id="DejaVuSans-85"/>
    </defs>
    <g transform="translate(361.8625 65.632812)scale(0.1 -0.1)">
     <use xlink:href="#DejaVuSans-65"/>
     <use x="68.408203" xlink:href="#DejaVuSans-85"/>
     <use x="141.601562" xlink:href="#DejaVuSans-83"/>
     <use x="205.078125" xlink:href="#DejaVuSans-32"/>
     <use x="236.865234" xlink:href="#DejaVuSans-40"/>
     <use x="275.878906" xlink:href="#DejaVuSans-52"/>
     <use x="339.501953" xlink:href="#DejaVuSans-48"/>
     <use x="403.125" xlink:href="#DejaVuSans-41"/>
    </g>
   </g>
   <g id="line2d_60">
    <path d="M 333.8625 76.810937 
L 353.8625 76.810937 
" style="fill:none;stroke:#e7298a;stroke-linecap:square;stroke-width:1.5;"/>
   </g>
   <g id="line2d_61"/>
   <g id="text_27">
    <!-- COML (40) -->
    <defs>
     <path d="M 64.40625 67.28125 
L 64.40625 56.890625 
Q 59.421875 61.53125 53.78125 63.8125 
Q 48.140625 66.109375 41.796875 66.109375 
Q 29.296875 66.109375 22.65625 58.46875 
Q 16.015625 50.828125 16.015625 36.375 
Q 16.015625 21.96875 22.65625 14.328125 
Q 29.296875 6.6875 41.796875 6.6875 
Q 48.140625 6.6875 53.78125 8.984375 
Q 59.421875 11.28125 64.40625 15.921875 
L 64.40625 5.609375 
Q 59.234375 2.09375 53.4375 0.328125 
Q 47.65625 -1.421875 41.21875 -1.421875 
Q 24.65625 -1.421875 15.125 8.703125 
Q 5.609375 18.84375 5.609375 36.375 
Q 5.609375 53.953125 15.125 64.078125 
Q 24.65625 74.21875 41.21875 74.21875 
Q 47.75 74.21875 53.53125 72.484375 
Q 59.328125 70.75 64.40625 67.28125 
z
" id="DejaVuSans-67"/>
     <path d="M 39.40625 66.21875 
Q 28.65625 66.21875 22.328125 58.203125 
Q 16.015625 50.203125 16.015625 36.375 
Q 16.015625 22.609375 22.328125 14.59375 
Q 28.65625 6.59375 39.40625 6.59375 
Q 50.140625 6.59375 56.421875 14.59375 
Q 62.703125 22.609375 62.703125 36.375 
Q 62.703125 50.203125 56.421875 58.203125 
Q 50.140625 66.21875 39.40625 66.21875 
z
M 39.40625 74.21875 
Q 54.734375 74.21875 63.90625 63.9375 
Q 73.09375 53.65625 73.09375 36.375 
Q 73.09375 19.140625 63.90625 8.859375 
Q 54.734375 -1.421875 39.40625 -1.421875 
Q 24.03125 -1.421875 14.8125 8.828125 
Q 5.609375 19.09375 5.609375 36.375 
Q 5.609375 53.65625 14.8125 63.9375 
Q 24.03125 74.21875 39.40625 74.21875 
z
" id="DejaVuSans-79"/>
     <path d="M 9.8125 72.90625 
L 24.515625 72.90625 
L 43.109375 23.296875 
L 61.8125 72.90625 
L 76.515625 72.90625 
L 76.515625 0 
L 66.890625 0 
L 66.890625 64.015625 
L 48.09375 14.015625 
L 38.1875 14.015625 
L 19.390625 64.015625 
L 19.390625 0 
L 9.8125 0 
z
" id="DejaVuSans-77"/>
     <path d="M 9.8125 72.90625 
L 19.671875 72.90625 
L 19.671875 8.296875 
L 55.171875 8.296875 
L 55.171875 0 
L 9.8125 0 
z
" id="DejaVuSans-76"/>
    </defs>
    <g transform="translate(361.8625 80.310937)scale(0.1 -0.1)">
     <use xlink:href="#DejaVuSans-67"/>
     <use x="69.824219" xlink:href="#DejaVuSans-79"/>
     <use x="148.535156" xlink:href="#DejaVuSans-77"/>
     <use x="234.814453" xlink:href="#DejaVuSans-76"/>
     <use x="290.527344" xlink:href="#DejaVuSans-32"/>
     <use x="322.314453" xlink:href="#DejaVuSans-40"/>
     <use x="361.328125" xlink:href="#DejaVuSans-52"/>
     <use x="424.951172" xlink:href="#DejaVuSans-48"/>
     <use x="488.574219" xlink:href="#DejaVuSans-41"/>
    </g>
   </g>
   <g id="line2d_62">
    <path d="M 333.8625 91.489062 
L 353.8625 91.489062 
" style="fill:none;stroke:#66a61e;stroke-linecap:square;stroke-width:1.5;"/>
   </g>
   <g id="line2d_63"/>
   <g id="text_28">
    <!-- GDD (40) -->
    <defs>
     <path d="M 59.515625 10.40625 
L 59.515625 29.984375 
L 43.40625 29.984375 
L 43.40625 38.09375 
L 69.28125 38.09375 
L 69.28125 6.78125 
Q 63.578125 2.734375 56.6875 0.65625 
Q 49.8125 -1.421875 42 -1.421875 
Q 24.90625 -1.421875 15.25 8.5625 
Q 5.609375 18.5625 5.609375 36.375 
Q 5.609375 54.25 15.25 64.234375 
Q 24.90625 74.21875 42 74.21875 
Q 49.125 74.21875 55.546875 72.453125 
Q 61.96875 70.703125 67.390625 67.28125 
L 67.390625 56.78125 
Q 61.921875 61.421875 55.765625 63.765625 
Q 49.609375 66.109375 42.828125 66.109375 
Q 29.4375 66.109375 22.71875 58.640625 
Q 16.015625 51.171875 16.015625 36.375 
Q 16.015625 21.625 22.71875 14.15625 
Q 29.4375 6.6875 42.828125 6.6875 
Q 48.046875 6.6875 52.140625 7.59375 
Q 56.25 8.5 59.515625 10.40625 
z
" id="DejaVuSans-71"/>
    </defs>
    <g transform="translate(361.8625 94.989062)scale(0.1 -0.1)">
     <use xlink:href="#DejaVuSans-71"/>
     <use x="77.490234" xlink:href="#DejaVuSans-68"/>
     <use x="154.492188" xlink:href="#DejaVuSans-68"/>
     <use x="231.494141" xlink:href="#DejaVuSans-32"/>
     <use x="263.28125" xlink:href="#DejaVuSans-40"/>
     <use x="302.294922" xlink:href="#DejaVuSans-52"/>
     <use x="365.917969" xlink:href="#DejaVuSans-48"/>
     <use x="429.541016" xlink:href="#DejaVuSans-41"/>
    </g>
   </g>
   <g id="line2d_64">
    <path d="M 333.8625 106.167188 
L 353.8625 106.167188 
" style="fill:none;stroke:#e6ab02;stroke-linecap:square;stroke-width:1.5;"/>
   </g>
   <g id="line2d_65"/>
   <g id="text_29">
    <!-- MD (38) -->
    <g transform="translate(361.8625 109.667188)scale(0.1 -0.1)">
     <use xlink:href="#DejaVuSans-77"/>
     <use x="86.279297" xlink:href="#DejaVuSans-68"/>
     <use x="163.28125" xlink:href="#DejaVuSans-32"/>
     <use x="195.068359" xlink:href="#DejaVuSans-40"/>
     <use x="234.082031" xlink:href="#DejaVuSans-51"/>
     <use x="297.705078" xlink:href="#DejaVuSans-56"/>
     <use x="361.328125" xlink:href="#DejaVuSans-41"/>
    </g>
   </g>
   <g id="line2d_66">
    <path d="M 333.8625 120.845312 
L 353.8625 120.845312 
" style="fill:none;stroke:#a6761d;stroke-linecap:square;stroke-width:1.5;"/>
   </g>
   <g id="line2d_67"/>
   <g id="text_30">
    <!-- HPI (38) -->
    <defs>
     <path d="M 9.8125 72.90625 
L 19.671875 72.90625 
L 19.671875 43.015625 
L 55.515625 43.015625 
L 55.515625 72.90625 
L 65.375 72.90625 
L 65.375 0 
L 55.515625 0 
L 55.515625 34.71875 
L 19.671875 34.71875 
L 19.671875 0 
L 9.8125 0 
z
" id="DejaVuSans-72"/>
     <path d="M 19.671875 64.796875 
L 19.671875 37.40625 
L 32.078125 37.40625 
Q 38.96875 37.40625 42.71875 40.96875 
Q 46.484375 44.53125 46.484375 51.125 
Q 46.484375 57.671875 42.71875 61.234375 
Q 38.96875 64.796875 32.078125 64.796875 
z
M 9.8125 72.90625 
L 32.078125 72.90625 
Q 44.34375 72.90625 50.609375 67.359375 
Q 56.890625 61.8125 56.890625 51.125 
Q 56.890625 40.328125 50.609375 34.8125 
Q 44.34375 29.296875 32.078125 29.296875 
L 19.671875 29.296875 
L 19.671875 0 
L 9.8125 0 
z
" id="DejaVuSans-80"/>
     <path d="M 9.8125 72.90625 
L 19.671875 72.90625 
L 19.671875 0 
L 9.8125 0 
z
" id="DejaVuSans-73"/>
    </defs>
    <g transform="translate(361.8625 124.345312)scale(0.1 -0.1)">
     <use xlink:href="#DejaVuSans-72"/>
     <use x="75.195312" xlink:href="#DejaVuSans-80"/>
     <use x="135.498047" xlink:href="#DejaVuSans-73"/>
     <use x="164.990234" xlink:href="#DejaVuSans-32"/>
     <use x="196.777344" xlink:href="#DejaVuSans-40"/>
     <use x="235.791016" xlink:href="#DejaVuSans-51"/>
     <use x="299.414062" xlink:href="#DejaVuSans-56"/>
     <use x="363.037109" xlink:href="#DejaVuSans-41"/>
    </g>
   </g>
   <g id="line2d_68">
    <path d="M 333.8625 135.523438 
L 353.8625 135.523438 
" style="fill:none;stroke:#666666;stroke-linecap:square;stroke-width:1.5;"/>
   </g>
   <g id="line2d_69"/>
   <g id="text_31">
    <!-- FIT (30) -->
    <defs>
     <path d="M 9.8125 72.90625 
L 51.703125 72.90625 
L 51.703125 64.59375 
L 19.671875 64.59375 
L 19.671875 43.109375 
L 48.578125 43.109375 
L 48.578125 34.8125 
L 19.671875 34.8125 
L 19.671875 0 
L 9.8125 0 
z
" id="DejaVuSans-70"/>
     <path d="M -0.296875 72.90625 
L 61.375 72.90625 
L 61.375 64.59375 
L 35.5 64.59375 
L 35.5 0 
L 25.59375 0 
L 25.59375 64.59375 
L -0.296875 64.59375 
z
" id="DejaVuSans-84"/>
    </defs>
    <g transform="translate(361.8625 139.023438)scale(0.1 -0.1)">
     <use xlink:href="#DejaVuSans-70"/>
     <use x="57.519531" xlink:href="#DejaVuSans-73"/>
     <use x="87.011719" xlink:href="#DejaVuSans-84"/>
     <use x="148.095703" xlink:href="#DejaVuSans-32"/>
     <use x="179.882812" xlink:href="#DejaVuSans-40"/>
     <use x="218.896484" xlink:href="#DejaVuSans-51"/>
     <use x="282.519531" xlink:href="#DejaVuSans-48"/>
     <use x="346.142578" xlink:href="#DejaVuSans-41"/>
    </g>
   </g>
   <g id="line2d_70">
    <path d="M 333.8625 150.201562 
L 353.8625 150.201562 
" style="fill:none;stroke:#1b9e77;stroke-dasharray:4.5,1.5;stroke-dashoffset:0;stroke-width:1.5;"/>
   </g>
   <g id="line2d_71"/>
   <g id="text_32">
    <!-- TBI (27) -->
    <defs>
     <path d="M 19.671875 34.8125 
L 19.671875 8.109375 
L 35.5 8.109375 
Q 43.453125 8.109375 47.28125 11.40625 
Q 51.125 14.703125 51.125 21.484375 
Q 51.125 28.328125 47.28125 31.5625 
Q 43.453125 34.8125 35.5 34.8125 
z
M 19.671875 64.796875 
L 19.671875 42.828125 
L 34.28125 42.828125 
Q 41.5 42.828125 45.03125 45.53125 
Q 48.578125 48.25 48.578125 53.8125 
Q 48.578125 59.328125 45.03125 62.0625 
Q 41.5 64.796875 34.28125 64.796875 
z
M 9.8125 72.90625 
L 35.015625 72.90625 
Q 46.296875 72.90625 52.390625 68.21875 
Q 58.5 63.53125 58.5 54.890625 
Q 58.5 48.1875 55.375 44.234375 
Q 52.25 40.28125 46.1875 39.3125 
Q 53.46875 37.75 57.5 32.78125 
Q 61.53125 27.828125 61.53125 20.40625 
Q 61.53125 10.640625 54.890625 5.3125 
Q 48.25 0 35.984375 0 
L 9.8125 0 
z
" id="DejaVuSans-66"/>
    </defs>
    <g transform="translate(361.8625 153.701562)scale(0.1 -0.1)">
     <use xlink:href="#DejaVuSans-84"/>
     <use x="61.083984" xlink:href="#DejaVuSans-66"/>
     <use x="129.6875" xlink:href="#DejaVuSans-73"/>
     <use x="159.179688" xlink:href="#DejaVuSans-32"/>
     <use x="190.966797" xlink:href="#DejaVuSans-40"/>
     <use x="229.980469" xlink:href="#DejaVuSans-50"/>
     <use x="293.603516" xlink:href="#DejaVuSans-55"/>
     <use x="357.226562" xlink:href="#DejaVuSans-41"/>
    </g>
   </g>
   <g id="line2d_72">
    <path d="M 333.8625 164.879687 
L 353.8625 164.879687 
" style="fill:none;stroke:#d95f02;stroke-dasharray:4.5,1.5;stroke-dashoffset:0;stroke-width:1.5;"/>
   </g>
   <g id="line2d_73"/>
   <g id="text_33">
    <!-- BP (26) -->
    <g transform="translate(361.8625 168.379687)scale(0.1 -0.1)">
     <use xlink:href="#DejaVuSans-66"/>
     <use x="68.603516" xlink:href="#DejaVuSans-80"/>
     <use x="128.90625" xlink:href="#DejaVuSans-32"/>
     <use x="160.693359" xlink:href="#DejaVuSans-40"/>
     <use x="199.707031" xlink:href="#DejaVuSans-50"/>
     <use x="263.330078" xlink:href="#DejaVuSans-54"/>
     <use x="326.953125" xlink:href="#DejaVuSans-41"/>
    </g>
   </g>
   <g id="line2d_74">
    <path d="M 333.8625 179.557812 
L 353.8625 179.557812 
" style="fill:none;stroke:#7570b3;stroke-dasharray:4.5,1.5;stroke-dashoffset:0;stroke-width:1.5;"/>
   </g>
   <g id="line2d_75"/>
   <g id="text_34">
    <!-- CB (25) -->
    <g transform="translate(361.8625 183.057812)scale(0.1 -0.1)">
     <use xlink:href="#DejaVuSans-67"/>
     <use x="69.824219" xlink:href="#DejaVuSans-66"/>
     <use x="138.427734" xlink:href="#DejaVuSans-32"/>
     <use x="170.214844" xlink:href="#DejaVuSans-40"/>
     <use x="209.228516" xlink:href="#DejaVuSans-50"/>
     <use x="272.851562" xlink:href="#DejaVuSans-53"/>
     <use x="336.474609" xlink:href="#DejaVuSans-41"/>
    </g>
   </g>
   <g id="line2d_76">
    <path d="M 333.8625 194.235937 
L 353.8625 194.235937 
" style="fill:none;stroke:#e7298a;stroke-dasharray:4.5,1.5;stroke-dashoffset:0;stroke-width:1.5;"/>
   </g>
   <g id="line2d_77"/>
   <g id="text_35">
    <!-- SPD (25) -->
    <g transform="translate(361.8625 197.735937)scale(0.1 -0.1)">
     <use xlink:href="#DejaVuSans-83"/>
     <use x="63.476562" xlink:href="#DejaVuSans-80"/>
     <use x="123.779297" xlink:href="#DejaVuSans-68"/>
     <use x="200.78125" xlink:href="#DejaVuSans-32"/>
     <use x="232.568359" xlink:href="#DejaVuSans-40"/>
     <use x="271.582031" xlink:href="#DejaVuSans-50"/>
     <use x="335.205078" xlink:href="#DejaVuSans-53"/>
     <use x="398.828125" xlink:href="#DejaVuSans-41"/>
    </g>
   </g>
   <g id="line2d_78">
    <path d="M 333.8625 208.914062 
L 353.8625 208.914062 
" style="fill:none;stroke:#66a61e;stroke-dasharray:4.5,1.5;stroke-dashoffset:0;stroke-width:1.5;"/>
   </g>
   <g id="line2d_79"/>
   <g id="text_36">
    <!-- CC (25) -->
    <g transform="translate(361.8625 212.414062)scale(0.1 -0.1)">
     <use xlink:href="#DejaVuSans-67"/>
     <use x="69.824219" xlink:href="#DejaVuSans-67"/>
     <use x="139.648438" xlink:href="#DejaVuSans-32"/>
     <use x="171.435547" xlink:href="#DejaVuSans-40"/>
     <use x="210.449219" xlink:href="#DejaVuSans-50"/>
     <use x="274.072266" xlink:href="#DejaVuSans-53"/>
     <use x="337.695312" xlink:href="#DejaVuSans-41"/>
    </g>
   </g>
   <g id="line2d_80">
    <path d="M 333.8625 223.592187 
L 353.8625 223.592187 
" style="fill:none;stroke:#e6ab02;stroke-dasharray:4.5,1.5;stroke-dashoffset:0;stroke-width:1.5;"/>
   </g>
   <g id="line2d_81"/>
   <g id="text_37">
    <!-- RJPH (24) -->
    <defs>
     <path d="M 9.8125 72.90625 
L 19.671875 72.90625 
L 19.671875 5.078125 
Q 19.671875 -8.109375 14.671875 -14.0625 
Q 9.671875 -20.015625 -1.421875 -20.015625 
L -5.171875 -20.015625 
L -5.171875 -11.71875 
L -2.09375 -11.71875 
Q 4.4375 -11.71875 7.125 -8.046875 
Q 9.8125 -4.390625 9.8125 5.078125 
z
" id="DejaVuSans-74"/>
    </defs>
    <g transform="translate(361.8625 227.092187)scale(0.1 -0.1)">
     <use xlink:href="#DejaVuSans-82"/>
     <use x="69.482422" xlink:href="#DejaVuSans-74"/>
     <use x="98.974609" xlink:href="#DejaVuSans-80"/>
     <use x="159.277344" xlink:href="#DejaVuSans-72"/>
     <use x="234.472656" xlink:href="#DejaVuSans-32"/>
     <use x="266.259766" xlink:href="#DejaVuSans-40"/>
     <use x="305.273438" xlink:href="#DejaVuSans-50"/>
     <use x="368.896484" xlink:href="#DejaVuSans-52"/>
     <use x="432.519531" xlink:href="#DejaVuSans-41"/>
    </g>
   </g>
   <g id="line2d_82">
    <path d="M 333.8625 238.270312 
L 353.8625 238.270312 
" style="fill:none;stroke:#a6761d;stroke-dasharray:4.5,1.5;stroke-dashoffset:0;stroke-width:1.5;"/>
   </g>
   <g id="line2d_83"/>
   <g id="text_38">
    <!-- AHR-H (20) -->
    <g transform="translate(361.8625 241.770312)scale(0.1 -0.1)">
     <use xlink:href="#DejaVuSans-65"/>
     <use x="68.408203" xlink:href="#DejaVuSans-72"/>
     <use x="143.603516" xlink:href="#DejaVuSans-82"/>
     <use x="213.023438" xlink:href="#DejaVuSans-45"/>
     <use x="249.107422" xlink:href="#DejaVuSans-72"/>
     <use x="324.302734" xlink:href="#DejaVuSans-32"/>
     <use x="356.089844" xlink:href="#DejaVuSans-40"/>
     <use x="395.103516" xlink:href="#DejaVuSans-50"/>
     <use x="458.726562" xlink:href="#DejaVuSans-48"/>
     <use x="522.349609" xlink:href="#DejaVuSans-41"/>
    </g>
   </g>
   <g id="line2d_84">
    <path d="M 333.8625 252.948437 
L 353.8625 252.948437 
" style="fill:none;stroke:#666666;stroke-dasharray:4.5,1.5;stroke-dashoffset:0;stroke-width:1.5;"/>
   </g>
   <g id="line2d_85"/>
   <g id="text_39">
    <!-- AHR-A (19) -->
    <g transform="translate(361.8625 256.448437)scale(0.1 -0.1)">
     <use xlink:href="#DejaVuSans-65"/>
     <use x="68.408203" xlink:href="#DejaVuSans-72"/>
     <use x="143.603516" xlink:href="#DejaVuSans-82"/>
     <use x="213.023438" xlink:href="#DejaVuSans-45"/>
     <use x="249.076172" xlink:href="#DejaVuSans-65"/>
     <use x="317.484375" xlink:href="#DejaVuSans-32"/>
     <use x="349.271484" xlink:href="#DejaVuSans-40"/>
     <use x="388.285156" xlink:href="#DejaVuSans-49"/>
     <use x="451.908203" xlink:href="#DejaVuSans-57"/>
     <use x="515.53125" xlink:href="#DejaVuSans-41"/>
    </g>
   </g>
  </g>
 </g>
 <defs>
  <clipPath id="p7a88b0b809">
   <rect height="207.330771" width="271.81" x="43.55" y="12.9"/>
  </clipPath>
 </defs>
</svg>
