<?xml version="1.0" encoding="utf-8" standalone="no"?>
<!DOCTYPE svg PUBLIC "-//W3C//DTD SVG 1.1//EN"
  "http://www.w3.org/Graphics/SVG/1.1/DTD/svg11.dtd">
<!-- Created with matplotlib (https://matplotlib.org/) -->
<svg height="288pt" version="1.1" viewBox="0 0 432 288" width="432pt" xmlns="http://www.w3.org/2000/svg" xmlns:xlink="http://www.w3.org/1999/xlink">
 <defs>
  <style type="text/css">
*{stroke-linecap:butt;stroke-linejoin:round;}
  </style>
 </defs>
 <g id="figure_1">
  <g id="patch_1">
   <path d="M 0 288 
L 432 288 
L 432 0 
L 0 0 
z
" style="fill:#ffffff;"/>
  </g>
  <g id="axes_1">
   <g id="patch_2">
    <path d="M 43.55 220.230771 
L 315.36 220.230771 
L 315.36 12.9 
L 43.55 12.9 
z
" style="fill:#ffffff;"/>
   </g>
   <g id="matplotlib.axis_1">
    <g id="xtick_1">
     <g id="line2d_1">
      <defs>
       <path d="M 0 0 
L 0 3.5 
" id="m3424f50dda" style="stroke:#000000;stroke-width:0.8;"/>
      </defs>
      <g>
       <use style="stroke:#000000;stroke-width:0.8;" x="46.194969" xlink:href="#m3424f50dda" y="220.230771"/>
      </g>
     </g>
     <g id="text_1">
      <!-- 2020-11-29 -->
      <defs>
       <path d="M 19.1875 8.296875 
L 53.609375 8.296875 
L 53.609375 0 
L 7.328125 0 
L 7.328125 8.296875 
Q 12.9375 14.109375 22.625 23.890625 
Q 32.328125 33.6875 34.8125 36.53125 
Q 39.546875 41.84375 41.421875 45.53125 
Q 43.3125 49.21875 43.3125 52.78125 
Q 43.3125 58.59375 39.234375 62.25 
Q 35.15625 65.921875 28.609375 65.921875 
Q 23.96875 65.921875 18.8125 64.3125 
Q 13.671875 62.703125 7.8125 59.421875 
L 7.8125 69.390625 
Q 13.765625 71.78125 18.9375 73 
Q 24.125 74.21875 28.421875 74.21875 
Q 39.75 74.21875 46.484375 68.546875 
Q 53.21875 62.890625 53.21875 53.421875 
Q 53.21875 48.921875 51.53125 44.890625 
Q 49.859375 40.875 45.40625 35.40625 
Q 44.1875 33.984375 37.640625 27.21875 
Q 31.109375 20.453125 19.1875 8.296875 
z
" id="DejaVuSans-50"/>
       <path d="M 31.78125 66.40625 
Q 24.171875 66.40625 20.328125 58.90625 
Q 16.5 51.421875 16.5 36.375 
Q 16.5 21.390625 20.328125 13.890625 
Q 24.171875 6.390625 31.78125 6.390625 
Q 39.453125 6.390625 43.28125 13.890625 
Q 47.125 21.390625 47.125 36.375 
Q 47.125 51.421875 43.28125 58.90625 
Q 39.453125 66.40625 31.78125 66.40625 
z
M 31.78125 74.21875 
Q 44.046875 74.21875 50.515625 64.515625 
Q 56.984375 54.828125 56.984375 36.375 
Q 56.984375 17.96875 50.515625 8.265625 
Q 44.046875 -1.421875 31.78125 -1.421875 
Q 19.53125 -1.421875 13.0625 8.265625 
Q 6.59375 17.96875 6.59375 36.375 
Q 6.59375 54.828125 13.0625 64.515625 
Q 19.53125 74.21875 31.78125 74.21875 
z
" id="DejaVuSans-48"/>
       <path d="M 4.890625 31.390625 
L 31.203125 31.390625 
L 31.203125 23.390625 
L 4.890625 23.390625 
z
" id="DejaVuSans-45"/>
       <path d="M 12.40625 8.296875 
L 28.515625 8.296875 
L 28.515625 63.921875 
L 10.984375 60.40625 
L 10.984375 69.390625 
L 28.421875 72.90625 
L 38.28125 72.90625 
L 38.28125 8.296875 
L 54.390625 8.296875 
L 54.390625 0 
L 12.40625 0 
z
" id="DejaVuSans-49"/>
       <path d="M 10.984375 1.515625 
L 10.984375 10.5 
Q 14.703125 8.734375 18.5 7.8125 
Q 22.3125 6.890625 25.984375 6.890625 
Q 35.75 6.890625 40.890625 13.453125 
Q 46.046875 20.015625 46.78125 33.40625 
Q 43.953125 29.203125 39.59375 26.953125 
Q 35.25 24.703125 29.984375 24.703125 
Q 19.046875 24.703125 12.671875 31.3125 
Q 6.296875 37.9375 6.296875 49.421875 
Q 6.296875 60.640625 12.9375 67.421875 
Q 19.578125 74.21875 30.609375 74.21875 
Q 43.265625 74.21875 49.921875 64.515625 
Q 56.59375 54.828125 56.59375 36.375 
Q 56.59375 19.140625 48.40625 8.859375 
Q 40.234375 -1.421875 26.421875 -1.421875 
Q 22.703125 -1.421875 18.890625 -0.6875 
Q 15.09375 0.046875 10.984375 1.515625 
z
M 30.609375 32.421875 
Q 37.25 32.421875 41.125 36.953125 
Q 45.015625 41.5 45.015625 49.421875 
Q 45.015625 57.28125 41.125 61.84375 
Q 37.25 66.40625 30.609375 66.40625 
Q 23.96875 66.40625 20.09375 61.84375 
Q 16.21875 57.28125 16.21875 49.421875 
Q 16.21875 41.5 20.09375 36.953125 
Q 23.96875 32.421875 30.609375 32.421875 
z
" id="DejaVuSans-57"/>
      </defs>
      <g transform="translate(22.409853 262.869024)rotate(-30)scale(0.1 -0.1)">
       <use xlink:href="#DejaVuSans-50"/>
       <use x="63.623047" xlink:href="#DejaVuSans-48"/>
       <use x="127.246094" xlink:href="#DejaVuSans-50"/>
       <use x="190.869141" xlink:href="#DejaVuSans-48"/>
       <use x="254.492188" xlink:href="#DejaVuSans-45"/>
       <use x="290.576172" xlink:href="#DejaVuSans-49"/>
       <use x="354.199219" xlink:href="#DejaVuSans-49"/>
       <use x="417.822266" xlink:href="#DejaVuSans-45"/>
       <use x="453.90625" xlink:href="#DejaVuSans-50"/>
       <use x="517.529297" xlink:href="#DejaVuSans-57"/>
      </g>
     </g>
    </g>
    <g id="xtick_2">
     <g id="line2d_2">
      <g>
       <use style="stroke:#000000;stroke-width:0.8;" x="59.604656" xlink:href="#m3424f50dda" y="220.230771"/>
      </g>
     </g>
     <g id="text_2">
      <!-- 2020-12-01 -->
      <g transform="translate(35.819539 262.869024)rotate(-30)scale(0.1 -0.1)">
       <use xlink:href="#DejaVuSans-50"/>
       <use x="63.623047" xlink:href="#DejaVuSans-48"/>
       <use x="127.246094" xlink:href="#DejaVuSans-50"/>
       <use x="190.869141" xlink:href="#DejaVuSans-48"/>
       <use x="254.492188" xlink:href="#DejaVuSans-45"/>
       <use x="290.576172" xlink:href="#DejaVuSans-49"/>
       <use x="354.199219" xlink:href="#DejaVuSans-50"/>
       <use x="417.822266" xlink:href="#DejaVuSans-45"/>
       <use x="453.90625" xlink:href="#DejaVuSans-48"/>
       <use x="517.529297" xlink:href="#DejaVuSans-49"/>
      </g>
     </g>
    </g>
    <g id="xtick_3">
     <g id="line2d_3">
      <g>
       <use style="stroke:#000000;stroke-width:0.8;" x="86.424029" xlink:href="#m3424f50dda" y="220.230771"/>
      </g>
     </g>
     <g id="text_3">
      <!-- 2020-12-05 -->
      <defs>
       <path d="M 10.796875 72.90625 
L 49.515625 72.90625 
L 49.515625 64.59375 
L 19.828125 64.59375 
L 19.828125 46.734375 
Q 21.96875 47.46875 24.109375 47.828125 
Q 26.265625 48.1875 28.421875 48.1875 
Q 40.625 48.1875 47.75 41.5 
Q 54.890625 34.8125 54.890625 23.390625 
Q 54.890625 11.625 47.5625 5.09375 
Q 40.234375 -1.421875 26.90625 -1.421875 
Q 22.3125 -1.421875 17.546875 -0.640625 
Q 12.796875 0.140625 7.71875 1.703125 
L 7.71875 11.625 
Q 12.109375 9.234375 16.796875 8.0625 
Q 21.484375 6.890625 26.703125 6.890625 
Q 35.15625 6.890625 40.078125 11.328125 
Q 45.015625 15.765625 45.015625 23.390625 
Q 45.015625 31 40.078125 35.4375 
Q 35.15625 39.890625 26.703125 39.890625 
Q 22.75 39.890625 18.8125 39.015625 
Q 14.890625 38.140625 10.796875 36.28125 
z
" id="DejaVuSans-53"/>
      </defs>
      <g transform="translate(62.638912 262.869024)rotate(-30)scale(0.1 -0.1)">
       <use xlink:href="#DejaVuSans-50"/>
       <use x="63.623047" xlink:href="#DejaVuSans-48"/>
       <use x="127.246094" xlink:href="#DejaVuSans-50"/>
       <use x="190.869141" xlink:href="#DejaVuSans-48"/>
       <use x="254.492188" xlink:href="#DejaVuSans-45"/>
       <use x="290.576172" xlink:href="#DejaVuSans-49"/>
       <use x="354.199219" xlink:href="#DejaVuSans-50"/>
       <use x="417.822266" xlink:href="#DejaVuSans-45"/>
       <use x="453.90625" xlink:href="#DejaVuSans-48"/>
       <use x="517.529297" xlink:href="#DejaVuSans-53"/>
      </g>
     </g>
    </g>
    <g id="xtick_4">
     <g id="line2d_4">
      <g>
       <use style="stroke:#000000;stroke-width:0.8;" x="113.243402" xlink:href="#m3424f50dda" y="220.230771"/>
      </g>
     </g>
     <g id="text_4">
      <!-- 2020-12-09 -->
      <g transform="translate(89.458285 262.869024)rotate(-30)scale(0.1 -0.1)">
       <use xlink:href="#DejaVuSans-50"/>
       <use x="63.623047" xlink:href="#DejaVuSans-48"/>
       <use x="127.246094" xlink:href="#DejaVuSans-50"/>
       <use x="190.869141" xlink:href="#DejaVuSans-48"/>
       <use x="254.492188" xlink:href="#DejaVuSans-45"/>
       <use x="290.576172" xlink:href="#DejaVuSans-49"/>
       <use x="354.199219" xlink:href="#DejaVuSans-50"/>
       <use x="417.822266" xlink:href="#DejaVuSans-45"/>
       <use x="453.90625" xlink:href="#DejaVuSans-48"/>
       <use x="517.529297" xlink:href="#DejaVuSans-57"/>
      </g>
     </g>
    </g>
    <g id="xtick_5">
     <g id="line2d_5">
      <g>
       <use style="stroke:#000000;stroke-width:0.8;" x="140.062775" xlink:href="#m3424f50dda" y="220.230771"/>
      </g>
     </g>
     <g id="text_5">
      <!-- 2020-12-13 -->
      <defs>
       <path d="M 40.578125 39.3125 
Q 47.65625 37.796875 51.625 33 
Q 55.609375 28.21875 55.609375 21.1875 
Q 55.609375 10.40625 48.1875 4.484375 
Q 40.765625 -1.421875 27.09375 -1.421875 
Q 22.515625 -1.421875 17.65625 -0.515625 
Q 12.796875 0.390625 7.625 2.203125 
L 7.625 11.71875 
Q 11.71875 9.328125 16.59375 8.109375 
Q 21.484375 6.890625 26.8125 6.890625 
Q 36.078125 6.890625 40.9375 10.546875 
Q 45.796875 14.203125 45.796875 21.1875 
Q 45.796875 27.640625 41.28125 31.265625 
Q 36.765625 34.90625 28.71875 34.90625 
L 20.21875 34.90625 
L 20.21875 43.015625 
L 29.109375 43.015625 
Q 36.375 43.015625 40.234375 45.921875 
Q 44.09375 48.828125 44.09375 54.296875 
Q 44.09375 59.90625 40.109375 62.90625 
Q 36.140625 65.921875 28.71875 65.921875 
Q 24.65625 65.921875 20.015625 65.03125 
Q 15.375 64.15625 9.8125 62.3125 
L 9.8125 71.09375 
Q 15.4375 72.65625 20.34375 73.4375 
Q 25.25 74.21875 29.59375 74.21875 
Q 40.828125 74.21875 47.359375 69.109375 
Q 53.90625 64.015625 53.90625 55.328125 
Q 53.90625 49.265625 50.4375 45.09375 
Q 46.96875 40.921875 40.578125 39.3125 
z
" id="DejaVuSans-51"/>
      </defs>
      <g transform="translate(116.277658 262.869024)rotate(-30)scale(0.1 -0.1)">
       <use xlink:href="#DejaVuSans-50"/>
       <use x="63.623047" xlink:href="#DejaVuSans-48"/>
       <use x="127.246094" xlink:href="#DejaVuSans-50"/>
       <use x="190.869141" xlink:href="#DejaVuSans-48"/>
       <use x="254.492188" xlink:href="#DejaVuSans-45"/>
       <use x="290.576172" xlink:href="#DejaVuSans-49"/>
       <use x="354.199219" xlink:href="#DejaVuSans-50"/>
       <use x="417.822266" xlink:href="#DejaVuSans-45"/>
       <use x="453.90625" xlink:href="#DejaVuSans-49"/>
       <use x="517.529297" xlink:href="#DejaVuSans-51"/>
      </g>
     </g>
    </g>
    <g id="xtick_6">
     <g id="line2d_6">
      <g>
       <use style="stroke:#000000;stroke-width:0.8;" x="166.882148" xlink:href="#m3424f50dda" y="220.230771"/>
      </g>
     </g>
     <g id="text_6">
      <!-- 2020-12-17 -->
      <defs>
       <path d="M 8.203125 72.90625 
L 55.078125 72.90625 
L 55.078125 68.703125 
L 28.609375 0 
L 18.3125 0 
L 43.21875 64.59375 
L 8.203125 64.59375 
z
" id="DejaVuSans-55"/>
      </defs>
      <g transform="translate(143.097031 262.869024)rotate(-30)scale(0.1 -0.1)">
       <use xlink:href="#DejaVuSans-50"/>
       <use x="63.623047" xlink:href="#DejaVuSans-48"/>
       <use x="127.246094" xlink:href="#DejaVuSans-50"/>
       <use x="190.869141" xlink:href="#DejaVuSans-48"/>
       <use x="254.492188" xlink:href="#DejaVuSans-45"/>
       <use x="290.576172" xlink:href="#DejaVuSans-49"/>
       <use x="354.199219" xlink:href="#DejaVuSans-50"/>
       <use x="417.822266" xlink:href="#DejaVuSans-45"/>
       <use x="453.90625" xlink:href="#DejaVuSans-49"/>
       <use x="517.529297" xlink:href="#DejaVuSans-55"/>
      </g>
     </g>
    </g>
    <g id="xtick_7">
     <g id="line2d_7">
      <g>
       <use style="stroke:#000000;stroke-width:0.8;" x="193.701521" xlink:href="#m3424f50dda" y="220.230771"/>
      </g>
     </g>
     <g id="text_7">
      <!-- 2020-12-21 -->
      <g transform="translate(169.916404 262.869024)rotate(-30)scale(0.1 -0.1)">
       <use xlink:href="#DejaVuSans-50"/>
       <use x="63.623047" xlink:href="#DejaVuSans-48"/>
       <use x="127.246094" xlink:href="#DejaVuSans-50"/>
       <use x="190.869141" xlink:href="#DejaVuSans-48"/>
       <use x="254.492188" xlink:href="#DejaVuSans-45"/>
       <use x="290.576172" xlink:href="#DejaVuSans-49"/>
       <use x="354.199219" xlink:href="#DejaVuSans-50"/>
       <use x="417.822266" xlink:href="#DejaVuSans-45"/>
       <use x="453.90625" xlink:href="#DejaVuSans-50"/>
       <use x="517.529297" xlink:href="#DejaVuSans-49"/>
      </g>
     </g>
    </g>
    <g id="xtick_8">
     <g id="line2d_8">
      <g>
       <use style="stroke:#000000;stroke-width:0.8;" x="220.520894" xlink:href="#m3424f50dda" y="220.230771"/>
      </g>
     </g>
     <g id="text_8">
      <!-- 2020-12-25 -->
      <g transform="translate(196.735777 262.869024)rotate(-30)scale(0.1 -0.1)">
       <use xlink:href="#DejaVuSans-50"/>
       <use x="63.623047" xlink:href="#DejaVuSans-48"/>
       <use x="127.246094" xlink:href="#DejaVuSans-50"/>
       <use x="190.869141" xlink:href="#DejaVuSans-48"/>
       <use x="254.492188" xlink:href="#DejaVuSans-45"/>
       <use x="290.576172" xlink:href="#DejaVuSans-49"/>
       <use x="354.199219" xlink:href="#DejaVuSans-50"/>
       <use x="417.822266" xlink:href="#DejaVuSans-45"/>
       <use x="453.90625" xlink:href="#DejaVuSans-50"/>
       <use x="517.529297" xlink:href="#DejaVuSans-53"/>
      </g>
     </g>
    </g>
    <g id="xtick_9">
     <g id="line2d_9">
      <g>
       <use style="stroke:#000000;stroke-width:0.8;" x="247.340267" xlink:href="#m3424f50dda" y="220.230771"/>
      </g>
     </g>
     <g id="text_9">
      <!-- 2020-12-29 -->
      <g transform="translate(223.55515 262.869024)rotate(-30)scale(0.1 -0.1)">
       <use xlink:href="#DejaVuSans-50"/>
       <use x="63.623047" xlink:href="#DejaVuSans-48"/>
       <use x="127.246094" xlink:href="#DejaVuSans-50"/>
       <use x="190.869141" xlink:href="#DejaVuSans-48"/>
       <use x="254.492188" xlink:href="#DejaVuSans-45"/>
       <use x="290.576172" xlink:href="#DejaVuSans-49"/>
       <use x="354.199219" xlink:href="#DejaVuSans-50"/>
       <use x="417.822266" xlink:href="#DejaVuSans-45"/>
       <use x="453.90625" xlink:href="#DejaVuSans-50"/>
       <use x="517.529297" xlink:href="#DejaVuSans-57"/>
      </g>
     </g>
    </g>
    <g id="xtick_10">
     <g id="line2d_10">
      <g>
       <use style="stroke:#000000;stroke-width:0.8;" x="267.454797" xlink:href="#m3424f50dda" y="220.230771"/>
      </g>
     </g>
     <g id="text_10">
      <!-- 2021-01-01 -->
      <g transform="translate(243.66968 262.869024)rotate(-30)scale(0.1 -0.1)">
       <use xlink:href="#DejaVuSans-50"/>
       <use x="63.623047" xlink:href="#DejaVuSans-48"/>
       <use x="127.246094" xlink:href="#DejaVuSans-50"/>
       <use x="190.869141" xlink:href="#DejaVuSans-49"/>
       <use x="254.492188" xlink:href="#DejaVuSans-45"/>
       <use x="290.576172" xlink:href="#DejaVuSans-48"/>
       <use x="354.199219" xlink:href="#DejaVuSans-49"/>
       <use x="417.822266" xlink:href="#DejaVuSans-45"/>
       <use x="453.90625" xlink:href="#DejaVuSans-48"/>
       <use x="517.529297" xlink:href="#DejaVuSans-49"/>
      </g>
     </g>
    </g>
    <g id="xtick_11">
     <g id="line2d_11">
      <g>
       <use style="stroke:#000000;stroke-width:0.8;" x="294.27417" xlink:href="#m3424f50dda" y="220.230771"/>
      </g>
     </g>
     <g id="text_11">
      <!-- 2021-01-05 -->
      <g transform="translate(270.489053 262.869024)rotate(-30)scale(0.1 -0.1)">
       <use xlink:href="#DejaVuSans-50"/>
       <use x="63.623047" xlink:href="#DejaVuSans-48"/>
       <use x="127.246094" xlink:href="#DejaVuSans-50"/>
       <use x="190.869141" xlink:href="#DejaVuSans-49"/>
       <use x="254.492188" xlink:href="#DejaVuSans-45"/>
       <use x="290.576172" xlink:href="#DejaVuSans-48"/>
       <use x="354.199219" xlink:href="#DejaVuSans-49"/>
       <use x="417.822266" xlink:href="#DejaVuSans-45"/>
       <use x="453.90625" xlink:href="#DejaVuSans-48"/>
       <use x="517.529297" xlink:href="#DejaVuSans-53"/>
      </g>
     </g>
    </g>
    <g id="text_12">
     <!-- Date -->
     <defs>
      <path d="M 19.671875 64.796875 
L 19.671875 8.109375 
L 31.59375 8.109375 
Q 46.6875 8.109375 53.6875 14.9375 
Q 60.6875 21.78125 60.6875 36.53125 
Q 60.6875 51.171875 53.6875 57.984375 
Q 46.6875 64.796875 31.59375 64.796875 
z
M 9.8125 72.90625 
L 30.078125 72.90625 
Q 51.265625 72.90625 61.171875 64.09375 
Q 71.09375 55.28125 71.09375 36.53125 
Q 71.09375 17.671875 61.125 8.828125 
Q 51.171875 0 30.078125 0 
L 9.8125 0 
z
" id="DejaVuSans-68"/>
      <path d="M 34.28125 27.484375 
Q 23.390625 27.484375 19.1875 25 
Q 14.984375 22.515625 14.984375 16.5 
Q 14.984375 11.71875 18.140625 8.90625 
Q 21.296875 6.109375 26.703125 6.109375 
Q 34.1875 6.109375 38.703125 11.40625 
Q 43.21875 16.703125 43.21875 25.484375 
L 43.21875 27.484375 
z
M 52.203125 31.203125 
L 52.203125 0 
L 43.21875 0 
L 43.21875 8.296875 
Q 40.140625 3.328125 35.546875 0.953125 
Q 30.953125 -1.421875 24.3125 -1.421875 
Q 15.921875 -1.421875 10.953125 3.296875 
Q 6 8.015625 6 15.921875 
Q 6 25.140625 12.171875 29.828125 
Q 18.359375 34.515625 30.609375 34.515625 
L 43.21875 34.515625 
L 43.21875 35.40625 
Q 43.21875 41.609375 39.140625 45 
Q 35.0625 48.390625 27.6875 48.390625 
Q 23 48.390625 18.546875 47.265625 
Q 14.109375 46.140625 10.015625 43.890625 
L 10.015625 52.203125 
Q 14.9375 54.109375 19.578125 55.046875 
Q 24.21875 56 28.609375 56 
Q 40.484375 56 46.34375 49.84375 
Q 52.203125 43.703125 52.203125 31.203125 
z
" id="DejaVuSans-97"/>
      <path d="M 18.3125 70.21875 
L 18.3125 54.6875 
L 36.8125 54.6875 
L 36.8125 47.703125 
L 18.3125 47.703125 
L 18.3125 18.015625 
Q 18.3125 11.328125 20.140625 9.421875 
Q 21.96875 7.515625 27.59375 7.515625 
L 36.8125 7.515625 
L 36.8125 0 
L 27.59375 0 
Q 17.1875 0 13.234375 3.875 
Q 9.28125 7.765625 9.28125 18.015625 
L 9.28125 47.703125 
L 2.6875 47.703125 
L 2.6875 54.6875 
L 9.28125 54.6875 
L 9.28125 70.21875 
z
" id="DejaVuSans-116"/>
      <path d="M 56.203125 29.59375 
L 56.203125 25.203125 
L 14.890625 25.203125 
Q 15.484375 15.921875 20.484375 11.0625 
Q 25.484375 6.203125 34.421875 6.203125 
Q 39.59375 6.203125 44.453125 7.46875 
Q 49.3125 8.734375 54.109375 11.28125 
L 54.109375 2.78125 
Q 49.265625 0.734375 44.1875 -0.34375 
Q 39.109375 -1.421875 33.890625 -1.421875 
Q 20.796875 -1.421875 13.15625 6.1875 
Q 5.515625 13.8125 5.515625 26.8125 
Q 5.515625 40.234375 12.765625 48.109375 
Q 20.015625 56 32.328125 56 
Q 43.359375 56 49.78125 48.890625 
Q 56.203125 41.796875 56.203125 29.59375 
z
M 47.21875 32.234375 
Q 47.125 39.59375 43.09375 43.984375 
Q 39.0625 48.390625 32.421875 48.390625 
Q 24.90625 48.390625 20.390625 44.140625 
Q 15.875 39.890625 15.1875 32.171875 
z
" id="DejaVuSans-101"/>
     </defs>
     <g transform="translate(167.504219 276.268523)scale(0.1 -0.1)">
      <use xlink:href="#DejaVuSans-68"/>
      <use x="77.001953" xlink:href="#DejaVuSans-97"/>
      <use x="138.28125" xlink:href="#DejaVuSans-116"/>
      <use x="177.490234" xlink:href="#DejaVuSans-101"/>
     </g>
    </g>
   </g>
   <g id="matplotlib.axis_2">
    <g id="ytick_1">
     <g id="line2d_12">
      <defs>
       <path d="M 0 0 
L -3.5 0 
" id="mf336a3aacc" style="stroke:#000000;stroke-width:0.8;"/>
      </defs>
      <g>
       <use style="stroke:#000000;stroke-width:0.8;" x="43.55" xlink:href="#mf336a3aacc" y="210.806645"/>
      </g>
     </g>
     <g id="text_13">
      <!-- 0 -->
      <g transform="translate(30.1875 214.605864)scale(0.1 -0.1)">
       <use xlink:href="#DejaVuSans-48"/>
      </g>
     </g>
    </g>
    <g id="ytick_2">
     <g id="line2d_13">
      <g>
       <use style="stroke:#000000;stroke-width:0.8;" x="43.55" xlink:href="#mf336a3aacc" y="187.24633"/>
      </g>
     </g>
     <g id="text_14">
      <!-- 5 -->
      <g transform="translate(30.1875 191.045549)scale(0.1 -0.1)">
       <use xlink:href="#DejaVuSans-53"/>
      </g>
     </g>
    </g>
    <g id="ytick_3">
     <g id="line2d_14">
      <g>
       <use style="stroke:#000000;stroke-width:0.8;" x="43.55" xlink:href="#mf336a3aacc" y="163.686016"/>
      </g>
     </g>
     <g id="text_15">
      <!-- 10 -->
      <g transform="translate(23.825 167.485234)scale(0.1 -0.1)">
       <use xlink:href="#DejaVuSans-49"/>
       <use x="63.623047" xlink:href="#DejaVuSans-48"/>
      </g>
     </g>
    </g>
    <g id="ytick_4">
     <g id="line2d_15">
      <g>
       <use style="stroke:#000000;stroke-width:0.8;" x="43.55" xlink:href="#mf336a3aacc" y="140.125701"/>
      </g>
     </g>
     <g id="text_16">
      <!-- 15 -->
      <g transform="translate(23.825 143.924919)scale(0.1 -0.1)">
       <use xlink:href="#DejaVuSans-49"/>
       <use x="63.623047" xlink:href="#DejaVuSans-53"/>
      </g>
     </g>
    </g>
    <g id="ytick_5">
     <g id="line2d_16">
      <g>
       <use style="stroke:#000000;stroke-width:0.8;" x="43.55" xlink:href="#mf336a3aacc" y="116.565386"/>
      </g>
     </g>
     <g id="text_17">
      <!-- 20 -->
      <g transform="translate(23.825 120.364604)scale(0.1 -0.1)">
       <use xlink:href="#DejaVuSans-50"/>
       <use x="63.623047" xlink:href="#DejaVuSans-48"/>
      </g>
     </g>
    </g>
    <g id="ytick_6">
     <g id="line2d_17">
      <g>
       <use style="stroke:#000000;stroke-width:0.8;" x="43.55" xlink:href="#mf336a3aacc" y="93.005071"/>
      </g>
     </g>
     <g id="text_18">
      <!-- 25 -->
      <g transform="translate(23.825 96.80429)scale(0.1 -0.1)">
       <use xlink:href="#DejaVuSans-50"/>
       <use x="63.623047" xlink:href="#DejaVuSans-53"/>
      </g>
     </g>
    </g>
    <g id="ytick_7">
     <g id="line2d_18">
      <g>
       <use style="stroke:#000000;stroke-width:0.8;" x="43.55" xlink:href="#mf336a3aacc" y="69.444756"/>
      </g>
     </g>
     <g id="text_19">
      <!-- 30 -->
      <g transform="translate(23.825 73.243975)scale(0.1 -0.1)">
       <use xlink:href="#DejaVuSans-51"/>
       <use x="63.623047" xlink:href="#DejaVuSans-48"/>
      </g>
     </g>
    </g>
    <g id="ytick_8">
     <g id="line2d_19">
      <g>
       <use style="stroke:#000000;stroke-width:0.8;" x="43.55" xlink:href="#mf336a3aacc" y="45.884441"/>
      </g>
     </g>
     <g id="text_20">
      <!-- 35 -->
      <g transform="translate(23.825 49.68366)scale(0.1 -0.1)">
       <use xlink:href="#DejaVuSans-51"/>
       <use x="63.623047" xlink:href="#DejaVuSans-53"/>
      </g>
     </g>
    </g>
    <g id="ytick_9">
     <g id="line2d_20">
      <g>
       <use style="stroke:#000000;stroke-width:0.8;" x="43.55" xlink:href="#mf336a3aacc" y="22.324126"/>
      </g>
     </g>
     <g id="text_21">
      <!-- 40 -->
      <defs>
       <path d="M 37.796875 64.3125 
L 12.890625 25.390625 
L 37.796875 25.390625 
z
M 35.203125 72.90625 
L 47.609375 72.90625 
L 47.609375 25.390625 
L 58.015625 25.390625 
L 58.015625 17.1875 
L 47.609375 17.1875 
L 47.609375 0 
L 37.796875 0 
L 37.796875 17.1875 
L 4.890625 17.1875 
L 4.890625 26.703125 
z
" id="DejaVuSans-52"/>
      </defs>
      <g transform="translate(23.825 26.123345)scale(0.1 -0.1)">
       <use xlink:href="#DejaVuSans-52"/>
       <use x="63.623047" xlink:href="#DejaVuSans-48"/>
      </g>
     </g>
    </g>
    <g id="text_22">
     <!-- Students Registered -->
     <defs>
      <path d="M 53.515625 70.515625 
L 53.515625 60.890625 
Q 47.90625 63.578125 42.921875 64.890625 
Q 37.9375 66.21875 33.296875 66.21875 
Q 25.25 66.21875 20.875 63.09375 
Q 16.5 59.96875 16.5 54.203125 
Q 16.5 49.359375 19.40625 46.890625 
Q 22.3125 44.4375 30.421875 42.921875 
L 36.375 41.703125 
Q 47.40625 39.59375 52.65625 34.296875 
Q 57.90625 29 57.90625 20.125 
Q 57.90625 9.515625 50.796875 4.046875 
Q 43.703125 -1.421875 29.984375 -1.421875 
Q 24.8125 -1.421875 18.96875 -0.25 
Q 13.140625 0.921875 6.890625 3.21875 
L 6.890625 13.375 
Q 12.890625 10.015625 18.65625 8.296875 
Q 24.421875 6.59375 29.984375 6.59375 
Q 38.421875 6.59375 43.015625 9.90625 
Q 47.609375 13.234375 47.609375 19.390625 
Q 47.609375 24.75 44.3125 27.78125 
Q 41.015625 30.8125 33.5 32.328125 
L 27.484375 33.5 
Q 16.453125 35.6875 11.515625 40.375 
Q 6.59375 45.0625 6.59375 53.421875 
Q 6.59375 63.09375 13.40625 68.65625 
Q 20.21875 74.21875 32.171875 74.21875 
Q 37.3125 74.21875 42.625 73.28125 
Q 47.953125 72.359375 53.515625 70.515625 
z
" id="DejaVuSans-83"/>
      <path d="M 8.5 21.578125 
L 8.5 54.6875 
L 17.484375 54.6875 
L 17.484375 21.921875 
Q 17.484375 14.15625 20.5 10.265625 
Q 23.53125 6.390625 29.59375 6.390625 
Q 36.859375 6.390625 41.078125 11.03125 
Q 45.3125 15.671875 45.3125 23.6875 
L 45.3125 54.6875 
L 54.296875 54.6875 
L 54.296875 0 
L 45.3125 0 
L 45.3125 8.40625 
Q 42.046875 3.421875 37.71875 1 
Q 33.40625 -1.421875 27.6875 -1.421875 
Q 18.265625 -1.421875 13.375 4.4375 
Q 8.5 10.296875 8.5 21.578125 
z
M 31.109375 56 
z
" id="DejaVuSans-117"/>
      <path d="M 45.40625 46.390625 
L 45.40625 75.984375 
L 54.390625 75.984375 
L 54.390625 0 
L 45.40625 0 
L 45.40625 8.203125 
Q 42.578125 3.328125 38.25 0.953125 
Q 33.9375 -1.421875 27.875 -1.421875 
Q 17.96875 -1.421875 11.734375 6.484375 
Q 5.515625 14.40625 5.515625 27.296875 
Q 5.515625 40.1875 11.734375 48.09375 
Q 17.96875 56 27.875 56 
Q 33.9375 56 38.25 53.625 
Q 42.578125 51.265625 45.40625 46.390625 
z
M 14.796875 27.296875 
Q 14.796875 17.390625 18.875 11.75 
Q 22.953125 6.109375 30.078125 6.109375 
Q 37.203125 6.109375 41.296875 11.75 
Q 45.40625 17.390625 45.40625 27.296875 
Q 45.40625 37.203125 41.296875 42.84375 
Q 37.203125 48.484375 30.078125 48.484375 
Q 22.953125 48.484375 18.875 42.84375 
Q 14.796875 37.203125 14.796875 27.296875 
z
" id="DejaVuSans-100"/>
      <path d="M 54.890625 33.015625 
L 54.890625 0 
L 45.90625 0 
L 45.90625 32.71875 
Q 45.90625 40.484375 42.875 44.328125 
Q 39.84375 48.1875 33.796875 48.1875 
Q 26.515625 48.1875 22.3125 43.546875 
Q 18.109375 38.921875 18.109375 30.90625 
L 18.109375 0 
L 9.078125 0 
L 9.078125 54.6875 
L 18.109375 54.6875 
L 18.109375 46.1875 
Q 21.34375 51.125 25.703125 53.5625 
Q 30.078125 56 35.796875 56 
Q 45.21875 56 50.046875 50.171875 
Q 54.890625 44.34375 54.890625 33.015625 
z
" id="DejaVuSans-110"/>
      <path d="M 44.28125 53.078125 
L 44.28125 44.578125 
Q 40.484375 46.53125 36.375 47.5 
Q 32.28125 48.484375 27.875 48.484375 
Q 21.1875 48.484375 17.84375 46.4375 
Q 14.5 44.390625 14.5 40.28125 
Q 14.5 37.15625 16.890625 35.375 
Q 19.28125 33.59375 26.515625 31.984375 
L 29.59375 31.296875 
Q 39.15625 29.25 43.1875 25.515625 
Q 47.21875 21.78125 47.21875 15.09375 
Q 47.21875 7.46875 41.1875 3.015625 
Q 35.15625 -1.421875 24.609375 -1.421875 
Q 20.21875 -1.421875 15.453125 -0.5625 
Q 10.6875 0.296875 5.421875 2 
L 5.421875 11.28125 
Q 10.40625 8.6875 15.234375 7.390625 
Q 20.0625 6.109375 24.8125 6.109375 
Q 31.15625 6.109375 34.5625 8.28125 
Q 37.984375 10.453125 37.984375 14.40625 
Q 37.984375 18.0625 35.515625 20.015625 
Q 33.0625 21.96875 24.703125 23.78125 
L 21.578125 24.515625 
Q 13.234375 26.265625 9.515625 29.90625 
Q 5.8125 33.546875 5.8125 39.890625 
Q 5.8125 47.609375 11.28125 51.796875 
Q 16.75 56 26.8125 56 
Q 31.78125 56 36.171875 55.265625 
Q 40.578125 54.546875 44.28125 53.078125 
z
" id="DejaVuSans-115"/>
      <path id="DejaVuSans-32"/>
      <path d="M 44.390625 34.1875 
Q 47.5625 33.109375 50.5625 29.59375 
Q 53.5625 26.078125 56.59375 19.921875 
L 66.609375 0 
L 56 0 
L 46.6875 18.703125 
Q 43.0625 26.03125 39.671875 28.421875 
Q 36.28125 30.8125 30.421875 30.8125 
L 19.671875 30.8125 
L 19.671875 0 
L 9.8125 0 
L 9.8125 72.90625 
L 32.078125 72.90625 
Q 44.578125 72.90625 50.734375 67.671875 
Q 56.890625 62.453125 56.890625 51.90625 
Q 56.890625 45.015625 53.6875 40.46875 
Q 50.484375 35.9375 44.390625 34.1875 
z
M 19.671875 64.796875 
L 19.671875 38.921875 
L 32.078125 38.921875 
Q 39.203125 38.921875 42.84375 42.21875 
Q 46.484375 45.515625 46.484375 51.90625 
Q 46.484375 58.296875 42.84375 61.546875 
Q 39.203125 64.796875 32.078125 64.796875 
z
" id="DejaVuSans-82"/>
      <path d="M 45.40625 27.984375 
Q 45.40625 37.75 41.375 43.109375 
Q 37.359375 48.484375 30.078125 48.484375 
Q 22.859375 48.484375 18.828125 43.109375 
Q 14.796875 37.75 14.796875 27.984375 
Q 14.796875 18.265625 18.828125 12.890625 
Q 22.859375 7.515625 30.078125 7.515625 
Q 37.359375 7.515625 41.375 12.890625 
Q 45.40625 18.265625 45.40625 27.984375 
z
M 54.390625 6.78125 
Q 54.390625 -7.171875 48.1875 -13.984375 
Q 42 -20.796875 29.203125 -20.796875 
Q 24.46875 -20.796875 20.265625 -20.09375 
Q 16.0625 -19.390625 12.109375 -17.921875 
L 12.109375 -9.1875 
Q 16.0625 -11.328125 19.921875 -12.34375 
Q 23.78125 -13.375 27.78125 -13.375 
Q 36.625 -13.375 41.015625 -8.765625 
Q 45.40625 -4.15625 45.40625 5.171875 
L 45.40625 9.625 
Q 42.625 4.78125 38.28125 2.390625 
Q 33.9375 0 27.875 0 
Q 17.828125 0 11.671875 7.65625 
Q 5.515625 15.328125 5.515625 27.984375 
Q 5.515625 40.671875 11.671875 48.328125 
Q 17.828125 56 27.875 56 
Q 33.9375 56 38.28125 53.609375 
Q 42.625 51.21875 45.40625 46.390625 
L 45.40625 54.6875 
L 54.390625 54.6875 
z
" id="DejaVuSans-103"/>
      <path d="M 9.421875 54.6875 
L 18.40625 54.6875 
L 18.40625 0 
L 9.421875 0 
z
M 9.421875 75.984375 
L 18.40625 75.984375 
L 18.40625 64.59375 
L 9.421875 64.59375 
z
" id="DejaVuSans-105"/>
      <path d="M 41.109375 46.296875 
Q 39.59375 47.171875 37.8125 47.578125 
Q 36.03125 48 33.890625 48 
Q 26.265625 48 22.1875 43.046875 
Q 18.109375 38.09375 18.109375 28.8125 
L 18.109375 0 
L 9.078125 0 
L 9.078125 54.6875 
L 18.109375 54.6875 
L 18.109375 46.1875 
Q 20.953125 51.171875 25.484375 53.578125 
Q 30.03125 56 36.53125 56 
Q 37.453125 56 38.578125 55.875 
Q 39.703125 55.765625 41.0625 55.515625 
z
" id="DejaVuSans-114"/>
     </defs>
     <g transform="translate(17.745313 167.498979)rotate(-90)scale(0.1 -0.1)">
      <use xlink:href="#DejaVuSans-83"/>
      <use x="63.476562" xlink:href="#DejaVuSans-116"/>
      <use x="102.685547" xlink:href="#DejaVuSans-117"/>
      <use x="166.064453" xlink:href="#DejaVuSans-100"/>
      <use x="229.541016" xlink:href="#DejaVuSans-101"/>
      <use x="291.064453" xlink:href="#DejaVuSans-110"/>
      <use x="354.443359" xlink:href="#DejaVuSans-116"/>
      <use x="393.652344" xlink:href="#DejaVuSans-115"/>
      <use x="445.751953" xlink:href="#DejaVuSans-32"/>
      <use x="477.539062" xlink:href="#DejaVuSans-82"/>
      <use x="546.958984" xlink:href="#DejaVuSans-101"/>
      <use x="608.482422" xlink:href="#DejaVuSans-103"/>
      <use x="671.958984" xlink:href="#DejaVuSans-105"/>
      <use x="699.742188" xlink:href="#DejaVuSans-115"/>
      <use x="751.841797" xlink:href="#DejaVuSans-116"/>
      <use x="791.050781" xlink:href="#DejaVuSans-101"/>
      <use x="852.574219" xlink:href="#DejaVuSans-114"/>
      <use x="893.65625" xlink:href="#DejaVuSans-101"/>
      <use x="955.179688" xlink:href="#DejaVuSans-100"/>
     </g>
    </g>
   </g>
   <g id="line2d_21">
    <path clip-path="url(#p7c4135baf4)" d="M 114.22177 196.670456 
L 115.61855 196.670456 
L 115.61855 182.534267 
L 115.688404 182.534267 
L 115.897926 182.534267 
L 115.897926 177.822204 
L 115.967789 177.822204 
L 116.177288 177.822204 
L 116.177288 158.973953 
L 116.247132 158.973953 
L 116.736051 158.973953 
L 116.736051 144.837764 
L 116.805889 144.837764 
L 117.294777 144.837764 
L 117.294777 116.565386 
L 117.364646 116.565386 
L 117.853509 116.565386 
L 117.853509 107.14126 
L 117.923352 107.14126 
L 118.132915 107.14126 
L 118.132915 102.429197 
L 118.202755 102.429197 
L 118.412259 102.429197 
L 118.412259 97.717134 
L 118.482118 97.717134 
L 118.971042 97.717134 
L 118.971042 93.005071 
L 119.040885 93.005071 
L 122.882139 93.005071 
L 122.882139 74.156819 
L 122.952001 74.156819 
L 123.440895 74.156819 
L 123.440895 69.444756 
L 123.510771 69.444756 
L 123.999675 69.444756 
L 123.999675 60.02063 
L 124.069457 60.02063 
L 124.279044 60.02063 
L 124.279044 55.308567 
L 124.348824 55.308567 
L 124.837789 55.308567 
L 124.837789 50.596504 
L 124.907566 50.596504 
L 130.704502 50.596504 
L 130.704502 45.884441 
L 130.774296 45.884441 
L 130.983823 45.884441 
L 130.983823 41.172378 
L 131.053701 41.172378 
L 131.263206 41.172378 
L 131.263206 36.460315 
L 131.333071 36.460315 
L 132.10135 36.460315 
L 132.10135 31.748252 
L 132.171126 31.748252 
L 149.980889 31.748252 
L 149.980889 22.324126 
L 150.05078 22.324126 
L 184.343216 22.324126 
L 184.343216 27.036189 
L 184.413062 27.036189 
L 186.019426 27.036189 
L 186.019426 22.324126 
L 186.089312 22.324126 
L 210.324516 22.324126 
L 210.324516 27.036189 
L 210.394325 27.036189 
L 212.559452 27.036189 
L 212.559452 22.324126 
L 212.629264 22.324126 
L 303.005 22.324126 
L 303.005 22.324126 
" style="fill:none;stroke:#1b9e77;stroke-linecap:square;stroke-width:1.5;"/>
   </g>
   <g id="line2d_22">
    <path clip-path="url(#p7c4135baf4)" d="M 55.905 182.534267 
L 56.199349 182.534267 
L 56.199349 177.822204 
L 56.308722 177.822204 
L 57.644927 177.822204 
L 57.644927 173.110142 
L 62.114874 173.110142 
L 62.114874 168.398079 
L 62.538593 168.398079 
L 62.538593 163.686016 
L 62.608389 163.686016 
L 62.817945 163.686016 
L 62.817945 158.973953 
L 62.88782 158.973953 
L 63.656088 158.973953 
L 63.656088 144.837764 
L 63.7259 144.837764 
L 63.935396 144.837764 
L 63.935396 140.125701 
L 64.005288 140.125701 
L 69.522783 140.125701 
L 69.522783 130.701575 
L 69.592666 130.701575 
L 69.80215 130.701575 
L 69.80215 125.989512 
L 69.871963 125.989512 
L 70.081516 125.989512 
L 70.081516 130.701575 
L 70.151379 130.701575 
L 70.640298 130.701575 
L 70.640298 125.989512 
L 70.710122 125.989512 
L 70.91961 125.989512 
L 70.91961 116.565386 
L 70.98953 116.565386 
L 72.316487 116.565386 
L 72.316487 107.14126 
L 72.386305 107.14126 
L 75.389539 107.14126 
L 75.389539 102.429197 
L 75.459362 102.429197 
L 75.668901 102.429197 
L 75.668901 83.580945 
L 75.738733 83.580945 
L 75.948238 83.580945 
L 75.948238 74.156819 
L 76.018079 74.156819 
L 76.507005 74.156819 
L 76.507005 69.444756 
L 76.576853 69.444756 
L 76.786365 69.444756 
L 76.786365 64.732693 
L 76.856233 64.732693 
L 77.065741 64.732693 
L 77.065741 60.02063 
L 77.135591 60.02063 
L 77.345108 60.02063 
L 77.345108 45.884441 
L 77.414987 45.884441 
L 77.624469 45.884441 
L 77.624469 41.172378 
L 77.694337 41.172378 
L 77.903853 41.172378 
L 77.903853 36.460315 
L 77.973707 36.460315 
L 82.653079 36.460315 
L 82.653079 27.036189 
L 82.722923 27.036189 
L 82.932508 27.036189 
L 82.932508 22.324126 
L 83.002306 22.324126 
L 115.897926 22.324126 
L 115.897926 27.036189 
L 115.967789 27.036189 
L 116.177288 27.036189 
L 116.177288 22.324126 
L 116.247132 22.324126 
L 303.005 22.324126 
L 303.005 22.324126 
" style="fill:none;stroke:#d95f02;stroke-linecap:square;stroke-width:1.5;"/>
   </g>
   <g id="line2d_23">
    <path clip-path="url(#p7c4135baf4)" d="M 55.905 201.382519 
L 63.376734 201.382519 
L 63.376734 196.670456 
L 63.446523 196.670456 
L 68.964085 196.670456 
L 68.964085 191.958393 
L 69.033932 191.958393 
L 69.243442 191.958393 
L 69.243442 187.24633 
L 69.313286 187.24633 
L 69.522783 187.24633 
L 69.522783 177.822204 
L 69.592666 177.822204 
L 69.80215 177.822204 
L 69.80215 173.110142 
L 69.871963 173.110142 
L 70.081516 173.110142 
L 70.081516 168.398079 
L 70.151379 168.398079 
L 70.360888 168.398079 
L 70.360888 163.686016 
L 70.430716 163.686016 
L 70.91961 163.686016 
L 70.91961 158.973953 
L 70.98953 158.973953 
L 75.668901 158.973953 
L 75.668901 149.549827 
L 75.738733 149.549827 
L 75.948238 149.549827 
L 75.948238 144.837764 
L 76.018079 144.837764 
L 77.065741 144.837764 
L 77.065741 140.125701 
L 77.135591 140.125701 
L 77.345108 140.125701 
L 77.345108 130.701575 
L 77.414987 130.701575 
L 102.767671 130.701575 
L 102.767671 125.989512 
L 102.837443 125.989512 
L 103.047012 125.989512 
L 103.047012 121.277449 
L 103.116817 121.277449 
L 103.326397 121.277449 
L 103.326397 116.565386 
L 103.396217 116.565386 
L 103.605735 116.565386 
L 103.605735 111.853323 
L 103.675573 111.853323 
L 103.885133 111.853323 
L 103.885133 102.429197 
L 103.954958 102.429197 
L 104.164505 102.429197 
L 104.164505 97.717134 
L 104.234337 97.717134 
L 109.193101 97.717134 
L 109.262948 83.580945 
L 109.262948 83.580945 
L 109.751851 83.580945 
L 109.751851 74.156819 
L 109.821684 74.156819 
L 110.589964 74.156819 
L 110.589964 69.444756 
L 110.659795 69.444756 
L 110.869335 69.444756 
L 110.869335 60.02063 
L 110.939181 60.02063 
L 111.1487 60.02063 
L 111.1487 36.460315 
L 111.218533 36.460315 
L 111.428026 36.460315 
L 111.428026 22.324126 
L 111.497935 22.324126 
L 115.61855 22.324126 
L 115.61855 27.036189 
L 115.688404 27.036189 
L 116.177288 27.036189 
L 116.177288 22.324126 
L 116.247132 22.324126 
L 183.78446 22.324126 
L 183.78446 27.036189 
L 183.854351 27.036189 
L 184.063887 27.036189 
L 184.063887 22.324126 
L 184.13374 22.324126 
L 196.356115 22.324126 
L 196.356115 27.036189 
L 196.425887 27.036189 
L 196.914775 27.036189 
L 196.914775 22.324126 
L 196.984617 22.324126 
L 197.473532 22.324126 
L 197.473532 27.036189 
L 197.543384 27.036189 
L 198.591065 27.036189 
L 198.591065 22.324126 
L 198.660865 22.324126 
L 303.005 22.324126 
L 303.005 22.324126 
" style="fill:none;stroke:#7570b3;stroke-linecap:square;stroke-width:1.5;"/>
   </g>
   <g id="line2d_24">
    <path clip-path="url(#p7c4135baf4)" d="M 55.905 201.382519 
L 63.935396 201.382519 
L 63.935396 196.670456 
L 64.005288 196.670456 
L 69.243442 196.670456 
L 69.243442 191.958393 
L 69.313286 191.958393 
L 70.360888 191.958393 
L 70.360888 187.24633 
L 70.430716 187.24633 
L 76.227592 187.24633 
L 76.227592 177.822204 
L 76.29744 177.822204 
L 76.786365 177.822204 
L 76.786365 173.110142 
L 76.856233 173.110142 
L 77.345108 173.110142 
L 77.345108 168.398079 
L 77.414987 168.398079 
L 77.624469 168.398079 
L 77.624469 163.686016 
L 77.694337 163.686016 
L 84.049963 163.686016 
L 84.049963 158.973953 
L 84.119764 158.973953 
L 90.475433 158.973953 
L 90.475433 154.26189 
L 90.545243 154.26189 
L 102.767671 154.26189 
L 102.767671 144.837764 
L 102.837443 144.837764 
L 103.326397 144.837764 
L 103.326397 140.125701 
L 103.396217 140.125701 
L 104.723236 140.125701 
L 104.723236 135.413638 
L 104.793062 135.413638 
L 109.193101 135.413638 
L 109.193101 130.701575 
L 109.262948 130.701575 
L 110.589964 130.701575 
L 110.589964 125.989512 
L 110.659795 125.989512 
L 110.869335 125.989512 
L 110.869335 121.277449 
L 110.939181 121.277449 
L 111.1487 121.277449 
L 111.218533 107.14126 
L 111.218533 107.14126 
L 115.897926 107.14126 
L 115.897926 102.429197 
L 115.967789 102.429197 
L 116.177288 102.429197 
L 116.177288 93.005071 
L 116.247132 93.005071 
L 116.456654 93.005071 
L 116.456654 88.293008 
L 116.526502 88.293008 
L 116.736051 88.293008 
L 116.805889 74.156819 
L 116.805889 74.156819 
L 117.294777 74.156819 
L 117.294777 60.02063 
L 117.364646 60.02063 
L 117.574181 60.02063 
L 117.574181 50.596504 
L 117.644033 50.596504 
L 117.853509 50.596504 
L 117.853509 31.748252 
L 117.923352 31.748252 
L 118.132915 31.748252 
L 118.132915 27.036189 
L 118.202755 27.036189 
L 119.529769 27.036189 
L 119.529769 22.324126 
L 119.599611 22.324126 
L 196.356115 22.324126 
L 196.356115 27.036189 
L 196.425887 27.036189 
L 196.63548 27.036189 
L 196.63548 22.324126 
L 196.705319 22.324126 
L 197.194187 22.324126 
L 197.194187 27.036189 
L 197.264056 27.036189 
L 198.03226 27.036189 
L 198.03226 31.748252 
L 198.10216 31.748252 
L 198.591065 31.748252 
L 198.591065 36.460315 
L 198.660865 36.460315 
L 206.13396 36.460315 
L 206.13396 41.172378 
L 206.203837 41.172378 
L 222.61673 41.172378 
L 222.61673 36.460315 
L 222.68658 36.460315 
L 253.62659 36.460315 
L 253.62659 41.172378 
L 253.69649 41.172378 
L 264.521989 41.172378 
L 264.521989 36.460315 
L 264.591796 36.460315 
L 298.604984 36.460315 
L 298.604984 31.748252 
L 298.674766 31.748252 
L 303.005 31.748252 
L 303.005 31.748252 
" style="fill:none;stroke:#e7298a;stroke-linecap:square;stroke-width:1.5;"/>
   </g>
   <g id="line2d_25">
    <path clip-path="url(#p7c4135baf4)" d="M 55.905 210.806645 
L 56.199349 210.806645 
L 56.199349 201.382519 
L 56.308722 201.382519 
L 57.509951 201.382519 
L 57.509951 196.670456 
L 57.617052 196.670456 
L 63.935396 196.670456 
L 63.935396 191.958393 
L 64.005288 191.958393 
L 69.243442 191.958393 
L 69.243442 177.822204 
L 69.313286 177.822204 
L 69.522783 177.822204 
L 69.522783 173.110142 
L 69.592666 173.110142 
L 69.80215 173.110142 
L 69.80215 154.26189 
L 69.871963 154.26189 
L 70.081516 154.26189 
L 70.081516 149.549827 
L 70.151379 149.549827 
L 70.360888 149.549827 
L 70.360888 140.125701 
L 70.430716 140.125701 
L 70.640298 140.125701 
L 70.640298 125.989512 
L 70.710122 125.989512 
L 75.668901 125.989512 
L 75.668901 121.277449 
L 75.738733 121.277449 
L 75.948238 121.277449 
L 75.948238 116.565386 
L 76.018079 116.565386 
L 76.786365 116.565386 
L 76.786365 111.853323 
L 76.856233 111.853323 
L 77.345108 111.853323 
L 77.345108 97.717134 
L 77.414987 97.717134 
L 77.624469 97.717134 
L 77.624469 93.005071 
L 77.694337 93.005071 
L 83.211827 93.005071 
L 83.211827 88.293008 
L 83.28168 88.293008 
L 83.491186 88.293008 
L 83.491186 83.580945 
L 83.561056 83.580945 
L 84.049963 83.580945 
L 84.049963 78.868882 
L 84.119764 78.868882 
L 84.888052 78.868882 
L 84.888052 74.156819 
L 84.957931 74.156819 
L 89.637355 74.156819 
L 89.637355 69.444756 
L 89.707164 69.444756 
L 102.767671 69.444756 
L 102.767671 45.884441 
L 102.837443 45.884441 
L 103.047012 45.884441 
L 103.047012 36.460315 
L 103.116817 36.460315 
L 103.326397 36.460315 
L 103.326397 31.748252 
L 103.396217 31.748252 
L 197.473532 31.748252 
L 197.473532 36.460315 
L 197.543384 36.460315 
L 197.752891 36.460315 
L 197.752891 31.748252 
L 197.822733 31.748252 
L 212.838786 31.748252 
L 212.838786 36.460315 
L 212.908677 36.460315 
L 213.118175 36.460315 
L 213.118175 31.748252 
L 213.18804 31.748252 
L 303.005 31.748252 
L 303.005 31.748252 
" style="fill:none;stroke:#66a61e;stroke-linecap:square;stroke-width:1.5;"/>
   </g>
   <g id="line2d_26">
    <path clip-path="url(#p7c4135baf4)" d="M 55.905 191.958393 
L 69.243442 191.958393 
L 69.243442 187.24633 
L 69.313286 187.24633 
L 70.640298 187.24633 
L 70.640298 182.534267 
L 70.710122 182.534267 
L 71.199017 182.534267 
L 71.199017 177.822204 
L 71.268832 177.822204 
L 76.507005 177.822204 
L 76.507005 173.110142 
L 76.576853 173.110142 
L 77.065741 173.110142 
L 77.065741 168.398079 
L 77.135591 168.398079 
L 82.653079 168.398079 
L 82.653079 163.686016 
L 82.722923 163.686016 
L 102.488262 163.686016 
L 102.488262 154.26189 
L 102.558144 154.26189 
L 102.767671 154.26189 
L 102.767671 144.837764 
L 102.837443 144.837764 
L 103.605735 144.837764 
L 103.605735 140.125701 
L 103.675573 140.125701 
L 104.723236 140.125701 
L 104.723236 135.413638 
L 104.793062 135.413638 
L 109.751851 135.413638 
L 109.751851 130.701575 
L 109.821684 130.701575 
L 110.31054 130.701575 
L 110.31054 121.277449 
L 110.380444 121.277449 
L 110.869335 121.277449 
L 110.869335 116.565386 
L 110.939181 116.565386 
L 112.545549 116.565386 
L 112.545549 111.853323 
L 112.615377 111.853323 
L 115.61855 111.853323 
L 115.61855 107.14126 
L 115.688404 107.14126 
L 116.177288 107.14126 
L 116.177288 102.429197 
L 116.247132 102.429197 
L 116.456654 102.429197 
L 116.456654 93.005071 
L 116.526502 93.005071 
L 117.015435 93.005071 
L 117.015435 88.293008 
L 117.08528 88.293008 
L 117.294777 88.293008 
L 117.364646 74.156819 
L 117.364646 74.156819 
L 117.574181 74.156819 
L 117.574181 64.732693 
L 117.644033 64.732693 
L 118.691611 64.732693 
L 118.691611 69.444756 
L 118.761444 69.444756 
L 122.882139 69.444756 
L 122.882139 60.02063 
L 122.952001 60.02063 
L 123.161576 60.02063 
L 123.161576 55.308567 
L 123.231348 55.308567 
L 123.720273 55.308567 
L 123.720273 50.596504 
L 123.790126 50.596504 
L 123.999675 50.596504 
L 123.999675 41.172378 
L 124.069457 41.172378 
L 124.279044 41.172378 
L 124.279044 36.460315 
L 124.348824 36.460315 
L 124.837789 36.460315 
L 124.837789 31.748252 
L 124.907566 31.748252 
L 303.005 31.748252 
L 303.005 31.748252 
" style="fill:none;stroke:#e6ab02;stroke-linecap:square;stroke-width:1.5;"/>
   </g>
   <g id="line2d_27">
    <path clip-path="url(#p7c4135baf4)" d="M 55.905 196.670456 
L 63.376734 196.670456 
L 63.376734 191.958393 
L 63.446523 191.958393 
L 68.964085 191.958393 
L 68.964085 187.24633 
L 69.033932 187.24633 
L 69.243442 187.24633 
L 69.243442 182.534267 
L 69.313286 182.534267 
L 69.80215 182.534267 
L 69.80215 177.822204 
L 69.871963 177.822204 
L 70.081516 177.822204 
L 70.081516 173.110142 
L 70.151379 173.110142 
L 70.360888 173.110142 
L 70.360888 163.686016 
L 70.430716 163.686016 
L 70.640298 163.686016 
L 70.640298 158.973953 
L 70.710122 158.973953 
L 70.91961 158.973953 
L 70.91961 154.26189 
L 70.98953 154.26189 
L 75.389539 154.26189 
L 75.389539 149.549827 
L 75.459362 149.549827 
L 75.668901 149.549827 
L 75.668901 140.125701 
L 75.738733 140.125701 
L 76.227592 140.125701 
L 76.227592 135.413638 
L 76.29744 135.413638 
L 76.507005 135.413638 
L 76.507005 125.989512 
L 76.576853 125.989512 
L 77.065741 125.989512 
L 77.065741 121.277449 
L 77.135591 121.277449 
L 77.624469 121.277449 
L 77.624469 116.565386 
L 77.694337 116.565386 
L 77.903853 116.565386 
L 77.903853 111.853323 
L 77.973707 111.853323 
L 82.932508 111.853323 
L 82.932508 107.14126 
L 83.002306 107.14126 
L 84.049963 107.14126 
L 84.049963 102.429197 
L 84.119764 102.429197 
L 91.313497 102.429197 
L 91.313497 97.717134 
L 91.383347 97.717134 
L 102.488262 97.717134 
L 102.488262 93.005071 
L 102.558144 93.005071 
L 103.326397 93.005071 
L 103.326397 78.868882 
L 103.396217 78.868882 
L 103.605735 78.868882 
L 103.605735 69.444756 
L 103.675573 69.444756 
L 103.885133 69.444756 
L 103.885133 60.02063 
L 103.954958 60.02063 
L 104.723236 60.02063 
L 104.723236 55.308567 
L 104.793062 55.308567 
L 108.634376 55.308567 
L 108.634376 50.596504 
L 108.704215 50.596504 
L 109.472464 50.596504 
L 109.472464 45.884441 
L 109.542293 45.884441 
L 109.751851 45.884441 
L 109.751851 41.172378 
L 109.821684 41.172378 
L 110.031202 41.172378 
L 110.031202 36.460315 
L 110.101051 36.460315 
L 110.869335 36.460315 
L 110.869335 31.748252 
L 110.939181 31.748252 
L 303.005 31.748252 
L 303.005 31.748252 
" style="fill:none;stroke:#a6761d;stroke-linecap:square;stroke-width:1.5;"/>
   </g>
   <g id="line2d_28">
    <path clip-path="url(#p7c4135baf4)" d="M 55.905 201.382519 
L 69.522783 201.382519 
L 69.522783 196.670456 
L 69.592666 196.670456 
L 70.360888 196.670456 
L 70.360888 191.958393 
L 70.430716 191.958393 
L 76.507005 191.958393 
L 76.507005 187.24633 
L 76.576853 187.24633 
L 77.065741 187.24633 
L 77.065741 191.958393 
L 77.135591 191.958393 
L 77.345108 191.958393 
L 77.345108 182.534267 
L 77.414987 182.534267 
L 102.767671 182.534267 
L 102.767671 177.822204 
L 102.837443 177.822204 
L 103.326397 177.822204 
L 103.326397 173.110142 
L 103.396217 173.110142 
L 103.885133 173.110142 
L 103.885133 168.398079 
L 103.954958 168.398079 
L 104.164505 168.398079 
L 104.164505 163.686016 
L 104.234337 163.686016 
L 105.561302 163.686016 
L 105.561302 158.973953 
L 105.631127 158.973953 
L 110.031202 158.973953 
L 110.031202 154.26189 
L 110.101051 154.26189 
L 110.869335 154.26189 
L 110.869335 149.549827 
L 110.939181 149.549827 
L 111.1487 149.549827 
L 111.1487 144.837764 
L 111.218533 144.837764 
L 115.897926 144.837764 
L 115.897926 135.413638 
L 115.967789 135.413638 
L 116.177288 135.413638 
L 116.177288 130.701575 
L 116.247132 130.701575 
L 116.456654 130.701575 
L 116.526502 116.565386 
L 116.526502 116.565386 
L 117.574181 116.565386 
L 117.574181 111.853323 
L 117.644033 111.853323 
L 117.853509 111.853323 
L 117.853509 107.14126 
L 117.923352 107.14126 
L 118.132915 107.14126 
L 118.132915 111.853323 
L 118.202755 111.853323 
L 118.412259 111.853323 
L 118.412259 107.14126 
L 118.482118 107.14126 
L 118.691611 107.14126 
L 118.691611 102.429197 
L 118.761444 102.429197 
L 122.044077 102.429197 
L 122.044077 107.14126 
L 122.113866 107.14126 
L 122.882139 107.14126 
L 122.882139 93.005071 
L 122.952001 93.005071 
L 123.440895 93.005071 
L 123.440895 88.293008 
L 123.510771 88.293008 
L 123.999675 88.293008 
L 123.999675 69.444756 
L 124.069457 69.444756 
L 124.279044 69.444756 
L 124.279044 64.732693 
L 124.348824 64.732693 
L 130.425097 64.732693 
L 130.425097 60.02063 
L 130.494967 60.02063 
L 153.053999 60.02063 
L 153.053999 55.308567 
L 153.123798 55.308567 
L 157.523882 55.308567 
L 157.523882 50.596504 
L 157.59371 50.596504 
L 157.803217 50.596504 
L 157.803217 55.308567 
L 157.873047 55.308567 
L 158.361957 55.308567 
L 158.361957 50.596504 
L 158.431777 50.596504 
L 165.066846 50.596504 
L 165.066846 45.884441 
L 165.136762 45.884441 
L 176.520885 45.884441 
L 176.520885 50.596504 
L 176.590735 50.596504 
L 184.343216 50.596504 
L 184.343216 45.884441 
L 184.413062 45.884441 
L 196.356115 45.884441 
L 196.356115 50.596504 
L 196.425887 50.596504 
L 196.914775 50.596504 
L 196.914775 55.308567 
L 196.984617 55.308567 
L 197.752891 55.308567 
L 197.752891 60.02063 
L 197.822733 60.02063 
L 205.575221 60.02063 
L 205.575221 64.732693 
L 205.645044 64.732693 
L 217.588047 64.732693 
L 217.588047 69.444756 
L 217.657949 69.444756 
L 245.524958 69.444756 
L 245.524958 74.156819 
L 245.594784 74.156819 
L 303.005 74.156819 
L 303.005 74.156819 
" style="fill:none;stroke:#666666;stroke-linecap:square;stroke-width:1.5;"/>
   </g>
   <g id="line2d_29">
    <path clip-path="url(#p7c4135baf4)" d="M 55.905 196.670456 
L 62.114874 196.670456 
L 62.114874 191.958393 
L 70.360888 191.958393 
L 70.360888 187.24633 
L 70.430716 187.24633 
L 75.948238 187.24633 
L 75.948238 182.534267 
L 76.018079 182.534267 
L 76.507005 182.534267 
L 76.507005 177.822204 
L 76.576853 177.822204 
L 77.345108 177.822204 
L 77.345108 173.110142 
L 77.414987 173.110142 
L 77.624469 173.110142 
L 77.624469 168.398079 
L 77.694337 168.398079 
L 79.300692 168.398079 
L 79.300692 163.686016 
L 79.37054 163.686016 
L 103.326397 163.686016 
L 103.326397 154.26189 
L 103.396217 154.26189 
L 109.751851 154.26189 
L 109.751851 149.549827 
L 109.821684 149.549827 
L 111.1487 149.549827 
L 111.1487 144.837764 
L 111.218533 144.837764 
L 111.986829 144.837764 
L 111.986829 140.125701 
L 112.056665 140.125701 
L 116.177288 140.125701 
L 116.177288 135.413638 
L 116.247132 135.413638 
L 116.456654 135.413638 
L 116.456654 125.989512 
L 116.526502 125.989512 
L 117.294777 125.989512 
L 117.294777 116.565386 
L 117.364646 116.565386 
L 123.440895 116.565386 
L 123.440895 111.853323 
L 123.510771 111.853323 
L 124.279044 111.853323 
L 124.279044 107.14126 
L 124.348824 107.14126 
L 125.117092 107.14126 
L 125.117092 102.429197 
L 125.186944 102.429197 
L 132.10135 102.429197 
L 132.10135 97.717134 
L 132.171126 97.717134 
L 151.377762 97.717134 
L 151.377762 93.005071 
L 151.447575 93.005071 
L 157.803217 93.005071 
L 157.803217 88.293008 
L 157.873047 88.293008 
L 165.066846 88.293008 
L 165.066846 93.005071 
L 165.136762 93.005071 
L 197.194187 93.005071 
L 197.194187 88.293008 
L 197.264056 88.293008 
L 197.473532 88.293008 
L 197.473532 93.005071 
L 197.543384 93.005071 
L 204.457772 93.005071 
L 204.457772 88.293008 
L 204.527621 88.293008 
L 253.62659 88.293008 
L 253.62659 83.580945 
L 253.69649 83.580945 
L 298.325558 83.580945 
L 298.325558 78.868882 
L 298.395469 78.868882 
L 303.005 78.868882 
L 303.005 78.868882 
" style="fill:none;stroke:#1b9e77;stroke-dasharray:4.5,1.5;stroke-dashoffset:0;stroke-width:1.5;"/>
   </g>
   <g id="line2d_30">
    <path clip-path="url(#p7c4135baf4)" d="M 55.905 206.094582 
L 69.522783 206.094582 
L 69.522783 201.382519 
L 69.592666 201.382519 
L 77.065741 201.382519 
L 77.065741 191.958393 
L 77.135591 191.958393 
L 102.488262 191.958393 
L 102.488262 187.24633 
L 102.558144 187.24633 
L 103.047012 187.24633 
L 103.047012 182.534267 
L 103.116817 182.534267 
L 103.885133 182.534267 
L 103.885133 177.822204 
L 103.954958 177.822204 
L 109.193101 177.822204 
L 109.193101 173.110142 
L 109.262948 173.110142 
L 109.472464 173.110142 
L 109.472464 163.686016 
L 109.542293 163.686016 
L 109.751851 163.686016 
L 109.751851 158.973953 
L 109.821684 158.973953 
L 110.31054 158.973953 
L 110.31054 154.26189 
L 110.380444 154.26189 
L 110.589964 154.26189 
L 110.589964 144.837764 
L 110.659795 144.837764 
L 110.869335 144.837764 
L 110.869335 135.413638 
L 110.939181 135.413638 
L 111.986829 135.413638 
L 111.986829 130.701575 
L 112.056665 130.701575 
L 112.545549 130.701575 
L 112.545549 125.989512 
L 112.615377 125.989512 
L 112.824865 125.989512 
L 112.824865 130.701575 
L 112.89478 130.701575 
L 115.339211 130.701575 
L 115.339211 135.413638 
L 115.409076 135.413638 
L 115.61855 135.413638 
L 115.61855 140.125701 
L 115.688404 140.125701 
L 115.897926 140.125701 
L 115.897926 135.413638 
L 115.967789 135.413638 
L 116.177288 135.413638 
L 116.177288 140.125701 
L 116.247132 140.125701 
L 116.456654 140.125701 
L 116.456654 135.413638 
L 116.526502 135.413638 
L 116.736051 135.413638 
L 116.736051 130.701575 
L 116.805889 130.701575 
L 117.294777 130.701575 
L 117.294777 135.413638 
L 117.364646 135.413638 
L 123.720273 135.413638 
L 123.720273 130.701575 
L 123.790126 130.701575 
L 124.279044 130.701575 
L 124.279044 125.989512 
L 124.348824 125.989512 
L 130.704502 125.989512 
L 130.704502 121.277449 
L 130.774296 121.277449 
L 132.660059 121.277449 
L 132.660059 116.565386 
L 132.729932 116.565386 
L 150.539648 116.565386 
L 150.539648 111.853323 
L 150.609451 111.853323 
L 150.819012 111.853323 
L 150.819012 107.14126 
L 150.888819 107.14126 
L 151.936458 107.14126 
L 151.936458 102.429197 
L 152.006384 102.429197 
L 165.066846 102.429197 
L 165.066846 97.717134 
L 165.136762 97.717134 
L 165.904878 97.717134 
L 165.904878 93.005071 
L 165.974788 93.005071 
L 179.873348 93.005071 
L 179.873348 88.293008 
L 179.943145 88.293008 
L 186.019426 88.293008 
L 186.019426 93.005071 
L 186.089312 93.005071 
L 196.914775 93.005071 
L 196.914775 97.717134 
L 196.984617 97.717134 
L 244.966207 97.717134 
L 244.966207 93.005071 
L 245.036027 93.005071 
L 292.179507 93.005071 
L 292.179507 88.293008 
L 292.24933 88.293008 
L 297.487489 88.293008 
L 297.487489 83.580945 
L 297.557286 83.580945 
L 303.005 83.580945 
L 303.005 83.580945 
" style="fill:none;stroke:#d95f02;stroke-dasharray:4.5,1.5;stroke-dashoffset:0;stroke-width:1.5;"/>
   </g>
   <g id="line2d_31">
    <path clip-path="url(#p7c4135baf4)" d="M 55.905 206.094582 
L 68.964085 206.094582 
L 68.964085 201.382519 
L 69.033932 201.382519 
L 69.243442 201.382519 
L 69.243442 196.670456 
L 69.313286 196.670456 
L 70.360888 196.670456 
L 70.360888 187.24633 
L 70.430716 187.24633 
L 75.668901 187.24633 
L 75.668901 182.534267 
L 75.738733 182.534267 
L 77.065741 182.534267 
L 77.065741 177.822204 
L 77.135591 177.822204 
L 77.345108 177.822204 
L 77.345108 173.110142 
L 77.414987 173.110142 
L 77.624469 173.110142 
L 77.624469 168.398079 
L 77.694337 168.398079 
L 103.047012 168.398079 
L 103.047012 163.686016 
L 103.116817 163.686016 
L 103.326397 163.686016 
L 103.326397 158.973953 
L 103.396217 158.973953 
L 103.605735 158.973953 
L 103.605735 149.549827 
L 103.675573 149.549827 
L 110.589964 149.549827 
L 110.589964 144.837764 
L 110.659795 144.837764 
L 110.869335 144.837764 
L 110.869335 140.125701 
L 110.939181 140.125701 
L 115.61855 140.125701 
L 115.61855 144.837764 
L 115.688404 144.837764 
L 116.456654 144.837764 
L 116.456654 135.413638 
L 116.526502 135.413638 
L 116.736051 135.413638 
L 116.736051 140.125701 
L 116.805889 140.125701 
L 117.015435 140.125701 
L 117.015435 135.413638 
L 117.08528 135.413638 
L 117.574181 135.413638 
L 117.574181 125.989512 
L 117.644033 125.989512 
L 117.853509 125.989512 
L 117.853509 121.277449 
L 117.923352 121.277449 
L 130.983823 121.277449 
L 130.983823 116.565386 
L 131.053701 116.565386 
L 131.821978 116.565386 
L 131.821978 111.853323 
L 131.891833 111.853323 
L 145.231624 111.853323 
L 145.231624 107.14126 
L 145.301498 107.14126 
L 170.654158 107.14126 
L 170.654158 102.429197 
L 170.724025 102.429197 
L 171.77163 102.429197 
L 171.77163 97.717134 
L 171.841494 97.717134 
L 177.359044 97.717134 
L 177.359044 93.005071 
L 177.428853 93.005071 
L 199.429167 93.005071 
L 199.429167 88.293008 
L 199.498992 88.293008 
L 303.005 88.293008 
L 303.005 88.293008 
" style="fill:none;stroke:#7570b3;stroke-dasharray:4.5,1.5;stroke-dashoffset:0;stroke-width:1.5;"/>
   </g>
   <g id="line2d_32">
    <path clip-path="url(#p7c4135baf4)" d="M 55.905 210.806645 
L 63.097581 210.806645 
L 63.097581 206.094582 
L 63.167167 206.094582 
L 63.656088 206.094582 
L 63.656088 201.382519 
L 63.7259 201.382519 
L 70.081516 201.382519 
L 70.081516 196.670456 
L 70.151379 196.670456 
L 77.345108 196.670456 
L 77.345108 191.958393 
L 77.414987 191.958393 
L 81.815014 191.958393 
L 81.815014 187.24633 
L 81.884917 187.24633 
L 83.211827 187.24633 
L 83.211827 182.534267 
L 83.28168 182.534267 
L 83.770589 182.534267 
L 83.770589 177.822204 
L 83.840446 177.822204 
L 102.488262 177.822204 
L 102.488262 168.398079 
L 102.558144 168.398079 
L 103.047012 168.398079 
L 103.047012 163.686016 
L 103.116817 163.686016 
L 103.326397 163.686016 
L 103.326397 158.973953 
L 103.396217 158.973953 
L 103.605735 158.973953 
L 103.605735 154.26189 
L 103.675573 154.26189 
L 103.885133 154.26189 
L 103.885133 144.837764 
L 103.954958 144.837764 
L 104.164505 144.837764 
L 104.164505 140.125701 
L 104.234337 140.125701 
L 104.723236 140.125701 
L 104.723236 135.413638 
L 104.793062 135.413638 
L 105.281997 135.413638 
L 105.281997 130.701575 
L 105.351754 130.701575 
L 106.120027 130.701575 
L 106.120027 125.989512 
L 106.189871 125.989512 
L 109.193101 125.989512 
L 109.193101 121.277449 
L 109.262948 121.277449 
L 109.472464 121.277449 
L 109.472464 116.565386 
L 109.542293 116.565386 
L 109.751851 116.565386 
L 109.751851 102.429197 
L 109.821684 102.429197 
L 110.031202 102.429197 
L 110.031202 97.717134 
L 110.101051 97.717134 
L 110.31054 97.717134 
L 110.31054 93.005071 
L 110.380444 93.005071 
L 112.824865 93.005071 
L 112.824865 97.717134 
L 112.89478 97.717134 
L 116.456654 97.717134 
L 116.456654 93.005071 
L 116.526502 93.005071 
L 116.736051 93.005071 
L 116.736051 97.717134 
L 116.805889 97.717134 
L 117.015435 97.717134 
L 117.015435 93.005071 
L 117.08528 93.005071 
L 124.837789 93.005071 
L 124.837789 97.717134 
L 124.907566 97.717134 
L 125.117092 97.717134 
L 125.117092 93.005071 
L 125.186944 93.005071 
L 303.005 93.005071 
L 303.005 93.005071 
" style="fill:none;stroke:#e7298a;stroke-dasharray:4.5,1.5;stroke-dashoffset:0;stroke-width:1.5;"/>
   </g>
   <g id="line2d_33">
    <path clip-path="url(#p7c4135baf4)" d="M 181.340005 210.806645 
L 183.78446 210.806645 
L 183.78446 206.094582 
L 183.854351 206.094582 
L 192.165573 206.094582 
L 192.165573 201.382519 
L 192.235393 201.382519 
L 196.356115 201.382519 
L 196.356115 182.534267 
L 196.425887 182.534267 
L 196.914775 182.534267 
L 196.914775 173.110142 
L 196.984617 173.110142 
L 197.473532 173.110142 
L 197.473532 158.973953 
L 197.543384 158.973953 
L 198.03226 158.973953 
L 198.03226 154.26189 
L 198.10216 154.26189 
L 203.619688 154.26189 
L 203.619688 149.549827 
L 203.689486 149.549827 
L 205.016514 149.549827 
L 205.016514 144.837764 
L 205.086312 144.837764 
L 205.575221 144.837764 
L 205.575221 140.125701 
L 205.645044 140.125701 
L 206.13396 140.125701 
L 206.13396 135.413638 
L 206.203837 135.413638 
L 206.413339 135.413638 
L 206.413339 130.701575 
L 206.483135 130.701575 
L 210.324516 130.701575 
L 210.324516 125.989512 
L 210.394325 125.989512 
L 212.838786 125.989512 
L 212.838786 121.277449 
L 212.908677 121.277449 
L 217.588047 121.277449 
L 217.588047 116.565386 
L 217.657949 116.565386 
L 303.005 116.565386 
L 303.005 116.565386 
" style="fill:none;stroke:#66a61e;stroke-dasharray:4.5,1.5;stroke-dashoffset:0;stroke-width:1.5;"/>
   </g>
   <g id="line2d_34">
    <path clip-path="url(#p7c4135baf4)" d="M 55.905 206.094582 
L 69.80215 206.094582 
L 69.80215 196.670456 
L 69.871963 196.670456 
L 75.948238 196.670456 
L 75.948238 187.24633 
L 76.018079 187.24633 
L 76.227592 187.24633 
L 76.227592 182.534267 
L 76.29744 182.534267 
L 77.345108 182.534267 
L 77.345108 177.822204 
L 77.414987 177.822204 
L 77.624469 177.822204 
L 77.624469 173.110142 
L 77.694337 173.110142 
L 103.605735 173.110142 
L 103.605735 168.398079 
L 103.675573 168.398079 
L 103.885133 168.398079 
L 103.885133 163.686016 
L 103.954958 163.686016 
L 104.164505 163.686016 
L 104.164505 158.973953 
L 104.234337 158.973953 
L 105.002549 158.973953 
L 105.002549 154.26189 
L 105.072454 154.26189 
L 105.281997 154.26189 
L 105.281997 158.973953 
L 105.351754 158.973953 
L 109.193101 158.973953 
L 109.193101 140.125701 
L 109.262948 140.125701 
L 109.751851 140.125701 
L 109.751851 130.701575 
L 109.821684 130.701575 
L 110.031202 130.701575 
L 110.031202 125.989512 
L 110.101051 125.989512 
L 110.31054 125.989512 
L 110.31054 116.565386 
L 110.380444 116.565386 
L 303.005 116.565386 
L 303.005 116.565386 
" style="fill:none;stroke:#e6ab02;stroke-dasharray:4.5,1.5;stroke-dashoffset:0;stroke-width:1.5;"/>
   </g>
   <g id="line2d_35">
    <path clip-path="url(#p7c4135baf4)" d="M 55.905 210.806645 
L 64.214759 210.806645 
L 64.214759 206.094582 
L 64.284632 206.094582 
L 65.332288 206.094582 
L 65.332288 201.382519 
L 65.40209 201.382519 
L 82.932508 201.382519 
L 82.932508 196.670456 
L 83.002306 196.670456 
L 102.488262 196.670456 
L 102.488262 191.958393 
L 102.558144 191.958393 
L 104.443832 191.958393 
L 104.443832 182.534267 
L 104.51366 182.534267 
L 109.751851 182.534267 
L 109.751851 177.822204 
L 109.821684 177.822204 
L 110.031202 177.822204 
L 110.031202 173.110142 
L 110.101051 173.110142 
L 110.869335 173.110142 
L 110.869335 163.686016 
L 110.939181 163.686016 
L 111.1487 163.686016 
L 111.1487 158.973953 
L 111.218533 158.973953 
L 112.824865 158.973953 
L 112.824865 154.26189 
L 112.89478 154.26189 
L 116.177288 154.26189 
L 116.177288 158.973953 
L 116.247132 158.973953 
L 116.736051 158.973953 
L 116.736051 154.26189 
L 116.805889 154.26189 
L 117.015435 154.26189 
L 117.015435 149.549827 
L 117.08528 149.549827 
L 117.574181 149.549827 
L 117.574181 144.837764 
L 117.644033 144.837764 
L 117.853509 144.837764 
L 117.853509 149.549827 
L 117.923352 149.549827 
L 118.132915 149.549827 
L 118.132915 144.837764 
L 118.202755 144.837764 
L 122.882139 144.837764 
L 122.882139 140.125701 
L 122.952001 140.125701 
L 131.821978 140.125701 
L 131.821978 135.413638 
L 131.891833 135.413638 
L 150.539648 135.413638 
L 150.539648 130.701575 
L 150.609451 130.701575 
L 177.079637 130.701575 
L 177.079637 125.989512 
L 177.149527 125.989512 
L 210.324516 125.989512 
L 210.324516 121.277449 
L 210.394325 121.277449 
L 245.524958 121.277449 
L 245.524958 116.565386 
L 245.594784 116.565386 
L 303.005 116.565386 
L 303.005 116.565386 
" style="fill:none;stroke:#a6761d;stroke-dasharray:4.5,1.5;stroke-dashoffset:0;stroke-width:1.5;"/>
   </g>
   <g id="line2d_36">
    <path clip-path="url(#p7c4135baf4)" d="M 55.905 210.806645 
L 70.360888 210.806645 
L 70.360888 206.094582 
L 70.430716 206.094582 
L 70.640298 206.094582 
L 70.640298 201.382519 
L 70.710122 201.382519 
L 76.227592 201.382519 
L 76.227592 196.670456 
L 76.29744 196.670456 
L 77.624469 196.670456 
L 77.624469 191.958393 
L 77.694337 191.958393 
L 78.183206 191.958393 
L 78.183206 187.24633 
L 78.253062 187.24633 
L 78.741971 187.24633 
L 78.741971 182.534267 
L 78.811818 182.534267 
L 82.932508 182.534267 
L 82.932508 187.24633 
L 83.002306 187.24633 
L 102.767671 187.24633 
L 102.767671 182.534267 
L 102.837443 182.534267 
L 104.443832 182.534267 
L 104.443832 173.110142 
L 104.51366 173.110142 
L 109.472464 173.110142 
L 109.472464 168.398079 
L 109.542293 168.398079 
L 110.589964 168.398079 
L 110.589964 149.549827 
L 110.659795 149.549827 
L 110.869335 149.549827 
L 110.869335 144.837764 
L 110.939181 144.837764 
L 111.1487 144.837764 
L 111.1487 140.125701 
L 111.218533 140.125701 
L 196.914775 140.125701 
L 196.914775 144.837764 
L 196.984617 144.837764 
L 197.194187 144.837764 
L 197.194187 140.125701 
L 197.264056 140.125701 
L 303.005 140.125701 
L 303.005 140.125701 
" style="fill:none;stroke:#666666;stroke-dasharray:4.5,1.5;stroke-dashoffset:0;stroke-width:1.5;"/>
   </g>
   <g id="line2d_37"/>
   <g id="line2d_38"/>
   <g id="line2d_39"/>
   <g id="line2d_40"/>
   <g id="line2d_41"/>
   <g id="line2d_42"/>
   <g id="line2d_43"/>
   <g id="line2d_44"/>
   <g id="line2d_45"/>
   <g id="line2d_46"/>
   <g id="line2d_47"/>
   <g id="line2d_48"/>
   <g id="line2d_49"/>
   <g id="line2d_50"/>
   <g id="line2d_51"/>
   <g id="line2d_52"/>
   <g id="line2d_53"/>
   <g id="patch_3">
    <path d="M 43.55 220.230771 
L 43.55 12.9 
" style="fill:none;stroke:#000000;stroke-linecap:square;stroke-linejoin:miter;stroke-width:0.8;"/>
   </g>
   <g id="patch_4">
    <path d="M 315.36 220.230771 
L 315.36 12.9 
" style="fill:none;stroke:#000000;stroke-linecap:square;stroke-linejoin:miter;stroke-width:0.8;"/>
   </g>
   <g id="patch_5">
    <path d="M 43.55 220.230771 
L 315.36 220.230771 
" style="fill:none;stroke:#000000;stroke-linecap:square;stroke-linejoin:miter;stroke-width:0.8;"/>
   </g>
   <g id="patch_6">
    <path d="M 43.55 12.9 
L 315.36 12.9 
" style="fill:none;stroke:#000000;stroke-linecap:square;stroke-linejoin:miter;stroke-width:0.8;"/>
   </g>
  </g>
  <g id="legend_1">
   <g id="patch_7">
    <path d="M 331.8625 262.528125 
L 420 262.528125 
Q 422 262.528125 422 260.528125 
L 422 12 
Q 422 10 420 10 
L 331.8625 10 
Q 329.8625 10 329.8625 12 
L 329.8625 260.528125 
Q 329.8625 262.528125 331.8625 262.528125 
z
" style="fill:#ffffff;opacity:0.8;stroke:#cccccc;stroke-linejoin:miter;"/>
   </g>
   <g id="text_23">
    <!-- 482/610 Reg. -->
    <defs>
     <path d="M 31.78125 34.625 
Q 24.75 34.625 20.71875 30.859375 
Q 16.703125 27.09375 16.703125 20.515625 
Q 16.703125 13.921875 20.71875 10.15625 
Q 24.75 6.390625 31.78125 6.390625 
Q 38.8125 6.390625 42.859375 10.171875 
Q 46.921875 13.96875 46.921875 20.515625 
Q 46.921875 27.09375 42.890625 30.859375 
Q 38.875 34.625 31.78125 34.625 
z
M 21.921875 38.8125 
Q 15.578125 40.375 12.03125 44.71875 
Q 8.5 49.078125 8.5 55.328125 
Q 8.5 64.0625 14.71875 69.140625 
Q 20.953125 74.21875 31.78125 74.21875 
Q 42.671875 74.21875 48.875 69.140625 
Q 55.078125 64.0625 55.078125 55.328125 
Q 55.078125 49.078125 51.53125 44.71875 
Q 48 40.375 41.703125 38.8125 
Q 48.828125 37.15625 52.796875 32.3125 
Q 56.78125 27.484375 56.78125 20.515625 
Q 56.78125 9.90625 50.3125 4.234375 
Q 43.84375 -1.421875 31.78125 -1.421875 
Q 19.734375 -1.421875 13.25 4.234375 
Q 6.78125 9.90625 6.78125 20.515625 
Q 6.78125 27.484375 10.78125 32.3125 
Q 14.796875 37.15625 21.921875 38.8125 
z
M 18.3125 54.390625 
Q 18.3125 48.734375 21.84375 45.5625 
Q 25.390625 42.390625 31.78125 42.390625 
Q 38.140625 42.390625 41.71875 45.5625 
Q 45.3125 48.734375 45.3125 54.390625 
Q 45.3125 60.0625 41.71875 63.234375 
Q 38.140625 66.40625 31.78125 66.40625 
Q 25.390625 66.40625 21.84375 63.234375 
Q 18.3125 60.0625 18.3125 54.390625 
z
" id="DejaVuSans-56"/>
     <path d="M 25.390625 72.90625 
L 33.6875 72.90625 
L 8.296875 -9.28125 
L 0 -9.28125 
z
" id="DejaVuSans-47"/>
     <path d="M 33.015625 40.375 
Q 26.375 40.375 22.484375 35.828125 
Q 18.609375 31.296875 18.609375 23.390625 
Q 18.609375 15.53125 22.484375 10.953125 
Q 26.375 6.390625 33.015625 6.390625 
Q 39.65625 6.390625 43.53125 10.953125 
Q 47.40625 15.53125 47.40625 23.390625 
Q 47.40625 31.296875 43.53125 35.828125 
Q 39.65625 40.375 33.015625 40.375 
z
M 52.59375 71.296875 
L 52.59375 62.3125 
Q 48.875 64.0625 45.09375 64.984375 
Q 41.3125 65.921875 37.59375 65.921875 
Q 27.828125 65.921875 22.671875 59.328125 
Q 17.53125 52.734375 16.796875 39.40625 
Q 19.671875 43.65625 24.015625 45.921875 
Q 28.375 48.1875 33.59375 48.1875 
Q 44.578125 48.1875 50.953125 41.515625 
Q 57.328125 34.859375 57.328125 23.390625 
Q 57.328125 12.15625 50.6875 5.359375 
Q 44.046875 -1.421875 33.015625 -1.421875 
Q 20.359375 -1.421875 13.671875 8.265625 
Q 6.984375 17.96875 6.984375 36.375 
Q 6.984375 53.65625 15.1875 63.9375 
Q 23.390625 74.21875 37.203125 74.21875 
Q 40.921875 74.21875 44.703125 73.484375 
Q 48.484375 72.75 52.59375 71.296875 
z
" id="DejaVuSans-54"/>
     <path d="M 10.6875 12.40625 
L 21 12.40625 
L 21 0 
L 10.6875 0 
z
" id="DejaVuSans-46"/>
    </defs>
    <g transform="translate(342.259375 21.598437)scale(0.1 -0.1)">
     <use xlink:href="#DejaVuSans-52"/>
     <use x="63.623047" xlink:href="#DejaVuSans-56"/>
     <use x="127.246094" xlink:href="#DejaVuSans-50"/>
     <use x="190.869141" xlink:href="#DejaVuSans-47"/>
     <use x="224.560547" xlink:href="#DejaVuSans-54"/>
     <use x="288.183594" xlink:href="#DejaVuSans-49"/>
     <use x="351.806641" xlink:href="#DejaVuSans-48"/>
     <use x="415.429688" xlink:href="#DejaVuSans-32"/>
     <use x="447.216797" xlink:href="#DejaVuSans-82"/>
     <use x="516.636719" xlink:href="#DejaVuSans-101"/>
     <use x="578.160156" xlink:href="#DejaVuSans-103"/>
     <use x="641.636719" xlink:href="#DejaVuSans-46"/>
    </g>
   </g>
   <g id="line2d_54">
    <path d="M 333.8625 32.776562 
L 353.8625 32.776562 
" style="fill:none;stroke:#1b9e77;stroke-linecap:square;stroke-width:1.5;"/>
   </g>
   <g id="line2d_55"/>
   <g id="text_24">
    <!-- AUS (40) -->
    <defs>
     <path d="M 34.1875 63.1875 
L 20.796875 26.90625 
L 47.609375 26.90625 
z
M 28.609375 72.90625 
L 39.796875 72.90625 
L 67.578125 0 
L 57.328125 0 
L 50.6875 18.703125 
L 17.828125 18.703125 
L 11.1875 0 
L 0.78125 0 
z
" id="DejaVuSans-65"/>
     <path d="M 8.6875 72.90625 
L 18.609375 72.90625 
L 18.609375 28.609375 
Q 18.609375 16.890625 22.84375 11.734375 
Q 27.09375 6.59375 36.625 6.59375 
Q 46.09375 6.59375 50.34375 11.734375 
Q 54.59375 16.890625 54.59375 28.609375 
L 54.59375 72.90625 
L 64.5 72.90625 
L 64.5 27.390625 
Q 64.5 13.140625 57.4375 5.859375 
Q 50.390625 -1.421875 36.625 -1.421875 
Q 22.796875 -1.421875 15.734375 5.859375 
Q 8.6875 13.140625 8.6875 27.390625 
z
" id="DejaVuSans-85"/>
     <path d="M 31 75.875 
Q 24.46875 64.65625 21.28125 53.65625 
Q 18.109375 42.671875 18.109375 31.390625 
Q 18.109375 20.125 21.3125 9.0625 
Q 24.515625 -2 31 -13.1875 
L 23.1875 -13.1875 
Q 15.875 -1.703125 12.234375 9.375 
Q 8.59375 20.453125 8.59375 31.390625 
Q 8.59375 42.28125 12.203125 53.3125 
Q 15.828125 64.359375 23.1875 75.875 
z
" id="DejaVuSans-40"/>
     <path d="M 8.015625 75.875 
L 15.828125 75.875 
Q 23.140625 64.359375 26.78125 53.3125 
Q 30.421875 42.28125 30.421875 31.390625 
Q 30.421875 20.453125 26.78125 9.375 
Q 23.140625 -1.703125 15.828125 -13.1875 
L 8.015625 -13.1875 
Q 14.5 -2 17.703125 9.0625 
Q 20.90625 20.125 20.90625 31.390625 
Q 20.90625 42.671875 17.703125 53.65625 
Q 14.5 64.65625 8.015625 75.875 
z
" id="DejaVuSans-41"/>
    </defs>
    <g transform="translate(361.8625 36.276562)scale(0.1 -0.1)">
     <use xlink:href="#DejaVuSans-65"/>
     <use x="68.408203" xlink:href="#DejaVuSans-85"/>
     <use x="141.601562" xlink:href="#DejaVuSans-83"/>
     <use x="205.078125" xlink:href="#DejaVuSans-32"/>
     <use x="236.865234" xlink:href="#DejaVuSans-40"/>
     <use x="275.878906" xlink:href="#DejaVuSans-52"/>
     <use x="339.501953" xlink:href="#DejaVuSans-48"/>
     <use x="403.125" xlink:href="#DejaVuSans-41"/>
    </g>
   </g>
   <g id="line2d_56">
    <path d="M 333.8625 47.454688 
L 353.8625 47.454688 
" style="fill:none;stroke:#d95f02;stroke-linecap:square;stroke-width:1.5;"/>
   </g>
   <g id="line2d_57"/>
   <g id="text_25">
    <!-- COML (40) -->
    <defs>
     <path d="M 64.40625 67.28125 
L 64.40625 56.890625 
Q 59.421875 61.53125 53.78125 63.8125 
Q 48.140625 66.109375 41.796875 66.109375 
Q 29.296875 66.109375 22.65625 58.46875 
Q 16.015625 50.828125 16.015625 36.375 
Q 16.015625 21.96875 22.65625 14.328125 
Q 29.296875 6.6875 41.796875 6.6875 
Q 48.140625 6.6875 53.78125 8.984375 
Q 59.421875 11.28125 64.40625 15.921875 
L 64.40625 5.609375 
Q 59.234375 2.09375 53.4375 0.328125 
Q 47.65625 -1.421875 41.21875 -1.421875 
Q 24.65625 -1.421875 15.125 8.703125 
Q 5.609375 18.84375 5.609375 36.375 
Q 5.609375 53.953125 15.125 64.078125 
Q 24.65625 74.21875 41.21875 74.21875 
Q 47.75 74.21875 53.53125 72.484375 
Q 59.328125 70.75 64.40625 67.28125 
z
" id="DejaVuSans-67"/>
     <path d="M 39.40625 66.21875 
Q 28.65625 66.21875 22.328125 58.203125 
Q 16.015625 50.203125 16.015625 36.375 
Q 16.015625 22.609375 22.328125 14.59375 
Q 28.65625 6.59375 39.40625 6.59375 
Q 50.140625 6.59375 56.421875 14.59375 
Q 62.703125 22.609375 62.703125 36.375 
Q 62.703125 50.203125 56.421875 58.203125 
Q 50.140625 66.21875 39.40625 66.21875 
z
M 39.40625 74.21875 
Q 54.734375 74.21875 63.90625 63.9375 
Q 73.09375 53.65625 73.09375 36.375 
Q 73.09375 19.140625 63.90625 8.859375 
Q 54.734375 -1.421875 39.40625 -1.421875 
Q 24.03125 -1.421875 14.8125 8.828125 
Q 5.609375 19.09375 5.609375 36.375 
Q 5.609375 53.65625 14.8125 63.9375 
Q 24.03125 74.21875 39.40625 74.21875 
z
" id="DejaVuSans-79"/>
     <path d="M 9.8125 72.90625 
L 24.515625 72.90625 
L 43.109375 23.296875 
L 61.8125 72.90625 
L 76.515625 72.90625 
L 76.515625 0 
L 66.890625 0 
L 66.890625 64.015625 
L 48.09375 14.015625 
L 38.1875 14.015625 
L 19.390625 64.015625 
L 19.390625 0 
L 9.8125 0 
z
" id="DejaVuSans-77"/>
     <path d="M 9.8125 72.90625 
L 19.671875 72.90625 
L 19.671875 8.296875 
L 55.171875 8.296875 
L 55.171875 0 
L 9.8125 0 
z
" id="DejaVuSans-76"/>
    </defs>
    <g transform="translate(361.8625 50.954688)scale(0.1 -0.1)">
     <use xlink:href="#DejaVuSans-67"/>
     <use x="69.824219" xlink:href="#DejaVuSans-79"/>
     <use x="148.535156" xlink:href="#DejaVuSans-77"/>
     <use x="234.814453" xlink:href="#DejaVuSans-76"/>
     <use x="290.527344" xlink:href="#DejaVuSans-32"/>
     <use x="322.314453" xlink:href="#DejaVuSans-40"/>
     <use x="361.328125" xlink:href="#DejaVuSans-52"/>
     <use x="424.951172" xlink:href="#DejaVuSans-48"/>
     <use x="488.574219" xlink:href="#DejaVuSans-41"/>
    </g>
   </g>
   <g id="line2d_58">
    <path d="M 333.8625 62.132812 
L 353.8625 62.132812 
" style="fill:none;stroke:#7570b3;stroke-linecap:square;stroke-width:1.5;"/>
   </g>
   <g id="line2d_59"/>
   <g id="text_26">
    <!-- GDD (40) -->
    <defs>
     <path d="M 59.515625 10.40625 
L 59.515625 29.984375 
L 43.40625 29.984375 
L 43.40625 38.09375 
L 69.28125 38.09375 
L 69.28125 6.78125 
Q 63.578125 2.734375 56.6875 0.65625 
Q 49.8125 -1.421875 42 -1.421875 
Q 24.90625 -1.421875 15.25 8.5625 
Q 5.609375 18.5625 5.609375 36.375 
Q 5.609375 54.25 15.25 64.234375 
Q 24.90625 74.21875 42 74.21875 
Q 49.125 74.21875 55.546875 72.453125 
Q 61.96875 70.703125 67.390625 67.28125 
L 67.390625 56.78125 
Q 61.921875 61.421875 55.765625 63.765625 
Q 49.609375 66.109375 42.828125 66.109375 
Q 29.4375 66.109375 22.71875 58.640625 
Q 16.015625 51.171875 16.015625 36.375 
Q 16.015625 21.625 22.71875 14.15625 
Q 29.4375 6.6875 42.828125 6.6875 
Q 48.046875 6.6875 52.140625 7.59375 
Q 56.25 8.5 59.515625 10.40625 
z
" id="DejaVuSans-71"/>
    </defs>
    <g transform="translate(361.8625 65.632812)scale(0.1 -0.1)">
     <use xlink:href="#DejaVuSans-71"/>
     <use x="77.490234" xlink:href="#DejaVuSans-68"/>
     <use x="154.492188" xlink:href="#DejaVuSans-68"/>
     <use x="231.494141" xlink:href="#DejaVuSans-32"/>
     <use x="263.28125" xlink:href="#DejaVuSans-40"/>
     <use x="302.294922" xlink:href="#DejaVuSans-52"/>
     <use x="365.917969" xlink:href="#DejaVuSans-48"/>
     <use x="429.541016" xlink:href="#DejaVuSans-41"/>
    </g>
   </g>
   <g id="line2d_60">
    <path d="M 333.8625 76.810937 
L 353.8625 76.810937 
" style="fill:none;stroke:#e7298a;stroke-linecap:square;stroke-width:1.5;"/>
   </g>
   <g id="line2d_61"/>
   <g id="text_27">
    <!-- SA (38) -->
    <g transform="translate(361.8625 80.310937)scale(0.1 -0.1)">
     <use xlink:href="#DejaVuSans-83"/>
     <use x="63.492188" xlink:href="#DejaVuSans-65"/>
     <use x="131.900391" xlink:href="#DejaVuSans-32"/>
     <use x="163.6875" xlink:href="#DejaVuSans-40"/>
     <use x="202.701172" xlink:href="#DejaVuSans-51"/>
     <use x="266.324219" xlink:href="#DejaVuSans-56"/>
     <use x="329.947266" xlink:href="#DejaVuSans-41"/>
    </g>
   </g>
   <g id="line2d_62">
    <path d="M 333.8625 91.489062 
L 353.8625 91.489062 
" style="fill:none;stroke:#66a61e;stroke-linecap:square;stroke-width:1.5;"/>
   </g>
   <g id="line2d_63"/>
   <g id="text_28">
    <!-- AS (38) -->
    <g transform="translate(361.8625 94.989062)scale(0.1 -0.1)">
     <use xlink:href="#DejaVuSans-65"/>
     <use x="68.408203" xlink:href="#DejaVuSans-83"/>
     <use x="131.884766" xlink:href="#DejaVuSans-32"/>
     <use x="163.671875" xlink:href="#DejaVuSans-40"/>
     <use x="202.685547" xlink:href="#DejaVuSans-51"/>
     <use x="266.308594" xlink:href="#DejaVuSans-56"/>
     <use x="329.931641" xlink:href="#DejaVuSans-41"/>
    </g>
   </g>
   <g id="line2d_64">
    <path d="M 333.8625 106.167188 
L 353.8625 106.167188 
" style="fill:none;stroke:#e6ab02;stroke-linecap:square;stroke-width:1.5;"/>
   </g>
   <g id="line2d_65"/>
   <g id="text_29">
    <!-- MD (38) -->
    <g transform="translate(361.8625 109.667188)scale(0.1 -0.1)">
     <use xlink:href="#DejaVuSans-77"/>
     <use x="86.279297" xlink:href="#DejaVuSans-68"/>
     <use x="163.28125" xlink:href="#DejaVuSans-32"/>
     <use x="195.068359" xlink:href="#DejaVuSans-40"/>
     <use x="234.082031" xlink:href="#DejaVuSans-51"/>
     <use x="297.705078" xlink:href="#DejaVuSans-56"/>
     <use x="361.328125" xlink:href="#DejaVuSans-41"/>
    </g>
   </g>
   <g id="line2d_66">
    <path d="M 333.8625 120.845312 
L 353.8625 120.845312 
" style="fill:none;stroke:#a6761d;stroke-linecap:square;stroke-width:1.5;"/>
   </g>
   <g id="line2d_67"/>
   <g id="text_30">
    <!-- HPI (38) -->
    <defs>
     <path d="M 9.8125 72.90625 
L 19.671875 72.90625 
L 19.671875 43.015625 
L 55.515625 43.015625 
L 55.515625 72.90625 
L 65.375 72.90625 
L 65.375 0 
L 55.515625 0 
L 55.515625 34.71875 
L 19.671875 34.71875 
L 19.671875 0 
L 9.8125 0 
z
" id="DejaVuSans-72"/>
     <path d="M 19.671875 64.796875 
L 19.671875 37.40625 
L 32.078125 37.40625 
Q 38.96875 37.40625 42.71875 40.96875 
Q 46.484375 44.53125 46.484375 51.125 
Q 46.484375 57.671875 42.71875 61.234375 
Q 38.96875 64.796875 32.078125 64.796875 
z
M 9.8125 72.90625 
L 32.078125 72.90625 
Q 44.34375 72.90625 50.609375 67.359375 
Q 56.890625 61.8125 56.890625 51.125 
Q 56.890625 40.328125 50.609375 34.8125 
Q 44.34375 29.296875 32.078125 29.296875 
L 19.671875 29.296875 
L 19.671875 0 
L 9.8125 0 
z
" id="DejaVuSans-80"/>
     <path d="M 9.8125 72.90625 
L 19.671875 72.90625 
L 19.671875 0 
L 9.8125 0 
z
" id="DejaVuSans-73"/>
    </defs>
    <g transform="translate(361.8625 124.345312)scale(0.1 -0.1)">
     <use xlink:href="#DejaVuSans-72"/>
     <use x="75.195312" xlink:href="#DejaVuSans-80"/>
     <use x="135.498047" xlink:href="#DejaVuSans-73"/>
     <use x="164.990234" xlink:href="#DejaVuSans-32"/>
     <use x="196.777344" xlink:href="#DejaVuSans-40"/>
     <use x="235.791016" xlink:href="#DejaVuSans-51"/>
     <use x="299.414062" xlink:href="#DejaVuSans-56"/>
     <use x="363.037109" xlink:href="#DejaVuSans-41"/>
    </g>
   </g>
   <g id="line2d_68">
    <path d="M 333.8625 135.523438 
L 353.8625 135.523438 
" style="fill:none;stroke:#666666;stroke-linecap:square;stroke-width:1.5;"/>
   </g>
   <g id="line2d_69"/>
   <g id="text_31">
    <!-- FIT (29) -->
    <defs>
     <path d="M 9.8125 72.90625 
L 51.703125 72.90625 
L 51.703125 64.59375 
L 19.671875 64.59375 
L 19.671875 43.109375 
L 48.578125 43.109375 
L 48.578125 34.8125 
L 19.671875 34.8125 
L 19.671875 0 
L 9.8125 0 
z
" id="DejaVuSans-70"/>
     <path d="M -0.296875 72.90625 
L 61.375 72.90625 
L 61.375 64.59375 
L 35.5 64.59375 
L 35.5 0 
L 25.59375 0 
L 25.59375 64.59375 
L -0.296875 64.59375 
z
" id="DejaVuSans-84"/>
    </defs>
    <g transform="translate(361.8625 139.023438)scale(0.1 -0.1)">
     <use xlink:href="#DejaVuSans-70"/>
     <use x="57.519531" xlink:href="#DejaVuSans-73"/>
     <use x="87.011719" xlink:href="#DejaVuSans-84"/>
     <use x="148.095703" xlink:href="#DejaVuSans-32"/>
     <use x="179.882812" xlink:href="#DejaVuSans-40"/>
     <use x="218.896484" xlink:href="#DejaVuSans-50"/>
     <use x="282.519531" xlink:href="#DejaVuSans-57"/>
     <use x="346.142578" xlink:href="#DejaVuSans-41"/>
    </g>
   </g>
   <g id="line2d_70">
    <path d="M 333.8625 150.201562 
L 353.8625 150.201562 
" style="fill:none;stroke:#1b9e77;stroke-dasharray:4.5,1.5;stroke-dashoffset:0;stroke-width:1.5;"/>
   </g>
   <g id="line2d_71"/>
   <g id="text_32">
    <!-- TBI (28) -->
    <defs>
     <path d="M 19.671875 34.8125 
L 19.671875 8.109375 
L 35.5 8.109375 
Q 43.453125 8.109375 47.28125 11.40625 
Q 51.125 14.703125 51.125 21.484375 
Q 51.125 28.328125 47.28125 31.5625 
Q 43.453125 34.8125 35.5 34.8125 
z
M 19.671875 64.796875 
L 19.671875 42.828125 
L 34.28125 42.828125 
Q 41.5 42.828125 45.03125 45.53125 
Q 48.578125 48.25 48.578125 53.8125 
Q 48.578125 59.328125 45.03125 62.0625 
Q 41.5 64.796875 34.28125 64.796875 
z
M 9.8125 72.90625 
L 35.015625 72.90625 
Q 46.296875 72.90625 52.390625 68.21875 
Q 58.5 63.53125 58.5 54.890625 
Q 58.5 48.1875 55.375 44.234375 
Q 52.25 40.28125 46.1875 39.3125 
Q 53.46875 37.75 57.5 32.78125 
Q 61.53125 27.828125 61.53125 20.40625 
Q 61.53125 10.640625 54.890625 5.3125 
Q 48.25 0 35.984375 0 
L 9.8125 0 
z
" id="DejaVuSans-66"/>
    </defs>
    <g transform="translate(361.8625 153.701562)scale(0.1 -0.1)">
     <use xlink:href="#DejaVuSans-84"/>
     <use x="61.083984" xlink:href="#DejaVuSans-66"/>
     <use x="129.6875" xlink:href="#DejaVuSans-73"/>
     <use x="159.179688" xlink:href="#DejaVuSans-32"/>
     <use x="190.966797" xlink:href="#DejaVuSans-40"/>
     <use x="229.980469" xlink:href="#DejaVuSans-50"/>
     <use x="293.603516" xlink:href="#DejaVuSans-56"/>
     <use x="357.226562" xlink:href="#DejaVuSans-41"/>
    </g>
   </g>
   <g id="line2d_72">
    <path d="M 333.8625 164.879687 
L 353.8625 164.879687 
" style="fill:none;stroke:#d95f02;stroke-dasharray:4.5,1.5;stroke-dashoffset:0;stroke-width:1.5;"/>
   </g>
   <g id="line2d_73"/>
   <g id="text_33">
    <!-- SPD (27) -->
    <g transform="translate(361.8625 168.379687)scale(0.1 -0.1)">
     <use xlink:href="#DejaVuSans-83"/>
     <use x="63.476562" xlink:href="#DejaVuSans-80"/>
     <use x="123.779297" xlink:href="#DejaVuSans-68"/>
     <use x="200.78125" xlink:href="#DejaVuSans-32"/>
     <use x="232.568359" xlink:href="#DejaVuSans-40"/>
     <use x="271.582031" xlink:href="#DejaVuSans-50"/>
     <use x="335.205078" xlink:href="#DejaVuSans-55"/>
     <use x="398.828125" xlink:href="#DejaVuSans-41"/>
    </g>
   </g>
   <g id="line2d_74">
    <path d="M 333.8625 179.557812 
L 353.8625 179.557812 
" style="fill:none;stroke:#7570b3;stroke-dasharray:4.5,1.5;stroke-dashoffset:0;stroke-width:1.5;"/>
   </g>
   <g id="line2d_75"/>
   <g id="text_34">
    <!-- BP (26) -->
    <g transform="translate(361.8625 183.057812)scale(0.1 -0.1)">
     <use xlink:href="#DejaVuSans-66"/>
     <use x="68.603516" xlink:href="#DejaVuSans-80"/>
     <use x="128.90625" xlink:href="#DejaVuSans-32"/>
     <use x="160.693359" xlink:href="#DejaVuSans-40"/>
     <use x="199.707031" xlink:href="#DejaVuSans-50"/>
     <use x="263.330078" xlink:href="#DejaVuSans-54"/>
     <use x="326.953125" xlink:href="#DejaVuSans-41"/>
    </g>
   </g>
   <g id="line2d_76">
    <path d="M 333.8625 194.235937 
L 353.8625 194.235937 
" style="fill:none;stroke:#e7298a;stroke-dasharray:4.5,1.5;stroke-dashoffset:0;stroke-width:1.5;"/>
   </g>
   <g id="line2d_77"/>
   <g id="text_35">
    <!-- CC (25) -->
    <g transform="translate(361.8625 197.735937)scale(0.1 -0.1)">
     <use xlink:href="#DejaVuSans-67"/>
     <use x="69.824219" xlink:href="#DejaVuSans-67"/>
     <use x="139.648438" xlink:href="#DejaVuSans-32"/>
     <use x="171.435547" xlink:href="#DejaVuSans-40"/>
     <use x="210.449219" xlink:href="#DejaVuSans-50"/>
     <use x="274.072266" xlink:href="#DejaVuSans-53"/>
     <use x="337.695312" xlink:href="#DejaVuSans-41"/>
    </g>
   </g>
   <g id="line2d_78">
    <path d="M 333.8625 208.914062 
L 353.8625 208.914062 
" style="fill:none;stroke:#66a61e;stroke-dasharray:4.5,1.5;stroke-dashoffset:0;stroke-width:1.5;"/>
   </g>
   <g id="line2d_79"/>
   <g id="text_36">
    <!-- RJPH (20) -->
    <defs>
     <path d="M 9.8125 72.90625 
L 19.671875 72.90625 
L 19.671875 5.078125 
Q 19.671875 -8.109375 14.671875 -14.0625 
Q 9.671875 -20.015625 -1.421875 -20.015625 
L -5.171875 -20.015625 
L -5.171875 -11.71875 
L -2.09375 -11.71875 
Q 4.4375 -11.71875 7.125 -8.046875 
Q 9.8125 -4.390625 9.8125 5.078125 
z
" id="DejaVuSans-74"/>
    </defs>
    <g transform="translate(361.8625 212.414062)scale(0.1 -0.1)">
     <use xlink:href="#DejaVuSans-82"/>
     <use x="69.482422" xlink:href="#DejaVuSans-74"/>
     <use x="98.974609" xlink:href="#DejaVuSans-80"/>
     <use x="159.277344" xlink:href="#DejaVuSans-72"/>
     <use x="234.472656" xlink:href="#DejaVuSans-32"/>
     <use x="266.259766" xlink:href="#DejaVuSans-40"/>
     <use x="305.273438" xlink:href="#DejaVuSans-50"/>
     <use x="368.896484" xlink:href="#DejaVuSans-48"/>
     <use x="432.519531" xlink:href="#DejaVuSans-41"/>
    </g>
   </g>
   <g id="line2d_80">
    <path d="M 333.8625 223.592187 
L 353.8625 223.592187 
" style="fill:none;stroke:#e6ab02;stroke-dasharray:4.5,1.5;stroke-dashoffset:0;stroke-width:1.5;"/>
   </g>
   <g id="line2d_81"/>
   <g id="text_37">
    <!-- AHR-H (20) -->
    <g transform="translate(361.8625 227.092187)scale(0.1 -0.1)">
     <use xlink:href="#DejaVuSans-65"/>
     <use x="68.408203" xlink:href="#DejaVuSans-72"/>
     <use x="143.603516" xlink:href="#DejaVuSans-82"/>
     <use x="213.023438" xlink:href="#DejaVuSans-45"/>
     <use x="249.107422" xlink:href="#DejaVuSans-72"/>
     <use x="324.302734" xlink:href="#DejaVuSans-32"/>
     <use x="356.089844" xlink:href="#DejaVuSans-40"/>
     <use x="395.103516" xlink:href="#DejaVuSans-50"/>
     <use x="458.726562" xlink:href="#DejaVuSans-48"/>
     <use x="522.349609" xlink:href="#DejaVuSans-41"/>
    </g>
   </g>
   <g id="line2d_82">
    <path d="M 333.8625 238.270312 
L 353.8625 238.270312 
" style="fill:none;stroke:#a6761d;stroke-dasharray:4.5,1.5;stroke-dashoffset:0;stroke-width:1.5;"/>
   </g>
   <g id="line2d_83"/>
   <g id="text_38">
    <!-- CB (20) -->
    <g transform="translate(361.8625 241.770312)scale(0.1 -0.1)">
     <use xlink:href="#DejaVuSans-67"/>
     <use x="69.824219" xlink:href="#DejaVuSans-66"/>
     <use x="138.427734" xlink:href="#DejaVuSans-32"/>
     <use x="170.214844" xlink:href="#DejaVuSans-40"/>
     <use x="209.228516" xlink:href="#DejaVuSans-50"/>
     <use x="272.851562" xlink:href="#DejaVuSans-48"/>
     <use x="336.474609" xlink:href="#DejaVuSans-41"/>
    </g>
   </g>
   <g id="line2d_84">
    <path d="M 333.8625 252.948437 
L 353.8625 252.948437 
" style="fill:none;stroke:#666666;stroke-dasharray:4.5,1.5;stroke-dashoffset:0;stroke-width:1.5;"/>
   </g>
   <g id="line2d_85"/>
   <g id="text_39">
    <!-- AHR-A (15) -->
    <g transform="translate(361.8625 256.448437)scale(0.1 -0.1)">
     <use xlink:href="#DejaVuSans-65"/>
     <use x="68.408203" xlink:href="#DejaVuSans-72"/>
     <use x="143.603516" xlink:href="#DejaVuSans-82"/>
     <use x="213.023438" xlink:href="#DejaVuSans-45"/>
     <use x="249.076172" xlink:href="#DejaVuSans-65"/>
     <use x="317.484375" xlink:href="#DejaVuSans-32"/>
     <use x="349.271484" xlink:href="#DejaVuSans-40"/>
     <use x="388.285156" xlink:href="#DejaVuSans-49"/>
     <use x="451.908203" xlink:href="#DejaVuSans-53"/>
     <use x="515.53125" xlink:href="#DejaVuSans-41"/>
    </g>
   </g>
  </g>
 </g>
 <defs>
  <clipPath id="p7c4135baf4">
   <rect height="207.330771" width="271.81" x="43.55" y="12.9"/>
  </clipPath>
 </defs>
</svg>
