<?xml version="1.0" encoding="utf-8" standalone="no"?>
<!DOCTYPE svg PUBLIC "-//W3C//DTD SVG 1.1//EN"
  "http://www.w3.org/Graphics/SVG/1.1/DTD/svg11.dtd">
<!-- Created with matplotlib (https://matplotlib.org/) -->
<svg height="288pt" version="1.1" viewBox="0 0 432 288" width="432pt" xmlns="http://www.w3.org/2000/svg" xmlns:xlink="http://www.w3.org/1999/xlink">
 <defs>
  <style type="text/css">
*{stroke-linecap:butt;stroke-linejoin:round;}
  </style>
 </defs>
 <g id="figure_1">
  <g id="patch_1">
   <path d="M 0 288 
L 432 288 
L 432 0 
L 0 0 
z
" style="fill:#ffffff;"/>
  </g>
  <g id="axes_1">
   <g id="patch_2">
    <path d="M 43.55 220.230771 
L 315.36 220.230771 
L 315.36 12.9 
L 43.55 12.9 
z
" style="fill:#ffffff;"/>
   </g>
   <g id="matplotlib.axis_1">
    <g id="xtick_1">
     <g id="line2d_1">
      <defs>
       <path d="M 0 0 
L 0 3.5 
" id="m069ca6b649" style="stroke:#000000;stroke-width:0.8;"/>
      </defs>
      <g>
       <use style="stroke:#000000;stroke-width:0.8;" x="44.943253" xlink:href="#m069ca6b649" y="220.230771"/>
      </g>
     </g>
     <g id="text_1">
      <!-- 2020-11-29 -->
      <defs>
       <path d="M 19.1875 8.296875 
L 53.609375 8.296875 
L 53.609375 0 
L 7.328125 0 
L 7.328125 8.296875 
Q 12.9375 14.109375 22.625 23.890625 
Q 32.328125 33.6875 34.8125 36.53125 
Q 39.546875 41.84375 41.421875 45.53125 
Q 43.3125 49.21875 43.3125 52.78125 
Q 43.3125 58.59375 39.234375 62.25 
Q 35.15625 65.921875 28.609375 65.921875 
Q 23.96875 65.921875 18.8125 64.3125 
Q 13.671875 62.703125 7.8125 59.421875 
L 7.8125 69.390625 
Q 13.765625 71.78125 18.9375 73 
Q 24.125 74.21875 28.421875 74.21875 
Q 39.75 74.21875 46.484375 68.546875 
Q 53.21875 62.890625 53.21875 53.421875 
Q 53.21875 48.921875 51.53125 44.890625 
Q 49.859375 40.875 45.40625 35.40625 
Q 44.1875 33.984375 37.640625 27.21875 
Q 31.109375 20.453125 19.1875 8.296875 
z
" id="DejaVuSans-50"/>
       <path d="M 31.78125 66.40625 
Q 24.171875 66.40625 20.328125 58.90625 
Q 16.5 51.421875 16.5 36.375 
Q 16.5 21.390625 20.328125 13.890625 
Q 24.171875 6.390625 31.78125 6.390625 
Q 39.453125 6.390625 43.28125 13.890625 
Q 47.125 21.390625 47.125 36.375 
Q 47.125 51.421875 43.28125 58.90625 
Q 39.453125 66.40625 31.78125 66.40625 
z
M 31.78125 74.21875 
Q 44.046875 74.21875 50.515625 64.515625 
Q 56.984375 54.828125 56.984375 36.375 
Q 56.984375 17.96875 50.515625 8.265625 
Q 44.046875 -1.421875 31.78125 -1.421875 
Q 19.53125 -1.421875 13.0625 8.265625 
Q 6.59375 17.96875 6.59375 36.375 
Q 6.59375 54.828125 13.0625 64.515625 
Q 19.53125 74.21875 31.78125 74.21875 
z
" id="DejaVuSans-48"/>
       <path d="M 4.890625 31.390625 
L 31.203125 31.390625 
L 31.203125 23.390625 
L 4.890625 23.390625 
z
" id="DejaVuSans-45"/>
       <path d="M 12.40625 8.296875 
L 28.515625 8.296875 
L 28.515625 63.921875 
L 10.984375 60.40625 
L 10.984375 69.390625 
L 28.421875 72.90625 
L 38.28125 72.90625 
L 38.28125 8.296875 
L 54.390625 8.296875 
L 54.390625 0 
L 12.40625 0 
z
" id="DejaVuSans-49"/>
       <path d="M 10.984375 1.515625 
L 10.984375 10.5 
Q 14.703125 8.734375 18.5 7.8125 
Q 22.3125 6.890625 25.984375 6.890625 
Q 35.75 6.890625 40.890625 13.453125 
Q 46.046875 20.015625 46.78125 33.40625 
Q 43.953125 29.203125 39.59375 26.953125 
Q 35.25 24.703125 29.984375 24.703125 
Q 19.046875 24.703125 12.671875 31.3125 
Q 6.296875 37.9375 6.296875 49.421875 
Q 6.296875 60.640625 12.9375 67.421875 
Q 19.578125 74.21875 30.609375 74.21875 
Q 43.265625 74.21875 49.921875 64.515625 
Q 56.59375 54.828125 56.59375 36.375 
Q 56.59375 19.140625 48.40625 8.859375 
Q 40.234375 -1.421875 26.421875 -1.421875 
Q 22.703125 -1.421875 18.890625 -0.6875 
Q 15.09375 0.046875 10.984375 1.515625 
z
M 30.609375 32.421875 
Q 37.25 32.421875 41.125 36.953125 
Q 45.015625 41.5 45.015625 49.421875 
Q 45.015625 57.28125 41.125 61.84375 
Q 37.25 66.40625 30.609375 66.40625 
Q 23.96875 66.40625 20.09375 61.84375 
Q 16.21875 57.28125 16.21875 49.421875 
Q 16.21875 41.5 20.09375 36.953125 
Q 23.96875 32.421875 30.609375 32.421875 
z
" id="DejaVuSans-57"/>
      </defs>
      <g transform="translate(21.158137 262.869024)rotate(-30)scale(0.1 -0.1)">
       <use xlink:href="#DejaVuSans-50"/>
       <use x="63.623047" xlink:href="#DejaVuSans-48"/>
       <use x="127.246094" xlink:href="#DejaVuSans-50"/>
       <use x="190.869141" xlink:href="#DejaVuSans-48"/>
       <use x="254.492188" xlink:href="#DejaVuSans-45"/>
       <use x="290.576172" xlink:href="#DejaVuSans-49"/>
       <use x="354.199219" xlink:href="#DejaVuSans-49"/>
       <use x="417.822266" xlink:href="#DejaVuSans-45"/>
       <use x="453.90625" xlink:href="#DejaVuSans-50"/>
       <use x="517.529297" xlink:href="#DejaVuSans-57"/>
      </g>
     </g>
    </g>
    <g id="xtick_2">
     <g id="line2d_2">
      <g>
       <use style="stroke:#000000;stroke-width:0.8;" x="60.081576" xlink:href="#m069ca6b649" y="220.230771"/>
      </g>
     </g>
     <g id="text_2">
      <!-- 2020-12-01 -->
      <g transform="translate(36.29646 262.869024)rotate(-30)scale(0.1 -0.1)">
       <use xlink:href="#DejaVuSans-50"/>
       <use x="63.623047" xlink:href="#DejaVuSans-48"/>
       <use x="127.246094" xlink:href="#DejaVuSans-50"/>
       <use x="190.869141" xlink:href="#DejaVuSans-48"/>
       <use x="254.492188" xlink:href="#DejaVuSans-45"/>
       <use x="290.576172" xlink:href="#DejaVuSans-49"/>
       <use x="354.199219" xlink:href="#DejaVuSans-50"/>
       <use x="417.822266" xlink:href="#DejaVuSans-45"/>
       <use x="453.90625" xlink:href="#DejaVuSans-48"/>
       <use x="517.529297" xlink:href="#DejaVuSans-49"/>
      </g>
     </g>
    </g>
    <g id="xtick_3">
     <g id="line2d_3">
      <g>
       <use style="stroke:#000000;stroke-width:0.8;" x="90.358223" xlink:href="#m069ca6b649" y="220.230771"/>
      </g>
     </g>
     <g id="text_3">
      <!-- 2020-12-05 -->
      <defs>
       <path d="M 10.796875 72.90625 
L 49.515625 72.90625 
L 49.515625 64.59375 
L 19.828125 64.59375 
L 19.828125 46.734375 
Q 21.96875 47.46875 24.109375 47.828125 
Q 26.265625 48.1875 28.421875 48.1875 
Q 40.625 48.1875 47.75 41.5 
Q 54.890625 34.8125 54.890625 23.390625 
Q 54.890625 11.625 47.5625 5.09375 
Q 40.234375 -1.421875 26.90625 -1.421875 
Q 22.3125 -1.421875 17.546875 -0.640625 
Q 12.796875 0.140625 7.71875 1.703125 
L 7.71875 11.625 
Q 12.109375 9.234375 16.796875 8.0625 
Q 21.484375 6.890625 26.703125 6.890625 
Q 35.15625 6.890625 40.078125 11.328125 
Q 45.015625 15.765625 45.015625 23.390625 
Q 45.015625 31 40.078125 35.4375 
Q 35.15625 39.890625 26.703125 39.890625 
Q 22.75 39.890625 18.8125 39.015625 
Q 14.890625 38.140625 10.796875 36.28125 
z
" id="DejaVuSans-53"/>
      </defs>
      <g transform="translate(66.573107 262.869024)rotate(-30)scale(0.1 -0.1)">
       <use xlink:href="#DejaVuSans-50"/>
       <use x="63.623047" xlink:href="#DejaVuSans-48"/>
       <use x="127.246094" xlink:href="#DejaVuSans-50"/>
       <use x="190.869141" xlink:href="#DejaVuSans-48"/>
       <use x="254.492188" xlink:href="#DejaVuSans-45"/>
       <use x="290.576172" xlink:href="#DejaVuSans-49"/>
       <use x="354.199219" xlink:href="#DejaVuSans-50"/>
       <use x="417.822266" xlink:href="#DejaVuSans-45"/>
       <use x="453.90625" xlink:href="#DejaVuSans-48"/>
       <use x="517.529297" xlink:href="#DejaVuSans-53"/>
      </g>
     </g>
    </g>
    <g id="xtick_4">
     <g id="line2d_4">
      <g>
       <use style="stroke:#000000;stroke-width:0.8;" x="120.63487" xlink:href="#m069ca6b649" y="220.230771"/>
      </g>
     </g>
     <g id="text_4">
      <!-- 2020-12-09 -->
      <g transform="translate(96.849753 262.869024)rotate(-30)scale(0.1 -0.1)">
       <use xlink:href="#DejaVuSans-50"/>
       <use x="63.623047" xlink:href="#DejaVuSans-48"/>
       <use x="127.246094" xlink:href="#DejaVuSans-50"/>
       <use x="190.869141" xlink:href="#DejaVuSans-48"/>
       <use x="254.492188" xlink:href="#DejaVuSans-45"/>
       <use x="290.576172" xlink:href="#DejaVuSans-49"/>
       <use x="354.199219" xlink:href="#DejaVuSans-50"/>
       <use x="417.822266" xlink:href="#DejaVuSans-45"/>
       <use x="453.90625" xlink:href="#DejaVuSans-48"/>
       <use x="517.529297" xlink:href="#DejaVuSans-57"/>
      </g>
     </g>
    </g>
    <g id="xtick_5">
     <g id="line2d_5">
      <g>
       <use style="stroke:#000000;stroke-width:0.8;" x="150.911516" xlink:href="#m069ca6b649" y="220.230771"/>
      </g>
     </g>
     <g id="text_5">
      <!-- 2020-12-13 -->
      <defs>
       <path d="M 40.578125 39.3125 
Q 47.65625 37.796875 51.625 33 
Q 55.609375 28.21875 55.609375 21.1875 
Q 55.609375 10.40625 48.1875 4.484375 
Q 40.765625 -1.421875 27.09375 -1.421875 
Q 22.515625 -1.421875 17.65625 -0.515625 
Q 12.796875 0.390625 7.625 2.203125 
L 7.625 11.71875 
Q 11.71875 9.328125 16.59375 8.109375 
Q 21.484375 6.890625 26.8125 6.890625 
Q 36.078125 6.890625 40.9375 10.546875 
Q 45.796875 14.203125 45.796875 21.1875 
Q 45.796875 27.640625 41.28125 31.265625 
Q 36.765625 34.90625 28.71875 34.90625 
L 20.21875 34.90625 
L 20.21875 43.015625 
L 29.109375 43.015625 
Q 36.375 43.015625 40.234375 45.921875 
Q 44.09375 48.828125 44.09375 54.296875 
Q 44.09375 59.90625 40.109375 62.90625 
Q 36.140625 65.921875 28.71875 65.921875 
Q 24.65625 65.921875 20.015625 65.03125 
Q 15.375 64.15625 9.8125 62.3125 
L 9.8125 71.09375 
Q 15.4375 72.65625 20.34375 73.4375 
Q 25.25 74.21875 29.59375 74.21875 
Q 40.828125 74.21875 47.359375 69.109375 
Q 53.90625 64.015625 53.90625 55.328125 
Q 53.90625 49.265625 50.4375 45.09375 
Q 46.96875 40.921875 40.578125 39.3125 
z
" id="DejaVuSans-51"/>
      </defs>
      <g transform="translate(127.1264 262.869024)rotate(-30)scale(0.1 -0.1)">
       <use xlink:href="#DejaVuSans-50"/>
       <use x="63.623047" xlink:href="#DejaVuSans-48"/>
       <use x="127.246094" xlink:href="#DejaVuSans-50"/>
       <use x="190.869141" xlink:href="#DejaVuSans-48"/>
       <use x="254.492188" xlink:href="#DejaVuSans-45"/>
       <use x="290.576172" xlink:href="#DejaVuSans-49"/>
       <use x="354.199219" xlink:href="#DejaVuSans-50"/>
       <use x="417.822266" xlink:href="#DejaVuSans-45"/>
       <use x="453.90625" xlink:href="#DejaVuSans-49"/>
       <use x="517.529297" xlink:href="#DejaVuSans-51"/>
      </g>
     </g>
    </g>
    <g id="xtick_6">
     <g id="line2d_6">
      <g>
       <use style="stroke:#000000;stroke-width:0.8;" x="181.188163" xlink:href="#m069ca6b649" y="220.230771"/>
      </g>
     </g>
     <g id="text_6">
      <!-- 2020-12-17 -->
      <defs>
       <path d="M 8.203125 72.90625 
L 55.078125 72.90625 
L 55.078125 68.703125 
L 28.609375 0 
L 18.3125 0 
L 43.21875 64.59375 
L 8.203125 64.59375 
z
" id="DejaVuSans-55"/>
      </defs>
      <g transform="translate(157.403046 262.869024)rotate(-30)scale(0.1 -0.1)">
       <use xlink:href="#DejaVuSans-50"/>
       <use x="63.623047" xlink:href="#DejaVuSans-48"/>
       <use x="127.246094" xlink:href="#DejaVuSans-50"/>
       <use x="190.869141" xlink:href="#DejaVuSans-48"/>
       <use x="254.492188" xlink:href="#DejaVuSans-45"/>
       <use x="290.576172" xlink:href="#DejaVuSans-49"/>
       <use x="354.199219" xlink:href="#DejaVuSans-50"/>
       <use x="417.822266" xlink:href="#DejaVuSans-45"/>
       <use x="453.90625" xlink:href="#DejaVuSans-49"/>
       <use x="517.529297" xlink:href="#DejaVuSans-55"/>
      </g>
     </g>
    </g>
    <g id="xtick_7">
     <g id="line2d_7">
      <g>
       <use style="stroke:#000000;stroke-width:0.8;" x="211.464809" xlink:href="#m069ca6b649" y="220.230771"/>
      </g>
     </g>
     <g id="text_7">
      <!-- 2020-12-21 -->
      <g transform="translate(187.679693 262.869024)rotate(-30)scale(0.1 -0.1)">
       <use xlink:href="#DejaVuSans-50"/>
       <use x="63.623047" xlink:href="#DejaVuSans-48"/>
       <use x="127.246094" xlink:href="#DejaVuSans-50"/>
       <use x="190.869141" xlink:href="#DejaVuSans-48"/>
       <use x="254.492188" xlink:href="#DejaVuSans-45"/>
       <use x="290.576172" xlink:href="#DejaVuSans-49"/>
       <use x="354.199219" xlink:href="#DejaVuSans-50"/>
       <use x="417.822266" xlink:href="#DejaVuSans-45"/>
       <use x="453.90625" xlink:href="#DejaVuSans-50"/>
       <use x="517.529297" xlink:href="#DejaVuSans-49"/>
      </g>
     </g>
    </g>
    <g id="xtick_8">
     <g id="line2d_8">
      <g>
       <use style="stroke:#000000;stroke-width:0.8;" x="241.741456" xlink:href="#m069ca6b649" y="220.230771"/>
      </g>
     </g>
     <g id="text_8">
      <!-- 2020-12-25 -->
      <g transform="translate(217.956339 262.869024)rotate(-30)scale(0.1 -0.1)">
       <use xlink:href="#DejaVuSans-50"/>
       <use x="63.623047" xlink:href="#DejaVuSans-48"/>
       <use x="127.246094" xlink:href="#DejaVuSans-50"/>
       <use x="190.869141" xlink:href="#DejaVuSans-48"/>
       <use x="254.492188" xlink:href="#DejaVuSans-45"/>
       <use x="290.576172" xlink:href="#DejaVuSans-49"/>
       <use x="354.199219" xlink:href="#DejaVuSans-50"/>
       <use x="417.822266" xlink:href="#DejaVuSans-45"/>
       <use x="453.90625" xlink:href="#DejaVuSans-50"/>
       <use x="517.529297" xlink:href="#DejaVuSans-53"/>
      </g>
     </g>
    </g>
    <g id="xtick_9">
     <g id="line2d_9">
      <g>
       <use style="stroke:#000000;stroke-width:0.8;" x="272.018102" xlink:href="#m069ca6b649" y="220.230771"/>
      </g>
     </g>
     <g id="text_9">
      <!-- 2020-12-29 -->
      <g transform="translate(248.232986 262.869024)rotate(-30)scale(0.1 -0.1)">
       <use xlink:href="#DejaVuSans-50"/>
       <use x="63.623047" xlink:href="#DejaVuSans-48"/>
       <use x="127.246094" xlink:href="#DejaVuSans-50"/>
       <use x="190.869141" xlink:href="#DejaVuSans-48"/>
       <use x="254.492188" xlink:href="#DejaVuSans-45"/>
       <use x="290.576172" xlink:href="#DejaVuSans-49"/>
       <use x="354.199219" xlink:href="#DejaVuSans-50"/>
       <use x="417.822266" xlink:href="#DejaVuSans-45"/>
       <use x="453.90625" xlink:href="#DejaVuSans-50"/>
       <use x="517.529297" xlink:href="#DejaVuSans-57"/>
      </g>
     </g>
    </g>
    <g id="xtick_10">
     <g id="line2d_10">
      <g>
       <use style="stroke:#000000;stroke-width:0.8;" x="294.725587" xlink:href="#m069ca6b649" y="220.230771"/>
      </g>
     </g>
     <g id="text_10">
      <!-- 2021-01-01 -->
      <g transform="translate(270.940471 262.869024)rotate(-30)scale(0.1 -0.1)">
       <use xlink:href="#DejaVuSans-50"/>
       <use x="63.623047" xlink:href="#DejaVuSans-48"/>
       <use x="127.246094" xlink:href="#DejaVuSans-50"/>
       <use x="190.869141" xlink:href="#DejaVuSans-49"/>
       <use x="254.492188" xlink:href="#DejaVuSans-45"/>
       <use x="290.576172" xlink:href="#DejaVuSans-48"/>
       <use x="354.199219" xlink:href="#DejaVuSans-49"/>
       <use x="417.822266" xlink:href="#DejaVuSans-45"/>
       <use x="453.90625" xlink:href="#DejaVuSans-48"/>
       <use x="517.529297" xlink:href="#DejaVuSans-49"/>
      </g>
     </g>
    </g>
    <g id="text_11">
     <!-- Date -->
     <defs>
      <path d="M 19.671875 64.796875 
L 19.671875 8.109375 
L 31.59375 8.109375 
Q 46.6875 8.109375 53.6875 14.9375 
Q 60.6875 21.78125 60.6875 36.53125 
Q 60.6875 51.171875 53.6875 57.984375 
Q 46.6875 64.796875 31.59375 64.796875 
z
M 9.8125 72.90625 
L 30.078125 72.90625 
Q 51.265625 72.90625 61.171875 64.09375 
Q 71.09375 55.28125 71.09375 36.53125 
Q 71.09375 17.671875 61.125 8.828125 
Q 51.171875 0 30.078125 0 
L 9.8125 0 
z
" id="DejaVuSans-68"/>
      <path d="M 34.28125 27.484375 
Q 23.390625 27.484375 19.1875 25 
Q 14.984375 22.515625 14.984375 16.5 
Q 14.984375 11.71875 18.140625 8.90625 
Q 21.296875 6.109375 26.703125 6.109375 
Q 34.1875 6.109375 38.703125 11.40625 
Q 43.21875 16.703125 43.21875 25.484375 
L 43.21875 27.484375 
z
M 52.203125 31.203125 
L 52.203125 0 
L 43.21875 0 
L 43.21875 8.296875 
Q 40.140625 3.328125 35.546875 0.953125 
Q 30.953125 -1.421875 24.3125 -1.421875 
Q 15.921875 -1.421875 10.953125 3.296875 
Q 6 8.015625 6 15.921875 
Q 6 25.140625 12.171875 29.828125 
Q 18.359375 34.515625 30.609375 34.515625 
L 43.21875 34.515625 
L 43.21875 35.40625 
Q 43.21875 41.609375 39.140625 45 
Q 35.0625 48.390625 27.6875 48.390625 
Q 23 48.390625 18.546875 47.265625 
Q 14.109375 46.140625 10.015625 43.890625 
L 10.015625 52.203125 
Q 14.9375 54.109375 19.578125 55.046875 
Q 24.21875 56 28.609375 56 
Q 40.484375 56 46.34375 49.84375 
Q 52.203125 43.703125 52.203125 31.203125 
z
" id="DejaVuSans-97"/>
      <path d="M 18.3125 70.21875 
L 18.3125 54.6875 
L 36.8125 54.6875 
L 36.8125 47.703125 
L 18.3125 47.703125 
L 18.3125 18.015625 
Q 18.3125 11.328125 20.140625 9.421875 
Q 21.96875 7.515625 27.59375 7.515625 
L 36.8125 7.515625 
L 36.8125 0 
L 27.59375 0 
Q 17.1875 0 13.234375 3.875 
Q 9.28125 7.765625 9.28125 18.015625 
L 9.28125 47.703125 
L 2.6875 47.703125 
L 2.6875 54.6875 
L 9.28125 54.6875 
L 9.28125 70.21875 
z
" id="DejaVuSans-116"/>
      <path d="M 56.203125 29.59375 
L 56.203125 25.203125 
L 14.890625 25.203125 
Q 15.484375 15.921875 20.484375 11.0625 
Q 25.484375 6.203125 34.421875 6.203125 
Q 39.59375 6.203125 44.453125 7.46875 
Q 49.3125 8.734375 54.109375 11.28125 
L 54.109375 2.78125 
Q 49.265625 0.734375 44.1875 -0.34375 
Q 39.109375 -1.421875 33.890625 -1.421875 
Q 20.796875 -1.421875 13.15625 6.1875 
Q 5.515625 13.8125 5.515625 26.8125 
Q 5.515625 40.234375 12.765625 48.109375 
Q 20.015625 56 32.328125 56 
Q 43.359375 56 49.78125 48.890625 
Q 56.203125 41.796875 56.203125 29.59375 
z
M 47.21875 32.234375 
Q 47.125 39.59375 43.09375 43.984375 
Q 39.0625 48.390625 32.421875 48.390625 
Q 24.90625 48.390625 20.390625 44.140625 
Q 15.875 39.890625 15.1875 32.171875 
z
" id="DejaVuSans-101"/>
     </defs>
     <g transform="translate(167.504219 276.268523)scale(0.1 -0.1)">
      <use xlink:href="#DejaVuSans-68"/>
      <use x="77.001953" xlink:href="#DejaVuSans-97"/>
      <use x="138.28125" xlink:href="#DejaVuSans-116"/>
      <use x="177.490234" xlink:href="#DejaVuSans-101"/>
     </g>
    </g>
   </g>
   <g id="matplotlib.axis_2">
    <g id="ytick_1">
     <g id="line2d_11">
      <defs>
       <path d="M 0 0 
L -3.5 0 
" id="m96310e672e" style="stroke:#000000;stroke-width:0.8;"/>
      </defs>
      <g>
       <use style="stroke:#000000;stroke-width:0.8;" x="43.55" xlink:href="#m96310e672e" y="210.806645"/>
      </g>
     </g>
     <g id="text_12">
      <!-- 0 -->
      <g transform="translate(30.1875 214.605864)scale(0.1 -0.1)">
       <use xlink:href="#DejaVuSans-48"/>
      </g>
     </g>
    </g>
    <g id="ytick_2">
     <g id="line2d_12">
      <g>
       <use style="stroke:#000000;stroke-width:0.8;" x="43.55" xlink:href="#m96310e672e" y="187.24633"/>
      </g>
     </g>
     <g id="text_13">
      <!-- 5 -->
      <g transform="translate(30.1875 191.045549)scale(0.1 -0.1)">
       <use xlink:href="#DejaVuSans-53"/>
      </g>
     </g>
    </g>
    <g id="ytick_3">
     <g id="line2d_13">
      <g>
       <use style="stroke:#000000;stroke-width:0.8;" x="43.55" xlink:href="#m96310e672e" y="163.686016"/>
      </g>
     </g>
     <g id="text_14">
      <!-- 10 -->
      <g transform="translate(23.825 167.485234)scale(0.1 -0.1)">
       <use xlink:href="#DejaVuSans-49"/>
       <use x="63.623047" xlink:href="#DejaVuSans-48"/>
      </g>
     </g>
    </g>
    <g id="ytick_4">
     <g id="line2d_14">
      <g>
       <use style="stroke:#000000;stroke-width:0.8;" x="43.55" xlink:href="#m96310e672e" y="140.125701"/>
      </g>
     </g>
     <g id="text_15">
      <!-- 15 -->
      <g transform="translate(23.825 143.924919)scale(0.1 -0.1)">
       <use xlink:href="#DejaVuSans-49"/>
       <use x="63.623047" xlink:href="#DejaVuSans-53"/>
      </g>
     </g>
    </g>
    <g id="ytick_5">
     <g id="line2d_15">
      <g>
       <use style="stroke:#000000;stroke-width:0.8;" x="43.55" xlink:href="#m96310e672e" y="116.565386"/>
      </g>
     </g>
     <g id="text_16">
      <!-- 20 -->
      <g transform="translate(23.825 120.364604)scale(0.1 -0.1)">
       <use xlink:href="#DejaVuSans-50"/>
       <use x="63.623047" xlink:href="#DejaVuSans-48"/>
      </g>
     </g>
    </g>
    <g id="ytick_6">
     <g id="line2d_16">
      <g>
       <use style="stroke:#000000;stroke-width:0.8;" x="43.55" xlink:href="#m96310e672e" y="93.005071"/>
      </g>
     </g>
     <g id="text_17">
      <!-- 25 -->
      <g transform="translate(23.825 96.80429)scale(0.1 -0.1)">
       <use xlink:href="#DejaVuSans-50"/>
       <use x="63.623047" xlink:href="#DejaVuSans-53"/>
      </g>
     </g>
    </g>
    <g id="ytick_7">
     <g id="line2d_17">
      <g>
       <use style="stroke:#000000;stroke-width:0.8;" x="43.55" xlink:href="#m96310e672e" y="69.444756"/>
      </g>
     </g>
     <g id="text_18">
      <!-- 30 -->
      <g transform="translate(23.825 73.243975)scale(0.1 -0.1)">
       <use xlink:href="#DejaVuSans-51"/>
       <use x="63.623047" xlink:href="#DejaVuSans-48"/>
      </g>
     </g>
    </g>
    <g id="ytick_8">
     <g id="line2d_18">
      <g>
       <use style="stroke:#000000;stroke-width:0.8;" x="43.55" xlink:href="#m96310e672e" y="45.884441"/>
      </g>
     </g>
     <g id="text_19">
      <!-- 35 -->
      <g transform="translate(23.825 49.68366)scale(0.1 -0.1)">
       <use xlink:href="#DejaVuSans-51"/>
       <use x="63.623047" xlink:href="#DejaVuSans-53"/>
      </g>
     </g>
    </g>
    <g id="ytick_9">
     <g id="line2d_19">
      <g>
       <use style="stroke:#000000;stroke-width:0.8;" x="43.55" xlink:href="#m96310e672e" y="22.324126"/>
      </g>
     </g>
     <g id="text_20">
      <!-- 40 -->
      <defs>
       <path d="M 37.796875 64.3125 
L 12.890625 25.390625 
L 37.796875 25.390625 
z
M 35.203125 72.90625 
L 47.609375 72.90625 
L 47.609375 25.390625 
L 58.015625 25.390625 
L 58.015625 17.1875 
L 47.609375 17.1875 
L 47.609375 0 
L 37.796875 0 
L 37.796875 17.1875 
L 4.890625 17.1875 
L 4.890625 26.703125 
z
" id="DejaVuSans-52"/>
      </defs>
      <g transform="translate(23.825 26.123345)scale(0.1 -0.1)">
       <use xlink:href="#DejaVuSans-52"/>
       <use x="63.623047" xlink:href="#DejaVuSans-48"/>
      </g>
     </g>
    </g>
    <g id="text_21">
     <!-- Students Registered -->
     <defs>
      <path d="M 53.515625 70.515625 
L 53.515625 60.890625 
Q 47.90625 63.578125 42.921875 64.890625 
Q 37.9375 66.21875 33.296875 66.21875 
Q 25.25 66.21875 20.875 63.09375 
Q 16.5 59.96875 16.5 54.203125 
Q 16.5 49.359375 19.40625 46.890625 
Q 22.3125 44.4375 30.421875 42.921875 
L 36.375 41.703125 
Q 47.40625 39.59375 52.65625 34.296875 
Q 57.90625 29 57.90625 20.125 
Q 57.90625 9.515625 50.796875 4.046875 
Q 43.703125 -1.421875 29.984375 -1.421875 
Q 24.8125 -1.421875 18.96875 -0.25 
Q 13.140625 0.921875 6.890625 3.21875 
L 6.890625 13.375 
Q 12.890625 10.015625 18.65625 8.296875 
Q 24.421875 6.59375 29.984375 6.59375 
Q 38.421875 6.59375 43.015625 9.90625 
Q 47.609375 13.234375 47.609375 19.390625 
Q 47.609375 24.75 44.3125 27.78125 
Q 41.015625 30.8125 33.5 32.328125 
L 27.484375 33.5 
Q 16.453125 35.6875 11.515625 40.375 
Q 6.59375 45.0625 6.59375 53.421875 
Q 6.59375 63.09375 13.40625 68.65625 
Q 20.21875 74.21875 32.171875 74.21875 
Q 37.3125 74.21875 42.625 73.28125 
Q 47.953125 72.359375 53.515625 70.515625 
z
" id="DejaVuSans-83"/>
      <path d="M 8.5 21.578125 
L 8.5 54.6875 
L 17.484375 54.6875 
L 17.484375 21.921875 
Q 17.484375 14.15625 20.5 10.265625 
Q 23.53125 6.390625 29.59375 6.390625 
Q 36.859375 6.390625 41.078125 11.03125 
Q 45.3125 15.671875 45.3125 23.6875 
L 45.3125 54.6875 
L 54.296875 54.6875 
L 54.296875 0 
L 45.3125 0 
L 45.3125 8.40625 
Q 42.046875 3.421875 37.71875 1 
Q 33.40625 -1.421875 27.6875 -1.421875 
Q 18.265625 -1.421875 13.375 4.4375 
Q 8.5 10.296875 8.5 21.578125 
z
M 31.109375 56 
z
" id="DejaVuSans-117"/>
      <path d="M 45.40625 46.390625 
L 45.40625 75.984375 
L 54.390625 75.984375 
L 54.390625 0 
L 45.40625 0 
L 45.40625 8.203125 
Q 42.578125 3.328125 38.25 0.953125 
Q 33.9375 -1.421875 27.875 -1.421875 
Q 17.96875 -1.421875 11.734375 6.484375 
Q 5.515625 14.40625 5.515625 27.296875 
Q 5.515625 40.1875 11.734375 48.09375 
Q 17.96875 56 27.875 56 
Q 33.9375 56 38.25 53.625 
Q 42.578125 51.265625 45.40625 46.390625 
z
M 14.796875 27.296875 
Q 14.796875 17.390625 18.875 11.75 
Q 22.953125 6.109375 30.078125 6.109375 
Q 37.203125 6.109375 41.296875 11.75 
Q 45.40625 17.390625 45.40625 27.296875 
Q 45.40625 37.203125 41.296875 42.84375 
Q 37.203125 48.484375 30.078125 48.484375 
Q 22.953125 48.484375 18.875 42.84375 
Q 14.796875 37.203125 14.796875 27.296875 
z
" id="DejaVuSans-100"/>
      <path d="M 54.890625 33.015625 
L 54.890625 0 
L 45.90625 0 
L 45.90625 32.71875 
Q 45.90625 40.484375 42.875 44.328125 
Q 39.84375 48.1875 33.796875 48.1875 
Q 26.515625 48.1875 22.3125 43.546875 
Q 18.109375 38.921875 18.109375 30.90625 
L 18.109375 0 
L 9.078125 0 
L 9.078125 54.6875 
L 18.109375 54.6875 
L 18.109375 46.1875 
Q 21.34375 51.125 25.703125 53.5625 
Q 30.078125 56 35.796875 56 
Q 45.21875 56 50.046875 50.171875 
Q 54.890625 44.34375 54.890625 33.015625 
z
" id="DejaVuSans-110"/>
      <path d="M 44.28125 53.078125 
L 44.28125 44.578125 
Q 40.484375 46.53125 36.375 47.5 
Q 32.28125 48.484375 27.875 48.484375 
Q 21.1875 48.484375 17.84375 46.4375 
Q 14.5 44.390625 14.5 40.28125 
Q 14.5 37.15625 16.890625 35.375 
Q 19.28125 33.59375 26.515625 31.984375 
L 29.59375 31.296875 
Q 39.15625 29.25 43.1875 25.515625 
Q 47.21875 21.78125 47.21875 15.09375 
Q 47.21875 7.46875 41.1875 3.015625 
Q 35.15625 -1.421875 24.609375 -1.421875 
Q 20.21875 -1.421875 15.453125 -0.5625 
Q 10.6875 0.296875 5.421875 2 
L 5.421875 11.28125 
Q 10.40625 8.6875 15.234375 7.390625 
Q 20.0625 6.109375 24.8125 6.109375 
Q 31.15625 6.109375 34.5625 8.28125 
Q 37.984375 10.453125 37.984375 14.40625 
Q 37.984375 18.0625 35.515625 20.015625 
Q 33.0625 21.96875 24.703125 23.78125 
L 21.578125 24.515625 
Q 13.234375 26.265625 9.515625 29.90625 
Q 5.8125 33.546875 5.8125 39.890625 
Q 5.8125 47.609375 11.28125 51.796875 
Q 16.75 56 26.8125 56 
Q 31.78125 56 36.171875 55.265625 
Q 40.578125 54.546875 44.28125 53.078125 
z
" id="DejaVuSans-115"/>
      <path id="DejaVuSans-32"/>
      <path d="M 44.390625 34.1875 
Q 47.5625 33.109375 50.5625 29.59375 
Q 53.5625 26.078125 56.59375 19.921875 
L 66.609375 0 
L 56 0 
L 46.6875 18.703125 
Q 43.0625 26.03125 39.671875 28.421875 
Q 36.28125 30.8125 30.421875 30.8125 
L 19.671875 30.8125 
L 19.671875 0 
L 9.8125 0 
L 9.8125 72.90625 
L 32.078125 72.90625 
Q 44.578125 72.90625 50.734375 67.671875 
Q 56.890625 62.453125 56.890625 51.90625 
Q 56.890625 45.015625 53.6875 40.46875 
Q 50.484375 35.9375 44.390625 34.1875 
z
M 19.671875 64.796875 
L 19.671875 38.921875 
L 32.078125 38.921875 
Q 39.203125 38.921875 42.84375 42.21875 
Q 46.484375 45.515625 46.484375 51.90625 
Q 46.484375 58.296875 42.84375 61.546875 
Q 39.203125 64.796875 32.078125 64.796875 
z
" id="DejaVuSans-82"/>
      <path d="M 45.40625 27.984375 
Q 45.40625 37.75 41.375 43.109375 
Q 37.359375 48.484375 30.078125 48.484375 
Q 22.859375 48.484375 18.828125 43.109375 
Q 14.796875 37.75 14.796875 27.984375 
Q 14.796875 18.265625 18.828125 12.890625 
Q 22.859375 7.515625 30.078125 7.515625 
Q 37.359375 7.515625 41.375 12.890625 
Q 45.40625 18.265625 45.40625 27.984375 
z
M 54.390625 6.78125 
Q 54.390625 -7.171875 48.1875 -13.984375 
Q 42 -20.796875 29.203125 -20.796875 
Q 24.46875 -20.796875 20.265625 -20.09375 
Q 16.0625 -19.390625 12.109375 -17.921875 
L 12.109375 -9.1875 
Q 16.0625 -11.328125 19.921875 -12.34375 
Q 23.78125 -13.375 27.78125 -13.375 
Q 36.625 -13.375 41.015625 -8.765625 
Q 45.40625 -4.15625 45.40625 5.171875 
L 45.40625 9.625 
Q 42.625 4.78125 38.28125 2.390625 
Q 33.9375 0 27.875 0 
Q 17.828125 0 11.671875 7.65625 
Q 5.515625 15.328125 5.515625 27.984375 
Q 5.515625 40.671875 11.671875 48.328125 
Q 17.828125 56 27.875 56 
Q 33.9375 56 38.28125 53.609375 
Q 42.625 51.21875 45.40625 46.390625 
L 45.40625 54.6875 
L 54.390625 54.6875 
z
" id="DejaVuSans-103"/>
      <path d="M 9.421875 54.6875 
L 18.40625 54.6875 
L 18.40625 0 
L 9.421875 0 
z
M 9.421875 75.984375 
L 18.40625 75.984375 
L 18.40625 64.59375 
L 9.421875 64.59375 
z
" id="DejaVuSans-105"/>
      <path d="M 41.109375 46.296875 
Q 39.59375 47.171875 37.8125 47.578125 
Q 36.03125 48 33.890625 48 
Q 26.265625 48 22.1875 43.046875 
Q 18.109375 38.09375 18.109375 28.8125 
L 18.109375 0 
L 9.078125 0 
L 9.078125 54.6875 
L 18.109375 54.6875 
L 18.109375 46.1875 
Q 20.953125 51.171875 25.484375 53.578125 
Q 30.03125 56 36.53125 56 
Q 37.453125 56 38.578125 55.875 
Q 39.703125 55.765625 41.0625 55.515625 
z
" id="DejaVuSans-114"/>
     </defs>
     <g transform="translate(17.745313 167.498979)rotate(-90)scale(0.1 -0.1)">
      <use xlink:href="#DejaVuSans-83"/>
      <use x="63.476562" xlink:href="#DejaVuSans-116"/>
      <use x="102.685547" xlink:href="#DejaVuSans-117"/>
      <use x="166.064453" xlink:href="#DejaVuSans-100"/>
      <use x="229.541016" xlink:href="#DejaVuSans-101"/>
      <use x="291.064453" xlink:href="#DejaVuSans-110"/>
      <use x="354.443359" xlink:href="#DejaVuSans-116"/>
      <use x="393.652344" xlink:href="#DejaVuSans-115"/>
      <use x="445.751953" xlink:href="#DejaVuSans-32"/>
      <use x="477.539062" xlink:href="#DejaVuSans-82"/>
      <use x="546.958984" xlink:href="#DejaVuSans-101"/>
      <use x="608.482422" xlink:href="#DejaVuSans-103"/>
      <use x="671.958984" xlink:href="#DejaVuSans-105"/>
      <use x="699.742188" xlink:href="#DejaVuSans-115"/>
      <use x="751.841797" xlink:href="#DejaVuSans-116"/>
      <use x="791.050781" xlink:href="#DejaVuSans-101"/>
      <use x="852.574219" xlink:href="#DejaVuSans-114"/>
      <use x="893.65625" xlink:href="#DejaVuSans-101"/>
      <use x="955.179688" xlink:href="#DejaVuSans-100"/>
     </g>
    </g>
   </g>
   <g id="line2d_20">
    <path clip-path="url(#p8690db734e)" d="M 121.739359 196.670456 
L 123.316198 196.670456 
L 123.316198 182.534267 
L 123.395056 182.534267 
L 123.631588 182.534267 
L 123.631588 177.822204 
L 123.710456 177.822204 
L 123.946962 177.822204 
L 123.946962 158.973953 
L 124.025809 158.973953 
L 124.577755 158.973953 
L 124.577755 144.837764 
L 124.656596 144.837764 
L 125.208506 144.837764 
L 125.208506 116.565386 
L 125.287382 116.565386 
L 125.839264 116.565386 
L 125.839264 107.14126 
L 125.91811 107.14126 
L 126.154688 107.14126 
L 126.154688 102.429197 
L 126.233531 102.429197 
L 126.470042 102.429197 
L 126.470042 97.717134 
L 126.548906 97.717134 
L 127.100858 97.717134 
L 127.100858 93.005071 
L 127.179704 93.005071 
L 131.516132 93.005071 
L 131.516132 74.156819 
L 131.595 74.156819 
L 132.146917 74.156819 
L 132.146917 69.444756 
L 132.225801 69.444756 
L 132.777729 69.444756 
L 132.777729 60.02063 
L 132.856507 60.02063 
L 133.093111 60.02063 
L 133.093111 55.308567 
L 133.171887 55.308567 
L 133.723884 55.308567 
L 133.723884 50.596504 
L 133.802656 50.596504 
L 140.346873 50.596504 
L 140.346873 45.884441 
L 140.425664 45.884441 
L 140.662201 45.884441 
L 140.662201 41.172378 
L 140.741087 41.172378 
L 140.977599 41.172378 
L 140.977599 36.460315 
L 141.05647 36.460315 
L 141.923787 36.460315 
L 141.923787 31.748252 
L 142.002559 31.748252 
L 162.10817 31.748252 
L 162.10817 22.324126 
L 162.187071 22.324126 
L 200.90013 22.324126 
L 200.90013 27.036189 
L 200.978979 27.036189 
L 202.792419 27.036189 
L 202.792419 22.324126 
L 202.871314 22.324126 
L 230.230667 22.324126 
L 230.230667 27.036189 
L 230.309475 27.036189 
L 232.753707 27.036189 
L 232.753707 22.324126 
L 232.83252 22.324126 
L 303.005 22.324126 
L 303.005 22.324126 
" style="fill:none;stroke:#1b9e77;stroke-linecap:square;stroke-width:1.5;"/>
   </g>
   <g id="line2d_21">
    <path clip-path="url(#p8690db734e)" d="M 55.905 182.534267 
L 56.237293 182.534267 
L 56.237293 177.822204 
L 56.344942 177.822204 
L 57.86922 177.822204 
L 57.86922 173.110142 
L 62.915386 173.110142 
L 62.915386 168.398079 
L 63.393726 168.398079 
L 63.393726 163.686016 
L 63.47252 163.686016 
L 63.70909 163.686016 
L 63.70909 158.973953 
L 63.787973 158.973953 
L 64.655277 158.973953 
L 64.655277 144.837764 
L 64.734088 144.837764 
L 64.970591 144.837764 
L 64.970591 140.125701 
L 65.049493 140.125701 
L 71.278245 140.125701 
L 71.278245 130.701575 
L 71.357137 130.701575 
L 71.593625 130.701575 
L 71.593625 125.989512 
L 71.672438 125.989512 
L 71.909005 125.989512 
L 71.909005 130.701575 
L 71.987874 130.701575 
L 72.539819 130.701575 
L 72.539819 125.989512 
L 72.618644 125.989512 
L 72.855137 125.989512 
L 72.855137 116.565386 
L 72.93407 116.565386 
L 74.432085 116.565386 
L 74.432085 107.14126 
L 74.510903 107.14126 
L 77.901282 107.14126 
L 77.901282 102.429197 
L 77.980106 102.429197 
L 78.216657 102.429197 
L 78.216657 83.580945 
L 78.295491 83.580945 
L 78.532003 83.580945 
L 78.532003 74.156819 
L 78.610847 74.156819 
L 79.1628 74.156819 
L 79.1628 69.444756 
L 79.241652 69.444756 
L 79.478172 69.444756 
L 79.478172 64.732693 
L 79.557047 64.732693 
L 79.793563 64.732693 
L 79.793563 60.02063 
L 79.872417 60.02063 
L 80.108942 60.02063 
L 80.108942 45.884441 
L 80.18783 45.884441 
L 80.424316 45.884441 
L 80.424316 41.172378 
L 80.503191 41.172378 
L 80.739715 41.172378 
L 80.739715 36.460315 
L 80.818574 36.460315 
L 86.101162 36.460315 
L 86.101162 27.036189 
L 86.180009 27.036189 
L 86.416613 27.036189 
L 86.416613 22.324126 
L 86.495408 22.324126 
L 123.631588 22.324126 
L 123.631588 27.036189 
L 123.710456 27.036189 
L 123.946962 27.036189 
L 123.946962 22.324126 
L 124.025809 22.324126 
L 303.005 22.324126 
L 303.005 22.324126 
" style="fill:none;stroke:#d95f02;stroke-linecap:square;stroke-width:1.5;"/>
   </g>
   <g id="line2d_22">
    <path clip-path="url(#p8690db734e)" d="M 55.905 201.382519 
L 64.339912 201.382519 
L 64.339912 196.670456 
L 64.418698 196.670456 
L 70.647525 196.670456 
L 70.647525 191.958393 
L 70.726377 191.958393 
L 70.962894 191.958393 
L 70.962894 187.24633 
L 71.041743 187.24633 
L 71.278245 187.24633 
L 71.278245 177.822204 
L 71.357137 177.822204 
L 71.593625 177.822204 
L 71.593625 173.110142 
L 71.672438 173.110142 
L 71.909005 173.110142 
L 71.909005 168.398079 
L 71.987874 168.398079 
L 72.22439 168.398079 
L 72.22439 163.686016 
L 72.303219 163.686016 
L 72.855137 163.686016 
L 72.855137 158.973953 
L 72.93407 158.973953 
L 78.216657 158.973953 
L 78.216657 149.549827 
L 78.295491 149.549827 
L 78.532003 149.549827 
L 78.532003 144.837764 
L 78.610847 144.837764 
L 79.793563 144.837764 
L 79.793563 140.125701 
L 79.872417 140.125701 
L 80.108942 140.125701 
L 80.108942 130.701575 
L 80.18783 130.701575 
L 108.808717 130.701575 
L 108.808717 125.989512 
L 108.887483 125.989512 
L 109.124067 125.989512 
L 109.124067 121.277449 
L 109.202871 121.277449 
L 109.439468 121.277449 
L 109.439468 116.565386 
L 109.518288 116.565386 
L 109.754816 116.565386 
L 109.754816 111.853323 
L 109.833656 111.853323 
L 110.070231 111.853323 
L 110.070231 102.429197 
L 110.149056 102.429197 
L 110.385617 102.429197 
L 110.385617 97.717134 
L 110.46445 97.717134 
L 116.062446 97.717134 
L 116.141297 83.580945 
L 116.141297 83.580945 
L 116.693225 83.580945 
L 116.693225 74.156819 
L 116.772059 74.156819 
L 117.639378 74.156819 
L 117.639378 69.444756 
L 117.718211 69.444756 
L 117.954763 69.444756 
L 117.954763 60.02063 
L 118.033613 60.02063 
L 118.270141 60.02063 
L 118.270141 36.460315 
L 118.348976 36.460315 
L 118.585475 36.460315 
L 118.585475 22.324126 
L 118.664395 22.324126 
L 123.316198 22.324126 
L 123.316198 27.036189 
L 123.395056 27.036189 
L 123.946962 27.036189 
L 123.946962 22.324126 
L 124.025809 22.324126 
L 200.269344 22.324126 
L 200.269344 27.036189 
L 200.348245 27.036189 
L 200.584792 27.036189 
L 200.584792 22.324126 
L 200.66365 22.324126 
L 214.461605 22.324126 
L 214.461605 27.036189 
L 214.540372 27.036189 
L 215.092283 27.036189 
L 215.092283 22.324126 
L 215.171128 22.324126 
L 215.723068 22.324126 
L 215.723068 27.036189 
L 215.801925 27.036189 
L 216.984662 27.036189 
L 216.984662 22.324126 
L 217.063461 22.324126 
L 303.005 22.324126 
L 303.005 22.324126 
" style="fill:none;stroke:#7570b3;stroke-linecap:square;stroke-width:1.5;"/>
   </g>
   <g id="line2d_23">
    <path clip-path="url(#p8690db734e)" d="M 55.905 210.806645 
L 56.237293 210.806645 
L 56.237293 201.382519 
L 56.344942 201.382519 
L 57.716844 201.382519 
L 57.716844 196.670456 
L 57.82723 196.670456 
L 64.970591 196.670456 
L 64.970591 191.958393 
L 65.049493 191.958393 
L 70.962894 191.958393 
L 70.962894 177.822204 
L 71.041743 177.822204 
L 71.278245 177.822204 
L 71.278245 173.110142 
L 71.357137 173.110142 
L 71.593625 173.110142 
L 71.593625 154.26189 
L 71.672438 154.26189 
L 71.909005 154.26189 
L 71.909005 149.549827 
L 71.987874 149.549827 
L 72.22439 149.549827 
L 72.22439 140.125701 
L 72.303219 140.125701 
L 72.539819 140.125701 
L 72.539819 125.989512 
L 72.618644 125.989512 
L 78.216657 125.989512 
L 78.216657 121.277449 
L 78.295491 121.277449 
L 78.532003 121.277449 
L 78.532003 116.565386 
L 78.610847 116.565386 
L 79.478172 116.565386 
L 79.478172 111.853323 
L 79.557047 111.853323 
L 80.108942 111.853323 
L 80.108942 97.717134 
L 80.18783 97.717134 
L 80.424316 97.717134 
L 80.424316 93.005071 
L 80.503191 93.005071 
L 86.731938 93.005071 
L 86.731938 88.293008 
L 86.810796 88.293008 
L 87.047309 88.293008 
L 87.047309 83.580945 
L 87.126186 83.580945 
L 87.678117 83.580945 
L 87.678117 78.868882 
L 87.756917 78.868882 
L 88.624244 78.868882 
L 88.624244 74.156819 
L 88.703131 74.156819 
L 93.985778 74.156819 
L 93.985778 69.444756 
L 94.064586 69.444756 
L 108.808717 69.444756 
L 108.808717 45.884441 
L 108.887483 45.884441 
L 109.124067 45.884441 
L 109.124067 36.460315 
L 109.202871 36.460315 
L 109.439468 36.460315 
L 109.439468 31.748252 
L 109.518288 31.748252 
L 215.723068 31.748252 
L 215.723068 36.460315 
L 215.801925 36.460315 
L 216.03844 36.460315 
L 216.03844 31.748252 
L 216.117284 31.748252 
L 233.069051 31.748252 
L 233.069051 36.460315 
L 233.147951 36.460315 
L 233.384455 36.460315 
L 233.384455 31.748252 
L 233.463327 31.748252 
L 303.005 31.748252 
L 303.005 31.748252 
" style="fill:none;stroke:#e7298a;stroke-linecap:square;stroke-width:1.5;"/>
   </g>
   <g id="line2d_24">
    <path clip-path="url(#p8690db734e)" d="M 55.905 191.958393 
L 70.962894 191.958393 
L 70.962894 187.24633 
L 71.041743 187.24633 
L 72.539819 187.24633 
L 72.539819 182.534267 
L 72.618644 182.534267 
L 73.170562 182.534267 
L 73.170562 177.822204 
L 73.249377 177.822204 
L 79.1628 177.822204 
L 79.1628 173.110142 
L 79.241652 173.110142 
L 79.793563 173.110142 
L 79.793563 168.398079 
L 79.872417 168.398079 
L 86.101162 168.398079 
L 86.101162 163.686016 
L 86.180009 163.686016 
L 108.49329 163.686016 
L 108.49329 154.26189 
L 108.57218 154.26189 
L 108.808717 154.26189 
L 108.808717 144.837764 
L 108.887483 144.837764 
L 109.754816 144.837764 
L 109.754816 140.125701 
L 109.833656 140.125701 
L 111.016373 140.125701 
L 111.016373 135.413638 
L 111.0952 135.413638 
L 116.693225 135.413638 
L 116.693225 130.701575 
L 116.772059 130.701575 
L 117.323934 130.701575 
L 117.323934 121.277449 
L 117.40285 121.277449 
L 117.954763 121.277449 
L 117.954763 116.565386 
L 118.033613 116.565386 
L 119.847057 116.565386 
L 119.847057 111.853323 
L 119.925887 111.853323 
L 123.316198 111.853323 
L 123.316198 107.14126 
L 123.395056 107.14126 
L 123.946962 107.14126 
L 123.946962 102.429197 
L 124.025809 102.429197 
L 124.262341 102.429197 
L 124.262341 93.005071 
L 124.341192 93.005071 
L 124.893155 93.005071 
L 124.893155 88.293008 
L 124.972003 88.293008 
L 125.208506 88.293008 
L 125.287382 74.156819 
L 125.287382 74.156819 
L 125.523928 74.156819 
L 125.523928 64.732693 
L 125.602785 64.732693 
L 126.785405 64.732693 
L 126.785405 69.444756 
L 126.86424 69.444756 
L 131.516132 69.444756 
L 131.516132 60.02063 
L 131.595 60.02063 
L 131.831591 60.02063 
L 131.831591 55.308567 
L 131.910357 55.308567 
L 132.46231 55.308567 
L 132.46231 50.596504 
L 132.541168 50.596504 
L 132.777729 50.596504 
L 132.777729 41.172378 
L 132.856507 41.172378 
L 133.093111 41.172378 
L 133.093111 36.460315 
L 133.171887 36.460315 
L 133.723884 36.460315 
L 133.723884 31.748252 
L 133.802656 31.748252 
L 303.005 31.748252 
L 303.005 31.748252 
" style="fill:none;stroke:#66a61e;stroke-linecap:square;stroke-width:1.5;"/>
   </g>
   <g id="line2d_25">
    <path clip-path="url(#p8690db734e)" d="M 55.905 196.670456 
L 64.339912 196.670456 
L 64.339912 191.958393 
L 64.418698 191.958393 
L 70.647525 191.958393 
L 70.647525 187.24633 
L 70.726377 187.24633 
L 70.962894 187.24633 
L 70.962894 182.534267 
L 71.041743 182.534267 
L 71.593625 182.534267 
L 71.593625 177.822204 
L 71.672438 177.822204 
L 71.909005 177.822204 
L 71.909005 173.110142 
L 71.987874 173.110142 
L 72.22439 173.110142 
L 72.22439 163.686016 
L 72.303219 163.686016 
L 72.539819 163.686016 
L 72.539819 158.973953 
L 72.618644 158.973953 
L 72.855137 158.973953 
L 72.855137 154.26189 
L 72.93407 154.26189 
L 77.901282 154.26189 
L 77.901282 149.549827 
L 77.980106 149.549827 
L 78.216657 149.549827 
L 78.216657 140.125701 
L 78.295491 140.125701 
L 78.847369 140.125701 
L 78.847369 135.413638 
L 78.92622 135.413638 
L 79.1628 135.413638 
L 79.1628 125.989512 
L 79.241652 125.989512 
L 79.793563 125.989512 
L 79.793563 121.277449 
L 79.872417 121.277449 
L 80.424316 121.277449 
L 80.424316 116.565386 
L 80.503191 116.565386 
L 80.739715 116.565386 
L 80.739715 111.853323 
L 80.818574 111.853323 
L 86.416613 111.853323 
L 86.416613 107.14126 
L 86.495408 107.14126 
L 87.678117 107.14126 
L 87.678117 102.429197 
L 87.756917 102.429197 
L 95.877991 102.429197 
L 95.877991 97.717134 
L 95.956845 97.717134 
L 108.49329 97.717134 
L 108.49329 93.005071 
L 108.57218 93.005071 
L 109.439468 93.005071 
L 109.439468 78.868882 
L 109.518288 78.868882 
L 109.754816 78.868882 
L 109.754816 69.444756 
L 109.833656 69.444756 
L 110.070231 69.444756 
L 110.070231 60.02063 
L 110.149056 60.02063 
L 111.016373 60.02063 
L 111.016373 55.308567 
L 111.0952 55.308567 
L 115.431697 55.308567 
L 115.431697 50.596504 
L 115.510538 50.596504 
L 116.377822 50.596504 
L 116.377822 45.884441 
L 116.456652 45.884441 
L 116.693225 45.884441 
L 116.693225 41.172378 
L 116.772059 41.172378 
L 117.008586 41.172378 
L 117.008586 36.460315 
L 117.08744 36.460315 
L 117.954763 36.460315 
L 117.954763 31.748252 
L 118.033613 31.748252 
L 303.005 31.748252 
L 303.005 31.748252 
" style="fill:none;stroke:#e6ab02;stroke-linecap:square;stroke-width:1.5;"/>
   </g>
   <g id="line2d_26">
    <path clip-path="url(#p8690db734e)" d="M 55.905 201.382519 
L 64.970591 201.382519 
L 64.970591 196.670456 
L 65.049493 196.670456 
L 70.962894 196.670456 
L 70.962894 191.958393 
L 71.041743 191.958393 
L 72.22439 191.958393 
L 72.22439 187.24633 
L 72.303219 187.24633 
L 78.847369 187.24633 
L 78.847369 177.822204 
L 78.92622 177.822204 
L 79.478172 177.822204 
L 79.478172 173.110142 
L 79.557047 173.110142 
L 80.108942 173.110142 
L 80.108942 168.398079 
L 80.18783 168.398079 
L 80.424316 168.398079 
L 80.424316 163.686016 
L 80.503191 163.686016 
L 87.678117 163.686016 
L 87.678117 158.973953 
L 87.756917 158.973953 
L 94.931892 158.973953 
L 94.931892 154.26189 
L 95.010702 154.26189 
L 108.808717 154.26189 
L 108.808717 144.837764 
L 108.887483 144.837764 
L 109.439468 144.837764 
L 109.439468 140.125701 
L 109.518288 140.125701 
L 111.016373 140.125701 
L 111.016373 135.413638 
L 111.0952 135.413638 
L 116.062446 135.413638 
L 116.062446 130.701575 
L 116.141297 130.701575 
L 117.639378 130.701575 
L 117.639378 125.989512 
L 117.718211 125.989512 
L 117.954763 125.989512 
L 117.954763 121.277449 
L 118.033613 121.277449 
L 118.270141 121.277449 
L 118.348976 107.14126 
L 118.348976 107.14126 
L 123.631588 107.14126 
L 123.631588 102.429197 
L 123.710456 102.429197 
L 123.946962 102.429197 
L 123.946962 93.005071 
L 124.025809 93.005071 
L 124.262341 93.005071 
L 124.262341 88.293008 
L 124.341192 88.293008 
L 124.577755 88.293008 
L 124.656596 74.156819 
L 124.656596 74.156819 
L 125.208506 74.156819 
L 125.208506 60.02063 
L 125.287382 60.02063 
L 125.523928 60.02063 
L 125.523928 50.596504 
L 125.602785 50.596504 
L 125.839264 50.596504 
L 125.839264 31.748252 
L 125.91811 31.748252 
L 126.154688 31.748252 
L 126.154688 27.036189 
L 126.233531 27.036189 
L 127.73161 27.036189 
L 127.73161 22.324126 
L 127.810455 22.324126 
L 214.461605 22.324126 
L 214.461605 27.036189 
L 214.540372 27.036189 
L 214.776984 27.036189 
L 214.776984 22.324126 
L 214.855825 22.324126 
L 215.407713 22.324126 
L 215.407713 27.036189 
L 215.486589 27.036189 
L 216.353822 27.036189 
L 216.353822 31.748252 
L 216.432733 31.748252 
L 216.984662 31.748252 
L 216.984662 36.460315 
L 217.063461 36.460315 
L 225.499909 36.460315 
L 225.499909 41.172378 
L 225.578793 41.172378 
L 244.107465 41.172378 
L 244.107465 36.460315 
L 244.18632 36.460315 
L 279.114792 36.460315 
L 279.114792 41.172378 
L 279.193703 41.172378 
L 291.414712 41.172378 
L 291.414712 36.460315 
L 291.493518 36.460315 
L 303.005 36.460315 
L 303.005 36.460315 
" style="fill:none;stroke:#a6761d;stroke-linecap:square;stroke-width:1.5;"/>
   </g>
   <g id="line2d_27">
    <path clip-path="url(#p8690db734e)" d="M 55.905 201.382519 
L 71.278245 201.382519 
L 71.278245 196.670456 
L 71.357137 196.670456 
L 72.22439 196.670456 
L 72.22439 191.958393 
L 72.303219 191.958393 
L 79.1628 191.958393 
L 79.1628 187.24633 
L 79.241652 187.24633 
L 79.793563 187.24633 
L 79.793563 191.958393 
L 79.872417 191.958393 
L 80.108942 191.958393 
L 80.108942 182.534267 
L 80.18783 182.534267 
L 108.808717 182.534267 
L 108.808717 177.822204 
L 108.887483 177.822204 
L 109.439468 177.822204 
L 109.439468 173.110142 
L 109.518288 173.110142 
L 110.070231 173.110142 
L 110.070231 168.398079 
L 110.149056 168.398079 
L 110.385617 168.398079 
L 110.385617 163.686016 
L 110.46445 163.686016 
L 111.962474 163.686016 
L 111.962474 158.973953 
L 112.041299 158.973953 
L 117.008586 158.973953 
L 117.008586 154.26189 
L 117.08744 154.26189 
L 117.954763 154.26189 
L 117.954763 149.549827 
L 118.033613 149.549827 
L 118.270141 149.549827 
L 118.270141 144.837764 
L 118.348976 144.837764 
L 123.631588 144.837764 
L 123.631588 135.413638 
L 123.710456 135.413638 
L 123.946962 135.413638 
L 123.946962 130.701575 
L 124.025809 130.701575 
L 124.262341 130.701575 
L 124.341192 116.565386 
L 124.341192 116.565386 
L 125.523928 116.565386 
L 125.523928 111.853323 
L 125.602785 111.853323 
L 125.839264 111.853323 
L 125.839264 107.14126 
L 125.91811 107.14126 
L 126.154688 107.14126 
L 126.154688 111.853323 
L 126.233531 111.853323 
L 126.470042 111.853323 
L 126.470042 107.14126 
L 126.548906 107.14126 
L 126.785405 107.14126 
L 126.785405 102.429197 
L 126.86424 102.429197 
L 130.570037 102.429197 
L 130.570037 107.14126 
L 130.648822 107.14126 
L 131.516132 107.14126 
L 131.516132 93.005071 
L 131.595 93.005071 
L 132.146917 93.005071 
L 132.146917 88.293008 
L 132.225801 88.293008 
L 132.777729 88.293008 
L 132.777729 69.444756 
L 132.856507 69.444756 
L 133.093111 69.444756 
L 133.093111 64.732693 
L 133.171887 64.732693 
L 140.03145 64.732693 
L 140.03145 60.02063 
L 140.110327 60.02063 
L 165.577433 60.02063 
L 165.577433 55.308567 
L 165.65623 55.308567 
L 170.623527 55.308567 
L 170.623527 50.596504 
L 170.702356 50.596504 
L 170.938871 50.596504 
L 170.938871 55.308567 
L 171.017702 55.308567 
L 171.569638 55.308567 
L 171.569638 50.596504 
L 171.648459 50.596504 
L 179.138851 50.596504 
L 179.138851 45.884441 
L 179.217779 45.884441 
L 192.069425 45.884441 
L 192.069425 50.596504 
L 192.14828 50.596504 
L 200.90013 50.596504 
L 200.90013 45.884441 
L 200.978979 45.884441 
L 214.461605 45.884441 
L 214.461605 50.596504 
L 214.540372 50.596504 
L 215.092283 50.596504 
L 215.092283 55.308567 
L 215.171128 55.308567 
L 216.03844 55.308567 
L 216.03844 60.02063 
L 216.117284 60.02063 
L 224.869142 60.02063 
L 224.869142 64.732693 
L 224.947966 64.732693 
L 238.430536 64.732693 
L 238.430536 69.444756 
L 238.509449 69.444756 
L 269.968783 69.444756 
L 269.968783 74.156819 
L 270.04761 74.156819 
L 303.005 74.156819 
L 303.005 74.156819 
" style="fill:none;stroke:#666666;stroke-linecap:square;stroke-width:1.5;"/>
   </g>
   <g id="line2d_28">
    <path clip-path="url(#p8690db734e)" d="M 55.905 196.670456 
L 62.915386 196.670456 
L 62.915386 191.958393 
L 72.22439 191.958393 
L 72.22439 187.24633 
L 72.303219 187.24633 
L 78.532003 187.24633 
L 78.532003 182.534267 
L 78.610847 182.534267 
L 79.1628 182.534267 
L 79.1628 177.822204 
L 79.241652 177.822204 
L 80.108942 177.822204 
L 80.108942 173.110142 
L 80.18783 173.110142 
L 80.424316 173.110142 
L 80.424316 168.398079 
L 80.503191 168.398079 
L 82.31662 168.398079 
L 82.31662 163.686016 
L 82.395473 163.686016 
L 109.439468 163.686016 
L 109.439468 154.26189 
L 109.518288 154.26189 
L 116.693225 154.26189 
L 116.693225 149.549827 
L 116.772059 149.549827 
L 118.270141 149.549827 
L 118.270141 144.837764 
L 118.348976 144.837764 
L 119.216313 144.837764 
L 119.216313 140.125701 
L 119.295151 140.125701 
L 123.946962 140.125701 
L 123.946962 135.413638 
L 124.025809 135.413638 
L 124.262341 135.413638 
L 124.262341 125.989512 
L 124.341192 125.989512 
L 125.208506 125.989512 
L 125.208506 116.565386 
L 125.287382 116.565386 
L 132.146917 116.565386 
L 132.146917 111.853323 
L 132.225801 111.853323 
L 133.093111 111.853323 
L 133.093111 107.14126 
L 133.171887 107.14126 
L 134.039192 107.14126 
L 134.039192 102.429197 
L 134.118049 102.429197 
L 141.923787 102.429197 
L 141.923787 97.717134 
L 142.002559 97.717134 
L 163.685113 97.717134 
L 163.685113 93.005071 
L 163.763926 93.005071 
L 170.938871 93.005071 
L 170.938871 88.293008 
L 171.017702 88.293008 
L 179.138851 88.293008 
L 179.138851 93.005071 
L 179.217779 93.005071 
L 215.407713 93.005071 
L 215.407713 88.293008 
L 215.486589 88.293008 
L 215.723068 88.293008 
L 215.723068 93.005071 
L 215.801925 93.005071 
L 223.607644 93.005071 
L 223.607644 88.293008 
L 223.686497 88.293008 
L 279.114792 88.293008 
L 279.114792 83.580945 
L 279.193703 83.580945 
L 303.005 83.580945 
L 303.005 83.580945 
" style="fill:none;stroke:#1b9e77;stroke-dasharray:4.5,1.5;stroke-dashoffset:0;stroke-width:1.5;"/>
   </g>
   <g id="line2d_29">
    <path clip-path="url(#p8690db734e)" d="M 55.905 206.094582 
L 70.647525 206.094582 
L 70.647525 201.382519 
L 70.726377 201.382519 
L 70.962894 201.382519 
L 70.962894 196.670456 
L 71.041743 196.670456 
L 72.22439 196.670456 
L 72.22439 187.24633 
L 72.303219 187.24633 
L 78.216657 187.24633 
L 78.216657 182.534267 
L 78.295491 182.534267 
L 79.793563 182.534267 
L 79.793563 177.822204 
L 79.872417 177.822204 
L 80.108942 177.822204 
L 80.108942 173.110142 
L 80.18783 173.110142 
L 80.424316 173.110142 
L 80.424316 168.398079 
L 80.503191 168.398079 
L 109.124067 168.398079 
L 109.124067 163.686016 
L 109.202871 163.686016 
L 109.439468 163.686016 
L 109.439468 158.973953 
L 109.518288 158.973953 
L 109.754816 158.973953 
L 109.754816 149.549827 
L 109.833656 149.549827 
L 117.639378 149.549827 
L 117.639378 144.837764 
L 117.718211 144.837764 
L 117.954763 144.837764 
L 117.954763 140.125701 
L 118.033613 140.125701 
L 123.316198 140.125701 
L 123.316198 144.837764 
L 123.395056 144.837764 
L 124.262341 144.837764 
L 124.262341 135.413638 
L 124.341192 135.413638 
L 124.577755 135.413638 
L 124.577755 140.125701 
L 124.656596 140.125701 
L 124.893155 140.125701 
L 124.893155 135.413638 
L 124.972003 135.413638 
L 125.523928 135.413638 
L 125.523928 125.989512 
L 125.602785 125.989512 
L 125.839264 125.989512 
L 125.839264 121.277449 
L 125.91811 121.277449 
L 140.662201 121.277449 
L 140.662201 116.565386 
L 140.741087 116.565386 
L 141.608402 116.565386 
L 141.608402 111.853323 
L 141.687262 111.853323 
L 156.746679 111.853323 
L 156.746679 107.14126 
L 156.825561 107.14126 
L 185.446421 107.14126 
L 185.446421 102.429197 
L 185.525294 102.429197 
L 186.707946 102.429197 
L 186.707946 97.717134 
L 186.786816 97.717134 
L 193.015631 97.717134 
L 193.015631 93.005071 
L 193.094439 93.005071 
L 217.930804 93.005071 
L 217.930804 88.293008 
L 218.00963 88.293008 
L 303.005 88.293008 
L 303.005 88.293008 
" style="fill:none;stroke:#d95f02;stroke-dasharray:4.5,1.5;stroke-dashoffset:0;stroke-width:1.5;"/>
   </g>
   <g id="line2d_30">
    <path clip-path="url(#p8690db734e)" d="M 55.905 206.094582 
L 71.278245 206.094582 
L 71.278245 201.382519 
L 71.357137 201.382519 
L 79.793563 201.382519 
L 79.793563 191.958393 
L 79.872417 191.958393 
L 108.49329 191.958393 
L 108.49329 187.24633 
L 108.57218 187.24633 
L 109.124067 187.24633 
L 109.124067 182.534267 
L 109.202871 182.534267 
L 110.070231 182.534267 
L 110.070231 177.822204 
L 110.149056 177.822204 
L 116.062446 177.822204 
L 116.062446 173.110142 
L 116.141297 173.110142 
L 116.377822 173.110142 
L 116.377822 163.686016 
L 116.456652 163.686016 
L 116.693225 163.686016 
L 116.693225 158.973953 
L 116.772059 158.973953 
L 117.323934 158.973953 
L 117.323934 154.26189 
L 117.40285 154.26189 
L 117.639378 154.26189 
L 117.639378 144.837764 
L 117.718211 144.837764 
L 117.954763 144.837764 
L 117.954763 135.413638 
L 118.033613 135.413638 
L 119.216313 135.413638 
L 119.216313 130.701575 
L 119.295151 130.701575 
L 119.847057 130.701575 
L 119.847057 125.989512 
L 119.925887 125.989512 
L 120.16238 125.989512 
L 120.16238 130.701575 
L 120.241308 130.701575 
L 123.000848 130.701575 
L 123.000848 135.413638 
L 123.07972 135.413638 
L 123.316198 135.413638 
L 123.316198 140.125701 
L 123.395056 140.125701 
L 123.631588 140.125701 
L 123.631588 135.413638 
L 123.710456 135.413638 
L 123.946962 135.413638 
L 123.946962 140.125701 
L 124.025809 140.125701 
L 124.262341 140.125701 
L 124.262341 135.413638 
L 124.341192 135.413638 
L 124.577755 135.413638 
L 124.577755 130.701575 
L 124.656596 130.701575 
L 125.208506 130.701575 
L 125.208506 135.413638 
L 125.287382 135.413638 
L 132.46231 135.413638 
L 132.46231 130.701575 
L 132.541168 130.701575 
L 133.093111 130.701575 
L 133.093111 125.989512 
L 133.171887 125.989512 
L 140.346873 125.989512 
L 140.346873 121.277449 
L 140.425664 121.277449 
L 142.554519 121.277449 
L 142.554519 116.565386 
L 142.6334 116.565386 
L 162.738958 116.565386 
L 162.738958 111.853323 
L 162.81776 111.853323 
L 163.054336 111.853323 
L 163.054336 107.14126 
L 163.133141 107.14126 
L 164.315831 107.14126 
L 164.315831 102.429197 
L 164.394771 102.429197 
L 179.138851 102.429197 
L 179.138851 97.717134 
L 179.217779 97.717134 
L 180.084913 97.717134 
L 180.084913 93.005071 
L 180.163835 93.005071 
L 195.854053 93.005071 
L 195.854053 88.293008 
L 195.932847 88.293008 
L 202.792419 88.293008 
L 202.792419 93.005071 
L 202.871314 93.005071 
L 215.092283 93.005071 
L 215.092283 97.717134 
L 215.171128 97.717134 
L 269.338004 97.717134 
L 269.338004 93.005071 
L 269.416824 93.005071 
L 303.005 93.005071 
L 303.005 93.005071 
" style="fill:none;stroke:#7570b3;stroke-dasharray:4.5,1.5;stroke-dashoffset:0;stroke-width:1.5;"/>
   </g>
   <g id="line2d_31">
    <path clip-path="url(#p8690db734e)" d="M 55.905 210.806645 
L 64.024774 210.806645 
L 64.024774 206.094582 
L 64.103329 206.094582 
L 64.655277 206.094582 
L 64.655277 201.382519 
L 64.734088 201.382519 
L 71.909005 201.382519 
L 71.909005 196.670456 
L 71.987874 196.670456 
L 80.108942 196.670456 
L 80.108942 191.958393 
L 80.18783 191.958393 
L 85.155062 191.958393 
L 85.155062 187.24633 
L 85.233977 187.24633 
L 86.731938 187.24633 
L 86.731938 182.534267 
L 86.810796 182.534267 
L 87.36273 182.534267 
L 87.36273 177.822204 
L 87.441592 177.822204 
L 108.49329 177.822204 
L 108.49329 168.398079 
L 108.57218 168.398079 
L 109.124067 168.398079 
L 109.124067 163.686016 
L 109.202871 163.686016 
L 109.439468 163.686016 
L 109.439468 158.973953 
L 109.518288 158.973953 
L 109.754816 158.973953 
L 109.754816 154.26189 
L 109.833656 154.26189 
L 110.070231 154.26189 
L 110.070231 144.837764 
L 110.149056 144.837764 
L 110.385617 144.837764 
L 110.385617 140.125701 
L 110.46445 140.125701 
L 111.016373 140.125701 
L 111.016373 135.413638 
L 111.0952 135.413638 
L 111.647164 135.413638 
L 111.647164 130.701575 
L 111.725913 130.701575 
L 112.593224 130.701575 
L 112.593224 125.989512 
L 112.672071 125.989512 
L 116.062446 125.989512 
L 116.062446 121.277449 
L 116.141297 121.277449 
L 116.377822 121.277449 
L 116.377822 116.565386 
L 116.456652 116.565386 
L 116.693225 116.565386 
L 116.693225 102.429197 
L 116.772059 102.429197 
L 117.008586 102.429197 
L 117.008586 97.717134 
L 117.08744 97.717134 
L 117.323934 97.717134 
L 117.323934 93.005071 
L 117.40285 93.005071 
L 120.16238 93.005071 
L 120.16238 97.717134 
L 120.241308 97.717134 
L 124.262341 97.717134 
L 124.262341 93.005071 
L 124.341192 93.005071 
L 124.577755 93.005071 
L 124.577755 97.717134 
L 124.656596 97.717134 
L 124.893155 97.717134 
L 124.893155 93.005071 
L 124.972003 93.005071 
L 133.723884 93.005071 
L 133.723884 97.717134 
L 133.802656 97.717134 
L 134.039192 97.717134 
L 134.039192 93.005071 
L 134.118049 93.005071 
L 303.005 93.005071 
L 303.005 93.005071 
" style="fill:none;stroke:#e7298a;stroke-dasharray:4.5,1.5;stroke-dashoffset:0;stroke-width:1.5;"/>
   </g>
   <g id="line2d_32">
    <path clip-path="url(#p8690db734e)" d="M 197.509776 210.806645 
L 200.269344 210.806645 
L 200.269344 206.094582 
L 200.348245 206.094582 
L 209.730862 206.094582 
L 209.730862 201.382519 
L 209.809683 201.382519 
L 214.461605 201.382519 
L 214.461605 182.534267 
L 214.540372 182.534267 
L 215.092283 182.534267 
L 215.092283 173.110142 
L 215.171128 173.110142 
L 215.723068 173.110142 
L 215.723068 158.973953 
L 215.801925 158.973953 
L 216.353822 158.973953 
L 216.353822 154.26189 
L 216.432733 154.26189 
L 222.661523 154.26189 
L 222.661523 149.549827 
L 222.740319 149.549827 
L 224.238413 149.549827 
L 224.238413 144.837764 
L 224.317208 144.837764 
L 224.869142 144.837764 
L 224.869142 140.125701 
L 224.947966 140.125701 
L 225.499909 140.125701 
L 225.499909 135.413638 
L 225.578793 135.413638 
L 225.815302 135.413638 
L 225.815302 130.701575 
L 225.894096 130.701575 
L 230.230667 130.701575 
L 230.230667 125.989512 
L 230.309475 125.989512 
L 233.069051 125.989512 
L 233.069051 121.277449 
L 233.147951 121.277449 
L 238.430536 121.277449 
L 238.430536 116.565386 
L 238.509449 116.565386 
L 303.005 116.565386 
L 303.005 116.565386 
" style="fill:none;stroke:#66a61e;stroke-dasharray:4.5,1.5;stroke-dashoffset:0;stroke-width:1.5;"/>
   </g>
   <g id="line2d_33">
    <path clip-path="url(#p8690db734e)" d="M 55.905 206.094582 
L 71.593625 206.094582 
L 71.593625 196.670456 
L 71.672438 196.670456 
L 78.532003 196.670456 
L 78.532003 187.24633 
L 78.610847 187.24633 
L 78.847369 187.24633 
L 78.847369 182.534267 
L 78.92622 182.534267 
L 80.108942 182.534267 
L 80.108942 177.822204 
L 80.18783 177.822204 
L 80.424316 177.822204 
L 80.424316 173.110142 
L 80.503191 173.110142 
L 109.754816 173.110142 
L 109.754816 168.398079 
L 109.833656 168.398079 
L 110.070231 168.398079 
L 110.070231 163.686016 
L 110.149056 163.686016 
L 110.385617 163.686016 
L 110.385617 158.973953 
L 110.46445 158.973953 
L 111.331693 158.973953 
L 111.331693 154.26189 
L 111.410609 154.26189 
L 111.647164 154.26189 
L 111.647164 158.973953 
L 111.725913 158.973953 
L 116.062446 158.973953 
L 116.062446 140.125701 
L 116.141297 140.125701 
L 116.693225 140.125701 
L 116.693225 130.701575 
L 116.772059 130.701575 
L 117.008586 130.701575 
L 117.008586 125.989512 
L 117.08744 125.989512 
L 117.323934 125.989512 
L 117.323934 116.565386 
L 117.40285 116.565386 
L 303.005 116.565386 
L 303.005 116.565386 
" style="fill:none;stroke:#e6ab02;stroke-dasharray:4.5,1.5;stroke-dashoffset:0;stroke-width:1.5;"/>
   </g>
   <g id="line2d_34">
    <path clip-path="url(#p8690db734e)" d="M 55.905 210.806645 
L 65.285966 210.806645 
L 65.285966 206.094582 
L 65.364847 206.094582 
L 66.547555 206.094582 
L 66.547555 201.382519 
L 66.626355 201.382519 
L 86.416613 201.382519 
L 86.416613 196.670456 
L 86.495408 196.670456 
L 108.49329 196.670456 
L 108.49329 191.958393 
L 108.57218 191.958393 
L 110.700952 191.958393 
L 110.700952 182.534267 
L 110.779781 182.534267 
L 116.693225 182.534267 
L 116.693225 177.822204 
L 116.772059 177.822204 
L 117.008586 177.822204 
L 117.008586 173.110142 
L 117.08744 173.110142 
L 117.954763 173.110142 
L 117.954763 163.686016 
L 118.033613 163.686016 
L 118.270141 163.686016 
L 118.270141 158.973953 
L 118.348976 158.973953 
L 120.16238 158.973953 
L 120.16238 154.26189 
L 120.241308 154.26189 
L 123.946962 154.26189 
L 123.946962 158.973953 
L 124.025809 158.973953 
L 124.577755 158.973953 
L 124.577755 154.26189 
L 124.656596 154.26189 
L 124.893155 154.26189 
L 124.893155 149.549827 
L 124.972003 149.549827 
L 125.523928 149.549827 
L 125.523928 144.837764 
L 125.602785 144.837764 
L 125.839264 144.837764 
L 125.839264 149.549827 
L 125.91811 149.549827 
L 126.154688 149.549827 
L 126.154688 144.837764 
L 126.233531 144.837764 
L 131.516132 144.837764 
L 131.516132 140.125701 
L 131.595 140.125701 
L 141.608402 140.125701 
L 141.608402 135.413638 
L 141.687262 135.413638 
L 162.738958 135.413638 
L 162.738958 130.701575 
L 162.81776 130.701575 
L 192.700205 130.701575 
L 192.700205 125.989512 
L 192.779105 125.989512 
L 230.230667 125.989512 
L 230.230667 121.277449 
L 230.309475 121.277449 
L 269.968783 121.277449 
L 269.968783 116.565386 
L 270.04761 116.565386 
L 303.005 116.565386 
L 303.005 116.565386 
" style="fill:none;stroke:#a6761d;stroke-dasharray:4.5,1.5;stroke-dashoffset:0;stroke-width:1.5;"/>
   </g>
   <g id="line2d_35">
    <path clip-path="url(#p8690db734e)" d="M 55.905 210.806645 
L 72.22439 210.806645 
L 72.22439 206.094582 
L 72.303219 206.094582 
L 72.539819 206.094582 
L 72.539819 201.382519 
L 72.618644 201.382519 
L 78.847369 201.382519 
L 78.847369 196.670456 
L 78.92622 196.670456 
L 80.424316 196.670456 
L 80.424316 191.958393 
L 80.503191 191.958393 
L 81.055079 191.958393 
L 81.055079 187.24633 
L 81.133941 187.24633 
L 81.685875 187.24633 
L 81.685875 182.534267 
L 81.764725 182.534267 
L 86.416613 182.534267 
L 86.416613 187.24633 
L 86.495408 187.24633 
L 108.808717 187.24633 
L 108.808717 182.534267 
L 108.887483 182.534267 
L 110.700952 182.534267 
L 110.700952 173.110142 
L 110.779781 173.110142 
L 116.377822 173.110142 
L 116.377822 168.398079 
L 116.456652 168.398079 
L 117.639378 168.398079 
L 117.639378 149.549827 
L 117.718211 149.549827 
L 117.954763 149.549827 
L 117.954763 144.837764 
L 118.033613 144.837764 
L 118.270141 144.837764 
L 118.270141 140.125701 
L 118.348976 140.125701 
L 215.092283 140.125701 
L 215.092283 144.837764 
L 215.171128 144.837764 
L 215.407713 144.837764 
L 215.407713 140.125701 
L 215.486589 140.125701 
L 303.005 140.125701 
L 303.005 140.125701 
" style="fill:none;stroke:#666666;stroke-dasharray:4.5,1.5;stroke-dashoffset:0;stroke-width:1.5;"/>
   </g>
   <g id="line2d_36"/>
   <g id="line2d_37"/>
   <g id="line2d_38"/>
   <g id="line2d_39"/>
   <g id="line2d_40"/>
   <g id="line2d_41"/>
   <g id="line2d_42"/>
   <g id="line2d_43"/>
   <g id="line2d_44"/>
   <g id="line2d_45"/>
   <g id="line2d_46"/>
   <g id="line2d_47"/>
   <g id="line2d_48"/>
   <g id="line2d_49"/>
   <g id="line2d_50"/>
   <g id="line2d_51"/>
   <g id="line2d_52"/>
   <g id="patch_3">
    <path d="M 43.55 220.230771 
L 43.55 12.9 
" style="fill:none;stroke:#000000;stroke-linecap:square;stroke-linejoin:miter;stroke-width:0.8;"/>
   </g>
   <g id="patch_4">
    <path d="M 315.36 220.230771 
L 315.36 12.9 
" style="fill:none;stroke:#000000;stroke-linecap:square;stroke-linejoin:miter;stroke-width:0.8;"/>
   </g>
   <g id="patch_5">
    <path d="M 43.55 220.230771 
L 315.36 220.230771 
" style="fill:none;stroke:#000000;stroke-linecap:square;stroke-linejoin:miter;stroke-width:0.8;"/>
   </g>
   <g id="patch_6">
    <path d="M 43.55 12.9 
L 315.36 12.9 
" style="fill:none;stroke:#000000;stroke-linecap:square;stroke-linejoin:miter;stroke-width:0.8;"/>
   </g>
  </g>
  <g id="legend_1">
   <g id="patch_7">
    <path d="M 331.8625 262.528125 
L 420 262.528125 
Q 422 262.528125 422 260.528125 
L 422 12 
Q 422 10 420 10 
L 331.8625 10 
Q 329.8625 10 329.8625 12 
L 329.8625 260.528125 
Q 329.8625 262.528125 331.8625 262.528125 
z
" style="fill:#ffffff;opacity:0.8;stroke:#cccccc;stroke-linejoin:miter;"/>
   </g>
   <g id="text_22">
    <!-- 478/610 Reg. -->
    <defs>
     <path d="M 31.78125 34.625 
Q 24.75 34.625 20.71875 30.859375 
Q 16.703125 27.09375 16.703125 20.515625 
Q 16.703125 13.921875 20.71875 10.15625 
Q 24.75 6.390625 31.78125 6.390625 
Q 38.8125 6.390625 42.859375 10.171875 
Q 46.921875 13.96875 46.921875 20.515625 
Q 46.921875 27.09375 42.890625 30.859375 
Q 38.875 34.625 31.78125 34.625 
z
M 21.921875 38.8125 
Q 15.578125 40.375 12.03125 44.71875 
Q 8.5 49.078125 8.5 55.328125 
Q 8.5 64.0625 14.71875 69.140625 
Q 20.953125 74.21875 31.78125 74.21875 
Q 42.671875 74.21875 48.875 69.140625 
Q 55.078125 64.0625 55.078125 55.328125 
Q 55.078125 49.078125 51.53125 44.71875 
Q 48 40.375 41.703125 38.8125 
Q 48.828125 37.15625 52.796875 32.3125 
Q 56.78125 27.484375 56.78125 20.515625 
Q 56.78125 9.90625 50.3125 4.234375 
Q 43.84375 -1.421875 31.78125 -1.421875 
Q 19.734375 -1.421875 13.25 4.234375 
Q 6.78125 9.90625 6.78125 20.515625 
Q 6.78125 27.484375 10.78125 32.3125 
Q 14.796875 37.15625 21.921875 38.8125 
z
M 18.3125 54.390625 
Q 18.3125 48.734375 21.84375 45.5625 
Q 25.390625 42.390625 31.78125 42.390625 
Q 38.140625 42.390625 41.71875 45.5625 
Q 45.3125 48.734375 45.3125 54.390625 
Q 45.3125 60.0625 41.71875 63.234375 
Q 38.140625 66.40625 31.78125 66.40625 
Q 25.390625 66.40625 21.84375 63.234375 
Q 18.3125 60.0625 18.3125 54.390625 
z
" id="DejaVuSans-56"/>
     <path d="M 25.390625 72.90625 
L 33.6875 72.90625 
L 8.296875 -9.28125 
L 0 -9.28125 
z
" id="DejaVuSans-47"/>
     <path d="M 33.015625 40.375 
Q 26.375 40.375 22.484375 35.828125 
Q 18.609375 31.296875 18.609375 23.390625 
Q 18.609375 15.53125 22.484375 10.953125 
Q 26.375 6.390625 33.015625 6.390625 
Q 39.65625 6.390625 43.53125 10.953125 
Q 47.40625 15.53125 47.40625 23.390625 
Q 47.40625 31.296875 43.53125 35.828125 
Q 39.65625 40.375 33.015625 40.375 
z
M 52.59375 71.296875 
L 52.59375 62.3125 
Q 48.875 64.0625 45.09375 64.984375 
Q 41.3125 65.921875 37.59375 65.921875 
Q 27.828125 65.921875 22.671875 59.328125 
Q 17.53125 52.734375 16.796875 39.40625 
Q 19.671875 43.65625 24.015625 45.921875 
Q 28.375 48.1875 33.59375 48.1875 
Q 44.578125 48.1875 50.953125 41.515625 
Q 57.328125 34.859375 57.328125 23.390625 
Q 57.328125 12.15625 50.6875 5.359375 
Q 44.046875 -1.421875 33.015625 -1.421875 
Q 20.359375 -1.421875 13.671875 8.265625 
Q 6.984375 17.96875 6.984375 36.375 
Q 6.984375 53.65625 15.1875 63.9375 
Q 23.390625 74.21875 37.203125 74.21875 
Q 40.921875 74.21875 44.703125 73.484375 
Q 48.484375 72.75 52.59375 71.296875 
z
" id="DejaVuSans-54"/>
     <path d="M 10.6875 12.40625 
L 21 12.40625 
L 21 0 
L 10.6875 0 
z
" id="DejaVuSans-46"/>
    </defs>
    <g transform="translate(342.259375 21.598437)scale(0.1 -0.1)">
     <use xlink:href="#DejaVuSans-52"/>
     <use x="63.623047" xlink:href="#DejaVuSans-55"/>
     <use x="127.246094" xlink:href="#DejaVuSans-56"/>
     <use x="190.869141" xlink:href="#DejaVuSans-47"/>
     <use x="224.560547" xlink:href="#DejaVuSans-54"/>
     <use x="288.183594" xlink:href="#DejaVuSans-49"/>
     <use x="351.806641" xlink:href="#DejaVuSans-48"/>
     <use x="415.429688" xlink:href="#DejaVuSans-32"/>
     <use x="447.216797" xlink:href="#DejaVuSans-82"/>
     <use x="516.636719" xlink:href="#DejaVuSans-101"/>
     <use x="578.160156" xlink:href="#DejaVuSans-103"/>
     <use x="641.636719" xlink:href="#DejaVuSans-46"/>
    </g>
   </g>
   <g id="line2d_53">
    <path d="M 333.8625 32.776562 
L 353.8625 32.776562 
" style="fill:none;stroke:#1b9e77;stroke-linecap:square;stroke-width:1.5;"/>
   </g>
   <g id="line2d_54"/>
   <g id="text_23">
    <!-- AUS (40) -->
    <defs>
     <path d="M 34.1875 63.1875 
L 20.796875 26.90625 
L 47.609375 26.90625 
z
M 28.609375 72.90625 
L 39.796875 72.90625 
L 67.578125 0 
L 57.328125 0 
L 50.6875 18.703125 
L 17.828125 18.703125 
L 11.1875 0 
L 0.78125 0 
z
" id="DejaVuSans-65"/>
     <path d="M 8.6875 72.90625 
L 18.609375 72.90625 
L 18.609375 28.609375 
Q 18.609375 16.890625 22.84375 11.734375 
Q 27.09375 6.59375 36.625 6.59375 
Q 46.09375 6.59375 50.34375 11.734375 
Q 54.59375 16.890625 54.59375 28.609375 
L 54.59375 72.90625 
L 64.5 72.90625 
L 64.5 27.390625 
Q 64.5 13.140625 57.4375 5.859375 
Q 50.390625 -1.421875 36.625 -1.421875 
Q 22.796875 -1.421875 15.734375 5.859375 
Q 8.6875 13.140625 8.6875 27.390625 
z
" id="DejaVuSans-85"/>
     <path d="M 31 75.875 
Q 24.46875 64.65625 21.28125 53.65625 
Q 18.109375 42.671875 18.109375 31.390625 
Q 18.109375 20.125 21.3125 9.0625 
Q 24.515625 -2 31 -13.1875 
L 23.1875 -13.1875 
Q 15.875 -1.703125 12.234375 9.375 
Q 8.59375 20.453125 8.59375 31.390625 
Q 8.59375 42.28125 12.203125 53.3125 
Q 15.828125 64.359375 23.1875 75.875 
z
" id="DejaVuSans-40"/>
     <path d="M 8.015625 75.875 
L 15.828125 75.875 
Q 23.140625 64.359375 26.78125 53.3125 
Q 30.421875 42.28125 30.421875 31.390625 
Q 30.421875 20.453125 26.78125 9.375 
Q 23.140625 -1.703125 15.828125 -13.1875 
L 8.015625 -13.1875 
Q 14.5 -2 17.703125 9.0625 
Q 20.90625 20.125 20.90625 31.390625 
Q 20.90625 42.671875 17.703125 53.65625 
Q 14.5 64.65625 8.015625 75.875 
z
" id="DejaVuSans-41"/>
    </defs>
    <g transform="translate(361.8625 36.276562)scale(0.1 -0.1)">
     <use xlink:href="#DejaVuSans-65"/>
     <use x="68.408203" xlink:href="#DejaVuSans-85"/>
     <use x="141.601562" xlink:href="#DejaVuSans-83"/>
     <use x="205.078125" xlink:href="#DejaVuSans-32"/>
     <use x="236.865234" xlink:href="#DejaVuSans-40"/>
     <use x="275.878906" xlink:href="#DejaVuSans-52"/>
     <use x="339.501953" xlink:href="#DejaVuSans-48"/>
     <use x="403.125" xlink:href="#DejaVuSans-41"/>
    </g>
   </g>
   <g id="line2d_55">
    <path d="M 333.8625 47.454688 
L 353.8625 47.454688 
" style="fill:none;stroke:#d95f02;stroke-linecap:square;stroke-width:1.5;"/>
   </g>
   <g id="line2d_56"/>
   <g id="text_24">
    <!-- COML (40) -->
    <defs>
     <path d="M 64.40625 67.28125 
L 64.40625 56.890625 
Q 59.421875 61.53125 53.78125 63.8125 
Q 48.140625 66.109375 41.796875 66.109375 
Q 29.296875 66.109375 22.65625 58.46875 
Q 16.015625 50.828125 16.015625 36.375 
Q 16.015625 21.96875 22.65625 14.328125 
Q 29.296875 6.6875 41.796875 6.6875 
Q 48.140625 6.6875 53.78125 8.984375 
Q 59.421875 11.28125 64.40625 15.921875 
L 64.40625 5.609375 
Q 59.234375 2.09375 53.4375 0.328125 
Q 47.65625 -1.421875 41.21875 -1.421875 
Q 24.65625 -1.421875 15.125 8.703125 
Q 5.609375 18.84375 5.609375 36.375 
Q 5.609375 53.953125 15.125 64.078125 
Q 24.65625 74.21875 41.21875 74.21875 
Q 47.75 74.21875 53.53125 72.484375 
Q 59.328125 70.75 64.40625 67.28125 
z
" id="DejaVuSans-67"/>
     <path d="M 39.40625 66.21875 
Q 28.65625 66.21875 22.328125 58.203125 
Q 16.015625 50.203125 16.015625 36.375 
Q 16.015625 22.609375 22.328125 14.59375 
Q 28.65625 6.59375 39.40625 6.59375 
Q 50.140625 6.59375 56.421875 14.59375 
Q 62.703125 22.609375 62.703125 36.375 
Q 62.703125 50.203125 56.421875 58.203125 
Q 50.140625 66.21875 39.40625 66.21875 
z
M 39.40625 74.21875 
Q 54.734375 74.21875 63.90625 63.9375 
Q 73.09375 53.65625 73.09375 36.375 
Q 73.09375 19.140625 63.90625 8.859375 
Q 54.734375 -1.421875 39.40625 -1.421875 
Q 24.03125 -1.421875 14.8125 8.828125 
Q 5.609375 19.09375 5.609375 36.375 
Q 5.609375 53.65625 14.8125 63.9375 
Q 24.03125 74.21875 39.40625 74.21875 
z
" id="DejaVuSans-79"/>
     <path d="M 9.8125 72.90625 
L 24.515625 72.90625 
L 43.109375 23.296875 
L 61.8125 72.90625 
L 76.515625 72.90625 
L 76.515625 0 
L 66.890625 0 
L 66.890625 64.015625 
L 48.09375 14.015625 
L 38.1875 14.015625 
L 19.390625 64.015625 
L 19.390625 0 
L 9.8125 0 
z
" id="DejaVuSans-77"/>
     <path d="M 9.8125 72.90625 
L 19.671875 72.90625 
L 19.671875 8.296875 
L 55.171875 8.296875 
L 55.171875 0 
L 9.8125 0 
z
" id="DejaVuSans-76"/>
    </defs>
    <g transform="translate(361.8625 50.954688)scale(0.1 -0.1)">
     <use xlink:href="#DejaVuSans-67"/>
     <use x="69.824219" xlink:href="#DejaVuSans-79"/>
     <use x="148.535156" xlink:href="#DejaVuSans-77"/>
     <use x="234.814453" xlink:href="#DejaVuSans-76"/>
     <use x="290.527344" xlink:href="#DejaVuSans-32"/>
     <use x="322.314453" xlink:href="#DejaVuSans-40"/>
     <use x="361.328125" xlink:href="#DejaVuSans-52"/>
     <use x="424.951172" xlink:href="#DejaVuSans-48"/>
     <use x="488.574219" xlink:href="#DejaVuSans-41"/>
    </g>
   </g>
   <g id="line2d_57">
    <path d="M 333.8625 62.132812 
L 353.8625 62.132812 
" style="fill:none;stroke:#7570b3;stroke-linecap:square;stroke-width:1.5;"/>
   </g>
   <g id="line2d_58"/>
   <g id="text_25">
    <!-- GDD (40) -->
    <defs>
     <path d="M 59.515625 10.40625 
L 59.515625 29.984375 
L 43.40625 29.984375 
L 43.40625 38.09375 
L 69.28125 38.09375 
L 69.28125 6.78125 
Q 63.578125 2.734375 56.6875 0.65625 
Q 49.8125 -1.421875 42 -1.421875 
Q 24.90625 -1.421875 15.25 8.5625 
Q 5.609375 18.5625 5.609375 36.375 
Q 5.609375 54.25 15.25 64.234375 
Q 24.90625 74.21875 42 74.21875 
Q 49.125 74.21875 55.546875 72.453125 
Q 61.96875 70.703125 67.390625 67.28125 
L 67.390625 56.78125 
Q 61.921875 61.421875 55.765625 63.765625 
Q 49.609375 66.109375 42.828125 66.109375 
Q 29.4375 66.109375 22.71875 58.640625 
Q 16.015625 51.171875 16.015625 36.375 
Q 16.015625 21.625 22.71875 14.15625 
Q 29.4375 6.6875 42.828125 6.6875 
Q 48.046875 6.6875 52.140625 7.59375 
Q 56.25 8.5 59.515625 10.40625 
z
" id="DejaVuSans-71"/>
    </defs>
    <g transform="translate(361.8625 65.632812)scale(0.1 -0.1)">
     <use xlink:href="#DejaVuSans-71"/>
     <use x="77.490234" xlink:href="#DejaVuSans-68"/>
     <use x="154.492188" xlink:href="#DejaVuSans-68"/>
     <use x="231.494141" xlink:href="#DejaVuSans-32"/>
     <use x="263.28125" xlink:href="#DejaVuSans-40"/>
     <use x="302.294922" xlink:href="#DejaVuSans-52"/>
     <use x="365.917969" xlink:href="#DejaVuSans-48"/>
     <use x="429.541016" xlink:href="#DejaVuSans-41"/>
    </g>
   </g>
   <g id="line2d_59">
    <path d="M 333.8625 76.810937 
L 353.8625 76.810937 
" style="fill:none;stroke:#e7298a;stroke-linecap:square;stroke-width:1.5;"/>
   </g>
   <g id="line2d_60"/>
   <g id="text_26">
    <!-- AS (38) -->
    <g transform="translate(361.8625 80.310937)scale(0.1 -0.1)">
     <use xlink:href="#DejaVuSans-65"/>
     <use x="68.408203" xlink:href="#DejaVuSans-83"/>
     <use x="131.884766" xlink:href="#DejaVuSans-32"/>
     <use x="163.671875" xlink:href="#DejaVuSans-40"/>
     <use x="202.685547" xlink:href="#DejaVuSans-51"/>
     <use x="266.308594" xlink:href="#DejaVuSans-56"/>
     <use x="329.931641" xlink:href="#DejaVuSans-41"/>
    </g>
   </g>
   <g id="line2d_61">
    <path d="M 333.8625 91.489062 
L 353.8625 91.489062 
" style="fill:none;stroke:#66a61e;stroke-linecap:square;stroke-width:1.5;"/>
   </g>
   <g id="line2d_62"/>
   <g id="text_27">
    <!-- MD (38) -->
    <g transform="translate(361.8625 94.989062)scale(0.1 -0.1)">
     <use xlink:href="#DejaVuSans-77"/>
     <use x="86.279297" xlink:href="#DejaVuSans-68"/>
     <use x="163.28125" xlink:href="#DejaVuSans-32"/>
     <use x="195.068359" xlink:href="#DejaVuSans-40"/>
     <use x="234.082031" xlink:href="#DejaVuSans-51"/>
     <use x="297.705078" xlink:href="#DejaVuSans-56"/>
     <use x="361.328125" xlink:href="#DejaVuSans-41"/>
    </g>
   </g>
   <g id="line2d_63">
    <path d="M 333.8625 106.167188 
L 353.8625 106.167188 
" style="fill:none;stroke:#e6ab02;stroke-linecap:square;stroke-width:1.5;"/>
   </g>
   <g id="line2d_64"/>
   <g id="text_28">
    <!-- HPI (38) -->
    <defs>
     <path d="M 9.8125 72.90625 
L 19.671875 72.90625 
L 19.671875 43.015625 
L 55.515625 43.015625 
L 55.515625 72.90625 
L 65.375 72.90625 
L 65.375 0 
L 55.515625 0 
L 55.515625 34.71875 
L 19.671875 34.71875 
L 19.671875 0 
L 9.8125 0 
z
" id="DejaVuSans-72"/>
     <path d="M 19.671875 64.796875 
L 19.671875 37.40625 
L 32.078125 37.40625 
Q 38.96875 37.40625 42.71875 40.96875 
Q 46.484375 44.53125 46.484375 51.125 
Q 46.484375 57.671875 42.71875 61.234375 
Q 38.96875 64.796875 32.078125 64.796875 
z
M 9.8125 72.90625 
L 32.078125 72.90625 
Q 44.34375 72.90625 50.609375 67.359375 
Q 56.890625 61.8125 56.890625 51.125 
Q 56.890625 40.328125 50.609375 34.8125 
Q 44.34375 29.296875 32.078125 29.296875 
L 19.671875 29.296875 
L 19.671875 0 
L 9.8125 0 
z
" id="DejaVuSans-80"/>
     <path d="M 9.8125 72.90625 
L 19.671875 72.90625 
L 19.671875 0 
L 9.8125 0 
z
" id="DejaVuSans-73"/>
    </defs>
    <g transform="translate(361.8625 109.667188)scale(0.1 -0.1)">
     <use xlink:href="#DejaVuSans-72"/>
     <use x="75.195312" xlink:href="#DejaVuSans-80"/>
     <use x="135.498047" xlink:href="#DejaVuSans-73"/>
     <use x="164.990234" xlink:href="#DejaVuSans-32"/>
     <use x="196.777344" xlink:href="#DejaVuSans-40"/>
     <use x="235.791016" xlink:href="#DejaVuSans-51"/>
     <use x="299.414062" xlink:href="#DejaVuSans-56"/>
     <use x="363.037109" xlink:href="#DejaVuSans-41"/>
    </g>
   </g>
   <g id="line2d_65">
    <path d="M 333.8625 120.845312 
L 353.8625 120.845312 
" style="fill:none;stroke:#a6761d;stroke-linecap:square;stroke-width:1.5;"/>
   </g>
   <g id="line2d_66"/>
   <g id="text_29">
    <!-- SA (37) -->
    <g transform="translate(361.8625 124.345312)scale(0.1 -0.1)">
     <use xlink:href="#DejaVuSans-83"/>
     <use x="63.492188" xlink:href="#DejaVuSans-65"/>
     <use x="131.900391" xlink:href="#DejaVuSans-32"/>
     <use x="163.6875" xlink:href="#DejaVuSans-40"/>
     <use x="202.701172" xlink:href="#DejaVuSans-51"/>
     <use x="266.324219" xlink:href="#DejaVuSans-55"/>
     <use x="329.947266" xlink:href="#DejaVuSans-41"/>
    </g>
   </g>
   <g id="line2d_67">
    <path d="M 333.8625 135.523438 
L 353.8625 135.523438 
" style="fill:none;stroke:#666666;stroke-linecap:square;stroke-width:1.5;"/>
   </g>
   <g id="line2d_68"/>
   <g id="text_30">
    <!-- FIT (29) -->
    <defs>
     <path d="M 9.8125 72.90625 
L 51.703125 72.90625 
L 51.703125 64.59375 
L 19.671875 64.59375 
L 19.671875 43.109375 
L 48.578125 43.109375 
L 48.578125 34.8125 
L 19.671875 34.8125 
L 19.671875 0 
L 9.8125 0 
z
" id="DejaVuSans-70"/>
     <path d="M -0.296875 72.90625 
L 61.375 72.90625 
L 61.375 64.59375 
L 35.5 64.59375 
L 35.5 0 
L 25.59375 0 
L 25.59375 64.59375 
L -0.296875 64.59375 
z
" id="DejaVuSans-84"/>
    </defs>
    <g transform="translate(361.8625 139.023438)scale(0.1 -0.1)">
     <use xlink:href="#DejaVuSans-70"/>
     <use x="57.519531" xlink:href="#DejaVuSans-73"/>
     <use x="87.011719" xlink:href="#DejaVuSans-84"/>
     <use x="148.095703" xlink:href="#DejaVuSans-32"/>
     <use x="179.882812" xlink:href="#DejaVuSans-40"/>
     <use x="218.896484" xlink:href="#DejaVuSans-50"/>
     <use x="282.519531" xlink:href="#DejaVuSans-57"/>
     <use x="346.142578" xlink:href="#DejaVuSans-41"/>
    </g>
   </g>
   <g id="line2d_69">
    <path d="M 333.8625 150.201562 
L 353.8625 150.201562 
" style="fill:none;stroke:#1b9e77;stroke-dasharray:4.5,1.5;stroke-dashoffset:0;stroke-width:1.5;"/>
   </g>
   <g id="line2d_70"/>
   <g id="text_31">
    <!-- TBI (27) -->
    <defs>
     <path d="M 19.671875 34.8125 
L 19.671875 8.109375 
L 35.5 8.109375 
Q 43.453125 8.109375 47.28125 11.40625 
Q 51.125 14.703125 51.125 21.484375 
Q 51.125 28.328125 47.28125 31.5625 
Q 43.453125 34.8125 35.5 34.8125 
z
M 19.671875 64.796875 
L 19.671875 42.828125 
L 34.28125 42.828125 
Q 41.5 42.828125 45.03125 45.53125 
Q 48.578125 48.25 48.578125 53.8125 
Q 48.578125 59.328125 45.03125 62.0625 
Q 41.5 64.796875 34.28125 64.796875 
z
M 9.8125 72.90625 
L 35.015625 72.90625 
Q 46.296875 72.90625 52.390625 68.21875 
Q 58.5 63.53125 58.5 54.890625 
Q 58.5 48.1875 55.375 44.234375 
Q 52.25 40.28125 46.1875 39.3125 
Q 53.46875 37.75 57.5 32.78125 
Q 61.53125 27.828125 61.53125 20.40625 
Q 61.53125 10.640625 54.890625 5.3125 
Q 48.25 0 35.984375 0 
L 9.8125 0 
z
" id="DejaVuSans-66"/>
    </defs>
    <g transform="translate(361.8625 153.701562)scale(0.1 -0.1)">
     <use xlink:href="#DejaVuSans-84"/>
     <use x="61.083984" xlink:href="#DejaVuSans-66"/>
     <use x="129.6875" xlink:href="#DejaVuSans-73"/>
     <use x="159.179688" xlink:href="#DejaVuSans-32"/>
     <use x="190.966797" xlink:href="#DejaVuSans-40"/>
     <use x="229.980469" xlink:href="#DejaVuSans-50"/>
     <use x="293.603516" xlink:href="#DejaVuSans-55"/>
     <use x="357.226562" xlink:href="#DejaVuSans-41"/>
    </g>
   </g>
   <g id="line2d_71">
    <path d="M 333.8625 164.879687 
L 353.8625 164.879687 
" style="fill:none;stroke:#d95f02;stroke-dasharray:4.5,1.5;stroke-dashoffset:0;stroke-width:1.5;"/>
   </g>
   <g id="line2d_72"/>
   <g id="text_32">
    <!-- BP (26) -->
    <g transform="translate(361.8625 168.379687)scale(0.1 -0.1)">
     <use xlink:href="#DejaVuSans-66"/>
     <use x="68.603516" xlink:href="#DejaVuSans-80"/>
     <use x="128.90625" xlink:href="#DejaVuSans-32"/>
     <use x="160.693359" xlink:href="#DejaVuSans-40"/>
     <use x="199.707031" xlink:href="#DejaVuSans-50"/>
     <use x="263.330078" xlink:href="#DejaVuSans-54"/>
     <use x="326.953125" xlink:href="#DejaVuSans-41"/>
    </g>
   </g>
   <g id="line2d_73">
    <path d="M 333.8625 179.557812 
L 353.8625 179.557812 
" style="fill:none;stroke:#7570b3;stroke-dasharray:4.5,1.5;stroke-dashoffset:0;stroke-width:1.5;"/>
   </g>
   <g id="line2d_74"/>
   <g id="text_33">
    <!-- SPD (25) -->
    <g transform="translate(361.8625 183.057812)scale(0.1 -0.1)">
     <use xlink:href="#DejaVuSans-83"/>
     <use x="63.476562" xlink:href="#DejaVuSans-80"/>
     <use x="123.779297" xlink:href="#DejaVuSans-68"/>
     <use x="200.78125" xlink:href="#DejaVuSans-32"/>
     <use x="232.568359" xlink:href="#DejaVuSans-40"/>
     <use x="271.582031" xlink:href="#DejaVuSans-50"/>
     <use x="335.205078" xlink:href="#DejaVuSans-53"/>
     <use x="398.828125" xlink:href="#DejaVuSans-41"/>
    </g>
   </g>
   <g id="line2d_75">
    <path d="M 333.8625 194.235937 
L 353.8625 194.235937 
" style="fill:none;stroke:#e7298a;stroke-dasharray:4.5,1.5;stroke-dashoffset:0;stroke-width:1.5;"/>
   </g>
   <g id="line2d_76"/>
   <g id="text_34">
    <!-- CC (25) -->
    <g transform="translate(361.8625 197.735937)scale(0.1 -0.1)">
     <use xlink:href="#DejaVuSans-67"/>
     <use x="69.824219" xlink:href="#DejaVuSans-67"/>
     <use x="139.648438" xlink:href="#DejaVuSans-32"/>
     <use x="171.435547" xlink:href="#DejaVuSans-40"/>
     <use x="210.449219" xlink:href="#DejaVuSans-50"/>
     <use x="274.072266" xlink:href="#DejaVuSans-53"/>
     <use x="337.695312" xlink:href="#DejaVuSans-41"/>
    </g>
   </g>
   <g id="line2d_77">
    <path d="M 333.8625 208.914062 
L 353.8625 208.914062 
" style="fill:none;stroke:#66a61e;stroke-dasharray:4.5,1.5;stroke-dashoffset:0;stroke-width:1.5;"/>
   </g>
   <g id="line2d_78"/>
   <g id="text_35">
    <!-- RJPH (20) -->
    <defs>
     <path d="M 9.8125 72.90625 
L 19.671875 72.90625 
L 19.671875 5.078125 
Q 19.671875 -8.109375 14.671875 -14.0625 
Q 9.671875 -20.015625 -1.421875 -20.015625 
L -5.171875 -20.015625 
L -5.171875 -11.71875 
L -2.09375 -11.71875 
Q 4.4375 -11.71875 7.125 -8.046875 
Q 9.8125 -4.390625 9.8125 5.078125 
z
" id="DejaVuSans-74"/>
    </defs>
    <g transform="translate(361.8625 212.414062)scale(0.1 -0.1)">
     <use xlink:href="#DejaVuSans-82"/>
     <use x="69.482422" xlink:href="#DejaVuSans-74"/>
     <use x="98.974609" xlink:href="#DejaVuSans-80"/>
     <use x="159.277344" xlink:href="#DejaVuSans-72"/>
     <use x="234.472656" xlink:href="#DejaVuSans-32"/>
     <use x="266.259766" xlink:href="#DejaVuSans-40"/>
     <use x="305.273438" xlink:href="#DejaVuSans-50"/>
     <use x="368.896484" xlink:href="#DejaVuSans-48"/>
     <use x="432.519531" xlink:href="#DejaVuSans-41"/>
    </g>
   </g>
   <g id="line2d_79">
    <path d="M 333.8625 223.592187 
L 353.8625 223.592187 
" style="fill:none;stroke:#e6ab02;stroke-dasharray:4.5,1.5;stroke-dashoffset:0;stroke-width:1.5;"/>
   </g>
   <g id="line2d_80"/>
   <g id="text_36">
    <!-- AHR-H (20) -->
    <g transform="translate(361.8625 227.092187)scale(0.1 -0.1)">
     <use xlink:href="#DejaVuSans-65"/>
     <use x="68.408203" xlink:href="#DejaVuSans-72"/>
     <use x="143.603516" xlink:href="#DejaVuSans-82"/>
     <use x="213.023438" xlink:href="#DejaVuSans-45"/>
     <use x="249.107422" xlink:href="#DejaVuSans-72"/>
     <use x="324.302734" xlink:href="#DejaVuSans-32"/>
     <use x="356.089844" xlink:href="#DejaVuSans-40"/>
     <use x="395.103516" xlink:href="#DejaVuSans-50"/>
     <use x="458.726562" xlink:href="#DejaVuSans-48"/>
     <use x="522.349609" xlink:href="#DejaVuSans-41"/>
    </g>
   </g>
   <g id="line2d_81">
    <path d="M 333.8625 238.270312 
L 353.8625 238.270312 
" style="fill:none;stroke:#a6761d;stroke-dasharray:4.5,1.5;stroke-dashoffset:0;stroke-width:1.5;"/>
   </g>
   <g id="line2d_82"/>
   <g id="text_37">
    <!-- CB (20) -->
    <g transform="translate(361.8625 241.770312)scale(0.1 -0.1)">
     <use xlink:href="#DejaVuSans-67"/>
     <use x="69.824219" xlink:href="#DejaVuSans-66"/>
     <use x="138.427734" xlink:href="#DejaVuSans-32"/>
     <use x="170.214844" xlink:href="#DejaVuSans-40"/>
     <use x="209.228516" xlink:href="#DejaVuSans-50"/>
     <use x="272.851562" xlink:href="#DejaVuSans-48"/>
     <use x="336.474609" xlink:href="#DejaVuSans-41"/>
    </g>
   </g>
   <g id="line2d_83">
    <path d="M 333.8625 252.948437 
L 353.8625 252.948437 
" style="fill:none;stroke:#666666;stroke-dasharray:4.5,1.5;stroke-dashoffset:0;stroke-width:1.5;"/>
   </g>
   <g id="line2d_84"/>
   <g id="text_38">
    <!-- AHR-A (15) -->
    <g transform="translate(361.8625 256.448437)scale(0.1 -0.1)">
     <use xlink:href="#DejaVuSans-65"/>
     <use x="68.408203" xlink:href="#DejaVuSans-72"/>
     <use x="143.603516" xlink:href="#DejaVuSans-82"/>
     <use x="213.023438" xlink:href="#DejaVuSans-45"/>
     <use x="249.076172" xlink:href="#DejaVuSans-65"/>
     <use x="317.484375" xlink:href="#DejaVuSans-32"/>
     <use x="349.271484" xlink:href="#DejaVuSans-40"/>
     <use x="388.285156" xlink:href="#DejaVuSans-49"/>
     <use x="451.908203" xlink:href="#DejaVuSans-53"/>
     <use x="515.53125" xlink:href="#DejaVuSans-41"/>
    </g>
   </g>
  </g>
 </g>
 <defs>
  <clipPath id="p8690db734e">
   <rect height="207.330771" width="271.81" x="43.55" y="12.9"/>
  </clipPath>
 </defs>
</svg>
